<svg class="main-svg" xmlns="http://www.w3.org/2000/svg" xmlns:xlink="http://www.w3.org/1999/xlink" width="1024" height="576" style="" viewBox="0 0 1024 576"><rect x="0" y="0" width="1024" height="576" style="fill: rgb(255, 255, 255); fill-opacity: 1;"/><defs id="defs-05ace3"><g class="clips"><clipPath id="clip05ace3xyplot" class="plotclip"><rect width="726" height="396"/></clipPath><clipPath class="axesclip" id="clip05ace3x"><rect x="143" y="0" width="726" height="576"/></clipPath><clipPath class="axesclip" id="clip05ace3y"><rect x="0" y="100" width="1024" height="396"/></clipPath><clipPath class="axesclip" id="clip05ace3xy"><rect x="143" y="100" width="726" height="396"/></clipPath></g><g class="gradients"/><g class="patterns"/></defs><g class="bglayer"><rect class="bg" x="143" y="100" width="726" height="396" style="fill: rgb(229, 236, 246); fill-opacity: 1; stroke-width: 0;"/></g><g class="layer-below"><g class="imagelayer"/><g class="shapelayer"/></g><g class="cartesianlayer"><g class="subplot xy"><g class="layer-subplot"><g class="shapelayer"/><g class="imagelayer"/></g><g class="minor-gridlayer"><g class="x"/><g class="y"/></g><g class="gridlayer"><g class="x"><path class="xgrid crisp" transform="translate(235.57999999999998,0)" d="M0,100v396" style="stroke: rgb(255, 255, 255); stroke-opacity: 1; stroke-width: 1px;"/><path class="xgrid crisp" transform="translate(333.03,0)" d="M0,100v396" style="stroke: rgb(255, 255, 255); stroke-opacity: 1; stroke-width: 1px;"/><path class="xgrid crisp" transform="translate(430.48,0)" d="M0,100v396" style="stroke: rgb(255, 255, 255); stroke-opacity: 1; stroke-width: 1px;"/><path class="xgrid crisp" transform="translate(527.9300000000001,0)" d="M0,100v396" style="stroke: rgb(255, 255, 255); stroke-opacity: 1; stroke-width: 1px;"/><path class="xgrid crisp" transform="translate(625.38,0)" d="M0,100v396" style="stroke: rgb(255, 255, 255); stroke-opacity: 1; stroke-width: 1px;"/><path class="xgrid crisp" transform="translate(722.83,0)" d="M0,100v396" style="stroke: rgb(255, 255, 255); stroke-opacity: 1; stroke-width: 1px;"/><path class="xgrid crisp" transform="translate(820.28,0)" d="M0,100v396" style="stroke: rgb(255, 255, 255); stroke-opacity: 1; stroke-width: 1px;"/></g><g class="y"><path class="ygrid crisp" transform="translate(0,482.51)" d="M143,0h726" style="stroke: rgb(255, 255, 255); stroke-opacity: 1; stroke-width: 1px;"/><path class="ygrid crisp" transform="translate(0,441.8)" d="M143,0h726" style="stroke: rgb(255, 255, 255); stroke-opacity: 1; stroke-width: 1px;"/><path class="ygrid crisp" transform="translate(0,401.09)" d="M143,0h726" style="stroke: rgb(255, 255, 255); stroke-opacity: 1; stroke-width: 1px;"/><path class="ygrid crisp" transform="translate(0,360.39)" d="M143,0h726" style="stroke: rgb(255, 255, 255); stroke-opacity: 1; stroke-width: 1px;"/><path class="ygrid crisp" transform="translate(0,319.68)" d="M143,0h726" style="stroke: rgb(255, 255, 255); stroke-opacity: 1; stroke-width: 1px;"/><path class="ygrid crisp" transform="translate(0,278.97)" d="M143,0h726" style="stroke: rgb(255, 255, 255); stroke-opacity: 1; stroke-width: 1px;"/><path class="ygrid crisp" transform="translate(0,238.26)" d="M143,0h726" style="stroke: rgb(255, 255, 255); stroke-opacity: 1; stroke-width: 1px;"/><path class="ygrid crisp" transform="translate(0,197.55)" d="M143,0h726" style="stroke: rgb(255, 255, 255); stroke-opacity: 1; stroke-width: 1px;"/><path class="ygrid crisp" transform="translate(0,156.84)" d="M143,0h726" style="stroke: rgb(255, 255, 255); stroke-opacity: 1; stroke-width: 1px;"/><path class="ygrid crisp" transform="translate(0,116.14)" d="M143,0h726" style="stroke: rgb(255, 255, 255); stroke-opacity: 1; stroke-width: 1px;"/></g></g><g class="zerolinelayer"/><path class="xlines-below"/><path class="ylines-below"/><g class="overlines-below"/><g class="xaxislayer-below"/><g class="yaxislayer-below"/><g class="overaxes-below"/><g class="plot" transform="translate(143,100)" clip-path="url(#clip05ace3xyplot)"><g class="scatterlayer mlayer"><g class="trace scatter tracee7b3f8" style="stroke-miterlimit: 2; opacity: 1;"><g class="fills"/><g class="errorbars"/><g class="lines"><path class="js-line" d="M0,268.53L4.87,144.37L9.74,131.34L14.62,142.74L19.49,159.02L24.36,144.16L29.23,147.01L34.11,155.97L38.98,162.48L43.85,135.82L48.72,139.28L53.6,157.39L58.47,155.15L63.34,262.42L68.21,248.58L73.09,139.28L77.96,154.14L82.83,148.84L87.7,171.03L92.58,173.27L97.45,161.87L102.32,164.72L107.19,166.35L112.07,213.16L116.94,218.66L121.81,205.63L126.68,162.28L131.56,165.74L136.43,119.74L141.3,135L146.17,129.3L151.05,127.27L155.92,155.36L160.79,128.49L165.66,127.27L170.54,149.05L175.41,140.5L180.28,153.53L185.15,144.16L190.03,137.24L194.9,143.76L199.77,150.68L204.64,149.05L209.52,148.23L214.39,140.7L219.26,131.14L224.13,161.26L229.01,166.35L233.88,168.79L238.75,165.94L243.62,144.77L248.5,136.23L253.37,129.51L263.11,121.16L267.99,120.15L272.86,136.02L277.73,135.82L282.6,128.49L287.48,232.7L292.35,213.77L297.22,208.69L302.09,190.77L306.97,177.34L311.84,85.54L316.71,105.9L321.58,108.54L326.46,200.14L331.33,200.95L336.2,211.33L341.07,190.77L345.95,191.38L350.82,196.88L355.69,213.77L360.56,193.22L365.44,200.54L370.31,197.29L375.18,199.12L380.05,190.77L384.93,187.31L389.8,187.92L394.67,124.42L399.54,118.92L404.42,104.47L409.29,104.88L414.16,123L419.03,126.46L423.91,139.69L428.78,148.03L433.65,125.03L438.52,119.94L443.4,142.13L448.27,139.07L453.14,137.24L458.01,114.45L462.89,104.27L467.76,113.02L472.63,114.24L477.5,110.17L482.38,195.46L487.25,199.12L492.12,113.23L496.99,149.86L501.87,153.73L506.74,189.96L511.61,125.64L516.48,110.99L521.36,107.32L526.23,133.78L531.1,99.18L535.97,104.27L540.85,98.77L545.72,85.95L550.59,112L555.46,111.8L560.34,132.36L565.21,126.46L570.08,134.6L574.95,102.64L579.83,114.24L584.7,112.61L589.57,120.55L594.44,215.4L599.32,91.04L604.19,108.95L609.06,109.77L613.93,129.71L618.81,135L623.68,110.58L628.55,115.26L633.42,94.09L638.3,110.78L643.17,134.39L648.04,118.31L652.91,106.1L657.79,110.58L662.66,99.79L667.53,101.01L672.4,82.29L677.28,83.92L682.15,104.68L687.02,100.81L691.89,104.68L696.77,110.99L701.64,217.03L706.51,221.51L711.38,128.08L716.26,145.18L721.13,122.79L726,117.91" style="vector-effect: none; fill: none; stroke: rgb(255, 0, 0); stroke-opacity: 1; stroke-width: 2px; opacity: 1;"/></g><g class="points"/><g class="text"/></g><g class="trace scatter tracea61e84" style="stroke-miterlimit: 2; opacity: 1;"><g class="fills"/><g class="errorbars"/><g class="lines"><path class="js-line" d="M0,306.79L4.87,176.73L9.74,163.3L14.62,176.73L19.49,183.04L24.36,179.38L29.23,195.05L34.11,180.8L38.98,187.31L43.85,152.71L48.72,166.15L53.6,178.56L58.47,170.62L63.34,292.54L68.21,268.12L73.09,161.46L77.96,165.74L82.83,164.31L87.7,197.29L92.58,197.29L97.45,199.73L102.32,207.87L107.19,193.62L112.07,247.56L116.94,248.38L121.81,230.87L126.68,197.9L131.56,198.31L136.43,152.71L141.3,176.32L146.17,170.62L151.05,162.89L155.92,185.48L160.79,148.23L165.66,164.72L170.54,184.87L175.41,182.63L180.28,189.55L185.15,186.7L190.03,179.99L194.9,188.74L199.77,195.46L204.64,188.74L209.52,191.38L214.39,189.96L219.26,167.98L224.13,201.97L229.01,202.38L233.88,210.31L238.75,211.54L243.62,181.82L253.37,172.46L258.24,160.65L263.11,159.63L267.99,165.74L272.86,172.46L277.73,173.88L282.6,166.15L287.48,286.03L292.35,267.31L297.22,276.06L302.09,259.98L306.97,241.05L311.84,138.46L316.71,147.22L321.58,153.73L326.46,254.28L331.33,264.46L336.2,265.47L341.07,249.39L345.95,240.03L350.82,253.87L355.69,272.8L360.56,253.06L365.44,268.12L370.31,258.15L375.18,262.62L380.05,252.45L384.93,244.31L389.8,233.72L394.67,162.89L399.54,159.23L404.42,149.66L409.29,143.55L414.16,162.48L419.03,159.23L423.91,184.87L428.78,190.57L433.65,173.07L438.52,158.82L443.4,184.46L448.27,178.97L453.14,171.23L458.01,141.31L462.89,136.23L467.76,148.23L472.63,146.81L477.5,146.4L482.38,227.62L487.25,228.23L492.12,149.05L496.99,172.46L501.87,178.97L506.74,213.37L511.61,151.9L516.48,144.98L521.36,149.05L526.23,168.79L531.1,135.41L535.97,125.64L540.85,125.23L545.72,119.33L550.59,136.23L555.46,134.39L560.34,156.38L565.21,154.14L570.08,165.74L574.95,129.71L579.83,150.88L589.57,147.22L594.44,230.87L599.32,119.33L604.19,138.46L609.06,152.31L613.93,175.71L618.81,173.47L623.68,160.04L628.55,154.14L633.42,133.99L643.17,183.65L648.04,174.49L652.91,148.23L657.79,166.55L662.66,139.89L667.53,139.48L672.4,118.72L677.28,125.23L682.15,145.38L687.02,139.48L691.89,138.06L696.77,150.88L701.64,262.22L706.51,264.86L711.38,162.08L716.26,174.9L721.13,148.23L726,146.4" style="vector-effect: none; fill: none; stroke: rgb(0, 0, 255); stroke-opacity: 1; stroke-width: 2px; opacity: 1;"/></g><g class="points"/><g class="text"/></g><g class="trace scatter tracebee5c5" style="stroke-miterlimit: 2; opacity: 1;"><g class="fills"/><g class="errorbars"/><g class="lines"><path class="js-line" d="M0,303.54L4.87,245.53L9.74,237.39L14.62,227.62L19.49,223.14L29.23,217.23L34.11,216.83L38.98,214.59L43.85,203.6L48.72,202.99L53.6,209.7L58.47,208.28L63.34,247.97L68.21,245.53L73.09,205.43L77.96,208.08L82.83,205.02L87.7,209.09L92.58,211.94L97.45,203.39L102.32,203.6L107.19,206.85L112.07,215.2L116.94,215.61L121.81,208.08L126.68,203.6L131.56,205.43L136.43,189.15L141.3,195.66L151.05,194.23L155.92,194.85L160.79,183.45L165.66,183.24L170.54,191.79L175.41,186.3L180.28,193.83L185.15,189.55L190.03,180.8L194.9,185.28L199.77,188.33L204.64,189.15L209.52,189.96L214.39,184.46L219.26,182.02L224.13,197.08L229.01,197.9L233.88,199.73L238.75,203.8L243.62,187.92L248.5,184.87L253.37,180.39L258.24,178.36L263.11,174.69L267.99,174.49L272.86,183.65L277.73,184.26L282.6,181.21L287.48,222.73L292.35,215.81L297.22,213.98L302.09,205.84L306.97,203.6L311.84,159.43L316.71,170.62L321.58,171.85L326.46,212.35L331.33,210.31L336.2,212.15L341.07,204.41L345.95,205.02L350.82,206.65L355.69,213.16L360.56,205.02L365.44,209.7L370.31,208.48L375.18,209.09L380.05,205.43L384.93,203.19L389.8,202.38L394.67,172.25L399.54,170.01L404.42,166.15L409.29,159.63L414.16,170.42L419.03,171.23L428.78,180.19L433.65,170.42L438.52,170.62L443.4,179.78L448.27,179.38L453.14,180.19L458.01,169L462.89,165.54L467.76,168.18L472.63,167.98L477.5,167.37L482.38,203.19L487.25,202.78L492.12,168.38L496.99,184.46L501.87,183.45L506.74,199.32L511.61,174.69L516.48,167.37L521.36,166.55L526.23,178.36L531.1,169.4L535.97,171.85L540.85,167.98L545.72,160.85L550.59,175.92L555.46,173.47L560.34,179.58L565.21,175.92L570.08,179.99L574.95,164.52L579.83,171.03L584.7,168.79L589.57,172.46L594.44,212.15L599.32,163.5L604.19,166.55L609.06,166.15L613.93,173.68L618.81,175.92L623.68,167.37L628.55,172.05L633.42,160.04L638.3,164.31L643.17,173.68L648.04,165.74L652.91,162.69L657.79,162.69L662.66,158.21L667.53,162.08L672.4,153.12L677.28,153.12L682.15,162.28L687.02,159.63L691.89,160.65L696.77,163.09L701.64,207.26L706.51,209.7L711.38,172.66L716.26,181.21L721.13,170.22L726,168.38" style="vector-effect: none; fill: none; stroke: rgb(0, 128, 0); stroke-opacity: 1; stroke-width: 2px; opacity: 1;"/></g><g class="points"/><g class="text"/></g><g class="trace scatter trace271aa7" style="stroke-miterlimit: 2; opacity: 1;"><g class="fills"/><g class="errorbars"/><g class="lines"><path class="js-line" d="M0,334.68L4.87,277.48L9.74,266.08L14.62,263.64L19.49,247.77L24.36,251.23L29.23,258.55L34.11,239.83L38.98,239.62L43.85,221.71L48.72,227.21L53.6,233.11L58.47,227L63.34,267.92L68.21,263.85L73.09,225.17L77.96,219.27L82.83,224.15L87.7,226.39L92.58,225.99L97.45,229.85L102.32,234.54L107.19,223.14L112.07,242.88L116.94,239.01L121.81,228.84L126.68,233.72L131.56,236.16L136.43,216.83L141.3,226.8L146.17,228.63L155.92,217.44L160.79,199.12L165.66,211.54L170.54,218.05L175.41,215.2L180.28,220.08L185.15,217.64L190.03,212.76L194.9,216.83L199.77,218.25L204.64,215.2L209.52,220.08L214.39,219.88L219.26,209.91L224.13,227.41L229.01,223.95L233.88,230.26L238.75,234.13L243.62,216.42L248.5,217.44L253.37,214.18L258.24,207.67L263.11,205.43L267.99,209.91L277.73,209.7L282.6,208.89L287.48,254.89L292.35,250.21L297.22,251.84L302.09,250.82L306.97,243.08L311.84,205.23L316.71,208.69L321.58,210.72L326.46,248.58L331.33,250.41L336.2,251.43L341.07,247.16L345.95,235.15L350.82,243.49L355.69,250.41L360.56,244.1L365.44,253.67L370.31,250.41L375.18,251.63L380.05,245.32L384.93,241.46L389.8,234.94L394.67,202.78L399.54,202.58L404.42,203.19L409.29,195.25L414.16,202.99L419.03,199.12L423.91,211.54L428.78,210.72L433.65,204.82L438.52,201.56L443.4,208.89L448.27,205.23L453.14,205.63L458.01,192.2L462.89,188.54L467.76,195.25L472.63,193.62L477.5,195.46L482.38,225.38L487.25,224.15L492.12,192.4L496.99,198.31L501.87,199.93L506.74,211.74L511.61,189.96L516.48,191.79L521.36,194.85L526.23,200.75L531.1,197.08L535.97,190.98L545.72,188.74L550.59,194.64L555.46,189.96L560.34,191.18L565.21,193.42L570.08,199.53L574.95,181.21L579.83,194.23L584.7,191.79L589.57,187.52L594.44,221.51L599.32,185.69L604.19,188.74L609.06,199.73L613.93,207.06L618.81,202.78L623.68,204L628.55,204.41L633.42,192.61L638.3,199.93L643.17,210.72L648.04,207.67L652.91,195.66L657.79,208.28L662.66,190.98L667.53,197.29L672.4,186.09L677.28,188.74L682.15,192.81L687.02,185.89L691.89,182.63L696.77,189.15L701.64,226.19L706.51,231.69L711.38,191.59L716.26,202.58L721.13,191.79L726,190.98" style="vector-effect: none; fill: none; stroke: rgb(255, 165, 0); stroke-opacity: 1; stroke-width: 2px; opacity: 1;"/></g><g class="points"/><g class="text"/></g><g class="trace scatter trace083596" style="stroke-miterlimit: 2; opacity: 1;"><g class="fills"/><g class="errorbars"/><g class="lines"><path class="js-line" d="M0,215.61L4.87,154.54L9.74,146.2L14.62,124.22L19.49,111.8L24.36,111.19L29.23,105.49L34.11,102.23L38.98,97.35L43.85,86.76L48.72,84.53L53.6,90.63L58.47,89L63.34,138.46L68.21,134.8L73.09,88.8L77.96,89L82.83,85.54L87.7,87.58L92.58,91.24L97.45,80.46L102.32,80.25L107.19,84.93L112.07,93.28L116.94,93.69L121.81,83.51L126.68,80.46L131.56,82.69L136.43,68.04L141.3,73.94L146.17,74.15L151.05,73.94L155.92,68.24L160.79,56.03L165.66,55.83L170.54,64.78L175.41,57.86L180.28,67.23L185.15,62.14L190.03,49.92L194.9,55.62L199.77,59.08L204.64,60.92L209.52,61.93L214.39,55.01L219.26,53.18L224.13,70.89L229.01,71.5L233.88,73.74L238.75,80.05L243.62,59.49L248.5,56.44L253.37,50.74L258.24,48.91L263.11,44.02L267.99,43.82L272.86,54.61L277.73,55.62L282.6,52.37L287.48,103.66L292.35,93.89L297.22,91.65L302.09,80.86L306.97,78.62L311.84,30.18L316.71,41.38L321.58,42.8L326.46,89.41L331.33,86.56L336.2,89.21L341.07,78.83L345.95,79.44L350.82,81.68L355.69,90.43L360.56,79.64L365.44,85.75L370.31,84.12L375.18,84.93L380.05,80.05L384.93,77.2L389.8,75.98L394.67,39.34L399.54,36.9L404.42,34.45L409.29,23.87L414.16,36.9L419.03,37.3L423.91,41.38L428.78,47.28L433.65,36.08L438.52,37.71L443.4,47.69L448.27,47.48L453.14,48.91L458.01,36.49L462.89,33.64L467.76,35.27L472.63,34.66L477.5,34.86L482.38,76.99L487.25,76.38L492.12,35.68L496.99,53.59L501.87,51.55L506.74,71.7L511.61,42.8L516.48,34.66L521.36,34.45L526.23,46.87L531.1,41.99L535.97,44.43L540.85,39.75L545.72,32.42L550.59,48.3L555.46,44.43L560.34,48.91L565.21,44.43L570.08,49.11L574.95,32.42L579.83,39.75L584.7,36.49L589.57,40.56L594.44,89.21L599.32,35.07L604.19,34.05L609.06,32.83L613.93,40.36L618.81,43L623.68,34.66L628.55,41.17L633.42,27.94L638.3,29.77L643.17,39.54L648.04,30.38L652.91,28.55L657.79,27.33L662.66,22.85L667.53,28.76L672.4,20.41L677.28,19.8L682.15,28.15L687.02,24.89L691.89,25.7L696.77,27.74L701.64,82.49L706.51,85.95L711.38,39.14L716.26,49.11L721.13,36.49L726,34.45" style="vector-effect: none; fill: none; stroke: rgb(128, 0, 128); stroke-opacity: 1; stroke-width: 2px; opacity: 1;"/></g><g class="points"/><g class="text"/></g><g class="trace scatter tracefd3a74" style="stroke-miterlimit: 2; opacity: 1;"><g class="fills"/><g class="errorbars"/><g class="lines"><path class="js-line" d="M0,258.35L4.87,196.07L9.74,182.02L14.62,173.27L19.49,145.59L29.23,160.04L34.11,133.78L38.98,132.15L43.85,112L53.6,123.81L58.47,115.87L63.34,166.96L68.21,160.65L73.09,115.06L77.96,104.88L82.83,113.02L87.7,110.78L92.58,110.17L97.45,115.46L102.32,121.57L107.19,106.3L112.07,131.95L116.94,126.86L121.81,112.61L126.68,121.37L131.56,125.03L136.43,104.07L141.3,114.45L146.17,118.52L151.05,110.78L155.92,98.98L160.79,76.99L165.66,93.07L170.54,100L175.41,95.92L180.28,102.23L185.15,99.18L190.03,92.67L194.9,97.76L199.77,99.18L204.64,95.31L209.52,102.23L214.39,102.03L219.26,90.02L224.13,111.8L229.01,106.92L233.88,115.26L238.75,120.76L243.62,97.76L248.5,100L253.37,95.72L258.24,87.78L263.11,84.53L267.99,90.43L272.86,89.82L277.73,88.8L282.6,88.8L287.48,149.66L292.35,142.54L297.22,144.98L302.09,142.74L306.97,132.36L311.84,89.61L316.71,92.67L321.58,94.3L326.46,139.89L331.33,142.54L336.2,143.76L341.07,137.85L345.95,121.37L350.82,132.97L355.69,142.74L360.56,133.78L365.44,147.01L370.31,142.33L375.18,143.96L380.05,135.41L384.93,129.92L389.8,120.96L394.67,80.25L399.54,80.46L404.42,83.1L409.29,72.11L414.16,80.66L419.03,75.16L423.91,90.23L428.78,88.6L433.65,81.68L438.52,78.83L443.4,86.56L448.27,81.68L453.14,83.1L458.01,67.84L462.89,63.36L467.76,71.09L472.63,69.06L477.5,71.91L482.38,107.93L487.25,106.3L492.12,66.61L496.99,72.31L501.87,73.94L506.74,89.41L511.61,62.54L516.48,66.41L521.36,70.48L526.23,76.38L531.1,76.99L535.97,70.07L540.85,68.45L545.72,68.45L550.59,73.13L555.46,66L560.34,63.56L565.21,67.23L570.08,74.96L574.95,53.18L579.83,69.06L584.7,65.6L589.57,59.49L594.44,102.84L599.32,63.15L604.19,62.95L609.06,77.2L613.93,84.73L618.81,78.62L623.68,82.29L628.55,84.32L633.42,70.28L638.3,76.59L643.17,89.21L648.04,85.75L652.91,71.91L657.79,87.78L662.66,66.41L667.53,76.59L672.4,64.17L682.15,68.04L687.02,58.27L691.89,53.38L696.77,61.32L701.64,111.19L706.51,118.11L711.38,63.36L716.26,78.42L721.13,66L726,64.78" style="vector-effect: none; fill: none; stroke: rgb(255, 192, 203); stroke-opacity: 1; stroke-width: 2px; opacity: 1;"/></g><g class="points"/><g class="text"/></g><g class="trace scatter tracea5027a" style="stroke-miterlimit: 2; opacity: 1;"><g class="fills"/><g class="errorbars"/><g class="lines"><path class="js-line" d="M0,338.54L4.87,241.66L9.74,230.46L14.62,228.43L19.49,233.92L24.36,224.36L29.23,224.15L34.11,228.63L38.98,231.28L43.85,210.31L48.72,211.74L53.6,225.58L58.47,223.54L63.34,309.85L68.21,299.47L73.09,213.16L77.96,222.93L82.83,218.25L87.7,233.52L92.58,236.16L97.45,225.17L102.32,227L107.19,229.65L112.07,263.44L116.94,267.51L121.81,255.7L126.68,225.58L131.56,228.43L136.43,193.42L141.3,205.43L146.17,201.77L151.05,200.34L155.92,217.03L160.79,195.25L165.66,194.23L170.54,211.74L175.41,203.8L180.28,215.4L185.15,207.67L190.03,199.12L194.9,205.23L199.77,210.92L204.64,210.52L209.52,210.31L214.39,202.99L219.26,195.86L224.13,221.92L229.01,225.38L233.88,227.82L238.75,227.82L243.62,207.26L253.37,194.23L258.24,190.37L263.11,186.5L267.99,185.69L272.86,199.93L277.73,199.93L282.6,194.03L287.48,279.72L292.35,264.05L297.22,260.18L302.09,244.71L306.97,234.94L311.84,157.8L316.71,175.31L321.58,177.54L326.46,253.67L331.33,253.46L336.2,261.2L341.07,244.1L345.95,244.71L350.82,248.99L355.69,263.23L360.56,245.93L365.44,252.65L370.31,250.21L375.18,251.63L380.05,244.51L384.93,241.25L389.8,241.25L394.67,187.11L399.54,182.63L404.42,172.05L409.29,169L414.16,185.28L419.03,187.92L423.91,198.1L428.78,205.63L433.65,186.5L438.52,183.65L443.4,201.77L448.27,199.53L453.14,198.71L458.01,179.58L462.89,171.64L467.76,178.15L472.63,178.77L477.5,176.12L482.38,246.75L487.25,249.19L492.12,178.36L496.99,208.89L501.87,210.72L506.74,241.46L511.61,188.94L516.48,176.53L521.36,173.88L526.23,195.86L531.1,171.03L535.97,175.1L540.85,170.01L545.72,159.02L550.59,181.61L555.46,180.19L560.34,195.46L565.21,189.96L570.08,197.08L574.95,170.01L579.83,180.39L584.7,178.15L589.57,184.87L594.44,263.85L599.32,163.09L604.19,174.9L609.06,175.1L613.93,190.98L618.81,195.46L623.68,176.32L628.55,181.41L633.42,162.89L638.3,174.9L643.17,194.03L648.04,180.19L652.91,171.23L657.79,174.08L662.66,165.13L667.53,167.98L672.4,152.31L677.28,153.32L682.15,170.22L687.02,166.55L691.89,169.4L696.77,174.49L701.64,263.23L706.51,267.31L711.38,189.55L716.26,204.21L721.13,185.08L726,181.21" style="vector-effect: none; fill: none; stroke: rgb(165, 42, 42); stroke-opacity: 1; stroke-width: 2px; opacity: 1;"/></g><g class="points"/><g class="text"/></g><g class="trace scatter trace0b6676" style="stroke-miterlimit: 2; opacity: 1;"><g class="fills"/><g class="errorbars"/><g class="lines"><path class="js-line" d="M0,376.2L4.87,277.28L9.74,263.64L14.62,267.51L19.49,260.59L24.36,261L29.23,273.21L34.11,254.89L38.98,258.35L43.85,229.45L48.72,239.83L53.6,250L58.47,242.27L63.34,337.73L68.21,319.62L73.09,236.16L77.96,235.15L82.83,237.18L87.7,257.74L92.58,257.54L97.45,260.79L102.32,268.12L107.19,253.87L112.07,297.43L116.94,296.62L121.81,280.74L126.68,261.4L131.56,263.03L136.43,226.8L141.3,245.12L146.17,243.08L151.05,235.55L155.92,246.14L160.79,214.59L165.66,230.67L170.54,246.14L175.41,243.29L180.28,250L185.15,247.16L190.03,240.44L194.9,247.97L199.77,252.85L204.64,247.16L209.52,251.02L214.39,250.21L219.26,231.69L224.13,261L229.01,259.77L233.88,267.71L238.75,270.16L243.62,243.29L248.5,241.05L253.37,236.57L258.24,226.19L263.11,224.56L267.99,230.46L272.86,234.74L277.73,235.35L282.6,230.26L287.48,328.57L292.35,313.71L297.22,320.43L302.09,308.83L306.97,293.16L311.84,212.55L316.71,219.27L321.58,223.95L326.46,304.35L331.33,311.88L336.2,312.9L341.07,300.28L345.95,289.29L350.82,302.11L355.69,317.58L360.56,301.7L365.44,315.75L370.31,307.4L375.18,311.07L380.05,301.7L384.93,294.58L389.8,285.01L394.67,225.17L399.54,222.93L404.42,217.44L409.29,209.91L414.16,225.17L419.03,221.31L423.91,243.08L428.78,246.34L433.65,232.5L438.52,222.12L443.4,241.66L448.27,236.57L453.14,231.69L458.01,207.06L462.89,202.17L467.76,212.55L472.63,210.92L477.5,211.54L482.38,277.08L487.25,276.87L492.12,211.74L496.99,229.24L501.87,234.13L506.74,262.22L511.61,212.35L516.48,208.89L521.36,212.96L526.23,228.02L531.1,206.04L535.97,197.29L540.85,196.47L545.72,192.61L550.59,205.43L555.46,201.77L560.34,215.81L565.21,215.4L570.08,225.38L574.95,194.64L579.83,213.77L584.7,211.13L589.57,208.28L594.44,277.89L599.32,190.77L604.19,203.6L609.06,217.23L613.93,235.35L618.81,231.89L623.68,224.15L628.55,220.9L633.42,202.99L638.3,220.49L643.17,241.86L648.04,234.74L652.91,212.76L657.79,230.06L662.66,205.63L667.53,208.69L672.4,190.77L677.28,195.86L682.15,209.7L687.02,202.58L691.89,200.14L696.77,211.33L701.64,301.91L706.51,305.57L711.38,219.47L716.26,232.7L721.13,210.92L726,209.3" style="vector-effect: none; fill: none; stroke: rgb(128, 128, 128); stroke-opacity: 1; stroke-width: 2px; opacity: 1;"/></g><g class="points"/><g class="text"/></g></g></g><g class="overplot"/><path class="xlines-above crisp" d="M0,0" style="fill: none;"/><path class="ylines-above crisp" d="M0,0" style="fill: none;"/><g class="overlines-above"/><g class="xaxislayer-above"><g class="xtick"><text text-anchor="middle" x="0" y="509" transform="translate(235.57999999999998,0)" style="font-family: 'Open Sans', verdana, arial, sans-serif; font-size: 12px; fill: rgb(42, 63, 95); fill-opacity: 1; white-space: pre; opacity: 1;">20</text></g><g class="xtick"><text text-anchor="middle" x="0" y="509" style="font-family: 'Open Sans', verdana, arial, sans-serif; font-size: 12px; fill: rgb(42, 63, 95); fill-opacity: 1; white-space: pre; opacity: 1;" transform="translate(333.03,0)">40</text></g><g class="xtick"><text text-anchor="middle" x="0" y="509" style="font-family: 'Open Sans', verdana, arial, sans-serif; font-size: 12px; fill: rgb(42, 63, 95); fill-opacity: 1; white-space: pre; opacity: 1;" transform="translate(430.48,0)">60</text></g><g class="xtick"><text text-anchor="middle" x="0" y="509" style="font-family: 'Open Sans', verdana, arial, sans-serif; font-size: 12px; fill: rgb(42, 63, 95); fill-opacity: 1; white-space: pre; opacity: 1;" transform="translate(527.9300000000001,0)">80</text></g><g class="xtick"><text text-anchor="middle" x="0" y="509" style="font-family: 'Open Sans', verdana, arial, sans-serif; font-size: 12px; fill: rgb(42, 63, 95); fill-opacity: 1; white-space: pre; opacity: 1;" transform="translate(625.38,0)">100</text></g><g class="xtick"><text text-anchor="middle" x="0" y="509" style="font-family: 'Open Sans', verdana, arial, sans-serif; font-size: 12px; fill: rgb(42, 63, 95); fill-opacity: 1; white-space: pre; opacity: 1;" transform="translate(722.83,0)">120</text></g><g class="xtick"><text text-anchor="middle" x="0" y="509" style="font-family: 'Open Sans', verdana, arial, sans-serif; font-size: 12px; fill: rgb(42, 63, 95); fill-opacity: 1; white-space: pre; opacity: 1;" transform="translate(820.28,0)">140</text></g></g><g class="yaxislayer-above"><g class="ytick"><text text-anchor="end" x="142" y="4.199999999999999" transform="translate(0,482.51)" style="font-family: 'Open Sans', verdana, arial, sans-serif; font-size: 12px; fill: rgb(42, 63, 95); fill-opacity: 1; white-space: pre; opacity: 1;">58</text></g><g class="ytick"><text text-anchor="end" x="142" y="4.199999999999999" style="font-family: 'Open Sans', verdana, arial, sans-serif; font-size: 12px; fill: rgb(42, 63, 95); fill-opacity: 1; white-space: pre; opacity: 1;" transform="translate(0,441.8)">60</text></g><g class="ytick"><text text-anchor="end" x="142" y="4.199999999999999" style="font-family: 'Open Sans', verdana, arial, sans-serif; font-size: 12px; fill: rgb(42, 63, 95); fill-opacity: 1; white-space: pre; opacity: 1;" transform="translate(0,401.09)">62</text></g><g class="ytick"><text text-anchor="end" x="142" y="4.199999999999999" style="font-family: 'Open Sans', verdana, arial, sans-serif; font-size: 12px; fill: rgb(42, 63, 95); fill-opacity: 1; white-space: pre; opacity: 1;" transform="translate(0,360.39)">64</text></g><g class="ytick"><text text-anchor="end" x="142" y="4.199999999999999" style="font-family: 'Open Sans', verdana, arial, sans-serif; font-size: 12px; fill: rgb(42, 63, 95); fill-opacity: 1; white-space: pre; opacity: 1;" transform="translate(0,319.68)">66</text></g><g class="ytick"><text text-anchor="end" x="142" y="4.199999999999999" style="font-family: 'Open Sans', verdana, arial, sans-serif; font-size: 12px; fill: rgb(42, 63, 95); fill-opacity: 1; white-space: pre; opacity: 1;" transform="translate(0,278.97)">68</text></g><g class="ytick"><text text-anchor="end" x="142" y="4.199999999999999" style="font-family: 'Open Sans', verdana, arial, sans-serif; font-size: 12px; fill: rgb(42, 63, 95); fill-opacity: 1; white-space: pre; opacity: 1;" transform="translate(0,238.26)">70</text></g><g class="ytick"><text text-anchor="end" x="142" y="4.199999999999999" style="font-family: 'Open Sans', verdana, arial, sans-serif; font-size: 12px; fill: rgb(42, 63, 95); fill-opacity: 1; white-space: pre; opacity: 1;" transform="translate(0,197.55)">72</text></g><g class="ytick"><text text-anchor="end" x="142" y="4.199999999999999" style="font-family: 'Open Sans', verdana, arial, sans-serif; font-size: 12px; fill: rgb(42, 63, 95); fill-opacity: 1; white-space: pre; opacity: 1;" transform="translate(0,156.84)">74</text></g><g class="ytick"><text text-anchor="end" x="142" y="4.199999999999999" style="font-family: 'Open Sans', verdana, arial, sans-serif; font-size: 12px; fill: rgb(42, 63, 95); fill-opacity: 1; white-space: pre; opacity: 1;" transform="translate(0,116.14)">76</text></g></g><g class="overaxes-above"/></g></g><g class="polarlayer"/><g class="smithlayer"/><g class="ternarylayer"/><g class="geolayer"/><g class="funnelarealayer"/><g class="pielayer"/><g class="iciclelayer"/><g class="treemaplayer"/><g class="sunburstlayer"/><g class="glimages"/><defs id="topdefs-05ace3"><g class="clips"/><clipPath id="legend05ace3"><rect width="128" height="162" x="0" y="0"/></clipPath></defs><g class="layer-above"><g class="imagelayer"/><g class="shapelayer"/></g><g class="infolayer"><g class="legend" pointer-events="all" transform="translate(883.52,100)"><rect class="bg" shape-rendering="crispEdges" width="128" height="162" x="0" y="0" style="stroke: rgb(68, 68, 68); stroke-opacity: 1; fill: rgb(255, 255, 255); fill-opacity: 1; stroke-width: 0px;"/><g class="scrollbox" transform="" clip-path="url(#legend05ace3)"><g class="groups"><g class="traces" transform="translate(0,14.5)" style="opacity: 1;"><text class="legendtext" text-anchor="start" x="40" y="4.680000000000001" style="font-family: 'Open Sans', verdana, arial, sans-serif; font-size: 12px; fill: rgb(42, 63, 95); fill-opacity: 1; white-space: pre;">Train Accuracy</text><g class="layers" style="opacity: 1;"><g class="legendfill"/><g class="legendlines"><path class="js-line" d="M5,0h30" style="fill: none; stroke: rgb(255, 0, 0); stroke-opacity: 1; stroke-width: 2px;"/></g><g class="legendsymbols"><g class="legendpoints"/></g></g><rect class="legendtoggle" x="0" y="-9.5" width="122.71875" height="19" style="fill: rgb(0, 0, 0); fill-opacity: 0;"/></g><g class="traces" transform="translate(0,33.5)" style="opacity: 1;"><text class="legendtext" text-anchor="start" x="40" y="4.680000000000001" style="font-family: 'Open Sans', verdana, arial, sans-serif; font-size: 12px; fill: rgb(42, 63, 95); fill-opacity: 1; white-space: pre;">Test Accuracy</text><g class="layers" style="opacity: 1;"><g class="legendfill"/><g class="legendlines"><path class="js-line" d="M5,0h30" style="fill: none; stroke: rgb(0, 0, 255); stroke-opacity: 1; stroke-width: 2px;"/></g><g class="legendsymbols"><g class="legendpoints"/></g></g><rect class="legendtoggle" x="0" y="-9.5" width="122.71875" height="19" style="fill: rgb(0, 0, 0); fill-opacity: 0;"/></g><g class="traces" transform="translate(0,52.5)" style="opacity: 1;"><text class="legendtext" text-anchor="start" x="40" y="4.680000000000001" style="font-family: 'Open Sans', verdana, arial, sans-serif; font-size: 12px; fill: rgb(42, 63, 95); fill-opacity: 1; white-space: pre;">Train Precision</text><g class="layers" style="opacity: 1;"><g class="legendfill"/><g class="legendlines"><path class="js-line" d="M5,0h30" style="fill: none; stroke: rgb(0, 128, 0); stroke-opacity: 1; stroke-width: 2px;"/></g><g class="legendsymbols"><g class="legendpoints"/></g></g><rect class="legendtoggle" x="0" y="-9.5" width="122.71875" height="19" style="fill: rgb(0, 0, 0); fill-opacity: 0;"/></g><g class="traces" transform="translate(0,71.5)" style="opacity: 1;"><text class="legendtext" text-anchor="start" x="40" y="4.680000000000001" style="font-family: 'Open Sans', verdana, arial, sans-serif; font-size: 12px; fill: rgb(42, 63, 95); fill-opacity: 1; white-space: pre;">Test Precision</text><g class="layers" style="opacity: 1;"><g class="legendfill"/><g class="legendlines"><path class="js-line" d="M5,0h30" style="fill: none; stroke: rgb(255, 165, 0); stroke-opacity: 1; stroke-width: 2px;"/></g><g class="legendsymbols"><g class="legendpoints"/></g></g><rect class="legendtoggle" x="0" y="-9.5" width="122.71875" height="19" style="fill: rgb(0, 0, 0); fill-opacity: 0;"/></g><g class="traces" transform="translate(0,90.5)" style="opacity: 1;"><text class="legendtext" text-anchor="start" x="40" y="4.680000000000001" style="font-family: 'Open Sans', verdana, arial, sans-serif; font-size: 12px; fill: rgb(42, 63, 95); fill-opacity: 1; white-space: pre;">Train Recall</text><g class="layers" style="opacity: 1;"><g class="legendfill"/><g class="legendlines"><path class="js-line" d="M5,0h30" style="fill: none; stroke: rgb(128, 0, 128); stroke-opacity: 1; stroke-width: 2px;"/></g><g class="legendsymbols"><g class="legendpoints"/></g></g><rect class="legendtoggle" x="0" y="-9.5" width="122.71875" height="19" style="fill: rgb(0, 0, 0); fill-opacity: 0;"/></g><g class="traces" transform="translate(0,109.5)" style="opacity: 1;"><text class="legendtext" text-anchor="start" x="40" y="4.680000000000001" style="font-family: 'Open Sans', verdana, arial, sans-serif; font-size: 12px; fill: rgb(42, 63, 95); fill-opacity: 1; white-space: pre;">Test Recall</text><g class="layers" style="opacity: 1;"><g class="legendfill"/><g class="legendlines"><path class="js-line" d="M5,0h30" style="fill: none; stroke: rgb(255, 192, 203); stroke-opacity: 1; stroke-width: 2px;"/></g><g class="legendsymbols"><g class="legendpoints"/></g></g><rect class="legendtoggle" x="0" y="-9.5" width="122.71875" height="19" style="fill: rgb(0, 0, 0); fill-opacity: 0;"/></g><g class="traces" transform="translate(0,128.5)" style="opacity: 1;"><text class="legendtext" text-anchor="start" x="40" y="4.680000000000001" style="font-family: 'Open Sans', verdana, arial, sans-serif; font-size: 12px; fill: rgb(42, 63, 95); fill-opacity: 1; white-space: pre;">Train F1</text><g class="layers" style="opacity: 1;"><g class="legendfill"/><g class="legendlines"><path class="js-line" d="M5,0h30" style="fill: none; stroke: rgb(165, 42, 42); stroke-opacity: 1; stroke-width: 2px;"/></g><g class="legendsymbols"><g class="legendpoints"/></g></g><rect class="legendtoggle" x="0" y="-9.5" width="122.71875" height="19" style="fill: rgb(0, 0, 0); fill-opacity: 0;"/></g><g class="traces" transform="translate(0,147.5)" style="opacity: 1;"><text class="legendtext" text-anchor="start" x="40" y="4.680000000000001" style="font-family: 'Open Sans', verdana, arial, sans-serif; font-size: 12px; fill: rgb(42, 63, 95); fill-opacity: 1; white-space: pre;">Test F1</text><g class="layers" style="opacity: 1;"><g class="legendfill"/><g class="legendlines"><path class="js-line" d="M5,0h30" style="fill: none; stroke: rgb(128, 128, 128); stroke-opacity: 1; stroke-width: 2px;"/></g><g class="legendsymbols"><g class="legendpoints"/></g></g><rect class="legendtoggle" x="0" y="-9.5" width="122.71875" height="19" style="fill: rgb(0, 0, 0); fill-opacity: 0;"/></g></g></g><rect class="scrollbar" rx="20" ry="3" width="0" height="0" x="0" y="0" style="fill: rgb(128, 139, 164); fill-opacity: 1;"/></g><g class="g-gtitle"><text class="gtitle" x="51.2" y="50" text-anchor="start" dy="0em" style="font-family: 'Open Sans', verdana, arial, sans-serif; font-size: 17px; fill: rgb(42, 63, 95); opacity: 1; font-weight: normal; white-space: pre;">Training Metrics - logs/FakeNewsNet-gossipcop_max-vocab=15000_pre=v2_text_domain_T=50_s=15.log</text></g><g class="g-xtitle"><text class="xtitle" x="506" y="537.3" text-anchor="middle" style="font-family: 'Open Sans', verdana, arial, sans-serif; font-size: 14px; fill: rgb(42, 63, 95); opacity: 1; font-weight: normal; white-space: pre;">Epoch</text></g><g class="g-ytitle"><text class="ytitle" transform="rotate(-90,103.965625,298)" x="103.965625" y="298" text-anchor="middle" style="font-family: 'Open Sans', verdana, arial, sans-serif; font-size: 14px; fill: rgb(42, 63, 95); opacity: 1; font-weight: normal; white-space: pre;">Metric Score</text></g></g><g class="menulayer"><g class="updatemenu-container" style="cursor: pointer;"><g class="updatemenu-header-group" transform="translate(12,60)"><g class="updatemenu-header" transform="translate(1,1)" style="pointer-events: all;"><rect class="updatemenu-item-rect" rx="2" ry="2" shape-rendering="crispEdges" x="0" y="0" width="167" height="33" style="stroke: rgb(190, 200, 217); stroke-opacity: 1; fill: rgb(255, 255, 255); fill-opacity: 1; stroke-width: 1px;"/><text class="updatemenu-item-text" text-anchor="start" data-notex="1" x="12" y="19.5" style="font-family: 'Open Sans', verdana, arial, sans-serif; font-size: 12px; fill: rgb(42, 63, 95); fill-opacity: 1; white-space: pre;">All</text></g><text class="updatemenu-header-arrow" text-anchor="end" x="163" y="19.5" style="font-family: 'Open Sans', verdana, arial, sans-serif; font-size: 12px; fill: rgb(42, 63, 95); fill-opacity: 1;">▼</text></g><g class="updatemenu-dropdown-button-group" updatemenu-active-index="-1" style="pointer-events: all;"><rect class="scrollbox-bg" opacity="0" x="0" y="0" width="0" height="0" style="pointer-events: all;"/></g></g></g></svg>