<svg class="main-svg" xmlns="http://www.w3.org/2000/svg" xmlns:xlink="http://www.w3.org/1999/xlink" width="1024" height="576" style="" viewBox="0 0 1024 576"><rect x="0" y="0" width="1024" height="576" style="fill: rgb(255, 255, 255); fill-opacity: 1;"/><defs id="defs-bb9455"><g class="clips"><clipPath id="clipbb9455xyplot" class="plotclip"><rect width="734" height="396"/></clipPath><clipPath class="axesclip" id="clipbb9455x"><rect x="135" y="0" width="734" height="576"/></clipPath><clipPath class="axesclip" id="clipbb9455y"><rect x="0" y="100" width="1024" height="396"/></clipPath><clipPath class="axesclip" id="clipbb9455xy"><rect x="135" y="100" width="734" height="396"/></clipPath></g><g class="gradients"/><g class="patterns"/></defs><g class="bglayer"><rect class="bg" x="135" y="100" width="734" height="396" style="fill: rgb(229, 236, 246); fill-opacity: 1; stroke-width: 0;"/></g><g class="layer-below"><g class="imagelayer"/><g class="shapelayer"/></g><g class="cartesianlayer"><g class="subplot xy"><g class="layer-subplot"><g class="shapelayer"/><g class="imagelayer"/></g><g class="minor-gridlayer"><g class="x"/><g class="y"/></g><g class="gridlayer"><g class="x"><path class="xgrid crisp" transform="translate(228.6,0)" d="M0,100v396" style="stroke: rgb(255, 255, 255); stroke-opacity: 1; stroke-width: 1px;"/><path class="xgrid crisp" transform="translate(327.12,0)" d="M0,100v396" style="stroke: rgb(255, 255, 255); stroke-opacity: 1; stroke-width: 1px;"/><path class="xgrid crisp" transform="translate(425.64,0)" d="M0,100v396" style="stroke: rgb(255, 255, 255); stroke-opacity: 1; stroke-width: 1px;"/><path class="xgrid crisp" transform="translate(524.1700000000001,0)" d="M0,100v396" style="stroke: rgb(255, 255, 255); stroke-opacity: 1; stroke-width: 1px;"/><path class="xgrid crisp" transform="translate(622.69,0)" d="M0,100v396" style="stroke: rgb(255, 255, 255); stroke-opacity: 1; stroke-width: 1px;"/><path class="xgrid crisp" transform="translate(721.21,0)" d="M0,100v396" style="stroke: rgb(255, 255, 255); stroke-opacity: 1; stroke-width: 1px;"/><path class="xgrid crisp" transform="translate(819.74,0)" d="M0,100v396" style="stroke: rgb(255, 255, 255); stroke-opacity: 1; stroke-width: 1px;"/></g><g class="y"><path class="ygrid crisp" transform="translate(0,454.42)" d="M135,0h734" style="stroke: rgb(255, 255, 255); stroke-opacity: 1; stroke-width: 1px;"/><path class="ygrid crisp" transform="translate(0,366.59)" d="M135,0h734" style="stroke: rgb(255, 255, 255); stroke-opacity: 1; stroke-width: 1px;"/><path class="ygrid crisp" transform="translate(0,278.77)" d="M135,0h734" style="stroke: rgb(255, 255, 255); stroke-opacity: 1; stroke-width: 1px;"/><path class="ygrid crisp" transform="translate(0,190.94)" d="M135,0h734" style="stroke: rgb(255, 255, 255); stroke-opacity: 1; stroke-width: 1px;"/><path class="ygrid crisp" transform="translate(0,103.11)" d="M135,0h734" style="stroke: rgb(255, 255, 255); stroke-opacity: 1; stroke-width: 1px;"/></g></g><g class="zerolinelayer"/><path class="xlines-below"/><path class="ylines-below"/><g class="overlines-below"/><g class="xaxislayer-below"/><g class="yaxislayer-below"/><g class="overaxes-below"/><g class="plot" transform="translate(135,100)" clip-path="url(#clipbb9455xyplot)"><g class="scatterlayer mlayer"><g class="trace scatter trace5e32b8" style="stroke-miterlimit: 2; opacity: 1;"><g class="fills"/><g class="errorbars"/><g class="lines"><path class="js-line" d="M0,65.82L4.93,48.43L9.85,46.32L19.7,52.47L24.63,50.54L29.56,46.32L34.48,43.69L44.34,39.3L49.26,49.49L54.19,36.84L59.11,39.47L64.04,42.63L68.97,41.93L73.89,50.19L78.82,48.61L83.74,38.95L88.67,44.04L93.6,48.43L98.52,43.16L103.45,41.41L108.38,51.77L113.3,48.96L118.23,40.88L123.15,40.35L128.08,43.16L133.01,40L137.93,41.93L142.86,44.04L147.79,49.31L152.71,48.08L157.64,48.78L162.56,50.71L167.49,50.19L172.42,46.85L177.34,81.28L182.27,48.78L187.19,32.97L192.12,46.32L197.05,36.49L201.97,34.73L206.9,34.2L211.83,41.93L216.75,34.91L221.68,49.13L226.6,43.16L231.53,45.09L236.46,38.42L241.38,38.42L246.31,34.73L251.23,38.07L256.16,30.34L261.09,28.58L266.01,29.64L270.94,30.16L275.87,35.08L280.79,37.37L285.72,72.67L290.64,38.24L295.57,67.75L300.5,68.81L305.42,34.03L310.35,32.27L315.28,41.23L320.2,45.45L325.13,42.11L330.05,41.58L334.98,36.14L339.91,76.18L344.83,45.09L349.76,37.01L354.68,41.05L359.61,32.8L364.54,35.78L369.46,32.8L374.39,50.01L379.32,29.99L384.24,32.45L389.17,31.57L394.09,28.06L399.02,64.06L403.95,31.57L408.87,67.05L413.8,33.15L418.72,72.67L423.65,65.47L428.58,65.47L433.5,31.22L438.43,30.51L443.36,30.87L448.28,29.81L453.21,47.2L458.13,46.32L463.06,80.4L467.99,38.95L472.91,61.96L477.84,28.06L482.77,32.45L487.69,31.92L492.62,33.68L497.54,31.04L502.47,35.43L507.4,37.19L512.32,45.09L517.25,30.69L522.17,34.03L527.1,28.23L532.03,27.88L536.95,38.07L541.88,31.04L546.81,32.27L551.73,32.27L556.66,31.74L561.58,28.58L566.51,31.39L571.44,40.18L576.36,31.04L581.29,29.64L586.21,27.88L591.14,28.41L596.07,28.23L600.99,30.51L605.92,29.29L610.85,31.57L615.77,31.74L620.7,27.53L625.62,29.99L630.55,26.3L635.48,30.87L640.4,31.39L645.33,28.93L650.26,28.58L655.18,30.87L660.11,29.99L665.03,33.5L669.96,28.93L679.81,29.29L684.74,32.45L689.66,31.39L694.59,36.14L699.52,28.76L704.44,42.28L709.37,41.23L714.3,38.42L719.22,42.63L724.15,31.22L729.07,31.57L734,37.19" style="vector-effect: none; fill: none; stroke: rgb(255, 0, 0); stroke-opacity: 1; stroke-width: 2px; opacity: 1;"/></g><g class="points"/><g class="text"/></g><g class="trace scatter tracef91483" style="stroke-miterlimit: 2; opacity: 1;"><g class="fills"/><g class="errorbars"/><g class="lines"><path class="js-line" d="M0,66.88L4.93,49.84L9.85,40.35L19.7,53.88L24.63,51.77L29.56,47.38L34.48,44.74L44.34,39.12L49.26,54.23L54.19,43.86L59.11,45.45L68.97,44.74L73.89,56.16L78.82,51.77L83.74,43.51L93.6,52.65L98.52,42.28L103.45,40L108.38,51.42L113.3,50.19L118.23,41.58L123.15,42.63L128.08,51.77L133.01,40.7L137.93,41.93L142.86,51.77L147.79,57.04L157.64,57.39L162.56,58.97L172.42,56.51L177.34,93.4L182.27,56.16L187.19,45.09L192.12,56.51L197.05,42.28L201.97,43.86L206.9,39.47L211.83,44.74L216.75,44.74L221.68,59.67L226.6,57.39L231.53,52.3L236.46,49.84L246.31,37.54L251.23,40.35L256.16,31.57L261.09,31.92L266.01,32.8L270.94,35.61L275.87,40L280.79,37.89L285.72,80.75L290.64,43.51L295.57,69.33L300.5,73.73L305.42,36.31L310.35,31.92L315.28,44.74L320.2,41.58L325.13,51.42L330.05,45.45L334.98,40.35L339.91,89.18L344.83,51.77L349.76,41.05L354.68,40.35L359.61,36.31L364.54,36.31L369.46,41.05L374.39,50.71L379.32,29.99L384.24,38.77L389.17,38.77L394.09,35.96L399.02,74.43L403.95,34.73L408.87,75.66L413.8,40.35L418.72,80.05L423.65,66.88L428.58,68.81L433.5,37.54L438.43,34.03L443.36,34.73L448.28,34.38L453.21,48.26L458.13,49.84L463.06,90.76L467.99,50.71L472.91,75.66L477.84,33.5L482.77,37.54L487.69,37.54L492.62,37.54L497.54,38.77L502.47,46.67L507.4,48.61L512.32,54.93L517.25,37.19L522.17,42.63L527.1,35.96L532.03,40.35L536.95,47.9L541.88,37.54L546.81,45.45L551.73,43.16L556.66,43.16L561.58,34.03L566.51,34.38L571.44,49.49L576.36,34.38L581.29,35.96L586.21,31.92L596.07,31.22L600.99,30.87L605.92,30.34L610.85,30.87L615.77,41.93L620.7,36.84L625.62,40L630.55,28.76L635.48,33.5L640.4,33.15L645.33,31.92L650.26,35.96L655.18,35.08L660.11,32.45L665.03,37.89L669.96,37.19L674.89,31.92L679.81,34.03L684.74,34.73L689.66,33.5L694.59,43.51L699.52,31.22L704.44,49.13L709.37,47.38L714.3,50.19L719.22,50.71L724.15,36.84L729.07,34.73L734,43.16" style="vector-effect: none; fill: none; stroke: rgb(0, 0, 255); stroke-opacity: 1; stroke-width: 2px; opacity: 1;"/></g><g class="points"/><g class="text"/></g><g class="trace scatter trace248cc7" style="stroke-miterlimit: 2; opacity: 1;"><g class="fills"/><g class="errorbars"/><g class="lines"><path class="js-line" d="M0,133.1L4.93,53.53L9.85,69.86L14.78,104.11L19.7,95.16L24.63,60.55L29.56,37.37L34.48,22.96L39.41,25.95L44.34,53L49.26,87.78L54.19,61.96L59.11,81.1L64.04,69.51L68.97,68.1L73.89,105.69L78.82,95.16L83.74,59.32L88.67,96.03L93.6,113.95L98.52,94.45L103.45,83.39L108.38,130.29L113.3,119.22L118.23,82.86L123.15,87.6L128.08,109.56L133.01,92.87L137.93,101.13L142.86,104.46L147.79,136.08L152.71,126.95L157.64,125.19L162.56,136.43L167.49,126.77L172.42,119.22L177.34,204.94L182.27,129.58L187.19,69.51L192.12,121.85L197.05,78.64L201.97,69.51L206.9,71.62L211.83,91.99L216.75,77.41L221.68,128.18L226.6,113.25L231.53,111.14L236.46,92.17L241.38,87.08L246.31,69.86L251.23,81.45L256.16,45.27L261.09,37.72L266.01,34.91L270.94,36.49L275.87,62.66L280.79,76.36L285.72,179.47L290.64,88.13L295.57,169.46L300.5,172.97L305.42,60.9L310.35,53.7L315.28,96.74L320.2,110.44L325.13,117.29L330.05,109.21L334.98,82.16L339.91,195.45L344.83,126.07L349.76,74.08L354.68,90.59L359.61,66L364.54,70.92L369.46,63.19L374.39,124.49L379.32,40L384.24,57.39L389.17,55.11L394.09,44.92L399.02,161.2L403.95,54.4L408.87,164.01L413.8,58.62L418.72,184.39L423.65,84.97L428.58,73.02L433.5,50.19L438.43,59.5L443.36,60.2L448.28,43.86L453.21,122.91L458.13,127.3L463.06,203.88L467.99,104.11L472.91,162.25L477.84,55.11L482.77,61.78L487.69,73.55L492.62,57.74L497.54,65.47L502.47,95.16L507.4,103.94L512.32,117.46L517.25,56.69L522.17,87.25L527.1,53.7L532.03,63.36L536.95,102.36L541.88,63.36L546.81,70.04L551.73,67.75L556.66,55.28L561.58,37.72L566.51,34.2L571.44,88.13L576.36,41.58L581.29,44.74L586.21,19.8L591.14,31.22L596.07,32.97L600.99,33.15L605.92,44.39L610.85,64.94L615.77,54.58L620.7,57.57L625.62,64.42L630.55,44.57L635.48,43.51L640.4,41.41L645.33,43.86L650.26,59.32L655.18,26.12L660.11,21.91L665.03,40.18L669.96,65.65L674.89,39.82L679.81,59.85L684.74,61.43L689.66,57.21L694.59,70.21L699.52,36.84L704.44,109.91L709.37,103.94L714.3,106.92L719.22,106.57L724.15,62.66L729.07,62.48L734,92.52" style="vector-effect: none; fill: none; stroke: rgb(0, 128, 0); stroke-opacity: 1; stroke-width: 2px; opacity: 1;"/></g><g class="points"/><g class="text"/></g><g class="trace scatter trace4a60f1" style="stroke-miterlimit: 2; opacity: 1;"><g class="fills"/><g class="errorbars"/><g class="lines"><path class="js-line" d="M0,135.2L4.93,55.63L9.85,50.19L14.78,97.44L19.7,102.36L24.63,69.69L29.56,42.28L34.48,23.66L39.41,27.53L44.34,54.4L49.26,103.06L54.19,75.48L59.11,91.82L64.04,76.89L68.97,77.41L73.89,119.75L78.82,99.55L83.74,74.08L88.67,108.68L93.6,124.84L98.52,94.45L103.45,81.28L108.38,128.88L113.3,122.73L118.23,84.79L123.15,90.59L128.08,127.83L133.01,93.93L137.93,100.78L142.86,121.33L147.79,148.55L152.71,143.11L157.64,140.65L162.56,149.61L167.49,141.88L172.42,139.07L177.34,224.08L182.27,143.28L187.19,97.61L192.12,141.7L197.05,89.36L201.97,88.83L206.9,82.16L211.83,98.32L216.75,100.78L221.68,151.01L226.6,143.99L231.53,127.48L236.46,118.34L246.31,75.31L251.23,89.71L256.16,52.65L261.09,49.66L266.01,42.63L270.94,51.59L275.87,77.06L280.79,80.58L285.72,194.57L290.64,100.25L295.57,171.04L300.5,180.87L305.42,66.88L310.35,50.54L315.28,104.64L320.2,102.88L325.13,135.2L330.05,117.81L334.98,94.63L339.91,216.53L344.83,139.42L349.76,84.26L354.68,86.55L359.61,74.43L364.54,75.13L369.46,84.26L374.39,122.38L379.32,38.24L384.24,75.31L389.17,78.29L394.09,67.93L399.02,181.58L403.95,64.06L408.87,180.17L413.8,76.01L418.72,197.39L423.65,97.09L428.58,83.56L433.5,65.29L438.43,67.58L443.36,70.74L448.28,57.04L453.21,126.42L458.13,133.45L463.06,219.69L467.99,124.66L472.91,186.49L477.84,68.46L482.77,74.6L487.69,86.55L492.62,63.71L497.54,81.1L502.47,118.17L507.4,127.83L512.32,137.84L517.25,73.2L522.17,105.69L527.1,67.93L532.03,90.41L536.95,122.56L541.88,74.6L546.81,103.06L556.66,84.97L561.58,47.73L566.51,42.63L571.44,109.91L576.36,49.13L581.29,59.15L586.21,27.35L591.14,37.72L596.07,45.27L600.99,36.31L605.92,48.61L610.85,63.36L615.77,83.39L620.7,79L625.62,89.89L630.55,57.21L640.4,49.49L645.33,53.17L650.26,75.31L655.18,42.63L660.11,32.1L665.03,59.15L669.96,82.86L674.89,48.78L679.81,73.9L684.74,74.96L689.66,68.46L694.59,92.34L699.52,46.15L704.44,124.66L709.37,115L714.3,130.11L719.22,126.95L724.15,80.4L729.07,72.32L734,110.79" style="vector-effect: none; fill: none; stroke: rgb(255, 165, 0); stroke-opacity: 1; stroke-width: 2px; opacity: 1;"/></g><g class="points"/><g class="text"/></g><g class="trace scatter tracee2ae55" style="stroke-miterlimit: 2; opacity: 1;"><g class="fills"/><g class="errorbars"/><g class="lines"><path class="js-line" d="M0,335.27L4.93,335.98L9.85,320.52L14.78,304.36L19.7,322.27L24.63,338.26L29.56,337.91L34.48,337.56L39.41,329.65L44.34,310.68L49.26,318.06L54.19,297.68L59.11,291.89L64.04,309.8L68.97,308.57L73.89,305.94L78.82,309.8L83.74,305.59L88.67,294.17L93.6,291.54L98.52,292.24L103.45,296.1L108.38,284.86L113.3,287.67L118.23,294.87L123.15,289.25L128.08,276.96L133.01,283.28L137.93,281.87L142.86,286.09L147.79,266.24L152.71,275.02L157.64,280.12L162.56,271.86L167.49,283.46L177.34,275.38L182.27,274.15L187.19,280.47L192.12,274.15L197.05,284.33L201.97,285.74L206.9,282.93L211.83,290.48L216.75,280.47L221.68,277.31L226.6,273.09L231.53,282.58L236.46,278.54L241.38,283.46L246.31,285.74L251.23,287.14L256.16,289.43L261.09,289.25L266.01,293.99L270.94,294.52L275.87,292.24L280.79,289.08L285.72,299.44L290.64,281.7L295.57,293.47L300.5,292.06L305.42,289.95L310.35,289.78L315.28,284.16L320.2,284.68L325.13,263.78L330.05,271.86L334.98,280.12L339.91,273.44L344.83,263.96L349.76,289.25L354.68,289.08L359.61,282.58L364.54,288.02L369.46,284.86L374.39,285.56L379.32,291.54L384.24,287.85L389.17,286.79L394.09,283.46L399.02,290.83L403.95,287.32L408.87,301.02L413.8,288.9L418.72,286.27L423.65,368.12L428.58,373.92L433.5,289.25L438.43,280.47L443.36,281.17L448.28,288.9L453.21,276.6L458.13,267.12L463.06,272.39L467.99,268.17L472.91,278.71L477.84,276.25L482.77,284.86L487.69,273.79L492.62,291.18L497.54,277.83L502.47,265.36L507.4,261.85L512.32,275.02L517.25,282.75L522.17,268.17L527.1,277.83L532.03,269.4L536.95,266.59L541.88,279.42L546.81,277.48L551.73,279.77L556.66,286.97L561.58,289.25L566.51,299.09L571.44,288.2L576.36,293.64L581.29,288.02L586.21,297.33L591.14,292.59L596.07,291.01L600.99,297.16L605.92,286.97L610.85,279.42L615.77,287.67L620.7,272.92L625.62,275.2L630.55,278.54L635.48,292.24L640.4,295.05L645.33,286.44L650.26,274.67L655.18,302.07L665.03,301.55L669.96,271.16L674.89,289.43L679.81,276.6L684.74,284.68L689.66,284.86L694.59,289.43L699.52,290.13L704.44,273.27L709.37,276.43L714.3,262.38L719.22,278.54L729.07,281.35L734,273.97" style="vector-effect: none; fill: none; stroke: rgb(128, 0, 128); stroke-opacity: 1; stroke-width: 2px; opacity: 1;"/></g><g class="points"/><g class="text"/></g><g class="trace scatter traceb35c57" style="stroke-miterlimit: 2; opacity: 1;"><g class="fills"/><g class="errorbars"/><g class="lines"><path class="js-line" d="M0,334.39L4.93,336.68L9.85,312.96L14.78,299.26L19.7,318.59L24.63,334.57L29.56,336.85L34.48,337.73L39.41,327.9L44.34,307.17L49.26,319.29L54.19,307.52L59.11,300.14L64.04,311.38L68.97,308.57L73.89,311.03L78.82,314.37L83.74,307.17L88.67,293.99L93.6,292.41L98.52,287.32L103.45,290.83L108.38,282.75L113.3,285.74L118.23,292.94L123.15,292.06L128.08,285.74L137.93,279.77L142.86,293.64L147.79,276.78L152.71,285.74L157.64,291.01L162.56,284.33L167.49,292.76L172.42,289.95L177.34,288.37L182.27,281.87L187.19,293.64L192.12,286.09L201.97,297.33L206.9,288.9L211.83,291.71L216.75,289.43L221.68,285.39L226.6,286.09L236.46,289.43L241.38,289.25L246.31,288.2L251.23,284.86L256.16,286.44L261.09,289.6L266.01,296.28L270.94,298.56L275.87,294.17L280.79,285.04L285.72,305.94L290.64,285.91L295.57,295.05L300.5,297.33L305.42,290.66L310.35,288.9L315.28,285.56L320.2,276.08L325.13,273.62L330.05,273.62L339.91,286.09L344.83,268.88L349.76,292.24L354.68,287.67L359.61,285.04L364.54,284.51L369.46,292.24L374.39,287.85L379.32,291.01L384.24,291.71L389.17,289.43L394.09,288.72L399.02,300.14L403.95,288.02L408.87,309.8L413.8,296.1L418.72,291.36L423.65,363.03L428.58,376.2L433.5,295.4L438.43,282.93L443.36,282.93L448.28,291.71L453.21,273.27L458.13,269.75L463.06,283.81L467.99,285.04L472.91,295.22L477.84,281L482.77,288.72L487.69,278.54L492.62,296.63L502.47,277.83L507.4,272.92L512.32,285.04L517.25,288.37L522.17,277.48L527.1,288.72L532.03,284.33L536.95,276.96L541.88,288.72L546.81,289.95L551.73,290.66L556.66,298.03L561.58,296.45L566.51,300.67L571.44,297.16L576.36,296.63L581.29,294.87L586.21,302.43L591.14,294.7L596.07,290.13L600.99,294.35L605.92,285.74L610.85,276.43L615.77,295.58L620.7,282.58L625.62,283.46L630.55,275.02L635.48,291.71L640.4,293.12L645.33,287.32L650.26,283.1L655.18,302.78L660.11,301.02L665.03,300.67L669.96,280.64L674.89,290.13L679.81,277.83L684.74,279.59L689.66,281L694.59,293.12L699.52,289.6L704.44,278.89L709.37,284.51L714.3,276.25L719.22,282.23L724.15,281.35L729.07,281.87L734,273.27" style="vector-effect: none; fill: none; stroke: rgb(255, 192, 203); stroke-opacity: 1; stroke-width: 2px; opacity: 1;"/></g><g class="points"/><g class="text"/></g><g class="trace scatter trace364aa9" style="stroke-miterlimit: 2; opacity: 1;"><g class="fills"/><g class="errorbars"/><g class="lines"><path class="js-line" d="M0,290.48L4.93,284.51L9.85,268.52L14.78,255.18L19.7,272.74L24.63,287.5L29.56,285.74L34.48,284.33L39.41,275.38L44.34,256.23L49.26,267.65L54.19,243.41L59.11,239.72L64.04,256.93L68.97,255.53L73.89,256.93L78.82,259.74L88.67,243.93L93.6,243.93L98.52,241.83L103.45,244.28L108.38,240.24L113.3,241.12L118.23,243.06L123.15,237.96L128.08,229.53L133.01,232.87L137.93,232.69L142.86,237.26L147.79,224.96L152.71,230.76L157.64,234.97L162.56,229.71L167.49,238.49L172.42,233.75L177.34,248.85L182.27,230.41L187.19,226.89L192.12,229L197.05,231.99L201.97,231.99L206.9,229.53L211.83,239.72L216.75,227.77L221.68,233.04L226.6,226.54L231.53,234.97L236.46,228.3L241.38,232.16L246.31,232.16L251.23,234.97L256.16,232.87L261.09,231.99L266.01,236.56L270.94,237.26L275.87,237.79L280.79,236.2L285.72,262.38L290.64,230.58L295.57,255.18L300.5,254.65L305.42,235.15L310.35,234.27L315.28,234.27L320.2,236.91L325.13,218.99L330.05,224.79L334.98,228.3L339.91,244.99L344.83,220.75L349.76,236.2L354.68,238.14L359.61,228.48L364.54,234.62L369.46,230.41L374.39,240.07L379.32,234.45L389.17,231.29L394.09,226.72L399.02,251.31L403.95,231.81L408.87,260.97L413.8,233.92L418.72,252.19L423.65,324.21L428.58,330.88L433.5,233.22L438.43,225.31L443.36,226.19L448.28,232.16L453.21,231.46L458.13,223.91L463.06,246.39L467.99,220.57L472.91,241.12L477.84,220.57L482.77,230.06L487.69,220.92L492.62,236.2L497.54,223.56L502.47,216.36L507.4,214.77L512.32,229.18L517.25,227.42L522.17,217.59L527.1,221.98L532.03,214.95L536.95,218.64L541.88,224.96L546.81,224.08L551.73,225.84L556.66,231.46L561.58,231.99L566.51,241.83L571.44,237.08L576.36,236.91L581.29,231.46L586.21,238.66L591.14,234.62L596.07,233.22L600.99,239.72L605.92,230.06L610.85,225.14L615.77,232.16L620.7,217.76L625.62,220.92L630.55,221.63L635.48,235.68L640.4,238.31L650.26,219.52L655.18,244.46L660.11,243.76L665.03,245.16L669.96,217.23L674.89,232.34L679.81,221.63L684.74,230.06L689.66,229.53L694.59,235.85L699.52,232.69L704.44,226.19L709.37,228.12L714.3,215.83L719.22,230.41L724.15,225.67L729.07,226.72L734,223.91" style="vector-effect: none; fill: none; stroke: rgb(165, 42, 42); stroke-opacity: 1; stroke-width: 2px; opacity: 1;"/></g><g class="points"/><g class="text"/></g><g class="trace scatter trace9248ac" style="stroke-miterlimit: 2; opacity: 1;"><g class="fills"/><g class="errorbars"/><g class="lines"><path class="js-line" d="M0,289.95L4.93,285.74L9.85,258.69L14.78,249.38L19.7,269.75L24.63,284.33L29.56,284.86L34.48,284.86L39.41,273.44L44.34,252.72L49.26,270.63L54.19,255.18L59.11,249.55L64.04,259.39L68.97,256.58L73.89,264.13L78.82,265.01L88.67,245.69L93.6,246.57L98.52,237.08L103.45,238.84L108.38,238.14L113.3,240.07L118.23,241.47L123.15,241.3L128.08,240.77L133.01,232.16L137.93,230.76L142.86,247.1L147.79,236.56L152.71,243.41L157.64,247.97L162.56,243.41L167.49,249.55L172.42,246.57L177.34,264.13L182.27,240.07L187.19,243.76L192.12,243.58L197.05,240.95L201.97,246.39L206.9,236.91L211.83,242L216.75,240.07L221.68,244.64L231.53,242.53L236.46,242.7L246.31,235.33L251.23,234.1L256.16,230.76L261.09,233.57L266.01,239.89L270.94,243.41L275.87,241.65L280.79,232.87L285.72,271.16L290.64,236.56L295.57,256.93L300.5,260.97L305.42,236.91L310.35,233.22L315.28,236.91L320.2,227.77L325.13,231.29L330.05,227.95L334.98,230.41L339.91,260.27L344.83,227.95L349.76,240.6L359.61,232.16L364.54,231.64L369.46,240.6L374.39,241.83L379.32,233.92L384.24,239.01L394.09,234.97L399.02,263.43L403.95,233.75L408.87,271.86L413.8,243.58L418.72,259.57L423.65,319.11L428.58,334.22L433.5,241.47L438.43,229.18L443.36,229.53L448.28,236.73L453.21,229.18L458.13,227.42L463.06,259.39L467.99,239.54L472.91,260.27L477.84,227.42L482.77,235.85L487.69,227.42L492.62,242.53L497.54,235.15L507.4,229.18L512.32,241.83L522.17,229.35L527.1,234.97L536.95,231.81L541.88,235.85L546.81,240.95L551.73,240.24L556.66,246.57L561.58,240.6L571.44,248.85L576.36,241.12L581.29,240.42L586.21,244.99L591.14,237.61L596.07,233.75L600.99,237.26L605.92,229.53L610.85,221.98L615.77,243.76L620.7,230.23L625.62,232.69L630.55,219.87L635.48,236.38L640.4,237.26L645.33,231.64L650.26,230.41L655.18,246.92L660.11,243.93L665.03,246.39L669.96,228.83L674.89,234.1L679.81,224.96L684.74,226.72L689.66,227.42L694.59,242.53L699.52,233.22L704.44,233.92L709.37,237.61L714.3,232.52L719.22,237.26L724.15,229.35L729.07,228.65L734,226.37" style="vector-effect: none; fill: none; stroke: rgb(128, 128, 128); stroke-opacity: 1; stroke-width: 2px; opacity: 1;"/></g><g class="points"/><g class="text"/></g></g></g><g class="overplot"/><path class="xlines-above crisp" d="M0,0" style="fill: none;"/><path class="ylines-above crisp" d="M0,0" style="fill: none;"/><g class="overlines-above"/><g class="xaxislayer-above"><g class="xtick"><text text-anchor="middle" x="0" y="509" transform="translate(228.6,0)" style="font-family: 'Open Sans', verdana, arial, sans-serif; font-size: 12px; fill: rgb(42, 63, 95); fill-opacity: 1; white-space: pre; opacity: 1;">20</text></g><g class="xtick"><text text-anchor="middle" x="0" y="509" style="font-family: 'Open Sans', verdana, arial, sans-serif; font-size: 12px; fill: rgb(42, 63, 95); fill-opacity: 1; white-space: pre; opacity: 1;" transform="translate(327.12,0)">40</text></g><g class="xtick"><text text-anchor="middle" x="0" y="509" style="font-family: 'Open Sans', verdana, arial, sans-serif; font-size: 12px; fill: rgb(42, 63, 95); fill-opacity: 1; white-space: pre; opacity: 1;" transform="translate(425.64,0)">60</text></g><g class="xtick"><text text-anchor="middle" x="0" y="509" style="font-family: 'Open Sans', verdana, arial, sans-serif; font-size: 12px; fill: rgb(42, 63, 95); fill-opacity: 1; white-space: pre; opacity: 1;" transform="translate(524.1700000000001,0)">80</text></g><g class="xtick"><text text-anchor="middle" x="0" y="509" style="font-family: 'Open Sans', verdana, arial, sans-serif; font-size: 12px; fill: rgb(42, 63, 95); fill-opacity: 1; white-space: pre; opacity: 1;" transform="translate(622.69,0)">100</text></g><g class="xtick"><text text-anchor="middle" x="0" y="509" style="font-family: 'Open Sans', verdana, arial, sans-serif; font-size: 12px; fill: rgb(42, 63, 95); fill-opacity: 1; white-space: pre; opacity: 1;" transform="translate(721.21,0)">120</text></g><g class="xtick"><text text-anchor="middle" x="0" y="509" style="font-family: 'Open Sans', verdana, arial, sans-serif; font-size: 12px; fill: rgb(42, 63, 95); fill-opacity: 1; white-space: pre; opacity: 1;" transform="translate(819.74,0)">140</text></g></g><g class="yaxislayer-above"><g class="ytick"><text text-anchor="end" x="134" y="4.199999999999999" transform="translate(0,454.42)" style="font-family: 'Open Sans', verdana, arial, sans-serif; font-size: 12px; fill: rgb(42, 63, 95); fill-opacity: 1; white-space: pre; opacity: 1;">65</text></g><g class="ytick"><text text-anchor="end" x="134" y="4.199999999999999" style="font-family: 'Open Sans', verdana, arial, sans-serif; font-size: 12px; fill: rgb(42, 63, 95); fill-opacity: 1; white-space: pre; opacity: 1;" transform="translate(0,366.59)">70</text></g><g class="ytick"><text text-anchor="end" x="134" y="4.199999999999999" style="font-family: 'Open Sans', verdana, arial, sans-serif; font-size: 12px; fill: rgb(42, 63, 95); fill-opacity: 1; white-space: pre; opacity: 1;" transform="translate(0,278.77)">75</text></g><g class="ytick"><text text-anchor="end" x="134" y="4.199999999999999" style="font-family: 'Open Sans', verdana, arial, sans-serif; font-size: 12px; fill: rgb(42, 63, 95); fill-opacity: 1; white-space: pre; opacity: 1;" transform="translate(0,190.94)">80</text></g><g class="ytick"><text text-anchor="end" x="134" y="4.199999999999999" style="font-family: 'Open Sans', verdana, arial, sans-serif; font-size: 12px; fill: rgb(42, 63, 95); fill-opacity: 1; white-space: pre; opacity: 1;" transform="translate(0,103.11)">85</text></g></g><g class="overaxes-above"/></g></g><g class="polarlayer"/><g class="smithlayer"/><g class="ternarylayer"/><g class="geolayer"/><g class="funnelarealayer"/><g class="pielayer"/><g class="iciclelayer"/><g class="treemaplayer"/><g class="sunburstlayer"/><g class="glimages"/><defs id="topdefs-bb9455"><g class="clips"/><clipPath id="legendbb9455"><rect width="128" height="162" x="0" y="0"/></clipPath></defs><g class="layer-above"><g class="imagelayer"/><g class="shapelayer"/></g><g class="infolayer"><g class="legend" pointer-events="all" transform="translate(883.6800000000001,100)"><rect class="bg" shape-rendering="crispEdges" width="128" height="162" x="0" y="0" style="stroke: rgb(68, 68, 68); stroke-opacity: 1; fill: rgb(255, 255, 255); fill-opacity: 1; stroke-width: 0px;"/><g class="scrollbox" transform="" clip-path="url(#legendbb9455)"><g class="groups"><g class="traces" transform="translate(0,14.5)" style="opacity: 1;"><text class="legendtext" text-anchor="start" x="40" y="4.680000000000001" style="font-family: 'Open Sans', verdana, arial, sans-serif; font-size: 12px; fill: rgb(42, 63, 95); fill-opacity: 1; white-space: pre;">Train Accuracy</text><g class="layers" style="opacity: 1;"><g class="legendfill"/><g class="legendlines"><path class="js-line" d="M5,0h30" style="fill: none; stroke: rgb(255, 0, 0); stroke-opacity: 1; stroke-width: 2px;"/></g><g class="legendsymbols"><g class="legendpoints"/></g></g><rect class="legendtoggle" x="0" y="-9.5" width="122.71875" height="19" style="fill: rgb(0, 0, 0); fill-opacity: 0;"/></g><g class="traces" transform="translate(0,33.5)" style="opacity: 1;"><text class="legendtext" text-anchor="start" x="40" y="4.680000000000001" style="font-family: 'Open Sans', verdana, arial, sans-serif; font-size: 12px; fill: rgb(42, 63, 95); fill-opacity: 1; white-space: pre;">Test Accuracy</text><g class="layers" style="opacity: 1;"><g class="legendfill"/><g class="legendlines"><path class="js-line" d="M5,0h30" style="fill: none; stroke: rgb(0, 0, 255); stroke-opacity: 1; stroke-width: 2px;"/></g><g class="legendsymbols"><g class="legendpoints"/></g></g><rect class="legendtoggle" x="0" y="-9.5" width="122.71875" height="19" style="fill: rgb(0, 0, 0); fill-opacity: 0;"/></g><g class="traces" transform="translate(0,52.5)" style="opacity: 1;"><text class="legendtext" text-anchor="start" x="40" y="4.680000000000001" style="font-family: 'Open Sans', verdana, arial, sans-serif; font-size: 12px; fill: rgb(42, 63, 95); fill-opacity: 1; white-space: pre;">Train Precision</text><g class="layers" style="opacity: 1;"><g class="legendfill"/><g class="legendlines"><path class="js-line" d="M5,0h30" style="fill: none; stroke: rgb(0, 128, 0); stroke-opacity: 1; stroke-width: 2px;"/></g><g class="legendsymbols"><g class="legendpoints"/></g></g><rect class="legendtoggle" x="0" y="-9.5" width="122.71875" height="19" style="fill: rgb(0, 0, 0); fill-opacity: 0;"/></g><g class="traces" transform="translate(0,71.5)" style="opacity: 1;"><text class="legendtext" text-anchor="start" x="40" y="4.680000000000001" style="font-family: 'Open Sans', verdana, arial, sans-serif; font-size: 12px; fill: rgb(42, 63, 95); fill-opacity: 1; white-space: pre;">Test Precision</text><g class="layers" style="opacity: 1;"><g class="legendfill"/><g class="legendlines"><path class="js-line" d="M5,0h30" style="fill: none; stroke: rgb(255, 165, 0); stroke-opacity: 1; stroke-width: 2px;"/></g><g class="legendsymbols"><g class="legendpoints"/></g></g><rect class="legendtoggle" x="0" y="-9.5" width="122.71875" height="19" style="fill: rgb(0, 0, 0); fill-opacity: 0;"/></g><g class="traces" transform="translate(0,90.5)" style="opacity: 1;"><text class="legendtext" text-anchor="start" x="40" y="4.680000000000001" style="font-family: 'Open Sans', verdana, arial, sans-serif; font-size: 12px; fill: rgb(42, 63, 95); fill-opacity: 1; white-space: pre;">Train Recall</text><g class="layers" style="opacity: 1;"><g class="legendfill"/><g class="legendlines"><path class="js-line" d="M5,0h30" style="fill: none; stroke: rgb(128, 0, 128); stroke-opacity: 1; stroke-width: 2px;"/></g><g class="legendsymbols"><g class="legendpoints"/></g></g><rect class="legendtoggle" x="0" y="-9.5" width="122.71875" height="19" style="fill: rgb(0, 0, 0); fill-opacity: 0;"/></g><g class="traces" transform="translate(0,109.5)" style="opacity: 1;"><text class="legendtext" text-anchor="start" x="40" y="4.680000000000001" style="font-family: 'Open Sans', verdana, arial, sans-serif; font-size: 12px; fill: rgb(42, 63, 95); fill-opacity: 1; white-space: pre;">Test Recall</text><g class="layers" style="opacity: 1;"><g class="legendfill"/><g class="legendlines"><path class="js-line" d="M5,0h30" style="fill: none; stroke: rgb(255, 192, 203); stroke-opacity: 1; stroke-width: 2px;"/></g><g class="legendsymbols"><g class="legendpoints"/></g></g><rect class="legendtoggle" x="0" y="-9.5" width="122.71875" height="19" style="fill: rgb(0, 0, 0); fill-opacity: 0;"/></g><g class="traces" transform="translate(0,128.5)" style="opacity: 1;"><text class="legendtext" text-anchor="start" x="40" y="4.680000000000001" style="font-family: 'Open Sans', verdana, arial, sans-serif; font-size: 12px; fill: rgb(42, 63, 95); fill-opacity: 1; white-space: pre;">Train F1</text><g class="layers" style="opacity: 1;"><g class="legendfill"/><g class="legendlines"><path class="js-line" d="M5,0h30" style="fill: none; stroke: rgb(165, 42, 42); stroke-opacity: 1; stroke-width: 2px;"/></g><g class="legendsymbols"><g class="legendpoints"/></g></g><rect class="legendtoggle" x="0" y="-9.5" width="122.71875" height="19" style="fill: rgb(0, 0, 0); fill-opacity: 0;"/></g><g class="traces" transform="translate(0,147.5)" style="opacity: 1;"><text class="legendtext" text-anchor="start" x="40" y="4.680000000000001" style="font-family: 'Open Sans', verdana, arial, sans-serif; font-size: 12px; fill: rgb(42, 63, 95); fill-opacity: 1; white-space: pre;">Test F1</text><g class="layers" style="opacity: 1;"><g class="legendfill"/><g class="legendlines"><path class="js-line" d="M5,0h30" style="fill: none; stroke: rgb(128, 128, 128); stroke-opacity: 1; stroke-width: 2px;"/></g><g class="legendsymbols"><g class="legendpoints"/></g></g><rect class="legendtoggle" x="0" y="-9.5" width="122.71875" height="19" style="fill: rgb(0, 0, 0); fill-opacity: 0;"/></g></g></g><rect class="scrollbar" rx="20" ry="3" width="0" height="0" x="0" y="0" style="fill: rgb(128, 139, 164); fill-opacity: 1;"/></g><g class="g-gtitle"><text class="gtitle" x="51.2" y="50" text-anchor="start" dy="0em" style="font-family: 'Open Sans', verdana, arial, sans-serif; font-size: 17px; fill: rgb(42, 63, 95); opacity: 1; font-weight: normal; white-space: pre;">Training Metrics - logs/FakeNewsNet-gossipcop_max-vocab=15000_pre=v2_domain_T=200_s=10.log</text></g><g class="g-xtitle"><text class="xtitle" x="502" y="537.3" text-anchor="middle" style="font-family: 'Open Sans', verdana, arial, sans-serif; font-size: 14px; fill: rgb(42, 63, 95); opacity: 1; font-weight: normal; white-space: pre;">Epoch</text></g><g class="g-ytitle"><text class="ytitle" transform="rotate(-90,95.965625,298)" x="95.965625" y="298" text-anchor="middle" style="font-family: 'Open Sans', verdana, arial, sans-serif; font-size: 14px; fill: rgb(42, 63, 95); opacity: 1; font-weight: normal; white-space: pre;">Metric Score</text></g></g><g class="menulayer"><g class="updatemenu-container" style="cursor: pointer;"><g class="updatemenu-header-group" transform="translate(12,60)"><g class="updatemenu-header" transform="translate(1,1)" style="pointer-events: all;"><rect class="updatemenu-item-rect" rx="2" ry="2" shape-rendering="crispEdges" x="0" y="0" width="160" height="33" style="stroke: rgb(190, 200, 217); stroke-opacity: 1; fill: rgb(255, 255, 255); fill-opacity: 1; stroke-width: 1px;"/><text class="updatemenu-item-text" text-anchor="start" data-notex="1" x="12" y="19.5" style="font-family: 'Open Sans', verdana, arial, sans-serif; font-size: 12px; fill: rgb(42, 63, 95); fill-opacity: 1; white-space: pre;">All</text></g><text class="updatemenu-header-arrow" text-anchor="end" x="156" y="19.5" style="font-family: 'Open Sans', verdana, arial, sans-serif; font-size: 12px; fill: rgb(42, 63, 95); fill-opacity: 1;">▼</text></g><g class="updatemenu-dropdown-button-group" updatemenu-active-index="-1" style="pointer-events: all;"><rect class="scrollbox-bg" opacity="0" x="0" y="0" width="0" height="0" style="pointer-events: all;"/></g></g></g></svg>