<svg class="main-svg" xmlns="http://www.w3.org/2000/svg" xmlns:xlink="http://www.w3.org/1999/xlink" width="1024" height="576" style="" viewBox="0 0 1024 576"><rect x="0" y="0" width="1024" height="576" style="fill: rgb(255, 255, 255); fill-opacity: 1;"/><defs id="defs-145570"><g class="clips"><clipPath id="clip145570xyplot" class="plotclip"><rect width="729" height="396"/></clipPath><clipPath class="axesclip" id="clip145570x"><rect x="140" y="0" width="729" height="576"/></clipPath><clipPath class="axesclip" id="clip145570y"><rect x="0" y="100" width="1024" height="396"/></clipPath><clipPath class="axesclip" id="clip145570xy"><rect x="140" y="100" width="729" height="396"/></clipPath></g><g class="gradients"/><g class="patterns"/></defs><g class="bglayer"><rect class="bg" x="140" y="100" width="729" height="396" style="fill: rgb(229, 236, 246); fill-opacity: 1; stroke-width: 0;"/></g><g class="layer-below"><g class="imagelayer"/><g class="shapelayer"/></g><g class="cartesianlayer"><g class="subplot xy"><g class="layer-subplot"><g class="shapelayer"/><g class="imagelayer"/></g><g class="minor-gridlayer"><g class="x"/><g class="y"/></g><g class="gridlayer"><g class="x"><path class="xgrid crisp" transform="translate(232.95999999999998,0)" d="M0,100v396" style="stroke: rgb(255, 255, 255); stroke-opacity: 1; stroke-width: 1px;"/><path class="xgrid crisp" transform="translate(330.81,0)" d="M0,100v396" style="stroke: rgb(255, 255, 255); stroke-opacity: 1; stroke-width: 1px;"/><path class="xgrid crisp" transform="translate(428.66,0)" d="M0,100v396" style="stroke: rgb(255, 255, 255); stroke-opacity: 1; stroke-width: 1px;"/><path class="xgrid crisp" transform="translate(526.52,0)" d="M0,100v396" style="stroke: rgb(255, 255, 255); stroke-opacity: 1; stroke-width: 1px;"/><path class="xgrid crisp" transform="translate(624.37,0)" d="M0,100v396" style="stroke: rgb(255, 255, 255); stroke-opacity: 1; stroke-width: 1px;"/><path class="xgrid crisp" transform="translate(722.22,0)" d="M0,100v396" style="stroke: rgb(255, 255, 255); stroke-opacity: 1; stroke-width: 1px;"/><path class="xgrid crisp" transform="translate(820.07,0)" d="M0,100v396" style="stroke: rgb(255, 255, 255); stroke-opacity: 1; stroke-width: 1px;"/></g><g class="y"><path class="ygrid crisp" transform="translate(0,465.56)" d="M140,0h729" style="stroke: rgb(255, 255, 255); stroke-opacity: 1; stroke-width: 1px;"/><path class="ygrid crisp" transform="translate(0,423.83)" d="M140,0h729" style="stroke: rgb(255, 255, 255); stroke-opacity: 1; stroke-width: 1px;"/><path class="ygrid crisp" transform="translate(0,382.09)" d="M140,0h729" style="stroke: rgb(255, 255, 255); stroke-opacity: 1; stroke-width: 1px;"/><path class="ygrid crisp" transform="translate(0,340.36)" d="M140,0h729" style="stroke: rgb(255, 255, 255); stroke-opacity: 1; stroke-width: 1px;"/><path class="ygrid crisp" transform="translate(0,298.63)" d="M140,0h729" style="stroke: rgb(255, 255, 255); stroke-opacity: 1; stroke-width: 1px;"/><path class="ygrid crisp" transform="translate(0,256.89)" d="M140,0h729" style="stroke: rgb(255, 255, 255); stroke-opacity: 1; stroke-width: 1px;"/><path class="ygrid crisp" transform="translate(0,215.16)" d="M140,0h729" style="stroke: rgb(255, 255, 255); stroke-opacity: 1; stroke-width: 1px;"/><path class="ygrid crisp" transform="translate(0,173.43)" d="M140,0h729" style="stroke: rgb(255, 255, 255); stroke-opacity: 1; stroke-width: 1px;"/><path class="ygrid crisp" transform="translate(0,131.69)" d="M140,0h729" style="stroke: rgb(255, 255, 255); stroke-opacity: 1; stroke-width: 1px;"/></g></g><g class="zerolinelayer"/><path class="xlines-below"/><path class="ylines-below"/><g class="overlines-below"/><g class="xaxislayer-below"/><g class="yaxislayer-below"/><g class="overaxes-below"/><g class="plot" transform="translate(140,100)" clip-path="url(#clip145570xyplot)"><g class="scatterlayer mlayer"><g class="trace scatter traceed1582" style="stroke-miterlimit: 2; opacity: 1;"><g class="fills"/><g class="errorbars"/><g class="lines"><path class="js-line" d="M0,65.71L4.89,42.13L9.79,32.32L14.68,42.96L19.57,57.15L29.36,35.45L34.25,46.3L39.14,44.42L44.03,79.9L48.93,84.07L53.82,49.64L58.71,46.51L63.6,45.05L68.5,45.67L73.39,54.65L78.28,52.56L83.17,45.88L88.07,60.07L92.96,108.27L97.85,104.94L102.74,126.22L107.64,131.64L112.53,118.08L117.42,103.06L122.32,98.88L132.1,109.73L136.99,110.78L141.89,86.57L146.78,69.67L151.67,58.19L156.56,74.89L161.46,60.28L166.35,82.19L171.24,63.62L176.13,51.1L181.03,54.02L185.92,52.56L190.81,80.52L195.7,51.1L205.49,46.09L210.38,49.01L215.28,63.41L220.17,69.04L225.06,54.44L229.95,53.6L234.85,48.39L239.74,65.08L244.63,56.53L249.52,40.46L254.42,40.04L259.31,50.68L264.2,35.03L269.09,55.69L273.99,51.73L278.88,60.07L283.77,56.11L288.66,75.3L293.56,89.91L298.45,93.88L303.34,106.19L308.23,97.01L313.13,124.97L318.02,77.6L322.91,62.99L327.81,77.81L332.7,68.42L337.59,48.39L342.48,51.52L347.38,66.33L352.27,45.88L357.16,73.43L362.05,122.25L366.95,83.44L381.62,47.34L386.52,31.07L391.41,83.23L396.3,33.36L401.19,42.34L406.09,39L410.98,26.48L415.87,40.46L420.77,47.97L425.66,47.14L430.55,42.75L435.44,59.66L440.34,68.84L445.23,70.92L450.12,68.63L455.01,84.9L459.91,64.45L464.8,105.56L469.69,43.8L474.58,48.8L479.48,55.27L484.37,78.85L489.26,44.01L494.15,66.33L503.94,96.59L508.83,105.35L513.72,92.83L518.62,84.9L523.51,75.51L528.4,80.94L533.3,92.42L538.19,63.62L543.08,67.38L547.97,63.41L552.87,76.14L557.76,57.57L562.65,57.36L567.54,66.96L572.44,62.79L577.33,48.18L582.22,59.66L587.11,50.47L592.01,53.4L596.9,61.74L601.79,95.55L606.68,65.71L611.58,60.91L616.47,43.17L621.36,71.34L626.26,83.03L631.15,58.4L636.04,40.25L640.93,70.51L645.83,63.41L650.72,70.09L655.61,78.23L665.4,69.04L670.29,64.04L675.18,56.32L680.07,58.82L684.97,53.4L689.86,67.58L694.75,71.97L699.64,72.38L704.54,79.9L709.43,98.26L714.32,83.03L719.21,55.27L724.11,67.58L729,83.03" style="vector-effect: none; fill: none; stroke: rgb(255, 0, 0); stroke-opacity: 1; stroke-width: 2px; opacity: 1;"/></g><g class="points"/><g class="text"/></g><g class="trace scatter tracec47895" style="stroke-miterlimit: 2; opacity: 1;"><g class="fills"/><g class="errorbars"/><g class="lines"><path class="js-line" d="M0,70.3L4.89,46.3L9.79,27.52L14.68,41.5L19.57,61.74L24.46,49.01L29.36,40.67L34.25,59.03L39.14,44.84L44.03,81.15L48.93,90.95L53.82,48.18L58.71,55.27L63.6,63.62L68.5,51.93L73.39,61.74L78.28,55.27L83.17,49.01L88.07,62.79L92.96,108.48L97.85,109.53L102.74,129.77L107.64,130.18L112.53,128.31L117.42,110.36L122.32,98.05L127.21,103.68L132.1,118.29L136.99,116.41L141.89,93.88L146.78,84.07L151.67,66.12L156.56,97.63L161.46,68.42L166.35,88.66L171.24,64.66L176.13,45.88L181.03,51.1L185.92,52.98L190.81,89.7L195.7,47.76L200.6,45.26L205.49,52.35L210.38,50.06L215.28,72.17L220.17,82.19L225.06,57.15L229.95,64.66L234.85,59.45L239.74,66.96L244.63,57.15L249.52,41.5L254.42,39.62L259.31,54.23L264.2,35.87L269.09,55.69L273.99,51.93L278.88,61.74L283.77,59.03L288.66,78.23L293.56,94.29L298.45,99.51L303.34,114.12L308.23,105.14L313.13,134.36L318.02,95.34L322.91,85.32L327.81,80.31L332.7,81.56L337.59,55.69L342.48,62.37L347.38,72.17L352.27,56.73L357.16,87.2L362.05,138.11L366.95,92.83L371.84,70.3L376.73,55.27L381.62,35.87L386.52,19.8L391.41,84.49L396.3,28.36L401.19,49.64L406.09,44.42L410.98,31.69L415.87,45.26L420.77,51.52L425.66,48.18L430.55,42.13L435.44,68.42L440.34,79.69L445.23,78.85L450.12,83.44L455.01,89.7L459.91,66.96L464.8,112.66L469.69,52.35L474.58,52.98L479.48,57.15L484.37,98.05L489.26,52.35L494.15,78.23L499.05,96.8L503.94,119.75L508.83,129.77L513.72,101.81L518.62,95.34L523.51,96.8L528.4,101.81L533.3,105.14L538.19,84.49L547.97,72.17L552.87,83.03L557.76,54.86L562.65,50.47L567.54,68L572.44,68.42L577.33,55.27L582.22,79.27L587.11,66.12L592.01,66.96L596.9,59.86L601.79,108.9L606.68,59.86L611.58,61.74L616.47,48.6L621.36,72.59L626.26,89.7L631.15,63.2L636.04,39.62L640.93,79.69L645.83,76.35L650.72,77.81L655.61,83.44L660.5,79.69L665.4,77.81L670.29,65.71L675.18,57.57L680.07,54.86L684.97,54.86L689.86,75.1L694.75,78.23L699.64,90.12L704.54,90.95L709.43,110.78L714.32,92.42L719.21,60.49L729,88.66" style="vector-effect: none; fill: none; stroke: rgb(0, 0, 255); stroke-opacity: 1; stroke-width: 2px; opacity: 1;"/></g><g class="points"/><g class="text"/></g><g class="trace scatter trace80452f" style="stroke-miterlimit: 2; opacity: 1;"><g class="fills"/><g class="errorbars"/><g class="lines"><path class="js-line" d="M0,189.44L4.89,145.63L9.79,121L14.68,149.38L19.57,188.61L24.46,144.37L29.36,109.73L34.25,152.72L39.14,142.91L44.03,235.56L48.93,243.91L53.82,163.99L58.71,165.45L68.5,157.94L73.39,179.64L78.28,172.13L83.17,160.65L88.07,198.42L92.96,281.47L97.85,276.25L102.74,303.38L107.64,308.38L112.53,291.06L117.42,272.7L122.32,267.49L132.1,281.88L136.99,283.14L141.89,249.96L146.78,222L151.67,197.37L156.56,231.39L161.46,200.3L166.35,242.86L176.13,171.08L181.03,187.98L185.92,186.73L190.81,240.57L195.7,180.26L200.6,170.25L205.49,168.37L210.38,171.29L215.28,204.68L220.17,220.54L225.06,187.36L229.95,185.06L234.85,170.87L239.74,209.89L244.63,190.91L249.52,148.34L254.42,151.47L259.31,176.51L264.2,133.52L269.09,187.98L273.99,181.93L278.88,201.34L283.77,192.99L288.66,231.39L293.56,255.17L298.45,260.39L303.34,277.08L308.23,266.02L313.13,301.08L318.02,234.52L322.91,209.89L327.81,235.77L332.7,219.91L337.59,174.84L342.48,180.26L347.38,214.07L352.27,166.28L357.16,227L362.05,301.71L366.95,244.95L371.84,222.41L376.73,192.16L381.62,165.45L386.52,118.29L391.41,242.65L396.3,120.79L401.19,148.96L406.09,142.5L410.98,97.42L415.87,142.91L420.77,156.06L425.66,159.19L430.55,139.16L435.44,193.2L440.34,214.69L445.23,216.78L450.12,219.08L455.01,245.99L459.91,206.97L464.8,280.01L469.69,157.73L474.58,172.75L479.48,183.39L484.37,236.81L489.26,163.99L494.15,213.86L499.05,242.65L503.94,265.19L508.83,277.29L513.72,259.76L518.62,247.04L523.51,231.8L528.4,240.99L533.3,257.26L538.19,210.52L543.08,216.15L547.97,208.22L552.87,232.43L557.76,195.29L562.65,193.83L567.54,217.41L572.44,206.76L577.33,170.04L582.22,197.79L587.11,174.63L592.01,185.27L596.9,200.71L601.79,263.52L606.68,207.18L611.58,196.75L616.47,153.35L621.36,222.41L626.26,243.91L631.15,190.91L636.04,137.07L640.93,214.28L645.83,204.26L650.72,217.82L655.61,233.68L660.5,227.21L665.4,214.69L670.29,204.26L675.18,186.11L680.07,192.16L684.97,176.09L689.86,209.48L694.75,221.79L699.64,223.67L704.54,236.81L709.43,268.32L714.32,242.65L719.21,186.73L729,243.28" style="vector-effect: none; fill: none; stroke: rgb(0, 128, 0); stroke-opacity: 1; stroke-width: 2px; opacity: 1;"/></g><g class="points"/><g class="text"/></g><g class="trace scatter trace4eb55f" style="stroke-miterlimit: 2; opacity: 1;"><g class="fills"/><g class="errorbars"/><g class="lines"><path class="js-line" d="M0,198.83L9.79,104.73L14.68,144.58L19.57,195.29L24.46,150.63L29.36,123.92L34.25,180.05L39.14,144.37L44.03,235.35L48.93,254.13L53.82,154.18L58.71,181.31L63.6,196.96L68.5,167.74L73.39,192.78L78.28,177.55L83.17,169.41L88.07,204.89L92.96,279.8L97.85,281.26L102.74,304.84L112.53,302.54L117.42,281.88L122.32,264.98L127.21,272.08L132.1,292.11L136.99,289.4L141.89,259.76L146.78,244.32L151.67,211.98L156.56,265.4L161.46,214.9L166.35,251.84L176.13,158.56L181.03,182.14L185.92,186.73L190.81,253.09L195.7,171.29L200.6,162.53L205.49,179.43L210.38,171.29L215.28,220.33L220.17,241.19L225.06,190.91L229.95,205.3L234.85,191.95L239.74,212.4L244.63,191.74L249.52,150.42L254.42,150.63L259.31,182.56L264.2,134.15L269.09,186.73L273.99,181.93L278.88,204.68L283.77,197.79L288.66,234.93L293.56,260.81L298.45,266.86L303.34,285.85L308.23,276.46L313.13,309.84L318.02,262.27L322.91,246.62L327.81,238.69L332.7,240.57L337.59,188.82L342.48,203.01L347.38,223.67L352.27,186.73L357.16,249.33L362.05,323.62L366.95,258.72L381.62,139.99L386.52,91.16L391.41,243.28L396.3,106.6L401.19,165.66L406.09,155.01L410.98,104.94L415.87,150.01L420.77,160.86L425.66,156.27L430.55,133.52L435.44,207.6L440.34,233.89L445.23,229.09L450.12,243.07L455.01,252.46L459.91,209.48L464.8,289.19L469.69,175.05L474.58,177.97L479.48,184.65L484.37,267.07L489.26,177.76L494.15,233.26L503.94,298.16L508.83,309.64L513.72,272.08L518.62,262.48L523.51,264.56L528.4,272.28L533.3,274.16L538.19,244.53L547.97,221.79L552.87,242.45L557.76,187.98L562.65,179.22L567.54,218.03L572.44,214.48L577.33,181.93L582.22,232.64L587.11,205.3L592.01,209.27L596.9,196.12L601.79,281.88L606.68,196.12L611.58,198.21L616.47,165.24L621.36,223.04L626.26,253.3L631.15,199.04L636.04,136.86L640.93,230.97L645.83,228.05L650.72,231.39L655.61,241.4L660.5,235.98L665.4,230.34L670.29,206.56L675.18,188.82L680.07,183.18L684.97,179.01L689.86,222.83L694.75,232.22L699.64,253.5L704.54,254.76L709.43,285.64L714.32,257.68L719.21,195.91L724.11,226.17L729,251.63" style="vector-effect: none; fill: none; stroke: rgb(255, 165, 0); stroke-opacity: 1; stroke-width: 2px; opacity: 1;"/></g><g class="points"/><g class="text"/></g><g class="trace scatter trace69c163" style="stroke-miterlimit: 2; opacity: 1;"><g class="fills"/><g class="errorbars"/><g class="lines"><path class="js-line" d="M0,373.7L4.89,331.96L9.79,324.03L14.68,330.09L19.57,328.83L24.46,348.03L29.36,347.82L34.25,340.73L39.14,346.15L44.03,340.73L48.93,336.97L53.82,338.01L58.71,320.07L63.6,320.49L68.5,329.25L73.39,334.47L78.28,338.22L83.17,326.33L88.07,319.86L97.85,307.13L102.74,315.27L107.64,311.72L112.53,299.83L117.42,298.58L122.32,301.71L127.21,300.25L132.1,304.84L136.99,303.38L141.89,304L146.78,298.99L151.67,309.64L156.56,294.82L161.46,315.27L166.35,309.22L171.24,326.54L176.13,332.59L181.03,310.05L185.92,303.79L190.81,288.77L195.7,313.18L200.6,319.03L205.49,311.72L210.38,321.53L215.28,324.87L220.17,302.75L225.06,314.64L229.95,316.31L234.85,318.4L239.74,316.73L249.52,320.7L254.42,314.02L259.31,319.86L264.2,319.65L269.09,320.7L273.99,312.97L278.88,309.64L283.77,309.22L288.66,305.88L293.56,313.81L298.45,297.12L303.34,301.29L308.23,315.48L313.13,310.68L318.02,313.39L322.91,295.86L327.81,299.62L332.7,298.37L337.59,310.26L342.48,315.27L347.38,310.26L352.27,315.06L357.16,315.27L362.05,330.92L366.95,312.77L371.84,322.57L376.73,330.92L381.62,324.45L386.52,322.36L391.41,334.47L396.3,328.83L401.19,328.62L406.09,323.2L410.98,328L415.87,329.25L420.77,343.23L425.66,334.05L430.55,343.44L435.44,332.8L440.34,329.88L445.23,340.52L450.12,307.34L455.01,334.47L459.91,324.87L464.8,334.05L469.69,321.32L474.58,317.15L479.48,330.5L484.37,315.27L489.26,309.84L494.15,310.47L499.05,318.61L503.94,312.97L508.83,310.89L518.62,309.84L523.51,304.21L528.4,303.79L533.3,285.85L538.19,300.66L543.08,309.22L547.97,311.31L552.87,307.76L557.76,312.77L562.65,315.48L567.54,298.16L572.44,310.68L577.33,319.65L582.22,319.03L587.11,322.16L592.01,313.81L596.9,325.7L601.79,311.1L606.68,331.96L611.58,331.75L616.47,325.29L621.36,317.15L626.26,314.85L631.15,329.67L636.04,336.14L640.93,344.69L645.83,325.29L650.72,328.21L655.61,332.59L660.5,320.49L665.4,332.8L670.29,330.09L675.18,329.46L680.07,330.5L689.86,339.06L694.75,327.79L699.64,322.16L704.54,333.01L709.43,323.62L714.32,331.13L719.21,321.32L724.11,319.23L729,323.41" style="vector-effect: none; fill: none; stroke: rgb(128, 0, 128); stroke-opacity: 1; stroke-width: 2px; opacity: 1;"/></g><g class="points"/><g class="text"/></g><g class="trace scatter tracef17c12" style="stroke-miterlimit: 2; opacity: 1;"><g class="fills"/><g class="errorbars"/><g class="lines"><path class="js-line" d="M0,376.2L4.89,333.63L9.79,321.11L19.57,335.09L24.46,351.37L29.36,349.28L34.25,351.99L39.14,341.98L44.03,345.94L48.93,351.16L53.82,342.81L58.71,329.46L63.6,342.4L68.5,338.64L73.39,341.14L78.28,337.39L83.17,321.53L88.07,311.72L92.96,307.76L97.85,309.84L102.74,309.84L107.64,304L112.53,306.09L117.42,305.67L122.32,298.37L127.21,295.45L132.1,309.01L136.99,306.51L141.89,310.26L146.78,311.72L151.67,309.22L156.56,311.31L161.46,318.19L166.35,314.85L171.24,322.36L176.13,325.29L181.03,301.92L190.81,298.79L195.7,309.84L200.6,315.69L205.49,317.57L210.38,322.78L215.28,329.25L220.17,311.1L225.06,316.73L229.95,325.08L234.85,328.83L239.74,316.52L244.63,314.64L249.52,319.23L254.42,309.84L259.31,321.53L264.2,318.82L269.09,319.03L273.99,308.59L278.88,304.42L283.77,308.59L288.66,306.71L293.56,319.86L298.45,297.32L303.34,302.12L308.23,316.31L313.13,309.64L318.02,322.57L322.91,308.59L327.81,295.86L332.7,308.18L337.59,313.81L342.48,314.85L347.38,310.68L352.27,325.08L357.16,320.49L362.05,349.49L366.95,322.99L371.84,324.03L376.73,327.37L381.62,310.05L386.52,308.18L391.41,335.3L396.3,322.36L401.19,331.13L406.09,324.24L410.98,335.93L415.87,336.34L420.77,347.61L425.66,339.47L430.55,344.07L435.44,344.9L440.34,337.6L445.23,351.58L450.12,320.7L455.01,340.1L459.91,328.62L464.8,339.27L469.69,327.58L474.58,323.83L479.48,332.8L484.37,340.31L489.26,321.53L494.15,324.03L499.05,334.68L503.94,334.68L508.83,331.13L513.72,320.07L518.62,325.08L523.51,325.49L528.4,323.41L533.3,296.91L538.19,323.41L543.08,324.66L547.97,321.32L557.76,309.84L562.65,306.92L567.54,295.24L572.44,320.07L577.33,328.21L582.22,339.27L587.11,335.3L592.01,329.25L596.9,320.49L601.79,320.07L606.68,320.49L611.58,327.16L616.47,327.16L621.36,320.28L626.26,322.78L631.15,334.05L636.04,330.5L640.93,353.04L645.83,334.05L650.72,330.29L655.61,336.76L660.5,322.99L665.4,336.34L670.29,327.58L675.18,325.7L680.07,322.57L684.97,331.75L689.86,343.86L694.75,331.34L699.64,337.81L704.54,341.77L709.43,330.09L714.32,335.93L719.21,324.24L724.11,317.77L729,327.58" style="vector-effect: none; fill: none; stroke: rgb(255, 192, 203); stroke-opacity: 1; stroke-width: 2px; opacity: 1;"/></g><g class="points"/><g class="text"/></g><g class="trace scatter trace22eae8" style="stroke-miterlimit: 2; opacity: 1;"><g class="fills"/><g class="errorbars"/><g class="lines"><path class="js-line" d="M0,328.21L4.89,281.47L9.79,269.99L14.68,280.21L19.57,285.85L24.46,296.7L29.36,292.32L34.25,290.86L39.14,294.82L44.03,305.88L48.93,304.63L58.71,273.75L63.6,273.33L73.39,289.19L78.28,291.48L83.17,278.54L88.07,280.21L92.96,299.62L97.85,293.57L102.74,309.64L107.64,310.05L112.53,295.66L117.42,286.89L122.32,286.68L127.21,288.56L132.1,294.4L136.99,293.99L146.78,269.78L151.67,271.45L156.56,269.57L161.46,276.88L166.35,283.34L171.24,287.1L176.13,286.06L181.03,269.78L185.92,264.36L190.81,268.53L195.7,270.62L200.6,273.75L205.49,267.07L210.38,276.04L215.28,285.64L220.17,272.08L229.95,274.37L234.85,273.33L239.74,280.21L244.63,277.5L254.42,265.82L259.31,275.62L264.2,267.9L269.09,278.54L273.99,270.82L278.88,272.49L283.77,269.99L288.66,277.5L293.56,290.44L298.45,281.26L303.34,290.23L308.23,295.24L313.13,306.09L318.02,283.97L322.91,263.94L327.81,274.37L332.7,268.74L337.59,266.86L342.48,272.28L347.38,276.04L352.27,269.36L357.16,283.34L362.05,318.19L366.95,286.47L371.84,287.93L376.73,288.35L386.52,268.11L391.41,302.54L396.3,274.79L401.19,278.75L406.09,272.7L410.98,270.62L415.87,278.34L420.77,293.78L425.66,285.43L430.55,291.69L435.44,290.23L440.34,292.11L445.23,301.71L450.12,275L455.01,303.17L459.91,286.27L464.8,312.56L469.69,273.33L474.58,272.49L479.48,286.27L484.37,286.06L489.26,264.36L494.15,276.25L499.05,290.23L508.83,296.28L513.72,289.6L518.62,285.01L523.51,276.46L528.4,278.96L533.3,272.91L538.19,267.69L543.08,275.83L547.97,275.41L552.87,279.17L557.76,273.54L562.65,275.62L567.54,267.69L572.44,274.58L577.33,274.37L582.22,279.38L587.11,277.29L592.01,272.08L596.9,285.64L601.79,291.27L606.68,292.32L611.58,290.02L616.47,276.25L621.36,283.55L626.26,287.73L631.15,287.1L636.04,284.18L640.93,304.84L645.83,286.06L650.72,291.48L655.61,298.79L660.5,287.52L665.4,294.61L670.29,290.02L675.18,285.85L680.07,287.93L684.97,288.98L689.86,298.99L694.75,291.9L699.64,287.73L704.54,299.83L709.43,301.5L714.32,299.83L719.21,278.96L724.11,283.34L729,293.99" style="vector-effect: none; fill: none; stroke: rgb(165, 42, 42); stroke-opacity: 1; stroke-width: 2px; opacity: 1;"/></g><g class="points"/><g class="text"/></g><g class="trace scatter tracef890d7" style="stroke-miterlimit: 2; opacity: 1;"><g class="fills"/><g class="errorbars"/><g class="lines"><path class="js-line" d="M0,331.96L4.89,284.39L9.79,264.98L14.68,277.29L19.57,292.73L24.46,301.29L29.36,295.66L34.25,305.88L39.14,291.06L44.03,310.05L48.93,318.61L53.82,293.15L58.71,285.22L63.6,299.62L68.5,291.27L73.39,297.74L78.28,291.69L83.17,275.83L88.07,275L92.96,295.24L97.85,297.12L102.74,307.34L107.64,304L112.53,304.42L117.42,295.03L122.32,283.76L127.21,284.8L132.1,301.08L136.99,298.58L141.89,289.6L146.78,285.64L151.67,274.79L156.56,292.32L161.46,282.51L166.35,290.23L176.13,277.29L181.03,261.64L185.92,261.64L190.81,279.59L195.7,266.02L200.6,269.36L205.49,274.37L210.38,277.29L215.28,292.94L220.17,284.18L225.06,276.04L229.95,286.06L234.85,286.68L239.74,280.63L244.63,274.37L249.52,270.2L254.42,261.85L259.31,278.34L264.2,267.28L269.09,277.08L273.99,267.28L278.88,269.15L283.77,270.82L288.66,279.17L293.56,296.49L298.45,283.76L303.34,294.61L308.23,299.41L313.13,309.64L318.02,298.79L322.91,284.18L327.81,272.7L332.7,281.88L337.59,272.91L342.48,277.08L347.38,278.96L352.27,282.3L357.16,293.57L362.05,338.01L366.95,298.16L371.84,287.93L376.73,283.55L381.62,260.18L386.52,250.58L391.41,303.38L396.3,266.65L401.19,283.76L406.09,275.83L410.98,279.8L415.87,286.27L420.77,298.79L425.66,290.23L430.55,291.69L435.44,303.79L440.34,302.96L445.23,313.81L450.12,291.9L455.01,309.43L459.91,290.02L464.8,319.23L469.69,282.3L474.58,279.59L479.48,288.77L484.37,313.39L489.26,277.5L494.15,291.9L499.05,308.59L503.94,319.23L508.83,321.32L513.72,300.45L523.51,301.71L528.4,302.75L533.3,286.47L538.19,294.19L543.08,292.32L547.97,286.89L552.87,288.14L557.76,269.57L562.65,265.19L567.54,265.82L572.44,284.18L577.33,284.18L582.22,304L587.11,294.82L592.01,290.44L596.9,280.42L601.79,303.79L606.68,280.42L611.58,286.47L616.47,280.21L621.36,286.27L626.26,296.28L631.15,292.53L636.04,278.75L640.93,315.27L645.83,298.58L650.72,296.49L655.61,304L660.5,291.69L665.4,301.08L670.29,288.56L675.18,283.14L680.07,279.38L684.97,286.89L689.86,305.88L694.75,297.32L699.64,307.76L704.54,311.31L709.43,311.72L714.32,307.55L719.21,283.34L724.11,285.22L729,299.41" style="vector-effect: none; fill: none; stroke: rgb(128, 128, 128); stroke-opacity: 1; stroke-width: 2px; opacity: 1;"/></g><g class="points"/><g class="text"/></g></g></g><g class="overplot"/><path class="xlines-above crisp" d="M0,0" style="fill: none;"/><path class="ylines-above crisp" d="M0,0" style="fill: none;"/><g class="overlines-above"/><g class="xaxislayer-above"><g class="xtick"><text text-anchor="middle" x="0" y="509" transform="translate(232.95999999999998,0)" style="font-family: 'Open Sans', verdana, arial, sans-serif; font-size: 12px; fill: rgb(42, 63, 95); fill-opacity: 1; white-space: pre; opacity: 1;">20</text></g><g class="xtick"><text text-anchor="middle" x="0" y="509" style="font-family: 'Open Sans', verdana, arial, sans-serif; font-size: 12px; fill: rgb(42, 63, 95); fill-opacity: 1; white-space: pre; opacity: 1;" transform="translate(330.81,0)">40</text></g><g class="xtick"><text text-anchor="middle" x="0" y="509" style="font-family: 'Open Sans', verdana, arial, sans-serif; font-size: 12px; fill: rgb(42, 63, 95); fill-opacity: 1; white-space: pre; opacity: 1;" transform="translate(428.66,0)">60</text></g><g class="xtick"><text text-anchor="middle" x="0" y="509" style="font-family: 'Open Sans', verdana, arial, sans-serif; font-size: 12px; fill: rgb(42, 63, 95); fill-opacity: 1; white-space: pre; opacity: 1;" transform="translate(526.52,0)">80</text></g><g class="xtick"><text text-anchor="middle" x="0" y="509" style="font-family: 'Open Sans', verdana, arial, sans-serif; font-size: 12px; fill: rgb(42, 63, 95); fill-opacity: 1; white-space: pre; opacity: 1;" transform="translate(624.37,0)">100</text></g><g class="xtick"><text text-anchor="middle" x="0" y="509" style="font-family: 'Open Sans', verdana, arial, sans-serif; font-size: 12px; fill: rgb(42, 63, 95); fill-opacity: 1; white-space: pre; opacity: 1;" transform="translate(722.22,0)">120</text></g><g class="xtick"><text text-anchor="middle" x="0" y="509" style="font-family: 'Open Sans', verdana, arial, sans-serif; font-size: 12px; fill: rgb(42, 63, 95); fill-opacity: 1; white-space: pre; opacity: 1;" transform="translate(820.07,0)">140</text></g></g><g class="yaxislayer-above"><g class="ytick"><text text-anchor="end" x="139" y="4.199999999999999" transform="translate(0,465.56)" style="font-family: 'Open Sans', verdana, arial, sans-serif; font-size: 12px; fill: rgb(42, 63, 95); fill-opacity: 1; white-space: pre; opacity: 1;">66</text></g><g class="ytick"><text text-anchor="end" x="139" y="4.199999999999999" style="font-family: 'Open Sans', verdana, arial, sans-serif; font-size: 12px; fill: rgb(42, 63, 95); fill-opacity: 1; white-space: pre; opacity: 1;" transform="translate(0,423.83)">68</text></g><g class="ytick"><text text-anchor="end" x="139" y="4.199999999999999" style="font-family: 'Open Sans', verdana, arial, sans-serif; font-size: 12px; fill: rgb(42, 63, 95); fill-opacity: 1; white-space: pre; opacity: 1;" transform="translate(0,382.09)">70</text></g><g class="ytick"><text text-anchor="end" x="139" y="4.199999999999999" style="font-family: 'Open Sans', verdana, arial, sans-serif; font-size: 12px; fill: rgb(42, 63, 95); fill-opacity: 1; white-space: pre; opacity: 1;" transform="translate(0,340.36)">72</text></g><g class="ytick"><text text-anchor="end" x="139" y="4.199999999999999" style="font-family: 'Open Sans', verdana, arial, sans-serif; font-size: 12px; fill: rgb(42, 63, 95); fill-opacity: 1; white-space: pre; opacity: 1;" transform="translate(0,298.63)">74</text></g><g class="ytick"><text text-anchor="end" x="139" y="4.199999999999999" style="font-family: 'Open Sans', verdana, arial, sans-serif; font-size: 12px; fill: rgb(42, 63, 95); fill-opacity: 1; white-space: pre; opacity: 1;" transform="translate(0,256.89)">76</text></g><g class="ytick"><text text-anchor="end" x="139" y="4.199999999999999" style="font-family: 'Open Sans', verdana, arial, sans-serif; font-size: 12px; fill: rgb(42, 63, 95); fill-opacity: 1; white-space: pre; opacity: 1;" transform="translate(0,215.16)">78</text></g><g class="ytick"><text text-anchor="end" x="139" y="4.199999999999999" style="font-family: 'Open Sans', verdana, arial, sans-serif; font-size: 12px; fill: rgb(42, 63, 95); fill-opacity: 1; white-space: pre; opacity: 1;" transform="translate(0,173.43)">80</text></g><g class="ytick"><text text-anchor="end" x="139" y="4.199999999999999" style="font-family: 'Open Sans', verdana, arial, sans-serif; font-size: 12px; fill: rgb(42, 63, 95); fill-opacity: 1; white-space: pre; opacity: 1;" transform="translate(0,131.69)">82</text></g></g><g class="overaxes-above"/></g></g><g class="polarlayer"/><g class="smithlayer"/><g class="ternarylayer"/><g class="geolayer"/><g class="funnelarealayer"/><g class="pielayer"/><g class="iciclelayer"/><g class="treemaplayer"/><g class="sunburstlayer"/><g class="glimages"/><defs id="topdefs-145570"><g class="clips"/><clipPath id="legend145570"><rect width="128" height="162" x="0" y="0"/></clipPath></defs><g class="layer-above"><g class="imagelayer"/><g class="shapelayer"/></g><g class="infolayer"><g class="legend" pointer-events="all" transform="translate(883.58,100)"><rect class="bg" shape-rendering="crispEdges" width="128" height="162" x="0" y="0" style="stroke: rgb(68, 68, 68); stroke-opacity: 1; fill: rgb(255, 255, 255); fill-opacity: 1; stroke-width: 0px;"/><g class="scrollbox" transform="" clip-path="url(#legend145570)"><g class="groups"><g class="traces" transform="translate(0,14.5)" style="opacity: 1;"><text class="legendtext" text-anchor="start" x="40" y="4.680000000000001" style="font-family: 'Open Sans', verdana, arial, sans-serif; font-size: 12px; fill: rgb(42, 63, 95); fill-opacity: 1; white-space: pre;">Train Accuracy</text><g class="layers" style="opacity: 1;"><g class="legendfill"/><g class="legendlines"><path class="js-line" d="M5,0h30" style="fill: none; stroke: rgb(255, 0, 0); stroke-opacity: 1; stroke-width: 2px;"/></g><g class="legendsymbols"><g class="legendpoints"/></g></g><rect class="legendtoggle" x="0" y="-9.5" width="122.71875" height="19" style="fill: rgb(0, 0, 0); fill-opacity: 0;"/></g><g class="traces" transform="translate(0,33.5)" style="opacity: 1;"><text class="legendtext" text-anchor="start" x="40" y="4.680000000000001" style="font-family: 'Open Sans', verdana, arial, sans-serif; font-size: 12px; fill: rgb(42, 63, 95); fill-opacity: 1; white-space: pre;">Test Accuracy</text><g class="layers" style="opacity: 1;"><g class="legendfill"/><g class="legendlines"><path class="js-line" d="M5,0h30" style="fill: none; stroke: rgb(0, 0, 255); stroke-opacity: 1; stroke-width: 2px;"/></g><g class="legendsymbols"><g class="legendpoints"/></g></g><rect class="legendtoggle" x="0" y="-9.5" width="122.71875" height="19" style="fill: rgb(0, 0, 0); fill-opacity: 0;"/></g><g class="traces" transform="translate(0,52.5)" style="opacity: 1;"><text class="legendtext" text-anchor="start" x="40" y="4.680000000000001" style="font-family: 'Open Sans', verdana, arial, sans-serif; font-size: 12px; fill: rgb(42, 63, 95); fill-opacity: 1; white-space: pre;">Train Precision</text><g class="layers" style="opacity: 1;"><g class="legendfill"/><g class="legendlines"><path class="js-line" d="M5,0h30" style="fill: none; stroke: rgb(0, 128, 0); stroke-opacity: 1; stroke-width: 2px;"/></g><g class="legendsymbols"><g class="legendpoints"/></g></g><rect class="legendtoggle" x="0" y="-9.5" width="122.71875" height="19" style="fill: rgb(0, 0, 0); fill-opacity: 0;"/></g><g class="traces" transform="translate(0,71.5)" style="opacity: 1;"><text class="legendtext" text-anchor="start" x="40" y="4.680000000000001" style="font-family: 'Open Sans', verdana, arial, sans-serif; font-size: 12px; fill: rgb(42, 63, 95); fill-opacity: 1; white-space: pre;">Test Precision</text><g class="layers" style="opacity: 1;"><g class="legendfill"/><g class="legendlines"><path class="js-line" d="M5,0h30" style="fill: none; stroke: rgb(255, 165, 0); stroke-opacity: 1; stroke-width: 2px;"/></g><g class="legendsymbols"><g class="legendpoints"/></g></g><rect class="legendtoggle" x="0" y="-9.5" width="122.71875" height="19" style="fill: rgb(0, 0, 0); fill-opacity: 0;"/></g><g class="traces" transform="translate(0,90.5)" style="opacity: 1;"><text class="legendtext" text-anchor="start" x="40" y="4.680000000000001" style="font-family: 'Open Sans', verdana, arial, sans-serif; font-size: 12px; fill: rgb(42, 63, 95); fill-opacity: 1; white-space: pre;">Train Recall</text><g class="layers" style="opacity: 1;"><g class="legendfill"/><g class="legendlines"><path class="js-line" d="M5,0h30" style="fill: none; stroke: rgb(128, 0, 128); stroke-opacity: 1; stroke-width: 2px;"/></g><g class="legendsymbols"><g class="legendpoints"/></g></g><rect class="legendtoggle" x="0" y="-9.5" width="122.71875" height="19" style="fill: rgb(0, 0, 0); fill-opacity: 0;"/></g><g class="traces" transform="translate(0,109.5)" style="opacity: 1;"><text class="legendtext" text-anchor="start" x="40" y="4.680000000000001" style="font-family: 'Open Sans', verdana, arial, sans-serif; font-size: 12px; fill: rgb(42, 63, 95); fill-opacity: 1; white-space: pre;">Test Recall</text><g class="layers" style="opacity: 1;"><g class="legendfill"/><g class="legendlines"><path class="js-line" d="M5,0h30" style="fill: none; stroke: rgb(255, 192, 203); stroke-opacity: 1; stroke-width: 2px;"/></g><g class="legendsymbols"><g class="legendpoints"/></g></g><rect class="legendtoggle" x="0" y="-9.5" width="122.71875" height="19" style="fill: rgb(0, 0, 0); fill-opacity: 0;"/></g><g class="traces" transform="translate(0,128.5)" style="opacity: 1;"><text class="legendtext" text-anchor="start" x="40" y="4.680000000000001" style="font-family: 'Open Sans', verdana, arial, sans-serif; font-size: 12px; fill: rgb(42, 63, 95); fill-opacity: 1; white-space: pre;">Train F1</text><g class="layers" style="opacity: 1;"><g class="legendfill"/><g class="legendlines"><path class="js-line" d="M5,0h30" style="fill: none; stroke: rgb(165, 42, 42); stroke-opacity: 1; stroke-width: 2px;"/></g><g class="legendsymbols"><g class="legendpoints"/></g></g><rect class="legendtoggle" x="0" y="-9.5" width="122.71875" height="19" style="fill: rgb(0, 0, 0); fill-opacity: 0;"/></g><g class="traces" transform="translate(0,147.5)" style="opacity: 1;"><text class="legendtext" text-anchor="start" x="40" y="4.680000000000001" style="font-family: 'Open Sans', verdana, arial, sans-serif; font-size: 12px; fill: rgb(42, 63, 95); fill-opacity: 1; white-space: pre;">Test F1</text><g class="layers" style="opacity: 1;"><g class="legendfill"/><g class="legendlines"><path class="js-line" d="M5,0h30" style="fill: none; stroke: rgb(128, 128, 128); stroke-opacity: 1; stroke-width: 2px;"/></g><g class="legendsymbols"><g class="legendpoints"/></g></g><rect class="legendtoggle" x="0" y="-9.5" width="122.71875" height="19" style="fill: rgb(0, 0, 0); fill-opacity: 0;"/></g></g></g><rect class="scrollbar" rx="20" ry="3" width="0" height="0" x="0" y="0" style="fill: rgb(128, 139, 164); fill-opacity: 1;"/></g><g class="g-gtitle"><text class="gtitle" x="51.2" y="50" text-anchor="start" dy="0em" style="font-family: 'Open Sans', verdana, arial, sans-serif; font-size: 17px; fill: rgb(42, 63, 95); opacity: 1; font-weight: normal; white-space: pre;">Training Metrics - logs/FakeNewsNet-gossipcop_max-vocab=15000_pre=v2_domain_T=50_s=15.log</text></g><g class="g-xtitle"><text class="xtitle" x="504.5" y="537.3" text-anchor="middle" style="font-family: 'Open Sans', verdana, arial, sans-serif; font-size: 14px; fill: rgb(42, 63, 95); opacity: 1; font-weight: normal; white-space: pre;">Epoch</text></g><g class="g-ytitle"><text class="ytitle" transform="rotate(-90,100.965625,298)" x="100.965625" y="298" text-anchor="middle" style="font-family: 'Open Sans', verdana, arial, sans-serif; font-size: 14px; fill: rgb(42, 63, 95); opacity: 1; font-weight: normal; white-space: pre;">Metric Score</text></g></g><g class="menulayer"><g class="updatemenu-container" style="cursor: pointer;"><g class="updatemenu-header-group" transform="translate(12,60)"><g class="updatemenu-header" transform="translate(1,1)" style="pointer-events: all;"><rect class="updatemenu-item-rect" rx="2" ry="2" shape-rendering="crispEdges" x="0" y="0" width="164" height="33" style="stroke: rgb(190, 200, 217); stroke-opacity: 1; fill: rgb(255, 255, 255); fill-opacity: 1; stroke-width: 1px;"/><text class="updatemenu-item-text" text-anchor="start" data-notex="1" x="12" y="19.5" style="font-family: 'Open Sans', verdana, arial, sans-serif; font-size: 12px; fill: rgb(42, 63, 95); fill-opacity: 1; white-space: pre;">All</text></g><text class="updatemenu-header-arrow" text-anchor="end" x="160" y="19.5" style="font-family: 'Open Sans', verdana, arial, sans-serif; font-size: 12px; fill: rgb(42, 63, 95); fill-opacity: 1;">▼</text></g><g class="updatemenu-dropdown-button-group" updatemenu-active-index="-1" style="pointer-events: all;"><rect class="scrollbox-bg" opacity="0" x="0" y="0" width="0" height="0" style="pointer-events: all;"/></g></g></g></svg>