<svg class="main-svg" xmlns="http://www.w3.org/2000/svg" xmlns:xlink="http://www.w3.org/1999/xlink" width="1024" height="576" style="" viewBox="0 0 1024 576"><rect x="0" y="0" width="1024" height="576" style="fill: rgb(255, 255, 255); fill-opacity: 1;"/><defs id="defs-40b5d0"><g class="clips"><clipPath id="clip40b5d0xyplot" class="plotclip"><rect width="726" height="396"/></clipPath><clipPath class="axesclip" id="clip40b5d0x"><rect x="143" y="0" width="726" height="576"/></clipPath><clipPath class="axesclip" id="clip40b5d0y"><rect x="0" y="100" width="1024" height="396"/></clipPath><clipPath class="axesclip" id="clip40b5d0xy"><rect x="143" y="100" width="726" height="396"/></clipPath></g><g class="gradients"/><g class="patterns"/></defs><g class="bglayer"><rect class="bg" x="143" y="100" width="726" height="396" style="fill: rgb(229, 236, 246); fill-opacity: 1; stroke-width: 0;"/></g><g class="layer-below"><g class="imagelayer"/><g class="shapelayer"/></g><g class="cartesianlayer"><g class="subplot xy"><g class="layer-subplot"><g class="shapelayer"/><g class="imagelayer"/></g><g class="minor-gridlayer"><g class="x"/><g class="y"/></g><g class="gridlayer"><g class="x"><path class="xgrid crisp" transform="translate(235.57999999999998,0)" d="M0,100v396" style="stroke: rgb(255, 255, 255); stroke-opacity: 1; stroke-width: 1px;"/><path class="xgrid crisp" transform="translate(333.03,0)" d="M0,100v396" style="stroke: rgb(255, 255, 255); stroke-opacity: 1; stroke-width: 1px;"/><path class="xgrid crisp" transform="translate(430.48,0)" d="M0,100v396" style="stroke: rgb(255, 255, 255); stroke-opacity: 1; stroke-width: 1px;"/><path class="xgrid crisp" transform="translate(527.9300000000001,0)" d="M0,100v396" style="stroke: rgb(255, 255, 255); stroke-opacity: 1; stroke-width: 1px;"/><path class="xgrid crisp" transform="translate(625.38,0)" d="M0,100v396" style="stroke: rgb(255, 255, 255); stroke-opacity: 1; stroke-width: 1px;"/><path class="xgrid crisp" transform="translate(722.83,0)" d="M0,100v396" style="stroke: rgb(255, 255, 255); stroke-opacity: 1; stroke-width: 1px;"/><path class="xgrid crisp" transform="translate(820.28,0)" d="M0,100v396" style="stroke: rgb(255, 255, 255); stroke-opacity: 1; stroke-width: 1px;"/></g><g class="y"><path class="ygrid crisp" transform="translate(0,458.18)" d="M143,0h726" style="stroke: rgb(255, 255, 255); stroke-opacity: 1; stroke-width: 1px;"/><path class="ygrid crisp" transform="translate(0,417.21)" d="M143,0h726" style="stroke: rgb(255, 255, 255); stroke-opacity: 1; stroke-width: 1px;"/><path class="ygrid crisp" transform="translate(0,376.24)" d="M143,0h726" style="stroke: rgb(255, 255, 255); stroke-opacity: 1; stroke-width: 1px;"/><path class="ygrid crisp" transform="translate(0,335.28)" d="M143,0h726" style="stroke: rgb(255, 255, 255); stroke-opacity: 1; stroke-width: 1px;"/><path class="ygrid crisp" transform="translate(0,294.31)" d="M143,0h726" style="stroke: rgb(255, 255, 255); stroke-opacity: 1; stroke-width: 1px;"/><path class="ygrid crisp" transform="translate(0,253.35)" d="M143,0h726" style="stroke: rgb(255, 255, 255); stroke-opacity: 1; stroke-width: 1px;"/><path class="ygrid crisp" transform="translate(0,212.38)" d="M143,0h726" style="stroke: rgb(255, 255, 255); stroke-opacity: 1; stroke-width: 1px;"/><path class="ygrid crisp" transform="translate(0,171.42000000000002)" d="M143,0h726" style="stroke: rgb(255, 255, 255); stroke-opacity: 1; stroke-width: 1px;"/><path class="ygrid crisp" transform="translate(0,130.45)" d="M143,0h726" style="stroke: rgb(255, 255, 255); stroke-opacity: 1; stroke-width: 1px;"/></g></g><g class="zerolinelayer"/><path class="xlines-below"/><path class="ylines-below"/><g class="overlines-below"/><g class="xaxislayer-below"/><g class="yaxislayer-below"/><g class="overaxes-below"/><g class="plot" transform="translate(143,100)" clip-path="url(#clip40b5d0xyplot)"><g class="scatterlayer mlayer"><g class="trace scatter tracec18115" style="stroke-miterlimit: 2; opacity: 1;"><g class="fills"/><g class="errorbars"/><g class="lines"><path class="js-line" d="M0,321.31L4.87,224.42L9.74,195.13L14.62,159.7L19.49,146.59L24.36,129.79L29.23,122.01L34.11,114.23L38.98,124.47L43.85,96.82L48.72,76.33L53.6,75.92L58.47,93.54L63.34,95.59L68.21,78.18L73.09,73.26L77.96,77.77L82.83,75.92L87.7,75.72L92.58,66.5L97.45,67.12L102.32,75.72L107.19,76.54L112.07,81.66L116.94,69.78L121.81,80.43L126.68,86.98L136.43,105.42L141.3,94.36L151.05,65.48L155.92,61.38L160.79,69.78L165.66,65.48L170.54,75.1L175.41,82.68L180.28,80.02L185.15,68.75L190.03,52.98L194.9,54.01L199.77,66.91L204.64,48.68L209.52,45.4L214.39,48.68L219.26,45.61L224.13,49.09L229.01,47.04L233.88,50.11L238.75,58.51L243.62,61.99L248.5,52.78L253.37,59.95L258.24,58.31L263.11,58.1L267.99,64.86L272.86,61.99L277.73,54.42L282.6,58.51L287.48,61.18L292.35,59.33L297.22,57.69L302.09,58.51L306.97,67.93L311.84,64.45L316.71,72.85L321.58,74.9L326.46,70.39L331.33,72.44L341.07,78.18L345.95,64.04L350.82,64.66L355.69,55.44L360.56,56.26L365.44,64.86L370.31,68.34L375.18,59.74L380.05,48.48L384.93,62.2L389.8,58.51L394.67,58.72L399.54,54.01L404.42,60.56L409.29,65.27L414.16,58.92L419.03,54.62L423.91,48.68L428.78,57.9L433.65,63.84L438.52,60.36L443.4,67.32L448.27,71.21L453.14,66.3L458.01,70.6L462.89,76.54L467.76,76.13L472.63,63.84L477.5,64.86L482.38,56.67L487.25,56.26L492.12,60.77L496.99,71.21L501.87,65.07L506.74,64.04L511.61,71.21L516.48,69.37L521.36,62.4L526.23,66.91L531.1,62.2L535.97,55.03L540.85,54.42L545.72,61.99L550.59,59.33L555.46,57.28L560.34,63.22L570.08,55.24L574.95,64.25L579.83,64.25L584.7,62.81L589.57,57.69L594.44,53.8L599.32,56.26L604.19,61.38L609.06,49.09L613.93,59.33L623.68,49.5L628.55,60.56L633.42,62.61L638.3,67.32L643.17,67.12L648.04,62.2L652.91,58.92L657.79,65.68L662.66,66.91L667.53,64.04L672.4,57.9L677.28,61.58L682.15,64.86L687.02,66.09L691.89,56.67L696.77,54.01L701.64,50.73L706.51,60.36L711.38,59.95L716.26,60.77L721.13,60.36L726,63.02" style="vector-effect: none; fill: none; stroke: rgb(255, 0, 0); stroke-opacity: 1; stroke-width: 2px; opacity: 1;"/></g><g class="points"/><g class="text"/></g><g class="trace scatter traceca7eef" style="stroke-miterlimit: 2; opacity: 1;"><g class="fills"/><g class="errorbars"/><g class="lines"><path class="js-line" d="M0,328.68L4.87,245.93L9.74,204.76L14.62,189.4L19.49,164.41L24.36,149.25L29.23,151.09L34.11,154.78L38.98,162.56L43.85,146.38L48.72,110.33L53.6,122.01L58.47,127.54L63.34,119.55L68.21,115.86L73.09,116.89L77.96,125.08L82.83,115.04L87.7,113.61L92.58,106.24L97.45,104.8L102.32,90.88L107.19,102.55L112.07,96.41L116.94,97.43L121.81,103.37L126.68,112.59L131.56,115.86L136.43,126.52L146.17,105.21L151.05,104.39L155.92,96.41L160.79,107.06L165.66,98.25L170.54,102.55L175.41,123.85L180.28,113.2L185.15,114.02L190.03,88.21L194.9,91.28L199.77,98.86L204.64,87.19L209.52,82.68L214.39,87.6L219.26,79.81L224.13,69.57L229.01,77.97L233.88,79.4L238.75,85.75L243.62,80.22L248.5,81.25L253.37,84.94L258.24,92.31L263.11,95.59L267.99,101.12L272.86,97.43L277.73,84.94L282.6,84.53L287.48,82.68L292.35,84.94L297.22,86.37L302.09,80.84L306.97,83.5L311.84,87.19L316.71,78.38L321.58,90.88L326.46,84.53L331.33,92.31L336.2,95.59L341.07,100.71L345.95,82.07L350.82,84.53L355.69,80.84L360.56,90.47L365.44,90.47L370.31,88.21L375.18,82.68L380.05,77.97L384.93,83.09L389.8,83.91L394.67,81.66L399.54,85.34L404.42,83.09L409.29,85.75L414.16,80.84L419.03,82.68L423.91,69.16L433.65,85.75L438.52,82.68L443.4,90.47L448.27,96L453.14,88.21L458.01,91.9L462.89,92.31L467.76,109.92L472.63,97.84L477.5,89.44L482.38,85.75L487.25,88.21L492.12,92.31L496.99,94.15L501.87,93.33L506.74,96L511.61,97.84L516.48,101.12L521.36,89.03L526.23,88.21L531.1,81.66L535.97,84.53L540.85,86.37L545.72,94.56L555.46,85.34L560.34,88.62L565.21,89.44L570.08,84.53L574.95,86.78L579.83,84.94L584.7,83.91L589.57,73.87L594.44,76.54L599.32,81.25L604.19,102.96L609.06,84.94L613.93,92.72L618.81,79.81L623.68,80.22L628.55,84.94L633.42,91.28L638.3,83.09L643.17,90.88L648.04,88.62L652.91,89.03L657.79,96L662.66,92.72L667.53,96.41L672.4,89.03L677.28,95.18L682.15,88.21L687.02,89.44L691.89,85.34L696.77,80.22L701.64,77.56L706.51,82.68L711.38,92.31L716.26,93.74L721.13,90.47L726,82.07" style="vector-effect: none; fill: none; stroke: rgb(0, 0, 255); stroke-opacity: 1; stroke-width: 2px; opacity: 1;"/></g><g class="points"/><g class="text"/></g><g class="trace scatter trace5d10d5" style="stroke-miterlimit: 2; opacity: 1;"><g class="fills"/><g class="errorbars"/><g class="lines"><path class="js-line" d="M0,304.1L4.87,262.73L9.74,236.1L19.49,208.65L24.36,198.82L29.23,194.31L34.11,193.49L38.98,194.72L43.85,182.43L48.72,173.63L53.6,169.53L58.47,176.49L63.34,173.83L68.21,164.61L73.09,165.23L77.96,166.66L82.83,166.05L87.7,164.61L92.58,164.41L97.45,164L102.32,164.82L107.19,165.23L112.07,167.48L116.94,158.88L121.81,166.05L126.68,167.48L131.56,165.43L136.43,171.58L141.3,166.46L146.17,163.18L151.05,154.58L155.92,152.32L160.79,159.08L165.66,157.65L170.54,162.16L175.41,158.67L180.28,158.06L185.15,152.32L190.03,145.36L194.9,148.02L199.77,152.12L204.64,140.03L209.52,140.85L214.39,144.54L219.26,143.11L224.13,145.97L229.01,143.31L238.75,151.71L243.62,150.07L248.5,144.54L253.37,150.07L258.24,148.64L263.11,148.64L267.99,150.68L272.86,149.87L277.73,147.41L282.6,149.66L287.48,153.76L292.35,151.3L297.22,151.71L302.09,153.14L306.97,158.26L311.84,153.55L316.71,156.62L321.58,158.26L326.46,156.01L331.33,158.26L336.2,158.06L341.07,159.08L345.95,151.09L350.82,151.91L355.69,145.56L360.56,144.54L370.31,151.5L375.18,149.87L380.05,141.67L384.93,149.87L389.8,145.36L394.67,146.38L399.54,145.36L404.42,149.87L409.29,153.14L414.16,148.02L419.03,145.97L423.91,142.49L428.78,147.2L433.65,149.25L438.52,147.2L443.4,151.71L448.27,152.94L453.14,150.48L462.89,156.42L467.76,155.4L472.63,150.28L477.5,151.71L482.38,146.18L487.25,145.56L492.12,147.41L496.99,152.53L501.87,149.87L506.74,148.64L511.61,153.14L516.48,149.25L521.36,147.82L526.23,150.68L531.1,148.02L535.97,143.52L540.85,146.18L545.72,147.82L550.59,145.56L555.46,145.36L560.34,149.25L565.21,147.82L570.08,146.18L574.95,150.28L579.83,151.91L584.7,150.89L589.57,149.46L594.44,146.38L599.32,148.64L604.19,149.46L609.06,144.54L613.93,149.87L618.81,146.18L623.68,144.13L628.55,148.23L633.42,150.68L638.3,155.19L643.17,153.55L652.91,147.82L657.79,150.07L662.66,151.3L667.53,149.66L672.4,147L677.28,150.07L687.02,150.68L691.89,146.59L696.77,145.15L701.64,142.7L706.51,148.84L711.38,148.64L721.13,148.23L726,149.87" style="vector-effect: none; fill: none; stroke: rgb(0, 128, 0); stroke-opacity: 1; stroke-width: 2px; opacity: 1;"/></g><g class="points"/><g class="text"/></g><g class="trace scatter tracea29e5d" style="stroke-miterlimit: 2; opacity: 1;"><g class="fills"/><g class="errorbars"/><g class="lines"><path class="js-line" d="M0,300L4.87,276.65L9.74,240.4L14.62,241.63L19.49,213.36L24.36,207.42L29.23,212.54L34.11,225.04L38.98,223.19L43.85,224.63L48.72,203.74L53.6,212.95L58.47,208.45L63.34,196.77L68.21,195.95L73.09,202.1L77.96,203.94L82.83,199.84L87.7,198.2L92.58,196.57L97.45,191.45L102.32,173.01L107.19,178.54L112.07,175.26L116.94,180.38L121.81,183.05L126.68,181.41L131.56,180.18L136.43,186.32L146.17,182.23L151.05,182.84L155.92,181.41L160.79,192.67L170.54,183.66L175.41,194.31L180.28,188.37L185.15,187.14L190.03,171.99L194.9,179.77L199.77,176.7L204.64,169.53L209.52,168.1L214.39,176.9L224.13,161.75L229.01,164.41L233.88,170.14L238.75,174.24L243.62,165.64L248.5,168.1L253.37,170.35L258.24,176.49L263.11,179.36L267.99,178.13L272.86,174.65L277.73,169.32L282.6,171.17L287.48,171.17L292.35,172.6L297.22,175.47L302.09,170.35L306.97,169.94L311.84,175.67L316.71,163.38L321.58,169.53L326.46,167.48L336.2,174.65L341.07,175.47L345.95,164.2L350.82,166.66L355.69,165.23L360.56,171.17L365.44,166.87L370.31,164.82L375.18,166.25L380.05,164.41L384.93,166.66L389.8,166.05L394.67,163.79L399.54,170.76L404.42,164L409.29,163.79L414.16,158.26L419.03,162.16L423.91,156.22L428.78,160.52L433.65,161.13L438.52,157.24L443.4,166.87L448.27,170.35L453.14,162.77L458.01,164.61L462.89,163.79L467.76,176.7L472.63,172.19L477.5,170.55L482.38,166.87L487.25,169.73L492.12,171.99L496.99,170.35L516.48,173.01L521.36,166.05L526.23,163.59L531.1,157.65L535.97,163.18L540.85,170.14L545.72,173.42L550.59,170.96L560.34,167.28L565.21,175.26L570.08,168.91L574.95,169.94L579.83,169.32L584.7,166.46L589.57,161.13L594.44,164L599.32,170.55L604.19,183.05L609.06,174.85L613.93,176.9L618.81,166.46L623.68,166.66L633.42,171.37L638.3,164L643.17,170.76L648.04,168.5L652.91,173.42L657.79,176.08L662.66,174.85L667.53,176.08L672.4,174.44L677.28,177.52L682.15,171.99L687.02,172.6L696.77,165.64L701.64,165.64L706.51,168.1L711.38,175.06L716.26,175.47L721.13,170.35L726,162.97" style="vector-effect: none; fill: none; stroke: rgb(255, 165, 0); stroke-opacity: 1; stroke-width: 2px; opacity: 1;"/></g><g class="points"/><g class="text"/></g><g class="trace scatter trace8d2579" style="stroke-miterlimit: 2; opacity: 1;"><g class="fills"/><g class="errorbars"/><g class="lines"><path class="js-line" d="M0,223.81L4.87,168.91L9.74,133.07L14.62,118.53L19.49,99.48L24.36,88.21L29.23,83.09L34.11,84.53L38.98,83.09L43.85,72.65L48.72,66.3L53.6,59.13L58.47,63.63L63.34,58.1L68.21,49.3L73.09,52.78L77.96,53.39L82.83,53.19L87.7,50.52L92.58,55.03L97.45,53.8L102.32,50.93L107.19,51.14L112.07,52.98L116.94,43.36L121.81,50.73L126.68,50.52L131.56,43.97L136.43,50.93L141.3,46.02L146.17,46.63L151.05,37.62L155.92,35.37L160.79,43.56L165.66,42.95L170.54,46.63L175.41,37.21L180.28,37.42L185.15,32.09L190.03,27.17L194.9,31.68L199.77,32.7L204.64,19.8L209.52,23.08L214.39,28.2L219.26,27.58L224.13,30.66L229.01,26.76L233.88,32.7L238.75,36.19L243.62,31.07L248.5,25.94L253.37,32.09L258.24,30.45L263.11,30.66L267.99,31.07L272.86,30.66L277.73,30.25L282.6,32.09L287.48,38.23L292.35,34.96L297.22,36.39L302.09,38.85L306.97,43.15L311.84,36.39L316.71,37.62L321.58,39.67L326.46,37.62L331.33,40.9L336.2,39.05L341.07,39.87L345.95,31.88L350.82,33.32L355.69,26.56L360.56,24.1L365.44,26.56L370.31,30.86L375.18,31.88L380.05,23.08L384.93,30.66L389.8,24.51L394.67,26.35L399.54,26.76L404.42,31.68L409.29,35.16L414.16,29.22L419.03,27.38L423.91,24.51L428.78,27.99L433.65,28.81L438.52,26.76L443.4,31.68L448.27,32.09L453.14,29.84L458.01,32.7L462.89,35.78L467.76,34.34L472.63,30.66L477.5,32.7L482.38,27.17L487.25,25.94L492.12,26.97L496.99,31.48L506.74,27.58L511.61,32.5L516.48,26.35L521.36,26.76L526.23,30.04L531.1,27.38L535.97,22.87L540.85,28.2L545.72,27.17L550.59,24.51L555.46,25.13L560.34,29.02L570.08,27.79L574.95,30.45L579.83,33.52L584.7,32.29L589.57,32.29L594.44,29.02L599.32,31.48L604.19,30.45L609.06,27.79L613.93,32.09L618.81,28.2L623.68,27.17L628.55,28.61L633.42,32.09L638.3,37.82L643.17,34.96L652.91,28.81L657.79,29.63L662.66,30.86L667.53,29.63L672.4,27.58L677.28,31.48L687.02,30.45L691.89,27.58L696.77,26.56L701.64,23.69L706.51,30.04L711.38,29.43L721.13,28.81L726,30.45" style="vector-effect: none; fill: none; stroke: rgb(128, 0, 128); stroke-opacity: 1; stroke-width: 2px; opacity: 1;"/></g><g class="points"/><g class="text"/></g><g class="trace scatter trace4b9f68" style="stroke-miterlimit: 2; opacity: 1;"><g class="fills"/><g class="errorbars"/><g class="lines"><path class="js-line" d="M0,219.51L4.87,187.76L9.74,139.01L14.62,142.7L19.49,103.98L24.36,97.84L29.23,105.62L34.11,124.47L38.98,119.96L43.85,126.31L48.72,104.39L53.6,115.25L58.47,105.83L63.34,88.83L68.21,89.03L73.09,98.86L77.96,99.07L82.83,95.59L87.7,93.54L92.58,93.74L97.45,85.75L102.32,59.54L107.19,64.45L112.07,61.18L116.94,69.78L121.81,71.62L126.68,65.89L131.56,62.81L136.43,69.98L141.3,69.16L146.17,69.57L151.05,71.01L155.92,71.62L160.79,86.57L165.66,82.07L170.54,73.06L175.41,83.71L180.28,77.36L185.15,74.69L190.03,58.92L194.9,71.01L204.64,55.03L209.52,54.62L214.39,67.93L219.26,58.1L224.13,49.5L229.01,50.32L233.88,59.74L238.75,64.04L243.62,51.14L248.5,55.03L253.37,57.49L258.24,65.07L263.11,68.55L267.99,64.25L277.73,55.64L282.6,59.13L292.35,61.38L297.22,65.68L302.09,59.33L306.97,57.28L311.84,65.68L316.71,48.07L321.58,53.6L326.46,52.57L331.33,55.85L336.2,60.56L341.07,59.95L345.95,47.86L350.82,51.34L355.69,50.11L360.56,56.67L365.44,49.3L370.31,46.63L375.18,51.34L380.05,50.32L384.93,51.75L389.8,50.32L394.67,47.45L399.54,57.9L404.42,47.04L409.29,45.61L414.16,38.44L419.03,44.17L423.91,39.87L428.78,43.76L433.65,41.1L438.52,35.78L443.4,49.3L448.27,52.98L453.14,43.36L458.01,44.99L462.89,43.36L467.76,58.92L472.63,55.64L477.5,56.05L482.38,50.93L487.25,55.03L492.12,57.08L496.99,53.8L501.87,55.24L516.48,55.85L521.36,48.48L526.23,44.58L531.1,37.01L535.97,45.4L540.85,56.46L545.72,58.72L550.59,56.26L555.46,54.62L560.34,50.73L565.21,63.84L570.08,55.24L574.95,56.05L579.83,55.64L589.57,46.22L594.44,50.11L599.32,59.74L604.19,72.03L609.06,65.48L613.93,65.27L618.81,52.78L623.68,53.19L633.42,56.46L638.3,47.04L643.17,55.64L648.04,52.78L652.91,60.97L657.79,62.81L662.66,61.99L667.53,62.61L672.4,62.81L677.28,65.48L682.15,58.92L687.02,59.33L696.77,51.14L701.64,52.57L706.51,54.62L711.38,62.4L716.26,62.61L721.13,55.24L726,45.81" style="vector-effect: none; fill: none; stroke: rgb(255, 192, 203); stroke-opacity: 1; stroke-width: 2px; opacity: 1;"/></g><g class="points"/><g class="text"/></g><g class="trace scatter trace3d6d8f" style="stroke-miterlimit: 2; opacity: 1;"><g class="fills"/><g class="errorbars"/><g class="lines"><path class="js-line" d="M0,373.33L4.87,294.88L9.74,264.16L14.62,236.92L19.49,221.96L24.36,207.42L29.23,200.66L34.11,196.36L38.98,202.1L43.85,181L48.72,165.64L53.6,162.77L58.47,175.47L63.34,174.85L68.21,160.52L73.09,158.67L77.96,161.75L87.7,159.29L92.58,155.19L97.45,155.19L102.32,159.49L107.19,160.11L112.07,164L116.94,152.94L121.81,162.56L131.56,170.14L136.43,178.75L146.17,159.9L151.05,148.02L155.92,144.54L160.79,152.94L165.66,150.07L170.54,157.44L175.41,159.08L180.28,157.44L185.15,148.23L190.03,136.14L194.9,138.4L199.77,147.2L204.64,130.61L209.52,129.79L214.39,133.68L219.26,131.43L224.13,134.91L229.01,132.25L233.88,136.35L238.75,143.11L243.62,143.52L248.5,135.53L253.37,142.49L258.24,140.85L263.11,140.65L267.99,145.15L272.86,143.31L277.73,138.19L287.48,145.56L292.35,143.11L297.22,142.7L302.09,143.93L306.97,151.71L311.84,147L316.71,152.73L321.58,154.78L326.46,151.3L331.33,153.76L341.07,157.03L345.95,145.15L350.82,145.97L355.69,137.58L360.56,137.17L365.44,143.72L370.31,147.41L375.18,142.29L380.05,131.64L384.93,143.31L389.8,138.8L394.67,139.62L399.54,136.55L404.42,142.7L409.29,147.2L414.16,140.65L419.03,137.37L423.91,132.25L428.78,139.62L433.65,143.72L438.52,140.85L443.4,147.2L448.27,149.87L453.14,145.77L458.01,149.66L462.89,154.58L467.76,153.76L472.63,144.34L477.5,145.77L482.38,138.4L487.25,137.99L492.12,141.06L496.99,149.46L501.87,144.95L506.74,143.52L511.61,149.87L516.48,146.59L521.36,142.08L526.23,146.18L531.1,142.08L535.97,135.94L540.85,137.37L545.72,142.08L550.59,139.21L555.46,138.19L560.34,143.52L570.08,137.78L574.95,144.74L579.83,145.77L584.7,144.34L594.44,137.37L599.32,139.83L604.19,142.7L609.06,133.89L613.93,142.08L618.81,137.58L623.68,133.89L628.55,141.47L633.42,144.34L638.3,149.25L643.17,148.23L648.04,143.72L652.91,140.65L657.79,145.36L662.66,146.59L667.53,144.34L672.4,139.62L677.28,143.31L682.15,145.15L687.02,145.77L691.89,138.6L696.77,136.55L701.64,133.48L706.51,141.88L711.38,141.47L716.26,141.88L721.13,141.47L726,143.72" style="vector-effect: none; fill: none; stroke: rgb(165, 42, 42); stroke-opacity: 1; stroke-width: 2px; opacity: 1;"/></g><g class="points"/><g class="text"/></g><g class="trace scatter trace744d65" style="stroke-miterlimit: 2; opacity: 1;"><g class="fills"/><g class="errorbars"/><g class="lines"><path class="js-line" d="M0,376.2L4.87,313.93L9.74,271.53L14.62,263.54L19.49,234.25L24.36,222.37L29.23,226.47L34.11,235.69L38.98,238.76L43.85,231.18L48.72,201.07L53.6,212.34L58.47,211.93L63.34,200.66L68.21,198.41L73.09,202.71L77.96,208.04L82.83,200.46L87.7,198.61L97.45,190.22L102.32,171.78L107.19,181L112.07,175.88L121.81,184.07L126.68,187.96L131.56,188.99L136.43,198.2L146.17,184.69L151.05,184.48L155.92,179.77L160.79,192.06L165.66,184.89L170.54,184.07L175.41,201.48L180.28,192.47L185.15,192.06L190.03,169.94L194.9,176.29L199.77,177.93L204.64,167.89L209.52,164.82L214.39,172.81L219.26,164.2L224.13,154.58L229.01,160.11L233.88,164.61L238.75,170.35L243.62,161.95L248.5,164L253.37,167.28L258.24,174.65L263.11,177.93L267.99,179.98L272.86,176.08L277.73,166.46L282.6,167.48L287.48,166.66L297.22,171.17L302.09,165.23L306.97,166.25L311.84,171.78L316.71,159.7L321.58,169.73L326.46,165.23L331.33,171.37L341.07,178.13L345.95,161.95L350.82,164.61L355.69,161.95L360.56,170.35L365.44,167.89L375.18,163.59L380.05,160.11L384.93,164L389.8,164L394.67,161.54L399.54,167.69L404.42,162.36L409.29,163.59L414.16,157.65L419.03,160.93L423.91,150.68L428.78,157.24L433.65,161.95L438.52,157.85L443.4,167.89L448.27,172.81L453.14,164.2L458.01,167.28L462.89,166.87L467.76,183.66L472.63,174.85L477.5,169.53L482.38,165.43L487.25,168.5L492.12,171.78L496.99,171.78L501.87,171.78L506.74,173.63L511.61,174.85L516.48,176.9L521.36,166.66L526.23,164.61L531.1,157.85L535.97,162.56L545.72,173.83L550.59,169.94L555.46,166.46L560.34,167.07L565.21,172.6L570.08,166.05L574.95,167.89L579.83,166.46L584.7,164.2L589.57,156.01L594.44,159.08L599.32,165.64L604.19,184.07L609.06,170.14L613.93,175.06L618.81,162.36L623.68,162.77L628.55,166.25L633.42,170.96L638.3,162.36L643.17,170.35L648.04,167.89L652.91,171.17L657.79,176.29L662.66,173.83L667.53,176.49L672.4,171.78L677.28,176.7L682.15,169.94L687.02,170.76L696.77,161.95L701.64,160.72L706.51,164.82L711.38,173.83L716.26,174.65L721.13,169.94L726,161.13" style="vector-effect: none; fill: none; stroke: rgb(128, 128, 128); stroke-opacity: 1; stroke-width: 2px; opacity: 1;"/></g><g class="points"/><g class="text"/></g></g></g><g class="overplot"/><path class="xlines-above crisp" d="M0,0" style="fill: none;"/><path class="ylines-above crisp" d="M0,0" style="fill: none;"/><g class="overlines-above"/><g class="xaxislayer-above"><g class="xtick"><text text-anchor="middle" x="0" y="509" transform="translate(235.57999999999998,0)" style="font-family: 'Open Sans', verdana, arial, sans-serif; font-size: 12px; fill: rgb(42, 63, 95); fill-opacity: 1; white-space: pre; opacity: 1;">20</text></g><g class="xtick"><text text-anchor="middle" x="0" y="509" style="font-family: 'Open Sans', verdana, arial, sans-serif; font-size: 12px; fill: rgb(42, 63, 95); fill-opacity: 1; white-space: pre; opacity: 1;" transform="translate(333.03,0)">40</text></g><g class="xtick"><text text-anchor="middle" x="0" y="509" style="font-family: 'Open Sans', verdana, arial, sans-serif; font-size: 12px; fill: rgb(42, 63, 95); fill-opacity: 1; white-space: pre; opacity: 1;" transform="translate(430.48,0)">60</text></g><g class="xtick"><text text-anchor="middle" x="0" y="509" style="font-family: 'Open Sans', verdana, arial, sans-serif; font-size: 12px; fill: rgb(42, 63, 95); fill-opacity: 1; white-space: pre; opacity: 1;" transform="translate(527.9300000000001,0)">80</text></g><g class="xtick"><text text-anchor="middle" x="0" y="509" style="font-family: 'Open Sans', verdana, arial, sans-serif; font-size: 12px; fill: rgb(42, 63, 95); fill-opacity: 1; white-space: pre; opacity: 1;" transform="translate(625.38,0)">100</text></g><g class="xtick"><text text-anchor="middle" x="0" y="509" style="font-family: 'Open Sans', verdana, arial, sans-serif; font-size: 12px; fill: rgb(42, 63, 95); fill-opacity: 1; white-space: pre; opacity: 1;" transform="translate(722.83,0)">120</text></g><g class="xtick"><text text-anchor="middle" x="0" y="509" style="font-family: 'Open Sans', verdana, arial, sans-serif; font-size: 12px; fill: rgb(42, 63, 95); fill-opacity: 1; white-space: pre; opacity: 1;" transform="translate(820.28,0)">140</text></g></g><g class="yaxislayer-above"><g class="ytick"><text text-anchor="end" x="142" y="4.199999999999999" transform="translate(0,458.18)" style="font-family: 'Open Sans', verdana, arial, sans-serif; font-size: 12px; fill: rgb(42, 63, 95); fill-opacity: 1; white-space: pre; opacity: 1;">58</text></g><g class="ytick"><text text-anchor="end" x="142" y="4.199999999999999" style="font-family: 'Open Sans', verdana, arial, sans-serif; font-size: 12px; fill: rgb(42, 63, 95); fill-opacity: 1; white-space: pre; opacity: 1;" transform="translate(0,417.21)">60</text></g><g class="ytick"><text text-anchor="end" x="142" y="4.199999999999999" style="font-family: 'Open Sans', verdana, arial, sans-serif; font-size: 12px; fill: rgb(42, 63, 95); fill-opacity: 1; white-space: pre; opacity: 1;" transform="translate(0,376.24)">62</text></g><g class="ytick"><text text-anchor="end" x="142" y="4.199999999999999" style="font-family: 'Open Sans', verdana, arial, sans-serif; font-size: 12px; fill: rgb(42, 63, 95); fill-opacity: 1; white-space: pre; opacity: 1;" transform="translate(0,335.28)">64</text></g><g class="ytick"><text text-anchor="end" x="142" y="4.199999999999999" style="font-family: 'Open Sans', verdana, arial, sans-serif; font-size: 12px; fill: rgb(42, 63, 95); fill-opacity: 1; white-space: pre; opacity: 1;" transform="translate(0,294.31)">66</text></g><g class="ytick"><text text-anchor="end" x="142" y="4.199999999999999" style="font-family: 'Open Sans', verdana, arial, sans-serif; font-size: 12px; fill: rgb(42, 63, 95); fill-opacity: 1; white-space: pre; opacity: 1;" transform="translate(0,253.35)">68</text></g><g class="ytick"><text text-anchor="end" x="142" y="4.199999999999999" style="font-family: 'Open Sans', verdana, arial, sans-serif; font-size: 12px; fill: rgb(42, 63, 95); fill-opacity: 1; white-space: pre; opacity: 1;" transform="translate(0,212.38)">70</text></g><g class="ytick"><text text-anchor="end" x="142" y="4.199999999999999" style="font-family: 'Open Sans', verdana, arial, sans-serif; font-size: 12px; fill: rgb(42, 63, 95); fill-opacity: 1; white-space: pre; opacity: 1;" transform="translate(0,171.42000000000002)">72</text></g><g class="ytick"><text text-anchor="end" x="142" y="4.199999999999999" style="font-family: 'Open Sans', verdana, arial, sans-serif; font-size: 12px; fill: rgb(42, 63, 95); fill-opacity: 1; white-space: pre; opacity: 1;" transform="translate(0,130.45)">74</text></g></g><g class="overaxes-above"/></g></g><g class="polarlayer"/><g class="smithlayer"/><g class="ternarylayer"/><g class="geolayer"/><g class="funnelarealayer"/><g class="pielayer"/><g class="iciclelayer"/><g class="treemaplayer"/><g class="sunburstlayer"/><g class="glimages"/><defs id="topdefs-40b5d0"><g class="clips"/><clipPath id="legend40b5d0"><rect width="128" height="162" x="0" y="0"/></clipPath></defs><g class="layer-above"><g class="imagelayer"/><g class="shapelayer"/></g><g class="infolayer"><g class="legend" pointer-events="all" transform="translate(883.52,100)"><rect class="bg" shape-rendering="crispEdges" width="128" height="162" x="0" y="0" style="stroke: rgb(68, 68, 68); stroke-opacity: 1; fill: rgb(255, 255, 255); fill-opacity: 1; stroke-width: 0px;"/><g class="scrollbox" transform="" clip-path="url(#legend40b5d0)"><g class="groups"><g class="traces" transform="translate(0,14.5)" style="opacity: 1;"><text class="legendtext" text-anchor="start" x="40" y="4.680000000000001" style="font-family: 'Open Sans', verdana, arial, sans-serif; font-size: 12px; fill: rgb(42, 63, 95); fill-opacity: 1; white-space: pre;">Train Accuracy</text><g class="layers" style="opacity: 1;"><g class="legendfill"/><g class="legendlines"><path class="js-line" d="M5,0h30" style="fill: none; stroke: rgb(255, 0, 0); stroke-opacity: 1; stroke-width: 2px;"/></g><g class="legendsymbols"><g class="legendpoints"/></g></g><rect class="legendtoggle" x="0" y="-9.5" width="122.71875" height="19" style="fill: rgb(0, 0, 0); fill-opacity: 0;"/></g><g class="traces" transform="translate(0,33.5)" style="opacity: 1;"><text class="legendtext" text-anchor="start" x="40" y="4.680000000000001" style="font-family: 'Open Sans', verdana, arial, sans-serif; font-size: 12px; fill: rgb(42, 63, 95); fill-opacity: 1; white-space: pre;">Test Accuracy</text><g class="layers" style="opacity: 1;"><g class="legendfill"/><g class="legendlines"><path class="js-line" d="M5,0h30" style="fill: none; stroke: rgb(0, 0, 255); stroke-opacity: 1; stroke-width: 2px;"/></g><g class="legendsymbols"><g class="legendpoints"/></g></g><rect class="legendtoggle" x="0" y="-9.5" width="122.71875" height="19" style="fill: rgb(0, 0, 0); fill-opacity: 0;"/></g><g class="traces" transform="translate(0,52.5)" style="opacity: 1;"><text class="legendtext" text-anchor="start" x="40" y="4.680000000000001" style="font-family: 'Open Sans', verdana, arial, sans-serif; font-size: 12px; fill: rgb(42, 63, 95); fill-opacity: 1; white-space: pre;">Train Precision</text><g class="layers" style="opacity: 1;"><g class="legendfill"/><g class="legendlines"><path class="js-line" d="M5,0h30" style="fill: none; stroke: rgb(0, 128, 0); stroke-opacity: 1; stroke-width: 2px;"/></g><g class="legendsymbols"><g class="legendpoints"/></g></g><rect class="legendtoggle" x="0" y="-9.5" width="122.71875" height="19" style="fill: rgb(0, 0, 0); fill-opacity: 0;"/></g><g class="traces" transform="translate(0,71.5)" style="opacity: 1;"><text class="legendtext" text-anchor="start" x="40" y="4.680000000000001" style="font-family: 'Open Sans', verdana, arial, sans-serif; font-size: 12px; fill: rgb(42, 63, 95); fill-opacity: 1; white-space: pre;">Test Precision</text><g class="layers" style="opacity: 1;"><g class="legendfill"/><g class="legendlines"><path class="js-line" d="M5,0h30" style="fill: none; stroke: rgb(255, 165, 0); stroke-opacity: 1; stroke-width: 2px;"/></g><g class="legendsymbols"><g class="legendpoints"/></g></g><rect class="legendtoggle" x="0" y="-9.5" width="122.71875" height="19" style="fill: rgb(0, 0, 0); fill-opacity: 0;"/></g><g class="traces" transform="translate(0,90.5)" style="opacity: 1;"><text class="legendtext" text-anchor="start" x="40" y="4.680000000000001" style="font-family: 'Open Sans', verdana, arial, sans-serif; font-size: 12px; fill: rgb(42, 63, 95); fill-opacity: 1; white-space: pre;">Train Recall</text><g class="layers" style="opacity: 1;"><g class="legendfill"/><g class="legendlines"><path class="js-line" d="M5,0h30" style="fill: none; stroke: rgb(128, 0, 128); stroke-opacity: 1; stroke-width: 2px;"/></g><g class="legendsymbols"><g class="legendpoints"/></g></g><rect class="legendtoggle" x="0" y="-9.5" width="122.71875" height="19" style="fill: rgb(0, 0, 0); fill-opacity: 0;"/></g><g class="traces" transform="translate(0,109.5)" style="opacity: 1;"><text class="legendtext" text-anchor="start" x="40" y="4.680000000000001" style="font-family: 'Open Sans', verdana, arial, sans-serif; font-size: 12px; fill: rgb(42, 63, 95); fill-opacity: 1; white-space: pre;">Test Recall</text><g class="layers" style="opacity: 1;"><g class="legendfill"/><g class="legendlines"><path class="js-line" d="M5,0h30" style="fill: none; stroke: rgb(255, 192, 203); stroke-opacity: 1; stroke-width: 2px;"/></g><g class="legendsymbols"><g class="legendpoints"/></g></g><rect class="legendtoggle" x="0" y="-9.5" width="122.71875" height="19" style="fill: rgb(0, 0, 0); fill-opacity: 0;"/></g><g class="traces" transform="translate(0,128.5)" style="opacity: 1;"><text class="legendtext" text-anchor="start" x="40" y="4.680000000000001" style="font-family: 'Open Sans', verdana, arial, sans-serif; font-size: 12px; fill: rgb(42, 63, 95); fill-opacity: 1; white-space: pre;">Train F1</text><g class="layers" style="opacity: 1;"><g class="legendfill"/><g class="legendlines"><path class="js-line" d="M5,0h30" style="fill: none; stroke: rgb(165, 42, 42); stroke-opacity: 1; stroke-width: 2px;"/></g><g class="legendsymbols"><g class="legendpoints"/></g></g><rect class="legendtoggle" x="0" y="-9.5" width="122.71875" height="19" style="fill: rgb(0, 0, 0); fill-opacity: 0;"/></g><g class="traces" transform="translate(0,147.5)" style="opacity: 1;"><text class="legendtext" text-anchor="start" x="40" y="4.680000000000001" style="font-family: 'Open Sans', verdana, arial, sans-serif; font-size: 12px; fill: rgb(42, 63, 95); fill-opacity: 1; white-space: pre;">Test F1</text><g class="layers" style="opacity: 1;"><g class="legendfill"/><g class="legendlines"><path class="js-line" d="M5,0h30" style="fill: none; stroke: rgb(128, 128, 128); stroke-opacity: 1; stroke-width: 2px;"/></g><g class="legendsymbols"><g class="legendpoints"/></g></g><rect class="legendtoggle" x="0" y="-9.5" width="122.71875" height="19" style="fill: rgb(0, 0, 0); fill-opacity: 0;"/></g></g></g><rect class="scrollbar" rx="20" ry="3" width="0" height="0" x="0" y="0" style="fill: rgb(128, 139, 164); fill-opacity: 1;"/></g><g class="g-gtitle"><text class="gtitle" x="51.2" y="50" text-anchor="start" dy="0em" style="font-family: 'Open Sans', verdana, arial, sans-serif; font-size: 17px; fill: rgb(42, 63, 95); opacity: 1; font-weight: normal; white-space: pre;">Training Metrics - logs/FakeNewsNet-gossipcop_max-vocab=15000_pre=v2_text_T=250_s=10.log</text></g><g class="g-xtitle"><text class="xtitle" x="506" y="537.3" text-anchor="middle" style="font-family: 'Open Sans', verdana, arial, sans-serif; font-size: 14px; fill: rgb(42, 63, 95); opacity: 1; font-weight: normal; white-space: pre;">Epoch</text></g><g class="g-ytitle"><text class="ytitle" transform="rotate(-90,103.965625,298)" x="103.965625" y="298" text-anchor="middle" style="font-family: 'Open Sans', verdana, arial, sans-serif; font-size: 14px; fill: rgb(42, 63, 95); opacity: 1; font-weight: normal; white-space: pre;">Metric Score</text></g></g><g class="menulayer"><g class="updatemenu-container" style="cursor: pointer;"><g class="updatemenu-header-group" transform="translate(12,60)"><g class="updatemenu-header" transform="translate(1,1)" style="pointer-events: all;"><rect class="updatemenu-item-rect" rx="2" ry="2" shape-rendering="crispEdges" x="0" y="0" width="167" height="33" style="stroke: rgb(190, 200, 217); stroke-opacity: 1; fill: rgb(255, 255, 255); fill-opacity: 1; stroke-width: 1px;"/><text class="updatemenu-item-text" text-anchor="start" data-notex="1" x="12" y="19.5" style="font-family: 'Open Sans', verdana, arial, sans-serif; font-size: 12px; fill: rgb(42, 63, 95); fill-opacity: 1; white-space: pre;">All</text></g><text class="updatemenu-header-arrow" text-anchor="end" x="163" y="19.5" style="font-family: 'Open Sans', verdana, arial, sans-serif; font-size: 12px; fill: rgb(42, 63, 95); fill-opacity: 1;">▼</text></g><g class="updatemenu-dropdown-button-group" updatemenu-active-index="-1" style="pointer-events: all;"><rect class="scrollbox-bg" opacity="0" x="0" y="0" width="0" height="0" style="pointer-events: all;"/></g></g></g></svg>