<svg class="main-svg" xmlns="http://www.w3.org/2000/svg" xmlns:xlink="http://www.w3.org/1999/xlink" width="1024" height="576" style="" viewBox="0 0 1024 576"><rect x="0" y="0" width="1024" height="576" style="fill: rgb(255, 255, 255); fill-opacity: 1;"/><defs id="defs-2e0b02"><g class="clips"><clipPath id="clip2e0b02xyplot" class="plotclip"><rect width="720" height="396"/></clipPath><clipPath class="axesclip" id="clip2e0b02x"><rect x="150" y="0" width="720" height="576"/></clipPath><clipPath class="axesclip" id="clip2e0b02y"><rect x="0" y="100" width="1024" height="396"/></clipPath><clipPath class="axesclip" id="clip2e0b02xy"><rect x="150" y="100" width="720" height="396"/></clipPath></g><g class="gradients"/><g class="patterns"/></defs><g class="bglayer"><rect class="bg" x="150" y="100" width="720" height="396" style="fill: rgb(229, 236, 246); fill-opacity: 1; stroke-width: 0;"/></g><g class="layer-below"><g class="imagelayer"/><g class="shapelayer"/></g><g class="cartesianlayer"><g class="subplot xy"><g class="layer-subplot"><g class="shapelayer"/><g class="imagelayer"/></g><g class="minor-gridlayer"><g class="x"/><g class="y"/></g><g class="gridlayer"><g class="x"><path class="xgrid crisp" transform="translate(241.81,0)" d="M0,100v396" style="stroke: rgb(255, 255, 255); stroke-opacity: 1; stroke-width: 1px;"/><path class="xgrid crisp" transform="translate(338.46000000000004,0)" d="M0,100v396" style="stroke: rgb(255, 255, 255); stroke-opacity: 1; stroke-width: 1px;"/><path class="xgrid crisp" transform="translate(435.1,0)" d="M0,100v396" style="stroke: rgb(255, 255, 255); stroke-opacity: 1; stroke-width: 1px;"/><path class="xgrid crisp" transform="translate(531.74,0)" d="M0,100v396" style="stroke: rgb(255, 255, 255); stroke-opacity: 1; stroke-width: 1px;"/><path class="xgrid crisp" transform="translate(628.39,0)" d="M0,100v396" style="stroke: rgb(255, 255, 255); stroke-opacity: 1; stroke-width: 1px;"/><path class="xgrid crisp" transform="translate(725.03,0)" d="M0,100v396" style="stroke: rgb(255, 255, 255); stroke-opacity: 1; stroke-width: 1px;"/><path class="xgrid crisp" transform="translate(821.68,0)" d="M0,100v396" style="stroke: rgb(255, 255, 255); stroke-opacity: 1; stroke-width: 1px;"/></g><g class="y"><path class="ygrid crisp" transform="translate(0,470.38)" d="M150,0h720" style="stroke: rgb(255, 255, 255); stroke-opacity: 1; stroke-width: 1px;"/><path class="ygrid crisp" transform="translate(0,410.41)" d="M150,0h720" style="stroke: rgb(255, 255, 255); stroke-opacity: 1; stroke-width: 1px;"/><path class="ygrid crisp" transform="translate(0,350.44)" d="M150,0h720" style="stroke: rgb(255, 255, 255); stroke-opacity: 1; stroke-width: 1px;"/><path class="ygrid crisp" transform="translate(0,290.47)" d="M150,0h720" style="stroke: rgb(255, 255, 255); stroke-opacity: 1; stroke-width: 1px;"/><path class="ygrid crisp" transform="translate(0,230.5)" d="M150,0h720" style="stroke: rgb(255, 255, 255); stroke-opacity: 1; stroke-width: 1px;"/><path class="ygrid crisp" transform="translate(0,170.53)" d="M150,0h720" style="stroke: rgb(255, 255, 255); stroke-opacity: 1; stroke-width: 1px;"/><path class="ygrid crisp" transform="translate(0,110.56)" d="M150,0h720" style="stroke: rgb(255, 255, 255); stroke-opacity: 1; stroke-width: 1px;"/></g></g><g class="zerolinelayer"/><path class="xlines-below"/><path class="ylines-below"/><g class="overlines-below"/><g class="xaxislayer-below"/><g class="yaxislayer-below"/><g class="overaxes-below"/><g class="plot" transform="translate(150,100)" clip-path="url(#clip2e0b02xyplot)"><g class="scatterlayer mlayer"><g class="trace scatter tracee72b31" style="stroke-miterlimit: 2; opacity: 1;"><g class="fills"/><g class="errorbars"/><g class="lines"><path class="js-line" d="M0,202.11L4.83,191.49L9.66,172.3L14.5,133.92L19.33,130.38L24.16,126.79L28.99,112.57L33.83,106.22L38.66,72.81L43.49,104.06L48.32,100.52L53.15,95.54L57.99,109.75L67.65,104.06L72.48,87.03L77.32,54.34L82.15,45.83L86.98,60.04L91.81,38.69L96.64,55.06L101.48,55.06L106.31,37.25L111.14,61.42L115.97,41.57L120.81,37.97L125.64,36.59L130.47,36.59L135.3,38.69L140.13,47.93L144.97,35.15L149.8,37.25L154.63,35.15L159.46,36.59L164.3,34.43L169.13,28.74L178.79,32.33L183.62,28.74L193.29,29.46L198.12,45.83L202.95,45.11L207.79,30.89L217.45,28.74L222.28,30.17L231.95,25.2L236.78,20.94L241.61,27.36L246.44,25.92L251.28,25.2L256.11,32.33L260.94,41.57L265.77,37.97L270.6,96.26L275.44,98.36L280.27,96.26L285.1,96.98L289.93,94.82L294.77,90.56L299.6,42.23L304.43,39.41L309.26,26.64L314.09,24.48L318.93,27.36L323.76,25.92L328.59,30.17L333.42,29.46L338.26,22.38L343.09,24.48L352.75,25.92L357.58,23.1L362.42,22.38L367.25,23.1L372.08,34.43L376.91,36.59L381.74,37.25L386.58,38.69L396.24,36.59L401.07,41.57L405.91,41.57L410.74,45.11L415.57,41.57L420.4,43.67L425.23,39.41L430.07,42.23L434.9,39.41L439.73,40.13L444.56,38.69L449.4,35.15L459.06,35.87L463.89,35.87L473.56,33.71L478.39,35.15L483.22,36.59L488.05,36.59L492.89,50.08L497.72,38.69L502.55,68.56L507.38,40.13L512.21,41.57L517.05,39.41L521.88,37.97L526.71,40.13L531.54,42.23L536.38,41.57L541.21,42.23L546.04,41.57L555.7,39.41L560.54,40.85L565.37,38.69L570.2,39.41L575.03,36.59L579.87,38.69L584.7,36.59L589.53,64.3L594.36,65.02L599.19,35.15L604.03,35.87L608.86,35.15L618.52,35.87L623.36,33.71L628.19,34.43L633.02,36.59L637.85,37.97L642.68,37.97L647.52,37.25L652.35,40.13L657.18,36.59L662.01,34.43L666.85,34.43L671.68,35.87L681.34,35.15L686.17,35.15L695.84,38.69L700.67,37.25L705.5,39.41L710.34,38.69L715.17,37.97L720,38.69" style="vector-effect: none; fill: none; stroke: rgb(255, 0, 0); stroke-opacity: 1; stroke-width: 2px; opacity: 1;"/></g><g class="points"/><g class="text"/></g><g class="trace scatter trace2437ba" style="stroke-miterlimit: 2; opacity: 1;"><g class="fills"/><g class="errorbars"/><g class="lines"><path class="js-line" d="M0,171.22L9.66,165.59L14.5,145.8L19.33,142.98L24.16,142.98L28.99,134.46L33.83,123.13L38.66,106.16L43.49,131.64L48.32,128.82L53.15,128.82L62.82,140.1L67.65,131.64L72.48,120.31L77.32,97.7L82.15,97.7L86.98,100.52L91.81,69.39L96.64,100.52L101.48,100.52L106.31,77.91L111.14,103.34L115.97,89.18L120.81,86.37L125.64,86.37L130.47,86.37L135.3,89.18L140.13,97.7L144.97,86.37L149.8,83.55L154.63,92L159.46,89.18L164.3,77.91L169.13,83.55L173.96,86.37L178.79,80.73L183.62,86.37L193.29,86.37L198.12,89.18L202.95,97.7L207.79,83.55L212.62,89.18L217.45,86.37L222.28,86.37L227.11,89.18L231.95,80.73L236.78,77.91L241.61,83.55L246.44,83.55L251.28,75.03L256.11,94.88L260.94,86.37L265.77,86.37L270.6,145.8L275.44,145.8L285.1,145.8L289.93,137.28L294.77,137.28L299.6,97.7L304.43,97.7L309.26,86.37L314.09,80.73L318.93,89.18L323.76,92L328.59,92L333.42,86.37L338.26,86.37L343.09,75.03L347.92,72.21L352.75,77.91L357.58,75.03L362.42,72.21L367.25,80.73L372.08,92L376.91,97.7L381.74,89.18L386.58,83.55L391.41,89.18L396.24,92L405.91,97.7L410.74,97.7L415.57,94.88L420.4,89.18L425.23,92L430.07,89.18L434.9,89.18L439.73,92L444.56,86.37L449.4,94.88L459.06,83.55L463.89,92L473.56,75.03L478.39,77.91L483.22,83.55L488.05,80.73L492.89,94.88L497.72,89.18L502.55,111.85L507.38,83.55L512.21,80.73L517.05,75.03L521.88,77.91L526.71,86.37L531.54,89.18L536.38,86.37L541.21,83.55L546.04,86.37L550.87,86.37L555.7,89.18L560.54,89.18L565.37,86.37L570.2,89.18L575.03,94.88L584.7,94.88L589.53,120.31L594.36,126.01L599.19,94.88L604.03,92L608.86,92L613.69,94.88L618.52,100.52L623.36,94.88L628.19,97.7L633.02,89.18L637.85,97.7L642.68,92L647.52,92L652.35,89.18L657.18,94.88L662.01,100.52L666.85,94.88L671.68,92L676.51,92L681.34,86.37L686.17,89.18L691.01,83.55L695.84,89.18L700.67,80.73L705.5,80.73L710.34,83.55L715.17,83.55L720,86.37" style="vector-effect: none; fill: none; stroke: rgb(0, 0, 255); stroke-opacity: 1; stroke-width: 2px; opacity: 1;"/></g><g class="points"/><g class="text"/></g><g class="trace scatter trace033f3b" style="stroke-miterlimit: 2; opacity: 1;"><g class="fills"/><g class="errorbars"/><g class="lines"><path class="js-line" d="M0,376.2L4.83,73.23L9.66,80.13L14.5,82.47L19.33,79.89L24.16,77.37L28.99,69.39L33.83,66.64L38.66,45.29L43.49,65.2L48.32,64.18L53.15,60.94L57.99,67.54L62.82,65.68L67.65,65.2L72.48,55.42L77.32,42.17L82.15,40.79L86.98,44.33L91.81,38.21L96.64,43.31L101.48,42.11L106.31,37.01L111.14,43.85L115.97,38.81L120.81,38.57L125.64,36.83L130.47,35.81L135.3,37.67L140.13,48.47L144.97,35.81L149.8,34.25L154.63,30.95L159.46,34.31L164.3,35.69L169.13,28.98L173.96,31.07L178.79,34.31L183.62,29.4L193.29,31.79L198.12,46.43L202.95,46.01L207.79,32.99L212.62,32.39L217.45,30.59L222.28,32.21L227.11,29.34L236.78,20.7L241.61,21.78L246.44,19.8L251.28,25.38L260.94,42.41L265.77,38.75L270.6,71.85L275.44,71.61L280.27,71.13L285.1,72.27L289.93,68.86L294.77,66.52L299.6,43.19L304.43,40.37L309.26,27.9L314.09,25.2L318.93,28.86L323.76,27.06L328.59,32.03L333.42,31.61L338.26,24.06L343.09,25.92L352.75,27.66L357.58,24.3L362.42,23.64L367.25,24.42L372.08,35.99L376.91,37.49L381.74,38.09L386.58,39.53L391.41,38.09L396.24,37.85L401.07,41.99L405.91,41.75L410.74,45.23L415.57,41.75L420.4,44.03L425.23,39.95L430.07,42.59L434.9,39.95L439.73,40.79L444.56,39.71L449.4,36.41L454.23,36.89L463.89,37.07L468.72,36.11L473.56,35.03L478.39,36.29L483.22,37.49L488.05,37.31L492.89,46.31L497.72,39.35L502.55,57.76L507.38,41.15L512.21,42.17L517.05,39.95L521.88,38.75L526.71,40.55L531.54,42.59L536.38,41.75L541.21,42.17L546.04,41.57L550.87,40.37L555.7,39.95L560.54,41.15L565.37,39.53L570.2,40.55L575.03,37.49L579.87,39.71L584.7,37.67L589.53,53.92L594.36,55.36L599.19,36.11L604.03,36.89L608.86,35.87L613.69,36.53L618.52,36.29L623.36,34.49L628.19,35.63L633.02,37.67L637.85,39.47L642.68,39.47L647.52,38.93L652.35,41.81L657.18,38.15L662.01,35.63L666.85,35.63L671.68,37.25L681.34,36.29L686.17,36.41L695.84,39.89L700.67,38.51L705.5,40.73L710.34,39.53L715.17,38.51L720,39.53" style="vector-effect: none; fill: none; stroke: rgb(0, 128, 0); stroke-opacity: 1; stroke-width: 2px; opacity: 1;"/></g><g class="points"/><g class="text"/></g><g class="trace scatter trace759557" style="stroke-miterlimit: 2; opacity: 1;"><g class="fills"/><g class="errorbars"/><g class="lines"><path class="js-line" d="M0,360.79L4.83,60.04L9.66,59.14L14.5,135.18L19.33,130.2L24.16,130.2L28.99,122.35L38.66,93.56L43.49,122.83L48.32,119.11L53.15,119.11L57.99,117.19L62.82,135.06L77.32,96.62L82.15,102.02L86.98,97.1L91.81,71.43L96.64,99.44L101.48,97.1L106.31,83.55L111.14,99.98L115.97,93.44L120.81,93.98L125.64,93.98L130.47,93.02L135.3,95.9L140.13,102.8L144.97,93.98L149.8,89.12L154.63,97.64L159.46,94.76L164.3,86.13L169.13,91.88L173.96,95.9L178.79,90.32L183.62,95.36L188.46,96.26L193.29,96.44L198.12,91.34L202.95,101.72L207.79,93.44L212.62,99.56L217.45,95.9L222.28,95.9L227.11,98.84L231.95,89.01L236.78,84.57L241.61,87.87L246.44,87.87L251.28,82.59L256.11,98.24L260.94,90.32L265.77,90.32L270.6,116.95L275.44,113.89L285.1,113.89L289.93,103.1L294.77,109.39L299.6,100.46L304.43,101.72L309.26,96.26L314.09,89.54L318.93,99.2L323.76,102.2L328.59,102.62L333.42,96.56L338.26,96.56L343.09,84.15L347.92,81.21L352.75,87.09L357.58,84.15L362.42,80.91L367.25,90.44L372.08,93.44L376.91,99.14L381.74,91.34L386.58,85.65L391.41,92.6L396.24,93.44L401.07,96.98L405.91,99.14L415.57,96.98L420.4,89.96L425.23,92L430.07,86.85L434.9,88.47L439.73,92L444.56,86.37L449.4,95.6L459.06,84.27L463.89,92L473.56,77.79L478.39,81.27L483.22,84.27L488.05,83.49L492.89,88.95L497.72,89.96L502.55,95.12L507.38,85.65L512.21,83.49L517.05,76.47L521.88,78.63L526.71,86.37L531.54,89.96L536.38,87.81L541.21,84.27L546.04,87.81L550.87,87.81L555.7,89.96L560.54,89.96L565.37,89.12L575.03,96.98L579.87,95.6L584.7,95.6L589.53,109.57L594.36,115.27L599.19,96.98L604.03,94.82L608.86,94.82L613.69,96.98L618.52,102.62L623.36,98.24L628.19,101.72L633.02,93.74L637.85,101.72L642.68,96.02L647.52,97.16L652.35,93.74L657.18,96.98L662.01,103.94L666.85,98.24L671.68,96.02L676.51,94.82L681.34,89.12L686.17,92.6L691.01,86.91L695.84,92.6L700.67,83.49L705.5,83.49L710.34,86.91L715.17,85.65L720,89.12" style="vector-effect: none; fill: none; stroke: rgb(255, 165, 0); stroke-opacity: 1; stroke-width: 2px; opacity: 1;"/></g><g class="points"/><g class="text"/></g><g class="trace scatter tracecf8447" style="stroke-miterlimit: 2; opacity: 1;"><g class="fills"/><g class="errorbars"/><g class="lines"><path class="js-line" d="M0,250.44L4.83,237.73L9.66,214.4L14.5,166.31L19.33,162.05L24.16,157.85L28.99,140.64L33.83,132.78L38.66,92.96L43.49,130.26L48.32,125.77L53.15,119.89L57.99,137.28L67.65,130.26L72.48,109.69L77.32,68.14L82.15,55.66L86.98,75.63L91.81,44.81L96.64,68.74L101.48,69.22L106.31,43.13L111.14,77.79L115.97,49.6L120.81,43.01L125.64,41.81L130.47,42.77L135.3,45.29L140.13,43.13L144.97,39.89L149.8,45.23L154.63,43.61L159.46,43.91L169.13,33.41L173.96,34.19L178.79,34.85L183.62,32.93L188.46,31.07L193.29,30.95L198.12,41.03L202.95,40.67L207.79,33.17L212.62,32.03L217.45,31.31L222.28,32.51L231.95,29.87L236.78,25.5L241.61,35.93L246.44,34.73L251.28,29.64L256.11,27.78L260.94,36.89L265.77,33.17L270.6,79.35L275.44,80.67L280.27,79.11L285.1,79.95L289.93,77.43L294.77,73.71L299.6,37.79L304.43,34.85L309.26,29.93L314.09,28.32L318.93,30.29L323.76,29.34L328.59,32.75L333.42,31.43L338.26,24.6L343.09,27.42L352.75,28.38L357.58,26.16L362.42,25.32L367.25,25.92L372.08,30.53L376.91,31.91L381.74,32.51L386.58,34.01L391.41,32.51L396.24,32.39L401.07,36.47L405.91,36.23L410.74,39.77L415.57,36.23L420.4,38.51L425.23,34.37L430.07,37.07L434.9,34.37L439.73,35.21L444.56,34.25L449.4,30.95L454.23,31.31L463.89,31.55L468.72,30.47L473.56,29.46L478.39,30.71L483.22,31.91L488.05,31.67L492.89,41.69L497.72,33.77L502.55,56.62L507.38,35.69L512.21,36.65L517.05,34.37L521.88,33.17L526.71,34.97L531.54,37.07L536.38,36.23L541.21,36.59L546.04,35.99L550.87,34.73L555.7,34.37L560.54,35.57L565.37,34.01L570.2,35.09L575.03,31.91L579.87,34.25L584.7,32.15L589.53,52.48L594.36,53.56L599.19,30.47L604.03,31.31L608.86,30.23L613.69,30.83L618.52,30.59L623.36,28.8L633.02,32.15L637.85,34.07L647.52,33.71L652.35,36.65L657.18,32.87L662.01,30.11L666.85,30.11L671.68,31.79L681.34,30.71L686.17,30.95L695.84,34.49L700.67,32.99L705.5,35.33L710.34,34.01L715.17,32.93L720,34.01" style="vector-effect: none; fill: none; stroke: rgb(128, 0, 128); stroke-opacity: 1; stroke-width: 2px; opacity: 1;"/></g><g class="points"/><g class="text"/></g><g class="trace scatter tracea0f27a" style="stroke-miterlimit: 2; opacity: 1;"><g class="fills"/><g class="errorbars"/><g class="lines"><path class="js-line" d="M0,250.44L9.66,242.77L14.5,206.19L19.33,202.35L24.16,202.35L28.99,189.21L33.83,173.86L38.66,149.15L43.49,183.76L48.32,179.92L53.15,179.92L57.99,190.83L62.82,195.33L67.65,183.76L72.48,168.4L77.32,131.22L82.15,126.37L86.98,136.68L91.81,91.16L96.64,135.06L101.48,136.68L106.31,97.88L111.14,140.52L115.97,114.85L120.81,106.22L125.64,106.22L130.47,107.84L135.3,111.67L140.13,92.66L144.97,106.22L149.8,105.56L154.63,117.13L159.46,113.23L164.3,93.08L169.13,100.76L173.96,101.36L178.79,92.06L183.62,102.98L188.46,99.8L193.29,98.18L198.12,79.53L202.95,91.04L207.79,94.34L212.62,100.4L217.45,101.36L222.28,101.36L227.11,105.2L231.95,96.92L236.78,96.26L241.61,107.18L246.44,107.18L251.28,90.8L256.11,87.21L260.94,78.87L265.77,78.87L270.6,116.23L275.44,114.61L285.1,114.61L289.93,104.72L294.77,107.9L299.6,89.42L304.43,91.04L309.26,99.8L314.09,95.3L318.93,103.64L323.76,107.48L328.59,104.24L333.42,96.56L338.26,96.56L343.09,86.01L347.92,82.17L352.75,89.84L357.58,86.01L362.42,83.79L367.25,87.27L372.08,81.75L376.91,87.87L381.74,79.53L386.58,73.41L391.41,81.15L396.24,81.75L401.07,85.59L405.91,87.87L410.74,86.25L415.57,85.59L420.4,77.91L425.23,80.13L430.07,74.67L434.9,76.29L439.73,80.13L444.56,74.07L449.4,83.97L454.23,77.91L459.06,71.85L463.89,80.13L468.72,71.85L473.56,65.14L478.39,68.98L483.22,71.85L488.05,71.19L492.89,77.55L497.72,77.91L502.55,87.81L507.38,73.41L512.21,71.19L517.05,63.52L521.88,65.74L526.71,74.07L531.54,77.91L536.38,75.69L541.21,71.85L546.04,75.69L550.87,75.69L555.7,77.91L560.54,77.91L565.37,77.31L570.2,81.15L575.03,85.59L579.87,83.97L584.7,83.97L589.53,100.94L594.36,107L599.19,85.59L604.03,83.37L608.86,83.37L613.69,85.59L618.52,91.7L623.36,87.21L628.19,91.04L633.02,82.71L637.85,91.04L642.68,84.99L647.52,86.61L652.35,82.71L657.18,85.59L662.01,93.26L666.85,87.21L676.51,83.37L681.34,77.31L686.17,81.15L691.01,75.03L695.84,81.15L700.67,71.19L705.5,71.19L710.34,75.03L715.17,73.41L720,77.31" style="vector-effect: none; fill: none; stroke: rgb(255, 192, 203); stroke-opacity: 1; stroke-width: 2px; opacity: 1;"/></g><g class="points"/><g class="text"/></g><g class="trace scatter trace651fff" style="stroke-miterlimit: 2; opacity: 1;"><g class="fills"/><g class="errorbars"/><g class="lines"><path class="js-line" d="M0,330.02L4.83,303.16L9.66,257.1L14.5,177.52L19.33,171.7L24.16,166.01L28.99,143.52L33.83,133.68L38.66,87.93L43.49,130.62L48.32,125.17L53.15,118.15L57.99,139.32L67.65,130.62L72.48,106.46L77.32,62.68L82.15,51.34L86.98,69.99L91.81,42.35L96.64,63.34L101.48,63.64L106.31,40.79L111.14,72.09L115.97,46.07L120.81,41.21L125.64,39.83L130.47,40.19L135.3,42.53L140.13,48.65L144.97,38.15L149.8,41.63L154.63,39.59L159.46,40.61L164.3,37.19L169.13,31.61L178.79,34.61L183.62,31.43L188.46,30.89L193.29,31.43L198.12,46.55L202.95,45.89L207.79,33.05L212.62,32.21L217.45,30.95L222.28,32.33L231.95,27.96L236.78,23.52L241.61,31.49L246.44,30.11L251.28,27.9L256.11,33.05L260.94,42.29L265.77,38.69L270.6,96.62L275.44,98.84L280.27,96.62L285.1,97.34L289.93,95.24L294.77,90.86L299.6,43.01L304.43,40.13L309.26,28.98L314.09,27L318.93,29.64L323.76,28.32L328.59,32.45L333.42,31.55L338.26,24.36L343.09,26.7L352.75,28.02L357.58,25.32L362.42,24.54L367.25,25.26L372.08,35.27L376.91,37.31L381.74,37.97L386.58,39.41L391.41,37.97L396.24,37.37L401.07,42.23L405.91,42.17L410.74,45.71L415.57,42.17L420.4,44.33L425.23,40.07L430.07,42.89L434.9,40.07L439.73,40.79L444.56,39.47L449.4,35.93L454.23,36.59L463.89,36.65L468.72,35.87L473.56,34.49L478.39,35.87L483.22,37.31L488.05,37.25L492.89,50.32L497.72,39.41L502.55,68.56L507.38,40.91L512.21,42.23L517.05,40.07L521.88,38.69L526.71,40.79L531.54,42.89L536.38,42.17L541.21,42.83L546.04,42.11L555.7,40.07L560.54,41.45L565.37,39.41L570.2,40.19L575.03,37.31L579.87,39.47L584.7,37.31L589.53,64.3L594.36,65.02L599.19,35.87L604.03,36.59L608.86,35.81L613.69,36.53L618.52,36.47L623.36,34.37L628.19,35.21L637.85,38.87L642.68,38.87L647.52,38.21L652.35,41.09L657.18,37.43L662.01,35.21L666.85,35.21L671.68,36.65L681.34,35.87L686.17,35.93L695.84,39.53L700.67,38.09L705.5,40.25L710.34,39.41L715.17,38.63L720,39.41" style="vector-effect: none; fill: none; stroke: rgb(165, 42, 42); stroke-opacity: 1; stroke-width: 2px; opacity: 1;"/></g><g class="points"/><g class="text"/></g><g class="trace scatter traceac613d" style="stroke-miterlimit: 2; opacity: 1;"><g class="fills"/><g class="errorbars"/><g class="lines"><path class="js-line" d="M0,318.03L9.66,301.72L14.5,223.22L19.33,217.4L24.16,217.4L33.83,176.44L38.66,145.26L43.49,189.03L48.32,183.88L53.15,183.88L57.99,200.55L62.82,204.93L67.65,189.03L72.48,168.88L77.32,125.11L82.15,120.73L86.98,130.86L91.81,84.87L96.64,129.24L101.48,130.86L106.31,92.96L111.14,135.12L115.97,109.03L120.81,101.96L125.64,101.96L130.47,102.98L135.3,106.7L140.13,102.08L144.97,101.96L149.8,100.34L154.63,111.67L159.46,107.84L164.3,90.2L169.13,97.34L173.96,99.08L178.79,91.22L183.62,99.98L188.46,98.18L193.29,97.34L198.12,92.24L202.95,101.6L207.79,93.92L212.62,99.98L217.45,99.08L222.28,99.08L227.11,102.62L231.95,93.74L236.78,92L241.61,101.42L246.44,101.42L251.28,87.57L256.11,98.42L260.94,89.96L265.77,89.96L270.6,145.8L285.1,145.8L289.93,137.28L294.77,137.28L299.6,101.12L304.43,101.6L309.26,98.18L314.09,92.9L318.93,101.72L323.76,105.26L328.59,103.46L333.42,96.56L338.26,96.56L343.09,85.11L347.92,81.69L352.75,88.59L357.58,85.11L362.42,82.47L367.25,89.07L376.91,100.7L381.74,92.24L386.58,86.43L391.41,92.66L401.07,98L405.91,100.7L410.74,100.28L415.57,98L420.4,91.82L425.23,94.52L430.07,91.16L434.9,91.46L439.73,94.52L444.56,88.77L449.4,97.64L454.23,91.82L459.06,86.07L463.89,94.52L473.56,77.97L478.39,81.03L483.22,86.07L488.05,83.73L492.89,96.26L497.72,91.82L502.55,112.27L507.38,86.43L512.21,83.73L517.05,77.61L521.88,80.31L526.71,88.77L531.54,91.82L536.38,89.12L541.21,86.07L546.04,89.12L550.87,89.12L555.7,91.82L560.54,91.82L565.37,89.54L570.2,92.66L575.03,98L584.7,97.64L589.53,121.27L594.36,126.97L599.19,98L604.03,95.3L608.86,95.3L613.69,98L618.52,103.82L623.36,98.42L628.19,101.6L633.02,93.08L637.85,101.6L642.68,95.78L647.52,96.26L652.35,93.08L657.18,98L662.01,104.24L666.85,98.42L671.68,95.78L676.51,95.3L681.34,89.54L686.17,92.66L691.01,86.85L695.84,92.66L700.67,83.73L705.5,83.73L710.34,86.85L715.17,86.43L720,89.54" style="vector-effect: none; fill: none; stroke: rgb(128, 128, 128); stroke-opacity: 1; stroke-width: 2px; opacity: 1;"/></g><g class="points"/><g class="text"/></g></g></g><g class="overplot"/><path class="xlines-above crisp" d="M0,0" style="fill: none;"/><path class="ylines-above crisp" d="M0,0" style="fill: none;"/><g class="overlines-above"/><g class="xaxislayer-above"><g class="xtick"><text text-anchor="middle" x="0" y="509" transform="translate(241.81,0)" style="font-family: 'Open Sans', verdana, arial, sans-serif; font-size: 12px; fill: rgb(42, 63, 95); fill-opacity: 1; white-space: pre; opacity: 1;">20</text></g><g class="xtick"><text text-anchor="middle" x="0" y="509" style="font-family: 'Open Sans', verdana, arial, sans-serif; font-size: 12px; fill: rgb(42, 63, 95); fill-opacity: 1; white-space: pre; opacity: 1;" transform="translate(338.46000000000004,0)">40</text></g><g class="xtick"><text text-anchor="middle" x="0" y="509" style="font-family: 'Open Sans', verdana, arial, sans-serif; font-size: 12px; fill: rgb(42, 63, 95); fill-opacity: 1; white-space: pre; opacity: 1;" transform="translate(435.1,0)">60</text></g><g class="xtick"><text text-anchor="middle" x="0" y="509" style="font-family: 'Open Sans', verdana, arial, sans-serif; font-size: 12px; fill: rgb(42, 63, 95); fill-opacity: 1; white-space: pre; opacity: 1;" transform="translate(531.74,0)">80</text></g><g class="xtick"><text text-anchor="middle" x="0" y="509" style="font-family: 'Open Sans', verdana, arial, sans-serif; font-size: 12px; fill: rgb(42, 63, 95); fill-opacity: 1; white-space: pre; opacity: 1;" transform="translate(628.39,0)">100</text></g><g class="xtick"><text text-anchor="middle" x="0" y="509" style="font-family: 'Open Sans', verdana, arial, sans-serif; font-size: 12px; fill: rgb(42, 63, 95); fill-opacity: 1; white-space: pre; opacity: 1;" transform="translate(725.03,0)">120</text></g><g class="xtick"><text text-anchor="middle" x="0" y="509" style="font-family: 'Open Sans', verdana, arial, sans-serif; font-size: 12px; fill: rgb(42, 63, 95); fill-opacity: 1; white-space: pre; opacity: 1;" transform="translate(821.68,0)">140</text></g></g><g class="yaxislayer-above"><g class="ytick"><text text-anchor="end" x="149" y="4.199999999999999" transform="translate(0,470.38)" style="font-family: 'Open Sans', verdana, arial, sans-serif; font-size: 12px; fill: rgb(42, 63, 95); fill-opacity: 1; white-space: pre; opacity: 1;">30</text></g><g class="ytick"><text text-anchor="end" x="149" y="4.199999999999999" style="font-family: 'Open Sans', verdana, arial, sans-serif; font-size: 12px; fill: rgb(42, 63, 95); fill-opacity: 1; white-space: pre; opacity: 1;" transform="translate(0,410.41)">40</text></g><g class="ytick"><text text-anchor="end" x="149" y="4.199999999999999" style="font-family: 'Open Sans', verdana, arial, sans-serif; font-size: 12px; fill: rgb(42, 63, 95); fill-opacity: 1; white-space: pre; opacity: 1;" transform="translate(0,350.44)">50</text></g><g class="ytick"><text text-anchor="end" x="149" y="4.199999999999999" style="font-family: 'Open Sans', verdana, arial, sans-serif; font-size: 12px; fill: rgb(42, 63, 95); fill-opacity: 1; white-space: pre; opacity: 1;" transform="translate(0,290.47)">60</text></g><g class="ytick"><text text-anchor="end" x="149" y="4.199999999999999" style="font-family: 'Open Sans', verdana, arial, sans-serif; font-size: 12px; fill: rgb(42, 63, 95); fill-opacity: 1; white-space: pre; opacity: 1;" transform="translate(0,230.5)">70</text></g><g class="ytick"><text text-anchor="end" x="149" y="4.199999999999999" style="font-family: 'Open Sans', verdana, arial, sans-serif; font-size: 12px; fill: rgb(42, 63, 95); fill-opacity: 1; white-space: pre; opacity: 1;" transform="translate(0,170.53)">80</text></g><g class="ytick"><text text-anchor="end" x="149" y="4.199999999999999" style="font-family: 'Open Sans', verdana, arial, sans-serif; font-size: 12px; fill: rgb(42, 63, 95); fill-opacity: 1; white-space: pre; opacity: 1;" transform="translate(0,110.56)">90</text></g></g><g class="overaxes-above"/></g></g><g class="polarlayer"/><g class="smithlayer"/><g class="ternarylayer"/><g class="geolayer"/><g class="funnelarealayer"/><g class="pielayer"/><g class="iciclelayer"/><g class="treemaplayer"/><g class="sunburstlayer"/><g class="glimages"/><defs id="topdefs-2e0b02"><g class="clips"/><clipPath id="legend2e0b02"><rect width="128" height="162" x="0" y="0"/></clipPath></defs><g class="layer-above"><g class="imagelayer"/><g class="shapelayer"/></g><g class="infolayer"><g class="legend" pointer-events="all" transform="translate(884.4,100)"><rect class="bg" shape-rendering="crispEdges" width="128" height="162" x="0" y="0" style="stroke: rgb(68, 68, 68); stroke-opacity: 1; fill: rgb(255, 255, 255); fill-opacity: 1; stroke-width: 0px;"/><g class="scrollbox" transform="" clip-path="url(#legend2e0b02)"><g class="groups"><g class="traces" transform="translate(0,14.5)" style="opacity: 1;"><text class="legendtext" text-anchor="start" x="40" y="4.680000000000001" style="font-family: 'Open Sans', verdana, arial, sans-serif; font-size: 12px; fill: rgb(42, 63, 95); fill-opacity: 1; white-space: pre;">Train Accuracy</text><g class="layers" style="opacity: 1;"><g class="legendfill"/><g class="legendlines"><path class="js-line" d="M5,0h30" style="fill: none; stroke: rgb(255, 0, 0); stroke-opacity: 1; stroke-width: 2px;"/></g><g class="legendsymbols"><g class="legendpoints"/></g></g><rect class="legendtoggle" x="0" y="-9.5" width="122.71875" height="19" style="fill: rgb(0, 0, 0); fill-opacity: 0;"/></g><g class="traces" transform="translate(0,33.5)" style="opacity: 1;"><text class="legendtext" text-anchor="start" x="40" y="4.680000000000001" style="font-family: 'Open Sans', verdana, arial, sans-serif; font-size: 12px; fill: rgb(42, 63, 95); fill-opacity: 1; white-space: pre;">Test Accuracy</text><g class="layers" style="opacity: 1;"><g class="legendfill"/><g class="legendlines"><path class="js-line" d="M5,0h30" style="fill: none; stroke: rgb(0, 0, 255); stroke-opacity: 1; stroke-width: 2px;"/></g><g class="legendsymbols"><g class="legendpoints"/></g></g><rect class="legendtoggle" x="0" y="-9.5" width="122.71875" height="19" style="fill: rgb(0, 0, 0); fill-opacity: 0;"/></g><g class="traces" transform="translate(0,52.5)" style="opacity: 1;"><text class="legendtext" text-anchor="start" x="40" y="4.680000000000001" style="font-family: 'Open Sans', verdana, arial, sans-serif; font-size: 12px; fill: rgb(42, 63, 95); fill-opacity: 1; white-space: pre;">Train Precision</text><g class="layers" style="opacity: 1;"><g class="legendfill"/><g class="legendlines"><path class="js-line" d="M5,0h30" style="fill: none; stroke: rgb(0, 128, 0); stroke-opacity: 1; stroke-width: 2px;"/></g><g class="legendsymbols"><g class="legendpoints"/></g></g><rect class="legendtoggle" x="0" y="-9.5" width="122.71875" height="19" style="fill: rgb(0, 0, 0); fill-opacity: 0;"/></g><g class="traces" transform="translate(0,71.5)" style="opacity: 1;"><text class="legendtext" text-anchor="start" x="40" y="4.680000000000001" style="font-family: 'Open Sans', verdana, arial, sans-serif; font-size: 12px; fill: rgb(42, 63, 95); fill-opacity: 1; white-space: pre;">Test Precision</text><g class="layers" style="opacity: 1;"><g class="legendfill"/><g class="legendlines"><path class="js-line" d="M5,0h30" style="fill: none; stroke: rgb(255, 165, 0); stroke-opacity: 1; stroke-width: 2px;"/></g><g class="legendsymbols"><g class="legendpoints"/></g></g><rect class="legendtoggle" x="0" y="-9.5" width="122.71875" height="19" style="fill: rgb(0, 0, 0); fill-opacity: 0;"/></g><g class="traces" transform="translate(0,90.5)" style="opacity: 1;"><text class="legendtext" text-anchor="start" x="40" y="4.680000000000001" style="font-family: 'Open Sans', verdana, arial, sans-serif; font-size: 12px; fill: rgb(42, 63, 95); fill-opacity: 1; white-space: pre;">Train Recall</text><g class="layers" style="opacity: 1;"><g class="legendfill"/><g class="legendlines"><path class="js-line" d="M5,0h30" style="fill: none; stroke: rgb(128, 0, 128); stroke-opacity: 1; stroke-width: 2px;"/></g><g class="legendsymbols"><g class="legendpoints"/></g></g><rect class="legendtoggle" x="0" y="-9.5" width="122.71875" height="19" style="fill: rgb(0, 0, 0); fill-opacity: 0;"/></g><g class="traces" transform="translate(0,109.5)" style="opacity: 1;"><text class="legendtext" text-anchor="start" x="40" y="4.680000000000001" style="font-family: 'Open Sans', verdana, arial, sans-serif; font-size: 12px; fill: rgb(42, 63, 95); fill-opacity: 1; white-space: pre;">Test Recall</text><g class="layers" style="opacity: 1;"><g class="legendfill"/><g class="legendlines"><path class="js-line" d="M5,0h30" style="fill: none; stroke: rgb(255, 192, 203); stroke-opacity: 1; stroke-width: 2px;"/></g><g class="legendsymbols"><g class="legendpoints"/></g></g><rect class="legendtoggle" x="0" y="-9.5" width="122.71875" height="19" style="fill: rgb(0, 0, 0); fill-opacity: 0;"/></g><g class="traces" transform="translate(0,128.5)" style="opacity: 1;"><text class="legendtext" text-anchor="start" x="40" y="4.680000000000001" style="font-family: 'Open Sans', verdana, arial, sans-serif; font-size: 12px; fill: rgb(42, 63, 95); fill-opacity: 1; white-space: pre;">Train F1</text><g class="layers" style="opacity: 1;"><g class="legendfill"/><g class="legendlines"><path class="js-line" d="M5,0h30" style="fill: none; stroke: rgb(165, 42, 42); stroke-opacity: 1; stroke-width: 2px;"/></g><g class="legendsymbols"><g class="legendpoints"/></g></g><rect class="legendtoggle" x="0" y="-9.5" width="122.71875" height="19" style="fill: rgb(0, 0, 0); fill-opacity: 0;"/></g><g class="traces" transform="translate(0,147.5)" style="opacity: 1;"><text class="legendtext" text-anchor="start" x="40" y="4.680000000000001" style="font-family: 'Open Sans', verdana, arial, sans-serif; font-size: 12px; fill: rgb(42, 63, 95); fill-opacity: 1; white-space: pre;">Test F1</text><g class="layers" style="opacity: 1;"><g class="legendfill"/><g class="legendlines"><path class="js-line" d="M5,0h30" style="fill: none; stroke: rgb(128, 128, 128); stroke-opacity: 1; stroke-width: 2px;"/></g><g class="legendsymbols"><g class="legendpoints"/></g></g><rect class="legendtoggle" x="0" y="-9.5" width="122.71875" height="19" style="fill: rgb(0, 0, 0); fill-opacity: 0;"/></g></g></g><rect class="scrollbar" rx="20" ry="3" width="0" height="0" x="0" y="0" style="fill: rgb(128, 139, 164); fill-opacity: 1;"/></g><g class="g-gtitle"><text class="gtitle" x="51.2" y="50" text-anchor="start" dy="0em" style="font-family: 'Open Sans', verdana, arial, sans-serif; font-size: 17px; fill: rgb(42, 63, 95); opacity: 1; font-weight: normal; white-space: pre;">Training Metrics - logs/FakeNewsNet-politifact_max-vocab=15000_pre=v2_text_T=150_s=15.log</text></g><g class="g-xtitle"><text class="xtitle" x="510" y="537.3" text-anchor="middle" style="font-family: 'Open Sans', verdana, arial, sans-serif; font-size: 14px; fill: rgb(42, 63, 95); opacity: 1; font-weight: normal; white-space: pre;">Epoch</text></g><g class="g-ytitle"><text class="ytitle" transform="rotate(-90,110.965625,298)" x="110.965625" y="298" text-anchor="middle" style="font-family: 'Open Sans', verdana, arial, sans-serif; font-size: 14px; fill: rgb(42, 63, 95); opacity: 1; font-weight: normal; white-space: pre;">Metric Score</text></g></g><g class="menulayer"><g class="updatemenu-container" style="cursor: pointer;"><g class="updatemenu-header-group" transform="translate(12,60)"><g class="updatemenu-header" transform="translate(1,1)" style="pointer-events: all;"><rect class="updatemenu-item-rect" rx="2" ry="2" shape-rendering="crispEdges" x="0" y="0" width="174" height="33" style="stroke: rgb(190, 200, 217); stroke-opacity: 1; fill: rgb(255, 255, 255); fill-opacity: 1; stroke-width: 1px;"/><text class="updatemenu-item-text" text-anchor="start" data-notex="1" x="12" y="19.5" style="font-family: 'Open Sans', verdana, arial, sans-serif; font-size: 12px; fill: rgb(42, 63, 95); fill-opacity: 1; white-space: pre;">All</text></g><text class="updatemenu-header-arrow" text-anchor="end" x="170" y="19.5" style="font-family: 'Open Sans', verdana, arial, sans-serif; font-size: 12px; fill: rgb(42, 63, 95); fill-opacity: 1;">▼</text></g><g class="updatemenu-dropdown-button-group" updatemenu-active-index="-1" style="pointer-events: all;"><rect class="scrollbox-bg" opacity="0" x="0" y="0" width="0" height="0" style="pointer-events: all;"/></g></g></g></svg>