<svg class="main-svg" xmlns="http://www.w3.org/2000/svg" xmlns:xlink="http://www.w3.org/1999/xlink" width="1024" height="576" style="" viewBox="0 0 1024 576"><rect x="0" y="0" width="1024" height="576" style="fill: rgb(255, 255, 255); fill-opacity: 1;"/><defs id="defs-c0f021"><g class="clips"><clipPath id="clipc0f021xyplot" class="plotclip"><rect width="726" height="396"/></clipPath><clipPath class="axesclip" id="clipc0f021x"><rect x="143" y="0" width="726" height="576"/></clipPath><clipPath class="axesclip" id="clipc0f021y"><rect x="0" y="100" width="1024" height="396"/></clipPath><clipPath class="axesclip" id="clipc0f021xy"><rect x="143" y="100" width="726" height="396"/></clipPath></g><g class="gradients"/><g class="patterns"/></defs><g class="bglayer"><rect class="bg" x="143" y="100" width="726" height="396" style="fill: rgb(229, 236, 246); fill-opacity: 1; stroke-width: 0;"/></g><g class="layer-below"><g class="imagelayer"/><g class="shapelayer"/></g><g class="cartesianlayer"><g class="subplot xy"><g class="layer-subplot"><g class="shapelayer"/><g class="imagelayer"/></g><g class="minor-gridlayer"><g class="x"/><g class="y"/></g><g class="gridlayer"><g class="x"><path class="xgrid crisp" transform="translate(235.57999999999998,0)" d="M0,100v396" style="stroke: rgb(255, 255, 255); stroke-opacity: 1; stroke-width: 1px;"/><path class="xgrid crisp" transform="translate(333.03,0)" d="M0,100v396" style="stroke: rgb(255, 255, 255); stroke-opacity: 1; stroke-width: 1px;"/><path class="xgrid crisp" transform="translate(430.48,0)" d="M0,100v396" style="stroke: rgb(255, 255, 255); stroke-opacity: 1; stroke-width: 1px;"/><path class="xgrid crisp" transform="translate(527.9300000000001,0)" d="M0,100v396" style="stroke: rgb(255, 255, 255); stroke-opacity: 1; stroke-width: 1px;"/><path class="xgrid crisp" transform="translate(625.38,0)" d="M0,100v396" style="stroke: rgb(255, 255, 255); stroke-opacity: 1; stroke-width: 1px;"/><path class="xgrid crisp" transform="translate(722.83,0)" d="M0,100v396" style="stroke: rgb(255, 255, 255); stroke-opacity: 1; stroke-width: 1px;"/><path class="xgrid crisp" transform="translate(820.28,0)" d="M0,100v396" style="stroke: rgb(255, 255, 255); stroke-opacity: 1; stroke-width: 1px;"/></g><g class="y"><path class="ygrid crisp" transform="translate(0,493.32)" d="M143,0h726" style="stroke: rgb(255, 255, 255); stroke-opacity: 1; stroke-width: 1px;"/><path class="ygrid crisp" transform="translate(0,453.04)" d="M143,0h726" style="stroke: rgb(255, 255, 255); stroke-opacity: 1; stroke-width: 1px;"/><path class="ygrid crisp" transform="translate(0,412.77)" d="M143,0h726" style="stroke: rgb(255, 255, 255); stroke-opacity: 1; stroke-width: 1px;"/><path class="ygrid crisp" transform="translate(0,372.5)" d="M143,0h726" style="stroke: rgb(255, 255, 255); stroke-opacity: 1; stroke-width: 1px;"/><path class="ygrid crisp" transform="translate(0,332.23)" d="M143,0h726" style="stroke: rgb(255, 255, 255); stroke-opacity: 1; stroke-width: 1px;"/><path class="ygrid crisp" transform="translate(0,291.96000000000004)" d="M143,0h726" style="stroke: rgb(255, 255, 255); stroke-opacity: 1; stroke-width: 1px;"/><path class="ygrid crisp" transform="translate(0,251.69)" d="M143,0h726" style="stroke: rgb(255, 255, 255); stroke-opacity: 1; stroke-width: 1px;"/><path class="ygrid crisp" transform="translate(0,211.42000000000002)" d="M143,0h726" style="stroke: rgb(255, 255, 255); stroke-opacity: 1; stroke-width: 1px;"/><path class="ygrid crisp" transform="translate(0,171.15)" d="M143,0h726" style="stroke: rgb(255, 255, 255); stroke-opacity: 1; stroke-width: 1px;"/><path class="ygrid crisp" transform="translate(0,130.87)" d="M143,0h726" style="stroke: rgb(255, 255, 255); stroke-opacity: 1; stroke-width: 1px;"/></g></g><g class="zerolinelayer"/><path class="xlines-below"/><path class="ylines-below"/><g class="overlines-below"/><g class="xaxislayer-below"/><g class="yaxislayer-below"/><g class="overaxes-below"/><g class="plot" transform="translate(143,100)" clip-path="url(#clipc0f021xyplot)"><g class="scatterlayer mlayer"><g class="trace scatter tracea82422" style="stroke-miterlimit: 2; opacity: 1;"><g class="fills"/><g class="errorbars"/><g class="lines"><path class="js-line" d="M0,285.19L4.87,275.72L9.74,340.16L14.62,244.71L19.49,213.71L24.36,220.75L29.23,225.59L34.11,215.92L38.98,208.87L48.72,204.04L53.6,189.74L58.47,182.7L63.34,177.86L68.21,165.98L73.09,149.27L77.96,161.15L82.83,175.45L87.7,163.57L92.58,161.15L97.45,146.86L102.32,163.57L107.19,146.86L112.07,149.27L116.94,132.56L121.81,139.61L126.68,132.56L131.56,139.61L136.43,142.02L141.3,134.98L151.05,130.14L155.92,125.31L160.79,125.31L165.66,127.73L170.54,122.89L175.41,130.14L185.15,125.31L190.03,115.85L194.9,111.01L199.77,122.89L204.64,146.86L209.52,120.48L214.39,130.14L219.26,122.89L224.13,111.01L229.01,125.31L238.75,94.3L243.62,94.3L248.5,99.13L253.37,89.47L258.24,103.97L263.11,103.97L267.99,103.97L272.86,108.6L277.73,113.43L282.6,108.6L287.48,106.18L292.35,96.72L297.22,89.47L302.09,89.47L306.97,94.3L311.84,91.89L316.71,96.72L321.58,113.43L326.46,118.26L331.33,94.3L336.2,87.25L341.07,94.3L345.95,91.89L350.82,101.55L355.69,89.47L360.56,96.72L365.44,82.42L370.31,87.25L375.18,91.89L380.05,84.84L384.93,77.59L389.8,84.84L399.54,84.84L404.42,75.17L409.29,75.17L414.16,70.54L419.03,70.54L423.91,68.13L428.78,77.59L433.65,75.17L438.52,70.54L443.4,77.59L448.27,75.17L453.14,77.59L462.89,72.96L467.76,77.59L472.63,75.17L477.5,70.54L482.38,77.59L487.25,65.71L492.12,80.01L496.99,70.54L501.87,80.01L506.74,82.42L511.61,77.59L516.48,84.84L521.36,70.54L526.23,70.54L531.1,65.71L535.97,80.01L540.85,75.17L545.72,75.17L550.59,84.84L555.46,170.62L560.34,170.62L565.21,168.2L570.08,170.62L574.95,77.59L579.83,75.17L584.7,75.17L589.57,72.96L594.44,177.86L599.32,163.57L604.19,161.15L609.06,165.98L613.93,72.96L618.81,70.54L623.68,77.59L628.55,68.13L633.42,72.96L638.3,68.13L643.17,70.54L648.04,70.54L652.91,65.71L657.79,63.29L662.66,70.54L667.53,65.71L672.4,70.54L677.28,80.01L682.15,75.17L687.02,72.96L691.89,68.13L696.77,72.96L701.64,89.47L706.51,96.72L711.38,80.01L716.26,72.96L721.13,70.54L726,77.59" style="vector-effect: none; fill: none; stroke: rgb(255, 0, 0); stroke-opacity: 1; stroke-width: 2px; opacity: 1;"/></g><g class="points"/><g class="text"/></g><g class="trace scatter trace0e23c3" style="stroke-miterlimit: 2; opacity: 1;"><g class="fills"/><g class="errorbars"/><g class="lines"><path class="js-line" d="M0,275.92L4.87,200.01L9.74,361.5L14.62,209.48L19.49,152.49L24.36,180.88L29.23,200.01L34.11,190.35L38.98,200.01L43.85,190.35L48.72,190.35L53.6,171.42L58.47,171.42L63.34,171.42L68.21,161.96L73.09,180.88L77.96,190.35L97.45,190.35L102.32,209.48L107.19,180.88L112.07,190.35L116.94,180.88L121.81,180.88L126.68,171.42L131.56,209.48L136.43,190.35L141.3,190.35L146.17,180.88L151.05,161.96L155.92,171.42L160.79,228.4L165.66,218.94L170.54,190.35L175.41,200.01L180.28,180.88L185.15,143.03L190.03,152.49L194.9,180.88L199.77,180.88L204.64,190.35L209.52,180.88L214.39,209.48L219.26,161.96L224.13,190.35L229.01,161.96L233.88,152.49L238.75,171.42L243.62,161.96L248.5,161.96L253.37,152.49L258.24,152.49L263.11,143.03L267.99,143.03L272.86,152.49L277.73,143.03L282.6,171.42L287.48,190.35L292.35,152.49L297.22,161.96L302.09,171.42L306.97,200.01L311.84,209.48L316.71,152.49L321.58,171.42L326.46,200.01L331.33,171.42L336.2,161.96L341.07,152.49L345.95,171.42L350.82,152.49L355.69,171.42L360.56,171.42L365.44,190.35L370.31,161.96L375.18,171.42L380.05,171.42L384.93,200.01L389.8,161.96L394.67,171.42L399.54,190.35L404.42,161.96L409.29,171.42L414.16,152.49L419.03,190.35L423.91,190.35L433.65,171.42L438.52,171.42L443.4,180.88L448.27,171.42L453.14,161.96L458.01,161.96L462.89,161.96L467.76,180.88L472.63,161.96L477.5,161.96L482.38,180.88L487.25,171.42L492.12,180.88L496.99,171.42L501.87,200.01L506.74,190.35L511.61,180.88L516.48,180.88L521.36,200.01L526.23,200.01L531.1,180.88L535.97,171.42L545.72,152.49L550.59,152.49L555.46,342.37L560.34,351.84L565.21,342.37L570.08,342.37L574.95,171.42L579.83,180.88L584.7,190.35L589.57,171.42L594.44,370.96L599.32,361.5L604.19,370.96L609.06,342.37L613.93,161.96L618.81,171.42L623.68,171.42L628.55,190.35L633.42,190.35L638.3,180.88L643.17,171.42L648.04,171.42L652.91,180.88L657.79,171.42L662.66,171.42L667.53,180.88L672.4,161.96L677.28,171.42L682.15,161.96L687.02,171.42L691.89,161.96L696.77,161.96L701.64,171.42L706.51,152.49L716.26,171.42L721.13,161.96L726,161.96" style="vector-effect: none; fill: none; stroke: rgb(0, 0, 255); stroke-opacity: 1; stroke-width: 2px; opacity: 1;"/></g><g class="points"/><g class="text"/></g><g class="trace scatter tracef8f5b9" style="stroke-miterlimit: 2; opacity: 1;"><g class="fills"/><g class="errorbars"/><g class="lines"><path class="js-line" d="M0,297.47L4.87,283.78L9.74,296.66L14.62,254.98L19.49,205.25L24.36,202.23L29.23,191.15L34.11,205.05L38.98,174.44L43.85,195.58L48.72,203.84L53.6,177.86L58.47,177.46L63.34,175.25L68.21,160.95L73.09,124.71L77.96,122.69L82.83,126.52L87.7,122.49L97.45,101.75L102.32,106.38L107.19,103.97L112.07,115.85L116.94,105.17L121.81,112.22L126.68,117.46L131.56,124.71L136.43,122.29L141.3,110.21L146.17,113.23L151.05,111.22L155.92,107.59L160.79,107.59L165.66,104.77L170.54,105.58L175.41,114.24L180.28,115.04L185.15,113.03L190.03,98.53L194.9,93.29L199.77,112.22L204.64,144.44L209.52,105.17L214.39,121.89L219.26,101.15L224.13,90.27L229.01,109L233.88,83.43L238.75,62.08L248.5,61.68L253.37,56.65L258.24,64.9L263.11,56.25L267.99,67.12L272.86,72.56L277.73,85.44L282.6,83.43L287.48,84.84L292.35,63.9L297.22,60.47L302.09,60.47L306.97,62.08L311.84,56.45L316.71,71.15L321.58,104.37L326.46,113.83L331.33,81.21L336.2,58.66L341.07,69.33L345.95,72.35L350.82,85.64L355.69,65.71L360.56,77.59L365.44,58.66L370.31,65.51L375.18,72.35L380.05,56.85L384.93,46.18L389.8,51.41L399.54,51.41L404.42,34.5L409.29,36.51L414.16,26.85L419.03,29.06L423.91,25.24L428.78,49.8L433.65,44.37L438.52,26.85L443.4,46.18L448.27,47.99L453.14,47.99L458.01,44.37L462.89,42.75L467.76,47.99L472.63,42.55L477.5,26.85L482.38,38.32L487.25,29.87L492.12,45.98L496.99,37.32L501.87,56.85L506.74,55.24L511.61,51.61L516.48,60.47L521.36,35.3L526.23,33.29L531.1,27.85L535.97,45.98L540.85,38.73L545.72,42.55L550.59,62.08L555.46,158.74L560.34,158.74L565.21,162.16L570.08,162.96L574.95,38.32L579.83,34.5L584.7,32.28L589.57,38.93L594.44,172.63L599.32,155.31L604.19,154.51L609.06,156.12L613.93,40.94L618.81,40.94L623.68,55.04L628.55,39.33L633.42,38.93L638.3,29.47L643.17,33.29L648.04,33.29L652.91,29.87L657.79,19.8L662.66,29.06L667.53,27.85L672.4,33.29L677.28,55.04L682.15,47.99L687.02,46.38L691.89,37.32L696.77,46.38L701.64,71.95L706.51,81.82L711.38,58.46L716.26,46.38L721.13,39.13L726,55.04" style="vector-effect: none; fill: none; stroke: rgb(0, 128, 0); stroke-opacity: 1; stroke-width: 2px; opacity: 1;"/></g><g class="points"/><g class="text"/></g><g class="trace scatter trace40c6e5" style="stroke-miterlimit: 2; opacity: 1;"><g class="fills"/><g class="errorbars"/><g class="lines"><path class="js-line" d="M0,300.49L4.87,228.81L9.74,291.83L14.62,238.27L19.49,172.23L24.36,199.21L29.23,203.64L34.11,216.12L38.98,203.64L43.85,214.11L48.72,218.54L53.6,190.35L58.47,190.35L63.34,193.17L68.21,186.12L73.09,195.79L77.96,200.21L82.83,195.18L87.7,204.64L92.58,200.21L97.45,204.64L102.32,199.21L107.19,186.52L112.07,200.21L116.94,199.21L121.81,191.56L126.68,190.35L131.56,234.85L136.43,214.11L141.3,211.49L146.17,204.64L151.05,181.29L155.92,186.93L160.79,251.36L165.66,241.9L170.54,211.49L175.41,225.38L180.28,204.64L185.15,160.15L190.03,169.21L194.9,202.23L199.77,204.64L204.64,218.54L209.52,206.66L214.39,238.67L219.26,174.04L224.13,204.64L229.01,178.07L233.88,169.21L238.75,186.93L243.62,174.04L248.5,174.04L253.37,169.21L258.24,165.38L263.11,147.66L267.99,152.49L272.86,165.38L277.73,156.72L282.6,193.17L287.48,216.12L292.35,165.38L297.22,174.04L302.09,186.93L306.97,213.5L311.84,222.36L316.71,169.21L321.58,198.2L326.46,228.81L331.33,195.38L336.2,174.04L341.07,169.21L345.95,195.38L350.82,172.23L355.69,190.35L360.56,190.35L365.44,208.27L370.31,178.07L375.18,190.35L380.05,190.35L384.93,220.55L389.8,178.07L394.67,182.7L399.54,208.27L404.42,174.04L409.29,182.7L414.16,165.38L419.03,200.21L423.91,200.21L428.78,195.79L438.52,178.07L443.4,199.21L448.27,186.93L453.14,181.29L458.01,178.07L462.89,178.07L467.76,202.23L472.63,181.29L477.5,174.04L482.38,199.21L487.25,190.35L492.12,199.21L496.99,190.35L501.87,227.2L506.74,211.49L511.61,202.23L516.48,206.66L521.36,220.55L526.23,217.33L531.1,199.21L535.97,190.35L540.85,178.07L545.72,169.21L550.59,172.23L555.46,297.87L560.34,303.51L565.21,312.57L570.08,305.52L574.95,186.93L579.83,186.52L584.7,200.21L589.57,178.07L594.44,351.23L599.32,331.9L604.19,344.79L609.06,312.57L613.93,178.07L618.81,193.17L623.68,193.17L628.55,208.27L633.42,204.64L638.3,195.79L643.17,178.07L648.04,186.93L652.91,195.79L657.79,178.07L662.66,182.7L667.53,191.56L672.4,174.04L677.28,193.17L682.15,181.29L687.02,193.17L691.89,181.29L696.77,181.29L701.64,195.38L706.51,172.23L711.38,183.91L716.26,193.17L721.13,183.91L726,183.91" style="vector-effect: none; fill: none; stroke: rgb(255, 165, 0); stroke-opacity: 1; stroke-width: 2px; opacity: 1;"/></g><g class="points"/><g class="text"/></g><g class="trace scatter trace2d63c0" style="stroke-miterlimit: 2; opacity: 1;"><g class="fills"/><g class="errorbars"/><g class="lines"><path class="js-line" d="M0,294.65L4.87,299.08L9.74,298.48L14.62,258.81L19.49,247.13L29.23,273.91L34.11,251.56L38.98,255.59L43.85,240.89L48.72,230.22L53.6,223.37L58.47,210.89L63.34,203.64L68.21,192.56L73.09,186.12L82.83,224.58L87.7,208.67L92.58,209.07L97.45,191.96L102.32,214.31L107.19,191.15L112.07,190.15L116.94,169.41L121.81,177.06L126.68,163.17L131.56,170.82L136.43,176.05L146.17,165.38L151.05,162.56L155.92,156.92L160.79,156.92L165.66,162.16L170.54,154.1L175.41,160.95L180.28,156.52L185.15,153.7L190.03,146.25L194.9,141.42L199.77,150.08L204.64,169.81L209.52,150.48L214.39,156.32L219.26,156.52L224.13,143.03L229.01,156.12L238.75,130.14L243.62,130.14L248.5,137.39L253.37,125.31L258.24,143.23L263.11,146.25L267.99,142.43L272.86,147.26L277.73,149.07L282.6,142.63L292.35,132.96L297.22,123.7L302.09,123.7L306.97,130.14L311.84,128.93L316.71,129.94L321.58,138.8L326.46,140.41L331.33,120.68L336.2,120.88L341.07,127.12L345.95,121.89L350.82,130.14L355.69,121.28L360.56,126.72L365.44,113.63L375.18,121.89L380.05,118.06L384.93,111.82L389.8,120.48L399.54,120.48L404.42,113.03L409.29,112.22L414.16,108.8L419.03,107.99L423.91,105.98L428.78,110.21L433.65,109L438.52,108.8L443.4,111.82L448.27,107.39L453.14,111.01L462.89,106.18L467.76,111.01L477.5,108.8L482.38,115.04L487.25,100.75L492.12,115.44L496.99,104.97L501.87,110.81L506.74,115.24L511.61,109.6L516.48,116.45L521.36,105.78L526.23,106.58L531.1,101.55L535.97,115.44L540.85,111.42L545.72,109.81L550.59,115.65L555.46,143.03L560.34,143.03L570.08,146.25L574.95,115.04L579.83,113.03L584.7,113.83L589.57,107.79L594.44,155.51L599.32,138.4L604.19,137.19L609.06,139.81L613.93,106.99L618.81,103.36L623.68,107.99L628.55,100.54L633.42,107.79L638.3,104.37L643.17,106.58L648.04,106.58L652.91,100.75L657.79,101.15L662.66,107.99L667.53,101.55L672.4,106.58L677.28,111.62L682.15,107.39L691.89,101.35L696.77,104.57L701.64,118.26L706.51,124.3L711.38,110.01L716.26,104.57L721.13,104.17L726,107.99" style="vector-effect: none; fill: none; stroke: rgb(128, 0, 128); stroke-opacity: 1; stroke-width: 2px; opacity: 1;"/></g><g class="points"/><g class="text"/></g><g class="trace scatter trace88aec6" style="stroke-miterlimit: 2; opacity: 1;"><g class="fills"/><g class="errorbars"/><g class="lines"><path class="js-line" d="M0,268.88L4.87,219.55L9.74,271.9L14.62,216.32L19.49,187.53L29.23,268.27L34.11,222.97L38.98,268.27L43.85,228.2L48.72,212.09L53.6,213.3L58.47,213.3L63.34,207.87L68.21,189.54L73.09,231.63L77.96,249.95L82.83,255.19L87.7,244.51L92.58,249.95L97.45,244.51L102.32,291.83L107.19,242.3L112.07,249.95L116.94,226.19L121.81,237.06L126.68,213.3L131.56,248.74L136.43,228.2L141.3,233.64L146.17,215.32L151.05,200.42L155.92,218.74L160.79,279.95L165.66,267.07L170.54,233.64L175.41,235.85L180.28,215.32L185.15,179.88L190.03,192.76L194.9,220.75L199.77,215.32L204.64,212.09L209.52,210.08L214.39,232.63L219.26,211.09L224.13,244.51L229.01,205.85L233.88,192.76L238.75,218.74L243.62,211.09L248.5,211.09L253.37,192.76L258.24,198.2L263.11,196.19L267.99,190.75L272.86,198.2L277.73,185.31L282.6,207.87L287.48,222.97L292.35,198.2L297.22,211.09L302.09,218.74L306.97,257.4L311.84,270.29L316.71,192.76L321.58,191.76L326.46,219.55L331.33,202.43L336.2,211.09L341.07,192.76L345.95,202.43L350.82,187.53L355.69,213.3L360.56,213.3L365.44,239.08L370.31,205.85L375.18,213.3L380.05,213.3L384.93,246.53L389.8,205.85L394.67,223.97L399.54,239.08L404.42,211.09L409.29,223.97L414.16,198.2L419.03,249.95L423.91,249.95L428.78,231.63L433.65,218.74L438.52,229.41L443.4,226.19L448.27,218.74L453.14,200.42L458.01,205.85L462.89,205.85L467.76,220.75L472.63,200.42L477.5,211.09L482.38,226.19L487.25,213.3L492.12,226.19L496.99,213.3L501.87,230.42L506.74,233.64L511.61,220.75L516.48,210.08L521.36,246.53L526.23,251.96L531.1,226.19L535.97,213.3L540.85,205.85L545.72,192.76L550.59,187.53L555.46,267.67L560.34,275.12L565.21,278.34L570.08,272.9L574.95,218.74L579.83,242.3L584.7,249.95L589.57,229.41L594.44,317.2L599.32,298.88L604.19,311.77L609.06,278.34L613.93,205.85L618.81,207.87L623.68,207.87L628.55,239.08L633.42,244.51L638.3,231.63L643.17,229.41L648.04,218.74L652.91,231.63L657.79,229.41L662.66,223.97L667.53,237.06L672.4,211.09L677.28,207.87L682.15,200.42L687.02,207.87L691.89,200.42L696.77,200.42L701.64,202.43L706.51,187.53L711.38,194.98L716.26,207.87L721.13,194.98L726,194.98" style="vector-effect: none; fill: none; stroke: rgb(255, 192, 203); stroke-opacity: 1; stroke-width: 2px; opacity: 1;"/></g><g class="points"/><g class="text"/></g><g class="trace scatter tracedc965f" style="stroke-miterlimit: 2; opacity: 1;"><g class="fills"/><g class="errorbars"/><g class="lines"><path class="js-line" d="M0,296.06L4.87,293.44L9.74,340.16L14.62,257L19.49,235.25L29.23,258L34.11,239.08L38.98,239.08L43.85,228.4L48.72,221.36L53.6,210.48L58.47,200.21L63.34,193.97L73.09,169.81L77.96,186.52L82.83,205.05L87.7,189.74L92.58,188.94L97.45,172.03L102.32,193.37L107.19,171.62L112.07,172.03L116.94,152.29L121.81,160.15L126.68,149.27L131.56,156.92L136.43,160.75L141.3,154.31L146.17,150.28L151.05,147.66L155.92,142.22L160.79,142.22L165.66,146.05L170.54,139.61L175.41,146.86L185.15,140.81L190.03,131.75L194.9,126.72L199.77,137.79L204.64,160.75L209.52,136.39L214.39,144.84L219.26,140.61L224.13,127.53L229.01,141.82L238.75,111.62L243.62,111.62L248.5,117.86L253.37,106.58L258.24,123.3L263.11,124.91L267.99,122.89L272.86,127.93L277.73,131.55L282.6,125.71L287.48,122.29L292.35,114.44L297.22,105.78L302.09,105.78L306.97,111.62L311.84,109.6L316.71,113.03L321.58,127.12L326.46,130.95L331.33,107.79L336.2,103.16L341.07,110.21L345.95,106.58L350.82,116.05L355.69,104.77L360.56,111.62L365.44,97.12L370.31,101.95L375.18,106.58L380.05,100.54L384.93,93.29L389.8,101.55L399.54,101.55L404.42,92.29L409.29,91.89L414.16,87.46L419.03,87.25L423.91,84.84L428.78,92.69L433.65,90.68L438.52,87.46L443.4,93.29L448.27,90.07L453.14,93.09L462.89,88.06L467.76,93.09L472.63,90.88L477.5,87.46L482.38,94.7L487.25,81.21L492.12,96.32L496.99,85.84L501.87,94.5L506.74,97.72L511.61,92.49L516.48,99.74L521.36,86.25L526.23,86.45L531.1,81.41L535.97,96.32L540.85,91.68L545.72,90.88L550.59,99.54L555.46,171.62L560.34,171.62L565.21,169.61L570.08,172.03L574.95,94.7L579.83,92.29L584.7,92.69L589.57,88.66L594.44,179.48L599.32,164.78L604.19,162.36L609.06,166.99L613.93,88.26L618.81,85.24L623.68,91.68L628.55,82.62L633.42,88.66L638.3,84.23L643.17,86.45L648.04,86.45L652.91,81.21L657.79,79.8L662.66,87.25L667.53,81.41L672.4,86.45L677.28,94.7L682.15,90.07L687.02,87.25L691.89,82.82L696.77,87.25L701.64,103.56L706.51,110.61L711.38,94.1L716.26,87.25L721.13,85.64L726,91.68" style="vector-effect: none; fill: none; stroke: rgb(165, 42, 42); stroke-opacity: 1; stroke-width: 2px; opacity: 1;"/></g><g class="points"/><g class="text"/></g><g class="trace scatter tracedd71de" style="stroke-miterlimit: 2; opacity: 1;"><g class="fills"/><g class="errorbars"/><g class="lines"><path class="js-line" d="M0,293.24L4.87,224.58L9.74,362.11L14.62,230.02L19.49,180.48L29.23,246.73L34.11,219.55L38.98,246.73L43.85,221.96L48.72,215.52L53.6,203.44L58.47,203.44L63.34,201.22L68.21,187.93L73.09,217.33L77.96,231.83L82.83,234.65L87.7,229.21L92.58,231.83L97.45,229.21L102.32,265.45L107.19,222.57L112.07,231.83L116.94,214.91L121.81,219.95L126.68,203.44L131.56,242.5L136.43,221.96L141.3,224.18L146.17,210.48L151.05,191.96L155.92,205.65L160.79,268.47L165.66,256.59L170.54,224.18L175.41,231.02L180.28,210.48L185.15,171.22L190.03,182.7L194.9,212.7L199.77,210.48L204.64,215.52L209.52,208.27L214.39,235.85L219.26,196.39L224.13,229.21L229.01,194.17L233.88,182.7L238.75,205.65L243.62,196.39L248.5,196.39L253.37,182.7L258.24,184.91L263.11,177.66L267.99,175.45L272.86,184.91L277.73,173.23L282.6,201.22L287.48,219.55L292.35,184.91L297.22,196.39L302.09,205.65L306.97,241.09L311.84,252.97L316.71,182.7L321.58,195.18L326.46,224.58L331.33,199.01L336.2,196.39L341.07,182.7L345.95,199.01L350.82,180.48L355.69,203.44L360.56,203.44L365.44,226.59L370.31,194.17L375.18,203.44L380.05,203.44L384.93,235.85L389.8,194.17L394.67,208.07L399.54,226.59L404.42,196.39L409.29,208.07L414.16,184.91L419.03,231.83L423.91,231.83L428.78,217.33L433.65,205.65L443.4,214.91L448.27,205.65L453.14,191.96L458.01,194.17L462.89,194.17L467.76,212.7L472.63,191.96L477.5,196.39L482.38,214.91L487.25,203.44L492.12,214.91L496.99,203.44L501.87,228.81L506.74,224.18L511.61,212.7L516.48,208.27L521.36,235.85L526.23,238.47L531.1,214.91L535.97,203.44L540.85,194.17L545.72,182.7L550.59,180.48L555.46,344.59L560.34,353.85L565.21,346.2L570.08,345.39L574.95,205.65L579.83,222.57L584.7,231.83L589.57,210.69L594.44,376.2L599.32,365.33L604.19,375.19L609.06,346.2L613.93,194.17L618.81,201.22L623.68,201.22L628.55,226.59L633.42,229.21L638.3,217.33L643.17,210.69L648.04,205.65L652.91,217.33L657.79,210.69L662.66,208.07L667.53,219.95L672.4,196.39L677.28,201.22L682.15,191.96L687.02,201.22L691.89,191.96L696.77,191.96L701.64,199.01L706.51,180.48L711.38,189.95L716.26,201.22L721.13,189.95L726,189.95" style="vector-effect: none; fill: none; stroke: rgb(128, 128, 128); stroke-opacity: 1; stroke-width: 2px; opacity: 1;"/></g><g class="points"/><g class="text"/></g></g></g><g class="overplot"/><path class="xlines-above crisp" d="M0,0" style="fill: none;"/><path class="ylines-above crisp" d="M0,0" style="fill: none;"/><g class="overlines-above"/><g class="xaxislayer-above"><g class="xtick"><text text-anchor="middle" x="0" y="509" transform="translate(235.57999999999998,0)" style="font-family: 'Open Sans', verdana, arial, sans-serif; font-size: 12px; fill: rgb(42, 63, 95); fill-opacity: 1; white-space: pre; opacity: 1;">20</text></g><g class="xtick"><text text-anchor="middle" x="0" y="509" style="font-family: 'Open Sans', verdana, arial, sans-serif; font-size: 12px; fill: rgb(42, 63, 95); fill-opacity: 1; white-space: pre; opacity: 1;" transform="translate(333.03,0)">40</text></g><g class="xtick"><text text-anchor="middle" x="0" y="509" style="font-family: 'Open Sans', verdana, arial, sans-serif; font-size: 12px; fill: rgb(42, 63, 95); fill-opacity: 1; white-space: pre; opacity: 1;" transform="translate(430.48,0)">60</text></g><g class="xtick"><text text-anchor="middle" x="0" y="509" style="font-family: 'Open Sans', verdana, arial, sans-serif; font-size: 12px; fill: rgb(42, 63, 95); fill-opacity: 1; white-space: pre; opacity: 1;" transform="translate(527.9300000000001,0)">80</text></g><g class="xtick"><text text-anchor="middle" x="0" y="509" style="font-family: 'Open Sans', verdana, arial, sans-serif; font-size: 12px; fill: rgb(42, 63, 95); fill-opacity: 1; white-space: pre; opacity: 1;" transform="translate(625.38,0)">100</text></g><g class="xtick"><text text-anchor="middle" x="0" y="509" style="font-family: 'Open Sans', verdana, arial, sans-serif; font-size: 12px; fill: rgb(42, 63, 95); fill-opacity: 1; white-space: pre; opacity: 1;" transform="translate(722.83,0)">120</text></g><g class="xtick"><text text-anchor="middle" x="0" y="509" style="font-family: 'Open Sans', verdana, arial, sans-serif; font-size: 12px; fill: rgb(42, 63, 95); fill-opacity: 1; white-space: pre; opacity: 1;" transform="translate(820.28,0)">140</text></g></g><g class="yaxislayer-above"><g class="ytick"><text text-anchor="end" x="142" y="4.199999999999999" transform="translate(0,493.32)" style="font-family: 'Open Sans', verdana, arial, sans-serif; font-size: 12px; fill: rgb(42, 63, 95); fill-opacity: 1; white-space: pre; opacity: 1;">72</text></g><g class="ytick"><text text-anchor="end" x="142" y="4.199999999999999" style="font-family: 'Open Sans', verdana, arial, sans-serif; font-size: 12px; fill: rgb(42, 63, 95); fill-opacity: 1; white-space: pre; opacity: 1;" transform="translate(0,453.04)">74</text></g><g class="ytick"><text text-anchor="end" x="142" y="4.199999999999999" style="font-family: 'Open Sans', verdana, arial, sans-serif; font-size: 12px; fill: rgb(42, 63, 95); fill-opacity: 1; white-space: pre; opacity: 1;" transform="translate(0,412.77)">76</text></g><g class="ytick"><text text-anchor="end" x="142" y="4.199999999999999" style="font-family: 'Open Sans', verdana, arial, sans-serif; font-size: 12px; fill: rgb(42, 63, 95); fill-opacity: 1; white-space: pre; opacity: 1;" transform="translate(0,372.5)">78</text></g><g class="ytick"><text text-anchor="end" x="142" y="4.199999999999999" style="font-family: 'Open Sans', verdana, arial, sans-serif; font-size: 12px; fill: rgb(42, 63, 95); fill-opacity: 1; white-space: pre; opacity: 1;" transform="translate(0,332.23)">80</text></g><g class="ytick"><text text-anchor="end" x="142" y="4.199999999999999" style="font-family: 'Open Sans', verdana, arial, sans-serif; font-size: 12px; fill: rgb(42, 63, 95); fill-opacity: 1; white-space: pre; opacity: 1;" transform="translate(0,291.96000000000004)">82</text></g><g class="ytick"><text text-anchor="end" x="142" y="4.199999999999999" style="font-family: 'Open Sans', verdana, arial, sans-serif; font-size: 12px; fill: rgb(42, 63, 95); fill-opacity: 1; white-space: pre; opacity: 1;" transform="translate(0,251.69)">84</text></g><g class="ytick"><text text-anchor="end" x="142" y="4.199999999999999" style="font-family: 'Open Sans', verdana, arial, sans-serif; font-size: 12px; fill: rgb(42, 63, 95); fill-opacity: 1; white-space: pre; opacity: 1;" transform="translate(0,211.42000000000002)">86</text></g><g class="ytick"><text text-anchor="end" x="142" y="4.199999999999999" style="font-family: 'Open Sans', verdana, arial, sans-serif; font-size: 12px; fill: rgb(42, 63, 95); fill-opacity: 1; white-space: pre; opacity: 1;" transform="translate(0,171.15)">88</text></g><g class="ytick"><text text-anchor="end" x="142" y="4.199999999999999" style="font-family: 'Open Sans', verdana, arial, sans-serif; font-size: 12px; fill: rgb(42, 63, 95); fill-opacity: 1; white-space: pre; opacity: 1;" transform="translate(0,130.87)">90</text></g></g><g class="overaxes-above"/></g></g><g class="polarlayer"/><g class="smithlayer"/><g class="ternarylayer"/><g class="geolayer"/><g class="funnelarealayer"/><g class="pielayer"/><g class="iciclelayer"/><g class="treemaplayer"/><g class="sunburstlayer"/><g class="glimages"/><defs id="topdefs-c0f021"><g class="clips"/><clipPath id="legendc0f021"><rect width="128" height="162" x="0" y="0"/></clipPath></defs><g class="layer-above"><g class="imagelayer"/><g class="shapelayer"/></g><g class="infolayer"><g class="legend" pointer-events="all" transform="translate(883.52,100)"><rect class="bg" shape-rendering="crispEdges" width="128" height="162" x="0" y="0" style="stroke: rgb(68, 68, 68); stroke-opacity: 1; fill: rgb(255, 255, 255); fill-opacity: 1; stroke-width: 0px;"/><g class="scrollbox" transform="" clip-path="url(#legendc0f021)"><g class="groups"><g class="traces" transform="translate(0,14.5)" style="opacity: 1;"><text class="legendtext" text-anchor="start" x="40" y="4.680000000000001" style="font-family: 'Open Sans', verdana, arial, sans-serif; font-size: 12px; fill: rgb(42, 63, 95); fill-opacity: 1; white-space: pre;">Train Accuracy</text><g class="layers" style="opacity: 1;"><g class="legendfill"/><g class="legendlines"><path class="js-line" d="M5,0h30" style="fill: none; stroke: rgb(255, 0, 0); stroke-opacity: 1; stroke-width: 2px;"/></g><g class="legendsymbols"><g class="legendpoints"/></g></g><rect class="legendtoggle" x="0" y="-9.5" width="122.71875" height="19" style="fill: rgb(0, 0, 0); fill-opacity: 0;"/></g><g class="traces" transform="translate(0,33.5)" style="opacity: 1;"><text class="legendtext" text-anchor="start" x="40" y="4.680000000000001" style="font-family: 'Open Sans', verdana, arial, sans-serif; font-size: 12px; fill: rgb(42, 63, 95); fill-opacity: 1; white-space: pre;">Test Accuracy</text><g class="layers" style="opacity: 1;"><g class="legendfill"/><g class="legendlines"><path class="js-line" d="M5,0h30" style="fill: none; stroke: rgb(0, 0, 255); stroke-opacity: 1; stroke-width: 2px;"/></g><g class="legendsymbols"><g class="legendpoints"/></g></g><rect class="legendtoggle" x="0" y="-9.5" width="122.71875" height="19" style="fill: rgb(0, 0, 0); fill-opacity: 0;"/></g><g class="traces" transform="translate(0,52.5)" style="opacity: 1;"><text class="legendtext" text-anchor="start" x="40" y="4.680000000000001" style="font-family: 'Open Sans', verdana, arial, sans-serif; font-size: 12px; fill: rgb(42, 63, 95); fill-opacity: 1; white-space: pre;">Train Precision</text><g class="layers" style="opacity: 1;"><g class="legendfill"/><g class="legendlines"><path class="js-line" d="M5,0h30" style="fill: none; stroke: rgb(0, 128, 0); stroke-opacity: 1; stroke-width: 2px;"/></g><g class="legendsymbols"><g class="legendpoints"/></g></g><rect class="legendtoggle" x="0" y="-9.5" width="122.71875" height="19" style="fill: rgb(0, 0, 0); fill-opacity: 0;"/></g><g class="traces" transform="translate(0,71.5)" style="opacity: 1;"><text class="legendtext" text-anchor="start" x="40" y="4.680000000000001" style="font-family: 'Open Sans', verdana, arial, sans-serif; font-size: 12px; fill: rgb(42, 63, 95); fill-opacity: 1; white-space: pre;">Test Precision</text><g class="layers" style="opacity: 1;"><g class="legendfill"/><g class="legendlines"><path class="js-line" d="M5,0h30" style="fill: none; stroke: rgb(255, 165, 0); stroke-opacity: 1; stroke-width: 2px;"/></g><g class="legendsymbols"><g class="legendpoints"/></g></g><rect class="legendtoggle" x="0" y="-9.5" width="122.71875" height="19" style="fill: rgb(0, 0, 0); fill-opacity: 0;"/></g><g class="traces" transform="translate(0,90.5)" style="opacity: 1;"><text class="legendtext" text-anchor="start" x="40" y="4.680000000000001" style="font-family: 'Open Sans', verdana, arial, sans-serif; font-size: 12px; fill: rgb(42, 63, 95); fill-opacity: 1; white-space: pre;">Train Recall</text><g class="layers" style="opacity: 1;"><g class="legendfill"/><g class="legendlines"><path class="js-line" d="M5,0h30" style="fill: none; stroke: rgb(128, 0, 128); stroke-opacity: 1; stroke-width: 2px;"/></g><g class="legendsymbols"><g class="legendpoints"/></g></g><rect class="legendtoggle" x="0" y="-9.5" width="122.71875" height="19" style="fill: rgb(0, 0, 0); fill-opacity: 0;"/></g><g class="traces" transform="translate(0,109.5)" style="opacity: 1;"><text class="legendtext" text-anchor="start" x="40" y="4.680000000000001" style="font-family: 'Open Sans', verdana, arial, sans-serif; font-size: 12px; fill: rgb(42, 63, 95); fill-opacity: 1; white-space: pre;">Test Recall</text><g class="layers" style="opacity: 1;"><g class="legendfill"/><g class="legendlines"><path class="js-line" d="M5,0h30" style="fill: none; stroke: rgb(255, 192, 203); stroke-opacity: 1; stroke-width: 2px;"/></g><g class="legendsymbols"><g class="legendpoints"/></g></g><rect class="legendtoggle" x="0" y="-9.5" width="122.71875" height="19" style="fill: rgb(0, 0, 0); fill-opacity: 0;"/></g><g class="traces" transform="translate(0,128.5)" style="opacity: 1;"><text class="legendtext" text-anchor="start" x="40" y="4.680000000000001" style="font-family: 'Open Sans', verdana, arial, sans-serif; font-size: 12px; fill: rgb(42, 63, 95); fill-opacity: 1; white-space: pre;">Train F1</text><g class="layers" style="opacity: 1;"><g class="legendfill"/><g class="legendlines"><path class="js-line" d="M5,0h30" style="fill: none; stroke: rgb(165, 42, 42); stroke-opacity: 1; stroke-width: 2px;"/></g><g class="legendsymbols"><g class="legendpoints"/></g></g><rect class="legendtoggle" x="0" y="-9.5" width="122.71875" height="19" style="fill: rgb(0, 0, 0); fill-opacity: 0;"/></g><g class="traces" transform="translate(0,147.5)" style="opacity: 1;"><text class="legendtext" text-anchor="start" x="40" y="4.680000000000001" style="font-family: 'Open Sans', verdana, arial, sans-serif; font-size: 12px; fill: rgb(42, 63, 95); fill-opacity: 1; white-space: pre;">Test F1</text><g class="layers" style="opacity: 1;"><g class="legendfill"/><g class="legendlines"><path class="js-line" d="M5,0h30" style="fill: none; stroke: rgb(128, 128, 128); stroke-opacity: 1; stroke-width: 2px;"/></g><g class="legendsymbols"><g class="legendpoints"/></g></g><rect class="legendtoggle" x="0" y="-9.5" width="122.71875" height="19" style="fill: rgb(0, 0, 0); fill-opacity: 0;"/></g></g></g><rect class="scrollbar" rx="20" ry="3" width="0" height="0" x="0" y="0" style="fill: rgb(128, 139, 164); fill-opacity: 1;"/></g><g class="g-gtitle"><text class="gtitle" x="51.2" y="50" text-anchor="start" dy="0em" style="font-family: 'Open Sans', verdana, arial, sans-serif; font-size: 17px; fill: rgb(42, 63, 95); opacity: 1; font-weight: normal; white-space: pre;">Training Metrics - logs/FakeNewsNet-politifact_max-vocab=15000_pre=v2_domain_T=200_s=15.log</text></g><g class="g-xtitle"><text class="xtitle" x="506" y="537.3" text-anchor="middle" style="font-family: 'Open Sans', verdana, arial, sans-serif; font-size: 14px; fill: rgb(42, 63, 95); opacity: 1; font-weight: normal; white-space: pre;">Epoch</text></g><g class="g-ytitle"><text class="ytitle" transform="rotate(-90,103.965625,298)" x="103.965625" y="298" text-anchor="middle" style="font-family: 'Open Sans', verdana, arial, sans-serif; font-size: 14px; fill: rgb(42, 63, 95); opacity: 1; font-weight: normal; white-space: pre;">Metric Score</text></g></g><g class="menulayer"><g class="updatemenu-container" style="cursor: pointer;"><g class="updatemenu-header-group" transform="translate(12,60)"><g class="updatemenu-header" transform="translate(1,1)" style="pointer-events: all;"><rect class="updatemenu-item-rect" rx="2" ry="2" shape-rendering="crispEdges" x="0" y="0" width="167" height="33" style="stroke: rgb(190, 200, 217); stroke-opacity: 1; fill: rgb(255, 255, 255); fill-opacity: 1; stroke-width: 1px;"/><text class="updatemenu-item-text" text-anchor="start" data-notex="1" x="12" y="19.5" style="font-family: 'Open Sans', verdana, arial, sans-serif; font-size: 12px; fill: rgb(42, 63, 95); fill-opacity: 1; white-space: pre;">All</text></g><text class="updatemenu-header-arrow" text-anchor="end" x="163" y="19.5" style="font-family: 'Open Sans', verdana, arial, sans-serif; font-size: 12px; fill: rgb(42, 63, 95); fill-opacity: 1;">▼</text></g><g class="updatemenu-dropdown-button-group" updatemenu-active-index="-1" style="pointer-events: all;"><rect class="scrollbox-bg" opacity="0" x="0" y="0" width="0" height="0" style="pointer-events: all;"/></g></g></g></svg>