<svg class="main-svg" xmlns="http://www.w3.org/2000/svg" xmlns:xlink="http://www.w3.org/1999/xlink" width="1024" height="576" style="" viewBox="0 0 1024 576"><rect x="0" y="0" width="1024" height="576" style="fill: rgb(255, 255, 255); fill-opacity: 1;"/><defs id="defs-a73a0e"><g class="clips"><clipPath id="clipa73a0exyplot" class="plotclip"><rect width="725" height="396"/></clipPath><clipPath class="axesclip" id="clipa73a0ex"><rect x="144" y="0" width="725" height="576"/></clipPath><clipPath class="axesclip" id="clipa73a0ey"><rect x="0" y="100" width="1024" height="396"/></clipPath><clipPath class="axesclip" id="clipa73a0exy"><rect x="144" y="100" width="725" height="396"/></clipPath></g><g class="gradients"/><g class="patterns"/></defs><g class="bglayer"><rect class="bg" x="144" y="100" width="725" height="396" style="fill: rgb(229, 236, 246); fill-opacity: 1; stroke-width: 0;"/></g><g class="layer-below"><g class="imagelayer"/><g class="shapelayer"/></g><g class="cartesianlayer"><g class="subplot xy"><g class="layer-subplot"><g class="shapelayer"/><g class="imagelayer"/></g><g class="minor-gridlayer"><g class="x"/><g class="y"/></g><g class="gridlayer"><g class="x"><path class="xgrid crisp" transform="translate(236.45,0)" d="M0,100v396" style="stroke: rgb(255, 255, 255); stroke-opacity: 1; stroke-width: 1px;"/><path class="xgrid crisp" transform="translate(333.77,0)" d="M0,100v396" style="stroke: rgb(255, 255, 255); stroke-opacity: 1; stroke-width: 1px;"/><path class="xgrid crisp" transform="translate(431.08,0)" d="M0,100v396" style="stroke: rgb(255, 255, 255); stroke-opacity: 1; stroke-width: 1px;"/><path class="xgrid crisp" transform="translate(528.4,0)" d="M0,100v396" style="stroke: rgb(255, 255, 255); stroke-opacity: 1; stroke-width: 1px;"/><path class="xgrid crisp" transform="translate(625.71,0)" d="M0,100v396" style="stroke: rgb(255, 255, 255); stroke-opacity: 1; stroke-width: 1px;"/><path class="xgrid crisp" transform="translate(723.03,0)" d="M0,100v396" style="stroke: rgb(255, 255, 255); stroke-opacity: 1; stroke-width: 1px;"/><path class="xgrid crisp" transform="translate(820.34,0)" d="M0,100v396" style="stroke: rgb(255, 255, 255); stroke-opacity: 1; stroke-width: 1px;"/></g><g class="y"><path class="ygrid crisp" transform="translate(0,486.39)" d="M144,0h725" style="stroke: rgb(255, 255, 255); stroke-opacity: 1; stroke-width: 1px;"/><path class="ygrid crisp" transform="translate(0,422.7)" d="M144,0h725" style="stroke: rgb(255, 255, 255); stroke-opacity: 1; stroke-width: 1px;"/><path class="ygrid crisp" transform="translate(0,359.01)" d="M144,0h725" style="stroke: rgb(255, 255, 255); stroke-opacity: 1; stroke-width: 1px;"/><path class="ygrid crisp" transform="translate(0,295.33000000000004)" d="M144,0h725" style="stroke: rgb(255, 255, 255); stroke-opacity: 1; stroke-width: 1px;"/><path class="ygrid crisp" transform="translate(0,231.64)" d="M144,0h725" style="stroke: rgb(255, 255, 255); stroke-opacity: 1; stroke-width: 1px;"/><path class="ygrid crisp" transform="translate(0,167.95)" d="M144,0h725" style="stroke: rgb(255, 255, 255); stroke-opacity: 1; stroke-width: 1px;"/><path class="ygrid crisp" transform="translate(0,104.26)" d="M144,0h725" style="stroke: rgb(255, 255, 255); stroke-opacity: 1; stroke-width: 1px;"/></g></g><g class="zerolinelayer"/><path class="xlines-below"/><path class="ylines-below"/><g class="overlines-below"/><g class="xaxislayer-below"/><g class="yaxislayer-below"/><g class="overaxes-below"/><g class="plot" transform="translate(144,100)" clip-path="url(#clipa73a0exyplot)"><g class="scatterlayer mlayer"><g class="trace scatter traceb98a34" style="stroke-miterlimit: 2; opacity: 1;"><g class="fills"/><g class="errorbars"/><g class="lines"><path class="js-line" d="M0,206.92L4.87,176.79L9.73,165.46L14.6,132.97L19.46,128.45L24.33,115.65L29.19,64.32L34.06,48.46L38.93,125.46L43.79,65.08L48.66,117.18L53.52,129.98L58.39,129.98L63.26,126.22L68.12,120.94L77.85,105.08L82.72,91.51L87.58,69.6L92.45,68.84L97.32,91.51L102.18,58.27L107.05,53.75L111.91,40.94L116.78,49.99L121.64,67.38L126.51,86.23L131.38,47.7L136.24,50.75L141.11,33.37L145.97,25.85L150.84,37.89L155.7,46.23L160.57,41.71L165.44,34.13L170.3,32.6L175.17,28.08L180.03,30.37L184.9,30.37L189.77,44.7L194.63,43.17L199.5,45.47L204.36,81.71L209.23,77.18L214.09,83.93L218.96,24.32L223.83,23.56L228.69,26.61L233.56,105.08L238.42,73.36L243.29,74.13L248.15,62.79L253.02,59.8L257.89,22.09L262.75,25.09L267.62,25.09L272.48,34.89L277.35,30.37L282.21,24.32L287.08,69.6L291.95,77.88L296.81,63.55L301.68,65.85L306.54,76.42L311.41,23.56L316.28,25.09L321.14,25.85L326.01,23.56L330.87,22.79L335.74,29.61L340.6,28.08L345.47,20.56L350.34,26.61L355.2,23.56L364.93,19.8L369.8,24.32L374.66,21.33L379.53,22.09L384.4,22.09L389.26,20.56L394.13,24.32L398.99,99.79L403.86,95.27L408.72,71.9L413.59,85.46L418.46,81.71L423.32,95.27L428.19,85.46L433.05,89.22L437.92,88.46L442.79,86.23L447.65,87.69L452.52,87.69L457.38,85.46L462.25,37.19L467.11,34.89L471.98,40.18L476.85,34.89L481.71,31.9L486.58,35.66L491.44,34.13L496.31,45.47L501.17,44.7L506.04,33.37L510.91,46.99L515.77,51.52L525.5,20.56L530.37,34.89L535.23,37.19L540.1,60.56L544.97,35.66L549.83,34.89L554.7,35.66L559.56,34.13L564.43,33.37L569.3,35.66L574.16,39.42L579.03,35.66L583.89,38.65L588.76,37.19L598.49,34.89L603.36,35.66L617.95,38.65L622.82,40.94L632.55,35.66L637.42,37.19L642.28,38.65L647.15,37.19L656.88,34.89L661.74,35.66L666.61,35.66L671.48,34.89L676.34,20.56L681.21,22.09L686.07,22.79L690.94,25.09L695.81,22.79L700.67,25.09L705.54,24.32L710.4,22.09L720.13,22.79L725,20.56" style="vector-effect: none; fill: none; stroke: rgb(255, 0, 0); stroke-opacity: 1; stroke-width: 2px; opacity: 1;"/></g><g class="points"/><g class="text"/></g><g class="trace scatter tracea004b1" style="stroke-miterlimit: 2; opacity: 1;"><g class="fills"/><g class="errorbars"/><g class="lines"><path class="js-line" d="M0,174.88L9.73,168.89L14.6,141.83L19.46,144.88L24.33,141.83L29.19,96.8L34.06,93.81L38.93,159.85L43.79,93.81L48.66,135.84L53.52,144.88L63.26,144.88L68.12,141.83L77.85,129.85L82.72,120.81L87.58,102.79L92.45,105.78L97.32,123.8L102.18,99.79L107.05,90.75L111.91,87.76L121.64,99.79L126.51,123.8L131.38,93.81L136.24,96.8L141.11,96.8L145.97,87.76L150.84,96.8L155.7,99.79L160.57,96.8L165.44,90.75L170.3,96.8L175.17,87.76L180.03,87.76L184.9,78.78L189.77,96.8L194.63,99.79L199.5,93.81L204.36,129.85L209.23,129.85L214.09,132.85L218.96,78.78L223.83,96.8L228.69,81.77L233.56,147.88L238.42,123.8L243.29,129.85L248.15,120.81L253.02,117.82L257.89,90.75L262.75,81.77L267.62,84.76L272.48,90.75L277.35,90.75L282.21,84.76L287.08,120.81L291.95,126.86L296.81,111.83L301.68,117.82L306.54,129.85L311.41,78.78L316.28,75.78L321.14,75.78L330.87,81.77L335.74,87.76L340.6,81.77L345.47,81.77L350.34,78.78L355.2,72.73L360.07,78.78L364.93,81.77L369.8,87.76L374.66,75.78L379.53,78.78L384.4,66.74L389.26,69.73L394.13,69.73L398.99,141.83L403.86,141.83L408.72,117.82L413.59,126.86L418.46,126.86L423.32,141.83L428.19,126.86L433.05,126.86L437.92,129.85L442.79,129.85L447.65,129.85L452.52,132.85L457.38,129.85L462.25,96.8L467.11,90.75L471.98,90.75L481.71,84.76L486.58,84.76L491.44,78.78L496.31,93.81L501.17,99.79L506.04,81.77L510.91,99.79L515.77,99.79L520.64,81.77L525.5,69.73L530.37,81.77L535.23,81.77L540.1,108.84L544.97,81.77L549.83,87.76L554.7,87.76L559.56,81.77L564.43,81.77L569.3,84.76L574.16,81.77L579.03,81.77L583.89,87.76L588.76,87.76L593.62,84.76L598.49,87.76L603.36,93.81L608.22,93.81L613.09,90.75L617.95,93.81L622.82,90.75L627.68,96.8L632.55,99.79L637.42,99.79L642.28,96.8L656.88,96.8L661.74,93.81L666.61,96.8L671.48,93.81L676.34,75.78L681.21,75.78L690.94,75.78L695.81,69.73L700.67,75.78L705.54,69.73L715.27,69.73L720.13,72.73L725,69.73" style="vector-effect: none; fill: none; stroke: rgb(0, 0, 255); stroke-opacity: 1; stroke-width: 2px; opacity: 1;"/></g><g class="points"/><g class="text"/></g><g class="trace scatter traceeb8b3a" style="stroke-miterlimit: 2; opacity: 1;"><g class="fills"/><g class="errorbars"/><g class="lines"><path class="js-line" d="M0,73.94L4.87,84.76L9.73,88.52L14.6,78.97L19.46,75.72L24.33,67.12L29.19,46.99L34.06,45.66L38.93,84.76L43.79,45.15L48.66,71.32L53.52,76.8L58.39,76.8L63.26,74.19L68.12,70.62L72.99,65.66L77.85,63.3L82.72,55.78L87.58,45.66L92.45,43.24L97.32,55.78L102.18,37.12L107.05,34.89L111.91,30.56L116.78,35.28L126.51,53.55L131.38,32.92L136.24,32.03L141.11,28.33L145.97,25.85L150.84,25.85L155.7,30.44L160.57,27.95L165.44,25.98L170.3,27.32L175.17,23.68L180.03,27.12L184.9,32.92L189.77,44.96L194.63,43.17L199.5,45.34L204.36,65.91L209.23,62.98L214.09,67.31L218.96,25.79L223.83,24.9L228.69,27.63L233.56,74.83L238.42,59.92L243.29,59.29L248.15,53.87L253.02,51.77L257.89,22.92L262.75,25.85L267.62,25.85L272.48,31.65L277.35,30.82L282.21,24.51L287.08,59.54L291.95,62.85L296.81,55.34L301.68,56.42L306.54,61.9L311.41,25.09L316.28,26.81L321.14,28.08L326.01,25.21L330.87,24.39L335.74,32.41L340.6,30.82L345.47,21.33L350.34,29.23L355.2,25.79L360.07,22.22L364.93,21.39L369.8,26.11L374.66,22.47L384.4,22.92L389.26,21.33L394.13,25.91L398.99,71.9L403.86,69.35L408.72,58.4L413.59,65.72L418.46,62.09L423.32,67.82L428.19,63.68L433.05,67.31L437.92,66.87L442.79,64.83L447.65,66.42L452.52,67.76L457.38,65.02L462.25,37.82L467.11,35.47L471.98,39.93L476.85,35.66L481.71,32.86L486.58,35.91L491.44,34.64L496.31,41.65L501.17,40.31L506.04,34.19L510.91,42.79L515.77,45.78L520.64,36.1L525.5,22.41L530.37,35.28L535.23,37.19L540.1,50.82L544.97,35.4L549.83,34.77L554.7,35.15L559.56,33.88L564.43,33.49L574.16,38.52L579.03,35.4L583.89,38.4L588.76,37.38L598.49,35.28L603.36,36.1L613.09,36.93L617.95,38.14L622.82,40.82L627.68,38.01L632.55,36.1L637.42,37.82L642.28,38.91L647.15,37.63L656.88,35.28L661.74,35.91L671.48,35.02L676.34,22.09L681.21,24L686.07,24.7L690.94,27.06L695.81,24.83L700.67,27.32L705.54,26.49L710.4,24.39L715.27,24.39L720.13,25.34L725,22.98" style="vector-effect: none; fill: none; stroke: rgb(0, 128, 0); stroke-opacity: 1; stroke-width: 2px; opacity: 1;"/></g><g class="points"/><g class="text"/></g><g class="trace scatter trace31090e" style="stroke-miterlimit: 2; opacity: 1;"><g class="fills"/><g class="errorbars"/><g class="lines"><path class="js-line" d="M0,376.2L4.87,192.01L9.73,181.44L14.6,119.79L19.46,131.32L24.33,126.41L29.19,90.37L38.93,112.66L43.79,84.32L48.66,117.5L53.52,131.32L63.26,131.32L68.12,126.41L72.99,117.5L77.85,114.89L82.72,112.47L87.58,96.35L92.45,99.41L97.32,119.41L102.18,96.16L107.05,87.31L111.91,88.84L116.78,87.44L121.64,93.36L126.51,119.41L131.38,87.44L136.24,90.37L141.11,102.85L145.97,97.44L150.84,95.65L155.7,96.16L160.57,93.17L165.44,91.83L170.3,104.12L175.17,92.28L180.03,94.89L184.9,89.16L189.77,98.33L194.63,102.02L199.5,96.03L204.36,112.59L209.23,112.59L214.09,114.38L218.96,89.16L223.83,108.26L228.69,91.26L233.56,120.3L238.42,108.9L243.29,112.59L248.15,109.41L253.02,107.44L257.89,101.13L262.75,91.26L272.48,97.95L277.35,101.13L282.21,94.89L287.08,109.41L291.95,102.66L296.81,103.55L301.68,109.6L306.54,109.98L311.41,88.65L316.28,85.53L321.14,85.78L326.01,88.65L330.87,91.77L335.74,98.46L340.6,92.34L345.47,91.26L350.34,89.16L355.2,82.66L360.07,88.14L364.93,91.77L369.8,98.39L374.66,85.08L379.53,88.65L384.4,75.91L389.26,78.97L394.13,79.54L398.99,113.93L403.86,113.93L408.72,102.79L413.59,108.2L418.46,108.2L423.32,113.93L428.19,108.2L433.05,108.2L437.92,109.98L442.79,109.98L447.65,109.98L452.52,111.7L457.38,109.98L462.25,98.33L467.11,93.74L471.98,93.74L476.85,91.39L481.71,87.69L486.58,88.97L491.44,81.71L496.31,89.41L501.17,95.46L506.04,85.34L510.91,93.49L515.77,93.49L520.64,84L525.5,79.28L530.37,84L535.23,84L540.1,99.47L544.97,84L549.83,90.05L554.7,90.05L559.56,85.34L564.43,85.34L569.3,87.69L574.16,84L579.03,85.34L583.89,90.05L588.76,90.05L593.62,87.69L598.49,90.05L603.36,96.03L608.22,92.98L613.09,90.75L617.95,94.57L622.82,93.74L627.68,98.33L632.55,98.96L637.42,102.02L652.01,95.14L656.88,98.33L661.74,92.98L666.61,98.33L671.48,94.57L676.34,85.78L690.94,85.78L695.81,79.28L700.67,85.53L705.54,78.97L715.27,78.97L720.13,82.66L725,79.28" style="vector-effect: none; fill: none; stroke: rgb(255, 165, 0); stroke-opacity: 1; stroke-width: 2px; opacity: 1;"/></g><g class="points"/><g class="text"/></g><g class="trace scatter tracefb5585" style="stroke-miterlimit: 2; opacity: 1;"><g class="fills"/><g class="errorbars"/><g class="lines"><path class="js-line" d="M0,258.12L4.87,221.37L9.73,207.17L14.6,166.98L19.46,161.57L24.33,146.29L29.19,81.83L34.06,57.95L38.93,103.04L43.79,83.49L48.66,147.56L53.52,163.35L58.39,163.35L63.26,158.9L68.12,152.59L77.85,133.17L82.72,116.73L87.58,89.67L92.45,89.22L97.32,116.73L102.18,76.42L107.05,70.75L111.91,53.75L116.78,65.27L121.64,86.67L126.51,110.17L131.38,62.79L136.24,67.44L141.11,42.98L145.97,31.26L150.84,51.13L155.7,61.52L160.57,55.85L165.44,45.4L170.3,42.35L175.17,36.93L180.03,38.65L184.9,32.41L189.77,39.22L194.63,37.44L199.5,39.67L204.36,67.31L209.23,63.43L214.09,69.29L218.96,27.95L223.83,27.32L228.69,30.88L233.56,85.72L238.42,59.92L243.29,60.11L248.15,51.33L253.02,48.71L257.89,26.23L262.75,29.61L267.62,29.61L272.48,43.56L277.35,35.66L282.21,29.42L287.08,57.69L291.95,63.87L296.81,52.47L301.68,54.19L306.54,62.53L311.41,27.06L316.28,28.33L321.14,28.27L326.01,26.81L330.87,26.17L335.74,30.5L340.6,29.16L345.47,24.7L350.34,27.89L355.2,25.79L360.07,25.34L364.93,22.79L369.8,27.44L374.66,25.09L379.53,26.23L384.4,26.23L389.26,24.7L394.13,27.7L398.99,81.2L403.86,77.31L408.72,58.4L413.59,69.6L418.46,65.85L423.32,76.8L428.19,68.84L433.05,72.6L437.92,71.96L442.79,69.73L447.65,71.32L452.52,71.77L457.38,69.35L462.25,31.96L467.11,29.54L471.98,34.07L476.85,29.8L481.71,26.93L486.58,29.93L491.44,28.65L496.31,36.68L501.17,35.47L506.04,28.27L510.91,37.95L515.77,41.58L520.64,30.18L525.5,23.18L530.37,29.29L535.23,31.26L540.1,48.65L544.97,29.42L549.83,28.78L554.7,29.23L559.56,27.89L564.43,27.51L569.3,29.67L574.16,32.73L579.03,29.42L583.89,32.54L588.76,31.52L598.49,29.29L603.36,30.18L613.09,31.01L617.95,32.28L622.82,35.02L627.68,32.16L632.55,30.18L637.42,31.96L642.28,33.05L647.15,31.77L656.88,29.29L661.74,29.93L671.48,29.03L676.34,23.68L686.07,25.66L690.94,27.82L695.81,25.4L700.67,27.32L705.54,26.68L710.4,24L720.13,24.13L725,21.97" style="vector-effect: none; fill: none; stroke: rgb(128, 0, 128); stroke-opacity: 1; stroke-width: 2px; opacity: 1;"/></g><g class="points"/><g class="text"/></g><g class="trace scatter trace2ec696" style="stroke-miterlimit: 2; opacity: 1;"><g class="fills"/><g class="errorbars"/><g class="lines"><path class="js-line" d="M0,259.01L4.87,249.84L9.73,244.05L14.6,205.58L19.46,207.94L24.33,203.86L29.19,135.78L34.06,118.07L38.93,120.87L43.79,133.42L48.66,195.71L53.52,207.94L58.39,207.94L63.26,207.94L68.12,203.86L72.99,195.71L77.85,185.84L82.72,170.17L87.58,143.99L92.45,148.07L97.32,172.52L102.18,138.2L107.05,125.9L111.91,118.45L116.78,131.7L121.64,139.92L126.51,172.52L131.38,131.7L136.24,135.78L141.11,125.59L145.97,106.48L150.84,132.4L155.7,138.2L160.57,134.12L165.44,122.53L170.3,123.87L175.17,115.01L180.03,111.64L184.9,87.44L189.77,86.35L194.63,90.43L199.5,83.93L204.36,105.65L209.23,105.65L214.09,108.01L218.96,89.16L223.83,113.61L228.69,98.33L233.56,118.2L238.42,100.88L243.29,105.65L248.15,100.24L253.02,97.82L257.89,108.9L262.75,98.33L267.62,100.68L272.48,115.71L277.35,108.9L282.21,100.68L287.08,100.24L291.95,98.14L296.81,93.11L301.68,99.54L306.54,103.93L311.41,92.53L316.28,88.46L321.14,86.74L326.01,92.53L330.87,96.61L335.74,94.57L340.6,89.79L345.47,98.33L350.34,87.44L355.2,82.66L360.07,94.25L364.93,96.61L369.8,103.1L374.66,90.18L379.53,92.53L384.4,77.95L389.26,82.02L394.13,78.58L398.99,111.77L403.86,111.77L408.72,94.44L413.59,101.58L418.46,101.58L423.32,111.77L428.19,101.58L433.05,101.58L437.92,103.93L447.65,103.93L452.52,106.29L457.38,103.93L462.25,86.35L467.11,81.58L471.98,81.58L476.85,79.22L481.71,75.15L486.58,76.8L491.44,68.65L496.31,77.12L501.17,83.62L506.04,72.73L510.91,81.9L515.77,81.9L520.64,71.01L525.5,80.3L530.37,71.01L535.23,71.01L540.1,89.03L544.97,71.01L549.83,77.5L554.7,77.5L559.56,72.73L564.43,72.73L569.3,75.15L574.16,71.01L579.03,72.73L583.89,77.5L588.76,77.5L593.62,75.15L598.49,77.5L603.36,83.93L608.22,80.56L613.09,78.14L617.95,82.21L622.82,81.58L627.68,86.35L632.55,86.99L637.42,90.43L642.28,88.01L647.15,84.63L652.01,82.92L656.88,86.35L661.74,80.56L666.61,86.35L671.48,82.21L676.34,86.74L681.21,85.02L686.07,88.46L690.94,86.74L695.81,80.3L700.67,88.46L705.54,82.02L720.13,82.66L725,80.3" style="vector-effect: none; fill: none; stroke: rgb(255, 192, 203); stroke-opacity: 1; stroke-width: 2px; opacity: 1;"/></g><g class="points"/><g class="text"/></g><g class="trace scatter traceefabd0" style="stroke-miterlimit: 2; opacity: 1;"><g class="fills"/><g class="errorbars"/><g class="lines"><path class="js-line" d="M0,341.55L4.87,266.59L9.73,240.42L14.6,177.87L19.46,170.55L24.33,150.49L29.19,76.23L34.06,54.19L38.93,127.24L43.79,77.82L48.66,151.83L53.52,172.97L58.39,172.97L63.26,166.92L68.12,158.64L77.85,133.93L82.72,114.31L87.58,84.19L92.45,83.74L97.32,114.31L102.18,70.24L107.05,64.45L111.91,48.01L116.78,59.16L121.64,81.07L126.51,106.8L131.38,56.68L136.24,60.94L141.11,38.52L145.97,29.03L150.84,45.08L155.7,55.15L160.57,49.67L165.44,40.05L170.3,37.76L175.17,32.67L180.03,34.83L184.9,32.67L189.77,45.4L194.63,43.87L199.5,46.1L204.36,81.71L209.23,77.18L214.09,84L218.96,26.93L223.83,26.23L228.69,29.48L233.56,105.78L238.42,73.36L243.29,74.13L248.15,62.85L253.02,59.86L257.89,24.83L262.75,28.02L267.62,28.02L272.48,39.67L277.35,33.68L282.21,27.44L287.08,69.67L291.95,77.95L296.81,63.62L301.68,65.91L306.54,76.42L311.41,26.17L316.28,27.63L321.14,28.14L326.01,26.04L330.87,25.34L335.74,31.58L340.6,30.12L345.47,23.24L350.34,28.65L355.2,25.79L364.93,22.16L369.8,26.81L374.66,23.94L379.53,24.83L384.4,24.83L389.26,23.24L394.13,26.87L398.99,100.3L403.86,95.65L408.72,71.9L413.59,85.53L418.46,81.77L423.32,95.72L428.19,85.59L433.05,89.41L437.92,88.65L442.79,86.35L447.65,87.88L452.52,87.82L457.38,85.59L462.25,37.89L467.11,35.59L471.98,40.82L476.85,35.66L481.71,32.67L486.58,36.3L491.44,34.83L496.31,45.72L501.17,44.96L506.04,34.13L510.91,47.25L515.77,51.64L525.5,22.79L530.37,35.59L535.23,37.76L540.1,60.56L544.97,36.23L549.83,35.47L554.7,36.23L559.56,34.7L564.43,34L569.3,36.3L574.16,39.93L579.03,36.23L583.89,39.29L588.76,37.82L598.49,35.59L603.36,36.36L613.09,37.76L617.95,39.22L622.82,41.58L627.68,38.59L632.55,36.36L637.42,37.89L642.28,39.35L647.15,37.89L656.88,35.59L661.74,36.3L671.48,35.53L676.34,22.98L686.07,25.21L690.94,27.51L695.81,25.09L700.67,27.32L705.54,26.61L710.4,24.19L720.13,24.77L725,22.47" style="vector-effect: none; fill: none; stroke: rgb(165, 42, 42); stroke-opacity: 1; stroke-width: 2px; opacity: 1;"/></g><g class="points"/><g class="text"/></g><g class="trace scatter trace3d8808" style="stroke-miterlimit: 2; opacity: 1;"><g class="fills"/><g class="errorbars"/><g class="lines"><path class="js-line" d="M0,330.79L4.87,301.37L9.73,287.61L14.6,221.76L19.46,223.92L24.33,217.87L29.19,129.28L34.06,113.17L38.93,160.3L43.79,126.54L48.66,206.02L53.52,223.92L58.39,223.92L63.26,223.92L68.12,217.87L72.99,206.02L77.85,191.38L82.72,169.79L87.58,138.45L92.45,143.1L97.32,172.33L102.18,132.02L107.05,118.77L111.91,111.51L116.78,124.82L121.64,133.87L126.51,172.33L131.38,124.82L136.24,129.28L141.11,119.85L145.97,103.04L150.84,125.9L155.7,132.02L160.57,127.56L165.44,115.71L170.3,118.45L175.17,108.84L180.03,106.35L184.9,88.33L189.77,99.98L194.63,103.3L199.5,97.12L204.36,130.36L209.23,130.36L214.09,133.29L218.96,89.16L223.83,111.38L228.69,95.46L233.56,147.88L238.42,124.5L243.29,130.36L248.15,121.83L253.02,118.96L257.89,105.84L262.75,95.46L267.62,98.26L272.48,110.36L277.35,105.84L282.21,98.26L287.08,121.83L291.95,126.99L296.81,113.17L301.68,119.28L306.54,130.17L311.41,90.81L316.28,87.12L321.14,86.29L330.87,94.51L335.74,96.8L340.6,91.19L345.47,95.46L350.34,88.33L355.2,82.66L360.07,91.7L364.93,94.51L369.8,101.07L374.66,87.95L379.53,90.81L384.4,76.93L389.26,80.62L394.13,79.09L398.99,141.89L403.86,141.89L408.72,118.52L413.59,127.24L418.46,127.24L423.32,141.89L428.19,127.24L433.05,127.24L437.92,130.17L442.79,130.17L447.65,130.17L452.52,133.1L457.38,130.17L462.25,99.98L467.11,94.25L471.98,94.25L481.71,88.14L486.58,88.58L491.44,81.96L496.31,95.59L501.17,101.7L506.04,85.27L510.91,101.38L515.77,101.38L520.64,84.83L525.5,79.79L530.37,84.83L535.23,84.83L540.1,110.05L544.97,84.83L549.83,91L554.7,91L559.56,85.27L564.43,85.27L569.3,88.14L574.16,84.83L579.03,85.27L583.89,91L588.76,91L593.62,88.14L598.49,91L603.36,97.12L608.22,96.29L613.09,93.42L617.95,96.74L622.82,94.25L627.68,99.98L632.55,102.4L637.42,103.3L642.28,100.43L652.01,99.16L656.88,99.98L661.74,96.29L666.61,99.98L671.48,96.74L676.34,86.29L681.21,85.53L686.07,87.12L690.94,86.29L695.81,79.79L700.67,87.12L705.54,80.62L715.27,80.62L720.13,82.66L725,79.79" style="vector-effect: none; fill: none; stroke: rgb(128, 128, 128); stroke-opacity: 1; stroke-width: 2px; opacity: 1;"/></g><g class="points"/><g class="text"/></g></g></g><g class="overplot"/><path class="xlines-above crisp" d="M0,0" style="fill: none;"/><path class="ylines-above crisp" d="M0,0" style="fill: none;"/><g class="overlines-above"/><g class="xaxislayer-above"><g class="xtick"><text text-anchor="middle" x="0" y="509" transform="translate(236.45,0)" style="font-family: 'Open Sans', verdana, arial, sans-serif; font-size: 12px; fill: rgb(42, 63, 95); fill-opacity: 1; white-space: pre; opacity: 1;">20</text></g><g class="xtick"><text text-anchor="middle" x="0" y="509" style="font-family: 'Open Sans', verdana, arial, sans-serif; font-size: 12px; fill: rgb(42, 63, 95); fill-opacity: 1; white-space: pre; opacity: 1;" transform="translate(333.77,0)">40</text></g><g class="xtick"><text text-anchor="middle" x="0" y="509" style="font-family: 'Open Sans', verdana, arial, sans-serif; font-size: 12px; fill: rgb(42, 63, 95); fill-opacity: 1; white-space: pre; opacity: 1;" transform="translate(431.08,0)">60</text></g><g class="xtick"><text text-anchor="middle" x="0" y="509" style="font-family: 'Open Sans', verdana, arial, sans-serif; font-size: 12px; fill: rgb(42, 63, 95); fill-opacity: 1; white-space: pre; opacity: 1;" transform="translate(528.4,0)">80</text></g><g class="xtick"><text text-anchor="middle" x="0" y="509" style="font-family: 'Open Sans', verdana, arial, sans-serif; font-size: 12px; fill: rgb(42, 63, 95); fill-opacity: 1; white-space: pre; opacity: 1;" transform="translate(625.71,0)">100</text></g><g class="xtick"><text text-anchor="middle" x="0" y="509" style="font-family: 'Open Sans', verdana, arial, sans-serif; font-size: 12px; fill: rgb(42, 63, 95); fill-opacity: 1; white-space: pre; opacity: 1;" transform="translate(723.03,0)">120</text></g><g class="xtick"><text text-anchor="middle" x="0" y="509" style="font-family: 'Open Sans', verdana, arial, sans-serif; font-size: 12px; fill: rgb(42, 63, 95); fill-opacity: 1; white-space: pre; opacity: 1;" transform="translate(820.34,0)">140</text></g></g><g class="yaxislayer-above"><g class="ytick"><text text-anchor="end" x="143" y="4.199999999999999" transform="translate(0,486.39)" style="font-family: 'Open Sans', verdana, arial, sans-serif; font-size: 12px; fill: rgb(42, 63, 95); fill-opacity: 1; white-space: pre; opacity: 1;">30</text></g><g class="ytick"><text text-anchor="end" x="143" y="4.199999999999999" style="font-family: 'Open Sans', verdana, arial, sans-serif; font-size: 12px; fill: rgb(42, 63, 95); fill-opacity: 1; white-space: pre; opacity: 1;" transform="translate(0,422.7)">40</text></g><g class="ytick"><text text-anchor="end" x="143" y="4.199999999999999" style="font-family: 'Open Sans', verdana, arial, sans-serif; font-size: 12px; fill: rgb(42, 63, 95); fill-opacity: 1; white-space: pre; opacity: 1;" transform="translate(0,359.01)">50</text></g><g class="ytick"><text text-anchor="end" x="143" y="4.199999999999999" style="font-family: 'Open Sans', verdana, arial, sans-serif; font-size: 12px; fill: rgb(42, 63, 95); fill-opacity: 1; white-space: pre; opacity: 1;" transform="translate(0,295.33000000000004)">60</text></g><g class="ytick"><text text-anchor="end" x="143" y="4.199999999999999" style="font-family: 'Open Sans', verdana, arial, sans-serif; font-size: 12px; fill: rgb(42, 63, 95); fill-opacity: 1; white-space: pre; opacity: 1;" transform="translate(0,231.64)">70</text></g><g class="ytick"><text text-anchor="end" x="143" y="4.199999999999999" style="font-family: 'Open Sans', verdana, arial, sans-serif; font-size: 12px; fill: rgb(42, 63, 95); fill-opacity: 1; white-space: pre; opacity: 1;" transform="translate(0,167.95)">80</text></g><g class="ytick"><text text-anchor="end" x="143" y="4.199999999999999" style="font-family: 'Open Sans', verdana, arial, sans-serif; font-size: 12px; fill: rgb(42, 63, 95); fill-opacity: 1; white-space: pre; opacity: 1;" transform="translate(0,104.26)">90</text></g></g><g class="overaxes-above"/></g></g><g class="polarlayer"/><g class="smithlayer"/><g class="ternarylayer"/><g class="geolayer"/><g class="funnelarealayer"/><g class="pielayer"/><g class="iciclelayer"/><g class="treemaplayer"/><g class="sunburstlayer"/><g class="glimages"/><defs id="topdefs-a73a0e"><g class="clips"/><clipPath id="legenda73a0e"><rect width="128" height="162" x="0" y="0"/></clipPath></defs><g class="layer-above"><g class="imagelayer"/><g class="shapelayer"/></g><g class="infolayer"><g class="legend" pointer-events="all" transform="translate(883.5,100)"><rect class="bg" shape-rendering="crispEdges" width="128" height="162" x="0" y="0" style="stroke: rgb(68, 68, 68); stroke-opacity: 1; fill: rgb(255, 255, 255); fill-opacity: 1; stroke-width: 0px;"/><g class="scrollbox" transform="" clip-path="url(#legenda73a0e)"><g class="groups"><g class="traces" transform="translate(0,14.5)" style="opacity: 1;"><text class="legendtext" text-anchor="start" x="40" y="4.680000000000001" style="font-family: 'Open Sans', verdana, arial, sans-serif; font-size: 12px; fill: rgb(42, 63, 95); fill-opacity: 1; white-space: pre;">Train Accuracy</text><g class="layers" style="opacity: 1;"><g class="legendfill"/><g class="legendlines"><path class="js-line" d="M5,0h30" style="fill: none; stroke: rgb(255, 0, 0); stroke-opacity: 1; stroke-width: 2px;"/></g><g class="legendsymbols"><g class="legendpoints"/></g></g><rect class="legendtoggle" x="0" y="-9.5" width="122.71875" height="19" style="fill: rgb(0, 0, 0); fill-opacity: 0;"/></g><g class="traces" transform="translate(0,33.5)" style="opacity: 1;"><text class="legendtext" text-anchor="start" x="40" y="4.680000000000001" style="font-family: 'Open Sans', verdana, arial, sans-serif; font-size: 12px; fill: rgb(42, 63, 95); fill-opacity: 1; white-space: pre;">Test Accuracy</text><g class="layers" style="opacity: 1;"><g class="legendfill"/><g class="legendlines"><path class="js-line" d="M5,0h30" style="fill: none; stroke: rgb(0, 0, 255); stroke-opacity: 1; stroke-width: 2px;"/></g><g class="legendsymbols"><g class="legendpoints"/></g></g><rect class="legendtoggle" x="0" y="-9.5" width="122.71875" height="19" style="fill: rgb(0, 0, 0); fill-opacity: 0;"/></g><g class="traces" transform="translate(0,52.5)" style="opacity: 1;"><text class="legendtext" text-anchor="start" x="40" y="4.680000000000001" style="font-family: 'Open Sans', verdana, arial, sans-serif; font-size: 12px; fill: rgb(42, 63, 95); fill-opacity: 1; white-space: pre;">Train Precision</text><g class="layers" style="opacity: 1;"><g class="legendfill"/><g class="legendlines"><path class="js-line" d="M5,0h30" style="fill: none; stroke: rgb(0, 128, 0); stroke-opacity: 1; stroke-width: 2px;"/></g><g class="legendsymbols"><g class="legendpoints"/></g></g><rect class="legendtoggle" x="0" y="-9.5" width="122.71875" height="19" style="fill: rgb(0, 0, 0); fill-opacity: 0;"/></g><g class="traces" transform="translate(0,71.5)" style="opacity: 1;"><text class="legendtext" text-anchor="start" x="40" y="4.680000000000001" style="font-family: 'Open Sans', verdana, arial, sans-serif; font-size: 12px; fill: rgb(42, 63, 95); fill-opacity: 1; white-space: pre;">Test Precision</text><g class="layers" style="opacity: 1;"><g class="legendfill"/><g class="legendlines"><path class="js-line" d="M5,0h30" style="fill: none; stroke: rgb(255, 165, 0); stroke-opacity: 1; stroke-width: 2px;"/></g><g class="legendsymbols"><g class="legendpoints"/></g></g><rect class="legendtoggle" x="0" y="-9.5" width="122.71875" height="19" style="fill: rgb(0, 0, 0); fill-opacity: 0;"/></g><g class="traces" transform="translate(0,90.5)" style="opacity: 1;"><text class="legendtext" text-anchor="start" x="40" y="4.680000000000001" style="font-family: 'Open Sans', verdana, arial, sans-serif; font-size: 12px; fill: rgb(42, 63, 95); fill-opacity: 1; white-space: pre;">Train Recall</text><g class="layers" style="opacity: 1;"><g class="legendfill"/><g class="legendlines"><path class="js-line" d="M5,0h30" style="fill: none; stroke: rgb(128, 0, 128); stroke-opacity: 1; stroke-width: 2px;"/></g><g class="legendsymbols"><g class="legendpoints"/></g></g><rect class="legendtoggle" x="0" y="-9.5" width="122.71875" height="19" style="fill: rgb(0, 0, 0); fill-opacity: 0;"/></g><g class="traces" transform="translate(0,109.5)" style="opacity: 1;"><text class="legendtext" text-anchor="start" x="40" y="4.680000000000001" style="font-family: 'Open Sans', verdana, arial, sans-serif; font-size: 12px; fill: rgb(42, 63, 95); fill-opacity: 1; white-space: pre;">Test Recall</text><g class="layers" style="opacity: 1;"><g class="legendfill"/><g class="legendlines"><path class="js-line" d="M5,0h30" style="fill: none; stroke: rgb(255, 192, 203); stroke-opacity: 1; stroke-width: 2px;"/></g><g class="legendsymbols"><g class="legendpoints"/></g></g><rect class="legendtoggle" x="0" y="-9.5" width="122.71875" height="19" style="fill: rgb(0, 0, 0); fill-opacity: 0;"/></g><g class="traces" transform="translate(0,128.5)" style="opacity: 1;"><text class="legendtext" text-anchor="start" x="40" y="4.680000000000001" style="font-family: 'Open Sans', verdana, arial, sans-serif; font-size: 12px; fill: rgb(42, 63, 95); fill-opacity: 1; white-space: pre;">Train F1</text><g class="layers" style="opacity: 1;"><g class="legendfill"/><g class="legendlines"><path class="js-line" d="M5,0h30" style="fill: none; stroke: rgb(165, 42, 42); stroke-opacity: 1; stroke-width: 2px;"/></g><g class="legendsymbols"><g class="legendpoints"/></g></g><rect class="legendtoggle" x="0" y="-9.5" width="122.71875" height="19" style="fill: rgb(0, 0, 0); fill-opacity: 0;"/></g><g class="traces" transform="translate(0,147.5)" style="opacity: 1;"><text class="legendtext" text-anchor="start" x="40" y="4.680000000000001" style="font-family: 'Open Sans', verdana, arial, sans-serif; font-size: 12px; fill: rgb(42, 63, 95); fill-opacity: 1; white-space: pre;">Test F1</text><g class="layers" style="opacity: 1;"><g class="legendfill"/><g class="legendlines"><path class="js-line" d="M5,0h30" style="fill: none; stroke: rgb(128, 128, 128); stroke-opacity: 1; stroke-width: 2px;"/></g><g class="legendsymbols"><g class="legendpoints"/></g></g><rect class="legendtoggle" x="0" y="-9.5" width="122.71875" height="19" style="fill: rgb(0, 0, 0); fill-opacity: 0;"/></g></g></g><rect class="scrollbar" rx="20" ry="3" width="0" height="0" x="0" y="0" style="fill: rgb(128, 139, 164); fill-opacity: 1;"/></g><g class="g-gtitle"><text class="gtitle" x="51.2" y="50" text-anchor="start" dy="0em" style="font-family: 'Open Sans', verdana, arial, sans-serif; font-size: 17px; fill: rgb(42, 63, 95); opacity: 1; font-weight: normal; white-space: pre;">Training Metrics - logs/FakeNewsNet-politifact_max-vocab=15000_pre=v2_text_T=200_s=15.log</text></g><g class="g-xtitle"><text class="xtitle" x="506.5" y="537.3" text-anchor="middle" style="font-family: 'Open Sans', verdana, arial, sans-serif; font-size: 14px; fill: rgb(42, 63, 95); opacity: 1; font-weight: normal; white-space: pre;">Epoch</text></g><g class="g-ytitle"><text class="ytitle" transform="rotate(-90,104.965625,298)" x="104.965625" y="298" text-anchor="middle" style="font-family: 'Open Sans', verdana, arial, sans-serif; font-size: 14px; fill: rgb(42, 63, 95); opacity: 1; font-weight: normal; white-space: pre;">Metric Score</text></g></g><g class="menulayer"><g class="updatemenu-container" style="cursor: pointer;"><g class="updatemenu-header-group" transform="translate(12,60)"><g class="updatemenu-header" transform="translate(1,1)" style="pointer-events: all;"><rect class="updatemenu-item-rect" rx="2" ry="2" shape-rendering="crispEdges" x="0" y="0" width="168" height="33" style="stroke: rgb(190, 200, 217); stroke-opacity: 1; fill: rgb(255, 255, 255); fill-opacity: 1; stroke-width: 1px;"/><text class="updatemenu-item-text" text-anchor="start" data-notex="1" x="12" y="19.5" style="font-family: 'Open Sans', verdana, arial, sans-serif; font-size: 12px; fill: rgb(42, 63, 95); fill-opacity: 1; white-space: pre;">All</text></g><text class="updatemenu-header-arrow" text-anchor="end" x="164" y="19.5" style="font-family: 'Open Sans', verdana, arial, sans-serif; font-size: 12px; fill: rgb(42, 63, 95); fill-opacity: 1;">▼</text></g><g class="updatemenu-dropdown-button-group" updatemenu-active-index="-1" style="pointer-events: all;"><rect class="scrollbox-bg" opacity="0" x="0" y="0" width="0" height="0" style="pointer-events: all;"/></g></g></g></svg>