<svg class="main-svg" xmlns="http://www.w3.org/2000/svg" xmlns:xlink="http://www.w3.org/1999/xlink" width="1024" height="576" style="" viewBox="0 0 1024 576"><rect x="0" y="0" width="1024" height="576" style="fill: rgb(255, 255, 255); fill-opacity: 1;"/><defs id="defs-4964d2"><g class="clips"><clipPath id="clip4964d2xyplot" class="plotclip"><rect width="726" height="396"/></clipPath><clipPath class="axesclip" id="clip4964d2x"><rect x="143" y="0" width="726" height="576"/></clipPath><clipPath class="axesclip" id="clip4964d2y"><rect x="0" y="100" width="1024" height="396"/></clipPath><clipPath class="axesclip" id="clip4964d2xy"><rect x="143" y="100" width="726" height="396"/></clipPath></g><g class="gradients"/><g class="patterns"/></defs><g class="bglayer"><rect class="bg" x="143" y="100" width="726" height="396" style="fill: rgb(229, 236, 246); fill-opacity: 1; stroke-width: 0;"/></g><g class="layer-below"><g class="imagelayer"/><g class="shapelayer"/></g><g class="cartesianlayer"><g class="subplot xy"><g class="layer-subplot"><g class="shapelayer"/><g class="imagelayer"/></g><g class="minor-gridlayer"><g class="x"/><g class="y"/></g><g class="gridlayer"><g class="x"><path class="xgrid crisp" transform="translate(235.57999999999998,0)" d="M0,100v396" style="stroke: rgb(255, 255, 255); stroke-opacity: 1; stroke-width: 1px;"/><path class="xgrid crisp" transform="translate(333.03,0)" d="M0,100v396" style="stroke: rgb(255, 255, 255); stroke-opacity: 1; stroke-width: 1px;"/><path class="xgrid crisp" transform="translate(430.48,0)" d="M0,100v396" style="stroke: rgb(255, 255, 255); stroke-opacity: 1; stroke-width: 1px;"/><path class="xgrid crisp" transform="translate(527.9300000000001,0)" d="M0,100v396" style="stroke: rgb(255, 255, 255); stroke-opacity: 1; stroke-width: 1px;"/><path class="xgrid crisp" transform="translate(625.38,0)" d="M0,100v396" style="stroke: rgb(255, 255, 255); stroke-opacity: 1; stroke-width: 1px;"/><path class="xgrid crisp" transform="translate(722.83,0)" d="M0,100v396" style="stroke: rgb(255, 255, 255); stroke-opacity: 1; stroke-width: 1px;"/><path class="xgrid crisp" transform="translate(820.28,0)" d="M0,100v396" style="stroke: rgb(255, 255, 255); stroke-opacity: 1; stroke-width: 1px;"/></g><g class="y"><path class="ygrid crisp" transform="translate(0,476.91)" d="M143,0h726" style="stroke: rgb(255, 255, 255); stroke-opacity: 1; stroke-width: 1px;"/><path class="ygrid crisp" transform="translate(0,388.12)" d="M143,0h726" style="stroke: rgb(255, 255, 255); stroke-opacity: 1; stroke-width: 1px;"/><path class="ygrid crisp" transform="translate(0,299.33000000000004)" d="M143,0h726" style="stroke: rgb(255, 255, 255); stroke-opacity: 1; stroke-width: 1px;"/><path class="ygrid crisp" transform="translate(0,210.54000000000002)" d="M143,0h726" style="stroke: rgb(255, 255, 255); stroke-opacity: 1; stroke-width: 1px;"/><path class="ygrid crisp" transform="translate(0,121.75)" d="M143,0h726" style="stroke: rgb(255, 255, 255); stroke-opacity: 1; stroke-width: 1px;"/></g></g><g class="zerolinelayer"/><path class="xlines-below"/><path class="ylines-below"/><g class="overlines-below"/><g class="xaxislayer-below"/><g class="yaxislayer-below"/><g class="overaxes-below"/><g class="plot" transform="translate(143,100)" clip-path="url(#clip4964d2xyplot)"><g class="scatterlayer mlayer"><g class="trace scatter trace238b73" style="stroke-miterlimit: 2; opacity: 1;"><g class="fills"/><g class="errorbars"/><g class="lines"><path class="js-line" d="M0,344.59L4.87,228.81L9.74,134.16L14.62,134.16L19.49,132.03L24.36,197.2L29.23,199.33L34.11,226.68L38.98,199.33L43.85,230.94L48.72,214.07L53.6,188.85L58.47,113.03L63.34,186.72L68.21,222.42L73.09,262.37L77.96,211.94L82.83,239.29L87.7,155.11L92.58,144.64L97.45,68.81L102.32,138.24L107.19,106.81L112.07,106.81L116.94,136.29L121.81,119.42L126.68,123.51L131.56,136.29L136.43,211.94L141.3,165.59L146.17,171.98L151.05,144.64L155.92,113.03L160.79,117.29L165.66,132.03L170.54,73.07L175.41,92.07L180.28,70.94L185.15,68.81L190.03,159.38L194.9,142.51L199.77,79.47L204.64,163.64L209.52,161.51L214.39,136.29L219.26,163.64L224.13,184.59L229.01,195.07L233.88,132.03L238.75,60.47L243.62,136.29L248.5,134.16L253.37,146.77L258.24,49.99L263.11,70.94L267.99,134.16L272.86,159.38L277.73,171.98L282.6,150.85L287.48,138.24L292.35,144.64L297.22,148.9L302.09,216.2L311.84,171.98L316.71,159.38L326.46,192.94L331.33,70.94L336.2,73.07L341.07,98.29L345.95,102.55L350.82,89.94L355.69,98.29L360.56,73.07L365.44,83.55L370.31,81.42L375.18,62.6L380.05,60.47L384.93,60.47L389.8,54.07L394.67,54.07L399.54,52.12L404.42,54.07L409.29,49.99L414.16,70.94L419.03,49.99L423.91,56.2L428.78,52.12L433.65,60.47L438.52,92.07L443.4,178.38L448.27,98.29L453.14,96.16L458.01,45.73L462.89,129.9L467.76,121.55L472.63,159.38L477.5,134.16L482.38,117.29L487.25,106.81L492.12,102.55L496.99,117.29L501.87,134.16L506.74,117.29L511.61,163.64L516.48,176.25L521.36,100.42L526.23,81.42L531.1,43.6L535.97,54.07L540.85,140.38L545.72,123.51L550.59,43.6L555.46,47.86L560.34,33.12L565.21,33.12L570.08,45.73L574.95,68.81L579.83,68.81L584.7,54.07L589.57,54.07L594.44,30.99L599.32,98.29L604.19,108.94L609.06,106.81L613.93,60.47L618.81,60.47L623.68,58.33L628.55,62.6L633.42,148.9L638.3,108.94L643.17,144.64L648.04,140.38L652.91,150.85L657.79,144.64L662.66,132.03L672.4,152.98L677.28,169.85L682.15,123.51L687.02,132.03L691.89,129.9L696.77,165.59L701.64,117.29L706.51,134.16L711.38,83.55L716.26,98.29L721.13,49.99L726,134.16" style="vector-effect: none; fill: none; stroke: rgb(255, 0, 0); stroke-opacity: 1; stroke-width: 2px; opacity: 1;"/></g><g class="points"/><g class="text"/></g><g class="trace scatter trace121953" style="stroke-miterlimit: 2; opacity: 1;"><g class="fills"/><g class="errorbars"/><g class="lines"><path class="js-line" d="M0,375.31L4.87,190.99L9.74,174.12L14.62,207.68L19.49,190.99L24.36,224.55L29.23,232.89L34.11,291.5L38.98,232.89L43.85,341.75L48.72,274.8L53.6,274.8L58.47,90.48L63.34,199.33L68.21,266.28L73.09,325.06L77.96,232.89L82.83,274.8L87.7,241.24L92.58,207.68L97.45,90.48L102.32,224.55L107.19,157.42L112.07,149.08L116.94,174.12L121.81,165.77L126.68,149.08L131.56,199.33L136.43,224.55L141.3,199.33L146.17,232.89L151.05,216.02L155.92,165.77L160.79,165.77L165.66,224.55L170.54,82.13L175.41,115.51L180.28,65.26L185.15,73.61L190.03,224.55L194.9,190.99L199.77,123.86L204.64,232.89L209.52,224.55L214.39,199.33L219.26,232.89L224.13,232.89L229.01,249.59L233.88,241.24L238.75,65.26L243.62,190.99L248.5,165.77L253.37,216.02L258.24,115.51L263.11,98.82L267.99,174.12L272.86,199.33L277.73,224.55L282.6,207.68L287.48,182.64L292.35,165.77L297.22,182.64L302.09,291.5L306.97,249.59L311.84,224.55L316.71,224.55L321.58,241.24L326.46,232.89L331.33,56.91L336.2,73.61L341.07,82.13L345.95,98.82L350.82,73.61L360.56,56.91L365.44,56.91L370.31,56.91L375.18,40.22L380.05,56.91L384.93,40.22L394.67,23.35L399.54,65.26L404.42,82.13L409.29,73.61L414.16,98.82L419.03,40.22L423.91,31.88L428.78,40.22L433.65,40.22L438.52,107.17L443.4,174.12L448.27,132.38L453.14,115.51L458.01,82.13L462.89,174.12L467.76,165.77L472.63,165.77L477.5,157.42L482.38,149.08L487.25,174.12L492.12,182.64L496.99,174.12L501.87,190.99L506.74,190.99L511.61,232.89L516.48,232.89L521.36,174.12L526.23,157.42L531.1,82.13L535.97,40.22L540.85,190.99L545.72,165.77L550.59,82.13L555.46,82.13L560.34,90.48L565.21,65.26L570.08,73.61L574.95,56.91L579.83,48.57L584.7,56.91L589.57,56.91L594.44,65.26L599.32,140.73L604.19,140.73L609.06,132.38L613.93,65.26L618.81,23.35L623.68,23.35L628.55,123.86L633.42,207.68L638.3,182.64L643.17,182.64L648.04,174.12L652.91,182.64L662.66,182.64L667.53,190.99L672.4,199.33L677.28,224.55L682.15,199.33L687.02,182.64L691.89,190.99L696.77,207.68L701.64,165.77L706.51,157.42L711.38,107.17L716.26,140.73L721.13,73.61L726,224.55" style="vector-effect: none; fill: none; stroke: rgb(0, 0, 255); stroke-opacity: 1; stroke-width: 2px; opacity: 1;"/></g><g class="points"/><g class="text"/></g><g class="trace scatter tracebd9b2a" style="stroke-miterlimit: 2; opacity: 1;"><g class="fills"/><g class="errorbars"/><g class="lines"><path class="js-line" d="M0,277.47L9.74,123.33L14.62,119.24L19.49,115.34L24.36,167.19L29.23,167.37L34.11,174.83L38.98,155.47L43.85,175.89L53.6,146.95L58.47,101.13L63.34,159.91L68.21,165.24L73.09,177.13L77.96,156.71L82.83,169.85L87.7,115.34L92.58,110.01L97.45,73.25L102.32,110.01L107.19,93.32L112.07,98.29L116.94,129.54L121.81,110.9L126.68,113.21L131.56,117.29L136.43,173.05L141.3,130.08L146.17,121.2L151.05,102.02L155.92,96.87L160.79,103.26L165.66,117.65L170.54,81.06L175.41,95.63L180.28,77.69L185.15,77.51L190.03,137.71L194.9,126.52L199.77,77.34L204.64,139.49L209.52,136.82L214.39,118.53L219.26,134.34L224.13,147.3L229.01,146.06L233.88,111.96L238.75,65.79L243.62,116.23L248.5,119.24L253.37,128.48L258.24,53.54L263.11,72.9L267.99,124.22L272.86,137.71L277.73,146.77L282.6,132.74L287.48,123.33L292.35,127.06L297.22,125.28L302.09,161.15L306.97,146.06L311.84,137.18L316.71,119.78L321.58,132.21L326.46,148.19L331.33,75.03L336.2,77.51L341.07,107.88L345.95,111.08L350.82,97.4L355.69,106.28L360.56,81.77L365.44,92.07L370.31,89.77L375.18,71.48L380.05,68.81L384.93,68.99L389.8,62.77L394.67,62.42L399.54,59.76L404.42,60.47L409.29,54.07L414.16,74.14L419.03,58.51L423.91,65.08L428.78,60.82L433.65,67.57L438.52,90.65L443.4,156.36L448.27,97.22L453.14,92.61L458.01,49.81L462.89,112.67L467.76,107.52L472.63,136.47L477.5,119.24L482.38,106.46L487.25,99.18L492.12,92.07L496.99,107.35L501.87,120.31L506.74,107.35L511.61,137L516.48,147.12L521.36,90.48L526.23,76.63L531.1,47.5L535.97,54.07L540.85,116.76L545.72,112.32L550.59,48.92L555.46,54.96L560.34,38.09L565.21,39.33L570.08,50.7L574.95,75.03L579.83,73.78L584.7,59.22L589.57,59.22L594.44,36.67L599.32,87.99L604.19,97.05L609.06,96.34L613.93,62.6L618.81,68.46L623.68,65.97L628.55,59.58L633.42,126.52L638.3,97.05L643.17,125.81L648.04,118L652.91,135.05L657.79,123.51L662.66,116.58L667.53,123.15L672.4,140.91L677.28,153.52L682.15,116.94L687.02,119.78L691.89,112.67L696.77,135.76L701.64,110.19L706.51,120.31L711.38,82.13L716.26,91.72L721.13,55.49L726,120.31" style="vector-effect: none; fill: none; stroke: rgb(0, 128, 0); stroke-opacity: 1; stroke-width: 2px; opacity: 1;"/></g><g class="points"/><g class="text"/></g><g class="trace scatter trace9d72aa" style="stroke-miterlimit: 2; opacity: 1;"><g class="fills"/><g class="errorbars"/><g class="lines"><path class="js-line" d="M0,319.37L4.87,181.4L9.74,164.7L14.62,192.94L19.49,186.37L29.23,209.81L34.11,232.54L38.98,190.63L43.85,277.29L48.72,215.31L53.6,222.77L58.47,107.88L63.34,176.07L68.21,202.53L73.09,215.14L77.96,183.35L82.83,215.31L87.7,202.53L92.58,181.4L97.45,107.88L102.32,185.48L107.19,142.51L112.07,136.82L116.94,164.7L121.81,158.84L126.68,141.97L131.56,181.75L136.43,185.48L141.3,163.28L146.17,175.71L151.05,173.41L155.92,153.69L160.79,148.19L165.66,185.48L170.54,104.5L175.41,131.85L180.28,87.28L185.15,97.76L190.03,178.56L194.9,158.13L199.77,123.86L204.64,190.63L209.52,178.56L214.39,163.28L219.26,183.35L224.13,183.35L229.01,185.13L233.88,188.32L238.75,87.28L243.62,164.53L248.5,142.33L253.37,186.9L258.24,125.46L263.11,108.77L267.99,153.69L272.86,163.28L277.73,178.56L282.6,181.4L287.48,165.06L292.35,142.33L297.22,152.98L302.09,216.56L306.97,200.57L311.84,185.48L316.71,185.48L321.58,195.6L326.46,183.35L331.33,79.47L336.2,95.09L341.07,107.52L345.95,124.22L350.82,97.76L355.69,89.59L360.56,81.24L365.44,80.53L370.31,80.53L375.18,63.84L380.05,80.53L384.93,63.48L394.67,46.44L399.54,81.24L404.42,95.09L409.29,88.17L414.16,108.77L419.03,63.84L423.91,55.14L428.78,63.48L433.65,62.42L438.52,115.34L443.4,153.69L448.27,134.52L458.01,100.6L462.89,164.7L467.76,153.69L472.63,148.19L477.5,147.83L482.38,141.97L487.25,164.7L492.12,170.39L496.99,153.69L501.87,170.56L506.74,176.25L511.61,197.38L516.48,183.35L521.36,153.69L526.23,147.83L531.1,100.6L535.97,61L540.85,170.56L545.72,163.64L550.59,102.73L555.46,102.73L560.34,107.88L565.21,83.55L570.08,90.83L574.95,76.27L579.83,68.63L584.7,76.27L589.57,76.27L594.44,83.55L599.32,136.11L604.19,136.11L609.06,125.28L613.93,78.4L618.81,46.08L623.68,46.08L628.55,119.42L633.42,175.18L638.3,165.06L643.17,165.06L648.04,153.69L652.91,165.06L657.79,165.06L662.66,165.06L667.53,170.56L677.28,204.3L682.15,192.41L687.02,165.06L691.89,176.25L696.77,175.18L701.64,158.84L706.51,142.51L711.38,111.43L716.26,131.14L721.13,90.83L726,192.05" style="vector-effect: none; fill: none; stroke: rgb(255, 165, 0); stroke-opacity: 1; stroke-width: 2px; opacity: 1;"/></g><g class="points"/><g class="text"/></g><g class="trace scatter trace8f44e8" style="stroke-miterlimit: 2; opacity: 1;"><g class="fills"/><g class="errorbars"/><g class="lines"><path class="js-line" d="M0,296.11L9.74,111.43L14.62,108.77L19.49,105.57L24.36,164.53L29.23,165.59L34.11,184.24L38.98,160.09L43.85,187.26L48.72,171.27L53.6,150.32L58.47,89.23L63.34,155.47L68.21,177.84L73.09,208.03L77.96,168.08L82.83,190.28L87.7,117.11L92.58,108.77L97.45,58.87L102.32,105.39L107.19,81.6L112.07,85.15L116.94,116.76L121.81,98.11L126.68,100.95L131.56,108.41L136.43,175L141.3,129.54L146.17,129.54L151.05,105.22L155.92,86.39L160.79,92.07L165.66,106.81L170.54,70.05L175.41,81.6L180.28,64.73L185.15,67.92L190.03,130.43L194.9,116.58L199.77,62.24L204.64,133.45L209.52,130.79L214.39,109.12L219.26,130.61L224.13,148.01L229.01,153.52L238.75,51.59L243.62,107.7L248.5,108.77L253.37,119.6L258.24,38.27L263.11,57.8L267.99,112.14L272.86,130.43L277.73,141.26L282.6,123.86L287.48,113.03L292.35,117.82L297.22,118.53L302.09,172.34L311.84,136.47L316.71,121.37L326.46,153.16L331.33,60.64L336.2,63.13L341.07,104.33L345.95,100.95L350.82,86.04L355.69,95.27L360.56,72.9L365.44,81.95L370.31,79.47L375.18,63.84L380.05,67.57L384.93,66.86L389.8,58.69L394.67,60.64L399.54,47.86L404.42,46.79L409.29,38.98L414.16,59.22L419.03,54.25L423.91,59.04L428.78,56.2L433.65,54.96L438.52,75.91L443.4,149.61L448.27,82.84L453.14,78.22L458.01,34.72L462.89,102.91L467.76,96.51L472.63,129.72L477.5,108.77L482.38,94.21L487.25,85.86L492.12,79.47L496.99,94.92L501.87,109.48L506.74,94.92L511.61,132.03L516.48,143.57L521.36,77.69L526.23,62.06L531.1,32.23L535.97,38.45L540.85,110.01L545.72,100.42L550.59,34.18L555.46,42L560.34,23.17L565.21,25.13L570.08,36.14L574.95,61.53L579.83,59.4L584.7,44.66L589.57,44.66L594.44,21.93L599.32,75.03L604.19,84.79L609.06,83.73L613.93,47.32L618.81,57.09L623.68,53.9L628.55,44.31L633.42,119.24L638.3,84.79L643.17,117.11L648.04,110.72L652.91,125.28L662.66,106.1L667.53,114.63L677.28,144.46L682.15,103.79L687.02,108.23L691.89,102.91L696.77,132.38L701.64,97.05L706.51,109.48L711.38,67.21L716.26,77.87L721.13,41.11L726,109.48" style="vector-effect: none; fill: none; stroke: rgb(128, 0, 128); stroke-opacity: 1; stroke-width: 2px; opacity: 1;"/></g><g class="points"/><g class="text"/></g><g class="trace scatter trace3de06e" style="stroke-miterlimit: 2; opacity: 1;"><g class="fills"/><g class="errorbars"/><g class="lines"><path class="js-line" d="M0,307.48L4.87,147.48L9.74,129.54L14.62,160.8L19.49,152.27L24.36,169.32L29.23,180.69L34.11,217.44L38.98,166.3L43.85,266.81L48.72,199.51L53.6,204.3L58.47,72.72L63.34,144.64L68.21,188.14L73.09,224.9L77.96,161.69L82.83,199.51L87.7,177.67L92.58,151.21L97.45,72.72L102.32,159.73L107.19,106.81L112.07,100.07L116.94,129.54L121.81,122.8L126.68,104.86L131.56,149.43L136.43,159.73L141.3,135.05L146.17,156.89L151.05,148.37L155.92,118.18L160.79,113.38L165.66,159.73L170.54,75.56L175.41,97.4L180.28,57.62L185.15,73.78L190.03,154.94L194.9,128.48L199.77,84.97L204.64,166.3L209.52,154.94L214.39,135.05L219.26,161.69L224.13,161.69L229.01,170.03L233.88,168.26L238.75,57.62L243.62,133.27L248.5,108.59L253.37,157.96L258.24,87.81L263.11,69.88L267.99,119.95L272.86,135.05L277.73,154.94L282.6,151.21L292.35,108.59L297.22,121.91L302.09,208.03L306.97,179.62L311.84,159.73L316.71,159.73L321.58,173.05L326.46,161.69L331.33,51.05L336.2,64.19L341.07,89.94L345.95,103.08L350.82,73.78L355.69,67.21L360.56,60.47L365.44,55.85L370.31,55.85L375.18,42.53L380.05,74.85L384.93,51.94L394.67,29.21L399.54,43.42L404.42,56.56L409.29,49.99L414.16,69.88L419.03,42.53L423.91,35.96L428.78,51.94L433.65,32.94L438.52,76.45L443.4,119.95L448.27,96.34L453.14,78.4L458.01,66.15L462.89,129.54L467.76,118.18L472.63,113.38L477.5,111.43L482.38,104.86L487.25,129.54L492.12,136.11L496.99,119.95L501.87,138.07L506.74,142.68L511.61,171.1L516.48,161.69L521.36,119.95L526.23,111.43L531.1,66.15L535.97,28.32L540.85,138.07L545.72,127.59L550.59,70.94L555.46,70.94L560.34,72.72L565.21,48.03L570.08,54.78L574.95,41.46L579.83,34.89L584.7,41.46L589.57,41.46L594.44,48.03L599.32,98.29L604.19,98.29L609.06,86.92L613.93,38.62L618.81,19.8L623.68,19.8L633.42,146.41L638.3,131.32L643.17,131.32L648.04,119.95L652.91,131.32L657.79,131.32L662.66,131.32L667.53,138.07L672.4,154.23L677.28,173.94L682.15,158.84L687.02,131.32L691.89,142.68L696.77,146.41L701.64,122.8L706.51,106.81L711.38,71.65L716.26,93.5L721.13,54.78L726,164.53" style="vector-effect: none; fill: none; stroke: rgb(255, 192, 203); stroke-opacity: 1; stroke-width: 2px; opacity: 1;"/></g><g class="points"/><g class="text"/></g><g class="trace scatter trace3235b4" style="stroke-miterlimit: 2; opacity: 1;"><g class="fills"/><g class="errorbars"/><g class="lines"><path class="js-line" d="M0,346.37L4.87,228.99L9.74,135.05L14.62,134.69L19.49,132.56L24.36,197.2L29.23,199.33L34.11,227.03L38.98,199.33L43.85,231.3L48.72,214.43L53.6,188.85L58.47,113.92L63.34,186.72L68.21,222.95L73.09,264.86L77.96,212.3L82.83,240.53L87.7,155.11L92.58,144.64L97.45,72.01L102.32,138.42L107.19,107.35L112.07,107.88L116.94,137.53L121.81,120.49L126.68,124.57L131.56,136.65L136.43,211.94L141.3,165.59L146.17,172.16L155.92,113.56L160.79,118L165.66,132.74L170.54,77.87L175.41,95.09L180.28,75.03L185.15,74.14L190.03,159.55L194.9,143.04L199.77,81.24L204.64,163.82L209.52,161.69L214.39,136.65L219.26,163.64L224.13,184.59L229.01,195.25L238.75,63.66L243.62,136.47L248.5,134.69L253.37,147.12L258.24,52.65L263.11,73.43L267.99,135.23L272.86,159.55L277.73,172.16L282.6,151.39L287.48,138.96L292.35,145.17L297.22,149.08L302.09,216.56L311.84,171.98L316.71,159.38L326.46,193.12L331.33,73.96L336.2,76.27L341.07,106.28L345.95,108.06L350.82,94.56L355.69,103.26L360.56,78.76L365.44,88.88L370.31,86.57L375.18,68.46L380.05,68.28L384.93,67.92L389.8,61L394.67,61.71L399.54,56.38L404.42,57.8L409.29,52.83L414.16,73.78L419.03,56.74L423.91,62.6L428.78,58.69L433.65,64.55L438.52,94.03L443.4,178.56L448.27,100.42L453.14,97.93L458.01,48.57L462.89,130.43L467.76,122.09L472.63,159.55L477.5,134.69L482.38,118.18L487.25,107.88L492.12,103.44L496.99,118.18L501.87,134.87L506.74,118.18L511.61,163.64L516.48,176.25L521.36,101.31L526.23,82.84L531.1,46.26L535.97,56.03L540.85,140.55L545.72,124.39L550.59,46.79L555.46,51.76L560.34,35.96L565.21,36.49L570.08,48.75L574.95,72.54L579.83,72.01L584.7,57.27L589.57,57.27L594.44,34.18L599.32,99.18L604.19,109.65L609.06,107.7L613.93,62.95L618.81,65.08L623.68,62.6L628.55,64.19L633.42,149.08L638.3,109.65L643.17,144.99L648.04,140.73L652.91,151.56L657.79,144.99L662.66,132.56L672.4,153.87L677.28,170.39L682.15,124.93L687.02,132.74L691.89,130.43L696.77,165.77L701.64,118.53L706.51,134.87L711.38,85.5L716.26,99.53L721.13,53.18L726,134.87" style="vector-effect: none; fill: none; stroke: rgb(165, 42, 42); stroke-opacity: 1; stroke-width: 2px; opacity: 1;"/></g><g class="points"/><g class="text"/></g><g class="trace scatter trace45d7b8" style="stroke-miterlimit: 2; opacity: 1;"><g class="fills"/><g class="errorbars"/><g class="lines"><path class="js-line" d="M0,376.2L4.87,196.67L9.74,179.62L14.62,212.65L19.49,197.56L24.36,227.92L29.23,236.62L34.11,292.21L38.98,234.67L43.85,342.28L48.72,275.51L53.6,275.87L58.47,101.49L63.34,202.88L68.21,266.81L73.09,325.23L77.96,234.14L82.83,275.51L87.7,243.37L92.58,211.05L97.45,101.49L102.32,226.5L107.19,161.86L112.07,153.69L116.94,179.62L121.81,171.63L126.68,154.58L131.56,203.77L136.43,226.5L141.3,201.64L146.17,233.78L151.05,217.8L155.92,170.74L160.79,169.85L165.66,226.5L170.54,96.16L175.41,126.88L180.28,78.58L185.15,89.41L190.03,225.97L194.9,193.47L199.77,130.43L204.64,234.67L209.52,225.97L214.39,201.64L219.26,234.14L224.13,234.14L229.01,250.12L233.88,242.31L238.75,78.58L243.62,194.18L248.5,169.14L253.37,219.04L258.24,124.57L263.11,107.35L267.99,178.02L272.86,201.64L277.73,225.97L282.6,211.05L287.48,186.72L292.35,169.14L297.22,185.3L302.09,291.67L306.97,251.01L311.84,226.5L316.71,226.5L321.58,242.84L326.46,234.14L331.33,70.59L345.95,116.58L350.82,89.41L360.56,73.25L365.44,71.83L370.31,71.83L375.18,55.49L380.05,77.87L384.93,58.33L394.67,39.16L399.54,75.03L404.42,91.19L409.29,83.2L414.16,107.35L419.03,55.49L423.91,47.32L428.78,58.33L433.65,53.01L438.52,115.34L443.4,178.02L448.27,139.49L453.14,122.44L458.01,93.5L462.89,179.62L467.76,170.74L472.63,169.85L477.5,162.75L482.38,154.58L487.25,179.62L492.12,187.61L496.99,178.02L501.87,194.89L506.74,195.78L511.61,235.2L516.48,234.14L521.36,178.02L526.23,162.75L531.1,93.5L535.97,51.76L540.85,194.89L545.72,172.52L550.59,94.74L555.46,94.74L560.34,101.49L565.21,76.09L570.08,84.26L574.95,68.1L579.83,59.93L584.7,68.1L589.57,68.1L594.44,76.09L599.32,146.59L604.19,146.59L609.06,137.71L613.93,73.96L618.81,36.67L623.68,36.67L633.42,210.34L638.3,186.72L643.17,186.72L648.04,178.02L652.91,186.72L657.79,186.72L662.66,186.72L667.53,194.89L672.4,204.66L677.28,228.63L682.15,205.55L687.02,186.72L691.89,195.78L696.77,210.34L701.64,171.63L706.51,161.86L711.38,114.45L716.26,145.7L721.13,84.26L726,227.21" style="vector-effect: none; fill: none; stroke: rgb(128, 128, 128); stroke-opacity: 1; stroke-width: 2px; opacity: 1;"/></g><g class="points"/><g class="text"/></g></g></g><g class="overplot"/><path class="xlines-above crisp" d="M0,0" style="fill: none;"/><path class="ylines-above crisp" d="M0,0" style="fill: none;"/><g class="overlines-above"/><g class="xaxislayer-above"><g class="xtick"><text text-anchor="middle" x="0" y="509" transform="translate(235.57999999999998,0)" style="font-family: 'Open Sans', verdana, arial, sans-serif; font-size: 12px; fill: rgb(42, 63, 95); fill-opacity: 1; white-space: pre; opacity: 1;">20</text></g><g class="xtick"><text text-anchor="middle" x="0" y="509" style="font-family: 'Open Sans', verdana, arial, sans-serif; font-size: 12px; fill: rgb(42, 63, 95); fill-opacity: 1; white-space: pre; opacity: 1;" transform="translate(333.03,0)">40</text></g><g class="xtick"><text text-anchor="middle" x="0" y="509" style="font-family: 'Open Sans', verdana, arial, sans-serif; font-size: 12px; fill: rgb(42, 63, 95); fill-opacity: 1; white-space: pre; opacity: 1;" transform="translate(430.48,0)">60</text></g><g class="xtick"><text text-anchor="middle" x="0" y="509" style="font-family: 'Open Sans', verdana, arial, sans-serif; font-size: 12px; fill: rgb(42, 63, 95); fill-opacity: 1; white-space: pre; opacity: 1;" transform="translate(527.9300000000001,0)">80</text></g><g class="xtick"><text text-anchor="middle" x="0" y="509" style="font-family: 'Open Sans', verdana, arial, sans-serif; font-size: 12px; fill: rgb(42, 63, 95); fill-opacity: 1; white-space: pre; opacity: 1;" transform="translate(625.38,0)">100</text></g><g class="xtick"><text text-anchor="middle" x="0" y="509" style="font-family: 'Open Sans', verdana, arial, sans-serif; font-size: 12px; fill: rgb(42, 63, 95); fill-opacity: 1; white-space: pre; opacity: 1;" transform="translate(722.83,0)">120</text></g><g class="xtick"><text text-anchor="middle" x="0" y="509" style="font-family: 'Open Sans', verdana, arial, sans-serif; font-size: 12px; fill: rgb(42, 63, 95); fill-opacity: 1; white-space: pre; opacity: 1;" transform="translate(820.28,0)">140</text></g></g><g class="yaxislayer-above"><g class="ytick"><text text-anchor="end" x="142" y="4.199999999999999" transform="translate(0,476.91)" style="font-family: 'Open Sans', verdana, arial, sans-serif; font-size: 12px; fill: rgb(42, 63, 95); fill-opacity: 1; white-space: pre; opacity: 1;">65</text></g><g class="ytick"><text text-anchor="end" x="142" y="4.199999999999999" style="font-family: 'Open Sans', verdana, arial, sans-serif; font-size: 12px; fill: rgb(42, 63, 95); fill-opacity: 1; white-space: pre; opacity: 1;" transform="translate(0,388.12)">70</text></g><g class="ytick"><text text-anchor="end" x="142" y="4.199999999999999" style="font-family: 'Open Sans', verdana, arial, sans-serif; font-size: 12px; fill: rgb(42, 63, 95); fill-opacity: 1; white-space: pre; opacity: 1;" transform="translate(0,299.33000000000004)">75</text></g><g class="ytick"><text text-anchor="end" x="142" y="4.199999999999999" style="font-family: 'Open Sans', verdana, arial, sans-serif; font-size: 12px; fill: rgb(42, 63, 95); fill-opacity: 1; white-space: pre; opacity: 1;" transform="translate(0,210.54000000000002)">80</text></g><g class="ytick"><text text-anchor="end" x="142" y="4.199999999999999" style="font-family: 'Open Sans', verdana, arial, sans-serif; font-size: 12px; fill: rgb(42, 63, 95); fill-opacity: 1; white-space: pre; opacity: 1;" transform="translate(0,121.75)">85</text></g></g><g class="overaxes-above"/></g></g><g class="polarlayer"/><g class="smithlayer"/><g class="ternarylayer"/><g class="geolayer"/><g class="funnelarealayer"/><g class="pielayer"/><g class="iciclelayer"/><g class="treemaplayer"/><g class="sunburstlayer"/><g class="glimages"/><defs id="topdefs-4964d2"><g class="clips"/><clipPath id="legend4964d2"><rect width="128" height="162" x="0" y="0"/></clipPath></defs><g class="layer-above"><g class="imagelayer"/><g class="shapelayer"/></g><g class="infolayer"><g class="legend" pointer-events="all" transform="translate(883.52,100)"><rect class="bg" shape-rendering="crispEdges" width="128" height="162" x="0" y="0" style="stroke: rgb(68, 68, 68); stroke-opacity: 1; fill: rgb(255, 255, 255); fill-opacity: 1; stroke-width: 0px;"/><g class="scrollbox" transform="" clip-path="url(#legend4964d2)"><g class="groups"><g class="traces" transform="translate(0,14.5)" style="opacity: 1;"><text class="legendtext" text-anchor="start" x="40" y="4.680000000000001" style="font-family: 'Open Sans', verdana, arial, sans-serif; font-size: 12px; fill: rgb(42, 63, 95); fill-opacity: 1; white-space: pre;">Train Accuracy</text><g class="layers" style="opacity: 1;"><g class="legendfill"/><g class="legendlines"><path class="js-line" d="M5,0h30" style="fill: none; stroke: rgb(255, 0, 0); stroke-opacity: 1; stroke-width: 2px;"/></g><g class="legendsymbols"><g class="legendpoints"/></g></g><rect class="legendtoggle" x="0" y="-9.5" width="122.71875" height="19" style="fill: rgb(0, 0, 0); fill-opacity: 0;"/></g><g class="traces" transform="translate(0,33.5)" style="opacity: 1;"><text class="legendtext" text-anchor="start" x="40" y="4.680000000000001" style="font-family: 'Open Sans', verdana, arial, sans-serif; font-size: 12px; fill: rgb(42, 63, 95); fill-opacity: 1; white-space: pre;">Test Accuracy</text><g class="layers" style="opacity: 1;"><g class="legendfill"/><g class="legendlines"><path class="js-line" d="M5,0h30" style="fill: none; stroke: rgb(0, 0, 255); stroke-opacity: 1; stroke-width: 2px;"/></g><g class="legendsymbols"><g class="legendpoints"/></g></g><rect class="legendtoggle" x="0" y="-9.5" width="122.71875" height="19" style="fill: rgb(0, 0, 0); fill-opacity: 0;"/></g><g class="traces" transform="translate(0,52.5)" style="opacity: 1;"><text class="legendtext" text-anchor="start" x="40" y="4.680000000000001" style="font-family: 'Open Sans', verdana, arial, sans-serif; font-size: 12px; fill: rgb(42, 63, 95); fill-opacity: 1; white-space: pre;">Train Precision</text><g class="layers" style="opacity: 1;"><g class="legendfill"/><g class="legendlines"><path class="js-line" d="M5,0h30" style="fill: none; stroke: rgb(0, 128, 0); stroke-opacity: 1; stroke-width: 2px;"/></g><g class="legendsymbols"><g class="legendpoints"/></g></g><rect class="legendtoggle" x="0" y="-9.5" width="122.71875" height="19" style="fill: rgb(0, 0, 0); fill-opacity: 0;"/></g><g class="traces" transform="translate(0,71.5)" style="opacity: 1;"><text class="legendtext" text-anchor="start" x="40" y="4.680000000000001" style="font-family: 'Open Sans', verdana, arial, sans-serif; font-size: 12px; fill: rgb(42, 63, 95); fill-opacity: 1; white-space: pre;">Test Precision</text><g class="layers" style="opacity: 1;"><g class="legendfill"/><g class="legendlines"><path class="js-line" d="M5,0h30" style="fill: none; stroke: rgb(255, 165, 0); stroke-opacity: 1; stroke-width: 2px;"/></g><g class="legendsymbols"><g class="legendpoints"/></g></g><rect class="legendtoggle" x="0" y="-9.5" width="122.71875" height="19" style="fill: rgb(0, 0, 0); fill-opacity: 0;"/></g><g class="traces" transform="translate(0,90.5)" style="opacity: 1;"><text class="legendtext" text-anchor="start" x="40" y="4.680000000000001" style="font-family: 'Open Sans', verdana, arial, sans-serif; font-size: 12px; fill: rgb(42, 63, 95); fill-opacity: 1; white-space: pre;">Train Recall</text><g class="layers" style="opacity: 1;"><g class="legendfill"/><g class="legendlines"><path class="js-line" d="M5,0h30" style="fill: none; stroke: rgb(128, 0, 128); stroke-opacity: 1; stroke-width: 2px;"/></g><g class="legendsymbols"><g class="legendpoints"/></g></g><rect class="legendtoggle" x="0" y="-9.5" width="122.71875" height="19" style="fill: rgb(0, 0, 0); fill-opacity: 0;"/></g><g class="traces" transform="translate(0,109.5)" style="opacity: 1;"><text class="legendtext" text-anchor="start" x="40" y="4.680000000000001" style="font-family: 'Open Sans', verdana, arial, sans-serif; font-size: 12px; fill: rgb(42, 63, 95); fill-opacity: 1; white-space: pre;">Test Recall</text><g class="layers" style="opacity: 1;"><g class="legendfill"/><g class="legendlines"><path class="js-line" d="M5,0h30" style="fill: none; stroke: rgb(255, 192, 203); stroke-opacity: 1; stroke-width: 2px;"/></g><g class="legendsymbols"><g class="legendpoints"/></g></g><rect class="legendtoggle" x="0" y="-9.5" width="122.71875" height="19" style="fill: rgb(0, 0, 0); fill-opacity: 0;"/></g><g class="traces" transform="translate(0,128.5)" style="opacity: 1;"><text class="legendtext" text-anchor="start" x="40" y="4.680000000000001" style="font-family: 'Open Sans', verdana, arial, sans-serif; font-size: 12px; fill: rgb(42, 63, 95); fill-opacity: 1; white-space: pre;">Train F1</text><g class="layers" style="opacity: 1;"><g class="legendfill"/><g class="legendlines"><path class="js-line" d="M5,0h30" style="fill: none; stroke: rgb(165, 42, 42); stroke-opacity: 1; stroke-width: 2px;"/></g><g class="legendsymbols"><g class="legendpoints"/></g></g><rect class="legendtoggle" x="0" y="-9.5" width="122.71875" height="19" style="fill: rgb(0, 0, 0); fill-opacity: 0;"/></g><g class="traces" transform="translate(0,147.5)" style="opacity: 1;"><text class="legendtext" text-anchor="start" x="40" y="4.680000000000001" style="font-family: 'Open Sans', verdana, arial, sans-serif; font-size: 12px; fill: rgb(42, 63, 95); fill-opacity: 1; white-space: pre;">Test F1</text><g class="layers" style="opacity: 1;"><g class="legendfill"/><g class="legendlines"><path class="js-line" d="M5,0h30" style="fill: none; stroke: rgb(128, 128, 128); stroke-opacity: 1; stroke-width: 2px;"/></g><g class="legendsymbols"><g class="legendpoints"/></g></g><rect class="legendtoggle" x="0" y="-9.5" width="122.71875" height="19" style="fill: rgb(0, 0, 0); fill-opacity: 0;"/></g></g></g><rect class="scrollbar" rx="20" ry="3" width="0" height="0" x="0" y="0" style="fill: rgb(128, 139, 164); fill-opacity: 1;"/></g><g class="g-gtitle"><text class="gtitle" x="51.2" y="50" text-anchor="start" dy="0em" style="font-family: 'Open Sans', verdana, arial, sans-serif; font-size: 17px; fill: rgb(42, 63, 95); opacity: 1; font-weight: normal; white-space: pre;">Training Metrics - logs/FakeNewsNet-politifact_max-vocab=15000_pre=v2_text_domain_T=50_s=5.log</text></g><g class="g-xtitle"><text class="xtitle" x="506" y="537.3" text-anchor="middle" style="font-family: 'Open Sans', verdana, arial, sans-serif; font-size: 14px; fill: rgb(42, 63, 95); opacity: 1; font-weight: normal; white-space: pre;">Epoch</text></g><g class="g-ytitle"><text class="ytitle" transform="rotate(-90,103.965625,298)" x="103.965625" y="298" text-anchor="middle" style="font-family: 'Open Sans', verdana, arial, sans-serif; font-size: 14px; fill: rgb(42, 63, 95); opacity: 1; font-weight: normal; white-space: pre;">Metric Score</text></g></g><g class="menulayer"><g class="updatemenu-container" style="cursor: pointer;"><g class="updatemenu-header-group" transform="translate(12,60)"><g class="updatemenu-header" transform="translate(1,1)" style="pointer-events: all;"><rect class="updatemenu-item-rect" rx="2" ry="2" shape-rendering="crispEdges" x="0" y="0" width="167" height="33" style="stroke: rgb(190, 200, 217); stroke-opacity: 1; fill: rgb(255, 255, 255); fill-opacity: 1; stroke-width: 1px;"/><text class="updatemenu-item-text" text-anchor="start" data-notex="1" x="12" y="19.5" style="font-family: 'Open Sans', verdana, arial, sans-serif; font-size: 12px; fill: rgb(42, 63, 95); fill-opacity: 1; white-space: pre;">All</text></g><text class="updatemenu-header-arrow" text-anchor="end" x="163" y="19.5" style="font-family: 'Open Sans', verdana, arial, sans-serif; font-size: 12px; fill: rgb(42, 63, 95); fill-opacity: 1;">▼</text></g><g class="updatemenu-dropdown-button-group" updatemenu-active-index="-1" style="pointer-events: all;"><rect class="scrollbox-bg" opacity="0" x="0" y="0" width="0" height="0" style="pointer-events: all;"/></g></g></g></svg>