<svg class="main-svg" xmlns="http://www.w3.org/2000/svg" xmlns:xlink="http://www.w3.org/1999/xlink" width="1024" height="576" style="" viewBox="0 0 1024 576"><rect x="0" y="0" width="1024" height="576" style="fill: rgb(255, 255, 255); fill-opacity: 1;"/><defs id="defs-812201"><g class="clips"><clipPath id="clip812201xyplot" class="plotclip"><rect width="726" height="396"/></clipPath><clipPath class="axesclip" id="clip812201x"><rect x="143" y="0" width="726" height="576"/></clipPath><clipPath class="axesclip" id="clip812201y"><rect x="0" y="100" width="1024" height="396"/></clipPath><clipPath class="axesclip" id="clip812201xy"><rect x="143" y="100" width="726" height="396"/></clipPath></g><g class="gradients"/><g class="patterns"/></defs><g class="bglayer"><rect class="bg" x="143" y="100" width="726" height="396" style="fill: rgb(229, 236, 246); fill-opacity: 1; stroke-width: 0;"/></g><g class="layer-below"><g class="imagelayer"/><g class="shapelayer"/></g><g class="cartesianlayer"><g class="subplot xy"><g class="layer-subplot"><g class="shapelayer"/><g class="imagelayer"/></g><g class="minor-gridlayer"><g class="x"/><g class="y"/></g><g class="gridlayer"><g class="x"><path class="xgrid crisp" transform="translate(235.57999999999998,0)" d="M0,100v396" style="stroke: rgb(255, 255, 255); stroke-opacity: 1; stroke-width: 1px;"/><path class="xgrid crisp" transform="translate(333.03,0)" d="M0,100v396" style="stroke: rgb(255, 255, 255); stroke-opacity: 1; stroke-width: 1px;"/><path class="xgrid crisp" transform="translate(430.48,0)" d="M0,100v396" style="stroke: rgb(255, 255, 255); stroke-opacity: 1; stroke-width: 1px;"/><path class="xgrid crisp" transform="translate(527.9300000000001,0)" d="M0,100v396" style="stroke: rgb(255, 255, 255); stroke-opacity: 1; stroke-width: 1px;"/><path class="xgrid crisp" transform="translate(625.38,0)" d="M0,100v396" style="stroke: rgb(255, 255, 255); stroke-opacity: 1; stroke-width: 1px;"/><path class="xgrid crisp" transform="translate(722.83,0)" d="M0,100v396" style="stroke: rgb(255, 255, 255); stroke-opacity: 1; stroke-width: 1px;"/><path class="xgrid crisp" transform="translate(820.28,0)" d="M0,100v396" style="stroke: rgb(255, 255, 255); stroke-opacity: 1; stroke-width: 1px;"/></g><g class="y"><path class="ygrid crisp" transform="translate(0,458.25)" d="M143,0h726" style="stroke: rgb(255, 255, 255); stroke-opacity: 1; stroke-width: 1px;"/><path class="ygrid crisp" transform="translate(0,406.35)" d="M143,0h726" style="stroke: rgb(255, 255, 255); stroke-opacity: 1; stroke-width: 1px;"/><path class="ygrid crisp" transform="translate(0,354.46000000000004)" d="M143,0h726" style="stroke: rgb(255, 255, 255); stroke-opacity: 1; stroke-width: 1px;"/><path class="ygrid crisp" transform="translate(0,302.57)" d="M143,0h726" style="stroke: rgb(255, 255, 255); stroke-opacity: 1; stroke-width: 1px;"/><path class="ygrid crisp" transform="translate(0,250.67)" d="M143,0h726" style="stroke: rgb(255, 255, 255); stroke-opacity: 1; stroke-width: 1px;"/><path class="ygrid crisp" transform="translate(0,198.78)" d="M143,0h726" style="stroke: rgb(255, 255, 255); stroke-opacity: 1; stroke-width: 1px;"/><path class="ygrid crisp" transform="translate(0,146.89)" d="M143,0h726" style="stroke: rgb(255, 255, 255); stroke-opacity: 1; stroke-width: 1px;"/></g></g><g class="zerolinelayer"/><path class="xlines-below"/><path class="ylines-below"/><g class="overlines-below"/><g class="xaxislayer-below"/><g class="yaxislayer-below"/><g class="overaxes-below"/><g class="plot" transform="translate(143,100)" clip-path="url(#clip812201xyplot)"><g class="scatterlayer mlayer"><g class="trace scatter trace1d7056" style="stroke-miterlimit: 2; opacity: 1;"><g class="fills"/><g class="errorbars"/><g class="lines"><path class="js-line" d="M0,278.54L4.87,130.95L9.74,247.82L14.62,75.64L19.49,133.45L24.36,138.43L29.23,100.23L34.11,87.99L38.98,89.23L43.85,250.31L48.72,231.83L53.6,223.22L58.47,226.96L63.34,116.22L68.21,117.46L73.09,113.83L77.96,90.37L82.83,76.88L87.7,76.88L92.58,79.37L97.45,85.5L102.32,59.65L107.19,63.39L112.07,75.64L116.94,64.64L121.81,201.11L126.68,74.39L131.56,78.13L136.43,85.5L141.3,81.76L146.17,68.27L151.05,67.02L155.92,68.27L160.79,70.76L165.66,64.64L170.54,63.39L175.41,113.83L180.28,73.25L185.15,81.76L190.03,75.64L194.9,68.27L199.77,54.78L204.64,43.67L209.52,59.65L214.39,51.04L219.26,42.43L224.13,56.02L229.01,64.64L233.88,65.78L238.75,64.64L243.62,70.76L248.5,53.53L253.37,112.58L258.24,68.27L263.11,52.28L267.99,56.02L272.86,53.53L277.73,57.27L282.6,53.53L287.48,53.53L292.35,59.65L297.22,68.27L302.09,64.64L306.97,64.64L311.84,65.78L316.71,68.27L321.58,59.65L326.46,58.41L331.33,59.65L336.2,44.92L341.07,53.53L345.95,52.28L350.82,60.9L360.56,56.02L365.44,60.9L370.31,48.65L375.18,47.41L380.05,47.41L384.93,42.43L389.8,42.43L394.67,40.04L399.54,38.79L404.42,41.18L414.16,38.79L419.03,48.65L423.91,35.06L428.78,38.79L433.65,38.79L438.52,41.18L443.4,41.18L448.27,38.79L453.14,37.55L458.01,35.06L462.89,31.42L467.76,41.18L472.63,47.41L477.5,47.41L482.38,35.06L487.25,40.04L492.12,31.42L496.99,43.67L501.87,35.06L506.74,33.81L511.61,41.18L516.48,35.06L521.36,42.43L526.23,38.79L531.1,41.18L535.97,47.41L540.85,51.04L545.72,49.79L550.59,51.04L555.46,47.41L560.34,37.55L565.21,41.18L570.08,36.3L574.95,22.81L579.83,30.18L584.7,32.67L589.57,47.41L594.44,51.04L599.32,35.06L604.19,35.06L609.06,36.3L613.93,35.06L618.81,31.42L623.68,26.44L628.55,56.02L633.42,57.27L638.3,40.04L643.17,38.79L648.04,41.18L652.91,64.64L657.79,67.02L662.66,36.3L667.53,37.55L672.4,36.3L677.28,40.04L682.15,32.67L687.02,28.93L691.89,28.93L696.77,31.42L701.64,57.27L706.51,31.42L711.38,28.93L716.26,24.06L721.13,26.44L726,25.2" style="vector-effect: none; fill: none; stroke: rgb(255, 0, 0); stroke-opacity: 1; stroke-width: 2px; opacity: 1;"/></g><g class="points"/><g class="text"/></g><g class="trace scatter trace6bb286" style="stroke-miterlimit: 2; opacity: 1;"><g class="fills"/><g class="errorbars"/><g class="lines"><path class="js-line" d="M0,356.27L4.87,160.43L9.74,341.64L14.62,135.94L19.49,160.43L24.36,155.55L29.23,145.8L34.11,160.43L38.98,160.43L43.85,371.01L48.72,371.01L53.6,366.03L58.47,356.27L63.34,258.4L68.21,238.79L73.09,238.79L77.96,209.42L82.83,189.8L87.7,199.66L92.58,184.92L97.45,175.17L102.32,165.41L107.19,150.67L112.07,209.42L116.94,165.41L121.81,326.9L126.68,155.55L131.56,155.55L136.43,170.29L141.3,170.29L146.17,150.67L151.05,145.8L155.92,145.8L160.79,155.55L165.66,160.43L170.54,150.67L175.41,219.17L180.28,165.41L185.15,170.29L190.03,165.41L194.9,155.55L199.77,121.3L204.64,126.18L209.52,140.92L214.39,121.3L219.26,116.42L224.13,165.41L229.01,170.29L233.88,170.29L238.75,165.41L243.62,175.17L248.5,145.8L253.37,258.4L258.24,180.05L263.11,155.55L267.99,155.55L272.86,135.94L277.73,145.8L282.6,165.41L287.48,160.43L292.35,175.17L297.22,180.05L302.09,175.17L306.97,184.92L311.84,184.92L316.71,175.17L321.58,180.05L331.33,160.43L336.2,145.8L341.07,165.41L345.95,180.05L350.82,165.41L355.69,165.41L370.31,106.56L375.18,116.42L380.05,126.18L384.93,111.55L394.67,111.55L399.54,121.3L404.42,135.94L409.29,111.55L414.16,121.3L419.03,135.94L423.91,121.3L428.78,140.92L433.65,155.55L438.52,150.67L443.4,145.8L448.27,135.94L453.14,126.18L458.01,121.3L462.89,111.55L467.76,121.3L472.63,111.55L477.5,106.56L482.38,116.42L487.25,121.3L492.12,101.69L496.99,106.56L506.74,106.56L511.61,111.55L516.48,116.42L521.36,116.42L526.23,121.3L531.1,106.56L535.97,101.69L540.85,121.3L545.72,116.42L550.59,121.3L555.46,131.06L560.34,116.42L565.21,111.55L570.08,116.42L574.95,106.56L579.83,106.56L594.44,150.67L599.32,131.06L609.06,111.55L613.93,116.42L618.81,126.18L623.68,121.3L628.55,140.92L633.42,135.94L638.3,111.55L643.17,116.42L652.91,106.56L657.79,116.42L662.66,121.3L667.53,111.55L672.4,126.18L677.28,116.42L682.15,126.18L687.02,126.18L691.89,126.18L696.77,121.3L701.64,184.92L706.51,121.3L711.38,121.3L716.26,111.55L721.13,106.56L726,87.05" style="vector-effect: none; fill: none; stroke: rgb(0, 0, 255); stroke-opacity: 1; stroke-width: 2px; opacity: 1;"/></g><g class="points"/><g class="text"/></g><g class="trace scatter tracee19ec2" style="stroke-miterlimit: 2; opacity: 1;"><g class="fills"/><g class="errorbars"/><g class="lines"><path class="js-line" d="M0,204.95L4.87,132.82L9.74,166.45L14.62,77.09L19.49,97.02L24.36,106.25L29.23,93.07L34.11,92.14L38.98,93.49L43.85,164.27L48.72,151.19L53.6,148.49L58.47,156.8L63.34,109.06L68.21,104.7L73.09,98.37L77.96,86.74L82.83,76.26L87.7,76.67L92.58,81.03L97.45,86.95L102.32,63.18L107.19,67.02L112.07,70.34L116.94,65.15L121.81,138.32L126.68,73.35L136.43,84.67L141.3,80.31L146.17,68.27L151.05,67.96L155.92,68.68L160.79,71.17L165.66,65.57L170.54,65.47L175.41,99.92L180.28,74.29L185.15,80.83L190.03,76.05L194.9,69.41L199.77,58.51L204.64,48.03L209.52,61.31L219.26,46.37L224.13,58.1L229.01,66.5L233.88,65.05L238.75,64.84L243.62,71.17L248.5,56.96L253.37,98.99L258.24,70.97L263.11,55.81L267.99,60.48L272.86,57.68L277.73,60.69L282.6,56.44L287.48,56.75L292.35,62.25L297.22,70.65L302.09,66.5L306.97,65.88L311.84,66.92L316.71,69.41L321.58,62.25L331.33,62.97L336.2,48.96L341.07,56.23L345.95,55.09L350.82,62.66L355.69,61.63L360.56,59.86L365.44,65.57L370.31,53.32L375.18,51.56L380.05,51.87L384.93,47.2L389.8,46.99L394.67,44.71L399.54,43.46L404.42,45.44L414.16,42.84L419.03,52.18L423.91,39.31L428.78,43.15L433.65,42.53L438.52,45.02L443.4,44.6L448.27,43.05L453.14,41.8L458.01,39.52L462.89,35.89L467.76,45.33L472.63,51.56L477.5,51.45L482.38,39.52L487.25,44.71L492.12,36.09L496.99,48.24L501.87,39.83L506.74,38.59L511.61,45.95L516.48,39.73L521.36,47.3L526.23,43.36L531.1,45.85L535.97,52.18L540.85,54.67L545.72,53.32L550.59,55.09L555.46,51.25L560.34,41.91L565.21,45.12L570.08,40.35L574.95,27.38L579.83,34.54L584.7,36.3L589.57,49.9L594.44,53.43L599.32,38.69L604.19,39.21L609.06,40.76L613.93,39.73L618.81,35.99L623.68,30.39L628.55,59.34L633.42,60.69L638.3,44.81L643.17,43.57L648.04,46.06L652.91,67.75L657.79,70.34L662.66,40.25L667.53,41.59L672.4,40.25L677.28,44.5L682.15,37.03L687.02,33.29L691.89,33.08L696.77,35.58L701.64,56.64L706.51,35.78L711.38,33.19L716.26,28L721.13,30.8L726,29.76" style="vector-effect: none; fill: none; stroke: rgb(0, 128, 0); stroke-opacity: 1; stroke-width: 2px; opacity: 1;"/></g><g class="points"/><g class="text"/></g><g class="trace scatter trace69067f" style="stroke-miterlimit: 2; opacity: 1;"><g class="fills"/><g class="errorbars"/><g class="lines"><path class="js-line" d="M0,273.45L4.87,177.87L9.74,223.32L14.62,152.85L19.49,123.79L24.36,119.23L29.23,150.57L34.11,175.17L38.98,176.41L43.85,276.57L48.72,288.6L53.6,279.68L58.47,284.45L63.34,239L68.21,215.54L73.09,219.07L77.96,205.37L82.83,188.56L87.7,198.31L97.45,186.06L102.32,182.02L107.19,168.32L112.07,210.66L116.94,176.21L121.81,249.89L126.68,162.51L131.56,164.48L136.43,176.21L141.3,176.21L146.17,158.67L151.05,156.49L155.92,154.62L160.79,166.35L165.66,168.42L170.54,163.75L175.41,206.1L180.28,176.21L185.15,178.28L190.03,176.21L194.9,164.48L199.77,135.21L204.64,141.75L209.52,152.33L214.39,135.21L219.26,131.68L224.13,177.87L229.01,182.02L233.88,178.28L238.75,177.87L243.62,184.2L248.5,161.88L253.37,239L258.24,193.64L263.11,171.95L267.99,172.99L272.86,152.65L277.73,162.82L282.6,179.42L287.48,175.17L292.35,189.39L297.22,193.64L302.09,189.39L306.97,197.69L311.84,197.69L316.71,187.83L321.58,191.88L326.46,185.13L336.2,160.74L341.07,177.87L345.95,191.88L350.82,177.87L355.69,179.42L360.56,161.88L370.31,122.96L375.18,133.24L380.05,143.62L384.93,128.15L394.67,127.94L399.54,137.8L404.42,150.78L409.29,127.01L414.16,137.08L419.03,149.53L423.91,137.08L428.78,155.14L433.65,168.01L438.52,165.2L443.4,159.5L448.27,151.82L453.14,141.75L458.01,137.08L462.89,127.94L467.76,137.08L472.63,127.53L477.5,122.24L482.38,132.93L487.25,138.53L492.12,117.25L496.99,122.96L506.74,122.96L511.61,128.15L516.48,133.34L521.36,133.03L526.23,138.43L531.1,122.34L535.97,117.77L540.85,137.08L545.72,132.41L550.59,137.8L555.46,146.31L560.34,132.93L565.21,127.01L570.08,132.41L574.95,122.34L579.83,122.65L589.57,150.78L594.44,165.2L599.32,147.98L604.19,138.53L609.06,128.15L613.93,133.34L618.81,143.82L623.68,137.8L628.55,156.38L633.42,151.82L638.3,128.15L643.17,133.34L648.04,128.15L652.91,119.64L657.79,131.68L662.66,136.25L667.53,127.53L672.4,143.1L677.28,133.34L682.15,143.1L687.02,143.82L691.89,143.1L696.77,138.22L701.64,189.8L706.51,137.8L711.38,137.8L716.26,127.01L721.13,122.96L726,101.69" style="vector-effect: none; fill: none; stroke: rgb(255, 165, 0); stroke-opacity: 1; stroke-width: 2px; opacity: 1;"/></g><g class="points"/><g class="text"/></g><g class="trace scatter tracedfe141" style="stroke-miterlimit: 2; opacity: 1;"><g class="fills"/><g class="errorbars"/><g class="lines"><path class="js-line" d="M0,238.27L4.87,147.35L9.74,206.51L14.62,86.64L19.49,169.04L24.36,173.2L29.23,120.47L34.11,85.08L38.98,86.53L43.85,207.76L48.72,191.05L53.6,184.09L58.47,188.87L63.34,102.52L68.21,100.34L73.09,95.15L77.96,78.65L82.83,67.44L87.7,67.85L92.58,72.32L97.45,78.44L102.32,54.98L107.19,59.03L112.07,62.25L116.94,56.02L121.81,165.41L126.68,64.43L136.43,76.05L141.3,71.59L146.17,59.13L151.05,58.93L155.92,59.55L160.79,62.14L165.66,56.44L170.54,56.54L175.41,95.87L180.28,65.47L185.15,72L190.03,67.13L194.9,60.38L199.77,50.42L204.64,40.87L209.52,52.18L219.26,38.17L224.13,48.96L229.01,57.58L233.88,55.81L238.75,55.61L243.62,62.14L248.5,48.55L253.37,94.84L258.24,62.46L263.11,47.41L267.99,53.43L272.86,50.11L277.73,52.49L282.6,47.72L287.48,48.13L292.35,53.43L297.22,62.04L302.09,57.58L306.97,56.85L311.84,57.89L316.71,60.38L321.58,53.43L331.33,54.57L336.2,41.08L341.07,47.3L345.95,46.27L350.82,53.63L355.69,53.12L360.56,51.87L365.44,58.93L370.31,47.1L375.18,43.98L380.05,44.81L384.93,40.97L389.8,40.14L394.67,38.48L399.54,37.44L404.42,37.86L409.29,37.24L414.16,34.95L419.03,43.88L423.91,31.84L428.78,35.78L433.65,34.12L438.52,36.72L443.4,35.89L453.14,34.33L458.01,32.25L462.89,29.04L467.76,37.55L472.63,43.98L477.5,43.57L482.38,32.57L487.25,38.48L492.12,31.42L496.99,41.7L501.87,35.06L506.74,34.02L511.61,40.35L516.48,33.81L521.36,43.05L526.23,40.25L535.97,46.47L540.85,46.37L545.72,44.92L550.59,47.2L555.46,43.15L560.34,34.75L565.21,37.13L570.08,32.46L574.95,21.98L579.83,27.17L584.7,27.69L589.57,40.76L594.44,44.29L599.32,30.18L604.19,31.42L609.06,33.71L613.93,33.81L618.81,29.87L623.68,21.98L628.55,51.04L633.42,52.49L638.3,39.31L643.17,39L648.04,41.59L652.91,72.32L657.79,74.81L662.66,32.05L667.53,33.5L672.4,32.05L677.28,37.65L682.15,29.66L687.02,26.13L691.89,25.3L696.77,27.79L701.64,47.2L706.51,28.62L711.38,25.72L716.26,19.8L721.13,23.12L726,23.33" style="vector-effect: none; fill: none; stroke: rgb(128, 0, 128); stroke-opacity: 1; stroke-width: 2px; opacity: 1;"/></g><g class="points"/><g class="text"/></g><g class="trace scatter tracef90ef2" style="stroke-miterlimit: 2; opacity: 1;"><g class="fills"/><g class="errorbars"/><g class="lines"><path class="js-line" d="M0,289.64L4.87,201.53L9.74,261.41L14.62,165.52L19.49,240.45L24.36,233.81L29.23,198.21L34.11,162.61L38.98,165.41L43.85,298.57L48.72,304.07L53.6,297.43L58.47,295.25L63.34,228.93L68.21,205.06L73.09,207.86L77.96,190.22L82.83,171.95L87.7,182.43L97.45,171.43L102.32,172.05L107.19,160.43L112.07,195.72L116.94,160.95L121.81,263.7L126.68,144.86L131.56,147.56L136.43,159.18L141.3,159.18L146.17,140.92L151.05,139.88L155.92,137.08L160.79,150.36L165.66,151.5L170.54,149.32L175.41,192.4L180.28,160.95L185.15,161.99L190.03,160.95L194.9,147.56L199.77,120.47L204.64,129.92L209.52,135.94L214.39,120.47L219.26,119.43L224.13,163.65L229.01,167.59L233.88,161.99L238.75,163.65L243.62,168.63L248.5,150.99L253.37,228.93L258.24,180.88L263.11,161.47L267.99,164.27L272.86,143.2L277.73,153.79L282.6,166.45L287.48,162.61L292.35,177.04L297.22,180.88L302.09,177.04L306.97,184.72L311.84,184.72L316.71,174.23L321.58,178.07L326.46,173.09L336.2,148.18L341.07,163.65L345.95,178.07L350.82,163.65L355.69,166.45L360.56,150.99L365.44,138.22L370.31,117.25L380.05,138.22L384.93,123.9L389.8,121.09L394.67,121.09L404.42,137.7L409.29,115.49L419.03,134.9L423.91,126.08L428.78,141.54L433.65,153.16L438.52,152.02L443.4,145.38L448.27,140.4L453.14,129.92L458.01,126.08L462.89,121.09L467.76,126.08L472.63,118.29L477.5,111.65L482.38,124.93L487.25,134.38L492.12,118.92L496.99,119.95L501.87,119.95L506.74,119.95L511.61,126.6L516.48,130.54L521.36,136.04L526.23,139.98L531.1,125.56L535.97,113.31L540.85,126.08L545.72,122.13L550.59,128.88L555.46,133.76L560.34,124.93L565.21,115.49L570.08,122.13L574.95,125.56L579.83,114.45L584.7,128.88L589.57,137.7L594.44,152.02L599.32,139.36L604.19,134.38L609.06,123.9L613.93,130.54L618.81,141.02L623.68,128.88L628.55,144.34L633.42,140.4L638.3,123.9L643.17,130.54L648.04,123.9L652.91,133.86L657.79,141.64L662.66,123.27L667.53,118.29L672.4,135.52L677.28,130.54L687.02,141.02L691.89,135.52L696.77,131.58L701.64,173.61L706.51,128.88L711.38,128.88L716.26,115.49L721.13,117.25L726,101.69" style="vector-effect: none; fill: none; stroke: rgb(255, 192, 203); stroke-opacity: 1; stroke-width: 2px; opacity: 1;"/></g><g class="points"/><g class="text"/></g><g class="trace scatter tracee9ee65" style="stroke-miterlimit: 2; opacity: 1;"><g class="fills"/><g class="errorbars"/><g class="lines"><path class="js-line" d="M0,285.6L4.87,143.1L9.74,254.46L14.62,83.11L19.49,163.13L24.36,167.69L29.23,113.73L34.11,90.58L38.98,91.83L43.85,257.68L48.72,237.65L53.6,227.99L58.47,231.21L63.34,116.74L68.21,117.67L73.09,113.83L77.96,91.2L82.83,78.02L87.7,78.02L92.58,80.93L97.45,87.05L102.32,61.63L107.19,65.47L112.07,76.26L116.94,65.88L121.81,203.92L126.68,75.43L131.56,79.48L136.43,86.64L141.3,82.8L146.17,69.41L151.05,68.37L155.92,69.51L160.79,72L165.66,65.88L170.54,64.95L175.41,113.93L180.28,74.6L185.15,82.9L190.03,76.99L194.9,69.62L204.64,45.95L209.52,61.11L219.26,44.4L224.13,57.47L229.01,66.09L233.88,66.81L238.75,65.78L243.62,72L248.5,55.4L253.37,112.69L258.24,70.03L263.11,54.15L267.99,58.41L272.86,55.71L277.73,59.13L282.6,55.19L287.48,55.29L292.35,61.31L297.22,69.93L302.09,66.09L306.97,65.98L311.84,67.13L316.71,69.62L321.58,61.31L326.46,60.59L331.33,61.52L336.2,46.99L341.07,55.19L345.95,53.95L350.82,62.35L360.56,58.1L365.44,63.49L370.31,51.25L375.18,49.59L380.05,49.69L384.93,45.02L389.8,44.81L394.67,42.53L399.54,41.28L404.42,43.36L414.16,40.76L419.03,50.52L423.91,37.13L428.78,40.97L433.65,40.66L438.52,43.15L443.4,42.94L448.27,40.87L453.14,39.62L458.01,37.24L462.89,33.6L467.76,43.26L472.63,49.59L477.5,49.48L482.38,37.34L487.25,42.53L492.12,34.23L496.99,46.16L501.87,37.86L506.74,36.72L511.61,43.88L516.48,37.65L521.36,45.54L526.23,42.01L531.1,44.6L535.97,50.11L540.85,53.01L545.72,51.66L550.59,53.12L555.46,49.38L560.34,39.73L565.21,43.15L570.08,38.27L574.95,25.3L579.83,32.25L584.7,34.33L589.57,48.86L594.44,52.6L599.32,36.82L604.19,37.13L609.06,38.59L613.93,37.65L618.81,33.81L623.68,28.21L628.55,57.89L633.42,59.13L638.3,42.74L643.17,41.7L648.04,44.19L652.91,70.34L657.79,72.83L662.66,38.17L667.53,39.52L672.4,38.17L677.28,42.32L682.15,34.75L687.02,31.01L691.89,30.91L696.77,33.4L701.64,58.2L706.51,33.6L711.38,31.01L716.26,25.82L721.13,28.52L726,27.48" style="vector-effect: none; fill: none; stroke: rgb(165, 42, 42); stroke-opacity: 1; stroke-width: 2px; opacity: 1;"/></g><g class="points"/><g class="text"/></g><g class="trace scatter traceba5653" style="stroke-miterlimit: 2; opacity: 1;"><g class="fills"/><g class="errorbars"/><g class="lines"><path class="js-line" d="M0,359.28L4.87,194.47L9.74,348.49L14.62,160.53L19.49,235.57L24.36,227.37L29.23,188.04L34.11,172.05L38.98,173.2L43.85,376.2L48.72,374.44L53.6,369.97L58.47,358.04L63.34,260.27L68.21,240.14L73.09,240.55L77.96,213.88L82.83,194.78L87.7,204.75L92.58,192.71L97.45,184.61L102.32,178.9L107.19,165.31L112.07,215.54L116.94,174.44L121.81,328.56L126.68,162.51L131.56,163.44L136.43,177.14L141.3,177.14L146.17,157.94L151.05,154.2L155.92,153.37L160.79,164.37L165.66,168.01L170.54,160.74L175.41,221.87L180.28,174.44L185.15,178.07L190.03,174.44L194.9,163.44L199.77,131.16L204.64,137.8L209.52,149.64L214.39,131.16L219.26,127.53L224.13,175.48L229.01,180.05L233.88,178.07L238.75,175.48L243.62,183.57L248.5,158.35L253.37,260.27L258.24,191.25L263.11,168.63L267.99,169.87L272.86,149.22L277.73,159.5L282.6,176.52L287.48,172.05L292.35,186.79L297.22,191.25L302.09,186.79L306.97,195.82L311.84,195.82L316.71,185.65L321.58,190.22L326.46,182.22L331.33,170.91L336.2,157.21L341.07,175.48L345.95,190.22L350.82,175.48L355.69,176.52L360.56,158.35L365.44,141.23L370.31,120.37L380.05,141.23L384.93,126.18L389.8,125.04L394.67,125.04L399.54,134.28L404.42,147.04L409.29,122.86L414.16,133.24L419.03,146L423.91,133.24L428.78,151.61L433.65,165.31L438.52,161.78L443.4,156.17L448.27,148.08L453.14,137.8L458.01,133.24L462.89,125.04L467.76,133.24L472.63,123.9L477.5,118.29L482.38,129.71L487.25,136.66L492.12,118.09L496.99,121.51L501.87,121.51L506.74,121.51L511.61,127.43L516.48,131.99L521.36,134.59L526.23,139.26L531.1,124L535.97,115.8L540.85,133.24L545.72,128.57L550.59,134.28L555.46,142.37L560.34,129.71L565.21,122.86L570.08,128.57L579.83,119.33L584.7,134.28L594.44,161.78L599.32,144.65L604.19,136.66L609.06,126.18L613.93,131.99L618.81,142.47L623.68,134.28L628.55,152.65L633.42,148.08L638.3,126.18L643.17,131.99L648.04,126.18L652.91,128.26L657.79,137.49L662.66,132.2L667.53,123.9L672.4,140.09L677.28,131.99L682.15,140.09L687.02,142.47L691.89,140.09L696.77,135.42L701.64,191.77L706.51,134.28L711.38,134.28L716.26,122.86L721.13,120.37L726,101.69" style="vector-effect: none; fill: none; stroke: rgb(128, 128, 128); stroke-opacity: 1; stroke-width: 2px; opacity: 1;"/></g><g class="points"/><g class="text"/></g></g></g><g class="overplot"/><path class="xlines-above crisp" d="M0,0" style="fill: none;"/><path class="ylines-above crisp" d="M0,0" style="fill: none;"/><g class="overlines-above"/><g class="xaxislayer-above"><g class="xtick"><text text-anchor="middle" x="0" y="509" transform="translate(235.57999999999998,0)" style="font-family: 'Open Sans', verdana, arial, sans-serif; font-size: 12px; fill: rgb(42, 63, 95); fill-opacity: 1; white-space: pre; opacity: 1;">20</text></g><g class="xtick"><text text-anchor="middle" x="0" y="509" style="font-family: 'Open Sans', verdana, arial, sans-serif; font-size: 12px; fill: rgb(42, 63, 95); fill-opacity: 1; white-space: pre; opacity: 1;" transform="translate(333.03,0)">40</text></g><g class="xtick"><text text-anchor="middle" x="0" y="509" style="font-family: 'Open Sans', verdana, arial, sans-serif; font-size: 12px; fill: rgb(42, 63, 95); fill-opacity: 1; white-space: pre; opacity: 1;" transform="translate(430.48,0)">60</text></g><g class="xtick"><text text-anchor="middle" x="0" y="509" style="font-family: 'Open Sans', verdana, arial, sans-serif; font-size: 12px; fill: rgb(42, 63, 95); fill-opacity: 1; white-space: pre; opacity: 1;" transform="translate(527.9300000000001,0)">80</text></g><g class="xtick"><text text-anchor="middle" x="0" y="509" style="font-family: 'Open Sans', verdana, arial, sans-serif; font-size: 12px; fill: rgb(42, 63, 95); fill-opacity: 1; white-space: pre; opacity: 1;" transform="translate(625.38,0)">100</text></g><g class="xtick"><text text-anchor="middle" x="0" y="509" style="font-family: 'Open Sans', verdana, arial, sans-serif; font-size: 12px; fill: rgb(42, 63, 95); fill-opacity: 1; white-space: pre; opacity: 1;" transform="translate(722.83,0)">120</text></g><g class="xtick"><text text-anchor="middle" x="0" y="509" style="font-family: 'Open Sans', verdana, arial, sans-serif; font-size: 12px; fill: rgb(42, 63, 95); fill-opacity: 1; white-space: pre; opacity: 1;" transform="translate(820.28,0)">140</text></g></g><g class="yaxislayer-above"><g class="ytick"><text text-anchor="end" x="142" y="4.199999999999999" transform="translate(0,458.25)" style="font-family: 'Open Sans', verdana, arial, sans-serif; font-size: 12px; fill: rgb(42, 63, 95); fill-opacity: 1; white-space: pre; opacity: 1;">55</text></g><g class="ytick"><text text-anchor="end" x="142" y="4.199999999999999" style="font-family: 'Open Sans', verdana, arial, sans-serif; font-size: 12px; fill: rgb(42, 63, 95); fill-opacity: 1; white-space: pre; opacity: 1;" transform="translate(0,406.35)">60</text></g><g class="ytick"><text text-anchor="end" x="142" y="4.199999999999999" style="font-family: 'Open Sans', verdana, arial, sans-serif; font-size: 12px; fill: rgb(42, 63, 95); fill-opacity: 1; white-space: pre; opacity: 1;" transform="translate(0,354.46000000000004)">65</text></g><g class="ytick"><text text-anchor="end" x="142" y="4.199999999999999" style="font-family: 'Open Sans', verdana, arial, sans-serif; font-size: 12px; fill: rgb(42, 63, 95); fill-opacity: 1; white-space: pre; opacity: 1;" transform="translate(0,302.57)">70</text></g><g class="ytick"><text text-anchor="end" x="142" y="4.199999999999999" style="font-family: 'Open Sans', verdana, arial, sans-serif; font-size: 12px; fill: rgb(42, 63, 95); fill-opacity: 1; white-space: pre; opacity: 1;" transform="translate(0,250.67)">75</text></g><g class="ytick"><text text-anchor="end" x="142" y="4.199999999999999" style="font-family: 'Open Sans', verdana, arial, sans-serif; font-size: 12px; fill: rgb(42, 63, 95); fill-opacity: 1; white-space: pre; opacity: 1;" transform="translate(0,198.78)">80</text></g><g class="ytick"><text text-anchor="end" x="142" y="4.199999999999999" style="font-family: 'Open Sans', verdana, arial, sans-serif; font-size: 12px; fill: rgb(42, 63, 95); fill-opacity: 1; white-space: pre; opacity: 1;" transform="translate(0,146.89)">85</text></g></g><g class="overaxes-above"/></g></g><g class="polarlayer"/><g class="smithlayer"/><g class="ternarylayer"/><g class="geolayer"/><g class="funnelarealayer"/><g class="pielayer"/><g class="iciclelayer"/><g class="treemaplayer"/><g class="sunburstlayer"/><g class="glimages"/><defs id="topdefs-812201"><g class="clips"/><clipPath id="legend812201"><rect width="128" height="162" x="0" y="0"/></clipPath></defs><g class="layer-above"><g class="imagelayer"/><g class="shapelayer"/></g><g class="infolayer"><g class="legend" pointer-events="all" transform="translate(883.52,100)"><rect class="bg" shape-rendering="crispEdges" width="128" height="162" x="0" y="0" style="stroke: rgb(68, 68, 68); stroke-opacity: 1; fill: rgb(255, 255, 255); fill-opacity: 1; stroke-width: 0px;"/><g class="scrollbox" transform="" clip-path="url(#legend812201)"><g class="groups"><g class="traces" transform="translate(0,14.5)" style="opacity: 1;"><text class="legendtext" text-anchor="start" x="40" y="4.680000000000001" style="font-family: 'Open Sans', verdana, arial, sans-serif; font-size: 12px; fill: rgb(42, 63, 95); fill-opacity: 1; white-space: pre;">Train Accuracy</text><g class="layers" style="opacity: 1;"><g class="legendfill"/><g class="legendlines"><path class="js-line" d="M5,0h30" style="fill: none; stroke: rgb(255, 0, 0); stroke-opacity: 1; stroke-width: 2px;"/></g><g class="legendsymbols"><g class="legendpoints"/></g></g><rect class="legendtoggle" x="0" y="-9.5" width="122.71875" height="19" style="fill: rgb(0, 0, 0); fill-opacity: 0;"/></g><g class="traces" transform="translate(0,33.5)" style="opacity: 1;"><text class="legendtext" text-anchor="start" x="40" y="4.680000000000001" style="font-family: 'Open Sans', verdana, arial, sans-serif; font-size: 12px; fill: rgb(42, 63, 95); fill-opacity: 1; white-space: pre;">Test Accuracy</text><g class="layers" style="opacity: 1;"><g class="legendfill"/><g class="legendlines"><path class="js-line" d="M5,0h30" style="fill: none; stroke: rgb(0, 0, 255); stroke-opacity: 1; stroke-width: 2px;"/></g><g class="legendsymbols"><g class="legendpoints"/></g></g><rect class="legendtoggle" x="0" y="-9.5" width="122.71875" height="19" style="fill: rgb(0, 0, 0); fill-opacity: 0;"/></g><g class="traces" transform="translate(0,52.5)" style="opacity: 1;"><text class="legendtext" text-anchor="start" x="40" y="4.680000000000001" style="font-family: 'Open Sans', verdana, arial, sans-serif; font-size: 12px; fill: rgb(42, 63, 95); fill-opacity: 1; white-space: pre;">Train Precision</text><g class="layers" style="opacity: 1;"><g class="legendfill"/><g class="legendlines"><path class="js-line" d="M5,0h30" style="fill: none; stroke: rgb(0, 128, 0); stroke-opacity: 1; stroke-width: 2px;"/></g><g class="legendsymbols"><g class="legendpoints"/></g></g><rect class="legendtoggle" x="0" y="-9.5" width="122.71875" height="19" style="fill: rgb(0, 0, 0); fill-opacity: 0;"/></g><g class="traces" transform="translate(0,71.5)" style="opacity: 1;"><text class="legendtext" text-anchor="start" x="40" y="4.680000000000001" style="font-family: 'Open Sans', verdana, arial, sans-serif; font-size: 12px; fill: rgb(42, 63, 95); fill-opacity: 1; white-space: pre;">Test Precision</text><g class="layers" style="opacity: 1;"><g class="legendfill"/><g class="legendlines"><path class="js-line" d="M5,0h30" style="fill: none; stroke: rgb(255, 165, 0); stroke-opacity: 1; stroke-width: 2px;"/></g><g class="legendsymbols"><g class="legendpoints"/></g></g><rect class="legendtoggle" x="0" y="-9.5" width="122.71875" height="19" style="fill: rgb(0, 0, 0); fill-opacity: 0;"/></g><g class="traces" transform="translate(0,90.5)" style="opacity: 1;"><text class="legendtext" text-anchor="start" x="40" y="4.680000000000001" style="font-family: 'Open Sans', verdana, arial, sans-serif; font-size: 12px; fill: rgb(42, 63, 95); fill-opacity: 1; white-space: pre;">Train Recall</text><g class="layers" style="opacity: 1;"><g class="legendfill"/><g class="legendlines"><path class="js-line" d="M5,0h30" style="fill: none; stroke: rgb(128, 0, 128); stroke-opacity: 1; stroke-width: 2px;"/></g><g class="legendsymbols"><g class="legendpoints"/></g></g><rect class="legendtoggle" x="0" y="-9.5" width="122.71875" height="19" style="fill: rgb(0, 0, 0); fill-opacity: 0;"/></g><g class="traces" transform="translate(0,109.5)" style="opacity: 1;"><text class="legendtext" text-anchor="start" x="40" y="4.680000000000001" style="font-family: 'Open Sans', verdana, arial, sans-serif; font-size: 12px; fill: rgb(42, 63, 95); fill-opacity: 1; white-space: pre;">Test Recall</text><g class="layers" style="opacity: 1;"><g class="legendfill"/><g class="legendlines"><path class="js-line" d="M5,0h30" style="fill: none; stroke: rgb(255, 192, 203); stroke-opacity: 1; stroke-width: 2px;"/></g><g class="legendsymbols"><g class="legendpoints"/></g></g><rect class="legendtoggle" x="0" y="-9.5" width="122.71875" height="19" style="fill: rgb(0, 0, 0); fill-opacity: 0;"/></g><g class="traces" transform="translate(0,128.5)" style="opacity: 1;"><text class="legendtext" text-anchor="start" x="40" y="4.680000000000001" style="font-family: 'Open Sans', verdana, arial, sans-serif; font-size: 12px; fill: rgb(42, 63, 95); fill-opacity: 1; white-space: pre;">Train F1</text><g class="layers" style="opacity: 1;"><g class="legendfill"/><g class="legendlines"><path class="js-line" d="M5,0h30" style="fill: none; stroke: rgb(165, 42, 42); stroke-opacity: 1; stroke-width: 2px;"/></g><g class="legendsymbols"><g class="legendpoints"/></g></g><rect class="legendtoggle" x="0" y="-9.5" width="122.71875" height="19" style="fill: rgb(0, 0, 0); fill-opacity: 0;"/></g><g class="traces" transform="translate(0,147.5)" style="opacity: 1;"><text class="legendtext" text-anchor="start" x="40" y="4.680000000000001" style="font-family: 'Open Sans', verdana, arial, sans-serif; font-size: 12px; fill: rgb(42, 63, 95); fill-opacity: 1; white-space: pre;">Test F1</text><g class="layers" style="opacity: 1;"><g class="legendfill"/><g class="legendlines"><path class="js-line" d="M5,0h30" style="fill: none; stroke: rgb(128, 128, 128); stroke-opacity: 1; stroke-width: 2px;"/></g><g class="legendsymbols"><g class="legendpoints"/></g></g><rect class="legendtoggle" x="0" y="-9.5" width="122.71875" height="19" style="fill: rgb(0, 0, 0); fill-opacity: 0;"/></g></g></g><rect class="scrollbar" rx="20" ry="3" width="0" height="0" x="0" y="0" style="fill: rgb(128, 139, 164); fill-opacity: 1;"/></g><g class="g-gtitle"><text class="gtitle" x="51.2" y="50" text-anchor="start" dy="0em" style="font-family: 'Open Sans', verdana, arial, sans-serif; font-size: 17px; fill: rgb(42, 63, 95); opacity: 1; font-weight: normal; white-space: pre;">Training Metrics - logs/FakeNewsNet-politifact_max-vocab=15000_pre=v1_text_domain_T=150_s=10.log</text></g><g class="g-xtitle"><text class="xtitle" x="506" y="537.3" text-anchor="middle" style="font-family: 'Open Sans', verdana, arial, sans-serif; font-size: 14px; fill: rgb(42, 63, 95); opacity: 1; font-weight: normal; white-space: pre;">Epoch</text></g><g class="g-ytitle"><text class="ytitle" transform="rotate(-90,103.965625,298)" x="103.965625" y="298" text-anchor="middle" style="font-family: 'Open Sans', verdana, arial, sans-serif; font-size: 14px; fill: rgb(42, 63, 95); opacity: 1; font-weight: normal; white-space: pre;">Metric Score</text></g></g><g class="menulayer"><g class="updatemenu-container" style="cursor: pointer;"><g class="updatemenu-header-group" transform="translate(12,60)"><g class="updatemenu-header" transform="translate(1,1)" style="pointer-events: all;"><rect class="updatemenu-item-rect" rx="2" ry="2" shape-rendering="crispEdges" x="0" y="0" width="167" height="33" style="stroke: rgb(190, 200, 217); stroke-opacity: 1; fill: rgb(255, 255, 255); fill-opacity: 1; stroke-width: 1px;"/><text class="updatemenu-item-text" text-anchor="start" data-notex="1" x="12" y="19.5" style="font-family: 'Open Sans', verdana, arial, sans-serif; font-size: 12px; fill: rgb(42, 63, 95); fill-opacity: 1; white-space: pre;">All</text></g><text class="updatemenu-header-arrow" text-anchor="end" x="163" y="19.5" style="font-family: 'Open Sans', verdana, arial, sans-serif; font-size: 12px; fill: rgb(42, 63, 95); fill-opacity: 1;">▼</text></g><g class="updatemenu-dropdown-button-group" updatemenu-active-index="-1" style="pointer-events: all;"><rect class="scrollbox-bg" opacity="0" x="0" y="0" width="0" height="0" style="pointer-events: all;"/></g></g></g></svg>