<svg class="main-svg" xmlns="http://www.w3.org/2000/svg" xmlns:xlink="http://www.w3.org/1999/xlink" width="1024" height="576" style="" viewBox="0 0 1024 576"><rect x="0" y="0" width="1024" height="576" style="fill: rgb(255, 255, 255); fill-opacity: 1;"/><defs id="defs-14b2fc"><g class="clips"><clipPath id="clip14b2fcxyplot" class="plotclip"><rect width="726" height="396"/></clipPath><clipPath class="axesclip" id="clip14b2fcx"><rect x="143" y="0" width="726" height="576"/></clipPath><clipPath class="axesclip" id="clip14b2fcy"><rect x="0" y="100" width="1024" height="396"/></clipPath><clipPath class="axesclip" id="clip14b2fcxy"><rect x="143" y="100" width="726" height="396"/></clipPath></g><g class="gradients"/><g class="patterns"/></defs><g class="bglayer"><rect class="bg" x="143" y="100" width="726" height="396" style="fill: rgb(229, 236, 246); fill-opacity: 1; stroke-width: 0;"/></g><g class="layer-below"><g class="imagelayer"/><g class="shapelayer"/></g><g class="cartesianlayer"><g class="subplot xy"><g class="layer-subplot"><g class="shapelayer"/><g class="imagelayer"/></g><g class="minor-gridlayer"><g class="x"/><g class="y"/></g><g class="gridlayer"><g class="x"><path class="xgrid crisp" transform="translate(235.57999999999998,0)" d="M0,100v396" style="stroke: rgb(255, 255, 255); stroke-opacity: 1; stroke-width: 1px;"/><path class="xgrid crisp" transform="translate(333.03,0)" d="M0,100v396" style="stroke: rgb(255, 255, 255); stroke-opacity: 1; stroke-width: 1px;"/><path class="xgrid crisp" transform="translate(430.48,0)" d="M0,100v396" style="stroke: rgb(255, 255, 255); stroke-opacity: 1; stroke-width: 1px;"/><path class="xgrid crisp" transform="translate(527.9300000000001,0)" d="M0,100v396" style="stroke: rgb(255, 255, 255); stroke-opacity: 1; stroke-width: 1px;"/><path class="xgrid crisp" transform="translate(625.38,0)" d="M0,100v396" style="stroke: rgb(255, 255, 255); stroke-opacity: 1; stroke-width: 1px;"/><path class="xgrid crisp" transform="translate(722.83,0)" d="M0,100v396" style="stroke: rgb(255, 255, 255); stroke-opacity: 1; stroke-width: 1px;"/><path class="xgrid crisp" transform="translate(820.28,0)" d="M0,100v396" style="stroke: rgb(255, 255, 255); stroke-opacity: 1; stroke-width: 1px;"/></g><g class="y"><path class="ygrid crisp" transform="translate(0,481.85)" d="M143,0h726" style="stroke: rgb(255, 255, 255); stroke-opacity: 1; stroke-width: 1px;"/><path class="ygrid crisp" transform="translate(0,426.46)" d="M143,0h726" style="stroke: rgb(255, 255, 255); stroke-opacity: 1; stroke-width: 1px;"/><path class="ygrid crisp" transform="translate(0,371.06)" d="M143,0h726" style="stroke: rgb(255, 255, 255); stroke-opacity: 1; stroke-width: 1px;"/><path class="ygrid crisp" transform="translate(0,315.66999999999996)" d="M143,0h726" style="stroke: rgb(255, 255, 255); stroke-opacity: 1; stroke-width: 1px;"/><path class="ygrid crisp" transform="translate(0,260.28)" d="M143,0h726" style="stroke: rgb(255, 255, 255); stroke-opacity: 1; stroke-width: 1px;"/><path class="ygrid crisp" transform="translate(0,204.88)" d="M143,0h726" style="stroke: rgb(255, 255, 255); stroke-opacity: 1; stroke-width: 1px;"/><path class="ygrid crisp" transform="translate(0,149.49)" d="M143,0h726" style="stroke: rgb(255, 255, 255); stroke-opacity: 1; stroke-width: 1px;"/></g></g><g class="zerolinelayer"/><path class="xlines-below"/><path class="ylines-below"/><g class="overlines-below"/><g class="xaxislayer-below"/><g class="yaxislayer-below"/><g class="overaxes-below"/><g class="plot" transform="translate(143,100)" clip-path="url(#clip14b2fcxyplot)"><g class="scatterlayer mlayer"><g class="trace scatter trace588315" style="stroke-miterlimit: 2; opacity: 1;"><g class="fills"/><g class="errorbars"/><g class="lines"><path class="js-line" d="M0,237.72L4.87,118.29L9.74,136.68L14.62,143.22L19.49,160.28L24.36,153.74L29.23,138.01L34.11,88.04L38.98,114.3L43.85,112.97L48.72,105.11L53.6,122.17L58.47,112.97L63.34,109.09L68.21,101.23L73.09,101.23L77.96,68.44L82.83,123.5L87.7,106.44L92.58,85.5L97.45,80.18L102.32,112.97L107.19,110.42L112.07,81.51L116.94,76.3L121.81,155.07L126.68,165.48L131.56,170.8L136.43,119.62L141.3,138.01L146.17,136.68L151.05,82.84L155.92,78.85L160.79,93.36L165.66,69.65L170.54,82.84L175.41,73.64L180.28,80.18L185.15,90.7L190.03,81.51L194.9,107.76L199.77,107.76L204.64,115.63L209.52,112.97L214.39,61.79L219.26,102.56L224.13,73.64L229.01,67.11L233.88,70.98L238.75,61.79L243.62,59.24L248.5,55.25L253.37,50.04L258.24,47.39L263.11,53.92L267.99,53.92L272.86,57.91L277.73,43.4L282.6,46.06L287.48,64.45L292.35,47.39L297.22,101.23L302.09,106.44L306.97,56.58L311.84,78.85L316.71,74.97L321.58,52.59L326.46,65.78L331.33,61.79L336.2,61.79L341.07,57.91L345.95,61.79L350.82,74.97L355.69,81.51L360.56,93.36L365.44,89.37L370.31,90.7L375.18,63.12L380.05,52.59L384.93,81.51L389.8,139.23L394.67,140.56L399.54,132.69L404.42,136.68L409.29,55.25L414.16,55.25L419.03,56.58L423.91,57.91L428.78,63.12L433.65,68.44L438.52,48.72L443.4,47.39L448.27,51.37L453.14,55.25L458.01,55.25L462.89,59.24L467.76,60.57L472.63,53.92L477.5,50.04L482.38,50.04L487.25,85.5L492.12,84.17L496.99,56.58L501.87,53.92L506.74,60.57L511.61,59.24L516.48,59.24L521.36,64.45L526.23,29L531.1,40.85L535.97,35.53L540.85,29L545.72,38.19L550.59,44.73L555.46,48.72L560.34,47.39L565.21,40.85L570.08,53.92L574.95,34.31L579.83,42.18L584.7,38.19L589.57,36.86L594.44,53.92L599.32,36.86L604.19,39.52L609.06,38.19L613.93,32.98L618.81,29L623.68,31.65L628.55,27.67L633.42,29L638.3,30.32L643.17,30.32L648.04,35.53L652.91,30.32L657.79,26.34L662.66,27.67L667.53,26.34L672.4,36.86L677.28,34.31L682.15,34.31L687.02,29L691.89,27.67L696.77,21.13L701.64,29L706.51,35.53L711.38,39.52L716.26,30.32L721.13,31.65L726,30.32" style="vector-effect: none; fill: none; stroke: rgb(255, 0, 0); stroke-opacity: 1; stroke-width: 2px; opacity: 1;"/></g><g class="points"/><g class="text"/></g><g class="trace scatter tracee12e93" style="stroke-miterlimit: 2; opacity: 1;"><g class="fills"/><g class="errorbars"/><g class="lines"><path class="js-line" d="M0,238.71L4.87,155.07L9.74,238.71L14.62,191.63L19.49,191.63L24.36,186.42L29.23,176.01L34.11,123.72L38.98,170.69L43.85,212.57L48.72,191.63L53.6,191.63L58.47,160.28L63.34,160.28L68.21,139.34L73.09,139.34L77.96,155.07L82.83,259.54L87.7,243.92L92.58,149.86L97.45,149.86L102.32,181.22L107.19,170.69L116.94,128.92L121.81,296.1L131.56,296.1L136.43,238.71L141.3,259.54L146.17,249.13L151.05,181.22L155.92,170.69L160.79,155.07L165.66,144.55L170.54,155.07L175.41,155.07L180.28,123.72L185.15,144.55L190.03,149.86L194.9,233.4L199.77,228.19L204.64,249.13L209.52,233.4L214.39,144.55L219.26,217.78L224.13,155.07L229.01,144.55L233.88,139.34L238.75,139.34L243.62,181.22L248.5,165.48L253.37,144.55L258.24,165.48L263.11,165.48L267.99,170.69L272.86,165.48L277.73,134.13L282.6,149.86L287.48,123.72L292.35,144.55L297.22,202.04L302.09,238.71L306.97,128.92L311.84,139.34L316.71,123.72L321.58,134.13L326.46,123.72L331.33,134.13L336.2,139.34L341.07,149.86L345.95,139.34L350.82,176.01L355.69,176.01L360.56,217.78L365.44,207.36L370.31,207.36L380.05,165.48L384.93,202.04L389.8,280.48L394.67,280.48L399.54,259.54L404.42,259.54L409.29,176.01L414.16,176.01L419.03,181.22L423.91,176.01L428.78,176.01L433.65,191.63L438.52,170.69L443.4,155.07L448.27,176.01L453.14,160.28L458.01,160.28L462.89,176.01L467.76,181.22L472.63,165.48L477.5,165.48L482.38,155.07L487.25,228.19L492.12,222.98L496.99,186.42L501.87,176.01L506.74,176.01L511.61,186.42L516.48,176.01L521.36,186.42L526.23,128.92L531.1,134.13L535.97,134.13L540.85,155.07L545.72,160.28L550.59,170.69L555.46,165.48L560.34,155.07L565.21,160.28L570.08,181.22L579.83,113.19L584.7,107.99L589.57,107.99L594.44,113.19L599.32,134.13L604.19,139.34L609.06,123.72L613.93,113.19L618.81,128.92L623.68,139.34L628.55,144.55L633.42,160.28L638.3,155.07L643.17,128.92L652.91,139.34L657.79,123.72L662.66,134.13L667.53,128.92L672.4,139.34L677.28,134.13L682.15,149.86L687.02,139.34L691.89,139.34L696.77,134.13L701.64,155.07L706.51,165.48L711.38,176.01L716.26,149.86L721.13,134.13L726,139.34" style="vector-effect: none; fill: none; stroke: rgb(0, 0, 255); stroke-opacity: 1; stroke-width: 2px; opacity: 1;"/></g><g class="points"/><g class="text"/></g><g class="trace scatter trace114834" style="stroke-miterlimit: 2; opacity: 1;"><g class="fills"/><g class="errorbars"/><g class="lines"><path class="js-line" d="M0,146.32L4.87,118.95L9.74,123.61L14.62,105.44L19.49,116.74L24.36,111.75L29.23,109.76L34.11,91.7L38.98,115.3L43.85,118.07L48.72,109.09L53.6,121.61L58.47,109.09L63.34,97.9L68.21,94.36L73.09,95.69L77.96,73.86L82.83,113.86L87.7,103.11L92.58,90.59L97.45,84.94L102.32,111.31L107.19,108.43L112.07,87.16L116.94,81.84L121.81,128.48L126.68,135.35L131.56,139.78L136.43,109.54L141.3,120.5L146.17,118.73L151.05,83.61L155.92,81.29L160.79,98.46L165.66,74.86L170.54,88.38L175.41,79.18L180.28,83.39L185.15,95.36L190.03,87.16L194.9,100.01L199.77,102.45L204.64,107.99L209.52,102.67L214.39,67.22L219.26,96.02L224.13,78.85L229.01,72.53L233.88,76.52L238.75,67.22L243.62,64.11L253.37,55.14L258.24,52.26L263.11,58.02L267.99,57.8L272.86,62.12L277.73,48.49L282.6,51.15L287.48,68.55L292.35,52.48L297.22,91.81L302.09,94.14L306.97,61.9L311.84,83.39L316.71,77.96L321.58,57.91L326.46,69.54L331.33,66.44L336.2,66.44L341.07,62.67L345.95,66.66L350.82,75.41L355.69,81.29L360.56,90.48L365.44,88.27L370.31,87.93L375.18,66.88L380.05,57.14L384.93,82.51L389.8,119.73L394.67,118.84L399.54,114.3L404.42,114.3L409.29,57.36L414.16,57.36L423.91,59.57L428.78,66.44L433.65,68.66L438.52,52.93L443.4,51.71L448.27,56.03L453.14,59.57L458.01,59.46L462.89,62.56L467.76,63.23L472.63,57.8L477.5,53.7L482.38,53.92L487.25,81.51L492.12,81.06L496.99,59.13L501.87,56.8L506.74,63.23L511.61,62.34L516.48,62.56L521.36,67L526.23,33.98L531.1,45.95L535.97,40.52L540.85,33.87L545.72,42.95L550.59,49.05L555.46,52.7L560.34,51.15L565.21,45.5L570.08,57.58L574.95,39.08L579.83,46.06L584.7,42.29L589.57,41.07L594.44,58.91L599.32,41.62L604.19,44.62L609.06,43.07L613.93,37.64L618.81,33.76L623.68,36.64L628.55,32.65L633.42,33.87L638.3,35.31L643.17,35.31L648.04,40.63L652.91,35.31L657.79,31.21L662.66,32.54L667.53,31.32L672.4,41.4L677.28,39.19L682.15,38.97L687.02,33.87L691.89,32.65L696.77,26L701.64,33.65L706.51,39.41L711.38,43.84L716.26,35.09L721.13,36.42L726,35.2" style="vector-effect: none; fill: none; stroke: rgb(0, 128, 0); stroke-opacity: 1; stroke-width: 2px; opacity: 1;"/></g><g class="points"/><g class="text"/></g><g class="trace scatter trace428843" style="stroke-miterlimit: 2; opacity: 1;"><g class="fills"/><g class="errorbars"/><g class="lines"><path class="js-line" d="M0,215.12L4.87,167.81L9.74,226.42L14.62,169.58L19.49,152.74L24.36,147.2L29.23,145.21L34.11,140L38.98,191.96L43.85,238.82L48.72,215.67L53.6,215.01L58.47,175.12L63.34,168.48L68.21,149.64L73.09,149.64L77.96,175.45L82.83,250.68L87.7,247.91L92.58,168.92L97.45,166.37L102.32,201.82L107.19,189.3L116.94,146.98L121.81,260.21L126.68,255.89L131.56,260.21L136.43,226.42L141.3,236.72L146.17,229.85L151.05,189.75L155.92,179.22L160.79,175.45L165.66,164.15L170.54,174.68L175.41,174.68L180.28,137.68L185.15,163.82L190.03,169.69L194.9,226.08L199.77,225.42L204.64,236.94L209.52,226.08L214.39,164.04L219.26,214.89L224.13,174.68L229.01,164.15L233.88,158.5L238.75,158.28L243.62,200.94L248.5,180.33L253.37,162.38L258.24,178.78L263.11,177.01L267.99,181.33L272.86,177.01L277.73,150.75L282.6,168.92L287.48,140L292.35,163.16L297.22,203.48L302.09,235.83L306.97,147.43L311.84,157.84L316.71,139.01L321.58,152.41L326.46,137.68L331.33,152.41L336.2,158.28L341.07,168.25L345.95,157.95L350.82,187.53L355.69,189.3L360.56,222.98L365.44,214.89L370.31,214.89L375.18,204.59L380.05,184.1L384.93,210.8L389.8,261.65L394.67,261.65L399.54,247.47L404.42,244.03L409.29,187.53L414.16,187.53L419.03,191.85L423.91,190.97L428.78,190.97L433.65,200.27L438.52,188.97L443.4,174.13L448.27,195.95L453.14,179.11L458.01,179.11L462.89,193.73L467.76,198.5L472.63,184.1L477.5,184.1L482.38,172.24L487.25,230.85L492.12,226.97L496.99,198.06L501.87,187.53L506.74,187.53L511.61,201.6L516.48,190.97L521.36,201.6L526.23,147.43L531.1,152.74L535.97,152.97L540.85,174.68L545.72,178.22L550.59,186.42L555.46,181.77L560.34,172.24L565.21,179.11L570.08,195.51L579.83,129.37L584.7,123.16L589.57,121.95L594.44,130.03L599.32,152.74L604.19,157.4L609.06,141.78L613.93,130.03L618.81,147.43L623.68,158.39L628.55,163.16L633.42,178.22L638.3,172.24L643.17,146.98L652.91,157.95L657.79,141.78L662.66,152.97L667.53,146.87L672.4,158.5L677.28,152.74L682.15,168.92L687.02,158.39L691.89,158.39L696.77,152.97L701.64,174.13L706.51,182.99L711.38,194.95L716.26,169.47L721.13,152.97L726,158.5" style="vector-effect: none; fill: none; stroke: rgb(255, 165, 0); stroke-opacity: 1; stroke-width: 2px; opacity: 1;"/></g><g class="points"/><g class="text"/></g><g class="trace scatter tracebb0167" style="stroke-miterlimit: 2; opacity: 1;"><g class="fills"/><g class="errorbars"/><g class="lines"><path class="js-line" d="M0,299.76L4.87,134.8L9.74,118.84L14.62,180.99L19.49,201.71L24.36,193.96L29.23,172.13L34.11,97.9L38.98,130.03L48.72,116.07L53.6,140.34L58.47,132.8L63.34,132.91L68.21,121.83L73.09,120.95L77.96,70.98L82.83,107.54L87.7,94.58L92.58,91.7L97.45,77.63L102.32,131.14L107.19,128.37L112.07,85.27L116.94,79.07L121.81,130.81L126.68,139.78L131.56,144.77L136.43,103.33L141.3,117.85L146.17,116.29L151.05,74.31L155.92,72.2L160.79,100.67L165.66,73.75L170.54,83.39L175.41,74.2L180.28,89.82L185.15,98.79L190.03,83.5L194.9,92.7L199.77,94.47L204.64,100.78L209.52,96.35L214.39,63.56L219.26,88.16L224.13,72.42L229.01,68.55L233.88,71.87L238.75,63.56L248.5,51.37L253.37,49.49L258.24,45.06L263.11,49.38L267.99,48.94L272.86,53.59L277.73,42.07L282.6,44.73L287.48,70.98L292.35,45.95L297.22,84.83L302.09,88.49L306.97,56.47L311.84,86.05L316.71,84.39L321.58,53.48L326.46,72.98L331.33,67L336.2,67L341.07,55.36L345.95,59.24L350.82,65.78L355.69,71.87L360.56,81.51L365.44,79.07L370.31,78.85L375.18,58.13L380.05,49.16L384.93,73.09L389.8,118.07L394.67,118.4L399.54,111.97L404.42,114.08L409.29,47.5L414.16,47.5L419.03,48.6L423.91,49.71L428.78,57.25L433.65,58.8L438.52,44.39L443.4,43.29L448.27,48.38L453.14,51.37L458.01,50.93L462.89,53.48L467.76,53.7L477.5,44.73L482.38,45.17L487.25,72.65L492.12,71.87L496.99,49.49L501.87,47.16L506.74,53.7L511.61,53.04L516.48,53.48L521.36,57.58L526.23,27.89L531.1,40.3L535.97,34.42L540.85,26.56L545.72,35.42L550.59,40.63L555.46,43.95L560.34,41.96L565.21,37.64L570.08,48.49L574.95,31.99L579.83,47.05L584.7,42.29L589.57,40.74L594.44,57.25L599.32,33.87L604.19,38.63L609.06,40.18L613.93,34.76L618.81,30.55L623.68,30.55L628.55,26.78L633.42,26.56L638.3,29L643.17,29.88L648.04,35.75L652.91,29.88L657.79,26.56L662.66,28.55L667.53,25.67L672.4,33.43L677.28,32.87L682.15,31.1L687.02,27L691.89,26.34L696.77,19.8L701.64,25.78L706.51,30.1L711.38,35.2L716.26,27.78L721.13,29.33L726,28.55" style="vector-effect: none; fill: none; stroke: rgb(128, 0, 128); stroke-opacity: 1; stroke-width: 2px; opacity: 1;"/></g><g class="points"/><g class="text"/></g><g class="trace scatter trace9372ce" style="stroke-miterlimit: 2; opacity: 1;"><g class="fills"/><g class="errorbars"/><g class="lines"><path class="js-line" d="M0,348.39L4.87,202.15L9.74,211.9L14.62,278.6L19.49,284.47L24.36,277.38L29.23,260.21L34.11,150.64L38.98,205.59L43.85,244.7L48.72,222.21L53.6,234.06L58.47,206.25L63.34,215.23L68.21,183.76L73.09,183.76L77.96,175.45L82.83,237.38L87.7,233.84L92.58,162.38L97.45,153.52L102.32,225.75L107.19,214.56L112.07,162.38L116.94,139.89L121.81,254.45L126.68,251.45L131.56,254.45L136.43,211.9L141.3,225.42L146.17,217.22L151.05,172.35L155.92,161.16L160.79,175.45L165.66,167.15L170.54,169.47L175.41,169.47L180.28,156.62L185.15,170.14L190.03,168.36L194.9,210.69L199.77,209.58L204.64,223.09L209.52,210.69L214.39,161.27L219.26,198.28L224.13,169.47L229.01,167.15L233.88,160.06L238.75,163.05L243.62,193.18L248.5,165.93L253.37,152.3L258.24,162.94L263.11,159.94L267.99,164.04L272.86,159.94L277.73,138.12L282.6,162.38L287.48,150.64L292.35,155.29L302.09,220.77L306.97,145.87L311.84,166.04L316.71,153.63L321.58,158.95L326.46,156.62L331.33,158.95L336.2,163.05L341.07,159.39L345.95,151.19L350.82,171.25L355.69,174.13L360.56,207.25L365.44,198.94L370.31,198.94L375.18,194.29L380.05,174.79L384.93,194.84L389.8,250.9L394.67,250.9L399.54,234.39L404.42,231.4L409.29,171.25L414.16,171.25L419.03,175.34L423.91,177.12L428.78,177.12L433.65,183.54L438.52,178.89L443.4,166.48L448.27,188.97L453.14,170.69L458.01,170.69L462.89,183.1L467.76,187.2L472.63,174.79L477.5,174.79L482.38,160.61L487.25,215.45L492.12,211.35L496.99,182.43L501.87,171.25L506.74,171.25L511.61,188.42L516.48,177.12L521.36,188.42L526.23,145.87L531.1,155.96L535.97,152.97L540.85,169.47L545.72,167.7L550.59,173.02L555.46,168.81L560.34,160.61L570.08,181.22L574.95,158.28L579.83,136.46L584.7,132.25L589.57,135.24L594.44,133.47L599.32,146.98L604.19,148.2L609.06,141.78L613.93,133.47L618.81,145.87L623.68,154.18L628.55,155.29L633.42,167.7L638.3,160.61L643.17,139.89L648.04,149.97L652.91,151.19L657.79,138.78L662.66,152.97L667.53,151.75L672.4,160.06L677.28,155.96L682.15,162.38L687.02,154.18L691.89,154.18L696.77,149.97L701.64,166.48L706.51,171.8L711.38,185.98L716.26,165.37L721.13,152.97L726,160.06" style="vector-effect: none; fill: none; stroke: rgb(255, 192, 203); stroke-opacity: 1; stroke-width: 2px; opacity: 1;"/></g><g class="points"/><g class="text"/></g><g class="trace scatter trace0c65f1" style="stroke-miterlimit: 2; opacity: 1;"><g class="fills"/><g class="errorbars"/><g class="lines"><path class="js-line" d="M0,326.68L4.87,129.81L9.74,136.79L14.62,174.79L19.49,198.28L24.36,189.3L29.23,165.15L34.11,95.36L38.98,125.38L43.85,120.84L48.72,113.3L53.6,135.02L58.47,126.6L63.34,125.27L68.21,114.74L73.09,114.19L77.96,72.53L82.83,123.94L87.7,107.32L92.58,91.15L97.45,83.06L102.32,125.38L107.19,122.61L112.07,86.27L116.94,80.62L121.81,155.07L126.68,165.59L131.56,170.91L136.43,119.95L141.3,138.01L146.17,136.68L151.05,84.28L155.92,80.73L160.79,99.68L165.66,74.42L170.54,86.49L175.41,77.3L185.15,97.24L190.03,85.72L194.9,108.21L199.77,108.43L204.64,116.18L209.52,113.3L214.39,65.67L219.26,103.11L224.13,76.74L229.01,70.87L233.88,74.75L238.75,65.67L248.5,57.58L253.37,53.04L258.24,49.93L263.11,56.14L267.99,56.03L272.86,60.13L277.73,46.17L282.6,48.94L287.48,69.88L292.35,50.16L297.22,101.56L302.09,106.66L306.97,59.79L311.84,84.83L316.71,81.73L321.58,56.03L326.46,71.43L331.33,66.77L336.2,66.77L341.07,60.57L345.95,64.45L350.82,76.3L355.69,82.73L360.56,94.25L365.44,90.59L370.31,91.59L375.18,65.22L380.05,55.03L384.93,83.06L389.8,139.34L394.67,140.56L399.54,132.8L404.42,136.68L409.29,56.8L414.16,56.8L419.03,58.02L423.91,59.35L428.78,65.11L433.65,69.65L438.52,50.82L443.4,49.6L448.27,53.81L453.14,57.58L458.01,57.47L462.89,61.12L467.76,62.23L472.63,56.03L477.5,51.93L482.38,52.04L487.25,86.27L492.12,85.05L496.99,58.24L501.87,55.69L506.74,62.23L511.61,61.01L516.48,61.12L521.36,66.22L526.23,31.65L531.1,43.73L535.97,38.3L540.85,31.43L545.72,40.63L550.59,46.94L555.46,50.82L560.34,49.27L565.21,43.18L570.08,55.92L574.95,36.75L579.83,46.61L584.7,42.29L589.57,40.96L594.44,58.13L599.32,39.19L604.19,42.4L609.06,41.74L613.93,36.42L618.81,32.32L623.68,34.31L628.55,30.44L633.42,31.43L638.3,32.98L643.17,33.21L648.04,38.63L652.91,33.21L657.79,29.33L662.66,30.77L667.53,29.11L672.4,39.08L677.28,36.97L682.15,36.53L687.02,31.43L691.89,30.32L696.77,23.68L701.64,31.21L706.51,37.42L711.38,41.62L716.26,32.65L721.13,34.09L726,32.87" style="vector-effect: none; fill: none; stroke: rgb(165, 42, 42); stroke-opacity: 1; stroke-width: 2px; opacity: 1;"/></g><g class="points"/><g class="text"/></g><g class="trace scatter trace1299f7" style="stroke-miterlimit: 2; opacity: 1;"><g class="fills"/><g class="errorbars"/><g class="lines"><path class="js-line" d="M0,376.2L4.87,192.74L9.74,241.82L14.62,277.6L19.49,286.91L24.36,277.71L29.23,255.44L34.11,146.21L38.98,200.6L43.85,242.26L48.72,219.44L53.6,228.19L58.47,197.5L63.34,204.92L68.21,173.79L73.09,173.79L77.96,175.45L82.83,263.64L87.7,251.79L92.58,166.15L97.45,162.38L102.32,218.77L107.19,207.03L112.07,166.15L116.94,143.99L121.81,296.54L126.68,296.32L131.56,296.54L136.43,241.82L141.3,261.2L146.17,251.23L151.05,189.52L155.92,178.78L160.79,175.45L165.66,165.71L170.54,172.46L175.41,172.46L180.28,149.53L185.15,167.37L190.03,169.03L194.9,237.61L199.77,233.51L204.64,252.45L209.52,237.61L214.39,162.71L219.26,222.87L224.13,172.46L233.88,159.28L238.75,160.83L243.62,197.94L248.5,177.01L253.37,158.73L258.24,175.9L263.11,174.9L267.99,179.78L272.86,174.9L277.73,146.54L282.6,166.15L287.48,146.21L292.35,159.94L297.22,208.14L302.09,244.14L306.97,146.65L311.84,162.49L316.71,147.76L321.58,155.96L326.46,149.53L331.33,155.96L336.2,160.83L341.07,164.82L345.95,155.07L350.82,185.65L355.69,186.76L360.56,225.53L365.44,215.89L370.31,215.89L375.18,201.38L380.05,180.77L384.93,211.02L389.8,282.7L394.67,282.7L399.54,262.98L404.42,262.31L409.29,185.65L414.16,185.65L419.03,190.52L423.91,187.86L428.78,187.86L433.65,200.27L443.4,171.02L448.27,193.18L453.14,175.9L458.01,175.9L462.89,190.41L467.76,195.29L472.63,180.77L477.5,180.77L482.38,168.48L487.25,235.28L492.12,230.41L496.99,196.5L501.87,185.65L506.74,185.65L511.61,198.83L516.48,187.86L521.36,198.83L526.23,146.65L531.1,154.41L535.97,152.97L540.85,172.46L545.72,174.57L550.59,183.1L555.46,178.22L560.34,168.48L565.21,175.9L570.08,192.74L574.95,161.27L579.83,133.25L584.7,128.26L594.44,131.81L599.32,150.2L604.19,153.85L609.06,141.78L613.93,131.81L618.81,146.65L623.68,156.4L628.55,159.94L633.42,174.57L638.3,168.48L643.17,143.99L648.04,151.53L652.91,155.07L657.79,140.34L662.66,152.97L667.53,149.53L672.4,159.28L677.28,154.41L682.15,166.15L687.02,156.4L691.89,156.4L696.77,151.53L701.64,171.02L706.51,179.44L711.38,191.74L716.26,167.59L721.13,152.97L726,159.28" style="vector-effect: none; fill: none; stroke: rgb(128, 128, 128); stroke-opacity: 1; stroke-width: 2px; opacity: 1;"/></g><g class="points"/><g class="text"/></g></g></g><g class="overplot"/><path class="xlines-above crisp" d="M0,0" style="fill: none;"/><path class="ylines-above crisp" d="M0,0" style="fill: none;"/><g class="overlines-above"/><g class="xaxislayer-above"><g class="xtick"><text text-anchor="middle" x="0" y="509" transform="translate(235.57999999999998,0)" style="font-family: 'Open Sans', verdana, arial, sans-serif; font-size: 12px; fill: rgb(42, 63, 95); fill-opacity: 1; white-space: pre; opacity: 1;">20</text></g><g class="xtick"><text text-anchor="middle" x="0" y="509" style="font-family: 'Open Sans', verdana, arial, sans-serif; font-size: 12px; fill: rgb(42, 63, 95); fill-opacity: 1; white-space: pre; opacity: 1;" transform="translate(333.03,0)">40</text></g><g class="xtick"><text text-anchor="middle" x="0" y="509" style="font-family: 'Open Sans', verdana, arial, sans-serif; font-size: 12px; fill: rgb(42, 63, 95); fill-opacity: 1; white-space: pre; opacity: 1;" transform="translate(430.48,0)">60</text></g><g class="xtick"><text text-anchor="middle" x="0" y="509" style="font-family: 'Open Sans', verdana, arial, sans-serif; font-size: 12px; fill: rgb(42, 63, 95); fill-opacity: 1; white-space: pre; opacity: 1;" transform="translate(527.9300000000001,0)">80</text></g><g class="xtick"><text text-anchor="middle" x="0" y="509" style="font-family: 'Open Sans', verdana, arial, sans-serif; font-size: 12px; fill: rgb(42, 63, 95); fill-opacity: 1; white-space: pre; opacity: 1;" transform="translate(625.38,0)">100</text></g><g class="xtick"><text text-anchor="middle" x="0" y="509" style="font-family: 'Open Sans', verdana, arial, sans-serif; font-size: 12px; fill: rgb(42, 63, 95); fill-opacity: 1; white-space: pre; opacity: 1;" transform="translate(722.83,0)">120</text></g><g class="xtick"><text text-anchor="middle" x="0" y="509" style="font-family: 'Open Sans', verdana, arial, sans-serif; font-size: 12px; fill: rgb(42, 63, 95); fill-opacity: 1; white-space: pre; opacity: 1;" transform="translate(820.28,0)">140</text></g></g><g class="yaxislayer-above"><g class="ytick"><text text-anchor="end" x="142" y="4.199999999999999" transform="translate(0,481.85)" style="font-family: 'Open Sans', verdana, arial, sans-serif; font-size: 12px; fill: rgb(42, 63, 95); fill-opacity: 1; white-space: pre; opacity: 1;">55</text></g><g class="ytick"><text text-anchor="end" x="142" y="4.199999999999999" style="font-family: 'Open Sans', verdana, arial, sans-serif; font-size: 12px; fill: rgb(42, 63, 95); fill-opacity: 1; white-space: pre; opacity: 1;" transform="translate(0,426.46)">60</text></g><g class="ytick"><text text-anchor="end" x="142" y="4.199999999999999" style="font-family: 'Open Sans', verdana, arial, sans-serif; font-size: 12px; fill: rgb(42, 63, 95); fill-opacity: 1; white-space: pre; opacity: 1;" transform="translate(0,371.06)">65</text></g><g class="ytick"><text text-anchor="end" x="142" y="4.199999999999999" style="font-family: 'Open Sans', verdana, arial, sans-serif; font-size: 12px; fill: rgb(42, 63, 95); fill-opacity: 1; white-space: pre; opacity: 1;" transform="translate(0,315.66999999999996)">70</text></g><g class="ytick"><text text-anchor="end" x="142" y="4.199999999999999" style="font-family: 'Open Sans', verdana, arial, sans-serif; font-size: 12px; fill: rgb(42, 63, 95); fill-opacity: 1; white-space: pre; opacity: 1;" transform="translate(0,260.28)">75</text></g><g class="ytick"><text text-anchor="end" x="142" y="4.199999999999999" style="font-family: 'Open Sans', verdana, arial, sans-serif; font-size: 12px; fill: rgb(42, 63, 95); fill-opacity: 1; white-space: pre; opacity: 1;" transform="translate(0,204.88)">80</text></g><g class="ytick"><text text-anchor="end" x="142" y="4.199999999999999" style="font-family: 'Open Sans', verdana, arial, sans-serif; font-size: 12px; fill: rgb(42, 63, 95); fill-opacity: 1; white-space: pre; opacity: 1;" transform="translate(0,149.49)">85</text></g></g><g class="overaxes-above"/></g></g><g class="polarlayer"/><g class="smithlayer"/><g class="ternarylayer"/><g class="geolayer"/><g class="funnelarealayer"/><g class="pielayer"/><g class="iciclelayer"/><g class="treemaplayer"/><g class="sunburstlayer"/><g class="glimages"/><defs id="topdefs-14b2fc"><g class="clips"/><clipPath id="legend14b2fc"><rect width="128" height="162" x="0" y="0"/></clipPath></defs><g class="layer-above"><g class="imagelayer"/><g class="shapelayer"/></g><g class="infolayer"><g class="legend" pointer-events="all" transform="translate(883.52,100)"><rect class="bg" shape-rendering="crispEdges" width="128" height="162" x="0" y="0" style="stroke: rgb(68, 68, 68); stroke-opacity: 1; fill: rgb(255, 255, 255); fill-opacity: 1; stroke-width: 0px;"/><g class="scrollbox" transform="" clip-path="url(#legend14b2fc)"><g class="groups"><g class="traces" transform="translate(0,14.5)" style="opacity: 1;"><text class="legendtext" text-anchor="start" x="40" y="4.680000000000001" style="font-family: 'Open Sans', verdana, arial, sans-serif; font-size: 12px; fill: rgb(42, 63, 95); fill-opacity: 1; white-space: pre;">Train Accuracy</text><g class="layers" style="opacity: 1;"><g class="legendfill"/><g class="legendlines"><path class="js-line" d="M5,0h30" style="fill: none; stroke: rgb(255, 0, 0); stroke-opacity: 1; stroke-width: 2px;"/></g><g class="legendsymbols"><g class="legendpoints"/></g></g><rect class="legendtoggle" x="0" y="-9.5" width="122.71875" height="19" style="fill: rgb(0, 0, 0); fill-opacity: 0;"/></g><g class="traces" transform="translate(0,33.5)" style="opacity: 1;"><text class="legendtext" text-anchor="start" x="40" y="4.680000000000001" style="font-family: 'Open Sans', verdana, arial, sans-serif; font-size: 12px; fill: rgb(42, 63, 95); fill-opacity: 1; white-space: pre;">Test Accuracy</text><g class="layers" style="opacity: 1;"><g class="legendfill"/><g class="legendlines"><path class="js-line" d="M5,0h30" style="fill: none; stroke: rgb(0, 0, 255); stroke-opacity: 1; stroke-width: 2px;"/></g><g class="legendsymbols"><g class="legendpoints"/></g></g><rect class="legendtoggle" x="0" y="-9.5" width="122.71875" height="19" style="fill: rgb(0, 0, 0); fill-opacity: 0;"/></g><g class="traces" transform="translate(0,52.5)" style="opacity: 1;"><text class="legendtext" text-anchor="start" x="40" y="4.680000000000001" style="font-family: 'Open Sans', verdana, arial, sans-serif; font-size: 12px; fill: rgb(42, 63, 95); fill-opacity: 1; white-space: pre;">Train Precision</text><g class="layers" style="opacity: 1;"><g class="legendfill"/><g class="legendlines"><path class="js-line" d="M5,0h30" style="fill: none; stroke: rgb(0, 128, 0); stroke-opacity: 1; stroke-width: 2px;"/></g><g class="legendsymbols"><g class="legendpoints"/></g></g><rect class="legendtoggle" x="0" y="-9.5" width="122.71875" height="19" style="fill: rgb(0, 0, 0); fill-opacity: 0;"/></g><g class="traces" transform="translate(0,71.5)" style="opacity: 1;"><text class="legendtext" text-anchor="start" x="40" y="4.680000000000001" style="font-family: 'Open Sans', verdana, arial, sans-serif; font-size: 12px; fill: rgb(42, 63, 95); fill-opacity: 1; white-space: pre;">Test Precision</text><g class="layers" style="opacity: 1;"><g class="legendfill"/><g class="legendlines"><path class="js-line" d="M5,0h30" style="fill: none; stroke: rgb(255, 165, 0); stroke-opacity: 1; stroke-width: 2px;"/></g><g class="legendsymbols"><g class="legendpoints"/></g></g><rect class="legendtoggle" x="0" y="-9.5" width="122.71875" height="19" style="fill: rgb(0, 0, 0); fill-opacity: 0;"/></g><g class="traces" transform="translate(0,90.5)" style="opacity: 1;"><text class="legendtext" text-anchor="start" x="40" y="4.680000000000001" style="font-family: 'Open Sans', verdana, arial, sans-serif; font-size: 12px; fill: rgb(42, 63, 95); fill-opacity: 1; white-space: pre;">Train Recall</text><g class="layers" style="opacity: 1;"><g class="legendfill"/><g class="legendlines"><path class="js-line" d="M5,0h30" style="fill: none; stroke: rgb(128, 0, 128); stroke-opacity: 1; stroke-width: 2px;"/></g><g class="legendsymbols"><g class="legendpoints"/></g></g><rect class="legendtoggle" x="0" y="-9.5" width="122.71875" height="19" style="fill: rgb(0, 0, 0); fill-opacity: 0;"/></g><g class="traces" transform="translate(0,109.5)" style="opacity: 1;"><text class="legendtext" text-anchor="start" x="40" y="4.680000000000001" style="font-family: 'Open Sans', verdana, arial, sans-serif; font-size: 12px; fill: rgb(42, 63, 95); fill-opacity: 1; white-space: pre;">Test Recall</text><g class="layers" style="opacity: 1;"><g class="legendfill"/><g class="legendlines"><path class="js-line" d="M5,0h30" style="fill: none; stroke: rgb(255, 192, 203); stroke-opacity: 1; stroke-width: 2px;"/></g><g class="legendsymbols"><g class="legendpoints"/></g></g><rect class="legendtoggle" x="0" y="-9.5" width="122.71875" height="19" style="fill: rgb(0, 0, 0); fill-opacity: 0;"/></g><g class="traces" transform="translate(0,128.5)" style="opacity: 1;"><text class="legendtext" text-anchor="start" x="40" y="4.680000000000001" style="font-family: 'Open Sans', verdana, arial, sans-serif; font-size: 12px; fill: rgb(42, 63, 95); fill-opacity: 1; white-space: pre;">Train F1</text><g class="layers" style="opacity: 1;"><g class="legendfill"/><g class="legendlines"><path class="js-line" d="M5,0h30" style="fill: none; stroke: rgb(165, 42, 42); stroke-opacity: 1; stroke-width: 2px;"/></g><g class="legendsymbols"><g class="legendpoints"/></g></g><rect class="legendtoggle" x="0" y="-9.5" width="122.71875" height="19" style="fill: rgb(0, 0, 0); fill-opacity: 0;"/></g><g class="traces" transform="translate(0,147.5)" style="opacity: 1;"><text class="legendtext" text-anchor="start" x="40" y="4.680000000000001" style="font-family: 'Open Sans', verdana, arial, sans-serif; font-size: 12px; fill: rgb(42, 63, 95); fill-opacity: 1; white-space: pre;">Test F1</text><g class="layers" style="opacity: 1;"><g class="legendfill"/><g class="legendlines"><path class="js-line" d="M5,0h30" style="fill: none; stroke: rgb(128, 128, 128); stroke-opacity: 1; stroke-width: 2px;"/></g><g class="legendsymbols"><g class="legendpoints"/></g></g><rect class="legendtoggle" x="0" y="-9.5" width="122.71875" height="19" style="fill: rgb(0, 0, 0); fill-opacity: 0;"/></g></g></g><rect class="scrollbar" rx="20" ry="3" width="0" height="0" x="0" y="0" style="fill: rgb(128, 139, 164); fill-opacity: 1;"/></g><g class="g-gtitle"><text class="gtitle" x="51.2" y="50" text-anchor="start" dy="0em" style="font-family: 'Open Sans', verdana, arial, sans-serif; font-size: 17px; fill: rgb(42, 63, 95); opacity: 1; font-weight: normal; white-space: pre;">Training Metrics - logs/FakeNewsNet-politifact_max-vocab=15000_pre=v1_text_domain_T=200_s=10.log</text></g><g class="g-xtitle"><text class="xtitle" x="506" y="537.3" text-anchor="middle" style="font-family: 'Open Sans', verdana, arial, sans-serif; font-size: 14px; fill: rgb(42, 63, 95); opacity: 1; font-weight: normal; white-space: pre;">Epoch</text></g><g class="g-ytitle"><text class="ytitle" transform="rotate(-90,103.965625,298)" x="103.965625" y="298" text-anchor="middle" style="font-family: 'Open Sans', verdana, arial, sans-serif; font-size: 14px; fill: rgb(42, 63, 95); opacity: 1; font-weight: normal; white-space: pre;">Metric Score</text></g></g><g class="menulayer"><g class="updatemenu-container" style="cursor: pointer;"><g class="updatemenu-header-group" transform="translate(12,60)"><g class="updatemenu-header" transform="translate(1,1)" style="pointer-events: all;"><rect class="updatemenu-item-rect" rx="2" ry="2" shape-rendering="crispEdges" x="0" y="0" width="167" height="33" style="stroke: rgb(190, 200, 217); stroke-opacity: 1; fill: rgb(255, 255, 255); fill-opacity: 1; stroke-width: 1px;"/><text class="updatemenu-item-text" text-anchor="start" data-notex="1" x="12" y="19.5" style="font-family: 'Open Sans', verdana, arial, sans-serif; font-size: 12px; fill: rgb(42, 63, 95); fill-opacity: 1; white-space: pre;">All</text></g><text class="updatemenu-header-arrow" text-anchor="end" x="163" y="19.5" style="font-family: 'Open Sans', verdana, arial, sans-serif; font-size: 12px; fill: rgb(42, 63, 95); fill-opacity: 1;">▼</text></g><g class="updatemenu-dropdown-button-group" updatemenu-active-index="-1" style="pointer-events: all;"><rect class="scrollbox-bg" opacity="0" x="0" y="0" width="0" height="0" style="pointer-events: all;"/></g></g></g></svg>