<svg class="main-svg" xmlns="http://www.w3.org/2000/svg" xmlns:xlink="http://www.w3.org/1999/xlink" width="1024" height="576" style="" viewBox="0 0 1024 576"><rect x="0" y="0" width="1024" height="576" style="fill: rgb(255, 255, 255); fill-opacity: 1;"/><defs id="defs-c7620e"><g class="clips"><clipPath id="clipc7620exyplot" class="plotclip"><rect width="726" height="396"/></clipPath><clipPath class="axesclip" id="clipc7620ex"><rect x="143" y="0" width="726" height="576"/></clipPath><clipPath class="axesclip" id="clipc7620ey"><rect x="0" y="100" width="1024" height="396"/></clipPath><clipPath class="axesclip" id="clipc7620exy"><rect x="143" y="100" width="726" height="396"/></clipPath></g><g class="gradients"/><g class="patterns"/></defs><g class="bglayer"><rect class="bg" x="143" y="100" width="726" height="396" style="fill: rgb(229, 236, 246); fill-opacity: 1; stroke-width: 0;"/></g><g class="layer-below"><g class="imagelayer"/><g class="shapelayer"/></g><g class="cartesianlayer"><g class="subplot xy"><g class="layer-subplot"><g class="shapelayer"/><g class="imagelayer"/></g><g class="minor-gridlayer"><g class="x"/><g class="y"/></g><g class="gridlayer"><g class="x"><path class="xgrid crisp" transform="translate(235.57999999999998,0)" d="M0,100v396" style="stroke: rgb(255, 255, 255); stroke-opacity: 1; stroke-width: 1px;"/><path class="xgrid crisp" transform="translate(333.03,0)" d="M0,100v396" style="stroke: rgb(255, 255, 255); stroke-opacity: 1; stroke-width: 1px;"/><path class="xgrid crisp" transform="translate(430.48,0)" d="M0,100v396" style="stroke: rgb(255, 255, 255); stroke-opacity: 1; stroke-width: 1px;"/><path class="xgrid crisp" transform="translate(527.9300000000001,0)" d="M0,100v396" style="stroke: rgb(255, 255, 255); stroke-opacity: 1; stroke-width: 1px;"/><path class="xgrid crisp" transform="translate(625.38,0)" d="M0,100v396" style="stroke: rgb(255, 255, 255); stroke-opacity: 1; stroke-width: 1px;"/><path class="xgrid crisp" transform="translate(722.83,0)" d="M0,100v396" style="stroke: rgb(255, 255, 255); stroke-opacity: 1; stroke-width: 1px;"/><path class="xgrid crisp" transform="translate(820.28,0)" d="M0,100v396" style="stroke: rgb(255, 255, 255); stroke-opacity: 1; stroke-width: 1px;"/></g><g class="y"><path class="ygrid crisp" transform="translate(0,419.67)" d="M143,0h726" style="stroke: rgb(255, 255, 255); stroke-opacity: 1; stroke-width: 1px;"/><path class="ygrid crisp" transform="translate(0,342.22)" d="M143,0h726" style="stroke: rgb(255, 255, 255); stroke-opacity: 1; stroke-width: 1px;"/><path class="ygrid crisp" transform="translate(0,264.78)" d="M143,0h726" style="stroke: rgb(255, 255, 255); stroke-opacity: 1; stroke-width: 1px;"/><path class="ygrid crisp" transform="translate(0,187.32999999999998)" d="M143,0h726" style="stroke: rgb(255, 255, 255); stroke-opacity: 1; stroke-width: 1px;"/><path class="ygrid crisp" transform="translate(0,109.89)" d="M143,0h726" style="stroke: rgb(255, 255, 255); stroke-opacity: 1; stroke-width: 1px;"/></g></g><g class="zerolinelayer"/><path class="xlines-below"/><path class="ylines-below"/><g class="overlines-below"/><g class="xaxislayer-below"/><g class="yaxislayer-below"/><g class="overaxes-below"/><g class="plot" transform="translate(143,100)" clip-path="url(#clipc7620exyplot)"><g class="scatterlayer mlayer"><g class="trace scatter trace374cb0" style="stroke-miterlimit: 2; opacity: 1;"><g class="fills"/><g class="errorbars"/><g class="lines"><path class="js-line" d="M0,363.03L4.87,278.62L9.74,234.48L14.62,227.2L19.49,232.62L24.36,221.62L29.23,195.91L34.11,184.91L38.98,208.76L43.85,173.91L48.72,151.92L53.6,153.78L58.47,140.92L63.34,139.06L68.21,140.92L73.09,140.92L77.96,126.21L82.83,140.92L87.7,111.49L92.58,131.78L97.45,117.07L102.32,111.49L107.19,102.36L116.94,109.79L121.81,93.22L126.68,84.08L131.56,82.22L136.43,85.94L141.3,91.36L146.17,87.64L151.05,95.08L155.92,69.36L160.79,74.79L165.66,76.64L170.54,82.22L175.41,71.22L180.28,71.22L190.03,78.5L194.9,71.22L199.77,78.5L204.64,73.08L209.52,69.36L214.39,67.51L219.26,67.51L224.13,74.79L229.01,73.08L233.88,80.36L238.75,60.23L243.62,78.5L248.5,65.65L253.37,58.37L258.24,52.79L263.11,50.93L267.99,50.93L272.86,56.51L277.73,49.23L282.6,50.93L287.48,43.65L292.35,47.37L297.22,58.37L302.09,61.93L306.97,63.79L311.84,54.65L321.58,58.37L326.46,49.23L331.33,60.23L336.2,67.51L341.07,65.65L345.95,56.51L350.82,52.79L355.69,56.51L360.56,54.65L365.44,47.37L370.31,58.37L375.18,56.51L380.05,43.65L384.93,49.23L389.8,50.93L394.67,56.51L399.54,45.51L404.42,41.79L409.29,38.08L414.16,41.79L419.03,43.65L423.91,41.79L428.78,49.23L433.65,49.23L438.52,49.23L443.4,45.51L448.27,39.94L453.14,45.51L458.01,34.51L462.89,39.94L467.76,36.37L472.63,36.37L477.5,34.51L482.38,47.37L487.25,43.65L492.12,38.08L501.87,38.08L506.74,39.94L511.61,27.08L516.48,32.66L521.36,36.37L526.23,32.66L531.1,32.66L535.97,36.37L540.85,38.08L545.72,30.8L550.59,34.51L555.46,34.51L560.34,32.66L565.21,32.66L570.08,32.66L574.95,36.37L579.83,32.66L584.7,32.66L589.57,28.94L594.44,27.08L599.32,25.38L604.19,36.37L609.06,28.94L613.93,30.8L618.81,41.79L623.68,38.08L628.55,34.51L633.42,41.79L638.3,39.94L643.17,36.37L648.04,36.37L652.91,34.51L657.79,30.8L662.66,38.08L667.53,36.37L672.4,41.79L677.28,32.66L682.15,32.66L696.77,27.08L701.64,27.08L706.51,23.52L711.38,23.52L716.26,19.8L721.13,21.66L726,23.52" style="vector-effect: none; fill: none; stroke: rgb(255, 0, 0); stroke-opacity: 1; stroke-width: 2px; opacity: 1;"/></g><g class="points"/><g class="text"/></g><g class="trace scatter trace8e2493" style="stroke-miterlimit: 2; opacity: 1;"><g class="fills"/><g class="errorbars"/><g class="lines"><path class="js-line" d="M0,325.55L9.74,267L14.62,259.72L24.36,259.72L29.23,208.61L34.11,172.06L38.98,208.61L43.85,208.61L48.72,194.05L53.6,172.06L58.47,179.34L63.34,194.05L68.21,172.06L73.09,172.06L77.96,157.5L82.83,172.06L87.7,164.78L92.58,179.34L97.45,172.06L102.32,179.34L107.19,164.78L112.07,142.78L116.94,142.78L121.81,150.22L126.68,150.22L131.56,164.78L136.43,172.06L146.17,172.06L151.05,186.77L155.92,150.22L160.79,157.5L165.66,164.78L170.54,157.5L175.41,172.06L180.28,164.78L190.03,150.22L194.9,157.5L199.77,150.22L204.64,150.22L224.13,150.22L229.01,157.5L233.88,179.34L238.75,157.5L243.62,164.78L248.5,157.5L253.37,150.22L258.24,135.5L267.99,135.5L272.86,142.78L277.73,135.5L282.6,135.5L287.48,135.5L292.35,142.78L297.22,157.5L302.09,164.78L306.97,164.78L311.84,157.5L316.71,142.78L321.58,157.5L331.33,142.78L336.2,150.22L341.07,150.22L345.95,142.78L350.82,142.78L355.69,157.5L360.56,179.34L365.44,164.78L370.31,164.78L375.18,179.34L380.05,179.34L384.93,150.22L389.8,150.22L394.67,172.06L399.54,164.78L404.42,142.78L409.29,142.78L414.16,150.22L419.03,150.22L423.91,142.78L428.78,150.22L433.65,142.78L458.01,142.78L462.89,150.22L472.63,150.22L477.5,142.78L487.25,142.78L492.12,135.5L496.99,142.78L501.87,142.78L506.74,142.78L511.61,135.5L638.3,135.5L643.17,142.78L648.04,135.5L652.91,135.5L696.77,135.5L701.64,142.78L706.51,150.22L711.38,142.78L716.26,142.78L721.13,135.5L726,135.5" style="vector-effect: none; fill: none; stroke: rgb(0, 0, 255); stroke-opacity: 1; stroke-width: 2px; opacity: 1;"/></g><g class="points"/><g class="text"/></g><g class="trace scatter trace63b67a" style="stroke-miterlimit: 2; opacity: 1;"><g class="fills"/><g class="errorbars"/><g class="lines"><path class="js-line" d="M0,376.2L4.87,293.02L9.74,247.18L14.62,238.81L19.49,242.38L24.36,230.29L29.23,198.39L34.11,186.15L38.98,210.93L43.85,173.76L48.72,154.24L53.6,158.12L58.47,142.78L63.34,144.49L68.21,147.43L73.09,148.98L77.96,132.25L82.83,144.49L87.7,113.2L92.58,135.81L97.45,123.11L102.32,113.2L107.19,107.62L112.07,108.24L116.94,113.2L121.81,96.78L126.68,90.43L131.56,89.04L136.43,92.13L141.3,98.33L146.17,94.77L151.05,102.67L155.92,71.69L160.79,76.18L165.66,82.07L170.54,88.73L175.41,78.66L180.28,78.66L185.15,81.29L190.03,85.63L194.9,78.04L199.77,85.94L204.64,79.9L209.52,75.1L214.39,74.32L219.26,74.48L224.13,81.6L229.01,80.05L233.88,87.64L238.75,67.66L243.62,86.09L248.5,72.77L253.37,63.63L258.24,55.58L263.11,52.17L267.99,53.88L272.86,61.93L277.73,52.17L282.6,55.58L287.48,47.99L292.35,50.47L297.22,63.63L302.09,68.13L306.97,69.52L311.84,60.54L316.71,61.62L321.58,61.16L326.46,55.27L331.33,65.03L336.2,73.39L341.07,71.38L345.95,62.55L350.82,57.28L355.69,62.55L360.56,60.85L365.44,51.86L370.31,62.86L375.18,63.17L380.05,50.16L384.93,55.27L389.8,57.28L394.67,63.79L399.54,51.4L404.42,45.82L409.29,41.95L414.16,46.6L419.03,47.53L423.91,45.82L428.78,54.34L438.52,54.96L443.4,49.69L448.27,43.19L453.14,49.69L458.01,39.01L462.89,44.12L467.76,40.71L472.63,40.25L477.5,39.01L482.38,50L492.12,40.56L496.99,41.95L501.87,42.88L506.74,44.58L511.61,30.49L516.48,36.06L521.36,41.02L526.23,36.53L531.1,36.06L535.97,40.71L540.85,41.48L545.72,34.36L550.59,38.54L555.46,38.54L560.34,37.3L565.21,36.84L570.08,36.53L574.95,40.71L579.83,36.06L584.7,37.3L589.57,33.12L594.44,30.49L599.32,28.78L604.19,41.02L609.06,33.12L613.93,35.13L618.81,47.68L623.68,42.88L628.55,39.01L633.42,45.82L643.17,41.79L648.04,41.02L652.91,39.01L657.79,34.82L662.66,43.19L667.53,40.71L672.4,46.6L677.28,34.98L682.15,36.53L687.02,34.36L691.89,33.12L696.77,30.02L701.64,30.02L706.51,27.08L711.38,27.08L716.26,21.81L726,26.62" style="vector-effect: none; fill: none; stroke: rgb(0, 128, 0); stroke-opacity: 1; stroke-width: 2px; opacity: 1;"/></g><g class="points"/><g class="text"/></g><g class="trace scatter trace0963a0" style="stroke-miterlimit: 2; opacity: 1;"><g class="fills"/><g class="errorbars"/><g class="lines"><path class="js-line" d="M0,315.33L9.74,269.02L14.62,267L19.49,267L24.36,263.44L34.11,185.38L38.98,217.59L43.85,220.69L48.72,202.88L53.6,185.38L58.47,191.26L63.34,202.88L68.21,179.34L73.09,175.77L77.96,170.66L82.83,179.34L87.7,173.6L92.58,188.16L97.45,175.77L102.32,184.91L107.19,170.2L112.07,153.16L116.94,153.16L121.81,161.99L126.68,161.99L131.56,176.7L136.43,182.43L141.3,179.34L146.17,179.34L151.05,190.49L155.92,158.89L160.79,167.87L165.66,173.6L170.54,167.87L175.41,175.77L180.28,170.2L185.15,167.87L190.03,158.89L194.9,164.62L199.77,158.89L204.64,158.89L224.13,158.89L229.01,167.87L233.88,188.16L238.75,167.87L243.62,173.6L248.5,167.87L253.37,161.99L258.24,147.27L267.99,147.27L272.86,153.16L277.73,147.27L282.6,147.27L287.48,147.27L292.35,156.1L297.22,167.87L302.09,173.6L306.97,173.6L311.84,167.87L316.71,153.16L321.58,170.66L326.46,158.89L331.33,153.16L336.2,158.89L341.07,158.89L345.95,153.16L350.82,153.16L355.69,164.62L360.56,181.35L365.44,170.2L370.31,170.2L375.18,181.35L380.05,181.35L384.93,158.89L389.8,158.89L394.67,175.77L399.54,170.2L404.42,153.16L409.29,153.16L414.16,158.89L419.03,158.89L423.91,153.16L428.78,158.89L433.65,153.16L438.52,153.16L458.01,153.16L462.89,158.89L472.63,158.89L477.5,153.16L487.25,153.16L492.12,147.27L496.99,153.16L501.87,153.16L506.74,153.16L511.61,147.27L628.55,147.27L633.42,150.06L638.3,150.06L643.17,153.16L648.04,147.27L652.91,147.27L696.77,147.27L701.64,153.16L706.51,158.89L711.38,153.16L716.26,153.16L721.13,147.27L726,147.27" style="vector-effect: none; fill: none; stroke: rgb(255, 165, 0); stroke-opacity: 1; stroke-width: 2px; opacity: 1;"/></g><g class="points"/><g class="text"/></g><g class="trace scatter trace995fef" style="stroke-miterlimit: 2; opacity: 1;"><g class="fills"/><g class="errorbars"/><g class="lines"><path class="js-line" d="M0,374.65L4.87,296.43L9.74,254.3L14.62,250.43L19.49,262.36L24.36,251.05L29.23,229.06L34.11,217.75L38.98,244.23L43.85,206.44L48.72,178.87L53.6,178.72L58.47,166.94L63.34,160.59L68.21,160.9L73.09,157.96L77.96,145.26L82.83,165.24L87.7,134.42L92.58,154.24L97.45,134.88L102.32,134.42L107.19,119.86L112.07,127.91L116.94,130.39L121.81,111.96L126.68,97.4L131.56,94.61L136.43,99.57L141.3,104.21L146.17,99.88L151.05,106.85L155.92,87.18L160.79,94.3L165.66,91.05L170.54,95.23L175.41,80.21L180.28,80.21L185.15,87.02L190.03,89.66L194.9,82.07L199.77,89.04L204.64,84.23L209.52,82.22L214.39,78.35L219.26,77.73L224.13,86.4L229.01,83.61L233.88,91.2L238.75,67.66L243.62,88.42L248.5,75.41L253.37,70.91L258.24,68.74L263.11,68.28L267.99,66.42L272.86,68.74L277.73,64.25L282.6,64.1L287.48,56.51L292.35,62.08L297.22,70.91L302.09,73.55L306.97,76.33L311.84,65.96L316.71,69.36L321.58,74.63L326.46,59.45L331.33,73.7L336.2,80.05L341.07,78.5L345.95,67.51L350.82,66.27L355.69,67.51L360.56,65.34L365.44,60.23L370.31,72.15L375.18,66.42L380.05,52.33L384.93,59.45L389.8,61L394.67,64.56L399.54,55.73L404.42,54.96L409.29,51.24L414.16,53.72L419.03,57.13L423.91,54.96L428.78,61.31L433.65,61.31L438.52,60.07L443.4,58.68L448.27,54.03L453.14,58.68L458.01,46.13L462.89,52.79L467.76,48.3L472.63,48.92L477.5,46.13L482.38,62.7L487.25,59.61L492.12,52.95L496.99,51.24L501.87,50L506.74,52.17L511.61,39.94L516.48,45.82L521.36,47.83L526.23,45.2L531.1,45.82L535.97,48.3L540.85,51.71L545.72,43.65L550.59,46.75L555.46,46.75L560.34,43.96L565.21,44.58L570.08,45.2L574.95,48.3L589.57,40.86L594.44,39.94L599.32,37.61L604.19,47.83L609.06,40.86L613.93,42.41L618.81,51.86L623.68,50L628.55,46.13L633.42,54.96L638.3,52.79L643.17,46.6L648.04,47.83L652.91,46.13L657.79,43.03L662.66,49.38L667.53,48.3L672.4,53.72L677.28,47.06L682.15,45.2L687.02,43.65L691.89,40.86L701.64,40.4L706.51,35.44L711.38,35.44L716.26,33.59L726,36.06" style="vector-effect: none; fill: none; stroke: rgb(128, 0, 128); stroke-opacity: 1; stroke-width: 2px; opacity: 1;"/></g><g class="points"/><g class="text"/></g><g class="trace scatter tracee58924" style="stroke-miterlimit: 2; opacity: 1;"><g class="fills"/><g class="errorbars"/><g class="lines"><path class="js-line" d="M0,298.14L9.74,247.8L14.62,246.09L19.49,246.09L24.36,241.91L34.11,160.13L38.98,193.28L43.85,197.3L48.72,177.48L53.6,160.13L58.47,166.02L63.34,177.48L68.21,151.92L77.96,144.49L82.83,151.92L87.7,146.03L92.58,161.83L97.45,147.74L102.32,157.65L112.07,124.66L116.94,124.66L121.81,134.57L126.68,134.57L131.56,150.22L136.43,156.1L141.3,151.92L146.17,151.92L151.05,163.38L155.92,130.39L160.79,140.3L165.66,146.03L170.54,140.3L175.41,147.74L180.28,142.01L185.15,140.3L190.03,130.39L194.9,136.12L199.77,130.39L204.64,130.39L224.13,130.39L229.01,140.3L233.88,161.83L238.75,140.3L243.62,146.03L248.5,140.3L253.37,134.57L258.24,118.77L267.99,118.77L272.86,124.66L277.73,118.77L282.6,118.77L287.48,118.77L292.35,128.84L297.22,140.3L302.09,146.03L306.97,146.03L311.84,140.3L316.71,124.66L321.58,144.49L326.46,130.39L331.33,124.66L336.2,130.39L341.07,130.39L345.95,124.66L350.82,124.66L355.69,136.12L360.56,153.47L365.44,142.01L370.31,142.01L375.18,153.47L380.05,153.47L384.93,130.39L389.8,130.39L394.67,147.74L399.54,142.01L404.42,124.66L409.29,124.66L414.16,130.39L419.03,130.39L423.91,124.66L428.78,130.39L433.65,124.66L438.52,124.66L458.01,124.66L462.89,130.39L472.63,130.39L477.5,124.66L487.25,124.66L492.12,118.77L496.99,124.66L501.87,124.66L506.74,124.66L511.61,118.77L628.55,118.77L633.42,122.96L638.3,122.96L643.17,124.66L648.04,118.77L652.91,118.77L696.77,118.77L701.64,124.66L706.51,130.39L711.38,124.66L716.26,124.66L721.13,118.77L726,118.77" style="vector-effect: none; fill: none; stroke: rgb(255, 192, 203); stroke-opacity: 1; stroke-width: 2px; opacity: 1;"/></g><g class="points"/><g class="text"/></g><g class="trace scatter traceec972e" style="stroke-miterlimit: 2; opacity: 1;"><g class="fills"/><g class="errorbars"/><g class="lines"><path class="js-line" d="M0,375.74L4.87,295.19L9.74,251.82L14.62,246.87L19.49,258.02L24.36,246.4L29.23,223.01L34.11,211.24L38.98,238.81L43.85,199.63L48.72,172.37L53.6,172.68L58.47,160.28L63.34,155.33L68.21,156.26L73.09,154.4L77.96,140.61L82.83,159.05L87.7,127.91L92.58,148.36L97.45,130.55L102.32,127.91L107.19,115.21L112.07,121.56L116.94,124.66L121.81,106.54L126.68,94.46L131.56,92.13L136.43,96.47L141.3,101.74L146.17,97.71L151.05,104.99L155.92,81.6L160.79,88.11L165.66,87.49L170.54,92.44L175.41,79.43L180.28,79.43L185.15,84.54L190.03,87.8L194.9,80.21L199.77,87.49L204.64,82.22L214.39,76.49L219.26,76.18L224.13,84.23L229.01,82.07L233.88,89.5L238.75,67.66L243.62,87.33L248.5,74.17L253.37,67.82L258.24,63.63L267.99,61.62L272.86,65.8L277.73,59.61L282.6,60.54L287.48,52.95L292.35,57.44L297.22,67.82L302.09,71.22L306.97,73.39L311.84,63.63L316.71,66.11L321.58,69.52L326.46,57.59L331.33,70.14L336.2,77.26L341.07,75.41L345.95,65.34L350.82,62.55L355.69,65.34L360.56,63.32L365.44,56.66L370.31,68.44L375.18,64.87L380.05,51.24L384.93,57.59L389.8,59.3L394.67,64.1L399.54,53.72L404.42,51.24L409.29,47.37L419.03,53.26L423.91,51.24L428.78,58.21L433.65,58.21L438.52,57.75L443.4,54.96L448.27,49.69L453.14,54.96L458.01,43.03L462.89,49.07L467.76,45.05L472.63,45.36L477.5,43.03L482.38,57.75L487.25,54.19L492.12,48.14L501.87,46.91L506.74,48.92L511.61,35.91L516.48,41.79L521.36,44.89L526.23,41.48L531.1,41.79L535.97,45.05L540.85,47.68L545.72,39.78L550.59,43.34L555.46,43.34L560.34,41.02L565.21,41.33L570.08,41.48L574.95,45.05L579.83,41.79L584.7,41.02L589.57,37.46L594.44,35.91L599.32,33.89L604.19,44.89L609.06,37.46L613.93,39.32L618.81,50L623.68,46.91L628.55,43.03L633.42,51.24L638.3,49.07L643.17,44.43L648.04,44.89L652.91,43.03L657.79,39.47L662.66,46.6L667.53,45.05L672.4,50.62L677.28,42.26L682.15,41.48L696.77,36.22L701.64,36.22L706.51,31.88L711.38,31.88L716.26,28.78L721.13,30.33L726,32.19" style="vector-effect: none; fill: none; stroke: rgb(165, 42, 42); stroke-opacity: 1; stroke-width: 2px; opacity: 1;"/></g><g class="points"/><g class="text"/></g><g class="trace scatter trace365a41" style="stroke-miterlimit: 2; opacity: 1;"><g class="fills"/><g class="errorbars"/><g class="lines"><path class="js-line" d="M0,332.06L9.74,276.45L14.62,271.03L19.49,271.03L24.36,269.64L29.23,222.09L34.11,183.83L38.98,219.3L43.85,220.69L48.72,204.27L53.6,183.83L58.47,190.64L63.34,204.27L68.21,181.35L73.09,180.11L77.96,168.8L82.83,181.35L87.7,174.38L92.58,189.4L97.45,180.11L102.32,188.16L107.19,173.3L112.07,152.54L116.94,152.54L121.81,160.59L126.68,160.59L131.56,175.62L136.43,182.43L141.3,181.35L146.17,181.35L151.05,194.98L155.92,159.36L160.79,167.56L165.66,174.38L170.54,167.56L175.41,180.11L180.28,173.3L185.15,167.56L190.03,159.36L194.9,166.33L199.77,159.36L224.13,159.36L229.01,167.56L233.88,189.4L238.75,167.56L243.62,174.38L248.5,167.56L253.37,160.59L258.24,145.57L267.99,145.57L272.86,152.54L277.73,145.57L282.6,145.57L287.48,145.57L292.35,153.78L297.22,167.56L302.09,174.38L306.97,174.38L311.84,167.56L316.71,152.54L321.58,168.8L326.46,159.36L331.33,152.54L336.2,159.36L341.07,159.36L345.95,152.54L350.82,152.54L355.69,166.33L360.56,187.08L365.44,173.3L370.31,173.3L375.18,187.08L380.05,187.08L384.93,159.36L389.8,159.36L394.67,180.11L399.54,173.3L404.42,152.54L409.29,152.54L414.16,159.36L419.03,159.36L423.91,152.54L428.78,159.36L433.65,152.54L438.52,152.54L458.01,152.54L462.89,159.36L472.63,159.36L477.5,152.54L487.25,152.54L492.12,145.57L496.99,152.54L501.87,152.54L506.74,152.54L511.61,145.57L628.55,145.57L633.42,146.81L638.3,146.81L643.17,152.54L648.04,145.57L652.91,145.57L696.77,145.57L701.64,152.54L706.51,159.36L711.38,152.54L716.26,152.54L721.13,145.57L726,145.57" style="vector-effect: none; fill: none; stroke: rgb(128, 128, 128); stroke-opacity: 1; stroke-width: 2px; opacity: 1;"/></g><g class="points"/><g class="text"/></g></g></g><g class="overplot"/><path class="xlines-above crisp" d="M0,0" style="fill: none;"/><path class="ylines-above crisp" d="M0,0" style="fill: none;"/><g class="overlines-above"/><g class="xaxislayer-above"><g class="xtick"><text text-anchor="middle" x="0" y="509" transform="translate(235.57999999999998,0)" style="font-family: 'Open Sans', verdana, arial, sans-serif; font-size: 12px; fill: rgb(42, 63, 95); fill-opacity: 1; white-space: pre; opacity: 1;">20</text></g><g class="xtick"><text text-anchor="middle" x="0" y="509" style="font-family: 'Open Sans', verdana, arial, sans-serif; font-size: 12px; fill: rgb(42, 63, 95); fill-opacity: 1; white-space: pre; opacity: 1;" transform="translate(333.03,0)">40</text></g><g class="xtick"><text text-anchor="middle" x="0" y="509" style="font-family: 'Open Sans', verdana, arial, sans-serif; font-size: 12px; fill: rgb(42, 63, 95); fill-opacity: 1; white-space: pre; opacity: 1;" transform="translate(430.48,0)">60</text></g><g class="xtick"><text text-anchor="middle" x="0" y="509" style="font-family: 'Open Sans', verdana, arial, sans-serif; font-size: 12px; fill: rgb(42, 63, 95); fill-opacity: 1; white-space: pre; opacity: 1;" transform="translate(527.9300000000001,0)">80</text></g><g class="xtick"><text text-anchor="middle" x="0" y="509" style="font-family: 'Open Sans', verdana, arial, sans-serif; font-size: 12px; fill: rgb(42, 63, 95); fill-opacity: 1; white-space: pre; opacity: 1;" transform="translate(625.38,0)">100</text></g><g class="xtick"><text text-anchor="middle" x="0" y="509" style="font-family: 'Open Sans', verdana, arial, sans-serif; font-size: 12px; fill: rgb(42, 63, 95); fill-opacity: 1; white-space: pre; opacity: 1;" transform="translate(722.83,0)">120</text></g><g class="xtick"><text text-anchor="middle" x="0" y="509" style="font-family: 'Open Sans', verdana, arial, sans-serif; font-size: 12px; fill: rgb(42, 63, 95); fill-opacity: 1; white-space: pre; opacity: 1;" transform="translate(820.28,0)">140</text></g></g><g class="yaxislayer-above"><g class="ytick"><text text-anchor="end" x="142" y="4.199999999999999" transform="translate(0,419.67)" style="font-family: 'Open Sans', verdana, arial, sans-serif; font-size: 12px; fill: rgb(42, 63, 95); fill-opacity: 1; white-space: pre; opacity: 1;">65</text></g><g class="ytick"><text text-anchor="end" x="142" y="4.199999999999999" style="font-family: 'Open Sans', verdana, arial, sans-serif; font-size: 12px; fill: rgb(42, 63, 95); fill-opacity: 1; white-space: pre; opacity: 1;" transform="translate(0,342.22)">70</text></g><g class="ytick"><text text-anchor="end" x="142" y="4.199999999999999" style="font-family: 'Open Sans', verdana, arial, sans-serif; font-size: 12px; fill: rgb(42, 63, 95); fill-opacity: 1; white-space: pre; opacity: 1;" transform="translate(0,264.78)">75</text></g><g class="ytick"><text text-anchor="end" x="142" y="4.199999999999999" style="font-family: 'Open Sans', verdana, arial, sans-serif; font-size: 12px; fill: rgb(42, 63, 95); fill-opacity: 1; white-space: pre; opacity: 1;" transform="translate(0,187.32999999999998)">80</text></g><g class="ytick"><text text-anchor="end" x="142" y="4.199999999999999" style="font-family: 'Open Sans', verdana, arial, sans-serif; font-size: 12px; fill: rgb(42, 63, 95); fill-opacity: 1; white-space: pre; opacity: 1;" transform="translate(0,109.89)">85</text></g></g><g class="overaxes-above"/></g></g><g class="polarlayer"/><g class="smithlayer"/><g class="ternarylayer"/><g class="geolayer"/><g class="funnelarealayer"/><g class="pielayer"/><g class="iciclelayer"/><g class="treemaplayer"/><g class="sunburstlayer"/><g class="glimages"/><defs id="topdefs-c7620e"><g class="clips"/><clipPath id="legendc7620e"><rect width="128" height="162" x="0" y="0"/></clipPath></defs><g class="layer-above"><g class="imagelayer"/><g class="shapelayer"/></g><g class="infolayer"><g class="legend" pointer-events="all" transform="translate(883.52,100)"><rect class="bg" shape-rendering="crispEdges" width="128" height="162" x="0" y="0" style="stroke: rgb(68, 68, 68); stroke-opacity: 1; fill: rgb(255, 255, 255); fill-opacity: 1; stroke-width: 0px;"/><g class="scrollbox" transform="" clip-path="url(#legendc7620e)"><g class="groups"><g class="traces" transform="translate(0,14.5)" style="opacity: 1;"><text class="legendtext" text-anchor="start" x="40" y="4.680000000000001" style="font-family: 'Open Sans', verdana, arial, sans-serif; font-size: 12px; fill: rgb(42, 63, 95); fill-opacity: 1; white-space: pre;">Train Accuracy</text><g class="layers" style="opacity: 1;"><g class="legendfill"/><g class="legendlines"><path class="js-line" d="M5,0h30" style="fill: none; stroke: rgb(255, 0, 0); stroke-opacity: 1; stroke-width: 2px;"/></g><g class="legendsymbols"><g class="legendpoints"/></g></g><rect class="legendtoggle" x="0" y="-9.5" width="122.71875" height="19" style="fill: rgb(0, 0, 0); fill-opacity: 0;"/></g><g class="traces" transform="translate(0,33.5)" style="opacity: 1;"><text class="legendtext" text-anchor="start" x="40" y="4.680000000000001" style="font-family: 'Open Sans', verdana, arial, sans-serif; font-size: 12px; fill: rgb(42, 63, 95); fill-opacity: 1; white-space: pre;">Test Accuracy</text><g class="layers" style="opacity: 1;"><g class="legendfill"/><g class="legendlines"><path class="js-line" d="M5,0h30" style="fill: none; stroke: rgb(0, 0, 255); stroke-opacity: 1; stroke-width: 2px;"/></g><g class="legendsymbols"><g class="legendpoints"/></g></g><rect class="legendtoggle" x="0" y="-9.5" width="122.71875" height="19" style="fill: rgb(0, 0, 0); fill-opacity: 0;"/></g><g class="traces" transform="translate(0,52.5)" style="opacity: 1;"><text class="legendtext" text-anchor="start" x="40" y="4.680000000000001" style="font-family: 'Open Sans', verdana, arial, sans-serif; font-size: 12px; fill: rgb(42, 63, 95); fill-opacity: 1; white-space: pre;">Train Precision</text><g class="layers" style="opacity: 1;"><g class="legendfill"/><g class="legendlines"><path class="js-line" d="M5,0h30" style="fill: none; stroke: rgb(0, 128, 0); stroke-opacity: 1; stroke-width: 2px;"/></g><g class="legendsymbols"><g class="legendpoints"/></g></g><rect class="legendtoggle" x="0" y="-9.5" width="122.71875" height="19" style="fill: rgb(0, 0, 0); fill-opacity: 0;"/></g><g class="traces" transform="translate(0,71.5)" style="opacity: 1;"><text class="legendtext" text-anchor="start" x="40" y="4.680000000000001" style="font-family: 'Open Sans', verdana, arial, sans-serif; font-size: 12px; fill: rgb(42, 63, 95); fill-opacity: 1; white-space: pre;">Test Precision</text><g class="layers" style="opacity: 1;"><g class="legendfill"/><g class="legendlines"><path class="js-line" d="M5,0h30" style="fill: none; stroke: rgb(255, 165, 0); stroke-opacity: 1; stroke-width: 2px;"/></g><g class="legendsymbols"><g class="legendpoints"/></g></g><rect class="legendtoggle" x="0" y="-9.5" width="122.71875" height="19" style="fill: rgb(0, 0, 0); fill-opacity: 0;"/></g><g class="traces" transform="translate(0,90.5)" style="opacity: 1;"><text class="legendtext" text-anchor="start" x="40" y="4.680000000000001" style="font-family: 'Open Sans', verdana, arial, sans-serif; font-size: 12px; fill: rgb(42, 63, 95); fill-opacity: 1; white-space: pre;">Train Recall</text><g class="layers" style="opacity: 1;"><g class="legendfill"/><g class="legendlines"><path class="js-line" d="M5,0h30" style="fill: none; stroke: rgb(128, 0, 128); stroke-opacity: 1; stroke-width: 2px;"/></g><g class="legendsymbols"><g class="legendpoints"/></g></g><rect class="legendtoggle" x="0" y="-9.5" width="122.71875" height="19" style="fill: rgb(0, 0, 0); fill-opacity: 0;"/></g><g class="traces" transform="translate(0,109.5)" style="opacity: 1;"><text class="legendtext" text-anchor="start" x="40" y="4.680000000000001" style="font-family: 'Open Sans', verdana, arial, sans-serif; font-size: 12px; fill: rgb(42, 63, 95); fill-opacity: 1; white-space: pre;">Test Recall</text><g class="layers" style="opacity: 1;"><g class="legendfill"/><g class="legendlines"><path class="js-line" d="M5,0h30" style="fill: none; stroke: rgb(255, 192, 203); stroke-opacity: 1; stroke-width: 2px;"/></g><g class="legendsymbols"><g class="legendpoints"/></g></g><rect class="legendtoggle" x="0" y="-9.5" width="122.71875" height="19" style="fill: rgb(0, 0, 0); fill-opacity: 0;"/></g><g class="traces" transform="translate(0,128.5)" style="opacity: 1;"><text class="legendtext" text-anchor="start" x="40" y="4.680000000000001" style="font-family: 'Open Sans', verdana, arial, sans-serif; font-size: 12px; fill: rgb(42, 63, 95); fill-opacity: 1; white-space: pre;">Train F1</text><g class="layers" style="opacity: 1;"><g class="legendfill"/><g class="legendlines"><path class="js-line" d="M5,0h30" style="fill: none; stroke: rgb(165, 42, 42); stroke-opacity: 1; stroke-width: 2px;"/></g><g class="legendsymbols"><g class="legendpoints"/></g></g><rect class="legendtoggle" x="0" y="-9.5" width="122.71875" height="19" style="fill: rgb(0, 0, 0); fill-opacity: 0;"/></g><g class="traces" transform="translate(0,147.5)" style="opacity: 1;"><text class="legendtext" text-anchor="start" x="40" y="4.680000000000001" style="font-family: 'Open Sans', verdana, arial, sans-serif; font-size: 12px; fill: rgb(42, 63, 95); fill-opacity: 1; white-space: pre;">Test F1</text><g class="layers" style="opacity: 1;"><g class="legendfill"/><g class="legendlines"><path class="js-line" d="M5,0h30" style="fill: none; stroke: rgb(128, 128, 128); stroke-opacity: 1; stroke-width: 2px;"/></g><g class="legendsymbols"><g class="legendpoints"/></g></g><rect class="legendtoggle" x="0" y="-9.5" width="122.71875" height="19" style="fill: rgb(0, 0, 0); fill-opacity: 0;"/></g></g></g><rect class="scrollbar" rx="20" ry="3" width="0" height="0" x="0" y="0" style="fill: rgb(128, 139, 164); fill-opacity: 1;"/></g><g class="g-gtitle"><text class="gtitle" x="51.2" y="50" text-anchor="start" dy="0em" style="font-family: 'Open Sans', verdana, arial, sans-serif; font-size: 17px; fill: rgb(42, 63, 95); opacity: 1; font-weight: normal; white-space: pre;">Training Metrics - logs/FakeNewsNet-politifact_max-vocab=15000_pre=v1_domain_T=200_s=5.log</text></g><g class="g-xtitle"><text class="xtitle" x="506" y="537.3" text-anchor="middle" style="font-family: 'Open Sans', verdana, arial, sans-serif; font-size: 14px; fill: rgb(42, 63, 95); opacity: 1; font-weight: normal; white-space: pre;">Epoch</text></g><g class="g-ytitle"><text class="ytitle" transform="rotate(-90,103.965625,298)" x="103.965625" y="298" text-anchor="middle" style="font-family: 'Open Sans', verdana, arial, sans-serif; font-size: 14px; fill: rgb(42, 63, 95); opacity: 1; font-weight: normal; white-space: pre;">Metric Score</text></g></g><g class="menulayer"><g class="updatemenu-container" style="cursor: pointer;"><g class="updatemenu-header-group" transform="translate(12,60)"><g class="updatemenu-header" transform="translate(1,1)" style="pointer-events: all;"><rect class="updatemenu-item-rect" rx="2" ry="2" shape-rendering="crispEdges" x="0" y="0" width="167" height="33" style="stroke: rgb(190, 200, 217); stroke-opacity: 1; fill: rgb(255, 255, 255); fill-opacity: 1; stroke-width: 1px;"/><text class="updatemenu-item-text" text-anchor="start" data-notex="1" x="12" y="19.5" style="font-family: 'Open Sans', verdana, arial, sans-serif; font-size: 12px; fill: rgb(42, 63, 95); fill-opacity: 1; white-space: pre;">All</text></g><text class="updatemenu-header-arrow" text-anchor="end" x="163" y="19.5" style="font-family: 'Open Sans', verdana, arial, sans-serif; font-size: 12px; fill: rgb(42, 63, 95); fill-opacity: 1;">▼</text></g><g class="updatemenu-dropdown-button-group" updatemenu-active-index="-1" style="pointer-events: all;"><rect class="scrollbox-bg" opacity="0" x="0" y="0" width="0" height="0" style="pointer-events: all;"/></g></g></g></svg>