<svg class="main-svg" xmlns="http://www.w3.org/2000/svg" xmlns:xlink="http://www.w3.org/1999/xlink" width="1024" height="576" style="" viewBox="0 0 1024 576"><rect x="0" y="0" width="1024" height="576" style="fill: rgb(255, 255, 255); fill-opacity: 1;"/><defs id="defs-d3d733"><g class="clips"><clipPath id="clipd3d733xyplot" class="plotclip"><rect width="720" height="396"/></clipPath><clipPath class="axesclip" id="clipd3d733x"><rect x="150" y="0" width="720" height="576"/></clipPath><clipPath class="axesclip" id="clipd3d733y"><rect x="0" y="100" width="1024" height="396"/></clipPath><clipPath class="axesclip" id="clipd3d733xy"><rect x="150" y="100" width="720" height="396"/></clipPath></g><g class="gradients"/><g class="patterns"/></defs><g class="bglayer"><rect class="bg" x="150" y="100" width="720" height="396" style="fill: rgb(229, 236, 246); fill-opacity: 1; stroke-width: 0;"/></g><g class="layer-below"><g class="imagelayer"/><g class="shapelayer"/></g><g class="cartesianlayer"><g class="subplot xy"><g class="layer-subplot"><g class="shapelayer"/><g class="imagelayer"/></g><g class="minor-gridlayer"><g class="x"/><g class="y"/></g><g class="gridlayer"><g class="x"><path class="xgrid crisp" transform="translate(241.81,0)" d="M0,100v396" style="stroke: rgb(255, 255, 255); stroke-opacity: 1; stroke-width: 1px;"/><path class="xgrid crisp" transform="translate(338.46000000000004,0)" d="M0,100v396" style="stroke: rgb(255, 255, 255); stroke-opacity: 1; stroke-width: 1px;"/><path class="xgrid crisp" transform="translate(435.1,0)" d="M0,100v396" style="stroke: rgb(255, 255, 255); stroke-opacity: 1; stroke-width: 1px;"/><path class="xgrid crisp" transform="translate(531.74,0)" d="M0,100v396" style="stroke: rgb(255, 255, 255); stroke-opacity: 1; stroke-width: 1px;"/><path class="xgrid crisp" transform="translate(628.39,0)" d="M0,100v396" style="stroke: rgb(255, 255, 255); stroke-opacity: 1; stroke-width: 1px;"/><path class="xgrid crisp" transform="translate(725.03,0)" d="M0,100v396" style="stroke: rgb(255, 255, 255); stroke-opacity: 1; stroke-width: 1px;"/><path class="xgrid crisp" transform="translate(821.68,0)" d="M0,100v396" style="stroke: rgb(255, 255, 255); stroke-opacity: 1; stroke-width: 1px;"/></g><g class="y"><path class="ygrid crisp" transform="translate(0,470.31)" d="M150,0h720" style="stroke: rgb(255, 255, 255); stroke-opacity: 1; stroke-width: 1px;"/><path class="ygrid crisp" transform="translate(0,409.54)" d="M150,0h720" style="stroke: rgb(255, 255, 255); stroke-opacity: 1; stroke-width: 1px;"/><path class="ygrid crisp" transform="translate(0,348.77)" d="M150,0h720" style="stroke: rgb(255, 255, 255); stroke-opacity: 1; stroke-width: 1px;"/><path class="ygrid crisp" transform="translate(0,288)" d="M150,0h720" style="stroke: rgb(255, 255, 255); stroke-opacity: 1; stroke-width: 1px;"/><path class="ygrid crisp" transform="translate(0,227.24)" d="M150,0h720" style="stroke: rgb(255, 255, 255); stroke-opacity: 1; stroke-width: 1px;"/><path class="ygrid crisp" transform="translate(0,166.47)" d="M150,0h720" style="stroke: rgb(255, 255, 255); stroke-opacity: 1; stroke-width: 1px;"/><path class="ygrid crisp" transform="translate(0,105.7)" d="M150,0h720" style="stroke: rgb(255, 255, 255); stroke-opacity: 1; stroke-width: 1px;"/></g></g><g class="zerolinelayer"/><path class="xlines-below"/><path class="ylines-below"/><g class="overlines-below"/><g class="xaxislayer-below"/><g class="yaxislayer-below"/><g class="overaxes-below"/><g class="plot" transform="translate(150,100)" clip-path="url(#clipd3d733xyplot)"><g class="scatterlayer mlayer"><g class="trace scatter tracee7de0b" style="stroke-miterlimit: 2; opacity: 1;"><g class="fills"/><g class="errorbars"/><g class="lines"><path class="js-line" d="M0,199.79L4.83,174.63L9.66,189.04L14.5,139.33L19.33,129.24L24.16,128.51L28.99,124.2L33.83,48.6L38.66,63.73L43.49,46.48L48.32,52.92L53.15,100.44L57.99,122.8L62.82,122.8L67.65,124.2L77.32,74.55L82.15,49.33L86.98,89.68L91.81,57.23L96.64,73.82L101.48,60.88L106.31,44.29L111.14,59.42L115.97,61.55L120.81,76.68L125.64,70.24L130.47,45.75L135.3,34.93L140.13,40.7L144.97,27.76L149.8,45.75L154.63,45.02L159.46,38.52L164.3,39.25L169.13,42.16L173.96,38.52L178.79,42.83L183.62,39.25L188.46,30.62L193.29,86.04L198.12,80.26L202.95,86.77L207.79,57.23L212.62,50.06L217.45,33.47L222.28,60.15L227.11,29.89L231.95,27.76L236.78,37.79L241.61,42.83L246.44,22.72L251.28,21.99L256.11,26.3L265.77,25.57L270.6,26.3L275.44,29.16L280.27,29.89L285.1,24.11L289.93,40.7L294.77,31.35L299.6,39.25L304.43,35.66L309.26,37.79L314.09,29.89L318.93,29.16L323.76,30.62L328.59,28.43L333.42,44.29L338.26,45.02L343.09,49.33L347.92,48.6L352.75,48.6L357.58,55.11L362.42,53.65L367.25,48.6L372.08,80.26L376.91,44.29L381.74,47.15L386.58,23.39L391.41,23.39L396.24,21.99L401.07,43.56L405.91,46.48L410.74,21.26L415.57,45.75L420.4,84.64L425.23,23.39L430.07,38.52L434.9,37.79L439.73,38.52L444.56,40.7L449.4,27.03L454.23,23.39L468.72,24.84L473.56,27.76L478.39,24.11L483.22,22.72L488.05,21.99L492.89,32.07L497.72,61.55L502.55,61.55L507.38,63.73L512.21,34.93L517.05,21.99L521.88,19.8L526.71,35.66L531.54,21.26L536.38,19.8L541.21,19.8L546.04,20.53L550.87,32.74L560.54,37.12L565.37,37.79L570.2,36.39L575.03,32.07L579.87,32.74L584.7,34.2L589.53,34.2L594.36,36.39L599.19,34.2L604.03,34.2L608.86,21.26L613.69,21.26L618.52,21.99L623.36,25.57L628.19,19.8L633.02,21.26L637.85,22.72L642.68,22.72L647.52,36.39L652.35,36.39L657.18,53.65L662.01,54.38L666.85,55.83L671.68,55.11L691.01,55.83L695.84,52.92L700.67,55.83L705.5,53.65L710.34,51.52L715.17,52.92L720,50.06" style="vector-effect: none; fill: none; stroke: rgb(255, 0, 0); stroke-opacity: 1; stroke-width: 2px; opacity: 1;"/></g><g class="points"/><g class="text"/></g><g class="trace scatter trace0cd3b4" style="stroke-miterlimit: 2; opacity: 1;"><g class="fills"/><g class="errorbars"/><g class="lines"><path class="js-line" d="M0,168.5L4.83,159.93L9.66,162.79L14.5,142.73L19.33,139.88L24.16,139.88L28.99,136.96L33.83,94L38.66,125.54L43.49,88.22L48.32,96.85L53.15,134.1L57.99,136.96L67.65,136.96L72.48,122.68L77.32,111.19L82.15,96.85L86.98,125.54L91.81,96.85L96.64,111.19L101.48,99.71L106.31,82.51L111.14,99.71L115.97,99.71L120.81,111.19L125.64,111.19L130.47,79.66L135.3,79.66L140.13,82.51L144.97,76.8L149.8,76.8L154.63,79.66L159.46,91.14L164.3,94L169.13,91.14L173.96,85.37L178.79,82.51L183.62,88.22L188.46,71.03L193.29,142.73L198.12,125.54L202.95,131.25L207.79,105.48L212.62,91.14L217.45,85.37L222.28,116.91L227.11,79.66L231.95,73.94L236.78,88.22L241.61,91.14L246.44,85.37L251.28,82.51L256.11,73.94L260.94,82.51L265.77,79.66L270.6,79.66L275.44,85.37L280.27,91.14L285.1,76.8L289.93,82.51L294.77,91.14L299.6,79.66L304.43,82.51L309.26,85.37L314.09,82.51L318.93,79.66L323.76,73.94L328.59,79.66L333.42,99.71L347.92,99.71L352.75,105.48L357.58,102.57L362.42,108.34L367.25,99.71L372.08,125.54L376.91,94L381.74,96.85L386.58,73.94L391.41,76.8L396.24,73.94L401.07,96.85L405.91,96.85L410.74,68.17L415.57,105.48L420.4,128.39L425.23,71.03L430.07,88.22L439.73,88.22L444.56,82.51L449.4,65.31L454.23,71.03L459.06,85.37L463.89,76.8L468.72,71.03L473.56,68.17L483.22,73.94L488.05,71.03L492.89,85.37L497.72,108.34L502.55,108.34L507.38,111.19L512.21,82.51L517.05,73.94L521.88,71.03L526.71,85.37L531.54,73.94L536.38,76.8L541.21,79.66L546.04,79.66L555.7,91.14L560.54,88.22L565.37,88.22L570.2,79.66L575.03,73.94L579.87,79.66L584.7,73.94L589.53,85.37L594.36,82.51L599.19,82.51L604.03,79.66L608.86,79.66L613.69,79.66L618.52,71.03L623.36,73.94L628.19,82.51L633.02,76.8L637.85,76.8L642.68,76.8L647.52,91.14L652.35,88.22L657.18,114.05L662.01,114.05L666.85,111.19L671.68,111.19L676.51,105.48L681.34,114.05L686.17,111.19L691.01,114.05L695.84,108.34L720,108.34" style="vector-effect: none; fill: none; stroke: rgb(0, 0, 255); stroke-opacity: 1; stroke-width: 2px; opacity: 1;"/></g><g class="points"/><g class="text"/></g><g class="trace scatter trace086463" style="stroke-miterlimit: 2; opacity: 1;"><g class="fills"/><g class="errorbars"/><g class="lines"><path class="js-line" d="M0,376.2L4.83,98.13L9.66,69.2L14.5,78.62L19.33,77.53L24.16,76.98L28.99,73.88L33.83,41.13L38.66,61.12L43.49,38.46L48.32,55.41L53.15,59.72L57.99,72.91L62.82,72.91L67.65,73.88L82.15,37.24L86.98,55.35L91.81,40.22L96.64,48.12L106.31,34.08L111.14,39.31L115.97,40.83L120.81,44.84L125.64,43.8L130.47,33.96L135.3,31.1L140.13,32.44L144.97,27.52L149.8,36.81L154.63,35.72L159.46,31.77L164.3,32.8L169.13,32.44L173.96,29.77L178.79,32.44L183.62,31.83L188.46,32.32L193.29,69.2L198.12,68.23L202.95,69.63L207.79,54.5L212.62,49.03L217.45,35.3L222.28,53.34L227.11,31.16L231.95,29.52L236.78,39.12L241.61,42.34L246.44,22.6L251.28,21.99L256.11,27.7L260.94,23.69L265.77,23.69L275.44,24.36L280.27,25.76L285.1,23.63L289.93,28.43L294.77,26.12L299.6,27.4L304.43,27.03L309.26,29.71L314.09,28.31L318.93,30.19L323.76,33.23L328.59,29.71L333.42,43.01L338.26,43.62L343.09,47.02L347.92,46.17L352.75,46.48L357.58,51.16L367.25,46.17L372.08,63.19L376.91,44.29L381.74,46.72L386.58,23.93L391.41,24.18L396.24,22.47L401.07,41.86L405.91,44.78L410.74,22.6L420.4,64.59L425.23,24.54L430.07,39L434.9,38.33L439.73,39.18L444.56,40.83L449.4,29.22L454.23,24.9L459.06,23.08L463.89,26.36L468.72,27.03L473.56,30.01L478.39,26.24L483.22,24.78L488.05,24.05L492.89,33.17L497.72,52.55L502.55,53.04L507.38,54.5L512.21,35.66L517.05,22.47L521.88,20.71L526.71,35.66L531.54,20.59L546.04,21.74L550.87,33.59L560.54,38.15L565.37,38.58L570.2,37.3L575.03,33.17L584.7,35.6L589.53,35.42L594.36,37.3L599.19,34.87L604.03,34.87L608.86,22.72L613.69,22.41L618.52,24.05L623.36,27.82L628.19,20.71L637.85,24.05L642.68,23.87L647.52,37.12L652.35,37.12L657.18,47.39L662.01,47.94L666.85,48.97L671.68,48.42L681.34,48.42L686.17,47.57L691.01,48.54L695.84,46.48L700.67,48.54L705.5,46.96L710.34,45.02L715.17,46.48L720,44.41" style="vector-effect: none; fill: none; stroke: rgb(0, 128, 0); stroke-opacity: 1; stroke-width: 2px; opacity: 1;"/></g><g class="points"/><g class="text"/></g><g class="trace scatter trace71e96e" style="stroke-miterlimit: 2; opacity: 1;"><g class="fills"/><g class="errorbars"/><g class="lines"><path class="js-line" d="M0,360.58L4.83,153.97L9.66,54.92L14.5,125.66L19.33,126.93L24.16,126.93L28.99,122.25L33.83,99.77L38.66,124.75L43.49,93.94L48.32,102.63L53.15,123.1L57.99,122.25L67.65,122.25L72.48,107.67L77.32,105.66L82.15,97.89L86.98,115.69L91.81,90.72L96.64,102.44L101.48,93.57L106.31,79.47L111.14,93.57L115.97,93.57L120.81,102.44L125.64,105.66L130.47,76.8L135.3,80.87L140.13,83.67L144.97,84.46L149.8,76.25L154.63,78.99L159.46,96.85L164.3,100.99L169.13,93.88L173.96,86.4L178.79,81.66L183.62,89.26L188.46,80.26L193.29,119.22L198.12,109.07L202.95,112.47L207.79,100.44L212.62,91.87L217.45,95.52L222.28,103.78L227.11,88.71L231.95,82.82L236.78,92.3L241.61,90.35L246.44,93.94L251.28,91.02L256.11,82.27L260.94,90.23L265.77,86.4L270.6,85.31L275.44,89.68L280.27,98.01L285.1,83.54L289.93,81.66L294.77,98.01L299.6,78.99L304.43,85.37L309.26,89.68L314.09,91.02L318.93,88.71L323.76,83.67L328.59,88.71L333.42,98.13L338.26,98.13L343.09,96.49L347.92,96.49L352.75,103.9L357.58,96.61L362.42,98.37L367.25,96.49L372.08,106.58L376.91,92.42L381.74,96.06L386.58,81.54L391.41,85.19L396.24,82.27L401.07,92.72L405.91,92.72L410.74,76.98L415.57,94.36L420.4,108.22L425.23,79.35L430.07,89.68L434.9,91.08L439.73,91.08L444.56,83.97L449.4,74.37L454.23,80.51L459.06,92.17L468.72,80.63L473.56,77.59L483.22,83.67L488.05,80.63L492.89,87.56L497.72,96.18L502.55,96.18L507.38,97.95L512.21,85.31L517.05,82.27L521.88,79.35L526.71,84.64L531.54,79.66L536.38,85.73L541.21,89.2L546.04,88.71L550.87,88.83L555.7,94.54L560.54,92.3L565.37,92.3L570.2,84.21L575.03,78.5L579.87,85.31L584.7,78.5L589.53,89.99L594.36,87.68L599.19,86.52L604.03,84.21L608.86,89.2L613.69,89.2L618.52,80.51L623.36,83.67L628.19,92.17L633.02,86.22L642.68,86.22L647.52,94.54L652.35,92.3L657.18,102.02L662.01,102.02L666.85,100.2L671.68,100.2L676.51,96.55L681.34,102.02L686.17,100.2L691.01,102.02L695.84,98.37L720,98.37" style="vector-effect: none; fill: none; stroke: rgb(255, 165, 0); stroke-opacity: 1; stroke-width: 2px; opacity: 1;"/></g><g class="points"/><g class="text"/></g><g class="trace scatter tracec18a32" style="stroke-miterlimit: 2; opacity: 1;"><g class="fills"/><g class="errorbars"/><g class="lines"><path class="js-line" d="M0,248.77L4.83,217.54L9.66,235.89L14.5,174.51L19.33,161.81L24.16,160.96L28.99,155.8L33.83,60.45L38.66,56.56L43.49,58.33L48.32,51.28L53.15,127.24L57.99,154.1L62.82,154.1L67.65,155.8L72.48,127.84L77.32,95.39L82.15,63.19L86.98,113.87L91.81,73.58L96.64,94.3L101.48,78.38L106.31,56.93L111.14,76.86L115.97,79.47L120.81,98.92L125.64,90.47L130.47,59.12L135.3,43.62L140.13,52.19L144.97,33.17L149.8,57.96L154.63,57.35L159.46,49.15L164.3,49.76L169.13,54.38L173.96,50.06L178.79,55.47L183.62,50.24L188.46,33.96L193.29,71.7L198.12,67.93L202.95,72.3L207.79,49.76L212.62,43.8L217.45,36.94L222.28,50.12L227.11,33.84L231.95,30.8L241.61,36.88L246.44,27.64L251.28,26.79L256.11,29.77L260.94,32.26L265.77,32.26L270.6,33.11L275.44,37.97L280.27,38.33L285.1,29.58L289.93,53.83L294.77,40.52L299.6,52.13L304.43,46.9L309.26,48.97L314.09,36.69L318.93,33.47L323.76,31.83L328.59,32.32L333.42,37.67L338.26,38.27L343.09,41.98L347.92,41.13L352.75,41.37L357.58,46.72L362.42,44.78L367.25,41.13L372.08,65.8L376.91,38.82L381.74,41.31L386.58,27.76L391.41,27.52L396.24,26.3L401.07,36.57L405.91,39.49L410.74,24.48L415.57,37.73L420.4,69.02L425.23,27.03L430.07,33.41L434.9,32.8L439.73,33.65L444.56,35.3L449.4,29.22L454.23,26.61L459.06,30.07L463.89,26L468.72,26.85L473.56,29.83L478.39,26.24L488.05,23.93L492.89,27.58L497.72,50.37L502.55,50.61L507.38,52.49L512.21,30.07L517.05,26.3L521.88,23.51L526.71,29.95L531.54,26.61L536.38,23.02L541.21,23.26L546.04,23.87L550.87,27.94L560.54,32.62L565.37,33.05L570.2,31.77L575.03,27.58L584.7,30.19L589.53,29.95L594.36,31.77L599.19,29.22L604.03,29.22L608.86,24.24L613.69,24.72L618.52,23.93L623.36,27.46L628.19,23.51L642.68,26.18L647.52,31.53L652.35,31.53L657.18,43.8L666.85,45.69L671.68,45.02L686.17,44.59L691.01,45.44L695.84,42.95L700.67,45.44L710.34,41.49L715.17,42.95L720,40.46" style="vector-effect: none; fill: none; stroke: rgb(128, 0, 128); stroke-opacity: 1; stroke-width: 2px; opacity: 1;"/></g><g class="points"/><g class="text"/></g><g class="trace scatter tracefcf932" style="stroke-miterlimit: 2; opacity: 1;"><g class="fills"/><g class="errorbars"/><g class="lines"><path class="js-line" d="M0,248.77L4.83,232.18L9.66,240.99L14.5,205.57L19.33,200.04L24.16,200.04L28.99,196.15L33.83,121.46L38.66,115.45L43.49,113.69L48.32,92.78L53.15,190.62L57.99,196.15L67.65,196.15L72.48,175.06L77.32,154.58L82.15,130.21L86.98,177.31L91.81,135.14L96.64,156.22L101.48,139.03L106.31,113.99L111.14,139.03L115.97,139.03L120.81,156.22L125.64,154.58L130.47,110.1L135.3,106.88L140.13,110.77L144.97,94.85L149.8,104.57L154.63,108.46L159.46,117.57L164.3,119.82L169.13,120.8L173.96,114.66L178.79,112.35L183.62,118.55L188.46,82.15L193.29,116.06L198.12,102.44L202.95,106.94L207.79,89.8L212.62,80.08L217.45,100.01L222.28,95.64L227.11,95.46L236.78,81.11L241.61,78.5L246.44,104.87L251.28,100.99L256.11,89.32L260.94,102.63L265.77,100.32L270.6,101.96L275.44,111.38L280.27,115.93L285.1,96.43L289.93,112.35L294.77,115.93L299.6,108.46L304.43,109.13L309.26,111.38L314.09,100.99L318.93,95.46L323.76,82.75L328.59,95.46L333.42,86.89L338.26,86.89L343.09,85.31L347.92,85.31L352.75,93.09L357.58,85.91L362.42,88.83L367.25,85.31L372.08,100.8L376.91,80.75L381.74,84.64L386.58,90.9L391.41,93.21L396.24,89.32L401.07,81.42L405.91,81.42L410.74,79.9L415.57,84.94L420.4,103.05L425.23,85.43L430.07,77.83L434.9,79.47L439.73,79.47L444.56,71.7L449.4,74.37L454.23,80.51L459.06,108.16L463.89,86.7L468.72,78.87L473.56,74.98L483.22,82.75L488.05,78.87L492.89,75.58L497.72,87.19L502.55,87.19L507.38,89.44L512.21,73.34L517.05,89.32L521.88,85.43L526.71,72.3L531.54,94.18L536.38,91.57L546.04,95.46L550.87,77.23L555.7,83.36L560.54,81.11L565.37,81.11L570.2,72.67L575.03,66.53L579.87,74.31L584.7,66.53L589.53,78.81L604.03,72.67L608.86,93.81L613.69,93.81L618.52,80.51L623.36,82.75L628.19,97.7L633.02,89.93L637.85,89.93L642.68,89.93L647.52,83.36L652.35,81.11L657.18,93.39L662.01,93.39L666.85,91.08L671.68,91.08L676.51,86.58L681.34,93.39L686.17,91.08L691.01,93.39L695.84,88.83L720,88.83" style="vector-effect: none; fill: none; stroke: rgb(255, 192, 203); stroke-opacity: 1; stroke-width: 2px; opacity: 1;"/></g><g class="points"/><g class="text"/></g><g class="trace scatter trace2550ba" style="stroke-miterlimit: 2; opacity: 1;"><g class="fills"/><g class="errorbars"/><g class="lines"><path class="js-line" d="M0,329.41L4.83,263.05L9.66,302.19L14.5,191.41L19.33,172.51L24.16,171.35L28.99,164.37L33.83,55.59L38.66,64.16L43.49,53.34L48.32,54.44L53.15,127.72L57.99,162.06L62.82,162.06L67.65,164.37L82.15,57.66L86.98,111.74L91.81,67.87L96.64,89.62L101.48,72.73L106.31,51.52L111.14,71.09L115.97,73.82L120.81,94.73L125.64,85.49L130.47,53.53L135.3,39.67L140.13,47.08L144.97,30.92L149.8,52.8L154.63,52.07L159.46,44.35L164.3,45.02L169.13,49.03L173.96,44.84L178.79,50L183.62,45.26L188.46,33.23L193.29,86.1L198.12,80.32L202.95,86.83L207.79,57.6L212.62,50.61L217.45,36.21L222.28,60.27L227.11,32.68L231.95,30.19L236.78,38.7L241.61,43.44L246.44,25.57L251.28,24.78L256.11,28.85L260.94,29.16L265.77,29.16L270.6,29.95L275.44,33.72L280.27,34.32L285.1,27.21L289.93,48L294.77,36.15L299.6,46.36L304.43,41.62L309.26,43.86L314.09,33.65L318.93,32.01L323.76,32.62L328.59,31.16L333.42,44.78L338.26,45.44L343.09,49.7L347.92,48.97L352.75,49.03L357.58,55.35L362.42,53.89L367.25,48.97L372.08,80.32L376.91,44.96L381.74,47.75L386.58,26.18L391.41,26.06L396.24,24.66L401.07,43.99L405.91,46.9L410.74,23.63L415.57,46.05L420.4,84.76L425.23,25.94L430.07,39.25L434.9,38.52L439.73,39.25L444.56,41.31L449.4,29.22L454.23,25.82L459.06,27.4L463.89,26.18L468.72,26.97L473.56,29.89L478.39,26.24L483.22,24.78L488.05,23.99L492.89,32.8L497.72,61.61L502.55,61.61L507.38,63.8L512.21,35.66L517.05,24.66L521.88,22.23L526.71,36.27L531.54,24.24L536.38,22.11L541.21,22.17L546.04,22.9L550.87,33.47L560.54,37.91L565.37,38.58L570.2,37.12L575.03,32.8L584.7,35.05L589.53,35.05L594.36,37.12L599.19,34.93L604.03,34.93L608.86,23.57L618.52,23.99L623.36,27.64L628.19,22.23L633.02,23.63L637.85,25.09L642.68,25.15L647.52,37.12L652.35,37.12L657.18,53.77L662.01,54.5L666.85,55.9L671.68,55.23L691.01,55.9L695.84,53.04L700.67,55.9L705.5,53.77L710.34,51.58L715.17,53.04L720,50.18" style="vector-effect: none; fill: none; stroke: rgb(165, 42, 42); stroke-opacity: 1; stroke-width: 2px; opacity: 1;"/></g><g class="points"/><g class="text"/></g><g class="trace scatter trace521639" style="stroke-miterlimit: 2; opacity: 1;"><g class="fills"/><g class="errorbars"/><g class="lines"><path class="js-line" d="M0,317.26L4.83,274.48L9.66,300.73L14.5,225.19L19.33,215.29L24.16,215.29L28.99,209.52L33.83,115.99L38.66,128.51L43.49,108.16L48.32,101.65L53.15,200.4L57.99,209.52L67.65,209.52L72.48,178.95L82.15,124.38L86.98,181.32L91.81,129.36L96.64,154.1L101.48,133.74L106.31,106.7L111.14,133.74L115.97,133.74L120.81,154.1L125.64,151.85L130.47,102.69L135.3,100.13L140.13,104.08L144.97,90.96L149.8,97.46L154.63,101.35L159.46,112.04L164.3,114.66L169.13,114.72L173.96,108.03L178.79,105.36L183.62,112.04L188.46,81.24L193.29,142.85L198.12,126.02L202.95,131.61L207.79,107.18L212.62,93.94L217.45,98.07L222.28,117.7L227.11,92.72L231.95,85.55L236.78,92.05L241.61,93.51L246.44,100.99L251.28,97.28L256.11,86.4L260.94,98.31L265.77,95.64L270.6,96.67L275.44,105.48L280.27,110.77L285.1,91.93L289.93,105.36L294.77,110.77L299.6,101.35L304.43,102.81L309.26,105.48L314.09,97.28L318.93,92.72L323.76,83.24L328.59,92.72L333.42,102.08L338.26,102.08L347.92,101.71L352.75,107.91L357.58,104.14L362.42,109.37L367.25,101.71L372.08,125.84L376.91,96.25L381.74,99.34L386.58,87.31L391.41,89.99L396.24,86.4L401.07,98.68L405.91,98.68L410.74,78.56L415.57,106.39L420.4,128.63L425.23,82.88L430.07,91.2L439.73,91.57L444.56,85.31L449.4,74.37L454.23,80.51L459.06,103.11L463.89,86.7L468.72,79.78L473.56,76.44L483.22,83.24L488.05,79.78L492.89,88.47L497.72,109.13L502.55,109.13L507.38,111.92L512.21,85.73L517.05,86.4L521.88,82.88L526.71,87.68L531.54,89.2L536.38,89.14L541.21,91.81L546.04,92.72L550.87,88.89L555.7,94.73L560.54,92.05L565.37,92.05L570.2,83.42L575.03,77.53L579.87,83.91L584.7,77.53L589.53,89.32L594.36,86.58L599.19,86.16L604.03,83.42L608.86,91.81L613.69,91.81L618.52,80.51L623.36,83.24L628.19,95.39L633.02,88.28L642.68,88.28L647.52,94.73L652.35,92.05L657.18,114.9L662.01,114.9L666.85,112.17L671.68,112.17L676.51,106.64L681.34,114.9L686.17,112.17L691.01,114.9L695.84,109.37L720,109.37" style="vector-effect: none; fill: none; stroke: rgb(128, 128, 128); stroke-opacity: 1; stroke-width: 2px; opacity: 1;"/></g><g class="points"/><g class="text"/></g></g></g><g class="overplot"/><path class="xlines-above crisp" d="M0,0" style="fill: none;"/><path class="ylines-above crisp" d="M0,0" style="fill: none;"/><g class="overlines-above"/><g class="xaxislayer-above"><g class="xtick"><text text-anchor="middle" x="0" y="509" transform="translate(241.81,0)" style="font-family: 'Open Sans', verdana, arial, sans-serif; font-size: 12px; fill: rgb(42, 63, 95); fill-opacity: 1; white-space: pre; opacity: 1;">20</text></g><g class="xtick"><text text-anchor="middle" x="0" y="509" style="font-family: 'Open Sans', verdana, arial, sans-serif; font-size: 12px; fill: rgb(42, 63, 95); fill-opacity: 1; white-space: pre; opacity: 1;" transform="translate(338.46000000000004,0)">40</text></g><g class="xtick"><text text-anchor="middle" x="0" y="509" style="font-family: 'Open Sans', verdana, arial, sans-serif; font-size: 12px; fill: rgb(42, 63, 95); fill-opacity: 1; white-space: pre; opacity: 1;" transform="translate(435.1,0)">60</text></g><g class="xtick"><text text-anchor="middle" x="0" y="509" style="font-family: 'Open Sans', verdana, arial, sans-serif; font-size: 12px; fill: rgb(42, 63, 95); fill-opacity: 1; white-space: pre; opacity: 1;" transform="translate(531.74,0)">80</text></g><g class="xtick"><text text-anchor="middle" x="0" y="509" style="font-family: 'Open Sans', verdana, arial, sans-serif; font-size: 12px; fill: rgb(42, 63, 95); fill-opacity: 1; white-space: pre; opacity: 1;" transform="translate(628.39,0)">100</text></g><g class="xtick"><text text-anchor="middle" x="0" y="509" style="font-family: 'Open Sans', verdana, arial, sans-serif; font-size: 12px; fill: rgb(42, 63, 95); fill-opacity: 1; white-space: pre; opacity: 1;" transform="translate(725.03,0)">120</text></g><g class="xtick"><text text-anchor="middle" x="0" y="509" style="font-family: 'Open Sans', verdana, arial, sans-serif; font-size: 12px; fill: rgb(42, 63, 95); fill-opacity: 1; white-space: pre; opacity: 1;" transform="translate(821.68,0)">140</text></g></g><g class="yaxislayer-above"><g class="ytick"><text text-anchor="end" x="149" y="4.199999999999999" transform="translate(0,470.31)" style="font-family: 'Open Sans', verdana, arial, sans-serif; font-size: 12px; fill: rgb(42, 63, 95); fill-opacity: 1; white-space: pre; opacity: 1;">30</text></g><g class="ytick"><text text-anchor="end" x="149" y="4.199999999999999" style="font-family: 'Open Sans', verdana, arial, sans-serif; font-size: 12px; fill: rgb(42, 63, 95); fill-opacity: 1; white-space: pre; opacity: 1;" transform="translate(0,409.54)">40</text></g><g class="ytick"><text text-anchor="end" x="149" y="4.199999999999999" style="font-family: 'Open Sans', verdana, arial, sans-serif; font-size: 12px; fill: rgb(42, 63, 95); fill-opacity: 1; white-space: pre; opacity: 1;" transform="translate(0,348.77)">50</text></g><g class="ytick"><text text-anchor="end" x="149" y="4.199999999999999" style="font-family: 'Open Sans', verdana, arial, sans-serif; font-size: 12px; fill: rgb(42, 63, 95); fill-opacity: 1; white-space: pre; opacity: 1;" transform="translate(0,288)">60</text></g><g class="ytick"><text text-anchor="end" x="149" y="4.199999999999999" style="font-family: 'Open Sans', verdana, arial, sans-serif; font-size: 12px; fill: rgb(42, 63, 95); fill-opacity: 1; white-space: pre; opacity: 1;" transform="translate(0,227.24)">70</text></g><g class="ytick"><text text-anchor="end" x="149" y="4.199999999999999" style="font-family: 'Open Sans', verdana, arial, sans-serif; font-size: 12px; fill: rgb(42, 63, 95); fill-opacity: 1; white-space: pre; opacity: 1;" transform="translate(0,166.47)">80</text></g><g class="ytick"><text text-anchor="end" x="149" y="4.199999999999999" style="font-family: 'Open Sans', verdana, arial, sans-serif; font-size: 12px; fill: rgb(42, 63, 95); fill-opacity: 1; white-space: pre; opacity: 1;" transform="translate(0,105.7)">90</text></g></g><g class="overaxes-above"/></g></g><g class="polarlayer"/><g class="smithlayer"/><g class="ternarylayer"/><g class="geolayer"/><g class="funnelarealayer"/><g class="pielayer"/><g class="iciclelayer"/><g class="treemaplayer"/><g class="sunburstlayer"/><g class="glimages"/><defs id="topdefs-d3d733"><g class="clips"/><clipPath id="legendd3d733"><rect width="128" height="162" x="0" y="0"/></clipPath></defs><g class="layer-above"><g class="imagelayer"/><g class="shapelayer"/></g><g class="infolayer"><g class="legend" pointer-events="all" transform="translate(884.4,100)"><rect class="bg" shape-rendering="crispEdges" width="128" height="162" x="0" y="0" style="stroke: rgb(68, 68, 68); stroke-opacity: 1; fill: rgb(255, 255, 255); fill-opacity: 1; stroke-width: 0px;"/><g class="scrollbox" transform="" clip-path="url(#legendd3d733)"><g class="groups"><g class="traces" transform="translate(0,14.5)" style="opacity: 1;"><text class="legendtext" text-anchor="start" x="40" y="4.680000000000001" style="font-family: 'Open Sans', verdana, arial, sans-serif; font-size: 12px; fill: rgb(42, 63, 95); fill-opacity: 1; white-space: pre;">Train Accuracy</text><g class="layers" style="opacity: 1;"><g class="legendfill"/><g class="legendlines"><path class="js-line" d="M5,0h30" style="fill: none; stroke: rgb(255, 0, 0); stroke-opacity: 1; stroke-width: 2px;"/></g><g class="legendsymbols"><g class="legendpoints"/></g></g><rect class="legendtoggle" x="0" y="-9.5" width="122.71875" height="19" style="fill: rgb(0, 0, 0); fill-opacity: 0;"/></g><g class="traces" transform="translate(0,33.5)" style="opacity: 1;"><text class="legendtext" text-anchor="start" x="40" y="4.680000000000001" style="font-family: 'Open Sans', verdana, arial, sans-serif; font-size: 12px; fill: rgb(42, 63, 95); fill-opacity: 1; white-space: pre;">Test Accuracy</text><g class="layers" style="opacity: 1;"><g class="legendfill"/><g class="legendlines"><path class="js-line" d="M5,0h30" style="fill: none; stroke: rgb(0, 0, 255); stroke-opacity: 1; stroke-width: 2px;"/></g><g class="legendsymbols"><g class="legendpoints"/></g></g><rect class="legendtoggle" x="0" y="-9.5" width="122.71875" height="19" style="fill: rgb(0, 0, 0); fill-opacity: 0;"/></g><g class="traces" transform="translate(0,52.5)" style="opacity: 1;"><text class="legendtext" text-anchor="start" x="40" y="4.680000000000001" style="font-family: 'Open Sans', verdana, arial, sans-serif; font-size: 12px; fill: rgb(42, 63, 95); fill-opacity: 1; white-space: pre;">Train Precision</text><g class="layers" style="opacity: 1;"><g class="legendfill"/><g class="legendlines"><path class="js-line" d="M5,0h30" style="fill: none; stroke: rgb(0, 128, 0); stroke-opacity: 1; stroke-width: 2px;"/></g><g class="legendsymbols"><g class="legendpoints"/></g></g><rect class="legendtoggle" x="0" y="-9.5" width="122.71875" height="19" style="fill: rgb(0, 0, 0); fill-opacity: 0;"/></g><g class="traces" transform="translate(0,71.5)" style="opacity: 1;"><text class="legendtext" text-anchor="start" x="40" y="4.680000000000001" style="font-family: 'Open Sans', verdana, arial, sans-serif; font-size: 12px; fill: rgb(42, 63, 95); fill-opacity: 1; white-space: pre;">Test Precision</text><g class="layers" style="opacity: 1;"><g class="legendfill"/><g class="legendlines"><path class="js-line" d="M5,0h30" style="fill: none; stroke: rgb(255, 165, 0); stroke-opacity: 1; stroke-width: 2px;"/></g><g class="legendsymbols"><g class="legendpoints"/></g></g><rect class="legendtoggle" x="0" y="-9.5" width="122.71875" height="19" style="fill: rgb(0, 0, 0); fill-opacity: 0;"/></g><g class="traces" transform="translate(0,90.5)" style="opacity: 1;"><text class="legendtext" text-anchor="start" x="40" y="4.680000000000001" style="font-family: 'Open Sans', verdana, arial, sans-serif; font-size: 12px; fill: rgb(42, 63, 95); fill-opacity: 1; white-space: pre;">Train Recall</text><g class="layers" style="opacity: 1;"><g class="legendfill"/><g class="legendlines"><path class="js-line" d="M5,0h30" style="fill: none; stroke: rgb(128, 0, 128); stroke-opacity: 1; stroke-width: 2px;"/></g><g class="legendsymbols"><g class="legendpoints"/></g></g><rect class="legendtoggle" x="0" y="-9.5" width="122.71875" height="19" style="fill: rgb(0, 0, 0); fill-opacity: 0;"/></g><g class="traces" transform="translate(0,109.5)" style="opacity: 1;"><text class="legendtext" text-anchor="start" x="40" y="4.680000000000001" style="font-family: 'Open Sans', verdana, arial, sans-serif; font-size: 12px; fill: rgb(42, 63, 95); fill-opacity: 1; white-space: pre;">Test Recall</text><g class="layers" style="opacity: 1;"><g class="legendfill"/><g class="legendlines"><path class="js-line" d="M5,0h30" style="fill: none; stroke: rgb(255, 192, 203); stroke-opacity: 1; stroke-width: 2px;"/></g><g class="legendsymbols"><g class="legendpoints"/></g></g><rect class="legendtoggle" x="0" y="-9.5" width="122.71875" height="19" style="fill: rgb(0, 0, 0); fill-opacity: 0;"/></g><g class="traces" transform="translate(0,128.5)" style="opacity: 1;"><text class="legendtext" text-anchor="start" x="40" y="4.680000000000001" style="font-family: 'Open Sans', verdana, arial, sans-serif; font-size: 12px; fill: rgb(42, 63, 95); fill-opacity: 1; white-space: pre;">Train F1</text><g class="layers" style="opacity: 1;"><g class="legendfill"/><g class="legendlines"><path class="js-line" d="M5,0h30" style="fill: none; stroke: rgb(165, 42, 42); stroke-opacity: 1; stroke-width: 2px;"/></g><g class="legendsymbols"><g class="legendpoints"/></g></g><rect class="legendtoggle" x="0" y="-9.5" width="122.71875" height="19" style="fill: rgb(0, 0, 0); fill-opacity: 0;"/></g><g class="traces" transform="translate(0,147.5)" style="opacity: 1;"><text class="legendtext" text-anchor="start" x="40" y="4.680000000000001" style="font-family: 'Open Sans', verdana, arial, sans-serif; font-size: 12px; fill: rgb(42, 63, 95); fill-opacity: 1; white-space: pre;">Test F1</text><g class="layers" style="opacity: 1;"><g class="legendfill"/><g class="legendlines"><path class="js-line" d="M5,0h30" style="fill: none; stroke: rgb(128, 128, 128); stroke-opacity: 1; stroke-width: 2px;"/></g><g class="legendsymbols"><g class="legendpoints"/></g></g><rect class="legendtoggle" x="0" y="-9.5" width="122.71875" height="19" style="fill: rgb(0, 0, 0); fill-opacity: 0;"/></g></g></g><rect class="scrollbar" rx="20" ry="3" width="0" height="0" x="0" y="0" style="fill: rgb(128, 139, 164); fill-opacity: 1;"/></g><g class="g-gtitle"><text class="gtitle" x="51.2" y="50" text-anchor="start" dy="0em" style="font-family: 'Open Sans', verdana, arial, sans-serif; font-size: 17px; fill: rgb(42, 63, 95); opacity: 1; font-weight: normal; white-space: pre;">Training Metrics - logs/FakeNewsNet-politifact_max-vocab=15000_pre=v2_text_T=250_s=15.log</text></g><g class="g-xtitle"><text class="xtitle" x="510" y="537.3" text-anchor="middle" style="font-family: 'Open Sans', verdana, arial, sans-serif; font-size: 14px; fill: rgb(42, 63, 95); opacity: 1; font-weight: normal; white-space: pre;">Epoch</text></g><g class="g-ytitle"><text class="ytitle" transform="rotate(-90,110.965625,298)" x="110.965625" y="298" text-anchor="middle" style="font-family: 'Open Sans', verdana, arial, sans-serif; font-size: 14px; fill: rgb(42, 63, 95); opacity: 1; font-weight: normal; white-space: pre;">Metric Score</text></g></g><g class="menulayer"><g class="updatemenu-container" style="cursor: pointer;"><g class="updatemenu-header-group" transform="translate(12,60)"><g class="updatemenu-header" transform="translate(1,1)" style="pointer-events: all;"><rect class="updatemenu-item-rect" rx="2" ry="2" shape-rendering="crispEdges" x="0" y="0" width="174" height="33" style="stroke: rgb(190, 200, 217); stroke-opacity: 1; fill: rgb(255, 255, 255); fill-opacity: 1; stroke-width: 1px;"/><text class="updatemenu-item-text" text-anchor="start" data-notex="1" x="12" y="19.5" style="font-family: 'Open Sans', verdana, arial, sans-serif; font-size: 12px; fill: rgb(42, 63, 95); fill-opacity: 1; white-space: pre;">All</text></g><text class="updatemenu-header-arrow" text-anchor="end" x="170" y="19.5" style="font-family: 'Open Sans', verdana, arial, sans-serif; font-size: 12px; fill: rgb(42, 63, 95); fill-opacity: 1;">▼</text></g><g class="updatemenu-dropdown-button-group" updatemenu-active-index="-1" style="pointer-events: all;"><rect class="scrollbox-bg" opacity="0" x="0" y="0" width="0" height="0" style="pointer-events: all;"/></g></g></g></svg>