<svg class="main-svg" xmlns="http://www.w3.org/2000/svg" xmlns:xlink="http://www.w3.org/1999/xlink" width="1024" height="576" style="" viewBox="0 0 1024 576"><rect x="0" y="0" width="1024" height="576" style="fill: rgb(255, 255, 255); fill-opacity: 1;"/><defs id="defs-f7eb5d"><g class="clips"><clipPath id="clipf7eb5dxyplot" class="plotclip"><rect width="726" height="396"/></clipPath><clipPath class="axesclip" id="clipf7eb5dx"><rect x="143" y="0" width="726" height="576"/></clipPath><clipPath class="axesclip" id="clipf7eb5dy"><rect x="0" y="100" width="1024" height="396"/></clipPath><clipPath class="axesclip" id="clipf7eb5dxy"><rect x="143" y="100" width="726" height="396"/></clipPath></g><g class="gradients"/><g class="patterns"/></defs><g class="bglayer"><rect class="bg" x="143" y="100" width="726" height="396" style="fill: rgb(229, 236, 246); fill-opacity: 1; stroke-width: 0;"/></g><g class="layer-below"><g class="imagelayer"/><g class="shapelayer"/></g><g class="cartesianlayer"><g class="subplot xy"><g class="layer-subplot"><g class="shapelayer"/><g class="imagelayer"/></g><g class="minor-gridlayer"><g class="x"/><g class="y"/></g><g class="gridlayer"><g class="x"><path class="xgrid crisp" transform="translate(235.57999999999998,0)" d="M0,100v396" style="stroke: rgb(255, 255, 255); stroke-opacity: 1; stroke-width: 1px;"/><path class="xgrid crisp" transform="translate(333.03,0)" d="M0,100v396" style="stroke: rgb(255, 255, 255); stroke-opacity: 1; stroke-width: 1px;"/><path class="xgrid crisp" transform="translate(430.48,0)" d="M0,100v396" style="stroke: rgb(255, 255, 255); stroke-opacity: 1; stroke-width: 1px;"/><path class="xgrid crisp" transform="translate(527.9300000000001,0)" d="M0,100v396" style="stroke: rgb(255, 255, 255); stroke-opacity: 1; stroke-width: 1px;"/><path class="xgrid crisp" transform="translate(625.38,0)" d="M0,100v396" style="stroke: rgb(255, 255, 255); stroke-opacity: 1; stroke-width: 1px;"/><path class="xgrid crisp" transform="translate(722.83,0)" d="M0,100v396" style="stroke: rgb(255, 255, 255); stroke-opacity: 1; stroke-width: 1px;"/><path class="xgrid crisp" transform="translate(820.28,0)" d="M0,100v396" style="stroke: rgb(255, 255, 255); stroke-opacity: 1; stroke-width: 1px;"/></g><g class="y"><path class="ygrid crisp" transform="translate(0,450.56)" d="M143,0h726" style="stroke: rgb(255, 255, 255); stroke-opacity: 1; stroke-width: 1px;"/><path class="ygrid crisp" transform="translate(0,398.24)" d="M143,0h726" style="stroke: rgb(255, 255, 255); stroke-opacity: 1; stroke-width: 1px;"/><path class="ygrid crisp" transform="translate(0,345.91999999999996)" d="M143,0h726" style="stroke: rgb(255, 255, 255); stroke-opacity: 1; stroke-width: 1px;"/><path class="ygrid crisp" transform="translate(0,293.61)" d="M143,0h726" style="stroke: rgb(255, 255, 255); stroke-opacity: 1; stroke-width: 1px;"/><path class="ygrid crisp" transform="translate(0,241.29)" d="M143,0h726" style="stroke: rgb(255, 255, 255); stroke-opacity: 1; stroke-width: 1px;"/><path class="ygrid crisp" transform="translate(0,188.97)" d="M143,0h726" style="stroke: rgb(255, 255, 255); stroke-opacity: 1; stroke-width: 1px;"/><path class="ygrid crisp" transform="translate(0,136.65)" d="M143,0h726" style="stroke: rgb(255, 255, 255); stroke-opacity: 1; stroke-width: 1px;"/></g></g><g class="zerolinelayer"/><path class="xlines-below"/><path class="ylines-below"/><g class="overlines-below"/><g class="xaxislayer-below"/><g class="yaxislayer-below"/><g class="overaxes-below"/><g class="plot" transform="translate(143,100)" clip-path="url(#clipf7eb5dxyplot)"><g class="scatterlayer mlayer"><g class="trace scatter traceb1a515" style="stroke-miterlimit: 2; opacity: 1;"><g class="fills"/><g class="errorbars"/><g class="lines"><path class="js-line" d="M0,216.94L4.87,202.08L9.74,198.31L19.49,195.8L24.36,197.06L29.23,189.63L34.11,162.32L38.98,154.89L43.85,167.34L48.72,148.72L53.6,157.4L58.47,109.06L63.34,109.06L68.21,81.75L73.09,71.81L77.96,121.4L82.83,135.11L87.7,152.48L92.58,109.06L97.45,173.51L102.32,53.28L107.19,54.54L112.07,94.2L116.94,39.58L121.81,29.74L126.68,37.17L131.56,30.89L136.43,29.74L141.3,32.15L146.17,28.49L151.05,32.15L155.92,29.74L160.79,24.72L165.66,35.91L170.54,32.15L175.41,19.8L180.28,19.8L185.15,30.89L190.03,25.97L194.9,111.57L199.77,123.92L204.64,130.09L209.52,125.17L214.39,120.25L219.26,37.17L224.13,42.09L229.01,117.74L233.88,197.06L238.75,193.4L243.62,169.85L248.5,117.74L253.37,127.68L258.24,120.25L263.11,122.66L267.99,109.06L277.73,101.63L282.6,64.38L287.48,56.95L292.35,64.38L297.22,60.71L302.09,58.2L306.97,58.2L311.84,53.28L316.71,143.8L321.58,53.28L326.46,55.69L331.33,53.28L336.2,61.97L341.07,64.38L345.95,71.81L350.82,66.89L355.69,70.65L360.56,59.46L365.44,59.46L370.31,69.4L375.18,71.81L380.05,63.23L384.93,69.4L389.8,64.38L394.67,65.63L399.54,50.77L404.42,50.77L409.29,53.28L414.16,53.28L419.03,48.26L423.91,54.54L428.78,56.95L433.65,55.69L438.52,48.26L443.4,50.77L448.27,48.26L453.14,49.52L458.01,61.97L462.89,63.23L467.76,50.77L477.5,50.77L482.38,45.86L487.25,52.03L492.12,42.09L496.99,45.86L501.87,48.26L511.61,45.86L516.48,47.11L521.36,88.02L526.23,97.86L531.1,86.77L535.97,88.02L540.85,89.18L545.72,92.94L550.59,90.43L555.46,84.26L560.34,56.95L565.21,49.52L570.08,59.46L574.95,60.71L579.83,56.95L584.7,70.65L589.57,50.77L594.44,55.69L599.32,58.2L604.19,74.32L609.06,70.65L613.93,53.28L618.81,52.03L623.68,52.03L628.55,54.54L633.42,65.63L643.17,49.52L648.04,49.52L652.91,52.03L657.79,50.77L662.66,53.28L667.53,49.52L672.4,47.11L677.28,64.38L682.15,59.46L687.02,59.46L691.89,50.77L696.77,53.28L701.64,49.52L706.51,50.77L711.38,45.86L716.26,45.86L721.13,47.11L726,43.34" style="vector-effect: none; fill: none; stroke: rgb(255, 0, 0); stroke-opacity: 1; stroke-width: 2px; opacity: 1;"/></g><g class="points"/><g class="text"/></g><g class="trace scatter trace2cbc4e" style="stroke-miterlimit: 2; opacity: 1;"><g class="fills"/><g class="errorbars"/><g class="lines"><path class="js-line" d="M0,230.12L4.87,215.37L9.74,215.37L29.23,215.37L34.11,200.51L38.98,180.73L43.85,210.35L48.72,200.51L53.6,205.43L58.47,151.12L63.34,156.14L68.21,131.45L73.09,151.12L77.96,180.73L82.83,185.76L87.7,220.29L92.58,210.35L97.45,249.9L102.32,111.67L107.19,96.81L112.07,180.73L116.94,116.59L121.81,116.59L126.68,111.67L131.56,96.81L141.3,106.75L146.17,101.84L151.05,86.98L155.92,101.84L160.79,91.9L165.66,101.84L170.54,106.75L175.41,121.51L180.28,106.75L185.15,101.84L190.03,101.84L194.9,205.43L199.77,200.51L204.64,210.35L209.52,225.21L214.39,215.37L219.26,101.84L224.13,121.51L233.88,264.65L238.75,269.57L243.62,239.96L248.5,190.68L253.37,210.35L258.24,215.37L263.11,225.21L267.99,200.51L277.73,200.51L282.6,151.12L297.22,151.12L302.09,146.2L306.97,131.45L311.84,146.2L316.71,235.04L321.58,146.2L336.2,146.2L341.07,156.14L345.95,161.06L350.82,156.14L355.69,151.12L360.56,116.59L370.31,156.14L375.18,165.98L384.93,156.14L389.8,156.14L394.67,151.12L399.54,126.43L404.42,126.43L409.29,121.51L414.16,121.51L419.03,116.59L423.91,116.59L428.78,101.84L433.65,121.51L438.52,136.37L443.4,141.29L448.27,131.45L453.14,131.45L458.01,156.14L462.89,161.06L467.76,131.45L472.63,121.51L477.5,131.45L482.38,121.51L487.25,121.51L492.12,116.59L496.99,116.59L501.87,121.51L506.74,121.51L511.61,111.67L516.48,121.51L521.36,170.9L526.23,200.51L531.1,170.9L535.97,175.82L545.72,175.82L550.59,180.73L555.46,175.82L560.34,146.2L565.21,141.29L570.08,141.29L574.95,141.29L579.83,136.37L584.7,161.06L589.57,136.37L594.44,141.29L599.32,141.29L604.19,151.12L609.06,156.14L613.93,141.29L618.81,136.37L628.55,136.37L633.42,156.14L638.3,116.59L643.17,136.37L648.04,131.45L652.91,136.37L657.79,136.37L662.66,131.45L667.53,131.45L672.4,126.43L677.28,151.12L682.15,146.2L687.02,146.2L691.89,121.51L696.77,131.45L701.64,121.51L706.51,126.43L711.38,136.37L716.26,141.29L721.13,141.29L726,151.12" style="vector-effect: none; fill: none; stroke: rgb(0, 0, 255); stroke-opacity: 1; stroke-width: 2px; opacity: 1;"/></g><g class="points"/><g class="text"/></g><g class="trace scatter traceb3b809" style="stroke-miterlimit: 2; opacity: 1;"><g class="fills"/><g class="errorbars"/><g class="lines"><path class="js-line" d="M0,130.19L4.87,120.99L9.74,115.13L19.49,107.07L24.36,111.15L29.23,108.64L34.11,92L38.98,89.28L43.85,116.9L48.72,107.49L53.6,112.61L58.47,74.74L63.34,84.89L68.21,58.41L73.09,60.4L77.96,92.84L82.83,100.27L87.7,108.12L92.58,88.65L97.45,111.46L102.32,53.18L107.19,55.48L112.07,80.8L116.94,41.36L121.81,28.9L126.68,35.81L131.56,33.09L136.43,31.94L141.3,33.93L146.17,29.85L151.05,34.24L155.92,34.14L160.79,27.86L165.66,38.53L170.54,34.55L175.41,20.95L180.28,22.73L185.15,35.18L190.03,30.05L194.9,82.58L199.77,89.07L204.64,92.73L209.52,90.95L214.39,83.42L219.26,41.88L224.13,47.11L229.01,85.3L233.88,113.03L238.75,111.36L243.62,104.98L248.5,85.3L253.37,90.12L258.24,86.77L263.11,86.04L267.99,78.92L272.86,74.53L277.73,71.18L282.6,59.35L287.48,54.54L292.35,60.5L297.22,58.52L302.09,56.95L306.97,56.95L311.84,51.09L316.71,94.2L321.58,51.51L326.46,53.08L331.33,50.04L336.2,59.46L341.07,58.83L345.95,63.85L350.82,60.71L355.69,64.17L360.56,57.99L365.44,56.53L370.31,64.38L375.18,67.41L380.05,59.46L384.93,64.38L389.8,60.5L394.67,62.49L399.54,49.1L404.42,49.52L409.29,52.03L414.16,52.03L419.03,47.42L423.91,53.91L428.78,56.32L433.65,54.96L438.52,47.84L443.4,49.94L448.27,48.26L453.14,49.31L458.01,60.92L462.89,60.5L467.76,51.19L472.63,51.19L477.5,51.92L482.38,47.63L487.25,52.24L492.12,43.76L496.99,47.32L501.87,48.68L511.61,47.32L516.48,48.37L521.36,65.63L526.23,70.97L531.1,65.74L535.97,65.63L540.85,66.47L545.72,69.82L550.59,65.32L555.46,62.28L565.21,48.47L570.08,57.05L574.95,58.93L579.83,55.48L584.7,66.89L589.57,49.1L594.44,54.44L599.32,56.95L604.19,69.29L609.06,66.36L613.93,51.51L618.81,50.04L623.68,50.04L628.55,52.03L633.42,61.45L638.3,55.06L643.17,48.05L648.04,48.89L652.91,50.98L657.79,48.58L662.66,52.03L667.53,48.05L672.4,46.06L677.28,60.5L682.15,57.47L687.02,56.53L691.89,49.1L696.77,51.51L701.64,48.89L706.51,48.58L711.38,44.6L716.26,43.13L721.13,45.12L726,41.56" style="vector-effect: none; fill: none; stroke: rgb(0, 128, 0); stroke-opacity: 1; stroke-width: 2px; opacity: 1;"/></g><g class="points"/><g class="text"/></g><g class="trace scatter traced589d0" style="stroke-miterlimit: 2; opacity: 1;"><g class="fills"/><g class="errorbars"/><g class="lines"><path class="js-line" d="M0,221.13L4.87,193.08L9.74,193.08L29.23,193.08L34.11,170.38L38.98,145.16L43.85,213.17L48.72,203.76L53.6,205.95L58.47,135.32L63.34,158.55L68.21,115.86L73.09,156.56L77.96,152.17L82.83,150.7L87.7,169.96L92.58,182.51L97.45,185.76L102.32,121.4L107.19,104.87L112.07,156.25L116.94,131.24L121.81,131.24L131.56,111.15L136.43,117.11L141.3,121.2L146.17,117.11L151.05,98.91L155.92,118.58L160.79,107.07L165.66,116.17L170.54,121.2L175.41,137.41L180.28,122.14L185.15,118.58L190.03,118.58L194.9,171.11L199.77,163.78L204.64,174.04L209.52,191.62L214.39,176.86L219.26,118.27L224.13,139.4L229.01,165.25L233.88,180.94L238.75,189.94L243.62,174.87L248.5,162.32L253.37,174.04L258.24,176.86L263.11,182.62L267.99,168.18L272.86,168.18L282.6,159.18L287.48,159.18L292.35,154.89L297.22,159.18L302.09,151.12L306.97,137.31L311.84,148.72L316.71,177.91L321.58,148.72L326.46,148.72L331.33,151.12L336.2,151.12L341.07,153.42L345.95,162.32L350.82,156.14L355.69,152.48L360.56,123.5L365.44,141.18L370.31,153.42L375.18,160.43L384.93,153.42L389.8,156.14L394.67,157.09L399.54,135.43L404.42,133.44L409.29,127.47L414.16,129.46L419.03,123.5L423.91,123.5L428.78,111.46L438.52,143.38L443.4,149.34L448.27,139.4L453.14,137.31L458.01,156.14L462.89,162.32L467.76,141.29L472.63,129.46L477.5,137.31L482.38,127.47L487.25,125.28L492.12,125.49L496.99,125.49L501.87,131.35L506.74,133.02L511.61,124.44L516.48,129.46L521.36,150.18L526.23,168.18L531.1,150.18L535.97,153.21L540.85,153.21L545.72,153.21L550.59,160.12L555.46,153.21L560.34,148.72L565.21,147.25L570.08,147.25L574.95,149.34L579.83,143.38L584.7,164.72L589.57,143.38L594.44,149.34L599.32,149.34L604.19,154.89L609.06,158.66L613.93,147.25L618.81,141.18L623.68,143.38L628.55,141.18L633.42,158.66L638.3,121.4L643.17,138.88L648.04,132.71L652.91,138.88L657.79,141.18L662.66,139.4L667.53,139.4L672.4,133.44L677.28,152.48L682.15,148.72L687.02,146.2L691.89,127.47L696.77,137.31L701.64,125.28L706.51,131.35L711.38,136.37L716.26,144.95L721.13,142.54L726,152.48" style="vector-effect: none; fill: none; stroke: rgb(255, 165, 0); stroke-opacity: 1; stroke-width: 2px; opacity: 1;"/></g><g class="points"/><g class="text"/></g><g class="trace scatter trace5e5101" style="stroke-miterlimit: 2; opacity: 1;"><g class="fills"/><g class="errorbars"/><g class="lines"><path class="js-line" d="M0,275.96L4.87,257.85L9.74,253.77L19.49,251.68L24.36,252.73L29.23,243.41L34.11,210.56L38.98,201.24L43.85,212.34L48.72,188.9L53.6,199.67L58.47,142.44L63.34,139.19L68.21,108.74L73.09,92.73L77.96,96.92L82.83,108.22L87.7,122.35L92.58,87.92L97.45,138.04L102.32,64.9L107.19,65.11L112.07,76.3L116.94,48.16L121.81,40.1L126.68,48.47L131.56,38.22L136.43,36.75L141.3,40.1L146.17,36.54L151.05,39.79L155.92,32.25L160.79,30.05L165.66,42.93L170.54,39.37L175.41,27.44L180.28,24.93L185.15,34.55L190.03,29.43L194.9,86.77L199.77,97.02L204.64,102.36L209.52,98.49L214.39,92.52L219.26,39.47L224.13,42.93L229.01,91.69L233.88,155.94L238.75,152.69L243.62,133.65L248.5,91.69L253.37,99.85L258.24,93.78L263.11,95.14L267.99,83.73L277.73,76.1L282.6,51.09L287.48,45.54L292.35,51.92L302.09,47.84L306.97,47.84L311.84,41.88L316.71,112.09L321.58,42.3L326.46,44.08L331.33,41.04L336.2,50.56L341.07,50.67L345.95,56.63L350.82,52.87L355.69,56.42L360.56,48.89L365.44,47.63L370.31,56.21L375.18,59.14L380.05,50.88L384.93,56.21L389.8,51.92L394.67,53.81L399.54,39.79L404.42,40.2L409.29,42.72L414.16,42.72L419.03,38.01L423.91,44.6L428.78,47.11L433.65,45.65L438.52,38.43L443.4,40.62L448.27,38.84L453.14,39.89L458.01,51.82L462.89,51.61L467.76,41.77L472.63,41.77L477.5,42.61L482.38,38.32L487.25,42.82L492.12,34.34L496.99,37.9L501.87,39.26L511.61,37.9L516.48,39.05L521.36,65.63L526.23,73.79L531.1,65L535.97,65.63L540.85,66.68L545.72,70.34L550.59,66.99L555.46,61.97L560.34,46.69L565.21,39.05L570.08,48.05L574.95,49.94L579.83,46.27L584.7,58.52L589.57,39.79L594.44,45.23L599.32,47.84L604.19,61.24L609.06,58.1L613.93,42.3L618.81,40.83L623.68,40.83L628.55,42.93L633.42,52.97L643.17,38.63L648.04,39.47L652.91,41.67L657.79,39.37L662.66,42.72L667.53,38.63L672.4,36.54L677.28,51.92L682.15,48.47L687.02,47.63L691.89,39.79L696.77,42.3L701.64,39.47L706.51,39.37L711.38,35.08L716.26,33.82L721.13,35.71L726,32.15" style="vector-effect: none; fill: none; stroke: rgb(128, 0, 128); stroke-opacity: 1; stroke-width: 2px; opacity: 1;"/></g><g class="points"/><g class="text"/></g><g class="trace scatter trace9f8887" style="stroke-miterlimit: 2; opacity: 1;"><g class="fills"/><g class="errorbars"/><g class="lines"><path class="js-line" d="M0,339.16L4.87,318.96L9.74,318.96L29.23,318.96L34.11,298.87L38.98,272.08L43.85,301.07L48.72,284.85L53.6,294.37L58.47,223.43L63.34,218.82L68.21,196.54L73.09,209.41L77.96,140.24L82.83,141.39L87.7,168.7L92.58,172.15L97.45,192.14L102.32,150.08L107.19,132.81L112.07,143.06L116.94,148.4L121.81,148.4L126.68,150.08L131.56,121.61L136.43,125.49L141.3,135.01L146.17,125.49L151.05,113.77L155.92,117.01L160.79,112.09L165.66,128.31L170.54,135.01L175.41,152.27L180.28,132.18L185.15,117.01L190.03,114.29L194.9,162.63L199.77,155.94L204.64,166.5L209.52,183.87L214.39,170.38L219.26,119.83L224.13,143.9L229.01,154.78L233.88,198.21L238.75,204.91L243.62,181.57L248.5,150.91L253.37,166.5L258.24,170.38L263.11,178.22L267.99,158.66L272.86,158.66L277.73,155.94L282.6,142.12L287.48,142.12L292.35,136.47L297.22,142.12L302.09,132.6L306.97,118.06L311.84,129.78L316.71,180.42L321.58,129.78L326.46,129.78L331.33,132.6L336.2,132.6L341.07,134.8L345.95,144.32L350.82,137.62L355.69,133.65L360.56,103.51L365.44,121.93L370.31,134.8L375.18,142.54L384.93,134.8L389.8,137.62L394.67,139.3L399.54,117.01L404.42,114.18L409.29,107.49L414.16,110.21L419.03,103.51L423.91,103.51L428.78,91.79L438.52,124.75L443.4,131.45L448.27,120.88L453.14,118.06L458.01,137.62L462.89,144.32L467.76,123.71L472.63,110.21L477.5,118.06L482.38,107.49L487.25,104.66L492.12,106.34L496.99,106.34L501.87,113.03L506.74,115.86L511.61,108.01L516.48,110.21L521.36,135.32L526.23,158.66L531.1,135.32L535.97,139.19L540.85,139.19L545.72,139.19L550.59,145.89L555.46,139.19L560.34,129.78L565.21,128.62L570.08,128.62L574.95,131.45L579.83,124.75L584.7,147.04L589.57,124.75L594.44,131.45L599.32,131.45L604.19,136.47L609.06,140.34L613.93,128.62L618.81,121.93L623.68,124.75L628.55,121.93L633.42,140.34L638.3,100.79L643.17,119.21L648.04,112.41L652.91,119.21L657.79,121.93L662.66,120.88L667.53,120.88L672.4,114.18L677.28,133.65L682.15,129.78L687.02,126.95L691.89,107.49L696.77,118.06L701.64,104.66L706.51,111.36L711.38,116.38L716.26,125.9L721.13,123.08L726,133.65" style="vector-effect: none; fill: none; stroke: rgb(255, 192, 203); stroke-opacity: 1; stroke-width: 2px; opacity: 1;"/></g><g class="points"/><g class="text"/></g><g class="trace scatter trace560cd7" style="stroke-miterlimit: 2; opacity: 1;"><g class="fills"/><g class="errorbars"/><g class="lines"><path class="js-line" d="M0,302.64L4.87,276.69L9.74,271.67L19.49,269.57L24.36,270.62L29.23,257.64L34.11,214.85L38.98,203.23L43.85,214.95L48.72,186.7L53.6,199.46L58.47,135.01L63.34,131.66L68.21,99.74L73.09,84.89L77.96,121.51L82.83,135.32L87.7,153.21L92.58,109.06L97.45,175.82L102.32,60.61L107.19,61.45L112.07,94.3L116.94,45.33L121.81,35.81L126.68,43.87L131.56,36.02L136.43,34.66L141.3,37.48L146.17,33.72L151.05,37.38L160.79,29.01L165.66,41.04L170.54,37.27L175.41,24.72L180.28,23.88L185.15,34.87L190.03,29.74L194.9,111.57L199.77,124.23L204.64,130.51L214.39,120.46L219.26,40.83L224.13,45.44L229.01,117.85L233.88,202.19L238.75,198.1L243.62,172.26L248.5,117.85L253.37,128L258.24,120.36L263.11,122.97L267.99,109.16L277.73,101.73L282.6,65L287.48,57.78L292.35,65.11L297.22,61.55L302.09,59.14L306.97,59.14L311.84,54.12L316.71,144.84L321.58,54.12L326.46,56.53L331.33,54.02L336.2,62.81L341.07,64.9L345.95,72.22L350.82,67.41L355.69,71.07L360.56,60.4L365.44,60.19L370.31,69.92L375.18,72.54L380.05,63.85L384.93,69.92L389.8,65.11L394.67,66.47L399.54,51.61L404.42,51.71L409.29,54.23L414.16,54.23L419.03,49.31L423.91,55.59L428.78,57.99L433.65,56.74L438.52,49.31L443.4,51.82L448.27,49.41L453.14,50.67L458.01,62.91L462.89,63.96L467.76,51.92L477.5,52.13L482.38,47.22L487.25,53.18L492.12,43.45L496.99,47.22L501.87,49.52L511.61,47.22L516.48,48.37L521.36,88.02L526.23,97.97L531.1,86.77L535.97,88.02L540.85,89.18L545.72,92.94L550.59,90.43L555.46,84.26L560.34,57.99L565.21,50.46L570.08,60.3L574.95,61.66L579.83,57.89L584.7,71.39L589.57,51.61L594.44,56.74L599.32,59.14L604.19,74.94L609.06,71.28L613.93,54.12L618.81,52.87L623.68,52.87L628.55,55.27L633.42,66.36L643.17,50.46L648.04,50.56L652.91,52.97L657.79,51.61L662.66,54.23L667.53,50.46L672.4,47.95L677.28,65.11L682.15,60.3L687.02,60.19L691.89,51.61L696.77,54.12L701.64,50.56L706.51,51.61L711.38,46.69L716.26,46.59L721.13,47.84L726,44.18" style="vector-effect: none; fill: none; stroke: rgb(165, 42, 42); stroke-opacity: 1; stroke-width: 2px; opacity: 1;"/></g><g class="points"/><g class="text"/></g><g class="trace scatter trace8ab79d" style="stroke-miterlimit: 2; opacity: 1;"><g class="fills"/><g class="errorbars"/><g class="lines"><path class="js-line" d="M0,376.2L4.87,345.23L9.74,345.23L29.23,345.23L34.11,315.82L38.98,278.68L43.85,312.58L48.72,289.98L53.6,303.58L58.47,215.89L63.34,210.56L68.21,185.23L73.09,200.3L77.96,181.57L82.83,186.18L87.7,220.29L92.58,211.29L97.45,250.11L102.32,140.97L107.19,123.39L112.07,181.89L116.94,142.02L121.81,142.02L126.68,140.97L131.56,117.22L136.43,121.82L141.3,129.46L146.17,121.82L151.05,107.8L155.92,117.85L160.79,109.79L165.66,123.29L170.54,129.46L175.41,146.62L180.28,128L185.15,117.85L190.03,116.59L194.9,205.95L199.77,200.83L204.64,210.77L209.52,225.73L214.39,215.58L219.26,119.1L224.13,141.81L229.01,196.33L233.88,265.91L238.75,270.62L243.62,240.17L248.5,191.51L253.37,210.77L258.24,215.58L263.11,225.31L267.99,201.14L277.73,200.83L282.6,158.76L287.48,158.76L292.35,157.09L297.22,158.76L302.09,152.48L306.97,137.62L311.84,151.64L316.71,235.15L321.58,151.64L326.46,151.64L331.33,152.48L336.2,152.48L341.07,160.33L345.95,166.4L350.82,160.96L355.69,156.35L360.56,122.87L370.31,160.33L375.18,169.64L384.93,160.33L389.8,160.96L394.67,157.92L399.54,133.86L404.42,133.02L409.29,127.58L414.16,128.31L419.03,122.87L423.91,122.87L428.78,108.74L433.65,127.58L438.52,143.17L443.4,148.61L448.27,138.46L453.14,137.62L458.01,160.96L462.89,166.4L467.76,139.3L472.63,128.31L477.5,137.62L482.38,127.58L487.25,126.85L492.12,123.6L496.99,123.6L501.87,129.15L506.74,129.98L511.61,120.67L516.48,128.31L521.36,172.36L526.23,201.14L531.1,172.36L535.97,177.18L545.72,177.18L550.59,182.3L555.46,177.18L560.34,151.64L565.21,147.77L570.08,147.77L574.95,148.61L579.83,143.17L584.7,167.13L589.57,143.17L594.44,148.61L599.32,148.61L604.19,157.09L609.06,161.69L613.93,147.77L618.81,142.33L623.68,143.17L628.55,142.33L633.42,161.69L638.3,122.14L643.17,141.6L648.04,136.26L652.91,141.6L657.79,142.33L662.66,138.46L667.53,138.46L672.4,133.02L677.28,156.35L682.15,151.64L687.02,150.91L691.89,127.58L696.77,137.62L701.64,126.85L706.51,132.18L711.38,140.87L716.26,147.04L721.13,146.31L726,156.35" style="vector-effect: none; fill: none; stroke: rgb(128, 128, 128); stroke-opacity: 1; stroke-width: 2px; opacity: 1;"/></g><g class="points"/><g class="text"/></g></g></g><g class="overplot"/><path class="xlines-above crisp" d="M0,0" style="fill: none;"/><path class="ylines-above crisp" d="M0,0" style="fill: none;"/><g class="overlines-above"/><g class="xaxislayer-above"><g class="xtick"><text text-anchor="middle" x="0" y="509" transform="translate(235.57999999999998,0)" style="font-family: 'Open Sans', verdana, arial, sans-serif; font-size: 12px; fill: rgb(42, 63, 95); fill-opacity: 1; white-space: pre; opacity: 1;">20</text></g><g class="xtick"><text text-anchor="middle" x="0" y="509" style="font-family: 'Open Sans', verdana, arial, sans-serif; font-size: 12px; fill: rgb(42, 63, 95); fill-opacity: 1; white-space: pre; opacity: 1;" transform="translate(333.03,0)">40</text></g><g class="xtick"><text text-anchor="middle" x="0" y="509" style="font-family: 'Open Sans', verdana, arial, sans-serif; font-size: 12px; fill: rgb(42, 63, 95); fill-opacity: 1; white-space: pre; opacity: 1;" transform="translate(430.48,0)">60</text></g><g class="xtick"><text text-anchor="middle" x="0" y="509" style="font-family: 'Open Sans', verdana, arial, sans-serif; font-size: 12px; fill: rgb(42, 63, 95); fill-opacity: 1; white-space: pre; opacity: 1;" transform="translate(527.9300000000001,0)">80</text></g><g class="xtick"><text text-anchor="middle" x="0" y="509" style="font-family: 'Open Sans', verdana, arial, sans-serif; font-size: 12px; fill: rgb(42, 63, 95); fill-opacity: 1; white-space: pre; opacity: 1;" transform="translate(625.38,0)">100</text></g><g class="xtick"><text text-anchor="middle" x="0" y="509" style="font-family: 'Open Sans', verdana, arial, sans-serif; font-size: 12px; fill: rgb(42, 63, 95); fill-opacity: 1; white-space: pre; opacity: 1;" transform="translate(722.83,0)">120</text></g><g class="xtick"><text text-anchor="middle" x="0" y="509" style="font-family: 'Open Sans', verdana, arial, sans-serif; font-size: 12px; fill: rgb(42, 63, 95); fill-opacity: 1; white-space: pre; opacity: 1;" transform="translate(820.28,0)">140</text></g></g><g class="yaxislayer-above"><g class="ytick"><text text-anchor="end" x="142" y="4.199999999999999" transform="translate(0,450.56)" style="font-family: 'Open Sans', verdana, arial, sans-serif; font-size: 12px; fill: rgb(42, 63, 95); fill-opacity: 1; white-space: pre; opacity: 1;">55</text></g><g class="ytick"><text text-anchor="end" x="142" y="4.199999999999999" style="font-family: 'Open Sans', verdana, arial, sans-serif; font-size: 12px; fill: rgb(42, 63, 95); fill-opacity: 1; white-space: pre; opacity: 1;" transform="translate(0,398.24)">60</text></g><g class="ytick"><text text-anchor="end" x="142" y="4.199999999999999" style="font-family: 'Open Sans', verdana, arial, sans-serif; font-size: 12px; fill: rgb(42, 63, 95); fill-opacity: 1; white-space: pre; opacity: 1;" transform="translate(0,345.91999999999996)">65</text></g><g class="ytick"><text text-anchor="end" x="142" y="4.199999999999999" style="font-family: 'Open Sans', verdana, arial, sans-serif; font-size: 12px; fill: rgb(42, 63, 95); fill-opacity: 1; white-space: pre; opacity: 1;" transform="translate(0,293.61)">70</text></g><g class="ytick"><text text-anchor="end" x="142" y="4.199999999999999" style="font-family: 'Open Sans', verdana, arial, sans-serif; font-size: 12px; fill: rgb(42, 63, 95); fill-opacity: 1; white-space: pre; opacity: 1;" transform="translate(0,241.29)">75</text></g><g class="ytick"><text text-anchor="end" x="142" y="4.199999999999999" style="font-family: 'Open Sans', verdana, arial, sans-serif; font-size: 12px; fill: rgb(42, 63, 95); fill-opacity: 1; white-space: pre; opacity: 1;" transform="translate(0,188.97)">80</text></g><g class="ytick"><text text-anchor="end" x="142" y="4.199999999999999" style="font-family: 'Open Sans', verdana, arial, sans-serif; font-size: 12px; fill: rgb(42, 63, 95); fill-opacity: 1; white-space: pre; opacity: 1;" transform="translate(0,136.65)">85</text></g></g><g class="overaxes-above"/></g></g><g class="polarlayer"/><g class="smithlayer"/><g class="ternarylayer"/><g class="geolayer"/><g class="funnelarealayer"/><g class="pielayer"/><g class="iciclelayer"/><g class="treemaplayer"/><g class="sunburstlayer"/><g class="glimages"/><defs id="topdefs-f7eb5d"><g class="clips"/><clipPath id="legendf7eb5d"><rect width="128" height="162" x="0" y="0"/></clipPath></defs><g class="layer-above"><g class="imagelayer"/><g class="shapelayer"/></g><g class="infolayer"><g class="legend" pointer-events="all" transform="translate(883.52,100)"><rect class="bg" shape-rendering="crispEdges" width="128" height="162" x="0" y="0" style="stroke: rgb(68, 68, 68); stroke-opacity: 1; fill: rgb(255, 255, 255); fill-opacity: 1; stroke-width: 0px;"/><g class="scrollbox" transform="" clip-path="url(#legendf7eb5d)"><g class="groups"><g class="traces" transform="translate(0,14.5)" style="opacity: 1;"><text class="legendtext" text-anchor="start" x="40" y="4.680000000000001" style="font-family: 'Open Sans', verdana, arial, sans-serif; font-size: 12px; fill: rgb(42, 63, 95); fill-opacity: 1; white-space: pre;">Train Accuracy</text><g class="layers" style="opacity: 1;"><g class="legendfill"/><g class="legendlines"><path class="js-line" d="M5,0h30" style="fill: none; stroke: rgb(255, 0, 0); stroke-opacity: 1; stroke-width: 2px;"/></g><g class="legendsymbols"><g class="legendpoints"/></g></g><rect class="legendtoggle" x="0" y="-9.5" width="122.71875" height="19" style="fill: rgb(0, 0, 0); fill-opacity: 0;"/></g><g class="traces" transform="translate(0,33.5)" style="opacity: 1;"><text class="legendtext" text-anchor="start" x="40" y="4.680000000000001" style="font-family: 'Open Sans', verdana, arial, sans-serif; font-size: 12px; fill: rgb(42, 63, 95); fill-opacity: 1; white-space: pre;">Test Accuracy</text><g class="layers" style="opacity: 1;"><g class="legendfill"/><g class="legendlines"><path class="js-line" d="M5,0h30" style="fill: none; stroke: rgb(0, 0, 255); stroke-opacity: 1; stroke-width: 2px;"/></g><g class="legendsymbols"><g class="legendpoints"/></g></g><rect class="legendtoggle" x="0" y="-9.5" width="122.71875" height="19" style="fill: rgb(0, 0, 0); fill-opacity: 0;"/></g><g class="traces" transform="translate(0,52.5)" style="opacity: 1;"><text class="legendtext" text-anchor="start" x="40" y="4.680000000000001" style="font-family: 'Open Sans', verdana, arial, sans-serif; font-size: 12px; fill: rgb(42, 63, 95); fill-opacity: 1; white-space: pre;">Train Precision</text><g class="layers" style="opacity: 1;"><g class="legendfill"/><g class="legendlines"><path class="js-line" d="M5,0h30" style="fill: none; stroke: rgb(0, 128, 0); stroke-opacity: 1; stroke-width: 2px;"/></g><g class="legendsymbols"><g class="legendpoints"/></g></g><rect class="legendtoggle" x="0" y="-9.5" width="122.71875" height="19" style="fill: rgb(0, 0, 0); fill-opacity: 0;"/></g><g class="traces" transform="translate(0,71.5)" style="opacity: 1;"><text class="legendtext" text-anchor="start" x="40" y="4.680000000000001" style="font-family: 'Open Sans', verdana, arial, sans-serif; font-size: 12px; fill: rgb(42, 63, 95); fill-opacity: 1; white-space: pre;">Test Precision</text><g class="layers" style="opacity: 1;"><g class="legendfill"/><g class="legendlines"><path class="js-line" d="M5,0h30" style="fill: none; stroke: rgb(255, 165, 0); stroke-opacity: 1; stroke-width: 2px;"/></g><g class="legendsymbols"><g class="legendpoints"/></g></g><rect class="legendtoggle" x="0" y="-9.5" width="122.71875" height="19" style="fill: rgb(0, 0, 0); fill-opacity: 0;"/></g><g class="traces" transform="translate(0,90.5)" style="opacity: 1;"><text class="legendtext" text-anchor="start" x="40" y="4.680000000000001" style="font-family: 'Open Sans', verdana, arial, sans-serif; font-size: 12px; fill: rgb(42, 63, 95); fill-opacity: 1; white-space: pre;">Train Recall</text><g class="layers" style="opacity: 1;"><g class="legendfill"/><g class="legendlines"><path class="js-line" d="M5,0h30" style="fill: none; stroke: rgb(128, 0, 128); stroke-opacity: 1; stroke-width: 2px;"/></g><g class="legendsymbols"><g class="legendpoints"/></g></g><rect class="legendtoggle" x="0" y="-9.5" width="122.71875" height="19" style="fill: rgb(0, 0, 0); fill-opacity: 0;"/></g><g class="traces" transform="translate(0,109.5)" style="opacity: 1;"><text class="legendtext" text-anchor="start" x="40" y="4.680000000000001" style="font-family: 'Open Sans', verdana, arial, sans-serif; font-size: 12px; fill: rgb(42, 63, 95); fill-opacity: 1; white-space: pre;">Test Recall</text><g class="layers" style="opacity: 1;"><g class="legendfill"/><g class="legendlines"><path class="js-line" d="M5,0h30" style="fill: none; stroke: rgb(255, 192, 203); stroke-opacity: 1; stroke-width: 2px;"/></g><g class="legendsymbols"><g class="legendpoints"/></g></g><rect class="legendtoggle" x="0" y="-9.5" width="122.71875" height="19" style="fill: rgb(0, 0, 0); fill-opacity: 0;"/></g><g class="traces" transform="translate(0,128.5)" style="opacity: 1;"><text class="legendtext" text-anchor="start" x="40" y="4.680000000000001" style="font-family: 'Open Sans', verdana, arial, sans-serif; font-size: 12px; fill: rgb(42, 63, 95); fill-opacity: 1; white-space: pre;">Train F1</text><g class="layers" style="opacity: 1;"><g class="legendfill"/><g class="legendlines"><path class="js-line" d="M5,0h30" style="fill: none; stroke: rgb(165, 42, 42); stroke-opacity: 1; stroke-width: 2px;"/></g><g class="legendsymbols"><g class="legendpoints"/></g></g><rect class="legendtoggle" x="0" y="-9.5" width="122.71875" height="19" style="fill: rgb(0, 0, 0); fill-opacity: 0;"/></g><g class="traces" transform="translate(0,147.5)" style="opacity: 1;"><text class="legendtext" text-anchor="start" x="40" y="4.680000000000001" style="font-family: 'Open Sans', verdana, arial, sans-serif; font-size: 12px; fill: rgb(42, 63, 95); fill-opacity: 1; white-space: pre;">Test F1</text><g class="layers" style="opacity: 1;"><g class="legendfill"/><g class="legendlines"><path class="js-line" d="M5,0h30" style="fill: none; stroke: rgb(128, 128, 128); stroke-opacity: 1; stroke-width: 2px;"/></g><g class="legendsymbols"><g class="legendpoints"/></g></g><rect class="legendtoggle" x="0" y="-9.5" width="122.71875" height="19" style="fill: rgb(0, 0, 0); fill-opacity: 0;"/></g></g></g><rect class="scrollbar" rx="20" ry="3" width="0" height="0" x="0" y="0" style="fill: rgb(128, 139, 164); fill-opacity: 1;"/></g><g class="g-gtitle"><text class="gtitle" x="51.2" y="50" text-anchor="start" dy="0em" style="font-family: 'Open Sans', verdana, arial, sans-serif; font-size: 17px; fill: rgb(42, 63, 95); opacity: 1; font-weight: normal; white-space: pre;">Training Metrics - logs/FakeNewsNet-politifact_max-vocab=15000_pre=v2_text_T=200_s=10.log</text></g><g class="g-xtitle"><text class="xtitle" x="506" y="537.3" text-anchor="middle" style="font-family: 'Open Sans', verdana, arial, sans-serif; font-size: 14px; fill: rgb(42, 63, 95); opacity: 1; font-weight: normal; white-space: pre;">Epoch</text></g><g class="g-ytitle"><text class="ytitle" transform="rotate(-90,103.965625,298)" x="103.965625" y="298" text-anchor="middle" style="font-family: 'Open Sans', verdana, arial, sans-serif; font-size: 14px; fill: rgb(42, 63, 95); opacity: 1; font-weight: normal; white-space: pre;">Metric Score</text></g></g><g class="menulayer"><g class="updatemenu-container" style="cursor: pointer;"><g class="updatemenu-header-group" transform="translate(12,60)"><g class="updatemenu-header" transform="translate(1,1)" style="pointer-events: all;"><rect class="updatemenu-item-rect" rx="2" ry="2" shape-rendering="crispEdges" x="0" y="0" width="167" height="33" style="stroke: rgb(190, 200, 217); stroke-opacity: 1; fill: rgb(255, 255, 255); fill-opacity: 1; stroke-width: 1px;"/><text class="updatemenu-item-text" text-anchor="start" data-notex="1" x="12" y="19.5" style="font-family: 'Open Sans', verdana, arial, sans-serif; font-size: 12px; fill: rgb(42, 63, 95); fill-opacity: 1; white-space: pre;">All</text></g><text class="updatemenu-header-arrow" text-anchor="end" x="163" y="19.5" style="font-family: 'Open Sans', verdana, arial, sans-serif; font-size: 12px; fill: rgb(42, 63, 95); fill-opacity: 1;">▼</text></g><g class="updatemenu-dropdown-button-group" updatemenu-active-index="-1" style="pointer-events: all;"><rect class="scrollbox-bg" opacity="0" x="0" y="0" width="0" height="0" style="pointer-events: all;"/></g></g></g></svg>