<svg class="main-svg" xmlns="http://www.w3.org/2000/svg" xmlns:xlink="http://www.w3.org/1999/xlink" width="1024" height="576" style="" viewBox="0 0 1024 576"><rect x="0" y="0" width="1024" height="576" style="fill: rgb(255, 255, 255); fill-opacity: 1;"/><defs id="defs-a5f83f"><g class="clips"><clipPath id="clipa5f83fxyplot" class="plotclip"><rect width="734" height="396"/></clipPath><clipPath class="axesclip" id="clipa5f83fx"><rect x="135" y="0" width="734" height="576"/></clipPath><clipPath class="axesclip" id="clipa5f83fy"><rect x="0" y="100" width="1024" height="396"/></clipPath><clipPath class="axesclip" id="clipa5f83fxy"><rect x="135" y="100" width="734" height="396"/></clipPath></g><g class="gradients"/><g class="patterns"/></defs><g class="bglayer"><rect class="bg" x="135" y="100" width="734" height="396" style="fill: rgb(229, 236, 246); fill-opacity: 1; stroke-width: 0;"/></g><g class="layer-below"><g class="imagelayer"/><g class="shapelayer"/></g><g class="cartesianlayer"><g class="subplot xy"><g class="layer-subplot"><g class="shapelayer"/><g class="imagelayer"/></g><g class="minor-gridlayer"><g class="x"/><g class="y"/></g><g class="gridlayer"><g class="x"><path class="xgrid crisp" transform="translate(228.6,0)" d="M0,100v396" style="stroke: rgb(255, 255, 255); stroke-opacity: 1; stroke-width: 1px;"/><path class="xgrid crisp" transform="translate(327.12,0)" d="M0,100v396" style="stroke: rgb(255, 255, 255); stroke-opacity: 1; stroke-width: 1px;"/><path class="xgrid crisp" transform="translate(425.64,0)" d="M0,100v396" style="stroke: rgb(255, 255, 255); stroke-opacity: 1; stroke-width: 1px;"/><path class="xgrid crisp" transform="translate(524.1700000000001,0)" d="M0,100v396" style="stroke: rgb(255, 255, 255); stroke-opacity: 1; stroke-width: 1px;"/><path class="xgrid crisp" transform="translate(622.69,0)" d="M0,100v396" style="stroke: rgb(255, 255, 255); stroke-opacity: 1; stroke-width: 1px;"/><path class="xgrid crisp" transform="translate(721.21,0)" d="M0,100v396" style="stroke: rgb(255, 255, 255); stroke-opacity: 1; stroke-width: 1px;"/><path class="xgrid crisp" transform="translate(819.74,0)" d="M0,100v396" style="stroke: rgb(255, 255, 255); stroke-opacity: 1; stroke-width: 1px;"/></g><g class="y"><path class="ygrid crisp" transform="translate(0,478.88)" d="M135,0h734" style="stroke: rgb(255, 255, 255); stroke-opacity: 1; stroke-width: 1px;"/><path class="ygrid crisp" transform="translate(0,430.09)" d="M135,0h734" style="stroke: rgb(255, 255, 255); stroke-opacity: 1; stroke-width: 1px;"/><path class="ygrid crisp" transform="translate(0,381.31)" d="M135,0h734" style="stroke: rgb(255, 255, 255); stroke-opacity: 1; stroke-width: 1px;"/><path class="ygrid crisp" transform="translate(0,332.52)" d="M135,0h734" style="stroke: rgb(255, 255, 255); stroke-opacity: 1; stroke-width: 1px;"/><path class="ygrid crisp" transform="translate(0,283.73)" d="M135,0h734" style="stroke: rgb(255, 255, 255); stroke-opacity: 1; stroke-width: 1px;"/><path class="ygrid crisp" transform="translate(0,234.94)" d="M135,0h734" style="stroke: rgb(255, 255, 255); stroke-opacity: 1; stroke-width: 1px;"/><path class="ygrid crisp" transform="translate(0,186.15)" d="M135,0h734" style="stroke: rgb(255, 255, 255); stroke-opacity: 1; stroke-width: 1px;"/><path class="ygrid crisp" transform="translate(0,137.36)" d="M135,0h734" style="stroke: rgb(255, 255, 255); stroke-opacity: 1; stroke-width: 1px;"/></g></g><g class="zerolinelayer"/><path class="xlines-below"/><path class="ylines-below"/><g class="overlines-below"/><g class="xaxislayer-below"/><g class="yaxislayer-below"/><g class="overaxes-below"/><g class="plot" transform="translate(135,100)" clip-path="url(#clipa5f83fxyplot)"><g class="scatterlayer mlayer"><g class="trace scatter tracea132ec" style="stroke-miterlimit: 2; opacity: 1;"><g class="fills"/><g class="errorbars"/><g class="lines"><path class="js-line" d="M0,200.07L4.93,225.44L9.85,202.27L14.78,201.78L19.7,171.53L24.63,234.71L29.56,203.98L34.48,152.75L39.41,163.48L44.34,142.26L49.26,146.89L54.19,152.99L59.11,137.87L64.04,109.33L68.97,120.55L73.89,134.94L78.82,143.23L83.74,130.31L88.67,110.06L93.6,97.37L98.52,87.86L103.45,105.67L108.38,87.13L113.3,105.18L118.23,109.33L123.15,101.76L128.08,117.13L133.01,95.67L137.93,100.3L142.86,80.3L147.79,92.98L152.71,113.47L157.64,91.28L162.56,83.23L167.49,116.89L172.42,96.4L177.34,99.33L182.27,89.81L187.19,113.72L192.12,110.55L197.05,114.69L201.97,120.79L206.9,121.77L211.83,98.35L216.75,87.62L221.68,89.81L226.6,75.91L231.53,105.91L236.46,93.23L241.38,91.28L246.31,82.49L251.23,79.08L256.16,65.66L261.09,56.88L266.01,64.2L270.94,73.71L275.87,70.54L280.79,67.61L285.72,49.56L290.64,58.1L295.57,56.15L300.5,57.37L305.42,62.98L310.35,76.39L315.28,56.64L320.2,45.9L325.13,52.73L330.05,52.73L334.98,66.39L339.91,29.07L344.83,32L349.76,34.68L354.68,26.87L359.61,37.36L364.54,37.85L369.46,45.66L374.39,55.17L379.32,57.86L384.24,44.68L389.17,67.61L394.09,61.03L399.02,53.46L403.95,48.83L408.87,68.34L413.8,72L418.72,51.51L423.65,52.73L428.58,57.37L433.5,59.56L438.43,73.22L443.36,51.76L448.28,62.49L453.21,67.86L458.13,60.05L463.06,60.29L467.99,73.96L472.91,70.3L482.77,47.85L487.69,57.61L492.62,55.9L497.54,19.8L502.47,38.1L507.4,61.76L512.32,53.71L517.25,52.98L522.17,42.97L527.1,50.29L532.03,53.95L536.95,56.64L546.81,33.95L551.73,39.56L556.66,56.15L561.58,40.54L566.51,45.41L571.44,28.34L576.36,42.24L581.29,50.05L586.21,45.41L591.14,53.46L596.07,57.12L600.99,45.17L605.92,41.02L610.85,31.75L615.77,21.51L620.7,27.85L625.62,40.05L630.55,45.41L635.48,33.7L640.4,42.24L645.33,30.53L650.26,34.19L655.18,29.8L660.11,37.85L665.03,42.97L669.96,30.53L674.89,41.51L679.81,41.75L684.74,36.39L689.66,52.73L694.59,64.69L699.52,46.63L704.44,50.78L709.37,39.07L714.3,31.51L719.22,50.78L724.15,51.51L729.07,50.54L734,43.95" style="vector-effect: none; fill: none; stroke: rgb(255, 0, 0); stroke-opacity: 1; stroke-width: 2px; opacity: 1;"/></g><g class="points"/><g class="text"/></g><g class="trace scatter trace15f2a4" style="stroke-miterlimit: 2; opacity: 1;"><g class="fills"/><g class="errorbars"/><g class="lines"><path class="js-line" d="M0,227.64L4.93,255.69L9.85,228.61L14.78,236.42L19.7,181.78L24.63,258.86L29.56,212.76L34.48,171.29L39.41,190.56L44.34,172.02L49.26,178.61L54.19,193.49L59.11,179.58L64.04,143.72L68.97,166.9L73.89,173L78.82,174.7L83.74,166.9L88.67,149.33L93.6,135.67L98.52,131.28L103.45,147.14L108.38,121.77L118.23,144.45L123.15,134.94L128.08,142.75L133.01,128.35L137.93,119.57L142.86,120.06L147.79,132.75L152.71,158.6L157.64,127.87L162.56,117.86L167.49,152.75L172.42,131.77L182.27,124.45L187.19,148.36L192.12,140.55L197.05,148.36L206.9,164.7L211.83,138.36L216.75,148.36L221.68,141.53L226.6,119.57L231.53,148.85L236.46,150.55L241.38,142.26L246.31,125.18L251.23,118.6L256.16,109.57L261.09,97.13L270.94,106.89L275.87,93.71L280.79,102.01L285.72,95.91L290.64,103.72L295.57,95.91L300.5,94.93L305.42,89.81L310.35,114.21L315.28,102.98L320.2,86.64L325.13,94.2L330.05,87.13L334.98,101.52L339.91,73.96L344.83,73.22L349.76,74.44L354.68,71.03L359.61,76.15L364.54,73.22L369.46,81.52L374.39,99.81L379.32,102.98L384.24,91.52L389.17,117.38L394.09,114.21L399.02,107.38L403.95,98.59L408.87,128.35L413.8,115.18L418.72,95.91L423.65,95.91L428.58,108.11L433.5,99.33L438.43,114.69L443.36,89.81L448.28,105.91L453.21,125.67L458.13,93.71L463.06,99.33L467.99,102.01L472.91,109.08L477.84,108.6L482.77,81.52L487.69,100.3L492.62,88.84L497.54,67.37L502.47,75.42L507.4,106.4L512.32,91.52L517.25,93.71L522.17,87.62L527.1,92.49L532.03,98.59L536.95,99.33L541.88,76.15L546.81,67.37L551.73,73.96L556.66,98.11L561.58,70.54L566.51,78.35L571.44,61.76L581.29,93.71L586.21,88.84L591.14,89.81L596.07,99.33L600.99,88.1L605.92,91.52L610.85,97.13L615.77,71.76L630.55,99.81L635.48,84.93L640.4,93.23L645.33,78.83L650.26,81.52L655.18,80.05L660.11,71.03L665.03,77.13L669.96,67.37L674.89,79.32L679.81,72.25L684.74,74.44L689.66,90.3L694.59,88.1L699.52,77.13L704.44,85.42L709.37,75.42L714.3,68.83L719.22,94.2L724.15,89.32L729.07,87.62L734,74.44" style="vector-effect: none; fill: none; stroke: rgb(0, 0, 255); stroke-opacity: 1; stroke-width: 2px; opacity: 1;"/></g><g class="points"/><g class="text"/></g><g class="trace scatter trace1ac4e5" style="stroke-miterlimit: 2; opacity: 1;"><g class="fills"/><g class="errorbars"/><g class="lines"><path class="js-line" d="M0,350.1L4.93,356.44L9.85,335.46L14.78,339.12L19.7,325.22L24.63,353.76L29.56,333.51L34.48,305.46L39.41,305.94L44.34,301.8L49.26,299.11L54.19,300.09L59.11,292.04L64.04,275.21L68.97,275.45L73.89,281.55L78.82,285.7L83.74,275.7L88.67,263.25L93.6,259.35L98.52,256.67L103.45,264.47L108.38,256.18L113.3,265.94L118.23,267.65L123.15,265.69L128.08,270.33L133.01,257.64L137.93,256.67L142.86,246.18L147.79,259.11L152.71,267.65L157.64,253.98L162.56,248.13L167.49,269.84L172.42,258.13L177.34,259.35L182.27,252.28L187.19,267.16L192.12,264.47L197.05,263.25L201.97,269.35L206.9,267.4L211.83,258.13L216.75,253.74L221.68,251.55L226.6,242.76L231.53,258.86L236.46,254.47L241.38,255.69L246.31,247.89L251.23,243.5L256.16,237.64L261.09,231.3L266.01,236.18L270.94,241.79L275.87,241.3L280.79,240.32L285.72,228.37L290.64,232.27L295.57,232.27L300.5,233.25L305.42,238.13L310.35,246.18L315.28,230.57L320.2,226.42L325.13,232.27L330.05,232.52L334.98,242.76L339.91,215.44L344.83,216.91L349.76,219.83L354.68,213.73L359.61,220.32L364.54,222.27L374.39,232.27L379.32,234.71L384.24,226.91L389.17,239.59L394.09,236.18L399.02,229.35L403.95,228.37L408.87,237.4L413.8,245.2L418.72,233.74L423.65,234.23L428.58,236.66L433.5,236.91L438.43,244.71L443.36,233.25L448.28,238.62L453.21,240.57L458.13,239.1L463.06,239.59L467.99,248.62L472.91,249.84L477.84,239.35L482.77,232.76L487.69,236.91L492.62,237.64L497.54,210.32L502.47,224.47L507.4,243.25L512.32,231.79L517.25,233.98L522.17,226.91L527.1,234.47L532.03,234.47L536.95,237.64L541.88,233.98L546.81,221.05L551.73,224.47L556.66,233.49L561.58,224.47L566.51,228.86L571.44,215.69L576.36,227.15L581.29,228.61L586.21,226.42L591.14,231.79L596.07,232.52L600.99,224.22L605.92,221.78L610.85,218.13L615.77,209.59L620.7,213.73L625.62,223.98L630.55,228.13L635.48,218.86L640.4,228.37L645.33,219.59L650.26,223L655.18,216.42L660.11,224.71L665.03,225.2L669.96,219.1L674.89,226.42L679.81,227.64L684.74,223.74L694.59,241.79L699.52,229.35L704.44,234.71L709.37,225.93L714.3,219.59L719.22,233.25L729.07,233.49L734,227.64" style="vector-effect: none; fill: none; stroke: rgb(0, 128, 0); stroke-opacity: 1; stroke-width: 2px; opacity: 1;"/></g><g class="points"/><g class="text"/></g><g class="trace scatter tracec7534d" style="stroke-miterlimit: 2; opacity: 1;"><g class="fills"/><g class="errorbars"/><g class="lines"><path class="js-line" d="M0,364.98L4.93,372.3L9.85,348.39L14.78,360.34L19.7,326.19L24.63,365.95L29.56,335.22L34.48,318.14L39.41,322.29L44.34,320.58L49.26,320.83L54.19,329.12L59.11,321.07L64.04,299.36L68.97,311.56L73.89,307.9L78.82,307.9L83.74,301.8L88.67,291.31L93.6,288.14L98.52,290.82L103.45,295.21L108.38,283.75L113.3,282.04L118.23,293.5L123.15,286.92L128.08,286.67L133.01,283.99L137.93,268.38L142.86,273.5L147.79,285.94L152.71,298.63L157.64,283.99L162.56,276.18L167.49,293.5L182.27,276.67L187.19,285.94L192.12,281.31L197.05,282.53L201.97,292.77L206.9,295.46L211.83,283.99L216.75,299.6L221.68,290.82L226.6,275.7L231.53,287.65L236.46,296.67L241.38,292.53L246.31,277.65L251.23,272.28L256.16,277.4L261.09,266.18L266.01,269.35L270.94,266.67L275.87,256.91L280.79,267.65L285.72,269.6L290.64,268.38L295.57,264.23L300.5,263.74L305.42,256.42L310.35,275.94L315.28,269.84L320.2,265.21L325.13,268.13L330.05,262.28L334.98,271.06L339.91,254.72L344.83,253.5L354.68,252.28L359.61,253.74L364.54,253.01L369.46,258.38L374.39,272.04L379.32,273.99L384.24,269.11L389.17,281.06L394.09,281.06L399.02,277.16L403.95,272.28L408.87,289.84L418.72,274.23L423.65,272.77L428.58,280.82L433.5,271.3L438.43,278.87L443.36,265.69L448.28,276.43L453.21,291.31L458.13,268.13L463.06,274.72L467.99,275.21L472.91,286.92L477.84,286.92L482.77,261.3L487.69,274.72L492.62,264.96L497.54,253.5L502.47,255.2L507.4,280.33L512.32,262.77L517.25,267.4L522.17,265.94L527.1,271.06L532.03,272.28L536.95,271.3L541.88,260.57L546.81,250.57L551.73,254.96L556.66,267.4L561.58,248.13L566.51,253.5L571.44,244.71L576.36,257.89L581.29,267.4L586.21,265.69L591.14,262.03L596.07,267.16L600.99,260.08L605.92,263.01L610.85,278.62L615.77,256.18L620.7,258.13L630.55,276.43L635.48,266.18L640.4,273.01L645.33,263.01L650.26,263.5L655.18,261.3L660.11,253.74L665.03,251.79L669.96,250.57L674.89,258.13L679.81,253.01L684.74,256.67L689.66,260.33L694.59,255.69L699.52,253.5L704.44,262.03L714.3,252.77L719.22,271.06L724.15,266.18L729.07,266.67L734,254.96" style="vector-effect: none; fill: none; stroke: rgb(255, 165, 0); stroke-opacity: 1; stroke-width: 2px; opacity: 1;"/></g><g class="points"/><g class="text"/></g><g class="trace scatter traceee8bc0" style="stroke-miterlimit: 2; opacity: 1;"><g class="fills"/><g class="errorbars"/><g class="lines"><path class="js-line" d="M0,264.47L4.93,263.5L9.85,237.88L14.78,244.71L19.7,236.66L24.63,255.45L29.56,233.74L34.48,212.03L39.41,206.42L44.34,213L49.26,204.46L54.19,202.03L59.11,197.39L68.97,178.12L73.89,179.09L78.82,181.05L83.74,171.53L88.67,162.75L93.6,166.17L98.52,170.8L103.45,168.85L113.3,172.51L118.23,172.02L123.15,175.44L128.08,170.8L137.93,157.63L142.86,155.68L147.79,170.56L152.71,168.85L157.64,160.8L162.56,157.14L167.49,170.07L172.42,164.46L177.34,164.21L182.27,158.6L187.19,167.39L192.12,164.7L197.05,158.85L201.97,165.92L206.9,161.29L211.83,162.75L216.75,164.7L221.68,157.14L226.6,153.48L231.53,157.38L236.46,160.07L241.38,164.7L246.31,157.14L251.23,151.29L256.16,154.21L261.09,151.77L266.01,153.24L270.94,153.72L275.87,156.9L280.79,158.12L290.64,152.5L295.57,155.19L300.5,155.92L305.42,159.34L310.35,160.31L315.28,149.82L320.2,156.65L325.13,160.31L330.05,160.8L334.98,165.92L339.91,158.85L344.83,156.9L349.76,159.09L354.68,158.36L359.61,155.92L364.54,160.31L369.46,160.07L374.39,156.65L384.24,160.31L389.17,156.9L394.09,157.63L399.02,151.77L403.95,156.65L408.87,150.31L413.8,163.48L418.72,165.92L423.65,165.19L428.58,163.48L433.5,161.53L438.43,161.29L443.36,164.21L448.28,161.29L453.21,158.36L458.13,166.17L463.06,166.41L467.99,169.09L472.91,176.66L477.84,168.6L482.77,169.58L487.69,164.46L492.62,168.6L497.54,164.46L502.47,165.43L507.4,173.73L512.32,157.87L517.25,164.21L522.17,163.48L527.1,170.07L532.03,164.21L536.95,167.39L541.88,179.58L546.81,164.21L551.73,162.51L556.66,157.63L566.51,163.97L571.44,161.29L576.36,164.95L581.29,155.43L586.21,157.38L591.14,158.12L596.07,153.97L600.99,152.5L605.92,152.99L610.85,160.55L620.7,156.41L625.62,160.8L630.55,161.77L635.48,158.85L640.4,168.36L645.33,167.39L650.26,169.58L655.18,160.31L660.11,166.41L665.03,158.36L669.96,166.41L674.89,164.46L679.81,166.9L684.74,166.9L689.66,162.51L694.59,165.68L699.52,162.99L704.44,169.82L714.3,164.95L719.22,165.92L724.15,164.21L729.07,166.9L734,163.24" style="vector-effect: none; fill: none; stroke: rgb(128, 0, 128); stroke-opacity: 1; stroke-width: 2px; opacity: 1;"/></g><g class="points"/><g class="text"/></g><g class="trace scatter tracebe220c" style="stroke-miterlimit: 2; opacity: 1;"><g class="fills"/><g class="errorbars"/><g class="lines"><path class="js-line" d="M0,278.14L4.93,279.35L9.85,249.84L14.78,266.67L19.7,233.25L24.63,268.38L29.56,233.98L34.48,224.71L39.41,221.78L44.34,228.86L49.26,225.44L54.19,232.27L59.11,225.44L64.04,208.12L68.97,215.44L73.89,205.44L78.82,204.22L83.74,197.63L88.67,189.1L93.6,192.51L98.52,201.29L108.38,195.19L113.3,183.24L118.23,196.66L123.15,190.56L128.08,184.71L133.01,190.07L137.93,166.41L142.86,176.17L147.79,190.8L152.71,196.9L162.56,183.24L167.49,191.29L172.42,194.71L177.34,185.44L182.27,179.09L187.19,179.83L192.12,176.17L197.05,173.48L201.97,187.14L206.9,187.63L211.83,182.51L216.75,205.44L226.6,181.29L231.53,182.51L236.46,198.37L241.38,196.17L246.31,180.07L251.23,174.95L256.16,193.49L261.09,182.75L266.01,184.95L270.94,173.73L275.87,166.41L280.79,180.56L285.72,191.29L290.64,180.8L295.57,179.58L300.5,179.58L305.42,169.34L310.35,186.17L315.28,184.46L320.2,193L325.13,190.32L330.05,185.44L334.98,188.85L339.91,185.44L344.83,183.49L349.76,179.58L354.68,183.49L359.61,179.83L369.46,183.49L374.39,192.27L379.32,193L384.24,195.44L389.17,193.73L394.09,197.15L399.02,194.95L403.95,193.97L408.87,201.78L413.8,198.61L418.72,201.54L423.65,198.37L428.58,202.51L433.5,191.29L438.43,192.02L443.36,189.58L448.28,195.44L453.21,207.15L458.13,190.56L463.06,199.1L467.99,196.9L472.91,213.98L477.84,214.47L482.77,190.56L487.69,197.39L492.62,189.83L497.54,192.02L502.47,184.22L507.4,203L512.32,181.53L517.25,189.1L522.17,193L527.1,198.61L532.03,193.97L536.95,191.29L541.88,196.17L546.81,184.95L551.73,186.17L556.66,184.22L561.58,174.7L571.44,179.09L576.36,188.36L581.29,189.1L586.21,191.29L591.14,181.78L596.07,182.51L600.99,179.34L605.92,182.27L610.85,210.08L615.77,191.78L620.7,183.97L625.62,192.02L630.55,201.78L635.48,197.39L640.4,202.03L645.33,198.12L655.18,192.51L660.11,186.66L665.03,174.22L669.96,184.95L674.89,185.92L679.81,183.49L684.74,188.85L689.66,177.63L694.59,169.82L699.52,178.12L704.44,186.9L709.37,189.58L714.3,187.63L719.22,196.41L724.15,191.78L729.07,194.46L734,184.95" style="vector-effect: none; fill: none; stroke: rgb(255, 192, 203); stroke-opacity: 1; stroke-width: 2px; opacity: 1;"/></g><g class="points"/><g class="text"/></g><g class="trace scatter tracee8dfd8" style="stroke-miterlimit: 2; opacity: 1;"><g class="fills"/><g class="errorbars"/><g class="lines"><path class="js-line" d="M0,340.34L4.93,353.27L9.85,329.12L14.78,331.8L19.7,311.56L24.63,354.73L29.56,328.14L34.48,289.84L39.41,293.26L44.34,284.48L49.26,283.01L54.19,285.21L59.11,274.48L64.04,253.98L68.97,255.94L73.89,264.47L78.82,270.33L83.74,258.38L88.67,242.76L93.6,236.91L98.52,233.49L103.45,243.01L108.38,233.01L113.3,244.23L118.23,246.67L123.15,243.74L128.08,250.57L133.01,235.2L137.93,234.71L142.86,222.03L147.79,236.42L152.71,247.4L157.64,230.81L162.56,224.47L167.49,250.08L172.42,235.45L177.34,237.15L182.27,229.1L187.19,246.91L192.12,243.98L197.05,243.74L201.97,250.57L206.9,249.11L211.83,235.93L216.75,230.57L221.68,228.37L226.6,218.61L231.53,237.88L236.46,231.79L241.38,232.76L246.31,223.98L251.23,219.34L256.16,212.76L261.09,206.42L266.01,211.54L270.94,217.39L275.87,216.91L280.79,215.93L285.72,203.98L290.64,207.39L295.57,207.88L300.5,208.86L305.42,213.73L310.35,222.03L315.28,205.44L320.2,202.51L325.13,208.37L330.05,208.37L334.98,218.86L339.91,193.97L344.83,194.46L349.76,197.39L354.68,192.27L359.61,197.15L364.54,199.59L374.39,207.88L379.32,210.32L384.24,203.49L389.17,215.2L394.09,211.78L399.02,204.46L403.95,204.22L408.87,212.51L413.8,221.05L418.72,210.56L423.65,210.56L428.58,212.76L433.5,212.76L438.43,220.56L443.36,209.59L448.28,214.47L453.21,216.17L458.13,215.44L463.06,215.69L467.99,224.96L472.91,226.42L477.84,215.93L482.77,210.08L487.69,213.25L492.62,214.22L497.54,191.54L502.47,202.51L507.4,220.32L512.32,207.64L517.25,210.32L522.17,204.22L527.1,211.78L532.03,210.81L536.95,213.98L541.88,213.49L546.81,199.34L551.73,201.78L556.66,209.1L561.58,201.54L566.51,205.93L571.44,194.71L576.36,204.71L581.29,204.46L586.21,202.51L591.14,207.64L596.07,207.88L600.99,200.07L605.92,197.88L610.85,196.41L615.77,189.34L620.7,192.02L625.62,201.05L630.55,204.71L635.48,196.66L640.4,206.42L645.33,199.34L650.26,202.51L655.18,194.95L660.11,203L665.03,201.78L669.96,198.61L674.89,203.98L679.81,205.44L684.74,202.27L689.66,209.34L694.59,217.88L699.52,205.93L704.44,212.03L709.37,203.98L714.3,198.61L719.22,210.08L724.15,209.59L729.07,210.32L734,204.71" style="vector-effect: none; fill: none; stroke: rgb(165, 42, 42); stroke-opacity: 1; stroke-width: 2px; opacity: 1;"/></g><g class="points"/><g class="text"/></g><g class="trace scatter trace0758a9" style="stroke-miterlimit: 2; opacity: 1;"><g class="fills"/><g class="errorbars"/><g class="lines"><path class="js-line" d="M0,360.59L4.93,376.2L9.85,348.39L14.78,360.1L19.7,314.97L24.63,373.27L29.56,332.53L34.48,305.21L39.41,314.73L44.34,307.65L49.26,309.6L54.19,320.83L59.11,310.34L64.04,282.28L68.97,298.63L73.89,297.65L78.82,297.89L83.74,290.58L88.67,276.67L93.6,270.33L98.52,272.04L103.45,279.35L108.38,263.74L113.3,264.23L118.23,277.4L123.15,269.11L128.08,271.06L133.01,265.21L137.93,249.35L142.86,253.98L147.79,267.89L152.71,285.45L157.64,265.21L162.56,255.94L167.49,279.6L172.42,269.11L177.34,263.01L182.27,257.89L187.19,272.04L192.12,265.94L197.05,269.35L201.97,280.33L206.9,284.97L211.83,267.4L216.75,283.5L221.68,274.23L226.6,255.94L231.53,273.5L236.46,281.55L241.38,275.7L246.31,258.62L251.23,252.52L256.16,256.18L261.09,243.98L266.01,247.4L270.94,245.2L275.87,234.23L280.79,245.69L285.72,247.64L290.64,246.67L295.57,241.79L300.5,241.3L305.42,233.49L310.35,255.2L315.28,248.13L320.2,243.25L325.13,246.18L330.05,239.84L334.98,249.35L339.91,232.27L344.83,231.05L349.76,229.59L354.68,229.83L359.61,230.81L364.54,230.32L369.46,235.69L374.39,250.08L379.32,252.28L384.24,247.15L389.17,260.82L394.09,260.57L403.95,250.33L408.87,270.82L418.72,252.52L423.65,251.06L428.58,259.84L433.5,249.35L438.43,258.38L443.36,243.25L448.28,255.2L453.21,271.79L458.13,245.93L463.06,253.25L467.99,253.74L472.91,266.18L477.84,266.18L482.77,239.1L487.69,253.01L492.62,242.76L497.54,232.03L502.47,232.52L507.4,259.11L512.32,240.08L517.25,245.2L522.17,243.74L527.1,249.35L532.03,250.33L536.95,249.35L541.88,239.1L546.81,228.37L551.73,232.76L556.66,245.2L561.58,224.96L566.51,230.32L571.44,222.27L576.36,235.69L581.29,245.2L586.21,243.5L591.14,239.59L596.07,245.2L600.99,237.15L605.92,240.57L610.85,257.64L615.77,234.23L620.7,235.45L630.55,254.96L635.48,244.47L640.4,251.3L645.33,241.54L650.26,241.54L655.18,239.35L660.11,231.54L665.03,228.61L669.96,228.37L674.89,235.69L679.81,230.32L684.74,234.47L689.66,237.64L694.59,232.76L699.52,230.57L704.44,239.35L709.37,235.45L714.3,230.57L719.22,249.11L724.15,243.98L729.07,244.47L734,232.27" style="vector-effect: none; fill: none; stroke: rgb(128, 128, 128); stroke-opacity: 1; stroke-width: 2px; opacity: 1;"/></g><g class="points"/><g class="text"/></g></g></g><g class="overplot"/><path class="xlines-above crisp" d="M0,0" style="fill: none;"/><path class="ylines-above crisp" d="M0,0" style="fill: none;"/><g class="overlines-above"/><g class="xaxislayer-above"><g class="xtick"><text text-anchor="middle" x="0" y="509" transform="translate(228.6,0)" style="font-family: 'Open Sans', verdana, arial, sans-serif; font-size: 12px; fill: rgb(42, 63, 95); fill-opacity: 1; white-space: pre; opacity: 1;">20</text></g><g class="xtick"><text text-anchor="middle" x="0" y="509" style="font-family: 'Open Sans', verdana, arial, sans-serif; font-size: 12px; fill: rgb(42, 63, 95); fill-opacity: 1; white-space: pre; opacity: 1;" transform="translate(327.12,0)">40</text></g><g class="xtick"><text text-anchor="middle" x="0" y="509" style="font-family: 'Open Sans', verdana, arial, sans-serif; font-size: 12px; fill: rgb(42, 63, 95); fill-opacity: 1; white-space: pre; opacity: 1;" transform="translate(425.64,0)">60</text></g><g class="xtick"><text text-anchor="middle" x="0" y="509" style="font-family: 'Open Sans', verdana, arial, sans-serif; font-size: 12px; fill: rgb(42, 63, 95); fill-opacity: 1; white-space: pre; opacity: 1;" transform="translate(524.1700000000001,0)">80</text></g><g class="xtick"><text text-anchor="middle" x="0" y="509" style="font-family: 'Open Sans', verdana, arial, sans-serif; font-size: 12px; fill: rgb(42, 63, 95); fill-opacity: 1; white-space: pre; opacity: 1;" transform="translate(622.69,0)">100</text></g><g class="xtick"><text text-anchor="middle" x="0" y="509" style="font-family: 'Open Sans', verdana, arial, sans-serif; font-size: 12px; fill: rgb(42, 63, 95); fill-opacity: 1; white-space: pre; opacity: 1;" transform="translate(721.21,0)">120</text></g><g class="xtick"><text text-anchor="middle" x="0" y="509" style="font-family: 'Open Sans', verdana, arial, sans-serif; font-size: 12px; fill: rgb(42, 63, 95); fill-opacity: 1; white-space: pre; opacity: 1;" transform="translate(819.74,0)">140</text></g></g><g class="yaxislayer-above"><g class="ytick"><text text-anchor="end" x="134" y="4.199999999999999" transform="translate(0,478.88)" style="font-family: 'Open Sans', verdana, arial, sans-serif; font-size: 12px; fill: rgb(42, 63, 95); fill-opacity: 1; white-space: pre; opacity: 1;">62</text></g><g class="ytick"><text text-anchor="end" x="134" y="4.199999999999999" style="font-family: 'Open Sans', verdana, arial, sans-serif; font-size: 12px; fill: rgb(42, 63, 95); fill-opacity: 1; white-space: pre; opacity: 1;" transform="translate(0,430.09)">64</text></g><g class="ytick"><text text-anchor="end" x="134" y="4.199999999999999" style="font-family: 'Open Sans', verdana, arial, sans-serif; font-size: 12px; fill: rgb(42, 63, 95); fill-opacity: 1; white-space: pre; opacity: 1;" transform="translate(0,381.31)">66</text></g><g class="ytick"><text text-anchor="end" x="134" y="4.199999999999999" style="font-family: 'Open Sans', verdana, arial, sans-serif; font-size: 12px; fill: rgb(42, 63, 95); fill-opacity: 1; white-space: pre; opacity: 1;" transform="translate(0,332.52)">68</text></g><g class="ytick"><text text-anchor="end" x="134" y="4.199999999999999" style="font-family: 'Open Sans', verdana, arial, sans-serif; font-size: 12px; fill: rgb(42, 63, 95); fill-opacity: 1; white-space: pre; opacity: 1;" transform="translate(0,283.73)">70</text></g><g class="ytick"><text text-anchor="end" x="134" y="4.199999999999999" style="font-family: 'Open Sans', verdana, arial, sans-serif; font-size: 12px; fill: rgb(42, 63, 95); fill-opacity: 1; white-space: pre; opacity: 1;" transform="translate(0,234.94)">72</text></g><g class="ytick"><text text-anchor="end" x="134" y="4.199999999999999" style="font-family: 'Open Sans', verdana, arial, sans-serif; font-size: 12px; fill: rgb(42, 63, 95); fill-opacity: 1; white-space: pre; opacity: 1;" transform="translate(0,186.15)">74</text></g><g class="ytick"><text text-anchor="end" x="134" y="4.199999999999999" style="font-family: 'Open Sans', verdana, arial, sans-serif; font-size: 12px; fill: rgb(42, 63, 95); fill-opacity: 1; white-space: pre; opacity: 1;" transform="translate(0,137.36)">76</text></g></g><g class="overaxes-above"/></g></g><g class="polarlayer"/><g class="smithlayer"/><g class="ternarylayer"/><g class="geolayer"/><g class="funnelarealayer"/><g class="pielayer"/><g class="iciclelayer"/><g class="treemaplayer"/><g class="sunburstlayer"/><g class="glimages"/><defs id="topdefs-a5f83f"><g class="clips"/><clipPath id="legenda5f83f"><rect width="128" height="162" x="0" y="0"/></clipPath></defs><g class="layer-above"><g class="imagelayer"/><g class="shapelayer"/></g><g class="infolayer"><g class="legend" pointer-events="all" transform="translate(883.6800000000001,100)"><rect class="bg" shape-rendering="crispEdges" width="128" height="162" x="0" y="0" style="stroke: rgb(68, 68, 68); stroke-opacity: 1; fill: rgb(255, 255, 255); fill-opacity: 1; stroke-width: 0px;"/><g class="scrollbox" transform="" clip-path="url(#legenda5f83f)"><g class="groups"><g class="traces" transform="translate(0,14.5)" style="opacity: 1;"><text class="legendtext" text-anchor="start" x="40" y="4.680000000000001" style="font-family: 'Open Sans', verdana, arial, sans-serif; font-size: 12px; fill: rgb(42, 63, 95); fill-opacity: 1; white-space: pre;">Train Accuracy</text><g class="layers" style="opacity: 1;"><g class="legendfill"/><g class="legendlines"><path class="js-line" d="M5,0h30" style="fill: none; stroke: rgb(255, 0, 0); stroke-opacity: 1; stroke-width: 2px;"/></g><g class="legendsymbols"><g class="legendpoints"/></g></g><rect class="legendtoggle" x="0" y="-9.5" width="122.71875" height="19" style="fill: rgb(0, 0, 0); fill-opacity: 0;"/></g><g class="traces" transform="translate(0,33.5)" style="opacity: 1;"><text class="legendtext" text-anchor="start" x="40" y="4.680000000000001" style="font-family: 'Open Sans', verdana, arial, sans-serif; font-size: 12px; fill: rgb(42, 63, 95); fill-opacity: 1; white-space: pre;">Test Accuracy</text><g class="layers" style="opacity: 1;"><g class="legendfill"/><g class="legendlines"><path class="js-line" d="M5,0h30" style="fill: none; stroke: rgb(0, 0, 255); stroke-opacity: 1; stroke-width: 2px;"/></g><g class="legendsymbols"><g class="legendpoints"/></g></g><rect class="legendtoggle" x="0" y="-9.5" width="122.71875" height="19" style="fill: rgb(0, 0, 0); fill-opacity: 0;"/></g><g class="traces" transform="translate(0,52.5)" style="opacity: 1;"><text class="legendtext" text-anchor="start" x="40" y="4.680000000000001" style="font-family: 'Open Sans', verdana, arial, sans-serif; font-size: 12px; fill: rgb(42, 63, 95); fill-opacity: 1; white-space: pre;">Train Precision</text><g class="layers" style="opacity: 1;"><g class="legendfill"/><g class="legendlines"><path class="js-line" d="M5,0h30" style="fill: none; stroke: rgb(0, 128, 0); stroke-opacity: 1; stroke-width: 2px;"/></g><g class="legendsymbols"><g class="legendpoints"/></g></g><rect class="legendtoggle" x="0" y="-9.5" width="122.71875" height="19" style="fill: rgb(0, 0, 0); fill-opacity: 0;"/></g><g class="traces" transform="translate(0,71.5)" style="opacity: 1;"><text class="legendtext" text-anchor="start" x="40" y="4.680000000000001" style="font-family: 'Open Sans', verdana, arial, sans-serif; font-size: 12px; fill: rgb(42, 63, 95); fill-opacity: 1; white-space: pre;">Test Precision</text><g class="layers" style="opacity: 1;"><g class="legendfill"/><g class="legendlines"><path class="js-line" d="M5,0h30" style="fill: none; stroke: rgb(255, 165, 0); stroke-opacity: 1; stroke-width: 2px;"/></g><g class="legendsymbols"><g class="legendpoints"/></g></g><rect class="legendtoggle" x="0" y="-9.5" width="122.71875" height="19" style="fill: rgb(0, 0, 0); fill-opacity: 0;"/></g><g class="traces" transform="translate(0,90.5)" style="opacity: 1;"><text class="legendtext" text-anchor="start" x="40" y="4.680000000000001" style="font-family: 'Open Sans', verdana, arial, sans-serif; font-size: 12px; fill: rgb(42, 63, 95); fill-opacity: 1; white-space: pre;">Train Recall</text><g class="layers" style="opacity: 1;"><g class="legendfill"/><g class="legendlines"><path class="js-line" d="M5,0h30" style="fill: none; stroke: rgb(128, 0, 128); stroke-opacity: 1; stroke-width: 2px;"/></g><g class="legendsymbols"><g class="legendpoints"/></g></g><rect class="legendtoggle" x="0" y="-9.5" width="122.71875" height="19" style="fill: rgb(0, 0, 0); fill-opacity: 0;"/></g><g class="traces" transform="translate(0,109.5)" style="opacity: 1;"><text class="legendtext" text-anchor="start" x="40" y="4.680000000000001" style="font-family: 'Open Sans', verdana, arial, sans-serif; font-size: 12px; fill: rgb(42, 63, 95); fill-opacity: 1; white-space: pre;">Test Recall</text><g class="layers" style="opacity: 1;"><g class="legendfill"/><g class="legendlines"><path class="js-line" d="M5,0h30" style="fill: none; stroke: rgb(255, 192, 203); stroke-opacity: 1; stroke-width: 2px;"/></g><g class="legendsymbols"><g class="legendpoints"/></g></g><rect class="legendtoggle" x="0" y="-9.5" width="122.71875" height="19" style="fill: rgb(0, 0, 0); fill-opacity: 0;"/></g><g class="traces" transform="translate(0,128.5)" style="opacity: 1;"><text class="legendtext" text-anchor="start" x="40" y="4.680000000000001" style="font-family: 'Open Sans', verdana, arial, sans-serif; font-size: 12px; fill: rgb(42, 63, 95); fill-opacity: 1; white-space: pre;">Train F1</text><g class="layers" style="opacity: 1;"><g class="legendfill"/><g class="legendlines"><path class="js-line" d="M5,0h30" style="fill: none; stroke: rgb(165, 42, 42); stroke-opacity: 1; stroke-width: 2px;"/></g><g class="legendsymbols"><g class="legendpoints"/></g></g><rect class="legendtoggle" x="0" y="-9.5" width="122.71875" height="19" style="fill: rgb(0, 0, 0); fill-opacity: 0;"/></g><g class="traces" transform="translate(0,147.5)" style="opacity: 1;"><text class="legendtext" text-anchor="start" x="40" y="4.680000000000001" style="font-family: 'Open Sans', verdana, arial, sans-serif; font-size: 12px; fill: rgb(42, 63, 95); fill-opacity: 1; white-space: pre;">Test F1</text><g class="layers" style="opacity: 1;"><g class="legendfill"/><g class="legendlines"><path class="js-line" d="M5,0h30" style="fill: none; stroke: rgb(128, 128, 128); stroke-opacity: 1; stroke-width: 2px;"/></g><g class="legendsymbols"><g class="legendpoints"/></g></g><rect class="legendtoggle" x="0" y="-9.5" width="122.71875" height="19" style="fill: rgb(0, 0, 0); fill-opacity: 0;"/></g></g></g><rect class="scrollbar" rx="20" ry="3" width="0" height="0" x="0" y="0" style="fill: rgb(128, 139, 164); fill-opacity: 1;"/></g><g class="g-gtitle"><text class="gtitle" x="51.2" y="50" text-anchor="start" dy="0em" style="font-family: 'Open Sans', verdana, arial, sans-serif; font-size: 17px; fill: rgb(42, 63, 95); opacity: 1; font-weight: normal; white-space: pre;">Training Metrics - logs/FakeNewsNet-gossipcop_max-vocab=10000_pre=v1_domain_T=250_s=5.log</text></g><g class="g-xtitle"><text class="xtitle" x="502" y="537.3" text-anchor="middle" style="font-family: 'Open Sans', verdana, arial, sans-serif; font-size: 14px; fill: rgb(42, 63, 95); opacity: 1; font-weight: normal; white-space: pre;">Epoch</text></g><g class="g-ytitle"><text class="ytitle" transform="rotate(-90,95.965625,298)" x="95.965625" y="298" text-anchor="middle" style="font-family: 'Open Sans', verdana, arial, sans-serif; font-size: 14px; fill: rgb(42, 63, 95); opacity: 1; font-weight: normal; white-space: pre;">Metric Score</text></g></g><g class="menulayer"><g class="updatemenu-container" style="cursor: pointer;"><g class="updatemenu-header-group" transform="translate(12,60)"><g class="updatemenu-header" transform="translate(1,1)" style="pointer-events: all;"><rect class="updatemenu-item-rect" rx="2" ry="2" shape-rendering="crispEdges" x="0" y="0" width="160" height="33" style="stroke: rgb(190, 200, 217); stroke-opacity: 1; fill: rgb(255, 255, 255); fill-opacity: 1; stroke-width: 1px;"/><text class="updatemenu-item-text" text-anchor="start" data-notex="1" x="12" y="19.5" style="font-family: 'Open Sans', verdana, arial, sans-serif; font-size: 12px; fill: rgb(42, 63, 95); fill-opacity: 1; white-space: pre;">All</text></g><text class="updatemenu-header-arrow" text-anchor="end" x="156" y="19.5" style="font-family: 'Open Sans', verdana, arial, sans-serif; font-size: 12px; fill: rgb(42, 63, 95); fill-opacity: 1;">▼</text></g><g class="updatemenu-dropdown-button-group" updatemenu-active-index="-1" style="pointer-events: all;"><rect class="scrollbox-bg" opacity="0" x="0" y="0" width="0" height="0" style="pointer-events: all;"/></g></g></g></svg>