<svg class="main-svg" xmlns="http://www.w3.org/2000/svg" xmlns:xlink="http://www.w3.org/1999/xlink" width="1024" height="576" style="" viewBox="0 0 1024 576"><rect x="0" y="0" width="1024" height="576" style="fill: rgb(255, 255, 255); fill-opacity: 1;"/><defs id="defs-ca8c17"><g class="clips"><clipPath id="clipca8c17xyplot" class="plotclip"><rect width="726" height="396"/></clipPath><clipPath class="axesclip" id="clipca8c17x"><rect x="143" y="0" width="726" height="576"/></clipPath><clipPath class="axesclip" id="clipca8c17y"><rect x="0" y="100" width="1024" height="396"/></clipPath><clipPath class="axesclip" id="clipca8c17xy"><rect x="143" y="100" width="726" height="396"/></clipPath></g><g class="gradients"/><g class="patterns"/></defs><g class="bglayer"><rect class="bg" x="143" y="100" width="726" height="396" style="fill: rgb(229, 236, 246); fill-opacity: 1; stroke-width: 0;"/></g><g class="layer-below"><g class="imagelayer"/><g class="shapelayer"/></g><g class="cartesianlayer"><g class="subplot xy"><g class="layer-subplot"><g class="shapelayer"/><g class="imagelayer"/></g><g class="minor-gridlayer"><g class="x"/><g class="y"/></g><g class="gridlayer"><g class="x"><path class="xgrid crisp" transform="translate(235.57999999999998,0)" d="M0,100v396" style="stroke: rgb(255, 255, 255); stroke-opacity: 1; stroke-width: 1px;"/><path class="xgrid crisp" transform="translate(333.03,0)" d="M0,100v396" style="stroke: rgb(255, 255, 255); stroke-opacity: 1; stroke-width: 1px;"/><path class="xgrid crisp" transform="translate(430.48,0)" d="M0,100v396" style="stroke: rgb(255, 255, 255); stroke-opacity: 1; stroke-width: 1px;"/><path class="xgrid crisp" transform="translate(527.9300000000001,0)" d="M0,100v396" style="stroke: rgb(255, 255, 255); stroke-opacity: 1; stroke-width: 1px;"/><path class="xgrid crisp" transform="translate(625.38,0)" d="M0,100v396" style="stroke: rgb(255, 255, 255); stroke-opacity: 1; stroke-width: 1px;"/><path class="xgrid crisp" transform="translate(722.83,0)" d="M0,100v396" style="stroke: rgb(255, 255, 255); stroke-opacity: 1; stroke-width: 1px;"/><path class="xgrid crisp" transform="translate(820.28,0)" d="M0,100v396" style="stroke: rgb(255, 255, 255); stroke-opacity: 1; stroke-width: 1px;"/></g><g class="y"><path class="ygrid crisp" transform="translate(0,468.61)" d="M143,0h726" style="stroke: rgb(255, 255, 255); stroke-opacity: 1; stroke-width: 1px;"/><path class="ygrid crisp" transform="translate(0,426.43)" d="M143,0h726" style="stroke: rgb(255, 255, 255); stroke-opacity: 1; stroke-width: 1px;"/><path class="ygrid crisp" transform="translate(0,384.25)" d="M143,0h726" style="stroke: rgb(255, 255, 255); stroke-opacity: 1; stroke-width: 1px;"/><path class="ygrid crisp" transform="translate(0,342.08000000000004)" d="M143,0h726" style="stroke: rgb(255, 255, 255); stroke-opacity: 1; stroke-width: 1px;"/><path class="ygrid crisp" transform="translate(0,299.9)" d="M143,0h726" style="stroke: rgb(255, 255, 255); stroke-opacity: 1; stroke-width: 1px;"/><path class="ygrid crisp" transform="translate(0,257.72)" d="M143,0h726" style="stroke: rgb(255, 255, 255); stroke-opacity: 1; stroke-width: 1px;"/><path class="ygrid crisp" transform="translate(0,215.54000000000002)" d="M143,0h726" style="stroke: rgb(255, 255, 255); stroke-opacity: 1; stroke-width: 1px;"/><path class="ygrid crisp" transform="translate(0,173.37)" d="M143,0h726" style="stroke: rgb(255, 255, 255); stroke-opacity: 1; stroke-width: 1px;"/><path class="ygrid crisp" transform="translate(0,131.19)" d="M143,0h726" style="stroke: rgb(255, 255, 255); stroke-opacity: 1; stroke-width: 1px;"/></g></g><g class="zerolinelayer"/><path class="xlines-below"/><path class="ylines-below"/><g class="overlines-below"/><g class="xaxislayer-below"/><g class="yaxislayer-below"/><g class="overaxes-below"/><g class="plot" transform="translate(143,100)" clip-path="url(#clipca8c17xyplot)"><g class="scatterlayer mlayer"><g class="trace scatter trace7d7e16" style="stroke-miterlimit: 2; opacity: 1;"><g class="fills"/><g class="errorbars"/><g class="lines"><path class="js-line" d="M0,365.23L4.87,265.27L9.74,262.95L14.62,257.89L19.49,250.3L24.36,227.95L29.23,235.33L34.11,200.32L38.98,217.82L43.85,220.35L48.72,212.97L53.6,202.85L58.47,220.35L63.34,220.35L68.21,207.91L73.09,190.41L77.96,182.82L82.83,195.47L87.7,175.44L92.58,160.46L97.45,152.87L102.32,160.46L107.19,152.87L112.07,148.02L116.94,148.02L126.68,152.87L131.56,145.49L136.43,137.9L141.3,150.34L146.17,148.02L151.05,135.37L155.92,125.45L160.79,120.39L165.66,130.52L170.54,137.9L175.41,140.43L180.28,145.49L185.15,155.4L190.03,160.46L194.9,152.87L199.77,132.84L204.64,150.34L209.52,120.39L214.39,117.86L219.26,127.99L224.13,125.45L229.01,125.45L233.88,100.36L238.75,95.51L243.62,105.42L248.5,102.89L253.37,105.42L258.24,115.54L263.11,127.99L267.99,125.45L272.86,120.39L277.73,102.89L282.6,107.95L287.48,102.89L292.35,100.36L297.22,102.89L302.09,107.95L306.97,102.89L311.84,100.36L316.71,95.51L321.58,95.51L326.46,120.39L331.33,87.92L336.2,117.86L341.07,132.84L345.95,105.42L350.82,105.42L355.69,107.95L360.56,98.04L365.44,95.51L370.31,95.51L375.18,100.36L380.05,85.39L384.93,105.42L389.8,92.98L394.67,92.98L404.42,92.98L409.29,95.51L414.16,100.36L419.03,90.45L423.91,95.51L428.78,80.54L433.65,80.54L438.52,90.45L443.4,95.51L448.27,85.39L453.14,87.92L458.01,95.51L462.89,87.92L467.76,82.86L472.63,75.47L477.5,90.45L482.38,75.47L487.25,72.94L492.12,82.86L496.99,85.39L501.87,82.86L506.74,87.92L511.61,85.39L516.48,80.54L521.36,75.47L526.23,80.54L531.1,72.94L535.97,80.54L540.85,67.88L545.72,82.86L550.59,85.39L555.46,85.39L560.34,87.92L565.21,72.94L570.08,82.86L574.95,87.92L579.83,75.47L584.7,85.39L589.57,90.45L594.44,87.92L599.32,75.47L604.19,75.47L609.06,82.86L613.93,85.39L618.81,72.94L623.68,80.54L628.55,82.86L633.42,72.94L638.3,72.94L643.17,70.41L648.04,82.86L652.91,78L657.79,80.54L662.66,92.98L667.53,85.39L672.4,72.94L677.28,82.86L682.15,70.41L687.02,75.47L691.89,70.41L696.77,70.41L701.64,57.97L706.51,72.94L711.38,70.41L716.26,70.41L721.13,80.54L726,75.47" style="vector-effect: none; fill: none; stroke: rgb(255, 0, 0); stroke-opacity: 1; stroke-width: 2px; opacity: 1;"/></g><g class="points"/><g class="text"/></g><g class="trace scatter traceb12d51" style="stroke-miterlimit: 2; opacity: 1;"><g class="fills"/><g class="errorbars"/><g class="lines"><path class="js-line" d="M0,265.48L4.87,176.07L9.74,195.89L14.62,185.98L19.49,195.89L24.36,156.03L29.23,205.8L34.11,176.07L38.98,195.89L48.72,156.03L53.6,166.16L58.47,176.07L63.34,176.07L68.21,166.16L73.09,146.12L77.96,146.12L82.83,176.07L92.58,116.39L97.45,136.21L102.32,116.39L107.19,106.47L112.07,96.35L116.94,116.39L126.68,116.39L131.56,96.35L141.3,116.39L146.17,106.47L151.05,126.3L155.92,106.47L160.79,106.47L165.66,76.53L170.54,86.44L175.41,106.47L180.28,106.47L185.15,116.39L190.03,136.21L194.9,166.16L199.77,126.3L204.64,156.03L209.52,116.39L214.39,136.21L219.26,106.47L224.13,136.21L229.01,146.12L233.88,126.3L243.62,106.47L248.5,106.47L258.24,86.44L263.11,116.39L267.99,116.39L272.86,76.53L277.73,96.35L282.6,106.47L287.48,96.35L292.35,106.47L297.22,96.35L302.09,106.47L311.84,126.3L316.71,106.47L321.58,136.21L326.46,106.47L341.07,166.16L345.95,106.47L350.82,96.35L355.69,116.39L360.56,106.47L365.44,76.53L370.31,96.35L375.18,106.47L380.05,106.47L384.93,116.39L389.8,156.03L394.67,126.3L399.54,106.47L404.42,116.39L419.03,146.12L423.91,146.12L428.78,126.3L433.65,136.21L438.52,136.21L443.4,176.07L448.27,146.12L453.14,146.12L458.01,126.3L462.89,136.21L467.76,116.39L472.63,106.47L477.5,126.3L482.38,126.3L487.25,106.47L492.12,126.3L496.99,126.3L501.87,116.39L506.74,106.47L511.61,146.12L516.48,126.3L521.36,126.3L526.23,116.39L531.1,126.3L535.97,96.35L540.85,126.3L545.72,126.3L550.59,136.21L555.46,136.21L560.34,156.03L565.21,166.16L570.08,156.03L574.95,116.39L579.83,126.3L584.7,126.3L589.57,156.03L594.44,146.12L599.32,146.12L604.19,116.39L609.06,136.21L613.93,126.3L618.81,126.3L623.68,116.39L628.55,126.3L633.42,126.3L638.3,116.39L643.17,116.39L648.04,126.3L652.91,126.3L657.79,146.12L662.66,126.3L667.53,136.21L672.4,136.21L677.28,185.98L682.15,146.12L687.02,176.07L691.89,176.07L696.77,156.03L706.51,136.21L711.38,136.21L716.26,166.16L721.13,185.98L726,166.16" style="vector-effect: none; fill: none; stroke: rgb(0, 0, 255); stroke-opacity: 1; stroke-width: 2px; opacity: 1;"/></g><g class="points"/><g class="text"/></g><g class="trace scatter trace255572" style="stroke-miterlimit: 2; opacity: 1;"><g class="fills"/><g class="errorbars"/><g class="lines"><path class="js-line" d="M0,376.2L4.87,273.08L9.74,273.71L14.62,268.44L19.49,242.29L24.36,199.9L29.23,217.4L34.11,196.95L38.98,207.7L43.85,219.51L48.72,213.61L53.6,198L58.47,214.66L63.34,211.08L68.21,191.25L73.09,144.43L77.96,142.96L82.83,136L87.7,126.3L92.58,115.33L97.45,109.85L107.19,121.87L112.07,131.15L116.94,128.2L121.81,118.07L126.68,132.2L131.56,112.38L136.43,104.79L141.3,130.09L151.05,111.75L155.92,111.33L160.79,105.84L165.66,113.86L170.54,110.27L175.41,127.77L185.15,149.07L190.03,161.94L194.9,155.82L199.77,123.98L204.64,149.5L209.52,94.88L214.39,96.14L219.26,107.32L224.13,105.42L229.01,113.86L233.88,66.62L238.75,64.93L243.62,78L248.5,79.48L253.37,66.41L258.24,75.69L263.11,70.62L267.99,71.47L272.86,77.16L277.73,57.97L282.6,61.56L287.48,60.29L292.35,66.62L297.22,70.62L302.09,78L306.97,76.11L311.84,53.96L316.71,76.74L321.58,73.58L326.46,120.39L331.33,67.67L336.2,103.73L341.07,133.05L345.95,95.93L350.82,93.4L355.69,94.03L360.56,66.83L365.44,52.7L370.31,63.03L375.18,77.58L380.05,71.68L384.93,89.18L389.8,80.54L394.67,50.8L399.54,61.13L404.42,44.05L409.29,52.7L414.16,56.28L419.03,46.79L423.91,52.7L428.78,39.83L433.65,44.05L438.52,34.98L443.4,40.89L448.27,45.53L453.14,45.11L458.01,48.06L462.89,49.32L467.76,51.64L472.63,47.85L477.5,55.23L482.38,54.81L487.25,44.26L492.12,53.54L496.99,59.03L501.87,47.85L506.74,57.34L511.61,60.92L516.48,66.2L521.36,49.75L526.23,66.2L531.1,40.47L535.97,51.64L540.85,42.15L545.72,65.35L550.59,57.34L555.46,55.44L560.34,60.92L565.21,55.86L570.08,45.74L574.95,40.47L579.83,19.8L584.7,57.34L589.57,74.21L594.44,75.05L599.32,59.24L604.19,47.85L609.06,68.09L613.93,59.03L618.81,52.7L628.55,65.35L633.42,47.85L638.3,47.85L643.17,34.56L648.04,39.41L652.91,46.16L657.79,39.83L662.66,46.37L667.53,49.75L672.4,45.95L677.28,73.37L682.15,50.8L691.89,52.28L696.77,53.75L701.64,31.19L706.51,51.22L711.38,47.64L716.26,45.95L721.13,63.24L726,62.19" style="vector-effect: none; fill: none; stroke: rgb(0, 128, 0); stroke-opacity: 1; stroke-width: 2px; opacity: 1;"/></g><g class="points"/><g class="text"/></g><g class="trace scatter trace24c43b" style="stroke-miterlimit: 2; opacity: 1;"><g class="fills"/><g class="errorbars"/><g class="lines"><path class="js-line" d="M0,296.48L4.87,205.8L9.74,227.95L14.62,217.4L19.49,224.57L24.36,174.8L29.23,232.37L34.11,206.65L38.98,226.26L48.72,184.5L53.6,194.63L58.47,204.54L63.34,204.54L68.21,192.73L73.09,157.3L77.96,146.12L82.83,172.69L87.7,146.12L92.58,113.86L97.45,143.17L102.32,119.97L107.19,116.39L112.07,111.54L116.94,137.05L121.81,129.88L126.68,129.88L131.56,107.32L141.3,139.58L146.17,116.39L151.05,143.17L155.92,127.56L160.79,127.56L165.66,93.19L170.54,93.61L175.41,130.09L180.28,131.78L185.15,141.69L190.03,165.31L194.9,196.31L199.77,153.08L204.64,185.98L209.52,137.05L214.39,161.31L219.26,127.56L224.13,161.31L229.01,173.12L233.88,146.54L238.75,137.05L243.62,124.4L248.5,124.4L253.37,111.54L258.24,98.46L263.11,113.86L267.99,106.9L272.86,73.58L277.73,107.32L282.6,116.39L287.48,107.32L292.35,120.82L297.22,107.32L302.09,116.39L306.97,129.88L311.84,134.31L316.71,127.56L321.58,156.03L326.46,133.26L331.33,149.28L341.07,196.52L345.95,130.09L350.82,111.54L355.69,133.89L360.56,120.82L365.44,73.58L370.31,115.12L375.18,124.4L380.05,130.09L384.93,141.69L389.8,185.98L394.67,143.17L399.54,124.4L404.42,129.88L419.03,168.48L423.91,171.01L428.78,143.17L433.65,152.45L438.52,148.02L443.4,193.78L448.27,165.31L453.14,161.73L458.01,134.31L462.89,148.02L472.63,124.4L477.5,143.17L482.38,149.28L487.25,124.4L492.12,143.17L496.99,134.31L501.87,125.24L506.74,120.82L511.61,173.12L516.48,151.6L521.36,149.28L526.23,139.58L531.1,146.54L535.97,111.54L540.85,146.54L545.72,149.28L550.59,152.45L555.46,158.99L560.34,184.5L565.21,194.63L570.08,174.8L574.95,125.24L584.7,143.17L589.57,183.03L594.44,174.38L599.32,173.12L604.19,125.24L609.06,162.99L613.93,143.17L618.81,149.28L623.68,139.58L628.55,151.6L633.42,149.28L638.3,137.05L643.17,133.89L648.04,138.95L652.91,138.95L657.79,161.73L662.66,122.5L667.53,148.02L672.4,161.31L677.28,216.14L682.15,173.12L687.02,206.65L691.89,206.65L696.77,184.5L706.51,162.99L711.38,162.99L716.26,195.68L721.13,216.98L726,196.52" style="vector-effect: none; fill: none; stroke: rgb(255, 165, 0); stroke-opacity: 1; stroke-width: 2px; opacity: 1;"/></g><g class="points"/><g class="text"/></g><g class="trace scatter trace5d6c82" style="stroke-miterlimit: 2; opacity: 1;"><g class="fills"/><g class="errorbars"/><g class="lines"><path class="js-line" d="M0,367.34L4.87,293.74L9.74,284.89L14.62,279.82L19.49,292.27L24.36,278.77L29.23,281.93L34.11,233.64L38.98,257.68L43.85,253.25L48.72,243.55L53.6,237.44L58.47,257.47L63.34,259.79L68.21,250.72L73.09,244.82L77.96,234.27L82.83,254.94L87.7,229.42L92.58,211.5L97.45,202.64L102.32,211.5L107.19,197.58L112.07,185.14L116.94,186.82L121.81,195.47L126.68,192.73L131.56,190.41L136.43,182.18L141.3,189.78L146.17,189.99L155.92,158.99L160.79,153.92L170.54,179.86L175.41,174.38L180.28,176.28L185.15,186.61L190.03,185.14L194.9,175.22L199.77,163.84L204.64,176.49L209.52,159.83L214.39,155.19L219.26,165.31L224.13,162.36L229.01,157.51L233.88,141.69L238.75,134.94L243.62,144.43L248.5,139.8L253.37,149.28L258.24,160.46L263.11,180.29L267.99,176.49L272.86,167.21L277.73,148.86L282.6,154.77L292.35,141.69L297.22,143.8L302.09,148.23L306.97,141.27L311.84,146.75L316.71,129.04L321.58,130.73L326.46,143.17L331.33,121.87L336.2,150.97L341.07,156.46L345.95,134.52L350.82,136L355.69,139.8L360.56,137.9L365.44,139.8L370.31,135.79L375.18,136.84L380.05,115.54L384.93,138.53L389.8,122.92L394.67,136.84L399.54,132.84L404.42,139.37L409.29,139.8L414.16,145.91L419.03,134.73L423.91,139.8L428.78,122.92L433.65,121.24L438.52,138.95L443.4,144.01L448.27,127.99L453.14,131.78L458.01,141.48L462.89,130.09L472.63,111.96L477.5,131.36L482.38,108.58L487.25,109.85L492.12,120.82L496.99,122.08L501.87,123.35L506.74,126.72L511.61,121.45L516.48,110.48L521.36,111.11L526.23,110.48L531.1,111.33L535.97,117.86L540.85,102.89L545.72,115.12L550.59,122.92L555.46,123.77L560.34,125.24L565.21,103.94L570.08,124.19L574.95,133.47L579.83,122.71L584.7,122.92L589.57,122.29L594.44,117.65L599.32,106.05L604.19,111.96L609.06,113.43L613.93,122.08L618.81,105.63L623.68,114.49L628.55,115.12L633.42,108.16L638.3,108.16L643.17,110.06L648.04,126.72L652.91,116.6L657.79,122.92L662.66,138.53L667.53,126.3L672.4,109.01L677.28,110.06L682.15,102.68L687.02,110.27L691.89,101.84L696.77,100.99L701.64,92.77L706.51,106.47L711.38,104.37L716.26,105.21L721.13,112.17L726,104.58" style="vector-effect: none; fill: none; stroke: rgb(128, 0, 128); stroke-opacity: 1; stroke-width: 2px; opacity: 1;"/></g><g class="points"/><g class="text"/></g><g class="trace scatter trace328c18" style="stroke-miterlimit: 2; opacity: 1;"><g class="fills"/><g class="errorbars"/><g class="lines"><path class="js-line" d="M0,270.97L4.87,205.8L9.74,215.93L14.62,208.12L19.49,238.49L24.36,207.07L29.23,257.68L34.11,200.32L38.98,233.01L43.85,200.32L48.72,184.5L58.47,211.5L63.34,211.5L68.21,203.69L73.09,204.96L77.96,216.14L82.83,256.63L92.58,181.34L97.45,196.95L107.19,156.46L112.07,137.26L116.94,153.08L121.81,164.26L126.68,164.26L131.56,142.96L141.3,147.39L146.17,156.46L151.05,172.27L155.92,139.58L160.79,139.58L165.66,110.27L170.54,134.94L175.41,133.89L180.28,128.2L185.15,141.69L190.03,146.12L194.9,175.44L199.77,149.5L204.64,173.12L209.52,153.08L214.39,168.69L219.26,139.58L224.13,168.69L229.01,176.7L233.88,166.58L238.75,153.08L243.62,145.07L248.5,145.07L253.37,137.26L258.24,129.46L263.11,181.34L267.99,186.82L272.86,132.84L277.73,142.96L282.6,156.46L287.48,142.96L292.35,150.76L297.22,142.96L302.09,156.46L306.97,164.26L311.84,183.45L316.71,139.58L321.58,180.07L326.46,122.5L331.33,160.88L336.2,176.7L341.07,181.13L345.95,133.89L350.82,137.26L355.69,158.56L360.56,150.76L365.44,132.84L370.31,131.57L375.18,145.07L380.05,133.89L384.93,141.69L389.8,173.12L394.67,172.27L399.54,145.07L404.42,164.26L409.29,172.27L419.03,187.88L423.91,182.18L428.78,172.27L433.65,185.77L438.52,191.25L443.4,234.06L448.27,193.57L453.14,199.27L458.01,183.45L462.89,191.25L467.76,153.08L472.63,145.07L477.5,172.27L482.38,160.88L487.25,145.07L492.12,172.27L496.99,183.45L501.87,169.95L506.74,150.76L511.61,176.7L516.48,155.19L521.36,160.88L526.23,147.39L531.1,166.58L535.97,137.26L540.85,166.58L545.72,160.88L550.59,185.77L555.46,174.38L560.34,184.5L565.21,198L570.08,207.07L574.95,169.95L579.83,183.45L584.7,172.27L589.57,190.2L594.44,171.01L599.32,176.7L609.06,162.99L613.93,172.27L618.81,160.88L623.68,147.39L628.55,155.19L633.42,160.88L638.3,153.08L643.17,158.56L648.04,177.75L652.91,177.75L657.79,199.27L662.66,194.84L667.53,191.25L672.4,168.69L677.28,191.04L682.15,176.7L687.02,200.32L691.89,200.32L696.77,184.5L701.64,176.7L706.51,162.99L711.38,162.99L716.26,192.31L721.13,196.73L726,181.13" style="vector-effect: none; fill: none; stroke: rgb(255, 192, 203); stroke-opacity: 1; stroke-width: 2px; opacity: 1;"/></g><g class="points"/><g class="text"/></g><g class="trace scatter tracedce839" style="stroke-miterlimit: 2; opacity: 1;"><g class="fills"/><g class="errorbars"/><g class="lines"><path class="js-line" d="M0,374.09L4.87,286.78L9.74,280.46L14.62,275.4L19.49,280.67L24.36,264.01L29.23,268.44L34.11,222.67L38.98,245.24L43.85,243.13L48.72,234.06L53.6,226.05L58.47,245.87L63.34,247.56L68.21,236.8L77.96,216.56L82.83,236.59L87.7,210.65L92.58,192.52L97.45,183.66L102.32,192.52L107.19,180.29L112.07,170.37L116.94,171.43L121.81,177.75L126.68,177.12L131.56,172.48L136.43,164.26L141.3,174.17L146.17,173.33L151.05,158.77L155.92,145.07L160.79,139.8L170.54,162.57L175.41,160.88L180.28,164.47L185.15,174.8L190.03,176.7L194.9,168.05L199.77,151.39L204.64,167.21L209.52,142.75L214.39,138.95L219.26,149.71L224.13,146.75L229.01,144.22L233.88,122.92L238.75,116.6L243.62,126.93L248.5,123.13L253.37,129.46L258.24,140.85L263.11,158.77L267.99,155.19L272.86,147.18L277.73,127.99L282.6,133.89L287.48,127.56L292.35,122.92L297.22,125.24L302.09,130.09L306.97,123.98L311.84,125.67L316.71,113.64L321.58,114.49L326.46,134.73L331.33,106.05L336.2,136.84L341.07,148.02L345.95,121.87L350.82,122.71L355.69,125.88L360.56,119.55L365.44,119.34L370.31,117.02L375.18,120.18L380.05,101.62L384.93,123.98L389.8,109.43L394.67,116.39L399.54,114.07L404.42,117.65L409.29,119.34L414.16,125.03L419.03,113.86L423.91,119.34L428.78,102.26L433.65,101.41L438.52,116.18L443.4,121.66L448.27,107.74L453.14,110.9L458.01,120.18L462.89,110.06L467.76,103.1L472.63,94.03L477.5,112.17L482.38,92.56L487.25,91.71L492.12,102.68L496.99,104.79L501.87,103.94L506.74,108.37L511.61,104.37L516.48,96.35L521.36,93.82L526.23,96.35L531.1,92.35L535.97,99.73L540.85,85.6L545.72,99.94L550.59,105.21L555.46,105.63L560.34,107.53L565.21,88.97L570.08,104.37L574.95,111.96L579.83,99.52L584.7,105.21L589.57,107.74L594.44,104.16L599.32,91.5L604.19,94.03L613.93,104.79L618.81,89.81L623.68,98.25L628.55,99.94L633.42,90.87L638.3,90.87L643.17,90.45L648.04,105.63L652.91,97.83L657.79,102.26L662.66,117.23L667.53,106.69L672.4,91.29L677.28,97.83L682.15,86.86L687.02,93.4L691.89,86.65L696.77,86.23L701.64,75.05L706.51,90.24L711.38,87.71L716.26,88.13L721.13,97.2L726,90.87" style="vector-effect: none; fill: none; stroke: rgb(165, 42, 42); stroke-opacity: 1; stroke-width: 2px; opacity: 1;"/></g><g class="points"/><g class="text"/></g><g class="trace scatter trace65b710" style="stroke-miterlimit: 2; opacity: 1;"><g class="fills"/><g class="errorbars"/><g class="lines"><path class="js-line" d="M0,288.47L4.87,205.8L9.74,222.67L14.62,213.18L19.49,232.37L24.36,193.99L29.23,247.35L34.11,203.69L38.98,229.63L43.85,203.69L48.72,184.5L58.47,208.12L63.34,208.12L68.21,198.63L73.09,187.03L77.96,192.73L82.83,231.32L92.58,157.72L97.45,177.33L102.32,155.19L107.19,140.43L112.07,126.3L116.94,145.7L121.81,150.34L126.68,150.34L131.56,128.41L136.43,136L141.3,143.8L146.17,140.43L151.05,160.04L155.92,133.89L160.79,133.89L165.66,102.47L175.41,131.99L180.28,130.09L185.15,141.69L190.03,157.3L194.9,187.88L199.77,151.39L204.64,180.29L209.52,145.7L214.39,165.1L219.26,133.89L224.13,165.1L229.01,174.8L233.88,157.72L238.75,145.7L243.62,136L248.5,136L258.24,116.39L263.11,157.72L267.99,160.46L272.86,110.69L277.73,128.41L282.6,140.43L287.48,128.41L292.35,138.11L297.22,128.41L302.09,140.43L306.97,150.34L311.84,164.89L316.71,133.89L321.58,169.74L326.46,128.2L331.33,155.61L336.2,174.8L341.07,189.99L345.95,131.99L350.82,126.3L355.69,148.02L360.56,138.11L365.44,110.69L370.31,124.19L375.18,136L380.05,131.99L384.93,141.69L389.8,180.29L394.67,160.04L399.54,136L404.42,150.34L409.29,160.04L419.03,179.44L423.91,177.12L428.78,160.04L433.65,172.06L438.52,174.59L443.4,218.67L448.27,181.76L453.14,184.29L458.01,164.89L462.89,174.59L467.76,145.7L472.63,136L477.5,160.04L482.38,155.61L487.25,136L492.12,160.04L496.99,164.89L501.87,152.66L506.74,138.11L511.61,174.8L516.48,153.5L521.36,155.61L526.23,143.8L531.1,157.72L535.97,126.3L540.85,157.72L545.72,155.61L550.59,172.06L555.46,167.42L560.34,184.5L565.21,196.31L570.08,193.99L574.95,152.66L579.83,164.89L584.7,160.04L589.57,186.61L594.44,172.69L599.32,174.8L604.19,152.66L609.06,162.99L613.93,160.04L618.81,155.61L623.68,143.8L628.55,153.5L633.42,155.61L638.3,145.7L643.17,148.02L648.04,162.36L652.91,162.36L657.79,184.29L662.66,170.37L667.53,174.59L672.4,165.1L677.28,207.07L682.15,174.8L687.02,203.69L691.89,203.69L696.77,184.5L701.64,174.8L706.51,162.99L711.38,162.99L716.26,193.99L721.13,208.97L726,189.99" style="vector-effect: none; fill: none; stroke: rgb(128, 128, 128); stroke-opacity: 1; stroke-width: 2px; opacity: 1;"/></g><g class="points"/><g class="text"/></g></g></g><g class="overplot"/><path class="xlines-above crisp" d="M0,0" style="fill: none;"/><path class="ylines-above crisp" d="M0,0" style="fill: none;"/><g class="overlines-above"/><g class="xaxislayer-above"><g class="xtick"><text text-anchor="middle" x="0" y="509" transform="translate(235.57999999999998,0)" style="font-family: 'Open Sans', verdana, arial, sans-serif; font-size: 12px; fill: rgb(42, 63, 95); fill-opacity: 1; white-space: pre; opacity: 1;">20</text></g><g class="xtick"><text text-anchor="middle" x="0" y="509" style="font-family: 'Open Sans', verdana, arial, sans-serif; font-size: 12px; fill: rgb(42, 63, 95); fill-opacity: 1; white-space: pre; opacity: 1;" transform="translate(333.03,0)">40</text></g><g class="xtick"><text text-anchor="middle" x="0" y="509" style="font-family: 'Open Sans', verdana, arial, sans-serif; font-size: 12px; fill: rgb(42, 63, 95); fill-opacity: 1; white-space: pre; opacity: 1;" transform="translate(430.48,0)">60</text></g><g class="xtick"><text text-anchor="middle" x="0" y="509" style="font-family: 'Open Sans', verdana, arial, sans-serif; font-size: 12px; fill: rgb(42, 63, 95); fill-opacity: 1; white-space: pre; opacity: 1;" transform="translate(527.9300000000001,0)">80</text></g><g class="xtick"><text text-anchor="middle" x="0" y="509" style="font-family: 'Open Sans', verdana, arial, sans-serif; font-size: 12px; fill: rgb(42, 63, 95); fill-opacity: 1; white-space: pre; opacity: 1;" transform="translate(625.38,0)">100</text></g><g class="xtick"><text text-anchor="middle" x="0" y="509" style="font-family: 'Open Sans', verdana, arial, sans-serif; font-size: 12px; fill: rgb(42, 63, 95); fill-opacity: 1; white-space: pre; opacity: 1;" transform="translate(722.83,0)">120</text></g><g class="xtick"><text text-anchor="middle" x="0" y="509" style="font-family: 'Open Sans', verdana, arial, sans-serif; font-size: 12px; fill: rgb(42, 63, 95); fill-opacity: 1; white-space: pre; opacity: 1;" transform="translate(820.28,0)">140</text></g></g><g class="yaxislayer-above"><g class="ytick"><text text-anchor="end" x="142" y="4.199999999999999" transform="translate(0,468.61)" style="font-family: 'Open Sans', verdana, arial, sans-serif; font-size: 12px; fill: rgb(42, 63, 95); fill-opacity: 1; white-space: pre; opacity: 1;">72</text></g><g class="ytick"><text text-anchor="end" x="142" y="4.199999999999999" style="font-family: 'Open Sans', verdana, arial, sans-serif; font-size: 12px; fill: rgb(42, 63, 95); fill-opacity: 1; white-space: pre; opacity: 1;" transform="translate(0,426.43)">74</text></g><g class="ytick"><text text-anchor="end" x="142" y="4.199999999999999" style="font-family: 'Open Sans', verdana, arial, sans-serif; font-size: 12px; fill: rgb(42, 63, 95); fill-opacity: 1; white-space: pre; opacity: 1;" transform="translate(0,384.25)">76</text></g><g class="ytick"><text text-anchor="end" x="142" y="4.199999999999999" style="font-family: 'Open Sans', verdana, arial, sans-serif; font-size: 12px; fill: rgb(42, 63, 95); fill-opacity: 1; white-space: pre; opacity: 1;" transform="translate(0,342.08000000000004)">78</text></g><g class="ytick"><text text-anchor="end" x="142" y="4.199999999999999" style="font-family: 'Open Sans', verdana, arial, sans-serif; font-size: 12px; fill: rgb(42, 63, 95); fill-opacity: 1; white-space: pre; opacity: 1;" transform="translate(0,299.9)">80</text></g><g class="ytick"><text text-anchor="end" x="142" y="4.199999999999999" style="font-family: 'Open Sans', verdana, arial, sans-serif; font-size: 12px; fill: rgb(42, 63, 95); fill-opacity: 1; white-space: pre; opacity: 1;" transform="translate(0,257.72)">82</text></g><g class="ytick"><text text-anchor="end" x="142" y="4.199999999999999" style="font-family: 'Open Sans', verdana, arial, sans-serif; font-size: 12px; fill: rgb(42, 63, 95); fill-opacity: 1; white-space: pre; opacity: 1;" transform="translate(0,215.54000000000002)">84</text></g><g class="ytick"><text text-anchor="end" x="142" y="4.199999999999999" style="font-family: 'Open Sans', verdana, arial, sans-serif; font-size: 12px; fill: rgb(42, 63, 95); fill-opacity: 1; white-space: pre; opacity: 1;" transform="translate(0,173.37)">86</text></g><g class="ytick"><text text-anchor="end" x="142" y="4.199999999999999" style="font-family: 'Open Sans', verdana, arial, sans-serif; font-size: 12px; fill: rgb(42, 63, 95); fill-opacity: 1; white-space: pre; opacity: 1;" transform="translate(0,131.19)">88</text></g></g><g class="overaxes-above"/></g></g><g class="polarlayer"/><g class="smithlayer"/><g class="ternarylayer"/><g class="geolayer"/><g class="funnelarealayer"/><g class="pielayer"/><g class="iciclelayer"/><g class="treemaplayer"/><g class="sunburstlayer"/><g class="glimages"/><defs id="topdefs-ca8c17"><g class="clips"/><clipPath id="legendca8c17"><rect width="128" height="162" x="0" y="0"/></clipPath></defs><g class="layer-above"><g class="imagelayer"/><g class="shapelayer"/></g><g class="infolayer"><g class="legend" pointer-events="all" transform="translate(883.52,100)"><rect class="bg" shape-rendering="crispEdges" width="128" height="162" x="0" y="0" style="stroke: rgb(68, 68, 68); stroke-opacity: 1; fill: rgb(255, 255, 255); fill-opacity: 1; stroke-width: 0px;"/><g class="scrollbox" transform="" clip-path="url(#legendca8c17)"><g class="groups"><g class="traces" transform="translate(0,14.5)" style="opacity: 1;"><text class="legendtext" text-anchor="start" x="40" y="4.680000000000001" style="font-family: 'Open Sans', verdana, arial, sans-serif; font-size: 12px; fill: rgb(42, 63, 95); fill-opacity: 1; white-space: pre;">Train Accuracy</text><g class="layers" style="opacity: 1;"><g class="legendfill"/><g class="legendlines"><path class="js-line" d="M5,0h30" style="fill: none; stroke: rgb(255, 0, 0); stroke-opacity: 1; stroke-width: 2px;"/></g><g class="legendsymbols"><g class="legendpoints"/></g></g><rect class="legendtoggle" x="0" y="-9.5" width="122.71875" height="19" style="fill: rgb(0, 0, 0); fill-opacity: 0;"/></g><g class="traces" transform="translate(0,33.5)" style="opacity: 1;"><text class="legendtext" text-anchor="start" x="40" y="4.680000000000001" style="font-family: 'Open Sans', verdana, arial, sans-serif; font-size: 12px; fill: rgb(42, 63, 95); fill-opacity: 1; white-space: pre;">Test Accuracy</text><g class="layers" style="opacity: 1;"><g class="legendfill"/><g class="legendlines"><path class="js-line" d="M5,0h30" style="fill: none; stroke: rgb(0, 0, 255); stroke-opacity: 1; stroke-width: 2px;"/></g><g class="legendsymbols"><g class="legendpoints"/></g></g><rect class="legendtoggle" x="0" y="-9.5" width="122.71875" height="19" style="fill: rgb(0, 0, 0); fill-opacity: 0;"/></g><g class="traces" transform="translate(0,52.5)" style="opacity: 1;"><text class="legendtext" text-anchor="start" x="40" y="4.680000000000001" style="font-family: 'Open Sans', verdana, arial, sans-serif; font-size: 12px; fill: rgb(42, 63, 95); fill-opacity: 1; white-space: pre;">Train Precision</text><g class="layers" style="opacity: 1;"><g class="legendfill"/><g class="legendlines"><path class="js-line" d="M5,0h30" style="fill: none; stroke: rgb(0, 128, 0); stroke-opacity: 1; stroke-width: 2px;"/></g><g class="legendsymbols"><g class="legendpoints"/></g></g><rect class="legendtoggle" x="0" y="-9.5" width="122.71875" height="19" style="fill: rgb(0, 0, 0); fill-opacity: 0;"/></g><g class="traces" transform="translate(0,71.5)" style="opacity: 1;"><text class="legendtext" text-anchor="start" x="40" y="4.680000000000001" style="font-family: 'Open Sans', verdana, arial, sans-serif; font-size: 12px; fill: rgb(42, 63, 95); fill-opacity: 1; white-space: pre;">Test Precision</text><g class="layers" style="opacity: 1;"><g class="legendfill"/><g class="legendlines"><path class="js-line" d="M5,0h30" style="fill: none; stroke: rgb(255, 165, 0); stroke-opacity: 1; stroke-width: 2px;"/></g><g class="legendsymbols"><g class="legendpoints"/></g></g><rect class="legendtoggle" x="0" y="-9.5" width="122.71875" height="19" style="fill: rgb(0, 0, 0); fill-opacity: 0;"/></g><g class="traces" transform="translate(0,90.5)" style="opacity: 1;"><text class="legendtext" text-anchor="start" x="40" y="4.680000000000001" style="font-family: 'Open Sans', verdana, arial, sans-serif; font-size: 12px; fill: rgb(42, 63, 95); fill-opacity: 1; white-space: pre;">Train Recall</text><g class="layers" style="opacity: 1;"><g class="legendfill"/><g class="legendlines"><path class="js-line" d="M5,0h30" style="fill: none; stroke: rgb(128, 0, 128); stroke-opacity: 1; stroke-width: 2px;"/></g><g class="legendsymbols"><g class="legendpoints"/></g></g><rect class="legendtoggle" x="0" y="-9.5" width="122.71875" height="19" style="fill: rgb(0, 0, 0); fill-opacity: 0;"/></g><g class="traces" transform="translate(0,109.5)" style="opacity: 1;"><text class="legendtext" text-anchor="start" x="40" y="4.680000000000001" style="font-family: 'Open Sans', verdana, arial, sans-serif; font-size: 12px; fill: rgb(42, 63, 95); fill-opacity: 1; white-space: pre;">Test Recall</text><g class="layers" style="opacity: 1;"><g class="legendfill"/><g class="legendlines"><path class="js-line" d="M5,0h30" style="fill: none; stroke: rgb(255, 192, 203); stroke-opacity: 1; stroke-width: 2px;"/></g><g class="legendsymbols"><g class="legendpoints"/></g></g><rect class="legendtoggle" x="0" y="-9.5" width="122.71875" height="19" style="fill: rgb(0, 0, 0); fill-opacity: 0;"/></g><g class="traces" transform="translate(0,128.5)" style="opacity: 1;"><text class="legendtext" text-anchor="start" x="40" y="4.680000000000001" style="font-family: 'Open Sans', verdana, arial, sans-serif; font-size: 12px; fill: rgb(42, 63, 95); fill-opacity: 1; white-space: pre;">Train F1</text><g class="layers" style="opacity: 1;"><g class="legendfill"/><g class="legendlines"><path class="js-line" d="M5,0h30" style="fill: none; stroke: rgb(165, 42, 42); stroke-opacity: 1; stroke-width: 2px;"/></g><g class="legendsymbols"><g class="legendpoints"/></g></g><rect class="legendtoggle" x="0" y="-9.5" width="122.71875" height="19" style="fill: rgb(0, 0, 0); fill-opacity: 0;"/></g><g class="traces" transform="translate(0,147.5)" style="opacity: 1;"><text class="legendtext" text-anchor="start" x="40" y="4.680000000000001" style="font-family: 'Open Sans', verdana, arial, sans-serif; font-size: 12px; fill: rgb(42, 63, 95); fill-opacity: 1; white-space: pre;">Test F1</text><g class="layers" style="opacity: 1;"><g class="legendfill"/><g class="legendlines"><path class="js-line" d="M5,0h30" style="fill: none; stroke: rgb(128, 128, 128); stroke-opacity: 1; stroke-width: 2px;"/></g><g class="legendsymbols"><g class="legendpoints"/></g></g><rect class="legendtoggle" x="0" y="-9.5" width="122.71875" height="19" style="fill: rgb(0, 0, 0); fill-opacity: 0;"/></g></g></g><rect class="scrollbar" rx="20" ry="3" width="0" height="0" x="0" y="0" style="fill: rgb(128, 139, 164); fill-opacity: 1;"/></g><g class="g-gtitle"><text class="gtitle" x="51.2" y="50" text-anchor="start" dy="0em" style="font-family: 'Open Sans', verdana, arial, sans-serif; font-size: 17px; fill: rgb(42, 63, 95); opacity: 1; font-weight: normal; white-space: pre;">Training Metrics - logs/FakeNewsNet-politifact_max-vocab=15000_pre=v2_domain_T=250_s=5.log</text></g><g class="g-xtitle"><text class="xtitle" x="506" y="537.3" text-anchor="middle" style="font-family: 'Open Sans', verdana, arial, sans-serif; font-size: 14px; fill: rgb(42, 63, 95); opacity: 1; font-weight: normal; white-space: pre;">Epoch</text></g><g class="g-ytitle"><text class="ytitle" transform="rotate(-90,103.965625,298)" x="103.965625" y="298" text-anchor="middle" style="font-family: 'Open Sans', verdana, arial, sans-serif; font-size: 14px; fill: rgb(42, 63, 95); opacity: 1; font-weight: normal; white-space: pre;">Metric Score</text></g></g><g class="menulayer"><g class="updatemenu-container" style="cursor: pointer;"><g class="updatemenu-header-group" transform="translate(12,60)"><g class="updatemenu-header" transform="translate(1,1)" style="pointer-events: all;"><rect class="updatemenu-item-rect" rx="2" ry="2" shape-rendering="crispEdges" x="0" y="0" width="167" height="33" style="stroke: rgb(190, 200, 217); stroke-opacity: 1; fill: rgb(255, 255, 255); fill-opacity: 1; stroke-width: 1px;"/><text class="updatemenu-item-text" text-anchor="start" data-notex="1" x="12" y="19.5" style="font-family: 'Open Sans', verdana, arial, sans-serif; font-size: 12px; fill: rgb(42, 63, 95); fill-opacity: 1; white-space: pre;">All</text></g><text class="updatemenu-header-arrow" text-anchor="end" x="163" y="19.5" style="font-family: 'Open Sans', verdana, arial, sans-serif; font-size: 12px; fill: rgb(42, 63, 95); fill-opacity: 1;">▼</text></g><g class="updatemenu-dropdown-button-group" updatemenu-active-index="-1" style="pointer-events: all;"><rect class="scrollbox-bg" opacity="0" x="0" y="0" width="0" height="0" style="pointer-events: all;"/></g></g></g></svg>