<svg class="main-svg" xmlns="http://www.w3.org/2000/svg" xmlns:xlink="http://www.w3.org/1999/xlink" width="1024" height="576" style="" viewBox="0 0 1024 576"><rect x="0" y="0" width="1024" height="576" style="fill: rgb(255, 255, 255); fill-opacity: 1;"/><defs id="defs-5f419e"><g class="clips"><clipPath id="clip5f419exyplot" class="plotclip"><rect width="729" height="396"/></clipPath><clipPath class="axesclip" id="clip5f419ex"><rect x="140" y="0" width="729" height="576"/></clipPath><clipPath class="axesclip" id="clip5f419ey"><rect x="0" y="100" width="1024" height="396"/></clipPath><clipPath class="axesclip" id="clip5f419exy"><rect x="140" y="100" width="729" height="396"/></clipPath></g><g class="gradients"/><g class="patterns"/></defs><g class="bglayer"><rect class="bg" x="140" y="100" width="729" height="396" style="fill: rgb(229, 236, 246); fill-opacity: 1; stroke-width: 0;"/></g><g class="layer-below"><g class="imagelayer"/><g class="shapelayer"/></g><g class="cartesianlayer"><g class="subplot xy"><g class="layer-subplot"><g class="shapelayer"/><g class="imagelayer"/></g><g class="minor-gridlayer"><g class="x"/><g class="y"/></g><g class="gridlayer"><g class="x"><path class="xgrid crisp" transform="translate(232.95999999999998,0)" d="M0,100v396" style="stroke: rgb(255, 255, 255); stroke-opacity: 1; stroke-width: 1px;"/><path class="xgrid crisp" transform="translate(330.81,0)" d="M0,100v396" style="stroke: rgb(255, 255, 255); stroke-opacity: 1; stroke-width: 1px;"/><path class="xgrid crisp" transform="translate(428.66,0)" d="M0,100v396" style="stroke: rgb(255, 255, 255); stroke-opacity: 1; stroke-width: 1px;"/><path class="xgrid crisp" transform="translate(526.52,0)" d="M0,100v396" style="stroke: rgb(255, 255, 255); stroke-opacity: 1; stroke-width: 1px;"/><path class="xgrid crisp" transform="translate(624.37,0)" d="M0,100v396" style="stroke: rgb(255, 255, 255); stroke-opacity: 1; stroke-width: 1px;"/><path class="xgrid crisp" transform="translate(722.22,0)" d="M0,100v396" style="stroke: rgb(255, 255, 255); stroke-opacity: 1; stroke-width: 1px;"/><path class="xgrid crisp" transform="translate(820.07,0)" d="M0,100v396" style="stroke: rgb(255, 255, 255); stroke-opacity: 1; stroke-width: 1px;"/></g><g class="y"><path class="ygrid crisp" transform="translate(0,469.23)" d="M140,0h729" style="stroke: rgb(255, 255, 255); stroke-opacity: 1; stroke-width: 1px;"/><path class="ygrid crisp" transform="translate(0,382.14)" d="M140,0h729" style="stroke: rgb(255, 255, 255); stroke-opacity: 1; stroke-width: 1px;"/><path class="ygrid crisp" transform="translate(0,295.03999999999996)" d="M140,0h729" style="stroke: rgb(255, 255, 255); stroke-opacity: 1; stroke-width: 1px;"/><path class="ygrid crisp" transform="translate(0,207.94)" d="M140,0h729" style="stroke: rgb(255, 255, 255); stroke-opacity: 1; stroke-width: 1px;"/><path class="ygrid crisp" transform="translate(0,120.85)" d="M140,0h729" style="stroke: rgb(255, 255, 255); stroke-opacity: 1; stroke-width: 1px;"/></g></g><g class="zerolinelayer"/><path class="xlines-below"/><path class="ylines-below"/><g class="overlines-below"/><g class="xaxislayer-below"/><g class="yaxislayer-below"/><g class="overaxes-below"/><g class="plot" transform="translate(140,100)" clip-path="url(#clip5f419exyplot)"><g class="scatterlayer mlayer"><g class="trace scatter trace1c54c5" style="stroke-miterlimit: 2; opacity: 1;"><g class="fills"/><g class="errorbars"/><g class="lines"><path class="js-line" d="M0,69.45L4.89,57.6L9.79,61.26L14.68,64.05L19.57,56.21L24.46,56.21L29.36,53.42L34.25,51.5L39.14,54.99L44.03,55.34L48.93,51.68L53.82,49.41L58.71,53.07L63.6,53.42L68.5,52.2L73.39,51.68L78.28,52.03L88.07,52.37L92.96,50.81L102.74,46.1L107.64,50.81L112.53,46.8L117.42,48.72L122.32,49.06L127.21,50.63L136.99,48.89L141.89,50.98L151.67,51.15L156.56,48.89L161.46,50.28L166.35,52.55L171.24,51.68L176.13,53.59L181.03,54.64L185.92,49.41L190.81,53.59L195.7,52.9L200.6,51.5L205.49,51.33L210.38,50.11L215.28,51.5L220.17,48.54L225.06,49.41L229.95,50.98L234.85,50.28L244.63,51.33L249.52,54.64L254.42,52.03L259.31,52.03L264.2,52.55L269.09,52.2L273.99,49.24L278.88,49.59L283.77,52.55L288.66,50.98L293.56,53.77L298.45,53.77L308.23,51.5L313.13,48.89L318.02,52.03L322.91,49.41L327.81,46.1L332.7,45.23L337.59,45.93L342.48,47.67L352.27,50.63L357.16,49.94L362.05,51.5L366.95,56.9L371.84,46.63L376.73,49.59L381.62,49.76L386.52,46.8L391.41,47.15L396.3,49.41L406.09,51.68L410.98,53.94L415.87,50.11L420.77,49.41L425.66,48.89L430.55,51.15L435.44,50.46L440.34,48.72L445.23,44.36L450.12,47.5L455.01,49.41L459.91,47.32L464.8,50.98L469.69,50.11L474.58,52.03L479.48,49.94L484.37,47.5L489.26,47.67L494.15,84.43L499.05,46.8L503.94,48.37L508.83,46.28L513.72,47.15L518.62,44.19L528.4,47.32L533.3,44.54L538.19,43.49L543.08,46.1L547.97,45.23L552.87,46.8L562.65,46.28L567.54,49.24L572.44,45.93L577.33,47.85L582.22,46.1L587.11,47.15L596.9,47.85L601.79,49.59L606.68,46.97L611.58,46.8L616.47,49.06L621.36,48.72L626.26,49.94L631.15,48.54L636.04,48.19L640.93,46.45L645.83,49.06L650.72,47.67L660.5,48.54L665.4,47.85L670.29,48.72L675.18,81.29L680.07,48.72L684.97,47.67L689.86,48.19L694.75,51.68L704.54,52.03L709.43,50.28L719.21,46.8L724.11,48.19L729,48.19" style="vector-effect: none; fill: none; stroke: rgb(255, 0, 0); stroke-opacity: 1; stroke-width: 2px; opacity: 1;"/></g><g class="points"/><g class="text"/></g><g class="trace scatter trace4e46e9" style="stroke-miterlimit: 2; opacity: 1;"><g class="fills"/><g class="errorbars"/><g class="lines"><path class="js-line" d="M0,64.74L4.89,55.34L9.79,58.99L14.68,60.91L19.57,54.64L24.46,54.29L29.36,51.5L34.25,50.28L39.14,50.98L44.03,54.29L48.93,52.2L53.82,48.72L58.71,54.64L63.6,56.21L68.5,54.64L73.39,54.99L78.28,53.77L83.17,54.29L88.07,51.5L92.96,52.2L97.85,49.06L102.74,44.71L107.64,53.42L112.53,47.85L117.42,47.85L122.32,48.72L127.21,55.86L132.1,54.64L136.99,50.98L141.89,55.34L146.78,56.55L156.56,52.55L161.46,53.07L166.35,57.43L171.24,55.34L176.13,59.69L181.03,55.86L185.92,48.72L190.81,60.04L195.7,60.04L200.6,53.42L205.49,50.98L210.38,51.85L215.28,53.07L220.17,53.07L225.06,49.94L229.95,50.98L234.85,50.28L239.74,50.63L244.63,50.98L249.52,54.64L259.31,54.64L264.2,51.5L269.09,51.5L273.99,47.15L278.88,48.72L283.77,52.55L288.66,48.72L293.56,50.28L298.45,57.43L303.34,56.55L308.23,56.9L313.13,54.64L318.02,53.77L322.91,48.72L327.81,45.23L332.7,44.01L337.59,44.01L342.48,50.98L347.38,49.94L352.27,54.64L357.16,55.34L362.05,56.9L366.95,57.77L371.84,47.85L376.73,50.63L381.62,48.72L386.52,47.85L391.41,49.06L396.3,55.86L401.19,55.86L406.09,57.77L410.98,62.48L420.77,55.86L425.66,54.64L430.55,55.86L435.44,58.12L440.34,53.07L445.23,50.98L450.12,54.64L455.01,53.07L459.91,52.2L464.8,55.86L469.69,52.55L474.58,56.21L479.48,52.2L484.37,50.98L489.26,53.77L494.15,92.44L499.05,48.37L503.94,50.63L508.83,47.85L513.72,47.15L518.62,47.15L523.51,49.41L528.4,54.64L533.3,46.8L538.19,41.92L543.08,47.15L547.97,44.01L552.87,47.5L562.65,43.66L567.54,50.28L572.44,43.66L577.33,48.72L582.22,47.5L587.11,47.15L592.01,47.85L596.9,47.5L601.79,47.15L606.68,45.23L616.47,52.55L621.36,52.55L626.26,50.98L631.15,50.28L636.04,48.37L640.93,44.71L645.83,47.5L650.72,44.01L655.61,43.66L660.5,45.23L665.4,52.2L670.29,51.5L675.18,90L680.07,52.2L684.97,47.85L689.86,45.58L699.64,52.55L704.54,53.07L709.43,55.34L714.32,50.28L719.21,51.85L724.11,51.5L729,49.94" style="vector-effect: none; fill: none; stroke: rgb(0, 0, 255); stroke-opacity: 1; stroke-width: 2px; opacity: 1;"/></g><g class="points"/><g class="text"/></g><g class="trace scatter trace276400" style="stroke-miterlimit: 2; opacity: 1;"><g class="fills"/><g class="errorbars"/><g class="lines"><path class="js-line" d="M0,34.61L4.89,37.92L9.79,30.95L19.57,65.96L24.46,34.08L29.36,45.23L34.25,50.81L39.14,34.78L44.03,48.19L48.93,33.56L53.82,30.77L58.71,52.9L63.6,31.65L68.5,35.3L73.39,35.3L83.17,40.18L88.07,36L92.96,33.21L97.85,34.08L102.74,38.79L107.64,54.64L112.53,37.57L117.42,44.01L122.32,40.01L127.21,64.74L132.1,66.83L136.99,55.68L141.89,66.48L146.78,79.9L151.67,75.89L156.56,67.01L161.46,72.93L166.35,98.71L171.24,75.37L176.13,61.95L181.03,67.01L185.92,35.65L190.81,75.54L195.7,71.88L200.6,47.15L205.49,57.43L210.38,60.56L215.28,50.11L220.17,50.63L225.06,28.68L229.95,33.04L234.85,55.86L239.74,54.46L244.63,40.7L249.52,44.88L254.42,53.94L259.31,41.57L264.2,36.7L269.09,38.79L273.99,35.13L278.88,49.76L283.77,51.33L288.66,56.03L293.56,58.82L298.45,64.92L303.34,61.43L308.23,59.34L313.13,58.82L318.02,61.61L322.91,46.97L327.81,48.72L332.7,43.49L337.59,43.49L342.48,68.23L347.38,51.85L352.27,60.91L357.16,65.26L362.05,78.33L366.95,96.97L371.84,45.93L376.73,45.58L381.62,36L386.52,43.32L391.41,48.89L396.3,60.56L401.19,57.25L406.09,58.3L410.98,68.05L415.87,57.95L420.77,54.81L425.66,40.88L430.55,52.03L435.44,70.32L440.34,65.26L445.23,56.03L450.12,65.26L455.01,91.39L459.91,56.21L464.8,65.79L469.69,56.38L474.58,55.68L479.48,52.9L484.37,64.92L489.26,65.96L494.15,181.28L499.05,48.54L503.94,64.39L508.83,63.35L513.72,54.29L518.62,59.69L523.51,61.78L528.4,61.95L533.3,61.78L538.19,44.71L543.08,55.68L547.97,43.49L552.87,36.7L557.76,45.75L562.65,52.03L567.54,71.36L572.44,50.46L577.33,52.72L582.22,43.32L587.11,38.79L596.9,53.59L601.79,64.74L606.68,44.01L611.58,44.19L616.47,62.13L621.36,62.83L626.26,61.26L631.15,48.02L636.04,34.43L640.93,33.21L645.83,40.18L650.72,40.18L655.61,41.57L660.5,40.7L665.4,66.31L670.29,58.3L675.18,173.26L680.07,61.26L684.97,63.17L689.86,67.88L694.75,62.83L699.64,55.68L704.54,54.12L709.43,43.32L719.21,60.91L724.11,56.38L729,45.93" style="vector-effect: none; fill: none; stroke: rgb(0, 128, 0); stroke-opacity: 1; stroke-width: 2px; opacity: 1;"/></g><g class="points"/><g class="text"/></g><g class="trace scatter trace9b5fa0" style="stroke-miterlimit: 2; opacity: 1;"><g class="fills"/><g class="errorbars"/><g class="lines"><path class="js-line" d="M0,19.8L4.89,37.05L9.79,26.59L14.68,43.66L19.57,66.31L24.46,30.6L29.36,38.44L34.25,45.93L39.14,25.72L44.03,44.01L48.93,38.09L53.82,31.65L58.71,59.52L63.6,44.01L68.5,44.36L73.39,46.1L78.28,43.49L83.17,47.32L88.07,34.78L92.96,40.53L97.85,36.7L102.74,37.22L107.64,64.92L112.53,39.83L117.42,39.83L122.32,37.39L127.21,74.32L132.1,78.85L136.99,60.04L146.78,93.83L151.67,79.9L156.56,70.32L161.46,77.46L166.35,111.6L171.24,85.47L176.13,77.63L181.03,67.01L185.92,36.35L190.81,92.61L195.7,91.05L200.6,53.94L205.49,62.83L210.38,64.74L215.28,57.6L220.17,62.48L225.06,33.04L229.95,33.21L234.85,53.07L239.74,51.68L244.63,41.4L249.52,45.58L254.42,58.12L259.31,45.58L264.2,31.12L269.09,37.22L273.99,29.9L278.88,49.24L283.77,53.07L288.66,51.15L293.56,45.93L298.45,72.75L313.13,72.75L318.02,69.97L322.91,46.1L327.81,48.02L332.7,40.53L337.59,40.53L342.48,77.46L347.38,57.6L352.27,77.98L357.16,84.6L362.05,92.79L366.95,97.49L371.84,54.12L376.73,55.68L381.62,39.66L386.52,53.25L391.41,60.39L396.3,85.12L401.19,79.55L406.09,78.68L410.98,95.05L415.87,82.86L420.77,72.58L425.66,60.56L430.55,67.88L435.44,91.39L440.34,79.2L445.23,74.15L450.12,85.12L455.01,100.28L459.91,71.54L464.8,81.12L469.69,63L474.58,69.27L479.48,61.43L484.37,81.29L489.26,84.95L494.15,198.17L499.05,55.68L503.94,72.06L508.83,69.27L513.72,56.03L518.62,70.84L523.51,77.63L528.4,88.95L533.3,75.02L538.19,47.15L543.08,62.3L547.97,44.54L552.87,40.53L557.76,48.89L562.65,52.72L567.54,79.55L572.44,46.97L577.33,58.99L582.22,50.81L587.11,43.14L592.01,51.33L601.79,59.69L606.68,39.83L611.58,53.77L616.47,73.63L621.36,75.37L626.26,67.35L636.04,36.87L640.93,30.6L645.83,40.53L650.72,34.08L655.61,32.69L660.5,37.74L665.4,79.72L670.29,67.01L675.18,190.68L680.07,72.41L684.97,64.22L689.86,66.31L694.75,54.64L699.64,54.99L704.54,57.6L709.43,56.38L714.32,55.16L719.21,72.75L724.11,67.01L729,53.59" style="vector-effect: none; fill: none; stroke: rgb(255, 165, 0); stroke-opacity: 1; stroke-width: 2px; opacity: 1;"/></g><g class="points"/><g class="text"/></g><g class="trace scatter trace26e1e9" style="stroke-miterlimit: 2; opacity: 1;"><g class="fills"/><g class="errorbars"/><g class="lines"><path class="js-line" d="M0,376.2L4.89,344.5L9.79,356.52L14.68,356.17L19.57,326.73L24.46,342.75L29.36,330.04L34.25,322.03L39.14,339.1L44.03,333.87L48.93,330.91L53.82,326.55L58.71,325.34L63.6,336.31L68.5,331.61L78.28,329.86L83.17,329.69L88.07,331.61L92.96,328.65L97.85,322.9L102.74,313.84L107.64,318.02L112.53,315.93L117.42,318.02L122.32,320.98L127.21,311.75L132.1,308.96L136.99,312.1L141.89,311.57L146.78,302.52L151.67,305.83L156.56,305.3L161.46,305.65L166.35,292.94L171.24,308.09L176.13,321.5L181.03,321.5L185.92,324.29L190.81,313.14L195.7,313.84L200.6,324.12L205.49,317.67L210.38,312.79L215.28,322.55L220.17,314.19L225.06,327.43L229.95,329.52L234.85,315.75L239.74,317.67L244.63,326.73L249.52,333.35L254.42,321.5L259.31,328.12L264.2,331.95L269.09,330.04L278.88,317.32L283.77,324.64L288.66,317.67L293.56,323.77L298.45,320.28L303.34,319.59L308.23,317.5L313.13,310.35L318.02,317.5L322.91,318.54L327.81,308.44L332.7,308.79L337.59,310.53L342.48,300.95L347.38,314.54L352.27,313.66L362.05,305.48L366.95,307.92L371.84,311.23L376.73,319.59L381.62,324.81L386.52,313.32L391.41,311.05L396.3,310.53L401.19,315.23L406.09,318.54L410.98,319.24L415.87,314.19L420.77,314.01L425.66,320.11L430.55,320.46L435.44,307.74L440.34,306L445.23,299.21L450.12,301.99L455.01,288.93L459.91,307.39L464.8,312.27L469.69,315.23L474.58,320.46L479.48,316.45L484.37,302.52L489.26,302.52L494.15,315.58L508.83,299.9L513.72,307.92L518.62,296.59L523.51,299.21L528.4,303.91L533.3,296.07L538.19,303.39L543.08,304.08L547.97,308.79L552.87,316.45L562.65,306.87L567.54,303.56L572.44,306.52L577.33,310.88L582.22,311.4L587.11,316.45L592.01,312.79L596.9,310.18L601.79,308.61L606.68,313.14L611.58,312.79L616.47,308.44L621.36,307.57L626.26,311.57L631.15,315.41L636.04,321.5L640.93,317.32L645.83,320.63L650.72,316.97L655.61,316.8L660.5,319.06L665.4,302.69L670.29,310.01L675.18,314.54L680.07,308.61L684.97,303.91L689.86,302.34L694.75,315.93L699.64,320.28L704.54,321.68L709.43,322.55L714.32,312.97L719.21,303.21L724.11,309.48L729,315.41" style="vector-effect: none; fill: none; stroke: rgb(128, 0, 128); stroke-opacity: 1; stroke-width: 2px; opacity: 1;"/></g><g class="points"/><g class="text"/></g><g class="trace scatter trace539305" style="stroke-miterlimit: 2; opacity: 1;"><g class="fills"/><g class="errorbars"/><g class="lines"><path class="js-line" d="M0,367.84L4.89,337.18L9.79,350.59L14.68,348.68L19.57,319.94L24.46,337.01L29.36,326.21L34.25,319.41L39.14,330.91L44.03,330.91L48.93,328.47L53.82,322.2L58.71,323.77L63.6,335.96L68.5,331.61L73.39,331.95L78.28,330.04L92.96,327.25L97.85,320.81L102.74,308.96L107.64,317.5L112.53,316.1L117.42,316.1L122.32,319.41L127.21,318.54L132.1,312.1L136.99,313.66L141.89,315.93L146.78,307.39L151.67,310.18L156.56,311.92L161.46,308.26L166.35,294.5L171.24,309.83L176.13,327.77L181.03,322.9L185.92,319.94L190.81,319.06L195.7,320.28L200.6,323.59L205.49,312.1L210.38,313.14L215.28,320.63L220.17,317.85L225.06,324.64L229.95,327.6L234.85,315.41L239.74,317.32L244.63,323.77L249.52,331.08L254.42,323.59L259.31,331.08L264.2,329.52L269.09,326.73L273.99,318.89L278.88,313.32L283.77,322.03L288.66,312.1L293.56,319.41L298.45,323.94L303.34,321.85L308.23,322.55L313.13,316.1L322.91,314.88L327.81,304.26L332.7,305.13L337.59,305.13L342.48,302.52L347.38,311.75L352.27,312.62L357.16,310.35L366.95,308.09L371.84,308.26L376.73,315.06L381.62,318.37L386.52,308.79L391.41,307.92L401.19,315.23L406.09,321.5L410.98,324.64L415.87,322.2L420.77,319.59L425.66,323.25L430.55,322.37L435.44,313.84L440.34,307.22L445.23,304.78L450.12,307.74L455.01,290.5L459.91,310.01L464.8,314.01L469.69,316.45L474.58,322.72L479.48,316.1L484.37,299.73L489.26,305.48L494.15,319.24L499.05,308.61L503.94,305.13L508.83,298.86L513.72,304.95L518.62,295.55L523.51,297.64L528.4,304.95L533.3,291.37L543.08,301.12L547.97,302.86L552.87,314.71L557.76,303.74L562.65,297.12L567.54,298.68L572.44,300.43L577.33,307.74L582.22,309.14L587.11,312.27L592.01,310.01L596.9,306.35L601.79,302.69L606.68,308.79L611.58,311.92L616.47,309.66L621.36,308.61L626.26,309.31L631.15,315.41L636.04,318.54L640.93,312.27L645.83,314.71L650.72,308.44L655.61,308.26L660.5,309.83L665.4,304.43L670.29,310.7L675.18,322.03L680.07,309.48L684.97,302.17L689.86,293.98L694.75,311.23L699.64,320.81L704.54,320.63L709.43,327.77L714.32,314.36L719.21,308.09L724.11,310.7L729,314.01" style="vector-effect: none; fill: none; stroke: rgb(255, 192, 203); stroke-opacity: 1; stroke-width: 2px; opacity: 1;"/></g><g class="points"/><g class="text"/></g><g class="trace scatter tracee32e7e" style="stroke-miterlimit: 2; opacity: 1;"><g class="fills"/><g class="errorbars"/><g class="lines"><path class="js-line" d="M0,328.12L4.89,290.32L9.79,304.08L14.68,304.61L19.57,272.38L24.46,287.88L29.36,274.3L34.25,265.94L39.14,283.7L53.82,269.07L58.71,269.77L63.6,280.39L68.5,275.34L73.39,273.77L78.28,273.43L83.17,273.43L88.07,275.17L92.96,271.86L97.85,265.41L102.74,255.83L107.64,261.75L112.53,258.1L117.42,260.88L122.32,263.85L127.21,256.18L132.1,253.57L136.99,255.66L141.89,256.18L146.78,248.52L151.67,251.3L156.56,249.56L161.46,250.78L166.35,241.37L176.13,266.28L181.03,266.98L185.92,266.98L190.81,258.97L195.7,259.14L200.6,267.85L205.49,261.75L210.38,256.88L215.28,266.28L220.17,257.23L225.06,269.94L229.95,272.73L234.85,259.66L239.74,261.58L249.52,277.95L254.42,265.59L259.31,271.86L264.2,275.86L269.09,273.6L273.99,266.63L278.88,260.71L283.77,268.72L288.66,261.58L293.56,268.55L298.45,265.41L303.34,264.19L308.23,261.75L313.13,254.09L318.02,262.1L322.91,261.75L327.81,250.95L332.7,250.95L337.59,252.7L342.48,245.38L347.38,257.92L352.27,257.92L357.16,253.92L362.05,251.13L366.95,256.01L371.84,253.74L376.73,262.63L381.62,267.68L386.52,255.66L391.41,253.74L396.3,254.61L401.19,259.14L406.09,262.8L410.98,264.54L415.87,258.1L420.77,257.57L425.66,262.8L430.55,264.19L435.44,252.52L440.34,250.26L445.23,242.07L450.12,246.08L455.01,236.5L459.91,250.78L464.8,256.88L469.69,259.14L474.58,264.72L479.48,260.01L484.37,246.6L489.26,246.77L494.15,276.21L499.05,252.7L503.94,249.21L508.83,243.64L513.72,251.13L518.62,239.81L523.51,242.77L528.4,247.65L533.3,239.63L538.19,245.21L543.08,247.12L547.97,250.95L552.87,258.45L557.76,254.09L562.65,249.74L567.54,248.34L572.44,249.21L577.33,253.92L582.22,253.57L587.11,258.62L592.01,255.48L596.9,253.39L601.79,252.87L606.68,255.66L611.58,255.31L616.47,252.52L621.36,251.65L626.26,255.66L631.15,258.27L636.04,263.85L640.93,259.14L645.83,263.5L650.72,259.32L655.61,259.32L660.5,261.75L665.4,246.95L670.29,253.74L675.18,273.77L680.07,252.52L684.97,247.82L689.86,246.77L694.75,260.54L699.64,264.54L704.54,265.76L709.43,265.76L714.32,256.18L719.21,246.77L724.11,252.87L729,258.1" style="vector-effect: none; fill: none; stroke: rgb(165, 42, 42); stroke-opacity: 1; stroke-width: 2px; opacity: 1;"/></g><g class="points"/><g class="text"/></g><g class="trace scatter tracef4575f" style="stroke-miterlimit: 2; opacity: 1;"><g class="fills"/><g class="errorbars"/><g class="lines"><path class="js-line" d="M0,317.5L4.89,281.96L9.79,296.94L14.68,295.55L19.57,265.24L24.46,281.26L29.36,269.59L34.25,262.63L39.14,273.95L44.03,275.17L48.93,272.03L53.82,264.54L58.71,268.9L63.6,281.09L68.5,276.21L73.39,276.56L78.28,274.3L83.17,273.6L88.07,271.16L92.96,270.99L97.85,263.5L102.74,250.61L107.64,262.45L112.53,258.62L117.42,258.62L127.21,264.54L132.1,258.27L136.99,257.92L141.89,262.1L146.78,255.14L151.67,256.53L156.56,257.23L161.46,254.26L166.35,245.03L171.24,256.7L176.13,274.82L181.03,268.55L185.92,262.45L190.81,267.15L195.7,268.2L200.6,268.03L205.49,256.53L210.38,257.75L215.28,265.06L220.17,262.63L225.06,267.33L229.95,270.81L234.85,259.14L239.74,261.06L244.63,267.15L249.52,275.69L254.42,268.37L259.31,275.69L269.09,270.12L273.99,260.71L278.88,256.35L283.77,266.28L288.66,255.48L293.56,262.63L298.45,270.29L303.34,267.85L308.23,268.9L313.13,261.75L318.02,260.88L322.91,257.92L327.81,246.6L332.7,246.77L337.59,246.77L342.48,248.34L347.38,255.66L352.27,258.79L357.16,257.23L362.05,257.05L366.95,256.35L371.84,251.65L376.73,258.97L381.62,260.88L386.52,252.17L391.41,251.83L396.3,258.1L401.19,261.58L406.09,268.2L410.98,273.08L420.77,265.59L425.66,268.37L430.55,268.03L435.44,261.58L440.34,253.22L445.23,250.26L450.12,254.44L455.01,239.46L459.91,255.31L464.8,260.54L469.69,261.23L474.58,268.55L479.48,260.71L484.37,245.9L489.26,252.17L494.15,282.48L499.05,252L503.94,250.26L508.83,243.46L513.72,248.34L518.62,240.33L523.51,243.29L528.4,252.17L533.3,236.67L538.19,238.06L543.08,245.03L547.97,244.86L552.87,257.05L557.76,246.25L562.65,239.63L567.54,244.68L572.44,242.59L577.33,251.48L582.22,252.17L587.11,254.61L592.01,253.05L601.79,246.43L606.68,250.61L611.58,255.31L616.47,255.31L621.36,254.26L626.26,254.09L631.15,259.14L636.04,261.06L640.93,253.57L645.83,257.05L650.72,249.74L655.61,249.39L660.5,251.48L665.4,250.61L670.29,255.48L675.18,283.7L680.07,254.79L684.97,246.25L689.86,238.06L694.75,254.79L699.64,265.24L704.54,265.06L709.43,272.73L714.32,258.1L719.21,253.39L724.11,255.48L729,257.75" style="vector-effect: none; fill: none; stroke: rgb(128, 128, 128); stroke-opacity: 1; stroke-width: 2px; opacity: 1;"/></g><g class="points"/><g class="text"/></g></g></g><g class="overplot"/><path class="xlines-above crisp" d="M0,0" style="fill: none;"/><path class="ylines-above crisp" d="M0,0" style="fill: none;"/><g class="overlines-above"/><g class="xaxislayer-above"><g class="xtick"><text text-anchor="middle" x="0" y="509" transform="translate(232.95999999999998,0)" style="font-family: 'Open Sans', verdana, arial, sans-serif; font-size: 12px; fill: rgb(42, 63, 95); fill-opacity: 1; white-space: pre; opacity: 1;">20</text></g><g class="xtick"><text text-anchor="middle" x="0" y="509" style="font-family: 'Open Sans', verdana, arial, sans-serif; font-size: 12px; fill: rgb(42, 63, 95); fill-opacity: 1; white-space: pre; opacity: 1;" transform="translate(330.81,0)">40</text></g><g class="xtick"><text text-anchor="middle" x="0" y="509" style="font-family: 'Open Sans', verdana, arial, sans-serif; font-size: 12px; fill: rgb(42, 63, 95); fill-opacity: 1; white-space: pre; opacity: 1;" transform="translate(428.66,0)">60</text></g><g class="xtick"><text text-anchor="middle" x="0" y="509" style="font-family: 'Open Sans', verdana, arial, sans-serif; font-size: 12px; fill: rgb(42, 63, 95); fill-opacity: 1; white-space: pre; opacity: 1;" transform="translate(526.52,0)">80</text></g><g class="xtick"><text text-anchor="middle" x="0" y="509" style="font-family: 'Open Sans', verdana, arial, sans-serif; font-size: 12px; fill: rgb(42, 63, 95); fill-opacity: 1; white-space: pre; opacity: 1;" transform="translate(624.37,0)">100</text></g><g class="xtick"><text text-anchor="middle" x="0" y="509" style="font-family: 'Open Sans', verdana, arial, sans-serif; font-size: 12px; fill: rgb(42, 63, 95); fill-opacity: 1; white-space: pre; opacity: 1;" transform="translate(722.22,0)">120</text></g><g class="xtick"><text text-anchor="middle" x="0" y="509" style="font-family: 'Open Sans', verdana, arial, sans-serif; font-size: 12px; fill: rgb(42, 63, 95); fill-opacity: 1; white-space: pre; opacity: 1;" transform="translate(820.07,0)">140</text></g></g><g class="yaxislayer-above"><g class="ytick"><text text-anchor="end" x="139" y="4.199999999999999" transform="translate(0,469.23)" style="font-family: 'Open Sans', verdana, arial, sans-serif; font-size: 12px; fill: rgb(42, 63, 95); fill-opacity: 1; white-space: pre; opacity: 1;">65</text></g><g class="ytick"><text text-anchor="end" x="139" y="4.199999999999999" style="font-family: 'Open Sans', verdana, arial, sans-serif; font-size: 12px; fill: rgb(42, 63, 95); fill-opacity: 1; white-space: pre; opacity: 1;" transform="translate(0,382.14)">70</text></g><g class="ytick"><text text-anchor="end" x="139" y="4.199999999999999" style="font-family: 'Open Sans', verdana, arial, sans-serif; font-size: 12px; fill: rgb(42, 63, 95); fill-opacity: 1; white-space: pre; opacity: 1;" transform="translate(0,295.03999999999996)">75</text></g><g class="ytick"><text text-anchor="end" x="139" y="4.199999999999999" style="font-family: 'Open Sans', verdana, arial, sans-serif; font-size: 12px; fill: rgb(42, 63, 95); fill-opacity: 1; white-space: pre; opacity: 1;" transform="translate(0,207.94)">80</text></g><g class="ytick"><text text-anchor="end" x="139" y="4.199999999999999" style="font-family: 'Open Sans', verdana, arial, sans-serif; font-size: 12px; fill: rgb(42, 63, 95); fill-opacity: 1; white-space: pre; opacity: 1;" transform="translate(0,120.85)">85</text></g></g><g class="overaxes-above"/></g></g><g class="polarlayer"/><g class="smithlayer"/><g class="ternarylayer"/><g class="geolayer"/><g class="funnelarealayer"/><g class="pielayer"/><g class="iciclelayer"/><g class="treemaplayer"/><g class="sunburstlayer"/><g class="glimages"/><defs id="topdefs-5f419e"><g class="clips"/><clipPath id="legend5f419e"><rect width="128" height="162" x="0" y="0"/></clipPath></defs><g class="layer-above"><g class="imagelayer"/><g class="shapelayer"/></g><g class="infolayer"><g class="legend" pointer-events="all" transform="translate(883.58,100)"><rect class="bg" shape-rendering="crispEdges" width="128" height="162" x="0" y="0" style="stroke: rgb(68, 68, 68); stroke-opacity: 1; fill: rgb(255, 255, 255); fill-opacity: 1; stroke-width: 0px;"/><g class="scrollbox" transform="" clip-path="url(#legend5f419e)"><g class="groups"><g class="traces" transform="translate(0,14.5)" style="opacity: 1;"><text class="legendtext" text-anchor="start" x="40" y="4.680000000000001" style="font-family: 'Open Sans', verdana, arial, sans-serif; font-size: 12px; fill: rgb(42, 63, 95); fill-opacity: 1; white-space: pre;">Train Accuracy</text><g class="layers" style="opacity: 1;"><g class="legendfill"/><g class="legendlines"><path class="js-line" d="M5,0h30" style="fill: none; stroke: rgb(255, 0, 0); stroke-opacity: 1; stroke-width: 2px;"/></g><g class="legendsymbols"><g class="legendpoints"/></g></g><rect class="legendtoggle" x="0" y="-9.5" width="122.71875" height="19" style="fill: rgb(0, 0, 0); fill-opacity: 0;"/></g><g class="traces" transform="translate(0,33.5)" style="opacity: 1;"><text class="legendtext" text-anchor="start" x="40" y="4.680000000000001" style="font-family: 'Open Sans', verdana, arial, sans-serif; font-size: 12px; fill: rgb(42, 63, 95); fill-opacity: 1; white-space: pre;">Test Accuracy</text><g class="layers" style="opacity: 1;"><g class="legendfill"/><g class="legendlines"><path class="js-line" d="M5,0h30" style="fill: none; stroke: rgb(0, 0, 255); stroke-opacity: 1; stroke-width: 2px;"/></g><g class="legendsymbols"><g class="legendpoints"/></g></g><rect class="legendtoggle" x="0" y="-9.5" width="122.71875" height="19" style="fill: rgb(0, 0, 0); fill-opacity: 0;"/></g><g class="traces" transform="translate(0,52.5)" style="opacity: 1;"><text class="legendtext" text-anchor="start" x="40" y="4.680000000000001" style="font-family: 'Open Sans', verdana, arial, sans-serif; font-size: 12px; fill: rgb(42, 63, 95); fill-opacity: 1; white-space: pre;">Train Precision</text><g class="layers" style="opacity: 1;"><g class="legendfill"/><g class="legendlines"><path class="js-line" d="M5,0h30" style="fill: none; stroke: rgb(0, 128, 0); stroke-opacity: 1; stroke-width: 2px;"/></g><g class="legendsymbols"><g class="legendpoints"/></g></g><rect class="legendtoggle" x="0" y="-9.5" width="122.71875" height="19" style="fill: rgb(0, 0, 0); fill-opacity: 0;"/></g><g class="traces" transform="translate(0,71.5)" style="opacity: 1;"><text class="legendtext" text-anchor="start" x="40" y="4.680000000000001" style="font-family: 'Open Sans', verdana, arial, sans-serif; font-size: 12px; fill: rgb(42, 63, 95); fill-opacity: 1; white-space: pre;">Test Precision</text><g class="layers" style="opacity: 1;"><g class="legendfill"/><g class="legendlines"><path class="js-line" d="M5,0h30" style="fill: none; stroke: rgb(255, 165, 0); stroke-opacity: 1; stroke-width: 2px;"/></g><g class="legendsymbols"><g class="legendpoints"/></g></g><rect class="legendtoggle" x="0" y="-9.5" width="122.71875" height="19" style="fill: rgb(0, 0, 0); fill-opacity: 0;"/></g><g class="traces" transform="translate(0,90.5)" style="opacity: 1;"><text class="legendtext" text-anchor="start" x="40" y="4.680000000000001" style="font-family: 'Open Sans', verdana, arial, sans-serif; font-size: 12px; fill: rgb(42, 63, 95); fill-opacity: 1; white-space: pre;">Train Recall</text><g class="layers" style="opacity: 1;"><g class="legendfill"/><g class="legendlines"><path class="js-line" d="M5,0h30" style="fill: none; stroke: rgb(128, 0, 128); stroke-opacity: 1; stroke-width: 2px;"/></g><g class="legendsymbols"><g class="legendpoints"/></g></g><rect class="legendtoggle" x="0" y="-9.5" width="122.71875" height="19" style="fill: rgb(0, 0, 0); fill-opacity: 0;"/></g><g class="traces" transform="translate(0,109.5)" style="opacity: 1;"><text class="legendtext" text-anchor="start" x="40" y="4.680000000000001" style="font-family: 'Open Sans', verdana, arial, sans-serif; font-size: 12px; fill: rgb(42, 63, 95); fill-opacity: 1; white-space: pre;">Test Recall</text><g class="layers" style="opacity: 1;"><g class="legendfill"/><g class="legendlines"><path class="js-line" d="M5,0h30" style="fill: none; stroke: rgb(255, 192, 203); stroke-opacity: 1; stroke-width: 2px;"/></g><g class="legendsymbols"><g class="legendpoints"/></g></g><rect class="legendtoggle" x="0" y="-9.5" width="122.71875" height="19" style="fill: rgb(0, 0, 0); fill-opacity: 0;"/></g><g class="traces" transform="translate(0,128.5)" style="opacity: 1;"><text class="legendtext" text-anchor="start" x="40" y="4.680000000000001" style="font-family: 'Open Sans', verdana, arial, sans-serif; font-size: 12px; fill: rgb(42, 63, 95); fill-opacity: 1; white-space: pre;">Train F1</text><g class="layers" style="opacity: 1;"><g class="legendfill"/><g class="legendlines"><path class="js-line" d="M5,0h30" style="fill: none; stroke: rgb(165, 42, 42); stroke-opacity: 1; stroke-width: 2px;"/></g><g class="legendsymbols"><g class="legendpoints"/></g></g><rect class="legendtoggle" x="0" y="-9.5" width="122.71875" height="19" style="fill: rgb(0, 0, 0); fill-opacity: 0;"/></g><g class="traces" transform="translate(0,147.5)" style="opacity: 1;"><text class="legendtext" text-anchor="start" x="40" y="4.680000000000001" style="font-family: 'Open Sans', verdana, arial, sans-serif; font-size: 12px; fill: rgb(42, 63, 95); fill-opacity: 1; white-space: pre;">Test F1</text><g class="layers" style="opacity: 1;"><g class="legendfill"/><g class="legendlines"><path class="js-line" d="M5,0h30" style="fill: none; stroke: rgb(128, 128, 128); stroke-opacity: 1; stroke-width: 2px;"/></g><g class="legendsymbols"><g class="legendpoints"/></g></g><rect class="legendtoggle" x="0" y="-9.5" width="122.71875" height="19" style="fill: rgb(0, 0, 0); fill-opacity: 0;"/></g></g></g><rect class="scrollbar" rx="20" ry="3" width="0" height="0" x="0" y="0" style="fill: rgb(128, 139, 164); fill-opacity: 1;"/></g><g class="g-gtitle"><text class="gtitle" x="51.2" y="50" text-anchor="start" dy="0em" style="font-family: 'Open Sans', verdana, arial, sans-serif; font-size: 17px; fill: rgb(42, 63, 95); opacity: 1; font-weight: normal; white-space: pre;">Training Metrics - logs/FakeNewsNet-gossipcop_max-vocab=15000_pre=v2_domain_T=250_s=15.log</text></g><g class="g-xtitle"><text class="xtitle" x="504.5" y="537.3" text-anchor="middle" style="font-family: 'Open Sans', verdana, arial, sans-serif; font-size: 14px; fill: rgb(42, 63, 95); opacity: 1; font-weight: normal; white-space: pre;">Epoch</text></g><g class="g-ytitle"><text class="ytitle" transform="rotate(-90,100.965625,298)" x="100.965625" y="298" text-anchor="middle" style="font-family: 'Open Sans', verdana, arial, sans-serif; font-size: 14px; fill: rgb(42, 63, 95); opacity: 1; font-weight: normal; white-space: pre;">Metric Score</text></g></g><g class="menulayer"><g class="updatemenu-container" style="cursor: pointer;"><g class="updatemenu-header-group" transform="translate(12,60)"><g class="updatemenu-header" transform="translate(1,1)" style="pointer-events: all;"><rect class="updatemenu-item-rect" rx="2" ry="2" shape-rendering="crispEdges" x="0" y="0" width="164" height="33" style="stroke: rgb(190, 200, 217); stroke-opacity: 1; fill: rgb(255, 255, 255); fill-opacity: 1; stroke-width: 1px;"/><text class="updatemenu-item-text" text-anchor="start" data-notex="1" x="12" y="19.5" style="font-family: 'Open Sans', verdana, arial, sans-serif; font-size: 12px; fill: rgb(42, 63, 95); fill-opacity: 1; white-space: pre;">All</text></g><text class="updatemenu-header-arrow" text-anchor="end" x="160" y="19.5" style="font-family: 'Open Sans', verdana, arial, sans-serif; font-size: 12px; fill: rgb(42, 63, 95); fill-opacity: 1;">▼</text></g><g class="updatemenu-dropdown-button-group" updatemenu-active-index="-1" style="pointer-events: all;"><rect class="scrollbox-bg" opacity="0" x="0" y="0" width="0" height="0" style="pointer-events: all;"/></g></g></g></svg>