<svg class="main-svg" xmlns="http://www.w3.org/2000/svg" xmlns:xlink="http://www.w3.org/1999/xlink" width="1024" height="576" style="" viewBox="0 0 1024 576"><rect x="0" y="0" width="1024" height="576" style="fill: rgb(255, 255, 255); fill-opacity: 1;"/><defs id="defs-c796eb"><g class="clips"><clipPath id="clipc796ebxyplot" class="plotclip"><rect width="726" height="396"/></clipPath><clipPath class="axesclip" id="clipc796ebx"><rect x="143" y="0" width="726" height="576"/></clipPath><clipPath class="axesclip" id="clipc796eby"><rect x="0" y="100" width="1024" height="396"/></clipPath><clipPath class="axesclip" id="clipc796ebxy"><rect x="143" y="100" width="726" height="396"/></clipPath></g><g class="gradients"/><g class="patterns"/></defs><g class="bglayer"><rect class="bg" x="143" y="100" width="726" height="396" style="fill: rgb(229, 236, 246); fill-opacity: 1; stroke-width: 0;"/></g><g class="layer-below"><g class="imagelayer"/><g class="shapelayer"/></g><g class="cartesianlayer"><g class="subplot xy"><g class="layer-subplot"><g class="shapelayer"/><g class="imagelayer"/></g><g class="minor-gridlayer"><g class="x"/><g class="y"/></g><g class="gridlayer"><g class="x"><path class="xgrid crisp" transform="translate(235.57999999999998,0)" d="M0,100v396" style="stroke: rgb(255, 255, 255); stroke-opacity: 1; stroke-width: 1px;"/><path class="xgrid crisp" transform="translate(333.03,0)" d="M0,100v396" style="stroke: rgb(255, 255, 255); stroke-opacity: 1; stroke-width: 1px;"/><path class="xgrid crisp" transform="translate(430.48,0)" d="M0,100v396" style="stroke: rgb(255, 255, 255); stroke-opacity: 1; stroke-width: 1px;"/><path class="xgrid crisp" transform="translate(527.9300000000001,0)" d="M0,100v396" style="stroke: rgb(255, 255, 255); stroke-opacity: 1; stroke-width: 1px;"/><path class="xgrid crisp" transform="translate(625.38,0)" d="M0,100v396" style="stroke: rgb(255, 255, 255); stroke-opacity: 1; stroke-width: 1px;"/><path class="xgrid crisp" transform="translate(722.83,0)" d="M0,100v396" style="stroke: rgb(255, 255, 255); stroke-opacity: 1; stroke-width: 1px;"/><path class="xgrid crisp" transform="translate(820.28,0)" d="M0,100v396" style="stroke: rgb(255, 255, 255); stroke-opacity: 1; stroke-width: 1px;"/></g><g class="y"><path class="ygrid crisp" transform="translate(0,481.44)" d="M143,0h726" style="stroke: rgb(255, 255, 255); stroke-opacity: 1; stroke-width: 1px;"/><path class="ygrid crisp" transform="translate(0,440.51)" d="M143,0h726" style="stroke: rgb(255, 255, 255); stroke-opacity: 1; stroke-width: 1px;"/><path class="ygrid crisp" transform="translate(0,399.58)" d="M143,0h726" style="stroke: rgb(255, 255, 255); stroke-opacity: 1; stroke-width: 1px;"/><path class="ygrid crisp" transform="translate(0,358.66)" d="M143,0h726" style="stroke: rgb(255, 255, 255); stroke-opacity: 1; stroke-width: 1px;"/><path class="ygrid crisp" transform="translate(0,317.73)" d="M143,0h726" style="stroke: rgb(255, 255, 255); stroke-opacity: 1; stroke-width: 1px;"/><path class="ygrid crisp" transform="translate(0,276.8)" d="M143,0h726" style="stroke: rgb(255, 255, 255); stroke-opacity: 1; stroke-width: 1px;"/><path class="ygrid crisp" transform="translate(0,235.87)" d="M143,0h726" style="stroke: rgb(255, 255, 255); stroke-opacity: 1; stroke-width: 1px;"/><path class="ygrid crisp" transform="translate(0,194.94)" d="M143,0h726" style="stroke: rgb(255, 255, 255); stroke-opacity: 1; stroke-width: 1px;"/><path class="ygrid crisp" transform="translate(0,154.02)" d="M143,0h726" style="stroke: rgb(255, 255, 255); stroke-opacity: 1; stroke-width: 1px;"/><path class="ygrid crisp" transform="translate(0,113.09)" d="M143,0h726" style="stroke: rgb(255, 255, 255); stroke-opacity: 1; stroke-width: 1px;"/></g></g><g class="zerolinelayer"/><path class="xlines-below"/><path class="ylines-below"/><g class="overlines-below"/><g class="xaxislayer-below"/><g class="yaxislayer-below"/><g class="overaxes-below"/><g class="plot" transform="translate(143,100)" clip-path="url(#clipc796ebxyplot)"><g class="scatterlayer mlayer"><g class="trace scatter trace600b94" style="stroke-miterlimit: 2; opacity: 1;"><g class="fills"/><g class="errorbars"/><g class="lines"><path class="js-line" d="M0,220.02L4.87,220.02L9.74,221L14.62,214.21L19.49,157.97L24.36,92L29.23,111.4L34.11,114.34L38.98,122.12L43.85,116.31L48.72,104.6L53.6,96.91L58.47,101.74L63.34,85.28L68.21,76.53L77.96,74.56L82.83,82.34L87.7,81.36L92.58,78.49L97.45,68.75L102.32,61.96L107.19,65.88L112.07,66.79L116.94,61.96L121.81,61.96L126.68,57.13L131.56,56.14L136.43,60.97L141.3,58.11L146.17,56.14L151.05,57.13L155.92,59.99L160.79,57.13L165.66,49.35L170.54,46.48L175.41,51.31L180.28,46.48L185.15,50.33L190.03,49.35L194.9,41.57L199.77,44.52L204.64,43.54L209.52,39.69L219.26,48.37L224.13,126.95L229.01,126.95L233.88,45.5L238.75,39.69L243.62,37.73L248.5,37.73L253.37,40.59L258.24,39.69L263.11,45.5L272.86,39.69L277.73,46.48L282.6,46.48L287.48,42.56L292.35,40.59L297.22,41.57L302.09,38.71L306.97,42.56L311.84,45.5L316.71,44.52L321.58,37.73L326.46,36.74L331.33,32.9L336.2,37.73L341.07,35.76L345.95,41.57L350.82,34.78L355.69,39.69L360.56,36.74L365.44,34.78L370.31,36.74L375.18,35.76L380.05,35.76L384.93,33.88L389.8,35.76L394.67,30.93L399.54,33.88L404.42,30.93L409.29,30.93L414.16,29.95L419.03,27.99L423.91,28.97L428.78,29.95L433.65,27.09L438.52,24.14L443.4,28.97L448.27,24.14L453.14,25.12L458.01,27.99L462.89,26.1L467.76,27.09L472.63,25.12L477.5,27.99L482.38,27.09L487.25,24.14L492.12,29.95L496.99,33.88L501.87,29.95L506.74,26.1L511.61,29.95L516.48,27.09L521.36,32.9L526.23,32.9L531.1,29.95L535.97,26.1L540.85,27.09L545.72,22.17L550.59,21.27L555.46,25.12L560.34,27.09L565.21,28.97L570.08,25.12L574.95,24.14L579.83,24.14L584.7,29.95L589.57,25.12L594.44,27.09L599.32,24.14L604.19,26.1L609.06,28.97L613.93,27.09L618.81,33.88L623.68,28.97L628.55,28.97L633.42,30.93L638.3,27.99L643.17,29.95L648.04,26.1L652.91,29.95L657.79,28.97L667.53,28.97L672.4,27.99L677.28,25.12L682.15,28.97L687.02,27.99L691.89,31.91L696.77,28.97L701.64,27.09L706.51,30.93L711.38,31.91L716.26,28.97L721.13,25.12L726,20.29" style="vector-effect: none; fill: none; stroke: rgb(255, 0, 0); stroke-opacity: 1; stroke-width: 2px; opacity: 1;"/></g><g class="points"/><g class="text"/></g><g class="trace scatter traceb1de90" style="stroke-miterlimit: 2; opacity: 1;"><g class="fills"/><g class="errorbars"/><g class="lines"><path class="js-line" d="M0,176.06L14.62,176.06L19.49,145.12L24.36,133.58L29.23,110.41L34.11,102.64L38.98,106.57L43.85,94.94L48.72,98.79L53.6,98.79L58.47,102.64L68.21,110.41L73.09,106.57L77.96,98.79L82.83,106.57L87.7,98.79L92.58,98.79L97.45,87.25L102.32,91.1L107.19,87.25L112.07,87.25L116.94,87.25L121.81,91.1L126.68,87.25L131.56,87.25L136.43,83.32L141.3,91.1L146.17,98.79L151.05,98.79L155.92,91.1L160.79,87.25L165.66,91.1L170.54,87.25L175.41,87.25L180.28,83.32L194.9,94.94L199.77,94.94L209.52,87.25L214.39,87.25L219.26,91.1L224.13,129.73L229.01,129.73L233.88,91.1L238.75,87.25L243.62,79.47L267.99,79.47L272.86,87.25L277.73,106.57L282.6,91.1L287.48,91.1L292.35,98.79L297.22,94.94L302.09,98.79L306.97,83.32L311.84,83.32L316.71,87.25L321.58,79.47L331.33,79.47L336.2,83.32L345.95,75.63L350.82,75.63L355.69,75.63L360.56,87.25L370.31,87.25L375.18,75.63L380.05,87.25L384.93,75.63L389.8,79.47L394.67,79.47L409.29,79.47L414.16,83.32L419.03,79.47L423.91,87.25L433.65,87.25L438.52,83.32L448.27,83.32L453.14,87.25L458.01,87.25L462.89,79.47L467.76,87.25L472.63,87.25L477.5,87.25L482.38,79.47L487.25,83.32L492.12,79.47L516.48,79.47L521.36,87.25L526.23,91.1L531.1,75.63L535.97,75.63L540.85,83.32L545.72,79.47L550.59,79.47L555.46,91.1L560.34,91.1L565.21,94.94L570.08,91.1L574.95,79.47L579.83,79.47L589.57,79.47L594.44,87.25L618.81,87.25L623.68,91.1L628.55,91.1L633.42,87.25L638.3,83.32L643.17,91.1L648.04,87.25L652.91,98.79L672.4,83.32L677.28,83.32L682.15,83.32L687.02,91.1L691.89,83.32L696.77,91.1L701.64,91.1L706.51,94.94L711.38,94.94L716.26,91.1L721.13,87.25L726,87.25" style="vector-effect: none; fill: none; stroke: rgb(0, 0, 255); stroke-opacity: 1; stroke-width: 2px; opacity: 1;"/></g><g class="points"/><g class="text"/></g><g class="trace scatter tracecc990e" style="stroke-miterlimit: 2; opacity: 1;"><g class="fills"/><g class="errorbars"/><g class="lines"><path class="js-line" d="M0,57.94L9.74,58.27L14.62,90.11L19.49,67.85L24.36,58.11L29.23,115.49L34.11,115.24L38.98,126.46L43.85,113.61L48.72,105.26L53.6,99.77L58.47,103.46L63.34,89.3L68.21,80.46L73.09,80.05L77.96,78.57L82.83,85.2L87.7,84.22L92.58,79.72L97.45,70.88L102.32,63.76L107.19,67.93L112.07,67.44L116.94,63.27L121.81,64.74L126.68,60.32L131.56,59.17L136.43,64.33L141.3,61.87L146.17,59.58L151.05,60.15L155.92,61.46L160.79,57.54L165.66,51.72L170.54,49.6L175.41,54.59L180.28,49.92L185.15,53.12L190.03,51.56L194.9,43.62L199.77,46.73L204.64,46.48L209.52,42.23L219.26,52.21L224.13,42.47L229.01,42.47L233.88,49.1L238.75,43.13L243.62,40.59L248.5,40.76L253.37,43.13L258.24,40.76L263.11,46.89L267.99,45.58L272.86,42.8L277.73,49.76L282.6,49.92L287.48,45.75L292.35,43.7L297.22,44.6L302.09,42.31L311.84,47.88L316.71,47.88L321.58,39.77L326.46,39.85L331.33,35.03L336.2,40.92L341.07,38.14L345.95,44.93L350.82,37.97L355.69,42.8L365.44,37.81L370.31,39.28L375.18,38.38L380.05,38.71L384.93,36.33L389.8,38.38L394.67,33.8L399.54,37.07L404.42,33.39L409.29,33.22L414.16,32.73L419.03,30.03L428.78,32.32L433.65,28.64L438.52,26.27L443.4,30.69L448.27,25.2L453.14,27.33L458.01,30.28L462.89,27.49L467.76,29.13L472.63,27.17L477.5,30.28L482.38,28.64L487.25,26.02L492.12,32.49L496.99,36.58L501.87,32.73L506.74,28.23L511.61,32.73L516.48,29.54L521.36,36.01L526.23,36.01L531.1,32.32L535.97,28.07L540.85,29.13L545.72,23.97L550.59,23.07L555.46,27.9L560.34,29.95L565.21,32.24L570.08,27.74L574.95,26.02L579.83,26.02L584.7,32.08L589.57,27.33L594.44,29.38L599.32,26.43L604.19,28.48L609.06,31.75L613.93,29.54L618.81,37.48L623.68,32.24L628.55,32.16L633.42,33.96L638.3,31.01L643.17,33.06L648.04,28.64L652.91,33.06L657.79,32.24L667.53,32.24L672.4,31.01L677.28,27.74L682.15,32L687.02,30.85L691.89,35.19L696.77,31.75L701.64,29.95L706.51,34.37L711.38,35.03L721.13,27.33L726,21.68" style="vector-effect: none; fill: none; stroke: rgb(0, 128, 0); stroke-opacity: 1; stroke-width: 2px; opacity: 1;"/></g><g class="points"/><g class="text"/></g><g class="trace scatter tracee62630" style="stroke-miterlimit: 2; opacity: 1;"><g class="fills"/><g class="errorbars"/><g class="lines"><path class="js-line" d="M0,35.93L14.62,35.93L19.49,53.93L24.36,89.21L29.23,118.27L34.11,111.89L38.98,112.05L43.85,102.72L48.72,105.83L53.6,104.28L58.47,107.3L63.34,110.33L68.21,115.08L73.09,110.33L77.96,102.64L82.83,112.05L87.7,105.83L92.58,107.3L97.45,91.83L102.32,96.58L107.19,91.83L112.07,91.83L116.94,93.47L121.81,96.58L126.68,93.47L131.56,94.94L136.43,88.8L146.17,100.76L151.05,104.28L155.92,99.53L160.79,96.25L165.66,98.05L170.54,91.83L175.41,91.83L180.28,88.8L185.15,91.83L190.03,96.58L194.9,99.61L199.77,97.81L209.52,91.83L214.39,91.83L219.26,94.86L224.13,19.8L229.01,19.8L233.88,94.86L238.75,91.83L243.62,85.69L253.37,85.69L258.24,87.17L263.11,87.17L267.99,85.69L272.86,91.83L277.73,108.53L282.6,94.86L287.48,94.86L292.35,100.76L297.22,99.61L302.09,100.76L306.97,90.36L311.84,90.36L316.71,93.47L321.58,85.69L326.46,85.69L331.33,87.17L336.2,90.36L341.07,87.17L345.95,82.58L355.69,82.58L360.56,91.83L370.31,91.83L375.18,82.58L380.05,91.83L384.93,82.58L389.8,85.69L394.67,85.69L409.29,85.69L414.16,88.8L419.03,85.69L423.91,93.47L428.78,93.47L433.65,94.94L438.52,88.8L443.4,88.8L448.27,88.8L453.14,91.83L458.01,91.83L462.89,85.69L467.76,91.83L472.63,91.83L477.5,91.83L482.38,85.69L487.25,88.8L492.12,85.69L516.48,85.69L521.36,91.83L526.23,94.86L531.1,82.58L535.97,82.58L540.85,88.8L545.72,85.69L550.59,85.69L555.46,94.86L560.34,94.86L565.21,97.81L570.08,94.86L574.95,85.69L579.83,85.69L589.57,85.69L594.44,91.83L618.81,91.83L623.68,94.86L628.55,94.86L633.42,91.83L638.3,88.8L643.17,94.86L648.04,91.83L652.91,100.76L672.4,88.8L677.28,88.8L682.15,88.8L687.02,94.86L691.89,88.8L696.77,94.86L701.64,94.86L706.51,97.81L711.38,97.81L716.26,94.86L721.13,91.83L726,91.83" style="vector-effect: none; fill: none; stroke: rgb(255, 165, 0); stroke-opacity: 1; stroke-width: 2px; opacity: 1;"/></g><g class="points"/><g class="text"/></g><g class="trace scatter tracef05214" style="stroke-miterlimit: 2; opacity: 1;"><g class="fills"/><g class="errorbars"/><g class="lines"><path class="js-line" d="M0,283.38L4.87,283.38L9.74,284.52L14.62,275.84L19.49,207.17L24.36,122.77L29.23,125.31L34.11,132.68L38.98,137.43L43.85,137.84L48.72,121.71L53.6,110.25L58.47,117.29L63.34,95.11L68.21,85.37L73.09,82.91L77.96,82.99L82.83,93.88L87.7,92.73L92.58,91.51L97.45,79.64L102.32,72.52L107.19,76.44L112.07,79.23L116.94,73.09L121.81,71.21L126.68,65.07L131.56,64.25L136.43,69.08L141.3,64.98L146.17,63.59L151.05,65.39L155.92,70.8L160.79,68.59L165.66,57.78L170.54,53.36L175.41,58.52L180.28,52.71L185.15,58.27L190.03,58.11L194.9,49.84L199.77,52.62L204.64,50.5L209.52,46.81L214.39,51.97L219.26,54.02L224.13,170.82L229.01,170.82L233.88,51.23L238.75,45.26L243.62,44.19L248.5,43.87L253.37,48.04L258.24,48.78L263.11,54.75L267.99,49.35L272.86,45.91L277.73,53.03L282.6,52.71L287.48,49.02L292.35,47.06L297.22,48.2L302.09,43.78L306.97,50L311.84,53.44L316.71,50.74L321.58,45.5L331.33,40.02L336.2,43.54L341.07,42.88L345.95,47.55L350.82,40.43L355.69,45.91L360.56,42.39L365.44,40.76L370.31,43.7L375.18,42.56L384.93,40.59L389.8,42.56L394.67,36.74L399.54,39.28L404.42,37.4L409.29,37.73L414.16,35.93L419.03,34.94L428.78,36.58L433.65,34.37L438.52,30.6L443.4,36.42L448.27,31.91L453.14,31.42L458.01,34.62L462.89,33.55L467.76,33.72L472.63,31.75L477.5,34.62L482.38,34.37L487.25,30.93L492.12,36.25L496.99,40.26L501.87,35.93L506.74,32.57L511.61,35.93L516.48,33.14L521.36,38.46L526.23,38.46L531.1,36.58L535.97,32.9L540.85,33.72L545.72,28.97L550.59,27.74L560.34,32.49L565.21,33.8L570.08,30.77L574.95,30.93L579.83,30.93L584.7,36.91L589.57,31.42L594.44,33.39L599.32,30.28L604.19,32.24L609.06,34.78L613.93,33.14L618.81,38.3L623.68,33.8L628.55,34.12L633.42,36.42L638.3,33.31L643.17,35.27L648.04,31.91L652.91,35.27L657.79,33.8L662.66,34.12L672.4,33.31L677.28,30.77L682.15,34.45L687.02,33.63L691.89,36.99L696.77,34.78L701.64,32.49L706.51,35.52L711.38,37.32L716.26,35.43L726,27.25" style="vector-effect: none; fill: none; stroke: rgb(128, 0, 128); stroke-opacity: 1; stroke-width: 2px; opacity: 1;"/></g><g class="points"/><g class="text"/></g><g class="trace scatter traced38dcd" style="stroke-miterlimit: 2; opacity: 1;"><g class="fills"/><g class="errorbars"/><g class="lines"><path class="js-line" d="M0,278.63L14.62,278.63L19.49,234.43L24.36,212.08L29.23,106.08L34.11,99.94L38.98,98.63L43.85,89.46L48.72,92.49L53.6,90.36L58.47,93.39L63.34,96.42L68.21,101.66L73.09,96.42L77.96,88.15L82.83,98.63L87.7,92.49L92.58,94.7L97.45,76.77L102.32,82.01L107.19,76.77L112.07,76.77L116.94,78.98L121.81,82.01L126.68,78.98L131.56,81.19L136.43,73.74L146.17,85.94L151.05,90.36L160.79,83.32L165.66,84.22L170.54,76.77L175.41,76.77L180.28,73.74L185.15,76.77L190.03,82.01L194.9,85.04L199.77,82.91L204.64,79.8L209.52,76.77L214.39,76.77L219.26,79.8L224.13,215.6L229.01,215.6L233.88,79.8L238.75,76.77L243.62,70.63L253.37,70.63L258.24,72.84L263.11,72.84L267.99,70.63L272.86,76.77L277.73,94.21L282.6,79.8L287.48,79.8L292.35,85.94L297.22,85.04L302.09,85.94L306.97,75.95L311.84,75.95L316.71,78.98L321.58,70.63L326.46,70.63L331.33,72.84L336.2,75.95L341.07,72.84L345.95,67.6L355.69,67.6L360.56,76.77L370.31,76.77L375.18,67.6L380.05,76.77L384.93,67.6L389.8,70.63L394.67,70.63L409.29,70.63L414.16,73.74L419.03,70.63L423.91,78.98L428.78,78.98L433.65,81.19L438.52,73.74L443.4,73.74L448.27,73.74L453.14,76.77L458.01,76.77L462.89,70.63L467.76,76.77L472.63,76.77L477.5,76.77L482.38,70.63L487.25,73.74L492.12,70.63L516.48,70.63L521.36,76.77L526.23,79.8L531.1,67.6L535.97,67.6L540.85,73.74L545.72,70.63L550.59,70.63L555.46,79.8L560.34,79.8L565.21,82.91L570.08,79.8L574.95,70.63L579.83,70.63L589.57,70.63L594.44,76.77L618.81,76.77L623.68,79.8L628.55,79.8L633.42,76.77L638.3,73.74L643.17,79.8L648.04,76.77L652.91,85.94L672.4,73.74L677.28,73.74L682.15,73.74L687.02,79.8L691.89,73.74L696.77,79.8L701.64,79.8L706.51,82.91L711.38,82.91L716.26,79.8L721.13,76.77L726,76.77" style="vector-effect: none; fill: none; stroke: rgb(255, 192, 203); stroke-opacity: 1; stroke-width: 2px; opacity: 1;"/></g><g class="points"/><g class="text"/></g><g class="trace scatter tracec1f33c" style="stroke-miterlimit: 2; opacity: 1;"><g class="fills"/><g class="errorbars"/><g class="lines"><path class="js-line" d="M0,373.83L4.87,373.83L9.74,376.2L14.62,356.31L19.49,234.51L24.36,119.91L29.23,122.69L34.11,129.57L38.98,134.89L43.85,134.89L48.72,118.35L53.6,107.3L58.47,114.02L63.34,92.98L68.21,83.48L73.09,81.68L77.96,81.27L82.83,91.1L87.7,89.95L92.58,88.07L97.45,76.69L102.32,69.49L107.19,73.58L112.07,75.63L116.94,69.9L121.81,68.75L126.68,63.18L131.56,62.28L136.43,67.19L141.3,63.67L146.17,61.96L151.05,63.35L155.92,67.69L160.79,65.07L165.66,55.41L170.54,51.72L175.41,56.88L180.28,51.48L185.15,56.23L190.03,55.57L194.9,47.39L199.77,50.33L204.64,48.86L209.52,44.93L214.39,50L219.26,53.2L224.13,183.27L229.01,183.27L233.88,50.25L238.75,44.27L243.62,42.64L248.5,42.56L253.37,45.99L258.24,45.83L263.11,51.89L272.86,44.52L277.73,51.64L282.6,51.48L287.48,47.63L292.35,45.58L297.22,46.65L302.09,43.05L306.97,48.04L311.84,51.23L316.71,49.43L321.58,43.21L326.46,41.49L331.33,37.97L336.2,42.39L341.07,40.92L345.95,46.4L350.82,39.36L355.69,44.52L360.56,41.33L365.44,39.45L370.31,41.9L375.18,40.76L380.05,40.51L384.93,38.79L389.8,40.76L394.67,35.43L399.54,38.3L404.42,35.68L409.29,35.84L414.16,34.53L419.03,32.9L423.91,33.8L428.78,34.78L433.65,32.08L438.52,28.72L443.4,34.12L448.27,29.3L453.14,29.7L458.01,32.73L462.89,31.18L467.76,31.83L472.63,29.79L477.5,32.73L482.38,32.08L487.25,28.89L492.12,34.62L496.99,38.63L501.87,34.53L506.74,30.77L511.61,34.53L516.48,31.59L521.36,37.32L526.23,37.32L531.1,34.78L535.97,30.85L540.85,31.83L545.72,26.84L550.59,25.78L555.46,29.3L560.34,31.34L565.21,33.06L570.08,29.46L579.83,28.89L584.7,34.94L589.57,29.7L594.44,31.67L599.32,28.64L604.19,30.6L609.06,33.47L613.93,31.59L618.81,37.89L623.68,33.06L628.55,33.22L633.42,35.35L638.3,32.24L643.17,34.29L648.04,30.52L652.91,34.29L657.79,33.06L662.66,33.22L672.4,32.24L677.28,29.46L682.15,33.31L687.02,32.41L691.89,36.17L696.77,33.47L701.64,31.34L706.51,34.94L711.38,36.25L716.26,33.72L726,24.96" style="vector-effect: none; fill: none; stroke: rgb(165, 42, 42); stroke-opacity: 1; stroke-width: 2px; opacity: 1;"/></g><g class="points"/><g class="text"/></g><g class="trace scatter trace90e09a" style="stroke-miterlimit: 2; opacity: 1;"><g class="fills"/><g class="errorbars"/><g class="lines"><path class="js-line" d="M0,348.21L14.62,348.21L19.49,265.29L24.36,225.42L29.23,117.29L34.11,110.09L38.98,112.22L43.85,101.41L48.72,105.01L53.6,104.28L58.47,107.96L68.21,115.82L73.09,111.56L77.96,103.7L82.83,112.22L87.7,105.01L92.58,105.75L97.45,92.08L102.32,96.42L107.19,92.08L112.07,92.08L116.94,92.73L121.81,96.42L126.68,92.73L131.56,93.39L136.43,88.48L141.3,95.76L146.17,103.05L151.05,104.28L155.92,97.73L160.79,94.13L165.66,97.07L170.54,92.08L175.41,92.08L180.28,88.48L194.9,100.02L199.77,99.45L209.52,92.08L214.39,92.08L219.26,95.76L224.13,237.13L229.01,237.13L233.88,95.76L238.75,92.08L243.62,84.79L267.99,84.79L272.86,92.08L277.73,110.91L282.6,95.76L287.48,95.76L292.35,103.05L297.22,100.02L302.09,103.05L306.97,89.13L311.84,89.13L316.71,92.73L321.58,84.79L331.33,85.45L336.2,89.13L345.95,81.11L350.82,81.11L355.69,81.11L360.56,92.08L370.31,92.08L375.18,81.11L380.05,92.08L384.93,81.11L389.8,84.79L394.67,84.79L409.29,84.79L414.16,88.48L419.03,84.79L423.91,92.73L433.65,93.39L438.52,88.48L448.27,88.48L453.14,92.08L458.01,92.08L462.89,84.79L467.76,92.08L472.63,92.08L477.5,92.08L482.38,84.79L487.25,88.48L492.12,84.79L516.48,84.79L521.36,92.08L526.23,95.76L531.1,81.11L535.97,81.11L540.85,88.48L545.72,84.79L550.59,84.79L555.46,95.76L560.34,95.76L565.21,99.45L570.08,95.76L574.95,84.79L579.83,84.79L589.57,84.79L594.44,92.08L618.81,92.08L623.68,95.76L628.55,95.76L633.42,92.08L638.3,88.48L643.17,95.76L648.04,92.08L652.91,103.05L672.4,88.48L677.28,88.48L682.15,88.48L687.02,95.76L691.89,88.48L696.77,95.76L701.64,95.76L706.51,99.45L711.38,99.45L716.26,95.76L721.13,92.08L726,92.08" style="vector-effect: none; fill: none; stroke: rgb(128, 128, 128); stroke-opacity: 1; stroke-width: 2px; opacity: 1;"/></g><g class="points"/><g class="text"/></g></g></g><g class="overplot"/><path class="xlines-above crisp" d="M0,0" style="fill: none;"/><path class="ylines-above crisp" d="M0,0" style="fill: none;"/><g class="overlines-above"/><g class="xaxislayer-above"><g class="xtick"><text text-anchor="middle" x="0" y="509" transform="translate(235.57999999999998,0)" style="font-family: 'Open Sans', verdana, arial, sans-serif; font-size: 12px; fill: rgb(42, 63, 95); fill-opacity: 1; white-space: pre; opacity: 1;">20</text></g><g class="xtick"><text text-anchor="middle" x="0" y="509" style="font-family: 'Open Sans', verdana, arial, sans-serif; font-size: 12px; fill: rgb(42, 63, 95); fill-opacity: 1; white-space: pre; opacity: 1;" transform="translate(333.03,0)">40</text></g><g class="xtick"><text text-anchor="middle" x="0" y="509" style="font-family: 'Open Sans', verdana, arial, sans-serif; font-size: 12px; fill: rgb(42, 63, 95); fill-opacity: 1; white-space: pre; opacity: 1;" transform="translate(430.48,0)">60</text></g><g class="xtick"><text text-anchor="middle" x="0" y="509" style="font-family: 'Open Sans', verdana, arial, sans-serif; font-size: 12px; fill: rgb(42, 63, 95); fill-opacity: 1; white-space: pre; opacity: 1;" transform="translate(527.9300000000001,0)">80</text></g><g class="xtick"><text text-anchor="middle" x="0" y="509" style="font-family: 'Open Sans', verdana, arial, sans-serif; font-size: 12px; fill: rgb(42, 63, 95); fill-opacity: 1; white-space: pre; opacity: 1;" transform="translate(625.38,0)">100</text></g><g class="xtick"><text text-anchor="middle" x="0" y="509" style="font-family: 'Open Sans', verdana, arial, sans-serif; font-size: 12px; fill: rgb(42, 63, 95); fill-opacity: 1; white-space: pre; opacity: 1;" transform="translate(722.83,0)">120</text></g><g class="xtick"><text text-anchor="middle" x="0" y="509" style="font-family: 'Open Sans', verdana, arial, sans-serif; font-size: 12px; fill: rgb(42, 63, 95); fill-opacity: 1; white-space: pre; opacity: 1;" transform="translate(820.28,0)">140</text></g></g><g class="yaxislayer-above"><g class="ytick"><text text-anchor="end" x="142" y="4.199999999999999" transform="translate(0,481.44)" style="font-family: 'Open Sans', verdana, arial, sans-serif; font-size: 12px; fill: rgb(42, 63, 95); fill-opacity: 1; white-space: pre; opacity: 1;">40</text></g><g class="ytick"><text text-anchor="end" x="142" y="4.199999999999999" style="font-family: 'Open Sans', verdana, arial, sans-serif; font-size: 12px; fill: rgb(42, 63, 95); fill-opacity: 1; white-space: pre; opacity: 1;" transform="translate(0,440.51)">45</text></g><g class="ytick"><text text-anchor="end" x="142" y="4.199999999999999" style="font-family: 'Open Sans', verdana, arial, sans-serif; font-size: 12px; fill: rgb(42, 63, 95); fill-opacity: 1; white-space: pre; opacity: 1;" transform="translate(0,399.58)">50</text></g><g class="ytick"><text text-anchor="end" x="142" y="4.199999999999999" style="font-family: 'Open Sans', verdana, arial, sans-serif; font-size: 12px; fill: rgb(42, 63, 95); fill-opacity: 1; white-space: pre; opacity: 1;" transform="translate(0,358.66)">55</text></g><g class="ytick"><text text-anchor="end" x="142" y="4.199999999999999" style="font-family: 'Open Sans', verdana, arial, sans-serif; font-size: 12px; fill: rgb(42, 63, 95); fill-opacity: 1; white-space: pre; opacity: 1;" transform="translate(0,317.73)">60</text></g><g class="ytick"><text text-anchor="end" x="142" y="4.199999999999999" style="font-family: 'Open Sans', verdana, arial, sans-serif; font-size: 12px; fill: rgb(42, 63, 95); fill-opacity: 1; white-space: pre; opacity: 1;" transform="translate(0,276.8)">65</text></g><g class="ytick"><text text-anchor="end" x="142" y="4.199999999999999" style="font-family: 'Open Sans', verdana, arial, sans-serif; font-size: 12px; fill: rgb(42, 63, 95); fill-opacity: 1; white-space: pre; opacity: 1;" transform="translate(0,235.87)">70</text></g><g class="ytick"><text text-anchor="end" x="142" y="4.199999999999999" style="font-family: 'Open Sans', verdana, arial, sans-serif; font-size: 12px; fill: rgb(42, 63, 95); fill-opacity: 1; white-space: pre; opacity: 1;" transform="translate(0,194.94)">75</text></g><g class="ytick"><text text-anchor="end" x="142" y="4.199999999999999" style="font-family: 'Open Sans', verdana, arial, sans-serif; font-size: 12px; fill: rgb(42, 63, 95); fill-opacity: 1; white-space: pre; opacity: 1;" transform="translate(0,154.02)">80</text></g><g class="ytick"><text text-anchor="end" x="142" y="4.199999999999999" style="font-family: 'Open Sans', verdana, arial, sans-serif; font-size: 12px; fill: rgb(42, 63, 95); fill-opacity: 1; white-space: pre; opacity: 1;" transform="translate(0,113.09)">85</text></g></g><g class="overaxes-above"/></g></g><g class="polarlayer"/><g class="smithlayer"/><g class="ternarylayer"/><g class="geolayer"/><g class="funnelarealayer"/><g class="pielayer"/><g class="iciclelayer"/><g class="treemaplayer"/><g class="sunburstlayer"/><g class="glimages"/><defs id="topdefs-c796eb"><g class="clips"/><clipPath id="legendc796eb"><rect width="128" height="162" x="0" y="0"/></clipPath></defs><g class="layer-above"><g class="imagelayer"/><g class="shapelayer"/></g><g class="infolayer"><g class="legend" pointer-events="all" transform="translate(883.52,100)"><rect class="bg" shape-rendering="crispEdges" width="128" height="162" x="0" y="0" style="stroke: rgb(68, 68, 68); stroke-opacity: 1; fill: rgb(255, 255, 255); fill-opacity: 1; stroke-width: 0px;"/><g class="scrollbox" transform="" clip-path="url(#legendc796eb)"><g class="groups"><g class="traces" transform="translate(0,14.5)" style="opacity: 1;"><text class="legendtext" text-anchor="start" x="40" y="4.680000000000001" style="font-family: 'Open Sans', verdana, arial, sans-serif; font-size: 12px; fill: rgb(42, 63, 95); fill-opacity: 1; white-space: pre;">Train Accuracy</text><g class="layers" style="opacity: 1;"><g class="legendfill"/><g class="legendlines"><path class="js-line" d="M5,0h30" style="fill: none; stroke: rgb(255, 0, 0); stroke-opacity: 1; stroke-width: 2px;"/></g><g class="legendsymbols"><g class="legendpoints"/></g></g><rect class="legendtoggle" x="0" y="-9.5" width="122.71875" height="19" style="fill: rgb(0, 0, 0); fill-opacity: 0;"/></g><g class="traces" transform="translate(0,33.5)" style="opacity: 1;"><text class="legendtext" text-anchor="start" x="40" y="4.680000000000001" style="font-family: 'Open Sans', verdana, arial, sans-serif; font-size: 12px; fill: rgb(42, 63, 95); fill-opacity: 1; white-space: pre;">Test Accuracy</text><g class="layers" style="opacity: 1;"><g class="legendfill"/><g class="legendlines"><path class="js-line" d="M5,0h30" style="fill: none; stroke: rgb(0, 0, 255); stroke-opacity: 1; stroke-width: 2px;"/></g><g class="legendsymbols"><g class="legendpoints"/></g></g><rect class="legendtoggle" x="0" y="-9.5" width="122.71875" height="19" style="fill: rgb(0, 0, 0); fill-opacity: 0;"/></g><g class="traces" transform="translate(0,52.5)" style="opacity: 1;"><text class="legendtext" text-anchor="start" x="40" y="4.680000000000001" style="font-family: 'Open Sans', verdana, arial, sans-serif; font-size: 12px; fill: rgb(42, 63, 95); fill-opacity: 1; white-space: pre;">Train Precision</text><g class="layers" style="opacity: 1;"><g class="legendfill"/><g class="legendlines"><path class="js-line" d="M5,0h30" style="fill: none; stroke: rgb(0, 128, 0); stroke-opacity: 1; stroke-width: 2px;"/></g><g class="legendsymbols"><g class="legendpoints"/></g></g><rect class="legendtoggle" x="0" y="-9.5" width="122.71875" height="19" style="fill: rgb(0, 0, 0); fill-opacity: 0;"/></g><g class="traces" transform="translate(0,71.5)" style="opacity: 1;"><text class="legendtext" text-anchor="start" x="40" y="4.680000000000001" style="font-family: 'Open Sans', verdana, arial, sans-serif; font-size: 12px; fill: rgb(42, 63, 95); fill-opacity: 1; white-space: pre;">Test Precision</text><g class="layers" style="opacity: 1;"><g class="legendfill"/><g class="legendlines"><path class="js-line" d="M5,0h30" style="fill: none; stroke: rgb(255, 165, 0); stroke-opacity: 1; stroke-width: 2px;"/></g><g class="legendsymbols"><g class="legendpoints"/></g></g><rect class="legendtoggle" x="0" y="-9.5" width="122.71875" height="19" style="fill: rgb(0, 0, 0); fill-opacity: 0;"/></g><g class="traces" transform="translate(0,90.5)" style="opacity: 1;"><text class="legendtext" text-anchor="start" x="40" y="4.680000000000001" style="font-family: 'Open Sans', verdana, arial, sans-serif; font-size: 12px; fill: rgb(42, 63, 95); fill-opacity: 1; white-space: pre;">Train Recall</text><g class="layers" style="opacity: 1;"><g class="legendfill"/><g class="legendlines"><path class="js-line" d="M5,0h30" style="fill: none; stroke: rgb(128, 0, 128); stroke-opacity: 1; stroke-width: 2px;"/></g><g class="legendsymbols"><g class="legendpoints"/></g></g><rect class="legendtoggle" x="0" y="-9.5" width="122.71875" height="19" style="fill: rgb(0, 0, 0); fill-opacity: 0;"/></g><g class="traces" transform="translate(0,109.5)" style="opacity: 1;"><text class="legendtext" text-anchor="start" x="40" y="4.680000000000001" style="font-family: 'Open Sans', verdana, arial, sans-serif; font-size: 12px; fill: rgb(42, 63, 95); fill-opacity: 1; white-space: pre;">Test Recall</text><g class="layers" style="opacity: 1;"><g class="legendfill"/><g class="legendlines"><path class="js-line" d="M5,0h30" style="fill: none; stroke: rgb(255, 192, 203); stroke-opacity: 1; stroke-width: 2px;"/></g><g class="legendsymbols"><g class="legendpoints"/></g></g><rect class="legendtoggle" x="0" y="-9.5" width="122.71875" height="19" style="fill: rgb(0, 0, 0); fill-opacity: 0;"/></g><g class="traces" transform="translate(0,128.5)" style="opacity: 1;"><text class="legendtext" text-anchor="start" x="40" y="4.680000000000001" style="font-family: 'Open Sans', verdana, arial, sans-serif; font-size: 12px; fill: rgb(42, 63, 95); fill-opacity: 1; white-space: pre;">Train F1</text><g class="layers" style="opacity: 1;"><g class="legendfill"/><g class="legendlines"><path class="js-line" d="M5,0h30" style="fill: none; stroke: rgb(165, 42, 42); stroke-opacity: 1; stroke-width: 2px;"/></g><g class="legendsymbols"><g class="legendpoints"/></g></g><rect class="legendtoggle" x="0" y="-9.5" width="122.71875" height="19" style="fill: rgb(0, 0, 0); fill-opacity: 0;"/></g><g class="traces" transform="translate(0,147.5)" style="opacity: 1;"><text class="legendtext" text-anchor="start" x="40" y="4.680000000000001" style="font-family: 'Open Sans', verdana, arial, sans-serif; font-size: 12px; fill: rgb(42, 63, 95); fill-opacity: 1; white-space: pre;">Test F1</text><g class="layers" style="opacity: 1;"><g class="legendfill"/><g class="legendlines"><path class="js-line" d="M5,0h30" style="fill: none; stroke: rgb(128, 128, 128); stroke-opacity: 1; stroke-width: 2px;"/></g><g class="legendsymbols"><g class="legendpoints"/></g></g><rect class="legendtoggle" x="0" y="-9.5" width="122.71875" height="19" style="fill: rgb(0, 0, 0); fill-opacity: 0;"/></g></g></g><rect class="scrollbar" rx="20" ry="3" width="0" height="0" x="0" y="0" style="fill: rgb(128, 139, 164); fill-opacity: 1;"/></g><g class="g-gtitle"><text class="gtitle" x="51.2" y="50" text-anchor="start" dy="0em" style="font-family: 'Open Sans', verdana, arial, sans-serif; font-size: 17px; fill: rgb(42, 63, 95); opacity: 1; font-weight: normal; white-space: pre;">Training Metrics - logs/FakeNewsNet-politifact_max-vocab=15000_pre=v1_domain_T=250_s=5.log</text></g><g class="g-xtitle"><text class="xtitle" x="506" y="537.3" text-anchor="middle" style="font-family: 'Open Sans', verdana, arial, sans-serif; font-size: 14px; fill: rgb(42, 63, 95); opacity: 1; font-weight: normal; white-space: pre;">Epoch</text></g><g class="g-ytitle"><text class="ytitle" transform="rotate(-90,103.965625,298)" x="103.965625" y="298" text-anchor="middle" style="font-family: 'Open Sans', verdana, arial, sans-serif; font-size: 14px; fill: rgb(42, 63, 95); opacity: 1; font-weight: normal; white-space: pre;">Metric Score</text></g></g><g class="menulayer"><g class="updatemenu-container" style="cursor: pointer;"><g class="updatemenu-header-group" transform="translate(12,60)"><g class="updatemenu-header" transform="translate(1,1)" style="pointer-events: all;"><rect class="updatemenu-item-rect" rx="2" ry="2" shape-rendering="crispEdges" x="0" y="0" width="167" height="33" style="stroke: rgb(190, 200, 217); stroke-opacity: 1; fill: rgb(255, 255, 255); fill-opacity: 1; stroke-width: 1px;"/><text class="updatemenu-item-text" text-anchor="start" data-notex="1" x="12" y="19.5" style="font-family: 'Open Sans', verdana, arial, sans-serif; font-size: 12px; fill: rgb(42, 63, 95); fill-opacity: 1; white-space: pre;">All</text></g><text class="updatemenu-header-arrow" text-anchor="end" x="163" y="19.5" style="font-family: 'Open Sans', verdana, arial, sans-serif; font-size: 12px; fill: rgb(42, 63, 95); fill-opacity: 1;">▼</text></g><g class="updatemenu-dropdown-button-group" updatemenu-active-index="-1" style="pointer-events: all;"><rect class="scrollbox-bg" opacity="0" x="0" y="0" width="0" height="0" style="pointer-events: all;"/></g></g></g></svg>