<svg class="main-svg" xmlns="http://www.w3.org/2000/svg" xmlns:xlink="http://www.w3.org/1999/xlink" width="1024" height="576" style="" viewBox="0 0 1024 576"><rect x="0" y="0" width="1024" height="576" style="fill: rgb(255, 255, 255); fill-opacity: 1;"/><defs id="defs-cf4147"><g class="clips"><clipPath id="clipcf4147xyplot" class="plotclip"><rect width="734" height="396"/></clipPath><clipPath class="axesclip" id="clipcf4147x"><rect x="135" y="0" width="734" height="576"/></clipPath><clipPath class="axesclip" id="clipcf4147y"><rect x="0" y="100" width="1024" height="396"/></clipPath><clipPath class="axesclip" id="clipcf4147xy"><rect x="135" y="100" width="734" height="396"/></clipPath></g><g class="gradients"/><g class="patterns"/></defs><g class="bglayer"><rect class="bg" x="135" y="100" width="734" height="396" style="fill: rgb(229, 236, 246); fill-opacity: 1; stroke-width: 0;"/></g><g class="layer-below"><g class="imagelayer"/><g class="shapelayer"/></g><g class="cartesianlayer"><g class="subplot xy"><g class="layer-subplot"><g class="shapelayer"/><g class="imagelayer"/></g><g class="minor-gridlayer"><g class="x"/><g class="y"/></g><g class="gridlayer"><g class="x"><path class="xgrid crisp" transform="translate(228.6,0)" d="M0,100v396" style="stroke: rgb(255, 255, 255); stroke-opacity: 1; stroke-width: 1px;"/><path class="xgrid crisp" transform="translate(327.12,0)" d="M0,100v396" style="stroke: rgb(255, 255, 255); stroke-opacity: 1; stroke-width: 1px;"/><path class="xgrid crisp" transform="translate(425.64,0)" d="M0,100v396" style="stroke: rgb(255, 255, 255); stroke-opacity: 1; stroke-width: 1px;"/><path class="xgrid crisp" transform="translate(524.1700000000001,0)" d="M0,100v396" style="stroke: rgb(255, 255, 255); stroke-opacity: 1; stroke-width: 1px;"/><path class="xgrid crisp" transform="translate(622.69,0)" d="M0,100v396" style="stroke: rgb(255, 255, 255); stroke-opacity: 1; stroke-width: 1px;"/><path class="xgrid crisp" transform="translate(721.21,0)" d="M0,100v396" style="stroke: rgb(255, 255, 255); stroke-opacity: 1; stroke-width: 1px;"/><path class="xgrid crisp" transform="translate(819.74,0)" d="M0,100v396" style="stroke: rgb(255, 255, 255); stroke-opacity: 1; stroke-width: 1px;"/></g><g class="y"><path class="ygrid crisp" transform="translate(0,443.07)" d="M135,0h734" style="stroke: rgb(255, 255, 255); stroke-opacity: 1; stroke-width: 1px;"/><path class="ygrid crisp" transform="translate(0,387.86)" d="M135,0h734" style="stroke: rgb(255, 255, 255); stroke-opacity: 1; stroke-width: 1px;"/><path class="ygrid crisp" transform="translate(0,332.65)" d="M135,0h734" style="stroke: rgb(255, 255, 255); stroke-opacity: 1; stroke-width: 1px;"/><path class="ygrid crisp" transform="translate(0,277.43)" d="M135,0h734" style="stroke: rgb(255, 255, 255); stroke-opacity: 1; stroke-width: 1px;"/><path class="ygrid crisp" transform="translate(0,222.22)" d="M135,0h734" style="stroke: rgb(255, 255, 255); stroke-opacity: 1; stroke-width: 1px;"/><path class="ygrid crisp" transform="translate(0,167.01)" d="M135,0h734" style="stroke: rgb(255, 255, 255); stroke-opacity: 1; stroke-width: 1px;"/><path class="ygrid crisp" transform="translate(0,111.78999999999999)" d="M135,0h734" style="stroke: rgb(255, 255, 255); stroke-opacity: 1; stroke-width: 1px;"/></g></g><g class="zerolinelayer"/><path class="xlines-below"/><path class="ylines-below"/><g class="overlines-below"/><g class="xaxislayer-below"/><g class="yaxislayer-below"/><g class="overaxes-below"/><g class="plot" transform="translate(135,100)" clip-path="url(#clipcf4147xyplot)"><g class="scatterlayer mlayer"><g class="trace scatter trace9db0c2" style="stroke-miterlimit: 2; opacity: 1;"><g class="fills"/><g class="errorbars"/><g class="lines"><path class="js-line" d="M0,222.43L4.93,128.29L9.85,104L14.78,78.05L19.7,80.26L24.63,57.34L29.56,60.93L34.48,63.97L39.41,64.25L44.34,52.93L49.26,76.95L54.19,66.18L59.11,79.43L64.04,78.88L68.97,97.1L73.89,77.5L78.82,94.61L88.67,58.45L93.6,84.4L98.52,44.09L103.45,60.93L108.38,44.37L113.3,52.65L118.23,64.25L123.15,59.28L128.08,70.32L133.01,55.14L137.93,57.62L142.86,49.89L147.79,51L152.71,54.03L157.64,53.2L162.56,49.34L167.49,36.64L172.42,41.61L177.34,54.86L182.27,58.45L187.19,56.79L192.12,58.45L197.05,49.34L201.97,49.34L206.9,49.62L211.83,42.71L221.68,42.44L226.6,44.09L231.53,38.02L236.46,46.03L241.38,51.27L246.31,46.3L251.23,52.93L256.16,42.44L261.09,36.64L266.01,52.93L270.94,52.38L275.87,47.41L280.79,31.67L285.72,31.67L290.64,24.77L295.57,41.61L300.5,31.67L305.42,31.12L310.35,31.12L315.28,39.68L320.2,34.43L325.13,36.09L330.05,44.92L334.98,33.33L339.91,41.33L344.83,42.16L349.76,40.23L354.68,40.78L359.61,43.82L364.54,41.33L374.39,39.95L379.32,49.62L384.24,43.82L389.17,49.62L394.09,58.73L399.02,61.49L403.95,55.14L408.87,42.71L413.8,40.23L418.72,42.16L423.65,47.68L428.58,34.43L433.5,34.16L438.43,48.51L443.36,39.68L448.28,41.61L453.21,57.34L458.13,51.27L463.06,39.4L467.99,39.4L472.91,39.95L477.84,58.17L482.77,45.75L487.69,55.69L492.62,48.79L497.54,38.02L502.47,31.95L507.4,56.52L512.32,32.78L517.25,46.03L522.17,51.55L527.1,38.57L532.03,29.19L536.95,30.57L541.88,47.68L546.81,47.41L551.73,38.85L556.66,46.85L566.51,48.79L571.44,56.79L576.36,76.95L581.29,62.59L586.21,51.27L591.14,55.41L596.07,53.76L600.99,45.47L605.92,42.71L610.85,34.43L615.77,39.95L620.7,56.24L625.62,53.2L630.55,44.65L635.48,42.16L640.4,36.36L645.33,25.05L650.26,36.09L655.18,24.49L660.11,19.8L665.03,31.67L669.96,30.84L674.89,26.43L679.81,38.02L684.74,35.54L689.66,36.09L694.59,35.54L699.52,25.6L704.44,40.23L709.37,42.44L714.3,48.23L719.22,31.12L724.15,38.85L729.07,41.06L734,36.09" style="vector-effect: none; fill: none; stroke: rgb(255, 0, 0); stroke-opacity: 1; stroke-width: 2px; opacity: 1;"/></g><g class="points"/><g class="text"/></g><g class="trace scatter trace08f804" style="stroke-miterlimit: 2; opacity: 1;"><g class="fills"/><g class="errorbars"/><g class="lines"><path class="js-line" d="M0,221.33L4.93,162.25L9.85,142.93L14.78,128.02L19.7,117.25L24.63,109.8L29.56,116.15L34.48,94.34L39.41,101.24L44.34,76.12L49.26,104.28L54.19,101.24L59.11,118.63L64.04,106.76L68.97,124.7L73.89,134.09L78.82,141.54L83.74,119.18L88.67,100.41L93.6,126.09L98.52,84.4L103.45,107.31L108.38,98.75L113.3,94.34L118.23,107.86L123.15,95.44L128.08,104.28L133.01,91.85L137.93,91.85L142.86,85.5L147.79,87.44L152.71,88.54L157.64,91.85L162.56,81.91L167.49,75.01L172.42,78.05L177.34,86.06L182.27,97.37L187.19,87.44L192.12,101.79L197.05,90.47L201.97,88.54L206.9,89.37L211.83,76.12L216.75,80.53L221.68,76.12L226.6,74.18L231.53,70.04L236.46,81.09L241.38,101.79L246.31,92.96L251.23,101.79L256.16,93.51L261.09,83.02L266.01,95.44L270.94,89.92L275.87,89.92L280.79,79.98L285.72,76.12L290.64,65.07L295.57,88.54L300.5,75.57L305.42,73.63L310.35,87.44L315.28,91.85L320.2,80.53L325.13,81.09L330.05,91.02L334.98,76.95L339.91,86.88L344.83,91.02L349.76,99.31L354.68,99.31L359.61,100.41L364.54,88.54L369.46,91.85L374.39,83.57L379.32,89.92L384.24,88.54L389.17,89.92L394.09,104.28L399.02,105.38L403.95,97.37L413.8,84.95L418.72,70.04L423.65,83.02L428.58,81.09L433.5,86.88L438.43,101.79L443.36,94.34L448.28,113.66L453.21,115.59L458.13,105.38L463.06,93.51L467.99,89.37L472.91,87.44L477.84,112.28L482.77,94.34L487.69,103.72L492.62,112.28L497.54,97.93L502.47,84.95L507.4,111.73L512.32,85.5L517.25,94.89L522.17,106.76L527.1,96.27L532.03,81.09L536.95,79.98L541.88,101.79L546.81,97.93L551.73,87.44L556.66,99.31L566.51,106.21L571.44,106.21L576.36,133.54L581.29,122.22L586.21,116.15L591.14,112.28L596.07,109.25L600.99,99.86L610.85,90.47L615.77,92.41L620.7,102.9L625.62,99.86L630.55,84.95L635.48,86.88L640.4,88.54L645.33,80.53L650.26,81.91L655.18,66.73L660.11,63.14L665.03,82.47L669.96,91.02L674.89,83.57L679.81,84.4L684.74,78.05L694.59,64.25L699.52,72.53L704.44,77.5L709.37,92.96L714.3,112.83L719.22,104.28L724.15,87.44L729.07,92.41L734,78.05" style="vector-effect: none; fill: none; stroke: rgb(0, 0, 255); stroke-opacity: 1; stroke-width: 2px; opacity: 1;"/></g><g class="points"/><g class="text"/></g><g class="trace scatter trace582d53" style="stroke-miterlimit: 2; opacity: 1;"><g class="fills"/><g class="errorbars"/><g class="lines"><path class="js-line" d="M0,376.2L4.93,324.3L9.85,295.87L14.78,279.03L19.7,279.58L24.63,263.01L29.56,263.57L34.48,264.39L39.41,264.39L44.34,256.66L49.26,270.74L54.19,264.39L59.11,267.71L64.04,269.09L68.97,277.37L73.89,264.39L78.82,272.12L88.67,250.31L93.6,266.88L98.52,247.28L103.45,255.28L108.38,243.96L113.3,253.9L118.23,255.01L123.15,250.04L128.08,257.22L133.01,247.55L137.93,250.04L142.86,245.9L147.79,247.28L152.71,250.04L157.64,245.07L162.56,242.86L167.49,231.82L172.42,236.51L182.27,247.83L187.19,248.93L192.12,248.11L197.05,241.76L206.9,246.73L211.83,237.06L216.75,235.13L221.68,235.68L226.6,237.89L231.53,235.41L236.46,241.2L241.38,239.82L246.31,237.06L251.23,244.24L256.16,239L261.09,230.44L266.01,244.24L270.94,245.9L275.87,239.82L280.79,226.57L285.72,226.85L290.64,222.16L295.57,234.3L300.5,226.02L305.42,224.92L310.35,225.19L315.28,230.99L320.2,228.23L330.05,237.62L334.98,231.27L339.91,233.47L344.83,234.58L349.76,234.58L354.68,236.79L359.61,238.17L364.54,238.17L369.46,235.68L374.39,235.96L379.32,242.31L384.24,235.13L394.09,245.35L399.02,248.93L403.95,243.41L408.87,236.51L413.8,235.13L418.72,238.44L423.65,240.65L428.58,230.44L433.5,230.16L438.43,240.65L443.36,235.68L448.28,235.68L453.21,249.49L458.13,240.93L463.06,234.85L467.99,235.13L472.91,235.41L477.84,243.14L482.77,235.41L487.69,243.96L492.62,236.24L497.54,231.82L502.47,227.68L507.4,243.14L512.32,227.95L517.25,237.34L522.17,240.1L527.1,233.75L532.03,227.4L536.95,230.44L541.88,240.65L546.81,242.58L551.73,234.03L556.66,238.72L561.58,238.44L566.51,239.82L571.44,243.41L576.36,255.28L581.29,246.45L586.21,242.03L591.14,242.86L596.07,242.31L600.99,238.44L605.92,235.96L610.85,230.99L615.77,232.37L620.7,245.62L625.62,245.35L630.55,237.34L635.48,237.34L640.4,232.37L645.33,225.19L650.26,232.09L655.18,227.12L660.11,223.26L665.03,232.09L669.96,230.16L674.89,224.36L679.81,233.2L684.74,235.68L689.66,236.51L694.59,239.82L699.52,229.61L704.44,240.38L709.37,239.82L714.3,243.41L719.22,227.95L724.15,233.2L729.07,237.89L734,234.03" style="vector-effect: none; fill: none; stroke: rgb(0, 128, 0); stroke-opacity: 1; stroke-width: 2px; opacity: 1;"/></g><g class="points"/><g class="text"/></g><g class="trace scatter trace9d4fb0" style="stroke-miterlimit: 2; opacity: 1;"><g class="fills"/><g class="errorbars"/><g class="lines"><path class="js-line" d="M0,373.16L9.85,327.06L14.78,320.43L19.7,311.05L24.63,307.74L29.56,309.67L34.48,287.31L39.41,291.45L44.34,271.02L49.26,288.96L54.19,293.1L59.11,300.01L64.04,290.62L68.97,293.66L73.89,306.91L78.82,303.32L83.74,293.1L88.67,279.58L93.6,294.21L98.52,278.47L103.45,288.69L108.38,288.96L113.3,286.75L118.23,287.58L123.15,277.09L128.08,279.3L133.01,273.5L142.86,271.02L147.79,275.44L152.71,274.88L157.64,272.95L162.56,264.12L167.49,262.19L172.42,262.74L177.34,267.71L182.27,278.2L187.19,272.95L192.12,281.51L197.05,275.44L201.97,275.16L206.9,276.26L211.83,263.29L216.75,270.47L221.68,266.88L226.6,264.67L231.53,261.91L236.46,271.85L241.38,282.89L246.31,276.82L251.23,289.79L256.16,282.61L261.09,269.64L266.01,276.82L275.87,280.13L280.79,270.74L285.72,266.05L290.64,259.42L295.57,275.16L300.5,265.77L305.42,263.01L310.35,275.44L315.28,276.26L320.2,270.19L325.13,273.5L330.05,278.47L334.98,270.74L339.91,274.88L344.83,278.47L349.76,285.93L354.68,291.17L359.61,291.72L364.54,281.23L369.46,282.61L374.39,275.16L379.32,277.37L384.24,272.4L389.17,271.57L394.09,284.27L399.02,286.48L403.95,280.68L408.87,276.82L413.8,271.85L418.72,258.6L423.65,264.95L428.58,266.88L438.43,280.96L443.36,280.13L448.28,293.38L453.21,294.48L458.13,284.82L463.06,279.58L467.99,275.71L472.91,276.26L477.84,287.31L482.77,274.06L487.69,283.72L492.62,288.96L497.54,282.61L502.47,273.23L507.4,287.58L512.32,269.91L517.25,275.44L522.17,283.44L527.1,279.3L532.03,269.36L536.95,268.26L541.88,278.47L546.81,277.37L551.73,269.64L556.66,280.13L561.58,281.23L566.51,282.06L571.44,278.2L576.36,292L581.29,288.14L586.21,294.48L591.14,286.2L596.07,287.58L600.99,279.3L605.92,274.61L610.85,273.78L615.77,271.85L620.7,282.34L625.62,281.23L630.55,268.53L640.4,280.13L645.33,271.57L655.18,261.08L660.11,259.42L665.03,274.06L669.96,280.96L674.89,274.61L679.81,273.5L684.74,272.12L689.66,265.5L694.59,262.46L699.52,269.64L704.44,270.47L709.37,285.37L714.3,299.73L719.22,294.76L724.15,275.16L729.07,282.89L734,269.36" style="vector-effect: none; fill: none; stroke: rgb(255, 165, 0); stroke-opacity: 1; stroke-width: 2px; opacity: 1;"/></g><g class="points"/><g class="text"/></g><g class="trace scatter trace70d1aa" style="stroke-miterlimit: 2; opacity: 1;"><g class="fills"/><g class="errorbars"/><g class="lines"><path class="js-line" d="M0,274.61L9.85,202.56L14.78,194L19.7,192.62L24.63,184.06L29.56,180.19L34.48,178.26L39.41,177.71L44.34,175.22L49.26,177.43L54.19,175.78L59.11,167.77L64.04,171.64L68.97,171.08L73.89,162.8L78.82,162.8L83.74,157.83L88.67,153.14L93.6,161.15L98.52,165.01L103.45,160.87L108.38,156.73L113.3,168.88L118.23,156.73L123.15,152.04L128.08,155.07L133.01,150.93L137.93,153.97L142.86,153.42L152.71,157.83L157.64,147.34L162.56,147.62L167.49,138.23L172.42,142.65L177.34,140.16L182.27,147.62L187.19,152.04L197.05,144.86L201.97,150.65L206.9,155.62L211.83,142.93L216.75,138.23L221.68,139.89L226.6,142.93L231.53,144.86L236.46,147.62L241.38,137.96L246.31,138.23L251.23,146.51L256.16,147.62L261.09,134.92L266.01,145.96L270.94,150.38L275.87,143.2L280.79,133.26L285.72,133.26L290.64,132.16L295.57,137.4L300.5,131.05L305.42,129.4L310.35,130.23L315.28,132.16L320.2,133.26L325.13,142.37L330.05,140.72L334.98,141.54L339.91,136.02L349.76,139.89L354.68,144.31L359.61,143.75L364.54,146.79L369.46,142.1L374.39,143.48L379.32,145.69L384.24,136.3L389.17,140.44L394.09,141.54L399.02,147.07L403.95,141.82L408.87,141.27L413.8,141.54L418.72,146.79L423.65,144.31L428.58,137.68L433.5,138.23L438.43,143.48L443.36,143.48L448.28,140.72L453.21,152.59L458.13,140.44L463.06,142.1L472.91,142.93L477.84,137.4L482.77,134.64L487.69,142.65L492.62,132.71L497.54,136.58L502.47,134.64L507.4,139.34L512.32,134.64L517.25,138.78L522.17,138.23L527.1,139.89L532.03,138.51L536.95,143.75L541.88,144.58L546.81,149.27L551.73,140.72L556.66,141.27L561.58,139.34L566.51,140.72L571.44,139.89L576.36,144.31L581.29,140.16L586.21,142.65L591.14,139.89L596.07,140.72L600.99,142.37L605.92,139.61L610.85,139.89L615.77,135.2L620.7,145.41L625.62,148.17L630.55,140.44L635.48,144.03L640.4,140.44L645.33,139.06L650.26,140.16L655.18,145.41L660.11,142.93L665.03,145.96L669.96,143.2L674.89,135.47L679.81,139.61L684.74,149L689.66,150.65L694.59,159.21L699.52,149.55L704.44,154.24L709.37,149.55L714.3,150.1L719.22,136.85L724.15,138.78L729.07,146.79L734,144.58" style="vector-effect: none; fill: none; stroke: rgb(128, 0, 128); stroke-opacity: 1; stroke-width: 2px; opacity: 1;"/></g><g class="points"/><g class="text"/></g><g class="trace scatter trace0fa656" style="stroke-miterlimit: 2; opacity: 1;"><g class="fills"/><g class="errorbars"/><g class="lines"><path class="js-line" d="M0,270.74L4.93,260.8L9.85,233.2L14.78,232.09L19.7,222.43L24.63,222.98L29.56,220.78L34.48,195.93L39.41,197.59L44.34,180.47L49.26,190.13L54.19,201.17L59.11,199.52L68.97,182.4L73.89,200.9L78.82,189.03L83.74,185.72L88.67,174.4L93.6,182.4L98.52,187.37L103.45,186.82L108.38,195.1L113.3,194.83L123.15,173.84L128.08,170.53L133.01,169.43L137.93,166.94L142.86,170.81L147.79,177.99L152.71,175.5L157.64,168.6L162.56,159.49L167.49,162.8L172.42,160.32L177.34,163.08L182.27,174.12L187.19,172.74L192.12,176.88L197.05,174.95L206.9,177.43L211.83,163.63L216.75,174.4L221.68,171.64L226.6,168.6L231.53,167.49L236.46,176.6L241.38,179.64L246.31,175.5L251.23,193.72L256.16,186.54L261.09,169.98L266.01,172.74L270.94,181.57L275.87,184.89L280.79,175.78L285.72,169.7L290.64,167.77L295.57,176.33L300.5,169.43L305.42,165.56L310.35,177.99L320.2,173.57L325.13,180.19L330.05,180.47L334.98,179.09L339.91,177.71L344.83,180.47L349.76,188.48L354.68,199.24L359.61,198.97L364.54,188.75L369.46,189.03L374.39,181.02L379.32,179.64L384.24,169.98L389.17,167.49L394.09,180.47L399.02,183.78L403.95,179.37L408.87,176.88L413.8,173.02L418.72,160.32L423.65,160.32L428.58,166.11L433.5,174.95L438.43,176.05L443.36,180.75L448.28,190.96L453.21,191.24L458.13,180.19L463.06,180.47L467.99,176.6L472.91,179.92L477.84,179.37L482.77,168.6L487.69,179.92L492.62,182.95L497.54,182.4L502.47,175.5L507.4,180.75L512.32,168.05L517.25,170.53L522.17,176.6L527.1,177.71L532.03,171.36L536.95,170.53L541.88,170.81L546.81,171.91L551.73,165.84L556.66,176.05L561.58,175.22L566.51,174.4L571.44,166.67L576.36,173.29L581.29,173.84L586.21,190.68L591.14,177.71L596.07,182.68L600.99,173.84L605.92,168.88L610.85,171.36L615.77,165.56L620.7,177.71L625.62,178.26L630.55,165.84L635.48,177.71L640.4,186.82L645.33,177.16L650.26,163.91L655.18,168.88L660.11,169.98L665.03,180.19L669.96,185.72L674.89,179.92L679.81,176.88L684.74,180.75L689.66,173.02L694.59,175.22L699.52,181.57L704.44,177.71L709.37,193.17L714.3,203.66L719.22,201.45L724.15,177.16L729.07,188.48L734,174.67" style="vector-effect: none; fill: none; stroke: rgb(255, 192, 203); stroke-opacity: 1; stroke-width: 2px; opacity: 1;"/></g><g class="points"/><g class="text"/></g><g class="trace scatter traceb84234" style="stroke-miterlimit: 2; opacity: 1;"><g class="fills"/><g class="errorbars"/><g class="lines"><path class="js-line" d="M0,371.23L4.93,303.59L9.85,272.95L14.78,254.46L19.7,255.01L24.63,237.89L29.56,237.89L34.48,238.72L39.41,238.72L44.34,230.99L49.26,245.62L54.19,238.72L59.11,242.31L64.04,243.69L68.97,253.9L73.89,238.72L78.82,248.66L88.67,223.26L93.6,242.03L98.52,220.78L103.45,228.51L108.38,216.91L113.3,227.68L118.23,228.23L123.15,222.98L128.08,230.99L133.01,220.22L137.93,222.98L142.86,218.57L147.79,220.22L152.71,222.98L157.64,217.46L162.56,215.25L167.49,203.38L172.42,208.63L182.27,220.5L187.19,221.6L192.12,220.78L197.05,213.87L206.9,219.4L211.83,209.18L216.75,206.97L221.68,207.52L226.6,210.01L231.53,207.25L236.46,213.32L241.38,211.94L246.31,208.9L251.23,216.63L256.16,211.39L261.09,202L266.01,216.63L270.94,218.29L275.87,211.94L280.79,197.86L285.72,198.14L290.64,193.44L295.57,205.87L300.5,197.03L305.42,195.93L310.35,196.21L315.28,202.28L320.2,199.79L330.05,209.46L334.98,203.11L344.83,206.42L349.76,206.42L359.61,210.28L364.54,210.28L369.46,207.52L374.39,207.8L379.32,214.43L384.24,206.7L399.02,222.16L403.95,215.81L408.87,208.35L413.8,206.97L418.72,210.84L423.65,212.77L428.58,202L433.5,202L438.43,212.77L443.36,207.52L448.28,207.52L453.21,222.16L458.13,213.05L463.06,206.7L472.91,207.52L477.84,215.81L482.77,207.25L487.69,216.63L492.62,208.08L497.54,203.38L502.47,198.97L507.4,215.53L512.32,199.52L517.25,209.18L522.17,212.22L527.1,205.32L532.03,199.24L536.95,202.56L541.88,212.77L546.81,214.98L551.73,205.87L556.66,210.84L561.58,210.56L566.51,211.67L571.44,216.08L576.36,229.89L581.29,219.4L586.21,214.15L591.14,215.25L596.07,214.7L600.99,210.56L605.92,207.8L610.85,202.83L615.77,203.94L620.7,218.29L625.62,217.74L630.55,209.18L635.48,209.46L640.4,204.21L645.33,197.03L650.26,203.94L655.18,199.79L660.11,195.93L665.03,204.21L669.96,202.28L674.89,195.93L679.81,204.76L684.74,208.08L689.66,209.18L694.59,213.05L699.52,202.56L704.44,213.32L709.37,212.22L714.3,215.81L719.22,199.52L724.15,205.04L729.07,210.01L734,205.87" style="vector-effect: none; fill: none; stroke: rgb(165, 42, 42); stroke-opacity: 1; stroke-width: 2px; opacity: 1;"/></g><g class="points"/><g class="text"/></g><g class="trace scatter trace282ead" style="stroke-miterlimit: 2; opacity: 1;"><g class="fills"/><g class="errorbars"/><g class="lines"><path class="js-line" d="M0,368.19L4.93,332.31L9.85,308.29L14.78,299.73L19.7,289.24L24.63,285.65L29.56,287.86L34.48,263.57L39.41,268.26L44.34,245.9L49.26,266.33L54.19,269.91L59.11,278.75L64.04,267.98L68.97,274.33L73.89,288.14L78.82,287.03L88.67,256.66L93.6,274.88L98.52,253.9L103.45,266.33L108.38,265.5L113.3,263.01L118.23,265.22L123.15,253.63L128.08,257.22L133.01,249.49L142.86,246.45L147.79,250.87L152.71,250.31L157.64,248.93L162.56,239L167.49,236.51L172.42,237.34L177.34,243.14L182.27,254.73L187.19,248.38L192.12,258.6L197.05,251.14L201.97,250.87L206.9,251.69L211.83,237.62L216.75,245.35L221.68,241.48L226.6,239L231.53,235.96L236.46,246.73L241.38,259.7L246.31,253.07L251.23,266.6L256.16,258.6L261.09,244.52L266.01,253.07L275.87,255.84L280.79,245.62L285.72,240.65L290.64,233.2L295.57,250.87L300.5,240.1L305.42,237.06L310.35,250.87L315.28,252.25L320.2,245.07L325.13,248.38L330.05,254.18L334.98,245.62L339.91,250.31L344.83,254.18L349.76,262.74L354.68,267.98L359.61,268.53L364.54,256.94L369.46,258.6L374.39,250.31L379.32,253.07L384.24,247.83L389.17,247.28L394.09,261.63L399.02,263.84L403.95,257.22L408.87,252.52L413.8,247L418.72,232.65L423.65,240.1L428.58,241.76L433.5,249.21L438.43,258.32L443.36,256.11L448.28,271.85L453.21,272.95L458.13,262.19L463.06,255.56L467.99,251.42L472.91,251.97L477.84,265.77L482.77,250.31L487.69,261.08L492.62,267.43L497.54,259.15L502.47,248.38L507.4,266.05L512.32,245.07L517.25,251.69L522.17,261.36L527.1,255.84L532.03,244.24L536.95,243.14L541.88,255.84L546.81,254.18L551.73,245.07L556.66,256.94L566.51,259.98L571.44,256.39L576.36,275.16L581.29,268.81L586.21,273.23L591.14,264.95L596.07,265.5L600.99,256.11L605.92,250.87L610.85,249.49L615.77,247.83L620.7,259.7L625.62,258.32L630.55,243.69L640.4,255.84L645.33,246.73L655.18,234.85L660.11,233.2L665.03,249.21L669.96,256.94L674.89,249.76L679.81,248.66L684.74,247L689.66,239.82L694.59,236.51L699.52,244.24L704.44,245.07L709.37,261.63L714.3,277.64L719.22,271.85L724.15,250.59L729.07,258.87L734,243.96" style="vector-effect: none; fill: none; stroke: rgb(128, 128, 128); stroke-opacity: 1; stroke-width: 2px; opacity: 1;"/></g><g class="points"/><g class="text"/></g></g></g><g class="overplot"/><path class="xlines-above crisp" d="M0,0" style="fill: none;"/><path class="ylines-above crisp" d="M0,0" style="fill: none;"/><g class="overlines-above"/><g class="xaxislayer-above"><g class="xtick"><text text-anchor="middle" x="0" y="509" transform="translate(228.6,0)" style="font-family: 'Open Sans', verdana, arial, sans-serif; font-size: 12px; fill: rgb(42, 63, 95); fill-opacity: 1; white-space: pre; opacity: 1;">20</text></g><g class="xtick"><text text-anchor="middle" x="0" y="509" style="font-family: 'Open Sans', verdana, arial, sans-serif; font-size: 12px; fill: rgb(42, 63, 95); fill-opacity: 1; white-space: pre; opacity: 1;" transform="translate(327.12,0)">40</text></g><g class="xtick"><text text-anchor="middle" x="0" y="509" style="font-family: 'Open Sans', verdana, arial, sans-serif; font-size: 12px; fill: rgb(42, 63, 95); fill-opacity: 1; white-space: pre; opacity: 1;" transform="translate(425.64,0)">60</text></g><g class="xtick"><text text-anchor="middle" x="0" y="509" style="font-family: 'Open Sans', verdana, arial, sans-serif; font-size: 12px; fill: rgb(42, 63, 95); fill-opacity: 1; white-space: pre; opacity: 1;" transform="translate(524.1700000000001,0)">80</text></g><g class="xtick"><text text-anchor="middle" x="0" y="509" style="font-family: 'Open Sans', verdana, arial, sans-serif; font-size: 12px; fill: rgb(42, 63, 95); fill-opacity: 1; white-space: pre; opacity: 1;" transform="translate(622.69,0)">100</text></g><g class="xtick"><text text-anchor="middle" x="0" y="509" style="font-family: 'Open Sans', verdana, arial, sans-serif; font-size: 12px; fill: rgb(42, 63, 95); fill-opacity: 1; white-space: pre; opacity: 1;" transform="translate(721.21,0)">120</text></g><g class="xtick"><text text-anchor="middle" x="0" y="509" style="font-family: 'Open Sans', verdana, arial, sans-serif; font-size: 12px; fill: rgb(42, 63, 95); fill-opacity: 1; white-space: pre; opacity: 1;" transform="translate(819.74,0)">140</text></g></g><g class="yaxislayer-above"><g class="ytick"><text text-anchor="end" x="134" y="4.199999999999999" transform="translate(0,443.07)" style="font-family: 'Open Sans', verdana, arial, sans-serif; font-size: 12px; fill: rgb(42, 63, 95); fill-opacity: 1; white-space: pre; opacity: 1;">64</text></g><g class="ytick"><text text-anchor="end" x="134" y="4.199999999999999" style="font-family: 'Open Sans', verdana, arial, sans-serif; font-size: 12px; fill: rgb(42, 63, 95); fill-opacity: 1; white-space: pre; opacity: 1;" transform="translate(0,387.86)">66</text></g><g class="ytick"><text text-anchor="end" x="134" y="4.199999999999999" style="font-family: 'Open Sans', verdana, arial, sans-serif; font-size: 12px; fill: rgb(42, 63, 95); fill-opacity: 1; white-space: pre; opacity: 1;" transform="translate(0,332.65)">68</text></g><g class="ytick"><text text-anchor="end" x="134" y="4.199999999999999" style="font-family: 'Open Sans', verdana, arial, sans-serif; font-size: 12px; fill: rgb(42, 63, 95); fill-opacity: 1; white-space: pre; opacity: 1;" transform="translate(0,277.43)">70</text></g><g class="ytick"><text text-anchor="end" x="134" y="4.199999999999999" style="font-family: 'Open Sans', verdana, arial, sans-serif; font-size: 12px; fill: rgb(42, 63, 95); fill-opacity: 1; white-space: pre; opacity: 1;" transform="translate(0,222.22)">72</text></g><g class="ytick"><text text-anchor="end" x="134" y="4.199999999999999" style="font-family: 'Open Sans', verdana, arial, sans-serif; font-size: 12px; fill: rgb(42, 63, 95); fill-opacity: 1; white-space: pre; opacity: 1;" transform="translate(0,167.01)">74</text></g><g class="ytick"><text text-anchor="end" x="134" y="4.199999999999999" style="font-family: 'Open Sans', verdana, arial, sans-serif; font-size: 12px; fill: rgb(42, 63, 95); fill-opacity: 1; white-space: pre; opacity: 1;" transform="translate(0,111.78999999999999)">76</text></g></g><g class="overaxes-above"/></g></g><g class="polarlayer"/><g class="smithlayer"/><g class="ternarylayer"/><g class="geolayer"/><g class="funnelarealayer"/><g class="pielayer"/><g class="iciclelayer"/><g class="treemaplayer"/><g class="sunburstlayer"/><g class="glimages"/><defs id="topdefs-cf4147"><g class="clips"/><clipPath id="legendcf4147"><rect width="128" height="162" x="0" y="0"/></clipPath></defs><g class="layer-above"><g class="imagelayer"/><g class="shapelayer"/></g><g class="infolayer"><g class="legend" pointer-events="all" transform="translate(883.6800000000001,100)"><rect class="bg" shape-rendering="crispEdges" width="128" height="162" x="0" y="0" style="stroke: rgb(68, 68, 68); stroke-opacity: 1; fill: rgb(255, 255, 255); fill-opacity: 1; stroke-width: 0px;"/><g class="scrollbox" transform="" clip-path="url(#legendcf4147)"><g class="groups"><g class="traces" transform="translate(0,14.5)" style="opacity: 1;"><text class="legendtext" text-anchor="start" x="40" y="4.680000000000001" style="font-family: 'Open Sans', verdana, arial, sans-serif; font-size: 12px; fill: rgb(42, 63, 95); fill-opacity: 1; white-space: pre;">Train Accuracy</text><g class="layers" style="opacity: 1;"><g class="legendfill"/><g class="legendlines"><path class="js-line" d="M5,0h30" style="fill: none; stroke: rgb(255, 0, 0); stroke-opacity: 1; stroke-width: 2px;"/></g><g class="legendsymbols"><g class="legendpoints"/></g></g><rect class="legendtoggle" x="0" y="-9.5" width="122.71875" height="19" style="fill: rgb(0, 0, 0); fill-opacity: 0;"/></g><g class="traces" transform="translate(0,33.5)" style="opacity: 1;"><text class="legendtext" text-anchor="start" x="40" y="4.680000000000001" style="font-family: 'Open Sans', verdana, arial, sans-serif; font-size: 12px; fill: rgb(42, 63, 95); fill-opacity: 1; white-space: pre;">Test Accuracy</text><g class="layers" style="opacity: 1;"><g class="legendfill"/><g class="legendlines"><path class="js-line" d="M5,0h30" style="fill: none; stroke: rgb(0, 0, 255); stroke-opacity: 1; stroke-width: 2px;"/></g><g class="legendsymbols"><g class="legendpoints"/></g></g><rect class="legendtoggle" x="0" y="-9.5" width="122.71875" height="19" style="fill: rgb(0, 0, 0); fill-opacity: 0;"/></g><g class="traces" transform="translate(0,52.5)" style="opacity: 1;"><text class="legendtext" text-anchor="start" x="40" y="4.680000000000001" style="font-family: 'Open Sans', verdana, arial, sans-serif; font-size: 12px; fill: rgb(42, 63, 95); fill-opacity: 1; white-space: pre;">Train Precision</text><g class="layers" style="opacity: 1;"><g class="legendfill"/><g class="legendlines"><path class="js-line" d="M5,0h30" style="fill: none; stroke: rgb(0, 128, 0); stroke-opacity: 1; stroke-width: 2px;"/></g><g class="legendsymbols"><g class="legendpoints"/></g></g><rect class="legendtoggle" x="0" y="-9.5" width="122.71875" height="19" style="fill: rgb(0, 0, 0); fill-opacity: 0;"/></g><g class="traces" transform="translate(0,71.5)" style="opacity: 1;"><text class="legendtext" text-anchor="start" x="40" y="4.680000000000001" style="font-family: 'Open Sans', verdana, arial, sans-serif; font-size: 12px; fill: rgb(42, 63, 95); fill-opacity: 1; white-space: pre;">Test Precision</text><g class="layers" style="opacity: 1;"><g class="legendfill"/><g class="legendlines"><path class="js-line" d="M5,0h30" style="fill: none; stroke: rgb(255, 165, 0); stroke-opacity: 1; stroke-width: 2px;"/></g><g class="legendsymbols"><g class="legendpoints"/></g></g><rect class="legendtoggle" x="0" y="-9.5" width="122.71875" height="19" style="fill: rgb(0, 0, 0); fill-opacity: 0;"/></g><g class="traces" transform="translate(0,90.5)" style="opacity: 1;"><text class="legendtext" text-anchor="start" x="40" y="4.680000000000001" style="font-family: 'Open Sans', verdana, arial, sans-serif; font-size: 12px; fill: rgb(42, 63, 95); fill-opacity: 1; white-space: pre;">Train Recall</text><g class="layers" style="opacity: 1;"><g class="legendfill"/><g class="legendlines"><path class="js-line" d="M5,0h30" style="fill: none; stroke: rgb(128, 0, 128); stroke-opacity: 1; stroke-width: 2px;"/></g><g class="legendsymbols"><g class="legendpoints"/></g></g><rect class="legendtoggle" x="0" y="-9.5" width="122.71875" height="19" style="fill: rgb(0, 0, 0); fill-opacity: 0;"/></g><g class="traces" transform="translate(0,109.5)" style="opacity: 1;"><text class="legendtext" text-anchor="start" x="40" y="4.680000000000001" style="font-family: 'Open Sans', verdana, arial, sans-serif; font-size: 12px; fill: rgb(42, 63, 95); fill-opacity: 1; white-space: pre;">Test Recall</text><g class="layers" style="opacity: 1;"><g class="legendfill"/><g class="legendlines"><path class="js-line" d="M5,0h30" style="fill: none; stroke: rgb(255, 192, 203); stroke-opacity: 1; stroke-width: 2px;"/></g><g class="legendsymbols"><g class="legendpoints"/></g></g><rect class="legendtoggle" x="0" y="-9.5" width="122.71875" height="19" style="fill: rgb(0, 0, 0); fill-opacity: 0;"/></g><g class="traces" transform="translate(0,128.5)" style="opacity: 1;"><text class="legendtext" text-anchor="start" x="40" y="4.680000000000001" style="font-family: 'Open Sans', verdana, arial, sans-serif; font-size: 12px; fill: rgb(42, 63, 95); fill-opacity: 1; white-space: pre;">Train F1</text><g class="layers" style="opacity: 1;"><g class="legendfill"/><g class="legendlines"><path class="js-line" d="M5,0h30" style="fill: none; stroke: rgb(165, 42, 42); stroke-opacity: 1; stroke-width: 2px;"/></g><g class="legendsymbols"><g class="legendpoints"/></g></g><rect class="legendtoggle" x="0" y="-9.5" width="122.71875" height="19" style="fill: rgb(0, 0, 0); fill-opacity: 0;"/></g><g class="traces" transform="translate(0,147.5)" style="opacity: 1;"><text class="legendtext" text-anchor="start" x="40" y="4.680000000000001" style="font-family: 'Open Sans', verdana, arial, sans-serif; font-size: 12px; fill: rgb(42, 63, 95); fill-opacity: 1; white-space: pre;">Test F1</text><g class="layers" style="opacity: 1;"><g class="legendfill"/><g class="legendlines"><path class="js-line" d="M5,0h30" style="fill: none; stroke: rgb(128, 128, 128); stroke-opacity: 1; stroke-width: 2px;"/></g><g class="legendsymbols"><g class="legendpoints"/></g></g><rect class="legendtoggle" x="0" y="-9.5" width="122.71875" height="19" style="fill: rgb(0, 0, 0); fill-opacity: 0;"/></g></g></g><rect class="scrollbar" rx="20" ry="3" width="0" height="0" x="0" y="0" style="fill: rgb(128, 139, 164); fill-opacity: 1;"/></g><g class="g-gtitle"><text class="gtitle" x="51.2" y="50" text-anchor="start" dy="0em" style="font-family: 'Open Sans', verdana, arial, sans-serif; font-size: 17px; fill: rgb(42, 63, 95); opacity: 1; font-weight: normal; white-space: pre;">Training Metrics - logs/FakeNewsNet-gossipcop_max-vocab=10000_pre=v1_domain_T=200_s=10.log</text></g><g class="g-xtitle"><text class="xtitle" x="502" y="537.3" text-anchor="middle" style="font-family: 'Open Sans', verdana, arial, sans-serif; font-size: 14px; fill: rgb(42, 63, 95); opacity: 1; font-weight: normal; white-space: pre;">Epoch</text></g><g class="g-ytitle"><text class="ytitle" transform="rotate(-90,95.965625,298)" x="95.965625" y="298" text-anchor="middle" style="font-family: 'Open Sans', verdana, arial, sans-serif; font-size: 14px; fill: rgb(42, 63, 95); opacity: 1; font-weight: normal; white-space: pre;">Metric Score</text></g></g><g class="menulayer"><g class="updatemenu-container" style="cursor: pointer;"><g class="updatemenu-header-group" transform="translate(12,60)"><g class="updatemenu-header" transform="translate(1,1)" style="pointer-events: all;"><rect class="updatemenu-item-rect" rx="2" ry="2" shape-rendering="crispEdges" x="0" y="0" width="160" height="33" style="stroke: rgb(190, 200, 217); stroke-opacity: 1; fill: rgb(255, 255, 255); fill-opacity: 1; stroke-width: 1px;"/><text class="updatemenu-item-text" text-anchor="start" data-notex="1" x="12" y="19.5" style="font-family: 'Open Sans', verdana, arial, sans-serif; font-size: 12px; fill: rgb(42, 63, 95); fill-opacity: 1; white-space: pre;">All</text></g><text class="updatemenu-header-arrow" text-anchor="end" x="156" y="19.5" style="font-family: 'Open Sans', verdana, arial, sans-serif; font-size: 12px; fill: rgb(42, 63, 95); fill-opacity: 1;">▼</text></g><g class="updatemenu-dropdown-button-group" updatemenu-active-index="-1" style="pointer-events: all;"><rect class="scrollbox-bg" opacity="0" x="0" y="0" width="0" height="0" style="pointer-events: all;"/></g></g></g></svg>