<svg class="main-svg" xmlns="http://www.w3.org/2000/svg" xmlns:xlink="http://www.w3.org/1999/xlink" width="1024" height="576" style="" viewBox="0 0 1024 576"><rect x="0" y="0" width="1024" height="576" style="fill: rgb(255, 255, 255); fill-opacity: 1;"/><defs id="defs-39c519"><g class="clips"><clipPath id="clip39c519xyplot" class="plotclip"><rect width="720" height="396"/></clipPath><clipPath class="axesclip" id="clip39c519x"><rect x="150" y="0" width="720" height="576"/></clipPath><clipPath class="axesclip" id="clip39c519y"><rect x="0" y="100" width="1024" height="396"/></clipPath><clipPath class="axesclip" id="clip39c519xy"><rect x="150" y="100" width="720" height="396"/></clipPath></g><g class="gradients"/><g class="patterns"/></defs><g class="bglayer"><rect class="bg" x="150" y="100" width="720" height="396" style="fill: rgb(229, 236, 246); fill-opacity: 1; stroke-width: 0;"/></g><g class="layer-below"><g class="imagelayer"/><g class="shapelayer"/></g><g class="cartesianlayer"><g class="subplot xy"><g class="layer-subplot"><g class="shapelayer"/><g class="imagelayer"/></g><g class="minor-gridlayer"><g class="x"/><g class="y"/></g><g class="gridlayer"><g class="x"><path class="xgrid crisp" transform="translate(241.81,0)" d="M0,100v396" style="stroke: rgb(255, 255, 255); stroke-opacity: 1; stroke-width: 1px;"/><path class="xgrid crisp" transform="translate(338.46000000000004,0)" d="M0,100v396" style="stroke: rgb(255, 255, 255); stroke-opacity: 1; stroke-width: 1px;"/><path class="xgrid crisp" transform="translate(435.1,0)" d="M0,100v396" style="stroke: rgb(255, 255, 255); stroke-opacity: 1; stroke-width: 1px;"/><path class="xgrid crisp" transform="translate(531.74,0)" d="M0,100v396" style="stroke: rgb(255, 255, 255); stroke-opacity: 1; stroke-width: 1px;"/><path class="xgrid crisp" transform="translate(628.39,0)" d="M0,100v396" style="stroke: rgb(255, 255, 255); stroke-opacity: 1; stroke-width: 1px;"/><path class="xgrid crisp" transform="translate(725.03,0)" d="M0,100v396" style="stroke: rgb(255, 255, 255); stroke-opacity: 1; stroke-width: 1px;"/><path class="xgrid crisp" transform="translate(821.68,0)" d="M0,100v396" style="stroke: rgb(255, 255, 255); stroke-opacity: 1; stroke-width: 1px;"/></g><g class="y"><path class="ygrid crisp" transform="translate(0,470.43)" d="M150,0h720" style="stroke: rgb(255, 255, 255); stroke-opacity: 1; stroke-width: 1px;"/><path class="ygrid crisp" transform="translate(0,410.97)" d="M150,0h720" style="stroke: rgb(255, 255, 255); stroke-opacity: 1; stroke-width: 1px;"/><path class="ygrid crisp" transform="translate(0,351.51)" d="M150,0h720" style="stroke: rgb(255, 255, 255); stroke-opacity: 1; stroke-width: 1px;"/><path class="ygrid crisp" transform="translate(0,292.05)" d="M150,0h720" style="stroke: rgb(255, 255, 255); stroke-opacity: 1; stroke-width: 1px;"/><path class="ygrid crisp" transform="translate(0,232.59)" d="M150,0h720" style="stroke: rgb(255, 255, 255); stroke-opacity: 1; stroke-width: 1px;"/><path class="ygrid crisp" transform="translate(0,173.14)" d="M150,0h720" style="stroke: rgb(255, 255, 255); stroke-opacity: 1; stroke-width: 1px;"/><path class="ygrid crisp" transform="translate(0,113.68)" d="M150,0h720" style="stroke: rgb(255, 255, 255); stroke-opacity: 1; stroke-width: 1px;"/></g></g><g class="zerolinelayer"/><path class="xlines-below"/><path class="ylines-below"/><g class="overlines-below"/><g class="xaxislayer-below"/><g class="yaxislayer-below"/><g class="overaxes-below"/><g class="plot" transform="translate(150,100)" clip-path="url(#clip39c519xyplot)"><g class="scatterlayer mlayer"><g class="trace scatter traceeb792d" style="stroke-miterlimit: 2; opacity: 1;"><g class="fills"/><g class="errorbars"/><g class="lines"><path class="js-line" d="M0,203.59L4.83,201.51L9.66,203.59L14.5,169.1L19.33,174.75L24.16,181.05L28.99,112.74L33.83,143.71L38.66,72.6L43.49,88.77L48.32,177.55L53.15,158.52L57.99,114.16L62.82,164.17L67.65,53.57L72.48,106.37L77.32,83.84L82.15,76.11L86.98,94.42L91.81,77.48L96.64,162.74L101.48,170.47L106.31,166.25L111.14,117.67L115.97,95.85L120.81,86.63L125.64,163.45L130.47,169.82L135.3,171.18L140.13,172.61L144.97,172.61L149.8,141.63L154.63,55.65L159.46,56.37L164.3,83.84L173.96,41.56L178.79,59.16L183.62,55.65L188.46,38.05L193.29,121.18L198.12,38.77L202.95,40.14L207.79,44.42L212.62,44.42L217.45,48.64L222.28,71.17L227.11,63.38L231.95,65.52L236.78,60.59L241.61,59.16L246.44,61.3L251.28,59.16L256.11,60.59L270.6,54.94L275.44,57.79L280.27,57.79L285.1,59.16L289.93,56.37L294.77,56.37L299.6,59.16L304.43,57.79L314.09,57.08L318.93,52.86L328.59,54.94L333.42,54.23L338.26,56.37L343.09,54.23L357.58,56.37L362.42,51.43L367.25,55.65L372.08,50.72L381.74,54.23L386.58,52.15L396.24,52.86L401.07,50.72L415.57,52.86L420.4,51.43L425.23,52.86L430.07,52.15L439.73,50.72L444.56,51.43L449.4,53.57L454.23,54.23L459.06,54.94L463.89,58.51L468.72,54.23L473.56,53.57L478.39,53.57L483.22,50.01L488.05,50.72L492.89,53.57L497.72,50.01L502.55,50.72L512.21,54.23L517.05,52.86L526.71,50.72L531.54,50.72L541.21,51.43L546.04,53.57L550.87,54.94L555.7,54.23L560.54,54.94L565.37,52.15L570.2,50.72L575.03,50.72L579.87,52.86L584.7,50.01L589.53,49.35L594.36,47.92L599.19,47.92L604.03,49.35L613.69,48.64L618.52,47.92L623.36,52.15L628.19,52.86L633.02,50.01L637.85,50.72L652.35,53.57L657.18,50.01L662.01,48.64L666.85,49.35L671.68,48.64L676.51,50.01L686.17,48.64L691.01,49.35L700.67,47.21L705.5,48.64L710.34,47.92L715.17,49.35L720,50.01" style="vector-effect: none; fill: none; stroke: rgb(255, 0, 0); stroke-opacity: 1; stroke-width: 2px; opacity: 1;"/></g><g class="points"/><g class="text"/></g><g class="trace scatter trace5afbcf" style="stroke-miterlimit: 2; opacity: 1;"><g class="fills"/><g class="errorbars"/><g class="lines"><path class="js-line" d="M0,172.97L4.83,170.17L9.66,172.97L19.33,144.96L24.16,147.76L28.99,133.72L33.83,139.31L38.66,139.31L43.49,130.93L48.32,142.11L53.15,136.52L57.99,130.93L62.82,142.11L67.65,119.69L72.48,122.49L77.32,116.9L82.15,116.9L86.98,125.28L91.81,111.31L96.64,136.52L101.48,144.96L106.31,144.96L111.14,128.14L115.97,111.31L120.81,114.1L125.64,147.76L130.47,147.76L144.97,147.76L149.8,125.28L154.63,108.45L159.46,111.31L164.3,114.1L169.13,105.66L173.96,111.31L178.79,119.69L183.62,114.1L188.46,102.86L193.29,119.69L198.12,100.07L202.95,102.86L207.79,102.86L212.62,105.66L217.45,102.86L222.28,102.86L227.11,100.07L231.95,100.07L236.78,97.28L246.44,97.28L251.28,91.63L256.11,94.42L260.94,94.42L275.44,94.42L280.27,97.28L289.93,97.28L294.77,102.86L299.6,102.86L304.43,100.07L309.26,102.86L314.09,102.86L318.93,100.07L323.76,102.86L328.59,102.86L333.42,100.07L338.26,102.86L343.09,100.07L347.92,100.07L352.75,94.42L357.58,91.63L362.42,91.63L367.25,91.63L372.08,94.42L376.91,94.42L381.74,91.63L425.23,91.63L430.07,94.42L434.9,91.63L439.73,91.63L449.4,91.63L454.23,94.42L459.06,97.28L463.89,97.28L468.72,97.28L473.56,94.42L507.38,94.42L512.21,97.28L521.88,91.63L526.71,91.63L531.54,91.63L536.38,97.28L541.21,97.28L546.04,94.42L560.54,94.42L565.37,91.63L608.86,91.63L613.69,94.42L618.52,91.63L623.36,91.63L666.85,91.63L671.68,94.42L691.01,94.42L695.84,91.63L710.34,91.63L715.17,94.42L720,91.63" style="vector-effect: none; fill: none; stroke: rgb(0, 0, 255); stroke-opacity: 1; stroke-width: 2px; opacity: 1;"/></g><g class="points"/><g class="text"/></g><g class="trace scatter trace8347c0" style="stroke-miterlimit: 2; opacity: 1;"><g class="fills"/><g class="errorbars"/><g class="lines"><path class="js-line" d="M0,376.2L4.83,78.31L9.66,376.2L14.5,79.32L19.33,83.12L24.16,88.48L28.99,69.15L33.83,79.79L38.66,52.56L43.49,59.82L48.32,70.99L53.15,64.75L57.99,54.58L62.82,66.65L67.65,38.59L72.48,52.68L77.32,87.29L82.15,40.91L86.98,48.16L91.81,44.06L96.64,75.57L101.48,80.21L106.31,77.59L111.14,54.17L115.97,48.88L120.81,44.12L125.64,75.99L130.47,79.74L135.3,80.69L140.13,81.64L144.97,81.64L149.8,70.76L154.63,29.19L159.46,31.51L164.3,39.84L169.13,33.95L173.96,23.19L178.79,31.28L183.62,29.19L188.46,20.87L193.29,62.14L198.12,19.8L202.95,21.46L207.79,28.06L212.62,28.06L217.45,31.63L222.28,72.66L227.11,65.41L231.95,67.07L236.78,61.96L241.61,60.65L246.44,63.26L251.28,60.47L256.11,61.96L260.94,59.46L270.6,56.37L275.44,58.81L280.27,58.81L285.1,60.29L289.93,57.68L294.77,57.85L299.6,60.65L304.43,59.64L309.26,59.76L314.09,59.1L318.93,54.58L323.76,55.36L328.59,56.19L333.42,55.89L338.26,57.85L343.09,56.19L347.92,56.19L352.75,57.85L357.58,57.5L362.42,52.62L367.25,56.66L372.08,51.55L381.74,55.36L386.58,53.28L391.41,53.45L396.24,54.41L401.07,52.15L405.91,52.44L410.74,53.63L415.57,53.87L420.4,52.44L425.23,53.69L434.9,52.44L439.73,51.55L444.56,52.44L449.4,54.88L459.06,56.84L463.89,60.29L468.72,56.07L473.56,55.24L478.39,55.06L483.22,50.54L488.05,51.79L492.89,54.88L497.72,51.67L502.55,51.97L512.21,56.31L517.05,54.7L521.88,52.8L526.71,52.15L536.38,52.15L541.21,52.98L550.87,56.72L555.7,56.19L560.54,56.72L565.37,53.28L570.2,51.37L575.03,51.55L579.87,53.87L584.7,50.72L594.36,48.16L599.19,48.4L604.03,50.3L608.86,50.3L618.52,48.64L623.36,52.62L628.19,53.69L633.02,50.96L642.68,52.62L647.52,54.41L652.35,55.06L657.18,50.96L662.01,49.47L666.85,50.3L671.68,49.65L676.51,50.72L691.01,49.89L695.84,48.4L700.67,47.98L705.5,49.23L710.34,48.64L715.17,50.3L720,50.96" style="vector-effect: none; fill: none; stroke: rgb(0, 128, 0); stroke-opacity: 1; stroke-width: 2px; opacity: 1;"/></g><g class="points"/><g class="text"/></g><g class="trace scatter tracedb4a3a" style="stroke-miterlimit: 2; opacity: 1;"><g class="fills"/><g class="errorbars"/><g class="lines"><path class="js-line" d="M0,360.92L4.83,62.73L9.66,360.92L14.5,59.04L19.33,54.29L24.16,55.3L28.99,82.23L33.83,88.48L38.66,132.89L43.49,111.9L48.32,53.34L53.15,51.31L57.99,79.5L62.82,53.34L67.65,93.17L72.48,46.14L77.32,116.9L82.15,44L86.98,62.31L91.81,41.86L96.64,51.31L101.48,54.29L106.31,54.29L115.97,41.86L120.81,42.93L125.64,55.3L130.47,55.3L144.97,55.3L149.8,47.21L154.63,69.45L159.46,71.71L164.3,55.24L169.13,50.36L173.96,71.71L178.79,58.63L183.62,55.24L188.46,48.82L193.29,45.07L198.12,47.21L202.95,48.82L207.79,57.56L212.62,59.46L217.45,57.56L222.28,104.95L227.11,102.81L231.95,102.81L236.78,100.61L246.44,100.61L251.28,96.15L256.11,98.41L260.94,98.41L275.44,98.41L280.27,100.61L289.93,100.61L294.77,104.95L299.6,104.95L304.43,102.81L309.26,104.95L314.09,104.95L318.93,102.81L323.76,106.25L328.59,106.25L333.42,102.81L338.26,106.25L343.09,104.05L347.92,104.05L352.75,98.41L357.58,97.22L362.42,97.22L367.25,97.22L372.08,99.54L376.91,99.54L381.74,96.15L425.23,96.15L430.07,98.41L434.9,96.15L439.73,96.15L449.4,96.15L454.23,98.41L459.06,100.61L463.89,100.61L468.72,100.61L473.56,98.41L507.38,98.41L512.21,100.61L521.88,96.15L526.71,96.15L531.54,96.15L536.38,101.79L541.21,101.79L546.04,98.41L560.54,98.41L565.37,96.15L608.86,96.15L613.69,98.41L618.52,96.15L623.36,96.15L666.85,96.15L671.68,98.41L691.01,98.41L695.84,96.15L710.34,96.15L715.17,98.41L720,96.15" style="vector-effect: none; fill: none; stroke: rgb(255, 165, 0); stroke-opacity: 1; stroke-width: 2px; opacity: 1;"/></g><g class="points"/><g class="text"/></g><g class="trace scatter trace79bd26" style="stroke-miterlimit: 2; opacity: 1;"><g class="fills"/><g class="errorbars"/><g class="lines"><path class="js-line" d="M0,251.51L4.83,249.02L9.66,251.51L14.5,209.89L19.33,216.61L24.16,224.16L28.99,140.38L33.83,178.5L38.66,90.44L43.49,110.65L48.32,220.42L53.15,197.76L57.99,144.13L62.82,204.48L67.65,67.96L72.48,134.68L77.32,87.29L82.15,97.87L86.98,120.17L91.81,99.06L96.64,202.34L101.48,211.56L106.31,206.56L111.14,148.59L115.97,121.83L120.81,110.95L125.64,203.17L130.47,210.72L135.3,212.39L140.13,214.11L144.97,214.11L149.8,176.65L154.63,73.49L159.46,73.91L164.3,108.04L173.96,56.01L178.79,77.71L183.62,73.49L188.46,51.85L193.29,152.1L198.12,53.16L202.95,54.58L207.79,58.45L212.62,58.45L217.45,63.26L222.28,77.77L227.11,68.56L231.95,71.53L236.78,66.36L241.61,64.69L246.44,66.24L251.28,64.87L256.11,66.36L265.77,63.09L270.6,60.11L275.44,63.68L280.27,63.68L285.1,65.11L289.93,61.78L294.77,61.54L299.6,64.69L304.43,62.49L309.26,62.31L314.09,61.42L318.93,57.32L323.76,59.7L328.59,60.35L333.42,59.04L338.26,61.54L343.09,58.57L347.92,60.35L357.58,62.02L362.42,56.61L367.25,61.42L372.08,56.19L381.74,59.7L386.58,57.44L396.24,57.56L401.07,55.54L405.91,56.84L410.74,56.96L415.57,58.27L420.4,56.84L425.23,58.51L430.07,57.44L439.73,56.19L444.56,56.84L449.4,58.63L454.23,59.46L459.06,59.4L463.89,63.38L468.72,58.81L473.56,58.15L478.39,58.39L483.22,55.83L488.05,56.01L492.89,58.63L497.72,54.46L502.55,55.77L507.38,57.79L512.21,58.33L521.88,56.37L526.71,55.54L531.54,56.01L536.38,55.54L541.21,56.13L546.04,58.15L550.87,59.64L555.7,58.57L560.54,59.64L565.37,57.44L570.2,56.43L575.03,56.19L579.87,58.27L584.7,55.59L589.53,55.48L594.36,53.81L599.19,53.57L604.03,54.52L613.69,53.93L618.52,53.34L623.36,58.15L628.19,58.51L633.02,55.36L637.85,56.01L652.35,58.39L657.18,55.36L662.01,53.93L666.85,54.52L671.68,53.69L676.51,55.59L686.17,53.69L691.01,55L700.67,52.5L705.5,54.17L710.34,53.34L715.17,54.52L720,55.36" style="vector-effect: none; fill: none; stroke: rgb(128, 0, 128); stroke-opacity: 1; stroke-width: 2px; opacity: 1;"/></g><g class="points"/><g class="text"/></g><g class="trace scatter tracef7435e" style="stroke-miterlimit: 2; opacity: 1;"><g class="fills"/><g class="errorbars"/><g class="lines"><path class="js-line" d="M0,251.51L4.83,247.71L9.66,251.51L19.33,213.4L24.16,217.21L28.99,194.97L33.83,202.58L43.49,184.8L48.32,209.59L53.15,201.98L57.99,191.16L62.82,209.59L67.65,171.12L72.48,182.9L77.32,106.79L82.15,175.29L86.98,185.1L91.81,167.68L96.64,201.98L101.48,213.4L106.31,213.4L115.97,167.68L120.81,171.48L125.64,217.21L130.47,217.21L144.97,217.21L149.8,186.7L154.63,159.05L159.46,162.86L164.3,169.88L169.13,158.46L173.96,162.86L178.79,177.49L183.62,169.88L188.46,154.65L193.29,179.09L198.12,150.85L202.95,154.65L207.79,153.05L212.62,156.85L217.45,153.05L222.28,94.12L227.11,91.86L231.95,91.86L236.78,89.66L246.44,89.66L251.28,85.21L256.11,87.46L260.94,87.46L275.44,87.46L280.27,89.66L289.93,89.66L294.77,94.12L299.6,94.12L304.43,91.86L309.26,94.12L314.09,94.12L318.93,91.86L323.76,95.67L328.59,95.67L333.42,91.86L338.26,95.67L343.09,93.47L347.92,93.47L352.75,87.46L362.42,86.81L367.25,86.81L372.08,89.07L376.91,89.07L381.74,85.21L386.58,85.21L425.23,85.21L430.07,87.46L434.9,85.21L439.73,85.21L449.4,85.21L454.23,87.46L459.06,89.66L463.89,89.66L468.72,89.66L473.56,87.46L507.38,87.46L512.21,89.66L521.88,85.21L526.71,85.21L531.54,85.21L536.38,91.27L541.21,91.27L546.04,87.46L560.54,87.46L565.37,85.21L608.86,85.21L613.69,87.46L618.52,85.21L623.36,85.21L666.85,85.21L671.68,87.46L691.01,87.46L695.84,85.21L710.34,85.21L715.17,87.46L720,85.21" style="vector-effect: none; fill: none; stroke: rgb(255, 192, 203); stroke-opacity: 1; stroke-width: 2px; opacity: 1;"/></g><g class="points"/><g class="text"/></g><g class="trace scatter traced228fe" style="stroke-miterlimit: 2; opacity: 1;"><g class="fills"/><g class="errorbars"/><g class="lines"><path class="js-line" d="M0,330.42L4.83,324.95L9.66,330.42L14.5,247.77L19.33,259.6L24.16,273.45L28.99,142.82L33.83,195.5L38.66,85.21L43.49,107.21L48.32,267.92L53.15,228.38L57.99,149.01L62.82,239.62L67.65,62.08L72.48,136.7L77.32,87.29L82.15,93.05L86.98,118.8L91.81,94.42L96.64,234.92L101.48,250.74L106.31,242L111.14,155.01L115.97,120.82L120.81,107.92L125.64,236.35L130.47,249.25L135.3,252.17L140.13,255.14L144.97,255.14L149.8,193.84L154.63,66.83L159.46,67.37L164.3,104.65L173.96,49.23L178.79,71.23L183.62,66.83L188.46,45.07L193.29,159.05L198.12,46.2L202.95,47.75L207.79,52.03L212.62,52.03L217.45,56.9L222.28,75.87L227.11,67.25L231.95,69.81L236.78,64.63L241.61,63.03L246.44,64.99L251.28,63.15L256.11,64.63L270.6,58.57L275.44,61.78L280.27,61.78L285.1,63.26L289.93,60.11L294.77,60.05L299.6,63.03L304.43,61.3L314.09,60.41L318.93,56.13L323.76,57.97L328.59,58.69L333.42,57.68L338.26,60.05L343.09,57.5L347.92,58.69L352.75,60.05L357.58,60.23L362.42,54.94L367.25,59.52L372.08,54.41L376.91,56.55L381.74,57.97L386.58,55.77L396.24,56.25L401.07,54.11L415.57,56.55L420.4,55.06L425.23,56.61L430.07,55.77L439.73,54.41L444.56,55.06L449.4,57.08L454.23,57.91L459.06,58.27L463.89,62.08L468.72,57.62L473.56,56.9L478.39,57.02L483.22,53.81L488.05,54.29L492.89,57.08L497.72,53.22L502.55,54.17L507.38,56.31L512.21,57.44L526.71,54.11L531.54,54.29L536.38,54.11L541.21,54.76L550.87,58.39L555.7,57.5L560.54,58.39L565.37,55.77L570.2,54.46L575.03,54.41L579.87,56.55L584.7,53.69L589.53,53.22L594.36,51.61L599.19,51.55L604.03,52.8L613.69,52.15L618.52,51.43L623.36,56.01L628.19,56.61L633.02,53.57L637.85,54.29L647.52,56.25L652.35,57.02L657.18,53.57L662.01,52.15L666.85,52.8L671.68,52.03L676.51,53.69L681.34,52.74L686.17,52.03L691.01,52.98L700.67,50.66L705.5,52.21L710.34,51.43L715.17,52.8L720,53.57" style="vector-effect: none; fill: none; stroke: rgb(165, 42, 42); stroke-opacity: 1; stroke-width: 2px; opacity: 1;"/></g><g class="points"/><g class="text"/></g><g class="trace scatter trace2ad5c5" style="stroke-miterlimit: 2; opacity: 1;"><g class="fills"/><g class="errorbars"/><g class="lines"><path class="js-line" d="M0,318.52L4.83,310.32L9.66,318.52L19.33,244.14L24.16,250.86L28.99,210.43L33.83,222.44L38.66,201.03L43.49,191.28L48.32,237.48L53.15,224.58L57.99,204.6L62.82,237.48L67.65,173.5L72.48,194.43L77.32,119.75L82.15,183.08L86.98,196.63L91.81,172.08L96.64,224.58L101.48,244.14L106.31,244.14L111.14,206.15L115.97,172.08L120.81,177.55L125.64,250.86L130.47,250.86L144.97,250.86L149.8,200.26L154.63,158.64L159.46,163.63L164.3,174.45L169.13,158.76L173.96,163.63L178.79,185.34L183.62,174.45L188.46,153.7L193.29,188.66L198.12,148.65L202.95,153.7L207.79,151.21L212.62,156.14L217.45,151.21L222.28,106.14L227.11,103.46L231.95,103.46L236.78,100.78L246.44,100.78L251.28,95.49L256.11,98.17L260.94,98.17L275.44,98.17L280.27,100.78L289.93,100.78L294.77,106.14L299.6,106.14L304.43,103.46L309.26,106.14L314.09,106.14L318.93,103.46L323.76,106.55L328.59,106.55L333.42,103.46L338.26,106.55L343.09,103.94L347.92,103.94L352.75,98.17L357.58,95.97L362.42,95.97L367.25,95.97L372.08,98.64L376.91,98.64L381.74,95.49L425.23,95.49L430.07,98.17L434.9,95.49L439.73,95.49L449.4,95.49L454.23,98.17L459.06,100.78L463.89,100.78L468.72,100.78L473.56,98.17L507.38,98.17L512.21,100.78L521.88,95.49L526.71,95.49L531.54,95.49L536.38,101.26L541.21,101.26L546.04,98.17L560.54,98.17L565.37,95.49L608.86,95.49L613.69,98.17L618.52,95.49L623.36,95.49L666.85,95.49L671.68,98.17L691.01,98.17L695.84,95.49L710.34,95.49L715.17,98.17L720,95.49" style="vector-effect: none; fill: none; stroke: rgb(128, 128, 128); stroke-opacity: 1; stroke-width: 2px; opacity: 1;"/></g><g class="points"/><g class="text"/></g></g></g><g class="overplot"/><path class="xlines-above crisp" d="M0,0" style="fill: none;"/><path class="ylines-above crisp" d="M0,0" style="fill: none;"/><g class="overlines-above"/><g class="xaxislayer-above"><g class="xtick"><text text-anchor="middle" x="0" y="509" transform="translate(241.81,0)" style="font-family: 'Open Sans', verdana, arial, sans-serif; font-size: 12px; fill: rgb(42, 63, 95); fill-opacity: 1; white-space: pre; opacity: 1;">20</text></g><g class="xtick"><text text-anchor="middle" x="0" y="509" style="font-family: 'Open Sans', verdana, arial, sans-serif; font-size: 12px; fill: rgb(42, 63, 95); fill-opacity: 1; white-space: pre; opacity: 1;" transform="translate(338.46000000000004,0)">40</text></g><g class="xtick"><text text-anchor="middle" x="0" y="509" style="font-family: 'Open Sans', verdana, arial, sans-serif; font-size: 12px; fill: rgb(42, 63, 95); fill-opacity: 1; white-space: pre; opacity: 1;" transform="translate(435.1,0)">60</text></g><g class="xtick"><text text-anchor="middle" x="0" y="509" style="font-family: 'Open Sans', verdana, arial, sans-serif; font-size: 12px; fill: rgb(42, 63, 95); fill-opacity: 1; white-space: pre; opacity: 1;" transform="translate(531.74,0)">80</text></g><g class="xtick"><text text-anchor="middle" x="0" y="509" style="font-family: 'Open Sans', verdana, arial, sans-serif; font-size: 12px; fill: rgb(42, 63, 95); fill-opacity: 1; white-space: pre; opacity: 1;" transform="translate(628.39,0)">100</text></g><g class="xtick"><text text-anchor="middle" x="0" y="509" style="font-family: 'Open Sans', verdana, arial, sans-serif; font-size: 12px; fill: rgb(42, 63, 95); fill-opacity: 1; white-space: pre; opacity: 1;" transform="translate(725.03,0)">120</text></g><g class="xtick"><text text-anchor="middle" x="0" y="509" style="font-family: 'Open Sans', verdana, arial, sans-serif; font-size: 12px; fill: rgb(42, 63, 95); fill-opacity: 1; white-space: pre; opacity: 1;" transform="translate(821.68,0)">140</text></g></g><g class="yaxislayer-above"><g class="ytick"><text text-anchor="end" x="149" y="4.199999999999999" transform="translate(0,470.43)" style="font-family: 'Open Sans', verdana, arial, sans-serif; font-size: 12px; fill: rgb(42, 63, 95); fill-opacity: 1; white-space: pre; opacity: 1;">30</text></g><g class="ytick"><text text-anchor="end" x="149" y="4.199999999999999" style="font-family: 'Open Sans', verdana, arial, sans-serif; font-size: 12px; fill: rgb(42, 63, 95); fill-opacity: 1; white-space: pre; opacity: 1;" transform="translate(0,410.97)">40</text></g><g class="ytick"><text text-anchor="end" x="149" y="4.199999999999999" style="font-family: 'Open Sans', verdana, arial, sans-serif; font-size: 12px; fill: rgb(42, 63, 95); fill-opacity: 1; white-space: pre; opacity: 1;" transform="translate(0,351.51)">50</text></g><g class="ytick"><text text-anchor="end" x="149" y="4.199999999999999" style="font-family: 'Open Sans', verdana, arial, sans-serif; font-size: 12px; fill: rgb(42, 63, 95); fill-opacity: 1; white-space: pre; opacity: 1;" transform="translate(0,292.05)">60</text></g><g class="ytick"><text text-anchor="end" x="149" y="4.199999999999999" style="font-family: 'Open Sans', verdana, arial, sans-serif; font-size: 12px; fill: rgb(42, 63, 95); fill-opacity: 1; white-space: pre; opacity: 1;" transform="translate(0,232.59)">70</text></g><g class="ytick"><text text-anchor="end" x="149" y="4.199999999999999" style="font-family: 'Open Sans', verdana, arial, sans-serif; font-size: 12px; fill: rgb(42, 63, 95); fill-opacity: 1; white-space: pre; opacity: 1;" transform="translate(0,173.14)">80</text></g><g class="ytick"><text text-anchor="end" x="149" y="4.199999999999999" style="font-family: 'Open Sans', verdana, arial, sans-serif; font-size: 12px; fill: rgb(42, 63, 95); fill-opacity: 1; white-space: pre; opacity: 1;" transform="translate(0,113.68)">90</text></g></g><g class="overaxes-above"/></g></g><g class="polarlayer"/><g class="smithlayer"/><g class="ternarylayer"/><g class="geolayer"/><g class="funnelarealayer"/><g class="pielayer"/><g class="iciclelayer"/><g class="treemaplayer"/><g class="sunburstlayer"/><g class="glimages"/><defs id="topdefs-39c519"><g class="clips"/><clipPath id="legend39c519"><rect width="128" height="162" x="0" y="0"/></clipPath></defs><g class="layer-above"><g class="imagelayer"/><g class="shapelayer"/></g><g class="infolayer"><g class="legend" pointer-events="all" transform="translate(884.4,100)"><rect class="bg" shape-rendering="crispEdges" width="128" height="162" x="0" y="0" style="stroke: rgb(68, 68, 68); stroke-opacity: 1; fill: rgb(255, 255, 255); fill-opacity: 1; stroke-width: 0px;"/><g class="scrollbox" transform="" clip-path="url(#legend39c519)"><g class="groups"><g class="traces" transform="translate(0,14.5)" style="opacity: 1;"><text class="legendtext" text-anchor="start" x="40" y="4.680000000000001" style="font-family: 'Open Sans', verdana, arial, sans-serif; font-size: 12px; fill: rgb(42, 63, 95); fill-opacity: 1; white-space: pre;">Train Accuracy</text><g class="layers" style="opacity: 1;"><g class="legendfill"/><g class="legendlines"><path class="js-line" d="M5,0h30" style="fill: none; stroke: rgb(255, 0, 0); stroke-opacity: 1; stroke-width: 2px;"/></g><g class="legendsymbols"><g class="legendpoints"/></g></g><rect class="legendtoggle" x="0" y="-9.5" width="122.71875" height="19" style="fill: rgb(0, 0, 0); fill-opacity: 0;"/></g><g class="traces" transform="translate(0,33.5)" style="opacity: 1;"><text class="legendtext" text-anchor="start" x="40" y="4.680000000000001" style="font-family: 'Open Sans', verdana, arial, sans-serif; font-size: 12px; fill: rgb(42, 63, 95); fill-opacity: 1; white-space: pre;">Test Accuracy</text><g class="layers" style="opacity: 1;"><g class="legendfill"/><g class="legendlines"><path class="js-line" d="M5,0h30" style="fill: none; stroke: rgb(0, 0, 255); stroke-opacity: 1; stroke-width: 2px;"/></g><g class="legendsymbols"><g class="legendpoints"/></g></g><rect class="legendtoggle" x="0" y="-9.5" width="122.71875" height="19" style="fill: rgb(0, 0, 0); fill-opacity: 0;"/></g><g class="traces" transform="translate(0,52.5)" style="opacity: 1;"><text class="legendtext" text-anchor="start" x="40" y="4.680000000000001" style="font-family: 'Open Sans', verdana, arial, sans-serif; font-size: 12px; fill: rgb(42, 63, 95); fill-opacity: 1; white-space: pre;">Train Precision</text><g class="layers" style="opacity: 1;"><g class="legendfill"/><g class="legendlines"><path class="js-line" d="M5,0h30" style="fill: none; stroke: rgb(0, 128, 0); stroke-opacity: 1; stroke-width: 2px;"/></g><g class="legendsymbols"><g class="legendpoints"/></g></g><rect class="legendtoggle" x="0" y="-9.5" width="122.71875" height="19" style="fill: rgb(0, 0, 0); fill-opacity: 0;"/></g><g class="traces" transform="translate(0,71.5)" style="opacity: 1;"><text class="legendtext" text-anchor="start" x="40" y="4.680000000000001" style="font-family: 'Open Sans', verdana, arial, sans-serif; font-size: 12px; fill: rgb(42, 63, 95); fill-opacity: 1; white-space: pre;">Test Precision</text><g class="layers" style="opacity: 1;"><g class="legendfill"/><g class="legendlines"><path class="js-line" d="M5,0h30" style="fill: none; stroke: rgb(255, 165, 0); stroke-opacity: 1; stroke-width: 2px;"/></g><g class="legendsymbols"><g class="legendpoints"/></g></g><rect class="legendtoggle" x="0" y="-9.5" width="122.71875" height="19" style="fill: rgb(0, 0, 0); fill-opacity: 0;"/></g><g class="traces" transform="translate(0,90.5)" style="opacity: 1;"><text class="legendtext" text-anchor="start" x="40" y="4.680000000000001" style="font-family: 'Open Sans', verdana, arial, sans-serif; font-size: 12px; fill: rgb(42, 63, 95); fill-opacity: 1; white-space: pre;">Train Recall</text><g class="layers" style="opacity: 1;"><g class="legendfill"/><g class="legendlines"><path class="js-line" d="M5,0h30" style="fill: none; stroke: rgb(128, 0, 128); stroke-opacity: 1; stroke-width: 2px;"/></g><g class="legendsymbols"><g class="legendpoints"/></g></g><rect class="legendtoggle" x="0" y="-9.5" width="122.71875" height="19" style="fill: rgb(0, 0, 0); fill-opacity: 0;"/></g><g class="traces" transform="translate(0,109.5)" style="opacity: 1;"><text class="legendtext" text-anchor="start" x="40" y="4.680000000000001" style="font-family: 'Open Sans', verdana, arial, sans-serif; font-size: 12px; fill: rgb(42, 63, 95); fill-opacity: 1; white-space: pre;">Test Recall</text><g class="layers" style="opacity: 1;"><g class="legendfill"/><g class="legendlines"><path class="js-line" d="M5,0h30" style="fill: none; stroke: rgb(255, 192, 203); stroke-opacity: 1; stroke-width: 2px;"/></g><g class="legendsymbols"><g class="legendpoints"/></g></g><rect class="legendtoggle" x="0" y="-9.5" width="122.71875" height="19" style="fill: rgb(0, 0, 0); fill-opacity: 0;"/></g><g class="traces" transform="translate(0,128.5)" style="opacity: 1;"><text class="legendtext" text-anchor="start" x="40" y="4.680000000000001" style="font-family: 'Open Sans', verdana, arial, sans-serif; font-size: 12px; fill: rgb(42, 63, 95); fill-opacity: 1; white-space: pre;">Train F1</text><g class="layers" style="opacity: 1;"><g class="legendfill"/><g class="legendlines"><path class="js-line" d="M5,0h30" style="fill: none; stroke: rgb(165, 42, 42); stroke-opacity: 1; stroke-width: 2px;"/></g><g class="legendsymbols"><g class="legendpoints"/></g></g><rect class="legendtoggle" x="0" y="-9.5" width="122.71875" height="19" style="fill: rgb(0, 0, 0); fill-opacity: 0;"/></g><g class="traces" transform="translate(0,147.5)" style="opacity: 1;"><text class="legendtext" text-anchor="start" x="40" y="4.680000000000001" style="font-family: 'Open Sans', verdana, arial, sans-serif; font-size: 12px; fill: rgb(42, 63, 95); fill-opacity: 1; white-space: pre;">Test F1</text><g class="layers" style="opacity: 1;"><g class="legendfill"/><g class="legendlines"><path class="js-line" d="M5,0h30" style="fill: none; stroke: rgb(128, 128, 128); stroke-opacity: 1; stroke-width: 2px;"/></g><g class="legendsymbols"><g class="legendpoints"/></g></g><rect class="legendtoggle" x="0" y="-9.5" width="122.71875" height="19" style="fill: rgb(0, 0, 0); fill-opacity: 0;"/></g></g></g><rect class="scrollbar" rx="20" ry="3" width="0" height="0" x="0" y="0" style="fill: rgb(128, 139, 164); fill-opacity: 1;"/></g><g class="g-gtitle"><text class="gtitle" x="51.2" y="50" text-anchor="start" dy="0em" style="font-family: 'Open Sans', verdana, arial, sans-serif; font-size: 17px; fill: rgb(42, 63, 95); opacity: 1; font-weight: normal; white-space: pre;">Training Metrics - logs/FakeNewsNet-politifact_max-vocab=15000_pre=v1_domain_T=150_s=15.log</text></g><g class="g-xtitle"><text class="xtitle" x="510" y="537.3" text-anchor="middle" style="font-family: 'Open Sans', verdana, arial, sans-serif; font-size: 14px; fill: rgb(42, 63, 95); opacity: 1; font-weight: normal; white-space: pre;">Epoch</text></g><g class="g-ytitle"><text class="ytitle" transform="rotate(-90,110.965625,298)" x="110.965625" y="298" text-anchor="middle" style="font-family: 'Open Sans', verdana, arial, sans-serif; font-size: 14px; fill: rgb(42, 63, 95); opacity: 1; font-weight: normal; white-space: pre;">Metric Score</text></g></g><g class="menulayer"><g class="updatemenu-container" style="cursor: pointer;"><g class="updatemenu-header-group" transform="translate(12,60)"><g class="updatemenu-header" transform="translate(1,1)" style="pointer-events: all;"><rect class="updatemenu-item-rect" rx="2" ry="2" shape-rendering="crispEdges" x="0" y="0" width="174" height="33" style="stroke: rgb(190, 200, 217); stroke-opacity: 1; fill: rgb(255, 255, 255); fill-opacity: 1; stroke-width: 1px;"/><text class="updatemenu-item-text" text-anchor="start" data-notex="1" x="12" y="19.5" style="font-family: 'Open Sans', verdana, arial, sans-serif; font-size: 12px; fill: rgb(42, 63, 95); fill-opacity: 1; white-space: pre;">All</text></g><text class="updatemenu-header-arrow" text-anchor="end" x="170" y="19.5" style="font-family: 'Open Sans', verdana, arial, sans-serif; font-size: 12px; fill: rgb(42, 63, 95); fill-opacity: 1;">▼</text></g><g class="updatemenu-dropdown-button-group" updatemenu-active-index="-1" style="pointer-events: all;"><rect class="scrollbox-bg" opacity="0" x="0" y="0" width="0" height="0" style="pointer-events: all;"/></g></g></g></svg>