<svg class="main-svg" xmlns="http://www.w3.org/2000/svg" xmlns:xlink="http://www.w3.org/1999/xlink" width="1024" height="576" style="" viewBox="0 0 1024 576"><rect x="0" y="0" width="1024" height="576" style="fill: rgb(255, 255, 255); fill-opacity: 1;"/><defs id="defs-e2dd75"><g class="clips"><clipPath id="clipe2dd75xyplot" class="plotclip"><rect width="726" height="396"/></clipPath><clipPath class="axesclip" id="clipe2dd75x"><rect x="143" y="0" width="726" height="576"/></clipPath><clipPath class="axesclip" id="clipe2dd75y"><rect x="0" y="100" width="1024" height="396"/></clipPath><clipPath class="axesclip" id="clipe2dd75xy"><rect x="143" y="100" width="726" height="396"/></clipPath></g><g class="gradients"/><g class="patterns"/></defs><g class="bglayer"><rect class="bg" x="143" y="100" width="726" height="396" style="fill: rgb(229, 236, 246); fill-opacity: 1; stroke-width: 0;"/></g><g class="layer-below"><g class="imagelayer"/><g class="shapelayer"/></g><g class="cartesianlayer"><g class="subplot xy"><g class="layer-subplot"><g class="shapelayer"/><g class="imagelayer"/></g><g class="minor-gridlayer"><g class="x"/><g class="y"/></g><g class="gridlayer"><g class="x"><path class="xgrid crisp" transform="translate(235.57999999999998,0)" d="M0,100v396" style="stroke: rgb(255, 255, 255); stroke-opacity: 1; stroke-width: 1px;"/><path class="xgrid crisp" transform="translate(333.03,0)" d="M0,100v396" style="stroke: rgb(255, 255, 255); stroke-opacity: 1; stroke-width: 1px;"/><path class="xgrid crisp" transform="translate(430.48,0)" d="M0,100v396" style="stroke: rgb(255, 255, 255); stroke-opacity: 1; stroke-width: 1px;"/><path class="xgrid crisp" transform="translate(527.9300000000001,0)" d="M0,100v396" style="stroke: rgb(255, 255, 255); stroke-opacity: 1; stroke-width: 1px;"/><path class="xgrid crisp" transform="translate(625.38,0)" d="M0,100v396" style="stroke: rgb(255, 255, 255); stroke-opacity: 1; stroke-width: 1px;"/><path class="xgrid crisp" transform="translate(722.83,0)" d="M0,100v396" style="stroke: rgb(255, 255, 255); stroke-opacity: 1; stroke-width: 1px;"/><path class="xgrid crisp" transform="translate(820.28,0)" d="M0,100v396" style="stroke: rgb(255, 255, 255); stroke-opacity: 1; stroke-width: 1px;"/></g><g class="y"><path class="ygrid crisp" transform="translate(0,439.94)" d="M143,0h726" style="stroke: rgb(255, 255, 255); stroke-opacity: 1; stroke-width: 1px;"/><path class="ygrid crisp" transform="translate(0,369.39)" d="M143,0h726" style="stroke: rgb(255, 255, 255); stroke-opacity: 1; stroke-width: 1px;"/><path class="ygrid crisp" transform="translate(0,298.85)" d="M143,0h726" style="stroke: rgb(255, 255, 255); stroke-opacity: 1; stroke-width: 1px;"/><path class="ygrid crisp" transform="translate(0,228.3)" d="M143,0h726" style="stroke: rgb(255, 255, 255); stroke-opacity: 1; stroke-width: 1px;"/><path class="ygrid crisp" transform="translate(0,157.75)" d="M143,0h726" style="stroke: rgb(255, 255, 255); stroke-opacity: 1; stroke-width: 1px;"/></g></g><g class="zerolinelayer"/><path class="xlines-below"/><path class="ylines-below"/><g class="overlines-below"/><g class="xaxislayer-below"/><g class="yaxislayer-below"/><g class="overaxes-below"/><g class="plot" transform="translate(143,100)" clip-path="url(#clipe2dd75xyplot)"><g class="scatterlayer mlayer"><g class="trace scatter trace08a4e5" style="stroke-miterlimit: 2; opacity: 1;"><g class="fills"/><g class="errorbars"/><g class="lines"><path class="js-line" d="M0,59.66L14.62,35.11L19.49,35.11L24.36,32.43L29.23,33.77L34.11,36.38L38.98,43.72L43.85,51.69L48.72,51.69L53.6,57.68L58.47,126.18L63.34,47.03L68.21,34.4L73.09,45.06L77.96,42.37L82.83,48.37L87.7,68.97L92.58,112.22L97.45,65.02L102.32,78.28L107.19,69.68L112.07,78.99L116.94,84.28L121.81,81.6L126.68,73.63L131.56,134.79L136.43,61.7L141.3,70.31L146.17,65.02L151.05,83.64L155.92,77.65L160.79,92.96L165.66,66.36L170.54,82.3L175.41,86.25L180.28,67L185.15,77.65L190.03,77.65L194.9,75.67L199.77,59.66L204.64,62.34L209.52,60.36L214.39,80.96L219.26,69.68L224.13,62.34L229.01,80.96L233.88,77.65L238.75,71.65L243.62,35.11L248.5,39.76L253.37,59.66L258.24,65.02L263.11,94.23L267.99,70.31L272.86,89.57L277.73,55L282.6,63.68L292.35,71.02L297.22,65.66L302.09,54.37L306.97,47.74L311.84,82.3L316.71,79.62L321.58,76.94L326.46,81.6L331.33,76.94L336.2,116.17L341.07,103.54L345.95,79.62L350.82,70.31L355.69,65.02L360.56,72.29L365.44,58.32L370.31,63.68L375.18,80.96L380.05,67.63L384.93,45.69L389.8,45.69L394.67,80.33L399.54,65.02L404.42,76.31L409.29,73.63L414.16,75.67L419.03,65.66L423.91,66.36L428.78,69.68L433.65,83.64L438.52,74.33L443.4,48.37L448.27,72.29L453.14,78.99L458.01,90.28L462.89,76.94L467.76,57.68L472.63,70.31L477.5,76.94L482.38,73.63L487.25,38.42L492.12,86.96L496.99,78.99L501.87,26.43L506.74,80.96L511.61,75.67L516.48,73.63L521.36,63.68L526.23,67L531.1,64.31L535.97,56.34L540.85,44.42L545.72,57.05L550.59,75.67L555.46,90.91L560.34,74.97L565.21,78.99L570.08,74.33L574.95,55L579.83,87.6L584.7,53.03L589.57,65.66L599.32,84.28L604.19,68.34L609.06,112.22L613.93,56.34L618.81,51.69L623.68,59.02L628.55,72.29L633.42,80.33L638.3,74.33L643.17,69.68L648.04,49.71L652.91,91.62L657.79,64.31L662.66,55.71L667.53,48.37L672.4,51.69L677.28,90.91L682.15,74.33L687.02,44.42L691.89,72.99L696.77,94.93L701.64,77.65L706.51,62.97L711.38,80.33L716.26,49.08L721.13,53.73L726,72.99" style="vector-effect: none; fill: none; stroke: rgb(255, 0, 0); stroke-opacity: 1; stroke-width: 2px; opacity: 1;"/></g><g class="points"/><g class="text"/></g><g class="trace scatter traced5837f" style="stroke-miterlimit: 2; opacity: 1;"><g class="fills"/><g class="errorbars"/><g class="lines"><path class="js-line" d="M0,58.81L9.74,53.52L14.62,53.52L19.49,50.84L24.36,72.07L29.23,88.02L34.11,72.07L38.98,93.31L43.85,106.57L48.72,93.31L53.6,117.15L58.47,188.76L63.34,93.31L68.21,85.34L73.09,98.6L77.96,93.31L82.83,111.86L87.7,138.39L92.58,186.15L97.45,130.42L102.32,151.65L107.19,148.97L112.07,156.94L116.94,146.36L121.81,159.62L126.68,138.39L131.56,196.73L136.43,133.1L141.3,151.65L146.17,133.1L151.05,156.94L155.92,148.97L160.79,167.52L165.66,146.36L170.54,156.94L175.41,156.94L180.28,143.68L185.15,159.62L190.03,154.26L194.9,156.94L199.77,133.1L204.64,135.71L209.52,125.13L214.39,162.23L219.26,138.39L224.13,143.68L229.01,159.62L233.88,159.62L238.75,156.94L243.62,90.63L248.5,98.6L253.37,148.97L258.24,133.1L263.11,162.23L267.99,146.36L272.86,151.65L277.73,119.83L282.6,138.39L287.48,143.68L292.35,141L297.22,135.71L302.09,117.15L306.97,114.54L311.84,156.94L316.71,154.26L321.58,146.36L326.46,151.65L331.33,138.39L336.2,194.05L341.07,194.05L345.95,148.97L350.82,156.94L355.69,138.39L360.56,148.97L365.44,133.1L370.31,127.74L375.18,151.65L380.05,148.97L384.93,109.18L389.8,109.18L394.67,146.36L399.54,135.71L404.42,159.62L409.29,162.23L414.16,156.94L419.03,127.74L423.91,146.36L428.78,143.68L433.65,148.97L438.52,146.36L443.4,106.57L448.27,143.68L453.14,143.68L458.01,151.65L462.89,135.71L467.76,130.42L472.63,127.74L477.5,141L482.38,148.97L487.25,109.18L492.12,154.26L496.99,151.65L501.87,88.02L506.74,154.26L511.61,148.97L516.48,151.65L521.36,135.71L526.23,148.97L531.1,143.68L535.97,122.44L540.85,106.57L545.72,117.15L550.59,159.62L555.46,172.89L560.34,141L570.08,146.36L574.95,119.83L579.83,159.62L584.7,125.13L589.57,146.36L594.44,148.97L599.32,143.68L604.19,141L609.06,180.79L613.93,122.44L618.81,122.44L623.68,135.71L633.42,151.65L638.3,138.39L643.17,138.39L648.04,127.74L652.91,180.79L657.79,154.26L662.66,135.71L667.53,122.44L672.4,117.15L677.28,151.65L682.15,143.68L687.02,119.83L691.89,148.97L696.77,172.89L701.64,141L706.51,125.13L711.38,151.65L716.26,127.74L721.13,119.83L726,143.68" style="vector-effect: none; fill: none; stroke: rgb(0, 0, 255); stroke-opacity: 1; stroke-width: 2px; opacity: 1;"/></g><g class="points"/><g class="text"/></g><g class="trace scatter trace2a8366" style="stroke-miterlimit: 2; opacity: 1;"><g class="fills"/><g class="errorbars"/><g class="lines"><path class="js-line" d="M0,376.2L4.87,19.8L9.74,59.09L14.62,48.02L19.49,62.83L24.36,105.94L29.23,118.21L34.11,121.95L38.98,143.89L43.85,158.28L48.72,158.28L53.6,165.69L58.47,226.5L63.34,149.96L68.21,123.01L73.09,146.01L77.96,141.21L82.83,150.8L87.7,177.82L92.58,215.99L97.45,173.17L102.32,187.21L107.19,179.66L112.07,189.11L116.94,193.7L121.81,191.72L126.68,184.1L131.56,228.05L136.43,169.01L141.3,179.31L146.17,174.08L151.05,192.43L155.92,186.01L160.79,200.68L165.66,174.23L170.54,191.16L175.41,195.53L180.28,175L185.15,186.57L190.03,186.57L194.9,183.96L199.77,166.47L204.64,169.43L209.52,168.16L214.39,189.89L219.26,178.6L224.13,169.43L229.01,189.25L233.88,185.37L238.75,180.79L243.62,126.54L248.5,135.99L253.37,166.47L258.24,173.17L263.11,199.62L267.99,178.25L272.86,195.74L277.73,160.82L282.6,171.55L292.35,179.02L297.22,172.96L302.09,159.2L306.97,149.32L311.84,190.52L316.71,187.98L321.58,185.87L326.46,189.89L331.33,184.74L336.2,215.42L341.07,208.3L345.95,188.55L350.82,177.75L355.69,172.67L360.56,180.43L365.44,164.28L370.31,170.63L375.18,189.89L380.05,175.28L384.93,145.58L389.8,145.8L394.67,187.35L399.54,171.26L404.42,183.47L409.29,180.72L414.16,182.76L419.03,172.04L423.91,173.73L428.78,177.54L433.65,191.09L438.52,181.42L443.4,150.17L448.27,179.38L453.14,187.28L458.01,197.01L462.89,185.87L467.76,163.43L472.63,178.81L477.5,184.74L482.38,181.28L487.25,133.45L492.12,194.75L496.99,187.28L501.87,107.84L506.74,189.89L511.61,183.96L516.48,181.28L521.36,170.13L526.23,174.01L531.1,170.91L535.97,162.02L540.85,144.1L545.72,162.52L550.59,183.96L555.46,198.28L560.34,183.26L565.21,187.28L570.08,182.55L574.95,160.47L579.83,194.68L584.7,157.37L589.57,172.96L594.44,183.4L599.32,191.72L604.19,176.06L609.06,214.37L613.93,161.67L618.81,155.39L623.68,164.77L628.55,179.87L633.42,187.98L638.3,183.11L643.17,178.04L648.04,152.14L652.91,199.55L657.79,171.9L667.53,150.38L672.4,155.39L677.28,198.28L682.15,183.68L687.02,144.1L691.89,181.7L696.77,201.6L701.64,186.57L706.51,169.78L711.38,188.62L716.26,151.37L721.13,158L726,181.7" style="vector-effect: none; fill: none; stroke: rgb(0, 128, 0); stroke-opacity: 1; stroke-width: 2px; opacity: 1;"/></g><g class="points"/><g class="text"/></g><g class="trace scatter trace2a21fb" style="stroke-miterlimit: 2; opacity: 1;"><g class="fills"/><g class="errorbars"/><g class="lines"><path class="js-line" d="M0,375.78L4.87,138.32L9.74,135.99L14.62,149.53L19.49,133.59L24.36,238.56L29.23,251.69L34.11,232.92L38.98,248.65L43.85,267.91L48.72,253.52L53.6,267.06L58.47,291.26L63.34,244.14L68.21,247.81L73.09,250.06L77.96,258.81L82.83,262.69L87.7,276.87L92.58,294.65L97.45,267.35L102.32,279.62L107.19,278.21L112.07,282.23L116.94,272.43L121.81,283.5L126.68,272.29L131.56,289.78L136.43,264.74L141.3,275.18L146.17,269.04L151.05,277.86L155.92,273.84L160.79,282.73L165.66,276.8L170.54,282.23L175.41,282.23L180.28,275.32L185.15,283.5L190.03,280.96L194.9,282.23L199.77,269.04L204.64,270.73L209.52,268.26L214.39,284.77L219.26,272.29L224.13,275.32L229.01,283.5L233.88,283.5L238.75,286.75L243.62,240.89L248.5,250.06L253.37,282.8L258.24,269.04L263.11,276.09L267.99,268.19L272.86,270.94L277.73,260.01L282.6,272.29L287.48,275.32L292.35,273.84L297.22,270.73L302.09,257.96L306.97,260.29L311.84,269.39L316.71,272.29L321.58,264.03L326.46,270.94L331.33,263.68L336.2,284.7L341.07,293.17L345.95,269.6L350.82,277.86L355.69,263.68L360.56,269.6L365.44,264.74L370.31,253.1L375.18,270.94L380.05,273.84L384.93,255.78L389.8,255.78L394.67,268.19L399.54,262.13L404.42,283.5L409.29,284.77L414.16,273.56L419.03,257.12L423.91,272.43L428.78,266.71L433.65,265.44L438.52,268.19L443.4,253.45L448.27,262.62L453.14,266.71L458.01,266.78L462.89,262.13L467.76,267.35L472.63,253.1L477.5,265.23L482.38,269.6L487.25,251.47L492.12,272.29L496.99,270.94L501.87,241.88L506.74,276.52L511.61,273.84L516.48,275.18L521.36,266.36L526.23,273.84L531.1,270.94L535.97,257.61L540.85,249.15L545.72,253.73L550.59,279.13L555.46,280.75L560.34,265.23L565.21,266.71L570.08,272.43L574.95,264.45L579.83,279.13L584.7,263.82L589.57,272.43L594.44,269.6L599.32,266.71L604.19,269.46L609.06,283.93L613.93,261.91L618.81,261.91L623.68,266.36L628.55,266.71L633.42,270.94L638.3,263.68L643.17,263.68L648.04,261.28L652.91,283.93L657.79,285.48L662.66,266.36L667.53,266.43L672.4,253.73L677.28,270.94L682.15,279.9L687.02,264.45L691.89,273.84L696.77,280.75L701.64,265.23L706.51,255.35L711.38,275.18L716.26,265.58L721.13,260.01L726,270.94" style="vector-effect: none; fill: none; stroke: rgb(255, 165, 0); stroke-opacity: 1; stroke-width: 2px; opacity: 1;"/></g><g class="points"/><g class="text"/></g><g class="trace scatter trace0b686a" style="stroke-miterlimit: 2; opacity: 1;"><g class="fills"/><g class="errorbars"/><g class="lines"><path class="js-line" d="M0,339.94L4.87,301.14L9.74,250.84L14.62,205.9L19.49,197.29L24.36,121.32L29.23,93.38L34.11,114.9L38.98,78.85L43.85,74.76L48.72,74.76L53.6,60.86L58.47,90.42L63.34,69.25L68.21,73.7L73.09,59.59L77.96,72.43L82.83,47.1L87.7,52.82L92.58,76.94L97.45,50.63L107.19,58.95L112.07,61.28L116.94,61.35L121.81,62.76L126.68,61.14L131.56,83.79L136.43,48.79L141.3,53.59L146.17,56.34L151.05,58.11L155.92,51.9L160.79,63.33L165.66,48.51L170.54,57.4L175.41,62.48L180.28,48.87L185.15,54.79L190.03,54.79L199.77,47.67L204.64,46.25L209.52,53.73L214.39,56.63L219.26,53.24L224.13,46.25L229.01,53.8L233.88,49.08L238.75,54.3L243.62,51.12L248.5,53.73L253.37,47.67L258.24,50.63L263.11,55.43L267.99,47.88L272.86,52.89L277.73,50.77L282.6,49.85L292.35,48.23L297.22,45.27L302.09,44.7L306.97,40.96L311.84,54.51L316.71,53.03L321.58,54.44L326.46,54.16L331.33,48.72L336.2,67.7L341.07,66.36L345.95,55.92L350.82,44.99L355.69,47.74L360.56,48.94L365.44,44.07L370.31,44.14L375.18,56.63L380.05,46.4L384.93,31.3L389.8,34.12L394.67,47.67L399.54,39.13L404.42,45.48L409.29,44L414.16,45.06L419.03,39.55L423.91,45.62L428.78,47.45L433.65,52.39L438.52,44.35L443.4,38.49L448.27,43.22L453.14,52.67L458.01,56.13L462.89,54.44L467.76,43.64L472.63,50.7L482.38,46.82L487.25,50.13L492.12,57.12L496.99,52.67L501.87,37.72L506.74,56.63L511.61,50.84L516.48,46.82L521.36,41.25L526.23,43.15L531.1,41.67L535.97,45.83L540.85,42.02L545.72,43.29L555.46,59.31L560.34,50.42L565.21,52.67L570.08,50.06L574.95,47.95L579.83,54.65L584.7,43.93L589.57,45.27L594.44,47.95L599.32,52.75L604.19,46.75L609.06,71.16L613.93,42.94L618.81,43.22L623.68,41.53L628.55,46.11L633.42,50.56L638.3,52.96L643.17,50.35L648.04,39.2L652.91,62.55L657.79,47.38L662.66,39.69L667.53,41.39L672.4,43.22L677.28,59.31L682.15,55.78L687.02,42.02L696.77,61.56L701.64,54.79L706.51,43.79L711.38,53.38L716.26,41.74L721.13,41.46L726,52.18" style="vector-effect: none; fill: none; stroke: rgb(128, 0, 128); stroke-opacity: 1; stroke-width: 2px; opacity: 1;"/></g><g class="points"/><g class="text"/></g><g class="trace scatter traceab0291" style="stroke-miterlimit: 2; opacity: 1;"><g class="fills"/><g class="errorbars"/><g class="lines"><path class="js-line" d="M0,339.94L9.74,290.63L14.62,279.06L19.49,266.01L24.36,266.22L29.23,240.26L34.11,254.58L38.98,220.08L43.85,239.06L48.72,231.65L53.6,221.77L58.47,226.85L63.34,208.51L68.21,238.85L73.09,211.4L77.96,243.22L82.83,218.81L87.7,221.99L92.58,236.94L97.45,205.97L102.32,217.75L107.19,216.27L112.07,220.72L116.94,203.22L121.81,222.2L126.68,210.42L131.56,219.66L136.43,195.88L141.3,206.18L151.05,209.15L155.92,204.7L160.79,215.07L165.66,214.79L170.54,220.72L175.41,220.72L180.28,213.31L185.15,222.2L190.03,219.23L194.9,220.72L199.77,207.45L204.64,208.93L209.52,214.58L214.39,223.68L219.26,210.42L224.13,213.31L229.01,222.2L233.88,222.2L238.75,232.29L243.62,207.03L248.5,211.4L253.37,227.91L258.24,207.45L263.11,200.47L267.99,191.65L272.86,194.61L277.73,200.05L282.6,210.42L287.48,213.31L292.35,211.9L297.22,208.93L302.09,198.56L306.97,208.72L311.84,185.94L316.71,196.1L321.58,180.08L326.46,194.61L331.33,187.21L336.2,206.61L341.07,229.82L345.95,193.13L350.82,209.15L355.69,187.21L360.56,193.13L365.44,195.88L370.31,169.71L375.18,194.61L380.05,204.7L384.93,205.76L389.8,205.76L394.67,191.65L399.54,185.72L404.42,222.2L409.29,223.68L414.16,197.58L419.03,181.28L423.91,203.22L428.78,190.17L433.65,181.56L438.52,191.65L443.4,204.28L448.27,178.6L453.14,190.17L458.01,182.97L462.89,185.72L467.76,205.97L472.63,169.71L477.5,188.69L482.38,193.13L487.25,194.19L492.12,196.1L496.99,194.61L501.87,217.12L506.74,207.66L511.61,204.7L516.48,206.18L521.36,197.29L526.23,204.7L531.1,201.74L535.97,189.96L540.85,192.71L545.72,186.99L550.59,210.63L555.46,206.4L560.34,188.69L565.21,190.17L570.08,203.22L574.95,211.62L579.83,210.63L584.7,203.01L589.57,203.22L594.44,193.13L599.32,190.17L604.19,200.26L609.06,210.84L613.93,201.53L618.81,201.53L623.68,197.29L628.55,190.17L633.42,194.61L638.3,187.21L643.17,187.21L648.04,192.92L652.91,210.84L657.79,230.8L662.66,197.29L667.53,213.1L672.4,186.99L677.28,194.61L682.15,224.95L687.02,211.62L691.89,204.7L696.77,206.4L701.64,188.69L706.51,179.87L711.38,206.18L716.26,204.49L721.13,200.05L726,201.74" style="vector-effect: none; fill: none; stroke: rgb(255, 192, 203); stroke-opacity: 1; stroke-width: 2px; opacity: 1;"/></g><g class="points"/><g class="text"/></g><g class="trace scatter tracee086bd" style="stroke-miterlimit: 2; opacity: 1;"><g class="fills"/><g class="errorbars"/><g class="lines"><path class="js-line" d="M0,359.06L9.74,215L14.62,162.94L19.49,156.94L24.36,113.98L29.23,106.71L34.11,118.49L38.98,118.21L43.85,128.44L48.72,128.44L53.6,132.39L58.47,210.49L63.34,120.26L68.21,101.99L73.09,114.61L77.96,114.26L82.83,116.1L87.7,144.03L92.58,194.68L97.45,138.67L102.32,155.25L107.19,146.5L112.07,157.72L116.94,163.43L121.81,160.96L126.68,151.72L131.56,215.57L136.43,134.09L141.3,145.8L146.17,140.29L151.05,161.81L155.92,153.63L160.79,172.81L165.66,139.73L170.54,160.19L175.41,165.83L180.28,140.65L185.15,154.4L190.03,154.4L194.9,151.16L199.77,131.26L204.64,134.3L209.52,133.8L214.39,158.56L219.26,144.95L224.13,134.3L229.01,157.79L238.75,147.56L243.62,97.05L248.5,105.09L253.37,131.26L258.24,138.67L263.11,171.9L267.99,144.24L272.86,166.54L277.73,126.11L282.6,136.84L292.35,145.16L297.22,138.04L302.09,123.64L306.97,113.56L311.84,159.41L316.71,156.1L321.58,153.56L326.46,158.56L331.33,152L336.2,195.6L341.07,183.89L345.95,156.94L350.82,143.47L355.69,137.89L360.56,146.85L365.44,128.65L370.31,135.35L375.18,158.56L380.05,140.72L384.93,108.41L389.8,109.04L394.67,155.39L399.54,135.64L404.42,150.45L409.29,147.07L414.16,149.61L419.03,136.55L423.91,138.95L428.78,143.4L433.65,160.26L438.52,147.91L443.4,113.91L448.27,145.3L453.14,155.32L458.01,168.09L462.89,153.56L467.76,127.74L472.63,145.02L477.5,152L482.38,147.84L487.25,102.13L492.12,164.98L496.99,155.32L501.87,79.34L506.74,158.56L511.61,151.16L516.48,147.84L521.36,134.58L526.23,139.09L531.1,135.5L535.97,126.54L540.85,109.11L545.72,126.75L550.59,151.16L555.46,169.71L560.34,150.31L565.21,155.32L570.08,149.46L574.95,125.34L579.83,164.98L584.7,121.67L589.57,138.04L599.32,161.03L604.19,141.63L609.06,193.06L613.93,125.76L618.81,119.69L623.68,128.86L628.55,146.08L633.42,156.17L643.17,144.17L648.04,115.95L652.91,171.26L657.79,136.98L662.66,124.07L667.53,114.61L672.4,119.69L677.28,169.71L682.15,151.02L687.02,109.11L691.89,148.48L696.77,174.3L706.51,134.44L711.38,156.94L716.26,115.6L721.13,121.88L726,148.48" style="vector-effect: none; fill: none; stroke: rgb(165, 42, 42); stroke-opacity: 1; stroke-width: 2px; opacity: 1;"/></g><g class="points"/><g class="text"/></g><g class="trace scatter trace0a2bb8" style="stroke-miterlimit: 2; opacity: 1;"><g class="fills"/><g class="errorbars"/><g class="lines"><path class="js-line" d="M0,358.78L4.87,311.16L9.74,272.07L19.49,239.41L24.36,255.78L29.23,246.61L34.11,245.69L38.98,237.79L43.85,258.25L48.72,244.77L53.6,255.5L58.47,298.67L63.34,231.23L68.21,243.64L73.09,237.01L77.96,252.25L82.83,250.42L87.7,268.76L92.58,301.14L97.45,256.48L102.32,274.61L107.19,272.43L112.07,278.92L116.94,265.37L121.81,281.03L126.68,263.47L131.56,300.29L136.43,253.8L141.3,269.82L146.17,258.88L151.05,274.12L155.92,267.56L160.79,282.59L165.66,270.24L170.54,278.92L175.41,278.92L180.28,268.05L185.15,281.03L190.03,276.8L194.9,278.92L199.77,258.88L204.64,261.21L209.52,257.05L214.39,283.08L219.26,263.47L224.13,268.05L229.01,281.03L233.88,281.03L238.75,283.93L243.62,228.33L248.5,237.01L253.37,277.51L258.24,258.88L263.11,273.91L267.99,260.65L272.86,265.16L277.73,246.68L282.6,263.47L287.48,268.05L292.35,265.8L297.22,261.21L302.09,244.14L306.97,247.1L311.84,265.23L316.71,267.42L321.58,256.2L326.46,265.16L331.33,253.73L336.2,294.37L341.07,302.55L345.95,262.9L350.82,274.12L355.69,253.73L360.56,262.9L365.44,253.8L370.31,239.48L375.18,265.16L380.05,267.56L384.93,241.88L389.8,241.88L394.67,260.65L399.54,251.4L404.42,281.03L409.29,283.08L414.16,269.6L419.03,244.07L423.91,265.37L428.78,258.39L433.65,258.46L438.52,260.65L443.4,239.2L448.27,253.87L453.14,258.39L458.01,260.79L462.89,251.4L467.76,256.48L472.63,239.48L477.5,256.06L482.38,262.9L487.25,236.31L492.12,267.42L496.99,265.16L501.87,231.93L506.74,272L511.61,267.56L516.48,269.82L521.36,256.13L526.23,267.56L531.1,263.11L535.97,244L540.85,233.56L545.72,238.92L550.59,276.31L555.46,282.3L560.34,256.06L565.21,258.39L570.08,265.37L574.95,252.18L579.83,276.31L584.7,251.69L589.57,265.37L594.44,262.9L599.32,258.39L604.19,260.79L609.06,288.44L613.93,249.22L618.81,249.22L623.68,256.13L628.55,258.39L633.42,265.16L638.3,253.73L643.17,253.73L648.04,248.93L652.91,288.44L657.79,281.81L662.66,256.13L667.53,254.65L672.4,238.92L677.28,265.16L682.15,273.2L687.02,252.18L696.77,282.3L701.64,256.06L706.51,241.6L711.38,269.82L716.26,254.08L721.13,246.68L726,263.11" style="vector-effect: none; fill: none; stroke: rgb(128, 128, 128); stroke-opacity: 1; stroke-width: 2px; opacity: 1;"/></g><g class="points"/><g class="text"/></g></g></g><g class="overplot"/><path class="xlines-above crisp" d="M0,0" style="fill: none;"/><path class="ylines-above crisp" d="M0,0" style="fill: none;"/><g class="overlines-above"/><g class="xaxislayer-above"><g class="xtick"><text text-anchor="middle" x="0" y="509" transform="translate(235.57999999999998,0)" style="font-family: 'Open Sans', verdana, arial, sans-serif; font-size: 12px; fill: rgb(42, 63, 95); fill-opacity: 1; white-space: pre; opacity: 1;">20</text></g><g class="xtick"><text text-anchor="middle" x="0" y="509" style="font-family: 'Open Sans', verdana, arial, sans-serif; font-size: 12px; fill: rgb(42, 63, 95); fill-opacity: 1; white-space: pre; opacity: 1;" transform="translate(333.03,0)">40</text></g><g class="xtick"><text text-anchor="middle" x="0" y="509" style="font-family: 'Open Sans', verdana, arial, sans-serif; font-size: 12px; fill: rgb(42, 63, 95); fill-opacity: 1; white-space: pre; opacity: 1;" transform="translate(430.48,0)">60</text></g><g class="xtick"><text text-anchor="middle" x="0" y="509" style="font-family: 'Open Sans', verdana, arial, sans-serif; font-size: 12px; fill: rgb(42, 63, 95); fill-opacity: 1; white-space: pre; opacity: 1;" transform="translate(527.9300000000001,0)">80</text></g><g class="xtick"><text text-anchor="middle" x="0" y="509" style="font-family: 'Open Sans', verdana, arial, sans-serif; font-size: 12px; fill: rgb(42, 63, 95); fill-opacity: 1; white-space: pre; opacity: 1;" transform="translate(625.38,0)">100</text></g><g class="xtick"><text text-anchor="middle" x="0" y="509" style="font-family: 'Open Sans', verdana, arial, sans-serif; font-size: 12px; fill: rgb(42, 63, 95); fill-opacity: 1; white-space: pre; opacity: 1;" transform="translate(722.83,0)">120</text></g><g class="xtick"><text text-anchor="middle" x="0" y="509" style="font-family: 'Open Sans', verdana, arial, sans-serif; font-size: 12px; fill: rgb(42, 63, 95); fill-opacity: 1; white-space: pre; opacity: 1;" transform="translate(820.28,0)">140</text></g></g><g class="yaxislayer-above"><g class="ytick"><text text-anchor="end" x="142" y="4.199999999999999" transform="translate(0,439.94)" style="font-family: 'Open Sans', verdana, arial, sans-serif; font-size: 12px; fill: rgb(42, 63, 95); fill-opacity: 1; white-space: pre; opacity: 1;">50</text></g><g class="ytick"><text text-anchor="end" x="142" y="4.199999999999999" style="font-family: 'Open Sans', verdana, arial, sans-serif; font-size: 12px; fill: rgb(42, 63, 95); fill-opacity: 1; white-space: pre; opacity: 1;" transform="translate(0,369.39)">60</text></g><g class="ytick"><text text-anchor="end" x="142" y="4.199999999999999" style="font-family: 'Open Sans', verdana, arial, sans-serif; font-size: 12px; fill: rgb(42, 63, 95); fill-opacity: 1; white-space: pre; opacity: 1;" transform="translate(0,298.85)">70</text></g><g class="ytick"><text text-anchor="end" x="142" y="4.199999999999999" style="font-family: 'Open Sans', verdana, arial, sans-serif; font-size: 12px; fill: rgb(42, 63, 95); fill-opacity: 1; white-space: pre; opacity: 1;" transform="translate(0,228.3)">80</text></g><g class="ytick"><text text-anchor="end" x="142" y="4.199999999999999" style="font-family: 'Open Sans', verdana, arial, sans-serif; font-size: 12px; fill: rgb(42, 63, 95); fill-opacity: 1; white-space: pre; opacity: 1;" transform="translate(0,157.75)">90</text></g></g><g class="overaxes-above"/></g></g><g class="polarlayer"/><g class="smithlayer"/><g class="ternarylayer"/><g class="geolayer"/><g class="funnelarealayer"/><g class="pielayer"/><g class="iciclelayer"/><g class="treemaplayer"/><g class="sunburstlayer"/><g class="glimages"/><defs id="topdefs-e2dd75"><g class="clips"/><clipPath id="legende2dd75"><rect width="128" height="162" x="0" y="0"/></clipPath></defs><g class="layer-above"><g class="imagelayer"/><g class="shapelayer"/></g><g class="infolayer"><g class="legend" pointer-events="all" transform="translate(883.52,100)"><rect class="bg" shape-rendering="crispEdges" width="128" height="162" x="0" y="0" style="stroke: rgb(68, 68, 68); stroke-opacity: 1; fill: rgb(255, 255, 255); fill-opacity: 1; stroke-width: 0px;"/><g class="scrollbox" transform="" clip-path="url(#legende2dd75)"><g class="groups"><g class="traces" transform="translate(0,14.5)" style="opacity: 1;"><text class="legendtext" text-anchor="start" x="40" y="4.680000000000001" style="font-family: 'Open Sans', verdana, arial, sans-serif; font-size: 12px; fill: rgb(42, 63, 95); fill-opacity: 1; white-space: pre;">Train Accuracy</text><g class="layers" style="opacity: 1;"><g class="legendfill"/><g class="legendlines"><path class="js-line" d="M5,0h30" style="fill: none; stroke: rgb(255, 0, 0); stroke-opacity: 1; stroke-width: 2px;"/></g><g class="legendsymbols"><g class="legendpoints"/></g></g><rect class="legendtoggle" x="0" y="-9.5" width="122.71875" height="19" style="fill: rgb(0, 0, 0); fill-opacity: 0;"/></g><g class="traces" transform="translate(0,33.5)" style="opacity: 1;"><text class="legendtext" text-anchor="start" x="40" y="4.680000000000001" style="font-family: 'Open Sans', verdana, arial, sans-serif; font-size: 12px; fill: rgb(42, 63, 95); fill-opacity: 1; white-space: pre;">Test Accuracy</text><g class="layers" style="opacity: 1;"><g class="legendfill"/><g class="legendlines"><path class="js-line" d="M5,0h30" style="fill: none; stroke: rgb(0, 0, 255); stroke-opacity: 1; stroke-width: 2px;"/></g><g class="legendsymbols"><g class="legendpoints"/></g></g><rect class="legendtoggle" x="0" y="-9.5" width="122.71875" height="19" style="fill: rgb(0, 0, 0); fill-opacity: 0;"/></g><g class="traces" transform="translate(0,52.5)" style="opacity: 1;"><text class="legendtext" text-anchor="start" x="40" y="4.680000000000001" style="font-family: 'Open Sans', verdana, arial, sans-serif; font-size: 12px; fill: rgb(42, 63, 95); fill-opacity: 1; white-space: pre;">Train Precision</text><g class="layers" style="opacity: 1;"><g class="legendfill"/><g class="legendlines"><path class="js-line" d="M5,0h30" style="fill: none; stroke: rgb(0, 128, 0); stroke-opacity: 1; stroke-width: 2px;"/></g><g class="legendsymbols"><g class="legendpoints"/></g></g><rect class="legendtoggle" x="0" y="-9.5" width="122.71875" height="19" style="fill: rgb(0, 0, 0); fill-opacity: 0;"/></g><g class="traces" transform="translate(0,71.5)" style="opacity: 1;"><text class="legendtext" text-anchor="start" x="40" y="4.680000000000001" style="font-family: 'Open Sans', verdana, arial, sans-serif; font-size: 12px; fill: rgb(42, 63, 95); fill-opacity: 1; white-space: pre;">Test Precision</text><g class="layers" style="opacity: 1;"><g class="legendfill"/><g class="legendlines"><path class="js-line" d="M5,0h30" style="fill: none; stroke: rgb(255, 165, 0); stroke-opacity: 1; stroke-width: 2px;"/></g><g class="legendsymbols"><g class="legendpoints"/></g></g><rect class="legendtoggle" x="0" y="-9.5" width="122.71875" height="19" style="fill: rgb(0, 0, 0); fill-opacity: 0;"/></g><g class="traces" transform="translate(0,90.5)" style="opacity: 1;"><text class="legendtext" text-anchor="start" x="40" y="4.680000000000001" style="font-family: 'Open Sans', verdana, arial, sans-serif; font-size: 12px; fill: rgb(42, 63, 95); fill-opacity: 1; white-space: pre;">Train Recall</text><g class="layers" style="opacity: 1;"><g class="legendfill"/><g class="legendlines"><path class="js-line" d="M5,0h30" style="fill: none; stroke: rgb(128, 0, 128); stroke-opacity: 1; stroke-width: 2px;"/></g><g class="legendsymbols"><g class="legendpoints"/></g></g><rect class="legendtoggle" x="0" y="-9.5" width="122.71875" height="19" style="fill: rgb(0, 0, 0); fill-opacity: 0;"/></g><g class="traces" transform="translate(0,109.5)" style="opacity: 1;"><text class="legendtext" text-anchor="start" x="40" y="4.680000000000001" style="font-family: 'Open Sans', verdana, arial, sans-serif; font-size: 12px; fill: rgb(42, 63, 95); fill-opacity: 1; white-space: pre;">Test Recall</text><g class="layers" style="opacity: 1;"><g class="legendfill"/><g class="legendlines"><path class="js-line" d="M5,0h30" style="fill: none; stroke: rgb(255, 192, 203); stroke-opacity: 1; stroke-width: 2px;"/></g><g class="legendsymbols"><g class="legendpoints"/></g></g><rect class="legendtoggle" x="0" y="-9.5" width="122.71875" height="19" style="fill: rgb(0, 0, 0); fill-opacity: 0;"/></g><g class="traces" transform="translate(0,128.5)" style="opacity: 1;"><text class="legendtext" text-anchor="start" x="40" y="4.680000000000001" style="font-family: 'Open Sans', verdana, arial, sans-serif; font-size: 12px; fill: rgb(42, 63, 95); fill-opacity: 1; white-space: pre;">Train F1</text><g class="layers" style="opacity: 1;"><g class="legendfill"/><g class="legendlines"><path class="js-line" d="M5,0h30" style="fill: none; stroke: rgb(165, 42, 42); stroke-opacity: 1; stroke-width: 2px;"/></g><g class="legendsymbols"><g class="legendpoints"/></g></g><rect class="legendtoggle" x="0" y="-9.5" width="122.71875" height="19" style="fill: rgb(0, 0, 0); fill-opacity: 0;"/></g><g class="traces" transform="translate(0,147.5)" style="opacity: 1;"><text class="legendtext" text-anchor="start" x="40" y="4.680000000000001" style="font-family: 'Open Sans', verdana, arial, sans-serif; font-size: 12px; fill: rgb(42, 63, 95); fill-opacity: 1; white-space: pre;">Test F1</text><g class="layers" style="opacity: 1;"><g class="legendfill"/><g class="legendlines"><path class="js-line" d="M5,0h30" style="fill: none; stroke: rgb(128, 128, 128); stroke-opacity: 1; stroke-width: 2px;"/></g><g class="legendsymbols"><g class="legendpoints"/></g></g><rect class="legendtoggle" x="0" y="-9.5" width="122.71875" height="19" style="fill: rgb(0, 0, 0); fill-opacity: 0;"/></g></g></g><rect class="scrollbar" rx="20" ry="3" width="0" height="0" x="0" y="0" style="fill: rgb(128, 139, 164); fill-opacity: 1;"/></g><g class="g-gtitle"><text class="gtitle" x="51.2" y="50" text-anchor="start" dy="0em" style="font-family: 'Open Sans', verdana, arial, sans-serif; font-size: 17px; fill: rgb(42, 63, 95); opacity: 1; font-weight: normal; white-space: pre;">Training Metrics - logs/fake-news-datasets-deception-Election-Day_p=0.25_num-clauses=10000_max-vocab=15000_pre=v2_text_T=200_s=15.log</text></g><g class="g-xtitle"><text class="xtitle" x="506" y="537.3" text-anchor="middle" style="font-family: 'Open Sans', verdana, arial, sans-serif; font-size: 14px; fill: rgb(42, 63, 95); opacity: 1; font-weight: normal; white-space: pre;">Epoch</text></g><g class="g-ytitle"><text class="ytitle" transform="rotate(-90,103.965625,298)" x="103.965625" y="298" text-anchor="middle" style="font-family: 'Open Sans', verdana, arial, sans-serif; font-size: 14px; fill: rgb(42, 63, 95); opacity: 1; font-weight: normal; white-space: pre;">Metric Score</text></g></g><g class="menulayer"><g class="updatemenu-container" style="cursor: pointer;"><g class="updatemenu-header-group" transform="translate(12,60)"><g class="updatemenu-header" transform="translate(1,1)" style="pointer-events: all;"><rect class="updatemenu-item-rect" rx="2" ry="2" shape-rendering="crispEdges" x="0" y="0" width="167" height="33" style="stroke: rgb(190, 200, 217); stroke-opacity: 1; fill: rgb(255, 255, 255); fill-opacity: 1; stroke-width: 1px;"/><text class="updatemenu-item-text" text-anchor="start" data-notex="1" x="12" y="19.5" style="font-family: 'Open Sans', verdana, arial, sans-serif; font-size: 12px; fill: rgb(42, 63, 95); fill-opacity: 1; white-space: pre;">All</text></g><text class="updatemenu-header-arrow" text-anchor="end" x="163" y="19.5" style="font-family: 'Open Sans', verdana, arial, sans-serif; font-size: 12px; fill: rgb(42, 63, 95); fill-opacity: 1;">▼</text></g><g class="updatemenu-dropdown-button-group" updatemenu-active-index="-1" style="pointer-events: all;"><rect class="scrollbox-bg" opacity="0" x="0" y="0" width="0" height="0" style="pointer-events: all;"/></g></g></g></svg>