<svg class="main-svg" xmlns="http://www.w3.org/2000/svg" xmlns:xlink="http://www.w3.org/1999/xlink" width="1024" height="576" style="" viewBox="0 0 1024 576"><rect x="0" y="0" width="1024" height="576" style="fill: rgb(255, 255, 255); fill-opacity: 1;"/><defs id="defs-307ca6"><g class="clips"><clipPath id="clip307ca6xyplot" class="plotclip"><rect width="726" height="396"/></clipPath><clipPath class="axesclip" id="clip307ca6x"><rect x="143" y="0" width="726" height="576"/></clipPath><clipPath class="axesclip" id="clip307ca6y"><rect x="0" y="100" width="1024" height="396"/></clipPath><clipPath class="axesclip" id="clip307ca6xy"><rect x="143" y="100" width="726" height="396"/></clipPath></g><g class="gradients"/><g class="patterns"/></defs><g class="bglayer"><rect class="bg" x="143" y="100" width="726" height="396" style="fill: rgb(229, 236, 246); fill-opacity: 1; stroke-width: 0;"/></g><g class="layer-below"><g class="imagelayer"/><g class="shapelayer"/></g><g class="cartesianlayer"><g class="subplot xy"><g class="layer-subplot"><g class="shapelayer"/><g class="imagelayer"/></g><g class="minor-gridlayer"><g class="x"/><g class="y"/></g><g class="gridlayer"><g class="x"><path class="xgrid crisp" transform="translate(235.57999999999998,0)" d="M0,100v396" style="stroke: rgb(255, 255, 255); stroke-opacity: 1; stroke-width: 1px;"/><path class="xgrid crisp" transform="translate(333.03,0)" d="M0,100v396" style="stroke: rgb(255, 255, 255); stroke-opacity: 1; stroke-width: 1px;"/><path class="xgrid crisp" transform="translate(430.48,0)" d="M0,100v396" style="stroke: rgb(255, 255, 255); stroke-opacity: 1; stroke-width: 1px;"/><path class="xgrid crisp" transform="translate(527.9300000000001,0)" d="M0,100v396" style="stroke: rgb(255, 255, 255); stroke-opacity: 1; stroke-width: 1px;"/><path class="xgrid crisp" transform="translate(625.38,0)" d="M0,100v396" style="stroke: rgb(255, 255, 255); stroke-opacity: 1; stroke-width: 1px;"/><path class="xgrid crisp" transform="translate(722.83,0)" d="M0,100v396" style="stroke: rgb(255, 255, 255); stroke-opacity: 1; stroke-width: 1px;"/><path class="xgrid crisp" transform="translate(820.28,0)" d="M0,100v396" style="stroke: rgb(255, 255, 255); stroke-opacity: 1; stroke-width: 1px;"/></g><g class="y"><path class="ygrid crisp" transform="translate(0,491.73)" d="M143,0h726" style="stroke: rgb(255, 255, 255); stroke-opacity: 1; stroke-width: 1px;"/><path class="ygrid crisp" transform="translate(0,430.09)" d="M143,0h726" style="stroke: rgb(255, 255, 255); stroke-opacity: 1; stroke-width: 1px;"/><path class="ygrid crisp" transform="translate(0,368.45)" d="M143,0h726" style="stroke: rgb(255, 255, 255); stroke-opacity: 1; stroke-width: 1px;"/><path class="ygrid crisp" transform="translate(0,306.81)" d="M143,0h726" style="stroke: rgb(255, 255, 255); stroke-opacity: 1; stroke-width: 1px;"/><path class="ygrid crisp" transform="translate(0,245.17)" d="M143,0h726" style="stroke: rgb(255, 255, 255); stroke-opacity: 1; stroke-width: 1px;"/><path class="ygrid crisp" transform="translate(0,183.54000000000002)" d="M143,0h726" style="stroke: rgb(255, 255, 255); stroke-opacity: 1; stroke-width: 1px;"/><path class="ygrid crisp" transform="translate(0,121.9)" d="M143,0h726" style="stroke: rgb(255, 255, 255); stroke-opacity: 1; stroke-width: 1px;"/></g></g><g class="zerolinelayer"/><path class="xlines-below"/><path class="ylines-below"/><g class="overlines-below"/><g class="xaxislayer-below"/><g class="yaxislayer-below"/><g class="overaxes-below"/><g class="plot" transform="translate(143,100)" clip-path="url(#clip307ca6xyplot)"><g class="scatterlayer mlayer"><g class="trace scatter tracebf738e" style="stroke-miterlimit: 2; opacity: 1;"><g class="fills"/><g class="errorbars"/><g class="lines"><path class="js-line" d="M0,260.32L4.87,206.2L9.74,204.72L14.62,187.21L19.49,175.5L24.36,160.95L29.23,162.43L34.11,125.94L38.98,159.48L43.85,152.2L48.72,150.72L53.6,134.7L58.47,125.94L63.34,106.96L68.21,109.79L73.09,111.27L77.96,104L82.83,102.52L87.7,111.27L92.58,122.98L97.45,120.03L102.32,122.98L107.19,114.23L112.07,114.23L116.94,109.79L121.81,105.48L126.68,121.51L131.56,109.79L136.43,102.52L141.3,108.31L146.17,111.27L151.05,114.23L155.92,104L160.79,90.81L165.66,104L170.54,89.33L175.41,95.25L180.28,80.58L185.15,71.82L190.03,73.3L194.9,76.26L199.77,95.25L204.64,92.29L209.52,90.81L214.39,93.77L219.26,96.73L224.13,87.97L229.01,86.49L233.88,90.81L238.75,83.54L243.62,82.06L248.5,93.77L253.37,83.54L258.24,64.55L263.11,60.11L267.99,55.8L272.86,71.82L277.73,45.57L282.6,60.11L287.48,57.28L292.35,57.28L297.22,68.99L302.09,60.11L306.97,60.11L311.84,68.99L316.71,76.26L321.58,68.99L331.33,74.78L336.2,70.34L341.07,57.28L345.95,58.76L350.82,64.55L355.69,58.76L360.56,64.55L365.44,60.11L370.31,55.8L375.18,52.84L380.05,44.09L384.93,49.88L389.8,55.8L394.67,51.36L399.54,51.36L404.42,47.04L409.29,55.8L414.16,61.59L419.03,55.8L423.91,48.52L428.78,55.8L433.65,51.36L438.52,44.09L443.4,41.13L448.27,45.57L453.14,54.32L458.01,52.84L462.89,54.32L467.76,124.46L472.63,96.73L477.5,96.73L482.38,112.75L487.25,70.34L492.12,74.78L506.74,66.03L511.61,70.34L516.48,67.51L521.36,76.26L526.23,79.1L531.1,68.99L535.97,58.76L540.85,57.28L545.72,61.59L550.59,61.59L555.46,64.55L560.34,63.07L565.21,57.28L570.08,68.99L574.95,76.26L579.83,77.74L584.7,82.06L589.57,73.3L594.44,64.55L599.32,70.34L604.19,66.03L609.06,68.99L613.93,66.03L618.81,66.03L623.68,68.99L628.55,68.99L633.42,71.82L638.3,55.8L643.17,57.28L648.04,57.28L652.91,54.32L657.79,73.3L662.66,71.82L667.53,73.3L677.28,61.59L682.15,73.3L687.02,67.51L691.89,70.34L696.77,67.51L701.64,68.99L711.38,80.58L716.26,80.58L721.13,70.34L726,68.99" style="vector-effect: none; fill: none; stroke: rgb(255, 0, 0); stroke-opacity: 1; stroke-width: 2px; opacity: 1;"/></g><g class="points"/><g class="text"/></g><g class="trace scatter traced26f7a" style="stroke-miterlimit: 2; opacity: 1;"><g class="fills"/><g class="errorbars"/><g class="lines"><path class="js-line" d="M0,368.43L4.87,252.18L9.74,257.98L19.49,223.09L24.36,223.09L29.23,240.59L34.11,223.09L38.98,234.68L43.85,252.18L48.72,228.88L53.6,234.68L58.47,193.99L63.34,170.82L68.21,147.52L73.09,164.9L77.96,141.72L82.83,124.22L87.7,141.72L92.58,164.9L97.45,164.9L102.32,141.72L107.19,135.93L112.07,141.72L116.94,164.9L121.81,153.31L126.68,153.31L131.56,135.93L136.43,135.93L141.3,141.72L146.17,182.41L151.05,188.2L155.92,170.82L160.79,188.2L170.54,176.61L175.41,193.99L180.28,205.7L185.15,153.31L190.03,153.31L194.9,176.61L199.77,199.79L204.64,205.7L209.52,153.31L214.39,147.52L219.26,153.31L224.13,153.31L229.01,141.72L233.88,141.72L238.75,164.9L243.62,153.31L248.5,164.9L253.37,164.9L258.24,153.31L263.11,159.11L267.99,153.31L272.86,159.11L277.73,124.22L282.6,141.72L297.22,159.11L302.09,141.72L311.84,153.31L316.71,141.72L326.46,176.61L331.33,170.82L336.2,153.31L341.07,147.52L345.95,135.93L350.82,147.52L355.69,147.52L360.56,141.72L365.44,153.31L370.31,135.93L380.05,124.22L384.93,124.22L389.8,124.22L394.67,118.42L399.54,106.84L404.42,118.42L409.29,164.9L414.16,141.72L423.91,141.72L428.78,124.22L433.65,159.11L438.52,130.01L443.4,141.72L448.27,159.11L453.14,141.72L458.01,141.72L462.89,141.72L467.76,170.82L472.63,153.31L477.5,164.9L482.38,176.61L487.25,159.11L492.12,135.93L496.99,159.11L501.87,141.72L506.74,141.72L511.61,153.31L516.48,182.41L521.36,176.61L526.23,182.41L531.1,182.41L535.97,164.9L540.85,153.31L545.72,153.31L550.59,153.31L555.46,141.72L560.34,141.72L565.21,147.52L570.08,147.52L574.95,159.11L579.83,147.52L584.7,141.72L589.57,153.31L594.44,141.72L599.32,135.93L604.19,124.22L609.06,153.31L613.93,147.52L618.81,135.93L623.68,135.93L633.42,147.52L638.3,124.22L643.17,135.93L648.04,124.22L652.91,124.22L657.79,147.52L662.66,141.72L667.53,147.52L672.4,159.11L677.28,159.11L682.15,153.31L687.02,164.9L691.89,164.9L696.77,159.11L701.64,164.9L706.51,164.9L711.38,159.11L716.26,147.52L721.13,147.52L726,159.11" style="vector-effect: none; fill: none; stroke: rgb(0, 0, 255); stroke-opacity: 1; stroke-width: 2px; opacity: 1;"/></g><g class="points"/><g class="text"/></g><g class="trace scatter traceb08ee0" style="stroke-miterlimit: 2; opacity: 1;"><g class="fills"/><g class="errorbars"/><g class="lines"><path class="js-line" d="M0,177.6L4.87,145.54L9.74,137.29L14.62,120.4L19.49,107.08L24.36,96.97L29.23,96.23L34.11,76.02L38.98,81.07L43.85,78.85L48.72,90.93L53.6,73.92L58.47,78.73L63.34,64.43L68.21,75.89L73.09,74.54L77.96,77.37L82.83,73.3L87.7,76.88L92.58,89.08L97.45,80.21L102.32,80.82L107.19,77.62L112.07,77.62L116.94,73.67L121.81,69.6L126.68,78.6L131.56,69.97L136.43,67.76L146.17,70.96L151.05,67.51L155.92,70.96L160.79,60.11L165.66,68.62L170.54,59.13L175.41,61.84L180.28,48.89L185.15,45.32L190.03,46.31L194.9,44.95L199.77,59.5L209.52,57.89L214.39,61.96L219.26,58.02L224.13,51.24L229.01,52.72L233.88,53.09L238.75,48.52L243.62,49.88L248.5,58.51L253.37,50.87L258.24,40.39L263.11,37.43L267.99,35.46L272.86,42.11L277.73,27.32L282.6,37.43L287.48,32.37L292.35,33.48L297.22,44.46L302.09,35.46L306.97,37.43L311.84,44.46L316.71,50.37L321.58,43.35L326.46,39.77L331.33,40.51L336.2,40.02L341.07,33.48L345.95,34.47L350.82,38.29L355.69,33.36L360.56,39.4L365.44,34.35L370.31,33.48L380.05,22.51L384.93,29.42L394.67,29.42L399.54,30.4L404.42,27.44L409.29,33.48L414.16,38.42L419.03,34.47L423.91,30.28L428.78,33.48L438.52,25.35L443.4,24.24L448.27,27.32L453.14,32.5L458.01,31.51L462.89,34.35L467.76,130.87L472.63,104.86L477.5,104.86L482.38,119.66L487.25,40.02L492.12,43.96L496.99,42.11L501.87,42.36L506.74,39.28L511.61,43.35L516.48,38.17L521.36,44.95L526.23,48.03L531.1,39.03L535.97,32.37L540.85,32.37L545.72,34.22L550.59,37.43L555.46,39.4L560.34,38.42L565.21,35.46L570.08,41.25L579.83,48.15L584.7,47.54L594.44,35.09L599.32,40.02L604.19,37.18L609.06,37.92L613.93,38.29L618.81,36.07L628.55,36.81L633.42,42.11L638.3,30.4L643.17,33.48L648.04,30.28L652.91,29.42L657.79,41.87L662.66,42.11L667.53,45.2L672.4,38.17L677.28,34.22L682.15,41.87L687.02,35.83L691.89,37.68L696.77,36.94L701.64,37.92L706.51,42.85L711.38,46.55L716.26,46.55L721.13,40.02L726,39.03" style="vector-effect: none; fill: none; stroke: rgb(0, 128, 0); stroke-opacity: 1; stroke-width: 2px; opacity: 1;"/></g><g class="points"/><g class="text"/></g><g class="trace scatter tracecbef8f" style="stroke-miterlimit: 2; opacity: 1;"><g class="fills"/><g class="errorbars"/><g class="lines"><path class="js-line" d="M0,255.88L4.87,171.43L9.74,181.3L14.62,143.82L19.49,142.09L24.36,172.54L29.23,193.5L34.11,191.9L38.98,173.9L48.72,181.3L53.6,173.9L58.47,149.86L63.34,144.93L68.21,129.76L73.09,141.23L77.96,133.46L82.83,114.11L87.7,129.76L92.58,141.23L97.45,132.11L102.32,113.12L107.19,109.42L112.07,117.56L116.94,132.11L121.81,124.96L126.68,120.27L131.56,104.74L141.3,113.12L146.17,142.83L151.05,156.02L155.92,135.68L160.79,160.58L165.66,152.33L170.54,153.06L175.41,164.28L180.28,166.87L185.15,145.05L190.03,133.59L194.9,148.63L204.64,166.87L209.52,124.96L214.39,125.7L219.26,124.96L224.13,124.96L229.01,121.88L233.88,121.88L238.75,141.23L243.62,133.59L248.5,145.42L253.37,136.79L258.24,133.59L263.11,137.41L267.99,133.59L272.86,133.09L277.73,110.41L282.6,121.88L287.48,129.76L292.35,141.48L297.22,137.41L302.09,121.88L306.97,129.76L311.84,137.65L316.71,129.76L321.58,133.09L326.46,153.06L331.33,149.24L336.2,133.59L341.07,129.76L345.95,113.86L350.82,125.7L355.69,129.76L360.56,125.94L365.44,129.4L370.31,122L375.18,118.05L380.05,117.68L384.93,114.11L394.67,106.47L399.54,105.23L404.42,113.62L409.29,149.37L414.16,125.94L419.03,125.94L423.91,125.94L428.78,106.34L433.65,141.6L438.52,118.05L443.4,125.94L448.27,141.6L453.14,121.88L458.01,121.88L462.89,121.88L467.76,192.64L472.63,177.1L477.5,190.79L482.38,199.54L487.25,133.09L492.12,118.05L496.99,133.09L501.87,121.88L506.74,121.88L511.61,129.4L516.48,152.33L521.36,148.63L526.23,156.76L531.1,156.76L535.97,145.42L540.85,133.59L545.72,133.59L550.59,133.59L555.46,117.56L560.34,117.56L565.21,121.26L570.08,121.26L574.95,128.53L579.83,121.26L584.7,117.56L589.57,124.96L594.44,117.56L599.32,113.86L604.19,102.15L609.06,124.96L613.93,116.7L618.81,104.74L623.68,104.74L628.55,108.31L633.42,116.7L638.3,110.41L643.17,122L648.04,110.41L652.91,110.41L657.79,121.26L662.66,121.88L667.53,129.76L672.4,133.09L677.28,133.09L682.15,129.4L687.02,136.79L691.89,136.79L696.77,133.09L701.64,141.23L706.51,141.23L711.38,133.09L716.26,121.26L721.13,125.7L726,133.09" style="vector-effect: none; fill: none; stroke: rgb(255, 165, 0); stroke-opacity: 1; stroke-width: 2px; opacity: 1;"/></g><g class="points"/><g class="text"/></g><g class="trace scatter tracec6a602" style="stroke-miterlimit: 2; opacity: 1;"><g class="fills"/><g class="errorbars"/><g class="lines"><path class="js-line" d="M0,212.73L4.87,167.24L9.74,163.54L14.62,146.53L19.49,134.57L24.36,121.51L29.23,122.24L34.11,91.3L38.98,115.83L43.85,110.04L48.72,112.63L53.6,96.36L58.47,92.29L63.34,74.91L68.21,81.32L73.09,81.56L77.96,78.73L82.83,76.02L87.7,82.55L92.58,94.51L97.45,89.08L102.32,91.18L107.19,84.52L112.07,84.52L116.94,80.33L121.81,76.02L126.68,89.45L131.56,78.85L136.43,73.55L141.3,77.62L146.17,80.08L151.05,80.7L155.92,75.77L160.79,63.44L165.66,74.78L170.54,62.21L175.41,66.77L180.28,52.72L185.15,46.18L194.9,48.52L199.77,65.78L209.52,62.58L214.39,66.03L219.26,66.15L224.13,58.02L229.01,57.77L233.88,60.61L238.75,54.32L243.62,53.95L248.5,64.55L253.37,55.3L258.24,39.89L263.11,36.07L267.99,32.87L272.86,44.7L277.73,23.5L282.6,36.07L287.48,32.13L292.35,32.62L297.22,44.09L302.09,35.09L306.97,36.07L311.84,44.09L316.71,50.87L321.58,43.59L326.46,43.72L331.33,45.81L336.2,42.98L341.07,32.62L345.95,33.85L350.82,38.91L355.69,33.36L360.56,39.4L365.44,34.59L370.31,31.88L375.18,27.94L380.05,20.29L384.93,26.83L389.8,29.91L394.67,27.57L399.54,28.06L404.42,24.24L409.29,31.88L414.16,37.31L419.03,32.37L423.91,26.58L428.78,31.88L433.65,27.57L438.52,21.77L443.4,19.8L448.27,23.5L453.14,30.65L458.01,29.29L462.89,31.51L467.76,125.82L472.63,102.4L477.5,102.89L482.38,114.72L487.25,42.98L492.12,47.29L496.99,44.7L501.87,43.22L506.74,40.14L511.61,44.46L516.48,40.51L521.36,48.52L526.23,51.48L535.97,32.87L540.85,32.13L545.72,35.46L550.59,36.94L555.46,39.4L560.34,38.17L565.21,33.61L570.08,42.73L574.95,48.52L579.83,50.74L584.7,53.09L589.57,45.44L594.44,37.43L599.32,42.98L604.19,39.15L609.06,41.25L618.81,38.66L623.68,40.76L628.55,40.76L633.42,44.7L638.3,30.4L643.17,32.62L652.91,29.17L657.79,45.44L662.66,44.7L667.53,46.92L672.4,40.51L677.28,35.46L682.15,45.44L687.02,39.52L691.89,41.99L696.77,40.02L701.64,41.25L706.51,46.8L711.38,51.73L716.26,51.73L721.13,42.98L726,41.74" style="vector-effect: none; fill: none; stroke: rgb(128, 0, 128); stroke-opacity: 1; stroke-width: 2px; opacity: 1;"/></g><g class="points"/><g class="text"/></g><g class="trace scatter trace9c9db3" style="stroke-miterlimit: 2; opacity: 1;"><g class="fills"/><g class="errorbars"/><g class="lines"><path class="js-line" d="M0,280.91L4.87,182.28L9.74,190.17L14.62,163.17L19.49,152.69L24.36,169.21L29.23,189.56L38.98,175.01L43.85,185.61L48.72,177.1L53.6,175.01L58.47,142.83L63.34,131.12L68.21,112.63L73.09,126.44L77.96,114.72L82.83,94.26L92.58,126.44L97.45,119.9L102.32,98.21L107.19,93.52L112.07,101.41L116.94,119.9L121.81,110.66L126.68,107.33L131.56,90.32L136.43,93.52L141.3,98.21L146.17,133.71L151.05,144.93L155.92,124.46L160.79,148.13L165.66,140.24L170.54,139.01L175.41,152.82L180.28,158.61L185.15,127.18L190.03,117.31L194.9,135.68L199.77,150.72L204.64,158.61L209.52,110.66L214.39,109.42L219.26,110.66L224.13,110.66L229.01,104.74L233.88,104.74L238.75,126.44L243.62,117.31L248.5,129.76L253.37,123.11L258.24,117.31L263.11,121.88L267.99,117.31L272.86,118.55L277.73,90.93L282.6,104.74L287.48,112.63L292.35,123.85L297.22,121.88L302.09,104.74L311.84,120.52L316.71,111.4L321.58,118.55L326.46,139.01L331.33,134.33L336.2,117.31L341.07,112.63L345.95,96.85L350.82,109.42L355.69,112.63L360.56,108.07L365.44,113.99L370.31,103.51L375.18,98.82L380.05,97.59L384.93,94.26L389.8,90.93L394.67,86.37L399.54,83.78L404.42,93.03L409.29,133.09L414.16,108.07L423.91,108.07L428.78,87.6L433.65,125.2L438.52,98.82L443.4,108.07L448.27,125.2L453.14,104.74L458.01,104.74L462.89,104.74L467.76,183.88L472.63,170.08L477.5,185.86L482.38,191.77L487.25,118.55L492.12,100.18L496.99,118.55L501.87,104.74L506.74,104.74L511.61,113.99L516.48,140.24L521.36,135.68L526.23,143.57L531.1,143.57L535.97,129.76L540.85,117.31L545.72,117.31L550.59,117.31L555.46,101.41L560.34,101.41L565.21,106.1L570.08,106.1L574.95,115.22L579.83,106.1L584.7,101.41L589.57,110.66L594.44,101.41L599.32,96.85L604.19,84.4L609.06,110.66L613.93,102.77L618.81,90.32L623.68,90.32L628.55,94.88L633.42,102.77L638.3,90.93L643.17,103.51L648.04,90.93L652.91,90.93L657.79,106.1L662.66,104.74L667.53,112.63L672.4,118.55L677.28,118.55L682.15,113.99L687.02,123.11L691.89,123.11L696.77,118.55L701.64,126.44L706.51,126.44L711.38,118.55L716.26,106.1L721.13,109.42L726,118.55" style="vector-effect: none; fill: none; stroke: rgb(255, 192, 203); stroke-opacity: 1; stroke-width: 2px; opacity: 1;"/></g><g class="points"/><g class="text"/></g><g class="trace scatter trace9c61dc" style="stroke-miterlimit: 2; opacity: 1;"><g class="fills"/><g class="errorbars"/><g class="lines"><path class="js-line" d="M0,269.32L4.87,209.53L9.74,208.91L14.62,190.79L19.49,178.95L24.36,163.67L29.23,165.27L34.11,126.93L38.98,163.67L43.85,155.65L48.72,152.82L53.6,136.67L58.47,126.81L63.34,107.45L68.21,110.04L73.09,111.52L77.96,104L82.83,102.52L87.7,111.52L92.58,123.11L97.45,120.52L102.32,123.48L107.19,114.48L112.07,114.48L116.94,110.04L121.81,105.73L126.68,122.12L131.56,110.16L136.43,102.77L141.3,108.68L146.17,111.77L151.05,114.97L155.92,104.12L160.79,90.93L165.66,104.25L170.54,89.45L175.41,95.37L180.28,80.7L185.15,71.82L190.03,73.3L194.9,76.26L199.77,95.37L204.64,92.41L209.52,90.93L214.39,93.89L219.26,96.97L224.13,88.1L229.01,86.62L233.88,91.06L238.75,83.66L243.62,82.18L248.5,93.89L253.37,83.66L258.24,64.55L263.11,60.24L267.99,55.8L272.86,71.82L277.73,45.69L282.6,60.24L287.48,57.28L292.35,57.28L297.22,68.99L302.09,60.11L306.97,60.24L311.84,68.99L316.71,76.26L321.58,68.99L331.33,74.91L336.2,70.47L341.07,57.28L345.95,58.76L350.82,64.55L355.69,58.76L360.56,64.55L365.44,60.11L370.31,55.8L375.18,52.84L380.05,44.09L384.93,50L389.8,55.8L394.67,51.36L399.54,51.48L404.42,47.04L409.29,55.8L414.16,61.59L419.03,55.8L423.91,48.52L428.78,55.8L433.65,51.36L438.52,44.21L443.4,41.25L448.27,45.69L453.14,54.32L458.01,52.84L462.89,54.32L467.76,129.76L472.63,103.75L477.5,104L482.38,118.3L487.25,70.47L492.12,74.78L506.74,66.03L511.61,70.34L516.48,67.51L521.36,76.26L526.23,79.22L531.1,68.99L535.97,58.76L540.85,57.28L545.72,61.59L550.59,61.59L555.46,64.55L560.34,63.07L565.21,57.28L570.08,68.99L574.95,76.26L579.83,77.74L584.7,82.18L589.57,73.43L594.44,64.55L599.32,70.47L604.19,66.03L609.06,68.99L613.93,66.03L618.81,66.03L623.68,68.99L628.55,68.99L633.42,71.82L638.3,55.8L643.17,57.28L648.04,57.28L652.91,54.32L657.79,73.43L662.66,71.82L667.53,73.3L677.28,61.59L682.15,73.43L687.02,67.51L691.89,70.47L696.77,67.51L701.64,68.99L711.38,80.7L716.26,80.7L721.13,70.47L726,68.99" style="vector-effect: none; fill: none; stroke: rgb(165, 42, 42); stroke-opacity: 1; stroke-width: 2px; opacity: 1;"/></g><g class="points"/><g class="text"/></g><g class="trace scatter trace9e0365" style="stroke-miterlimit: 2; opacity: 1;"><g class="fills"/><g class="errorbars"/><g class="lines"><path class="js-line" d="M0,376.2L4.87,252.8L9.74,258.47L19.49,223.58L24.36,223.21L29.23,240.72L34.11,224.32L38.98,234.68L43.85,252.55L48.72,229.13L53.6,234.68L58.47,194.36L63.34,172.54L68.21,150.23L73.09,166.87L82.83,128.04L87.7,145.3L92.58,166.87L97.45,166.01L102.32,143.08L107.19,137.41L112.07,143.57L116.94,166.01L121.81,154.79L126.68,154.3L131.56,137.04L136.43,137.41L141.3,143.08L146.17,183.02L151.05,189.31L155.92,171.68L160.79,189.8L165.66,183.64L170.54,178.58L175.41,195.35L180.28,206.32L185.15,157.87L190.03,155.78L194.9,178.09L199.77,200.28L204.64,206.32L209.52,154.79L214.39,149.61L219.26,154.79L224.13,154.79L229.01,144.07L233.88,144.07L238.75,166.87L243.62,155.78L248.5,167.49L253.37,166.38L258.24,155.78L263.11,161.32L267.99,155.78L272.86,160.83L277.73,127.42L282.6,144.07L292.35,157.01L297.22,161.32L302.09,144.07L306.97,150.23L311.84,156.39L316.71,145.3L326.46,178.58L331.33,173.04L336.2,155.78L341.07,150.23L345.95,137.9L350.82,149.61L355.69,150.23L360.56,144.68L365.44,155.16L370.31,139.13L380.05,128.78L384.93,128.04L389.8,127.42L394.67,121.88L399.54,112.26L404.42,123.23L409.29,168.1L414.16,144.68L423.91,144.68L428.78,126.81L433.65,161.94L438.52,133.59L443.4,144.68L448.27,161.94L453.14,144.07L458.01,144.07L462.89,144.07L467.76,190.3L472.63,174.64L477.5,188.94L482.38,197.32L487.25,160.83L492.12,138.52L496.99,160.83L501.87,144.07L506.74,144.07L511.61,155.16L516.48,183.64L521.36,178.09L526.23,184.13L531.1,184.13L535.97,167.49L540.85,155.78L545.72,155.78L550.59,155.78L555.46,143.57L560.34,143.57L565.21,149.12L570.08,149.12L574.95,160.34L579.83,149.12L584.7,143.57L589.57,154.79L594.44,143.57L599.32,137.9L604.19,126.19L609.06,154.79L613.93,148.75L618.81,137.04L623.68,137.04L633.42,148.75L638.3,127.42L643.17,139.13L648.04,127.42L652.91,127.42L657.79,149.12L662.66,144.07L667.53,150.23L672.4,160.83L677.28,160.83L682.15,155.16L687.02,166.38L691.89,166.38L696.77,160.83L701.64,166.87L706.51,166.87L711.38,160.83L716.26,149.12L721.13,149.61L726,160.83" style="vector-effect: none; fill: none; stroke: rgb(128, 128, 128); stroke-opacity: 1; stroke-width: 2px; opacity: 1;"/></g><g class="points"/><g class="text"/></g></g></g><g class="overplot"/><path class="xlines-above crisp" d="M0,0" style="fill: none;"/><path class="ylines-above crisp" d="M0,0" style="fill: none;"/><g class="overlines-above"/><g class="xaxislayer-above"><g class="xtick"><text text-anchor="middle" x="0" y="509" transform="translate(235.57999999999998,0)" style="font-family: 'Open Sans', verdana, arial, sans-serif; font-size: 12px; fill: rgb(42, 63, 95); fill-opacity: 1; white-space: pre; opacity: 1;">20</text></g><g class="xtick"><text text-anchor="middle" x="0" y="509" style="font-family: 'Open Sans', verdana, arial, sans-serif; font-size: 12px; fill: rgb(42, 63, 95); fill-opacity: 1; white-space: pre; opacity: 1;" transform="translate(333.03,0)">40</text></g><g class="xtick"><text text-anchor="middle" x="0" y="509" style="font-family: 'Open Sans', verdana, arial, sans-serif; font-size: 12px; fill: rgb(42, 63, 95); fill-opacity: 1; white-space: pre; opacity: 1;" transform="translate(430.48,0)">60</text></g><g class="xtick"><text text-anchor="middle" x="0" y="509" style="font-family: 'Open Sans', verdana, arial, sans-serif; font-size: 12px; fill: rgb(42, 63, 95); fill-opacity: 1; white-space: pre; opacity: 1;" transform="translate(527.9300000000001,0)">80</text></g><g class="xtick"><text text-anchor="middle" x="0" y="509" style="font-family: 'Open Sans', verdana, arial, sans-serif; font-size: 12px; fill: rgb(42, 63, 95); fill-opacity: 1; white-space: pre; opacity: 1;" transform="translate(625.38,0)">100</text></g><g class="xtick"><text text-anchor="middle" x="0" y="509" style="font-family: 'Open Sans', verdana, arial, sans-serif; font-size: 12px; fill: rgb(42, 63, 95); fill-opacity: 1; white-space: pre; opacity: 1;" transform="translate(722.83,0)">120</text></g><g class="xtick"><text text-anchor="middle" x="0" y="509" style="font-family: 'Open Sans', verdana, arial, sans-serif; font-size: 12px; fill: rgb(42, 63, 95); fill-opacity: 1; white-space: pre; opacity: 1;" transform="translate(820.28,0)">140</text></g></g><g class="yaxislayer-above"><g class="ytick"><text text-anchor="end" x="142" y="4.199999999999999" transform="translate(0,491.73)" style="font-family: 'Open Sans', verdana, arial, sans-serif; font-size: 12px; fill: rgb(42, 63, 95); fill-opacity: 1; white-space: pre; opacity: 1;">50</text></g><g class="ytick"><text text-anchor="end" x="142" y="4.199999999999999" style="font-family: 'Open Sans', verdana, arial, sans-serif; font-size: 12px; fill: rgb(42, 63, 95); fill-opacity: 1; white-space: pre; opacity: 1;" transform="translate(0,430.09)">55</text></g><g class="ytick"><text text-anchor="end" x="142" y="4.199999999999999" style="font-family: 'Open Sans', verdana, arial, sans-serif; font-size: 12px; fill: rgb(42, 63, 95); fill-opacity: 1; white-space: pre; opacity: 1;" transform="translate(0,368.45)">60</text></g><g class="ytick"><text text-anchor="end" x="142" y="4.199999999999999" style="font-family: 'Open Sans', verdana, arial, sans-serif; font-size: 12px; fill: rgb(42, 63, 95); fill-opacity: 1; white-space: pre; opacity: 1;" transform="translate(0,306.81)">65</text></g><g class="ytick"><text text-anchor="end" x="142" y="4.199999999999999" style="font-family: 'Open Sans', verdana, arial, sans-serif; font-size: 12px; fill: rgb(42, 63, 95); fill-opacity: 1; white-space: pre; opacity: 1;" transform="translate(0,245.17)">70</text></g><g class="ytick"><text text-anchor="end" x="142" y="4.199999999999999" style="font-family: 'Open Sans', verdana, arial, sans-serif; font-size: 12px; fill: rgb(42, 63, 95); fill-opacity: 1; white-space: pre; opacity: 1;" transform="translate(0,183.54000000000002)">75</text></g><g class="ytick"><text text-anchor="end" x="142" y="4.199999999999999" style="font-family: 'Open Sans', verdana, arial, sans-serif; font-size: 12px; fill: rgb(42, 63, 95); fill-opacity: 1; white-space: pre; opacity: 1;" transform="translate(0,121.9)">80</text></g></g><g class="overaxes-above"/></g></g><g class="polarlayer"/><g class="smithlayer"/><g class="ternarylayer"/><g class="geolayer"/><g class="funnelarealayer"/><g class="pielayer"/><g class="iciclelayer"/><g class="treemaplayer"/><g class="sunburstlayer"/><g class="glimages"/><defs id="topdefs-307ca6"><g class="clips"/><clipPath id="legend307ca6"><rect width="128" height="162" x="0" y="0"/></clipPath></defs><g class="layer-above"><g class="imagelayer"/><g class="shapelayer"/></g><g class="infolayer"><g class="legend" pointer-events="all" transform="translate(883.52,100)"><rect class="bg" shape-rendering="crispEdges" width="128" height="162" x="0" y="0" style="stroke: rgb(68, 68, 68); stroke-opacity: 1; fill: rgb(255, 255, 255); fill-opacity: 1; stroke-width: 0px;"/><g class="scrollbox" transform="" clip-path="url(#legend307ca6)"><g class="groups"><g class="traces" transform="translate(0,14.5)" style="opacity: 1;"><text class="legendtext" text-anchor="start" x="40" y="4.680000000000001" style="font-family: 'Open Sans', verdana, arial, sans-serif; font-size: 12px; fill: rgb(42, 63, 95); fill-opacity: 1; white-space: pre;">Train Accuracy</text><g class="layers" style="opacity: 1;"><g class="legendfill"/><g class="legendlines"><path class="js-line" d="M5,0h30" style="fill: none; stroke: rgb(255, 0, 0); stroke-opacity: 1; stroke-width: 2px;"/></g><g class="legendsymbols"><g class="legendpoints"/></g></g><rect class="legendtoggle" x="0" y="-9.5" width="122.71875" height="19" style="fill: rgb(0, 0, 0); fill-opacity: 0;"/></g><g class="traces" transform="translate(0,33.5)" style="opacity: 1;"><text class="legendtext" text-anchor="start" x="40" y="4.680000000000001" style="font-family: 'Open Sans', verdana, arial, sans-serif; font-size: 12px; fill: rgb(42, 63, 95); fill-opacity: 1; white-space: pre;">Test Accuracy</text><g class="layers" style="opacity: 1;"><g class="legendfill"/><g class="legendlines"><path class="js-line" d="M5,0h30" style="fill: none; stroke: rgb(0, 0, 255); stroke-opacity: 1; stroke-width: 2px;"/></g><g class="legendsymbols"><g class="legendpoints"/></g></g><rect class="legendtoggle" x="0" y="-9.5" width="122.71875" height="19" style="fill: rgb(0, 0, 0); fill-opacity: 0;"/></g><g class="traces" transform="translate(0,52.5)" style="opacity: 1;"><text class="legendtext" text-anchor="start" x="40" y="4.680000000000001" style="font-family: 'Open Sans', verdana, arial, sans-serif; font-size: 12px; fill: rgb(42, 63, 95); fill-opacity: 1; white-space: pre;">Train Precision</text><g class="layers" style="opacity: 1;"><g class="legendfill"/><g class="legendlines"><path class="js-line" d="M5,0h30" style="fill: none; stroke: rgb(0, 128, 0); stroke-opacity: 1; stroke-width: 2px;"/></g><g class="legendsymbols"><g class="legendpoints"/></g></g><rect class="legendtoggle" x="0" y="-9.5" width="122.71875" height="19" style="fill: rgb(0, 0, 0); fill-opacity: 0;"/></g><g class="traces" transform="translate(0,71.5)" style="opacity: 1;"><text class="legendtext" text-anchor="start" x="40" y="4.680000000000001" style="font-family: 'Open Sans', verdana, arial, sans-serif; font-size: 12px; fill: rgb(42, 63, 95); fill-opacity: 1; white-space: pre;">Test Precision</text><g class="layers" style="opacity: 1;"><g class="legendfill"/><g class="legendlines"><path class="js-line" d="M5,0h30" style="fill: none; stroke: rgb(255, 165, 0); stroke-opacity: 1; stroke-width: 2px;"/></g><g class="legendsymbols"><g class="legendpoints"/></g></g><rect class="legendtoggle" x="0" y="-9.5" width="122.71875" height="19" style="fill: rgb(0, 0, 0); fill-opacity: 0;"/></g><g class="traces" transform="translate(0,90.5)" style="opacity: 1;"><text class="legendtext" text-anchor="start" x="40" y="4.680000000000001" style="font-family: 'Open Sans', verdana, arial, sans-serif; font-size: 12px; fill: rgb(42, 63, 95); fill-opacity: 1; white-space: pre;">Train Recall</text><g class="layers" style="opacity: 1;"><g class="legendfill"/><g class="legendlines"><path class="js-line" d="M5,0h30" style="fill: none; stroke: rgb(128, 0, 128); stroke-opacity: 1; stroke-width: 2px;"/></g><g class="legendsymbols"><g class="legendpoints"/></g></g><rect class="legendtoggle" x="0" y="-9.5" width="122.71875" height="19" style="fill: rgb(0, 0, 0); fill-opacity: 0;"/></g><g class="traces" transform="translate(0,109.5)" style="opacity: 1;"><text class="legendtext" text-anchor="start" x="40" y="4.680000000000001" style="font-family: 'Open Sans', verdana, arial, sans-serif; font-size: 12px; fill: rgb(42, 63, 95); fill-opacity: 1; white-space: pre;">Test Recall</text><g class="layers" style="opacity: 1;"><g class="legendfill"/><g class="legendlines"><path class="js-line" d="M5,0h30" style="fill: none; stroke: rgb(255, 192, 203); stroke-opacity: 1; stroke-width: 2px;"/></g><g class="legendsymbols"><g class="legendpoints"/></g></g><rect class="legendtoggle" x="0" y="-9.5" width="122.71875" height="19" style="fill: rgb(0, 0, 0); fill-opacity: 0;"/></g><g class="traces" transform="translate(0,128.5)" style="opacity: 1;"><text class="legendtext" text-anchor="start" x="40" y="4.680000000000001" style="font-family: 'Open Sans', verdana, arial, sans-serif; font-size: 12px; fill: rgb(42, 63, 95); fill-opacity: 1; white-space: pre;">Train F1</text><g class="layers" style="opacity: 1;"><g class="legendfill"/><g class="legendlines"><path class="js-line" d="M5,0h30" style="fill: none; stroke: rgb(165, 42, 42); stroke-opacity: 1; stroke-width: 2px;"/></g><g class="legendsymbols"><g class="legendpoints"/></g></g><rect class="legendtoggle" x="0" y="-9.5" width="122.71875" height="19" style="fill: rgb(0, 0, 0); fill-opacity: 0;"/></g><g class="traces" transform="translate(0,147.5)" style="opacity: 1;"><text class="legendtext" text-anchor="start" x="40" y="4.680000000000001" style="font-family: 'Open Sans', verdana, arial, sans-serif; font-size: 12px; fill: rgb(42, 63, 95); fill-opacity: 1; white-space: pre;">Test F1</text><g class="layers" style="opacity: 1;"><g class="legendfill"/><g class="legendlines"><path class="js-line" d="M5,0h30" style="fill: none; stroke: rgb(128, 128, 128); stroke-opacity: 1; stroke-width: 2px;"/></g><g class="legendsymbols"><g class="legendpoints"/></g></g><rect class="legendtoggle" x="0" y="-9.5" width="122.71875" height="19" style="fill: rgb(0, 0, 0); fill-opacity: 0;"/></g></g></g><rect class="scrollbar" rx="20" ry="3" width="0" height="0" x="0" y="0" style="fill: rgb(128, 139, 164); fill-opacity: 1;"/></g><g class="g-gtitle"><text class="gtitle" x="51.2" y="50" text-anchor="start" dy="0em" style="font-family: 'Open Sans', verdana, arial, sans-serif; font-size: 17px; fill: rgb(42, 63, 95); opacity: 1; font-weight: normal; white-space: pre;">Training Metrics - logs/FakeNewsNet-politifact_max-vocab=15000_pre=v1_text_T=50_s=5.log</text></g><g class="g-xtitle"><text class="xtitle" x="506" y="537.3" text-anchor="middle" style="font-family: 'Open Sans', verdana, arial, sans-serif; font-size: 14px; fill: rgb(42, 63, 95); opacity: 1; font-weight: normal; white-space: pre;">Epoch</text></g><g class="g-ytitle"><text class="ytitle" transform="rotate(-90,103.965625,298)" x="103.965625" y="298" text-anchor="middle" style="font-family: 'Open Sans', verdana, arial, sans-serif; font-size: 14px; fill: rgb(42, 63, 95); opacity: 1; font-weight: normal; white-space: pre;">Metric Score</text></g></g><g class="menulayer"><g class="updatemenu-container" style="cursor: pointer;"><g class="updatemenu-header-group" transform="translate(12,60)"><g class="updatemenu-header" transform="translate(1,1)" style="pointer-events: all;"><rect class="updatemenu-item-rect" rx="2" ry="2" shape-rendering="crispEdges" x="0" y="0" width="167" height="33" style="stroke: rgb(190, 200, 217); stroke-opacity: 1; fill: rgb(255, 255, 255); fill-opacity: 1; stroke-width: 1px;"/><text class="updatemenu-item-text" text-anchor="start" data-notex="1" x="12" y="19.5" style="font-family: 'Open Sans', verdana, arial, sans-serif; font-size: 12px; fill: rgb(42, 63, 95); fill-opacity: 1; white-space: pre;">All</text></g><text class="updatemenu-header-arrow" text-anchor="end" x="163" y="19.5" style="font-family: 'Open Sans', verdana, arial, sans-serif; font-size: 12px; fill: rgb(42, 63, 95); fill-opacity: 1;">▼</text></g><g class="updatemenu-dropdown-button-group" updatemenu-active-index="-1" style="pointer-events: all;"><rect class="scrollbox-bg" opacity="0" x="0" y="0" width="0" height="0" style="pointer-events: all;"/></g></g></g></svg>