<svg class="main-svg" xmlns="http://www.w3.org/2000/svg" xmlns:xlink="http://www.w3.org/1999/xlink" width="1024" height="576" style="" viewBox="0 0 1024 576"><rect x="0" y="0" width="1024" height="576" style="fill: rgb(255, 255, 255); fill-opacity: 1;"/><defs id="defs-9962f4"><g class="clips"><clipPath id="clip9962f4xyplot" class="plotclip"><rect width="734" height="396"/></clipPath><clipPath class="axesclip" id="clip9962f4x"><rect x="135" y="0" width="734" height="576"/></clipPath><clipPath class="axesclip" id="clip9962f4y"><rect x="0" y="100" width="1024" height="396"/></clipPath><clipPath class="axesclip" id="clip9962f4xy"><rect x="135" y="100" width="734" height="396"/></clipPath></g><g class="gradients"/><g class="patterns"/></defs><g class="bglayer"><rect class="bg" x="135" y="100" width="734" height="396" style="fill: rgb(229, 236, 246); fill-opacity: 1; stroke-width: 0;"/></g><g class="layer-below"><g class="imagelayer"/><g class="shapelayer"/></g><g class="cartesianlayer"><g class="subplot xy"><g class="layer-subplot"><g class="shapelayer"/><g class="imagelayer"/></g><g class="minor-gridlayer"><g class="x"/><g class="y"/></g><g class="gridlayer"><g class="x"><path class="xgrid crisp" transform="translate(228.6,0)" d="M0,100v396" style="stroke: rgb(255, 255, 255); stroke-opacity: 1; stroke-width: 1px;"/><path class="xgrid crisp" transform="translate(327.12,0)" d="M0,100v396" style="stroke: rgb(255, 255, 255); stroke-opacity: 1; stroke-width: 1px;"/><path class="xgrid crisp" transform="translate(425.64,0)" d="M0,100v396" style="stroke: rgb(255, 255, 255); stroke-opacity: 1; stroke-width: 1px;"/><path class="xgrid crisp" transform="translate(524.1700000000001,0)" d="M0,100v396" style="stroke: rgb(255, 255, 255); stroke-opacity: 1; stroke-width: 1px;"/><path class="xgrid crisp" transform="translate(622.69,0)" d="M0,100v396" style="stroke: rgb(255, 255, 255); stroke-opacity: 1; stroke-width: 1px;"/><path class="xgrid crisp" transform="translate(721.21,0)" d="M0,100v396" style="stroke: rgb(255, 255, 255); stroke-opacity: 1; stroke-width: 1px;"/><path class="xgrid crisp" transform="translate(819.74,0)" d="M0,100v396" style="stroke: rgb(255, 255, 255); stroke-opacity: 1; stroke-width: 1px;"/></g><g class="y"><path class="ygrid crisp" transform="translate(0,457.87)" d="M135,0h734" style="stroke: rgb(255, 255, 255); stroke-opacity: 1; stroke-width: 1px;"/><path class="ygrid crisp" transform="translate(0,367.14)" d="M135,0h734" style="stroke: rgb(255, 255, 255); stroke-opacity: 1; stroke-width: 1px;"/><path class="ygrid crisp" transform="translate(0,276.40999999999997)" d="M135,0h734" style="stroke: rgb(255, 255, 255); stroke-opacity: 1; stroke-width: 1px;"/><path class="ygrid crisp" transform="translate(0,185.67000000000002)" d="M135,0h734" style="stroke: rgb(255, 255, 255); stroke-opacity: 1; stroke-width: 1px;"/></g></g><g class="zerolinelayer"/><path class="xlines-below"/><path class="ylines-below"/><g class="overlines-below"/><g class="xaxislayer-below"/><g class="yaxislayer-below"/><g class="overaxes-below"/><g class="plot" transform="translate(135,100)" clip-path="url(#clip9962f4xyplot)"><g class="scatterlayer mlayer"><g class="trace scatter trace9ba5f6" style="stroke-miterlimit: 2; opacity: 1;"><g class="fills"/><g class="errorbars"/><g class="lines"><path class="js-line" d="M0,79.5L4.93,77.87L9.85,90.03L14.78,73.88L19.7,74.6L24.63,43.39L29.56,44.12L34.48,43.39L39.41,44.12L44.34,97.47L49.26,109.63L54.19,86.04L59.11,57L64.04,44.84L68.97,50.65L73.89,49.38L78.82,55.55L83.74,46.48L88.67,57.73L93.6,107.45L98.52,35.95L108.38,43.75L113.3,102.73L118.23,106.54L123.15,86.4L128.08,113.62L133.01,65.89L137.93,65.17L142.86,42.48L147.79,78.05L152.71,68.8L157.64,57.91L162.56,56.82L167.49,60.99L172.42,55.55L177.34,43.75L182.27,90.21L187.19,83.86L192.12,101.64L197.05,57L201.97,51.92L206.9,135.21L211.83,68.98L216.75,83.86L221.68,67.16L226.6,75.15L231.53,47.75L236.46,128.68L241.38,100.73L246.31,36.68L251.23,33.05L261.09,40.31L266.01,44.84L270.94,53.37L275.87,47.56L280.79,32.68L285.72,43.94L290.64,54.1L295.57,58.09L300.5,49.74L305.42,59L310.35,28.33L315.28,30.14L320.2,90.93L325.13,86.58L330.05,121.78L334.98,48.11L339.91,163.16L344.83,204.53L349.76,145.19L354.68,139.02L359.61,80.59L364.54,103.27L369.46,57.91L374.39,49.02L379.32,56.46L384.24,88.76L389.17,51.92L394.09,66.98L399.02,71.34L403.95,89.66L408.87,100.01L413.8,55.91L418.72,80.77L423.65,72.61L428.58,25.61L433.5,29.42L438.43,71.52L443.36,86.4L448.28,98.92L453.21,121.06L458.13,119.79L463.06,192.01L467.99,177.49L472.91,95.29L477.84,93.48L482.77,80.23L487.69,32.87L492.62,43.75L497.54,30.69L502.47,35.22L507.4,39.4L512.32,27.42L517.25,31.05L522.17,32.5L532.03,31.05L536.95,25.24L541.88,21.25L546.81,19.8L551.73,26.33L556.66,41.03L561.58,25.06L566.51,26.88L571.44,164.79L576.36,57.91L581.29,55.55L586.21,73.51L591.14,32.87L596.07,31.41L600.99,31.6L605.92,26.15L610.85,49.92L615.77,49.56L620.7,66.62L625.62,45.21L630.55,119.61L635.48,92.57L640.4,29.05L645.33,49.56L650.26,62.99L655.18,237.74L660.11,170.96L665.03,45.21L669.96,155.9L674.89,161.71L679.81,41.03L684.74,30.14L689.66,24.52L694.59,29.96L699.52,22.34L704.44,26.33L709.37,32.32L714.3,124.51L719.22,123.96L724.15,74.6L729.07,81.5L734,64.26" style="vector-effect: none; fill: none; stroke: rgb(255, 0, 0); stroke-opacity: 1; stroke-width: 2px; opacity: 1;"/></g><g class="points"/><g class="text"/></g><g class="trace scatter trace75c5aa" style="stroke-miterlimit: 2; opacity: 1;"><g class="fills"/><g class="errorbars"/><g class="lines"><path class="js-line" d="M0,80.95L4.93,80.95L9.85,94.02L14.78,79.68L19.7,83.86L24.63,42.48L29.56,46.11L34.48,44.84L39.41,44.84L44.34,104.73L49.26,126.32L54.19,100.19L59.11,63.35L64.04,44.12L68.97,56.27L73.89,55.91L78.82,71.88L83.74,57.55L88.67,71.88L93.6,112.89L98.52,51.74L103.45,57.55L108.38,57.18L113.3,105.45L118.23,108.36L123.15,80.59L128.08,108.36L133.01,72.24L137.93,66.62L142.86,49.38L147.79,86.22L152.71,86.22L157.64,65.71L162.56,68.98L167.49,86.22L172.42,71.15L177.34,58.82L182.27,80.95L187.19,76.05L192.12,91.12L197.05,53.37L201.97,54.28L206.9,136.3L211.83,80.59L216.75,82.59L226.6,90.75L231.53,68.25L236.46,133.04L241.38,102.55L246.31,46.48L251.23,48.11L256.16,55.55L261.09,47.38L266.01,62.81L270.94,56.27L275.87,54.28L280.79,44.48L285.72,64.08L290.64,66.62L295.57,74.42L300.5,57.55L305.42,63.71L310.35,35.41L315.28,40.67L320.2,87.49L325.13,88.76L330.05,128.14L334.98,66.98L339.91,180.03L344.83,227.22L349.76,161.71L354.68,153L359.61,94.02L364.54,108.36L369.46,73.15L374.39,71.52L379.32,78.96L384.24,115.8L389.17,65.71L394.09,83.31L399.02,93.66L403.95,111.98L408.87,115.8L413.8,77.14L418.72,104.73L423.65,92.75L428.58,33.05L433.5,38.31L438.43,81.68L443.36,100.92L448.28,109.26L453.21,146.1L458.13,139.57L463.06,198.91L467.99,188.2L472.91,109.99L477.84,106.72L482.77,96.56L487.69,35.41L492.62,49.74L497.54,39.04L502.47,50.65L507.4,52.65L512.32,33.05L517.25,34.68L522.17,40.67L527.1,40.31L532.03,32.5L536.95,35.04L541.88,27.24L546.81,23.07L551.73,29.78L556.66,38.31L561.58,30.14L566.51,31.78L571.44,172.23L576.36,80.95L581.29,72.79L586.21,97.65L591.14,47.75L596.07,44.48L600.99,36.31L605.92,33.77L610.85,64.44L615.77,67.89L620.7,77.14L625.62,53.92L630.55,129.22L635.48,94.38L640.4,46.48L645.33,67.34L650.26,89.48L655.18,247.36L660.11,180.58L665.03,53.01L669.96,155.17L674.89,166.24L679.81,44.48L684.74,34.14L689.66,26.88L694.59,45.21L699.52,27.6L704.44,34.68L709.37,39.58L714.3,133.4L719.22,133.76L724.15,97.29L729.07,104.36L734,77.14" style="vector-effect: none; fill: none; stroke: rgb(0, 0, 255); stroke-opacity: 1; stroke-width: 2px; opacity: 1;"/></g><g class="points"/><g class="text"/></g><g class="trace scatter trace7b0eb6" style="stroke-miterlimit: 2; opacity: 1;"><g class="fills"/><g class="errorbars"/><g class="lines"><path class="js-line" d="M0,192.37L4.93,200.18L9.85,227.76L14.78,199.09L19.7,197.46L24.63,108.36L29.56,106.36L34.48,107.81L39.41,110.53L44.34,239.74L49.26,257.34L54.19,220.5L59.11,157.9L64.04,120.88L68.97,138.48L73.89,140.48L78.82,158.98L83.74,129.95L88.67,162.25L93.6,252.98L98.52,110.35L103.45,122.69L108.38,131.22L113.3,247L118.23,251.71L123.15,221.41L128.08,258.97L133.01,185.3L137.93,186.39L142.86,135.39L147.79,209.98L152.71,194.01L157.64,170.96L162.56,166.97L167.49,175.5L172.42,160.25L177.34,131.95L182.27,227.58L187.19,216.87L192.12,246.09L197.05,158.98L201.97,139.75L206.9,289.64L211.83,189.83L216.75,217.6L221.68,187.11L226.6,203.26L231.53,148.64L236.46,277.85L241.38,243L246.31,115.25L251.23,102.73L256.16,120.88L261.09,125.78L266.01,146.1L270.94,166.61L275.87,147.73L280.79,111.62L285.72,142.65L290.64,168.24L295.57,176.95L300.5,159.17L305.42,175.86L310.35,89.85L315.28,90.93L320.2,229.58L325.13,222.68L330.05,269.86L334.98,149.73L339.91,309.42L344.83,336.28L349.76,291.46L354.68,284.02L359.61,213.42L364.54,246.63L369.46,172.05L374.39,155.54L379.32,171.14L384.24,226.13L389.17,158.8L394.09,191.65L399.02,199.63L403.95,227.22L408.87,242.82L413.8,170.05L418.72,214.15L423.65,198.73L428.58,73.88L433.5,88.58L438.43,197.82L443.36,222.68L448.28,239.74L453.21,263.69L458.13,263.69L463.06,321.94L467.99,311.78L472.91,235.75L477.84,232.66L482.77,213.42L487.69,104.18L492.62,130.49L497.54,102.19L502.47,124.87L507.4,136.12L512.32,76.24L517.25,95.11L522.17,103.46L527.1,93.48L532.03,89.12L536.95,84.76L541.88,66.8L546.81,59.54L551.73,78.6L556.66,131.04L561.58,73.88L566.51,83.13L571.44,316.68L576.36,174.41L581.29,168.24L586.21,201.45L591.14,100.01L596.07,106.36L600.99,104.73L605.92,91.66L610.85,153L615.77,156.44L620.7,191.1L625.62,145.92L630.55,262.96L635.48,231.39L640.4,106.54L645.33,156.99L650.26,185.84L655.18,365.49L660.11,325.75L665.03,141.93L669.96,314.32L674.89,321.03L679.81,127.23L684.74,90.03L689.66,41.03L694.59,104.54L699.52,49.38L704.44,70.43L709.37,96.2L714.3,272.95L719.22,271.68L724.15,204.35L729.07,215.06L734,182.94" style="vector-effect: none; fill: none; stroke: rgb(0, 128, 0); stroke-opacity: 1; stroke-width: 2px; opacity: 1;"/></g><g class="points"/><g class="text"/></g><g class="trace scatter trace0d21fa" style="stroke-miterlimit: 2; opacity: 1;"><g class="fills"/><g class="errorbars"/><g class="lines"><path class="js-line" d="M0,195.46L4.93,204.53L9.85,232.84L14.78,208.16L19.7,213.61L24.63,106.36L29.56,109.99L34.48,114.34L39.41,115.43L44.34,249.54L49.26,279.48L54.19,242.64L59.11,168.97L64.04,115.8L68.97,148.64L73.89,151.18L78.82,190.38L83.74,152.63L88.67,189.47L93.6,259.34L98.52,146.46L103.45,160.44L108.38,159.35L113.3,249.9L118.23,253.53L123.15,210.88L128.08,251.35L133.01,194.92L137.93,187.29L142.86,148.82L147.79,221.41L152.71,221.23L157.64,184.21L162.56,188.93L167.49,218.87L177.34,162.8L182.27,210.52L187.19,202.36L192.12,228.67L197.05,151L201.97,145.92L206.9,289.82L211.83,208.53L226.6,227.94L231.53,186.02L236.46,283.47L241.38,244.82L246.31,133.58L251.23,135.21L256.16,156.81L261.09,135.39L266.01,177.31L270.94,170.05L275.87,159.17L280.79,133.76L285.72,179.85L290.64,188.02L295.57,201.63L300.5,170.96L305.42,183.12L310.35,101.28L315.28,115.43L320.2,223.22L325.13,224.86L330.05,277.66L334.98,184.93L339.91,327.93L344.83,359.14L349.76,310.51L354.68,300.35L359.61,233.2L364.54,252.98L369.46,197.09L374.39,195.1L379.32,208.34L384.24,262.42L389.17,183.48L394.09,216.87L399.02,232.12L403.95,257.34L408.87,262.96L413.8,206.17L418.72,248.45L423.65,230.85L428.58,88.94L433.5,107.45L438.43,213.24L443.36,243.73L448.28,253.53L453.21,293.45L458.13,288.55L463.06,331.2L467.99,324.66L472.91,256.61L477.84,250.81L482.77,236.83L487.69,104L492.62,140.11L497.54,117.07L502.47,151.73L507.4,158.98L512.32,83.86L517.25,98.01L522.17,119.97L527.1,114.89L532.03,92.39L536.95,104.91L541.88,79.32L546.81,65.35L551.73,86.22L556.66,123.6L561.58,83.68L566.51,95.65L571.44,324.48L576.36,211.97L581.29,196.19L586.21,239.01L591.14,129.59L596.07,132.67L600.99,112.71L605.92,105.09L610.85,177.68L615.77,186.57L620.7,206.17L625.62,157.35L630.55,275.67L635.48,233.39L640.4,143.02L645.33,187.29L650.26,226.31L655.18,376.2L660.11,340.09L665.03,154.63L669.96,313.41L674.89,326.12L679.81,130.13L684.74,95.29L689.66,46.66L694.59,134.67L699.52,60.99L704.44,91.12L709.37,108.72L714.3,284.74L719.22,283.65L724.15,238.29L729.07,248.27L734,204.71" style="vector-effect: none; fill: none; stroke: rgb(255, 165, 0); stroke-opacity: 1; stroke-width: 2px; opacity: 1;"/></g><g class="points"/><g class="text"/></g><g class="trace scatter tracea4f26a" style="stroke-miterlimit: 2; opacity: 1;"><g class="fills"/><g class="errorbars"/><g class="lines"><path class="js-line" d="M0,338.64L4.93,309.24L9.85,287.1L14.78,280.02L19.7,293.63L24.63,300.17L29.56,304.7L34.48,300.53L39.41,300.17L44.34,283.47L49.26,285.83L54.19,290.18L59.11,288.55L64.04,291.27L68.97,291.46L73.89,283.65L78.82,279.48L83.74,286.01L88.67,283.47L93.6,274.4L98.52,270.22L103.45,267.14L108.38,272.95L113.3,278.39L118.23,274.22L123.15,288.55L128.08,263.51L133.01,271.49L137.93,260.79L142.86,260.24L147.79,251.53L152.71,254.44L157.64,262.24L162.56,266.59L167.49,268.41L172.42,276.57L177.34,271.86L182.27,293.45L187.19,287.1L192.12,288.37L197.05,287.1L201.97,295.27L206.9,295.63L211.83,277.48L216.75,278.39L221.68,273.31L226.6,269.5L231.53,260.42L236.46,274.58L241.38,260.61L246.31,266.59L251.23,268.23L256.16,258.07L261.09,266.78L266.01,250.26L270.94,245L275.87,261.69L280.79,256.25L285.72,253.17L290.64,245.54L295.57,241.37L300.5,245L305.42,252.98L310.35,266.05L315.28,271.31L325.13,275.12L330.05,273.13L334.98,260.06L339.91,278.03L344.83,279.84L349.76,267.5L354.68,260.61L359.61,264.42L364.54,266.41L369.46,258.79L374.39,251.17L379.32,252.08L384.24,251.17L389.17,259.7L394.09,249.17L399.02,243L403.95,253.17L408.87,272.22L413.8,251.53L418.72,248.99L423.65,268.95L428.58,272.22L433.5,270.95L438.43,262.6L443.36,264.05L448.28,252.98L453.21,247.54L458.13,252.8L463.06,263.15L467.99,258.61L472.91,266.23L477.84,254.98L482.77,254.62L487.69,266.23L492.62,274.22L497.54,260.24L502.47,245.91L507.4,243.73L512.32,275.85L517.25,269.86L522.17,265.87L527.1,273.13L532.03,276.39L536.95,260.24L541.88,264.24L546.81,265.87L551.73,270.41L556.66,261.51L561.58,270.59L566.51,267.5L571.44,294.9L576.36,250.99L581.29,255.34L586.21,262.42L591.14,270.95L596.07,257.88L600.99,260.42L605.92,256.43L610.85,261.88L615.77,251.53L620.7,248.99L625.62,252.62L630.55,250.99L635.48,256.61L640.4,247.9L645.33,250.08L650.26,241.19L655.18,307.97L660.11,306.52L665.03,261.15L669.96,310.51L674.89,315.05L679.81,267.32L684.74,271.86L689.66,293.27L694.59,254.44L699.52,281.66L704.44,277.85L709.37,273.13L714.3,273.49L719.22,269.13L724.15,254.07L729.07,256.07L734,266.41" style="vector-effect: none; fill: none; stroke: rgb(128, 0, 128); stroke-opacity: 1; stroke-width: 2px; opacity: 1;"/></g><g class="points"/><g class="text"/></g><g class="trace scatter traced32597" style="stroke-miterlimit: 2; opacity: 1;"><g class="fills"/><g class="errorbars"/><g class="lines"><path class="js-line" d="M0,335.91L9.85,291.82L14.78,284.56L19.7,298.9L24.63,295.99L29.56,305.43L34.48,296.54L39.41,295.27L44.34,290L54.19,308.51L59.11,295.27L64.04,292L68.97,298.35L73.89,292.18L78.82,292.36L83.74,297.26L88.67,295.27L93.6,277.48L98.52,281.29L103.45,282.74L108.38,283.11L118.23,276.76L123.15,276.39L128.08,259.34L133.01,278.57L137.93,262.6L142.86,264.6L147.79,258.25L152.71,268.59L157.64,268.41L162.56,275.85L167.49,295.27L172.42,289.46L177.34,284.2L182.27,284.92L187.19,278.21L192.12,279.48L197.05,280.75L201.97,293.45L206.9,295.81L211.83,291.64L216.75,274.94L221.68,291.82L226.6,283.83L231.53,280.57L236.46,283.83L241.38,266.05L246.31,278.39L251.23,282.93L256.16,279.66L261.09,278.93L266.01,271.31L270.94,249.54L275.87,267.86L280.79,268.95L285.72,271.49L290.64,259.15L295.57,262.6L300.5,255.52L305.42,256.07L310.35,276.39L315.28,279.84L320.2,266.05L330.05,281.11L334.98,275.12L339.91,296.17L344.83,305.79L349.76,286.37L354.68,276.57L359.61,277.3L364.54,272.76L369.46,276.21L374.39,270.59L379.32,273.67L384.24,274.76L389.17,270.77L394.09,259.7L399.02,258.97L403.95,270.59L408.87,278.21L413.8,267.32L418.72,274.94L423.65,290.91L428.58,280.57L433.5,280.02L438.43,273.85L443.36,280.75L448.28,268.59L453.21,273.85L458.13,277.66L463.06,276.76L467.99,275.49L472.91,285.47L477.84,271.13L482.77,274.76L487.69,273.49L492.62,282.38L497.54,271.31L502.47,264.96L507.4,259.34L512.32,285.29L517.25,276.94L522.17,274.03L527.1,279.12L532.03,275.67L536.95,270.95L541.88,270.41L546.81,269.5L551.73,272.04L556.66,258.61L561.58,275.85L566.51,269.32L571.44,302.16L576.36,272.76L581.29,276.57L586.21,291.27L591.14,289.1L596.07,270.77L600.99,265.87L605.92,266.05L610.85,281.11L615.77,275.67L620.7,267.32L625.62,270.04L630.55,266.23L635.48,262.42L640.4,262.24L645.33,268.95L650.26,267.32L655.18,321.94L660.11,326.66L665.03,271.68L669.96,312.87L674.89,320.67L679.81,274.76L684.74,278.39L689.66,294.54L694.59,271.31L699.52,286.92L704.44,284.02L709.37,283.11L714.3,286.92L719.22,280.75L734,277.85" style="vector-effect: none; fill: none; stroke: rgb(255, 192, 203); stroke-opacity: 1; stroke-width: 2px; opacity: 1;"/></g><g class="points"/><g class="text"/></g><g class="trace scatter trace4ecf2c" style="stroke-miterlimit: 2; opacity: 1;"><g class="fills"/><g class="errorbars"/><g class="lines"><path class="js-line" d="M0,299.98L4.93,274.58L9.85,264.05L14.78,250.63L19.7,260.97L24.63,250.63L29.56,254.98L34.48,250.81L39.41,250.99L44.34,265.51L49.26,273.31L54.19,264.24L59.11,248.08L64.04,243.91L68.97,247.18L73.89,240.46L78.82,240.46L83.74,240.64L88.67,244.64L93.6,264.6L98.52,222.86L103.45,222.5L108.38,229.21L113.3,264.78L118.23,264.05L123.15,263.15L128.08,261.33L133.01,240.28L137.93,232.66L142.86,219.05L147.79,233.93L152.71,230.3L157.64,229.39L162.56,231.75L167.49,235.38L172.42,238.47L177.34,228.3L182.27,268.59L187.19,260.79L192.12,270.77L197.05,247L201.97,250.81L206.9,292.73L211.83,246.27L216.75,254.8L221.68,242.28L226.6,243.91L231.53,222.32L236.46,276.21L241.38,252.44L246.31,220.5L251.23,219.59L256.16,214.15L261.09,222.68L266.01,213.61L270.94,215.24L275.87,223.22L280.79,210.7L285.72,215.06L290.64,215.97L295.57,215.78L300.5,213.06L305.42,223.77L310.35,215.24L315.28,220.32L320.2,255.16L325.13,253.89L330.05,271.49L334.98,222.32L339.91,296.72L344.83,320.13L349.76,280.93L354.68,273.85L359.61,243.55L364.54,257.34L369.46,227.03L374.39,216.69L379.32,221.59L384.24,239.92L389.17,224.13L394.09,225.95L399.02,224.49L403.95,241.55L408.87,259.34L413.8,220.86L418.72,233.75L423.65,242.1L428.58,218.51L433.5,219.59L438.43,237.2L443.36,246.63L448.28,246.63L453.21,256.25L458.13,258.61L463.06,304.88L467.99,294.36L472.91,252.8L482.77,237.02L487.69,217.96L492.62,230.12L497.54,212.15L502.47,204.9L507.4,205.98L512.32,222.32L517.25,219.59L522.17,217.6L527.1,222.5L532.03,224.86L536.95,209.07L546.81,210.16L551.73,217.42L556.66,219.23L561.58,216.87L566.51,215.6L571.44,307.24L576.36,221.77L581.29,223.41L586.21,238.29L591.14,221.59L596.07,211.07L600.99,213.06L605.92,206.89L610.85,224.68L615.77,217.24L620.7,225.58L625.62,215.42L630.55,257.34L635.48,245.18L640.4,202.36L645.33,216.33L650.26,218.51L655.18,352.25L660.11,317.22L665.03,221.41L669.96,312.51L674.89,318.13L679.81,223.41L684.74,220.86L689.66,235.2L694.59,207.62L699.52,224.49L709.37,222.86L714.3,273.31L719.22,270.41L724.15,233.57L729.07,238.65L734,235.75" style="vector-effect: none; fill: none; stroke: rgb(165, 42, 42); stroke-opacity: 1; stroke-width: 2px; opacity: 1;"/></g><g class="points"/><g class="text"/></g><g class="trace scatter trace3ae2e5" style="stroke-miterlimit: 2; opacity: 1;"><g class="fills"/><g class="errorbars"/><g class="lines"><path class="js-line" d="M0,297.99L4.93,278.03L9.85,268.95L14.78,256.61L19.7,269.13L24.63,246.45L29.56,256.25L34.48,248.08L39.41,247.18L44.34,273.13L49.26,290.55L54.19,284.2L59.11,256.25L64.04,243.91L68.97,255.16L73.89,250.08L78.82,258.25L83.74,254.98L88.67,260.42L93.6,269.13L98.52,239.56L103.45,243.73L108.38,243.73L113.3,266.59L118.23,266.41L123.15,251.35L128.08,255.52L133.01,248.45L137.93,234.29L142.86,225.95L147.79,242.28L152.71,249.17L157.64,237.74L162.56,244.82L167.49,267.68L177.34,245.36L182.27,257.34L187.19,250.08L192.12,258.97L197.05,239.92L201.97,250.26L206.9,292.91L211.83,262.06L216.75,251.35L221.68,265.51L226.6,261.69L231.53,247.72L236.46,283.65L241.38,256.43L246.31,234.47L251.23,238.83L256.16,240.28L261.09,235.38L266.01,238.1L270.94,219.59L275.87,231.03L280.79,226.31L285.72,239.01L290.64,231.93L295.57,238.47L300.5,224.31L305.42,228.12L310.35,226.85L315.28,232.48L320.2,248.08L325.13,253.89L330.05,279.48L334.98,243L339.91,315.41L344.83,345.17L349.76,300.17L354.68,290L359.61,258.97L364.54,263.69L369.46,247.18L374.39,242.28L379.32,248.45L384.24,268.95L389.17,239.37L394.09,241.73L399.02,247L403.95,264.42L408.87,271.13L413.8,243.37L418.72,263.15L423.65,267.86L428.58,228.85L433.5,231.39L438.43,250.08L443.36,264.96L448.28,261.69L453.21,284.74L458.13,283.29L463.06,315.05L467.99,308.51L472.91,272.76L477.84,261.88L482.77,258.61L487.69,224.68L492.62,239.19L497.54,225.04L502.47,226.85L507.4,223.95L512.32,232.66L517.25,227.03L522.17,228.12L527.1,231.75L532.03,224.86L536.95,222.5L541.88,217.78L546.81,214.69L551.73,220.32L556.66,215.24L561.58,223.59L566.51,219.41L571.44,314.86L576.36,248.99L581.29,247.18L586.21,270.59L591.14,243.55L596.07,227.58L600.99,219.41L605.92,218.14L610.85,246.09L615.77,243.91L620.7,243.37L625.62,232.3L630.55,271.13L635.48,249.54L640.4,222.5L645.33,239.01L650.26,250.08L655.18,363.86L660.11,334.1L665.03,233.02L669.96,313.23L674.89,323.39L679.81,230.66L684.74,227.94L689.66,237.38L694.59,228.49L699.52,231.21L704.44,232.48L709.37,234.47L714.3,285.83L719.22,282.2L724.15,262.6L729.07,265.51L734,250.44" style="vector-effect: none; fill: none; stroke: rgb(128, 128, 128); stroke-opacity: 1; stroke-width: 2px; opacity: 1;"/></g><g class="points"/><g class="text"/></g></g></g><g class="overplot"/><path class="xlines-above crisp" d="M0,0" style="fill: none;"/><path class="ylines-above crisp" d="M0,0" style="fill: none;"/><g class="overlines-above"/><g class="xaxislayer-above"><g class="xtick"><text text-anchor="middle" x="0" y="509" transform="translate(228.6,0)" style="font-family: 'Open Sans', verdana, arial, sans-serif; font-size: 12px; fill: rgb(42, 63, 95); fill-opacity: 1; white-space: pre; opacity: 1;">20</text></g><g class="xtick"><text text-anchor="middle" x="0" y="509" style="font-family: 'Open Sans', verdana, arial, sans-serif; font-size: 12px; fill: rgb(42, 63, 95); fill-opacity: 1; white-space: pre; opacity: 1;" transform="translate(327.12,0)">40</text></g><g class="xtick"><text text-anchor="middle" x="0" y="509" style="font-family: 'Open Sans', verdana, arial, sans-serif; font-size: 12px; fill: rgb(42, 63, 95); fill-opacity: 1; white-space: pre; opacity: 1;" transform="translate(425.64,0)">60</text></g><g class="xtick"><text text-anchor="middle" x="0" y="509" style="font-family: 'Open Sans', verdana, arial, sans-serif; font-size: 12px; fill: rgb(42, 63, 95); fill-opacity: 1; white-space: pre; opacity: 1;" transform="translate(524.1700000000001,0)">80</text></g><g class="xtick"><text text-anchor="middle" x="0" y="509" style="font-family: 'Open Sans', verdana, arial, sans-serif; font-size: 12px; fill: rgb(42, 63, 95); fill-opacity: 1; white-space: pre; opacity: 1;" transform="translate(622.69,0)">100</text></g><g class="xtick"><text text-anchor="middle" x="0" y="509" style="font-family: 'Open Sans', verdana, arial, sans-serif; font-size: 12px; fill: rgb(42, 63, 95); fill-opacity: 1; white-space: pre; opacity: 1;" transform="translate(721.21,0)">120</text></g><g class="xtick"><text text-anchor="middle" x="0" y="509" style="font-family: 'Open Sans', verdana, arial, sans-serif; font-size: 12px; fill: rgb(42, 63, 95); fill-opacity: 1; white-space: pre; opacity: 1;" transform="translate(819.74,0)">140</text></g></g><g class="yaxislayer-above"><g class="ytick"><text text-anchor="end" x="134" y="4.199999999999999" transform="translate(0,457.87)" style="font-family: 'Open Sans', verdana, arial, sans-serif; font-size: 12px; fill: rgb(42, 63, 95); fill-opacity: 1; white-space: pre; opacity: 1;">65</text></g><g class="ytick"><text text-anchor="end" x="134" y="4.199999999999999" style="font-family: 'Open Sans', verdana, arial, sans-serif; font-size: 12px; fill: rgb(42, 63, 95); fill-opacity: 1; white-space: pre; opacity: 1;" transform="translate(0,367.14)">70</text></g><g class="ytick"><text text-anchor="end" x="134" y="4.199999999999999" style="font-family: 'Open Sans', verdana, arial, sans-serif; font-size: 12px; fill: rgb(42, 63, 95); fill-opacity: 1; white-space: pre; opacity: 1;" transform="translate(0,276.40999999999997)">75</text></g><g class="ytick"><text text-anchor="end" x="134" y="4.199999999999999" style="font-family: 'Open Sans', verdana, arial, sans-serif; font-size: 12px; fill: rgb(42, 63, 95); fill-opacity: 1; white-space: pre; opacity: 1;" transform="translate(0,185.67000000000002)">80</text></g></g><g class="overaxes-above"/></g></g><g class="polarlayer"/><g class="smithlayer"/><g class="ternarylayer"/><g class="geolayer"/><g class="funnelarealayer"/><g class="pielayer"/><g class="iciclelayer"/><g class="treemaplayer"/><g class="sunburstlayer"/><g class="glimages"/><defs id="topdefs-9962f4"><g class="clips"/><clipPath id="legend9962f4"><rect width="128" height="162" x="0" y="0"/></clipPath></defs><g class="layer-above"><g class="imagelayer"/><g class="shapelayer"/></g><g class="infolayer"><g class="legend" pointer-events="all" transform="translate(883.6800000000001,100)"><rect class="bg" shape-rendering="crispEdges" width="128" height="162" x="0" y="0" style="stroke: rgb(68, 68, 68); stroke-opacity: 1; fill: rgb(255, 255, 255); fill-opacity: 1; stroke-width: 0px;"/><g class="scrollbox" transform="" clip-path="url(#legend9962f4)"><g class="groups"><g class="traces" transform="translate(0,14.5)" style="opacity: 1;"><text class="legendtext" text-anchor="start" x="40" y="4.680000000000001" style="font-family: 'Open Sans', verdana, arial, sans-serif; font-size: 12px; fill: rgb(42, 63, 95); fill-opacity: 1; white-space: pre;">Train Accuracy</text><g class="layers" style="opacity: 1;"><g class="legendfill"/><g class="legendlines"><path class="js-line" d="M5,0h30" style="fill: none; stroke: rgb(255, 0, 0); stroke-opacity: 1; stroke-width: 2px;"/></g><g class="legendsymbols"><g class="legendpoints"/></g></g><rect class="legendtoggle" x="0" y="-9.5" width="122.71875" height="19" style="fill: rgb(0, 0, 0); fill-opacity: 0;"/></g><g class="traces" transform="translate(0,33.5)" style="opacity: 1;"><text class="legendtext" text-anchor="start" x="40" y="4.680000000000001" style="font-family: 'Open Sans', verdana, arial, sans-serif; font-size: 12px; fill: rgb(42, 63, 95); fill-opacity: 1; white-space: pre;">Test Accuracy</text><g class="layers" style="opacity: 1;"><g class="legendfill"/><g class="legendlines"><path class="js-line" d="M5,0h30" style="fill: none; stroke: rgb(0, 0, 255); stroke-opacity: 1; stroke-width: 2px;"/></g><g class="legendsymbols"><g class="legendpoints"/></g></g><rect class="legendtoggle" x="0" y="-9.5" width="122.71875" height="19" style="fill: rgb(0, 0, 0); fill-opacity: 0;"/></g><g class="traces" transform="translate(0,52.5)" style="opacity: 1;"><text class="legendtext" text-anchor="start" x="40" y="4.680000000000001" style="font-family: 'Open Sans', verdana, arial, sans-serif; font-size: 12px; fill: rgb(42, 63, 95); fill-opacity: 1; white-space: pre;">Train Precision</text><g class="layers" style="opacity: 1;"><g class="legendfill"/><g class="legendlines"><path class="js-line" d="M5,0h30" style="fill: none; stroke: rgb(0, 128, 0); stroke-opacity: 1; stroke-width: 2px;"/></g><g class="legendsymbols"><g class="legendpoints"/></g></g><rect class="legendtoggle" x="0" y="-9.5" width="122.71875" height="19" style="fill: rgb(0, 0, 0); fill-opacity: 0;"/></g><g class="traces" transform="translate(0,71.5)" style="opacity: 1;"><text class="legendtext" text-anchor="start" x="40" y="4.680000000000001" style="font-family: 'Open Sans', verdana, arial, sans-serif; font-size: 12px; fill: rgb(42, 63, 95); fill-opacity: 1; white-space: pre;">Test Precision</text><g class="layers" style="opacity: 1;"><g class="legendfill"/><g class="legendlines"><path class="js-line" d="M5,0h30" style="fill: none; stroke: rgb(255, 165, 0); stroke-opacity: 1; stroke-width: 2px;"/></g><g class="legendsymbols"><g class="legendpoints"/></g></g><rect class="legendtoggle" x="0" y="-9.5" width="122.71875" height="19" style="fill: rgb(0, 0, 0); fill-opacity: 0;"/></g><g class="traces" transform="translate(0,90.5)" style="opacity: 1;"><text class="legendtext" text-anchor="start" x="40" y="4.680000000000001" style="font-family: 'Open Sans', verdana, arial, sans-serif; font-size: 12px; fill: rgb(42, 63, 95); fill-opacity: 1; white-space: pre;">Train Recall</text><g class="layers" style="opacity: 1;"><g class="legendfill"/><g class="legendlines"><path class="js-line" d="M5,0h30" style="fill: none; stroke: rgb(128, 0, 128); stroke-opacity: 1; stroke-width: 2px;"/></g><g class="legendsymbols"><g class="legendpoints"/></g></g><rect class="legendtoggle" x="0" y="-9.5" width="122.71875" height="19" style="fill: rgb(0, 0, 0); fill-opacity: 0;"/></g><g class="traces" transform="translate(0,109.5)" style="opacity: 1;"><text class="legendtext" text-anchor="start" x="40" y="4.680000000000001" style="font-family: 'Open Sans', verdana, arial, sans-serif; font-size: 12px; fill: rgb(42, 63, 95); fill-opacity: 1; white-space: pre;">Test Recall</text><g class="layers" style="opacity: 1;"><g class="legendfill"/><g class="legendlines"><path class="js-line" d="M5,0h30" style="fill: none; stroke: rgb(255, 192, 203); stroke-opacity: 1; stroke-width: 2px;"/></g><g class="legendsymbols"><g class="legendpoints"/></g></g><rect class="legendtoggle" x="0" y="-9.5" width="122.71875" height="19" style="fill: rgb(0, 0, 0); fill-opacity: 0;"/></g><g class="traces" transform="translate(0,128.5)" style="opacity: 1;"><text class="legendtext" text-anchor="start" x="40" y="4.680000000000001" style="font-family: 'Open Sans', verdana, arial, sans-serif; font-size: 12px; fill: rgb(42, 63, 95); fill-opacity: 1; white-space: pre;">Train F1</text><g class="layers" style="opacity: 1;"><g class="legendfill"/><g class="legendlines"><path class="js-line" d="M5,0h30" style="fill: none; stroke: rgb(165, 42, 42); stroke-opacity: 1; stroke-width: 2px;"/></g><g class="legendsymbols"><g class="legendpoints"/></g></g><rect class="legendtoggle" x="0" y="-9.5" width="122.71875" height="19" style="fill: rgb(0, 0, 0); fill-opacity: 0;"/></g><g class="traces" transform="translate(0,147.5)" style="opacity: 1;"><text class="legendtext" text-anchor="start" x="40" y="4.680000000000001" style="font-family: 'Open Sans', verdana, arial, sans-serif; font-size: 12px; fill: rgb(42, 63, 95); fill-opacity: 1; white-space: pre;">Test F1</text><g class="layers" style="opacity: 1;"><g class="legendfill"/><g class="legendlines"><path class="js-line" d="M5,0h30" style="fill: none; stroke: rgb(128, 128, 128); stroke-opacity: 1; stroke-width: 2px;"/></g><g class="legendsymbols"><g class="legendpoints"/></g></g><rect class="legendtoggle" x="0" y="-9.5" width="122.71875" height="19" style="fill: rgb(0, 0, 0); fill-opacity: 0;"/></g></g></g><rect class="scrollbar" rx="20" ry="3" width="0" height="0" x="0" y="0" style="fill: rgb(128, 139, 164); fill-opacity: 1;"/></g><g class="g-gtitle"><text class="gtitle" x="51.2" y="50" text-anchor="start" dy="0em" style="font-family: 'Open Sans', verdana, arial, sans-serif; font-size: 17px; fill: rgb(42, 63, 95); opacity: 1; font-weight: normal; white-space: pre;">Training Metrics - logs/FakeNewsNet-gossipcop_max-vocab=15000_pre=v2_domain_T=200_s=5.log</text></g><g class="g-xtitle"><text class="xtitle" x="502" y="537.3" text-anchor="middle" style="font-family: 'Open Sans', verdana, arial, sans-serif; font-size: 14px; fill: rgb(42, 63, 95); opacity: 1; font-weight: normal; white-space: pre;">Epoch</text></g><g class="g-ytitle"><text class="ytitle" transform="rotate(-90,95.965625,298)" x="95.965625" y="298" text-anchor="middle" style="font-family: 'Open Sans', verdana, arial, sans-serif; font-size: 14px; fill: rgb(42, 63, 95); opacity: 1; font-weight: normal; white-space: pre;">Metric Score</text></g></g><g class="menulayer"><g class="updatemenu-container" style="cursor: pointer;"><g class="updatemenu-header-group" transform="translate(12,60)"><g class="updatemenu-header" transform="translate(1,1)" style="pointer-events: all;"><rect class="updatemenu-item-rect" rx="2" ry="2" shape-rendering="crispEdges" x="0" y="0" width="160" height="33" style="stroke: rgb(190, 200, 217); stroke-opacity: 1; fill: rgb(255, 255, 255); fill-opacity: 1; stroke-width: 1px;"/><text class="updatemenu-item-text" text-anchor="start" data-notex="1" x="12" y="19.5" style="font-family: 'Open Sans', verdana, arial, sans-serif; font-size: 12px; fill: rgb(42, 63, 95); fill-opacity: 1; white-space: pre;">All</text></g><text class="updatemenu-header-arrow" text-anchor="end" x="156" y="19.5" style="font-family: 'Open Sans', verdana, arial, sans-serif; font-size: 12px; fill: rgb(42, 63, 95); fill-opacity: 1;">▼</text></g><g class="updatemenu-dropdown-button-group" updatemenu-active-index="-1" style="pointer-events: all;"><rect class="scrollbox-bg" opacity="0" x="0" y="0" width="0" height="0" style="pointer-events: all;"/></g></g></g></svg>