<svg class="main-svg" xmlns="http://www.w3.org/2000/svg" xmlns:xlink="http://www.w3.org/1999/xlink" width="1024" height="576" style="" viewBox="0 0 1024 576"><rect x="0" y="0" width="1024" height="576" style="fill: rgb(255, 255, 255); fill-opacity: 1;"/><defs id="defs-07d933"><g class="clips"><clipPath id="clip07d933xyplot" class="plotclip"><rect width="726" height="396"/></clipPath><clipPath class="axesclip" id="clip07d933x"><rect x="143" y="0" width="726" height="576"/></clipPath><clipPath class="axesclip" id="clip07d933y"><rect x="0" y="100" width="1024" height="396"/></clipPath><clipPath class="axesclip" id="clip07d933xy"><rect x="143" y="100" width="726" height="396"/></clipPath></g><g class="gradients"/><g class="patterns"/></defs><g class="bglayer"><rect class="bg" x="143" y="100" width="726" height="396" style="fill: rgb(229, 236, 246); fill-opacity: 1; stroke-width: 0;"/></g><g class="layer-below"><g class="imagelayer"/><g class="shapelayer"/></g><g class="cartesianlayer"><g class="subplot xy"><g class="layer-subplot"><g class="shapelayer"/><g class="imagelayer"/></g><g class="minor-gridlayer"><g class="x"/><g class="y"/></g><g class="gridlayer"><g class="x"><path class="xgrid crisp" transform="translate(235.57999999999998,0)" d="M0,100v396" style="stroke: rgb(255, 255, 255); stroke-opacity: 1; stroke-width: 1px;"/><path class="xgrid crisp" transform="translate(333.03,0)" d="M0,100v396" style="stroke: rgb(255, 255, 255); stroke-opacity: 1; stroke-width: 1px;"/><path class="xgrid crisp" transform="translate(430.48,0)" d="M0,100v396" style="stroke: rgb(255, 255, 255); stroke-opacity: 1; stroke-width: 1px;"/><path class="xgrid crisp" transform="translate(527.9300000000001,0)" d="M0,100v396" style="stroke: rgb(255, 255, 255); stroke-opacity: 1; stroke-width: 1px;"/><path class="xgrid crisp" transform="translate(625.38,0)" d="M0,100v396" style="stroke: rgb(255, 255, 255); stroke-opacity: 1; stroke-width: 1px;"/><path class="xgrid crisp" transform="translate(722.83,0)" d="M0,100v396" style="stroke: rgb(255, 255, 255); stroke-opacity: 1; stroke-width: 1px;"/><path class="xgrid crisp" transform="translate(820.28,0)" d="M0,100v396" style="stroke: rgb(255, 255, 255); stroke-opacity: 1; stroke-width: 1px;"/></g><g class="y"><path class="ygrid crisp" transform="translate(0,487.6)" d="M143,0h726" style="stroke: rgb(255, 255, 255); stroke-opacity: 1; stroke-width: 1px;"/><path class="ygrid crisp" transform="translate(0,443.76)" d="M143,0h726" style="stroke: rgb(255, 255, 255); stroke-opacity: 1; stroke-width: 1px;"/><path class="ygrid crisp" transform="translate(0,399.92)" d="M143,0h726" style="stroke: rgb(255, 255, 255); stroke-opacity: 1; stroke-width: 1px;"/><path class="ygrid crisp" transform="translate(0,356.08)" d="M143,0h726" style="stroke: rgb(255, 255, 255); stroke-opacity: 1; stroke-width: 1px;"/><path class="ygrid crisp" transform="translate(0,312.25)" d="M143,0h726" style="stroke: rgb(255, 255, 255); stroke-opacity: 1; stroke-width: 1px;"/><path class="ygrid crisp" transform="translate(0,268.40999999999997)" d="M143,0h726" style="stroke: rgb(255, 255, 255); stroke-opacity: 1; stroke-width: 1px;"/><path class="ygrid crisp" transform="translate(0,224.57)" d="M143,0h726" style="stroke: rgb(255, 255, 255); stroke-opacity: 1; stroke-width: 1px;"/><path class="ygrid crisp" transform="translate(0,180.73000000000002)" d="M143,0h726" style="stroke: rgb(255, 255, 255); stroke-opacity: 1; stroke-width: 1px;"/><path class="ygrid crisp" transform="translate(0,136.9)" d="M143,0h726" style="stroke: rgb(255, 255, 255); stroke-opacity: 1; stroke-width: 1px;"/></g></g><g class="zerolinelayer"/><path class="xlines-below"/><path class="ylines-below"/><g class="overlines-below"/><g class="xaxislayer-below"/><g class="yaxislayer-below"/><g class="overaxes-below"/><g class="plot" transform="translate(143,100)" clip-path="url(#clip07d933xyplot)"><g class="scatterlayer mlayer"><g class="trace scatter trace446915" style="stroke-miterlimit: 2; opacity: 1;"><g class="fills"/><g class="errorbars"/><g class="lines"><path class="js-line" d="M0,303.25L4.87,111.07L9.74,152.63L14.62,90.29L19.49,132.9L24.36,143.25L29.23,132.9L34.11,115.19L38.98,81.96L43.85,70.56L48.72,108.97L53.6,70.56L58.47,84.07L63.34,80.91L68.21,79.95L73.09,69.51L77.96,145.35L82.83,171.3L87.7,162.01L92.58,160.96L97.45,160.96L102.32,165.08L107.19,165.08L112.07,69.51L116.94,54.96L121.81,52.85L126.68,68.46L131.56,43.56L136.43,81.96L141.3,85.12L146.17,72.67L151.05,57.06L155.92,78.89L160.79,63.29L165.66,63.29L170.54,64.34L175.41,58.11L180.28,65.39L185.15,62.23L190.03,63.29L194.9,46.63L199.77,50.84L204.64,52.85L209.52,54.96L214.39,46.63L219.26,52.85L224.13,48.73L229.01,39.35L233.88,35.23L238.75,35.23L243.62,56.01L248.5,60.13L253.37,61.18L258.24,57.06L263.11,54.96L267.99,65.39L272.86,63.29L277.73,68.46L282.6,65.39L287.48,44.61L292.35,47.68L297.22,34.18L302.09,38.39L306.97,39.35L311.84,34.18L316.71,59.17L321.58,58.11L326.46,48.73L331.33,50.84L336.2,56.01L341.07,51.89L345.95,39.35L350.82,41.46L355.69,41.46L360.56,39.35L365.44,47.68L370.31,68.46L375.18,61.18L380.05,43.56L384.93,44.61L389.8,29.01L394.67,35.23L399.54,31.11L404.42,32.07L409.29,54.96L414.16,54.96L419.03,56.01L423.91,59.17L428.78,57.06L433.65,91.34L438.52,81.96L443.4,46.63L448.27,48.73L453.14,44.61L458.01,60.13L462.89,61.18L467.76,65.39L472.63,57.06L477.5,54.96L482.38,41.46L487.25,41.46L492.12,32.07L496.99,34.18L501.87,27.95L506.74,33.13L511.61,25.85L516.48,23.83L521.36,25.85L526.23,30.06L531.1,27.95L535.97,44.61L540.85,46.63L545.72,34.18L550.59,45.66L555.46,47.68L560.34,48.73L565.21,51.89L570.08,32.07L574.95,33.13L579.83,33.13L584.7,31.11L589.57,33.13L594.44,34.18L599.32,36.28L604.19,30.06L609.06,32.07L613.93,31.11L618.81,33.13L623.68,29.01L628.55,59.17L633.42,49.78L638.3,20.68L643.17,24.89L652.91,26.9L657.79,29.01L662.66,25.85L667.53,29.01L672.4,30.06L677.28,38.39L682.15,34.18L687.02,37.34L691.89,26.9L696.77,29.01L701.64,25.85L706.51,30.06L711.38,30.06L716.26,26.9L721.13,34.18L726,21.73" style="vector-effect: none; fill: none; stroke: rgb(255, 0, 0); stroke-opacity: 1; stroke-width: 2px; opacity: 1;"/></g><g class="points"/><g class="text"/></g><g class="trace scatter trace6caa12" style="stroke-miterlimit: 2; opacity: 1;"><g class="fills"/><g class="errorbars"/><g class="lines"><path class="js-line" d="M0,352L4.87,112.12L9.74,219.7L14.62,124.57L19.49,149.38L24.36,161.83L29.23,157.63L38.98,124.57L43.85,145.26L48.72,244.51L53.6,165.95L58.47,120.45L63.34,124.57L68.21,132.81L73.09,161.83L77.96,261.08L82.83,256.87L87.7,261.08L92.58,252.75L97.45,244.51L102.32,256.87L107.19,252.75L112.07,157.63L121.81,124.57L126.68,157.63L131.56,99.76L136.43,149.38L141.3,145.26L146.17,103.88L151.05,91.52L155.92,108L160.79,91.52L165.66,112.12L170.54,116.33L175.41,103.88L180.28,95.64L185.15,108L190.03,103.88L194.9,112.12L199.77,108L204.64,95.64L209.52,141.14L214.39,120.45L219.26,120.45L224.13,124.57L229.01,99.76L233.88,103.88L238.75,108L243.62,99.76L248.5,108L253.37,103.88L258.24,108L263.11,99.76L267.99,112.12L272.86,112.12L277.73,112.12L282.6,108L287.48,112.12L292.35,103.88L297.22,120.45L302.09,124.57L306.97,112.12L311.84,108L316.71,99.76L321.58,95.64L326.46,87.31L331.33,95.64L336.2,108L341.07,87.31L350.82,95.64L355.69,91.52L360.56,95.64L365.44,108L370.31,120.45L375.18,124.57L380.05,124.57L384.93,128.69L389.8,112.12L394.67,124.57L399.54,128.69L404.42,124.57L409.29,120.45L414.16,103.88L419.03,116.33L423.91,112.12L428.78,112.12L433.65,203.13L438.52,190.77L443.4,132.81L448.27,157.63L453.14,145.26L458.01,116.33L462.89,112.12L467.76,120.45L472.63,108L477.5,103.88L482.38,120.45L487.25,128.69L492.12,116.33L496.99,137.02L501.87,108L506.74,116.33L511.61,99.76L516.48,108L521.36,103.88L526.23,99.76L531.1,103.88L535.97,91.52L540.85,99.76L545.72,112.12L550.59,95.64L555.46,95.64L560.34,91.52L570.08,116.33L574.95,108L579.83,112.12L584.7,112.12L589.57,132.81L594.44,120.45L599.32,116.33L604.19,120.45L609.06,103.88L613.93,108L618.81,112.12L623.68,99.76L628.55,161.83L633.42,128.69L638.3,91.52L643.17,87.31L648.04,74.95L652.91,87.31L667.53,99.76L672.4,99.76L677.28,124.57L682.15,112.12L687.02,116.33L691.89,99.76L696.77,95.64L701.64,95.64L706.51,112.12L711.38,108L716.26,128.69L721.13,137.02L726,95.64" style="vector-effect: none; fill: none; stroke: rgb(0, 0, 255); stroke-opacity: 1; stroke-width: 2px; opacity: 1;"/></g><g class="points"/><g class="text"/></g><g class="trace scatter trace19ecbf" style="stroke-miterlimit: 2; opacity: 1;"><g class="fills"/><g class="errorbars"/><g class="lines"><path class="js-line" d="M0,176.39L4.87,114.31L9.74,124.4L14.62,77.58L19.49,85.91L24.36,85.99L29.23,87.49L34.11,93.18L38.98,73.54L43.85,73.37L48.72,95.2L53.6,66.36L58.47,74.6L63.34,78.1L68.21,78.98L73.09,71L77.96,118L82.83,129.22L87.7,122.56L92.58,122.99L97.45,126.94L102.32,126.5L107.19,123.34L112.07,68.11L116.94,56.19L121.81,56.19L126.68,69.25L131.56,47.77L136.43,78.45L141.3,81.35L146.17,69.51L151.05,57.41L155.92,73.81L160.79,63.64L165.66,64.34L175.41,61.45L180.28,67.85L185.15,64.95L190.03,65.92L194.9,50.75L199.77,54.61L204.64,56.27L209.52,59.34L214.39,50.92L219.26,56.71L224.13,52.5L229.01,43.38L233.88,39.35L238.75,39.35L243.62,56.1L248.5,57.33L253.37,59.08L258.24,58.03L263.11,55.48L267.99,67.14L272.86,65.48L277.73,71.27L282.6,67.67L287.48,48.82L292.35,51.71L297.22,38.21L302.09,42.24L306.97,43.38L311.84,38.3L316.71,62.23L321.58,60.66L326.46,50.22L331.33,50.75L336.2,56.45L341.07,54.96L345.95,43.56L350.82,44.88L355.69,44.7L360.56,41.81L365.44,51.63L370.31,73.02L375.18,65.57L380.05,45.66L384.93,46.1L389.8,31.9L394.67,38.21L399.54,34L404.42,35.32L409.29,59.34L414.16,59.08L419.03,60.22L423.91,63.46L428.78,61.36L433.65,80.21L438.52,74.51L443.4,50.66L448.27,50.22L453.14,46.63L458.01,63.2L462.89,64.6L467.76,69.34L472.63,59.17L477.5,57.94L482.38,44.79L487.25,44.26L492.12,35.93L496.99,37.77L501.87,31.9L506.74,36.98L511.61,29.79L516.48,27.69L521.36,29.79L526.23,33.92L531.1,31.72L535.97,48.03L540.85,50.14L545.72,37.42L550.59,49L555.46,50.84L560.34,51.45L565.21,55.13L570.08,35.93L574.95,37.16L579.83,36.98L584.7,34.97L589.57,36.72L599.32,39.97L604.19,33.48L609.06,35.67L613.93,34.7L618.81,36.72L623.68,32.78L628.55,58.46L633.42,50.84L638.3,24.62L643.17,28.74L652.91,30.67L657.79,32.78L662.66,29.71L667.53,32.95L672.4,34L677.28,41.72L682.15,37.69L687.02,41.11L691.89,30.85L696.77,33.04L701.64,29.88L706.51,34L711.38,33.74L716.26,29.97L721.13,37.25L726,25.59" style="vector-effect: none; fill: none; stroke: rgb(0, 128, 0); stroke-opacity: 1; stroke-width: 2px; opacity: 1;"/></g><g class="points"/><g class="text"/></g><g class="trace scatter traceb68570" style="stroke-miterlimit: 2; opacity: 1;"><g class="fills"/><g class="errorbars"/><g class="lines"><path class="js-line" d="M0,189.89L4.87,121.06L9.74,189.01L14.62,119.57L19.49,118.61L24.36,132.73L29.23,127.82L34.11,132.81L38.98,126.06L43.85,161.4L48.72,232.59L58.47,111.6L63.34,128.69L68.21,145.18L73.09,167.8L77.96,221.98L82.83,207.69L87.7,214.26L92.58,205.23L97.45,204.18L102.32,207.69L107.19,200.94L112.07,160.78L121.81,132.9L126.68,158.77L131.56,113.09L136.43,150.44L141.3,147.37L146.17,108L151.05,99.76L155.92,112.03L160.79,98.01L165.66,125.62L170.54,128.96L175.41,117.82L180.28,106.69L185.15,121.33L190.03,117.03L194.9,127.64L199.77,122.99L204.64,109.67L209.52,157.45L214.39,135.97L219.26,133.08L224.13,137.81L229.01,113.09L233.88,118.79L238.75,123.08L243.62,109.49L248.5,117.82L253.37,112.03L258.24,120.36L263.11,107.91L267.99,123.43L272.86,124.66L277.73,124.66L282.6,119.22L287.48,127.29L292.35,118.17L297.22,134.83L302.09,138.78L306.97,126.24L311.84,123.26L316.71,111.95L321.58,105.37L326.46,92.04L331.33,103.88L336.2,119.22L341.07,99.32L345.95,105.55L350.82,109.23L355.69,104.93L360.56,109.23L370.31,136.32L375.18,138.78L380.05,136.85L384.93,141.58L389.8,126.24L394.67,138.78L399.54,141.58L404.42,137.81L409.29,135.97L414.16,118.61L419.03,132.11L423.91,127.64L428.78,127.64L433.65,193.57L438.52,187.35L443.4,149.3L448.27,164.55L453.14,154.47L458.01,131.85L462.89,127.03L467.76,136.5L472.63,122.64L477.5,118.35L482.38,132.02L487.25,140.44L492.12,130.88L496.99,150.09L501.87,122.73L506.74,130.88L511.61,114.05L516.48,122.29L521.36,118.17L526.23,114.05L531.1,118.17L535.97,104.32L540.85,114.23L545.72,126.24L550.59,108.53L555.46,108.53L560.34,102.48L565.21,118.35L570.08,130.18L574.95,122.73L579.83,126.85L584.7,126.85L589.57,146.32L594.44,134.83L599.32,129.39L604.19,132.02L609.06,117.73L613.93,121.68L618.81,124.66L623.68,113.09L628.55,167.8L633.42,140.44L638.3,105.55L643.17,101.16L648.04,87.4L652.91,101.16L657.79,105.37L667.53,114.23L672.4,114.4L677.28,138.78L682.15,126.24L687.02,131.41L691.89,114.31L696.77,109.93L701.64,109.93L706.51,127.55L711.38,122.29L716.26,141.58L721.13,150.09L726,109.93" style="vector-effect: none; fill: none; stroke: rgb(255, 165, 0); stroke-opacity: 1; stroke-width: 2px; opacity: 1;"/></g><g class="points"/><g class="text"/></g><g class="trace scatter trace6c6b1f" style="stroke-miterlimit: 2; opacity: 1;"><g class="fills"/><g class="errorbars"/><g class="lines"><path class="js-line" d="M0,252.49L4.87,108.97L9.74,130.71L14.62,111.68L19.49,169.72L24.36,183.49L29.23,169.37L34.11,143.16L38.98,100.46L43.85,66.88L48.72,93.1L53.6,59.69L58.47,103.27L63.34,95.73L68.21,93.18L73.09,63.9L77.96,123.7L82.83,144.39L87.7,135.97L92.58,135.44L97.45,136.85L102.32,139.39L107.19,138.34L112.07,60.83L116.94,48.65L121.81,49.61L126.68,61.97L131.56,43.65L136.43,71.88L141.3,74.95L146.17,86.87L151.05,66.97L155.92,95.03L160.79,73.72L165.66,73.02L170.54,76.26L175.41,64.08L180.28,73.37L185.15,69.69L190.03,70.91L194.9,49.43L199.77,55.05L204.64,58.2L209.52,55.83L214.39,47.33L219.26,51.01L224.13,46.72L229.01,38.3L233.88,35.76L238.75,35.41L243.62,66L248.5,73.02L253.37,73.63L258.24,66.27L263.11,64.43L267.99,74.42L272.86,71.62L277.73,76.44L282.6,73.72L287.48,44.88L292.35,46.54L297.22,33.13L302.09,36.72L306.97,38.3L311.84,34.53L316.71,65.65L321.58,65.39L326.46,56.71L331.33,60.57L336.2,65.65L341.07,57.68L345.95,40.4L350.82,45.58L355.69,45.93L360.56,45.23L365.44,51.01L370.31,71.62L375.18,61.62L380.05,38.12L384.93,38.3L389.8,24.53L394.67,30.93L399.54,26.73L404.42,28.3L409.29,56.89L414.16,58.64L419.03,59.17L423.91,61.88L428.78,59.69L433.65,76.53L438.52,69.16L443.4,45.31L448.27,42.6L453.14,39L458.01,66.88L462.89,67.41L467.76,70.65L472.63,64.87L477.5,61.36L482.38,38.04L487.25,36.98L492.12,29.97L496.99,31.46L501.87,27.08L506.74,31.2L511.61,24.27L516.48,22.17L521.36,24.62L526.23,28.22L531.1,25.76L535.97,49L540.85,51.1L545.72,30.41L550.59,50.22L555.46,53.03L565.21,57.33L570.08,29.97L574.95,31.9L579.83,31.2L584.7,29.44L589.57,30.23L599.32,33.92L604.19,26.81L609.06,29.27L613.93,28.39L618.81,30.23L623.68,26.99L628.55,50.84L633.42,43.12L638.3,19.8L643.17,23.75L648.04,25.67L652.91,24.8L657.79,26.99L662.66,23.92L667.53,28.04L672.4,29.27L677.28,35.06L682.15,31.11L687.02,35.14L691.89,25.5L696.77,28.3L701.64,25.32L706.51,29.27L711.38,27.52L716.26,22.78L721.13,30.06L726,20.06" style="vector-effect: none; fill: none; stroke: rgb(128, 0, 128); stroke-opacity: 1; stroke-width: 2px; opacity: 1;"/></g><g class="points"/><g class="text"/></g><g class="trace scatter tracee49984" style="stroke-miterlimit: 2; opacity: 1;"><g class="fills"/><g class="errorbars"/><g class="lines"><path class="js-line" d="M0,263.36L4.87,106.51L9.74,184.54L14.62,177.44L19.49,222.86L24.36,239.78L29.23,234.17L38.98,172.71L43.85,156.22L48.72,225.31L53.6,160.78L58.47,174.11L63.34,170.34L68.21,172.18L73.09,155.17L77.96,221.98L82.83,211.63L87.7,217.24L92.58,208.39L97.45,204.18L102.32,211.63L107.19,206.02L112.07,147.19L121.81,118.7L126.68,144.91L131.56,103.79L136.43,135.97L141.3,132.73L146.17,142.28L151.05,120.71L155.92,147.89L160.79,123.08L165.66,139.39L170.54,147.37L175.41,125.8L180.28,121.68L185.15,133.78L190.03,128.17L194.9,130.01L199.77,126.76L204.64,112.21L209.52,152.89L214.39,131.85L219.26,122.47L224.13,128.08L229.01,103.79L233.88,116.42L238.75,119.75L243.62,129.57L248.5,140.88L253.37,137.55L258.24,136.15L263.11,131.94L267.99,144.12L272.86,141.76L277.73,141.76L282.6,138.51L287.48,122.99L292.35,111.77L297.22,127.2L302.09,130.45L306.97,118.26L311.84,122.03L316.71,124.92L321.58,123.96L326.46,119.75L331.33,126.33L336.2,138.51L341.07,108.09L345.95,104.23L350.82,114.58L355.69,108.97L360.56,114.58L365.44,119.75L370.31,134.22L375.18,130.45L380.05,125.71L384.93,131.32L389.8,118.26L394.67,130.45L399.54,131.32L404.42,128.08L409.29,131.85L414.16,121.15L419.03,133.34L423.91,127.64L428.78,127.64L433.65,183.23L438.52,175.77L443.4,146.4L448.27,151.93L453.14,142.11L458.01,137.99L462.89,134.74L467.76,141.23L472.63,129.13L477.5,123.52L482.38,120.1L487.25,129.04L492.12,123.87L496.99,140.27L501.87,117.38L506.74,123.87L511.61,108.44L516.48,115.02L526.23,108.44L531.1,111.77L535.97,111.33L540.85,115.54L545.72,118.26L550.59,116.94L555.46,116.94L560.34,115.98L565.21,123.52L570.08,121.59L574.95,117.38L579.83,120.63L584.7,120.63L589.57,137.02L594.44,127.2L599.32,119.22L604.19,120.1L609.06,109.4L613.93,112.65L618.81,113.61L623.68,103.79L628.55,155.17L638.3,101.95L643.17,98.62L648.04,88.8L652.91,98.62L657.79,99.58L662.66,107.56L667.53,115.54L672.4,113.17L677.28,130.45L682.15,118.26L687.02,126.24L691.89,110.81L696.77,109.93L701.64,109.93L706.51,125.36L711.38,115.02L716.26,131.32L721.13,140.27L726,109.93" style="vector-effect: none; fill: none; stroke: rgb(255, 192, 203); stroke-opacity: 1; stroke-width: 2px; opacity: 1;"/></g><g class="points"/><g class="text"/></g><g class="trace scatter tracebebdf5" style="stroke-miterlimit: 2; opacity: 1;"><g class="fills"/><g class="errorbars"/><g class="lines"><path class="js-line" d="M0,332.54L4.87,113.52L9.74,152.89L14.62,105.37L19.49,169.72L24.36,187.17L29.23,169.2L34.11,138.34L38.98,94.32L43.85,72.41L48.72,109.05L53.6,71.09L58.47,97.04L63.34,90.82L68.21,88.8L73.09,70.91L77.96,145.61L82.83,172.79L87.7,163.06L92.58,161.92L97.45,161.66L102.32,166.13L107.19,166.39L112.07,70.39L116.94,56.19L121.81,54.78L126.68,69.69L131.56,46.19L136.43,82.58L141.3,85.73L146.17,81.87L151.05,63.46L155.92,89.5L160.79,70.13L165.66,69.77L170.54,71.97L175.41,62.85L180.28,71.18L185.15,67.76L190.03,68.9L194.9,50.14L199.77,54.78L204.64,57.33L209.52,57.94L214.39,49.43L219.26,55.05L224.13,50.84L229.01,41.63L233.88,37.86L238.75,37.77L243.62,62.5L248.5,68.2L253.37,68.99L258.24,63.11L263.11,61.18L267.99,71.62L272.86,69.16L277.73,74.33L282.6,71.35L287.48,47.24L292.35,50.05L297.22,36.46L302.09,40.49L306.97,41.63L311.84,36.72L316.71,64.16L321.58,63.37L326.46,54.08L331.33,56.97L336.2,62.32L341.07,56.45L345.95,42.24L350.82,45.23L355.69,45.4L360.56,43.74L365.44,51.36L370.31,72.41L375.18,64.08L380.05,44.88L384.93,45.75L389.8,30.5L394.67,36.72L399.54,32.6L404.42,33.74L409.29,58.29L419.03,59.69L423.91,62.76L428.78,60.66L433.65,91.43L438.52,82.22L443.4,48.91L448.27,49.96L453.14,45.93L458.01,65.3L462.89,66.18L467.76,70.04L472.63,62.59L477.5,59.87L482.38,43.21L487.25,43.03L492.12,34.09L496.99,36.02L501.87,30.15L506.74,35.14L511.61,27.87L516.48,25.76L521.36,27.95L526.23,32.07L531.1,29.88L535.97,48.56L540.85,50.66L545.72,35.84L550.59,49.61L555.46,52.06L560.34,53.38L565.21,56.27L570.08,34.09L574.95,35.32L579.83,35.14L584.7,33.13L589.57,34.97L594.44,36.2L599.32,38.21L604.19,31.72L609.06,33.92L613.93,32.86L618.81,34.97L623.68,30.93L628.55,60.04L633.42,50.92L638.3,22.78L643.17,26.99L648.04,28.22L652.91,28.83L657.79,30.93L662.66,27.78L667.53,31.2L672.4,32.25L677.28,40.05L682.15,35.93L687.02,39.26L691.89,29.01L696.77,31.29L701.64,28.13L706.51,32.25L711.38,31.9L716.26,28.39L721.13,35.76L726,23.66" style="vector-effect: none; fill: none; stroke: rgb(165, 42, 42); stroke-opacity: 1; stroke-width: 2px; opacity: 1;"/></g><g class="points"/><g class="text"/></g><g class="trace scatter trace249295" style="stroke-miterlimit: 2; opacity: 1;"><g class="fills"/><g class="errorbars"/><g class="lines"><path class="js-line" d="M0,376.2L4.87,119.05L9.74,219.96L14.62,168.94L19.49,224.78L24.36,247.23L29.23,239.69L34.11,197.25L38.98,164.29L43.85,159.38L48.72,246.97L53.6,173.23L58.47,165.17L63.34,162.01L68.21,165.34L73.09,168.58L77.96,261.08L82.83,257.14L87.7,261.17L97.45,244.51L102.32,257.14L107.19,253.02L112.07,163.15L121.81,131.5L126.68,162.45L131.56,109.84L136.43,154.03L141.3,150.17L146.17,133.16L151.05,113.52L155.92,138.86L160.79,115.02L165.66,134.39L170.54,141.32L175.41,122.47L180.28,116.07L185.15,129.04L190.03,123.78L194.9,128.87L199.77,125.01L204.64,110.98L209.52,155.61L214.39,134.22L219.26,130.1L224.13,134.92L229.01,109.84L233.88,117.65L238.75,121.5L243.62,122.82L248.5,133.6L253.37,129.74L258.24,130.53L263.11,124.31L267.99,137.46L272.86,135.88L277.73,135.88L282.6,132.02L287.48,125.36L292.35,115.63L297.22,132.02L302.09,135.88L306.97,123.34L311.84,122.64L321.58,117.47L326.46,111.07L331.33,118.87L336.2,132.02L341.07,104.41L345.95,104.93L350.82,112.21L355.69,107.12L360.56,112.21L365.44,121.5L370.31,135.36L375.18,135.88L380.05,133.95L384.93,138.78L389.8,123.34L394.67,135.88L399.54,138.78L404.42,134.92L409.29,134.22L414.16,119.93L419.03,132.73L423.91,127.64L428.78,127.64L433.65,205.85L438.52,194.8L443.4,147.98L448.27,164.73L453.14,153.24L458.01,135.36L462.89,131.5L467.76,139.13L472.63,126.33L477.5,121.15L482.38,129.22L487.25,137.81L492.12,128.17L496.99,147.37L501.87,120.45L506.74,128.17L511.61,111.68L516.48,119.49L521.36,115.63L526.23,111.68L531.1,115.63L535.97,108.26L540.85,114.93L545.72,123.34L550.59,113.44L555.46,113.44L560.34,110.81L565.21,121.15L570.08,127.2L574.95,120.45L579.83,124.31L584.7,124.31L589.57,143.6L594.44,132.02L599.32,126.24L604.19,129.22L609.06,114.58L613.93,118.52L618.81,121.5L623.68,109.84L628.55,168.58L638.3,103.88L643.17,99.94L648.04,88.19L652.91,99.94L657.79,102.92L662.66,108.79L667.53,114.93L672.4,113.79L677.28,135.88L682.15,123.34L687.02,129.22L691.89,112.74L696.77,109.93L701.64,109.93L706.51,126.5L711.38,119.49L716.26,138.78L721.13,147.37L726,109.93" style="vector-effect: none; fill: none; stroke: rgb(128, 128, 128); stroke-opacity: 1; stroke-width: 2px; opacity: 1;"/></g><g class="points"/><g class="text"/></g></g></g><g class="overplot"/><path class="xlines-above crisp" d="M0,0" style="fill: none;"/><path class="ylines-above crisp" d="M0,0" style="fill: none;"/><g class="overlines-above"/><g class="xaxislayer-above"><g class="xtick"><text text-anchor="middle" x="0" y="509" transform="translate(235.57999999999998,0)" style="font-family: 'Open Sans', verdana, arial, sans-serif; font-size: 12px; fill: rgb(42, 63, 95); fill-opacity: 1; white-space: pre; opacity: 1;">20</text></g><g class="xtick"><text text-anchor="middle" x="0" y="509" style="font-family: 'Open Sans', verdana, arial, sans-serif; font-size: 12px; fill: rgb(42, 63, 95); fill-opacity: 1; white-space: pre; opacity: 1;" transform="translate(333.03,0)">40</text></g><g class="xtick"><text text-anchor="middle" x="0" y="509" style="font-family: 'Open Sans', verdana, arial, sans-serif; font-size: 12px; fill: rgb(42, 63, 95); fill-opacity: 1; white-space: pre; opacity: 1;" transform="translate(430.48,0)">60</text></g><g class="xtick"><text text-anchor="middle" x="0" y="509" style="font-family: 'Open Sans', verdana, arial, sans-serif; font-size: 12px; fill: rgb(42, 63, 95); fill-opacity: 1; white-space: pre; opacity: 1;" transform="translate(527.9300000000001,0)">80</text></g><g class="xtick"><text text-anchor="middle" x="0" y="509" style="font-family: 'Open Sans', verdana, arial, sans-serif; font-size: 12px; fill: rgb(42, 63, 95); fill-opacity: 1; white-space: pre; opacity: 1;" transform="translate(625.38,0)">100</text></g><g class="xtick"><text text-anchor="middle" x="0" y="509" style="font-family: 'Open Sans', verdana, arial, sans-serif; font-size: 12px; fill: rgb(42, 63, 95); fill-opacity: 1; white-space: pre; opacity: 1;" transform="translate(722.83,0)">120</text></g><g class="xtick"><text text-anchor="middle" x="0" y="509" style="font-family: 'Open Sans', verdana, arial, sans-serif; font-size: 12px; fill: rgb(42, 63, 95); fill-opacity: 1; white-space: pre; opacity: 1;" transform="translate(820.28,0)">140</text></g></g><g class="yaxislayer-above"><g class="ytick"><text text-anchor="end" x="142" y="4.199999999999999" transform="translate(0,487.6)" style="font-family: 'Open Sans', verdana, arial, sans-serif; font-size: 12px; fill: rgb(42, 63, 95); fill-opacity: 1; white-space: pre; opacity: 1;">45</text></g><g class="ytick"><text text-anchor="end" x="142" y="4.199999999999999" style="font-family: 'Open Sans', verdana, arial, sans-serif; font-size: 12px; fill: rgb(42, 63, 95); fill-opacity: 1; white-space: pre; opacity: 1;" transform="translate(0,443.76)">50</text></g><g class="ytick"><text text-anchor="end" x="142" y="4.199999999999999" style="font-family: 'Open Sans', verdana, arial, sans-serif; font-size: 12px; fill: rgb(42, 63, 95); fill-opacity: 1; white-space: pre; opacity: 1;" transform="translate(0,399.92)">55</text></g><g class="ytick"><text text-anchor="end" x="142" y="4.199999999999999" style="font-family: 'Open Sans', verdana, arial, sans-serif; font-size: 12px; fill: rgb(42, 63, 95); fill-opacity: 1; white-space: pre; opacity: 1;" transform="translate(0,356.08)">60</text></g><g class="ytick"><text text-anchor="end" x="142" y="4.199999999999999" style="font-family: 'Open Sans', verdana, arial, sans-serif; font-size: 12px; fill: rgb(42, 63, 95); fill-opacity: 1; white-space: pre; opacity: 1;" transform="translate(0,312.25)">65</text></g><g class="ytick"><text text-anchor="end" x="142" y="4.199999999999999" style="font-family: 'Open Sans', verdana, arial, sans-serif; font-size: 12px; fill: rgb(42, 63, 95); fill-opacity: 1; white-space: pre; opacity: 1;" transform="translate(0,268.40999999999997)">70</text></g><g class="ytick"><text text-anchor="end" x="142" y="4.199999999999999" style="font-family: 'Open Sans', verdana, arial, sans-serif; font-size: 12px; fill: rgb(42, 63, 95); fill-opacity: 1; white-space: pre; opacity: 1;" transform="translate(0,224.57)">75</text></g><g class="ytick"><text text-anchor="end" x="142" y="4.199999999999999" style="font-family: 'Open Sans', verdana, arial, sans-serif; font-size: 12px; fill: rgb(42, 63, 95); fill-opacity: 1; white-space: pre; opacity: 1;" transform="translate(0,180.73000000000002)">80</text></g><g class="ytick"><text text-anchor="end" x="142" y="4.199999999999999" style="font-family: 'Open Sans', verdana, arial, sans-serif; font-size: 12px; fill: rgb(42, 63, 95); fill-opacity: 1; white-space: pre; opacity: 1;" transform="translate(0,136.9)">85</text></g></g><g class="overaxes-above"/></g></g><g class="polarlayer"/><g class="smithlayer"/><g class="ternarylayer"/><g class="geolayer"/><g class="funnelarealayer"/><g class="pielayer"/><g class="iciclelayer"/><g class="treemaplayer"/><g class="sunburstlayer"/><g class="glimages"/><defs id="topdefs-07d933"><g class="clips"/><clipPath id="legend07d933"><rect width="128" height="162" x="0" y="0"/></clipPath></defs><g class="layer-above"><g class="imagelayer"/><g class="shapelayer"/></g><g class="infolayer"><g class="legend" pointer-events="all" transform="translate(883.52,100)"><rect class="bg" shape-rendering="crispEdges" width="128" height="162" x="0" y="0" style="stroke: rgb(68, 68, 68); stroke-opacity: 1; fill: rgb(255, 255, 255); fill-opacity: 1; stroke-width: 0px;"/><g class="scrollbox" transform="" clip-path="url(#legend07d933)"><g class="groups"><g class="traces" transform="translate(0,14.5)" style="opacity: 1;"><text class="legendtext" text-anchor="start" x="40" y="4.680000000000001" style="font-family: 'Open Sans', verdana, arial, sans-serif; font-size: 12px; fill: rgb(42, 63, 95); fill-opacity: 1; white-space: pre;">Train Accuracy</text><g class="layers" style="opacity: 1;"><g class="legendfill"/><g class="legendlines"><path class="js-line" d="M5,0h30" style="fill: none; stroke: rgb(255, 0, 0); stroke-opacity: 1; stroke-width: 2px;"/></g><g class="legendsymbols"><g class="legendpoints"/></g></g><rect class="legendtoggle" x="0" y="-9.5" width="122.71875" height="19" style="fill: rgb(0, 0, 0); fill-opacity: 0;"/></g><g class="traces" transform="translate(0,33.5)" style="opacity: 1;"><text class="legendtext" text-anchor="start" x="40" y="4.680000000000001" style="font-family: 'Open Sans', verdana, arial, sans-serif; font-size: 12px; fill: rgb(42, 63, 95); fill-opacity: 1; white-space: pre;">Test Accuracy</text><g class="layers" style="opacity: 1;"><g class="legendfill"/><g class="legendlines"><path class="js-line" d="M5,0h30" style="fill: none; stroke: rgb(0, 0, 255); stroke-opacity: 1; stroke-width: 2px;"/></g><g class="legendsymbols"><g class="legendpoints"/></g></g><rect class="legendtoggle" x="0" y="-9.5" width="122.71875" height="19" style="fill: rgb(0, 0, 0); fill-opacity: 0;"/></g><g class="traces" transform="translate(0,52.5)" style="opacity: 1;"><text class="legendtext" text-anchor="start" x="40" y="4.680000000000001" style="font-family: 'Open Sans', verdana, arial, sans-serif; font-size: 12px; fill: rgb(42, 63, 95); fill-opacity: 1; white-space: pre;">Train Precision</text><g class="layers" style="opacity: 1;"><g class="legendfill"/><g class="legendlines"><path class="js-line" d="M5,0h30" style="fill: none; stroke: rgb(0, 128, 0); stroke-opacity: 1; stroke-width: 2px;"/></g><g class="legendsymbols"><g class="legendpoints"/></g></g><rect class="legendtoggle" x="0" y="-9.5" width="122.71875" height="19" style="fill: rgb(0, 0, 0); fill-opacity: 0;"/></g><g class="traces" transform="translate(0,71.5)" style="opacity: 1;"><text class="legendtext" text-anchor="start" x="40" y="4.680000000000001" style="font-family: 'Open Sans', verdana, arial, sans-serif; font-size: 12px; fill: rgb(42, 63, 95); fill-opacity: 1; white-space: pre;">Test Precision</text><g class="layers" style="opacity: 1;"><g class="legendfill"/><g class="legendlines"><path class="js-line" d="M5,0h30" style="fill: none; stroke: rgb(255, 165, 0); stroke-opacity: 1; stroke-width: 2px;"/></g><g class="legendsymbols"><g class="legendpoints"/></g></g><rect class="legendtoggle" x="0" y="-9.5" width="122.71875" height="19" style="fill: rgb(0, 0, 0); fill-opacity: 0;"/></g><g class="traces" transform="translate(0,90.5)" style="opacity: 1;"><text class="legendtext" text-anchor="start" x="40" y="4.680000000000001" style="font-family: 'Open Sans', verdana, arial, sans-serif; font-size: 12px; fill: rgb(42, 63, 95); fill-opacity: 1; white-space: pre;">Train Recall</text><g class="layers" style="opacity: 1;"><g class="legendfill"/><g class="legendlines"><path class="js-line" d="M5,0h30" style="fill: none; stroke: rgb(128, 0, 128); stroke-opacity: 1; stroke-width: 2px;"/></g><g class="legendsymbols"><g class="legendpoints"/></g></g><rect class="legendtoggle" x="0" y="-9.5" width="122.71875" height="19" style="fill: rgb(0, 0, 0); fill-opacity: 0;"/></g><g class="traces" transform="translate(0,109.5)" style="opacity: 1;"><text class="legendtext" text-anchor="start" x="40" y="4.680000000000001" style="font-family: 'Open Sans', verdana, arial, sans-serif; font-size: 12px; fill: rgb(42, 63, 95); fill-opacity: 1; white-space: pre;">Test Recall</text><g class="layers" style="opacity: 1;"><g class="legendfill"/><g class="legendlines"><path class="js-line" d="M5,0h30" style="fill: none; stroke: rgb(255, 192, 203); stroke-opacity: 1; stroke-width: 2px;"/></g><g class="legendsymbols"><g class="legendpoints"/></g></g><rect class="legendtoggle" x="0" y="-9.5" width="122.71875" height="19" style="fill: rgb(0, 0, 0); fill-opacity: 0;"/></g><g class="traces" transform="translate(0,128.5)" style="opacity: 1;"><text class="legendtext" text-anchor="start" x="40" y="4.680000000000001" style="font-family: 'Open Sans', verdana, arial, sans-serif; font-size: 12px; fill: rgb(42, 63, 95); fill-opacity: 1; white-space: pre;">Train F1</text><g class="layers" style="opacity: 1;"><g class="legendfill"/><g class="legendlines"><path class="js-line" d="M5,0h30" style="fill: none; stroke: rgb(165, 42, 42); stroke-opacity: 1; stroke-width: 2px;"/></g><g class="legendsymbols"><g class="legendpoints"/></g></g><rect class="legendtoggle" x="0" y="-9.5" width="122.71875" height="19" style="fill: rgb(0, 0, 0); fill-opacity: 0;"/></g><g class="traces" transform="translate(0,147.5)" style="opacity: 1;"><text class="legendtext" text-anchor="start" x="40" y="4.680000000000001" style="font-family: 'Open Sans', verdana, arial, sans-serif; font-size: 12px; fill: rgb(42, 63, 95); fill-opacity: 1; white-space: pre;">Test F1</text><g class="layers" style="opacity: 1;"><g class="legendfill"/><g class="legendlines"><path class="js-line" d="M5,0h30" style="fill: none; stroke: rgb(128, 128, 128); stroke-opacity: 1; stroke-width: 2px;"/></g><g class="legendsymbols"><g class="legendpoints"/></g></g><rect class="legendtoggle" x="0" y="-9.5" width="122.71875" height="19" style="fill: rgb(0, 0, 0); fill-opacity: 0;"/></g></g></g><rect class="scrollbar" rx="20" ry="3" width="0" height="0" x="0" y="0" style="fill: rgb(128, 139, 164); fill-opacity: 1;"/></g><g class="g-gtitle"><text class="gtitle" x="51.2" y="50" text-anchor="start" dy="0em" style="font-family: 'Open Sans', verdana, arial, sans-serif; font-size: 17px; fill: rgb(42, 63, 95); opacity: 1; font-weight: normal; white-space: pre;">Training Metrics - logs/FakeNewsNet-politifact_max-vocab=15000_pre=v1_text_domain_T=250_s=10.log</text></g><g class="g-xtitle"><text class="xtitle" x="506" y="537.3" text-anchor="middle" style="font-family: 'Open Sans', verdana, arial, sans-serif; font-size: 14px; fill: rgb(42, 63, 95); opacity: 1; font-weight: normal; white-space: pre;">Epoch</text></g><g class="g-ytitle"><text class="ytitle" transform="rotate(-90,103.965625,298)" x="103.965625" y="298" text-anchor="middle" style="font-family: 'Open Sans', verdana, arial, sans-serif; font-size: 14px; fill: rgb(42, 63, 95); opacity: 1; font-weight: normal; white-space: pre;">Metric Score</text></g></g><g class="menulayer"><g class="updatemenu-container" style="cursor: pointer;"><g class="updatemenu-header-group" transform="translate(12,60)"><g class="updatemenu-header" transform="translate(1,1)" style="pointer-events: all;"><rect class="updatemenu-item-rect" rx="2" ry="2" shape-rendering="crispEdges" x="0" y="0" width="167" height="33" style="stroke: rgb(190, 200, 217); stroke-opacity: 1; fill: rgb(255, 255, 255); fill-opacity: 1; stroke-width: 1px;"/><text class="updatemenu-item-text" text-anchor="start" data-notex="1" x="12" y="19.5" style="font-family: 'Open Sans', verdana, arial, sans-serif; font-size: 12px; fill: rgb(42, 63, 95); fill-opacity: 1; white-space: pre;">All</text></g><text class="updatemenu-header-arrow" text-anchor="end" x="163" y="19.5" style="font-family: 'Open Sans', verdana, arial, sans-serif; font-size: 12px; fill: rgb(42, 63, 95); fill-opacity: 1;">▼</text></g><g class="updatemenu-dropdown-button-group" updatemenu-active-index="-1" style="pointer-events: all;"><rect class="scrollbox-bg" opacity="0" x="0" y="0" width="0" height="0" style="pointer-events: all;"/></g></g></g></svg>