<svg class="main-svg" xmlns="http://www.w3.org/2000/svg" xmlns:xlink="http://www.w3.org/1999/xlink" width="1024" height="576" style="" viewBox="0 0 1024 576"><rect x="0" y="0" width="1024" height="576" style="fill: rgb(255, 255, 255); fill-opacity: 1;"/><defs id="defs-99bf58"><g class="clips"><clipPath id="clip99bf58xyplot" class="plotclip"><rect width="720" height="396"/></clipPath><clipPath class="axesclip" id="clip99bf58x"><rect x="150" y="0" width="720" height="576"/></clipPath><clipPath class="axesclip" id="clip99bf58y"><rect x="0" y="100" width="1024" height="396"/></clipPath><clipPath class="axesclip" id="clip99bf58xy"><rect x="150" y="100" width="720" height="396"/></clipPath></g><g class="gradients"/><g class="patterns"/></defs><g class="bglayer"><rect class="bg" x="150" y="100" width="720" height="396" style="fill: rgb(229, 236, 246); fill-opacity: 1; stroke-width: 0;"/></g><g class="layer-below"><g class="imagelayer"/><g class="shapelayer"/></g><g class="cartesianlayer"><g class="subplot xy"><g class="layer-subplot"><g class="shapelayer"/><g class="imagelayer"/></g><g class="minor-gridlayer"><g class="x"/><g class="y"/></g><g class="gridlayer"><g class="x"><path class="xgrid crisp" transform="translate(241.81,0)" d="M0,100v396" style="stroke: rgb(255, 255, 255); stroke-opacity: 1; stroke-width: 1px;"/><path class="xgrid crisp" transform="translate(338.46000000000004,0)" d="M0,100v396" style="stroke: rgb(255, 255, 255); stroke-opacity: 1; stroke-width: 1px;"/><path class="xgrid crisp" transform="translate(435.1,0)" d="M0,100v396" style="stroke: rgb(255, 255, 255); stroke-opacity: 1; stroke-width: 1px;"/><path class="xgrid crisp" transform="translate(531.74,0)" d="M0,100v396" style="stroke: rgb(255, 255, 255); stroke-opacity: 1; stroke-width: 1px;"/><path class="xgrid crisp" transform="translate(628.39,0)" d="M0,100v396" style="stroke: rgb(255, 255, 255); stroke-opacity: 1; stroke-width: 1px;"/><path class="xgrid crisp" transform="translate(725.03,0)" d="M0,100v396" style="stroke: rgb(255, 255, 255); stroke-opacity: 1; stroke-width: 1px;"/><path class="xgrid crisp" transform="translate(821.68,0)" d="M0,100v396" style="stroke: rgb(255, 255, 255); stroke-opacity: 1; stroke-width: 1px;"/></g><g class="y"><path class="ygrid crisp" transform="translate(0,470.58)" d="M150,0h720" style="stroke: rgb(255, 255, 255); stroke-opacity: 1; stroke-width: 1px;"/><path class="ygrid crisp" transform="translate(0,412.64)" d="M150,0h720" style="stroke: rgb(255, 255, 255); stroke-opacity: 1; stroke-width: 1px;"/><path class="ygrid crisp" transform="translate(0,354.7)" d="M150,0h720" style="stroke: rgb(255, 255, 255); stroke-opacity: 1; stroke-width: 1px;"/><path class="ygrid crisp" transform="translate(0,296.75)" d="M150,0h720" style="stroke: rgb(255, 255, 255); stroke-opacity: 1; stroke-width: 1px;"/><path class="ygrid crisp" transform="translate(0,238.81)" d="M150,0h720" style="stroke: rgb(255, 255, 255); stroke-opacity: 1; stroke-width: 1px;"/><path class="ygrid crisp" transform="translate(0,180.87)" d="M150,0h720" style="stroke: rgb(255, 255, 255); stroke-opacity: 1; stroke-width: 1px;"/><path class="ygrid crisp" transform="translate(0,122.93)" d="M150,0h720" style="stroke: rgb(255, 255, 255); stroke-opacity: 1; stroke-width: 1px;"/></g></g><g class="zerolinelayer"/><path class="xlines-below"/><path class="ylines-below"/><g class="overlines-below"/><g class="xaxislayer-below"/><g class="yaxislayer-below"/><g class="overaxes-below"/><g class="plot" transform="translate(150,100)" clip-path="url(#clip99bf58xyplot)"><g class="scatterlayer mlayer"><g class="trace scatter trace56e479" style="stroke-miterlimit: 2; opacity: 1;"><g class="fills"/><g class="errorbars"/><g class="lines"><path class="js-line" d="M0,207.99L9.66,207.99L14.5,194.96L19.33,194.96L24.16,150.34L28.99,122.88L33.83,111.23L38.66,121.49L43.49,107.76L48.32,78.96L53.15,185.34L57.99,176.42L62.82,194.96L67.65,194.96L72.48,190.15L77.32,140.72L82.15,157.24L86.98,194.96L91.81,166.8L96.64,189.45L101.48,102.31L106.31,74.84L111.14,72.06L115.97,74.15L120.81,74.15L125.64,51.49L130.47,74.15L135.3,50.8L140.13,112.56L144.97,63.84L149.8,78.26L154.63,75.54L159.46,74.15L164.3,61.81L169.13,73.45L173.96,41.88L178.79,41.88L183.62,38.46L188.46,37.07L193.29,37.76L198.12,41.88L202.95,67.25L207.79,73.45L212.62,67.95L217.45,70.04L222.28,72.06L227.11,70.73L236.78,74.15L241.61,73.45L246.44,51.49L251.28,49.41L256.11,48.08L260.94,50.8L265.77,48.71L270.6,65.23L280.27,62.45L285.1,64.53L289.93,65.92L294.77,34.34L299.6,35.68L304.43,34.34L309.26,62.45L314.09,69.34L318.93,64.53L323.76,66.62L328.59,63.84L333.42,63.14L343.09,62.45L347.92,63.84L352.75,62.45L357.58,62.45L362.42,61.11L367.25,65.23L372.08,65.23L376.91,63.84L381.74,61.11L386.58,63.84L391.41,61.81L396.24,61.11L401.07,64.53L405.91,62.45L415.57,62.45L420.4,61.11L425.23,61.11L430.07,59.72L434.9,60.42L439.73,58.33L444.56,56.3L449.4,58.33L454.23,56.3L459.06,57.69L468.72,58.33L473.56,54.91L483.22,57L488.05,57L492.89,59.03L497.72,59.72L502.55,58.33L507.38,59.03L512.21,57.69L517.05,57.69L521.88,57L526.71,59.03L531.54,58.33L536.38,59.72L546.04,57.69L550.87,60.42L555.7,60.42L560.54,57.69L565.37,57L570.2,54.91L575.03,57L579.87,55.61L584.7,54.91L589.53,55.61L594.36,55.61L599.19,57.69L618.52,57.69L623.36,57L628.19,57L633.02,59.03L642.68,58.33L647.52,58.33L657.18,59.03L662.01,59.72L671.68,58.33L676.51,60.42L681.34,57L686.17,55.61L710.34,55.61L715.17,56.3L720,55.61" style="vector-effect: none; fill: none; stroke: rgb(255, 0, 0); stroke-opacity: 1; stroke-width: 2px; opacity: 1;"/></g><g class="points"/><g class="text"/></g><g class="trace scatter trace44ad0f" style="stroke-miterlimit: 2; opacity: 1;"><g class="fills"/><g class="errorbars"/><g class="lines"><path class="js-line" d="M0,178.15L9.66,178.15L14.5,153.59L19.33,153.59L24.16,134.47L28.99,142.64L33.83,137.19L38.66,142.64L43.49,115.29L48.32,104.4L53.15,150.86L57.99,145.36L62.82,153.59L72.48,153.59L77.32,128.96L82.15,137.19L86.98,153.59L91.81,139.91L96.64,148.08L101.48,118.07L106.31,101.61L111.14,101.61L115.97,107.12L120.81,101.61L125.64,109.84L130.47,104.4L135.3,115.29L140.13,126.24L144.97,112.56L149.8,104.4L154.63,101.61L159.46,104.4L164.3,109.84L169.13,98.89L173.96,107.12L183.62,112.56L188.46,109.84L193.29,109.84L198.12,107.12L202.95,101.61L207.79,98.89L222.28,98.89L227.11,109.84L231.95,104.4L236.78,101.61L241.61,101.61L246.44,109.84L251.28,107.12L256.11,109.84L260.94,104.4L265.77,104.4L270.6,98.89L275.44,98.89L289.93,98.89L294.77,107.12L304.43,107.12L309.26,101.61L314.09,107.12L318.93,107.12L323.76,107.12L328.59,98.89L333.42,98.89L338.26,101.61L352.75,101.61L357.58,98.89L362.42,98.89L367.25,104.4L376.91,104.4L381.74,98.89L386.58,104.4L391.41,98.89L396.24,98.89L401.07,101.61L405.91,98.89L410.74,101.61L415.57,101.61L420.4,98.89L425.23,98.89L430.07,101.61L434.9,98.89L439.73,98.89L444.56,98.89L449.4,101.61L454.23,98.89L459.06,98.89L483.22,98.89L488.05,101.61L492.89,101.61L497.72,104.4L502.55,101.61L507.38,101.61L512.21,101.61L517.05,98.89L526.71,98.89L531.54,101.61L536.38,101.61L541.21,98.89L546.04,101.61L550.87,101.61L555.7,98.89L560.54,98.89L575.03,98.89L579.87,101.61L584.7,98.89L589.53,98.89L652.35,98.89L657.18,101.61L666.85,101.61L671.68,98.89L720,98.89" style="vector-effect: none; fill: none; stroke: rgb(0, 0, 255); stroke-opacity: 1; stroke-width: 2px; opacity: 1;"/></g><g class="points"/><g class="text"/></g><g class="trace scatter trace847cff" style="stroke-miterlimit: 2; opacity: 1;"><g class="fills"/><g class="errorbars"/><g class="lines"><path class="js-line" d="M0,376.2L9.66,376.2L14.5,82.61L19.33,82.61L24.16,92.46L28.99,120.91L33.83,112.33L38.66,120.1L43.49,111.17L48.32,62.1L53.15,95.18L57.99,97.91L62.82,82.61L67.65,82.61L72.48,100.34L77.32,69.86L82.15,77.57L86.98,82.61L91.81,82.49L96.64,80.93L101.48,59.78L106.31,77.22L111.14,74.21L115.97,76.99L120.81,74.61L125.64,33.07L130.47,76.64L135.3,36.89L140.13,57.06L144.97,37.07L149.8,81.39L154.63,78.5L159.46,76.53L164.3,35.91L169.13,75.08L173.96,28.2L178.79,32.43L183.62,27.68L188.46,27.27L193.29,27.22L198.12,31.27L202.95,68.36L207.79,74.79L212.62,68.99L217.45,71.25L222.28,73.98L227.11,72.35L231.95,75.31L236.78,76.29L241.61,75.08L246.44,31.45L256.11,27.68L260.94,29.36L265.77,28.14L270.6,66.27L280.27,63.2L285.1,65.81L289.93,66.91L294.77,19.8L299.6,23.97L304.43,19.8L309.26,62.97L314.09,71.83L318.93,66.56L323.76,68.88L328.59,64.65L333.42,64.36L338.26,63.89L343.09,64.24L347.92,65.63L352.75,63.89L357.58,64.24L362.42,62.5L367.25,66.91L372.08,66.62L376.91,65.52L381.74,62.33L386.58,65.63L391.41,63.26L396.24,62.5L401.07,65.98L405.91,63.2L410.74,63.89L415.57,63.89L420.4,61.92L430.07,61.23L434.9,61.87L439.73,59.03L444.56,57.17L449.4,59.78L454.23,57.17L459.06,58.62L463.89,58.85L468.72,58.85L473.56,55.55L488.05,57.98L492.89,60.42L497.72,61.34L502.55,59.26L507.38,59.84L512.21,58.62L521.88,57.58L526.71,59.26L531.54,59.03L536.38,60.48L546.04,58.22L550.87,61.11L555.7,61.52L560.54,58.79L565.37,57.81L570.2,55.72L575.03,57.58L579.87,56.13L584.7,55.55L589.53,56.54L594.36,56.13L599.19,58.45L618.52,58.79L623.36,57.58L628.19,57.4L633.02,59.43L637.85,58.62L642.68,59.03L657.18,59.84L662.01,60.88L671.68,59.43L676.51,61.69L681.34,57.98L686.17,55.96L695.84,56.13L700.67,55.55L705.5,55.32L710.34,55.96L715.17,56.77L720,55.96" style="vector-effect: none; fill: none; stroke: rgb(0, 128, 0); stroke-opacity: 1; stroke-width: 2px; opacity: 1;"/></g><g class="points"/><g class="text"/></g><g class="trace scatter tracede82a7" style="stroke-miterlimit: 2; opacity: 1;"><g class="fills"/><g class="errorbars"/><g class="lines"><path class="js-line" d="M0,361.31L9.66,361.31L14.5,63.49L19.33,63.49L24.16,56.65L28.99,135.28L33.83,131.57L38.66,135.28L43.49,116.04L48.32,44.83L53.15,62.5L57.99,60.59L62.82,63.49L72.48,63.49L77.32,54.57L82.15,57.64L86.98,63.49L91.81,58.62L96.64,61.58L101.48,50.39L106.31,106.6L111.14,106.6L115.97,109.78L120.81,106.6L125.64,47.09L130.47,107.64L135.3,77.28L140.13,53.52L144.97,48.19L149.8,107.64L154.63,105.5L159.46,108.8L164.3,57.17L169.13,103.29L173.96,55.61L183.62,75.13L188.46,65.69L193.29,65.69L198.12,55.61L202.95,105.5L207.79,103.29L222.28,103.29L227.11,111.87L231.95,107.64L236.78,105.5L241.61,105.5L246.44,65.69L251.28,55.61L256.11,57.17L260.94,44.83L265.77,44.83L270.6,103.29L275.44,103.29L289.93,103.29L294.77,55.61L304.43,55.61L309.26,105.5L314.09,109.78L318.93,109.78L323.76,109.78L328.59,103.29L333.42,103.29L338.26,105.5L352.75,105.5L357.58,103.29L362.42,103.29L367.25,107.64L376.91,107.64L381.74,103.29L386.58,107.64L391.41,103.29L396.24,103.29L401.07,105.5L405.91,103.29L410.74,105.5L415.57,105.5L420.4,103.29L425.23,103.29L430.07,105.5L434.9,103.29L439.73,103.29L444.56,103.29L449.4,105.5L454.23,103.29L459.06,103.29L483.22,103.29L488.05,105.5L492.89,105.5L497.72,107.64L502.55,105.5L507.38,105.5L512.21,105.5L517.05,103.29L526.71,103.29L531.54,105.5L536.38,105.5L541.21,103.29L546.04,105.5L550.87,105.5L555.7,103.29L560.54,103.29L575.03,103.29L579.87,105.5L584.7,103.29L589.53,103.29L652.35,103.29L657.18,106.6L666.85,106.6L671.68,103.29L720,103.29" style="vector-effect: none; fill: none; stroke: rgb(255, 165, 0); stroke-opacity: 1; stroke-width: 2px; opacity: 1;"/></g><g class="points"/><g class="text"/></g><g class="trace scatter trace56e991" style="stroke-miterlimit: 2; opacity: 1;"><g class="fills"/><g class="errorbars"/><g class="lines"><path class="js-line" d="M0,254.7L9.66,254.7L14.5,239.17L19.33,239.17L24.16,183.89L28.99,117.55L33.83,108.62L38.66,116.62L43.49,109.09L48.32,95.41L53.15,227.23L57.99,216.16L62.82,239.17L67.65,239.17L72.48,232.97L77.32,174.04L82.15,193.68L86.98,239.17L91.81,205.16L96.64,232.62L101.48,127.05L106.31,79.36L111.14,76.76L115.97,77.39L120.81,81.28L125.64,65.81L130.47,78.32L135.3,63.66L140.13,140.49L144.97,81.45L149.8,80.7L154.63,78.32L159.46,78.55L169.13,79.07L173.96,53.93L178.79,52.31L183.62,49.12L188.46,47.26L193.29,48.31L198.12,52.77L202.95,73.05L207.79,79.54L212.62,73.92L222.28,77.22L227.11,76L231.95,76.64L236.78,78.96L241.61,79.07L246.44,66.27L256.11,62.68L260.94,65.92L265.77,63.49L270.6,70.85L280.27,68.24L285.1,69.8L289.93,71.66L294.77,46.05L299.6,46.57L304.43,46.05L309.26,68.47L314.09,73.05L318.93,68.64L323.76,70.44L333.42,68.41L338.26,67.37L343.09,66.91L347.92,68.3L362.42,65.92L367.25,69.92L372.08,70.38L376.91,68.53L381.74,66.15L386.58,68.3L391.41,66.5L396.24,65.92L401.07,69.57L405.91,68.24L410.74,67.37L415.57,67.37L420.4,66.62L425.23,66.85L430.07,64.3L434.9,65.11L439.73,63.78L444.56,61.34L449.4,62.91L454.23,61.34L463.89,64.01L468.72,64.01L473.56,60.19L478.39,62.04L483.22,62.39L488.05,61.92L492.89,63.72L497.72,64.07L502.55,63.55L507.38,64.36L512.21,62.73L517.05,62.97L521.88,62.39L526.71,65.05L531.54,63.78L536.38,65.23L546.04,63.2L550.87,66.04L555.7,65.57L560.54,62.5L565.37,62.16L570.2,59.95L575.03,62.39L579.87,61L584.7,60.19L589.53,60.53L594.36,61L599.19,62.97L604.03,62.97L608.86,63.78L613.69,63.78L618.52,62.5L628.19,62.62L633.02,64.82L647.52,63.55L652.35,63.55L662.01,64.76L666.85,64.18L671.68,63.31L676.51,65.34L681.34,61.92L686.17,61.23L705.5,60.36L710.34,61.23L715.17,61.81L720,61.23" style="vector-effect: none; fill: none; stroke: rgb(128, 0, 128); stroke-opacity: 1; stroke-width: 2px; opacity: 1;"/></g><g class="points"/><g class="text"/></g><g class="trace scatter trace56d845" style="stroke-miterlimit: 2; opacity: 1;"><g class="fills"/><g class="errorbars"/><g class="lines"><path class="js-line" d="M0,254.7L9.66,254.7L14.5,221.26L19.33,221.26L24.16,195.25L28.99,127.22L33.83,122.94L38.66,127.22L43.49,105.61L48.32,154.4L53.15,217.56L57.99,210.14L62.82,221.26L72.48,221.26L77.32,187.83L82.15,198.96L86.98,221.26L91.81,202.72L96.64,213.85L101.48,173L106.31,96.4L111.14,96.4L115.97,99.12L120.81,96.4L125.64,161.82L130.47,96.98L135.3,164.6L140.13,184.12L144.97,165.58L149.8,96.98L154.63,94.83L159.46,98.54L164.3,160.31L169.13,92.63L173.96,156.6L183.62,160.89L188.46,158.74L193.29,158.74L198.12,156.6L202.95,94.83L207.79,92.63L222.28,92.63L227.11,101.32L231.95,96.98L236.78,94.83L241.61,94.83L246.44,158.74L251.28,156.6L256.11,160.31L260.94,154.4L265.77,154.4L270.6,92.63L275.44,92.63L289.93,92.63L294.77,156.6L304.43,156.6L309.26,94.83L314.09,99.12L318.93,99.12L323.76,99.12L328.59,92.63L333.42,92.63L338.26,94.83L352.75,94.83L357.58,92.63L362.42,92.63L367.25,96.98L376.91,96.98L381.74,92.63L386.58,96.98L391.41,92.63L396.24,92.63L401.07,94.83L405.91,92.63L410.74,94.83L415.57,94.83L420.4,92.63L425.23,92.63L430.07,94.83L434.9,92.63L439.73,92.63L444.56,92.63L449.4,94.83L454.23,92.63L459.06,92.63L483.22,92.63L488.05,94.83L492.89,94.83L497.72,96.98L502.55,94.83L507.38,94.83L512.21,94.83L517.05,92.63L526.71,92.63L531.54,94.83L536.38,94.83L541.21,92.63L546.04,94.83L550.87,94.83L555.7,92.63L560.54,92.63L575.03,92.63L579.87,94.83L584.7,92.63L589.53,92.63L652.35,92.63L657.18,96.4L666.85,96.4L671.68,92.63L720,92.63" style="vector-effect: none; fill: none; stroke: rgb(255, 192, 203); stroke-opacity: 1; stroke-width: 2px; opacity: 1;"/></g><g class="points"/><g class="text"/></g><g class="trace scatter trace0c498e" style="stroke-miterlimit: 2; opacity: 1;"><g class="fills"/><g class="errorbars"/><g class="lines"><path class="js-line" d="M0,331.58L9.66,331.58L14.5,298.96L19.33,298.96L24.16,200L28.99,123.52L33.83,112.51L38.66,122.18L43.49,110.42L48.32,90.32L53.15,274.51L57.99,253.42L62.82,298.96L67.65,298.96L72.48,285.35L77.32,187.83L82.15,217.32L86.98,298.96L91.81,235.81L96.64,286.1L101.48,125.66L106.31,78.44L111.14,75.66L120.81,78.96L125.64,59.26L130.47,77.57L135.3,57.64L140.13,142.64L144.97,74.9L149.8,81.04L154.63,78.44L159.46,77.63L164.3,72.35L169.13,77.51L173.96,47.73L178.79,46.97L183.62,43.44L188.46,41.76L193.29,42.69L198.12,47.15L202.95,71.25L207.79,77.68L212.62,72.01L222.28,75.89L227.11,74.55L236.78,77.86L241.61,77.51L246.44,59.49L251.28,57.17L256.11,55.72L260.94,58.97L265.77,56.54L270.6,69.05L280.27,66.27L285.1,68.18L289.93,69.8L294.77,39.5L299.6,40.6L304.43,39.5L309.26,66.39L314.09,72.47L318.93,67.72L323.76,69.75L328.59,67.72L333.42,66.79L343.09,65.75L347.92,67.14L352.75,65.92L357.58,65.75L362.42,64.47L367.25,68.64L372.08,68.88L376.91,67.25L381.74,64.59L386.58,67.14L391.41,65.17L396.24,64.47L401.07,68.12L405.91,66.27L415.57,65.92L420.4,64.76L425.23,64.88L430.07,62.97L434.9,63.72L439.73,61.92L444.56,59.66L449.4,61.58L454.23,59.66L459.06,61.05L463.89,62.04L468.72,62.04L473.56,58.33L478.39,59.9L483.22,60.48L488.05,60.3L492.89,62.33L497.72,62.91L502.55,61.81L507.38,62.62L512.21,61.05L517.05,61.17L521.88,60.48L526.71,62.85L531.54,61.92L536.38,63.37L541.21,62.68L546.04,61.23L550.87,64.13L555.7,63.95L560.54,61L565.37,60.42L570.2,58.22L575.03,60.48L584.7,58.33L589.53,58.91L594.36,59.08L599.19,61.17L613.69,61.92L618.52,61L628.19,60.59L633.02,62.79L642.68,61.92L647.52,61.81L652.35,61.81L657.18,62.62L662.01,63.14L666.85,62.5L671.68,61.75L676.51,63.84L681.34,60.3L686.17,59.14L705.5,58.39L710.34,59.14L715.17,59.84L720,59.14" style="vector-effect: none; fill: none; stroke: rgb(165, 42, 42); stroke-opacity: 1; stroke-width: 2px; opacity: 1;"/></g><g class="points"/><g class="text"/></g><g class="trace scatter trace3a71d3" style="stroke-miterlimit: 2; opacity: 1;"><g class="fills"/><g class="errorbars"/><g class="lines"><path class="js-line" d="M0,320L9.66,320L14.5,254.06L19.33,254.06L24.16,210.49L28.99,144.09L33.83,138.87L38.66,144.09L43.49,118.19L48.32,152.02L53.15,247.51L57.99,234.71L62.82,254.06L72.48,254.06L77.32,199.07L82.15,216.4L86.98,254.06L91.81,222.36L96.64,241.02L106.31,105.73L111.14,105.73L115.97,110.42L120.81,105.73L125.64,161.87L130.47,107.81L135.3,164.19L140.13,193.45L144.97,166.97L149.8,107.81L154.63,105.26L159.46,108.28L164.3,159.38L169.13,102.66L173.96,154.46L178.79,156.95L183.62,159.32L188.46,156.95L193.29,156.95L198.12,154.46L202.95,105.26L207.79,102.66L222.28,102.66L227.11,113.03L231.95,107.81L236.78,105.26L241.61,105.26L246.44,156.95L251.28,154.46L256.11,159.38L260.94,152.02L265.77,152.02L270.6,102.66L275.44,102.66L289.93,102.66L294.77,154.46L304.43,154.46L309.26,105.26L314.09,110.42L318.93,110.42L323.76,110.42L328.59,102.66L333.42,102.66L338.26,105.26L352.75,105.26L357.58,102.66L362.42,102.66L367.25,107.81L376.91,107.81L381.74,102.66L386.58,107.81L391.41,102.66L396.24,102.66L401.07,105.26L405.91,102.66L410.74,105.26L415.57,105.26L420.4,102.66L425.23,102.66L430.07,105.26L434.9,102.66L439.73,102.66L444.56,102.66L449.4,105.26L454.23,102.66L459.06,102.66L483.22,102.66L488.05,105.26L492.89,105.26L497.72,107.81L502.55,105.26L507.38,105.26L512.21,105.26L517.05,102.66L526.71,102.66L531.54,105.26L536.38,105.26L541.21,102.66L546.04,105.26L550.87,105.26L555.7,102.66L560.54,102.66L575.03,102.66L579.87,105.26L584.7,102.66L589.53,102.66L652.35,102.66L657.18,105.73L666.85,105.73L671.68,102.66L720,102.66" style="vector-effect: none; fill: none; stroke: rgb(128, 128, 128); stroke-opacity: 1; stroke-width: 2px; opacity: 1;"/></g><g class="points"/><g class="text"/></g></g></g><g class="overplot"/><path class="xlines-above crisp" d="M0,0" style="fill: none;"/><path class="ylines-above crisp" d="M0,0" style="fill: none;"/><g class="overlines-above"/><g class="xaxislayer-above"><g class="xtick"><text text-anchor="middle" x="0" y="509" transform="translate(241.81,0)" style="font-family: 'Open Sans', verdana, arial, sans-serif; font-size: 12px; fill: rgb(42, 63, 95); fill-opacity: 1; white-space: pre; opacity: 1;">20</text></g><g class="xtick"><text text-anchor="middle" x="0" y="509" style="font-family: 'Open Sans', verdana, arial, sans-serif; font-size: 12px; fill: rgb(42, 63, 95); fill-opacity: 1; white-space: pre; opacity: 1;" transform="translate(338.46000000000004,0)">40</text></g><g class="xtick"><text text-anchor="middle" x="0" y="509" style="font-family: 'Open Sans', verdana, arial, sans-serif; font-size: 12px; fill: rgb(42, 63, 95); fill-opacity: 1; white-space: pre; opacity: 1;" transform="translate(435.1,0)">60</text></g><g class="xtick"><text text-anchor="middle" x="0" y="509" style="font-family: 'Open Sans', verdana, arial, sans-serif; font-size: 12px; fill: rgb(42, 63, 95); fill-opacity: 1; white-space: pre; opacity: 1;" transform="translate(531.74,0)">80</text></g><g class="xtick"><text text-anchor="middle" x="0" y="509" style="font-family: 'Open Sans', verdana, arial, sans-serif; font-size: 12px; fill: rgb(42, 63, 95); fill-opacity: 1; white-space: pre; opacity: 1;" transform="translate(628.39,0)">100</text></g><g class="xtick"><text text-anchor="middle" x="0" y="509" style="font-family: 'Open Sans', verdana, arial, sans-serif; font-size: 12px; fill: rgb(42, 63, 95); fill-opacity: 1; white-space: pre; opacity: 1;" transform="translate(725.03,0)">120</text></g><g class="xtick"><text text-anchor="middle" x="0" y="509" style="font-family: 'Open Sans', verdana, arial, sans-serif; font-size: 12px; fill: rgb(42, 63, 95); fill-opacity: 1; white-space: pre; opacity: 1;" transform="translate(821.68,0)">140</text></g></g><g class="yaxislayer-above"><g class="ytick"><text text-anchor="end" x="149" y="4.199999999999999" transform="translate(0,470.58)" style="font-family: 'Open Sans', verdana, arial, sans-serif; font-size: 12px; fill: rgb(42, 63, 95); fill-opacity: 1; white-space: pre; opacity: 1;">30</text></g><g class="ytick"><text text-anchor="end" x="149" y="4.199999999999999" style="font-family: 'Open Sans', verdana, arial, sans-serif; font-size: 12px; fill: rgb(42, 63, 95); fill-opacity: 1; white-space: pre; opacity: 1;" transform="translate(0,412.64)">40</text></g><g class="ytick"><text text-anchor="end" x="149" y="4.199999999999999" style="font-family: 'Open Sans', verdana, arial, sans-serif; font-size: 12px; fill: rgb(42, 63, 95); fill-opacity: 1; white-space: pre; opacity: 1;" transform="translate(0,354.7)">50</text></g><g class="ytick"><text text-anchor="end" x="149" y="4.199999999999999" style="font-family: 'Open Sans', verdana, arial, sans-serif; font-size: 12px; fill: rgb(42, 63, 95); fill-opacity: 1; white-space: pre; opacity: 1;" transform="translate(0,296.75)">60</text></g><g class="ytick"><text text-anchor="end" x="149" y="4.199999999999999" style="font-family: 'Open Sans', verdana, arial, sans-serif; font-size: 12px; fill: rgb(42, 63, 95); fill-opacity: 1; white-space: pre; opacity: 1;" transform="translate(0,238.81)">70</text></g><g class="ytick"><text text-anchor="end" x="149" y="4.199999999999999" style="font-family: 'Open Sans', verdana, arial, sans-serif; font-size: 12px; fill: rgb(42, 63, 95); fill-opacity: 1; white-space: pre; opacity: 1;" transform="translate(0,180.87)">80</text></g><g class="ytick"><text text-anchor="end" x="149" y="4.199999999999999" style="font-family: 'Open Sans', verdana, arial, sans-serif; font-size: 12px; fill: rgb(42, 63, 95); fill-opacity: 1; white-space: pre; opacity: 1;" transform="translate(0,122.93)">90</text></g></g><g class="overaxes-above"/></g></g><g class="polarlayer"/><g class="smithlayer"/><g class="ternarylayer"/><g class="geolayer"/><g class="funnelarealayer"/><g class="pielayer"/><g class="iciclelayer"/><g class="treemaplayer"/><g class="sunburstlayer"/><g class="glimages"/><defs id="topdefs-99bf58"><g class="clips"/><clipPath id="legend99bf58"><rect width="128" height="162" x="0" y="0"/></clipPath></defs><g class="layer-above"><g class="imagelayer"/><g class="shapelayer"/></g><g class="infolayer"><g class="legend" pointer-events="all" transform="translate(884.4,100)"><rect class="bg" shape-rendering="crispEdges" width="128" height="162" x="0" y="0" style="stroke: rgb(68, 68, 68); stroke-opacity: 1; fill: rgb(255, 255, 255); fill-opacity: 1; stroke-width: 0px;"/><g class="scrollbox" transform="" clip-path="url(#legend99bf58)"><g class="groups"><g class="traces" transform="translate(0,14.5)" style="opacity: 1;"><text class="legendtext" text-anchor="start" x="40" y="4.680000000000001" style="font-family: 'Open Sans', verdana, arial, sans-serif; font-size: 12px; fill: rgb(42, 63, 95); fill-opacity: 1; white-space: pre;">Train Accuracy</text><g class="layers" style="opacity: 1;"><g class="legendfill"/><g class="legendlines"><path class="js-line" d="M5,0h30" style="fill: none; stroke: rgb(255, 0, 0); stroke-opacity: 1; stroke-width: 2px;"/></g><g class="legendsymbols"><g class="legendpoints"/></g></g><rect class="legendtoggle" x="0" y="-9.5" width="122.71875" height="19" style="fill: rgb(0, 0, 0); fill-opacity: 0;"/></g><g class="traces" transform="translate(0,33.5)" style="opacity: 1;"><text class="legendtext" text-anchor="start" x="40" y="4.680000000000001" style="font-family: 'Open Sans', verdana, arial, sans-serif; font-size: 12px; fill: rgb(42, 63, 95); fill-opacity: 1; white-space: pre;">Test Accuracy</text><g class="layers" style="opacity: 1;"><g class="legendfill"/><g class="legendlines"><path class="js-line" d="M5,0h30" style="fill: none; stroke: rgb(0, 0, 255); stroke-opacity: 1; stroke-width: 2px;"/></g><g class="legendsymbols"><g class="legendpoints"/></g></g><rect class="legendtoggle" x="0" y="-9.5" width="122.71875" height="19" style="fill: rgb(0, 0, 0); fill-opacity: 0;"/></g><g class="traces" transform="translate(0,52.5)" style="opacity: 1;"><text class="legendtext" text-anchor="start" x="40" y="4.680000000000001" style="font-family: 'Open Sans', verdana, arial, sans-serif; font-size: 12px; fill: rgb(42, 63, 95); fill-opacity: 1; white-space: pre;">Train Precision</text><g class="layers" style="opacity: 1;"><g class="legendfill"/><g class="legendlines"><path class="js-line" d="M5,0h30" style="fill: none; stroke: rgb(0, 128, 0); stroke-opacity: 1; stroke-width: 2px;"/></g><g class="legendsymbols"><g class="legendpoints"/></g></g><rect class="legendtoggle" x="0" y="-9.5" width="122.71875" height="19" style="fill: rgb(0, 0, 0); fill-opacity: 0;"/></g><g class="traces" transform="translate(0,71.5)" style="opacity: 1;"><text class="legendtext" text-anchor="start" x="40" y="4.680000000000001" style="font-family: 'Open Sans', verdana, arial, sans-serif; font-size: 12px; fill: rgb(42, 63, 95); fill-opacity: 1; white-space: pre;">Test Precision</text><g class="layers" style="opacity: 1;"><g class="legendfill"/><g class="legendlines"><path class="js-line" d="M5,0h30" style="fill: none; stroke: rgb(255, 165, 0); stroke-opacity: 1; stroke-width: 2px;"/></g><g class="legendsymbols"><g class="legendpoints"/></g></g><rect class="legendtoggle" x="0" y="-9.5" width="122.71875" height="19" style="fill: rgb(0, 0, 0); fill-opacity: 0;"/></g><g class="traces" transform="translate(0,90.5)" style="opacity: 1;"><text class="legendtext" text-anchor="start" x="40" y="4.680000000000001" style="font-family: 'Open Sans', verdana, arial, sans-serif; font-size: 12px; fill: rgb(42, 63, 95); fill-opacity: 1; white-space: pre;">Train Recall</text><g class="layers" style="opacity: 1;"><g class="legendfill"/><g class="legendlines"><path class="js-line" d="M5,0h30" style="fill: none; stroke: rgb(128, 0, 128); stroke-opacity: 1; stroke-width: 2px;"/></g><g class="legendsymbols"><g class="legendpoints"/></g></g><rect class="legendtoggle" x="0" y="-9.5" width="122.71875" height="19" style="fill: rgb(0, 0, 0); fill-opacity: 0;"/></g><g class="traces" transform="translate(0,109.5)" style="opacity: 1;"><text class="legendtext" text-anchor="start" x="40" y="4.680000000000001" style="font-family: 'Open Sans', verdana, arial, sans-serif; font-size: 12px; fill: rgb(42, 63, 95); fill-opacity: 1; white-space: pre;">Test Recall</text><g class="layers" style="opacity: 1;"><g class="legendfill"/><g class="legendlines"><path class="js-line" d="M5,0h30" style="fill: none; stroke: rgb(255, 192, 203); stroke-opacity: 1; stroke-width: 2px;"/></g><g class="legendsymbols"><g class="legendpoints"/></g></g><rect class="legendtoggle" x="0" y="-9.5" width="122.71875" height="19" style="fill: rgb(0, 0, 0); fill-opacity: 0;"/></g><g class="traces" transform="translate(0,128.5)" style="opacity: 1;"><text class="legendtext" text-anchor="start" x="40" y="4.680000000000001" style="font-family: 'Open Sans', verdana, arial, sans-serif; font-size: 12px; fill: rgb(42, 63, 95); fill-opacity: 1; white-space: pre;">Train F1</text><g class="layers" style="opacity: 1;"><g class="legendfill"/><g class="legendlines"><path class="js-line" d="M5,0h30" style="fill: none; stroke: rgb(165, 42, 42); stroke-opacity: 1; stroke-width: 2px;"/></g><g class="legendsymbols"><g class="legendpoints"/></g></g><rect class="legendtoggle" x="0" y="-9.5" width="122.71875" height="19" style="fill: rgb(0, 0, 0); fill-opacity: 0;"/></g><g class="traces" transform="translate(0,147.5)" style="opacity: 1;"><text class="legendtext" text-anchor="start" x="40" y="4.680000000000001" style="font-family: 'Open Sans', verdana, arial, sans-serif; font-size: 12px; fill: rgb(42, 63, 95); fill-opacity: 1; white-space: pre;">Test F1</text><g class="layers" style="opacity: 1;"><g class="legendfill"/><g class="legendlines"><path class="js-line" d="M5,0h30" style="fill: none; stroke: rgb(128, 128, 128); stroke-opacity: 1; stroke-width: 2px;"/></g><g class="legendsymbols"><g class="legendpoints"/></g></g><rect class="legendtoggle" x="0" y="-9.5" width="122.71875" height="19" style="fill: rgb(0, 0, 0); fill-opacity: 0;"/></g></g></g><rect class="scrollbar" rx="20" ry="3" width="0" height="0" x="0" y="0" style="fill: rgb(128, 139, 164); fill-opacity: 1;"/></g><g class="g-gtitle"><text class="gtitle" x="51.2" y="50" text-anchor="start" dy="0em" style="font-family: 'Open Sans', verdana, arial, sans-serif; font-size: 17px; fill: rgb(42, 63, 95); opacity: 1; font-weight: normal; white-space: pre;">Training Metrics - logs/FakeNewsNet-politifact_max-vocab=15000_pre=v1_domain_T=200_s=15.log</text></g><g class="g-xtitle"><text class="xtitle" x="510" y="537.3" text-anchor="middle" style="font-family: 'Open Sans', verdana, arial, sans-serif; font-size: 14px; fill: rgb(42, 63, 95); opacity: 1; font-weight: normal; white-space: pre;">Epoch</text></g><g class="g-ytitle"><text class="ytitle" transform="rotate(-90,110.965625,298)" x="110.965625" y="298" text-anchor="middle" style="font-family: 'Open Sans', verdana, arial, sans-serif; font-size: 14px; fill: rgb(42, 63, 95); opacity: 1; font-weight: normal; white-space: pre;">Metric Score</text></g></g><g class="menulayer"><g class="updatemenu-container" style="cursor: pointer;"><g class="updatemenu-header-group" transform="translate(12,60)"><g class="updatemenu-header" transform="translate(1,1)" style="pointer-events: all;"><rect class="updatemenu-item-rect" rx="2" ry="2" shape-rendering="crispEdges" x="0" y="0" width="174" height="33" style="stroke: rgb(190, 200, 217); stroke-opacity: 1; fill: rgb(255, 255, 255); fill-opacity: 1; stroke-width: 1px;"/><text class="updatemenu-item-text" text-anchor="start" data-notex="1" x="12" y="19.5" style="font-family: 'Open Sans', verdana, arial, sans-serif; font-size: 12px; fill: rgb(42, 63, 95); fill-opacity: 1; white-space: pre;">All</text></g><text class="updatemenu-header-arrow" text-anchor="end" x="170" y="19.5" style="font-family: 'Open Sans', verdana, arial, sans-serif; font-size: 12px; fill: rgb(42, 63, 95); fill-opacity: 1;">▼</text></g><g class="updatemenu-dropdown-button-group" updatemenu-active-index="-1" style="pointer-events: all;"><rect class="scrollbox-bg" opacity="0" x="0" y="0" width="0" height="0" style="pointer-events: all;"/></g></g></g></svg>