<svg class="main-svg" xmlns="http://www.w3.org/2000/svg" xmlns:xlink="http://www.w3.org/1999/xlink" width="1024" height="576" style="" viewBox="0 0 1024 576"><rect x="0" y="0" width="1024" height="576" style="fill: rgb(255, 255, 255); fill-opacity: 1;"/><defs id="defs-92311c"><g class="clips"><clipPath id="clip92311cxyplot" class="plotclip"><rect width="726" height="396"/></clipPath><clipPath class="axesclip" id="clip92311cx"><rect x="143" y="0" width="726" height="576"/></clipPath><clipPath class="axesclip" id="clip92311cy"><rect x="0" y="100" width="1024" height="396"/></clipPath><clipPath class="axesclip" id="clip92311cxy"><rect x="143" y="100" width="726" height="396"/></clipPath></g><g class="gradients"/><g class="patterns"/></defs><g class="bglayer"><rect class="bg" x="143" y="100" width="726" height="396" style="fill: rgb(229, 236, 246); fill-opacity: 1; stroke-width: 0;"/></g><g class="layer-below"><g class="imagelayer"/><g class="shapelayer"/></g><g class="cartesianlayer"><g class="subplot xy"><g class="layer-subplot"><g class="shapelayer"/><g class="imagelayer"/></g><g class="minor-gridlayer"><g class="x"/><g class="y"/></g><g class="gridlayer"><g class="x"><path class="xgrid crisp" transform="translate(235.57999999999998,0)" d="M0,100v396" style="stroke: rgb(255, 255, 255); stroke-opacity: 1; stroke-width: 1px;"/><path class="xgrid crisp" transform="translate(333.03,0)" d="M0,100v396" style="stroke: rgb(255, 255, 255); stroke-opacity: 1; stroke-width: 1px;"/><path class="xgrid crisp" transform="translate(430.48,0)" d="M0,100v396" style="stroke: rgb(255, 255, 255); stroke-opacity: 1; stroke-width: 1px;"/><path class="xgrid crisp" transform="translate(527.9300000000001,0)" d="M0,100v396" style="stroke: rgb(255, 255, 255); stroke-opacity: 1; stroke-width: 1px;"/><path class="xgrid crisp" transform="translate(625.38,0)" d="M0,100v396" style="stroke: rgb(255, 255, 255); stroke-opacity: 1; stroke-width: 1px;"/><path class="xgrid crisp" transform="translate(722.83,0)" d="M0,100v396" style="stroke: rgb(255, 255, 255); stroke-opacity: 1; stroke-width: 1px;"/><path class="xgrid crisp" transform="translate(820.28,0)" d="M0,100v396" style="stroke: rgb(255, 255, 255); stroke-opacity: 1; stroke-width: 1px;"/></g><g class="y"><path class="ygrid crisp" transform="translate(0,450.58)" d="M143,0h726" style="stroke: rgb(255, 255, 255); stroke-opacity: 1; stroke-width: 1px;"/><path class="ygrid crisp" transform="translate(0,403.99)" d="M143,0h726" style="stroke: rgb(255, 255, 255); stroke-opacity: 1; stroke-width: 1px;"/><path class="ygrid crisp" transform="translate(0,357.4)" d="M143,0h726" style="stroke: rgb(255, 255, 255); stroke-opacity: 1; stroke-width: 1px;"/><path class="ygrid crisp" transform="translate(0,310.81)" d="M143,0h726" style="stroke: rgb(255, 255, 255); stroke-opacity: 1; stroke-width: 1px;"/><path class="ygrid crisp" transform="translate(0,264.22)" d="M143,0h726" style="stroke: rgb(255, 255, 255); stroke-opacity: 1; stroke-width: 1px;"/><path class="ygrid crisp" transform="translate(0,217.64)" d="M143,0h726" style="stroke: rgb(255, 255, 255); stroke-opacity: 1; stroke-width: 1px;"/><path class="ygrid crisp" transform="translate(0,171.05)" d="M143,0h726" style="stroke: rgb(255, 255, 255); stroke-opacity: 1; stroke-width: 1px;"/><path class="ygrid crisp" transform="translate(0,124.46000000000001)" d="M143,0h726" style="stroke: rgb(255, 255, 255); stroke-opacity: 1; stroke-width: 1px;"/></g></g><g class="zerolinelayer"/><path class="xlines-below"/><path class="ylines-below"/><g class="overlines-below"/><g class="xaxislayer-below"/><g class="yaxislayer-below"/><g class="overaxes-below"/><g class="plot" transform="translate(143,100)" clip-path="url(#clip92311cxyplot)"><g class="scatterlayer mlayer"><g class="trace scatter trace3f26df" style="stroke-miterlimit: 2; opacity: 1;"><g class="fills"/><g class="errorbars"/><g class="lines"><path class="js-line" d="M0,208.2L4.87,167.3L9.74,164.04L14.62,166.18L19.49,158.45L24.36,161.8L29.23,143.07L34.11,131.98L38.98,56.88L43.85,82.32L48.72,118.75L53.6,128.63L58.47,155.19L63.34,151.83L68.21,169.53L73.09,158.45L77.96,103.29L82.83,41.42L87.7,55.77L92.58,49.15L97.45,77.85L102.32,63.5L107.19,84.56L112.07,94.43L116.94,117.64L121.81,91.17L126.68,92.2L131.56,126.49L136.43,56.88L141.3,139.72L146.17,146.33L151.05,154.07L155.92,95.55L160.79,135.34L165.66,35.92L170.54,42.54L175.41,70.21L180.28,52.5L185.15,24.92L190.03,26.04L194.9,43.65L199.77,182.77L204.64,189.38L209.52,158.45L214.39,41.42L219.26,52.5L224.13,96.67L229.01,84.56L233.88,86.7L238.75,82.32L243.62,29.3L248.5,39.27L253.37,40.39L263.11,40.39L267.99,42.54L272.86,40.39L277.73,35.92L282.6,37.04L287.48,30.42L292.35,32.66L297.22,37.04L302.09,38.16L306.97,35.92L311.84,34.8L316.71,92.2L326.46,108.78L331.33,31.54L336.2,29.3L341.07,34.8L345.95,39.27L350.82,37.04L355.69,38.16L360.56,38.16L365.44,32.66L370.31,31.54L375.18,32.66L380.05,37.04L384.93,37.04L389.8,33.78L394.67,39.27L399.54,40.39L404.42,43.65L409.29,32.66L414.16,37.04L419.03,33.78L423.91,34.8L428.78,34.8L433.65,38.16L438.52,34.8L443.4,37.04L448.27,41.42L453.14,38.16L458.01,50.27L462.89,38.16L467.76,40.39L472.63,32.66L477.5,63.5L482.38,60.24L487.25,58L492.12,33.78L496.99,48.13L501.87,48.13L506.74,47.01L511.61,53.62L516.48,51.39L521.36,53.62L526.23,51.39L531.1,51.39L535.97,52.5L540.85,98.91L545.72,105.52L550.59,99.93L555.46,102.17L565.21,104.4L570.08,80.09L574.95,82.32L579.83,108.78L584.7,102.17L589.57,102.17L599.32,116.52L604.19,106.64L609.06,107.67L613.93,111.02L618.81,109.9L623.68,86.7L628.55,76.82L633.42,77.85L638.3,81.2L643.17,74.59L648.04,66.85L652.91,64.62L657.79,41.42L662.66,39.27L667.53,41.42L672.4,41.42L677.28,31.54L682.15,31.54L687.02,35.92L691.89,34.8L696.77,38.16L701.64,76.82L706.51,73.47L711.38,69.09L716.26,35.92L721.13,29.3L726,27.07" style="vector-effect: none; fill: none; stroke: rgb(255, 0, 0); stroke-opacity: 1; stroke-width: 2px; opacity: 1;"/></g><g class="points"/><g class="text"/></g><g class="trace scatter trace231236" style="stroke-miterlimit: 2; opacity: 1;"><g class="fills"/><g class="errorbars"/><g class="lines"><path class="js-line" d="M0,218.73L4.87,183.6L9.74,183.6L24.36,183.6L29.23,165.99L34.11,170.37L38.98,86.89L43.85,126.39L48.72,135.25L58.47,179.13L63.34,174.75L68.21,196.74L73.09,187.98L77.96,165.99L82.83,113.26L87.7,113.26L92.58,130.87L97.45,152.76L102.32,130.87L107.19,126.39L112.07,148.38L116.94,161.61L121.81,139.62L131.56,157.24L136.43,130.87L141.3,174.75L146.17,192.36L151.05,214.35L155.92,165.99L160.79,174.75L165.66,117.64L175.41,152.76L180.28,135.25L185.15,91.27L190.03,95.65L194.9,113.26L199.77,227.49L204.64,240.72L209.52,218.73L214.39,95.65L219.26,113.26L224.13,170.37L229.01,161.61L233.88,157.24L238.75,148.38L243.62,82.51L248.5,86.89L253.37,91.27L258.24,86.89L263.11,82.51L267.99,100.02L272.86,100.02L277.73,95.65L287.48,86.89L292.35,73.66L297.22,78.04L302.09,73.66L306.97,91.27L311.84,82.51L316.71,144L321.58,148.38L326.46,152.76L331.33,104.4L336.2,95.65L341.07,113.26L345.95,91.27L350.82,91.27L355.69,73.66L360.56,86.89L365.44,91.27L370.31,86.89L375.18,95.65L380.05,100.02L389.8,100.02L394.67,113.26L399.54,100.02L404.42,100.02L409.29,104.4L414.16,104.4L419.03,100.02L423.91,91.27L433.65,91.27L438.52,100.02L443.4,95.65L448.27,104.4L453.14,100.02L458.01,108.88L462.89,100.02L467.76,104.4L472.63,100.02L477.5,130.87L482.38,126.39L487.25,130.87L492.12,104.4L496.99,122.01L501.87,113.26L506.74,113.26L516.48,130.87L521.36,130.87L526.23,117.64L531.1,117.64L535.97,122.01L540.85,170.37L545.72,170.37L550.59,165.99L555.46,174.75L560.34,165.99L570.08,165.99L574.95,161.61L579.83,170.37L584.7,174.75L589.57,179.13L594.44,179.13L599.32,179.13L604.19,183.6L613.93,183.6L618.81,179.13L623.68,144L628.55,148.38L633.42,148.38L638.3,165.99L643.17,161.61L648.04,139.62L652.91,144L657.79,100.02L662.66,108.88L667.53,104.4L672.4,113.26L677.28,100.02L682.15,100.02L687.02,104.4L691.89,100.02L696.77,104.4L701.64,157.24L706.51,157.24L711.38,157.24L716.26,100.02L721.13,104.4L726,100.02" style="vector-effect: none; fill: none; stroke: rgb(0, 0, 255); stroke-opacity: 1; stroke-width: 2px; opacity: 1;"/></g><g class="points"/><g class="text"/></g><g class="trace scatter trace5a7b94" style="stroke-miterlimit: 2; opacity: 1;"><g class="fills"/><g class="errorbars"/><g class="lines"><path class="js-line" d="M0,110.74L4.87,85.02L9.74,82.69L14.62,89.96L19.49,86.89L24.36,91.92L29.23,78.31L34.11,70.77L38.98,35.08L43.85,42.91L48.72,65.74L53.6,68.53L58.47,86.98L63.34,84.56L68.21,119.96L73.09,110.37L77.96,70.21L82.83,44.49L87.7,56.33L92.58,40.21L97.45,59.77L102.32,53.34L107.19,78.59L112.07,78.97L116.94,85.4L121.81,73L126.68,79.53L131.56,84.09L136.43,54.55L141.3,93.88L146.17,96.3L151.05,101.8L155.92,69.93L160.79,89.03L165.66,37.13L170.54,41.6L175.41,57.16L180.28,50.08L185.15,29.02L190.03,30.05L194.9,43.28L199.77,107.94L204.64,111.11L209.52,100.12L214.39,46.08L219.26,51.39L224.13,74.22L229.01,66.2L233.88,68.44L238.75,66.3L243.62,33.5L248.5,40.86L253.37,41.51L263.11,41.51L267.99,43.75L272.86,42.07L277.73,37.97L282.6,38.06L287.48,32.29L292.35,33.59L297.22,37.69L302.09,39.27L306.97,36.76L311.84,36.11L316.71,66.95L321.58,72.72L326.46,76.08L331.33,31.73L336.2,29.12L345.95,40.3L350.82,37.69L355.69,38.99L360.56,38.99L365.44,33.59L370.31,33.31L375.18,34.8L380.05,37.69L384.93,37.69L389.8,34.24L394.67,39.65L399.54,41.23L404.42,43.65L409.29,33.59L414.16,37.41L419.03,34.89L428.78,36.11L433.65,39.27L438.52,35.83L443.4,38.34L448.27,42.16L453.14,39.65L458.01,49.15L462.89,38.34L467.76,39.46L472.63,33.96L477.5,51.85L482.38,49.43L487.25,47.85L492.12,34.89L496.99,44.31L501.87,43.37L506.74,41.42L511.61,48.13L516.48,45.89L521.36,46.45L526.23,44.77L531.1,44.77L535.97,46.17L540.85,71.05L545.72,76.08L550.59,71.7L560.34,75.71L565.21,76.36L570.08,62.47L574.95,63.97L579.83,75.05L584.7,71.14L589.57,71.14L594.44,77.1L599.32,82.69L604.19,75.8L609.06,75.43L613.93,77.38L618.81,76.73L623.68,64.34L628.55,58.65L633.42,60.98L638.3,63.22L643.17,58.75L648.04,53.44L652.91,51.95L657.79,41.14L662.66,38.53L667.53,41.42L672.4,41.79L677.28,32.38L682.15,32.66L687.02,36.48L691.89,35.55L696.77,38.34L701.64,59.49L706.51,57.26L711.38,51.95L716.26,36.48L721.13,29.49L726,28.28" style="vector-effect: none; fill: none; stroke: rgb(0, 128, 0); stroke-opacity: 1; stroke-width: 2px; opacity: 1;"/></g><g class="points"/><g class="text"/></g><g class="trace scatter trace415c46" style="stroke-miterlimit: 2; opacity: 1;"><g class="fills"/><g class="errorbars"/><g class="lines"><path class="js-line" d="M0,249.11L4.87,163.76L9.74,163.76L24.36,163.76L29.23,137.48L34.11,143.54L38.98,74.96L43.85,106.83L48.72,102.17L53.6,134.22L58.47,156.58L63.34,149.87L68.21,210.9L73.09,195.53L77.96,171.03L82.83,129.56L87.7,115.49L97.45,163.29L102.32,142.61L107.19,125.28L112.07,137.95L116.94,136.36L121.81,126.02L126.68,137.95L131.56,129.93L136.43,130.87L141.3,144.19L146.17,154.44L151.05,171.4L155.92,138.97L160.79,140.18L165.66,126.49L170.54,134.03L175.41,137.76L180.28,136.36L185.15,106.64L190.03,111.02L194.9,113.26L199.77,152.95L209.52,164.6L214.39,111.3L219.26,115.49L224.13,145.4L233.88,140.56L238.75,134.87L243.62,97.14L248.5,96.2L253.37,99.93L258.24,96.2L263.11,92.48L267.99,111.58L272.86,111.58L277.73,105.06L282.6,99.93L287.48,97.6L292.35,83.63L297.22,85.86L302.09,82.23L306.97,101.33L311.84,91.08L316.71,125.56L321.58,128.26L326.46,127.33L331.33,112.42L336.2,101.8L341.07,121.18L345.95,98.25L350.82,99.93L355.69,80.64L360.56,94.71L365.44,98.25L370.31,96.2L375.18,105.06L380.05,108.78L384.93,108.78L389.8,108.78L394.67,121.18L399.54,107.11L404.42,107.11L409.29,112.42L414.16,113.91L419.03,110.27L423.91,102.63L428.78,102.63L433.65,98.25L438.52,107.11L443.4,103.57L448.27,112.42L453.14,110.27L458.01,109.99L462.89,107.11L467.76,110.65L472.63,108.78L477.5,120.24L482.38,117.26L487.25,120.24L492.12,113.91L496.99,119.59L501.87,108.22L506.74,108.22L511.61,117.08L516.48,125.83L521.36,125.83L526.23,114L531.1,114L535.97,117.08L540.85,145.4L545.72,145.4L550.59,138.97L555.46,148.01L560.34,138.97L565.21,135.06L570.08,142.7L574.95,140L579.83,141.58L584.7,144.19L589.57,150.71L599.32,150.71L604.19,153.32L609.06,153.32L613.93,145.12L618.81,142.7L623.68,125.56L628.55,131.7L633.42,131.7L638.3,142.7L643.17,140L648.04,126.02L652.91,128.82L657.79,107.11L662.66,114.09L667.53,110.65L672.4,117.54L677.28,107.11L682.15,107.11L687.02,110.65L691.89,105.34L696.77,108.78L701.64,140.56L711.38,140.56L716.26,107.11L721.13,110.65L726,107.11" style="vector-effect: none; fill: none; stroke: rgb(255, 165, 0); stroke-opacity: 1; stroke-width: 2px; opacity: 1;"/></g><g class="points"/><g class="text"/></g><g class="trace scatter trace5e7747" style="stroke-miterlimit: 2; opacity: 1;"><g class="fills"/><g class="errorbars"/><g class="lines"><path class="js-line" d="M0,267L4.87,217.61L9.74,213.61L14.62,215.56L19.49,205.97L24.36,209.51L29.23,187.14L34.11,174.01L38.98,80.46L43.85,113.72L48.72,157.51L53.6,170.09L58.47,201.68L63.34,197.67L68.21,215.1L73.09,201.96L77.96,135.43L82.83,48.22L87.7,48.5L92.58,66.57L97.45,102.26L102.32,82.88L107.19,72.54L112.07,77.01L116.94,93.32L121.81,72.35L126.68,76.26L131.56,98.72L136.43,46.91L141.3,110.93L146.17,116.24L151.05,123.23L155.92,73.56L160.79,106.36L165.66,28.84L170.54,33.4L175.41,53.53L180.28,42.35L185.15,27.35L190.03,29.02L194.9,35.08L199.77,145.77L204.64,151.46L209.52,125.93L214.39,43.09L219.26,43.47L224.13,75.99L229.01,65.55L233.88,67.79L238.75,64.34L243.62,32.29L258.24,33.4L263.11,33.4L267.99,35.64L272.86,34.06L277.73,29.96L282.6,29.77L287.48,24.09L292.35,25.2L297.22,29.4L302.09,31.07L306.97,28.47L311.84,27.91L316.71,70.39L321.58,77.38L326.46,84.28L331.33,23.25L336.2,20.55L341.07,26.42L345.95,32.01L350.82,29.4L355.69,30.7L360.56,30.7L365.44,25.2L370.31,25.02L375.18,26.7L380.05,29.4L384.93,29.4L389.8,25.86L394.67,31.35L399.54,33.03L404.42,35.45L409.29,25.2L414.16,29.02L419.03,26.6L428.78,27.91L433.65,31.07L438.52,27.53L443.4,30.14L448.27,33.96L453.14,31.45L458.01,41.23L462.89,29.96L467.76,31.17L472.63,25.58L477.5,47.47L482.38,44.68L487.25,42.72L492.12,26.6L496.99,36.76L501.87,36.01L506.74,34.34L511.61,41.14L516.48,38.9L521.36,40.02L526.23,38.16L531.1,38.16L535.97,39.46L540.85,76.08L545.72,82.14L550.59,77.01L555.46,79.34L560.34,80.64L565.21,81.58L570.08,61.36L574.95,63.31L579.83,83.91L584.7,78.22L589.57,78.22L599.32,91.64L604.19,82.79L609.06,83.35L613.93,86.14L618.81,85.21L623.68,66.02L628.55,57.82L633.42,59.49L638.3,62.29L643.17,56.6L648.04,49.99L652.91,48.03L657.79,32.84L662.66,30.24L667.53,33.22L672.4,33.59L677.28,23.9L682.15,24.27L687.02,28.09L691.89,27.16L696.77,29.96L701.64,58.19L706.51,55.3L711.38,50.46L716.26,28.09L721.13,20.92L726,19.8" style="vector-effect: none; fill: none; stroke: rgb(128, 0, 128); stroke-opacity: 1; stroke-width: 2px; opacity: 1;"/></g><g class="points"/><g class="text"/></g><g class="trace scatter trace6a5f77" style="stroke-miterlimit: 2; opacity: 1;"><g class="fills"/><g class="errorbars"/><g class="lines"><path class="js-line" d="M0,323.65L4.87,275.85L9.74,275.85L24.36,275.85L29.23,252L34.11,257.96L38.98,137.02L43.85,193.2L48.72,210.16L53.6,237.55L58.47,269.89L63.34,263.92L68.21,283.77L73.09,271.84L77.96,236.99L82.83,140.37L87.7,97.98L92.58,179.22L97.45,211.56L102.32,176.71L107.19,108.32L112.07,123.23L116.94,126.21L121.81,111.3L126.68,123.23L131.56,120.24L136.43,114.37L141.3,136.64L146.17,150.53L151.05,170.37L155.92,129.66L160.79,134.13L165.66,111.39L175.41,124.25L180.28,120.34L185.15,108.04L190.03,116.52L194.9,95.46L199.77,168.32L204.64,178.76L209.52,168.88L214.39,106.45L219.26,97.98L224.13,135.62L229.01,131.15L233.88,127.7L238.75,120.71L248.5,79.53L253.37,83.07L263.11,76.08L267.99,97.51L272.86,97.51L277.73,89.03L282.6,83.07L287.48,82.04L292.35,66.67L297.22,67.6L302.09,64.15L306.97,85.58L311.84,73.56L316.71,112.32L321.58,115.77L326.46,116.7L331.33,96.02L336.2,84L341.07,105.43L345.95,80.55L350.82,83.07L355.69,61.64L360.56,77.1L365.44,80.55L370.31,79.53L375.18,89.03L380.05,92.48L384.93,92.48L389.8,92.48L394.67,105.43L399.54,89.96L404.42,89.96L409.29,96.02L414.16,98.44L419.03,94.99L423.91,88.01L428.78,88.01L433.65,80.55L438.52,89.96L443.4,86.51L448.27,96.02L453.14,94.99L458.01,91.92L462.89,89.96L467.76,93.5L472.63,92.48L477.5,104.31L482.38,100.86L487.25,104.31L492.12,98.44L496.99,102.35L501.87,90.43L506.74,90.43L511.61,99.93L516.48,109.34L521.36,109.34L526.23,96.39L531.1,96.39L535.97,99.93L540.85,135.62L545.72,135.62L550.59,129.66L555.46,139.16L560.34,129.66L565.21,127.14L570.08,132.17L574.95,128.72L579.83,133.1L584.7,136.64L589.57,142.61L599.32,142.61L604.19,146.05L609.06,146.05L613.93,141.12L618.81,137.58L623.68,112.32L628.55,118.29L633.42,118.29L638.3,132.17L643.17,128.72L648.04,111.3L652.91,114.75L657.79,89.96L662.66,96.95L667.53,93.5L672.4,100.4L677.28,89.96L682.15,89.96L687.02,93.5L691.89,87.54L696.77,90.99L701.64,127.7L711.38,127.7L716.26,89.96L721.13,93.5L726,89.96" style="vector-effect: none; fill: none; stroke: rgb(255, 192, 203); stroke-opacity: 1; stroke-width: 2px; opacity: 1;"/></g><g class="points"/><g class="text"/></g><g class="trace scatter tracebd7768" style="stroke-miterlimit: 2; opacity: 1;"><g class="fills"/><g class="errorbars"/><g class="lines"><path class="js-line" d="M0,308.74L4.87,234.57L9.74,229.17L14.62,230.94L19.49,217.71L24.36,222.18L29.23,193.11L34.11,176.62L38.98,72.07L43.85,106.55L48.72,156.3L53.6,171.77L58.47,211.74L63.34,206.62L68.21,226.28L73.09,209.32L77.96,130.31L82.83,46.54L87.7,57.07L92.58,59.68L97.45,95.09L102.32,76.08L107.19,85.02L112.07,94.53L116.94,117.91L121.81,91.17L126.68,92.38L131.56,127.33L136.43,57.72L141.3,140.93L146.17,148.01L151.05,156.02L155.92,95.65L160.79,136.55L165.66,37.13L170.54,43.47L175.41,70.21L180.28,53.25L185.15,28.28L190.03,29.58L194.9,44.68L199.77,187.89L204.64,195.25L209.52,161.06L214.39,44.77L219.26,53.44L224.13,96.67L229.01,84.56L233.88,86.7L238.75,82.32L243.62,32.84L248.5,40.58L253.37,41.6L263.11,41.6L267.99,43.84L272.86,41.7L277.73,37.32L282.6,38.25L287.48,31.73L292.35,33.78L297.22,38.16L302.09,39.37L306.97,37.04L311.84,36.11L316.71,92.29L326.46,109.06L331.33,32.47L336.2,30.24L341.07,35.83L345.95,40.49L350.82,38.16L355.69,39.27L360.56,39.27L365.44,33.78L370.31,32.84L375.18,34.06L380.05,38.16L384.93,38.16L389.8,34.8L394.67,40.3L399.54,41.51L404.42,44.68L409.29,33.78L414.16,38.06L419.03,34.89L423.91,36.01L428.78,36.11L433.65,39.37L438.52,36.01L443.4,38.25L448.27,42.63L453.14,39.46L458.01,51.2L462.89,39.18L467.76,41.23L472.63,33.87L477.5,63.69L482.38,60.42L487.25,58.19L492.12,34.89L496.99,48.68L501.87,48.59L506.74,47.38L511.61,54.09L516.48,51.85L521.36,53.9L526.23,51.76L531.1,51.76L535.97,52.88L540.85,99L545.72,105.71L550.59,100.12L555.46,102.35L565.21,104.5L570.08,80.09L574.95,82.32L579.83,109.16L584.7,102.45L589.57,102.45L599.32,116.89L604.19,106.83L609.06,107.94L613.93,111.39L618.81,110.27L623.68,86.7L628.55,76.82L633.42,77.94L638.3,81.2L643.17,74.59L648.04,66.95L652.91,64.71L657.79,42.44L662.66,40.11L667.53,42.44L672.4,42.54L677.28,32.66L682.15,32.66L687.02,37.04L691.89,35.92L696.77,39.18L701.64,76.82L706.51,73.47L711.38,69.09L716.26,37.04L721.13,30.33L726,28.28" style="vector-effect: none; fill: none; stroke: rgb(165, 42, 42); stroke-opacity: 1; stroke-width: 2px; opacity: 1;"/></g><g class="points"/><g class="text"/></g><g class="trace scatter trace05fdc5" style="stroke-miterlimit: 2; opacity: 1;"><g class="fills"/><g class="errorbars"/><g class="lines"><path class="js-line" d="M0,376.2L4.87,299.24L9.74,299.24L24.36,299.24L29.23,264.57L34.11,273.05L38.98,124.53L43.85,187.14L48.72,208.76L53.6,243.52L58.47,290.38L63.34,281.63L68.21,303.43L73.09,286.56L77.96,238.58L82.83,136.18L87.7,117.91L92.58,171.68L97.45,207.08L107.19,130.4L112.07,150.81L116.94,162.36L121.81,141.49L126.68,150.81L131.56,157.79L136.43,135.15L141.3,175.22L146.17,192.46L151.05,214.35L155.92,166.65L160.79,175.03L165.66,125L170.54,139.35L175.41,154.53L180.28,140L185.15,107.39L190.03,114L194.9,117.26L199.77,228.61L204.64,242.49L209.52,218.82L214.39,109.16L219.26,117.91L224.13,171.12L229.01,163.01L233.88,158.73L238.75,150.34L243.62,97.88L248.5,93.6L253.37,97.79L258.24,93.6L263.11,89.4L267.99,108.41L272.86,108.41L277.73,102.63L282.6,97.79L287.48,94.34L292.35,80.27L297.22,83.81L302.09,79.62L306.97,98.53L311.84,88.66L316.71,145.31L326.46,153.51L331.33,111.02L336.2,101.24L341.07,120.06L345.95,97.04L350.82,97.79L355.69,78.97L360.56,92.85L365.44,97.04L370.31,93.6L375.18,102.63L380.05,106.83L389.8,106.83L394.67,120.06L399.54,106.08L404.42,106.08L409.29,111.02L414.16,111.77L419.03,107.57L423.91,99.28L428.78,99.28L433.65,97.04L438.52,106.08L443.4,101.89L448.27,111.02L453.14,107.57L458.01,113.16L462.89,106.08L467.76,110.27L472.63,106.83L477.5,133.01L482.38,128.82L487.25,133.01L492.12,111.77L496.99,125.65L501.87,116.24L506.74,116.24L511.61,125.09L516.48,134.03L521.36,134.03L526.23,120.9L531.1,120.9L535.97,125.09L540.85,171.12L545.72,171.12L550.59,166.65L555.46,175.4L560.34,166.65L565.21,166.37L570.08,166.93L574.95,162.64L579.83,170.93L589.57,179.69L594.44,179.69L599.32,179.69L604.19,183.98L613.93,183.7L618.81,179.32L623.68,145.31L628.55,149.87L633.42,149.87L638.3,166.93L643.17,162.64L648.04,141.49L652.91,145.68L657.79,106.08L662.66,114.37L667.53,110.27L672.4,118.57L677.28,106.08L682.15,106.08L687.02,110.27L691.89,105.43L696.77,109.53L701.64,158.73L706.51,158.73L711.38,158.73L716.26,106.08L721.13,110.27L726,106.08" style="vector-effect: none; fill: none; stroke: rgb(128, 128, 128); stroke-opacity: 1; stroke-width: 2px; opacity: 1;"/></g><g class="points"/><g class="text"/></g></g></g><g class="overplot"/><path class="xlines-above crisp" d="M0,0" style="fill: none;"/><path class="ylines-above crisp" d="M0,0" style="fill: none;"/><g class="overlines-above"/><g class="xaxislayer-above"><g class="xtick"><text text-anchor="middle" x="0" y="509" transform="translate(235.57999999999998,0)" style="font-family: 'Open Sans', verdana, arial, sans-serif; font-size: 12px; fill: rgb(42, 63, 95); fill-opacity: 1; white-space: pre; opacity: 1;">20</text></g><g class="xtick"><text text-anchor="middle" x="0" y="509" style="font-family: 'Open Sans', verdana, arial, sans-serif; font-size: 12px; fill: rgb(42, 63, 95); fill-opacity: 1; white-space: pre; opacity: 1;" transform="translate(333.03,0)">40</text></g><g class="xtick"><text text-anchor="middle" x="0" y="509" style="font-family: 'Open Sans', verdana, arial, sans-serif; font-size: 12px; fill: rgb(42, 63, 95); fill-opacity: 1; white-space: pre; opacity: 1;" transform="translate(430.48,0)">60</text></g><g class="xtick"><text text-anchor="middle" x="0" y="509" style="font-family: 'Open Sans', verdana, arial, sans-serif; font-size: 12px; fill: rgb(42, 63, 95); fill-opacity: 1; white-space: pre; opacity: 1;" transform="translate(527.9300000000001,0)">80</text></g><g class="xtick"><text text-anchor="middle" x="0" y="509" style="font-family: 'Open Sans', verdana, arial, sans-serif; font-size: 12px; fill: rgb(42, 63, 95); fill-opacity: 1; white-space: pre; opacity: 1;" transform="translate(625.38,0)">100</text></g><g class="xtick"><text text-anchor="middle" x="0" y="509" style="font-family: 'Open Sans', verdana, arial, sans-serif; font-size: 12px; fill: rgb(42, 63, 95); fill-opacity: 1; white-space: pre; opacity: 1;" transform="translate(722.83,0)">120</text></g><g class="xtick"><text text-anchor="middle" x="0" y="509" style="font-family: 'Open Sans', verdana, arial, sans-serif; font-size: 12px; fill: rgb(42, 63, 95); fill-opacity: 1; white-space: pre; opacity: 1;" transform="translate(820.28,0)">140</text></g></g><g class="yaxislayer-above"><g class="ytick"><text text-anchor="end" x="142" y="4.199999999999999" transform="translate(0,450.58)" style="font-family: 'Open Sans', verdana, arial, sans-serif; font-size: 12px; fill: rgb(42, 63, 95); fill-opacity: 1; white-space: pre; opacity: 1;">50</text></g><g class="ytick"><text text-anchor="end" x="142" y="4.199999999999999" style="font-family: 'Open Sans', verdana, arial, sans-serif; font-size: 12px; fill: rgb(42, 63, 95); fill-opacity: 1; white-space: pre; opacity: 1;" transform="translate(0,403.99)">55</text></g><g class="ytick"><text text-anchor="end" x="142" y="4.199999999999999" style="font-family: 'Open Sans', verdana, arial, sans-serif; font-size: 12px; fill: rgb(42, 63, 95); fill-opacity: 1; white-space: pre; opacity: 1;" transform="translate(0,357.4)">60</text></g><g class="ytick"><text text-anchor="end" x="142" y="4.199999999999999" style="font-family: 'Open Sans', verdana, arial, sans-serif; font-size: 12px; fill: rgb(42, 63, 95); fill-opacity: 1; white-space: pre; opacity: 1;" transform="translate(0,310.81)">65</text></g><g class="ytick"><text text-anchor="end" x="142" y="4.199999999999999" style="font-family: 'Open Sans', verdana, arial, sans-serif; font-size: 12px; fill: rgb(42, 63, 95); fill-opacity: 1; white-space: pre; opacity: 1;" transform="translate(0,264.22)">70</text></g><g class="ytick"><text text-anchor="end" x="142" y="4.199999999999999" style="font-family: 'Open Sans', verdana, arial, sans-serif; font-size: 12px; fill: rgb(42, 63, 95); fill-opacity: 1; white-space: pre; opacity: 1;" transform="translate(0,217.64)">75</text></g><g class="ytick"><text text-anchor="end" x="142" y="4.199999999999999" style="font-family: 'Open Sans', verdana, arial, sans-serif; font-size: 12px; fill: rgb(42, 63, 95); fill-opacity: 1; white-space: pre; opacity: 1;" transform="translate(0,171.05)">80</text></g><g class="ytick"><text text-anchor="end" x="142" y="4.199999999999999" style="font-family: 'Open Sans', verdana, arial, sans-serif; font-size: 12px; fill: rgb(42, 63, 95); fill-opacity: 1; white-space: pre; opacity: 1;" transform="translate(0,124.46000000000001)">85</text></g></g><g class="overaxes-above"/></g></g><g class="polarlayer"/><g class="smithlayer"/><g class="ternarylayer"/><g class="geolayer"/><g class="funnelarealayer"/><g class="pielayer"/><g class="iciclelayer"/><g class="treemaplayer"/><g class="sunburstlayer"/><g class="glimages"/><defs id="topdefs-92311c"><g class="clips"/><clipPath id="legend92311c"><rect width="128" height="162" x="0" y="0"/></clipPath></defs><g class="layer-above"><g class="imagelayer"/><g class="shapelayer"/></g><g class="infolayer"><g class="legend" pointer-events="all" transform="translate(883.52,100)"><rect class="bg" shape-rendering="crispEdges" width="128" height="162" x="0" y="0" style="stroke: rgb(68, 68, 68); stroke-opacity: 1; fill: rgb(255, 255, 255); fill-opacity: 1; stroke-width: 0px;"/><g class="scrollbox" transform="" clip-path="url(#legend92311c)"><g class="groups"><g class="traces" transform="translate(0,14.5)" style="opacity: 1;"><text class="legendtext" text-anchor="start" x="40" y="4.680000000000001" style="font-family: 'Open Sans', verdana, arial, sans-serif; font-size: 12px; fill: rgb(42, 63, 95); fill-opacity: 1; white-space: pre;">Train Accuracy</text><g class="layers" style="opacity: 1;"><g class="legendfill"/><g class="legendlines"><path class="js-line" d="M5,0h30" style="fill: none; stroke: rgb(255, 0, 0); stroke-opacity: 1; stroke-width: 2px;"/></g><g class="legendsymbols"><g class="legendpoints"/></g></g><rect class="legendtoggle" x="0" y="-9.5" width="122.71875" height="19" style="fill: rgb(0, 0, 0); fill-opacity: 0;"/></g><g class="traces" transform="translate(0,33.5)" style="opacity: 1;"><text class="legendtext" text-anchor="start" x="40" y="4.680000000000001" style="font-family: 'Open Sans', verdana, arial, sans-serif; font-size: 12px; fill: rgb(42, 63, 95); fill-opacity: 1; white-space: pre;">Test Accuracy</text><g class="layers" style="opacity: 1;"><g class="legendfill"/><g class="legendlines"><path class="js-line" d="M5,0h30" style="fill: none; stroke: rgb(0, 0, 255); stroke-opacity: 1; stroke-width: 2px;"/></g><g class="legendsymbols"><g class="legendpoints"/></g></g><rect class="legendtoggle" x="0" y="-9.5" width="122.71875" height="19" style="fill: rgb(0, 0, 0); fill-opacity: 0;"/></g><g class="traces" transform="translate(0,52.5)" style="opacity: 1;"><text class="legendtext" text-anchor="start" x="40" y="4.680000000000001" style="font-family: 'Open Sans', verdana, arial, sans-serif; font-size: 12px; fill: rgb(42, 63, 95); fill-opacity: 1; white-space: pre;">Train Precision</text><g class="layers" style="opacity: 1;"><g class="legendfill"/><g class="legendlines"><path class="js-line" d="M5,0h30" style="fill: none; stroke: rgb(0, 128, 0); stroke-opacity: 1; stroke-width: 2px;"/></g><g class="legendsymbols"><g class="legendpoints"/></g></g><rect class="legendtoggle" x="0" y="-9.5" width="122.71875" height="19" style="fill: rgb(0, 0, 0); fill-opacity: 0;"/></g><g class="traces" transform="translate(0,71.5)" style="opacity: 1;"><text class="legendtext" text-anchor="start" x="40" y="4.680000000000001" style="font-family: 'Open Sans', verdana, arial, sans-serif; font-size: 12px; fill: rgb(42, 63, 95); fill-opacity: 1; white-space: pre;">Test Precision</text><g class="layers" style="opacity: 1;"><g class="legendfill"/><g class="legendlines"><path class="js-line" d="M5,0h30" style="fill: none; stroke: rgb(255, 165, 0); stroke-opacity: 1; stroke-width: 2px;"/></g><g class="legendsymbols"><g class="legendpoints"/></g></g><rect class="legendtoggle" x="0" y="-9.5" width="122.71875" height="19" style="fill: rgb(0, 0, 0); fill-opacity: 0;"/></g><g class="traces" transform="translate(0,90.5)" style="opacity: 1;"><text class="legendtext" text-anchor="start" x="40" y="4.680000000000001" style="font-family: 'Open Sans', verdana, arial, sans-serif; font-size: 12px; fill: rgb(42, 63, 95); fill-opacity: 1; white-space: pre;">Train Recall</text><g class="layers" style="opacity: 1;"><g class="legendfill"/><g class="legendlines"><path class="js-line" d="M5,0h30" style="fill: none; stroke: rgb(128, 0, 128); stroke-opacity: 1; stroke-width: 2px;"/></g><g class="legendsymbols"><g class="legendpoints"/></g></g><rect class="legendtoggle" x="0" y="-9.5" width="122.71875" height="19" style="fill: rgb(0, 0, 0); fill-opacity: 0;"/></g><g class="traces" transform="translate(0,109.5)" style="opacity: 1;"><text class="legendtext" text-anchor="start" x="40" y="4.680000000000001" style="font-family: 'Open Sans', verdana, arial, sans-serif; font-size: 12px; fill: rgb(42, 63, 95); fill-opacity: 1; white-space: pre;">Test Recall</text><g class="layers" style="opacity: 1;"><g class="legendfill"/><g class="legendlines"><path class="js-line" d="M5,0h30" style="fill: none; stroke: rgb(255, 192, 203); stroke-opacity: 1; stroke-width: 2px;"/></g><g class="legendsymbols"><g class="legendpoints"/></g></g><rect class="legendtoggle" x="0" y="-9.5" width="122.71875" height="19" style="fill: rgb(0, 0, 0); fill-opacity: 0;"/></g><g class="traces" transform="translate(0,128.5)" style="opacity: 1;"><text class="legendtext" text-anchor="start" x="40" y="4.680000000000001" style="font-family: 'Open Sans', verdana, arial, sans-serif; font-size: 12px; fill: rgb(42, 63, 95); fill-opacity: 1; white-space: pre;">Train F1</text><g class="layers" style="opacity: 1;"><g class="legendfill"/><g class="legendlines"><path class="js-line" d="M5,0h30" style="fill: none; stroke: rgb(165, 42, 42); stroke-opacity: 1; stroke-width: 2px;"/></g><g class="legendsymbols"><g class="legendpoints"/></g></g><rect class="legendtoggle" x="0" y="-9.5" width="122.71875" height="19" style="fill: rgb(0, 0, 0); fill-opacity: 0;"/></g><g class="traces" transform="translate(0,147.5)" style="opacity: 1;"><text class="legendtext" text-anchor="start" x="40" y="4.680000000000001" style="font-family: 'Open Sans', verdana, arial, sans-serif; font-size: 12px; fill: rgb(42, 63, 95); fill-opacity: 1; white-space: pre;">Test F1</text><g class="layers" style="opacity: 1;"><g class="legendfill"/><g class="legendlines"><path class="js-line" d="M5,0h30" style="fill: none; stroke: rgb(128, 128, 128); stroke-opacity: 1; stroke-width: 2px;"/></g><g class="legendsymbols"><g class="legendpoints"/></g></g><rect class="legendtoggle" x="0" y="-9.5" width="122.71875" height="19" style="fill: rgb(0, 0, 0); fill-opacity: 0;"/></g></g></g><rect class="scrollbar" rx="20" ry="3" width="0" height="0" x="0" y="0" style="fill: rgb(128, 139, 164); fill-opacity: 1;"/></g><g class="g-gtitle"><text class="gtitle" x="51.2" y="50" text-anchor="start" dy="0em" style="font-family: 'Open Sans', verdana, arial, sans-serif; font-size: 17px; fill: rgb(42, 63, 95); opacity: 1; font-weight: normal; white-space: pre;">Training Metrics - logs/FakeNewsNet-politifact_max-vocab=15000_pre=v2_text_T=250_s=10.log</text></g><g class="g-xtitle"><text class="xtitle" x="506" y="537.3" text-anchor="middle" style="font-family: 'Open Sans', verdana, arial, sans-serif; font-size: 14px; fill: rgb(42, 63, 95); opacity: 1; font-weight: normal; white-space: pre;">Epoch</text></g><g class="g-ytitle"><text class="ytitle" transform="rotate(-90,103.965625,298)" x="103.965625" y="298" text-anchor="middle" style="font-family: 'Open Sans', verdana, arial, sans-serif; font-size: 14px; fill: rgb(42, 63, 95); opacity: 1; font-weight: normal; white-space: pre;">Metric Score</text></g></g><g class="menulayer"><g class="updatemenu-container" style="cursor: pointer;"><g class="updatemenu-header-group" transform="translate(12,60)"><g class="updatemenu-header" transform="translate(1,1)" style="pointer-events: all;"><rect class="updatemenu-item-rect" rx="2" ry="2" shape-rendering="crispEdges" x="0" y="0" width="167" height="33" style="stroke: rgb(190, 200, 217); stroke-opacity: 1; fill: rgb(255, 255, 255); fill-opacity: 1; stroke-width: 1px;"/><text class="updatemenu-item-text" text-anchor="start" data-notex="1" x="12" y="19.5" style="font-family: 'Open Sans', verdana, arial, sans-serif; font-size: 12px; fill: rgb(42, 63, 95); fill-opacity: 1; white-space: pre;">All</text></g><text class="updatemenu-header-arrow" text-anchor="end" x="163" y="19.5" style="font-family: 'Open Sans', verdana, arial, sans-serif; font-size: 12px; fill: rgb(42, 63, 95); fill-opacity: 1;">▼</text></g><g class="updatemenu-dropdown-button-group" updatemenu-active-index="-1" style="pointer-events: all;"><rect class="scrollbox-bg" opacity="0" x="0" y="0" width="0" height="0" style="pointer-events: all;"/></g></g></g></svg>