<svg class="main-svg" xmlns="http://www.w3.org/2000/svg" xmlns:xlink="http://www.w3.org/1999/xlink" width="1024" height="576" style="" viewBox="0 0 1024 576"><rect x="0" y="0" width="1024" height="576" style="fill: rgb(255, 255, 255); fill-opacity: 1;"/><defs id="defs-51efd0"><g class="clips"><clipPath id="clip51efd0xyplot" class="plotclip"><rect width="728" height="396"/></clipPath><clipPath class="axesclip" id="clip51efd0x"><rect x="141" y="0" width="728" height="576"/></clipPath><clipPath class="axesclip" id="clip51efd0y"><rect x="0" y="100" width="1024" height="396"/></clipPath><clipPath class="axesclip" id="clip51efd0xy"><rect x="141" y="100" width="728" height="396"/></clipPath></g><g class="gradients"/><g class="patterns"/></defs><g class="bglayer"><rect class="bg" x="141" y="100" width="728" height="396" style="fill: rgb(229, 236, 246); fill-opacity: 1; stroke-width: 0;"/></g><g class="layer-below"><g class="imagelayer"/><g class="shapelayer"/></g><g class="cartesianlayer"><g class="subplot xy"><g class="layer-subplot"><g class="shapelayer"/><g class="imagelayer"/></g><g class="minor-gridlayer"><g class="x"/><g class="y"/></g><g class="gridlayer"><g class="x"><path class="xgrid crisp" transform="translate(233.82999999999998,0)" d="M0,100v396" style="stroke: rgb(255, 255, 255); stroke-opacity: 1; stroke-width: 1px;"/><path class="xgrid crisp" transform="translate(331.55,0)" d="M0,100v396" style="stroke: rgb(255, 255, 255); stroke-opacity: 1; stroke-width: 1px;"/><path class="xgrid crisp" transform="translate(429.27,0)" d="M0,100v396" style="stroke: rgb(255, 255, 255); stroke-opacity: 1; stroke-width: 1px;"/><path class="xgrid crisp" transform="translate(526.99,0)" d="M0,100v396" style="stroke: rgb(255, 255, 255); stroke-opacity: 1; stroke-width: 1px;"/><path class="xgrid crisp" transform="translate(624.7,0)" d="M0,100v396" style="stroke: rgb(255, 255, 255); stroke-opacity: 1; stroke-width: 1px;"/><path class="xgrid crisp" transform="translate(722.42,0)" d="M0,100v396" style="stroke: rgb(255, 255, 255); stroke-opacity: 1; stroke-width: 1px;"/><path class="xgrid crisp" transform="translate(820.14,0)" d="M0,100v396" style="stroke: rgb(255, 255, 255); stroke-opacity: 1; stroke-width: 1px;"/></g><g class="y"><path class="ygrid crisp" transform="translate(0,472.13)" d="M141,0h728" style="stroke: rgb(255, 255, 255); stroke-opacity: 1; stroke-width: 1px;"/><path class="ygrid crisp" transform="translate(0,431.4)" d="M141,0h728" style="stroke: rgb(255, 255, 255); stroke-opacity: 1; stroke-width: 1px;"/><path class="ygrid crisp" transform="translate(0,390.66)" d="M141,0h728" style="stroke: rgb(255, 255, 255); stroke-opacity: 1; stroke-width: 1px;"/><path class="ygrid crisp" transform="translate(0,349.93)" d="M141,0h728" style="stroke: rgb(255, 255, 255); stroke-opacity: 1; stroke-width: 1px;"/><path class="ygrid crisp" transform="translate(0,309.2)" d="M141,0h728" style="stroke: rgb(255, 255, 255); stroke-opacity: 1; stroke-width: 1px;"/><path class="ygrid crisp" transform="translate(0,268.47)" d="M141,0h728" style="stroke: rgb(255, 255, 255); stroke-opacity: 1; stroke-width: 1px;"/><path class="ygrid crisp" transform="translate(0,227.74)" d="M141,0h728" style="stroke: rgb(255, 255, 255); stroke-opacity: 1; stroke-width: 1px;"/><path class="ygrid crisp" transform="translate(0,187.01)" d="M141,0h728" style="stroke: rgb(255, 255, 255); stroke-opacity: 1; stroke-width: 1px;"/><path class="ygrid crisp" transform="translate(0,146.28)" d="M141,0h728" style="stroke: rgb(255, 255, 255); stroke-opacity: 1; stroke-width: 1px;"/><path class="ygrid crisp" transform="translate(0,105.54)" d="M141,0h728" style="stroke: rgb(255, 255, 255); stroke-opacity: 1; stroke-width: 1px;"/></g></g><g class="zerolinelayer"/><path class="xlines-below"/><path class="ylines-below"/><g class="overlines-below"/><g class="xaxislayer-below"/><g class="yaxislayer-below"/><g class="overaxes-below"/><g class="plot" transform="translate(141,100)" clip-path="url(#clip51efd0xyplot)"><g class="scatterlayer mlayer"><g class="trace scatter traceb5e82a" style="stroke-miterlimit: 2; opacity: 1;"><g class="fills"/><g class="errorbars"/><g class="lines"><path class="js-line" d="M0,226.92L4.89,193.11L9.77,135.07L14.66,123.05L19.54,156.86L24.43,99.02L29.32,82.12L34.2,50.76L39.09,72.34L43.97,91.69L48.86,50.76L53.74,79.68L58.63,74.79L63.52,96.58L68.4,82.12L78.17,87.01L83.06,142.4L87.95,130.39L92.83,188.22L97.72,132.83L102.6,178.65L107.49,154.42L112.38,164.19L117.26,132.83L122.15,173.76L127.03,214.7L131.92,193.11L136.81,229.36L141.69,229.36L146.58,207.57L151.46,219.59L156.35,207.57L161.23,236.49L166.12,262.97L171.01,250.95L175.89,185.78L180.78,188.22L185.66,212.46L190.55,212.46L195.44,176.21L200.32,185.78L205.21,168.88L210.09,123.05L214.98,113.48L219.87,118.37L224.75,103.71L229.64,139.96L234.52,164.19L239.41,202.68L244.3,151.97L249.18,151.97L254.07,147.29L258.95,132.83L263.84,144.85L268.72,151.97L273.61,96.58L278.5,123.05L283.38,111.04L288.27,118.37L293.15,99.02L298.04,164.19L302.93,185.78L307.81,164.19L312.7,132.83L317.58,135.07L322.47,96.58L327.36,198L337.13,234.05L342.01,210.02L346.9,214.7L351.79,231.6L356.67,178.65L361.56,176.21L366.44,181.1L371.33,188.22L376.21,106.15L381.1,94.13L385.99,94.13L390.87,60.33L395.76,132.83L400.64,144.85L405.53,67.66L410.42,89.25L415.3,144.85L420.19,125.5L425.07,123.05L429.96,171.32L434.85,168.88L439.73,171.32L444.62,183.34L449.5,173.76L459.28,123.05L464.16,115.93L469.05,103.71L473.93,106.15L478.82,113.48L483.7,178.65L488.59,125.5L493.48,125.5L498.36,115.93L503.25,87.01L508.13,79.68L513.02,67.66L517.91,60.33L522.79,84.56L527.68,74.79L532.56,48.31L537.45,40.98L542.34,87.01L547.22,84.56L552.11,130.39L556.99,127.94L561.88,106.15L566.77,127.94L571.65,115.93L576.54,123.05L581.42,120.61L586.31,135.07L591.19,161.75L596.08,161.75L600.97,210.02L605.85,166.64L610.74,178.65L615.62,185.78L620.51,154.42L625.4,127.94L630.28,171.32L635.17,171.32L640.05,207.57L644.94,202.68L649.83,183.34L654.71,188.22L659.6,202.68L664.48,168.88L669.37,166.64L674.26,193.11L679.14,188.22L684.03,188.22L688.91,217.14L693.8,198L698.68,185.78L703.57,188.22L708.46,87.01L713.34,72.34L718.23,70.1L723.11,79.68L728,185.78" style="vector-effect: none; fill: none; stroke: rgb(255, 0, 0); stroke-opacity: 1; stroke-width: 2px; opacity: 1;"/></g><g class="points"/><g class="text"/></g><g class="trace scatter trace644079" style="stroke-miterlimit: 2; opacity: 1;"><g class="fills"/><g class="errorbars"/><g class="lines"><path class="js-line" d="M0,126.11L4.89,241.38L9.77,164.6L14.66,155.03L19.54,174.17L24.43,116.54L29.32,116.54L34.2,135.88L39.09,145.46L43.97,155.03L48.86,126.11L53.74,126.11L58.63,135.88L63.52,145.46L68.4,135.88L73.29,155.03L78.17,155.03L83.06,222.24L87.95,203.09L92.83,270.3L97.72,241.38L102.6,279.87L107.49,270.3L112.38,260.73L117.26,193.52L122.15,308.79L127.03,318.36L131.92,318.36L136.81,347.08L141.69,299.22L146.58,337.51L151.46,337.51L156.35,318.36L161.23,308.79L166.12,356.85L171.01,299.22L175.89,260.73L180.78,270.3L185.66,299.22L190.55,299.22L195.44,289.44L200.32,289.44L205.21,260.73L210.09,183.74L214.98,183.74L219.87,203.09L224.75,183.74L234.52,299.22L239.41,251.15L249.18,289.44L254.07,289.44L258.95,270.3L263.84,279.87L268.72,308.79L273.61,251.15L278.5,241.38L283.38,212.66L288.27,193.52L293.15,231.81L298.04,318.36L302.93,347.08L307.81,279.87L312.7,260.73L317.58,251.15L322.47,193.52L327.36,337.51L332.24,356.85L337.13,376L342.01,356.85L346.9,366.42L351.79,366.42L356.67,308.79L361.56,308.79L366.44,327.93L371.33,356.85L376.21,212.66L381.1,193.52L385.99,212.66L390.87,145.46L395.76,279.87L400.64,289.44L405.53,164.6L410.42,155.03L415.3,260.73L420.19,299.22L425.07,222.24L429.96,279.87L434.85,270.3L439.73,241.38L444.62,289.44L449.5,318.36L454.39,251.15L459.28,260.73L464.16,241.38L469.05,241.38L473.93,231.81L478.82,231.81L483.7,308.79L488.59,231.81L493.48,183.74L498.36,212.66L508.13,135.88L513.02,155.03L517.91,145.46L522.79,126.11L527.68,145.46L532.56,116.54L537.45,106.97L542.34,193.52L547.22,193.52L552.11,251.15L556.99,260.73L561.88,203.09L566.77,241.38L571.65,241.38L576.54,231.81L581.42,279.87L586.31,241.38L591.19,260.73L596.08,270.3L600.97,327.93L605.85,308.79L610.74,299.22L615.62,299.22L620.51,279.87L625.4,212.66L630.28,241.38L635.17,241.38L640.05,299.22L644.94,299.22L649.83,337.51L654.71,308.79L659.6,337.51L664.48,299.22L669.37,308.79L674.26,318.36L679.14,318.36L688.91,318.36L693.8,299.22L698.68,289.44L703.57,289.44L708.46,155.03L713.34,155.03L718.23,164.6L723.11,155.03L728,299.22" style="vector-effect: none; fill: none; stroke: rgb(0, 0, 255); stroke-opacity: 1; stroke-width: 2px; opacity: 1;"/></g><g class="points"/><g class="text"/></g><g class="trace scatter traceae2eae" style="stroke-miterlimit: 2; opacity: 1;"><g class="fills"/><g class="errorbars"/><g class="lines"><path class="js-line" d="M0,186.6L4.89,198.81L9.77,145.66L14.66,131.4L19.54,166.03L24.43,108.8L29.32,91.08L34.2,58.09L39.09,80.69L43.97,88.84L48.86,56.87L53.74,84.36L58.63,73.16L63.52,103.91L68.4,89.45L73.29,88.64L78.17,89.45L83.06,129.77L87.95,114.7L92.83,149.73L97.72,117.76L102.6,151.16L107.49,133.85L112.38,140.77L117.26,118.98L122.15,138.33L127.03,163.38L131.92,149.33L136.81,170.51L141.69,182.11L146.58,162.56L151.46,173.97L156.35,162.56L161.23,164.19L166.12,181.91L171.01,194.13L175.89,149.73L180.78,151.36L185.66,156.05L190.55,163.79L195.44,133.03L200.32,139.14L205.21,126.52L210.09,104.11L214.98,91.69L219.87,93.73L224.75,85.99L229.64,107.17L234.52,133.24L239.41,157.47L244.3,121.83L249.18,116.94L254.07,120L258.95,105.34L263.84,106.97L268.72,108.19L273.61,73.97L278.5,92.51L283.38,87.21L288.27,92.3L293.15,75.6L298.04,119.59L302.93,127.33L307.81,123.26L312.7,103.91L317.58,108.59L322.47,78.05L327.36,140.98L332.24,148.31L337.13,153.4L342.01,137.31L346.9,137.72L351.79,147.09L356.67,118.78L361.56,115.11L366.44,120.2L371.33,122.24L376.21,77.64L381.1,64.6L385.99,66.23L390.87,49.74L395.76,93.93L400.64,103.5L405.53,55.44L410.42,72.75L415.3,108.8L420.19,87.41L425.07,92.51L429.96,124.28L434.85,124.68L439.73,126.11L444.62,123.87L449.5,113.69L454.39,105.13L459.28,94.13L464.16,89.04L469.05,79.06L473.93,80.69L478.82,85.78L483.7,118.78L488.59,89.04L493.48,92.51L498.36,84.36L503.25,67.05L508.13,68.07L513.02,58.7L517.91,54.22L522.79,78.25L527.68,66.64L532.56,49.33L537.45,39.35L542.34,64.2L547.22,62.57L552.11,86.8L556.99,88.84L561.88,83.75L566.77,94.13L571.65,82.73L576.54,87.41L581.42,87.62L586.31,95.36L591.19,116.33L596.08,114.3L600.97,139.55L605.85,113.48L610.74,122.85L615.62,123.05L625.4,100.45L630.28,129.77L635.17,124.28L640.05,140.37L644.94,139.75L649.83,129.98L654.71,136.9L659.6,147.9L664.48,128.15L669.37,124.89L674.26,141.99L679.14,136.9L684.03,136.9L688.91,148.31L693.8,140.98L698.68,129.37L703.57,133.03L708.46,69.7L713.34,60.12L718.23,55.85L723.11,64.4L728,127.33" style="vector-effect: none; fill: none; stroke: rgb(0, 128, 0); stroke-opacity: 1; stroke-width: 2px; opacity: 1;"/></g><g class="points"/><g class="text"/></g><g class="trace scatter trace9073d7" style="stroke-miterlimit: 2; opacity: 1;"><g class="fills"/><g class="errorbars"/><g class="lines"><path class="js-line" d="M0,110.83L4.89,262.15L9.77,193.32L14.66,181.1L19.54,198.41L24.43,144.44L29.32,145.05L34.2,157.06L39.09,172.14L43.97,173.56L48.86,148.51L53.74,145.86L58.63,154.21L63.52,170.3L68.4,154.21L73.29,170.1L78.17,166.43L83.06,205.13L87.95,172.34L92.83,203.5L97.72,217.96L102.6,242.6L107.49,228.96L112.38,223.05L117.26,185.37L122.15,251.97L127.03,257.67L131.92,248.71L136.81,254.41L141.69,228.75L146.58,268.67L151.46,268.67L156.35,257.67L161.23,243.21L166.12,248.71L175.89,206.96L180.78,212.66L185.66,228.75L190.55,219.18L195.44,214.09L200.32,214.09L205.21,206.96L210.09,166.64L214.98,166.64L219.87,172.34L224.75,172.75L229.64,211.03L234.52,254.41L239.41,192.91L244.3,236.49L249.18,256.04L254.07,240.56L258.95,228.96L263.84,226.72L268.72,251.97L273.61,217.14L278.5,211.03L283.38,192.3L288.27,179.47L298.04,239.14L302.93,243.82L307.81,217.96L312.7,206.96L317.58,201.46L322.47,172.95L327.36,259.3L332.24,248.71L337.13,246.27L342.01,237.1L346.9,253.39L351.79,241.79L356.67,213.89L361.56,213.89L366.44,223.25L371.33,248.71L376.21,178.25L381.1,158.9L385.99,170.51L390.87,140.16L395.76,217.96L400.64,223.46L405.53,159.31L410.42,140.98L415.3,215.31L420.19,228.75L425.07,184.15L429.96,217.96L434.85,212.66L439.73,187.41L444.62,223.46L449.5,248.71L454.39,192.91L459.28,215.31L464.16,187.41L469.05,211.03L473.93,204.92L478.82,204.92L483.7,224.27L488.59,181.91L493.48,152.79L498.36,170.51L503.25,153.81L508.13,133.24L513.02,152.38L517.91,150.34L522.79,139.35L527.68,154.62L532.56,139.96L537.45,129.16L542.34,172.95L547.22,172.95L552.11,183.74L556.99,198.2L561.88,172.34L566.77,203.7L571.65,203.7L576.54,197.59L581.42,242.6L586.31,211.03L591.19,198.2L596.08,203.5L600.97,234.25L605.85,234.05L610.74,228.75L615.62,228.75L620.51,226.72L625.4,185.58L630.28,203.7L635.17,187.41L640.05,219.18L644.94,219.18L649.83,239.14L654.71,213.89L659.6,239.14L664.48,228.75L674.26,239.14L679.14,239.14L684.03,239.14L688.91,229.16L693.8,228.75L698.68,204.11L703.57,204.11L708.46,152.38L713.34,134.46L718.23,153.6L723.11,152.38L728,228.75" style="vector-effect: none; fill: none; stroke: rgb(255, 165, 0); stroke-opacity: 1; stroke-width: 2px; opacity: 1;"/></g><g class="points"/><g class="text"/></g><g class="trace scatter trace862799" style="stroke-miterlimit: 2; opacity: 1;"><g class="fills"/><g class="errorbars"/><g class="lines"><path class="js-line" d="M0,285.17L4.89,184.15L9.77,138.33L14.66,117.56L19.54,153.81L24.43,99.23L29.32,89.45L34.2,41.59L39.09,66.03L43.97,70.51L48.86,39.35L53.74,66.64L58.63,54.42L63.52,88.43L68.4,73.57L73.29,70.71L78.17,71.33L83.06,115.11L87.95,100.65L92.83,147.29L97.72,103.5L102.6,143.01L107.49,122.24L112.38,130.59L117.26,104.32L122.15,134.05L127.03,168.67L131.92,149.94L136.81,180.28L141.69,185.17L146.58,163.99L151.46,176.01L156.35,163.99L161.23,182.52L166.12,206.15L171.01,202.89L175.89,146.07L180.78,148.1L185.66,164.19L190.55,167.25L195.44,133.03L200.32,141.18L205.21,125.91L210.09,91.28L214.98,79.68L219.87,83.14L224.75,72.14L239.41,159.1L244.3,114.5L249.18,112.26L254.07,111.24L258.95,96.38L263.84,103.5L268.72,108.19L273.61,61.96L278.5,84.77L283.38,76.01L288.27,82.32L293.15,63.99L298.04,120.2L302.93,136.5L307.81,121.83L312.7,95.56L317.58,99.23L322.47,64.4L327.36,149.33L332.24,164.4L337.13,177.23L342.01,155.64L346.9,159.1L351.79,173.56L356.67,128.76L361.56,125.7L371.33,136.09L376.21,68.68L381.1,55.85L385.99,56.66L390.87,32.43L395.76,90.67L400.64,101.87L405.53,38.74L410.42,58.09L415.3,104.32L420.19,83.75L425.07,84.77L429.96,126.31L434.85,125.09L439.73,127.13L444.62,133.64L449.5,123.67L454.39,104.11L459.28,85.58L464.16,79.47L469.05,68.27L473.93,70.31L478.82,76.62L483.7,128.76L488.59,84.56L493.48,86.19L498.36,77.03L503.25,53.61L508.13,51.37L513.02,40.98L517.91,35.69L522.79,60.33L527.68,48.92L532.56,29.98L537.45,19.8L542.34,52.18L547.22,49.94L552.11,86.4L556.99,85.78L561.88,71.94L566.77,88.23L571.65,76.21L576.54,82.53L581.42,81.1L586.31,92.91L591.19,117.35L596.08,116.54L600.97,156.45L605.85,118.98L610.74,130.18L615.62,134.87L620.51,111.04L625.4,91.49L630.28,128.76L635.17,126.31L640.05,155.23L644.94,151.77L649.83,136.09L654.71,141.79L659.6,155.03L664.48,126.72L669.37,123.87L674.26,146.68L679.14,141.79L684.03,141.79L688.91,164.4L693.8,149.33L698.68,137.31L703.57,140.16L708.46,55.24L713.34,43.63L718.23,39.96L723.11,49.13L728,136.5" style="vector-effect: none; fill: none; stroke: rgb(128, 0, 128); stroke-opacity: 1; stroke-width: 2px; opacity: 1;"/></g><g class="points"/><g class="text"/></g><g class="trace scatter tracea9f103" style="stroke-miterlimit: 2; opacity: 1;"><g class="fills"/><g class="errorbars"/><g class="lines"><path class="js-line" d="M0,208.18L4.89,228.34L9.77,167.66L14.66,149.12L19.54,164.4L24.43,118.78L29.32,124.07L34.2,117.56L39.09,141.59L43.97,132.83L48.86,110.02L53.74,104.52L58.63,112.06L63.52,136.09L68.4,112.06L73.29,127.33L78.17,121.83L83.06,164.19L87.95,132.63L92.83,180.28L97.72,179.26L102.6,209.61L107.49,196.57L112.38,189.04L117.26,141.38L122.15,227.12L127.03,234.66L131.92,229.16L136.81,246.47L141.69,208.59L146.58,249.93L151.46,249.93L156.35,234.66L161.23,221.62L166.12,248.71L171.01,208.59L175.89,178.04L180.78,185.78L185.66,208.59L190.55,203.09L195.44,195.56L200.32,195.56L205.21,178.04L210.09,122.85L214.98,122.85L219.87,132.63L224.75,128.35L234.52,224.88L239.41,165.01L244.3,202.07L249.18,222.85L254.07,211.85L258.95,196.57L263.84,198.81L268.72,227.12L273.61,181.5L278.5,173.76L283.38,150.96L288.27,135.88L293.15,171.73L298.04,223.66L302.93,240.97L307.81,193.32L312.7,178.04L317.58,170.51L322.47,130.39L327.36,244.43L332.24,248.71L337.13,258.49L342.01,243.21L346.9,256.25L351.79,250.75L356.67,205.13L361.56,205.13L366.44,220.4L371.33,248.71L376.21,140.16L381.1,119.39L385.99,134.66L390.87,92.3L395.76,193.32L400.64,200.85L405.53,113.07L410.42,94.54L415.3,183.54L420.19,208.59L425.07,147.7L429.96,193.32L434.85,185.78L439.73,157.47L444.62,200.85L449.5,229.16L454.39,165.01L459.28,183.54L464.16,157.47L469.05,173.76L473.93,166.23L478.82,166.23L483.7,210.63L488.59,149.94L493.48,111.85L498.36,134.66L503.25,109.82L508.13,84.77L513.02,105.54L517.91,103.3L522.79,93.52L527.68,108.8L532.56,102.28L537.45,89.25L542.34,130.39L547.22,130.39L552.11,159.71L556.99,172.75L561.88,132.63L566.77,168.47L571.65,168.47L576.54,160.73L581.42,209.61L586.31,173.76L591.19,172.75L596.08,180.28L600.97,225.9L605.85,216.13L610.74,208.59L615.62,208.59L620.51,198.81L625.4,145.66L630.28,168.47L635.17,157.47L640.05,203.09L644.94,203.09L649.83,233.44L654.71,205.13L659.6,233.44L664.48,208.59L669.37,216.13L674.26,223.66L679.14,223.66L684.03,223.66L688.91,218.37L693.8,208.59L698.68,190.06L703.57,190.06L708.46,105.54L713.34,89.04L718.23,107.58L723.11,105.54L728,208.59" style="vector-effect: none; fill: none; stroke: rgb(255, 192, 203); stroke-opacity: 1; stroke-width: 2px; opacity: 1;"/></g><g class="points"/><g class="text"/></g><g class="trace scatter tracef87928" style="stroke-miterlimit: 2; opacity: 1;"><g class="fills"/><g class="errorbars"/><g class="lines"><path class="js-line" d="M0,272.13L4.89,197.59L9.77,142.81L14.66,128.15L19.54,162.77L24.43,105.34L29.32,90.27L34.2,54.42L39.09,76.82L43.97,93.52L48.86,53.81L53.74,82.73L58.63,76.62L63.52,100.65L68.4,85.99L78.17,89.45L83.06,143.42L87.95,131L92.83,188.22L97.72,133.44L102.6,178.86L107.49,155.03L112.38,164.4L117.26,133.64L122.15,173.76L127.03,214.9L131.92,193.11L136.81,229.57L141.69,229.36L146.58,207.57L151.46,219.59L156.35,207.57L161.23,237.1L166.12,264.19L171.01,251.15L175.89,185.78L180.78,188.22L185.66,212.46L190.55,212.46L195.44,176.21L200.32,185.78L205.21,168.88L210.09,123.67L214.98,113.89L219.87,118.57L224.75,104.32L229.64,140.16L234.52,164.19L239.41,202.68L244.3,152.18L249.18,152.18L254.07,147.49L258.95,133.03L263.84,144.85L268.72,151.97L273.61,96.99L278.5,123.26L283.38,111.45L288.27,118.57L293.15,99.23L298.04,164.19L302.93,185.98L307.81,164.19L312.7,132.83L317.58,135.48L322.47,96.99L327.36,198L337.13,235.07L342.01,210.63L346.9,215.51L351.79,232.83L356.67,178.86L361.56,176.41L366.44,181.3L371.33,188.63L376.21,106.35L381.1,94.34L385.99,94.34L390.87,61.35L395.76,132.83L400.64,144.85L405.53,68.47L410.42,89.86L415.3,144.85L420.19,125.5L425.07,123.26L429.96,171.32L434.85,168.88L439.73,171.32L444.62,183.54L449.5,173.97L459.28,123.26L464.16,116.13L469.05,104.11L473.93,106.56L478.82,113.69L483.7,178.86L488.59,125.5L493.48,125.7L498.36,115.93L503.25,87.41L508.13,80.49L513.02,68.68L517.91,61.55L522.79,85.78L527.68,76.01L532.56,50.35L537.45,42.61L542.34,87.21L547.22,84.77L552.11,130.39L556.99,127.94L561.88,106.56L566.77,127.94L571.65,115.93L576.54,123.26L581.42,120.81L586.31,135.27L591.19,161.75L596.08,161.75L600.97,210.42L605.85,166.64L610.74,178.65L615.62,185.98L620.51,154.42L625.4,128.15L630.28,171.32L635.17,171.32L640.05,207.98L644.94,203.09L649.83,183.54L654.71,188.22L659.6,202.89L664.48,168.88L669.37,166.64L674.26,193.11L679.14,188.22L684.03,188.22L688.91,217.75L693.8,198L698.68,185.98L703.57,188.43L708.46,87.41L713.34,73.16L718.23,70.71L723.11,80.29L728,185.98" style="vector-effect: none; fill: none; stroke: rgb(165, 42, 42); stroke-opacity: 1; stroke-width: 2px; opacity: 1;"/></g><g class="points"/><g class="text"/></g><g class="trace scatter trace5c45e5" style="stroke-miterlimit: 2; opacity: 1;"><g class="fills"/><g class="errorbars"/><g class="lines"><path class="js-line" d="M0,180.08L4.89,257.47L9.77,184.56L14.66,171.93L19.54,190.26L24.43,134.87L29.32,136.7L39.09,162.77L43.97,167.45L48.86,139.75L53.74,138.33L58.63,147.49L63.52,161.14L68.4,147.49L73.29,166.03L78.17,164.8L83.06,227.33L87.95,206.35L92.83,271.32L97.72,245.86L102.6,282.93L112.38,263.58L117.26,199.63L122.15,310.22L127.03,319.58L131.92,319.18L136.81,347.28L141.69,299.83L146.58,338.32L151.46,338.32L156.35,319.58L161.23,309.81L166.12,356.85L171.01,299.83L175.89,262.36L180.78,271.72L185.66,299.83L190.55,299.62L195.44,290.05L200.32,290.05L205.21,262.36L210.09,188.43L214.98,188.43L219.87,206.35L224.75,189.24L234.52,301.46L239.41,252.38L249.18,292.9L254.07,291.48L258.95,272.95L263.84,281.5L268.72,310.22L273.61,254.21L278.5,245.04L283.38,217.14L288.27,198.61L293.15,236.49L298.04,318.77L302.93,347.08L307.81,281.09L312.7,262.36L317.58,252.99L322.47,197.8L327.36,337.91L332.24,356.85L337.13,376.2L342.01,356.85L346.9,366.42L351.79,366.42L356.67,308.79L361.56,308.79L366.44,327.93L371.33,356.85L376.21,215.51L381.1,196.17L385.99,214.9L390.87,151.36L395.76,281.09L400.64,290.46L405.53,170.71L410.42,159.71L415.3,262.97L420.19,299.83L425.07,224.88L429.96,281.09L434.85,271.72L439.73,243.01L444.62,290.46L449.5,319.18L454.39,252.38L459.28,262.97L464.16,243.01L469.05,245.04L473.93,235.68L478.82,235.68L483.7,308.99L488.59,233.64L493.48,187L498.36,214.9L508.13,141.99L513.02,161.55L517.91,153.2L522.79,135.88L527.68,154.42L532.56,130.39L537.45,119.8L542.34,197.8L547.22,197.8L552.11,251.97L556.99,261.74L561.88,206.35L566.77,244.23L571.65,244.23L576.54,234.86L581.42,282.93L586.31,245.04L591.19,261.74L596.08,271.32L600.97,328.14L605.85,309.4L610.74,299.83L615.62,299.83L620.51,281.5L625.4,216.33L630.28,244.23L635.17,243.01L640.05,299.62L644.94,299.62L649.83,337.51L654.71,308.79L659.6,337.51L664.48,299.83L669.37,309.4L674.26,318.77L679.14,318.77L688.91,318.57L693.8,299.83L698.68,289.85L703.57,289.85L708.46,161.55L713.34,158.9L718.23,169.9L723.11,161.55L728,299.83" style="vector-effect: none; fill: none; stroke: rgb(128, 128, 128); stroke-opacity: 1; stroke-width: 2px; opacity: 1;"/></g><g class="points"/><g class="text"/></g></g></g><g class="overplot"/><path class="xlines-above crisp" d="M0,0" style="fill: none;"/><path class="ylines-above crisp" d="M0,0" style="fill: none;"/><g class="overlines-above"/><g class="xaxislayer-above"><g class="xtick"><text text-anchor="middle" x="0" y="509" transform="translate(233.82999999999998,0)" style="font-family: 'Open Sans', verdana, arial, sans-serif; font-size: 12px; fill: rgb(42, 63, 95); fill-opacity: 1; white-space: pre; opacity: 1;">20</text></g><g class="xtick"><text text-anchor="middle" x="0" y="509" style="font-family: 'Open Sans', verdana, arial, sans-serif; font-size: 12px; fill: rgb(42, 63, 95); fill-opacity: 1; white-space: pre; opacity: 1;" transform="translate(331.55,0)">40</text></g><g class="xtick"><text text-anchor="middle" x="0" y="509" style="font-family: 'Open Sans', verdana, arial, sans-serif; font-size: 12px; fill: rgb(42, 63, 95); fill-opacity: 1; white-space: pre; opacity: 1;" transform="translate(429.27,0)">60</text></g><g class="xtick"><text text-anchor="middle" x="0" y="509" style="font-family: 'Open Sans', verdana, arial, sans-serif; font-size: 12px; fill: rgb(42, 63, 95); fill-opacity: 1; white-space: pre; opacity: 1;" transform="translate(526.99,0)">80</text></g><g class="xtick"><text text-anchor="middle" x="0" y="509" style="font-family: 'Open Sans', verdana, arial, sans-serif; font-size: 12px; fill: rgb(42, 63, 95); fill-opacity: 1; white-space: pre; opacity: 1;" transform="translate(624.7,0)">100</text></g><g class="xtick"><text text-anchor="middle" x="0" y="509" style="font-family: 'Open Sans', verdana, arial, sans-serif; font-size: 12px; fill: rgb(42, 63, 95); fill-opacity: 1; white-space: pre; opacity: 1;" transform="translate(722.42,0)">120</text></g><g class="xtick"><text text-anchor="middle" x="0" y="509" style="font-family: 'Open Sans', verdana, arial, sans-serif; font-size: 12px; fill: rgb(42, 63, 95); fill-opacity: 1; white-space: pre; opacity: 1;" transform="translate(820.14,0)">140</text></g></g><g class="yaxislayer-above"><g class="ytick"><text text-anchor="end" x="140" y="4.199999999999999" transform="translate(0,472.13)" style="font-family: 'Open Sans', verdana, arial, sans-serif; font-size: 12px; fill: rgb(42, 63, 95); fill-opacity: 1; white-space: pre; opacity: 1;">70</text></g><g class="ytick"><text text-anchor="end" x="140" y="4.199999999999999" style="font-family: 'Open Sans', verdana, arial, sans-serif; font-size: 12px; fill: rgb(42, 63, 95); fill-opacity: 1; white-space: pre; opacity: 1;" transform="translate(0,431.4)">72</text></g><g class="ytick"><text text-anchor="end" x="140" y="4.199999999999999" style="font-family: 'Open Sans', verdana, arial, sans-serif; font-size: 12px; fill: rgb(42, 63, 95); fill-opacity: 1; white-space: pre; opacity: 1;" transform="translate(0,390.66)">74</text></g><g class="ytick"><text text-anchor="end" x="140" y="4.199999999999999" style="font-family: 'Open Sans', verdana, arial, sans-serif; font-size: 12px; fill: rgb(42, 63, 95); fill-opacity: 1; white-space: pre; opacity: 1;" transform="translate(0,349.93)">76</text></g><g class="ytick"><text text-anchor="end" x="140" y="4.199999999999999" style="font-family: 'Open Sans', verdana, arial, sans-serif; font-size: 12px; fill: rgb(42, 63, 95); fill-opacity: 1; white-space: pre; opacity: 1;" transform="translate(0,309.2)">78</text></g><g class="ytick"><text text-anchor="end" x="140" y="4.199999999999999" style="font-family: 'Open Sans', verdana, arial, sans-serif; font-size: 12px; fill: rgb(42, 63, 95); fill-opacity: 1; white-space: pre; opacity: 1;" transform="translate(0,268.47)">80</text></g><g class="ytick"><text text-anchor="end" x="140" y="4.199999999999999" style="font-family: 'Open Sans', verdana, arial, sans-serif; font-size: 12px; fill: rgb(42, 63, 95); fill-opacity: 1; white-space: pre; opacity: 1;" transform="translate(0,227.74)">82</text></g><g class="ytick"><text text-anchor="end" x="140" y="4.199999999999999" style="font-family: 'Open Sans', verdana, arial, sans-serif; font-size: 12px; fill: rgb(42, 63, 95); fill-opacity: 1; white-space: pre; opacity: 1;" transform="translate(0,187.01)">84</text></g><g class="ytick"><text text-anchor="end" x="140" y="4.199999999999999" style="font-family: 'Open Sans', verdana, arial, sans-serif; font-size: 12px; fill: rgb(42, 63, 95); fill-opacity: 1; white-space: pre; opacity: 1;" transform="translate(0,146.28)">86</text></g><g class="ytick"><text text-anchor="end" x="140" y="4.199999999999999" style="font-family: 'Open Sans', verdana, arial, sans-serif; font-size: 12px; fill: rgb(42, 63, 95); fill-opacity: 1; white-space: pre; opacity: 1;" transform="translate(0,105.54)">88</text></g></g><g class="overaxes-above"/></g></g><g class="polarlayer"/><g class="smithlayer"/><g class="ternarylayer"/><g class="geolayer"/><g class="funnelarealayer"/><g class="pielayer"/><g class="iciclelayer"/><g class="treemaplayer"/><g class="sunburstlayer"/><g class="glimages"/><defs id="topdefs-51efd0"><g class="clips"/><clipPath id="legend51efd0"><rect width="128" height="162" x="0" y="0"/></clipPath></defs><g class="layer-above"><g class="imagelayer"/><g class="shapelayer"/></g><g class="infolayer"><g class="legend" pointer-events="all" transform="translate(883.5600000000001,100)"><rect class="bg" shape-rendering="crispEdges" width="128" height="162" x="0" y="0" style="stroke: rgb(68, 68, 68); stroke-opacity: 1; fill: rgb(255, 255, 255); fill-opacity: 1; stroke-width: 0px;"/><g class="scrollbox" transform="" clip-path="url(#legend51efd0)"><g class="groups"><g class="traces" transform="translate(0,14.5)" style="opacity: 1;"><text class="legendtext" text-anchor="start" x="40" y="4.680000000000001" style="font-family: 'Open Sans', verdana, arial, sans-serif; font-size: 12px; fill: rgb(42, 63, 95); fill-opacity: 1; white-space: pre;">Train Accuracy</text><g class="layers" style="opacity: 1;"><g class="legendfill"/><g class="legendlines"><path class="js-line" d="M5,0h30" style="fill: none; stroke: rgb(255, 0, 0); stroke-opacity: 1; stroke-width: 2px;"/></g><g class="legendsymbols"><g class="legendpoints"/></g></g><rect class="legendtoggle" x="0" y="-9.5" width="122.71875" height="19" style="fill: rgb(0, 0, 0); fill-opacity: 0;"/></g><g class="traces" transform="translate(0,33.5)" style="opacity: 1;"><text class="legendtext" text-anchor="start" x="40" y="4.680000000000001" style="font-family: 'Open Sans', verdana, arial, sans-serif; font-size: 12px; fill: rgb(42, 63, 95); fill-opacity: 1; white-space: pre;">Test Accuracy</text><g class="layers" style="opacity: 1;"><g class="legendfill"/><g class="legendlines"><path class="js-line" d="M5,0h30" style="fill: none; stroke: rgb(0, 0, 255); stroke-opacity: 1; stroke-width: 2px;"/></g><g class="legendsymbols"><g class="legendpoints"/></g></g><rect class="legendtoggle" x="0" y="-9.5" width="122.71875" height="19" style="fill: rgb(0, 0, 0); fill-opacity: 0;"/></g><g class="traces" transform="translate(0,52.5)" style="opacity: 1;"><text class="legendtext" text-anchor="start" x="40" y="4.680000000000001" style="font-family: 'Open Sans', verdana, arial, sans-serif; font-size: 12px; fill: rgb(42, 63, 95); fill-opacity: 1; white-space: pre;">Train Precision</text><g class="layers" style="opacity: 1;"><g class="legendfill"/><g class="legendlines"><path class="js-line" d="M5,0h30" style="fill: none; stroke: rgb(0, 128, 0); stroke-opacity: 1; stroke-width: 2px;"/></g><g class="legendsymbols"><g class="legendpoints"/></g></g><rect class="legendtoggle" x="0" y="-9.5" width="122.71875" height="19" style="fill: rgb(0, 0, 0); fill-opacity: 0;"/></g><g class="traces" transform="translate(0,71.5)" style="opacity: 1;"><text class="legendtext" text-anchor="start" x="40" y="4.680000000000001" style="font-family: 'Open Sans', verdana, arial, sans-serif; font-size: 12px; fill: rgb(42, 63, 95); fill-opacity: 1; white-space: pre;">Test Precision</text><g class="layers" style="opacity: 1;"><g class="legendfill"/><g class="legendlines"><path class="js-line" d="M5,0h30" style="fill: none; stroke: rgb(255, 165, 0); stroke-opacity: 1; stroke-width: 2px;"/></g><g class="legendsymbols"><g class="legendpoints"/></g></g><rect class="legendtoggle" x="0" y="-9.5" width="122.71875" height="19" style="fill: rgb(0, 0, 0); fill-opacity: 0;"/></g><g class="traces" transform="translate(0,90.5)" style="opacity: 1;"><text class="legendtext" text-anchor="start" x="40" y="4.680000000000001" style="font-family: 'Open Sans', verdana, arial, sans-serif; font-size: 12px; fill: rgb(42, 63, 95); fill-opacity: 1; white-space: pre;">Train Recall</text><g class="layers" style="opacity: 1;"><g class="legendfill"/><g class="legendlines"><path class="js-line" d="M5,0h30" style="fill: none; stroke: rgb(128, 0, 128); stroke-opacity: 1; stroke-width: 2px;"/></g><g class="legendsymbols"><g class="legendpoints"/></g></g><rect class="legendtoggle" x="0" y="-9.5" width="122.71875" height="19" style="fill: rgb(0, 0, 0); fill-opacity: 0;"/></g><g class="traces" transform="translate(0,109.5)" style="opacity: 1;"><text class="legendtext" text-anchor="start" x="40" y="4.680000000000001" style="font-family: 'Open Sans', verdana, arial, sans-serif; font-size: 12px; fill: rgb(42, 63, 95); fill-opacity: 1; white-space: pre;">Test Recall</text><g class="layers" style="opacity: 1;"><g class="legendfill"/><g class="legendlines"><path class="js-line" d="M5,0h30" style="fill: none; stroke: rgb(255, 192, 203); stroke-opacity: 1; stroke-width: 2px;"/></g><g class="legendsymbols"><g class="legendpoints"/></g></g><rect class="legendtoggle" x="0" y="-9.5" width="122.71875" height="19" style="fill: rgb(0, 0, 0); fill-opacity: 0;"/></g><g class="traces" transform="translate(0,128.5)" style="opacity: 1;"><text class="legendtext" text-anchor="start" x="40" y="4.680000000000001" style="font-family: 'Open Sans', verdana, arial, sans-serif; font-size: 12px; fill: rgb(42, 63, 95); fill-opacity: 1; white-space: pre;">Train F1</text><g class="layers" style="opacity: 1;"><g class="legendfill"/><g class="legendlines"><path class="js-line" d="M5,0h30" style="fill: none; stroke: rgb(165, 42, 42); stroke-opacity: 1; stroke-width: 2px;"/></g><g class="legendsymbols"><g class="legendpoints"/></g></g><rect class="legendtoggle" x="0" y="-9.5" width="122.71875" height="19" style="fill: rgb(0, 0, 0); fill-opacity: 0;"/></g><g class="traces" transform="translate(0,147.5)" style="opacity: 1;"><text class="legendtext" text-anchor="start" x="40" y="4.680000000000001" style="font-family: 'Open Sans', verdana, arial, sans-serif; font-size: 12px; fill: rgb(42, 63, 95); fill-opacity: 1; white-space: pre;">Test F1</text><g class="layers" style="opacity: 1;"><g class="legendfill"/><g class="legendlines"><path class="js-line" d="M5,0h30" style="fill: none; stroke: rgb(128, 128, 128); stroke-opacity: 1; stroke-width: 2px;"/></g><g class="legendsymbols"><g class="legendpoints"/></g></g><rect class="legendtoggle" x="0" y="-9.5" width="122.71875" height="19" style="fill: rgb(0, 0, 0); fill-opacity: 0;"/></g></g></g><rect class="scrollbar" rx="20" ry="3" width="0" height="0" x="0" y="0" style="fill: rgb(128, 139, 164); fill-opacity: 1;"/></g><g class="g-gtitle"><text class="gtitle" x="51.2" y="50" text-anchor="start" dy="0em" style="font-family: 'Open Sans', verdana, arial, sans-serif; font-size: 17px; fill: rgb(42, 63, 95); opacity: 1; font-weight: normal; white-space: pre;">Training Metrics - logs/FakeNewsNet-politifact_max-vocab=15000_pre=v2_text_domain_T=50_s=10.log</text></g><g class="g-xtitle"><text class="xtitle" x="505" y="537.3" text-anchor="middle" style="font-family: 'Open Sans', verdana, arial, sans-serif; font-size: 14px; fill: rgb(42, 63, 95); opacity: 1; font-weight: normal; white-space: pre;">Epoch</text></g><g class="g-ytitle"><text class="ytitle" transform="rotate(-90,101.965625,298)" x="101.965625" y="298" text-anchor="middle" style="font-family: 'Open Sans', verdana, arial, sans-serif; font-size: 14px; fill: rgb(42, 63, 95); opacity: 1; font-weight: normal; white-space: pre;">Metric Score</text></g></g><g class="menulayer"><g class="updatemenu-container" style="cursor: pointer;"><g class="updatemenu-header-group" transform="translate(12,60)"><g class="updatemenu-header" transform="translate(1,1)" style="pointer-events: all;"><rect class="updatemenu-item-rect" rx="2" ry="2" shape-rendering="crispEdges" x="0" y="0" width="165" height="33" style="stroke: rgb(190, 200, 217); stroke-opacity: 1; fill: rgb(255, 255, 255); fill-opacity: 1; stroke-width: 1px;"/><text class="updatemenu-item-text" text-anchor="start" data-notex="1" x="12" y="19.5" style="font-family: 'Open Sans', verdana, arial, sans-serif; font-size: 12px; fill: rgb(42, 63, 95); fill-opacity: 1; white-space: pre;">All</text></g><text class="updatemenu-header-arrow" text-anchor="end" x="161" y="19.5" style="font-family: 'Open Sans', verdana, arial, sans-serif; font-size: 12px; fill: rgb(42, 63, 95); fill-opacity: 1;">▼</text></g><g class="updatemenu-dropdown-button-group" updatemenu-active-index="-1" style="pointer-events: all;"><rect class="scrollbox-bg" opacity="0" x="0" y="0" width="0" height="0" style="pointer-events: all;"/></g></g></g></svg>