<svg class="main-svg" xmlns="http://www.w3.org/2000/svg" xmlns:xlink="http://www.w3.org/1999/xlink" width="1024" height="576" style="" viewBox="0 0 1024 576"><rect x="0" y="0" width="1024" height="576" style="fill: rgb(255, 255, 255); fill-opacity: 1;"/><defs id="defs-2624a0"><g class="clips"><clipPath id="clip2624a0xyplot" class="plotclip"><rect width="726" height="396"/></clipPath><clipPath class="axesclip" id="clip2624a0x"><rect x="143" y="0" width="726" height="576"/></clipPath><clipPath class="axesclip" id="clip2624a0y"><rect x="0" y="100" width="1024" height="396"/></clipPath><clipPath class="axesclip" id="clip2624a0xy"><rect x="143" y="100" width="726" height="396"/></clipPath></g><g class="gradients"/><g class="patterns"/></defs><g class="bglayer"><rect class="bg" x="143" y="100" width="726" height="396" style="fill: rgb(229, 236, 246); fill-opacity: 1; stroke-width: 0;"/></g><g class="layer-below"><g class="imagelayer"/><g class="shapelayer"/></g><g class="cartesianlayer"><g class="subplot xy"><g class="layer-subplot"><g class="shapelayer"/><g class="imagelayer"/></g><g class="minor-gridlayer"><g class="x"/><g class="y"/></g><g class="gridlayer"><g class="x"><path class="xgrid crisp" transform="translate(235.57999999999998,0)" d="M0,100v396" style="stroke: rgb(255, 255, 255); stroke-opacity: 1; stroke-width: 1px;"/><path class="xgrid crisp" transform="translate(333.03,0)" d="M0,100v396" style="stroke: rgb(255, 255, 255); stroke-opacity: 1; stroke-width: 1px;"/><path class="xgrid crisp" transform="translate(430.48,0)" d="M0,100v396" style="stroke: rgb(255, 255, 255); stroke-opacity: 1; stroke-width: 1px;"/><path class="xgrid crisp" transform="translate(527.9300000000001,0)" d="M0,100v396" style="stroke: rgb(255, 255, 255); stroke-opacity: 1; stroke-width: 1px;"/><path class="xgrid crisp" transform="translate(625.38,0)" d="M0,100v396" style="stroke: rgb(255, 255, 255); stroke-opacity: 1; stroke-width: 1px;"/><path class="xgrid crisp" transform="translate(722.83,0)" d="M0,100v396" style="stroke: rgb(255, 255, 255); stroke-opacity: 1; stroke-width: 1px;"/><path class="xgrid crisp" transform="translate(820.28,0)" d="M0,100v396" style="stroke: rgb(255, 255, 255); stroke-opacity: 1; stroke-width: 1px;"/></g><g class="y"><path class="ygrid crisp" transform="translate(0,450.48)" d="M143,0h726" style="stroke: rgb(255, 255, 255); stroke-opacity: 1; stroke-width: 1px;"/><path class="ygrid crisp" transform="translate(0,404.13)" d="M143,0h726" style="stroke: rgb(255, 255, 255); stroke-opacity: 1; stroke-width: 1px;"/><path class="ygrid crisp" transform="translate(0,357.79)" d="M143,0h726" style="stroke: rgb(255, 255, 255); stroke-opacity: 1; stroke-width: 1px;"/><path class="ygrid crisp" transform="translate(0,311.44)" d="M143,0h726" style="stroke: rgb(255, 255, 255); stroke-opacity: 1; stroke-width: 1px;"/><path class="ygrid crisp" transform="translate(0,265.09000000000003)" d="M143,0h726" style="stroke: rgb(255, 255, 255); stroke-opacity: 1; stroke-width: 1px;"/><path class="ygrid crisp" transform="translate(0,218.75)" d="M143,0h726" style="stroke: rgb(255, 255, 255); stroke-opacity: 1; stroke-width: 1px;"/><path class="ygrid crisp" transform="translate(0,172.4)" d="M143,0h726" style="stroke: rgb(255, 255, 255); stroke-opacity: 1; stroke-width: 1px;"/><path class="ygrid crisp" transform="translate(0,126.06)" d="M143,0h726" style="stroke: rgb(255, 255, 255); stroke-opacity: 1; stroke-width: 1px;"/></g></g><g class="zerolinelayer"/><path class="xlines-below"/><path class="ylines-below"/><g class="overlines-below"/><g class="xaxislayer-below"/><g class="yaxislayer-below"/><g class="overaxes-below"/><g class="plot" transform="translate(143,100)" clip-path="url(#clip2624a0xyplot)"><g class="scatterlayer mlayer"><g class="trace scatter trace32ea89" style="stroke-miterlimit: 2; opacity: 1;"><g class="fills"/><g class="errorbars"/><g class="lines"><path class="js-line" d="M0,258.48L4.87,284.9L9.74,220.01L14.62,167.18L19.49,202.87L34.11,114.11L38.98,152.58L43.85,101.6L48.72,102.53L53.6,106.93L58.47,109.02L63.34,88.16L68.21,94.42L73.09,80.28L77.96,105.77L82.83,115.74L87.7,62.9L92.58,99.75L97.45,71.24L102.32,72.4L107.19,64.52L112.07,61.28L116.94,72.87L121.81,42.05L126.68,57.11L131.56,48.3L136.43,58.04L141.3,57.11L146.17,50.85L151.05,74.49L155.92,66.84L160.79,83.29L165.66,79.59L170.54,33.01L175.41,82.14L180.28,96.73L185.15,86.54L190.03,94.19L194.9,70.55L199.77,59.43L204.64,30.92L209.52,39.5L214.39,44.83L224.13,99.75L229.01,77.04L233.88,74.26L238.75,77.27L243.62,42.05L248.5,45.06L253.37,39.96L258.24,41.35L263.11,45.29L267.99,19.8L272.86,36.25L277.73,28.61L282.6,21.42L287.48,47.14L292.35,98.36L297.22,83.99L302.09,66.15L306.97,90.48L311.84,108.09L316.71,103.92L326.46,119.21L331.33,109.48L341.07,83.53L345.95,94.42L350.82,73.56L355.69,100.67L360.56,88.62L365.44,67.77L370.31,107.63L375.18,102.99L380.05,112.72L384.93,103.22L389.8,133.58L394.67,104.84L399.54,102.06L404.42,130.8L409.29,131.96L414.16,116.89L419.03,119.91L423.91,112.49L428.78,115.5L433.65,123.61L438.52,116.43L443.4,110.64L448.27,102.53L453.14,79.59L458.01,74.02L462.89,72.87L467.76,102.99L472.63,105.54L477.5,67.07L482.38,78.2L487.25,77.5L492.12,70.09L496.99,66.84L501.87,74.49L506.74,71.48L511.61,101.6L516.48,109.71L521.36,96.97L526.23,99.51L531.1,121.07L535.97,85.84L540.85,58.73L545.72,73.56L550.59,82.6L555.46,84.22L560.34,88.39L565.21,110.64L570.08,108.78L574.95,112.96L579.83,67.07L584.7,70.78L589.57,90.71L594.44,49.46L599.32,49.23L604.19,40.19L609.06,76.11L613.93,91.4L618.81,92.79L623.68,79.59L628.55,70.09L633.42,99.51L638.3,106.47L643.17,70.09L648.04,54.56L652.91,52.01L657.79,68.46L662.66,67.54L667.53,83.29L672.4,83.53L677.28,52.71L682.15,56.18L687.02,89.55L691.89,60.82L696.77,55.02L701.64,53.86L706.51,30.92L716.26,55.25L721.13,56.41L726,74.26" style="vector-effect: none; fill: none; stroke: rgb(255, 0, 0); stroke-opacity: 1; stroke-width: 2px; opacity: 1;"/></g><g class="points"/><g class="text"/></g><g class="trace scatter trace64247b" style="stroke-miterlimit: 2; opacity: 1;"><g class="fills"/><g class="errorbars"/><g class="lines"><path class="js-line" d="M0,277.71L4.87,308.53L9.74,247.82L14.62,201.24L19.49,246.66L24.36,209.12L29.23,179.69L34.11,149.34L38.98,187.11L43.85,136.82L48.72,144.7L53.6,145.86L58.47,156.29L63.34,126.86L68.21,121.76L73.09,130.57L77.96,152.58L82.83,156.75L87.7,116.43L92.58,151.42L97.45,116.43L102.32,99.28L107.19,109.02L112.07,106.93L116.94,121.07L121.81,86.54L126.68,98.12L131.56,81.44L136.43,102.76L141.3,94.42L146.17,84.45L151.05,103.92L155.92,96.5L160.79,121.76L165.66,117.59L170.54,71.01L175.41,131.73L180.28,137.98L185.15,115.97L190.03,122.22L194.9,109.71L199.77,97.66L204.64,76.57L209.52,94.88L214.39,87.7L219.26,120.14L224.13,126.86L229.01,109.02L233.88,111.1L238.75,114.81L243.62,85.15L248.5,92.79L253.37,83.99L258.24,85.15L263.11,99.28L267.99,66.84L272.86,80.28L277.73,75.18L282.6,61.05L287.48,84.45L292.35,133.12L297.22,125.24L302.09,112.72L306.97,130.1L311.84,158.84L316.71,153.04L321.58,152.12L326.46,150.96L331.33,143.08L336.2,134.74L341.07,134.27L345.95,144.24L350.82,127.32L355.69,152.12L360.56,140.07L365.44,122.69L370.31,148.41L375.18,146.79L380.05,160L384.93,162.08L389.8,180.85L394.67,155.13L399.54,149.34L404.42,176.68L409.29,182.47L414.16,164.63L419.03,158.84L428.78,160.46L433.65,169.73L438.52,171.81L443.4,166.72L448.27,148.87L453.14,136.82L458.01,132.65L462.89,125.93L467.76,163.01L472.63,152.12L477.5,128.48L482.38,128.94L487.25,126.4L492.12,118.98L496.99,115.97L501.87,118.05L506.74,119.68L511.61,141.46L516.48,153.51L521.36,133.81L526.23,133.12L531.1,152.12L535.97,118.98L540.85,91.87L545.72,110.64L550.59,112.72L555.46,111.1L560.34,108.55L565.21,135.9L570.08,126.86L574.95,133.12L579.83,100.67L584.7,110.17L589.57,124.31L594.44,81.44L599.32,85.15L604.19,87.7L609.06,116.43L613.93,143.54L618.81,150.96L623.68,118.98L628.55,104.38L633.42,132.65L638.3,140.07L643.17,102.76L648.04,98.12L652.91,101.37L657.79,109.71L662.66,112.72L667.53,123.85L672.4,132.65L677.28,94.88L682.15,102.76L687.02,128.48L691.89,93.49L696.77,98.59L701.64,92.33L706.51,78.2L711.38,92.33L716.26,110.64L721.13,99.28L726,114.81" style="vector-effect: none; fill: none; stroke: rgb(0, 0, 255); stroke-opacity: 1; stroke-width: 2px; opacity: 1;"/></g><g class="points"/><g class="text"/></g><g class="trace scatter traceb62361" style="stroke-miterlimit: 2; opacity: 1;"><g class="fills"/><g class="errorbars"/><g class="lines"><path class="js-line" d="M0,310.62L4.87,314.56L9.74,284.9L14.62,266.13L19.49,279.34L24.36,268.91L29.23,254.08L34.11,236.47L38.98,257.32L43.85,234.38L48.72,236L53.6,236.24L58.47,234.61L63.34,226.73L68.21,225.34L73.09,225.58L77.96,229.98L82.83,236.7L87.7,209.35L92.58,225.34L97.45,210.28L102.32,213.53L107.19,206.81L112.07,205.18L116.94,210.51L121.81,192.67L126.68,199.62L131.56,193.83L136.43,199.85L146.17,197.3L151.05,206.57L155.92,204.02L160.79,213.53L165.66,208.43L170.54,188.5L175.41,210.51L180.28,216.54L185.15,213.99L190.03,213.99L194.9,202.87L199.77,201.94L204.64,186.88L209.52,189.19L214.39,194.29L219.26,210.51L224.13,222.1L229.01,213.29L233.88,211.21L238.75,214.45L243.62,193.13L248.5,192.21L258.24,187.57L263.11,191.98L267.99,177.61L272.86,186.88L277.73,183.4L282.6,178.77L287.48,194.06L292.35,211.9L297.22,210.98L302.09,200.55L306.97,207.96L311.84,217.23L316.71,218.16L321.58,221.4L326.46,226.73L331.33,220.01L336.2,217.47L341.07,208.89L345.95,213.76L350.82,204.72L355.69,220.48L360.56,215.15L365.44,206.11L370.31,227.2L375.18,220.71L380.05,226.27L384.93,219.09L389.8,233.22L394.67,220.94L399.54,220.71L404.42,232.06L409.29,233.22L414.16,225.58L419.03,232.3L423.91,226.97L428.78,225.81L433.65,227.2L438.52,224.65L443.4,225.11L448.27,222.56L453.14,210.51L458.01,206.57L462.89,205.42L467.76,217.7L472.63,217L477.5,201.48L487.25,212.83L492.12,208.2L496.99,205.65L501.87,209.35L506.74,207.73L511.61,217.47L516.48,221.64L521.36,224.65L526.23,221.64L531.1,226.04L535.97,212.83L540.85,203.33L545.72,207.96L550.59,211.44L555.46,210.51L560.34,213.99L565.21,219.32L570.08,220.71L574.95,226.97L579.83,206.81L584.7,211.67L589.57,219.55L594.44,196.61L599.32,194.99L604.19,191.51L609.06,209.12L613.93,216.31L618.81,216.77L623.68,213.06L628.55,205.65L633.42,219.78L638.3,223.03L643.17,205.65L648.04,199.39L652.91,195.22L657.79,206.11L662.66,204.49L667.53,211.67L672.4,210.75L677.28,196.84L682.15,196.84L687.02,214.22L691.89,203.33L696.77,200.09L701.64,196.61L706.51,183.17L711.38,191.74L716.26,195.22L721.13,199.62L726,206.57" style="vector-effect: none; fill: none; stroke: rgb(0, 128, 0); stroke-opacity: 1; stroke-width: 2px; opacity: 1;"/></g><g class="points"/><g class="text"/></g><g class="trace scatter trace9922a8" style="stroke-miterlimit: 2; opacity: 1;"><g class="fills"/><g class="errorbars"/><g class="lines"><path class="js-line" d="M0,314.33L4.87,317.57L9.74,292.08L14.62,281.42L19.49,304.6L29.23,275.63L34.11,255.01L38.98,276.09L43.85,257.55L48.72,262.42L53.6,257.55L58.47,264.97L63.34,252.22L68.21,238.32L73.09,264.97L77.96,258.25L82.83,263.81L87.7,253.15L92.58,261.03L97.45,241.57L102.32,229.98L107.19,239.25L112.07,239.71L116.94,242.49L121.81,224.42L126.68,228.82L131.56,216.54L136.43,233.69L141.3,226.04L146.17,220.25L151.05,226.97L155.92,224.65L160.79,233.22L165.66,229.98L170.54,214.68L175.41,239.02L180.28,238.55L185.15,231.6L190.03,230.91L194.9,227.2L199.77,225.34L204.64,219.32L209.52,231.14L214.39,225.11L219.26,242.03L224.13,238.32L229.01,237.86L233.88,239.48L238.75,240.17L243.62,228.82L248.5,230.91L258.24,219.09L263.11,232.06L267.99,213.53L272.86,220.48L277.73,218.62L282.6,207.73L287.48,217L292.35,236L297.22,239.71L302.09,232.53L306.97,232.06L311.84,249.91L316.71,250.37L321.58,246.2L326.46,246.43L331.33,242.26L336.2,240.64L341.07,242.49L345.95,248.52L350.82,242.03L355.69,252.92L360.56,252.22L365.44,246.2L370.31,252.92L375.18,249.68L380.05,258.25L384.93,262.65L389.8,262.65L394.67,254.08L399.54,255.01L404.42,262.19L409.29,266.36L414.16,259.64L419.03,257.09L423.91,259.18L428.78,254.54L438.52,257.09L443.4,260.57L448.27,249.21L453.14,250.14L458.01,248.29L462.89,243.88L467.76,258.71L472.63,248.98L477.5,250.37L482.38,247.82L487.25,251.99L492.12,247.59L496.99,241.33L501.87,243.42L506.74,245.74L511.61,245.27L516.48,250.83L521.36,251.07L526.23,244.81L531.1,245.27L535.97,231.6L540.85,220.94L545.72,226.97L550.59,227.43L555.46,225.58L560.34,222.1L565.21,229.28L570.08,225.58L574.95,233.92L579.83,227.89L584.7,242.03L589.57,238.78L594.44,216.77L599.32,217.47L604.19,225.11L609.06,234.38L613.93,250.37L618.81,257.79L623.68,240.87L628.55,230.21L633.42,241.1L638.3,244.58L643.17,227.66L648.04,230.91L652.91,234.15L657.79,238.78L667.53,239.25L672.4,244.35L677.28,230.44L682.15,229.52L687.02,244.81L691.89,227.2L696.77,232.76L701.64,224.42L706.51,223.26L711.38,231.6L716.26,241.57L721.13,232.76L726,237.16" style="vector-effect: none; fill: none; stroke: rgb(255, 165, 0); stroke-opacity: 1; stroke-width: 2px; opacity: 1;"/></g><g class="points"/><g class="text"/></g><g class="trace scatter trace4647a3" style="stroke-miterlimit: 2; opacity: 1;"><g class="fills"/><g class="errorbars"/><g class="lines"><path class="js-line" d="M0,213.29L4.87,216.54L9.74,180.39L14.62,163.7L19.49,175.06L24.36,166.72L29.23,152.12L34.11,134.97L38.98,154.2L43.85,137.98L48.72,140.3L53.6,138.21L58.47,134.27L63.34,132.19L68.21,125.7L73.09,135.43L77.96,127.55L82.83,134.27L87.7,117.13L92.58,122.46L97.45,112.49L102.32,117.82L107.19,110.64L112.07,109.94L116.94,112.03L121.81,101.14L126.68,102.53L131.56,98.36L136.43,102.3L141.3,101.37L146.17,102.99L155.92,103.69L160.79,110.64L165.66,103.69L170.54,101.37L175.41,106L180.28,108.32L185.15,109.25L190.03,105.08L194.9,98.82L199.77,105.31L204.64,100.21L209.52,96.5L214.39,102.3L219.26,111.56L224.13,116.89L229.01,114.35L233.88,112.26L238.75,116.2L243.62,102.06L248.5,97.66L253.37,97.43L258.24,91.64L263.11,96.97L267.99,92.1L272.86,95.11L277.73,95.34L282.6,93.03L287.48,99.75L292.35,99.28L297.22,105.54L302.09,97.2L306.97,96.5L311.84,103.69L316.71,107.39L321.58,109.71L326.46,115.5L331.33,108.09L336.2,110.41L341.07,101.6L345.95,104.38L350.82,100.44L355.69,113.19L365.44,106.93L370.31,121.76L375.18,112.49L380.05,117.59L384.93,109.71L389.8,120.6L394.67,112.03L399.54,112.72L404.42,119.68L409.29,121.3L414.16,114.35L419.03,124.77L423.91,118.98L428.78,115.27L438.52,112.96L443.4,116.66L448.27,116.2L453.14,107.39L458.01,103.45L462.89,102.3L467.76,107.16L472.63,104.61L477.5,98.59L482.38,101.83L487.25,112.96L492.12,109.48L496.99,106.7L501.87,108.32L506.74,107.39L511.61,107.39L516.48,111.1L521.36,122.92L526.23,115.74L531.1,113.65L535.97,107.86L540.85,108.55L545.72,106.24L550.59,106.93L555.46,104.61L560.34,108.09L565.21,106.24L570.08,109.71L574.95,118.75L579.83,109.02L584.7,115.74L589.57,117.36L594.44,102.53L599.32,99.51L604.19,100.91L609.06,106.93L613.93,110.87L618.81,111.1L623.68,112.03L628.55,104.38L633.42,112.49L638.3,115.04L643.17,104.61L648.04,104.38L652.91,97.89L657.79,106.7L662.66,103.92L667.53,107.16L672.4,105.31L677.28,100.67L682.15,97.43L687.02,108.32L696.77,105.08L701.64,99.05L706.51,92.33L711.38,97.66L716.26,95.34L721.13,102.76L726,103.69" style="vector-effect: none; fill: none; stroke: rgb(128, 0, 128); stroke-opacity: 1; stroke-width: 2px; opacity: 1;"/></g><g class="points"/><g class="text"/></g><g class="trace scatter trace85c56f" style="stroke-miterlimit: 2; opacity: 1;"><g class="fills"/><g class="errorbars"/><g class="lines"><path class="js-line" d="M0,217.47L4.87,220.71L9.74,188.04L14.62,179.69L19.49,206.81L29.23,175.99L34.11,152.12L38.98,174.83L43.85,161.62L48.72,166.95L53.6,157.91L58.47,166.25L63.34,157.45L68.21,135.43L73.09,177.61L77.96,156.52L82.83,164.4L87.7,164.63L92.58,161.85L97.45,143.78L102.32,132.42L107.19,143.54L112.07,145.86L116.94,143.31L121.81,130.1L126.68,131.03L131.56,118.52L136.43,137.06L141.3,127.79L146.17,123.61L151.05,124.54L155.92,124.08L160.79,126.63L165.66,122.92L170.54,122.69L175.41,132.42L180.28,129.18L185.15,126.4L190.03,122.46L194.9,121.53L199.77,124.77L204.64,127.32L209.52,137.06L214.39,130.8L219.26,142.62L224.13,132.88L229.01,141.23L233.88,142.62L238.75,142.15L243.62,139.37L248.5,137.98L253.37,132.19L258.24,120.83L263.11,136.13L267.99,123.61L272.86,126.63L277.73,127.09L282.6,116.89L287.48,117.59L297.22,136.36L302.09,129.64L306.97,120.83L311.84,140.53L316.71,143.54L321.58,136.82L326.46,137.75L331.33,133.35L336.2,133.58L341.07,137.06L345.95,143.54L350.82,139.14L355.69,147.95L360.56,151.19L365.44,148.64L370.31,149.34L375.18,144.47L380.05,153.97L384.93,160.46L389.8,155.13L394.67,148.64L399.54,152.12L404.42,155.36L409.29,160.69L414.16,154.9L419.03,152.58L423.91,155.83L428.78,147.48L433.65,147.02L438.52,148.41L443.4,155.36L448.27,143.08L453.14,149.11L458.01,147.95L462.89,143.31L467.76,153.74L472.63,141.23L477.5,153.28L482.38,148.41L487.25,156.98L492.12,153.04L496.99,143.54L506.74,149.57L511.61,138.91L516.48,143.78L521.36,152.35L526.23,141.46L531.1,135.43L535.97,124.77L540.85,120.14L545.72,120.83L550.59,120.6L555.46,118.05L560.34,113.42L565.21,114.35L570.08,111.56L574.95,122.92L579.83,127.55L584.7,147.95L589.57,134.97L594.44,119.21L599.32,118.05L604.19,130.8L609.06,131.26L613.93,147.02L618.81,156.29L623.68,141.23L628.55,129.87L633.42,135.2L638.3,138.68L643.17,125.93L648.04,134.74L652.91,139.14L657.79,142.38L662.66,140.76L667.53,136.13L672.4,141.23L677.28,135.66L682.15,129.64L687.02,143.54L691.89,130.8L696.77,137.98L701.64,126.4L706.51,133.58L716.26,146.79L721.13,137.75L726,136.82" style="vector-effect: none; fill: none; stroke: rgb(255, 192, 203); stroke-opacity: 1; stroke-width: 2px; opacity: 1;"/></g><g class="points"/><g class="text"/></g><g class="trace scatter tracea2dec4" style="stroke-miterlimit: 2; opacity: 1;"><g class="fills"/><g class="errorbars"/><g class="lines"><path class="js-line" d="M0,343.99L4.87,360.91L9.74,308.77L14.62,271.46L19.49,296.72L29.23,252.69L34.11,228.82L38.98,259.18L43.85,223.03L53.6,226.04L58.47,225.58L63.34,212.6L68.21,213.29L73.09,209.59L77.96,220.71L82.83,229.52L87.7,191.28L92.58,215.15L97.45,194.06L102.32,197.07L107.19,189.43L112.07,187.34L116.94,194.76L121.81,172.05L126.68,181.32L131.56,174.36L136.43,181.78L141.3,180.85L146.17,178.07L151.05,191.98L155.92,187.57L160.79,200.32L165.66,194.99L170.54,166.95L175.41,197.54L180.28,207.27L185.15,201.71L190.03,204.26L194.9,187.57L199.77,184.1L204.64,165.09L209.52,168.34L214.39,174.13L224.13,212.6L229.01,198.23L233.88,195.68L238.75,199.39L243.62,172.51L248.5,172.05L253.37,169.03L258.24,167.18L263.11,172.05L267.99,154.67L272.86,165.79L277.73,161.39L282.6,156.06L287.48,174.36L292.35,204.49L297.22,198.46L302.09,184.33L306.97,198.46L311.84,212.14L316.71,211.21L321.58,216.54L326.46,223.72L331.33,214.68L336.2,207.73L341.07,196.61L345.95,204.26L350.82,190.12L355.69,211.67L360.56,203.33L365.44,189.66L370.31,219.32L375.18,212.83L380.05,220.71L384.93,211.67L389.8,234.15L394.67,213.76L399.54,212.37L404.42,232.3L409.29,233.45L414.16,221.87L419.03,227.66L423.91,220.94L428.78,221.4L433.65,225.81L438.52,220.94L443.4,219.09L448.27,213.99L453.14,196.84L458.01,191.74L462.89,190.58L467.76,210.51L472.63,210.98L477.5,185.49L482.38,193.6L487.25,198L492.12,191.98L496.99,188.96L501.87,194.29L506.74,191.98L511.61,209.82L516.48,216.07L521.36,213.53L526.23,212.14L531.1,223.95L535.97,200.55L540.85,185.02L545.72,192.67L550.59,198.46L555.46,198.23L560.34,202.17L565.21,214.68L570.08,215.15L574.95,221.17L579.83,190.12L584.7,195.22L589.57,207.5L594.44,176.91L599.32,175.52L604.19,170.89L609.06,194.52L613.93,205.18L618.81,206.11L623.68,198.7L628.55,189.89L633.42,210.75L638.3,215.84L643.17,189.89L648.04,180.62L652.91,176.45L657.79,189.89L662.66,188.04L667.53,198.7L672.4,198L677.28,178.07L682.15,178.53L687.02,202.87L691.89,185.49L696.77,181.32L701.64,177.84L706.51,161.39L711.38,171.58L716.26,177.14L721.13,181.08L726,191.98" style="vector-effect: none; fill: none; stroke: rgb(165, 42, 42); stroke-opacity: 1; stroke-width: 2px; opacity: 1;"/></g><g class="points"/><g class="text"/></g><g class="trace scatter trace46c2c8" style="stroke-miterlimit: 2; opacity: 1;"><g class="fills"/><g class="errorbars"/><g class="lines"><path class="js-line" d="M0,356.27L4.87,376.2L9.74,327.77L14.62,296.95L19.49,334.03L24.36,306.22L29.23,283.04L34.11,255.7L38.98,286.75L43.85,252.69L48.72,259.41L53.6,256.16L58.47,265.67L63.34,245.27L68.21,232.76L73.09,256.4L77.96,259.41L82.83,265.2L87.7,242.72L92.58,261.03L97.45,233.22L102.32,218.39L107.19,229.05L112.07,228.82L116.94,235.77L121.81,210.28L126.68,217.23L131.56,201.94L136.43,222.56L146.17,206.11L151.05,217.7L155.92,213.29L160.79,229.05L165.66,225.11L170.54,197.77L175.41,237.16L180.28,239.48L185.15,225.58L190.03,227.66L194.9,219.78L199.77,214.22L204.64,203.33L209.52,218.16L214.39,210.98L219.26,234.84L224.13,234.61L229.01,227.89L238.75,231.6L243.62,213.53L248.5,217.23L253.37,209.59L258.24,205.18L263.11,220.01L267.99,195.91L272.86,204.95L277.73,202.17L282.6,189.43L287.48,203.33L292.35,235.77L297.22,235.08L302.09,225.11L306.97,231.6L311.84,256.63L316.71,254.31L321.58,251.07L326.46,250.83L331.33,244.35L336.2,239.48L341.07,240.64L345.95,249.21L350.82,237.63L355.69,255.47L360.56,249.91L365.44,239.02L370.31,253.85L375.18,251.07L380.05,262.65L384.93,266.36L389.8,275.4L394.67,257.55L399.54,255.7L404.42,272.85L409.29,278.41L414.16,265.67L419.03,261.26L423.91,263.12L428.78,260.34L433.65,265.67L438.52,267.52L443.4,267.06L448.27,251.76L453.14,247.13L458.01,244.35L462.89,238.55L467.76,264.27L472.63,252.92L477.5,244.35L482.38,242.49L487.25,244.81L496.99,232.76L501.87,235.31L506.74,237.63L511.61,245.74L516.48,254.77L521.36,246.66L526.23,242.03L531.1,250.6L535.97,226.73L540.85,208.89L545.72,220.01L550.59,221.17L555.46,219.32L560.34,215.84L565.21,232.53L570.08,226.04L574.95,234.38L579.83,217.23L584.7,231.6L589.57,233.92L594.44,202.4L599.32,203.79L604.19,210.98L609.06,227.89L613.93,250.14L618.81,258.25L623.68,233.69L628.55,220.25L633.42,239.02L638.3,244.58L643.17,217.7L648.04,218.86L652.91,222.56L657.79,228.82L662.66,229.75L667.53,234.15L672.4,241.57L677.28,217.47L682.15,219.32L687.02,240.17L691.89,214.45L696.77,220.71L701.64,211.9L706.51,207.04L711.38,217.93L716.26,231.37L721.13,220.71L726,229.28" style="vector-effect: none; fill: none; stroke: rgb(128, 128, 128); stroke-opacity: 1; stroke-width: 2px; opacity: 1;"/></g><g class="points"/><g class="text"/></g></g></g><g class="overplot"/><path class="xlines-above crisp" d="M0,0" style="fill: none;"/><path class="ylines-above crisp" d="M0,0" style="fill: none;"/><g class="overlines-above"/><g class="xaxislayer-above"><g class="xtick"><text text-anchor="middle" x="0" y="509" transform="translate(235.57999999999998,0)" style="font-family: 'Open Sans', verdana, arial, sans-serif; font-size: 12px; fill: rgb(42, 63, 95); fill-opacity: 1; white-space: pre; opacity: 1;">20</text></g><g class="xtick"><text text-anchor="middle" x="0" y="509" style="font-family: 'Open Sans', verdana, arial, sans-serif; font-size: 12px; fill: rgb(42, 63, 95); fill-opacity: 1; white-space: pre; opacity: 1;" transform="translate(333.03,0)">40</text></g><g class="xtick"><text text-anchor="middle" x="0" y="509" style="font-family: 'Open Sans', verdana, arial, sans-serif; font-size: 12px; fill: rgb(42, 63, 95); fill-opacity: 1; white-space: pre; opacity: 1;" transform="translate(430.48,0)">60</text></g><g class="xtick"><text text-anchor="middle" x="0" y="509" style="font-family: 'Open Sans', verdana, arial, sans-serif; font-size: 12px; fill: rgb(42, 63, 95); fill-opacity: 1; white-space: pre; opacity: 1;" transform="translate(527.9300000000001,0)">80</text></g><g class="xtick"><text text-anchor="middle" x="0" y="509" style="font-family: 'Open Sans', verdana, arial, sans-serif; font-size: 12px; fill: rgb(42, 63, 95); fill-opacity: 1; white-space: pre; opacity: 1;" transform="translate(625.38,0)">100</text></g><g class="xtick"><text text-anchor="middle" x="0" y="509" style="font-family: 'Open Sans', verdana, arial, sans-serif; font-size: 12px; fill: rgb(42, 63, 95); fill-opacity: 1; white-space: pre; opacity: 1;" transform="translate(722.83,0)">120</text></g><g class="xtick"><text text-anchor="middle" x="0" y="509" style="font-family: 'Open Sans', verdana, arial, sans-serif; font-size: 12px; fill: rgb(42, 63, 95); fill-opacity: 1; white-space: pre; opacity: 1;" transform="translate(820.28,0)">140</text></g></g><g class="yaxislayer-above"><g class="ytick"><text text-anchor="end" x="142" y="4.199999999999999" transform="translate(0,450.48)" style="font-family: 'Open Sans', verdana, arial, sans-serif; font-size: 12px; fill: rgb(42, 63, 95); fill-opacity: 1; white-space: pre; opacity: 1;">60</text></g><g class="ytick"><text text-anchor="end" x="142" y="4.199999999999999" style="font-family: 'Open Sans', verdana, arial, sans-serif; font-size: 12px; fill: rgb(42, 63, 95); fill-opacity: 1; white-space: pre; opacity: 1;" transform="translate(0,404.13)">62</text></g><g class="ytick"><text text-anchor="end" x="142" y="4.199999999999999" style="font-family: 'Open Sans', verdana, arial, sans-serif; font-size: 12px; fill: rgb(42, 63, 95); fill-opacity: 1; white-space: pre; opacity: 1;" transform="translate(0,357.79)">64</text></g><g class="ytick"><text text-anchor="end" x="142" y="4.199999999999999" style="font-family: 'Open Sans', verdana, arial, sans-serif; font-size: 12px; fill: rgb(42, 63, 95); fill-opacity: 1; white-space: pre; opacity: 1;" transform="translate(0,311.44)">66</text></g><g class="ytick"><text text-anchor="end" x="142" y="4.199999999999999" style="font-family: 'Open Sans', verdana, arial, sans-serif; font-size: 12px; fill: rgb(42, 63, 95); fill-opacity: 1; white-space: pre; opacity: 1;" transform="translate(0,265.09000000000003)">68</text></g><g class="ytick"><text text-anchor="end" x="142" y="4.199999999999999" style="font-family: 'Open Sans', verdana, arial, sans-serif; font-size: 12px; fill: rgb(42, 63, 95); fill-opacity: 1; white-space: pre; opacity: 1;" transform="translate(0,218.75)">70</text></g><g class="ytick"><text text-anchor="end" x="142" y="4.199999999999999" style="font-family: 'Open Sans', verdana, arial, sans-serif; font-size: 12px; fill: rgb(42, 63, 95); fill-opacity: 1; white-space: pre; opacity: 1;" transform="translate(0,172.4)">72</text></g><g class="ytick"><text text-anchor="end" x="142" y="4.199999999999999" style="font-family: 'Open Sans', verdana, arial, sans-serif; font-size: 12px; fill: rgb(42, 63, 95); fill-opacity: 1; white-space: pre; opacity: 1;" transform="translate(0,126.06)">74</text></g></g><g class="overaxes-above"/></g></g><g class="polarlayer"/><g class="smithlayer"/><g class="ternarylayer"/><g class="geolayer"/><g class="funnelarealayer"/><g class="pielayer"/><g class="iciclelayer"/><g class="treemaplayer"/><g class="sunburstlayer"/><g class="glimages"/><defs id="topdefs-2624a0"><g class="clips"/><clipPath id="legend2624a0"><rect width="128" height="162" x="0" y="0"/></clipPath></defs><g class="layer-above"><g class="imagelayer"/><g class="shapelayer"/></g><g class="infolayer"><g class="legend" pointer-events="all" transform="translate(883.52,100)"><rect class="bg" shape-rendering="crispEdges" width="128" height="162" x="0" y="0" style="stroke: rgb(68, 68, 68); stroke-opacity: 1; fill: rgb(255, 255, 255); fill-opacity: 1; stroke-width: 0px;"/><g class="scrollbox" transform="" clip-path="url(#legend2624a0)"><g class="groups"><g class="traces" transform="translate(0,14.5)" style="opacity: 1;"><text class="legendtext" text-anchor="start" x="40" y="4.680000000000001" style="font-family: 'Open Sans', verdana, arial, sans-serif; font-size: 12px; fill: rgb(42, 63, 95); fill-opacity: 1; white-space: pre;">Train Accuracy</text><g class="layers" style="opacity: 1;"><g class="legendfill"/><g class="legendlines"><path class="js-line" d="M5,0h30" style="fill: none; stroke: rgb(255, 0, 0); stroke-opacity: 1; stroke-width: 2px;"/></g><g class="legendsymbols"><g class="legendpoints"/></g></g><rect class="legendtoggle" x="0" y="-9.5" width="122.71875" height="19" style="fill: rgb(0, 0, 0); fill-opacity: 0;"/></g><g class="traces" transform="translate(0,33.5)" style="opacity: 1;"><text class="legendtext" text-anchor="start" x="40" y="4.680000000000001" style="font-family: 'Open Sans', verdana, arial, sans-serif; font-size: 12px; fill: rgb(42, 63, 95); fill-opacity: 1; white-space: pre;">Test Accuracy</text><g class="layers" style="opacity: 1;"><g class="legendfill"/><g class="legendlines"><path class="js-line" d="M5,0h30" style="fill: none; stroke: rgb(0, 0, 255); stroke-opacity: 1; stroke-width: 2px;"/></g><g class="legendsymbols"><g class="legendpoints"/></g></g><rect class="legendtoggle" x="0" y="-9.5" width="122.71875" height="19" style="fill: rgb(0, 0, 0); fill-opacity: 0;"/></g><g class="traces" transform="translate(0,52.5)" style="opacity: 1;"><text class="legendtext" text-anchor="start" x="40" y="4.680000000000001" style="font-family: 'Open Sans', verdana, arial, sans-serif; font-size: 12px; fill: rgb(42, 63, 95); fill-opacity: 1; white-space: pre;">Train Precision</text><g class="layers" style="opacity: 1;"><g class="legendfill"/><g class="legendlines"><path class="js-line" d="M5,0h30" style="fill: none; stroke: rgb(0, 128, 0); stroke-opacity: 1; stroke-width: 2px;"/></g><g class="legendsymbols"><g class="legendpoints"/></g></g><rect class="legendtoggle" x="0" y="-9.5" width="122.71875" height="19" style="fill: rgb(0, 0, 0); fill-opacity: 0;"/></g><g class="traces" transform="translate(0,71.5)" style="opacity: 1;"><text class="legendtext" text-anchor="start" x="40" y="4.680000000000001" style="font-family: 'Open Sans', verdana, arial, sans-serif; font-size: 12px; fill: rgb(42, 63, 95); fill-opacity: 1; white-space: pre;">Test Precision</text><g class="layers" style="opacity: 1;"><g class="legendfill"/><g class="legendlines"><path class="js-line" d="M5,0h30" style="fill: none; stroke: rgb(255, 165, 0); stroke-opacity: 1; stroke-width: 2px;"/></g><g class="legendsymbols"><g class="legendpoints"/></g></g><rect class="legendtoggle" x="0" y="-9.5" width="122.71875" height="19" style="fill: rgb(0, 0, 0); fill-opacity: 0;"/></g><g class="traces" transform="translate(0,90.5)" style="opacity: 1;"><text class="legendtext" text-anchor="start" x="40" y="4.680000000000001" style="font-family: 'Open Sans', verdana, arial, sans-serif; font-size: 12px; fill: rgb(42, 63, 95); fill-opacity: 1; white-space: pre;">Train Recall</text><g class="layers" style="opacity: 1;"><g class="legendfill"/><g class="legendlines"><path class="js-line" d="M5,0h30" style="fill: none; stroke: rgb(128, 0, 128); stroke-opacity: 1; stroke-width: 2px;"/></g><g class="legendsymbols"><g class="legendpoints"/></g></g><rect class="legendtoggle" x="0" y="-9.5" width="122.71875" height="19" style="fill: rgb(0, 0, 0); fill-opacity: 0;"/></g><g class="traces" transform="translate(0,109.5)" style="opacity: 1;"><text class="legendtext" text-anchor="start" x="40" y="4.680000000000001" style="font-family: 'Open Sans', verdana, arial, sans-serif; font-size: 12px; fill: rgb(42, 63, 95); fill-opacity: 1; white-space: pre;">Test Recall</text><g class="layers" style="opacity: 1;"><g class="legendfill"/><g class="legendlines"><path class="js-line" d="M5,0h30" style="fill: none; stroke: rgb(255, 192, 203); stroke-opacity: 1; stroke-width: 2px;"/></g><g class="legendsymbols"><g class="legendpoints"/></g></g><rect class="legendtoggle" x="0" y="-9.5" width="122.71875" height="19" style="fill: rgb(0, 0, 0); fill-opacity: 0;"/></g><g class="traces" transform="translate(0,128.5)" style="opacity: 1;"><text class="legendtext" text-anchor="start" x="40" y="4.680000000000001" style="font-family: 'Open Sans', verdana, arial, sans-serif; font-size: 12px; fill: rgb(42, 63, 95); fill-opacity: 1; white-space: pre;">Train F1</text><g class="layers" style="opacity: 1;"><g class="legendfill"/><g class="legendlines"><path class="js-line" d="M5,0h30" style="fill: none; stroke: rgb(165, 42, 42); stroke-opacity: 1; stroke-width: 2px;"/></g><g class="legendsymbols"><g class="legendpoints"/></g></g><rect class="legendtoggle" x="0" y="-9.5" width="122.71875" height="19" style="fill: rgb(0, 0, 0); fill-opacity: 0;"/></g><g class="traces" transform="translate(0,147.5)" style="opacity: 1;"><text class="legendtext" text-anchor="start" x="40" y="4.680000000000001" style="font-family: 'Open Sans', verdana, arial, sans-serif; font-size: 12px; fill: rgb(42, 63, 95); fill-opacity: 1; white-space: pre;">Test F1</text><g class="layers" style="opacity: 1;"><g class="legendfill"/><g class="legendlines"><path class="js-line" d="M5,0h30" style="fill: none; stroke: rgb(128, 128, 128); stroke-opacity: 1; stroke-width: 2px;"/></g><g class="legendsymbols"><g class="legendpoints"/></g></g><rect class="legendtoggle" x="0" y="-9.5" width="122.71875" height="19" style="fill: rgb(0, 0, 0); fill-opacity: 0;"/></g></g></g><rect class="scrollbar" rx="20" ry="3" width="0" height="0" x="0" y="0" style="fill: rgb(128, 139, 164); fill-opacity: 1;"/></g><g class="g-gtitle"><text class="gtitle" x="51.2" y="50" text-anchor="start" dy="0em" style="font-family: 'Open Sans', verdana, arial, sans-serif; font-size: 17px; fill: rgb(42, 63, 95); opacity: 1; font-weight: normal; white-space: pre;">Training Metrics - logs/FakeNewsNet-gossipcop_max-vocab=10000_pre=v1_domain_T=50_s=5.log</text></g><g class="g-xtitle"><text class="xtitle" x="506" y="537.3" text-anchor="middle" style="font-family: 'Open Sans', verdana, arial, sans-serif; font-size: 14px; fill: rgb(42, 63, 95); opacity: 1; font-weight: normal; white-space: pre;">Epoch</text></g><g class="g-ytitle"><text class="ytitle" transform="rotate(-90,103.965625,298)" x="103.965625" y="298" text-anchor="middle" style="font-family: 'Open Sans', verdana, arial, sans-serif; font-size: 14px; fill: rgb(42, 63, 95); opacity: 1; font-weight: normal; white-space: pre;">Metric Score</text></g></g><g class="menulayer"><g class="updatemenu-container" style="cursor: pointer;"><g class="updatemenu-header-group" transform="translate(12,60)"><g class="updatemenu-header" transform="translate(1,1)" style="pointer-events: all;"><rect class="updatemenu-item-rect" rx="2" ry="2" shape-rendering="crispEdges" x="0" y="0" width="167" height="33" style="stroke: rgb(190, 200, 217); stroke-opacity: 1; fill: rgb(255, 255, 255); fill-opacity: 1; stroke-width: 1px;"/><text class="updatemenu-item-text" text-anchor="start" data-notex="1" x="12" y="19.5" style="font-family: 'Open Sans', verdana, arial, sans-serif; font-size: 12px; fill: rgb(42, 63, 95); fill-opacity: 1; white-space: pre;">All</text></g><text class="updatemenu-header-arrow" text-anchor="end" x="163" y="19.5" style="font-family: 'Open Sans', verdana, arial, sans-serif; font-size: 12px; fill: rgb(42, 63, 95); fill-opacity: 1;">▼</text></g><g class="updatemenu-dropdown-button-group" updatemenu-active-index="-1" style="pointer-events: all;"><rect class="scrollbox-bg" opacity="0" x="0" y="0" width="0" height="0" style="pointer-events: all;"/></g></g></g></svg>