<svg class="main-svg" xmlns="http://www.w3.org/2000/svg" xmlns:xlink="http://www.w3.org/1999/xlink" width="1024" height="576" style="" viewBox="0 0 1024 576"><rect x="0" y="0" width="1024" height="576" style="fill: rgb(255, 255, 255); fill-opacity: 1;"/><defs id="defs-66750d"><g class="clips"><clipPath id="clip66750dxyplot" class="plotclip"><rect width="734" height="396"/></clipPath><clipPath class="axesclip" id="clip66750dx"><rect x="135" y="0" width="734" height="576"/></clipPath><clipPath class="axesclip" id="clip66750dy"><rect x="0" y="100" width="1024" height="396"/></clipPath><clipPath class="axesclip" id="clip66750dxy"><rect x="135" y="100" width="734" height="396"/></clipPath></g><g class="gradients"/><g class="patterns"/></defs><g class="bglayer"><rect class="bg" x="135" y="100" width="734" height="396" style="fill: rgb(229, 236, 246); fill-opacity: 1; stroke-width: 0;"/></g><g class="layer-below"><g class="imagelayer"/><g class="shapelayer"/></g><g class="cartesianlayer"><g class="subplot xy"><g class="layer-subplot"><g class="shapelayer"/><g class="imagelayer"/></g><g class="minor-gridlayer"><g class="x"/><g class="y"/></g><g class="gridlayer"><g class="x"><path class="xgrid crisp" transform="translate(228.6,0)" d="M0,100v396" style="stroke: rgb(255, 255, 255); stroke-opacity: 1; stroke-width: 1px;"/><path class="xgrid crisp" transform="translate(327.12,0)" d="M0,100v396" style="stroke: rgb(255, 255, 255); stroke-opacity: 1; stroke-width: 1px;"/><path class="xgrid crisp" transform="translate(425.64,0)" d="M0,100v396" style="stroke: rgb(255, 255, 255); stroke-opacity: 1; stroke-width: 1px;"/><path class="xgrid crisp" transform="translate(524.1700000000001,0)" d="M0,100v396" style="stroke: rgb(255, 255, 255); stroke-opacity: 1; stroke-width: 1px;"/><path class="xgrid crisp" transform="translate(622.69,0)" d="M0,100v396" style="stroke: rgb(255, 255, 255); stroke-opacity: 1; stroke-width: 1px;"/><path class="xgrid crisp" transform="translate(721.21,0)" d="M0,100v396" style="stroke: rgb(255, 255, 255); stroke-opacity: 1; stroke-width: 1px;"/><path class="xgrid crisp" transform="translate(819.74,0)" d="M0,100v396" style="stroke: rgb(255, 255, 255); stroke-opacity: 1; stroke-width: 1px;"/></g><g class="y"><path class="ygrid crisp" transform="translate(0,439.77)" d="M135,0h734" style="stroke: rgb(255, 255, 255); stroke-opacity: 1; stroke-width: 1px;"/><path class="ygrid crisp" transform="translate(0,353.85)" d="M135,0h734" style="stroke: rgb(255, 255, 255); stroke-opacity: 1; stroke-width: 1px;"/><path class="ygrid crisp" transform="translate(0,267.93)" d="M135,0h734" style="stroke: rgb(255, 255, 255); stroke-opacity: 1; stroke-width: 1px;"/><path class="ygrid crisp" transform="translate(0,182.01)" d="M135,0h734" style="stroke: rgb(255, 255, 255); stroke-opacity: 1; stroke-width: 1px;"/></g></g><g class="zerolinelayer"/><path class="xlines-below"/><path class="ylines-below"/><g class="overlines-below"/><g class="xaxislayer-below"/><g class="yaxislayer-below"/><g class="overaxes-below"/><g class="plot" transform="translate(135,100)" clip-path="url(#clip66750dxyplot)"><g class="scatterlayer mlayer"><g class="trace scatter trace0ea123" style="stroke-miterlimit: 2; opacity: 1;"><g class="fills"/><g class="errorbars"/><g class="lines"><path class="js-line" d="M0,90.77L4.93,88.02L9.85,68.6L14.78,73.76L19.7,59.67L24.63,39.91L29.56,39.91L34.48,41.97L39.41,70.15L44.34,135.45L49.26,143.18L54.19,117.58L59.11,76.34L64.04,42.83L68.97,86.82L73.89,56.4L78.82,57.95L83.74,54L88.67,60.87L93.6,59.32L98.52,98.16L103.45,101.25L108.38,98.33L113.3,75.48L118.23,57.09L123.15,49.53L128.08,46.09L133.01,47.12L137.93,50.9L142.86,44.89L147.79,56.92L152.71,52.62L157.64,41.97L162.56,52.97L167.49,59.5L172.42,60.7L177.34,123.94L182.27,56.06L187.19,49.87L192.12,49.7L197.05,47.64L201.97,47.81L206.9,97.47L211.83,57.09L216.75,100.05L221.68,124.8L226.6,130.64L231.53,67.74L236.46,154.52L241.38,65.85L246.31,49.87L251.23,150.92L256.16,62.93L261.09,43.51L266.01,42.83L270.94,79.26L275.87,57.78L280.79,88.71L285.72,90.6L290.64,53.14L295.57,74.62L300.5,45.58L305.42,50.22L310.35,88.71L315.28,101.42L320.2,90.77L325.13,48.84L330.05,124.8L334.98,170.68L339.91,139.75L344.83,162.26L349.76,76.85L354.68,99.36L364.54,40.59L369.46,50.39L374.39,37.67L379.32,34.06L384.24,36.81L389.17,35.61L394.09,146.96L399.02,183.39L403.95,166.04L408.87,212.95L413.8,227.56L418.72,265.53L423.65,214.32L428.58,193.02L433.5,118.95L438.43,72.04L443.36,78.23L448.28,181.5L453.21,162.26L458.13,92.49L463.06,235.12L467.99,74.27L472.91,94.72L477.84,83.9L482.77,82.69L487.69,159.85L492.62,141.81L497.54,85.79L502.47,85.1L507.4,29.25L512.32,30.63L517.25,35.44L522.17,39.56L527.1,34.06L532.03,42.48L536.95,35.61L541.88,34.58L546.81,49.53L551.73,25.13L556.66,31.14L561.58,29.42L566.51,19.8L571.44,39.05L576.36,27.88L581.29,38.7L586.21,47.29L591.14,54L596.07,40.59L600.99,93.86L605.92,60.35L610.85,109.67L615.77,128.75L620.7,55.71L625.62,91.8L630.55,79.94L635.48,60.18L640.4,36.64L645.33,41.62L650.26,55.37L655.18,37.5L660.11,32.17L665.03,75.13L669.96,90.94L674.89,39.91L679.81,41.97L684.74,113.97L689.66,126.69L694.59,91.8L699.52,133.56L704.44,134.59L709.37,156.76L714.3,158.82L719.22,102.8L724.15,81.32L729.07,89.91L734,42.83" style="vector-effect: none; fill: none; stroke: rgb(255, 0, 0); stroke-opacity: 1; stroke-width: 2px; opacity: 1;"/></g><g class="points"/><g class="text"/></g><g class="trace scatter trace360cd4" style="stroke-miterlimit: 2; opacity: 1;"><g class="fills"/><g class="errorbars"/><g class="lines"><path class="js-line" d="M0,93.86L4.93,87.16L9.85,74.45L14.78,84.41L19.7,64.65L24.63,44.55L29.56,46.78L34.48,49.53L39.41,88.36L44.34,152.46L49.26,167.07L54.19,131.5L59.11,82.18L64.04,49.53L68.97,99.19L73.89,72.04L78.82,73.93L83.74,72.9L88.67,85.27L93.6,67.74L98.52,116.38L103.45,118.61L108.38,114.83L113.3,82.52L118.23,60.01L123.15,50.73L128.08,51.42L133.01,55.03L137.93,65.17L142.86,61.56L147.79,77.54L152.71,72.9L157.64,51.08L162.56,56.57L167.49,70.15L172.42,69.29L177.34,148.51L182.27,60.01L187.19,60.01L192.12,53.82L197.05,54.17L201.97,55.71L206.9,100.05L211.83,66.2L216.75,102.28L221.68,125.31L226.6,133.04L231.53,85.27L236.46,163.29L241.38,90.26L246.31,65.51L251.23,169.13L256.16,81.83L261.09,60.87L266.01,60.01L270.94,75.13L275.87,72.04L280.79,109.33L285.72,111.74L290.64,68.26L295.57,93.86L300.5,65.85L305.42,64.31L310.35,94.21L315.28,105.89L320.2,89.22L325.13,58.46L330.05,126.86L334.98,173.43L339.91,144.21L344.83,180.3L349.76,98.5L354.68,104.69L359.61,88.71L364.54,51.08L369.46,65.85L374.39,42.65L379.32,41.11L384.24,44.2L389.17,33.2L394.09,147.31L399.02,199.37L403.95,177.21L408.87,212.09L413.8,240.44L418.72,258.32L423.65,221.89L428.58,190.44L433.5,133.73L438.43,81.83L443.36,87.68L448.28,196.28L453.21,187L458.13,104.35L463.06,256.08L467.99,85.96L472.91,113.97L477.84,111.22L482.77,113.28L487.69,180.3L492.62,138.89L497.54,97.64L502.47,92.32L507.4,42.65L512.32,41.11L517.25,46.09L522.17,49.87L527.1,44.2L532.03,55.03L536.95,37.84L541.88,37.5L546.81,61.56L551.73,34.06L556.66,35.27L561.58,33.2L566.51,24.27L571.44,41.11L576.36,38.7L581.29,48.33L586.21,55.71L591.14,56.92L596.07,46.09L600.99,111.22L605.92,74.45L610.85,135.28L615.77,143.01L620.7,75.65L625.62,113.97L630.55,96.1L635.48,77.88L640.4,46.78L645.33,56.23L650.26,81.83L655.18,61.56L660.11,47.29L665.03,91.46L669.96,115.86L674.89,50.73L679.81,56.92L684.74,118.27L689.66,144.56L694.59,96.1L699.52,140.43L704.44,151.95L709.37,176L714.3,171.02L719.22,126.34L724.15,105.89L729.07,110.53L734,55.03" style="vector-effect: none; fill: none; stroke: rgb(0, 0, 255); stroke-opacity: 1; stroke-width: 2px; opacity: 1;"/></g><g class="points"/><g class="text"/></g><g class="trace scatter trace3695f1" style="stroke-miterlimit: 2; opacity: 1;"><g class="fills"/><g class="errorbars"/><g class="lines"><path class="js-line" d="M0,217.07L4.93,218.11L9.85,180.3L14.78,191.99L19.7,164.49L24.63,95.07L29.56,85.79L34.48,109.85L39.41,187.52L44.34,278.59L49.26,284.44L54.19,257.97L59.11,200.23L64.04,129.78L68.97,217.93L73.89,164.32L78.82,163.12L83.74,152.81L88.67,173.25L93.6,161.57L98.52,235.29L103.45,239.24L108.38,234.77L118.23,161.57L123.15,141.98L128.08,134.25L133.01,137.51L137.93,149.2L142.86,128.92L147.79,166.21L152.71,154.52L157.64,118.09L162.56,148.68L167.49,165.52L172.42,169.47L177.34,266.91L182.27,162.43L187.19,146.45L192.12,147.13L197.05,142.84L201.97,146.1L206.9,233.4L211.83,163.46L216.75,238.55L221.68,266.05L226.6,271.72L231.53,187.69L236.46,290.79L241.38,180.64L246.31,147.99L251.23,284.44L256.16,179.96L261.09,131.15L266.01,134.25L270.94,204.19L275.87,167.24L280.79,220.51L285.72,223.78L290.64,158.13L295.57,198.34L300.5,146.1L305.42,151.95L310.35,220.85L315.28,238.73L320.2,223.95L325.13,148.17L330.05,265.53L334.98,307.98L339.91,278.59L344.83,293.89L349.76,202.98L354.68,235.46L359.61,192.16L364.54,126.34L369.46,152.46L374.39,116.2L379.32,106.92L384.24,110.36L389.17,93.69L394.09,298.18L399.02,324.65L403.95,311.24L408.87,344.58L413.8,352.14L418.72,376.2L423.65,348.36L428.58,337.02L433.5,257.8L438.43,194.05L443.36,204.87L448.28,304.54L453.21,290.28L458.13,224.98L463.06,346.47L467.99,199.03L472.91,228.42L477.84,213.12L482.77,211.23L487.69,293.03L492.62,282.2L497.54,216.56L502.47,215.53L507.4,92.32L517.25,110.7L522.17,121.36L527.1,99.02L532.03,131.5L536.95,108.99L541.88,97.13L546.81,149.03L551.73,67.57L556.66,81.15L561.58,92.32L566.51,38.02L571.44,118.78L576.36,85.27L581.29,121.53L586.21,132.7L591.14,159.68L596.07,121.7L600.99,227.21L605.92,168.62L610.85,248.87L615.77,268.11L620.7,167.41L625.62,224.81L630.55,207.62L635.48,174.29L640.4,123.76L645.33,135.45L650.26,168.1L655.18,129.26L660.11,105.21L665.03,199.89L669.96,222.75L674.89,127.37L679.81,137L684.74,254.71L689.66,265.88L694.59,224.46L699.52,267.77L704.44,270.17L709.37,284.44L714.3,285.98L719.22,236.49L724.15,209.51L729.07,221.2L734,139.23" style="vector-effect: none; fill: none; stroke: rgb(0, 128, 0); stroke-opacity: 1; stroke-width: 2px; opacity: 1;"/></g><g class="points"/><g class="text"/></g><g class="trace scatter trace5a2791" style="stroke-miterlimit: 2; opacity: 1;"><g class="fills"/><g class="errorbars"/><g class="lines"><path class="js-line" d="M0,222.92L4.93,215.01L9.85,189.06L14.78,210.89L19.7,174.11L24.63,107.78L29.56,105.03L34.48,126.34L39.41,218.62L44.34,295.61L49.26,309.7L54.19,274.13L59.11,208.65L64.04,141.64L68.97,236.15L73.89,191.47L78.82,192.33L83.74,188.89L88.67,213.81L93.6,178.24L98.52,260.89L103.45,262.96L108.38,256.43L118.23,168.1L123.15,144.73L128.08,143.7L133.01,151.77L137.93,174.97L142.86,161.57L147.79,201.26L152.71,191.64L157.64,138.2L162.56,155.9L167.49,184.42L172.42,184.77L177.34,297.67L182.27,168.96L187.19,163.29L192.12,152.98L197.05,153.84L201.97,159.85L206.9,236.66L211.83,177.72L216.75,240.96L221.68,265.36L226.6,273.27L231.53,214.5L236.46,300.42L241.38,221.71L246.31,175.66L251.23,304.71L256.16,209L261.09,164.32L266.01,165.52L270.94,194.91L275.87,191.3L280.79,248.87L285.72,253.33L290.64,184.08L295.57,227.73L300.5,182.19L305.42,177.72L310.35,227.9L315.28,243.54L320.2,220.51L325.13,165.69L330.05,266.91L334.98,310.9L339.91,284.09L344.83,315.2L349.76,233.57L354.68,241.65L359.61,220L364.54,145.42L369.46,178.41L374.39,123.94L379.32,119.81L384.24,124.62L389.17,88.88L394.09,298.18L399.02,343.55L403.95,324.82L408.87,346.99L413.8,364.17L418.72,371.04L423.65,356.44L428.58,333.58L433.5,277.73L438.43,208.14L443.36,218.11L448.28,322.59L453.21,317.09L458.13,240.1L463.06,369.67L467.99,215.87L472.91,253.85L477.84,250.41L482.77,252.82L487.69,317.09L492.62,280.66L497.54,233.23L502.47,225.32L507.4,122.05L512.32,120.5L517.25,131.5L522.17,142.5L527.1,122.05L532.03,155.21L536.95,111.74L541.88,99.71L546.81,169.3L551.73,83.55L556.66,85.27L561.58,96.79L566.51,44.2L571.44,122.73L576.36,111.22L581.29,139.92L586.21,146.96L591.14,163.12L596.07,131.15L600.99,251.44L605.92,193.02L610.85,281.69L615.77,283.92L620.7,199.2L625.62,254.02L635.48,202.98L640.4,141.98L645.33,161.91L650.26,209.34L660.11,133.22L665.03,224.12L669.96,256.77L674.89,146.1L679.81,162.43L684.74,260.89L689.66,286.33L694.59,229.79L699.52,276.88L704.44,289.94L709.37,305.4L714.3,300.93L719.22,266.56L724.15,243.88L729.07,249.21L734,159.51" style="vector-effect: none; fill: none; stroke: rgb(255, 165, 0); stroke-opacity: 1; stroke-width: 2px; opacity: 1;"/></g><g class="points"/><g class="text"/></g><g class="trace scatter trace1d4262" style="stroke-miterlimit: 2; opacity: 1;"><g class="fills"/><g class="errorbars"/><g class="lines"><path class="js-line" d="M0,328.43L4.93,293.37L9.85,283.41L14.78,280.83L19.7,269.66L24.63,286.15L29.56,294.4L34.48,278.25L39.41,269.49L44.34,268.8L49.26,265.19L54.19,259.18L59.11,264.16L64.04,254.36L68.97,266.05L73.89,249.21L78.82,262.44L83.74,265.02L88.67,250.07L93.6,274.3L98.52,272.41L108.38,260.89L113.3,274.99L118.23,261.58L123.15,263.82L133.01,260.72L137.93,256.6L142.86,264.33L147.79,246.63L152.71,252.99L157.64,267.94L162.56,268.28L167.49,265.71L172.42,261.41L177.34,268.8L182.27,252.47L187.19,256.77L192.12,254.36L197.05,252.82L201.97,246.29L206.9,260.38L211.83,256.43L216.75,278.08L221.68,260.89L226.6,260.55L231.53,241.99L236.46,257.46L241.38,261.07L246.31,253.68L251.23,246.8L256.16,237.01L261.09,254.71L266.01,245.6L270.94,274.3L275.87,248.52L280.79,246.29L285.72,260.38L290.64,246.63L295.57,255.74L300.5,233.74L305.42,245.26L310.35,254.88L315.28,258.83L320.2,264.85L325.13,246.97L334.98,272.58L339.91,255.91L344.83,251.27L349.76,234.09L354.68,252.65L359.61,237.35L364.54,250.24L369.46,245.43L374.39,253.5L379.32,251.44L384.24,257.63L389.17,272.75L394.09,298.87L399.02,292.51L403.95,289.42L408.87,299.9L413.8,301.28L418.72,320.01L423.65,305.74L428.58,306.95L433.5,251.27L438.43,251.1L443.36,249.21L448.28,248.87L453.21,241.82L458.13,236.66L463.06,284.61L467.99,238.55L472.91,244.4L477.84,234.95L482.77,226.7L487.69,252.99L492.62,262.27L497.54,248.69L502.47,252.99L507.4,251.44L512.32,245.77L517.25,251.79L522.17,253.68L527.1,261.24L532.03,249.55L536.95,255.22L541.88,265.02L546.81,249.38L551.73,261.93L556.66,269.14L561.58,251.79L566.51,267.77L571.44,255.22L576.36,254.19L581.29,249.55L586.21,269.14L591.14,247.15L596.07,257.46L600.99,242.85L605.92,262.27L610.85,258.83L615.77,254.02L620.7,232.71L625.62,246.12L630.55,240.79L635.48,240.1L640.4,235.98L645.33,237.35L650.26,224.46L655.18,229.96L660.11,246.12L665.03,245.77L669.96,236.84L674.89,245.26L679.81,235.63L684.74,263.82L694.59,241.99L699.52,237.87L704.44,243.19L709.37,235.98L714.3,236.32L719.22,231.85L724.15,233.4L729.07,233.74L734,235.12" style="vector-effect: none; fill: none; stroke: rgb(128, 0, 128); stroke-opacity: 1; stroke-width: 2px; opacity: 1;"/></g><g class="points"/><g class="text"/></g><g class="trace scatter tracea14c27" style="stroke-miterlimit: 2; opacity: 1;"><g class="fills"/><g class="errorbars"/><g class="lines"><path class="js-line" d="M0,325.85L4.93,294.58L9.85,291.14L14.78,287.36L19.7,270.52L24.63,287.36L29.56,298.18L34.48,285.12L39.41,281.69L44.34,277.73L49.26,284.61L54.19,269.83L59.11,271.03L64.04,261.58L68.97,279.97L73.89,261.58L78.82,276.02L83.74,280.14L88.67,272.92L93.6,279.11L98.52,288.56L103.45,283.41L108.38,272.58L113.3,274.99L118.23,257.46L123.15,261.24L128.08,267.25L137.93,270.17L142.86,283.23L147.79,261.93L152.71,268.63L157.64,274.64L162.56,268.46L167.49,275.67L172.42,267.94L177.34,294.92L182.27,254.71L187.19,270.69L192.12,260.03L197.05,260.21L201.97,254.19L206.9,266.74L211.83,269.83L216.75,281.52L221.68,259.69L231.53,262.61L236.46,267.77L241.38,284.61L246.31,271.03L251.23,268.28L256.16,257.46L261.09,272.75L266.01,265.19L270.94,274.64L275.87,262.61L280.79,266.39L285.72,278.25L290.64,260.72L295.57,272.06L300.5,247.66L305.42,254.88L310.35,258.49L315.28,260.21L320.2,261.24L325.13,254.19L330.05,259.69L334.98,276.7L339.91,263.47L344.83,276.36L349.76,255.4L354.68,256.6L359.61,257.8L364.54,262.1L369.46,264.67L374.39,259.69L379.32,259.18L384.24,265.19L389.17,266.74L394.09,300.25L399.02,314.17L403.95,304.54L408.87,306.6L413.8,314.85L423.65,315.71L428.58,304.37L433.5,274.81L438.43,268.97L443.36,266.22L448.28,272.41L453.21,271.2L458.13,248.18L463.06,314.51L467.99,252.13L472.91,262.78L477.84,261.58L482.77,261.75L487.69,280.66L492.62,267.6L497.54,265.88L502.47,266.05L507.4,262.44L512.32,258.14L517.25,263.13L522.17,261.75L527.1,268.97L532.03,261.24L536.95,257.8L541.88,270.69L546.81,263.99L551.73,274.47L556.66,276.88L561.58,258.49L566.51,274.64L571.44,254.88L576.36,261.58L581.29,259.18L586.21,281.69L591.14,252.13L596.07,263.64L600.99,267.6L605.92,276.88L610.85,283.92L615.77,266.05L620.7,249.04L625.62,263.3L630.55,252.65L635.48,250.07L640.4,247.15L645.33,250.58L650.26,250.41L655.18,255.74L660.11,265.53L665.03,267.25L669.96,266.74L674.89,258.49L679.81,254.36L684.74,273.78L689.66,269.31L694.59,247.15L699.52,251.1L704.44,261.93L714.3,255.91L719.22,259.35L724.15,262.44L729.07,259.86L734,250.24" style="vector-effect: none; fill: none; stroke: rgb(255, 192, 203); stroke-opacity: 1; stroke-width: 2px; opacity: 1;"/></g><g class="points"/><g class="text"/></g><g class="trace scatter trace7fcb2d" style="stroke-miterlimit: 2; opacity: 1;"><g class="fills"/><g class="errorbars"/><g class="lines"><path class="js-line" d="M0,296.64L4.93,266.91L9.85,249.9L14.78,250.41L19.7,234.95L24.63,238.21L29.56,245.26L34.48,232.54L39.41,240.44L44.34,273.95L49.26,275.84L59.11,239.76L64.04,214.5L68.97,246.63L73.89,218.62L78.82,228.59L83.74,228.42L88.67,221.54L93.6,238.21L98.52,256.77L103.45,254.71L108.38,249.38L113.3,247.15L118.23,227.73L123.15,225.15L128.08,222.06L133.01,221.54L137.93,220.68L142.86,223.09L147.79,217.07L152.71,218.96L162.56,230.31L167.49,231.85L172.42,229.45L177.34,267.94L182.27,220.51L187.19,220.17L197.05,216.04L201.97,211.58L206.9,248.52L211.83,223.95L216.75,261.75L221.68,263.47L226.6,266.56L231.53,220L236.46,277.56L241.38,232.02L246.31,217.93L251.23,270L256.16,214.15L261.09,215.01L266.01,208.31L270.94,248.35L275.87,218.79L280.79,234.77L285.72,244.74L290.64,214.84L295.57,233.23L300.5,201.78L305.42,212.26L310.35,240.27L315.28,249.72L320.2,247.83L325.13,212.61L330.05,262.61L334.98,294.58L339.91,268.63L344.83,278.59L349.76,220.51L354.68,244.74L359.61,218.45L364.54,210.2L369.46,212.43L374.39,211.06L379.32,207.45L384.24,213.47L389.17,224.81L394.09,298.53L399.02,312.45L403.95,301.96L408.87,331.52L413.8,339.6L418.72,368.64L423.65,335.47L428.58,325.68L433.5,254.54L438.43,228.59L443.36,230.82L448.28,288.22L453.21,273.78L458.13,231.17L463.06,335.3L467.99,221.71L472.91,237.01L477.84,224.98L482.77,219.31L487.69,278.25L492.62,273.44L497.54,234.6L502.47,237.01L507.4,204.7L512.32,201.09L517.25,208.31L522.17,212.09L527.1,214.67L532.03,210.72L536.95,211.06L541.88,218.11L546.81,214.67L551.73,210.37L556.66,219.48L561.58,204.87L566.51,212.26L571.44,213.12L576.36,205.9L581.29,208.65L586.21,228.07L591.14,215.7L596.07,215.53L600.99,235.46L605.92,229.79L610.85,254.19L615.77,261.58L620.7,207.11L625.62,236.32L630.55,226.35L635.48,214.67L640.4,197.83L645.33,201.78L650.26,201.61L655.18,194.39L660.11,202.3L665.03,226.87L669.96,230.13L674.89,206.25L679.81,200.75L684.74,259.52L689.66,259.86L694.59,233.91L699.52,255.22L704.44,258.66L709.37,267.6L714.3,268.97L719.22,234.26L724.15,222.57L729.07,227.73L734,200.92" style="vector-effect: none; fill: none; stroke: rgb(165, 42, 42); stroke-opacity: 1; stroke-width: 2px; opacity: 1;"/></g><g class="points"/><g class="text"/></g><g class="trace scatter trace478acc" style="stroke-miterlimit: 2; opacity: 1;"><g class="fills"/><g class="errorbars"/><g class="lines"><path class="js-line" d="M0,295.43L4.93,267.08L9.85,258.49L14.78,260.38L19.7,237.87L24.63,241.13L29.56,251.61L34.48,241.82L39.41,257.97L44.34,287.7L49.26,299.21L59.11,247.32L64.04,223.26L68.97,262.27L73.89,235.29L78.82,246.8L83.74,249.21L88.67,250.24L93.6,245.94L98.52,276.53L103.45,274.3L108.38,265.19L113.3,250.41L118.23,226.01L123.15,223.6L128.08,228.59L133.01,231.68L137.93,237.87L142.86,246.12L147.79,238.38L152.71,240.79L157.64,234.09L162.56,232.02L167.49,244.57L172.42,238.55L177.34,296.29L182.27,224.12L187.19,235.63L192.12,224.46L197.05,224.81L201.97,221.2L206.9,253.68L211.83,238.21L216.75,264.85L221.68,262.61L226.6,267.6L231.53,243.02L236.46,287.7L241.38,261.07L246.31,238.55L251.23,291.14L256.16,237.87L261.09,237.7L266.01,231.51L270.94,246.29L275.87,236.15L280.79,258.32L285.72,267.25L290.64,232.71L295.57,254.02L300.5,222.4L305.42,226.53L310.35,245.26L315.28,252.47L320.2,244.23L325.13,222.92L330.05,263.47L334.98,297.84L339.91,274.99L344.83,301.45L349.76,245.43L354.68,249.72L359.61,241.82L364.54,224.46L369.46,234.26L374.39,218.11L379.32,216.9L384.24,222.92L389.17,218.45L394.09,299.21L399.02,332.55L403.95,316.06L408.87,334.44L413.8,353L418.72,362.45L423.65,344.24L428.58,322.41L433.5,276.36L438.43,245.77L443.36,246.8L448.28,307.81L453.21,302.14L458.13,244.23L463.06,360.73L467.99,236.66L472.91,258.49L477.84,256.25L482.77,257.46L487.69,303.85L492.62,274.64L497.54,251.79L502.47,249.21L507.4,220.17L512.32,216.04L517.25,222.57L522.17,223.6L527.1,226.01L532.03,226.01L536.95,213.98L541.88,223.78L546.81,231.51L551.73,225.15L556.66,227.73L561.58,211.92L566.51,220.17L571.44,213.64L576.36,217.25L581.29,220.85L586.21,241.82L591.14,220.51L596.07,222.92L600.99,260.03L605.92,247.49L610.85,282.89L615.77,275.84L620.7,228.76L625.62,258.83L630.55,242.51L635.48,230.82L640.4,211.23L645.33,218.96L650.26,233.06L655.18,225.67L660.11,224.98L665.03,249.55L669.96,262.1L674.89,221.54L679.81,222.06L684.74,267.77L689.66,278.59L694.59,239.07L699.52,265.88L704.44,278.42L709.37,289.94L714.3,285.47L719.22,263.13L724.15,253.85L729.07,254.88L734,218.11" style="vector-effect: none; fill: none; stroke: rgb(128, 128, 128); stroke-opacity: 1; stroke-width: 2px; opacity: 1;"/></g><g class="points"/><g class="text"/></g></g></g><g class="overplot"/><path class="xlines-above crisp" d="M0,0" style="fill: none;"/><path class="ylines-above crisp" d="M0,0" style="fill: none;"/><g class="overlines-above"/><g class="xaxislayer-above"><g class="xtick"><text text-anchor="middle" x="0" y="509" transform="translate(228.6,0)" style="font-family: 'Open Sans', verdana, arial, sans-serif; font-size: 12px; fill: rgb(42, 63, 95); fill-opacity: 1; white-space: pre; opacity: 1;">20</text></g><g class="xtick"><text text-anchor="middle" x="0" y="509" style="font-family: 'Open Sans', verdana, arial, sans-serif; font-size: 12px; fill: rgb(42, 63, 95); fill-opacity: 1; white-space: pre; opacity: 1;" transform="translate(327.12,0)">40</text></g><g class="xtick"><text text-anchor="middle" x="0" y="509" style="font-family: 'Open Sans', verdana, arial, sans-serif; font-size: 12px; fill: rgb(42, 63, 95); fill-opacity: 1; white-space: pre; opacity: 1;" transform="translate(425.64,0)">60</text></g><g class="xtick"><text text-anchor="middle" x="0" y="509" style="font-family: 'Open Sans', verdana, arial, sans-serif; font-size: 12px; fill: rgb(42, 63, 95); fill-opacity: 1; white-space: pre; opacity: 1;" transform="translate(524.1700000000001,0)">80</text></g><g class="xtick"><text text-anchor="middle" x="0" y="509" style="font-family: 'Open Sans', verdana, arial, sans-serif; font-size: 12px; fill: rgb(42, 63, 95); fill-opacity: 1; white-space: pre; opacity: 1;" transform="translate(622.69,0)">100</text></g><g class="xtick"><text text-anchor="middle" x="0" y="509" style="font-family: 'Open Sans', verdana, arial, sans-serif; font-size: 12px; fill: rgb(42, 63, 95); fill-opacity: 1; white-space: pre; opacity: 1;" transform="translate(721.21,0)">120</text></g><g class="xtick"><text text-anchor="middle" x="0" y="509" style="font-family: 'Open Sans', verdana, arial, sans-serif; font-size: 12px; fill: rgb(42, 63, 95); fill-opacity: 1; white-space: pre; opacity: 1;" transform="translate(819.74,0)">140</text></g></g><g class="yaxislayer-above"><g class="ytick"><text text-anchor="end" x="134" y="4.199999999999999" transform="translate(0,439.77)" style="font-family: 'Open Sans', verdana, arial, sans-serif; font-size: 12px; fill: rgb(42, 63, 95); fill-opacity: 1; white-space: pre; opacity: 1;">65</text></g><g class="ytick"><text text-anchor="end" x="134" y="4.199999999999999" style="font-family: 'Open Sans', verdana, arial, sans-serif; font-size: 12px; fill: rgb(42, 63, 95); fill-opacity: 1; white-space: pre; opacity: 1;" transform="translate(0,353.85)">70</text></g><g class="ytick"><text text-anchor="end" x="134" y="4.199999999999999" style="font-family: 'Open Sans', verdana, arial, sans-serif; font-size: 12px; fill: rgb(42, 63, 95); fill-opacity: 1; white-space: pre; opacity: 1;" transform="translate(0,267.93)">75</text></g><g class="ytick"><text text-anchor="end" x="134" y="4.199999999999999" style="font-family: 'Open Sans', verdana, arial, sans-serif; font-size: 12px; fill: rgb(42, 63, 95); fill-opacity: 1; white-space: pre; opacity: 1;" transform="translate(0,182.01)">80</text></g></g><g class="overaxes-above"/></g></g><g class="polarlayer"/><g class="smithlayer"/><g class="ternarylayer"/><g class="geolayer"/><g class="funnelarealayer"/><g class="pielayer"/><g class="iciclelayer"/><g class="treemaplayer"/><g class="sunburstlayer"/><g class="glimages"/><defs id="topdefs-66750d"><g class="clips"/><clipPath id="legend66750d"><rect width="128" height="162" x="0" y="0"/></clipPath></defs><g class="layer-above"><g class="imagelayer"/><g class="shapelayer"/></g><g class="infolayer"><g class="legend" pointer-events="all" transform="translate(883.6800000000001,100)"><rect class="bg" shape-rendering="crispEdges" width="128" height="162" x="0" y="0" style="stroke: rgb(68, 68, 68); stroke-opacity: 1; fill: rgb(255, 255, 255); fill-opacity: 1; stroke-width: 0px;"/><g class="scrollbox" transform="" clip-path="url(#legend66750d)"><g class="groups"><g class="traces" transform="translate(0,14.5)" style="opacity: 1;"><text class="legendtext" text-anchor="start" x="40" y="4.680000000000001" style="font-family: 'Open Sans', verdana, arial, sans-serif; font-size: 12px; fill: rgb(42, 63, 95); fill-opacity: 1; white-space: pre;">Train Accuracy</text><g class="layers" style="opacity: 1;"><g class="legendfill"/><g class="legendlines"><path class="js-line" d="M5,0h30" style="fill: none; stroke: rgb(255, 0, 0); stroke-opacity: 1; stroke-width: 2px;"/></g><g class="legendsymbols"><g class="legendpoints"/></g></g><rect class="legendtoggle" x="0" y="-9.5" width="122.71875" height="19" style="fill: rgb(0, 0, 0); fill-opacity: 0;"/></g><g class="traces" transform="translate(0,33.5)" style="opacity: 1;"><text class="legendtext" text-anchor="start" x="40" y="4.680000000000001" style="font-family: 'Open Sans', verdana, arial, sans-serif; font-size: 12px; fill: rgb(42, 63, 95); fill-opacity: 1; white-space: pre;">Test Accuracy</text><g class="layers" style="opacity: 1;"><g class="legendfill"/><g class="legendlines"><path class="js-line" d="M5,0h30" style="fill: none; stroke: rgb(0, 0, 255); stroke-opacity: 1; stroke-width: 2px;"/></g><g class="legendsymbols"><g class="legendpoints"/></g></g><rect class="legendtoggle" x="0" y="-9.5" width="122.71875" height="19" style="fill: rgb(0, 0, 0); fill-opacity: 0;"/></g><g class="traces" transform="translate(0,52.5)" style="opacity: 1;"><text class="legendtext" text-anchor="start" x="40" y="4.680000000000001" style="font-family: 'Open Sans', verdana, arial, sans-serif; font-size: 12px; fill: rgb(42, 63, 95); fill-opacity: 1; white-space: pre;">Train Precision</text><g class="layers" style="opacity: 1;"><g class="legendfill"/><g class="legendlines"><path class="js-line" d="M5,0h30" style="fill: none; stroke: rgb(0, 128, 0); stroke-opacity: 1; stroke-width: 2px;"/></g><g class="legendsymbols"><g class="legendpoints"/></g></g><rect class="legendtoggle" x="0" y="-9.5" width="122.71875" height="19" style="fill: rgb(0, 0, 0); fill-opacity: 0;"/></g><g class="traces" transform="translate(0,71.5)" style="opacity: 1;"><text class="legendtext" text-anchor="start" x="40" y="4.680000000000001" style="font-family: 'Open Sans', verdana, arial, sans-serif; font-size: 12px; fill: rgb(42, 63, 95); fill-opacity: 1; white-space: pre;">Test Precision</text><g class="layers" style="opacity: 1;"><g class="legendfill"/><g class="legendlines"><path class="js-line" d="M5,0h30" style="fill: none; stroke: rgb(255, 165, 0); stroke-opacity: 1; stroke-width: 2px;"/></g><g class="legendsymbols"><g class="legendpoints"/></g></g><rect class="legendtoggle" x="0" y="-9.5" width="122.71875" height="19" style="fill: rgb(0, 0, 0); fill-opacity: 0;"/></g><g class="traces" transform="translate(0,90.5)" style="opacity: 1;"><text class="legendtext" text-anchor="start" x="40" y="4.680000000000001" style="font-family: 'Open Sans', verdana, arial, sans-serif; font-size: 12px; fill: rgb(42, 63, 95); fill-opacity: 1; white-space: pre;">Train Recall</text><g class="layers" style="opacity: 1;"><g class="legendfill"/><g class="legendlines"><path class="js-line" d="M5,0h30" style="fill: none; stroke: rgb(128, 0, 128); stroke-opacity: 1; stroke-width: 2px;"/></g><g class="legendsymbols"><g class="legendpoints"/></g></g><rect class="legendtoggle" x="0" y="-9.5" width="122.71875" height="19" style="fill: rgb(0, 0, 0); fill-opacity: 0;"/></g><g class="traces" transform="translate(0,109.5)" style="opacity: 1;"><text class="legendtext" text-anchor="start" x="40" y="4.680000000000001" style="font-family: 'Open Sans', verdana, arial, sans-serif; font-size: 12px; fill: rgb(42, 63, 95); fill-opacity: 1; white-space: pre;">Test Recall</text><g class="layers" style="opacity: 1;"><g class="legendfill"/><g class="legendlines"><path class="js-line" d="M5,0h30" style="fill: none; stroke: rgb(255, 192, 203); stroke-opacity: 1; stroke-width: 2px;"/></g><g class="legendsymbols"><g class="legendpoints"/></g></g><rect class="legendtoggle" x="0" y="-9.5" width="122.71875" height="19" style="fill: rgb(0, 0, 0); fill-opacity: 0;"/></g><g class="traces" transform="translate(0,128.5)" style="opacity: 1;"><text class="legendtext" text-anchor="start" x="40" y="4.680000000000001" style="font-family: 'Open Sans', verdana, arial, sans-serif; font-size: 12px; fill: rgb(42, 63, 95); fill-opacity: 1; white-space: pre;">Train F1</text><g class="layers" style="opacity: 1;"><g class="legendfill"/><g class="legendlines"><path class="js-line" d="M5,0h30" style="fill: none; stroke: rgb(165, 42, 42); stroke-opacity: 1; stroke-width: 2px;"/></g><g class="legendsymbols"><g class="legendpoints"/></g></g><rect class="legendtoggle" x="0" y="-9.5" width="122.71875" height="19" style="fill: rgb(0, 0, 0); fill-opacity: 0;"/></g><g class="traces" transform="translate(0,147.5)" style="opacity: 1;"><text class="legendtext" text-anchor="start" x="40" y="4.680000000000001" style="font-family: 'Open Sans', verdana, arial, sans-serif; font-size: 12px; fill: rgb(42, 63, 95); fill-opacity: 1; white-space: pre;">Test F1</text><g class="layers" style="opacity: 1;"><g class="legendfill"/><g class="legendlines"><path class="js-line" d="M5,0h30" style="fill: none; stroke: rgb(128, 128, 128); stroke-opacity: 1; stroke-width: 2px;"/></g><g class="legendsymbols"><g class="legendpoints"/></g></g><rect class="legendtoggle" x="0" y="-9.5" width="122.71875" height="19" style="fill: rgb(0, 0, 0); fill-opacity: 0;"/></g></g></g><rect class="scrollbar" rx="20" ry="3" width="0" height="0" x="0" y="0" style="fill: rgb(128, 139, 164); fill-opacity: 1;"/></g><g class="g-gtitle"><text class="gtitle" x="51.2" y="50" text-anchor="start" dy="0em" style="font-family: 'Open Sans', verdana, arial, sans-serif; font-size: 17px; fill: rgb(42, 63, 95); opacity: 1; font-weight: normal; white-space: pre;">Training Metrics - logs/FakeNewsNet-gossipcop_max-vocab=15000_pre=v2_domain_T=150_s=5.log</text></g><g class="g-xtitle"><text class="xtitle" x="502" y="537.3" text-anchor="middle" style="font-family: 'Open Sans', verdana, arial, sans-serif; font-size: 14px; fill: rgb(42, 63, 95); opacity: 1; font-weight: normal; white-space: pre;">Epoch</text></g><g class="g-ytitle"><text class="ytitle" transform="rotate(-90,95.965625,298)" x="95.965625" y="298" text-anchor="middle" style="font-family: 'Open Sans', verdana, arial, sans-serif; font-size: 14px; fill: rgb(42, 63, 95); opacity: 1; font-weight: normal; white-space: pre;">Metric Score</text></g></g><g class="menulayer"><g class="updatemenu-container" style="cursor: pointer;"><g class="updatemenu-header-group" transform="translate(12,60)"><g class="updatemenu-header" transform="translate(1,1)" style="pointer-events: all;"><rect class="updatemenu-item-rect" rx="2" ry="2" shape-rendering="crispEdges" x="0" y="0" width="160" height="33" style="stroke: rgb(190, 200, 217); stroke-opacity: 1; fill: rgb(255, 255, 255); fill-opacity: 1; stroke-width: 1px;"/><text class="updatemenu-item-text" text-anchor="start" data-notex="1" x="12" y="19.5" style="font-family: 'Open Sans', verdana, arial, sans-serif; font-size: 12px; fill: rgb(42, 63, 95); fill-opacity: 1; white-space: pre;">All</text></g><text class="updatemenu-header-arrow" text-anchor="end" x="156" y="19.5" style="font-family: 'Open Sans', verdana, arial, sans-serif; font-size: 12px; fill: rgb(42, 63, 95); fill-opacity: 1;">▼</text></g><g class="updatemenu-dropdown-button-group" updatemenu-active-index="-1" style="pointer-events: all;"><rect class="scrollbox-bg" opacity="0" x="0" y="0" width="0" height="0" style="pointer-events: all;"/></g></g></g></svg>