<svg class="main-svg" xmlns="http://www.w3.org/2000/svg" xmlns:xlink="http://www.w3.org/1999/xlink" width="1024" height="576" style="" viewBox="0 0 1024 576"><rect x="0" y="0" width="1024" height="576" style="fill: rgb(255, 255, 255); fill-opacity: 1;"/><defs id="defs-56bf21"><g class="clips"><clipPath id="clip56bf21xyplot" class="plotclip"><rect width="726" height="396"/></clipPath><clipPath class="axesclip" id="clip56bf21x"><rect x="143" y="0" width="726" height="576"/></clipPath><clipPath class="axesclip" id="clip56bf21y"><rect x="0" y="100" width="1024" height="396"/></clipPath><clipPath class="axesclip" id="clip56bf21xy"><rect x="143" y="100" width="726" height="396"/></clipPath></g><g class="gradients"/><g class="patterns"/></defs><g class="bglayer"><rect class="bg" x="143" y="100" width="726" height="396" style="fill: rgb(229, 236, 246); fill-opacity: 1; stroke-width: 0;"/></g><g class="layer-below"><g class="imagelayer"/><g class="shapelayer"/></g><g class="cartesianlayer"><g class="subplot xy"><g class="layer-subplot"><g class="shapelayer"/><g class="imagelayer"/></g><g class="minor-gridlayer"><g class="x"/><g class="y"/></g><g class="gridlayer"><g class="x"><path class="xgrid crisp" transform="translate(235.57999999999998,0)" d="M0,100v396" style="stroke: rgb(255, 255, 255); stroke-opacity: 1; stroke-width: 1px;"/><path class="xgrid crisp" transform="translate(333.03,0)" d="M0,100v396" style="stroke: rgb(255, 255, 255); stroke-opacity: 1; stroke-width: 1px;"/><path class="xgrid crisp" transform="translate(430.48,0)" d="M0,100v396" style="stroke: rgb(255, 255, 255); stroke-opacity: 1; stroke-width: 1px;"/><path class="xgrid crisp" transform="translate(527.9300000000001,0)" d="M0,100v396" style="stroke: rgb(255, 255, 255); stroke-opacity: 1; stroke-width: 1px;"/><path class="xgrid crisp" transform="translate(625.38,0)" d="M0,100v396" style="stroke: rgb(255, 255, 255); stroke-opacity: 1; stroke-width: 1px;"/><path class="xgrid crisp" transform="translate(722.83,0)" d="M0,100v396" style="stroke: rgb(255, 255, 255); stroke-opacity: 1; stroke-width: 1px;"/><path class="xgrid crisp" transform="translate(820.28,0)" d="M0,100v396" style="stroke: rgb(255, 255, 255); stroke-opacity: 1; stroke-width: 1px;"/></g><g class="y"><path class="ygrid crisp" transform="translate(0,491.46)" d="M143,0h726" style="stroke: rgb(255, 255, 255); stroke-opacity: 1; stroke-width: 1px;"/><path class="ygrid crisp" transform="translate(0,431.15)" d="M143,0h726" style="stroke: rgb(255, 255, 255); stroke-opacity: 1; stroke-width: 1px;"/><path class="ygrid crisp" transform="translate(0,370.85)" d="M143,0h726" style="stroke: rgb(255, 255, 255); stroke-opacity: 1; stroke-width: 1px;"/><path class="ygrid crisp" transform="translate(0,310.53999999999996)" d="M143,0h726" style="stroke: rgb(255, 255, 255); stroke-opacity: 1; stroke-width: 1px;"/><path class="ygrid crisp" transform="translate(0,250.24)" d="M143,0h726" style="stroke: rgb(255, 255, 255); stroke-opacity: 1; stroke-width: 1px;"/><path class="ygrid crisp" transform="translate(0,189.93)" d="M143,0h726" style="stroke: rgb(255, 255, 255); stroke-opacity: 1; stroke-width: 1px;"/><path class="ygrid crisp" transform="translate(0,129.63)" d="M143,0h726" style="stroke: rgb(255, 255, 255); stroke-opacity: 1; stroke-width: 1px;"/></g></g><g class="zerolinelayer"/><path class="xlines-below"/><path class="ylines-below"/><g class="overlines-below"/><g class="xaxislayer-below"/><g class="yaxislayer-below"/><g class="overaxes-below"/><g class="plot" transform="translate(143,100)" clip-path="url(#clip56bf21xyplot)"><g class="scatterlayer mlayer"><g class="trace scatter trace3edd13" style="stroke-miterlimit: 2; opacity: 1;"><g class="fills"/><g class="errorbars"/><g class="lines"><path class="js-line" d="M0,277.96L4.87,155.79L9.74,175.81L14.62,97.23L19.49,101.51L24.36,115.8L29.23,102.96L34.11,78.66L38.98,70.09L43.85,65.09L48.72,81.49L53.6,73.65L58.47,72.93L63.34,54.35L68.21,51.52L73.09,62.19L77.96,57.19L82.83,55.8L87.7,58.64L92.58,47.18L97.45,61.47L102.32,60.81L107.19,48.63L112.07,52.18L116.94,51.52L121.81,55.8L126.68,48.63L131.56,56.47L136.43,67.92L141.3,56.47L146.17,49.35L151.05,41.51L155.92,57.19L160.79,53.63L165.66,54.35L170.54,42.23L175.41,54.35L180.28,48.63L185.15,51.52L190.03,52.18L194.9,50.8L199.77,52.91L204.64,48.63L209.52,48.63L214.39,44.34L219.26,43.62L224.13,47.18L229.01,110.8L233.88,101.51L238.75,114.36L243.62,42.23L248.5,47.9L253.37,51.52L258.24,44.34L263.11,35.06L267.99,45.07L272.86,37.23L277.73,45.79L282.6,44.34L287.48,42.23L292.35,43.62L297.22,39.34L302.09,39.34L306.97,35.06L311.84,37.89L316.71,45.07L321.58,35.78L326.46,43.62L331.33,45.79L336.2,32.95L341.07,36.5L345.95,40.06L350.82,36.5L355.69,46.51L360.56,37.23L365.44,37.89L370.31,36.5L375.18,37.89L380.05,40.06L384.93,42.9L389.8,39.34L399.54,38.62L404.42,37.89L414.16,31.5L419.03,40.79L423.91,42.23L428.78,41.51L433.65,42.23L438.52,39.34L448.27,35.06L453.14,37.23L458.01,33.61L462.89,27.94L472.63,28.6L477.5,33.61L482.38,30.05L487.25,35.06L492.12,38.62L496.99,32.95L501.87,26.49L506.74,25.77L511.61,30.05L516.48,30.05L521.36,29.33L526.23,36.5L531.1,35.06L535.97,37.23L545.72,33.61L550.59,42.9L555.46,41.51L560.34,91.5L565.21,37.23L570.08,41.51L579.83,40.79L584.7,42.9L589.57,42.9L594.44,35.06L599.32,42.9L604.19,40.06L609.06,35.78L613.93,30.05L623.68,31.5L628.55,29.33L633.42,33.61L638.3,40.06L643.17,39.34L648.04,34.33L652.91,34.33L657.79,30.05L662.66,30.78L667.53,30.05L672.4,29.33L677.28,24.32L682.15,29.33L687.02,30.78L691.89,34.33L696.77,27.22L701.64,26.49L706.51,30.78L711.38,27.22L716.26,32.22L721.13,33.61L726,26.49" style="vector-effect: none; fill: none; stroke: rgb(255, 0, 0); stroke-opacity: 1; stroke-width: 2px; opacity: 1;"/></g><g class="points"/><g class="text"/></g><g class="trace scatter trace00e084" style="stroke-miterlimit: 2; opacity: 1;"><g class="fills"/><g class="errorbars"/><g class="lines"><path class="js-line" d="M0,339.11L4.87,236.72L9.74,213.98L14.62,142.82L19.49,145.72L24.36,148.55L29.23,122.92L34.11,97.35L38.98,91.62L43.85,100.19L48.72,139.99L53.6,105.85L58.47,117.25L63.34,103.02L68.21,83.12L73.09,105.85L77.96,100.19L82.83,91.62L87.7,114.42L92.58,83.12L97.45,108.69L102.32,111.52L107.19,108.69L112.07,114.42L116.94,97.35L121.81,97.35L126.68,85.95L131.56,111.52L136.43,131.48L141.3,108.69L146.17,66.05L151.05,60.32L155.92,117.25L160.79,111.52L165.66,117.25L170.54,108.69L175.41,105.85L180.28,108.69L185.15,114.42L190.03,100.19L194.9,111.52L199.77,105.85L204.64,97.35L209.52,114.42L214.39,100.19L219.26,111.52L224.13,108.69L229.01,182.68L233.88,171.29L238.75,171.29L243.62,108.69L248.5,125.76L253.37,125.76L258.24,108.69L263.11,77.39L267.99,85.95L272.86,77.39L277.73,94.46L282.6,100.19L287.48,100.19L292.35,91.62L297.22,91.62L302.09,85.95L306.97,91.62L311.84,88.79L316.71,108.69L321.58,105.85L326.46,120.09L331.33,114.42L336.2,108.69L341.07,117.25L345.95,114.42L350.82,114.42L355.69,114.42L360.56,108.69L370.31,108.69L375.18,97.35L380.05,100.19L384.93,105.85L389.8,103.02L394.67,97.35L399.54,91.62L404.42,80.29L409.29,68.89L414.16,68.89L419.03,74.56L423.91,83.12L428.78,100.19L433.65,97.35L438.52,97.35L443.4,77.39L448.27,71.72L453.14,83.12L458.01,83.12L462.89,71.72L467.76,74.56L472.63,74.56L477.5,77.39L482.38,77.39L492.12,83.12L496.99,74.56L501.87,83.12L506.74,77.39L521.36,77.39L526.23,100.19L531.1,100.19L535.97,88.79L540.85,94.46L545.72,91.62L550.59,103.02L555.46,105.85L560.34,159.89L565.21,88.79L570.08,100.19L574.95,100.19L579.83,100.19L584.7,91.62L594.44,97.35L599.32,97.35L604.19,114.42L609.06,105.85L613.93,97.35L618.81,94.46L623.68,108.69L628.55,114.42L633.42,100.19L638.3,105.85L643.17,100.19L648.04,97.35L652.91,88.79L657.79,88.79L662.66,74.56L667.53,88.79L672.4,88.79L677.28,94.46L682.15,94.46L687.02,105.85L691.89,83.12L696.77,91.62L701.64,97.35L706.51,94.46L711.38,105.85L716.26,120.09L721.13,122.92L726,108.69" style="vector-effect: none; fill: none; stroke: rgb(0, 0, 255); stroke-opacity: 1; stroke-width: 2px; opacity: 1;"/></g><g class="points"/><g class="text"/></g><g class="trace scatter trace198d92" style="stroke-miterlimit: 2; opacity: 1;"><g class="fills"/><g class="errorbars"/><g class="lines"><path class="js-line" d="M0,187.02L4.87,142.22L9.74,145.6L14.62,98.44L19.49,85.53L24.36,91.32L29.23,85.89L34.11,65.75L38.98,73.05L43.85,67.56L48.72,75.34L53.6,69.91L58.47,65.87L63.34,53.51L68.21,51.58L73.09,60.08L77.96,59.12L82.83,57.79L87.7,60.38L92.58,49.41L97.45,58.88L102.32,58.64L107.19,49.59L112.07,50.92L116.94,49.47L121.81,54.9L126.68,50.07L136.43,63.04L141.3,54.66L146.17,52L151.05,43.86L155.92,55.5L160.79,53.39L165.66,54.23L170.54,42.41L175.41,52.67L180.28,47.24L190.03,52L194.9,49.77L199.77,50.92L204.64,48.5L209.52,48.99L214.39,45.61L219.26,45.31L224.13,48.32L229.01,86.26L233.88,81.61L238.75,85.95L243.62,43.38L248.5,48.14L253.37,51.82L263.11,37.53L267.99,46.88L272.86,39.52L277.73,47.54L287.48,42.23L292.35,43.86L297.22,40.54L302.09,40L306.97,35.9L311.84,39.28L316.71,45.91L321.58,38.07L326.46,44.65L331.33,46.88L336.2,35.06L341.07,38.25L345.95,41.63L350.82,38.49L355.69,45.73L360.56,37.95L365.44,39.28L370.31,37.35L380.05,40.79L384.93,43.68L389.8,40.54L394.67,40.36L399.54,39.16L404.42,39.4L414.16,33.43L419.03,42.41L423.91,43.56L428.78,41.81L433.65,41.75L438.52,39.34L448.27,36.26L453.14,38.13L458.01,35.66L462.89,29.87L472.63,30.35L477.5,35.12L482.38,31.74L487.25,37.17L492.12,40.06L496.99,35.42L501.87,28.85L506.74,28.18L511.61,32.46L516.48,32.28L521.36,31.32L526.23,37.53L531.1,36.38L535.97,38.49L540.85,36.32L545.72,35.42L550.59,43.02L555.46,41.63L560.34,73.71L565.21,37.95L570.08,41.15L574.95,41.03L579.83,41.21L584.7,43.02L589.57,42.29L594.44,36.26L599.32,43.44L604.19,40.79L609.06,37.23L613.93,32.28L623.68,33.19L628.55,30.96L633.42,34.82L638.3,40.97L643.17,41.03L648.04,36.32L652.91,36.08L657.79,31.98L662.66,32.77L667.53,32.1L672.4,31.32L677.28,25.89L682.15,30.35L687.02,31.44L691.89,35.6L696.77,29.45L701.64,28.91L706.51,33.07L711.38,28.79L716.26,33.25L721.13,35L726,28.66" style="vector-effect: none; fill: none; stroke: rgb(0, 128, 0); stroke-opacity: 1; stroke-width: 2px; opacity: 1;"/></g><g class="points"/><g class="text"/></g><g class="trace scatter trace57d294" style="stroke-miterlimit: 2; opacity: 1;"><g class="fills"/><g class="errorbars"/><g class="lines"><path class="js-line" d="M0,267.35L4.87,211.51L9.74,181.78L14.62,156.57L19.49,149.58L24.36,142.52L29.23,110.26L34.11,83.66L38.98,100.73L43.85,109.83L48.72,129.19L53.6,105.85L58.47,108.27L63.34,98.86L68.21,87.04L73.09,105.85L77.96,108.51L82.83,100.91L87.7,124.43L92.58,91.86L97.45,109.47L102.32,116.71L107.19,116.17L112.07,119L116.94,99.46L121.81,101.87L126.68,91.44L131.56,110.02L136.43,121.59L141.3,109.47L146.17,73.95L151.05,67.68L155.92,110.32L160.79,108.33L165.66,115.68L175.41,100.79L180.28,106.34L185.15,112.01L190.03,102.96L194.9,111.52L199.77,105.85L204.64,100.73L209.52,116.53L214.39,107.12L219.26,117.67L224.13,110.86L229.01,145.72L233.88,139.69L238.75,129.61L243.62,115.32L248.5,126.54L253.37,126.54L258.24,112.13L263.11,85.59L267.99,92.29L272.86,84.69L277.73,101.33L282.6,104.17L287.48,101.63L292.35,93.73L297.22,93.73L302.09,88.06L306.97,93.73L311.84,92.71L316.71,113.27L321.58,112.85L326.46,124.73L336.2,116.17L341.07,123.46L345.95,120.09L350.82,120.09L355.69,115.14L360.56,113.27L370.31,113.27L375.18,103.8L380.05,106.22L384.93,110.98L389.8,107.54L394.67,102.9L399.54,98.08L404.42,87.88L409.29,76.91L414.16,76.25L419.03,82.52L423.91,90.48L428.78,102.96L433.65,101.87L438.52,100.73L443.4,84.02L448.27,78.9L453.14,89.03L458.01,91.02L462.89,79.38L467.76,82.03L472.63,82.03L477.5,84.69L482.38,84.69L487.25,88.37L492.12,91.02L496.99,82.88L501.87,91.44L506.74,85.59L511.61,85.83L521.36,85.59L526.23,105.25L531.1,106.22L535.97,95.54L540.85,99.52L545.72,98.8L550.59,107.54L555.46,108.63L560.34,136.31L565.21,93.79L570.08,102.96L574.95,104.17L579.83,104.17L584.7,96.15L589.57,97.23L594.44,100.73L599.32,100.73L604.19,115.14L613.93,104.59L618.81,102.06L623.68,112.13L628.55,117.79L633.42,104.17L638.3,109.83L643.17,105.25L648.04,103.8L652.91,95.54L657.79,95.54L662.66,82.52L667.53,95.54L672.4,94.76L677.28,98.44L682.15,97.23L687.02,105.85L691.89,89.03L696.77,100.01L701.64,106.64L706.51,102.66L711.38,108.63L716.26,119.3L721.13,126.96L726,116.17" style="vector-effect: none; fill: none; stroke: rgb(255, 165, 0); stroke-opacity: 1; stroke-width: 2px; opacity: 1;"/></g><g class="points"/><g class="text"/></g><g class="trace scatter traceed9cce" style="stroke-miterlimit: 2; opacity: 1;"><g class="fills"/><g class="errorbars"/><g class="lines"><path class="js-line" d="M0,238.71L4.87,143.42L9.74,156.63L14.62,105.25L19.49,119.54L24.36,138L29.23,121.53L34.11,93.25L38.98,70.52L43.85,67.86L48.72,71.84L53.6,65.33L58.47,62.56L63.34,47.78L68.21,45.79L73.09,54.78L77.96,53.99L82.83,52.79L87.7,55.2L92.58,44.46L97.45,53.69L102.32,53.27L107.19,43.8L112.07,45.19L116.94,43.86L121.81,49.23L126.68,44.46L131.56,50.31L136.43,58.76L141.3,49.11L146.17,48.38L151.05,42.35L155.92,49.95L160.79,47.6L165.66,48.44L170.54,36.32L175.41,47.06L180.28,41.39L185.15,43.86L190.03,46.15L194.9,43.98L199.77,45.37L204.64,42.6L209.52,43.08L214.39,39.82L219.26,39.7L224.13,42.53L229.01,93.79L233.88,86.01L238.75,96.15L243.62,37.53L253.37,45.97L258.24,38.68L263.11,33.01L267.99,41.39L272.86,34.63L277.73,42.05L287.48,36.08L292.35,37.83L297.22,34.57L302.09,33.91L306.97,29.69L311.84,33.37L316.71,40L321.58,33.19L326.46,38.74L331.33,41.09L336.2,29.75L341.07,32.58L345.95,35.9L350.82,33.07L355.69,39.82L360.56,31.8L365.44,33.37L370.31,31.2L380.05,34.76L384.93,37.65L389.8,34.57L394.67,34.33L399.54,33.01L404.42,33.61L414.16,27.82L419.03,36.75L423.91,37.77L428.78,35.72L433.65,35.66L438.52,33.19L448.27,30.17L453.14,32.04L458.01,30.17L462.89,24.26L472.63,24.44L477.5,29.21L482.38,25.89L487.25,31.86L492.12,34.21L496.99,31.68L501.87,24.2L506.74,23.6L511.61,27.76L516.48,27.1L521.36,25.77L526.23,31.44L531.1,30.41L535.97,32.52L540.85,30.11L545.72,29.69L550.59,36.99L555.46,35.48L560.34,76.67L565.21,31.8L570.08,35L574.95,34.88L579.83,35.12L584.7,36.99L589.57,36.26L594.44,30.17L599.32,37.41L604.19,34.76L613.93,27.1L618.81,27.46L623.68,27.34L628.55,25.05L633.42,28.73L638.3,35L643.17,35.3L648.04,30.78L652.91,30.29L657.79,26.37L662.66,27.22L667.53,26.61L672.4,25.77L677.28,19.8L682.15,24.08L687.02,25.11L691.89,29.57L696.77,24.38L701.64,25.17L706.51,28.18L711.38,22.69L716.26,27.04L721.13,28.97L726,23.3" style="vector-effect: none; fill: none; stroke: rgb(128, 0, 128); stroke-opacity: 1; stroke-width: 2px; opacity: 1;"/></g><g class="points"/><g class="text"/></g><g class="trace scatter trace41ec89" style="stroke-miterlimit: 2; opacity: 1;"><g class="fills"/><g class="errorbars"/><g class="lines"><path class="js-line" d="M0,269.94L4.87,211.51L9.74,183.83L14.62,166.34L19.49,187.99L24.36,198.3L29.23,165.13L38.98,95.18L43.85,111.58L48.72,120.51L53.6,93.49L58.47,97.65L63.34,86.38L68.21,73.89L73.09,93.49L77.96,100.31L82.83,96.75L87.7,119.6L92.58,90.05L97.45,97.35L102.32,106.1L112.07,108.33L116.94,86.74L121.81,89.99L126.68,79.38L131.56,98.02L136.43,112.13L141.3,97.35L146.17,70.03L151.05,65.57L155.92,99.28L160.79,96.39L165.66,104.11L175.41,88.67L180.28,94.1L185.15,100.25L190.03,90.6L194.9,99.58L199.77,93.49L204.64,88.37L209.52,105.07L214.39,97.05L219.26,107.66L224.13,98.98L229.01,149.39L233.88,140.41L238.75,135.52L243.62,105.43L248.5,115.68L253.37,115.68L258.24,100.61L263.11,77.45L267.99,80.95L272.86,74.19L277.73,90.96L282.6,92.23L287.48,88.97L292.35,80.65L297.22,80.65L302.09,74.5L306.97,80.65L311.84,79.98L316.71,102.18L321.58,103.2L326.46,114.42L331.33,109.96L336.2,107.06L341.07,113.81L345.95,109.96L350.82,109.96L355.69,103.44L360.56,102.18L365.44,102.18L370.31,102.18L375.18,93.19L380.05,95.42L384.93,99.94L394.67,91.56L399.54,87.1L409.29,69.07L414.16,65.87L423.91,80.35L428.78,90.6L433.65,89.99L438.52,88.37L443.4,72.63L448.27,68.1L453.14,77.09L458.01,81.97L462.89,69.73L467.76,71.96L472.63,71.96L477.5,74.19L482.38,74.19L487.25,79.68L492.12,81.97L496.99,80.04L501.87,83.54L506.74,77.45L511.61,79.08L516.48,79.08L521.36,77.45L526.23,93.85L531.1,95.42L535.97,84.81L540.85,87.7L545.72,88.73L550.59,96.09L555.46,96.75L560.34,132.99L565.21,81.61L570.08,90.6L574.95,92.23L579.83,92.23L584.7,83.84L589.57,84.51L594.44,88.37L599.32,88.37L604.19,103.44L609.06,98.32L613.93,94.82L618.81,92.59L623.68,100.61L628.55,106.7L633.42,92.23L638.3,98.32L643.17,93.85L648.04,93.19L652.91,84.81L657.79,84.81L662.66,73.59L667.53,84.81L672.4,83.24L677.28,86.07L682.15,84.51L687.02,93.49L691.89,77.09L696.77,91.92L701.64,101.27L706.51,94.16L711.38,96.75L716.26,107.97L721.13,116.71L726,107.06" style="vector-effect: none; fill: none; stroke: rgb(255, 192, 203); stroke-opacity: 1; stroke-width: 2px; opacity: 1;"/></g><g class="points"/><g class="text"/></g><g class="trace scatter trace535b95" style="stroke-miterlimit: 2; opacity: 1;"><g class="fills"/><g class="errorbars"/><g class="lines"><path class="js-line" d="M0,312.04L4.87,155.85L9.74,177.38L14.62,102.96L19.49,115.26L24.36,135.58L29.23,117.31L34.11,87.82L38.98,72.02L43.85,67.68L48.72,81.61L53.6,73.89L58.47,73.05L63.34,54.78L68.21,52.06L73.09,62.56L77.96,58.21L82.83,56.83L87.7,59.6L92.58,48.2L97.45,61.83L102.32,61.11L107.19,49.29L112.07,52.61L116.94,51.82L121.81,56.22L126.68,49.41L131.56,57.01L136.43,68.1L141.3,56.83L146.17,50.74L151.05,43.14L155.92,57.61L160.79,54.17L165.66,54.9L170.54,42.72L175.41,54.72L180.28,48.99L185.15,51.82L190.03,52.73L194.9,51.22L199.77,53.27L204.64,49.17L209.52,49.23L214.39,45.07L219.26,44.4L224.13,47.9L229.01,111.1L233.88,101.63L238.75,114.9L243.62,42.84L248.5,48.44L253.37,52.06L258.24,44.89L263.11,36.08L267.99,45.91L272.86,38.13L277.73,46.58L282.6,44.89L287.48,42.66L292.35,44.16L297.22,40L302.09,39.88L306.97,35.6L311.84,38.55L316.71,45.67L321.58,36.69L326.46,44.28L331.33,46.45L336.2,33.73L341.07,37.23L345.95,40.79L350.82,37.29L355.69,46.94L360.56,37.77L365.44,38.55L370.31,37.05L380.05,40.61L384.93,43.5L389.8,40L394.67,39.94L404.42,38.62L409.29,35.12L414.16,32.22L419.03,41.51L423.91,42.9L428.78,41.99L433.65,42.66L438.52,39.82L448.27,35.66L453.14,37.77L458.01,34.39L462.89,28.6L472.63,29.27L477.5,34.27L482.38,30.72L487.25,35.9L492.12,39.34L496.99,34.03L501.87,27.34L506.74,26.67L511.61,30.96L516.48,30.9L521.36,30.05L526.23,37.05L531.1,35.66L535.97,37.83L545.72,34.33L550.59,43.44L555.46,41.99L560.34,91.56L565.21,37.77L570.08,41.93L579.83,41.33L584.7,43.44L589.57,43.32L594.44,35.66L599.32,43.5L604.19,40.61L609.06,36.44L613.93,30.9L623.68,32.16L628.55,29.99L633.42,34.21L638.3,40.67L643.17,40.06L648.04,35.12L652.91,35.06L657.79,30.78L662.66,31.5L667.53,30.78L672.4,30.05L677.28,24.93L682.15,29.87L687.02,31.26L691.89,34.94L696.77,28L701.64,27.52L706.51,31.62L711.38,27.82L716.26,32.77L721.13,34.27L726,27.22" style="vector-effect: none; fill: none; stroke: rgb(165, 42, 42); stroke-opacity: 1; stroke-width: 2px; opacity: 1;"/></g><g class="points"/><g class="text"/></g><g class="trace scatter trace29bef9" style="stroke-miterlimit: 2; opacity: 1;"><g class="fills"/><g class="errorbars"/><g class="lines"><path class="js-line" d="M0,376.2L4.87,236.72L9.74,214.04L14.62,163.39L19.49,186.6L24.36,201.14L29.23,160.49L34.11,123.28L38.98,98.56L43.85,110.74L48.72,140.95L53.6,108.27L58.47,118.34L63.34,104.59L68.21,86.14L73.09,108.27L77.96,106.04L82.83,99.16L87.7,122.56L92.58,91.02L97.45,111.34L102.32,115.8L107.19,114.12L112.07,118.46L116.94,100.13L121.81,100.91L126.68,89.63L131.56,113.75L136.43,132.51L141.3,111.34L146.17,72.2L151.05,66.66L155.92,118.58L160.79,113.39L165.66,119.48L170.54,110.98L175.41,107.36L180.28,110.68L185.15,116.47L190.03,103.2L194.9,114.06L199.77,108.27L204.64,100.49L209.52,117.55L214.39,105.01L219.26,116.29L224.13,111.76L229.01,182.8L233.88,171.29L238.75,171.53L243.62,113.57L248.5,128.77L253.37,128.77L258.24,112.19L263.11,82.76L267.99,90.05L272.86,81.85L277.73,99.1L282.6,103.62L287.48,102.84L292.35,94.34L297.22,94.34L302.09,88.49L306.97,94.34L311.84,91.92L316.71,112.61L321.58,110.92L326.46,124.31L331.33,118.94L336.2,114.12L341.07,122.14L345.95,118.94L350.82,118.94L355.69,117.19L360.56,112.61L370.31,112.61L375.18,101.81L380.05,104.53L384.93,109.9L389.8,106.76L394.67,101.33L399.54,95.9L404.42,85.05L409.29,74.01L414.16,73.17L419.03,79.56L423.91,87.76L428.78,103.2L433.65,100.91L438.52,100.49L443.4,81.43L448.27,75.88L453.14,86.86L458.01,88.25L462.89,76.37L467.76,79.08L472.63,79.08L477.5,81.85L482.38,81.85L492.12,88.25L496.99,81.61L501.87,88.73L506.74,82.76L516.48,83.24L521.36,82.76L526.23,104.05L531.1,104.53L535.97,93.19L540.85,98.2L545.72,96.39L550.59,106.76L555.46,109.05L560.34,160.01L565.21,92.35L570.08,103.2L579.83,103.62L584.7,95.06L594.44,100.49L599.32,100.49L604.19,117.19L609.06,109.47L613.93,102.3L618.81,99.58L623.68,112.19L628.55,117.98L633.42,103.62L638.3,109.47L643.17,104.05L648.04,101.81L652.91,93.19L657.79,93.19L662.66,79.56L667.53,93.19L672.4,92.77L677.28,97.77L682.15,97.41L687.02,108.27L691.89,86.86L696.77,97.41L701.64,104.53L706.51,100.13L711.38,109.05L716.26,122.56L721.13,126.96L726,114.12" style="vector-effect: none; fill: none; stroke: rgb(128, 128, 128); stroke-opacity: 1; stroke-width: 2px; opacity: 1;"/></g><g class="points"/><g class="text"/></g></g></g><g class="overplot"/><path class="xlines-above crisp" d="M0,0" style="fill: none;"/><path class="ylines-above crisp" d="M0,0" style="fill: none;"/><g class="overlines-above"/><g class="xaxislayer-above"><g class="xtick"><text text-anchor="middle" x="0" y="509" transform="translate(235.57999999999998,0)" style="font-family: 'Open Sans', verdana, arial, sans-serif; font-size: 12px; fill: rgb(42, 63, 95); fill-opacity: 1; white-space: pre; opacity: 1;">20</text></g><g class="xtick"><text text-anchor="middle" x="0" y="509" style="font-family: 'Open Sans', verdana, arial, sans-serif; font-size: 12px; fill: rgb(42, 63, 95); fill-opacity: 1; white-space: pre; opacity: 1;" transform="translate(333.03,0)">40</text></g><g class="xtick"><text text-anchor="middle" x="0" y="509" style="font-family: 'Open Sans', verdana, arial, sans-serif; font-size: 12px; fill: rgb(42, 63, 95); fill-opacity: 1; white-space: pre; opacity: 1;" transform="translate(430.48,0)">60</text></g><g class="xtick"><text text-anchor="middle" x="0" y="509" style="font-family: 'Open Sans', verdana, arial, sans-serif; font-size: 12px; fill: rgb(42, 63, 95); fill-opacity: 1; white-space: pre; opacity: 1;" transform="translate(527.9300000000001,0)">80</text></g><g class="xtick"><text text-anchor="middle" x="0" y="509" style="font-family: 'Open Sans', verdana, arial, sans-serif; font-size: 12px; fill: rgb(42, 63, 95); fill-opacity: 1; white-space: pre; opacity: 1;" transform="translate(625.38,0)">100</text></g><g class="xtick"><text text-anchor="middle" x="0" y="509" style="font-family: 'Open Sans', verdana, arial, sans-serif; font-size: 12px; fill: rgb(42, 63, 95); fill-opacity: 1; white-space: pre; opacity: 1;" transform="translate(722.83,0)">120</text></g><g class="xtick"><text text-anchor="middle" x="0" y="509" style="font-family: 'Open Sans', verdana, arial, sans-serif; font-size: 12px; fill: rgb(42, 63, 95); fill-opacity: 1; white-space: pre; opacity: 1;" transform="translate(820.28,0)">140</text></g></g><g class="yaxislayer-above"><g class="ytick"><text text-anchor="end" x="142" y="4.199999999999999" transform="translate(0,491.46)" style="font-family: 'Open Sans', verdana, arial, sans-serif; font-size: 12px; fill: rgb(42, 63, 95); fill-opacity: 1; white-space: pre; opacity: 1;">30</text></g><g class="ytick"><text text-anchor="end" x="142" y="4.199999999999999" style="font-family: 'Open Sans', verdana, arial, sans-serif; font-size: 12px; fill: rgb(42, 63, 95); fill-opacity: 1; white-space: pre; opacity: 1;" transform="translate(0,431.15)">40</text></g><g class="ytick"><text text-anchor="end" x="142" y="4.199999999999999" style="font-family: 'Open Sans', verdana, arial, sans-serif; font-size: 12px; fill: rgb(42, 63, 95); fill-opacity: 1; white-space: pre; opacity: 1;" transform="translate(0,370.85)">50</text></g><g class="ytick"><text text-anchor="end" x="142" y="4.199999999999999" style="font-family: 'Open Sans', verdana, arial, sans-serif; font-size: 12px; fill: rgb(42, 63, 95); fill-opacity: 1; white-space: pre; opacity: 1;" transform="translate(0,310.53999999999996)">60</text></g><g class="ytick"><text text-anchor="end" x="142" y="4.199999999999999" style="font-family: 'Open Sans', verdana, arial, sans-serif; font-size: 12px; fill: rgb(42, 63, 95); fill-opacity: 1; white-space: pre; opacity: 1;" transform="translate(0,250.24)">70</text></g><g class="ytick"><text text-anchor="end" x="142" y="4.199999999999999" style="font-family: 'Open Sans', verdana, arial, sans-serif; font-size: 12px; fill: rgb(42, 63, 95); fill-opacity: 1; white-space: pre; opacity: 1;" transform="translate(0,189.93)">80</text></g><g class="ytick"><text text-anchor="end" x="142" y="4.199999999999999" style="font-family: 'Open Sans', verdana, arial, sans-serif; font-size: 12px; fill: rgb(42, 63, 95); fill-opacity: 1; white-space: pre; opacity: 1;" transform="translate(0,129.63)">90</text></g></g><g class="overaxes-above"/></g></g><g class="polarlayer"/><g class="smithlayer"/><g class="ternarylayer"/><g class="geolayer"/><g class="funnelarealayer"/><g class="pielayer"/><g class="iciclelayer"/><g class="treemaplayer"/><g class="sunburstlayer"/><g class="glimages"/><defs id="topdefs-56bf21"><g class="clips"/><clipPath id="legend56bf21"><rect width="128" height="162" x="0" y="0"/></clipPath></defs><g class="layer-above"><g class="imagelayer"/><g class="shapelayer"/></g><g class="infolayer"><g class="legend" pointer-events="all" transform="translate(883.52,100)"><rect class="bg" shape-rendering="crispEdges" width="128" height="162" x="0" y="0" style="stroke: rgb(68, 68, 68); stroke-opacity: 1; fill: rgb(255, 255, 255); fill-opacity: 1; stroke-width: 0px;"/><g class="scrollbox" transform="" clip-path="url(#legend56bf21)"><g class="groups"><g class="traces" transform="translate(0,14.5)" style="opacity: 1;"><text class="legendtext" text-anchor="start" x="40" y="4.680000000000001" style="font-family: 'Open Sans', verdana, arial, sans-serif; font-size: 12px; fill: rgb(42, 63, 95); fill-opacity: 1; white-space: pre;">Train Accuracy</text><g class="layers" style="opacity: 1;"><g class="legendfill"/><g class="legendlines"><path class="js-line" d="M5,0h30" style="fill: none; stroke: rgb(255, 0, 0); stroke-opacity: 1; stroke-width: 2px;"/></g><g class="legendsymbols"><g class="legendpoints"/></g></g><rect class="legendtoggle" x="0" y="-9.5" width="122.71875" height="19" style="fill: rgb(0, 0, 0); fill-opacity: 0;"/></g><g class="traces" transform="translate(0,33.5)" style="opacity: 1;"><text class="legendtext" text-anchor="start" x="40" y="4.680000000000001" style="font-family: 'Open Sans', verdana, arial, sans-serif; font-size: 12px; fill: rgb(42, 63, 95); fill-opacity: 1; white-space: pre;">Test Accuracy</text><g class="layers" style="opacity: 1;"><g class="legendfill"/><g class="legendlines"><path class="js-line" d="M5,0h30" style="fill: none; stroke: rgb(0, 0, 255); stroke-opacity: 1; stroke-width: 2px;"/></g><g class="legendsymbols"><g class="legendpoints"/></g></g><rect class="legendtoggle" x="0" y="-9.5" width="122.71875" height="19" style="fill: rgb(0, 0, 0); fill-opacity: 0;"/></g><g class="traces" transform="translate(0,52.5)" style="opacity: 1;"><text class="legendtext" text-anchor="start" x="40" y="4.680000000000001" style="font-family: 'Open Sans', verdana, arial, sans-serif; font-size: 12px; fill: rgb(42, 63, 95); fill-opacity: 1; white-space: pre;">Train Precision</text><g class="layers" style="opacity: 1;"><g class="legendfill"/><g class="legendlines"><path class="js-line" d="M5,0h30" style="fill: none; stroke: rgb(0, 128, 0); stroke-opacity: 1; stroke-width: 2px;"/></g><g class="legendsymbols"><g class="legendpoints"/></g></g><rect class="legendtoggle" x="0" y="-9.5" width="122.71875" height="19" style="fill: rgb(0, 0, 0); fill-opacity: 0;"/></g><g class="traces" transform="translate(0,71.5)" style="opacity: 1;"><text class="legendtext" text-anchor="start" x="40" y="4.680000000000001" style="font-family: 'Open Sans', verdana, arial, sans-serif; font-size: 12px; fill: rgb(42, 63, 95); fill-opacity: 1; white-space: pre;">Test Precision</text><g class="layers" style="opacity: 1;"><g class="legendfill"/><g class="legendlines"><path class="js-line" d="M5,0h30" style="fill: none; stroke: rgb(255, 165, 0); stroke-opacity: 1; stroke-width: 2px;"/></g><g class="legendsymbols"><g class="legendpoints"/></g></g><rect class="legendtoggle" x="0" y="-9.5" width="122.71875" height="19" style="fill: rgb(0, 0, 0); fill-opacity: 0;"/></g><g class="traces" transform="translate(0,90.5)" style="opacity: 1;"><text class="legendtext" text-anchor="start" x="40" y="4.680000000000001" style="font-family: 'Open Sans', verdana, arial, sans-serif; font-size: 12px; fill: rgb(42, 63, 95); fill-opacity: 1; white-space: pre;">Train Recall</text><g class="layers" style="opacity: 1;"><g class="legendfill"/><g class="legendlines"><path class="js-line" d="M5,0h30" style="fill: none; stroke: rgb(128, 0, 128); stroke-opacity: 1; stroke-width: 2px;"/></g><g class="legendsymbols"><g class="legendpoints"/></g></g><rect class="legendtoggle" x="0" y="-9.5" width="122.71875" height="19" style="fill: rgb(0, 0, 0); fill-opacity: 0;"/></g><g class="traces" transform="translate(0,109.5)" style="opacity: 1;"><text class="legendtext" text-anchor="start" x="40" y="4.680000000000001" style="font-family: 'Open Sans', verdana, arial, sans-serif; font-size: 12px; fill: rgb(42, 63, 95); fill-opacity: 1; white-space: pre;">Test Recall</text><g class="layers" style="opacity: 1;"><g class="legendfill"/><g class="legendlines"><path class="js-line" d="M5,0h30" style="fill: none; stroke: rgb(255, 192, 203); stroke-opacity: 1; stroke-width: 2px;"/></g><g class="legendsymbols"><g class="legendpoints"/></g></g><rect class="legendtoggle" x="0" y="-9.5" width="122.71875" height="19" style="fill: rgb(0, 0, 0); fill-opacity: 0;"/></g><g class="traces" transform="translate(0,128.5)" style="opacity: 1;"><text class="legendtext" text-anchor="start" x="40" y="4.680000000000001" style="font-family: 'Open Sans', verdana, arial, sans-serif; font-size: 12px; fill: rgb(42, 63, 95); fill-opacity: 1; white-space: pre;">Train F1</text><g class="layers" style="opacity: 1;"><g class="legendfill"/><g class="legendlines"><path class="js-line" d="M5,0h30" style="fill: none; stroke: rgb(165, 42, 42); stroke-opacity: 1; stroke-width: 2px;"/></g><g class="legendsymbols"><g class="legendpoints"/></g></g><rect class="legendtoggle" x="0" y="-9.5" width="122.71875" height="19" style="fill: rgb(0, 0, 0); fill-opacity: 0;"/></g><g class="traces" transform="translate(0,147.5)" style="opacity: 1;"><text class="legendtext" text-anchor="start" x="40" y="4.680000000000001" style="font-family: 'Open Sans', verdana, arial, sans-serif; font-size: 12px; fill: rgb(42, 63, 95); fill-opacity: 1; white-space: pre;">Test F1</text><g class="layers" style="opacity: 1;"><g class="legendfill"/><g class="legendlines"><path class="js-line" d="M5,0h30" style="fill: none; stroke: rgb(128, 128, 128); stroke-opacity: 1; stroke-width: 2px;"/></g><g class="legendsymbols"><g class="legendpoints"/></g></g><rect class="legendtoggle" x="0" y="-9.5" width="122.71875" height="19" style="fill: rgb(0, 0, 0); fill-opacity: 0;"/></g></g></g><rect class="scrollbar" rx="20" ry="3" width="0" height="0" x="0" y="0" style="fill: rgb(128, 139, 164); fill-opacity: 1;"/></g><g class="g-gtitle"><text class="gtitle" x="51.2" y="50" text-anchor="start" dy="0em" style="font-family: 'Open Sans', verdana, arial, sans-serif; font-size: 17px; fill: rgb(42, 63, 95); opacity: 1; font-weight: normal; white-space: pre;">Training Metrics - logs/FakeNewsNet-politifact_max-vocab=15000_pre=v1_text_domain_T=50_s=15.log</text></g><g class="g-xtitle"><text class="xtitle" x="506" y="537.3" text-anchor="middle" style="font-family: 'Open Sans', verdana, arial, sans-serif; font-size: 14px; fill: rgb(42, 63, 95); opacity: 1; font-weight: normal; white-space: pre;">Epoch</text></g><g class="g-ytitle"><text class="ytitle" transform="rotate(-90,103.965625,298)" x="103.965625" y="298" text-anchor="middle" style="font-family: 'Open Sans', verdana, arial, sans-serif; font-size: 14px; fill: rgb(42, 63, 95); opacity: 1; font-weight: normal; white-space: pre;">Metric Score</text></g></g><g class="menulayer"><g class="updatemenu-container" style="cursor: pointer;"><g class="updatemenu-header-group" transform="translate(12,60)"><g class="updatemenu-header" transform="translate(1,1)" style="pointer-events: all;"><rect class="updatemenu-item-rect" rx="2" ry="2" shape-rendering="crispEdges" x="0" y="0" width="167" height="33" style="stroke: rgb(190, 200, 217); stroke-opacity: 1; fill: rgb(255, 255, 255); fill-opacity: 1; stroke-width: 1px;"/><text class="updatemenu-item-text" text-anchor="start" data-notex="1" x="12" y="19.5" style="font-family: 'Open Sans', verdana, arial, sans-serif; font-size: 12px; fill: rgb(42, 63, 95); fill-opacity: 1; white-space: pre;">All</text></g><text class="updatemenu-header-arrow" text-anchor="end" x="163" y="19.5" style="font-family: 'Open Sans', verdana, arial, sans-serif; font-size: 12px; fill: rgb(42, 63, 95); fill-opacity: 1;">▼</text></g><g class="updatemenu-dropdown-button-group" updatemenu-active-index="-1" style="pointer-events: all;"><rect class="scrollbox-bg" opacity="0" x="0" y="0" width="0" height="0" style="pointer-events: all;"/></g></g></g></svg>