<svg class="main-svg" xmlns="http://www.w3.org/2000/svg" xmlns:xlink="http://www.w3.org/1999/xlink" width="1024" height="576" style="" viewBox="0 0 1024 576"><rect x="0" y="0" width="1024" height="576" style="fill: rgb(255, 255, 255); fill-opacity: 1;"/><defs id="defs-6674e4"><g class="clips"><clipPath id="clip6674e4xyplot" class="plotclip"><rect width="726" height="396"/></clipPath><clipPath class="axesclip" id="clip6674e4x"><rect x="143" y="0" width="726" height="576"/></clipPath><clipPath class="axesclip" id="clip6674e4y"><rect x="0" y="100" width="1024" height="396"/></clipPath><clipPath class="axesclip" id="clip6674e4xy"><rect x="143" y="100" width="726" height="396"/></clipPath></g><g class="gradients"/><g class="patterns"/></defs><g class="bglayer"><rect class="bg" x="143" y="100" width="726" height="396" style="fill: rgb(229, 236, 246); fill-opacity: 1; stroke-width: 0;"/></g><g class="layer-below"><g class="imagelayer"/><g class="shapelayer"/></g><g class="cartesianlayer"><g class="subplot xy"><g class="layer-subplot"><g class="shapelayer"/><g class="imagelayer"/></g><g class="minor-gridlayer"><g class="x"/><g class="y"/></g><g class="gridlayer"><g class="x"><path class="xgrid crisp" transform="translate(235.57999999999998,0)" d="M0,100v396" style="stroke: rgb(255, 255, 255); stroke-opacity: 1; stroke-width: 1px;"/><path class="xgrid crisp" transform="translate(333.03,0)" d="M0,100v396" style="stroke: rgb(255, 255, 255); stroke-opacity: 1; stroke-width: 1px;"/><path class="xgrid crisp" transform="translate(430.48,0)" d="M0,100v396" style="stroke: rgb(255, 255, 255); stroke-opacity: 1; stroke-width: 1px;"/><path class="xgrid crisp" transform="translate(527.9300000000001,0)" d="M0,100v396" style="stroke: rgb(255, 255, 255); stroke-opacity: 1; stroke-width: 1px;"/><path class="xgrid crisp" transform="translate(625.38,0)" d="M0,100v396" style="stroke: rgb(255, 255, 255); stroke-opacity: 1; stroke-width: 1px;"/><path class="xgrid crisp" transform="translate(722.83,0)" d="M0,100v396" style="stroke: rgb(255, 255, 255); stroke-opacity: 1; stroke-width: 1px;"/><path class="xgrid crisp" transform="translate(820.28,0)" d="M0,100v396" style="stroke: rgb(255, 255, 255); stroke-opacity: 1; stroke-width: 1px;"/></g><g class="y"><path class="ygrid crisp" transform="translate(0,455.12)" d="M143,0h726" style="stroke: rgb(255, 255, 255); stroke-opacity: 1; stroke-width: 1px;"/><path class="ygrid crisp" transform="translate(0,383.89)" d="M143,0h726" style="stroke: rgb(255, 255, 255); stroke-opacity: 1; stroke-width: 1px;"/><path class="ygrid crisp" transform="translate(0,312.66999999999996)" d="M143,0h726" style="stroke: rgb(255, 255, 255); stroke-opacity: 1; stroke-width: 1px;"/><path class="ygrid crisp" transform="translate(0,241.45)" d="M143,0h726" style="stroke: rgb(255, 255, 255); stroke-opacity: 1; stroke-width: 1px;"/><path class="ygrid crisp" transform="translate(0,170.23000000000002)" d="M143,0h726" style="stroke: rgb(255, 255, 255); stroke-opacity: 1; stroke-width: 1px;"/></g></g><g class="zerolinelayer"/><path class="xlines-below"/><path class="ylines-below"/><g class="overlines-below"/><g class="xaxislayer-below"/><g class="yaxislayer-below"/><g class="overaxes-below"/><g class="plot" transform="translate(143,100)" clip-path="url(#clip6674e4xyplot)"><g class="scatterlayer mlayer"><g class="trace scatter trace3010b1" style="stroke-miterlimit: 2; opacity: 1;"><g class="fills"/><g class="errorbars"/><g class="lines"><path class="js-line" d="M0,370.07L4.87,317.37L9.74,289.59L14.62,270.93L19.49,247.57L24.36,231.76L29.23,237.74L34.11,214.81L38.98,226.63L43.85,212.24L48.72,215.66L58.47,223.36L63.34,205.83L68.21,209.68L73.09,198.43L77.96,209.4L82.83,202.13L87.7,202.84L92.58,189.03L97.45,202.99L102.32,200.85L107.19,201.85L112.07,201.7L116.94,203.98L121.81,196.29L126.68,195.86L131.56,200.99L141.3,192.3L146.17,177.06L151.05,174.5L155.92,167.52L160.79,161.25L165.66,153.41L170.54,158.4L175.41,168.23L180.28,165.95L185.15,169.51L190.03,158.83L194.9,154.13L199.77,157.69L204.64,150.28L209.52,142.73L214.39,148.86L219.26,137.46L224.13,140.17L229.01,142.45L233.88,148.57L238.75,156.69L243.62,159.25L248.5,157.4L253.37,158.4L258.24,159.82L263.11,156.26L267.99,154.41L272.86,147.86L277.73,142.02L282.6,141.73L287.48,132.33L292.35,131.76L297.22,136.32L302.09,139.45L306.97,146.58L311.84,145.86L316.71,149.43L321.58,150L326.46,145.44L331.33,138.03L341.07,148.71L345.95,130.05L350.82,136.32L355.69,135.75L360.56,128.91L365.44,133.19L370.31,147L375.18,137.89L380.05,133.61L384.93,136.18L389.8,134.18L394.67,139.45L399.54,128.06L404.42,137.6L409.29,142.73L414.16,146.72L419.03,155.69L423.91,145.15L428.78,144.87L433.65,149.28L438.52,144.87L443.4,151.85L453.14,150.71L458.01,152.56L462.89,152.42L467.76,145.72L472.63,137.75L477.5,141.31L482.38,137.89L487.25,143.59L492.12,141.73L496.99,148.71L501.87,147.15L506.74,148.86L511.61,159.25L516.48,155.98L521.36,155.98L526.23,144.58L531.1,148.86L535.97,140.02L540.85,130.05L545.72,131.05L550.59,130.62L555.46,122.65L560.34,132.33L565.21,125.92L570.08,127.35L574.95,134.18L584.7,117.38L589.57,119.37L594.44,111.54L599.32,121.22L604.19,124.36L609.06,118.52L613.93,123.79L618.81,124.36L628.55,130.2L633.42,126.21L638.3,127.06L643.17,134.18L648.04,133.9L652.91,132.62L657.79,137.6L662.66,131.34L667.53,124.93L672.4,124.5L677.28,122.08L682.15,125.92L687.02,132.76L691.89,124.36L701.64,118.37L706.51,124.5L711.38,123.07L716.26,123.07L721.13,128.63L726,125.35" style="vector-effect: none; fill: none; stroke: rgb(255, 0, 0); stroke-opacity: 1; stroke-width: 2px; opacity: 1;"/></g><g class="points"/><g class="text"/></g><g class="trace scatter trace11038b" style="stroke-miterlimit: 2; opacity: 1;"><g class="fills"/><g class="errorbars"/><g class="lines"><path class="js-line" d="M0,366.09L4.87,322.64L9.74,297.57L14.62,285.89L19.49,253.13L24.36,236.03L29.23,246.72L34.11,232.9L38.98,233.47L43.85,221.65L48.72,230.34L53.6,231.62L58.47,235.18L63.34,214.24L68.21,216.52L73.09,219.37L77.96,225.49L82.83,223.21L87.7,231.62L92.58,205.55L97.45,213.95L102.32,213.24L107.19,214.52L116.94,216.52L121.81,225.21L126.68,219.65L131.56,219.94L136.43,212.96L141.3,201.42L151.05,186.89L155.92,182.76L160.79,174.92L165.66,171.79L170.54,183.61L175.41,190.74L180.28,189.74L185.15,190.45L190.03,182.76L194.9,179.2L199.77,174.35L204.64,166.23L209.52,157.97L214.39,161.11L219.26,154.7L224.13,150.57L229.01,154.98L233.88,160.54L243.62,176.21L248.5,166.66L253.37,173.64L258.24,179.2L263.11,176.63L267.99,175.64L272.86,170.51L277.73,166.66L282.6,160.11L287.48,149.85L297.22,153.7L302.09,156.69L311.84,169.23L316.71,172.36L326.46,174.64L331.33,165.38L336.2,167.52L341.07,170.51L345.95,153.13L350.82,161.11L355.69,161.39L360.56,154.41L365.44,163.39L370.31,178.77L380.05,161.11L384.93,165.38L389.8,162.1L394.67,161.11L399.54,151.85L404.42,157.97L409.29,170.79L414.16,165.95L419.03,170.51L423.91,165.66L433.65,158.54L438.52,159.25L443.4,158.54L448.27,164.1L458.01,164.95L462.89,167.23L472.63,159.25L477.5,160.11L482.38,148.86L487.25,155.98L492.12,154.7L496.99,160.54L501.87,166.23L506.74,165.66L511.61,175.92L516.48,178.77L521.36,171.79L526.23,158.54L531.1,169.51L535.97,150.85L540.85,147.29L545.72,157.26L550.59,158.83L555.46,149.28L560.34,150.14L565.21,143.73L570.08,144.44L574.95,143.44L579.83,138.32L584.7,137.32L589.57,142.45L594.44,133.47L599.32,140.59L604.19,135.75L609.06,133.76L613.93,142.16L618.81,143.16L623.68,155.41L628.55,150.85L633.42,149.28L638.3,149.57L643.17,153.13L648.04,150.14L652.91,150.14L657.79,154.98L662.66,155.98L667.53,152.13L672.4,141.88L677.28,139.6L682.15,139.31L687.02,141.88L691.89,138.32L696.77,143.73L701.64,139.31L706.51,144.73L711.38,145.01L716.26,145.44L721.13,150.14L726,141.16" style="vector-effect: none; fill: none; stroke: rgb(0, 0, 255); stroke-opacity: 1; stroke-width: 2px; opacity: 1;"/></g><g class="points"/><g class="text"/></g><g class="trace scatter trace02dbb0" style="stroke-miterlimit: 2; opacity: 1;"><g class="fills"/><g class="errorbars"/><g class="lines"><path class="js-line" d="M0,231.9L4.87,200.85L9.74,189.31L14.62,180.05L19.49,176.78L24.36,169.94L29.23,168.37L34.11,161.82L38.98,159.82L43.85,152.7L48.72,155.55L58.47,152.13L63.34,147.72L68.21,151.28L73.09,146.01L77.96,145.44L82.83,143.02L87.7,146.58L92.58,143.73L97.45,145.86L102.32,144.01L107.19,143.3L112.07,143.44L116.94,144.3L121.81,139.6L126.68,137.89L131.56,138.17L136.43,136.61L141.3,136.61L146.17,131.05L151.05,130.77L155.92,129.91L160.79,126.92L165.66,125.64L170.54,128.63L175.41,133.04L180.28,131.62L185.15,131.62L190.03,126.78L199.77,124.5L204.64,120.65L209.52,118.94L214.39,121.36L219.26,118.23L224.13,118.8L233.88,124.78L238.75,126.35L243.62,125.78L248.5,123.93L253.37,125.07L258.24,127.06L263.11,124.93L267.99,124.64L277.73,120.22L282.6,120.51L287.48,116.09L292.35,116.38L297.22,116.09L302.09,118.23L306.97,121.36L311.84,121.36L316.71,122.36L321.58,122.5L326.46,120.94L331.33,117.23L341.07,121.51L345.95,115.24L350.82,116.66L355.69,116.09L360.56,111.68L365.44,114.38L370.31,119.37L375.18,117.52L380.05,115.24L384.93,118.23L389.8,116.52L394.67,117.95L399.54,115.1L404.42,117.23L409.29,117.09L414.16,119.51L419.03,123.64L423.91,120.08L433.65,118.52L438.52,117.23L443.4,122.08L448.27,121.93L453.14,120.37L458.01,121.51L462.89,121.51L467.76,117.66L472.63,114.24L477.5,118.23L482.38,120.22L487.25,120.08L492.12,119.8L496.99,122.36L506.74,120.65L511.61,123.5L521.36,123.5L526.23,121.65L531.1,121.79L535.97,119.8L540.85,117.09L545.72,116.52L550.59,119.23L555.46,115.52L560.34,118.66L565.21,115.95L574.95,119.08L579.83,115.95L584.7,113.24L589.57,112.53L594.44,110.25L599.32,112.11L604.19,113.53L609.06,113.1L618.81,114.38L623.68,113.81L628.55,116.09L633.42,114.67L638.3,116.09L643.17,118.66L657.79,118.52L662.66,116.52L667.53,115.1L672.4,115.95L682.15,115.67L687.02,117.66L691.89,115.81L696.77,115.24L701.64,115.24L706.51,117.95L711.38,115.67L716.26,115.1L721.13,117.38L726,117.66" style="vector-effect: none; fill: none; stroke: rgb(0, 128, 0); stroke-opacity: 1; stroke-width: 2px; opacity: 1;"/></g><g class="points"/><g class="text"/></g><g class="trace scatter trace1e6674" style="stroke-miterlimit: 2; opacity: 1;"><g class="fills"/><g class="errorbars"/><g class="lines"><path class="js-line" d="M0,226.92L4.87,198.28L9.74,187.74L14.62,183.76L19.49,175.92L24.36,171.08L29.23,172.5L34.11,171.65L38.98,163.1L43.85,158.83L48.72,167.52L53.6,161.96L58.47,164.67L63.34,155.41L68.21,155.12L73.09,157.4L77.96,152.56L82.83,156.98L87.7,163.96L92.58,152.56L97.45,150L116.94,150.28L121.81,157.83L126.68,151.56L131.56,150L136.43,150L141.3,145.01L146.17,145.58L151.05,144.44L155.92,146.01L160.79,140.45L165.66,140.88L170.54,148.57L175.41,153.13L180.28,149.43L185.15,145.86L190.03,143.44L199.77,137.18L204.64,131.19L209.52,132.19L214.39,131.05L224.13,125.35L229.01,128.77L238.75,136.75L243.62,138.74L248.5,131.19L253.37,135.75L258.24,142.3L263.11,139.6L272.86,135.47L277.73,135.32L282.6,129.91L287.48,126.49L297.22,125.35L302.09,128.49L306.97,128.06L311.84,133.9L316.71,133.33L321.58,134.33L326.46,136.18L331.33,130.77L336.2,133.19L341.07,134.75L345.95,131.19L350.82,132.19L355.69,134.9L360.56,129.91L365.44,138.6L370.31,138.74L375.18,136.89L380.05,136.18L384.93,138.74L389.8,137.32L394.67,131.05L399.54,128.77L404.42,130.05L409.29,133.47L419.03,134.47L423.91,129.34L428.78,127.63L433.65,127.06L438.52,128.77L443.4,127.77L448.27,133.47L453.14,132.19L462.89,129.34L467.76,129.48L477.5,129.91L482.38,127.2L492.12,128.63L496.99,130.91L501.87,134.9L506.74,133.04L516.48,138.74L521.36,134.9L526.23,128.2L531.1,134.33L535.97,124.78L540.85,125.07L545.72,133.47L550.59,136.32L555.46,131.91L560.34,133.04L565.21,128.06L570.08,127.63L574.95,125.07L579.83,126.21L584.7,127.49L589.57,130.91L594.44,125.64L599.32,125.21L604.19,122.22L609.06,125.92L618.81,125.92L623.68,130.77L628.55,127.35L633.42,129.06L638.3,130.62L643.17,127.2L648.04,125.92L652.91,127.06L657.79,126.21L662.66,130.62L667.53,133.19L672.4,127.92L677.28,125.49L682.15,122.08L687.02,122.5L691.89,127.2L696.77,132.19L701.64,129.06L711.38,132.47L716.26,131.62L726,127.63" style="vector-effect: none; fill: none; stroke: rgb(255, 165, 0); stroke-opacity: 1; stroke-width: 2px; opacity: 1;"/></g><g class="points"/><g class="text"/></g><g class="trace scatter trace9c1522" style="stroke-miterlimit: 2; opacity: 1;"><g class="fills"/><g class="errorbars"/><g class="lines"><path class="js-line" d="M0,205.41L4.87,160.68L9.74,141.59L14.62,127.2L19.49,118.52L24.36,107.69L29.23,106.98L34.11,95.15L38.98,95.01L43.85,84.04L48.72,87.89L58.47,85.75L63.34,77.06L68.21,81.91L73.09,73.64L77.96,75.21L82.83,70.8L87.7,75.21L92.58,69.37L97.45,74.36L102.32,71.79L112.07,71.37L116.94,72.79L121.81,65.95L126.68,63.82L131.56,65.24L136.43,62.53L141.3,61.68L146.17,52.28L151.05,51.57L155.92,49.43L160.79,45.01L165.66,42.45L170.54,46.86L175.41,53.42L180.28,51.42L185.15,51.85L190.03,44.59L194.9,42.16L199.77,41.59L204.64,36.04L209.52,32.91L214.39,36.61L219.26,31.48L224.13,32.48L233.88,40.88L238.75,43.73L243.62,43.3L248.5,40.74L253.37,42.31L258.24,45.01L263.11,42.02L267.99,41.45L277.73,34.47L282.6,34.9L287.48,28.35L292.35,28.63L297.22,28.77L302.09,31.62L306.97,36.32L311.84,36.32L316.71,37.89L321.58,38.18L326.46,35.75L331.33,30.34L341.07,36.75L345.95,27.06L350.82,29.49L355.69,28.63L360.56,22.51L365.44,26.21L370.31,34.04L375.18,30.63L380.05,27.35L384.93,31.34L389.8,29.06L394.67,31.34L399.54,26.92L404.42,30.34L409.29,30.63L414.16,34.04L419.03,40.31L423.91,34.47L433.65,33.19L438.52,30.91L443.4,37.89L448.27,37.46L453.14,35.61L458.01,37.18L462.89,37.32L467.76,31.77L472.63,26.35L477.5,31.91L482.38,34.19L487.25,34.47L492.12,33.9L496.99,37.89L506.74,35.75L511.61,40.6L521.36,40.03L526.23,36.47L531.1,37.18L535.97,33.76L540.85,29.49L545.72,28.77L550.59,32.34L555.46,27.06L560.34,31.62L565.21,27.78L570.08,29.49L574.95,32.48L584.7,24.07L589.57,23.08L594.44,19.8L599.32,22.51L604.19,24.5L609.06,23.79L618.81,25.64L623.68,25.07L628.55,28.35L633.42,26.21L638.3,28.06L643.17,31.77L657.79,31.91L662.66,28.92L667.53,26.64L672.4,27.78L682.15,27.35L687.02,30.48L691.89,27.49L696.77,26.78L701.64,26.64L706.51,30.34L711.38,27.21L716.26,26.49L721.13,29.77L726,30.06" style="vector-effect: none; fill: none; stroke: rgb(128, 0, 128); stroke-opacity: 1; stroke-width: 2px; opacity: 1;"/></g><g class="points"/><g class="text"/></g><g class="trace scatter trace490f80" style="stroke-miterlimit: 2; opacity: 1;"><g class="fills"/><g class="errorbars"/><g class="lines"><path class="js-line" d="M0,199.85L4.87,159.97L9.74,142.45L14.62,135.32L19.49,119.08L24.36,110.25L29.23,113.96L34.11,110.4L38.98,100.71L43.85,93.3L48.72,104.98L53.6,99L58.47,102.7L63.34,88.03L68.21,88.17L73.09,91.45L77.96,87.32L82.83,91.74L87.7,101.28L92.58,83.19L97.45,81.91L107.19,81.48L112.07,82.76L116.94,82.62L121.81,93.02L126.68,84.76L131.56,83.19L136.43,81.76L141.3,73.64L146.17,73.07L151.05,70.51L155.92,71.79L160.79,63.96L165.66,64.1L170.54,75.21L175.41,81.62L180.28,76.92L199.77,59.97L204.64,51.42L209.52,51.85L214.39,50.85L224.13,42.45L229.01,47.29L238.75,58.69L243.62,62.11L248.5,51.71L253.37,58.12L258.24,66.81L263.11,63.25L267.99,60.82L272.86,57.41L277.73,56.69L282.6,49.29L287.48,43.87L292.35,42.88L297.22,42.73L302.09,46.86L306.97,47.29L311.84,55.13L316.71,54.98L321.58,56.27L326.46,58.83L331.33,50.85L341.07,56.55L345.95,50L350.82,52.14L355.69,55.55L360.56,48.57L365.44,60.54L370.31,62.39L375.18,58.83L380.05,57.12L384.93,60.82L389.8,58.69L394.67,50.85L399.54,46.86L404.42,49.14L409.29,54.84L414.16,54.41L419.03,55.98L423.91,49.14L428.78,46.72L433.65,45.44L438.52,47.72L443.4,46.29L448.27,54.13L453.14,52.42L462.89,49.29L467.76,49.14L477.5,49.29L482.38,44.59L487.25,46.44L492.12,47.01L496.99,50.43L501.87,55.98L506.74,53.7L511.61,59.12L516.48,62.39L521.36,56.84L526.23,46.86L531.1,55.84L535.97,41.74L540.85,41.74L545.72,53.27L550.59,57.12L555.46,50.71L560.34,52.28L565.21,45.3L570.08,44.73L574.95,41.45L579.83,42.59L584.7,44.16L589.57,49L594.44,41.74L599.32,41.31L604.19,37.18L609.06,41.88L618.81,42.59L623.68,49.71L628.55,44.87L633.42,47.01L638.3,49.14L643.17,45.01L648.04,43.16L652.91,44.44L657.79,44.02L662.66,49.71L667.53,52.56L672.4,44.87L677.28,41.59L682.15,37.32L687.02,38.03L691.89,44.02L696.77,50.71L701.64,46.44L711.38,51.14L716.26,50L721.13,48.15L726,44.44" style="vector-effect: none; fill: none; stroke: rgb(255, 192, 203); stroke-opacity: 1; stroke-width: 2px; opacity: 1;"/></g><g class="points"/><g class="text"/></g><g class="trace scatter traceee0071" style="stroke-miterlimit: 2; opacity: 1;"><g class="fills"/><g class="errorbars"/><g class="lines"><path class="js-line" d="M0,376.2L4.87,327.06L9.74,302.13L19.49,265.8L24.36,251.99L29.23,256.12L34.11,236.89L38.98,245.43L43.85,232.47L53.6,238.74L58.47,241.02L63.34,226.2L68.21,230.19L73.09,220.08L77.96,228.48L82.83,222.07L87.7,223.64L92.58,212.39L97.45,223.64L102.32,221.36L107.19,222.07L112.07,221.93L116.94,223.93L121.81,216.8L126.68,215.95L131.56,220.08L136.43,216.09L141.3,212.81L146.17,199.71L151.05,197.72L155.92,192.16L165.66,180.34L170.54,184.89L175.41,193.58L180.28,191.45L185.15,194.15L190.03,184.75L194.9,180.76L199.77,183.19L209.52,170.37L214.39,175.64L219.26,166.23L224.13,168.37L229.01,171.08L233.88,176.49L238.75,182.9L243.62,184.75L248.5,182.76L253.37,183.9L258.24,185.46L263.11,182.33L267.99,180.76L272.86,175.21L277.73,170.22L282.6,170.08L287.48,161.82L292.35,161.39L302.09,167.66L306.97,173.93L311.84,173.36L316.71,176.35L321.58,176.78L326.46,172.93L331.33,166.23L336.2,170.94L341.07,175.64L345.95,159.82L350.82,164.95L355.69,164.24L360.56,157.83L365.44,161.96L370.31,173.64L375.18,166.38L380.05,162.39L384.93,165.38L389.8,163.24L394.67,167.66L399.54,158.4L404.42,166.09L414.16,173.5L419.03,181.48L423.91,172.5L428.78,172.07L433.65,175.07L438.52,171.36L443.4,178.06L448.27,177.49L453.14,176.63L458.01,178.48L462.89,178.34L467.76,172.22L472.63,165.24L477.5,169.08L482.38,167.23L487.25,171.36L492.12,169.8L496.99,175.92L501.87,174.5L506.74,175.49L511.61,184.04L516.48,181.62L521.36,181.62L526.23,172.5L531.1,175.78L535.97,168.66L540.85,160.54L545.72,160.96L550.59,161.53L555.46,154.7L560.34,162.67L565.21,157.26L570.08,158.54L574.95,164.1L584.7,150.14L589.57,151.28L594.44,145.01L599.32,152.42L604.19,155.12L609.06,150.85L613.93,154.84L618.81,155.55L623.68,157.4L628.55,160.39L633.42,156.83L638.3,157.97L643.17,163.96L648.04,163.81L652.91,162.96L657.79,166.38L667.53,156.12L672.4,156.12L677.28,154.27L682.15,156.98L687.02,162.67L691.89,155.98L701.64,151.71L706.51,156.83L711.38,154.98L716.26,154.84L721.13,159.54L726,157.4" style="vector-effect: none; fill: none; stroke: rgb(165, 42, 42); stroke-opacity: 1; stroke-width: 2px; opacity: 1;"/></g><g class="points"/><g class="text"/></g><g class="trace scatter traceae8c1c" style="stroke-miterlimit: 2; opacity: 1;"><g class="fills"/><g class="errorbars"/><g class="lines"><path class="js-line" d="M0,372.07L4.87,330.9L9.74,308.11L14.62,297.85L19.49,269.79L24.36,255.41L29.23,263.95L34.11,253.13L38.98,251.42L43.85,241.16L48.72,249.99L53.6,249.71L58.47,252.98L63.34,234.47L68.21,236.18L77.96,242.59L82.83,241.87L87.7,250.14L92.58,227.06L97.45,232.9L102.32,232.47L116.94,235.04L121.81,243.58L126.68,237.88L131.56,237.74L136.43,232.19L141.3,221.93L151.05,210.68L155.92,208.11L160.79,200.71L165.66,198.43L170.54,209.54L175.41,216.23L180.28,214.38L185.15,213.81L190.03,207.26L194.9,203.7L199.77,199.14L204.64,191.31L209.52,185.61L214.39,187.6L219.26,181.9L224.13,177.92L233.88,187.6L238.75,194.58L243.62,201.13L248.5,191.59L258.24,204.27L263.11,201.56L267.99,200.28L272.86,195.86L277.73,192.87L282.6,186.46L287.48,177.77L292.35,178.91L297.22,180.34L302.09,183.33L306.97,187.89L311.84,194.3L316.71,196.58L321.58,197.86L326.46,199.14L331.33,190.59L341.07,195.58L345.95,181.62L350.82,187.89L355.69,189.03L360.56,182.19L365.44,191.59L370.31,202.99L375.18,195.29L380.05,189.17L384.93,193.01L394.67,187.6L399.54,179.91L404.42,184.89L409.29,195.44L414.16,191.87L419.03,195.44L423.91,190.31L428.78,187.03L433.65,184.33L438.52,185.46L443.4,184.61L448.27,190.45L458.01,190.31L462.89,191.59L472.63,185.75L477.5,186.46L482.38,177.35L487.25,182.76L492.12,182.05L496.99,187.03L501.87,192.44L506.74,191.45L511.61,200.14L516.48,202.99L521.36,196.58L526.23,184.75L531.1,194.72L535.97,177.92L540.85,175.49L545.72,185.46L550.59,187.6L555.46,179.2L560.34,180.19L565.21,173.93L570.08,174.21L574.95,172.64L579.83,169.37L584.7,169.23L589.57,174.07L594.44,165.81L599.32,170.65L604.19,166.23L609.06,166.09L613.93,172.07L618.81,172.79L623.68,183.19L628.55,178.77L633.42,178.2L643.17,180.34L648.04,177.92L652.91,178.2L657.79,181.48L662.66,183.61L667.53,181.62L672.4,172.5L677.28,170.08L682.15,168.66L687.02,170.65L691.89,169.8L696.77,175.35L701.64,171.08L706.51,175.49L711.38,176.35L716.26,176.35L721.13,179.2L726,171.93" style="vector-effect: none; fill: none; stroke: rgb(128, 128, 128); stroke-opacity: 1; stroke-width: 2px; opacity: 1;"/></g><g class="points"/><g class="text"/></g></g></g><g class="overplot"/><path class="xlines-above crisp" d="M0,0" style="fill: none;"/><path class="ylines-above crisp" d="M0,0" style="fill: none;"/><g class="overlines-above"/><g class="xaxislayer-above"><g class="xtick"><text text-anchor="middle" x="0" y="509" transform="translate(235.57999999999998,0)" style="font-family: 'Open Sans', verdana, arial, sans-serif; font-size: 12px; fill: rgb(42, 63, 95); fill-opacity: 1; white-space: pre; opacity: 1;">20</text></g><g class="xtick"><text text-anchor="middle" x="0" y="509" style="font-family: 'Open Sans', verdana, arial, sans-serif; font-size: 12px; fill: rgb(42, 63, 95); fill-opacity: 1; white-space: pre; opacity: 1;" transform="translate(333.03,0)">40</text></g><g class="xtick"><text text-anchor="middle" x="0" y="509" style="font-family: 'Open Sans', verdana, arial, sans-serif; font-size: 12px; fill: rgb(42, 63, 95); fill-opacity: 1; white-space: pre; opacity: 1;" transform="translate(430.48,0)">60</text></g><g class="xtick"><text text-anchor="middle" x="0" y="509" style="font-family: 'Open Sans', verdana, arial, sans-serif; font-size: 12px; fill: rgb(42, 63, 95); fill-opacity: 1; white-space: pre; opacity: 1;" transform="translate(527.9300000000001,0)">80</text></g><g class="xtick"><text text-anchor="middle" x="0" y="509" style="font-family: 'Open Sans', verdana, arial, sans-serif; font-size: 12px; fill: rgb(42, 63, 95); fill-opacity: 1; white-space: pre; opacity: 1;" transform="translate(625.38,0)">100</text></g><g class="xtick"><text text-anchor="middle" x="0" y="509" style="font-family: 'Open Sans', verdana, arial, sans-serif; font-size: 12px; fill: rgb(42, 63, 95); fill-opacity: 1; white-space: pre; opacity: 1;" transform="translate(722.83,0)">120</text></g><g class="xtick"><text text-anchor="middle" x="0" y="509" style="font-family: 'Open Sans', verdana, arial, sans-serif; font-size: 12px; fill: rgb(42, 63, 95); fill-opacity: 1; white-space: pre; opacity: 1;" transform="translate(820.28,0)">140</text></g></g><g class="yaxislayer-above"><g class="ytick"><text text-anchor="end" x="142" y="4.199999999999999" transform="translate(0,455.12)" style="font-family: 'Open Sans', verdana, arial, sans-serif; font-size: 12px; fill: rgb(42, 63, 95); fill-opacity: 1; white-space: pre; opacity: 1;">50</text></g><g class="ytick"><text text-anchor="end" x="142" y="4.199999999999999" style="font-family: 'Open Sans', verdana, arial, sans-serif; font-size: 12px; fill: rgb(42, 63, 95); fill-opacity: 1; white-space: pre; opacity: 1;" transform="translate(0,383.89)">55</text></g><g class="ytick"><text text-anchor="end" x="142" y="4.199999999999999" style="font-family: 'Open Sans', verdana, arial, sans-serif; font-size: 12px; fill: rgb(42, 63, 95); fill-opacity: 1; white-space: pre; opacity: 1;" transform="translate(0,312.66999999999996)">60</text></g><g class="ytick"><text text-anchor="end" x="142" y="4.199999999999999" style="font-family: 'Open Sans', verdana, arial, sans-serif; font-size: 12px; fill: rgb(42, 63, 95); fill-opacity: 1; white-space: pre; opacity: 1;" transform="translate(0,241.45)">65</text></g><g class="ytick"><text text-anchor="end" x="142" y="4.199999999999999" style="font-family: 'Open Sans', verdana, arial, sans-serif; font-size: 12px; fill: rgb(42, 63, 95); fill-opacity: 1; white-space: pre; opacity: 1;" transform="translate(0,170.23000000000002)">70</text></g></g><g class="overaxes-above"/></g></g><g class="polarlayer"/><g class="smithlayer"/><g class="ternarylayer"/><g class="geolayer"/><g class="funnelarealayer"/><g class="pielayer"/><g class="iciclelayer"/><g class="treemaplayer"/><g class="sunburstlayer"/><g class="glimages"/><defs id="topdefs-6674e4"><g class="clips"/><clipPath id="legend6674e4"><rect width="128" height="162" x="0" y="0"/></clipPath></defs><g class="layer-above"><g class="imagelayer"/><g class="shapelayer"/></g><g class="infolayer"><g class="legend" pointer-events="all" transform="translate(883.52,100)"><rect class="bg" shape-rendering="crispEdges" width="128" height="162" x="0" y="0" style="stroke: rgb(68, 68, 68); stroke-opacity: 1; fill: rgb(255, 255, 255); fill-opacity: 1; stroke-width: 0px;"/><g class="scrollbox" transform="" clip-path="url(#legend6674e4)"><g class="groups"><g class="traces" transform="translate(0,14.5)" style="opacity: 1;"><text class="legendtext" text-anchor="start" x="40" y="4.680000000000001" style="font-family: 'Open Sans', verdana, arial, sans-serif; font-size: 12px; fill: rgb(42, 63, 95); fill-opacity: 1; white-space: pre;">Train Accuracy</text><g class="layers" style="opacity: 1;"><g class="legendfill"/><g class="legendlines"><path class="js-line" d="M5,0h30" style="fill: none; stroke: rgb(255, 0, 0); stroke-opacity: 1; stroke-width: 2px;"/></g><g class="legendsymbols"><g class="legendpoints"/></g></g><rect class="legendtoggle" x="0" y="-9.5" width="122.71875" height="19" style="fill: rgb(0, 0, 0); fill-opacity: 0;"/></g><g class="traces" transform="translate(0,33.5)" style="opacity: 1;"><text class="legendtext" text-anchor="start" x="40" y="4.680000000000001" style="font-family: 'Open Sans', verdana, arial, sans-serif; font-size: 12px; fill: rgb(42, 63, 95); fill-opacity: 1; white-space: pre;">Test Accuracy</text><g class="layers" style="opacity: 1;"><g class="legendfill"/><g class="legendlines"><path class="js-line" d="M5,0h30" style="fill: none; stroke: rgb(0, 0, 255); stroke-opacity: 1; stroke-width: 2px;"/></g><g class="legendsymbols"><g class="legendpoints"/></g></g><rect class="legendtoggle" x="0" y="-9.5" width="122.71875" height="19" style="fill: rgb(0, 0, 0); fill-opacity: 0;"/></g><g class="traces" transform="translate(0,52.5)" style="opacity: 1;"><text class="legendtext" text-anchor="start" x="40" y="4.680000000000001" style="font-family: 'Open Sans', verdana, arial, sans-serif; font-size: 12px; fill: rgb(42, 63, 95); fill-opacity: 1; white-space: pre;">Train Precision</text><g class="layers" style="opacity: 1;"><g class="legendfill"/><g class="legendlines"><path class="js-line" d="M5,0h30" style="fill: none; stroke: rgb(0, 128, 0); stroke-opacity: 1; stroke-width: 2px;"/></g><g class="legendsymbols"><g class="legendpoints"/></g></g><rect class="legendtoggle" x="0" y="-9.5" width="122.71875" height="19" style="fill: rgb(0, 0, 0); fill-opacity: 0;"/></g><g class="traces" transform="translate(0,71.5)" style="opacity: 1;"><text class="legendtext" text-anchor="start" x="40" y="4.680000000000001" style="font-family: 'Open Sans', verdana, arial, sans-serif; font-size: 12px; fill: rgb(42, 63, 95); fill-opacity: 1; white-space: pre;">Test Precision</text><g class="layers" style="opacity: 1;"><g class="legendfill"/><g class="legendlines"><path class="js-line" d="M5,0h30" style="fill: none; stroke: rgb(255, 165, 0); stroke-opacity: 1; stroke-width: 2px;"/></g><g class="legendsymbols"><g class="legendpoints"/></g></g><rect class="legendtoggle" x="0" y="-9.5" width="122.71875" height="19" style="fill: rgb(0, 0, 0); fill-opacity: 0;"/></g><g class="traces" transform="translate(0,90.5)" style="opacity: 1;"><text class="legendtext" text-anchor="start" x="40" y="4.680000000000001" style="font-family: 'Open Sans', verdana, arial, sans-serif; font-size: 12px; fill: rgb(42, 63, 95); fill-opacity: 1; white-space: pre;">Train Recall</text><g class="layers" style="opacity: 1;"><g class="legendfill"/><g class="legendlines"><path class="js-line" d="M5,0h30" style="fill: none; stroke: rgb(128, 0, 128); stroke-opacity: 1; stroke-width: 2px;"/></g><g class="legendsymbols"><g class="legendpoints"/></g></g><rect class="legendtoggle" x="0" y="-9.5" width="122.71875" height="19" style="fill: rgb(0, 0, 0); fill-opacity: 0;"/></g><g class="traces" transform="translate(0,109.5)" style="opacity: 1;"><text class="legendtext" text-anchor="start" x="40" y="4.680000000000001" style="font-family: 'Open Sans', verdana, arial, sans-serif; font-size: 12px; fill: rgb(42, 63, 95); fill-opacity: 1; white-space: pre;">Test Recall</text><g class="layers" style="opacity: 1;"><g class="legendfill"/><g class="legendlines"><path class="js-line" d="M5,0h30" style="fill: none; stroke: rgb(255, 192, 203); stroke-opacity: 1; stroke-width: 2px;"/></g><g class="legendsymbols"><g class="legendpoints"/></g></g><rect class="legendtoggle" x="0" y="-9.5" width="122.71875" height="19" style="fill: rgb(0, 0, 0); fill-opacity: 0;"/></g><g class="traces" transform="translate(0,128.5)" style="opacity: 1;"><text class="legendtext" text-anchor="start" x="40" y="4.680000000000001" style="font-family: 'Open Sans', verdana, arial, sans-serif; font-size: 12px; fill: rgb(42, 63, 95); fill-opacity: 1; white-space: pre;">Train F1</text><g class="layers" style="opacity: 1;"><g class="legendfill"/><g class="legendlines"><path class="js-line" d="M5,0h30" style="fill: none; stroke: rgb(165, 42, 42); stroke-opacity: 1; stroke-width: 2px;"/></g><g class="legendsymbols"><g class="legendpoints"/></g></g><rect class="legendtoggle" x="0" y="-9.5" width="122.71875" height="19" style="fill: rgb(0, 0, 0); fill-opacity: 0;"/></g><g class="traces" transform="translate(0,147.5)" style="opacity: 1;"><text class="legendtext" text-anchor="start" x="40" y="4.680000000000001" style="font-family: 'Open Sans', verdana, arial, sans-serif; font-size: 12px; fill: rgb(42, 63, 95); fill-opacity: 1; white-space: pre;">Test F1</text><g class="layers" style="opacity: 1;"><g class="legendfill"/><g class="legendlines"><path class="js-line" d="M5,0h30" style="fill: none; stroke: rgb(128, 128, 128); stroke-opacity: 1; stroke-width: 2px;"/></g><g class="legendsymbols"><g class="legendpoints"/></g></g><rect class="legendtoggle" x="0" y="-9.5" width="122.71875" height="19" style="fill: rgb(0, 0, 0); fill-opacity: 0;"/></g></g></g><rect class="scrollbar" rx="20" ry="3" width="0" height="0" x="0" y="0" style="fill: rgb(128, 139, 164); fill-opacity: 1;"/></g><g class="g-gtitle"><text class="gtitle" x="51.2" y="50" text-anchor="start" dy="0em" style="font-family: 'Open Sans', verdana, arial, sans-serif; font-size: 17px; fill: rgb(42, 63, 95); opacity: 1; font-weight: normal; white-space: pre;">Training Metrics - logs/FakeNewsNet-gossipcop_max-vocab=15000_pre=v2_text_T=50_s=10.log</text></g><g class="g-xtitle"><text class="xtitle" x="506" y="537.3" text-anchor="middle" style="font-family: 'Open Sans', verdana, arial, sans-serif; font-size: 14px; fill: rgb(42, 63, 95); opacity: 1; font-weight: normal; white-space: pre;">Epoch</text></g><g class="g-ytitle"><text class="ytitle" transform="rotate(-90,103.965625,298)" x="103.965625" y="298" text-anchor="middle" style="font-family: 'Open Sans', verdana, arial, sans-serif; font-size: 14px; fill: rgb(42, 63, 95); opacity: 1; font-weight: normal; white-space: pre;">Metric Score</text></g></g><g class="menulayer"><g class="updatemenu-container" style="cursor: pointer;"><g class="updatemenu-header-group" transform="translate(12,60)"><g class="updatemenu-header" transform="translate(1,1)" style="pointer-events: all;"><rect class="updatemenu-item-rect" rx="2" ry="2" shape-rendering="crispEdges" x="0" y="0" width="167" height="33" style="stroke: rgb(190, 200, 217); stroke-opacity: 1; fill: rgb(255, 255, 255); fill-opacity: 1; stroke-width: 1px;"/><text class="updatemenu-item-text" text-anchor="start" data-notex="1" x="12" y="19.5" style="font-family: 'Open Sans', verdana, arial, sans-serif; font-size: 12px; fill: rgb(42, 63, 95); fill-opacity: 1; white-space: pre;">All</text></g><text class="updatemenu-header-arrow" text-anchor="end" x="163" y="19.5" style="font-family: 'Open Sans', verdana, arial, sans-serif; font-size: 12px; fill: rgb(42, 63, 95); fill-opacity: 1;">▼</text></g><g class="updatemenu-dropdown-button-group" updatemenu-active-index="-1" style="pointer-events: all;"><rect class="scrollbox-bg" opacity="0" x="0" y="0" width="0" height="0" style="pointer-events: all;"/></g></g></g></svg>