<svg class="main-svg" xmlns="http://www.w3.org/2000/svg" xmlns:xlink="http://www.w3.org/1999/xlink" width="1024" height="576" style="" viewBox="0 0 1024 576"><rect x="0" y="0" width="1024" height="576" style="fill: rgb(255, 255, 255); fill-opacity: 1;"/><defs id="defs-7c9256"><g class="clips"><clipPath id="clip7c9256xyplot" class="plotclip"><rect width="726" height="396"/></clipPath><clipPath class="axesclip" id="clip7c9256x"><rect x="143" y="0" width="726" height="576"/></clipPath><clipPath class="axesclip" id="clip7c9256y"><rect x="0" y="100" width="1024" height="396"/></clipPath><clipPath class="axesclip" id="clip7c9256xy"><rect x="143" y="100" width="726" height="396"/></clipPath></g><g class="gradients"/><g class="patterns"/></defs><g class="bglayer"><rect class="bg" x="143" y="100" width="726" height="396" style="fill: rgb(229, 236, 246); fill-opacity: 1; stroke-width: 0;"/></g><g class="layer-below"><g class="imagelayer"/><g class="shapelayer"/></g><g class="cartesianlayer"><g class="subplot xy"><g class="layer-subplot"><g class="shapelayer"/><g class="imagelayer"/></g><g class="minor-gridlayer"><g class="x"/><g class="y"/></g><g class="gridlayer"><g class="x"><path class="xgrid crisp" transform="translate(235.57999999999998,0)" d="M0,100v396" style="stroke: rgb(255, 255, 255); stroke-opacity: 1; stroke-width: 1px;"/><path class="xgrid crisp" transform="translate(333.03,0)" d="M0,100v396" style="stroke: rgb(255, 255, 255); stroke-opacity: 1; stroke-width: 1px;"/><path class="xgrid crisp" transform="translate(430.48,0)" d="M0,100v396" style="stroke: rgb(255, 255, 255); stroke-opacity: 1; stroke-width: 1px;"/><path class="xgrid crisp" transform="translate(527.9300000000001,0)" d="M0,100v396" style="stroke: rgb(255, 255, 255); stroke-opacity: 1; stroke-width: 1px;"/><path class="xgrid crisp" transform="translate(625.38,0)" d="M0,100v396" style="stroke: rgb(255, 255, 255); stroke-opacity: 1; stroke-width: 1px;"/><path class="xgrid crisp" transform="translate(722.83,0)" d="M0,100v396" style="stroke: rgb(255, 255, 255); stroke-opacity: 1; stroke-width: 1px;"/><path class="xgrid crisp" transform="translate(820.28,0)" d="M0,100v396" style="stroke: rgb(255, 255, 255); stroke-opacity: 1; stroke-width: 1px;"/></g><g class="y"><path class="ygrid crisp" transform="translate(0,439.6)" d="M143,0h726" style="stroke: rgb(255, 255, 255); stroke-opacity: 1; stroke-width: 1px;"/><path class="ygrid crisp" transform="translate(0,368.39)" d="M143,0h726" style="stroke: rgb(255, 255, 255); stroke-opacity: 1; stroke-width: 1px;"/><path class="ygrid crisp" transform="translate(0,297.18)" d="M143,0h726" style="stroke: rgb(255, 255, 255); stroke-opacity: 1; stroke-width: 1px;"/><path class="ygrid crisp" transform="translate(0,225.97)" d="M143,0h726" style="stroke: rgb(255, 255, 255); stroke-opacity: 1; stroke-width: 1px;"/><path class="ygrid crisp" transform="translate(0,154.76)" d="M143,0h726" style="stroke: rgb(255, 255, 255); stroke-opacity: 1; stroke-width: 1px;"/></g></g><g class="zerolinelayer"/><path class="xlines-below"/><path class="ylines-below"/><g class="overlines-below"/><g class="xaxislayer-below"/><g class="yaxislayer-below"/><g class="overaxes-below"/><g class="plot" transform="translate(143,100)" clip-path="url(#clip7c9256xyplot)"><g class="scatterlayer mlayer"><g class="trace scatter tracec6f80a" style="stroke-miterlimit: 2; opacity: 1;"><g class="fills"/><g class="errorbars"/><g class="lines"><path class="js-line" d="M0,56.69L24.36,56.05L29.23,49.99L38.98,48.64L43.85,49.35L48.72,47.29L53.6,46.65L58.47,45.29L63.34,41.31L68.21,39.95L73.09,40.59L77.96,39.24L82.83,36.61L87.7,37.25L92.58,36.61L97.45,31.19L102.32,31.19L107.19,30.55L112.07,31.19L116.94,33.19L121.81,33.19L126.68,31.91L131.56,43.94L136.43,60.03L141.3,41.31L146.17,39.24L151.05,35.25L155.92,34.54L160.79,41.31L165.66,56.05L170.54,55.33L175.41,65.44L180.28,68.79L185.15,40.59L190.03,32.55L204.64,34.54L209.52,33.19L214.39,34.54L219.26,33.19L224.13,34.54L229.01,37.25L238.75,36.61L243.62,39.24L248.5,46L253.37,43.3L258.24,34.54L263.11,35.25L267.99,33.19L272.86,33.9L277.73,39.24L282.6,35.25L292.35,33.9L297.22,34.54L302.09,44.65L306.97,48L316.71,43.94L321.58,43.94L326.46,44.65L331.33,42.59L336.2,50.7L341.07,41.95L350.82,39.24L355.69,39.95L360.56,39.95L365.44,41.31L370.31,41.31L375.18,46.65L380.05,36.61L384.93,36.61L389.8,43.94L394.67,38.6L399.54,42.59L404.42,55.33L419.03,55.33L423.91,49.99L428.78,50.7L433.65,48L438.52,50.7L443.4,48L448.27,49.99L453.14,49.99L458.01,51.35L462.89,41.31L467.76,41.31L472.63,54.69L477.5,38.6L482.38,37.25L487.25,31.91L492.12,37.89L496.99,48.64L501.87,48.64L506.74,46L511.61,57.4L516.48,46.65L521.36,49.35L526.23,36.61L531.1,37.25L535.97,34.54L540.85,49.35L545.72,43.94L550.59,31.19L565.21,36.61L570.08,36.61L574.95,33.9L579.83,34.54L584.7,29.84L589.57,35.89L594.44,38.6L599.32,38.6L609.06,44.65L613.93,31.19L618.81,40.59L623.68,40.59L628.55,41.95L633.42,41.95L638.3,43.3L643.17,43.3L648.04,37.89L652.91,37.25L657.79,36.61L662.66,46L672.4,47.29L677.28,39.95L682.15,45.29L687.02,44.65L691.89,39.24L696.77,31.91L701.64,30.55L706.51,38.6L716.26,32.55L721.13,31.19L726,35.25" style="vector-effect: none; fill: none; stroke: rgb(255, 0, 0); stroke-opacity: 1; stroke-width: 2px; opacity: 1;"/></g><g class="points"/><g class="text"/></g><g class="trace scatter trace7e1592" style="stroke-miterlimit: 2; opacity: 1;"><g class="fills"/><g class="errorbars"/><g class="lines"><path class="js-line" d="M0,55.83L24.36,55.83L29.23,47.79L34.11,50.49L38.98,50.49L43.85,47.79L48.72,50.49L77.96,50.49L82.83,47.79L92.58,47.79L97.45,45.15L102.32,45.15L107.19,47.79L112.07,53.13L116.94,63.88L121.81,66.51L126.68,55.83L131.56,104.04L136.43,122.77L141.3,98.7L146.17,90.65L151.05,85.31L155.92,87.95L160.79,98.7L165.66,122.77L170.54,106.67L175.41,130.81L180.28,130.81L185.15,98.7L190.03,55.83L194.9,79.9L199.77,85.31L204.64,82.61L209.52,71.92L214.39,74.56L219.26,74.56L224.13,77.27L229.01,82.61L233.88,85.31L238.75,85.31L243.62,87.95L248.5,95.99L253.37,87.95L258.24,82.61L263.11,74.56L267.99,77.27L272.86,77.27L277.73,82.61L282.6,71.92L287.48,74.56L292.35,74.56L297.22,71.92L302.09,101.33L306.97,114.72L311.84,93.29L316.71,101.33L321.58,95.99L331.33,95.99L336.2,106.67L341.07,93.29L345.95,87.95L355.69,82.61L360.56,85.31L365.44,87.95L370.31,82.61L375.18,95.99L380.05,85.31L384.93,74.56L389.8,109.38L399.54,93.29L404.42,130.81L414.16,120.06L419.03,128.11L423.91,114.72L428.78,120.06L433.65,106.67L438.52,104.04L443.4,109.38L448.27,117.43L453.14,120.06L458.01,112.09L462.89,90.65L467.76,93.29L472.63,120.06L477.5,87.95L482.38,93.29L487.25,77.27L492.12,93.29L496.99,117.43L501.87,133.45L506.74,120.06L511.61,128.11L516.48,122.77L521.36,120.06L526.23,74.56L535.97,79.9L540.85,117.43L545.72,90.65L550.59,77.27L555.46,74.56L560.34,77.27L565.21,77.27L570.08,79.9L574.95,77.27L579.83,82.61L584.7,82.61L589.57,101.33L599.32,95.99L604.19,112.09L609.06,117.43L613.93,82.61L618.81,112.09L623.68,114.72L628.55,112.09L633.42,120.06L638.3,117.43L643.17,125.4L648.04,101.33L652.91,95.99L657.79,98.7L662.66,112.09L667.53,117.43L672.4,117.43L677.28,106.67L682.15,112.09L687.02,114.72L691.89,90.65L696.77,74.56L701.64,71.92L706.51,82.61L711.38,77.27L721.13,71.92L726,87.95" style="vector-effect: none; fill: none; stroke: rgb(0, 0, 255); stroke-opacity: 1; stroke-width: 2px; opacity: 1;"/></g><g class="points"/><g class="text"/></g><g class="trace scatter trace87d4d5" style="stroke-miterlimit: 2; opacity: 1;"><g class="fills"/><g class="errorbars"/><g class="lines"><path class="js-line" d="M0,376.2L19.49,376.2L24.36,19.8L29.23,83.03L34.11,43.87L43.85,78.76L48.72,68.44L53.6,65.59L58.47,60.53L68.21,54.41L73.09,63.66L77.96,60.1L82.83,53.84L87.7,67.01L92.58,59.89L97.45,54.05L102.32,54.05L107.19,75.13L112.07,89.3L116.94,111.16L121.81,115.08L126.68,98.41L131.56,148.76L136.43,176.74L141.3,142.56L146.17,137.79L151.05,127.04L155.92,124.19L160.79,142.71L165.66,170.12L170.54,169.69L175.41,183.94L180.28,189.56L185.15,140.93L190.03,107.24L194.9,115.93L199.77,120.49L204.64,119.78L209.52,115.08L214.39,123.12L219.26,120.77L224.13,123.69L229.01,133.52L233.88,131.88L238.75,131.88L243.62,138.58L248.5,152.53L253.37,147.19L258.24,127.04L263.11,127.04L267.99,120.2L272.86,121.63L277.73,138.15L282.6,122.06L287.48,119.78L292.35,119.71L297.22,120.49L302.09,150.25L306.97,155.88L316.71,148.47L321.58,148.47L326.46,149.83L331.33,145.7L336.2,160.08L341.07,144.49L350.82,138.43L355.69,139.86L360.56,139.86L365.44,143.06L370.31,142.85L375.18,153.32L380.05,132.31L384.93,129.53L389.8,147.98L394.67,137.44L399.54,145.77L404.42,166.49L409.29,166.13L414.16,167.13L419.03,165.42L423.91,158.44L428.78,159.51L433.65,155.31L438.52,160.58L443.4,155.31L448.27,158.94L453.14,158.94L458.01,160.29L462.89,143.06L467.76,143.06L472.63,165.85L477.5,137.29L482.38,134.23L487.25,120.85L492.12,136.08L496.99,155.24L501.87,154.95L506.74,151.39L511.61,168.27L516.48,152.18L521.36,156.81L526.23,132.88L531.1,134.23L535.97,128.39L540.85,157.09L545.72,148.19L550.59,117.64L555.46,124.33L560.34,128.46L565.21,131.6L570.08,131.88L574.95,124.98L579.83,126.4L584.7,114.44L589.57,131.67L594.44,137.37L599.32,137.37L609.06,149.19L613.93,119.92L618.81,141.57L623.68,141.57L628.55,143.92L633.42,144.06L638.3,146.05L643.17,146.48L648.04,136.01L652.91,134.52L657.79,133.02L662.66,151.75L672.4,154.53L677.28,140.29L682.15,150.54L687.02,149.19L691.89,138.93L696.77,116.72L701.64,113.94L706.51,137.29L711.38,131.17L716.26,121.34L721.13,118.14L726,130.53" style="vector-effect: none; fill: none; stroke: rgb(0, 128, 0); stroke-opacity: 1; stroke-width: 2px; opacity: 1;"/></g><g class="points"/><g class="text"/></g><g class="trace scatter trace9a6659" style="stroke-miterlimit: 2; opacity: 1;"><g class="fills"/><g class="errorbars"/><g class="lines"><path class="js-line" d="M0,375.77L24.36,375.77L29.23,86.17L34.11,105.18L38.98,105.18L43.85,86.17L48.72,133.73L77.96,133.73L82.83,115.5L92.58,115.5L97.45,101.55L102.32,101.55L107.19,131.31L112.07,174.68L116.94,226.95L121.81,235.99L126.68,190.99L131.56,272.45L136.43,282.28L141.3,286.69L146.17,269.96L151.05,269.46L155.92,266.32L160.79,267.04L165.66,277.01L170.54,264.19L175.41,282.42L180.28,293.17L185.15,279.5L190.03,189.85L194.9,260.56L199.77,262.41L204.64,258.21L209.52,237.84L214.39,237.98L219.26,237.98L224.13,248.88L229.01,241.54L233.88,250.52L238.75,250.52L243.62,248.95L248.5,258.63L253.37,244.11L258.24,252.08L263.11,243.61L272.86,243.04L277.73,252.08L282.6,243.97L287.48,243.61L292.35,243.61L297.22,232.57L302.09,269.81L306.97,266.04L311.84,250.59L316.71,259.13L321.58,258.63L326.46,253.58L331.33,248.88L336.2,259.28L341.07,255.57L345.95,254.22L355.69,236.99L360.56,240.62L365.44,239.62L370.31,241.54L375.18,253.58L380.05,245.39L384.93,243.61L389.8,271.81L394.67,264.26L399.54,250.59L404.42,272.66L409.29,269.1L414.16,265.4L419.03,270.88L423.91,266.04L428.78,270.1L433.65,259.28L438.52,256.85L443.4,261.63L448.27,268.11L453.14,270.1L458.01,263.9L462.89,242.9L467.76,245.96L472.63,270.1L477.5,244.11L482.38,255.57L487.25,228.94L492.12,250.59L496.99,258.92L501.87,274.3L506.74,260.84L511.61,266.32L516.48,262.76L521.36,260.84L526.23,224.53L531.1,233.21L535.97,233.07L540.85,258.92L545.72,247.45L550.59,243.04L555.46,228.58L560.34,237.84L565.21,237.84L570.08,237.49L574.95,233.21L579.83,252.08L584.7,252.08L589.57,254.29L594.44,251.66L599.32,248.88L604.19,259.2L609.06,263.41L613.93,241.54L618.81,259.2L623.68,261.34L628.55,259.2L633.42,265.4L638.3,263.41L643.17,269.1L648.04,254.29L652.91,248.88L657.79,251.66L662.66,259.2L667.53,263.41L672.4,263.41L677.28,264.19L682.15,259.2L687.02,261.34L691.89,252.37L696.77,243.61L701.64,232.57L706.51,246.6L711.38,237.84L721.13,227.87L726,244.11" style="vector-effect: none; fill: none; stroke: rgb(255, 165, 0); stroke-opacity: 1; stroke-width: 2px; opacity: 1;"/></g><g class="points"/><g class="text"/></g><g class="trace scatter traceb13777" style="stroke-miterlimit: 2; opacity: 1;"><g class="fills"/><g class="errorbars"/><g class="lines"><path class="js-line" d="M0,339.6L19.49,339.6L24.36,336.32L29.23,298.23L34.11,300.79L38.98,294.59L43.85,295.02L48.72,285.2L53.6,281.92L58.47,275.37L63.34,252.87L68.21,246.39L73.09,246.74L77.96,240.19L82.83,227.16L87.7,224.6L92.58,224.24L97.45,195.26L102.32,195.26L107.19,174.61L112.07,163.43L116.94,141.42L121.81,129.82L126.68,155.1L131.56,95.28L136.43,98.49L141.3,108.31L146.17,104.25L151.05,104.89L155.92,110.31L160.79,105.39L165.66,93.36L170.54,98.77L175.41,98.63L180.28,106.25L185.15,107.89L190.03,143.92L194.9,126.9L199.77,127.68L204.64,130.6L209.52,129.82L214.39,116.07L219.26,106.67L224.13,113.23L229.01,94.5L238.75,94.07L243.62,89.8L253.37,86.24L258.24,90.08L263.11,104.89L267.99,109.59L272.86,112.87L277.73,98.49L282.6,130.96L287.48,130.6L292.35,121.49L297.22,127.68L302.09,101.48L306.97,83.1L311.84,87.73L316.71,83.75L326.46,84.1L331.33,77.19L336.2,78.83L341.07,88.37L345.95,96.35L350.82,92.72L355.69,95.99L360.56,95.99L365.44,90.94L370.31,99.63L375.18,79.47L380.05,88.3L384.93,114.37L389.8,69.29L394.67,77.84L399.54,80.11L404.42,72.78L409.29,69.86L414.16,70.22L419.03,64.09L423.91,72.64L428.78,72.99L433.65,74.42L438.52,84.6L443.4,74.42L448.27,78.4L453.14,78.4L458.01,70.5L462.89,82.25L467.76,85.17L472.63,75.27L477.5,83.67L487.25,82.82L492.12,74.56L496.99,60.32L501.87,57.47L506.74,67.51L511.61,65.16L516.48,62.1L521.36,66.51L526.23,79.62L531.1,82.89L540.85,69.36L545.72,75.06L550.59,91.08L555.46,83.53L560.34,93.36L565.21,96.99L570.08,94.07L574.95,92.58L579.83,95.85L584.7,87.45L589.57,73.49L594.44,80.75L599.32,80.75L604.19,67.79L609.06,69.65L613.93,76.62L618.81,64.52L623.68,61.6L628.55,59.46L633.42,62.38L638.3,54.41L643.17,63.09L648.04,77.48L652.91,77.12L657.79,76.77L662.66,73.28L667.53,73.63L672.4,79.83L677.28,78.62L682.15,72.92L687.02,69.65L691.89,75.34L696.77,105.96L701.64,99.41L706.51,83.67L711.38,82.18L716.26,91.86L721.13,88.23L726,67.3" style="vector-effect: none; fill: none; stroke: rgb(128, 0, 128); stroke-opacity: 1; stroke-width: 2px; opacity: 1;"/></g><g class="points"/><g class="text"/></g><g class="trace scatter trace21735b" style="stroke-miterlimit: 2; opacity: 1;"><g class="fills"/><g class="errorbars"/><g class="lines"><path class="js-line" d="M0,339.6L24.36,339.6L29.23,288.33L34.11,301.5L38.98,301.5L43.85,288.33L48.72,289.82L77.96,289.82L82.83,276.65L92.58,276.65L97.45,263.48L102.32,263.48L107.19,264.97L112.07,267.89L116.94,273.87L121.81,275.37L126.68,269.39L131.56,249.45L136.43,248.17L141.3,281.56L146.17,265.4L151.05,274.09L155.92,263.9L160.79,246.46L165.66,236.49L170.54,227.52L175.41,240.97L180.28,264.33L185.15,269.89L190.03,257.71L194.9,271.1L199.77,262.41L204.64,260.91L209.52,254.93L214.39,244.75L219.26,244.75L224.13,257.92L229.01,225.81L233.88,238.98L238.75,238.98L243.62,228.8L248.5,233.28L253.37,217.12L258.24,249.23L263.11,256.43L267.99,246.24L272.86,246.24L277.73,249.23L282.6,266.68L287.48,256.43L292.35,256.43L297.22,243.25L302.09,247.95L306.97,220.32L311.84,220.11L316.71,224.53L321.58,233.28L331.33,209.86L336.2,215.84L341.07,231.79L345.95,240.48L355.69,214.13L360.56,215.62L365.44,205.44L370.31,225.81L375.18,221.61L380.05,227.3L384.93,256.43L389.8,240.69L394.67,236.27L399.54,220.11L409.29,214.56L414.16,211.57L423.91,220.32L428.78,223.31L433.65,215.84L438.52,214.34L443.4,217.33L448.27,221.82L453.14,223.31L458.01,218.83L462.89,206.94L467.76,208.36L472.63,223.31L477.5,217.12L482.38,231.79L487.25,211.14L492.12,220.11L496.99,198.39L501.87,219.04L506.74,199.89L511.61,204.37L516.48,201.38L521.36,199.89L526.23,209.64L531.1,222.82L535.97,212.63L540.85,198.39L545.72,218.61L550.59,246.24L555.46,221.39L560.34,234.57L565.21,234.57L570.08,224.31L574.95,222.82L579.83,249.23L584.7,249.23L589.57,212.85L594.44,211.35L599.32,209.86L604.19,207.15L609.06,210.07L613.93,225.81L618.81,207.15L623.68,208.65L628.55,207.15L633.42,211.57L638.3,210.07L643.17,214.56L648.04,212.85L652.91,209.86L657.79,211.35L662.66,207.15L667.53,210.07L672.4,210.07L677.28,227.52L682.15,207.15L687.02,208.65L691.89,230.29L696.77,256.43L701.64,243.25L706.51,237.56L711.38,234.57L721.13,231.57L726,217.12" style="vector-effect: none; fill: none; stroke: rgb(255, 192, 203); stroke-opacity: 1; stroke-width: 2px; opacity: 1;"/></g><g class="points"/><g class="text"/></g><g class="trace scatter tracee01556" style="stroke-miterlimit: 2; opacity: 1;"><g class="fills"/><g class="errorbars"/><g class="lines"><path class="js-line" d="M0,358.9L19.49,358.9L24.36,352.2L29.23,283.2L34.11,286.98L38.98,277.15L43.85,277.93L48.72,262.76L53.6,257.78L58.47,248.17L63.34,217.69L68.21,209.29L73.09,210.5L77.96,202.31L82.83,186.57L92.58,184.08L97.45,153.46L102.32,153.46L107.19,139.57L112.07,134.73L116.94,127.68L121.81,122.77L126.68,131.74L131.56,126.9L136.43,149.54L141.3,127.4L146.17,122.91L151.05,116.72L155.92,117.57L160.79,126.4L165.66,142.71L170.54,143.7L175.41,156.02L180.28,162.57L185.15,126.26L190.03,127.68L194.9,121.63L199.77,124.19L204.64,125.33L214.39,119.71L219.26,114.01L224.13,118.64L229.01,116.43L233.88,115.22L238.75,115.22L243.62,118L248.5,127.25L253.37,122.91L258.24,110.66L263.11,116.72L267.99,115.08L272.86,117.36L277.73,120.92L282.6,126.61L287.48,125.33L292.35,120.63L297.22,124.19L302.09,129.96L306.97,128.61L311.84,127.25L316.71,123.05L321.58,123.05L326.46,124.19L331.33,119.07L336.2,130.96L341.07,121.63L345.95,122.2L350.82,118.92L355.69,121.06L365.44,121.41L370.31,124.33L375.18,125.62L380.05,113.37L384.93,122.34L389.8,118.71L394.67,113.23L399.54,119.99L404.42,135.3L409.29,134.37L414.16,135.37L419.03,132.67L423.91,128.11L428.78,129.18L433.65,125.9L438.52,132.74L443.4,125.9L448.27,129.89L458.01,129.32L462.89,118.64L467.76,119.56L472.63,135.16L477.5,115.01L482.38,112.73L487.25,103.97L492.12,111.23L496.99,122.7L501.87,121.91L506.74,121.06L511.61,135.59L516.48,120.42L521.36,125.4L526.23,110.66L531.1,112.73L535.97,106.25L540.85,126.26L545.72,120.42L550.59,105.46L555.46,106.46L560.34,112.8L565.21,116.15L570.08,115.22L574.95,110.38L579.83,112.59L584.7,101.97L589.57,107.74L594.44,114.15L599.32,114.15L604.19,114.29L609.06,119.78L613.93,101.05L618.81,112.37L623.68,111.59L628.55,112.94L633.42,113.8L638.3,113.51L643.17,115.93L648.04,112.09L657.79,109.81L662.66,122.77L667.53,123.84L672.4,126.61L677.28,115.5L682.15,121.7L687.02,119.78L691.89,113.51L696.77,111.52L701.64,106.96L706.51,115.01L711.38,110.38L716.26,107.96L721.13,104.54L726,104.89" style="vector-effect: none; fill: none; stroke: rgb(165, 42, 42); stroke-opacity: 1; stroke-width: 2px; opacity: 1;"/></g><g class="points"/><g class="text"/></g><g class="trace scatter trace428be9" style="stroke-miterlimit: 2; opacity: 1;"><g class="fills"/><g class="errorbars"/><g class="lines"><path class="js-line" d="M0,358.61L24.36,358.61L29.23,267.68L34.11,288.47L38.98,288.47L43.85,267.68L48.72,271.1L77.96,271.1L82.83,252.01L92.58,252.01L97.45,234L102.32,234L107.19,238.13L112.07,245.89L116.94,259.7L121.81,262.84L126.68,249.52L131.56,264.33L136.43,274.16L141.3,284.41L146.17,267.82L151.05,271.95L155.92,265.11L160.79,259.2L165.66,267.75L170.54,253.01L175.41,274.66L180.28,287.47L185.15,275.44L190.03,237.63L194.9,266.47L199.77,262.41L204.64,259.63L209.52,247.67L214.39,241.54L219.26,241.54L224.13,253.79L229.01,234.71L233.88,245.39L238.75,245.39L243.62,240.69L248.5,249.16L253.37,233.57L258.24,250.66L263.11,250.8L267.99,244.68L272.86,244.68L282.6,257.78L287.48,250.8L292.35,250.8L297.22,238.34L302.09,261.84L306.97,254.36L311.84,239.41L316.71,247.67L321.58,249.16L326.46,242.19L331.33,235.71L336.2,246.6L341.07,246.39L345.95,248.24L355.69,227.52L360.56,230.58L365.44,226.95L370.31,234.71L375.18,242.19L380.05,237.7L389.8,262.19L394.67,254.5L399.54,239.41L404.42,263.12L414.16,253.51L419.03,260.77L423.91,254.36L428.78,259.28L433.65,246.6L438.52,243.97L443.4,249.23L448.27,256.85L453.14,259.28L458.01,251.8L462.89,229.87L467.76,232.86L472.63,259.28L477.5,233.57L482.38,246.39L487.25,221.11L492.12,239.41L496.99,245.46L501.87,265.4L506.74,248.02L511.61,255.36L516.48,250.52L521.36,248.02L526.23,217.83L531.1,228.44L535.97,224.31L540.85,245.46L545.72,236.49L550.59,244.68L555.46,225.17L560.34,236.27L565.21,236.27L570.08,231.57L574.95,228.44L579.83,250.66L584.7,250.66L589.57,241.26L594.44,238.48L599.32,235.71L604.19,245.89L609.06,251.01L613.93,234.71L618.81,245.89L623.68,248.45L628.55,245.89L633.42,253.51L638.3,251.01L643.17,258.35L648.04,241.26L652.91,235.71L657.79,238.48L662.66,245.89L667.53,251.01L672.4,251.01L677.28,253.01L682.15,245.89L687.02,248.45L691.89,243.54L696.77,250.8L701.64,238.34L706.51,242.4L711.38,236.27L721.13,229.79L726,233.57" style="vector-effect: none; fill: none; stroke: rgb(128, 128, 128); stroke-opacity: 1; stroke-width: 2px; opacity: 1;"/></g><g class="points"/><g class="text"/></g></g></g><g class="overplot"/><path class="xlines-above crisp" d="M0,0" style="fill: none;"/><path class="ylines-above crisp" d="M0,0" style="fill: none;"/><g class="overlines-above"/><g class="xaxislayer-above"><g class="xtick"><text text-anchor="middle" x="0" y="509" transform="translate(235.57999999999998,0)" style="font-family: 'Open Sans', verdana, arial, sans-serif; font-size: 12px; fill: rgb(42, 63, 95); fill-opacity: 1; white-space: pre; opacity: 1;">20</text></g><g class="xtick"><text text-anchor="middle" x="0" y="509" style="font-family: 'Open Sans', verdana, arial, sans-serif; font-size: 12px; fill: rgb(42, 63, 95); fill-opacity: 1; white-space: pre; opacity: 1;" transform="translate(333.03,0)">40</text></g><g class="xtick"><text text-anchor="middle" x="0" y="509" style="font-family: 'Open Sans', verdana, arial, sans-serif; font-size: 12px; fill: rgb(42, 63, 95); fill-opacity: 1; white-space: pre; opacity: 1;" transform="translate(430.48,0)">60</text></g><g class="xtick"><text text-anchor="middle" x="0" y="509" style="font-family: 'Open Sans', verdana, arial, sans-serif; font-size: 12px; fill: rgb(42, 63, 95); fill-opacity: 1; white-space: pre; opacity: 1;" transform="translate(527.9300000000001,0)">80</text></g><g class="xtick"><text text-anchor="middle" x="0" y="509" style="font-family: 'Open Sans', verdana, arial, sans-serif; font-size: 12px; fill: rgb(42, 63, 95); fill-opacity: 1; white-space: pre; opacity: 1;" transform="translate(625.38,0)">100</text></g><g class="xtick"><text text-anchor="middle" x="0" y="509" style="font-family: 'Open Sans', verdana, arial, sans-serif; font-size: 12px; fill: rgb(42, 63, 95); fill-opacity: 1; white-space: pre; opacity: 1;" transform="translate(722.83,0)">120</text></g><g class="xtick"><text text-anchor="middle" x="0" y="509" style="font-family: 'Open Sans', verdana, arial, sans-serif; font-size: 12px; fill: rgb(42, 63, 95); fill-opacity: 1; white-space: pre; opacity: 1;" transform="translate(820.28,0)">140</text></g></g><g class="yaxislayer-above"><g class="ytick"><text text-anchor="end" x="142" y="4.199999999999999" transform="translate(0,439.6)" style="font-family: 'Open Sans', verdana, arial, sans-serif; font-size: 12px; fill: rgb(42, 63, 95); fill-opacity: 1; white-space: pre; opacity: 1;">50</text></g><g class="ytick"><text text-anchor="end" x="142" y="4.199999999999999" style="font-family: 'Open Sans', verdana, arial, sans-serif; font-size: 12px; fill: rgb(42, 63, 95); fill-opacity: 1; white-space: pre; opacity: 1;" transform="translate(0,368.39)">60</text></g><g class="ytick"><text text-anchor="end" x="142" y="4.199999999999999" style="font-family: 'Open Sans', verdana, arial, sans-serif; font-size: 12px; fill: rgb(42, 63, 95); fill-opacity: 1; white-space: pre; opacity: 1;" transform="translate(0,297.18)">70</text></g><g class="ytick"><text text-anchor="end" x="142" y="4.199999999999999" style="font-family: 'Open Sans', verdana, arial, sans-serif; font-size: 12px; fill: rgb(42, 63, 95); fill-opacity: 1; white-space: pre; opacity: 1;" transform="translate(0,225.97)">80</text></g><g class="ytick"><text text-anchor="end" x="142" y="4.199999999999999" style="font-family: 'Open Sans', verdana, arial, sans-serif; font-size: 12px; fill: rgb(42, 63, 95); fill-opacity: 1; white-space: pre; opacity: 1;" transform="translate(0,154.76)">90</text></g></g><g class="overaxes-above"/></g></g><g class="polarlayer"/><g class="smithlayer"/><g class="ternarylayer"/><g class="geolayer"/><g class="funnelarealayer"/><g class="pielayer"/><g class="iciclelayer"/><g class="treemaplayer"/><g class="sunburstlayer"/><g class="glimages"/><defs id="topdefs-7c9256"><g class="clips"/><clipPath id="legend7c9256"><rect width="128" height="162" x="0" y="0"/></clipPath></defs><g class="layer-above"><g class="imagelayer"/><g class="shapelayer"/></g><g class="infolayer"><g class="legend" pointer-events="all" transform="translate(883.52,100)"><rect class="bg" shape-rendering="crispEdges" width="128" height="162" x="0" y="0" style="stroke: rgb(68, 68, 68); stroke-opacity: 1; fill: rgb(255, 255, 255); fill-opacity: 1; stroke-width: 0px;"/><g class="scrollbox" transform="" clip-path="url(#legend7c9256)"><g class="groups"><g class="traces" transform="translate(0,14.5)" style="opacity: 1;"><text class="legendtext" text-anchor="start" x="40" y="4.680000000000001" style="font-family: 'Open Sans', verdana, arial, sans-serif; font-size: 12px; fill: rgb(42, 63, 95); fill-opacity: 1; white-space: pre;">Train Accuracy</text><g class="layers" style="opacity: 1;"><g class="legendfill"/><g class="legendlines"><path class="js-line" d="M5,0h30" style="fill: none; stroke: rgb(255, 0, 0); stroke-opacity: 1; stroke-width: 2px;"/></g><g class="legendsymbols"><g class="legendpoints"/></g></g><rect class="legendtoggle" x="0" y="-9.5" width="122.71875" height="19" style="fill: rgb(0, 0, 0); fill-opacity: 0;"/></g><g class="traces" transform="translate(0,33.5)" style="opacity: 1;"><text class="legendtext" text-anchor="start" x="40" y="4.680000000000001" style="font-family: 'Open Sans', verdana, arial, sans-serif; font-size: 12px; fill: rgb(42, 63, 95); fill-opacity: 1; white-space: pre;">Test Accuracy</text><g class="layers" style="opacity: 1;"><g class="legendfill"/><g class="legendlines"><path class="js-line" d="M5,0h30" style="fill: none; stroke: rgb(0, 0, 255); stroke-opacity: 1; stroke-width: 2px;"/></g><g class="legendsymbols"><g class="legendpoints"/></g></g><rect class="legendtoggle" x="0" y="-9.5" width="122.71875" height="19" style="fill: rgb(0, 0, 0); fill-opacity: 0;"/></g><g class="traces" transform="translate(0,52.5)" style="opacity: 1;"><text class="legendtext" text-anchor="start" x="40" y="4.680000000000001" style="font-family: 'Open Sans', verdana, arial, sans-serif; font-size: 12px; fill: rgb(42, 63, 95); fill-opacity: 1; white-space: pre;">Train Precision</text><g class="layers" style="opacity: 1;"><g class="legendfill"/><g class="legendlines"><path class="js-line" d="M5,0h30" style="fill: none; stroke: rgb(0, 128, 0); stroke-opacity: 1; stroke-width: 2px;"/></g><g class="legendsymbols"><g class="legendpoints"/></g></g><rect class="legendtoggle" x="0" y="-9.5" width="122.71875" height="19" style="fill: rgb(0, 0, 0); fill-opacity: 0;"/></g><g class="traces" transform="translate(0,71.5)" style="opacity: 1;"><text class="legendtext" text-anchor="start" x="40" y="4.680000000000001" style="font-family: 'Open Sans', verdana, arial, sans-serif; font-size: 12px; fill: rgb(42, 63, 95); fill-opacity: 1; white-space: pre;">Test Precision</text><g class="layers" style="opacity: 1;"><g class="legendfill"/><g class="legendlines"><path class="js-line" d="M5,0h30" style="fill: none; stroke: rgb(255, 165, 0); stroke-opacity: 1; stroke-width: 2px;"/></g><g class="legendsymbols"><g class="legendpoints"/></g></g><rect class="legendtoggle" x="0" y="-9.5" width="122.71875" height="19" style="fill: rgb(0, 0, 0); fill-opacity: 0;"/></g><g class="traces" transform="translate(0,90.5)" style="opacity: 1;"><text class="legendtext" text-anchor="start" x="40" y="4.680000000000001" style="font-family: 'Open Sans', verdana, arial, sans-serif; font-size: 12px; fill: rgb(42, 63, 95); fill-opacity: 1; white-space: pre;">Train Recall</text><g class="layers" style="opacity: 1;"><g class="legendfill"/><g class="legendlines"><path class="js-line" d="M5,0h30" style="fill: none; stroke: rgb(128, 0, 128); stroke-opacity: 1; stroke-width: 2px;"/></g><g class="legendsymbols"><g class="legendpoints"/></g></g><rect class="legendtoggle" x="0" y="-9.5" width="122.71875" height="19" style="fill: rgb(0, 0, 0); fill-opacity: 0;"/></g><g class="traces" transform="translate(0,109.5)" style="opacity: 1;"><text class="legendtext" text-anchor="start" x="40" y="4.680000000000001" style="font-family: 'Open Sans', verdana, arial, sans-serif; font-size: 12px; fill: rgb(42, 63, 95); fill-opacity: 1; white-space: pre;">Test Recall</text><g class="layers" style="opacity: 1;"><g class="legendfill"/><g class="legendlines"><path class="js-line" d="M5,0h30" style="fill: none; stroke: rgb(255, 192, 203); stroke-opacity: 1; stroke-width: 2px;"/></g><g class="legendsymbols"><g class="legendpoints"/></g></g><rect class="legendtoggle" x="0" y="-9.5" width="122.71875" height="19" style="fill: rgb(0, 0, 0); fill-opacity: 0;"/></g><g class="traces" transform="translate(0,128.5)" style="opacity: 1;"><text class="legendtext" text-anchor="start" x="40" y="4.680000000000001" style="font-family: 'Open Sans', verdana, arial, sans-serif; font-size: 12px; fill: rgb(42, 63, 95); fill-opacity: 1; white-space: pre;">Train F1</text><g class="layers" style="opacity: 1;"><g class="legendfill"/><g class="legendlines"><path class="js-line" d="M5,0h30" style="fill: none; stroke: rgb(165, 42, 42); stroke-opacity: 1; stroke-width: 2px;"/></g><g class="legendsymbols"><g class="legendpoints"/></g></g><rect class="legendtoggle" x="0" y="-9.5" width="122.71875" height="19" style="fill: rgb(0, 0, 0); fill-opacity: 0;"/></g><g class="traces" transform="translate(0,147.5)" style="opacity: 1;"><text class="legendtext" text-anchor="start" x="40" y="4.680000000000001" style="font-family: 'Open Sans', verdana, arial, sans-serif; font-size: 12px; fill: rgb(42, 63, 95); fill-opacity: 1; white-space: pre;">Test F1</text><g class="layers" style="opacity: 1;"><g class="legendfill"/><g class="legendlines"><path class="js-line" d="M5,0h30" style="fill: none; stroke: rgb(128, 128, 128); stroke-opacity: 1; stroke-width: 2px;"/></g><g class="legendsymbols"><g class="legendpoints"/></g></g><rect class="legendtoggle" x="0" y="-9.5" width="122.71875" height="19" style="fill: rgb(0, 0, 0); fill-opacity: 0;"/></g></g></g><rect class="scrollbar" rx="20" ry="3" width="0" height="0" x="0" y="0" style="fill: rgb(128, 139, 164); fill-opacity: 1;"/></g><g class="g-gtitle"><text class="gtitle" x="51.2" y="50" text-anchor="start" dy="0em" style="font-family: 'Open Sans', verdana, arial, sans-serif; font-size: 17px; fill: rgb(42, 63, 95); opacity: 1; font-weight: normal; white-space: pre;">Training Metrics - logs/fake-news-datasets-deception-Election-Day_num-clauses=5000_max-vocab=15000_pre=v2_text_T=150_s=10.log</text></g><g class="g-xtitle"><text class="xtitle" x="506" y="537.3" text-anchor="middle" style="font-family: 'Open Sans', verdana, arial, sans-serif; font-size: 14px; fill: rgb(42, 63, 95); opacity: 1; font-weight: normal; white-space: pre;">Epoch</text></g><g class="g-ytitle"><text class="ytitle" transform="rotate(-90,103.965625,298)" x="103.965625" y="298" text-anchor="middle" style="font-family: 'Open Sans', verdana, arial, sans-serif; font-size: 14px; fill: rgb(42, 63, 95); opacity: 1; font-weight: normal; white-space: pre;">Metric Score</text></g></g><g class="menulayer"><g class="updatemenu-container" style="cursor: pointer;"><g class="updatemenu-header-group" transform="translate(12,60)"><g class="updatemenu-header" transform="translate(1,1)" style="pointer-events: all;"><rect class="updatemenu-item-rect" rx="2" ry="2" shape-rendering="crispEdges" x="0" y="0" width="167" height="33" style="stroke: rgb(190, 200, 217); stroke-opacity: 1; fill: rgb(255, 255, 255); fill-opacity: 1; stroke-width: 1px;"/><text class="updatemenu-item-text" text-anchor="start" data-notex="1" x="12" y="19.5" style="font-family: 'Open Sans', verdana, arial, sans-serif; font-size: 12px; fill: rgb(42, 63, 95); fill-opacity: 1; white-space: pre;">All</text></g><text class="updatemenu-header-arrow" text-anchor="end" x="163" y="19.5" style="font-family: 'Open Sans', verdana, arial, sans-serif; font-size: 12px; fill: rgb(42, 63, 95); fill-opacity: 1;">▼</text></g><g class="updatemenu-dropdown-button-group" updatemenu-active-index="-1" style="pointer-events: all;"><rect class="scrollbox-bg" opacity="0" x="0" y="0" width="0" height="0" style="pointer-events: all;"/></g></g></g></svg>