<svg class="main-svg" xmlns="http://www.w3.org/2000/svg" xmlns:xlink="http://www.w3.org/1999/xlink" width="1024" height="576" style="" viewBox="0 0 1024 576"><rect x="0" y="0" width="1024" height="576" style="fill: rgb(255, 255, 255); fill-opacity: 1;"/><defs id="defs-5d1948"><g class="clips"><clipPath id="clip5d1948xyplot" class="plotclip"><rect width="726" height="396"/></clipPath><clipPath class="axesclip" id="clip5d1948x"><rect x="143" y="0" width="726" height="576"/></clipPath><clipPath class="axesclip" id="clip5d1948y"><rect x="0" y="100" width="1024" height="396"/></clipPath><clipPath class="axesclip" id="clip5d1948xy"><rect x="143" y="100" width="726" height="396"/></clipPath></g><g class="gradients"/><g class="patterns"/></defs><g class="bglayer"><rect class="bg" x="143" y="100" width="726" height="396" style="fill: rgb(229, 236, 246); fill-opacity: 1; stroke-width: 0;"/></g><g class="layer-below"><g class="imagelayer"/><g class="shapelayer"/></g><g class="cartesianlayer"><g class="subplot xy"><g class="layer-subplot"><g class="shapelayer"/><g class="imagelayer"/></g><g class="minor-gridlayer"><g class="x"/><g class="y"/></g><g class="gridlayer"><g class="x"><path class="xgrid crisp" transform="translate(235.57999999999998,0)" d="M0,100v396" style="stroke: rgb(255, 255, 255); stroke-opacity: 1; stroke-width: 1px;"/><path class="xgrid crisp" transform="translate(333.03,0)" d="M0,100v396" style="stroke: rgb(255, 255, 255); stroke-opacity: 1; stroke-width: 1px;"/><path class="xgrid crisp" transform="translate(430.48,0)" d="M0,100v396" style="stroke: rgb(255, 255, 255); stroke-opacity: 1; stroke-width: 1px;"/><path class="xgrid crisp" transform="translate(527.9300000000001,0)" d="M0,100v396" style="stroke: rgb(255, 255, 255); stroke-opacity: 1; stroke-width: 1px;"/><path class="xgrid crisp" transform="translate(625.38,0)" d="M0,100v396" style="stroke: rgb(255, 255, 255); stroke-opacity: 1; stroke-width: 1px;"/><path class="xgrid crisp" transform="translate(722.83,0)" d="M0,100v396" style="stroke: rgb(255, 255, 255); stroke-opacity: 1; stroke-width: 1px;"/><path class="xgrid crisp" transform="translate(820.28,0)" d="M0,100v396" style="stroke: rgb(255, 255, 255); stroke-opacity: 1; stroke-width: 1px;"/></g><g class="y"><path class="ygrid crisp" transform="translate(0,481.03)" d="M143,0h726" style="stroke: rgb(255, 255, 255); stroke-opacity: 1; stroke-width: 1px;"/><path class="ygrid crisp" transform="translate(0,439.05)" d="M143,0h726" style="stroke: rgb(255, 255, 255); stroke-opacity: 1; stroke-width: 1px;"/><path class="ygrid crisp" transform="translate(0,397.07)" d="M143,0h726" style="stroke: rgb(255, 255, 255); stroke-opacity: 1; stroke-width: 1px;"/><path class="ygrid crisp" transform="translate(0,355.09000000000003)" d="M143,0h726" style="stroke: rgb(255, 255, 255); stroke-opacity: 1; stroke-width: 1px;"/><path class="ygrid crisp" transform="translate(0,313.11)" d="M143,0h726" style="stroke: rgb(255, 255, 255); stroke-opacity: 1; stroke-width: 1px;"/><path class="ygrid crisp" transform="translate(0,271.13)" d="M143,0h726" style="stroke: rgb(255, 255, 255); stroke-opacity: 1; stroke-width: 1px;"/><path class="ygrid crisp" transform="translate(0,229.15)" d="M143,0h726" style="stroke: rgb(255, 255, 255); stroke-opacity: 1; stroke-width: 1px;"/><path class="ygrid crisp" transform="translate(0,187.18)" d="M143,0h726" style="stroke: rgb(255, 255, 255); stroke-opacity: 1; stroke-width: 1px;"/><path class="ygrid crisp" transform="translate(0,145.2)" d="M143,0h726" style="stroke: rgb(255, 255, 255); stroke-opacity: 1; stroke-width: 1px;"/><path class="ygrid crisp" transform="translate(0,103.22)" d="M143,0h726" style="stroke: rgb(255, 255, 255); stroke-opacity: 1; stroke-width: 1px;"/></g></g><g class="zerolinelayer"/><path class="xlines-below"/><path class="ylines-below"/><g class="overlines-below"/><g class="xaxislayer-below"/><g class="yaxislayer-below"/><g class="overaxes-below"/><g class="plot" transform="translate(143,100)" clip-path="url(#clip5d1948xyplot)"><g class="scatterlayer mlayer"><g class="trace scatter trace841299" style="stroke-miterlimit: 2; opacity: 1;"><g class="fills"/><g class="errorbars"/><g class="lines"><path class="js-line" d="M0,318.27L4.87,199.05L9.74,192.12L14.62,150.35L19.49,177.01L24.36,143.85L29.23,131.46L34.11,123.49L38.98,105.44L43.85,149.93L48.72,159.38L53.6,138.39L58.47,150.14L63.34,138.6L68.21,98.3L73.09,97.46L77.96,88.86L92.58,62.83L97.45,67.45L102.32,90.53L107.19,73.95L112.07,72.48L116.94,73.32L121.81,76.89L126.68,62.62L131.56,65.35L136.43,80.67L141.3,80.04L146.17,61.99L151.05,55.69L155.92,67.45L160.79,65.35L165.66,50.02L170.54,47.72L175.41,54.64L180.28,54.01L185.15,54.85L190.03,53.38L194.9,46.25L199.77,55.06L204.64,52.75L209.52,56.53L214.39,51.49L219.26,44.15L224.13,60.31L229.01,67.03L233.88,67.66L238.75,59.26L243.62,47.93L248.5,51.91L253.37,45.83L258.24,42.05L263.11,44.15L267.99,42.05L272.86,45.2L277.73,43.94L282.6,36.17L287.48,39.74L292.35,37.01L297.22,41.63L302.09,37.64L306.97,35.33L311.84,39.74L316.71,43.1L321.58,42.47L326.46,47.72L331.33,49.19L341.07,47.51L345.95,39.11L350.82,26.1L355.69,29.87L360.56,23.58L365.44,42.05L370.31,41.42L375.18,41.84L380.05,45.83L384.93,48.56L389.8,46.04L394.67,44.99L399.54,44.99L404.42,55.27L409.29,47.51L414.16,32.81L419.03,45.83L423.91,48.14L433.65,60.1L438.52,51.49L443.4,57.58L448.27,50.23L453.14,62.83L458.01,58.21L462.89,58.63L467.76,54.43L477.5,43.1L482.38,46.46L487.25,48.35L492.12,33.02L496.99,37.22L501.87,42.47L506.74,51.28L511.61,33.65L516.48,40.16L521.36,32.39L526.23,38.69L531.1,27.15L535.97,32.18L540.85,26.94L545.72,32.18L550.59,39.32L555.46,42.05L560.34,37.43L565.21,47.72L570.08,46.25L574.95,47.72L579.83,35.12L584.7,39.11L589.57,35.12L594.44,22.53L599.32,19.8L604.19,32.6L609.06,42.89L613.93,47.93L618.81,49.19L623.68,37.43L628.55,39.95L633.42,34.07L638.3,34.49L643.17,35.54L648.04,45.62L652.91,49.4L657.79,34.49L662.66,46.04L667.53,37.64L672.4,42.05L677.28,35.33L682.15,50.65L687.02,54.64L691.89,42.89L696.77,51.91L701.64,39.53L706.51,37.85L711.38,37.64L716.26,29.04L721.13,44.99L726,41.84" style="vector-effect: none; fill: none; stroke: rgb(255, 0, 0); stroke-opacity: 1; stroke-width: 2px; opacity: 1;"/></g><g class="points"/><g class="text"/></g><g class="trace scatter traceb0806a" style="stroke-miterlimit: 2; opacity: 1;"><g class="fills"/><g class="errorbars"/><g class="lines"><path class="js-line" d="M0,307.56L4.87,227.18L9.74,211.85L14.62,169.24L19.49,198.63L29.23,148.88L34.11,148.88L38.98,136.92L43.85,178.27L48.72,195.9L53.6,162.53L58.47,177.22L63.34,165.47L68.21,109L73.09,123.7L77.96,116.14L82.83,110.89L87.7,108.17L92.58,93.89L97.45,86.34L102.32,119.92L107.19,101.03L112.07,101.87L116.94,101.03L121.81,103.76L126.68,85.92L131.56,90.11L136.43,107.54L141.3,101.03L146.17,93.47L151.05,90.53L155.92,96.2L160.79,105.23L170.54,77.73L175.41,83.4L180.28,92L185.15,93.47L194.9,82.98L199.77,88.23L204.64,93.47L209.52,96.2L219.26,71.64L224.13,83.4L233.88,99.98L238.75,80.67L243.62,80.67L248.5,87.81L258.24,78.15L263.11,75.42L267.99,73.11L272.86,72.48L277.73,69.33L282.6,69.75L287.48,70.59L292.35,68.71L297.22,70.59L302.09,68.29L306.97,68.71L311.84,80.04L316.71,71.22L321.58,75.42L326.46,84.45L331.33,77.31L336.2,80.04L341.07,70.59L345.95,66.82L350.82,56.53L355.69,60.31L360.56,58.84L365.44,80.04L370.31,78.15L375.18,79.2L380.05,83.4L384.93,90.53L389.8,81.51L394.67,80.04L399.54,80.67L404.42,94.73L409.29,88.23L414.16,73.11L419.03,85.92L423.91,84.03L428.78,95.36L433.65,102.92L438.52,98.72L443.4,111.52L448.27,92.42L453.14,110.47L458.01,109L462.89,112.78L467.76,101.87L472.63,97.25L477.5,91.58L482.38,93.47L487.25,99.14L492.12,82.56L496.99,82.98L501.87,88.65L506.74,97.25L511.61,82.98L516.48,84.45L521.36,85.92L526.23,83.4L531.1,70.17L535.97,80.04L540.85,77.31L545.72,73.53L550.59,80.04L555.46,81.51L560.34,76.26L565.21,89.07L570.08,84.03L574.95,97.67L579.83,78.78L584.7,84.45L589.57,73.11L594.44,68.71L599.32,59.26L604.19,68.71L609.06,79.62L613.93,88.23L618.81,87.18L623.68,80.67L628.55,82.98L633.42,75L638.3,76.26L643.17,79.62L648.04,85.29L652.91,94.73L657.79,86.76L662.66,92.42L667.53,85.92L672.4,90.95L677.28,83.4L682.15,99.14L687.02,101.45L691.89,89.07L696.77,101.87L701.64,82.98L711.38,83.4L716.26,71.22L721.13,89.07L726,85.92" style="vector-effect: none; fill: none; stroke: rgb(0, 0, 255); stroke-opacity: 1; stroke-width: 2px; opacity: 1;"/></g><g class="points"/><g class="text"/></g><g class="trace scatter trace219c4b" style="stroke-miterlimit: 2; opacity: 1;"><g class="fills"/><g class="errorbars"/><g class="lines"><path class="js-line" d="M0,315.54L4.87,273.77L9.74,267.47L14.62,255.72L19.49,261.18L24.36,249.42L29.23,245.44L34.11,237.88L38.98,224.03L43.85,236.62L48.72,236.62L53.6,233.05L58.47,234.94L63.34,233.26L68.21,217.52L73.09,216.26L77.96,214.16L82.83,208.91L87.7,201.15L92.58,195.48L97.45,198.84L102.32,208.07L107.19,196.53L112.07,195.69L116.94,196.11L121.81,199.05L126.68,191.7L131.56,192.96L136.43,197.58L141.3,200.1L146.17,189.39L151.05,187.72L155.92,195.69L160.79,193.8L165.66,185.83L170.54,184.36L175.41,187.09L180.28,184.36L185.15,183.94L190.03,184.57L194.9,178.27L199.77,185.62L204.64,183.94L209.52,184.78L214.39,183.52L219.26,179.11L224.13,188.13L229.01,193.17L233.88,193.38L238.75,188.13L243.62,181L248.5,184.15L253.37,180.79L258.24,178.69L263.11,180.16L267.99,178.9L272.86,182.26L282.6,175.75L287.48,178.48L292.35,176.17L297.22,176.59L302.09,174.91L306.97,171.55L316.71,177.43L321.58,176.17L326.46,179.32L331.33,179.95L336.2,180.58L341.07,179.74L345.95,174.49L350.82,167.57L355.69,169.87L360.56,164.42L365.44,174.49L370.31,175.54L375.18,176.59L380.05,178.48L384.93,181L389.8,181L394.67,180.58L399.54,179.32L404.42,182.89L409.29,179.53L414.16,170.92L419.03,178.48L423.91,179.95L428.78,183.1L433.65,185.62L438.52,179.74L443.4,183.73L448.27,181.21L453.14,186.67L458.01,184.57L462.89,185.62L467.76,185.2L472.63,181.21L477.5,176.17L482.38,178.69L487.25,179.11L492.12,171.55L496.99,174.91L501.87,176.8L506.74,183.1L511.61,173.44L516.48,176.17L521.36,171.55L526.23,176.38L531.1,168.82L535.97,172.18L540.85,167.78L545.72,171.76L550.59,175.33L555.46,177.64L560.34,174.28L565.21,179.53L570.08,179.53L574.95,178.48L579.83,171.13L584.7,173.44L589.57,173.65L594.44,164.63L599.32,162.53L604.19,169.45L609.06,175.33L613.93,176.59L618.81,179.32L623.68,173.65L628.55,173.86L633.42,171.13L638.3,171.34L643.17,170.71L648.04,176.17L652.91,177.01L657.79,169.03L662.66,174.91L667.53,170.5L672.4,173.02L677.28,170.5L682.15,179.74L687.02,183.1L691.89,177.43L696.77,182.47L701.64,175.54L706.51,175.12L711.38,173.86L716.26,169.66L721.13,177.01L726,175.12" style="vector-effect: none; fill: none; stroke: rgb(0, 128, 0); stroke-opacity: 1; stroke-width: 2px; opacity: 1;"/></g><g class="points"/><g class="text"/></g><g class="trace scatter trace44b0af" style="stroke-miterlimit: 2; opacity: 1;"><g class="fills"/><g class="errorbars"/><g class="lines"><path class="js-line" d="M0,305.68L4.87,286.37L9.74,276.29L14.62,265.38L19.49,271.04L24.36,265.38L29.23,258.03L38.98,244.18L43.85,256.77L48.72,260.76L53.6,249.42L58.47,251.94L63.34,252.78L68.21,224.24L73.09,234.52L77.96,232.42L82.83,231.37L87.7,224.66L92.58,216.26L97.45,210.17L102.32,224.03L107.19,210.8L112.07,210.59L116.94,211.43L121.81,214.16L126.68,206.4L131.56,209.75L136.43,217.73L141.3,216.26L146.17,213.11L151.05,215L160.79,224.87L165.66,216.68L170.54,207.45L175.41,210.59L180.28,215.63L185.15,215L190.03,212.27L194.9,208.28L199.77,213.74L204.64,215.21L209.52,217.94L214.39,208.28L219.26,199.89L224.13,203.04L229.01,208.28L233.88,215.84L238.75,200.94L243.62,206.4L248.5,211.22L253.37,209.96L263.11,205.35L267.99,204.72L272.86,206.4L277.73,199.26L282.6,200.52L287.48,203.88L297.22,199.47L302.09,198.21L306.97,198.42L311.84,206.4L316.71,200.31L321.58,201.99L326.46,210.17L331.33,202.62L336.2,204.72L341.07,197.58L345.95,196.11L350.82,193.38L355.69,196.95L360.56,195.27L365.44,206.82L370.31,207.24L375.18,208.49L380.05,210.59L384.93,217.1L389.8,212.69L399.54,209.96L404.42,216.68L409.29,212.9L414.16,206.4L419.03,212.06L423.91,208.91L428.78,217.73L433.65,222.14L438.52,219.62L443.4,228.43L448.27,217.52L453.14,225.5L458.01,229.06L462.89,230.95L472.63,222.56L477.5,215.63L482.38,215L487.25,220.04L492.12,212.69L496.99,212.06L501.87,215L506.74,221.09L511.61,213.32L516.48,212.69L521.36,215.84L526.23,212.69L531.1,204.93L535.97,211.64L540.85,212.27L545.72,208.7L550.59,210.17L555.46,210.17L560.34,207.03L565.21,213.32L570.08,209.12L574.95,216.89L579.83,204.72L584.7,209.96L589.57,204.93L594.44,204.09L599.32,196.11L604.19,199.05L609.06,204.51L613.93,206.4L618.81,205.35L623.68,207.24L628.55,207.45L633.42,203.04L643.17,206.19L648.04,207.03L652.91,212.69L657.79,211.22L662.66,211.43L667.53,209.96L672.4,212.27L677.28,210.59L682.15,218.78L687.02,221.3L691.89,216.05L696.77,222.98L701.64,212.69L706.51,212.69L711.38,210.59L716.26,205.56L721.13,211.85L726,209.96" style="vector-effect: none; fill: none; stroke: rgb(255, 165, 0); stroke-opacity: 1; stroke-width: 2px; opacity: 1;"/></g><g class="points"/><g class="text"/></g><g class="trace scatter trace190fba" style="stroke-miterlimit: 2; opacity: 1;"><g class="fills"/><g class="errorbars"/><g class="lines"><path class="js-line" d="M0,229.27L4.87,180.37L9.74,171.97L14.62,166.73L19.49,166.31L24.36,158.54L29.23,157.49L34.11,148.26L38.98,133.14L43.85,134.82L48.72,131.46L53.6,132.93L58.47,131.88L63.34,133.35L68.21,125.8L73.09,123.91L77.96,125.8L82.83,121.39L87.7,112.78L92.58,109.21L97.45,112.15L102.32,113.2L107.19,102.5L112.07,101.87L116.94,102.08L121.81,105.02L126.68,101.87L131.56,102.08L136.43,99.77L141.3,104.81L146.17,97.67L151.05,99.77L155.92,105.65L165.66,101.03L170.54,100.19L175.41,99.56L180.28,94.31L185.15,92.63L190.03,95.15L194.9,88.65L199.77,95.78L209.52,93.05L214.39,94.94L219.26,92.63L224.13,96.62L229.01,100.82L233.88,101.03L243.62,93.05L248.5,95.99L253.37,94.52L258.24,93.89L263.11,95.15L267.99,94.31L272.86,98.51L277.73,92L287.48,95.78L292.35,93.89L297.22,89.69L302.09,90.32L306.97,85.71L311.84,86.76L316.71,90.11L321.58,88.02L326.46,89.48L331.33,89.48L336.2,91.37L341.07,90.53L345.95,87.81L350.82,87.18L355.69,88.23L360.56,83.19L365.44,84.87L370.31,87.6L375.18,89.69L380.05,89.48L389.8,94.94L394.67,95.15L404.42,89.9L409.29,90.32L414.16,86.97L419.03,89.48L428.78,91.58L433.65,91.58L438.52,86.76L443.4,89.9L453.14,91.37L458.01,91.16L462.89,92.63L467.76,95.57L472.63,92.42L477.5,87.39L482.38,89.27L487.25,88.86L492.12,88.23L496.99,90.53L501.87,89.48L506.74,93.89L511.61,91.37L516.48,90.32L521.36,88.65L526.23,92.42L531.1,89.07L535.97,90.53L540.85,86.55L545.72,89.48L550.59,89.69L555.46,91.79L560.34,89.48L565.21,89.9L570.08,91.58L574.95,87.81L579.83,84.87L584.7,85.92L589.57,90.32L594.44,85.08L599.32,83.4L604.19,84.03L609.06,85.92L613.93,83.82L618.81,88.23L623.68,87.81L628.55,85.5L633.42,85.71L638.3,86.13L643.17,83.19L648.04,85.08L652.91,83.4L657.79,80.67L662.66,81.93L667.53,80.88L672.4,81.51L677.28,82.98L682.15,87.6L687.02,90.95L691.89,90.32L696.77,92.21L701.64,89.48L706.51,90.53L711.38,88.02L716.26,88.44L721.13,87.39L726,86.34" style="vector-effect: none; fill: none; stroke: rgb(128, 0, 128); stroke-opacity: 1; stroke-width: 2px; opacity: 1;"/></g><g class="points"/><g class="text"/></g><g class="trace scatter trace4c765d" style="stroke-miterlimit: 2; opacity: 1;"><g class="fills"/><g class="errorbars"/><g class="lines"><path class="js-line" d="M0,216.47L4.87,194.85L9.74,182.26L14.62,176.38L19.49,176.8L24.36,175.12L29.23,172.18L34.11,160.22L38.98,153.71L43.85,159.38L48.72,161.48L53.6,152.45L58.47,152.03L63.34,157.07L68.21,132.72L73.09,143.01L77.96,143.43L82.83,144.69L87.7,133.98L97.45,120.97L102.32,126.43L107.19,112.57L112.07,111.73L116.94,113.83L121.81,117.19L126.68,114.04L131.56,117.4L136.43,121.6L141.3,122.65L146.17,121.6L151.05,127.27L155.92,132.3L160.79,136.08L165.66,130.62L170.54,122.02L175.41,123.91L180.28,127.48L185.15,124.96L190.03,123.91L194.9,119.5L199.77,126.22L204.64,125.59L209.52,128.94L214.39,118.87L219.26,111.94L224.13,109L229.01,112.99L233.88,122.65L238.75,107.12L243.62,117.82L248.5,122.02L253.37,123.28L258.24,122.44L263.11,119.92L267.99,120.34L272.86,124.12L277.73,112.36L282.6,114.67L287.48,120.76L292.35,118.24L297.22,111.94L302.09,111.1L306.97,111.52L311.84,118.24L316.71,112.99L321.58,113.2L326.46,122.44L331.33,112.99L336.2,114.88L341.07,107.96L345.95,108.17L355.69,115.93L360.56,113.62L365.44,118.87L370.31,120.97L375.18,123.07L380.05,123.91L384.93,131.25L389.8,129.36L394.67,128.32L399.54,124.54L404.42,127.27L409.29,124.96L414.16,123.7L419.03,124.75L423.91,120.13L428.78,128.94L433.65,132.51L438.52,130.41L443.4,138.81L448.27,130.41L453.14,134.19L458.01,141.33L462.89,142.59L467.76,140.7L472.63,136.92L477.5,127.9L482.38,124.96L487.25,130.83L496.99,126.85L501.87,128.53L506.74,134.19L511.61,129.57L516.48,127.06L521.36,132.09L531.1,123.07L535.97,128.32L540.85,131.88L545.72,128.11L550.59,125.59L555.46,124.54L560.34,122.44L565.21,124.96L570.08,120.76L574.95,125.8L579.83,115.93L584.7,121.81L589.57,120.97L594.44,122.86L599.32,115.3L604.19,112.78L609.06,114.67L613.93,112.15L618.81,110.89L623.68,119.29L628.55,118.24L633.42,115.51L638.3,117.82L643.17,118.03L648.04,115.72L652.91,119.92L657.79,122.65L662.66,119.08L667.53,120.76L672.4,121.39L677.28,123.91L682.15,128.73L687.02,131.67L691.89,130.2L696.77,134.61L701.64,128.32L706.51,128.32L711.38,123.91L716.26,123.7L721.13,122.23L726,120.76" style="vector-effect: none; fill: none; stroke: rgb(255, 192, 203); stroke-opacity: 1; stroke-width: 2px; opacity: 1;"/></g><g class="points"/><g class="text"/></g><g class="trace scatter tracebfff77" style="stroke-miterlimit: 2; opacity: 1;"><g class="fills"/><g class="errorbars"/><g class="lines"><path class="js-line" d="M0,376.2L4.87,286.79L9.74,279.44L14.62,253.2L19.49,268.31L24.36,246.07L29.23,238.51L34.11,229.69L38.98,212.9L43.85,239.77L48.72,244.18L53.6,232L58.47,238.72L63.34,232.42L68.21,205.56L73.09,204.3L77.96,199.89L82.83,193.17L87.7,184.36L92.58,177.43L97.45,181.42L102.32,195.48L107.19,181L112.07,179.95L116.94,180.37L121.81,183.94L126.68,174.07L131.56,175.75L136.43,183.94L141.3,185.83L146.17,171.76L151.05,169.03L155.92,178.48L160.79,176.38L165.66,166.1L170.54,164.42L175.41,168.2L180.28,165.47L185.15,165.26L190.03,165.68L194.9,158.33L199.77,166.94L204.64,164.84L209.52,166.52L214.39,164.21L219.26,158.75L224.13,170.29L229.01,176.17L233.88,176.59L238.75,170.08L243.62,161.27L248.5,165.05L253.37,160.64L258.24,158.33L263.11,160.01L267.99,158.33L272.86,162.11L282.6,154.76L287.48,157.7L292.35,155.18L297.22,156.02L302.09,153.92L306.97,150.35L316.71,157.07L321.58,155.81L326.46,159.59L331.33,160.43L336.2,161.06L341.07,160.01L345.95,153.71L350.82,145.53L355.69,148.26L360.56,142.17L365.44,154.13L370.31,155.18L375.18,156.02L380.05,158.54L384.93,161.48L389.8,161.06L399.54,159.17L404.42,164.42L409.29,159.8L414.16,149.51L419.03,158.54L423.91,160.22L433.65,167.99L438.52,160.64L443.4,165.89L448.27,161.9L453.14,169.45L458.01,166.73L462.89,167.57L467.76,166.31L472.63,161.69L477.5,156.02L482.38,158.75L487.25,159.59L492.12,150.14L496.99,153.92L501.87,156.44L506.74,163.79L511.61,152.03L516.48,155.39L521.36,149.93L526.23,155.39L531.1,147L535.97,150.77L540.85,145.74L545.72,150.14L550.59,154.55L555.46,157.07L560.34,153.29L565.21,159.8L574.95,158.96L579.83,149.93L584.7,152.87L589.57,152.45L594.44,142.38L599.32,140.07L609.06,154.97L613.93,157.28L618.81,159.8L623.68,152.66L628.55,153.08L633.42,149.72L638.3,150.14L643.17,149.51L648.04,156.44L652.91,157.91L657.79,147.84L662.66,155.39L667.53,149.72L672.4,152.66L677.28,149.3L682.15,160.64L687.02,164.42L691.89,157.07L696.77,163.16L701.64,154.76L711.38,152.87L716.26,147.84L721.13,157.07L726,154.76" style="vector-effect: none; fill: none; stroke: rgb(165, 42, 42); stroke-opacity: 1; stroke-width: 2px; opacity: 1;"/></g><g class="points"/><g class="text"/></g><g class="trace scatter tracead2c8b" style="stroke-miterlimit: 2; opacity: 1;"><g class="fills"/><g class="errorbars"/><g class="lines"><path class="js-line" d="M0,364.87L4.87,308.19L9.74,294.55L14.62,267.47L19.49,284.69L29.23,254.25L34.11,249L38.98,239.35L43.85,265.8L48.72,276.92L53.6,253.83L58.47,262.23L63.34,257.19L68.21,214.16L73.09,227.18L77.96,222.98L82.83,220.46L87.7,214.16L92.58,203.04L97.45,195.9L102.32,217.94L107.19,200.94L112.07,201.15L116.94,201.36L121.81,204.51L126.68,192.54L131.56,196.53L136.43,208.7L141.3,205.14L146.17,200.31L151.05,200.94L155.92,206.61L160.79,213.53L170.54,191.28L175.41,195.48L180.28,201.99L185.15,201.78L190.03,198L194.9,193.17L199.77,199.26L204.64,201.99L209.52,205.14L214.39,193.38L219.26,183.31L224.13,188.97L229.01,195.9L233.88,204.51L238.75,186.46L243.62,191.07L248.5,197.16L253.37,194.64L263.11,188.97L267.99,187.72L272.86,189.18L277.73,182.05L282.6,183.31L287.48,186.67L297.22,182.68L302.09,180.79L306.97,181.21L311.84,191.07L316.71,183.31L321.58,186.04L326.46,195.27L331.33,187.09L336.2,189.6L341.07,181L345.95,178.69L350.82,174.28L355.69,178.27L360.56,176.38L365.44,191.28L370.31,191.07L375.18,192.54L380.05,195.48L384.93,202.83L389.8,196.74L399.54,194.22L404.42,203.46L409.29,198.63L414.16,189.39L419.03,197.16L423.91,194.01L428.78,204.51L433.65,210.59L438.52,207.24L443.4,218.15L448.27,203.67L453.14,215.63L462.89,220.67L467.76,213.53L472.63,209.12L477.5,201.78L482.38,201.78L487.25,207.66L492.12,196.95L496.99,196.53L501.87,200.52L506.74,208.07L511.61,197.79L516.48,197.37L521.36,200.52L526.23,197.16L531.1,187.51L535.97,195.48L540.85,195.48L545.72,191.49L550.59,194.22L555.46,194.64L560.34,190.65L565.21,199.26L570.08,194.43L574.95,204.51L579.83,189.18L584.7,195.06L589.57,188.13L594.44,186.46L599.32,177.43L604.19,181.84L609.06,189.18L613.93,193.17L618.81,191.91L623.68,191.7L628.55,192.54L633.42,186.67L648.04,192.96L652.91,200.31L657.79,196.74L662.66,198.63L667.53,195.48L672.4,198.84L677.28,195.48L682.15,206.61L687.02,209.33L691.89,201.57L696.77,211.01L701.64,197.16L706.51,197.16L711.38,195.48L716.26,188.34L721.13,198L726,195.48" style="vector-effect: none; fill: none; stroke: rgb(128, 128, 128); stroke-opacity: 1; stroke-width: 2px; opacity: 1;"/></g><g class="points"/><g class="text"/></g></g></g><g class="overplot"/><path class="xlines-above crisp" d="M0,0" style="fill: none;"/><path class="ylines-above crisp" d="M0,0" style="fill: none;"/><g class="overlines-above"/><g class="xaxislayer-above"><g class="xtick"><text text-anchor="middle" x="0" y="509" transform="translate(235.57999999999998,0)" style="font-family: 'Open Sans', verdana, arial, sans-serif; font-size: 12px; fill: rgb(42, 63, 95); fill-opacity: 1; white-space: pre; opacity: 1;">20</text></g><g class="xtick"><text text-anchor="middle" x="0" y="509" style="font-family: 'Open Sans', verdana, arial, sans-serif; font-size: 12px; fill: rgb(42, 63, 95); fill-opacity: 1; white-space: pre; opacity: 1;" transform="translate(333.03,0)">40</text></g><g class="xtick"><text text-anchor="middle" x="0" y="509" style="font-family: 'Open Sans', verdana, arial, sans-serif; font-size: 12px; fill: rgb(42, 63, 95); fill-opacity: 1; white-space: pre; opacity: 1;" transform="translate(430.48,0)">60</text></g><g class="xtick"><text text-anchor="middle" x="0" y="509" style="font-family: 'Open Sans', verdana, arial, sans-serif; font-size: 12px; fill: rgb(42, 63, 95); fill-opacity: 1; white-space: pre; opacity: 1;" transform="translate(527.9300000000001,0)">80</text></g><g class="xtick"><text text-anchor="middle" x="0" y="509" style="font-family: 'Open Sans', verdana, arial, sans-serif; font-size: 12px; fill: rgb(42, 63, 95); fill-opacity: 1; white-space: pre; opacity: 1;" transform="translate(625.38,0)">100</text></g><g class="xtick"><text text-anchor="middle" x="0" y="509" style="font-family: 'Open Sans', verdana, arial, sans-serif; font-size: 12px; fill: rgb(42, 63, 95); fill-opacity: 1; white-space: pre; opacity: 1;" transform="translate(722.83,0)">120</text></g><g class="xtick"><text text-anchor="middle" x="0" y="509" style="font-family: 'Open Sans', verdana, arial, sans-serif; font-size: 12px; fill: rgb(42, 63, 95); fill-opacity: 1; white-space: pre; opacity: 1;" transform="translate(820.28,0)">140</text></g></g><g class="yaxislayer-above"><g class="ytick"><text text-anchor="end" x="142" y="4.199999999999999" transform="translate(0,481.03)" style="font-family: 'Open Sans', verdana, arial, sans-serif; font-size: 12px; fill: rgb(42, 63, 95); fill-opacity: 1; white-space: pre; opacity: 1;">58</text></g><g class="ytick"><text text-anchor="end" x="142" y="4.199999999999999" style="font-family: 'Open Sans', verdana, arial, sans-serif; font-size: 12px; fill: rgb(42, 63, 95); fill-opacity: 1; white-space: pre; opacity: 1;" transform="translate(0,439.05)">60</text></g><g class="ytick"><text text-anchor="end" x="142" y="4.199999999999999" style="font-family: 'Open Sans', verdana, arial, sans-serif; font-size: 12px; fill: rgb(42, 63, 95); fill-opacity: 1; white-space: pre; opacity: 1;" transform="translate(0,397.07)">62</text></g><g class="ytick"><text text-anchor="end" x="142" y="4.199999999999999" style="font-family: 'Open Sans', verdana, arial, sans-serif; font-size: 12px; fill: rgb(42, 63, 95); fill-opacity: 1; white-space: pre; opacity: 1;" transform="translate(0,355.09000000000003)">64</text></g><g class="ytick"><text text-anchor="end" x="142" y="4.199999999999999" style="font-family: 'Open Sans', verdana, arial, sans-serif; font-size: 12px; fill: rgb(42, 63, 95); fill-opacity: 1; white-space: pre; opacity: 1;" transform="translate(0,313.11)">66</text></g><g class="ytick"><text text-anchor="end" x="142" y="4.199999999999999" style="font-family: 'Open Sans', verdana, arial, sans-serif; font-size: 12px; fill: rgb(42, 63, 95); fill-opacity: 1; white-space: pre; opacity: 1;" transform="translate(0,271.13)">68</text></g><g class="ytick"><text text-anchor="end" x="142" y="4.199999999999999" style="font-family: 'Open Sans', verdana, arial, sans-serif; font-size: 12px; fill: rgb(42, 63, 95); fill-opacity: 1; white-space: pre; opacity: 1;" transform="translate(0,229.15)">70</text></g><g class="ytick"><text text-anchor="end" x="142" y="4.199999999999999" style="font-family: 'Open Sans', verdana, arial, sans-serif; font-size: 12px; fill: rgb(42, 63, 95); fill-opacity: 1; white-space: pre; opacity: 1;" transform="translate(0,187.18)">72</text></g><g class="ytick"><text text-anchor="end" x="142" y="4.199999999999999" style="font-family: 'Open Sans', verdana, arial, sans-serif; font-size: 12px; fill: rgb(42, 63, 95); fill-opacity: 1; white-space: pre; opacity: 1;" transform="translate(0,145.2)">74</text></g><g class="ytick"><text text-anchor="end" x="142" y="4.199999999999999" style="font-family: 'Open Sans', verdana, arial, sans-serif; font-size: 12px; fill: rgb(42, 63, 95); fill-opacity: 1; white-space: pre; opacity: 1;" transform="translate(0,103.22)">76</text></g></g><g class="overaxes-above"/></g></g><g class="polarlayer"/><g class="smithlayer"/><g class="ternarylayer"/><g class="geolayer"/><g class="funnelarealayer"/><g class="pielayer"/><g class="iciclelayer"/><g class="treemaplayer"/><g class="sunburstlayer"/><g class="glimages"/><defs id="topdefs-5d1948"><g class="clips"/><clipPath id="legend5d1948"><rect width="128" height="162" x="0" y="0"/></clipPath></defs><g class="layer-above"><g class="imagelayer"/><g class="shapelayer"/></g><g class="infolayer"><g class="legend" pointer-events="all" transform="translate(883.52,100)"><rect class="bg" shape-rendering="crispEdges" width="128" height="162" x="0" y="0" style="stroke: rgb(68, 68, 68); stroke-opacity: 1; fill: rgb(255, 255, 255); fill-opacity: 1; stroke-width: 0px;"/><g class="scrollbox" transform="" clip-path="url(#legend5d1948)"><g class="groups"><g class="traces" transform="translate(0,14.5)" style="opacity: 1;"><text class="legendtext" text-anchor="start" x="40" y="4.680000000000001" style="font-family: 'Open Sans', verdana, arial, sans-serif; font-size: 12px; fill: rgb(42, 63, 95); fill-opacity: 1; white-space: pre;">Train Accuracy</text><g class="layers" style="opacity: 1;"><g class="legendfill"/><g class="legendlines"><path class="js-line" d="M5,0h30" style="fill: none; stroke: rgb(255, 0, 0); stroke-opacity: 1; stroke-width: 2px;"/></g><g class="legendsymbols"><g class="legendpoints"/></g></g><rect class="legendtoggle" x="0" y="-9.5" width="122.71875" height="19" style="fill: rgb(0, 0, 0); fill-opacity: 0;"/></g><g class="traces" transform="translate(0,33.5)" style="opacity: 1;"><text class="legendtext" text-anchor="start" x="40" y="4.680000000000001" style="font-family: 'Open Sans', verdana, arial, sans-serif; font-size: 12px; fill: rgb(42, 63, 95); fill-opacity: 1; white-space: pre;">Test Accuracy</text><g class="layers" style="opacity: 1;"><g class="legendfill"/><g class="legendlines"><path class="js-line" d="M5,0h30" style="fill: none; stroke: rgb(0, 0, 255); stroke-opacity: 1; stroke-width: 2px;"/></g><g class="legendsymbols"><g class="legendpoints"/></g></g><rect class="legendtoggle" x="0" y="-9.5" width="122.71875" height="19" style="fill: rgb(0, 0, 0); fill-opacity: 0;"/></g><g class="traces" transform="translate(0,52.5)" style="opacity: 1;"><text class="legendtext" text-anchor="start" x="40" y="4.680000000000001" style="font-family: 'Open Sans', verdana, arial, sans-serif; font-size: 12px; fill: rgb(42, 63, 95); fill-opacity: 1; white-space: pre;">Train Precision</text><g class="layers" style="opacity: 1;"><g class="legendfill"/><g class="legendlines"><path class="js-line" d="M5,0h30" style="fill: none; stroke: rgb(0, 128, 0); stroke-opacity: 1; stroke-width: 2px;"/></g><g class="legendsymbols"><g class="legendpoints"/></g></g><rect class="legendtoggle" x="0" y="-9.5" width="122.71875" height="19" style="fill: rgb(0, 0, 0); fill-opacity: 0;"/></g><g class="traces" transform="translate(0,71.5)" style="opacity: 1;"><text class="legendtext" text-anchor="start" x="40" y="4.680000000000001" style="font-family: 'Open Sans', verdana, arial, sans-serif; font-size: 12px; fill: rgb(42, 63, 95); fill-opacity: 1; white-space: pre;">Test Precision</text><g class="layers" style="opacity: 1;"><g class="legendfill"/><g class="legendlines"><path class="js-line" d="M5,0h30" style="fill: none; stroke: rgb(255, 165, 0); stroke-opacity: 1; stroke-width: 2px;"/></g><g class="legendsymbols"><g class="legendpoints"/></g></g><rect class="legendtoggle" x="0" y="-9.5" width="122.71875" height="19" style="fill: rgb(0, 0, 0); fill-opacity: 0;"/></g><g class="traces" transform="translate(0,90.5)" style="opacity: 1;"><text class="legendtext" text-anchor="start" x="40" y="4.680000000000001" style="font-family: 'Open Sans', verdana, arial, sans-serif; font-size: 12px; fill: rgb(42, 63, 95); fill-opacity: 1; white-space: pre;">Train Recall</text><g class="layers" style="opacity: 1;"><g class="legendfill"/><g class="legendlines"><path class="js-line" d="M5,0h30" style="fill: none; stroke: rgb(128, 0, 128); stroke-opacity: 1; stroke-width: 2px;"/></g><g class="legendsymbols"><g class="legendpoints"/></g></g><rect class="legendtoggle" x="0" y="-9.5" width="122.71875" height="19" style="fill: rgb(0, 0, 0); fill-opacity: 0;"/></g><g class="traces" transform="translate(0,109.5)" style="opacity: 1;"><text class="legendtext" text-anchor="start" x="40" y="4.680000000000001" style="font-family: 'Open Sans', verdana, arial, sans-serif; font-size: 12px; fill: rgb(42, 63, 95); fill-opacity: 1; white-space: pre;">Test Recall</text><g class="layers" style="opacity: 1;"><g class="legendfill"/><g class="legendlines"><path class="js-line" d="M5,0h30" style="fill: none; stroke: rgb(255, 192, 203); stroke-opacity: 1; stroke-width: 2px;"/></g><g class="legendsymbols"><g class="legendpoints"/></g></g><rect class="legendtoggle" x="0" y="-9.5" width="122.71875" height="19" style="fill: rgb(0, 0, 0); fill-opacity: 0;"/></g><g class="traces" transform="translate(0,128.5)" style="opacity: 1;"><text class="legendtext" text-anchor="start" x="40" y="4.680000000000001" style="font-family: 'Open Sans', verdana, arial, sans-serif; font-size: 12px; fill: rgb(42, 63, 95); fill-opacity: 1; white-space: pre;">Train F1</text><g class="layers" style="opacity: 1;"><g class="legendfill"/><g class="legendlines"><path class="js-line" d="M5,0h30" style="fill: none; stroke: rgb(165, 42, 42); stroke-opacity: 1; stroke-width: 2px;"/></g><g class="legendsymbols"><g class="legendpoints"/></g></g><rect class="legendtoggle" x="0" y="-9.5" width="122.71875" height="19" style="fill: rgb(0, 0, 0); fill-opacity: 0;"/></g><g class="traces" transform="translate(0,147.5)" style="opacity: 1;"><text class="legendtext" text-anchor="start" x="40" y="4.680000000000001" style="font-family: 'Open Sans', verdana, arial, sans-serif; font-size: 12px; fill: rgb(42, 63, 95); fill-opacity: 1; white-space: pre;">Test F1</text><g class="layers" style="opacity: 1;"><g class="legendfill"/><g class="legendlines"><path class="js-line" d="M5,0h30" style="fill: none; stroke: rgb(128, 128, 128); stroke-opacity: 1; stroke-width: 2px;"/></g><g class="legendsymbols"><g class="legendpoints"/></g></g><rect class="legendtoggle" x="0" y="-9.5" width="122.71875" height="19" style="fill: rgb(0, 0, 0); fill-opacity: 0;"/></g></g></g><rect class="scrollbar" rx="20" ry="3" width="0" height="0" x="0" y="0" style="fill: rgb(128, 139, 164); fill-opacity: 1;"/></g><g class="g-gtitle"><text class="gtitle" x="51.2" y="50" text-anchor="start" dy="0em" style="font-family: 'Open Sans', verdana, arial, sans-serif; font-size: 17px; fill: rgb(42, 63, 95); opacity: 1; font-weight: normal; white-space: pre;">Training Metrics - logs/FakeNewsNet-gossipcop_max-vocab=10000_pre=v1_domain_T=50_s=15.log</text></g><g class="g-xtitle"><text class="xtitle" x="506" y="537.3" text-anchor="middle" style="font-family: 'Open Sans', verdana, arial, sans-serif; font-size: 14px; fill: rgb(42, 63, 95); opacity: 1; font-weight: normal; white-space: pre;">Epoch</text></g><g class="g-ytitle"><text class="ytitle" transform="rotate(-90,103.965625,298)" x="103.965625" y="298" text-anchor="middle" style="font-family: 'Open Sans', verdana, arial, sans-serif; font-size: 14px; fill: rgb(42, 63, 95); opacity: 1; font-weight: normal; white-space: pre;">Metric Score</text></g></g><g class="menulayer"><g class="updatemenu-container" style="cursor: pointer;"><g class="updatemenu-header-group" transform="translate(12,60)"><g class="updatemenu-header" transform="translate(1,1)" style="pointer-events: all;"><rect class="updatemenu-item-rect" rx="2" ry="2" shape-rendering="crispEdges" x="0" y="0" width="167" height="33" style="stroke: rgb(190, 200, 217); stroke-opacity: 1; fill: rgb(255, 255, 255); fill-opacity: 1; stroke-width: 1px;"/><text class="updatemenu-item-text" text-anchor="start" data-notex="1" x="12" y="19.5" style="font-family: 'Open Sans', verdana, arial, sans-serif; font-size: 12px; fill: rgb(42, 63, 95); fill-opacity: 1; white-space: pre;">All</text></g><text class="updatemenu-header-arrow" text-anchor="end" x="163" y="19.5" style="font-family: 'Open Sans', verdana, arial, sans-serif; font-size: 12px; fill: rgb(42, 63, 95); fill-opacity: 1;">▼</text></g><g class="updatemenu-dropdown-button-group" updatemenu-active-index="-1" style="pointer-events: all;"><rect class="scrollbox-bg" opacity="0" x="0" y="0" width="0" height="0" style="pointer-events: all;"/></g></g></g></svg>