<svg class="main-svg" xmlns="http://www.w3.org/2000/svg" xmlns:xlink="http://www.w3.org/1999/xlink" width="1024" height="576" style="" viewBox="0 0 1024 576"><rect x="0" y="0" width="1024" height="576" style="fill: rgb(255, 255, 255); fill-opacity: 1;"/><defs id="defs-12b3b4"><g class="clips"><clipPath id="clip12b3b4xyplot" class="plotclip"><rect width="720" height="396"/></clipPath><clipPath class="axesclip" id="clip12b3b4x"><rect x="150" y="0" width="720" height="576"/></clipPath><clipPath class="axesclip" id="clip12b3b4y"><rect x="0" y="100" width="1024" height="396"/></clipPath><clipPath class="axesclip" id="clip12b3b4xy"><rect x="150" y="100" width="720" height="396"/></clipPath></g><g class="gradients"/><g class="patterns"/></defs><g class="bglayer"><rect class="bg" x="150" y="100" width="720" height="396" style="fill: rgb(229, 236, 246); fill-opacity: 1; stroke-width: 0;"/></g><g class="layer-below"><g class="imagelayer"/><g class="shapelayer"/></g><g class="cartesianlayer"><g class="subplot xy"><g class="layer-subplot"><g class="shapelayer"/><g class="imagelayer"/></g><g class="minor-gridlayer"><g class="x"/><g class="y"/></g><g class="gridlayer"><g class="x"><path class="xgrid crisp" transform="translate(241.81,0)" d="M0,100v396" style="stroke: rgb(255, 255, 255); stroke-opacity: 1; stroke-width: 1px;"/><path class="xgrid crisp" transform="translate(338.46000000000004,0)" d="M0,100v396" style="stroke: rgb(255, 255, 255); stroke-opacity: 1; stroke-width: 1px;"/><path class="xgrid crisp" transform="translate(435.1,0)" d="M0,100v396" style="stroke: rgb(255, 255, 255); stroke-opacity: 1; stroke-width: 1px;"/><path class="xgrid crisp" transform="translate(531.74,0)" d="M0,100v396" style="stroke: rgb(255, 255, 255); stroke-opacity: 1; stroke-width: 1px;"/><path class="xgrid crisp" transform="translate(628.39,0)" d="M0,100v396" style="stroke: rgb(255, 255, 255); stroke-opacity: 1; stroke-width: 1px;"/><path class="xgrid crisp" transform="translate(725.03,0)" d="M0,100v396" style="stroke: rgb(255, 255, 255); stroke-opacity: 1; stroke-width: 1px;"/><path class="xgrid crisp" transform="translate(821.68,0)" d="M0,100v396" style="stroke: rgb(255, 255, 255); stroke-opacity: 1; stroke-width: 1px;"/></g><g class="y"><path class="ygrid crisp" transform="translate(0,467.95)" d="M150,0h720" style="stroke: rgb(255, 255, 255); stroke-opacity: 1; stroke-width: 1px;"/><path class="ygrid crisp" transform="translate(0,416.42)" d="M150,0h720" style="stroke: rgb(255, 255, 255); stroke-opacity: 1; stroke-width: 1px;"/><path class="ygrid crisp" transform="translate(0,364.89)" d="M150,0h720" style="stroke: rgb(255, 255, 255); stroke-opacity: 1; stroke-width: 1px;"/><path class="ygrid crisp" transform="translate(0,313.36)" d="M150,0h720" style="stroke: rgb(255, 255, 255); stroke-opacity: 1; stroke-width: 1px;"/><path class="ygrid crisp" transform="translate(0,261.82)" d="M150,0h720" style="stroke: rgb(255, 255, 255); stroke-opacity: 1; stroke-width: 1px;"/><path class="ygrid crisp" transform="translate(0,210.29000000000002)" d="M150,0h720" style="stroke: rgb(255, 255, 255); stroke-opacity: 1; stroke-width: 1px;"/><path class="ygrid crisp" transform="translate(0,158.76)" d="M150,0h720" style="stroke: rgb(255, 255, 255); stroke-opacity: 1; stroke-width: 1px;"/><path class="ygrid crisp" transform="translate(0,107.23)" d="M150,0h720" style="stroke: rgb(255, 255, 255); stroke-opacity: 1; stroke-width: 1px;"/></g></g><g class="zerolinelayer"/><path class="xlines-below"/><path class="ylines-below"/><g class="overlines-below"/><g class="xaxislayer-below"/><g class="yaxislayer-below"/><g class="overaxes-below"/><g class="plot" transform="translate(150,100)" clip-path="url(#clip12b3b4xyplot)"><g class="scatterlayer mlayer"><g class="trace scatter trace366ffe" style="stroke-miterlimit: 2; opacity: 1;"><g class="fills"/><g class="errorbars"/><g class="lines"><path class="js-line" d="M0,254.89L4.83,166.36L9.66,148.63L14.5,137.66L19.33,113.85L24.16,79.63L28.99,82.67L33.83,88.18L38.66,85.76L43.49,85.14L48.32,69.27L53.15,72.93L57.99,60.1L62.82,54.02L67.65,52.78L72.48,111.37L77.32,54.02L82.15,49.12L86.98,55.82L91.81,56.44L96.64,61.95L101.48,71.08L106.31,63.14L111.14,57.06L115.97,49.74L120.81,46.65L125.64,55.82L130.47,52.78L135.3,48.5L140.13,42.99L144.97,68.03L149.8,41.19L154.63,44.23L159.46,53.4L164.3,50.93L169.13,36.29L173.96,49.74L178.79,42.99L183.62,41.19L188.46,122.4L193.29,122.97L198.12,112.61L202.95,92.46L207.79,55.2L212.62,55.82L217.45,52.78L222.28,59.48L227.11,47.89L231.95,30.78L236.78,38.71L241.61,33.87L246.44,42.37L251.28,42.99L256.11,29.59L260.94,36.29L265.77,33.25L270.6,35.05L275.44,31.39L280.27,33.25L285.1,33.87L289.93,71.08L294.77,33.87L299.6,35.67L304.43,41.19L309.26,39.33L314.09,38.15L318.93,41.19L323.76,33.87L328.59,30.78L333.42,35.05L338.26,90.61L343.09,107.1L347.92,29.59L352.75,72.93L357.58,40.57L362.42,33.87L367.25,32.01L372.08,26.5L376.91,34.44L381.74,33.87L386.58,34.44L401.07,36.91L405.91,38.15L410.74,37.53L415.57,30.78L420.4,35.67L425.23,33.25L430.07,36.29L434.9,34.44L439.73,35.67L444.56,33.87L449.4,32.01L454.23,35.67L459.06,31.39L463.89,32.63L473.56,28.35L478.39,30.16L483.22,30.78L488.05,36.91L492.89,36.29L497.72,74.17L502.55,99.78L507.38,93.7L512.21,100.4L517.05,68.65L526.71,60.72L531.54,66.8L536.38,60.72L541.21,64.99L546.04,64.99L550.87,50.93L555.7,28.35L560.54,27.12L565.37,27.12L570.2,32.63L575.03,32.01L579.87,28.97L584.7,29.59L589.53,37.53L594.36,36.91L599.19,34.44L604.03,31.39L608.86,32.63L613.69,28.35L618.52,28.35L623.36,30.16L628.19,28.35L637.85,26.5L642.68,58.86L647.52,61.95L652.35,63.14L657.18,23.46L662.01,57.06L666.85,60.1L671.68,57.06L676.51,54.58L681.34,53.4L691.01,64.99L695.84,60.1L700.67,63.76L705.5,28.35L715.17,22.84L720,24.7" style="vector-effect: none; fill: none; stroke: rgb(255, 0, 0); stroke-opacity: 1; stroke-width: 2px; opacity: 1;"/></g><g class="points"/><g class="text"/></g><g class="trace scatter trace02cf9c" style="stroke-miterlimit: 2; opacity: 1;"><g class="fills"/><g class="errorbars"/><g class="lines"><path class="js-line" d="M0,281.43L4.83,142.86L9.66,128.28L14.5,125.85L19.33,111.27L24.16,96.69L28.99,106.43L33.83,101.53L38.66,101.53L43.49,103.95L48.32,91.84L53.15,94.26L57.99,84.53L62.82,74.79L67.65,79.68L72.48,172.03L77.32,79.68L82.15,69.94L86.98,86.95L91.81,89.37L96.64,89.37L101.48,89.37L106.31,91.84L111.14,77.21L115.97,74.79L120.81,77.21L125.64,77.21L130.47,69.94L135.3,79.68L140.13,82.1L144.97,116.11L149.8,69.94L154.63,69.94L159.46,106.43L164.3,99.11L169.13,72.36L173.96,72.36L178.79,79.68L183.62,82.1L188.46,164.76L193.29,167.18L198.12,164.76L202.95,145.28L207.79,108.85L212.62,101.53L217.45,94.26L222.28,116.11L231.95,77.21L236.78,74.79L241.61,69.94L246.44,67.52L251.28,62.62L256.11,65.1L260.94,86.95L265.77,86.95L275.44,77.21L280.27,82.1L285.1,79.68L289.93,130.7L294.77,77.21L299.6,67.52L309.26,77.21L314.09,72.36L318.93,74.79L323.76,72.36L328.59,77.21L333.42,77.21L338.26,152.6L343.09,169.61L347.92,72.36L352.75,135.59L357.58,77.21L362.42,82.1L367.25,82.1L372.08,60.2L376.91,74.79L381.74,74.79L391.41,74.79L396.24,72.36L401.07,74.79L405.91,74.79L410.74,77.21L415.57,69.94L420.4,69.94L425.23,62.62L430.07,65.1L434.9,69.94L439.73,69.94L444.56,67.52L449.4,65.1L454.23,72.36L463.89,72.36L468.72,67.52L473.56,67.52L478.39,72.36L483.22,72.36L488.05,69.94L492.89,72.36L497.72,130.7L502.55,157.44L507.38,152.6L512.21,162.29L517.05,123.43L521.88,121.01L526.71,111.27L531.54,123.43L536.38,133.12L541.21,135.59L546.04,133.12L550.87,101.53L555.7,79.68L565.37,79.68L570.2,82.1L575.03,82.1L579.87,84.53L584.7,82.1L589.53,72.36L594.36,96.69L599.19,89.37L604.03,79.68L608.86,77.21L613.69,69.94L618.52,72.36L623.36,69.94L628.19,69.94L633.02,74.79L637.85,72.36L642.68,123.43L647.52,125.85L652.35,123.43L657.18,77.21L662.01,116.11L666.85,113.69L671.68,108.85L676.51,106.43L681.34,108.85L686.17,121.01L691.01,113.69L695.84,118.54L700.67,121.01L705.5,69.94L710.34,67.52L715.17,60.2L720,62.62" style="vector-effect: none; fill: none; stroke: rgb(0, 0, 255); stroke-opacity: 1; stroke-width: 2px; opacity: 1;"/></g><g class="points"/><g class="text"/></g><g class="trace scatter tracec55ddf" style="stroke-miterlimit: 2; opacity: 1;"><g class="fills"/><g class="errorbars"/><g class="lines"><path class="js-line" d="M0,362.96L4.83,62.16L9.66,63.09L14.5,57.52L19.33,56.54L24.16,62.06L28.99,70.77L33.83,59.94L38.66,56.23L43.49,58.76L48.32,51.49L53.15,52.68L57.99,45.57L67.65,53.19L72.48,80.14L77.32,56.75L82.15,51.75L86.98,57.93L91.81,59.17L96.64,52.06L101.48,56.23L106.31,51.96L111.14,49.64L115.97,51.96L120.81,48.35L125.64,58.6L130.47,55.46L135.3,46.96L140.13,43.97L144.97,59.84L149.8,43.04L154.63,45.51L159.46,52.32L164.3,50.51L169.13,38.71L173.96,50.05L178.79,45.05L183.62,43.45L188.46,80.04L193.29,82.15L198.12,78.5L202.95,69.63L207.79,50L212.62,52.37L217.45,49.74L222.28,53.76L227.11,44.84L231.95,33.15L236.78,41.24L241.61,36.08L246.44,43.51L251.28,44.23L256.11,31.91L260.94,37.01L265.77,34.49L270.6,36.08L275.44,32.99L280.27,34.95L285.1,35.31L289.93,61.08L294.77,35.16L299.6,37.53L304.43,42.68L314.09,39.69L318.93,43.56L323.76,36.14L328.59,33.15L333.42,37.27L338.26,67.31L343.09,75.61L347.92,31.86L352.75,60.51L357.58,40.46L362.42,34.59L367.25,32.99L372.08,28.72L376.91,34.18L381.74,34.02L386.58,34.9L391.41,35.62L396.24,37.17L401.07,36.81L405.91,37.84L410.74,38.04L415.57,33.1L420.4,38.09L425.23,35.67L430.07,38.76L434.9,36.55L439.73,37.42L444.56,35.83L449.4,34.18L454.23,37.32L459.06,32.58L463.89,33.66L473.56,29.85L478.39,31.86L483.22,32.27L488.05,39.28L492.89,35.41L497.72,60.77L502.55,68.81L507.38,66.33L512.21,71.33L517.05,57.26L521.88,54.43L526.71,50.67L531.54,54.17L536.38,50.2L541.21,53.91L546.04,54.84L550.87,45.15L555.7,28.97L560.54,27.58L565.37,28.25L570.2,33.35L575.03,31.91L579.87,29.33L584.7,30.06L589.53,39.18L594.36,34.38L599.19,33.92L604.03,31.19L608.86,32.43L613.69,28.82L618.52,29.18L623.36,30.72L628.19,29.18L633.02,28.77L637.85,26.91L642.68,50.31L647.52,52.37L652.35,53.19L657.18,24.85L662.01,49.07L666.85,51.13L671.68,49.43L681.34,46.49L686.17,49.02L691.01,54.38L695.84,50.72L700.67,53.55L705.5,29.75L715.17,24.39L720,25.62" style="vector-effect: none; fill: none; stroke: rgb(0, 128, 0); stroke-opacity: 1; stroke-width: 2px; opacity: 1;"/></g><g class="points"/><g class="text"/></g><g class="trace scatter trace272d09" style="stroke-miterlimit: 2; opacity: 1;"><g class="fills"/><g class="errorbars"/><g class="lines"><path class="js-line" d="M0,376.2L4.83,49.74L9.66,44.95L14.5,86.23L19.33,76.23L24.16,78.44L28.99,105.81L33.83,78.7L38.66,78.7L43.49,90.76L48.32,77.52L53.15,75.97L57.99,66.69L62.82,74.01L67.65,85.5L72.48,141.78L77.32,88.8L82.15,78.55L86.98,96.58L91.81,99.47L96.64,81.59L101.48,78.55L106.31,84.06L111.14,72.21L115.97,83.6L120.81,86.17L125.64,86.12L130.47,78.13L135.3,81.48L140.13,88.91L144.97,110.39L149.8,78.55L154.63,78.03L159.46,106.43L164.3,102.1L169.13,81.12L173.96,78.08L178.79,88.91L183.62,91.53L188.46,126.73L193.29,128.07L198.12,126.73L202.95,118.43L207.79,106.84L212.62,102.77L217.45,97.2L222.28,113.43L231.95,86.33L236.78,83.44L241.61,78.13L246.44,74.63L251.28,69.12L256.11,73.34L260.94,93.85L265.77,93.85L275.44,83.29L280.27,88.91L285.1,86.74L289.93,121.83L294.77,83.29L299.6,75.76L309.26,86.17L314.09,80.56L318.93,83.65L323.76,80.51L328.59,86.28L333.42,85.5L338.26,127.55L343.09,140.23L347.92,81.12L352.75,121.37L357.58,82.46L362.42,87.41L367.25,88.18L372.08,68.19L376.91,80.45L381.74,81.18L391.41,81.79L396.24,78.34L401.07,79.63L405.91,79.63L410.74,83.29L415.57,78.5L420.4,78.5L425.23,70.77L430.07,73.24L434.9,77.77L439.73,77.36L444.56,75.09L449.4,73.24L454.23,79.58L463.89,79.58L468.72,75.46L473.56,75.46L478.39,80.09L483.22,80.09L488.05,78.55L492.89,78.34L497.72,118.28L502.55,127.97L507.38,127.55L512.21,135.75L517.05,115.29L521.88,113.69L526.71,107.1L531.54,115.29L536.38,121.68L541.21,125.03L546.04,121.68L550.87,100.19L555.7,86.74L565.37,85.35L570.2,87.41L575.03,88.18L579.87,91.02L584.7,87.41L589.53,80.51L594.36,99.11L599.19,92.31L604.03,84.53L608.86,82.46L613.69,76.23L618.52,79.01L623.36,76.85L628.19,76.23L633.02,81.18L637.85,79.01L642.68,115.29L647.52,116.89L652.35,115.29L657.18,83.29L662.01,111.94L666.85,111.68L671.68,105.4L676.51,103.7L681.34,105.4L686.17,113.69L691.01,107.15L695.84,112.04L700.67,113.69L705.5,77.36L710.34,74.63L715.17,66.9L720,69.12" style="vector-effect: none; fill: none; stroke: rgb(255, 165, 0); stroke-opacity: 1; stroke-width: 2px; opacity: 1;"/></g><g class="points"/><g class="text"/></g><g class="trace scatter tracef6697f" style="stroke-miterlimit: 2; opacity: 1;"><g class="fills"/><g class="errorbars"/><g class="lines"><path class="js-line" d="M0,213.36L4.83,206.81L9.66,185.48L14.5,172.39L19.33,143.22L24.16,97.61L28.99,99.21L33.83,109.78L38.66,107.3L43.49,105.96L48.32,86.02L53.15,90.81L57.99,74.89L62.82,64.17L67.65,59.12L72.48,93.65L77.32,55.92L82.15,49.9L86.98,60.1L91.81,57.21L96.64,75.25L101.48,87.2L106.31,77.16L111.14,68.86L115.97,53.04L120.81,50.82L125.64,57.47L130.47,53.45L135.3,42.68L140.13,39.59L144.97,58.5L149.8,44.48L154.63,48.71L159.46,48.09L164.3,46.18L169.13,37.42L173.96,55.87L178.79,46.03L183.62,43.45L188.46,101.69L193.29,102.61L198.12,94.06L202.95,77.31L207.79,47.06L212.62,48.81L217.45,45.98L222.28,51.13L231.95,31.5L236.78,38.71L241.61,32.68L246.44,46.91L251.28,47.47L256.11,28.82L260.94,32.37L265.77,29.95L270.6,31.55L275.44,28.56L280.27,30.78L285.1,30.88L289.93,60.72L294.77,30.67L304.43,45.05L309.26,42.68L314.09,41.65L318.93,43.04L323.76,32.89L328.59,30.26L333.42,33.77L338.26,75.35L343.09,89.32L347.92,28.61L352.75,61.49L357.58,35.88L362.42,29.85L367.25,28.3L372.08,27.38L376.91,29.39L381.74,29.28L386.58,30.21L391.41,30.93L396.24,32.58L401.07,32.12L405.91,33.15L410.74,33.4L415.57,29.85L420.4,36.7L425.23,33.4L430.07,36.24L434.9,32.84L439.73,33.25L444.56,31.91L449.4,30.52L454.23,33.04L459.06,27.99L463.89,29.02L473.56,25.31L478.39,27.53L483.22,27.84L488.05,38.35L492.89,30.78L497.72,62.37L502.55,82.21L507.38,77.16L512.21,83.34L517.05,57.62L526.71,50.2L531.54,55.25L536.38,50L541.21,54.07L546.04,54.48L550.87,42.37L555.7,24.13L560.54,22.69L565.37,23.46L570.2,28.61L575.03,27.07L579.87,24.44L584.7,25.16L589.53,35.05L594.36,30.06L599.19,29.18L604.03,26.34L608.86,27.58L613.69,23.92L618.52,24.33L623.36,25.93L628.19,24.33L633.02,24.03L637.85,21.96L642.68,49.02L647.52,51.65L652.35,52.68L657.18,20.11L662.01,47.42L666.85,50.05L676.51,45.51L681.34,44.28L686.17,48.4L691.01,54.28L695.84,49.84L700.67,53.19L705.5,25.16L710.34,22.12L715.17,19.8L720,20.78" style="vector-effect: none; fill: none; stroke: rgb(128, 0, 128); stroke-opacity: 1; stroke-width: 2px; opacity: 1;"/></g><g class="points"/><g class="text"/></g><g class="trace scatter trace4a0b60" style="stroke-miterlimit: 2; opacity: 1;"><g class="fills"/><g class="errorbars"/><g class="lines"><path class="js-line" d="M0,213.36L4.83,210.06L9.66,190.22L14.5,184.19L19.33,162.96L24.16,139L28.99,145.33L33.83,146.98L38.66,146.98L43.49,147.55L48.32,131.01L53.15,135.7L57.99,122.5L62.82,101.02L67.65,100.71L72.48,144.77L77.32,86.9L82.15,77.83L86.98,102.3L91.81,100.09L96.64,124.98L106.31,128.28L111.14,107.04L115.97,85.81L120.81,89.11L125.64,83.6L130.47,73.7L135.3,71.69L140.13,81.9L144.97,103.33L149.8,77.83L154.63,81.95L159.46,98.39L164.3,94.01L169.13,79.73L173.96,90.81L178.79,91.02L183.62,94.32L188.46,133.48L193.29,135.39L198.12,133.48L202.95,119.46L207.79,98.9L212.62,94.52L217.45,88.75L222.28,106.07L227.11,90.71L231.95,86.33L236.78,80.3L241.61,73.7L246.44,81.43L256.11,71.23L260.94,87.15L265.77,87.15L270.6,80.56L275.44,75.3L280.27,81.9L285.1,79.99L289.93,116.22L294.77,75.3L299.6,77.26L304.43,83.91L309.26,89.11L318.93,81.69L323.76,75.61L328.59,84.99L333.42,80.81L338.26,128.02L343.09,142.86L347.92,79.73L352.75,117.3L357.58,73.91L362.42,79.17L367.25,80.56L372.08,65.97L376.91,72L381.74,73.39L386.58,74.79L391.41,74.79L396.24,70.1L401.07,70.61L405.91,70.61L410.74,75.3L415.57,76.43L420.4,76.43L425.23,67.93L430.07,69.84L434.9,72.31L439.73,70.92L444.56,69.01L449.4,69.84L454.23,72.83L459.06,72.83L463.89,72.83L468.72,70.35L473.56,70.35L478.39,74.22L483.22,74.22L488.05,77.83L492.89,70.1L497.72,113.49L502.55,130.49L507.38,128.02L512.21,137.09L517.05,109.05L521.88,107.15L526.71,99.47L531.54,109.05L536.38,116.78L541.21,120.08L546.04,116.78L550.87,91.79L555.7,79.99L565.37,77.21L570.2,79.17L575.03,80.56L579.87,83.86L584.7,79.17L589.53,75.61L594.36,90.71L599.19,83.55L604.03,75.87L608.86,73.91L613.69,68.14L618.52,71.44L628.19,68.14L633.02,73.39L637.85,71.44L642.68,109.05L647.52,111.01L652.35,109.05L657.18,75.3L662.01,104.67L666.85,104.16L671.68,97.56L676.51,95.6L681.34,97.56L686.17,107.15L691.01,99.98L695.84,105.24L700.67,107.15L705.5,70.92L710.34,67.62L715.17,59.07L720,61.03" style="vector-effect: none; fill: none; stroke: rgb(255, 192, 203); stroke-opacity: 1; stroke-width: 2px; opacity: 1;"/></g><g class="points"/><g class="text"/></g><g class="trace scatter tracef90beb" style="stroke-miterlimit: 2; opacity: 1;"><g class="fills"/><g class="errorbars"/><g class="lines"><path class="js-line" d="M0,318.74L4.83,267.67L9.66,225.26L14.5,202.23L19.33,155.38L24.16,95.09L28.99,96.69L33.83,109.62L38.66,106.79L43.49,105.04L48.32,82.41L53.15,87.67L57.99,70.61L62.82,60.56L67.65,57.06L72.48,112.82L77.32,56.34L82.15,51.03L86.98,59.17L91.81,58.4L96.64,71.28L101.48,83.7L106.31,73.14L111.14,64.89L115.97,52.52L120.81,49.74L125.64,58.09L130.47,54.69L135.3,48.86L140.13,43.76L144.97,68.09L149.8,43.81L154.63,47.42L159.46,53.86L164.3,51.49L169.13,38.15L173.96,53.81L178.79,45.57L183.62,43.45L188.46,125.44L193.29,125.91L198.12,114.36L202.95,92.92L207.79,55.36L212.62,56.08L217.45,53.04L222.28,59.58L227.11,48.14L231.95,32.43L236.78,40.26L241.61,35.05L246.44,45.57L251.28,46.13L256.11,30.83L260.94,36.96L265.77,33.97L270.6,35.78L275.44,32.22L280.27,34.13L285.1,34.64L289.93,71.08L294.77,34.64L299.6,38.04L304.43,44.02L309.26,41.96L314.09,40.77L318.93,43.3L323.76,35.11L328.59,32.12L333.42,36.24L338.26,91.12L343.09,108.49L347.92,30.78L352.75,72.93L357.58,41.08L362.42,34.49L367.25,32.68L372.08,28.15L376.91,34.95L381.74,34.38L386.58,35.05L401.07,37.42L405.91,38.61L410.74,38.15L415.57,32.01L420.4,37.48L425.23,34.74L430.07,37.78L434.9,35.57L439.73,36.6L444.56,34.85L449.4,33.15L454.23,36.6L459.06,32.12L463.89,33.3L473.56,29.13L478.39,31.03L483.22,31.6L488.05,38.87L492.89,36.7L497.72,74.17L502.55,100.96L507.38,94.47L512.21,101.43L517.05,68.65L526.71,60.72L531.54,66.85L536.38,60.72L541.21,64.99L546.04,64.99L550.87,51.03L555.7,28.92L560.54,27.68L565.37,27.79L570.2,33.25L575.03,32.48L579.87,29.49L584.7,30.11L589.53,38.45L594.36,37.17L599.19,34.9L604.03,31.86L608.86,33.1L613.69,28.92L618.52,28.97L623.36,30.78L628.19,28.97L633.02,28.41L637.85,27.01L642.68,58.91L647.52,61.95L652.35,63.14L657.18,24.18L662.01,57.06L666.85,60.1L676.51,54.69L681.34,53.45L691.01,64.99L695.84,60.1L700.67,63.76L705.5,29.08L715.17,23.61L720,25.31" style="vector-effect: none; fill: none; stroke: rgb(165, 42, 42); stroke-opacity: 1; stroke-width: 2px; opacity: 1;"/></g><g class="points"/><g class="text"/></g><g class="trace scatter tracedea050" style="stroke-miterlimit: 2; opacity: 1;"><g class="fills"/><g class="errorbars"/><g class="lines"><path class="js-line" d="M0,332.4L4.83,264.32L9.66,224.9L14.5,210.11L19.33,174.55L24.16,139.15L28.99,145.28L33.83,150.18L38.66,150.18L43.49,149.77L48.32,128.79L53.15,134.92L57.99,118.64L62.82,95.14L67.65,96.33L72.48,172.29L77.32,87.93L82.15,78.19L86.98,100.14L91.81,99.78L96.64,121.27L106.31,125.13L111.14,101.17L115.97,84.78L120.81,87.82L125.64,84.99L130.47,76.38L140.13,87.26L144.97,117.56L149.8,78.19L154.63,80.25L159.46,109.05L164.3,102.66L169.13,80.45L173.96,86.64L183.62,93.08L188.46,165.43L193.29,167.96L198.12,165.43L202.95,145.33L207.79,111.01L217.45,97.67L222.28,118.23L227.11,99.98L231.95,86.33L236.78,82.1L241.61,76.38L246.44,78.7L251.28,73.39L256.11,72.36L260.94,92.31L265.77,92.31L270.6,86.74L275.44,81.74L280.27,87.26L285.1,84.99L289.93,131.73L294.77,81.74L299.6,76.54L309.26,87.82L314.09,83.29L318.93,82.72L323.76,78.65L328.59,85.66L333.42,83.8L338.26,152.6L343.09,169.76L347.92,80.45L352.75,135.95L357.58,81.28L362.42,86.28L367.25,86.74L372.08,67.21L376.91,78.96L381.74,79.42L391.41,79.89L396.24,76.69L401.07,78.55L405.91,78.55L410.74,81.74L415.57,77.57L420.4,77.57L425.23,69.48L430.07,71.8L434.9,75.87L439.73,75.35L444.56,73.03L449.4,71.8L454.23,77.62L463.89,77.62L468.72,73.55L473.56,73.55L478.39,78.13L488.05,78.19L492.89,76.69L497.72,131.27L502.55,157.55L507.38,152.6L512.21,162.34L517.05,124.51L521.88,122.2L526.71,112.97L531.54,124.51L536.38,133.79L541.21,136.37L546.04,133.79L550.87,103.75L555.7,84.99L560.54,84.47L565.37,84.01L570.2,86.28L575.03,86.74L579.87,89.52L584.7,86.28L589.53,78.65L594.36,99.98L599.19,92.72L604.03,83.55L608.86,81.28L613.69,74.37L618.52,77.16L623.36,74.84L628.19,74.37L633.02,79.42L637.85,77.16L642.68,124.51L647.52,126.83L652.35,124.51L657.18,81.74L662.01,117.87L666.85,115.91L671.68,110.65L676.51,108.33L681.34,110.65L686.17,122.2L691.01,114.98L695.84,119.88L700.67,122.2L705.5,75.35L710.34,72.52L715.17,64.68L720,67" style="vector-effect: none; fill: none; stroke: rgb(128, 128, 128); stroke-opacity: 1; stroke-width: 2px; opacity: 1;"/></g><g class="points"/><g class="text"/></g></g></g><g class="overplot"/><path class="xlines-above crisp" d="M0,0" style="fill: none;"/><path class="ylines-above crisp" d="M0,0" style="fill: none;"/><g class="overlines-above"/><g class="xaxislayer-above"><g class="xtick"><text text-anchor="middle" x="0" y="509" transform="translate(241.81,0)" style="font-family: 'Open Sans', verdana, arial, sans-serif; font-size: 12px; fill: rgb(42, 63, 95); fill-opacity: 1; white-space: pre; opacity: 1;">20</text></g><g class="xtick"><text text-anchor="middle" x="0" y="509" style="font-family: 'Open Sans', verdana, arial, sans-serif; font-size: 12px; fill: rgb(42, 63, 95); fill-opacity: 1; white-space: pre; opacity: 1;" transform="translate(338.46000000000004,0)">40</text></g><g class="xtick"><text text-anchor="middle" x="0" y="509" style="font-family: 'Open Sans', verdana, arial, sans-serif; font-size: 12px; fill: rgb(42, 63, 95); fill-opacity: 1; white-space: pre; opacity: 1;" transform="translate(435.1,0)">60</text></g><g class="xtick"><text text-anchor="middle" x="0" y="509" style="font-family: 'Open Sans', verdana, arial, sans-serif; font-size: 12px; fill: rgb(42, 63, 95); fill-opacity: 1; white-space: pre; opacity: 1;" transform="translate(531.74,0)">80</text></g><g class="xtick"><text text-anchor="middle" x="0" y="509" style="font-family: 'Open Sans', verdana, arial, sans-serif; font-size: 12px; fill: rgb(42, 63, 95); fill-opacity: 1; white-space: pre; opacity: 1;" transform="translate(628.39,0)">100</text></g><g class="xtick"><text text-anchor="middle" x="0" y="509" style="font-family: 'Open Sans', verdana, arial, sans-serif; font-size: 12px; fill: rgb(42, 63, 95); fill-opacity: 1; white-space: pre; opacity: 1;" transform="translate(725.03,0)">120</text></g><g class="xtick"><text text-anchor="middle" x="0" y="509" style="font-family: 'Open Sans', verdana, arial, sans-serif; font-size: 12px; fill: rgb(42, 63, 95); fill-opacity: 1; white-space: pre; opacity: 1;" transform="translate(821.68,0)">140</text></g></g><g class="yaxislayer-above"><g class="ytick"><text text-anchor="end" x="149" y="4.199999999999999" transform="translate(0,467.95)" style="font-family: 'Open Sans', verdana, arial, sans-serif; font-size: 12px; fill: rgb(42, 63, 95); fill-opacity: 1; white-space: pre; opacity: 1;">20</text></g><g class="ytick"><text text-anchor="end" x="149" y="4.199999999999999" style="font-family: 'Open Sans', verdana, arial, sans-serif; font-size: 12px; fill: rgb(42, 63, 95); fill-opacity: 1; white-space: pre; opacity: 1;" transform="translate(0,416.42)">30</text></g><g class="ytick"><text text-anchor="end" x="149" y="4.199999999999999" style="font-family: 'Open Sans', verdana, arial, sans-serif; font-size: 12px; fill: rgb(42, 63, 95); fill-opacity: 1; white-space: pre; opacity: 1;" transform="translate(0,364.89)">40</text></g><g class="ytick"><text text-anchor="end" x="149" y="4.199999999999999" style="font-family: 'Open Sans', verdana, arial, sans-serif; font-size: 12px; fill: rgb(42, 63, 95); fill-opacity: 1; white-space: pre; opacity: 1;" transform="translate(0,313.36)">50</text></g><g class="ytick"><text text-anchor="end" x="149" y="4.199999999999999" style="font-family: 'Open Sans', verdana, arial, sans-serif; font-size: 12px; fill: rgb(42, 63, 95); fill-opacity: 1; white-space: pre; opacity: 1;" transform="translate(0,261.82)">60</text></g><g class="ytick"><text text-anchor="end" x="149" y="4.199999999999999" style="font-family: 'Open Sans', verdana, arial, sans-serif; font-size: 12px; fill: rgb(42, 63, 95); fill-opacity: 1; white-space: pre; opacity: 1;" transform="translate(0,210.29000000000002)">70</text></g><g class="ytick"><text text-anchor="end" x="149" y="4.199999999999999" style="font-family: 'Open Sans', verdana, arial, sans-serif; font-size: 12px; fill: rgb(42, 63, 95); fill-opacity: 1; white-space: pre; opacity: 1;" transform="translate(0,158.76)">80</text></g><g class="ytick"><text text-anchor="end" x="149" y="4.199999999999999" style="font-family: 'Open Sans', verdana, arial, sans-serif; font-size: 12px; fill: rgb(42, 63, 95); fill-opacity: 1; white-space: pre; opacity: 1;" transform="translate(0,107.23)">90</text></g></g><g class="overaxes-above"/></g></g><g class="polarlayer"/><g class="smithlayer"/><g class="ternarylayer"/><g class="geolayer"/><g class="funnelarealayer"/><g class="pielayer"/><g class="iciclelayer"/><g class="treemaplayer"/><g class="sunburstlayer"/><g class="glimages"/><defs id="topdefs-12b3b4"><g class="clips"/><clipPath id="legend12b3b4"><rect width="128" height="162" x="0" y="0"/></clipPath></defs><g class="layer-above"><g class="imagelayer"/><g class="shapelayer"/></g><g class="infolayer"><g class="legend" pointer-events="all" transform="translate(884.4,100)"><rect class="bg" shape-rendering="crispEdges" width="128" height="162" x="0" y="0" style="stroke: rgb(68, 68, 68); stroke-opacity: 1; fill: rgb(255, 255, 255); fill-opacity: 1; stroke-width: 0px;"/><g class="scrollbox" transform="" clip-path="url(#legend12b3b4)"><g class="groups"><g class="traces" transform="translate(0,14.5)" style="opacity: 1;"><text class="legendtext" text-anchor="start" x="40" y="4.680000000000001" style="font-family: 'Open Sans', verdana, arial, sans-serif; font-size: 12px; fill: rgb(42, 63, 95); fill-opacity: 1; white-space: pre;">Train Accuracy</text><g class="layers" style="opacity: 1;"><g class="legendfill"/><g class="legendlines"><path class="js-line" d="M5,0h30" style="fill: none; stroke: rgb(255, 0, 0); stroke-opacity: 1; stroke-width: 2px;"/></g><g class="legendsymbols"><g class="legendpoints"/></g></g><rect class="legendtoggle" x="0" y="-9.5" width="122.71875" height="19" style="fill: rgb(0, 0, 0); fill-opacity: 0;"/></g><g class="traces" transform="translate(0,33.5)" style="opacity: 1;"><text class="legendtext" text-anchor="start" x="40" y="4.680000000000001" style="font-family: 'Open Sans', verdana, arial, sans-serif; font-size: 12px; fill: rgb(42, 63, 95); fill-opacity: 1; white-space: pre;">Test Accuracy</text><g class="layers" style="opacity: 1;"><g class="legendfill"/><g class="legendlines"><path class="js-line" d="M5,0h30" style="fill: none; stroke: rgb(0, 0, 255); stroke-opacity: 1; stroke-width: 2px;"/></g><g class="legendsymbols"><g class="legendpoints"/></g></g><rect class="legendtoggle" x="0" y="-9.5" width="122.71875" height="19" style="fill: rgb(0, 0, 0); fill-opacity: 0;"/></g><g class="traces" transform="translate(0,52.5)" style="opacity: 1;"><text class="legendtext" text-anchor="start" x="40" y="4.680000000000001" style="font-family: 'Open Sans', verdana, arial, sans-serif; font-size: 12px; fill: rgb(42, 63, 95); fill-opacity: 1; white-space: pre;">Train Precision</text><g class="layers" style="opacity: 1;"><g class="legendfill"/><g class="legendlines"><path class="js-line" d="M5,0h30" style="fill: none; stroke: rgb(0, 128, 0); stroke-opacity: 1; stroke-width: 2px;"/></g><g class="legendsymbols"><g class="legendpoints"/></g></g><rect class="legendtoggle" x="0" y="-9.5" width="122.71875" height="19" style="fill: rgb(0, 0, 0); fill-opacity: 0;"/></g><g class="traces" transform="translate(0,71.5)" style="opacity: 1;"><text class="legendtext" text-anchor="start" x="40" y="4.680000000000001" style="font-family: 'Open Sans', verdana, arial, sans-serif; font-size: 12px; fill: rgb(42, 63, 95); fill-opacity: 1; white-space: pre;">Test Precision</text><g class="layers" style="opacity: 1;"><g class="legendfill"/><g class="legendlines"><path class="js-line" d="M5,0h30" style="fill: none; stroke: rgb(255, 165, 0); stroke-opacity: 1; stroke-width: 2px;"/></g><g class="legendsymbols"><g class="legendpoints"/></g></g><rect class="legendtoggle" x="0" y="-9.5" width="122.71875" height="19" style="fill: rgb(0, 0, 0); fill-opacity: 0;"/></g><g class="traces" transform="translate(0,90.5)" style="opacity: 1;"><text class="legendtext" text-anchor="start" x="40" y="4.680000000000001" style="font-family: 'Open Sans', verdana, arial, sans-serif; font-size: 12px; fill: rgb(42, 63, 95); fill-opacity: 1; white-space: pre;">Train Recall</text><g class="layers" style="opacity: 1;"><g class="legendfill"/><g class="legendlines"><path class="js-line" d="M5,0h30" style="fill: none; stroke: rgb(128, 0, 128); stroke-opacity: 1; stroke-width: 2px;"/></g><g class="legendsymbols"><g class="legendpoints"/></g></g><rect class="legendtoggle" x="0" y="-9.5" width="122.71875" height="19" style="fill: rgb(0, 0, 0); fill-opacity: 0;"/></g><g class="traces" transform="translate(0,109.5)" style="opacity: 1;"><text class="legendtext" text-anchor="start" x="40" y="4.680000000000001" style="font-family: 'Open Sans', verdana, arial, sans-serif; font-size: 12px; fill: rgb(42, 63, 95); fill-opacity: 1; white-space: pre;">Test Recall</text><g class="layers" style="opacity: 1;"><g class="legendfill"/><g class="legendlines"><path class="js-line" d="M5,0h30" style="fill: none; stroke: rgb(255, 192, 203); stroke-opacity: 1; stroke-width: 2px;"/></g><g class="legendsymbols"><g class="legendpoints"/></g></g><rect class="legendtoggle" x="0" y="-9.5" width="122.71875" height="19" style="fill: rgb(0, 0, 0); fill-opacity: 0;"/></g><g class="traces" transform="translate(0,128.5)" style="opacity: 1;"><text class="legendtext" text-anchor="start" x="40" y="4.680000000000001" style="font-family: 'Open Sans', verdana, arial, sans-serif; font-size: 12px; fill: rgb(42, 63, 95); fill-opacity: 1; white-space: pre;">Train F1</text><g class="layers" style="opacity: 1;"><g class="legendfill"/><g class="legendlines"><path class="js-line" d="M5,0h30" style="fill: none; stroke: rgb(165, 42, 42); stroke-opacity: 1; stroke-width: 2px;"/></g><g class="legendsymbols"><g class="legendpoints"/></g></g><rect class="legendtoggle" x="0" y="-9.5" width="122.71875" height="19" style="fill: rgb(0, 0, 0); fill-opacity: 0;"/></g><g class="traces" transform="translate(0,147.5)" style="opacity: 1;"><text class="legendtext" text-anchor="start" x="40" y="4.680000000000001" style="font-family: 'Open Sans', verdana, arial, sans-serif; font-size: 12px; fill: rgb(42, 63, 95); fill-opacity: 1; white-space: pre;">Test F1</text><g class="layers" style="opacity: 1;"><g class="legendfill"/><g class="legendlines"><path class="js-line" d="M5,0h30" style="fill: none; stroke: rgb(128, 128, 128); stroke-opacity: 1; stroke-width: 2px;"/></g><g class="legendsymbols"><g class="legendpoints"/></g></g><rect class="legendtoggle" x="0" y="-9.5" width="122.71875" height="19" style="fill: rgb(0, 0, 0); fill-opacity: 0;"/></g></g></g><rect class="scrollbar" rx="20" ry="3" width="0" height="0" x="0" y="0" style="fill: rgb(128, 139, 164); fill-opacity: 1;"/></g><g class="g-gtitle"><text class="gtitle" x="51.2" y="50" text-anchor="start" dy="0em" style="font-family: 'Open Sans', verdana, arial, sans-serif; font-size: 17px; fill: rgb(42, 63, 95); opacity: 1; font-weight: normal; white-space: pre;">Training Metrics - logs/FakeNewsNet-politifact_max-vocab=15000_pre=v1_text_T=200_s=15.log</text></g><g class="g-xtitle"><text class="xtitle" x="510" y="537.3" text-anchor="middle" style="font-family: 'Open Sans', verdana, arial, sans-serif; font-size: 14px; fill: rgb(42, 63, 95); opacity: 1; font-weight: normal; white-space: pre;">Epoch</text></g><g class="g-ytitle"><text class="ytitle" transform="rotate(-90,110.965625,298)" x="110.965625" y="298" text-anchor="middle" style="font-family: 'Open Sans', verdana, arial, sans-serif; font-size: 14px; fill: rgb(42, 63, 95); opacity: 1; font-weight: normal; white-space: pre;">Metric Score</text></g></g><g class="menulayer"><g class="updatemenu-container" style="cursor: pointer;"><g class="updatemenu-header-group" transform="translate(12,60)"><g class="updatemenu-header" transform="translate(1,1)" style="pointer-events: all;"><rect class="updatemenu-item-rect" rx="2" ry="2" shape-rendering="crispEdges" x="0" y="0" width="174" height="33" style="stroke: rgb(190, 200, 217); stroke-opacity: 1; fill: rgb(255, 255, 255); fill-opacity: 1; stroke-width: 1px;"/><text class="updatemenu-item-text" text-anchor="start" data-notex="1" x="12" y="19.5" style="font-family: 'Open Sans', verdana, arial, sans-serif; font-size: 12px; fill: rgb(42, 63, 95); fill-opacity: 1; white-space: pre;">All</text></g><text class="updatemenu-header-arrow" text-anchor="end" x="170" y="19.5" style="font-family: 'Open Sans', verdana, arial, sans-serif; font-size: 12px; fill: rgb(42, 63, 95); fill-opacity: 1;">▼</text></g><g class="updatemenu-dropdown-button-group" updatemenu-active-index="-1" style="pointer-events: all;"><rect class="scrollbox-bg" opacity="0" x="0" y="0" width="0" height="0" style="pointer-events: all;"/></g></g></g></svg>