<svg class="main-svg" xmlns="http://www.w3.org/2000/svg" xmlns:xlink="http://www.w3.org/1999/xlink" width="1024" height="576" style="" viewBox="0 0 1024 576"><rect x="0" y="0" width="1024" height="576" style="fill: rgb(255, 255, 255); fill-opacity: 1;"/><defs id="defs-4b0f5e"><g class="clips"><clipPath id="clip4b0f5exyplot" class="plotclip"><rect width="726" height="396"/></clipPath><clipPath class="axesclip" id="clip4b0f5ex"><rect x="143" y="0" width="726" height="576"/></clipPath><clipPath class="axesclip" id="clip4b0f5ey"><rect x="0" y="100" width="1024" height="396"/></clipPath><clipPath class="axesclip" id="clip4b0f5exy"><rect x="143" y="100" width="726" height="396"/></clipPath></g><g class="gradients"/><g class="patterns"/></defs><g class="bglayer"><rect class="bg" x="143" y="100" width="726" height="396" style="fill: rgb(229, 236, 246); fill-opacity: 1; stroke-width: 0;"/></g><g class="layer-below"><g class="imagelayer"/><g class="shapelayer"/></g><g class="cartesianlayer"><g class="subplot xy"><g class="layer-subplot"><g class="shapelayer"/><g class="imagelayer"/></g><g class="minor-gridlayer"><g class="x"/><g class="y"/></g><g class="gridlayer"><g class="x"><path class="xgrid crisp" transform="translate(209,0)" d="M0,100v396" style="stroke: rgb(255, 255, 255); stroke-opacity: 1; stroke-width: 1px;"/><path class="xgrid crisp" transform="translate(282.33000000000004,0)" d="M0,100v396" style="stroke: rgb(255, 255, 255); stroke-opacity: 1; stroke-width: 1px;"/><path class="xgrid crisp" transform="translate(355.66999999999996,0)" d="M0,100v396" style="stroke: rgb(255, 255, 255); stroke-opacity: 1; stroke-width: 1px;"/><path class="xgrid crisp" transform="translate(429,0)" d="M0,100v396" style="stroke: rgb(255, 255, 255); stroke-opacity: 1; stroke-width: 1px;"/><path class="xgrid crisp" transform="translate(502.33,0)" d="M0,100v396" style="stroke: rgb(255, 255, 255); stroke-opacity: 1; stroke-width: 1px;"/><path class="xgrid crisp" transform="translate(575.6700000000001,0)" d="M0,100v396" style="stroke: rgb(255, 255, 255); stroke-opacity: 1; stroke-width: 1px;"/><path class="xgrid crisp" transform="translate(649,0)" d="M0,100v396" style="stroke: rgb(255, 255, 255); stroke-opacity: 1; stroke-width: 1px;"/><path class="xgrid crisp" transform="translate(722.33,0)" d="M0,100v396" style="stroke: rgb(255, 255, 255); stroke-opacity: 1; stroke-width: 1px;"/><path class="xgrid crisp" transform="translate(795.67,0)" d="M0,100v396" style="stroke: rgb(255, 255, 255); stroke-opacity: 1; stroke-width: 1px;"/></g><g class="y"><path class="ygrid crisp" transform="translate(0,489.33)" d="M143,0h726" style="stroke: rgb(255, 255, 255); stroke-opacity: 1; stroke-width: 1px;"/><path class="ygrid crisp" transform="translate(0,448.3)" d="M143,0h726" style="stroke: rgb(255, 255, 255); stroke-opacity: 1; stroke-width: 1px;"/><path class="ygrid crisp" transform="translate(0,407.26)" d="M143,0h726" style="stroke: rgb(255, 255, 255); stroke-opacity: 1; stroke-width: 1px;"/><path class="ygrid crisp" transform="translate(0,366.22)" d="M143,0h726" style="stroke: rgb(255, 255, 255); stroke-opacity: 1; stroke-width: 1px;"/><path class="ygrid crisp" transform="translate(0,325.19)" d="M143,0h726" style="stroke: rgb(255, 255, 255); stroke-opacity: 1; stroke-width: 1px;"/><path class="ygrid crisp" transform="translate(0,284.15)" d="M143,0h726" style="stroke: rgb(255, 255, 255); stroke-opacity: 1; stroke-width: 1px;"/><path class="ygrid crisp" transform="translate(0,243.11)" d="M143,0h726" style="stroke: rgb(255, 255, 255); stroke-opacity: 1; stroke-width: 1px;"/><path class="ygrid crisp" transform="translate(0,202.07999999999998)" d="M143,0h726" style="stroke: rgb(255, 255, 255); stroke-opacity: 1; stroke-width: 1px;"/><path class="ygrid crisp" transform="translate(0,161.04)" d="M143,0h726" style="stroke: rgb(255, 255, 255); stroke-opacity: 1; stroke-width: 1px;"/><path class="ygrid crisp" transform="translate(0,120.01)" d="M143,0h726" style="stroke: rgb(255, 255, 255); stroke-opacity: 1; stroke-width: 1px;"/></g></g><g class="zerolinelayer"/><path class="xlines-below"/><path class="ylines-below"/><g class="overlines-below"/><g class="xaxislayer-below"/><g class="yaxislayer-below"/><g class="overaxes-below"/><g class="plot" transform="translate(143,100)" clip-path="url(#clip4b0f5exyplot)"><g class="scatterlayer mlayer"><g class="trace scatter tracee59f37" style="stroke-miterlimit: 2; opacity: 1;"><g class="fills"/><g class="errorbars"/><g class="lines"><path class="js-line" d="M0,266.84L7.33,215.75L14.67,185.79L22,137.16L29.33,137.98L36.67,113.98L44,107.21L51.33,108.64L58.67,105.77L66,103.31L73.33,104.54L80.67,96.95L88,97.77L102.67,92.64L110,112.34L117.33,94.28L124.67,126.7L132,119.52L139.33,128.14L146.67,124.65L154,126.29L161.33,96.54L168.67,95.51L176,97.97L183.33,90.59L190.67,104.75L198,19.8L205.33,20.62L212.67,41.14L220,31.5L227.33,32.52L234.67,32.32L242,102.69L249.33,98.59L256.67,100.64L264,94.9L271.33,85.87L286,90.79L293.33,86.07L300.67,92.23L308,102.28L315.33,97.56L322.67,106.8L330,106.39L337.33,114.39L344.67,120.34L352,109.87L359.33,112.75L366.67,110.28L374,112.54L381.33,52.01L388.67,50.99L396,52.01L403.33,54.68L410.67,52.63L418,40.32L425.33,109.67L432.67,116.44L440,110.28L447.33,111.93L454.67,117.47L462,110.9L469.33,130.39L476.67,134.7L484,131.01L491.33,118.29L498.67,121.57L506,131.83L513.33,134.5L520.67,141.27L528,133.06L535.33,134.09L542.67,141.88L557.33,128.34L564.67,114.39L572,104.75L579.33,110.28L586.67,112.34L594,119.31L601.33,118.49L608.67,108.85L616,106.59L623.33,110.9L630.67,118.49L638,116.85L645.33,113.77L652.67,118.9L660,132.24L667.33,127.73L674.67,134.7L682,127.73L689.33,128.34L696.67,130.19L704,119.31L711.33,114.39L718.67,116.03L726,116.44" style="vector-effect: none; fill: none; stroke: rgb(255, 0, 0); stroke-opacity: 1; stroke-width: 2px; opacity: 1;"/></g><g class="points"/><g class="text"/></g><g class="trace scatter trace310780" style="stroke-miterlimit: 2; opacity: 1;"><g class="fills"/><g class="errorbars"/><g class="lines"><path class="js-line" d="M0,285.72L7.33,239.75L14.67,208.36L22,152.76L29.33,140.65L36.67,126.29L44,124.03L58.67,128.14L66,118.9L73.33,129.16L80.67,121.57L95.33,109.67L102.67,123.62L110,130.39L117.33,121.57L124.67,167.94L132,158.3L139.33,162.81L146.67,163.84L154,156.45L161.33,136.55L168.67,129.57L176,128.55L183.33,119.31L190.67,131.01L198,22.88L205.33,28.62L212.67,43.81L220,32.73L227.33,36.83L234.67,38.68L242,128.14L249.33,123.01L256.67,123.01L264,121.16L271.33,103.1L278.67,108.23L286,101.26L293.33,100.44L300.67,123.01L308,119.72L315.33,111.93L322.67,124.03L330,126.29L337.33,129.57L344.67,135.52L352,126.29L359.33,121.16L366.67,126.29L374,132.24L381.33,76.22L388.67,74.38L396,79.51L403.33,85.46L410.67,72.53L418,52.22L425.33,149.47L432.67,159.73L440,142.91L454.67,159.12L462,148.45L469.33,168.97L476.67,173.07L484,172.66L491.33,153.17L498.67,158.3L506,174.92L513.33,183.33L520.67,181.48L528,173.48L535.33,174.51L542.67,176.35L550,174.1L557.33,168.56L564.67,148.45L572,137.37L579.33,143.52L586.67,141.68L594,160.96L601.33,152.76L608.67,139.83L616,139.22L623.33,148.45L630.67,151.73L638,158.71L645.33,155.42L652.67,157.27L660,167.94L667.33,164.25L674.67,180.46L682,165.27L689.33,163.84L696.67,158.71L704,149.88L711.33,145.78L718.67,144.76L726,142.91" style="vector-effect: none; fill: none; stroke: rgb(0, 0, 255); stroke-opacity: 1; stroke-width: 2px; opacity: 1;"/></g><g class="points"/><g class="text"/></g><g class="trace scatter tracea41f6d" style="stroke-miterlimit: 2; opacity: 1;"><g class="fills"/><g class="errorbars"/><g class="lines"><path class="js-line" d="M0,355.07L7.33,325.73L14.67,304.39L22,275.25L29.33,281L36.67,264.38L44,254.32L51.33,251.04L58.67,248.99L66,248.99L73.33,245.91L80.67,240.99L88,242.01L95.33,242.22L102.67,236.27L110,247.14L117.33,233.6L124.67,247.96L132,245.09L139.33,250.63L146.67,246.32L154,252.07L161.33,231.96L168.67,230.93L176,232.98L183.33,227.44L190.67,236.47L198,173.48L205.33,174.51L212.67,201.18L220,189.69L227.33,190.1L234.67,189.48L242,237.7L249.33,235.45L256.67,237.29L264,232.16L271.33,224.16L278.67,224.37L286,227.65L293.33,224.78L300.67,226.42L308,233.8L315.33,229.5L322.67,233.39L330,232.98L337.33,240.37L344.67,239.34L352,235.45L359.33,237.5L366.67,235.24L374,237.29L381.33,202.62L388.67,201.39L396,203.85L403.33,205.69L410.67,205.69L418,192.56L425.33,229.91L432.67,235.04L440,234.21L447.33,233.8L454.67,237.5L462,233.39L469.33,244.88L476.67,246.53L484,242.01L491.33,237.29L498.67,236.47L506,240.16L513.33,239.55L520.67,244.88L528,243.24L535.33,245.29L542.67,249.19L550,242.63L557.33,239.96L564.67,235.86L572,228.88L586.67,231.96L594,236.47L601.33,237.5L608.67,231.34L616,229.5L623.33,230.73L630.67,235.45L638,234.01L645.33,232.37L652.67,235.86L660,240.58L667.33,236.68L674.67,238.93L682,239.55L696.67,241.81L704,236.88L711.33,233.8L718.67,235.24L726,234.83" style="vector-effect: none; fill: none; stroke: rgb(0, 128, 0); stroke-opacity: 1; stroke-width: 2px; opacity: 1;"/></g><g class="points"/><g class="text"/></g><g class="trace scatter tracef37d5a" style="stroke-miterlimit: 2; opacity: 1;"><g class="fills"/><g class="errorbars"/><g class="lines"><path class="js-line" d="M0,367.79L7.33,342.55L14.67,327.57L22,291.46L29.33,281.82L44,269.92L51.33,268.27L58.67,271.15L66,264.17L73.33,269.1L80.67,263.97L88,257.81L95.33,254.73L102.67,265.61L110,260.68L117.33,258.63L124.67,284.07L132,281.82L139.33,283.05L146.67,284.28L154,281.41L161.33,270.74L168.67,261.71L176,260.27L183.33,254.32L190.67,261.09L198,176.97L205.33,185.38L212.67,203.03L220,189.9L227.33,194.82L234.67,197.28L242,261.09L249.33,257.81L256.67,259.86L264,256.99L271.33,237.5L278.67,241.81L286,236.27L293.33,239.14L300.67,257.4L315.33,242.22L322.67,246.73L337.33,252.68L344.67,252.89L352,248.78L359.33,246.53L366.67,252.27L374,255.76L381.33,231.34L388.67,228.47L403.33,242.42L410.67,229.29L418,206.52L425.33,267.45L432.67,270.33L440,264.99L454.67,273.4L462,268.27L469.33,281L476.67,281.61L484,279.56L491.33,274.02L498.67,271.76L506,282.02L513.33,286.74L520.67,283.25L528,286.33L535.33,284.89L550,279.76L557.33,279.56L564.67,269.3L572,264.17L579.33,266.02L586.67,263.76L594,275.05L601.33,268.48L608.67,261.71L616,259.25L623.33,263.76L630.67,265.4L638,274.02L645.33,271.15L652.67,270.53L660,276.28L667.33,271.56L674.67,279.15L682,271.97L689.33,272.99L696.67,267.45L704,265.81L718.67,265.2L726,261.71" style="vector-effect: none; fill: none; stroke: rgb(255, 165, 0); stroke-opacity: 1; stroke-width: 2px; opacity: 1;"/></g><g class="points"/><g class="text"/></g><g class="trace scatter tracea5f24c" style="stroke-miterlimit: 2; opacity: 1;"><g class="fills"/><g class="errorbars"/><g class="lines"><path class="js-line" d="M0,264.58L7.33,235.86L14.67,214.31L22,197.69L29.33,209.59L36.67,203.03L44,188.05L51.33,177.58L58.67,176.97L66,180.66L73.33,171.02L80.67,170.4L88,171.84L95.33,176.97L102.67,165.48L110,163.22L117.33,155.84L124.67,148.86L132,149.88L139.33,153.17L146.67,147.22L154,158.09L161.33,148.24L168.67,146.81L176,148.45L183.33,145.58L190.67,147.83L198,219.85L205.33,224.37L212.67,205.49L220,209.39L227.33,199.54L234.67,196.05L242,153.37L249.33,153.58L256.67,155.42L264,150.91L271.33,144.76L278.67,141.47L286,146.19L293.33,146.19L300.67,140.86L308,144.55L315.33,140.45L322.67,137.78L330,137.16L337.33,144.76L344.67,136.14L352,138.81L359.33,140.45L366.67,137.98L374,139.83L381.33,156.86L388.67,155.84L396,161.79L403.33,160.14L410.67,167.12L418,161.79L425.33,126.7L440,135.93L447.33,132.85L454.67,135.52L462,132.85L469.33,138.81L476.67,138.39L484,132.24L491.33,134.09L498.67,128.96L506,127.93L513.33,124.44L520.67,130.19L528,132.85L535.33,136.34L542.67,138.39L550,129.98L557.33,130.39L564.67,134.7L572,129.78L579.33,127.11L586.67,128.34L594,131.01L601.33,134.09L608.67,130.8L623.33,126.9L630.67,129.78L638,127.93L645.33,127.73L652.67,130.19L660,128.34L667.33,124.03L674.67,123.21L682,129.57L689.33,131.01L696.67,132.65L704,132.03L711.33,130.19L718.67,131.62L726,130.6" style="vector-effect: none; fill: none; stroke: rgb(128, 0, 128); stroke-opacity: 1; stroke-width: 2px; opacity: 1;"/></g><g class="points"/><g class="text"/></g><g class="trace scatter traced1665e" style="stroke-miterlimit: 2; opacity: 1;"><g class="fills"/><g class="errorbars"/><g class="lines"><path class="js-line" d="M0,280.18L7.33,254.53L14.67,244.27L22,217.39L29.33,209.39L36.67,213.7L44,203.03L51.33,197.08L58.67,200.56L66,196.46L73.33,194.61L80.67,192.36L88,185.38L95.33,187.02L102.67,193.59L110,173.89L117.33,179.84L124.67,188.87L132,192.15L139.33,190.72L146.67,192.56L154,192.97L161.33,189.69L168.67,177.17L176,175.33L183.33,172.45L190.67,174.1L198,223.13L205.33,233.39L212.67,202.82L220,206.52L227.33,202.21L234.67,204.05L242,177.58L249.33,176.15L256.67,180.87L264,176.35L271.33,153.99L278.67,157.27L286,153.37L293.33,161.99L300.67,174.92L308,160.96L315.33,153.78L322.67,149.88L337.33,157.48L344.67,152.35L352,152.14L359.33,152.76L366.67,159.94L374,161.38L381.33,188.66L388.67,184.15L396,194.82L403.33,200.15L410.67,192.15L418,175.53L425.33,169.99L432.67,168.15L440,171.02L447.33,171.84L454.67,174.51L462,172.66L469.33,182.1L476.67,180.25L484,176.76L491.33,180.25L498.67,171.84L506,180.25L513.33,183.74L520.67,178.61L528,189.07L535.33,185.79L542.67,180.46L550,176.35L557.33,179.84L564.67,174.71L572,174.51L579.33,172.66L586.67,169.38L594,176.35L601.33,169.58L608.67,166.92L616,161.99L623.33,163.43L630.67,164.25L638,176.15L652.67,169.99L660,173.69L667.33,167.33L674.67,171.43L682,167.33L689.33,170.2L696.67,163.02L704,166.3L711.33,168.97L718.67,169.58L726,163.84" style="vector-effect: none; fill: none; stroke: rgb(255, 192, 203); stroke-opacity: 1; stroke-width: 2px; opacity: 1;"/></g><g class="points"/><g class="text"/></g><g class="trace scatter trace3b5fbc" style="stroke-miterlimit: 2; opacity: 1;"><g class="fills"/><g class="errorbars"/><g class="lines"><path class="js-line" d="M0,359.38L7.33,317.93L14.67,291.05L22,254.94L29.33,261.09L36.67,244.06L44,232.78L51.33,228.67L58.67,226.62L66,226.83L73.33,223.13L80.67,218.21L88,219.44L95.33,220.06L102.67,213.29L110,224.57L117.33,210L124.67,227.24L132,223.34L139.33,230.11L146.67,225.39L154,230.93L161.33,207.95L168.67,206.72L176,208.98L183.33,203.03L190.67,213.08L198,200.15L205.33,203.64L212.67,203.44L220,200.15L227.33,195.02L234.67,192.77L242,214.11L249.33,211.64L256.67,213.7L264,208.16L271.33,199.74L278.67,199.74L286,203.44L293.33,200.36L300.67,202L308,210L315.33,205.28L322.67,210L330,209.59L337.33,218.01L344.67,218.21L352,212.67L359.33,215.13L366.67,212.47L374,214.72L381.33,183.95L388.67,182.92L396,186.41L403.33,187.02L410.67,189.28L418,179.02L425.33,207.54L432.67,213.49L440,211.44L447.33,211.44L454.67,215.95L462,210.82L469.33,225.8L476.67,228.26L484,223.55L491.33,215.95L498.67,216.16L506,222.52L513.33,222.93L520.67,229.5L528,225.19L535.33,227.03L542.67,232.98L550,225.39L557.33,221.08L564.67,213.9L572,205.49L579.33,208.16L586.67,209.8L594,215.54L601.33,216.16L608.67,208.57L616,206.31L623.33,208.36L630.67,214.31L645.33,210.62L652.67,214.93L660,222.93L667.33,218.42L674.67,222.52L682,220.47L689.33,221.29L696.67,223.13L704,215.95L711.33,211.85L718.67,213.7L726,213.49" style="vector-effect: none; fill: none; stroke: rgb(165, 42, 42); stroke-opacity: 1; stroke-width: 2px; opacity: 1;"/></g><g class="points"/><g class="text"/></g><g class="trace scatter trace41a038" style="stroke-miterlimit: 2; opacity: 1;"><g class="fills"/><g class="errorbars"/><g class="lines"><path class="js-line" d="M0,376.2L7.33,339.27L14.67,316.7L22,272.79L29.33,262.12L44,249.4L51.33,247.55L58.67,250.63L66,243.04L73.33,248.37L80.67,242.83L88,236.27L95.33,233.19L102.67,244.47L110,239.75L117.33,237.09L124.67,269.1L132,264.58L139.33,266.63L146.67,268.07L154,263.76L161.33,250.42L168.67,240.58L176,239.14L183.33,232.37L190.67,240.16L198,203.64L205.33,213.29L212.67,202.82L220,198.72L227.33,198.51L234.67,200.77L242,239.96L249.33,236.27L256.67,238.32L264,235.24L271.33,214.11L278.67,218.83L286,212.67L293.33,215.95L300.67,235.65L315.33,219.65L322.67,225.6L330,228.47L337.33,232.16L344.67,233.8L352,227.85L359.33,224.98L366.67,231.14L374,235.45L381.33,214.11L388.67,210.82L396,219.24L403.33,225.6L410.67,213.7L418,192.97L425.33,249.81L432.67,255.35L440,246.12L454.67,257.61L462,250.42L469.33,266.84L476.67,268.68L484,266.84L491.33,256.37L498.67,255.96L506,269.71L513.33,276.28L520.67,273.2L542.67,270.74L550,267.66L557.33,265.61L564.67,251.24L572,244.27L579.33,247.14L586.67,244.68L594,259.66L601.33,251.65L608.67,242.42L616,240.16L623.33,246.53L630.67,248.99L638,258.02L645.33,254.73L652.67,254.73L660,262.73L667.33,258.02L674.67,269.71L682,258.43L689.33,258.84L696.67,252.68L704,248.58L711.33,246.94L718.67,246.73L726,243.24" style="vector-effect: none; fill: none; stroke: rgb(128, 128, 128); stroke-opacity: 1; stroke-width: 2px; opacity: 1;"/></g><g class="points"/><g class="text"/></g></g></g><g class="overplot"/><path class="xlines-above crisp" d="M0,0" style="fill: none;"/><path class="ylines-above crisp" d="M0,0" style="fill: none;"/><g class="overlines-above"/><g class="xaxislayer-above"><g class="xtick"><text text-anchor="middle" x="0" y="509" transform="translate(209,0)" style="font-family: 'Open Sans', verdana, arial, sans-serif; font-size: 12px; fill: rgb(42, 63, 95); fill-opacity: 1; white-space: pre; opacity: 1;">10</text></g><g class="xtick"><text text-anchor="middle" x="0" y="509" style="font-family: 'Open Sans', verdana, arial, sans-serif; font-size: 12px; fill: rgb(42, 63, 95); fill-opacity: 1; white-space: pre; opacity: 1;" transform="translate(282.33000000000004,0)">20</text></g><g class="xtick"><text text-anchor="middle" x="0" y="509" style="font-family: 'Open Sans', verdana, arial, sans-serif; font-size: 12px; fill: rgb(42, 63, 95); fill-opacity: 1; white-space: pre; opacity: 1;" transform="translate(355.66999999999996,0)">30</text></g><g class="xtick"><text text-anchor="middle" x="0" y="509" style="font-family: 'Open Sans', verdana, arial, sans-serif; font-size: 12px; fill: rgb(42, 63, 95); fill-opacity: 1; white-space: pre; opacity: 1;" transform="translate(429,0)">40</text></g><g class="xtick"><text text-anchor="middle" x="0" y="509" style="font-family: 'Open Sans', verdana, arial, sans-serif; font-size: 12px; fill: rgb(42, 63, 95); fill-opacity: 1; white-space: pre; opacity: 1;" transform="translate(502.33,0)">50</text></g><g class="xtick"><text text-anchor="middle" x="0" y="509" style="font-family: 'Open Sans', verdana, arial, sans-serif; font-size: 12px; fill: rgb(42, 63, 95); fill-opacity: 1; white-space: pre; opacity: 1;" transform="translate(575.6700000000001,0)">60</text></g><g class="xtick"><text text-anchor="middle" x="0" y="509" style="font-family: 'Open Sans', verdana, arial, sans-serif; font-size: 12px; fill: rgb(42, 63, 95); fill-opacity: 1; white-space: pre; opacity: 1;" transform="translate(649,0)">70</text></g><g class="xtick"><text text-anchor="middle" x="0" y="509" style="font-family: 'Open Sans', verdana, arial, sans-serif; font-size: 12px; fill: rgb(42, 63, 95); fill-opacity: 1; white-space: pre; opacity: 1;" transform="translate(722.33,0)">80</text></g><g class="xtick"><text text-anchor="middle" x="0" y="509" style="font-family: 'Open Sans', verdana, arial, sans-serif; font-size: 12px; fill: rgb(42, 63, 95); fill-opacity: 1; white-space: pre; opacity: 1;" transform="translate(795.67,0)">90</text></g><g class="xtick"><text text-anchor="middle" x="0" y="509" style="font-family: 'Open Sans', verdana, arial, sans-serif; font-size: 12px; fill: rgb(42, 63, 95); fill-opacity: 1; white-space: pre; opacity: 1;" transform="translate(869,0)">100</text></g></g><g class="yaxislayer-above"><g class="ytick"><text text-anchor="end" x="142" y="4.199999999999999" transform="translate(0,489.33)" style="font-family: 'Open Sans', verdana, arial, sans-serif; font-size: 12px; fill: rgb(42, 63, 95); fill-opacity: 1; white-space: pre; opacity: 1;">62</text></g><g class="ytick"><text text-anchor="end" x="142" y="4.199999999999999" style="font-family: 'Open Sans', verdana, arial, sans-serif; font-size: 12px; fill: rgb(42, 63, 95); fill-opacity: 1; white-space: pre; opacity: 1;" transform="translate(0,448.3)">64</text></g><g class="ytick"><text text-anchor="end" x="142" y="4.199999999999999" style="font-family: 'Open Sans', verdana, arial, sans-serif; font-size: 12px; fill: rgb(42, 63, 95); fill-opacity: 1; white-space: pre; opacity: 1;" transform="translate(0,407.26)">66</text></g><g class="ytick"><text text-anchor="end" x="142" y="4.199999999999999" style="font-family: 'Open Sans', verdana, arial, sans-serif; font-size: 12px; fill: rgb(42, 63, 95); fill-opacity: 1; white-space: pre; opacity: 1;" transform="translate(0,366.22)">68</text></g><g class="ytick"><text text-anchor="end" x="142" y="4.199999999999999" style="font-family: 'Open Sans', verdana, arial, sans-serif; font-size: 12px; fill: rgb(42, 63, 95); fill-opacity: 1; white-space: pre; opacity: 1;" transform="translate(0,325.19)">70</text></g><g class="ytick"><text text-anchor="end" x="142" y="4.199999999999999" style="font-family: 'Open Sans', verdana, arial, sans-serif; font-size: 12px; fill: rgb(42, 63, 95); fill-opacity: 1; white-space: pre; opacity: 1;" transform="translate(0,284.15)">72</text></g><g class="ytick"><text text-anchor="end" x="142" y="4.199999999999999" style="font-family: 'Open Sans', verdana, arial, sans-serif; font-size: 12px; fill: rgb(42, 63, 95); fill-opacity: 1; white-space: pre; opacity: 1;" transform="translate(0,243.11)">74</text></g><g class="ytick"><text text-anchor="end" x="142" y="4.199999999999999" style="font-family: 'Open Sans', verdana, arial, sans-serif; font-size: 12px; fill: rgb(42, 63, 95); fill-opacity: 1; white-space: pre; opacity: 1;" transform="translate(0,202.07999999999998)">76</text></g><g class="ytick"><text text-anchor="end" x="142" y="4.199999999999999" style="font-family: 'Open Sans', verdana, arial, sans-serif; font-size: 12px; fill: rgb(42, 63, 95); fill-opacity: 1; white-space: pre; opacity: 1;" transform="translate(0,161.04)">78</text></g><g class="ytick"><text text-anchor="end" x="142" y="4.199999999999999" style="font-family: 'Open Sans', verdana, arial, sans-serif; font-size: 12px; fill: rgb(42, 63, 95); fill-opacity: 1; white-space: pre; opacity: 1;" transform="translate(0,120.01)">80</text></g></g><g class="overaxes-above"/></g></g><g class="polarlayer"/><g class="smithlayer"/><g class="ternarylayer"/><g class="geolayer"/><g class="funnelarealayer"/><g class="pielayer"/><g class="iciclelayer"/><g class="treemaplayer"/><g class="sunburstlayer"/><g class="glimages"/><defs id="topdefs-4b0f5e"><g class="clips"/><clipPath id="legend4b0f5e"><rect width="128" height="162" x="0" y="0"/></clipPath></defs><g class="layer-above"><g class="imagelayer"/><g class="shapelayer"/></g><g class="infolayer"><g class="legend" pointer-events="all" transform="translate(883.52,100)"><rect class="bg" shape-rendering="crispEdges" width="128" height="162" x="0" y="0" style="stroke: rgb(68, 68, 68); stroke-opacity: 1; fill: rgb(255, 255, 255); fill-opacity: 1; stroke-width: 0px;"/><g class="scrollbox" transform="" clip-path="url(#legend4b0f5e)"><g class="groups"><g class="traces" transform="translate(0,14.5)" style="opacity: 1;"><text class="legendtext" text-anchor="start" x="40" y="4.680000000000001" style="font-family: 'Open Sans', verdana, arial, sans-serif; font-size: 12px; fill: rgb(42, 63, 95); fill-opacity: 1; white-space: pre;">Train Accuracy</text><g class="layers" style="opacity: 1;"><g class="legendfill"/><g class="legendlines"><path class="js-line" d="M5,0h30" style="fill: none; stroke: rgb(255, 0, 0); stroke-opacity: 1; stroke-width: 2px;"/></g><g class="legendsymbols"><g class="legendpoints"/></g></g><rect class="legendtoggle" x="0" y="-9.5" width="122.71875" height="19" style="fill: rgb(0, 0, 0); fill-opacity: 0;"/></g><g class="traces" transform="translate(0,33.5)" style="opacity: 1;"><text class="legendtext" text-anchor="start" x="40" y="4.680000000000001" style="font-family: 'Open Sans', verdana, arial, sans-serif; font-size: 12px; fill: rgb(42, 63, 95); fill-opacity: 1; white-space: pre;">Test Accuracy</text><g class="layers" style="opacity: 1;"><g class="legendfill"/><g class="legendlines"><path class="js-line" d="M5,0h30" style="fill: none; stroke: rgb(0, 0, 255); stroke-opacity: 1; stroke-width: 2px;"/></g><g class="legendsymbols"><g class="legendpoints"/></g></g><rect class="legendtoggle" x="0" y="-9.5" width="122.71875" height="19" style="fill: rgb(0, 0, 0); fill-opacity: 0;"/></g><g class="traces" transform="translate(0,52.5)" style="opacity: 1;"><text class="legendtext" text-anchor="start" x="40" y="4.680000000000001" style="font-family: 'Open Sans', verdana, arial, sans-serif; font-size: 12px; fill: rgb(42, 63, 95); fill-opacity: 1; white-space: pre;">Train Precision</text><g class="layers" style="opacity: 1;"><g class="legendfill"/><g class="legendlines"><path class="js-line" d="M5,0h30" style="fill: none; stroke: rgb(0, 128, 0); stroke-opacity: 1; stroke-width: 2px;"/></g><g class="legendsymbols"><g class="legendpoints"/></g></g><rect class="legendtoggle" x="0" y="-9.5" width="122.71875" height="19" style="fill: rgb(0, 0, 0); fill-opacity: 0;"/></g><g class="traces" transform="translate(0,71.5)" style="opacity: 1;"><text class="legendtext" text-anchor="start" x="40" y="4.680000000000001" style="font-family: 'Open Sans', verdana, arial, sans-serif; font-size: 12px; fill: rgb(42, 63, 95); fill-opacity: 1; white-space: pre;">Test Precision</text><g class="layers" style="opacity: 1;"><g class="legendfill"/><g class="legendlines"><path class="js-line" d="M5,0h30" style="fill: none; stroke: rgb(255, 165, 0); stroke-opacity: 1; stroke-width: 2px;"/></g><g class="legendsymbols"><g class="legendpoints"/></g></g><rect class="legendtoggle" x="0" y="-9.5" width="122.71875" height="19" style="fill: rgb(0, 0, 0); fill-opacity: 0;"/></g><g class="traces" transform="translate(0,90.5)" style="opacity: 1;"><text class="legendtext" text-anchor="start" x="40" y="4.680000000000001" style="font-family: 'Open Sans', verdana, arial, sans-serif; font-size: 12px; fill: rgb(42, 63, 95); fill-opacity: 1; white-space: pre;">Train Recall</text><g class="layers" style="opacity: 1;"><g class="legendfill"/><g class="legendlines"><path class="js-line" d="M5,0h30" style="fill: none; stroke: rgb(128, 0, 128); stroke-opacity: 1; stroke-width: 2px;"/></g><g class="legendsymbols"><g class="legendpoints"/></g></g><rect class="legendtoggle" x="0" y="-9.5" width="122.71875" height="19" style="fill: rgb(0, 0, 0); fill-opacity: 0;"/></g><g class="traces" transform="translate(0,109.5)" style="opacity: 1;"><text class="legendtext" text-anchor="start" x="40" y="4.680000000000001" style="font-family: 'Open Sans', verdana, arial, sans-serif; font-size: 12px; fill: rgb(42, 63, 95); fill-opacity: 1; white-space: pre;">Test Recall</text><g class="layers" style="opacity: 1;"><g class="legendfill"/><g class="legendlines"><path class="js-line" d="M5,0h30" style="fill: none; stroke: rgb(255, 192, 203); stroke-opacity: 1; stroke-width: 2px;"/></g><g class="legendsymbols"><g class="legendpoints"/></g></g><rect class="legendtoggle" x="0" y="-9.5" width="122.71875" height="19" style="fill: rgb(0, 0, 0); fill-opacity: 0;"/></g><g class="traces" transform="translate(0,128.5)" style="opacity: 1;"><text class="legendtext" text-anchor="start" x="40" y="4.680000000000001" style="font-family: 'Open Sans', verdana, arial, sans-serif; font-size: 12px; fill: rgb(42, 63, 95); fill-opacity: 1; white-space: pre;">Train F1</text><g class="layers" style="opacity: 1;"><g class="legendfill"/><g class="legendlines"><path class="js-line" d="M5,0h30" style="fill: none; stroke: rgb(165, 42, 42); stroke-opacity: 1; stroke-width: 2px;"/></g><g class="legendsymbols"><g class="legendpoints"/></g></g><rect class="legendtoggle" x="0" y="-9.5" width="122.71875" height="19" style="fill: rgb(0, 0, 0); fill-opacity: 0;"/></g><g class="traces" transform="translate(0,147.5)" style="opacity: 1;"><text class="legendtext" text-anchor="start" x="40" y="4.680000000000001" style="font-family: 'Open Sans', verdana, arial, sans-serif; font-size: 12px; fill: rgb(42, 63, 95); fill-opacity: 1; white-space: pre;">Test F1</text><g class="layers" style="opacity: 1;"><g class="legendfill"/><g class="legendlines"><path class="js-line" d="M5,0h30" style="fill: none; stroke: rgb(128, 128, 128); stroke-opacity: 1; stroke-width: 2px;"/></g><g class="legendsymbols"><g class="legendpoints"/></g></g><rect class="legendtoggle" x="0" y="-9.5" width="122.71875" height="19" style="fill: rgb(0, 0, 0); fill-opacity: 0;"/></g></g></g><rect class="scrollbar" rx="20" ry="3" width="0" height="0" x="0" y="0" style="fill: rgb(128, 139, 164); fill-opacity: 1;"/></g><g class="g-gtitle"><text class="gtitle" x="51.2" y="50" text-anchor="start" dy="0em" style="font-family: 'Open Sans', verdana, arial, sans-serif; font-size: 17px; fill: rgb(42, 63, 95); opacity: 1; font-weight: normal; white-space: pre;">Training Metrics - logs/FakeNewsNet-gossipcop_text_tweet.log</text></g><g class="g-xtitle"><text class="xtitle" x="506" y="537.3" text-anchor="middle" style="font-family: 'Open Sans', verdana, arial, sans-serif; font-size: 14px; fill: rgb(42, 63, 95); opacity: 1; font-weight: normal; white-space: pre;">Epoch</text></g><g class="g-ytitle"><text class="ytitle" transform="rotate(-90,103.965625,298)" x="103.965625" y="298" text-anchor="middle" style="font-family: 'Open Sans', verdana, arial, sans-serif; font-size: 14px; fill: rgb(42, 63, 95); opacity: 1; font-weight: normal; white-space: pre;">Metric Score</text></g></g><g class="menulayer"><g class="updatemenu-container" style="cursor: pointer;"><g class="updatemenu-header-group" transform="translate(12,60)"><g class="updatemenu-header" transform="translate(1,1)" style="pointer-events: all;"><rect class="updatemenu-item-rect" rx="2" ry="2" shape-rendering="crispEdges" x="0" y="0" width="167" height="33" style="stroke: rgb(190, 200, 217); stroke-opacity: 1; fill: rgb(255, 255, 255); fill-opacity: 1; stroke-width: 1px;"/><text class="updatemenu-item-text" text-anchor="start" data-notex="1" x="12" y="19.5" style="font-family: 'Open Sans', verdana, arial, sans-serif; font-size: 12px; fill: rgb(42, 63, 95); fill-opacity: 1; white-space: pre;">All</text></g><text class="updatemenu-header-arrow" text-anchor="end" x="163" y="19.5" style="font-family: 'Open Sans', verdana, arial, sans-serif; font-size: 12px; fill: rgb(42, 63, 95); fill-opacity: 1;">▼</text></g><g class="updatemenu-dropdown-button-group" updatemenu-active-index="-1" style="pointer-events: all;"><rect class="scrollbox-bg" opacity="0" x="0" y="0" width="0" height="0" style="pointer-events: all;"/></g></g></g></svg>