<svg class="main-svg" xmlns="http://www.w3.org/2000/svg" xmlns:xlink="http://www.w3.org/1999/xlink" width="1024" height="576" style="" viewBox="0 0 1024 576"><rect x="0" y="0" width="1024" height="576" style="fill: rgb(255, 255, 255); fill-opacity: 1;"/><defs id="defs-3b5c54"><g class="clips"><clipPath id="clip3b5c54xyplot" class="plotclip"><rect width="734" height="396"/></clipPath><clipPath class="axesclip" id="clip3b5c54x"><rect x="135" y="0" width="734" height="576"/></clipPath><clipPath class="axesclip" id="clip3b5c54y"><rect x="0" y="100" width="1024" height="396"/></clipPath><clipPath class="axesclip" id="clip3b5c54xy"><rect x="135" y="100" width="734" height="396"/></clipPath></g><g class="gradients"/><g class="patterns"/></defs><g class="bglayer"><rect class="bg" x="135" y="100" width="734" height="396" style="fill: rgb(229, 236, 246); fill-opacity: 1; stroke-width: 0;"/></g><g class="layer-below"><g class="imagelayer"/><g class="shapelayer"/></g><g class="cartesianlayer"><g class="subplot xy"><g class="layer-subplot"><g class="shapelayer"/><g class="imagelayer"/></g><g class="minor-gridlayer"><g class="x"/><g class="y"/></g><g class="gridlayer"><g class="x"><path class="xgrid crisp" transform="translate(228.6,0)" d="M0,100v396" style="stroke: rgb(255, 255, 255); stroke-opacity: 1; stroke-width: 1px;"/><path class="xgrid crisp" transform="translate(327.12,0)" d="M0,100v396" style="stroke: rgb(255, 255, 255); stroke-opacity: 1; stroke-width: 1px;"/><path class="xgrid crisp" transform="translate(425.64,0)" d="M0,100v396" style="stroke: rgb(255, 255, 255); stroke-opacity: 1; stroke-width: 1px;"/><path class="xgrid crisp" transform="translate(524.1700000000001,0)" d="M0,100v396" style="stroke: rgb(255, 255, 255); stroke-opacity: 1; stroke-width: 1px;"/><path class="xgrid crisp" transform="translate(622.69,0)" d="M0,100v396" style="stroke: rgb(255, 255, 255); stroke-opacity: 1; stroke-width: 1px;"/><path class="xgrid crisp" transform="translate(721.21,0)" d="M0,100v396" style="stroke: rgb(255, 255, 255); stroke-opacity: 1; stroke-width: 1px;"/><path class="xgrid crisp" transform="translate(819.74,0)" d="M0,100v396" style="stroke: rgb(255, 255, 255); stroke-opacity: 1; stroke-width: 1px;"/></g><g class="y"><path class="ygrid crisp" transform="translate(0,439.23)" d="M135,0h734" style="stroke: rgb(255, 255, 255); stroke-opacity: 1; stroke-width: 1px;"/><path class="ygrid crisp" transform="translate(0,346.8)" d="M135,0h734" style="stroke: rgb(255, 255, 255); stroke-opacity: 1; stroke-width: 1px;"/><path class="ygrid crisp" transform="translate(0,254.37)" d="M135,0h734" style="stroke: rgb(255, 255, 255); stroke-opacity: 1; stroke-width: 1px;"/><path class="ygrid crisp" transform="translate(0,161.95)" d="M135,0h734" style="stroke: rgb(255, 255, 255); stroke-opacity: 1; stroke-width: 1px;"/></g></g><g class="zerolinelayer"/><path class="xlines-below"/><path class="ylines-below"/><g class="overlines-below"/><g class="xaxislayer-below"/><g class="yaxislayer-below"/><g class="overaxes-below"/><g class="plot" transform="translate(135,100)" clip-path="url(#clip3b5c54xyplot)"><g class="scatterlayer mlayer"><g class="trace scatter trace511e6b" style="stroke-miterlimit: 2; opacity: 1;"><g class="fills"/><g class="errorbars"/><g class="lines"><path class="js-line" d="M0,253.46L4.93,109.64L9.85,99.1L14.78,82.65L19.7,92.08L24.63,76.74L29.56,25.53L34.48,27.93L39.41,25.53L44.34,22.2L49.26,26.09L54.19,22.39L59.11,19.8L64.04,132.75L68.97,144.02L73.89,146.61L78.82,152.34L83.74,143.84L88.67,144.39L93.6,143.65L98.52,138.11L103.45,144.21L108.38,140.88L113.3,135.33L118.23,141.62L123.15,140.51L128.08,145.13L133.01,141.8L137.93,150.49L142.86,140.88L147.79,143.47L152.71,144.02L157.64,145.5L162.56,142.91L167.49,141.8L172.42,141.25L177.34,138.48L182.27,135.15L187.19,138.66L192.12,141.06L197.05,148.83L201.97,144.39L206.9,145.32L211.83,142.54L216.75,140.88L221.68,140.33L226.6,137.74L231.53,133.86L236.46,144.21L241.38,146.61L246.31,141.43L251.23,148.46L256.16,131.08L261.09,127.94L266.01,134.23L275.87,144.02L280.79,139.22L285.72,139.59L290.64,141.8L295.57,142.73L300.5,140.7L305.42,132.93L310.35,139.59L315.28,133.67L320.2,137.92L325.13,133.67L330.05,145.32L334.98,147.35L339.91,156.41L344.83,145.69L349.76,147.35L359.61,137.55L364.54,134.41L369.46,146.24L374.39,149.01L379.32,148.09L384.24,144.39L389.17,141.8L394.09,144.02L399.02,141.62L403.95,141.62L408.87,147.35L413.8,151.05L418.72,140.51L423.65,148.46L428.58,141.25L433.5,145.32L438.43,136.63L443.36,145.69L448.28,141.62L453.21,140.7L458.13,147.9L463.06,144.76L467.99,144.39L472.91,133.49L477.84,133.86L482.77,139.59L487.69,144.95L492.62,139.03L497.54,134.78L502.47,142.17L507.4,144.58L512.32,149.75L517.25,147.72L522.17,154.56L527.1,146.24L532.03,148.83L536.95,155.67L541.88,148.46L546.81,140.7L551.73,148.46L556.66,154L561.58,151.6L566.51,144.95L571.44,150.86L576.36,166.39L581.29,158.63L586.21,156.41L591.14,160.29L596.07,172.12L600.99,152.34L605.92,149.57L610.85,152.71L615.77,149.75L620.7,141.06L625.62,138.48L630.55,137.74L635.48,142.73L640.4,143.28L645.33,144.39L650.26,139.77L655.18,134.78L660.11,141.25L665.03,152.34L669.96,149.94L674.89,154.19L679.81,154.93L684.74,146.8L689.66,150.49L694.59,143.65L699.52,141.06L704.44,143.28L709.37,147.16L714.3,147.72L719.22,159.74L724.15,148.46L729.07,139.96L734,138.85" style="vector-effect: none; fill: none; stroke: rgb(255, 0, 0); stroke-opacity: 1; stroke-width: 2px; opacity: 1;"/></g><g class="points"/><g class="text"/></g><g class="trace scatter trace3f022a" style="stroke-miterlimit: 2; opacity: 1;"><g class="fills"/><g class="errorbars"/><g class="lines"><path class="js-line" d="M0,265.84L4.93,110.56L9.85,99.66L14.78,81.73L19.7,90.97L24.63,78.4L29.56,24.61L34.48,27.01L39.41,27.38L44.34,26.64L49.26,31.26L54.19,27.38L59.11,24.61L64.04,161.03L68.97,169.9L73.89,178.59L78.82,181.92L83.74,171.01L88.67,179.51L93.6,168.98L98.52,179.88L103.45,176L108.38,180.62L113.3,172.31L118.23,180.62L123.15,176L128.08,180.62L133.01,173.6L137.93,185.61L142.86,173.97L147.79,178.22L152.71,180.62L157.64,181.18L167.49,171.01L172.42,170.27L177.34,165.65L182.27,170.64L187.19,173.97L192.12,167.68L197.05,178.22L201.97,174.89L206.9,176L211.83,173.23L216.75,169.9L221.68,170.27L226.6,171.01L231.53,172.67L236.46,174.89L241.38,185.25L246.31,176.93L251.23,181.18L256.16,165.65L261.09,166.02L266.01,167.31L270.94,174.34L275.87,183.21L280.79,174.34L285.72,171.57L290.64,173.23L295.57,177.3L300.5,170.27L305.42,156.96L310.35,171.94L315.28,166.39L320.2,166.02L325.13,158.07L330.05,176L339.91,194.86L344.83,176.93L349.76,181.55L354.68,177.3L359.61,173.23L364.54,175.26L369.46,181.55L374.39,178.96L379.32,180.25L384.24,176.93L389.17,177.67L394.09,179.51L399.02,173.6L403.95,174.34L408.87,176.93L413.8,188.2L418.72,173.6L423.65,181.18L428.58,173.23L433.5,184.88L438.43,175.63L443.36,180.62L453.21,174.34L458.13,179.51L463.06,173.6L467.99,176L472.91,168.61L477.84,163.06L482.77,180.62L487.69,184.51L492.62,166.02L497.54,167.68L502.47,173.23L507.4,186.17L512.32,185.61L517.25,186.54L522.17,192.82L527.1,183.58L532.03,188.94L536.95,191.53L541.88,182.29L546.81,181.55L551.73,184.51L556.66,190.61L561.58,187.28L566.51,179.51L576.36,194.86L581.29,184.51L586.21,183.95L591.14,191.16L596.07,198.55L600.99,184.88L605.92,178.59L610.85,183.95L620.7,178.22L625.62,178.59L635.48,177.67L640.4,178.59L645.33,184.51L650.26,178.96L660.11,178.96L665.03,185.25L669.96,191.16L674.89,198.55L679.81,195.23L684.74,192.82L689.66,194.12L694.59,183.58L699.52,178.22L704.44,182.29L714.3,184.88L719.22,197.82L724.15,183.58L729.07,175.26L734,173.23" style="vector-effect: none; fill: none; stroke: rgb(0, 0, 255); stroke-opacity: 1; stroke-width: 2px; opacity: 1;"/></g><g class="points"/><g class="text"/></g><g class="trace scatter tracecad8a6" style="stroke-miterlimit: 2; opacity: 1;"><g class="fills"/><g class="errorbars"/><g class="lines"><path class="js-line" d="M0,373.61L4.93,276.01L9.85,258.45L14.78,232.75L19.7,246.25L24.63,223.33L29.56,46.42L34.48,62.87L39.41,56.22L44.34,62.13L49.26,91.89L59.11,88.75L64.04,275.64L68.97,283.4L73.89,284.33L78.82,286.55L83.74,283.22L88.67,281.92L93.6,283.59L98.52,278.78L103.45,282.48L108.38,279.34L113.3,274.53L118.23,277.67L123.15,275.45L128.08,280.81L133.01,276.75L137.93,283.77L142.86,277.12L147.79,278.97L152.71,277.67L157.64,278.97L162.56,276.75L172.42,276.75L177.34,274.53L182.27,273.42L187.19,274.9L197.05,280.45L201.97,278.97L206.9,280.63L211.83,276.01L221.68,275.64L226.6,273.79L231.53,270.09L236.46,278.78L241.38,279.34L246.31,276.93L251.23,280.81L256.16,268.8L261.09,266.77L266.01,270.65L270.94,274.9L275.87,278.04L280.79,274.71L285.72,274.71L290.64,274.35L295.57,276.56L300.5,275.82L305.42,269.17L310.35,273.05L315.28,269.35L320.2,274.71L325.13,272.13L330.05,276.75L334.98,277.67L339.91,284.7L344.83,278.04L349.76,277.67L354.68,275.27L359.61,271.57L364.54,270.83L369.46,278.6L374.39,280.45L379.32,279.89L384.24,276.75L389.17,275.64L394.09,276.19L399.02,275.64L403.95,276.01L413.8,283.77L418.72,274.71L423.65,280.45L428.58,276.19L433.5,277.86L438.43,274.16L443.36,280.08L448.28,277.49L453.21,275.27L458.13,282.29L463.06,279.34L467.99,279.34L472.91,271.39L477.84,271.57L487.69,279.34L492.62,275.27L497.54,270.09L502.47,277.67L507.4,276.38L512.32,280.81L517.25,278.97L522.17,283.22L527.1,278.6L532.03,280.08L536.95,283.59L541.88,280.08L546.81,276.01L551.73,282.66L556.66,284.7L561.58,282.48L566.51,279.34L571.44,283.77L576.36,293.02L581.29,288.95L586.21,286.73L591.14,287.1L596.07,295.97L600.99,281.37L605.92,281.37L610.85,282.48L615.77,280.26L620.7,274.71L625.62,271.57L630.55,271.57L635.48,274.71L640.4,276.56L645.33,277.86L650.26,274.53L655.18,270.83L660.11,276.93L665.03,283.77L669.96,280.63L674.89,283.4L679.81,283.4L684.74,280.63L689.66,282.29L694.59,278.6L699.52,276.38L704.44,276.75L709.37,280.45L714.3,280.26L719.22,288.21L724.15,282.66L729.07,275.27L734,274.9" style="vector-effect: none; fill: none; stroke: rgb(0, 128, 0); stroke-opacity: 1; stroke-width: 2px; opacity: 1;"/></g><g class="points"/><g class="text"/></g><g class="trace scatter trace25d554" style="stroke-miterlimit: 2; opacity: 1;"><g class="fills"/><g class="errorbars"/><g class="lines"><path class="js-line" d="M0,376.2L4.93,276.01L9.85,257.71L14.78,229.98L19.7,243.66L24.63,224.62L29.56,40.69L34.48,60.47L39.41,67.31L44.34,81.73L49.26,109.08L54.19,104.83L59.11,103.54L64.04,300.96L68.97,305.96L73.89,313.9L78.82,311.32L83.74,305.77L88.67,309.28L93.6,302.81L98.52,317.23L103.45,310.58L108.38,313.53L113.3,307.99L118.23,311.69L123.15,304.85L128.08,310.21L133.01,306.32L137.93,314.64L142.86,307.8L147.79,310.95L152.71,312.24L157.64,308.17L162.56,305.59L167.49,300.78L172.42,302.26L177.34,299.67L182.27,305.22L187.19,308.17L192.12,301.89L197.05,306.32L201.97,304.66L206.9,305.77L211.83,301.7L216.75,301.89L221.68,301.89L226.6,304.85L236.46,305.96L241.38,312.79L246.31,307.8L251.23,310.95L256.16,302.63L261.09,304.29L266.01,301.89L270.94,308.54L275.87,313.16L280.79,307.8L285.72,304.29L290.64,304.11L295.57,309.1L300.5,302.81L305.42,292.09L310.35,303.55L315.28,301.33L320.2,302.26L325.13,295.79L330.05,304.48L334.98,312.98L339.91,317.6L344.83,306.14L349.76,308.54L354.68,305.59L359.61,304.11L364.54,310.95L369.46,310.95L374.39,307.62L379.32,309.65L384.24,306.14L389.17,307.62L394.09,307.99L399.02,305.22L403.95,306.69L408.87,306.69L413.8,315.75L418.72,303.92L423.65,308.91L428.58,305.77L433.5,312.24L438.43,311.32L448.28,310.76L453.21,305.96L458.13,310.02L463.06,305.22L467.99,306.88L472.91,303.74L477.84,298.56L482.77,311.13L487.69,313.9L492.62,299.3L497.54,300.96L502.47,305.22L507.4,310.95L512.32,312.06L517.25,313.35L522.17,317.05L527.1,314.09L532.03,315.01L536.95,313.53L541.88,309.65L546.81,313.16L551.73,314.64L556.66,316.12L561.58,313.72L566.51,310.02L571.44,314.64L576.36,316.68L581.29,311.69L591.14,312.06L596.07,316.86L600.99,308.91L605.92,307.43L610.85,311.32L615.77,309.28L625.62,306.88L630.55,309.1L635.48,307.99L640.4,310.21L645.33,315.75L650.26,311.32L655.18,312.98L660.11,311.87L665.03,310.58L669.96,315.75L674.89,320.19L679.81,317.05L684.74,320L689.66,320L694.59,314.09L699.52,310.39L704.44,312.24L709.37,312.61L714.3,312.61L719.22,320.74L724.15,314.64L729.07,307.25L734,308.17" style="vector-effect: none; fill: none; stroke: rgb(255, 165, 0); stroke-opacity: 1; stroke-width: 2px; opacity: 1;"/></g><g class="points"/><g class="text"/></g><g class="trace scatter trace7bc168" style="stroke-miterlimit: 2; opacity: 1;"><g class="fills"/><g class="errorbars"/><g class="lines"><path class="js-line" d="M0,312.79L4.93,325L9.85,306.32L14.78,291.72L19.7,284.33L24.63,276.38L29.56,330.36L39.41,325L44.34,310.58L54.19,287.65L59.11,280.08L64.04,234.97L68.97,234.6L73.89,232.38L78.82,229.06L83.74,234.23L88.67,230.16L93.6,235.71L98.52,232.57L103.45,231.83L108.38,229.24L118.23,223.69L123.15,219.63L128.08,225.91L133.01,220.74L137.93,225.17L142.86,223.33L147.79,223.69L152.71,219.81L157.64,220.74L162.56,218.89L172.42,221.85L177.34,220.55L182.27,223.88L187.19,221.48L192.12,224.43L197.05,219.63L206.9,225.17L211.83,217.78L216.75,219.81L221.68,220.37L226.6,220.37L231.53,217.41L236.46,222.22L241.38,220L246.31,222.03L251.23,220.74L256.16,219.26L261.09,220L266.01,218.33L270.94,221.11L285.72,219.07L290.64,215.19L295.57,218.7L300.5,220.18L305.42,216.49L310.35,215.19L315.28,215.75L320.2,222.22L325.13,223.33L330.05,215.19L334.98,214.82L339.91,219.07L344.83,217.96L349.76,214.82L359.61,214.82L364.54,218.52L379.32,218.89L384.24,217.04L389.17,217.78L394.09,216.12L399.02,218.7L403.95,219.81L408.87,221.11L413.8,224.06L418.72,217.96L423.65,219.63L428.58,220.55L433.5,217.96L438.43,223.33L443.36,223.14L448.28,223.14L453.21,219.07L458.13,225.17L463.06,222.77L467.99,223.51L472.91,221.48L482.77,220.18L487.69,222.59L492.62,221.85L497.54,215.93L502.47,222.59L507.4,215.19L512.32,218.89L517.25,217.41L527.1,218.89L532.03,218.52L536.95,217.22L541.88,218.89L546.81,220.74L551.73,225.17L561.58,220L566.51,222.59L571.44,224.43L576.36,225.36L581.29,226.1L586.21,223.69L591.14,219.81L596.07,225.54L600.99,216.49L605.92,220.55L610.85,218.52L615.77,217.78L620.7,216.86L625.62,213.16L630.55,214.08L635.48,214.08L640.4,218.33L645.33,219.63L655.18,217.41L660.11,222.4L665.03,222.22L669.96,218.15L674.89,218.89L679.81,217.78L684.74,222.96L689.66,221.48L694.59,222.96L699.52,221.11L704.44,218.7L709.37,221.85L714.3,220.37L719.22,222.77L724.15,225.36L729.07,220.18L734,220.74" style="vector-effect: none; fill: none; stroke: rgb(128, 0, 128); stroke-opacity: 1; stroke-width: 2px; opacity: 1;"/></g><g class="points"/><g class="text"/></g><g class="trace scatter trace4c037a" style="stroke-miterlimit: 2; opacity: 1;"><g class="fills"/><g class="errorbars"/><g class="lines"><path class="js-line" d="M0,311.32L4.93,324.81L9.85,301.7L19.7,285.44L24.63,280.08L29.56,328.51L34.48,324.26L39.41,320.93L44.34,307.43L59.11,278.23L64.04,252.35L68.97,252.16L73.89,259.19L78.82,249.57L83.74,250.13L93.6,245.69L98.52,264.73L103.45,254.57L108.38,255.86L113.3,253.27L118.23,251.61L123.15,242.18L128.08,248.65L133.01,248.1L137.93,252.53L142.86,250.87L147.79,252.9L152.71,252.9L157.64,243.66L162.56,242.92L167.49,238.85L172.42,243.1L177.34,242.92L182.27,249.2L187.19,251.98L192.12,245.51L197.05,242.92L206.9,243.84L211.83,238.48L216.75,242.73L221.68,242.37L226.6,247.73L231.53,247.54L236.46,246.06L241.38,249.39L246.31,247.36L251.23,249.57L256.16,250.13L261.09,253.27L266.01,245.88L270.94,252.35L275.87,252.16L280.79,250.5L285.72,246.25L290.64,243.84L295.57,250.13L300.5,244.21L305.42,237.19L310.35,244.03L320.2,248.47L325.13,244.58L330.05,240.89L334.98,248.65L339.91,249.76L344.83,243.84L349.76,244.03L354.68,242.37L359.61,243.84L364.54,256.41L369.46,249.2L374.39,244.58L379.32,247.91L384.24,243.84L389.17,246.25L394.09,244.95L399.02,245.88L403.95,248.1L408.87,245.14L413.8,252.53L418.72,242.92L423.65,245.51L433.5,248.47L438.43,256.6L443.36,249.94L448.28,253.64L453.21,246.43L458.13,249.57L463.06,245.88L467.99,246.25L472.91,248.47L477.84,243.66L482.77,250.5L487.69,252.35L492.62,241.44L497.54,243.1L502.47,246.06L507.4,244.58L512.32,247.36L517.25,249.02L522.17,250.68L527.1,253.64L532.03,250.13L536.95,244.58L541.88,245.69L546.81,254.01L551.73,254.2L556.66,250.5L561.58,249.02L566.51,249.57L571.44,251.98L576.36,248.1L586.21,247.91L591.14,242L596.07,245.14L600.99,241.44L605.92,244.95L610.85,247.36L615.77,246.06L620.7,246.99L625.62,243.84L630.55,248.84L635.48,246.8L640.4,250.87L645.33,256.41L650.26,252.9L655.18,256.41L660.11,254.2L665.03,244.58L669.96,249.76L674.89,251.61L679.81,248.28L684.74,256.6L689.66,255.67L699.52,251.79L704.44,251.05L709.37,250.68L714.3,249.02L719.22,253.46L724.15,254.75L729.07,248.1L734,252.72" style="vector-effect: none; fill: none; stroke: rgb(255, 192, 203); stroke-opacity: 1; stroke-width: 2px; opacity: 1;"/></g><g class="points"/><g class="text"/></g><g class="trace scatter trace8164e3" style="stroke-miterlimit: 2; opacity: 1;"><g class="fills"/><g class="errorbars"/><g class="lines"><path class="js-line" d="M0,364.74L4.93,306.32L9.85,287.47L14.78,269.35L19.7,268.43L24.63,255.3L29.56,279.52L34.48,277.49L39.41,273.98L44.34,258.45L49.26,249.76L54.19,237.74L59.11,230.16L64.04,259.93L68.97,266.21L73.89,266.58L78.82,268.06L88.67,264.18L93.6,266.58L98.52,261.77L103.45,264.92L108.38,261.77L113.3,256.97L118.23,259.37L123.15,256.6L128.08,262.51L133.01,258.08L137.93,265.29L142.86,258.63L147.79,260.48L152.71,258.82L157.64,260.11L162.56,257.71L172.42,258.26L177.34,255.86L182.27,255.67L187.19,256.41L192.12,259.37L197.05,261.41L201.97,260.3L206.9,262.33L211.83,256.97L216.75,256.97L221.68,256.97L226.6,255.3L231.53,251.61L236.46,260.11L241.38,260.48L246.31,258.45L251.23,261.77L256.16,250.87L261.09,249.39L266.01,252.35L270.94,256.41L275.87,259.19L280.79,256.23L285.72,255.86L290.64,255.12L295.57,257.52L300.5,256.97L305.42,250.68L310.35,254.01L315.28,250.68L320.2,256.41L325.13,254.38L330.05,257.34L334.98,258.45L339.91,265.66L344.83,258.82L349.76,258.45L354.68,255.86L359.61,252.53L364.54,252.53L369.46,259.56L374.39,261.22L379.32,260.67L384.24,257.71L389.17,256.6L394.09,256.97L403.95,257.34L408.87,261.41L413.8,264.92L418.72,255.86L423.65,261.41L428.58,257.52L433.5,258.63L438.43,256.23L443.36,261.41L448.28,259L453.21,256.41L458.13,263.62L463.06,260.67L467.99,260.85L472.91,253.46L477.84,253.46L482.77,256.41L487.69,260.67L492.62,256.78L497.54,251.42L502.47,259L507.4,256.97L512.32,261.59L517.25,259.74L522.17,264.18L527.1,259.56L532.03,261.04L536.95,264.55L546.81,257.34L551.73,263.99L556.66,265.84L561.58,263.44L566.51,260.67L571.44,265.1L576.36,274.71L581.29,270.46L586.21,267.88L591.14,268.43L596.07,278.04L600.99,262.14L610.85,263.44L615.77,261.22L620.7,255.67L625.62,252.35L630.55,252.35L635.48,255.3L645.33,259L650.26,255.67L655.18,252.16L660.11,258.45L665.03,264.92L669.96,261.59L674.89,264.36L679.81,264.36L684.74,261.96L689.66,263.25L699.52,257.71L704.44,257.89L709.37,261.59L714.3,261.22L719.22,269.54L724.15,263.99L729.07,256.6L734,256.23" style="vector-effect: none; fill: none; stroke: rgb(165, 42, 42); stroke-opacity: 1; stroke-width: 2px; opacity: 1;"/></g><g class="points"/><g class="text"/></g><g class="trace scatter trace64f94a" style="stroke-miterlimit: 2; opacity: 1;"><g class="fills"/><g class="errorbars"/><g class="lines"><path class="js-line" d="M0,370.1L4.93,306.32L9.85,284.14L14.78,269.35L19.7,268.24L24.63,258.45L29.56,277.12L39.41,270.65L44.34,257.34L49.26,250.13L54.19,240.15L59.11,230.72L64.04,284.33L68.97,289.13L73.89,297.64L78.82,294.68L83.74,288.76L88.67,292.46L93.6,285.44L98.52,301.15L103.45,293.75L108.38,297.08L113.3,291.17L118.23,294.86L123.15,287.65L128.08,293.57L133.01,289.32L137.93,298.19L142.86,290.8L147.79,294.12L152.71,295.6L157.64,291.35L162.56,288.39L167.49,283.22L172.42,284.88L177.34,282.11L182.27,288.21L187.19,291.35L192.12,284.7L197.05,289.32L201.97,287.47L206.9,288.58L211.83,284.14L221.68,284.51L226.6,287.65L236.46,288.95L241.38,296.34L246.31,290.8L251.23,294.12L256.16,285.81L261.09,287.65L266.01,284.51L270.94,291.72L275.87,296.53L280.79,290.8L285.72,287.1L290.64,286.73L295.57,292.28L300.5,285.44L305.42,274.35L310.35,286.36L315.28,284.14L320.2,285.25L325.13,278.78L330.05,287.1L334.98,296.53L339.91,302.07L344.83,288.95L349.76,291.72L354.68,288.58L359.61,286.73L364.54,294.31L369.46,294.31L374.39,290.61L379.32,292.83L384.24,288.95L389.17,290.61L394.09,290.98L399.02,288.02L403.95,289.69L408.87,289.5L413.8,299.49L418.72,286.55L423.65,292.09L428.58,288.58L433.5,295.79L438.43,294.68L448.28,294.12L453.21,288.76L458.13,293.2L463.06,288.02L467.99,289.69L472.91,286.55L477.84,281.18L482.77,294.31L487.69,297.45L492.62,281.74L497.54,283.4L502.47,288.02L507.4,294.49L512.32,295.6L517.25,296.9L522.17,301.33L527.1,297.45L532.03,298.75L536.95,297.64L541.88,293.02L546.81,296.53L551.73,298.19L556.66,300.04L561.58,297.45L566.51,293.2L571.44,298.38L576.36,301.15L581.29,295.05L586.21,295.05L591.14,296.16L596.07,301.89L600.99,292.28L605.92,290.43L610.85,294.68L615.77,292.46L620.7,291.35L625.62,289.87L630.55,292.09L635.48,290.98L640.4,293.39L645.33,299.49L650.26,294.68L655.18,296.34L660.11,295.23L665.03,294.12L669.96,299.85L674.89,305.03L679.81,301.52L684.74,304.11L689.66,304.29L694.59,297.45L699.52,293.57L704.44,295.6L709.37,295.97L714.3,295.97L719.22,305.4L729.07,290.06L734,291.17" style="vector-effect: none; fill: none; stroke: rgb(128, 128, 128); stroke-opacity: 1; stroke-width: 2px; opacity: 1;"/></g><g class="points"/><g class="text"/></g></g></g><g class="overplot"/><path class="xlines-above crisp" d="M0,0" style="fill: none;"/><path class="ylines-above crisp" d="M0,0" style="fill: none;"/><g class="overlines-above"/><g class="xaxislayer-above"><g class="xtick"><text text-anchor="middle" x="0" y="509" transform="translate(228.6,0)" style="font-family: 'Open Sans', verdana, arial, sans-serif; font-size: 12px; fill: rgb(42, 63, 95); fill-opacity: 1; white-space: pre; opacity: 1;">20</text></g><g class="xtick"><text text-anchor="middle" x="0" y="509" style="font-family: 'Open Sans', verdana, arial, sans-serif; font-size: 12px; fill: rgb(42, 63, 95); fill-opacity: 1; white-space: pre; opacity: 1;" transform="translate(327.12,0)">40</text></g><g class="xtick"><text text-anchor="middle" x="0" y="509" style="font-family: 'Open Sans', verdana, arial, sans-serif; font-size: 12px; fill: rgb(42, 63, 95); fill-opacity: 1; white-space: pre; opacity: 1;" transform="translate(425.64,0)">60</text></g><g class="xtick"><text text-anchor="middle" x="0" y="509" style="font-family: 'Open Sans', verdana, arial, sans-serif; font-size: 12px; fill: rgb(42, 63, 95); fill-opacity: 1; white-space: pre; opacity: 1;" transform="translate(524.1700000000001,0)">80</text></g><g class="xtick"><text text-anchor="middle" x="0" y="509" style="font-family: 'Open Sans', verdana, arial, sans-serif; font-size: 12px; fill: rgb(42, 63, 95); fill-opacity: 1; white-space: pre; opacity: 1;" transform="translate(622.69,0)">100</text></g><g class="xtick"><text text-anchor="middle" x="0" y="509" style="font-family: 'Open Sans', verdana, arial, sans-serif; font-size: 12px; fill: rgb(42, 63, 95); fill-opacity: 1; white-space: pre; opacity: 1;" transform="translate(721.21,0)">120</text></g><g class="xtick"><text text-anchor="middle" x="0" y="509" style="font-family: 'Open Sans', verdana, arial, sans-serif; font-size: 12px; fill: rgb(42, 63, 95); fill-opacity: 1; white-space: pre; opacity: 1;" transform="translate(819.74,0)">140</text></g></g><g class="yaxislayer-above"><g class="ytick"><text text-anchor="end" x="134" y="4.199999999999999" transform="translate(0,439.23)" style="font-family: 'Open Sans', verdana, arial, sans-serif; font-size: 12px; fill: rgb(42, 63, 95); fill-opacity: 1; white-space: pre; opacity: 1;">65</text></g><g class="ytick"><text text-anchor="end" x="134" y="4.199999999999999" style="font-family: 'Open Sans', verdana, arial, sans-serif; font-size: 12px; fill: rgb(42, 63, 95); fill-opacity: 1; white-space: pre; opacity: 1;" transform="translate(0,346.8)">70</text></g><g class="ytick"><text text-anchor="end" x="134" y="4.199999999999999" style="font-family: 'Open Sans', verdana, arial, sans-serif; font-size: 12px; fill: rgb(42, 63, 95); fill-opacity: 1; white-space: pre; opacity: 1;" transform="translate(0,254.37)">75</text></g><g class="ytick"><text text-anchor="end" x="134" y="4.199999999999999" style="font-family: 'Open Sans', verdana, arial, sans-serif; font-size: 12px; fill: rgb(42, 63, 95); fill-opacity: 1; white-space: pre; opacity: 1;" transform="translate(0,161.95)">80</text></g></g><g class="overaxes-above"/></g></g><g class="polarlayer"/><g class="smithlayer"/><g class="ternarylayer"/><g class="geolayer"/><g class="funnelarealayer"/><g class="pielayer"/><g class="iciclelayer"/><g class="treemaplayer"/><g class="sunburstlayer"/><g class="glimages"/><defs id="topdefs-3b5c54"><g class="clips"/><clipPath id="legend3b5c54"><rect width="128" height="162" x="0" y="0"/></clipPath></defs><g class="layer-above"><g class="imagelayer"/><g class="shapelayer"/></g><g class="infolayer"><g class="legend" pointer-events="all" transform="translate(883.6800000000001,100)"><rect class="bg" shape-rendering="crispEdges" width="128" height="162" x="0" y="0" style="stroke: rgb(68, 68, 68); stroke-opacity: 1; fill: rgb(255, 255, 255); fill-opacity: 1; stroke-width: 0px;"/><g class="scrollbox" transform="" clip-path="url(#legend3b5c54)"><g class="groups"><g class="traces" transform="translate(0,14.5)" style="opacity: 1;"><text class="legendtext" text-anchor="start" x="40" y="4.680000000000001" style="font-family: 'Open Sans', verdana, arial, sans-serif; font-size: 12px; fill: rgb(42, 63, 95); fill-opacity: 1; white-space: pre;">Train Accuracy</text><g class="layers" style="opacity: 1;"><g class="legendfill"/><g class="legendlines"><path class="js-line" d="M5,0h30" style="fill: none; stroke: rgb(255, 0, 0); stroke-opacity: 1; stroke-width: 2px;"/></g><g class="legendsymbols"><g class="legendpoints"/></g></g><rect class="legendtoggle" x="0" y="-9.5" width="122.71875" height="19" style="fill: rgb(0, 0, 0); fill-opacity: 0;"/></g><g class="traces" transform="translate(0,33.5)" style="opacity: 1;"><text class="legendtext" text-anchor="start" x="40" y="4.680000000000001" style="font-family: 'Open Sans', verdana, arial, sans-serif; font-size: 12px; fill: rgb(42, 63, 95); fill-opacity: 1; white-space: pre;">Test Accuracy</text><g class="layers" style="opacity: 1;"><g class="legendfill"/><g class="legendlines"><path class="js-line" d="M5,0h30" style="fill: none; stroke: rgb(0, 0, 255); stroke-opacity: 1; stroke-width: 2px;"/></g><g class="legendsymbols"><g class="legendpoints"/></g></g><rect class="legendtoggle" x="0" y="-9.5" width="122.71875" height="19" style="fill: rgb(0, 0, 0); fill-opacity: 0;"/></g><g class="traces" transform="translate(0,52.5)" style="opacity: 1;"><text class="legendtext" text-anchor="start" x="40" y="4.680000000000001" style="font-family: 'Open Sans', verdana, arial, sans-serif; font-size: 12px; fill: rgb(42, 63, 95); fill-opacity: 1; white-space: pre;">Train Precision</text><g class="layers" style="opacity: 1;"><g class="legendfill"/><g class="legendlines"><path class="js-line" d="M5,0h30" style="fill: none; stroke: rgb(0, 128, 0); stroke-opacity: 1; stroke-width: 2px;"/></g><g class="legendsymbols"><g class="legendpoints"/></g></g><rect class="legendtoggle" x="0" y="-9.5" width="122.71875" height="19" style="fill: rgb(0, 0, 0); fill-opacity: 0;"/></g><g class="traces" transform="translate(0,71.5)" style="opacity: 1;"><text class="legendtext" text-anchor="start" x="40" y="4.680000000000001" style="font-family: 'Open Sans', verdana, arial, sans-serif; font-size: 12px; fill: rgb(42, 63, 95); fill-opacity: 1; white-space: pre;">Test Precision</text><g class="layers" style="opacity: 1;"><g class="legendfill"/><g class="legendlines"><path class="js-line" d="M5,0h30" style="fill: none; stroke: rgb(255, 165, 0); stroke-opacity: 1; stroke-width: 2px;"/></g><g class="legendsymbols"><g class="legendpoints"/></g></g><rect class="legendtoggle" x="0" y="-9.5" width="122.71875" height="19" style="fill: rgb(0, 0, 0); fill-opacity: 0;"/></g><g class="traces" transform="translate(0,90.5)" style="opacity: 1;"><text class="legendtext" text-anchor="start" x="40" y="4.680000000000001" style="font-family: 'Open Sans', verdana, arial, sans-serif; font-size: 12px; fill: rgb(42, 63, 95); fill-opacity: 1; white-space: pre;">Train Recall</text><g class="layers" style="opacity: 1;"><g class="legendfill"/><g class="legendlines"><path class="js-line" d="M5,0h30" style="fill: none; stroke: rgb(128, 0, 128); stroke-opacity: 1; stroke-width: 2px;"/></g><g class="legendsymbols"><g class="legendpoints"/></g></g><rect class="legendtoggle" x="0" y="-9.5" width="122.71875" height="19" style="fill: rgb(0, 0, 0); fill-opacity: 0;"/></g><g class="traces" transform="translate(0,109.5)" style="opacity: 1;"><text class="legendtext" text-anchor="start" x="40" y="4.680000000000001" style="font-family: 'Open Sans', verdana, arial, sans-serif; font-size: 12px; fill: rgb(42, 63, 95); fill-opacity: 1; white-space: pre;">Test Recall</text><g class="layers" style="opacity: 1;"><g class="legendfill"/><g class="legendlines"><path class="js-line" d="M5,0h30" style="fill: none; stroke: rgb(255, 192, 203); stroke-opacity: 1; stroke-width: 2px;"/></g><g class="legendsymbols"><g class="legendpoints"/></g></g><rect class="legendtoggle" x="0" y="-9.5" width="122.71875" height="19" style="fill: rgb(0, 0, 0); fill-opacity: 0;"/></g><g class="traces" transform="translate(0,128.5)" style="opacity: 1;"><text class="legendtext" text-anchor="start" x="40" y="4.680000000000001" style="font-family: 'Open Sans', verdana, arial, sans-serif; font-size: 12px; fill: rgb(42, 63, 95); fill-opacity: 1; white-space: pre;">Train F1</text><g class="layers" style="opacity: 1;"><g class="legendfill"/><g class="legendlines"><path class="js-line" d="M5,0h30" style="fill: none; stroke: rgb(165, 42, 42); stroke-opacity: 1; stroke-width: 2px;"/></g><g class="legendsymbols"><g class="legendpoints"/></g></g><rect class="legendtoggle" x="0" y="-9.5" width="122.71875" height="19" style="fill: rgb(0, 0, 0); fill-opacity: 0;"/></g><g class="traces" transform="translate(0,147.5)" style="opacity: 1;"><text class="legendtext" text-anchor="start" x="40" y="4.680000000000001" style="font-family: 'Open Sans', verdana, arial, sans-serif; font-size: 12px; fill: rgb(42, 63, 95); fill-opacity: 1; white-space: pre;">Test F1</text><g class="layers" style="opacity: 1;"><g class="legendfill"/><g class="legendlines"><path class="js-line" d="M5,0h30" style="fill: none; stroke: rgb(128, 128, 128); stroke-opacity: 1; stroke-width: 2px;"/></g><g class="legendsymbols"><g class="legendpoints"/></g></g><rect class="legendtoggle" x="0" y="-9.5" width="122.71875" height="19" style="fill: rgb(0, 0, 0); fill-opacity: 0;"/></g></g></g><rect class="scrollbar" rx="20" ry="3" width="0" height="0" x="0" y="0" style="fill: rgb(128, 139, 164); fill-opacity: 1;"/></g><g class="g-gtitle"><text class="gtitle" x="51.2" y="50" text-anchor="start" dy="0em" style="font-family: 'Open Sans', verdana, arial, sans-serif; font-size: 17px; fill: rgb(42, 63, 95); opacity: 1; font-weight: normal; white-space: pre;">Training Metrics - logs/FakeNewsNet-gossipcop_max-vocab=10000_pre=v1_domain_T=200_s=15.log</text></g><g class="g-xtitle"><text class="xtitle" x="502" y="537.3" text-anchor="middle" style="font-family: 'Open Sans', verdana, arial, sans-serif; font-size: 14px; fill: rgb(42, 63, 95); opacity: 1; font-weight: normal; white-space: pre;">Epoch</text></g><g class="g-ytitle"><text class="ytitle" transform="rotate(-90,95.965625,298)" x="95.965625" y="298" text-anchor="middle" style="font-family: 'Open Sans', verdana, arial, sans-serif; font-size: 14px; fill: rgb(42, 63, 95); opacity: 1; font-weight: normal; white-space: pre;">Metric Score</text></g></g><g class="menulayer"><g class="updatemenu-container" style="cursor: pointer;"><g class="updatemenu-header-group" transform="translate(12,60)"><g class="updatemenu-header" transform="translate(1,1)" style="pointer-events: all;"><rect class="updatemenu-item-rect" rx="2" ry="2" shape-rendering="crispEdges" x="0" y="0" width="160" height="33" style="stroke: rgb(190, 200, 217); stroke-opacity: 1; fill: rgb(255, 255, 255); fill-opacity: 1; stroke-width: 1px;"/><text class="updatemenu-item-text" text-anchor="start" data-notex="1" x="12" y="19.5" style="font-family: 'Open Sans', verdana, arial, sans-serif; font-size: 12px; fill: rgb(42, 63, 95); fill-opacity: 1; white-space: pre;">All</text></g><text class="updatemenu-header-arrow" text-anchor="end" x="156" y="19.5" style="font-family: 'Open Sans', verdana, arial, sans-serif; font-size: 12px; fill: rgb(42, 63, 95); fill-opacity: 1;">▼</text></g><g class="updatemenu-dropdown-button-group" updatemenu-active-index="-1" style="pointer-events: all;"><rect class="scrollbox-bg" opacity="0" x="0" y="0" width="0" height="0" style="pointer-events: all;"/></g></g></g></svg>