<svg class="main-svg" xmlns="http://www.w3.org/2000/svg" xmlns:xlink="http://www.w3.org/1999/xlink" width="1024" height="576" style="" viewBox="0 0 1024 576"><rect x="0" y="0" width="1024" height="576" style="fill: rgb(255, 255, 255); fill-opacity: 1;"/><defs id="defs-b95e3b"><g class="clips"><clipPath id="clipb95e3bxyplot" class="plotclip"><rect width="720" height="396"/></clipPath><clipPath class="axesclip" id="clipb95e3bx"><rect x="150" y="0" width="720" height="576"/></clipPath><clipPath class="axesclip" id="clipb95e3by"><rect x="0" y="100" width="1024" height="396"/></clipPath><clipPath class="axesclip" id="clipb95e3bxy"><rect x="150" y="100" width="720" height="396"/></clipPath></g><g class="gradients"/><g class="patterns"/></defs><g class="bglayer"><rect class="bg" x="150" y="100" width="720" height="396" style="fill: rgb(229, 236, 246); fill-opacity: 1; stroke-width: 0;"/></g><g class="layer-below"><g class="imagelayer"/><g class="shapelayer"/></g><g class="cartesianlayer"><g class="subplot xy"><g class="layer-subplot"><g class="shapelayer"/><g class="imagelayer"/></g><g class="minor-gridlayer"><g class="x"/><g class="y"/></g><g class="gridlayer"><g class="x"><path class="xgrid crisp" transform="translate(241.81,0)" d="M0,100v396" style="stroke: rgb(255, 255, 255); stroke-opacity: 1; stroke-width: 1px;"/><path class="xgrid crisp" transform="translate(338.46000000000004,0)" d="M0,100v396" style="stroke: rgb(255, 255, 255); stroke-opacity: 1; stroke-width: 1px;"/><path class="xgrid crisp" transform="translate(435.1,0)" d="M0,100v396" style="stroke: rgb(255, 255, 255); stroke-opacity: 1; stroke-width: 1px;"/><path class="xgrid crisp" transform="translate(531.74,0)" d="M0,100v396" style="stroke: rgb(255, 255, 255); stroke-opacity: 1; stroke-width: 1px;"/><path class="xgrid crisp" transform="translate(628.39,0)" d="M0,100v396" style="stroke: rgb(255, 255, 255); stroke-opacity: 1; stroke-width: 1px;"/><path class="xgrid crisp" transform="translate(725.03,0)" d="M0,100v396" style="stroke: rgb(255, 255, 255); stroke-opacity: 1; stroke-width: 1px;"/><path class="xgrid crisp" transform="translate(821.68,0)" d="M0,100v396" style="stroke: rgb(255, 255, 255); stroke-opacity: 1; stroke-width: 1px;"/></g><g class="y"><path class="ygrid crisp" transform="translate(0,450.24)" d="M150,0h720" style="stroke: rgb(255, 255, 255); stroke-opacity: 1; stroke-width: 1px;"/><path class="ygrid crisp" transform="translate(0,403.03)" d="M150,0h720" style="stroke: rgb(255, 255, 255); stroke-opacity: 1; stroke-width: 1px;"/><path class="ygrid crisp" transform="translate(0,355.83000000000004)" d="M150,0h720" style="stroke: rgb(255, 255, 255); stroke-opacity: 1; stroke-width: 1px;"/><path class="ygrid crisp" transform="translate(0,308.62)" d="M150,0h720" style="stroke: rgb(255, 255, 255); stroke-opacity: 1; stroke-width: 1px;"/><path class="ygrid crisp" transform="translate(0,261.41999999999996)" d="M150,0h720" style="stroke: rgb(255, 255, 255); stroke-opacity: 1; stroke-width: 1px;"/><path class="ygrid crisp" transform="translate(0,214.20999999999998)" d="M150,0h720" style="stroke: rgb(255, 255, 255); stroke-opacity: 1; stroke-width: 1px;"/><path class="ygrid crisp" transform="translate(0,167.01)" d="M150,0h720" style="stroke: rgb(255, 255, 255); stroke-opacity: 1; stroke-width: 1px;"/><path class="ygrid crisp" transform="translate(0,119.8)" d="M150,0h720" style="stroke: rgb(255, 255, 255); stroke-opacity: 1; stroke-width: 1px;"/></g></g><g class="zerolinelayer"/><path class="xlines-below"/><path class="ylines-below"/><g class="overlines-below"/><g class="xaxislayer-below"/><g class="yaxislayer-below"/><g class="overaxes-below"/><g class="plot" transform="translate(150,100)" clip-path="url(#clipb95e3bxyplot)"><g class="scatterlayer mlayer"><g class="trace scatter trace4afe1c" style="stroke-miterlimit: 2; opacity: 1;"><g class="fills"/><g class="errorbars"/><g class="lines"><path class="js-line" d="M0,260.55L4.83,258.19L9.66,115.39L14.5,115.39L19.33,107.13L24.16,91.79L28.99,85.89L33.83,78.81L38.66,82.35L43.49,85.89L48.32,75.27L62.82,52.84L67.65,50.48L72.48,55.2L77.32,55.2L82.15,62.28L86.98,62.28L91.81,63.46L96.64,56.38L101.48,55.2L106.31,51.66L111.14,45.76L115.97,44.58L120.81,38.68L125.64,38.68L130.47,36.32L135.3,32.78L140.13,32.78L144.97,30.42L149.8,31.6L154.63,28.06L159.46,31.6L164.3,37.5L169.13,33.96L173.96,32.78L178.79,29.24L183.62,33.96L188.46,30.42L193.29,32.78L198.12,33.96L202.95,32.78L212.62,30.42L217.45,32.78L222.28,30.42L227.11,36.32L231.95,32.78L236.78,35.14L241.61,31.6L246.44,31.6L251.28,30.42L256.11,35.14L275.44,30.42L280.27,30.42L285.1,33.96L289.93,29.24L294.77,32.78L299.6,29.24L304.43,29.24L309.26,24.52L314.09,23.34L318.93,24.52L323.76,24.52L328.59,23.34L333.42,22.16L338.26,19.8L343.09,19.8L347.92,20.98L352.75,20.98L357.58,23.34L362.42,24.52L367.25,23.34L372.08,19.8L376.91,19.8L381.74,19.8L386.58,22.16L391.41,23.34L396.24,23.34L401.07,19.8L405.91,19.8L410.74,20.98L415.57,19.8L430.07,19.8L434.9,20.98L439.73,20.98L444.56,22.16L454.23,19.8L459.06,22.16L468.72,19.8L473.56,20.98L478.39,19.8L483.22,20.98L488.05,19.8L492.89,19.8L497.72,19.8L502.55,20.98L507.38,20.98L512.21,19.8L517.05,20.98L521.88,20.98L536.38,20.98L541.21,19.8L546.04,20.98L550.87,20.98L555.7,19.8L560.54,19.8L575.03,19.8L579.87,20.98L584.7,19.8L589.53,23.34L594.36,22.16L599.19,22.16L604.03,19.8L608.86,19.8L666.85,19.8L671.68,22.16L676.51,20.98L681.34,22.16L686.17,23.34L691.01,19.8L695.84,20.98L700.67,20.98L705.5,20.98L710.34,19.8L720,19.8" style="vector-effect: none; fill: none; stroke: rgb(255, 0, 0); stroke-opacity: 1; stroke-width: 2px; opacity: 1;"/></g><g class="points"/><g class="text"/></g><g class="trace scatter trace48ab50" style="stroke-miterlimit: 2; opacity: 1;"><g class="fills"/><g class="errorbars"/><g class="lines"><path class="js-line" d="M0,236.94L4.83,236.94L9.66,203.9L14.5,199.18L19.33,185.02L24.16,180.3L28.99,161.42L33.83,151.97L38.66,147.25L43.49,156.7L48.32,156.7L53.15,170.86L57.99,161.42L67.65,151.97L72.48,142.53L77.32,166.14L82.15,170.86L86.98,166.14L91.81,147.25L96.64,142.53L101.48,151.97L106.31,161.42L111.14,151.97L115.97,142.53L120.81,147.25L125.64,156.7L130.47,151.97L135.3,151.97L140.13,142.53L144.97,147.25L149.8,142.53L154.63,142.53L159.46,147.25L164.3,151.97L169.13,147.25L173.96,156.7L178.79,147.25L183.62,156.7L188.46,147.25L207.79,147.25L212.62,142.53L217.45,147.25L222.28,137.81L227.11,142.53L231.95,142.53L236.78,142.53L241.61,147.25L246.44,147.25L251.28,137.81L256.11,156.7L260.94,156.7L265.77,147.25L270.6,147.25L275.44,151.97L280.27,147.25L285.1,161.42L289.93,142.53L294.77,147.25L299.6,147.25L304.43,151.97L309.26,147.25L314.09,147.25L318.93,151.97L323.76,151.97L328.59,142.53L333.42,156.7L338.26,156.7L343.09,156.7L347.92,151.97L352.75,156.7L357.58,151.97L362.42,161.42L367.25,161.42L372.08,166.14L376.91,147.25L381.74,151.97L386.58,147.25L391.41,156.7L396.24,161.42L401.07,151.97L405.91,161.42L410.74,161.42L415.57,156.7L420.4,166.14L425.23,166.14L430.07,170.86L434.9,161.42L439.73,151.97L444.56,151.97L454.23,151.97L459.06,147.25L463.89,156.7L468.72,156.7L473.56,166.14L478.39,151.97L483.22,151.97L488.05,147.25L492.89,156.7L497.72,151.97L502.55,156.7L507.38,156.7L517.05,147.25L521.88,151.97L526.71,147.25L531.54,156.7L536.38,166.14L541.21,151.97L546.04,161.42L550.87,161.42L555.7,147.25L560.54,151.97L565.37,161.42L570.2,151.97L575.03,156.7L579.87,151.97L584.7,151.97L589.53,161.42L594.36,151.97L599.19,147.25L604.03,151.97L608.86,151.97L613.69,166.14L618.52,156.7L623.36,161.42L628.19,156.7L633.02,147.25L637.85,151.97L642.68,161.42L647.52,161.42L657.18,151.97L662.01,151.97L666.85,147.25L671.68,156.7L676.51,161.42L681.34,156.7L686.17,156.7L691.01,161.42L695.84,151.97L700.67,151.97L705.5,151.97L710.34,147.25L715.17,156.7L720,161.42" style="vector-effect: none; fill: none; stroke: rgb(0, 0, 255); stroke-opacity: 1; stroke-width: 2px; opacity: 1;"/></g><g class="points"/><g class="text"/></g><g class="trace scatter trace650794" style="stroke-miterlimit: 2; opacity: 1;"><g class="fills"/><g class="errorbars"/><g class="lines"><path class="js-line" d="M0,376.2L4.83,139.61L9.66,106.14L14.5,99.39L19.33,94.95L24.16,86.27L28.99,80.65L33.83,77.63L38.66,82.25L43.49,82.82L48.32,75.27L57.99,61.1L62.82,51.62L67.65,50.53L72.48,55.2L77.32,55.2L82.15,55.96L86.98,61.86L91.81,63.13L96.64,56.38L101.48,54.68L106.31,51.29L111.14,45.24L115.97,44.35L120.81,38.63L125.64,38.16L130.47,36.32L135.3,32.78L140.13,32.78L144.97,30.37L149.8,31.55L154.63,28.06L159.46,31.55L164.3,37.41L169.13,33.77L173.96,32.78L178.79,29.05L183.62,33.91L188.46,30.42L193.29,32.78L198.12,33.77L212.62,30.37L217.45,32.64L222.28,30.42L227.11,36.13L231.95,32.36L236.78,34.72L241.61,31.55L246.44,31.65L251.28,30.37L256.11,34.91L275.44,30.19L280.27,30.19L285.1,33.4L289.93,29.05L294.77,32.55L299.6,29.05L304.43,29.05L309.26,24.52L314.09,23.34L318.93,24.57L323.76,24.52L328.59,23.34L333.42,22.11L338.26,19.8L343.09,19.8L347.92,20.98L352.75,20.98L357.58,23.34L362.42,24.52L367.25,23.34L372.08,19.8L376.91,19.8L381.74,19.8L386.58,22.21L391.41,23.34L396.24,23.34L401.07,19.8L405.91,19.8L410.74,20.98L415.57,19.8L430.07,19.8L434.9,20.98L439.73,20.98L444.56,22.21L454.23,19.8L459.06,22.21L468.72,19.8L473.56,20.98L478.39,19.8L483.22,20.98L488.05,19.8L492.89,19.8L497.72,19.8L502.55,20.98L507.38,20.98L512.21,19.8L517.05,20.93L521.88,20.93L536.38,20.93L541.21,19.8L546.04,20.93L550.87,20.93L555.7,19.8L560.54,19.8L575.03,19.8L579.87,20.98L584.7,19.8L589.53,23.34L594.36,22.21L599.19,22.21L604.03,19.8L608.86,19.8L666.85,19.8L671.68,22.21L676.51,20.98L681.34,22.21L686.17,23.34L691.01,19.8L695.84,20.98L700.67,20.98L705.5,20.98L710.34,19.8L720,19.8" style="vector-effect: none; fill: none; stroke: rgb(0, 128, 0); stroke-opacity: 1; stroke-width: 2px; opacity: 1;"/></g><g class="points"/><g class="text"/></g><g class="trace scatter trace48826b" style="stroke-miterlimit: 2; opacity: 1;"><g class="fills"/><g class="errorbars"/><g class="lines"><path class="js-line" d="M0,364.4L4.83,364.4L9.66,196.91L14.5,191.63L19.33,171.8L24.16,175.2L28.99,159.1L33.83,152.78L38.66,148.01L43.49,156.03L48.32,157.59L53.15,171.47L57.99,161.42L62.82,156.27L67.65,152.54L72.48,143.34L77.32,166.94L82.15,167.32L86.98,166.94L91.81,148.06L96.64,143.19L106.31,162.03L111.14,151.6L115.97,143.34L120.81,148.01L125.64,156.88L130.47,151.97L135.3,151.97L140.13,143.34L144.97,148.06L149.8,143.19L154.63,143.19L159.46,147.77L164.3,152.35L169.13,147.11L173.96,157.4L178.79,147.11L183.62,157.45L188.46,148.06L202.95,147.58L207.79,148.06L212.62,142.68L217.45,147.11L222.28,138.14L227.11,142.68L231.95,141.73L236.78,141.73L241.61,147.11L246.44,147.11L251.28,138.14L256.11,156.03L260.94,156.03L265.77,147.11L270.6,147.11L275.44,151.6L280.27,146.07L285.1,159.1L289.93,141.73L294.77,146.07L299.6,146.07L304.43,150.42L309.26,146.07L314.09,146.07L318.93,151.6L323.76,151.6L328.59,141.73L333.42,157.4L338.26,156.03L343.09,156.88L347.92,150.42L352.75,156.03L357.58,151.6L362.42,160.47L367.25,160.47L372.08,167.03L376.91,147.77L381.74,152.82L386.58,147.11L391.41,156.03L396.24,161.42L401.07,152.82L405.91,162.31L410.74,161.42L415.57,157.45L420.4,166.94L425.23,166.47L430.07,171.85L439.73,152.35L444.56,151.6L449.4,151.6L454.23,152.82L459.06,147.11L463.89,157.4L468.72,156.88L473.56,167.03L478.39,152.35L483.22,152.78L488.05,147.77L492.89,157.4L497.72,152.35L502.55,156.88L507.38,156.88L512.21,152.35L517.05,147.77L521.88,152.35L526.71,147.77L531.54,157.03L536.38,166.47L541.21,152.78L546.04,162.03L550.87,162.31L555.7,147.11L560.54,152.35L565.37,162.31L570.2,152.78L575.03,157.45L579.87,152.78L584.7,152.78L589.53,162.03L594.36,152.78L599.19,147.77L604.03,152.82L608.86,152.82L613.69,166.47L618.52,157.45L623.36,162.31L628.19,157.45L633.02,148.06L637.85,152.54L642.68,162.03L647.52,162.03L657.18,152.82L662.01,152.82L666.85,147.77L671.68,156.88L676.51,162.03L681.34,156.88L686.17,156.88L691.01,162.03L695.84,152.35L700.67,152.35L705.5,151.6L710.34,147.11L715.17,157.4L720,162.31" style="vector-effect: none; fill: none; stroke: rgb(255, 165, 0); stroke-opacity: 1; stroke-width: 2px; opacity: 1;"/></g><g class="points"/><g class="text"/></g><g class="trace scatter trace276acb" style="stroke-miterlimit: 2; opacity: 1;"><g class="fills"/><g class="errorbars"/><g class="lines"><path class="js-line" d="M0,255.83L4.83,253.51L9.66,116.57L14.5,113.88L19.33,108.45L24.16,92.64L28.99,85.08L33.83,78.38L38.66,82.21L43.49,85.27L48.32,75.22L57.99,61.15L62.82,53.17L67.65,50.44L72.48,55.11L77.32,55.2L82.15,63.09L86.98,62.47L91.81,63.65L96.64,56.43L101.48,54.92L106.31,51.85L111.14,45.48L115.97,44.72L120.81,38.73L125.64,38.4L130.47,36.32L135.3,32.78L140.13,32.78L144.97,30.33L149.8,31.65L154.63,28.01L159.46,31.46L164.3,37.6L169.13,33.77L173.96,32.83L178.79,29.05L183.62,34.01L188.46,30.42L193.29,32.78L198.12,34.06L212.62,30.33L217.45,32.64L222.28,30.47L227.11,36.13L231.95,32.55L236.78,34.91L241.61,31.46L246.44,31.55L251.28,30.33L256.11,34.95L275.44,30.23L280.27,30.23L285.1,33.68L289.93,29.05L294.77,32.59L299.6,29.05L304.43,29.05L309.26,24.43L314.09,23.29L318.93,24.47L323.76,24.43L328.59,23.34L333.42,22.21L338.26,19.8L343.09,19.8L347.92,20.98L352.75,20.98L357.58,23.29L362.42,24.43L367.25,23.29L372.08,19.8L376.91,19.8L381.74,19.8L386.58,22.11L391.41,23.29L396.24,23.29L401.07,19.8L405.91,19.8L410.74,20.98L415.57,19.8L430.07,19.8L434.9,20.98L439.73,20.98L444.56,22.11L454.23,19.8L459.06,22.11L468.72,19.8L473.56,20.98L478.39,19.8L483.22,20.98L488.05,19.8L492.89,19.8L497.72,19.8L502.55,20.98L507.38,20.98L512.21,19.8L517.05,21.03L521.88,21.03L536.38,21.03L541.21,19.8L546.04,21.03L550.87,21.03L555.7,19.8L560.54,19.8L575.03,19.8L579.87,20.98L584.7,19.8L589.53,23.29L594.36,22.11L599.19,22.11L604.03,19.8L608.86,19.8L666.85,19.8L671.68,22.11L676.51,20.98L681.34,22.11L686.17,23.29L691.01,19.8L695.84,20.98L700.67,20.98L705.5,20.98L710.34,19.8L720,19.8" style="vector-effect: none; fill: none; stroke: rgb(128, 0, 128); stroke-opacity: 1; stroke-width: 2px; opacity: 1;"/></g><g class="points"/><g class="text"/></g><g class="trace scatter tracef0aade" style="stroke-miterlimit: 2; opacity: 1;"><g class="fills"/><g class="errorbars"/><g class="lines"><path class="js-line" d="M0,255.83L4.83,255.83L9.66,199.37L14.5,208.72L19.33,178.88L24.16,176.76L28.99,166.14L33.83,153.58L38.66,147.68L43.49,160.24L48.32,157.97L53.15,171.09L57.99,160.8L62.82,155.66L67.65,152.07L72.48,143.34L77.32,166.7L82.15,168.02L86.98,166.7L91.81,148.43L96.64,144.09L101.48,154.34L106.31,161.56L111.14,155.09L115.97,143.34L120.81,147.68L125.64,159.48L130.47,151.31L135.3,151.31L140.13,143.34L144.97,148.43L149.8,144.09L154.63,144.09L164.3,154.34L169.13,149.99L173.96,158.73L178.79,149.99L183.62,157.21L188.46,148.43L193.29,149.24L198.12,148.43L202.95,146.92L207.79,148.43L212.62,144.85L217.45,149.99L222.28,137.44L227.11,144.85L236.78,145.6L241.61,149.99L246.44,149.99L251.28,139.7L256.11,160.24L260.94,160.24L265.77,149.99L270.6,149.99L275.44,155.09L280.27,150.75L285.1,166.14L289.93,145.6L294.77,150.75L299.6,150.75L304.43,155.85L309.26,150.75L314.09,150.75L318.93,155.09L323.76,155.09L328.59,145.6L333.42,158.73L338.26,160.24L343.09,159.48L347.92,155.85L352.75,160.24L357.58,155.09L362.42,165.38L367.25,165.38L372.08,168.21L376.91,149.24L381.74,152.82L386.58,149.99L391.41,160.24L396.24,164.63L401.07,152.82L405.91,162.31L410.74,164.63L415.57,157.21L420.4,166.7L425.23,165.95L430.07,171.85L434.9,163.07L439.73,154.34L444.56,155.09L449.4,155.09L454.23,152.82L459.06,149.99L463.89,158.73L468.72,159.48L473.56,168.21L478.39,154.34L483.22,153.58L488.05,149.24L492.89,158.73L497.72,154.34L502.55,159.48L507.38,159.48L512.21,154.34L517.05,149.24L521.88,154.34L526.71,149.24L531.54,156.46L536.38,165.95L541.21,153.58L546.04,161.56L550.87,162.31L555.7,149.99L560.54,154.34L565.37,163.07L570.2,153.58L575.03,157.21L579.87,153.58L584.7,153.58L589.53,163.87L594.36,153.58L599.19,149.24L604.03,152.82L608.86,152.82L613.69,165.95L618.52,157.21L623.36,162.31L628.19,157.21L633.02,148.43L637.85,152.07L642.68,163.87L647.52,163.87L652.35,157.21L657.18,152.82L662.01,152.82L666.85,149.24L671.68,159.48L676.51,163.87L681.34,159.48L686.17,159.48L691.01,163.87L695.84,154.34L705.5,155.09L710.34,149.99L715.17,158.73L720,163.07" style="vector-effect: none; fill: none; stroke: rgb(255, 192, 203); stroke-opacity: 1; stroke-width: 2px; opacity: 1;"/></g><g class="points"/><g class="text"/></g><g class="trace scatter trace9fc195" style="stroke-miterlimit: 2; opacity: 1;"><g class="fills"/><g class="errorbars"/><g class="lines"><path class="js-line" d="M0,336.59L4.83,331.5L9.66,117.37L14.5,117.37L19.33,109.3L24.16,92.64L28.99,86.22L33.83,78.85L38.66,82.35L43.49,86.08L48.32,75.27L62.82,52.94L67.65,50.48L72.48,55.2L77.32,55.2L82.15,62.76L86.98,62.33L91.81,63.51L96.64,56.38L101.48,55.2L106.31,51.71L111.14,45.76L115.97,44.63L120.81,38.68L125.64,38.68L130.47,36.32L135.3,32.78L140.13,32.78L144.97,30.42L149.8,31.6L154.63,28.06L159.46,31.6L164.3,37.5L169.13,33.96L173.96,32.78L178.79,29.24L183.62,33.96L188.46,30.42L193.29,32.78L198.12,33.96L202.95,32.78L212.62,30.42L217.45,32.78L222.28,30.42L227.11,36.32L231.95,32.78L236.78,35.14L241.61,31.6L246.44,31.6L251.28,30.42L256.11,35.14L275.44,30.42L280.27,30.42L285.1,33.96L289.93,29.24L294.77,32.78L299.6,29.24L304.43,29.24L309.26,24.52L314.09,23.34L318.93,24.52L323.76,24.52L328.59,23.34L333.42,22.16L338.26,19.8L343.09,19.8L347.92,20.98L352.75,20.98L357.58,23.34L362.42,24.52L367.25,23.34L372.08,19.8L376.91,19.8L381.74,19.8L386.58,22.16L391.41,23.34L396.24,23.34L401.07,19.8L405.91,19.8L410.74,20.98L415.57,19.8L430.07,19.8L434.9,20.98L439.73,20.98L444.56,22.16L454.23,19.8L459.06,22.16L468.72,19.8L473.56,20.98L478.39,19.8L483.22,20.98L488.05,19.8L492.89,19.8L497.72,19.8L502.55,20.98L507.38,20.98L512.21,19.8L517.05,20.98L521.88,20.98L536.38,20.98L541.21,19.8L546.04,20.98L550.87,20.98L555.7,19.8L560.54,19.8L575.03,19.8L579.87,20.98L584.7,19.8L589.53,23.34L594.36,22.16L599.19,22.16L604.03,19.8L608.86,19.8L666.85,19.8L671.68,22.16L676.51,20.98L681.34,22.16L686.17,23.34L691.01,19.8L695.84,20.98L700.67,20.98L705.5,20.98L710.34,19.8L720,19.8" style="vector-effect: none; fill: none; stroke: rgb(165, 42, 42); stroke-opacity: 1; stroke-width: 2px; opacity: 1;"/></g><g class="points"/><g class="text"/></g><g class="trace scatter trace79abd4" style="stroke-miterlimit: 2; opacity: 1;"><g class="fills"/><g class="errorbars"/><g class="lines"><path class="js-line" d="M0,326.35L4.83,326.35L9.66,204.8L14.5,216.93L19.33,187.05L24.16,180.53L28.99,166.14L33.83,153.3L38.66,147.87L43.49,159.86L48.32,157.83L53.15,171.42L57.99,161.65L67.65,152.45L72.48,143.34L77.32,166.84L82.15,170.9L86.98,166.84L91.81,148.29L96.64,143.76L101.48,153.91L106.31,161.94L111.14,154.62L115.97,143.34L120.81,147.87L125.64,159.06L130.47,152.16L135.3,152.16L140.13,143.34L144.97,148.29L149.8,143.76L154.63,143.76L159.46,148.81L164.3,153.91L169.13,149.43L173.96,158.39L178.79,149.43L183.62,157.36L188.46,148.29L193.29,148.81L198.12,148.29L202.95,147.58L207.79,148.29L212.62,144.33L217.45,149.43L222.28,138.1L227.11,144.33L236.78,144.99L241.61,149.43L246.44,149.43L251.28,139.28L256.11,159.86L260.94,159.86L265.77,149.43L270.6,149.43L275.44,154.62L280.27,150.18L285.1,166.14L289.93,144.99L294.77,150.18L299.6,150.18L304.43,155.47L309.26,150.18L314.09,150.18L318.93,154.62L323.76,154.62L328.59,144.99L333.42,158.39L338.26,159.86L343.09,159.06L347.92,155.47L352.75,159.86L357.58,154.62L362.42,165.15L367.25,165.15L372.08,167.93L376.91,148.81L381.74,152.82L386.58,149.43L391.41,159.86L396.24,164.25L401.07,152.82L405.91,162.31L410.74,164.25L415.57,157.36L420.4,166.84L425.23,166.51L430.07,171.85L434.9,162.83L439.73,153.91L444.56,154.62L449.4,154.62L454.23,152.82L459.06,149.43L463.89,158.39L468.72,159.06L473.56,167.93L478.39,153.91L483.22,153.3L488.05,148.81L492.89,158.39L497.72,153.91L502.55,159.06L507.38,159.06L512.21,153.91L517.05,148.81L521.88,153.91L526.71,148.81L531.54,157.03L536.38,166.51L541.21,153.3L546.04,161.94L550.87,162.31L555.7,149.43L560.54,153.91L565.37,162.83L570.2,153.3L575.03,157.36L579.87,153.3L584.7,153.3L589.53,163.49L594.36,153.3L599.19,148.81L604.03,152.82L608.86,152.82L613.69,166.51L618.52,157.36L623.36,162.31L628.19,157.36L633.02,148.29L637.85,152.45L642.68,163.49L647.52,163.49L652.35,157.36L657.18,152.82L662.01,152.82L666.85,148.81L671.68,159.06L676.51,163.49L681.34,159.06L686.17,159.06L691.01,163.49L695.84,153.91L705.5,154.62L710.34,149.43L715.17,158.39L720,162.83" style="vector-effect: none; fill: none; stroke: rgb(128, 128, 128); stroke-opacity: 1; stroke-width: 2px; opacity: 1;"/></g><g class="points"/><g class="text"/></g></g></g><g class="overplot"/><path class="xlines-above crisp" d="M0,0" style="fill: none;"/><path class="ylines-above crisp" d="M0,0" style="fill: none;"/><g class="overlines-above"/><g class="xaxislayer-above"><g class="xtick"><text text-anchor="middle" x="0" y="509" transform="translate(241.81,0)" style="font-family: 'Open Sans', verdana, arial, sans-serif; font-size: 12px; fill: rgb(42, 63, 95); fill-opacity: 1; white-space: pre; opacity: 1;">20</text></g><g class="xtick"><text text-anchor="middle" x="0" y="509" style="font-family: 'Open Sans', verdana, arial, sans-serif; font-size: 12px; fill: rgb(42, 63, 95); fill-opacity: 1; white-space: pre; opacity: 1;" transform="translate(338.46000000000004,0)">40</text></g><g class="xtick"><text text-anchor="middle" x="0" y="509" style="font-family: 'Open Sans', verdana, arial, sans-serif; font-size: 12px; fill: rgb(42, 63, 95); fill-opacity: 1; white-space: pre; opacity: 1;" transform="translate(435.1,0)">60</text></g><g class="xtick"><text text-anchor="middle" x="0" y="509" style="font-family: 'Open Sans', verdana, arial, sans-serif; font-size: 12px; fill: rgb(42, 63, 95); fill-opacity: 1; white-space: pre; opacity: 1;" transform="translate(531.74,0)">80</text></g><g class="xtick"><text text-anchor="middle" x="0" y="509" style="font-family: 'Open Sans', verdana, arial, sans-serif; font-size: 12px; fill: rgb(42, 63, 95); fill-opacity: 1; white-space: pre; opacity: 1;" transform="translate(628.39,0)">100</text></g><g class="xtick"><text text-anchor="middle" x="0" y="509" style="font-family: 'Open Sans', verdana, arial, sans-serif; font-size: 12px; fill: rgb(42, 63, 95); fill-opacity: 1; white-space: pre; opacity: 1;" transform="translate(725.03,0)">120</text></g><g class="xtick"><text text-anchor="middle" x="0" y="509" style="font-family: 'Open Sans', verdana, arial, sans-serif; font-size: 12px; fill: rgb(42, 63, 95); fill-opacity: 1; white-space: pre; opacity: 1;" transform="translate(821.68,0)">140</text></g></g><g class="yaxislayer-above"><g class="ytick"><text text-anchor="end" x="149" y="4.199999999999999" transform="translate(0,450.24)" style="font-family: 'Open Sans', verdana, arial, sans-serif; font-size: 12px; fill: rgb(42, 63, 95); fill-opacity: 1; white-space: pre; opacity: 1;">30</text></g><g class="ytick"><text text-anchor="end" x="149" y="4.199999999999999" style="font-family: 'Open Sans', verdana, arial, sans-serif; font-size: 12px; fill: rgb(42, 63, 95); fill-opacity: 1; white-space: pre; opacity: 1;" transform="translate(0,403.03)">40</text></g><g class="ytick"><text text-anchor="end" x="149" y="4.199999999999999" style="font-family: 'Open Sans', verdana, arial, sans-serif; font-size: 12px; fill: rgb(42, 63, 95); fill-opacity: 1; white-space: pre; opacity: 1;" transform="translate(0,355.83000000000004)">50</text></g><g class="ytick"><text text-anchor="end" x="149" y="4.199999999999999" style="font-family: 'Open Sans', verdana, arial, sans-serif; font-size: 12px; fill: rgb(42, 63, 95); fill-opacity: 1; white-space: pre; opacity: 1;" transform="translate(0,308.62)">60</text></g><g class="ytick"><text text-anchor="end" x="149" y="4.199999999999999" style="font-family: 'Open Sans', verdana, arial, sans-serif; font-size: 12px; fill: rgb(42, 63, 95); fill-opacity: 1; white-space: pre; opacity: 1;" transform="translate(0,261.41999999999996)">70</text></g><g class="ytick"><text text-anchor="end" x="149" y="4.199999999999999" style="font-family: 'Open Sans', verdana, arial, sans-serif; font-size: 12px; fill: rgb(42, 63, 95); fill-opacity: 1; white-space: pre; opacity: 1;" transform="translate(0,214.20999999999998)">80</text></g><g class="ytick"><text text-anchor="end" x="149" y="4.199999999999999" style="font-family: 'Open Sans', verdana, arial, sans-serif; font-size: 12px; fill: rgb(42, 63, 95); fill-opacity: 1; white-space: pre; opacity: 1;" transform="translate(0,167.01)">90</text></g><g class="ytick"><text text-anchor="end" x="149" y="4.199999999999999" style="font-family: 'Open Sans', verdana, arial, sans-serif; font-size: 12px; fill: rgb(42, 63, 95); fill-opacity: 1; white-space: pre; opacity: 1;" transform="translate(0,119.8)">100</text></g></g><g class="overaxes-above"/></g></g><g class="polarlayer"/><g class="smithlayer"/><g class="ternarylayer"/><g class="geolayer"/><g class="funnelarealayer"/><g class="pielayer"/><g class="iciclelayer"/><g class="treemaplayer"/><g class="sunburstlayer"/><g class="glimages"/><defs id="topdefs-b95e3b"><g class="clips"/><clipPath id="legendb95e3b"><rect width="128" height="162" x="0" y="0"/></clipPath></defs><g class="layer-above"><g class="imagelayer"/><g class="shapelayer"/></g><g class="infolayer"><g class="legend" pointer-events="all" transform="translate(884.4,100)"><rect class="bg" shape-rendering="crispEdges" width="128" height="162" x="0" y="0" style="stroke: rgb(68, 68, 68); stroke-opacity: 1; fill: rgb(255, 255, 255); fill-opacity: 1; stroke-width: 0px;"/><g class="scrollbox" transform="" clip-path="url(#legendb95e3b)"><g class="groups"><g class="traces" transform="translate(0,14.5)" style="opacity: 1;"><text class="legendtext" text-anchor="start" x="40" y="4.680000000000001" style="font-family: 'Open Sans', verdana, arial, sans-serif; font-size: 12px; fill: rgb(42, 63, 95); fill-opacity: 1; white-space: pre;">Train Accuracy</text><g class="layers" style="opacity: 1;"><g class="legendfill"/><g class="legendlines"><path class="js-line" d="M5,0h30" style="fill: none; stroke: rgb(255, 0, 0); stroke-opacity: 1; stroke-width: 2px;"/></g><g class="legendsymbols"><g class="legendpoints"/></g></g><rect class="legendtoggle" x="0" y="-9.5" width="122.71875" height="19" style="fill: rgb(0, 0, 0); fill-opacity: 0;"/></g><g class="traces" transform="translate(0,33.5)" style="opacity: 1;"><text class="legendtext" text-anchor="start" x="40" y="4.680000000000001" style="font-family: 'Open Sans', verdana, arial, sans-serif; font-size: 12px; fill: rgb(42, 63, 95); fill-opacity: 1; white-space: pre;">Test Accuracy</text><g class="layers" style="opacity: 1;"><g class="legendfill"/><g class="legendlines"><path class="js-line" d="M5,0h30" style="fill: none; stroke: rgb(0, 0, 255); stroke-opacity: 1; stroke-width: 2px;"/></g><g class="legendsymbols"><g class="legendpoints"/></g></g><rect class="legendtoggle" x="0" y="-9.5" width="122.71875" height="19" style="fill: rgb(0, 0, 0); fill-opacity: 0;"/></g><g class="traces" transform="translate(0,52.5)" style="opacity: 1;"><text class="legendtext" text-anchor="start" x="40" y="4.680000000000001" style="font-family: 'Open Sans', verdana, arial, sans-serif; font-size: 12px; fill: rgb(42, 63, 95); fill-opacity: 1; white-space: pre;">Train Precision</text><g class="layers" style="opacity: 1;"><g class="legendfill"/><g class="legendlines"><path class="js-line" d="M5,0h30" style="fill: none; stroke: rgb(0, 128, 0); stroke-opacity: 1; stroke-width: 2px;"/></g><g class="legendsymbols"><g class="legendpoints"/></g></g><rect class="legendtoggle" x="0" y="-9.5" width="122.71875" height="19" style="fill: rgb(0, 0, 0); fill-opacity: 0;"/></g><g class="traces" transform="translate(0,71.5)" style="opacity: 1;"><text class="legendtext" text-anchor="start" x="40" y="4.680000000000001" style="font-family: 'Open Sans', verdana, arial, sans-serif; font-size: 12px; fill: rgb(42, 63, 95); fill-opacity: 1; white-space: pre;">Test Precision</text><g class="layers" style="opacity: 1;"><g class="legendfill"/><g class="legendlines"><path class="js-line" d="M5,0h30" style="fill: none; stroke: rgb(255, 165, 0); stroke-opacity: 1; stroke-width: 2px;"/></g><g class="legendsymbols"><g class="legendpoints"/></g></g><rect class="legendtoggle" x="0" y="-9.5" width="122.71875" height="19" style="fill: rgb(0, 0, 0); fill-opacity: 0;"/></g><g class="traces" transform="translate(0,90.5)" style="opacity: 1;"><text class="legendtext" text-anchor="start" x="40" y="4.680000000000001" style="font-family: 'Open Sans', verdana, arial, sans-serif; font-size: 12px; fill: rgb(42, 63, 95); fill-opacity: 1; white-space: pre;">Train Recall</text><g class="layers" style="opacity: 1;"><g class="legendfill"/><g class="legendlines"><path class="js-line" d="M5,0h30" style="fill: none; stroke: rgb(128, 0, 128); stroke-opacity: 1; stroke-width: 2px;"/></g><g class="legendsymbols"><g class="legendpoints"/></g></g><rect class="legendtoggle" x="0" y="-9.5" width="122.71875" height="19" style="fill: rgb(0, 0, 0); fill-opacity: 0;"/></g><g class="traces" transform="translate(0,109.5)" style="opacity: 1;"><text class="legendtext" text-anchor="start" x="40" y="4.680000000000001" style="font-family: 'Open Sans', verdana, arial, sans-serif; font-size: 12px; fill: rgb(42, 63, 95); fill-opacity: 1; white-space: pre;">Test Recall</text><g class="layers" style="opacity: 1;"><g class="legendfill"/><g class="legendlines"><path class="js-line" d="M5,0h30" style="fill: none; stroke: rgb(255, 192, 203); stroke-opacity: 1; stroke-width: 2px;"/></g><g class="legendsymbols"><g class="legendpoints"/></g></g><rect class="legendtoggle" x="0" y="-9.5" width="122.71875" height="19" style="fill: rgb(0, 0, 0); fill-opacity: 0;"/></g><g class="traces" transform="translate(0,128.5)" style="opacity: 1;"><text class="legendtext" text-anchor="start" x="40" y="4.680000000000001" style="font-family: 'Open Sans', verdana, arial, sans-serif; font-size: 12px; fill: rgb(42, 63, 95); fill-opacity: 1; white-space: pre;">Train F1</text><g class="layers" style="opacity: 1;"><g class="legendfill"/><g class="legendlines"><path class="js-line" d="M5,0h30" style="fill: none; stroke: rgb(165, 42, 42); stroke-opacity: 1; stroke-width: 2px;"/></g><g class="legendsymbols"><g class="legendpoints"/></g></g><rect class="legendtoggle" x="0" y="-9.5" width="122.71875" height="19" style="fill: rgb(0, 0, 0); fill-opacity: 0;"/></g><g class="traces" transform="translate(0,147.5)" style="opacity: 1;"><text class="legendtext" text-anchor="start" x="40" y="4.680000000000001" style="font-family: 'Open Sans', verdana, arial, sans-serif; font-size: 12px; fill: rgb(42, 63, 95); fill-opacity: 1; white-space: pre;">Test F1</text><g class="layers" style="opacity: 1;"><g class="legendfill"/><g class="legendlines"><path class="js-line" d="M5,0h30" style="fill: none; stroke: rgb(128, 128, 128); stroke-opacity: 1; stroke-width: 2px;"/></g><g class="legendsymbols"><g class="legendpoints"/></g></g><rect class="legendtoggle" x="0" y="-9.5" width="122.71875" height="19" style="fill: rgb(0, 0, 0); fill-opacity: 0;"/></g></g></g><rect class="scrollbar" rx="20" ry="3" width="0" height="0" x="0" y="0" style="fill: rgb(128, 139, 164); fill-opacity: 1;"/></g><g class="g-gtitle"><text class="gtitle" x="51.2" y="50" text-anchor="start" dy="0em" style="font-family: 'Open Sans', verdana, arial, sans-serif; font-size: 17px; fill: rgb(42, 63, 95); opacity: 1; font-weight: normal; white-space: pre;">Training Metrics - logs/fake-news-datasets-deception-Celebrity_num-clauses=5000_max-vocab=15000_pre=v2_text_T=150_s=10.log</text></g><g class="g-xtitle"><text class="xtitle" x="510" y="537.3" text-anchor="middle" style="font-family: 'Open Sans', verdana, arial, sans-serif; font-size: 14px; fill: rgb(42, 63, 95); opacity: 1; font-weight: normal; white-space: pre;">Epoch</text></g><g class="g-ytitle"><text class="ytitle" transform="rotate(-90,104.10625,298)" x="104.10625" y="298" text-anchor="middle" style="font-family: 'Open Sans', verdana, arial, sans-serif; font-size: 14px; fill: rgb(42, 63, 95); opacity: 1; font-weight: normal; white-space: pre;">Metric Score</text></g></g><g class="menulayer"><g class="updatemenu-container" style="cursor: pointer;"><g class="updatemenu-header-group" transform="translate(12,60)"><g class="updatemenu-header" transform="translate(1,1)" style="pointer-events: all;"><rect class="updatemenu-item-rect" rx="2" ry="2" shape-rendering="crispEdges" x="0" y="0" width="174" height="33" style="stroke: rgb(190, 200, 217); stroke-opacity: 1; fill: rgb(255, 255, 255); fill-opacity: 1; stroke-width: 1px;"/><text class="updatemenu-item-text" text-anchor="start" data-notex="1" x="12" y="19.5" style="font-family: 'Open Sans', verdana, arial, sans-serif; font-size: 12px; fill: rgb(42, 63, 95); fill-opacity: 1; white-space: pre;">All</text></g><text class="updatemenu-header-arrow" text-anchor="end" x="170" y="19.5" style="font-family: 'Open Sans', verdana, arial, sans-serif; font-size: 12px; fill: rgb(42, 63, 95); fill-opacity: 1;">▼</text></g><g class="updatemenu-dropdown-button-group" updatemenu-active-index="-1" style="pointer-events: all;"><rect class="scrollbox-bg" opacity="0" x="0" y="0" width="0" height="0" style="pointer-events: all;"/></g></g></g></svg>