<svg class="main-svg" xmlns="http://www.w3.org/2000/svg" xmlns:xlink="http://www.w3.org/1999/xlink" width="1024" height="576" style="" viewBox="0 0 1024 576"><rect x="0" y="0" width="1024" height="576" style="fill: rgb(255, 255, 255); fill-opacity: 1;"/><defs id="defs-24122b"><g class="clips"><clipPath id="clip24122bxyplot" class="plotclip"><rect width="726" height="396"/></clipPath><clipPath class="axesclip" id="clip24122bx"><rect x="143" y="0" width="726" height="576"/></clipPath><clipPath class="axesclip" id="clip24122by"><rect x="0" y="100" width="1024" height="396"/></clipPath><clipPath class="axesclip" id="clip24122bxy"><rect x="143" y="100" width="726" height="396"/></clipPath></g><g class="gradients"/><g class="patterns"/></defs><g class="bglayer"><rect class="bg" x="143" y="100" width="726" height="396" style="fill: rgb(229, 236, 246); fill-opacity: 1; stroke-width: 0;"/></g><g class="layer-below"><g class="imagelayer"/><g class="shapelayer"/></g><g class="cartesianlayer"><g class="subplot xy"><g class="layer-subplot"><g class="shapelayer"/><g class="imagelayer"/></g><g class="minor-gridlayer"><g class="x"/><g class="y"/></g><g class="gridlayer"><g class="x"><path class="xgrid crisp" transform="translate(235.57999999999998,0)" d="M0,100v396" style="stroke: rgb(255, 255, 255); stroke-opacity: 1; stroke-width: 1px;"/><path class="xgrid crisp" transform="translate(333.03,0)" d="M0,100v396" style="stroke: rgb(255, 255, 255); stroke-opacity: 1; stroke-width: 1px;"/><path class="xgrid crisp" transform="translate(430.48,0)" d="M0,100v396" style="stroke: rgb(255, 255, 255); stroke-opacity: 1; stroke-width: 1px;"/><path class="xgrid crisp" transform="translate(527.9300000000001,0)" d="M0,100v396" style="stroke: rgb(255, 255, 255); stroke-opacity: 1; stroke-width: 1px;"/><path class="xgrid crisp" transform="translate(625.38,0)" d="M0,100v396" style="stroke: rgb(255, 255, 255); stroke-opacity: 1; stroke-width: 1px;"/><path class="xgrid crisp" transform="translate(722.83,0)" d="M0,100v396" style="stroke: rgb(255, 255, 255); stroke-opacity: 1; stroke-width: 1px;"/><path class="xgrid crisp" transform="translate(820.28,0)" d="M0,100v396" style="stroke: rgb(255, 255, 255); stroke-opacity: 1; stroke-width: 1px;"/></g><g class="y"><path class="ygrid crisp" transform="translate(0,453.38)" d="M143,0h726" style="stroke: rgb(255, 255, 255); stroke-opacity: 1; stroke-width: 1px;"/><path class="ygrid crisp" transform="translate(0,375.22)" d="M143,0h726" style="stroke: rgb(255, 255, 255); stroke-opacity: 1; stroke-width: 1px;"/><path class="ygrid crisp" transform="translate(0,297.06)" d="M143,0h726" style="stroke: rgb(255, 255, 255); stroke-opacity: 1; stroke-width: 1px;"/><path class="ygrid crisp" transform="translate(0,218.9)" d="M143,0h726" style="stroke: rgb(255, 255, 255); stroke-opacity: 1; stroke-width: 1px;"/><path class="ygrid crisp" transform="translate(0,140.75)" d="M143,0h726" style="stroke: rgb(255, 255, 255); stroke-opacity: 1; stroke-width: 1px;"/></g></g><g class="zerolinelayer"/><path class="xlines-below"/><path class="ylines-below"/><g class="overlines-below"/><g class="xaxislayer-below"/><g class="yaxislayer-below"/><g class="overaxes-below"/><g class="plot" transform="translate(143,100)" clip-path="url(#clip24122bxyplot)"><g class="scatterlayer mlayer"><g class="trace scatter trace494b51" style="stroke-miterlimit: 2; opacity: 1;"><g class="fills"/><g class="errorbars"/><g class="lines"><path class="js-line" d="M0,286.01L9.74,224.89L14.62,208.16L19.49,198.94L24.36,160.02L29.23,132.19L34.11,126.72L38.98,108.12L43.85,106.24L48.72,108.12L53.6,135.94L58.47,122.97L63.34,126.72L68.21,135.94L73.09,111.87L82.83,108.12L87.7,102.65L92.58,100.77L97.45,97.02L102.32,85.92L107.19,100.77L112.07,102.65L116.94,111.87L121.81,108.12L126.68,93.27L131.56,91.55L136.43,82.17L141.3,72.95L146.17,84.05L151.05,89.67L155.92,80.45L160.79,102.65L165.66,93.27L170.54,95.14L175.41,93.27L180.28,93.27L185.15,95.14L190.03,76.7L194.9,82.17L199.77,89.67L204.64,89.67L209.52,109.99L214.39,85.92L219.26,85.92L224.13,98.9L229.01,98.9L233.88,89.67L238.75,84.05L243.62,80.45L248.5,87.8L253.37,98.9L258.24,98.9L263.11,102.65L267.99,98.9L272.86,91.55L277.73,85.92L282.6,93.27L287.48,89.67L292.35,76.7L297.22,82.17L302.09,65.6L311.84,85.92L316.71,87.8L321.58,91.55L326.46,82.17L331.33,80.45L336.2,67.48L341.07,87.8L345.95,93.27L350.82,89.67L355.69,89.67L360.56,76.7L365.44,69.2L370.31,78.57L375.18,69.2L380.05,74.82L384.93,74.82L389.8,78.57L394.67,76.7L404.42,80.45L409.29,71.07L414.16,76.7L419.03,71.07L423.91,69.2L428.78,69.2L433.65,76.7L438.52,72.95L443.4,74.82L448.27,59.97L453.14,76.7L458.01,71.07L467.76,74.82L472.63,58.1L477.5,50.75L482.38,56.38L487.25,59.97L492.12,50.75L501.87,72.95L506.74,74.82L511.61,47L516.48,67.48L521.36,54.5L526.23,80.45L531.1,48.87L535.97,58.1L540.85,67.48L545.72,61.85L550.59,50.75L555.46,48.87L560.34,45.12L565.21,37.78L570.08,37.78L574.95,43.4L579.83,58.1L584.7,69.2L589.57,69.2L594.44,48.87L599.32,69.2L604.19,69.2L613.93,76.7L618.81,67.48L623.68,78.57L628.55,76.7L633.42,87.8L638.3,80.45L643.17,80.45L648.04,76.7L652.91,84.05L657.79,72.95L662.66,63.72L667.53,56.38L672.4,59.97L677.28,58.1L682.15,89.67L687.02,85.92L691.89,69.2L696.77,67.48L701.64,67.48L706.51,65.6L711.38,82.17L716.26,78.57L721.13,76.7L726,76.7" style="vector-effect: none; fill: none; stroke: rgb(255, 0, 0); stroke-opacity: 1; stroke-width: 2px; opacity: 1;"/></g><g class="points"/><g class="text"/></g><g class="trace scatter tracebd5550" style="stroke-miterlimit: 2; opacity: 1;"><g class="fills"/><g class="errorbars"/><g class="lines"><path class="js-line" d="M0,344.47L4.87,374.01L9.74,285.54L14.62,270.84L19.49,263.5L24.36,255.99L29.23,219.26L34.11,263.5L38.98,248.65L43.85,241.3L48.72,255.99L53.6,241.3L58.47,248.65L63.34,270.84L68.21,307.73L73.09,285.54L77.96,292.88L87.7,307.73L92.58,248.65L102.32,263.5L107.19,255.99L112.07,248.65L116.94,219.26L126.68,233.95L131.56,248.65L136.43,204.41L141.3,204.41L146.17,204.41L151.05,211.76L155.92,197.06L160.79,226.61L165.66,197.06L170.54,197.06L175.41,219.26L180.28,204.41L185.15,204.41L190.03,211.76L194.9,204.41L199.77,226.61L204.64,204.41L209.52,211.76L219.26,255.99L224.13,233.95L229.01,226.61L233.88,226.61L243.62,211.76L248.5,211.76L253.37,204.41L258.24,233.95L263.11,219.26L267.99,197.06L272.86,189.72L277.73,189.72L282.6,211.76L287.48,204.41L292.35,204.41L297.22,189.72L302.09,197.06L306.97,211.76L316.71,197.06L321.58,197.06L326.46,197.06L331.33,204.41L336.2,197.06L341.07,197.06L345.95,204.41L350.82,204.41L355.69,211.76L360.56,204.41L365.44,182.37L370.31,211.76L375.18,197.06L380.05,204.41L384.93,174.87L389.8,204.41L394.67,211.76L399.54,204.41L404.42,182.37L409.29,211.76L414.16,219.26L419.03,211.76L423.91,219.26L428.78,204.41L433.65,211.76L438.52,211.76L443.4,189.72L448.27,211.76L453.14,219.26L458.01,204.41L462.89,182.37L467.76,211.76L472.63,189.72L477.5,182.37L482.38,182.37L487.25,197.06L492.12,189.72L496.99,204.41L501.87,189.72L506.74,204.41L511.61,167.52L516.48,204.41L521.36,152.82L526.23,189.72L531.1,160.17L535.97,152.82L540.85,189.72L545.72,182.37L550.59,167.52L555.46,174.87L560.34,174.87L565.21,160.17L570.08,160.17L574.95,167.52L579.83,204.41L584.7,167.52L589.57,182.37L594.44,138.13L599.32,189.72L604.19,197.06L609.06,219.26L613.93,204.41L618.81,197.06L623.68,197.06L628.55,182.37L633.42,182.37L638.3,174.87L643.17,182.37L648.04,189.72L652.91,182.37L657.79,219.26L662.66,152.82L667.53,167.52L672.4,167.52L677.28,152.82L682.15,174.87L687.02,211.76L691.89,160.17L696.77,160.17L701.64,182.37L706.51,174.87L711.38,182.37L721.13,211.76L726,197.06" style="vector-effect: none; fill: none; stroke: rgb(0, 0, 255); stroke-opacity: 1; stroke-width: 2px; opacity: 1;"/></g><g class="points"/><g class="text"/></g><g class="trace scatter traceb2d008" style="stroke-miterlimit: 2; opacity: 1;"><g class="fills"/><g class="errorbars"/><g class="lines"><path class="js-line" d="M0,240.05L4.87,200.97L9.74,173.3L14.62,177.84L19.49,180.34L24.36,138.29L29.23,118.12L34.11,117.5L38.98,103.12L43.85,99.99L48.72,95.3L53.6,120.78L58.47,110.15L63.34,112.03L68.21,115.47L73.09,103.59L77.96,101.24L82.83,105.3L87.7,98.58L92.58,89.67L97.45,87.02L102.32,72.95L107.19,85.92L112.07,85.14L116.94,90.61L121.81,90.14L126.68,83.26L131.56,83.58L136.43,79.98L141.3,68.26L146.17,76.07L151.05,82.95L155.92,74.04L160.79,95.46L165.66,86.7L170.54,85.61L175.41,89.67L180.28,85.77L185.15,87.33L190.03,73.42L194.9,81.39L199.77,88.11L204.64,88.11L209.52,106.71L214.39,86.86L219.26,86.86L224.13,97.02L229.01,97.65L233.88,88.74L243.62,76.39L248.5,84.51L253.37,91.86L258.24,89.2L263.11,93.89L267.99,87.48L272.86,84.36L277.73,76.7L282.6,81.39L287.48,82.95L292.35,68.73L297.22,77.17L302.09,63.72L306.97,73.42L311.84,82.33L316.71,85.3L321.58,85.92L326.46,73.89L331.33,70.6L336.2,55.28L341.07,74.35L345.95,78.42L350.82,80.45L355.69,80.45L360.56,68.73L365.44,59.5L370.31,70.13L375.18,61.22L380.05,61.69L384.93,59.66L389.8,68.41L394.67,67.79L399.54,70.13L404.42,70.6L409.29,63.57L414.16,67.79L419.03,64.35L423.91,63.72L428.78,63.72L433.65,68.73L438.52,65.76L443.4,71.85L448.27,54.03L453.14,70.29L458.01,65.13L462.89,63.26L467.76,65.6L472.63,51.84L477.5,47.47L482.38,51.84L487.25,54.81L492.12,48.09L496.99,55.6L501.87,65.76L506.74,68.88L511.61,43.09L516.48,59.82L521.36,52.63L526.23,68.73L531.1,42.15L535.97,52.63L540.85,59.04L545.72,54.66L550.59,44.34L555.46,45.28L560.34,42.93L565.21,36.21L570.08,34.18L574.95,40.75L579.83,52.63L584.7,61.22L589.57,62.94L594.44,46.69L599.32,60.44L604.19,59.5L609.06,63.26L613.93,64.04L618.81,57.16L623.68,65.44L628.55,66.07L633.42,78.11L638.3,70.6L648.04,67.01L652.91,72.48L657.79,64.19L662.66,58.57L667.53,49.5L672.4,52.47L677.28,49.19L682.15,79.51L687.02,73.89L691.89,61.22L696.77,61.54L701.64,63.1L706.51,57.63L711.38,72.95L716.26,70.92L721.13,67.01L726,68.73" style="vector-effect: none; fill: none; stroke: rgb(0, 128, 0); stroke-opacity: 1; stroke-width: 2px; opacity: 1;"/></g><g class="points"/><g class="text"/></g><g class="trace scatter trace097adc" style="stroke-miterlimit: 2; opacity: 1;"><g class="fills"/><g class="errorbars"/><g class="lines"><path class="js-line" d="M0,334.15L4.87,339.78L9.74,255.21L14.62,260.37L19.49,245.83L24.36,235.98L29.23,215.19L34.11,259.43L38.98,244.58L43.85,243.18L48.72,249.9L53.6,230.83L58.47,240.36L63.34,260.37L68.21,295.07L73.09,283.5L77.96,280.22L87.7,299.45L92.58,240.36L97.45,249.9L102.32,245.83L107.19,235.98L112.07,231.14L116.94,210.82L121.81,215.98L126.68,233.95L131.56,248.65L136.43,214.88L141.3,200.34L146.17,204.41L151.05,213.79L155.92,195.03L160.79,232.08L165.66,198.94L170.54,195.03L175.41,229.73L180.28,204.41L185.15,204.41L190.03,217.38L194.9,208.16L199.77,228.48L204.64,208.16L209.52,213.79L219.26,261.62L224.13,237.7L229.01,232.08L233.88,235.52L238.75,226.45L243.62,213.79L248.5,213.79L253.37,200.34L258.24,229.89L263.11,215.19L267.99,186.43L272.86,181.27L277.73,181.27L282.6,201.28L287.48,200.34L292.35,200.34L297.22,181.27L302.09,198.94L306.97,209.88L311.84,208.16L316.71,202.53L321.58,202.53L326.46,195.03L331.33,204.41L336.2,195.03L341.07,195.03L345.95,200.34L350.82,204.41L355.69,209.88L360.56,208.16L365.44,184.24L370.31,205.66L375.18,198.94L380.05,204.41L384.93,170.96L389.8,196.12L394.67,209.88L399.54,204.41L404.42,184.24L409.29,213.79L414.16,219.26L419.03,213.79L423.91,226.45L428.78,211.76L433.65,213.79L438.52,209.88L443.4,193.47L448.27,209.88L453.14,215.19L458.01,204.41L462.89,184.24L467.76,205.66L477.5,187.84L482.38,184.24L487.25,195.03L492.12,193.47L496.99,200.34L501.87,189.72L506.74,200.34L511.61,169.55L516.48,191.43L521.36,154.7L526.23,181.27L531.1,163.92L535.97,158.3L540.85,185.65L545.72,180.34L550.59,173.15L555.46,178.62L560.34,178.62L565.21,163.92L570.08,163.92L574.95,173.15L579.83,204.41L584.7,169.55L589.57,180.34L594.44,146.88L599.32,185.65L604.19,195.03L609.06,210.82L613.93,191.43L618.81,198.94L623.68,190.97L628.55,176.12L633.42,180.34L638.3,166.58L643.17,176.12L648.04,189.72L652.91,180.34L657.79,215.19L662.66,158.3L667.53,169.55L672.4,169.55L677.28,154.7L682.15,174.87L687.02,205.66L691.89,167.36L696.77,163.92L701.64,184.24L706.51,170.96L711.38,176.12L716.26,198.94L721.13,205.66L726,198.94" style="vector-effect: none; fill: none; stroke: rgb(255, 165, 0); stroke-opacity: 1; stroke-width: 2px; opacity: 1;"/></g><g class="points"/><g class="text"/></g><g class="trace scatter tracebd908d" style="stroke-miterlimit: 2; opacity: 1;"><g class="fills"/><g class="errorbars"/><g class="lines"><path class="js-line" d="M0,248.8L9.74,185.18L14.62,177.52L19.49,174.4L24.36,132.97L29.23,109.06L34.11,106.71L38.98,90.77L43.85,87.95L48.72,85.3L53.6,112.18L58.47,100.46L63.34,103.12L68.21,109.21L73.09,92.17L77.96,89.99L82.83,92.64L92.58,78.89L97.45,75.76L102.32,62.47L107.19,76.39L112.07,76.86L116.94,84.2L121.81,82.17L126.68,71.85L131.56,71.54L136.43,66.54L141.3,54.97L146.17,63.88L151.05,70.6L155.92,61.38L160.79,83.58L165.66,74.35L170.54,74.04L175.41,76.86L180.28,73.73L185.15,75.29L190.03,59.97L194.9,67.79L199.77,74.82L204.64,74.82L209.52,94.21L214.39,73.42L219.26,73.42L224.13,84.05L229.01,84.67L233.88,75.45L243.62,63.1L248.5,71.38L253.37,79.67L258.24,77.95L263.11,82.33L267.99,76.7L272.86,72.17L277.73,64.98L282.6,70.6L287.48,70.6L292.35,56.38L297.22,64.19L302.09,49.81L306.97,59.97L311.84,69.2L316.71,72.01L321.58,73.42L326.46,61.69L331.33,58.88L336.2,44.03L341.07,64.04L345.95,68.88L355.69,68.73L360.56,56.38L365.44,47.47L370.31,57.94L375.18,48.72L380.05,51.06L384.93,49.81L389.8,56.69L394.67,55.75L399.54,57.94L404.42,58.88L409.29,50.91L414.16,55.75L419.03,51.53L423.91,50.59L428.78,50.59L433.65,56.38L438.52,53.1L443.4,58.41L448.27,40.75L453.14,57.47L458.01,52.16L462.89,51.22L467.76,53.56L472.63,38.56L477.5,33.4L482.38,38.09L487.25,41.37L492.12,34.02L496.99,42.31L501.87,53.1L506.74,55.91L511.61,29.02L516.48,47.16L521.36,38.4L526.23,57.63L531.1,28.71L535.97,39.18L540.85,46.53L545.72,41.68L550.59,30.9L555.46,31.21L560.34,28.55L565.21,21.52L570.08,19.8L574.95,26.37L579.83,39.18L584.7,48.72L589.57,49.97L594.44,32.46L599.32,48.09L604.19,47.47L609.06,51.22L613.93,53.25L618.81,45.28L623.68,54.81L628.55,54.5L633.42,66.54L638.3,58.88L643.17,57.63L648.04,55.13L652.91,61.54L657.79,51.84L662.66,45.12L667.53,36.37L672.4,39.5L677.28,36.68L682.15,68.1L687.02,63.1L691.89,48.72L696.77,48.41L701.64,49.5L706.51,44.97L711.38,61.07L716.26,58.57L721.13,55.13L726,56.38" style="vector-effect: none; fill: none; stroke: rgb(128, 0, 128); stroke-opacity: 1; stroke-width: 2px; opacity: 1;"/></g><g class="points"/><g class="text"/></g><g class="trace scatter trace74e503" style="stroke-miterlimit: 2; opacity: 1;"><g class="fills"/><g class="errorbars"/><g class="lines"><path class="js-line" d="M0,315.86L4.87,326.65L9.74,235.67L14.62,236.61L19.49,222.39L24.36,212.38L29.23,187.37L34.11,234.89L38.98,219.1L43.85,217.38L48.72,224.89L53.6,204.88L58.47,214.88L63.34,236.61L68.21,274.13L73.09,260.84L77.96,258.18L87.7,278.35L92.58,214.88L97.45,224.89L102.32,222.39L107.19,212.38L112.07,206.44L116.94,183.15L121.81,188.93L131.56,223.17L136.43,188.31L141.3,171.43L146.17,175.65L151.05,185.65L155.92,165.64L160.79,205.66L165.66,169.86L170.54,165.64L175.41,204.1L180.28,175.65L185.15,175.65L190.03,189.87L194.9,179.87L199.77,201.6L204.64,179.87L209.52,185.65L214.39,211.6L219.26,237.39L224.13,211.6L229.01,205.66L233.88,209.88L238.75,199.88L243.62,185.65L248.5,185.65L253.37,171.43L258.24,203.16L263.11,187.37L267.99,157.36L272.86,151.42L277.73,151.42L282.6,173.15L287.48,171.43L292.35,171.43L297.22,151.42L302.09,169.86L306.97,181.43L311.84,179.87L316.71,174.08L321.58,174.08L326.46,165.64L331.33,175.65L336.2,165.64L341.07,165.64L345.95,171.43L350.82,175.65L355.69,181.43L360.56,179.87L365.44,153.92L370.31,177.37L375.18,169.86L380.05,175.65L384.93,139.85L389.8,167.36L394.67,181.43L399.54,175.65L404.42,153.92L409.29,185.65L414.16,191.59L419.03,185.65L423.91,199.88L428.78,184.09L433.65,185.65L438.52,181.43L443.4,164.08L448.27,181.43L453.14,187.37L458.01,175.65L462.89,153.92L467.76,177.37L477.5,158.14L482.38,153.92L487.25,165.64L492.12,164.08L496.99,171.43L501.87,159.86L506.74,171.43L511.61,138.13L516.48,163.14L521.36,122.34L526.23,151.42L531.1,132.35L535.97,126.41L540.85,155.64L545.72,149.85L550.59,142.35L555.46,148.14L560.34,148.14L565.21,132.35L570.08,132.35L574.95,142.35L579.83,175.65L584.7,138.13L589.57,149.85L594.44,114.84L599.32,155.64L604.19,165.64L609.06,183.15L613.93,163.14L618.81,169.86L623.68,161.42L628.55,145.63L633.42,149.85L638.3,135.63L643.17,145.63L648.04,159.86L652.91,149.85L657.79,187.37L662.66,126.41L667.53,138.13L672.4,138.13L677.28,122.34L682.15,143.91L687.02,177.37L691.89,136.57L696.77,132.35L701.64,153.92L706.51,139.85L711.38,145.63L716.26,169.86L721.13,177.37L726,169.86" style="vector-effect: none; fill: none; stroke: rgb(255, 192, 203); stroke-opacity: 1; stroke-width: 2px; opacity: 1;"/></g><g class="points"/><g class="text"/></g><g class="trace scatter trace2107a1" style="stroke-miterlimit: 2; opacity: 1;"><g class="fills"/><g class="errorbars"/><g class="lines"><path class="js-line" d="M0,286.47L9.74,225.36L14.62,208.16L19.49,199.25L24.36,160.17L29.23,132.66L34.11,127.5L38.98,109.37L43.85,107.34L48.72,108.74L53.6,136.41L58.47,123.59L63.34,127.19L68.21,136.1L73.09,112.81L77.96,110.78L82.83,109.68L87.7,103.9L92.58,101.4L97.45,97.8L102.32,86.39L107.19,101.08L112.07,102.96L116.94,112.03L121.81,108.43L126.68,94.05L131.56,92.33L141.3,74.04L146.17,84.98L151.05,90.61L155.92,81.39L160.79,103.59L165.66,94.36L170.54,95.93L175.41,94.68L180.28,94.21L185.15,96.08L190.03,77.95L194.9,83.89L199.77,91.24L204.64,91.24L209.52,111.4L214.39,87.95L219.26,87.95L224.13,100.46L229.01,100.62L233.88,91.39L238.75,85.61L243.62,81.54L248.5,89.05L253.37,99.83L258.24,99.68L263.11,103.43L267.99,99.52L272.86,92.49L277.73,86.7L282.6,93.89L287.48,90.61L292.35,77.48L297.22,83.26L302.09,67.01L311.84,87.17L316.71,89.2L321.58,92.64L326.46,82.95L331.33,81.08L336.2,67.95L341.07,88.27L345.95,93.74L350.82,90.45L355.69,90.45L360.56,77.48L365.44,69.98L370.31,79.36L375.18,69.98L380.05,75.29L384.93,75.14L389.8,79.2L394.67,77.48L404.42,81.08L409.29,72.01L414.16,77.48L419.03,72.01L423.91,70.29L428.78,70.29L433.65,77.48L438.52,73.89L443.4,76.07L448.27,60.91L453.14,77.64L458.01,72.17L467.76,75.45L472.63,59.04L477.5,51.84L482.38,57.32L487.25,61.07L492.12,52L501.87,73.89L506.74,75.76L511.61,48.09L516.48,68.26L521.36,55.75L526.23,80.92L531.1,49.66L535.97,59.19L540.85,68.1L545.72,62.63L550.59,51.53L555.46,49.97L560.34,46.37L565.21,39.03L570.08,38.87L574.95,44.5L579.83,59.19L584.7,69.98L589.57,70.13L594.44,50.13L599.32,69.98L604.19,69.98L613.93,77.17L618.81,68.1L623.68,79.04L628.55,77.32L633.42,88.42L638.3,81.08L643.17,80.92L648.04,77.32L652.91,84.67L657.79,73.73L667.53,57.16L672.4,60.75L677.28,58.88L682.15,90.3L687.02,86.55L691.89,69.98L696.77,68.41L701.64,68.57L706.51,66.38L711.38,82.95L716.26,79.36L721.13,77.32L726,77.48" style="vector-effect: none; fill: none; stroke: rgb(165, 42, 42); stroke-opacity: 1; stroke-width: 2px; opacity: 1;"/></g><g class="points"/><g class="text"/></g><g class="trace scatter trace872944" style="stroke-miterlimit: 2; opacity: 1;"><g class="fills"/><g class="errorbars"/><g class="lines"><path class="js-line" d="M0,350.88L4.87,376.2L9.74,287.88L14.62,276.31L19.49,267.56L24.36,259.74L29.23,225.51L34.11,270.37L38.98,255.37L43.85,249.58L48.72,262.4L53.6,246.46L58.47,254.43L63.34,276.31L68.21,313.05L73.09,293.51L77.96,298.2L87.7,314.14L92.58,254.43L97.45,262.4L102.32,267.56L112.07,252.71L116.94,224.57L121.81,231.61L126.68,241.46L131.56,256.46L136.43,214.88L141.3,210.51L146.17,211.44L151.05,219.57L155.92,203.47L160.79,235.67L165.66,204.57L170.54,203.47L175.41,230.04L180.28,211.44L185.15,211.44L190.03,220.67L194.9,212.54L199.77,234.58L204.64,212.54L209.52,219.57L214.39,242.71L219.26,265.84L224.13,242.71L229.01,235.67L233.88,236.92L243.62,219.57L248.5,219.57L253.37,210.51L258.24,240.52L263.11,225.51L267.99,201.75L272.86,194.72L277.73,194.72L282.6,216.6L287.48,210.51L292.35,210.51L297.22,194.72L302.09,204.57L306.97,218.48L316.71,205.66L321.58,205.66L326.46,203.47L331.33,211.44L336.2,203.47L341.07,203.47L345.95,210.51L350.82,211.44L355.69,218.48L360.56,212.54L365.44,189.56L370.31,217.54L375.18,204.57L380.05,211.44L384.93,180.65L389.8,209.57L394.67,218.48L399.54,211.44L404.42,189.56L409.29,219.57L414.16,226.45L419.03,219.57L423.91,228.79L428.78,213.79L433.65,219.57L438.52,218.48L443.4,197.53L448.27,218.48L453.14,225.51L458.01,211.44L462.89,189.56L467.76,217.54L472.63,198.63L477.5,190.5L482.38,189.56L487.25,203.47L492.12,197.53L496.99,210.51L501.87,196.44L506.74,210.51L511.61,174.4L516.48,208.79L521.36,159.39L526.23,194.72L531.1,167.36L535.97,160.33L540.85,195.5L545.72,188.46L550.59,175.49L555.46,182.52L560.34,182.52L565.21,167.36L570.08,167.36L574.95,175.49L579.83,211.44L584.7,174.4L589.57,188.46L594.44,146.26L599.32,195.5L604.19,203.47L609.06,224.57L613.93,208.79L618.81,204.57L623.68,202.53L628.55,187.68L633.42,188.46L638.3,179.71L643.17,187.68L648.04,196.44L652.91,188.46L657.79,225.51L662.66,160.33L667.53,174.4L672.4,174.4L677.28,159.39L682.15,181.43L687.02,217.54L691.89,168.46L696.77,167.36L701.64,189.56L706.51,180.65L711.38,187.68L716.26,204.57L721.13,217.54L726,204.57" style="vector-effect: none; fill: none; stroke: rgb(128, 128, 128); stroke-opacity: 1; stroke-width: 2px; opacity: 1;"/></g><g class="points"/><g class="text"/></g></g></g><g class="overplot"/><path class="xlines-above crisp" d="M0,0" style="fill: none;"/><path class="ylines-above crisp" d="M0,0" style="fill: none;"/><g class="overlines-above"/><g class="xaxislayer-above"><g class="xtick"><text text-anchor="middle" x="0" y="509" transform="translate(235.57999999999998,0)" style="font-family: 'Open Sans', verdana, arial, sans-serif; font-size: 12px; fill: rgb(42, 63, 95); fill-opacity: 1; white-space: pre; opacity: 1;">20</text></g><g class="xtick"><text text-anchor="middle" x="0" y="509" style="font-family: 'Open Sans', verdana, arial, sans-serif; font-size: 12px; fill: rgb(42, 63, 95); fill-opacity: 1; white-space: pre; opacity: 1;" transform="translate(333.03,0)">40</text></g><g class="xtick"><text text-anchor="middle" x="0" y="509" style="font-family: 'Open Sans', verdana, arial, sans-serif; font-size: 12px; fill: rgb(42, 63, 95); fill-opacity: 1; white-space: pre; opacity: 1;" transform="translate(430.48,0)">60</text></g><g class="xtick"><text text-anchor="middle" x="0" y="509" style="font-family: 'Open Sans', verdana, arial, sans-serif; font-size: 12px; fill: rgb(42, 63, 95); fill-opacity: 1; white-space: pre; opacity: 1;" transform="translate(527.9300000000001,0)">80</text></g><g class="xtick"><text text-anchor="middle" x="0" y="509" style="font-family: 'Open Sans', verdana, arial, sans-serif; font-size: 12px; fill: rgb(42, 63, 95); fill-opacity: 1; white-space: pre; opacity: 1;" transform="translate(625.38,0)">100</text></g><g class="xtick"><text text-anchor="middle" x="0" y="509" style="font-family: 'Open Sans', verdana, arial, sans-serif; font-size: 12px; fill: rgb(42, 63, 95); fill-opacity: 1; white-space: pre; opacity: 1;" transform="translate(722.83,0)">120</text></g><g class="xtick"><text text-anchor="middle" x="0" y="509" style="font-family: 'Open Sans', verdana, arial, sans-serif; font-size: 12px; fill: rgb(42, 63, 95); fill-opacity: 1; white-space: pre; opacity: 1;" transform="translate(820.28,0)">140</text></g></g><g class="yaxislayer-above"><g class="ytick"><text text-anchor="end" x="142" y="4.199999999999999" transform="translate(0,453.38)" style="font-family: 'Open Sans', verdana, arial, sans-serif; font-size: 12px; fill: rgb(42, 63, 95); fill-opacity: 1; white-space: pre; opacity: 1;">65</text></g><g class="ytick"><text text-anchor="end" x="142" y="4.199999999999999" style="font-family: 'Open Sans', verdana, arial, sans-serif; font-size: 12px; fill: rgb(42, 63, 95); fill-opacity: 1; white-space: pre; opacity: 1;" transform="translate(0,375.22)">70</text></g><g class="ytick"><text text-anchor="end" x="142" y="4.199999999999999" style="font-family: 'Open Sans', verdana, arial, sans-serif; font-size: 12px; fill: rgb(42, 63, 95); fill-opacity: 1; white-space: pre; opacity: 1;" transform="translate(0,297.06)">75</text></g><g class="ytick"><text text-anchor="end" x="142" y="4.199999999999999" style="font-family: 'Open Sans', verdana, arial, sans-serif; font-size: 12px; fill: rgb(42, 63, 95); fill-opacity: 1; white-space: pre; opacity: 1;" transform="translate(0,218.9)">80</text></g><g class="ytick"><text text-anchor="end" x="142" y="4.199999999999999" style="font-family: 'Open Sans', verdana, arial, sans-serif; font-size: 12px; fill: rgb(42, 63, 95); fill-opacity: 1; white-space: pre; opacity: 1;" transform="translate(0,140.75)">85</text></g></g><g class="overaxes-above"/></g></g><g class="polarlayer"/><g class="smithlayer"/><g class="ternarylayer"/><g class="geolayer"/><g class="funnelarealayer"/><g class="pielayer"/><g class="iciclelayer"/><g class="treemaplayer"/><g class="sunburstlayer"/><g class="glimages"/><defs id="topdefs-24122b"><g class="clips"/><clipPath id="legend24122b"><rect width="128" height="162" x="0" y="0"/></clipPath></defs><g class="layer-above"><g class="imagelayer"/><g class="shapelayer"/></g><g class="infolayer"><g class="legend" pointer-events="all" transform="translate(883.52,100)"><rect class="bg" shape-rendering="crispEdges" width="128" height="162" x="0" y="0" style="stroke: rgb(68, 68, 68); stroke-opacity: 1; fill: rgb(255, 255, 255); fill-opacity: 1; stroke-width: 0px;"/><g class="scrollbox" transform="" clip-path="url(#legend24122b)"><g class="groups"><g class="traces" transform="translate(0,14.5)" style="opacity: 1;"><text class="legendtext" text-anchor="start" x="40" y="4.680000000000001" style="font-family: 'Open Sans', verdana, arial, sans-serif; font-size: 12px; fill: rgb(42, 63, 95); fill-opacity: 1; white-space: pre;">Train Accuracy</text><g class="layers" style="opacity: 1;"><g class="legendfill"/><g class="legendlines"><path class="js-line" d="M5,0h30" style="fill: none; stroke: rgb(255, 0, 0); stroke-opacity: 1; stroke-width: 2px;"/></g><g class="legendsymbols"><g class="legendpoints"/></g></g><rect class="legendtoggle" x="0" y="-9.5" width="122.71875" height="19" style="fill: rgb(0, 0, 0); fill-opacity: 0;"/></g><g class="traces" transform="translate(0,33.5)" style="opacity: 1;"><text class="legendtext" text-anchor="start" x="40" y="4.680000000000001" style="font-family: 'Open Sans', verdana, arial, sans-serif; font-size: 12px; fill: rgb(42, 63, 95); fill-opacity: 1; white-space: pre;">Test Accuracy</text><g class="layers" style="opacity: 1;"><g class="legendfill"/><g class="legendlines"><path class="js-line" d="M5,0h30" style="fill: none; stroke: rgb(0, 0, 255); stroke-opacity: 1; stroke-width: 2px;"/></g><g class="legendsymbols"><g class="legendpoints"/></g></g><rect class="legendtoggle" x="0" y="-9.5" width="122.71875" height="19" style="fill: rgb(0, 0, 0); fill-opacity: 0;"/></g><g class="traces" transform="translate(0,52.5)" style="opacity: 1;"><text class="legendtext" text-anchor="start" x="40" y="4.680000000000001" style="font-family: 'Open Sans', verdana, arial, sans-serif; font-size: 12px; fill: rgb(42, 63, 95); fill-opacity: 1; white-space: pre;">Train Precision</text><g class="layers" style="opacity: 1;"><g class="legendfill"/><g class="legendlines"><path class="js-line" d="M5,0h30" style="fill: none; stroke: rgb(0, 128, 0); stroke-opacity: 1; stroke-width: 2px;"/></g><g class="legendsymbols"><g class="legendpoints"/></g></g><rect class="legendtoggle" x="0" y="-9.5" width="122.71875" height="19" style="fill: rgb(0, 0, 0); fill-opacity: 0;"/></g><g class="traces" transform="translate(0,71.5)" style="opacity: 1;"><text class="legendtext" text-anchor="start" x="40" y="4.680000000000001" style="font-family: 'Open Sans', verdana, arial, sans-serif; font-size: 12px; fill: rgb(42, 63, 95); fill-opacity: 1; white-space: pre;">Test Precision</text><g class="layers" style="opacity: 1;"><g class="legendfill"/><g class="legendlines"><path class="js-line" d="M5,0h30" style="fill: none; stroke: rgb(255, 165, 0); stroke-opacity: 1; stroke-width: 2px;"/></g><g class="legendsymbols"><g class="legendpoints"/></g></g><rect class="legendtoggle" x="0" y="-9.5" width="122.71875" height="19" style="fill: rgb(0, 0, 0); fill-opacity: 0;"/></g><g class="traces" transform="translate(0,90.5)" style="opacity: 1;"><text class="legendtext" text-anchor="start" x="40" y="4.680000000000001" style="font-family: 'Open Sans', verdana, arial, sans-serif; font-size: 12px; fill: rgb(42, 63, 95); fill-opacity: 1; white-space: pre;">Train Recall</text><g class="layers" style="opacity: 1;"><g class="legendfill"/><g class="legendlines"><path class="js-line" d="M5,0h30" style="fill: none; stroke: rgb(128, 0, 128); stroke-opacity: 1; stroke-width: 2px;"/></g><g class="legendsymbols"><g class="legendpoints"/></g></g><rect class="legendtoggle" x="0" y="-9.5" width="122.71875" height="19" style="fill: rgb(0, 0, 0); fill-opacity: 0;"/></g><g class="traces" transform="translate(0,109.5)" style="opacity: 1;"><text class="legendtext" text-anchor="start" x="40" y="4.680000000000001" style="font-family: 'Open Sans', verdana, arial, sans-serif; font-size: 12px; fill: rgb(42, 63, 95); fill-opacity: 1; white-space: pre;">Test Recall</text><g class="layers" style="opacity: 1;"><g class="legendfill"/><g class="legendlines"><path class="js-line" d="M5,0h30" style="fill: none; stroke: rgb(255, 192, 203); stroke-opacity: 1; stroke-width: 2px;"/></g><g class="legendsymbols"><g class="legendpoints"/></g></g><rect class="legendtoggle" x="0" y="-9.5" width="122.71875" height="19" style="fill: rgb(0, 0, 0); fill-opacity: 0;"/></g><g class="traces" transform="translate(0,128.5)" style="opacity: 1;"><text class="legendtext" text-anchor="start" x="40" y="4.680000000000001" style="font-family: 'Open Sans', verdana, arial, sans-serif; font-size: 12px; fill: rgb(42, 63, 95); fill-opacity: 1; white-space: pre;">Train F1</text><g class="layers" style="opacity: 1;"><g class="legendfill"/><g class="legendlines"><path class="js-line" d="M5,0h30" style="fill: none; stroke: rgb(165, 42, 42); stroke-opacity: 1; stroke-width: 2px;"/></g><g class="legendsymbols"><g class="legendpoints"/></g></g><rect class="legendtoggle" x="0" y="-9.5" width="122.71875" height="19" style="fill: rgb(0, 0, 0); fill-opacity: 0;"/></g><g class="traces" transform="translate(0,147.5)" style="opacity: 1;"><text class="legendtext" text-anchor="start" x="40" y="4.680000000000001" style="font-family: 'Open Sans', verdana, arial, sans-serif; font-size: 12px; fill: rgb(42, 63, 95); fill-opacity: 1; white-space: pre;">Test F1</text><g class="layers" style="opacity: 1;"><g class="legendfill"/><g class="legendlines"><path class="js-line" d="M5,0h30" style="fill: none; stroke: rgb(128, 128, 128); stroke-opacity: 1; stroke-width: 2px;"/></g><g class="legendsymbols"><g class="legendpoints"/></g></g><rect class="legendtoggle" x="0" y="-9.5" width="122.71875" height="19" style="fill: rgb(0, 0, 0); fill-opacity: 0;"/></g></g></g><rect class="scrollbar" rx="20" ry="3" width="0" height="0" x="0" y="0" style="fill: rgb(128, 139, 164); fill-opacity: 1;"/></g><g class="g-gtitle"><text class="gtitle" x="51.2" y="50" text-anchor="start" dy="0em" style="font-family: 'Open Sans', verdana, arial, sans-serif; font-size: 17px; fill: rgb(42, 63, 95); opacity: 1; font-weight: normal; white-space: pre;">Training Metrics - logs/FakeNewsNet-politifact_max-vocab=15000_pre=v2_text_T=150_s=5.log</text></g><g class="g-xtitle"><text class="xtitle" x="506" y="537.3" text-anchor="middle" style="font-family: 'Open Sans', verdana, arial, sans-serif; font-size: 14px; fill: rgb(42, 63, 95); opacity: 1; font-weight: normal; white-space: pre;">Epoch</text></g><g class="g-ytitle"><text class="ytitle" transform="rotate(-90,103.965625,298)" x="103.965625" y="298" text-anchor="middle" style="font-family: 'Open Sans', verdana, arial, sans-serif; font-size: 14px; fill: rgb(42, 63, 95); opacity: 1; font-weight: normal; white-space: pre;">Metric Score</text></g></g><g class="menulayer"><g class="updatemenu-container" style="cursor: pointer;"><g class="updatemenu-header-group" transform="translate(12,60)"><g class="updatemenu-header" transform="translate(1,1)" style="pointer-events: all;"><rect class="updatemenu-item-rect" rx="2" ry="2" shape-rendering="crispEdges" x="0" y="0" width="167" height="33" style="stroke: rgb(190, 200, 217); stroke-opacity: 1; fill: rgb(255, 255, 255); fill-opacity: 1; stroke-width: 1px;"/><text class="updatemenu-item-text" text-anchor="start" data-notex="1" x="12" y="19.5" style="font-family: 'Open Sans', verdana, arial, sans-serif; font-size: 12px; fill: rgb(42, 63, 95); fill-opacity: 1; white-space: pre;">All</text></g><text class="updatemenu-header-arrow" text-anchor="end" x="163" y="19.5" style="font-family: 'Open Sans', verdana, arial, sans-serif; font-size: 12px; fill: rgb(42, 63, 95); fill-opacity: 1;">▼</text></g><g class="updatemenu-dropdown-button-group" updatemenu-active-index="-1" style="pointer-events: all;"><rect class="scrollbox-bg" opacity="0" x="0" y="0" width="0" height="0" style="pointer-events: all;"/></g></g></g></svg>