<svg class="main-svg" xmlns="http://www.w3.org/2000/svg" xmlns:xlink="http://www.w3.org/1999/xlink" width="1024" height="576" style="" viewBox="0 0 1024 576"><rect x="0" y="0" width="1024" height="576" style="fill: rgb(255, 255, 255); fill-opacity: 1;"/><defs id="defs-b55cbb"><g class="clips"><clipPath id="clipb55cbbxyplot" class="plotclip"><rect width="725" height="396"/></clipPath><clipPath class="axesclip" id="clipb55cbbx"><rect x="144" y="0" width="725" height="576"/></clipPath><clipPath class="axesclip" id="clipb55cbby"><rect x="0" y="100" width="1024" height="396"/></clipPath><clipPath class="axesclip" id="clipb55cbbxy"><rect x="144" y="100" width="725" height="396"/></clipPath></g><g class="gradients"/><g class="patterns"/></defs><g class="bglayer"><rect class="bg" x="144" y="100" width="725" height="396" style="fill: rgb(229, 236, 246); fill-opacity: 1; stroke-width: 0;"/></g><g class="layer-below"><g class="imagelayer"/><g class="shapelayer"/></g><g class="cartesianlayer"><g class="subplot xy"><g class="layer-subplot"><g class="shapelayer"/><g class="imagelayer"/></g><g class="minor-gridlayer"><g class="x"/><g class="y"/></g><g class="gridlayer"><g class="x"><path class="xgrid crisp" transform="translate(236.45,0)" d="M0,100v396" style="stroke: rgb(255, 255, 255); stroke-opacity: 1; stroke-width: 1px;"/><path class="xgrid crisp" transform="translate(333.77,0)" d="M0,100v396" style="stroke: rgb(255, 255, 255); stroke-opacity: 1; stroke-width: 1px;"/><path class="xgrid crisp" transform="translate(431.08,0)" d="M0,100v396" style="stroke: rgb(255, 255, 255); stroke-opacity: 1; stroke-width: 1px;"/><path class="xgrid crisp" transform="translate(528.4,0)" d="M0,100v396" style="stroke: rgb(255, 255, 255); stroke-opacity: 1; stroke-width: 1px;"/><path class="xgrid crisp" transform="translate(625.71,0)" d="M0,100v396" style="stroke: rgb(255, 255, 255); stroke-opacity: 1; stroke-width: 1px;"/><path class="xgrid crisp" transform="translate(723.03,0)" d="M0,100v396" style="stroke: rgb(255, 255, 255); stroke-opacity: 1; stroke-width: 1px;"/><path class="xgrid crisp" transform="translate(820.34,0)" d="M0,100v396" style="stroke: rgb(255, 255, 255); stroke-opacity: 1; stroke-width: 1px;"/></g><g class="y"><path class="ygrid crisp" transform="translate(0,487.01)" d="M144,0h725" style="stroke: rgb(255, 255, 255); stroke-opacity: 1; stroke-width: 1px;"/><path class="ygrid crisp" transform="translate(0,419.46)" d="M144,0h725" style="stroke: rgb(255, 255, 255); stroke-opacity: 1; stroke-width: 1px;"/><path class="ygrid crisp" transform="translate(0,351.90999999999997)" d="M144,0h725" style="stroke: rgb(255, 255, 255); stroke-opacity: 1; stroke-width: 1px;"/><path class="ygrid crisp" transform="translate(0,284.35)" d="M144,0h725" style="stroke: rgb(255, 255, 255); stroke-opacity: 1; stroke-width: 1px;"/><path class="ygrid crisp" transform="translate(0,216.8)" d="M144,0h725" style="stroke: rgb(255, 255, 255); stroke-opacity: 1; stroke-width: 1px;"/><path class="ygrid crisp" transform="translate(0,149.25)" d="M144,0h725" style="stroke: rgb(255, 255, 255); stroke-opacity: 1; stroke-width: 1px;"/></g></g><g class="zerolinelayer"/><path class="xlines-below"/><path class="ylines-below"/><g class="overlines-below"/><g class="xaxislayer-below"/><g class="yaxislayer-below"/><g class="overaxes-below"/><g class="plot" transform="translate(144,100)" clip-path="url(#clipb55cbbxyplot)"><g class="scatterlayer mlayer"><g class="trace scatter tracebe2108" style="stroke-miterlimit: 2; opacity: 1;"><g class="fills"/><g class="errorbars"/><g class="lines"><path class="js-line" d="M0,196.65L4.87,195.91L9.73,188.68L14.6,171.05L19.46,174.29L24.33,134.23L29.19,115.05L34.06,90.26L38.93,115.05L43.79,143.82L48.66,158.28L53.52,163.89L58.39,119.03L63.26,101.47L68.12,58.24L72.99,50.2L77.85,63.03L82.72,60.6L87.58,51.01L92.45,57.43L97.32,54.18L102.18,50.2L107.05,52.63L111.91,54.99L116.78,49.39L121.64,47.83L126.51,54.18L131.38,49.39L136.24,51.01L141.11,45.4L145.97,49.39L150.84,48.64L155.7,49.39L160.57,42.23L165.44,46.21L170.3,46.21L175.17,41.42L180.03,36.62L184.9,42.23L189.77,42.23L194.63,40.61L199.5,38.98L204.36,42.23L214.09,38.17L218.96,40.61L228.69,35L233.56,38.98L238.42,35.81L243.29,44.59L248.15,43.04L253.02,40.61L267.62,40.61L272.48,38.17L277.35,35.81L282.21,35.81L287.08,35.81L291.95,32.63L296.81,31.01L301.68,27.03L306.54,28.58L311.41,32.63L321.14,29.39L326.01,28.58L330.87,28.58L335.74,29.39L340.6,30.2L345.47,27.03L355.2,27.77L360.07,31.01L369.8,31.01L374.66,34.19L379.53,29.39L384.4,30.2L389.26,30.2L394.13,31.01L398.99,35L403.86,35.81L408.72,33.38L413.59,28.58L418.46,31.01L423.32,31.01L428.19,31.01L433.05,29.39L442.79,31.01L447.65,28.58L452.52,28.58L457.38,33.38L462.25,27.77L467.11,27.03L471.98,26.22L476.85,26.22L486.58,27.77L491.44,31.01L496.31,25.41L501.17,26.22L506.04,22.23L510.91,22.23L515.77,22.97L520.64,24.6L525.5,24.6L530.37,23.79L535.23,22.23L540.1,22.97L544.97,26.22L549.83,21.42L554.7,22.23L559.56,21.42L569.3,25.41L574.16,25.41L579.03,24.6L583.89,25.41L588.76,23.79L593.62,22.97L598.49,22.97L603.36,20.61L608.22,20.61L613.09,22.23L617.95,19.8L622.82,20.61L637.42,27.77L642.28,23.79L647.15,24.6L652.01,23.79L656.88,24.6L661.74,22.23L686.07,22.97L690.94,25.41L695.81,24.6L700.67,24.6L705.54,25.41L710.4,22.97L715.27,23.79L720.13,22.97L725,22.23" style="vector-effect: none; fill: none; stroke: rgb(255, 0, 0); stroke-opacity: 1; stroke-width: 2px; opacity: 1;"/></g><g class="points"/><g class="text"/></g><g class="trace scatter trace112210" style="stroke-miterlimit: 2; opacity: 1;"><g class="fills"/><g class="errorbars"/><g class="lines"><path class="js-line" d="M0,162.67L4.87,162.67L9.73,149.97L14.6,134.03L19.46,134.03L24.33,118.09L29.19,105.32L34.06,95.8L38.93,108.49L43.79,114.91L48.66,114.91L53.52,124.44L58.39,118.09L63.26,108.49L68.12,105.32L72.99,105.32L77.85,92.62L82.72,83.03L87.58,79.85L92.45,83.03L97.32,83.03L102.18,79.85L107.05,79.85L111.91,79.85L116.78,76.68L121.64,79.85L126.51,79.85L131.38,76.68L136.24,89.38L141.11,79.85L145.97,76.68L150.84,86.2L155.7,86.2L160.57,86.2L165.44,89.38L170.3,92.62L175.17,83.03L180.03,79.85L184.9,79.85L189.77,79.85L194.63,83.03L199.5,79.85L204.36,79.85L209.23,76.68L214.09,79.85L218.96,79.85L223.83,86.2L233.56,79.85L238.42,83.03L243.29,76.68L248.15,79.85L272.48,79.85L277.35,73.44L282.21,79.85L287.08,79.85L291.95,73.44L296.81,73.44L306.54,73.44L311.41,79.85L316.28,79.85L321.14,73.44L326.01,73.44L330.87,79.85L340.6,79.85L345.47,73.44L369.8,73.44L374.66,79.85L379.53,76.68L384.4,76.68L389.26,76.68L394.13,79.85L398.99,79.85L403.86,76.68L408.72,79.85L413.59,73.44L428.19,73.44L433.05,79.85L447.65,79.85L452.52,83.03L462.25,76.68L467.11,76.68L471.98,79.85L476.85,79.85L481.71,73.44L486.58,73.44L491.44,76.68L496.31,76.68L501.17,76.68L506.04,73.44L520.64,73.44L525.5,83.03L530.37,83.03L535.23,73.44L540.1,70.26L544.97,70.26L559.56,70.26L564.43,73.44L569.3,73.44L574.16,70.26L579.03,73.44L583.89,73.44L588.76,73.44L593.62,70.26L652.01,70.26L656.88,73.44L661.74,70.26L666.61,70.26L671.48,70.26L676.34,73.44L681.21,70.26L686.07,73.44L690.94,73.44L695.81,70.26L725,70.26" style="vector-effect: none; fill: none; stroke: rgb(0, 0, 255); stroke-opacity: 1; stroke-width: 2px; opacity: 1;"/></g><g class="points"/><g class="text"/></g><g class="trace scatter trace2af15c" style="stroke-miterlimit: 2; opacity: 1;"><g class="fills"/><g class="errorbars"/><g class="lines"><path class="js-line" d="M0,55.6L4.87,55.33L9.73,53.24L14.6,80.46L19.46,48.85L24.33,60.13L29.19,60.6L34.06,46.89L38.93,54.52L43.79,56.48L48.66,71.88L53.52,60.06L58.39,57.22L63.26,43.85L68.12,27.23L72.99,23.04L77.85,65.46L82.72,62.97L87.58,52.63L92.45,58.57L97.32,56.41L102.18,52.43L107.05,55.2L111.91,57.9L116.78,52.02L121.64,50.2L126.51,56.75L131.38,52.16L136.24,54.05L141.11,48.17L145.97,52.16L155.7,51.68L160.57,44.19L165.44,47.77L170.3,48.1L180.03,38.24L184.9,43.17L189.77,42.9L194.63,41.48L199.5,40.67L204.36,44.05L209.23,40.74L214.09,39.52L218.96,41.69L223.83,39.52L228.69,36.15L233.56,39.8L238.42,36.82L243.29,46.28L253.02,41.69L257.89,41.48L267.62,41.48L272.48,40.07L277.35,37.09L282.21,37.3L287.08,37.3L291.95,33.45L296.81,32.23L301.68,28.11L306.54,29.32L311.41,33.45L326.01,28.85L330.87,29.12L340.6,31.69L345.47,28.31L350.34,28.11L355.2,29.46L360.07,32.43L364.93,32.43L369.8,32.03L374.66,35.61L379.53,30.74L384.4,31.28L394.13,32.63L398.99,36.76L403.86,37.5L408.72,35.07L413.59,29.8L418.46,31.76L423.32,31.28L428.19,32.23L433.05,30.54L437.92,31.89L442.79,32.84L447.65,29.59L452.52,30L457.38,35.07L462.25,29.26L467.11,28.11L476.85,27.37L481.71,27.91L486.58,28.65L491.44,32.43L496.31,25.95L501.17,27.37L506.04,22.84L510.91,22.3L515.77,23.31L520.64,25.27L525.5,25.47L530.37,24.73L535.23,22.84L540.1,23.79L544.97,27.37L549.83,21.89L554.7,23.31L559.56,22.1L564.43,24.73L569.3,26.22L574.16,26.22L579.03,24.73L583.89,26.22L588.76,24.26L593.62,23.31L598.49,23.31L603.36,21.15L608.22,21.15L613.09,23.11L617.95,20.41L622.82,21.15L627.68,24.06L632.55,25.95L637.42,29.26L642.28,25L647.15,25.47L652.01,24.73L656.88,25.27L661.74,22.84L666.61,22.57L671.48,23.11L676.34,22.84L686.07,23.58L690.94,26.22L700.67,25L705.54,25.95L710.4,23.31L715.27,24.26L725,22.57" style="vector-effect: none; fill: none; stroke: rgb(0, 128, 0); stroke-opacity: 1; stroke-width: 2px; opacity: 1;"/></g><g class="points"/><g class="text"/></g><g class="trace scatter traceb41d79" style="stroke-miterlimit: 2; opacity: 1;"><g class="fills"/><g class="errorbars"/><g class="lines"><path class="js-line" d="M0,376.2L4.87,376.2L9.73,34.32L14.6,28.99L19.46,28.99L24.33,23.31L29.19,34.8L34.06,28.92L38.93,36.96L43.79,22.16L48.66,22.16L53.52,25.61L58.39,43.85L63.26,36.96L68.12,34.8L72.99,47.97L77.85,95.73L82.72,88.23L87.58,85.59L92.45,88.23L97.32,86.88L102.18,84.38L107.05,84.38L111.91,84.38L116.78,81.81L121.64,84.38L126.51,84.38L131.38,80.46L136.24,90.26L141.11,82.96L145.97,81.81L150.84,89.38L155.7,90.73L160.57,90.73L165.44,91.81L170.3,94.24L175.17,86.88L180.03,84.38L184.9,84.38L189.77,84.38L194.63,86.88L199.5,82.96L204.36,84.38L209.23,81.81L214.09,84.38L218.96,85.59L223.83,90.73L233.56,85.59L238.42,88.23L243.29,83.03L248.15,84.38L272.48,84.38L277.35,79.25L282.21,84.38L287.08,84.38L291.95,79.25L296.81,79.25L306.54,79.25L311.41,84.38L316.28,84.38L321.14,79.25L326.01,79.25L330.87,84.38L340.6,84.38L345.47,79.25L369.8,79.25L374.66,85.59L379.53,81.81L384.4,81.81L389.26,81.81L394.13,85.59L398.99,85.59L403.86,81.81L408.72,85.59L413.59,79.25L428.19,79.25L433.05,84.38L447.65,84.38L452.52,88.23L462.25,80.46L467.11,80.46L471.98,82.96L476.85,82.96L481.71,77.96L486.58,77.96L491.44,81.81L496.31,81.81L501.17,81.81L506.04,79.25L520.64,79.25L525.5,86.88L530.37,86.88L535.23,79.25L540.1,75.39L544.97,75.39L559.56,75.39L564.43,77.96L569.3,77.96L574.16,75.39L579.03,79.25L583.89,79.25L588.76,79.25L593.62,75.39L652.01,75.39L656.88,77.96L661.74,75.39L666.61,75.39L671.48,75.39L676.34,77.96L681.21,75.39L686.07,77.96L690.94,77.96L695.81,75.39L725,75.39" style="vector-effect: none; fill: none; stroke: rgb(255, 165, 0); stroke-opacity: 1; stroke-width: 2px; opacity: 1;"/></g><g class="points"/><g class="text"/></g><g class="trace scatter trace782bba" style="stroke-miterlimit: 2; opacity: 1;"><g class="fills"/><g class="errorbars"/><g class="lines"><path class="js-line" d="M0,250.96L4.87,250.01L9.73,241.44L14.6,219.35L19.46,224.21L24.33,174.69L29.19,150.17L34.06,120.11L38.93,150.98L43.79,186.92L48.66,203.81L53.52,211.31L58.39,155.78L63.26,135.04L68.12,81.68L72.99,71.81L77.85,71.21L82.72,68.64L87.58,59.05L92.45,66.68L97.32,61.82L102.18,57.29L107.05,59.32L111.91,61.41L116.78,55.8L121.64,54.45L126.51,61.28L131.38,55.53L136.24,56.62L141.11,51.01L145.97,55.53L150.84,54.05L155.7,56.35L160.57,48.78L165.44,53.85L170.3,53.31L175.17,48.37L180.03,43.17L184.9,50.13L189.77,50.4L194.63,48.51L199.5,45.81L204.36,49.05L214.09,45.33L218.96,48.24L228.69,42.09L233.56,46.82L238.42,43.04L243.29,51.95L248.15,50.54L253.02,48.24L267.62,48.51L272.48,44.59L277.35,42.77L282.21,42.5L287.08,42.5L291.95,39.73L296.81,37.57L301.68,33.31L306.54,35.47L311.41,39.73L321.14,36.69L326.01,36.01L335.74,35.67L340.6,36.35L345.47,33.04L350.34,33.31L355.2,33.51L360.07,37.3L369.8,37.84L374.66,40.88L379.53,35.67L384.4,36.89L389.26,36.08L394.13,37.03L398.99,41.28L403.86,42.23L408.72,39.66L413.59,34.93L418.46,38.11L423.32,38.65L433.05,35.94L437.92,36.08L442.79,36.76L447.65,35.2L452.52,34.73L457.38,39.66L462.25,33.72L467.11,33.31L471.98,32.09L476.85,32.36L486.58,34.53L491.44,37.3L496.31,32.23L501.17,32.36L506.04,28.65L510.91,29.19L520.64,31.28L525.5,31.01L535.23,28.65L540.1,29.32L544.97,32.36L549.83,27.97L559.56,27.7L564.43,30L569.3,31.96L574.16,31.96L583.89,31.96L588.76,30.54L598.49,29.87L603.36,27.03L608.22,27.03L613.09,28.38L617.95,26.08L622.82,27.03L632.55,30.47L637.42,33.72L642.28,29.8L647.15,31.01L652.01,30L656.88,31.28L661.74,28.65L666.61,28.92L671.48,28.38L676.34,28.65L681.21,28.65L686.07,29.59L690.94,31.96L695.81,31.01L705.54,32.23L710.4,29.87L715.27,30.54L720.13,29.32L725,28.92" style="vector-effect: none; fill: none; stroke: rgb(128, 0, 128); stroke-opacity: 1; stroke-width: 2px; opacity: 1;"/></g><g class="points"/><g class="text"/></g><g class="trace scatter trace37b396" style="stroke-miterlimit: 2; opacity: 1;"><g class="fills"/><g class="errorbars"/><g class="lines"><path class="js-line" d="M0,251.91L4.87,251.91L9.73,234.61L14.6,212.93L19.46,212.93L29.19,172.13L34.06,159.16L38.93,176.45L43.79,186.92L48.66,186.92L53.52,199.96L58.39,189.49L63.26,176.45L68.12,172.13L72.99,170.37L77.85,84.24L82.72,76.68L87.58,74.18L92.45,76.68L102.18,72.35L107.05,72.35L111.91,72.35L116.78,69.86L121.64,72.35L126.51,72.35L131.38,68.03L136.24,78.1L141.11,70.53L145.97,69.86L150.84,77.42L155.7,79.25L165.44,79.92L170.3,82.42L175.17,74.85L180.03,72.35L189.77,72.35L194.63,74.85L199.5,70.53L204.36,72.35L209.23,69.86L214.09,72.35L218.96,74.18L223.83,79.25L233.56,74.18L238.42,76.68L243.29,71.68L248.15,72.35L272.48,72.35L277.35,67.36L282.21,72.35L287.08,72.35L291.95,67.36L296.81,67.36L306.54,67.36L311.41,72.35L316.28,72.35L321.14,67.36L326.01,67.36L330.87,72.35L340.6,72.35L345.47,67.36L369.8,67.36L374.66,74.18L379.53,69.86L384.4,69.86L389.26,69.86L394.13,74.18L398.99,74.18L403.86,69.86L408.72,74.18L413.59,67.36L428.19,67.36L433.05,72.35L447.65,72.35L452.52,76.68L462.25,68.03L467.11,68.03L471.98,70.53L476.85,70.53L481.71,65.53L486.58,65.53L491.44,69.86L496.31,69.86L501.17,69.86L506.04,67.36L520.64,67.36L525.5,74.85L530.37,74.85L535.23,67.36L540.1,62.97L544.97,62.97L559.56,62.97L564.43,65.53L569.3,65.53L574.16,62.97L579.03,67.36L583.89,67.36L588.76,67.36L593.62,62.97L652.01,62.97L656.88,65.53L661.74,62.97L666.61,62.97L671.48,62.97L676.34,65.53L681.21,62.97L686.07,65.53L690.94,65.53L695.81,62.97L725,62.97" style="vector-effect: none; fill: none; stroke: rgb(255, 192, 203); stroke-opacity: 1; stroke-width: 2px; opacity: 1;"/></g><g class="points"/><g class="text"/></g><g class="trace scatter tracebe41d5" style="stroke-miterlimit: 2; opacity: 1;"><g class="fills"/><g class="errorbars"/><g class="lines"><path class="js-line" d="M0,339.45L4.87,337.36L9.73,319.12L14.6,272.51L19.46,284.87L24.33,196.78L29.19,160.04L34.06,121.13L38.93,161.86L43.79,217.12L48.66,244.41L53.52,259.4L58.39,168.41L63.26,140.85L68.12,76.61L72.99,66.01L77.85,69.18L82.72,66.61L87.58,56.75L92.45,63.98L97.32,59.79L102.18,55.4L107.05,57.7L111.91,59.99L116.78,54.25L121.64,52.7L126.51,59.52L131.38,54.12L136.24,55.53L141.11,49.79L145.97,54.12L150.84,52.97L155.7,54.52L160.57,46.96L165.44,51.62L170.3,51.35L175.17,46.35L180.03,41.21L184.9,47.63L189.77,47.77L194.63,45.94L199.5,43.78L204.36,47.09L214.09,43.11L218.96,45.81L228.69,39.8L233.56,44.32L238.42,40.67L243.29,49.79L248.15,48.24L253.02,45.81L267.62,45.94L272.48,42.77L277.35,40.61L282.21,40.47L287.08,40.47L291.95,37.36L296.81,35.47L301.68,31.28L306.54,33.18L311.41,37.36L321.14,34.19L326.01,33.38L335.74,33.72L340.6,34.46L345.47,31.15L350.34,31.28L355.2,31.82L360.07,35.34L369.8,35.61L374.66,38.78L379.53,33.72L384.4,34.73L389.26,34.39L394.13,35.27L398.99,39.46L403.86,40.34L408.72,37.77L413.59,32.9L418.46,35.67L423.32,35.94L428.19,35.47L433.05,33.78L442.79,35.13L447.65,33.04L452.52,32.84L457.38,37.77L462.25,31.96L467.11,31.28L471.98,30.27L476.85,30.41L486.58,32.23L491.44,35.34L496.31,29.8L501.17,30.41L506.04,26.35L510.91,26.62L515.77,27.37L520.64,28.92L525.5,28.85L530.37,27.97L535.23,26.35L540.1,27.16L544.97,30.41L549.83,25.61L554.7,26.15L559.56,25.47L569.3,29.73L574.16,29.73L579.03,29.19L583.89,29.73L593.62,27.37L598.49,27.37L603.36,24.73L608.22,24.73L613.09,26.28L617.95,23.85L622.82,24.73L627.68,27.03L632.55,28.58L637.42,31.96L642.28,27.84L647.15,28.85L652.01,27.97L656.88,28.92L661.74,26.35L666.61,26.49L681.21,26.35L686.07,27.3L690.94,29.73L695.81,28.85L705.54,29.8L710.4,27.37L715.27,28.18L720.13,27.16L725,26.49" style="vector-effect: none; fill: none; stroke: rgb(165, 42, 42); stroke-opacity: 1; stroke-width: 2px; opacity: 1;"/></g><g class="points"/><g class="text"/></g><g class="trace scatter trace39be1c" style="stroke-miterlimit: 2; opacity: 1;"><g class="fills"/><g class="errorbars"/><g class="lines"><path class="js-line" d="M0,328.04L4.87,328.04L9.73,292.03L14.6,251.16L19.46,251.16L29.19,183.07L34.06,164.36L38.93,189.56L43.79,207.25L48.66,207.25L53.52,228.6L63.26,189.56L68.12,183.07L72.99,179.36L77.85,96.74L82.72,87.76L87.58,84.78L92.45,87.76L97.32,87.22L102.18,84.24L107.05,84.24L111.91,84.24L116.78,81.2L121.64,84.24L126.51,84.24L131.38,80.66L136.24,92.76L141.11,83.7L145.97,81.2L150.84,90.26L155.7,90.73L160.57,90.73L165.44,93.23L170.3,96.2L175.17,87.22L180.03,84.24L184.9,84.24L189.77,84.24L194.63,87.22L199.5,83.7L204.36,84.24L209.23,81.2L214.09,84.24L218.96,84.78L223.83,90.73L233.56,84.78L238.42,87.76L243.29,81.74L248.15,84.24L272.48,84.24L277.35,78.23L282.21,84.24L287.08,84.24L291.95,78.23L296.81,78.23L306.54,78.23L311.41,84.24L316.28,84.24L321.14,78.23L326.01,78.23L330.87,84.24L340.6,84.24L345.47,78.23L369.8,78.23L374.66,84.78L379.53,81.2L384.4,81.2L389.26,81.2L394.13,84.78L398.99,84.78L403.86,81.2L408.72,84.78L413.59,78.23L428.19,78.23L433.05,84.24L447.65,84.24L452.52,87.76L462.25,80.66L467.11,80.66L471.98,83.7L476.85,83.7L481.71,77.69L486.58,77.69L491.44,81.2L496.31,81.2L501.17,81.2L506.04,78.23L520.64,78.23L525.5,87.22L530.37,87.22L535.23,78.23L540.1,74.65L544.97,74.65L559.56,74.65L564.43,77.69L569.3,77.69L574.16,74.65L579.03,78.23L583.89,78.23L588.76,78.23L593.62,74.65L652.01,74.65L656.88,77.69L661.74,74.65L666.61,74.65L671.48,74.65L676.34,77.69L681.21,74.65L686.07,77.69L690.94,77.69L695.81,74.65L725,74.65" style="vector-effect: none; fill: none; stroke: rgb(128, 128, 128); stroke-opacity: 1; stroke-width: 2px; opacity: 1;"/></g><g class="points"/><g class="text"/></g></g></g><g class="overplot"/><path class="xlines-above crisp" d="M0,0" style="fill: none;"/><path class="ylines-above crisp" d="M0,0" style="fill: none;"/><g class="overlines-above"/><g class="xaxislayer-above"><g class="xtick"><text text-anchor="middle" x="0" y="509" transform="translate(236.45,0)" style="font-family: 'Open Sans', verdana, arial, sans-serif; font-size: 12px; fill: rgb(42, 63, 95); fill-opacity: 1; white-space: pre; opacity: 1;">20</text></g><g class="xtick"><text text-anchor="middle" x="0" y="509" style="font-family: 'Open Sans', verdana, arial, sans-serif; font-size: 12px; fill: rgb(42, 63, 95); fill-opacity: 1; white-space: pre; opacity: 1;" transform="translate(333.77,0)">40</text></g><g class="xtick"><text text-anchor="middle" x="0" y="509" style="font-family: 'Open Sans', verdana, arial, sans-serif; font-size: 12px; fill: rgb(42, 63, 95); fill-opacity: 1; white-space: pre; opacity: 1;" transform="translate(431.08,0)">60</text></g><g class="xtick"><text text-anchor="middle" x="0" y="509" style="font-family: 'Open Sans', verdana, arial, sans-serif; font-size: 12px; fill: rgb(42, 63, 95); fill-opacity: 1; white-space: pre; opacity: 1;" transform="translate(528.4,0)">80</text></g><g class="xtick"><text text-anchor="middle" x="0" y="509" style="font-family: 'Open Sans', verdana, arial, sans-serif; font-size: 12px; fill: rgb(42, 63, 95); fill-opacity: 1; white-space: pre; opacity: 1;" transform="translate(625.71,0)">100</text></g><g class="xtick"><text text-anchor="middle" x="0" y="509" style="font-family: 'Open Sans', verdana, arial, sans-serif; font-size: 12px; fill: rgb(42, 63, 95); fill-opacity: 1; white-space: pre; opacity: 1;" transform="translate(723.03,0)">120</text></g><g class="xtick"><text text-anchor="middle" x="0" y="509" style="font-family: 'Open Sans', verdana, arial, sans-serif; font-size: 12px; fill: rgb(42, 63, 95); fill-opacity: 1; white-space: pre; opacity: 1;" transform="translate(820.34,0)">140</text></g></g><g class="yaxislayer-above"><g class="ytick"><text text-anchor="end" x="143" y="4.199999999999999" transform="translate(0,487.01)" style="font-family: 'Open Sans', verdana, arial, sans-serif; font-size: 12px; fill: rgb(42, 63, 95); fill-opacity: 1; white-space: pre; opacity: 1;">30</text></g><g class="ytick"><text text-anchor="end" x="143" y="4.199999999999999" style="font-family: 'Open Sans', verdana, arial, sans-serif; font-size: 12px; fill: rgb(42, 63, 95); fill-opacity: 1; white-space: pre; opacity: 1;" transform="translate(0,419.46)">40</text></g><g class="ytick"><text text-anchor="end" x="143" y="4.199999999999999" style="font-family: 'Open Sans', verdana, arial, sans-serif; font-size: 12px; fill: rgb(42, 63, 95); fill-opacity: 1; white-space: pre; opacity: 1;" transform="translate(0,351.90999999999997)">50</text></g><g class="ytick"><text text-anchor="end" x="143" y="4.199999999999999" style="font-family: 'Open Sans', verdana, arial, sans-serif; font-size: 12px; fill: rgb(42, 63, 95); fill-opacity: 1; white-space: pre; opacity: 1;" transform="translate(0,284.35)">60</text></g><g class="ytick"><text text-anchor="end" x="143" y="4.199999999999999" style="font-family: 'Open Sans', verdana, arial, sans-serif; font-size: 12px; fill: rgb(42, 63, 95); fill-opacity: 1; white-space: pre; opacity: 1;" transform="translate(0,216.8)">70</text></g><g class="ytick"><text text-anchor="end" x="143" y="4.199999999999999" style="font-family: 'Open Sans', verdana, arial, sans-serif; font-size: 12px; fill: rgb(42, 63, 95); fill-opacity: 1; white-space: pre; opacity: 1;" transform="translate(0,149.25)">80</text></g></g><g class="overaxes-above"/></g></g><g class="polarlayer"/><g class="smithlayer"/><g class="ternarylayer"/><g class="geolayer"/><g class="funnelarealayer"/><g class="pielayer"/><g class="iciclelayer"/><g class="treemaplayer"/><g class="sunburstlayer"/><g class="glimages"/><defs id="topdefs-b55cbb"><g class="clips"/><clipPath id="legendb55cbb"><rect width="128" height="162" x="0" y="0"/></clipPath></defs><g class="layer-above"><g class="imagelayer"/><g class="shapelayer"/></g><g class="infolayer"><g class="legend" pointer-events="all" transform="translate(883.5,100)"><rect class="bg" shape-rendering="crispEdges" width="128" height="162" x="0" y="0" style="stroke: rgb(68, 68, 68); stroke-opacity: 1; fill: rgb(255, 255, 255); fill-opacity: 1; stroke-width: 0px;"/><g class="scrollbox" transform="" clip-path="url(#legendb55cbb)"><g class="groups"><g class="traces" transform="translate(0,14.5)" style="opacity: 1;"><text class="legendtext" text-anchor="start" x="40" y="4.680000000000001" style="font-family: 'Open Sans', verdana, arial, sans-serif; font-size: 12px; fill: rgb(42, 63, 95); fill-opacity: 1; white-space: pre;">Train Accuracy</text><g class="layers" style="opacity: 1;"><g class="legendfill"/><g class="legendlines"><path class="js-line" d="M5,0h30" style="fill: none; stroke: rgb(255, 0, 0); stroke-opacity: 1; stroke-width: 2px;"/></g><g class="legendsymbols"><g class="legendpoints"/></g></g><rect class="legendtoggle" x="0" y="-9.5" width="122.71875" height="19" style="fill: rgb(0, 0, 0); fill-opacity: 0;"/></g><g class="traces" transform="translate(0,33.5)" style="opacity: 1;"><text class="legendtext" text-anchor="start" x="40" y="4.680000000000001" style="font-family: 'Open Sans', verdana, arial, sans-serif; font-size: 12px; fill: rgb(42, 63, 95); fill-opacity: 1; white-space: pre;">Test Accuracy</text><g class="layers" style="opacity: 1;"><g class="legendfill"/><g class="legendlines"><path class="js-line" d="M5,0h30" style="fill: none; stroke: rgb(0, 0, 255); stroke-opacity: 1; stroke-width: 2px;"/></g><g class="legendsymbols"><g class="legendpoints"/></g></g><rect class="legendtoggle" x="0" y="-9.5" width="122.71875" height="19" style="fill: rgb(0, 0, 0); fill-opacity: 0;"/></g><g class="traces" transform="translate(0,52.5)" style="opacity: 1;"><text class="legendtext" text-anchor="start" x="40" y="4.680000000000001" style="font-family: 'Open Sans', verdana, arial, sans-serif; font-size: 12px; fill: rgb(42, 63, 95); fill-opacity: 1; white-space: pre;">Train Precision</text><g class="layers" style="opacity: 1;"><g class="legendfill"/><g class="legendlines"><path class="js-line" d="M5,0h30" style="fill: none; stroke: rgb(0, 128, 0); stroke-opacity: 1; stroke-width: 2px;"/></g><g class="legendsymbols"><g class="legendpoints"/></g></g><rect class="legendtoggle" x="0" y="-9.5" width="122.71875" height="19" style="fill: rgb(0, 0, 0); fill-opacity: 0;"/></g><g class="traces" transform="translate(0,71.5)" style="opacity: 1;"><text class="legendtext" text-anchor="start" x="40" y="4.680000000000001" style="font-family: 'Open Sans', verdana, arial, sans-serif; font-size: 12px; fill: rgb(42, 63, 95); fill-opacity: 1; white-space: pre;">Test Precision</text><g class="layers" style="opacity: 1;"><g class="legendfill"/><g class="legendlines"><path class="js-line" d="M5,0h30" style="fill: none; stroke: rgb(255, 165, 0); stroke-opacity: 1; stroke-width: 2px;"/></g><g class="legendsymbols"><g class="legendpoints"/></g></g><rect class="legendtoggle" x="0" y="-9.5" width="122.71875" height="19" style="fill: rgb(0, 0, 0); fill-opacity: 0;"/></g><g class="traces" transform="translate(0,90.5)" style="opacity: 1;"><text class="legendtext" text-anchor="start" x="40" y="4.680000000000001" style="font-family: 'Open Sans', verdana, arial, sans-serif; font-size: 12px; fill: rgb(42, 63, 95); fill-opacity: 1; white-space: pre;">Train Recall</text><g class="layers" style="opacity: 1;"><g class="legendfill"/><g class="legendlines"><path class="js-line" d="M5,0h30" style="fill: none; stroke: rgb(128, 0, 128); stroke-opacity: 1; stroke-width: 2px;"/></g><g class="legendsymbols"><g class="legendpoints"/></g></g><rect class="legendtoggle" x="0" y="-9.5" width="122.71875" height="19" style="fill: rgb(0, 0, 0); fill-opacity: 0;"/></g><g class="traces" transform="translate(0,109.5)" style="opacity: 1;"><text class="legendtext" text-anchor="start" x="40" y="4.680000000000001" style="font-family: 'Open Sans', verdana, arial, sans-serif; font-size: 12px; fill: rgb(42, 63, 95); fill-opacity: 1; white-space: pre;">Test Recall</text><g class="layers" style="opacity: 1;"><g class="legendfill"/><g class="legendlines"><path class="js-line" d="M5,0h30" style="fill: none; stroke: rgb(255, 192, 203); stroke-opacity: 1; stroke-width: 2px;"/></g><g class="legendsymbols"><g class="legendpoints"/></g></g><rect class="legendtoggle" x="0" y="-9.5" width="122.71875" height="19" style="fill: rgb(0, 0, 0); fill-opacity: 0;"/></g><g class="traces" transform="translate(0,128.5)" style="opacity: 1;"><text class="legendtext" text-anchor="start" x="40" y="4.680000000000001" style="font-family: 'Open Sans', verdana, arial, sans-serif; font-size: 12px; fill: rgb(42, 63, 95); fill-opacity: 1; white-space: pre;">Train F1</text><g class="layers" style="opacity: 1;"><g class="legendfill"/><g class="legendlines"><path class="js-line" d="M5,0h30" style="fill: none; stroke: rgb(165, 42, 42); stroke-opacity: 1; stroke-width: 2px;"/></g><g class="legendsymbols"><g class="legendpoints"/></g></g><rect class="legendtoggle" x="0" y="-9.5" width="122.71875" height="19" style="fill: rgb(0, 0, 0); fill-opacity: 0;"/></g><g class="traces" transform="translate(0,147.5)" style="opacity: 1;"><text class="legendtext" text-anchor="start" x="40" y="4.680000000000001" style="font-family: 'Open Sans', verdana, arial, sans-serif; font-size: 12px; fill: rgb(42, 63, 95); fill-opacity: 1; white-space: pre;">Test F1</text><g class="layers" style="opacity: 1;"><g class="legendfill"/><g class="legendlines"><path class="js-line" d="M5,0h30" style="fill: none; stroke: rgb(128, 128, 128); stroke-opacity: 1; stroke-width: 2px;"/></g><g class="legendsymbols"><g class="legendpoints"/></g></g><rect class="legendtoggle" x="0" y="-9.5" width="122.71875" height="19" style="fill: rgb(0, 0, 0); fill-opacity: 0;"/></g></g></g><rect class="scrollbar" rx="20" ry="3" width="0" height="0" x="0" y="0" style="fill: rgb(128, 139, 164); fill-opacity: 1;"/></g><g class="g-gtitle"><text class="gtitle" x="51.2" y="50" text-anchor="start" dy="0em" style="font-family: 'Open Sans', verdana, arial, sans-serif; font-size: 17px; fill: rgb(42, 63, 95); opacity: 1; font-weight: normal; white-space: pre;">Training Metrics - logs/FakeNewsNet-politifact_max-vocab=15000_pre=v1_domain_T=150_s=10.log</text></g><g class="g-xtitle"><text class="xtitle" x="506.5" y="537.3" text-anchor="middle" style="font-family: 'Open Sans', verdana, arial, sans-serif; font-size: 14px; fill: rgb(42, 63, 95); opacity: 1; font-weight: normal; white-space: pre;">Epoch</text></g><g class="g-ytitle"><text class="ytitle" transform="rotate(-90,104.965625,298)" x="104.965625" y="298" text-anchor="middle" style="font-family: 'Open Sans', verdana, arial, sans-serif; font-size: 14px; fill: rgb(42, 63, 95); opacity: 1; font-weight: normal; white-space: pre;">Metric Score</text></g></g><g class="menulayer"><g class="updatemenu-container" style="cursor: pointer;"><g class="updatemenu-header-group" transform="translate(12,60)"><g class="updatemenu-header" transform="translate(1,1)" style="pointer-events: all;"><rect class="updatemenu-item-rect" rx="2" ry="2" shape-rendering="crispEdges" x="0" y="0" width="168" height="33" style="stroke: rgb(190, 200, 217); stroke-opacity: 1; fill: rgb(255, 255, 255); fill-opacity: 1; stroke-width: 1px;"/><text class="updatemenu-item-text" text-anchor="start" data-notex="1" x="12" y="19.5" style="font-family: 'Open Sans', verdana, arial, sans-serif; font-size: 12px; fill: rgb(42, 63, 95); fill-opacity: 1; white-space: pre;">All</text></g><text class="updatemenu-header-arrow" text-anchor="end" x="164" y="19.5" style="font-family: 'Open Sans', verdana, arial, sans-serif; font-size: 12px; fill: rgb(42, 63, 95); fill-opacity: 1;">▼</text></g><g class="updatemenu-dropdown-button-group" updatemenu-active-index="-1" style="pointer-events: all;"><rect class="scrollbox-bg" opacity="0" x="0" y="0" width="0" height="0" style="pointer-events: all;"/></g></g></g></svg>