<svg class="main-svg" xmlns="http://www.w3.org/2000/svg" xmlns:xlink="http://www.w3.org/1999/xlink" width="1024" height="576" style="" viewBox="0 0 1024 576"><rect x="0" y="0" width="1024" height="576" style="fill: rgb(255, 255, 255); fill-opacity: 1;"/><defs id="defs-bc8eea"><g class="clips"><clipPath id="clipbc8eeaxyplot" class="plotclip"><rect width="734" height="396"/></clipPath><clipPath class="axesclip" id="clipbc8eeax"><rect x="135" y="0" width="734" height="576"/></clipPath><clipPath class="axesclip" id="clipbc8eeay"><rect x="0" y="100" width="1024" height="396"/></clipPath><clipPath class="axesclip" id="clipbc8eeaxy"><rect x="135" y="100" width="734" height="396"/></clipPath></g><g class="gradients"/><g class="patterns"/></defs><g class="bglayer"><rect class="bg" x="135" y="100" width="734" height="396" style="fill: rgb(229, 236, 246); fill-opacity: 1; stroke-width: 0;"/></g><g class="layer-below"><g class="imagelayer"/><g class="shapelayer"/></g><g class="cartesianlayer"><g class="subplot xy"><g class="layer-subplot"><g class="shapelayer"/><g class="imagelayer"/></g><g class="minor-gridlayer"><g class="x"/><g class="y"/></g><g class="gridlayer"><g class="x"><path class="xgrid crisp" transform="translate(228.6,0)" d="M0,100v396" style="stroke: rgb(255, 255, 255); stroke-opacity: 1; stroke-width: 1px;"/><path class="xgrid crisp" transform="translate(327.12,0)" d="M0,100v396" style="stroke: rgb(255, 255, 255); stroke-opacity: 1; stroke-width: 1px;"/><path class="xgrid crisp" transform="translate(425.64,0)" d="M0,100v396" style="stroke: rgb(255, 255, 255); stroke-opacity: 1; stroke-width: 1px;"/><path class="xgrid crisp" transform="translate(524.1700000000001,0)" d="M0,100v396" style="stroke: rgb(255, 255, 255); stroke-opacity: 1; stroke-width: 1px;"/><path class="xgrid crisp" transform="translate(622.69,0)" d="M0,100v396" style="stroke: rgb(255, 255, 255); stroke-opacity: 1; stroke-width: 1px;"/><path class="xgrid crisp" transform="translate(721.21,0)" d="M0,100v396" style="stroke: rgb(255, 255, 255); stroke-opacity: 1; stroke-width: 1px;"/><path class="xgrid crisp" transform="translate(819.74,0)" d="M0,100v396" style="stroke: rgb(255, 255, 255); stroke-opacity: 1; stroke-width: 1px;"/></g><g class="y"><path class="ygrid crisp" transform="translate(0,464.75)" d="M135,0h734" style="stroke: rgb(255, 255, 255); stroke-opacity: 1; stroke-width: 1px;"/><path class="ygrid crisp" transform="translate(0,421.52)" d="M135,0h734" style="stroke: rgb(255, 255, 255); stroke-opacity: 1; stroke-width: 1px;"/><path class="ygrid crisp" transform="translate(0,378.29)" d="M135,0h734" style="stroke: rgb(255, 255, 255); stroke-opacity: 1; stroke-width: 1px;"/><path class="ygrid crisp" transform="translate(0,335.07)" d="M135,0h734" style="stroke: rgb(255, 255, 255); stroke-opacity: 1; stroke-width: 1px;"/><path class="ygrid crisp" transform="translate(0,291.84000000000003)" d="M135,0h734" style="stroke: rgb(255, 255, 255); stroke-opacity: 1; stroke-width: 1px;"/><path class="ygrid crisp" transform="translate(0,248.61)" d="M135,0h734" style="stroke: rgb(255, 255, 255); stroke-opacity: 1; stroke-width: 1px;"/><path class="ygrid crisp" transform="translate(0,205.39)" d="M135,0h734" style="stroke: rgb(255, 255, 255); stroke-opacity: 1; stroke-width: 1px;"/><path class="ygrid crisp" transform="translate(0,162.16)" d="M135,0h734" style="stroke: rgb(255, 255, 255); stroke-opacity: 1; stroke-width: 1px;"/><path class="ygrid crisp" transform="translate(0,118.94)" d="M135,0h734" style="stroke: rgb(255, 255, 255); stroke-opacity: 1; stroke-width: 1px;"/></g></g><g class="zerolinelayer"/><path class="xlines-below"/><path class="ylines-below"/><g class="overlines-below"/><g class="xaxislayer-below"/><g class="yaxislayer-below"/><g class="overaxes-below"/><g class="plot" transform="translate(135,100)" clip-path="url(#clipbc8eeaxyplot)"><g class="scatterlayer mlayer"><g class="trace scatter tracecf3fad" style="stroke-miterlimit: 2; opacity: 1;"><g class="fills"/><g class="errorbars"/><g class="lines"><path class="js-line" d="M0,120.73L4.93,148.4L9.85,63.03L14.78,52.22L19.7,68L24.63,61.08L29.56,39.68L39.41,50.71L44.34,65.19L49.26,85.5L54.19,62.59L59.11,84.86L64.04,96.96L68.97,151.86L73.89,98.69L78.82,75.35L83.74,91.34L88.67,85.72L93.6,87.88L98.52,119.65L103.45,127.87L108.38,119.22L113.3,150.99L123.15,118.79L128.08,140.18L133.01,99.98L137.93,74.7L142.86,79.67L147.79,62.59L162.56,50.49L167.49,83.77L172.42,86.37L177.34,67.78L182.27,89.39L187.19,69.29L192.12,87.45L197.05,77.29L201.97,60.86L206.9,73.62L211.83,118.57L216.75,71.02L221.68,98.26L226.6,60L231.53,77.29L236.46,81.18L246.31,55.46L251.23,120.52L256.16,132.4L261.09,104.52L266.01,87.88L270.94,86.37L275.87,48.33L280.79,58.06L285.72,87.23L290.64,61.95L295.57,89.61L300.5,43.14L305.42,26.28L310.35,23.04L315.28,38.39L320.2,44.66L325.13,66.92L330.05,123.33L334.98,99.12L339.91,124.41L344.83,141.27L349.76,71.67L354.68,72.75L359.61,76.21L364.54,40.12L369.46,45.09L374.39,41.41L379.32,51.79L384.24,82.69L389.17,63.24L394.09,61.73L399.02,53.52L403.95,112.52L408.87,92.42L413.8,65.62L418.72,48.11L423.65,29.96L428.58,50.49L433.5,45.74L438.43,46.6L443.36,77.94L448.28,67.78L453.21,83.99L458.13,104.74L463.06,145.16L467.99,111.01L472.91,114.9L477.84,56.11L482.77,42.49L487.69,66.05L492.62,44.01L497.54,48.98L502.47,73.4L507.4,90.69L512.32,98.9L517.25,49.84L522.17,125.06L527.1,82.05L532.03,53.95L536.95,193.35L541.88,108.63L546.81,53.52L551.73,68.86L556.66,55.68L561.58,104.31L566.51,31.04L571.44,68L576.36,23.26L581.29,21.31L586.21,24.99L591.14,29.53L596.07,49.84L600.99,112.74L605.92,155.31L610.85,71.67L615.77,109.49L620.7,54.81L625.62,107.33L630.55,122.46L635.48,53.08L640.4,43.36L645.33,55.68L655.18,53.3L660.11,39.68L665.03,48.33L669.96,46.6L674.89,33.85L679.81,31.25L684.74,38.82L689.66,102.36L694.59,109.28L699.52,43.14L704.44,50.92L709.37,48.76L714.3,48.55L719.22,54.81L724.15,48.76L729.07,86.15L734,37.74" style="vector-effect: none; fill: none; stroke: rgb(255, 0, 0); stroke-opacity: 1; stroke-width: 2px; opacity: 1;"/></g><g class="points"/><g class="text"/></g><g class="trace scatter trace351d49" style="stroke-miterlimit: 2; opacity: 1;"><g class="fills"/><g class="errorbars"/><g class="lines"><path class="js-line" d="M0,134.13L4.93,171.31L9.85,82.91L14.78,64.32L19.7,82.26L24.63,58.49L29.56,45.3L34.48,54.16L39.41,55.03L44.34,71.24L49.26,95.01L54.19,75.13L59.11,95.01L64.04,120.52L68.97,179.09L73.89,117.92L78.82,93.07L83.74,106.68L88.67,95.01L93.6,98.9L98.52,125.27L103.45,146.89L108.38,136.94L113.3,152.07L118.23,157.04L123.15,143.86L128.08,158.99L133.01,107.33L137.93,85.29L142.86,85.29L147.79,67.78L152.71,66.7L157.64,64.32L162.56,56.11L167.49,86.8L172.42,81.4L177.34,70.59L182.27,98.04L187.19,74.05L192.12,100.42L197.05,80.32L201.97,65.19L206.9,87.23L211.83,120.95L216.75,80.97L221.68,113.6L226.6,64.76L231.53,85.29L236.46,82.91L246.31,63.89L251.23,125.7L256.16,139.97L261.09,113.6L266.01,106.25L270.94,102.79L275.87,57.41L280.79,58.49L285.72,83.77L290.64,65.19L295.57,86.37L300.5,41.85L305.42,27.15L310.35,19.8L315.28,44.22L320.2,52.65L325.13,68.21L330.05,128.3L334.98,103.87L339.91,136.94L344.83,155.53L349.76,69.29L354.68,75.56L359.61,79.88L364.54,51.57L369.46,48.11L374.39,39.9L379.32,60.43L384.24,87.67L389.17,71.67L394.09,71.24L399.02,56.54L403.95,128.3L408.87,99.98L413.8,66.7L418.72,60.43L423.65,33.63L428.58,40.98L433.5,45.74L438.43,56.54L443.36,83.34L448.28,81.4L453.21,92.64L458.13,100.85L463.06,134.13L467.99,99.55L472.91,110.14L477.84,66.27L482.77,51.57L487.69,77.94L492.62,59.35L497.54,70.16L507.4,113.6L512.32,120.95L517.25,66.7L522.17,145.37L532.03,65.19L536.95,191.19L541.88,117.06L546.81,58.92L551.73,73.18L556.66,68.65L561.58,111.22L566.51,34.5L571.44,70.16L576.36,31.69L581.29,26.72L586.21,32.12L591.14,34.93L596.07,53.08L600.99,110.58L605.92,158.12L610.85,72.54L615.77,117.49L620.7,70.16L625.62,125.27L630.55,119.87L635.48,54.16L640.4,46.17L645.33,60.86L650.26,62.81L655.18,63.24L660.11,43.79L665.03,57.41L669.96,50.06L674.89,34.93L679.81,31.04L684.74,44.22L689.66,100.85L694.59,98.9L699.52,38.39L704.44,56.11L709.37,50.06L714.3,45.3L719.22,57.41L724.15,52.65L729.07,94.58L734,47.68" style="vector-effect: none; fill: none; stroke: rgb(0, 0, 255); stroke-opacity: 1; stroke-width: 2px; opacity: 1;"/></g><g class="points"/><g class="text"/></g><g class="trace scatter trace266056" style="stroke-miterlimit: 2; opacity: 1;"><g class="fills"/><g class="errorbars"/><g class="lines"><path class="js-line" d="M0,315.47L4.93,345.73L9.85,213.02L14.78,197.03L19.7,226.85L24.63,215.18L29.56,163.31L34.48,179.09L39.41,183.84L49.26,260.35L54.19,220.37L59.11,257.33L64.04,273.97L68.97,328.87L73.89,278.94L78.82,244.14L83.74,267.27L88.67,260.35L93.6,263.81L98.52,307.25L103.45,314.82L108.38,306.17L113.3,336.65L123.15,300.99L128.08,324.33L133.01,279.59L137.93,243.5L142.86,250.84L147.79,223.4L152.71,215.83L157.64,205.24L162.56,200.05L167.49,257.54L172.42,259.27L177.34,232.47L182.27,263.16L187.19,234.2L192.12,261L197.05,247.17L201.97,220.59L206.9,241.55L211.83,302.07L216.75,237.44L221.68,274.83L226.6,219.72L231.53,247.17L236.46,252.79L241.38,234.42L246.31,210.64L251.23,303.8L256.16,315.9L261.09,285.21L266.01,263.16L270.94,261.65L275.87,194.65L280.79,215.4L285.72,261.65L290.64,222.31L295.57,265.54L300.5,179.95L305.42,128.08L310.35,133.7L315.28,173.69L320.2,189.68L325.13,230.74L330.05,305.96L334.98,275.48L339.91,306.39L344.83,323.25L349.76,238.74L354.68,240.25L359.61,245.44L364.54,179.09L369.46,191.62L374.39,177.36L379.32,204.59L384.24,254.73L389.17,224.26L394.09,221.23L399.02,207.62L403.95,291.69L408.87,268.57L413.8,228.8L418.72,194.87L423.65,149.05L428.58,197.46L433.5,190.11L438.43,193.79L443.36,248.25L448.28,232.04L453.21,256.46L458.13,283.48L463.06,326.71L467.99,295.15L472.91,301.2L477.84,210L482.77,183.41L487.69,229.66L492.62,190.76L497.54,197.03L502.47,241.12L507.4,265.11L512.32,275.48L517.25,203.94L522.17,305.74L527.1,253.22L532.03,209.56L536.95,359.34L541.88,288.23L546.81,207.4L551.73,233.99L556.66,212.16L561.58,285.86L566.51,159.2L571.44,233.12L576.36,140.18L581.29,138.02L586.21,140.18L591.14,149.48L596.07,198.32L600.99,296.02L605.92,335.78L610.85,238.09L615.77,292.99L620.7,211.72L625.62,287.15L630.55,304.44L635.48,203.94L640.4,186L645.33,212.16L650.26,211.51L655.18,207.62L660.11,173.04L665.03,194.22L669.96,194.43L674.89,163.31L679.81,158.34L684.74,176.06L689.66,281.53L694.59,294.29L699.52,181.25L704.44,201.57L709.37,196.38L714.3,194L719.22,210L724.15,196.38L729.07,261L734,170.88" style="vector-effect: none; fill: none; stroke: rgb(0, 128, 0); stroke-opacity: 1; stroke-width: 2px; opacity: 1;"/></g><g class="points"/><g class="text"/></g><g class="trace scatter trace5113f5" style="stroke-miterlimit: 2; opacity: 1;"><g class="fills"/><g class="errorbars"/><g class="lines"><path class="js-line" d="M0,333.41L4.93,368.85L9.85,251.49L14.78,220.15L19.7,252.57L24.63,208.7L29.56,175.2L34.48,196.38L39.41,190.54L49.26,274.4L54.19,241.12L59.11,270.3L64.04,304.88L68.97,358.48L73.89,304.88L78.82,269.86L83.74,287.15L88.67,272.67L93.6,278.94L98.52,312.23L103.45,338.59L108.38,328L113.3,335.57L118.23,344L123.15,332.33L128.08,346.16L133.01,287.59L137.93,258.19L142.86,258.41L147.79,230.74L152.71,228.37L157.64,221.67L162.56,208.7L167.49,260.35L172.42,250.41L177.34,235.71L182.27,273.54L187.19,240.69L192.12,277.43L201.97,226.85L206.9,261.22L211.83,301.85L216.75,251.28L221.68,292.56L226.6,226.21L231.53,257.98L236.46,254.09L246.31,223.4L251.23,310.71L256.16,325.63L261.09,296.23L266.01,288.23L270.94,284.99L275.87,210L280.79,214.97L285.72,255.17L290.64,226.42L295.57,259.06L300.5,178.44L305.42,131.97L310.35,129.16L315.28,184.06L320.2,202.43L325.13,231.82L330.05,308.12L334.98,278.51L339.91,318.06L344.83,334.05L349.76,233.34L354.68,243.06L359.61,249.33L364.54,201.13L369.46,196.6L374.39,174.33L379.32,218.64L384.24,260.57L389.17,236.58L394.09,235.71L399.02,211.08L403.95,310.71L408.87,278.08L413.8,229.45L418.72,216.26L423.65,152.72L428.58,175.63L433.5,187.73L438.43,209.78L443.36,254.95L448.28,252.36L453.21,267.27L458.13,276.35L463.06,310.93L467.99,277.43L472.91,292.56L477.84,226.85L482.77,198.76L487.69,246.95L492.62,216.26L497.54,233.34L502.47,268.13L507.4,294.93L512.32,302.72L517.25,229.66L522.17,330.16L527.1,283.26L532.03,226.85L536.95,358.26L541.88,297.74L546.81,215.61L551.73,239.39L556.66,232.26L561.58,293.64L566.51,165.04L571.44,234.85L576.36,157.69L581.29,147.97L586.21,155.53L591.14,158.56L596.07,202.21L600.99,293.42L605.92,336.86L610.85,238.31L615.77,303.15L620.7,234.85L625.62,311.36L630.55,300.99L635.48,204.16L640.4,190.11L645.33,219.72L650.26,222.96L655.18,222.96L660.11,179.95L665.03,210.21L669.96,199.19L674.89,163.53L679.81,155.31L684.74,184.06L689.66,278.72L694.59,278.08L699.52,169.79L704.44,208.7L714.3,184.28L719.22,211.94L724.15,200.7L729.07,272.24L734,188.6" style="vector-effect: none; fill: none; stroke: rgb(255, 165, 0); stroke-opacity: 1; stroke-width: 2px; opacity: 1;"/></g><g class="points"/><g class="text"/></g><g class="trace scatter tracec2e0a8" style="stroke-miterlimit: 2; opacity: 1;"><g class="fills"/><g class="errorbars"/><g class="lines"><path class="js-line" d="M0,364.96L4.93,358.26L9.85,356.53L14.78,328.44L19.7,347.89L24.63,332.76L29.56,334.49L34.48,334.7L39.41,352.43L44.34,332.97L49.26,328.44L54.19,322.38L59.11,286.94L64.04,296.45L68.97,297.31L73.89,317.84L78.82,302.07L83.74,300.55L88.67,317.2L93.6,320.87L98.52,329.73L103.45,324.11L108.38,327.57L113.3,321.95L118.23,311.14L123.15,305.53L128.08,314.17L133.01,308.55L137.93,307.04L142.86,315.68L147.79,297.96L152.71,303.15L157.64,313.31L162.56,302.28L167.49,312.23L172.42,286.51L177.34,284.56L182.27,287.37L187.19,310.5L192.12,291.69L197.05,298.61L201.97,296.23L206.9,308.33L211.83,311.58L216.75,292.99L221.68,292.56L226.6,290.83L231.53,297.74L236.46,293.21L241.38,305.96L246.31,299.26L251.23,309.63L256.16,310.06L266.01,307.47L270.94,318.49L280.79,296.02L285.72,299.26L290.64,299.26L295.57,307.04L305.42,328.22L310.35,305.31L315.28,303.8L320.2,296.88L325.13,296.23L330.05,307.25L334.98,289.96L339.91,304.23L344.83,306.82L349.76,296.66L354.68,304.66L359.61,299.04L364.54,299.26L369.46,293.21L374.39,312.87L379.32,294.29L384.24,292.77L389.17,303.58L394.09,303.36L399.02,295.37L403.95,294.72L408.87,299.26L413.8,296.23L418.72,304.44L423.65,311.79L428.58,313.09L433.5,303.15L438.43,296.02L443.36,298.61L448.28,299.04L453.21,291.91L458.13,296.88L463.06,307.47L467.99,320.65L472.91,327.35L477.84,309.2L487.69,296.23L492.62,285.86L497.54,304.01L502.47,292.13L507.4,287.8L512.32,290.83L517.25,270.73L522.17,299.47L527.1,282.4L532.03,286.29L536.95,303.58L541.88,299.04L546.81,294.72L551.73,295.15L556.66,290.61L561.58,315.03L566.51,297.1L571.44,284.13L576.36,295.37L581.29,290.4L586.21,304.23L591.14,309.2L596.07,304.23L600.99,314.6L605.92,309.42L610.85,308.55L615.77,319.14L620.7,279.16L625.62,301.42L630.55,304.66L635.48,309.2L640.4,300.34L645.33,291.04L650.26,284.13L655.18,291.04L660.11,313.95L665.03,308.55L669.96,292.13L674.89,303.36L679.81,300.77L684.74,300.12L689.66,303.36L694.59,327.79L699.52,313.95L704.44,300.77L709.37,303.15L714.3,311.79L719.22,295.15L729.07,312.66L734,307.9" style="vector-effect: none; fill: none; stroke: rgb(128, 0, 128); stroke-opacity: 1; stroke-width: 2px; opacity: 1;"/></g><g class="points"/><g class="text"/></g><g class="trace scatter traceabd7a2" style="stroke-miterlimit: 2; opacity: 1;"><g class="fills"/><g class="errorbars"/><g class="lines"><path class="js-line" d="M0,376.2L4.93,367.34L9.85,370.8L14.78,332.97L19.7,354.37L24.63,329.08L29.56,335.57L34.48,337.3L39.41,357.18L44.34,340.75L49.26,340.11L54.19,331.68L59.11,295.15L64.04,320.01L68.97,324.76L73.89,332.97L78.82,315.25L83.74,310.5L88.67,315.03L93.6,323.9L98.52,328.22L103.45,343.78L108.38,340.75L113.3,318.93L118.23,331.03L128.08,332.97L133.01,309.42L137.93,307.9L142.86,312.87L147.79,297.74L152.71,307.47L157.64,324.54L162.56,306.61L167.49,310.28L172.42,275.7L177.34,281.75L182.27,292.13L187.19,310.28L192.12,297.96L197.05,293.64L201.97,293.42L206.9,311.36L211.83,304.44L221.68,298.39L226.6,292.34L231.53,303.8L236.46,298.18L241.38,314.17L246.31,306.39L251.23,319.57L256.16,321.95L261.09,315.68L266.01,321.73L270.94,331.24L275.87,314.6L280.79,294.5L285.72,293.21L290.64,300.99L295.57,299.69L300.5,307.69L305.42,323.03L310.35,295.37L315.28,307.25L320.2,303.8L325.13,289.75L330.05,299.69L334.98,282.18L339.91,305.53L344.83,305.96L349.76,275.27L354.68,291.26L359.61,289.96L364.54,300.99L369.46,290.4L374.39,306.39L379.32,292.99L384.24,292.99L389.17,309.42L394.09,311.79L399.02,297.31L403.95,309.42L408.87,306.61L413.8,291.69L418.72,310.93L423.65,318.93L428.58,309.2L433.5,305.53L438.43,304.88L443.36,303.36L448.28,311.58L453.21,296.88L458.13,287.8L463.06,290.4L467.99,306.17L472.91,318.28L477.84,314.17L482.77,311.36L492.62,297.96L497.54,319.57L502.47,303.8L507.4,309.42L512.32,307.9L517.25,282.62L522.17,320.65L527.1,298.39L532.03,295.58L536.95,305.09L541.88,304.66L546.81,296.88L551.73,293.85L556.66,301.2L561.58,317.41L566.51,298.18L571.44,281.53L576.36,298.83L581.29,293.64L586.21,306.17L591.14,315.03L596.07,308.98L600.99,319.14L605.92,308.98L610.85,306.61L615.77,327.79L620.7,293.85L625.62,324.76L630.55,305.31L635.48,309.63L640.4,300.99L645.33,290.61L650.26,292.56L655.18,301.85L660.11,315.9L665.03,313.95L669.96,296.02L674.89,304.66L679.81,301.42L684.74,307.25L689.66,303.15L694.59,317.63L699.52,308.98L704.44,305.96L709.37,310.5L714.3,313.52L719.22,303.58L724.15,311.36L729.07,319.57L734,316.33" style="vector-effect: none; fill: none; stroke: rgb(255, 192, 203); stroke-opacity: 1; stroke-width: 2px; opacity: 1;"/></g><g class="points"/><g class="text"/></g><g class="trace scatter traced82171" style="stroke-miterlimit: 2; opacity: 1;"><g class="fills"/><g class="errorbars"/><g class="lines"><path class="js-line" d="M0,345.29L4.93,352.43L9.85,314.82L14.78,286.94L19.7,309.63L24.63,294.29L29.56,286.07L34.48,288.88L39.41,306.17L44.34,296.45L49.26,302.5L59.11,273.75L64.04,286.07L68.97,315.68L73.89,301.2L78.82,278.72L83.74,285.86L88.67,294.5L93.6,298.18L98.52,319.57L103.45,319.79L108.38,317.84L113.3,329.73L118.23,314.6L123.15,303.36L128.08,319.57L133.01,295.8L137.93,281.97L142.86,290.4L147.79,269.22L152.71,270.94L157.64,276.13L162.56,265.97L167.49,290.18L172.42,274.19L177.34,262.95L182.27,276.35L187.19,281.53L192.12,278.08L197.05,277.21L201.97,267.05L206.9,282.18L211.83,307.04L216.75,270.3L221.68,284.34L226.6,262.95L231.53,276.78L236.46,275.92L241.38,278.29L246.31,266.41L251.23,306.82L256.16,313.09L261.09,298.18L266.01,288.88L270.94,295.8L275.87,268.35L280.79,265.54L285.72,283.05L290.64,269.86L295.57,289.32L300.5,273.97L305.42,274.62L310.35,254.3L315.28,260.79L320.2,259.06L325.13,270.3L330.05,306.61L334.98,283.05L339.91,305.31L344.83,315.68L349.76,273.11L354.68,279.16L359.61,277L364.54,258.41L369.46,256.68L374.39,269.43L379.32,261L384.24,276.13L389.17,273.54L394.09,272.67L399.02,262.73L403.95,293.21L408.87,285.64L413.8,269.65L418.72,266.41L423.65,262.73L428.58,273.97L433.5,264.24L438.43,259.49L443.36,277.64L448.28,272.67L453.21,276.35L458.13,290.4L463.06,318.06L467.99,309.2L472.91,315.68L477.84,273.97L482.77,262.52L487.69,269.86L492.62,250.84L497.54,266.62L502.47,270.94L507.4,277.43L512.32,283.48L517.25,243.93L522.17,302.72L527.1,269.22L532.03,256.46L536.95,340.97L541.88,293.85L546.81,262.3L551.73,270.51L556.66,260.57L561.58,302.07L566.51,252.14L571.44,262.73L576.36,246.52L581.29,241.77L586.21,254.3L596.07,267.05L600.99,305.96L605.92,324.33L610.85,281.32L615.77,307.47L620.7,252.14L625.62,294.72L630.55,304.66L635.48,272.46L640.4,260.79L645.33,260.79L650.26,255.6L655.18,259.49L660.11,269.43L665.03,269.65L669.96,256.68L674.89,258.41L679.81,254.95L684.74,258.41L689.66,293.21L694.59,313.31L699.52,271.16L704.44,265.32L709.37,265.76L714.3,272.24L719.22,263.38L724.15,266.19L729.07,291.48L734,263.81" style="vector-effect: none; fill: none; stroke: rgb(165, 42, 42); stroke-opacity: 1; stroke-width: 2px; opacity: 1;"/></g><g class="points"/><g class="text"/></g><g class="trace scatter trace4a4605" style="stroke-miterlimit: 2; opacity: 1;"><g class="fills"/><g class="errorbars"/><g class="lines"><path class="js-line" d="M0,358.91L4.93,368.2L9.85,334.49L14.78,295.58L19.7,320.65L24.63,289.75L29.56,289.1L34.48,294.5L39.41,311.79L44.34,304.88L49.26,315.03L59.11,283.91L64.04,313.09L68.97,344.86L73.89,320.65L78.82,296.23L83.74,299.91L88.67,297.1L93.6,305.09L98.52,320.65L103.45,341.19L113.3,328L118.23,337.94L123.15,332.11L128.08,340.11L133.01,299.47L137.93,287.37L142.86,290.83L147.79,271.38L152.71,277.64L157.64,289.1L162.56,271.81L167.49,289.75L172.42,264.24L177.34,262.08L182.27,283.48L187.19,283.48L192.12,288.45L197.05,275.27L201.97,267.05L206.9,290.61L211.83,303.15L216.75,280.45L221.68,295.58L226.6,266.19L231.53,284.56L236.46,279.37L241.38,285.86L246.31,275.27L251.23,315.25L256.16,323.68L261.09,306.61L266.01,307.25L270.94,312.23L275.87,278.29L280.79,264.24L285.72,276.78L290.64,272.46L295.57,282.18L300.5,265.32L305.42,270.3L310.35,244.58L315.28,266.19L320.2,267.92L325.13,266.19L330.05,304.01L334.98,280.45L339.91,312.01L344.83,321.95L349.76,257.11L354.68,270.94L359.61,272.46L364.54,265.32L369.46,256.03L374.39,263.38L379.32,264.24L384.24,278.72L389.17,281.53L394.09,283.05L399.02,265.32L403.95,310.06L408.87,293.85L413.8,266.62L418.72,277L423.65,269.86L428.58,265.97L433.5,265.54L438.43,270.73L443.36,283.26L448.28,288.02L453.21,283.7L458.13,282.4L463.06,301.63L467.99,293.42L472.91,306.61L477.84,282.18L482.77,273.11L487.69,281.32L492.62,267.05L497.54,288.02L502.47,288.23L507.4,302.5L512.32,305.31L517.25,260.57L522.17,325.63L527.1,291.26L532.03,268.57L536.95,340.11L541.88,301.42L546.81,266.19L551.73,271.38L556.66,274.19L561.58,306.61L566.51,254.3L571.44,261.65L576.36,253.44L581.29,246.95L586.21,259.27L591.14,267.49L596.07,271.81L600.99,307.69L605.92,324.98L610.85,280.02L615.77,316.76L620.7,270.08L625.62,318.49L630.55,303.15L635.48,272.89L640.4,262.52L645.33,262.73L650.26,265.11L655.18,272.02L660.11,272.67L665.03,277.86L669.96,261L674.89,259.49L679.81,254.95L684.74,266.19L689.66,292.13L694.59,300.77L699.52,264.46L704.44,271.16L709.37,271.59L714.3,271.38L719.22,270.08L724.15,273.54L729.07,300.12L734,274.83" style="vector-effect: none; fill: none; stroke: rgb(128, 128, 128); stroke-opacity: 1; stroke-width: 2px; opacity: 1;"/></g><g class="points"/><g class="text"/></g></g></g><g class="overplot"/><path class="xlines-above crisp" d="M0,0" style="fill: none;"/><path class="ylines-above crisp" d="M0,0" style="fill: none;"/><g class="overlines-above"/><g class="xaxislayer-above"><g class="xtick"><text text-anchor="middle" x="0" y="509" transform="translate(228.6,0)" style="font-family: 'Open Sans', verdana, arial, sans-serif; font-size: 12px; fill: rgb(42, 63, 95); fill-opacity: 1; white-space: pre; opacity: 1;">20</text></g><g class="xtick"><text text-anchor="middle" x="0" y="509" style="font-family: 'Open Sans', verdana, arial, sans-serif; font-size: 12px; fill: rgb(42, 63, 95); fill-opacity: 1; white-space: pre; opacity: 1;" transform="translate(327.12,0)">40</text></g><g class="xtick"><text text-anchor="middle" x="0" y="509" style="font-family: 'Open Sans', verdana, arial, sans-serif; font-size: 12px; fill: rgb(42, 63, 95); fill-opacity: 1; white-space: pre; opacity: 1;" transform="translate(425.64,0)">60</text></g><g class="xtick"><text text-anchor="middle" x="0" y="509" style="font-family: 'Open Sans', verdana, arial, sans-serif; font-size: 12px; fill: rgb(42, 63, 95); fill-opacity: 1; white-space: pre; opacity: 1;" transform="translate(524.1700000000001,0)">80</text></g><g class="xtick"><text text-anchor="middle" x="0" y="509" style="font-family: 'Open Sans', verdana, arial, sans-serif; font-size: 12px; fill: rgb(42, 63, 95); fill-opacity: 1; white-space: pre; opacity: 1;" transform="translate(622.69,0)">100</text></g><g class="xtick"><text text-anchor="middle" x="0" y="509" style="font-family: 'Open Sans', verdana, arial, sans-serif; font-size: 12px; fill: rgb(42, 63, 95); fill-opacity: 1; white-space: pre; opacity: 1;" transform="translate(721.21,0)">120</text></g><g class="xtick"><text text-anchor="middle" x="0" y="509" style="font-family: 'Open Sans', verdana, arial, sans-serif; font-size: 12px; fill: rgb(42, 63, 95); fill-opacity: 1; white-space: pre; opacity: 1;" transform="translate(819.74,0)">140</text></g></g><g class="yaxislayer-above"><g class="ytick"><text text-anchor="end" x="134" y="4.199999999999999" transform="translate(0,464.75)" style="font-family: 'Open Sans', verdana, arial, sans-serif; font-size: 12px; fill: rgb(42, 63, 95); fill-opacity: 1; white-space: pre; opacity: 1;">66</text></g><g class="ytick"><text text-anchor="end" x="134" y="4.199999999999999" style="font-family: 'Open Sans', verdana, arial, sans-serif; font-size: 12px; fill: rgb(42, 63, 95); fill-opacity: 1; white-space: pre; opacity: 1;" transform="translate(0,421.52)">68</text></g><g class="ytick"><text text-anchor="end" x="134" y="4.199999999999999" style="font-family: 'Open Sans', verdana, arial, sans-serif; font-size: 12px; fill: rgb(42, 63, 95); fill-opacity: 1; white-space: pre; opacity: 1;" transform="translate(0,378.29)">70</text></g><g class="ytick"><text text-anchor="end" x="134" y="4.199999999999999" style="font-family: 'Open Sans', verdana, arial, sans-serif; font-size: 12px; fill: rgb(42, 63, 95); fill-opacity: 1; white-space: pre; opacity: 1;" transform="translate(0,335.07)">72</text></g><g class="ytick"><text text-anchor="end" x="134" y="4.199999999999999" style="font-family: 'Open Sans', verdana, arial, sans-serif; font-size: 12px; fill: rgb(42, 63, 95); fill-opacity: 1; white-space: pre; opacity: 1;" transform="translate(0,291.84000000000003)">74</text></g><g class="ytick"><text text-anchor="end" x="134" y="4.199999999999999" style="font-family: 'Open Sans', verdana, arial, sans-serif; font-size: 12px; fill: rgb(42, 63, 95); fill-opacity: 1; white-space: pre; opacity: 1;" transform="translate(0,248.61)">76</text></g><g class="ytick"><text text-anchor="end" x="134" y="4.199999999999999" style="font-family: 'Open Sans', verdana, arial, sans-serif; font-size: 12px; fill: rgb(42, 63, 95); fill-opacity: 1; white-space: pre; opacity: 1;" transform="translate(0,205.39)">78</text></g><g class="ytick"><text text-anchor="end" x="134" y="4.199999999999999" style="font-family: 'Open Sans', verdana, arial, sans-serif; font-size: 12px; fill: rgb(42, 63, 95); fill-opacity: 1; white-space: pre; opacity: 1;" transform="translate(0,162.16)">80</text></g><g class="ytick"><text text-anchor="end" x="134" y="4.199999999999999" style="font-family: 'Open Sans', verdana, arial, sans-serif; font-size: 12px; fill: rgb(42, 63, 95); fill-opacity: 1; white-space: pre; opacity: 1;" transform="translate(0,118.94)">82</text></g></g><g class="overaxes-above"/></g></g><g class="polarlayer"/><g class="smithlayer"/><g class="ternarylayer"/><g class="geolayer"/><g class="funnelarealayer"/><g class="pielayer"/><g class="iciclelayer"/><g class="treemaplayer"/><g class="sunburstlayer"/><g class="glimages"/><defs id="topdefs-bc8eea"><g class="clips"/><clipPath id="legendbc8eea"><rect width="128" height="162" x="0" y="0"/></clipPath></defs><g class="layer-above"><g class="imagelayer"/><g class="shapelayer"/></g><g class="infolayer"><g class="legend" pointer-events="all" transform="translate(883.6800000000001,100)"><rect class="bg" shape-rendering="crispEdges" width="128" height="162" x="0" y="0" style="stroke: rgb(68, 68, 68); stroke-opacity: 1; fill: rgb(255, 255, 255); fill-opacity: 1; stroke-width: 0px;"/><g class="scrollbox" transform="" clip-path="url(#legendbc8eea)"><g class="groups"><g class="traces" transform="translate(0,14.5)" style="opacity: 1;"><text class="legendtext" text-anchor="start" x="40" y="4.680000000000001" style="font-family: 'Open Sans', verdana, arial, sans-serif; font-size: 12px; fill: rgb(42, 63, 95); fill-opacity: 1; white-space: pre;">Train Accuracy</text><g class="layers" style="opacity: 1;"><g class="legendfill"/><g class="legendlines"><path class="js-line" d="M5,0h30" style="fill: none; stroke: rgb(255, 0, 0); stroke-opacity: 1; stroke-width: 2px;"/></g><g class="legendsymbols"><g class="legendpoints"/></g></g><rect class="legendtoggle" x="0" y="-9.5" width="122.71875" height="19" style="fill: rgb(0, 0, 0); fill-opacity: 0;"/></g><g class="traces" transform="translate(0,33.5)" style="opacity: 1;"><text class="legendtext" text-anchor="start" x="40" y="4.680000000000001" style="font-family: 'Open Sans', verdana, arial, sans-serif; font-size: 12px; fill: rgb(42, 63, 95); fill-opacity: 1; white-space: pre;">Test Accuracy</text><g class="layers" style="opacity: 1;"><g class="legendfill"/><g class="legendlines"><path class="js-line" d="M5,0h30" style="fill: none; stroke: rgb(0, 0, 255); stroke-opacity: 1; stroke-width: 2px;"/></g><g class="legendsymbols"><g class="legendpoints"/></g></g><rect class="legendtoggle" x="0" y="-9.5" width="122.71875" height="19" style="fill: rgb(0, 0, 0); fill-opacity: 0;"/></g><g class="traces" transform="translate(0,52.5)" style="opacity: 1;"><text class="legendtext" text-anchor="start" x="40" y="4.680000000000001" style="font-family: 'Open Sans', verdana, arial, sans-serif; font-size: 12px; fill: rgb(42, 63, 95); fill-opacity: 1; white-space: pre;">Train Precision</text><g class="layers" style="opacity: 1;"><g class="legendfill"/><g class="legendlines"><path class="js-line" d="M5,0h30" style="fill: none; stroke: rgb(0, 128, 0); stroke-opacity: 1; stroke-width: 2px;"/></g><g class="legendsymbols"><g class="legendpoints"/></g></g><rect class="legendtoggle" x="0" y="-9.5" width="122.71875" height="19" style="fill: rgb(0, 0, 0); fill-opacity: 0;"/></g><g class="traces" transform="translate(0,71.5)" style="opacity: 1;"><text class="legendtext" text-anchor="start" x="40" y="4.680000000000001" style="font-family: 'Open Sans', verdana, arial, sans-serif; font-size: 12px; fill: rgb(42, 63, 95); fill-opacity: 1; white-space: pre;">Test Precision</text><g class="layers" style="opacity: 1;"><g class="legendfill"/><g class="legendlines"><path class="js-line" d="M5,0h30" style="fill: none; stroke: rgb(255, 165, 0); stroke-opacity: 1; stroke-width: 2px;"/></g><g class="legendsymbols"><g class="legendpoints"/></g></g><rect class="legendtoggle" x="0" y="-9.5" width="122.71875" height="19" style="fill: rgb(0, 0, 0); fill-opacity: 0;"/></g><g class="traces" transform="translate(0,90.5)" style="opacity: 1;"><text class="legendtext" text-anchor="start" x="40" y="4.680000000000001" style="font-family: 'Open Sans', verdana, arial, sans-serif; font-size: 12px; fill: rgb(42, 63, 95); fill-opacity: 1; white-space: pre;">Train Recall</text><g class="layers" style="opacity: 1;"><g class="legendfill"/><g class="legendlines"><path class="js-line" d="M5,0h30" style="fill: none; stroke: rgb(128, 0, 128); stroke-opacity: 1; stroke-width: 2px;"/></g><g class="legendsymbols"><g class="legendpoints"/></g></g><rect class="legendtoggle" x="0" y="-9.5" width="122.71875" height="19" style="fill: rgb(0, 0, 0); fill-opacity: 0;"/></g><g class="traces" transform="translate(0,109.5)" style="opacity: 1;"><text class="legendtext" text-anchor="start" x="40" y="4.680000000000001" style="font-family: 'Open Sans', verdana, arial, sans-serif; font-size: 12px; fill: rgb(42, 63, 95); fill-opacity: 1; white-space: pre;">Test Recall</text><g class="layers" style="opacity: 1;"><g class="legendfill"/><g class="legendlines"><path class="js-line" d="M5,0h30" style="fill: none; stroke: rgb(255, 192, 203); stroke-opacity: 1; stroke-width: 2px;"/></g><g class="legendsymbols"><g class="legendpoints"/></g></g><rect class="legendtoggle" x="0" y="-9.5" width="122.71875" height="19" style="fill: rgb(0, 0, 0); fill-opacity: 0;"/></g><g class="traces" transform="translate(0,128.5)" style="opacity: 1;"><text class="legendtext" text-anchor="start" x="40" y="4.680000000000001" style="font-family: 'Open Sans', verdana, arial, sans-serif; font-size: 12px; fill: rgb(42, 63, 95); fill-opacity: 1; white-space: pre;">Train F1</text><g class="layers" style="opacity: 1;"><g class="legendfill"/><g class="legendlines"><path class="js-line" d="M5,0h30" style="fill: none; stroke: rgb(165, 42, 42); stroke-opacity: 1; stroke-width: 2px;"/></g><g class="legendsymbols"><g class="legendpoints"/></g></g><rect class="legendtoggle" x="0" y="-9.5" width="122.71875" height="19" style="fill: rgb(0, 0, 0); fill-opacity: 0;"/></g><g class="traces" transform="translate(0,147.5)" style="opacity: 1;"><text class="legendtext" text-anchor="start" x="40" y="4.680000000000001" style="font-family: 'Open Sans', verdana, arial, sans-serif; font-size: 12px; fill: rgb(42, 63, 95); fill-opacity: 1; white-space: pre;">Test F1</text><g class="layers" style="opacity: 1;"><g class="legendfill"/><g class="legendlines"><path class="js-line" d="M5,0h30" style="fill: none; stroke: rgb(128, 128, 128); stroke-opacity: 1; stroke-width: 2px;"/></g><g class="legendsymbols"><g class="legendpoints"/></g></g><rect class="legendtoggle" x="0" y="-9.5" width="122.71875" height="19" style="fill: rgb(0, 0, 0); fill-opacity: 0;"/></g></g></g><rect class="scrollbar" rx="20" ry="3" width="0" height="0" x="0" y="0" style="fill: rgb(128, 139, 164); fill-opacity: 1;"/></g><g class="g-gtitle"><text class="gtitle" x="51.2" y="50" text-anchor="start" dy="0em" style="font-family: 'Open Sans', verdana, arial, sans-serif; font-size: 17px; fill: rgb(42, 63, 95); opacity: 1; font-weight: normal; white-space: pre;">Training Metrics - logs/FakeNewsNet-gossipcop_max-vocab=15000_pre=v2_domain_T=50_s=10.log</text></g><g class="g-xtitle"><text class="xtitle" x="502" y="537.3" text-anchor="middle" style="font-family: 'Open Sans', verdana, arial, sans-serif; font-size: 14px; fill: rgb(42, 63, 95); opacity: 1; font-weight: normal; white-space: pre;">Epoch</text></g><g class="g-ytitle"><text class="ytitle" transform="rotate(-90,95.965625,298)" x="95.965625" y="298" text-anchor="middle" style="font-family: 'Open Sans', verdana, arial, sans-serif; font-size: 14px; fill: rgb(42, 63, 95); opacity: 1; font-weight: normal; white-space: pre;">Metric Score</text></g></g><g class="menulayer"><g class="updatemenu-container" style="cursor: pointer;"><g class="updatemenu-header-group" transform="translate(12,60)"><g class="updatemenu-header" transform="translate(1,1)" style="pointer-events: all;"><rect class="updatemenu-item-rect" rx="2" ry="2" shape-rendering="crispEdges" x="0" y="0" width="160" height="33" style="stroke: rgb(190, 200, 217); stroke-opacity: 1; fill: rgb(255, 255, 255); fill-opacity: 1; stroke-width: 1px;"/><text class="updatemenu-item-text" text-anchor="start" data-notex="1" x="12" y="19.5" style="font-family: 'Open Sans', verdana, arial, sans-serif; font-size: 12px; fill: rgb(42, 63, 95); fill-opacity: 1; white-space: pre;">All</text></g><text class="updatemenu-header-arrow" text-anchor="end" x="156" y="19.5" style="font-family: 'Open Sans', verdana, arial, sans-serif; font-size: 12px; fill: rgb(42, 63, 95); fill-opacity: 1;">▼</text></g><g class="updatemenu-dropdown-button-group" updatemenu-active-index="-1" style="pointer-events: all;"><rect class="scrollbox-bg" opacity="0" x="0" y="0" width="0" height="0" style="pointer-events: all;"/></g></g></g></svg>