<svg class="main-svg" xmlns="http://www.w3.org/2000/svg" xmlns:xlink="http://www.w3.org/1999/xlink" width="1024" height="576" style="" viewBox="0 0 1024 576"><rect x="0" y="0" width="1024" height="576" style="fill: rgb(255, 255, 255); fill-opacity: 1;"/><defs id="defs-7a37b3"><g class="clips"><clipPath id="clip7a37b3xyplot" class="plotclip"><rect width="726" height="396"/></clipPath><clipPath class="axesclip" id="clip7a37b3x"><rect x="143" y="0" width="726" height="576"/></clipPath><clipPath class="axesclip" id="clip7a37b3y"><rect x="0" y="100" width="1024" height="396"/></clipPath><clipPath class="axesclip" id="clip7a37b3xy"><rect x="143" y="100" width="726" height="396"/></clipPath></g><g class="gradients"/><g class="patterns"/></defs><g class="bglayer"><rect class="bg" x="143" y="100" width="726" height="396" style="fill: rgb(229, 236, 246); fill-opacity: 1; stroke-width: 0;"/></g><g class="layer-below"><g class="imagelayer"/><g class="shapelayer"/></g><g class="cartesianlayer"><g class="subplot xy"><g class="layer-subplot"><g class="shapelayer"/><g class="imagelayer"/></g><g class="minor-gridlayer"><g class="x"/><g class="y"/></g><g class="gridlayer"><g class="x"><path class="xgrid crisp" transform="translate(209,0)" d="M0,100v396" style="stroke: rgb(255, 255, 255); stroke-opacity: 1; stroke-width: 1px;"/><path class="xgrid crisp" transform="translate(282.33000000000004,0)" d="M0,100v396" style="stroke: rgb(255, 255, 255); stroke-opacity: 1; stroke-width: 1px;"/><path class="xgrid crisp" transform="translate(355.66999999999996,0)" d="M0,100v396" style="stroke: rgb(255, 255, 255); stroke-opacity: 1; stroke-width: 1px;"/><path class="xgrid crisp" transform="translate(429,0)" d="M0,100v396" style="stroke: rgb(255, 255, 255); stroke-opacity: 1; stroke-width: 1px;"/><path class="xgrid crisp" transform="translate(502.33,0)" d="M0,100v396" style="stroke: rgb(255, 255, 255); stroke-opacity: 1; stroke-width: 1px;"/><path class="xgrid crisp" transform="translate(575.6700000000001,0)" d="M0,100v396" style="stroke: rgb(255, 255, 255); stroke-opacity: 1; stroke-width: 1px;"/><path class="xgrid crisp" transform="translate(649,0)" d="M0,100v396" style="stroke: rgb(255, 255, 255); stroke-opacity: 1; stroke-width: 1px;"/><path class="xgrid crisp" transform="translate(722.33,0)" d="M0,100v396" style="stroke: rgb(255, 255, 255); stroke-opacity: 1; stroke-width: 1px;"/><path class="xgrid crisp" transform="translate(795.67,0)" d="M0,100v396" style="stroke: rgb(255, 255, 255); stroke-opacity: 1; stroke-width: 1px;"/></g><g class="y"><path class="ygrid crisp" transform="translate(0,457.59)" d="M143,0h726" style="stroke: rgb(255, 255, 255); stroke-opacity: 1; stroke-width: 1px;"/><path class="ygrid crisp" transform="translate(0,384.32)" d="M143,0h726" style="stroke: rgb(255, 255, 255); stroke-opacity: 1; stroke-width: 1px;"/><path class="ygrid crisp" transform="translate(0,311.03999999999996)" d="M143,0h726" style="stroke: rgb(255, 255, 255); stroke-opacity: 1; stroke-width: 1px;"/><path class="ygrid crisp" transform="translate(0,237.77)" d="M143,0h726" style="stroke: rgb(255, 255, 255); stroke-opacity: 1; stroke-width: 1px;"/><path class="ygrid crisp" transform="translate(0,164.5)" d="M143,0h726" style="stroke: rgb(255, 255, 255); stroke-opacity: 1; stroke-width: 1px;"/></g></g><g class="zerolinelayer"/><path class="xlines-below"/><path class="ylines-below"/><g class="overlines-below"/><g class="xaxislayer-below"/><g class="yaxislayer-below"/><g class="overaxes-below"/><g class="plot" transform="translate(143,100)" clip-path="url(#clip7a37b3xyplot)"><g class="scatterlayer mlayer"><g class="trace scatter trace9e0ebf" style="stroke-miterlimit: 2; opacity: 1;"><g class="fills"/><g class="errorbars"/><g class="lines"><path class="js-line" d="M0,357.74L14.67,207.97L22,192.58L29.33,196.83L36.67,208.7L51.33,169.72L58.67,159.02L66,121.21L73.33,119.01L80.67,129.42L88,128.68L95.33,119.3L102.67,102.01L110,100.55L117.33,95.27L124.67,94.83L132,80.62L139.33,82.08L146.67,77.39L154,77.98L161.33,80.32L168.67,79L176,82.38L183.33,85.31L190.67,82.81L198,85.45L205.33,85.89L212.67,80.62L220,70.5L227.33,66.4L234.67,74.17L242,75.78L249.33,76.37L256.67,80.47L264,83.25L271.33,84.87L278.67,82.23L286,86.48L293.33,79.88L300.67,72.12L308,78.42L315.33,73.58L322.67,74.02L330,73.73L337.33,97.47L352,92.19L359.33,102.6L366.67,99.08L374,91.75L381.33,98.35L388.67,90.29L396,48.67L403.33,82.52L410.67,79.88L418,85.16L425.33,84.72L432.67,85.31L440,94.1L447.33,95.12L454.67,87.06L462,92.63L469.33,86.48L476.67,94.69L484,87.21L491.33,82.81L498.67,87.21L506,83.4L513.33,83.84L520.67,79.15L528,71.68L535.33,67.28L542.67,74.9L550,78.13L557.33,72.56L564.67,84.43L572,42.81L579.33,42.37L594,50.87L601.33,54.97L608.67,43.54L616,42.66L623.33,45.15L630.67,101.43L638,97.62L645.33,82.67L652.67,79.59L660,85.89L667.33,83.11L674.67,95.27L682,97.32L689.33,103.04L704,106.41L711.33,100.55L718.67,92.19L726,94.25" style="vector-effect: none; fill: none; stroke: rgb(255, 0, 0); stroke-opacity: 1; stroke-width: 2px; opacity: 1;"/></g><g class="points"/><g class="text"/></g><g class="trace scatter trace319ca3" style="stroke-miterlimit: 2; opacity: 1;"><g class="fills"/><g class="errorbars"/><g class="lines"><path class="js-line" d="M0,370.48L7.33,281.09L14.67,208.55L22,197.71L29.33,195.95L36.67,217.93L44,194.04L51.33,173.53L58.67,166.79L66,124.43L73.33,134.99L80.67,141.58L88,132.05L95.33,128.68L102.67,109.63L110,106.85L117.33,110.22L124.67,103.33L132,99.23L139.33,100.84L146.67,98.93L154,84.43L161.33,88.53L168.67,88.53L176,92.93L183.33,108.02L190.67,100.84L198,96.44L205.33,103.62L212.67,97.32L220,81.94L227.33,77.83L234.67,82.52L242,86.04L249.33,78.42L256.67,79.59L264,88.82L271.33,89.41L278.67,88.24L286,91.31L293.33,89.12L300.67,81.5L308,89.12L315.33,84.13L322.67,84.72L330,85.6L337.33,109.34L344.67,102.01L352,107.43L359.33,117.25L366.67,108.46L381.33,109.93L388.67,103.04L396,45.3L403.33,93.81L410.67,89.41L418,87.8L432.67,96.15L440,109.34L447.33,100.55L454.67,95.42L462,105.53L469.33,98.64L476.67,110.66L484,102.45L491.33,96.74L498.67,97.32L506,95.71L513.33,97.03L520.67,94.54L528,83.11L535.33,70.8L542.67,80.32L550,76.81L557.33,80.03L564.67,99.81L572,51.16L579.33,48.67L586.67,47.06L594,43.98L601.33,49.7L608.67,41.78L616,44.86L623.33,51.89L630.67,107.14L638,102.45L645.33,99.81L652.67,94.54L660,103.33L667.33,102.75L674.67,103.92L682,114.47L689.33,117.55L696.67,115.93L704,122.24L711.33,112.56L718.67,104.36L726,109.93" style="vector-effect: none; fill: none; stroke: rgb(0, 0, 255); stroke-opacity: 1; stroke-width: 2px; opacity: 1;"/></g><g class="points"/><g class="text"/></g><g class="trace scatter traceb9aca5" style="stroke-miterlimit: 2; opacity: 1;"><g class="fills"/><g class="errorbars"/><g class="lines"><path class="js-line" d="M0,221.59L14.67,179.39L22,169.28L36.67,165.32L44,157.26L51.33,154.33L58.67,149.49L66,149.05L73.33,146.42L80.67,150.08L88,149.2L102.67,141.14L110,140.85L124.67,136.74L132,129.71L139.33,129.71L146.67,124.58L154,124.43L161.33,125.17L168.67,124.14L176,124.87L183.33,121.65L190.67,120.48L198,122.24L205.33,119.89L212.67,120.33L220,117.84L227.33,114.18L234.67,117.25L242,121.21L249.33,119.01L264,118.87L271.33,120.62L278.67,120.04L286,122.24L293.33,117.25L300.67,114.62L308,117.4L315.33,116.52L322.67,113.74L330,114.32L337.33,116.37L344.67,115.79L352,115.2L359.33,119.6L366.67,121.21L374,117.25L381.33,118.28L388.67,115.49L396,111.1L403.33,114.18L410.67,109.93L418,112.27L425.33,110.66L432.67,111.39L447.33,114.47L454.67,112.71L462,114.32L469.33,112.56L476.67,114.47L484,112.27L491.33,109.78L498.67,111.98L513.33,109.19L520.67,106.12L528,105.24L535.33,102.75L542.67,107.73L550,109.19L557.33,105.38L564.67,111.1L572,104.06L579.33,102.16L586.67,107.43L594,110.51L601.33,112.71L608.67,106.85L616,108.17L623.33,108.17L630.67,119.01L638,118.28L645.33,113.15L652.67,113L660,114.32L667.33,110.81L674.67,116.96L682,118.13L689.33,119.01L696.67,115.93L711.33,116.08L718.67,113.3L726,113.88" style="vector-effect: none; fill: none; stroke: rgb(0, 128, 0); stroke-opacity: 1; stroke-width: 2px; opacity: 1;"/></g><g class="points"/><g class="text"/></g><g class="trace scatter trace04129b" style="stroke-miterlimit: 2; opacity: 1;"><g class="fills"/><g class="errorbars"/><g class="lines"><path class="js-line" d="M0,234.34L7.33,193.02L14.67,181.88L22,172.06L29.33,170.16L36.67,178.8L44,167.23L51.33,162.98L58.67,160.78L66,156.38L73.33,162.1L80.67,160.19L88,152.13L95.33,148.61L102.67,147L110,143.63L117.33,149.64L124.67,144.51L132,142.75L139.33,144.95L146.67,140.85L154,130.74L161.33,132.35L176,132.93L183.33,138.06L190.67,136.01L198,127.36L205.33,132.49L212.67,133.23L220,125.46L227.33,121.94L234.67,122.82L242,126.49L249.33,121.21L256.67,119.45L264,123.11L271.33,124.29L278.67,123.85L286,128.1L300.67,121.21L308,125.75L322.67,124.14L330,128.54L337.33,131.47L344.67,123.7L352,129.27L359.33,131.76L366.67,126.78L374,132.35L381.33,130.88L388.67,128.1L396,108.46L403.33,127.07L410.67,120.62L418,117.4L425.33,117.55L432.67,120.18L440,128.24L447.33,122.24L454.67,120.48L462,123.85L469.33,122.09L476.67,126.19L484,123.55L491.33,119.6L498.67,120.62L506,118.87L513.33,121.94L520.67,119.6L535.33,104.8L542.67,110.07L550,107.87L557.33,109.05L564.67,123.11L572,109.19L579.33,105.09L586.67,107.29L594,102.45L601.33,104.06L608.67,101.57L616,106.85L623.33,111.24L630.67,123.99L638,122.97L645.33,127.51L652.67,123.11L660,126.78L674.67,123.55L682,130L689.33,130.59L696.67,125.9L704,130.3L711.33,126.78L718.67,124.29L726,127.36" style="vector-effect: none; fill: none; stroke: rgb(255, 165, 0); stroke-opacity: 1; stroke-width: 2px; opacity: 1;"/></g><g class="points"/><g class="text"/></g><g class="trace scatter tracefb005d" style="stroke-miterlimit: 2; opacity: 1;"><g class="fills"/><g class="errorbars"/><g class="lines"><path class="js-line" d="M0,195.22L14.67,120.18L22,106.26L29.33,104.21L36.67,103.33L44,91.02L51.33,85.89L58.67,79L66,79.88L73.33,76.51L80.67,80.62L88,79.44L95.33,74.75L102.67,71.38L110,71.09L117.33,69.63L124.67,66.26L132,58.93L139.33,58.49L146.67,51.6L154,51.31L161.33,51.6L168.67,50.43L176,50.87L183.33,45.15L190.67,43.83L198,46.03L205.33,42.37L212.67,43.98L220,42.95L227.33,38.26L234.67,40.9L242,46.62L249.33,43.25L256.67,42.37L264,41.2L271.33,43.54L278.67,43.25L286,45.59L293.33,39.44L300.67,37.24L308,40.02L315.33,40.02L322.67,35.48L330,36.36L352,34.16L359.33,39.58L366.67,42.22L374,37.39L381.33,38.12L388.67,34.89L396,39.88L403.33,34.31L410.67,28.3L418,31.08L425.33,28.74L432.67,29.62L440,30.35L447.33,32.99L454.67,31.38L462,32.99L469.33,31.23L476.67,32.84L484,30.64L491.33,27.57L498.67,30.2L506,28.45L513.33,26.69L520.67,22.73L528,22.88L535.33,19.8L542.67,25.95L550,27.57L557.33,22.88L564.67,29.18L572,30.35L579.33,27.27L586.67,34.31L594,37.83L601.33,39.73L608.67,34.89L616,37.83L623.33,36.51L630.67,38.7L638,38.26L645.33,32.7L652.67,32.99L660,33.72L667.33,29.18L674.67,36.51L682,37.97L689.33,38.7L696.67,34.01L711.33,34.6L718.67,31.52L726,32.11" style="vector-effect: none; fill: none; stroke: rgb(128, 0, 128); stroke-opacity: 1; stroke-width: 2px; opacity: 1;"/></g><g class="points"/><g class="text"/></g><g class="trace scatter trace3f861e" style="stroke-miterlimit: 2; opacity: 1;"><g class="fills"/><g class="errorbars"/><g class="lines"><path class="js-line" d="M0,210.31L7.33,147L14.67,122.68L22,109.63L29.33,106.99L36.67,120.04L44,103.18L51.33,96.44L58.67,93.37L66,89.56L73.33,96.59L80.67,93.22L88,82.67L95.33,77.83L102.67,77.98L110,73.58L117.33,81.94L124.67,75.63L132,73.73L139.33,76.95L146.67,70.94L154,58.63L161.33,60.1L168.67,60.98L176,60.1L183.33,64.94L190.67,63.18L198,50.87L205.33,57.32L212.67,59.51L220,51.01L227.33,46.62L234.67,46.76L242,51.6L249.33,45.3L256.67,42.22L264,45.74L271.33,47.5L278.67,47.06L286,53.07L293.33,47.64L300.67,44.42L308,49.84L322.67,48.23L330,54.82L337.33,55.12L344.67,44.71L352,52.19L359.33,54.82L366.67,48.52L374,56.44L381.33,54.24L388.67,50.87L396,36.07L403.33,50.87L410.67,41.93L418,37.39L425.33,36.95L432.67,40.32L440,50.43L447.33,42.81L454.67,40.76L462,44.42L469.33,42.81L476.67,47.35L484,44.57L491.33,39.44L498.67,40.76L506,38.41L513.33,42.66L520.67,39.73L528,29.62L535.33,21.41L542.67,27.71L550,24.93L557.33,26.25L564.67,44.13L572,34.45L579.33,28.59L586.67,33.14L594,26.25L601.33,26.69L608.67,25.66L616,33.28L623.33,37.97L630.67,44.71L638,43.69L645.33,50.57L652.67,44.86L660,48.96L667.33,47.35L674.67,44.27L682,52.48L689.33,53.36L696.67,46.62L704,52.63L711.33,48.23L718.67,45.3L726,49.11" style="vector-effect: none; fill: none; stroke: rgb(255, 192, 203); stroke-opacity: 1; stroke-width: 2px; opacity: 1;"/></g><g class="points"/><g class="text"/></g><g class="trace scatter traceea9f06" style="stroke-miterlimit: 2; opacity: 1;"><g class="fills"/><g class="errorbars"/><g class="lines"><path class="js-line" d="M0,363.3L14.67,235.96L22,221.74L29.33,224.09L36.67,232L44,215L51.33,200.64L58.67,191.26L66,167.23L73.33,164.73L80.67,172.65L88,171.77L95.33,164.15L102.67,152.13L110,151.25L117.33,147.44L124.67,145.83L132,134.4L139.33,135.13L146.67,129.71L154,129.86L161.33,131.61L168.67,130.3L176,132.49L183.33,132.35L190.67,130.3L198,132.79L205.33,131.76L212.67,128.98L220,122.24L227.33,117.99L234.67,123.85L242,126.93L249.33,126.05L256.67,128.39L271.33,131.61L278.67,129.86L286,133.37L293.33,126.93L300.67,121.21L308,126.34L315.33,123.11L322.67,121.8L330,121.94L337.33,137.18L352,133.23L359.33,141.87L366.67,140.26L374,133.96L381.33,138.5L388.67,132.2L396,107.43L403.33,126.93L410.67,123.26L418,127.51L425.33,126.49L432.67,127.36L440,133.23L447.33,134.84L454.67,128.98L462,133.23L469.33,128.54L476.67,134.55L484,128.83L491.33,124.87L498.67,128.68L506,125.61L513.33,125.31L520.67,120.92L535.33,112.12L542.67,119.16L550,121.8L557.33,116.52L564.67,126.63L572,100.11L579.33,98.64L586.67,104.21L601.33,111.39L608.67,102.31L623.33,103.92L630.67,140.85L638,138.21L645.33,126.49L652.67,124.58L660,128.98L667.33,125.61L674.67,136.01L682,137.92L689.33,141.87L696.67,141.87L704,142.75L711.33,138.94L718.67,132.35L726,133.96" style="vector-effect: none; fill: none; stroke: rgb(165, 42, 42); stroke-opacity: 1; stroke-width: 2px; opacity: 1;"/></g><g class="points"/><g class="text"/></g><g class="trace scatter trace27d6b3" style="stroke-miterlimit: 2; opacity: 1;"><g class="fills"/><g class="errorbars"/><g class="lines"><path class="js-line" d="M0,376.2L7.33,295.01L14.67,237.57L22,226.58L29.33,224.67L36.67,243.28L44,222.33L51.33,206.5L58.67,201.22L66,173.09L73.33,182.03L80.67,184.96L88,175.43L95.33,171.62L102.67,159.9L110,156.53L117.33,161.66L124.67,155.06L132,151.84L139.33,154.04L146.67,150.67L154,137.18L161.33,140.26L168.67,140.55L176,142.9L183.33,154.18L190.67,149.05L198,141.87L205.33,148.76L212.67,145.54L220,132.79L227.33,128.54L234.67,131.61L242,135.57L249.33,128.54L256.67,128.24L264,135.42L271.33,136.3L278.67,135.42L286,139.53L293.33,136.16L300.67,130.3L308,136.89L315.33,133.52L322.67,133.52L330,136.6L337.33,151.69L344.67,143.63L352,149.49L359.33,156.82L366.67,148.91L374,152.13L381.33,151.84L388.67,146.27L396,104.36L403.33,140.26L410.67,134.4L418,131.91L425.33,134.25L432.67,138.21L440,150.23L447.33,142.02L454.67,137.92L462,145.83L469.33,140.7L476.67,150.08L484,143.78L491.33,138.36L498.67,139.24L506,137.48L513.33,139.67L520.67,137.04L528,126.34L535.33,115.49L542.67,123.85L550,120.62L557.33,123.11L564.67,142.02L572,107.43L579.33,103.62L586.67,104.36L594,99.81L601.33,103.62L608.67,98.2L616,103.04L623.33,109.19L630.67,146.86L638,143.48L645.33,144.07L652.67,138.65L660,145.83L667.33,144.8L674.67,144.66L682,154.18L689.33,156.53L696.67,153.45L704,159.46L711.33,151.54L718.67,145.24L726,150.23" style="vector-effect: none; fill: none; stroke: rgb(128, 128, 128); stroke-opacity: 1; stroke-width: 2px; opacity: 1;"/></g><g class="points"/><g class="text"/></g></g></g><g class="overplot"/><path class="xlines-above crisp" d="M0,0" style="fill: none;"/><path class="ylines-above crisp" d="M0,0" style="fill: none;"/><g class="overlines-above"/><g class="xaxislayer-above"><g class="xtick"><text text-anchor="middle" x="0" y="509" transform="translate(209,0)" style="font-family: 'Open Sans', verdana, arial, sans-serif; font-size: 12px; fill: rgb(42, 63, 95); fill-opacity: 1; white-space: pre; opacity: 1;">10</text></g><g class="xtick"><text text-anchor="middle" x="0" y="509" style="font-family: 'Open Sans', verdana, arial, sans-serif; font-size: 12px; fill: rgb(42, 63, 95); fill-opacity: 1; white-space: pre; opacity: 1;" transform="translate(282.33000000000004,0)">20</text></g><g class="xtick"><text text-anchor="middle" x="0" y="509" style="font-family: 'Open Sans', verdana, arial, sans-serif; font-size: 12px; fill: rgb(42, 63, 95); fill-opacity: 1; white-space: pre; opacity: 1;" transform="translate(355.66999999999996,0)">30</text></g><g class="xtick"><text text-anchor="middle" x="0" y="509" style="font-family: 'Open Sans', verdana, arial, sans-serif; font-size: 12px; fill: rgb(42, 63, 95); fill-opacity: 1; white-space: pre; opacity: 1;" transform="translate(429,0)">40</text></g><g class="xtick"><text text-anchor="middle" x="0" y="509" style="font-family: 'Open Sans', verdana, arial, sans-serif; font-size: 12px; fill: rgb(42, 63, 95); fill-opacity: 1; white-space: pre; opacity: 1;" transform="translate(502.33,0)">50</text></g><g class="xtick"><text text-anchor="middle" x="0" y="509" style="font-family: 'Open Sans', verdana, arial, sans-serif; font-size: 12px; fill: rgb(42, 63, 95); fill-opacity: 1; white-space: pre; opacity: 1;" transform="translate(575.6700000000001,0)">60</text></g><g class="xtick"><text text-anchor="middle" x="0" y="509" style="font-family: 'Open Sans', verdana, arial, sans-serif; font-size: 12px; fill: rgb(42, 63, 95); fill-opacity: 1; white-space: pre; opacity: 1;" transform="translate(649,0)">70</text></g><g class="xtick"><text text-anchor="middle" x="0" y="509" style="font-family: 'Open Sans', verdana, arial, sans-serif; font-size: 12px; fill: rgb(42, 63, 95); fill-opacity: 1; white-space: pre; opacity: 1;" transform="translate(722.33,0)">80</text></g><g class="xtick"><text text-anchor="middle" x="0" y="509" style="font-family: 'Open Sans', verdana, arial, sans-serif; font-size: 12px; fill: rgb(42, 63, 95); fill-opacity: 1; white-space: pre; opacity: 1;" transform="translate(795.67,0)">90</text></g><g class="xtick"><text text-anchor="middle" x="0" y="509" style="font-family: 'Open Sans', verdana, arial, sans-serif; font-size: 12px; fill: rgb(42, 63, 95); fill-opacity: 1; white-space: pre; opacity: 1;" transform="translate(869,0)">100</text></g></g><g class="yaxislayer-above"><g class="ytick"><text text-anchor="end" x="142" y="4.199999999999999" transform="translate(0,457.59)" style="font-family: 'Open Sans', verdana, arial, sans-serif; font-size: 12px; fill: rgb(42, 63, 95); fill-opacity: 1; white-space: pre; opacity: 1;">50</text></g><g class="ytick"><text text-anchor="end" x="142" y="4.199999999999999" style="font-family: 'Open Sans', verdana, arial, sans-serif; font-size: 12px; fill: rgb(42, 63, 95); fill-opacity: 1; white-space: pre; opacity: 1;" transform="translate(0,384.32)">55</text></g><g class="ytick"><text text-anchor="end" x="142" y="4.199999999999999" style="font-family: 'Open Sans', verdana, arial, sans-serif; font-size: 12px; fill: rgb(42, 63, 95); fill-opacity: 1; white-space: pre; opacity: 1;" transform="translate(0,311.03999999999996)">60</text></g><g class="ytick"><text text-anchor="end" x="142" y="4.199999999999999" style="font-family: 'Open Sans', verdana, arial, sans-serif; font-size: 12px; fill: rgb(42, 63, 95); fill-opacity: 1; white-space: pre; opacity: 1;" transform="translate(0,237.77)">65</text></g><g class="ytick"><text text-anchor="end" x="142" y="4.199999999999999" style="font-family: 'Open Sans', verdana, arial, sans-serif; font-size: 12px; fill: rgb(42, 63, 95); fill-opacity: 1; white-space: pre; opacity: 1;" transform="translate(0,164.5)">70</text></g></g><g class="overaxes-above"/></g></g><g class="polarlayer"/><g class="smithlayer"/><g class="ternarylayer"/><g class="geolayer"/><g class="funnelarealayer"/><g class="pielayer"/><g class="iciclelayer"/><g class="treemaplayer"/><g class="sunburstlayer"/><g class="glimages"/><defs id="topdefs-7a37b3"><g class="clips"/><clipPath id="legend7a37b3"><rect width="128" height="162" x="0" y="0"/></clipPath></defs><g class="layer-above"><g class="imagelayer"/><g class="shapelayer"/></g><g class="infolayer"><g class="legend" pointer-events="all" transform="translate(883.52,100)"><rect class="bg" shape-rendering="crispEdges" width="128" height="162" x="0" y="0" style="stroke: rgb(68, 68, 68); stroke-opacity: 1; fill: rgb(255, 255, 255); fill-opacity: 1; stroke-width: 0px;"/><g class="scrollbox" transform="" clip-path="url(#legend7a37b3)"><g class="groups"><g class="traces" transform="translate(0,14.5)" style="opacity: 1;"><text class="legendtext" text-anchor="start" x="40" y="4.680000000000001" style="font-family: 'Open Sans', verdana, arial, sans-serif; font-size: 12px; fill: rgb(42, 63, 95); fill-opacity: 1; white-space: pre;">Train Accuracy</text><g class="layers" style="opacity: 1;"><g class="legendfill"/><g class="legendlines"><path class="js-line" d="M5,0h30" style="fill: none; stroke: rgb(255, 0, 0); stroke-opacity: 1; stroke-width: 2px;"/></g><g class="legendsymbols"><g class="legendpoints"/></g></g><rect class="legendtoggle" x="0" y="-9.5" width="122.71875" height="19" style="fill: rgb(0, 0, 0); fill-opacity: 0;"/></g><g class="traces" transform="translate(0,33.5)" style="opacity: 1;"><text class="legendtext" text-anchor="start" x="40" y="4.680000000000001" style="font-family: 'Open Sans', verdana, arial, sans-serif; font-size: 12px; fill: rgb(42, 63, 95); fill-opacity: 1; white-space: pre;">Test Accuracy</text><g class="layers" style="opacity: 1;"><g class="legendfill"/><g class="legendlines"><path class="js-line" d="M5,0h30" style="fill: none; stroke: rgb(0, 0, 255); stroke-opacity: 1; stroke-width: 2px;"/></g><g class="legendsymbols"><g class="legendpoints"/></g></g><rect class="legendtoggle" x="0" y="-9.5" width="122.71875" height="19" style="fill: rgb(0, 0, 0); fill-opacity: 0;"/></g><g class="traces" transform="translate(0,52.5)" style="opacity: 1;"><text class="legendtext" text-anchor="start" x="40" y="4.680000000000001" style="font-family: 'Open Sans', verdana, arial, sans-serif; font-size: 12px; fill: rgb(42, 63, 95); fill-opacity: 1; white-space: pre;">Train Precision</text><g class="layers" style="opacity: 1;"><g class="legendfill"/><g class="legendlines"><path class="js-line" d="M5,0h30" style="fill: none; stroke: rgb(0, 128, 0); stroke-opacity: 1; stroke-width: 2px;"/></g><g class="legendsymbols"><g class="legendpoints"/></g></g><rect class="legendtoggle" x="0" y="-9.5" width="122.71875" height="19" style="fill: rgb(0, 0, 0); fill-opacity: 0;"/></g><g class="traces" transform="translate(0,71.5)" style="opacity: 1;"><text class="legendtext" text-anchor="start" x="40" y="4.680000000000001" style="font-family: 'Open Sans', verdana, arial, sans-serif; font-size: 12px; fill: rgb(42, 63, 95); fill-opacity: 1; white-space: pre;">Test Precision</text><g class="layers" style="opacity: 1;"><g class="legendfill"/><g class="legendlines"><path class="js-line" d="M5,0h30" style="fill: none; stroke: rgb(255, 165, 0); stroke-opacity: 1; stroke-width: 2px;"/></g><g class="legendsymbols"><g class="legendpoints"/></g></g><rect class="legendtoggle" x="0" y="-9.5" width="122.71875" height="19" style="fill: rgb(0, 0, 0); fill-opacity: 0;"/></g><g class="traces" transform="translate(0,90.5)" style="opacity: 1;"><text class="legendtext" text-anchor="start" x="40" y="4.680000000000001" style="font-family: 'Open Sans', verdana, arial, sans-serif; font-size: 12px; fill: rgb(42, 63, 95); fill-opacity: 1; white-space: pre;">Train Recall</text><g class="layers" style="opacity: 1;"><g class="legendfill"/><g class="legendlines"><path class="js-line" d="M5,0h30" style="fill: none; stroke: rgb(128, 0, 128); stroke-opacity: 1; stroke-width: 2px;"/></g><g class="legendsymbols"><g class="legendpoints"/></g></g><rect class="legendtoggle" x="0" y="-9.5" width="122.71875" height="19" style="fill: rgb(0, 0, 0); fill-opacity: 0;"/></g><g class="traces" transform="translate(0,109.5)" style="opacity: 1;"><text class="legendtext" text-anchor="start" x="40" y="4.680000000000001" style="font-family: 'Open Sans', verdana, arial, sans-serif; font-size: 12px; fill: rgb(42, 63, 95); fill-opacity: 1; white-space: pre;">Test Recall</text><g class="layers" style="opacity: 1;"><g class="legendfill"/><g class="legendlines"><path class="js-line" d="M5,0h30" style="fill: none; stroke: rgb(255, 192, 203); stroke-opacity: 1; stroke-width: 2px;"/></g><g class="legendsymbols"><g class="legendpoints"/></g></g><rect class="legendtoggle" x="0" y="-9.5" width="122.71875" height="19" style="fill: rgb(0, 0, 0); fill-opacity: 0;"/></g><g class="traces" transform="translate(0,128.5)" style="opacity: 1;"><text class="legendtext" text-anchor="start" x="40" y="4.680000000000001" style="font-family: 'Open Sans', verdana, arial, sans-serif; font-size: 12px; fill: rgb(42, 63, 95); fill-opacity: 1; white-space: pre;">Train F1</text><g class="layers" style="opacity: 1;"><g class="legendfill"/><g class="legendlines"><path class="js-line" d="M5,0h30" style="fill: none; stroke: rgb(165, 42, 42); stroke-opacity: 1; stroke-width: 2px;"/></g><g class="legendsymbols"><g class="legendpoints"/></g></g><rect class="legendtoggle" x="0" y="-9.5" width="122.71875" height="19" style="fill: rgb(0, 0, 0); fill-opacity: 0;"/></g><g class="traces" transform="translate(0,147.5)" style="opacity: 1;"><text class="legendtext" text-anchor="start" x="40" y="4.680000000000001" style="font-family: 'Open Sans', verdana, arial, sans-serif; font-size: 12px; fill: rgb(42, 63, 95); fill-opacity: 1; white-space: pre;">Test F1</text><g class="layers" style="opacity: 1;"><g class="legendfill"/><g class="legendlines"><path class="js-line" d="M5,0h30" style="fill: none; stroke: rgb(128, 128, 128); stroke-opacity: 1; stroke-width: 2px;"/></g><g class="legendsymbols"><g class="legendpoints"/></g></g><rect class="legendtoggle" x="0" y="-9.5" width="122.71875" height="19" style="fill: rgb(0, 0, 0); fill-opacity: 0;"/></g></g></g><rect class="scrollbar" rx="20" ry="3" width="0" height="0" x="0" y="0" style="fill: rgb(128, 139, 164); fill-opacity: 1;"/></g><g class="g-gtitle"><text class="gtitle" x="51.2" y="50" text-anchor="start" dy="0em" style="font-family: 'Open Sans', verdana, arial, sans-serif; font-size: 17px; fill: rgb(42, 63, 95); opacity: 1; font-weight: normal; white-space: pre;">Training Metrics - logs/FakeNewsNet_text.log</text></g><g class="g-xtitle"><text class="xtitle" x="506" y="537.3" text-anchor="middle" style="font-family: 'Open Sans', verdana, arial, sans-serif; font-size: 14px; fill: rgb(42, 63, 95); opacity: 1; font-weight: normal; white-space: pre;">Epoch</text></g><g class="g-ytitle"><text class="ytitle" transform="rotate(-90,103.965625,298)" x="103.965625" y="298" text-anchor="middle" style="font-family: 'Open Sans', verdana, arial, sans-serif; font-size: 14px; fill: rgb(42, 63, 95); opacity: 1; font-weight: normal; white-space: pre;">Metric Score</text></g></g><g class="menulayer"><g class="updatemenu-container" style="cursor: pointer;"><g class="updatemenu-header-group" transform="translate(12,60)"><g class="updatemenu-header" transform="translate(1,1)" style="pointer-events: all;"><rect class="updatemenu-item-rect" rx="2" ry="2" shape-rendering="crispEdges" x="0" y="0" width="167" height="33" style="stroke: rgb(190, 200, 217); stroke-opacity: 1; fill: rgb(255, 255, 255); fill-opacity: 1; stroke-width: 1px;"/><text class="updatemenu-item-text" text-anchor="start" data-notex="1" x="12" y="19.5" style="font-family: 'Open Sans', verdana, arial, sans-serif; font-size: 12px; fill: rgb(42, 63, 95); fill-opacity: 1; white-space: pre;">All</text></g><text class="updatemenu-header-arrow" text-anchor="end" x="163" y="19.5" style="font-family: 'Open Sans', verdana, arial, sans-serif; font-size: 12px; fill: rgb(42, 63, 95); fill-opacity: 1;">▼</text></g><g class="updatemenu-dropdown-button-group" updatemenu-active-index="-1" style="pointer-events: all;"><rect class="scrollbox-bg" opacity="0" x="0" y="0" width="0" height="0" style="pointer-events: all;"/></g></g></g></svg>