<svg class="main-svg" xmlns="http://www.w3.org/2000/svg" xmlns:xlink="http://www.w3.org/1999/xlink" width="1024" height="576" style="" viewBox="0 0 1024 576"><rect x="0" y="0" width="1024" height="576" style="fill: rgb(255, 255, 255); fill-opacity: 1;"/><defs id="defs-6d2a5d"><g class="clips"><clipPath id="clip6d2a5dxyplot" class="plotclip"><rect width="726" height="396"/></clipPath><clipPath class="axesclip" id="clip6d2a5dx"><rect x="143" y="0" width="726" height="576"/></clipPath><clipPath class="axesclip" id="clip6d2a5dy"><rect x="0" y="100" width="1024" height="396"/></clipPath><clipPath class="axesclip" id="clip6d2a5dxy"><rect x="143" y="100" width="726" height="396"/></clipPath></g><g class="gradients"/><g class="patterns"/></defs><g class="bglayer"><rect class="bg" x="143" y="100" width="726" height="396" style="fill: rgb(229, 236, 246); fill-opacity: 1; stroke-width: 0;"/></g><g class="layer-below"><g class="imagelayer"/><g class="shapelayer"/></g><g class="cartesianlayer"><g class="subplot xy"><g class="layer-subplot"><g class="shapelayer"/><g class="imagelayer"/></g><g class="minor-gridlayer"><g class="x"/><g class="y"/></g><g class="gridlayer"><g class="x"><path class="xgrid crisp" transform="translate(209,0)" d="M0,100v396" style="stroke: rgb(255, 255, 255); stroke-opacity: 1; stroke-width: 1px;"/><path class="xgrid crisp" transform="translate(282.33000000000004,0)" d="M0,100v396" style="stroke: rgb(255, 255, 255); stroke-opacity: 1; stroke-width: 1px;"/><path class="xgrid crisp" transform="translate(355.66999999999996,0)" d="M0,100v396" style="stroke: rgb(255, 255, 255); stroke-opacity: 1; stroke-width: 1px;"/><path class="xgrid crisp" transform="translate(429,0)" d="M0,100v396" style="stroke: rgb(255, 255, 255); stroke-opacity: 1; stroke-width: 1px;"/><path class="xgrid crisp" transform="translate(502.33,0)" d="M0,100v396" style="stroke: rgb(255, 255, 255); stroke-opacity: 1; stroke-width: 1px;"/><path class="xgrid crisp" transform="translate(575.6700000000001,0)" d="M0,100v396" style="stroke: rgb(255, 255, 255); stroke-opacity: 1; stroke-width: 1px;"/><path class="xgrid crisp" transform="translate(649,0)" d="M0,100v396" style="stroke: rgb(255, 255, 255); stroke-opacity: 1; stroke-width: 1px;"/><path class="xgrid crisp" transform="translate(722.33,0)" d="M0,100v396" style="stroke: rgb(255, 255, 255); stroke-opacity: 1; stroke-width: 1px;"/><path class="xgrid crisp" transform="translate(795.67,0)" d="M0,100v396" style="stroke: rgb(255, 255, 255); stroke-opacity: 1; stroke-width: 1px;"/></g><g class="y"><path class="ygrid crisp" transform="translate(0,485.84)" d="M143,0h726" style="stroke: rgb(255, 255, 255); stroke-opacity: 1; stroke-width: 1px;"/><path class="ygrid crisp" transform="translate(0,442.03)" d="M143,0h726" style="stroke: rgb(255, 255, 255); stroke-opacity: 1; stroke-width: 1px;"/><path class="ygrid crisp" transform="translate(0,398.22)" d="M143,0h726" style="stroke: rgb(255, 255, 255); stroke-opacity: 1; stroke-width: 1px;"/><path class="ygrid crisp" transform="translate(0,354.40999999999997)" d="M143,0h726" style="stroke: rgb(255, 255, 255); stroke-opacity: 1; stroke-width: 1px;"/><path class="ygrid crisp" transform="translate(0,310.6)" d="M143,0h726" style="stroke: rgb(255, 255, 255); stroke-opacity: 1; stroke-width: 1px;"/><path class="ygrid crisp" transform="translate(0,266.78)" d="M143,0h726" style="stroke: rgb(255, 255, 255); stroke-opacity: 1; stroke-width: 1px;"/><path class="ygrid crisp" transform="translate(0,222.97)" d="M143,0h726" style="stroke: rgb(255, 255, 255); stroke-opacity: 1; stroke-width: 1px;"/><path class="ygrid crisp" transform="translate(0,179.16)" d="M143,0h726" style="stroke: rgb(255, 255, 255); stroke-opacity: 1; stroke-width: 1px;"/><path class="ygrid crisp" transform="translate(0,135.35)" d="M143,0h726" style="stroke: rgb(255, 255, 255); stroke-opacity: 1; stroke-width: 1px;"/></g></g><g class="zerolinelayer"/><path class="xlines-below"/><path class="ylines-below"/><g class="overlines-below"/><g class="xaxislayer-below"/><g class="yaxislayer-below"/><g class="overaxes-below"/><g class="plot" transform="translate(143,100)" clip-path="url(#clip6d2a5dxyplot)"><g class="scatterlayer mlayer"><g class="trace scatter tracec7bb1b" style="stroke-miterlimit: 2; opacity: 1;"><g class="fills"/><g class="errorbars"/><g class="lines"><path class="js-line" d="M0,293.84L7.33,184.75L14.67,180.8L22,160.21L29.33,168.76L36.67,116.62L44,120.35L51.33,108.52L58.67,105.67L66,101.29L73.33,110.05L80.67,108.08L88,85.3L95.33,88.8L102.67,93.4L110,97.34L117.33,87.49L124.67,77.41L132,75.22L139.33,91.21L146.67,66.02L154,73.91L161.33,79.16L168.67,69.31L176,50.91L183.33,64.71L190.67,69.74L198,88.14L205.33,90.12L212.67,84.42L220,81.35L227.33,74.34L234.67,71.5L242,85.95L249.33,61.64L256.67,61.42L264,46.31L271.33,53.53L278.67,44.11L286,71.06L293.33,70.84L300.67,59.23L308,54.85L315.33,59.01L322.67,58.79L330,53.75L337.33,64.49L344.67,66.02L352,50.25L359.33,44.99L366.67,58.57L374,69.96L381.33,71.93L388.67,59.23L396,58.13L403.33,67.33L410.67,63.39L418,52L425.33,53.75L432.67,41.05L440,23.96L447.33,52L454.67,52.44L462,51.78L469.33,55.94L476.67,41.49L484,54.63L491.33,53.97L498.67,48.06L506,40.61L513.33,43.68L520.67,54.85L528,47.62L535.33,42.14L542.67,29L550,26.15L557.33,22.43L564.67,36.45L572,37.32L579.33,33.38L586.67,32.51L594,34.04L601.33,23.52L608.67,35.35L616,34.04L623.33,24.62L630.67,21.77L638,46.52L645.33,23.09L652.67,33.16L660,35.57L667.33,44.77L674.67,27.69L682,39.73L689.33,37.54L696.67,28.12L704,31.85L711.33,33.16L718.67,31.85L726,19.8" style="vector-effect: none; fill: none; stroke: rgb(255, 0, 0); stroke-opacity: 1; stroke-width: 2px; opacity: 1;"/></g><g class="points"/><g class="text"/></g><g class="trace scatter trace32c554" style="stroke-miterlimit: 2; opacity: 1;"><g class="fills"/><g class="errorbars"/><g class="lines"><path class="js-line" d="M0,315.08L7.33,197.67L14.67,194.82L22,175.33L29.33,191.32L36.67,135.68L44,144.22L51.33,137.21L58.67,127.79L66,125.38L73.33,133.27L80.67,138.53L88,113.99L95.33,115.53L102.67,129.55L110,117.28L117.33,113.12L124.67,104.57L132,99.32L139.33,112.02L146.67,93.18L154,96.03L161.33,105.01L168.67,94.28L176,77.19L183.33,89.46L190.67,95.15L198,118.16L205.33,109.39L212.67,110.27L220,122.54L227.33,101.29L234.67,95.15L242,110.71L249.33,92.74L256.67,89.9L264,77.19L271.33,82.45L278.67,79.6L286,96.03L293.33,96.91L300.67,90.34L308,88.14L315.33,81.35L322.67,83.33L330,89.02L337.33,92.74L344.67,86.61L352,75.66L359.33,75.66L366.67,87.05L374,92.31L381.33,103.7L388.67,89.02L396,84.2L403.33,93.62L410.67,93.18L418,84.64L425.33,83.76L432.67,75.22L440,59.67L447.33,85.3L454.67,84.64L462,83.76L469.33,92.74L476.67,68.21L484,80.92L491.33,70.62L498.67,67.77L506,63.39L513.33,65.8L520.67,60.76L528,73.47L542.67,54.63L550,49.37L557.33,50.69L564.67,69.09L579.33,59.23L586.67,62.52L594,69.09L601.33,47.84L608.67,61.64L616,60.76L623.33,61.64L630.67,55.51L638,85.3L645.33,64.49L660,70.18L667.33,67.77L674.67,61.2L682,72.37L689.33,67.33L696.67,57.26L704,64.93L711.33,68.65L718.67,71.5L726,46.52" style="vector-effect: none; fill: none; stroke: rgb(0, 0, 255); stroke-opacity: 1; stroke-width: 2px; opacity: 1;"/></g><g class="points"/><g class="text"/></g><g class="trace scatter tracecc816a" style="stroke-miterlimit: 2; opacity: 1;"><g class="fills"/><g class="errorbars"/><g class="lines"><path class="js-line" d="M0,316.18L7.33,280.69L14.67,275.87L22,257.47L29.33,253.53L36.67,228.56L44,229.43L51.33,225.71L58.67,220.23L66,215.63L73.33,219.8L80.67,218.48L88,207.09L95.33,208.84L102.67,206.65L110,208.62L117.33,204.46L132,193.73L139.33,203.59L146.67,191.76L154,196.36L161.33,198.33L168.67,192.41L176,182.78L183.33,188.25L190.67,190.88L198,201.61L205.33,202.05L212.67,200.74L220,199.64L227.33,195.48L234.67,195.7L242,201.4L249.33,188.47L256.67,190.22L264,182.12L271.33,185.62L278.67,181.46L286,194.6L293.33,192.85L300.67,185.62L308,184.31L315.33,184.97L322.67,183.43L330,180.8L344.67,189.79L352,178.61L359.33,175.77L366.67,183.87L374,188.91L381.33,190.66L388.67,183.87L396,180.15L403.33,187.59L410.67,185.19L418,181.46L425.33,182.78L440,163.72L447.33,179.49L462,177.08L469.33,179.93L476.67,171.6L484,177.52L491.33,178.18L498.67,173.79L506,171.17L513.33,170.51L520.67,181.9L528,177.3L535.33,173.79L542.67,163.94L550,163.72L557.33,160.21L564.67,168.32L572,170.73L579.33,167L586.67,168.98L594,170.51L601.33,161.97L608.67,167.66L616,167.88L623.33,162.62L630.67,161.53L638,175.99L645.33,162.18L652.67,168.32L660,169.85L667.33,177.3L674.67,165.25L682,172.04L689.33,171.39L696.67,166.35L704,167.88L711.33,169.41L718.67,167.88L726,160.21" style="vector-effect: none; fill: none; stroke: rgb(0, 128, 0); stroke-opacity: 1; stroke-width: 2px; opacity: 1;"/></g><g class="points"/><g class="text"/></g><g class="trace scatter tracea43ad0" style="stroke-miterlimit: 2; opacity: 1;"><g class="fills"/><g class="errorbars"/><g class="lines"><path class="js-line" d="M0,322.09L7.33,285.51L14.67,278.5L22,264.48L29.33,266.45L36.67,232.28L44,238.2L51.33,240.82L58.67,231.62L66,230.75L73.33,232.72L80.67,234.47L88,225.93L95.33,223.52L102.67,232.5L110,214.76L117.33,217.17L124.67,215.41L132,207.31L139.33,213.66L146.67,208.62L154,209.94L161.33,217.61L176,201.4L183.33,201.61L190.67,206.43L198,219.14L205.33,209.94L212.67,214.32L220,228.12L227.33,211.69L234.67,205.56L242,211.25L249.33,207.97L256.67,209.94L264,203.59L271.33,204.02L278.67,207.31L286,207.53L293.33,210.6L300.67,209.06L308,212.35L315.33,202.49L322.67,200.96L330,209.5L344.67,206.87L352,199.42L366.67,209.28L374,202.93L381.33,216.51L388.67,207.53L396,201.4L403.33,206.87L410.67,207.97L418,206.21L425.33,203.37L432.67,201.4L440,194.39L447.33,206.43L454.67,203.15L462,202.05L469.33,211.91L476.67,194.82L484,198.11L491.33,189.57L506,188.69L513.33,185.84L520.67,183.43L528,198.33L542.67,187.38L550,185.62L557.33,185.84L564.67,198.11L579.33,190L586.67,193.51L594,202.27L601.33,182.56L608.67,187.38L616,188.25L623.33,196.14L630.67,189.79L638,209.5L645.33,198.99L660,199.86L667.33,195.7L674.67,194.6L682,197.89L689.33,195.92L696.67,190.44L711.33,198.33L718.67,201.18L726,183.21" style="vector-effect: none; fill: none; stroke: rgb(255, 165, 0); stroke-opacity: 1; stroke-width: 2px; opacity: 1;"/></g><g class="points"/><g class="text"/></g><g class="trace scatter trace95e7f6" style="stroke-miterlimit: 2; opacity: 1;"><g class="fills"/><g class="errorbars"/><g class="lines"><path class="js-line" d="M0,233.38L7.33,199.42L14.67,193.07L22,170.29L29.33,161.09L36.67,140.72L44,140.06L51.33,140.28L58.67,131.74L66,126.26L73.33,128.67L80.67,127.36L88,120.78L95.33,121.22L102.67,114.43L110,115.75L117.33,113.99L124.67,111.15L132,102.38L139.33,110.05L146.67,105.45L154,108.08L161.33,108.52L168.67,103.92L176,100.41L183.33,99.54L190.67,101.07L198,108.52L205.33,107.86L212.67,108.95L220,108.95L227.33,106.33L234.67,108.74L242,109.39L249.33,102.38L256.67,106.33L264,103.7L271.33,103.7L278.67,104.57L286,106.98L293.33,103.7L300.67,98.88L308,99.97L315.33,97.78L322.67,94.72L330,93.84L337.33,94.06L344.67,101.51L352,92.53L359.33,91.43L366.67,96.03L374,96.91L381.33,98.66L388.67,95.15L396,88.8L403.33,96.25L410.67,94.28L418,96.47L425.33,97.78L432.67,90.99L440,87.93L447.33,92.96L454.67,90.34L462,88.14L469.33,90.34L476.67,86.17L484,86.17L491.33,88.36L498.67,84.64L506,85.74L513.33,81.79L520.67,94.94L528,92.09L535.33,89.9L542.67,82.67L550,85.52L557.33,81.79L564.67,84.2L572,88.36L579.33,84.64L586.67,89.9L594,91.43L601.33,84.42L608.67,83.98L616,85.74L623.33,85.08L630.67,85.95L638,90.55L645.33,85.74L652.67,87.49L660,88.14L667.33,94.72L674.67,86.83L682,89.02L689.33,89.46L696.67,89.24L704,87.93L711.33,89.9L718.67,88.14L726,85.3" style="vector-effect: none; fill: none; stroke: rgb(128, 0, 128); stroke-opacity: 1; stroke-width: 2px; opacity: 1;"/></g><g class="points"/><g class="text"/></g><g class="trace scatter trace337c1f" style="stroke-miterlimit: 2; opacity: 1;"><g class="fills"/><g class="errorbars"/><g class="lines"><path class="js-line" d="M0,240.17L7.33,202.27L14.67,192.2L22,175.55L29.33,174.01L36.67,136.99L44,143.13L51.33,150.79L58.67,139.4L73.33,138.53L80.67,139.4L88,135.9L95.33,131.08L102.67,139.84L110,115.09L117.33,121.22L124.67,122.76L132,110.93L139.33,115.53L146.67,117.06L154,117.72L161.33,126.26L168.67,117.72L176,113.99L183.33,106.11L190.67,111.8L198,122.1L205.33,110.49L212.67,117.5L220,135.9L227.33,117.94L234.67,110.05L242,112.02L249.33,116.18L256.67,121.22L271.33,115.53L278.67,124.07L286,113.12L293.33,118.37L300.67,119.69L308,127.14L315.33,113.12L322.67,109.17L330,121.22L337.33,116.18L344.67,117.72L352,111.15L359.33,120.78L366.67,121.88L374,106.76L381.33,125.16L396,109.17L403.33,113.55L418,117.72L425.33,113.34L432.67,115.31L440,114.65L447.33,118.16L454.67,112.02L462,110.71L469.33,123.19L476.67,108.08L484,105.01L491.33,96.25L498.67,97.56L506,99.75L513.33,92.53L520.67,91.65L528,110.93L535.33,107.2L542.67,104.79L550,106.55L557.33,105.45L564.67,113.77L572,110.05L579.33,105.89L586.67,110.05L594,122.1L601.33,101.07L608.67,98.66L616,101.07L623.33,116.62L630.67,109.17L638,123.85L645.33,119.69L660,116.4L667.33,110.27L674.67,113.55L682,110.93L689.33,111.36L696.67,108.52L704,111.15L711.33,114.87L718.67,117.94L726,103.92" style="vector-effect: none; fill: none; stroke: rgb(255, 192, 203); stroke-opacity: 1; stroke-width: 2px; opacity: 1;"/></g><g class="points"/><g class="text"/></g><g class="trace scatter trace9c97ee" style="stroke-miterlimit: 2; opacity: 1;"><g class="fills"/><g class="errorbars"/><g class="lines"><path class="js-line" d="M0,360.21L7.33,283.98L14.67,278.94L22,257.47L29.33,258.57L36.67,220.01L44,221.77L51.33,215.2L58.67,209.72L66,204.9L73.33,211.03L80.67,209.28L88,193.07L95.33,195.48L102.67,195.04L110,197.89L117.33,191.54L124.67,184.31L132,179.27L139.33,191.98L146.67,175.11L154,181.02L161.33,184.09L168.67,176.42L176,163.94L183.33,171.82L190.67,175.33L198,189.35L205.33,190.44L212.67,187.59L220,185.84L227.33,180.37L234.67,179.71L242,188.69L249.33,171.17L256.67,172.92L264,162.84L271.33,167L278.67,161.97L286,178.61L293.33,177.3L300.67,168.1L308,166.13L315.33,167.66L322.67,166.13L330,162.62L337.33,169.19L344.67,173.36L352,160.21L359.33,156.49L366.67,166.57L374,173.58L381.33,175.77L388.67,166.57L396,163.06L403.33,172.04L410.67,168.76L418,162.84L425.33,164.59L440,142.47L447.33,161.31L462,158.9L469.33,162.4L476.67,151.89L484,159.99L491.33,160.43L498.67,155.18L506,151.45L513.33,151.45L520.67,163.94L528,158.46L535.33,154.08L542.67,143.13L550,142.69L557.33,138.75L564.67,148.17L572,150.57L579.33,146.63L586.67,148.38L594,149.92L601.33,140.72L608.67,147.51L616,147.51L623.33,141.37L630.67,140.06L638,156.93L645.33,140.94L652.67,147.73L660,149.48L667.33,157.8L674.67,144.22L682,152.33L689.33,151.23L696.67,145.54L704,147.07L711.33,148.82L718.67,147.29L726,138.75" style="vector-effect: none; fill: none; stroke: rgb(165, 42, 42); stroke-opacity: 1; stroke-width: 2px; opacity: 1;"/></g><g class="points"/><g class="text"/></g><g class="trace scatter trace1de016" style="stroke-miterlimit: 2; opacity: 1;"><g class="fills"/><g class="errorbars"/><g class="lines"><path class="js-line" d="M0,376.2L7.33,292.96L14.67,287.05L22,269.08L29.33,277.84L36.67,230.09L44,237.76L51.33,236.66L58.67,226.37L66,225.05L73.33,229.43L80.67,232.94L88,217.17L95.33,215.85L102.67,227.9L110,210.38L117.33,210.38L124.67,206L132,197.89L139.33,207.31L146.67,196.8L154,198.77L161.33,207.75L168.67,197.67L176,186.28L183.33,190L190.67,195.7L198,213.66L205.33,203.59L212.67,207.09L220,221.99L227.33,201.83L234.67,195.04L242,205.12L249.33,196.14L256.67,196.8L264,188.25L278.67,191.98L286,196.8L293.33,199.64L300.67,196.36L308,198.33L315.33,188.25L322.67,187.59L330,196.14L337.33,196.14L344.67,193.29L352,184.09L359.33,188.47L366.67,195.48L374,191.98L381.33,206.43L388.67,194.6L396,188.25L403.33,195.7L410.67,196.36L418,192.2L425.33,189.79L432.67,185.62L440,176.42L447.33,192.63L454.67,189.79L462,188.69L469.33,199.2L476.67,178.39L484,184.53L491.33,174.45L506,171.82L513.33,170.07L520.67,166.57L528,182.56L542.67,168.76L550,166.57L557.33,167L564.67,181.46L579.33,172.04L586.67,175.99L594,185.19L601.33,163.28L608.67,170.29L616,170.73L623.33,178.39L630.67,171.39L638,195.26L645.33,181.46L660,183.21L667.33,179.05L674.67,176.64L682,182.12L689.33,179.27L696.67,172.26L704,177.74L711.33,181.68L718.67,184.75L726,163.72" style="vector-effect: none; fill: none; stroke: rgb(128, 128, 128); stroke-opacity: 1; stroke-width: 2px; opacity: 1;"/></g><g class="points"/><g class="text"/></g></g></g><g class="overplot"/><path class="xlines-above crisp" d="M0,0" style="fill: none;"/><path class="ylines-above crisp" d="M0,0" style="fill: none;"/><g class="overlines-above"/><g class="xaxislayer-above"><g class="xtick"><text text-anchor="middle" x="0" y="509" transform="translate(209,0)" style="font-family: 'Open Sans', verdana, arial, sans-serif; font-size: 12px; fill: rgb(42, 63, 95); fill-opacity: 1; white-space: pre; opacity: 1;">10</text></g><g class="xtick"><text text-anchor="middle" x="0" y="509" style="font-family: 'Open Sans', verdana, arial, sans-serif; font-size: 12px; fill: rgb(42, 63, 95); fill-opacity: 1; white-space: pre; opacity: 1;" transform="translate(282.33000000000004,0)">20</text></g><g class="xtick"><text text-anchor="middle" x="0" y="509" style="font-family: 'Open Sans', verdana, arial, sans-serif; font-size: 12px; fill: rgb(42, 63, 95); fill-opacity: 1; white-space: pre; opacity: 1;" transform="translate(355.66999999999996,0)">30</text></g><g class="xtick"><text text-anchor="middle" x="0" y="509" style="font-family: 'Open Sans', verdana, arial, sans-serif; font-size: 12px; fill: rgb(42, 63, 95); fill-opacity: 1; white-space: pre; opacity: 1;" transform="translate(429,0)">40</text></g><g class="xtick"><text text-anchor="middle" x="0" y="509" style="font-family: 'Open Sans', verdana, arial, sans-serif; font-size: 12px; fill: rgb(42, 63, 95); fill-opacity: 1; white-space: pre; opacity: 1;" transform="translate(502.33,0)">50</text></g><g class="xtick"><text text-anchor="middle" x="0" y="509" style="font-family: 'Open Sans', verdana, arial, sans-serif; font-size: 12px; fill: rgb(42, 63, 95); fill-opacity: 1; white-space: pre; opacity: 1;" transform="translate(575.6700000000001,0)">60</text></g><g class="xtick"><text text-anchor="middle" x="0" y="509" style="font-family: 'Open Sans', verdana, arial, sans-serif; font-size: 12px; fill: rgb(42, 63, 95); fill-opacity: 1; white-space: pre; opacity: 1;" transform="translate(649,0)">70</text></g><g class="xtick"><text text-anchor="middle" x="0" y="509" style="font-family: 'Open Sans', verdana, arial, sans-serif; font-size: 12px; fill: rgb(42, 63, 95); fill-opacity: 1; white-space: pre; opacity: 1;" transform="translate(722.33,0)">80</text></g><g class="xtick"><text text-anchor="middle" x="0" y="509" style="font-family: 'Open Sans', verdana, arial, sans-serif; font-size: 12px; fill: rgb(42, 63, 95); fill-opacity: 1; white-space: pre; opacity: 1;" transform="translate(795.67,0)">90</text></g><g class="xtick"><text text-anchor="middle" x="0" y="509" style="font-family: 'Open Sans', verdana, arial, sans-serif; font-size: 12px; fill: rgb(42, 63, 95); fill-opacity: 1; white-space: pre; opacity: 1;" transform="translate(869,0)">100</text></g></g><g class="yaxislayer-above"><g class="ytick"><text text-anchor="end" x="142" y="4.199999999999999" transform="translate(0,485.84)" style="font-family: 'Open Sans', verdana, arial, sans-serif; font-size: 12px; fill: rgb(42, 63, 95); fill-opacity: 1; white-space: pre; opacity: 1;">58</text></g><g class="ytick"><text text-anchor="end" x="142" y="4.199999999999999" style="font-family: 'Open Sans', verdana, arial, sans-serif; font-size: 12px; fill: rgb(42, 63, 95); fill-opacity: 1; white-space: pre; opacity: 1;" transform="translate(0,442.03)">60</text></g><g class="ytick"><text text-anchor="end" x="142" y="4.199999999999999" style="font-family: 'Open Sans', verdana, arial, sans-serif; font-size: 12px; fill: rgb(42, 63, 95); fill-opacity: 1; white-space: pre; opacity: 1;" transform="translate(0,398.22)">62</text></g><g class="ytick"><text text-anchor="end" x="142" y="4.199999999999999" style="font-family: 'Open Sans', verdana, arial, sans-serif; font-size: 12px; fill: rgb(42, 63, 95); fill-opacity: 1; white-space: pre; opacity: 1;" transform="translate(0,354.40999999999997)">64</text></g><g class="ytick"><text text-anchor="end" x="142" y="4.199999999999999" style="font-family: 'Open Sans', verdana, arial, sans-serif; font-size: 12px; fill: rgb(42, 63, 95); fill-opacity: 1; white-space: pre; opacity: 1;" transform="translate(0,310.6)">66</text></g><g class="ytick"><text text-anchor="end" x="142" y="4.199999999999999" style="font-family: 'Open Sans', verdana, arial, sans-serif; font-size: 12px; fill: rgb(42, 63, 95); fill-opacity: 1; white-space: pre; opacity: 1;" transform="translate(0,266.78)">68</text></g><g class="ytick"><text text-anchor="end" x="142" y="4.199999999999999" style="font-family: 'Open Sans', verdana, arial, sans-serif; font-size: 12px; fill: rgb(42, 63, 95); fill-opacity: 1; white-space: pre; opacity: 1;" transform="translate(0,222.97)">70</text></g><g class="ytick"><text text-anchor="end" x="142" y="4.199999999999999" style="font-family: 'Open Sans', verdana, arial, sans-serif; font-size: 12px; fill: rgb(42, 63, 95); fill-opacity: 1; white-space: pre; opacity: 1;" transform="translate(0,179.16)">72</text></g><g class="ytick"><text text-anchor="end" x="142" y="4.199999999999999" style="font-family: 'Open Sans', verdana, arial, sans-serif; font-size: 12px; fill: rgb(42, 63, 95); fill-opacity: 1; white-space: pre; opacity: 1;" transform="translate(0,135.35)">74</text></g></g><g class="overaxes-above"/></g></g><g class="polarlayer"/><g class="smithlayer"/><g class="ternarylayer"/><g class="geolayer"/><g class="funnelarealayer"/><g class="pielayer"/><g class="iciclelayer"/><g class="treemaplayer"/><g class="sunburstlayer"/><g class="glimages"/><defs id="topdefs-6d2a5d"><g class="clips"/><clipPath id="legend6d2a5d"><rect width="128" height="162" x="0" y="0"/></clipPath></defs><g class="layer-above"><g class="imagelayer"/><g class="shapelayer"/></g><g class="infolayer"><g class="legend" pointer-events="all" transform="translate(883.52,100)"><rect class="bg" shape-rendering="crispEdges" width="128" height="162" x="0" y="0" style="stroke: rgb(68, 68, 68); stroke-opacity: 1; fill: rgb(255, 255, 255); fill-opacity: 1; stroke-width: 0px;"/><g class="scrollbox" transform="" clip-path="url(#legend6d2a5d)"><g class="groups"><g class="traces" transform="translate(0,14.5)" style="opacity: 1;"><text class="legendtext" text-anchor="start" x="40" y="4.680000000000001" style="font-family: 'Open Sans', verdana, arial, sans-serif; font-size: 12px; fill: rgb(42, 63, 95); fill-opacity: 1; white-space: pre;">Train Accuracy</text><g class="layers" style="opacity: 1;"><g class="legendfill"/><g class="legendlines"><path class="js-line" d="M5,0h30" style="fill: none; stroke: rgb(255, 0, 0); stroke-opacity: 1; stroke-width: 2px;"/></g><g class="legendsymbols"><g class="legendpoints"/></g></g><rect class="legendtoggle" x="0" y="-9.5" width="122.71875" height="19" style="fill: rgb(0, 0, 0); fill-opacity: 0;"/></g><g class="traces" transform="translate(0,33.5)" style="opacity: 1;"><text class="legendtext" text-anchor="start" x="40" y="4.680000000000001" style="font-family: 'Open Sans', verdana, arial, sans-serif; font-size: 12px; fill: rgb(42, 63, 95); fill-opacity: 1; white-space: pre;">Test Accuracy</text><g class="layers" style="opacity: 1;"><g class="legendfill"/><g class="legendlines"><path class="js-line" d="M5,0h30" style="fill: none; stroke: rgb(0, 0, 255); stroke-opacity: 1; stroke-width: 2px;"/></g><g class="legendsymbols"><g class="legendpoints"/></g></g><rect class="legendtoggle" x="0" y="-9.5" width="122.71875" height="19" style="fill: rgb(0, 0, 0); fill-opacity: 0;"/></g><g class="traces" transform="translate(0,52.5)" style="opacity: 1;"><text class="legendtext" text-anchor="start" x="40" y="4.680000000000001" style="font-family: 'Open Sans', verdana, arial, sans-serif; font-size: 12px; fill: rgb(42, 63, 95); fill-opacity: 1; white-space: pre;">Train Precision</text><g class="layers" style="opacity: 1;"><g class="legendfill"/><g class="legendlines"><path class="js-line" d="M5,0h30" style="fill: none; stroke: rgb(0, 128, 0); stroke-opacity: 1; stroke-width: 2px;"/></g><g class="legendsymbols"><g class="legendpoints"/></g></g><rect class="legendtoggle" x="0" y="-9.5" width="122.71875" height="19" style="fill: rgb(0, 0, 0); fill-opacity: 0;"/></g><g class="traces" transform="translate(0,71.5)" style="opacity: 1;"><text class="legendtext" text-anchor="start" x="40" y="4.680000000000001" style="font-family: 'Open Sans', verdana, arial, sans-serif; font-size: 12px; fill: rgb(42, 63, 95); fill-opacity: 1; white-space: pre;">Test Precision</text><g class="layers" style="opacity: 1;"><g class="legendfill"/><g class="legendlines"><path class="js-line" d="M5,0h30" style="fill: none; stroke: rgb(255, 165, 0); stroke-opacity: 1; stroke-width: 2px;"/></g><g class="legendsymbols"><g class="legendpoints"/></g></g><rect class="legendtoggle" x="0" y="-9.5" width="122.71875" height="19" style="fill: rgb(0, 0, 0); fill-opacity: 0;"/></g><g class="traces" transform="translate(0,90.5)" style="opacity: 1;"><text class="legendtext" text-anchor="start" x="40" y="4.680000000000001" style="font-family: 'Open Sans', verdana, arial, sans-serif; font-size: 12px; fill: rgb(42, 63, 95); fill-opacity: 1; white-space: pre;">Train Recall</text><g class="layers" style="opacity: 1;"><g class="legendfill"/><g class="legendlines"><path class="js-line" d="M5,0h30" style="fill: none; stroke: rgb(128, 0, 128); stroke-opacity: 1; stroke-width: 2px;"/></g><g class="legendsymbols"><g class="legendpoints"/></g></g><rect class="legendtoggle" x="0" y="-9.5" width="122.71875" height="19" style="fill: rgb(0, 0, 0); fill-opacity: 0;"/></g><g class="traces" transform="translate(0,109.5)" style="opacity: 1;"><text class="legendtext" text-anchor="start" x="40" y="4.680000000000001" style="font-family: 'Open Sans', verdana, arial, sans-serif; font-size: 12px; fill: rgb(42, 63, 95); fill-opacity: 1; white-space: pre;">Test Recall</text><g class="layers" style="opacity: 1;"><g class="legendfill"/><g class="legendlines"><path class="js-line" d="M5,0h30" style="fill: none; stroke: rgb(255, 192, 203); stroke-opacity: 1; stroke-width: 2px;"/></g><g class="legendsymbols"><g class="legendpoints"/></g></g><rect class="legendtoggle" x="0" y="-9.5" width="122.71875" height="19" style="fill: rgb(0, 0, 0); fill-opacity: 0;"/></g><g class="traces" transform="translate(0,128.5)" style="opacity: 1;"><text class="legendtext" text-anchor="start" x="40" y="4.680000000000001" style="font-family: 'Open Sans', verdana, arial, sans-serif; font-size: 12px; fill: rgb(42, 63, 95); fill-opacity: 1; white-space: pre;">Train F1</text><g class="layers" style="opacity: 1;"><g class="legendfill"/><g class="legendlines"><path class="js-line" d="M5,0h30" style="fill: none; stroke: rgb(165, 42, 42); stroke-opacity: 1; stroke-width: 2px;"/></g><g class="legendsymbols"><g class="legendpoints"/></g></g><rect class="legendtoggle" x="0" y="-9.5" width="122.71875" height="19" style="fill: rgb(0, 0, 0); fill-opacity: 0;"/></g><g class="traces" transform="translate(0,147.5)" style="opacity: 1;"><text class="legendtext" text-anchor="start" x="40" y="4.680000000000001" style="font-family: 'Open Sans', verdana, arial, sans-serif; font-size: 12px; fill: rgb(42, 63, 95); fill-opacity: 1; white-space: pre;">Test F1</text><g class="layers" style="opacity: 1;"><g class="legendfill"/><g class="legendlines"><path class="js-line" d="M5,0h30" style="fill: none; stroke: rgb(128, 128, 128); stroke-opacity: 1; stroke-width: 2px;"/></g><g class="legendsymbols"><g class="legendpoints"/></g></g><rect class="legendtoggle" x="0" y="-9.5" width="122.71875" height="19" style="fill: rgb(0, 0, 0); fill-opacity: 0;"/></g></g></g><rect class="scrollbar" rx="20" ry="3" width="0" height="0" x="0" y="0" style="fill: rgb(128, 139, 164); fill-opacity: 1;"/></g><g class="g-gtitle"><text class="gtitle" x="51.2" y="50" text-anchor="start" dy="0em" style="font-family: 'Open Sans', verdana, arial, sans-serif; font-size: 17px; fill: rgb(42, 63, 95); opacity: 1; font-weight: normal; white-space: pre;">Training Metrics - logs/FakeNewsNet_domain.log</text></g><g class="g-xtitle"><text class="xtitle" x="506" y="537.3" text-anchor="middle" style="font-family: 'Open Sans', verdana, arial, sans-serif; font-size: 14px; fill: rgb(42, 63, 95); opacity: 1; font-weight: normal; white-space: pre;">Epoch</text></g><g class="g-ytitle"><text class="ytitle" transform="rotate(-90,103.965625,298)" x="103.965625" y="298" text-anchor="middle" style="font-family: 'Open Sans', verdana, arial, sans-serif; font-size: 14px; fill: rgb(42, 63, 95); opacity: 1; font-weight: normal; white-space: pre;">Metric Score</text></g></g><g class="menulayer"><g class="updatemenu-container" style="cursor: pointer;"><g class="updatemenu-header-group" transform="translate(12,60)"><g class="updatemenu-header" transform="translate(1,1)" style="pointer-events: all;"><rect class="updatemenu-item-rect" rx="2" ry="2" shape-rendering="crispEdges" x="0" y="0" width="167" height="33" style="stroke: rgb(190, 200, 217); stroke-opacity: 1; fill: rgb(255, 255, 255); fill-opacity: 1; stroke-width: 1px;"/><text class="updatemenu-item-text" text-anchor="start" data-notex="1" x="12" y="19.5" style="font-family: 'Open Sans', verdana, arial, sans-serif; font-size: 12px; fill: rgb(42, 63, 95); fill-opacity: 1; white-space: pre;">All</text></g><text class="updatemenu-header-arrow" text-anchor="end" x="163" y="19.5" style="font-family: 'Open Sans', verdana, arial, sans-serif; font-size: 12px; fill: rgb(42, 63, 95); fill-opacity: 1;">▼</text></g><g class="updatemenu-dropdown-button-group" updatemenu-active-index="-1" style="pointer-events: all;"><rect class="scrollbox-bg" opacity="0" x="0" y="0" width="0" height="0" style="pointer-events: all;"/></g></g></g></svg>