<svg class="main-svg" xmlns="http://www.w3.org/2000/svg" xmlns:xlink="http://www.w3.org/1999/xlink" width="1024" height="576" style="" viewBox="0 0 1024 576"><rect x="0" y="0" width="1024" height="576" style="fill: rgb(255, 255, 255); fill-opacity: 1;"/><defs id="defs-7d3502"><g class="clips"><clipPath id="clip7d3502xyplot" class="plotclip"><rect width="726" height="396"/></clipPath><clipPath class="axesclip" id="clip7d3502x"><rect x="143" y="0" width="726" height="576"/></clipPath><clipPath class="axesclip" id="clip7d3502y"><rect x="0" y="100" width="1024" height="396"/></clipPath><clipPath class="axesclip" id="clip7d3502xy"><rect x="143" y="100" width="726" height="396"/></clipPath></g><g class="gradients"/><g class="patterns"/></defs><g class="bglayer"><rect class="bg" x="143" y="100" width="726" height="396" style="fill: rgb(229, 236, 246); fill-opacity: 1; stroke-width: 0;"/></g><g class="layer-below"><g class="imagelayer"/><g class="shapelayer"/></g><g class="cartesianlayer"><g class="subplot xy"><g class="layer-subplot"><g class="shapelayer"/><g class="imagelayer"/></g><g class="minor-gridlayer"><g class="x"/><g class="y"/></g><g class="gridlayer"><g class="x"><path class="xgrid crisp" transform="translate(235.57999999999998,0)" d="M0,100v396" style="stroke: rgb(255, 255, 255); stroke-opacity: 1; stroke-width: 1px;"/><path class="xgrid crisp" transform="translate(333.03,0)" d="M0,100v396" style="stroke: rgb(255, 255, 255); stroke-opacity: 1; stroke-width: 1px;"/><path class="xgrid crisp" transform="translate(430.48,0)" d="M0,100v396" style="stroke: rgb(255, 255, 255); stroke-opacity: 1; stroke-width: 1px;"/><path class="xgrid crisp" transform="translate(527.9300000000001,0)" d="M0,100v396" style="stroke: rgb(255, 255, 255); stroke-opacity: 1; stroke-width: 1px;"/><path class="xgrid crisp" transform="translate(625.38,0)" d="M0,100v396" style="stroke: rgb(255, 255, 255); stroke-opacity: 1; stroke-width: 1px;"/><path class="xgrid crisp" transform="translate(722.83,0)" d="M0,100v396" style="stroke: rgb(255, 255, 255); stroke-opacity: 1; stroke-width: 1px;"/><path class="xgrid crisp" transform="translate(820.28,0)" d="M0,100v396" style="stroke: rgb(255, 255, 255); stroke-opacity: 1; stroke-width: 1px;"/></g><g class="y"><path class="ygrid crisp" transform="translate(0,492.86)" d="M143,0h726" style="stroke: rgb(255, 255, 255); stroke-opacity: 1; stroke-width: 1px;"/><path class="ygrid crisp" transform="translate(0,424.01)" d="M143,0h726" style="stroke: rgb(255, 255, 255); stroke-opacity: 1; stroke-width: 1px;"/><path class="ygrid crisp" transform="translate(0,355.15)" d="M143,0h726" style="stroke: rgb(255, 255, 255); stroke-opacity: 1; stroke-width: 1px;"/><path class="ygrid crisp" transform="translate(0,286.28999999999996)" d="M143,0h726" style="stroke: rgb(255, 255, 255); stroke-opacity: 1; stroke-width: 1px;"/><path class="ygrid crisp" transform="translate(0,217.44)" d="M143,0h726" style="stroke: rgb(255, 255, 255); stroke-opacity: 1; stroke-width: 1px;"/><path class="ygrid crisp" transform="translate(0,148.57999999999998)" d="M143,0h726" style="stroke: rgb(255, 255, 255); stroke-opacity: 1; stroke-width: 1px;"/></g></g><g class="zerolinelayer"/><path class="xlines-below"/><path class="ylines-below"/><g class="overlines-below"/><g class="xaxislayer-below"/><g class="yaxislayer-below"/><g class="overaxes-below"/><g class="plot" transform="translate(143,100)" clip-path="url(#clip7d3502xyplot)"><g class="scatterlayer mlayer"><g class="trace scatter traceb8ff73" style="stroke-miterlimit: 2; opacity: 1;"><g class="fills"/><g class="errorbars"/><g class="lines"><path class="js-line" d="M0,365.05L4.87,338.19L9.74,335.44L14.62,323.87L19.49,303.9L24.36,296.19L29.23,290.27L38.98,270.85L43.85,271.95L48.72,226.92L53.6,224.3L58.47,217.14L63.34,232.98L68.21,218.93L73.09,221.69L77.96,228.85L82.83,240.97L87.7,250.74L92.58,200.48L97.45,211.08L102.32,214.94L107.19,207.64L112.07,216.32L121.81,217.83L126.68,220.17L131.56,224.99L136.43,233.94L141.3,247.99L146.17,213.42L155.92,204.75L160.79,224.72L165.66,183.95L170.54,186.02L175.41,187.53L180.28,191.39L185.15,189.87L190.03,162.61L194.9,177.07L199.77,176.38L204.64,187.26L209.52,171.97L214.39,175.83L219.26,154.62L224.13,160.13L229.01,159.58L233.88,183.68L238.75,180.1L243.62,186.98L248.5,180.37L253.37,187.67L258.24,190.15L263.11,189.6L267.99,191.8L272.86,198.69L277.73,176.93L282.6,180.51L287.48,161.51L292.35,142.5L297.22,157.51L306.97,180.92L311.84,186.02L316.71,194.69L321.58,213.56L326.46,208.19L331.33,191.39L336.2,190.29L341.07,195.66L345.95,169.63L350.82,176.24L355.69,157.24L360.56,164.95L365.44,183.54L370.31,190.56L380.05,143.33L384.93,163.43L389.8,173.21L394.67,186.98L399.54,154.48L404.42,157.51L409.29,164.26L414.16,163.99L419.03,180.1L423.91,163.02L428.78,172.39L433.65,173.9L438.52,175.14L443.4,185.33L448.27,198.14L453.14,203.37L458.01,211.22L462.89,193.59L467.76,199.38L472.63,179.68L477.5,179.27L482.38,161.23L487.25,177.76L492.12,180.65L496.99,194.97L501.87,197.86L506.74,192.08L511.61,199.79L516.48,206.4L521.36,202.82L526.23,201.86L531.1,195.11L535.97,160.54L540.85,135.89L550.59,162.61L555.46,145.94L560.34,156.41L565.21,139.33L570.08,124.6L574.95,139.33L579.83,152.97L584.7,138.65L589.57,128.18L594.44,111.79L599.32,132.72L604.19,149.66L609.06,139.33L613.93,145.67L618.81,125.56L623.68,140.71L633.42,152.97L638.3,138.23L643.17,148.29L648.04,163.99L652.91,150.63L657.79,160.13L662.66,159.3L667.53,163.02L672.4,151.45L677.28,172.66L682.15,180.92L687.02,191.25L691.89,164.95L696.77,169.91L701.64,158.34L706.51,163.43L711.38,162.88L716.26,169.77L721.13,164.81L726,167.15" style="vector-effect: none; fill: none; stroke: rgb(255, 0, 0); stroke-opacity: 1; stroke-width: 2px; opacity: 1;"/></g><g class="points"/><g class="text"/></g><g class="trace scatter tracead19f3" style="stroke-miterlimit: 2; opacity: 1;"><g class="fills"/><g class="errorbars"/><g class="lines"><path class="js-line" d="M0,373.72L4.87,351.69L9.74,353.62L14.62,341.77L19.49,333.37L24.36,300.04L29.23,292.88L34.11,292.61L38.98,281.04L43.85,268.65L48.72,227.33L53.6,229.12L58.47,227.61L63.34,238.76L68.21,224.44L73.09,236.28L77.96,241.65L82.83,253.09L87.7,261.49L92.58,216.73L97.45,226.09L102.32,237.25L107.19,226.92L116.94,231.33L121.81,227.33L126.68,242.48L131.56,237.25L136.43,239.04L141.3,260.25L146.17,236.01L151.05,232.29L155.92,225.68L160.79,238.76L165.66,184.64L170.54,190.56L175.41,190.56L180.28,192.77L185.15,210.12L190.03,174.73L194.9,194.69L199.77,197.45L204.64,196.21L209.52,179.68L214.39,190.01L219.26,173.21L224.13,178.72L229.01,182.16L233.88,209.57L238.75,196.49L243.62,206.13L248.5,189.05L253.37,198.69L258.24,195.25L267.99,207.36L272.86,211.77L277.73,189.32L282.6,198L292.35,159.85L297.22,181.2L302.09,200.48L306.97,207.64L311.84,212.05L316.71,220.72L321.58,221.69L326.46,215.21L331.33,200.2L336.2,210.12L341.07,203.37L345.95,186.29L350.82,194.01L355.69,171.97L360.56,171.28L365.44,188.08L370.31,198.41L375.18,181.89L380.05,151.45L384.93,167.01L389.8,189.05L394.67,191.25L399.54,168.25L404.42,178.17L409.29,171.56L414.16,176.65L419.03,200.89L423.91,187.81L428.78,193.73L433.65,201.44L438.52,201.44L443.4,217L448.27,219.21L453.14,224.44L458.01,224.44L462.89,205.57L467.76,208.88L472.63,189.05L477.5,190.29L482.38,179.68L487.25,184.37L492.12,192.49L496.99,194.28L501.87,189.32L506.74,203.37L511.61,209.57L516.48,206.13L521.36,212.74L526.23,217.69L531.1,209.29L535.97,174.73L540.85,151.73L545.72,167.01L550.59,185.06L555.46,165.36L560.34,175L570.08,150.21L574.95,155.72L579.83,167.57L584.7,156.96L589.57,151.45L594.44,136.17L599.32,163.57L604.19,177.89L609.06,169.77L613.93,178.44L618.81,152.97L623.68,175L628.55,182.44L633.42,187.81L638.3,170.04L643.17,178.72L648.04,194.69L652.91,179.41L657.79,190.56L662.66,185.61L667.53,188.08L672.4,172.8L677.28,196.21L682.15,202.41L687.02,209.57L691.89,185.61L696.77,194.28L701.64,187.81L711.38,176.93L716.26,180.65L721.13,188.77L726,185.88" style="vector-effect: none; fill: none; stroke: rgb(0, 0, 255); stroke-opacity: 1; stroke-width: 2px; opacity: 1;"/></g><g class="points"/><g class="text"/></g><g class="trace scatter trace55410f" style="stroke-miterlimit: 2; opacity: 1;"><g class="fills"/><g class="errorbars"/><g class="lines"><path class="js-line" d="M0,194.97L4.87,180.79L9.74,180.51L14.62,171.42L19.49,164.4L24.36,164.95L29.23,162.47L34.11,159.99L38.98,154.48L43.85,151.18L48.72,142.36L53.6,139.75L58.47,134.24L63.34,136.3L68.21,134.1L73.09,136.17L77.96,136.44L87.7,143.47L92.58,129.97L97.45,133.55L102.32,134.38L107.19,133.83L112.07,129.14L116.94,132.59L121.81,133L126.68,133.55L131.56,131.48L141.3,137.54L146.17,128.73L151.05,125.84L155.92,127.35L160.79,130.38L165.66,123.5L170.54,121.43L175.41,120.19L185.15,122.95L190.03,116.89L194.9,122.26L199.77,120.88L204.64,122.53L209.52,120.88L214.39,119.5L219.26,113.58L224.13,116.06L229.01,113.31L233.88,120.47L238.75,123.22L243.62,120.61L248.5,122.81L253.37,121.71L258.24,119.78L267.99,122.4L272.86,122.53L277.73,121.16L282.6,123.91L292.35,110.83L297.22,113.44L302.09,113.44L306.97,115.51L311.84,117.85L316.71,121.71L321.58,130.38L326.46,125.15L331.33,120.47L336.2,120.19L341.07,121.29L345.95,113.86L350.82,116.2L355.69,111.93L360.56,113.03L365.44,121.84L370.31,120.05L375.18,113.44L380.05,110.97L384.93,114.55L389.8,115.23L394.67,118.54L399.54,113.17L404.42,111.79L409.29,114L414.16,112.62L419.03,120.19L423.91,114.41L428.78,120.33L433.65,117.58L438.52,118.95L443.4,121.43L448.27,122.67L453.14,121.16L458.01,124.74L462.89,120.47L467.76,122.53L472.63,120.74L482.38,113.86L487.25,116.61L492.12,119.5L496.99,123.64L501.87,122.53L506.74,118.68L516.48,121.98L521.36,121.02L526.23,120.88L531.1,115.65L535.97,111.38L540.85,105.04L550.59,113.03L555.46,109.59L560.34,114.27L565.21,109.04L570.08,106.01L574.95,109.45L579.83,113.44L584.7,107.8L589.57,106.01L594.44,101.74L599.32,109.31L604.19,112.21L609.06,106.83L613.93,111.1L618.81,103.67L623.68,108.49L628.55,112.21L633.42,113.17L638.3,108.35L643.17,112.34L648.04,119.5L652.91,117.03L657.79,118.13L662.66,117.44L667.53,115.51L672.4,114.82L677.28,121.84L682.15,123.77L687.02,125.01L691.89,117.99L701.64,115.1L706.51,117.58L711.38,115.65L716.26,120.47L721.13,116.47L726,116.34" style="vector-effect: none; fill: none; stroke: rgb(0, 128, 0); stroke-opacity: 1; stroke-width: 2px; opacity: 1;"/></g><g class="points"/><g class="text"/></g><g class="trace scatter trace7a6a55" style="stroke-miterlimit: 2; opacity: 1;"><g class="fills"/><g class="errorbars"/><g class="lines"><path class="js-line" d="M0,211.08L4.87,188.5L9.74,186.16L14.62,187.12L19.49,187.26L24.36,173.49L29.23,167.57L34.11,168.8L38.98,158.2L43.85,157.1L48.72,150.35L58.47,143.19L63.34,144.57L68.21,140.71L73.09,146.08L77.96,145.94L82.83,152.97L87.7,155.31L92.58,146.5L97.45,151.45L102.32,154.21L107.19,152.55L112.07,142.5L116.94,146.22L121.81,142.64L126.68,151.87L131.56,143.05L136.43,141.26L141.3,150.9L146.17,148.01L151.05,148.7L155.92,141.54L160.79,142.36L165.66,128.87L170.54,129.28L175.41,128.59L180.28,129.42L185.15,136.72L190.03,125.15L194.9,134.79L199.77,133.96L204.64,129.97L209.52,132.04L214.39,132.86L219.26,125.56L224.13,129.01L229.01,129.69L233.88,136.44L238.75,132.04L243.62,132.31L248.5,130.25L253.37,135.34L258.24,131.62L263.11,137.82L267.99,141.12L272.86,142.5L277.73,134.24L282.6,142.36L287.48,138.1L292.35,134.24L297.22,140.02L302.09,144.15L306.97,144.02L311.84,145.81L316.71,142.91L321.58,134.24L326.46,135.07L331.33,132.86L336.2,136.3L341.07,132.45L345.95,132.59L350.82,133.83L355.69,126.94L360.56,124.46L365.44,130.66L370.31,133.55L375.18,132.59L380.05,121.02L384.93,123.36L389.8,131.76L394.67,128.46L399.54,122.4L404.42,129.97L409.29,121.29L414.16,125.98L419.03,134.24L423.91,135.48L428.78,140.16L433.65,142.23L438.52,140.71L443.4,140.16L448.27,138.65L453.14,138.65L458.01,136.58L462.89,131.76L467.76,133.41L472.63,130.25L477.5,122.12L482.38,124.87L487.25,124.05L492.12,129.28L496.99,126.53L501.87,118.13L506.74,130.8L511.61,129.97L516.48,126.66L521.36,129.56L526.23,135.62L531.1,128.73L540.85,118.4L545.72,129.28L550.59,136.86L555.46,127.08L560.34,128.32L565.21,125.56L570.08,128.18L574.95,121.84L579.83,125.15L584.7,123.91L589.57,126.66L594.44,122.53L599.32,128.87L604.19,130.52L609.06,129.28L613.93,134.51L618.81,127.77L623.68,137.41L628.55,139.89L633.42,141.4L638.3,135.2L643.17,132.72L648.04,137.82L652.91,136.3L657.79,140.71L662.66,135.62L672.4,129.56L677.28,136.99L682.15,134.79L687.02,133.69L691.89,128.46L696.77,132.72L701.64,136.58L706.51,133.96L711.38,128.32L716.26,133.96L721.13,136.58L726,132.04" style="vector-effect: none; fill: none; stroke: rgb(255, 165, 0); stroke-opacity: 1; stroke-width: 2px; opacity: 1;"/></g><g class="points"/><g class="text"/></g><g class="trace scatter trace59fe3f" style="stroke-miterlimit: 2; opacity: 1;"><g class="fills"/><g class="errorbars"/><g class="lines"><path class="js-line" d="M0,177.62L4.87,156.41L9.74,155.31L19.49,130.38L24.36,128.59L34.11,119.37L38.98,110.97L43.85,108.07L48.72,86.59L53.6,83.15L58.47,75.44L63.34,81.77L68.21,75.85L77.96,80.81L82.83,87.55L87.7,94.03L92.58,66.9L97.45,73.23L102.32,75.02L107.19,72.82L112.07,69.79L116.94,73.65L121.81,74.33L126.68,75.44L131.56,74.61L136.43,80.26L141.3,87.42L146.17,68.55L151.05,64.28L155.92,64.97L160.79,73.37L165.66,56.02L170.54,54.09L175.41,53.13L180.28,55.61L185.15,56.57L190.03,44.45L194.9,53.4L199.77,51.47L204.64,55.61L209.52,50.79L214.39,49.82L219.26,39.22L224.13,43.07L229.01,39.77L233.88,52.58L238.75,54.92L243.62,53.54L248.5,54.5L253.37,54.92L258.24,53.13L272.86,58.36L277.73,52.02L282.6,55.88L287.48,44.04L292.35,34.12L297.22,39.49L302.09,41.42L306.97,46.38L311.84,50.23L316.71,56.29L321.58,70.48L326.46,63.59L331.33,54.23L336.2,53.68L341.07,56.29L345.95,42.11L350.82,46.1L355.69,37.7L360.56,40.32L365.44,54.23L370.31,53.68L375.18,41.01L380.05,34.4L384.93,41.7L389.8,44.45L394.67,51.06L399.54,38.67L404.42,37.56L409.29,41.28L414.16,39.63L419.03,51.47L423.91,41.56L428.78,50.23L433.65,47.34L438.52,49L443.4,53.95L448.27,58.36L453.14,57.95L458.01,63.87L462.89,54.78L467.76,58.5L472.63,52.02L477.5,47.89L482.38,40.59L487.25,46.93L492.12,50.92L496.99,58.5L501.87,57.95L506.74,52.44L511.61,56.57L516.48,59.6L521.36,57.67L526.23,57.4L531.1,49.96L540.85,26.13L545.72,33.02L550.59,39.91L555.46,33.02L560.34,40.18L565.21,31.51L570.08,26.27L574.95,31.92L579.83,38.67L584.7,29.85L589.57,26.55L594.44,19.8L599.32,31.09L604.19,36.88L609.06,28.89L613.93,34.95L618.81,23.38L623.68,30.95L628.55,36.46L633.42,38.39L638.3,30.54L643.17,36.74L648.04,47.76L652.91,42.8L657.79,45.55L662.66,44.45L667.53,42.8L672.4,40.32L677.28,52.02L682.15,55.74L687.02,59.19L691.89,46.1L696.77,45.14L701.64,41.56L706.51,45.28L711.38,43.07L716.26,49.82L721.13,44.18L726,44.59" style="vector-effect: none; fill: none; stroke: rgb(128, 0, 128); stroke-opacity: 1; stroke-width: 2px; opacity: 1;"/></g><g class="points"/><g class="text"/></g><g class="trace scatter trace9f513f" style="stroke-miterlimit: 2; opacity: 1;"><g class="fills"/><g class="errorbars"/><g class="lines"><path class="js-line" d="M0,194.97L4.87,167.98L9.74,166.6L19.49,161.23L24.36,138.37L29.23,130.66L34.11,131.76L38.98,117.99L43.85,113.31L48.72,95.82L53.6,92.1L58.47,88.11L63.34,92.37L68.21,84.66L73.09,93.34L77.96,94.58L82.83,104.91L87.7,109.45L92.58,89.21L97.45,96.78L102.32,102.29L107.19,98.16L112.07,87.83L116.94,92.24L121.81,87.42L126.68,100.91L131.56,90.45L136.43,89.07L141.3,104.77L146.17,95.4L151.05,95.13L155.92,85.9L160.79,90.17L165.66,62.9L170.54,64.56L175.41,63.73L180.28,65.11L185.15,77.09L190.03,56.71L194.9,71.58L199.77,71.3L204.64,66.48L209.52,65.8L214.39,68.55L219.26,57.12L224.13,62.08L229.01,63.45L233.88,76.68L238.75,68.83L243.62,71.3L248.5,65.25L253.37,72.96L258.24,68.14L263.11,76.4L267.99,81.36L272.86,83.84L277.73,69.93L282.6,80.94L287.48,72.96L292.35,65.8L297.22,75.57L302.09,83.42L306.97,84.66L311.84,87.55L316.71,86.18L321.58,77.09L326.46,76.4L331.33,70.48L336.2,76.54L341.07,70.75L345.95,67.45L350.82,70.34L355.69,58.5L360.56,55.33L365.44,65.52L370.31,71.03L375.18,66.76L380.05,48.44L384.93,53.4L389.8,67.04L394.67,63.59L399.54,52.44L404.42,62.9L409.29,51.61L414.16,57.95L419.03,72.27L423.91,71.03L428.78,77.64L433.65,81.36L438.52,79.7L443.4,82.46L448.27,81.22L453.14,82.46L458.01,80.26L462.89,70.48L467.76,73.09L472.63,65.25L477.5,56.43L482.38,57.4L487.25,57.4L492.12,64.97L496.99,62.22L501.87,51.89L506.74,68.96L511.61,69.51L516.48,65.11L521.36,69.79L526.23,77.5L531.1,68L535.97,55.05L540.85,45.14L545.72,60.43L550.59,72.27L555.46,57.67L560.34,60.43L565.21,55.19L570.08,57.26L574.95,49.96L579.83,55.61L584.7,52.58L589.57,55.47L594.44,49L599.32,59.46L604.19,63.59L609.06,60.98L613.93,68.41L618.81,56.98L623.68,71.44L628.55,75.57L633.42,78.19L638.3,68.27L643.17,66.48L648.04,75.16L652.91,70.89L657.79,77.78L662.66,71.03L667.53,67.72L672.4,61.66L677.28,74.47L682.15,73.23L687.02,73.51L691.89,62.63L696.77,69.24L701.64,72.41L706.51,68.55L711.38,60.84L716.26,68.14L721.13,72.54L726,66.76" style="vector-effect: none; fill: none; stroke: rgb(255, 192, 203); stroke-opacity: 1; stroke-width: 2px; opacity: 1;"/></g><g class="points"/><g class="text"/></g><g class="trace scatter trace4837d7" style="stroke-miterlimit: 2; opacity: 1;"><g class="fills"/><g class="errorbars"/><g class="lines"><path class="js-line" d="M0,367.11L4.87,341.5L9.74,339.02L14.62,327.86L19.49,309.41L29.23,297.29L34.11,289.3L38.98,279.66L43.85,280.08L48.72,241.1L53.6,238.49L58.47,231.6L63.34,244.82L68.21,232.98L73.09,235.6L77.96,241.52L82.83,252.12L87.7,260.93L92.58,217.28L97.45,226.51L102.32,229.81L107.19,223.89L112.07,229.81L126.68,233.81L131.56,237.39L136.43,245.37L141.3,257.63L146.17,227.33L151.05,223.06L155.92,220.03L160.79,236.97L165.66,202.82L170.54,203.92L175.41,204.75L180.28,208.19L185.15,207.23L190.03,184.5L194.9,197.17L199.77,196.21L204.64,205.02L209.52,192.77L214.39,195.38L219.26,177.48L224.13,182.44L229.01,181.34L233.88,201.72L238.75,199.65L243.62,204.33L248.5,199.79L253.37,205.3L258.24,206.68L263.11,206.68L267.99,208.6L272.86,214.25L277.73,196.76L282.6,200.2L287.48,183.68L292.35,167.7L297.22,179.68L302.09,188.08L306.97,198.41L311.84,202.96L316.71,210.81L321.58,227.75L326.46,222.51L331.33,207.92L336.2,206.95L341.07,211.5L345.95,189.19L350.82,194.83L355.69,179.13L360.56,185.33L365.44,201.99L370.31,207.23L375.18,186.85L380.05,168.39L384.93,184.5L389.8,192.35L394.67,203.92L399.54,177.34L404.42,179.27L409.29,185.06L414.16,184.37L419.03,198.96L423.91,184.23L428.78,193.04L433.65,193.46L438.52,194.69L443.4,203.23L448.27,213.84L453.14,217.69L458.01,224.72L462.89,209.57L467.76,214.8L472.63,198.69L477.5,197.59L482.38,182.71L487.25,196.21L492.12,199.24L496.99,211.36L501.87,213.42L506.74,208.05L511.61,214.66L516.48,220.31L521.36,217.14L526.23,216.45L531.1,209.84L535.97,181.47L540.85,161.09L550.59,183.54L555.46,169.91L560.34,179.13L565.21,164.81L570.08,153.11L574.95,164.81L579.83,176.38L584.7,163.85L589.57,155.58L594.44,142.5L599.32,159.99L604.19,173.49L609.06,164.12L613.93,170.18L618.81,152.97L623.68,165.64L633.42,176.24L638.3,163.71L643.17,172.39L648.04,186.29L652.91,175.55L657.79,182.99L662.66,182.16L667.53,184.5L672.4,175.55L677.28,193.59L682.15,200.34L687.02,208.88L691.89,186.71L696.77,190.01L701.64,180.79L706.51,185.33L711.38,184.37L716.26,190.98L721.13,186.02L726,187.81" style="vector-effect: none; fill: none; stroke: rgb(165, 42, 42); stroke-opacity: 1; stroke-width: 2px; opacity: 1;"/></g><g class="points"/><g class="text"/></g><g class="trace scatter trace41e2e0" style="stroke-miterlimit: 2; opacity: 1;"><g class="fills"/><g class="errorbars"/><g class="lines"><path class="js-line" d="M0,376.2L4.87,354.3L9.74,355.82L14.62,345.21L19.49,337.78L24.36,307.07L29.23,300.18L34.11,300.04L38.98,288.75L43.85,278.01L48.72,242.89L53.6,243.58L58.47,241.65L63.34,251.02L68.21,238.63L73.09,249.23L77.96,253.64L82.83,264.38L87.7,271.68L92.58,233.81L97.45,242.21L102.32,251.71L107.19,243.17L112.07,242.76L116.94,245.24L121.81,241.24L126.68,255.43L131.56,249.5L136.43,250.61L141.3,269.89L146.17,249.37L151.05,246.61L155.92,239.86L160.79,250.61L165.66,204.47L170.54,209.15L175.41,209.02L180.28,210.94L185.15,226.37L190.03,195.8L194.9,213.7L199.77,215.63L204.64,213.7L209.52,201.58L214.39,209.57L219.26,194.83L224.13,200.07L229.01,202.82L233.88,225.82L238.75,214.53L243.62,222.1L248.5,208.19L253.37,217L258.24,213.42L263.11,219.48L267.99,225.13L272.86,228.85L277.73,209.43L282.6,218.24L292.35,187.67L297.22,205.02L302.09,220.72L306.97,226.09L311.84,229.95L316.71,236.15L321.58,235.04L326.46,229.95L331.33,217.56L336.2,226.23L341.07,219.9L345.95,206.68L350.82,213.01L355.69,194.28L360.56,193.04L365.44,207.64L370.31,216.32L375.18,203.37L380.05,177.21L384.93,189.46L389.8,208.6L394.67,209.43L399.54,190.15L404.42,199.79L409.29,192.49L414.16,197.45L419.03,218.38L423.91,208.6L433.65,220.86L438.52,220.45L443.4,232.57L448.27,233.94L453.14,238.21L458.01,237.8L462.89,221.55L467.76,224.58L472.63,208.19L477.5,207.23L482.38,199.65L487.25,203.1L492.12,210.67L496.99,211.36L501.87,205.57L506.74,219.62L511.61,224.3L516.48,220.86L526.23,232.01L531.1,223.89L535.97,195.52L540.85,176.65L550.59,206.95L555.46,189.46L560.34,196.9L565.21,186.16L570.08,178.72L574.95,180.65L579.83,190.43L584.7,182.16L589.57,179.13L594.44,166.88L599.32,188.5L604.19,199.65L609.06,193.32L613.93,201.31L618.81,180.51L623.68,199.65L628.55,205.85L633.42,210.26L638.3,195.38L643.17,201.03L648.04,214.53L652.91,202.54L657.79,212.18L662.66,207.09L667.53,208.05L672.4,195.66L677.28,215.49L682.15,219.76L687.02,225.13L691.89,205.16L696.77,212.87L701.64,208.88L706.51,204.2L711.38,198.41L716.26,202.82L721.13,209.57L726,206.26" style="vector-effect: none; fill: none; stroke: rgb(128, 128, 128); stroke-opacity: 1; stroke-width: 2px; opacity: 1;"/></g><g class="points"/><g class="text"/></g></g></g><g class="overplot"/><path class="xlines-above crisp" d="M0,0" style="fill: none;"/><path class="ylines-above crisp" d="M0,0" style="fill: none;"/><g class="overlines-above"/><g class="xaxislayer-above"><g class="xtick"><text text-anchor="middle" x="0" y="509" transform="translate(235.57999999999998,0)" style="font-family: 'Open Sans', verdana, arial, sans-serif; font-size: 12px; fill: rgb(42, 63, 95); fill-opacity: 1; white-space: pre; opacity: 1;">20</text></g><g class="xtick"><text text-anchor="middle" x="0" y="509" style="font-family: 'Open Sans', verdana, arial, sans-serif; font-size: 12px; fill: rgb(42, 63, 95); fill-opacity: 1; white-space: pre; opacity: 1;" transform="translate(333.03,0)">40</text></g><g class="xtick"><text text-anchor="middle" x="0" y="509" style="font-family: 'Open Sans', verdana, arial, sans-serif; font-size: 12px; fill: rgb(42, 63, 95); fill-opacity: 1; white-space: pre; opacity: 1;" transform="translate(430.48,0)">60</text></g><g class="xtick"><text text-anchor="middle" x="0" y="509" style="font-family: 'Open Sans', verdana, arial, sans-serif; font-size: 12px; fill: rgb(42, 63, 95); fill-opacity: 1; white-space: pre; opacity: 1;" transform="translate(527.9300000000001,0)">80</text></g><g class="xtick"><text text-anchor="middle" x="0" y="509" style="font-family: 'Open Sans', verdana, arial, sans-serif; font-size: 12px; fill: rgb(42, 63, 95); fill-opacity: 1; white-space: pre; opacity: 1;" transform="translate(625.38,0)">100</text></g><g class="xtick"><text text-anchor="middle" x="0" y="509" style="font-family: 'Open Sans', verdana, arial, sans-serif; font-size: 12px; fill: rgb(42, 63, 95); fill-opacity: 1; white-space: pre; opacity: 1;" transform="translate(722.83,0)">120</text></g><g class="xtick"><text text-anchor="middle" x="0" y="509" style="font-family: 'Open Sans', verdana, arial, sans-serif; font-size: 12px; fill: rgb(42, 63, 95); fill-opacity: 1; white-space: pre; opacity: 1;" transform="translate(820.28,0)">140</text></g></g><g class="yaxislayer-above"><g class="ytick"><text text-anchor="end" x="142" y="4.199999999999999" transform="translate(0,492.86)" style="font-family: 'Open Sans', verdana, arial, sans-serif; font-size: 12px; fill: rgb(42, 63, 95); fill-opacity: 1; white-space: pre; opacity: 1;">45</text></g><g class="ytick"><text text-anchor="end" x="142" y="4.199999999999999" style="font-family: 'Open Sans', verdana, arial, sans-serif; font-size: 12px; fill: rgb(42, 63, 95); fill-opacity: 1; white-space: pre; opacity: 1;" transform="translate(0,424.01)">50</text></g><g class="ytick"><text text-anchor="end" x="142" y="4.199999999999999" style="font-family: 'Open Sans', verdana, arial, sans-serif; font-size: 12px; fill: rgb(42, 63, 95); fill-opacity: 1; white-space: pre; opacity: 1;" transform="translate(0,355.15)">55</text></g><g class="ytick"><text text-anchor="end" x="142" y="4.199999999999999" style="font-family: 'Open Sans', verdana, arial, sans-serif; font-size: 12px; fill: rgb(42, 63, 95); fill-opacity: 1; white-space: pre; opacity: 1;" transform="translate(0,286.28999999999996)">60</text></g><g class="ytick"><text text-anchor="end" x="142" y="4.199999999999999" style="font-family: 'Open Sans', verdana, arial, sans-serif; font-size: 12px; fill: rgb(42, 63, 95); fill-opacity: 1; white-space: pre; opacity: 1;" transform="translate(0,217.44)">65</text></g><g class="ytick"><text text-anchor="end" x="142" y="4.199999999999999" style="font-family: 'Open Sans', verdana, arial, sans-serif; font-size: 12px; fill: rgb(42, 63, 95); fill-opacity: 1; white-space: pre; opacity: 1;" transform="translate(0,148.57999999999998)">70</text></g></g><g class="overaxes-above"/></g></g><g class="polarlayer"/><g class="smithlayer"/><g class="ternarylayer"/><g class="geolayer"/><g class="funnelarealayer"/><g class="pielayer"/><g class="iciclelayer"/><g class="treemaplayer"/><g class="sunburstlayer"/><g class="glimages"/><defs id="topdefs-7d3502"><g class="clips"/><clipPath id="legend7d3502"><rect width="128" height="162" x="0" y="0"/></clipPath></defs><g class="layer-above"><g class="imagelayer"/><g class="shapelayer"/></g><g class="infolayer"><g class="legend" pointer-events="all" transform="translate(883.52,100)"><rect class="bg" shape-rendering="crispEdges" width="128" height="162" x="0" y="0" style="stroke: rgb(68, 68, 68); stroke-opacity: 1; fill: rgb(255, 255, 255); fill-opacity: 1; stroke-width: 0px;"/><g class="scrollbox" transform="" clip-path="url(#legend7d3502)"><g class="groups"><g class="traces" transform="translate(0,14.5)" style="opacity: 1;"><text class="legendtext" text-anchor="start" x="40" y="4.680000000000001" style="font-family: 'Open Sans', verdana, arial, sans-serif; font-size: 12px; fill: rgb(42, 63, 95); fill-opacity: 1; white-space: pre;">Train Accuracy</text><g class="layers" style="opacity: 1;"><g class="legendfill"/><g class="legendlines"><path class="js-line" d="M5,0h30" style="fill: none; stroke: rgb(255, 0, 0); stroke-opacity: 1; stroke-width: 2px;"/></g><g class="legendsymbols"><g class="legendpoints"/></g></g><rect class="legendtoggle" x="0" y="-9.5" width="122.71875" height="19" style="fill: rgb(0, 0, 0); fill-opacity: 0;"/></g><g class="traces" transform="translate(0,33.5)" style="opacity: 1;"><text class="legendtext" text-anchor="start" x="40" y="4.680000000000001" style="font-family: 'Open Sans', verdana, arial, sans-serif; font-size: 12px; fill: rgb(42, 63, 95); fill-opacity: 1; white-space: pre;">Test Accuracy</text><g class="layers" style="opacity: 1;"><g class="legendfill"/><g class="legendlines"><path class="js-line" d="M5,0h30" style="fill: none; stroke: rgb(0, 0, 255); stroke-opacity: 1; stroke-width: 2px;"/></g><g class="legendsymbols"><g class="legendpoints"/></g></g><rect class="legendtoggle" x="0" y="-9.5" width="122.71875" height="19" style="fill: rgb(0, 0, 0); fill-opacity: 0;"/></g><g class="traces" transform="translate(0,52.5)" style="opacity: 1;"><text class="legendtext" text-anchor="start" x="40" y="4.680000000000001" style="font-family: 'Open Sans', verdana, arial, sans-serif; font-size: 12px; fill: rgb(42, 63, 95); fill-opacity: 1; white-space: pre;">Train Precision</text><g class="layers" style="opacity: 1;"><g class="legendfill"/><g class="legendlines"><path class="js-line" d="M5,0h30" style="fill: none; stroke: rgb(0, 128, 0); stroke-opacity: 1; stroke-width: 2px;"/></g><g class="legendsymbols"><g class="legendpoints"/></g></g><rect class="legendtoggle" x="0" y="-9.5" width="122.71875" height="19" style="fill: rgb(0, 0, 0); fill-opacity: 0;"/></g><g class="traces" transform="translate(0,71.5)" style="opacity: 1;"><text class="legendtext" text-anchor="start" x="40" y="4.680000000000001" style="font-family: 'Open Sans', verdana, arial, sans-serif; font-size: 12px; fill: rgb(42, 63, 95); fill-opacity: 1; white-space: pre;">Test Precision</text><g class="layers" style="opacity: 1;"><g class="legendfill"/><g class="legendlines"><path class="js-line" d="M5,0h30" style="fill: none; stroke: rgb(255, 165, 0); stroke-opacity: 1; stroke-width: 2px;"/></g><g class="legendsymbols"><g class="legendpoints"/></g></g><rect class="legendtoggle" x="0" y="-9.5" width="122.71875" height="19" style="fill: rgb(0, 0, 0); fill-opacity: 0;"/></g><g class="traces" transform="translate(0,90.5)" style="opacity: 1;"><text class="legendtext" text-anchor="start" x="40" y="4.680000000000001" style="font-family: 'Open Sans', verdana, arial, sans-serif; font-size: 12px; fill: rgb(42, 63, 95); fill-opacity: 1; white-space: pre;">Train Recall</text><g class="layers" style="opacity: 1;"><g class="legendfill"/><g class="legendlines"><path class="js-line" d="M5,0h30" style="fill: none; stroke: rgb(128, 0, 128); stroke-opacity: 1; stroke-width: 2px;"/></g><g class="legendsymbols"><g class="legendpoints"/></g></g><rect class="legendtoggle" x="0" y="-9.5" width="122.71875" height="19" style="fill: rgb(0, 0, 0); fill-opacity: 0;"/></g><g class="traces" transform="translate(0,109.5)" style="opacity: 1;"><text class="legendtext" text-anchor="start" x="40" y="4.680000000000001" style="font-family: 'Open Sans', verdana, arial, sans-serif; font-size: 12px; fill: rgb(42, 63, 95); fill-opacity: 1; white-space: pre;">Test Recall</text><g class="layers" style="opacity: 1;"><g class="legendfill"/><g class="legendlines"><path class="js-line" d="M5,0h30" style="fill: none; stroke: rgb(255, 192, 203); stroke-opacity: 1; stroke-width: 2px;"/></g><g class="legendsymbols"><g class="legendpoints"/></g></g><rect class="legendtoggle" x="0" y="-9.5" width="122.71875" height="19" style="fill: rgb(0, 0, 0); fill-opacity: 0;"/></g><g class="traces" transform="translate(0,128.5)" style="opacity: 1;"><text class="legendtext" text-anchor="start" x="40" y="4.680000000000001" style="font-family: 'Open Sans', verdana, arial, sans-serif; font-size: 12px; fill: rgb(42, 63, 95); fill-opacity: 1; white-space: pre;">Train F1</text><g class="layers" style="opacity: 1;"><g class="legendfill"/><g class="legendlines"><path class="js-line" d="M5,0h30" style="fill: none; stroke: rgb(165, 42, 42); stroke-opacity: 1; stroke-width: 2px;"/></g><g class="legendsymbols"><g class="legendpoints"/></g></g><rect class="legendtoggle" x="0" y="-9.5" width="122.71875" height="19" style="fill: rgb(0, 0, 0); fill-opacity: 0;"/></g><g class="traces" transform="translate(0,147.5)" style="opacity: 1;"><text class="legendtext" text-anchor="start" x="40" y="4.680000000000001" style="font-family: 'Open Sans', verdana, arial, sans-serif; font-size: 12px; fill: rgb(42, 63, 95); fill-opacity: 1; white-space: pre;">Test F1</text><g class="layers" style="opacity: 1;"><g class="legendfill"/><g class="legendlines"><path class="js-line" d="M5,0h30" style="fill: none; stroke: rgb(128, 128, 128); stroke-opacity: 1; stroke-width: 2px;"/></g><g class="legendsymbols"><g class="legendpoints"/></g></g><rect class="legendtoggle" x="0" y="-9.5" width="122.71875" height="19" style="fill: rgb(0, 0, 0); fill-opacity: 0;"/></g></g></g><rect class="scrollbar" rx="20" ry="3" width="0" height="0" x="0" y="0" style="fill: rgb(128, 139, 164); fill-opacity: 1;"/></g><g class="g-gtitle"><text class="gtitle" x="51.2" y="50" text-anchor="start" dy="0em" style="font-family: 'Open Sans', verdana, arial, sans-serif; font-size: 17px; fill: rgb(42, 63, 95); opacity: 1; font-weight: normal; white-space: pre;">Training Metrics - logs/FakeNewsNet-gossipcop_max-vocab=15000_pre=v2_text_T=50_s=5.log</text></g><g class="g-xtitle"><text class="xtitle" x="506" y="537.3" text-anchor="middle" style="font-family: 'Open Sans', verdana, arial, sans-serif; font-size: 14px; fill: rgb(42, 63, 95); opacity: 1; font-weight: normal; white-space: pre;">Epoch</text></g><g class="g-ytitle"><text class="ytitle" transform="rotate(-90,103.965625,298)" x="103.965625" y="298" text-anchor="middle" style="font-family: 'Open Sans', verdana, arial, sans-serif; font-size: 14px; fill: rgb(42, 63, 95); opacity: 1; font-weight: normal; white-space: pre;">Metric Score</text></g></g><g class="menulayer"><g class="updatemenu-container" style="cursor: pointer;"><g class="updatemenu-header-group" transform="translate(12,60)"><g class="updatemenu-header" transform="translate(1,1)" style="pointer-events: all;"><rect class="updatemenu-item-rect" rx="2" ry="2" shape-rendering="crispEdges" x="0" y="0" width="167" height="33" style="stroke: rgb(190, 200, 217); stroke-opacity: 1; fill: rgb(255, 255, 255); fill-opacity: 1; stroke-width: 1px;"/><text class="updatemenu-item-text" text-anchor="start" data-notex="1" x="12" y="19.5" style="font-family: 'Open Sans', verdana, arial, sans-serif; font-size: 12px; fill: rgb(42, 63, 95); fill-opacity: 1; white-space: pre;">All</text></g><text class="updatemenu-header-arrow" text-anchor="end" x="163" y="19.5" style="font-family: 'Open Sans', verdana, arial, sans-serif; font-size: 12px; fill: rgb(42, 63, 95); fill-opacity: 1;">▼</text></g><g class="updatemenu-dropdown-button-group" updatemenu-active-index="-1" style="pointer-events: all;"><rect class="scrollbox-bg" opacity="0" x="0" y="0" width="0" height="0" style="pointer-events: all;"/></g></g></g></svg>