<svg class="main-svg" xmlns="http://www.w3.org/2000/svg" xmlns:xlink="http://www.w3.org/1999/xlink" width="1024" height="576" style="" viewBox="0 0 1024 576"><rect x="0" y="0" width="1024" height="576" style="fill: rgb(255, 255, 255); fill-opacity: 1;"/><defs id="defs-5e312c"><g class="clips"><clipPath id="clip5e312cxyplot" class="plotclip"><rect width="726" height="396"/></clipPath><clipPath class="axesclip" id="clip5e312cx"><rect x="143" y="0" width="726" height="576"/></clipPath><clipPath class="axesclip" id="clip5e312cy"><rect x="0" y="100" width="1024" height="396"/></clipPath><clipPath class="axesclip" id="clip5e312cxy"><rect x="143" y="100" width="726" height="396"/></clipPath></g><g class="gradients"/><g class="patterns"/></defs><g class="bglayer"><rect class="bg" x="143" y="100" width="726" height="396" style="fill: rgb(229, 236, 246); fill-opacity: 1; stroke-width: 0;"/></g><g class="layer-below"><g class="imagelayer"/><g class="shapelayer"/></g><g class="cartesianlayer"><g class="subplot xy"><g class="layer-subplot"><g class="shapelayer"/><g class="imagelayer"/></g><g class="minor-gridlayer"><g class="x"/><g class="y"/></g><g class="gridlayer"><g class="x"><path class="xgrid crisp" transform="translate(235.57999999999998,0)" d="M0,100v396" style="stroke: rgb(255, 255, 255); stroke-opacity: 1; stroke-width: 1px;"/><path class="xgrid crisp" transform="translate(333.03,0)" d="M0,100v396" style="stroke: rgb(255, 255, 255); stroke-opacity: 1; stroke-width: 1px;"/><path class="xgrid crisp" transform="translate(430.48,0)" d="M0,100v396" style="stroke: rgb(255, 255, 255); stroke-opacity: 1; stroke-width: 1px;"/><path class="xgrid crisp" transform="translate(527.9300000000001,0)" d="M0,100v396" style="stroke: rgb(255, 255, 255); stroke-opacity: 1; stroke-width: 1px;"/><path class="xgrid crisp" transform="translate(625.38,0)" d="M0,100v396" style="stroke: rgb(255, 255, 255); stroke-opacity: 1; stroke-width: 1px;"/><path class="xgrid crisp" transform="translate(722.83,0)" d="M0,100v396" style="stroke: rgb(255, 255, 255); stroke-opacity: 1; stroke-width: 1px;"/><path class="xgrid crisp" transform="translate(820.28,0)" d="M0,100v396" style="stroke: rgb(255, 255, 255); stroke-opacity: 1; stroke-width: 1px;"/></g><g class="y"><path class="ygrid crisp" transform="translate(0,491.39)" d="M143,0h726" style="stroke: rgb(255, 255, 255); stroke-opacity: 1; stroke-width: 1px;"/><path class="ygrid crisp" transform="translate(0,431.58)" d="M143,0h726" style="stroke: rgb(255, 255, 255); stroke-opacity: 1; stroke-width: 1px;"/><path class="ygrid crisp" transform="translate(0,371.76)" d="M143,0h726" style="stroke: rgb(255, 255, 255); stroke-opacity: 1; stroke-width: 1px;"/><path class="ygrid crisp" transform="translate(0,311.94)" d="M143,0h726" style="stroke: rgb(255, 255, 255); stroke-opacity: 1; stroke-width: 1px;"/><path class="ygrid crisp" transform="translate(0,252.12)" d="M143,0h726" style="stroke: rgb(255, 255, 255); stroke-opacity: 1; stroke-width: 1px;"/><path class="ygrid crisp" transform="translate(0,192.3)" d="M143,0h726" style="stroke: rgb(255, 255, 255); stroke-opacity: 1; stroke-width: 1px;"/><path class="ygrid crisp" transform="translate(0,132.48)" d="M143,0h726" style="stroke: rgb(255, 255, 255); stroke-opacity: 1; stroke-width: 1px;"/></g></g><g class="zerolinelayer"/><path class="xlines-below"/><path class="ylines-below"/><g class="overlines-below"/><g class="xaxislayer-below"/><g class="yaxislayer-below"/><g class="overaxes-below"/><g class="plot" transform="translate(143,100)" clip-path="url(#clip5e312cxyplot)"><g class="scatterlayer mlayer"><g class="trace scatter traceeefae3" style="stroke-miterlimit: 2; opacity: 1;"><g class="fills"/><g class="errorbars"/><g class="lines"><path class="js-line" d="M0,275.7L4.87,169.47L9.74,179.28L14.62,145.3L19.49,118.38L24.36,136.81L29.23,142.43L34.11,122.69L38.98,129.75L43.85,145.3L48.72,128.31L53.6,119.82L58.47,132.5L63.34,136.81L68.21,114.07L73.09,111.32L77.96,84.4L82.83,87.16L87.7,125.44L92.58,146.74L97.45,75.91L102.32,67.3L107.19,67.3L112.07,73.04L116.94,70.17L121.81,65.98L126.68,73.04L131.56,75.91L136.43,67.3L141.3,74.47L146.17,70.17L151.05,92.9L155.92,82.97L160.79,126.88L165.66,107.02L170.54,58.8L175.41,53.18L180.28,60.24L185.15,61.67L190.03,57.49L194.9,60.24L199.77,53.18L204.64,95.65L209.52,47.56L214.39,40.38L219.26,60.24L224.13,54.61L229.01,41.81L233.88,39.06L238.75,51.74L243.62,34.75L248.5,95.65L253.37,118.38L258.24,109.89L263.11,47.56L267.99,44.68L272.86,47.56L282.6,44.68L287.48,36.19L292.35,23.39L297.22,43.25L302.09,44.68L306.97,48.87L311.84,34.75L316.71,39.06L321.58,40.38L326.46,46.12L331.33,47.56L336.2,37.63L341.07,51.74L345.95,46.12L350.82,47.56L355.69,56.05L360.56,47.56L365.44,53.18L370.31,56.05L375.18,87.16L380.05,84.4L384.93,71.6L389.8,46.12L394.67,24.82L399.54,53.18L404.42,53.18L409.29,47.56L414.16,54.61L419.03,54.61L423.91,48.87L428.78,54.61L433.65,43.25L438.52,67.3L443.4,41.81L448.27,54.61L453.14,36.19L458.01,51.74L462.89,41.81L472.63,92.9L477.5,63.11L482.38,74.47L487.25,67.3L496.99,41.81L501.87,51.74L506.74,77.23L511.61,80.1L516.48,48.87L521.36,94.33L526.23,90.03L531.1,104.26L540.85,48.87L545.72,41.81L550.59,41.81L555.46,48.87L560.34,44.68L565.21,46.12L570.08,39.06L574.95,64.54L579.83,99.96L584.7,91.46L589.57,87.16L594.44,92.9L599.32,90.03L604.19,88.59L609.06,64.54L613.93,82.97L618.81,60.24L623.68,48.87L628.55,65.98L633.42,43.25L638.3,74.47L643.17,58.8L652.91,95.65L657.79,78.66L662.66,88.59L667.53,67.3L672.4,74.47L677.28,98.52L682.15,77.23L687.02,87.16L691.89,92.9L696.77,88.59L701.64,78.66L706.51,46.12L711.38,43.25L716.26,41.81L721.13,40.38L726,57.49" style="vector-effect: none; fill: none; stroke: rgb(255, 0, 0); stroke-opacity: 1; stroke-width: 2px; opacity: 1;"/></g><g class="points"/><g class="text"/></g><g class="trace scatter trace9d9bc0" style="stroke-miterlimit: 2; opacity: 1;"><g class="fills"/><g class="errorbars"/><g class="lines"><path class="js-line" d="M0,251.42L4.87,132.98L9.74,155.47L14.62,161.09L19.49,110.37L24.36,144.22L29.23,127.23L34.11,121.61L38.98,121.61L43.85,115.99L48.72,99.12L53.6,110.37L58.47,110.37L63.34,110.37L68.21,121.61L73.09,115.99L77.96,127.23L82.83,121.61L87.7,178.08L92.58,183.7L97.45,121.61L107.19,110.37L112.07,99.12L116.94,87.75L121.81,93.38L126.68,110.37L131.56,121.61L136.43,121.61L141.3,110.37L146.17,99.12L151.05,161.09L155.92,132.98L160.79,194.95L165.66,178.08L170.54,104.74L175.41,87.75L180.28,87.75L185.15,76.51L190.03,87.75L194.9,99.12L199.77,115.99L204.64,138.6L209.52,99.12L214.39,87.75L219.26,93.38L224.13,87.75L229.01,93.38L233.88,93.38L238.75,87.75L243.62,99.12L248.5,178.08L253.37,166.83L258.24,161.09L263.11,104.74L267.99,93.38L272.86,93.38L277.73,127.23L282.6,132.98L287.48,110.37L292.35,115.99L297.22,110.37L302.09,115.99L306.97,110.37L311.84,104.74L316.71,104.74L321.58,93.38L326.46,104.74L331.33,127.23L336.2,104.74L341.07,87.75L345.95,93.38L350.82,99.12L355.69,115.99L360.56,115.99L365.44,121.61L370.31,127.23L375.18,144.22L380.05,144.22L384.93,132.98L389.8,110.37L394.67,104.74L399.54,99.12L404.42,127.23L409.29,121.61L414.16,121.61L419.03,132.98L423.91,138.6L428.78,132.98L433.65,121.61L438.52,138.6L443.4,121.61L448.27,110.37L453.14,87.75L458.01,104.74L462.89,115.99L467.76,166.83L472.63,166.83L477.5,144.22L482.38,155.47L487.25,132.98L492.12,127.23L496.99,110.37L501.87,132.98L506.74,144.22L511.61,144.22L516.48,110.37L521.36,155.47L526.23,166.83L531.1,189.33L540.85,104.74L545.72,115.99L550.59,110.37L555.46,132.98L560.34,121.61L565.21,115.99L570.08,110.37L574.95,149.85L579.83,183.7L584.7,200.69L594.44,189.33L599.32,206.31L604.19,211.94L609.06,178.08L613.93,194.95L618.81,183.7L623.68,149.85L628.55,194.95L633.42,144.22L638.3,161.09L643.17,166.83L648.04,189.33L652.91,206.31L657.79,178.08L662.66,178.08L667.53,155.47L672.4,194.95L677.28,200.69L682.15,200.69L687.02,194.95L691.89,194.95L696.77,200.69L701.64,172.46L706.51,115.99L711.38,127.23L716.26,115.99L721.13,127.23L726,127.23" style="vector-effect: none; fill: none; stroke: rgb(0, 0, 255); stroke-opacity: 1; stroke-width: 2px; opacity: 1;"/></g><g class="points"/><g class="text"/></g><g class="trace scatter tracea9d389" style="stroke-miterlimit: 2; opacity: 1;"><g class="fills"/><g class="errorbars"/><g class="lines"><path class="js-line" d="M0,162.17L4.87,139.08L9.74,126.52L14.62,129.75L19.49,119.46L24.36,121.85L29.23,125.44L34.11,114.67L38.98,111.2L43.85,125.56L48.72,119.46L53.6,111.56L58.47,121.25L63.34,106.66L68.21,105.34L73.09,101.39L77.96,84.88L82.83,92.54L87.7,117.3L92.58,132.98L97.45,80.82L102.32,72.68L107.19,71.6L112.07,71.48L116.94,64.66L121.81,67.18L126.68,78.42L131.56,80.46L136.43,72.32L141.3,79.5L146.17,74.24L151.05,93.5L155.92,86.56L160.79,119.82L165.66,100.56L170.54,63.47L175.41,56.29L180.28,61.19L185.15,62.87L190.03,62.15L194.9,65.26L199.77,56.05L204.64,90.51L209.52,52.58L214.39,45.16L219.26,63.23L224.13,59.76L229.01,46.84L233.88,43.61L238.75,55.45L243.62,39.66L248.5,91.7L253.37,107.61L258.24,98.28L263.11,51.62L267.99,48.75L272.86,51.15L277.73,50.31L282.6,48.27L287.48,40.98L292.35,28.17L297.22,46.84L302.09,47.2L306.97,52.46L311.84,39.66L316.71,43.73L321.58,45.28L326.46,50.91L331.33,51.38L336.2,42.41L341.07,56.89L345.95,50.79L350.82,51.15L355.69,58.2L360.56,50.91L365.44,55.33L370.31,57.13L375.18,83.81L380.05,81.53L384.93,72.44L389.8,49.11L394.67,29.49L399.54,54.26L404.42,53.9L409.29,50.67L414.16,55.45L419.03,57.01L423.91,51.86L428.78,57.01L433.65,45.88L438.52,65.62L443.4,45.28L448.27,57.25L453.14,40.62L458.01,55.33L462.89,45.88L467.76,65.14L472.63,85L477.5,63.11L482.38,71.36L487.25,67.18L496.99,45.52L501.87,52.22L506.74,75.31L511.61,75.79L516.48,52.46L521.36,85.24L526.23,82.13L531.1,92.54L535.97,74.12L540.85,50.55L545.72,44.68L550.59,44.92L555.46,49.83L560.34,46.12L565.21,49.35L570.08,42.65L574.95,65.14L579.83,92.42L584.7,85.96L589.57,81.29L594.44,85L599.32,82.13L604.19,81.05L609.06,63.83L613.93,76.75L618.81,59.76L623.68,51.62L628.55,62.27L633.42,43.73L638.3,68.25L643.17,56.05L648.04,67.89L652.91,82.25L657.79,69.93L662.66,80.34L667.53,66.7L672.4,71.96L677.28,85.12L682.15,71.72L687.02,78.54L691.89,84.28L696.77,78.78L701.64,72.8L706.51,49.11L711.38,44.09L716.26,43.73L721.13,42.05L726,55.45" style="vector-effect: none; fill: none; stroke: rgb(0, 128, 0); stroke-opacity: 1; stroke-width: 2px; opacity: 1;"/></g><g class="points"/><g class="text"/></g><g class="trace scatter trace7b288b" style="stroke-miterlimit: 2; opacity: 1;"><g class="fills"/><g class="errorbars"/><g class="lines"><path class="js-line" d="M0,168.99L4.87,135.13L9.74,147.33L14.62,167.55L19.49,123.41L24.36,148.65L29.23,130.11L34.11,132.5L38.98,127.95L48.72,104.74L53.6,119.94L58.47,119.94L63.34,111.68L68.21,132.5L73.09,125.2L77.96,143.98L82.83,138.36L87.7,162.17L92.58,169.83L97.45,138.36L102.32,131.9L107.19,126.52L112.07,113.48L116.94,101.51L121.81,107.97L126.68,123.88L131.56,130.46L136.43,130.46L141.3,126.28L146.17,114.79L151.05,161.09L155.92,141.71L160.79,181.19L165.66,169.83L170.54,118.74L175.41,102.83L180.28,102.35L185.15,89.43L190.03,102.83L194.9,114.67L199.77,129.03L204.64,135.49L209.52,114.19L214.39,102.95L219.26,107.25L224.13,102.95L229.01,108.69L233.88,108.93L238.75,102.35L243.62,113.48L248.5,162.17L253.37,150.8L258.24,142.91L263.11,117.54L267.99,103.07L272.86,103.07L277.73,137.04L282.6,141.71L287.48,123.88L292.35,129.03L297.22,116.95L302.09,121.37L306.97,122.57L316.71,117.54L321.58,108.09L326.46,118.74L331.33,137.04L341.07,102.59L345.95,107.25L350.82,111.2L355.69,121.37L365.44,125.8L370.31,130.11L375.18,139.44L380.05,139.44L384.93,134.41L389.8,116.95L394.67,116.11L399.54,105.58L404.42,132.74L409.29,132.38L414.16,128.19L419.03,139.56L423.91,146.38L428.78,141.71L433.65,130.46L438.52,135.49L443.4,133.93L448.27,121.01L453.14,102.59L458.01,118.74L462.89,130.23L467.76,162.05L472.63,154.75L477.5,142.67L482.38,143.51L487.25,128.19L492.12,130.11L496.99,122.57L501.87,137.04L506.74,139.44L511.61,139.44L516.48,123.88L521.36,147.21L526.23,158.58L531.1,169.23L535.97,145.66L540.85,114.43L545.72,127.47L550.59,121.01L555.46,139.56L560.34,130.46L565.21,127.47L570.08,121.01L574.95,152.72L579.83,173.65L584.7,188.85L589.57,181.19L594.44,177.48L604.19,200.09L609.06,173.29L613.93,185.02L618.81,177.24L623.68,155.35L628.55,185.02L633.42,150.92L638.3,158.1L643.17,158.58L648.04,173.53L652.91,179.64L657.79,166.12L662.66,157.86L667.53,154.03L672.4,185.02L677.28,171.5L682.15,180.71L687.02,168.15L691.89,168.15L696.77,171.5L701.64,158.46L706.51,123.65L711.38,135.01L716.26,123.65L721.13,135.01L726,130.11" style="vector-effect: none; fill: none; stroke: rgb(255, 165, 0); stroke-opacity: 1; stroke-width: 2px; opacity: 1;"/></g><g class="points"/><g class="text"/></g><g class="trace scatter trace0a7ac6" style="stroke-miterlimit: 2; opacity: 1;"><g class="fills"/><g class="errorbars"/><g class="lines"><path class="js-line" d="M0,341.27L4.87,204.16L9.74,221.63L14.62,171.62L19.49,131.18L24.36,162.05L29.23,169.23L34.11,142.79L38.98,155.95L43.85,173.53L48.72,149.49L53.6,139.8L58.47,155.59L63.34,168.15L68.21,134.05L73.09,131.54L77.96,94.81L82.83,89.31L87.7,108.57L92.58,127L97.45,78.54L102.32,67.06L107.19,71.24L112.07,84.52L116.94,84.52L121.81,74.24L126.68,71.84L131.56,71L136.43,63.71L141.3,76.39L146.17,74.59L151.05,82.37L155.92,76.27L160.79,110.84L165.66,90.86L170.54,54.02L175.41,58.08L180.28,68.37L185.15,69.69L190.03,58.92L194.9,61.43L199.77,44.45L204.64,80.22L209.52,44.8L214.39,35.83L219.26,51.98L224.13,52.7L229.01,38.46L233.88,39.3L238.75,55.45L243.62,33.32L248.5,81.05L253.37,99.72L258.24,90.51L263.11,40.98L267.99,38.1L272.86,40.02L277.73,39.78L282.6,37.15L287.48,31.76L292.35,19.8L297.22,35.47L302.09,35.23L306.97,41.33L311.84,32.84L321.58,36.79L326.46,42.17L331.33,40.5L336.2,33.92L341.07,49.35L345.95,41.22L350.82,40.02L355.69,46.48L360.56,39.66L365.44,43.61L370.31,45.04L375.18,72.8L380.05,70.41L384.93,60.84L389.8,37.51L394.67,20.04L399.54,42.17L404.42,41.69L409.29,39.18L414.16,43.37L419.03,45.28L423.91,40.38L428.78,45.28L433.65,34.04L438.52,53.9L443.4,33.8L448.27,45.76L453.14,36.91L458.01,44.21L462.89,35.23L467.76,53.42L472.63,75.43L477.5,51.15L482.38,60L487.25,55.33L492.12,44.8L496.99,34.28L501.87,40.02L506.74,63.83L511.61,64.9L516.48,41.33L521.36,76.15L526.23,72.44L531.1,84.64L540.85,38.46L545.72,32.84L550.59,33.32L555.46,37.51L560.34,33.92L565.21,37.87L570.08,31.29L574.95,53.3L579.83,82.85L584.7,75.55L589.57,71L594.44,75.43L599.32,72.44L604.19,71.24L609.06,51.86L613.93,66.34L618.81,47.8L623.68,39.9L628.55,50.79L633.42,31.29L638.3,57.61L643.17,44.21L648.04,57.96L652.91,75.07L657.79,60.36L662.66,70.77L667.53,54.85L672.4,60.48L677.28,77.94L682.15,61.07L687.02,69.09L691.89,74.95L696.77,69.81L701.64,62.27L706.51,37.51L711.38,31.76L716.26,31.4L721.13,29.73L726,43.49" style="vector-effect: none; fill: none; stroke: rgb(128, 0, 128); stroke-opacity: 1; stroke-width: 2px; opacity: 1;"/></g><g class="points"/><g class="text"/></g><g class="trace scatter tracec9a1ad" style="stroke-miterlimit: 2; opacity: 1;"><g class="fills"/><g class="errorbars"/><g class="lines"><path class="js-line" d="M0,363.4L4.87,173.53L9.74,210.62L14.62,205.36L19.49,129.99L24.36,185.62L29.23,165.76L34.11,148.53L38.98,154.99L43.85,153.67L48.72,127.47L53.6,136.45L58.47,136.45L63.34,146.02L68.21,148.53L77.96,140.16L82.83,126.04L87.7,138.72L92.58,146.38L97.45,129.27L102.32,115.27L107.19,113.95L112.07,111.44L116.94,99.36L121.81,103.79L126.68,101.15L131.56,103.67L136.43,103.67L141.3,110.72L146.17,101.87L151.05,134.89L155.92,115.75L160.79,158.46L165.66,145.06L170.54,96.73L175.41,92.9L180.28,96.13L185.15,87.16L190.03,92.9L194.9,104.98L199.77,105.58L204.64,107.37L209.52,95.41L214.39,86.44L219.26,84.52L224.13,86.44L229.01,90.98L233.88,94.09L238.75,96.13L243.62,92.18L248.5,138.72L253.37,126.52L258.24,118.86L263.11,93.5L267.99,74.95L272.86,74.95L277.73,111.32L282.6,115.75L287.48,101.15L292.35,105.58L297.22,88.35L306.97,97.92L311.84,99.84L321.58,87.75L326.46,96.73L331.33,111.32L336.2,96.73L341.07,83.33L345.95,84.52L350.82,85.84L355.69,92.78L360.56,96.01L365.44,97.21L370.31,101.75L375.18,111.92L380.05,111.92L384.93,106.18L389.8,88.35L394.67,90.27L399.54,76.15L404.42,104.86L409.29,106.9L414.16,100.44L419.03,112.64L423.91,120.3L428.78,115.75L433.65,103.67L438.52,107.37L443.4,110.01L448.27,94.69L453.14,83.33L462.89,108.81L467.76,136.21L472.63,129.75L477.5,115.15L482.38,117.66L487.25,99.72L492.12,101.75L496.99,97.92L501.87,109.41L506.74,111.92L511.61,111.92L516.48,101.15L521.36,120.77L526.23,132.98L531.1,147.57L535.97,118.26L540.85,87.04L545.72,102.35L550.59,94.69L555.46,112.64L560.34,103.67L565.21,102.35L570.08,94.69L574.95,125.92L579.83,149.61L584.7,166.12L589.57,158.46L594.44,154.03L599.32,167.43L604.19,178.32L609.06,148.29L613.93,161.69L618.81,152.72L623.68,129.15L628.55,161.69L633.42,124.72L638.3,131.66L643.17,132.98L648.04,150.8L652.91,160.97L657.79,141.83L662.66,135.49L667.53,127.23L672.4,161.69L677.28,153.32L682.15,159.78L687.02,148.89L691.89,148.89L696.77,153.32L701.64,134.17L706.51,96.01L711.38,108.09L716.26,96.01L721.13,108.09L726,101.75" style="vector-effect: none; fill: none; stroke: rgb(255, 192, 203); stroke-opacity: 1; stroke-width: 2px; opacity: 1;"/></g><g class="points"/><g class="text"/></g><g class="trace scatter trace5d2e2a" style="stroke-miterlimit: 2; opacity: 1;"><g class="fills"/><g class="errorbars"/><g class="lines"><path class="js-line" d="M0,364.36L4.87,195.19L9.74,213.85L14.62,162.65L19.49,126.76L24.36,152.84L29.23,159.9L34.11,134.89L38.98,146.02L43.85,163.96L48.72,141.35L53.6,131.9L58.47,146.85L63.34,157.26L68.21,125.8L73.09,123.05L77.96,90.86L82.83,91.1L87.7,125.92L92.58,146.97L97.45,79.74L102.32,70.41L107.19,71.36L112.07,79.5L116.94,77.58L121.81,71.24L126.68,75.91L131.56,78.06L136.43,69.69L141.3,78.18L146.17,74.47L151.05,94.09L155.92,84.76L160.79,127.47L165.66,107.61L170.54,60.84L175.41,57.25L180.28,65.38L185.15,66.7L190.03,60.72L194.9,63.47L199.77,54.49L204.64,96.37L209.52,49.83L214.39,42.29L219.26,61.79L224.13,57.13L229.01,43.97L233.88,41.69L238.75,55.45L243.62,37.15L248.5,96.37L253.37,118.74L258.24,110.13L263.11,49.11L267.99,46.24L272.86,48.99L282.6,46.12L287.48,37.98L292.35,25.3L297.22,44.68L302.09,45.88L306.97,50.43L311.84,37.03L316.71,40.86L321.58,42.41L326.46,48.15L331.33,49.11L336.2,39.54L341.07,54.14L345.95,48.03L350.82,48.99L355.69,57.25L360.56,48.99L365.44,54.38L370.31,57.13L375.18,87.99L380.05,85.12L384.93,72.8L389.8,47.44L394.67,26.5L399.54,54.26L404.42,54.14L409.29,48.87L414.16,55.69L419.03,55.93L423.91,50.31L428.78,55.93L433.65,44.45L438.52,68.13L443.4,43.25L448.27,55.93L453.14,38.94L458.01,53.3L462.89,43.37L472.63,93.26L477.5,64.07L482.38,75.19L487.25,68.37L496.99,43.25L501.87,52.7L506.74,78.06L511.61,80.7L516.48,50.43L521.36,94.69L526.23,90.51L531.1,104.5L540.85,50.07L545.72,43.13L550.59,43.13L555.46,49.95L560.34,45.76L565.21,47.44L570.08,40.38L574.95,65.62L579.83,100.44L584.7,92.06L589.57,87.75L594.44,93.26L599.32,90.51L604.19,89.07L609.06,65.38L613.93,83.45L618.81,61.19L623.68,50.19L628.55,66.58L633.42,44.21L638.3,74.95L643.17,59.52L648.04,76.27L652.91,95.89L657.79,79.02L662.66,89.07L667.53,68.25L672.4,75.19L677.28,98.76L682.15,77.82L687.02,87.51L691.89,93.26L696.77,88.95L701.64,79.26L706.51,47.44L711.38,44.21L721.13,41.45L726,58.2" style="vector-effect: none; fill: none; stroke: rgb(165, 42, 42); stroke-opacity: 1; stroke-width: 2px; opacity: 1;"/></g><g class="points"/><g class="text"/></g><g class="trace scatter trace27e212" style="stroke-miterlimit: 2; opacity: 1;"><g class="fills"/><g class="errorbars"/><g class="lines"><path class="js-line" d="M0,376.2L4.87,160.73L9.74,194.59L14.62,193.51L19.49,127L24.36,173.41L29.23,153.55L34.11,141.83L38.98,144.82L43.85,140.87L48.72,118.38L53.6,129.51L58.47,129.51L63.34,133.81L68.21,141.83L73.09,136.33L77.96,142.19L82.83,133.46L87.7,180.23L92.58,186.1L97.45,134.41L102.32,126.04L107.19,121.49L112.07,112.52L116.94,100.44L121.81,105.94L126.68,118.02L131.56,127.47L136.43,127.47L141.3,120.53L146.17,109.53L151.05,165.52L155.92,139.08L160.79,197.58L165.66,181.19L170.54,112.52L175.41,98.52L180.28,99.48L185.15,88.35L190.03,98.52L194.9,110.49L199.77,123.53L204.64,142.07L209.52,107.85L214.39,96.85L219.26,100.79L224.13,96.85L229.01,102.35L233.88,103.19L238.75,99.48L243.62,107.02L248.5,180.23L253.37,168.87L258.24,163.01L263.11,111.8L267.99,98.76L272.86,98.76L277.73,133.69L282.6,139.08L287.48,118.02L292.35,123.53L297.22,115.27L302.09,120.77L311.84,113.36L316.71,111.8L321.58,101.51L326.46,112.52L331.33,133.69L336.2,112.52L341.07,96.01L345.95,100.79L350.82,105.58L355.69,120.77L360.56,121.37L365.44,126.16L370.31,131.66L375.18,147.45L380.05,147.45L384.93,137.16L389.8,115.27L394.67,111.08L399.54,103.67L404.42,132.26L409.29,128.19L414.16,126.88L419.03,138.36L423.91,144.58L428.78,139.08L433.65,127.47L438.52,142.07L443.4,128.91L448.27,116.59L453.14,96.01L458.01,112.52L462.89,124.24L467.76,170.42L472.63,169.35L477.5,148.05L482.38,157.86L487.25,136.09L492.12,131.66L496.99,117.3L501.87,137.76L506.74,147.45L511.61,147.45L516.48,118.02L521.36,158.34L526.23,169.83L531.1,191.12L540.85,110.37L545.72,122.69L550.59,116.59L555.46,138.36L560.34,127.47L565.21,122.69L570.08,116.59L574.95,154.75L579.83,186.69L584.7,203.44L594.44,192.08L599.32,208.47L604.19,214.93L609.06,181.79L613.93,198.06L618.81,187.29L623.68,155.35L628.55,198.06L633.42,149.97L638.3,164.92L643.17,169.83L648.04,191.6L652.91,207.63L657.79,180.71L662.66,179.76L667.53,159.54L672.4,198.06L677.28,201.77L682.15,202.49L687.02,196.27L691.89,196.27L696.77,201.77L701.64,174.73L706.51,121.37L711.38,132.98L716.26,121.37L721.13,132.98L726,131.66" style="vector-effect: none; fill: none; stroke: rgb(128, 128, 128); stroke-opacity: 1; stroke-width: 2px; opacity: 1;"/></g><g class="points"/><g class="text"/></g></g></g><g class="overplot"/><path class="xlines-above crisp" d="M0,0" style="fill: none;"/><path class="ylines-above crisp" d="M0,0" style="fill: none;"/><g class="overlines-above"/><g class="xaxislayer-above"><g class="xtick"><text text-anchor="middle" x="0" y="509" transform="translate(235.57999999999998,0)" style="font-family: 'Open Sans', verdana, arial, sans-serif; font-size: 12px; fill: rgb(42, 63, 95); fill-opacity: 1; white-space: pre; opacity: 1;">20</text></g><g class="xtick"><text text-anchor="middle" x="0" y="509" style="font-family: 'Open Sans', verdana, arial, sans-serif; font-size: 12px; fill: rgb(42, 63, 95); fill-opacity: 1; white-space: pre; opacity: 1;" transform="translate(333.03,0)">40</text></g><g class="xtick"><text text-anchor="middle" x="0" y="509" style="font-family: 'Open Sans', verdana, arial, sans-serif; font-size: 12px; fill: rgb(42, 63, 95); fill-opacity: 1; white-space: pre; opacity: 1;" transform="translate(430.48,0)">60</text></g><g class="xtick"><text text-anchor="middle" x="0" y="509" style="font-family: 'Open Sans', verdana, arial, sans-serif; font-size: 12px; fill: rgb(42, 63, 95); fill-opacity: 1; white-space: pre; opacity: 1;" transform="translate(527.9300000000001,0)">80</text></g><g class="xtick"><text text-anchor="middle" x="0" y="509" style="font-family: 'Open Sans', verdana, arial, sans-serif; font-size: 12px; fill: rgb(42, 63, 95); fill-opacity: 1; white-space: pre; opacity: 1;" transform="translate(625.38,0)">100</text></g><g class="xtick"><text text-anchor="middle" x="0" y="509" style="font-family: 'Open Sans', verdana, arial, sans-serif; font-size: 12px; fill: rgb(42, 63, 95); fill-opacity: 1; white-space: pre; opacity: 1;" transform="translate(722.83,0)">120</text></g><g class="xtick"><text text-anchor="middle" x="0" y="509" style="font-family: 'Open Sans', verdana, arial, sans-serif; font-size: 12px; fill: rgb(42, 63, 95); fill-opacity: 1; white-space: pre; opacity: 1;" transform="translate(820.28,0)">140</text></g></g><g class="yaxislayer-above"><g class="ytick"><text text-anchor="end" x="142" y="4.199999999999999" transform="translate(0,491.39)" style="font-family: 'Open Sans', verdana, arial, sans-serif; font-size: 12px; fill: rgb(42, 63, 95); fill-opacity: 1; white-space: pre; opacity: 1;">60</text></g><g class="ytick"><text text-anchor="end" x="142" y="4.199999999999999" style="font-family: 'Open Sans', verdana, arial, sans-serif; font-size: 12px; fill: rgb(42, 63, 95); fill-opacity: 1; white-space: pre; opacity: 1;" transform="translate(0,431.58)">65</text></g><g class="ytick"><text text-anchor="end" x="142" y="4.199999999999999" style="font-family: 'Open Sans', verdana, arial, sans-serif; font-size: 12px; fill: rgb(42, 63, 95); fill-opacity: 1; white-space: pre; opacity: 1;" transform="translate(0,371.76)">70</text></g><g class="ytick"><text text-anchor="end" x="142" y="4.199999999999999" style="font-family: 'Open Sans', verdana, arial, sans-serif; font-size: 12px; fill: rgb(42, 63, 95); fill-opacity: 1; white-space: pre; opacity: 1;" transform="translate(0,311.94)">75</text></g><g class="ytick"><text text-anchor="end" x="142" y="4.199999999999999" style="font-family: 'Open Sans', verdana, arial, sans-serif; font-size: 12px; fill: rgb(42, 63, 95); fill-opacity: 1; white-space: pre; opacity: 1;" transform="translate(0,252.12)">80</text></g><g class="ytick"><text text-anchor="end" x="142" y="4.199999999999999" style="font-family: 'Open Sans', verdana, arial, sans-serif; font-size: 12px; fill: rgb(42, 63, 95); fill-opacity: 1; white-space: pre; opacity: 1;" transform="translate(0,192.3)">85</text></g><g class="ytick"><text text-anchor="end" x="142" y="4.199999999999999" style="font-family: 'Open Sans', verdana, arial, sans-serif; font-size: 12px; fill: rgb(42, 63, 95); fill-opacity: 1; white-space: pre; opacity: 1;" transform="translate(0,132.48)">90</text></g></g><g class="overaxes-above"/></g></g><g class="polarlayer"/><g class="smithlayer"/><g class="ternarylayer"/><g class="geolayer"/><g class="funnelarealayer"/><g class="pielayer"/><g class="iciclelayer"/><g class="treemaplayer"/><g class="sunburstlayer"/><g class="glimages"/><defs id="topdefs-5e312c"><g class="clips"/><clipPath id="legend5e312c"><rect width="128" height="162" x="0" y="0"/></clipPath></defs><g class="layer-above"><g class="imagelayer"/><g class="shapelayer"/></g><g class="infolayer"><g class="legend" pointer-events="all" transform="translate(883.52,100)"><rect class="bg" shape-rendering="crispEdges" width="128" height="162" x="0" y="0" style="stroke: rgb(68, 68, 68); stroke-opacity: 1; fill: rgb(255, 255, 255); fill-opacity: 1; stroke-width: 0px;"/><g class="scrollbox" transform="" clip-path="url(#legend5e312c)"><g class="groups"><g class="traces" transform="translate(0,14.5)" style="opacity: 1;"><text class="legendtext" text-anchor="start" x="40" y="4.680000000000001" style="font-family: 'Open Sans', verdana, arial, sans-serif; font-size: 12px; fill: rgb(42, 63, 95); fill-opacity: 1; white-space: pre;">Train Accuracy</text><g class="layers" style="opacity: 1;"><g class="legendfill"/><g class="legendlines"><path class="js-line" d="M5,0h30" style="fill: none; stroke: rgb(255, 0, 0); stroke-opacity: 1; stroke-width: 2px;"/></g><g class="legendsymbols"><g class="legendpoints"/></g></g><rect class="legendtoggle" x="0" y="-9.5" width="122.71875" height="19" style="fill: rgb(0, 0, 0); fill-opacity: 0;"/></g><g class="traces" transform="translate(0,33.5)" style="opacity: 1;"><text class="legendtext" text-anchor="start" x="40" y="4.680000000000001" style="font-family: 'Open Sans', verdana, arial, sans-serif; font-size: 12px; fill: rgb(42, 63, 95); fill-opacity: 1; white-space: pre;">Test Accuracy</text><g class="layers" style="opacity: 1;"><g class="legendfill"/><g class="legendlines"><path class="js-line" d="M5,0h30" style="fill: none; stroke: rgb(0, 0, 255); stroke-opacity: 1; stroke-width: 2px;"/></g><g class="legendsymbols"><g class="legendpoints"/></g></g><rect class="legendtoggle" x="0" y="-9.5" width="122.71875" height="19" style="fill: rgb(0, 0, 0); fill-opacity: 0;"/></g><g class="traces" transform="translate(0,52.5)" style="opacity: 1;"><text class="legendtext" text-anchor="start" x="40" y="4.680000000000001" style="font-family: 'Open Sans', verdana, arial, sans-serif; font-size: 12px; fill: rgb(42, 63, 95); fill-opacity: 1; white-space: pre;">Train Precision</text><g class="layers" style="opacity: 1;"><g class="legendfill"/><g class="legendlines"><path class="js-line" d="M5,0h30" style="fill: none; stroke: rgb(0, 128, 0); stroke-opacity: 1; stroke-width: 2px;"/></g><g class="legendsymbols"><g class="legendpoints"/></g></g><rect class="legendtoggle" x="0" y="-9.5" width="122.71875" height="19" style="fill: rgb(0, 0, 0); fill-opacity: 0;"/></g><g class="traces" transform="translate(0,71.5)" style="opacity: 1;"><text class="legendtext" text-anchor="start" x="40" y="4.680000000000001" style="font-family: 'Open Sans', verdana, arial, sans-serif; font-size: 12px; fill: rgb(42, 63, 95); fill-opacity: 1; white-space: pre;">Test Precision</text><g class="layers" style="opacity: 1;"><g class="legendfill"/><g class="legendlines"><path class="js-line" d="M5,0h30" style="fill: none; stroke: rgb(255, 165, 0); stroke-opacity: 1; stroke-width: 2px;"/></g><g class="legendsymbols"><g class="legendpoints"/></g></g><rect class="legendtoggle" x="0" y="-9.5" width="122.71875" height="19" style="fill: rgb(0, 0, 0); fill-opacity: 0;"/></g><g class="traces" transform="translate(0,90.5)" style="opacity: 1;"><text class="legendtext" text-anchor="start" x="40" y="4.680000000000001" style="font-family: 'Open Sans', verdana, arial, sans-serif; font-size: 12px; fill: rgb(42, 63, 95); fill-opacity: 1; white-space: pre;">Train Recall</text><g class="layers" style="opacity: 1;"><g class="legendfill"/><g class="legendlines"><path class="js-line" d="M5,0h30" style="fill: none; stroke: rgb(128, 0, 128); stroke-opacity: 1; stroke-width: 2px;"/></g><g class="legendsymbols"><g class="legendpoints"/></g></g><rect class="legendtoggle" x="0" y="-9.5" width="122.71875" height="19" style="fill: rgb(0, 0, 0); fill-opacity: 0;"/></g><g class="traces" transform="translate(0,109.5)" style="opacity: 1;"><text class="legendtext" text-anchor="start" x="40" y="4.680000000000001" style="font-family: 'Open Sans', verdana, arial, sans-serif; font-size: 12px; fill: rgb(42, 63, 95); fill-opacity: 1; white-space: pre;">Test Recall</text><g class="layers" style="opacity: 1;"><g class="legendfill"/><g class="legendlines"><path class="js-line" d="M5,0h30" style="fill: none; stroke: rgb(255, 192, 203); stroke-opacity: 1; stroke-width: 2px;"/></g><g class="legendsymbols"><g class="legendpoints"/></g></g><rect class="legendtoggle" x="0" y="-9.5" width="122.71875" height="19" style="fill: rgb(0, 0, 0); fill-opacity: 0;"/></g><g class="traces" transform="translate(0,128.5)" style="opacity: 1;"><text class="legendtext" text-anchor="start" x="40" y="4.680000000000001" style="font-family: 'Open Sans', verdana, arial, sans-serif; font-size: 12px; fill: rgb(42, 63, 95); fill-opacity: 1; white-space: pre;">Train F1</text><g class="layers" style="opacity: 1;"><g class="legendfill"/><g class="legendlines"><path class="js-line" d="M5,0h30" style="fill: none; stroke: rgb(165, 42, 42); stroke-opacity: 1; stroke-width: 2px;"/></g><g class="legendsymbols"><g class="legendpoints"/></g></g><rect class="legendtoggle" x="0" y="-9.5" width="122.71875" height="19" style="fill: rgb(0, 0, 0); fill-opacity: 0;"/></g><g class="traces" transform="translate(0,147.5)" style="opacity: 1;"><text class="legendtext" text-anchor="start" x="40" y="4.680000000000001" style="font-family: 'Open Sans', verdana, arial, sans-serif; font-size: 12px; fill: rgb(42, 63, 95); fill-opacity: 1; white-space: pre;">Test F1</text><g class="layers" style="opacity: 1;"><g class="legendfill"/><g class="legendlines"><path class="js-line" d="M5,0h30" style="fill: none; stroke: rgb(128, 128, 128); stroke-opacity: 1; stroke-width: 2px;"/></g><g class="legendsymbols"><g class="legendpoints"/></g></g><rect class="legendtoggle" x="0" y="-9.5" width="122.71875" height="19" style="fill: rgb(0, 0, 0); fill-opacity: 0;"/></g></g></g><rect class="scrollbar" rx="20" ry="3" width="0" height="0" x="0" y="0" style="fill: rgb(128, 139, 164); fill-opacity: 1;"/></g><g class="g-gtitle"><text class="gtitle" x="51.2" y="50" text-anchor="start" dy="0em" style="font-family: 'Open Sans', verdana, arial, sans-serif; font-size: 17px; fill: rgb(42, 63, 95); opacity: 1; font-weight: normal; white-space: pre;">Training Metrics - logs/FakeNewsNet-politifact_max-vocab=15000_pre=v2_text_domain_T=200_s=15.log</text></g><g class="g-xtitle"><text class="xtitle" x="506" y="537.3" text-anchor="middle" style="font-family: 'Open Sans', verdana, arial, sans-serif; font-size: 14px; fill: rgb(42, 63, 95); opacity: 1; font-weight: normal; white-space: pre;">Epoch</text></g><g class="g-ytitle"><text class="ytitle" transform="rotate(-90,103.965625,298)" x="103.965625" y="298" text-anchor="middle" style="font-family: 'Open Sans', verdana, arial, sans-serif; font-size: 14px; fill: rgb(42, 63, 95); opacity: 1; font-weight: normal; white-space: pre;">Metric Score</text></g></g><g class="menulayer"><g class="updatemenu-container" style="cursor: pointer;"><g class="updatemenu-header-group" transform="translate(12,60)"><g class="updatemenu-header" transform="translate(1,1)" style="pointer-events: all;"><rect class="updatemenu-item-rect" rx="2" ry="2" shape-rendering="crispEdges" x="0" y="0" width="167" height="33" style="stroke: rgb(190, 200, 217); stroke-opacity: 1; fill: rgb(255, 255, 255); fill-opacity: 1; stroke-width: 1px;"/><text class="updatemenu-item-text" text-anchor="start" data-notex="1" x="12" y="19.5" style="font-family: 'Open Sans', verdana, arial, sans-serif; font-size: 12px; fill: rgb(42, 63, 95); fill-opacity: 1; white-space: pre;">All</text></g><text class="updatemenu-header-arrow" text-anchor="end" x="163" y="19.5" style="font-family: 'Open Sans', verdana, arial, sans-serif; font-size: 12px; fill: rgb(42, 63, 95); fill-opacity: 1;">▼</text></g><g class="updatemenu-dropdown-button-group" updatemenu-active-index="-1" style="pointer-events: all;"><rect class="scrollbox-bg" opacity="0" x="0" y="0" width="0" height="0" style="pointer-events: all;"/></g></g></g></svg>