<svg class="main-svg" xmlns="http://www.w3.org/2000/svg" xmlns:xlink="http://www.w3.org/1999/xlink" width="1024" height="576" style="" viewBox="0 0 1024 576"><rect x="0" y="0" width="1024" height="576" style="fill: rgb(255, 255, 255); fill-opacity: 1;"/><defs id="defs-396dbc"><g class="clips"><clipPath id="clip396dbcxyplot" class="plotclip"><rect width="726" height="396"/></clipPath><clipPath class="axesclip" id="clip396dbcx"><rect x="143" y="0" width="726" height="576"/></clipPath><clipPath class="axesclip" id="clip396dbcy"><rect x="0" y="100" width="1024" height="396"/></clipPath><clipPath class="axesclip" id="clip396dbcxy"><rect x="143" y="100" width="726" height="396"/></clipPath></g><g class="gradients"/><g class="patterns"/></defs><g class="bglayer"><rect class="bg" x="143" y="100" width="726" height="396" style="fill: rgb(229, 236, 246); fill-opacity: 1; stroke-width: 0;"/></g><g class="layer-below"><g class="imagelayer"/><g class="shapelayer"/></g><g class="cartesianlayer"><g class="subplot xy"><g class="layer-subplot"><g class="shapelayer"/><g class="imagelayer"/></g><g class="minor-gridlayer"><g class="x"/><g class="y"/></g><g class="gridlayer"><g class="x"><path class="xgrid crisp" transform="translate(235.57999999999998,0)" d="M0,100v396" style="stroke: rgb(255, 255, 255); stroke-opacity: 1; stroke-width: 1px;"/><path class="xgrid crisp" transform="translate(333.03,0)" d="M0,100v396" style="stroke: rgb(255, 255, 255); stroke-opacity: 1; stroke-width: 1px;"/><path class="xgrid crisp" transform="translate(430.48,0)" d="M0,100v396" style="stroke: rgb(255, 255, 255); stroke-opacity: 1; stroke-width: 1px;"/><path class="xgrid crisp" transform="translate(527.9300000000001,0)" d="M0,100v396" style="stroke: rgb(255, 255, 255); stroke-opacity: 1; stroke-width: 1px;"/><path class="xgrid crisp" transform="translate(625.38,0)" d="M0,100v396" style="stroke: rgb(255, 255, 255); stroke-opacity: 1; stroke-width: 1px;"/><path class="xgrid crisp" transform="translate(722.83,0)" d="M0,100v396" style="stroke: rgb(255, 255, 255); stroke-opacity: 1; stroke-width: 1px;"/><path class="xgrid crisp" transform="translate(820.28,0)" d="M0,100v396" style="stroke: rgb(255, 255, 255); stroke-opacity: 1; stroke-width: 1px;"/></g><g class="y"><path class="ygrid crisp" transform="translate(0,449.37)" d="M143,0h726" style="stroke: rgb(255, 255, 255); stroke-opacity: 1; stroke-width: 1px;"/><path class="ygrid crisp" transform="translate(0,382.95)" d="M143,0h726" style="stroke: rgb(255, 255, 255); stroke-opacity: 1; stroke-width: 1px;"/><path class="ygrid crisp" transform="translate(0,316.53)" d="M143,0h726" style="stroke: rgb(255, 255, 255); stroke-opacity: 1; stroke-width: 1px;"/><path class="ygrid crisp" transform="translate(0,250.11)" d="M143,0h726" style="stroke: rgb(255, 255, 255); stroke-opacity: 1; stroke-width: 1px;"/><path class="ygrid crisp" transform="translate(0,183.69)" d="M143,0h726" style="stroke: rgb(255, 255, 255); stroke-opacity: 1; stroke-width: 1px;"/><path class="ygrid crisp" transform="translate(0,117.28)" d="M143,0h726" style="stroke: rgb(255, 255, 255); stroke-opacity: 1; stroke-width: 1px;"/></g></g><g class="zerolinelayer"/><path class="xlines-below"/><path class="ylines-below"/><g class="overlines-below"/><g class="xaxislayer-below"/><g class="yaxislayer-below"/><g class="overaxes-below"/><g class="plot" transform="translate(143,100)" clip-path="url(#clip396dbcxyplot)"><g class="scatterlayer mlayer"><g class="trace scatter trace637393" style="stroke-miterlimit: 2; opacity: 1;"><g class="fills"/><g class="errorbars"/><g class="lines"><path class="js-line" d="M0,295.57L4.87,213.67L9.74,224.7L14.62,119.29L19.49,136.56L24.36,152.3L29.23,138.16L34.11,80.71L38.98,71.27L43.85,72.8L48.72,63.37L53.6,68.88L58.47,104.28L68.21,98.77L73.09,87.81L77.96,62.57L82.83,57.86L87.7,118.5L92.58,88.54L97.45,103.55L102.32,88.54L107.19,69.68L112.07,68.88L116.94,52.34L121.81,47.63L126.68,60.25L131.56,46.1L136.43,51.61L141.3,46.1L146.17,51.61L151.05,54.74L155.92,55.53L160.79,58.65L165.66,64.17L170.54,57.86L175.41,51.61L180.28,57.86L185.15,58.65L190.03,64.17L194.9,49.22L199.77,57.13L204.64,47.63L209.52,50.02L214.39,46.83L219.26,57.86L224.13,51.61L229.01,68.88L233.88,65.76L238.75,60.25L243.62,35.87L248.5,35.87L253.37,40.59L258.24,52.34L263.11,52.34L267.99,48.43L272.86,43.71L277.73,37.4L282.6,41.39L287.48,58.65L292.35,32.69L297.22,60.25L306.97,54.74L311.84,38.99L316.71,45.3L321.58,43.71L326.46,38.99L331.33,37.4L336.2,36.6L341.07,46.1L345.95,47.63L350.82,40.59L360.56,35.08L365.44,53.94L370.31,29.56L375.18,31.16L380.05,32.69L384.93,30.36L389.8,30.36L394.67,42.91L399.54,42.91L404.42,29.56L409.29,26.38L414.16,28.77L419.03,34.28L423.91,35.87L433.65,28.77L438.52,31.16L443.4,29.56L448.27,33.48L453.14,32.69L458.01,41.39L462.89,40.59L467.76,27.17L472.63,26.38L477.5,28.77L482.38,28.77L487.25,53.14L492.12,54.74L496.99,53.14L501.87,55.53L506.74,55.53L511.61,55.53L516.48,53.14L521.36,51.61L526.23,56.33L531.1,54.74L535.97,53.94L540.85,32.69L545.72,26.38L550.59,23.25L555.46,23.25L560.34,27.17L565.21,27.17L570.08,23.25L574.95,28.77L579.83,30.36L584.7,28.77L589.57,26.38L594.44,29.56L599.32,29.56L604.19,30.36L609.06,30.36L613.93,25.64L618.81,27.17L623.68,29.56L628.55,43.71L633.42,28.77L638.3,30.36L643.17,25.64L648.04,27.97L652.91,35.08L657.79,35.87L662.66,30.36L667.53,31.89L672.4,35.87L677.28,31.89L682.15,30.36L687.02,22.46L691.89,28.77L696.77,26.38L701.64,25.64L706.51,35.08L711.38,34.28L716.26,32.69L721.13,35.87L726,31.16" style="vector-effect: none; fill: none; stroke: rgb(255, 0, 0); stroke-opacity: 1; stroke-width: 2px; opacity: 1;"/></g><g class="points"/><g class="text"/></g><g class="trace scatter trace00ee59" style="stroke-miterlimit: 2; opacity: 1;"><g class="fills"/><g class="errorbars"/><g class="lines"><path class="js-line" d="M0,336.22L4.87,270.4L9.74,295.5L14.62,141.94L19.49,151.37L24.36,145.13L29.23,151.37L34.11,123.15L38.98,104.35L43.85,113.78L48.72,101.23L53.6,98.11L58.47,120.03L63.34,123.15L68.21,123.15L73.09,98.11L77.96,85.55L82.83,88.68L87.7,185.85L92.58,167.05L97.45,173.29L102.32,145.13L107.19,98.11L112.07,94.99L116.94,82.43L121.81,85.55L126.68,85.55L131.56,76.19L136.43,73.07L141.3,73.07L146.17,82.43L151.05,82.43L155.92,85.55L165.66,85.55L170.54,73.07L175.41,110.66L180.28,76.19L185.15,76.19L190.03,88.68L194.9,73.07L199.77,69.88L204.64,110.66L209.52,113.78L214.39,107.47L219.26,120.03L224.13,107.47L229.01,129.46L233.88,135.7L238.75,123.15L243.62,88.68L248.5,98.11L253.37,66.76L258.24,76.19L263.11,79.31L267.99,73.07L272.86,63.64L277.73,76.19L282.6,91.86L287.48,126.33L292.35,88.68L297.22,123.15L302.09,135.7L306.97,123.15L311.84,88.68L316.71,123.15L321.58,69.88L326.46,69.88L331.33,76.19L336.2,73.07L341.07,69.88L345.95,79.31L350.82,69.88L355.69,82.43L360.56,85.55L365.44,126.33L370.31,60.51L375.18,76.19L380.05,82.43L384.93,85.55L389.8,85.55L394.67,82.43L404.42,69.88L409.29,79.31L414.16,82.43L419.03,88.68L423.91,85.55L428.78,73.07L433.65,82.43L438.52,69.88L443.4,82.43L448.27,82.43L453.14,91.86L458.01,85.55L467.76,85.55L472.63,76.19L482.38,76.19L487.25,116.9L492.12,116.9L496.99,110.66L501.87,116.9L506.74,120.03L511.61,120.03L516.48,113.78L521.36,113.78L526.23,116.9L535.97,116.9L540.85,82.43L545.72,66.76L550.59,79.31L555.46,73.07L560.34,82.43L565.21,76.19L570.08,85.55L574.95,98.11L579.83,94.99L584.7,79.31L589.57,76.19L594.44,94.99L599.32,98.11L604.19,94.99L609.06,98.11L618.81,91.86L623.68,98.11L628.55,126.33L633.42,94.99L638.3,94.99L643.17,85.55L648.04,82.43L652.91,76.19L657.79,82.43L662.66,91.86L667.53,88.68L672.4,88.68L677.28,88.68L682.15,79.31L687.02,88.68L691.89,94.99L696.77,88.68L701.64,88.68L706.51,79.31L711.38,79.31L716.26,88.68L721.13,85.55L726,94.99" style="vector-effect: none; fill: none; stroke: rgb(0, 0, 255); stroke-opacity: 1; stroke-width: 2px; opacity: 1;"/></g><g class="points"/><g class="text"/></g><g class="trace scatter traceab6ae2" style="stroke-miterlimit: 2; opacity: 1;"><g class="fills"/><g class="errorbars"/><g class="lines"><path class="js-line" d="M0,146.46L4.87,142.94L9.74,130.39L14.62,84.76L19.49,89.94L24.36,84.56L29.23,91.07L34.11,70.14L38.98,67.09L43.85,68.82L48.72,62.51L53.6,63.3L58.47,79.51L68.21,75.46L73.09,70.81L77.96,57.72L82.83,55L87.7,92.66L92.58,79.64L97.45,85.02L102.32,81.5L107.19,57.26L112.07,56.66L121.81,50.68L126.68,59.12L131.56,49.16L136.43,50.95L141.3,49.16L146.17,53.14L151.05,52.74L155.92,53.74L160.79,51.15L165.66,55.47L170.54,55.73L175.41,54.74L180.28,49.42L185.15,49.49L190.03,54.87L194.9,47.7L199.77,54.01L204.64,49.56L209.52,51.88L214.39,49.02L219.26,58.79L224.13,54.2L229.01,67.49L233.88,64.37L238.75,59.32L243.62,38.8L248.5,38.6L253.37,42.25L258.24,50.02L263.11,51.35L267.99,49.89L272.86,44.04L277.73,39.59L282.6,43.91L287.48,56.79L292.35,35.47L297.22,58.99L302.09,55.87L306.97,53.01L311.84,41.59L316.71,46.04L321.58,46.1L326.46,41.65L331.33,38.6L336.2,38.73L341.07,48.03L345.95,49.16L350.82,42.58L360.56,37.47L365.44,52.41L370.31,32.35L375.18,33.75L380.05,35.28L384.93,33.02L389.8,33.08L394.67,43.78L399.54,44.24L404.42,32.35L409.29,29.1L414.16,31.49L419.03,36.6L423.91,38.33L433.65,31.36L438.52,33.68L443.4,32.09L448.27,36.21L453.14,35.47L458.01,42.78L462.89,41.65L467.76,29.9L472.63,28.9L477.5,31.49L482.38,31.49L487.25,51.15L492.12,52.68L496.99,51.48L501.87,53.01L506.74,51.95L511.61,51.95L516.48,50.82L521.36,48.16L526.23,53.61L531.1,51.28L535.97,51.42L540.85,35.28L545.72,28.9L550.59,25.98L555.46,25.98L560.34,29.56L565.21,29.7L570.08,25.64L574.95,31.36L579.83,32.95L584.7,31.22L589.57,29.1L594.44,31.89L609.06,32.62L613.93,28.37L623.68,32.22L628.55,44.18L633.42,31.22L638.3,32.95L643.17,28.24L648.04,30.43L652.91,37.67L657.79,38.6L662.66,32.62L667.53,34.74L672.4,38.6L677.28,34.81L682.15,33.22L687.02,25.05L691.89,31.16L696.77,28.77L701.64,28.17L706.51,37.93L716.26,35.54L721.13,38.6L726,33.08" style="vector-effect: none; fill: none; stroke: rgb(0, 128, 0); stroke-opacity: 1; stroke-width: 2px; opacity: 1;"/></g><g class="points"/><g class="text"/></g><g class="trace scatter trace0f2764" style="stroke-miterlimit: 2; opacity: 1;"><g class="fills"/><g class="errorbars"/><g class="lines"><path class="js-line" d="M0,180L4.87,185.91L9.74,169.51L14.62,124.94L19.49,131.05L24.36,73.73L29.23,131.05L34.11,122.22L38.98,110.53L43.85,116.84L48.72,109.66L53.6,94.99L58.47,96.78L63.34,99.7L68.21,104.75L73.09,82.03L77.96,92L82.83,96.18L87.7,155.23L92.58,146.92L97.45,144.93L102.32,135.5L107.19,92.26L112.07,89.47L116.94,88.94L121.81,95.25L126.68,90.73L131.56,85.82L136.43,79.84L141.3,82.63L146.17,92L151.05,90L155.92,93.06L160.79,87.61L165.66,85.69L170.54,78.78L175.41,121.69L180.28,72.8L185.15,70.21L190.03,83.83L194.9,79.84L199.77,73.13L204.64,116.9L209.52,119.43L214.39,114.25L219.26,124.48L224.13,115.31L229.01,130.25L233.88,134.84L238.75,125.54L243.62,98.7L248.5,107.67L253.37,73.8L263.11,86.88L267.99,80.77L272.86,69.88L277.73,83.83L282.6,100.63L287.48,129.39L292.35,99.17L297.22,126.93L302.09,136.5L306.97,126.93L311.84,98.37L316.71,128.26L321.58,77.72L326.46,77.72L331.33,80.44L336.2,80.77L341.07,77.72L345.95,86.88L350.82,77.72L355.69,92.33L360.56,94.79L365.44,129.39L370.31,68.95L375.18,85.89L380.05,91.8L384.93,94.79L389.8,94.79L394.67,87.75L404.42,78.38L409.29,89.21L414.16,92.46L419.03,98.31L423.91,94.79L428.78,82.63L433.65,91.8L438.52,79.18L443.4,91.8L448.27,92.2L453.14,101.23L458.01,94.65L462.89,94.65L467.76,95.85L472.63,85.55L477.5,85.82L482.38,85.55L487.25,119.23L492.12,119.23L496.99,112.98L501.87,119.23L506.74,121.62L511.61,121.62L516.48,116.84L521.36,116.84L526.23,119.23L531.1,117.7L535.97,117.7L540.85,92.53L545.72,76.06L550.59,89.21L555.46,82.63L560.34,92.2L565.21,85.69L570.08,95.58L574.95,108.93L579.83,105.75L584.7,89.07L589.57,85.95L594.44,104.15L599.32,107.01L604.19,103.42L609.06,107.01L613.93,104.15L618.81,101.23L623.68,107.01L628.55,129.39L633.42,105.21L638.3,105.55L643.17,95.58L648.04,91.8L652.91,84.56L657.79,92L662.66,101.23L667.53,99.17L672.4,98.97L677.28,99.17L682.15,89.21L687.02,98.31L691.89,104.15L696.77,98.31L701.64,98.31L706.51,89.21L711.38,88.74L716.26,98.77L721.13,95.18L726,104.75" style="vector-effect: none; fill: none; stroke: rgb(255, 165, 0); stroke-opacity: 1; stroke-width: 2px; opacity: 1;"/></g><g class="points"/><g class="text"/></g><g class="trace scatter trace06a879" style="stroke-miterlimit: 2; opacity: 1;"><g class="fills"/><g class="errorbars"/><g class="lines"><path class="js-line" d="M0,248.21L4.87,181.93L9.74,188.5L14.62,146.39L19.49,168.38L24.36,189.17L29.23,170.24L34.11,96.25L38.98,82.7L43.85,84.29L48.72,71.74L53.6,80.9L58.47,127.26L68.21,120.69L73.09,106.54L77.96,73.67L82.83,67.22L87.7,100.17L92.58,76.99L97.45,87.81L102.32,78.05L107.19,84.96L112.07,84.03L116.94,57.79L121.81,46.97L126.68,68.48L131.56,45.9L136.43,58.72L141.3,46.17L146.17,56.33L151.05,63.24L155.92,63.9L160.79,70.81L165.66,77.38L170.54,66.69L175.41,52.21L180.28,70.34L185.15,71.54L190.03,77.58L194.9,56.93L199.77,66.56L204.64,43.84L209.52,46.17L214.39,43.44L219.26,52.94L224.13,49.36L229.01,61.91L233.88,58.65L238.75,53.41L243.62,35.54L248.5,33.68L253.37,44.24L258.24,60.91L263.11,59.92L267.99,53.14L272.86,49.29L277.73,39.99L282.6,38.66L287.48,51.02L292.35,33.08L297.22,53.14L306.97,47.1L311.84,40.85L316.71,39.73L321.58,46.43L326.46,40.59L331.33,41.59L336.2,39.33L341.07,49.82L345.95,52.21L350.82,43.71L355.69,38.4L360.56,31.95L365.44,46.43L370.31,29.3L375.18,28.57L380.05,29.96L384.93,27.9L389.8,28.17L394.67,47.83L399.54,47.36L404.42,29.3L409.29,23.98L414.16,26.57L419.03,31.02L423.91,32.88L428.78,30.03L433.65,26.04L438.52,28.3L443.4,26.71L448.27,31.42L453.14,30.69L458.01,45.44L462.89,45.04L467.76,27.5L472.63,27.37L477.5,29.16L482.38,28.9L487.25,45.24L492.12,46.83L496.99,45.5L501.87,47.23L506.74,46.43L511.61,46.43L516.48,44.97L521.36,42.58L526.23,47.89L531.1,45.77L535.97,45.64L540.85,29.96L545.72,23.45L550.59,21.26L555.46,21L560.34,23.92L565.21,24.12L570.08,20L574.95,26.04L579.83,27.64L584.7,25.78L589.57,23.98L594.44,26.18L609.06,26.84L613.93,23.59L623.68,27.24L628.55,37.87L633.42,25.78L638.3,27.64L643.17,23.05L648.04,24.85L652.91,36.4L657.79,36.8L662.66,26.84L667.53,30.56L672.4,33.68L677.28,30.83L682.15,29.5L687.02,19.8L691.89,25.51L696.77,22.92L701.64,22.79L706.51,35.34L711.38,34.94L716.26,32.82L721.13,36.8L726,27.04" style="vector-effect: none; fill: none; stroke: rgb(128, 0, 128); stroke-opacity: 1; stroke-width: 2px; opacity: 1;"/></g><g class="points"/><g class="text"/></g><g class="trace scatter trace7a2fae" style="stroke-miterlimit: 2; opacity: 1;"><g class="fills"/><g class="errorbars"/><g class="lines"><path class="js-line" d="M0,257.44L4.87,214.34L9.74,227.02L14.62,198.13L19.49,212.68L24.36,213.08L29.23,212.68L34.11,163.66L38.98,130.98L43.85,147.32L48.72,123.21L53.6,131.38L58.47,170.1L63.34,174.36L68.21,172.56L77.96,105.48L82.83,107.94L87.7,154.5L92.58,141.41L97.45,142.81L102.32,125.87L107.19,133.18L112.07,128.93L116.94,101.23L121.81,87.68L126.68,107.27L131.56,83.83L136.43,88.41L141.3,77.78L146.17,94.12L151.05,99.44L155.92,103.69L160.79,110.79L165.66,112.59L170.54,90.2L175.41,116.37L180.28,103.35L185.15,105.15L190.03,120.42L194.9,88.41L199.77,89.54L204.64,105.75L209.52,108.2L214.39,103.22L219.26,113.18L224.13,105.01L229.01,118.83L233.88,123.74L238.75,113.85L243.62,91.93L248.5,99.37L253.37,79.91L258.24,96.25L263.11,95.18L267.99,86.68L272.86,77.45L277.73,90.93L282.6,90.87L287.48,118.1L292.35,97.24L297.22,115.64L302.09,125.54L306.97,115.64L311.84,102.62L316.71,117.43L321.58,82.37L326.46,82.37L331.33,96.25L336.2,86.68L341.07,82.37L345.95,95.18L350.82,82.37L355.69,92.33L360.56,85.89L365.44,118.1L370.31,67.82L375.18,80.24L384.93,85.89L389.8,85.89L394.67,102.96L399.54,92.66L404.42,80.64L409.29,84.49L419.03,90.14L423.91,85.89L428.78,77.78L433.65,83.43L438.52,71.74L443.4,83.43L448.27,85.22L453.14,92.66L458.01,100.1L462.89,100.1L472.63,85.55L477.5,83.83L482.38,85.55L487.25,107.14L492.12,107.14L496.99,100.37L501.87,107.14L506.74,109.6L511.61,109.6L516.48,104.62L521.36,104.62L526.23,107.14L531.1,105.35L535.97,105.35L545.72,71.01L550.59,86.28L555.46,77.78L560.34,85.22L565.21,78.45L570.08,89.47L574.95,104.68L579.83,102.22L584.7,82.7L589.57,82.03L594.44,95.12L599.32,97.58L604.19,93.32L609.06,97.58L618.81,92.66L623.68,97.58L628.55,118.1L633.42,98.64L638.3,100.43L643.17,89.47L648.04,83.43L652.91,89.14L657.79,94.12L662.66,92.66L667.53,97.24L672.4,93.72L677.28,97.24L682.15,86.28L687.02,90.14L691.89,95.12L696.77,90.14L701.64,90.14L706.51,86.28L711.38,89.8L716.26,100.83L721.13,98.37L726,96.91" style="vector-effect: none; fill: none; stroke: rgb(255, 192, 203); stroke-opacity: 1; stroke-width: 2px; opacity: 1;"/></g><g class="points"/><g class="text"/></g><g class="trace scatter trace347150" style="stroke-miterlimit: 2; opacity: 1;"><g class="fills"/><g class="errorbars"/><g class="lines"><path class="js-line" d="M0,344.65L4.87,223.77L9.74,240.64L14.62,145.53L19.49,173.09L24.36,202.85L29.23,175.48L34.11,91L38.98,78.38L43.85,80.04L48.72,68.55L53.6,76.26L58.47,123.41L63.34,119.29L68.21,116.24L73.09,101.16L77.96,69.08L82.83,63.37L87.7,118.83L92.58,88.68L97.45,103.55L102.32,88.74L107.19,79.11L112.07,78.18L116.94,56L121.81,49.36L126.68,65.3L131.56,47.89L136.43,55.87L141.3,47.96L146.17,54.94L151.05,59.72L155.92,60.45L160.79,65.56L165.66,71.94L175.41,53.67L180.28,64.96L185.15,66.03L190.03,72.14L194.9,53.67L199.77,62.57L204.64,48.69L209.52,51.08L214.39,47.96L219.26,58.79L224.13,52.94L229.01,69.48L233.88,66.29L238.75,60.85L243.62,37.47L248.5,37.14L253.37,43.31L258.24,57.26L263.11,56.79L267.99,51.68L272.86,47.16L277.73,39.79L282.6,42.58L287.48,59.12L292.35,34.48L297.22,60.78L306.97,55.2L311.84,41.19L316.71,46.04L321.58,46.3L326.46,41.12L331.33,40.26L336.2,38.99L341.07,48.96L345.95,50.88L350.82,43.18L360.56,36.14L365.44,54.4L370.31,31.09L375.18,32.29L380.05,33.81L384.93,31.49L389.8,31.56L394.67,46.17L399.54,45.97L404.42,31.09L409.29,27.5L414.16,29.96L419.03,35.34L423.91,36.94L433.65,29.83L438.52,32.22L443.4,30.63L448.27,34.74L453.14,33.95L458.01,44.24L462.89,43.58L467.76,28.83L472.63,28.17L477.5,30.43L482.38,30.43L487.25,53.61L492.12,55.13L496.99,53.61L501.87,55.93L506.74,55.8L511.61,55.8L516.48,53.54L521.36,51.88L526.23,56.66L531.1,55.07L535.97,54.34L540.85,33.81L545.72,27.44L550.59,24.45L555.46,24.38L560.34,28.17L565.21,28.24L570.08,24.18L574.95,29.83L579.83,31.42L584.7,29.83L589.57,27.5L594.44,30.56L609.06,31.29L613.93,26.77L623.68,30.69L628.55,44.37L633.42,29.83L638.3,31.42L643.17,26.71L648.04,28.97L652.91,37.07L657.79,37.8L662.66,31.29L667.53,33.28L672.4,37.14L677.28,33.35L682.15,31.82L687.02,23.52L691.89,29.76L696.77,27.37L701.64,26.64L706.51,36.8L711.38,36.14L716.26,34.41L721.13,37.8L726,32.02" style="vector-effect: none; fill: none; stroke: rgb(165, 42, 42); stroke-opacity: 1; stroke-width: 2px; opacity: 1;"/></g><g class="points"/><g class="text"/></g><g class="trace scatter trace3e2404" style="stroke-miterlimit: 2; opacity: 1;"><g class="fills"/><g class="errorbars"/><g class="lines"><path class="js-line" d="M0,376.2L4.87,278.83L9.74,315.76L14.62,200.99L19.49,221.64L24.36,228.09L29.23,221.64L34.11,158.08L38.98,125.01L43.85,140.81L48.72,118.5L53.6,123.28L58.47,165.99L63.34,171.23L68.21,168.78L73.09,129.59L77.96,100.5L82.83,103.49L87.7,185.85L92.58,167.45L97.45,173.36L102.32,146.53L107.19,124.74L112.07,120.36L116.94,96.58L121.81,92.53L126.68,101.56L131.56,84.89L136.43,84.89L141.3,80.57L146.17,93.06L151.05,95.65L155.92,99.57L160.79,103.69L165.66,104.82L170.54,85.75L175.41,119.63L180.28,94.65L185.15,95.78L190.03,111.59L194.9,84.89L199.77,83.56L204.64,115.64L209.52,118.63L214.39,112.72L219.26,124.48L224.13,113.32L229.01,132.84L233.88,138.75L238.75,126.93L243.62,96.18L248.5,105.08L253.37,77.25L258.24,90.54L263.11,91.73L267.99,84.09L272.86,74.2L277.73,87.88L282.6,97.91L287.48,130.39L292.35,98.24L297.22,127.46L302.09,139.22L306.97,127.46L311.84,100.7L316.71,128L321.58,80.31L326.46,80.31L331.33,90.54L336.2,84.09L341.07,80.31L345.95,91.73L350.82,80.31L355.69,92.33L360.56,91.93L365.44,130.39L370.31,68.42L375.18,83.56L380.05,88.94L384.93,91.93L389.8,91.93L394.67,97.51L399.54,88.74L404.42,79.51L409.29,87.21L414.16,90.2L419.03,95.52L423.91,91.93L428.78,80.57L433.65,88.94L438.52,76.32L443.4,88.94L448.27,89.54L453.14,98.51L458.01,97.71L462.89,97.71L467.76,94.59L472.63,85.55L477.5,84.89L482.38,85.55L487.25,120.56L492.12,120.56L496.99,114.11L501.87,120.56L506.74,123.48L511.61,123.48L516.48,117.57L521.36,117.57L526.23,120.56L535.97,120.09L540.85,90.87L545.72,73.86L550.59,87.88L555.46,80.57L560.34,89.54L565.21,82.96L570.08,93.19L574.95,107.14L579.83,104.22L584.7,86.55L589.57,84.23L594.44,101.43L599.32,104.42L604.19,100.83L609.06,104.42L618.81,98.51L623.68,104.42L628.55,130.39L633.42,102.76L638.3,103.49L643.17,93.19L648.04,88.94L652.91,87.08L662.66,98.51L667.53,98.24L672.4,96.85L677.28,98.24L682.15,87.88L687.02,95.52L691.89,101.43L696.77,95.52L701.64,95.52L706.51,87.88L711.38,89.34L716.26,99.83L721.13,96.91L726,102.09" style="vector-effect: none; fill: none; stroke: rgb(128, 128, 128); stroke-opacity: 1; stroke-width: 2px; opacity: 1;"/></g><g class="points"/><g class="text"/></g></g></g><g class="overplot"/><path class="xlines-above crisp" d="M0,0" style="fill: none;"/><path class="ylines-above crisp" d="M0,0" style="fill: none;"/><g class="overlines-above"/><g class="xaxislayer-above"><g class="xtick"><text text-anchor="middle" x="0" y="509" transform="translate(235.57999999999998,0)" style="font-family: 'Open Sans', verdana, arial, sans-serif; font-size: 12px; fill: rgb(42, 63, 95); fill-opacity: 1; white-space: pre; opacity: 1;">20</text></g><g class="xtick"><text text-anchor="middle" x="0" y="509" style="font-family: 'Open Sans', verdana, arial, sans-serif; font-size: 12px; fill: rgb(42, 63, 95); fill-opacity: 1; white-space: pre; opacity: 1;" transform="translate(333.03,0)">40</text></g><g class="xtick"><text text-anchor="middle" x="0" y="509" style="font-family: 'Open Sans', verdana, arial, sans-serif; font-size: 12px; fill: rgb(42, 63, 95); fill-opacity: 1; white-space: pre; opacity: 1;" transform="translate(430.48,0)">60</text></g><g class="xtick"><text text-anchor="middle" x="0" y="509" style="font-family: 'Open Sans', verdana, arial, sans-serif; font-size: 12px; fill: rgb(42, 63, 95); fill-opacity: 1; white-space: pre; opacity: 1;" transform="translate(527.9300000000001,0)">80</text></g><g class="xtick"><text text-anchor="middle" x="0" y="509" style="font-family: 'Open Sans', verdana, arial, sans-serif; font-size: 12px; fill: rgb(42, 63, 95); fill-opacity: 1; white-space: pre; opacity: 1;" transform="translate(625.38,0)">100</text></g><g class="xtick"><text text-anchor="middle" x="0" y="509" style="font-family: 'Open Sans', verdana, arial, sans-serif; font-size: 12px; fill: rgb(42, 63, 95); fill-opacity: 1; white-space: pre; opacity: 1;" transform="translate(722.83,0)">120</text></g><g class="xtick"><text text-anchor="middle" x="0" y="509" style="font-family: 'Open Sans', verdana, arial, sans-serif; font-size: 12px; fill: rgb(42, 63, 95); fill-opacity: 1; white-space: pre; opacity: 1;" transform="translate(820.28,0)">140</text></g></g><g class="yaxislayer-above"><g class="ytick"><text text-anchor="end" x="142" y="4.199999999999999" transform="translate(0,449.37)" style="font-family: 'Open Sans', verdana, arial, sans-serif; font-size: 12px; fill: rgb(42, 63, 95); fill-opacity: 1; white-space: pre; opacity: 1;">40</text></g><g class="ytick"><text text-anchor="end" x="142" y="4.199999999999999" style="font-family: 'Open Sans', verdana, arial, sans-serif; font-size: 12px; fill: rgb(42, 63, 95); fill-opacity: 1; white-space: pre; opacity: 1;" transform="translate(0,382.95)">50</text></g><g class="ytick"><text text-anchor="end" x="142" y="4.199999999999999" style="font-family: 'Open Sans', verdana, arial, sans-serif; font-size: 12px; fill: rgb(42, 63, 95); fill-opacity: 1; white-space: pre; opacity: 1;" transform="translate(0,316.53)">60</text></g><g class="ytick"><text text-anchor="end" x="142" y="4.199999999999999" style="font-family: 'Open Sans', verdana, arial, sans-serif; font-size: 12px; fill: rgb(42, 63, 95); fill-opacity: 1; white-space: pre; opacity: 1;" transform="translate(0,250.11)">70</text></g><g class="ytick"><text text-anchor="end" x="142" y="4.199999999999999" style="font-family: 'Open Sans', verdana, arial, sans-serif; font-size: 12px; fill: rgb(42, 63, 95); fill-opacity: 1; white-space: pre; opacity: 1;" transform="translate(0,183.69)">80</text></g><g class="ytick"><text text-anchor="end" x="142" y="4.199999999999999" style="font-family: 'Open Sans', verdana, arial, sans-serif; font-size: 12px; fill: rgb(42, 63, 95); fill-opacity: 1; white-space: pre; opacity: 1;" transform="translate(0,117.28)">90</text></g></g><g class="overaxes-above"/></g></g><g class="polarlayer"/><g class="smithlayer"/><g class="ternarylayer"/><g class="geolayer"/><g class="funnelarealayer"/><g class="pielayer"/><g class="iciclelayer"/><g class="treemaplayer"/><g class="sunburstlayer"/><g class="glimages"/><defs id="topdefs-396dbc"><g class="clips"/><clipPath id="legend396dbc"><rect width="128" height="162" x="0" y="0"/></clipPath></defs><g class="layer-above"><g class="imagelayer"/><g class="shapelayer"/></g><g class="infolayer"><g class="legend" pointer-events="all" transform="translate(883.52,100)"><rect class="bg" shape-rendering="crispEdges" width="128" height="162" x="0" y="0" style="stroke: rgb(68, 68, 68); stroke-opacity: 1; fill: rgb(255, 255, 255); fill-opacity: 1; stroke-width: 0px;"/><g class="scrollbox" transform="" clip-path="url(#legend396dbc)"><g class="groups"><g class="traces" transform="translate(0,14.5)" style="opacity: 1;"><text class="legendtext" text-anchor="start" x="40" y="4.680000000000001" style="font-family: 'Open Sans', verdana, arial, sans-serif; font-size: 12px; fill: rgb(42, 63, 95); fill-opacity: 1; white-space: pre;">Train Accuracy</text><g class="layers" style="opacity: 1;"><g class="legendfill"/><g class="legendlines"><path class="js-line" d="M5,0h30" style="fill: none; stroke: rgb(255, 0, 0); stroke-opacity: 1; stroke-width: 2px;"/></g><g class="legendsymbols"><g class="legendpoints"/></g></g><rect class="legendtoggle" x="0" y="-9.5" width="122.71875" height="19" style="fill: rgb(0, 0, 0); fill-opacity: 0;"/></g><g class="traces" transform="translate(0,33.5)" style="opacity: 1;"><text class="legendtext" text-anchor="start" x="40" y="4.680000000000001" style="font-family: 'Open Sans', verdana, arial, sans-serif; font-size: 12px; fill: rgb(42, 63, 95); fill-opacity: 1; white-space: pre;">Test Accuracy</text><g class="layers" style="opacity: 1;"><g class="legendfill"/><g class="legendlines"><path class="js-line" d="M5,0h30" style="fill: none; stroke: rgb(0, 0, 255); stroke-opacity: 1; stroke-width: 2px;"/></g><g class="legendsymbols"><g class="legendpoints"/></g></g><rect class="legendtoggle" x="0" y="-9.5" width="122.71875" height="19" style="fill: rgb(0, 0, 0); fill-opacity: 0;"/></g><g class="traces" transform="translate(0,52.5)" style="opacity: 1;"><text class="legendtext" text-anchor="start" x="40" y="4.680000000000001" style="font-family: 'Open Sans', verdana, arial, sans-serif; font-size: 12px; fill: rgb(42, 63, 95); fill-opacity: 1; white-space: pre;">Train Precision</text><g class="layers" style="opacity: 1;"><g class="legendfill"/><g class="legendlines"><path class="js-line" d="M5,0h30" style="fill: none; stroke: rgb(0, 128, 0); stroke-opacity: 1; stroke-width: 2px;"/></g><g class="legendsymbols"><g class="legendpoints"/></g></g><rect class="legendtoggle" x="0" y="-9.5" width="122.71875" height="19" style="fill: rgb(0, 0, 0); fill-opacity: 0;"/></g><g class="traces" transform="translate(0,71.5)" style="opacity: 1;"><text class="legendtext" text-anchor="start" x="40" y="4.680000000000001" style="font-family: 'Open Sans', verdana, arial, sans-serif; font-size: 12px; fill: rgb(42, 63, 95); fill-opacity: 1; white-space: pre;">Test Precision</text><g class="layers" style="opacity: 1;"><g class="legendfill"/><g class="legendlines"><path class="js-line" d="M5,0h30" style="fill: none; stroke: rgb(255, 165, 0); stroke-opacity: 1; stroke-width: 2px;"/></g><g class="legendsymbols"><g class="legendpoints"/></g></g><rect class="legendtoggle" x="0" y="-9.5" width="122.71875" height="19" style="fill: rgb(0, 0, 0); fill-opacity: 0;"/></g><g class="traces" transform="translate(0,90.5)" style="opacity: 1;"><text class="legendtext" text-anchor="start" x="40" y="4.680000000000001" style="font-family: 'Open Sans', verdana, arial, sans-serif; font-size: 12px; fill: rgb(42, 63, 95); fill-opacity: 1; white-space: pre;">Train Recall</text><g class="layers" style="opacity: 1;"><g class="legendfill"/><g class="legendlines"><path class="js-line" d="M5,0h30" style="fill: none; stroke: rgb(128, 0, 128); stroke-opacity: 1; stroke-width: 2px;"/></g><g class="legendsymbols"><g class="legendpoints"/></g></g><rect class="legendtoggle" x="0" y="-9.5" width="122.71875" height="19" style="fill: rgb(0, 0, 0); fill-opacity: 0;"/></g><g class="traces" transform="translate(0,109.5)" style="opacity: 1;"><text class="legendtext" text-anchor="start" x="40" y="4.680000000000001" style="font-family: 'Open Sans', verdana, arial, sans-serif; font-size: 12px; fill: rgb(42, 63, 95); fill-opacity: 1; white-space: pre;">Test Recall</text><g class="layers" style="opacity: 1;"><g class="legendfill"/><g class="legendlines"><path class="js-line" d="M5,0h30" style="fill: none; stroke: rgb(255, 192, 203); stroke-opacity: 1; stroke-width: 2px;"/></g><g class="legendsymbols"><g class="legendpoints"/></g></g><rect class="legendtoggle" x="0" y="-9.5" width="122.71875" height="19" style="fill: rgb(0, 0, 0); fill-opacity: 0;"/></g><g class="traces" transform="translate(0,128.5)" style="opacity: 1;"><text class="legendtext" text-anchor="start" x="40" y="4.680000000000001" style="font-family: 'Open Sans', verdana, arial, sans-serif; font-size: 12px; fill: rgb(42, 63, 95); fill-opacity: 1; white-space: pre;">Train F1</text><g class="layers" style="opacity: 1;"><g class="legendfill"/><g class="legendlines"><path class="js-line" d="M5,0h30" style="fill: none; stroke: rgb(165, 42, 42); stroke-opacity: 1; stroke-width: 2px;"/></g><g class="legendsymbols"><g class="legendpoints"/></g></g><rect class="legendtoggle" x="0" y="-9.5" width="122.71875" height="19" style="fill: rgb(0, 0, 0); fill-opacity: 0;"/></g><g class="traces" transform="translate(0,147.5)" style="opacity: 1;"><text class="legendtext" text-anchor="start" x="40" y="4.680000000000001" style="font-family: 'Open Sans', verdana, arial, sans-serif; font-size: 12px; fill: rgb(42, 63, 95); fill-opacity: 1; white-space: pre;">Test F1</text><g class="layers" style="opacity: 1;"><g class="legendfill"/><g class="legendlines"><path class="js-line" d="M5,0h30" style="fill: none; stroke: rgb(128, 128, 128); stroke-opacity: 1; stroke-width: 2px;"/></g><g class="legendsymbols"><g class="legendpoints"/></g></g><rect class="legendtoggle" x="0" y="-9.5" width="122.71875" height="19" style="fill: rgb(0, 0, 0); fill-opacity: 0;"/></g></g></g><rect class="scrollbar" rx="20" ry="3" width="0" height="0" x="0" y="0" style="fill: rgb(128, 139, 164); fill-opacity: 1;"/></g><g class="g-gtitle"><text class="gtitle" x="51.2" y="50" text-anchor="start" dy="0em" style="font-family: 'Open Sans', verdana, arial, sans-serif; font-size: 17px; fill: rgb(42, 63, 95); opacity: 1; font-weight: normal; white-space: pre;">Training Metrics - logs/FakeNewsNet-politifact_max-vocab=15000_pre=v1_text_domain_T=200_s=15.log</text></g><g class="g-xtitle"><text class="xtitle" x="506" y="537.3" text-anchor="middle" style="font-family: 'Open Sans', verdana, arial, sans-serif; font-size: 14px; fill: rgb(42, 63, 95); opacity: 1; font-weight: normal; white-space: pre;">Epoch</text></g><g class="g-ytitle"><text class="ytitle" transform="rotate(-90,103.965625,298)" x="103.965625" y="298" text-anchor="middle" style="font-family: 'Open Sans', verdana, arial, sans-serif; font-size: 14px; fill: rgb(42, 63, 95); opacity: 1; font-weight: normal; white-space: pre;">Metric Score</text></g></g><g class="menulayer"><g class="updatemenu-container" style="cursor: pointer;"><g class="updatemenu-header-group" transform="translate(12,60)"><g class="updatemenu-header" transform="translate(1,1)" style="pointer-events: all;"><rect class="updatemenu-item-rect" rx="2" ry="2" shape-rendering="crispEdges" x="0" y="0" width="167" height="33" style="stroke: rgb(190, 200, 217); stroke-opacity: 1; fill: rgb(255, 255, 255); fill-opacity: 1; stroke-width: 1px;"/><text class="updatemenu-item-text" text-anchor="start" data-notex="1" x="12" y="19.5" style="font-family: 'Open Sans', verdana, arial, sans-serif; font-size: 12px; fill: rgb(42, 63, 95); fill-opacity: 1; white-space: pre;">All</text></g><text class="updatemenu-header-arrow" text-anchor="end" x="163" y="19.5" style="font-family: 'Open Sans', verdana, arial, sans-serif; font-size: 12px; fill: rgb(42, 63, 95); fill-opacity: 1;">▼</text></g><g class="updatemenu-dropdown-button-group" updatemenu-active-index="-1" style="pointer-events: all;"><rect class="scrollbox-bg" opacity="0" x="0" y="0" width="0" height="0" style="pointer-events: all;"/></g></g></g></svg>