<svg class="main-svg" xmlns="http://www.w3.org/2000/svg" xmlns:xlink="http://www.w3.org/1999/xlink" width="1024" height="576" style="" viewBox="0 0 1024 576"><rect x="0" y="0" width="1024" height="576" style="fill: rgb(255, 255, 255); fill-opacity: 1;"/><defs id="defs-e988d9"><g class="clips"><clipPath id="clipe988d9xyplot" class="plotclip"><rect width="726" height="396"/></clipPath><clipPath class="axesclip" id="clipe988d9x"><rect x="143" y="0" width="726" height="576"/></clipPath><clipPath class="axesclip" id="clipe988d9y"><rect x="0" y="100" width="1024" height="396"/></clipPath><clipPath class="axesclip" id="clipe988d9xy"><rect x="143" y="100" width="726" height="396"/></clipPath></g><g class="gradients"/><g class="patterns"/></defs><g class="bglayer"><rect class="bg" x="143" y="100" width="726" height="396" style="fill: rgb(229, 236, 246); fill-opacity: 1; stroke-width: 0;"/></g><g class="layer-below"><g class="imagelayer"/><g class="shapelayer"/></g><g class="cartesianlayer"><g class="subplot xy"><g class="layer-subplot"><g class="shapelayer"/><g class="imagelayer"/></g><g class="minor-gridlayer"><g class="x"/><g class="y"/></g><g class="gridlayer"><g class="x"><path class="xgrid crisp" transform="translate(235.57999999999998,0)" d="M0,100v396" style="stroke: rgb(255, 255, 255); stroke-opacity: 1; stroke-width: 1px;"/><path class="xgrid crisp" transform="translate(333.03,0)" d="M0,100v396" style="stroke: rgb(255, 255, 255); stroke-opacity: 1; stroke-width: 1px;"/><path class="xgrid crisp" transform="translate(430.48,0)" d="M0,100v396" style="stroke: rgb(255, 255, 255); stroke-opacity: 1; stroke-width: 1px;"/><path class="xgrid crisp" transform="translate(527.9300000000001,0)" d="M0,100v396" style="stroke: rgb(255, 255, 255); stroke-opacity: 1; stroke-width: 1px;"/><path class="xgrid crisp" transform="translate(625.38,0)" d="M0,100v396" style="stroke: rgb(255, 255, 255); stroke-opacity: 1; stroke-width: 1px;"/><path class="xgrid crisp" transform="translate(722.83,0)" d="M0,100v396" style="stroke: rgb(255, 255, 255); stroke-opacity: 1; stroke-width: 1px;"/><path class="xgrid crisp" transform="translate(820.28,0)" d="M0,100v396" style="stroke: rgb(255, 255, 255); stroke-opacity: 1; stroke-width: 1px;"/></g><g class="y"><path class="ygrid crisp" transform="translate(0,492.93)" d="M143,0h726" style="stroke: rgb(255, 255, 255); stroke-opacity: 1; stroke-width: 1px;"/><path class="ygrid crisp" transform="translate(0,447.46)" d="M143,0h726" style="stroke: rgb(255, 255, 255); stroke-opacity: 1; stroke-width: 1px;"/><path class="ygrid crisp" transform="translate(0,401.99)" d="M143,0h726" style="stroke: rgb(255, 255, 255); stroke-opacity: 1; stroke-width: 1px;"/><path class="ygrid crisp" transform="translate(0,356.52)" d="M143,0h726" style="stroke: rgb(255, 255, 255); stroke-opacity: 1; stroke-width: 1px;"/><path class="ygrid crisp" transform="translate(0,311.05)" d="M143,0h726" style="stroke: rgb(255, 255, 255); stroke-opacity: 1; stroke-width: 1px;"/><path class="ygrid crisp" transform="translate(0,265.58000000000004)" d="M143,0h726" style="stroke: rgb(255, 255, 255); stroke-opacity: 1; stroke-width: 1px;"/><path class="ygrid crisp" transform="translate(0,220.11)" d="M143,0h726" style="stroke: rgb(255, 255, 255); stroke-opacity: 1; stroke-width: 1px;"/><path class="ygrid crisp" transform="translate(0,174.64)" d="M143,0h726" style="stroke: rgb(255, 255, 255); stroke-opacity: 1; stroke-width: 1px;"/><path class="ygrid crisp" transform="translate(0,129.17000000000002)" d="M143,0h726" style="stroke: rgb(255, 255, 255); stroke-opacity: 1; stroke-width: 1px;"/></g></g><g class="zerolinelayer"/><path class="xlines-below"/><path class="ylines-below"/><g class="overlines-below"/><g class="xaxislayer-below"/><g class="yaxislayer-below"/><g class="overaxes-below"/><g class="plot" transform="translate(143,100)" clip-path="url(#clipe988d9xyplot)"><g class="scatterlayer mlayer"><g class="trace scatter trace4439e2" style="stroke-miterlimit: 2; opacity: 1;"><g class="fills"/><g class="errorbars"/><g class="lines"><path class="js-line" d="M0,158.67L4.87,122.02L9.74,132.84L14.62,133.93L19.49,125.29L24.36,109.1L29.23,114.47L34.11,112.38L38.98,122.02L43.85,109.1L48.72,110.2L53.6,99.46L58.47,109.1L63.34,284.71L68.21,283.71L73.09,292.26L77.96,278.26L82.83,268.62L87.7,240.61L92.58,224.42L97.45,214.69L102.32,213.6L107.19,209.32L112.07,214.69L116.94,82.19L121.81,88.64L126.68,85.37L131.56,86.46L136.43,69.27L141.3,69.27L146.17,81.09L151.05,94.01L155.92,85.37L160.79,85.37L165.66,75.73L170.54,77.91L175.41,78.91L180.28,81.09L185.15,72.46L190.03,72.46L194.9,83.28L199.77,82.19L204.64,77.91L209.52,71.36L214.39,71.36L219.26,67.09L224.13,56.36L229.01,80L233.88,74.64L238.75,76.82L243.62,62.82L248.5,67.09L253.37,73.55L258.24,69.27L263.11,63.91L267.99,70.36L272.86,72.46L277.73,81.09L282.6,83.28L287.48,81.09L292.35,76.82L297.22,81.09L302.09,75.73L306.97,62.82L311.84,66L316.71,60.63L321.58,62.82L326.46,59.54L331.33,66L336.2,59.54L341.07,61.72L345.95,59.54L350.82,62.82L355.69,59.54L360.56,58.45L370.31,62.82L375.18,62.82L380.05,57.36L384.93,64.91L389.8,64.91L394.67,66L399.54,71.36L404.42,69.27L409.29,68.18L414.16,69.27L419.03,69.27L423.91,63.91L428.78,68.18L433.65,69.27L438.52,57.36L443.4,60.63L448.27,54.18L453.14,173.76L458.01,208.23L462.89,206.05L467.76,206.05L472.63,209.32L477.5,203.96L482.38,175.95L487.25,48.81L492.12,43.35L496.99,42.35L501.87,42.35L506.74,29.35L511.61,41.26L516.48,36.9L521.36,43.35L526.23,43.35L531.1,46.63L535.97,33.71L540.85,35.81L545.72,42.35L550.59,40.17L555.46,41.26L560.34,45.54L565.21,40.17L570.08,44.45L574.95,46.63L579.83,41.26L584.7,46.63L589.57,44.45L594.44,53.08L599.32,57.36L604.19,49.81L609.06,47.72L613.93,46.63L618.81,56.36L628.55,54.18L633.42,50.9L638.3,57.36L643.17,50.9L648.04,55.27L652.91,54.18L657.79,57.36L662.66,48.81L667.53,51.99L672.4,53.08L677.28,49.81L682.15,55.27L687.02,56.36L691.89,58.45L696.77,160.85L701.64,152.21L706.51,153.3L711.38,151.12L716.26,151.12L721.13,154.39L726,47.72" style="vector-effect: none; fill: none; stroke: rgb(255, 0, 0); stroke-opacity: 1; stroke-width: 2px; opacity: 1;"/></g><g class="points"/><g class="text"/></g><g class="trace scatter trace6b6b70" style="stroke-miterlimit: 2; opacity: 1;"><g class="fills"/><g class="errorbars"/><g class="lines"><path class="js-line" d="M0,220.51L4.87,190.5L9.74,186.13L14.62,207.59L19.49,186.13L24.36,203.32L29.23,181.86L34.11,194.77L38.98,199.05L43.85,190.5L48.72,216.23L53.6,177.58L58.47,177.58L63.34,336.28L68.21,336.28L73.09,340.64L77.96,327.73L82.83,332L87.7,293.44L92.58,293.44L97.45,289.08L102.32,289.08L107.19,280.53L112.07,284.8L116.94,164.76L126.68,130.38L131.56,143.3L136.43,139.02L141.3,130.38L146.17,151.85L151.05,181.86L155.92,169.04L160.79,181.86L165.66,164.76L170.54,156.12L175.41,169.04L180.28,186.13L185.15,181.86L190.03,173.31L194.9,186.13L199.77,173.31L204.64,160.4L209.52,156.12L214.39,160.4L219.26,147.57L224.13,143.3L229.01,164.76L233.88,151.85L238.75,143.3L243.62,134.66L248.5,143.3L253.37,147.57L258.24,147.57L263.11,147.57L267.99,160.4L272.86,156.12L277.73,164.76L282.6,139.02L287.48,147.57L306.97,147.57L311.84,139.02L321.58,139.02L326.46,143.3L331.33,164.76L336.2,151.85L341.07,160.4L345.95,160.4L355.69,151.85L360.56,143.3L365.44,130.38L370.31,134.66L375.18,139.02L380.05,147.57L384.93,139.02L389.8,139.02L394.67,134.66L399.54,139.02L404.42,134.66L409.29,134.66L414.16,139.02L419.03,139.02L423.91,134.66L428.78,134.66L433.65,134.66L438.52,126.11L443.4,130.38L448.27,126.11L453.14,280.53L458.01,271.98L462.89,280.53L467.76,276.26L472.63,276.26L477.5,280.53L482.38,276.26L487.25,156.12L496.99,147.57L501.87,126.11L506.74,108.92L511.61,126.11L516.48,130.38L521.36,130.38L526.23,121.84L531.1,117.56L535.97,117.56L540.85,134.66L545.72,126.11L550.59,126.11L555.46,130.38L560.34,139.02L565.21,134.66L570.08,126.11L574.95,134.66L579.83,134.66L584.7,147.57L589.57,139.02L594.44,130.38L599.32,130.38L604.19,126.11L609.06,126.11L613.93,117.56L618.81,126.11L623.68,130.38L628.55,130.38L633.42,121.84L638.3,134.66L648.04,126.11L652.91,130.38L662.66,130.38L667.53,134.66L672.4,126.11L677.28,113.29L687.02,121.84L691.89,121.84L696.77,259.07L701.64,254.79L716.26,254.79L721.13,267.71L726,130.38" style="vector-effect: none; fill: none; stroke: rgb(0, 0, 255); stroke-opacity: 1; stroke-width: 2px; opacity: 1;"/></g><g class="points"/><g class="text"/></g><g class="trace scatter trace931107" style="stroke-miterlimit: 2; opacity: 1;"><g class="fills"/><g class="errorbars"/><g class="lines"><path class="js-line" d="M0,124.75L4.87,101.28L9.74,103.92L19.49,90.01L24.36,82.28L29.23,90.01L34.11,84.46L38.98,88.92L43.85,79.73L48.72,83L53.6,78.28L58.47,88.64L63.34,114.56L68.21,114.02L73.09,123.02L77.96,126.75L82.83,127.57L87.7,119.84L92.58,119.74L97.45,123.75L102.32,123.11L107.19,122.29L112.07,132.11L116.94,65.63L121.81,72.27L126.68,69.27L131.56,72.09L136.43,61.27L141.3,61.82L146.17,75L151.05,81.37L155.92,75.64L160.79,75.64L165.66,66.63L170.54,69.36L180.28,70.64L185.15,65.82L190.03,66.82L194.9,75.09L204.64,69.91L209.52,64.45L214.39,64.45L219.26,61.18L224.13,52.72L229.01,72.64L233.88,66.36L238.75,69.64L243.62,59.63L248.5,63.54L253.37,69.09L258.24,63.36L263.11,58.18L267.99,62.09L272.86,64.27L277.73,72.91L282.6,89.19L287.48,87.01L292.35,82.73L297.22,87.01L302.09,81.64L306.97,56.81L311.84,61.27L316.71,55.63L321.58,57.81L326.46,55.72L331.33,59.81L336.2,55.72L341.07,57L345.95,55.27L350.82,56.81L355.69,54.36L360.56,53.54L365.44,53.63L370.31,55.81L375.18,55.27L380.05,50.63L384.93,70.27L389.8,70.27L394.67,71.64L399.54,76.73L404.42,74.64L409.29,73.64L414.16,74.55L419.03,74.55L423.91,69.36L428.78,73.36L433.65,74.46L438.52,48.99L443.4,53.08L448.27,46.63L453.14,104.92L458.01,114.65L462.89,115.2L472.63,118.84L477.5,117.47L482.38,114.38L487.25,43.54L492.12,39.35L496.99,37.53L501.87,37.08L506.74,26.89L511.61,36.72L516.48,33.81L521.36,39.35L526.23,39.35L531.1,42.35L535.97,30.26L540.85,31.99L545.72,37.53L555.46,35.17L560.34,42.35L565.21,35.9L570.08,39.17L574.95,41.35L579.83,36.72L584.7,40.35L589.57,39.17L594.44,46.35L599.32,48.99L604.19,41.72L609.06,37.81L613.93,38.17L618.81,45.9L628.55,44.9L633.42,43.08L638.3,49.63L643.17,43.63L648.04,48.99L652.91,48.17L657.79,50.63L662.66,43.54L667.53,46.99L672.4,44.72L677.28,40.53L682.15,46.9L687.02,48.26L691.89,50.9L696.77,110.01L701.64,104.74L706.51,106.47L711.38,102.92L716.26,99.56L721.13,103.83L726,41.17" style="vector-effect: none; fill: none; stroke: rgb(0, 128, 0); stroke-opacity: 1; stroke-width: 2px; opacity: 1;"/></g><g class="points"/><g class="text"/></g><g class="trace scatter trace315a9f" style="stroke-miterlimit: 2; opacity: 1;"><g class="fills"/><g class="errorbars"/><g class="lines"><path class="js-line" d="M0,189.13L4.87,172.31L9.74,163.31L14.62,173.86L19.49,153.12L24.36,167.49L29.23,157.3L34.11,168.94L38.98,171.76L43.85,169.31L48.72,189.5L53.6,163.67L58.47,160.76L63.34,156.03L68.21,156.03L73.09,158.67L77.96,165.4L82.83,180.86L87.7,165.85L92.58,195.95L97.45,199.14L102.32,199.14L107.19,193.32L112.07,196.23L116.94,149.21L121.81,137.57L126.68,123.02L131.56,134.57L136.43,136.66L141.3,130.38L146.17,152.94L151.05,172.04L155.92,157.76L160.79,172.04L165.66,160.03L170.54,153.85L175.41,163.03L180.28,177.67L185.15,179.58L190.03,170.94L194.9,180.22L199.77,168.58L204.64,161.58L209.52,153.85L214.39,159.3L219.26,149.76L224.13,146.57L229.01,157.49L233.88,150.66L243.62,137.93L248.5,144.39L253.37,149.76L258.24,149.76L263.11,149.76L267.99,161.58L272.86,156.12L277.73,160.03L282.6,157.67L287.48,166.67L302.09,166.67L306.97,149.76L311.84,145.3L316.71,145.3L321.58,145.3L326.46,146.57L331.33,164.76L336.2,155.12L341.07,161.58L345.95,161.58L355.69,155.12L360.56,148.57L365.44,134.66L370.31,137.93L375.18,141.21L380.05,151.85L384.93,157.67L389.8,157.67L394.67,153.76L399.54,157.67L404.42,153.76L409.29,153.76L414.16,157.67L419.03,158.85L423.91,153.76L428.78,153.76L433.65,152.67L438.52,127.2L443.4,132.57L448.27,124.93L453.14,213.6L458.01,193.23L462.89,198.86L467.76,190.5L472.63,190.5L477.5,204.14L482.38,214.96L487.25,153.85L496.99,147.57L501.87,129.38L506.74,114.2L511.61,127.2L516.48,132.57L521.36,130.38L526.23,126.11L531.1,120.75L535.97,120.75L540.85,137.93L545.72,127.2L550.59,129.38L555.46,132.57L560.34,143.3L565.21,137.93L570.08,124.93L574.95,131.11L579.83,131.11L584.7,137.57L589.57,134.2L594.44,123.02L599.32,125.66L604.19,122.56L609.06,122.56L613.93,116.38L618.81,122.56L623.68,128.11L628.55,128.11L633.42,121.84L638.3,135.84L648.04,129.38L652.91,132.57L662.66,132.57L667.53,135.84L672.4,127.2L677.28,113.29L687.02,124.02L691.89,121.84L696.77,199.14L701.64,200.5L706.51,196.32L711.38,196.32L716.26,196.32L721.13,209.14L726,128.11" style="vector-effect: none; fill: none; stroke: rgb(255, 165, 0); stroke-opacity: 1; stroke-width: 2px; opacity: 1;"/></g><g class="points"/><g class="text"/></g><g class="trace scatter trace441f55" style="stroke-miterlimit: 2; opacity: 1;"><g class="fills"/><g class="errorbars"/><g class="lines"><path class="js-line" d="M0,134.02L4.87,103.19L9.74,110.29L14.62,108.38L19.49,100.28L24.36,87.37L29.23,93.83L34.11,90.19L38.98,97.83L43.85,86.37L48.72,88.37L53.6,80.09L58.47,90.28L63.34,225.78L68.21,224.87L73.09,232.69L77.96,221.69L82.83,214.05L87.7,190.95L92.58,178.49L97.45,171.95L102.32,171.04L107.19,167.67L112.07,173.67L116.94,64.91L121.81,71.55L126.68,68.45L131.56,70.36L136.43,56.63L141.3,57L146.17,70L151.05,79L155.92,72L160.79,72L165.66,62.54L170.54,65.09L175.41,65.73L180.28,67.18L185.15,60.81L190.03,61.54L194.9,70.82L199.77,68.82L204.64,65.45L209.52,59.54L214.39,59.54L219.26,55.81L224.13,46.54L229.01,68.09L233.88,62L238.75,64.91L243.62,53.54L248.5,57.63L253.37,63.54L263.11,52.72L267.99,57.54L272.86,59.81L277.73,68.64L282.6,87.19L287.48,85.01L292.35,81.28L297.22,85.01L302.09,80L306.97,51.45L311.84,55.63L316.71,49.9L321.58,52.18L326.46,49.72L331.33,54.54L336.2,49.72L341.07,51.17L345.95,49.36L350.82,51.45L355.69,48.63L360.56,47.72L365.44,48.45L370.31,50.72L375.18,50.36L380.05,45.35L384.93,67.18L389.8,67.18L394.67,69.55L399.54,73.46L404.42,71.64L409.29,70.64L414.16,71.27L419.03,71.27L423.91,66.63L428.78,70L433.65,70.91L438.52,44.26L443.4,48.17L448.27,41.54L453.14,137.75L458.01,165.31L462.89,163.76L467.76,164.12L472.63,166.94L477.5,162.67L482.38,141.75L487.25,37.53L492.12,32.9L496.99,31.26L501.87,30.89L506.74,19.8L511.61,30.35L516.48,26.98L521.36,32.9L526.23,32.9L531.1,36.08L535.97,23.53L540.85,25.35L545.72,31.26L550.59,29.8L555.46,29.26L560.34,35.9L565.21,29.44L570.08,33.17L574.95,35.35L579.83,30.35L584.7,34.62L589.57,33.17L594.44,40.9L599.32,44.26L604.19,36.72L609.06,33.44L613.93,33.26L618.81,41.9L628.55,40.44L633.42,37.99L638.3,44.63L643.17,38.35L648.04,43.54L652.91,42.54L657.79,45.35L662.66,37.53L667.53,41.08L672.4,39.9L677.28,35.99L682.15,42.08L687.02,43.35L691.89,45.9L696.77,130.2L701.64,122.75L706.51,124.02L711.38,121.47L716.26,120.38L721.13,123.84L726,35.53" style="vector-effect: none; fill: none; stroke: rgb(128, 0, 128); stroke-opacity: 1; stroke-width: 2px; opacity: 1;"/></g><g class="points"/><g class="text"/></g><g class="trace scatter trace768b70" style="stroke-miterlimit: 2; opacity: 1;"><g class="fills"/><g class="errorbars"/><g class="lines"><path class="js-line" d="M0,186.31L4.87,165.03L9.74,156.76L14.62,171.31L19.49,149.48L24.36,165.49L29.23,150.94L34.11,163.58L38.98,166.94L43.85,162.58L48.72,185.4L53.6,154.85L58.47,152.39L63.34,238.97L68.21,238.97L73.09,242.42L77.96,234.6L82.83,240.52L87.7,212.41L92.58,222.14L97.45,221.14L102.32,221.14L107.19,214.41L112.07,217.78L116.94,139.84L121.81,126.2L126.68,110.2L131.56,122.84L136.43,124.29L141.3,117.56L146.17,141.84L151.05,163.12L155.92,148.12L160.79,163.12L165.66,149.57L170.54,142.75L175.41,152.94L180.28,168.94L185.15,170.4L190.03,161.21L194.9,171.4L199.77,158.76L204.64,151.03L209.52,142.75L214.39,148.57L219.26,138.39L224.13,135.02L229.01,147.12L233.88,139.39L243.62,125.84L248.5,132.57L253.37,138.39L258.24,138.39L263.11,138.39L267.99,151.03L272.86,145.21L277.73,149.57L282.6,153.58L287.48,162.76L302.09,162.76L306.97,138.39L311.84,134.02L316.71,134.02L321.58,134.02L326.46,135.02L331.33,154.39L336.2,144.21L341.07,151.03L345.95,151.03L355.69,144.21L360.56,137.48L365.44,122.38L370.31,125.84L375.18,129.2L380.05,140.84L384.93,153.58L389.8,153.58L394.67,150.12L399.54,153.58L404.42,150.12L409.29,150.12L414.16,153.58L419.03,156.03L423.91,150.12L428.78,150.12L433.65,147.75L438.52,114.11L443.4,119.93L448.27,111.74L453.14,224.15L458.01,210.05L462.89,216.78L467.76,210.96L472.63,210.96L477.5,219.23L482.38,223.15L487.25,142.75L496.99,136.02L501.87,116.56L506.74,100.56L511.61,114.11L516.48,119.93L521.36,117.56L526.23,113.2L531.1,107.38L535.97,107.38L540.85,125.84L545.72,114.11L550.59,116.56L555.46,119.93L560.34,131.66L565.21,125.84L570.08,111.74L574.95,118.47L579.83,118.47L584.7,126.2L589.57,121.93L594.44,110.2L599.32,112.65L604.19,109.29L609.06,109.29L613.93,102.47L618.81,109.29L623.68,115.11L628.55,115.11L633.42,108.29L638.3,123.38L648.04,116.56L652.91,119.93L662.66,119.93L667.53,123.38L672.4,114.11L677.28,99.1L687.02,110.74L691.89,108.29L696.77,207.14L701.64,206.23L706.51,203.77L711.38,203.77L716.26,203.77L721.13,216.42L726,115.11" style="vector-effect: none; fill: none; stroke: rgb(255, 192, 203); stroke-opacity: 1; stroke-width: 2px; opacity: 1;"/></g><g class="points"/><g class="text"/></g><g class="trace scatter trace8fa0f8" style="stroke-miterlimit: 2; opacity: 1;"><g class="fills"/><g class="errorbars"/><g class="lines"><path class="js-line" d="M0,159.76L4.87,122.11L9.74,133.3L14.62,134.93L19.49,126.11L24.36,109.38L29.23,114.65L34.11,112.65L38.98,122.65L43.85,109.47L48.72,110.47L53.6,99.46L58.47,109.1L63.34,330.64L68.21,329L73.09,341.01L77.96,318.27L82.83,303.36L87.7,264.25L92.58,241.97L97.45,228.24L102.32,226.96L107.19,221.42L112.07,226.51L116.94,82.19L121.81,88.64L126.68,85.46L131.56,86.55L136.43,69.55L141.3,69.64L146.17,81.64L151.05,94.1L155.92,85.64L160.79,85.64L165.66,76L170.54,78.18L175.41,79.18L180.28,81.28L185.15,72.91L190.03,73L194.9,83.55L199.77,82.37L204.64,78.18L209.52,71.82L214.39,71.82L219.26,67.64L224.13,57.09L229.01,80.37L233.88,74.91L238.75,77.18L243.62,63.63L248.5,67.91L253.37,74.27L263.11,64.36L267.99,70.64L272.86,72.82L277.73,81.46L282.6,88.37L287.48,86.19L292.35,82.09L297.22,86.19L302.09,80.91L306.97,63.27L311.84,66.63L316.71,61.18L321.58,63.36L326.46,60.27L331.33,66.45L336.2,60.27L341.07,62.36L345.95,60.18L350.82,63.27L355.69,60.09L360.56,59.09L365.44,61L370.31,63.18L375.18,63.18L380.05,57.81L384.93,69.09L389.8,69.09L394.67,70.73L399.54,75.55L404.42,73.55L409.29,72.55L414.16,73.36L419.03,73.36L423.91,68.27L428.78,72.18L433.65,73.27L438.52,57.72L443.4,61L448.27,54.54L453.14,179.95L458.01,221.51L462.89,218.6L467.76,218.33L472.63,222.14L477.5,215.42L482.38,181.13L487.25,49.27L492.12,43.99L496.99,42.9L501.87,42.81L506.74,30.17L511.61,41.81L516.48,37.62L521.36,43.99L526.23,43.99L531.1,47.26L535.97,34.35L540.85,36.44L545.72,42.9L550.59,40.81L555.46,41.72L560.34,46.26L565.21,40.72L570.08,44.99L574.95,47.17L579.83,41.81L584.7,47.08L589.57,44.99L594.44,53.45L599.32,57.72L604.19,50.17L609.06,47.9L613.93,46.9L618.81,56.45L628.55,54.36L633.42,51.27L638.3,57.72L643.17,51.27L648.04,55.72L652.91,54.63L657.79,57.81L662.66,49.27L667.53,52.54L672.4,53.36L677.28,50.08L682.15,55.54L687.02,56.63L691.89,58.81L696.77,163.94L701.64,154.67L706.51,155.67L711.38,153.67L716.26,154.03L721.13,157.21L726,48.08" style="vector-effect: none; fill: none; stroke: rgb(165, 42, 42); stroke-opacity: 1; stroke-width: 2px; opacity: 1;"/></g><g class="points"/><g class="text"/></g><g class="trace scatter trace93b60f" style="stroke-miterlimit: 2; opacity: 1;"><g class="fills"/><g class="errorbars"/><g class="lines"><path class="js-line" d="M0,220.69L4.87,191.95L9.74,187.04L14.62,207.78L19.49,186.31L24.36,203.41L29.23,182.59L34.11,195.41L38.98,199.5L43.85,191.59L48.72,216.69L53.6,179.77L58.47,179.22L63.34,370.2L68.21,370.2L73.09,376.2L77.96,356.01L82.83,359.38L87.7,308.27L97.45,296.44L102.32,296.44L107.19,286.62L112.07,291.53L116.94,166.58L121.81,150.3L126.68,133.48L131.56,146.21L136.43,143.48L141.3,135.39L146.17,157.67L151.05,184.86L155.92,171.58L160.79,184.86L165.66,168.85L170.54,160.85L175.41,172.85L180.28,189.5L185.15,186.95L190.03,178.31L194.9,190.22L199.77,177.49L204.64,166.4L209.52,160.85L214.39,165.58L219.26,153.67L224.13,149.76L229.01,168.22L233.88,156.85L238.75,148.94L243.62,140.93L248.5,148.94L253.37,153.67L258.24,153.67L263.11,153.67L267.99,166.4L272.86,161.67L277.73,168.85L282.6,156.12L287.48,165.22L302.09,165.22L306.97,153.67L311.84,146.66L316.71,146.66L321.58,146.66L326.46,149.76L331.33,170.4L336.2,158.49L341.07,166.4L345.95,166.4L355.69,158.49L360.56,150.66L365.44,137.02L370.31,140.93L375.18,144.94L380.05,154.58L384.93,156.12L389.8,156.12L394.67,152.39L399.54,156.12L404.42,152.39L409.29,152.39L414.16,156.12L419.03,157.67L423.91,152.39L428.78,152.39L433.65,150.94L438.52,131.48L443.4,136.21L448.27,130.75L453.14,283.35L458.01,276.16L462.89,285.71L467.76,281.8L472.63,281.8L477.5,284.8L482.38,278.16L487.25,160.85L496.99,152.94L501.87,132.2L506.74,115.47L511.61,131.48L516.48,136.21L521.36,135.39L526.23,128.2L531.1,123.47L535.97,123.47L540.85,140.93L545.72,131.48L550.59,132.2L555.46,136.21L560.34,145.75L565.21,140.93L570.08,130.75L574.95,138.75L579.83,138.75L584.7,150.3L589.57,142.75L594.44,133.48L599.32,134.11L604.19,130.02L609.06,130.02L613.93,122.02L618.81,130.02L623.68,134.75L628.55,134.75L633.42,126.66L638.3,140.21L648.04,132.2L652.91,136.21L662.66,136.21L667.53,140.21L672.4,131.48L677.28,117.93L687.02,127.47L691.89,126.66L696.77,260.43L701.64,255.52L716.26,255.88L721.13,269.07L726,134.75" style="vector-effect: none; fill: none; stroke: rgb(128, 128, 128); stroke-opacity: 1; stroke-width: 2px; opacity: 1;"/></g><g class="points"/><g class="text"/></g></g></g><g class="overplot"/><path class="xlines-above crisp" d="M0,0" style="fill: none;"/><path class="ylines-above crisp" d="M0,0" style="fill: none;"/><g class="overlines-above"/><g class="xaxislayer-above"><g class="xtick"><text text-anchor="middle" x="0" y="509" transform="translate(235.57999999999998,0)" style="font-family: 'Open Sans', verdana, arial, sans-serif; font-size: 12px; fill: rgb(42, 63, 95); fill-opacity: 1; white-space: pre; opacity: 1;">20</text></g><g class="xtick"><text text-anchor="middle" x="0" y="509" style="font-family: 'Open Sans', verdana, arial, sans-serif; font-size: 12px; fill: rgb(42, 63, 95); fill-opacity: 1; white-space: pre; opacity: 1;" transform="translate(333.03,0)">40</text></g><g class="xtick"><text text-anchor="middle" x="0" y="509" style="font-family: 'Open Sans', verdana, arial, sans-serif; font-size: 12px; fill: rgb(42, 63, 95); fill-opacity: 1; white-space: pre; opacity: 1;" transform="translate(430.48,0)">60</text></g><g class="xtick"><text text-anchor="middle" x="0" y="509" style="font-family: 'Open Sans', verdana, arial, sans-serif; font-size: 12px; fill: rgb(42, 63, 95); fill-opacity: 1; white-space: pre; opacity: 1;" transform="translate(527.9300000000001,0)">80</text></g><g class="xtick"><text text-anchor="middle" x="0" y="509" style="font-family: 'Open Sans', verdana, arial, sans-serif; font-size: 12px; fill: rgb(42, 63, 95); fill-opacity: 1; white-space: pre; opacity: 1;" transform="translate(625.38,0)">100</text></g><g class="xtick"><text text-anchor="middle" x="0" y="509" style="font-family: 'Open Sans', verdana, arial, sans-serif; font-size: 12px; fill: rgb(42, 63, 95); fill-opacity: 1; white-space: pre; opacity: 1;" transform="translate(722.83,0)">120</text></g><g class="xtick"><text text-anchor="middle" x="0" y="509" style="font-family: 'Open Sans', verdana, arial, sans-serif; font-size: 12px; fill: rgb(42, 63, 95); fill-opacity: 1; white-space: pre; opacity: 1;" transform="translate(820.28,0)">140</text></g></g><g class="yaxislayer-above"><g class="ytick"><text text-anchor="end" x="142" y="4.199999999999999" transform="translate(0,492.93)" style="font-family: 'Open Sans', verdana, arial, sans-serif; font-size: 12px; fill: rgb(42, 63, 95); fill-opacity: 1; white-space: pre; opacity: 1;">40</text></g><g class="ytick"><text text-anchor="end" x="142" y="4.199999999999999" style="font-family: 'Open Sans', verdana, arial, sans-serif; font-size: 12px; fill: rgb(42, 63, 95); fill-opacity: 1; white-space: pre; opacity: 1;" transform="translate(0,447.46)">45</text></g><g class="ytick"><text text-anchor="end" x="142" y="4.199999999999999" style="font-family: 'Open Sans', verdana, arial, sans-serif; font-size: 12px; fill: rgb(42, 63, 95); fill-opacity: 1; white-space: pre; opacity: 1;" transform="translate(0,401.99)">50</text></g><g class="ytick"><text text-anchor="end" x="142" y="4.199999999999999" style="font-family: 'Open Sans', verdana, arial, sans-serif; font-size: 12px; fill: rgb(42, 63, 95); fill-opacity: 1; white-space: pre; opacity: 1;" transform="translate(0,356.52)">55</text></g><g class="ytick"><text text-anchor="end" x="142" y="4.199999999999999" style="font-family: 'Open Sans', verdana, arial, sans-serif; font-size: 12px; fill: rgb(42, 63, 95); fill-opacity: 1; white-space: pre; opacity: 1;" transform="translate(0,311.05)">60</text></g><g class="ytick"><text text-anchor="end" x="142" y="4.199999999999999" style="font-family: 'Open Sans', verdana, arial, sans-serif; font-size: 12px; fill: rgb(42, 63, 95); fill-opacity: 1; white-space: pre; opacity: 1;" transform="translate(0,265.58000000000004)">65</text></g><g class="ytick"><text text-anchor="end" x="142" y="4.199999999999999" style="font-family: 'Open Sans', verdana, arial, sans-serif; font-size: 12px; fill: rgb(42, 63, 95); fill-opacity: 1; white-space: pre; opacity: 1;" transform="translate(0,220.11)">70</text></g><g class="ytick"><text text-anchor="end" x="142" y="4.199999999999999" style="font-family: 'Open Sans', verdana, arial, sans-serif; font-size: 12px; fill: rgb(42, 63, 95); fill-opacity: 1; white-space: pre; opacity: 1;" transform="translate(0,174.64)">75</text></g><g class="ytick"><text text-anchor="end" x="142" y="4.199999999999999" style="font-family: 'Open Sans', verdana, arial, sans-serif; font-size: 12px; fill: rgb(42, 63, 95); fill-opacity: 1; white-space: pre; opacity: 1;" transform="translate(0,129.17000000000002)">80</text></g></g><g class="overaxes-above"/></g></g><g class="polarlayer"/><g class="smithlayer"/><g class="ternarylayer"/><g class="geolayer"/><g class="funnelarealayer"/><g class="pielayer"/><g class="iciclelayer"/><g class="treemaplayer"/><g class="sunburstlayer"/><g class="glimages"/><defs id="topdefs-e988d9"><g class="clips"/><clipPath id="legende988d9"><rect width="128" height="162" x="0" y="0"/></clipPath></defs><g class="layer-above"><g class="imagelayer"/><g class="shapelayer"/></g><g class="infolayer"><g class="legend" pointer-events="all" transform="translate(883.52,100)"><rect class="bg" shape-rendering="crispEdges" width="128" height="162" x="0" y="0" style="stroke: rgb(68, 68, 68); stroke-opacity: 1; fill: rgb(255, 255, 255); fill-opacity: 1; stroke-width: 0px;"/><g class="scrollbox" transform="" clip-path="url(#legende988d9)"><g class="groups"><g class="traces" transform="translate(0,14.5)" style="opacity: 1;"><text class="legendtext" text-anchor="start" x="40" y="4.680000000000001" style="font-family: 'Open Sans', verdana, arial, sans-serif; font-size: 12px; fill: rgb(42, 63, 95); fill-opacity: 1; white-space: pre;">Train Accuracy</text><g class="layers" style="opacity: 1;"><g class="legendfill"/><g class="legendlines"><path class="js-line" d="M5,0h30" style="fill: none; stroke: rgb(255, 0, 0); stroke-opacity: 1; stroke-width: 2px;"/></g><g class="legendsymbols"><g class="legendpoints"/></g></g><rect class="legendtoggle" x="0" y="-9.5" width="122.71875" height="19" style="fill: rgb(0, 0, 0); fill-opacity: 0;"/></g><g class="traces" transform="translate(0,33.5)" style="opacity: 1;"><text class="legendtext" text-anchor="start" x="40" y="4.680000000000001" style="font-family: 'Open Sans', verdana, arial, sans-serif; font-size: 12px; fill: rgb(42, 63, 95); fill-opacity: 1; white-space: pre;">Test Accuracy</text><g class="layers" style="opacity: 1;"><g class="legendfill"/><g class="legendlines"><path class="js-line" d="M5,0h30" style="fill: none; stroke: rgb(0, 0, 255); stroke-opacity: 1; stroke-width: 2px;"/></g><g class="legendsymbols"><g class="legendpoints"/></g></g><rect class="legendtoggle" x="0" y="-9.5" width="122.71875" height="19" style="fill: rgb(0, 0, 0); fill-opacity: 0;"/></g><g class="traces" transform="translate(0,52.5)" style="opacity: 1;"><text class="legendtext" text-anchor="start" x="40" y="4.680000000000001" style="font-family: 'Open Sans', verdana, arial, sans-serif; font-size: 12px; fill: rgb(42, 63, 95); fill-opacity: 1; white-space: pre;">Train Precision</text><g class="layers" style="opacity: 1;"><g class="legendfill"/><g class="legendlines"><path class="js-line" d="M5,0h30" style="fill: none; stroke: rgb(0, 128, 0); stroke-opacity: 1; stroke-width: 2px;"/></g><g class="legendsymbols"><g class="legendpoints"/></g></g><rect class="legendtoggle" x="0" y="-9.5" width="122.71875" height="19" style="fill: rgb(0, 0, 0); fill-opacity: 0;"/></g><g class="traces" transform="translate(0,71.5)" style="opacity: 1;"><text class="legendtext" text-anchor="start" x="40" y="4.680000000000001" style="font-family: 'Open Sans', verdana, arial, sans-serif; font-size: 12px; fill: rgb(42, 63, 95); fill-opacity: 1; white-space: pre;">Test Precision</text><g class="layers" style="opacity: 1;"><g class="legendfill"/><g class="legendlines"><path class="js-line" d="M5,0h30" style="fill: none; stroke: rgb(255, 165, 0); stroke-opacity: 1; stroke-width: 2px;"/></g><g class="legendsymbols"><g class="legendpoints"/></g></g><rect class="legendtoggle" x="0" y="-9.5" width="122.71875" height="19" style="fill: rgb(0, 0, 0); fill-opacity: 0;"/></g><g class="traces" transform="translate(0,90.5)" style="opacity: 1;"><text class="legendtext" text-anchor="start" x="40" y="4.680000000000001" style="font-family: 'Open Sans', verdana, arial, sans-serif; font-size: 12px; fill: rgb(42, 63, 95); fill-opacity: 1; white-space: pre;">Train Recall</text><g class="layers" style="opacity: 1;"><g class="legendfill"/><g class="legendlines"><path class="js-line" d="M5,0h30" style="fill: none; stroke: rgb(128, 0, 128); stroke-opacity: 1; stroke-width: 2px;"/></g><g class="legendsymbols"><g class="legendpoints"/></g></g><rect class="legendtoggle" x="0" y="-9.5" width="122.71875" height="19" style="fill: rgb(0, 0, 0); fill-opacity: 0;"/></g><g class="traces" transform="translate(0,109.5)" style="opacity: 1;"><text class="legendtext" text-anchor="start" x="40" y="4.680000000000001" style="font-family: 'Open Sans', verdana, arial, sans-serif; font-size: 12px; fill: rgb(42, 63, 95); fill-opacity: 1; white-space: pre;">Test Recall</text><g class="layers" style="opacity: 1;"><g class="legendfill"/><g class="legendlines"><path class="js-line" d="M5,0h30" style="fill: none; stroke: rgb(255, 192, 203); stroke-opacity: 1; stroke-width: 2px;"/></g><g class="legendsymbols"><g class="legendpoints"/></g></g><rect class="legendtoggle" x="0" y="-9.5" width="122.71875" height="19" style="fill: rgb(0, 0, 0); fill-opacity: 0;"/></g><g class="traces" transform="translate(0,128.5)" style="opacity: 1;"><text class="legendtext" text-anchor="start" x="40" y="4.680000000000001" style="font-family: 'Open Sans', verdana, arial, sans-serif; font-size: 12px; fill: rgb(42, 63, 95); fill-opacity: 1; white-space: pre;">Train F1</text><g class="layers" style="opacity: 1;"><g class="legendfill"/><g class="legendlines"><path class="js-line" d="M5,0h30" style="fill: none; stroke: rgb(165, 42, 42); stroke-opacity: 1; stroke-width: 2px;"/></g><g class="legendsymbols"><g class="legendpoints"/></g></g><rect class="legendtoggle" x="0" y="-9.5" width="122.71875" height="19" style="fill: rgb(0, 0, 0); fill-opacity: 0;"/></g><g class="traces" transform="translate(0,147.5)" style="opacity: 1;"><text class="legendtext" text-anchor="start" x="40" y="4.680000000000001" style="font-family: 'Open Sans', verdana, arial, sans-serif; font-size: 12px; fill: rgb(42, 63, 95); fill-opacity: 1; white-space: pre;">Test F1</text><g class="layers" style="opacity: 1;"><g class="legendfill"/><g class="legendlines"><path class="js-line" d="M5,0h30" style="fill: none; stroke: rgb(128, 128, 128); stroke-opacity: 1; stroke-width: 2px;"/></g><g class="legendsymbols"><g class="legendpoints"/></g></g><rect class="legendtoggle" x="0" y="-9.5" width="122.71875" height="19" style="fill: rgb(0, 0, 0); fill-opacity: 0;"/></g></g></g><rect class="scrollbar" rx="20" ry="3" width="0" height="0" x="0" y="0" style="fill: rgb(128, 139, 164); fill-opacity: 1;"/></g><g class="g-gtitle"><text class="gtitle" x="51.2" y="50" text-anchor="start" dy="0em" style="font-family: 'Open Sans', verdana, arial, sans-serif; font-size: 17px; fill: rgb(42, 63, 95); opacity: 1; font-weight: normal; white-space: pre;">Training Metrics - logs/FakeNewsNet-politifact_max-vocab=15000_pre=v1_text_T=150_s=5.log</text></g><g class="g-xtitle"><text class="xtitle" x="506" y="537.3" text-anchor="middle" style="font-family: 'Open Sans', verdana, arial, sans-serif; font-size: 14px; fill: rgb(42, 63, 95); opacity: 1; font-weight: normal; white-space: pre;">Epoch</text></g><g class="g-ytitle"><text class="ytitle" transform="rotate(-90,103.965625,298)" x="103.965625" y="298" text-anchor="middle" style="font-family: 'Open Sans', verdana, arial, sans-serif; font-size: 14px; fill: rgb(42, 63, 95); opacity: 1; font-weight: normal; white-space: pre;">Metric Score</text></g></g><g class="menulayer"><g class="updatemenu-container" style="cursor: pointer;"><g class="updatemenu-header-group" transform="translate(12,60)"><g class="updatemenu-header" transform="translate(1,1)" style="pointer-events: all;"><rect class="updatemenu-item-rect" rx="2" ry="2" shape-rendering="crispEdges" x="0" y="0" width="167" height="33" style="stroke: rgb(190, 200, 217); stroke-opacity: 1; fill: rgb(255, 255, 255); fill-opacity: 1; stroke-width: 1px;"/><text class="updatemenu-item-text" text-anchor="start" data-notex="1" x="12" y="19.5" style="font-family: 'Open Sans', verdana, arial, sans-serif; font-size: 12px; fill: rgb(42, 63, 95); fill-opacity: 1; white-space: pre;">All</text></g><text class="updatemenu-header-arrow" text-anchor="end" x="163" y="19.5" style="font-family: 'Open Sans', verdana, arial, sans-serif; font-size: 12px; fill: rgb(42, 63, 95); fill-opacity: 1;">▼</text></g><g class="updatemenu-dropdown-button-group" updatemenu-active-index="-1" style="pointer-events: all;"><rect class="scrollbox-bg" opacity="0" x="0" y="0" width="0" height="0" style="pointer-events: all;"/></g></g></g></svg>