<svg class="main-svg" xmlns="http://www.w3.org/2000/svg" xmlns:xlink="http://www.w3.org/1999/xlink" width="1024" height="576" style="" viewBox="0 0 1024 576"><rect x="0" y="0" width="1024" height="576" style="fill: rgb(255, 255, 255); fill-opacity: 1;"/><defs id="defs-c0cb09"><g class="clips"><clipPath id="clipc0cb09xyplot" class="plotclip"><rect width="720" height="396"/></clipPath><clipPath class="axesclip" id="clipc0cb09x"><rect x="150" y="0" width="720" height="576"/></clipPath><clipPath class="axesclip" id="clipc0cb09y"><rect x="0" y="100" width="1024" height="396"/></clipPath><clipPath class="axesclip" id="clipc0cb09xy"><rect x="150" y="100" width="720" height="396"/></clipPath></g><g class="gradients"/><g class="patterns"/></defs><g class="bglayer"><rect class="bg" x="150" y="100" width="720" height="396" style="fill: rgb(229, 236, 246); fill-opacity: 1; stroke-width: 0;"/></g><g class="layer-below"><g class="imagelayer"/><g class="shapelayer"/></g><g class="cartesianlayer"><g class="subplot xy"><g class="layer-subplot"><g class="shapelayer"/><g class="imagelayer"/></g><g class="minor-gridlayer"><g class="x"/><g class="y"/></g><g class="gridlayer"><g class="x"><path class="xgrid crisp" transform="translate(241.81,0)" d="M0,100v396" style="stroke: rgb(255, 255, 255); stroke-opacity: 1; stroke-width: 1px;"/><path class="xgrid crisp" transform="translate(338.46000000000004,0)" d="M0,100v396" style="stroke: rgb(255, 255, 255); stroke-opacity: 1; stroke-width: 1px;"/><path class="xgrid crisp" transform="translate(435.1,0)" d="M0,100v396" style="stroke: rgb(255, 255, 255); stroke-opacity: 1; stroke-width: 1px;"/><path class="xgrid crisp" transform="translate(531.74,0)" d="M0,100v396" style="stroke: rgb(255, 255, 255); stroke-opacity: 1; stroke-width: 1px;"/><path class="xgrid crisp" transform="translate(628.39,0)" d="M0,100v396" style="stroke: rgb(255, 255, 255); stroke-opacity: 1; stroke-width: 1px;"/><path class="xgrid crisp" transform="translate(725.03,0)" d="M0,100v396" style="stroke: rgb(255, 255, 255); stroke-opacity: 1; stroke-width: 1px;"/><path class="xgrid crisp" transform="translate(821.68,0)" d="M0,100v396" style="stroke: rgb(255, 255, 255); stroke-opacity: 1; stroke-width: 1px;"/></g><g class="y"><path class="ygrid crisp" transform="translate(0,467.54)" d="M150,0h720" style="stroke: rgb(255, 255, 255); stroke-opacity: 1; stroke-width: 1px;"/><path class="ygrid crisp" transform="translate(0,413.44)" d="M150,0h720" style="stroke: rgb(255, 255, 255); stroke-opacity: 1; stroke-width: 1px;"/><path class="ygrid crisp" transform="translate(0,359.33)" d="M150,0h720" style="stroke: rgb(255, 255, 255); stroke-opacity: 1; stroke-width: 1px;"/><path class="ygrid crisp" transform="translate(0,305.22)" d="M150,0h720" style="stroke: rgb(255, 255, 255); stroke-opacity: 1; stroke-width: 1px;"/><path class="ygrid crisp" transform="translate(0,251.12)" d="M150,0h720" style="stroke: rgb(255, 255, 255); stroke-opacity: 1; stroke-width: 1px;"/><path class="ygrid crisp" transform="translate(0,197.01)" d="M150,0h720" style="stroke: rgb(255, 255, 255); stroke-opacity: 1; stroke-width: 1px;"/><path class="ygrid crisp" transform="translate(0,142.9)" d="M150,0h720" style="stroke: rgb(255, 255, 255); stroke-opacity: 1; stroke-width: 1px;"/></g></g><g class="zerolinelayer"/><path class="xlines-below"/><path class="ylines-below"/><g class="overlines-below"/><g class="xaxislayer-below"/><g class="yaxislayer-below"/><g class="overaxes-below"/><g class="plot" transform="translate(150,100)" clip-path="url(#clipc0cb09xyplot)"><g class="scatterlayer mlayer"><g class="trace scatter tracee5c813" style="stroke-miterlimit: 2; opacity: 1;"><g class="fills"/><g class="errorbars"/><g class="lines"><path class="js-line" d="M0,248.83L4.83,109.73L9.66,103.29L14.5,104.59L19.33,97.5L24.16,70.61L28.99,66.12L33.83,59.08L38.66,54.59L43.49,51.99L48.32,51.99L53.15,55.19L57.99,55.19L62.82,55.19L67.65,53.29L72.48,114.81L77.32,53.29L82.15,63.57L86.98,62.27L91.81,103.29L96.64,98.8L101.48,123.14L106.31,159.72L111.14,122.55L115.97,55.19L120.81,49.45L125.64,54.59L130.47,59.68L135.3,67.41L140.13,62.92L144.97,50.75L149.8,46.26L154.63,51.34L159.46,98.15L164.3,91.11L169.13,140.46L173.96,108.43L178.79,113.57L183.62,109.08L188.46,112.27L193.29,101.39L198.12,59.08L202.95,101.99L207.79,46.85L212.62,44.31L217.45,39.17L222.28,39.82L227.11,37.28L231.95,37.28L236.78,44.96L241.61,45.61L246.44,46.85L251.28,39.82L256.11,43.01L260.94,42.42L265.77,43.01L270.6,37.28L275.44,35.33L280.27,36.63L285.1,39.82L289.93,54.59L294.77,55.83L299.6,60.98L304.43,36.63L309.26,45.61L314.09,44.31L318.93,46.26L323.76,70.61L328.59,72.5L333.42,72.5L338.26,45.61L343.09,39.17L347.92,38.52L357.58,45.61L362.42,43.01L367.25,36.63L372.08,37.28L376.91,44.31L381.74,28.29L386.58,31.49L391.41,32.14L396.24,33.43L401.07,44.31L405.91,64.82L410.74,66.76L415.57,69.31L420.4,66.76L425.23,30.84L430.07,80.83L434.9,84.08L439.73,84.08L444.56,25.1L449.4,27.65L454.23,28.29L459.06,25.1L463.89,27.65L468.72,28.29L473.56,27.65L478.39,30.84L483.22,28.94L488.05,29.59L492.89,30.19L497.72,26.35L507.38,27.65L512.21,35.98L517.05,27.65L521.88,27L531.54,28.94L536.38,28.29L541.21,28.94L546.04,32.14L550.87,26.35L555.7,25.7L565.37,25.1L570.2,26.35L579.87,28.94L584.7,32.79L589.53,29.59L594.36,35.33L599.19,55.19L604.03,50.75L613.69,51.34L618.52,23.15L628.19,25.1L633.02,27L637.85,24.45L642.68,32.14L647.52,31.49L652.35,27.65L657.18,57.78L662.01,28.94L666.85,28.94L671.68,27.65L676.51,32.79L681.34,31.49L691.01,28.29L695.84,30.19L710.34,30.84L715.17,29.59L720,26.35" style="vector-effect: none; fill: none; stroke: rgb(255, 0, 0); stroke-opacity: 1; stroke-width: 2px; opacity: 1;"/></g><g class="points"/><g class="text"/></g><g class="trace scatter trace28374c" style="stroke-miterlimit: 2; opacity: 1;"><g class="fills"/><g class="errorbars"/><g class="lines"><path class="js-line" d="M0,276.7L4.83,108.26L9.66,105.67L14.5,105.67L19.33,98.04L24.16,85.27L28.99,85.27L33.83,75.04L38.66,75.04L43.49,80.18L48.32,75.04L57.99,80.18L62.82,87.81L67.65,75.04L72.48,164.37L77.32,82.73L82.15,103.12L86.98,92.95L91.81,179.68L96.64,184.83L101.48,187.37L106.31,207.77L111.14,189.91L115.97,92.95L120.81,90.35L125.64,92.95L130.47,115.89L135.3,123.58L140.13,120.98L144.97,113.35L149.8,72.5L154.63,77.64L159.46,161.83L164.3,154.2L169.13,202.68L173.96,174.6L178.79,169.51L183.62,169.51L188.46,174.6L193.29,169.51L198.12,113.35L202.95,177.14L207.79,77.64L212.62,77.64L217.45,75.04L222.28,75.04L227.11,77.64L231.95,77.64L236.78,82.73L241.61,87.81L246.44,85.27L251.28,72.5L256.11,77.64L260.94,72.5L265.77,69.96L275.44,59.73L280.27,59.73L285.1,64.87L289.93,110.81L294.77,103.12L299.6,115.89L304.43,62.27L309.26,90.35L314.09,75.04L318.93,80.18L323.76,131.21L328.59,131.21L333.42,133.75L338.26,85.27L343.09,72.5L347.92,77.64L352.75,82.73L357.58,80.18L362.42,85.27L367.25,67.41L372.08,75.04L376.91,87.81L381.74,72.5L386.58,75.04L391.41,72.5L396.24,72.5L401.07,87.81L405.91,115.89L410.74,123.58L415.57,123.58L420.4,118.44L425.23,64.87L430.07,131.21L434.9,136.29L439.73,143.97L444.56,67.41L449.4,69.96L454.23,67.41L459.06,72.5L463.89,72.5L468.72,67.41L473.56,69.96L478.39,64.87L483.22,72.5L488.05,69.96L492.89,72.5L497.72,69.96L502.55,75.04L507.38,85.27L512.21,90.35L517.05,62.27L521.88,75.04L526.71,69.96L531.54,77.64L541.21,82.73L546.04,77.64L550.87,72.5L555.7,72.5L560.54,77.64L565.37,80.18L570.2,67.41L575.03,72.5L579.87,72.5L584.7,87.81L589.53,77.64L594.36,80.18L599.19,113.35L604.03,108.26L608.86,110.81L613.69,108.26L618.52,64.87L623.36,75.04L628.19,77.64L633.02,85.27L637.85,69.96L642.68,77.64L647.52,75.04L652.35,69.96L657.18,105.67L662.01,69.96L666.85,72.5L671.68,69.96L676.51,75.04L681.34,72.5L686.17,72.5L691.01,67.41L695.84,69.96L700.67,75.04L705.5,62.27L710.34,62.27L715.17,72.5L720,77.64" style="vector-effect: none; fill: none; stroke: rgb(0, 0, 255); stroke-opacity: 1; stroke-width: 2px; opacity: 1;"/></g><g class="points"/><g class="text"/></g><g class="trace scatter trace554d07" style="stroke-miterlimit: 2; opacity: 1;"><g class="fills"/><g class="errorbars"/><g class="lines"><path class="js-line" d="M0,362.29L4.83,64.76L9.66,56.05L14.5,63.63L19.33,62L24.16,47.5L28.99,47.34L33.83,45.93L38.66,40.58L43.49,49.45L48.32,50.64L53.15,54.59L57.99,57.08L62.82,58.27L67.65,55.67L72.48,85.76L77.32,56.48L82.15,66.87L86.98,65.68L91.81,72.66L96.64,72.82L101.48,83.05L106.31,95.93L111.14,80.07L115.97,57.95L120.81,51.51L125.64,57.78L130.47,53.35L135.3,57.62L140.13,55.62L144.97,47.29L149.8,49.29L154.63,54L159.46,77.32L164.3,73.37L169.13,87.76L173.96,81.21L188.46,82.13L193.29,75.64L198.12,53.24L202.95,75.37L207.79,49.13L212.62,46.75L217.45,41.5L222.28,42.04L227.11,39.66L231.95,39.93L236.78,46.96L241.61,47.66L246.44,49.23L251.28,42.31L256.11,45.45L260.94,44.69L265.77,45.5L270.6,39.28L275.44,37.87L280.27,39.28L285.1,42.69L289.93,49.88L294.77,50.86L299.6,54.27L304.43,39.33L309.26,48.21L314.09,47.23L318.93,48.91L323.76,61.52L328.59,60.65L333.42,59.24L338.26,46.96L343.09,41.77L347.92,40.79L352.75,45.34L357.58,47.83L362.42,39.28L367.25,36.3L372.08,36.84L376.91,42.04L381.74,28.89L386.58,31.81L396.24,33.22L401.07,41.17L405.91,54.97L410.74,56.7L415.57,57.57L420.4,57.57L425.23,32.08L430.07,64.65L434.9,65.63L439.73,65.09L444.56,26.83L449.4,29.38L454.23,29.81L459.06,26.83L463.89,28.84L468.72,29.7L473.56,29.27L478.39,31.97L483.22,30.08L488.05,30.35L492.89,31.38L497.72,27.81L502.55,28.67L507.38,28.13L512.21,34.84L517.05,29.49L521.88,29L526.71,29.97L531.54,30.78L536.38,28.67L541.21,29.05L546.04,31.49L550.87,26.24L555.7,26.29L565.37,26.08L570.2,27.21L579.87,28.84L584.7,31.27L589.53,29.16L594.36,33.81L599.19,48.21L604.03,44.96L613.69,46.15L618.52,24.4L623.36,24.67L628.19,25.75L633.02,28.78L637.85,25.86L642.68,32.35L647.52,30.73L652.35,27.1L657.18,50.05L662.01,29.21L666.85,28.84L671.68,28.67L676.51,33.65L691.01,28.89L695.84,30.51L700.67,30.3L705.5,33.6L710.34,33.6L715.17,30.51L720,27.54" style="vector-effect: none; fill: none; stroke: rgb(0, 128, 0); stroke-opacity: 1; stroke-width: 2px; opacity: 1;"/></g><g class="points"/><g class="text"/></g><g class="trace scatter tracec47b9d" style="stroke-miterlimit: 2; opacity: 1;"><g class="fills"/><g class="errorbars"/><g class="lines"><path class="js-line" d="M0,376.2L4.83,96.74L9.66,92.57L14.5,92.57L19.33,81.48L24.16,66.28L28.99,74.5L33.83,63.68L38.66,63.68L43.49,88.19L48.32,81.7L53.15,85.38L57.99,90.68L62.82,98.53L67.65,83.97L72.48,131.64L77.32,93.82L82.15,116.65L86.98,105.4L91.81,141.38L96.64,149.98L101.48,140.51L106.31,151.28L111.14,148.14L115.97,102.1L120.81,99.77L125.64,104.37L135.3,114.32L140.13,112.59L144.97,111.94L149.8,82.94L154.63,87.38L159.46,137.21L164.3,132.29L169.13,147.6L173.96,145.54L178.79,134.83L183.62,139.86L188.46,143.16L193.29,137.37L198.12,111.94L202.95,142.35L207.79,88.41L212.62,88.41L217.45,85.59L222.28,85.7L227.11,88.52L231.95,88.57L236.78,94.03L241.61,99.93L246.44,97.06L251.28,82.94L256.11,88.52L260.94,82.94L265.77,80.07L270.6,73.8L275.44,68.98L280.27,68.98L285.1,74.56L289.93,111.46L294.77,103.12L299.6,110.75L304.43,71.85L309.26,98.36L314.09,83.97L318.93,89.81L323.76,126.12L328.59,122.93L333.42,121.03L338.26,93.11L343.09,81.59L347.92,86.3L352.75,93.55L357.58,88.62L362.42,88.41L367.25,73.8L372.08,80.24L376.91,90.35L381.74,79.75L386.58,81.97L391.41,78.99L396.24,78.99L401.07,91.49L405.91,109.13L410.74,117.68L415.57,116L420.4,109.13L425.23,71.58L430.07,113.46L434.9,118.76L439.73,127.74L444.56,73.8L449.4,77.53L454.23,75.21L459.06,80.45L463.89,80.45L468.72,76.72L473.56,78.72L478.39,73.85L483.22,81.59L488.05,79.15L492.89,81.59L497.72,79.15L502.55,84.89L507.38,92.36L512.21,95.66L517.05,70.98L521.88,83.97L526.71,78.72L531.54,86.89L536.38,87.16L541.21,88.41L546.04,82.29L550.87,77.15L555.7,78.99L560.54,84.94L565.37,87.92L570.2,74.56L575.03,78.99L579.87,78.99L584.7,91.49L589.53,83.27L594.36,84.35L599.19,107.4L604.03,103.88L608.86,105.61L613.69,103.88L618.52,72.28L623.36,81.16L628.19,84.13L633.02,93.87L637.85,77.53L642.68,84.13L652.35,76.77L657.18,100.53L662.01,76.77L666.85,79.75L671.68,77.53L676.51,82.73L681.34,79.75L686.17,78.99L691.01,73.8L695.84,75.1L700.67,80.24L705.5,71.85L710.34,71.85L715.17,79.75L720,84.94" style="vector-effect: none; fill: none; stroke: rgb(255, 165, 0); stroke-opacity: 1; stroke-width: 2px; opacity: 1;"/></g><g class="points"/><g class="text"/></g><g class="trace scatter trace28b963" style="stroke-miterlimit: 2; opacity: 1;"><g class="fills"/><g class="errorbars"/><g class="lines"><path class="js-line" d="M0,205.22L4.83,140.35L9.66,133.15L14.5,133.8L19.33,124.77L24.16,91.38L28.99,85.21L33.83,75.53L38.66,70.82L43.49,62.65L48.32,61.84L53.15,64.76L57.99,62.06L62.82,56.32L67.65,52.53L72.48,97.06L77.32,55.73L82.15,67.95L86.98,65.79L91.81,85.21L96.64,82.18L101.48,102.1L106.31,132.07L111.14,100.91L115.97,55.24L120.81,47.94L125.64,56.59L130.47,51.07L135.3,57.03L140.13,53.83L144.97,43.77L149.8,47.94L154.63,51.07L159.46,83.32L164.3,77.48L169.13,115.95L173.96,91.33L178.79,94.9L183.62,91.87L188.46,94.2L193.29,84.84L198.12,50.69L202.95,85.16L207.79,52.1L212.62,48.8L217.45,43.34L222.28,44.31L227.11,41.06L231.95,40.2L236.78,50.42L241.61,50.97L246.44,51.89L251.28,43.72L256.11,47.5L260.94,46.96L265.77,47.29L270.6,41.93L275.44,38.57L280.27,39.66L285.1,42.2L289.93,46.85L294.77,47.94L299.6,52.16L304.43,39.44L309.26,45.28L314.09,45.01L318.93,46.04L323.76,60.65L328.59,61.25L333.42,60.6L338.26,42.96L343.09,38.68L347.92,37.28L352.75,43.99L357.58,44.42L362.42,35.65L367.25,31.81L372.08,32.35L376.91,38.03L381.74,24.18L386.58,27.16L396.24,28.62L401.07,37.38L405.91,54.43L410.74,56.27L415.57,58.05L420.4,56.7L425.23,27.7L430.07,67.79L434.9,70.12L439.73,69.9L444.56,22.51L449.4,25.16L454.23,25.48L459.06,22.51L463.89,24.29L468.72,25.26L473.56,24.94L478.39,27.48L483.22,25.59L488.05,25.75L492.89,26.94L497.72,23.43L502.55,24.4L507.38,23.43L512.21,30.4L517.05,25.37L521.88,24.99L526.71,25.7L531.54,26.67L536.38,24.02L541.21,24.34L546.04,26.89L550.87,21.48L555.7,21.59L565.37,21.42L570.2,22.56L579.87,24.13L584.7,26.78L589.53,24.45L594.36,29.43L599.19,46.1L604.03,42.25L613.69,43.23L618.52,19.8L623.36,19.91L628.19,21.04L633.02,24.56L637.85,21.31L642.68,27.75L647.52,26.13L652.35,22.4L657.18,48.31L662.01,24.56L666.85,24.13L671.68,24.07L676.51,29.11L686.17,25.86L691.01,24.18L695.84,25.86L700.67,25.64L705.5,31.92L710.34,32.57L715.17,25.97L720,22.99" style="vector-effect: none; fill: none; stroke: rgb(128, 0, 128); stroke-opacity: 1; stroke-width: 2px; opacity: 1;"/></g><g class="points"/><g class="text"/></g><g class="trace scatter tracec74f9d" style="stroke-miterlimit: 2; opacity: 1;"><g class="fills"/><g class="errorbars"/><g class="lines"><path class="js-line" d="M0,205.22L4.83,161.83L9.66,158.37L14.5,158.37L19.33,147.98L24.16,130.61L28.99,127.74L33.83,113.84L38.66,113.84L43.49,106.32L48.32,100.8L53.15,102.85L57.99,100.47L62.82,96.41L67.65,79.05L72.48,135.21L77.32,93.82L82.15,118.65L86.98,107.67L91.81,147.33L96.64,154.31L101.48,150.52L106.31,165.18L111.14,155.45L115.97,97.55L120.81,95.55L125.64,103.34L130.47,102.69L135.3,108.75L144.97,105.02L149.8,85.76L154.63,83.97L159.46,137.59L164.3,131.53L169.13,161.18L173.96,147.65L178.79,139.27L183.62,142.19L188.46,146.19L193.29,140.73L198.12,105.02L202.95,146.79L207.79,94.14L212.62,94.14L217.45,90.68L222.28,89.22L227.11,92.68L231.95,91.22L236.78,101.07L241.61,105.13L246.44,101.66L251.28,85.76L256.11,92.68L260.94,85.76L265.77,83.7L270.6,81.16L275.44,71.31L280.27,71.31L285.1,76.77L289.93,104.42L294.77,95.5L299.6,104.1L304.43,71.85L309.26,92.63L314.09,79.05L318.93,86.03L323.76,120.6L328.59,117.68L333.42,116.81L338.26,87.16L343.09,77.04L347.92,81.1L352.75,92.36L357.58,83.1L362.42,79.91L367.25,65.79L372.08,71.8L376.91,81.91L381.74,72.72L386.58,74.72L391.41,71.26L396.24,71.26L401.07,83.38L405.91,102.69L410.74,111.62L415.57,110.16L420.4,103.23L425.23,63.73L430.07,110.43L434.9,115.95L439.73,124.87L444.56,65.79L449.4,70.66L454.23,68.66L459.06,74.12L463.89,74.12L468.72,72.99L473.56,73.58L478.39,69.52L483.22,77.04L488.05,75.04L492.89,77.04L497.72,75.04L502.55,81.97L507.38,85.7L512.21,88.3L517.05,66.06L521.88,79.05L526.71,73.58L531.54,82.51L536.38,80.18L541.21,80.78L546.04,73.85L550.87,68.33L555.7,71.26L560.54,78.18L565.37,81.64L570.2,67.2L575.03,71.26L579.87,71.26L584.7,83.38L589.53,75.31L594.36,75.85L599.19,100.64L604.03,96.63L608.86,98.63L613.69,96.63L618.52,65.2L623.36,73.26L628.19,76.72L633.02,88.57L637.85,70.66L642.68,76.72L647.52,71.8L652.35,69.25L657.18,93.17L662.01,69.25L666.85,72.72L671.68,70.66L676.51,76.18L681.34,72.72L686.17,71.26L691.01,65.79L695.84,66.33L700.67,71.8L710.34,71.85L715.17,72.72L720,78.18" style="vector-effect: none; fill: none; stroke: rgb(255, 192, 203); stroke-opacity: 1; stroke-width: 2px; opacity: 1;"/></g><g class="points"/><g class="text"/></g><g class="trace scatter tracee177df" style="stroke-miterlimit: 2; opacity: 1;"><g class="fills"/><g class="errorbars"/><g class="lines"><path class="js-line" d="M0,315.87L4.83,154.47L9.66,144.79L14.5,144.73L19.33,131.8L24.16,89.98L28.99,82.78L33.83,72.12L38.66,67.04L43.49,59.51L48.32,58.92L53.15,62.06L57.99,60.33L67.65,54.97L72.48,116.33L77.32,56.11L82.15,67.47L86.98,65.74L91.81,104.69L96.64,99.72L101.48,126.44L106.31,170.54L111.14,126.07L115.97,57.13L120.81,50.86L125.64,57.24L130.47,59.78L135.3,67.41L140.13,62.98L144.97,51.02L149.8,48.69L154.63,53.18L159.46,98.63L164.3,91.33L169.13,146.9L173.96,109.62L178.79,115.41L183.62,110.27L188.46,113.84L193.29,102.26L198.12,59.19L202.95,103.02L207.79,50.91L212.62,47.94L217.45,42.52L222.28,43.34L227.11,40.41L231.95,40.09L236.78,49.07L246.44,50.8L251.28,43.07L256.11,46.64L260.94,45.99L265.77,46.53L270.6,40.79L275.44,38.25L280.27,39.44L285.1,42.47L289.93,54.75L294.77,56L299.6,61.08L304.43,39.39L309.26,47.34L314.09,46.37L318.93,48.04L323.76,70.61L328.59,72.5L333.42,72.55L338.26,46.69L343.09,40.85L347.92,39.98L352.75,44.74L357.58,47.07L362.42,43.28L367.25,37.22L372.08,37.87L376.91,44.69L381.74,29L386.58,32.19L396.24,34.03L401.07,44.58L405.91,64.82L410.74,66.76L415.57,69.31L420.4,66.76L425.23,31.76L430.07,80.99L434.9,84.3L439.73,84.3L444.56,26.08L449.4,28.67L454.23,29.27L459.06,26.08L463.89,28.51L468.72,29.21L473.56,28.62L478.39,31.7L483.22,29.81L488.05,30.35L492.89,31.11L497.72,27.32L507.38,28.35L512.21,36.46L517.05,28.73L521.88,28.19L531.54,30.03L536.38,29L541.21,29.54L546.04,32.68L550.87,26.94L555.7,26.4L565.37,25.86L570.2,27.16L579.87,29.54L584.7,33.22L589.53,30.13L594.36,35.76L599.19,55.29L604.03,50.86L613.69,51.51L618.52,24.02L628.19,25.81L633.02,28.08L637.85,25.32L642.68,32.79L647.52,31.97L652.35,28.19L657.18,57.84L662.01,29.59L666.85,29.54L671.68,28.46L676.51,33.6L681.34,32.19L691.01,29L695.84,30.89L700.67,30.84L705.5,32.89L710.34,33.11L715.17,30.4L720,27.21" style="vector-effect: none; fill: none; stroke: rgb(165, 42, 42); stroke-opacity: 1; stroke-width: 2px; opacity: 1;"/></g><g class="points"/><g class="text"/></g><g class="trace scatter traceba34f8" style="stroke-miterlimit: 2; opacity: 1;"><g class="fills"/><g class="errorbars"/><g class="lines"><path class="js-line" d="M0,330.21L4.83,175.41L9.66,170.27L14.5,170.27L19.33,155.28L24.16,131.8L28.99,127.26L33.83,110.32L38.66,110.32L43.49,102.26L48.32,96.41L53.15,98.69L57.99,97.39L62.82,97.61L67.65,82.29L72.48,164.7L77.32,93.82L82.15,117.79L86.98,106.7L91.81,180.77L96.64,185.64L101.48,189.86L106.31,213.72L111.14,191.75L115.97,100.74L120.81,98.42L125.64,103.88L130.47,117.35L135.3,124.66L140.13,122.22L144.97,116.06L149.8,84.51L154.63,86.03L159.46,161.83L164.3,154.2L169.13,207.77L173.96,174.82L178.79,170L183.62,169.68L188.46,174.92L193.29,169.84L198.12,116.06L202.95,177.79L207.79,91.92L212.62,91.92L217.45,88.68L222.28,87.76L227.11,91L231.95,90.08L236.78,98.58L241.61,103.18L246.44,99.88L251.28,84.51L256.11,91L260.94,84.51L265.77,82.18L270.6,78.34L275.44,70.23L280.27,70.23L285.1,75.8L289.93,114.16L294.77,106.1L299.6,117.68L304.43,71.85L309.26,97.06L314.09,82.29L318.93,88.35L323.76,133.15L328.59,132.5L333.42,134.4L338.26,91.71L343.09,79.97L347.92,84.67L352.75,93.01L357.58,87.05L362.42,89L367.25,72.28L372.08,79.48L376.91,91.38L381.74,78.13L386.58,80.51L391.41,77.59L396.24,77.59L401.07,91.87L405.91,117.35L410.74,125.25L415.57,124.93L420.4,119.52L425.23,69.9L430.07,131.42L434.9,136.51L439.73,144.25L444.56,72.28L449.4,75.75L454.23,73.37L459.06,78.72L463.89,78.72L468.72,75.21L473.56,76.94L478.39,72.18L483.22,79.97L488.05,77.59L492.89,79.97L497.72,77.59L502.55,83.7L507.38,91.11L512.21,95.28L517.05,69.2L521.88,82.29L526.71,76.94L531.54,85.32L536.38,85.81L541.21,87.65L550.87,76.61L555.7,77.59L560.54,83.43L565.37,86.41L570.2,72.82L575.03,77.59L579.87,77.59L584.7,91.87L589.53,82.35L594.36,84.24L599.19,114.97L604.03,110.1L608.86,112.54L613.69,110.1L618.52,70.44L623.36,79.97L628.19,82.89L633.02,92.36L637.85,75.75L642.68,82.89L652.35,75.21L657.18,107.4L662.01,75.21L666.85,78.13L671.68,75.75L676.51,81.1L681.34,78.13L686.17,77.59L691.01,72.28L695.84,74.23L700.67,79.48L705.5,71.85L710.34,71.85L715.17,78.13L720,83.43" style="vector-effect: none; fill: none; stroke: rgb(128, 128, 128); stroke-opacity: 1; stroke-width: 2px; opacity: 1;"/></g><g class="points"/><g class="text"/></g></g></g><g class="overplot"/><path class="xlines-above crisp" d="M0,0" style="fill: none;"/><path class="ylines-above crisp" d="M0,0" style="fill: none;"/><g class="overlines-above"/><g class="xaxislayer-above"><g class="xtick"><text text-anchor="middle" x="0" y="509" transform="translate(241.81,0)" style="font-family: 'Open Sans', verdana, arial, sans-serif; font-size: 12px; fill: rgb(42, 63, 95); fill-opacity: 1; white-space: pre; opacity: 1;">20</text></g><g class="xtick"><text text-anchor="middle" x="0" y="509" style="font-family: 'Open Sans', verdana, arial, sans-serif; font-size: 12px; fill: rgb(42, 63, 95); fill-opacity: 1; white-space: pre; opacity: 1;" transform="translate(338.46000000000004,0)">40</text></g><g class="xtick"><text text-anchor="middle" x="0" y="509" style="font-family: 'Open Sans', verdana, arial, sans-serif; font-size: 12px; fill: rgb(42, 63, 95); fill-opacity: 1; white-space: pre; opacity: 1;" transform="translate(435.1,0)">60</text></g><g class="xtick"><text text-anchor="middle" x="0" y="509" style="font-family: 'Open Sans', verdana, arial, sans-serif; font-size: 12px; fill: rgb(42, 63, 95); fill-opacity: 1; white-space: pre; opacity: 1;" transform="translate(531.74,0)">80</text></g><g class="xtick"><text text-anchor="middle" x="0" y="509" style="font-family: 'Open Sans', verdana, arial, sans-serif; font-size: 12px; fill: rgb(42, 63, 95); fill-opacity: 1; white-space: pre; opacity: 1;" transform="translate(628.39,0)">100</text></g><g class="xtick"><text text-anchor="middle" x="0" y="509" style="font-family: 'Open Sans', verdana, arial, sans-serif; font-size: 12px; fill: rgb(42, 63, 95); fill-opacity: 1; white-space: pre; opacity: 1;" transform="translate(725.03,0)">120</text></g><g class="xtick"><text text-anchor="middle" x="0" y="509" style="font-family: 'Open Sans', verdana, arial, sans-serif; font-size: 12px; fill: rgb(42, 63, 95); fill-opacity: 1; white-space: pre; opacity: 1;" transform="translate(821.68,0)">140</text></g></g><g class="yaxislayer-above"><g class="ytick"><text text-anchor="end" x="149" y="4.199999999999999" transform="translate(0,467.54)" style="font-family: 'Open Sans', verdana, arial, sans-serif; font-size: 12px; fill: rgb(42, 63, 95); fill-opacity: 1; white-space: pre; opacity: 1;">20</text></g><g class="ytick"><text text-anchor="end" x="149" y="4.199999999999999" style="font-family: 'Open Sans', verdana, arial, sans-serif; font-size: 12px; fill: rgb(42, 63, 95); fill-opacity: 1; white-space: pre; opacity: 1;" transform="translate(0,413.44)">30</text></g><g class="ytick"><text text-anchor="end" x="149" y="4.199999999999999" style="font-family: 'Open Sans', verdana, arial, sans-serif; font-size: 12px; fill: rgb(42, 63, 95); fill-opacity: 1; white-space: pre; opacity: 1;" transform="translate(0,359.33)">40</text></g><g class="ytick"><text text-anchor="end" x="149" y="4.199999999999999" style="font-family: 'Open Sans', verdana, arial, sans-serif; font-size: 12px; fill: rgb(42, 63, 95); fill-opacity: 1; white-space: pre; opacity: 1;" transform="translate(0,305.22)">50</text></g><g class="ytick"><text text-anchor="end" x="149" y="4.199999999999999" style="font-family: 'Open Sans', verdana, arial, sans-serif; font-size: 12px; fill: rgb(42, 63, 95); fill-opacity: 1; white-space: pre; opacity: 1;" transform="translate(0,251.12)">60</text></g><g class="ytick"><text text-anchor="end" x="149" y="4.199999999999999" style="font-family: 'Open Sans', verdana, arial, sans-serif; font-size: 12px; fill: rgb(42, 63, 95); fill-opacity: 1; white-space: pre; opacity: 1;" transform="translate(0,197.01)">70</text></g><g class="ytick"><text text-anchor="end" x="149" y="4.199999999999999" style="font-family: 'Open Sans', verdana, arial, sans-serif; font-size: 12px; fill: rgb(42, 63, 95); fill-opacity: 1; white-space: pre; opacity: 1;" transform="translate(0,142.9)">80</text></g></g><g class="overaxes-above"/></g></g><g class="polarlayer"/><g class="smithlayer"/><g class="ternarylayer"/><g class="geolayer"/><g class="funnelarealayer"/><g class="pielayer"/><g class="iciclelayer"/><g class="treemaplayer"/><g class="sunburstlayer"/><g class="glimages"/><defs id="topdefs-c0cb09"><g class="clips"/><clipPath id="legendc0cb09"><rect width="128" height="162" x="0" y="0"/></clipPath></defs><g class="layer-above"><g class="imagelayer"/><g class="shapelayer"/></g><g class="infolayer"><g class="legend" pointer-events="all" transform="translate(884.4,100)"><rect class="bg" shape-rendering="crispEdges" width="128" height="162" x="0" y="0" style="stroke: rgb(68, 68, 68); stroke-opacity: 1; fill: rgb(255, 255, 255); fill-opacity: 1; stroke-width: 0px;"/><g class="scrollbox" transform="" clip-path="url(#legendc0cb09)"><g class="groups"><g class="traces" transform="translate(0,14.5)" style="opacity: 1;"><text class="legendtext" text-anchor="start" x="40" y="4.680000000000001" style="font-family: 'Open Sans', verdana, arial, sans-serif; font-size: 12px; fill: rgb(42, 63, 95); fill-opacity: 1; white-space: pre;">Train Accuracy</text><g class="layers" style="opacity: 1;"><g class="legendfill"/><g class="legendlines"><path class="js-line" d="M5,0h30" style="fill: none; stroke: rgb(255, 0, 0); stroke-opacity: 1; stroke-width: 2px;"/></g><g class="legendsymbols"><g class="legendpoints"/></g></g><rect class="legendtoggle" x="0" y="-9.5" width="122.71875" height="19" style="fill: rgb(0, 0, 0); fill-opacity: 0;"/></g><g class="traces" transform="translate(0,33.5)" style="opacity: 1;"><text class="legendtext" text-anchor="start" x="40" y="4.680000000000001" style="font-family: 'Open Sans', verdana, arial, sans-serif; font-size: 12px; fill: rgb(42, 63, 95); fill-opacity: 1; white-space: pre;">Test Accuracy</text><g class="layers" style="opacity: 1;"><g class="legendfill"/><g class="legendlines"><path class="js-line" d="M5,0h30" style="fill: none; stroke: rgb(0, 0, 255); stroke-opacity: 1; stroke-width: 2px;"/></g><g class="legendsymbols"><g class="legendpoints"/></g></g><rect class="legendtoggle" x="0" y="-9.5" width="122.71875" height="19" style="fill: rgb(0, 0, 0); fill-opacity: 0;"/></g><g class="traces" transform="translate(0,52.5)" style="opacity: 1;"><text class="legendtext" text-anchor="start" x="40" y="4.680000000000001" style="font-family: 'Open Sans', verdana, arial, sans-serif; font-size: 12px; fill: rgb(42, 63, 95); fill-opacity: 1; white-space: pre;">Train Precision</text><g class="layers" style="opacity: 1;"><g class="legendfill"/><g class="legendlines"><path class="js-line" d="M5,0h30" style="fill: none; stroke: rgb(0, 128, 0); stroke-opacity: 1; stroke-width: 2px;"/></g><g class="legendsymbols"><g class="legendpoints"/></g></g><rect class="legendtoggle" x="0" y="-9.5" width="122.71875" height="19" style="fill: rgb(0, 0, 0); fill-opacity: 0;"/></g><g class="traces" transform="translate(0,71.5)" style="opacity: 1;"><text class="legendtext" text-anchor="start" x="40" y="4.680000000000001" style="font-family: 'Open Sans', verdana, arial, sans-serif; font-size: 12px; fill: rgb(42, 63, 95); fill-opacity: 1; white-space: pre;">Test Precision</text><g class="layers" style="opacity: 1;"><g class="legendfill"/><g class="legendlines"><path class="js-line" d="M5,0h30" style="fill: none; stroke: rgb(255, 165, 0); stroke-opacity: 1; stroke-width: 2px;"/></g><g class="legendsymbols"><g class="legendpoints"/></g></g><rect class="legendtoggle" x="0" y="-9.5" width="122.71875" height="19" style="fill: rgb(0, 0, 0); fill-opacity: 0;"/></g><g class="traces" transform="translate(0,90.5)" style="opacity: 1;"><text class="legendtext" text-anchor="start" x="40" y="4.680000000000001" style="font-family: 'Open Sans', verdana, arial, sans-serif; font-size: 12px; fill: rgb(42, 63, 95); fill-opacity: 1; white-space: pre;">Train Recall</text><g class="layers" style="opacity: 1;"><g class="legendfill"/><g class="legendlines"><path class="js-line" d="M5,0h30" style="fill: none; stroke: rgb(128, 0, 128); stroke-opacity: 1; stroke-width: 2px;"/></g><g class="legendsymbols"><g class="legendpoints"/></g></g><rect class="legendtoggle" x="0" y="-9.5" width="122.71875" height="19" style="fill: rgb(0, 0, 0); fill-opacity: 0;"/></g><g class="traces" transform="translate(0,109.5)" style="opacity: 1;"><text class="legendtext" text-anchor="start" x="40" y="4.680000000000001" style="font-family: 'Open Sans', verdana, arial, sans-serif; font-size: 12px; fill: rgb(42, 63, 95); fill-opacity: 1; white-space: pre;">Test Recall</text><g class="layers" style="opacity: 1;"><g class="legendfill"/><g class="legendlines"><path class="js-line" d="M5,0h30" style="fill: none; stroke: rgb(255, 192, 203); stroke-opacity: 1; stroke-width: 2px;"/></g><g class="legendsymbols"><g class="legendpoints"/></g></g><rect class="legendtoggle" x="0" y="-9.5" width="122.71875" height="19" style="fill: rgb(0, 0, 0); fill-opacity: 0;"/></g><g class="traces" transform="translate(0,128.5)" style="opacity: 1;"><text class="legendtext" text-anchor="start" x="40" y="4.680000000000001" style="font-family: 'Open Sans', verdana, arial, sans-serif; font-size: 12px; fill: rgb(42, 63, 95); fill-opacity: 1; white-space: pre;">Train F1</text><g class="layers" style="opacity: 1;"><g class="legendfill"/><g class="legendlines"><path class="js-line" d="M5,0h30" style="fill: none; stroke: rgb(165, 42, 42); stroke-opacity: 1; stroke-width: 2px;"/></g><g class="legendsymbols"><g class="legendpoints"/></g></g><rect class="legendtoggle" x="0" y="-9.5" width="122.71875" height="19" style="fill: rgb(0, 0, 0); fill-opacity: 0;"/></g><g class="traces" transform="translate(0,147.5)" style="opacity: 1;"><text class="legendtext" text-anchor="start" x="40" y="4.680000000000001" style="font-family: 'Open Sans', verdana, arial, sans-serif; font-size: 12px; fill: rgb(42, 63, 95); fill-opacity: 1; white-space: pre;">Test F1</text><g class="layers" style="opacity: 1;"><g class="legendfill"/><g class="legendlines"><path class="js-line" d="M5,0h30" style="fill: none; stroke: rgb(128, 128, 128); stroke-opacity: 1; stroke-width: 2px;"/></g><g class="legendsymbols"><g class="legendpoints"/></g></g><rect class="legendtoggle" x="0" y="-9.5" width="122.71875" height="19" style="fill: rgb(0, 0, 0); fill-opacity: 0;"/></g></g></g><rect class="scrollbar" rx="20" ry="3" width="0" height="0" x="0" y="0" style="fill: rgb(128, 139, 164); fill-opacity: 1;"/></g><g class="g-gtitle"><text class="gtitle" x="51.2" y="50" text-anchor="start" dy="0em" style="font-family: 'Open Sans', verdana, arial, sans-serif; font-size: 17px; fill: rgb(42, 63, 95); opacity: 1; font-weight: normal; white-space: pre;">Training Metrics - logs/FakeNewsNet-politifact_max-vocab=15000_pre=v1_text_T=250_s=10.log</text></g><g class="g-xtitle"><text class="xtitle" x="510" y="537.3" text-anchor="middle" style="font-family: 'Open Sans', verdana, arial, sans-serif; font-size: 14px; fill: rgb(42, 63, 95); opacity: 1; font-weight: normal; white-space: pre;">Epoch</text></g><g class="g-ytitle"><text class="ytitle" transform="rotate(-90,110.965625,298)" x="110.965625" y="298" text-anchor="middle" style="font-family: 'Open Sans', verdana, arial, sans-serif; font-size: 14px; fill: rgb(42, 63, 95); opacity: 1; font-weight: normal; white-space: pre;">Metric Score</text></g></g><g class="menulayer"><g class="updatemenu-container" style="cursor: pointer;"><g class="updatemenu-header-group" transform="translate(12,60)"><g class="updatemenu-header" transform="translate(1,1)" style="pointer-events: all;"><rect class="updatemenu-item-rect" rx="2" ry="2" shape-rendering="crispEdges" x="0" y="0" width="174" height="33" style="stroke: rgb(190, 200, 217); stroke-opacity: 1; fill: rgb(255, 255, 255); fill-opacity: 1; stroke-width: 1px;"/><text class="updatemenu-item-text" text-anchor="start" data-notex="1" x="12" y="19.5" style="font-family: 'Open Sans', verdana, arial, sans-serif; font-size: 12px; fill: rgb(42, 63, 95); fill-opacity: 1; white-space: pre;">All</text></g><text class="updatemenu-header-arrow" text-anchor="end" x="170" y="19.5" style="font-family: 'Open Sans', verdana, arial, sans-serif; font-size: 12px; fill: rgb(42, 63, 95); fill-opacity: 1;">▼</text></g><g class="updatemenu-dropdown-button-group" updatemenu-active-index="-1" style="pointer-events: all;"><rect class="scrollbox-bg" opacity="0" x="0" y="0" width="0" height="0" style="pointer-events: all;"/></g></g></g></svg>