<svg class="main-svg" xmlns="http://www.w3.org/2000/svg" xmlns:xlink="http://www.w3.org/1999/xlink" width="1024" height="576" style="" viewBox="0 0 1024 576"><rect x="0" y="0" width="1024" height="576" style="fill: rgb(255, 255, 255); fill-opacity: 1;"/><defs id="defs-c6eeab"><g class="clips"><clipPath id="clipc6eeabxyplot" class="plotclip"><rect width="734" height="396"/></clipPath><clipPath class="axesclip" id="clipc6eeabx"><rect x="135" y="0" width="734" height="576"/></clipPath><clipPath class="axesclip" id="clipc6eeaby"><rect x="0" y="100" width="1024" height="396"/></clipPath><clipPath class="axesclip" id="clipc6eeabxy"><rect x="135" y="100" width="734" height="396"/></clipPath></g><g class="gradients"/><g class="patterns"/></defs><g class="bglayer"><rect class="bg" x="135" y="100" width="734" height="396" style="fill: rgb(229, 236, 246); fill-opacity: 1; stroke-width: 0;"/></g><g class="layer-below"><g class="imagelayer"/><g class="shapelayer"/></g><g class="cartesianlayer"><g class="subplot xy"><g class="layer-subplot"><g class="shapelayer"/><g class="imagelayer"/></g><g class="minor-gridlayer"><g class="x"/><g class="y"/></g><g class="gridlayer"><g class="x"><path class="xgrid crisp" transform="translate(228.6,0)" d="M0,100v396" style="stroke: rgb(255, 255, 255); stroke-opacity: 1; stroke-width: 1px;"/><path class="xgrid crisp" transform="translate(327.12,0)" d="M0,100v396" style="stroke: rgb(255, 255, 255); stroke-opacity: 1; stroke-width: 1px;"/><path class="xgrid crisp" transform="translate(425.64,0)" d="M0,100v396" style="stroke: rgb(255, 255, 255); stroke-opacity: 1; stroke-width: 1px;"/><path class="xgrid crisp" transform="translate(524.1700000000001,0)" d="M0,100v396" style="stroke: rgb(255, 255, 255); stroke-opacity: 1; stroke-width: 1px;"/><path class="xgrid crisp" transform="translate(622.69,0)" d="M0,100v396" style="stroke: rgb(255, 255, 255); stroke-opacity: 1; stroke-width: 1px;"/><path class="xgrid crisp" transform="translate(721.21,0)" d="M0,100v396" style="stroke: rgb(255, 255, 255); stroke-opacity: 1; stroke-width: 1px;"/><path class="xgrid crisp" transform="translate(819.74,0)" d="M0,100v396" style="stroke: rgb(255, 255, 255); stroke-opacity: 1; stroke-width: 1px;"/></g><g class="y"><path class="ygrid crisp" transform="translate(0,470.07)" d="M135,0h734" style="stroke: rgb(255, 255, 255); stroke-opacity: 1; stroke-width: 1px;"/><path class="ygrid crisp" transform="translate(0,429.17)" d="M135,0h734" style="stroke: rgb(255, 255, 255); stroke-opacity: 1; stroke-width: 1px;"/><path class="ygrid crisp" transform="translate(0,388.28)" d="M135,0h734" style="stroke: rgb(255, 255, 255); stroke-opacity: 1; stroke-width: 1px;"/><path class="ygrid crisp" transform="translate(0,347.38)" d="M135,0h734" style="stroke: rgb(255, 255, 255); stroke-opacity: 1; stroke-width: 1px;"/><path class="ygrid crisp" transform="translate(0,306.49)" d="M135,0h734" style="stroke: rgb(255, 255, 255); stroke-opacity: 1; stroke-width: 1px;"/><path class="ygrid crisp" transform="translate(0,265.59000000000003)" d="M135,0h734" style="stroke: rgb(255, 255, 255); stroke-opacity: 1; stroke-width: 1px;"/><path class="ygrid crisp" transform="translate(0,224.7)" d="M135,0h734" style="stroke: rgb(255, 255, 255); stroke-opacity: 1; stroke-width: 1px;"/><path class="ygrid crisp" transform="translate(0,183.8)" d="M135,0h734" style="stroke: rgb(255, 255, 255); stroke-opacity: 1; stroke-width: 1px;"/><path class="ygrid crisp" transform="translate(0,142.91)" d="M135,0h734" style="stroke: rgb(255, 255, 255); stroke-opacity: 1; stroke-width: 1px;"/><path class="ygrid crisp" transform="translate(0,102.01)" d="M135,0h734" style="stroke: rgb(255, 255, 255); stroke-opacity: 1; stroke-width: 1px;"/></g></g><g class="zerolinelayer"/><path class="xlines-below"/><path class="ylines-below"/><g class="overlines-below"/><g class="xaxislayer-below"/><g class="yaxislayer-below"/><g class="overaxes-below"/><g class="plot" transform="translate(135,100)" clip-path="url(#clipc6eeabxyplot)"><g class="scatterlayer mlayer"><g class="trace scatter trace8348ad" style="stroke-miterlimit: 2; opacity: 1;"><g class="fills"/><g class="errorbars"/><g class="lines"><path class="js-line" d="M0,240.02L4.93,68.47L9.85,143.3L14.78,43.11L19.7,137.58L24.63,28.39L29.56,19.8L34.48,118.56L39.41,135.12L44.34,121.63L49.26,127.56L54.19,129.19L59.11,116.31L64.04,105.68L68.97,123.06L73.89,120.4L78.82,123.47L83.74,130.42L88.67,112.84L93.6,110.59L98.52,110.38L103.45,114.06L108.38,122.86L113.3,123.26L118.23,126.94L123.15,121.63L128.08,121.42L133.01,121.42L137.93,119.79L142.86,120.61L147.79,117.33L157.64,101.79L162.56,112.84L172.42,113.25L177.34,122.04L192.12,117.13L197.05,116.93L201.97,113.86L206.9,112.63L211.83,111.4L216.75,113.65L221.68,115.9L226.6,127.76L231.53,121.42L236.46,111.61L241.38,113.86L246.31,113.25L251.23,107.52L256.16,112.84L261.09,111.61L266.01,112.63L270.94,118.77L275.87,118.77L280.79,112.63L285.72,116.31L290.64,110.59L295.57,115.7L300.5,121.02L305.42,119.58L310.35,124.08L315.28,123.06L325.13,114.47L330.05,113.65L339.91,118.15L344.83,116.11L349.76,116.31L354.68,124.29L364.54,116.52L369.46,126.54L374.39,129.81L379.32,130.01L384.24,141.05L389.17,138.6L394.09,131.65L399.02,122.86L403.95,118.77L408.87,129.81L418.72,127.15L423.65,122.65L428.58,121.42L433.5,128.58L438.43,126.74L443.36,120.2L448.28,133.69L453.21,126.74L458.13,120.61L463.06,121.22L467.99,126.33L472.91,123.06L477.84,123.88L482.77,126.13L487.69,117.13L492.62,117.74L497.54,110.59L502.47,115.49L507.4,120.2L512.32,106.29L517.25,112.22L522.17,113.45L527.1,123.06L532.03,118.77L536.95,116.72L541.88,117.33L546.81,115.49L551.73,116.11L556.66,115.49L561.58,127.15L566.51,126.74L571.44,122.45L576.36,120.81L581.29,118.15L586.21,116.31L591.14,123.06L596.07,118.56L600.99,116.11L605.92,127.15L610.85,129.4L615.77,125.72L620.7,123.26L625.62,124.08L630.55,122.65L635.48,126.33L640.4,127.35L645.33,118.77L650.26,124.08L660.11,131.24L665.03,125.72L669.96,137.58L674.89,129.6L679.81,128.17L684.74,125.1L689.66,127.15L694.59,135.33L699.52,135.53L704.44,137.99L709.37,134.1L714.3,129.19L719.22,132.47L724.15,137.58L729.07,145.76L734,146.78" style="vector-effect: none; fill: none; stroke: rgb(255, 0, 0); stroke-opacity: 1; stroke-width: 2px; opacity: 1;"/></g><g class="points"/><g class="text"/></g><g class="trace scatter trace087e08" style="stroke-miterlimit: 2; opacity: 1;"><g class="fills"/><g class="errorbars"/><g class="lines"><path class="js-line" d="M0,251.88L4.93,63.97L9.85,162.73L14.78,42.09L19.7,162.32L24.63,20.41L29.56,20L34.48,156.18L39.41,163.14L44.34,151.07L49.26,154.34L54.19,151.69L59.11,141.46L64.04,141.05L68.97,162.32L73.89,149.23L78.82,152.5L83.74,164.57L88.67,152.5L93.6,151.69L98.52,153.94L103.45,156.59L108.38,172.34L113.3,170.91L118.23,172.34L123.15,164.98L128.08,161.71L133.01,163.55L137.93,158.03L142.86,161.71L147.79,153.94L152.71,139.21L157.64,130.83L162.56,152.1L167.49,144.73L172.42,155.37L177.34,163.14L182.27,162.73L187.19,156.59L192.12,154.34L197.05,167.23L201.97,146.57L206.9,158.03L211.83,159.46L216.75,161.71L226.6,174.79L231.53,170.91L236.46,157.62L241.38,158.43L246.31,157.62L251.23,154.75L256.16,157.21L261.09,154.34L266.01,152.5L270.94,155.37L275.87,153.94L280.79,148.82L285.72,152.91L290.64,146.98L295.57,158.43L300.5,161.3L305.42,163.14L310.35,170.91L315.28,157.62L320.2,149.23L325.13,142.28L330.05,144.12L334.98,141.87L339.91,141.87L344.83,150.66L349.76,155.78L354.68,160.48L359.61,157.62L364.54,167.84L369.46,170.09L374.39,168.66L379.32,171.52L384.24,180.31L389.17,172.95L394.09,169.07L399.02,168.66L403.95,164.98L408.87,168.66L418.72,159.46L423.65,159.87L428.58,163.55L433.5,164.16L438.43,172.95L443.36,172.34L448.28,181.54L453.21,170.5L458.13,161.71L463.06,168.25L467.99,167.84L472.91,170.09L477.84,172.95L482.77,172.95L492.62,171.52L497.54,165.39L507.4,178.88L512.32,160.48L517.25,168.25L522.17,159.05L527.1,164.16L532.03,158.03L536.95,161.71L541.88,160.48L546.81,161.71L551.73,149.23L556.66,152.5L561.58,170.09L566.51,166.41L571.44,166L576.36,161.71L581.29,159.87L586.21,154.75L591.14,159.87L596.07,165.39L600.99,154.34L605.92,168.25L610.85,166.41L615.77,170.5L620.7,169.07L625.62,164.57L630.55,169.68L635.48,166L640.4,164.98L645.33,165.39L650.26,159.46L655.18,164.57L660.11,173.77L665.03,159.05L669.96,173.36L674.89,168.66L679.81,167.23L684.74,159.46L689.66,167.84L694.59,173.36L699.52,172.95L704.44,178.88L709.37,179.29L714.3,173.77L719.22,173.36L724.15,182.97L729.07,183.38L734,190.33" style="vector-effect: none; fill: none; stroke: rgb(0, 0, 255); stroke-opacity: 1; stroke-width: 2px; opacity: 1;"/></g><g class="points"/><g class="text"/></g><g class="trace scatter trace6f8783" style="stroke-miterlimit: 2; opacity: 1;"><g class="fills"/><g class="errorbars"/><g class="lines"><path class="js-line" d="M0,376.2L4.93,236.34L9.85,306.68L14.78,189.11L19.7,304.02L24.63,153.94L29.56,139.62L34.48,283.98L39.41,294L44.34,284.6L49.26,288.68L54.19,289.71L59.11,280.1L64.04,269.26L68.97,284.39L73.89,280.1L78.82,280.1L83.74,284.8L88.67,269.67L98.52,267.62L103.45,269.67L108.38,276.21L113.3,276.21L118.23,278.46L123.15,273.35L128.08,270.69L133.01,273.14L137.93,276.21L142.86,272.33L147.79,270.9L152.71,267.62L157.64,257.81L162.56,266.19L172.42,266.6L177.34,273.76L182.27,271.92L187.19,272.74L192.12,271.1L197.05,271.71L201.97,270.08L206.9,266.4L211.83,265.58L216.75,266.19L221.68,269.67L226.6,278.26L231.53,274.37L236.46,265.78L241.38,265.99L246.31,265.17L251.23,262.31L256.16,265.78L266.01,263.94L270.94,270.28L275.87,268.65L280.79,265.17L285.72,267.01L290.64,263.13L300.5,270.69L305.42,269.67L315.28,274.78L320.2,272.53L325.13,268.65L330.05,267.21L334.98,269.87L339.91,270.28L344.83,268.85L349.76,269.26L354.68,274.17L359.61,271.71L364.54,268.65L369.46,275.6L374.39,277.44L379.32,276.83L384.24,283.78L389.17,282.55L394.09,278.26L399.02,271.92L403.95,269.06L408.87,276.83L418.72,277.03L423.65,272.53L428.58,271.3L433.5,276.83L438.43,277.85L443.36,271.71L448.28,282.96L453.21,277.64L458.13,273.55L463.06,272.33L467.99,274.78L472.91,272.12L482.77,274.17L487.69,267.83L492.62,267.42L497.54,263.74L502.47,266.4L507.4,270.69L512.32,261.29L517.25,265.58L522.17,267.62L527.1,274.17L532.03,271.71L536.95,271.51L546.81,267.42L551.73,269.26L556.66,269.26L561.58,278.05L566.51,279.07L571.44,272.33L576.36,271.71L581.29,272.33L586.21,268.65L591.14,275.8L596.07,272.12L600.99,272.33L605.92,280.3L610.85,281.12L615.77,277.23L620.7,275.6L625.62,278.05L630.55,277.64L635.48,280.71L640.4,281.12L645.33,273.55L650.26,277.44L660.11,283.57L665.03,279.69L669.96,287.46L674.89,279.69L684.74,277.44L689.66,278.67L694.59,283.37L699.52,283.16L704.44,283.98L709.37,280.91L714.3,277.85L719.22,279.69L729.07,288.48L734,290.73" style="vector-effect: none; fill: none; stroke: rgb(0, 128, 0); stroke-opacity: 1; stroke-width: 2px; opacity: 1;"/></g><g class="points"/><g class="text"/></g><g class="trace scatter trace6b59d4" style="stroke-miterlimit: 2; opacity: 1;"><g class="fills"/><g class="errorbars"/><g class="lines"><path class="js-line" d="M0,375.59L4.93,226.93L9.85,318.95L14.78,187.47L19.7,322.42L24.63,136.15L29.56,139.42L34.48,318.95L39.41,315.88L44.34,309.54L49.26,312.61L54.19,305.04L59.11,301.98L64.04,304.63L68.97,319.76L73.89,305.86L78.82,306.07L83.74,314.65L88.67,308.93L93.6,310.36L98.52,309.54L103.45,309.75L108.38,323.04L113.3,319.97L118.23,317.92L128.08,309.34L133.01,311.79L137.93,311.18L142.86,312.2L152.71,296.66L157.64,285.62L162.56,302.79L167.49,295.64L172.42,307.09L177.34,312.81L182.27,312.4L187.19,308.31L192.12,305.45L197.05,318.13L201.97,300.54L206.9,310.36L211.83,309.75L216.75,310.15L221.68,321.61L226.6,320.17L231.53,319.76L236.46,311.18L241.38,306.88L246.31,307.5L251.23,307.29L256.16,306.27L261.09,304.22L266.01,300.95L270.94,303.82L275.87,300.34L280.79,300.14L285.72,302.38L290.64,296.45L295.57,308.52L300.5,306.68L305.42,309.13L310.35,314.45L315.28,305.25L320.2,297.89L325.13,291.96L330.05,293.59L334.98,293.8L339.91,291.96L344.83,303.41L349.76,307.5L354.68,306.68L359.61,306.68L364.54,317.92L369.46,317.11L374.39,314.65L379.32,315.88L384.24,318.95L389.17,312.61L394.09,313.22L399.02,315.47L403.95,314.65L413.8,306.27L418.72,306.07L423.65,307.29L428.58,310.36L433.5,310.15L438.43,322.22L443.36,323.24L448.28,329.78L458.13,313.02L463.06,316.29L467.99,313.43L472.91,316.08L477.84,317.92L482.77,315.88L487.69,320.58L492.62,318.54L497.54,316.49L502.47,319.97L507.4,323.45L512.32,314.45L517.25,318.54L522.17,309.75L527.1,310.97L532.03,308.11L536.95,312.81L541.88,308.11L546.81,310.77L551.73,300.34L556.66,303.61L561.58,316.29L566.51,314.45L571.44,314.24L576.36,311.59L581.29,312.4L586.21,304.22L591.14,310.56L596.07,318.74L600.99,307.7L605.92,317.11L610.85,313.84L615.77,319.97L620.7,317.92L625.62,313.63L630.55,319.97L635.48,315.47L640.4,314.04L645.33,315.88L650.26,309.75L655.18,312.81L660.11,320.79L665.03,307.91L669.96,316.9L674.89,313.02L679.81,314.04L684.74,309.13L689.66,314.65L694.59,318.33L699.52,316.08L704.44,319.56L709.37,320.17L714.3,317.31L719.22,315.88L724.15,323.04L729.07,316.9L734,324.67" style="vector-effect: none; fill: none; stroke: rgb(255, 165, 0); stroke-opacity: 1; stroke-width: 2px; opacity: 1;"/></g><g class="points"/><g class="text"/></g><g class="trace scatter tracef1872d" style="stroke-miterlimit: 2; opacity: 1;"><g class="fills"/><g class="errorbars"/><g class="lines"><path class="js-line" d="M0,308.52L4.93,317.72L9.85,265.58L14.78,303.82L19.7,269.06L24.63,305.04L29.56,288.48L34.48,254.13L39.41,246.77L44.34,248.61L49.26,247.79L54.19,246.77L59.11,247.99L64.04,242.27L68.97,245.13L78.82,231.84L83.74,231.02L88.67,224.48L93.6,227.14L103.45,222.03L108.38,222.03L118.23,221L123.15,216.71L128.08,210.37L133.01,216.71L137.93,228.57L142.86,215.89L147.79,218.55L152.71,226.12L157.64,214.66L162.56,214.05L167.49,215.07L172.42,214.46L177.34,216.91L182.27,215.48L187.19,219.98L192.12,219.57L201.97,223.66L206.9,215.48L211.83,216.1L216.75,212.62L221.68,217.73L226.6,218.75L231.53,220.19L236.46,216.1L241.38,211.6L246.31,210.78L251.23,215.07L256.16,213.44L261.09,212.62L266.01,208.53L270.94,213.64L275.87,209.35L280.79,211.8L285.72,209.96L295.57,211.39L300.5,210.98L310.35,209.76L315.28,218.14L320.2,219.37L325.13,218.14L330.05,215.48L334.98,218.55L339.91,214.87L344.83,214.87L349.76,215.89L354.68,214.05L364.54,213.44L369.46,214.05L374.39,213.64L379.32,211.6L394.09,212.21L399.02,210.37L403.95,210.37L408.87,211.39L413.8,213.03L418.72,216.3L423.65,212.42L428.58,211.6L433.5,214.05L438.43,219.37L443.36,214.87L448.28,221L453.21,218.75L458.13,219.37L463.06,214.66L467.99,212.42L472.91,210.98L477.84,212.01L482.77,210.78L487.69,210.37L492.62,207.92L497.54,212.21L502.47,209.35L507.4,212.42L512.32,214.66L517.25,214.26L522.17,217.12L527.1,216.71L532.03,218.14L536.95,221.41L541.88,213.85L546.81,212.42L551.73,216.3L556.66,217.73L561.58,219.16L566.51,222.84L571.44,212.21L576.36,214.26L581.29,221.21L586.21,214.46L591.14,220.8L596.07,219.57L600.99,224.68L605.92,225.3L610.85,223.66L615.77,219.98L620.7,219.57L625.62,225.09L635.48,227.96L640.4,227.14L645.33,223.05L650.26,223.46L660.11,226.73L665.03,226.32L669.96,226.12L674.89,219.37L679.81,219.78L684.74,221.41L699.52,218.75L704.44,216.71L709.37,215.07L714.3,215.48L719.22,214.87L724.15,218.96L729.07,216.71L734,220.59" style="vector-effect: none; fill: none; stroke: rgb(128, 0, 128); stroke-opacity: 1; stroke-width: 2px; opacity: 1;"/></g><g class="points"/><g class="text"/></g><g class="trace scatter trace8e450a" style="stroke-miterlimit: 2; opacity: 1;"><g class="fills"/><g class="errorbars"/><g class="lines"><path class="js-line" d="M0,301.16L4.93,309.54L9.85,266.81L14.78,295.23L19.7,275.6L24.63,294.61L29.56,285.82L34.48,276.21L39.41,259.24L44.34,261.08L49.26,263.94L54.19,249.63L59.11,258.63L64.04,266.19L68.97,269.06L73.89,255.36L78.82,250.86L88.67,257.4L93.6,262.72L98.52,256.99L103.45,253.72L108.38,263.33L113.3,258.42L118.23,252.29L123.15,251.88L128.08,245.95L133.01,249.02L137.93,255.15L142.86,252.49L147.79,245.95L152.71,248.61L157.64,234.7L162.56,243.29L167.49,237.16L172.42,249.43L177.34,252.08L182.27,251.67L187.19,250.45L192.12,246.97L197.05,258.63L201.97,246.36L206.9,253.31L211.83,249.63L216.75,247.79L221.68,264.76L226.6,254.33L231.53,257.81L236.46,255.56L241.38,244.31L251.23,250.45L256.16,244.72L261.09,243.7L266.01,238.38L270.94,241.66L275.87,235.52L280.79,241.86L285.72,241.45L290.64,235.52L295.57,248.4L300.5,240.22L305.42,243.5L310.35,246.15L315.28,241.86L320.2,235.73L325.13,231.84L330.05,233.07L334.98,236.75L339.91,232.05L344.83,246.97L349.76,249.83L354.68,241.66L359.61,245.13L364.54,257.6L374.39,249.02L379.32,249.02L384.24,246.15L389.17,240.02L399.02,251.06L403.95,253.92L408.87,240.63L413.8,236.34L418.72,241.04L423.65,243.29L428.58,245.74L433.5,244.72L438.43,261.08L443.36,263.94L448.28,267.42L453.21,262.1L458.13,254.33L463.06,253.31L467.99,247.79L472.91,250.65L477.84,251.88L482.77,247.18L487.69,258.01L492.62,254.95L497.54,257.4L502.47,257.2L507.4,257.2L512.32,259.24L517.25,258.63L522.17,250.65L527.1,246.77L532.03,247.99L536.95,253.72L541.88,244.93L546.81,249.22L551.73,241.66L556.66,244.93L561.58,251.27L571.44,251.88L576.36,251.06L581.29,255.15L586.21,243.29L591.14,251.27L596.07,262.72L600.99,252.08L605.92,255.36L610.85,250.24L615.77,258.83L625.62,252.29L630.55,260.26L635.48,254.54L640.4,252.49L645.33,256.17L650.26,249.63L655.18,250.24L660.11,256.99L665.03,245.95L669.96,248.81L674.89,245.74L679.81,249.43L684.74,248.2L689.66,250.45L694.59,252.08L699.52,247.99L709.37,249.63L714.3,249.22L719.22,246.97L724.15,252.08L729.07,238.59L734,248.4" style="vector-effect: none; fill: none; stroke: rgb(255, 192, 203); stroke-opacity: 1; stroke-width: 2px; opacity: 1;"/></g><g class="points"/><g class="text"/></g><g class="trace scatter trace6d0a88" style="stroke-miterlimit: 2; opacity: 1;"><g class="fills"/><g class="errorbars"/><g class="lines"><path class="js-line" d="M0,364.34L4.93,289.3L9.85,290.93L14.78,267.01L19.7,289.91L24.63,261.49L29.56,243.9L34.48,271.3L39.41,276.42L44.34,269.87L49.26,272.74L54.19,273.14L59.11,266.6L64.04,257.4L68.97,268.85L73.89,263.53L78.82,261.9L83.74,265.58L88.67,252.08L93.6,252.08L98.52,250.65L103.45,251.47L108.38,256.58L113.3,256.58L118.23,258.42L123.15,253.31L128.08,249.83L133.01,253.11L137.93,258.22L142.86,252.29L147.79,251.67L152.71,251.06L157.64,240.63L162.56,246.77L167.49,247.38L172.42,247.18L177.34,253.51L182.27,251.67L187.19,253.31L192.12,252.08L197.05,252.9L201.97,252.08L206.9,247.18L216.75,246.36L221.68,250.45L226.6,257.81L231.53,254.74L236.46,246.97L241.38,245.95L246.31,245.34L251.23,243.9L256.16,246.36L261.09,245.34L266.01,243.7L270.94,250.04L280.79,245.54L285.72,246.56L290.64,243.7L295.57,246.97L300.5,249.83L305.42,248.81L310.35,251.27L315.28,254.74L320.2,253.11L325.13,249.63L330.05,247.99L334.98,250.86L344.83,249.02L349.76,249.63L354.68,253.51L359.61,251.27L364.54,248.61L369.46,254.74L374.39,256.38L379.32,255.56L384.24,262.31L389.17,261.08L394.09,256.99L399.02,250.86L403.95,248.4L408.87,255.36L418.72,256.38L423.65,251.67L428.58,250.65L433.5,255.97L438.43,257.6L443.36,251.47L448.28,262.31L453.21,257.2L458.13,253.92L463.06,251.88L467.99,253.92L472.91,251.27L482.77,252.9L487.69,247.38L492.62,246.56L497.54,244.52L502.47,245.95L507.4,250.24L512.32,243.09L517.25,246.36L522.17,248.61L527.1,253.92L532.03,252.08L536.95,252.7L541.88,249.22L546.81,247.38L551.73,249.63L556.66,250.04L561.58,257.6L566.51,259.24L571.44,251.47L576.36,251.47L581.29,253.31L586.21,249.02L591.14,255.97L596.07,252.7L600.99,254.13L605.92,260.67L610.85,261.08L615.77,257.2L620.7,255.56L625.62,258.83L630.55,258.83L635.48,261.49L640.4,261.9L645.33,254.74L660.11,263.74L665.03,260.47L669.96,267.21L674.89,259.24L684.74,257.6L689.66,258.42L694.59,262.51L699.52,262.31L704.44,262.92L709.37,259.85L714.3,256.99L719.22,258.63L724.15,263.74L729.07,267.42L734,269.87" style="vector-effect: none; fill: none; stroke: rgb(165, 42, 42); stroke-opacity: 1; stroke-width: 2px; opacity: 1;"/></g><g class="points"/><g class="text"/></g><g class="trace scatter trace6a092a" style="stroke-miterlimit: 2; opacity: 1;"><g class="fills"/><g class="errorbars"/><g class="lines"><path class="js-line" d="M0,366.59L4.93,280.51L9.85,301.57L14.78,259.44L19.7,306.07L24.63,249.02L29.56,241.66L34.48,303.2L39.41,297.68L44.34,292.16L49.26,295.43L54.19,286.44L59.11,285.62L64.04,289.5L68.97,302.38L73.89,288.07L78.82,287.66L83.74,296.05L88.67,291.14L93.6,293.39L98.52,291.55L103.45,291.34L108.38,304.84L118.23,299.32L123.15,295.02L128.08,290.12L133.01,292.77L142.86,293.59L147.79,285.82L152.71,279.07L157.64,267.01L162.56,283.57L167.49,276.21L172.42,288.48L177.34,294L182.27,293.59L187.19,289.71L192.12,286.64L197.05,299.73L201.97,281.94L206.9,291.96L211.83,290.73L216.75,291.14L221.68,303.61L226.6,301.77L231.53,301.36L236.46,292.77L241.38,287.66L246.31,288.48L251.23,288.68L256.16,287.05L261.09,285L266.01,281.32L270.94,284.39L275.87,280.71L280.79,280.91L285.72,282.96L290.64,276.62L295.57,289.71L300.5,287.25L305.42,289.91L310.35,295.43L315.28,285.82L320.2,278.05L325.13,272.12L330.05,273.76L334.98,274.37L339.91,272.12L344.83,284.6L349.76,288.89L354.68,287.46L359.61,287.46L364.54,299.52L369.46,298.5L374.39,295.64L379.32,297.27L384.24,300.75L389.17,293.59L394.09,294.21L399.02,296.66L403.95,296.05L413.8,286.84L418.72,286.44L423.65,287.87L428.58,291.14L433.5,290.93L438.43,304.02L443.36,305.25L448.28,311.99L458.13,294.41L463.06,297.68L467.99,294.61L472.91,297.27L477.84,299.32L482.77,297.07L487.69,302.18L492.62,300.14L497.54,298.09L502.47,301.57L507.4,305.25L512.32,296.25L517.25,300.34L522.17,291.14L527.1,291.96L532.03,289.3L536.95,294.21L541.88,288.89L546.81,291.96L551.73,281.12L556.66,284.6L561.58,297.68L566.51,295.64L571.44,295.64L576.36,292.77L581.29,293.8L586.21,285L591.14,291.96L596.07,300.75L600.99,289.3L605.92,298.5L610.85,295.02L615.77,301.57L620.7,299.32L625.62,295.02L630.55,301.77L635.48,296.86L640.4,295.43L645.33,297.48L650.26,290.73L655.18,294L660.11,302.59L665.03,288.68L669.96,298.3L674.89,294.21L679.81,295.23L684.74,290.12L689.66,295.84L694.59,299.73L699.52,297.48L704.44,301.16L709.37,301.98L714.3,298.7L719.22,297.27L724.15,305.25L729.07,299.11L734,307.7" style="vector-effect: none; fill: none; stroke: rgb(128, 128, 128); stroke-opacity: 1; stroke-width: 2px; opacity: 1;"/></g><g class="points"/><g class="text"/></g></g></g><g class="overplot"/><path class="xlines-above crisp" d="M0,0" style="fill: none;"/><path class="ylines-above crisp" d="M0,0" style="fill: none;"/><g class="overlines-above"/><g class="xaxislayer-above"><g class="xtick"><text text-anchor="middle" x="0" y="509" transform="translate(228.6,0)" style="font-family: 'Open Sans', verdana, arial, sans-serif; font-size: 12px; fill: rgb(42, 63, 95); fill-opacity: 1; white-space: pre; opacity: 1;">20</text></g><g class="xtick"><text text-anchor="middle" x="0" y="509" style="font-family: 'Open Sans', verdana, arial, sans-serif; font-size: 12px; fill: rgb(42, 63, 95); fill-opacity: 1; white-space: pre; opacity: 1;" transform="translate(327.12,0)">40</text></g><g class="xtick"><text text-anchor="middle" x="0" y="509" style="font-family: 'Open Sans', verdana, arial, sans-serif; font-size: 12px; fill: rgb(42, 63, 95); fill-opacity: 1; white-space: pre; opacity: 1;" transform="translate(425.64,0)">60</text></g><g class="xtick"><text text-anchor="middle" x="0" y="509" style="font-family: 'Open Sans', verdana, arial, sans-serif; font-size: 12px; fill: rgb(42, 63, 95); fill-opacity: 1; white-space: pre; opacity: 1;" transform="translate(524.1700000000001,0)">80</text></g><g class="xtick"><text text-anchor="middle" x="0" y="509" style="font-family: 'Open Sans', verdana, arial, sans-serif; font-size: 12px; fill: rgb(42, 63, 95); fill-opacity: 1; white-space: pre; opacity: 1;" transform="translate(622.69,0)">100</text></g><g class="xtick"><text text-anchor="middle" x="0" y="509" style="font-family: 'Open Sans', verdana, arial, sans-serif; font-size: 12px; fill: rgb(42, 63, 95); fill-opacity: 1; white-space: pre; opacity: 1;" transform="translate(721.21,0)">120</text></g><g class="xtick"><text text-anchor="middle" x="0" y="509" style="font-family: 'Open Sans', verdana, arial, sans-serif; font-size: 12px; fill: rgb(42, 63, 95); fill-opacity: 1; white-space: pre; opacity: 1;" transform="translate(819.74,0)">140</text></g></g><g class="yaxislayer-above"><g class="ytick"><text text-anchor="end" x="134" y="4.199999999999999" transform="translate(0,470.07)" style="font-family: 'Open Sans', verdana, arial, sans-serif; font-size: 12px; fill: rgb(42, 63, 95); fill-opacity: 1; white-space: pre; opacity: 1;">64</text></g><g class="ytick"><text text-anchor="end" x="134" y="4.199999999999999" style="font-family: 'Open Sans', verdana, arial, sans-serif; font-size: 12px; fill: rgb(42, 63, 95); fill-opacity: 1; white-space: pre; opacity: 1;" transform="translate(0,429.17)">66</text></g><g class="ytick"><text text-anchor="end" x="134" y="4.199999999999999" style="font-family: 'Open Sans', verdana, arial, sans-serif; font-size: 12px; fill: rgb(42, 63, 95); fill-opacity: 1; white-space: pre; opacity: 1;" transform="translate(0,388.28)">68</text></g><g class="ytick"><text text-anchor="end" x="134" y="4.199999999999999" style="font-family: 'Open Sans', verdana, arial, sans-serif; font-size: 12px; fill: rgb(42, 63, 95); fill-opacity: 1; white-space: pre; opacity: 1;" transform="translate(0,347.38)">70</text></g><g class="ytick"><text text-anchor="end" x="134" y="4.199999999999999" style="font-family: 'Open Sans', verdana, arial, sans-serif; font-size: 12px; fill: rgb(42, 63, 95); fill-opacity: 1; white-space: pre; opacity: 1;" transform="translate(0,306.49)">72</text></g><g class="ytick"><text text-anchor="end" x="134" y="4.199999999999999" style="font-family: 'Open Sans', verdana, arial, sans-serif; font-size: 12px; fill: rgb(42, 63, 95); fill-opacity: 1; white-space: pre; opacity: 1;" transform="translate(0,265.59000000000003)">74</text></g><g class="ytick"><text text-anchor="end" x="134" y="4.199999999999999" style="font-family: 'Open Sans', verdana, arial, sans-serif; font-size: 12px; fill: rgb(42, 63, 95); fill-opacity: 1; white-space: pre; opacity: 1;" transform="translate(0,224.7)">76</text></g><g class="ytick"><text text-anchor="end" x="134" y="4.199999999999999" style="font-family: 'Open Sans', verdana, arial, sans-serif; font-size: 12px; fill: rgb(42, 63, 95); fill-opacity: 1; white-space: pre; opacity: 1;" transform="translate(0,183.8)">78</text></g><g class="ytick"><text text-anchor="end" x="134" y="4.199999999999999" style="font-family: 'Open Sans', verdana, arial, sans-serif; font-size: 12px; fill: rgb(42, 63, 95); fill-opacity: 1; white-space: pre; opacity: 1;" transform="translate(0,142.91)">80</text></g><g class="ytick"><text text-anchor="end" x="134" y="4.199999999999999" style="font-family: 'Open Sans', verdana, arial, sans-serif; font-size: 12px; fill: rgb(42, 63, 95); fill-opacity: 1; white-space: pre; opacity: 1;" transform="translate(0,102.01)">82</text></g></g><g class="overaxes-above"/></g></g><g class="polarlayer"/><g class="smithlayer"/><g class="ternarylayer"/><g class="geolayer"/><g class="funnelarealayer"/><g class="pielayer"/><g class="iciclelayer"/><g class="treemaplayer"/><g class="sunburstlayer"/><g class="glimages"/><defs id="topdefs-c6eeab"><g class="clips"/><clipPath id="legendc6eeab"><rect width="128" height="162" x="0" y="0"/></clipPath></defs><g class="layer-above"><g class="imagelayer"/><g class="shapelayer"/></g><g class="infolayer"><g class="legend" pointer-events="all" transform="translate(883.6800000000001,100)"><rect class="bg" shape-rendering="crispEdges" width="128" height="162" x="0" y="0" style="stroke: rgb(68, 68, 68); stroke-opacity: 1; fill: rgb(255, 255, 255); fill-opacity: 1; stroke-width: 0px;"/><g class="scrollbox" transform="" clip-path="url(#legendc6eeab)"><g class="groups"><g class="traces" transform="translate(0,14.5)" style="opacity: 1;"><text class="legendtext" text-anchor="start" x="40" y="4.680000000000001" style="font-family: 'Open Sans', verdana, arial, sans-serif; font-size: 12px; fill: rgb(42, 63, 95); fill-opacity: 1; white-space: pre;">Train Accuracy</text><g class="layers" style="opacity: 1;"><g class="legendfill"/><g class="legendlines"><path class="js-line" d="M5,0h30" style="fill: none; stroke: rgb(255, 0, 0); stroke-opacity: 1; stroke-width: 2px;"/></g><g class="legendsymbols"><g class="legendpoints"/></g></g><rect class="legendtoggle" x="0" y="-9.5" width="122.71875" height="19" style="fill: rgb(0, 0, 0); fill-opacity: 0;"/></g><g class="traces" transform="translate(0,33.5)" style="opacity: 1;"><text class="legendtext" text-anchor="start" x="40" y="4.680000000000001" style="font-family: 'Open Sans', verdana, arial, sans-serif; font-size: 12px; fill: rgb(42, 63, 95); fill-opacity: 1; white-space: pre;">Test Accuracy</text><g class="layers" style="opacity: 1;"><g class="legendfill"/><g class="legendlines"><path class="js-line" d="M5,0h30" style="fill: none; stroke: rgb(0, 0, 255); stroke-opacity: 1; stroke-width: 2px;"/></g><g class="legendsymbols"><g class="legendpoints"/></g></g><rect class="legendtoggle" x="0" y="-9.5" width="122.71875" height="19" style="fill: rgb(0, 0, 0); fill-opacity: 0;"/></g><g class="traces" transform="translate(0,52.5)" style="opacity: 1;"><text class="legendtext" text-anchor="start" x="40" y="4.680000000000001" style="font-family: 'Open Sans', verdana, arial, sans-serif; font-size: 12px; fill: rgb(42, 63, 95); fill-opacity: 1; white-space: pre;">Train Precision</text><g class="layers" style="opacity: 1;"><g class="legendfill"/><g class="legendlines"><path class="js-line" d="M5,0h30" style="fill: none; stroke: rgb(0, 128, 0); stroke-opacity: 1; stroke-width: 2px;"/></g><g class="legendsymbols"><g class="legendpoints"/></g></g><rect class="legendtoggle" x="0" y="-9.5" width="122.71875" height="19" style="fill: rgb(0, 0, 0); fill-opacity: 0;"/></g><g class="traces" transform="translate(0,71.5)" style="opacity: 1;"><text class="legendtext" text-anchor="start" x="40" y="4.680000000000001" style="font-family: 'Open Sans', verdana, arial, sans-serif; font-size: 12px; fill: rgb(42, 63, 95); fill-opacity: 1; white-space: pre;">Test Precision</text><g class="layers" style="opacity: 1;"><g class="legendfill"/><g class="legendlines"><path class="js-line" d="M5,0h30" style="fill: none; stroke: rgb(255, 165, 0); stroke-opacity: 1; stroke-width: 2px;"/></g><g class="legendsymbols"><g class="legendpoints"/></g></g><rect class="legendtoggle" x="0" y="-9.5" width="122.71875" height="19" style="fill: rgb(0, 0, 0); fill-opacity: 0;"/></g><g class="traces" transform="translate(0,90.5)" style="opacity: 1;"><text class="legendtext" text-anchor="start" x="40" y="4.680000000000001" style="font-family: 'Open Sans', verdana, arial, sans-serif; font-size: 12px; fill: rgb(42, 63, 95); fill-opacity: 1; white-space: pre;">Train Recall</text><g class="layers" style="opacity: 1;"><g class="legendfill"/><g class="legendlines"><path class="js-line" d="M5,0h30" style="fill: none; stroke: rgb(128, 0, 128); stroke-opacity: 1; stroke-width: 2px;"/></g><g class="legendsymbols"><g class="legendpoints"/></g></g><rect class="legendtoggle" x="0" y="-9.5" width="122.71875" height="19" style="fill: rgb(0, 0, 0); fill-opacity: 0;"/></g><g class="traces" transform="translate(0,109.5)" style="opacity: 1;"><text class="legendtext" text-anchor="start" x="40" y="4.680000000000001" style="font-family: 'Open Sans', verdana, arial, sans-serif; font-size: 12px; fill: rgb(42, 63, 95); fill-opacity: 1; white-space: pre;">Test Recall</text><g class="layers" style="opacity: 1;"><g class="legendfill"/><g class="legendlines"><path class="js-line" d="M5,0h30" style="fill: none; stroke: rgb(255, 192, 203); stroke-opacity: 1; stroke-width: 2px;"/></g><g class="legendsymbols"><g class="legendpoints"/></g></g><rect class="legendtoggle" x="0" y="-9.5" width="122.71875" height="19" style="fill: rgb(0, 0, 0); fill-opacity: 0;"/></g><g class="traces" transform="translate(0,128.5)" style="opacity: 1;"><text class="legendtext" text-anchor="start" x="40" y="4.680000000000001" style="font-family: 'Open Sans', verdana, arial, sans-serif; font-size: 12px; fill: rgb(42, 63, 95); fill-opacity: 1; white-space: pre;">Train F1</text><g class="layers" style="opacity: 1;"><g class="legendfill"/><g class="legendlines"><path class="js-line" d="M5,0h30" style="fill: none; stroke: rgb(165, 42, 42); stroke-opacity: 1; stroke-width: 2px;"/></g><g class="legendsymbols"><g class="legendpoints"/></g></g><rect class="legendtoggle" x="0" y="-9.5" width="122.71875" height="19" style="fill: rgb(0, 0, 0); fill-opacity: 0;"/></g><g class="traces" transform="translate(0,147.5)" style="opacity: 1;"><text class="legendtext" text-anchor="start" x="40" y="4.680000000000001" style="font-family: 'Open Sans', verdana, arial, sans-serif; font-size: 12px; fill: rgb(42, 63, 95); fill-opacity: 1; white-space: pre;">Test F1</text><g class="layers" style="opacity: 1;"><g class="legendfill"/><g class="legendlines"><path class="js-line" d="M5,0h30" style="fill: none; stroke: rgb(128, 128, 128); stroke-opacity: 1; stroke-width: 2px;"/></g><g class="legendsymbols"><g class="legendpoints"/></g></g><rect class="legendtoggle" x="0" y="-9.5" width="122.71875" height="19" style="fill: rgb(0, 0, 0); fill-opacity: 0;"/></g></g></g><rect class="scrollbar" rx="20" ry="3" width="0" height="0" x="0" y="0" style="fill: rgb(128, 139, 164); fill-opacity: 1;"/></g><g class="g-gtitle"><text class="gtitle" x="51.2" y="50" text-anchor="start" dy="0em" style="font-family: 'Open Sans', verdana, arial, sans-serif; font-size: 17px; fill: rgb(42, 63, 95); opacity: 1; font-weight: normal; white-space: pre;">Training Metrics - logs/FakeNewsNet-gossipcop_max-vocab=10000_pre=v1_domain_T=250_s=15.log</text></g><g class="g-xtitle"><text class="xtitle" x="502" y="537.3" text-anchor="middle" style="font-family: 'Open Sans', verdana, arial, sans-serif; font-size: 14px; fill: rgb(42, 63, 95); opacity: 1; font-weight: normal; white-space: pre;">Epoch</text></g><g class="g-ytitle"><text class="ytitle" transform="rotate(-90,95.965625,298)" x="95.965625" y="298" text-anchor="middle" style="font-family: 'Open Sans', verdana, arial, sans-serif; font-size: 14px; fill: rgb(42, 63, 95); opacity: 1; font-weight: normal; white-space: pre;">Metric Score</text></g></g><g class="menulayer"><g class="updatemenu-container" style="cursor: pointer;"><g class="updatemenu-header-group" transform="translate(12,60)"><g class="updatemenu-header" transform="translate(1,1)" style="pointer-events: all;"><rect class="updatemenu-item-rect" rx="2" ry="2" shape-rendering="crispEdges" x="0" y="0" width="160" height="33" style="stroke: rgb(190, 200, 217); stroke-opacity: 1; fill: rgb(255, 255, 255); fill-opacity: 1; stroke-width: 1px;"/><text class="updatemenu-item-text" text-anchor="start" data-notex="1" x="12" y="19.5" style="font-family: 'Open Sans', verdana, arial, sans-serif; font-size: 12px; fill: rgb(42, 63, 95); fill-opacity: 1; white-space: pre;">All</text></g><text class="updatemenu-header-arrow" text-anchor="end" x="156" y="19.5" style="font-family: 'Open Sans', verdana, arial, sans-serif; font-size: 12px; fill: rgb(42, 63, 95); fill-opacity: 1;">▼</text></g><g class="updatemenu-dropdown-button-group" updatemenu-active-index="-1" style="pointer-events: all;"><rect class="scrollbox-bg" opacity="0" x="0" y="0" width="0" height="0" style="pointer-events: all;"/></g></g></g></svg>