<svg class="main-svg" xmlns="http://www.w3.org/2000/svg" xmlns:xlink="http://www.w3.org/1999/xlink" width="1024" height="576" style="" viewBox="0 0 1024 576"><rect x="0" y="0" width="1024" height="576" style="fill: rgb(255, 255, 255); fill-opacity: 1;"/><defs id="defs-526ed1"><g class="clips"><clipPath id="clip526ed1xyplot" class="plotclip"><rect width="720" height="396"/></clipPath><clipPath class="axesclip" id="clip526ed1x"><rect x="150" y="0" width="720" height="576"/></clipPath><clipPath class="axesclip" id="clip526ed1y"><rect x="0" y="100" width="1024" height="396"/></clipPath><clipPath class="axesclip" id="clip526ed1xy"><rect x="150" y="100" width="720" height="396"/></clipPath></g><g class="gradients"/><g class="patterns"/></defs><g class="bglayer"><rect class="bg" x="150" y="100" width="720" height="396" style="fill: rgb(229, 236, 246); fill-opacity: 1; stroke-width: 0;"/></g><g class="layer-below"><g class="imagelayer"/><g class="shapelayer"/></g><g class="cartesianlayer"><g class="subplot xy"><g class="layer-subplot"><g class="shapelayer"/><g class="imagelayer"/></g><g class="minor-gridlayer"><g class="x"/><g class="y"/></g><g class="gridlayer"><g class="x"><path class="xgrid crisp" transform="translate(241.81,0)" d="M0,100v396" style="stroke: rgb(255, 255, 255); stroke-opacity: 1; stroke-width: 1px;"/><path class="xgrid crisp" transform="translate(338.46000000000004,0)" d="M0,100v396" style="stroke: rgb(255, 255, 255); stroke-opacity: 1; stroke-width: 1px;"/><path class="xgrid crisp" transform="translate(435.1,0)" d="M0,100v396" style="stroke: rgb(255, 255, 255); stroke-opacity: 1; stroke-width: 1px;"/><path class="xgrid crisp" transform="translate(531.74,0)" d="M0,100v396" style="stroke: rgb(255, 255, 255); stroke-opacity: 1; stroke-width: 1px;"/><path class="xgrid crisp" transform="translate(628.39,0)" d="M0,100v396" style="stroke: rgb(255, 255, 255); stroke-opacity: 1; stroke-width: 1px;"/><path class="xgrid crisp" transform="translate(725.03,0)" d="M0,100v396" style="stroke: rgb(255, 255, 255); stroke-opacity: 1; stroke-width: 1px;"/><path class="xgrid crisp" transform="translate(821.68,0)" d="M0,100v396" style="stroke: rgb(255, 255, 255); stroke-opacity: 1; stroke-width: 1px;"/></g><g class="y"><path class="ygrid crisp" transform="translate(0,461.55)" d="M150,0h720" style="stroke: rgb(255, 255, 255); stroke-opacity: 1; stroke-width: 1px;"/><path class="ygrid crisp" transform="translate(0,412.73)" d="M150,0h720" style="stroke: rgb(255, 255, 255); stroke-opacity: 1; stroke-width: 1px;"/><path class="ygrid crisp" transform="translate(0,363.91)" d="M150,0h720" style="stroke: rgb(255, 255, 255); stroke-opacity: 1; stroke-width: 1px;"/><path class="ygrid crisp" transform="translate(0,315.09000000000003)" d="M150,0h720" style="stroke: rgb(255, 255, 255); stroke-opacity: 1; stroke-width: 1px;"/><path class="ygrid crisp" transform="translate(0,266.27)" d="M150,0h720" style="stroke: rgb(255, 255, 255); stroke-opacity: 1; stroke-width: 1px;"/><path class="ygrid crisp" transform="translate(0,217.44)" d="M150,0h720" style="stroke: rgb(255, 255, 255); stroke-opacity: 1; stroke-width: 1px;"/><path class="ygrid crisp" transform="translate(0,168.62)" d="M150,0h720" style="stroke: rgb(255, 255, 255); stroke-opacity: 1; stroke-width: 1px;"/><path class="ygrid crisp" transform="translate(0,119.8)" d="M150,0h720" style="stroke: rgb(255, 255, 255); stroke-opacity: 1; stroke-width: 1px;"/></g></g><g class="zerolinelayer"/><path class="xlines-below"/><path class="ylines-below"/><g class="overlines-below"/><g class="xaxislayer-below"/><g class="yaxislayer-below"/><g class="overaxes-below"/><g class="plot" transform="translate(150,100)" clip-path="url(#clip526ed1xyplot)"><g class="scatterlayer mlayer"><g class="trace scatter trace31a821" style="stroke-miterlimit: 2; opacity: 1;"><g class="fills"/><g class="errorbars"/><g class="lines"><path class="js-line" d="M0,268.79L4.83,243.16L9.66,145.52L14.5,82.05L19.33,53.98L24.16,44.21L28.99,69.84L33.83,39.33L38.66,33.23L43.49,42.99L48.32,45.43L53.15,23.46L57.99,22.24L62.82,25.9L67.65,21.02L72.48,19.8L77.32,24.68L86.98,22.24L91.81,24.68L96.64,19.8L101.48,23.46L106.31,19.8L111.14,19.8L125.64,19.8L130.47,21.02L135.3,19.8L140.13,19.8L720,19.8" style="vector-effect: none; fill: none; stroke: rgb(255, 0, 0); stroke-opacity: 1; stroke-width: 2px; opacity: 1;"/></g><g class="points"/><g class="text"/></g><g class="trace scatter tracea0263b" style="stroke-miterlimit: 2; opacity: 1;"><g class="fills"/><g class="errorbars"/><g class="lines"><path class="js-line" d="M0,244.38L9.66,244.38L14.5,205.32L19.33,171.15L24.16,146.74L28.99,161.38L33.83,156.5L38.66,141.85L43.49,156.5L48.32,156.5L53.15,141.85L57.99,141.85L62.82,136.97L67.65,166.27L72.48,166.27L77.32,146.74L82.15,151.62L86.98,141.85L91.81,171.15L96.64,166.27L101.48,151.62L106.31,171.15L111.14,176.03L115.97,166.27L120.81,166.27L125.64,146.74L130.47,166.27L135.3,156.5L140.13,161.38L144.97,151.62L149.8,161.38L154.63,171.15L159.46,151.62L164.3,151.62L169.13,166.27L173.96,151.62L178.79,146.74L183.62,156.5L188.46,146.74L193.29,136.97L198.12,166.27L202.95,185.79L207.79,171.15L212.62,161.38L217.45,161.38L222.28,185.79L227.11,161.38L231.95,151.62L236.78,146.74L241.61,141.85L246.44,132.09L251.28,151.62L256.11,166.27L260.94,171.15L265.77,161.38L270.6,166.27L275.44,180.91L280.27,171.15L285.1,185.79L289.93,156.5L294.77,166.27L299.6,161.38L304.43,151.62L309.26,176.03L314.09,146.74L318.93,156.5L323.76,161.38L328.59,176.03L333.42,156.5L338.26,151.62L343.09,156.5L352.75,156.5L357.58,166.27L362.42,171.15L367.25,161.38L372.08,195.56L376.91,156.5L381.74,156.5L386.58,185.79L391.41,190.68L396.24,156.5L401.07,161.38L405.91,171.15L410.74,141.85L415.57,161.38L420.4,171.15L425.23,151.62L430.07,151.62L434.9,166.27L439.73,171.15L444.56,151.62L449.4,156.5L454.23,185.79L459.06,151.62L463.89,151.62L468.72,180.91L473.56,156.5L478.39,171.15L483.22,161.38L488.05,176.03L492.89,171.15L497.72,161.38L502.55,166.27L517.05,166.27L521.88,171.15L526.71,161.38L531.54,176.03L536.38,171.15L541.21,171.15L546.04,171.15L550.87,161.38L555.7,166.27L560.54,180.91L565.37,166.27L570.2,146.74L575.03,161.38L579.87,166.27L584.7,156.5L589.53,176.03L599.19,176.03L604.03,180.91L608.86,190.68L613.69,161.38L618.52,171.15L623.36,176.03L628.19,180.91L633.02,161.38L637.85,151.62L642.68,151.62L647.52,161.38L652.35,146.74L657.18,151.62L662.01,146.74L676.51,146.74L681.34,176.03L686.17,141.85L691.01,146.74L695.84,156.5L700.67,176.03L705.5,176.03L710.34,180.91L715.17,166.27L720,156.5" style="vector-effect: none; fill: none; stroke: rgb(0, 0, 255); stroke-opacity: 1; stroke-width: 2px; opacity: 1;"/></g><g class="points"/><g class="text"/></g><g class="trace scatter trace950c0a" style="stroke-miterlimit: 2; opacity: 1;"><g class="fills"/><g class="errorbars"/><g class="lines"><path class="js-line" d="M0,266.35L4.83,137.66L9.66,106.21L14.5,71.21L19.33,51.83L24.16,43.87L28.99,62.81L33.83,38.99L38.66,33.23L43.49,41.38L48.32,43.43L53.15,23.46L57.99,22.19L62.82,25.85L67.65,21.02L72.48,19.8L77.32,24.68L86.98,22.29L91.81,24.49L96.64,19.8L101.48,23.46L106.31,19.8L111.14,19.8L125.64,19.8L130.47,21.02L135.3,19.8L140.13,19.8L720,19.8" style="vector-effect: none; fill: none; stroke: rgb(0, 128, 0); stroke-opacity: 1; stroke-width: 2px; opacity: 1;"/></g><g class="points"/><g class="text"/></g><g class="trace scatter trace9b1c2c" style="stroke-miterlimit: 2; opacity: 1;"><g class="fills"/><g class="errorbars"/><g class="lines"><path class="js-line" d="M0,376.2L4.83,253.95L9.66,194.14L14.5,197.51L19.33,168.41L24.16,147.42L28.99,149.37L33.83,156.89L38.66,141.42L43.49,153.28L48.32,153.28L53.15,142.2L57.99,142.59L62.82,137.7L67.65,166.9L72.48,166.27L77.32,147.42L82.15,152.4L86.98,142.2L91.81,168.22L96.64,167.19L101.48,150.4L106.31,171.49L111.14,172.37L115.97,164.07L120.81,167.19L125.64,145.91L130.47,167.19L135.3,157.09L140.13,156.55L144.97,151.18L149.8,161.73L154.63,168.22L159.46,152.16L164.3,150.4L169.13,163.87L173.96,151.47L178.79,144.54L183.62,156.11L188.46,146.88L193.29,135.75L198.12,167.19L202.95,182.28L212.62,161.58L217.45,160.7L222.28,185.79L227.11,161.58L231.95,151.47L236.78,145.91L241.61,142.2L246.44,129.89L251.28,152.16L256.11,167.19L260.94,170.71L265.77,162.31L270.6,167.19L275.44,178.08L280.27,171.68L285.1,184.87L289.93,156.11L294.77,166.9L299.6,161.58L304.43,150.4L309.26,176.66L314.09,144.54L318.93,156.89L323.76,160.7L328.59,176.66L333.42,156.11L338.26,150.4L343.09,156.89L352.75,157.33L357.58,166.9L362.42,171.49L367.25,162.31L372.08,192.19L376.91,156.89L381.74,156.89L386.58,186.43L391.41,191.02L396.24,156.89L401.07,162.12L405.91,172.17L410.74,138.44L415.57,162.12L420.4,171.49L425.23,150.4L430.07,148.93L434.9,167.19L439.73,172.08L444.56,152.45L449.4,157.33L454.23,184.87L459.06,152.16L463.89,152.45L468.72,181.25L473.56,157.33L478.39,171.98L483.22,162.16L488.05,176.03L492.89,171.49L497.72,162.16L502.55,166.9L507.38,167.19L512.21,165.29L517.05,167.19L521.88,170.71L526.71,162.12L531.54,176.66L536.38,171.49L541.21,172.17L546.04,172.17L550.87,162.16L555.7,167.19L560.54,179.45L565.37,167.19L570.2,144.54L575.03,161.58L579.87,166.9L584.7,157.38L589.53,176.03L599.19,176.66L604.03,181.25L608.86,190.24L613.69,162.12L618.52,171.98L623.36,176.66L628.19,181.79L633.02,162.31L637.85,148.93L642.68,152.16L647.52,162.31L652.35,147.42L657.18,152.45L662.01,144.54L666.85,142.68L671.68,146.88L676.51,146.88L681.34,176.03L686.17,141.42L691.01,147.42L695.84,157.38L700.67,176.03L705.5,176.03L710.34,180.47L715.17,166.9L720,157.38" style="vector-effect: none; fill: none; stroke: rgb(255, 165, 0); stroke-opacity: 1; stroke-width: 2px; opacity: 1;"/></g><g class="points"/><g class="text"/></g><g class="trace scatter tracea3ca18" style="stroke-miterlimit: 2; opacity: 1;"><g class="fills"/><g class="errorbars"/><g class="lines"><path class="js-line" d="M0,263.96L4.83,238.77L9.66,148.01L14.5,80.88L19.33,53.44L24.16,43.97L28.99,68.91L33.83,39.08L38.66,33.23L43.49,42.55L48.32,44.94L53.15,23.46L57.99,22.29L62.82,25.95L67.65,21.02L72.48,19.8L77.32,24.58L86.98,22.19L91.81,24.78L96.64,19.8L101.48,23.41L106.31,19.8L111.14,19.8L125.64,19.8L130.47,21.02L135.3,19.8L140.13,19.8L720,19.8" style="vector-effect: none; fill: none; stroke: rgb(128, 0, 128); stroke-opacity: 1; stroke-width: 2px; opacity: 1;"/></g><g class="points"/><g class="text"/></g><g class="trace scatter trace699f8b" style="stroke-miterlimit: 2; opacity: 1;"><g class="fills"/><g class="errorbars"/><g class="lines"><path class="js-line" d="M0,263.91L4.83,263.13L9.66,230.12L14.5,215.19L19.33,176.47L24.16,148.35L28.99,169L33.83,158.94L38.66,144.59L43.49,161.33L48.32,161.33L53.15,143.81L57.99,143.03L62.82,137.7L67.65,166.41L72.48,165.63L77.32,148.35L82.15,152.06L86.98,143.81L91.81,168.61L96.64,167.19L101.48,155.23L106.31,170.95L111.14,173.1L115.97,164.07L120.81,167.19L125.64,149.91L130.47,167.97L135.3,156.6L140.13,157.97L144.97,150.5L149.8,161.14L154.63,168.61L159.46,153.67L164.3,155.23L169.13,171.15L173.96,154.45L178.79,150.69L183.62,159.72L193.29,140.1L198.12,167.97L202.95,182.91L207.79,170.95L212.62,164.26L217.45,165.05L222.28,185.31L227.11,164.26L231.95,154.45L236.78,149.91L241.61,143.81L246.44,135.56L251.28,153.67L256.11,167.19L260.94,170.17L265.77,162.7L270.6,167.19L275.44,178.42L280.27,174.08L285.1,184.53L289.93,159.72L294.77,168.8L299.6,164.26L304.43,155.23L309.26,176.27L314.09,150.69L318.93,158.94L323.76,165.05L328.59,176.27L333.42,159.72L338.26,155.23L343.09,158.94L347.92,156.6L352.75,158.16L357.58,166.41L362.42,170.95L367.25,162.7L372.08,192.78L376.91,158.94L381.74,158.94L386.58,186.09L391.41,190.58L396.24,158.94L401.07,163.48L405.91,172.51L410.74,146.2L415.57,163.48L420.4,170.95L425.23,155.23L430.07,156.01L434.9,167.97L439.73,173.3L444.56,152.84L449.4,158.16L454.23,184.53L459.06,153.67L463.89,152.84L468.72,180.77L473.56,158.16L478.39,171.73L483.22,161.92L488.05,175.44L492.89,170.95L497.72,161.92L502.55,166.41L507.38,167.19L512.21,170.37L517.05,167.19L521.88,170.17L526.71,163.48L531.54,176.27L536.38,170.95L541.21,172.51L546.04,172.51L550.87,161.92L555.7,167.19L560.54,179.2L565.37,167.97L570.2,150.69L575.03,164.26L579.87,166.41L584.7,157.38L589.53,175.44L594.36,175.44L599.19,176.27L604.03,180.77L608.86,189.8L613.69,163.48L618.52,171.73L623.36,176.27L628.19,181.55L633.02,162.7L637.85,156.01L642.68,153.67L647.52,162.7L652.35,148.35L657.18,152.84L662.01,150.69L666.85,151.47L671.68,149.13L676.51,149.13L681.34,175.44L686.17,144.59L691.01,148.35L695.84,157.38L700.67,175.44L705.5,175.44L710.34,179.98L715.17,166.41L720,157.38" style="vector-effect: none; fill: none; stroke: rgb(255, 192, 203); stroke-opacity: 1; stroke-width: 2px; opacity: 1;"/></g><g class="points"/><g class="text"/></g><g class="trace scatter tracefed7e5" style="stroke-miterlimit: 2; opacity: 1;"><g class="fills"/><g class="errorbars"/><g class="lines"><path class="js-line" d="M0,345.39L4.83,296.03L9.66,155.18L14.5,82.73L19.33,54.02L24.16,44.21L28.99,70.14L33.83,39.33L38.66,33.23L43.49,42.99L48.32,45.48L53.15,23.46L57.99,22.24L62.82,25.9L67.65,21.02L72.48,19.8L77.32,24.68L86.98,22.24L91.81,24.68L96.64,19.8L101.48,23.46L106.31,19.8L111.14,19.8L125.64,19.8L130.47,21.02L135.3,19.8L140.13,19.8L720,19.8" style="vector-effect: none; fill: none; stroke: rgb(165, 42, 42); stroke-opacity: 1; stroke-width: 2px; opacity: 1;"/></g><g class="points"/><g class="text"/></g><g class="trace scatter trace4495e6" style="stroke-miterlimit: 2; opacity: 1;"><g class="fills"/><g class="errorbars"/><g class="lines"><path class="js-line" d="M0,336.85L4.83,327.62L9.66,270.01L19.33,176.81L24.16,148.01L28.99,170.81L33.83,158.5L38.66,143.95L43.49,161.09L48.32,161.09L53.15,143.37L57.99,142.83L62.82,137.7L67.65,166.8L72.48,166.51L77.32,148.01L82.15,152.25L86.98,143.37L91.81,171.15L96.64,167.19L101.48,154.65L106.31,171.54L111.14,176.08L115.97,166.27L120.81,167.19L125.64,149.28L130.47,167.73L135.3,156.99L140.13,161.53L144.97,151.72L149.8,161.73L154.63,171.15L159.46,153.23L164.3,154.65L169.13,171.15L173.96,153.86L178.79,150.06L183.62,159.24L188.46,148.59L193.29,139.32L198.12,167.73L202.95,185.84L207.79,171.54L212.62,163.82L217.45,164.65L222.28,186.04L227.11,163.82L231.95,153.86L236.78,149.28L241.61,143.37L246.44,134.68L251.28,153.23L256.11,167.19L260.94,171.29L265.77,162.56L270.6,167.19L275.44,180.91L280.27,173.74L285.1,185.84L289.93,159.24L294.77,168.41L299.6,163.82L304.43,154.65L309.26,176.62L314.09,150.06L318.93,158.5L323.76,164.65L328.59,176.62L333.42,159.24L338.26,154.65L343.09,158.5L347.92,156.99L352.75,157.87L357.58,166.8L362.42,171.54L367.25,162.56L372.08,195.61L376.91,158.5L381.74,158.5L386.58,186.38L391.41,191.12L396.24,158.5L401.07,163.14L405.91,172.37L410.74,145.47L415.57,163.14L420.4,171.54L425.23,154.65L430.07,155.52L434.9,167.73L439.73,173L444.56,152.69L449.4,157.87L454.23,185.84L459.06,153.23L463.89,152.69L468.72,181.3L473.56,157.87L478.39,171.88L483.22,162.07L488.05,176.27L492.89,171.54L497.72,162.07L502.55,166.8L507.38,167.19L512.21,170.12L517.05,167.19L521.88,171.29L526.71,163.14L531.54,176.62L536.38,171.54L541.21,172.37L546.04,172.37L550.87,162.07L555.7,167.19L560.54,180.91L565.37,167.73L570.2,150.06L575.03,163.82L579.87,166.8L584.7,157.38L589.53,176.27L594.36,176.27L599.19,176.62L604.03,181.3L608.86,190.82L613.69,163.14L618.52,171.88L623.36,176.62L628.19,181.69L633.02,162.56L637.85,155.52L642.68,153.23L647.52,162.56L652.35,148.01L657.18,152.69L662.01,150.06L666.85,150.98L671.68,148.59L676.51,148.59L681.34,176.27L686.17,143.95L691.01,148.01L695.84,157.38L700.67,176.27L705.5,176.27L710.34,181.06L715.17,166.8L720,157.38" style="vector-effect: none; fill: none; stroke: rgb(128, 128, 128); stroke-opacity: 1; stroke-width: 2px; opacity: 1;"/></g><g class="points"/><g class="text"/></g></g></g><g class="overplot"/><path class="xlines-above crisp" d="M0,0" style="fill: none;"/><path class="ylines-above crisp" d="M0,0" style="fill: none;"/><g class="overlines-above"/><g class="xaxislayer-above"><g class="xtick"><text text-anchor="middle" x="0" y="509" transform="translate(241.81,0)" style="font-family: 'Open Sans', verdana, arial, sans-serif; font-size: 12px; fill: rgb(42, 63, 95); fill-opacity: 1; white-space: pre; opacity: 1;">20</text></g><g class="xtick"><text text-anchor="middle" x="0" y="509" style="font-family: 'Open Sans', verdana, arial, sans-serif; font-size: 12px; fill: rgb(42, 63, 95); fill-opacity: 1; white-space: pre; opacity: 1;" transform="translate(338.46000000000004,0)">40</text></g><g class="xtick"><text text-anchor="middle" x="0" y="509" style="font-family: 'Open Sans', verdana, arial, sans-serif; font-size: 12px; fill: rgb(42, 63, 95); fill-opacity: 1; white-space: pre; opacity: 1;" transform="translate(435.1,0)">60</text></g><g class="xtick"><text text-anchor="middle" x="0" y="509" style="font-family: 'Open Sans', verdana, arial, sans-serif; font-size: 12px; fill: rgb(42, 63, 95); fill-opacity: 1; white-space: pre; opacity: 1;" transform="translate(531.74,0)">80</text></g><g class="xtick"><text text-anchor="middle" x="0" y="509" style="font-family: 'Open Sans', verdana, arial, sans-serif; font-size: 12px; fill: rgb(42, 63, 95); fill-opacity: 1; white-space: pre; opacity: 1;" transform="translate(628.39,0)">100</text></g><g class="xtick"><text text-anchor="middle" x="0" y="509" style="font-family: 'Open Sans', verdana, arial, sans-serif; font-size: 12px; fill: rgb(42, 63, 95); fill-opacity: 1; white-space: pre; opacity: 1;" transform="translate(725.03,0)">120</text></g><g class="xtick"><text text-anchor="middle" x="0" y="509" style="font-family: 'Open Sans', verdana, arial, sans-serif; font-size: 12px; fill: rgb(42, 63, 95); fill-opacity: 1; white-space: pre; opacity: 1;" transform="translate(821.68,0)">140</text></g></g><g class="yaxislayer-above"><g class="ytick"><text text-anchor="end" x="149" y="4.199999999999999" transform="translate(0,461.55)" style="font-family: 'Open Sans', verdana, arial, sans-serif; font-size: 12px; fill: rgb(42, 63, 95); fill-opacity: 1; white-space: pre; opacity: 1;">30</text></g><g class="ytick"><text text-anchor="end" x="149" y="4.199999999999999" style="font-family: 'Open Sans', verdana, arial, sans-serif; font-size: 12px; fill: rgb(42, 63, 95); fill-opacity: 1; white-space: pre; opacity: 1;" transform="translate(0,412.73)">40</text></g><g class="ytick"><text text-anchor="end" x="149" y="4.199999999999999" style="font-family: 'Open Sans', verdana, arial, sans-serif; font-size: 12px; fill: rgb(42, 63, 95); fill-opacity: 1; white-space: pre; opacity: 1;" transform="translate(0,363.91)">50</text></g><g class="ytick"><text text-anchor="end" x="149" y="4.199999999999999" style="font-family: 'Open Sans', verdana, arial, sans-serif; font-size: 12px; fill: rgb(42, 63, 95); fill-opacity: 1; white-space: pre; opacity: 1;" transform="translate(0,315.09000000000003)">60</text></g><g class="ytick"><text text-anchor="end" x="149" y="4.199999999999999" style="font-family: 'Open Sans', verdana, arial, sans-serif; font-size: 12px; fill: rgb(42, 63, 95); fill-opacity: 1; white-space: pre; opacity: 1;" transform="translate(0,266.27)">70</text></g><g class="ytick"><text text-anchor="end" x="149" y="4.199999999999999" style="font-family: 'Open Sans', verdana, arial, sans-serif; font-size: 12px; fill: rgb(42, 63, 95); fill-opacity: 1; white-space: pre; opacity: 1;" transform="translate(0,217.44)">80</text></g><g class="ytick"><text text-anchor="end" x="149" y="4.199999999999999" style="font-family: 'Open Sans', verdana, arial, sans-serif; font-size: 12px; fill: rgb(42, 63, 95); fill-opacity: 1; white-space: pre; opacity: 1;" transform="translate(0,168.62)">90</text></g><g class="ytick"><text text-anchor="end" x="149" y="4.199999999999999" style="font-family: 'Open Sans', verdana, arial, sans-serif; font-size: 12px; fill: rgb(42, 63, 95); fill-opacity: 1; white-space: pre; opacity: 1;" transform="translate(0,119.8)">100</text></g></g><g class="overaxes-above"/></g></g><g class="polarlayer"/><g class="smithlayer"/><g class="ternarylayer"/><g class="geolayer"/><g class="funnelarealayer"/><g class="pielayer"/><g class="iciclelayer"/><g class="treemaplayer"/><g class="sunburstlayer"/><g class="glimages"/><defs id="topdefs-526ed1"><g class="clips"/><clipPath id="legend526ed1"><rect width="128" height="162" x="0" y="0"/></clipPath></defs><g class="layer-above"><g class="imagelayer"/><g class="shapelayer"/></g><g class="infolayer"><g class="legend" pointer-events="all" transform="translate(884.4,100)"><rect class="bg" shape-rendering="crispEdges" width="128" height="162" x="0" y="0" style="stroke: rgb(68, 68, 68); stroke-opacity: 1; fill: rgb(255, 255, 255); fill-opacity: 1; stroke-width: 0px;"/><g class="scrollbox" transform="" clip-path="url(#legend526ed1)"><g class="groups"><g class="traces" transform="translate(0,14.5)" style="opacity: 1;"><text class="legendtext" text-anchor="start" x="40" y="4.680000000000001" style="font-family: 'Open Sans', verdana, arial, sans-serif; font-size: 12px; fill: rgb(42, 63, 95); fill-opacity: 1; white-space: pre;">Train Accuracy</text><g class="layers" style="opacity: 1;"><g class="legendfill"/><g class="legendlines"><path class="js-line" d="M5,0h30" style="fill: none; stroke: rgb(255, 0, 0); stroke-opacity: 1; stroke-width: 2px;"/></g><g class="legendsymbols"><g class="legendpoints"/></g></g><rect class="legendtoggle" x="0" y="-9.5" width="122.71875" height="19" style="fill: rgb(0, 0, 0); fill-opacity: 0;"/></g><g class="traces" transform="translate(0,33.5)" style="opacity: 1;"><text class="legendtext" text-anchor="start" x="40" y="4.680000000000001" style="font-family: 'Open Sans', verdana, arial, sans-serif; font-size: 12px; fill: rgb(42, 63, 95); fill-opacity: 1; white-space: pre;">Test Accuracy</text><g class="layers" style="opacity: 1;"><g class="legendfill"/><g class="legendlines"><path class="js-line" d="M5,0h30" style="fill: none; stroke: rgb(0, 0, 255); stroke-opacity: 1; stroke-width: 2px;"/></g><g class="legendsymbols"><g class="legendpoints"/></g></g><rect class="legendtoggle" x="0" y="-9.5" width="122.71875" height="19" style="fill: rgb(0, 0, 0); fill-opacity: 0;"/></g><g class="traces" transform="translate(0,52.5)" style="opacity: 1;"><text class="legendtext" text-anchor="start" x="40" y="4.680000000000001" style="font-family: 'Open Sans', verdana, arial, sans-serif; font-size: 12px; fill: rgb(42, 63, 95); fill-opacity: 1; white-space: pre;">Train Precision</text><g class="layers" style="opacity: 1;"><g class="legendfill"/><g class="legendlines"><path class="js-line" d="M5,0h30" style="fill: none; stroke: rgb(0, 128, 0); stroke-opacity: 1; stroke-width: 2px;"/></g><g class="legendsymbols"><g class="legendpoints"/></g></g><rect class="legendtoggle" x="0" y="-9.5" width="122.71875" height="19" style="fill: rgb(0, 0, 0); fill-opacity: 0;"/></g><g class="traces" transform="translate(0,71.5)" style="opacity: 1;"><text class="legendtext" text-anchor="start" x="40" y="4.680000000000001" style="font-family: 'Open Sans', verdana, arial, sans-serif; font-size: 12px; fill: rgb(42, 63, 95); fill-opacity: 1; white-space: pre;">Test Precision</text><g class="layers" style="opacity: 1;"><g class="legendfill"/><g class="legendlines"><path class="js-line" d="M5,0h30" style="fill: none; stroke: rgb(255, 165, 0); stroke-opacity: 1; stroke-width: 2px;"/></g><g class="legendsymbols"><g class="legendpoints"/></g></g><rect class="legendtoggle" x="0" y="-9.5" width="122.71875" height="19" style="fill: rgb(0, 0, 0); fill-opacity: 0;"/></g><g class="traces" transform="translate(0,90.5)" style="opacity: 1;"><text class="legendtext" text-anchor="start" x="40" y="4.680000000000001" style="font-family: 'Open Sans', verdana, arial, sans-serif; font-size: 12px; fill: rgb(42, 63, 95); fill-opacity: 1; white-space: pre;">Train Recall</text><g class="layers" style="opacity: 1;"><g class="legendfill"/><g class="legendlines"><path class="js-line" d="M5,0h30" style="fill: none; stroke: rgb(128, 0, 128); stroke-opacity: 1; stroke-width: 2px;"/></g><g class="legendsymbols"><g class="legendpoints"/></g></g><rect class="legendtoggle" x="0" y="-9.5" width="122.71875" height="19" style="fill: rgb(0, 0, 0); fill-opacity: 0;"/></g><g class="traces" transform="translate(0,109.5)" style="opacity: 1;"><text class="legendtext" text-anchor="start" x="40" y="4.680000000000001" style="font-family: 'Open Sans', verdana, arial, sans-serif; font-size: 12px; fill: rgb(42, 63, 95); fill-opacity: 1; white-space: pre;">Test Recall</text><g class="layers" style="opacity: 1;"><g class="legendfill"/><g class="legendlines"><path class="js-line" d="M5,0h30" style="fill: none; stroke: rgb(255, 192, 203); stroke-opacity: 1; stroke-width: 2px;"/></g><g class="legendsymbols"><g class="legendpoints"/></g></g><rect class="legendtoggle" x="0" y="-9.5" width="122.71875" height="19" style="fill: rgb(0, 0, 0); fill-opacity: 0;"/></g><g class="traces" transform="translate(0,128.5)" style="opacity: 1;"><text class="legendtext" text-anchor="start" x="40" y="4.680000000000001" style="font-family: 'Open Sans', verdana, arial, sans-serif; font-size: 12px; fill: rgb(42, 63, 95); fill-opacity: 1; white-space: pre;">Train F1</text><g class="layers" style="opacity: 1;"><g class="legendfill"/><g class="legendlines"><path class="js-line" d="M5,0h30" style="fill: none; stroke: rgb(165, 42, 42); stroke-opacity: 1; stroke-width: 2px;"/></g><g class="legendsymbols"><g class="legendpoints"/></g></g><rect class="legendtoggle" x="0" y="-9.5" width="122.71875" height="19" style="fill: rgb(0, 0, 0); fill-opacity: 0;"/></g><g class="traces" transform="translate(0,147.5)" style="opacity: 1;"><text class="legendtext" text-anchor="start" x="40" y="4.680000000000001" style="font-family: 'Open Sans', verdana, arial, sans-serif; font-size: 12px; fill: rgb(42, 63, 95); fill-opacity: 1; white-space: pre;">Test F1</text><g class="layers" style="opacity: 1;"><g class="legendfill"/><g class="legendlines"><path class="js-line" d="M5,0h30" style="fill: none; stroke: rgb(128, 128, 128); stroke-opacity: 1; stroke-width: 2px;"/></g><g class="legendsymbols"><g class="legendpoints"/></g></g><rect class="legendtoggle" x="0" y="-9.5" width="122.71875" height="19" style="fill: rgb(0, 0, 0); fill-opacity: 0;"/></g></g></g><rect class="scrollbar" rx="20" ry="3" width="0" height="0" x="0" y="0" style="fill: rgb(128, 139, 164); fill-opacity: 1;"/></g><g class="g-gtitle"><text class="gtitle" x="51.2" y="50" text-anchor="start" dy="0em" style="font-family: 'Open Sans', verdana, arial, sans-serif; font-size: 17px; fill: rgb(42, 63, 95); opacity: 1; font-weight: normal; white-space: pre;">Training Metrics - logs/fake-news-datasets-deception-Celebrity_p=0.25_num-clauses=10000_max-vocab=15000_pre=v2_text_T=200_s=15.log</text></g><g class="g-xtitle"><text class="xtitle" x="510" y="537.3" text-anchor="middle" style="font-family: 'Open Sans', verdana, arial, sans-serif; font-size: 14px; fill: rgb(42, 63, 95); opacity: 1; font-weight: normal; white-space: pre;">Epoch</text></g><g class="g-ytitle"><text class="ytitle" transform="rotate(-90,104.10625,298)" x="104.10625" y="298" text-anchor="middle" style="font-family: 'Open Sans', verdana, arial, sans-serif; font-size: 14px; fill: rgb(42, 63, 95); opacity: 1; font-weight: normal; white-space: pre;">Metric Score</text></g></g><g class="menulayer"><g class="updatemenu-container" style="cursor: pointer;"><g class="updatemenu-header-group" transform="translate(12,60)"><g class="updatemenu-header" transform="translate(1,1)" style="pointer-events: all;"><rect class="updatemenu-item-rect" rx="2" ry="2" shape-rendering="crispEdges" x="0" y="0" width="174" height="33" style="stroke: rgb(190, 200, 217); stroke-opacity: 1; fill: rgb(255, 255, 255); fill-opacity: 1; stroke-width: 1px;"/><text class="updatemenu-item-text" text-anchor="start" data-notex="1" x="12" y="19.5" style="font-family: 'Open Sans', verdana, arial, sans-serif; font-size: 12px; fill: rgb(42, 63, 95); fill-opacity: 1; white-space: pre;">All</text></g><text class="updatemenu-header-arrow" text-anchor="end" x="170" y="19.5" style="font-family: 'Open Sans', verdana, arial, sans-serif; font-size: 12px; fill: rgb(42, 63, 95); fill-opacity: 1;">▼</text></g><g class="updatemenu-dropdown-button-group" updatemenu-active-index="-1" style="pointer-events: all;"><rect class="scrollbox-bg" opacity="0" x="0" y="0" width="0" height="0" style="pointer-events: all;"/></g></g></g></svg>