<svg class="main-svg" xmlns="http://www.w3.org/2000/svg" xmlns:xlink="http://www.w3.org/1999/xlink" width="1024" height="576" style="" viewBox="0 0 1024 576"><rect x="0" y="0" width="1024" height="576" style="fill: rgb(255, 255, 255); fill-opacity: 1;"/><defs id="defs-fc17f0"><g class="clips"><clipPath id="clipfc17f0xyplot" class="plotclip"><rect width="728" height="396"/></clipPath><clipPath class="axesclip" id="clipfc17f0x"><rect x="141" y="0" width="728" height="576"/></clipPath><clipPath class="axesclip" id="clipfc17f0y"><rect x="0" y="100" width="1024" height="396"/></clipPath><clipPath class="axesclip" id="clipfc17f0xy"><rect x="141" y="100" width="728" height="396"/></clipPath></g><g class="gradients"/><g class="patterns"/></defs><g class="bglayer"><rect class="bg" x="141" y="100" width="728" height="396" style="fill: rgb(229, 236, 246); fill-opacity: 1; stroke-width: 0;"/></g><g class="layer-below"><g class="imagelayer"/><g class="shapelayer"/></g><g class="cartesianlayer"><g class="subplot xy"><g class="layer-subplot"><g class="shapelayer"/><g class="imagelayer"/></g><g class="minor-gridlayer"><g class="x"/><g class="y"/></g><g class="gridlayer"><g class="x"><path class="xgrid crisp" transform="translate(233.82999999999998,0)" d="M0,100v396" style="stroke: rgb(255, 255, 255); stroke-opacity: 1; stroke-width: 1px;"/><path class="xgrid crisp" transform="translate(331.55,0)" d="M0,100v396" style="stroke: rgb(255, 255, 255); stroke-opacity: 1; stroke-width: 1px;"/><path class="xgrid crisp" transform="translate(429.27,0)" d="M0,100v396" style="stroke: rgb(255, 255, 255); stroke-opacity: 1; stroke-width: 1px;"/><path class="xgrid crisp" transform="translate(526.99,0)" d="M0,100v396" style="stroke: rgb(255, 255, 255); stroke-opacity: 1; stroke-width: 1px;"/><path class="xgrid crisp" transform="translate(624.7,0)" d="M0,100v396" style="stroke: rgb(255, 255, 255); stroke-opacity: 1; stroke-width: 1px;"/><path class="xgrid crisp" transform="translate(722.42,0)" d="M0,100v396" style="stroke: rgb(255, 255, 255); stroke-opacity: 1; stroke-width: 1px;"/><path class="xgrid crisp" transform="translate(820.14,0)" d="M0,100v396" style="stroke: rgb(255, 255, 255); stroke-opacity: 1; stroke-width: 1px;"/></g><g class="y"><path class="ygrid crisp" transform="translate(0,475.97)" d="M141,0h728" style="stroke: rgb(255, 255, 255); stroke-opacity: 1; stroke-width: 1px;"/><path class="ygrid crisp" transform="translate(0,430.04)" d="M141,0h728" style="stroke: rgb(255, 255, 255); stroke-opacity: 1; stroke-width: 1px;"/><path class="ygrid crisp" transform="translate(0,384.11)" d="M141,0h728" style="stroke: rgb(255, 255, 255); stroke-opacity: 1; stroke-width: 1px;"/><path class="ygrid crisp" transform="translate(0,338.19)" d="M141,0h728" style="stroke: rgb(255, 255, 255); stroke-opacity: 1; stroke-width: 1px;"/><path class="ygrid crisp" transform="translate(0,292.26)" d="M141,0h728" style="stroke: rgb(255, 255, 255); stroke-opacity: 1; stroke-width: 1px;"/><path class="ygrid crisp" transform="translate(0,246.33)" d="M141,0h728" style="stroke: rgb(255, 255, 255); stroke-opacity: 1; stroke-width: 1px;"/><path class="ygrid crisp" transform="translate(0,200.4)" d="M141,0h728" style="stroke: rgb(255, 255, 255); stroke-opacity: 1; stroke-width: 1px;"/><path class="ygrid crisp" transform="translate(0,154.48)" d="M141,0h728" style="stroke: rgb(255, 255, 255); stroke-opacity: 1; stroke-width: 1px;"/><path class="ygrid crisp" transform="translate(0,108.55)" d="M141,0h728" style="stroke: rgb(255, 255, 255); stroke-opacity: 1; stroke-width: 1px;"/></g></g><g class="zerolinelayer"/><path class="xlines-below"/><path class="ylines-below"/><g class="overlines-below"/><g class="xaxislayer-below"/><g class="yaxislayer-below"/><g class="overaxes-below"/><g class="plot" transform="translate(141,100)" clip-path="url(#clipfc17f0xyplot)"><g class="scatterlayer mlayer"><g class="trace scatter tracee3a8b7" style="stroke-miterlimit: 2; opacity: 1;"><g class="fills"/><g class="errorbars"/><g class="lines"><path class="js-line" d="M0,244.16L4.89,254.95L9.77,309.38L14.66,219.59L19.54,181.7L24.43,206.04L29.32,265.97L34.2,211.55L39.09,195.24L43.97,227.85L48.86,173.43L53.74,189.73L58.63,214.3L63.52,203.28L68.4,170.67L73.29,162.64L78.17,148.86L83.06,148.86L87.95,165.16L92.83,154.37L97.72,159.88L102.6,140.82L107.49,165.16L112.38,157.12L117.26,165.16L122.15,127.27L127.03,146.33L131.92,151.61L136.81,154.37L141.69,143.58L146.58,154.37L151.46,143.58L156.35,135.31L161.23,138.06L166.12,102.7L171.01,121.76L175.89,110.74L180.78,132.55L185.66,116.25L190.55,110.74L195.44,102.7L200.32,236.12L205.21,113.49L210.09,121.76L214.98,225.1L219.87,230.61L224.75,195.24L229.64,121.76L234.52,83.64L239.41,97.19L244.3,206.04L249.18,157.12L254.07,217.06L258.95,192.49L263.84,230.61L268.72,208.79L273.61,132.55L278.5,146.33L283.38,83.64L288.27,78.13L293.15,99.94L298.04,138.06L302.93,110.74L307.81,143.58L312.7,119L317.58,91.91L322.47,135.31L327.36,97.19L332.24,89.15L337.13,64.58L342.01,53.79L346.9,91.91L351.79,94.43L356.67,97.19L361.56,67.34L366.44,78.13L371.33,119L376.21,110.74L381.1,70.09L385.99,195.24L390.87,80.88L395.76,91.91L400.64,99.94L405.53,91.91L410.42,97.19L415.3,165.16L420.19,135.31L425.07,105.46L429.96,70.09L434.85,70.09L439.73,75.37L444.62,80.88L449.5,83.64L459.28,94.43L464.16,148.86L469.05,91.91L473.93,148.86L478.82,78.13L483.7,127.27L488.59,135.31L493.48,97.19L498.36,99.94L503.25,135.31L508.13,146.33L513.02,146.33L517.91,70.09L522.79,170.67L527.68,195.24L532.56,230.61L537.45,211.55L542.34,127.27L547.22,143.58L552.11,143.58L556.99,178.94L561.88,80.88L566.77,151.61L571.65,170.67L576.54,119L581.42,129.8L586.31,80.88L591.19,146.33L596.08,89.15L600.97,75.37L605.85,75.37L610.74,116.25L615.62,167.92L620.51,173.43L625.4,113.49L630.28,42.76L635.17,91.91L640.05,105.46L644.94,48.28L649.83,29.22L654.71,45.52L659.6,94.43L664.48,80.88L669.37,59.07L674.26,59.07L679.14,124.52L684.03,94.43L688.91,89.15L693.8,91.91L698.68,151.61L703.57,53.79L708.46,59.07L713.34,70.09L718.23,173.43L723.11,167.92L728,173.43" style="vector-effect: none; fill: none; stroke: rgb(255, 0, 0); stroke-opacity: 1; stroke-width: 2px; opacity: 1;"/></g><g class="points"/><g class="text"/></g><g class="trace scatter trace2c3da8" style="stroke-miterlimit: 2; opacity: 1;"><g class="fills"/><g class="errorbars"/><g class="lines"><path class="js-line" d="M0,168.84L4.89,233.82L9.77,233.82L14.66,158.04L19.54,158.04L29.32,223.03L34.2,201.44L39.09,168.84L43.97,190.42L48.86,179.63L53.74,190.42L58.63,212.24L63.52,190.42L68.4,201.44L73.29,190.42L78.17,179.63L83.06,233.82L87.95,201.44L92.83,244.62L97.72,223.03L102.6,212.24L107.49,244.62L112.38,233.82L117.26,201.44L122.15,223.03L127.03,190.42L131.92,233.82L136.81,223.03L141.69,223.03L151.46,223.03L156.35,179.63L161.23,223.03L166.12,168.84L171.01,201.44L175.89,158.04L180.78,136.46L185.66,125.43L190.55,147.25L195.44,158.04L200.32,320.4L205.21,223.03L210.09,190.42L214.98,331.42L219.87,288.02L224.75,298.81L229.64,212.24L234.52,147.25L239.41,147.25L244.3,298.81L249.18,233.82L254.07,309.6L258.95,331.42L263.84,331.42L268.72,342.21L273.61,190.42L278.5,201.44L283.38,190.42L288.27,201.44L293.15,158.04L298.04,190.42L302.93,179.63L307.81,223.03L312.7,190.42L317.58,201.44L322.47,233.82L327.36,190.42L332.24,212.24L337.13,190.42L342.01,158.04L346.9,158.04L351.79,136.46L356.67,158.04L361.56,147.25L366.44,158.04L371.33,201.44L376.21,233.82L381.1,168.84L385.99,309.6L390.87,179.63L395.76,179.63L400.64,223.03L410.42,179.63L415.3,277.23L420.19,277.23L425.07,125.43L429.96,136.46L434.85,136.46L439.73,103.85L444.62,136.46L449.5,136.46L454.39,201.44L459.28,179.63L464.16,255.41L469.05,147.25L473.93,212.24L478.82,168.84L483.7,201.44L488.59,255.41L493.48,158.04L498.36,147.25L503.25,168.84L508.13,223.03L513.02,212.24L517.91,158.04L522.79,277.23L532.56,342.21L537.45,309.6L542.34,223.03L547.22,244.62L552.11,212.24L556.99,331.42L561.88,147.25L566.77,255.41L571.65,331.42L576.54,266.43L581.42,255.41L586.31,147.25L591.19,277.23L596.08,179.63L600.97,136.46L605.85,136.46L610.74,223.03L615.62,277.23L620.51,298.81L625.4,223.03L630.28,125.43L635.17,212.24L640.05,201.44L644.94,158.04L649.83,147.25L654.71,158.04L659.6,255.41L664.48,168.84L669.37,168.84L674.26,147.25L679.14,244.62L684.03,212.24L688.91,190.42L693.8,201.44L698.68,266.43L703.57,179.63L708.46,168.84L713.34,190.42L718.23,374.59L723.11,363.8L728,363.8" style="vector-effect: none; fill: none; stroke: rgb(0, 0, 255); stroke-opacity: 1; stroke-width: 2px; opacity: 1;"/></g><g class="points"/><g class="text"/></g><g class="trace scatter traceaa28c0" style="stroke-miterlimit: 2; opacity: 1;"><g class="fills"/><g class="errorbars"/><g class="lines"><path class="js-line" d="M0,238.65L4.89,219.13L9.77,267.58L14.66,214.76L19.54,191.11L24.43,204.66L29.32,243.01L34.2,212.47L39.09,199.38L43.97,229.92L48.86,181.47L53.74,195.01L58.63,212.01L63.52,201.44L68.4,178.94L73.29,167.69L78.17,159.65L83.06,159.65L87.95,175.95L92.83,165.62L97.72,171.13L102.6,151.61L107.49,171.82L112.38,168.15L117.26,176.41L122.15,131.18L127.03,153.91L131.92,159.42L136.81,150.69L141.69,146.79L146.58,162.87L151.46,153.45L156.35,146.1L161.23,145.18L166.12,113.03L171.01,132.55L175.89,120.15L180.78,143.35L185.66,126.58L190.55,121.53L195.44,111.89L200.32,214.99L205.21,119.69L210.09,127.5L214.98,203.97L219.87,213.85L224.75,187.67L229.64,127.04L234.52,92.6L239.41,105.69L244.3,197.54L249.18,160.8L254.07,204.66L258.95,183.3L263.84,213.85L268.72,195.93L273.61,135.08L278.5,146.56L283.38,93.51L288.27,87.77L293.15,106.83L298.04,139.67L302.93,115.56L307.81,139.67L312.7,121.07L317.58,99.03L322.47,133.01L327.36,100.86L332.24,93.05L337.13,72.62L342.01,61.59L346.9,102.01L351.79,104.77L356.67,107.06L361.56,77.44L366.44,86.85L371.33,118.54L376.21,113.26L381.1,78.82L385.99,178.94L390.87,82.26L395.76,100.86L400.64,101.55L405.53,96.73L410.42,102.24L415.3,155.98L420.19,126.58L425.07,115.1L429.96,79.74L434.85,79.05L439.73,85.71L449.5,93.51L454.39,94.89L459.28,102.01L464.16,140.82L469.05,94.66L473.93,144.03L478.82,84.56L483.7,124.29L488.59,126.58L493.48,97.65L498.36,103.16L503.25,132.09L508.13,139.67L513.02,139.67L517.91,77.67L522.79,157.81L527.68,174.58L532.56,198.46L537.45,184.91L542.34,123.37L547.22,140.82L552.11,135.31L556.99,162.64L561.88,85.94L566.77,142.89L571.65,155.06L576.54,117.63L581.42,127.5L586.31,87.08L591.19,139.67L596.08,92.37L600.97,79.74L605.85,82.95L610.74,113.49L615.62,154.37L620.51,158.5L625.4,110.28L630.28,50.34L635.17,93.97L640.05,101.55L644.94,54.25L649.83,38.17L654.71,54.25L659.6,95.35L664.48,84.56L669.37,66.65L674.26,65.73L679.14,120.15L684.03,100.86L688.91,88.23L693.8,90.53L698.68,135.31L703.57,56.54L708.46,68.02L713.34,69.63L718.23,146.56L723.11,144.26L728,148.17" style="vector-effect: none; fill: none; stroke: rgb(0, 128, 0); stroke-opacity: 1; stroke-width: 2px; opacity: 1;"/></g><g class="points"/><g class="text"/></g><g class="trace scatter trace10feb6" style="stroke-miterlimit: 2; opacity: 1;"><g class="fills"/><g class="errorbars"/><g class="lines"><path class="js-line" d="M0,181.7L4.89,247.37L9.77,241.63L14.66,171.82L19.54,187.21L24.43,221.42L29.32,245.99L34.2,232.45L39.09,196.16L43.97,217.52L48.86,210.4L53.74,221.42L58.63,241.17L63.52,219.82L68.4,234.28L73.29,221.42L78.17,211.09L83.06,262.3L87.95,232.22L92.83,271.94L97.72,250.13L102.6,243.93L107.49,261.84L112.38,262.3L117.26,230.38L122.15,235.89L127.03,218.21L131.92,259.54L136.81,231.07L141.69,231.07L146.58,250.13L151.46,250.13L156.35,211.09L161.23,240.02L166.12,199.38L171.01,232.22L175.89,189.04L180.78,165.62L185.66,155.29L190.55,177.1L195.44,186.06L200.32,293.99L205.21,247.14L210.09,215.68L214.98,293.07L219.87,265.05L224.75,292.84L229.64,227.16L234.52,174.12L239.41,174.12L244.3,286.41L249.18,244.39L254.07,293.99L258.95,308.69L263.84,301.11L268.72,315.8L273.61,209.25L278.5,214.07L283.38,221.65L288.27,232.22L293.15,181.47L298.04,200.99L302.93,200.3L307.81,220.05L312.7,205.35L317.58,225.33L322.47,239.34L327.36,205.35L332.24,222.57L337.13,209.25L342.01,174.81L346.9,183.99L351.79,164.01L356.67,186.06L361.56,175.95L366.44,186.06L371.33,209.25L376.21,244.39L381.1,193.87L385.99,293.99L390.87,192.26L395.76,208.1L400.64,240.02L410.42,206.04L415.3,271.25L420.19,264.83L425.07,155.29L429.96,165.39L434.85,166.31L439.73,132.78L444.62,166.31L449.5,164.01L454.39,218.21L459.28,200.3L464.16,243.01L469.05,161.95L473.93,212.24L478.82,193.87L483.7,209.25L488.59,249.67L493.48,178.48L498.36,175.95L503.25,183.53L508.13,225.79L513.02,217.75L517.91,187.67L522.79,264.83L527.68,286.87L532.56,291L537.45,271.03L542.34,220.05L547.22,247.37L552.11,217.75L556.99,315.58L561.88,174.12L566.77,260.92L571.65,315.58L576.54,269.19L581.42,260.92L586.31,171.82L591.19,271.25L596.08,196.62L600.97,161.95L605.85,164.01L610.74,231.07L615.62,271.25L620.51,286.41L625.4,231.07L630.28,152.07L635.17,217.75L640.05,204.2L644.94,183.99L649.83,174.12L654.71,187.67L659.6,260.92L664.48,187.44L669.37,187.44L674.26,169.07L679.14,235.66L684.03,234.74L688.91,200.99L693.8,204.2L698.68,250.59L703.57,196.62L708.46,196.16L713.34,205.35L718.23,310.06L723.11,313.05L728,303.86" style="vector-effect: none; fill: none; stroke: rgb(255, 165, 0); stroke-opacity: 1; stroke-width: 2px; opacity: 1;"/></g><g class="points"/><g class="text"/></g><g class="trace scatter trace379539" style="stroke-miterlimit: 2; opacity: 1;"><g class="fills"/><g class="errorbars"/><g class="lines"><path class="js-line" d="M0,282.28L4.89,311.44L9.77,374.59L14.66,254.95L19.54,195.93L24.43,236.81L29.32,317.18L34.2,240.71L39.09,219.36L43.97,257.48L48.86,189.73L53.74,212.01L58.63,246.45L63.52,234.51L68.4,186.52L73.29,182.15L78.17,155.29L83.06,146.1L87.95,173.66L92.83,158.04L97.72,162.87L102.6,145.41L107.49,152.99L112.38,156.89L117.26,164.7L122.15,110.28L127.03,135.77L131.92,141.28L136.81,130.26L141.69,126.12L146.58,145.41L151.46,137.83L156.35,138.98L161.23,126.12L166.12,104.54L171.01,122.68L175.89,118.77L180.78,137.6L185.66,120.84L190.55,109.82L195.44,94.66L200.32,201.44L205.21,99.48L210.09,107.52L214.98,190.19L219.87,198.46L224.75,168.84L229.64,106.6L234.52,74.68L239.41,87.31L244.3,179.17L249.18,140.59L254.07,187.67L258.95,164.7L263.84,198.46L268.72,178.94L273.61,114.18L278.5,125.89L283.38,78.36L288.27,71.7L293.15,86.85L298.04,118.77L302.93,94.43L307.81,119L312.7,99.71L317.58,79.05L322.47,111.89L327.36,79.28L332.24,71.24L337.13,52.87L342.01,41.62L346.9,88L351.79,92.14L356.67,90.99L361.56,65.04L366.44,68.25L371.33,96.96L376.21,91.91L381.1,60.22L385.99,162.64L390.87,59.76L395.76,83.41L400.64,79.74L405.53,75.37L410.42,80.88L415.3,136.92L420.19,106.6L425.07,98.8L429.96,63.89L434.85,74.68L439.73,73.99L444.62,85.94L449.5,78.36L454.39,73.99L459.28,82.26L464.16,121.07L469.05,72.62L473.93,123.6L478.82,63.66L483.7,103.16L488.59,106.6L493.48,75.6L498.36,81.57L503.25,111.2L508.13,119.46L513.02,119.46L517.91,57.46L522.79,139.67L527.68,159.88L532.56,189.5L537.45,173.2L542.34,102.24L547.22,119.92L552.11,115.33L556.99,145.87L561.88,64.12L566.77,123.37L571.65,137.83L576.54,96.04L581.42,106.37L586.31,65.96L591.19,119.46L596.08,70.32L600.97,57.69L605.85,63.2L610.74,91.91L615.62,136.46L620.51,141.28L625.4,88.69L630.28,29.67L635.17,71.7L640.05,79.97L644.94,32.43L649.83,19.8L654.71,35.65L659.6,73.31L664.48,62.51L669.37,46.44L674.26,44.6L679.14,99.03L684.03,80.42L688.91,65.96L693.8,68.25L698.68,117.86L703.57,33.58L708.46,49.88L713.34,46.67L718.23,133.93L723.11,130.26L728,134.85" style="vector-effect: none; fill: none; stroke: rgb(128, 0, 128); stroke-opacity: 1; stroke-width: 2px; opacity: 1;"/></g><g class="points"/><g class="text"/></g><g class="trace scatter trace499951" style="stroke-miterlimit: 2; opacity: 1;"><g class="fills"/><g class="errorbars"/><g class="lines"><path class="js-line" d="M0,228.77L4.89,310.98L9.77,317.18L14.66,214.07L19.54,183.3L24.43,221.42L29.32,284.11L34.2,236.12L39.09,204.2L43.97,233.59L48.86,206.73L53.74,221.42L58.63,257.02L63.52,227.62L68.4,223.72L73.29,221.42L78.17,182.15L83.06,224.87L87.95,199.15L92.83,233.59L97.72,210.17L102.6,213.85L107.49,214.99L112.38,224.87L117.26,192.95L127.03,178.25L131.92,218.67L136.81,179.4L141.69,179.4L146.58,210.17L151.46,210.17L156.35,182.15L161.23,191.8L166.12,167.46L171.01,199.15L175.89,171.13L180.78,153.91L185.66,133.01L190.55,144.03L195.44,146.56L200.32,250.36L205.21,203.97L210.09,172.28L214.98,252.88L219.87,218.44L224.75,245.54L229.64,177.1L234.52,131.86L239.41,131.86L244.3,239.34L249.18,194.1L254.07,248.06L258.95,265.05L263.84,259.08L268.72,273.78L273.61,159.88L278.5,162.41L283.38,190.65L288.27,199.15L293.15,134.16L298.04,147.48L302.93,151.38L307.81,167.23L312.7,153.68L317.58,180.78L322.47,187.9L327.36,153.68L332.24,170.9L337.13,159.88L342.01,121.76L346.9,140.36L351.79,123.14L356.67,146.56L361.56,137.83L366.44,146.56L371.33,156.21L376.21,194.1L381.1,148.86L385.99,248.06L390.87,138.98L395.76,169.75L400.64,191.8L405.53,174.58L410.42,163.55L415.3,222.34L420.19,216.14L425.07,126.81L429.96,129.34L434.85,147.71L439.73,103.62L444.62,147.71L449.5,123.14L454.39,168.38L459.28,151.38L464.16,192.95L469.05,107.06L473.93,158.5L478.82,148.86L483.7,156.21L488.59,198.92L493.48,127.96L498.36,137.83L503.25,130.49L508.13,173.2L513.02,164.7L517.91,152.53L522.79,216.14L527.68,241.86L532.56,255.18L537.45,229.46L542.34,167.23L547.22,196.62L552.11,164.7L556.99,271.25L561.88,131.86L566.77,211.32L571.65,271.25L576.54,219.82L581.42,211.32L586.31,125.66L591.19,222.34L596.08,145.18L600.97,116.94L605.85,123.14L610.74,179.4L615.62,222.34L620.51,239.34L625.4,179.4L630.28,108.44L635.17,164.7L640.05,150.01L649.83,131.86L654.71,152.53L659.6,211.32L664.48,136.69L669.37,136.69L674.26,119.46L679.14,184.22L684.03,189.27L688.91,147.48L693.8,150.01L698.68,201.44L703.57,145.18L708.46,155.06L713.34,153.68L718.23,280.9L723.11,278.6L728,272.4" style="vector-effect: none; fill: none; stroke: rgb(255, 192, 203); stroke-opacity: 1; stroke-width: 2px; opacity: 1;"/></g><g class="points"/><g class="text"/></g><g class="trace scatter traceb63bb2" style="stroke-miterlimit: 2; opacity: 1;"><g class="fills"/><g class="errorbars"/><g class="lines"><path class="js-line" d="M0,269.88L4.89,294.45L9.77,360.13L14.66,242.78L19.54,193.64L24.43,226.25L29.32,301.8L34.2,231.07L39.09,211.78L43.97,248.06L48.86,186.06L53.74,205.35L58.63,235.43L63.52,223.49L68.4,183.07L73.29,176.18L78.17,157.58L83.06,155.06L87.95,175.04L92.83,162.41L97.72,167.69L102.6,148.86L107.49,169.3L112.38,164.01L117.26,172.28L122.15,130.26L127.03,150.46L131.92,155.98L136.81,156.21L141.69,146.56L146.58,159.19L151.46,148.86L156.35,143.12L161.23,141.97L166.12,109.59L171.01,128.65L175.89,119.46L180.78,140.59L185.66,124.06L190.55,116.94L195.44,107.29L200.32,236.58L205.21,116.94L210.09,125.2L214.98,225.79L219.87,231.53L224.75,196.85L229.64,124.97L234.52,87.77L239.41,101.32L244.3,207.64L249.18,160.34L254.07,218.21L258.95,193.87L263.84,231.53L268.72,209.94L273.61,135.31L278.5,148.63L283.38,88.46L288.27,82.72L293.15,103.39L298.04,140.59L302.93,113.95L307.81,145.41L312.7,121.53L317.58,95.35L322.47,137.38L327.36,99.94L332.24,91.68L337.13,68.02L342.01,57L346.9,97.19L351.79,100.17L356.67,102.01L361.56,72.62L366.44,82.03L371.33,121.07L376.21,113.49L381.1,73.99L385.99,196.16L390.87,83.18L395.76,96.27L400.64,102.24L405.53,94.66L410.42,100.17L415.3,166.54L420.19,136.69L425.07,110.28L429.96,74.68L434.85,76.98L439.73,81.11L444.62,88.23L449.5,88.46L454.39,92.14L459.28,98.11L464.16,150.46L469.05,94.2L473.93,150.69L478.82,81.34L483.7,129.11L488.59,136.69L493.48,99.48L498.36,102.7L503.25,137.15L508.13,147.71L513.02,147.71L517.91,73.54L522.79,171.82L527.68,195.93L532.56,230.84L537.45,212.01L542.34,128.88L547.22,145.41L552.11,144.95L556.99,179.63L561.88,83.64L566.77,152.99L571.65,171.59L576.54,121.07L581.42,131.86L586.31,84.1L591.19,147.71L596.08,91.68L600.97,78.13L605.85,79.05L610.74,118.09L615.62,169.07L620.51,174.35L625.4,115.33L630.28,45.98L635.17,94.2L640.05,107.06L644.94,51.03L649.83,32.89L654.71,49.19L659.6,96.73L664.48,83.41L669.37,62.51L674.26,62.05L679.14,126.12L684.03,97.88L688.91,90.99L693.8,93.74L698.68,152.53L703.57,55.85L708.46,62.97L713.34,71.93L718.23,173.89L723.11,168.38L728,173.89" style="vector-effect: none; fill: none; stroke: rgb(165, 42, 42); stroke-opacity: 1; stroke-width: 2px; opacity: 1;"/></g><g class="points"/><g class="text"/></g><g class="trace scatter traceaef586" style="stroke-miterlimit: 2; opacity: 1;"><g class="fills"/><g class="errorbars"/><g class="lines"><path class="js-line" d="M0,210.63L4.89,289.63L9.77,293.07L14.66,197.31L19.54,185.37L24.43,221.42L29.32,269.19L39.09,200.3L43.97,226.48L48.86,208.56L53.74,221.42L58.63,249.9L63.52,223.72L68.4,229.46L73.29,221.42L78.17,200.3L83.06,252.42L87.95,221.19L92.83,262.76L97.72,240.25L102.6,233.59L107.49,257.71L112.38,252.42L117.26,219.59L122.15,234.05L127.03,207.42L131.92,250.59L136.81,232.68L141.69,232.68L146.58,240.25L151.46,240.25L156.35,200.3L161.23,235.43L166.12,188.13L171.01,221.19L175.89,181.24L180.78,160.11L185.66,145.87L190.55,165.39L195.44,174.35L200.32,325.45L205.21,238.65L210.09,205.81L214.98,334.86L219.87,293.07L224.75,306.85L229.64,223.72L234.52,162.18L239.41,162.18L244.3,305.7L249.18,244.39L254.07,316.03L258.95,336.7L263.84,335.78L268.72,347.27L273.61,202.82L278.5,211.78L283.38,210.86L288.27,221.19L293.15,171.36L298.04,200.07L302.93,192.26L307.81,230.38L312.7,201.44L317.58,216.14L322.47,243.24L327.36,201.44L332.24,222.34L337.13,202.82L342.01,168.61L346.9,172.74L351.79,151.61L356.67,174.35L361.56,163.78L366.44,174.35L376.21,244.39L381.1,183.3L385.99,316.03L390.87,189.73L395.76,196.85L400.64,235.43L410.42,195.24L415.3,284.8L420.19,283.66L425.07,144.26L429.96,153.22L434.85,158.27L439.73,121.53L444.62,158.27L449.5,151.61L454.39,213.16L459.28,192.26L464.16,261.61L469.05,156.89L473.93,219.82L478.82,183.3L483.7,210.63L488.59,262.76L493.48,169.98L498.36,163.78L503.25,179.17L508.13,231.53L513.02,220.96L517.91,175.95L522.79,283.66L532.56,344.74L537.45,313.05L542.34,230.38L547.22,253.57L552.11,220.96L556.99,337.85L561.88,162.18L566.77,265.28L571.65,337.85L576.54,275.62L581.42,265.28L586.31,160.8L591.19,284.8L596.08,190.88L600.97,150.24L605.85,151.61L610.74,232.68L615.62,284.8L620.51,305.7L625.4,232.68L630.28,139.67L635.17,220.96L640.05,209.48L644.94,172.74L649.83,162.18L654.71,175.95L659.6,265.28L664.48,180.55L669.37,180.55L674.26,159.42L679.14,251.28L684.03,226.48L688.91,200.07L693.8,209.48L698.68,272.17L703.57,190.88L708.46,184.68L713.34,201.44L718.23,376.2L723.11,366.33L728,365.64" style="vector-effect: none; fill: none; stroke: rgb(128, 128, 128); stroke-opacity: 1; stroke-width: 2px; opacity: 1;"/></g><g class="points"/><g class="text"/></g></g></g><g class="overplot"/><path class="xlines-above crisp" d="M0,0" style="fill: none;"/><path class="ylines-above crisp" d="M0,0" style="fill: none;"/><g class="overlines-above"/><g class="xaxislayer-above"><g class="xtick"><text text-anchor="middle" x="0" y="509" transform="translate(233.82999999999998,0)" style="font-family: 'Open Sans', verdana, arial, sans-serif; font-size: 12px; fill: rgb(42, 63, 95); fill-opacity: 1; white-space: pre; opacity: 1;">20</text></g><g class="xtick"><text text-anchor="middle" x="0" y="509" style="font-family: 'Open Sans', verdana, arial, sans-serif; font-size: 12px; fill: rgb(42, 63, 95); fill-opacity: 1; white-space: pre; opacity: 1;" transform="translate(331.55,0)">40</text></g><g class="xtick"><text text-anchor="middle" x="0" y="509" style="font-family: 'Open Sans', verdana, arial, sans-serif; font-size: 12px; fill: rgb(42, 63, 95); fill-opacity: 1; white-space: pre; opacity: 1;" transform="translate(429.27,0)">60</text></g><g class="xtick"><text text-anchor="middle" x="0" y="509" style="font-family: 'Open Sans', verdana, arial, sans-serif; font-size: 12px; fill: rgb(42, 63, 95); fill-opacity: 1; white-space: pre; opacity: 1;" transform="translate(526.99,0)">80</text></g><g class="xtick"><text text-anchor="middle" x="0" y="509" style="font-family: 'Open Sans', verdana, arial, sans-serif; font-size: 12px; fill: rgb(42, 63, 95); fill-opacity: 1; white-space: pre; opacity: 1;" transform="translate(624.7,0)">100</text></g><g class="xtick"><text text-anchor="middle" x="0" y="509" style="font-family: 'Open Sans', verdana, arial, sans-serif; font-size: 12px; fill: rgb(42, 63, 95); fill-opacity: 1; white-space: pre; opacity: 1;" transform="translate(722.42,0)">120</text></g><g class="xtick"><text text-anchor="middle" x="0" y="509" style="font-family: 'Open Sans', verdana, arial, sans-serif; font-size: 12px; fill: rgb(42, 63, 95); fill-opacity: 1; white-space: pre; opacity: 1;" transform="translate(820.14,0)">140</text></g></g><g class="yaxislayer-above"><g class="ytick"><text text-anchor="end" x="140" y="4.199999999999999" transform="translate(0,475.97)" style="font-family: 'Open Sans', verdana, arial, sans-serif; font-size: 12px; fill: rgb(42, 63, 95); fill-opacity: 1; white-space: pre; opacity: 1;">74</text></g><g class="ytick"><text text-anchor="end" x="140" y="4.199999999999999" style="font-family: 'Open Sans', verdana, arial, sans-serif; font-size: 12px; fill: rgb(42, 63, 95); fill-opacity: 1; white-space: pre; opacity: 1;" transform="translate(0,430.04)">76</text></g><g class="ytick"><text text-anchor="end" x="140" y="4.199999999999999" style="font-family: 'Open Sans', verdana, arial, sans-serif; font-size: 12px; fill: rgb(42, 63, 95); fill-opacity: 1; white-space: pre; opacity: 1;" transform="translate(0,384.11)">78</text></g><g class="ytick"><text text-anchor="end" x="140" y="4.199999999999999" style="font-family: 'Open Sans', verdana, arial, sans-serif; font-size: 12px; fill: rgb(42, 63, 95); fill-opacity: 1; white-space: pre; opacity: 1;" transform="translate(0,338.19)">80</text></g><g class="ytick"><text text-anchor="end" x="140" y="4.199999999999999" style="font-family: 'Open Sans', verdana, arial, sans-serif; font-size: 12px; fill: rgb(42, 63, 95); fill-opacity: 1; white-space: pre; opacity: 1;" transform="translate(0,292.26)">82</text></g><g class="ytick"><text text-anchor="end" x="140" y="4.199999999999999" style="font-family: 'Open Sans', verdana, arial, sans-serif; font-size: 12px; fill: rgb(42, 63, 95); fill-opacity: 1; white-space: pre; opacity: 1;" transform="translate(0,246.33)">84</text></g><g class="ytick"><text text-anchor="end" x="140" y="4.199999999999999" style="font-family: 'Open Sans', verdana, arial, sans-serif; font-size: 12px; fill: rgb(42, 63, 95); fill-opacity: 1; white-space: pre; opacity: 1;" transform="translate(0,200.4)">86</text></g><g class="ytick"><text text-anchor="end" x="140" y="4.199999999999999" style="font-family: 'Open Sans', verdana, arial, sans-serif; font-size: 12px; fill: rgb(42, 63, 95); fill-opacity: 1; white-space: pre; opacity: 1;" transform="translate(0,154.48)">88</text></g><g class="ytick"><text text-anchor="end" x="140" y="4.199999999999999" style="font-family: 'Open Sans', verdana, arial, sans-serif; font-size: 12px; fill: rgb(42, 63, 95); fill-opacity: 1; white-space: pre; opacity: 1;" transform="translate(0,108.55)">90</text></g></g><g class="overaxes-above"/></g></g><g class="polarlayer"/><g class="smithlayer"/><g class="ternarylayer"/><g class="geolayer"/><g class="funnelarealayer"/><g class="pielayer"/><g class="iciclelayer"/><g class="treemaplayer"/><g class="sunburstlayer"/><g class="glimages"/><defs id="topdefs-fc17f0"><g class="clips"/><clipPath id="legendfc17f0"><rect width="128" height="162" x="0" y="0"/></clipPath></defs><g class="layer-above"><g class="imagelayer"/><g class="shapelayer"/></g><g class="infolayer"><g class="legend" pointer-events="all" transform="translate(883.5600000000001,100)"><rect class="bg" shape-rendering="crispEdges" width="128" height="162" x="0" y="0" style="stroke: rgb(68, 68, 68); stroke-opacity: 1; fill: rgb(255, 255, 255); fill-opacity: 1; stroke-width: 0px;"/><g class="scrollbox" transform="" clip-path="url(#legendfc17f0)"><g class="groups"><g class="traces" transform="translate(0,14.5)" style="opacity: 1;"><text class="legendtext" text-anchor="start" x="40" y="4.680000000000001" style="font-family: 'Open Sans', verdana, arial, sans-serif; font-size: 12px; fill: rgb(42, 63, 95); fill-opacity: 1; white-space: pre;">Train Accuracy</text><g class="layers" style="opacity: 1;"><g class="legendfill"/><g class="legendlines"><path class="js-line" d="M5,0h30" style="fill: none; stroke: rgb(255, 0, 0); stroke-opacity: 1; stroke-width: 2px;"/></g><g class="legendsymbols"><g class="legendpoints"/></g></g><rect class="legendtoggle" x="0" y="-9.5" width="122.71875" height="19" style="fill: rgb(0, 0, 0); fill-opacity: 0;"/></g><g class="traces" transform="translate(0,33.5)" style="opacity: 1;"><text class="legendtext" text-anchor="start" x="40" y="4.680000000000001" style="font-family: 'Open Sans', verdana, arial, sans-serif; font-size: 12px; fill: rgb(42, 63, 95); fill-opacity: 1; white-space: pre;">Test Accuracy</text><g class="layers" style="opacity: 1;"><g class="legendfill"/><g class="legendlines"><path class="js-line" d="M5,0h30" style="fill: none; stroke: rgb(0, 0, 255); stroke-opacity: 1; stroke-width: 2px;"/></g><g class="legendsymbols"><g class="legendpoints"/></g></g><rect class="legendtoggle" x="0" y="-9.5" width="122.71875" height="19" style="fill: rgb(0, 0, 0); fill-opacity: 0;"/></g><g class="traces" transform="translate(0,52.5)" style="opacity: 1;"><text class="legendtext" text-anchor="start" x="40" y="4.680000000000001" style="font-family: 'Open Sans', verdana, arial, sans-serif; font-size: 12px; fill: rgb(42, 63, 95); fill-opacity: 1; white-space: pre;">Train Precision</text><g class="layers" style="opacity: 1;"><g class="legendfill"/><g class="legendlines"><path class="js-line" d="M5,0h30" style="fill: none; stroke: rgb(0, 128, 0); stroke-opacity: 1; stroke-width: 2px;"/></g><g class="legendsymbols"><g class="legendpoints"/></g></g><rect class="legendtoggle" x="0" y="-9.5" width="122.71875" height="19" style="fill: rgb(0, 0, 0); fill-opacity: 0;"/></g><g class="traces" transform="translate(0,71.5)" style="opacity: 1;"><text class="legendtext" text-anchor="start" x="40" y="4.680000000000001" style="font-family: 'Open Sans', verdana, arial, sans-serif; font-size: 12px; fill: rgb(42, 63, 95); fill-opacity: 1; white-space: pre;">Test Precision</text><g class="layers" style="opacity: 1;"><g class="legendfill"/><g class="legendlines"><path class="js-line" d="M5,0h30" style="fill: none; stroke: rgb(255, 165, 0); stroke-opacity: 1; stroke-width: 2px;"/></g><g class="legendsymbols"><g class="legendpoints"/></g></g><rect class="legendtoggle" x="0" y="-9.5" width="122.71875" height="19" style="fill: rgb(0, 0, 0); fill-opacity: 0;"/></g><g class="traces" transform="translate(0,90.5)" style="opacity: 1;"><text class="legendtext" text-anchor="start" x="40" y="4.680000000000001" style="font-family: 'Open Sans', verdana, arial, sans-serif; font-size: 12px; fill: rgb(42, 63, 95); fill-opacity: 1; white-space: pre;">Train Recall</text><g class="layers" style="opacity: 1;"><g class="legendfill"/><g class="legendlines"><path class="js-line" d="M5,0h30" style="fill: none; stroke: rgb(128, 0, 128); stroke-opacity: 1; stroke-width: 2px;"/></g><g class="legendsymbols"><g class="legendpoints"/></g></g><rect class="legendtoggle" x="0" y="-9.5" width="122.71875" height="19" style="fill: rgb(0, 0, 0); fill-opacity: 0;"/></g><g class="traces" transform="translate(0,109.5)" style="opacity: 1;"><text class="legendtext" text-anchor="start" x="40" y="4.680000000000001" style="font-family: 'Open Sans', verdana, arial, sans-serif; font-size: 12px; fill: rgb(42, 63, 95); fill-opacity: 1; white-space: pre;">Test Recall</text><g class="layers" style="opacity: 1;"><g class="legendfill"/><g class="legendlines"><path class="js-line" d="M5,0h30" style="fill: none; stroke: rgb(255, 192, 203); stroke-opacity: 1; stroke-width: 2px;"/></g><g class="legendsymbols"><g class="legendpoints"/></g></g><rect class="legendtoggle" x="0" y="-9.5" width="122.71875" height="19" style="fill: rgb(0, 0, 0); fill-opacity: 0;"/></g><g class="traces" transform="translate(0,128.5)" style="opacity: 1;"><text class="legendtext" text-anchor="start" x="40" y="4.680000000000001" style="font-family: 'Open Sans', verdana, arial, sans-serif; font-size: 12px; fill: rgb(42, 63, 95); fill-opacity: 1; white-space: pre;">Train F1</text><g class="layers" style="opacity: 1;"><g class="legendfill"/><g class="legendlines"><path class="js-line" d="M5,0h30" style="fill: none; stroke: rgb(165, 42, 42); stroke-opacity: 1; stroke-width: 2px;"/></g><g class="legendsymbols"><g class="legendpoints"/></g></g><rect class="legendtoggle" x="0" y="-9.5" width="122.71875" height="19" style="fill: rgb(0, 0, 0); fill-opacity: 0;"/></g><g class="traces" transform="translate(0,147.5)" style="opacity: 1;"><text class="legendtext" text-anchor="start" x="40" y="4.680000000000001" style="font-family: 'Open Sans', verdana, arial, sans-serif; font-size: 12px; fill: rgb(42, 63, 95); fill-opacity: 1; white-space: pre;">Test F1</text><g class="layers" style="opacity: 1;"><g class="legendfill"/><g class="legendlines"><path class="js-line" d="M5,0h30" style="fill: none; stroke: rgb(128, 128, 128); stroke-opacity: 1; stroke-width: 2px;"/></g><g class="legendsymbols"><g class="legendpoints"/></g></g><rect class="legendtoggle" x="0" y="-9.5" width="122.71875" height="19" style="fill: rgb(0, 0, 0); fill-opacity: 0;"/></g></g></g><rect class="scrollbar" rx="20" ry="3" width="0" height="0" x="0" y="0" style="fill: rgb(128, 139, 164); fill-opacity: 1;"/></g><g class="g-gtitle"><text class="gtitle" x="51.2" y="50" text-anchor="start" dy="0em" style="font-family: 'Open Sans', verdana, arial, sans-serif; font-size: 17px; fill: rgb(42, 63, 95); opacity: 1; font-weight: normal; white-space: pre;">Training Metrics - logs/FakeNewsNet-politifact_max-vocab=15000_pre=v2_text_domain_T=250_s=10.log</text></g><g class="g-xtitle"><text class="xtitle" x="505" y="537.3" text-anchor="middle" style="font-family: 'Open Sans', verdana, arial, sans-serif; font-size: 14px; fill: rgb(42, 63, 95); opacity: 1; font-weight: normal; white-space: pre;">Epoch</text></g><g class="g-ytitle"><text class="ytitle" transform="rotate(-90,101.965625,298)" x="101.965625" y="298" text-anchor="middle" style="font-family: 'Open Sans', verdana, arial, sans-serif; font-size: 14px; fill: rgb(42, 63, 95); opacity: 1; font-weight: normal; white-space: pre;">Metric Score</text></g></g><g class="menulayer"><g class="updatemenu-container" style="cursor: pointer;"><g class="updatemenu-header-group" transform="translate(12,60)"><g class="updatemenu-header" transform="translate(1,1)" style="pointer-events: all;"><rect class="updatemenu-item-rect" rx="2" ry="2" shape-rendering="crispEdges" x="0" y="0" width="165" height="33" style="stroke: rgb(190, 200, 217); stroke-opacity: 1; fill: rgb(255, 255, 255); fill-opacity: 1; stroke-width: 1px;"/><text class="updatemenu-item-text" text-anchor="start" data-notex="1" x="12" y="19.5" style="font-family: 'Open Sans', verdana, arial, sans-serif; font-size: 12px; fill: rgb(42, 63, 95); fill-opacity: 1; white-space: pre;">All</text></g><text class="updatemenu-header-arrow" text-anchor="end" x="161" y="19.5" style="font-family: 'Open Sans', verdana, arial, sans-serif; font-size: 12px; fill: rgb(42, 63, 95); fill-opacity: 1;">▼</text></g><g class="updatemenu-dropdown-button-group" updatemenu-active-index="-1" style="pointer-events: all;"><rect class="scrollbox-bg" opacity="0" x="0" y="0" width="0" height="0" style="pointer-events: all;"/></g></g></g></svg>