<svg class="main-svg" xmlns="http://www.w3.org/2000/svg" xmlns:xlink="http://www.w3.org/1999/xlink" width="1024" height="576" style="" viewBox="0 0 1024 576"><rect x="0" y="0" width="1024" height="576" style="fill: rgb(255, 255, 255); fill-opacity: 1;"/><defs id="defs-314e9d"><g class="clips"><clipPath id="clip314e9dxyplot" class="plotclip"><rect width="726" height="396"/></clipPath><clipPath class="axesclip" id="clip314e9dx"><rect x="143" y="0" width="726" height="576"/></clipPath><clipPath class="axesclip" id="clip314e9dy"><rect x="0" y="100" width="1024" height="396"/></clipPath><clipPath class="axesclip" id="clip314e9dxy"><rect x="143" y="100" width="726" height="396"/></clipPath></g><g class="gradients"/><g class="patterns"/></defs><g class="bglayer"><rect class="bg" x="143" y="100" width="726" height="396" style="fill: rgb(229, 236, 246); fill-opacity: 1; stroke-width: 0;"/></g><g class="layer-below"><g class="imagelayer"/><g class="shapelayer"/></g><g class="cartesianlayer"><g class="subplot xy"><g class="layer-subplot"><g class="shapelayer"/><g class="imagelayer"/></g><g class="minor-gridlayer"><g class="x"/><g class="y"/></g><g class="gridlayer"><g class="x"><path class="xgrid crisp" transform="translate(235.57999999999998,0)" d="M0,100v396" style="stroke: rgb(255, 255, 255); stroke-opacity: 1; stroke-width: 1px;"/><path class="xgrid crisp" transform="translate(333.03,0)" d="M0,100v396" style="stroke: rgb(255, 255, 255); stroke-opacity: 1; stroke-width: 1px;"/><path class="xgrid crisp" transform="translate(430.48,0)" d="M0,100v396" style="stroke: rgb(255, 255, 255); stroke-opacity: 1; stroke-width: 1px;"/><path class="xgrid crisp" transform="translate(527.9300000000001,0)" d="M0,100v396" style="stroke: rgb(255, 255, 255); stroke-opacity: 1; stroke-width: 1px;"/><path class="xgrid crisp" transform="translate(625.38,0)" d="M0,100v396" style="stroke: rgb(255, 255, 255); stroke-opacity: 1; stroke-width: 1px;"/><path class="xgrid crisp" transform="translate(722.83,0)" d="M0,100v396" style="stroke: rgb(255, 255, 255); stroke-opacity: 1; stroke-width: 1px;"/><path class="xgrid crisp" transform="translate(820.28,0)" d="M0,100v396" style="stroke: rgb(255, 255, 255); stroke-opacity: 1; stroke-width: 1px;"/></g><g class="y"><path class="ygrid crisp" transform="translate(0,488.29)" d="M143,0h726" style="stroke: rgb(255, 255, 255); stroke-opacity: 1; stroke-width: 1px;"/><path class="ygrid crisp" transform="translate(0,445.12)" d="M143,0h726" style="stroke: rgb(255, 255, 255); stroke-opacity: 1; stroke-width: 1px;"/><path class="ygrid crisp" transform="translate(0,401.95)" d="M143,0h726" style="stroke: rgb(255, 255, 255); stroke-opacity: 1; stroke-width: 1px;"/><path class="ygrid crisp" transform="translate(0,358.78)" d="M143,0h726" style="stroke: rgb(255, 255, 255); stroke-opacity: 1; stroke-width: 1px;"/><path class="ygrid crisp" transform="translate(0,315.61)" d="M143,0h726" style="stroke: rgb(255, 255, 255); stroke-opacity: 1; stroke-width: 1px;"/><path class="ygrid crisp" transform="translate(0,272.44)" d="M143,0h726" style="stroke: rgb(255, 255, 255); stroke-opacity: 1; stroke-width: 1px;"/><path class="ygrid crisp" transform="translate(0,229.28)" d="M143,0h726" style="stroke: rgb(255, 255, 255); stroke-opacity: 1; stroke-width: 1px;"/><path class="ygrid crisp" transform="translate(0,186.11)" d="M143,0h726" style="stroke: rgb(255, 255, 255); stroke-opacity: 1; stroke-width: 1px;"/><path class="ygrid crisp" transform="translate(0,142.94)" d="M143,0h726" style="stroke: rgb(255, 255, 255); stroke-opacity: 1; stroke-width: 1px;"/></g></g><g class="zerolinelayer"/><path class="xlines-below"/><path class="ylines-below"/><g class="overlines-below"/><g class="xaxislayer-below"/><g class="yaxislayer-below"/><g class="overaxes-below"/><g class="plot" transform="translate(143,100)" clip-path="url(#clip314e9dxyplot)"><g class="scatterlayer mlayer"><g class="trace scatter tracee416b9" style="stroke-miterlimit: 2; opacity: 1;"><g class="fills"/><g class="errorbars"/><g class="lines"><path class="js-line" d="M0,208.02L4.87,188.59L9.74,183.5L14.62,175.29L19.49,174.26L24.36,171.24L29.23,155.87L34.11,160.96L38.98,94.48L43.85,128.24L48.72,124.18L58.47,133.33L63.34,54.59L68.21,45.36L73.09,60.72L77.96,64.87L82.83,59.69L87.7,39.23L92.58,56.67L97.45,133.33L102.32,98.63L107.19,118.05L112.07,106.74L116.94,89.39L121.81,112.87L126.68,89.39L131.56,47.43L136.43,46.39L141.3,38.19L146.17,36.2L151.05,28L155.92,52.52L160.79,23.94L170.54,30.07L175.41,25.93L180.28,43.37L185.15,44.41L199.77,25.93L204.64,30.07L209.52,51.57L214.39,53.56L219.26,36.2L224.13,32.06L229.01,67.89L233.88,87.32L238.75,76.09L243.62,29.04L248.5,31.11L253.37,29.04L258.24,28L263.11,45.36L272.86,49.5L277.73,45.36L282.6,135.41L287.48,133.33L292.35,133.33L297.22,134.37L302.09,133.33L306.97,138.51L311.84,131.35L316.71,132.38L321.58,147.67L326.46,137.48L331.33,137.48L336.2,132.38L341.07,136.44L345.95,40.26L350.82,42.33L355.69,26.97L360.56,31.11L365.44,47.43L370.31,97.59L375.18,46.39L380.05,48.46L384.93,44.41L389.8,65.82L394.67,63.83L399.54,61.76L404.42,62.8L409.29,64.87L414.16,64.87L419.03,44.41L423.91,48.46L428.78,26.97L433.65,21.87L443.4,23.94L448.27,22.91L453.14,20.84L458.01,19.8L462.89,23.94L467.76,44.41L477.5,44.41L482.38,46.39L492.12,38.19L496.99,35.17L501.87,39.23L506.74,39.23L511.61,84.29L516.48,80.15L521.36,79.11L526.23,76.09L531.1,44.41L535.97,40.26L540.85,42.33L545.72,41.3L550.59,39.23L555.46,39.23L560.34,37.24L565.21,36.2L570.08,35.17L574.95,36.2L584.7,42.33L589.57,41.3L594.44,39.23L599.32,42.33L604.19,38.19L609.06,41.3L613.93,41.3L618.81,43.37L623.68,42.33L628.55,46.39L633.42,72.98L638.3,64.87L643.17,67.89L648.04,51.57L652.91,46.39L657.79,42.33L662.66,43.37L667.53,38.19L672.4,83.26L677.28,75.06L682.15,76.09L687.02,72.98L691.89,78.16L696.77,78.16L701.64,82.22L706.51,77.13L711.38,77.13L716.26,80.15L721.13,77.13L726,78.16" style="vector-effect: none; fill: none; stroke: rgb(255, 0, 0); stroke-opacity: 1; stroke-width: 2px; opacity: 1;"/></g><g class="points"/><g class="text"/></g><g class="trace scatter tracece77dd" style="stroke-miterlimit: 2; opacity: 1;"><g class="fills"/><g class="errorbars"/><g class="lines"><path class="js-line" d="M0,222.95L4.87,198.52L9.74,190.4L24.36,190.4L29.23,182.2L34.11,178.14L38.98,153.71L43.85,165.97L48.72,161.82L53.6,153.71L58.47,161.82L63.34,125.22L68.21,133.33L73.09,125.22L77.96,121.16L82.83,117.02L87.7,129.28L92.58,125.22L97.45,190.4L102.32,153.71L107.19,186.26L112.07,165.97L116.94,153.71L121.81,186.26L126.68,161.82L131.56,121.16L136.43,104.84L141.3,125.22L146.17,112.96L151.05,112.96L155.92,129.28L160.79,112.96L165.66,92.58L170.54,96.73L175.41,96.73L180.28,117.02L185.15,100.78L190.03,112.96L194.9,104.84L199.77,80.41L204.64,104.84L209.52,129.28L214.39,117.02L219.26,96.73L224.13,80.41L229.01,133.33L233.88,141.54L238.75,145.59L243.62,100.78L248.5,92.58L253.37,100.78L258.24,108.9L263.11,121.16L267.99,121.16L272.86,125.22L277.73,121.16L282.6,194.46L287.48,202.58L292.35,202.58L297.22,202.58L302.09,198.52L306.97,202.58L311.84,202.58L316.71,202.58L321.58,206.63L326.46,198.52L331.33,198.52L336.2,202.58L341.07,194.46L345.95,108.9L350.82,104.84L355.69,84.47L360.56,84.47L365.44,104.84L370.31,178.14L375.18,112.96L380.05,117.02L384.93,104.84L389.8,145.59L399.54,145.59L404.42,137.39L409.29,141.54L414.16,141.54L419.03,108.9L423.91,104.84L428.78,84.47L433.65,84.47L438.52,100.78L443.4,96.73L448.27,92.58L453.14,92.58L462.89,92.58L467.76,104.84L472.63,121.16L477.5,121.16L482.38,112.96L487.25,112.96L492.12,108.9L496.99,112.96L501.87,112.96L506.74,117.02L511.61,157.77L516.48,153.71L521.36,149.65L526.23,157.77L531.1,117.02L535.97,117.02L540.85,117.02L545.72,112.96L550.59,112.96L555.46,100.78L560.34,108.9L565.21,108.9L570.08,104.84L574.95,96.73L579.83,104.84L584.7,108.9L589.57,108.9L594.44,112.96L599.32,108.9L604.19,100.78L609.06,112.96L613.93,112.96L618.81,129.28L623.68,125.22L628.55,121.16L633.42,149.65L638.3,145.59L643.17,145.59L648.04,133.33L652.91,129.28L657.79,117.02L662.66,121.16L667.53,121.16L672.4,161.82L677.28,153.71L682.15,153.71L687.02,157.77L691.89,149.65L696.77,157.77L701.64,161.82L706.51,161.82L711.38,157.77L716.26,161.82L721.13,161.82L726,153.71" style="vector-effect: none; fill: none; stroke: rgb(0, 0, 255); stroke-opacity: 1; stroke-width: 2px; opacity: 1;"/></g><g class="points"/><g class="text"/></g><g class="trace scatter trace653006" style="stroke-miterlimit: 2; opacity: 1;"><g class="fills"/><g class="errorbars"/><g class="lines"><path class="js-line" d="M0,105.53L4.87,99.23L9.74,95.78L14.62,101.82L19.49,103.63L24.36,106.22L29.23,95L34.11,98.63L38.98,68.41L43.85,79.72L48.72,73.59L53.6,78.77L58.47,77.82L63.34,43.89L68.21,39.74L73.09,43.8L77.96,63.75L82.83,59.86L87.7,34.65L92.58,43.2L97.45,95.86L102.32,81.62L107.19,88.96L112.07,83.78L116.94,71.78L121.81,84.03L126.68,74.71L131.56,32.23L136.43,32.32L141.3,25.41L146.17,32.66L151.05,27.4L155.92,52.87L160.79,24.46L165.66,27.83L170.54,27.92L175.41,23.6L180.28,36.29L185.15,30.85L190.03,27.66L194.9,29.64L199.77,26.62L204.64,31.2L209.52,53.9L214.39,55.89L219.26,38.97L224.13,34.56L229.01,63.23L233.88,74.02L238.75,66.68L243.62,31.28L248.5,33.96L253.37,29.99L258.24,29.04L263.11,46.48L267.99,48.81L272.86,50.28L277.73,46.74L282.6,95.95L287.48,91.55L292.35,91.55L297.22,94.31L302.09,92.67L306.97,94.31L311.84,90.42L316.71,91.03L321.58,96.73L326.46,97.16L331.33,94.91L336.2,93.19L341.07,94.31L345.95,41.73L350.82,43.54L355.69,29.38L360.56,33.79L365.44,49.5L370.31,77.9L375.18,48.12L380.05,49.67L384.93,46.13L389.8,59.69L404.42,55.28L409.29,57.87L414.16,59.95L419.03,45.87L423.91,49.67L428.78,29.38L433.65,20.49L438.52,21.35L443.4,22.65L448.27,22.56L458.01,21.35L462.89,25.33L467.76,45.27L472.63,45.61L477.5,45.01L482.38,47.34L487.25,42.94L492.12,39.74L496.99,36.2L501.87,40L506.74,40.61L511.61,66.94L526.23,61.5L531.1,45.01L535.97,41.21L540.85,42.94L545.72,42.08L550.59,40.35L555.46,39.74L560.34,38.28L570.08,36.81L574.95,37.41L584.7,43.28L589.57,42.33L594.44,40.35L599.32,43.28L604.19,39.74L609.06,42.08L613.93,41.82L618.81,43.2L623.68,42.33L628.55,47.34L633.42,62.71L638.3,54.42L643.17,57.79L648.04,50.71L657.79,43.8L662.66,44.41L667.53,39.14L672.4,68.49L677.28,62.88L682.15,62.19L687.02,58.05L691.89,64.26L696.77,63.57L701.64,67.03L706.51,63.57L711.38,62.88L716.26,64.95L721.13,61.5L726,64.26" style="vector-effect: none; fill: none; stroke: rgb(0, 128, 0); stroke-opacity: 1; stroke-width: 2px; opacity: 1;"/></g><g class="points"/><g class="text"/></g><g class="trace scatter tracebad97c" style="stroke-miterlimit: 2; opacity: 1;"><g class="fills"/><g class="errorbars"/><g class="lines"><path class="js-line" d="M0,246.52L4.87,166.75L9.74,151.81L14.62,172.01L19.49,172.01L24.36,172.01L29.23,159.15L34.11,153.28L38.98,153.97L43.85,144.64L48.72,145.94L53.6,123.4L58.47,132.47L63.34,131.43L68.21,145.16L73.09,123.66L77.96,122.2L82.83,119.09L87.7,140.84L92.58,126.6L97.45,150.69L102.32,136.61L107.19,148.44L112.07,137.05L116.94,133.33L121.81,148.44L126.68,141.62L136.43,108.99L141.3,131.43L146.17,125.13L151.05,125.13L155.92,135.92L160.79,126.86L165.66,104.41L170.54,107.52L175.41,108.55L180.28,128.15L185.15,96.99L190.03,116.93L194.9,115.72L199.77,91.29L204.64,118.4L209.52,135.92L219.26,109.94L224.13,93.1L229.01,123.49L233.88,122.54L238.75,131.43L243.62,114.6L248.5,106.05L253.37,112.7L258.24,121.85L263.11,125.99L267.99,125.99L272.86,127.29L277.73,125.99L282.6,152.93L287.48,157.34L292.35,157.34L297.22,152.76L302.09,150.69L306.97,152.76L311.84,152.76L316.71,157.34L321.58,154.92L331.33,155.09L336.2,157.34L341.07,152.93L345.95,114.6L350.82,109.68L355.69,97.33L360.56,97.33L365.44,111.32L370.31,147.84L375.18,117.88L380.05,121.07L384.93,109.68L389.8,134.37L394.67,134.37L399.54,134.37L404.42,126.17L409.29,134.37L414.16,128.84L419.03,112.87L423.91,107.86L428.78,97.33L433.65,92.93L438.52,110.37L443.4,106.31L448.27,102.34L453.14,104.41L462.89,104.41L467.76,109.68L472.63,125.99L477.5,122.2L482.38,116.07L487.25,116.07L492.12,112.87L496.99,116.07L501.87,116.07L506.74,119.09L511.61,139.12L516.48,136.61L521.36,134.02L526.23,139.12L531.1,119.09L535.97,121.07L540.85,119.09L545.72,116.07L550.59,116.07L555.46,102.86L560.34,110.97L565.21,112.87L570.08,109.68L574.95,99.75L579.83,109.68L584.7,112.87L589.57,114.6L594.44,119.52L604.19,106.48L609.06,116.07L613.93,114.08L618.81,130.31L628.55,124.18L633.42,130.83L638.3,128.33L643.17,128.33L648.04,128.76L652.91,130.31L657.79,119.09L662.66,122.2L667.53,124.18L672.4,138.25L677.28,136.61L682.15,133.33L687.02,135.84L691.89,134.02L696.77,139.12L701.64,141.62L706.51,141.62L711.38,135.84L716.26,141.62L721.13,141.62L726,133.33" style="vector-effect: none; fill: none; stroke: rgb(255, 165, 0); stroke-opacity: 1; stroke-width: 2px; opacity: 1;"/></g><g class="points"/><g class="text"/></g><g class="trace scatter trace402130" style="stroke-miterlimit: 2; opacity: 1;"><g class="fills"/><g class="errorbars"/><g class="lines"><path class="js-line" d="M0,262.58L4.87,238.75L9.74,232.62L14.62,221.57L19.49,220.02L24.36,215.7L29.23,197.4L34.11,203.44L38.98,120.47L43.85,163.72L48.72,159.58L58.47,170.89L63.34,70.91L68.21,58.22L73.09,80.24L77.96,56.32L82.83,52.26L87.7,50.88L92.58,74.37L97.45,108.3L102.32,81.01L107.19,95.69L112.07,86.71L116.94,71.43L121.81,90.68L126.68,72.72L131.56,65.04L136.43,63.49L141.3,54.08L146.17,46.91L151.05,35.77L155.92,45.1L160.79,30.25L165.66,33.18L170.54,39.23L175.41,35.08L180.28,56.75L185.15,61.07L190.03,53.04L194.9,41.73L199.77,32.32L204.64,36.2L209.52,46.56L214.39,48.72L219.26,40.43L224.13,36.64L229.01,56.58L233.88,71.34L238.75,61.93L243.62,33.61L248.5,34.74L253.37,35.34L258.24,34.13L263.11,38.62L267.99,41.04L272.86,42.42L277.73,38.97L282.6,109.68L287.48,106.91L292.35,106.91L297.22,108.47L302.09,107.26L306.97,111.32L311.84,105.19L316.71,106.05L321.58,118.57L326.46,111.4L331.33,110.8L336.2,106.74L341.07,109.85L345.95,33.87L350.82,35.6L355.69,31.2L360.56,35.08L365.44,42.08L370.31,78.77L375.18,40.52L380.05,41.9L384.93,38.36L389.8,53.47L394.67,51.74L399.54,50.02L404.42,49.5L409.29,51.92L414.16,53.3L419.03,38.02L423.91,41.9L428.78,31.2L433.65,29.82L443.4,31.97L448.27,30.07L453.14,25.93L458.01,24.72L462.89,29.21L467.76,37.33L472.63,37.67L477.5,37.07L482.38,39.48L487.25,34.91L496.99,28.09L501.87,31.97L506.74,32.66L511.61,66.34L516.48,63.14L521.36,61.93L526.23,59.26L531.1,37.07L535.97,33.18L540.85,34.91L545.72,34.05L550.59,32.32L555.46,31.63L560.34,30.16L570.08,28.78L574.95,29.3L584.7,35.25L589.57,34.39L594.44,32.32L599.32,35.25L604.19,31.71L609.06,34.05L613.93,33.7L618.81,35.17L623.68,34.22L628.55,39.48L633.42,58.31L638.3,49.93L643.17,53.21L648.04,42.85L657.79,35.95L662.66,36.46L667.53,31.11L672.4,66.42L677.28,59.43L682.15,59.6L687.02,55.98L691.89,61.67L696.77,61.33L701.64,65.21L706.51,60.81L711.38,60.46L716.26,63.14L721.13,59.77L726,61.67" style="vector-effect: none; fill: none; stroke: rgb(128, 0, 128); stroke-opacity: 1; stroke-width: 2px; opacity: 1;"/></g><g class="points"/><g class="text"/></g><g class="trace scatter trace501153" style="stroke-miterlimit: 2; opacity: 1;"><g class="fills"/><g class="errorbars"/><g class="lines"><path class="js-line" d="M0,322.5L4.87,291.59L9.74,280.54L14.62,275.88L19.49,275.88L24.36,275.88L29.23,264.83L34.11,259.3L38.98,212.25L43.85,240.39L48.72,232.53L53.6,226.06L58.47,237.2L63.34,166.49L68.21,170.63L73.09,173.48L77.96,105.45L82.83,102.25L87.7,165.11L92.58,171.15L97.45,148.7L102.32,124.35L107.19,145.51L112.07,129.36L116.94,122.02L121.81,145.51L126.68,130.74L131.56,163.29L136.43,141.19L141.3,166.49L146.17,140.67L151.05,140.67L155.92,121.16L160.79,136.01L165.66,113.04L170.54,120.81L175.41,118.57L180.28,148.53L185.15,142.57L190.03,152.24L194.9,131.95L199.77,98.71L204.64,124.96L209.52,121.16L214.39,106.91L219.26,113.91L224.13,91.81L229.01,108.21L233.88,110.02L238.75,117.88L243.62,117.1L248.5,106.05L253.37,124.1L258.24,132.82L263.11,110.11L267.99,110.11L272.86,111.06L277.73,110.11L282.6,151.9L287.48,158.37L292.35,158.37L297.22,156.04L302.09,152.85L306.97,156.04L311.84,156.04L316.71,158.37L321.58,159.23L326.46,155.09L331.33,155.09L336.2,158.37L341.07,151.9L345.95,98.11L350.82,92.58L355.69,97.33L360.56,97.33L365.44,94.91L370.31,141.36L375.18,101.39L380.05,104.58L384.93,92.58L389.8,120.21L399.54,120.21L404.42,111.4L409.29,119.26L414.16,114.68L419.03,95.86L423.91,90.25L428.78,97.33L433.65,108.9L438.52,128.67L443.4,123.15L453.14,113.04L458.01,113.04L462.89,113.04L467.76,92.58L472.63,110.11L477.5,105.45L482.38,99.06L487.25,99.06L492.12,95.86L496.99,99.06L501.87,99.06L506.74,102.25L511.61,127.55L516.48,124.35L521.36,121.07L526.23,127.55L531.1,102.25L535.97,104.58L540.85,102.25L545.72,99.06L550.59,99.06L555.46,84.73L560.34,93.53L565.21,95.86L570.08,92.58L574.95,81.53L579.83,92.58L584.7,95.86L589.57,98.11L594.44,103.63L604.19,89.39L609.06,99.06L613.93,96.73L618.81,114.25L628.55,107.78L633.42,118.74L638.3,115.55L643.17,115.55L648.04,112.87L652.91,114.25L657.79,102.25L662.66,105.45L667.53,107.78L672.4,128.41L677.28,124.35L682.15,122.02L687.02,125.22L691.89,121.07L696.77,127.55L701.64,130.74L706.51,130.74L711.38,125.22L716.26,130.74L721.13,130.74L726,122.02" style="vector-effect: none; fill: none; stroke: rgb(255, 192, 203); stroke-opacity: 1; stroke-width: 2px; opacity: 1;"/></g><g class="points"/><g class="text"/></g><g class="trace scatter trace6dc104" style="stroke-miterlimit: 2; opacity: 1;"><g class="fills"/><g class="errorbars"/><g class="lines"><path class="js-line" d="M0,300.22L4.87,262.84L9.74,253.95L14.62,236.77L19.49,234.26L24.36,227.79L29.23,203.87L34.11,211.73L38.98,113.65L43.85,162.26L48.72,157.51L58.47,171.15L63.34,63.92L68.21,52.52L73.09,72.29L77.96,65.65L82.83,60.72L87.7,45.61L92.58,66.85L97.45,134.02L102.32,98.63L107.19,118.22L112.07,106.83L116.94,89.39L121.81,113.13L126.68,89.39L131.56,57.1L136.43,55.72L141.3,46.48L146.17,42.08L151.05,32.49L155.92,53.56L160.79,27.83L165.66,30.94L170.54,35.08L175.41,30.85L180.28,50.71L185.15,53.39L190.03,45.96L199.77,29.9L204.64,34.05L209.52,52.95L214.39,55.03L219.26,39.74L224.13,35.69L229.01,68.32L233.88,87.4L238.75,76.26L243.62,32.58L248.5,34.39L253.37,33.1L258.24,31.97L263.11,46.48L272.86,50.54L277.73,46.48L282.6,136.27L287.48,134.28L292.35,134.28L297.22,135.23L302.09,134.2L306.97,139.64L311.84,132.21L316.71,133.25L321.58,149.48L326.46,138.34L331.33,138.51L336.2,133.07L341.07,137.39L345.95,41.38L350.82,43.37L355.69,30.33L360.56,34.48L365.44,48.72L370.31,97.59L375.18,47.6L380.05,49.59L384.93,45.53L389.8,66.16L394.67,64.18L399.54,62.11L404.42,63.05L409.29,65.13L414.16,65.21L419.03,45.53L423.91,49.59L428.78,30.33L433.65,26.19L443.4,28.35L448.27,27.05L453.14,24.29L458.01,23.17L462.89,27.48L467.76,45.36L477.5,45.36L482.38,47.43L492.12,39.31L496.99,36.12L501.87,40.18L506.74,40.35L511.61,84.29L516.48,80.15L521.36,79.2L526.23,76.09L531.1,45.36L535.97,41.3L540.85,43.28L545.72,42.25L550.59,40.26L555.46,40.18L560.34,38.19L565.21,37.15L570.08,36.2L574.95,37.15L584.7,43.28L589.57,42.33L594.44,40.26L599.32,43.28L604.19,39.31L609.06,42.25L613.93,42.25L618.81,44.15L623.68,43.2L628.55,47.43L633.42,73.16L638.3,64.95L643.17,68.06L648.04,52.26L657.79,43.46L662.66,44.41L667.53,39.23L672.4,83.26L677.28,75.14L682.15,76.09L687.02,73.07L691.89,78.16L696.77,78.16L701.64,82.22L706.51,77.13L711.38,77.13L716.26,80.15L721.13,77.13L726,78.16" style="vector-effect: none; fill: none; stroke: rgb(165, 42, 42); stroke-opacity: 1; stroke-width: 2px; opacity: 1;"/></g><g class="points"/><g class="text"/></g><g class="trace scatter tracebaf847" style="stroke-miterlimit: 2; opacity: 1;"><g class="fills"/><g class="errorbars"/><g class="lines"><path class="js-line" d="M0,376.2L4.87,326.47L9.74,308.68L14.62,297.55L19.49,297.55L24.36,297.55L29.23,281.23L34.11,273.29L38.98,208.02L43.85,245.92L48.72,234.78L53.6,227.96L58.47,242.64L63.34,158.37L68.21,163.9L73.09,164.67L77.96,125.13L82.83,121.25L87.7,158.28L92.58,162.43L97.45,190.4L102.32,154.92L107.19,186.34L112.07,166.31L116.94,154.66L121.81,186.34L126.68,162.77L131.56,154.66L136.43,132.21L141.3,158.37L146.17,135.15L155.92,135.32L160.79,132.3L165.66,109.42L170.54,115.72L175.41,114.43L180.28,141.97L185.15,131.87L190.03,143.35L194.9,126.08L199.77,95.52L204.64,122.11L209.52,135.32L214.39,122.45L219.26,112.09L224.13,92.5L229.01,135.32L233.88,142.49L238.75,147.06L243.62,115.89L248.5,106.05L253.37,119.52L258.24,128.5L263.11,126.25L267.99,126.25L272.86,129.53L277.73,126.25L282.6,194.46L287.48,202.58L297.22,202.66L302.09,198.52L306.97,202.66L311.84,202.66L316.71,202.58L321.58,206.72L326.46,198.52L331.33,198.52L336.2,202.58L341.07,194.46L345.95,114.08L350.82,109.59L355.69,97.33L360.56,97.33L365.44,110.2L370.31,178.4L375.18,117.97L380.05,121.76L384.93,109.59L389.8,147.41L399.54,147.41L404.42,139.2L409.29,143.95L414.16,143.18L419.03,113.48L423.91,108.99L428.78,97.33L433.65,102.86L438.52,122.28L443.4,117.02L448.27,111.84L453.14,109.42L467.76,109.59L472.63,126.25L477.5,125.13L482.38,117.36L487.25,117.36L492.12,113.48L496.99,117.36L501.87,117.36L506.74,121.25L511.61,158.89L521.36,151.03L526.23,158.89L531.1,121.25L535.97,121.76L540.85,121.25L545.72,117.36L550.59,117.36L555.46,104.58L560.34,112.87L565.21,113.48L570.08,109.59L574.95,100.7L579.83,109.59L584.7,113.48L589.57,114.08L594.44,118.57L599.32,113.48L604.19,105.71L609.06,117.36L613.93,116.76L618.81,133.42L623.68,129.53L628.55,125.65L633.42,150.69L638.3,146.72L643.17,146.72L648.04,136.18L652.91,133.42L657.79,121.25L662.66,125.13L667.53,125.65L672.4,162.52L677.28,154.92L682.15,154.66L687.02,158.54L691.89,151.03L696.77,158.89L701.64,162.77L706.51,162.77L711.38,158.54L716.26,162.77L721.13,162.77L726,154.66" style="vector-effect: none; fill: none; stroke: rgb(128, 128, 128); stroke-opacity: 1; stroke-width: 2px; opacity: 1;"/></g><g class="points"/><g class="text"/></g></g></g><g class="overplot"/><path class="xlines-above crisp" d="M0,0" style="fill: none;"/><path class="ylines-above crisp" d="M0,0" style="fill: none;"/><g class="overlines-above"/><g class="xaxislayer-above"><g class="xtick"><text text-anchor="middle" x="0" y="509" transform="translate(235.57999999999998,0)" style="font-family: 'Open Sans', verdana, arial, sans-serif; font-size: 12px; fill: rgb(42, 63, 95); fill-opacity: 1; white-space: pre; opacity: 1;">20</text></g><g class="xtick"><text text-anchor="middle" x="0" y="509" style="font-family: 'Open Sans', verdana, arial, sans-serif; font-size: 12px; fill: rgb(42, 63, 95); fill-opacity: 1; white-space: pre; opacity: 1;" transform="translate(333.03,0)">40</text></g><g class="xtick"><text text-anchor="middle" x="0" y="509" style="font-family: 'Open Sans', verdana, arial, sans-serif; font-size: 12px; fill: rgb(42, 63, 95); fill-opacity: 1; white-space: pre; opacity: 1;" transform="translate(430.48,0)">60</text></g><g class="xtick"><text text-anchor="middle" x="0" y="509" style="font-family: 'Open Sans', verdana, arial, sans-serif; font-size: 12px; fill: rgb(42, 63, 95); fill-opacity: 1; white-space: pre; opacity: 1;" transform="translate(527.9300000000001,0)">80</text></g><g class="xtick"><text text-anchor="middle" x="0" y="509" style="font-family: 'Open Sans', verdana, arial, sans-serif; font-size: 12px; fill: rgb(42, 63, 95); fill-opacity: 1; white-space: pre; opacity: 1;" transform="translate(625.38,0)">100</text></g><g class="xtick"><text text-anchor="middle" x="0" y="509" style="font-family: 'Open Sans', verdana, arial, sans-serif; font-size: 12px; fill: rgb(42, 63, 95); fill-opacity: 1; white-space: pre; opacity: 1;" transform="translate(722.83,0)">120</text></g><g class="xtick"><text text-anchor="middle" x="0" y="509" style="font-family: 'Open Sans', verdana, arial, sans-serif; font-size: 12px; fill: rgb(42, 63, 95); fill-opacity: 1; white-space: pre; opacity: 1;" transform="translate(820.28,0)">140</text></g></g><g class="yaxislayer-above"><g class="ytick"><text text-anchor="end" x="142" y="4.199999999999999" transform="translate(0,488.29)" style="font-family: 'Open Sans', verdana, arial, sans-serif; font-size: 12px; fill: rgb(42, 63, 95); fill-opacity: 1; white-space: pre; opacity: 1;">45</text></g><g class="ytick"><text text-anchor="end" x="142" y="4.199999999999999" style="font-family: 'Open Sans', verdana, arial, sans-serif; font-size: 12px; fill: rgb(42, 63, 95); fill-opacity: 1; white-space: pre; opacity: 1;" transform="translate(0,445.12)">50</text></g><g class="ytick"><text text-anchor="end" x="142" y="4.199999999999999" style="font-family: 'Open Sans', verdana, arial, sans-serif; font-size: 12px; fill: rgb(42, 63, 95); fill-opacity: 1; white-space: pre; opacity: 1;" transform="translate(0,401.95)">55</text></g><g class="ytick"><text text-anchor="end" x="142" y="4.199999999999999" style="font-family: 'Open Sans', verdana, arial, sans-serif; font-size: 12px; fill: rgb(42, 63, 95); fill-opacity: 1; white-space: pre; opacity: 1;" transform="translate(0,358.78)">60</text></g><g class="ytick"><text text-anchor="end" x="142" y="4.199999999999999" style="font-family: 'Open Sans', verdana, arial, sans-serif; font-size: 12px; fill: rgb(42, 63, 95); fill-opacity: 1; white-space: pre; opacity: 1;" transform="translate(0,315.61)">65</text></g><g class="ytick"><text text-anchor="end" x="142" y="4.199999999999999" style="font-family: 'Open Sans', verdana, arial, sans-serif; font-size: 12px; fill: rgb(42, 63, 95); fill-opacity: 1; white-space: pre; opacity: 1;" transform="translate(0,272.44)">70</text></g><g class="ytick"><text text-anchor="end" x="142" y="4.199999999999999" style="font-family: 'Open Sans', verdana, arial, sans-serif; font-size: 12px; fill: rgb(42, 63, 95); fill-opacity: 1; white-space: pre; opacity: 1;" transform="translate(0,229.28)">75</text></g><g class="ytick"><text text-anchor="end" x="142" y="4.199999999999999" style="font-family: 'Open Sans', verdana, arial, sans-serif; font-size: 12px; fill: rgb(42, 63, 95); fill-opacity: 1; white-space: pre; opacity: 1;" transform="translate(0,186.11)">80</text></g><g class="ytick"><text text-anchor="end" x="142" y="4.199999999999999" style="font-family: 'Open Sans', verdana, arial, sans-serif; font-size: 12px; fill: rgb(42, 63, 95); fill-opacity: 1; white-space: pre; opacity: 1;" transform="translate(0,142.94)">85</text></g></g><g class="overaxes-above"/></g></g><g class="polarlayer"/><g class="smithlayer"/><g class="ternarylayer"/><g class="geolayer"/><g class="funnelarealayer"/><g class="pielayer"/><g class="iciclelayer"/><g class="treemaplayer"/><g class="sunburstlayer"/><g class="glimages"/><defs id="topdefs-314e9d"><g class="clips"/><clipPath id="legend314e9d"><rect width="128" height="162" x="0" y="0"/></clipPath></defs><g class="layer-above"><g class="imagelayer"/><g class="shapelayer"/></g><g class="infolayer"><g class="legend" pointer-events="all" transform="translate(883.52,100)"><rect class="bg" shape-rendering="crispEdges" width="128" height="162" x="0" y="0" style="stroke: rgb(68, 68, 68); stroke-opacity: 1; fill: rgb(255, 255, 255); fill-opacity: 1; stroke-width: 0px;"/><g class="scrollbox" transform="" clip-path="url(#legend314e9d)"><g class="groups"><g class="traces" transform="translate(0,14.5)" style="opacity: 1;"><text class="legendtext" text-anchor="start" x="40" y="4.680000000000001" style="font-family: 'Open Sans', verdana, arial, sans-serif; font-size: 12px; fill: rgb(42, 63, 95); fill-opacity: 1; white-space: pre;">Train Accuracy</text><g class="layers" style="opacity: 1;"><g class="legendfill"/><g class="legendlines"><path class="js-line" d="M5,0h30" style="fill: none; stroke: rgb(255, 0, 0); stroke-opacity: 1; stroke-width: 2px;"/></g><g class="legendsymbols"><g class="legendpoints"/></g></g><rect class="legendtoggle" x="0" y="-9.5" width="122.71875" height="19" style="fill: rgb(0, 0, 0); fill-opacity: 0;"/></g><g class="traces" transform="translate(0,33.5)" style="opacity: 1;"><text class="legendtext" text-anchor="start" x="40" y="4.680000000000001" style="font-family: 'Open Sans', verdana, arial, sans-serif; font-size: 12px; fill: rgb(42, 63, 95); fill-opacity: 1; white-space: pre;">Test Accuracy</text><g class="layers" style="opacity: 1;"><g class="legendfill"/><g class="legendlines"><path class="js-line" d="M5,0h30" style="fill: none; stroke: rgb(0, 0, 255); stroke-opacity: 1; stroke-width: 2px;"/></g><g class="legendsymbols"><g class="legendpoints"/></g></g><rect class="legendtoggle" x="0" y="-9.5" width="122.71875" height="19" style="fill: rgb(0, 0, 0); fill-opacity: 0;"/></g><g class="traces" transform="translate(0,52.5)" style="opacity: 1;"><text class="legendtext" text-anchor="start" x="40" y="4.680000000000001" style="font-family: 'Open Sans', verdana, arial, sans-serif; font-size: 12px; fill: rgb(42, 63, 95); fill-opacity: 1; white-space: pre;">Train Precision</text><g class="layers" style="opacity: 1;"><g class="legendfill"/><g class="legendlines"><path class="js-line" d="M5,0h30" style="fill: none; stroke: rgb(0, 128, 0); stroke-opacity: 1; stroke-width: 2px;"/></g><g class="legendsymbols"><g class="legendpoints"/></g></g><rect class="legendtoggle" x="0" y="-9.5" width="122.71875" height="19" style="fill: rgb(0, 0, 0); fill-opacity: 0;"/></g><g class="traces" transform="translate(0,71.5)" style="opacity: 1;"><text class="legendtext" text-anchor="start" x="40" y="4.680000000000001" style="font-family: 'Open Sans', verdana, arial, sans-serif; font-size: 12px; fill: rgb(42, 63, 95); fill-opacity: 1; white-space: pre;">Test Precision</text><g class="layers" style="opacity: 1;"><g class="legendfill"/><g class="legendlines"><path class="js-line" d="M5,0h30" style="fill: none; stroke: rgb(255, 165, 0); stroke-opacity: 1; stroke-width: 2px;"/></g><g class="legendsymbols"><g class="legendpoints"/></g></g><rect class="legendtoggle" x="0" y="-9.5" width="122.71875" height="19" style="fill: rgb(0, 0, 0); fill-opacity: 0;"/></g><g class="traces" transform="translate(0,90.5)" style="opacity: 1;"><text class="legendtext" text-anchor="start" x="40" y="4.680000000000001" style="font-family: 'Open Sans', verdana, arial, sans-serif; font-size: 12px; fill: rgb(42, 63, 95); fill-opacity: 1; white-space: pre;">Train Recall</text><g class="layers" style="opacity: 1;"><g class="legendfill"/><g class="legendlines"><path class="js-line" d="M5,0h30" style="fill: none; stroke: rgb(128, 0, 128); stroke-opacity: 1; stroke-width: 2px;"/></g><g class="legendsymbols"><g class="legendpoints"/></g></g><rect class="legendtoggle" x="0" y="-9.5" width="122.71875" height="19" style="fill: rgb(0, 0, 0); fill-opacity: 0;"/></g><g class="traces" transform="translate(0,109.5)" style="opacity: 1;"><text class="legendtext" text-anchor="start" x="40" y="4.680000000000001" style="font-family: 'Open Sans', verdana, arial, sans-serif; font-size: 12px; fill: rgb(42, 63, 95); fill-opacity: 1; white-space: pre;">Test Recall</text><g class="layers" style="opacity: 1;"><g class="legendfill"/><g class="legendlines"><path class="js-line" d="M5,0h30" style="fill: none; stroke: rgb(255, 192, 203); stroke-opacity: 1; stroke-width: 2px;"/></g><g class="legendsymbols"><g class="legendpoints"/></g></g><rect class="legendtoggle" x="0" y="-9.5" width="122.71875" height="19" style="fill: rgb(0, 0, 0); fill-opacity: 0;"/></g><g class="traces" transform="translate(0,128.5)" style="opacity: 1;"><text class="legendtext" text-anchor="start" x="40" y="4.680000000000001" style="font-family: 'Open Sans', verdana, arial, sans-serif; font-size: 12px; fill: rgb(42, 63, 95); fill-opacity: 1; white-space: pre;">Train F1</text><g class="layers" style="opacity: 1;"><g class="legendfill"/><g class="legendlines"><path class="js-line" d="M5,0h30" style="fill: none; stroke: rgb(165, 42, 42); stroke-opacity: 1; stroke-width: 2px;"/></g><g class="legendsymbols"><g class="legendpoints"/></g></g><rect class="legendtoggle" x="0" y="-9.5" width="122.71875" height="19" style="fill: rgb(0, 0, 0); fill-opacity: 0;"/></g><g class="traces" transform="translate(0,147.5)" style="opacity: 1;"><text class="legendtext" text-anchor="start" x="40" y="4.680000000000001" style="font-family: 'Open Sans', verdana, arial, sans-serif; font-size: 12px; fill: rgb(42, 63, 95); fill-opacity: 1; white-space: pre;">Test F1</text><g class="layers" style="opacity: 1;"><g class="legendfill"/><g class="legendlines"><path class="js-line" d="M5,0h30" style="fill: none; stroke: rgb(128, 128, 128); stroke-opacity: 1; stroke-width: 2px;"/></g><g class="legendsymbols"><g class="legendpoints"/></g></g><rect class="legendtoggle" x="0" y="-9.5" width="122.71875" height="19" style="fill: rgb(0, 0, 0); fill-opacity: 0;"/></g></g></g><rect class="scrollbar" rx="20" ry="3" width="0" height="0" x="0" y="0" style="fill: rgb(128, 139, 164); fill-opacity: 1;"/></g><g class="g-gtitle"><text class="gtitle" x="51.2" y="50" text-anchor="start" dy="0em" style="font-family: 'Open Sans', verdana, arial, sans-serif; font-size: 17px; fill: rgb(42, 63, 95); opacity: 1; font-weight: normal; white-space: pre;">Training Metrics - logs/FakeNewsNet-politifact_num-clauses=10000_max-vocab=15000_pre=v2_text_T=200_s=15.log</text></g><g class="g-xtitle"><text class="xtitle" x="506" y="537.3" text-anchor="middle" style="font-family: 'Open Sans', verdana, arial, sans-serif; font-size: 14px; fill: rgb(42, 63, 95); opacity: 1; font-weight: normal; white-space: pre;">Epoch</text></g><g class="g-ytitle"><text class="ytitle" transform="rotate(-90,103.965625,298)" x="103.965625" y="298" text-anchor="middle" style="font-family: 'Open Sans', verdana, arial, sans-serif; font-size: 14px; fill: rgb(42, 63, 95); opacity: 1; font-weight: normal; white-space: pre;">Metric Score</text></g></g><g class="menulayer"><g class="updatemenu-container" style="cursor: pointer;"><g class="updatemenu-header-group" transform="translate(12,60)"><g class="updatemenu-header" transform="translate(1,1)" style="pointer-events: all;"><rect class="updatemenu-item-rect" rx="2" ry="2" shape-rendering="crispEdges" x="0" y="0" width="167" height="33" style="stroke: rgb(190, 200, 217); stroke-opacity: 1; fill: rgb(255, 255, 255); fill-opacity: 1; stroke-width: 1px;"/><text class="updatemenu-item-text" text-anchor="start" data-notex="1" x="12" y="19.5" style="font-family: 'Open Sans', verdana, arial, sans-serif; font-size: 12px; fill: rgb(42, 63, 95); fill-opacity: 1; white-space: pre;">All</text></g><text class="updatemenu-header-arrow" text-anchor="end" x="163" y="19.5" style="font-family: 'Open Sans', verdana, arial, sans-serif; font-size: 12px; fill: rgb(42, 63, 95); fill-opacity: 1;">▼</text></g><g class="updatemenu-dropdown-button-group" updatemenu-active-index="-1" style="pointer-events: all;"><rect class="scrollbox-bg" opacity="0" x="0" y="0" width="0" height="0" style="pointer-events: all;"/></g></g></g></svg>