<svg class="main-svg" xmlns="http://www.w3.org/2000/svg" xmlns:xlink="http://www.w3.org/1999/xlink" width="1024" height="576" style="" viewBox="0 0 1024 576"><rect x="0" y="0" width="1024" height="576" style="fill: rgb(255, 255, 255); fill-opacity: 1;"/><defs id="defs-88bc43"><g class="clips"><clipPath id="clip88bc43xyplot" class="plotclip"><rect width="734" height="396"/></clipPath><clipPath class="axesclip" id="clip88bc43x"><rect x="135" y="0" width="734" height="576"/></clipPath><clipPath class="axesclip" id="clip88bc43y"><rect x="0" y="100" width="1024" height="396"/></clipPath><clipPath class="axesclip" id="clip88bc43xy"><rect x="135" y="100" width="734" height="396"/></clipPath></g><g class="gradients"/><g class="patterns"/></defs><g class="bglayer"><rect class="bg" x="135" y="100" width="734" height="396" style="fill: rgb(229, 236, 246); fill-opacity: 1; stroke-width: 0;"/></g><g class="layer-below"><g class="imagelayer"/><g class="shapelayer"/></g><g class="cartesianlayer"><g class="subplot xy"><g class="layer-subplot"><g class="shapelayer"/><g class="imagelayer"/></g><g class="minor-gridlayer"><g class="x"/><g class="y"/></g><g class="gridlayer"><g class="x"><path class="xgrid crisp" transform="translate(228.6,0)" d="M0,100v396" style="stroke: rgb(255, 255, 255); stroke-opacity: 1; stroke-width: 1px;"/><path class="xgrid crisp" transform="translate(327.12,0)" d="M0,100v396" style="stroke: rgb(255, 255, 255); stroke-opacity: 1; stroke-width: 1px;"/><path class="xgrid crisp" transform="translate(425.64,0)" d="M0,100v396" style="stroke: rgb(255, 255, 255); stroke-opacity: 1; stroke-width: 1px;"/><path class="xgrid crisp" transform="translate(524.1700000000001,0)" d="M0,100v396" style="stroke: rgb(255, 255, 255); stroke-opacity: 1; stroke-width: 1px;"/><path class="xgrid crisp" transform="translate(622.69,0)" d="M0,100v396" style="stroke: rgb(255, 255, 255); stroke-opacity: 1; stroke-width: 1px;"/><path class="xgrid crisp" transform="translate(721.21,0)" d="M0,100v396" style="stroke: rgb(255, 255, 255); stroke-opacity: 1; stroke-width: 1px;"/><path class="xgrid crisp" transform="translate(819.74,0)" d="M0,100v396" style="stroke: rgb(255, 255, 255); stroke-opacity: 1; stroke-width: 1px;"/></g><g class="y"><path class="ygrid crisp" transform="translate(0,476.01)" d="M135,0h734" style="stroke: rgb(255, 255, 255); stroke-opacity: 1; stroke-width: 1px;"/><path class="ygrid crisp" transform="translate(0,382.12)" d="M135,0h734" style="stroke: rgb(255, 255, 255); stroke-opacity: 1; stroke-width: 1px;"/><path class="ygrid crisp" transform="translate(0,288.24)" d="M135,0h734" style="stroke: rgb(255, 255, 255); stroke-opacity: 1; stroke-width: 1px;"/><path class="ygrid crisp" transform="translate(0,194.35)" d="M135,0h734" style="stroke: rgb(255, 255, 255); stroke-opacity: 1; stroke-width: 1px;"/></g></g><g class="zerolinelayer"/><path class="xlines-below"/><path class="ylines-below"/><g class="overlines-below"/><g class="xaxislayer-below"/><g class="yaxislayer-below"/><g class="overaxes-below"/><g class="plot" transform="translate(135,100)" clip-path="url(#clip88bc43xyplot)"><g class="scatterlayer mlayer"><g class="trace scatter trace92fee3" style="stroke-miterlimit: 2; opacity: 1;"><g class="fills"/><g class="errorbars"/><g class="lines"><path class="js-line" d="M0,282.12L4.93,226.54L9.85,219.78L14.78,197.62L19.7,155.37L24.63,164.2L29.56,186.55L34.48,135.28L39.41,153.12L44.34,170.96L49.26,161.95L54.19,159.69L59.11,164.2L64.04,173.03L68.97,137.54L73.89,139.79L78.82,113.12L83.74,179.79L88.67,93.03L93.6,110.87L98.52,119.7L103.45,121.95L108.38,84.02L113.3,79.7L118.23,104.11L123.15,79.7L128.08,155.37L133.01,72.94L137.93,61.86L142.86,142.04L147.79,61.86L152.71,142.04L157.64,157.44L162.56,157.44L167.49,150.87L172.42,139.79L177.34,68.62L182.27,90.78L187.19,88.53L192.12,90.78L197.05,161.95L201.97,179.79L206.9,166.45L211.83,117.44L216.75,81.95L221.68,148.61L226.6,150.87L231.53,137.54L236.46,117.44L241.38,72.94L246.31,90.78L251.23,119.7L256.16,95.29L261.09,139.79L266.01,135.28L270.94,146.36L275.87,104.11L280.79,64.12L285.72,68.62L290.64,117.44L295.57,97.54L300.5,128.52L305.42,133.03L310.35,184.29L315.28,177.53L320.2,164.2L325.13,104.11L330.05,75.19L334.98,59.61L339.91,61.86L344.83,75.19L349.76,75.19L354.68,84.02L359.61,115.19L364.54,155.37L369.46,153.12L374.39,135.28L379.32,170.96L384.24,173.03L394.09,124.2L399.02,77.45L403.95,130.78L408.87,86.27L413.8,64.12L418.72,119.7L428.58,68.62L433.5,75.19L438.43,72.94L443.36,135.28L448.28,53.04L453.21,70.69L458.13,28.44L463.06,35.2L467.99,64.12L472.91,126.46L477.84,137.54L482.77,155.37L487.69,144.11L492.62,157.44L497.54,133.03L502.47,121.95L507.4,153.12L512.32,130.78L517.25,153.12L522.17,148.61L527.1,193.12L532.03,197.62L536.95,201.94L541.88,204.2L546.81,197.62L551.73,195.37L556.66,179.79L561.58,190.86L566.51,135.28L571.44,121.95L576.36,128.52L581.29,184.29L586.21,161.95L591.14,157.44L596.07,108.62L600.99,139.79L605.92,110.87L610.85,113.12L615.77,66.37L620.7,61.86L625.62,55.1L630.55,110.87L635.48,108.62L640.4,104.11L645.33,128.52L650.26,173.03L655.18,155.37L660.11,155.37L669.96,193.12L674.89,175.28L679.81,213.21L684.74,190.86L689.66,159.69L694.59,173.03L699.52,150.87L704.44,159.69L709.37,150.87L714.3,159.69L719.22,113.12L724.15,95.29L729.07,168.71L734,173.03" style="vector-effect: none; fill: none; stroke: rgb(255, 0, 0); stroke-opacity: 1; stroke-width: 2px; opacity: 1;"/></g><g class="points"/><g class="text"/></g><g class="trace scatter traced2a11e" style="stroke-miterlimit: 2; opacity: 1;"><g class="fills"/><g class="errorbars"/><g class="lines"><path class="js-line" d="M0,264.47L4.93,211.33L9.85,211.33L14.78,158.19L19.7,140.35L24.63,167.02L29.56,158.19L34.48,131.53L39.41,140.35L44.34,149.18L49.26,149.18L54.19,131.53L59.11,149.18L64.04,149.18L68.97,122.7L73.89,131.53L78.82,131.53L83.74,228.98L88.67,140.35L93.6,122.7L98.52,140.35L103.45,140.35L108.38,122.7L113.3,122.7L118.23,105.05L123.15,158.19L128.08,246.63L133.01,122.7L137.93,131.53L142.86,264.47L147.79,149.18L152.71,255.46L157.64,273.3L162.56,264.47L167.49,237.81L172.42,220.16L177.34,113.88L182.27,122.7L187.19,113.88L192.12,175.84L197.05,282.12L201.97,317.61L206.9,299.77L216.75,149.18L221.68,273.3L226.6,273.3L231.53,193.49L236.46,228.98L241.38,158.19L246.31,175.84L251.23,237.81L256.16,175.84L261.09,246.63L266.01,264.47L270.94,299.77L275.87,193.49L280.79,149.18L285.72,105.05L290.64,220.16L295.57,184.67L300.5,255.46L305.42,273.3L310.35,308.79L315.28,273.3L320.2,255.46L325.13,167.02L330.05,140.35L334.98,149.18L339.91,122.7L344.83,140.35L349.76,131.53L354.68,184.67L359.61,202.32L364.54,299.77L369.46,290.95L374.39,290.95L379.32,299.77L384.24,299.77L389.17,290.95L399.02,167.02L403.95,237.81L408.87,149.18L413.8,167.02L418.72,220.16L423.65,193.49L428.58,184.67L433.5,158.19L438.43,122.7L443.36,264.47L448.28,149.18L453.21,140.35L463.06,87.21L467.99,140.35L472.91,211.33L477.84,237.81L482.77,273.3L487.69,255.46L492.62,273.3L497.54,237.81L502.47,220.16L507.4,273.3L512.32,237.81L517.25,282.12L522.17,246.63L527.1,264.47L532.03,290.95L536.95,290.95L541.88,299.77L546.81,299.77L551.73,264.47L556.66,290.95L561.58,308.79L566.51,211.33L571.44,193.49L576.36,184.67L581.29,290.95L586.21,282.12L591.14,282.12L596.07,202.32L600.99,273.3L605.92,202.32L610.85,202.32L615.77,158.19L620.7,149.18L625.62,122.7L630.55,193.49L635.48,184.67L640.4,184.67L645.33,237.81L650.26,273.3L655.18,282.12L660.11,273.3L665.03,290.95L669.96,299.77L674.89,290.95L679.81,326.44L684.74,308.79L689.66,282.12L694.59,264.47L699.52,264.47L704.44,246.63L709.37,237.81L714.3,273.3L719.22,202.32L724.15,167.02L729.07,237.81L734,255.46" style="vector-effect: none; fill: none; stroke: rgb(0, 0, 255); stroke-opacity: 1; stroke-width: 2px; opacity: 1;"/></g><g class="points"/><g class="text"/></g><g class="trace scatter trace7a5cd6" style="stroke-miterlimit: 2; opacity: 1;"><g class="fills"/><g class="errorbars"/><g class="lines"><path class="js-line" d="M0,186.55L4.93,161.76L9.85,159.51L14.78,182.41L19.7,158.38L24.63,165.89L29.56,167.77L34.48,140.54L39.41,157.06L44.34,168.89L49.26,162.51L54.19,163.07L59.11,157.44L64.04,164.01L68.97,135.85L73.89,146.55L78.82,122.14L83.74,172.84L88.67,100.92L93.6,118.38L98.52,128.33L103.45,129.46L108.38,92.47L113.3,87.4L118.23,112.94L123.15,82.33L128.08,143.73L133.01,79.89L137.93,68.25L142.86,139.6L147.79,68.62L152.71,133.4L157.64,147.49L162.56,145.42L167.49,140.35L172.42,125.33L177.34,72L182.27,97.54L187.19,94.72L192.12,96.23L197.05,137.54L201.97,148.43L206.9,136.22L211.83,106.18L216.75,81.58L221.68,133.03L226.6,134.72L231.53,128.9L236.46,116.32L241.38,76.51L246.31,90.4L251.23,108.99L256.16,94.91L261.09,127.58L266.01,127.21L270.94,134.72L275.87,101.48L280.79,68.06L285.72,75.19L290.64,108.43L295.57,96.04L300.5,114.63L305.42,112.94L310.35,152.93L315.28,151.24L320.2,137.72L325.13,100.54L330.05,80.08L334.98,66.56L339.91,67.5L344.83,77.82L349.76,78.95L354.68,86.65L359.61,107.68L364.54,134.16L369.46,127.02L374.39,113.31L379.32,140.73L384.24,143.73L389.17,126.64L394.09,114.63L399.02,77.82L403.95,119.7L408.87,86.65L413.8,66.93L418.72,108.99L423.65,88.15L428.58,66.74L433.5,75.19L438.43,79.89L443.36,118.38L448.28,56.23L453.21,72.19L458.13,35.57L463.06,41.77L467.99,63.74L472.91,115.19L477.84,121.2L482.77,135.47L487.69,122.33L492.62,130.21L497.54,115.57L502.47,112.75L507.4,135.09L512.32,120.64L517.25,132.47L522.17,126.64L527.1,158.94L532.03,160.26L536.95,159.88L541.88,162.89L546.81,158.57L551.73,155.56L556.66,140.35L561.58,150.87L566.51,115.94L571.44,103.74L576.36,111.06L581.29,148.24L586.21,134.72L591.14,134.34L596.07,93.97L600.99,116.32L605.92,97.92L610.85,99.61L615.77,66.37L620.7,63.18L625.62,60.92L630.55,102.23L635.48,97.35L640.4,93.97L645.33,111.06L650.26,139.23L655.18,125.71L660.11,122.7L669.96,155.75L674.89,142.23L679.81,167.02L684.74,155.75L689.66,133.22L694.59,139.23L699.52,122.7L704.44,131.71L709.37,125.52L714.3,133.22L719.22,100.73L724.15,87.02L729.07,139.23L734,145.23" style="vector-effect: none; fill: none; stroke: rgb(0, 128, 0); stroke-opacity: 1; stroke-width: 2px; opacity: 1;"/></g><g class="points"/><g class="text"/></g><g class="trace scatter tracec28642" style="stroke-miterlimit: 2; opacity: 1;"><g class="fills"/><g class="errorbars"/><g class="lines"><path class="js-line" d="M0,245.7L4.93,210.21L9.85,203.82L14.78,179.97L19.7,164.39L24.63,192.37L29.56,177.34L34.48,156.5L39.41,162.51L49.26,168.89L54.19,151.81L59.11,165.89L64.04,168.89L68.97,145.23L73.89,157.25L78.82,156.5L83.74,226.54L88.67,159.69L93.6,145.61L98.52,163.64L103.45,161.95L108.38,146.92L113.3,143.92L118.23,129.46L123.15,175.09L128.08,228.04L133.01,146.92L137.93,151.99L142.86,251.52L147.79,167.39L152.71,239.87L157.64,257.71L162.56,251.52L172.42,204.38L177.34,137.35L182.27,141.85L187.19,133.97L192.12,192.93L197.05,236.68L201.97,248.7L206.9,254.71L216.75,161.38L221.68,245.32L226.6,245.32L231.53,186.17L236.46,226.54L241.38,171.9L246.31,182.41L251.23,222.04L256.16,178.1L261.09,228.04L266.01,239.69L270.94,254.71L275.87,195.75L280.79,161.38L285.72,127.58L290.64,204.38L295.57,179.79L300.5,220.72L305.42,231.42L310.35,252.27L315.28,231.42L320.2,220.72L325.13,171.52L330.05,157.25L334.98,171.9L339.91,145.61L344.83,154.25L349.76,146.74L354.68,196.87L359.61,192.18L364.54,254.71L369.46,241.94L374.39,241.94L379.32,238.94L384.24,238.94L389.17,233.87L399.02,171.52L403.95,209.64L408.87,161.38L413.8,179.22L418.72,204.38L423.65,180.54L428.58,184.67L433.5,171.9L438.43,146.92L443.36,233.11L448.28,167.39L453.21,150.68L458.13,138.29L463.06,110.5L472.91,203.82L477.84,216.03L482.77,238.56L487.69,227.48L492.62,238.56L497.54,216.03L502.47,215.28L507.4,245.32L512.32,232.93L517.25,244.01L522.17,215.09L527.1,226.17L532.03,233.87L536.95,225.42L541.88,230.3L546.81,238.94L551.73,218.66L556.66,233.87L561.58,243.82L566.51,198.38L571.44,180.54L576.36,168.71L581.29,233.87L586.21,228.98L591.14,236.68L596.07,180.35L600.99,245.32L605.92,197.62L610.85,197.62L615.77,171.9L620.7,171.9L625.62,146.92L630.55,186.17L635.48,179.79L640.4,174.53L645.33,216.03L650.26,223.73L655.18,228.98L665.03,233.87L669.96,238.94L674.89,233.87L679.81,262.22L684.74,252.27L689.66,236.68L694.59,218.66L699.52,226.17L704.44,215.09L709.37,209.64L714.3,231.42L719.22,186.55L724.15,162.13L729.07,202.69L734,213.4" style="vector-effect: none; fill: none; stroke: rgb(255, 165, 0); stroke-opacity: 1; stroke-width: 2px; opacity: 1;"/></g><g class="points"/><g class="text"/></g><g class="trace scatter trace595841" style="stroke-miterlimit: 2; opacity: 1;"><g class="fills"/><g class="errorbars"/><g class="lines"><path class="js-line" d="M0,357.61L4.93,287.57L9.85,278.93L14.78,236.12L19.7,175.47L24.63,186.92L29.56,225.79L34.48,150.87L39.41,172.09L44.34,197.81L49.26,185.61L54.19,179.97L59.11,194.24L64.04,205.51L68.97,160.82L73.89,153.31L78.82,116.32L83.74,158.19L88.67,87.96L93.6,104.86L98.52,116.88L103.45,115.75L108.38,80.26L113.3,73.5L118.23,107.87L123.15,64.68L128.08,129.84L133.01,64.87L137.93,52.29L142.86,123.45L147.79,53.04L152.71,118.38L157.64,133.22L162.56,131.71L167.49,126.08L172.42,112L177.34,54.35L182.27,82.33L187.19,78.95L192.12,80.08L197.05,128.9L201.97,143.54L206.9,130.59L211.83,91.34L216.75,63.74L221.68,120.45L226.6,122.33L231.53,113.69L236.46,99.42L241.38,58.86L246.31,72.75L251.23,93.97L256.16,77.45L261.09,113.5L266.01,111.81L270.94,120.64L275.87,84.4L280.79,50.6L285.72,59.61L290.64,92.85L295.57,78.57L300.5,100.92L305.42,101.86L310.35,148.05L315.28,143.92L320.2,130.21L325.13,83.64L330.05,62.99L334.98,51.16L339.91,50.78L344.83,60.17L349.76,61.67L354.68,69.19L359.61,91.72L364.54,124.02L369.46,119.13L374.39,102.99L379.32,135.09L384.24,137.72L389.17,116.69L394.09,99.42L399.02,59.8L403.95,105.05L408.87,69L413.8,49.09L418.72,93.97L423.65,71.44L428.58,48.53L433.5,57.17L438.43,64.87L443.36,105.99L448.28,38.01L453.21,54.16L458.13,19.8L463.06,25.62L467.99,45.34L472.91,100.54L477.84,108.62L482.77,124.77L487.69,112.19L492.62,122.89L497.54,103.36L502.47,97.35L507.4,123.45L512.32,105.8L517.25,121.95L522.17,116.69L527.1,155.75L532.03,158.94L541.88,163.82L546.81,158.19L551.73,155.56L556.66,139.79L561.58,150.87L566.51,104.49L571.44,91.53L576.36,98.67L581.29,145.99L586.21,127.58L591.14,125.14L596.07,80.08L600.99,106.93L605.92,83.46L610.85,85.33L615.77,47.97L620.7,44.96L625.62,44.4L630.55,86.46L635.48,82.33L640.4,78.39L645.33,98.67L650.26,135.66L655.18,119.51L660.11,118.01L665.03,136.78L669.96,154.25L674.89,138.29L679.81,170.77L684.74,153.12L689.66,125.52L694.59,135.66L699.52,115.75L704.44,124.77L709.37,117.26L714.3,125.52L719.22,86.09L724.15,70.69L729.07,133.22L734,138.47" style="vector-effect: none; fill: none; stroke: rgb(128, 0, 128); stroke-opacity: 1; stroke-width: 2px; opacity: 1;"/></g><g class="points"/><g class="text"/></g><g class="trace scatter trace612a00" style="stroke-miterlimit: 2; opacity: 1;"><g class="fills"/><g class="errorbars"/><g class="lines"><path class="js-line" d="M0,376.2L4.93,293.95L9.85,299.02L14.78,196.69L19.7,167.58L24.63,198.56L29.56,201.57L34.48,150.49L39.41,172.46L44.34,194.62L49.26,189.55L54.19,165.51L59.11,194.62L64.04,189.55L68.97,148.43L73.89,145.42L78.82,130.4L83.74,187.3L88.67,122.14L93.6,113.31L98.52,132.28L103.45,127.21L108.38,118.19L113.3,108.24L118.23,114.25L123.15,136.22L128.08,191.24L133.01,118.19L137.93,115.19L142.86,215.28L147.79,129.27L152.71,203.26L157.64,222.22L162.56,215.28L167.49,189.17L172.42,165.14L177.34,106.18L182.27,103.17L187.19,96.23L197.05,209.27L201.97,232.18L206.9,228.23L211.83,172.09L216.75,119.13L221.68,212.27L226.6,212.27L231.53,144.11L236.46,187.3L241.38,131.15L246.31,140.16L251.23,184.29L256.16,135.09L261.09,191.24L266.01,205.32L270.94,228.23L275.87,154.25L280.79,119.13L285.72,94.16L290.64,165.14L295.57,137.16L300.5,188.24L305.42,202.13L310.35,230.11L315.28,202.13L320.2,188.24L325.13,128.15L330.05,117.26L334.98,139.23L339.91,113.31L344.83,112.19L349.76,105.24L354.68,157.25L359.61,151.24L364.54,228.23L369.46,216.21L374.39,216.21L379.32,218.09L384.24,218.09L389.17,211.14L399.02,128.15L403.95,174.15L408.87,119.13L413.8,138.29L418.72,165.14L423.65,139.04L428.58,142.23L433.5,131.15L438.43,118.19L443.36,200.25L448.28,129.27L453.21,107.12L458.13,111.25L463.06,80.26L467.99,112.19L472.91,163.26L477.84,179.22L482.77,207.2L487.69,193.12L492.62,207.2L497.54,179.22L502.47,175.28L507.4,212.27L512.32,194.24L517.25,214.15L522.17,181.1L532.03,211.14L536.95,206.07L541.88,213.21L546.81,218.09L551.73,190.11L556.66,211.14L561.58,225.23L566.51,158.19L571.44,139.04L576.36,127.02L581.29,211.14L586.21,204.2L591.14,209.27L596.07,141.1L600.99,212.27L605.92,156.13L610.85,156.13L615.77,131.15L620.7,139.23L625.62,118.19L630.55,144.11L635.48,137.16L640.4,132.09L645.33,179.22L650.26,197.06L655.18,204.2L660.11,202.13L665.03,211.14L669.96,218.09L674.89,211.14L679.81,244.19L684.74,230.11L694.59,190.11L699.52,195.18L704.44,181.1L709.37,174.15L714.3,202.13L719.22,146.17L724.15,118.01L729.07,169.08L734,183.17" style="vector-effect: none; fill: none; stroke: rgb(255, 192, 203); stroke-opacity: 1; stroke-width: 2px; opacity: 1;"/></g><g class="points"/><g class="text"/></g><g class="trace scatter trace6f8568" style="stroke-miterlimit: 2; opacity: 1;"><g class="fills"/><g class="errorbars"/><g class="lines"><path class="js-line" d="M0,353.67L4.93,274.43L9.85,265.04L14.78,223.73L19.7,169.08L24.63,179.41L29.56,212.65L34.48,146.55L39.41,166.27L44.34,188.61L49.26,177.72L54.19,173.78L59.11,183.35L64.04,194.06L68.97,152.37L73.89,150.3L78.82,119.51L83.74,181.1L88.67,97.16L93.6,114.81L98.52,124.58L103.45,126.08L108.38,88.53L113.3,83.46L118.23,110.68L123.15,81.77L128.08,156.13L133.01,76.32L137.93,64.87L142.86,143.73L147.79,65.05L152.71,142.98L157.64,158.57L162.56,158.38L167.49,151.81L172.42,140.35L177.34,70.88L182.27,94.16L187.19,91.72L192.12,93.78L197.05,162.13L201.97,179.79L206.9,166.45L211.83,118.19L216.75,83.64L221.68,149.18L226.6,151.43L231.53,138.47L236.46,119.32L241.38,75.38L246.31,92.47L251.23,120.64L256.16,96.98L261.09,140.54L266.01,136.41L270.94,147.3L275.87,105.61L280.79,66.37L285.72,71.63L290.64,118.38L295.57,99.04L300.5,129.27L305.42,133.4L310.35,184.29L315.28,177.72L320.2,164.39L325.13,105.61L330.05,77.82L334.98,62.8L339.91,64.68L344.83,77.45L349.76,77.64L354.68,86.27L359.61,116.32L364.54,155.56L369.46,153.31L374.39,135.66L379.32,170.96L384.24,173.21L394.09,125.14L399.02,79.14L403.95,131.71L408.87,88.15L413.8,66.18L418.72,120.64L428.58,69.94L433.5,76.88L438.43,76.32L443.36,135.85L448.28,55.1L453.21,72.57L458.13,31.44L463.06,38.01L467.99,65.62L472.91,127.21L477.84,138.1L482.77,155.75L487.69,144.48L492.62,157.63L497.54,133.59L502.47,122.89L507.4,153.5L512.32,131.71L517.25,153.5L522.17,148.99L527.1,193.12L532.03,197.62L536.95,201.94L541.88,204.2L546.81,197.62L551.73,195.37L556.66,179.79L561.58,190.86L566.51,135.66L571.44,122.33L576.36,129.09L581.29,184.29L586.21,162.13L591.14,157.82L596.07,109.18L600.99,139.98L605.92,111.43L610.85,113.69L615.77,68.06L620.7,63.74L625.62,57.92L630.55,111.81L635.48,109.37L640.4,105.05L645.33,129.09L650.26,173.21L655.18,155.37L660.11,155.37L669.96,193.12L674.89,175.28L679.81,213.21L684.74,190.86L689.66,159.88L694.59,173.21L699.52,151.06L704.44,159.88L709.37,151.06L714.3,159.88L719.22,113.69L724.15,96.23L729.07,168.71L734,173.21" style="vector-effect: none; fill: none; stroke: rgb(165, 42, 42); stroke-opacity: 1; stroke-width: 2px; opacity: 1;"/></g><g class="points"/><g class="text"/></g><g class="trace scatter trace8f6a9f" style="stroke-miterlimit: 2; opacity: 1;"><g class="fills"/><g class="errorbars"/><g class="lines"><path class="js-line" d="M0,355.92L4.93,271.8L9.85,275.55L14.78,189.36L19.7,165.89L24.63,195.56L29.56,191.62L34.48,153.68L39.41,167.96L44.34,182.98L49.26,180.72L54.19,159.32L59.11,182.98L64.04,180.72L68.97,146.92L73.89,151.99L78.82,147.3L83.74,235.93L88.67,151.81L93.6,136.03L98.52,154.44L103.45,153.12L108.38,137.35L113.3,134.72L118.23,122.89L123.15,168.89L128.08,250.95L133.01,137.35L137.93,143.36L142.86,269.73L147.79,160.44L152.71,260.34L157.64,278.37L162.56,269.73L167.49,243.44L172.42,224.48L177.34,127.4L182.27,133.59L187.19,124.95L192.12,187.3L197.05,283.81L201.97,318.18L206.9,301.65L216.75,158.19L221.68,276.68L226.6,276.68L231.53,198.94L236.46,235.93L241.38,167.77L246.31,183.73L251.23,242.5L256.16,182.79L261.09,250.95L266.01,268.04L270.94,301.65L275.87,200.82L280.79,158.19L285.72,117.44L290.64,224.48L295.57,190.3L300.5,258.09L305.42,275.36L310.35,309.73L315.28,275.36L320.2,258.09L325.13,174.15L330.05,150.68L334.98,163.07L339.91,136.03L344.83,149.55L349.76,141.1L354.68,194.43L359.61,207.39L364.54,301.65L369.46,292.45L374.39,292.45L379.32,300.71L384.24,300.71L389.17,292.08L399.02,174.15L403.95,241L408.87,158.19L413.8,176.41L418.72,224.48L423.65,198L428.58,191.24L433.5,167.77L438.43,137.35L443.36,267.29L448.28,160.44L453.21,148.61L458.13,128.71L463.06,100.17L467.99,149.55L472.91,216.97L477.84,241.56L482.77,275.93L487.69,258.84L492.62,275.93L497.54,241.56L502.47,226.35L507.4,276.68L512.32,244.38L517.25,284.57L522.17,249.45L527.1,266.73L532.03,292.08L536.95,291.7L541.88,300.34L546.81,300.71L551.73,266.16L556.66,292.08L561.58,309.35L566.51,216.03L571.44,198L576.36,188.8L581.29,292.08L586.21,283.44L591.14,283.81L596.07,205.89L600.99,276.68L605.92,208.33L610.85,208.33L615.77,167.77L620.7,163.07L625.62,137.35L630.55,198.94L635.48,190.3L640.4,189.55L645.33,241.56L650.26,274.8L655.18,283.44L660.11,275.36L665.03,292.08L669.96,300.71L674.89,292.08L679.81,327.19L684.74,309.73L689.66,283.81L694.59,266.16L699.52,266.73L704.44,249.45L709.37,241L714.3,275.36L719.22,206.64L724.15,172.46L729.07,240.25L734,257.53" style="vector-effect: none; fill: none; stroke: rgb(128, 128, 128); stroke-opacity: 1; stroke-width: 2px; opacity: 1;"/></g><g class="points"/><g class="text"/></g></g></g><g class="overplot"/><path class="xlines-above crisp" d="M0,0" style="fill: none;"/><path class="ylines-above crisp" d="M0,0" style="fill: none;"/><g class="overlines-above"/><g class="xaxislayer-above"><g class="xtick"><text text-anchor="middle" x="0" y="509" transform="translate(228.6,0)" style="font-family: 'Open Sans', verdana, arial, sans-serif; font-size: 12px; fill: rgb(42, 63, 95); fill-opacity: 1; white-space: pre; opacity: 1;">20</text></g><g class="xtick"><text text-anchor="middle" x="0" y="509" style="font-family: 'Open Sans', verdana, arial, sans-serif; font-size: 12px; fill: rgb(42, 63, 95); fill-opacity: 1; white-space: pre; opacity: 1;" transform="translate(327.12,0)">40</text></g><g class="xtick"><text text-anchor="middle" x="0" y="509" style="font-family: 'Open Sans', verdana, arial, sans-serif; font-size: 12px; fill: rgb(42, 63, 95); fill-opacity: 1; white-space: pre; opacity: 1;" transform="translate(425.64,0)">60</text></g><g class="xtick"><text text-anchor="middle" x="0" y="509" style="font-family: 'Open Sans', verdana, arial, sans-serif; font-size: 12px; fill: rgb(42, 63, 95); fill-opacity: 1; white-space: pre; opacity: 1;" transform="translate(524.1700000000001,0)">80</text></g><g class="xtick"><text text-anchor="middle" x="0" y="509" style="font-family: 'Open Sans', verdana, arial, sans-serif; font-size: 12px; fill: rgb(42, 63, 95); fill-opacity: 1; white-space: pre; opacity: 1;" transform="translate(622.69,0)">100</text></g><g class="xtick"><text text-anchor="middle" x="0" y="509" style="font-family: 'Open Sans', verdana, arial, sans-serif; font-size: 12px; fill: rgb(42, 63, 95); fill-opacity: 1; white-space: pre; opacity: 1;" transform="translate(721.21,0)">120</text></g><g class="xtick"><text text-anchor="middle" x="0" y="509" style="font-family: 'Open Sans', verdana, arial, sans-serif; font-size: 12px; fill: rgb(42, 63, 95); fill-opacity: 1; white-space: pre; opacity: 1;" transform="translate(819.74,0)">140</text></g></g><g class="yaxislayer-above"><g class="ytick"><text text-anchor="end" x="134" y="4.199999999999999" transform="translate(0,476.01)" style="font-family: 'Open Sans', verdana, arial, sans-serif; font-size: 12px; fill: rgb(42, 63, 95); fill-opacity: 1; white-space: pre; opacity: 1;">70</text></g><g class="ytick"><text text-anchor="end" x="134" y="4.199999999999999" style="font-family: 'Open Sans', verdana, arial, sans-serif; font-size: 12px; fill: rgb(42, 63, 95); fill-opacity: 1; white-space: pre; opacity: 1;" transform="translate(0,382.12)">75</text></g><g class="ytick"><text text-anchor="end" x="134" y="4.199999999999999" style="font-family: 'Open Sans', verdana, arial, sans-serif; font-size: 12px; fill: rgb(42, 63, 95); fill-opacity: 1; white-space: pre; opacity: 1;" transform="translate(0,288.24)">80</text></g><g class="ytick"><text text-anchor="end" x="134" y="4.199999999999999" style="font-family: 'Open Sans', verdana, arial, sans-serif; font-size: 12px; fill: rgb(42, 63, 95); fill-opacity: 1; white-space: pre; opacity: 1;" transform="translate(0,194.35)">85</text></g><g class="ytick"><text text-anchor="end" x="134" y="4.199999999999999" style="font-family: 'Open Sans', verdana, arial, sans-serif; font-size: 12px; fill: rgb(42, 63, 95); fill-opacity: 1; white-space: pre; opacity: 1;" transform="translate(0,100.46)">90</text></g></g><g class="overaxes-above"/></g></g><g class="polarlayer"/><g class="smithlayer"/><g class="ternarylayer"/><g class="geolayer"/><g class="funnelarealayer"/><g class="pielayer"/><g class="iciclelayer"/><g class="treemaplayer"/><g class="sunburstlayer"/><g class="glimages"/><defs id="topdefs-88bc43"><g class="clips"/><clipPath id="legend88bc43"><rect width="128" height="162" x="0" y="0"/></clipPath></defs><g class="layer-above"><g class="imagelayer"/><g class="shapelayer"/></g><g class="infolayer"><g class="legend" pointer-events="all" transform="translate(883.6800000000001,100)"><rect class="bg" shape-rendering="crispEdges" width="128" height="162" x="0" y="0" style="stroke: rgb(68, 68, 68); stroke-opacity: 1; fill: rgb(255, 255, 255); fill-opacity: 1; stroke-width: 0px;"/><g class="scrollbox" transform="" clip-path="url(#legend88bc43)"><g class="groups"><g class="traces" transform="translate(0,14.5)" style="opacity: 1;"><text class="legendtext" text-anchor="start" x="40" y="4.680000000000001" style="font-family: 'Open Sans', verdana, arial, sans-serif; font-size: 12px; fill: rgb(42, 63, 95); fill-opacity: 1; white-space: pre;">Train Accuracy</text><g class="layers" style="opacity: 1;"><g class="legendfill"/><g class="legendlines"><path class="js-line" d="M5,0h30" style="fill: none; stroke: rgb(255, 0, 0); stroke-opacity: 1; stroke-width: 2px;"/></g><g class="legendsymbols"><g class="legendpoints"/></g></g><rect class="legendtoggle" x="0" y="-9.5" width="122.71875" height="19" style="fill: rgb(0, 0, 0); fill-opacity: 0;"/></g><g class="traces" transform="translate(0,33.5)" style="opacity: 1;"><text class="legendtext" text-anchor="start" x="40" y="4.680000000000001" style="font-family: 'Open Sans', verdana, arial, sans-serif; font-size: 12px; fill: rgb(42, 63, 95); fill-opacity: 1; white-space: pre;">Test Accuracy</text><g class="layers" style="opacity: 1;"><g class="legendfill"/><g class="legendlines"><path class="js-line" d="M5,0h30" style="fill: none; stroke: rgb(0, 0, 255); stroke-opacity: 1; stroke-width: 2px;"/></g><g class="legendsymbols"><g class="legendpoints"/></g></g><rect class="legendtoggle" x="0" y="-9.5" width="122.71875" height="19" style="fill: rgb(0, 0, 0); fill-opacity: 0;"/></g><g class="traces" transform="translate(0,52.5)" style="opacity: 1;"><text class="legendtext" text-anchor="start" x="40" y="4.680000000000001" style="font-family: 'Open Sans', verdana, arial, sans-serif; font-size: 12px; fill: rgb(42, 63, 95); fill-opacity: 1; white-space: pre;">Train Precision</text><g class="layers" style="opacity: 1;"><g class="legendfill"/><g class="legendlines"><path class="js-line" d="M5,0h30" style="fill: none; stroke: rgb(0, 128, 0); stroke-opacity: 1; stroke-width: 2px;"/></g><g class="legendsymbols"><g class="legendpoints"/></g></g><rect class="legendtoggle" x="0" y="-9.5" width="122.71875" height="19" style="fill: rgb(0, 0, 0); fill-opacity: 0;"/></g><g class="traces" transform="translate(0,71.5)" style="opacity: 1;"><text class="legendtext" text-anchor="start" x="40" y="4.680000000000001" style="font-family: 'Open Sans', verdana, arial, sans-serif; font-size: 12px; fill: rgb(42, 63, 95); fill-opacity: 1; white-space: pre;">Test Precision</text><g class="layers" style="opacity: 1;"><g class="legendfill"/><g class="legendlines"><path class="js-line" d="M5,0h30" style="fill: none; stroke: rgb(255, 165, 0); stroke-opacity: 1; stroke-width: 2px;"/></g><g class="legendsymbols"><g class="legendpoints"/></g></g><rect class="legendtoggle" x="0" y="-9.5" width="122.71875" height="19" style="fill: rgb(0, 0, 0); fill-opacity: 0;"/></g><g class="traces" transform="translate(0,90.5)" style="opacity: 1;"><text class="legendtext" text-anchor="start" x="40" y="4.680000000000001" style="font-family: 'Open Sans', verdana, arial, sans-serif; font-size: 12px; fill: rgb(42, 63, 95); fill-opacity: 1; white-space: pre;">Train Recall</text><g class="layers" style="opacity: 1;"><g class="legendfill"/><g class="legendlines"><path class="js-line" d="M5,0h30" style="fill: none; stroke: rgb(128, 0, 128); stroke-opacity: 1; stroke-width: 2px;"/></g><g class="legendsymbols"><g class="legendpoints"/></g></g><rect class="legendtoggle" x="0" y="-9.5" width="122.71875" height="19" style="fill: rgb(0, 0, 0); fill-opacity: 0;"/></g><g class="traces" transform="translate(0,109.5)" style="opacity: 1;"><text class="legendtext" text-anchor="start" x="40" y="4.680000000000001" style="font-family: 'Open Sans', verdana, arial, sans-serif; font-size: 12px; fill: rgb(42, 63, 95); fill-opacity: 1; white-space: pre;">Test Recall</text><g class="layers" style="opacity: 1;"><g class="legendfill"/><g class="legendlines"><path class="js-line" d="M5,0h30" style="fill: none; stroke: rgb(255, 192, 203); stroke-opacity: 1; stroke-width: 2px;"/></g><g class="legendsymbols"><g class="legendpoints"/></g></g><rect class="legendtoggle" x="0" y="-9.5" width="122.71875" height="19" style="fill: rgb(0, 0, 0); fill-opacity: 0;"/></g><g class="traces" transform="translate(0,128.5)" style="opacity: 1;"><text class="legendtext" text-anchor="start" x="40" y="4.680000000000001" style="font-family: 'Open Sans', verdana, arial, sans-serif; font-size: 12px; fill: rgb(42, 63, 95); fill-opacity: 1; white-space: pre;">Train F1</text><g class="layers" style="opacity: 1;"><g class="legendfill"/><g class="legendlines"><path class="js-line" d="M5,0h30" style="fill: none; stroke: rgb(165, 42, 42); stroke-opacity: 1; stroke-width: 2px;"/></g><g class="legendsymbols"><g class="legendpoints"/></g></g><rect class="legendtoggle" x="0" y="-9.5" width="122.71875" height="19" style="fill: rgb(0, 0, 0); fill-opacity: 0;"/></g><g class="traces" transform="translate(0,147.5)" style="opacity: 1;"><text class="legendtext" text-anchor="start" x="40" y="4.680000000000001" style="font-family: 'Open Sans', verdana, arial, sans-serif; font-size: 12px; fill: rgb(42, 63, 95); fill-opacity: 1; white-space: pre;">Test F1</text><g class="layers" style="opacity: 1;"><g class="legendfill"/><g class="legendlines"><path class="js-line" d="M5,0h30" style="fill: none; stroke: rgb(128, 128, 128); stroke-opacity: 1; stroke-width: 2px;"/></g><g class="legendsymbols"><g class="legendpoints"/></g></g><rect class="legendtoggle" x="0" y="-9.5" width="122.71875" height="19" style="fill: rgb(0, 0, 0); fill-opacity: 0;"/></g></g></g><rect class="scrollbar" rx="20" ry="3" width="0" height="0" x="0" y="0" style="fill: rgb(128, 139, 164); fill-opacity: 1;"/></g><g class="g-gtitle"><text class="gtitle" x="51.2" y="50" text-anchor="start" dy="0em" style="font-family: 'Open Sans', verdana, arial, sans-serif; font-size: 17px; fill: rgb(42, 63, 95); opacity: 1; font-weight: normal; white-space: pre;">Training Metrics - logs/FakeNewsNet-politifact_max-vocab=15000_pre=v2_text_domain_T=200_s=10.log</text></g><g class="g-xtitle"><text class="xtitle" x="502" y="537.3" text-anchor="middle" style="font-family: 'Open Sans', verdana, arial, sans-serif; font-size: 14px; fill: rgb(42, 63, 95); opacity: 1; font-weight: normal; white-space: pre;">Epoch</text></g><g class="g-ytitle"><text class="ytitle" transform="rotate(-90,95.965625,298)" x="95.965625" y="298" text-anchor="middle" style="font-family: 'Open Sans', verdana, arial, sans-serif; font-size: 14px; fill: rgb(42, 63, 95); opacity: 1; font-weight: normal; white-space: pre;">Metric Score</text></g></g><g class="menulayer"><g class="updatemenu-container" style="cursor: pointer;"><g class="updatemenu-header-group" transform="translate(12,60)"><g class="updatemenu-header" transform="translate(1,1)" style="pointer-events: all;"><rect class="updatemenu-item-rect" rx="2" ry="2" shape-rendering="crispEdges" x="0" y="0" width="160" height="33" style="stroke: rgb(190, 200, 217); stroke-opacity: 1; fill: rgb(255, 255, 255); fill-opacity: 1; stroke-width: 1px;"/><text class="updatemenu-item-text" text-anchor="start" data-notex="1" x="12" y="19.5" style="font-family: 'Open Sans', verdana, arial, sans-serif; font-size: 12px; fill: rgb(42, 63, 95); fill-opacity: 1; white-space: pre;">All</text></g><text class="updatemenu-header-arrow" text-anchor="end" x="156" y="19.5" style="font-family: 'Open Sans', verdana, arial, sans-serif; font-size: 12px; fill: rgb(42, 63, 95); fill-opacity: 1;">▼</text></g><g class="updatemenu-dropdown-button-group" updatemenu-active-index="-1" style="pointer-events: all;"><rect class="scrollbox-bg" opacity="0" x="0" y="0" width="0" height="0" style="pointer-events: all;"/></g></g></g></svg>