<svg class="main-svg" xmlns="http://www.w3.org/2000/svg" xmlns:xlink="http://www.w3.org/1999/xlink" width="1024" height="576" style="" viewBox="0 0 1024 576"><rect x="0" y="0" width="1024" height="576" style="fill: rgb(255, 255, 255); fill-opacity: 1;"/><defs id="defs-57c63f"><g class="clips"><clipPath id="clip57c63fxyplot" class="plotclip"><rect width="720" height="396"/></clipPath><clipPath class="axesclip" id="clip57c63fx"><rect x="150" y="0" width="720" height="576"/></clipPath><clipPath class="axesclip" id="clip57c63fy"><rect x="0" y="100" width="1024" height="396"/></clipPath><clipPath class="axesclip" id="clip57c63fxy"><rect x="150" y="100" width="720" height="396"/></clipPath></g><g class="gradients"/><g class="patterns"/></defs><g class="bglayer"><rect class="bg" x="150" y="100" width="720" height="396" style="fill: rgb(229, 236, 246); fill-opacity: 1; stroke-width: 0;"/></g><g class="layer-below"><g class="imagelayer"/><g class="shapelayer"/></g><g class="cartesianlayer"><g class="subplot xy"><g class="layer-subplot"><g class="shapelayer"/><g class="imagelayer"/></g><g class="minor-gridlayer"><g class="x"/><g class="y"/></g><g class="gridlayer"><g class="x"><path class="xgrid crisp" transform="translate(241.81,0)" d="M0,100v396" style="stroke: rgb(255, 255, 255); stroke-opacity: 1; stroke-width: 1px;"/><path class="xgrid crisp" transform="translate(338.46000000000004,0)" d="M0,100v396" style="stroke: rgb(255, 255, 255); stroke-opacity: 1; stroke-width: 1px;"/><path class="xgrid crisp" transform="translate(435.1,0)" d="M0,100v396" style="stroke: rgb(255, 255, 255); stroke-opacity: 1; stroke-width: 1px;"/><path class="xgrid crisp" transform="translate(531.74,0)" d="M0,100v396" style="stroke: rgb(255, 255, 255); stroke-opacity: 1; stroke-width: 1px;"/><path class="xgrid crisp" transform="translate(628.39,0)" d="M0,100v396" style="stroke: rgb(255, 255, 255); stroke-opacity: 1; stroke-width: 1px;"/><path class="xgrid crisp" transform="translate(725.03,0)" d="M0,100v396" style="stroke: rgb(255, 255, 255); stroke-opacity: 1; stroke-width: 1px;"/><path class="xgrid crisp" transform="translate(821.68,0)" d="M0,100v396" style="stroke: rgb(255, 255, 255); stroke-opacity: 1; stroke-width: 1px;"/></g><g class="y"><path class="ygrid crisp" transform="translate(0,467.66)" d="M150,0h720" style="stroke: rgb(255, 255, 255); stroke-opacity: 1; stroke-width: 1px;"/><path class="ygrid crisp" transform="translate(0,414.25)" d="M150,0h720" style="stroke: rgb(255, 255, 255); stroke-opacity: 1; stroke-width: 1px;"/><path class="ygrid crisp" transform="translate(0,360.85)" d="M150,0h720" style="stroke: rgb(255, 255, 255); stroke-opacity: 1; stroke-width: 1px;"/><path class="ygrid crisp" transform="translate(0,307.45)" d="M150,0h720" style="stroke: rgb(255, 255, 255); stroke-opacity: 1; stroke-width: 1px;"/><path class="ygrid crisp" transform="translate(0,254.05)" d="M150,0h720" style="stroke: rgb(255, 255, 255); stroke-opacity: 1; stroke-width: 1px;"/><path class="ygrid crisp" transform="translate(0,200.65)" d="M150,0h720" style="stroke: rgb(255, 255, 255); stroke-opacity: 1; stroke-width: 1px;"/><path class="ygrid crisp" transform="translate(0,147.25)" d="M150,0h720" style="stroke: rgb(255, 255, 255); stroke-opacity: 1; stroke-width: 1px;"/></g></g><g class="zerolinelayer"/><path class="xlines-below"/><path class="ylines-below"/><g class="overlines-below"/><g class="xaxislayer-below"/><g class="yaxislayer-below"/><g class="overaxes-below"/><g class="plot" transform="translate(150,100)" clip-path="url(#clip57c63fxyplot)"><g class="scatterlayer mlayer"><g class="trace scatter tracea6920b" style="stroke-miterlimit: 2; opacity: 1;"><g class="fills"/><g class="errorbars"/><g class="lines"><path class="js-line" d="M0,250.49L4.83,88.53L9.66,84.68L14.5,78.38L19.33,78.38L24.16,73.95L28.99,60.65L33.83,64.44L38.66,60.01L43.49,63.22L48.32,59.37L57.99,61.93L62.82,60.01L72.48,59.37L77.32,53.71L86.98,65.08L91.81,58.14L96.64,56.22L101.48,56.22L106.31,80.89L111.14,93.55L115.97,125.85L120.81,125.85L125.64,114.43L130.47,118.86L135.3,110.64L140.13,109.99L144.97,99.9L149.8,46.77L154.63,39.77L159.46,67.01L164.3,69.52L169.13,37.26L173.96,40.41L178.79,48.64L183.62,94.19L188.46,94.83L193.29,44.2L198.12,51.79L202.95,95.47L207.79,95.47L212.62,94.83L217.45,87.25L222.28,48.64L227.11,44.85L231.95,40.41L236.78,44.85L241.61,44.2L246.44,92.91L251.28,91.04L256.11,90.4L260.94,107.48L265.77,85.96L270.6,84.68L275.44,42.34L280.27,41.69L285.1,44.2L289.93,39.77L294.77,41.05L299.6,28.4L304.43,73.31L309.26,108.13L314.09,100.54L318.93,83.45L323.76,73.31L328.59,70.16L333.42,72.67L338.26,73.95L343.09,35.98L347.92,82.17L352.75,86.6L357.58,113.2L362.42,100.54L367.25,99.9L372.08,75.23L376.91,75.23L381.74,77.74L386.58,46.77L391.41,46.77L396.24,92.32L401.07,42.92L405.91,43.56L410.74,39.77L415.57,42.92L420.4,37.9L425.23,41.69L430.07,36.62L439.73,41.69L444.56,38.49L449.4,40.41L454.23,30.91L459.06,32.19L463.89,30.91L468.72,32.19L473.56,35.34L478.39,29.68L483.22,32.83L488.05,35.34L492.89,30.27L497.72,72.67L502.55,79.02L507.38,82.81L512.21,94.19L517.05,87.25L521.88,88.53L526.71,89.11L531.54,87.89L536.38,104.33L541.21,26.48L546.04,32.83L550.87,27.76L555.7,75.23L560.54,76.46L565.37,83.45L570.2,81.53L575.03,79.02L579.87,27.12L584.7,23.32L589.53,27.76L594.36,27.76L599.19,32.19L604.03,36.62L608.86,30.91L613.69,25.89L618.52,25.25L628.19,27.12L633.02,24.61L637.85,22.68L642.68,34.7L647.52,35.34L652.35,31.55L657.18,34.7L662.01,29.04L666.85,27.12L671.68,34.7L681.34,30.27L686.17,32.19L691.01,32.19L695.84,33.47L700.67,40.41L705.5,27.76L710.34,30.27L715.17,37.9L720,37.26" style="vector-effect: none; fill: none; stroke: rgb(255, 0, 0); stroke-opacity: 1; stroke-width: 2px; opacity: 1;"/></g><g class="points"/><g class="text"/></g><g class="trace scatter trace61189d" style="stroke-miterlimit: 2; opacity: 1;"><g class="fills"/><g class="errorbars"/><g class="lines"><path class="js-line" d="M0,278L4.83,96.64L9.66,91.57L14.5,94.08L19.33,101.66L28.99,71.44L33.83,71.44L38.66,78.97L43.49,78.97L48.32,81.53L53.15,78.97L57.99,86.55L62.82,73.95L67.65,78.97L72.48,89.06L77.32,71.44L82.15,89.06L86.98,94.08L91.81,96.64L101.48,81.53L106.31,141.98L111.14,162.11L115.97,192.34L120.81,189.83L125.64,182.25L130.47,177.23L135.3,167.13L140.13,172.21L144.97,162.11L149.8,78.97L154.63,63.86L159.46,116.78L164.3,121.8L169.13,73.95L173.96,86.55L178.79,94.08L183.62,159.6L188.46,157.09L193.29,81.53L198.12,81.53L202.95,167.13L207.79,167.13L212.62,169.64L217.45,162.11L222.28,81.53L227.11,76.46L231.95,84.04L236.78,84.04L241.61,81.53L246.44,162.11L251.28,157.09L256.11,164.62L260.94,167.13L265.77,152.02L270.6,157.09L275.44,89.06L280.27,81.53L285.1,91.57L289.93,94.08L299.6,84.04L304.43,141.98L309.26,169.64L314.09,162.11L318.93,147L323.76,136.91L328.59,124.31L333.42,134.4L338.26,131.89L343.09,84.04L347.92,159.6L352.75,164.62L357.58,177.23L362.42,169.64L367.25,172.21L372.08,147L376.91,144.49L381.74,149.51L386.58,96.64L391.41,106.68L396.24,177.23L401.07,89.06L405.91,96.64L410.74,84.04L415.57,91.57L420.4,73.95L425.23,78.97L430.07,68.93L434.9,86.55L439.73,94.08L449.4,84.04L454.23,68.93L459.06,71.44L463.89,78.97L468.72,58.84L473.56,66.37L478.39,53.82L483.22,56.33L488.05,61.35L492.89,51.25L497.72,144.49L502.55,136.91L507.38,144.49L512.21,159.6L517.05,152.02L521.88,152.02L526.71,152.02L531.54,149.51L536.38,169.64L541.21,53.82L546.04,68.93L550.87,73.95L555.7,149.51L560.54,147L565.37,147L570.2,149.51L575.03,147L579.87,73.95L584.7,86.55L589.53,81.53L594.36,86.55L599.19,84.04L604.03,89.06L608.86,76.46L613.69,76.46L618.52,78.97L623.36,84.04L628.19,78.97L633.02,73.95L637.85,73.95L642.68,66.37L647.52,63.86L657.18,73.95L662.01,68.93L666.85,68.93L671.68,81.53L676.51,81.53L681.34,71.44L686.17,78.97L691.01,78.97L695.84,73.95L700.67,96.64L705.5,73.95L710.34,73.95L715.17,86.55L720,84.04" style="vector-effect: none; fill: none; stroke: rgb(0, 0, 255); stroke-opacity: 1; stroke-width: 2px; opacity: 1;"/></g><g class="points"/><g class="text"/></g><g class="trace scatter trace5851e9" style="stroke-miterlimit: 2; opacity: 1;"><g class="fills"/><g class="errorbars"/><g class="lines"><path class="js-line" d="M0,362.48L4.83,53.87L9.66,52.32L14.5,49.92L19.33,64.34L24.16,61.29L28.99,56.91L33.83,57.45L38.66,56.38L43.49,61.4L48.32,58.52L53.15,62.31L57.99,64.71L62.82,63.22L67.65,63.22L72.48,62.09L77.32,56.75L82.15,62.95L86.98,67.7L91.81,60.33L96.64,59L101.48,58.78L106.31,67.75L111.14,74.91L115.97,87.35L125.64,81.69L130.47,84.2L135.3,78.75L140.13,79.13L144.97,77.74L149.8,49.65L154.63,42.44L159.46,61.93L164.3,63.48L169.13,38.97L173.96,41.8L178.79,48.96L183.62,77.42L188.46,77.85L193.29,47.09L198.12,54.51L202.95,76.67L207.79,76.08L212.62,77.85L217.45,76.08L222.28,51.04L227.11,47.52L231.95,41.48L236.78,44.74L241.61,44.2L246.44,73.95L251.28,71.65L256.11,71.28L260.94,80.41L265.77,71.55L270.6,71.23L275.44,43.62L280.27,43.46L285.1,46.34L289.93,42.12L294.77,42.07L299.6,30.85L304.43,64.71L309.26,78.75L314.09,76.25L318.93,67.91L323.76,64.71L328.59,62.84L333.42,64.28L338.26,65.14L343.09,37.16L347.92,68.07L352.75,69.94L357.58,83.08L362.42,77.53L367.25,77.74L372.08,65.19L376.91,64.76L381.74,65.62L386.58,44.63L391.41,44.04L396.24,71.28L401.07,42.07L405.91,42.12L410.74,38.54L415.57,41.85L420.4,38.06L425.23,40.57L430.07,36.62L439.73,40.09L444.56,37.26L449.4,39.56L454.23,32.24L459.06,33.2L463.89,31.76L473.56,37.96L478.39,31.44L488.05,38.06L492.89,32.46L497.72,62.2L502.55,64.07L512.21,70.58L517.05,67.01L526.71,68.18L531.54,67.97L536.38,72.29L541.21,28.88L546.04,33.2L550.87,28.82L555.7,60.6L560.54,61.93L565.37,65.24L570.2,66.69L575.03,63.54L579.87,27.81L584.7,24.5L589.53,28.5L594.36,27.33L599.19,31.66L604.03,34.16L608.86,30.16L613.69,27.01L618.52,26.74L628.19,28.45L633.02,26.42L637.85,24.34L642.68,35.34L647.52,35.71L652.35,32.78L657.18,36.46L662.01,30.27L666.85,28.13L671.68,34.16L681.34,30.48L686.17,31.44L691.01,31.66L695.84,33.15L700.67,38.28L705.5,28.13L710.34,31.07L715.17,37.48L720,37.37" style="vector-effect: none; fill: none; stroke: rgb(0, 128, 0); stroke-opacity: 1; stroke-width: 2px; opacity: 1;"/></g><g class="points"/><g class="text"/></g><g class="trace scatter trace65dbd3" style="stroke-miterlimit: 2; opacity: 1;"><g class="fills"/><g class="errorbars"/><g class="lines"><path class="js-line" d="M0,376.2L4.83,78.92L9.66,73.09L14.5,75.92L19.33,99.96L24.16,84.2L28.99,75.28L33.83,72.29L38.66,83.19L43.49,84.47L48.32,89.17L53.15,87.94L57.99,97.87L62.82,84.04L67.65,89.54L72.48,98.78L77.32,81.1L82.15,98.78L86.98,101.98L91.81,104.12L96.64,99.26L101.48,90.08L106.31,123.72L115.97,151.11L120.81,149.4L125.64,147.06L130.47,141.18L135.3,132.21L140.13,140.49L144.97,136.48L149.8,89.54L154.63,72.99L159.46,110.9L164.3,115.98L169.13,83.45L173.96,93.07L178.79,98.3L183.62,139.15L188.46,137.5L193.29,92.11L198.12,91.14L202.95,144.12L207.79,141.93L212.62,147.86L217.45,142.84L222.28,92.32L227.11,86.77L231.95,90.93L236.78,88.15L241.61,88.74L246.44,136.48L251.28,135.47L256.11,138.08L260.94,139.69L265.77,132.21L270.6,139.53L275.44,96.06L280.27,90.08L285.1,102.14L289.93,105.78L294.77,97.55L299.6,94.67L304.43,133.01L309.26,145.77L314.09,138.67L318.93,130.98L323.76,127.94L328.59,119.29L333.42,127.83L338.26,124.47L343.09,93.55L347.92,141.18L352.75,144.49L357.58,146.2L362.42,143.58L367.25,145.24L372.08,134.72L376.91,133.01L381.74,136.37L386.58,100.28L391.41,109.19L396.24,146.2L401.07,95.15L405.91,101.34L410.74,89.17L415.57,96.27L420.4,81.43L425.23,85L430.07,76.25L434.9,91.2L439.73,97.18L449.4,89.17L454.23,77.37L459.06,79.13L463.89,85.8L468.72,67.22L473.56,75.82L478.39,60.49L483.22,64.18L488.05,70.42L492.89,58.57L497.72,131.2L502.55,122.49L512.21,132.58L517.05,132.21L526.71,132.21L531.54,128.47L536.38,138.88L541.21,62.36L546.04,77.37L550.87,82.01L555.7,132.58L560.54,130.98L565.37,129.01L570.2,132.58L575.03,130.98L579.87,79.88L584.7,92.16L589.53,88.74L594.36,91.2L599.19,90.08L604.03,93.23L608.86,82.87L613.69,83.61L618.52,86.55L623.36,90.93L628.19,87.19L633.02,82.6L637.85,82.6L642.68,75.07L647.52,71.39L657.18,83.93L662.01,76.89L666.85,76.89L671.68,87.94L676.51,87.94L681.34,78.49L686.17,85L691.01,85L695.84,79.88L700.67,99.1L705.5,82.01L710.34,82.01L715.17,93.07L720,90.93" style="vector-effect: none; fill: none; stroke: rgb(255, 165, 0); stroke-opacity: 1; stroke-width: 2px; opacity: 1;"/></g><g class="points"/><g class="text"/></g><g class="trace scatter trace0b6382" style="stroke-miterlimit: 2; opacity: 1;"><g class="fills"/><g class="errorbars"/><g class="lines"><path class="js-line" d="M0,207.45L4.83,113.36L9.66,108.66L14.5,100.7L19.33,96.91L24.16,91.41L28.99,72.45L33.83,78.43L38.66,71.71L43.49,74L48.32,69.04L57.99,67.27L62.82,63.11L67.65,62.68L72.48,59.42L77.32,55.79L82.15,60.81L86.98,64.98L91.81,57.07L101.48,55.85L106.31,69.14L111.14,79.66L115.97,105.35L120.81,104.71L125.64,95.74L130.47,99.53L135.3,92.27L140.13,91.95L144.97,84.68L149.8,48.96L154.63,42.34L159.46,59.26L164.3,61.24L169.13,41.8L173.96,37.64L178.79,44.74L183.62,81L188.46,81.59L193.29,46.13L198.12,51.84L202.95,81.48L212.62,81.59L217.45,76.51L222.28,53.07L227.11,48.16L231.95,37.21L236.78,40.41L241.61,39.88L246.44,78.86L251.28,76.83L256.11,76.3L260.94,90.56L265.77,73.74L270.6,72.83L275.44,39.51L280.27,39.56L285.1,42.82L289.93,38.76L294.77,37.74L299.6,27.7L304.43,63.7L309.26,90.5L314.09,84.58L318.93,70.69L323.76,63.7L328.59,61.13L333.42,63.11L338.26,64.23L343.09,32.78L347.92,70.05L352.75,73.41L357.58,95.26L362.42,85L367.25,84.68L372.08,64.87L376.91,64.66L381.74,66.42L386.58,40.57L391.41,40.15L396.24,77.53L401.07,37.74L405.91,37.85L410.74,34.16L415.57,37.53L420.4,33.58L425.23,36.19L430.07,32.08L439.73,35.82L444.56,32.88L449.4,35.13L454.23,27.81L459.06,28.66L463.89,27.17L468.72,35.18L473.56,37.48L478.39,33.42L483.22,35.93L488.05,37.05L492.89,33.31L497.72,62.09L502.55,66.47L507.38,69.94L512.21,78.49L517.05,72.72L521.88,73.84L526.71,74.38L531.54,73.47L536.38,85.96L541.21,25.46L546.04,28.61L550.87,24.23L555.7,62.79L560.54,64.07L565.37,69.68L570.2,69.09L575.03,66.26L579.87,23.06L584.7,19.8L589.53,23.81L594.36,22.58L599.19,27.01L604.03,29.95L608.86,25.46L613.69,22.36L618.52,22.26L628.19,23.91L633.02,22.15L637.85,19.85L642.68,40.47L647.52,41.43L652.35,36.3L657.18,39.02L662.01,25.73L666.85,23.48L671.68,29.57L681.34,25.78L686.17,26.8L691.01,27.01L695.84,28.5L700.67,34.06L705.5,23.38L710.34,26.42L715.17,32.94L720,32.83" style="vector-effect: none; fill: none; stroke: rgb(128, 0, 128); stroke-opacity: 1; stroke-width: 2px; opacity: 1;"/></g><g class="points"/><g class="text"/></g><g class="trace scatter trace35a5a3" style="stroke-miterlimit: 2; opacity: 1;"><g class="fills"/><g class="errorbars"/><g class="lines"><path class="js-line" d="M0,207.45L4.83,144.12L9.66,137.23L14.5,140.7L19.33,145.24L24.16,123.24L28.99,96.96L33.83,99.85L38.66,107.27L43.49,105.83L48.32,106.42L53.15,100.12L57.99,103.21L62.82,86.12L67.65,91.52L72.48,95.2L77.32,79.82L82.15,95.2L86.98,96.32L91.81,98.3L96.64,96.64L101.48,84.95L106.31,121.32L111.14,137.23L115.97,158.32L120.81,156.29L125.64,151.75L130.47,146.36L135.3,136.96L140.13,143.8L144.97,137.23L149.8,91.52L154.63,75.28L159.46,104.23L164.3,109.67L169.13,90.4L173.96,86.07L178.79,90.61L183.62,138.14L188.46,136.11L193.29,92.11L198.12,87.78L202.95,144.12L207.79,142.68L212.62,147.54L217.45,141.55L222.28,94.94L231.95,84.04L236.78,79.77L241.61,82.07L246.44,137.23L251.28,134.72L256.11,139.26L260.94,141.23L265.77,130.71L270.6,137.55L275.44,89.49L280.27,84.95L285.1,100.06L289.93,106.36L294.77,92.32L299.6,94.08L304.43,128.47L309.26,146.09L314.09,138.67L318.93,128.15L323.76,123.02L328.59,113.09L333.42,122.49L338.26,119.07L343.09,89.81L347.92,139.53L352.75,143.53L357.58,149.19L362.42,144.65L367.25,146.63L372.08,131.03L376.91,129.01L381.74,133.01L386.58,92.59L391.41,101.98L396.24,149.19L401.07,88.05L405.91,94.03L410.74,81.21L415.57,88.63L420.4,74.64L425.23,77.21L430.07,69.25L434.9,83.19L439.73,89.17L449.4,81.21L454.23,72.13L459.06,72.67L463.89,78.65L468.72,71.28L473.56,75.82L478.39,68.72L483.22,69.3L488.05,68.98L492.89,63.91L497.72,127.62L502.55,118.75L507.38,124.73L512.21,133.81L517.05,130.71L521.88,130.71L526.71,130.71L531.54,127.3L536.38,141.82L541.21,60.17L546.04,72.13L550.87,76.08L555.7,130.13L560.54,128.15L565.37,126.71L570.2,130.13L575.03,128.15L579.87,71.81L584.7,84.63L589.53,82.07L594.36,83.19L599.19,82.65L604.03,85.16L608.86,75.23L613.69,76.67L618.52,80.09L623.36,84.04L628.19,81.53L633.02,77.53L637.85,77.53L642.68,81.59L647.52,81L652.35,83.56L657.18,87.51L662.01,70.69L666.85,70.69L671.68,80.62L676.51,80.62L681.34,71.23L686.17,77.21L691.01,77.21L695.84,71.81L700.67,91.14L705.5,76.08L710.34,76.08L715.17,86.07L720,84.04" style="vector-effect: none; fill: none; stroke: rgb(255, 192, 203); stroke-opacity: 1; stroke-width: 2px; opacity: 1;"/></g><g class="points"/><g class="text"/></g><g class="trace scatter trace345dcb" style="stroke-miterlimit: 2; opacity: 1;"><g class="fills"/><g class="errorbars"/><g class="lines"><path class="js-line" d="M0,316.66L4.83,116.4L9.66,110.37L14.5,100.54L19.33,95.15L24.16,89.06L28.99,69.25L33.83,75.18L38.66,68.5L43.49,71.12L48.32,66.31L57.99,66.21L62.82,63.16L67.65,63L72.48,61.29L77.32,56.33L82.15,62.2L86.98,66.95L91.81,59.69L96.64,58.2L101.48,57.98L106.31,80.94L111.14,93.87L115.97,128.85L120.81,129.22L125.64,116.3L130.47,121.1L135.3,112.29L140.13,111.54L144.97,100.44L149.8,49.33L154.63,42.39L159.46,67.17L164.3,69.62L169.13,40.63L173.96,41.43L178.79,49.44L183.62,94.4L188.46,95.04L193.29,46.66L198.12,53.66L202.95,95.74L207.79,95.79L212.62,95.04L217.45,87.25L222.28,52.21L227.11,47.84L231.95,41.32L236.78,45.49L241.61,44.9L246.44,93.23L251.28,91.36L256.11,90.66L260.94,108.55L265.77,86.02L270.6,84.74L275.44,43.3L280.27,42.87L285.1,45.59L289.93,41.21L294.77,41.96L299.6,29.84L304.43,73.36L309.26,109.46L314.09,101.24L318.93,83.56L323.76,73.36L328.59,70.21L333.42,72.72L338.26,73.95L343.09,36.89L347.92,82.23L352.75,86.77L357.58,114.69L362.42,101.13L367.25,100.44L372.08,75.23L376.91,75.23L381.74,77.74L386.58,47.14L391.41,47.03L396.24,92.69L401.07,43.46L405.91,44.04L410.74,40.25L415.57,43.46L420.4,38.54L425.23,42.18L430.07,37.26L439.73,42.12L444.56,38.97L449.4,40.95L454.23,31.82L459.06,32.99L463.89,31.71L473.56,37.74L478.39,32.51L483.22,35.5L488.05,37.58L492.89,32.88L497.72,72.67L502.55,79.08L507.38,82.92L512.21,94.83L517.05,87.57L526.71,89.54L531.54,88.21L536.38,105.83L541.21,27.81L546.04,33.52L550.87,28.56L555.7,75.28L560.54,76.51L565.37,83.67L570.2,81.64L575.03,79.08L579.87,27.81L584.7,24.13L589.53,28.45L594.36,28.29L599.19,32.72L604.03,36.94L608.86,31.39L613.69,26.64L618.52,26.1L628.19,27.97L633.02,25.57L637.85,23.59L642.68,38.54L647.52,39.34L652.35,34.86L657.18,37.9L662.01,29.89L666.85,27.92L671.68,35.23L681.34,30.91L686.17,32.67L691.01,32.72L695.84,34L700.67,40.79L705.5,28.4L710.34,31.01L715.17,38.44L720,37.9" style="vector-effect: none; fill: none; stroke: rgb(165, 42, 42); stroke-opacity: 1; stroke-width: 2px; opacity: 1;"/></g><g class="points"/><g class="text"/></g><g class="trace scatter traced1fb75" style="stroke-miterlimit: 2; opacity: 1;"><g class="fills"/><g class="errorbars"/><g class="lines"><path class="js-line" d="M0,330.81L4.83,148.66L9.66,139.47L19.33,147.8L24.16,120.46L28.99,91.95L33.83,94.45L38.66,102.68L43.49,101.34L48.32,102.3L53.15,96.48L57.99,101.18L62.82,85.16L67.65,90.61L72.48,97.45L77.32,80.52L82.15,97.45L86.98,100.7L91.81,103L96.64,98.19L101.48,88.47L106.31,142.14L111.14,162.11L115.97,194.16L120.81,191.43L125.64,183.05L130.47,177.97L135.3,167.67L140.13,172.53L144.97,162.11L149.8,90.61L154.63,74.22L159.46,118.38L164.3,123.45L169.13,87.78L173.96,91.95L178.79,98.41L183.62,159.66L188.46,157.15L193.29,92.11L198.12,89.81L202.95,167.13L207.79,167.19L212.62,169.7L217.45,162.17L222.28,93.81L227.11,88.31L231.95,89.6L236.78,88.05L241.61,87.25L246.44,162.11L251.28,157.09L256.11,164.68L260.94,167.24L265.77,152.13L270.6,157.25L275.44,94.83L280.27,88.47L285.1,101.24L289.93,106.1L294.77,96.06L299.6,94.4L304.43,143.1L309.26,169.7L314.09,162.11L318.93,147.27L323.76,138.03L328.59,126.18L333.42,135.95L338.26,133.28L343.09,92.11L347.92,159.71L352.75,164.68L357.58,177.55L362.42,169.7L367.25,172.26L372.08,147.64L376.91,145.24L381.74,150.1L386.58,100.76L391.41,110.58L396.24,177.55L401.07,94.29L405.91,101.24L410.74,88.53L415.57,96.06L420.4,79.66L425.23,83.83L430.07,74.43L434.9,90.88L439.73,97.93L449.4,88.53L454.23,75.55L459.06,77.31L463.89,84.36L468.72,69.52L473.56,75.82L478.39,65.56L483.22,67.17L488.05,69.73L492.89,61.67L497.72,145.03L502.55,137.34L507.38,144.71L512.21,159.66L517.05,152.13L521.88,152.13L526.71,152.13L531.54,149.57L536.38,169.91L541.21,61.35L546.04,75.55L550.87,80.25L555.7,149.73L560.54,147.27L565.37,147.16L570.2,149.73L575.03,147.27L579.87,78.65L584.7,91.41L589.53,87.25L594.36,90.88L599.19,89.06L604.03,93.23L608.86,81.48L613.69,82.01L618.52,84.95L623.36,89.6L628.19,85.54L633.02,80.84L637.85,80.84L647.52,77.58L652.35,81.37L657.18,86.02L662.01,74.96L666.85,74.96L671.68,86.71L676.51,86.71L681.34,76.78L686.17,83.83L691.01,83.83L695.84,78.65L700.67,100.28L705.5,80.25L710.34,80.25L715.17,91.95L720,89.6" style="vector-effect: none; fill: none; stroke: rgb(128, 128, 128); stroke-opacity: 1; stroke-width: 2px; opacity: 1;"/></g><g class="points"/><g class="text"/></g></g></g><g class="overplot"/><path class="xlines-above crisp" d="M0,0" style="fill: none;"/><path class="ylines-above crisp" d="M0,0" style="fill: none;"/><g class="overlines-above"/><g class="xaxislayer-above"><g class="xtick"><text text-anchor="middle" x="0" y="509" transform="translate(241.81,0)" style="font-family: 'Open Sans', verdana, arial, sans-serif; font-size: 12px; fill: rgb(42, 63, 95); fill-opacity: 1; white-space: pre; opacity: 1;">20</text></g><g class="xtick"><text text-anchor="middle" x="0" y="509" style="font-family: 'Open Sans', verdana, arial, sans-serif; font-size: 12px; fill: rgb(42, 63, 95); fill-opacity: 1; white-space: pre; opacity: 1;" transform="translate(338.46000000000004,0)">40</text></g><g class="xtick"><text text-anchor="middle" x="0" y="509" style="font-family: 'Open Sans', verdana, arial, sans-serif; font-size: 12px; fill: rgb(42, 63, 95); fill-opacity: 1; white-space: pre; opacity: 1;" transform="translate(435.1,0)">60</text></g><g class="xtick"><text text-anchor="middle" x="0" y="509" style="font-family: 'Open Sans', verdana, arial, sans-serif; font-size: 12px; fill: rgb(42, 63, 95); fill-opacity: 1; white-space: pre; opacity: 1;" transform="translate(531.74,0)">80</text></g><g class="xtick"><text text-anchor="middle" x="0" y="509" style="font-family: 'Open Sans', verdana, arial, sans-serif; font-size: 12px; fill: rgb(42, 63, 95); fill-opacity: 1; white-space: pre; opacity: 1;" transform="translate(628.39,0)">100</text></g><g class="xtick"><text text-anchor="middle" x="0" y="509" style="font-family: 'Open Sans', verdana, arial, sans-serif; font-size: 12px; fill: rgb(42, 63, 95); fill-opacity: 1; white-space: pre; opacity: 1;" transform="translate(725.03,0)">120</text></g><g class="xtick"><text text-anchor="middle" x="0" y="509" style="font-family: 'Open Sans', verdana, arial, sans-serif; font-size: 12px; fill: rgb(42, 63, 95); fill-opacity: 1; white-space: pre; opacity: 1;" transform="translate(821.68,0)">140</text></g></g><g class="yaxislayer-above"><g class="ytick"><text text-anchor="end" x="149" y="4.199999999999999" transform="translate(0,467.66)" style="font-family: 'Open Sans', verdana, arial, sans-serif; font-size: 12px; fill: rgb(42, 63, 95); fill-opacity: 1; white-space: pre; opacity: 1;">20</text></g><g class="ytick"><text text-anchor="end" x="149" y="4.199999999999999" style="font-family: 'Open Sans', verdana, arial, sans-serif; font-size: 12px; fill: rgb(42, 63, 95); fill-opacity: 1; white-space: pre; opacity: 1;" transform="translate(0,414.25)">30</text></g><g class="ytick"><text text-anchor="end" x="149" y="4.199999999999999" style="font-family: 'Open Sans', verdana, arial, sans-serif; font-size: 12px; fill: rgb(42, 63, 95); fill-opacity: 1; white-space: pre; opacity: 1;" transform="translate(0,360.85)">40</text></g><g class="ytick"><text text-anchor="end" x="149" y="4.199999999999999" style="font-family: 'Open Sans', verdana, arial, sans-serif; font-size: 12px; fill: rgb(42, 63, 95); fill-opacity: 1; white-space: pre; opacity: 1;" transform="translate(0,307.45)">50</text></g><g class="ytick"><text text-anchor="end" x="149" y="4.199999999999999" style="font-family: 'Open Sans', verdana, arial, sans-serif; font-size: 12px; fill: rgb(42, 63, 95); fill-opacity: 1; white-space: pre; opacity: 1;" transform="translate(0,254.05)">60</text></g><g class="ytick"><text text-anchor="end" x="149" y="4.199999999999999" style="font-family: 'Open Sans', verdana, arial, sans-serif; font-size: 12px; fill: rgb(42, 63, 95); fill-opacity: 1; white-space: pre; opacity: 1;" transform="translate(0,200.65)">70</text></g><g class="ytick"><text text-anchor="end" x="149" y="4.199999999999999" style="font-family: 'Open Sans', verdana, arial, sans-serif; font-size: 12px; fill: rgb(42, 63, 95); fill-opacity: 1; white-space: pre; opacity: 1;" transform="translate(0,147.25)">80</text></g></g><g class="overaxes-above"/></g></g><g class="polarlayer"/><g class="smithlayer"/><g class="ternarylayer"/><g class="geolayer"/><g class="funnelarealayer"/><g class="pielayer"/><g class="iciclelayer"/><g class="treemaplayer"/><g class="sunburstlayer"/><g class="glimages"/><defs id="topdefs-57c63f"><g class="clips"/><clipPath id="legend57c63f"><rect width="128" height="162" x="0" y="0"/></clipPath></defs><g class="layer-above"><g class="imagelayer"/><g class="shapelayer"/></g><g class="infolayer"><g class="legend" pointer-events="all" transform="translate(884.4,100)"><rect class="bg" shape-rendering="crispEdges" width="128" height="162" x="0" y="0" style="stroke: rgb(68, 68, 68); stroke-opacity: 1; fill: rgb(255, 255, 255); fill-opacity: 1; stroke-width: 0px;"/><g class="scrollbox" transform="" clip-path="url(#legend57c63f)"><g class="groups"><g class="traces" transform="translate(0,14.5)" style="opacity: 1;"><text class="legendtext" text-anchor="start" x="40" y="4.680000000000001" style="font-family: 'Open Sans', verdana, arial, sans-serif; font-size: 12px; fill: rgb(42, 63, 95); fill-opacity: 1; white-space: pre;">Train Accuracy</text><g class="layers" style="opacity: 1;"><g class="legendfill"/><g class="legendlines"><path class="js-line" d="M5,0h30" style="fill: none; stroke: rgb(255, 0, 0); stroke-opacity: 1; stroke-width: 2px;"/></g><g class="legendsymbols"><g class="legendpoints"/></g></g><rect class="legendtoggle" x="0" y="-9.5" width="122.71875" height="19" style="fill: rgb(0, 0, 0); fill-opacity: 0;"/></g><g class="traces" transform="translate(0,33.5)" style="opacity: 1;"><text class="legendtext" text-anchor="start" x="40" y="4.680000000000001" style="font-family: 'Open Sans', verdana, arial, sans-serif; font-size: 12px; fill: rgb(42, 63, 95); fill-opacity: 1; white-space: pre;">Test Accuracy</text><g class="layers" style="opacity: 1;"><g class="legendfill"/><g class="legendlines"><path class="js-line" d="M5,0h30" style="fill: none; stroke: rgb(0, 0, 255); stroke-opacity: 1; stroke-width: 2px;"/></g><g class="legendsymbols"><g class="legendpoints"/></g></g><rect class="legendtoggle" x="0" y="-9.5" width="122.71875" height="19" style="fill: rgb(0, 0, 0); fill-opacity: 0;"/></g><g class="traces" transform="translate(0,52.5)" style="opacity: 1;"><text class="legendtext" text-anchor="start" x="40" y="4.680000000000001" style="font-family: 'Open Sans', verdana, arial, sans-serif; font-size: 12px; fill: rgb(42, 63, 95); fill-opacity: 1; white-space: pre;">Train Precision</text><g class="layers" style="opacity: 1;"><g class="legendfill"/><g class="legendlines"><path class="js-line" d="M5,0h30" style="fill: none; stroke: rgb(0, 128, 0); stroke-opacity: 1; stroke-width: 2px;"/></g><g class="legendsymbols"><g class="legendpoints"/></g></g><rect class="legendtoggle" x="0" y="-9.5" width="122.71875" height="19" style="fill: rgb(0, 0, 0); fill-opacity: 0;"/></g><g class="traces" transform="translate(0,71.5)" style="opacity: 1;"><text class="legendtext" text-anchor="start" x="40" y="4.680000000000001" style="font-family: 'Open Sans', verdana, arial, sans-serif; font-size: 12px; fill: rgb(42, 63, 95); fill-opacity: 1; white-space: pre;">Test Precision</text><g class="layers" style="opacity: 1;"><g class="legendfill"/><g class="legendlines"><path class="js-line" d="M5,0h30" style="fill: none; stroke: rgb(255, 165, 0); stroke-opacity: 1; stroke-width: 2px;"/></g><g class="legendsymbols"><g class="legendpoints"/></g></g><rect class="legendtoggle" x="0" y="-9.5" width="122.71875" height="19" style="fill: rgb(0, 0, 0); fill-opacity: 0;"/></g><g class="traces" transform="translate(0,90.5)" style="opacity: 1;"><text class="legendtext" text-anchor="start" x="40" y="4.680000000000001" style="font-family: 'Open Sans', verdana, arial, sans-serif; font-size: 12px; fill: rgb(42, 63, 95); fill-opacity: 1; white-space: pre;">Train Recall</text><g class="layers" style="opacity: 1;"><g class="legendfill"/><g class="legendlines"><path class="js-line" d="M5,0h30" style="fill: none; stroke: rgb(128, 0, 128); stroke-opacity: 1; stroke-width: 2px;"/></g><g class="legendsymbols"><g class="legendpoints"/></g></g><rect class="legendtoggle" x="0" y="-9.5" width="122.71875" height="19" style="fill: rgb(0, 0, 0); fill-opacity: 0;"/></g><g class="traces" transform="translate(0,109.5)" style="opacity: 1;"><text class="legendtext" text-anchor="start" x="40" y="4.680000000000001" style="font-family: 'Open Sans', verdana, arial, sans-serif; font-size: 12px; fill: rgb(42, 63, 95); fill-opacity: 1; white-space: pre;">Test Recall</text><g class="layers" style="opacity: 1;"><g class="legendfill"/><g class="legendlines"><path class="js-line" d="M5,0h30" style="fill: none; stroke: rgb(255, 192, 203); stroke-opacity: 1; stroke-width: 2px;"/></g><g class="legendsymbols"><g class="legendpoints"/></g></g><rect class="legendtoggle" x="0" y="-9.5" width="122.71875" height="19" style="fill: rgb(0, 0, 0); fill-opacity: 0;"/></g><g class="traces" transform="translate(0,128.5)" style="opacity: 1;"><text class="legendtext" text-anchor="start" x="40" y="4.680000000000001" style="font-family: 'Open Sans', verdana, arial, sans-serif; font-size: 12px; fill: rgb(42, 63, 95); fill-opacity: 1; white-space: pre;">Train F1</text><g class="layers" style="opacity: 1;"><g class="legendfill"/><g class="legendlines"><path class="js-line" d="M5,0h30" style="fill: none; stroke: rgb(165, 42, 42); stroke-opacity: 1; stroke-width: 2px;"/></g><g class="legendsymbols"><g class="legendpoints"/></g></g><rect class="legendtoggle" x="0" y="-9.5" width="122.71875" height="19" style="fill: rgb(0, 0, 0); fill-opacity: 0;"/></g><g class="traces" transform="translate(0,147.5)" style="opacity: 1;"><text class="legendtext" text-anchor="start" x="40" y="4.680000000000001" style="font-family: 'Open Sans', verdana, arial, sans-serif; font-size: 12px; fill: rgb(42, 63, 95); fill-opacity: 1; white-space: pre;">Test F1</text><g class="layers" style="opacity: 1;"><g class="legendfill"/><g class="legendlines"><path class="js-line" d="M5,0h30" style="fill: none; stroke: rgb(128, 128, 128); stroke-opacity: 1; stroke-width: 2px;"/></g><g class="legendsymbols"><g class="legendpoints"/></g></g><rect class="legendtoggle" x="0" y="-9.5" width="122.71875" height="19" style="fill: rgb(0, 0, 0); fill-opacity: 0;"/></g></g></g><rect class="scrollbar" rx="20" ry="3" width="0" height="0" x="0" y="0" style="fill: rgb(128, 139, 164); fill-opacity: 1;"/></g><g class="g-gtitle"><text class="gtitle" x="51.2" y="50" text-anchor="start" dy="0em" style="font-family: 'Open Sans', verdana, arial, sans-serif; font-size: 17px; fill: rgb(42, 63, 95); opacity: 1; font-weight: normal; white-space: pre;">Training Metrics - logs/FakeNewsNet-politifact_max-vocab=15000_pre=v1_text_T=200_s=10.log</text></g><g class="g-xtitle"><text class="xtitle" x="510" y="537.3" text-anchor="middle" style="font-family: 'Open Sans', verdana, arial, sans-serif; font-size: 14px; fill: rgb(42, 63, 95); opacity: 1; font-weight: normal; white-space: pre;">Epoch</text></g><g class="g-ytitle"><text class="ytitle" transform="rotate(-90,110.965625,298)" x="110.965625" y="298" text-anchor="middle" style="font-family: 'Open Sans', verdana, arial, sans-serif; font-size: 14px; fill: rgb(42, 63, 95); opacity: 1; font-weight: normal; white-space: pre;">Metric Score</text></g></g><g class="menulayer"><g class="updatemenu-container" style="cursor: pointer;"><g class="updatemenu-header-group" transform="translate(12,60)"><g class="updatemenu-header" transform="translate(1,1)" style="pointer-events: all;"><rect class="updatemenu-item-rect" rx="2" ry="2" shape-rendering="crispEdges" x="0" y="0" width="174" height="33" style="stroke: rgb(190, 200, 217); stroke-opacity: 1; fill: rgb(255, 255, 255); fill-opacity: 1; stroke-width: 1px;"/><text class="updatemenu-item-text" text-anchor="start" data-notex="1" x="12" y="19.5" style="font-family: 'Open Sans', verdana, arial, sans-serif; font-size: 12px; fill: rgb(42, 63, 95); fill-opacity: 1; white-space: pre;">All</text></g><text class="updatemenu-header-arrow" text-anchor="end" x="170" y="19.5" style="font-family: 'Open Sans', verdana, arial, sans-serif; font-size: 12px; fill: rgb(42, 63, 95); fill-opacity: 1;">▼</text></g><g class="updatemenu-dropdown-button-group" updatemenu-active-index="-1" style="pointer-events: all;"><rect class="scrollbox-bg" opacity="0" x="0" y="0" width="0" height="0" style="pointer-events: all;"/></g></g></g></svg>