<svg class="main-svg" xmlns="http://www.w3.org/2000/svg" xmlns:xlink="http://www.w3.org/1999/xlink" width="1024" height="576" style="" viewBox="0 0 1024 576"><rect x="0" y="0" width="1024" height="576" style="fill: rgb(255, 255, 255); fill-opacity: 1;"/><defs id="defs-95eaff"><g class="clips"><clipPath id="clip95eaffxyplot" class="plotclip"><rect width="726" height="396"/></clipPath><clipPath class="axesclip" id="clip95eaffx"><rect x="143" y="0" width="726" height="576"/></clipPath><clipPath class="axesclip" id="clip95eaffy"><rect x="0" y="100" width="1024" height="396"/></clipPath><clipPath class="axesclip" id="clip95eaffxy"><rect x="143" y="100" width="726" height="396"/></clipPath></g><g class="gradients"/><g class="patterns"/></defs><g class="bglayer"><rect class="bg" x="143" y="100" width="726" height="396" style="fill: rgb(229, 236, 246); fill-opacity: 1; stroke-width: 0;"/></g><g class="layer-below"><g class="imagelayer"/><g class="shapelayer"/></g><g class="cartesianlayer"><g class="subplot xy"><g class="layer-subplot"><g class="shapelayer"/><g class="imagelayer"/></g><g class="minor-gridlayer"><g class="x"/><g class="y"/></g><g class="gridlayer"><g class="x"><path class="xgrid crisp" transform="translate(235.57999999999998,0)" d="M0,100v396" style="stroke: rgb(255, 255, 255); stroke-opacity: 1; stroke-width: 1px;"/><path class="xgrid crisp" transform="translate(333.03,0)" d="M0,100v396" style="stroke: rgb(255, 255, 255); stroke-opacity: 1; stroke-width: 1px;"/><path class="xgrid crisp" transform="translate(430.48,0)" d="M0,100v396" style="stroke: rgb(255, 255, 255); stroke-opacity: 1; stroke-width: 1px;"/><path class="xgrid crisp" transform="translate(527.9300000000001,0)" d="M0,100v396" style="stroke: rgb(255, 255, 255); stroke-opacity: 1; stroke-width: 1px;"/><path class="xgrid crisp" transform="translate(625.38,0)" d="M0,100v396" style="stroke: rgb(255, 255, 255); stroke-opacity: 1; stroke-width: 1px;"/><path class="xgrid crisp" transform="translate(722.83,0)" d="M0,100v396" style="stroke: rgb(255, 255, 255); stroke-opacity: 1; stroke-width: 1px;"/><path class="xgrid crisp" transform="translate(820.28,0)" d="M0,100v396" style="stroke: rgb(255, 255, 255); stroke-opacity: 1; stroke-width: 1px;"/></g><g class="y"><path class="ygrid crisp" transform="translate(0,462.94)" d="M143,0h726" style="stroke: rgb(255, 255, 255); stroke-opacity: 1; stroke-width: 1px;"/><path class="ygrid crisp" transform="translate(0,377.92)" d="M143,0h726" style="stroke: rgb(255, 255, 255); stroke-opacity: 1; stroke-width: 1px;"/><path class="ygrid crisp" transform="translate(0,292.9)" d="M143,0h726" style="stroke: rgb(255, 255, 255); stroke-opacity: 1; stroke-width: 1px;"/><path class="ygrid crisp" transform="translate(0,207.88)" d="M143,0h726" style="stroke: rgb(255, 255, 255); stroke-opacity: 1; stroke-width: 1px;"/><path class="ygrid crisp" transform="translate(0,122.86)" d="M143,0h726" style="stroke: rgb(255, 255, 255); stroke-opacity: 1; stroke-width: 1px;"/></g></g><g class="zerolinelayer"/><path class="xlines-below"/><path class="ylines-below"/><g class="overlines-below"/><g class="xaxislayer-below"/><g class="yaxislayer-below"/><g class="overaxes-below"/><g class="plot" transform="translate(143,100)" clip-path="url(#clip95eaffxyplot)"><g class="scatterlayer mlayer"><g class="trace scatter traced738d2" style="stroke-miterlimit: 2; opacity: 1;"><g class="fills"/><g class="errorbars"/><g class="lines"><path class="js-line" d="M0,343.55L4.87,226.74L9.74,190.69L14.62,147.16L19.49,117.74L24.36,110.09L29.23,108.22L34.11,110.09L38.98,107.03L43.85,91.9L48.72,89.69L53.6,77.44L58.47,89.18L63.34,89.52L68.21,85.94L82.83,82.37L87.7,88.33L92.58,85.94L97.45,77.95L102.32,82.54L107.19,88.33L112.07,85.77L116.94,77.1L121.81,81.86L126.68,75.74L131.56,72L136.43,71.49L141.3,68.77L146.17,61.63L155.92,58.23L160.79,61.63L170.54,50.58L175.41,57.21L185.15,72.34L190.03,64.69L194.9,63.33L199.77,65.03L204.64,64.01L209.52,50.92L214.39,53.98L219.26,59.93L224.13,59.25L229.01,52.79L233.88,55.17L238.75,55.34L243.62,58.74L248.5,50.92L253.37,57.21L258.24,58.23L263.11,60.61L267.99,59.76L277.73,47.69L282.6,48.71L287.48,53.64L292.35,49.9L297.22,51.26L302.09,56.7L306.97,54.66L311.84,61.29L316.71,58.06L321.58,59.42L326.46,56.53L331.33,60.78L336.2,60.95L341.07,60.27L345.95,60.61L350.82,55.51L355.69,53.13L360.56,52.79L365.44,57.38L370.31,56.19L375.18,52.28L380.05,50.24L384.93,53.47L389.8,55L394.67,56.53L399.54,49.73L404.42,53.47L409.29,51.77L414.16,52.45L419.03,49.05L428.78,58.4L433.65,56.7L438.52,53.64L443.4,62.14L448.27,59.76L453.14,53.47L458.01,52.45L462.89,48.37L472.63,42.08L477.5,41.22L482.38,42.76L487.25,50.75L492.12,51.43L496.99,52.96L501.87,51.26L506.74,53.81L511.61,58.4L516.48,53.64L521.36,51.77L526.23,47.69L531.1,53.3L535.97,49.9L540.85,47.18L545.72,49.39L550.59,50.07L555.46,47.69L565.21,48.71L570.08,43.44L574.95,47.01L579.83,43.44L584.7,43.95L589.57,43.1L594.44,40.03L599.32,40.54L604.19,44.8L609.06,44.29L613.93,49.22L618.81,43.44L623.68,42.76L628.55,47.18L633.42,49.05L638.3,48.37L648.04,50.24L652.91,53.3L657.79,53.47L662.66,50.58L667.53,52.79L672.4,46.5L682.15,49.9L687.02,52.45L691.89,36.12L696.77,39.69L701.64,38.16L706.51,41.56L711.38,47.52L716.26,44.12L721.13,40.88L726,45.48" style="vector-effect: none; fill: none; stroke: rgb(255, 0, 0); stroke-opacity: 1; stroke-width: 2px; opacity: 1;"/></g><g class="points"/><g class="text"/></g><g class="trace scatter traced91e16" style="stroke-miterlimit: 2; opacity: 1;"><g class="fills"/><g class="errorbars"/><g class="lines"><path class="js-line" d="M0,352.39L4.87,233.71L9.74,216.36L19.49,147.67L24.36,138.15L29.23,144.61L34.11,131.18L38.98,126.58L43.85,111.11L48.72,101.25L53.6,97.34L58.47,97.34L63.34,108.05L68.21,100.74L73.09,102.27L77.96,97.34L82.83,97.34L87.7,111.62L92.58,107.71L97.45,101.25L102.32,106.52L107.19,111.62L112.07,106.52L116.94,94.62L121.81,100.4L126.68,107.37L131.56,97.34L136.43,97.68L141.3,78.97L146.17,78.12L151.05,78.97L155.92,74.72L160.79,82.03L165.66,82.37L170.54,83.56L175.41,83.22L180.28,93.94L185.15,100.06L190.03,99.72L194.9,86.97L199.77,100.06L204.64,94.28L209.52,92.41L219.26,87.82L224.13,84.24L229.01,77.78L233.88,86.97L243.62,88.84L248.5,81.69L253.37,82.37L258.24,82.03L263.11,86.97L267.99,88.16L272.86,66.56L277.73,59.42L287.48,75.4L292.35,64.35L297.22,62.82L302.09,78.12L306.97,74.38L311.84,79.99L316.71,80.5L321.58,73.87L326.46,77.78L331.33,78.46L336.2,75.4L341.07,82.71L345.95,72.85L350.82,70.47L355.69,74.38L360.56,63.16L365.44,67.75L370.31,73.53L375.18,75.4L380.05,79.99L384.93,86.97L389.8,87.82L394.67,79.99L399.54,76.93L404.42,76.25L409.29,72.85L414.16,68.94L419.03,71.66L423.91,67.75L428.78,77.78L433.65,79.31L438.52,74.72L443.4,80.5L448.27,84.75L453.14,79.31L458.01,83.56L462.89,76.59L467.76,73.87L472.63,65.54L477.5,65.54L482.38,62.82L487.25,65.54L492.12,79.31L496.99,73.53L501.87,76.93L506.74,73.19L511.61,75.06L516.48,75.91L521.36,71.32L526.23,68.09L531.1,69.28L535.97,61.29L540.85,64.35L545.72,75.4L550.59,76.93L555.46,75.4L560.34,77.78L565.21,72.85L570.08,63.16L574.95,67.41L579.83,62.82L584.7,67.07L589.57,62.82L594.44,70.13L599.32,73.53L604.19,79.65L609.06,75.4L613.93,79.99L618.81,67.75L623.68,76.59L628.55,75.06L633.42,74.72L638.3,73.19L643.17,72.85L648.04,75.91L652.91,73.87L657.79,78.97L662.66,67.41L667.53,72.34L672.4,66.22L677.28,66.22L682.15,73.53L687.02,72.85L691.89,59.76L696.77,54.32L701.64,50.58L706.51,55.17L711.38,67.41L716.26,65.54L721.13,60.95L726,67.41" style="vector-effect: none; fill: none; stroke: rgb(0, 0, 255); stroke-opacity: 1; stroke-width: 2px; opacity: 1;"/></g><g class="points"/><g class="text"/></g><g class="trace scatter trace774d58" style="stroke-miterlimit: 2; opacity: 1;"><g class="fills"/><g class="errorbars"/><g class="lines"><path class="js-line" d="M0,268.91L4.87,224.87L9.74,205.99L19.49,174.02L24.36,172.32L29.23,165.18L34.11,169.94L38.98,165.35L43.85,159.57L48.72,158.55L53.6,152.09L58.47,156L63.34,157.36L68.21,154.64L73.09,153.11L77.96,150.39L82.83,149.37L87.7,150.39L92.58,146.99L97.45,141.04L102.32,143.08L107.19,146.48L112.07,147.84L116.94,142.23L121.81,144.61L126.68,141.55L131.56,140.87L136.43,141.89L141.3,139.17L146.17,134.75L151.05,134.41L155.92,134.07L160.79,134.92L165.66,131.69L170.54,126.75L180.28,136.62L185.15,139.34L190.03,136.28L194.9,136.79L199.77,135.94L204.64,135.94L209.52,130.15L214.39,131.52L219.26,136.11L224.13,134.41L229.01,132.54L233.88,132.54L238.75,130.66L243.62,131.69L248.5,128.11L253.37,132.03L258.24,132.71L263.11,134.24L277.73,128.62L282.6,128.96L287.48,130.15L292.35,130.15L302.09,131.86L306.97,130.32L311.84,134.24L316.71,131.18L321.58,132.2L326.46,130.32L331.33,132.37L336.2,132.88L341.07,131L345.95,135.26L350.82,129.98L355.69,128.96L360.56,128.79L365.44,130.49L370.31,130.49L375.18,128.79L380.05,126.92L384.93,128.79L389.8,131.69L394.67,132.03L399.54,127.43L404.42,127.77L414.16,128.45L419.03,124.88L423.91,129.47L428.78,131.35L433.65,131L438.52,129.81L443.4,133.73L448.27,133.56L453.14,130.32L458.01,130.49L462.89,126.75L467.76,126.92L472.63,124.03L477.5,124.54L482.38,125.9L487.25,128.79L492.12,127.6L496.99,128.79L501.87,126.41L506.74,128.11L511.61,130.66L516.48,128.45L521.36,128.28L526.23,124.2L531.1,128.45L535.97,127.09L540.85,125.9L545.72,127.94L555.46,127.09L560.34,126.75L565.21,127.26L570.08,123.86L574.95,123.52L579.83,124.03L584.7,124.2L589.57,123.01L594.44,120.29L599.32,120.46L609.06,123.35L613.93,127.26L623.68,122.67L628.55,124.71L633.42,125.22L638.3,123.69L648.04,124.37L652.91,125.73L657.79,127.26L662.66,126.41L667.53,128.79L672.4,126.92L687.02,128.11L691.89,119.44L696.77,121.14L701.64,120.97L706.51,121.31L711.38,124.54L721.13,120.29L726,122.33" style="vector-effect: none; fill: none; stroke: rgb(0, 128, 0); stroke-opacity: 1; stroke-width: 2px; opacity: 1;"/></g><g class="points"/><g class="text"/></g><g class="trace scatter traceed19dd" style="stroke-miterlimit: 2; opacity: 1;"><g class="fills"/><g class="errorbars"/><g class="lines"><path class="js-line" d="M0,273.33L4.87,232.35L9.74,222.32L14.62,210.75L19.49,194.77L24.36,193.75L29.23,194.09L38.98,174.19L43.85,167.73L48.72,161.44L53.6,162.97L58.47,158.55L63.34,167.56L68.21,164.84L73.09,166.37L77.96,159.06L82.83,158.21L87.7,165.18L92.58,164.33L97.45,158.21L102.32,158.72L107.19,164.16L112.07,161.61L116.94,151.58L121.81,158.38L126.68,165.35L131.56,160.42L136.43,161.95L141.3,150.56L151.05,149.37L155.92,147.33L160.79,149.71L165.66,150.9L170.54,153.79L175.41,152.94L180.28,159.57L185.15,160.42L190.03,159.57L194.9,153.11L199.77,161.1L204.64,157.36L209.52,160.59L214.39,157.87L219.26,155.15L224.13,151.41L229.01,151.07L233.88,158.21L238.75,158.55L243.62,153.96L248.5,151.07L253.37,150.9L258.24,151.92L263.11,154.98L267.99,153.79L272.86,142.4L277.73,138.15L282.6,143.25L287.48,147.84L292.35,138.49L297.22,137.81L302.09,146.65L306.97,143.93L311.84,147.84L316.71,147.16L321.58,139.34L326.46,145.8L331.33,144.78L336.2,142.57L341.07,146.48L350.82,140.02L355.69,143.08L360.56,136.62L365.44,138.83L370.31,144.44L375.18,147.5L384.93,156.34L389.8,156.51L394.67,150.39L399.54,147.84L404.42,143.93L409.29,141.72L414.16,139.68L419.03,141.72L423.91,139.85L428.78,146.82L433.65,148.01L438.52,145.46L443.4,146.65L448.27,156.17L453.14,152.6L458.01,154.47L462.89,147.84L467.76,149.2L472.63,142.91L477.5,145.29L482.38,142.23L487.25,142.91L492.12,150.22L496.99,145.97L501.87,150.05L506.74,144.44L516.48,146.82L521.36,145.12L531.1,142.57L535.97,136.79L540.85,142.4L545.72,150.56L550.59,150.22L555.46,151.41L560.34,151.41L565.21,146.31L570.08,143.42L574.95,143.25L579.83,141.38L584.7,144.44L589.57,142.23L594.44,147.67L599.32,149.88L604.19,148.86L609.06,149.54L613.93,153.11L618.81,144.95L623.68,150.9L628.55,147.16L633.42,148.52L638.3,144.78L643.17,145.8L648.04,148.86L652.91,145.29L657.79,150.9L662.66,142.23L667.53,145.8L672.4,143.42L677.28,142.74L682.15,149.54L691.89,140.7L696.77,134.58L701.64,131.35L706.51,132.2L711.38,140.19L716.26,141.04L721.13,133.22L726,138.32" style="vector-effect: none; fill: none; stroke: rgb(255, 165, 0); stroke-opacity: 1; stroke-width: 2px; opacity: 1;"/></g><g class="points"/><g class="text"/></g><g class="trace scatter tracec55dfd" style="stroke-miterlimit: 2; opacity: 1;"><g class="fills"/><g class="errorbars"/><g class="lines"><path class="js-line" d="M0,208.88L4.87,142.4L9.74,117.06L14.62,96.49L19.49,79.99L24.36,79.82L29.23,68.6L34.11,75.57L38.98,69.11L43.85,64.69L48.72,64.01L53.6,58.06L58.47,59.76L63.34,61.8L68.21,58.57L73.09,56.36L77.96,52.28L87.7,50.41L92.58,45.65L97.45,38.5L102.32,40.2L112.07,47.18L116.94,40.88L121.81,43.1L126.68,40.37L131.56,40.71L136.43,42.76L146.17,34.93L151.05,34.76L160.79,35.1L165.66,31.87L170.54,25.92L175.41,31.02L180.28,36.63L185.15,37.82L190.03,35.95L194.9,37.65L199.77,35.1L204.64,35.78L209.52,32.21L214.39,33.06L219.26,37.99L224.13,35.27L229.01,35.61L233.88,34.25L238.75,30.68L243.62,30.85L248.5,28.47L253.37,32.04L258.24,32.72L263.11,34.42L267.99,31.36L272.86,31.7L287.48,30.68L292.35,32.72L297.22,34.25L302.09,32.04L306.97,30.34L311.84,34.08L316.71,30.17L321.58,31.36L326.46,29.49L331.33,31.02L336.2,31.7L341.07,28.64L345.95,36.29L350.82,29.15L360.56,28.47L365.44,29.32L370.31,29.66L375.18,28.81L380.05,26.6L384.93,28.3L389.8,32.55L394.67,32.38L399.54,27.96L404.42,26.43L414.16,28.13L419.03,23.54L423.91,29.15L428.78,30.34L433.65,30.51L438.52,29.83L443.4,32.55L448.27,33.4L453.14,31.19L458.01,32.04L462.89,27.28L467.76,29.49L472.63,26.09L477.5,27.79L482.38,29.32L487.25,29.83L492.12,27.28L496.99,28.3L501.87,24.9L506.74,26.77L511.61,29.15L516.48,27.62L521.36,28.3L526.23,22.86L531.1,27.62L535.97,26.94L540.85,26.43L545.72,29.15L550.59,27.11L555.46,28.47L560.34,27.62L565.21,28.3L574.95,22.18L579.83,25.24L584.7,25.24L589.57,23.71L594.44,20.31L599.32,20.14L604.19,20.31L609.06,23.37L613.93,27.96L618.81,27.11L623.68,23.03L628.55,24.05L633.42,24.05L638.3,21.5L648.04,21.67L652.91,22.69L657.79,25.24L662.66,25.24L667.53,28.64L672.4,28.81L677.28,28.98L682.15,27.79L687.02,27.62L691.89,21.16L701.64,22.86L706.51,21.33L711.38,23.71L716.26,22.35L721.13,19.8L726,20.82" style="vector-effect: none; fill: none; stroke: rgb(128, 0, 128); stroke-opacity: 1; stroke-width: 2px; opacity: 1;"/></g><g class="points"/><g class="text"/></g><g class="trace scatter trace49cf0a" style="stroke-miterlimit: 2; opacity: 1;"><g class="fills"/><g class="errorbars"/><g class="lines"><path class="js-line" d="M0,216.02L4.87,153.11L9.74,139.68L14.62,125.39L19.49,106.35L24.36,107.03L29.23,105.84L38.98,78.8L43.85,72.51L48.72,65.37L53.6,69.28L58.47,61.8L63.34,73.19L68.21,71.15L73.09,73.19L77.96,62.82L82.83,61.12L87.7,68.43L92.58,68.09L97.45,59.93L102.32,59.08L107.19,66.73L112.07,64.01L116.94,51.26L121.81,60.44L126.68,69.96L131.56,65.03L136.43,67.41L141.3,55.51L155.92,51.77L160.79,52.79L165.66,54.66L170.54,59.08L175.41,57.89L180.28,64.86L190.03,62.65L194.9,56.53L199.77,65.2L204.64,60.78L209.52,67.07L214.39,63.16L219.26,59.76L224.13,54.83L229.01,57.04L233.88,65.2L238.75,65.54L243.62,57.21L248.5,55.17L253.37,54.66L258.24,56.53L263.11,59.76L267.99,57.38L272.86,47.01L277.73,43.27L282.6,48.2L287.48,52.28L292.35,41.05L297.22,40.54L302.09,49.05L306.97,45.99L311.84,50.41L316.71,49.05L321.58,38.16L326.46,47.69L331.33,45.48L336.2,42.93L341.07,46.67L345.95,44.97L350.82,40.71L355.69,44.46L360.56,38.16L365.44,40.03L370.31,47.18L380.05,56.87L384.93,61.97L389.8,61.97L394.67,54.66L399.54,51.6L404.42,45.14L414.16,40.88L419.03,43.1L423.91,41.73L428.78,49.39L433.65,50.92L438.52,48.37L443.4,47.86L448.27,62.65L453.14,59.08L458.01,60.27L462.89,51.94L467.76,55.51L472.63,48.37L477.5,52.79L482.38,48.71L487.25,48.37L492.12,54.83L496.99,49.9L501.87,55.34L506.74,47.52L511.61,48.2L516.48,50.24L526.23,49.05L531.1,45.99L535.97,39.52L540.85,48.2L545.72,57.04L550.59,56.02L555.46,58.74L560.34,57.55L565.21,50.92L570.08,50.58L574.95,48.03L579.83,47.18L584.7,50.41L589.57,48.71L594.44,54.66L599.32,56.87L604.19,52.28L609.06,55.51L613.93,59.59L618.81,50.92L623.68,57.38L628.55,51.43L633.42,53.81L638.3,48.03L643.17,49.9L648.04,54.15L652.91,48.54L657.79,56.19L662.66,46.33L667.53,50.24L677.28,47.86L682.15,56.36L687.02,48.2L691.89,47.86L696.77,39.35L701.64,35.78L706.51,34.42L711.38,42.59L716.26,45.14L721.13,33.4L726,39.35" style="vector-effect: none; fill: none; stroke: rgb(255, 192, 203); stroke-opacity: 1; stroke-width: 2px; opacity: 1;"/></g><g class="points"/><g class="text"/></g><g class="trace scatter trace7007f0" style="stroke-miterlimit: 2; opacity: 1;"><g class="fills"/><g class="errorbars"/><g class="lines"><path class="js-line" d="M0,368.72L4.87,271.46L9.74,240.17L14.62,205.48L19.49,181L29.23,170.96L34.11,174.7L38.98,170.28L43.85,159.06L48.72,157.36L53.6,147.5L58.47,155.49L63.34,156.51L68.21,153.11L73.09,151.58L77.96,149.37L82.83,148.01L87.7,151.75L92.58,148.52L97.45,140.7L102.32,144.44L107.19,149.54L112.07,148.86L116.94,141.04L121.81,144.95L126.68,140.02L131.56,137.64L136.43,137.98L141.3,134.92L146.17,128.79L151.05,127.94L155.92,126.75L160.79,128.96L165.66,124.37L170.54,118.42L185.15,136.96L190.03,131.18L204.64,130.66L209.52,120.8L214.39,123.18L219.26,128.79L224.13,127.43L229.01,123.18L233.88,124.37L238.75,123.18L243.62,125.39L248.5,119.44L253.37,124.88L258.24,125.9L263.11,127.94L267.99,126.41L277.73,118.42L282.6,119.1L287.48,121.99L292.35,120.29L297.22,121.82L302.09,124.54L306.97,122.67L311.84,128.28L316.71,124.71L321.58,126.07L326.46,123.52L331.33,126.92L336.2,127.09L341.07,125.73L345.95,128.62L350.82,122.67L355.69,120.97L360.56,120.63L365.44,124.03L370.31,123.35L380.05,118.25L384.93,120.97L389.8,123.69L394.67,124.54L399.54,118.42L404.42,120.46L409.29,119.78L414.16,120.29L419.03,116.55L423.91,121.48L428.78,125.05L433.65,123.86L438.52,121.82L443.4,128.28L448.27,127.09L453.14,122.16L458.01,121.82L462.89,117.4L467.76,116.38L472.63,112.81L477.5,112.81L482.38,114.51L487.25,119.78L492.12,119.27L496.99,120.8L501.87,118.42L506.74,120.8L511.61,124.54L516.48,120.97L521.36,119.95L526.23,115.36L531.1,120.63L540.85,116.21L545.72,118.59L550.59,118.42L555.46,117.4L560.34,117.23L565.21,117.91L570.08,113.32L574.95,114.51L579.83,113.32L584.7,113.66L589.57,112.47L594.44,109.24L599.32,109.75L604.19,112.47L609.06,113.32L613.93,118.08L618.81,114L623.68,112.13L628.55,115.36L633.42,116.72L638.3,115.36L643.17,115.7L648.04,116.55L652.91,118.93L657.79,119.95L662.66,118.08L667.53,120.8L672.4,116.72L682.15,118.42L687.02,120.12L691.89,107.03L696.77,109.75L701.64,108.9L706.51,110.6L711.38,115.53L716.26,112.81L721.13,109.75L726,113.15" style="vector-effect: none; fill: none; stroke: rgb(165, 42, 42); stroke-opacity: 1; stroke-width: 2px; opacity: 1;"/></g><g class="points"/><g class="text"/></g><g class="trace scatter trace615223" style="stroke-miterlimit: 2; opacity: 1;"><g class="fills"/><g class="errorbars"/><g class="lines"><path class="js-line" d="M0,376.2L4.87,278.77L9.74,263.46L19.49,208.71L24.36,203.1L29.23,206.67L34.11,193.41L38.98,185.76L43.85,173.68L48.72,164.84L53.6,163.82L58.47,161.1L63.34,171.98L68.21,166.54L73.09,168.41L77.96,161.44L82.83,160.93L87.7,172.49L92.58,169.94L97.45,162.97L102.32,166.03L107.19,171.98L112.07,167.73L116.94,155.66L121.81,162.63L126.68,170.28L131.56,162.29L136.43,163.31L141.3,146.99L146.17,146.14L151.05,146.14L155.92,142.91L160.79,148.01L165.66,148.86L170.54,151.24L175.41,150.56L180.28,159.91L185.15,163.65L190.03,162.8L194.9,152.6L199.77,163.99L204.64,158.72L209.52,159.74L219.26,154.13L224.13,150.22L229.01,146.82L233.88,155.66L238.75,156.51L243.62,153.96L248.5,148.52L253.37,148.86L258.24,149.37L263.11,153.79L267.99,153.62L272.86,135.94L277.73,129.81L282.6,136.62L287.48,143.59L292.35,132.37L297.22,131.18L302.09,144.1L306.97,140.53L311.84,145.8L316.71,145.63L321.58,137.47L326.46,143.42L331.33,143.08L336.2,140.19L341.07,146.31L345.95,139.17L350.82,136.28L355.69,140.02L360.56,130.49L365.44,134.24L370.31,140.53L375.18,143.42L380.05,148.18L384.93,154.47L389.8,154.98L394.67,147.5L399.54,144.27L409.29,138.49L414.16,135.26L419.03,137.81L423.91,134.75L428.78,144.1L433.65,145.63L438.52,141.72L443.4,145.29L448.27,153.28L453.14,148.52L458.01,151.75L462.89,144.1L467.76,143.76L472.63,135.77L477.5,137.3L482.38,134.07L487.25,135.77L492.12,146.99L496.99,141.55L501.87,145.8L506.74,140.36L511.61,141.89L516.48,143.08L521.36,139.85L526.23,137.64L531.1,137.3L535.97,129.81L540.85,134.92L545.72,145.29L550.59,145.97L555.46,145.97L560.34,146.99L570.08,135.09L574.95,136.79L579.83,133.56L584.7,137.47L589.57,134.07L594.44,141.04L604.19,146.31L609.06,144.78L613.93,149.2L618.81,138.15L623.68,146.14L628.55,143.08L633.42,143.76L638.3,140.53L643.17,141.04L648.04,144.44L652.91,141.21L657.79,147.16L662.66,136.28L667.53,140.87L672.4,136.45L677.28,135.94L682.15,143.93L687.02,140.36L691.89,131.86L696.77,125.22L701.64,121.31L706.51,123.86L711.38,134.92L716.26,134.58L721.13,127.26L726,133.73" style="vector-effect: none; fill: none; stroke: rgb(128, 128, 128); stroke-opacity: 1; stroke-width: 2px; opacity: 1;"/></g><g class="points"/><g class="text"/></g></g></g><g class="overplot"/><path class="xlines-above crisp" d="M0,0" style="fill: none;"/><path class="ylines-above crisp" d="M0,0" style="fill: none;"/><g class="overlines-above"/><g class="xaxislayer-above"><g class="xtick"><text text-anchor="middle" x="0" y="509" transform="translate(235.57999999999998,0)" style="font-family: 'Open Sans', verdana, arial, sans-serif; font-size: 12px; fill: rgb(42, 63, 95); fill-opacity: 1; white-space: pre; opacity: 1;">20</text></g><g class="xtick"><text text-anchor="middle" x="0" y="509" style="font-family: 'Open Sans', verdana, arial, sans-serif; font-size: 12px; fill: rgb(42, 63, 95); fill-opacity: 1; white-space: pre; opacity: 1;" transform="translate(333.03,0)">40</text></g><g class="xtick"><text text-anchor="middle" x="0" y="509" style="font-family: 'Open Sans', verdana, arial, sans-serif; font-size: 12px; fill: rgb(42, 63, 95); fill-opacity: 1; white-space: pre; opacity: 1;" transform="translate(430.48,0)">60</text></g><g class="xtick"><text text-anchor="middle" x="0" y="509" style="font-family: 'Open Sans', verdana, arial, sans-serif; font-size: 12px; fill: rgb(42, 63, 95); fill-opacity: 1; white-space: pre; opacity: 1;" transform="translate(527.9300000000001,0)">80</text></g><g class="xtick"><text text-anchor="middle" x="0" y="509" style="font-family: 'Open Sans', verdana, arial, sans-serif; font-size: 12px; fill: rgb(42, 63, 95); fill-opacity: 1; white-space: pre; opacity: 1;" transform="translate(625.38,0)">100</text></g><g class="xtick"><text text-anchor="middle" x="0" y="509" style="font-family: 'Open Sans', verdana, arial, sans-serif; font-size: 12px; fill: rgb(42, 63, 95); fill-opacity: 1; white-space: pre; opacity: 1;" transform="translate(722.83,0)">120</text></g><g class="xtick"><text text-anchor="middle" x="0" y="509" style="font-family: 'Open Sans', verdana, arial, sans-serif; font-size: 12px; fill: rgb(42, 63, 95); fill-opacity: 1; white-space: pre; opacity: 1;" transform="translate(820.28,0)">140</text></g></g><g class="yaxislayer-above"><g class="ytick"><text text-anchor="end" x="142" y="4.199999999999999" transform="translate(0,462.94)" style="font-family: 'Open Sans', verdana, arial, sans-serif; font-size: 12px; fill: rgb(42, 63, 95); fill-opacity: 1; white-space: pre; opacity: 1;">55</text></g><g class="ytick"><text text-anchor="end" x="142" y="4.199999999999999" style="font-family: 'Open Sans', verdana, arial, sans-serif; font-size: 12px; fill: rgb(42, 63, 95); fill-opacity: 1; white-space: pre; opacity: 1;" transform="translate(0,377.92)">60</text></g><g class="ytick"><text text-anchor="end" x="142" y="4.199999999999999" style="font-family: 'Open Sans', verdana, arial, sans-serif; font-size: 12px; fill: rgb(42, 63, 95); fill-opacity: 1; white-space: pre; opacity: 1;" transform="translate(0,292.9)">65</text></g><g class="ytick"><text text-anchor="end" x="142" y="4.199999999999999" style="font-family: 'Open Sans', verdana, arial, sans-serif; font-size: 12px; fill: rgb(42, 63, 95); fill-opacity: 1; white-space: pre; opacity: 1;" transform="translate(0,207.88)">70</text></g><g class="ytick"><text text-anchor="end" x="142" y="4.199999999999999" style="font-family: 'Open Sans', verdana, arial, sans-serif; font-size: 12px; fill: rgb(42, 63, 95); fill-opacity: 1; white-space: pre; opacity: 1;" transform="translate(0,122.86)">75</text></g></g><g class="overaxes-above"/></g></g><g class="polarlayer"/><g class="smithlayer"/><g class="ternarylayer"/><g class="geolayer"/><g class="funnelarealayer"/><g class="pielayer"/><g class="iciclelayer"/><g class="treemaplayer"/><g class="sunburstlayer"/><g class="glimages"/><defs id="topdefs-95eaff"><g class="clips"/><clipPath id="legend95eaff"><rect width="128" height="162" x="0" y="0"/></clipPath></defs><g class="layer-above"><g class="imagelayer"/><g class="shapelayer"/></g><g class="infolayer"><g class="legend" pointer-events="all" transform="translate(883.52,100)"><rect class="bg" shape-rendering="crispEdges" width="128" height="162" x="0" y="0" style="stroke: rgb(68, 68, 68); stroke-opacity: 1; fill: rgb(255, 255, 255); fill-opacity: 1; stroke-width: 0px;"/><g class="scrollbox" transform="" clip-path="url(#legend95eaff)"><g class="groups"><g class="traces" transform="translate(0,14.5)" style="opacity: 1;"><text class="legendtext" text-anchor="start" x="40" y="4.680000000000001" style="font-family: 'Open Sans', verdana, arial, sans-serif; font-size: 12px; fill: rgb(42, 63, 95); fill-opacity: 1; white-space: pre;">Train Accuracy</text><g class="layers" style="opacity: 1;"><g class="legendfill"/><g class="legendlines"><path class="js-line" d="M5,0h30" style="fill: none; stroke: rgb(255, 0, 0); stroke-opacity: 1; stroke-width: 2px;"/></g><g class="legendsymbols"><g class="legendpoints"/></g></g><rect class="legendtoggle" x="0" y="-9.5" width="122.71875" height="19" style="fill: rgb(0, 0, 0); fill-opacity: 0;"/></g><g class="traces" transform="translate(0,33.5)" style="opacity: 1;"><text class="legendtext" text-anchor="start" x="40" y="4.680000000000001" style="font-family: 'Open Sans', verdana, arial, sans-serif; font-size: 12px; fill: rgb(42, 63, 95); fill-opacity: 1; white-space: pre;">Test Accuracy</text><g class="layers" style="opacity: 1;"><g class="legendfill"/><g class="legendlines"><path class="js-line" d="M5,0h30" style="fill: none; stroke: rgb(0, 0, 255); stroke-opacity: 1; stroke-width: 2px;"/></g><g class="legendsymbols"><g class="legendpoints"/></g></g><rect class="legendtoggle" x="0" y="-9.5" width="122.71875" height="19" style="fill: rgb(0, 0, 0); fill-opacity: 0;"/></g><g class="traces" transform="translate(0,52.5)" style="opacity: 1;"><text class="legendtext" text-anchor="start" x="40" y="4.680000000000001" style="font-family: 'Open Sans', verdana, arial, sans-serif; font-size: 12px; fill: rgb(42, 63, 95); fill-opacity: 1; white-space: pre;">Train Precision</text><g class="layers" style="opacity: 1;"><g class="legendfill"/><g class="legendlines"><path class="js-line" d="M5,0h30" style="fill: none; stroke: rgb(0, 128, 0); stroke-opacity: 1; stroke-width: 2px;"/></g><g class="legendsymbols"><g class="legendpoints"/></g></g><rect class="legendtoggle" x="0" y="-9.5" width="122.71875" height="19" style="fill: rgb(0, 0, 0); fill-opacity: 0;"/></g><g class="traces" transform="translate(0,71.5)" style="opacity: 1;"><text class="legendtext" text-anchor="start" x="40" y="4.680000000000001" style="font-family: 'Open Sans', verdana, arial, sans-serif; font-size: 12px; fill: rgb(42, 63, 95); fill-opacity: 1; white-space: pre;">Test Precision</text><g class="layers" style="opacity: 1;"><g class="legendfill"/><g class="legendlines"><path class="js-line" d="M5,0h30" style="fill: none; stroke: rgb(255, 165, 0); stroke-opacity: 1; stroke-width: 2px;"/></g><g class="legendsymbols"><g class="legendpoints"/></g></g><rect class="legendtoggle" x="0" y="-9.5" width="122.71875" height="19" style="fill: rgb(0, 0, 0); fill-opacity: 0;"/></g><g class="traces" transform="translate(0,90.5)" style="opacity: 1;"><text class="legendtext" text-anchor="start" x="40" y="4.680000000000001" style="font-family: 'Open Sans', verdana, arial, sans-serif; font-size: 12px; fill: rgb(42, 63, 95); fill-opacity: 1; white-space: pre;">Train Recall</text><g class="layers" style="opacity: 1;"><g class="legendfill"/><g class="legendlines"><path class="js-line" d="M5,0h30" style="fill: none; stroke: rgb(128, 0, 128); stroke-opacity: 1; stroke-width: 2px;"/></g><g class="legendsymbols"><g class="legendpoints"/></g></g><rect class="legendtoggle" x="0" y="-9.5" width="122.71875" height="19" style="fill: rgb(0, 0, 0); fill-opacity: 0;"/></g><g class="traces" transform="translate(0,109.5)" style="opacity: 1;"><text class="legendtext" text-anchor="start" x="40" y="4.680000000000001" style="font-family: 'Open Sans', verdana, arial, sans-serif; font-size: 12px; fill: rgb(42, 63, 95); fill-opacity: 1; white-space: pre;">Test Recall</text><g class="layers" style="opacity: 1;"><g class="legendfill"/><g class="legendlines"><path class="js-line" d="M5,0h30" style="fill: none; stroke: rgb(255, 192, 203); stroke-opacity: 1; stroke-width: 2px;"/></g><g class="legendsymbols"><g class="legendpoints"/></g></g><rect class="legendtoggle" x="0" y="-9.5" width="122.71875" height="19" style="fill: rgb(0, 0, 0); fill-opacity: 0;"/></g><g class="traces" transform="translate(0,128.5)" style="opacity: 1;"><text class="legendtext" text-anchor="start" x="40" y="4.680000000000001" style="font-family: 'Open Sans', verdana, arial, sans-serif; font-size: 12px; fill: rgb(42, 63, 95); fill-opacity: 1; white-space: pre;">Train F1</text><g class="layers" style="opacity: 1;"><g class="legendfill"/><g class="legendlines"><path class="js-line" d="M5,0h30" style="fill: none; stroke: rgb(165, 42, 42); stroke-opacity: 1; stroke-width: 2px;"/></g><g class="legendsymbols"><g class="legendpoints"/></g></g><rect class="legendtoggle" x="0" y="-9.5" width="122.71875" height="19" style="fill: rgb(0, 0, 0); fill-opacity: 0;"/></g><g class="traces" transform="translate(0,147.5)" style="opacity: 1;"><text class="legendtext" text-anchor="start" x="40" y="4.680000000000001" style="font-family: 'Open Sans', verdana, arial, sans-serif; font-size: 12px; fill: rgb(42, 63, 95); fill-opacity: 1; white-space: pre;">Test F1</text><g class="layers" style="opacity: 1;"><g class="legendfill"/><g class="legendlines"><path class="js-line" d="M5,0h30" style="fill: none; stroke: rgb(128, 128, 128); stroke-opacity: 1; stroke-width: 2px;"/></g><g class="legendsymbols"><g class="legendpoints"/></g></g><rect class="legendtoggle" x="0" y="-9.5" width="122.71875" height="19" style="fill: rgb(0, 0, 0); fill-opacity: 0;"/></g></g></g><rect class="scrollbar" rx="20" ry="3" width="0" height="0" x="0" y="0" style="fill: rgb(128, 139, 164); fill-opacity: 1;"/></g><g class="g-gtitle"><text class="gtitle" x="51.2" y="50" text-anchor="start" dy="0em" style="font-family: 'Open Sans', verdana, arial, sans-serif; font-size: 17px; fill: rgb(42, 63, 95); opacity: 1; font-weight: normal; white-space: pre;">Training Metrics - logs/FakeNewsNet-gossipcop_max-vocab=15000_pre=v2_text_T=150_s=15.log</text></g><g class="g-xtitle"><text class="xtitle" x="506" y="537.3" text-anchor="middle" style="font-family: 'Open Sans', verdana, arial, sans-serif; font-size: 14px; fill: rgb(42, 63, 95); opacity: 1; font-weight: normal; white-space: pre;">Epoch</text></g><g class="g-ytitle"><text class="ytitle" transform="rotate(-90,103.965625,298)" x="103.965625" y="298" text-anchor="middle" style="font-family: 'Open Sans', verdana, arial, sans-serif; font-size: 14px; fill: rgb(42, 63, 95); opacity: 1; font-weight: normal; white-space: pre;">Metric Score</text></g></g><g class="menulayer"><g class="updatemenu-container" style="cursor: pointer;"><g class="updatemenu-header-group" transform="translate(12,60)"><g class="updatemenu-header" transform="translate(1,1)" style="pointer-events: all;"><rect class="updatemenu-item-rect" rx="2" ry="2" shape-rendering="crispEdges" x="0" y="0" width="167" height="33" style="stroke: rgb(190, 200, 217); stroke-opacity: 1; fill: rgb(255, 255, 255); fill-opacity: 1; stroke-width: 1px;"/><text class="updatemenu-item-text" text-anchor="start" data-notex="1" x="12" y="19.5" style="font-family: 'Open Sans', verdana, arial, sans-serif; font-size: 12px; fill: rgb(42, 63, 95); fill-opacity: 1; white-space: pre;">All</text></g><text class="updatemenu-header-arrow" text-anchor="end" x="163" y="19.5" style="font-family: 'Open Sans', verdana, arial, sans-serif; font-size: 12px; fill: rgb(42, 63, 95); fill-opacity: 1;">▼</text></g><g class="updatemenu-dropdown-button-group" updatemenu-active-index="-1" style="pointer-events: all;"><rect class="scrollbox-bg" opacity="0" x="0" y="0" width="0" height="0" style="pointer-events: all;"/></g></g></g></svg>