<svg class="main-svg" xmlns="http://www.w3.org/2000/svg" xmlns:xlink="http://www.w3.org/1999/xlink" width="1024" height="576" style="" viewBox="0 0 1024 576"><rect x="0" y="0" width="1024" height="576" style="fill: rgb(255, 255, 255); fill-opacity: 1;"/><defs id="defs-c14768"><g class="clips"><clipPath id="clipc14768xyplot" class="plotclip"><rect width="729" height="396"/></clipPath><clipPath class="axesclip" id="clipc14768x"><rect x="140" y="0" width="729" height="576"/></clipPath><clipPath class="axesclip" id="clipc14768y"><rect x="0" y="100" width="1024" height="396"/></clipPath><clipPath class="axesclip" id="clipc14768xy"><rect x="140" y="100" width="729" height="396"/></clipPath></g><g class="gradients"/><g class="patterns"/></defs><g class="bglayer"><rect class="bg" x="140" y="100" width="729" height="396" style="fill: rgb(229, 236, 246); fill-opacity: 1; stroke-width: 0;"/></g><g class="layer-below"><g class="imagelayer"/><g class="shapelayer"/></g><g class="cartesianlayer"><g class="subplot xy"><g class="layer-subplot"><g class="shapelayer"/><g class="imagelayer"/></g><g class="minor-gridlayer"><g class="x"/><g class="y"/></g><g class="gridlayer"><g class="x"><path class="xgrid crisp" transform="translate(206.26999999999998,0)" d="M0,100v396" style="stroke: rgb(255, 255, 255); stroke-opacity: 1; stroke-width: 1px;"/><path class="xgrid crisp" transform="translate(279.90999999999997,0)" d="M0,100v396" style="stroke: rgb(255, 255, 255); stroke-opacity: 1; stroke-width: 1px;"/><path class="xgrid crisp" transform="translate(353.55,0)" d="M0,100v396" style="stroke: rgb(255, 255, 255); stroke-opacity: 1; stroke-width: 1px;"/><path class="xgrid crisp" transform="translate(427.18,0)" d="M0,100v396" style="stroke: rgb(255, 255, 255); stroke-opacity: 1; stroke-width: 1px;"/><path class="xgrid crisp" transform="translate(500.82,0)" d="M0,100v396" style="stroke: rgb(255, 255, 255); stroke-opacity: 1; stroke-width: 1px;"/><path class="xgrid crisp" transform="translate(574.45,0)" d="M0,100v396" style="stroke: rgb(255, 255, 255); stroke-opacity: 1; stroke-width: 1px;"/><path class="xgrid crisp" transform="translate(648.0899999999999,0)" d="M0,100v396" style="stroke: rgb(255, 255, 255); stroke-opacity: 1; stroke-width: 1px;"/><path class="xgrid crisp" transform="translate(721.73,0)" d="M0,100v396" style="stroke: rgb(255, 255, 255); stroke-opacity: 1; stroke-width: 1px;"/><path class="xgrid crisp" transform="translate(795.36,0)" d="M0,100v396" style="stroke: rgb(255, 255, 255); stroke-opacity: 1; stroke-width: 1px;"/></g><g class="y"><path class="ygrid crisp" transform="translate(0,427.32)" d="M140,0h729" style="stroke: rgb(255, 255, 255); stroke-opacity: 1; stroke-width: 1px;"/><path class="ygrid crisp" transform="translate(0,341.56)" d="M140,0h729" style="stroke: rgb(255, 255, 255); stroke-opacity: 1; stroke-width: 1px;"/><path class="ygrid crisp" transform="translate(0,255.81)" d="M140,0h729" style="stroke: rgb(255, 255, 255); stroke-opacity: 1; stroke-width: 1px;"/><path class="ygrid crisp" transform="translate(0,170.05)" d="M140,0h729" style="stroke: rgb(255, 255, 255); stroke-opacity: 1; stroke-width: 1px;"/></g></g><g class="zerolinelayer"/><path class="xlines-below"/><path class="ylines-below"/><g class="overlines-below"/><g class="xaxislayer-below"/><g class="yaxislayer-below"/><g class="overaxes-below"/><g class="plot" transform="translate(140,100)" clip-path="url(#clipc14768xyplot)"><g class="scatterlayer mlayer"><g class="trace scatter trace77bd2a" style="stroke-miterlimit: 2; opacity: 1;"><g class="fills"/><g class="errorbars"/><g class="lines"><path class="js-line" d="M0,19.8L7.36,171.59L14.73,147.58L22.09,143.12L29.45,127.17L36.82,129.74L44.18,131.45L51.55,112.07L58.91,115.33L66.27,100.75L73.64,103.67L81,100.92L88.36,105.04L95.73,108.81L103.09,144.83L110.45,141.06L117.82,119.28L125.18,119.28L132.55,120.99L139.91,116.88L147.27,116.53L154.64,107.96L162,111.04L169.36,101.78L176.73,122.02L184.09,117.9L191.45,131.8L198.82,125.97L206.18,126.48L213.55,120.65L220.91,117.22L228.27,85.15L235.64,84.63L250.36,82.06L257.73,83.77L265.09,84.12L272.45,83.43L279.82,217.9L287.18,93.55L294.55,99.38L301.91,95.44L309.27,95.78L316.64,89.95L324,95.44L331.36,95.26L338.73,87.38L346.09,118.59L353.45,112.24L360.82,109.67L368.18,125.28L375.55,125.28L382.91,124.42L390.27,116.19L397.64,111.73L405,116.7L412.36,91.32L419.73,90.46L427.09,87.2L434.45,115.33L441.82,117.9L449.18,94.06L456.55,88.58L463.91,91.32L471.27,81.03L478.64,83.26L486,114.82L493.36,111.04L500.73,86.17L508.09,88.92L515.45,86.69L522.82,88.06L530.18,87.2L537.55,84.12L544.91,110.87L552.27,100.58L559.64,101.61L567,105.56L574.36,110.53L581.73,107.96L589.09,114.13L596.45,110.7L603.82,106.07L611.18,322L618.55,322.52L625.91,90.63L633.27,96.29L640.64,93.89L648,110.7L655.36,108.13L662.73,105.73L670.09,106.58L677.45,110.01L684.82,105.38L692.18,102.13L699.55,105.38L706.91,106.58L714.27,108.81L721.64,111.04L729,108.64" style="vector-effect: none; fill: none; stroke: rgb(255, 0, 0); stroke-opacity: 1; stroke-width: 2px; opacity: 1;"/></g><g class="points"/><g class="text"/></g><g class="trace scatter traceca778b" style="stroke-miterlimit: 2; opacity: 1;"><g class="fills"/><g class="errorbars"/><g class="lines"><path class="js-line" d="M0,21.69L7.36,191.65L14.73,178.96L22.09,177.76L29.45,156.84L36.82,151.35L44.18,147.06L51.55,125.11L58.91,136.26L66.27,116.19L73.64,114.13L88.36,114.13L95.73,122.02L103.09,162.15L110.45,151.86L117.82,128.19L125.18,132.83L132.55,130.94L139.91,137.8L147.27,134.03L154.64,135.57L162,138.14L169.36,131.63L176.73,154.09L184.09,148.26L191.45,160.27L198.82,150.15L206.18,151.01L213.55,139.34L220.91,141.74L228.27,107.61L243,103.67L250.36,99.55L257.73,95.95L265.09,98.01L272.45,95.95L279.82,244.31L287.18,111.04L294.55,127.34L309.27,121.51L316.64,106.07L324,114.13L331.36,110.7L338.73,105.73L346.09,149.81L353.45,140.54L360.82,137.11L368.18,152.21L375.55,162.15L390.27,147.92L397.64,145.52L405,153.75L412.36,117.73L419.73,109.16L427.09,107.96L434.45,142.94L441.82,146.03L449.18,117.73L456.55,102.98L463.91,108.47L471.27,99.9L478.64,103.33L486,147.58L493.36,146.72L500.73,111.56L508.09,118.08L515.45,109.5L522.82,106.07L530.18,113.79L537.55,108.81L544.91,138.66L552.27,134.37L559.64,137.8L567,136.6L574.36,144.83L581.73,136.26L589.09,143.63L596.45,136.26L603.82,130.42L611.18,355.45L618.55,356.65L625.91,116.19L633.27,121.16L640.64,120.82L648,140.54L655.36,132.48L662.73,129.4L670.09,137.46L677.45,142.94L684.82,129.74L692.18,123.56L699.55,130.94L706.91,135.06L714.27,139.86L721.64,142.09L729,138.66" style="vector-effect: none; fill: none; stroke: rgb(0, 0, 255); stroke-opacity: 1; stroke-width: 2px; opacity: 1;"/></g><g class="points"/><g class="text"/></g><g class="trace scatter trace8ab517" style="stroke-miterlimit: 2; opacity: 1;"><g class="fills"/><g class="errorbars"/><g class="lines"><path class="js-line" d="M0,163.35L7.36,229.73L14.73,217.38L22.09,212.92L29.45,203.32L44.18,213.09L51.55,200.92L58.91,197.83L66.27,188.22L73.64,192L81,187.71L88.36,188.22L95.73,190.28L103.09,204.35L110.45,202.29L117.82,195.94L125.18,195.08L132.55,197.14L139.91,194.06L154.64,184.79L162,188.22L169.36,181.88L176.73,185.14L184.09,183.76L191.45,188.05L198.82,183.25L206.18,183.25L213.55,185.31L220.91,183.25L228.27,171.76L235.64,173.3L243,173.13L250.36,173.82L257.73,174.33L265.09,173.82L272.45,172.96L279.82,230.93L287.18,174.85L294.55,177.42L301.91,174.5L309.27,175.02L316.64,174.16L324,174.67L331.36,175.02L338.73,172.1L346.09,180.51L353.45,179.31L360.82,177.42L368.18,184.97L382.91,183.08L390.27,179.65L397.64,177.93L405,178.1L412.36,168.33L419.73,168.84L427.09,166.44L434.45,176.73L441.82,178.45L449.18,170.9L456.55,170.39L463.91,171.93L471.27,164.38L478.64,165.41L486,179.48L493.36,177.08L500.73,166.61L508.09,167.47L515.45,166.61L522.82,168.5L537.55,167.13L544.91,178.28L552.27,171.59L559.64,173.3L567,175.53L574.36,178.62L581.73,176.9L589.09,179.13L603.82,173.65L611.18,247.05L618.55,247.4L625.91,170.73L633.27,170.9L640.64,168.16L648,174.33L655.36,173.99L677.45,174.85L684.82,174.33L692.18,173.3L699.55,173.47L706.91,173.13L714.27,175.7L721.64,177.42L729,176.56" style="vector-effect: none; fill: none; stroke: rgb(0, 128, 0); stroke-opacity: 1; stroke-width: 2px; opacity: 1;"/></g><g class="points"/><g class="text"/></g><g class="trace scatter trace1482cf" style="stroke-miterlimit: 2; opacity: 1;"><g class="fills"/><g class="errorbars"/><g class="lines"><path class="js-line" d="M0,163.18L7.36,246.54L14.73,243.28L22.09,240.19L29.45,226.3L36.82,225.61L44.18,225.96L51.55,212.41L58.91,214.64L66.27,200.23L73.64,199.54L81,196.28L88.36,194.74L95.73,198L103.09,213.95L110.45,210.18L117.82,200.57L125.18,204L132.55,202.29L139.91,207.43L147.27,203.83L154.64,204.52L162,210.35L169.36,204.86L176.73,210.18L184.09,207.09L191.45,207.6L198.82,200.4L206.18,201.26L213.55,199.72L220.91,202.12L228.27,189.6L235.64,190.63L243,188.05L250.36,188.05L257.73,184.11L265.09,184.62L272.45,182.56L279.82,245.51L287.18,189.25L294.55,199.03L301.91,195.43L309.27,193.88L316.64,185.31L324,187.88L331.36,186.17L338.73,186.51L346.09,201.26L353.45,201.43L360.82,198.34L368.18,203.66L375.55,211.55L382.91,206.06L390.27,201.43L397.64,203.15L405,203.15L412.36,187.88L419.73,183.94L427.09,182.74L434.45,195.6L441.82,195.94L449.18,187.37L456.55,181.71L463.91,183.76L471.27,179.13L478.64,181.02L486,202.29L493.36,203.83L500.73,185.82L508.09,187.19L515.45,183.08L522.82,182.22L530.18,186.68L537.55,184.45L544.91,198.69L552.27,198.69L559.64,200.4L567,200.74L574.36,205.89L581.73,198.51L589.09,201.6L596.45,195.26L603.82,193.03L611.18,260.94L618.55,262.49L625.91,189.77L633.27,191.14L640.64,190.63L648,198.86L655.36,195.26L662.73,194.57L677.45,202.8L684.82,194.91L692.18,190.11L699.55,193.03L721.64,200.06L729,199.37" style="vector-effect: none; fill: none; stroke: rgb(255, 165, 0); stroke-opacity: 1; stroke-width: 2px; opacity: 1;"/></g><g class="points"/><g class="text"/></g><g class="trace scatter traceb7eb55" style="stroke-miterlimit: 2; opacity: 1;"><g class="fills"/><g class="errorbars"/><g class="lines"><path class="js-line" d="M0,178.96L7.36,137.8L14.73,125.45L22.09,119.45L29.45,110.01L36.82,116.7L44.18,125.11L51.55,113.62L58.91,106.07L66.27,96.98L73.64,102.3L81,95.78L88.36,94.24L95.73,95.78L103.09,104.35L117.82,100.24L125.18,99.04L132.55,101.78L139.91,98.35L147.27,90.63L154.64,86.17L162,90.81L169.36,84.12L176.73,80.17L184.09,79.49L191.45,81.72L198.82,75.54L206.18,75.54L213.55,80.86L220.91,78.8L228.27,75.71L235.64,79.14L243,79.83L250.36,82.06L257.73,81.72L272.45,79.31L279.82,132.31L287.18,76.06L294.55,77.26L301.91,74L309.27,74.86L316.64,76.91L324,74.51L331.36,75.2L338.73,74.68L346.09,73.65L353.45,74.17L360.82,71.94L368.18,78.8L382.91,75.71L390.27,72.97L405,70.22L412.36,65.08L419.73,66.62L427.09,64.05L434.45,68.34L441.82,70.4L449.18,68.17L456.55,70.4L463.91,71.77L471.27,64.22L478.64,64.56L486,73.48L493.36,70.91L500.73,64.91L515.45,64.56L522.82,67.31L530.18,66.28L537.55,67.31L544.91,72.97L552.27,65.94L574.36,73.65L581.73,71.94L589.09,72.97L596.45,69.54L603.82,66.97L611.18,162.33L618.55,162.84L625.91,70.05L633.27,67.14L640.64,63.19L648,66.11L655.36,66.62L662.73,68.68L670.09,68.17L677.45,67.31L684.82,68.34L699.55,66.97L706.91,65.76L714.27,69.2L721.64,71.42L729,70.91" style="vector-effect: none; fill: none; stroke: rgb(128, 0, 128); stroke-opacity: 1; stroke-width: 2px; opacity: 1;"/></g><g class="points"/><g class="text"/></g><g class="trace scatter tracef56a4b" style="stroke-miterlimit: 2; opacity: 1;"><g class="fills"/><g class="errorbars"/><g class="lines"><path class="js-line" d="M0,171.07L7.36,160.1L14.73,158.38L22.09,153.75L29.45,137.8L36.82,138.66L44.18,141.23L51.55,128.37L58.91,126.48L66.27,111.04L73.64,110.87L81,105.04L88.36,101.95L95.73,103.84L103.09,115.5L110.45,112.59L117.82,105.21L125.18,109.33L132.55,106.93L139.91,113.27L147.27,108.47L154.64,108.99L162,117.9L169.36,111.39L176.73,111.9L191.45,106.07L198.82,97.15L213.55,99.38L220.91,102.64L228.27,95.95L235.64,99.38L243,95.61L250.36,98.35L257.73,93.38L265.09,92.86L272.45,89.95L279.82,152.72L287.18,93.38L294.55,102.98L301.91,98.01L309.27,96.47L316.64,88.92L324,89.43L331.36,88.23L338.73,91.49L346.09,98.7L353.45,101.78L360.82,97.84L368.18,101.78L375.55,111.73L382.91,104.87L390.27,99.55L397.64,102.98L405,100.58L412.36,87.89L419.73,84.97L427.09,83.09L434.45,91.32L441.82,91.15L449.18,86.69L456.55,84.12L463.91,84.97L471.27,81.03L478.64,82.74L486,100.92L493.36,103.67L500.73,87.03L508.09,86.52L515.45,83.09L522.82,83.43L530.18,87.55L537.55,85.83L544.91,97.84L567,101.95L574.36,107.96L581.73,98.52L589.09,101.1L596.45,93.04L603.82,91.32L611.18,185.82L618.55,187.71L625.91,91.83L633.27,91.83L640.64,90.98L648,97.49L655.36,94.24L662.73,94.41L670.09,98.18L677.45,103.33L684.82,94.75L692.18,88.92L699.55,90.98L706.91,93.89L721.64,99.04L729,98.87" style="vector-effect: none; fill: none; stroke: rgb(255, 192, 203); stroke-opacity: 1; stroke-width: 2px; opacity: 1;"/></g><g class="points"/><g class="text"/></g><g class="trace scatter tracef13053" style="stroke-miterlimit: 2; opacity: 1;"><g class="fills"/><g class="errorbars"/><g class="lines"><path class="js-line" d="M0,171.76L7.36,236.93L14.73,217.38L22.09,212.24L29.45,198.69L44.18,207.09L51.55,190.63L58.91,189.77L66.27,176.9L73.64,180.85L81,176.56L88.36,178.62L95.73,181.71L103.09,207.95L110.45,204.69L117.82,190.11L125.18,189.6L132.55,191.65L139.91,187.71L147.27,184.79L154.64,177.59L162,181.19L169.36,172.79L176.73,184.62L184.09,181.71L191.45,191.65L198.82,185.65L206.18,185.99L213.55,184.11L220.91,181.02L228.27,158.9L235.64,159.75L243,159.24L250.36,159.24L257.73,160.27L265.09,160.1L272.45,159.07L279.82,264.89L287.18,164.38L294.55,168.67L301.91,164.9L309.27,165.58L316.64,162.5L324,165.24L331.36,165.24L338.73,159.92L346.09,180.16L353.45,176.05L360.82,173.65L368.18,186.34L375.55,185.65L382.91,184.62L390.27,178.28L397.64,175.02L405,177.76L412.36,158.9L419.73,159.07L427.09,155.81L434.45,176.22L441.82,178.62L449.18,161.98L456.55,159.24L463.91,161.3L471.27,151.86L478.64,153.41L486,177.59L493.36,174.16L500.73,155.64L508.09,157.18L515.45,155.81L522.82,157.69L537.55,154.95L544.91,174.85L552.27,165.41L559.64,167.13L567,170.39L574.36,174.85L581.73,172.44L589.09,176.9L603.82,169.53L611.18,345.5L618.55,346.01L625.91,160.27L633.27,163.01L640.64,160.1L648,172.44L655.36,170.9L662.73,169.87L670.09,170.39L677.45,172.27L684.82,169.53L692.18,167.3L699.55,169.01L706.91,169.53L714.27,172.1L721.64,174.5L729,172.62" style="vector-effect: none; fill: none; stroke: rgb(165, 42, 42); stroke-opacity: 1; stroke-width: 2px; opacity: 1;"/></g><g class="points"/><g class="text"/></g><g class="trace scatter trace22667f" style="stroke-miterlimit: 2; opacity: 1;"><g class="fills"/><g class="errorbars"/><g class="lines"><path class="js-line" d="M0,167.3L7.36,257L14.73,248.6L22.09,246.19L29.45,227.16L36.82,224.24L44.18,222.7L51.55,204L58.91,210.18L66.27,191.65L73.64,190.28L81,187.88L88.36,187.02L95.73,192.51L103.09,222.7L110.45,214.81L117.82,196.97L125.18,201.6L132.55,199.37L139.91,206.23L147.27,201.94L154.64,203.15L162,208.12L169.36,201.6L176.73,216.01L184.09,211.21L191.45,218.07L198.82,208.63L206.18,209.49L213.55,202.29L220.91,204.86L228.27,180.51L235.64,180.33L250.36,176.22L257.73,172.1L265.09,173.13L272.45,170.73L279.82,288.21L287.18,181.71L294.55,195.77L301.91,192.17L309.27,189.6L316.64,176.9L324,182.39L331.36,179.65L338.73,177.59L346.09,208.81L353.45,203.83L360.82,200.23L375.55,221.33L382.91,214.47L390.27,207.78L397.64,207.43L405,212.06L412.36,184.11L419.73,177.42L427.09,176.05L434.45,201.77L441.82,203.66L449.18,183.59L456.55,173.13L463.91,176.9L471.27,169.87L478.64,172.79L486,208.12L493.36,208.46L500.73,179.65L508.09,183.76L515.45,177.08L522.82,174.85L530.18,181.36L537.55,177.42L544.91,201.09L552.27,198.86L559.64,201.77L567,201.43L574.36,208.63L581.73,199.89L589.09,205.55L596.45,198L603.82,193.54L611.18,375L618.55,376.2L625.91,184.45L633.27,187.71L640.64,187.19L648,202.29L655.36,195.94L662.73,193.88L670.09,200.57L677.45,205.89L684.82,194.23L692.18,188.22L699.55,193.71L706.91,197.49L714.27,201.43L721.64,203.83L729,201.6" style="vector-effect: none; fill: none; stroke: rgb(128, 128, 128); stroke-opacity: 1; stroke-width: 2px; opacity: 1;"/></g><g class="points"/><g class="text"/></g></g></g><g class="overplot"/><path class="xlines-above crisp" d="M0,0" style="fill: none;"/><path class="ylines-above crisp" d="M0,0" style="fill: none;"/><g class="overlines-above"/><g class="xaxislayer-above"><g class="xtick"><text text-anchor="middle" x="0" y="509" transform="translate(206.26999999999998,0)" style="font-family: 'Open Sans', verdana, arial, sans-serif; font-size: 12px; fill: rgb(42, 63, 95); fill-opacity: 1; white-space: pre; opacity: 1;">10</text></g><g class="xtick"><text text-anchor="middle" x="0" y="509" style="font-family: 'Open Sans', verdana, arial, sans-serif; font-size: 12px; fill: rgb(42, 63, 95); fill-opacity: 1; white-space: pre; opacity: 1;" transform="translate(279.90999999999997,0)">20</text></g><g class="xtick"><text text-anchor="middle" x="0" y="509" style="font-family: 'Open Sans', verdana, arial, sans-serif; font-size: 12px; fill: rgb(42, 63, 95); fill-opacity: 1; white-space: pre; opacity: 1;" transform="translate(353.55,0)">30</text></g><g class="xtick"><text text-anchor="middle" x="0" y="509" style="font-family: 'Open Sans', verdana, arial, sans-serif; font-size: 12px; fill: rgb(42, 63, 95); fill-opacity: 1; white-space: pre; opacity: 1;" transform="translate(427.18,0)">40</text></g><g class="xtick"><text text-anchor="middle" x="0" y="509" style="font-family: 'Open Sans', verdana, arial, sans-serif; font-size: 12px; fill: rgb(42, 63, 95); fill-opacity: 1; white-space: pre; opacity: 1;" transform="translate(500.82,0)">50</text></g><g class="xtick"><text text-anchor="middle" x="0" y="509" style="font-family: 'Open Sans', verdana, arial, sans-serif; font-size: 12px; fill: rgb(42, 63, 95); fill-opacity: 1; white-space: pre; opacity: 1;" transform="translate(574.45,0)">60</text></g><g class="xtick"><text text-anchor="middle" x="0" y="509" style="font-family: 'Open Sans', verdana, arial, sans-serif; font-size: 12px; fill: rgb(42, 63, 95); fill-opacity: 1; white-space: pre; opacity: 1;" transform="translate(648.0899999999999,0)">70</text></g><g class="xtick"><text text-anchor="middle" x="0" y="509" style="font-family: 'Open Sans', verdana, arial, sans-serif; font-size: 12px; fill: rgb(42, 63, 95); fill-opacity: 1; white-space: pre; opacity: 1;" transform="translate(721.73,0)">80</text></g><g class="xtick"><text text-anchor="middle" x="0" y="509" style="font-family: 'Open Sans', verdana, arial, sans-serif; font-size: 12px; fill: rgb(42, 63, 95); fill-opacity: 1; white-space: pre; opacity: 1;" transform="translate(795.36,0)">90</text></g><g class="xtick"><text text-anchor="middle" x="0" y="509" style="font-family: 'Open Sans', verdana, arial, sans-serif; font-size: 12px; fill: rgb(42, 63, 95); fill-opacity: 1; white-space: pre; opacity: 1;" transform="translate(869,0)">100</text></g></g><g class="yaxislayer-above"><g class="ytick"><text text-anchor="end" x="139" y="4.199999999999999" transform="translate(0,427.32)" style="font-family: 'Open Sans', verdana, arial, sans-serif; font-size: 12px; fill: rgb(42, 63, 95); fill-opacity: 1; white-space: pre; opacity: 1;">60</text></g><g class="ytick"><text text-anchor="end" x="139" y="4.199999999999999" style="font-family: 'Open Sans', verdana, arial, sans-serif; font-size: 12px; fill: rgb(42, 63, 95); fill-opacity: 1; white-space: pre; opacity: 1;" transform="translate(0,341.56)">65</text></g><g class="ytick"><text text-anchor="end" x="139" y="4.199999999999999" style="font-family: 'Open Sans', verdana, arial, sans-serif; font-size: 12px; fill: rgb(42, 63, 95); fill-opacity: 1; white-space: pre; opacity: 1;" transform="translate(0,255.81)">70</text></g><g class="ytick"><text text-anchor="end" x="139" y="4.199999999999999" style="font-family: 'Open Sans', verdana, arial, sans-serif; font-size: 12px; fill: rgb(42, 63, 95); fill-opacity: 1; white-space: pre; opacity: 1;" transform="translate(0,170.05)">75</text></g></g><g class="overaxes-above"/></g></g><g class="polarlayer"/><g class="smithlayer"/><g class="ternarylayer"/><g class="geolayer"/><g class="funnelarealayer"/><g class="pielayer"/><g class="iciclelayer"/><g class="treemaplayer"/><g class="sunburstlayer"/><g class="glimages"/><defs id="topdefs-c14768"><g class="clips"/><clipPath id="legendc14768"><rect width="128" height="162" x="0" y="0"/></clipPath></defs><g class="layer-above"><g class="imagelayer"/><g class="shapelayer"/></g><g class="infolayer"><g class="legend" pointer-events="all" transform="translate(883.58,100)"><rect class="bg" shape-rendering="crispEdges" width="128" height="162" x="0" y="0" style="stroke: rgb(68, 68, 68); stroke-opacity: 1; fill: rgb(255, 255, 255); fill-opacity: 1; stroke-width: 0px;"/><g class="scrollbox" transform="" clip-path="url(#legendc14768)"><g class="groups"><g class="traces" transform="translate(0,14.5)" style="opacity: 1;"><text class="legendtext" text-anchor="start" x="40" y="4.680000000000001" style="font-family: 'Open Sans', verdana, arial, sans-serif; font-size: 12px; fill: rgb(42, 63, 95); fill-opacity: 1; white-space: pre;">Train Accuracy</text><g class="layers" style="opacity: 1;"><g class="legendfill"/><g class="legendlines"><path class="js-line" d="M5,0h30" style="fill: none; stroke: rgb(255, 0, 0); stroke-opacity: 1; stroke-width: 2px;"/></g><g class="legendsymbols"><g class="legendpoints"/></g></g><rect class="legendtoggle" x="0" y="-9.5" width="122.71875" height="19" style="fill: rgb(0, 0, 0); fill-opacity: 0;"/></g><g class="traces" transform="translate(0,33.5)" style="opacity: 1;"><text class="legendtext" text-anchor="start" x="40" y="4.680000000000001" style="font-family: 'Open Sans', verdana, arial, sans-serif; font-size: 12px; fill: rgb(42, 63, 95); fill-opacity: 1; white-space: pre;">Test Accuracy</text><g class="layers" style="opacity: 1;"><g class="legendfill"/><g class="legendlines"><path class="js-line" d="M5,0h30" style="fill: none; stroke: rgb(0, 0, 255); stroke-opacity: 1; stroke-width: 2px;"/></g><g class="legendsymbols"><g class="legendpoints"/></g></g><rect class="legendtoggle" x="0" y="-9.5" width="122.71875" height="19" style="fill: rgb(0, 0, 0); fill-opacity: 0;"/></g><g class="traces" transform="translate(0,52.5)" style="opacity: 1;"><text class="legendtext" text-anchor="start" x="40" y="4.680000000000001" style="font-family: 'Open Sans', verdana, arial, sans-serif; font-size: 12px; fill: rgb(42, 63, 95); fill-opacity: 1; white-space: pre;">Train Precision</text><g class="layers" style="opacity: 1;"><g class="legendfill"/><g class="legendlines"><path class="js-line" d="M5,0h30" style="fill: none; stroke: rgb(0, 128, 0); stroke-opacity: 1; stroke-width: 2px;"/></g><g class="legendsymbols"><g class="legendpoints"/></g></g><rect class="legendtoggle" x="0" y="-9.5" width="122.71875" height="19" style="fill: rgb(0, 0, 0); fill-opacity: 0;"/></g><g class="traces" transform="translate(0,71.5)" style="opacity: 1;"><text class="legendtext" text-anchor="start" x="40" y="4.680000000000001" style="font-family: 'Open Sans', verdana, arial, sans-serif; font-size: 12px; fill: rgb(42, 63, 95); fill-opacity: 1; white-space: pre;">Test Precision</text><g class="layers" style="opacity: 1;"><g class="legendfill"/><g class="legendlines"><path class="js-line" d="M5,0h30" style="fill: none; stroke: rgb(255, 165, 0); stroke-opacity: 1; stroke-width: 2px;"/></g><g class="legendsymbols"><g class="legendpoints"/></g></g><rect class="legendtoggle" x="0" y="-9.5" width="122.71875" height="19" style="fill: rgb(0, 0, 0); fill-opacity: 0;"/></g><g class="traces" transform="translate(0,90.5)" style="opacity: 1;"><text class="legendtext" text-anchor="start" x="40" y="4.680000000000001" style="font-family: 'Open Sans', verdana, arial, sans-serif; font-size: 12px; fill: rgb(42, 63, 95); fill-opacity: 1; white-space: pre;">Train Recall</text><g class="layers" style="opacity: 1;"><g class="legendfill"/><g class="legendlines"><path class="js-line" d="M5,0h30" style="fill: none; stroke: rgb(128, 0, 128); stroke-opacity: 1; stroke-width: 2px;"/></g><g class="legendsymbols"><g class="legendpoints"/></g></g><rect class="legendtoggle" x="0" y="-9.5" width="122.71875" height="19" style="fill: rgb(0, 0, 0); fill-opacity: 0;"/></g><g class="traces" transform="translate(0,109.5)" style="opacity: 1;"><text class="legendtext" text-anchor="start" x="40" y="4.680000000000001" style="font-family: 'Open Sans', verdana, arial, sans-serif; font-size: 12px; fill: rgb(42, 63, 95); fill-opacity: 1; white-space: pre;">Test Recall</text><g class="layers" style="opacity: 1;"><g class="legendfill"/><g class="legendlines"><path class="js-line" d="M5,0h30" style="fill: none; stroke: rgb(255, 192, 203); stroke-opacity: 1; stroke-width: 2px;"/></g><g class="legendsymbols"><g class="legendpoints"/></g></g><rect class="legendtoggle" x="0" y="-9.5" width="122.71875" height="19" style="fill: rgb(0, 0, 0); fill-opacity: 0;"/></g><g class="traces" transform="translate(0,128.5)" style="opacity: 1;"><text class="legendtext" text-anchor="start" x="40" y="4.680000000000001" style="font-family: 'Open Sans', verdana, arial, sans-serif; font-size: 12px; fill: rgb(42, 63, 95); fill-opacity: 1; white-space: pre;">Train F1</text><g class="layers" style="opacity: 1;"><g class="legendfill"/><g class="legendlines"><path class="js-line" d="M5,0h30" style="fill: none; stroke: rgb(165, 42, 42); stroke-opacity: 1; stroke-width: 2px;"/></g><g class="legendsymbols"><g class="legendpoints"/></g></g><rect class="legendtoggle" x="0" y="-9.5" width="122.71875" height="19" style="fill: rgb(0, 0, 0); fill-opacity: 0;"/></g><g class="traces" transform="translate(0,147.5)" style="opacity: 1;"><text class="legendtext" text-anchor="start" x="40" y="4.680000000000001" style="font-family: 'Open Sans', verdana, arial, sans-serif; font-size: 12px; fill: rgb(42, 63, 95); fill-opacity: 1; white-space: pre;">Test F1</text><g class="layers" style="opacity: 1;"><g class="legendfill"/><g class="legendlines"><path class="js-line" d="M5,0h30" style="fill: none; stroke: rgb(128, 128, 128); stroke-opacity: 1; stroke-width: 2px;"/></g><g class="legendsymbols"><g class="legendpoints"/></g></g><rect class="legendtoggle" x="0" y="-9.5" width="122.71875" height="19" style="fill: rgb(0, 0, 0); fill-opacity: 0;"/></g></g></g><rect class="scrollbar" rx="20" ry="3" width="0" height="0" x="0" y="0" style="fill: rgb(128, 139, 164); fill-opacity: 1;"/></g><g class="g-gtitle"><text class="gtitle" x="51.2" y="50" text-anchor="start" dy="0em" style="font-family: 'Open Sans', verdana, arial, sans-serif; font-size: 17px; fill: rgb(42, 63, 95); opacity: 1; font-weight: normal; white-space: pre;">Training Metrics - logs/FakeNewsNet-gossipcop_text.log</text></g><g class="g-xtitle"><text class="xtitle" x="504.5" y="537.3" text-anchor="middle" style="font-family: 'Open Sans', verdana, arial, sans-serif; font-size: 14px; fill: rgb(42, 63, 95); opacity: 1; font-weight: normal; white-space: pre;">Epoch</text></g><g class="g-ytitle"><text class="ytitle" transform="rotate(-90,100.965625,298)" x="100.965625" y="298" text-anchor="middle" style="font-family: 'Open Sans', verdana, arial, sans-serif; font-size: 14px; fill: rgb(42, 63, 95); opacity: 1; font-weight: normal; white-space: pre;">Metric Score</text></g></g><g class="menulayer"><g class="updatemenu-container" style="cursor: pointer;"><g class="updatemenu-header-group" transform="translate(12,60)"><g class="updatemenu-header" transform="translate(1,1)" style="pointer-events: all;"><rect class="updatemenu-item-rect" rx="2" ry="2" shape-rendering="crispEdges" x="0" y="0" width="164" height="33" style="stroke: rgb(190, 200, 217); stroke-opacity: 1; fill: rgb(255, 255, 255); fill-opacity: 1; stroke-width: 1px;"/><text class="updatemenu-item-text" text-anchor="start" data-notex="1" x="12" y="19.5" style="font-family: 'Open Sans', verdana, arial, sans-serif; font-size: 12px; fill: rgb(42, 63, 95); fill-opacity: 1; white-space: pre;">All</text></g><text class="updatemenu-header-arrow" text-anchor="end" x="160" y="19.5" style="font-family: 'Open Sans', verdana, arial, sans-serif; font-size: 12px; fill: rgb(42, 63, 95); fill-opacity: 1;">▼</text></g><g class="updatemenu-dropdown-button-group" updatemenu-active-index="-1" style="pointer-events: all;"><rect class="scrollbox-bg" opacity="0" x="0" y="0" width="0" height="0" style="pointer-events: all;"/></g></g></g></svg>