<svg class="main-svg" xmlns="http://www.w3.org/2000/svg" xmlns:xlink="http://www.w3.org/1999/xlink" width="1024" height="576" style="" viewBox="0 0 1024 576"><rect x="0" y="0" width="1024" height="576" style="fill: rgb(255, 255, 255); fill-opacity: 1;"/><defs id="defs-a76622"><g class="clips"><clipPath id="clipa76622xyplot" class="plotclip"><rect width="726" height="396"/></clipPath><clipPath class="axesclip" id="clipa76622x"><rect x="143" y="0" width="726" height="576"/></clipPath><clipPath class="axesclip" id="clipa76622y"><rect x="0" y="100" width="1024" height="396"/></clipPath><clipPath class="axesclip" id="clipa76622xy"><rect x="143" y="100" width="726" height="396"/></clipPath></g><g class="gradients"/><g class="patterns"/></defs><g class="bglayer"><rect class="bg" x="143" y="100" width="726" height="396" style="fill: rgb(229, 236, 246); fill-opacity: 1; stroke-width: 0;"/></g><g class="layer-below"><g class="imagelayer"/><g class="shapelayer"/></g><g class="cartesianlayer"><g class="subplot xy"><g class="layer-subplot"><g class="shapelayer"/><g class="imagelayer"/></g><g class="minor-gridlayer"><g class="x"/><g class="y"/></g><g class="gridlayer"><g class="x"><path class="xgrid crisp" transform="translate(235.57999999999998,0)" d="M0,100v396" style="stroke: rgb(255, 255, 255); stroke-opacity: 1; stroke-width: 1px;"/><path class="xgrid crisp" transform="translate(333.03,0)" d="M0,100v396" style="stroke: rgb(255, 255, 255); stroke-opacity: 1; stroke-width: 1px;"/><path class="xgrid crisp" transform="translate(430.48,0)" d="M0,100v396" style="stroke: rgb(255, 255, 255); stroke-opacity: 1; stroke-width: 1px;"/><path class="xgrid crisp" transform="translate(527.9300000000001,0)" d="M0,100v396" style="stroke: rgb(255, 255, 255); stroke-opacity: 1; stroke-width: 1px;"/><path class="xgrid crisp" transform="translate(625.38,0)" d="M0,100v396" style="stroke: rgb(255, 255, 255); stroke-opacity: 1; stroke-width: 1px;"/><path class="xgrid crisp" transform="translate(722.83,0)" d="M0,100v396" style="stroke: rgb(255, 255, 255); stroke-opacity: 1; stroke-width: 1px;"/><path class="xgrid crisp" transform="translate(820.28,0)" d="M0,100v396" style="stroke: rgb(255, 255, 255); stroke-opacity: 1; stroke-width: 1px;"/></g><g class="y"><path class="ygrid crisp" transform="translate(0,492.27)" d="M143,0h726" style="stroke: rgb(255, 255, 255); stroke-opacity: 1; stroke-width: 1px;"/><path class="ygrid crisp" transform="translate(0,419.21)" d="M143,0h726" style="stroke: rgb(255, 255, 255); stroke-opacity: 1; stroke-width: 1px;"/><path class="ygrid crisp" transform="translate(0,346.15)" d="M143,0h726" style="stroke: rgb(255, 255, 255); stroke-opacity: 1; stroke-width: 1px;"/><path class="ygrid crisp" transform="translate(0,273.09000000000003)" d="M143,0h726" style="stroke: rgb(255, 255, 255); stroke-opacity: 1; stroke-width: 1px;"/><path class="ygrid crisp" transform="translate(0,200.01999999999998)" d="M143,0h726" style="stroke: rgb(255, 255, 255); stroke-opacity: 1; stroke-width: 1px;"/><path class="ygrid crisp" transform="translate(0,126.96000000000001)" d="M143,0h726" style="stroke: rgb(255, 255, 255); stroke-opacity: 1; stroke-width: 1px;"/></g></g><g class="zerolinelayer"/><path class="xlines-below"/><path class="ylines-below"/><g class="overlines-below"/><g class="xaxislayer-below"/><g class="yaxislayer-below"/><g class="overaxes-below"/><g class="plot" transform="translate(143,100)" clip-path="url(#clipa76622xyplot)"><g class="scatterlayer mlayer"><g class="trace scatter tracecf96a6" style="stroke-miterlimit: 2; opacity: 1;"><g class="fills"/><g class="errorbars"/><g class="lines"><path class="js-line" d="M0,341.28L4.87,226.71L9.74,165.78L19.49,65.68L24.36,50.92L29.23,52.24L34.11,50.92L38.98,70.51L43.85,71.53L48.72,47.13L53.6,41.43L58.47,60.72L63.34,49.32L68.21,49.76L73.09,48.44L77.96,85.12L82.83,87.6L87.7,75.18L92.58,81.9L97.45,99.58L102.32,56.92L107.19,51.36L112.07,51.95L116.94,56.92L121.81,55.16L126.68,49.32L131.56,49.76L136.43,65.98L141.3,64.95L146.17,68.61L151.05,44.35L155.92,32.07L160.79,51.22L165.66,38.21L170.54,40.26L175.41,31.93L180.28,35.44L185.15,40.84L190.03,49.61L194.9,46.83L199.77,45.52L204.64,93.01L209.52,103.53L214.39,105.28L219.26,102.21L224.13,67.58L229.01,64.08L233.88,44.06L238.75,41.86L243.62,39.23L248.5,49.17L253.37,72.84L258.24,47.42L263.11,47.86L267.99,67.58L272.86,57.35L277.73,37.92L282.6,38.8L287.48,37.19L292.35,19.8L297.22,49.46L302.09,56.19L306.97,85.56L311.84,86.87L316.71,82.05L321.58,60.13L326.46,42.16L331.33,43.33L336.2,54.29L341.07,51.07L345.95,55.31L350.82,55.45L355.69,53.26L360.56,65.1L365.44,60.13L370.31,24.62L375.18,32.07L380.05,55.02L384.93,53.12L389.8,47.42L394.67,48.15L399.54,49.46L404.42,53.26L409.29,54.43L414.16,61.3L419.03,88.63L423.91,45.52L428.78,55.6L433.65,55.02L438.52,51.8L443.4,42.16L448.27,47.13L453.14,95.35L458.01,42.16L462.89,41.28L472.63,45.96L477.5,45.52L482.38,49.17L487.25,44.79L492.12,44.2L496.99,48.59L501.87,51.8L506.74,48.29L511.61,39.67L516.48,40.84L521.36,41.43L526.23,45.52L531.1,40.11L535.97,44.06L540.85,37.92L545.72,43.62L555.46,48.73L560.34,67.73L565.21,56.77L570.08,55.31L574.95,59.84L579.83,57.5L584.7,56.04L589.57,55.75L594.44,58.38L599.32,47.86L604.19,46.25L609.06,46.1L613.93,40.26L618.81,39.82L623.68,68.31L628.55,48.88L633.42,46.25L638.3,35.73L643.17,36.31L648.04,38.5L652.91,47.56L657.79,46.83L662.66,42.74L667.53,41.86L672.4,50.49L677.28,49.32L687.02,50.05L691.89,56.19L696.77,49.46L701.64,54.58L706.51,27.98L711.38,49.32L716.26,56.33L721.13,52.53L726,52.68" style="vector-effect: none; fill: none; stroke: rgb(255, 0, 0); stroke-opacity: 1; stroke-width: 2px; opacity: 1;"/></g><g class="points"/><g class="text"/></g><g class="trace scatter tracee8cde5" style="stroke-miterlimit: 2; opacity: 1;"><g class="fills"/><g class="errorbars"/><g class="lines"><path class="js-line" d="M0,332.95L4.87,236.36L9.74,183.17L14.62,114.2L19.49,74.6L24.36,59.4L29.23,64.66L34.11,63.35L38.98,78.54L43.85,77.23L48.72,58.38L53.6,56.77L58.47,69.92L68.21,61.74L73.09,63.78L77.96,103.68L82.83,102.95L87.7,90.09L92.58,93.15L97.45,104.7L102.32,69.34L107.19,59.4L112.07,59.69L116.94,67L121.81,61.45L126.68,58.38L131.56,60.72L136.43,75.91L141.3,74.3L146.17,79.27L151.05,52.82L155.92,31.34L160.79,59.4L165.66,46.54L170.54,49.46L175.41,33.97L180.28,38.94L185.15,46.83L190.03,56.77L194.9,57.5L199.77,57.06L204.64,98.42L209.52,106.89L214.39,108.94L219.26,108.94L224.13,80.59L229.01,72.7L233.88,49.46L238.75,45.96L243.62,43.62L248.5,60.13L253.37,81.9L258.24,56.48L263.11,61.15L267.99,79.86L272.86,69.92L277.73,48.88L282.6,49.17L287.48,42.89L292.35,19.8L297.22,48.88L302.09,59.69L306.97,89.06L311.84,95.79L316.71,94.47L326.46,57.06L331.33,52.53L336.2,63.35L341.07,56.19L345.95,63.35L350.82,67.29L355.69,64.37L360.56,72.99L365.44,64.37L370.31,36.31L375.18,46.25L380.05,64.37L384.93,63.78L389.8,56.19L394.67,61.15L399.54,58.38L404.42,67.73L409.29,68.02L414.16,68.61L419.03,82.49L423.91,52.53L428.78,66.71L438.52,58.38L443.4,48.15L448.27,57.5L453.14,96.66L458.01,45.52L462.89,40.99L477.5,53.55L482.38,51.51L487.25,45.96L492.12,46.54L496.99,48.15L501.87,54.14L506.74,55.75L511.61,50.19L516.48,53.12L521.36,52.24L526.23,47.56L531.1,46.25L535.97,48.59L540.85,43.33L545.72,46.54L550.59,52.24L555.46,58.08L560.34,80.88L565.21,65.39L570.08,63.35L574.95,61.74L579.83,67L584.7,69.04L589.57,74.89L594.44,74.01L599.32,64.37L604.19,64.66L609.06,60.72L613.93,51.51L618.81,52.24L623.68,82.93L628.55,68.31L633.42,65.98L638.3,59.4L648.04,53.85L652.91,66.71L657.79,63.78L662.66,62.47L672.4,68.31L677.28,63.05L682.15,65.68L687.02,65.98L691.89,69.04L696.77,59.69L701.64,66.41L706.51,48.59L711.38,61.74L716.26,70.65L721.13,65.98L726,64.08" style="vector-effect: none; fill: none; stroke: rgb(0, 0, 255); stroke-opacity: 1; stroke-width: 2px; opacity: 1;"/></g><g class="points"/><g class="text"/></g><g class="trace scatter tracebe1c61" style="stroke-miterlimit: 2; opacity: 1;"><g class="fills"/><g class="errorbars"/><g class="lines"><path class="js-line" d="M0,320.67L4.87,285.46L9.74,258.28L14.62,290.86L19.49,201.73L24.36,170.46L29.23,174.84L34.11,171.62L38.98,209.32L43.85,209.32L48.72,164.9L53.6,153.65L58.47,190.33L63.34,172.21L68.21,172.94L73.09,170.31L77.96,197.2L82.83,198.07L87.7,189.45L92.58,196.76L97.45,211.66L102.32,180.83L107.19,173.82L112.07,173.23L116.94,181.27L121.81,176.01L126.68,168.26L131.56,168.56L136.43,187.55L141.3,189.74L146.17,192.81L151.05,162.56L155.92,141.81L160.79,173.23L165.66,153.65L170.54,157.01L175.41,143.57L180.28,149.27L185.15,156.87L190.03,166.07L194.9,163.88L199.77,162.56L204.64,213.56L209.52,219.7L214.39,216.63L219.26,214.29L224.13,182.15L229.01,188.28L233.88,163.15L238.75,159.64L243.62,155.11L248.5,160.66L253.37,186.68L258.24,159.64L263.11,160.08L267.99,179.81L272.86,170.46L277.73,151.9L282.6,153.36L287.48,151.9L292.35,117.12L297.22,170.46L302.09,173.09L306.97,202.16L311.84,201L316.71,197.49L321.58,175.42L326.46,155.26L331.33,156.57L336.2,169.58L341.07,168.7L345.95,172.5L350.82,170.6L355.69,168.56L360.56,176.15L365.44,172.65L370.31,127.06L375.18,141.96L380.05,173.82L384.93,171.19L389.8,164.46L394.67,164.76L399.54,166.51L404.42,168.26L409.29,168.26L414.16,177.76L419.03,204.79L423.91,156.57L428.78,165.19L438.52,162.27L443.4,151.75L448.27,156.57L453.14,200.85L458.01,152.63L462.89,152.92L467.76,155.26L472.63,158.77L477.5,157.74L482.38,161.25L487.25,156.72L492.12,155.11L496.99,160.08L501.87,163.88L506.74,160.23L511.61,153.07L516.48,151.02L521.36,150.58L526.23,155.7L531.1,150.44L535.97,155.26L540.85,148.24L545.72,153.8L550.59,155.55L555.46,158.33L560.34,175.28L565.21,165.63L570.08,163.88L574.95,168.26L579.83,165.93L584.7,165.34L589.57,168.41L594.44,172.35L599.32,159.79L604.19,156.43L609.06,156.28L613.93,153.07L618.81,152.48L623.68,189.01L628.55,165.93L633.42,162.71L638.3,149.71L643.17,150.73L648.04,153.94L652.91,165.34L657.79,164.76L662.66,153.07L667.53,152.63L672.4,158.18L677.28,156.43L682.15,157.89L687.02,156.87L691.89,162.71L696.77,156.72L701.64,161.69L706.51,136.85L711.38,159.64L716.26,175.42L721.13,161.98L726,163.88" style="vector-effect: none; fill: none; stroke: rgb(0, 128, 0); stroke-opacity: 1; stroke-width: 2px; opacity: 1;"/></g><g class="points"/><g class="text"/></g><g class="trace scatter traceb419ce" style="stroke-miterlimit: 2; opacity: 1;"><g class="fills"/><g class="errorbars"/><g class="lines"><path class="js-line" d="M0,318.04L4.87,292.32L9.74,273.18L14.62,291.59L19.49,221.45L24.36,186.97L29.23,199.39L34.11,196.61L38.98,223.5L43.85,218.53L48.72,186.53L53.6,183.46L58.47,204.21L68.21,192.52L73.09,196.61L77.96,217.65L82.83,215.32L87.7,208.45L92.58,211.52L97.45,218.97L102.32,199.24L107.19,186.09L112.07,185.21L116.94,197.49L121.81,186.38L126.68,182.58L131.56,185.07L136.43,203.33L141.3,203.33L146.17,208.59L151.05,175.28L155.92,138.89L160.79,186.09L165.66,166.36L170.54,171.33L175.41,145.32L180.28,153.8L190.03,175.86L194.9,178.64L199.77,178.2L204.64,221.01L209.52,226.57L214.39,224.96L219.26,225.4L224.13,197.78L229.01,198.95L233.88,171.33L238.75,165.34L243.62,161.4L248.5,173.67L253.37,197.63L258.24,171.33L263.11,176.74L267.99,195.3L272.86,186.53L277.73,166.66L282.6,167.53L287.48,159.5L292.35,115.07L297.22,169.58L302.09,178.78L306.97,210.06L311.84,214.29L316.71,214.44L321.58,196.17L326.46,175.57L331.33,168.99L336.2,181.12L341.07,175.57L345.95,183.75L350.82,186.82L355.69,184.19L360.56,186.38L365.44,177.91L370.31,146.2L375.18,165.34L380.05,187.55L384.93,185.94L389.8,176.3L394.67,183.17L399.54,179.81L404.42,187.11L409.29,186.82L414.16,189.31L419.03,200.41L423.91,165.05L428.78,178.35L433.65,173.52L438.52,172.35L443.4,159.93L448.27,170.6L453.14,204.79L458.01,157.45L462.89,152.63L467.76,157.89L477.5,168.99L482.38,164.17L487.25,158.47L492.12,158.77L496.99,160.81L501.87,167.97L506.74,171.19L511.61,167.24L516.48,167.53L521.36,165.78L526.23,159.79L531.1,159.64L535.97,162.42L540.85,155.99L545.72,158.77L550.59,164.61L555.46,170.46L560.34,191.35L565.21,177.76L570.08,175.28L574.95,172.65L579.83,177.47L584.7,180.83L589.57,191.5L594.44,191.64L599.32,180.1L604.19,179.52L609.06,173.23L613.93,167.53L618.81,169.29L623.68,211.22L628.55,193.98L633.42,191.06L638.3,185.21L643.17,182.29L648.04,177.03L652.91,192.08L657.79,189.16L662.66,178.05L667.53,182.15L672.4,178.78L677.28,172.65L682.15,177.47L687.02,176.3L691.89,178.78L696.77,168.7L701.64,175.72L706.51,165.19L711.38,175.57L716.26,196.03L721.13,179.22L726,179.08" style="vector-effect: none; fill: none; stroke: rgb(255, 165, 0); stroke-opacity: 1; stroke-width: 2px; opacity: 1;"/></g><g class="points"/><g class="text"/></g><g class="trace scatter trace399138" style="stroke-miterlimit: 2; opacity: 1;"><g class="fills"/><g class="errorbars"/><g class="lines"><path class="js-line" d="M0,267.92L4.87,225.98L9.74,205.67L14.62,333.39L19.49,314.24L24.36,280.05L29.23,273.18L34.11,274.06L38.98,266.31L43.85,256.96L48.72,264.56L53.6,254.77L58.47,233L63.34,232.41L68.21,230.37L73.09,238.11L77.96,162.71L82.83,160.37L87.7,162.27L97.45,174.99L102.32,202.02L107.19,204.21L112.07,193.69L116.94,205.67L121.81,186.24L126.68,182.29L131.56,181.12L136.43,185.21L141.3,198.8L146.17,195.15L151.05,188.57L155.92,212.1L160.79,201.73L165.66,203.92L170.54,202.9L180.28,180.98L185.15,180.68L190.03,166.22L194.9,172.06L199.77,174.84L204.64,191.94L209.52,188.43L214.39,178.2L219.26,177.32L224.13,159.5L229.01,197.05L233.88,214.88L238.75,210.2L243.62,211.08L248.5,142.25L253.37,159.5L258.24,145.61L263.11,145.91L267.99,151.46L272.86,150.29L277.73,165.93L282.6,171.04L287.48,180.98L292.35,207.43L297.22,198.07L302.09,165.93L306.97,176.15L311.84,169.87L316.71,170.46L321.58,159.79L326.46,152.04L331.33,152.48L336.2,159.06L341.07,171.77L345.95,167.97L350.82,158.77L355.69,159.2L360.56,146.2L365.44,148.54L370.31,209.76L375.18,211.81L380.05,175.13L384.93,172.5L389.8,172.35L394.67,168.56L399.54,170.02L404.42,158.03L409.29,153.07L419.03,177.03L423.91,140.06L428.78,136.12L433.65,133.78L438.52,138.16L443.4,133.19L448.27,133.19L453.14,154.67L458.01,138.02L462.89,144.15L467.76,142.55L472.63,148.83L477.5,145.76L482.38,145.03L487.25,144.3L492.12,139.62L496.99,141.67L501.87,145.32L506.74,144.15L511.61,157.6L516.48,136.7L521.36,131.44L526.23,135.39L531.1,137.28L535.97,141.08L540.85,138.16L545.72,136.41L550.59,132.61L555.46,133.49L560.34,136.55L570.08,132.17L574.95,134.07L579.83,133.34L584.7,135.39L589.57,148.1L594.44,153.65L604.19,135.53L609.06,135.82L613.93,152.04L618.81,152.04L623.68,182L628.55,171.04L633.42,169.72L638.3,182.73L643.17,189.45L648.04,187.11L652.91,177.18L657.79,179.08L662.66,136.55L667.53,139.18L672.4,126.33L677.28,124.13L682.15,128.37L687.02,123.11L691.89,125.59L696.77,124.86L701.64,126.62L706.51,141.96L711.38,136.85L716.26,176.45L721.13,134.07L726,140.94" style="vector-effect: none; fill: none; stroke: rgb(128, 0, 128); stroke-opacity: 1; stroke-width: 2px; opacity: 1;"/></g><g class="points"/><g class="text"/></g><g class="trace scatter trace1530d0" style="stroke-miterlimit: 2; opacity: 1;"><g class="fills"/><g class="errorbars"/><g class="lines"><path class="js-line" d="M0,264.41L4.87,234.75L9.74,222.62L14.62,338.5L19.49,333.39L24.36,295.39L29.23,291.45L34.11,290.13L38.98,282.24L43.85,266.9L48.72,279.32L53.6,273.04L58.47,245.27L63.34,253.45L68.21,250.24L73.09,260.91L77.96,184.34L82.83,179.66L87.7,185.21L92.58,187.7L97.45,185.94L102.32,222.91L107.19,222.04L112.07,212.39L116.94,229.34L121.81,206.99L126.68,206.4L131.56,204.21L136.43,209.47L141.3,215.9L146.17,215.9L151.05,207.43L155.92,214.73L160.79,222.04L165.66,224.81L170.54,224.38L175.41,203.92L180.28,187.11L185.15,191.35L190.03,179.22L194.9,189.89L199.77,189.6L204.64,202.31L209.52,201L214.39,193.84L219.26,194.86L224.13,176.15L229.01,205.96L233.88,223.5L243.62,215.32L248.5,155.11L253.37,172.79L258.24,159.79L263.11,163.3L267.99,170.6L272.86,169.14L277.73,180.54L282.6,183.02L287.48,186.82L292.35,209.03L297.22,207.13L302.09,177.91L306.97,192.08L311.84,189.89L316.71,192.67L321.58,185.65L326.46,176.15L331.33,168.41L336.2,172.35L341.07,181.56L345.95,183.02L350.82,179.08L355.69,180.39L360.56,160.37L365.44,156.57L370.31,230.66L375.18,235.77L380.05,195.44L384.93,191.21L389.8,186.24L394.67,191.79L399.54,190.04L404.42,179.37L409.29,176.74L414.16,183.75L419.03,179.22L423.91,149.71L428.78,151.02L433.65,146.93L438.52,155.99L443.4,145.91L448.27,152.92L453.14,163.44L458.01,147.51L462.89,149.12L467.76,151.9L472.63,160.81L477.5,163L482.38,150L487.25,151.02L492.12,149.12L496.99,150.14L501.87,155.4L506.74,162.13L511.61,173.38L516.48,158.03L521.36,154.09L526.23,148.83L531.1,155.4L535.97,156.43L540.85,153.36L545.72,148.54L550.59,149.41L555.46,149.71L560.34,156.72L565.21,152.63L570.08,149.85L574.95,145.91L579.83,147.08L584.7,152.63L589.57,171.48L594.44,174.55L599.32,164.46L604.19,160.96L609.06,150.87L613.93,166.8L618.81,171.92L623.68,212.69L628.55,204.5L633.42,202.6L638.3,215.9L643.17,221.16L648.04,211.37L652.91,204.36L657.79,206.69L662.66,163.73L667.53,169.58L672.4,147.95L677.28,141.67L682.15,150.87L687.02,146.05L691.89,146.05L696.77,137.58L701.64,142.98L706.51,172.79L711.38,156.72L716.26,202.31L721.13,155.84L726,161.98" style="vector-effect: none; fill: none; stroke: rgb(255, 192, 203); stroke-opacity: 1; stroke-width: 2px; opacity: 1;"/></g><g class="points"/><g class="text"/></g><g class="trace scatter tracedd720b" style="stroke-miterlimit: 2; opacity: 1;"><g class="fills"/><g class="errorbars"/><g class="lines"><path class="js-line" d="M0,376.2L4.87,292.76L9.74,250.09L14.62,322.72L19.49,296.42L24.36,256.23L29.23,249.51L34.11,250.09L38.98,248.34L43.85,240.6L48.72,239.72L58.47,217.07L63.34,211.95L68.21,210.49L73.09,216.19L77.96,184.19L82.83,184.48L87.7,178.35L92.58,185.51L97.45,198.66L102.32,192.81L107.19,191.5L112.07,184.63L116.94,195.15L121.81,181.41L126.68,175.86L131.56,175.28L136.43,186.38L141.3,194.42L146.17,193.98L151.05,177.32L155.92,188.28L160.79,189.74L165.66,184.92L170.54,185.21L175.41,173.67L180.28,167.53L185.15,170.16L190.03,166.07L194.9,168.12L199.77,169.14L204.64,204.5L209.52,208.16L214.39,203.48L219.26,201.43L224.13,172.5L229.01,192.81L233.88,195.88L238.75,191.35L243.62,190.77L248.5,152.34L253.37,175.57L258.24,153.21L263.11,153.65L267.99,168.26L272.86,161.54L277.73,159.35L282.6,163L287.48,168.56L292.35,179.08L297.22,186.38L302.09,169.58L306.97,191.64L316.71,186.53L321.58,168.41L326.46,153.65L331.33,154.53L336.2,164.61L341.07,170.31L345.95,170.31L350.82,165.05L355.69,164.03L360.56,164.03L365.44,162.27L370.31,183.17L375.18,188.14L380.05,174.4L394.67,166.66L399.54,168.26L404.42,163.44L409.29,161.4L414.16,171.62L419.03,193.69L423.91,149.12L428.78,153.21L433.65,151.61L438.52,151.9L443.4,143.42L448.27,146.49L453.14,186.09L458.01,145.91L462.89,148.68L467.76,149.41L472.63,154.09L477.5,152.04L482.38,153.94L487.25,150.87L492.12,148.1L496.99,151.75L501.87,155.7L506.74,152.92L511.61,155.4L516.48,144.45L521.36,141.96L526.23,146.64L531.1,144.3L535.97,148.68L540.85,143.42L545.72,145.91L550.59,145.61L555.46,147.66L560.34,160.81L565.21,152.92L570.08,151.02L574.95,154.67L579.83,152.92L584.7,153.07L589.57,159.5L594.44,164.03L599.32,152.63L604.19,147.22L609.06,147.22L613.93,152.48L618.81,152.19L623.68,185.65L628.55,168.56L633.42,166.36L638.3,168.85L643.17,173.82L648.04,173.23L652.91,171.62L657.79,172.5L662.66,145.47L667.53,146.34L672.4,145.18L677.28,143.28L682.15,145.61L687.02,143.28L691.89,148.24L696.77,143.71L701.64,147.81L706.51,139.48L711.38,149.71L716.26,176.01L721.13,150.29L726,153.94" style="vector-effect: none; fill: none; stroke: rgb(165, 42, 42); stroke-opacity: 1; stroke-width: 2px; opacity: 1;"/></g><g class="points"/><g class="text"/></g><g class="trace scatter traceb52dd2" style="stroke-miterlimit: 2; opacity: 1;"><g class="fills"/><g class="errorbars"/><g class="lines"><path class="js-line" d="M0,369.48L4.87,301.38L9.74,267.19L14.62,327.98L19.49,320.23L24.36,274.2L29.23,270.99L34.11,269.24L38.98,265.14L43.85,250.82L48.72,257.25L53.6,250.53L58.47,230.22L63.34,235.34L68.21,231.24L73.09,241.18L77.96,205.53L82.83,202.75L87.7,198.8L92.58,201.73L97.45,206.99L102.32,212.83L107.19,207.86L112.07,201L116.94,216.63L121.81,197.93L126.68,196.17L131.56,195.74L136.43,206.55L141.3,210.2L146.17,212.39L151.05,194.13L155.92,189.89L160.79,207.86L165.66,204.36L170.54,205.38L175.41,182.73L180.28,173.23L185.15,180.1L190.03,177.47L194.9,184.63L199.77,184.34L204.64,212.98L209.52,216.63L214.39,213.56L219.26,214.15L224.13,188.57L229.01,202.6L233.88,204.65L243.62,195.74L248.5,165.49L253.37,187.41L258.24,165.93L263.11,170.6L267.99,185.07L272.86,178.78L277.73,174.11L282.6,175.86L287.48,175.13L292.35,180.1L297.22,192.08L302.09,178.35L306.97,202.31L311.84,204.36L316.71,205.38L326.46,175.86L331.33,168.7L336.2,177.03L341.07,178.64L345.95,183.46L350.82,183.17L355.69,182.29L360.56,175.72L365.44,168.7L370.31,205.09L375.18,213.27L380.05,191.64L384.93,188.72L389.8,181.56L394.67,187.7L399.54,185.21L409.29,182.15L414.16,186.53L419.03,191.35L423.91,158.03L428.78,167.09L433.65,162.42L438.52,164.9L443.4,153.5L448.27,162.71L453.14,190.77L458.01,152.77L462.89,150.87L467.76,154.97L472.63,162.27L477.5,166.07L482.38,157.6L487.25,154.82L492.12,154.24L496.99,155.84L501.87,162.13L506.74,166.95L511.61,170.46L516.48,163.15L521.36,160.37L526.23,154.67L531.1,157.6L535.97,159.5L540.85,154.67L545.72,153.94L550.59,157.74L555.46,161.4L560.34,178.35L565.21,167.09L570.08,164.61L574.95,161.54L579.83,165.19L584.7,169.29L589.57,182.88L594.44,184.05L599.32,173.09L604.19,171.33L609.06,163.59L618.81,170.6L623.68,211.95L628.55,199.68L633.42,197.2L638.3,203.33L643.17,206.11L648.04,197.49L652.91,198.66L657.79,198.8L662.66,171.48L667.53,176.3L672.4,166.51L677.28,160.08L682.15,166.51L687.02,164.03L691.89,165.93L696.77,156.14L701.64,162.71L706.51,169.14L711.38,167.24L716.26,199.24L721.13,169.29L726,171.48" style="vector-effect: none; fill: none; stroke: rgb(128, 128, 128); stroke-opacity: 1; stroke-width: 2px; opacity: 1;"/></g><g class="points"/><g class="text"/></g></g></g><g class="overplot"/><path class="xlines-above crisp" d="M0,0" style="fill: none;"/><path class="ylines-above crisp" d="M0,0" style="fill: none;"/><g class="overlines-above"/><g class="xaxislayer-above"><g class="xtick"><text text-anchor="middle" x="0" y="509" transform="translate(235.57999999999998,0)" style="font-family: 'Open Sans', verdana, arial, sans-serif; font-size: 12px; fill: rgb(42, 63, 95); fill-opacity: 1; white-space: pre; opacity: 1;">20</text></g><g class="xtick"><text text-anchor="middle" x="0" y="509" style="font-family: 'Open Sans', verdana, arial, sans-serif; font-size: 12px; fill: rgb(42, 63, 95); fill-opacity: 1; white-space: pre; opacity: 1;" transform="translate(333.03,0)">40</text></g><g class="xtick"><text text-anchor="middle" x="0" y="509" style="font-family: 'Open Sans', verdana, arial, sans-serif; font-size: 12px; fill: rgb(42, 63, 95); fill-opacity: 1; white-space: pre; opacity: 1;" transform="translate(430.48,0)">60</text></g><g class="xtick"><text text-anchor="middle" x="0" y="509" style="font-family: 'Open Sans', verdana, arial, sans-serif; font-size: 12px; fill: rgb(42, 63, 95); fill-opacity: 1; white-space: pre; opacity: 1;" transform="translate(527.9300000000001,0)">80</text></g><g class="xtick"><text text-anchor="middle" x="0" y="509" style="font-family: 'Open Sans', verdana, arial, sans-serif; font-size: 12px; fill: rgb(42, 63, 95); fill-opacity: 1; white-space: pre; opacity: 1;" transform="translate(625.38,0)">100</text></g><g class="xtick"><text text-anchor="middle" x="0" y="509" style="font-family: 'Open Sans', verdana, arial, sans-serif; font-size: 12px; fill: rgb(42, 63, 95); fill-opacity: 1; white-space: pre; opacity: 1;" transform="translate(722.83,0)">120</text></g><g class="xtick"><text text-anchor="middle" x="0" y="509" style="font-family: 'Open Sans', verdana, arial, sans-serif; font-size: 12px; fill: rgb(42, 63, 95); fill-opacity: 1; white-space: pre; opacity: 1;" transform="translate(820.28,0)">140</text></g></g><g class="yaxislayer-above"><g class="ytick"><text text-anchor="end" x="142" y="4.199999999999999" transform="translate(0,492.27)" style="font-family: 'Open Sans', verdana, arial, sans-serif; font-size: 12px; fill: rgb(42, 63, 95); fill-opacity: 1; white-space: pre; opacity: 1;">55</text></g><g class="ytick"><text text-anchor="end" x="142" y="4.199999999999999" style="font-family: 'Open Sans', verdana, arial, sans-serif; font-size: 12px; fill: rgb(42, 63, 95); fill-opacity: 1; white-space: pre; opacity: 1;" transform="translate(0,419.21)">60</text></g><g class="ytick"><text text-anchor="end" x="142" y="4.199999999999999" style="font-family: 'Open Sans', verdana, arial, sans-serif; font-size: 12px; fill: rgb(42, 63, 95); fill-opacity: 1; white-space: pre; opacity: 1;" transform="translate(0,346.15)">65</text></g><g class="ytick"><text text-anchor="end" x="142" y="4.199999999999999" style="font-family: 'Open Sans', verdana, arial, sans-serif; font-size: 12px; fill: rgb(42, 63, 95); fill-opacity: 1; white-space: pre; opacity: 1;" transform="translate(0,273.09000000000003)">70</text></g><g class="ytick"><text text-anchor="end" x="142" y="4.199999999999999" style="font-family: 'Open Sans', verdana, arial, sans-serif; font-size: 12px; fill: rgb(42, 63, 95); fill-opacity: 1; white-space: pre; opacity: 1;" transform="translate(0,200.01999999999998)">75</text></g><g class="ytick"><text text-anchor="end" x="142" y="4.199999999999999" style="font-family: 'Open Sans', verdana, arial, sans-serif; font-size: 12px; fill: rgb(42, 63, 95); fill-opacity: 1; white-space: pre; opacity: 1;" transform="translate(0,126.96000000000001)">80</text></g></g><g class="overaxes-above"/></g></g><g class="polarlayer"/><g class="smithlayer"/><g class="ternarylayer"/><g class="geolayer"/><g class="funnelarealayer"/><g class="pielayer"/><g class="iciclelayer"/><g class="treemaplayer"/><g class="sunburstlayer"/><g class="glimages"/><defs id="topdefs-a76622"><g class="clips"/><clipPath id="legenda76622"><rect width="128" height="162" x="0" y="0"/></clipPath></defs><g class="layer-above"><g class="imagelayer"/><g class="shapelayer"/></g><g class="infolayer"><g class="legend" pointer-events="all" transform="translate(883.52,100)"><rect class="bg" shape-rendering="crispEdges" width="128" height="162" x="0" y="0" style="stroke: rgb(68, 68, 68); stroke-opacity: 1; fill: rgb(255, 255, 255); fill-opacity: 1; stroke-width: 0px;"/><g class="scrollbox" transform="" clip-path="url(#legenda76622)"><g class="groups"><g class="traces" transform="translate(0,14.5)" style="opacity: 1;"><text class="legendtext" text-anchor="start" x="40" y="4.680000000000001" style="font-family: 'Open Sans', verdana, arial, sans-serif; font-size: 12px; fill: rgb(42, 63, 95); fill-opacity: 1; white-space: pre;">Train Accuracy</text><g class="layers" style="opacity: 1;"><g class="legendfill"/><g class="legendlines"><path class="js-line" d="M5,0h30" style="fill: none; stroke: rgb(255, 0, 0); stroke-opacity: 1; stroke-width: 2px;"/></g><g class="legendsymbols"><g class="legendpoints"/></g></g><rect class="legendtoggle" x="0" y="-9.5" width="122.71875" height="19" style="fill: rgb(0, 0, 0); fill-opacity: 0;"/></g><g class="traces" transform="translate(0,33.5)" style="opacity: 1;"><text class="legendtext" text-anchor="start" x="40" y="4.680000000000001" style="font-family: 'Open Sans', verdana, arial, sans-serif; font-size: 12px; fill: rgb(42, 63, 95); fill-opacity: 1; white-space: pre;">Test Accuracy</text><g class="layers" style="opacity: 1;"><g class="legendfill"/><g class="legendlines"><path class="js-line" d="M5,0h30" style="fill: none; stroke: rgb(0, 0, 255); stroke-opacity: 1; stroke-width: 2px;"/></g><g class="legendsymbols"><g class="legendpoints"/></g></g><rect class="legendtoggle" x="0" y="-9.5" width="122.71875" height="19" style="fill: rgb(0, 0, 0); fill-opacity: 0;"/></g><g class="traces" transform="translate(0,52.5)" style="opacity: 1;"><text class="legendtext" text-anchor="start" x="40" y="4.680000000000001" style="font-family: 'Open Sans', verdana, arial, sans-serif; font-size: 12px; fill: rgb(42, 63, 95); fill-opacity: 1; white-space: pre;">Train Precision</text><g class="layers" style="opacity: 1;"><g class="legendfill"/><g class="legendlines"><path class="js-line" d="M5,0h30" style="fill: none; stroke: rgb(0, 128, 0); stroke-opacity: 1; stroke-width: 2px;"/></g><g class="legendsymbols"><g class="legendpoints"/></g></g><rect class="legendtoggle" x="0" y="-9.5" width="122.71875" height="19" style="fill: rgb(0, 0, 0); fill-opacity: 0;"/></g><g class="traces" transform="translate(0,71.5)" style="opacity: 1;"><text class="legendtext" text-anchor="start" x="40" y="4.680000000000001" style="font-family: 'Open Sans', verdana, arial, sans-serif; font-size: 12px; fill: rgb(42, 63, 95); fill-opacity: 1; white-space: pre;">Test Precision</text><g class="layers" style="opacity: 1;"><g class="legendfill"/><g class="legendlines"><path class="js-line" d="M5,0h30" style="fill: none; stroke: rgb(255, 165, 0); stroke-opacity: 1; stroke-width: 2px;"/></g><g class="legendsymbols"><g class="legendpoints"/></g></g><rect class="legendtoggle" x="0" y="-9.5" width="122.71875" height="19" style="fill: rgb(0, 0, 0); fill-opacity: 0;"/></g><g class="traces" transform="translate(0,90.5)" style="opacity: 1;"><text class="legendtext" text-anchor="start" x="40" y="4.680000000000001" style="font-family: 'Open Sans', verdana, arial, sans-serif; font-size: 12px; fill: rgb(42, 63, 95); fill-opacity: 1; white-space: pre;">Train Recall</text><g class="layers" style="opacity: 1;"><g class="legendfill"/><g class="legendlines"><path class="js-line" d="M5,0h30" style="fill: none; stroke: rgb(128, 0, 128); stroke-opacity: 1; stroke-width: 2px;"/></g><g class="legendsymbols"><g class="legendpoints"/></g></g><rect class="legendtoggle" x="0" y="-9.5" width="122.71875" height="19" style="fill: rgb(0, 0, 0); fill-opacity: 0;"/></g><g class="traces" transform="translate(0,109.5)" style="opacity: 1;"><text class="legendtext" text-anchor="start" x="40" y="4.680000000000001" style="font-family: 'Open Sans', verdana, arial, sans-serif; font-size: 12px; fill: rgb(42, 63, 95); fill-opacity: 1; white-space: pre;">Test Recall</text><g class="layers" style="opacity: 1;"><g class="legendfill"/><g class="legendlines"><path class="js-line" d="M5,0h30" style="fill: none; stroke: rgb(255, 192, 203); stroke-opacity: 1; stroke-width: 2px;"/></g><g class="legendsymbols"><g class="legendpoints"/></g></g><rect class="legendtoggle" x="0" y="-9.5" width="122.71875" height="19" style="fill: rgb(0, 0, 0); fill-opacity: 0;"/></g><g class="traces" transform="translate(0,128.5)" style="opacity: 1;"><text class="legendtext" text-anchor="start" x="40" y="4.680000000000001" style="font-family: 'Open Sans', verdana, arial, sans-serif; font-size: 12px; fill: rgb(42, 63, 95); fill-opacity: 1; white-space: pre;">Train F1</text><g class="layers" style="opacity: 1;"><g class="legendfill"/><g class="legendlines"><path class="js-line" d="M5,0h30" style="fill: none; stroke: rgb(165, 42, 42); stroke-opacity: 1; stroke-width: 2px;"/></g><g class="legendsymbols"><g class="legendpoints"/></g></g><rect class="legendtoggle" x="0" y="-9.5" width="122.71875" height="19" style="fill: rgb(0, 0, 0); fill-opacity: 0;"/></g><g class="traces" transform="translate(0,147.5)" style="opacity: 1;"><text class="legendtext" text-anchor="start" x="40" y="4.680000000000001" style="font-family: 'Open Sans', verdana, arial, sans-serif; font-size: 12px; fill: rgb(42, 63, 95); fill-opacity: 1; white-space: pre;">Test F1</text><g class="layers" style="opacity: 1;"><g class="legendfill"/><g class="legendlines"><path class="js-line" d="M5,0h30" style="fill: none; stroke: rgb(128, 128, 128); stroke-opacity: 1; stroke-width: 2px;"/></g><g class="legendsymbols"><g class="legendpoints"/></g></g><rect class="legendtoggle" x="0" y="-9.5" width="122.71875" height="19" style="fill: rgb(0, 0, 0); fill-opacity: 0;"/></g></g></g><rect class="scrollbar" rx="20" ry="3" width="0" height="0" x="0" y="0" style="fill: rgb(128, 139, 164); fill-opacity: 1;"/></g><g class="g-gtitle"><text class="gtitle" x="51.2" y="50" text-anchor="start" dy="0em" style="font-family: 'Open Sans', verdana, arial, sans-serif; font-size: 17px; fill: rgb(42, 63, 95); opacity: 1; font-weight: normal; white-space: pre;">Training Metrics - logs/FakeNewsNet-gossipcop_max-vocab=15000_pre=v2_text_domain_T=200_s=5.log</text></g><g class="g-xtitle"><text class="xtitle" x="506" y="537.3" text-anchor="middle" style="font-family: 'Open Sans', verdana, arial, sans-serif; font-size: 14px; fill: rgb(42, 63, 95); opacity: 1; font-weight: normal; white-space: pre;">Epoch</text></g><g class="g-ytitle"><text class="ytitle" transform="rotate(-90,103.965625,298)" x="103.965625" y="298" text-anchor="middle" style="font-family: 'Open Sans', verdana, arial, sans-serif; font-size: 14px; fill: rgb(42, 63, 95); opacity: 1; font-weight: normal; white-space: pre;">Metric Score</text></g></g><g class="menulayer"><g class="updatemenu-container" style="cursor: pointer;"><g class="updatemenu-header-group" transform="translate(12,60)"><g class="updatemenu-header" transform="translate(1,1)" style="pointer-events: all;"><rect class="updatemenu-item-rect" rx="2" ry="2" shape-rendering="crispEdges" x="0" y="0" width="167" height="33" style="stroke: rgb(190, 200, 217); stroke-opacity: 1; fill: rgb(255, 255, 255); fill-opacity: 1; stroke-width: 1px;"/><text class="updatemenu-item-text" text-anchor="start" data-notex="1" x="12" y="19.5" style="font-family: 'Open Sans', verdana, arial, sans-serif; font-size: 12px; fill: rgb(42, 63, 95); fill-opacity: 1; white-space: pre;">All</text></g><text class="updatemenu-header-arrow" text-anchor="end" x="163" y="19.5" style="font-family: 'Open Sans', verdana, arial, sans-serif; font-size: 12px; fill: rgb(42, 63, 95); fill-opacity: 1;">▼</text></g><g class="updatemenu-dropdown-button-group" updatemenu-active-index="-1" style="pointer-events: all;"><rect class="scrollbox-bg" opacity="0" x="0" y="0" width="0" height="0" style="pointer-events: all;"/></g></g></g></svg>