<svg class="main-svg" xmlns="http://www.w3.org/2000/svg" xmlns:xlink="http://www.w3.org/1999/xlink" width="1024" height="576" style="" viewBox="0 0 1024 576"><rect x="0" y="0" width="1024" height="576" style="fill: rgb(255, 255, 255); fill-opacity: 1;"/><defs id="defs-e1a1fc"><g class="clips"><clipPath id="clipe1a1fcxyplot" class="plotclip"><rect width="726" height="396"/></clipPath><clipPath class="axesclip" id="clipe1a1fcx"><rect x="143" y="0" width="726" height="576"/></clipPath><clipPath class="axesclip" id="clipe1a1fcy"><rect x="0" y="100" width="1024" height="396"/></clipPath><clipPath class="axesclip" id="clipe1a1fcxy"><rect x="143" y="100" width="726" height="396"/></clipPath></g><g class="gradients"/><g class="patterns"/></defs><g class="bglayer"><rect class="bg" x="143" y="100" width="726" height="396" style="fill: rgb(229, 236, 246); fill-opacity: 1; stroke-width: 0;"/></g><g class="layer-below"><g class="imagelayer"/><g class="shapelayer"/></g><g class="cartesianlayer"><g class="subplot xy"><g class="layer-subplot"><g class="shapelayer"/><g class="imagelayer"/></g><g class="minor-gridlayer"><g class="x"/><g class="y"/></g><g class="gridlayer"><g class="x"><path class="xgrid crisp" transform="translate(235.57999999999998,0)" d="M0,100v396" style="stroke: rgb(255, 255, 255); stroke-opacity: 1; stroke-width: 1px;"/><path class="xgrid crisp" transform="translate(333.03,0)" d="M0,100v396" style="stroke: rgb(255, 255, 255); stroke-opacity: 1; stroke-width: 1px;"/><path class="xgrid crisp" transform="translate(430.48,0)" d="M0,100v396" style="stroke: rgb(255, 255, 255); stroke-opacity: 1; stroke-width: 1px;"/><path class="xgrid crisp" transform="translate(527.9300000000001,0)" d="M0,100v396" style="stroke: rgb(255, 255, 255); stroke-opacity: 1; stroke-width: 1px;"/><path class="xgrid crisp" transform="translate(625.38,0)" d="M0,100v396" style="stroke: rgb(255, 255, 255); stroke-opacity: 1; stroke-width: 1px;"/><path class="xgrid crisp" transform="translate(722.83,0)" d="M0,100v396" style="stroke: rgb(255, 255, 255); stroke-opacity: 1; stroke-width: 1px;"/><path class="xgrid crisp" transform="translate(820.28,0)" d="M0,100v396" style="stroke: rgb(255, 255, 255); stroke-opacity: 1; stroke-width: 1px;"/></g><g class="y"><path class="ygrid crisp" transform="translate(0,453.81)" d="M143,0h726" style="stroke: rgb(255, 255, 255); stroke-opacity: 1; stroke-width: 1px;"/><path class="ygrid crisp" transform="translate(0,409.22)" d="M143,0h726" style="stroke: rgb(255, 255, 255); stroke-opacity: 1; stroke-width: 1px;"/><path class="ygrid crisp" transform="translate(0,364.62)" d="M143,0h726" style="stroke: rgb(255, 255, 255); stroke-opacity: 1; stroke-width: 1px;"/><path class="ygrid crisp" transform="translate(0,320.03)" d="M143,0h726" style="stroke: rgb(255, 255, 255); stroke-opacity: 1; stroke-width: 1px;"/><path class="ygrid crisp" transform="translate(0,275.44)" d="M143,0h726" style="stroke: rgb(255, 255, 255); stroke-opacity: 1; stroke-width: 1px;"/><path class="ygrid crisp" transform="translate(0,230.84)" d="M143,0h726" style="stroke: rgb(255, 255, 255); stroke-opacity: 1; stroke-width: 1px;"/><path class="ygrid crisp" transform="translate(0,186.25)" d="M143,0h726" style="stroke: rgb(255, 255, 255); stroke-opacity: 1; stroke-width: 1px;"/><path class="ygrid crisp" transform="translate(0,141.65)" d="M143,0h726" style="stroke: rgb(255, 255, 255); stroke-opacity: 1; stroke-width: 1px;"/></g></g><g class="zerolinelayer"/><path class="xlines-below"/><path class="ylines-below"/><g class="overlines-below"/><g class="xaxislayer-below"/><g class="yaxislayer-below"/><g class="overaxes-below"/><g class="plot" transform="translate(143,100)" clip-path="url(#clipe1a1fcxyplot)"><g class="scatterlayer mlayer"><g class="trace scatter traceb35de2" style="stroke-miterlimit: 2; opacity: 1;"><g class="fills"/><g class="errorbars"/><g class="lines"><path class="js-line" d="M0,234.39L4.87,166.78L9.74,147.79L14.62,132.98L19.49,91.78L24.36,81.16L29.23,55.83L34.11,50.57L38.98,39.96L43.85,43.17L48.72,43.17L63.34,27.29L68.21,24.08L73.09,38.89L77.96,41.03L82.83,61.09L87.7,42.1L92.58,38.89L97.45,41.03L102.32,34.69L107.19,30.41L112.07,37.82L116.94,27.29L121.81,44.15L126.68,45.22L131.56,42.1L136.43,53.69L141.3,52.62L146.17,41.03L151.05,45.22L155.92,45.22L160.79,47.36L165.66,58.95L170.54,47.36L175.41,48.43L180.28,60.02L185.15,57.88L194.9,49.5L199.77,50.57L204.64,44.15L209.52,44.15L214.39,46.29L219.26,47.36L224.13,50.57L229.01,51.55L233.88,44.15L238.75,39.96L243.62,41.03L248.5,46.29L253.37,52.62L258.24,41.03L263.11,44.15L267.99,44.15L272.86,44.15L277.73,42.1L282.6,43.17L287.48,39.96L292.35,39.96L297.22,43.17L302.09,43.17L306.97,44.15L311.84,41.03L316.71,42.1L321.58,43.17L326.46,39.96L331.33,37.82L336.2,41.03L341.07,42.1L345.95,37.82L350.82,32.55L355.69,34.69L360.56,41.03L365.44,36.75L370.31,43.17L375.18,43.17L380.05,45.22L384.93,45.22L389.8,43.17L394.67,38.89L399.54,39.96L404.42,44.15L409.29,48.43L414.16,43.17L419.03,44.15L423.91,42.1L428.78,42.1L433.65,47.36L438.52,49.5L443.4,43.17L453.14,36.75L458.01,34.69L462.89,31.48L467.76,42.1L472.63,45.22L477.5,45.22L482.38,36.75L487.25,37.82L492.12,34.69L496.99,29.43L501.87,27.29L506.74,34.69L511.61,34.69L516.48,32.55L521.36,32.55L526.23,37.82L531.1,75.9L535.97,32.55L540.85,35.76L545.72,33.62L550.59,29.43L555.46,28.36L560.34,27.29L565.21,30.41L570.08,29.43L574.95,83.3L579.83,85.44L584.7,83.3L589.57,88.56L594.44,89.64L599.32,33.62L604.19,28.36L613.93,32.55L618.81,33.62L623.68,32.55L628.55,33.62L633.42,26.22L638.3,29.43L643.17,31.48L648.04,31.48L652.91,32.55L657.79,31.48L662.66,32.55L667.53,28.36L672.4,36.75L677.28,34.69L691.89,31.48L696.77,34.69L701.64,31.48L706.51,37.82L711.38,33.62L716.26,34.69L721.13,32.55L726,34.69" style="vector-effect: none; fill: none; stroke: rgb(255, 0, 0); stroke-opacity: 1; stroke-width: 2px; opacity: 1;"/></g><g class="points"/><g class="text"/></g><g class="trace scatter trace7b3862" style="stroke-miterlimit: 2; opacity: 1;"><g class="fills"/><g class="errorbars"/><g class="lines"><path class="js-line" d="M0,210.75L4.87,189.71L9.74,189.71L14.62,172.94L19.49,135.03L24.36,135.03L29.23,130.84L34.11,143.51L38.98,126.65L48.72,118.18L53.6,122.46L58.47,109.79L63.34,109.79L68.21,113.98L73.09,130.84L77.96,122.46L82.83,126.65L87.7,101.41L92.58,118.18L97.45,109.79L102.32,105.6L116.94,92.94L121.81,97.22L126.68,92.94L131.56,105.6L136.43,135.03L141.3,113.98L146.17,113.98L151.05,109.79L155.92,122.46L160.79,113.98L165.66,105.6L170.54,101.41L175.41,105.6L180.28,118.18L185.15,109.79L190.03,113.98L194.9,105.6L199.77,109.79L204.64,118.18L209.52,109.79L214.39,105.6L219.26,118.18L224.13,113.98L229.01,130.84L233.88,113.98L238.75,113.98L243.62,135.03L248.5,126.65L253.37,143.51L258.24,126.65L263.11,139.22L267.99,135.03L272.86,118.18L277.73,118.18L282.6,122.46L287.48,135.03L297.22,118.18L302.09,122.46L306.97,122.46L311.84,126.65L316.71,130.84L321.58,118.18L326.46,118.18L331.33,109.79L336.2,130.84L341.07,118.18L345.95,109.79L350.82,118.18L355.69,113.98L360.56,113.98L365.44,105.6L370.31,113.98L375.18,118.18L380.05,118.18L384.93,118.18L389.8,109.79L394.67,126.65L399.54,130.84L404.42,130.84L409.29,122.46L414.16,126.65L419.03,126.65L423.91,130.84L428.78,118.18L433.65,130.84L438.52,118.18L443.4,122.46L448.27,109.79L453.14,105.6L458.01,109.79L462.89,122.46L467.76,122.46L472.63,109.79L477.5,109.79L482.38,101.41L487.25,109.79L492.12,118.18L496.99,92.94L506.74,84.55L511.61,97.22L516.48,97.22L521.36,101.41L526.23,97.22L531.1,156.08L535.97,97.22L540.85,97.22L550.59,113.98L555.46,113.98L560.34,105.6L565.21,105.6L570.08,109.79L574.95,168.75L579.83,177.13L584.7,177.13L589.57,172.94L594.44,164.46L599.32,92.94L604.19,101.41L609.06,97.22L613.93,101.41L618.81,97.22L623.68,105.6L628.55,109.79L633.42,92.94L638.3,97.22L643.17,105.6L648.04,105.6L652.91,97.22L657.79,113.98L662.66,109.79L667.53,92.94L672.4,97.22L677.28,97.22L682.15,92.94L687.02,101.41L691.89,97.22L701.64,105.6L706.51,105.6L711.38,113.98L716.26,113.98L721.13,109.79L726,109.79" style="vector-effect: none; fill: none; stroke: rgb(0, 0, 255); stroke-opacity: 1; stroke-width: 2px; opacity: 1;"/></g><g class="points"/><g class="text"/></g><g class="trace scatter trace94f61b" style="stroke-miterlimit: 2; opacity: 1;"><g class="fills"/><g class="errorbars"/><g class="lines"><path class="js-line" d="M0,137.8L4.87,96.77L9.74,85.98L14.62,85.26L19.49,63.41L24.36,56.9L29.23,44.33L34.11,46.38L38.98,38.35L43.85,38.62L48.72,35.05L53.6,31.39L58.47,29.7L63.34,26.49L68.21,22.12L73.09,39.6L77.96,44.95L82.83,65.46L87.7,45.75L92.58,41.03L97.45,43.26L102.32,33.36L107.19,33.54L112.07,41.47L116.94,30.95L121.81,48.43L126.68,49.5L131.56,46.2L136.43,52.98L141.3,52.8L146.17,41.65L151.05,46.47L155.92,45.58L160.79,48.34L165.66,60.11L170.54,48.88L175.41,48.88L180.28,59.31L185.15,57.62L190.03,54.94L194.9,50.39L199.77,51.02L204.64,45.58L209.52,45.31L214.39,46.47L219.26,47.72L224.13,51.91L229.01,53.42L233.88,45.58L238.75,40.76L243.62,41.65L253.37,53.16L258.24,41.38L263.11,44.06L267.99,44.68L272.86,45.31L277.73,43.44L282.6,44.42L287.48,41.65L292.35,39.42L297.22,42.45L302.09,42.01L306.97,42.54L311.84,41.38L316.71,42.54L321.58,43.79L326.46,40.49L331.33,38.35L336.2,40.31L341.07,41.92L345.95,37.99L350.82,33.54L355.69,35.05L360.56,41.38L365.44,36.75L370.31,42.81L375.18,43.79L380.05,45.58L384.93,44.86L389.8,43.17L394.67,39.24L399.54,40.14L404.42,44.95L409.29,49.23L414.16,44.42L419.03,44.33L423.91,41.56L428.78,41.21L433.65,46.65L438.52,49.5L443.4,43.44L448.27,40.76L453.14,37.1L462.89,32.91L467.76,41.21L472.63,44.15L477.5,44.86L482.38,37.1L487.25,38.98L496.99,30.24L501.87,28.36L506.74,36.48L511.61,35.68L516.48,33.8L521.36,33.54L526.23,39.51L531.1,56.19L535.97,33.18L540.85,37.1L545.72,34.69L550.59,30.24L560.34,28.63L565.21,32.2L570.08,31.75L574.95,60.83L579.83,60.38L584.7,59.04L589.57,65.91L594.44,66.54L599.32,36.21L604.19,30.77L618.81,34.43L623.68,33.54L628.55,35.05L633.42,29.08L643.17,33.45L648.04,33.45L652.91,34.87L657.79,32.91L662.66,33.8L667.53,29.25L672.4,37.46L677.28,35.68L691.89,32.29L696.77,35.68L701.64,32.64L706.51,38.98L711.38,34.07L716.26,35.05L721.13,32.91L726,35.32" style="vector-effect: none; fill: none; stroke: rgb(0, 128, 0); stroke-opacity: 1; stroke-width: 2px; opacity: 1;"/></g><g class="points"/><g class="text"/></g><g class="trace scatter tracefc9e82" style="stroke-miterlimit: 2; opacity: 1;"><g class="fills"/><g class="errorbars"/><g class="lines"><path class="js-line" d="M0,118.8L4.87,168.12L9.74,175.79L14.62,151.98L19.49,116.3L29.23,135.03L34.11,158.76L38.98,140.74L43.85,132.54L48.72,124.51L53.6,134.05L58.47,116.21L63.34,118.09L68.21,126.56L73.09,147.25L77.96,138.51L82.83,143.06L87.7,115.68L92.58,133.69L102.32,115.5L107.19,115.23L116.94,107.03L121.81,111.31L126.68,107.03L131.56,120.14L136.43,135.03L141.3,117.19L146.17,119.07L151.05,113.89L155.92,127.45L160.79,120.76L165.66,112.29L170.54,110.33L175.41,112.29L180.28,124.15L185.15,115.68L190.03,119.07L194.9,108.72L199.77,113.89L204.64,124.15L209.52,117.37L214.39,112.29L219.26,124.15L224.13,119.07L229.01,137.71L233.88,119.07L238.75,119.07L243.62,139.22L248.5,130.75L253.37,149.48L258.24,128.79L263.11,142.44L267.99,135.03L272.86,122.37L277.73,124.15L282.6,125.58L287.48,139.22L292.35,126.65L297.22,120.32L306.97,127.45L311.84,128.79L316.71,131.91L321.58,120.32L326.46,120.32L331.33,113.89L336.2,135.92L341.07,122.37L345.95,115.68L350.82,122.37L355.69,120.76L360.56,122.37L365.44,113.89L370.31,119.07L375.18,124.15L380.05,124.15L384.93,122.37L389.8,113.89L394.67,134.23L399.54,135.92L404.42,137.71L409.29,129.24L414.16,132.62L419.03,132.62L423.91,135.92L428.78,125.85L433.65,133.96L438.52,122.37L443.4,125.58L448.27,117.37L453.14,113.89L458.01,118.8L462.89,129.24L467.76,127.45L472.63,115.68L477.5,115.68L482.38,108.9L487.25,117.37L492.12,125.85L496.99,103.1L506.74,96.5L511.61,106.76L516.48,106.76L521.36,110.33L526.23,106.76L531.1,135.03L535.97,106.76L540.85,106.76L545.72,115.23L550.59,120.76L555.46,120.76L560.34,113.89L565.21,113.89L570.08,118.8L574.95,146.18L579.83,151.26L584.7,154.83L589.57,148.77L594.44,143.59L599.32,101.85L604.19,111.66L609.06,106.76L613.93,108.9L618.81,103.91L623.68,112.29L628.55,117.37L633.42,103.1L638.3,105.42L643.17,113.89L648.04,113.89L652.91,103.91L657.79,122.37L662.66,118.8L667.53,98.82L672.4,103.91L677.28,102.21L682.15,100.43L687.02,108.9L691.89,103.91L696.77,107.29L701.64,113.89L706.51,112.29L711.38,120.76L716.26,119.07L721.13,115.68L726,115.68" style="vector-effect: none; fill: none; stroke: rgb(255, 165, 0); stroke-opacity: 1; stroke-width: 2px; opacity: 1;"/></g><g class="points"/><g class="text"/></g><g class="trace scatter tracee9a83b" style="stroke-miterlimit: 2; opacity: 1;"><g class="fills"/><g class="errorbars"/><g class="lines"><path class="js-line" d="M0,294.32L4.87,211.91L9.74,188.9L14.62,169.55L19.49,118.71L24.36,105.69L29.23,73.05L34.11,63.24L38.98,49.95L43.85,55.48L48.72,57.62L53.6,50.93L58.47,42.9L63.34,35.5L68.21,33.18L73.09,46.56L77.96,43.52L82.83,63.95L87.7,45.49L92.58,44.86L97.45,47L102.32,43.97L107.19,34.07L112.07,40.76L116.94,29.25L121.81,44.86L126.68,46.11L131.56,43.35L136.43,45.04L141.3,44.77L146.17,33.36L151.05,38.44L155.92,37.37L160.79,40.22L165.66,52.35L170.54,40.94L175.41,40.76L180.28,51.55L185.15,49.68L190.03,47.09L194.9,42.36L199.77,42.99L204.64,37.55L209.52,37.19L214.39,38.26L219.26,39.51L224.13,44.06L229.01,45.66L233.88,37.55L238.75,32.46L243.62,33.36L253.37,45.13L258.24,33L263.11,35.76L267.99,36.48L272.86,37.19L277.73,35.32L282.6,36.21L287.48,33.54L292.35,31.04L297.22,34.16L302.09,33.8L306.97,34.34L311.84,33L316.71,34.25L321.58,35.59L326.46,32.11L331.33,29.97L336.2,32.02L341.07,33.62L345.95,29.61L350.82,25.06L355.69,26.49L360.56,33L365.44,28.36L370.31,34.52L375.18,35.59L380.05,37.37L384.93,36.66L389.8,34.87L394.67,30.86L399.54,31.75L404.42,36.84L409.29,41.12L414.16,36.21L419.03,36.12L423.91,33.27L428.78,32.91L433.65,38.53L438.52,41.38L443.4,35.23L448.27,32.46L453.14,28.72L462.89,24.53L467.76,32.91L472.63,35.94L477.5,36.66L482.38,28.72L487.25,30.68L496.99,21.58L501.87,19.8L506.74,28.27L511.61,27.2L516.48,25.42L521.36,25.06L526.23,31.31L531.1,56.46L535.97,24.71L540.85,28.81L545.72,26.31L550.59,21.58L560.34,20.16L565.21,23.9L570.08,23.72L574.95,62.79L579.83,63.95L584.7,62.08L589.57,68.05L594.44,68.94L599.32,28.36L604.19,22.83L609.06,23.55L613.93,25.06L618.81,25.95L623.68,25.06L628.55,26.67L633.42,21.32L638.3,22.65L643.17,25.15L648.04,25.15L652.91,26.76L657.79,24.53L662.66,25.42L667.53,20.69L672.4,29.08L682.15,25.95L687.02,24.35L691.89,23.81L696.77,27.2L701.64,24.17L706.51,30.68L711.38,25.6L716.26,26.49L721.13,24.35L726,26.85" style="vector-effect: none; fill: none; stroke: rgb(128, 0, 128); stroke-opacity: 1; stroke-width: 2px; opacity: 1;"/></g><g class="points"/><g class="text"/></g><g class="trace scatter trace755511" style="stroke-miterlimit: 2; opacity: 1;"><g class="fills"/><g class="errorbars"/><g class="lines"><path class="js-line" d="M0,317.16L4.87,276.58L9.74,274.17L14.62,251.34L19.49,197.46L24.36,192.74L29.23,177.4L34.11,180.25L38.98,157.42L43.85,158.85L48.72,157.86L53.6,156.44L58.47,146.45L63.34,144.04L68.21,142.61L73.09,155.9L77.96,139.76L82.83,143.06L87.7,118.26L92.58,138.78L97.45,129.77L102.32,135.92L107.19,120.67L112.07,114.96L116.94,104.44L121.81,105.42L126.68,102.12L131.56,114.43L136.43,118.62L141.3,99.62L146.17,102.03L151.05,96.32L155.92,111.04L160.79,104.35L165.66,95.34L170.54,94.36L175.41,95.34L180.28,107.74L185.15,98.64L190.03,102.03L194.9,90.53L199.77,96.32L204.64,107.74L214.39,95.34L219.26,107.74L224.13,102.03L229.01,122.46L233.88,102.03L238.75,102.03L243.62,123.44L248.5,114.34L253.37,134.85L258.24,112.02L263.11,126.74L267.99,118.62L272.86,105.33L277.73,107.74L282.6,108.63L287.48,123.44L292.35,109.61L297.22,102.92L302.09,106.22L306.97,111.04L311.84,112.02L316.71,115.32L321.58,102.92L326.46,102.92L331.33,96.32L336.2,120.05L341.07,105.33L345.95,98.64L350.82,105.33L355.69,104.35L360.56,106.76L365.44,97.75L370.31,102.03L375.18,107.74L380.05,107.74L384.93,105.33L389.8,96.32L394.67,119.16L399.54,120.05L404.42,122.46L409.29,113.45L414.16,116.75L419.03,116.75L423.91,120.05L428.78,110.15L433.65,117.73L438.52,105.33L443.4,108.63L448.27,101.05L453.14,97.75L458.01,103.46L462.89,113.45L467.76,111.04L472.63,98.64L477.5,98.64L482.38,92.04L492.12,110.15L496.99,87.76L501.87,84.46L506.74,83.48L511.61,91.06L516.48,91.06L521.36,94.36L526.23,91.06L531.1,123.35L535.97,91.06L540.85,91.06L545.72,100.16L550.59,104.35L555.46,104.35L560.34,97.75L565.21,97.75L570.08,103.46L574.95,135.75L579.83,142.35L584.7,144.75L594.44,132.36L599.32,85.35L604.19,96.77L609.06,91.06L613.93,92.04L618.81,86.34L623.68,95.34L628.55,101.05L633.42,87.76L638.3,88.65L643.17,97.75L648.04,97.75L652.91,86.34L657.79,106.76L662.66,103.46L667.53,80.54L672.4,86.34L677.28,83.93L682.15,82.95L687.02,92.04L691.89,86.34L696.77,89.64L701.64,97.75L706.51,95.34L711.38,104.35L716.26,102.03L721.13,98.64L726,98.64" style="vector-effect: none; fill: none; stroke: rgb(255, 192, 203); stroke-opacity: 1; stroke-width: 2px; opacity: 1;"/></g><g class="points"/><g class="text"/></g><g class="trace scatter trace669a67" style="stroke-miterlimit: 2; opacity: 1;"><g class="fills"/><g class="errorbars"/><g class="lines"><path class="js-line" d="M0,348.19L4.87,222.44L9.74,192.65L14.62,168.3L19.49,111.31L24.36,97.84L29.23,65.73L34.11,57.88L38.98,45.75L43.85,50.04L48.72,51.02L63.34,32.02L68.21,28.99L73.09,43.79L77.96,44.24L82.83,64.75L87.7,45.58L92.58,43.17L97.45,45.4L107.19,33.8L112.07,41.12L116.94,30.15L121.81,46.91L126.68,48.07L131.56,44.95L136.43,54.58L141.3,53.6L146.17,42.01L151.05,46.38L155.92,46.2L160.79,48.43L165.66,60.2L170.54,48.52L175.41,49.41L180.28,60.92L185.15,58.86L190.03,54.85L194.9,50.57L199.77,51.55L204.64,45.31L209.52,45.31L214.39,47.27L219.26,48.34L224.13,51.73L229.01,52.89L233.88,45.31L238.75,40.94L243.62,42.01L248.5,47.36L253.37,53.69L258.24,41.92L263.11,45.04L267.99,45.13L272.86,45.31L277.73,43.17L282.6,44.24L287.48,41.12L292.35,40.76L297.22,43.88L302.09,43.88L306.97,44.86L311.84,41.92L316.71,42.99L321.58,44.15L326.46,40.94L331.33,38.8L336.2,41.83L341.07,42.9L345.95,38.71L350.82,33.54L355.69,35.59L360.56,41.92L365.44,37.64L370.31,43.97L375.18,44.15L380.05,46.2L384.93,46.11L389.8,43.97L394.67,39.78L399.54,40.85L404.42,45.22L409.29,49.5L414.16,44.24L419.03,45.13L423.91,42.9L428.78,42.81L433.65,48.16L438.52,50.39L443.4,44.06L453.14,37.73L458.01,35.59L462.89,32.55L467.76,42.81L472.63,46.02L477.5,46.11L482.38,37.73L487.25,38.89L492.12,35.5L496.99,30.32L501.87,28.27L506.74,35.85L511.61,35.68L516.48,33.62L521.36,33.54L526.23,38.98L531.1,75.9L535.97,33.45L540.85,36.84L545.72,34.61L550.59,30.32L555.46,29.25L560.34,28.27L565.21,31.57L570.08,30.68L574.95,83.3L579.83,85.44L584.7,83.3L589.57,88.56L594.44,89.64L599.32,34.96L604.19,29.61L613.93,33.54L618.81,34.61L623.68,33.54L628.55,34.69L633.42,27.56L638.3,30.5L643.17,32.64L648.04,32.64L652.91,33.8L657.79,32.55L662.66,33.62L667.53,29.25L672.4,37.73L677.28,35.68L691.89,32.46L696.77,35.68L701.64,32.46L706.51,38.89L711.38,34.52L716.26,35.59L721.13,33.45L726,35.59" style="vector-effect: none; fill: none; stroke: rgb(165, 42, 42); stroke-opacity: 1; stroke-width: 2px; opacity: 1;"/></g><g class="points"/><g class="text"/></g><g class="trace scatter traceb5a3c3" style="stroke-miterlimit: 2; opacity: 1;"><g class="fills"/><g class="errorbars"/><g class="lines"><path class="js-line" d="M0,376.2L4.87,296.2L9.74,291.02L14.62,259.09L19.49,190.6L24.36,184.98L29.23,168.92L34.11,174.19L38.98,151.71L43.85,151.26L48.72,149.21L53.6,149.57L58.47,137.8L63.34,136.1L68.21,136.91L73.09,152.42L77.96,139.14L82.83,143.06L87.7,117.02L92.58,136.55L97.45,127.36L102.32,129.06L107.19,118.26L112.07,113.09L116.94,105.78L121.81,108.81L126.68,104.8L131.56,117.73L136.43,139.05L141.3,118.53L146.17,119.16L151.05,114.52L155.92,127.72L165.66,111.13L170.54,107.83L175.41,111.13L180.28,123.79L185.15,115.14L190.03,119.16L194.9,109.88L199.77,114.52L204.64,123.79L209.52,115.77L214.39,111.13L219.26,123.79L224.13,119.16L229.01,137.08L233.88,119.16L238.75,119.16L243.62,140.38L248.5,131.73L253.37,149.66L258.24,131.11L263.11,144.31L267.99,139.05L272.86,123.08L277.73,123.79L282.6,127.09L287.48,140.38L292.35,130.48L297.22,122.55L302.09,126.56L306.97,127.72L316.71,135.12L321.58,122.55L326.46,122.55L331.33,114.52L336.2,136.37L341.07,123.08L345.95,115.14L350.82,123.08L355.69,119.78L360.56,120.49L365.44,111.84L370.31,119.16L375.18,123.79L380.05,123.79L384.93,123.08L389.8,114.52L394.67,133.16L399.54,136.37L404.42,137.08L409.29,128.43L414.16,132.45L419.03,132.45L423.91,136.37L428.78,124.51L433.65,135.75L438.52,123.08L443.4,127.09L448.27,115.77L453.14,111.84L458.01,116.48L462.89,128.43L467.76,127.72L472.63,115.14L477.5,115.14L482.38,107.12L487.25,115.77L492.12,124.51L496.99,99.8L506.74,92.49L511.61,103.82L516.48,103.82L521.36,107.83L526.23,103.82L531.1,157.06L535.97,103.82L540.85,103.82L550.59,119.78L555.46,119.78L560.34,111.84L565.21,111.84L570.08,116.48L574.95,169.55L579.83,177.75L584.7,178.02L589.57,173.65L594.44,165.45L599.32,99.09L604.19,108.54L609.06,103.82L613.93,107.12L618.81,102.48L623.68,111.13L628.55,115.77L633.42,99.8L638.3,103.1L643.17,111.84L648.04,111.84L652.91,102.48L657.79,120.49L662.66,116.48L667.53,97.84L672.4,102.48L677.28,101.85L682.15,98.46L687.02,107.12L691.89,102.48L696.77,106.49L701.64,111.84L706.51,111.13L711.38,119.78L716.26,119.16L721.13,115.14L726,115.14" style="vector-effect: none; fill: none; stroke: rgb(128, 128, 128); stroke-opacity: 1; stroke-width: 2px; opacity: 1;"/></g><g class="points"/><g class="text"/></g></g></g><g class="overplot"/><path class="xlines-above crisp" d="M0,0" style="fill: none;"/><path class="ylines-above crisp" d="M0,0" style="fill: none;"/><g class="overlines-above"/><g class="xaxislayer-above"><g class="xtick"><text text-anchor="middle" x="0" y="509" transform="translate(235.57999999999998,0)" style="font-family: 'Open Sans', verdana, arial, sans-serif; font-size: 12px; fill: rgb(42, 63, 95); fill-opacity: 1; white-space: pre; opacity: 1;">20</text></g><g class="xtick"><text text-anchor="middle" x="0" y="509" style="font-family: 'Open Sans', verdana, arial, sans-serif; font-size: 12px; fill: rgb(42, 63, 95); fill-opacity: 1; white-space: pre; opacity: 1;" transform="translate(333.03,0)">40</text></g><g class="xtick"><text text-anchor="middle" x="0" y="509" style="font-family: 'Open Sans', verdana, arial, sans-serif; font-size: 12px; fill: rgb(42, 63, 95); fill-opacity: 1; white-space: pre; opacity: 1;" transform="translate(430.48,0)">60</text></g><g class="xtick"><text text-anchor="middle" x="0" y="509" style="font-family: 'Open Sans', verdana, arial, sans-serif; font-size: 12px; fill: rgb(42, 63, 95); fill-opacity: 1; white-space: pre; opacity: 1;" transform="translate(527.9300000000001,0)">80</text></g><g class="xtick"><text text-anchor="middle" x="0" y="509" style="font-family: 'Open Sans', verdana, arial, sans-serif; font-size: 12px; fill: rgb(42, 63, 95); fill-opacity: 1; white-space: pre; opacity: 1;" transform="translate(625.38,0)">100</text></g><g class="xtick"><text text-anchor="middle" x="0" y="509" style="font-family: 'Open Sans', verdana, arial, sans-serif; font-size: 12px; fill: rgb(42, 63, 95); fill-opacity: 1; white-space: pre; opacity: 1;" transform="translate(722.83,0)">120</text></g><g class="xtick"><text text-anchor="middle" x="0" y="509" style="font-family: 'Open Sans', verdana, arial, sans-serif; font-size: 12px; fill: rgb(42, 63, 95); fill-opacity: 1; white-space: pre; opacity: 1;" transform="translate(820.28,0)">140</text></g></g><g class="yaxislayer-above"><g class="ytick"><text text-anchor="end" x="142" y="4.199999999999999" transform="translate(0,453.81)" style="font-family: 'Open Sans', verdana, arial, sans-serif; font-size: 12px; fill: rgb(42, 63, 95); fill-opacity: 1; white-space: pre; opacity: 1;">50</text></g><g class="ytick"><text text-anchor="end" x="142" y="4.199999999999999" style="font-family: 'Open Sans', verdana, arial, sans-serif; font-size: 12px; fill: rgb(42, 63, 95); fill-opacity: 1; white-space: pre; opacity: 1;" transform="translate(0,409.22)">55</text></g><g class="ytick"><text text-anchor="end" x="142" y="4.199999999999999" style="font-family: 'Open Sans', verdana, arial, sans-serif; font-size: 12px; fill: rgb(42, 63, 95); fill-opacity: 1; white-space: pre; opacity: 1;" transform="translate(0,364.62)">60</text></g><g class="ytick"><text text-anchor="end" x="142" y="4.199999999999999" style="font-family: 'Open Sans', verdana, arial, sans-serif; font-size: 12px; fill: rgb(42, 63, 95); fill-opacity: 1; white-space: pre; opacity: 1;" transform="translate(0,320.03)">65</text></g><g class="ytick"><text text-anchor="end" x="142" y="4.199999999999999" style="font-family: 'Open Sans', verdana, arial, sans-serif; font-size: 12px; fill: rgb(42, 63, 95); fill-opacity: 1; white-space: pre; opacity: 1;" transform="translate(0,275.44)">70</text></g><g class="ytick"><text text-anchor="end" x="142" y="4.199999999999999" style="font-family: 'Open Sans', verdana, arial, sans-serif; font-size: 12px; fill: rgb(42, 63, 95); fill-opacity: 1; white-space: pre; opacity: 1;" transform="translate(0,230.84)">75</text></g><g class="ytick"><text text-anchor="end" x="142" y="4.199999999999999" style="font-family: 'Open Sans', verdana, arial, sans-serif; font-size: 12px; fill: rgb(42, 63, 95); fill-opacity: 1; white-space: pre; opacity: 1;" transform="translate(0,186.25)">80</text></g><g class="ytick"><text text-anchor="end" x="142" y="4.199999999999999" style="font-family: 'Open Sans', verdana, arial, sans-serif; font-size: 12px; fill: rgb(42, 63, 95); fill-opacity: 1; white-space: pre; opacity: 1;" transform="translate(0,141.65)">85</text></g></g><g class="overaxes-above"/></g></g><g class="polarlayer"/><g class="smithlayer"/><g class="ternarylayer"/><g class="geolayer"/><g class="funnelarealayer"/><g class="pielayer"/><g class="iciclelayer"/><g class="treemaplayer"/><g class="sunburstlayer"/><g class="glimages"/><defs id="topdefs-e1a1fc"><g class="clips"/><clipPath id="legende1a1fc"><rect width="128" height="162" x="0" y="0"/></clipPath></defs><g class="layer-above"><g class="imagelayer"/><g class="shapelayer"/></g><g class="infolayer"><g class="legend" pointer-events="all" transform="translate(883.52,100)"><rect class="bg" shape-rendering="crispEdges" width="128" height="162" x="0" y="0" style="stroke: rgb(68, 68, 68); stroke-opacity: 1; fill: rgb(255, 255, 255); fill-opacity: 1; stroke-width: 0px;"/><g class="scrollbox" transform="" clip-path="url(#legende1a1fc)"><g class="groups"><g class="traces" transform="translate(0,14.5)" style="opacity: 1;"><text class="legendtext" text-anchor="start" x="40" y="4.680000000000001" style="font-family: 'Open Sans', verdana, arial, sans-serif; font-size: 12px; fill: rgb(42, 63, 95); fill-opacity: 1; white-space: pre;">Train Accuracy</text><g class="layers" style="opacity: 1;"><g class="legendfill"/><g class="legendlines"><path class="js-line" d="M5,0h30" style="fill: none; stroke: rgb(255, 0, 0); stroke-opacity: 1; stroke-width: 2px;"/></g><g class="legendsymbols"><g class="legendpoints"/></g></g><rect class="legendtoggle" x="0" y="-9.5" width="122.71875" height="19" style="fill: rgb(0, 0, 0); fill-opacity: 0;"/></g><g class="traces" transform="translate(0,33.5)" style="opacity: 1;"><text class="legendtext" text-anchor="start" x="40" y="4.680000000000001" style="font-family: 'Open Sans', verdana, arial, sans-serif; font-size: 12px; fill: rgb(42, 63, 95); fill-opacity: 1; white-space: pre;">Test Accuracy</text><g class="layers" style="opacity: 1;"><g class="legendfill"/><g class="legendlines"><path class="js-line" d="M5,0h30" style="fill: none; stroke: rgb(0, 0, 255); stroke-opacity: 1; stroke-width: 2px;"/></g><g class="legendsymbols"><g class="legendpoints"/></g></g><rect class="legendtoggle" x="0" y="-9.5" width="122.71875" height="19" style="fill: rgb(0, 0, 0); fill-opacity: 0;"/></g><g class="traces" transform="translate(0,52.5)" style="opacity: 1;"><text class="legendtext" text-anchor="start" x="40" y="4.680000000000001" style="font-family: 'Open Sans', verdana, arial, sans-serif; font-size: 12px; fill: rgb(42, 63, 95); fill-opacity: 1; white-space: pre;">Train Precision</text><g class="layers" style="opacity: 1;"><g class="legendfill"/><g class="legendlines"><path class="js-line" d="M5,0h30" style="fill: none; stroke: rgb(0, 128, 0); stroke-opacity: 1; stroke-width: 2px;"/></g><g class="legendsymbols"><g class="legendpoints"/></g></g><rect class="legendtoggle" x="0" y="-9.5" width="122.71875" height="19" style="fill: rgb(0, 0, 0); fill-opacity: 0;"/></g><g class="traces" transform="translate(0,71.5)" style="opacity: 1;"><text class="legendtext" text-anchor="start" x="40" y="4.680000000000001" style="font-family: 'Open Sans', verdana, arial, sans-serif; font-size: 12px; fill: rgb(42, 63, 95); fill-opacity: 1; white-space: pre;">Test Precision</text><g class="layers" style="opacity: 1;"><g class="legendfill"/><g class="legendlines"><path class="js-line" d="M5,0h30" style="fill: none; stroke: rgb(255, 165, 0); stroke-opacity: 1; stroke-width: 2px;"/></g><g class="legendsymbols"><g class="legendpoints"/></g></g><rect class="legendtoggle" x="0" y="-9.5" width="122.71875" height="19" style="fill: rgb(0, 0, 0); fill-opacity: 0;"/></g><g class="traces" transform="translate(0,90.5)" style="opacity: 1;"><text class="legendtext" text-anchor="start" x="40" y="4.680000000000001" style="font-family: 'Open Sans', verdana, arial, sans-serif; font-size: 12px; fill: rgb(42, 63, 95); fill-opacity: 1; white-space: pre;">Train Recall</text><g class="layers" style="opacity: 1;"><g class="legendfill"/><g class="legendlines"><path class="js-line" d="M5,0h30" style="fill: none; stroke: rgb(128, 0, 128); stroke-opacity: 1; stroke-width: 2px;"/></g><g class="legendsymbols"><g class="legendpoints"/></g></g><rect class="legendtoggle" x="0" y="-9.5" width="122.71875" height="19" style="fill: rgb(0, 0, 0); fill-opacity: 0;"/></g><g class="traces" transform="translate(0,109.5)" style="opacity: 1;"><text class="legendtext" text-anchor="start" x="40" y="4.680000000000001" style="font-family: 'Open Sans', verdana, arial, sans-serif; font-size: 12px; fill: rgb(42, 63, 95); fill-opacity: 1; white-space: pre;">Test Recall</text><g class="layers" style="opacity: 1;"><g class="legendfill"/><g class="legendlines"><path class="js-line" d="M5,0h30" style="fill: none; stroke: rgb(255, 192, 203); stroke-opacity: 1; stroke-width: 2px;"/></g><g class="legendsymbols"><g class="legendpoints"/></g></g><rect class="legendtoggle" x="0" y="-9.5" width="122.71875" height="19" style="fill: rgb(0, 0, 0); fill-opacity: 0;"/></g><g class="traces" transform="translate(0,128.5)" style="opacity: 1;"><text class="legendtext" text-anchor="start" x="40" y="4.680000000000001" style="font-family: 'Open Sans', verdana, arial, sans-serif; font-size: 12px; fill: rgb(42, 63, 95); fill-opacity: 1; white-space: pre;">Train F1</text><g class="layers" style="opacity: 1;"><g class="legendfill"/><g class="legendlines"><path class="js-line" d="M5,0h30" style="fill: none; stroke: rgb(165, 42, 42); stroke-opacity: 1; stroke-width: 2px;"/></g><g class="legendsymbols"><g class="legendpoints"/></g></g><rect class="legendtoggle" x="0" y="-9.5" width="122.71875" height="19" style="fill: rgb(0, 0, 0); fill-opacity: 0;"/></g><g class="traces" transform="translate(0,147.5)" style="opacity: 1;"><text class="legendtext" text-anchor="start" x="40" y="4.680000000000001" style="font-family: 'Open Sans', verdana, arial, sans-serif; font-size: 12px; fill: rgb(42, 63, 95); fill-opacity: 1; white-space: pre;">Test F1</text><g class="layers" style="opacity: 1;"><g class="legendfill"/><g class="legendlines"><path class="js-line" d="M5,0h30" style="fill: none; stroke: rgb(128, 128, 128); stroke-opacity: 1; stroke-width: 2px;"/></g><g class="legendsymbols"><g class="legendpoints"/></g></g><rect class="legendtoggle" x="0" y="-9.5" width="122.71875" height="19" style="fill: rgb(0, 0, 0); fill-opacity: 0;"/></g></g></g><rect class="scrollbar" rx="20" ry="3" width="0" height="0" x="0" y="0" style="fill: rgb(128, 139, 164); fill-opacity: 1;"/></g><g class="g-gtitle"><text class="gtitle" x="51.2" y="50" text-anchor="start" dy="0em" style="font-family: 'Open Sans', verdana, arial, sans-serif; font-size: 17px; fill: rgb(42, 63, 95); opacity: 1; font-weight: normal; white-space: pre;">Training Metrics - logs/FakeNewsNet-politifact_max-vocab=15000_pre=v2_text_T=50_s=15.log</text></g><g class="g-xtitle"><text class="xtitle" x="506" y="537.3" text-anchor="middle" style="font-family: 'Open Sans', verdana, arial, sans-serif; font-size: 14px; fill: rgb(42, 63, 95); opacity: 1; font-weight: normal; white-space: pre;">Epoch</text></g><g class="g-ytitle"><text class="ytitle" transform="rotate(-90,103.965625,298)" x="103.965625" y="298" text-anchor="middle" style="font-family: 'Open Sans', verdana, arial, sans-serif; font-size: 14px; fill: rgb(42, 63, 95); opacity: 1; font-weight: normal; white-space: pre;">Metric Score</text></g></g><g class="menulayer"><g class="updatemenu-container" style="cursor: pointer;"><g class="updatemenu-header-group" transform="translate(12,60)"><g class="updatemenu-header" transform="translate(1,1)" style="pointer-events: all;"><rect class="updatemenu-item-rect" rx="2" ry="2" shape-rendering="crispEdges" x="0" y="0" width="167" height="33" style="stroke: rgb(190, 200, 217); stroke-opacity: 1; fill: rgb(255, 255, 255); fill-opacity: 1; stroke-width: 1px;"/><text class="updatemenu-item-text" text-anchor="start" data-notex="1" x="12" y="19.5" style="font-family: 'Open Sans', verdana, arial, sans-serif; font-size: 12px; fill: rgb(42, 63, 95); fill-opacity: 1; white-space: pre;">All</text></g><text class="updatemenu-header-arrow" text-anchor="end" x="163" y="19.5" style="font-family: 'Open Sans', verdana, arial, sans-serif; font-size: 12px; fill: rgb(42, 63, 95); fill-opacity: 1;">▼</text></g><g class="updatemenu-dropdown-button-group" updatemenu-active-index="-1" style="pointer-events: all;"><rect class="scrollbox-bg" opacity="0" x="0" y="0" width="0" height="0" style="pointer-events: all;"/></g></g></g></svg>