<svg class="main-svg" xmlns="http://www.w3.org/2000/svg" xmlns:xlink="http://www.w3.org/1999/xlink" width="1024" height="576" style="" viewBox="0 0 1024 576"><rect x="0" y="0" width="1024" height="576" style="fill: rgb(255, 255, 255); fill-opacity: 1;"/><defs id="defs-ffe756"><g class="clips"><clipPath id="clipffe756xyplot" class="plotclip"><rect width="726" height="396"/></clipPath><clipPath class="axesclip" id="clipffe756x"><rect x="143" y="0" width="726" height="576"/></clipPath><clipPath class="axesclip" id="clipffe756y"><rect x="0" y="100" width="1024" height="396"/></clipPath><clipPath class="axesclip" id="clipffe756xy"><rect x="143" y="100" width="726" height="396"/></clipPath></g><g class="gradients"/><g class="patterns"/></defs><g class="bglayer"><rect class="bg" x="143" y="100" width="726" height="396" style="fill: rgb(229, 236, 246); fill-opacity: 1; stroke-width: 0;"/></g><g class="layer-below"><g class="imagelayer"/><g class="shapelayer"/></g><g class="cartesianlayer"><g class="subplot xy"><g class="layer-subplot"><g class="shapelayer"/><g class="imagelayer"/></g><g class="minor-gridlayer"><g class="x"/><g class="y"/></g><g class="gridlayer"><g class="x"><path class="xgrid crisp" transform="translate(235.57999999999998,0)" d="M0,100v396" style="stroke: rgb(255, 255, 255); stroke-opacity: 1; stroke-width: 1px;"/><path class="xgrid crisp" transform="translate(333.03,0)" d="M0,100v396" style="stroke: rgb(255, 255, 255); stroke-opacity: 1; stroke-width: 1px;"/><path class="xgrid crisp" transform="translate(430.48,0)" d="M0,100v396" style="stroke: rgb(255, 255, 255); stroke-opacity: 1; stroke-width: 1px;"/><path class="xgrid crisp" transform="translate(527.9300000000001,0)" d="M0,100v396" style="stroke: rgb(255, 255, 255); stroke-opacity: 1; stroke-width: 1px;"/><path class="xgrid crisp" transform="translate(625.38,0)" d="M0,100v396" style="stroke: rgb(255, 255, 255); stroke-opacity: 1; stroke-width: 1px;"/><path class="xgrid crisp" transform="translate(722.83,0)" d="M0,100v396" style="stroke: rgb(255, 255, 255); stroke-opacity: 1; stroke-width: 1px;"/><path class="xgrid crisp" transform="translate(820.28,0)" d="M0,100v396" style="stroke: rgb(255, 255, 255); stroke-opacity: 1; stroke-width: 1px;"/></g><g class="y"><path class="ygrid crisp" transform="translate(0,480.65)" d="M143,0h726" style="stroke: rgb(255, 255, 255); stroke-opacity: 1; stroke-width: 1px;"/><path class="ygrid crisp" transform="translate(0,433.82)" d="M143,0h726" style="stroke: rgb(255, 255, 255); stroke-opacity: 1; stroke-width: 1px;"/><path class="ygrid crisp" transform="translate(0,386.98)" d="M143,0h726" style="stroke: rgb(255, 255, 255); stroke-opacity: 1; stroke-width: 1px;"/><path class="ygrid crisp" transform="translate(0,340.15)" d="M143,0h726" style="stroke: rgb(255, 255, 255); stroke-opacity: 1; stroke-width: 1px;"/><path class="ygrid crisp" transform="translate(0,293.32)" d="M143,0h726" style="stroke: rgb(255, 255, 255); stroke-opacity: 1; stroke-width: 1px;"/><path class="ygrid crisp" transform="translate(0,246.48)" d="M143,0h726" style="stroke: rgb(255, 255, 255); stroke-opacity: 1; stroke-width: 1px;"/><path class="ygrid crisp" transform="translate(0,199.65)" d="M143,0h726" style="stroke: rgb(255, 255, 255); stroke-opacity: 1; stroke-width: 1px;"/><path class="ygrid crisp" transform="translate(0,152.82)" d="M143,0h726" style="stroke: rgb(255, 255, 255); stroke-opacity: 1; stroke-width: 1px;"/><path class="ygrid crisp" transform="translate(0,105.98)" d="M143,0h726" style="stroke: rgb(255, 255, 255); stroke-opacity: 1; stroke-width: 1px;"/></g></g><g class="zerolinelayer"/><path class="xlines-below"/><path class="ylines-below"/><g class="overlines-below"/><g class="xaxislayer-below"/><g class="yaxislayer-below"/><g class="overaxes-below"/><g class="plot" transform="translate(143,100)" clip-path="url(#clipffe756xyplot)"><g class="scatterlayer mlayer"><g class="trace scatter trace6df6f7" style="stroke-miterlimit: 2; opacity: 1;"><g class="fills"/><g class="errorbars"/><g class="lines"><path class="js-line" d="M0,282.53L4.87,218.14L9.74,219.78L14.62,168.73L19.49,185.12L24.36,191.91L29.23,187.46L34.11,178.1L38.98,163.58L43.85,114.64L48.72,128.45L53.6,151.64L58.47,159.6L63.34,123.77L68.21,131.5L73.09,122.36L77.96,120.96L82.83,100.82L87.7,97.07L92.58,106.68L97.45,104.8L102.32,90.52L107.19,65.7L112.07,71.08L116.94,85.83L121.81,55.63L126.68,94.5L131.56,71.08L136.43,66.4L141.3,62.42L146.17,60.31L151.05,88.18L155.92,88.88L160.79,96.84L165.66,86.07L170.54,77.87L175.41,80.92L180.28,81.39L185.15,78.11L190.03,82.56L194.9,74.59L199.77,85.83L204.64,76.94L209.52,56.1L214.39,70.85L219.26,83.02L224.13,87.47L229.01,83.26L233.88,103.87L238.75,110.89L243.62,72.72L248.5,76.23L253.37,51.18L263.11,74.59L267.99,62.42L272.86,69.68L277.73,50.01L282.6,32.21L287.48,46.49L292.35,52.58L297.22,55.16L302.09,46.49L306.97,62.89L311.84,71.32L316.71,94.03L321.58,98.48L326.46,93.33L331.33,85.6L336.2,93.33L341.07,93.33L345.95,86.07L350.82,76L355.69,83.49L360.56,45.32L365.44,55.86L370.31,64.76L375.18,90.28L380.05,83.49L384.93,81.85L389.8,84.43L394.67,89.11L399.54,92.16L404.42,69.91L409.29,85.13L414.16,48.6L419.03,63.35L423.91,88.41L428.78,90.28L433.65,80.21L438.52,95.9L443.4,74.83L448.27,90.28L453.14,53.05L458.01,84.9L462.89,80.21L467.76,77.87L472.63,79.75L477.5,55.63L482.38,51.41L487.25,72.72L492.12,47.67L496.99,40.17L501.87,51.65L506.74,51.65L511.61,65.46L516.48,66.4L521.36,56.33L526.23,58.44L531.1,69.68L535.97,74.83L540.85,66.63L545.72,60.31L550.59,70.61L555.46,70.38L560.34,53.52L565.21,57.73L570.08,58.44L574.95,88.88L579.83,58.91L584.7,52.82L589.57,53.52L599.32,32.68L604.19,34.32L609.06,37.6L613.93,75.06L618.81,58.91L623.68,66.87L628.55,59.14L633.42,63.35L638.3,81.85L643.17,60.78L648.04,49.54L652.91,49.3L657.79,61.25L662.66,69.91L667.53,43.92L672.4,43.92L677.28,54.22L682.15,40.41L687.02,49.3L691.89,22.38L696.77,24.48L701.64,31.27L706.51,37.36L711.38,19.8L716.26,36.19L721.13,39.94L726,32.44" style="vector-effect: none; fill: none; stroke: rgb(255, 0, 0); stroke-opacity: 1; stroke-width: 2px; opacity: 1;"/></g><g class="points"/><g class="text"/></g><g class="trace scatter trace3ddb3d" style="stroke-miterlimit: 2; opacity: 1;"><g class="fills"/><g class="errorbars"/><g class="lines"><path class="js-line" d="M0,291.67L4.87,231.95L9.74,253.03L14.62,213.45L19.49,220.95L24.36,232.42L29.23,206.66L34.11,191.68L38.98,201.75L43.85,145.78L48.72,159.6L53.6,190.74L58.47,194.49L63.34,165.22L68.21,174.82L73.09,162.17L77.96,154.21L82.83,135.71L87.7,127.75L92.58,140.4L97.45,135.71L102.32,124L107.19,106.68L112.07,103.87L116.94,117.68L121.81,89.11L126.68,125.17L131.56,118.85L136.43,103.4L141.3,105.5L146.17,110.42L151.05,127.28L155.92,123.54L160.79,130.33L165.66,115.11L170.54,105.04L175.41,115.11L180.28,113.93L185.15,120.26L194.9,103.87L199.77,117.68L204.64,98.71L209.52,90.28L214.39,98.71L219.26,118.15L224.13,125.64L229.01,123.07L233.88,145.31L238.75,152.57L243.62,104.57L248.5,116.74L253.37,87.01L258.24,94.97L263.11,105.97L267.99,99.18L272.86,105.04L277.73,83.96L282.6,69.68L287.48,91.69L292.35,105.97L297.22,101.29L302.09,101.76L306.97,108.78L311.84,122.36L316.71,131.5L321.58,131.97L326.46,136.18L331.33,131.97L336.2,135.71L341.07,152.1L345.95,135.71L355.69,119.79L360.56,86.07L365.44,105.5L370.31,109.25L375.18,125.17L380.05,121.9L384.93,121.43L389.8,126.81L394.67,124L399.54,133.6L404.42,110.89L409.29,126.81L414.16,88.18L419.03,108.08L423.91,123.07L428.78,127.75L433.65,112.53L438.52,124.71L443.4,103.4L448.27,125.17L453.14,97.54L458.01,114.64L462.89,114.64L467.76,110.42L472.63,109.25L477.5,97.54L482.38,92.86L487.25,112.53L492.12,86.07L496.99,80.21L501.87,96.61L506.74,91.22L511.61,101.76L516.48,98.25L521.36,87.47L526.23,87.47L535.97,108.08L540.85,92.86L545.72,100.35L550.59,113L560.34,92.39L565.21,80.68L570.08,90.75L574.95,110.89L579.83,94.5L584.7,95.44L589.57,96.14L594.44,82.32L604.19,83.96L609.06,86.54L613.93,116.04L618.81,95.44L623.68,112.53L628.55,107.61L633.42,108.08L638.3,131.03L643.17,104.57L648.04,100.82L652.91,100.82L657.79,98.71L662.66,103.4L667.53,78.58L672.4,91.22L677.28,88.64L682.15,71.78L687.02,72.25L691.89,54.22L696.77,63.82L701.64,64.76L706.51,69.68L711.38,65.93L716.26,79.04L721.13,88.18L726,88.18" style="vector-effect: none; fill: none; stroke: rgb(0, 0, 255); stroke-opacity: 1; stroke-width: 2px; opacity: 1;"/></g><g class="points"/><g class="text"/></g><g class="trace scatter trace4c0493" style="stroke-miterlimit: 2; opacity: 1;"><g class="fills"/><g class="errorbars"/><g class="lines"><path class="js-line" d="M0,348.8L4.87,316.25L9.74,319.3L14.62,292.13L19.49,292.6L24.36,289.79L29.23,287.92L34.11,281.6L38.98,272.23L43.85,258.88L48.72,261.22L53.6,268.25L58.47,270.36L63.34,245.07L68.21,249.52L73.09,249.28L77.96,247.64L82.83,237.11L87.7,234.3L92.58,237.57L97.45,235.93L102.32,229.38L107.19,220.95L112.07,221.88L116.94,229.61L121.81,211.35L126.68,232.42L131.56,220.95L136.43,216.5L141.3,212.05L146.17,213.69L151.05,230.31L155.92,230.08L160.79,234.53L165.66,226.57L170.54,221.88L175.41,225.16L180.28,226.57L185.15,223.52L190.03,228.68L194.9,223.52L199.77,230.08L204.64,224.93L209.52,212.75L214.39,221.88L224.13,229.14L229.01,226.57L238.75,245.07L243.62,223.06L248.5,221.18L253.37,209.01L258.24,214.16L263.11,221.88L267.99,214.63L272.86,217.2L277.73,208.3L282.6,195.42L287.48,202.92L292.35,206.9L297.22,210.64L302.09,203.85L306.97,213.45L311.84,217.44L316.71,227.5L321.58,232.89L326.46,228.21L331.33,227.74L336.2,233.59L341.07,228.68L350.82,220.48L355.69,224.93L360.56,202.45L365.44,208.77L370.31,214.16L375.18,227.74L380.05,225.16L384.93,223.99L389.8,226.57L394.67,230.55L399.54,231.49L404.42,219.07L409.29,228.21L414.16,208.77L419.03,215.33L423.91,231.49L433.65,226.8L438.52,236.17L443.4,225.63L448.27,231.72L453.14,209.01L458.01,227.74L462.89,223.52L467.76,223.29L472.63,225.87L477.5,207.83L482.38,206.9L487.25,220.95L492.12,207.6L496.99,206.43L501.87,211.35L506.74,210.18L511.61,217.67L516.48,217.67L521.36,210.88L526.23,211.58L531.1,219.78L535.97,223.99L540.85,217.44L545.72,212.75L550.59,222.59L555.46,223.52L560.34,211.35L565.21,211.58L570.08,211.82L574.95,227.97L579.83,210.41L584.7,205.73L589.57,209.47L594.44,205.02L599.32,195.66L604.19,201.28L609.06,201.98L613.93,226.8L618.81,214.16L623.68,217.2L628.55,208.54L633.42,214.86L638.3,224.93L643.17,211.82L648.04,203.15L652.91,205.26L657.79,211.58L662.66,220.71L667.53,204.56L672.4,203.39L677.28,210.41L682.15,202.68L687.02,209.24L691.89,189.34L696.77,190.04L701.64,197.06L706.51,200.34L711.38,190.74L716.26,202.45L721.13,203.85L726,196.6" style="vector-effect: none; fill: none; stroke: rgb(0, 128, 0); stroke-opacity: 1; stroke-width: 2px; opacity: 1;"/></g><g class="points"/><g class="text"/></g><g class="trace scatter tracebc461e" style="stroke-miterlimit: 2; opacity: 1;"><g class="fills"/><g class="errorbars"/><g class="lines"><path class="js-line" d="M0,339.2L4.87,316.49L9.74,337.09L14.62,320.7L19.49,310.87L24.36,315.79L29.23,297.05L34.11,291.9L38.98,300.8L43.85,282.3L48.72,279.72L53.6,291.67L58.47,286.51L63.34,269.89L68.21,271.29L73.09,272L77.96,265.91L82.83,258.65L87.7,256.78L92.58,260.99L97.45,252.79L107.19,250.45L112.07,245.77L116.94,248.58L121.81,235L126.68,249.28L131.56,255.37L136.43,246.47L141.3,243.43L146.17,252.79L151.05,258.88L155.92,256.31L160.79,260.99L165.66,248.81L170.54,244.13L175.41,253.26L180.28,250.22L185.15,254.2L190.03,248.35L194.9,247.64L199.77,254.43L204.64,239.21L209.52,237.34L214.39,237.34L219.26,247.88L224.13,253.26L229.01,254.67L233.88,267.08L238.75,272.23L243.62,245.07L248.5,247.17L253.37,234.3L258.24,234.76L263.11,241.79L267.99,238.98L272.86,240.62L277.73,230.31L282.6,225.63L287.48,237.34L292.35,246.94L297.22,243.19L302.09,244.36L306.97,246.71L311.84,253.97L316.71,248.81L321.58,251.62L326.46,257.01L331.33,257.01L336.2,261.22L341.07,269.89L345.95,259.59L350.82,258.88L355.69,251.39L360.56,235L365.44,247.41L370.31,246L375.18,250.92L380.05,253.97L384.93,251.16L389.8,254.67L394.67,251.86L399.54,257.24L404.42,247.17L409.29,255.14L414.16,236.17L419.03,248.35L423.91,251.86L428.78,250.45L433.65,245.3L438.52,250.92L443.4,241.55L448.27,252.56L453.14,239.21L462.89,244.83L467.76,243.9L472.63,244.83L477.5,237.81L482.38,237.34L487.25,250.92L492.12,237.11L496.99,235.7L501.87,244.6L506.74,237.81L511.61,239.92L516.48,236.87L521.36,228.21L526.23,230.08L531.1,235.47L535.97,245.3L540.85,233.83L545.72,242.26L550.59,253.03L555.46,244.36L560.34,242.02L565.21,227.27L570.08,235.7L574.95,242.26L579.83,238.51L584.7,238.51L589.57,240.85L594.44,236.17L599.32,236.64L604.19,242.49L609.06,242.73L613.93,252.33L618.81,239.21L623.68,246.71L628.55,244.13L633.42,246.94L638.3,260.05L643.17,242.96L648.04,242.02L652.91,245.54L657.79,236.64L662.66,241.55L667.53,228.68L672.4,238.04L682.15,224.93L687.02,221.88L691.89,210.88L696.77,219.78L706.51,222.59L711.38,228.44L726,244.36" style="vector-effect: none; fill: none; stroke: rgb(255, 165, 0); stroke-opacity: 1; stroke-width: 2px; opacity: 1;"/></g><g class="points"/><g class="text"/></g><g class="trace scatter tracebb4859" style="stroke-miterlimit: 2; opacity: 1;"><g class="fills"/><g class="errorbars"/><g class="lines"><path class="js-line" d="M0,255.14L4.87,218.61L9.74,223.06L14.62,196.6L19.49,190.51L24.36,183.72L29.23,182.31L34.11,174.82L38.98,164.75L43.85,166.86L48.72,162.41L58.47,163.34L63.34,135.95L73.09,144.38L77.96,141.8L82.83,134.78L87.7,132.2L92.58,131.73L97.45,130.33L102.32,127.52L107.19,131.5L112.07,128.22L116.94,131.73L121.81,121.43L126.68,130.56L131.56,126.81L136.43,121.66L141.3,116.04L146.17,121.43L151.05,131.03L155.92,129.86L160.79,132.9L165.66,125.17L170.54,122.36L175.41,126.35L180.28,129.16L185.15,125.64L190.03,132.2L194.9,128.45L199.77,132.2L204.64,129.39L209.52,123.77L214.39,128.45L219.26,126.35L224.13,129.39L229.01,127.52L233.88,131.97L238.75,143.44L243.62,129.16L248.5,122.36L253.37,120.96L258.24,120.26L263.11,125.41L267.99,121.66L272.86,119.79L277.73,120.96L282.6,112.76L287.48,112.76L292.35,114.87L297.22,120.49L302.09,114.87L306.97,118.38L311.84,119.32L316.71,121.19L321.58,128.69L326.46,123.07L331.33,127.98L336.2,133.6L341.07,123.77L345.95,120.96L350.82,121.43L355.69,124L360.56,113L370.31,118.15L375.18,124.24L380.05,124.47L384.93,123.54L389.8,126.58L394.67,130.56L399.54,130.09L404.42,123.77L409.29,129.16L414.16,123.3L419.03,122.36L423.91,133.37L428.78,127.28L433.65,130.79L438.52,136.65L443.4,132.67L448.27,132.43L453.14,119.09L458.01,128.69L462.89,123.77L467.76,125.41L472.63,128.69L477.5,113.93L482.38,116.28L487.25,125.17L492.12,121.66L496.99,128.45L501.87,125.41L506.74,123.07L511.61,124.71L516.48,124L521.36,119.55L526.23,118.85L531.1,125.41L535.97,129.39L540.85,123.54L545.72,119.79L550.59,130.56L555.46,132.43L560.34,123.3L565.21,119.55L570.08,119.32L574.95,125.64L579.83,116.04L584.7,112.3L589.57,119.32L594.44,121.66L599.32,113L604.19,123.77L609.06,121.43L613.93,135.24L618.81,124L623.68,122.83L628.55,111.83L633.42,120.96L638.3,125.64L648.04,109.72L652.91,115.11L657.79,116.28L662.66,127.05L667.53,119.55L672.4,117.21L677.28,121.19L682.15,119.32L687.02,124L691.89,112.53L696.77,111.12L701.64,117.92L706.51,118.15L711.38,119.55L716.26,124.24L721.13,122.6L726,115.34" style="vector-effect: none; fill: none; stroke: rgb(128, 0, 128); stroke-opacity: 1; stroke-width: 2px; opacity: 1;"/></g><g class="points"/><g class="text"/></g><g class="trace scatter trace9371be" style="stroke-miterlimit: 2; opacity: 1;"><g class="fills"/><g class="errorbars"/><g class="lines"><path class="js-line" d="M0,240.62L4.87,216.26L9.74,243.66L19.49,210.41L24.36,215.09L29.23,191.91L34.11,188.17L38.98,199.4L43.85,191.68L48.72,180.44L53.6,188.17L58.47,178.8L63.34,161L68.21,159.83L73.09,165.69L77.96,158.89L82.83,154.91L92.58,156.55L97.45,144.61L102.32,148.83L107.19,157.49L112.07,150.7L116.94,146.95L121.81,140.86L126.68,143.67L131.56,158.89L136.43,152.57L141.3,144.84L146.17,159.36L151.05,159.83L155.92,157.49L160.79,161.94L165.66,148.83L170.54,146.72L175.41,157.26L180.28,151.87L185.15,155.38L190.03,150.23L194.9,154.45L199.77,157.49L204.64,141.8L209.52,144.61L214.39,138.05L219.26,145.08L224.13,150.7L229.01,154.91L233.88,164.98L238.75,170.6L243.62,148.59L253.37,140.86L258.24,135.71L263.11,141.57L267.99,140.63L272.86,140.16L277.73,135.95L282.6,139.22L287.48,143.44L292.35,151.17L297.22,147.42L302.09,149.29L306.97,149.29L311.84,153.74L316.71,139.46L321.58,144.38L326.46,151.64L331.33,153.98L336.2,159.6L341.07,166.62L345.95,156.55L350.82,159.6L355.69,150.46L360.56,143.21L365.44,152.34L370.31,147.42L375.18,146.48L380.05,154.21L384.93,149.29L389.8,152.81L394.67,148.83L399.54,153.74L404.42,148.36L409.29,153.51L414.16,143.91L419.03,152.57L423.91,149.76L428.78,144.61L433.65,144.14L438.52,146.95L443.4,142.74L448.27,149.53L453.14,142.74L458.01,136.65L462.89,141.8L467.76,142.74L472.63,145.08L477.5,139.69L482.38,142.5L487.25,154.68L492.12,147.65L496.99,150L501.87,153.98L506.74,144.38L511.61,140.86L516.48,137.82L521.36,128.69L526.23,132.43L531.1,134.78L535.97,146.72L540.85,135.71L550.59,157.96L555.46,148.36L560.34,151.87L565.21,132.2L570.08,141.1L574.95,139.46L579.83,143.67L584.7,142.74L589.57,146.95L594.44,149.06L599.32,149.29L604.19,160.53L609.06,158.66L613.93,154.91L618.81,144.38L623.68,146.48L628.55,144.84L633.42,149.76L638.3,160.07L643.17,145.08L648.04,145.55L652.91,152.34L657.79,136.65L662.66,142.74L667.53,136.88L672.4,145.31L677.28,133.84L682.15,135.24L691.89,123.07L696.77,132.43L701.64,134.54L706.51,132.43L711.38,148.83L716.26,146.95L721.13,150.7L726,160.3" style="vector-effect: none; fill: none; stroke: rgb(255, 192, 203); stroke-opacity: 1; stroke-width: 2px; opacity: 1;"/></g><g class="points"/><g class="text"/></g><g class="trace scatter tracee1a1b7" style="stroke-miterlimit: 2; opacity: 1;"><g class="fills"/><g class="errorbars"/><g class="lines"><path class="js-line" d="M0,376.2L4.87,324.92L9.74,327.73L14.62,287.69L19.49,294.24L24.36,295.41L29.23,292.13L34.11,283.7L38.98,271.06L43.85,243.9L48.72,249.75L53.6,263.57L58.47,268.02L63.34,235.7L68.21,241.79L73.09,238.51L77.96,236.4L82.83,221.65L87.7,218.37L92.58,223.76L97.45,222.12L102.32,212.28L107.19,199.64L112.07,201.28L116.94,211.35L121.81,189.1L126.68,216.03L131.56,200.58L136.43,195.42L141.3,190.51L146.17,191.91L151.05,212.52L155.92,212.52L160.79,218.37L165.66,208.54L170.54,202.68L175.41,206.2L180.28,207.6L185.15,204.32L190.03,209.71L194.9,203.39L199.77,211.58L204.64,205.26L209.52,190.51L214.39,201.28L219.26,207.37L224.13,211.35L229.01,208.07L233.88,222.12L238.75,231.25L243.62,202.68L248.5,201.75L253.37,186.29L258.24,192.85L263.11,201.98L267.99,193.32L272.86,196.83L277.73,185.59L282.6,171.31L287.48,179.74L292.35,184.42L297.22,188.4L302.09,180.67L306.97,192.15L311.84,197.3L316.71,211.82L321.58,217.67L326.46,212.05L331.33,209.71L336.2,216.73L341.07,212.52L350.82,201.04L355.69,206.66L360.56,179.27L365.44,186.53L370.31,192.85L375.18,210.88L380.05,206.9L384.93,205.49L389.8,208.54L394.67,212.99L399.54,214.63L404.42,198.47L409.29,209.94L414.16,186.06L419.03,194.02L423.91,213.69L428.78,212.05L433.65,207.6L438.52,219.54L443.4,205.49L448.27,214.39L453.14,186.53L458.01,209.47L462.89,204.56L467.76,204.09L472.63,206.66L477.5,185.59L482.38,184.18L487.25,200.81L492.12,184.65L496.99,183.48L501.87,188.63L506.74,187.7L511.61,196.36L516.48,196.6L521.36,188.63L526.23,189.57L531.1,199.17L535.97,203.85L540.85,196.36L545.72,190.98L550.59,201.98L555.46,202.92L560.34,188.87L570.08,189.8L574.95,210.64L579.83,188.63L584.7,183.25L589.57,186.99L594.44,181.84L599.32,171.77L604.19,177.86L609.06,178.56L613.93,206.66L618.81,192.15L623.68,196.36L628.55,186.76L633.42,193.55L638.3,206.43L643.17,190.04L648.04,180.2L652.91,182.31L657.79,190.04L662.66,200.11L667.53,181.37L672.4,180.2L677.28,188.17L682.15,179.27L687.02,186.53L691.89,165.22L696.77,165.92L701.64,173.18L706.51,176.93L711.38,167.32L716.26,179.03L721.13,180.44L726,172.71" style="vector-effect: none; fill: none; stroke: rgb(165, 42, 42); stroke-opacity: 1; stroke-width: 2px; opacity: 1;"/></g><g class="points"/><g class="text"/></g><g class="trace scatter trace585240" style="stroke-miterlimit: 2; opacity: 1;"><g class="fills"/><g class="errorbars"/><g class="lines"><path class="js-line" d="M0,375.26L4.87,331.01L9.74,354.19L14.62,325.62L19.49,322.34L24.36,330.77L29.23,306.65L34.11,296.58L38.98,306.89L43.85,272L48.72,274.81L53.6,295.88L58.47,294.24L63.34,269.89L68.21,275.04L73.09,269.89L77.96,262.63L82.83,249.98L87.7,245.77L92.58,253.5L97.45,245.77L112.07,229.85L116.94,236.17L121.81,216.97L126.68,238.98L131.56,242.02L136.43,230.31L141.3,228.21L146.17,237.34L151.05,247.41L155.92,244.13L160.79,249.98L165.66,235.47L170.54,228.68L175.41,239.21L180.28,236.17L185.15,241.32L190.03,233.83L194.9,231.49L199.77,240.85L204.64,222.82L209.52,219.07L214.39,221.18L219.26,235.7L224.13,242.26L229.01,242.73L233.88,259.82L238.75,266.61L243.62,229.14L248.5,234.53L253.37,215.8L258.24,217.9L263.11,227.04L267.99,222.59L272.86,225.63L277.73,211.58L282.6,204.79L287.48,219.54L292.35,231.25L297.22,226.8L302.09,227.97L306.97,231.95L311.84,241.79L316.71,241.09L321.58,243.43L326.46,249.05L331.33,247.41L336.2,252.09L341.07,264.5L345.95,250.69L350.82,247.41L355.69,238.98L360.56,216.03L365.44,231.49L370.31,231.49L375.18,240.38L380.05,241.79L384.93,239.45L389.8,243.9L394.67,240.62L399.54,248.35L404.42,232.89L409.29,244.13L414.16,217.67L419.03,233.12L423.91,240.38L428.78,241.09L433.65,231.95L438.52,240.15L443.4,226.1L448.27,241.55L453.14,222.59L458.01,229.85L462.89,232.19L467.76,230.08L472.63,230.31L477.5,221.18L482.38,219.78L487.25,236.4L492.12,218.14L496.99,216.03L501.87,227.04L506.74,219.78L511.61,224.23L516.48,220.71L521.36,210.41L526.23,212.05L531.1,219.31L535.97,230.55L540.85,216.73L545.72,225.87L550.59,238.28L555.46,228.21L560.34,223.76L565.21,208.07L574.95,228.91L579.83,221.18L584.7,221.42L589.57,223.52L594.44,216.73L599.32,217.2L604.19,223.06L609.06,223.52L613.93,238.74L618.81,222.12L623.68,232.89L628.55,229.38L633.42,231.72L638.3,249.52L643.17,227.5L648.04,225.63L652.91,228.68L657.79,220.48L662.66,226.1L667.53,209.01L672.4,220.01L677.28,213.45L682.15,204.32L687.02,201.75L691.89,188.4L696.77,198.23L706.51,201.75L711.38,207.37L721.13,220.71L726,225.4" style="vector-effect: none; fill: none; stroke: rgb(128, 128, 128); stroke-opacity: 1; stroke-width: 2px; opacity: 1;"/></g><g class="points"/><g class="text"/></g></g></g><g class="overplot"/><path class="xlines-above crisp" d="M0,0" style="fill: none;"/><path class="ylines-above crisp" d="M0,0" style="fill: none;"/><g class="overlines-above"/><g class="xaxislayer-above"><g class="xtick"><text text-anchor="middle" x="0" y="509" transform="translate(235.57999999999998,0)" style="font-family: 'Open Sans', verdana, arial, sans-serif; font-size: 12px; fill: rgb(42, 63, 95); fill-opacity: 1; white-space: pre; opacity: 1;">20</text></g><g class="xtick"><text text-anchor="middle" x="0" y="509" style="font-family: 'Open Sans', verdana, arial, sans-serif; font-size: 12px; fill: rgb(42, 63, 95); fill-opacity: 1; white-space: pre; opacity: 1;" transform="translate(333.03,0)">40</text></g><g class="xtick"><text text-anchor="middle" x="0" y="509" style="font-family: 'Open Sans', verdana, arial, sans-serif; font-size: 12px; fill: rgb(42, 63, 95); fill-opacity: 1; white-space: pre; opacity: 1;" transform="translate(430.48,0)">60</text></g><g class="xtick"><text text-anchor="middle" x="0" y="509" style="font-family: 'Open Sans', verdana, arial, sans-serif; font-size: 12px; fill: rgb(42, 63, 95); fill-opacity: 1; white-space: pre; opacity: 1;" transform="translate(527.9300000000001,0)">80</text></g><g class="xtick"><text text-anchor="middle" x="0" y="509" style="font-family: 'Open Sans', verdana, arial, sans-serif; font-size: 12px; fill: rgb(42, 63, 95); fill-opacity: 1; white-space: pre; opacity: 1;" transform="translate(625.38,0)">100</text></g><g class="xtick"><text text-anchor="middle" x="0" y="509" style="font-family: 'Open Sans', verdana, arial, sans-serif; font-size: 12px; fill: rgb(42, 63, 95); fill-opacity: 1; white-space: pre; opacity: 1;" transform="translate(722.83,0)">120</text></g><g class="xtick"><text text-anchor="middle" x="0" y="509" style="font-family: 'Open Sans', verdana, arial, sans-serif; font-size: 12px; fill: rgb(42, 63, 95); fill-opacity: 1; white-space: pre; opacity: 1;" transform="translate(820.28,0)">140</text></g></g><g class="yaxislayer-above"><g class="ytick"><text text-anchor="end" x="142" y="4.199999999999999" transform="translate(0,480.65)" style="font-family: 'Open Sans', verdana, arial, sans-serif; font-size: 12px; fill: rgb(42, 63, 95); fill-opacity: 1; white-space: pre; opacity: 1;">60</text></g><g class="ytick"><text text-anchor="end" x="142" y="4.199999999999999" style="font-family: 'Open Sans', verdana, arial, sans-serif; font-size: 12px; fill: rgb(42, 63, 95); fill-opacity: 1; white-space: pre; opacity: 1;" transform="translate(0,433.82)">62</text></g><g class="ytick"><text text-anchor="end" x="142" y="4.199999999999999" style="font-family: 'Open Sans', verdana, arial, sans-serif; font-size: 12px; fill: rgb(42, 63, 95); fill-opacity: 1; white-space: pre; opacity: 1;" transform="translate(0,386.98)">64</text></g><g class="ytick"><text text-anchor="end" x="142" y="4.199999999999999" style="font-family: 'Open Sans', verdana, arial, sans-serif; font-size: 12px; fill: rgb(42, 63, 95); fill-opacity: 1; white-space: pre; opacity: 1;" transform="translate(0,340.15)">66</text></g><g class="ytick"><text text-anchor="end" x="142" y="4.199999999999999" style="font-family: 'Open Sans', verdana, arial, sans-serif; font-size: 12px; fill: rgb(42, 63, 95); fill-opacity: 1; white-space: pre; opacity: 1;" transform="translate(0,293.32)">68</text></g><g class="ytick"><text text-anchor="end" x="142" y="4.199999999999999" style="font-family: 'Open Sans', verdana, arial, sans-serif; font-size: 12px; fill: rgb(42, 63, 95); fill-opacity: 1; white-space: pre; opacity: 1;" transform="translate(0,246.48)">70</text></g><g class="ytick"><text text-anchor="end" x="142" y="4.199999999999999" style="font-family: 'Open Sans', verdana, arial, sans-serif; font-size: 12px; fill: rgb(42, 63, 95); fill-opacity: 1; white-space: pre; opacity: 1;" transform="translate(0,199.65)">72</text></g><g class="ytick"><text text-anchor="end" x="142" y="4.199999999999999" style="font-family: 'Open Sans', verdana, arial, sans-serif; font-size: 12px; fill: rgb(42, 63, 95); fill-opacity: 1; white-space: pre; opacity: 1;" transform="translate(0,152.82)">74</text></g><g class="ytick"><text text-anchor="end" x="142" y="4.199999999999999" style="font-family: 'Open Sans', verdana, arial, sans-serif; font-size: 12px; fill: rgb(42, 63, 95); fill-opacity: 1; white-space: pre; opacity: 1;" transform="translate(0,105.98)">76</text></g></g><g class="overaxes-above"/></g></g><g class="polarlayer"/><g class="smithlayer"/><g class="ternarylayer"/><g class="geolayer"/><g class="funnelarealayer"/><g class="pielayer"/><g class="iciclelayer"/><g class="treemaplayer"/><g class="sunburstlayer"/><g class="glimages"/><defs id="topdefs-ffe756"><g class="clips"/><clipPath id="legendffe756"><rect width="128" height="162" x="0" y="0"/></clipPath></defs><g class="layer-above"><g class="imagelayer"/><g class="shapelayer"/></g><g class="infolayer"><g class="legend" pointer-events="all" transform="translate(883.52,100)"><rect class="bg" shape-rendering="crispEdges" width="128" height="162" x="0" y="0" style="stroke: rgb(68, 68, 68); stroke-opacity: 1; fill: rgb(255, 255, 255); fill-opacity: 1; stroke-width: 0px;"/><g class="scrollbox" transform="" clip-path="url(#legendffe756)"><g class="groups"><g class="traces" transform="translate(0,14.5)" style="opacity: 1;"><text class="legendtext" text-anchor="start" x="40" y="4.680000000000001" style="font-family: 'Open Sans', verdana, arial, sans-serif; font-size: 12px; fill: rgb(42, 63, 95); fill-opacity: 1; white-space: pre;">Train Accuracy</text><g class="layers" style="opacity: 1;"><g class="legendfill"/><g class="legendlines"><path class="js-line" d="M5,0h30" style="fill: none; stroke: rgb(255, 0, 0); stroke-opacity: 1; stroke-width: 2px;"/></g><g class="legendsymbols"><g class="legendpoints"/></g></g><rect class="legendtoggle" x="0" y="-9.5" width="122.71875" height="19" style="fill: rgb(0, 0, 0); fill-opacity: 0;"/></g><g class="traces" transform="translate(0,33.5)" style="opacity: 1;"><text class="legendtext" text-anchor="start" x="40" y="4.680000000000001" style="font-family: 'Open Sans', verdana, arial, sans-serif; font-size: 12px; fill: rgb(42, 63, 95); fill-opacity: 1; white-space: pre;">Test Accuracy</text><g class="layers" style="opacity: 1;"><g class="legendfill"/><g class="legendlines"><path class="js-line" d="M5,0h30" style="fill: none; stroke: rgb(0, 0, 255); stroke-opacity: 1; stroke-width: 2px;"/></g><g class="legendsymbols"><g class="legendpoints"/></g></g><rect class="legendtoggle" x="0" y="-9.5" width="122.71875" height="19" style="fill: rgb(0, 0, 0); fill-opacity: 0;"/></g><g class="traces" transform="translate(0,52.5)" style="opacity: 1;"><text class="legendtext" text-anchor="start" x="40" y="4.680000000000001" style="font-family: 'Open Sans', verdana, arial, sans-serif; font-size: 12px; fill: rgb(42, 63, 95); fill-opacity: 1; white-space: pre;">Train Precision</text><g class="layers" style="opacity: 1;"><g class="legendfill"/><g class="legendlines"><path class="js-line" d="M5,0h30" style="fill: none; stroke: rgb(0, 128, 0); stroke-opacity: 1; stroke-width: 2px;"/></g><g class="legendsymbols"><g class="legendpoints"/></g></g><rect class="legendtoggle" x="0" y="-9.5" width="122.71875" height="19" style="fill: rgb(0, 0, 0); fill-opacity: 0;"/></g><g class="traces" transform="translate(0,71.5)" style="opacity: 1;"><text class="legendtext" text-anchor="start" x="40" y="4.680000000000001" style="font-family: 'Open Sans', verdana, arial, sans-serif; font-size: 12px; fill: rgb(42, 63, 95); fill-opacity: 1; white-space: pre;">Test Precision</text><g class="layers" style="opacity: 1;"><g class="legendfill"/><g class="legendlines"><path class="js-line" d="M5,0h30" style="fill: none; stroke: rgb(255, 165, 0); stroke-opacity: 1; stroke-width: 2px;"/></g><g class="legendsymbols"><g class="legendpoints"/></g></g><rect class="legendtoggle" x="0" y="-9.5" width="122.71875" height="19" style="fill: rgb(0, 0, 0); fill-opacity: 0;"/></g><g class="traces" transform="translate(0,90.5)" style="opacity: 1;"><text class="legendtext" text-anchor="start" x="40" y="4.680000000000001" style="font-family: 'Open Sans', verdana, arial, sans-serif; font-size: 12px; fill: rgb(42, 63, 95); fill-opacity: 1; white-space: pre;">Train Recall</text><g class="layers" style="opacity: 1;"><g class="legendfill"/><g class="legendlines"><path class="js-line" d="M5,0h30" style="fill: none; stroke: rgb(128, 0, 128); stroke-opacity: 1; stroke-width: 2px;"/></g><g class="legendsymbols"><g class="legendpoints"/></g></g><rect class="legendtoggle" x="0" y="-9.5" width="122.71875" height="19" style="fill: rgb(0, 0, 0); fill-opacity: 0;"/></g><g class="traces" transform="translate(0,109.5)" style="opacity: 1;"><text class="legendtext" text-anchor="start" x="40" y="4.680000000000001" style="font-family: 'Open Sans', verdana, arial, sans-serif; font-size: 12px; fill: rgb(42, 63, 95); fill-opacity: 1; white-space: pre;">Test Recall</text><g class="layers" style="opacity: 1;"><g class="legendfill"/><g class="legendlines"><path class="js-line" d="M5,0h30" style="fill: none; stroke: rgb(255, 192, 203); stroke-opacity: 1; stroke-width: 2px;"/></g><g class="legendsymbols"><g class="legendpoints"/></g></g><rect class="legendtoggle" x="0" y="-9.5" width="122.71875" height="19" style="fill: rgb(0, 0, 0); fill-opacity: 0;"/></g><g class="traces" transform="translate(0,128.5)" style="opacity: 1;"><text class="legendtext" text-anchor="start" x="40" y="4.680000000000001" style="font-family: 'Open Sans', verdana, arial, sans-serif; font-size: 12px; fill: rgb(42, 63, 95); fill-opacity: 1; white-space: pre;">Train F1</text><g class="layers" style="opacity: 1;"><g class="legendfill"/><g class="legendlines"><path class="js-line" d="M5,0h30" style="fill: none; stroke: rgb(165, 42, 42); stroke-opacity: 1; stroke-width: 2px;"/></g><g class="legendsymbols"><g class="legendpoints"/></g></g><rect class="legendtoggle" x="0" y="-9.5" width="122.71875" height="19" style="fill: rgb(0, 0, 0); fill-opacity: 0;"/></g><g class="traces" transform="translate(0,147.5)" style="opacity: 1;"><text class="legendtext" text-anchor="start" x="40" y="4.680000000000001" style="font-family: 'Open Sans', verdana, arial, sans-serif; font-size: 12px; fill: rgb(42, 63, 95); fill-opacity: 1; white-space: pre;">Test F1</text><g class="layers" style="opacity: 1;"><g class="legendfill"/><g class="legendlines"><path class="js-line" d="M5,0h30" style="fill: none; stroke: rgb(128, 128, 128); stroke-opacity: 1; stroke-width: 2px;"/></g><g class="legendsymbols"><g class="legendpoints"/></g></g><rect class="legendtoggle" x="0" y="-9.5" width="122.71875" height="19" style="fill: rgb(0, 0, 0); fill-opacity: 0;"/></g></g></g><rect class="scrollbar" rx="20" ry="3" width="0" height="0" x="0" y="0" style="fill: rgb(128, 139, 164); fill-opacity: 1;"/></g><g class="g-gtitle"><text class="gtitle" x="51.2" y="50" text-anchor="start" dy="0em" style="font-family: 'Open Sans', verdana, arial, sans-serif; font-size: 17px; fill: rgb(42, 63, 95); opacity: 1; font-weight: normal; white-space: pre;">Training Metrics - logs/FakeNewsNet-gossipcop_max-vocab=10000_pre=v1_domain_T=150_s=5.log</text></g><g class="g-xtitle"><text class="xtitle" x="506" y="537.3" text-anchor="middle" style="font-family: 'Open Sans', verdana, arial, sans-serif; font-size: 14px; fill: rgb(42, 63, 95); opacity: 1; font-weight: normal; white-space: pre;">Epoch</text></g><g class="g-ytitle"><text class="ytitle" transform="rotate(-90,103.965625,298)" x="103.965625" y="298" text-anchor="middle" style="font-family: 'Open Sans', verdana, arial, sans-serif; font-size: 14px; fill: rgb(42, 63, 95); opacity: 1; font-weight: normal; white-space: pre;">Metric Score</text></g></g><g class="menulayer"><g class="updatemenu-container" style="cursor: pointer;"><g class="updatemenu-header-group" transform="translate(12,60)"><g class="updatemenu-header" transform="translate(1,1)" style="pointer-events: all;"><rect class="updatemenu-item-rect" rx="2" ry="2" shape-rendering="crispEdges" x="0" y="0" width="167" height="33" style="stroke: rgb(190, 200, 217); stroke-opacity: 1; fill: rgb(255, 255, 255); fill-opacity: 1; stroke-width: 1px;"/><text class="updatemenu-item-text" text-anchor="start" data-notex="1" x="12" y="19.5" style="font-family: 'Open Sans', verdana, arial, sans-serif; font-size: 12px; fill: rgb(42, 63, 95); fill-opacity: 1; white-space: pre;">All</text></g><text class="updatemenu-header-arrow" text-anchor="end" x="163" y="19.5" style="font-family: 'Open Sans', verdana, arial, sans-serif; font-size: 12px; fill: rgb(42, 63, 95); fill-opacity: 1;">▼</text></g><g class="updatemenu-dropdown-button-group" updatemenu-active-index="-1" style="pointer-events: all;"><rect class="scrollbox-bg" opacity="0" x="0" y="0" width="0" height="0" style="pointer-events: all;"/></g></g></g></svg>