<svg class="main-svg" xmlns="http://www.w3.org/2000/svg" xmlns:xlink="http://www.w3.org/1999/xlink" width="1024" height="576" style="" viewBox="0 0 1024 576"><rect x="0" y="0" width="1024" height="576" style="fill: rgb(255, 255, 255); fill-opacity: 1;"/><defs id="defs-0cc67f"><g class="clips"><clipPath id="clip0cc67fxyplot" class="plotclip"><rect width="720" height="396"/></clipPath><clipPath class="axesclip" id="clip0cc67fx"><rect x="150" y="0" width="720" height="576"/></clipPath><clipPath class="axesclip" id="clip0cc67fy"><rect x="0" y="100" width="1024" height="396"/></clipPath><clipPath class="axesclip" id="clip0cc67fxy"><rect x="150" y="100" width="720" height="396"/></clipPath></g><g class="gradients"/><g class="patterns"/></defs><g class="bglayer"><rect class="bg" x="150" y="100" width="720" height="396" style="fill: rgb(229, 236, 246); fill-opacity: 1; stroke-width: 0;"/></g><g class="layer-below"><g class="imagelayer"/><g class="shapelayer"/></g><g class="cartesianlayer"><g class="subplot xy"><g class="layer-subplot"><g class="shapelayer"/><g class="imagelayer"/></g><g class="minor-gridlayer"><g class="x"/><g class="y"/></g><g class="gridlayer"><g class="x"><path class="xgrid crisp" transform="translate(215.45,0)" d="M0,100v396" style="stroke: rgb(255, 255, 255); stroke-opacity: 1; stroke-width: 1px;"/><path class="xgrid crisp" transform="translate(288.18,0)" d="M0,100v396" style="stroke: rgb(255, 255, 255); stroke-opacity: 1; stroke-width: 1px;"/><path class="xgrid crisp" transform="translate(360.90999999999997,0)" d="M0,100v396" style="stroke: rgb(255, 255, 255); stroke-opacity: 1; stroke-width: 1px;"/><path class="xgrid crisp" transform="translate(433.64,0)" d="M0,100v396" style="stroke: rgb(255, 255, 255); stroke-opacity: 1; stroke-width: 1px;"/><path class="xgrid crisp" transform="translate(506.36,0)" d="M0,100v396" style="stroke: rgb(255, 255, 255); stroke-opacity: 1; stroke-width: 1px;"/><path class="xgrid crisp" transform="translate(579.0899999999999,0)" d="M0,100v396" style="stroke: rgb(255, 255, 255); stroke-opacity: 1; stroke-width: 1px;"/><path class="xgrid crisp" transform="translate(651.8199999999999,0)" d="M0,100v396" style="stroke: rgb(255, 255, 255); stroke-opacity: 1; stroke-width: 1px;"/><path class="xgrid crisp" transform="translate(724.55,0)" d="M0,100v396" style="stroke: rgb(255, 255, 255); stroke-opacity: 1; stroke-width: 1px;"/><path class="xgrid crisp" transform="translate(797.27,0)" d="M0,100v396" style="stroke: rgb(255, 255, 255); stroke-opacity: 1; stroke-width: 1px;"/></g><g class="y"><path class="ygrid crisp" transform="translate(0,469.91)" d="M150,0h720" style="stroke: rgb(255, 255, 255); stroke-opacity: 1; stroke-width: 1px;"/><path class="ygrid crisp" transform="translate(0,405.09)" d="M150,0h720" style="stroke: rgb(255, 255, 255); stroke-opacity: 1; stroke-width: 1px;"/><path class="ygrid crisp" transform="translate(0,340.26)" d="M150,0h720" style="stroke: rgb(255, 255, 255); stroke-opacity: 1; stroke-width: 1px;"/><path class="ygrid crisp" transform="translate(0,275.44)" d="M150,0h720" style="stroke: rgb(255, 255, 255); stroke-opacity: 1; stroke-width: 1px;"/><path class="ygrid crisp" transform="translate(0,210.62)" d="M150,0h720" style="stroke: rgb(255, 255, 255); stroke-opacity: 1; stroke-width: 1px;"/><path class="ygrid crisp" transform="translate(0,145.79)" d="M150,0h720" style="stroke: rgb(255, 255, 255); stroke-opacity: 1; stroke-width: 1px;"/></g></g><g class="zerolinelayer"/><path class="xlines-below"/><path class="ylines-below"/><g class="overlines-below"/><g class="xaxislayer-below"/><g class="yaxislayer-below"/><g class="overaxes-below"/><g class="plot" transform="translate(150,100)" clip-path="url(#clip0cc67fxyplot)"><g class="scatterlayer mlayer"><g class="trace scatter traceb0b737" style="stroke-miterlimit: 2; opacity: 1;"><g class="fills"/><g class="errorbars"/><g class="lines"><path class="js-line" d="M0,188.02L21.82,188.02L29.09,179.59L36.36,161.18L43.64,131.94L50.91,88.19L58.18,109.71L65.45,78.98L72.73,82.03L87.27,75.16L94.55,79.76L101.82,83.59L109.09,77.43L116.36,80.54L123.64,69L130.91,102L138.18,92.01L145.45,89.74L152.73,101.22L167.27,98.95L174.55,90.52L181.82,93.57L189.09,92.79L196.36,92.79L203.64,88.97L210.91,92.79L218.18,90.52L232.73,99.73L240,63.62L247.27,55.91L254.55,62.84L261.82,66.67L269.09,63.62L276.36,95.12L283.64,97.39L290.91,89.74L298.18,88.97L305.45,85.14L312.73,85.14L320,86.63L327.27,80.54L334.55,79.76L341.82,78.21L349.09,73.6L356.36,80.54L363.64,78.21L370.91,77.43L378.18,78.21L385.45,82.81L392.73,87.41L400,90.52L407.27,84.36L414.55,84.36L421.82,79.76L429.09,76.65L443.64,74.38L450.91,79.76L458.18,72.05L465.45,72.05L472.73,79.76L480,73.6L487.27,60.51L494.55,57.46L501.82,58.24L509.09,61.29L516.36,64.4L523.64,65.89L530.91,66.67L538.18,66.67L545.45,63.62L552.73,72.05L560,72.83L567.27,70.56L574.55,70.56L581.82,64.4L589.09,68.22L596.36,69.78L603.64,69L610.91,67.45L618.18,64.4L625.45,68.22L632.73,70.56L640,65.89L654.55,70.56L661.82,65.18L669.09,66.67L676.36,63.62L683.64,63.62L690.91,69.78L698.18,69L705.45,65.89L712.73,65.89L720,60.51" style="vector-effect: none; fill: none; stroke: rgb(255, 0, 0); stroke-opacity: 1; stroke-width: 2px; opacity: 1;"/></g><g class="points"/><g class="text"/></g><g class="trace scatter trace385732" style="stroke-miterlimit: 2; opacity: 1;"><g class="fills"/><g class="errorbars"/><g class="lines"><path class="js-line" d="M0,154.63L21.82,154.63L29.09,142.45L36.36,127.15L43.64,108.8L50.91,124.1L58.18,117.94L65.45,105.76L72.73,102.64L80,108.8L87.27,102.64L94.55,99.6L101.82,111.85L109.09,111.85L116.36,96.55L123.64,93.5L130.91,142.45L138.18,145.49L145.45,142.45L152.73,145.49L160,139.33L167.27,139.33L174.55,133.24L181.82,139.33L189.09,136.29L196.36,127.15L203.64,130.19L210.91,133.24L218.18,142.45L225.45,139.33L232.73,139.33L240,87.41L247.27,78.21L261.82,78.21L269.09,84.3L276.36,133.24L283.64,139.33L290.91,136.29L298.18,130.19L312.73,130.19L320,136.29L327.27,139.33L334.55,136.29L341.82,133.24L349.09,127.15L356.36,130.19L363.64,130.19L370.91,133.24L378.18,133.24L385.45,139.33L392.73,142.45L407.27,136.29L414.55,139.33L429.09,133.24L436.36,133.24L443.64,127.15L450.91,133.24L465.45,120.99L472.73,127.15L480,127.15L487.27,120.99L494.55,120.99L501.82,124.1L509.09,124.1L516.36,127.15L523.64,124.1L530.91,124.1L538.18,130.19L545.45,120.99L567.27,120.99L574.55,130.19L589.09,130.19L596.36,127.15L603.64,124.1L610.91,124.1L618.18,120.99L625.45,127.15L632.73,127.15L640,124.1L654.55,130.19L661.82,127.15L683.64,127.15L690.91,124.1L712.73,124.1L720,117.94" style="vector-effect: none; fill: none; stroke: rgb(0, 0, 255); stroke-opacity: 1; stroke-width: 2px; opacity: 1;"/></g><g class="points"/><g class="text"/></g><g class="trace scatter tracea49dd2" style="stroke-miterlimit: 2; opacity: 1;"><g class="fills"/><g class="errorbars"/><g class="lines"><path class="js-line" d="M0,376.2L21.82,376.2L29.09,49.62L36.36,43.98L43.64,46.25L50.91,91.43L58.18,44.76L65.45,81.58L72.73,86.37L80,80.35L87.27,76.78L101.82,84.95L109.09,79.7L116.36,84.75L123.64,73.02L130.91,91.56L138.18,80.22L145.45,78.59L152.73,87.67L160,88.06L167.27,89.36L174.55,80.09L181.82,83.65L189.09,82.16L196.36,79.18L203.64,76L210.91,81.19L218.18,77.62L225.45,84.75L232.73,86.57L240,66.08L247.27,58.69L254.55,64.98L261.82,68.61L269.09,66.08L276.36,87.8L283.64,84.95L290.91,77.56L298.18,75.48L305.45,70.75L312.73,69.65L320,73.93L327.27,66.02L334.55,66.54L341.82,65.5L349.09,63.3L356.36,68.61L363.64,66.02L370.91,61.68L378.18,61.03L385.45,67.51L392.73,68.81L400,73.8L407.27,67.96L414.55,70.23L429.09,59.41L436.36,60.19L443.64,61.81L450.91,64.33L458.18,56.43L465.45,56.43L472.73,65.5L480,60.25L487.27,45.41L494.55,42.81L501.82,44.43L509.09,48.71L516.36,51.89L523.64,52.92L530.91,53.96L538.18,53.96L545.45,52.41L552.73,58.11L560,58.05L567.27,55.39L574.55,54.22L581.82,49.04L589.09,51.56L596.36,51.89L603.64,53.25L610.91,52.8L618.18,50.79L625.45,53.31L632.73,55.97L640,52.34L647.27,51.56L654.55,54.22L661.82,47.74L669.09,49.94L676.36,46.12L683.64,46.77L690.91,50.59L698.18,51.43L705.45,48.19L712.73,49.42L720,45.41" style="vector-effect: none; fill: none; stroke: rgb(0, 128, 0); stroke-opacity: 1; stroke-width: 2px; opacity: 1;"/></g><g class="points"/><g class="text"/></g><g class="trace scatter trace2f14b6" style="stroke-miterlimit: 2; opacity: 1;"><g class="fills"/><g class="errorbars"/><g class="lines"><path class="js-line" d="M0,359.54L21.82,359.54L29.09,31.47L36.36,26.35L43.64,19.8L50.91,120.67L58.18,75.42L65.45,102.32L72.73,103.49L80,102.51L87.27,98.3L94.55,96.16L101.82,104.59L109.09,104.59L116.36,95.71L123.64,91.82L130.91,83.98L138.18,94.22L145.45,88.51L160,82.68L167.27,82.68L174.55,88.45L181.82,91.3L189.09,89.87L196.36,81.58L210.91,84.36L218.18,92.79L225.45,87.15L232.73,87.15L240,92.99L247.27,81.9L254.55,80.47L261.82,81.9L269.09,87.99L276.36,84.36L283.64,91.3L290.91,85.73L298.18,78.72L305.45,78.72L312.73,78.72L320,81.38L327.27,82.68L334.55,81.38L341.82,84.36L349.09,81.58L356.36,82.94L363.64,82.94L370.91,84.36L378.18,84.36L385.45,95.25L392.73,96.81L400,99.01L407.27,89.87L414.55,95.25L421.82,85.73L429.09,80.09L436.36,84.36L443.64,81.58L450.91,88.45L458.18,77.43L465.45,74.71L472.73,81.58L480,81.58L487.27,74.71L494.55,74.71L501.82,76.07L509.09,80.15L516.36,81.58L523.64,80.15L530.91,76.07L538.18,82.94L545.45,74.71L552.73,74.71L567.27,74.71L574.55,78.72L581.82,82.94L589.09,82.94L603.64,80.15L610.91,80.15L618.18,74.71L625.45,81.58L632.73,81.58L640,76.07L647.27,77.43L654.55,82.94L661.82,81.58L669.09,81.58L683.64,81.58L690.91,76.07L712.73,76.07L720,73.34" style="vector-effect: none; fill: none; stroke: rgb(255, 165, 0); stroke-opacity: 1; stroke-width: 2px; opacity: 1;"/></g><g class="points"/><g class="text"/></g><g class="trace scatter tracec61d6f" style="stroke-miterlimit: 2; opacity: 1;"><g class="fills"/><g class="errorbars"/><g class="lines"><path class="js-line" d="M0,240.26L21.82,240.26L29.09,230.22L36.36,208.24L43.64,172.65L50.91,88.45L58.18,145.1L65.45,77.95L72.73,88.25L80,76.2L87.27,72.63L101.82,80.93L109.09,75.87L116.36,86.89L123.64,73.67L130.91,90.72L138.18,79.83L145.45,77.82L152.73,88.25L160,87.74L167.27,88.06L174.55,78.98L181.82,82.42L196.36,79.7L203.64,76.13L210.91,80.73L218.18,77.75L225.45,83.72L232.73,86.96L240,71.85L247.27,62.71L254.55,71.46L261.82,76.07L269.09,71.85L276.36,85.53L283.64,84.95L290.91,77.3L298.18,75.87L305.45,71.59L312.73,71.08L320,73.93L327.27,66.86L334.55,66.67L341.82,65.37L349.09,61.94L356.36,68.09L363.64,65.63L370.91,63.17L378.18,63.36L385.45,68.81L392.73,72.05L400,75.94L407.27,69.91L414.55,70.95L421.82,65.95L429.09,61.74L436.36,61.22L443.64,61.55L450.91,65.7L458.18,57.79L465.45,57.79L472.73,66.21L480,60.38L487.27,46.38L494.55,43.46L501.82,44.63L509.09,48.26L516.36,51.43L523.64,52.73L530.91,53.7L538.18,53.7L545.45,51.3L552.73,58.56L560,58.95L567.27,56.49L574.55,55.97L581.82,50.14L589.09,53.44L596.36,54.55L603.64,54.61L610.91,53.57L618.18,50.92L625.45,54.22L632.73,56.75L640,52.47L647.27,53.44L654.55,55.97L661.82,50.07L669.09,51.89L676.36,48.52L683.64,48.71L690.91,54.03L698.18,53.9L705.45,50.72L712.73,51.24L720,46.38" style="vector-effect: none; fill: none; stroke: rgb(128, 0, 128); stroke-opacity: 1; stroke-width: 2px; opacity: 1;"/></g><g class="points"/><g class="text"/></g><g class="trace scatter trace273f24" style="stroke-miterlimit: 2; opacity: 1;"><g class="fills"/><g class="errorbars"/><g class="lines"><path class="js-line" d="M0,240.26L21.82,240.26L29.09,223.67L36.36,202.86L43.64,177.9L50.91,111.91L58.18,185.16L65.45,92.14L72.73,93.25L80,92.86L87.27,87.99L94.55,85.6L101.82,95.25L109.09,95.25L116.36,84.88L123.64,80.73L130.91,98.63L138.18,104.52L145.45,100.38L152.73,101.02L160,96.16L167.27,96.16L174.55,94.8L181.82,99.66L189.09,97.26L196.36,88.25L203.64,90.65L210.91,93.12L218.18,102.06L225.45,97.91L232.73,97.91L240,82.87L247.27,70.36L254.55,68.68L261.82,70.36L269.09,76.97L276.36,93.12L283.64,99.66L290.91,95.51L298.18,88.97L305.45,88.97L312.73,88.97L320,93.76L327.27,96.16L334.55,93.76L341.82,93.12L349.09,88.25L356.36,90.65L363.64,90.65L370.91,93.12L378.18,93.12L385.45,101.41L392.73,103.81L400,103.16L407.27,97.26L414.55,101.41L421.82,95.51L429.09,91.37L436.36,93.12L443.64,88.25L450.91,94.8L458.18,86.5L465.45,81.71L472.73,88.25L480,88.25L487.27,81.71L494.55,81.71L516.36,88.25L523.64,85.86L530.91,84.1L538.18,90.65L545.45,81.71L552.73,81.71L567.27,81.71L574.55,88.97L581.82,90.65L589.09,90.65L603.64,85.86L610.91,85.86L618.18,81.71L625.45,88.25L632.73,88.25L640,84.1L647.27,86.5L654.55,90.65L661.82,88.25L669.09,88.25L683.64,88.25L690.91,84.1L712.73,84.1L720,79.24" style="vector-effect: none; fill: none; stroke: rgb(255, 192, 203); stroke-opacity: 1; stroke-width: 2px; opacity: 1;"/></g><g class="points"/><g class="text"/></g><g class="trace scatter trace0618c9" style="stroke-miterlimit: 2; opacity: 1;"><g class="fills"/><g class="errorbars"/><g class="lines"><path class="js-line" d="M0,326.29L21.82,326.29L29.09,304.76L36.36,261.53L43.64,199.04L50.91,90.72L58.18,156.97L65.45,80.99L72.73,87.48L80,80.47L87.27,76.72L101.82,85.08L109.09,79.31L116.36,86.05L123.64,73.41L130.91,102.06L138.18,92.01L145.45,89.74L152.73,101.28L160,99.73L167.27,98.95L174.55,90.52L181.82,93.57L189.09,92.79L196.36,92.79L203.64,88.97L210.91,92.79L218.18,90.52L225.45,95.12L232.73,99.73L240,69.84L247.27,61.16L254.55,69.26L261.82,73.67L269.09,69.84L276.36,95.25L283.64,97.39L290.91,89.74L298.18,88.97L305.45,85.14L312.73,85.14L320,86.63L327.27,80.54L334.55,79.76L341.82,78.21L349.09,73.6L356.36,80.54L363.64,78.21L370.91,77.49L378.18,78.27L385.45,82.81L392.73,87.54L400,90.52L407.27,84.36L414.55,84.36L421.82,79.76L429.09,76.72L436.36,75.16L443.64,74.38L450.91,79.76L458.18,72.05L465.45,72.05L472.73,79.76L480,73.6L487.27,60.57L494.55,57.46L501.82,58.24L516.36,64.4L523.64,65.89L530.91,66.67L538.18,66.67L545.45,63.62L552.73,72.05L560,72.83L567.27,70.56L574.55,70.56L581.82,64.4L589.09,68.22L596.36,69.84L610.91,67.45L618.18,64.4L625.45,68.22L632.73,70.56L640,65.89L647.27,68.22L654.55,70.56L661.82,65.18L669.09,66.73L676.36,63.69L683.64,63.62L690.91,69.84L698.18,69.07L705.45,65.95L712.73,65.95L720,60.57" style="vector-effect: none; fill: none; stroke: rgb(165, 42, 42); stroke-opacity: 1; stroke-width: 2px; opacity: 1;"/></g><g class="points"/><g class="text"/></g><g class="trace scatter tracee2f9de" style="stroke-miterlimit: 2; opacity: 1;"><g class="fills"/><g class="errorbars"/><g class="lines"><path class="js-line" d="M0,313.32L21.82,313.32L29.09,278.77L43.64,197.42L50.91,126.76L58.18,204.22L65.45,108.15L72.73,106.21L80,110.68L87.27,104.91L94.55,102L101.82,113.6L109.09,113.6L116.36,99.53L123.64,96.23L130.91,143.42L138.18,146.08L145.45,143.16L152.73,146.66L160,140.18L167.27,140.18L174.55,133.5L181.82,139.79L189.09,136.61L196.36,127.34L210.91,133.63L218.18,142.9L225.45,139.98L232.73,139.98L240,92.47L247.27,82.23L254.55,81.77L261.82,82.23L269.09,88.51L276.36,133.63L283.64,139.79L290.91,136.81L298.18,130.65L305.45,130.65L312.73,130.65L320,137L327.27,140.18L334.55,137L341.82,133.63L349.09,127.34L356.36,130.52L363.64,130.52L370.91,133.63L378.18,133.63L385.45,139.59L392.73,142.77L407.27,136.61L414.55,139.59L429.09,133.82L436.36,133.63L443.64,127.34L450.91,133.5L465.45,121.25L472.73,127.34L480,127.34L487.27,121.25L494.55,121.25L501.82,124.36L509.09,124.23L516.36,127.34L523.64,124.23L530.91,124.36L538.18,130.52L545.45,121.25L567.27,121.25L574.55,130.65L589.09,130.52L596.36,127.34L603.64,124.23L610.91,124.23L618.18,121.25L625.45,127.34L632.73,127.34L640,124.36L654.55,130.52L661.82,127.34L683.64,127.34L690.91,124.36L712.73,124.36L720,118.14" style="vector-effect: none; fill: none; stroke: rgb(128, 128, 128); stroke-opacity: 1; stroke-width: 2px; opacity: 1;"/></g><g class="points"/><g class="text"/></g></g></g><g class="overplot"/><path class="xlines-above crisp" d="M0,0" style="fill: none;"/><path class="ylines-above crisp" d="M0,0" style="fill: none;"/><g class="overlines-above"/><g class="xaxislayer-above"><g class="xtick"><text text-anchor="middle" x="0" y="509" transform="translate(215.45,0)" style="font-family: 'Open Sans', verdana, arial, sans-serif; font-size: 12px; fill: rgb(42, 63, 95); fill-opacity: 1; white-space: pre; opacity: 1;">10</text></g><g class="xtick"><text text-anchor="middle" x="0" y="509" style="font-family: 'Open Sans', verdana, arial, sans-serif; font-size: 12px; fill: rgb(42, 63, 95); fill-opacity: 1; white-space: pre; opacity: 1;" transform="translate(288.18,0)">20</text></g><g class="xtick"><text text-anchor="middle" x="0" y="509" style="font-family: 'Open Sans', verdana, arial, sans-serif; font-size: 12px; fill: rgb(42, 63, 95); fill-opacity: 1; white-space: pre; opacity: 1;" transform="translate(360.90999999999997,0)">30</text></g><g class="xtick"><text text-anchor="middle" x="0" y="509" style="font-family: 'Open Sans', verdana, arial, sans-serif; font-size: 12px; fill: rgb(42, 63, 95); fill-opacity: 1; white-space: pre; opacity: 1;" transform="translate(433.64,0)">40</text></g><g class="xtick"><text text-anchor="middle" x="0" y="509" style="font-family: 'Open Sans', verdana, arial, sans-serif; font-size: 12px; fill: rgb(42, 63, 95); fill-opacity: 1; white-space: pre; opacity: 1;" transform="translate(506.36,0)">50</text></g><g class="xtick"><text text-anchor="middle" x="0" y="509" style="font-family: 'Open Sans', verdana, arial, sans-serif; font-size: 12px; fill: rgb(42, 63, 95); fill-opacity: 1; white-space: pre; opacity: 1;" transform="translate(579.0899999999999,0)">60</text></g><g class="xtick"><text text-anchor="middle" x="0" y="509" style="font-family: 'Open Sans', verdana, arial, sans-serif; font-size: 12px; fill: rgb(42, 63, 95); fill-opacity: 1; white-space: pre; opacity: 1;" transform="translate(651.8199999999999,0)">70</text></g><g class="xtick"><text text-anchor="middle" x="0" y="509" style="font-family: 'Open Sans', verdana, arial, sans-serif; font-size: 12px; fill: rgb(42, 63, 95); fill-opacity: 1; white-space: pre; opacity: 1;" transform="translate(724.55,0)">80</text></g><g class="xtick"><text text-anchor="middle" x="0" y="509" style="font-family: 'Open Sans', verdana, arial, sans-serif; font-size: 12px; fill: rgb(42, 63, 95); fill-opacity: 1; white-space: pre; opacity: 1;" transform="translate(797.27,0)">90</text></g><g class="xtick"><text text-anchor="middle" x="0" y="509" style="font-family: 'Open Sans', verdana, arial, sans-serif; font-size: 12px; fill: rgb(42, 63, 95); fill-opacity: 1; white-space: pre; opacity: 1;" transform="translate(870,0)">100</text></g></g><g class="yaxislayer-above"><g class="ytick"><text text-anchor="end" x="149" y="4.199999999999999" transform="translate(0,469.91)" style="font-family: 'Open Sans', verdana, arial, sans-serif; font-size: 12px; fill: rgb(42, 63, 95); fill-opacity: 1; white-space: pre; opacity: 1;">30</text></g><g class="ytick"><text text-anchor="end" x="149" y="4.199999999999999" style="font-family: 'Open Sans', verdana, arial, sans-serif; font-size: 12px; fill: rgb(42, 63, 95); fill-opacity: 1; white-space: pre; opacity: 1;" transform="translate(0,405.09)">40</text></g><g class="ytick"><text text-anchor="end" x="149" y="4.199999999999999" style="font-family: 'Open Sans', verdana, arial, sans-serif; font-size: 12px; fill: rgb(42, 63, 95); fill-opacity: 1; white-space: pre; opacity: 1;" transform="translate(0,340.26)">50</text></g><g class="ytick"><text text-anchor="end" x="149" y="4.199999999999999" style="font-family: 'Open Sans', verdana, arial, sans-serif; font-size: 12px; fill: rgb(42, 63, 95); fill-opacity: 1; white-space: pre; opacity: 1;" transform="translate(0,275.44)">60</text></g><g class="ytick"><text text-anchor="end" x="149" y="4.199999999999999" style="font-family: 'Open Sans', verdana, arial, sans-serif; font-size: 12px; fill: rgb(42, 63, 95); fill-opacity: 1; white-space: pre; opacity: 1;" transform="translate(0,210.62)">70</text></g><g class="ytick"><text text-anchor="end" x="149" y="4.199999999999999" style="font-family: 'Open Sans', verdana, arial, sans-serif; font-size: 12px; fill: rgb(42, 63, 95); fill-opacity: 1; white-space: pre; opacity: 1;" transform="translate(0,145.79)">80</text></g></g><g class="overaxes-above"/></g></g><g class="polarlayer"/><g class="smithlayer"/><g class="ternarylayer"/><g class="geolayer"/><g class="funnelarealayer"/><g class="pielayer"/><g class="iciclelayer"/><g class="treemaplayer"/><g class="sunburstlayer"/><g class="glimages"/><defs id="topdefs-0cc67f"><g class="clips"/><clipPath id="legend0cc67f"><rect width="128" height="162" x="0" y="0"/></clipPath></defs><g class="layer-above"><g class="imagelayer"/><g class="shapelayer"/></g><g class="infolayer"><g class="legend" pointer-events="all" transform="translate(884.4,100)"><rect class="bg" shape-rendering="crispEdges" width="128" height="162" x="0" y="0" style="stroke: rgb(68, 68, 68); stroke-opacity: 1; fill: rgb(255, 255, 255); fill-opacity: 1; stroke-width: 0px;"/><g class="scrollbox" transform="" clip-path="url(#legend0cc67f)"><g class="groups"><g class="traces" transform="translate(0,14.5)" style="opacity: 1;"><text class="legendtext" text-anchor="start" x="40" y="4.680000000000001" style="font-family: 'Open Sans', verdana, arial, sans-serif; font-size: 12px; fill: rgb(42, 63, 95); fill-opacity: 1; white-space: pre;">Train Accuracy</text><g class="layers" style="opacity: 1;"><g class="legendfill"/><g class="legendlines"><path class="js-line" d="M5,0h30" style="fill: none; stroke: rgb(255, 0, 0); stroke-opacity: 1; stroke-width: 2px;"/></g><g class="legendsymbols"><g class="legendpoints"/></g></g><rect class="legendtoggle" x="0" y="-9.5" width="122.71875" height="19" style="fill: rgb(0, 0, 0); fill-opacity: 0;"/></g><g class="traces" transform="translate(0,33.5)" style="opacity: 1;"><text class="legendtext" text-anchor="start" x="40" y="4.680000000000001" style="font-family: 'Open Sans', verdana, arial, sans-serif; font-size: 12px; fill: rgb(42, 63, 95); fill-opacity: 1; white-space: pre;">Test Accuracy</text><g class="layers" style="opacity: 1;"><g class="legendfill"/><g class="legendlines"><path class="js-line" d="M5,0h30" style="fill: none; stroke: rgb(0, 0, 255); stroke-opacity: 1; stroke-width: 2px;"/></g><g class="legendsymbols"><g class="legendpoints"/></g></g><rect class="legendtoggle" x="0" y="-9.5" width="122.71875" height="19" style="fill: rgb(0, 0, 0); fill-opacity: 0;"/></g><g class="traces" transform="translate(0,52.5)" style="opacity: 1;"><text class="legendtext" text-anchor="start" x="40" y="4.680000000000001" style="font-family: 'Open Sans', verdana, arial, sans-serif; font-size: 12px; fill: rgb(42, 63, 95); fill-opacity: 1; white-space: pre;">Train Precision</text><g class="layers" style="opacity: 1;"><g class="legendfill"/><g class="legendlines"><path class="js-line" d="M5,0h30" style="fill: none; stroke: rgb(0, 128, 0); stroke-opacity: 1; stroke-width: 2px;"/></g><g class="legendsymbols"><g class="legendpoints"/></g></g><rect class="legendtoggle" x="0" y="-9.5" width="122.71875" height="19" style="fill: rgb(0, 0, 0); fill-opacity: 0;"/></g><g class="traces" transform="translate(0,71.5)" style="opacity: 1;"><text class="legendtext" text-anchor="start" x="40" y="4.680000000000001" style="font-family: 'Open Sans', verdana, arial, sans-serif; font-size: 12px; fill: rgb(42, 63, 95); fill-opacity: 1; white-space: pre;">Test Precision</text><g class="layers" style="opacity: 1;"><g class="legendfill"/><g class="legendlines"><path class="js-line" d="M5,0h30" style="fill: none; stroke: rgb(255, 165, 0); stroke-opacity: 1; stroke-width: 2px;"/></g><g class="legendsymbols"><g class="legendpoints"/></g></g><rect class="legendtoggle" x="0" y="-9.5" width="122.71875" height="19" style="fill: rgb(0, 0, 0); fill-opacity: 0;"/></g><g class="traces" transform="translate(0,90.5)" style="opacity: 1;"><text class="legendtext" text-anchor="start" x="40" y="4.680000000000001" style="font-family: 'Open Sans', verdana, arial, sans-serif; font-size: 12px; fill: rgb(42, 63, 95); fill-opacity: 1; white-space: pre;">Train Recall</text><g class="layers" style="opacity: 1;"><g class="legendfill"/><g class="legendlines"><path class="js-line" d="M5,0h30" style="fill: none; stroke: rgb(128, 0, 128); stroke-opacity: 1; stroke-width: 2px;"/></g><g class="legendsymbols"><g class="legendpoints"/></g></g><rect class="legendtoggle" x="0" y="-9.5" width="122.71875" height="19" style="fill: rgb(0, 0, 0); fill-opacity: 0;"/></g><g class="traces" transform="translate(0,109.5)" style="opacity: 1;"><text class="legendtext" text-anchor="start" x="40" y="4.680000000000001" style="font-family: 'Open Sans', verdana, arial, sans-serif; font-size: 12px; fill: rgb(42, 63, 95); fill-opacity: 1; white-space: pre;">Test Recall</text><g class="layers" style="opacity: 1;"><g class="legendfill"/><g class="legendlines"><path class="js-line" d="M5,0h30" style="fill: none; stroke: rgb(255, 192, 203); stroke-opacity: 1; stroke-width: 2px;"/></g><g class="legendsymbols"><g class="legendpoints"/></g></g><rect class="legendtoggle" x="0" y="-9.5" width="122.71875" height="19" style="fill: rgb(0, 0, 0); fill-opacity: 0;"/></g><g class="traces" transform="translate(0,128.5)" style="opacity: 1;"><text class="legendtext" text-anchor="start" x="40" y="4.680000000000001" style="font-family: 'Open Sans', verdana, arial, sans-serif; font-size: 12px; fill: rgb(42, 63, 95); fill-opacity: 1; white-space: pre;">Train F1</text><g class="layers" style="opacity: 1;"><g class="legendfill"/><g class="legendlines"><path class="js-line" d="M5,0h30" style="fill: none; stroke: rgb(165, 42, 42); stroke-opacity: 1; stroke-width: 2px;"/></g><g class="legendsymbols"><g class="legendpoints"/></g></g><rect class="legendtoggle" x="0" y="-9.5" width="122.71875" height="19" style="fill: rgb(0, 0, 0); fill-opacity: 0;"/></g><g class="traces" transform="translate(0,147.5)" style="opacity: 1;"><text class="legendtext" text-anchor="start" x="40" y="4.680000000000001" style="font-family: 'Open Sans', verdana, arial, sans-serif; font-size: 12px; fill: rgb(42, 63, 95); fill-opacity: 1; white-space: pre;">Test F1</text><g class="layers" style="opacity: 1;"><g class="legendfill"/><g class="legendlines"><path class="js-line" d="M5,0h30" style="fill: none; stroke: rgb(128, 128, 128); stroke-opacity: 1; stroke-width: 2px;"/></g><g class="legendsymbols"><g class="legendpoints"/></g></g><rect class="legendtoggle" x="0" y="-9.5" width="122.71875" height="19" style="fill: rgb(0, 0, 0); fill-opacity: 0;"/></g></g></g><rect class="scrollbar" rx="20" ry="3" width="0" height="0" x="0" y="0" style="fill: rgb(128, 139, 164); fill-opacity: 1;"/></g><g class="g-gtitle"><text class="gtitle" x="51.2" y="50" text-anchor="start" dy="0em" style="font-family: 'Open Sans', verdana, arial, sans-serif; font-size: 17px; fill: rgb(42, 63, 95); opacity: 1; font-weight: normal; white-space: pre;">Training Metrics - logs/FakeNewsNet-politifact_domain_tweet.log</text></g><g class="g-xtitle"><text class="xtitle" x="510" y="537.3" text-anchor="middle" style="font-family: 'Open Sans', verdana, arial, sans-serif; font-size: 14px; fill: rgb(42, 63, 95); opacity: 1; font-weight: normal; white-space: pre;">Epoch</text></g><g class="g-ytitle"><text class="ytitle" transform="rotate(-90,110.965625,298)" x="110.965625" y="298" text-anchor="middle" style="font-family: 'Open Sans', verdana, arial, sans-serif; font-size: 14px; fill: rgb(42, 63, 95); opacity: 1; font-weight: normal; white-space: pre;">Metric Score</text></g></g><g class="menulayer"><g class="updatemenu-container" style="cursor: pointer;"><g class="updatemenu-header-group" transform="translate(12,60)"><g class="updatemenu-header" transform="translate(1,1)" style="pointer-events: all;"><rect class="updatemenu-item-rect" rx="2" ry="2" shape-rendering="crispEdges" x="0" y="0" width="174" height="33" style="stroke: rgb(190, 200, 217); stroke-opacity: 1; fill: rgb(255, 255, 255); fill-opacity: 1; stroke-width: 1px;"/><text class="updatemenu-item-text" text-anchor="start" data-notex="1" x="12" y="19.5" style="font-family: 'Open Sans', verdana, arial, sans-serif; font-size: 12px; fill: rgb(42, 63, 95); fill-opacity: 1; white-space: pre;">All</text></g><text class="updatemenu-header-arrow" text-anchor="end" x="170" y="19.5" style="font-family: 'Open Sans', verdana, arial, sans-serif; font-size: 12px; fill: rgb(42, 63, 95); fill-opacity: 1;">▼</text></g><g class="updatemenu-dropdown-button-group" updatemenu-active-index="-1" style="pointer-events: all;"><rect class="scrollbox-bg" opacity="0" x="0" y="0" width="0" height="0" style="pointer-events: all;"/></g></g></g></svg>