<svg class="main-svg" xmlns="http://www.w3.org/2000/svg" xmlns:xlink="http://www.w3.org/1999/xlink" width="1024" height="576" style="" viewBox="0 0 1024 576"><rect x="0" y="0" width="1024" height="576" style="fill: rgb(255, 255, 255); fill-opacity: 1;"/><defs id="defs-682a55"><g class="clips"><clipPath id="clip682a55xyplot" class="plotclip"><rect width="720" height="396"/></clipPath><clipPath class="axesclip" id="clip682a55x"><rect x="150" y="0" width="720" height="576"/></clipPath><clipPath class="axesclip" id="clip682a55y"><rect x="0" y="100" width="1024" height="396"/></clipPath><clipPath class="axesclip" id="clip682a55xy"><rect x="150" y="100" width="720" height="396"/></clipPath></g><g class="gradients"/><g class="patterns"/></defs><g class="bglayer"><rect class="bg" x="150" y="100" width="720" height="396" style="fill: rgb(229, 236, 246); fill-opacity: 1; stroke-width: 0;"/></g><g class="layer-below"><g class="imagelayer"/><g class="shapelayer"/></g><g class="cartesianlayer"><g class="subplot xy"><g class="layer-subplot"><g class="shapelayer"/><g class="imagelayer"/></g><g class="minor-gridlayer"><g class="x"/><g class="y"/></g><g class="gridlayer"><g class="x"><path class="xgrid crisp" transform="translate(241.81,0)" d="M0,100v396" style="stroke: rgb(255, 255, 255); stroke-opacity: 1; stroke-width: 1px;"/><path class="xgrid crisp" transform="translate(338.46000000000004,0)" d="M0,100v396" style="stroke: rgb(255, 255, 255); stroke-opacity: 1; stroke-width: 1px;"/><path class="xgrid crisp" transform="translate(435.1,0)" d="M0,100v396" style="stroke: rgb(255, 255, 255); stroke-opacity: 1; stroke-width: 1px;"/><path class="xgrid crisp" transform="translate(531.74,0)" d="M0,100v396" style="stroke: rgb(255, 255, 255); stroke-opacity: 1; stroke-width: 1px;"/><path class="xgrid crisp" transform="translate(628.39,0)" d="M0,100v396" style="stroke: rgb(255, 255, 255); stroke-opacity: 1; stroke-width: 1px;"/><path class="xgrid crisp" transform="translate(725.03,0)" d="M0,100v396" style="stroke: rgb(255, 255, 255); stroke-opacity: 1; stroke-width: 1px;"/><path class="xgrid crisp" transform="translate(821.68,0)" d="M0,100v396" style="stroke: rgb(255, 255, 255); stroke-opacity: 1; stroke-width: 1px;"/></g><g class="y"><path class="ygrid crisp" transform="translate(0,470.59)" d="M150,0h720" style="stroke: rgb(255, 255, 255); stroke-opacity: 1; stroke-width: 1px;"/><path class="ygrid crisp" transform="translate(0,412.73)" d="M150,0h720" style="stroke: rgb(255, 255, 255); stroke-opacity: 1; stroke-width: 1px;"/><path class="ygrid crisp" transform="translate(0,354.87)" d="M150,0h720" style="stroke: rgb(255, 255, 255); stroke-opacity: 1; stroke-width: 1px;"/><path class="ygrid crisp" transform="translate(0,297.02)" d="M150,0h720" style="stroke: rgb(255, 255, 255); stroke-opacity: 1; stroke-width: 1px;"/><path class="ygrid crisp" transform="translate(0,239.16)" d="M150,0h720" style="stroke: rgb(255, 255, 255); stroke-opacity: 1; stroke-width: 1px;"/><path class="ygrid crisp" transform="translate(0,181.3)" d="M150,0h720" style="stroke: rgb(255, 255, 255); stroke-opacity: 1; stroke-width: 1px;"/><path class="ygrid crisp" transform="translate(0,123.44)" d="M150,0h720" style="stroke: rgb(255, 255, 255); stroke-opacity: 1; stroke-width: 1px;"/></g></g><g class="zerolinelayer"/><path class="xlines-below"/><path class="ylines-below"/><g class="overlines-below"/><g class="xaxislayer-below"/><g class="yaxislayer-below"/><g class="overaxes-below"/><g class="plot" transform="translate(150,100)" clip-path="url(#clip682a55xyplot)"><g class="scatterlayer mlayer"><g class="trace scatter tracef8c287" style="stroke-miterlimit: 2; opacity: 1;"><g class="fills"/><g class="errorbars"/><g class="lines"><path class="js-line" d="M0,208.24L14.5,208.24L19.33,200.03L24.16,200.03L28.99,192.5L33.83,111.62L38.66,128.05L43.49,84.89L48.32,105.43L53.15,178.1L57.99,191.12L62.82,200.72L67.65,195.22L72.48,192.5L77.32,192.5L82.15,190.42L86.98,190.42L91.81,192.5L96.64,192.5L101.48,176.01L106.31,169.88L111.14,84.89L115.97,86.22L120.81,80.78L125.64,49.19L130.47,129.44L135.3,78.7L140.13,92.41L144.97,64.99L154.63,180.82L159.46,110.93L164.3,84.2L169.13,45.78L173.96,74.59L178.79,75.98L183.62,107.51L188.46,45.78L193.29,49.19L198.12,45.78L202.95,108.84L207.79,113.64L212.62,82.81L217.45,99.93L222.28,95.82L227.11,121.22L231.95,134.94L236.78,109.54L241.61,113.64L246.44,40.98L251.28,33.45L256.11,45.78L260.94,43.06L265.77,67.71L270.6,71.18L275.44,65.68L285.1,67.71L289.93,60.88L294.77,39.64L299.6,38.26L304.43,63.6L309.26,64.99L314.09,62.9L318.93,62.27L323.76,66.38L328.59,69.09L333.42,62.9L338.26,64.99L343.09,61.57L347.92,62.27L352.75,61.57L357.58,85.53L367.25,87.61L372.08,60.18L381.74,59.49L386.58,62.27L391.41,62.27L396.24,63.6L401.07,62.27L405.91,62.9L410.74,65.68L415.57,88.3L420.4,89.69L425.23,88.3L430.07,62.27L434.9,64.29L439.73,64.99L444.56,63.6L449.4,32.07L454.23,32.76L459.06,33.45L463.89,62.9L473.56,60.88L478.39,60.18L483.22,58.16L488.05,59.49L492.89,60.88L497.72,57.46L512.21,58.16L517.05,60.88L521.88,59.49L526.71,60.88L536.38,60.18L541.21,61.57L546.04,60.18L550.87,62.9L570.2,62.9L575.03,60.88L579.87,59.49L584.7,60.18L594.36,58.16L599.19,60.88L608.86,58.8L613.69,60.18L618.52,58.16L623.36,58.16L628.19,58.8L633.02,60.88L637.85,60.88L642.68,59.49L657.18,58.16L662.01,59.49L671.68,59.49L676.51,58.16L681.34,57.46L686.17,58.8L700.67,57.46L705.5,58.8L715.17,56.77L720,57.46" style="vector-effect: none; fill: none; stroke: rgb(255, 0, 0); stroke-opacity: 1; stroke-width: 2px; opacity: 1;"/></g><g class="points"/><g class="text"/></g><g class="trace scatter trace28643e" style="stroke-miterlimit: 2; opacity: 1;"><g class="fills"/><g class="errorbars"/><g class="lines"><path class="js-line" d="M0,178.44L14.5,178.44L19.33,167.57L28.99,167.57L33.83,115.67L38.66,153.91L43.49,118.45L48.32,115.67L53.15,145.7L57.99,151.19L62.82,167.57L67.65,153.91L72.48,153.91L77.32,153.91L82.15,151.19L86.98,151.19L91.81,153.91L96.64,153.91L101.48,142.98L106.31,142.98L111.14,107.51L115.97,107.51L120.81,102.01L125.64,107.51L130.47,123.89L135.3,102.01L140.13,107.51L144.97,112.95L149.8,123.89L154.63,151.19L159.46,123.89L164.3,112.95L169.13,107.51L173.96,115.67L178.79,112.95L183.62,115.67L188.46,104.79L198.12,104.79L202.95,118.45L207.79,112.95L212.62,110.23L222.28,110.23L227.11,121.17L231.95,132.04L236.78,121.17L241.61,118.45L246.44,104.79L260.94,104.79L265.77,99.3L270.6,102.01L275.44,99.3L289.93,99.3L294.77,107.51L299.6,104.79L304.43,99.3L318.93,99.3L323.76,96.58L338.26,96.58L343.09,99.3L352.75,99.3L357.58,112.95L362.42,104.79L367.25,104.79L372.08,99.3L376.91,99.3L381.74,99.3L386.58,102.01L396.24,102.01L401.07,99.3L410.74,99.3L415.57,110.23L420.4,115.67L425.23,115.67L430.07,99.3L434.9,102.01L439.73,102.01L444.56,99.3L449.4,107.51L454.23,104.79L459.06,104.79L463.89,96.58L468.72,96.58L473.56,99.3L488.05,99.3L492.89,102.01L497.72,99.3L502.55,99.3L507.38,99.3L512.21,102.01L517.05,102.01L521.88,99.3L575.03,99.3L579.87,102.01L589.53,102.01L594.36,99.3L608.86,99.3L613.69,102.01L618.52,99.3L623.36,99.3L666.85,99.3L671.68,96.58L676.51,99.3L681.34,99.3L686.17,102.01L691.01,99.3L720,99.3" style="vector-effect: none; fill: none; stroke: rgb(0, 0, 255); stroke-opacity: 1; stroke-width: 2px; opacity: 1;"/></g><g class="points"/><g class="text"/></g><g class="trace scatter tracec0b0a8" style="stroke-miterlimit: 2; opacity: 1;"><g class="fills"/><g class="errorbars"/><g class="lines"><path class="js-line" d="M0,376.2L14.5,376.2L19.33,84.48L24.16,84.48L28.99,103.52L33.83,112.78L38.66,125.1L43.49,67.94L48.32,108.38L53.15,94.78L57.99,101.61L62.82,84.72L67.65,83.04L72.48,103.52L77.32,103.52L82.15,100.74L86.98,100.74L91.81,103.52L96.64,103.52L101.48,88.19L106.31,84.43L111.14,87.96L115.97,89.23L120.81,83.33L125.64,35.36L130.47,69.27L135.3,80.78L140.13,53.3L144.97,42.6L154.63,91.54L159.46,58.33L164.3,47.57L169.13,30.97L173.96,42.36L178.79,44.22L183.62,58.27L188.46,29.58L193.29,31.78L198.12,28.83L202.95,57.35L207.79,57.87L212.62,43.12L217.45,51.45L222.28,49.48L227.11,61.28L231.95,67.47L236.78,55.96L241.61,57.87L246.44,29.06L251.28,22L256.11,28.07L260.94,27.78L265.77,69.62L270.6,73.78L275.44,67.36L285.1,69.96L289.93,61.98L294.77,21.94L299.6,21.82L304.43,64.99L309.26,66.09L314.09,63.83L318.93,63.54L323.76,67.71L328.59,70.71L333.42,64L338.26,66.61L343.09,62.96L347.92,63.37L352.75,62.96L357.58,48.32L362.42,49.08L367.25,48.15L372.08,61.34L376.91,60.7L381.74,60.53L386.58,63.71L391.41,63.54L396.24,65.16L401.07,63.37L405.91,64L410.74,67.24L415.57,91.02L420.4,92.3L425.23,91.02L430.07,63.37L434.9,65.97L439.73,66.72L444.56,64.64L449.4,19.8L454.23,20.26L459.06,20.09L463.89,64.35L468.72,62.56L473.56,62.15L478.39,61.34L483.22,59.08L492.89,61.98L497.72,58.62L507.38,58.27L512.21,59.43L517.05,62.32L521.88,59.89L526.71,61.57L531.54,61.75L536.38,60.76L541.21,61.98L546.04,61.17L550.87,63.83L555.7,64.18L560.54,63.37L570.2,64.18L575.03,61.98L579.87,61.05L584.7,61.69L594.36,59.08L599.19,61.57L604.03,61.17L608.86,59.72L613.69,61.8L618.52,59.26L623.36,59.26L628.19,60.07L633.02,62.15L637.85,62.15L642.68,60.53L647.52,59.89L657.18,59.08L662.01,60.7L671.68,60.53L676.51,59.26L681.34,58.27L686.17,59.89L695.84,58.45L700.67,58.27L705.5,59.49L710.34,58.27L715.17,57.46L720,58.27" style="vector-effect: none; fill: none; stroke: rgb(0, 128, 0); stroke-opacity: 1; stroke-width: 2px; opacity: 1;"/></g><g class="points"/><g class="text"/></g><g class="trace scatter trace235402" style="stroke-miterlimit: 2; opacity: 1;"><g class="fills"/><g class="errorbars"/><g class="lines"><path class="js-line" d="M0,361.33L14.5,361.33L19.33,68.52L28.99,68.52L33.83,120.12L38.66,142.86L43.49,71.81L48.32,118.97L53.15,61.05L57.99,62.96L62.82,68.52L67.65,63.94L72.48,63.94L77.32,63.94L82.15,62.96L86.98,62.96L91.81,63.94L96.64,63.94L101.48,60.07L106.31,60.07L111.14,111.39L115.97,110.17L120.81,105.89L125.64,56.08L130.47,52.95L135.3,105.89L140.13,46.47L144.97,59.14L149.8,52.95L154.63,62.96L159.46,52.95L164.3,48.67L169.13,56.08L173.96,60.7L178.79,48.67L183.62,49.77L188.46,45.32L198.12,45.32L202.95,50.87L207.79,48.67L212.62,47.57L222.28,47.57L227.11,51.91L231.95,56.08L236.78,51.91L241.61,50.87L246.44,45.32L260.94,45.32L265.77,103.69L270.6,105.89L275.44,103.69L289.93,103.69L294.77,56.08L299.6,45.32L304.43,103.69L318.93,103.69L323.76,101.49L338.26,101.49L343.09,103.69L352.75,103.69L357.58,59.14L362.42,45.32L367.25,45.32L372.08,103.69L376.91,103.69L381.74,103.69L386.58,105.89L396.24,105.89L401.07,103.69L410.74,103.69L415.57,112.26L420.4,116.42L425.23,116.42L430.07,103.69L434.9,105.89L439.73,105.89L444.56,103.69L449.4,56.08L454.23,45.32L459.06,45.32L463.89,101.49L468.72,101.49L473.56,103.69L488.05,103.69L492.89,106.99L497.72,103.69L502.55,103.69L507.38,103.69L512.21,105.89L517.05,105.89L521.88,103.69L575.03,103.69L579.87,105.89L589.53,105.89L594.36,103.69L608.86,103.69L613.69,105.89L618.52,103.69L623.36,103.69L666.85,103.69L671.68,101.49L676.51,103.69L681.34,103.69L686.17,105.89L691.01,103.69L720,103.69" style="vector-effect: none; fill: none; stroke: rgb(255, 165, 0); stroke-opacity: 1; stroke-width: 2px; opacity: 1;"/></g><g class="points"/><g class="text"/></g><g class="trace scatter trace22db93" style="stroke-miterlimit: 2; opacity: 1;"><g class="fills"/><g class="errorbars"/><g class="lines"><path class="js-line" d="M0,254.87L14.5,254.87L19.33,245.1L24.16,245.1L28.99,235.61L33.83,122.21L38.66,122.09L43.49,101.9L48.32,112.55L53.15,218.25L57.99,233.99L62.82,245.91L67.65,239.37L72.48,235.61L77.32,235.61L82.15,233.18L86.98,233.18L91.81,235.61L96.64,235.61L101.48,215.99L106.31,208.65L111.14,88.48L115.97,86.51L120.81,85.41L125.64,61.86L130.47,159.99L135.3,84.08L140.13,115.38L144.97,81.59L154.63,221.72L159.46,138.18L164.3,105.83L169.13,58.45L173.96,94.38L178.79,95.77L183.62,133.84L188.46,58.91L193.29,63.02L198.12,59.14L202.95,135.69L207.79,141.65L212.62,104.85L217.45,125.33L222.28,120.41L227.11,150.62L231.95,166.99L236.78,136.73L241.61,141.65L246.44,52.32L251.28,43.98L256.11,59.37L260.94,55.67L265.77,72.39L270.6,74.65L275.44,70.37L280.27,71.81L285.1,71.7L289.93,66.03L294.77,52.72L299.6,50.87L304.43,68.63L309.26,70.48L314.09,68.46L318.93,67.19L323.76,71.64L328.59,74.24L333.42,68.23L338.26,69.79L343.09,66.38L347.92,67.42L352.75,66.38L357.58,107.45L362.42,109.07L367.25,110.12L372.08,65.22L376.91,64.41L381.74,64.64L386.58,66.95L391.41,67.19L396.24,68.4L401.07,67.42L405.91,68.23L410.74,70.6L415.57,87.84L420.4,89L425.23,87.84L430.07,67.42L434.9,68.98L439.73,69.56L444.56,69.04L449.4,42.83L459.06,44.68L463.89,67.82L478.39,65.22L483.22,63.19L492.89,66.03L497.72,62.15L512.21,62.73L517.05,65.57L521.88,65.28L526.71,66.49L536.38,65.91L541.21,67.53L546.04,65.45L550.87,68.46L560.54,67.42L565.37,68.23L570.2,68L575.03,66.03L579.87,63.94L584.7,64.76L594.36,63.19L599.19,66.49L608.86,64L613.69,64.52L618.52,62.96L623.36,62.96L628.19,63.6L633.02,65.8L637.85,65.8L642.68,64.64L647.52,63.77L652.35,64L657.18,63.19L662.01,64.41L671.68,64.64L676.51,62.96L681.34,62.61L686.17,63.77L695.84,62.38L700.67,62.61L705.5,64.23L710.34,62.61L715.17,62.04L720,62.61" style="vector-effect: none; fill: none; stroke: rgb(128, 0, 128); stroke-opacity: 1; stroke-width: 2px; opacity: 1;"/></g><g class="points"/><g class="text"/></g><g class="trace scatter trace7634cd" style="stroke-miterlimit: 2; opacity: 1;"><g class="fills"/><g class="errorbars"/><g class="lines"><path class="js-line" d="M0,254.87L14.5,254.87L19.33,240.06L28.99,240.06L33.83,110.69L38.66,136.27L43.49,170.17L48.32,109.13L53.15,210.38L57.99,217.79L62.82,240.06L67.65,221.49L72.48,221.49L77.32,221.49L82.15,217.79L86.98,217.79L91.81,221.49L96.64,221.49L101.48,206.68L106.31,206.68L111.14,101.09L115.97,99.53L120.81,95.25L125.64,156.92L130.47,180.7L135.3,95.25L140.13,158.43L144.97,164.33L149.8,180.7L154.63,217.79L159.46,180.7L164.3,165.89L169.13,156.92L173.96,168.03L178.79,165.89L183.62,169.59L188.46,154.72L198.12,154.72L202.95,173.3L207.79,165.89L212.62,162.13L222.28,162.13L227.11,177L231.95,191.81L236.78,177L241.61,173.3L246.44,154.72L260.94,154.72L265.77,93.05L270.6,95.25L275.44,93.05L289.93,93.05L294.77,156.92L299.6,154.72L304.43,93.05L318.93,93.05L323.76,90.91L338.26,90.91L343.09,93.05L352.75,93.05L357.58,164.33L362.42,154.72L367.25,154.72L372.08,93.05L376.91,93.05L381.74,93.05L386.58,95.25L396.24,95.25L401.07,93.05L410.74,93.05L415.57,101.73L420.4,106.01L425.23,106.01L430.07,93.05L434.9,95.25L439.73,95.25L444.56,93.05L449.4,156.92L454.23,154.72L459.06,154.72L463.89,90.91L468.72,90.91L473.56,93.05L488.05,93.05L492.89,96.81L497.72,93.05L502.55,93.05L507.38,93.05L512.21,95.25L517.05,95.25L521.88,93.05L575.03,93.05L579.87,95.25L589.53,95.25L594.36,93.05L608.86,93.05L613.69,95.25L618.52,93.05L623.36,93.05L666.85,93.05L671.68,90.91L676.51,93.05L681.34,93.05L686.17,95.25L691.01,93.05L720,93.05" style="vector-effect: none; fill: none; stroke: rgb(255, 192, 203); stroke-opacity: 1; stroke-width: 2px; opacity: 1;"/></g><g class="points"/><g class="text"/></g><g class="trace scatter trace4c59bc" style="stroke-miterlimit: 2; opacity: 1;"><g class="fills"/><g class="errorbars"/><g class="lines"><path class="js-line" d="M0,331.65L14.5,331.65L19.33,310.76L24.16,310.76L28.99,290.17L33.83,119.83L38.66,128.51L43.49,97.15L48.32,111.04L53.15,257.42L57.99,287.04L62.82,312.44L67.65,299.08L72.48,290.17L77.32,290.17L82.15,285.48L86.98,285.48L91.81,290.17L96.64,290.17L101.48,254.12L106.31,241.51L111.14,88.25L115.97,88.3L120.81,84.48L125.64,55.79L130.47,167.63L135.3,82.75L140.13,112.02L144.97,75.34L149.8,152.06L154.63,264.25L159.46,139.45L164.3,101.2L169.13,52.14L173.96,88.59L178.79,90.15L183.62,134.01L188.46,52.43L193.29,56.42L198.12,52.55L202.95,136.44L207.79,143.96L212.62,100.16L217.45,123.83L222.28,118.04L227.11,155.59L231.95,177.69L236.78,137.83L241.61,143.96L246.44,46.36L251.28,38.08L256.11,52.66L260.94,49.19L265.77,71.18L270.6,74.24L275.44,69.09L280.27,70.54L285.1,70.95L289.93,64.41L294.77,45.78L299.6,44.1L304.43,67.13L309.26,68.75L314.09,66.66L318.93,65.68L323.76,70.08L328.59,72.8L333.42,66.55L338.26,68.46L343.09,64.93L347.92,65.8L352.75,64.93L357.58,103.06L367.25,106.07L372.08,63.6L376.91,62.85L381.74,62.96L386.58,65.62L391.41,65.68L396.24,67.01L401.07,65.8L405.91,66.55L410.74,69.21L415.57,90.15L420.4,91.49L425.23,90.15L430.07,65.8L434.9,67.71L439.73,68.34L444.56,67.3L449.4,36.69L459.06,38.37L463.89,66.38L473.56,64.29L478.39,63.6L483.22,61.51L488.05,62.85L492.89,64.41L497.72,60.7L512.21,61.34L517.05,64.18L521.88,63.25L526.71,64.58L536.38,63.89L541.21,65.45L546.04,63.71L550.87,66.66L560.54,65.8L565.37,66.55L570.2,66.49L575.03,64.41L579.87,62.67L584.7,63.42L594.36,61.51L599.19,64.58L608.86,62.27L613.69,63.37L618.52,61.46L623.36,61.46L628.19,62.09L633.02,64.29L637.85,64.29L642.68,62.96L647.52,62.21L652.35,62.27L657.18,61.51L662.01,62.85L671.68,62.96L676.51,61.46L681.34,60.88L686.17,62.21L695.84,60.76L700.67,60.88L705.5,62.38L710.34,60.88L715.17,60.18L720,60.88" style="vector-effect: none; fill: none; stroke: rgb(165, 42, 42); stroke-opacity: 1; stroke-width: 2px; opacity: 1;"/></g><g class="points"/><g class="text"/></g><g class="trace scatter trace40e701" style="stroke-miterlimit: 2; opacity: 1;"><g class="fills"/><g class="errorbars"/><g class="lines"><path class="js-line" d="M0,320.08L14.5,320.08L19.33,289.24L28.99,289.24L33.83,119.89L38.66,154.84L43.49,171.96L48.32,119.43L53.15,234.91L57.99,247.7L62.82,289.24L67.65,254.24L72.48,254.24L77.32,254.24L82.15,247.7L86.98,247.7L91.81,254.24L96.64,254.24L101.48,228.66L106.31,228.66L111.14,111.27L115.97,110.81L120.81,105.66L125.64,154.78L130.47,188.28L135.3,105.66L140.13,157.21L144.97,164.62L149.8,188.28L154.63,247.7L159.46,188.28L164.3,167.28L169.13,154.78L173.96,169.65L178.79,167.28L183.62,172.37L188.46,152.35L198.12,152.35L202.95,177.58L207.79,167.28L212.62,162.19L222.28,162.19L227.11,182.9L231.95,205L236.78,182.9L241.61,177.58L246.44,152.35L260.94,152.35L265.77,103.06L270.6,105.66L275.44,103.06L289.93,103.06L294.77,154.78L299.6,152.35L304.43,103.06L318.93,103.06L323.76,100.45L338.26,100.45L343.09,103.06L352.75,103.06L357.58,164.62L362.42,152.35L367.25,152.35L372.08,103.06L376.91,103.06L381.74,103.06L386.58,105.66L396.24,105.66L401.07,103.06L410.74,103.06L415.57,113.41L420.4,118.56L425.23,118.56L430.07,103.06L434.9,105.66L439.73,105.66L444.56,103.06L449.4,154.78L454.23,152.35L459.06,152.35L463.89,100.45L468.72,100.45L473.56,103.06L488.05,103.06L492.89,106.12L497.72,103.06L502.55,103.06L507.38,103.06L512.21,105.66L517.05,105.66L521.88,103.06L575.03,103.06L579.87,105.66L589.53,105.66L594.36,103.06L608.86,103.06L613.69,105.66L618.52,103.06L623.36,103.06L666.85,103.06L671.68,100.45L676.51,103.06L681.34,103.06L686.17,105.66L691.01,103.06L720,103.06" style="vector-effect: none; fill: none; stroke: rgb(128, 128, 128); stroke-opacity: 1; stroke-width: 2px; opacity: 1;"/></g><g class="points"/><g class="text"/></g></g></g><g class="overplot"/><path class="xlines-above crisp" d="M0,0" style="fill: none;"/><path class="ylines-above crisp" d="M0,0" style="fill: none;"/><g class="overlines-above"/><g class="xaxislayer-above"><g class="xtick"><text text-anchor="middle" x="0" y="509" transform="translate(241.81,0)" style="font-family: 'Open Sans', verdana, arial, sans-serif; font-size: 12px; fill: rgb(42, 63, 95); fill-opacity: 1; white-space: pre; opacity: 1;">20</text></g><g class="xtick"><text text-anchor="middle" x="0" y="509" style="font-family: 'Open Sans', verdana, arial, sans-serif; font-size: 12px; fill: rgb(42, 63, 95); fill-opacity: 1; white-space: pre; opacity: 1;" transform="translate(338.46000000000004,0)">40</text></g><g class="xtick"><text text-anchor="middle" x="0" y="509" style="font-family: 'Open Sans', verdana, arial, sans-serif; font-size: 12px; fill: rgb(42, 63, 95); fill-opacity: 1; white-space: pre; opacity: 1;" transform="translate(435.1,0)">60</text></g><g class="xtick"><text text-anchor="middle" x="0" y="509" style="font-family: 'Open Sans', verdana, arial, sans-serif; font-size: 12px; fill: rgb(42, 63, 95); fill-opacity: 1; white-space: pre; opacity: 1;" transform="translate(531.74,0)">80</text></g><g class="xtick"><text text-anchor="middle" x="0" y="509" style="font-family: 'Open Sans', verdana, arial, sans-serif; font-size: 12px; fill: rgb(42, 63, 95); fill-opacity: 1; white-space: pre; opacity: 1;" transform="translate(628.39,0)">100</text></g><g class="xtick"><text text-anchor="middle" x="0" y="509" style="font-family: 'Open Sans', verdana, arial, sans-serif; font-size: 12px; fill: rgb(42, 63, 95); fill-opacity: 1; white-space: pre; opacity: 1;" transform="translate(725.03,0)">120</text></g><g class="xtick"><text text-anchor="middle" x="0" y="509" style="font-family: 'Open Sans', verdana, arial, sans-serif; font-size: 12px; fill: rgb(42, 63, 95); fill-opacity: 1; white-space: pre; opacity: 1;" transform="translate(821.68,0)">140</text></g></g><g class="yaxislayer-above"><g class="ytick"><text text-anchor="end" x="149" y="4.199999999999999" transform="translate(0,470.59)" style="font-family: 'Open Sans', verdana, arial, sans-serif; font-size: 12px; fill: rgb(42, 63, 95); fill-opacity: 1; white-space: pre; opacity: 1;">30</text></g><g class="ytick"><text text-anchor="end" x="149" y="4.199999999999999" style="font-family: 'Open Sans', verdana, arial, sans-serif; font-size: 12px; fill: rgb(42, 63, 95); fill-opacity: 1; white-space: pre; opacity: 1;" transform="translate(0,412.73)">40</text></g><g class="ytick"><text text-anchor="end" x="149" y="4.199999999999999" style="font-family: 'Open Sans', verdana, arial, sans-serif; font-size: 12px; fill: rgb(42, 63, 95); fill-opacity: 1; white-space: pre; opacity: 1;" transform="translate(0,354.87)">50</text></g><g class="ytick"><text text-anchor="end" x="149" y="4.199999999999999" style="font-family: 'Open Sans', verdana, arial, sans-serif; font-size: 12px; fill: rgb(42, 63, 95); fill-opacity: 1; white-space: pre; opacity: 1;" transform="translate(0,297.02)">60</text></g><g class="ytick"><text text-anchor="end" x="149" y="4.199999999999999" style="font-family: 'Open Sans', verdana, arial, sans-serif; font-size: 12px; fill: rgb(42, 63, 95); fill-opacity: 1; white-space: pre; opacity: 1;" transform="translate(0,239.16)">70</text></g><g class="ytick"><text text-anchor="end" x="149" y="4.199999999999999" style="font-family: 'Open Sans', verdana, arial, sans-serif; font-size: 12px; fill: rgb(42, 63, 95); fill-opacity: 1; white-space: pre; opacity: 1;" transform="translate(0,181.3)">80</text></g><g class="ytick"><text text-anchor="end" x="149" y="4.199999999999999" style="font-family: 'Open Sans', verdana, arial, sans-serif; font-size: 12px; fill: rgb(42, 63, 95); fill-opacity: 1; white-space: pre; opacity: 1;" transform="translate(0,123.44)">90</text></g></g><g class="overaxes-above"/></g></g><g class="polarlayer"/><g class="smithlayer"/><g class="ternarylayer"/><g class="geolayer"/><g class="funnelarealayer"/><g class="pielayer"/><g class="iciclelayer"/><g class="treemaplayer"/><g class="sunburstlayer"/><g class="glimages"/><defs id="topdefs-682a55"><g class="clips"/><clipPath id="legend682a55"><rect width="128" height="162" x="0" y="0"/></clipPath></defs><g class="layer-above"><g class="imagelayer"/><g class="shapelayer"/></g><g class="infolayer"><g class="legend" pointer-events="all" transform="translate(884.4,100)"><rect class="bg" shape-rendering="crispEdges" width="128" height="162" x="0" y="0" style="stroke: rgb(68, 68, 68); stroke-opacity: 1; fill: rgb(255, 255, 255); fill-opacity: 1; stroke-width: 0px;"/><g class="scrollbox" transform="" clip-path="url(#legend682a55)"><g class="groups"><g class="traces" transform="translate(0,14.5)" style="opacity: 1;"><text class="legendtext" text-anchor="start" x="40" y="4.680000000000001" style="font-family: 'Open Sans', verdana, arial, sans-serif; font-size: 12px; fill: rgb(42, 63, 95); fill-opacity: 1; white-space: pre;">Train Accuracy</text><g class="layers" style="opacity: 1;"><g class="legendfill"/><g class="legendlines"><path class="js-line" d="M5,0h30" style="fill: none; stroke: rgb(255, 0, 0); stroke-opacity: 1; stroke-width: 2px;"/></g><g class="legendsymbols"><g class="legendpoints"/></g></g><rect class="legendtoggle" x="0" y="-9.5" width="122.71875" height="19" style="fill: rgb(0, 0, 0); fill-opacity: 0;"/></g><g class="traces" transform="translate(0,33.5)" style="opacity: 1;"><text class="legendtext" text-anchor="start" x="40" y="4.680000000000001" style="font-family: 'Open Sans', verdana, arial, sans-serif; font-size: 12px; fill: rgb(42, 63, 95); fill-opacity: 1; white-space: pre;">Test Accuracy</text><g class="layers" style="opacity: 1;"><g class="legendfill"/><g class="legendlines"><path class="js-line" d="M5,0h30" style="fill: none; stroke: rgb(0, 0, 255); stroke-opacity: 1; stroke-width: 2px;"/></g><g class="legendsymbols"><g class="legendpoints"/></g></g><rect class="legendtoggle" x="0" y="-9.5" width="122.71875" height="19" style="fill: rgb(0, 0, 0); fill-opacity: 0;"/></g><g class="traces" transform="translate(0,52.5)" style="opacity: 1;"><text class="legendtext" text-anchor="start" x="40" y="4.680000000000001" style="font-family: 'Open Sans', verdana, arial, sans-serif; font-size: 12px; fill: rgb(42, 63, 95); fill-opacity: 1; white-space: pre;">Train Precision</text><g class="layers" style="opacity: 1;"><g class="legendfill"/><g class="legendlines"><path class="js-line" d="M5,0h30" style="fill: none; stroke: rgb(0, 128, 0); stroke-opacity: 1; stroke-width: 2px;"/></g><g class="legendsymbols"><g class="legendpoints"/></g></g><rect class="legendtoggle" x="0" y="-9.5" width="122.71875" height="19" style="fill: rgb(0, 0, 0); fill-opacity: 0;"/></g><g class="traces" transform="translate(0,71.5)" style="opacity: 1;"><text class="legendtext" text-anchor="start" x="40" y="4.680000000000001" style="font-family: 'Open Sans', verdana, arial, sans-serif; font-size: 12px; fill: rgb(42, 63, 95); fill-opacity: 1; white-space: pre;">Test Precision</text><g class="layers" style="opacity: 1;"><g class="legendfill"/><g class="legendlines"><path class="js-line" d="M5,0h30" style="fill: none; stroke: rgb(255, 165, 0); stroke-opacity: 1; stroke-width: 2px;"/></g><g class="legendsymbols"><g class="legendpoints"/></g></g><rect class="legendtoggle" x="0" y="-9.5" width="122.71875" height="19" style="fill: rgb(0, 0, 0); fill-opacity: 0;"/></g><g class="traces" transform="translate(0,90.5)" style="opacity: 1;"><text class="legendtext" text-anchor="start" x="40" y="4.680000000000001" style="font-family: 'Open Sans', verdana, arial, sans-serif; font-size: 12px; fill: rgb(42, 63, 95); fill-opacity: 1; white-space: pre;">Train Recall</text><g class="layers" style="opacity: 1;"><g class="legendfill"/><g class="legendlines"><path class="js-line" d="M5,0h30" style="fill: none; stroke: rgb(128, 0, 128); stroke-opacity: 1; stroke-width: 2px;"/></g><g class="legendsymbols"><g class="legendpoints"/></g></g><rect class="legendtoggle" x="0" y="-9.5" width="122.71875" height="19" style="fill: rgb(0, 0, 0); fill-opacity: 0;"/></g><g class="traces" transform="translate(0,109.5)" style="opacity: 1;"><text class="legendtext" text-anchor="start" x="40" y="4.680000000000001" style="font-family: 'Open Sans', verdana, arial, sans-serif; font-size: 12px; fill: rgb(42, 63, 95); fill-opacity: 1; white-space: pre;">Test Recall</text><g class="layers" style="opacity: 1;"><g class="legendfill"/><g class="legendlines"><path class="js-line" d="M5,0h30" style="fill: none; stroke: rgb(255, 192, 203); stroke-opacity: 1; stroke-width: 2px;"/></g><g class="legendsymbols"><g class="legendpoints"/></g></g><rect class="legendtoggle" x="0" y="-9.5" width="122.71875" height="19" style="fill: rgb(0, 0, 0); fill-opacity: 0;"/></g><g class="traces" transform="translate(0,128.5)" style="opacity: 1;"><text class="legendtext" text-anchor="start" x="40" y="4.680000000000001" style="font-family: 'Open Sans', verdana, arial, sans-serif; font-size: 12px; fill: rgb(42, 63, 95); fill-opacity: 1; white-space: pre;">Train F1</text><g class="layers" style="opacity: 1;"><g class="legendfill"/><g class="legendlines"><path class="js-line" d="M5,0h30" style="fill: none; stroke: rgb(165, 42, 42); stroke-opacity: 1; stroke-width: 2px;"/></g><g class="legendsymbols"><g class="legendpoints"/></g></g><rect class="legendtoggle" x="0" y="-9.5" width="122.71875" height="19" style="fill: rgb(0, 0, 0); fill-opacity: 0;"/></g><g class="traces" transform="translate(0,147.5)" style="opacity: 1;"><text class="legendtext" text-anchor="start" x="40" y="4.680000000000001" style="font-family: 'Open Sans', verdana, arial, sans-serif; font-size: 12px; fill: rgb(42, 63, 95); fill-opacity: 1; white-space: pre;">Test F1</text><g class="layers" style="opacity: 1;"><g class="legendfill"/><g class="legendlines"><path class="js-line" d="M5,0h30" style="fill: none; stroke: rgb(128, 128, 128); stroke-opacity: 1; stroke-width: 2px;"/></g><g class="legendsymbols"><g class="legendpoints"/></g></g><rect class="legendtoggle" x="0" y="-9.5" width="122.71875" height="19" style="fill: rgb(0, 0, 0); fill-opacity: 0;"/></g></g></g><rect class="scrollbar" rx="20" ry="3" width="0" height="0" x="0" y="0" style="fill: rgb(128, 139, 164); fill-opacity: 1;"/></g><g class="g-gtitle"><text class="gtitle" x="51.2" y="50" text-anchor="start" dy="0em" style="font-family: 'Open Sans', verdana, arial, sans-serif; font-size: 17px; fill: rgb(42, 63, 95); opacity: 1; font-weight: normal; white-space: pre;">Training Metrics - logs/FakeNewsNet-politifact_max-vocab=15000_pre=v1_domain_T=250_s=15.log</text></g><g class="g-xtitle"><text class="xtitle" x="510" y="537.3" text-anchor="middle" style="font-family: 'Open Sans', verdana, arial, sans-serif; font-size: 14px; fill: rgb(42, 63, 95); opacity: 1; font-weight: normal; white-space: pre;">Epoch</text></g><g class="g-ytitle"><text class="ytitle" transform="rotate(-90,110.965625,298)" x="110.965625" y="298" text-anchor="middle" style="font-family: 'Open Sans', verdana, arial, sans-serif; font-size: 14px; fill: rgb(42, 63, 95); opacity: 1; font-weight: normal; white-space: pre;">Metric Score</text></g></g><g class="menulayer"><g class="updatemenu-container" style="cursor: pointer;"><g class="updatemenu-header-group" transform="translate(12,60)"><g class="updatemenu-header" transform="translate(1,1)" style="pointer-events: all;"><rect class="updatemenu-item-rect" rx="2" ry="2" shape-rendering="crispEdges" x="0" y="0" width="174" height="33" style="stroke: rgb(190, 200, 217); stroke-opacity: 1; fill: rgb(255, 255, 255); fill-opacity: 1; stroke-width: 1px;"/><text class="updatemenu-item-text" text-anchor="start" data-notex="1" x="12" y="19.5" style="font-family: 'Open Sans', verdana, arial, sans-serif; font-size: 12px; fill: rgb(42, 63, 95); fill-opacity: 1; white-space: pre;">All</text></g><text class="updatemenu-header-arrow" text-anchor="end" x="170" y="19.5" style="font-family: 'Open Sans', verdana, arial, sans-serif; font-size: 12px; fill: rgb(42, 63, 95); fill-opacity: 1;">▼</text></g><g class="updatemenu-dropdown-button-group" updatemenu-active-index="-1" style="pointer-events: all;"><rect class="scrollbox-bg" opacity="0" x="0" y="0" width="0" height="0" style="pointer-events: all;"/></g></g></g></svg>