<svg class="main-svg" xmlns="http://www.w3.org/2000/svg" xmlns:xlink="http://www.w3.org/1999/xlink" width="1024" height="576" style="" viewBox="0 0 1024 576"><rect x="0" y="0" width="1024" height="576" style="fill: rgb(255, 255, 255); fill-opacity: 1;"/><defs id="defs-05adda"><g class="clips"><clipPath id="clip05addaxyplot" class="plotclip"><rect width="726" height="396"/></clipPath><clipPath class="axesclip" id="clip05addax"><rect x="143" y="0" width="726" height="576"/></clipPath><clipPath class="axesclip" id="clip05adday"><rect x="0" y="100" width="1024" height="396"/></clipPath><clipPath class="axesclip" id="clip05addaxy"><rect x="143" y="100" width="726" height="396"/></clipPath></g><g class="gradients"/><g class="patterns"/></defs><g class="bglayer"><rect class="bg" x="143" y="100" width="726" height="396" style="fill: rgb(229, 236, 246); fill-opacity: 1; stroke-width: 0;"/></g><g class="layer-below"><g class="imagelayer"/><g class="shapelayer"/></g><g class="cartesianlayer"><g class="subplot xy"><g class="layer-subplot"><g class="shapelayer"/><g class="imagelayer"/></g><g class="minor-gridlayer"><g class="x"/><g class="y"/></g><g class="gridlayer"><g class="x"><path class="xgrid crisp" transform="translate(235.57999999999998,0)" d="M0,100v396" style="stroke: rgb(255, 255, 255); stroke-opacity: 1; stroke-width: 1px;"/><path class="xgrid crisp" transform="translate(333.03,0)" d="M0,100v396" style="stroke: rgb(255, 255, 255); stroke-opacity: 1; stroke-width: 1px;"/><path class="xgrid crisp" transform="translate(430.48,0)" d="M0,100v396" style="stroke: rgb(255, 255, 255); stroke-opacity: 1; stroke-width: 1px;"/><path class="xgrid crisp" transform="translate(527.9300000000001,0)" d="M0,100v396" style="stroke: rgb(255, 255, 255); stroke-opacity: 1; stroke-width: 1px;"/><path class="xgrid crisp" transform="translate(625.38,0)" d="M0,100v396" style="stroke: rgb(255, 255, 255); stroke-opacity: 1; stroke-width: 1px;"/><path class="xgrid crisp" transform="translate(722.83,0)" d="M0,100v396" style="stroke: rgb(255, 255, 255); stroke-opacity: 1; stroke-width: 1px;"/><path class="xgrid crisp" transform="translate(820.28,0)" d="M0,100v396" style="stroke: rgb(255, 255, 255); stroke-opacity: 1; stroke-width: 1px;"/></g><g class="y"><path class="ygrid crisp" transform="translate(0,460.41)" d="M143,0h726" style="stroke: rgb(255, 255, 255); stroke-opacity: 1; stroke-width: 1px;"/><path class="ygrid crisp" transform="translate(0,405.94)" d="M143,0h726" style="stroke: rgb(255, 255, 255); stroke-opacity: 1; stroke-width: 1px;"/><path class="ygrid crisp" transform="translate(0,351.48)" d="M143,0h726" style="stroke: rgb(255, 255, 255); stroke-opacity: 1; stroke-width: 1px;"/><path class="ygrid crisp" transform="translate(0,297.02)" d="M143,0h726" style="stroke: rgb(255, 255, 255); stroke-opacity: 1; stroke-width: 1px;"/><path class="ygrid crisp" transform="translate(0,242.56)" d="M143,0h726" style="stroke: rgb(255, 255, 255); stroke-opacity: 1; stroke-width: 1px;"/><path class="ygrid crisp" transform="translate(0,188.1)" d="M143,0h726" style="stroke: rgb(255, 255, 255); stroke-opacity: 1; stroke-width: 1px;"/><path class="ygrid crisp" transform="translate(0,133.63)" d="M143,0h726" style="stroke: rgb(255, 255, 255); stroke-opacity: 1; stroke-width: 1px;"/></g></g><g class="zerolinelayer"/><path class="xlines-below"/><path class="ylines-below"/><g class="overlines-below"/><g class="xaxislayer-below"/><g class="yaxislayer-below"/><g class="overaxes-below"/><g class="plot" transform="translate(143,100)" clip-path="url(#clip05addaxyplot)"><g class="scatterlayer mlayer"><g class="trace scatter trace12a3b5" style="stroke-miterlimit: 2; opacity: 1;"><g class="fills"/><g class="errorbars"/><g class="lines"><path class="js-line" d="M0,231.66L4.87,196.8L9.74,198L14.62,200.61L19.49,187.76L24.36,180.03L29.23,124.48L34.11,97.35L38.98,89.62L43.85,61.3L48.72,79.27L53.6,65.11L58.47,109.01L63.34,119.36L68.21,106.39L73.09,87.12L77.96,81.89L82.83,69.03L87.7,72.85L92.58,67.73L97.45,44.53L102.32,27.64L107.19,35.49L112.07,36.68L116.94,102.58L126.68,105.09L131.56,120.66L136.43,65.11L141.3,50.95L146.17,110.32L151.05,96.05L155.92,53.46L160.79,47.03L165.66,134.82L170.54,145.17L175.41,49.65L180.28,48.34L185.15,30.26L190.03,41.91L194.9,52.26L199.77,47.03L204.64,47.03L209.52,50.95L214.39,57.38L219.26,49.65L224.13,50.95L229.01,45.72L233.88,54.76L238.75,53.46L243.62,52.26L248.5,48.34L253.37,63.81L258.24,50.95L272.86,43.22L277.73,52.26L282.6,54.76L287.48,52.26L292.35,63.81L297.22,48.34L302.09,48.34L306.97,40.6L311.84,49.65L316.71,53.46L321.58,49.65L326.46,54.76L331.33,65.11L336.2,59.99L341.07,59.99L345.95,65.11L350.82,56.07L355.69,62.5L360.56,48.34L365.44,44.53L370.31,48.34L375.18,43.22L380.05,41.91L384.93,62.5L389.8,44.53L394.67,53.46L399.54,48.34L404.42,49.65L409.29,54.76L414.16,50.95L419.03,52.26L423.91,49.65L428.78,37.99L433.65,45.72L438.52,45.72L443.4,44.53L448.27,45.72L453.14,57.38L458.01,56.07L462.89,56.07L472.63,45.72L477.5,56.07L482.38,57.38L487.25,54.76L492.12,44.53L496.99,43.22L501.87,45.72L506.74,44.53L511.61,44.53L516.48,45.72L526.23,40.6L531.1,41.91L540.85,39.3L545.72,35.49L555.46,40.6L560.34,41.91L565.21,44.53L570.08,40.6L574.95,44.53L579.83,47.03L584.7,56.07L589.57,54.76L594.44,43.22L599.32,53.46L604.19,47.03L609.06,44.53L613.93,45.72L618.81,49.65L623.68,53.46L628.55,47.03L633.42,41.91L638.3,45.72L648.04,43.22L652.91,39.3L657.79,45.72L662.66,37.99L667.53,36.68L672.4,36.68L677.28,40.6L682.15,31.56L687.02,28.95L691.89,34.18L696.77,37.99L701.64,40.6L706.51,39.3L711.38,44.53L716.26,44.53L721.13,39.3L726,40.6" style="vector-effect: none; fill: none; stroke: rgb(255, 0, 0); stroke-opacity: 1; stroke-width: 2px; opacity: 1;"/></g><g class="points"/><g class="text"/></g><g class="trace scatter trace74d944" style="stroke-miterlimit: 2; opacity: 1;"><g class="fills"/><g class="errorbars"/><g class="lines"><path class="js-line" d="M0,229.91L4.87,219.68L9.74,219.68L14.62,219.68L19.49,209.33L24.36,214.45L29.23,163.14L34.11,142.56L38.98,132.32L43.85,121.97L48.72,147.68L53.6,152.8L58.47,152.8L63.34,173.38L68.21,158.02L73.09,152.8L77.96,158.02L82.83,158.02L87.7,152.8L92.58,147.68L97.45,132.32L102.32,101.49L107.19,106.61L112.07,121.97L116.94,163.14L121.81,178.5L126.68,188.85L131.56,214.45L136.43,163.14L141.3,132.32L146.17,199.09L151.05,183.62L155.92,137.44L160.79,142.56L165.66,193.97L170.54,204.21L175.41,147.68L180.28,142.56L185.15,111.73L190.03,142.56L194.9,116.85L199.77,101.49L204.64,116.85L209.52,127.09L214.39,147.68L219.26,137.44L224.13,132.32L229.01,137.44L233.88,132.32L238.75,132.32L243.62,137.44L248.5,142.56L253.37,152.8L258.24,132.32L263.11,121.97L267.99,137.44L272.86,137.44L277.73,121.97L282.6,132.32L287.48,132.32L292.35,152.8L297.22,132.32L302.09,137.44L306.97,137.44L311.84,142.56L316.71,137.44L321.58,142.56L326.46,137.44L331.33,152.8L345.95,152.8L350.82,158.02L355.69,158.02L360.56,137.44L365.44,132.32L370.31,132.32L375.18,137.44L380.05,127.09L384.93,147.68L389.8,121.97L394.67,132.32L399.54,127.09L409.29,127.09L414.16,137.44L419.03,127.09L423.91,127.09L428.78,132.32L433.65,121.97L438.52,121.97L443.4,127.09L448.27,116.85L453.14,147.68L458.01,142.56L462.89,147.68L467.76,132.32L472.63,132.32L477.5,127.09L482.38,116.85L487.25,132.32L492.12,116.85L496.99,121.97L501.87,137.44L516.48,121.97L521.36,106.61L526.23,132.32L531.1,142.56L535.97,121.97L540.85,121.97L545.72,121.97L550.59,116.85L555.46,137.44L560.34,121.97L565.21,127.09L570.08,127.09L574.95,111.73L579.83,127.09L584.7,152.8L589.57,147.68L594.44,116.85L599.32,147.68L604.19,121.97L609.06,116.85L613.93,116.85L618.81,127.09L623.68,127.09L628.55,132.32L633.42,121.97L638.3,116.85L643.17,127.09L648.04,121.97L652.91,106.61L657.79,111.73L662.66,111.73L667.53,121.97L672.4,127.09L677.28,111.73L682.15,111.73L687.02,116.85L691.89,116.85L696.77,121.97L701.64,121.97L706.51,111.73L711.38,111.73L716.26,121.97L721.13,127.09L726,127.09" style="vector-effect: none; fill: none; stroke: rgb(0, 0, 255); stroke-opacity: 1; stroke-width: 2px; opacity: 1;"/></g><g class="points"/><g class="text"/></g><g class="trace scatter traceb7f7f0" style="stroke-miterlimit: 2; opacity: 1;"><g class="fills"/><g class="errorbars"/><g class="lines"><path class="js-line" d="M0,124.26L4.87,105.09L9.74,105.96L14.62,117.4L19.49,113.15L24.36,104.76L29.23,76.33L34.11,66.2L38.98,63.04L43.85,49.43L48.72,67.4L53.6,56.51L58.47,77.53L63.34,91.91L68.21,85.26L73.09,71.87L77.96,68.6L82.83,61.95L87.7,68.49L92.58,65.66L97.45,49.75L102.32,32.65L107.19,40.6L112.07,41.91L116.94,79.71L121.81,80.58L126.68,84.17L131.56,94.41L136.43,64.89L141.3,52.15L146.17,90.38L151.05,79.82L155.92,52.15L160.79,46.38L165.66,90.49L170.54,100.29L175.41,50.19L180.28,49.54L185.15,31.89L190.03,45.07L194.9,54.55L199.77,49.1L204.64,48.45L209.52,52.15L214.39,57.16L219.26,50.63L224.13,52.8L229.01,47.25L233.88,55.74L243.62,52.8L248.5,49.54L253.37,62.93L258.24,51.71L263.11,49.54L267.99,46.16L272.86,43.55L277.73,51.61L282.6,54.11L287.48,51.61L292.35,61.08L297.22,47.03L302.09,47.9L306.97,41.04L311.84,49.43L316.71,52.15L321.58,47.58L326.46,53.24L331.33,60.97L336.2,56.94L341.07,56.94L345.95,60.97L350.82,51.71L355.69,57.81L360.56,46.6L365.44,42.89L370.31,46.05L375.18,42.35L380.05,40.82L384.93,59.01L389.8,44.31L394.67,51.71L399.54,47.03L404.42,47.58L409.29,52.26L414.16,48.12L419.03,48.66L423.91,47.14L428.78,37.12L433.65,44.85L443.4,44.31L448.27,45.29L453.14,54.87L458.01,53.78L462.89,52.8L467.76,50.08L472.63,45.72L477.5,53.78L482.38,56.29L487.25,53.68L492.12,44.31L496.99,43.98L501.87,46.6L506.74,45.51L511.61,43.87L516.48,44.42L521.36,43.22L526.23,39.73L531.1,42.46L535.97,41.04L540.85,39.08L545.72,35.81L565.21,42.46L570.08,40.17L574.95,43.44L579.83,44.96L584.7,54.33L589.57,52.8L594.44,42.35L599.32,50.73L609.06,42.46L613.93,43.98L618.81,48.56L623.68,49.65L633.42,41.26L638.3,43.98L643.17,42.46L648.04,43.22L652.91,37.77L657.79,43.98L662.66,37.99L667.53,36.57L672.4,36.57L677.28,39.73L682.15,32.22L687.02,29.93L701.64,40.17L706.51,37.77L711.38,42.89L716.26,43.44L721.13,38.64L726,40.17" style="vector-effect: none; fill: none; stroke: rgb(0, 128, 0); stroke-opacity: 1; stroke-width: 2px; opacity: 1;"/></g><g class="points"/><g class="text"/></g><g class="trace scatter trace1f4d5b" style="stroke-miterlimit: 2; opacity: 1;"><g class="fills"/><g class="errorbars"/><g class="lines"><path class="js-line" d="M0,215.21L4.87,196.48L9.74,196.48L14.62,196.48L19.49,180.25L24.36,197.46L29.23,140.49L34.11,131.56L38.98,130.36L43.85,129.7L48.72,158.57L53.6,164.02L58.47,146.91L63.34,181.01L68.21,163.91L73.09,164.02L77.96,169.46L82.83,171.75L87.7,168.15L92.58,164.23L97.45,151.82L102.32,118.92L107.19,124.37L112.07,140.92L116.94,145.28L121.81,162.71L126.68,169.35L131.56,185.47L136.43,169.35L141.3,144.3L146.17,179.81L151.05,169.68L155.92,140.05L160.79,148.77L165.66,159.99L170.54,165.98L175.41,152.8L180.28,148.77L185.15,125.46L190.03,161.95L194.9,126.11L199.77,109.66L204.64,124.04L209.52,136.46L214.39,152.8L219.26,146.7L224.13,144.3L229.01,146.7L233.88,138.42L238.75,136.13L243.62,144.74L253.37,156.72L258.24,140.6L263.11,130.25L267.99,146.7L272.86,142.45L277.73,128.18L282.6,136.13L287.48,136.13L292.35,154.21L297.22,140.6L302.09,144.74L306.97,144.74L311.84,148.77L316.71,144.74L321.58,150.94L326.46,144.74L331.33,154.21L336.2,151.49L341.07,156.72L345.95,154.21L350.82,155.19L355.69,158.02L360.56,144.74L365.44,136.13L370.31,136.13L375.18,140.05L380.05,132.21L384.93,147.68L389.8,125.89L394.67,136.13L399.54,129.7L404.42,132.21L409.29,129.7L414.16,137.44L419.03,129.7L423.91,129.7L428.78,136.13L433.65,123.39L438.52,125.89L443.4,132.21L448.27,124.04L453.14,144.84L458.01,138.31L462.89,144.84L467.76,133.63L472.63,133.63L477.5,127.09L482.38,116.85L487.25,133.63L492.12,119.47L496.99,128.18L501.87,140.05L506.74,133.63L511.61,132.21L516.48,125.89L521.36,113.8L526.23,138.42L531.1,148.77L535.97,128.18L540.85,128.18L545.72,128.18L550.59,121.86L555.46,137.44L560.34,123.39L565.21,127.09L570.08,129.7L574.95,117.83L579.83,127.09L584.7,145.5L589.57,141.9L594.44,116.85L599.32,144.84L604.19,123.39L609.06,119.47L613.93,119.47L618.81,129.7L623.68,127.09L628.55,136.13L633.42,125.89L638.3,119.47L643.17,129.7L648.04,128.18L652.91,111.62L657.79,113.04L662.66,115.54L667.53,125.89L672.4,132.21L677.28,119.9L682.15,119.9L687.02,124.04L691.89,121.86L696.77,125.89L701.64,125.89L706.51,117.83L711.38,115.54L716.26,128.18L721.13,132.21L726,129.7" style="vector-effect: none; fill: none; stroke: rgb(255, 165, 0); stroke-opacity: 1; stroke-width: 2px; opacity: 1;"/></g><g class="points"/><g class="text"/></g><g class="trace scatter tracec148f1" style="stroke-miterlimit: 2; opacity: 1;"><g class="fills"/><g class="errorbars"/><g class="lines"><path class="js-line" d="M0,296.79L4.87,254.31L9.74,255.95L14.62,257.69L19.49,241.46L24.36,232.64L29.23,164.34L34.11,129.49L38.98,119.36L43.85,82.1L48.72,101.93L53.6,84.61L58.47,142.45L63.34,152.69L68.21,136.02L73.09,112.06L77.96,105.52L82.83,87.99L87.7,90.49L92.58,82.98L97.45,45.94L102.32,29.39L107.19,35.59L112.07,37.12L116.94,79.71L121.81,80.8L126.68,83.19L131.56,96.59L136.43,55.64L141.3,42.46L146.17,88.97L151.05,76.33L155.92,42.57L160.79,36.57L165.66,104.11L170.54,114.24L175.41,40.5L185.15,38.86L190.03,49.21L194.9,45.29L199.77,39.62L204.64,38.75L209.52,42.46L214.39,47.68L219.26,40.93L224.13,43.33L229.01,37.66L233.88,46.27L238.75,44.74L243.62,43.22L248.5,39.84L253.37,53.68L258.24,42.13L263.11,39.84L267.99,36.36L272.86,33.74L277.73,41.91L282.6,44.53L287.48,41.91L292.35,51.93L297.22,37.34L302.09,38.1L306.97,31.02L311.84,39.73L316.71,42.57L321.58,37.99L326.46,43.65L331.33,52.15L336.2,47.68L341.07,47.68L345.95,52.15L350.82,42.67L355.69,49.1L360.56,36.9L365.44,33.09L370.31,36.47L375.18,32.44L380.05,30.91L384.93,49.97L389.8,34.4L394.67,42.13L399.54,37.34L404.42,37.99L409.29,42.89L414.16,38.64L419.03,39.3L423.91,37.55L428.78,27.1L433.65,35.05L443.4,34.4L448.27,35.49L453.14,45.51L458.01,44.42L462.89,43.55L467.76,40.39L472.63,35.92L477.5,44.42L482.38,46.81L487.25,44.09L492.12,34.4L496.99,34.18L501.87,36.79L506.74,35.7L511.61,33.96L516.48,34.61L521.36,33.31L526.23,29.82L531.1,32.54L535.97,31.02L540.85,29.06L545.72,25.79L565.21,32.65L570.08,30.15L574.95,33.52L579.83,35.38L584.7,44.85L589.57,43.33L594.44,32.44L599.32,41.37L609.06,32.65L613.93,34.18L618.81,38.86L623.68,40.5L628.55,35.38L633.42,31.35L638.3,34.18L643.17,32.65L648.04,33.31L652.91,27.86L657.79,34.18L662.66,27.97L667.53,26.44L672.4,26.44L677.28,29.82L682.15,21.98L687.02,19.8L691.89,23.39L701.64,30.15L706.51,27.86L711.38,33.09L716.26,33.52L721.13,28.62L726,30.15" style="vector-effect: none; fill: none; stroke: rgb(128, 0, 128); stroke-opacity: 1; stroke-width: 2px; opacity: 1;"/></g><g class="points"/><g class="text"/></g><g class="trace scatter tracefdc89f" style="stroke-miterlimit: 2; opacity: 1;"><g class="fills"/><g class="errorbars"/><g class="lines"><path class="js-line" d="M0,341.45L4.87,327.51L9.74,327.51L14.62,327.51L19.49,313.57L24.36,317.6L29.23,244.95L34.11,211.18L38.98,191.36L43.85,168.59L48.72,200.61L53.6,207.59L58.47,222.18L63.34,241.35L68.21,220.44L73.09,207.59L77.96,214.56L82.83,211.62L87.7,201.7L92.58,191.9L97.45,150.51L102.32,117.29L107.19,124.37L112.07,139.4L116.94,128.18L121.81,146.15L126.68,154.32L131.56,174.69L136.43,151.49L141.3,127.09L146.17,165.43L151.05,153.23L155.92,119.57L160.79,129.38L165.66,149.64L170.54,157.81L175.41,133.52L180.28,129.38L185.15,145.93L190.03,176.11L194.9,106.18L199.77,88.2L204.64,103.24L214.39,133.52L219.26,128.29L224.13,127.09L229.01,128.29L233.88,118.38L238.75,115.44L243.62,125.35L248.5,132.32L253.37,137.55L258.24,121.32L263.11,110.21L267.99,128.29L272.86,122.41L277.73,107.38L282.6,115.44L287.48,115.44L292.35,134.61L297.22,121.32L302.09,125.35L306.97,125.35L311.84,129.38L316.71,125.35L321.58,132.32L326.46,125.35L331.33,134.61L336.2,131.67L341.07,137.55L345.95,134.61L350.82,135.8L355.69,138.75L360.56,125.35L365.44,115.44L370.31,115.44L375.18,119.57L380.05,111.41L384.93,127.63L389.8,104.43L394.67,115.44L399.54,108.46L404.42,111.41L409.29,108.46L414.16,116.63L419.03,108.46L423.91,108.46L428.78,115.44L433.65,101.49L438.52,104.43L443.4,111.41L448.27,103.24L453.14,124.69L458.01,117.72L462.89,124.69L467.76,112.49L472.63,112.49L477.5,105.52L482.38,94.52L487.25,112.49L492.12,97.46L496.99,107.38L501.87,119.57L506.74,112.49L511.61,111.41L516.48,104.43L521.36,92.23L526.23,118.38L531.1,129.38L535.97,107.38L540.85,107.38L545.72,107.38L550.59,100.4L555.46,116.63L560.34,101.49L565.21,105.52L570.08,108.46L574.95,96.26L579.83,105.52L584.7,125.89L589.57,121.86L594.44,94.52L599.32,124.69L604.19,101.49L609.06,97.46L613.93,97.46L618.81,108.46L623.68,105.52L628.55,115.44L633.42,104.43L638.3,97.46L643.17,108.46L648.04,107.38L652.91,89.29L657.79,90.49L662.66,93.32L667.53,104.43L672.4,111.41L677.28,99.21L682.15,99.21L687.02,103.24L691.89,100.4L696.77,104.43L701.64,104.43L706.51,96.26L711.38,93.32L716.26,107.38L721.13,111.41L726,108.46" style="vector-effect: none; fill: none; stroke: rgb(255, 192, 203); stroke-opacity: 1; stroke-width: 2px; opacity: 1;"/></g><g class="points"/><g class="text"/></g><g class="trace scatter trace7ce6cb" style="stroke-miterlimit: 2; opacity: 1;"><g class="fills"/><g class="errorbars"/><g class="lines"><path class="js-line" d="M0,333.61L4.87,271.85L9.74,273.92L14.62,275.12L19.49,252.79L24.36,241.68L29.23,158.79L34.11,120.77L38.98,110.42L43.85,73.83L48.72,93.98L53.6,77.09L58.47,134.72L63.34,145.72L68.21,128.18L73.09,103.78L77.96,97.35L82.83,80.8L87.7,84.07L92.58,77.42L97.45,48.12L102.32,31.13L107.19,38.64L112.07,39.95L116.94,102.58L126.68,105.09L131.56,120.66L136.43,66.31L141.3,52.37L146.17,110.32L151.05,96.16L155.92,54.55L160.79,48.12L165.66,135.48L170.54,145.83L175.41,50.95L180.28,49.75L185.15,35.92L190.03,47.47L194.9,53.89L199.77,48.66L204.64,48.45L209.52,52.37L214.39,58.58L219.26,50.95L224.13,52.48L229.01,47.25L233.88,56.18L238.75,54.87L243.62,53.57L248.5,49.75L253.37,65L258.24,52.26L272.86,44.42L277.73,53.35L282.6,55.85L287.48,53.35L292.35,64.68L297.22,49.32L302.09,49.43L306.97,41.8L311.84,50.73L316.71,54.55L321.58,50.52L326.46,55.74L331.33,65.87L336.2,60.76L341.07,60.76L345.95,65.87L350.82,56.73L355.69,63.15L360.56,49.21L365.44,45.4L370.31,49.21L375.18,44.2L380.05,42.89L384.93,63.26L389.8,45.62L394.67,54.44L399.54,49.32L404.42,50.52L409.29,55.64L414.16,51.71L419.03,52.91L423.91,50.41L428.78,38.97L433.65,46.81L438.52,46.81L443.4,45.62L448.27,46.81L453.14,58.25L458.01,56.94L462.89,56.83L472.63,46.92L477.5,56.94L482.38,58.47L487.25,55.85L492.12,45.62L496.99,44.42L501.87,47.03L506.74,45.83L511.61,45.51L516.48,46.7L526.23,41.58L531.1,43.11L540.85,40.39L545.72,36.57L555.46,41.58L560.34,42.89L565.21,45.29L570.08,41.69L574.95,45.4L579.83,47.9L584.7,57.05L589.57,55.74L594.44,44.2L599.32,54.33L604.19,48.23L609.06,45.29L613.93,46.7L618.81,50.63L623.68,54.22L628.55,47.9L633.42,42.89L638.3,46.7L648.04,44.31L652.91,40.17L657.79,46.7L662.66,39.08L667.53,37.77L672.4,37.77L677.28,41.58L682.15,32.76L687.02,30.15L691.89,35.16L696.77,38.97L701.64,41.69L706.51,40.17L711.38,45.4L716.26,45.4L721.13,40.28L726,41.69" style="vector-effect: none; fill: none; stroke: rgb(165, 42, 42); stroke-opacity: 1; stroke-width: 2px; opacity: 1;"/></g><g class="points"/><g class="text"/></g><g class="trace scatter trace671bb1" style="stroke-miterlimit: 2; opacity: 1;"><g class="fills"/><g class="errorbars"/><g class="lines"><path class="js-line" d="M0,376.2L4.87,354.85L9.74,354.85L14.62,354.85L19.49,334.26L24.36,338.19L29.23,240.7L34.11,200.83L38.98,179.7L43.85,158.02L48.72,191.14L53.6,198.44L58.47,213.25L63.34,234.82L68.21,211.51L73.09,198.44L77.96,205.73L82.83,203.01L87.7,193.21L92.58,183.84L97.45,151.16L102.32,118.16L107.19,124.37L112.07,140.16L116.94,165L121.81,180.79L126.68,190.59L131.56,215.43L136.43,170.33L141.3,141.47L146.17,200.94L151.05,186.24L155.92,142.88L160.79,149.31L165.66,194.51L170.54,204.54L175.41,154.21L180.28,149.31L185.15,138.53L190.03,170.77L194.9,124.15L199.77,107.92L204.64,123.39L209.52,134.82L214.39,154.21L219.26,145.39L224.13,141.47L229.01,145.39L233.88,138.75L238.75,137.98L243.62,144.52L248.5,150.18L253.37,159.01L258.24,139.62L263.11,129.05L267.99,145.39L272.86,143.65L277.73,128.29L282.6,137.98L287.48,137.98L292.35,158.24L297.22,139.62L302.09,144.52L306.97,144.52L311.84,149.31L316.71,144.52L321.58,150.18L326.46,144.52L331.33,158.24L336.2,157.48L341.07,159.01L345.95,158.24L350.82,162.38L355.69,163.04L360.56,144.52L365.44,137.98L370.31,137.98L375.18,142.88L380.05,133.08L384.93,152.58L389.8,127.53L394.67,137.98L399.54,132.43L404.42,133.08L409.29,132.43L414.16,142.12L419.03,132.43L423.91,132.43L428.78,137.98L433.65,126.76L438.52,127.53L443.4,133.08L448.27,123.39L453.14,151.93L458.01,146.37L462.89,151.93L467.76,137.33L472.63,137.33L477.5,131.67L482.38,121.21L487.25,137.33L492.12,121.86L496.99,128.29L501.87,142.88L506.74,137.33L511.61,133.08L516.48,127.53L521.36,112.82L526.23,138.75L531.1,149.31L535.97,128.29L545.72,128.29L550.59,122.62L555.46,142.12L560.34,126.76L565.21,131.67L570.08,132.43L574.95,117.72L579.83,131.67L584.7,156.17L589.57,151.27L594.44,121.21L599.32,151.93L604.19,126.76L609.06,121.86L613.93,121.86L618.81,132.43L623.68,131.67L628.55,137.98L633.42,127.53L638.3,121.86L643.17,132.43L648.04,128.29L652.91,112.06L657.79,116.31L662.66,116.96L667.53,127.53L672.4,133.08L677.28,118.49L682.15,118.49L687.02,123.39L691.89,122.62L696.77,127.53L701.64,127.53L706.51,117.72L711.38,116.96L716.26,128.29L721.13,133.08L726,132.43" style="vector-effect: none; fill: none; stroke: rgb(128, 128, 128); stroke-opacity: 1; stroke-width: 2px; opacity: 1;"/></g><g class="points"/><g class="text"/></g></g></g><g class="overplot"/><path class="xlines-above crisp" d="M0,0" style="fill: none;"/><path class="ylines-above crisp" d="M0,0" style="fill: none;"/><g class="overlines-above"/><g class="xaxislayer-above"><g class="xtick"><text text-anchor="middle" x="0" y="509" transform="translate(235.57999999999998,0)" style="font-family: 'Open Sans', verdana, arial, sans-serif; font-size: 12px; fill: rgb(42, 63, 95); fill-opacity: 1; white-space: pre; opacity: 1;">20</text></g><g class="xtick"><text text-anchor="middle" x="0" y="509" style="font-family: 'Open Sans', verdana, arial, sans-serif; font-size: 12px; fill: rgb(42, 63, 95); fill-opacity: 1; white-space: pre; opacity: 1;" transform="translate(333.03,0)">40</text></g><g class="xtick"><text text-anchor="middle" x="0" y="509" style="font-family: 'Open Sans', verdana, arial, sans-serif; font-size: 12px; fill: rgb(42, 63, 95); fill-opacity: 1; white-space: pre; opacity: 1;" transform="translate(430.48,0)">60</text></g><g class="xtick"><text text-anchor="middle" x="0" y="509" style="font-family: 'Open Sans', verdana, arial, sans-serif; font-size: 12px; fill: rgb(42, 63, 95); fill-opacity: 1; white-space: pre; opacity: 1;" transform="translate(527.9300000000001,0)">80</text></g><g class="xtick"><text text-anchor="middle" x="0" y="509" style="font-family: 'Open Sans', verdana, arial, sans-serif; font-size: 12px; fill: rgb(42, 63, 95); fill-opacity: 1; white-space: pre; opacity: 1;" transform="translate(625.38,0)">100</text></g><g class="xtick"><text text-anchor="middle" x="0" y="509" style="font-family: 'Open Sans', verdana, arial, sans-serif; font-size: 12px; fill: rgb(42, 63, 95); fill-opacity: 1; white-space: pre; opacity: 1;" transform="translate(722.83,0)">120</text></g><g class="xtick"><text text-anchor="middle" x="0" y="509" style="font-family: 'Open Sans', verdana, arial, sans-serif; font-size: 12px; fill: rgb(42, 63, 95); fill-opacity: 1; white-space: pre; opacity: 1;" transform="translate(820.28,0)">140</text></g></g><g class="yaxislayer-above"><g class="ytick"><text text-anchor="end" x="142" y="4.199999999999999" transform="translate(0,460.41)" style="font-family: 'Open Sans', verdana, arial, sans-serif; font-size: 12px; fill: rgb(42, 63, 95); fill-opacity: 1; white-space: pre; opacity: 1;">55</text></g><g class="ytick"><text text-anchor="end" x="142" y="4.199999999999999" style="font-family: 'Open Sans', verdana, arial, sans-serif; font-size: 12px; fill: rgb(42, 63, 95); fill-opacity: 1; white-space: pre; opacity: 1;" transform="translate(0,405.94)">60</text></g><g class="ytick"><text text-anchor="end" x="142" y="4.199999999999999" style="font-family: 'Open Sans', verdana, arial, sans-serif; font-size: 12px; fill: rgb(42, 63, 95); fill-opacity: 1; white-space: pre; opacity: 1;" transform="translate(0,351.48)">65</text></g><g class="ytick"><text text-anchor="end" x="142" y="4.199999999999999" style="font-family: 'Open Sans', verdana, arial, sans-serif; font-size: 12px; fill: rgb(42, 63, 95); fill-opacity: 1; white-space: pre; opacity: 1;" transform="translate(0,297.02)">70</text></g><g class="ytick"><text text-anchor="end" x="142" y="4.199999999999999" style="font-family: 'Open Sans', verdana, arial, sans-serif; font-size: 12px; fill: rgb(42, 63, 95); fill-opacity: 1; white-space: pre; opacity: 1;" transform="translate(0,242.56)">75</text></g><g class="ytick"><text text-anchor="end" x="142" y="4.199999999999999" style="font-family: 'Open Sans', verdana, arial, sans-serif; font-size: 12px; fill: rgb(42, 63, 95); fill-opacity: 1; white-space: pre; opacity: 1;" transform="translate(0,188.1)">80</text></g><g class="ytick"><text text-anchor="end" x="142" y="4.199999999999999" style="font-family: 'Open Sans', verdana, arial, sans-serif; font-size: 12px; fill: rgb(42, 63, 95); fill-opacity: 1; white-space: pre; opacity: 1;" transform="translate(0,133.63)">85</text></g></g><g class="overaxes-above"/></g></g><g class="polarlayer"/><g class="smithlayer"/><g class="ternarylayer"/><g class="geolayer"/><g class="funnelarealayer"/><g class="pielayer"/><g class="iciclelayer"/><g class="treemaplayer"/><g class="sunburstlayer"/><g class="glimages"/><defs id="topdefs-05adda"><g class="clips"/><clipPath id="legend05adda"><rect width="128" height="162" x="0" y="0"/></clipPath></defs><g class="layer-above"><g class="imagelayer"/><g class="shapelayer"/></g><g class="infolayer"><g class="legend" pointer-events="all" transform="translate(883.52,100)"><rect class="bg" shape-rendering="crispEdges" width="128" height="162" x="0" y="0" style="stroke: rgb(68, 68, 68); stroke-opacity: 1; fill: rgb(255, 255, 255); fill-opacity: 1; stroke-width: 0px;"/><g class="scrollbox" transform="" clip-path="url(#legend05adda)"><g class="groups"><g class="traces" transform="translate(0,14.5)" style="opacity: 1;"><text class="legendtext" text-anchor="start" x="40" y="4.680000000000001" style="font-family: 'Open Sans', verdana, arial, sans-serif; font-size: 12px; fill: rgb(42, 63, 95); fill-opacity: 1; white-space: pre;">Train Accuracy</text><g class="layers" style="opacity: 1;"><g class="legendfill"/><g class="legendlines"><path class="js-line" d="M5,0h30" style="fill: none; stroke: rgb(255, 0, 0); stroke-opacity: 1; stroke-width: 2px;"/></g><g class="legendsymbols"><g class="legendpoints"/></g></g><rect class="legendtoggle" x="0" y="-9.5" width="122.71875" height="19" style="fill: rgb(0, 0, 0); fill-opacity: 0;"/></g><g class="traces" transform="translate(0,33.5)" style="opacity: 1;"><text class="legendtext" text-anchor="start" x="40" y="4.680000000000001" style="font-family: 'Open Sans', verdana, arial, sans-serif; font-size: 12px; fill: rgb(42, 63, 95); fill-opacity: 1; white-space: pre;">Test Accuracy</text><g class="layers" style="opacity: 1;"><g class="legendfill"/><g class="legendlines"><path class="js-line" d="M5,0h30" style="fill: none; stroke: rgb(0, 0, 255); stroke-opacity: 1; stroke-width: 2px;"/></g><g class="legendsymbols"><g class="legendpoints"/></g></g><rect class="legendtoggle" x="0" y="-9.5" width="122.71875" height="19" style="fill: rgb(0, 0, 0); fill-opacity: 0;"/></g><g class="traces" transform="translate(0,52.5)" style="opacity: 1;"><text class="legendtext" text-anchor="start" x="40" y="4.680000000000001" style="font-family: 'Open Sans', verdana, arial, sans-serif; font-size: 12px; fill: rgb(42, 63, 95); fill-opacity: 1; white-space: pre;">Train Precision</text><g class="layers" style="opacity: 1;"><g class="legendfill"/><g class="legendlines"><path class="js-line" d="M5,0h30" style="fill: none; stroke: rgb(0, 128, 0); stroke-opacity: 1; stroke-width: 2px;"/></g><g class="legendsymbols"><g class="legendpoints"/></g></g><rect class="legendtoggle" x="0" y="-9.5" width="122.71875" height="19" style="fill: rgb(0, 0, 0); fill-opacity: 0;"/></g><g class="traces" transform="translate(0,71.5)" style="opacity: 1;"><text class="legendtext" text-anchor="start" x="40" y="4.680000000000001" style="font-family: 'Open Sans', verdana, arial, sans-serif; font-size: 12px; fill: rgb(42, 63, 95); fill-opacity: 1; white-space: pre;">Test Precision</text><g class="layers" style="opacity: 1;"><g class="legendfill"/><g class="legendlines"><path class="js-line" d="M5,0h30" style="fill: none; stroke: rgb(255, 165, 0); stroke-opacity: 1; stroke-width: 2px;"/></g><g class="legendsymbols"><g class="legendpoints"/></g></g><rect class="legendtoggle" x="0" y="-9.5" width="122.71875" height="19" style="fill: rgb(0, 0, 0); fill-opacity: 0;"/></g><g class="traces" transform="translate(0,90.5)" style="opacity: 1;"><text class="legendtext" text-anchor="start" x="40" y="4.680000000000001" style="font-family: 'Open Sans', verdana, arial, sans-serif; font-size: 12px; fill: rgb(42, 63, 95); fill-opacity: 1; white-space: pre;">Train Recall</text><g class="layers" style="opacity: 1;"><g class="legendfill"/><g class="legendlines"><path class="js-line" d="M5,0h30" style="fill: none; stroke: rgb(128, 0, 128); stroke-opacity: 1; stroke-width: 2px;"/></g><g class="legendsymbols"><g class="legendpoints"/></g></g><rect class="legendtoggle" x="0" y="-9.5" width="122.71875" height="19" style="fill: rgb(0, 0, 0); fill-opacity: 0;"/></g><g class="traces" transform="translate(0,109.5)" style="opacity: 1;"><text class="legendtext" text-anchor="start" x="40" y="4.680000000000001" style="font-family: 'Open Sans', verdana, arial, sans-serif; font-size: 12px; fill: rgb(42, 63, 95); fill-opacity: 1; white-space: pre;">Test Recall</text><g class="layers" style="opacity: 1;"><g class="legendfill"/><g class="legendlines"><path class="js-line" d="M5,0h30" style="fill: none; stroke: rgb(255, 192, 203); stroke-opacity: 1; stroke-width: 2px;"/></g><g class="legendsymbols"><g class="legendpoints"/></g></g><rect class="legendtoggle" x="0" y="-9.5" width="122.71875" height="19" style="fill: rgb(0, 0, 0); fill-opacity: 0;"/></g><g class="traces" transform="translate(0,128.5)" style="opacity: 1;"><text class="legendtext" text-anchor="start" x="40" y="4.680000000000001" style="font-family: 'Open Sans', verdana, arial, sans-serif; font-size: 12px; fill: rgb(42, 63, 95); fill-opacity: 1; white-space: pre;">Train F1</text><g class="layers" style="opacity: 1;"><g class="legendfill"/><g class="legendlines"><path class="js-line" d="M5,0h30" style="fill: none; stroke: rgb(165, 42, 42); stroke-opacity: 1; stroke-width: 2px;"/></g><g class="legendsymbols"><g class="legendpoints"/></g></g><rect class="legendtoggle" x="0" y="-9.5" width="122.71875" height="19" style="fill: rgb(0, 0, 0); fill-opacity: 0;"/></g><g class="traces" transform="translate(0,147.5)" style="opacity: 1;"><text class="legendtext" text-anchor="start" x="40" y="4.680000000000001" style="font-family: 'Open Sans', verdana, arial, sans-serif; font-size: 12px; fill: rgb(42, 63, 95); fill-opacity: 1; white-space: pre;">Test F1</text><g class="layers" style="opacity: 1;"><g class="legendfill"/><g class="legendlines"><path class="js-line" d="M5,0h30" style="fill: none; stroke: rgb(128, 128, 128); stroke-opacity: 1; stroke-width: 2px;"/></g><g class="legendsymbols"><g class="legendpoints"/></g></g><rect class="legendtoggle" x="0" y="-9.5" width="122.71875" height="19" style="fill: rgb(0, 0, 0); fill-opacity: 0;"/></g></g></g><rect class="scrollbar" rx="20" ry="3" width="0" height="0" x="0" y="0" style="fill: rgb(128, 139, 164); fill-opacity: 1;"/></g><g class="g-gtitle"><text class="gtitle" x="51.2" y="50" text-anchor="start" dy="0em" style="font-family: 'Open Sans', verdana, arial, sans-serif; font-size: 17px; fill: rgb(42, 63, 95); opacity: 1; font-weight: normal; white-space: pre;">Training Metrics - logs/FakeNewsNet-politifact_max-vocab=15000_pre=v2_text_T=150_s=10.log</text></g><g class="g-xtitle"><text class="xtitle" x="506" y="537.3" text-anchor="middle" style="font-family: 'Open Sans', verdana, arial, sans-serif; font-size: 14px; fill: rgb(42, 63, 95); opacity: 1; font-weight: normal; white-space: pre;">Epoch</text></g><g class="g-ytitle"><text class="ytitle" transform="rotate(-90,103.965625,298)" x="103.965625" y="298" text-anchor="middle" style="font-family: 'Open Sans', verdana, arial, sans-serif; font-size: 14px; fill: rgb(42, 63, 95); opacity: 1; font-weight: normal; white-space: pre;">Metric Score</text></g></g><g class="menulayer"><g class="updatemenu-container" style="cursor: pointer;"><g class="updatemenu-header-group" transform="translate(12,60)"><g class="updatemenu-header" transform="translate(1,1)" style="pointer-events: all;"><rect class="updatemenu-item-rect" rx="2" ry="2" shape-rendering="crispEdges" x="0" y="0" width="167" height="33" style="stroke: rgb(190, 200, 217); stroke-opacity: 1; fill: rgb(255, 255, 255); fill-opacity: 1; stroke-width: 1px;"/><text class="updatemenu-item-text" text-anchor="start" data-notex="1" x="12" y="19.5" style="font-family: 'Open Sans', verdana, arial, sans-serif; font-size: 12px; fill: rgb(42, 63, 95); fill-opacity: 1; white-space: pre;">All</text></g><text class="updatemenu-header-arrow" text-anchor="end" x="163" y="19.5" style="font-family: 'Open Sans', verdana, arial, sans-serif; font-size: 12px; fill: rgb(42, 63, 95); fill-opacity: 1;">▼</text></g><g class="updatemenu-dropdown-button-group" updatemenu-active-index="-1" style="pointer-events: all;"><rect class="scrollbox-bg" opacity="0" x="0" y="0" width="0" height="0" style="pointer-events: all;"/></g></g></g></svg>