<svg class="main-svg" xmlns="http://www.w3.org/2000/svg" xmlns:xlink="http://www.w3.org/1999/xlink" width="1024" height="576" style="" viewBox="0 0 1024 576"><rect x="0" y="0" width="1024" height="576" style="fill: rgb(255, 255, 255); fill-opacity: 1;"/><defs id="defs-9b1108"><g class="clips"><clipPath id="clip9b1108xyplot" class="plotclip"><rect width="726" height="396"/></clipPath><clipPath class="axesclip" id="clip9b1108x"><rect x="143" y="0" width="726" height="576"/></clipPath><clipPath class="axesclip" id="clip9b1108y"><rect x="0" y="100" width="1024" height="396"/></clipPath><clipPath class="axesclip" id="clip9b1108xy"><rect x="143" y="100" width="726" height="396"/></clipPath></g><g class="gradients"/><g class="patterns"/></defs><g class="bglayer"><rect class="bg" x="143" y="100" width="726" height="396" style="fill: rgb(229, 236, 246); fill-opacity: 1; stroke-width: 0;"/></g><g class="layer-below"><g class="imagelayer"/><g class="shapelayer"/></g><g class="cartesianlayer"><g class="subplot xy"><g class="layer-subplot"><g class="shapelayer"/><g class="imagelayer"/></g><g class="minor-gridlayer"><g class="x"/><g class="y"/></g><g class="gridlayer"><g class="x"><path class="xgrid crisp" transform="translate(235.57999999999998,0)" d="M0,100v396" style="stroke: rgb(255, 255, 255); stroke-opacity: 1; stroke-width: 1px;"/><path class="xgrid crisp" transform="translate(333.03,0)" d="M0,100v396" style="stroke: rgb(255, 255, 255); stroke-opacity: 1; stroke-width: 1px;"/><path class="xgrid crisp" transform="translate(430.48,0)" d="M0,100v396" style="stroke: rgb(255, 255, 255); stroke-opacity: 1; stroke-width: 1px;"/><path class="xgrid crisp" transform="translate(527.9300000000001,0)" d="M0,100v396" style="stroke: rgb(255, 255, 255); stroke-opacity: 1; stroke-width: 1px;"/><path class="xgrid crisp" transform="translate(625.38,0)" d="M0,100v396" style="stroke: rgb(255, 255, 255); stroke-opacity: 1; stroke-width: 1px;"/><path class="xgrid crisp" transform="translate(722.83,0)" d="M0,100v396" style="stroke: rgb(255, 255, 255); stroke-opacity: 1; stroke-width: 1px;"/><path class="xgrid crisp" transform="translate(820.28,0)" d="M0,100v396" style="stroke: rgb(255, 255, 255); stroke-opacity: 1; stroke-width: 1px;"/></g><g class="y"><path class="ygrid crisp" transform="translate(0,425.36)" d="M143,0h726" style="stroke: rgb(255, 255, 255); stroke-opacity: 1; stroke-width: 1px;"/><path class="ygrid crisp" transform="translate(0,343.61)" d="M143,0h726" style="stroke: rgb(255, 255, 255); stroke-opacity: 1; stroke-width: 1px;"/><path class="ygrid crisp" transform="translate(0,261.87)" d="M143,0h726" style="stroke: rgb(255, 255, 255); stroke-opacity: 1; stroke-width: 1px;"/><path class="ygrid crisp" transform="translate(0,180.13)" d="M143,0h726" style="stroke: rgb(255, 255, 255); stroke-opacity: 1; stroke-width: 1px;"/></g></g><g class="zerolinelayer"/><path class="xlines-below"/><path class="ylines-below"/><g class="overlines-below"/><g class="xaxislayer-below"/><g class="yaxislayer-below"/><g class="overaxes-below"/><g class="plot" transform="translate(143,100)" clip-path="url(#clip9b1108xyplot)"><g class="scatterlayer mlayer"><g class="trace scatter trace68a14a" style="stroke-miterlimit: 2; opacity: 1;"><g class="fills"/><g class="errorbars"/><g class="lines"><path class="js-line" d="M0,352L4.87,303.29L9.74,268.63L14.62,243.12L19.49,257.18L24.36,240.51L29.23,245.74L34.11,248.84L38.98,231.19L43.85,209.77L48.72,173.8L53.6,157.95L58.47,152.55L63.34,150.1L68.21,148.95L73.09,160.89L77.96,153.2L82.83,156.8L87.7,175.6L92.58,143.4L97.45,147.16L102.32,153.86L107.19,165.3L112.07,158.27L116.94,158.11L121.81,160.56L126.68,163.99L136.43,163.01L141.3,175.44L146.17,154.51L151.05,156.64L155.92,138.33L160.79,153.53L165.66,123.94L170.54,134.89L175.41,146.17L180.28,148.3L185.15,155.98L190.03,143.23L194.9,141.11L199.77,143.4L204.64,143.23L209.52,124.76L214.39,136.69L219.26,118.22L224.13,124.43L229.01,114.3L233.88,124.1L238.75,126.07L243.62,132.44L248.5,119.69L253.37,117.56L258.24,118.71L263.11,121.49L267.99,121.98L272.86,126.23L277.73,115.6L282.6,119.2L287.48,110.37L292.35,98.44L297.22,102.85L306.97,121.49L311.84,121.82L316.71,120.67L321.58,130.32L326.46,131.3L331.33,129.66L336.2,134.73L341.07,141.76L345.95,121.98L350.82,126.39L355.69,122.96L360.56,124.27L370.31,129.99L375.18,108.57L380.05,99.74L384.93,104.49L394.67,129.5L399.54,112.17L404.42,115.77L409.29,125.25L414.16,128.85L419.03,123.61L423.91,118.87L428.78,121.16L438.52,123.29L443.4,127.37L448.27,125.41L453.14,138L458.01,139.14L462.89,137.18L467.76,129.01L472.63,112.5L477.5,112.99L482.38,95.98L487.25,112.66L492.12,119.2L496.99,133.1L501.87,132.61L506.74,128.68L511.61,131.46L516.48,133.75L521.36,132.61L526.23,126.56L531.1,124.43L540.85,91.57L545.72,102.36L550.59,111.52L555.46,101.71L560.34,111.52L565.21,99.42L570.08,90.1L574.95,93.37L579.83,99.58L584.7,92.55L589.57,77.35L594.44,71.3L599.32,81.6L604.19,94.19L609.06,82.25L613.93,96.8L618.81,95.82L623.68,96.64L628.55,104.49L633.42,117.56L638.3,104L643.17,112.5L648.04,120.51L652.91,111.84L657.79,121.49L662.66,119.53L667.53,123.61L672.4,103.18L677.28,110.21L682.15,106.77L687.02,116.75L691.89,113.97L696.77,116.58L701.64,95.49L706.51,110.21L711.38,105.79L716.26,102.36L721.13,113.31L726,114.13" style="vector-effect: none; fill: none; stroke: rgb(255, 0, 0); stroke-opacity: 1; stroke-width: 2px; opacity: 1;"/></g><g class="points"/><g class="text"/></g><g class="trace scatter tracedf8e75" style="stroke-miterlimit: 2; opacity: 1;"><g class="fills"/><g class="errorbars"/><g class="lines"><path class="js-line" d="M0,355.44L9.74,280.07L14.62,264.54L19.49,279.74L24.36,256.53L34.11,266.5L38.98,248.03L48.72,199.31L53.6,176.42L58.47,176.75L63.34,182.96L73.09,172.99L77.96,178.87L82.83,175.6L87.7,194.08L92.58,160.89L97.45,155L107.19,179.36L112.07,180.02L121.81,173.31L126.68,180.02L131.56,182.96L136.43,182.96L141.3,198.16L146.17,172.33L151.05,167.1L155.92,150.1L160.79,180.34L165.66,138.65L175.41,161.87L180.28,164.49L185.15,164.49L190.03,150.92L194.9,156.47L199.77,151.24L204.64,162.69L209.52,133.59L214.39,144.54L219.26,131.62L229.01,125.09L233.88,132.12L238.75,132.44L243.62,143.07L248.5,130.48L253.37,138L258.24,135.71L263.11,148.3L267.99,142.09L272.86,151.57L277.73,141.27L282.6,147.97L287.48,134.24L292.35,117.24L297.22,117.56L302.09,136.53L311.84,158.6L316.71,148.63L321.58,148.3L326.46,152.39L336.2,147.16L341.07,160.89L345.95,142.41L350.82,157.95L355.69,141.6L360.56,138.65L365.44,138L370.31,151.24L375.18,132.12L380.05,127.21L384.93,131.3L389.8,137.18L394.67,146.01L399.54,125.41L404.42,128.35L409.29,138.65L414.16,146.01L419.03,141.27L423.91,138.33L428.78,144.54L433.65,145.68L438.52,145.03L443.4,145.03L448.27,144.21L453.14,158.93L458.01,167.1L462.89,157.13L467.76,161.22L472.63,136.86L477.5,136.86L482.38,124.59L487.25,144.21L492.12,146.83L496.99,158.93L501.87,162.69L506.74,155L511.61,157.95L516.48,163.01L521.36,162.36L526.23,168.25L531.1,155L535.97,130.48L540.85,112.17L545.72,125.74L550.59,140.94L555.46,136.04L560.34,137.51L565.21,130.15L570.08,113.97L574.95,114.62L579.83,126.07L584.7,117.24L589.57,96.15L594.44,90.75L599.32,111.03L604.19,122.47L609.06,109.88L613.93,114.3L618.81,116.91L623.68,128.03L628.55,136.86L633.42,152.39L638.3,132.77L643.17,147.97L648.04,138.65L652.91,131.62L657.79,144.54L662.66,147.97L667.53,141.6L672.4,126.88L682.15,140.45L687.02,145.03L691.89,140.13L696.77,143.56L701.64,128.03L706.51,140.45L711.38,143.89L716.26,139.8L721.13,142.09L726,148.95" style="vector-effect: none; fill: none; stroke: rgb(0, 0, 255); stroke-opacity: 1; stroke-width: 2px; opacity: 1;"/></g><g class="points"/><g class="text"/></g><g class="trace scatter tracebaa588" style="stroke-miterlimit: 2; opacity: 1;"><g class="fills"/><g class="errorbars"/><g class="lines"><path class="js-line" d="M0,254.08L4.87,221.54L9.74,206.17L14.62,191.62L19.49,195.06L24.36,190.32L29.23,191.46L34.11,190.97L38.98,186.23L48.72,166.45L53.6,157.29L58.47,154.35L63.34,152.88L68.21,152.39L73.09,155.98L77.96,151.41L82.83,152.22L87.7,156.8L92.58,146.99L97.45,148.3L102.32,146.83L107.19,151.9L112.07,147.81L116.94,148.79L121.81,150.59L126.68,151.73L131.56,151.08L136.43,150.59L141.3,156.15L146.17,150.43L151.05,150.59L155.92,144.05L160.79,147.65L165.66,139.96L170.54,143.23L180.28,148.14L185.15,149.12L190.03,152.55L194.9,148.3L199.77,149.12L204.64,145.19L209.52,141.92L214.39,144.38L219.26,137.02L224.13,138.49L229.01,132.44L233.88,136.37L243.62,139.14L248.5,132.77L253.37,131.62L258.24,132.93L267.99,133.75L272.86,135.55L277.73,134.57L282.6,137.18L292.35,129.5L297.22,132.28L306.97,139.64L311.84,136.53L321.58,140.78L326.46,139.47L331.33,138.65L336.2,139.31L341.07,142.91L345.95,136.86L350.82,134.57L355.69,135.06L365.44,139.8L370.31,139.64L375.18,133.26L380.05,128.35L384.93,129.66L389.8,134.4L394.67,138.16L399.54,132.44L404.42,135.06L409.29,138.98L414.16,140.78L419.03,138.16L428.78,134.4L433.65,134.08L443.4,136.04L448.27,135.38L453.14,140.29L458.01,142.09L462.89,142.41L467.76,137.67L472.63,131.62L477.5,132.12L482.38,126.88L487.25,132.28L492.12,135.06L496.99,139.64L506.74,136.69L511.61,137.02L516.48,138.16L521.36,137.51L526.23,135.88L531.1,137.02L535.97,131.13L540.85,126.88L550.59,132.61L555.46,128.35L560.34,130.32L565.21,127.05L570.08,125.58L574.95,126.39L579.83,128.03L584.7,127.54L589.57,121.32L594.44,119.85L599.32,122.63L604.19,128.52L609.06,121.98L613.93,130.64L618.81,130.32L623.68,127.54L628.55,130.15L633.42,134.57L638.3,129.34L643.17,131.79L648.04,136.2L652.91,135.71L657.79,139.31L662.66,136.53L667.53,138.98L672.4,130.48L677.28,132.61L682.15,132.44L687.02,134.89L691.89,135.88L696.77,135.71L701.64,128.85L706.51,135.22L711.38,131.79L716.26,129.17L721.13,135.06L726,133.75" style="vector-effect: none; fill: none; stroke: rgb(0, 128, 0); stroke-opacity: 1; stroke-width: 2px; opacity: 1;"/></g><g class="points"/><g class="text"/></g><g class="trace scatter trace4effac" style="stroke-miterlimit: 2; opacity: 1;"><g class="fills"/><g class="errorbars"/><g class="lines"><path class="js-line" d="M0,268.63L4.87,237.07L9.74,211.08L14.62,202.41L19.49,201.92L24.36,196.69L29.23,193.42L34.11,196.37L38.98,194.4L43.85,187.86L48.72,186.88L53.6,173.64L58.47,174.95L63.34,178.38L68.21,174.95L73.09,165.14L77.96,166.61L82.83,165.47L87.7,168.74L92.58,158.6L97.45,150.26L102.32,155.82L107.19,162.85L112.07,168.41L116.94,165.63L121.81,162.2L126.68,167.59L131.56,172.5L136.43,169.39L141.3,174.29L146.17,167.1L151.05,157.29L155.92,158.6L160.79,167.76L165.66,156.15L170.54,157.13L175.41,155.17L180.28,157.13L185.15,151.24L190.03,153.7L194.9,154.02L199.77,152.71L204.64,156.31L209.52,147.32L214.39,147.32L219.26,145.03L224.13,139.64L229.01,137.51L233.88,139.31L238.75,142.41L243.62,146.99L248.5,139.64L253.37,145.52L258.24,143.72L263.11,154.68L267.99,147.81L272.86,154.84L277.73,155.33L282.6,156.8L287.48,147.81L292.35,145.03L297.22,142.91L302.09,155L306.97,158.76L311.84,163.99L321.58,154.68L326.46,155.66L331.33,155.33L336.2,151.57L341.07,154.68L345.95,151.08L350.82,159.42L355.69,149.61L365.44,143.56L370.31,151.57L380.05,144.87L384.93,146.67L389.8,144.38L394.67,149.12L399.54,140.78L404.42,144.38L414.16,149.44L419.03,147.97L428.78,152.88L433.65,148.14L448.27,147.48L453.14,152.22L458.01,158.76L462.89,151.41L467.76,154.02L472.63,141.92L477.5,141.92L482.38,139.64L487.25,148.14L492.12,142.58L496.99,151.9L501.87,155.98L506.74,148.79L511.61,153.7L516.48,157.29L521.36,156.47L526.23,163.67L531.1,154.51L540.85,140.94L545.72,145.68L550.59,149.94L555.46,150.59L560.34,145.68L565.21,144.21L570.08,138L574.95,137.02L579.83,144.05L584.7,142.25L589.57,133.1L594.44,130.64L599.32,140.78L604.19,147.48L609.06,142.58L613.93,144.21L618.81,146.34L623.68,146.83L628.55,151.24L633.42,152.88L638.3,143.72L643.17,153.86L648.04,149.61L652.91,152.22L662.66,155.33L667.53,148.14L672.4,143.23L677.28,148.14L682.15,155.33L687.02,153.04L701.64,156.47L706.51,159.74L711.38,161.71L716.26,159.25L721.13,158.6L726,159.25" style="vector-effect: none; fill: none; stroke: rgb(255, 165, 0); stroke-opacity: 1; stroke-width: 2px; opacity: 1;"/></g><g class="points"/><g class="text"/></g><g class="trace scatter traceb56f75" style="stroke-miterlimit: 2; opacity: 1;"><g class="fills"/><g class="errorbars"/><g class="lines"><path class="js-line" d="M0,207.16L4.87,161.05L9.74,137.18L14.62,115.93L19.49,122.14L24.36,113.97L29.23,116.09L34.11,115.93L38.98,107.59L48.72,77.67L53.6,64.92L58.47,61L63.34,58.87L68.21,58.38L73.09,63.12L77.96,56.91L82.83,58.06L87.7,64.92L92.58,50.86L97.45,52.66L102.32,50.7L107.19,58.06L112.07,52.33L116.94,53.64L121.81,55.93L126.68,57.73L131.56,56.91L136.43,56.09L141.3,64.1L146.17,55.6L151.05,55.93L155.92,46.94L160.79,51.84L165.66,41.87L170.54,45.79L180.28,52.33L185.15,53.81L190.03,58.71L194.9,52.82L199.77,53.81L204.64,48.57L209.52,44.65L214.39,47.43L219.26,38.11L224.13,39.75L229.01,31.57L233.88,36.8L243.62,40.24L248.5,31.73L253.37,30.26L258.24,32.22L267.99,33.04L272.86,35.49L277.73,34.51L282.6,38.11L292.35,29.28L297.22,32.72L306.97,41.38L311.84,36.97L321.58,42.69L326.46,40.89L331.33,39.75L336.2,40.24L341.07,45.3L345.95,37.46L350.82,34.19L355.69,34.84L365.44,41.22L370.31,41.05L375.18,33.37L380.05,27.32L384.93,28.46L389.8,34.35L394.67,38.93L399.54,31.9L404.42,35.33L409.29,40.4L414.16,42.69L419.03,39.25L428.78,34.02L433.65,33.53L438.52,34.35L443.4,35.99L448.27,35.17L453.14,41.71L458.01,44.16L462.89,44.65L467.76,38.27L472.63,30.59L477.5,31.24L482.38,25.69L487.25,31.57L492.12,35.17L496.99,40.89L501.87,39.09L506.74,36.97L511.61,37.29L516.48,38.93L521.36,37.95L526.23,35.82L531.1,37.62L535.97,30.43L540.85,26.34L550.59,32.22L555.46,26.99L560.34,28.79L565.21,25.36L570.08,24.54L574.95,25.36L579.83,26.83L584.7,26.99L589.57,20.78L594.44,19.8L599.32,21.76L604.19,28.3L609.06,20.62L613.93,31.24L618.81,30.92L623.68,26.5L628.55,29.45L633.42,34.51L638.3,28.14L643.17,30.75L648.04,36.8L652.91,36.8L657.79,40.89L662.66,37.13L667.53,40.24L672.4,29.94L677.28,32.39L682.15,32.39L687.02,35L691.89,36.64L696.77,36.15L701.64,28.63L706.51,36.15L711.38,31.73L716.26,28.14L721.13,35.66L726,33.53" style="vector-effect: none; fill: none; stroke: rgb(128, 0, 128); stroke-opacity: 1; stroke-width: 2px; opacity: 1;"/></g><g class="points"/><g class="text"/></g><g class="trace scatter trace11f94d" style="stroke-miterlimit: 2; opacity: 1;"><g class="fills"/><g class="errorbars"/><g class="lines"><path class="js-line" d="M0,224.81L4.87,181.49L9.74,145.36L14.62,132.61L19.49,134.73L24.36,124.59L29.23,121.49L34.11,125.9L38.98,120.51L43.85,109.23L48.72,106.28L53.6,87.97L58.47,89.77L63.34,94.51L68.21,89.77L73.09,76.37L77.96,78.82L82.83,77.02L87.7,82.42L92.58,67.37L97.45,56.09L102.32,63.94L107.19,73.75L112.07,81.11L116.94,77.35L121.81,72.44L126.68,79.96L131.56,86.67L136.43,82.42L141.3,89.77L146.17,79.15L151.05,65.74L155.92,67.7L160.79,80.29L165.66,64.76L170.54,65.58L175.41,62.8L180.28,65.58L185.15,57.73L190.03,60.84L194.9,61.33L199.77,59.53L204.64,64.43L209.52,52.5L214.39,52.01L219.26,49.23L224.13,41.71L229.01,39.09L233.88,41.05L238.75,45.47L243.62,51.52L248.5,41.71L253.37,49.72L258.24,47.1L263.11,62.14L267.99,52.82L272.86,62.31L277.73,63.29L282.6,65.09L287.48,52.99L292.35,50.7L297.22,47.27L302.09,63.29L306.97,68.03L311.84,74.73L321.58,62.14L326.46,63.29L331.33,62.96L336.2,57.89L341.07,62.14L345.95,57.24L350.82,68.52L355.69,55.28L365.44,47.1L370.31,57.89L380.05,49.39L384.93,51.52L389.8,48.08L394.67,54.46L399.54,43.51L404.42,48.57L409.29,51.19L414.16,54.95L419.03,52.82L423.91,56.26L428.78,59.85L433.65,53.15L438.52,52.66L443.4,53.31L448.27,52.17L453.14,58.87L458.01,67.86L462.89,57.57L467.76,61.33L472.63,44.81L477.5,44.81L482.38,41.87L487.25,53.31L492.12,45.63L496.99,58.22L501.87,63.94L506.74,54.13L511.61,60.67L516.48,65.74L521.36,64.6L526.23,74.24L531.1,61.82L535.97,52.66L540.85,45.14L550.59,55.77L555.46,56.75L560.34,49.88L565.21,48.25L570.08,40.73L574.95,39.09L579.83,48.08L584.7,46.45L589.57,35.82L594.44,33.21L599.32,44.98L604.19,53.64L609.06,47.92L613.93,49.72L618.81,52.5L623.68,52.01L628.55,57.89L633.42,59.69L638.3,47.27L643.17,61L648.04,55.44L652.91,59.69L657.79,60.84L662.66,62.96L667.53,53.15L672.4,47.1L677.28,53.48L682.15,63.45L687.02,60.02L691.89,61.65L696.77,62.8L701.64,66.07L711.38,72.44L716.26,69.17L721.13,68.03L726,68.52" style="vector-effect: none; fill: none; stroke: rgb(255, 192, 203); stroke-opacity: 1; stroke-width: 2px; opacity: 1;"/></g><g class="points"/><g class="text"/></g><g class="trace scatter trace23ccea" style="stroke-miterlimit: 2; opacity: 1;"><g class="fills"/><g class="errorbars"/><g class="lines"><path class="js-line" d="M0,370.15L4.87,324.7L9.74,294.29L14.62,271.08L19.49,282.52L24.36,268.79L29.23,272.88L34.11,275.17L38.98,260.62L43.85,241.65L48.72,213.2L53.6,198.82L58.47,194.08L63.34,191.79L68.21,190.81L73.09,200.29L77.96,193.26L82.83,196.04L87.7,210.75L92.58,184.92L97.45,188.03L102.32,191.95L107.19,201.92L112.07,195.38L116.94,195.71L126.68,200.78L131.56,200.29L136.43,199.63L141.3,210.59L146.17,193.75L151.05,195.22L155.92,180.34L160.79,191.95L165.66,169.06L170.54,177.56L175.41,186.23L180.28,188.68L185.15,194.24L190.03,187.05L194.9,183.94L199.77,185.74L204.64,184.1L209.52,170.53L214.39,179.2L219.26,164.16L224.13,168.74L229.01,159.58L233.88,167.59L238.75,169.55L243.62,174.46L248.5,163.18L253.37,161.38L258.24,162.69L263.11,164.65L267.99,165.14L272.86,168.74L277.73,161.22L282.6,164.81L287.48,157.46L292.35,148.14L297.22,152.06L306.97,167.26L311.84,166.12L316.71,166.28L321.58,173.64L326.46,173.8L331.33,172.33L336.2,175.93L341.07,182.14L345.95,166.45L350.82,168.41L355.69,166.28L360.56,168.08L365.44,171.19L370.31,172.82L375.18,156.15L380.05,148.3L384.93,151.9L389.8,161.87L394.67,172.01L399.54,158.11L404.42,161.71L409.29,169.55L414.16,172.66L419.03,168.08L423.91,163.99L428.78,164.81L438.52,166.45L443.4,169.55L448.27,168.08L453.14,178.55L458.01,180.02L462.89,178.87L467.76,171.52L472.63,157.95L477.5,158.44L482.38,145.36L487.25,158.44L492.12,163.83L496.99,174.95L501.87,174.13L506.74,170.86L511.61,172.82L516.48,174.78L521.36,173.8L526.23,169.06L531.1,168.08L535.97,154.19L540.85,142.74L550.59,157.78L555.46,149.61L560.34,156.8L565.21,147.48L570.08,141.11L574.95,143.56L579.83,148.14L584.7,143.56L589.57,131.3L594.44,127.05L599.32,134.4L604.19,145.03L609.06,134.57L613.93,147.81L623.68,146.01L628.55,152.22L633.42,162.52L638.3,151.41L648.04,165.14L652.91,159.42L657.79,167.1L662.66,164.65L667.53,168.41L672.4,151.41L677.28,156.96L682.15,154.68L687.02,162.2L691.89,160.89L696.77,162.36L701.64,146.01L706.51,158.11L711.38,153.86L716.26,150.43L721.13,160.07L726,159.91" style="vector-effect: none; fill: none; stroke: rgb(165, 42, 42); stroke-opacity: 1; stroke-width: 2px; opacity: 1;"/></g><g class="points"/><g class="text"/></g><g class="trace scatter trace1c2761" style="stroke-miterlimit: 2; opacity: 1;"><g class="fills"/><g class="errorbars"/><g class="lines"><path class="js-line" d="M0,376.2L9.74,303.94L14.62,289.88L19.49,301.32L24.36,282.2L29.23,284.97L34.11,289.72L38.98,275.17L43.85,254.89L48.72,238.05L53.6,217.45L58.47,218.27L63.34,223.83L68.21,219.25L73.09,211.9L77.96,216.47L82.83,213.69L87.7,227.92L92.58,200.94L97.45,193.75L102.32,204.05L107.19,215.33L112.07,217.95L121.81,210.92L126.68,217.62L131.56,221.54L136.43,220.23L141.3,232.66L146.17,212.06L151.05,204.87L155.92,193.91L160.79,217.95L165.66,185.41L170.54,193.75L175.41,200.45L180.28,203.07L185.15,200.78L190.03,192.44L194.9,196.2L199.77,192.28L204.64,201.43L209.52,178.22L214.39,185.58L219.26,176.09L224.13,171.52L229.01,168.57L233.88,173.8L238.75,175.44L243.62,184.43L248.5,172.99L253.37,180.34L258.24,178.22L263.11,191.13L267.99,184.1L272.86,193.26L277.73,186.72L282.6,191.62L292.35,166.94L297.22,166.12L302.09,183.61L306.97,191.79L311.84,201.76L316.71,193.1L321.58,191.13L326.46,194.08L336.2,189.01L341.07,199.47L345.95,185.58L350.82,199.31L355.69,184.59L360.56,181.16L365.44,179.69L370.31,191.79L375.18,177.4L380.05,173.15L389.8,179.53L394.67,187.37L399.54,170.04L404.42,173.64L409.29,181.32L414.16,187.37L419.03,183.61L423.91,182.63L428.78,187.86L433.65,186.72L438.52,186.07L443.4,186.23L448.27,185.41L453.14,197.35L458.01,205.36L462.89,195.71L467.76,199.47L472.63,178.22L477.5,178.22L482.38,169.23L487.25,185.74L492.12,185.25L496.99,197.18L501.87,201.27L506.74,193.26L511.61,197.02L516.48,202.09L521.36,201.27L526.23,207.97L531.1,195.38L535.97,176.42L540.85,161.87L550.59,184.27L555.46,181.32L560.34,180.18L565.21,174.78L570.08,161.54L574.95,161.54L579.83,172.01L584.7,165.63L589.57,148.3L594.44,143.89L599.32,161.05L604.19,171.19L609.06,161.22L613.93,164.65L618.81,167.26L623.68,174.46L628.55,182.14L633.42,193.1L638.3,176.26L643.17,190.48L648.04,182.63L652.91,179.2L657.79,188.19L662.66,191.13L667.53,183.94L672.4,172.17L677.28,178.55L682.15,186.23L687.02,188.19L691.89,185.41L696.77,188.03L701.64,178.87L706.51,188.19L711.38,191.3L716.26,187.54L721.13,188.68L726,193.42" style="vector-effect: none; fill: none; stroke: rgb(128, 128, 128); stroke-opacity: 1; stroke-width: 2px; opacity: 1;"/></g><g class="points"/><g class="text"/></g></g></g><g class="overplot"/><path class="xlines-above crisp" d="M0,0" style="fill: none;"/><path class="ylines-above crisp" d="M0,0" style="fill: none;"/><g class="overlines-above"/><g class="xaxislayer-above"><g class="xtick"><text text-anchor="middle" x="0" y="509" transform="translate(235.57999999999998,0)" style="font-family: 'Open Sans', verdana, arial, sans-serif; font-size: 12px; fill: rgb(42, 63, 95); fill-opacity: 1; white-space: pre; opacity: 1;">20</text></g><g class="xtick"><text text-anchor="middle" x="0" y="509" style="font-family: 'Open Sans', verdana, arial, sans-serif; font-size: 12px; fill: rgb(42, 63, 95); fill-opacity: 1; white-space: pre; opacity: 1;" transform="translate(333.03,0)">40</text></g><g class="xtick"><text text-anchor="middle" x="0" y="509" style="font-family: 'Open Sans', verdana, arial, sans-serif; font-size: 12px; fill: rgb(42, 63, 95); fill-opacity: 1; white-space: pre; opacity: 1;" transform="translate(430.48,0)">60</text></g><g class="xtick"><text text-anchor="middle" x="0" y="509" style="font-family: 'Open Sans', verdana, arial, sans-serif; font-size: 12px; fill: rgb(42, 63, 95); fill-opacity: 1; white-space: pre; opacity: 1;" transform="translate(527.9300000000001,0)">80</text></g><g class="xtick"><text text-anchor="middle" x="0" y="509" style="font-family: 'Open Sans', verdana, arial, sans-serif; font-size: 12px; fill: rgb(42, 63, 95); fill-opacity: 1; white-space: pre; opacity: 1;" transform="translate(625.38,0)">100</text></g><g class="xtick"><text text-anchor="middle" x="0" y="509" style="font-family: 'Open Sans', verdana, arial, sans-serif; font-size: 12px; fill: rgb(42, 63, 95); fill-opacity: 1; white-space: pre; opacity: 1;" transform="translate(722.83,0)">120</text></g><g class="xtick"><text text-anchor="middle" x="0" y="509" style="font-family: 'Open Sans', verdana, arial, sans-serif; font-size: 12px; fill: rgb(42, 63, 95); fill-opacity: 1; white-space: pre; opacity: 1;" transform="translate(820.28,0)">140</text></g></g><g class="yaxislayer-above"><g class="ytick"><text text-anchor="end" x="142" y="4.199999999999999" transform="translate(0,425.36)" style="font-family: 'Open Sans', verdana, arial, sans-serif; font-size: 12px; fill: rgb(42, 63, 95); fill-opacity: 1; white-space: pre; opacity: 1;">55</text></g><g class="ytick"><text text-anchor="end" x="142" y="4.199999999999999" style="font-family: 'Open Sans', verdana, arial, sans-serif; font-size: 12px; fill: rgb(42, 63, 95); fill-opacity: 1; white-space: pre; opacity: 1;" transform="translate(0,343.61)">60</text></g><g class="ytick"><text text-anchor="end" x="142" y="4.199999999999999" style="font-family: 'Open Sans', verdana, arial, sans-serif; font-size: 12px; fill: rgb(42, 63, 95); fill-opacity: 1; white-space: pre; opacity: 1;" transform="translate(0,261.87)">65</text></g><g class="ytick"><text text-anchor="end" x="142" y="4.199999999999999" style="font-family: 'Open Sans', verdana, arial, sans-serif; font-size: 12px; fill: rgb(42, 63, 95); fill-opacity: 1; white-space: pre; opacity: 1;" transform="translate(0,180.13)">70</text></g></g><g class="overaxes-above"/></g></g><g class="polarlayer"/><g class="smithlayer"/><g class="ternarylayer"/><g class="geolayer"/><g class="funnelarealayer"/><g class="pielayer"/><g class="iciclelayer"/><g class="treemaplayer"/><g class="sunburstlayer"/><g class="glimages"/><defs id="topdefs-9b1108"><g class="clips"/><clipPath id="legend9b1108"><rect width="128" height="162" x="0" y="0"/></clipPath></defs><g class="layer-above"><g class="imagelayer"/><g class="shapelayer"/></g><g class="infolayer"><g class="legend" pointer-events="all" transform="translate(883.52,100)"><rect class="bg" shape-rendering="crispEdges" width="128" height="162" x="0" y="0" style="stroke: rgb(68, 68, 68); stroke-opacity: 1; fill: rgb(255, 255, 255); fill-opacity: 1; stroke-width: 0px;"/><g class="scrollbox" transform="" clip-path="url(#legend9b1108)"><g class="groups"><g class="traces" transform="translate(0,14.5)" style="opacity: 1;"><text class="legendtext" text-anchor="start" x="40" y="4.680000000000001" style="font-family: 'Open Sans', verdana, arial, sans-serif; font-size: 12px; fill: rgb(42, 63, 95); fill-opacity: 1; white-space: pre;">Train Accuracy</text><g class="layers" style="opacity: 1;"><g class="legendfill"/><g class="legendlines"><path class="js-line" d="M5,0h30" style="fill: none; stroke: rgb(255, 0, 0); stroke-opacity: 1; stroke-width: 2px;"/></g><g class="legendsymbols"><g class="legendpoints"/></g></g><rect class="legendtoggle" x="0" y="-9.5" width="122.71875" height="19" style="fill: rgb(0, 0, 0); fill-opacity: 0;"/></g><g class="traces" transform="translate(0,33.5)" style="opacity: 1;"><text class="legendtext" text-anchor="start" x="40" y="4.680000000000001" style="font-family: 'Open Sans', verdana, arial, sans-serif; font-size: 12px; fill: rgb(42, 63, 95); fill-opacity: 1; white-space: pre;">Test Accuracy</text><g class="layers" style="opacity: 1;"><g class="legendfill"/><g class="legendlines"><path class="js-line" d="M5,0h30" style="fill: none; stroke: rgb(0, 0, 255); stroke-opacity: 1; stroke-width: 2px;"/></g><g class="legendsymbols"><g class="legendpoints"/></g></g><rect class="legendtoggle" x="0" y="-9.5" width="122.71875" height="19" style="fill: rgb(0, 0, 0); fill-opacity: 0;"/></g><g class="traces" transform="translate(0,52.5)" style="opacity: 1;"><text class="legendtext" text-anchor="start" x="40" y="4.680000000000001" style="font-family: 'Open Sans', verdana, arial, sans-serif; font-size: 12px; fill: rgb(42, 63, 95); fill-opacity: 1; white-space: pre;">Train Precision</text><g class="layers" style="opacity: 1;"><g class="legendfill"/><g class="legendlines"><path class="js-line" d="M5,0h30" style="fill: none; stroke: rgb(0, 128, 0); stroke-opacity: 1; stroke-width: 2px;"/></g><g class="legendsymbols"><g class="legendpoints"/></g></g><rect class="legendtoggle" x="0" y="-9.5" width="122.71875" height="19" style="fill: rgb(0, 0, 0); fill-opacity: 0;"/></g><g class="traces" transform="translate(0,71.5)" style="opacity: 1;"><text class="legendtext" text-anchor="start" x="40" y="4.680000000000001" style="font-family: 'Open Sans', verdana, arial, sans-serif; font-size: 12px; fill: rgb(42, 63, 95); fill-opacity: 1; white-space: pre;">Test Precision</text><g class="layers" style="opacity: 1;"><g class="legendfill"/><g class="legendlines"><path class="js-line" d="M5,0h30" style="fill: none; stroke: rgb(255, 165, 0); stroke-opacity: 1; stroke-width: 2px;"/></g><g class="legendsymbols"><g class="legendpoints"/></g></g><rect class="legendtoggle" x="0" y="-9.5" width="122.71875" height="19" style="fill: rgb(0, 0, 0); fill-opacity: 0;"/></g><g class="traces" transform="translate(0,90.5)" style="opacity: 1;"><text class="legendtext" text-anchor="start" x="40" y="4.680000000000001" style="font-family: 'Open Sans', verdana, arial, sans-serif; font-size: 12px; fill: rgb(42, 63, 95); fill-opacity: 1; white-space: pre;">Train Recall</text><g class="layers" style="opacity: 1;"><g class="legendfill"/><g class="legendlines"><path class="js-line" d="M5,0h30" style="fill: none; stroke: rgb(128, 0, 128); stroke-opacity: 1; stroke-width: 2px;"/></g><g class="legendsymbols"><g class="legendpoints"/></g></g><rect class="legendtoggle" x="0" y="-9.5" width="122.71875" height="19" style="fill: rgb(0, 0, 0); fill-opacity: 0;"/></g><g class="traces" transform="translate(0,109.5)" style="opacity: 1;"><text class="legendtext" text-anchor="start" x="40" y="4.680000000000001" style="font-family: 'Open Sans', verdana, arial, sans-serif; font-size: 12px; fill: rgb(42, 63, 95); fill-opacity: 1; white-space: pre;">Test Recall</text><g class="layers" style="opacity: 1;"><g class="legendfill"/><g class="legendlines"><path class="js-line" d="M5,0h30" style="fill: none; stroke: rgb(255, 192, 203); stroke-opacity: 1; stroke-width: 2px;"/></g><g class="legendsymbols"><g class="legendpoints"/></g></g><rect class="legendtoggle" x="0" y="-9.5" width="122.71875" height="19" style="fill: rgb(0, 0, 0); fill-opacity: 0;"/></g><g class="traces" transform="translate(0,128.5)" style="opacity: 1;"><text class="legendtext" text-anchor="start" x="40" y="4.680000000000001" style="font-family: 'Open Sans', verdana, arial, sans-serif; font-size: 12px; fill: rgb(42, 63, 95); fill-opacity: 1; white-space: pre;">Train F1</text><g class="layers" style="opacity: 1;"><g class="legendfill"/><g class="legendlines"><path class="js-line" d="M5,0h30" style="fill: none; stroke: rgb(165, 42, 42); stroke-opacity: 1; stroke-width: 2px;"/></g><g class="legendsymbols"><g class="legendpoints"/></g></g><rect class="legendtoggle" x="0" y="-9.5" width="122.71875" height="19" style="fill: rgb(0, 0, 0); fill-opacity: 0;"/></g><g class="traces" transform="translate(0,147.5)" style="opacity: 1;"><text class="legendtext" text-anchor="start" x="40" y="4.680000000000001" style="font-family: 'Open Sans', verdana, arial, sans-serif; font-size: 12px; fill: rgb(42, 63, 95); fill-opacity: 1; white-space: pre;">Test F1</text><g class="layers" style="opacity: 1;"><g class="legendfill"/><g class="legendlines"><path class="js-line" d="M5,0h30" style="fill: none; stroke: rgb(128, 128, 128); stroke-opacity: 1; stroke-width: 2px;"/></g><g class="legendsymbols"><g class="legendpoints"/></g></g><rect class="legendtoggle" x="0" y="-9.5" width="122.71875" height="19" style="fill: rgb(0, 0, 0); fill-opacity: 0;"/></g></g></g><rect class="scrollbar" rx="20" ry="3" width="0" height="0" x="0" y="0" style="fill: rgb(128, 139, 164); fill-opacity: 1;"/></g><g class="g-gtitle"><text class="gtitle" x="51.2" y="50" text-anchor="start" dy="0em" style="font-family: 'Open Sans', verdana, arial, sans-serif; font-size: 17px; fill: rgb(42, 63, 95); opacity: 1; font-weight: normal; white-space: pre;">Training Metrics - logs/FakeNewsNet-gossipcop_max-vocab=15000_pre=v2_text_T=200_s=5.log</text></g><g class="g-xtitle"><text class="xtitle" x="506" y="537.3" text-anchor="middle" style="font-family: 'Open Sans', verdana, arial, sans-serif; font-size: 14px; fill: rgb(42, 63, 95); opacity: 1; font-weight: normal; white-space: pre;">Epoch</text></g><g class="g-ytitle"><text class="ytitle" transform="rotate(-90,103.965625,298)" x="103.965625" y="298" text-anchor="middle" style="font-family: 'Open Sans', verdana, arial, sans-serif; font-size: 14px; fill: rgb(42, 63, 95); opacity: 1; font-weight: normal; white-space: pre;">Metric Score</text></g></g><g class="menulayer"><g class="updatemenu-container" style="cursor: pointer;"><g class="updatemenu-header-group" transform="translate(12,60)"><g class="updatemenu-header" transform="translate(1,1)" style="pointer-events: all;"><rect class="updatemenu-item-rect" rx="2" ry="2" shape-rendering="crispEdges" x="0" y="0" width="167" height="33" style="stroke: rgb(190, 200, 217); stroke-opacity: 1; fill: rgb(255, 255, 255); fill-opacity: 1; stroke-width: 1px;"/><text class="updatemenu-item-text" text-anchor="start" data-notex="1" x="12" y="19.5" style="font-family: 'Open Sans', verdana, arial, sans-serif; font-size: 12px; fill: rgb(42, 63, 95); fill-opacity: 1; white-space: pre;">All</text></g><text class="updatemenu-header-arrow" text-anchor="end" x="163" y="19.5" style="font-family: 'Open Sans', verdana, arial, sans-serif; font-size: 12px; fill: rgb(42, 63, 95); fill-opacity: 1;">▼</text></g><g class="updatemenu-dropdown-button-group" updatemenu-active-index="-1" style="pointer-events: all;"><rect class="scrollbox-bg" opacity="0" x="0" y="0" width="0" height="0" style="pointer-events: all;"/></g></g></g></svg>