<svg class="main-svg" xmlns="http://www.w3.org/2000/svg" xmlns:xlink="http://www.w3.org/1999/xlink" width="1024" height="576" style="" viewBox="0 0 1024 576"><rect x="0" y="0" width="1024" height="576" style="fill: rgb(255, 255, 255); fill-opacity: 1;"/><defs id="defs-7d31f7"><g class="clips"><clipPath id="clip7d31f7xyplot" class="plotclip"><rect width="726" height="396"/></clipPath><clipPath class="axesclip" id="clip7d31f7x"><rect x="143" y="0" width="726" height="576"/></clipPath><clipPath class="axesclip" id="clip7d31f7y"><rect x="0" y="100" width="1024" height="396"/></clipPath><clipPath class="axesclip" id="clip7d31f7xy"><rect x="143" y="100" width="726" height="396"/></clipPath></g><g class="gradients"/><g class="patterns"/></defs><g class="bglayer"><rect class="bg" x="143" y="100" width="726" height="396" style="fill: rgb(229, 236, 246); fill-opacity: 1; stroke-width: 0;"/></g><g class="layer-below"><g class="imagelayer"/><g class="shapelayer"/></g><g class="cartesianlayer"><g class="subplot xy"><g class="layer-subplot"><g class="shapelayer"/><g class="imagelayer"/></g><g class="minor-gridlayer"><g class="x"/><g class="y"/></g><g class="gridlayer"><g class="x"><path class="xgrid crisp" transform="translate(235.57999999999998,0)" d="M0,100v396" style="stroke: rgb(255, 255, 255); stroke-opacity: 1; stroke-width: 1px;"/><path class="xgrid crisp" transform="translate(333.03,0)" d="M0,100v396" style="stroke: rgb(255, 255, 255); stroke-opacity: 1; stroke-width: 1px;"/><path class="xgrid crisp" transform="translate(430.48,0)" d="M0,100v396" style="stroke: rgb(255, 255, 255); stroke-opacity: 1; stroke-width: 1px;"/><path class="xgrid crisp" transform="translate(527.9300000000001,0)" d="M0,100v396" style="stroke: rgb(255, 255, 255); stroke-opacity: 1; stroke-width: 1px;"/><path class="xgrid crisp" transform="translate(625.38,0)" d="M0,100v396" style="stroke: rgb(255, 255, 255); stroke-opacity: 1; stroke-width: 1px;"/><path class="xgrid crisp" transform="translate(722.83,0)" d="M0,100v396" style="stroke: rgb(255, 255, 255); stroke-opacity: 1; stroke-width: 1px;"/><path class="xgrid crisp" transform="translate(820.28,0)" d="M0,100v396" style="stroke: rgb(255, 255, 255); stroke-opacity: 1; stroke-width: 1px;"/></g><g class="y"><path class="ygrid crisp" transform="translate(0,433.35)" d="M143,0h726" style="stroke: rgb(255, 255, 255); stroke-opacity: 1; stroke-width: 1px;"/><path class="ygrid crisp" transform="translate(0,338.96000000000004)" d="M143,0h726" style="stroke: rgb(255, 255, 255); stroke-opacity: 1; stroke-width: 1px;"/><path class="ygrid crisp" transform="translate(0,244.58)" d="M143,0h726" style="stroke: rgb(255, 255, 255); stroke-opacity: 1; stroke-width: 1px;"/><path class="ygrid crisp" transform="translate(0,150.19)" d="M143,0h726" style="stroke: rgb(255, 255, 255); stroke-opacity: 1; stroke-width: 1px;"/></g></g><g class="zerolinelayer"/><path class="xlines-below"/><path class="ylines-below"/><g class="overlines-below"/><g class="xaxislayer-below"/><g class="yaxislayer-below"/><g class="overaxes-below"/><g class="plot" transform="translate(143,100)" clip-path="url(#clip7d31f7xyplot)"><g class="scatterlayer mlayer"><g class="trace scatter tracebc5e00" style="stroke-miterlimit: 2; opacity: 1;"><g class="fills"/><g class="errorbars"/><g class="lines"><path class="js-line" d="M0,247.46L4.87,140.05L9.74,86.81L14.62,92.85L19.49,83.6L24.36,88.7L29.23,113.81L34.11,89.83L38.98,88.14L43.85,81.34L48.72,68.13L53.6,67.56L58.47,65.67L63.34,62.27L68.21,60.95L73.09,53.97L77.96,65.11L82.83,83.23L87.7,88.51L92.58,66.62L97.45,81.15L102.32,85.87L107.19,55.67L112.07,60.57L116.94,67.18L121.81,110.79L126.68,109.66L131.56,66.62L136.43,60.76L141.3,63.22L146.17,76.62L151.05,65.11L155.92,73.03L160.79,60.01L165.66,64.35L170.54,109.28L175.41,92.85L180.28,84.93L185.15,71.71L190.03,147.6L194.9,149.11L199.77,104.75L204.64,94.93L209.52,119.85L214.39,45.47L219.26,71.15L224.13,35.85L229.01,28.86L233.88,30.56L238.75,43.96L243.62,50L248.5,54.53L253.37,47.74L258.24,46.42L263.11,54.91L267.99,60.95L272.86,87.38L277.73,61.9L282.6,57.55L287.48,58.5L292.35,54.16L297.22,54.53L302.09,64.16L306.97,56.42L311.84,58.31L316.71,78.89L321.58,73.03L326.46,49.81L331.33,57.93L341.07,45.1L345.95,29.43L350.82,32.26L355.69,28.48L360.56,20.93L365.44,23.01L370.31,24.52L375.18,28.48L380.05,31.5L384.93,35.47L389.8,36.98L394.67,30.94L399.54,37.54L404.42,39.43L409.29,36.22L414.16,37.92L419.03,35.09L423.91,65.67L428.78,88.14L433.65,96.63L438.52,105.5L443.4,77.94L448.27,79.83L453.14,54.16L458.01,56.61L462.89,49.25L467.76,32.64L472.63,52.08L477.5,55.86L482.38,165.91L487.25,102.48L492.12,91.72L496.99,107.01L501.87,112.11L506.74,131.36L511.61,37.17L516.48,20.93L521.36,29.24L526.23,49.06L531.1,40.94L535.97,55.86L540.85,63.41L545.72,65.86L550.59,74.73L555.46,68.88L560.34,65.86L565.21,82.28L570.08,80.02L574.95,71.52L579.83,75.3L584.7,72.84L589.57,55.29L594.44,44.72L599.32,39.24L604.19,40.19L609.06,36.03L613.93,52.83L618.81,46.79L623.68,59.82L628.55,51.51L638.3,43.4L643.17,34.15L648.04,33.01L652.91,42.26L662.66,28.11L667.53,24.52L672.4,26.97L677.28,19.8L687.02,23.01L691.89,21.88L696.77,28.67L701.64,54.53L706.51,61.71L711.38,71.71L716.26,87.38L721.13,82.28L726,80.02" style="vector-effect: none; fill: none; stroke: rgb(255, 0, 0); stroke-opacity: 1; stroke-width: 2px; opacity: 1;"/></g><g class="points"/><g class="text"/></g><g class="trace scatter trace870247" style="stroke-miterlimit: 2; opacity: 1;"><g class="fills"/><g class="errorbars"/><g class="lines"><path class="js-line" d="M0,266.52L4.87,136.46L9.74,92.1L14.62,97.2L19.49,81.15L24.36,101.92L29.23,127.02L34.11,93.42L38.98,92.48L43.85,84.93L48.72,74.17L53.6,73.41L58.47,73.79L63.34,65.67L68.21,68.69L73.09,65.29L77.96,81.91L82.83,87.95L87.7,95.5L92.58,75.87L97.45,79.83L102.32,79.83L107.19,56.8L112.07,58.88L116.94,72.09L121.81,103.61L126.68,107.01L131.56,80.21L136.43,70.77L141.3,73.79L146.17,85.68L151.05,74.17L155.92,75.11L160.79,63.97L165.66,70.77L170.54,119.47L175.41,99.46L180.28,96.06L185.15,88.32L190.03,153.45L194.9,150.62L199.77,113.81L204.64,103.24L209.52,131.74L214.39,60.57L219.26,97.2L224.13,55.1L229.01,46.04L233.88,44.91L238.75,56.8L243.62,63.22L248.5,61.52L253.37,47.74L258.24,51.7L263.11,60.2L267.99,67.75L272.86,81.53L277.73,77.19L282.6,75.87L287.48,66.99L292.35,65.29L297.22,66.99L302.09,85.3L306.97,70.39L311.84,70.39L316.71,84.93L321.58,81.91L326.46,64.35L331.33,71.71L336.2,70.77L341.07,58.88L345.95,51.7L350.82,46.61L355.69,35.47L360.56,35.47L365.44,31.13L370.31,39.24L375.18,38.49L380.05,48.3L384.93,47.74L389.8,52.46L394.67,42.26L399.54,52.08L404.42,53.78L409.29,57.18L414.16,54.53L419.03,49.44L423.91,83.6L428.78,104.94L433.65,99.84L438.52,120.79L443.4,101.16L448.27,96.82L453.14,60.57L458.01,68.31L462.89,53.4L467.76,52.83L472.63,74.17L477.5,76.81L482.38,192.71L487.25,111.73L492.12,101.92L496.99,115.13L501.87,123.62L506.74,151.75L511.61,55.86L516.48,41.32L521.36,44.91L526.23,57.55L531.1,51.7L535.97,72.09L540.85,79.83L545.72,77.19L550.59,87.95L555.46,81.53L560.34,85.68L565.21,101.16L570.08,100.22L574.95,90.4L579.83,101.16L584.7,93.42L589.57,68.31L594.44,64.35L599.32,63.97L604.19,60.2L609.06,51.7L613.93,74.73L618.81,61.9L623.68,75.11L628.55,63.97L633.42,63.97L638.3,57.18L643.17,46.61L648.04,47.74L652.91,57.18L657.79,56.42L662.66,43.59L667.53,52.08L672.4,50L677.28,45.28L682.15,42.64L687.02,44.91L691.89,45.28L696.77,35.47L701.64,68.31L706.51,78.13L711.38,85.68L716.26,98.14L721.13,89.08L726,81.91" style="vector-effect: none; fill: none; stroke: rgb(0, 0, 255); stroke-opacity: 1; stroke-width: 2px; opacity: 1;"/></g><g class="points"/><g class="text"/></g><g class="trace scatter trace5d87b7" style="stroke-miterlimit: 2; opacity: 1;"><g class="fills"/><g class="errorbars"/><g class="lines"><path class="js-line" d="M0,351.09L4.87,289.93L9.74,244.44L14.62,249.16L19.49,237.45L24.36,236.13L29.23,256.33L34.11,239.15L38.98,235.94L43.85,231.03L48.72,218.95L53.6,217.63L58.47,214.61L63.34,208.95L68.21,207.25L73.09,196.87L77.96,212.35L82.83,237.08L87.7,242.36L92.58,213.67L97.45,227.26L102.32,226.5L107.19,195.36L116.94,208L121.81,250.48L126.68,250.1L131.56,210.08L136.43,202.72L141.3,204.8L146.17,212.16L151.05,201.78L155.92,211.21L160.79,201.59L165.66,208.38L170.54,248.59L175.41,233.87L180.28,222.35L185.15,218.95L190.03,291.06L194.9,291.63L199.77,257.27L204.64,249.53L209.52,270.68L214.39,184.6L219.26,218.95L224.13,169.87L229.01,158.36L233.88,162.13L238.75,181.77L243.62,190.64L248.5,195.55L253.37,185.73L258.24,184.41L263.11,194.22L267.99,201.59L272.86,231.22L277.73,203.66L282.6,195.17L287.48,197.62L292.35,194.04L297.22,194.79L302.09,208.38L306.97,196.68L311.84,197.43L316.71,217.44L321.58,211.78L326.46,188.94L331.33,196.11L336.2,189.51L341.07,183.28L345.95,157.6L350.82,162.51L355.69,156.47L360.56,137.22L365.44,144.58L380.05,162.51L384.93,169.5L389.8,172.14L394.67,162.32L399.54,172.89L404.42,175.35L409.29,170.82L414.16,173.27L419.03,168.74L423.91,210.65L428.78,229.9L433.65,236.32L438.52,248.97L443.4,221.6L448.27,219.14L453.14,192.71L458.01,192.71L462.89,185.92L467.76,166.1L472.63,189.69L477.5,193.47L482.38,278.23L487.25,237.08L492.12,228.2L496.99,243.31L501.87,251.42L506.74,257.46L511.61,171.38L516.48,147.98L521.36,160.81L526.23,187.81L531.1,177.61L535.97,192.71L540.85,201.59L545.72,203.66L550.59,216.31L560.34,206.87L565.21,221.97L570.08,217.44L574.95,208.57L579.83,213.1L584.7,211.59L589.57,193.28L594.44,182.14L599.32,175.35L604.19,176.86L609.06,170.63L613.93,193.85L618.81,184.97L623.68,200.64L628.55,190.83L633.42,183.84L638.3,179.5L643.17,167.99L648.04,166.48L652.91,178.75L657.79,169.31L662.66,157.23L667.53,154.39L672.4,157.79L677.28,147.22L682.15,149.86L687.02,152.32L691.89,150.81L696.77,160.43L701.64,192.71L706.51,199.89L711.38,208.76L716.26,218.76L721.13,216.5L726,215.37" style="vector-effect: none; fill: none; stroke: rgb(0, 128, 0); stroke-opacity: 1; stroke-width: 2px; opacity: 1;"/></g><g class="points"/><g class="text"/></g><g class="trace scatter traceab1a98" style="stroke-miterlimit: 2; opacity: 1;"><g class="fills"/><g class="errorbars"/><g class="lines"><path class="js-line" d="M0,376.2L4.87,293.71L9.74,251.8L14.62,255.76L19.49,233.87L29.23,272.38L34.11,244.63L38.98,242.55L43.85,235.75L48.72,228.01L53.6,226.13L58.47,226.32L63.34,213.1L68.21,217.82L73.09,213.1L77.96,236.51L82.83,244.25L87.7,253.69L92.58,227.45L97.45,228.58L102.32,220.27L107.19,196.3L112.07,199.32L116.94,214.61L121.81,245L126.68,249.72L131.56,228.01L136.43,216.31L141.3,219.14L146.17,224.43L151.05,214.8L155.92,215.93L160.79,208.38L165.66,218.01L170.54,261.99L175.41,242.74L180.28,237.26L185.15,241.23L190.03,302.2L194.9,294.27L199.77,267.85L204.64,259.92L209.52,285.02L214.39,205.74L219.26,254.07L224.13,197.81L229.01,182.9L233.88,181.95L238.75,199.32L243.62,208.95L248.5,204.23L253.37,185.35L258.24,190.64L267.99,210.27L272.86,223.67L277.73,222.16L282.6,218.01L287.48,208.57L292.35,208L297.22,209.89L302.09,236.7L306.97,214.61L311.84,212.91L316.71,225.18L321.58,222.35L326.46,208.19L331.33,212.16L336.2,215.37L341.07,201.96L345.95,191.39L350.82,183.28L355.69,165.72L360.56,159.87L365.44,156.47L370.31,171.95L375.18,171.19L380.05,187.05L384.93,186.86L389.8,193.09L394.67,178.18L399.54,193.09L404.42,194.6L409.29,199.13L414.16,197.06L419.03,189.32L423.91,232.92L428.78,248.4L433.65,240.66L438.52,266.52L443.4,249.35L448.27,237.08L453.14,200.45L458.01,207.06L462.89,191.58L467.76,193.66L472.63,219.52L477.5,220.84L482.38,300.13L487.25,248.4L492.12,239.91L496.99,251.61L501.87,262.56L506.74,277.85L511.61,195.92L516.48,177.24L521.36,182.33L526.23,200.08L531.1,192.34L535.97,213.67L540.85,222.73L545.72,219.71L550.59,233.3L555.46,228.58L560.34,231.41L565.21,245.76L570.08,241.61L574.95,232.55L579.83,245.57L584.7,237.08L589.57,209.52L594.44,208.76L599.32,210.08L604.19,204.23L609.06,192.71L613.93,223.11L618.81,204.98L623.68,221.03L628.55,208L633.42,205.55L638.3,197.43L643.17,184.6L648.04,186.48L652.91,198.19L657.79,198L662.66,179.69L667.53,192.9L672.4,189.88L677.28,183.28L682.15,179.31L687.02,182.33L691.89,182.9L696.77,168.93L701.64,209.52L706.51,219.52L711.38,226.32L716.26,230.47L721.13,224.24L726,218.95" style="vector-effect: none; fill: none; stroke: rgb(255, 165, 0); stroke-opacity: 1; stroke-width: 2px; opacity: 1;"/></g><g class="points"/><g class="text"/></g><g class="trace scatter traceee659c" style="stroke-miterlimit: 2; opacity: 1;"><g class="fills"/><g class="errorbars"/><g class="lines"><path class="js-line" d="M0,274.64L4.87,250.86L9.74,264.82L14.62,252.55L19.49,246.14L24.36,214.61L29.23,210.65L34.11,222.73L38.98,216.12L43.85,225.18L48.72,262.37L58.47,245.95L63.34,233.49L68.21,231.98L73.09,225.37L77.96,227.45L82.83,245.95L87.7,242.55L92.58,223.11L97.45,208.76L102.32,186.86L107.19,183.46L112.07,185.73L116.94,184.79L121.81,199.89L126.68,201.21L131.56,198.19L141.3,188.94L146.17,163.83L151.05,163.64L155.92,172.33L160.79,190.64L165.66,204.04L175.41,191.77L180.28,175.16L185.15,217.82L190.03,241.42L194.9,240.47L199.77,237.64L204.64,244.06L209.52,239.15L214.39,214.23L219.26,221.97L224.13,213.67L229.01,211.59L233.88,203.85L238.75,191.02L243.62,205.17L248.5,193.09L253.37,180.07L258.24,182.71L263.11,181.01L267.99,184.97L272.86,199.7L277.73,191.2L282.6,168.17L287.48,176.1L292.35,185.73L297.22,188.37L302.09,206.68L306.97,185.73L311.84,177.05L316.71,176.1L321.58,175.16L326.46,187.24L331.33,171.19L336.2,178.93L341.07,191.2L345.95,224.05L350.82,225.37L355.69,218.76L360.56,236.13L365.44,226.88L370.31,214.61L375.18,216.88L380.05,213.67L384.93,207.63L389.8,183.46L394.67,207.25L399.54,189.88L404.42,179.88L409.29,172.7L414.16,211.21L419.03,213.29L423.91,209.89L428.78,192.15L433.65,189.69L438.52,207.82L443.4,196.68L448.27,179.12L453.14,176.29L458.01,160.81L462.89,166.66L467.76,178.37L472.63,171.76L477.5,168.17L482.38,191.02L487.25,178.37L492.12,176.29L496.99,186.67L501.87,199.7L511.61,164.4L516.48,185.92L521.36,189.51L526.23,184.6L531.1,188.75L535.97,164.21L540.85,170.63L545.72,169.12L550.59,187.62L555.46,194.22L560.34,185.16L565.21,181.77L570.08,171.95L574.95,167.23L579.83,171.76L584.7,174.78L589.57,171.01L594.44,182.33L599.32,193.09L604.19,191.39L609.06,197.62L613.93,198.38L618.81,184.03L623.68,186.86L628.55,186.86L633.42,169.68L638.3,169.68L643.17,179.12L648.04,179.31L652.91,178.56L657.79,176.86L662.66,210.08L667.53,176.48L672.4,175.91L677.28,173.65L682.15,168.55L687.02,170.25L691.89,165.72L696.77,171.19L701.64,173.46L706.51,171.57L711.38,167.8L716.26,156.28L721.13,162.51L726,164.59" style="vector-effect: none; fill: none; stroke: rgb(128, 0, 128); stroke-opacity: 1; stroke-width: 2px; opacity: 1;"/></g><g class="points"/><g class="text"/></g><g class="trace scatter traceeceeed" style="stroke-miterlimit: 2; opacity: 1;"><g class="fills"/><g class="errorbars"/><g class="lines"><path class="js-line" d="M0,309.56L4.87,269.73L9.74,276.15L14.62,265.01L19.49,248.97L24.36,238.59L29.23,230.47L34.11,233.68L38.98,228.77L43.85,234.62L48.72,283.14L53.6,271.62L58.47,264.82L63.34,240.1L68.21,248.78L73.09,247.08L77.96,259.16L82.83,261.43L87.7,264.64L92.58,247.46L97.45,226.5L102.32,187.24L107.19,187.05L116.94,195.92L121.81,202.34L126.68,208.19L131.56,220.65L136.43,212.72L141.3,210.46L146.17,182.71L151.05,185.92L155.92,187.62L160.79,213.67L165.66,224.81L170.54,216.88L175.41,206.12L180.28,197.24L185.15,242.93L190.03,260.48L194.9,245.95L199.77,248.21L204.64,255.76L209.52,255.76L214.39,234.24L219.26,257.84L224.13,246.33L229.01,245.95L238.75,215.56L243.62,229.34L248.5,205.36L253.37,185.35L258.24,190.45L263.11,189.88L267.99,196.87L272.86,194.41L277.73,206.68L282.6,193.09L287.48,191.96L292.35,200.64L297.22,200.45L302.09,236.7L306.97,205.74L311.84,196.68L316.71,188.18L321.58,187.43L326.46,209.14L331.33,186.11L336.2,207.82L341.07,213.29L345.95,258.03L350.82,251.04L355.69,232.17L360.56,259.35L365.44,239.15L370.31,237.26L375.18,231.22L380.05,239.53L384.93,225.37L389.8,207.25L394.67,225.18L399.54,215.93L404.42,204.42L409.29,206.68L414.16,233.49L419.03,234.24L423.91,227.07L428.78,209.7L433.65,198L438.52,227.45L443.4,224.24L448.27,194.22L458.01,177.8L462.89,181.2L467.76,208.19L472.63,210.08L477.5,202.72L482.38,214.42L487.25,193.66L492.12,190.26L496.99,195.92L501.87,210.08L506.74,205.74L511.61,191.96L516.48,219.9L521.36,222.73L526.23,210.08L531.1,215.18L535.97,191.2L540.85,198L545.72,195.17L550.59,209.33L555.46,216.69L560.34,209.89L565.21,211.4L570.08,200.08L574.95,197.24L579.83,210.84L584.7,204.04L589.57,190.45L594.44,212.72L599.32,230.47L604.19,220.09L609.06,227.26L613.93,228.39L618.81,206.68L623.68,212.54L628.55,210.65L633.42,193.66L638.3,192.15L643.17,199.13L648.04,201.21L652.91,197.62L657.79,206.68L662.66,234.62L667.53,212.91L672.4,209.7L677.28,210.27L682.15,197.24L687.02,199.7L691.89,195.73L696.77,179.12L701.64,190.45L706.51,190.83L711.38,189.32L716.26,169.68L721.13,171.57L726,174.78" style="vector-effect: none; fill: none; stroke: rgb(255, 192, 203); stroke-opacity: 1; stroke-width: 2px; opacity: 1;"/></g><g class="points"/><g class="text"/></g><g class="trace scatter trace718274" style="stroke-miterlimit: 2; opacity: 1;"><g class="fills"/><g class="errorbars"/><g class="lines"><path class="js-line" d="M0,345.24L4.87,275.02L9.74,255.58L14.62,250.86L19.49,241.98L24.36,226.32L29.23,238.96L34.11,231.6L38.98,226.88L43.85,228.2L48.72,244.44L58.47,232.17L63.34,222.35L68.21,220.84L73.09,212.72L77.96,220.27L82.83,241.61L87.7,242.36L92.58,218.58L97.45,218.76L102.32,210.27L107.19,189.69L112.07,194.04L116.94,197.43L121.81,231.79L126.68,231.79L131.56,204.42L136.43,198.38L141.3,197.43L146.17,193.09L151.05,185.73L155.92,194.98L160.79,196.3L165.66,206.31L170.54,229.9L180.28,203.85L185.15,218.39L190.03,274.07L194.9,274.45L199.77,248.4L204.64,246.89L209.52,257.46L214.39,201.02L219.26,220.46L224.13,194.98L229.01,189.51L233.88,185.73L238.75,186.48L243.62,198.38L248.5,194.22L253.37,182.9L258.24,183.46L263.11,188L267.99,193.85L272.86,217.63L277.73,197.81L282.6,183.09L287.48,187.81L292.35,189.88L297.22,191.58L302.09,207.63L306.97,191.39L311.84,188.18L316.71,200.64L321.58,196.3L326.46,188.18L331.33,184.79L336.2,184.41L341.07,187.43L345.95,197.81L350.82,200.27L355.69,193.85L360.56,201.02L365.44,195.92L370.31,188.94L375.18,192.53L380.05,192.34L384.93,191.02L389.8,177.99L394.67,188.18L399.54,181.95L404.42,177.61L409.29,171.76L414.16,194.79L419.03,194.22L423.91,210.27L428.78,214.42L433.65,218.2L438.52,232.73L443.4,210.46L448.27,202.72L453.14,184.97L458.01,178.75L462.89,177.05L467.76,172.33L472.63,181.39L477.5,182.14L482.38,261.24L487.25,216.31L492.12,208.76L496.99,223.11L501.87,232.55L506.74,236.32L511.61,167.99L516.48,169.12L521.36,176.48L526.23,186.11L535.97,180.07L540.85,188L545.72,188.94L550.59,203.85L555.46,203.47L560.34,197.06L565.21,205.55L570.08,199.32L574.95,191.58L579.83,196.11L584.7,196.11L589.57,183.09L594.44,182.33L599.32,184.79L604.19,184.41L609.06,185.35L613.93,196.3L618.81,184.41L623.68,194.04L628.55,188.94L633.42,177.05L638.3,174.78L648.04,173.08L652.91,178.75L657.79,173.27L662.66,188.18L667.53,166.29L672.4,167.42L677.28,161.57L682.15,159.68L687.02,161.76L691.89,158.74L696.77,166.1L701.64,183.84L706.51,187.43L711.38,191.96L716.26,196.49L721.13,196.11L726,195.73" style="vector-effect: none; fill: none; stroke: rgb(165, 42, 42); stroke-opacity: 1; stroke-width: 2px; opacity: 1;"/></g><g class="points"/><g class="text"/></g><g class="trace scatter tracef88336" style="stroke-miterlimit: 2; opacity: 1;"><g class="fills"/><g class="errorbars"/><g class="lines"><path class="js-line" d="M0,371.29L4.87,283.51L9.74,265.39L14.62,260.67L19.49,241.98L24.36,246.89L29.23,256.33L34.11,239.34L38.98,236.13L43.85,235.19L48.72,261.62L53.6,253.12L58.47,248.59L63.34,228.01L68.21,235.19L73.09,232.36L77.96,248.97L82.83,253.5L87.7,259.35L92.58,238.21L97.45,227.45L102.32,206.12L107.19,191.96L112.07,195.36L116.94,206.12L121.81,228.2L126.68,233.3L136.43,214.42L141.3,214.99L146.17,207.63L151.05,202.15L155.92,203.47L160.79,211.03L165.66,221.41L170.54,245L175.41,227.64L180.28,221.03L185.15,241.98L190.03,287.1L194.9,277.47L199.77,258.97L204.64,257.84L209.52,272.94L214.39,221.6L219.26,255.95L224.13,226.32L229.01,221.22L233.88,211.21L238.75,207.82L243.62,219.9L248.5,204.8L253.37,185.35L258.24,190.45L263.11,195.55L267.99,203.85L272.86,210.84L277.73,214.8L282.6,206.87L287.48,200.83L292.35,204.42L297.22,205.36L302.09,236.7L306.97,210.27L311.84,205.36L316.71,209.7L321.58,207.63L326.46,208.76L331.33,200.64L336.2,211.78L341.07,207.82L345.95,232.55L350.82,224.99L355.69,206.12L360.56,225.18L365.44,208.38L370.31,211.59L375.18,207.25L380.05,218.01L384.93,208.76L389.8,200.64L394.67,205.55L399.54,205.55L404.42,199.7L409.29,203.1L414.16,217.63L419.03,215.37L423.91,230.09L428.78,232.92L433.65,223.86L438.52,251.23L443.4,238.4L448.27,220.09L453.14,193.47L458.01,194.22L462.89,186.67L472.63,214.99L477.5,212.54L482.38,286.91L487.25,228.96L492.12,221.22L496.99,231.98L501.87,244.06L506.74,258.6L511.61,194.04L516.48,201.59L521.36,205.36L526.23,205.17L531.1,204.8L535.97,203.47L540.85,211.78L545.72,208.76L550.59,222.73L555.46,222.92L560.34,221.6L565.21,231.41L574.95,217.82L579.83,231.22L584.7,223.11L589.57,200.83L599.32,221.22L604.19,212.72L609.06,212.16L613.93,225.94L618.81,205.93L623.68,216.88L628.55,209.33L633.42,199.89L638.3,194.98L643.17,192.34L648.04,194.22L652.91,198L657.79,202.53L662.66,212.35L667.53,203.66L672.4,200.45L677.28,198L682.15,188.75L687.02,191.58L691.89,189.69L696.77,174.21L701.64,200.83L706.51,207.06L711.38,210.84L716.26,209.14L721.13,204.42L726,201.21" style="vector-effect: none; fill: none; stroke: rgb(128, 128, 128); stroke-opacity: 1; stroke-width: 2px; opacity: 1;"/></g><g class="points"/><g class="text"/></g></g></g><g class="overplot"/><path class="xlines-above crisp" d="M0,0" style="fill: none;"/><path class="ylines-above crisp" d="M0,0" style="fill: none;"/><g class="overlines-above"/><g class="xaxislayer-above"><g class="xtick"><text text-anchor="middle" x="0" y="509" transform="translate(235.57999999999998,0)" style="font-family: 'Open Sans', verdana, arial, sans-serif; font-size: 12px; fill: rgb(42, 63, 95); fill-opacity: 1; white-space: pre; opacity: 1;">20</text></g><g class="xtick"><text text-anchor="middle" x="0" y="509" style="font-family: 'Open Sans', verdana, arial, sans-serif; font-size: 12px; fill: rgb(42, 63, 95); fill-opacity: 1; white-space: pre; opacity: 1;" transform="translate(333.03,0)">40</text></g><g class="xtick"><text text-anchor="middle" x="0" y="509" style="font-family: 'Open Sans', verdana, arial, sans-serif; font-size: 12px; fill: rgb(42, 63, 95); fill-opacity: 1; white-space: pre; opacity: 1;" transform="translate(430.48,0)">60</text></g><g class="xtick"><text text-anchor="middle" x="0" y="509" style="font-family: 'Open Sans', verdana, arial, sans-serif; font-size: 12px; fill: rgb(42, 63, 95); fill-opacity: 1; white-space: pre; opacity: 1;" transform="translate(527.9300000000001,0)">80</text></g><g class="xtick"><text text-anchor="middle" x="0" y="509" style="font-family: 'Open Sans', verdana, arial, sans-serif; font-size: 12px; fill: rgb(42, 63, 95); fill-opacity: 1; white-space: pre; opacity: 1;" transform="translate(625.38,0)">100</text></g><g class="xtick"><text text-anchor="middle" x="0" y="509" style="font-family: 'Open Sans', verdana, arial, sans-serif; font-size: 12px; fill: rgb(42, 63, 95); fill-opacity: 1; white-space: pre; opacity: 1;" transform="translate(722.83,0)">120</text></g><g class="xtick"><text text-anchor="middle" x="0" y="509" style="font-family: 'Open Sans', verdana, arial, sans-serif; font-size: 12px; fill: rgb(42, 63, 95); fill-opacity: 1; white-space: pre; opacity: 1;" transform="translate(820.28,0)">140</text></g></g><g class="yaxislayer-above"><g class="ytick"><text text-anchor="end" x="142" y="4.199999999999999" transform="translate(0,433.35)" style="font-family: 'Open Sans', verdana, arial, sans-serif; font-size: 12px; fill: rgb(42, 63, 95); fill-opacity: 1; white-space: pre; opacity: 1;">65</text></g><g class="ytick"><text text-anchor="end" x="142" y="4.199999999999999" style="font-family: 'Open Sans', verdana, arial, sans-serif; font-size: 12px; fill: rgb(42, 63, 95); fill-opacity: 1; white-space: pre; opacity: 1;" transform="translate(0,338.96000000000004)">70</text></g><g class="ytick"><text text-anchor="end" x="142" y="4.199999999999999" style="font-family: 'Open Sans', verdana, arial, sans-serif; font-size: 12px; fill: rgb(42, 63, 95); fill-opacity: 1; white-space: pre; opacity: 1;" transform="translate(0,244.58)">75</text></g><g class="ytick"><text text-anchor="end" x="142" y="4.199999999999999" style="font-family: 'Open Sans', verdana, arial, sans-serif; font-size: 12px; fill: rgb(42, 63, 95); fill-opacity: 1; white-space: pre; opacity: 1;" transform="translate(0,150.19)">80</text></g></g><g class="overaxes-above"/></g></g><g class="polarlayer"/><g class="smithlayer"/><g class="ternarylayer"/><g class="geolayer"/><g class="funnelarealayer"/><g class="pielayer"/><g class="iciclelayer"/><g class="treemaplayer"/><g class="sunburstlayer"/><g class="glimages"/><defs id="topdefs-7d31f7"><g class="clips"/><clipPath id="legend7d31f7"><rect width="128" height="162" x="0" y="0"/></clipPath></defs><g class="layer-above"><g class="imagelayer"/><g class="shapelayer"/></g><g class="infolayer"><g class="legend" pointer-events="all" transform="translate(883.52,100)"><rect class="bg" shape-rendering="crispEdges" width="128" height="162" x="0" y="0" style="stroke: rgb(68, 68, 68); stroke-opacity: 1; fill: rgb(255, 255, 255); fill-opacity: 1; stroke-width: 0px;"/><g class="scrollbox" transform="" clip-path="url(#legend7d31f7)"><g class="groups"><g class="traces" transform="translate(0,14.5)" style="opacity: 1;"><text class="legendtext" text-anchor="start" x="40" y="4.680000000000001" style="font-family: 'Open Sans', verdana, arial, sans-serif; font-size: 12px; fill: rgb(42, 63, 95); fill-opacity: 1; white-space: pre;">Train Accuracy</text><g class="layers" style="opacity: 1;"><g class="legendfill"/><g class="legendlines"><path class="js-line" d="M5,0h30" style="fill: none; stroke: rgb(255, 0, 0); stroke-opacity: 1; stroke-width: 2px;"/></g><g class="legendsymbols"><g class="legendpoints"/></g></g><rect class="legendtoggle" x="0" y="-9.5" width="122.71875" height="19" style="fill: rgb(0, 0, 0); fill-opacity: 0;"/></g><g class="traces" transform="translate(0,33.5)" style="opacity: 1;"><text class="legendtext" text-anchor="start" x="40" y="4.680000000000001" style="font-family: 'Open Sans', verdana, arial, sans-serif; font-size: 12px; fill: rgb(42, 63, 95); fill-opacity: 1; white-space: pre;">Test Accuracy</text><g class="layers" style="opacity: 1;"><g class="legendfill"/><g class="legendlines"><path class="js-line" d="M5,0h30" style="fill: none; stroke: rgb(0, 0, 255); stroke-opacity: 1; stroke-width: 2px;"/></g><g class="legendsymbols"><g class="legendpoints"/></g></g><rect class="legendtoggle" x="0" y="-9.5" width="122.71875" height="19" style="fill: rgb(0, 0, 0); fill-opacity: 0;"/></g><g class="traces" transform="translate(0,52.5)" style="opacity: 1;"><text class="legendtext" text-anchor="start" x="40" y="4.680000000000001" style="font-family: 'Open Sans', verdana, arial, sans-serif; font-size: 12px; fill: rgb(42, 63, 95); fill-opacity: 1; white-space: pre;">Train Precision</text><g class="layers" style="opacity: 1;"><g class="legendfill"/><g class="legendlines"><path class="js-line" d="M5,0h30" style="fill: none; stroke: rgb(0, 128, 0); stroke-opacity: 1; stroke-width: 2px;"/></g><g class="legendsymbols"><g class="legendpoints"/></g></g><rect class="legendtoggle" x="0" y="-9.5" width="122.71875" height="19" style="fill: rgb(0, 0, 0); fill-opacity: 0;"/></g><g class="traces" transform="translate(0,71.5)" style="opacity: 1;"><text class="legendtext" text-anchor="start" x="40" y="4.680000000000001" style="font-family: 'Open Sans', verdana, arial, sans-serif; font-size: 12px; fill: rgb(42, 63, 95); fill-opacity: 1; white-space: pre;">Test Precision</text><g class="layers" style="opacity: 1;"><g class="legendfill"/><g class="legendlines"><path class="js-line" d="M5,0h30" style="fill: none; stroke: rgb(255, 165, 0); stroke-opacity: 1; stroke-width: 2px;"/></g><g class="legendsymbols"><g class="legendpoints"/></g></g><rect class="legendtoggle" x="0" y="-9.5" width="122.71875" height="19" style="fill: rgb(0, 0, 0); fill-opacity: 0;"/></g><g class="traces" transform="translate(0,90.5)" style="opacity: 1;"><text class="legendtext" text-anchor="start" x="40" y="4.680000000000001" style="font-family: 'Open Sans', verdana, arial, sans-serif; font-size: 12px; fill: rgb(42, 63, 95); fill-opacity: 1; white-space: pre;">Train Recall</text><g class="layers" style="opacity: 1;"><g class="legendfill"/><g class="legendlines"><path class="js-line" d="M5,0h30" style="fill: none; stroke: rgb(128, 0, 128); stroke-opacity: 1; stroke-width: 2px;"/></g><g class="legendsymbols"><g class="legendpoints"/></g></g><rect class="legendtoggle" x="0" y="-9.5" width="122.71875" height="19" style="fill: rgb(0, 0, 0); fill-opacity: 0;"/></g><g class="traces" transform="translate(0,109.5)" style="opacity: 1;"><text class="legendtext" text-anchor="start" x="40" y="4.680000000000001" style="font-family: 'Open Sans', verdana, arial, sans-serif; font-size: 12px; fill: rgb(42, 63, 95); fill-opacity: 1; white-space: pre;">Test Recall</text><g class="layers" style="opacity: 1;"><g class="legendfill"/><g class="legendlines"><path class="js-line" d="M5,0h30" style="fill: none; stroke: rgb(255, 192, 203); stroke-opacity: 1; stroke-width: 2px;"/></g><g class="legendsymbols"><g class="legendpoints"/></g></g><rect class="legendtoggle" x="0" y="-9.5" width="122.71875" height="19" style="fill: rgb(0, 0, 0); fill-opacity: 0;"/></g><g class="traces" transform="translate(0,128.5)" style="opacity: 1;"><text class="legendtext" text-anchor="start" x="40" y="4.680000000000001" style="font-family: 'Open Sans', verdana, arial, sans-serif; font-size: 12px; fill: rgb(42, 63, 95); fill-opacity: 1; white-space: pre;">Train F1</text><g class="layers" style="opacity: 1;"><g class="legendfill"/><g class="legendlines"><path class="js-line" d="M5,0h30" style="fill: none; stroke: rgb(165, 42, 42); stroke-opacity: 1; stroke-width: 2px;"/></g><g class="legendsymbols"><g class="legendpoints"/></g></g><rect class="legendtoggle" x="0" y="-9.5" width="122.71875" height="19" style="fill: rgb(0, 0, 0); fill-opacity: 0;"/></g><g class="traces" transform="translate(0,147.5)" style="opacity: 1;"><text class="legendtext" text-anchor="start" x="40" y="4.680000000000001" style="font-family: 'Open Sans', verdana, arial, sans-serif; font-size: 12px; fill: rgb(42, 63, 95); fill-opacity: 1; white-space: pre;">Test F1</text><g class="layers" style="opacity: 1;"><g class="legendfill"/><g class="legendlines"><path class="js-line" d="M5,0h30" style="fill: none; stroke: rgb(128, 128, 128); stroke-opacity: 1; stroke-width: 2px;"/></g><g class="legendsymbols"><g class="legendpoints"/></g></g><rect class="legendtoggle" x="0" y="-9.5" width="122.71875" height="19" style="fill: rgb(0, 0, 0); fill-opacity: 0;"/></g></g></g><rect class="scrollbar" rx="20" ry="3" width="0" height="0" x="0" y="0" style="fill: rgb(128, 139, 164); fill-opacity: 1;"/></g><g class="g-gtitle"><text class="gtitle" x="51.2" y="50" text-anchor="start" dy="0em" style="font-family: 'Open Sans', verdana, arial, sans-serif; font-size: 17px; fill: rgb(42, 63, 95); opacity: 1; font-weight: normal; white-space: pre;">Training Metrics - logs/FakeNewsNet-gossipcop_max-vocab=15000_pre=v2_text_domain_T=200_s=10.log</text></g><g class="g-xtitle"><text class="xtitle" x="506" y="537.3" text-anchor="middle" style="font-family: 'Open Sans', verdana, arial, sans-serif; font-size: 14px; fill: rgb(42, 63, 95); opacity: 1; font-weight: normal; white-space: pre;">Epoch</text></g><g class="g-ytitle"><text class="ytitle" transform="rotate(-90,103.965625,298)" x="103.965625" y="298" text-anchor="middle" style="font-family: 'Open Sans', verdana, arial, sans-serif; font-size: 14px; fill: rgb(42, 63, 95); opacity: 1; font-weight: normal; white-space: pre;">Metric Score</text></g></g><g class="menulayer"><g class="updatemenu-container" style="cursor: pointer;"><g class="updatemenu-header-group" transform="translate(12,60)"><g class="updatemenu-header" transform="translate(1,1)" style="pointer-events: all;"><rect class="updatemenu-item-rect" rx="2" ry="2" shape-rendering="crispEdges" x="0" y="0" width="167" height="33" style="stroke: rgb(190, 200, 217); stroke-opacity: 1; fill: rgb(255, 255, 255); fill-opacity: 1; stroke-width: 1px;"/><text class="updatemenu-item-text" text-anchor="start" data-notex="1" x="12" y="19.5" style="font-family: 'Open Sans', verdana, arial, sans-serif; font-size: 12px; fill: rgb(42, 63, 95); fill-opacity: 1; white-space: pre;">All</text></g><text class="updatemenu-header-arrow" text-anchor="end" x="163" y="19.5" style="font-family: 'Open Sans', verdana, arial, sans-serif; font-size: 12px; fill: rgb(42, 63, 95); fill-opacity: 1;">▼</text></g><g class="updatemenu-dropdown-button-group" updatemenu-active-index="-1" style="pointer-events: all;"><rect class="scrollbox-bg" opacity="0" x="0" y="0" width="0" height="0" style="pointer-events: all;"/></g></g></g></svg>