<svg class="main-svg" xmlns="http://www.w3.org/2000/svg" xmlns:xlink="http://www.w3.org/1999/xlink" width="1024" height="576" style="" viewBox="0 0 1024 576"><rect x="0" y="0" width="1024" height="576" style="fill: rgb(255, 255, 255); fill-opacity: 1;"/><defs id="defs-345236"><g class="clips"><clipPath id="clip345236xyplot" class="plotclip"><rect width="726" height="396"/></clipPath><clipPath class="axesclip" id="clip345236x"><rect x="143" y="0" width="726" height="576"/></clipPath><clipPath class="axesclip" id="clip345236y"><rect x="0" y="100" width="1024" height="396"/></clipPath><clipPath class="axesclip" id="clip345236xy"><rect x="143" y="100" width="726" height="396"/></clipPath></g><g class="gradients"/><g class="patterns"/></defs><g class="bglayer"><rect class="bg" x="143" y="100" width="726" height="396" style="fill: rgb(229, 236, 246); fill-opacity: 1; stroke-width: 0;"/></g><g class="layer-below"><g class="imagelayer"/><g class="shapelayer"/></g><g class="cartesianlayer"><g class="subplot xy"><g class="layer-subplot"><g class="shapelayer"/><g class="imagelayer"/></g><g class="minor-gridlayer"><g class="x"/><g class="y"/></g><g class="gridlayer"><g class="x"><path class="xgrid crisp" transform="translate(235.57999999999998,0)" d="M0,100v396" style="stroke: rgb(255, 255, 255); stroke-opacity: 1; stroke-width: 1px;"/><path class="xgrid crisp" transform="translate(333.03,0)" d="M0,100v396" style="stroke: rgb(255, 255, 255); stroke-opacity: 1; stroke-width: 1px;"/><path class="xgrid crisp" transform="translate(430.48,0)" d="M0,100v396" style="stroke: rgb(255, 255, 255); stroke-opacity: 1; stroke-width: 1px;"/><path class="xgrid crisp" transform="translate(527.9300000000001,0)" d="M0,100v396" style="stroke: rgb(255, 255, 255); stroke-opacity: 1; stroke-width: 1px;"/><path class="xgrid crisp" transform="translate(625.38,0)" d="M0,100v396" style="stroke: rgb(255, 255, 255); stroke-opacity: 1; stroke-width: 1px;"/><path class="xgrid crisp" transform="translate(722.83,0)" d="M0,100v396" style="stroke: rgb(255, 255, 255); stroke-opacity: 1; stroke-width: 1px;"/><path class="xgrid crisp" transform="translate(820.28,0)" d="M0,100v396" style="stroke: rgb(255, 255, 255); stroke-opacity: 1; stroke-width: 1px;"/></g><g class="y"><path class="ygrid crisp" transform="translate(0,456.35)" d="M143,0h726" style="stroke: rgb(255, 255, 255); stroke-opacity: 1; stroke-width: 1px;"/><path class="ygrid crisp" transform="translate(0,412.73)" d="M143,0h726" style="stroke: rgb(255, 255, 255); stroke-opacity: 1; stroke-width: 1px;"/><path class="ygrid crisp" transform="translate(0,369.11)" d="M143,0h726" style="stroke: rgb(255, 255, 255); stroke-opacity: 1; stroke-width: 1px;"/><path class="ygrid crisp" transform="translate(0,325.48)" d="M143,0h726" style="stroke: rgb(255, 255, 255); stroke-opacity: 1; stroke-width: 1px;"/><path class="ygrid crisp" transform="translate(0,281.86)" d="M143,0h726" style="stroke: rgb(255, 255, 255); stroke-opacity: 1; stroke-width: 1px;"/><path class="ygrid crisp" transform="translate(0,238.24)" d="M143,0h726" style="stroke: rgb(255, 255, 255); stroke-opacity: 1; stroke-width: 1px;"/><path class="ygrid crisp" transform="translate(0,194.61)" d="M143,0h726" style="stroke: rgb(255, 255, 255); stroke-opacity: 1; stroke-width: 1px;"/><path class="ygrid crisp" transform="translate(0,150.99)" d="M143,0h726" style="stroke: rgb(255, 255, 255); stroke-opacity: 1; stroke-width: 1px;"/><path class="ygrid crisp" transform="translate(0,107.37)" d="M143,0h726" style="stroke: rgb(255, 255, 255); stroke-opacity: 1; stroke-width: 1px;"/></g></g><g class="zerolinelayer"/><path class="xlines-below"/><path class="ylines-below"/><g class="overlines-below"/><g class="xaxislayer-below"/><g class="yaxislayer-below"/><g class="overaxes-below"/><g class="plot" transform="translate(143,100)" clip-path="url(#clip345236xyplot)"><g class="scatterlayer mlayer"><g class="trace scatter trace895d4e" style="stroke-miterlimit: 2; opacity: 1;"><g class="fills"/><g class="errorbars"/><g class="lines"><path class="js-line" d="M0,360.93L4.87,275.65L9.74,218.94L14.62,229.19L19.49,180.11L24.36,167.25L29.23,195.6L34.11,247.29L38.98,187.75L43.85,169.86L48.72,198.22L58.47,154.16L63.34,167.25L68.21,174.88L73.09,146.52L77.96,149.14L82.83,143.91L87.7,151.76L92.58,141.29L97.45,118.17L102.32,131.04L107.19,123.19L112.07,146.52L116.94,138.67L121.81,133.66L126.68,141.29L131.56,141.29L136.43,138.67L141.3,120.57L146.17,133.66L151.05,141.29L155.92,133.66L160.79,112.94L165.66,110.32L170.54,120.57L175.41,118.17L180.28,110.32L185.15,125.8L190.03,118.17L194.9,102.47L199.77,100.07L204.64,115.55L209.52,115.55L214.39,138.67L219.26,136.27L224.13,100.07L229.01,115.55L233.88,107.7L238.75,131.04L243.62,125.8L248.5,118.17L253.37,138.67L258.24,136.27L263.11,118.17L267.99,120.57L272.86,105.08L277.73,118.17L282.6,136.27L287.48,138.67L292.35,125.8L297.22,105.08L302.09,115.55L306.97,131.04L311.84,115.55L316.71,120.57L321.58,138.67L326.46,123.19L331.33,156.78L336.2,133.66L341.07,112.94L345.95,100.07L350.82,89.6L355.69,115.55L360.56,97.45L365.44,110.32L370.31,105.08L375.18,112.94L380.05,84.58L384.93,89.6L389.8,131.04L394.67,61.24L399.54,105.08L404.42,71.49L409.29,68.88L414.16,74.11L423.91,63.86L428.78,89.6L433.65,76.73L438.52,84.58L443.4,74.11L448.27,53.39L453.14,53.39L458.01,58.62L462.89,50.99L467.76,68.88L472.63,100.07L477.5,97.45L482.38,89.6L487.25,86.98L492.12,81.96L496.99,89.6L501.87,79.35L506.74,76.73L511.61,102.47L516.48,71.49L521.36,63.86L526.23,53.39L535.97,81.96L540.85,66.48L545.72,76.73L550.59,76.73L555.46,81.96L560.34,66.48L565.21,61.24L570.08,45.76L574.95,45.76L579.83,53.39L584.7,50.99L589.57,53.39L594.44,86.98L599.32,92.21L604.19,86.98L609.06,63.86L613.93,66.48L618.81,79.35L623.68,84.58L628.55,71.49L633.42,89.6L638.3,63.86L643.17,79.35L648.04,66.48L652.91,86.98L657.79,76.73L662.66,63.86L667.53,74.11L672.4,68.88L677.28,56.01L682.15,50.99L687.02,74.11L691.89,76.73L696.77,48.37L701.64,45.76L706.51,79.35L711.38,92.21L716.26,68.88L721.13,58.62L726,66.48" style="vector-effect: none; fill: none; stroke: rgb(255, 0, 0); stroke-opacity: 1; stroke-width: 2px; opacity: 1;"/></g><g class="points"/><g class="text"/></g><g class="trace scatter tracea1c6e4" style="stroke-miterlimit: 2; opacity: 1;"><g class="fills"/><g class="errorbars"/><g class="lines"><path class="js-line" d="M0,257.55L4.87,165.06L9.74,123.84L14.62,144.34L19.49,134.09L24.36,103.34L29.23,123.84L34.11,144.34L38.98,154.6L43.85,123.84L48.72,134.09L53.6,103.34L58.47,103.34L63.34,134.09L68.21,134.09L73.09,103.34L77.96,154.6L82.83,113.59L87.7,103.34L92.58,123.84L97.45,113.59L102.32,123.84L107.19,103.34L112.07,134.09L116.94,123.84L121.81,123.84L126.68,134.09L131.56,144.34L136.43,123.84L141.3,113.59L146.17,123.84L151.05,82.62L155.92,103.34L160.79,92.87L165.66,103.34L170.54,72.37L175.41,62.11L180.28,72.37L185.15,92.87L194.9,51.86L199.77,82.62L204.64,92.87L209.52,72.37L214.39,123.84L219.26,123.84L224.13,92.87L229.01,113.59L233.88,134.09L238.75,123.84L243.62,123.84L248.5,134.09L253.37,134.09L258.24,123.84L263.11,144.34L267.99,92.87L272.86,31.14L277.73,92.87L282.6,92.87L287.48,103.34L302.09,103.34L306.97,82.62L311.84,82.62L316.71,113.59L321.58,134.09L326.46,123.84L331.33,175.32L336.2,103.34L341.07,82.62L345.95,72.37L350.82,72.37L355.69,92.87L360.56,92.87L365.44,72.37L370.31,92.87L375.18,134.09L380.05,144.34L384.93,134.09L389.8,165.06L394.67,82.62L399.54,92.87L404.42,72.37L409.29,92.87L414.16,134.09L419.03,82.62L423.91,72.37L433.65,72.37L438.52,31.14L443.4,51.86L448.27,20.89L453.14,41.61L458.01,82.62L462.89,92.87L467.76,51.86L472.63,62.11L477.5,82.62L482.38,113.59L487.25,82.62L492.12,92.87L496.99,113.59L501.87,113.59L506.74,103.34L511.61,113.59L516.48,72.37L521.36,92.87L526.23,82.62L531.1,62.11L535.97,62.11L540.85,41.61L545.72,72.37L550.59,82.62L555.46,134.09L560.34,92.87L565.21,134.09L570.08,134.09L574.95,113.59L579.83,134.09L584.7,134.09L589.57,82.62L594.44,103.34L599.32,144.34L604.19,113.59L609.06,82.62L613.93,92.87L618.81,123.84L623.68,82.62L628.55,72.37L633.42,82.62L643.17,103.34L648.04,134.09L652.91,144.34L657.79,123.84L662.66,92.87L667.53,113.59L672.4,82.62L677.28,123.84L682.15,103.34L687.02,92.87L691.89,72.37L696.77,82.62L701.64,103.34L706.51,113.59L711.38,165.06L716.26,92.87L721.13,113.59L726,113.59" style="vector-effect: none; fill: none; stroke: rgb(0, 0, 255); stroke-opacity: 1; stroke-width: 2px; opacity: 1;"/></g><g class="points"/><g class="text"/></g><g class="trace scatter tracef8a88f" style="stroke-miterlimit: 2; opacity: 1;"><g class="fills"/><g class="errorbars"/><g class="lines"><path class="js-line" d="M0,376.2L4.87,291.14L9.74,227.88L14.62,242.71L19.49,183.39L24.36,169.21L29.23,193.42L34.11,261.69L38.98,196.47L43.85,172.26L48.72,205.85L53.6,168.34L58.47,158.08L68.21,180.11L73.09,140.85L77.96,141.94L82.83,131.26L87.7,148.71L92.58,132.78L97.45,102.47L102.32,127.11L107.19,108.14L112.07,148.49L116.94,138.89L121.81,133.44L126.68,141.29L131.56,145.43L136.43,143.04L141.3,127.99L146.17,139.98L151.05,145.43L155.92,141.29L160.79,106.83L165.66,102.47L170.54,115.99L180.28,104.65L185.15,127.33L190.03,113.59L194.9,88.07L199.77,94.61L204.64,122.53L209.52,115.33L214.39,147.18L219.26,143.69L224.13,97.67L229.01,118.61L233.88,104.43L238.75,134.96L243.62,126.46L248.5,123.19L253.37,147.62L258.24,144.13L263.11,121.01L267.99,112.5L272.86,95.49L277.73,114.68L282.6,142.6L287.48,144.34L292.35,133.87L297.22,105.96L302.09,120.79L306.97,131.91L311.84,120.13L316.71,128.42L321.58,150.23L326.46,133L331.33,169.21L341.07,118.39L345.95,95.7L350.82,87.63L355.69,122.97L360.56,103.77L365.44,115.33L370.31,107.7L375.18,121.01L380.05,87.2L384.93,94.83L389.8,142.38L394.67,55.35L399.54,109.88L404.42,56.44L409.29,60.81L414.16,68.88L423.91,50.12L428.78,79.78L433.65,51.21L438.52,55.35L443.4,41.83L448.27,40.08L453.14,29.4L458.01,47.06L462.89,28.96L467.76,60.81L472.63,67.57L477.5,76.07L482.38,61.24L487.25,51.64L492.12,61.9L496.99,69.75L501.87,61.46L506.74,64.95L511.61,108.14L516.48,63.2L521.36,35.72L526.23,37.25L531.1,41.39L535.97,73.24L540.85,53.61L545.72,73.24L550.59,74.11L555.46,77.6L560.34,58.62L565.21,49.25L570.08,24.82L574.95,19.8L579.83,32.67L584.7,37.9L589.57,40.08L594.44,86.11L599.32,97.89L604.19,91.12L609.06,48.59L613.93,46.19L618.81,75.42L623.68,80L628.55,63.2L633.42,86.54L638.3,55.35L643.17,77.38L648.04,53.61L652.91,91.12L657.79,76.07L662.66,44.23L667.53,72.8L672.4,54.26L677.28,44.88L682.15,30.49L687.02,37.69L691.89,51.21L696.77,28.52L701.64,39.87L706.51,83.93L711.38,99.41L716.26,63.2L721.13,56.23L726,62.11" style="vector-effect: none; fill: none; stroke: rgb(0, 128, 0); stroke-opacity: 1; stroke-width: 2px; opacity: 1;"/></g><g class="points"/><g class="text"/></g><g class="trace scatter trace1325a6" style="stroke-miterlimit: 2; opacity: 1;"><g class="fills"/><g class="errorbars"/><g class="lines"><path class="js-line" d="M0,286.77L4.87,198.65L9.74,155.9L14.62,176.19L19.49,167.25L24.36,134.53L29.23,156.34L34.11,177.28L38.98,188.4L43.85,156.34L48.72,167.03L53.6,132.78L58.47,133.87L63.34,167.25L68.21,167.25L73.09,133.87L77.96,189.06L82.83,144.34L87.7,133.87L92.58,154.81L97.45,143.04L102.32,156.34L107.19,128.64L112.07,167.25L116.94,155.9L121.81,155.9L126.68,167.25L131.56,177.93L136.43,155.9L141.3,144.78L146.17,155.03L151.05,113.15L155.92,134.53L160.79,120.79L165.66,130.82L170.54,98.32L175.41,88.29L180.28,98.32L185.15,123.4L194.9,75.86L199.77,110.54L204.64,124.06L209.52,102.25L214.39,155.03L219.26,155.03L224.13,123.84L229.01,144.78L233.88,167.25L238.75,155.9L243.62,156.34L248.5,166.16L253.37,164.85L258.24,155.9L263.11,177.93L267.99,120.79L272.86,50.55L277.73,123.4L282.6,123.4L287.48,134.53L302.09,134.53L306.97,111.84L311.84,110.54L316.71,145.43L321.58,163.32L326.46,153.5L331.33,200.4L336.2,133.66L341.07,113.15L345.95,101.38L350.82,102.25L355.69,123.4L360.56,123.4L365.44,102.47L370.31,123.84L375.18,164.85L380.05,174.66L384.93,164.85L389.8,191.24L394.67,113.15L399.54,124.06L404.42,101.38L409.29,123.84L414.16,166.16L419.03,112.72L423.91,102.25L428.78,102.25L433.65,95.92L438.52,46.85L443.4,65.82L448.27,40.96L453.14,60.15L458.01,111.84L462.89,122.31L467.76,78.04L472.63,79.56L482.38,135.62L487.25,98.76L496.99,141.07L501.87,143.04L506.74,132.78L511.61,143.69L516.48,102.25L521.36,120.79L526.23,112.72L531.1,88.29L535.97,89.81L540.85,66.04L545.72,102.25L550.59,112.72L555.46,166.16L560.34,123.4L565.21,167.25L570.08,167.25L574.95,144.34L579.83,167.25L584.7,167.25L589.57,111.84L594.44,134.53L599.32,176.19L604.19,145.43L609.06,108.35L613.93,120.79L618.81,156.34L623.68,110.54L628.55,98.32L638.3,123.4L643.17,134.53L648.04,167.25L652.91,177.28L657.79,156.34L662.66,120.79L667.53,145.22L672.4,110.54L677.28,156.34L682.15,132.78L687.02,118.61L691.89,98.32L696.77,108.35L701.64,134.53L706.51,144.78L711.38,193.86L716.26,123.84L721.13,144.78L726,144.78" style="vector-effect: none; fill: none; stroke: rgb(255, 165, 0); stroke-opacity: 1; stroke-width: 2px; opacity: 1;"/></g><g class="points"/><g class="text"/></g><g class="trace scatter tracec982e6" style="stroke-miterlimit: 2; opacity: 1;"><g class="fills"/><g class="errorbars"/><g class="lines"><path class="js-line" d="M0,371.4L4.87,292.66L9.74,247.95L14.62,248.38L19.49,212.18L24.36,199.31L29.23,234.86L34.11,266.49L38.98,213.7L43.85,201.49L48.72,226.79L53.6,215.23L58.47,182.95L63.34,200.18L68.21,204.11L73.09,183.17L77.96,187.09L82.83,185.13L87.7,186.66L92.58,179.46L97.45,158.74L102.32,164.63L107.19,163.97L112.07,176.41L116.94,169.65L121.81,164.41L126.68,172.7L131.56,168.34L136.43,165.28L141.3,141.29L146.17,156.56L151.05,168.34L155.92,155.03L160.79,146.52L165.66,145.22L170.54,154.16L175.41,153.5L180.28,143.47L185.15,154.16L190.03,150.89L194.9,141.07L199.77,131.91L204.64,135.84L209.52,144.56L214.39,159.39L219.26,158.08L224.13,129.51L229.01,141.07L233.88,138.67L238.75,156.99L243.62,155.03L248.5,141.51L253.37,158.52L258.24,157.21L263.11,144.13L267.99,156.56L272.86,140.64L282.6,159.61L287.48,163.76L292.35,145.65L297.22,132.13L302.09,138.45L306.97,160.48L311.84,139.33L316.71,140.42L321.58,151.76L326.46,139.11L331.33,165.5L336.2,153.29L341.07,135.4L345.95,131.04L350.82,117.95L355.69,134.96L360.56,116.86L365.44,133.22L370.31,130.38L375.18,131.04L380.05,107.48L384.93,110.32L389.8,142.38L394.67,90.03L399.54,127.77L404.42,107.48L409.29,100.07L414.16,103.77L423.91,98.32L428.78,123.84L433.65,118.82L438.52,128.86L443.4,119.04L448.27,86.76L453.14,92.87L458.01,91.34L462.89,88.72L467.76,100.07L472.63,147.4L477.5,139.11L482.38,134.09L487.25,134.53L492.12,121.44L496.99,129.95L501.87,117.52L506.74,111.19L511.61,123.84L516.48,103.12L521.36,105.96L526.23,88.51L531.1,111.19L535.97,114.68L540.85,100.5L545.72,105.08L550.59,104.21L555.46,111.19L560.34,97.01L565.21,94.4L570.08,82.62L574.95,85.23L579.83,91.12L584.7,83.71L589.57,86.76L594.44,114.03L599.32,112.5L604.19,108.79L609.06,99.19L613.93,104.65L618.81,108.14L623.68,114.24L628.55,103.12L633.42,118.82L638.3,94.83L643.17,106.39L648.04,100.5L652.91,108.79L657.79,102.47L662.66,101.59L667.53,100.28L672.4,104.43L677.28,88.07L682.15,88.07L687.02,120.79L691.89,118.82L696.77,84.8L701.64,73.24L706.51,99.63L711.38,109.88L716.26,98.32L721.13,84.36L726,94.4" style="vector-effect: none; fill: none; stroke: rgb(128, 0, 128); stroke-opacity: 1; stroke-width: 2px; opacity: 1;"/></g><g class="points"/><g class="text"/></g><g class="trace scatter trace5beb56" style="stroke-miterlimit: 2; opacity: 1;"><g class="fills"/><g class="errorbars"/><g class="lines"><path class="js-line" d="M0,258.42L4.87,179.24L9.74,152.63L14.62,151.32L19.49,154.81L24.36,124.5L29.23,146.74L34.11,157.21L38.98,171.17L43.85,146.74L48.72,148.92L53.6,136.27L58.47,130.38L63.34,154.81L68.21,154.81L73.09,130.38L77.96,182.73L82.83,144.34L87.7,130.38L92.58,158.3L97.45,150.23L102.32,146.74L107.19,148.05L112.07,160.7L116.94,152.63L121.81,152.63L126.68,160.7L131.56,162.88L136.43,134.96L141.3,121.01L146.17,129.08L151.05,96.58L155.92,112.94L165.66,142.16L170.54,105.96L175.41,92L180.28,105.96L185.15,116.42L190.03,100.07L194.9,83.93L199.77,114.24L204.64,104.86L209.52,88.51L214.39,129.08L219.26,129.08L224.13,110.54L229.01,121.01L233.88,160.7L238.75,134.96L243.62,140.85L248.5,143.25L253.37,137.36L258.24,134.96L263.11,162.88L267.99,128.2L272.86,67.57L277.73,116.42L282.6,116.42L287.48,124.5L292.35,118.82L297.22,118.82L302.09,124.5L306.97,108.35L311.84,114.24L316.71,126.89L321.58,131.47L326.46,123.4L331.33,163.97L336.2,107.05L341.07,96.58L345.95,94.4L350.82,88.51L355.69,98.98L360.56,98.98L365.44,82.62L375.18,137.36L380.05,145.43L384.93,137.36L389.8,155.9L394.67,96.58L399.54,104.86L404.42,94.4L409.29,110.54L414.16,143.25L419.03,102.47L423.91,88.51L428.78,88.51L433.65,111.84L438.52,73.46L443.4,101.38L448.27,53.61L458.01,108.35L462.89,122.31L467.76,78.04L472.63,109.66L477.5,125.8L482.38,167.68L487.25,137.58L492.12,128.2L496.99,156.12L501.87,150.23L506.74,136.27L511.61,115.12L516.48,88.51L521.36,128.2L526.23,102.47L531.1,92L535.97,86.11L540.85,69.97L545.72,88.51L550.59,102.47L555.46,143.25L560.34,116.42L565.21,160.7L570.08,160.7L574.95,144.34L579.83,160.7L584.7,160.7L589.57,108.35L594.44,112.94L599.32,151.32L604.19,126.89L609.06,119.91L613.93,128.2L618.81,146.74L623.68,114.24L628.55,105.96L633.42,108.35L638.3,116.42L643.17,124.5L648.04,160.7L652.91,157.21L657.79,140.85L662.66,128.2L667.53,138.67L672.4,114.24L677.28,140.85L682.15,136.27L687.02,133.87L691.89,105.96L696.77,119.91L701.64,124.5L706.51,121.01L711.38,161.79L716.26,110.54L721.13,121.01L726,121.01" style="vector-effect: none; fill: none; stroke: rgb(255, 192, 203); stroke-opacity: 1; stroke-width: 2px; opacity: 1;"/></g><g class="points"/><g class="text"/></g><g class="trace scatter tracec39dce" style="stroke-miterlimit: 2; opacity: 1;"><g class="fills"/><g class="errorbars"/><g class="lines"><path class="js-line" d="M0,374.46L4.87,292.01L9.74,241.19L14.62,245.99L19.49,203.23L24.36,189.93L29.23,223.96L34.11,264.31L38.98,207.38L43.85,192.33L48.72,219.59L53.6,203.45L58.47,174.66L63.34,190.37L68.21,196.26L73.09,171.39L77.96,174.88L82.83,171.61L87.7,175.75L92.58,167.03L97.45,144.13L102.32,153.5L107.19,149.58L112.07,167.25L116.94,159.83L121.81,154.38L126.68,162.67L136.43,157.43L141.3,135.84L146.17,150.23L151.05,160.27L155.92,149.36L160.79,134.53L165.66,132.57L170.54,142.6L175.41,141.07L180.28,131.69L185.15,145L190.03,139.55L194.9,126.68L199.77,120.35L204.64,130.6L209.52,134.75L214.39,154.38L219.26,152.41L224.13,119.04L229.01,133L233.88,127.77L238.75,149.14L243.62,145.65L248.5,134.53L253.37,153.94L258.24,151.98L263.11,135.84L267.99,144.13L272.86,127.55L277.73,139.11L282.6,153.29L287.48,156.56L297.22,122.97L302.09,131.69L306.97,150.89L311.84,132.13L316.71,135.4L321.58,150.89L326.46,136.49L331.33,167.46L341.07,128.86L345.95,119.91L350.82,107.7L355.69,130.17L360.56,111.63L365.44,126.24L370.31,122.31L375.18,126.89L380.05,99.85L384.93,104.21L389.8,142.38L394.67,78.47L399.54,121.01L404.42,92.87L409.29,87.63L414.16,92.21L423.91,83.93L428.78,110.75L433.65,101.81L438.52,111.19L443.4,100.72L448.27,72.58L453.14,75.64L458.01,77.6L462.89,72.37L467.76,87.63L472.63,129.51L477.5,123.19L482.38,116.86L487.25,115.99L492.12,105.74L496.99,114.24L501.87,102.25L506.74,97.45L511.61,117.73L516.48,90.69L521.36,88.07L526.23,73.46L531.1,93.74L535.97,102.03L540.85,86.54L545.72,94.4L550.59,93.96L555.46,100.28L560.34,84.8L565.21,80.65L570.08,66.48L574.95,67.79L579.83,74.76L584.7,69.75L589.57,72.58L594.44,104.43L599.32,106.61L604.19,102.03L609.06,84.36L613.93,88.72L618.81,97.23L623.68,103.12L628.55,90.69L633.42,108.14L638.3,82.18L643.17,96.58L648.04,86.54L652.91,102.03L657.79,93.09L662.66,85.89L667.53,90.69L672.4,89.81L677.28,74.76L682.15,71.93L687.02,101.81L691.89,101.81L696.77,68.88L701.64,61.9L706.51,93.3L711.38,105.52L716.26,86.98L721.13,74.55L726,83.49" style="vector-effect: none; fill: none; stroke: rgb(165, 42, 42); stroke-opacity: 1; stroke-width: 2px; opacity: 1;"/></g><g class="points"/><g class="text"/></g><g class="trace scatter trace373b46" style="stroke-miterlimit: 2; opacity: 1;"><g class="fills"/><g class="errorbars"/><g class="lines"><path class="js-line" d="M0,280.23L4.87,191.02L9.74,154.38L14.62,167.25L19.49,161.79L24.36,129.95L29.23,151.98L34.11,169.43L38.98,181.42L43.85,151.98L48.72,159.61L53.6,134.53L58.47,132.13L63.34,161.79L68.21,161.79L73.09,132.13L77.96,186L82.83,144.34L87.7,132.13L92.58,156.78L97.45,146.74L102.32,151.98L107.19,139.55L112.07,164.19L116.94,154.38L121.81,154.38L126.68,164.19L131.56,171.61L136.43,147.62L141.3,135.84L146.17,145.65L151.05,105.96L155.92,125.8L160.79,124.5L165.66,136.93L170.54,102.25L175.41,90.25L180.28,102.25L185.15,120.13L194.9,80.22L199.77,112.28L204.64,115.99L209.52,96.14L214.39,145.65L219.26,145.65L224.13,117.95L229.01,135.84L233.88,164.19L238.75,147.62L243.62,149.8L248.5,157.43L253.37,155.47L258.24,147.62L263.11,171.61L267.99,124.5L272.86,59.93L277.73,120.13L282.6,120.13L287.48,129.95L292.35,127.99L297.22,127.99L302.09,129.95L306.97,110.1L311.84,112.28L316.71,137.8L321.58,153.5L326.46,143.69L331.33,192.77L336.2,124.06L341.07,105.96L345.95,98.1L350.82,96.14L355.69,114.03L360.56,114.03L365.44,94.18L370.31,117.95L375.18,155.47L380.05,165.28L384.93,155.47L389.8,182.95L394.67,105.96L399.54,115.99L404.42,98.1L409.29,117.95L414.16,157.43L419.03,108.14L423.91,96.14L428.78,96.14L433.65,104.65L438.52,62.11L443.4,86.98L448.27,47.72L453.14,72.15L458.01,110.1L462.89,122.31L467.76,78.04L472.63,97.01L477.5,117.08L482.38,154.81L487.25,122.1L492.12,124.5L496.99,149.36L501.87,146.74L506.74,134.53L511.61,133.87L516.48,96.14L521.36,124.5L531.1,90.25L535.97,88.07L540.85,68L545.72,96.14L550.59,108.14L555.46,157.43L560.34,120.13L565.21,164.19L570.08,164.19L574.95,144.34L579.83,164.19L584.7,164.19L589.57,110.1L594.44,125.8L599.32,167.25L604.19,137.8L609.06,114.68L613.93,124.5L618.81,151.98L623.68,112.28L628.55,102.25L633.42,110.1L643.17,129.95L648.04,164.19L652.91,169.43L657.79,149.8L662.66,124.5L667.53,142.16L672.4,112.28L677.28,149.8L682.15,134.53L687.02,127.11L691.89,102.25L696.77,114.68L701.64,129.95L706.51,135.84L711.38,184.91L716.26,117.95L721.13,135.84L726,135.84" style="vector-effect: none; fill: none; stroke: rgb(128, 128, 128); stroke-opacity: 1; stroke-width: 2px; opacity: 1;"/></g><g class="points"/><g class="text"/></g></g></g><g class="overplot"/><path class="xlines-above crisp" d="M0,0" style="fill: none;"/><path class="ylines-above crisp" d="M0,0" style="fill: none;"/><g class="overlines-above"/><g class="xaxislayer-above"><g class="xtick"><text text-anchor="middle" x="0" y="509" transform="translate(235.57999999999998,0)" style="font-family: 'Open Sans', verdana, arial, sans-serif; font-size: 12px; fill: rgb(42, 63, 95); fill-opacity: 1; white-space: pre; opacity: 1;">20</text></g><g class="xtick"><text text-anchor="middle" x="0" y="509" style="font-family: 'Open Sans', verdana, arial, sans-serif; font-size: 12px; fill: rgb(42, 63, 95); fill-opacity: 1; white-space: pre; opacity: 1;" transform="translate(333.03,0)">40</text></g><g class="xtick"><text text-anchor="middle" x="0" y="509" style="font-family: 'Open Sans', verdana, arial, sans-serif; font-size: 12px; fill: rgb(42, 63, 95); fill-opacity: 1; white-space: pre; opacity: 1;" transform="translate(430.48,0)">60</text></g><g class="xtick"><text text-anchor="middle" x="0" y="509" style="font-family: 'Open Sans', verdana, arial, sans-serif; font-size: 12px; fill: rgb(42, 63, 95); fill-opacity: 1; white-space: pre; opacity: 1;" transform="translate(527.9300000000001,0)">80</text></g><g class="xtick"><text text-anchor="middle" x="0" y="509" style="font-family: 'Open Sans', verdana, arial, sans-serif; font-size: 12px; fill: rgb(42, 63, 95); fill-opacity: 1; white-space: pre; opacity: 1;" transform="translate(625.38,0)">100</text></g><g class="xtick"><text text-anchor="middle" x="0" y="509" style="font-family: 'Open Sans', verdana, arial, sans-serif; font-size: 12px; fill: rgb(42, 63, 95); fill-opacity: 1; white-space: pre; opacity: 1;" transform="translate(722.83,0)">120</text></g><g class="xtick"><text text-anchor="middle" x="0" y="509" style="font-family: 'Open Sans', verdana, arial, sans-serif; font-size: 12px; fill: rgb(42, 63, 95); fill-opacity: 1; white-space: pre; opacity: 1;" transform="translate(820.28,0)">140</text></g></g><g class="yaxislayer-above"><g class="ytick"><text text-anchor="end" x="142" y="4.199999999999999" transform="translate(0,456.35)" style="font-family: 'Open Sans', verdana, arial, sans-serif; font-size: 12px; fill: rgb(42, 63, 95); fill-opacity: 1; white-space: pre; opacity: 1;">70</text></g><g class="ytick"><text text-anchor="end" x="142" y="4.199999999999999" style="font-family: 'Open Sans', verdana, arial, sans-serif; font-size: 12px; fill: rgb(42, 63, 95); fill-opacity: 1; white-space: pre; opacity: 1;" transform="translate(0,412.73)">72</text></g><g class="ytick"><text text-anchor="end" x="142" y="4.199999999999999" style="font-family: 'Open Sans', verdana, arial, sans-serif; font-size: 12px; fill: rgb(42, 63, 95); fill-opacity: 1; white-space: pre; opacity: 1;" transform="translate(0,369.11)">74</text></g><g class="ytick"><text text-anchor="end" x="142" y="4.199999999999999" style="font-family: 'Open Sans', verdana, arial, sans-serif; font-size: 12px; fill: rgb(42, 63, 95); fill-opacity: 1; white-space: pre; opacity: 1;" transform="translate(0,325.48)">76</text></g><g class="ytick"><text text-anchor="end" x="142" y="4.199999999999999" style="font-family: 'Open Sans', verdana, arial, sans-serif; font-size: 12px; fill: rgb(42, 63, 95); fill-opacity: 1; white-space: pre; opacity: 1;" transform="translate(0,281.86)">78</text></g><g class="ytick"><text text-anchor="end" x="142" y="4.199999999999999" style="font-family: 'Open Sans', verdana, arial, sans-serif; font-size: 12px; fill: rgb(42, 63, 95); fill-opacity: 1; white-space: pre; opacity: 1;" transform="translate(0,238.24)">80</text></g><g class="ytick"><text text-anchor="end" x="142" y="4.199999999999999" style="font-family: 'Open Sans', verdana, arial, sans-serif; font-size: 12px; fill: rgb(42, 63, 95); fill-opacity: 1; white-space: pre; opacity: 1;" transform="translate(0,194.61)">82</text></g><g class="ytick"><text text-anchor="end" x="142" y="4.199999999999999" style="font-family: 'Open Sans', verdana, arial, sans-serif; font-size: 12px; fill: rgb(42, 63, 95); fill-opacity: 1; white-space: pre; opacity: 1;" transform="translate(0,150.99)">84</text></g><g class="ytick"><text text-anchor="end" x="142" y="4.199999999999999" style="font-family: 'Open Sans', verdana, arial, sans-serif; font-size: 12px; fill: rgb(42, 63, 95); fill-opacity: 1; white-space: pre; opacity: 1;" transform="translate(0,107.37)">86</text></g></g><g class="overaxes-above"/></g></g><g class="polarlayer"/><g class="smithlayer"/><g class="ternarylayer"/><g class="geolayer"/><g class="funnelarealayer"/><g class="pielayer"/><g class="iciclelayer"/><g class="treemaplayer"/><g class="sunburstlayer"/><g class="glimages"/><defs id="topdefs-345236"><g class="clips"/><clipPath id="legend345236"><rect width="128" height="162" x="0" y="0"/></clipPath></defs><g class="layer-above"><g class="imagelayer"/><g class="shapelayer"/></g><g class="infolayer"><g class="legend" pointer-events="all" transform="translate(883.52,100)"><rect class="bg" shape-rendering="crispEdges" width="128" height="162" x="0" y="0" style="stroke: rgb(68, 68, 68); stroke-opacity: 1; fill: rgb(255, 255, 255); fill-opacity: 1; stroke-width: 0px;"/><g class="scrollbox" transform="" clip-path="url(#legend345236)"><g class="groups"><g class="traces" transform="translate(0,14.5)" style="opacity: 1;"><text class="legendtext" text-anchor="start" x="40" y="4.680000000000001" style="font-family: 'Open Sans', verdana, arial, sans-serif; font-size: 12px; fill: rgb(42, 63, 95); fill-opacity: 1; white-space: pre;">Train Accuracy</text><g class="layers" style="opacity: 1;"><g class="legendfill"/><g class="legendlines"><path class="js-line" d="M5,0h30" style="fill: none; stroke: rgb(255, 0, 0); stroke-opacity: 1; stroke-width: 2px;"/></g><g class="legendsymbols"><g class="legendpoints"/></g></g><rect class="legendtoggle" x="0" y="-9.5" width="122.71875" height="19" style="fill: rgb(0, 0, 0); fill-opacity: 0;"/></g><g class="traces" transform="translate(0,33.5)" style="opacity: 1;"><text class="legendtext" text-anchor="start" x="40" y="4.680000000000001" style="font-family: 'Open Sans', verdana, arial, sans-serif; font-size: 12px; fill: rgb(42, 63, 95); fill-opacity: 1; white-space: pre;">Test Accuracy</text><g class="layers" style="opacity: 1;"><g class="legendfill"/><g class="legendlines"><path class="js-line" d="M5,0h30" style="fill: none; stroke: rgb(0, 0, 255); stroke-opacity: 1; stroke-width: 2px;"/></g><g class="legendsymbols"><g class="legendpoints"/></g></g><rect class="legendtoggle" x="0" y="-9.5" width="122.71875" height="19" style="fill: rgb(0, 0, 0); fill-opacity: 0;"/></g><g class="traces" transform="translate(0,52.5)" style="opacity: 1;"><text class="legendtext" text-anchor="start" x="40" y="4.680000000000001" style="font-family: 'Open Sans', verdana, arial, sans-serif; font-size: 12px; fill: rgb(42, 63, 95); fill-opacity: 1; white-space: pre;">Train Precision</text><g class="layers" style="opacity: 1;"><g class="legendfill"/><g class="legendlines"><path class="js-line" d="M5,0h30" style="fill: none; stroke: rgb(0, 128, 0); stroke-opacity: 1; stroke-width: 2px;"/></g><g class="legendsymbols"><g class="legendpoints"/></g></g><rect class="legendtoggle" x="0" y="-9.5" width="122.71875" height="19" style="fill: rgb(0, 0, 0); fill-opacity: 0;"/></g><g class="traces" transform="translate(0,71.5)" style="opacity: 1;"><text class="legendtext" text-anchor="start" x="40" y="4.680000000000001" style="font-family: 'Open Sans', verdana, arial, sans-serif; font-size: 12px; fill: rgb(42, 63, 95); fill-opacity: 1; white-space: pre;">Test Precision</text><g class="layers" style="opacity: 1;"><g class="legendfill"/><g class="legendlines"><path class="js-line" d="M5,0h30" style="fill: none; stroke: rgb(255, 165, 0); stroke-opacity: 1; stroke-width: 2px;"/></g><g class="legendsymbols"><g class="legendpoints"/></g></g><rect class="legendtoggle" x="0" y="-9.5" width="122.71875" height="19" style="fill: rgb(0, 0, 0); fill-opacity: 0;"/></g><g class="traces" transform="translate(0,90.5)" style="opacity: 1;"><text class="legendtext" text-anchor="start" x="40" y="4.680000000000001" style="font-family: 'Open Sans', verdana, arial, sans-serif; font-size: 12px; fill: rgb(42, 63, 95); fill-opacity: 1; white-space: pre;">Train Recall</text><g class="layers" style="opacity: 1;"><g class="legendfill"/><g class="legendlines"><path class="js-line" d="M5,0h30" style="fill: none; stroke: rgb(128, 0, 128); stroke-opacity: 1; stroke-width: 2px;"/></g><g class="legendsymbols"><g class="legendpoints"/></g></g><rect class="legendtoggle" x="0" y="-9.5" width="122.71875" height="19" style="fill: rgb(0, 0, 0); fill-opacity: 0;"/></g><g class="traces" transform="translate(0,109.5)" style="opacity: 1;"><text class="legendtext" text-anchor="start" x="40" y="4.680000000000001" style="font-family: 'Open Sans', verdana, arial, sans-serif; font-size: 12px; fill: rgb(42, 63, 95); fill-opacity: 1; white-space: pre;">Test Recall</text><g class="layers" style="opacity: 1;"><g class="legendfill"/><g class="legendlines"><path class="js-line" d="M5,0h30" style="fill: none; stroke: rgb(255, 192, 203); stroke-opacity: 1; stroke-width: 2px;"/></g><g class="legendsymbols"><g class="legendpoints"/></g></g><rect class="legendtoggle" x="0" y="-9.5" width="122.71875" height="19" style="fill: rgb(0, 0, 0); fill-opacity: 0;"/></g><g class="traces" transform="translate(0,128.5)" style="opacity: 1;"><text class="legendtext" text-anchor="start" x="40" y="4.680000000000001" style="font-family: 'Open Sans', verdana, arial, sans-serif; font-size: 12px; fill: rgb(42, 63, 95); fill-opacity: 1; white-space: pre;">Train F1</text><g class="layers" style="opacity: 1;"><g class="legendfill"/><g class="legendlines"><path class="js-line" d="M5,0h30" style="fill: none; stroke: rgb(165, 42, 42); stroke-opacity: 1; stroke-width: 2px;"/></g><g class="legendsymbols"><g class="legendpoints"/></g></g><rect class="legendtoggle" x="0" y="-9.5" width="122.71875" height="19" style="fill: rgb(0, 0, 0); fill-opacity: 0;"/></g><g class="traces" transform="translate(0,147.5)" style="opacity: 1;"><text class="legendtext" text-anchor="start" x="40" y="4.680000000000001" style="font-family: 'Open Sans', verdana, arial, sans-serif; font-size: 12px; fill: rgb(42, 63, 95); fill-opacity: 1; white-space: pre;">Test F1</text><g class="layers" style="opacity: 1;"><g class="legendfill"/><g class="legendlines"><path class="js-line" d="M5,0h30" style="fill: none; stroke: rgb(128, 128, 128); stroke-opacity: 1; stroke-width: 2px;"/></g><g class="legendsymbols"><g class="legendpoints"/></g></g><rect class="legendtoggle" x="0" y="-9.5" width="122.71875" height="19" style="fill: rgb(0, 0, 0); fill-opacity: 0;"/></g></g></g><rect class="scrollbar" rx="20" ry="3" width="0" height="0" x="0" y="0" style="fill: rgb(128, 139, 164); fill-opacity: 1;"/></g><g class="g-gtitle"><text class="gtitle" x="51.2" y="50" text-anchor="start" dy="0em" style="font-family: 'Open Sans', verdana, arial, sans-serif; font-size: 17px; fill: rgb(42, 63, 95); opacity: 1; font-weight: normal; white-space: pre;">Training Metrics - logs/FakeNewsNet-politifact_max-vocab=15000_pre=v2_domain_T=50_s=5.log</text></g><g class="g-xtitle"><text class="xtitle" x="506" y="537.3" text-anchor="middle" style="font-family: 'Open Sans', verdana, arial, sans-serif; font-size: 14px; fill: rgb(42, 63, 95); opacity: 1; font-weight: normal; white-space: pre;">Epoch</text></g><g class="g-ytitle"><text class="ytitle" transform="rotate(-90,103.965625,298)" x="103.965625" y="298" text-anchor="middle" style="font-family: 'Open Sans', verdana, arial, sans-serif; font-size: 14px; fill: rgb(42, 63, 95); opacity: 1; font-weight: normal; white-space: pre;">Metric Score</text></g></g><g class="menulayer"><g class="updatemenu-container" style="cursor: pointer;"><g class="updatemenu-header-group" transform="translate(12,60)"><g class="updatemenu-header" transform="translate(1,1)" style="pointer-events: all;"><rect class="updatemenu-item-rect" rx="2" ry="2" shape-rendering="crispEdges" x="0" y="0" width="167" height="33" style="stroke: rgb(190, 200, 217); stroke-opacity: 1; fill: rgb(255, 255, 255); fill-opacity: 1; stroke-width: 1px;"/><text class="updatemenu-item-text" text-anchor="start" data-notex="1" x="12" y="19.5" style="font-family: 'Open Sans', verdana, arial, sans-serif; font-size: 12px; fill: rgb(42, 63, 95); fill-opacity: 1; white-space: pre;">All</text></g><text class="updatemenu-header-arrow" text-anchor="end" x="163" y="19.5" style="font-family: 'Open Sans', verdana, arial, sans-serif; font-size: 12px; fill: rgb(42, 63, 95); fill-opacity: 1;">▼</text></g><g class="updatemenu-dropdown-button-group" updatemenu-active-index="-1" style="pointer-events: all;"><rect class="scrollbox-bg" opacity="0" x="0" y="0" width="0" height="0" style="pointer-events: all;"/></g></g></g></svg>