<svg class="main-svg" xmlns="http://www.w3.org/2000/svg" xmlns:xlink="http://www.w3.org/1999/xlink" width="1024" height="576" style="" viewBox="0 0 1024 576"><rect x="0" y="0" width="1024" height="576" style="fill: rgb(255, 255, 255); fill-opacity: 1;"/><defs id="defs-9badca"><g class="clips"><clipPath id="clip9badcaxyplot" class="plotclip"><rect width="726" height="396"/></clipPath><clipPath class="axesclip" id="clip9badcax"><rect x="143" y="0" width="726" height="576"/></clipPath><clipPath class="axesclip" id="clip9badcay"><rect x="0" y="100" width="1024" height="396"/></clipPath><clipPath class="axesclip" id="clip9badcaxy"><rect x="143" y="100" width="726" height="396"/></clipPath></g><g class="gradients"/><g class="patterns"/></defs><g class="bglayer"><rect class="bg" x="143" y="100" width="726" height="396" style="fill: rgb(229, 236, 246); fill-opacity: 1; stroke-width: 0;"/></g><g class="layer-below"><g class="imagelayer"/><g class="shapelayer"/></g><g class="cartesianlayer"><g class="subplot xy"><g class="layer-subplot"><g class="shapelayer"/><g class="imagelayer"/></g><g class="minor-gridlayer"><g class="x"/><g class="y"/></g><g class="gridlayer"><g class="x"><path class="xgrid crisp" transform="translate(209,0)" d="M0,100v396" style="stroke: rgb(255, 255, 255); stroke-opacity: 1; stroke-width: 1px;"/><path class="xgrid crisp" transform="translate(282.33000000000004,0)" d="M0,100v396" style="stroke: rgb(255, 255, 255); stroke-opacity: 1; stroke-width: 1px;"/><path class="xgrid crisp" transform="translate(355.66999999999996,0)" d="M0,100v396" style="stroke: rgb(255, 255, 255); stroke-opacity: 1; stroke-width: 1px;"/><path class="xgrid crisp" transform="translate(429,0)" d="M0,100v396" style="stroke: rgb(255, 255, 255); stroke-opacity: 1; stroke-width: 1px;"/><path class="xgrid crisp" transform="translate(502.33,0)" d="M0,100v396" style="stroke: rgb(255, 255, 255); stroke-opacity: 1; stroke-width: 1px;"/><path class="xgrid crisp" transform="translate(575.6700000000001,0)" d="M0,100v396" style="stroke: rgb(255, 255, 255); stroke-opacity: 1; stroke-width: 1px;"/><path class="xgrid crisp" transform="translate(649,0)" d="M0,100v396" style="stroke: rgb(255, 255, 255); stroke-opacity: 1; stroke-width: 1px;"/><path class="xgrid crisp" transform="translate(722.33,0)" d="M0,100v396" style="stroke: rgb(255, 255, 255); stroke-opacity: 1; stroke-width: 1px;"/><path class="xgrid crisp" transform="translate(795.67,0)" d="M0,100v396" style="stroke: rgb(255, 255, 255); stroke-opacity: 1; stroke-width: 1px;"/></g><g class="y"><path class="ygrid crisp" transform="translate(0,491.73)" d="M143,0h726" style="stroke: rgb(255, 255, 255); stroke-opacity: 1; stroke-width: 1px;"/><path class="ygrid crisp" transform="translate(0,437.81)" d="M143,0h726" style="stroke: rgb(255, 255, 255); stroke-opacity: 1; stroke-width: 1px;"/><path class="ygrid crisp" transform="translate(0,383.89)" d="M143,0h726" style="stroke: rgb(255, 255, 255); stroke-opacity: 1; stroke-width: 1px;"/><path class="ygrid crisp" transform="translate(0,329.97)" d="M143,0h726" style="stroke: rgb(255, 255, 255); stroke-opacity: 1; stroke-width: 1px;"/><path class="ygrid crisp" transform="translate(0,276.06)" d="M143,0h726" style="stroke: rgb(255, 255, 255); stroke-opacity: 1; stroke-width: 1px;"/><path class="ygrid crisp" transform="translate(0,222.14)" d="M143,0h726" style="stroke: rgb(255, 255, 255); stroke-opacity: 1; stroke-width: 1px;"/><path class="ygrid crisp" transform="translate(0,168.22)" d="M143,0h726" style="stroke: rgb(255, 255, 255); stroke-opacity: 1; stroke-width: 1px;"/><path class="ygrid crisp" transform="translate(0,114.3)" d="M143,0h726" style="stroke: rgb(255, 255, 255); stroke-opacity: 1; stroke-width: 1px;"/></g></g><g class="zerolinelayer"/><path class="xlines-below"/><path class="ylines-below"/><g class="overlines-below"/><g class="xaxislayer-below"/><g class="yaxislayer-below"/><g class="overaxes-below"/><g class="plot" transform="translate(143,100)" clip-path="url(#clip9badcaxyplot)"><g class="scatterlayer mlayer"><g class="trace scatter tracec5f72a" style="stroke-miterlimit: 2; opacity: 1;"><g class="fills"/><g class="errorbars"/><g class="lines"><path class="js-line" d="M0,115.34L7.33,360.24L14.67,66.06L22,57.43L29.33,69.94L36.67,62.4L44,68.87L51.33,66.06L58.67,56.57L66,66.06L73.33,54.31L88,42.66L95.33,44.39L102.67,40.83L110,39.75L117.33,40.83L124.67,41.15L132,36.62L139.33,35.22L146.67,34.68L154,37.05L161.33,37.49L168.67,35.54L176,41.69L183.33,35.33L190.67,37.49L198,36.19L205.33,28.86L212.67,30.26L220,24.11L227.33,19.8L234.67,25.52L242,20.66L249.33,24.76L256.67,23.04L264,22.5L271.33,20.99L278.67,21.09L286,35.44L293.33,33.5L300.67,33.06L308,33.5L315.33,34.79L322.67,32.31L330,33.28L337.33,34.14L344.67,32.85L352,33.28L359.33,31.55L366.67,34.03L374,38.35L381.33,44.39L388.67,38.67L396,38.46L403.33,40.07L410.67,41.26L418,33.6L425.33,42.01L432.67,42.66L440,38.46L447.33,38.67L454.67,40.18L462,31.99L476.67,33.71L484,34.36L491.33,24.65L498.67,23.68L506,22.71L513.33,24.11L520.67,20.66L528,24.87L535.33,23.9L542.67,22.17L550,22.28L557.33,24.01L564.67,29.83L572,31.12L579.33,29.61L586.67,29.18L594,28.64L601.33,29.29L608.67,34.14L616,28.32L623.33,31.02L630.67,40.61L638,38.13L645.33,33.93L652.67,28.53L660,27.24L667.33,25.41L674.67,27.78L689.33,28.75L696.67,30.48L704,22.93L711.33,23.79L718.67,27.46L726,29.29" style="vector-effect: none; fill: none; stroke: rgb(255, 0, 0); stroke-opacity: 1; stroke-width: 2px; opacity: 1;"/></g><g class="points"/><g class="text"/></g><g class="trace scatter trace4b1d5c" style="stroke-miterlimit: 2; opacity: 1;"><g class="fills"/><g class="errorbars"/><g class="lines"><path class="js-line" d="M0,138.31L7.33,375.55L14.67,80.19L22,72.1L29.33,82.13L36.67,69.4L44,76.74L51.33,69.19L58.67,69.4L66,82.13L73.33,64.12L88,53.34L95.33,57.76L102.67,51.94L110,50.21L117.33,46.33L124.67,51.61L132,47.08L139.33,44.82L154,47.51L161.33,49.99L168.67,50.96L176,54.63L183.33,48.27L190.67,47.73L198,46.54L205.33,43.09L212.67,43.85L220,32.2L227.33,27.56L234.67,36.51L242,31.66L249.33,36.84L256.67,38.99L264,33.39L271.33,31.66L278.67,30.91L286,49.24L293.33,45.57L300.67,45.79L308,45.03L315.33,45.57L322.67,44.39L330,49.46L337.33,48.27L344.67,50.96L352,47.51L359.33,45.03L366.67,50.64L374,57.97L381.33,59.16L388.67,48.48L396,48.05L403.33,50.43L410.67,55.6L418,46.76L425.33,56.03L432.67,57.22L440,54.09L454.67,52.37L462,43.09L469.33,44.82L476.67,41.91L484,42.66L491.33,34.9L498.67,35.87L506,28L513.33,30.69L520.67,29.94L528,33.93L535.33,32.96L542.67,30.69L550,29.29L557.33,39.75L564.67,47.08L572,37.27L579.33,38.46L586.67,40.72L594,40.94L601.33,37.81L608.67,42.88L616,38.78L623.33,39.97L630.67,51.61L638,48.7L652.67,38.99L660,38.99L667.33,37.05L674.67,42.66L682,42.66L689.33,43.85L696.67,41.69L704,33.39L711.33,35.11L718.67,40.72L726,40.94" style="vector-effect: none; fill: none; stroke: rgb(0, 0, 255); stroke-opacity: 1; stroke-width: 2px; opacity: 1;"/></g><g class="points"/><g class="text"/></g><g class="trace scatter trace3266fa" style="stroke-miterlimit: 2; opacity: 1;"><g class="fills"/><g class="errorbars"/><g class="lines"><path class="js-line" d="M0,163.87L7.33,218.97L14.67,133.35L22,126.56L29.33,130.87L44,127.96L51.33,129.36L58.67,121.38L66,124.94L73.33,118.79L80.67,117.18L88,113.29L95.33,112.65L102.67,111.57L110,111.25L117.33,111.35L124.67,109.74L132,105.96L139.33,104.56L146.67,103.8L154,105.42L161.33,105.75L168.67,104.02L176,108.66L183.33,104.24L198,104.78L205.33,98.09L212.67,98.84L220,94.42L227.33,91.19L234.67,95.93L242,91.4L249.33,94.21L256.67,92.81L264,92.91L278.67,93.02L286,102.19L293.33,100.89L300.67,100.79L308,100.35L315.33,102.4L322.67,99.81L330,100.46L337.33,101.22L344.67,99.38L352,99.71L359.33,97.55L366.67,100.46L374,101.11L381.33,104.99L388.67,103.48L403.33,104.45L410.67,103.37L418,100.03L425.33,103.37L432.67,103.27L440,101L447.33,101L454.67,102.3L462,98.41L469.33,98.41L476.67,100.79L484,100.14L491.33,93.02L498.67,91.73L506,91.51L513.33,92.37L520.67,89.57L528,92.48L535.33,92.27L542.67,90.76L557.33,91.62L564.67,94.96L572,98.31L579.33,96.47L586.67,95.18L594,94.75L601.33,96.26L608.67,100.57L616,96.04L623.33,97.98L630.67,104.13L638,101.43L645.33,98.74L652.67,94.64L667.33,93.34L674.67,93.99L682,94.75L689.33,94.64L696.67,95.82L704,89.46L711.33,90.22L718.67,93.45L726,94.64" style="vector-effect: none; fill: none; stroke: rgb(0, 128, 0); stroke-opacity: 1; stroke-width: 2px; opacity: 1;"/></g><g class="points"/><g class="text"/></g><g class="trace scatter trace90a2dc" style="stroke-miterlimit: 2; opacity: 1;"><g class="fills"/><g class="errorbars"/><g class="lines"><path class="js-line" d="M0,180.48L7.33,225.88L14.67,144.35L22,139.18L29.33,140.58L36.67,134.54L44,133.57L51.33,131.73L58.67,132.81L66,137.56L73.33,127.1L88,122.35L95.33,123.22L102.67,120.84L110,120.2L117.33,115.56L124.67,119.76L132,115.99L139.33,113.4L146.67,112.65L154,113.51L161.33,116.42L168.67,116.75L176,121.27L183.33,116.85L190.67,112.97L198,113.19L205.33,109.95L212.67,110.17L220,100.79L227.33,98.09L234.67,106.61L242,102.08L249.33,105.31L256.67,107.36L264,101.76L271.33,102.3L278.67,101.43L286,113.08L293.33,110.92L300.67,111.35L308,109.95L315.33,110.49L322.67,109.3L330,113.51L337.33,112.22L344.67,114.26L352,110.27L359.33,108.55L366.67,114.48L374,117.18L381.33,116.42L388.67,109.52L403.33,110.81L410.67,113.19L418,110.81L425.33,113.83L432.67,114.26L440,113.29L454.67,112.86L462,108.55L469.33,109.2L476.67,107.69L484,107.26L491.33,101.43L498.67,103.48L506,96.69L513.33,98.52L520.67,97.23L528,100.25L535.33,99.49L542.67,97.33L550,96.36L557.33,106.5L564.67,110.27L572,101.54L579.33,103.7L586.67,105.31L594,105.31L601.33,103.37L608.67,107.69L616,105.31L623.33,105.31L630.67,113.51L638,109.95L652.67,103.37L660,103.8L667.33,103.8L674.67,107.15L682,107.15L689.33,108.44L696.67,106.28L704,99.28L711.33,100.68L718.67,104.78L726,104.02" style="vector-effect: none; fill: none; stroke: rgb(255, 165, 0); stroke-opacity: 1; stroke-width: 2px; opacity: 1;"/></g><g class="points"/><g class="text"/></g><g class="trace scatter tracee4ea23" style="stroke-miterlimit: 2; opacity: 1;"><g class="fills"/><g class="errorbars"/><g class="lines"><path class="js-line" d="M0,108.87L7.33,204.74L14.67,84.83L22,79.54L29.33,75.44L36.67,79.65L44,70.27L51.33,75.98L58.67,68.33L73.33,65.2L80.67,68.76L88,68.11L95.33,63.69L102.67,66.49L110,67.57L117.33,66.06L124.67,61.21L132,58.73L139.33,57.43L146.67,56.14L154,56.46L161.33,56.68L168.67,55.17L176,57.33L183.33,56.14L190.67,54.09L198,56.14L205.33,51.18L212.67,50.32L227.33,50.64L234.67,51.61L242,48.59L249.33,47.84L256.67,47.73L264,49.02L271.33,53.55L278.67,53.23L286,50.21L293.33,49.99L300.67,50.53L308,48.59L315.33,52.04L322.67,49.24L330,49.13L337.33,49.89L344.67,46.97L352,46.87L359.33,44.06L366.67,47.84L374,42.88L381.33,44.6L388.67,48.7L396,50.64L403.33,49.02L410.67,44.49L418,47.41L425.33,43.63L432.67,42.34L440,42.45L447.33,42.12L454.67,43.42L462,45.68L469.33,44.82L476.67,49.46L484,46.65L498.67,42.66L506,43.96L513.33,43.63L520.67,42.45L528,42.23L535.33,43.52L542.67,42.77L550,43.09L564.67,40.07L572,46.97L586.67,41.58L594,41.37L608.67,47.95L616,45.9L630.67,47.3L638,44.17L645.33,43.42L652.67,41.15L660,41.91L667.33,43.74L674.67,41.15L682,41.58L689.33,40.83L696.67,41.15L704,36.95L711.33,37.49L718.67,39.86L726,39.86" style="vector-effect: none; fill: none; stroke: rgb(128, 0, 128); stroke-opacity: 1; stroke-width: 2px; opacity: 1;"/></g><g class="points"/><g class="text"/></g><g class="trace scatter trace38e3ec" style="stroke-miterlimit: 2; opacity: 1;"><g class="fills"/><g class="errorbars"/><g class="lines"><path class="js-line" d="M0,128.61L7.33,216.28L14.67,95.18L22,91.94L29.33,85.69L36.67,84.61L44,75.98L58.67,80.84L66,79.86L73.33,73.83L80.67,73.93L88,75.77L95.33,72.1L102.67,74.15L110,75.01L117.33,69.08L124.67,71.89L132,69.19L139.33,65.63L146.67,61.96L154,61.96L161.33,65.95L168.67,65.2L176,71.35L183.33,69.3L190.67,60.35L198,62.61L205.33,59.38L212.67,58.84L220,53.23L227.33,54.95L234.67,61.64L242,58.08L249.33,57.65L256.67,59.38L264,53.66L271.33,58.73L278.67,57.87L286,58.51L293.33,58.19L300.67,59.05L308,56.46L315.33,57.22L322.67,56.03L330,59.38L337.33,57.87L344.67,59.38L352,53.98L359.33,53.01L366.67,60.24L374,58.08L381.33,55.17L388.67,51.18L396,53.66L403.33,51.72L410.67,51.72L418,56.25L425.33,52.69L432.67,52.47L447.33,54.42L454.67,54.42L462,55.93L469.33,54.95L476.67,55.49L484,53.23L491.33,50.1L498.67,54.2L506,49.46L513.33,49.46L520.67,47.3L528,48.48L535.33,48.16L542.67,46L550,46.11L557.33,55.71L564.67,54.74L572,46.54L579.33,50.1L586.67,51.18L601.33,50.64L608.67,53.98L616,54.09L623.33,52.15L630.67,56.68L638,51.72L652.67,48.7L660,49.78L667.33,52.91L674.67,52.8L682,52.8L689.33,54.31L696.67,52.15L704,46.76L711.33,47.51L718.67,49.78L726,47.62" style="vector-effect: none; fill: none; stroke: rgb(255, 192, 203); stroke-opacity: 1; stroke-width: 2px; opacity: 1;"/></g><g class="points"/><g class="text"/></g><g class="trace scatter trace80de87" style="stroke-miterlimit: 2; opacity: 1;"><g class="fills"/><g class="errorbars"/><g class="lines"><path class="js-line" d="M0,162.04L7.33,361.43L14.67,121.71L22,114.05L29.33,120.3L36.67,117.18L44,117.61L51.33,118.15L58.67,108.87L66,114.37L73.33,106.07L80.67,103.91L88,99.6L110,97.55L117.33,97.66L124.67,95.72L132,91.73L146.67,89.35L154,91.08L161.33,91.51L168.67,89.57L176,94.64L183.33,89.79L198,90.43L205.33,83.32L212.67,83.96L220,79.76L227.33,76.85L234.67,81.27L242,76.74L249.33,79.33L256.67,77.92L264,78.14L271.33,79L278.67,78.89L286,87.52L293.33,86.12L308,85.58L315.33,87.84L322.67,85.04L330,85.69L337.33,86.55L344.67,84.5L352,84.83L359.33,82.45L366.67,85.58L374,86.77L381.33,91.62L388.67,89.14L403.33,90.22L410.67,89.35L418,85.15L425.33,89.57L432.67,89.57L440,86.66L447.33,86.66L454.67,88.28L462,83.42L469.33,83.42L476.67,86.12L484,85.36L491.33,77.82L498.67,76.41L506,76.2L513.33,77.17L520.67,74.26L528,77.06L535.33,76.95L542.67,75.34L557.33,76.2L564.67,79.76L572,83.32L579.33,81.37L586.67,79.86L594,79.43L601.33,81.16L608.67,85.8L616,80.94L623.33,82.99L630.67,90L638,86.98L645.33,83.85L652.67,79.33L667.33,78.03L674.67,78.68L682,79.54L689.33,79.33L696.67,80.62L704,73.72L711.33,74.47L718.67,78.03L726,79.33" style="vector-effect: none; fill: none; stroke: rgb(165, 42, 42); stroke-opacity: 1; stroke-width: 2px; opacity: 1;"/></g><g class="points"/><g class="text"/></g><g class="trace scatter tracef5f853" style="stroke-miterlimit: 2; opacity: 1;"><g class="fills"/><g class="errorbars"/><g class="lines"><path class="js-line" d="M0,183.39L7.33,376.2L14.67,134.54L22,128.18L29.33,131.95L36.67,123.43L44,124.73L51.33,120.84L58.67,121.92L66,129.69L73.33,115.67L88,109.52L95.33,110.81L102.67,107.9L110,107.15L117.33,102.08L124.67,106.82L132,102.62L139.33,99.71L146.67,99.06L154,100.03L161.33,103.27L168.67,103.59L176,108.44L183.33,103.48L190.67,99.6L198,99.71L205.33,96.04L212.67,96.36L220,86.23L227.33,83.75L234.67,92.59L242,87.84L249.33,91.08L256.67,93.34L264,87.2L271.33,88.17L278.67,87.31L286,99.81L293.33,97.23L300.67,97.77L308,96.26L315.33,96.8L322.67,95.61L330,100.35L337.33,98.95L344.67,101.32L352,96.9L359.33,94.96L366.67,101.43L374,105.53L381.33,105.21L388.67,96.47L403.33,98.09L410.67,101.54L418,97.33L425.33,102.19L432.67,102.94L440,101.22L454.67,100.35L462,94.75L469.33,95.5L476.67,93.67L484,93.34L491.33,86.77L498.67,89.03L506,81.81L513.33,83.75L520.67,82.35L528,85.47L535.33,84.72L542.67,82.35L550,81.37L557.33,92.37L564.67,96.9L572,87.09L579.33,89.25L586.67,91.19L594,91.19L601.33,89.03L608.67,93.78L616,90.97L623.33,91.08L630.67,100.79L638,96.9L652.67,89.14L660,89.46L667.33,89.35L674.67,93.13L682,93.13L689.33,94.53L696.67,92.27L704,84.5L711.33,86.01L718.67,90.65L726,90" style="vector-effect: none; fill: none; stroke: rgb(128, 128, 128); stroke-opacity: 1; stroke-width: 2px; opacity: 1;"/></g><g class="points"/><g class="text"/></g></g></g><g class="overplot"/><path class="xlines-above crisp" d="M0,0" style="fill: none;"/><path class="ylines-above crisp" d="M0,0" style="fill: none;"/><g class="overlines-above"/><g class="xaxislayer-above"><g class="xtick"><text text-anchor="middle" x="0" y="509" transform="translate(209,0)" style="font-family: 'Open Sans', verdana, arial, sans-serif; font-size: 12px; fill: rgb(42, 63, 95); fill-opacity: 1; white-space: pre; opacity: 1;">10</text></g><g class="xtick"><text text-anchor="middle" x="0" y="509" style="font-family: 'Open Sans', verdana, arial, sans-serif; font-size: 12px; fill: rgb(42, 63, 95); fill-opacity: 1; white-space: pre; opacity: 1;" transform="translate(282.33000000000004,0)">20</text></g><g class="xtick"><text text-anchor="middle" x="0" y="509" style="font-family: 'Open Sans', verdana, arial, sans-serif; font-size: 12px; fill: rgb(42, 63, 95); fill-opacity: 1; white-space: pre; opacity: 1;" transform="translate(355.66999999999996,0)">30</text></g><g class="xtick"><text text-anchor="middle" x="0" y="509" style="font-family: 'Open Sans', verdana, arial, sans-serif; font-size: 12px; fill: rgb(42, 63, 95); fill-opacity: 1; white-space: pre; opacity: 1;" transform="translate(429,0)">40</text></g><g class="xtick"><text text-anchor="middle" x="0" y="509" style="font-family: 'Open Sans', verdana, arial, sans-serif; font-size: 12px; fill: rgb(42, 63, 95); fill-opacity: 1; white-space: pre; opacity: 1;" transform="translate(502.33,0)">50</text></g><g class="xtick"><text text-anchor="middle" x="0" y="509" style="font-family: 'Open Sans', verdana, arial, sans-serif; font-size: 12px; fill: rgb(42, 63, 95); fill-opacity: 1; white-space: pre; opacity: 1;" transform="translate(575.6700000000001,0)">60</text></g><g class="xtick"><text text-anchor="middle" x="0" y="509" style="font-family: 'Open Sans', verdana, arial, sans-serif; font-size: 12px; fill: rgb(42, 63, 95); fill-opacity: 1; white-space: pre; opacity: 1;" transform="translate(649,0)">70</text></g><g class="xtick"><text text-anchor="middle" x="0" y="509" style="font-family: 'Open Sans', verdana, arial, sans-serif; font-size: 12px; fill: rgb(42, 63, 95); fill-opacity: 1; white-space: pre; opacity: 1;" transform="translate(722.33,0)">80</text></g><g class="xtick"><text text-anchor="middle" x="0" y="509" style="font-family: 'Open Sans', verdana, arial, sans-serif; font-size: 12px; fill: rgb(42, 63, 95); fill-opacity: 1; white-space: pre; opacity: 1;" transform="translate(795.67,0)">90</text></g><g class="xtick"><text text-anchor="middle" x="0" y="509" style="font-family: 'Open Sans', verdana, arial, sans-serif; font-size: 12px; fill: rgb(42, 63, 95); fill-opacity: 1; white-space: pre; opacity: 1;" transform="translate(869,0)">100</text></g></g><g class="yaxislayer-above"><g class="ytick"><text text-anchor="end" x="142" y="4.199999999999999" transform="translate(0,491.73)" style="font-family: 'Open Sans', verdana, arial, sans-serif; font-size: 12px; fill: rgb(42, 63, 95); fill-opacity: 1; white-space: pre; opacity: 1;">45</text></g><g class="ytick"><text text-anchor="end" x="142" y="4.199999999999999" style="font-family: 'Open Sans', verdana, arial, sans-serif; font-size: 12px; fill: rgb(42, 63, 95); fill-opacity: 1; white-space: pre; opacity: 1;" transform="translate(0,437.81)">50</text></g><g class="ytick"><text text-anchor="end" x="142" y="4.199999999999999" style="font-family: 'Open Sans', verdana, arial, sans-serif; font-size: 12px; fill: rgb(42, 63, 95); fill-opacity: 1; white-space: pre; opacity: 1;" transform="translate(0,383.89)">55</text></g><g class="ytick"><text text-anchor="end" x="142" y="4.199999999999999" style="font-family: 'Open Sans', verdana, arial, sans-serif; font-size: 12px; fill: rgb(42, 63, 95); fill-opacity: 1; white-space: pre; opacity: 1;" transform="translate(0,329.97)">60</text></g><g class="ytick"><text text-anchor="end" x="142" y="4.199999999999999" style="font-family: 'Open Sans', verdana, arial, sans-serif; font-size: 12px; fill: rgb(42, 63, 95); fill-opacity: 1; white-space: pre; opacity: 1;" transform="translate(0,276.06)">65</text></g><g class="ytick"><text text-anchor="end" x="142" y="4.199999999999999" style="font-family: 'Open Sans', verdana, arial, sans-serif; font-size: 12px; fill: rgb(42, 63, 95); fill-opacity: 1; white-space: pre; opacity: 1;" transform="translate(0,222.14)">70</text></g><g class="ytick"><text text-anchor="end" x="142" y="4.199999999999999" style="font-family: 'Open Sans', verdana, arial, sans-serif; font-size: 12px; fill: rgb(42, 63, 95); fill-opacity: 1; white-space: pre; opacity: 1;" transform="translate(0,168.22)">75</text></g><g class="ytick"><text text-anchor="end" x="142" y="4.199999999999999" style="font-family: 'Open Sans', verdana, arial, sans-serif; font-size: 12px; fill: rgb(42, 63, 95); fill-opacity: 1; white-space: pre; opacity: 1;" transform="translate(0,114.3)">80</text></g></g><g class="overaxes-above"/></g></g><g class="polarlayer"/><g class="smithlayer"/><g class="ternarylayer"/><g class="geolayer"/><g class="funnelarealayer"/><g class="pielayer"/><g class="iciclelayer"/><g class="treemaplayer"/><g class="sunburstlayer"/><g class="glimages"/><defs id="topdefs-9badca"><g class="clips"/><clipPath id="legend9badca"><rect width="128" height="162" x="0" y="0"/></clipPath></defs><g class="layer-above"><g class="imagelayer"/><g class="shapelayer"/></g><g class="infolayer"><g class="legend" pointer-events="all" transform="translate(883.52,100)"><rect class="bg" shape-rendering="crispEdges" width="128" height="162" x="0" y="0" style="stroke: rgb(68, 68, 68); stroke-opacity: 1; fill: rgb(255, 255, 255); fill-opacity: 1; stroke-width: 0px;"/><g class="scrollbox" transform="" clip-path="url(#legend9badca)"><g class="groups"><g class="traces" transform="translate(0,14.5)" style="opacity: 1;"><text class="legendtext" text-anchor="start" x="40" y="4.680000000000001" style="font-family: 'Open Sans', verdana, arial, sans-serif; font-size: 12px; fill: rgb(42, 63, 95); fill-opacity: 1; white-space: pre;">Train Accuracy</text><g class="layers" style="opacity: 1;"><g class="legendfill"/><g class="legendlines"><path class="js-line" d="M5,0h30" style="fill: none; stroke: rgb(255, 0, 0); stroke-opacity: 1; stroke-width: 2px;"/></g><g class="legendsymbols"><g class="legendpoints"/></g></g><rect class="legendtoggle" x="0" y="-9.5" width="122.71875" height="19" style="fill: rgb(0, 0, 0); fill-opacity: 0;"/></g><g class="traces" transform="translate(0,33.5)" style="opacity: 1;"><text class="legendtext" text-anchor="start" x="40" y="4.680000000000001" style="font-family: 'Open Sans', verdana, arial, sans-serif; font-size: 12px; fill: rgb(42, 63, 95); fill-opacity: 1; white-space: pre;">Test Accuracy</text><g class="layers" style="opacity: 1;"><g class="legendfill"/><g class="legendlines"><path class="js-line" d="M5,0h30" style="fill: none; stroke: rgb(0, 0, 255); stroke-opacity: 1; stroke-width: 2px;"/></g><g class="legendsymbols"><g class="legendpoints"/></g></g><rect class="legendtoggle" x="0" y="-9.5" width="122.71875" height="19" style="fill: rgb(0, 0, 0); fill-opacity: 0;"/></g><g class="traces" transform="translate(0,52.5)" style="opacity: 1;"><text class="legendtext" text-anchor="start" x="40" y="4.680000000000001" style="font-family: 'Open Sans', verdana, arial, sans-serif; font-size: 12px; fill: rgb(42, 63, 95); fill-opacity: 1; white-space: pre;">Train Precision</text><g class="layers" style="opacity: 1;"><g class="legendfill"/><g class="legendlines"><path class="js-line" d="M5,0h30" style="fill: none; stroke: rgb(0, 128, 0); stroke-opacity: 1; stroke-width: 2px;"/></g><g class="legendsymbols"><g class="legendpoints"/></g></g><rect class="legendtoggle" x="0" y="-9.5" width="122.71875" height="19" style="fill: rgb(0, 0, 0); fill-opacity: 0;"/></g><g class="traces" transform="translate(0,71.5)" style="opacity: 1;"><text class="legendtext" text-anchor="start" x="40" y="4.680000000000001" style="font-family: 'Open Sans', verdana, arial, sans-serif; font-size: 12px; fill: rgb(42, 63, 95); fill-opacity: 1; white-space: pre;">Test Precision</text><g class="layers" style="opacity: 1;"><g class="legendfill"/><g class="legendlines"><path class="js-line" d="M5,0h30" style="fill: none; stroke: rgb(255, 165, 0); stroke-opacity: 1; stroke-width: 2px;"/></g><g class="legendsymbols"><g class="legendpoints"/></g></g><rect class="legendtoggle" x="0" y="-9.5" width="122.71875" height="19" style="fill: rgb(0, 0, 0); fill-opacity: 0;"/></g><g class="traces" transform="translate(0,90.5)" style="opacity: 1;"><text class="legendtext" text-anchor="start" x="40" y="4.680000000000001" style="font-family: 'Open Sans', verdana, arial, sans-serif; font-size: 12px; fill: rgb(42, 63, 95); fill-opacity: 1; white-space: pre;">Train Recall</text><g class="layers" style="opacity: 1;"><g class="legendfill"/><g class="legendlines"><path class="js-line" d="M5,0h30" style="fill: none; stroke: rgb(128, 0, 128); stroke-opacity: 1; stroke-width: 2px;"/></g><g class="legendsymbols"><g class="legendpoints"/></g></g><rect class="legendtoggle" x="0" y="-9.5" width="122.71875" height="19" style="fill: rgb(0, 0, 0); fill-opacity: 0;"/></g><g class="traces" transform="translate(0,109.5)" style="opacity: 1;"><text class="legendtext" text-anchor="start" x="40" y="4.680000000000001" style="font-family: 'Open Sans', verdana, arial, sans-serif; font-size: 12px; fill: rgb(42, 63, 95); fill-opacity: 1; white-space: pre;">Test Recall</text><g class="layers" style="opacity: 1;"><g class="legendfill"/><g class="legendlines"><path class="js-line" d="M5,0h30" style="fill: none; stroke: rgb(255, 192, 203); stroke-opacity: 1; stroke-width: 2px;"/></g><g class="legendsymbols"><g class="legendpoints"/></g></g><rect class="legendtoggle" x="0" y="-9.5" width="122.71875" height="19" style="fill: rgb(0, 0, 0); fill-opacity: 0;"/></g><g class="traces" transform="translate(0,128.5)" style="opacity: 1;"><text class="legendtext" text-anchor="start" x="40" y="4.680000000000001" style="font-family: 'Open Sans', verdana, arial, sans-serif; font-size: 12px; fill: rgb(42, 63, 95); fill-opacity: 1; white-space: pre;">Train F1</text><g class="layers" style="opacity: 1;"><g class="legendfill"/><g class="legendlines"><path class="js-line" d="M5,0h30" style="fill: none; stroke: rgb(165, 42, 42); stroke-opacity: 1; stroke-width: 2px;"/></g><g class="legendsymbols"><g class="legendpoints"/></g></g><rect class="legendtoggle" x="0" y="-9.5" width="122.71875" height="19" style="fill: rgb(0, 0, 0); fill-opacity: 0;"/></g><g class="traces" transform="translate(0,147.5)" style="opacity: 1;"><text class="legendtext" text-anchor="start" x="40" y="4.680000000000001" style="font-family: 'Open Sans', verdana, arial, sans-serif; font-size: 12px; fill: rgb(42, 63, 95); fill-opacity: 1; white-space: pre;">Test F1</text><g class="layers" style="opacity: 1;"><g class="legendfill"/><g class="legendlines"><path class="js-line" d="M5,0h30" style="fill: none; stroke: rgb(128, 128, 128); stroke-opacity: 1; stroke-width: 2px;"/></g><g class="legendsymbols"><g class="legendpoints"/></g></g><rect class="legendtoggle" x="0" y="-9.5" width="122.71875" height="19" style="fill: rgb(0, 0, 0); fill-opacity: 0;"/></g></g></g><rect class="scrollbar" rx="20" ry="3" width="0" height="0" x="0" y="0" style="fill: rgb(128, 139, 164); fill-opacity: 1;"/></g><g class="g-gtitle"><text class="gtitle" x="51.2" y="50" text-anchor="start" dy="0em" style="font-family: 'Open Sans', verdana, arial, sans-serif; font-size: 17px; fill: rgb(42, 63, 95); opacity: 1; font-weight: normal; white-space: pre;">Training Metrics - logs/FakeNewsNet-gossipcop_text_domain_tweet.log</text></g><g class="g-xtitle"><text class="xtitle" x="506" y="537.3" text-anchor="middle" style="font-family: 'Open Sans', verdana, arial, sans-serif; font-size: 14px; fill: rgb(42, 63, 95); opacity: 1; font-weight: normal; white-space: pre;">Epoch</text></g><g class="g-ytitle"><text class="ytitle" transform="rotate(-90,103.965625,298)" x="103.965625" y="298" text-anchor="middle" style="font-family: 'Open Sans', verdana, arial, sans-serif; font-size: 14px; fill: rgb(42, 63, 95); opacity: 1; font-weight: normal; white-space: pre;">Metric Score</text></g></g><g class="menulayer"><g class="updatemenu-container" style="cursor: pointer;"><g class="updatemenu-header-group" transform="translate(12,60)"><g class="updatemenu-header" transform="translate(1,1)" style="pointer-events: all;"><rect class="updatemenu-item-rect" rx="2" ry="2" shape-rendering="crispEdges" x="0" y="0" width="167" height="33" style="stroke: rgb(190, 200, 217); stroke-opacity: 1; fill: rgb(255, 255, 255); fill-opacity: 1; stroke-width: 1px;"/><text class="updatemenu-item-text" text-anchor="start" data-notex="1" x="12" y="19.5" style="font-family: 'Open Sans', verdana, arial, sans-serif; font-size: 12px; fill: rgb(42, 63, 95); fill-opacity: 1; white-space: pre;">All</text></g><text class="updatemenu-header-arrow" text-anchor="end" x="163" y="19.5" style="font-family: 'Open Sans', verdana, arial, sans-serif; font-size: 12px; fill: rgb(42, 63, 95); fill-opacity: 1;">▼</text></g><g class="updatemenu-dropdown-button-group" updatemenu-active-index="-1" style="pointer-events: all;"><rect class="scrollbox-bg" opacity="0" x="0" y="0" width="0" height="0" style="pointer-events: all;"/></g></g></g></svg>