<svg class="main-svg" xmlns="http://www.w3.org/2000/svg" xmlns:xlink="http://www.w3.org/1999/xlink" width="1024" height="576" style="" viewBox="0 0 1024 576"><rect x="0" y="0" width="1024" height="576" style="fill: rgb(255, 255, 255); fill-opacity: 1;"/><defs id="defs-4be3d2"><g class="clips"><clipPath id="clip4be3d2xyplot" class="plotclip"><rect width="729" height="396"/></clipPath><clipPath class="axesclip" id="clip4be3d2x"><rect x="140" y="0" width="729" height="576"/></clipPath><clipPath class="axesclip" id="clip4be3d2y"><rect x="0" y="100" width="1024" height="396"/></clipPath><clipPath class="axesclip" id="clip4be3d2xy"><rect x="140" y="100" width="729" height="396"/></clipPath></g><g class="gradients"/><g class="patterns"/></defs><g class="bglayer"><rect class="bg" x="140" y="100" width="729" height="396" style="fill: rgb(229, 236, 246); fill-opacity: 1; stroke-width: 0;"/></g><g class="layer-below"><g class="imagelayer"/><g class="shapelayer"/></g><g class="cartesianlayer"><g class="subplot xy"><g class="layer-subplot"><g class="shapelayer"/><g class="imagelayer"/></g><g class="minor-gridlayer"><g class="x"/><g class="y"/></g><g class="gridlayer"><g class="x"><path class="xgrid crisp" transform="translate(232.95999999999998,0)" d="M0,100v396" style="stroke: rgb(255, 255, 255); stroke-opacity: 1; stroke-width: 1px;"/><path class="xgrid crisp" transform="translate(330.81,0)" d="M0,100v396" style="stroke: rgb(255, 255, 255); stroke-opacity: 1; stroke-width: 1px;"/><path class="xgrid crisp" transform="translate(428.66,0)" d="M0,100v396" style="stroke: rgb(255, 255, 255); stroke-opacity: 1; stroke-width: 1px;"/><path class="xgrid crisp" transform="translate(526.52,0)" d="M0,100v396" style="stroke: rgb(255, 255, 255); stroke-opacity: 1; stroke-width: 1px;"/><path class="xgrid crisp" transform="translate(624.37,0)" d="M0,100v396" style="stroke: rgb(255, 255, 255); stroke-opacity: 1; stroke-width: 1px;"/><path class="xgrid crisp" transform="translate(722.22,0)" d="M0,100v396" style="stroke: rgb(255, 255, 255); stroke-opacity: 1; stroke-width: 1px;"/><path class="xgrid crisp" transform="translate(820.07,0)" d="M0,100v396" style="stroke: rgb(255, 255, 255); stroke-opacity: 1; stroke-width: 1px;"/></g><g class="y"><path class="ygrid crisp" transform="translate(0,490.98)" d="M140,0h729" style="stroke: rgb(255, 255, 255); stroke-opacity: 1; stroke-width: 1px;"/><path class="ygrid crisp" transform="translate(0,393.76)" d="M140,0h729" style="stroke: rgb(255, 255, 255); stroke-opacity: 1; stroke-width: 1px;"/><path class="ygrid crisp" transform="translate(0,296.53999999999996)" d="M140,0h729" style="stroke: rgb(255, 255, 255); stroke-opacity: 1; stroke-width: 1px;"/><path class="ygrid crisp" transform="translate(0,199.32)" d="M140,0h729" style="stroke: rgb(255, 255, 255); stroke-opacity: 1; stroke-width: 1px;"/><path class="ygrid crisp" transform="translate(0,102.11)" d="M140,0h729" style="stroke: rgb(255, 255, 255); stroke-opacity: 1; stroke-width: 1px;"/></g></g><g class="zerolinelayer"/><path class="xlines-below"/><path class="ylines-below"/><g class="overlines-below"/><g class="xaxislayer-below"/><g class="yaxislayer-below"/><g class="overaxes-below"/><g class="plot" transform="translate(140,100)" clip-path="url(#clip4be3d2xyplot)"><g class="scatterlayer mlayer"><g class="trace scatter trace70dc0d" style="stroke-miterlimit: 2; opacity: 1;"><g class="fills"/><g class="errorbars"/><g class="lines"><path class="js-line" d="M0,50.13L4.89,51.69L9.79,47.99L14.68,55.96L19.57,61.8L24.46,49.74L29.36,43.91L34.25,41.38L39.14,37.1L44.03,34.97L48.93,34.77L58.71,44.1L63.6,37.69L68.5,39.44L73.39,35.35L78.28,39.63L83.17,39.05L88.07,38.08L92.96,33.6L97.85,35.35L102.74,31.85L107.64,34.38L112.53,34.97L117.42,34.38L122.32,39.05L127.21,38.47L132.1,36.13L136.99,39.83L141.89,31.85L146.78,34.58L151.67,31.85L166.35,44.1L171.24,39.44L176.13,36.33L181.03,38.85L185.92,31.08L190.81,39.24L195.7,34.58L200.6,37.88L205.49,31.47L210.38,36.33L215.28,41.97L220.17,31.47L225.06,34.38L229.95,31.85L234.85,32.24L239.74,70.55L244.63,34.77L249.52,41.77L254.42,136.85L259.31,34.77L264.2,32.44L269.09,34.77L273.99,30.11L278.88,33.6L283.77,77.16L288.66,36.91L293.56,72.69L298.45,35.35L303.34,72.1L308.23,35.16L313.13,39.44L318.02,36.91L322.91,36.52L327.81,43.52L337.59,33.99L342.48,34.77L347.38,31.27L352.27,32.63L357.16,36.52L362.05,33.6L366.95,30.11L371.84,30.3L386.52,33.6L391.41,29.91L396.3,30.3L401.19,31.85L406.09,29.52L410.98,29.52L415.87,29.33L420.77,35.16L425.66,32.83L430.55,32.83L435.44,29.33L440.34,29.72L445.23,29.52L450.12,68.8L455.01,76.19L459.91,40.02L464.8,32.24L469.69,28.94L479.48,30.49L484.37,30.11L489.26,26.41L494.15,29.72L499.05,41.19L503.94,45.27L508.83,38.85L513.72,30.88L518.62,28.16L523.51,32.63L528.4,27.38L533.3,28.16L543.08,29.13L547.97,33.02L552.87,37.88L557.76,31.08L567.54,33.6L572.44,33.02L577.33,30.49L582.22,28.94L587.11,31.27L592.01,29.72L601.79,26.41L606.68,28.16L611.58,34.97L616.47,27.19L621.36,27.77L626.26,32.24L631.15,29.72L636.04,32.63L640.93,24.47L645.83,27.38L650.72,25.63L655.61,31.27L660.5,35.74L665.4,37.49L670.29,33.6L675.18,33.8L680.07,33.6L684.97,25.63L689.86,28.94L694.75,34.38L699.64,30.3L704.54,29.91L709.43,28.94L714.32,31.85L719.21,38.66L724.11,31.85L729,29.72" style="vector-effect: none; fill: none; stroke: rgb(255, 0, 0); stroke-opacity: 1; stroke-width: 2px; opacity: 1;"/></g><g class="points"/><g class="text"/></g><g class="trace scatter tracec186e7" style="stroke-miterlimit: 2; opacity: 1;"><g class="fills"/><g class="errorbars"/><g class="lines"><path class="js-line" d="M0,47.6L4.89,49.35L9.79,48.97L14.68,49.35L19.57,65.3L24.46,50.72L29.36,42.35L34.25,41.97L39.14,35.74L48.93,36.33L53.82,44.1L58.71,38.47L63.6,38.47L68.5,41.97L73.39,40.6L78.28,38.47L83.17,46.44L88.07,42.94L92.96,32.83L97.85,33.99L102.74,29.33L107.64,38.08L112.53,36.72L117.42,40.22L122.32,48.58L127.21,46.83L132.1,46.44L136.99,48.19L141.89,41.58L146.78,41.97L151.67,37.1L156.56,44.1L161.46,54.22L166.35,54.22L171.24,45.85L176.13,41.97L181.03,48.97L185.92,40.6L190.81,49.94L195.7,37.49L200.6,43.33L205.49,35.74L210.38,38.47L215.28,45.85L220.17,34.97L225.06,36.33L229.95,31.47L234.85,30.49L239.74,79.69L244.63,39.44L249.52,59.08L254.42,142.88L259.31,39.83L264.2,38.47L269.09,38.85L273.99,31.08L278.88,43.33L283.77,92.91L288.66,47.6L293.56,85.52L298.45,37.1L303.34,82.41L308.23,38.85L313.13,41.19L318.02,35.35L322.91,37.1L327.81,45.47L332.7,42.94L337.59,37.1L342.48,40.6L347.38,35.35L352.27,39.83L357.16,42.35L362.05,38.47L366.95,36.72L376.73,36.72L381.62,37.49L386.52,44.1L391.41,38.08L396.3,40.22L401.19,33.99L406.09,33.22L410.98,35.74L420.77,38.08L425.66,36.33L430.55,42.35L435.44,40.6L440.34,34.58L445.23,41.19L450.12,84.94L455.01,91.16L459.91,54.22L464.8,45.08L469.69,36.72L474.58,31.85L479.48,33.22L484.37,38.47L489.26,32.24L494.15,38.85L499.05,57.33L503.94,65.69L508.83,55.19L513.72,38.47L518.62,36.33L523.51,41.97L528.4,38.08L533.3,36.72L538.19,38.85L543.08,36.72L547.97,40.6L552.87,40.6L557.76,32.24L562.65,34.97L572.44,39.44L577.33,35.35L582.22,33.22L587.11,35.35L592.01,33.6L596.9,32.83L601.79,32.83L606.68,35.74L611.58,45.85L616.47,32.83L621.36,34.58L626.26,40.6L631.15,34.97L636.04,37.1L640.93,34.97L645.83,39.83L650.72,34.97L655.61,43.72L660.5,50.33L665.4,50.72L670.29,44.69L675.18,43.33L680.07,48.19L684.97,31.47L689.86,33.22L694.75,47.6L704.54,36.72L709.43,33.22L719.21,50.33L724.11,35.35L729,34.58" style="vector-effect: none; fill: none; stroke: rgb(0, 0, 255); stroke-opacity: 1; stroke-width: 2px; opacity: 1;"/></g><g class="points"/><g class="text"/></g><g class="trace scatter trace26671e" style="stroke-miterlimit: 2; opacity: 1;"><g class="fills"/><g class="errorbars"/><g class="lines"><path class="js-line" d="M0,33.41L4.89,80.85L9.79,68.6L14.68,92.52L19.57,135.49L29.36,40.6L34.25,42.55L39.14,21.94L44.03,41.77L53.82,45.47L58.71,89.02L63.6,52.85L68.5,77.74L73.39,61.6L78.28,71.52L83.17,75.02L88.07,61.02L92.96,29.72L97.85,36.72L102.74,42.35L107.64,50.33L112.53,53.05L117.42,73.85L122.32,80.46L127.21,80.46L136.99,89.41L141.89,68.99L146.78,63.94L151.67,50.13L156.56,81.63L161.46,107.68L166.35,114.3L171.24,84.55L176.13,53.05L181.03,88.63L185.92,57.33L190.81,93.69L195.7,62.96L200.6,89.99L205.49,31.85L210.38,63.55L215.28,98.74L220.17,41.97L225.06,51.69L229.95,50.13L234.85,42.55L239.74,180.4L244.63,60.83L249.52,110.6L254.42,299.79L259.31,69.58L264.2,55.38L269.09,54.02L273.99,25.63L278.88,74.63L283.77,198.68L288.66,89.6L293.56,187.99L298.45,74.44L303.34,190.32L308.23,75.21L313.13,89.21L318.02,69.38L322.91,75.21L327.81,104.38L332.7,79.3L337.59,71.91L342.48,73.66L347.38,56.55L352.27,64.52L357.16,75.99L362.05,46.44L366.95,59.46L371.84,48.77L376.73,57.33L381.62,65.1L386.52,77.94L391.41,63.55L396.3,68.02L401.19,56.94L406.09,30.49L410.98,39.44L415.87,33.02L420.77,31.47L425.66,37.1L430.55,50.52L435.44,54.22L440.34,34.77L445.23,65.3L450.12,180.99L455.01,198.1L459.91,98.55L464.8,62.58L469.69,37.1L474.58,27.77L479.48,34.58L484.37,49.74L489.26,38.08L494.15,51.1L499.05,120.52L503.94,136.07L508.83,108.66L513.72,62.96L518.62,53.05L523.51,53.83L528.4,54.41L533.3,65.3L538.19,57.33L543.08,54.41L547.97,57.91L552.87,80.85L557.76,38.85L562.65,28.94L567.54,49.94L572.44,50.13L577.33,36.91L582.22,31.66L587.11,36.72L592.01,44.3L596.9,40.41L601.79,35.35L606.68,29.72L611.58,65.88L616.47,42.94L621.36,49.55L626.26,65.69L631.15,38.27L636.04,31.47L640.93,43.72L645.83,55.58L650.72,42.74L655.61,63.55L660.5,79.3L665.4,76.38L670.29,61.99L675.18,59.85L680.07,78.52L684.97,53.63L689.86,59.85L694.75,82.8L699.64,69.58L704.54,69.19L709.43,60.44L714.32,84.35L719.21,89.99L724.11,36.72L729,42.74" style="vector-effect: none; fill: none; stroke: rgb(0, 128, 0); stroke-opacity: 1; stroke-width: 2px; opacity: 1;"/></g><g class="points"/><g class="text"/></g><g class="trace scatter traceefd573" style="stroke-miterlimit: 2; opacity: 1;"><g class="fills"/><g class="errorbars"/><g class="lines"><path class="js-line" d="M0,28.74L4.89,79.88L9.79,69.38L14.68,72.88L19.57,143.27L24.46,87.07L29.36,40.41L34.25,38.66L39.14,19.8L44.03,47.41L48.93,49.55L58.71,73.08L63.6,53.24L68.5,84.35L73.39,74.24L78.28,67.83L83.17,95.05L88.07,76.19L92.96,27.38L97.85,26.61L102.74,33.41L107.64,59.66L112.53,58.1L117.42,86.69L122.32,103.99L127.21,104.38L132.1,110.21L136.99,110.21L141.89,92.71L146.78,85.13L151.67,66.08L161.46,139.96L166.35,138.02L176.13,68.8L181.03,113.32L185.92,80.85L190.81,118.18L195.7,70.16L200.6,100.1L205.49,46.83L210.38,66.85L215.28,105.16L220.17,50.91L225.06,54.6L229.95,51.3L234.85,38.27L239.74,197.9L244.63,75.8L249.52,151.43L254.42,306.59L259.31,82.99L264.2,67.83L269.09,62.77L273.99,28.94L278.88,97.96L283.77,227.46L288.66,115.66L293.56,211.12L298.45,77.94L303.34,208.21L308.23,82.6L313.13,90.77L318.02,61.99L322.91,71.33L327.81,106.52L337.59,76.19L342.48,88.63L347.38,70.74L352.27,85.32L357.16,93.3L362.05,59.27L366.95,77.35L371.84,66.27L376.73,70.74L381.62,76.77L386.52,103.99L391.41,82.21L396.3,90.38L401.19,58.49L406.09,40.41L410.98,54.99L415.87,53.05L420.77,41.97L425.66,52.66L430.55,78.33L435.44,84.16L440.34,51.3L445.23,92.13L450.12,210.35L455.01,222.79L459.91,128.1L464.8,88.44L469.69,57.13L474.58,36.72L479.48,43.52L484.37,67.83L489.26,51.49L494.15,74.44L499.05,155.52L503.94,175.74L508.83,143.46L513.72,80.46L518.62,70.16L533.3,82.6L538.19,79.3L543.08,72.3L547.97,76.77L552.87,83.38L557.76,43.52L562.65,37.1L567.54,62.38L572.44,70.74L577.33,51.49L582.22,43.52L587.11,48.38L592.01,54.99L596.9,54.02L601.79,53.05L606.68,49.94L611.58,94.46L616.47,56.74L621.36,62.58L626.26,88.63L631.15,52.85L636.04,45.27L640.93,71.71L645.83,86.1L650.72,66.66L655.61,98.55L660.5,117.02L665.4,109.82L670.29,86.3L675.18,86.1L680.07,110.8L684.97,68.8L689.86,74.24L694.75,117.02L699.64,99.71L704.54,85.52L709.43,67.83L714.32,103.6L719.21,117.6L724.11,47.41L729,56.16" style="vector-effect: none; fill: none; stroke: rgb(255, 165, 0); stroke-opacity: 1; stroke-width: 2px; opacity: 1;"/></g><g class="points"/><g class="text"/></g><g class="trace scatter trace88e2db" style="stroke-miterlimit: 2; opacity: 1;"><g class="fills"/><g class="errorbars"/><g class="lines"><path class="js-line" d="M0,376.2L4.89,355.59L9.79,352.28L14.68,361.03L19.57,344.7L24.46,346.45L29.36,356.37L34.25,348.59L39.14,347.23L44.03,331.48L48.93,329.54L53.82,342.17L58.71,326.62L63.6,332.26L68.5,320.79L73.39,319.62L78.28,326.04L83.17,321.56L88.07,328.37L92.96,333.62L97.85,334.98L102.74,321.76L107.64,324.48L112.53,324.29L117.42,307.76L122.32,317.29L127.21,315.73L132.1,303.87L136.99,312.81L141.89,303.87L146.78,316.12L151.67,317.29L156.56,306.01L161.46,297.26L166.35,303.48L176.13,328.17L181.03,310.29L185.92,310.29L190.81,306.98L195.7,316.7L200.6,305.62L205.49,327.2L210.38,321.56L215.28,311.45L220.17,320.98L225.06,323.7L229.95,317.29L234.85,323.12L239.74,320.2L244.63,318.84L249.52,299.4L254.42,323.31L259.31,312.43L264.2,315.54L269.09,323.12L273.99,326.42L278.88,304.84L283.77,314.95L288.66,302.7L293.56,314.56L298.45,310.68L303.34,306.01L308.23,309.51L313.13,311.26L318.02,319.23L322.91,313.79L327.81,311.26L332.7,317.67L337.59,308.34L342.48,309.31L347.38,311.45L352.27,309.9L357.16,313.01L362.05,324.29L366.95,305.81L371.84,313.79L376.73,310.68L381.62,307.76L386.52,302.12L391.41,302.31L396.3,300.18L401.19,312.43L406.09,322.54L410.98,317.09L415.87,320.4L420.77,337.31L425.66,327.59L430.55,319.62L435.44,306.98L440.34,320.4L445.23,299.4L450.12,309.31L455.01,309.9L459.91,305.43L464.8,309.9L474.58,323.7L479.48,322.92L484.37,312.62L489.26,309.12L494.15,310.68L499.05,284.82L503.94,279.76L508.83,290.45L513.72,305.62L518.62,304.65L523.51,316.7L528.4,301.15L533.3,295.9L538.19,302.12L543.08,306.4L547.97,315.73L552.87,313.59L557.76,321.76L562.65,330.9L567.54,322.15L572.44,320.79L577.33,321.56L582.22,320.01L587.11,323.51L592.01,314.76L596.9,313.01L601.79,310.87L606.68,319.04L611.58,315.73L616.47,308.54L621.36,305.81L626.26,307.95L636.04,330.12L640.93,300.18L645.83,300.37L650.72,304.06L660.5,307.95L665.4,316.12L670.29,314.56L675.18,316.31L680.07,302.12L684.97,296.68L689.86,301.93L694.75,300.76L699.64,298.62L704.54,297.84L709.43,301.73L714.32,291.23L724.11,325.06L729,315.93" style="vector-effect: none; fill: none; stroke: rgb(128, 0, 128); stroke-opacity: 1; stroke-width: 2px; opacity: 1;"/></g><g class="points"/><g class="text"/></g><g class="trace scatter trace0fb4ef" style="stroke-miterlimit: 2; opacity: 1;"><g class="fills"/><g class="errorbars"/><g class="lines"><path class="js-line" d="M0,369.78L4.89,347.23L9.79,352.67L14.68,351.7L19.57,346.45L24.46,346.26L29.36,350.15L34.25,349.76L39.14,342.76L44.03,329.34L48.93,327.98L53.82,343.92L58.71,318.84L63.6,332.06L68.5,321.17L73.39,324.67L78.28,322.73L88.07,329.92L92.96,330.7L97.85,334.79L102.74,317.87L107.64,326.81L112.53,323.9L117.42,313.79L122.32,326.23L132.1,313.01L136.99,319.04L141.89,312.81L146.78,320.59L151.67,320.01L156.56,313.98L161.46,308.15L166.35,310.68L171.24,317.09L176.13,332.45L181.03,319.04L185.92,319.81L190.81,317.09L195.7,318.26L200.6,312.23L205.49,328.37L210.38,323.31L215.28,316.31L220.17,323.51L225.06,324.87L229.95,313.01L234.85,318.65L239.74,327.4L244.63,319.42L249.52,312.04L254.42,326.23L259.31,315.54L264.2,322.73L269.09,327.4L273.99,325.26L278.88,313.98L283.77,327.98L288.66,312.04L293.56,328.17L298.45,311.26L303.34,316.12L308.23,313.01L313.13,313.2L318.02,317.48L322.91,316.12L327.81,313.59L332.7,318.65L337.59,312.43L342.48,313.59L347.38,311.26L352.27,313.59L357.16,315.34L362.05,328.17L366.95,310.29L371.84,318.45L376.73,315.34L381.62,313.4L386.52,311.45L391.41,310.48L396.3,310.68L401.19,316.12L406.09,324.87L410.98,323.51L415.87,327.01L420.77,337.31L425.66,326.23L430.55,327.2L435.44,317.29L440.34,321.95L445.23,312.04L450.12,327.79L455.01,331.87L459.91,322.54L464.8,327.59L469.69,324.67L474.58,323.31L479.48,322.92L484.37,322.73L489.26,315.54L494.15,319.23L499.05,297.84L503.94,300.18L508.83,306.98L513.72,313.4L518.62,314.37L523.51,328.76L528.4,313.01L533.3,306.01L538.19,315.54L543.08,313.98L547.97,322.92L552.87,317.87L557.76,320.4L562.65,331.48L567.54,322.34L577.33,324.29L582.22,322.92L587.11,326.23L592.01,316.9L596.9,315.15L601.79,315.73L606.68,326.62L611.58,325.65L616.47,313.4L621.36,314.37L626.26,313.59L631.15,322.15L636.04,333.04L640.93,309.12L645.83,313.01L650.72,312.81L655.61,314.95L660.5,319.81L665.4,328.37L670.29,327.98L675.18,323.9L680.07,318.45L684.97,300.56L689.86,301.73L694.75,310.68L699.64,306.59L704.54,303.48L709.43,306.79L714.32,302.9L719.21,319.23L724.11,326.81L729,318.84" style="vector-effect: none; fill: none; stroke: rgb(255, 192, 203); stroke-opacity: 1; stroke-width: 2px; opacity: 1;"/></g><g class="points"/><g class="text"/></g><g class="trace scatter tracec328ba" style="stroke-miterlimit: 2; opacity: 1;"><g class="fills"/><g class="errorbars"/><g class="lines"><path class="js-line" d="M0,318.65L4.89,298.62L9.79,293.76L14.68,305.81L19.57,293.18L24.46,289.29L29.36,296.29L34.25,287.54L39.14,284.43L44.03,268.68L48.93,266.93L53.82,280.73L58.71,268.87L63.6,270.82L68.5,261.68L73.39,258.57L78.28,266.34L83.17,262.07L88.07,267.71L97.85,272.18L102.74,258.57L107.64,262.26L112.53,262.46L117.42,248.07L122.32,258.57L127.21,256.82L132.1,245.93L136.99,255.26L141.89,243.6L146.78,255.26L151.67,254.68L156.56,247.48L161.46,243.21L171.24,256.82L176.13,266.34L181.03,252.73L185.92,248.46L190.81,250.21L195.7,255.65L200.6,248.26L205.49,263.23L210.38,260.9L215.28,255.26L220.17,257.79L225.06,261.48L229.95,254.68L234.85,260.12L239.74,277.04L244.63,257.79L249.52,245.54L254.42,312.81L259.31,252.15L264.2,253.51L269.09,261.29L273.99,261.68L278.88,245.35L283.77,276.45L288.66,245.54L293.56,273.73L298.45,251.18L303.34,267.12L308.23,250.01L313.13,253.71L318.02,258.96L322.91,254.29L332.7,258.57L337.59,248.46L342.48,249.62L347.38,249.62L352.27,248.84L357.16,253.51L362.05,261.68L366.95,244.18L371.84,250.98L376.73,248.84L381.62,246.9L386.52,243.21L396.3,239.9L401.19,250.59L406.09,257.98L410.98,253.32L415.87,256.23L420.77,274.12L425.66,264.21L430.55,257.21L435.44,244.76L440.34,256.23L445.23,238.73L450.12,267.71L455.01,272.18L459.91,249.43L464.8,248.65L469.69,252.93L474.58,258.96L479.48,258.96L484.37,249.82L489.26,244.96L494.15,248.07L499.05,234.26L503.94,233.1L508.83,237.18L513.72,244.37L518.62,242.43L523.51,254.68L528.4,238.93L533.3,235.23L538.19,240.29L543.08,244.18L547.97,254.09L552.87,254.87L557.76,258.18L562.65,266.93L567.54,259.73L577.33,257.79L582.22,255.65L587.11,259.93L592.01,251.37L601.79,246.32L606.68,254.29L611.58,255.07L616.47,244.96L621.36,243.01L626.26,247.09L631.15,254.48L636.04,266.34L640.93,236.6L645.83,238.35L650.72,240.29L655.61,245.15L660.5,249.04L665.4,256.62L670.29,253.32L675.18,254.87L680.07,243.21L684.97,234.26L689.86,240.48L694.75,242.62L699.64,238.54L704.54,237.76L709.43,240.48L714.32,233.68L719.21,250.79L724.11,261.48L729,252.54" style="vector-effect: none; fill: none; stroke: rgb(165, 42, 42); stroke-opacity: 1; stroke-width: 2px; opacity: 1;"/></g><g class="points"/><g class="text"/></g><g class="trace scatter trace9896af" style="stroke-miterlimit: 2; opacity: 1;"><g class="fills"/><g class="errorbars"/><g class="lines"><path class="js-line" d="M0,311.06L4.89,289.68L9.79,294.54L14.68,293.76L19.57,296.09L24.46,289.48L29.36,289.29L34.25,288.9L39.14,279.37L44.03,267.32L48.93,266.15L53.82,284.23L58.71,259.34L63.6,270.82L68.5,263.04L73.39,265.37L78.28,262.46L83.17,269.84L88.07,271.01L92.96,266.73L97.85,271.01L102.74,253.71L107.64,265.76L112.53,262.84L117.42,256.04L122.32,270.62L127.21,264.59L132.1,258.57L136.99,264.4L141.89,255.84L146.78,262.65L151.67,259.54L156.56,258.18L161.46,258.96L166.35,260.9L171.24,261.68L176.13,272.76L181.03,264.79L185.92,261.09L190.81,263.82L195.7,258.37L200.6,256.23L205.49,266.15L210.38,263.04L215.28,261.09L220.17,261.48L225.06,263.43L229.95,250.79L234.85,255.07L239.74,286.95L244.63,260.32L249.52,264.4L254.42,317.29L259.31,257.21L264.2,262.46L269.09,266.73L273.99,260.9L278.88,257.79L283.77,293.95L288.66,258.37L293.56,290.26L298.45,252.15L303.34,279.76L308.23,254.68L313.13,256.04L318.02,256.62L322.91,256.43L332.7,261.48L337.59,253.32L342.48,256.04L347.38,251.37L352.27,255.65L357.16,258.37L362.05,267.51L366.95,251.18L371.84,257.98L376.73,255.46L381.62,254.29L386.52,256.23L391.41,252.15L396.3,253.51L401.19,254.68L406.09,261.68L410.98,261.87L415.87,265.57L420.77,275.29L425.66,264.59L430.55,268.29L435.44,259.15L440.34,259.93L445.23,254.87L450.12,289.87L455.01,296.09L459.91,270.43L464.8,270.04L469.69,263.43L474.58,259.73L479.48,260.12L484.37,262.46L489.26,253.32L494.15,259.93L499.05,252.73L503.94,259.15L508.83,258.37L513.72,254.68L518.62,254.29L523.51,269.45L528.4,254.29L533.3,247.68L538.19,256.62L543.08,254.29L547.97,263.82L552.87,259.54L557.76,257.59L562.65,268.68L567.54,261.68L572.44,263.43L577.33,262.46L582.22,260.12L587.11,264.01L592.01,255.26L596.9,253.12L601.79,253.71L606.68,264.59L611.58,268.87L616.47,251.57L621.36,253.51L626.26,256.04L631.15,260.32L636.04,271.01L640.93,249.43L645.83,255.07L650.72,252.54L655.61,258.76L660.5,266.34L665.4,273.54L670.29,270.23L675.18,266.15L680.07,264.01L684.97,240.48L689.86,242.43L694.75,257.4L699.64,250.98L704.54,245.73L709.43,246.51L714.32,247.87L719.21,265.76L724.11,264.59L729,257.21" style="vector-effect: none; fill: none; stroke: rgb(128, 128, 128); stroke-opacity: 1; stroke-width: 2px; opacity: 1;"/></g><g class="points"/><g class="text"/></g></g></g><g class="overplot"/><path class="xlines-above crisp" d="M0,0" style="fill: none;"/><path class="ylines-above crisp" d="M0,0" style="fill: none;"/><g class="overlines-above"/><g class="xaxislayer-above"><g class="xtick"><text text-anchor="middle" x="0" y="509" transform="translate(232.95999999999998,0)" style="font-family: 'Open Sans', verdana, arial, sans-serif; font-size: 12px; fill: rgb(42, 63, 95); fill-opacity: 1; white-space: pre; opacity: 1;">20</text></g><g class="xtick"><text text-anchor="middle" x="0" y="509" style="font-family: 'Open Sans', verdana, arial, sans-serif; font-size: 12px; fill: rgb(42, 63, 95); fill-opacity: 1; white-space: pre; opacity: 1;" transform="translate(330.81,0)">40</text></g><g class="xtick"><text text-anchor="middle" x="0" y="509" style="font-family: 'Open Sans', verdana, arial, sans-serif; font-size: 12px; fill: rgb(42, 63, 95); fill-opacity: 1; white-space: pre; opacity: 1;" transform="translate(428.66,0)">60</text></g><g class="xtick"><text text-anchor="middle" x="0" y="509" style="font-family: 'Open Sans', verdana, arial, sans-serif; font-size: 12px; fill: rgb(42, 63, 95); fill-opacity: 1; white-space: pre; opacity: 1;" transform="translate(526.52,0)">80</text></g><g class="xtick"><text text-anchor="middle" x="0" y="509" style="font-family: 'Open Sans', verdana, arial, sans-serif; font-size: 12px; fill: rgb(42, 63, 95); fill-opacity: 1; white-space: pre; opacity: 1;" transform="translate(624.37,0)">100</text></g><g class="xtick"><text text-anchor="middle" x="0" y="509" style="font-family: 'Open Sans', verdana, arial, sans-serif; font-size: 12px; fill: rgb(42, 63, 95); fill-opacity: 1; white-space: pre; opacity: 1;" transform="translate(722.22,0)">120</text></g><g class="xtick"><text text-anchor="middle" x="0" y="509" style="font-family: 'Open Sans', verdana, arial, sans-serif; font-size: 12px; fill: rgb(42, 63, 95); fill-opacity: 1; white-space: pre; opacity: 1;" transform="translate(820.07,0)">140</text></g></g><g class="yaxislayer-above"><g class="ytick"><text text-anchor="end" x="139" y="4.199999999999999" transform="translate(0,490.98)" style="font-family: 'Open Sans', verdana, arial, sans-serif; font-size: 12px; fill: rgb(42, 63, 95); fill-opacity: 1; white-space: pre; opacity: 1;">65</text></g><g class="ytick"><text text-anchor="end" x="139" y="4.199999999999999" style="font-family: 'Open Sans', verdana, arial, sans-serif; font-size: 12px; fill: rgb(42, 63, 95); fill-opacity: 1; white-space: pre; opacity: 1;" transform="translate(0,393.76)">70</text></g><g class="ytick"><text text-anchor="end" x="139" y="4.199999999999999" style="font-family: 'Open Sans', verdana, arial, sans-serif; font-size: 12px; fill: rgb(42, 63, 95); fill-opacity: 1; white-space: pre; opacity: 1;" transform="translate(0,296.53999999999996)">75</text></g><g class="ytick"><text text-anchor="end" x="139" y="4.199999999999999" style="font-family: 'Open Sans', verdana, arial, sans-serif; font-size: 12px; fill: rgb(42, 63, 95); fill-opacity: 1; white-space: pre; opacity: 1;" transform="translate(0,199.32)">80</text></g><g class="ytick"><text text-anchor="end" x="139" y="4.199999999999999" style="font-family: 'Open Sans', verdana, arial, sans-serif; font-size: 12px; fill: rgb(42, 63, 95); fill-opacity: 1; white-space: pre; opacity: 1;" transform="translate(0,102.11)">85</text></g></g><g class="overaxes-above"/></g></g><g class="polarlayer"/><g class="smithlayer"/><g class="ternarylayer"/><g class="geolayer"/><g class="funnelarealayer"/><g class="pielayer"/><g class="iciclelayer"/><g class="treemaplayer"/><g class="sunburstlayer"/><g class="glimages"/><defs id="topdefs-4be3d2"><g class="clips"/><clipPath id="legend4be3d2"><rect width="128" height="162" x="0" y="0"/></clipPath></defs><g class="layer-above"><g class="imagelayer"/><g class="shapelayer"/></g><g class="infolayer"><g class="legend" pointer-events="all" transform="translate(883.58,100)"><rect class="bg" shape-rendering="crispEdges" width="128" height="162" x="0" y="0" style="stroke: rgb(68, 68, 68); stroke-opacity: 1; fill: rgb(255, 255, 255); fill-opacity: 1; stroke-width: 0px;"/><g class="scrollbox" transform="" clip-path="url(#legend4be3d2)"><g class="groups"><g class="traces" transform="translate(0,14.5)" style="opacity: 1;"><text class="legendtext" text-anchor="start" x="40" y="4.680000000000001" style="font-family: 'Open Sans', verdana, arial, sans-serif; font-size: 12px; fill: rgb(42, 63, 95); fill-opacity: 1; white-space: pre;">Train Accuracy</text><g class="layers" style="opacity: 1;"><g class="legendfill"/><g class="legendlines"><path class="js-line" d="M5,0h30" style="fill: none; stroke: rgb(255, 0, 0); stroke-opacity: 1; stroke-width: 2px;"/></g><g class="legendsymbols"><g class="legendpoints"/></g></g><rect class="legendtoggle" x="0" y="-9.5" width="122.71875" height="19" style="fill: rgb(0, 0, 0); fill-opacity: 0;"/></g><g class="traces" transform="translate(0,33.5)" style="opacity: 1;"><text class="legendtext" text-anchor="start" x="40" y="4.680000000000001" style="font-family: 'Open Sans', verdana, arial, sans-serif; font-size: 12px; fill: rgb(42, 63, 95); fill-opacity: 1; white-space: pre;">Test Accuracy</text><g class="layers" style="opacity: 1;"><g class="legendfill"/><g class="legendlines"><path class="js-line" d="M5,0h30" style="fill: none; stroke: rgb(0, 0, 255); stroke-opacity: 1; stroke-width: 2px;"/></g><g class="legendsymbols"><g class="legendpoints"/></g></g><rect class="legendtoggle" x="0" y="-9.5" width="122.71875" height="19" style="fill: rgb(0, 0, 0); fill-opacity: 0;"/></g><g class="traces" transform="translate(0,52.5)" style="opacity: 1;"><text class="legendtext" text-anchor="start" x="40" y="4.680000000000001" style="font-family: 'Open Sans', verdana, arial, sans-serif; font-size: 12px; fill: rgb(42, 63, 95); fill-opacity: 1; white-space: pre;">Train Precision</text><g class="layers" style="opacity: 1;"><g class="legendfill"/><g class="legendlines"><path class="js-line" d="M5,0h30" style="fill: none; stroke: rgb(0, 128, 0); stroke-opacity: 1; stroke-width: 2px;"/></g><g class="legendsymbols"><g class="legendpoints"/></g></g><rect class="legendtoggle" x="0" y="-9.5" width="122.71875" height="19" style="fill: rgb(0, 0, 0); fill-opacity: 0;"/></g><g class="traces" transform="translate(0,71.5)" style="opacity: 1;"><text class="legendtext" text-anchor="start" x="40" y="4.680000000000001" style="font-family: 'Open Sans', verdana, arial, sans-serif; font-size: 12px; fill: rgb(42, 63, 95); fill-opacity: 1; white-space: pre;">Test Precision</text><g class="layers" style="opacity: 1;"><g class="legendfill"/><g class="legendlines"><path class="js-line" d="M5,0h30" style="fill: none; stroke: rgb(255, 165, 0); stroke-opacity: 1; stroke-width: 2px;"/></g><g class="legendsymbols"><g class="legendpoints"/></g></g><rect class="legendtoggle" x="0" y="-9.5" width="122.71875" height="19" style="fill: rgb(0, 0, 0); fill-opacity: 0;"/></g><g class="traces" transform="translate(0,90.5)" style="opacity: 1;"><text class="legendtext" text-anchor="start" x="40" y="4.680000000000001" style="font-family: 'Open Sans', verdana, arial, sans-serif; font-size: 12px; fill: rgb(42, 63, 95); fill-opacity: 1; white-space: pre;">Train Recall</text><g class="layers" style="opacity: 1;"><g class="legendfill"/><g class="legendlines"><path class="js-line" d="M5,0h30" style="fill: none; stroke: rgb(128, 0, 128); stroke-opacity: 1; stroke-width: 2px;"/></g><g class="legendsymbols"><g class="legendpoints"/></g></g><rect class="legendtoggle" x="0" y="-9.5" width="122.71875" height="19" style="fill: rgb(0, 0, 0); fill-opacity: 0;"/></g><g class="traces" transform="translate(0,109.5)" style="opacity: 1;"><text class="legendtext" text-anchor="start" x="40" y="4.680000000000001" style="font-family: 'Open Sans', verdana, arial, sans-serif; font-size: 12px; fill: rgb(42, 63, 95); fill-opacity: 1; white-space: pre;">Test Recall</text><g class="layers" style="opacity: 1;"><g class="legendfill"/><g class="legendlines"><path class="js-line" d="M5,0h30" style="fill: none; stroke: rgb(255, 192, 203); stroke-opacity: 1; stroke-width: 2px;"/></g><g class="legendsymbols"><g class="legendpoints"/></g></g><rect class="legendtoggle" x="0" y="-9.5" width="122.71875" height="19" style="fill: rgb(0, 0, 0); fill-opacity: 0;"/></g><g class="traces" transform="translate(0,128.5)" style="opacity: 1;"><text class="legendtext" text-anchor="start" x="40" y="4.680000000000001" style="font-family: 'Open Sans', verdana, arial, sans-serif; font-size: 12px; fill: rgb(42, 63, 95); fill-opacity: 1; white-space: pre;">Train F1</text><g class="layers" style="opacity: 1;"><g class="legendfill"/><g class="legendlines"><path class="js-line" d="M5,0h30" style="fill: none; stroke: rgb(165, 42, 42); stroke-opacity: 1; stroke-width: 2px;"/></g><g class="legendsymbols"><g class="legendpoints"/></g></g><rect class="legendtoggle" x="0" y="-9.5" width="122.71875" height="19" style="fill: rgb(0, 0, 0); fill-opacity: 0;"/></g><g class="traces" transform="translate(0,147.5)" style="opacity: 1;"><text class="legendtext" text-anchor="start" x="40" y="4.680000000000001" style="font-family: 'Open Sans', verdana, arial, sans-serif; font-size: 12px; fill: rgb(42, 63, 95); fill-opacity: 1; white-space: pre;">Test F1</text><g class="layers" style="opacity: 1;"><g class="legendfill"/><g class="legendlines"><path class="js-line" d="M5,0h30" style="fill: none; stroke: rgb(128, 128, 128); stroke-opacity: 1; stroke-width: 2px;"/></g><g class="legendsymbols"><g class="legendpoints"/></g></g><rect class="legendtoggle" x="0" y="-9.5" width="122.71875" height="19" style="fill: rgb(0, 0, 0); fill-opacity: 0;"/></g></g></g><rect class="scrollbar" rx="20" ry="3" width="0" height="0" x="0" y="0" style="fill: rgb(128, 139, 164); fill-opacity: 1;"/></g><g class="g-gtitle"><text class="gtitle" x="51.2" y="50" text-anchor="start" dy="0em" style="font-family: 'Open Sans', verdana, arial, sans-serif; font-size: 17px; fill: rgb(42, 63, 95); opacity: 1; font-weight: normal; white-space: pre;">Training Metrics - logs/FakeNewsNet-gossipcop_max-vocab=15000_pre=v2_domain_T=250_s=10.log</text></g><g class="g-xtitle"><text class="xtitle" x="504.5" y="537.3" text-anchor="middle" style="font-family: 'Open Sans', verdana, arial, sans-serif; font-size: 14px; fill: rgb(42, 63, 95); opacity: 1; font-weight: normal; white-space: pre;">Epoch</text></g><g class="g-ytitle"><text class="ytitle" transform="rotate(-90,100.965625,298)" x="100.965625" y="298" text-anchor="middle" style="font-family: 'Open Sans', verdana, arial, sans-serif; font-size: 14px; fill: rgb(42, 63, 95); opacity: 1; font-weight: normal; white-space: pre;">Metric Score</text></g></g><g class="menulayer"><g class="updatemenu-container" style="cursor: pointer;"><g class="updatemenu-header-group" transform="translate(12,60)"><g class="updatemenu-header" transform="translate(1,1)" style="pointer-events: all;"><rect class="updatemenu-item-rect" rx="2" ry="2" shape-rendering="crispEdges" x="0" y="0" width="164" height="33" style="stroke: rgb(190, 200, 217); stroke-opacity: 1; fill: rgb(255, 255, 255); fill-opacity: 1; stroke-width: 1px;"/><text class="updatemenu-item-text" text-anchor="start" data-notex="1" x="12" y="19.5" style="font-family: 'Open Sans', verdana, arial, sans-serif; font-size: 12px; fill: rgb(42, 63, 95); fill-opacity: 1; white-space: pre;">All</text></g><text class="updatemenu-header-arrow" text-anchor="end" x="160" y="19.5" style="font-family: 'Open Sans', verdana, arial, sans-serif; font-size: 12px; fill: rgb(42, 63, 95); fill-opacity: 1;">▼</text></g><g class="updatemenu-dropdown-button-group" updatemenu-active-index="-1" style="pointer-events: all;"><rect class="scrollbox-bg" opacity="0" x="0" y="0" width="0" height="0" style="pointer-events: all;"/></g></g></g></svg>