<svg class="main-svg" xmlns="http://www.w3.org/2000/svg" xmlns:xlink="http://www.w3.org/1999/xlink" width="1024" height="576" style="" viewBox="0 0 1024 576"><rect x="0" y="0" width="1024" height="576" style="fill: rgb(255, 255, 255); fill-opacity: 1;"/><defs id="defs-53bd05"><g class="clips"><clipPath id="clip53bd05xyplot" class="plotclip"><rect width="726" height="396"/></clipPath><clipPath class="axesclip" id="clip53bd05x"><rect x="143" y="0" width="726" height="576"/></clipPath><clipPath class="axesclip" id="clip53bd05y"><rect x="0" y="100" width="1024" height="396"/></clipPath><clipPath class="axesclip" id="clip53bd05xy"><rect x="143" y="100" width="726" height="396"/></clipPath></g><g class="gradients"/><g class="patterns"/></defs><g class="bglayer"><rect class="bg" x="143" y="100" width="726" height="396" style="fill: rgb(229, 236, 246); fill-opacity: 1; stroke-width: 0;"/></g><g class="layer-below"><g class="imagelayer"/><g class="shapelayer"/></g><g class="cartesianlayer"><g class="subplot xy"><g class="layer-subplot"><g class="shapelayer"/><g class="imagelayer"/></g><g class="minor-gridlayer"><g class="x"/><g class="y"/></g><g class="gridlayer"><g class="x"><path class="xgrid crisp" transform="translate(235.57999999999998,0)" d="M0,100v396" style="stroke: rgb(255, 255, 255); stroke-opacity: 1; stroke-width: 1px;"/><path class="xgrid crisp" transform="translate(333.03,0)" d="M0,100v396" style="stroke: rgb(255, 255, 255); stroke-opacity: 1; stroke-width: 1px;"/><path class="xgrid crisp" transform="translate(430.48,0)" d="M0,100v396" style="stroke: rgb(255, 255, 255); stroke-opacity: 1; stroke-width: 1px;"/><path class="xgrid crisp" transform="translate(527.9300000000001,0)" d="M0,100v396" style="stroke: rgb(255, 255, 255); stroke-opacity: 1; stroke-width: 1px;"/><path class="xgrid crisp" transform="translate(625.38,0)" d="M0,100v396" style="stroke: rgb(255, 255, 255); stroke-opacity: 1; stroke-width: 1px;"/><path class="xgrid crisp" transform="translate(722.83,0)" d="M0,100v396" style="stroke: rgb(255, 255, 255); stroke-opacity: 1; stroke-width: 1px;"/><path class="xgrid crisp" transform="translate(820.28,0)" d="M0,100v396" style="stroke: rgb(255, 255, 255); stroke-opacity: 1; stroke-width: 1px;"/></g><g class="y"><path class="ygrid crisp" transform="translate(0,487.23)" d="M143,0h726" style="stroke: rgb(255, 255, 255); stroke-opacity: 1; stroke-width: 1px;"/><path class="ygrid crisp" transform="translate(0,418.27)" d="M143,0h726" style="stroke: rgb(255, 255, 255); stroke-opacity: 1; stroke-width: 1px;"/><path class="ygrid crisp" transform="translate(0,349.31)" d="M143,0h726" style="stroke: rgb(255, 255, 255); stroke-opacity: 1; stroke-width: 1px;"/><path class="ygrid crisp" transform="translate(0,280.35)" d="M143,0h726" style="stroke: rgb(255, 255, 255); stroke-opacity: 1; stroke-width: 1px;"/><path class="ygrid crisp" transform="translate(0,211.38)" d="M143,0h726" style="stroke: rgb(255, 255, 255); stroke-opacity: 1; stroke-width: 1px;"/><path class="ygrid crisp" transform="translate(0,142.42000000000002)" d="M143,0h726" style="stroke: rgb(255, 255, 255); stroke-opacity: 1; stroke-width: 1px;"/></g></g><g class="zerolinelayer"/><path class="xlines-below"/><path class="ylines-below"/><g class="overlines-below"/><g class="xaxislayer-below"/><g class="yaxislayer-below"/><g class="overaxes-below"/><g class="plot" transform="translate(143,100)" clip-path="url(#clip53bd05xyplot)"><g class="scatterlayer mlayer"><g class="trace scatter trace6d2f0f" style="stroke-miterlimit: 2; opacity: 1;"><g class="fills"/><g class="errorbars"/><g class="lines"><path class="js-line" d="M0,358.27L4.87,325.03L9.74,141.45L14.62,138.14L19.49,152.07L24.36,141.04L29.23,146.28L34.11,151.38L38.98,149.45L43.85,98.83L48.72,101.87L53.6,128.76L58.47,139.8L63.34,142.42L68.21,131.8L73.09,135.24L77.96,125.73L82.83,119.8L87.7,116.49L92.58,106.14L97.45,165.86L102.32,157.59L107.19,158.55L112.07,185.17L116.94,111.11L121.81,127.8L126.68,208.9L131.56,209.17L136.43,196.07L141.3,199.66L146.17,199.52L151.05,194.97L155.92,166.42L160.79,172.07L165.66,180.07L170.54,189.03L175.41,186.55L180.28,121.87L185.15,186.28L190.03,180.21L194.9,166.97L199.77,176.35L204.64,175.1L209.52,181.31L214.39,176.62L219.26,164.62L224.13,165.59L229.01,136.62L233.88,139.24L238.75,218L243.62,185.86L248.5,186.14L253.37,172.07L258.24,169.17L263.11,170.41L267.99,189.59L272.86,172.35L277.73,165.86L282.6,127.38L287.48,119.8L292.35,103.66L297.22,97.73L302.09,40.35L306.97,49.73L311.84,42.01L316.71,42.56L321.58,29.04L326.46,21.04L331.33,19.8L336.2,46.28L341.07,127.11L345.95,203.1L350.82,198.97L355.69,88.76L360.56,113.18L365.44,111.52L370.31,114.28L375.18,106.14L380.05,171.66L384.93,184.35L389.8,93.45L394.67,89.87L399.54,83.11L404.42,75.66L409.29,62.42L414.16,82.14L419.03,75.94L423.91,71.66L428.78,75.25L438.52,87.94L443.4,79.66L448.27,71.38L453.14,80.76L462.89,86.42L467.76,91.8L472.63,60.76L477.5,71.8L482.38,49.32L487.25,56.63L492.12,62.83L496.99,66.69L501.87,86L506.74,83.94L511.61,75.66L516.48,43.25L521.36,42.56L526.23,75.25L531.1,160.9L535.97,102L540.85,96.9L545.72,107.8L550.59,109.59L555.46,108.62L560.34,115.24L565.21,107.24L570.08,97.18L574.95,101.31L579.83,121.59L584.7,116.49L589.57,125.18L594.44,86.28L599.32,79.52L604.19,80.9L609.06,72.49L613.93,83.66L618.81,91.66L623.68,93.59L628.55,93.59L633.42,87.11L638.3,86.69L643.17,108.49L648.04,101.59L652.91,90.83L657.79,94.14L662.66,92.35L667.53,88.07L672.4,85.59L677.28,65.04L682.15,61.32L687.02,62.56L691.89,58.83L696.77,61.32L701.64,82.83L706.51,85.87L711.38,77.87L716.26,78.56L721.13,81.45L726,77.59" style="vector-effect: none; fill: none; stroke: rgb(255, 0, 0); stroke-opacity: 1; stroke-width: 2px; opacity: 1;"/></g><g class="points"/><g class="text"/></g><g class="trace scatter traced42324" style="stroke-miterlimit: 2; opacity: 1;"><g class="fills"/><g class="errorbars"/><g class="lines"><path class="js-line" d="M0,357.58L4.87,332.48L9.74,152.07L14.62,144.9L19.49,166.69L34.11,150.83L38.98,154.83L43.85,112.49L48.72,114.42L53.6,135.24L58.47,151.11L63.34,153.86L68.21,138.97L73.09,150.83L77.96,134.28L82.83,122.42L87.7,125.31L92.58,113.18L97.45,166.42L102.32,158.55L107.19,159.52L112.07,182.97L116.94,114.42L121.81,136.76L126.68,210.28L131.56,208.76L136.43,192.9L141.3,196.9L146.17,194.69L151.05,191.66L155.92,166.69L160.79,172.35L165.66,176.35L175.41,189.17L180.28,130.83L185.15,197.17L190.03,182L194.9,170.41L199.77,178.83L204.64,175.79L209.52,183.52L214.39,173.59L219.26,165.73L224.13,169.45L229.01,141.45L233.88,148.9L238.75,223.1L243.62,183.24L248.5,183.52L253.37,174.83L258.24,170.14L263.11,160.48L267.99,182.97L272.86,169.17L277.73,175.1L282.6,140.21L287.48,130L292.35,118.42L297.22,113.73L302.09,56.49L306.97,58.01L311.84,50.83L316.71,51.11L321.58,33.45L326.46,26.56L331.33,30.01L336.2,56.07L345.95,221.17L350.82,216.48L355.69,96.62L360.56,120.35L365.44,119.66L370.31,123.66L375.18,117.18L380.05,172.9L384.93,188.21L389.8,101.59L394.67,94.14L399.54,89.73L404.42,85.45L409.29,72.07L414.16,88.49L419.03,81.04L423.91,77.04L428.78,74.56L433.65,79.8L438.52,87.94L443.4,79.52L448.27,74.83L453.14,86.28L458.01,85.45L462.89,88.49L467.76,89.73L472.63,64.9L477.5,76.07L482.38,67.66L487.25,73.59L492.12,82L496.99,77.87L501.87,89.18L506.74,88.49L511.61,84.49L516.48,48.9L521.36,54.28L526.23,88.49L531.1,169.17L535.97,122.42L540.85,117.18L545.72,124.9L550.59,127.11L555.46,125.31L560.34,127.52L565.21,117.18L570.08,113.45L574.95,114.97L579.83,134.55L584.7,132.49L589.57,144.62L594.44,99.8L599.32,90.42L604.19,85.45L609.06,86L613.93,96.9L618.81,114.69L623.68,103.52L628.55,104.35L633.42,95.93L638.3,97.87L643.17,120.35L648.04,117.18L652.91,102.83L657.79,105.31L662.66,103.11L667.53,94.69L672.4,99.38L677.28,80.49L682.15,75.11L687.02,79.52L691.89,69.18L696.77,70.83L701.64,92.21L706.51,86L711.38,94.14L716.26,92.62L721.13,92.9L726,93.45" style="vector-effect: none; fill: none; stroke: rgb(0, 0, 255); stroke-opacity: 1; stroke-width: 2px; opacity: 1;"/></g><g class="points"/><g class="text"/></g><g class="trace scatter tracef6d8f2" style="stroke-miterlimit: 2; opacity: 1;"><g class="fills"/><g class="errorbars"/><g class="lines"><path class="js-line" d="M0,280.62L4.87,260.76L9.74,213.17L14.62,205.86L19.49,208.07L24.36,190.97L29.23,181.45L34.11,182.41L38.98,180.35L43.85,166.97L48.72,166.28L53.6,172.76L58.47,175.1L63.34,174.83L68.21,170.69L73.09,170.55L77.96,167.66L82.83,166L87.7,229.72L92.58,224.21L97.45,189.17L107.19,188.48L112.07,197.31L116.94,166.83L121.81,167.93L126.68,196.76L131.56,193.72L141.3,198L146.17,194.69L151.05,196.76L155.92,187.93L165.66,188.21L170.54,193.31L175.41,190.97L180.28,165.59L185.15,191.79L190.03,191.66L194.9,184.76L199.77,187.24L214.39,186.14L219.26,185.17L224.13,185.59L229.01,172.07L233.88,172.48L238.75,199.24L243.62,187.93L248.5,193.03L253.37,188.35L258.24,187.93L263.11,188.21L267.99,192.07L277.73,181.72L282.6,159.38L287.48,157.17L292.35,153.45L297.22,154.69L302.09,144.62L306.97,154L311.84,143.8L316.71,142.55L321.58,134.55L326.46,127.93L331.33,124.76L345.95,195.1L350.82,193.59L355.69,149.86L360.56,156.9L365.44,155.79L370.31,157.04L375.18,152.9L380.05,182.28L384.93,183.38L389.8,147.52L394.67,147.38L399.54,144.62L404.42,141.73L409.29,136.21L414.16,145.86L419.03,145.73L423.91,142.42L428.78,143.93L438.52,149.59L443.4,144.48L448.27,142L453.14,145.04L467.76,148.35L472.63,132.49L477.5,139.24L482.38,158.83L492.12,169.45L496.99,170.55L501.87,143.24L506.74,142.55L511.61,138.97L516.48,148.62L521.36,147.52L526.23,140.62L531.1,181.86L535.97,154L540.85,151.66L545.72,157.45L555.46,156.48L560.34,158.83L565.21,157.45L570.08,152.76L574.95,155.38L579.83,162.14L584.7,160.35L589.57,163.1L594.44,146.42L599.32,144.21L604.19,146L609.06,139.24L613.93,144.07L618.81,144.62L623.68,147.24L628.55,146.97L633.42,145.31L638.3,145.04L643.17,153.04L648.04,151.38L652.91,148.07L657.79,148.35L662.66,148.07L667.53,145.31L672.4,144.07L677.28,133.86L682.15,130.42L687.02,130.69L691.89,129.31L696.77,131.8L701.64,143.52L706.51,143.66L711.38,135.93L716.26,136.9L721.13,138.28L726,135.11" style="vector-effect: none; fill: none; stroke: rgb(0, 128, 0); stroke-opacity: 1; stroke-width: 2px; opacity: 1;"/></g><g class="points"/><g class="text"/></g><g class="trace scatter trace55a3e2" style="stroke-miterlimit: 2; opacity: 1;"><g class="fills"/><g class="errorbars"/><g class="lines"><path class="js-line" d="M0,287.38L4.87,273.31L9.74,226.83L14.62,219.93L19.49,221.59L29.23,187.52L34.11,181.17L38.98,183.66L43.85,179.38L48.72,177.17L53.6,182L58.47,189.31L63.34,186.28L68.21,173.17L73.09,179.1L77.96,172.07L82.83,166.69L87.7,239.1L92.58,231.24L97.45,190.28L102.32,193.17L107.19,194L112.07,196.9L116.94,173.04L121.81,178L126.68,203.93L131.56,202.83L136.43,201.31L141.3,205.86L146.17,201.03L151.05,200.34L155.92,193.17L160.79,193.72L165.66,190.55L170.54,193.31L175.41,195.38L180.28,173.17L185.15,202.55L190.03,195.52L194.9,188.21L199.77,194L204.64,190.28L209.52,192.35L214.39,186.69L219.26,188.48L224.13,193.17L229.01,172.9L233.88,174.28L238.75,203.79L243.62,189.86L248.5,191.66L253.37,193.72L258.24,190.97L263.11,182.41L267.99,188.21L272.86,186.97L277.73,187.1L282.6,174.41L287.48,170.14L297.22,169.31L302.09,161.59L306.97,162.97L311.84,154.28L316.71,152.07L321.58,138.69L326.46,134.14L331.33,137.04L336.2,154.69L341.07,178L345.95,206L350.82,204.21L355.69,157.04L360.56,162.69L365.44,161.45L370.31,165.17L375.18,164.76L380.05,186L384.93,190.14L389.8,155.66L399.54,152.76L404.42,150.14L409.29,146L414.16,151.38L419.03,152.62L423.91,148.48L428.78,145.45L433.65,148.35L438.52,150.28L443.4,146.97L448.27,148.21L453.14,150.69L458.01,148.9L462.89,150.97L467.76,147.24L472.63,137.31L477.5,145.31L482.38,181.45L487.25,184.9L492.12,190.69L496.99,183.24L501.87,143.52L506.74,143.38L511.61,144.62L516.48,154.97L521.36,160.48L526.23,150.97L531.1,185.72L535.97,166.69L540.85,163.38L545.72,167.52L550.59,169.73L555.46,168.35L560.34,166L565.21,160.9L570.08,164.35L574.95,165.86L579.83,171.66L584.7,172.07L589.57,176.9L594.44,160.76L599.32,154.55L604.19,152.48L609.06,153.45L613.93,156.07L618.81,162.97L623.68,153.86L628.55,156.76L633.42,150.55L638.3,153.31L643.17,162.14L648.04,162L652.91,155.11L657.79,156.9L662.66,156.35L667.53,152.35L672.4,156.76L677.28,147.24L682.15,142.55L687.02,146.69L691.89,140.62L696.77,141.86L701.64,150.83L706.51,144.62L711.38,150.69L716.26,146.97L721.13,150.42L726,150.83" style="vector-effect: none; fill: none; stroke: rgb(255, 165, 0); stroke-opacity: 1; stroke-width: 2px; opacity: 1;"/></g><g class="points"/><g class="text"/></g><g class="trace scatter traceacc89b" style="stroke-miterlimit: 2; opacity: 1;"><g class="fills"/><g class="errorbars"/><g class="lines"><path class="js-line" d="M0,247.24L4.87,218.96L9.74,160.9L14.62,149.86L19.49,149.04L24.36,124.76L29.23,108.35L34.11,109.04L38.98,106.14L43.85,100.21L48.72,97.59L58.47,99.93L63.34,98.97L68.21,94.83L73.09,93.87L77.96,91.38L82.83,90.28L87.7,202.55L92.58,200.34L97.45,117.31L102.32,117.87L107.19,117.18L112.07,127.38L116.94,94.56L121.81,91.38L126.68,126.69L131.56,122.69L141.3,128.07L146.17,123.66L151.05,126.42L155.92,115.38L165.66,114.83L170.54,121.59L175.41,118.55L180.28,89.04L185.15,119.66L190.03,119.66L194.9,110.56L199.77,113.59L219.26,111.52L224.13,111.93L229.01,95.93L233.88,95.93L238.75,130.42L243.62,114.28L248.5,121.31L253.37,115.52L263.11,115.38L267.99,120.07L277.73,106.42L282.6,78L292.35,74.83L297.22,79.25L302.09,107.8L306.97,116.49L311.84,103.38L316.71,99.38L321.58,101.45L326.46,99.66L331.33,93.04L336.2,106.69L341.07,93.87L345.95,124.21L350.82,122L355.69,74.69L360.56,77.32L365.44,76.07L370.31,77.45L375.18,73.04L380.05,106.83L384.93,107.93L389.8,68.49L394.67,69.73L409.29,64.9L414.16,70.83L419.03,74.14L423.91,70.56L433.65,72.49L438.52,74.69L443.4,69.45L448.27,69.73L458.01,70.56L462.89,71.66L467.76,70.69L472.63,58.7L477.5,64.49L482.38,128.49L492.12,134.28L496.99,132.21L501.87,64.35L506.74,63.94L511.61,61.59L516.48,113.04L521.36,111.66L526.23,64.9L531.1,106.97L535.97,76.21L540.85,74.14L545.72,80.07L550.59,78.56L555.46,78L560.34,79.94L565.21,80.07L570.08,75.94L574.95,78.83L579.83,83.66L584.7,82.14L589.57,84.35L594.44,69.73L599.32,69.04L604.19,71.8L609.06,63.94L613.93,66.83L618.81,64.35L623.68,67.94L633.42,67.25L638.3,67.11L643.17,72.49L648.04,72.07L657.79,69.73L662.66,70L667.53,66.97L672.4,65.87L677.28,58.42L682.15,54.14L691.89,53.87L696.77,56.9L701.64,66.14L706.51,64.9L711.38,54.97L716.26,56.35L721.13,57.45L726,53.73" style="vector-effect: none; fill: none; stroke: rgb(128, 0, 128); stroke-opacity: 1; stroke-width: 2px; opacity: 1;"/></g><g class="points"/><g class="text"/></g><g class="trace scatter trace550ebf" style="stroke-miterlimit: 2; opacity: 1;"><g class="fills"/><g class="errorbars"/><g class="lines"><path class="js-line" d="M0,255.52L4.87,235.38L9.74,180.07L14.62,171.38L19.49,167.24L29.23,116.49L34.11,107.8L38.98,110.83L43.85,116.07L48.72,111.52L53.6,112.49L58.47,120.35L63.34,115.11L68.21,97.73L73.09,104.62L77.96,96.9L82.83,91.25L87.7,213.59L92.58,208.21L97.45,119.38L102.32,124.76L112.07,127.52L116.94,104.49L121.81,105.59L126.68,136.76L136.43,133.31L141.3,139.38L146.17,132.76L151.05,131.93L155.92,123.52L160.79,123.66L165.66,118.83L170.54,122.55L175.41,125.04L180.28,99.52L185.15,134.83L190.03,125.59L194.9,115.8L199.77,123.52L204.64,118.42L209.52,120.9L214.39,113.45L219.26,116.76L224.13,123.11L229.01,96.76L233.88,97.73L238.75,137.31L243.62,117.59L248.5,120.07L253.37,123.52L258.24,120.07L263.11,108.35L267.99,115.24L272.86,114.14L277.73,114L282.6,99.52L287.48,94.83L292.35,97.87L297.22,98.28L302.09,125.86L306.97,126.97L311.84,116.49L316.71,110.97L321.58,105.87L326.46,107.11L331.33,107.93L336.2,110.69L341.07,104.49L345.95,140.07L350.82,137.31L355.69,84.35L360.56,85.45L365.44,83.66L370.31,88.62L375.18,89.59L380.05,112.62L384.93,117.87L389.8,79.8L394.67,80.07L399.54,79.94L404.42,77.45L414.16,78.14L419.03,84.76L428.78,75.11L433.65,77.32L438.52,76.49L443.4,74.83L448.27,80.21L453.14,78.14L458.01,75.25L462.89,77.32L467.76,70.14L472.63,66.14L477.5,74L482.38,155.79L487.25,155.66L492.12,158.55L496.99,147.52L501.87,64.07L506.74,64.07L511.61,68.07L516.48,120.9L521.36,126.14L526.23,77.32L531.1,112.35L535.97,91.25L540.85,87.38L545.72,92.07L550.59,94.83L555.46,93.18L560.34,88.9L565.21,83.38L570.08,90.14L574.95,92.07L579.83,96.21L584.7,97.45L589.57,102.28L594.44,89.59L599.32,82.97L604.19,81.87L609.06,83.11L613.93,82.42L618.81,87.52L623.68,76.07L628.55,80.76L633.42,73.45L638.3,77.32L643.17,84.63L648.04,85.18L652.91,78.42L657.79,80.49L662.66,80.35L667.53,77.04L672.4,82.69L677.28,75.11L682.15,69.32L687.02,74.42L691.89,69.45L696.77,70.97L701.64,75.38L706.51,67.25L711.38,74.42L716.26,68.49L721.13,74.42L726,74.83" style="vector-effect: none; fill: none; stroke: rgb(255, 192, 203); stroke-opacity: 1; stroke-width: 2px; opacity: 1;"/></g><g class="points"/><g class="text"/></g><g class="trace scatter trace8a8454" style="stroke-miterlimit: 2; opacity: 1;"><g class="fills"/><g class="errorbars"/><g class="lines"><path class="js-line" d="M0,375.1L4.87,344.89L9.74,212.76L14.62,206.14L19.49,213.59L24.36,197.45L29.23,194.55L34.11,198.14L38.98,195.79L43.85,162.42L48.72,163.1L53.6,180.21L58.47,187.66L63.34,188.9L68.21,180.76L73.09,182.55L77.96,175.66L82.83,171.52L87.7,222.55L102.32,205.03L107.19,205.31L112.07,225.72L116.94,167.66L121.81,176.9L126.68,240.89L131.56,240.07L136.43,232.07L141.3,235.38L146.17,233.86L151.05,231.65L155.92,209.72L160.79,213.31L165.66,218.28L170.54,226.41L175.41,223.79L180.28,172.48L185.15,223.93L190.03,220.07L194.9,208.48L199.77,215.52L204.64,214.69L209.52,218.69L214.39,215.24L219.26,207.38L224.13,208.07L229.01,184.21L233.88,185.86L238.75,248.2L243.62,222L248.5,224.34L253.37,213.45L258.24,211.38L263.11,212.21L267.99,226.27L272.86,212.9L277.73,206.41L282.6,172.21L287.48,166.55L292.35,155.79L297.22,153.59L302.09,131.93L306.97,141.59L311.84,130.55L316.71,128.9L321.58,122.28L326.46,116.62L331.33,112.49L336.2,134.69L341.07,177.45L345.95,236.48L350.82,233.03L355.69,146.14L360.56,162.69L365.44,161.17L370.31,163.52L375.18,156.76L380.05,210.41L384.93,219.1L389.8,146.97L394.67,145.04L399.54,140.21L404.42,134.97L409.29,125.73L414.16,140.48L419.03,137.86L423.91,133.73L428.78,136.35L438.52,145.59L443.4,138.55L448.27,133.31L453.14,139.38L462.89,143.52L467.76,146.69L472.63,122.28L477.5,131.52L482.38,147.8L487.25,153.31L492.12,158L496.99,158.97L501.87,140.62L506.74,139.11L511.61,132.9L516.48,136.21L526.23,133.86L531.1,203.38L535.97,155.11L540.85,151.11L545.72,160.21L550.59,160.76L555.46,160.07L560.34,165.04L565.21,159.93L570.08,152.07L574.95,155.66L579.83,170.41L584.7,166.55L589.57,172.76L594.44,142.83L599.32,138.28L604.19,140.07L609.06,131.8L613.93,140.07L618.81,144.21L623.68,146.83L628.55,146.55L633.42,142.42L638.3,142L643.17,158L648.04,153.45L652.91,146L657.79,147.8L662.66,146.69L667.53,142.97L672.4,140.9L677.28,124.9L682.15,120.9L687.02,121.59L691.89,119.11L696.77,121.87L701.64,139.24L706.51,140.76L711.38,131.93L716.26,132.9L721.13,135.24L726,131.24" style="vector-effect: none; fill: none; stroke: rgb(165, 42, 42); stroke-opacity: 1; stroke-width: 2px; opacity: 1;"/></g><g class="points"/><g class="text"/></g><g class="trace scatter tracef01983" style="stroke-miterlimit: 2; opacity: 1;"><g class="fills"/><g class="errorbars"/><g class="lines"><path class="js-line" d="M0,376.2L4.87,353.72L9.74,226.96L14.62,219.1L19.49,229.03L29.23,203.65L34.11,196.9L38.98,200.48L43.85,176.62L48.72,175.93L53.6,188.9L58.47,201.45L63.34,201.45L68.21,185.86L73.09,195.79L77.96,182.69L82.83,173.17L87.7,232.62L92.58,224.21L97.45,210.69L102.32,207.65L107.19,208.62L112.07,223.93L116.94,173.04L121.81,187.24L126.68,244.62L131.56,243.1L136.43,232.07L141.3,236.76L146.17,233.17L151.05,230.96L155.92,212.34L160.79,215.93L165.66,216.9L170.54,222.14L175.41,227.1L180.28,181.45L185.15,235.38L190.03,222.69L194.9,212.07L199.77,220.07L204.64,216.34L209.52,222.14L214.39,213.31L219.26,209.45L224.13,214L229.01,187.24L233.88,192.35L238.75,253.17L243.62,220.9L248.5,221.86L258.24,213.31L263.11,203.24L267.99,219.93L272.86,210.69L277.73,214.55L282.6,187.24L287.48,179.24L292.35,173.04L297.22,170.28L302.09,149.86L306.97,151.11L311.84,141.86L316.71,139.11L321.58,126.55L326.46,123.38L331.33,125.86L336.2,141.86L341.07,190.41L345.95,252.76L350.82,248.89L355.69,154.42L360.56,169.73L365.44,168.76L370.31,173.04L375.18,169.17L380.05,212.62L384.93,224.34L389.8,155.79L394.67,151.24L399.54,148.35L404.42,144.76L409.29,136.62L414.16,146.97L419.03,144.9L423.91,140.21L428.78,137.04L438.52,145.86L443.4,140.07L448.27,139.24L453.14,145.59L458.01,143.93L462.89,146.69L467.76,144.76L472.63,127.38L477.5,137.45L482.38,172.21L487.25,174.97L492.12,180.76L496.99,172.62L501.87,142.14L511.61,140.62L516.48,143.11L521.36,148.76L526.23,146.69L531.1,210.14L535.97,173.17L540.85,168.48L545.72,174.97L550.59,177.45L555.46,175.66L560.34,175.52L565.21,166.97L570.08,167.1L574.95,168.76L579.83,182.55L584.7,181.72L589.57,191.1L594.44,158.28L599.32,150L604.19,146.42L609.06,147.38L613.93,153.86L618.81,166.97L623.68,155.66L628.55,158L633.42,149.86L638.3,152.48L643.17,169.45L648.04,167.66L652.91,156.07L657.79,158.42L662.66,157.04L667.53,150.42L672.4,155.52L677.28,140.62L682.15,135.11L687.02,139.8L691.89,131.38L696.77,133.04L701.64,148.21L706.51,141.31L711.38,149.04L716.26,146L721.13,148.35L726,148.9" style="vector-effect: none; fill: none; stroke: rgb(128, 128, 128); stroke-opacity: 1; stroke-width: 2px; opacity: 1;"/></g><g class="points"/><g class="text"/></g></g></g><g class="overplot"/><path class="xlines-above crisp" d="M0,0" style="fill: none;"/><path class="ylines-above crisp" d="M0,0" style="fill: none;"/><g class="overlines-above"/><g class="xaxislayer-above"><g class="xtick"><text text-anchor="middle" x="0" y="509" transform="translate(235.57999999999998,0)" style="font-family: 'Open Sans', verdana, arial, sans-serif; font-size: 12px; fill: rgb(42, 63, 95); fill-opacity: 1; white-space: pre; opacity: 1;">20</text></g><g class="xtick"><text text-anchor="middle" x="0" y="509" style="font-family: 'Open Sans', verdana, arial, sans-serif; font-size: 12px; fill: rgb(42, 63, 95); fill-opacity: 1; white-space: pre; opacity: 1;" transform="translate(333.03,0)">40</text></g><g class="xtick"><text text-anchor="middle" x="0" y="509" style="font-family: 'Open Sans', verdana, arial, sans-serif; font-size: 12px; fill: rgb(42, 63, 95); fill-opacity: 1; white-space: pre; opacity: 1;" transform="translate(430.48,0)">60</text></g><g class="xtick"><text text-anchor="middle" x="0" y="509" style="font-family: 'Open Sans', verdana, arial, sans-serif; font-size: 12px; fill: rgb(42, 63, 95); fill-opacity: 1; white-space: pre; opacity: 1;" transform="translate(527.9300000000001,0)">80</text></g><g class="xtick"><text text-anchor="middle" x="0" y="509" style="font-family: 'Open Sans', verdana, arial, sans-serif; font-size: 12px; fill: rgb(42, 63, 95); fill-opacity: 1; white-space: pre; opacity: 1;" transform="translate(625.38,0)">100</text></g><g class="xtick"><text text-anchor="middle" x="0" y="509" style="font-family: 'Open Sans', verdana, arial, sans-serif; font-size: 12px; fill: rgb(42, 63, 95); fill-opacity: 1; white-space: pre; opacity: 1;" transform="translate(722.83,0)">120</text></g><g class="xtick"><text text-anchor="middle" x="0" y="509" style="font-family: 'Open Sans', verdana, arial, sans-serif; font-size: 12px; fill: rgb(42, 63, 95); fill-opacity: 1; white-space: pre; opacity: 1;" transform="translate(820.28,0)">140</text></g></g><g class="yaxislayer-above"><g class="ytick"><text text-anchor="end" x="142" y="4.199999999999999" transform="translate(0,487.23)" style="font-family: 'Open Sans', verdana, arial, sans-serif; font-size: 12px; fill: rgb(42, 63, 95); fill-opacity: 1; white-space: pre; opacity: 1;">50</text></g><g class="ytick"><text text-anchor="end" x="142" y="4.199999999999999" style="font-family: 'Open Sans', verdana, arial, sans-serif; font-size: 12px; fill: rgb(42, 63, 95); fill-opacity: 1; white-space: pre; opacity: 1;" transform="translate(0,418.27)">55</text></g><g class="ytick"><text text-anchor="end" x="142" y="4.199999999999999" style="font-family: 'Open Sans', verdana, arial, sans-serif; font-size: 12px; fill: rgb(42, 63, 95); fill-opacity: 1; white-space: pre; opacity: 1;" transform="translate(0,349.31)">60</text></g><g class="ytick"><text text-anchor="end" x="142" y="4.199999999999999" style="font-family: 'Open Sans', verdana, arial, sans-serif; font-size: 12px; fill: rgb(42, 63, 95); fill-opacity: 1; white-space: pre; opacity: 1;" transform="translate(0,280.35)">65</text></g><g class="ytick"><text text-anchor="end" x="142" y="4.199999999999999" style="font-family: 'Open Sans', verdana, arial, sans-serif; font-size: 12px; fill: rgb(42, 63, 95); fill-opacity: 1; white-space: pre; opacity: 1;" transform="translate(0,211.38)">70</text></g><g class="ytick"><text text-anchor="end" x="142" y="4.199999999999999" style="font-family: 'Open Sans', verdana, arial, sans-serif; font-size: 12px; fill: rgb(42, 63, 95); fill-opacity: 1; white-space: pre; opacity: 1;" transform="translate(0,142.42000000000002)">75</text></g></g><g class="overaxes-above"/></g></g><g class="polarlayer"/><g class="smithlayer"/><g class="ternarylayer"/><g class="geolayer"/><g class="funnelarealayer"/><g class="pielayer"/><g class="iciclelayer"/><g class="treemaplayer"/><g class="sunburstlayer"/><g class="glimages"/><defs id="topdefs-53bd05"><g class="clips"/><clipPath id="legend53bd05"><rect width="128" height="162" x="0" y="0"/></clipPath></defs><g class="layer-above"><g class="imagelayer"/><g class="shapelayer"/></g><g class="infolayer"><g class="legend" pointer-events="all" transform="translate(883.52,100)"><rect class="bg" shape-rendering="crispEdges" width="128" height="162" x="0" y="0" style="stroke: rgb(68, 68, 68); stroke-opacity: 1; fill: rgb(255, 255, 255); fill-opacity: 1; stroke-width: 0px;"/><g class="scrollbox" transform="" clip-path="url(#legend53bd05)"><g class="groups"><g class="traces" transform="translate(0,14.5)" style="opacity: 1;"><text class="legendtext" text-anchor="start" x="40" y="4.680000000000001" style="font-family: 'Open Sans', verdana, arial, sans-serif; font-size: 12px; fill: rgb(42, 63, 95); fill-opacity: 1; white-space: pre;">Train Accuracy</text><g class="layers" style="opacity: 1;"><g class="legendfill"/><g class="legendlines"><path class="js-line" d="M5,0h30" style="fill: none; stroke: rgb(255, 0, 0); stroke-opacity: 1; stroke-width: 2px;"/></g><g class="legendsymbols"><g class="legendpoints"/></g></g><rect class="legendtoggle" x="0" y="-9.5" width="122.71875" height="19" style="fill: rgb(0, 0, 0); fill-opacity: 0;"/></g><g class="traces" transform="translate(0,33.5)" style="opacity: 1;"><text class="legendtext" text-anchor="start" x="40" y="4.680000000000001" style="font-family: 'Open Sans', verdana, arial, sans-serif; font-size: 12px; fill: rgb(42, 63, 95); fill-opacity: 1; white-space: pre;">Test Accuracy</text><g class="layers" style="opacity: 1;"><g class="legendfill"/><g class="legendlines"><path class="js-line" d="M5,0h30" style="fill: none; stroke: rgb(0, 0, 255); stroke-opacity: 1; stroke-width: 2px;"/></g><g class="legendsymbols"><g class="legendpoints"/></g></g><rect class="legendtoggle" x="0" y="-9.5" width="122.71875" height="19" style="fill: rgb(0, 0, 0); fill-opacity: 0;"/></g><g class="traces" transform="translate(0,52.5)" style="opacity: 1;"><text class="legendtext" text-anchor="start" x="40" y="4.680000000000001" style="font-family: 'Open Sans', verdana, arial, sans-serif; font-size: 12px; fill: rgb(42, 63, 95); fill-opacity: 1; white-space: pre;">Train Precision</text><g class="layers" style="opacity: 1;"><g class="legendfill"/><g class="legendlines"><path class="js-line" d="M5,0h30" style="fill: none; stroke: rgb(0, 128, 0); stroke-opacity: 1; stroke-width: 2px;"/></g><g class="legendsymbols"><g class="legendpoints"/></g></g><rect class="legendtoggle" x="0" y="-9.5" width="122.71875" height="19" style="fill: rgb(0, 0, 0); fill-opacity: 0;"/></g><g class="traces" transform="translate(0,71.5)" style="opacity: 1;"><text class="legendtext" text-anchor="start" x="40" y="4.680000000000001" style="font-family: 'Open Sans', verdana, arial, sans-serif; font-size: 12px; fill: rgb(42, 63, 95); fill-opacity: 1; white-space: pre;">Test Precision</text><g class="layers" style="opacity: 1;"><g class="legendfill"/><g class="legendlines"><path class="js-line" d="M5,0h30" style="fill: none; stroke: rgb(255, 165, 0); stroke-opacity: 1; stroke-width: 2px;"/></g><g class="legendsymbols"><g class="legendpoints"/></g></g><rect class="legendtoggle" x="0" y="-9.5" width="122.71875" height="19" style="fill: rgb(0, 0, 0); fill-opacity: 0;"/></g><g class="traces" transform="translate(0,90.5)" style="opacity: 1;"><text class="legendtext" text-anchor="start" x="40" y="4.680000000000001" style="font-family: 'Open Sans', verdana, arial, sans-serif; font-size: 12px; fill: rgb(42, 63, 95); fill-opacity: 1; white-space: pre;">Train Recall</text><g class="layers" style="opacity: 1;"><g class="legendfill"/><g class="legendlines"><path class="js-line" d="M5,0h30" style="fill: none; stroke: rgb(128, 0, 128); stroke-opacity: 1; stroke-width: 2px;"/></g><g class="legendsymbols"><g class="legendpoints"/></g></g><rect class="legendtoggle" x="0" y="-9.5" width="122.71875" height="19" style="fill: rgb(0, 0, 0); fill-opacity: 0;"/></g><g class="traces" transform="translate(0,109.5)" style="opacity: 1;"><text class="legendtext" text-anchor="start" x="40" y="4.680000000000001" style="font-family: 'Open Sans', verdana, arial, sans-serif; font-size: 12px; fill: rgb(42, 63, 95); fill-opacity: 1; white-space: pre;">Test Recall</text><g class="layers" style="opacity: 1;"><g class="legendfill"/><g class="legendlines"><path class="js-line" d="M5,0h30" style="fill: none; stroke: rgb(255, 192, 203); stroke-opacity: 1; stroke-width: 2px;"/></g><g class="legendsymbols"><g class="legendpoints"/></g></g><rect class="legendtoggle" x="0" y="-9.5" width="122.71875" height="19" style="fill: rgb(0, 0, 0); fill-opacity: 0;"/></g><g class="traces" transform="translate(0,128.5)" style="opacity: 1;"><text class="legendtext" text-anchor="start" x="40" y="4.680000000000001" style="font-family: 'Open Sans', verdana, arial, sans-serif; font-size: 12px; fill: rgb(42, 63, 95); fill-opacity: 1; white-space: pre;">Train F1</text><g class="layers" style="opacity: 1;"><g class="legendfill"/><g class="legendlines"><path class="js-line" d="M5,0h30" style="fill: none; stroke: rgb(165, 42, 42); stroke-opacity: 1; stroke-width: 2px;"/></g><g class="legendsymbols"><g class="legendpoints"/></g></g><rect class="legendtoggle" x="0" y="-9.5" width="122.71875" height="19" style="fill: rgb(0, 0, 0); fill-opacity: 0;"/></g><g class="traces" transform="translate(0,147.5)" style="opacity: 1;"><text class="legendtext" text-anchor="start" x="40" y="4.680000000000001" style="font-family: 'Open Sans', verdana, arial, sans-serif; font-size: 12px; fill: rgb(42, 63, 95); fill-opacity: 1; white-space: pre;">Test F1</text><g class="layers" style="opacity: 1;"><g class="legendfill"/><g class="legendlines"><path class="js-line" d="M5,0h30" style="fill: none; stroke: rgb(128, 128, 128); stroke-opacity: 1; stroke-width: 2px;"/></g><g class="legendsymbols"><g class="legendpoints"/></g></g><rect class="legendtoggle" x="0" y="-9.5" width="122.71875" height="19" style="fill: rgb(0, 0, 0); fill-opacity: 0;"/></g></g></g><rect class="scrollbar" rx="20" ry="3" width="0" height="0" x="0" y="0" style="fill: rgb(128, 139, 164); fill-opacity: 1;"/></g><g class="g-gtitle"><text class="gtitle" x="51.2" y="50" text-anchor="start" dy="0em" style="font-family: 'Open Sans', verdana, arial, sans-serif; font-size: 17px; fill: rgb(42, 63, 95); opacity: 1; font-weight: normal; white-space: pre;">Training Metrics - logs/FakeNewsNet-gossipcop_max-vocab=15000_pre=v2_text_domain_T=150_s=5.log</text></g><g class="g-xtitle"><text class="xtitle" x="506" y="537.3" text-anchor="middle" style="font-family: 'Open Sans', verdana, arial, sans-serif; font-size: 14px; fill: rgb(42, 63, 95); opacity: 1; font-weight: normal; white-space: pre;">Epoch</text></g><g class="g-ytitle"><text class="ytitle" transform="rotate(-90,103.965625,298)" x="103.965625" y="298" text-anchor="middle" style="font-family: 'Open Sans', verdana, arial, sans-serif; font-size: 14px; fill: rgb(42, 63, 95); opacity: 1; font-weight: normal; white-space: pre;">Metric Score</text></g></g><g class="menulayer"><g class="updatemenu-container" style="cursor: pointer;"><g class="updatemenu-header-group" transform="translate(12,60)"><g class="updatemenu-header" transform="translate(1,1)" style="pointer-events: all;"><rect class="updatemenu-item-rect" rx="2" ry="2" shape-rendering="crispEdges" x="0" y="0" width="167" height="33" style="stroke: rgb(190, 200, 217); stroke-opacity: 1; fill: rgb(255, 255, 255); fill-opacity: 1; stroke-width: 1px;"/><text class="updatemenu-item-text" text-anchor="start" data-notex="1" x="12" y="19.5" style="font-family: 'Open Sans', verdana, arial, sans-serif; font-size: 12px; fill: rgb(42, 63, 95); fill-opacity: 1; white-space: pre;">All</text></g><text class="updatemenu-header-arrow" text-anchor="end" x="163" y="19.5" style="font-family: 'Open Sans', verdana, arial, sans-serif; font-size: 12px; fill: rgb(42, 63, 95); fill-opacity: 1;">▼</text></g><g class="updatemenu-dropdown-button-group" updatemenu-active-index="-1" style="pointer-events: all;"><rect class="scrollbox-bg" opacity="0" x="0" y="0" width="0" height="0" style="pointer-events: all;"/></g></g></g></svg>