<svg class="main-svg" xmlns="http://www.w3.org/2000/svg" xmlns:xlink="http://www.w3.org/1999/xlink" width="1024" height="576" style="" viewBox="0 0 1024 576"><rect x="0" y="0" width="1024" height="576" style="fill: rgb(255, 255, 255); fill-opacity: 1;"/><defs id="defs-ded162"><g class="clips"><clipPath id="clipded162xyplot" class="plotclip"><rect width="726" height="396"/></clipPath><clipPath class="axesclip" id="clipded162x"><rect x="143" y="0" width="726" height="576"/></clipPath><clipPath class="axesclip" id="clipded162y"><rect x="0" y="100" width="1024" height="396"/></clipPath><clipPath class="axesclip" id="clipded162xy"><rect x="143" y="100" width="726" height="396"/></clipPath></g><g class="gradients"/><g class="patterns"/></defs><g class="bglayer"><rect class="bg" x="143" y="100" width="726" height="396" style="fill: rgb(229, 236, 246); fill-opacity: 1; stroke-width: 0;"/></g><g class="layer-below"><g class="imagelayer"/><g class="shapelayer"/></g><g class="cartesianlayer"><g class="subplot xy"><g class="layer-subplot"><g class="shapelayer"/><g class="imagelayer"/></g><g class="minor-gridlayer"><g class="x"/><g class="y"/></g><g class="gridlayer"><g class="x"><path class="xgrid crisp" transform="translate(235.57999999999998,0)" d="M0,100v396" style="stroke: rgb(255, 255, 255); stroke-opacity: 1; stroke-width: 1px;"/><path class="xgrid crisp" transform="translate(333.03,0)" d="M0,100v396" style="stroke: rgb(255, 255, 255); stroke-opacity: 1; stroke-width: 1px;"/><path class="xgrid crisp" transform="translate(430.48,0)" d="M0,100v396" style="stroke: rgb(255, 255, 255); stroke-opacity: 1; stroke-width: 1px;"/><path class="xgrid crisp" transform="translate(527.9300000000001,0)" d="M0,100v396" style="stroke: rgb(255, 255, 255); stroke-opacity: 1; stroke-width: 1px;"/><path class="xgrid crisp" transform="translate(625.38,0)" d="M0,100v396" style="stroke: rgb(255, 255, 255); stroke-opacity: 1; stroke-width: 1px;"/><path class="xgrid crisp" transform="translate(722.83,0)" d="M0,100v396" style="stroke: rgb(255, 255, 255); stroke-opacity: 1; stroke-width: 1px;"/><path class="xgrid crisp" transform="translate(820.28,0)" d="M0,100v396" style="stroke: rgb(255, 255, 255); stroke-opacity: 1; stroke-width: 1px;"/></g><g class="y"><path class="ygrid crisp" transform="translate(0,469.04)" d="M143,0h726" style="stroke: rgb(255, 255, 255); stroke-opacity: 1; stroke-width: 1px;"/><path class="ygrid crisp" transform="translate(0,410.37)" d="M143,0h726" style="stroke: rgb(255, 255, 255); stroke-opacity: 1; stroke-width: 1px;"/><path class="ygrid crisp" transform="translate(0,351.69)" d="M143,0h726" style="stroke: rgb(255, 255, 255); stroke-opacity: 1; stroke-width: 1px;"/><path class="ygrid crisp" transform="translate(0,293.01)" d="M143,0h726" style="stroke: rgb(255, 255, 255); stroke-opacity: 1; stroke-width: 1px;"/><path class="ygrid crisp" transform="translate(0,234.34)" d="M143,0h726" style="stroke: rgb(255, 255, 255); stroke-opacity: 1; stroke-width: 1px;"/><path class="ygrid crisp" transform="translate(0,175.66)" d="M143,0h726" style="stroke: rgb(255, 255, 255); stroke-opacity: 1; stroke-width: 1px;"/><path class="ygrid crisp" transform="translate(0,116.98)" d="M143,0h726" style="stroke: rgb(255, 255, 255); stroke-opacity: 1; stroke-width: 1px;"/></g></g><g class="zerolinelayer"/><path class="xlines-below"/><path class="ylines-below"/><g class="overlines-below"/><g class="xaxislayer-below"/><g class="yaxislayer-below"/><g class="overaxes-below"/><g class="plot" transform="translate(143,100)" clip-path="url(#clipded162xyplot)"><g class="scatterlayer mlayer"><g class="trace scatter tracee17b40" style="stroke-miterlimit: 2; opacity: 1;"><g class="fills"/><g class="errorbars"/><g class="lines"><path class="js-line" d="M0,244.18L4.87,224.7L9.74,189.96L14.62,87.04L19.49,120.49L24.36,126L29.23,142.67L34.11,130.11L38.98,132.93L43.85,120.49L48.72,110.75L53.6,124.6L58.47,124.6L63.34,119.08L68.21,267.77L73.09,260.84L77.96,262.25L82.83,255.33L87.7,256.74L92.58,253.92L97.45,85.63L102.32,81.53L107.19,74.6L112.07,99.6L116.94,95.38L121.81,88.45L126.68,92.68L131.56,95.38L136.43,78.71L141.3,85.63L146.17,87.04L151.05,89.86L155.92,103.71L160.79,103.71L165.66,110.75L170.54,81.53L175.41,81.53L180.28,81.53L185.15,87.04L190.03,85.63L194.9,81.53L199.77,71.79L204.64,64.86L209.52,66.15L214.39,60.64L219.26,60.64L224.13,57.82L229.01,49.49L233.88,50.9L238.75,57.82L243.62,55.12L248.5,56.41L253.37,63.46L263.11,66.15L267.99,60.64L277.73,75.89L282.6,78.71L287.48,67.56L292.35,73.2L297.22,57.82L302.09,53.71L306.97,49.49L311.84,49.49L316.71,56.41L321.58,64.86L326.46,62.05L331.33,48.08L336.2,71.79L341.07,60.64L345.95,87.04L350.82,82.94L355.69,82.94L360.56,81.53L365.44,84.23L370.31,84.23L375.18,68.97L380.05,62.05L384.93,73.2L389.8,89.86L394.67,98.19L399.54,98.19L404.42,80.12L409.29,75.89L414.16,68.97L419.03,77.3L423.91,63.46L428.78,63.46L433.65,55.12L438.52,57.82L443.4,64.86L448.27,67.56L453.14,57.82L458.01,53.71L462.89,53.71L467.76,49.49L472.63,46.79L477.5,34.23L487.25,48.08L492.12,48.08L496.99,38.34L501.87,34.23L506.74,52.31L511.61,56.41L516.48,53.71L521.36,62.05L526.23,70.38L531.1,50.9L535.97,88.45L540.85,87.04L545.72,88.45L550.59,77.3L555.46,78.71L560.34,78.71L565.21,41.16L570.08,41.16L574.95,46.79L579.83,55.12L584.7,55.12L589.57,57.82L594.44,68.97L599.32,68.97L604.19,66.15L609.06,62.05L613.93,59.23L618.81,59.23L623.68,59.23L628.55,60.64L633.42,42.57L638.3,35.64L643.17,39.75L648.04,49.49L652.91,56.41L657.79,52.31L662.66,55.12L667.53,38.34L672.4,39.75L677.28,34.23L682.15,35.64L687.02,42.57L691.89,34.23L696.77,45.38L706.51,50.9L711.38,59.23L716.26,67.56L721.13,62.05L726,57.82" style="vector-effect: none; fill: none; stroke: rgb(255, 0, 0); stroke-opacity: 1; stroke-width: 2px; opacity: 1;"/></g><g class="points"/><g class="text"/></g><g class="trace scatter trace933463" style="stroke-miterlimit: 2; opacity: 1;"><g class="fills"/><g class="errorbars"/><g class="lines"><path class="js-line" d="M0,278.21L4.87,300.39L9.74,267.18L14.62,228.45L19.49,228.45L24.36,228.45L29.23,245L38.98,211.79L43.85,211.79L48.72,211.79L53.6,228.45L58.47,228.45L63.34,184.21L68.21,344.63L73.09,350.27L77.96,355.78L82.83,372.33L87.7,366.81L92.58,372.33L97.45,178.58L102.32,184.21L107.19,151L112.07,178.58L116.94,195.24L121.81,189.73L126.68,173.06L131.56,206.27L136.43,145.37L141.3,151L146.17,156.52L151.05,178.58L155.92,162.03L160.79,195.24L165.66,200.76L170.54,195.24L175.41,178.58L180.28,184.21L185.15,206.27L190.03,211.79L194.9,200.76L199.77,195.24L204.64,211.79L209.52,195.24L214.39,195.24L219.26,184.21L224.13,173.06L229.01,145.37L233.88,145.37L238.75,139.85L243.62,151L248.5,151L253.37,178.58L258.24,156.52L263.11,189.73L267.99,173.06L272.86,195.24L277.73,206.27L287.48,195.24L292.35,167.55L297.22,139.85L302.09,139.85L311.84,139.85L316.71,134.34L321.58,178.58L326.46,173.06L331.33,167.55L336.2,189.73L341.07,145.37L345.95,200.76L350.82,184.21L355.69,200.76L360.56,189.73L365.44,206.27L370.31,195.24L375.18,189.73L380.05,178.58L384.93,162.03L389.8,184.21L394.67,195.24L399.54,206.27L404.42,178.58L409.29,156.52L414.16,167.55L419.03,178.58L423.91,167.55L433.65,167.55L438.52,156.52L443.4,184.21L448.27,195.24L453.14,167.55L458.01,167.55L462.89,162.03L467.76,162.03L477.5,139.85L482.38,167.55L487.25,167.55L492.12,145.37L496.99,139.85L501.87,151L506.74,167.55L511.61,167.55L521.36,134.34L526.23,145.37L531.1,128.82L535.97,151L545.72,151L550.59,139.85L560.34,139.85L565.21,145.37L570.08,151L574.95,139.85L579.83,151L584.7,151L594.44,151L599.32,156.52L604.19,139.85L609.06,134.34L613.93,128.82L618.81,151L623.68,139.85L628.55,162.03L633.42,139.85L638.3,134.34L643.17,134.34L648.04,145.37L652.91,162.03L657.79,162.03L667.53,151L672.4,156.52L677.28,162.03L682.15,162.03L687.02,162.03L691.89,145.37L696.77,156.52L701.64,173.06L706.51,167.55L711.38,195.24L716.26,195.24L721.13,189.73L726,173.06" style="vector-effect: none; fill: none; stroke: rgb(0, 0, 255); stroke-opacity: 1; stroke-width: 2px; opacity: 1;"/></g><g class="points"/><g class="text"/></g><g class="trace scatter traced6fd78" style="stroke-miterlimit: 2; opacity: 1;"><g class="fills"/><g class="errorbars"/><g class="lines"><path class="js-line" d="M0,215.19L9.74,160.04L14.62,93.61L19.49,117.79L24.36,112.27L29.23,129.17L34.11,119.2L38.98,119.78L43.85,109.69L48.72,103.59L53.6,110.51L58.47,112.86L63.34,107.23L68.21,166.84L73.09,141.03L77.96,144.08L82.83,153.93L87.7,158.86L92.58,155.34L97.45,73.55L102.32,68.97L107.19,63.81L112.07,85.99L116.94,82.23L121.81,77.07L126.68,82.35L131.56,80.59L136.43,69.09L141.3,75.78L146.17,73.78L151.05,74.13L155.92,85.63L160.79,83.76L165.66,90.45L170.54,68.15L175.41,67.33L180.28,68.15L185.15,71.32L190.03,70.26L194.9,68.97L199.77,60.99L204.64,56.53L209.52,57.59L214.39,54.07L219.26,54.07L224.13,52.54L229.01,47.03L233.88,47.61L238.75,51.25L243.62,50.31L248.5,52.07L253.37,56.88L258.24,59.82L263.11,58.29L267.99,54.07L277.73,64.04L282.6,67.68L287.48,57.94L292.35,64.28L297.22,51.95L302.09,48.67L306.97,43.51L311.84,43.51L316.71,50.78L321.58,55.12L326.46,53.71L331.33,41.86L336.2,60.99L341.07,53.36L345.95,71.32L350.82,69.91L355.69,67.45L360.56,67.33L365.44,68.5L370.31,67.56L375.18,57.47L380.05,52.31L384.93,60.52L389.8,72.37L394.67,74.25L399.54,75.31L404.42,61.11L409.29,61.69L414.16,55.94L419.03,62.63L423.91,53.36L428.78,52.66L433.65,47.14L438.52,51.25L443.4,55.12L448.27,56.41L458.01,49.84L462.89,50.43L472.63,41.39L477.5,30.36L482.38,37.05L487.25,45.38L492.12,44.8L496.99,36.46L501.87,32.59L506.74,46.32L511.61,48.9L516.48,46.79L521.36,53.71L526.23,62.16L531.1,45.27L535.97,88.33L540.85,87.51L545.72,87.86L550.59,73.43L555.46,74.6L560.34,74.02L565.21,39.75L570.08,38.69L574.95,41.98L579.83,47.85L584.7,47.85L589.57,50.66L594.44,59.7L599.32,61.81L604.19,59L609.06,53.71L613.93,51.02L623.68,51.02L628.55,49.84L633.42,38.69L638.3,32L643.17,33.41L648.04,43.51L652.91,47.5L657.79,43.62L662.66,47.14L667.53,33.65L672.4,35.88L677.28,29.77L682.15,31.42L687.02,38.69L691.89,30.36L696.77,38.34L701.64,39.75L706.51,43.27L711.38,47.26L716.26,56.41L721.13,51.6L726,48.55" style="vector-effect: none; fill: none; stroke: rgb(0, 128, 0); stroke-opacity: 1; stroke-width: 2px; opacity: 1;"/></g><g class="points"/><g class="text"/></g><g class="trace scatter trace52fbbd" style="stroke-miterlimit: 2; opacity: 1;"><g class="fills"/><g class="errorbars"/><g class="lines"><path class="js-line" d="M0,235.61L4.87,258.85L9.74,237.49L14.62,253.1L19.49,231.27L24.36,215.54L29.23,222.94L34.11,208.03L38.98,185.03L43.85,197L48.72,204.04L58.47,211.91L63.34,177.99L68.21,253.1L73.09,216.48L77.96,228.45L82.83,276.68L87.7,273.16L92.58,276.68L97.45,174L102.32,177.99L107.19,151L112.07,170.72L116.94,189.02L121.81,185.15L126.68,175.88L131.56,200.17L136.43,154.4L141.3,158.86L146.17,157.92L151.05,170.72L155.92,155.81L160.79,178.34L165.66,189.49L170.54,178.34L175.41,167.19L180.28,174.59L190.03,189.26L194.9,181.98L199.77,189.02L204.64,200.64L209.52,185.74L214.39,185.74L219.26,177.99L224.13,173.06L229.01,152.06L233.88,149.59L238.75,139.85L243.62,151L248.5,147.95L253.37,174L258.24,151.82L263.11,181.86L267.99,170.01L272.86,182.1L277.73,185.62L282.6,181.98L287.48,182.1L292.35,162.97L297.22,139.85L302.09,136.8L311.84,136.8L316.71,132.81L321.58,163.56L326.46,159.92L331.33,156.16L336.2,174.71L341.07,143.96L345.95,177.99L350.82,167.19L355.69,177.99L360.56,170.83L365.44,181.51L370.31,174.47L375.18,170.83L380.05,163.56L384.93,148.77L389.8,167.19L394.67,165.9L399.54,177.17L404.42,163.56L409.29,141.26L414.16,152.41L419.03,167.19L423.91,159.68L428.78,166.02L433.65,166.02L438.52,157.92L443.4,174.59L448.27,185.74L453.14,162.97L458.01,166.02L462.89,158.98L467.76,158.98L472.63,147.95L477.5,139.85L482.38,162.97L487.25,162.97L492.12,143.96L496.99,142.67L501.87,153.82L506.74,166.02L511.61,162.97L516.48,151L521.36,135.74L526.23,146.89L531.1,134.22L535.97,171.07L540.85,172.24L545.72,171.07L550.59,153.93L560.34,153.93L565.21,146.89L570.08,151L574.95,142.67L579.83,147.95L584.7,147.95L594.44,147.95L599.32,151.82L604.19,136.8L609.06,132.81L613.93,128.82L618.81,144.66L623.68,139.85L628.55,152.41L633.42,139.85L638.3,135.74L643.17,135.74L648.04,146.89L652.91,158.98L657.79,158.98L662.66,151.82L667.53,147.95L677.28,162.03L682.15,164.85L687.02,162.03L691.89,149.59L701.64,170.01L706.51,166.02L711.38,189.02L716.26,189.02L721.13,185.15L726,173.06" style="vector-effect: none; fill: none; stroke: rgb(255, 165, 0); stroke-opacity: 1; stroke-width: 2px; opacity: 1;"/></g><g class="points"/><g class="text"/></g><g class="trace scatter trace47ea92" style="stroke-miterlimit: 2; opacity: 1;"><g class="fills"/><g class="errorbars"/><g class="lines"><path class="js-line" d="M0,219.06L4.87,195.83L9.74,164.03L14.62,89.74L19.49,109.69L24.36,107.58L29.23,124.71L34.11,113.45L38.98,114.97L43.85,103.71L48.72,96.31L53.6,105.94L58.47,107.35L63.34,101.59L68.21,218.24L73.09,207.68L77.96,209.32L82.83,206.04L87.7,208.15L92.58,205.33L97.45,67.33L102.32,62.87L107.19,56.88L112.07,80.71L116.94,76.6L121.81,70.61L126.68,75.66L131.56,75.78L136.43,61.81L141.3,68.74L146.17,68.03L151.05,69.56L155.92,82.47L160.79,81.53L165.66,88.45L170.54,62.4L175.41,61.93L180.28,62.4L185.15,66.74L190.03,65.57L194.9,62.87L199.77,53.95L204.64,48.43L209.52,49.72L214.39,45.38L219.26,45.38L224.13,43.39L229.01,37.17L233.88,37.87L238.75,42.45L243.62,41.04L248.5,42.68L253.37,48.2L258.24,50.78L263.11,50.08L267.99,45.38L272.86,51.6L277.73,57.59L282.6,60.87L287.48,50.43L292.35,56.53L297.22,42.92L302.09,39.4L306.97,34.35L311.84,34.35L316.71,41.74L321.58,47.5L326.46,45.62L331.33,32.71L336.2,53.95L341.07,44.91L345.95,66.74L350.82,64.04L360.56,61.93L365.44,63.81L370.31,63.34L375.18,50.66L380.05,44.68L384.93,54.3L389.8,68.62L394.67,74.02L399.54,74.49L404.42,57.94L409.29,56.18L414.16,49.72L419.03,57.35L423.91,45.85L428.78,45.38L433.65,38.69L438.52,42.45L443.4,47.5L448.27,49.49L453.14,43.86L458.01,40.22L462.89,40.69L472.63,32L477.5,20.27L482.38,27.19L487.25,35.53L492.12,35.06L496.99,26.14L501.87,22.15L506.74,37.29L511.61,40.34L516.48,37.99L526.23,54.18L531.1,35.99L535.97,106.52L540.85,104.41L545.72,106.99L550.59,97.49L555.46,99.13L560.34,99.6L565.21,29.54L570.08,28.6L574.95,32.47L579.83,39.16L584.7,39.16L589.57,41.98L594.44,52.07L599.32,53.48L604.19,50.55L609.06,45.62L613.93,42.8L618.81,42.8L628.55,42.57L633.42,28.84L638.3,21.91L643.17,24.14L648.04,34.35L652.91,39.4L657.79,35.41L662.66,38.69L667.53,23.91L672.4,26.02L677.28,19.8L682.15,21.44L687.02,28.84L691.89,20.27L696.77,29.42L701.64,31.3L706.51,34.7L711.38,40.45L716.26,49.49L721.13,44.21L726,40.69" style="vector-effect: none; fill: none; stroke: rgb(128, 0, 128); stroke-opacity: 1; stroke-width: 2px; opacity: 1;"/></g><g class="points"/><g class="text"/></g><g class="trace scatter trace80a4ab" style="stroke-miterlimit: 2; opacity: 1;"><g class="fills"/><g class="errorbars"/><g class="lines"><path class="js-line" d="M0,230.92L4.87,254.74L9.74,228.45L14.62,248.05L19.49,216.6L24.36,200.88L29.23,210.97L34.11,194.66L38.98,172.01L43.85,181.51L48.72,187.73L53.6,194.66L58.47,197.82L63.34,159.57L68.21,270.82L73.09,259.55L77.96,267.06L82.83,295.93L87.7,291.47L92.58,295.93L97.45,155.22L102.32,159.57L107.19,130.23L116.94,171.54L121.81,167.08L126.68,157.1L131.56,183.39L136.43,135.28L141.3,139.62L146.17,137.74L151.05,152.06L155.92,135.74L160.79,162.03L165.66,172.71L170.54,162.03L175.41,148.89L180.28,156.4L185.15,167.66L190.03,175.17L194.9,166.49L199.77,171.54L204.64,184.68L209.52,168.37L214.39,168.37L219.26,159.57L224.13,153.93L229.01,132.11L233.88,128.94L238.75,118.26L243.62,130.23L248.5,127.06L253.37,155.22L258.24,131.4L263.11,164.03L267.99,150.88L272.86,165.2L277.73,170.83L282.6,166.49L287.48,165.2L297.22,118.26L302.09,115.09L311.84,115.09L316.71,110.75L321.58,145.84L326.46,141.38L331.33,137.04L336.2,157.69L341.07,122.6L345.95,163.32L350.82,150.18L355.69,163.32L360.56,154.52L365.44,167.66L370.31,158.98L375.18,154.52L380.05,145.84L384.93,129.52L389.8,150.18L394.67,152.64L399.54,164.5L404.42,145.84L409.29,122.01L414.16,133.87L419.03,148.89L423.91,140.2L428.78,146.42L433.65,146.42L438.52,137.74L443.4,156.4L448.27,168.37L453.14,143.37L458.01,146.42L462.89,138.91L467.76,138.91L472.63,127.06L477.5,118.26L482.38,143.37L487.25,143.37L492.12,122.6L496.99,121.43L501.87,133.28L506.74,146.42L511.61,143.37L516.48,130.23L521.36,113.92L526.23,125.77L531.1,112.63L535.97,199.35L540.85,196.18L545.72,199.35L550.59,193.72L560.34,193.72L565.21,125.77L570.08,130.23L574.95,121.43L579.83,127.06L584.7,127.06L594.44,127.06L599.32,131.4L604.19,115.09L609.06,110.75L613.93,106.41L618.81,123.89L623.68,118.26L628.55,132.69L633.42,118.26L638.3,113.92L643.17,113.92L648.04,125.77L652.91,138.91L657.79,138.91L662.66,131.4L667.53,127.06L677.28,142.08L682.15,145.25L687.02,142.08L691.89,128.94L701.64,150.88L706.51,146.42L711.38,171.54L716.26,171.54L721.13,167.08L726,153.93" style="vector-effect: none; fill: none; stroke: rgb(255, 192, 203); stroke-opacity: 1; stroke-width: 2px; opacity: 1;"/></g><g class="points"/><g class="text"/></g><g class="trace scatter trace0c33e4" style="stroke-miterlimit: 2; opacity: 1;"><g class="fills"/><g class="errorbars"/><g class="lines"><path class="js-line" d="M0,244.41L4.87,225.28L9.74,190.08L14.62,92.09L19.49,121.66L24.36,126.24L29.23,142.9L34.11,130.58L38.98,133.16L43.85,120.84L48.72,111.34L53.6,124.83L58.47,124.95L63.34,119.32L68.21,277.98L73.09,273.4L77.96,274.69L82.83,264.71L87.7,265.77L92.58,262.84L97.45,85.99L102.32,81.76L107.19,74.84L112.07,99.83L116.94,95.61L121.81,88.8L126.68,93.03L131.56,95.61L136.43,79.18L141.3,86.1L146.17,87.28L151.05,89.98L155.92,103.82L160.79,103.82L165.66,110.75L170.54,81.76L175.41,81.64L180.28,81.76L185.15,87.16L190.03,85.75L194.9,81.76L199.77,72.14L204.64,65.33L209.52,66.62L214.39,61.23L219.26,61.23L224.13,58.53L229.01,50.55L233.88,51.84L238.75,58.41L243.62,55.83L248.5,57.24L253.37,64.04L263.11,66.74L267.99,61.23L277.73,76.25L282.6,79.06L287.48,68.03L292.35,73.55L297.22,58.53L302.09,54.42L306.97,50.19L311.84,50.19L321.58,65.22L326.46,62.52L331.33,48.67L336.2,72.14L341.07,61.23L345.95,87.16L350.82,83.17L355.69,83.05L360.56,81.64L365.44,84.46L370.31,84.34L375.18,69.32L380.05,62.4L384.93,73.43L389.8,89.98L394.67,98.19L399.54,98.19L404.42,80.12L409.29,76.13L414.16,69.21L419.03,77.54L423.91,63.81L428.78,63.69L433.65,55.59L438.52,58.41L443.4,65.22L448.27,67.91L453.14,58.64L458.01,54.54L462.89,54.65L467.76,50.43L472.63,47.38L477.5,34.94L482.38,41.98L487.25,49.02L492.12,49.02L496.99,39.4L501.87,35.29L506.74,52.89L511.61,57L516.48,54.3L521.36,62.52L526.23,70.85L531.1,51.6L535.97,101.13L540.85,99.25L545.72,101.36L550.59,90.8L555.46,92.44L560.34,92.68L565.21,42.21L570.08,42.1L574.95,47.5L579.83,55.59L584.7,55.59L589.57,58.41L594.44,69.44L599.32,69.56L604.19,66.74L609.06,62.52L613.93,59.7L618.81,59.7L623.68,59.7L628.55,60.99L633.42,43.39L638.3,36.46L643.17,40.34L648.04,50.19L652.91,56.88L657.79,52.78L662.66,55.59L667.53,39.05L672.4,40.57L677.28,34.94L682.15,36.35L687.02,43.39L691.89,34.94L696.77,45.85L706.51,51.37L711.38,59.47L716.26,67.91L721.13,62.4L726,58.29" style="vector-effect: none; fill: none; stroke: rgb(165, 42, 42); stroke-opacity: 1; stroke-width: 2px; opacity: 1;"/></g><g class="points"/><g class="text"/></g><g class="trace scatter trace26aae4" style="stroke-miterlimit: 2; opacity: 1;"><g class="fills"/><g class="errorbars"/><g class="lines"><path class="js-line" d="M0,278.45L4.87,300.62L9.74,268.35L19.49,236.32L24.36,231.97L29.23,247.11L34.11,230.68L38.98,213.2L43.85,214.84L48.72,216.25L53.6,230.68L58.47,231.27L63.34,188.55L68.21,347.21L73.09,358.01L77.96,363.06L82.83,376.2L87.7,370.22L92.58,376.2L97.45,183.39L102.32,188.55L107.19,156.4L112.07,182.69L116.94,199.82L121.81,194.66L126.68,179.87L131.56,211.08L136.43,153.93L141.3,159.1L146.17,162.5L151.05,182.69L155.92,166.14L160.79,197.82L165.66,204.28L170.54,197.82L175.41,181.98L180.28,187.85L185.15,207.92L190.03,213.67L194.9,203.1L199.77,199.82L204.64,215.54L209.52,199.11L214.39,199.11L219.26,188.55L224.13,178.93L229.01,153L233.88,152.06L238.75,145.13L243.62,156.4L248.5,155.69L253.37,183.39L258.24,160.98L263.11,193.83L267.99,178.11L272.86,198.41L277.73,208.39L287.48,198.41L292.35,172.12L297.22,145.13L302.09,144.43L311.84,144.43L316.71,139.15L321.58,181.39L326.46,176.11L331.33,170.83L336.2,192.54L341.07,150.41L345.95,202.52L350.82,186.68L355.69,202.52L360.56,191.96L365.44,207.92L370.31,197.24L375.18,191.96L380.05,181.39L384.93,164.85L389.8,186.68L394.67,196.42L399.54,207.45L404.42,181.39L409.29,158.98L414.16,170.25L419.03,181.98L423.91,171.42L428.78,172.95L433.65,172.95L438.52,162.5L443.4,187.85L448.27,199.11L453.14,172.12L458.01,172.95L462.89,166.96L467.76,166.96L472.63,155.69L477.5,145.13L482.38,172.12L487.25,172.12L492.12,150.41L496.99,145.95L501.87,157.22L506.74,172.95L511.61,172.12L521.36,139.97L526.23,151.23L531.1,135.51L535.97,191.37L540.85,188.91L545.72,191.37L550.59,183.98L555.46,183.98L560.34,183.98L565.21,151.23L570.08,156.4L574.95,145.95L579.83,155.69L584.7,155.69L594.44,155.69L599.32,160.98L604.19,144.43L609.06,139.15L613.93,133.87L618.81,154.99L623.68,145.13L628.55,165.55L633.42,145.13L638.3,139.97L643.17,139.97L648.04,151.23L652.91,166.96L657.79,166.96L667.53,155.69L672.4,161.68L677.28,167.66L682.15,168.6L687.02,167.66L691.89,152.06L696.77,163.32L701.64,178.11L706.51,172.95L711.38,199.82L716.26,199.82L721.13,194.66L726,178.93" style="vector-effect: none; fill: none; stroke: rgb(128, 128, 128); stroke-opacity: 1; stroke-width: 2px; opacity: 1;"/></g><g class="points"/><g class="text"/></g></g></g><g class="overplot"/><path class="xlines-above crisp" d="M0,0" style="fill: none;"/><path class="ylines-above crisp" d="M0,0" style="fill: none;"/><g class="overlines-above"/><g class="xaxislayer-above"><g class="xtick"><text text-anchor="middle" x="0" y="509" transform="translate(235.57999999999998,0)" style="font-family: 'Open Sans', verdana, arial, sans-serif; font-size: 12px; fill: rgb(42, 63, 95); fill-opacity: 1; white-space: pre; opacity: 1;">20</text></g><g class="xtick"><text text-anchor="middle" x="0" y="509" style="font-family: 'Open Sans', verdana, arial, sans-serif; font-size: 12px; fill: rgb(42, 63, 95); fill-opacity: 1; white-space: pre; opacity: 1;" transform="translate(333.03,0)">40</text></g><g class="xtick"><text text-anchor="middle" x="0" y="509" style="font-family: 'Open Sans', verdana, arial, sans-serif; font-size: 12px; fill: rgb(42, 63, 95); fill-opacity: 1; white-space: pre; opacity: 1;" transform="translate(430.48,0)">60</text></g><g class="xtick"><text text-anchor="middle" x="0" y="509" style="font-family: 'Open Sans', verdana, arial, sans-serif; font-size: 12px; fill: rgb(42, 63, 95); fill-opacity: 1; white-space: pre; opacity: 1;" transform="translate(527.9300000000001,0)">80</text></g><g class="xtick"><text text-anchor="middle" x="0" y="509" style="font-family: 'Open Sans', verdana, arial, sans-serif; font-size: 12px; fill: rgb(42, 63, 95); fill-opacity: 1; white-space: pre; opacity: 1;" transform="translate(625.38,0)">100</text></g><g class="xtick"><text text-anchor="middle" x="0" y="509" style="font-family: 'Open Sans', verdana, arial, sans-serif; font-size: 12px; fill: rgb(42, 63, 95); fill-opacity: 1; white-space: pre; opacity: 1;" transform="translate(722.83,0)">120</text></g><g class="xtick"><text text-anchor="middle" x="0" y="509" style="font-family: 'Open Sans', verdana, arial, sans-serif; font-size: 12px; fill: rgb(42, 63, 95); fill-opacity: 1; white-space: pre; opacity: 1;" transform="translate(820.28,0)">140</text></g></g><g class="yaxislayer-above"><g class="ytick"><text text-anchor="end" x="142" y="4.199999999999999" transform="translate(0,469.04)" style="font-family: 'Open Sans', verdana, arial, sans-serif; font-size: 12px; fill: rgb(42, 63, 95); fill-opacity: 1; white-space: pre; opacity: 1;">55</text></g><g class="ytick"><text text-anchor="end" x="142" y="4.199999999999999" style="font-family: 'Open Sans', verdana, arial, sans-serif; font-size: 12px; fill: rgb(42, 63, 95); fill-opacity: 1; white-space: pre; opacity: 1;" transform="translate(0,410.37)">60</text></g><g class="ytick"><text text-anchor="end" x="142" y="4.199999999999999" style="font-family: 'Open Sans', verdana, arial, sans-serif; font-size: 12px; fill: rgb(42, 63, 95); fill-opacity: 1; white-space: pre; opacity: 1;" transform="translate(0,351.69)">65</text></g><g class="ytick"><text text-anchor="end" x="142" y="4.199999999999999" style="font-family: 'Open Sans', verdana, arial, sans-serif; font-size: 12px; fill: rgb(42, 63, 95); fill-opacity: 1; white-space: pre; opacity: 1;" transform="translate(0,293.01)">70</text></g><g class="ytick"><text text-anchor="end" x="142" y="4.199999999999999" style="font-family: 'Open Sans', verdana, arial, sans-serif; font-size: 12px; fill: rgb(42, 63, 95); fill-opacity: 1; white-space: pre; opacity: 1;" transform="translate(0,234.34)">75</text></g><g class="ytick"><text text-anchor="end" x="142" y="4.199999999999999" style="font-family: 'Open Sans', verdana, arial, sans-serif; font-size: 12px; fill: rgb(42, 63, 95); fill-opacity: 1; white-space: pre; opacity: 1;" transform="translate(0,175.66)">80</text></g><g class="ytick"><text text-anchor="end" x="142" y="4.199999999999999" style="font-family: 'Open Sans', verdana, arial, sans-serif; font-size: 12px; fill: rgb(42, 63, 95); fill-opacity: 1; white-space: pre; opacity: 1;" transform="translate(0,116.98)">85</text></g></g><g class="overaxes-above"/></g></g><g class="polarlayer"/><g class="smithlayer"/><g class="ternarylayer"/><g class="geolayer"/><g class="funnelarealayer"/><g class="pielayer"/><g class="iciclelayer"/><g class="treemaplayer"/><g class="sunburstlayer"/><g class="glimages"/><defs id="topdefs-ded162"><g class="clips"/><clipPath id="legendded162"><rect width="128" height="162" x="0" y="0"/></clipPath></defs><g class="layer-above"><g class="imagelayer"/><g class="shapelayer"/></g><g class="infolayer"><g class="legend" pointer-events="all" transform="translate(883.52,100)"><rect class="bg" shape-rendering="crispEdges" width="128" height="162" x="0" y="0" style="stroke: rgb(68, 68, 68); stroke-opacity: 1; fill: rgb(255, 255, 255); fill-opacity: 1; stroke-width: 0px;"/><g class="scrollbox" transform="" clip-path="url(#legendded162)"><g class="groups"><g class="traces" transform="translate(0,14.5)" style="opacity: 1;"><text class="legendtext" text-anchor="start" x="40" y="4.680000000000001" style="font-family: 'Open Sans', verdana, arial, sans-serif; font-size: 12px; fill: rgb(42, 63, 95); fill-opacity: 1; white-space: pre;">Train Accuracy</text><g class="layers" style="opacity: 1;"><g class="legendfill"/><g class="legendlines"><path class="js-line" d="M5,0h30" style="fill: none; stroke: rgb(255, 0, 0); stroke-opacity: 1; stroke-width: 2px;"/></g><g class="legendsymbols"><g class="legendpoints"/></g></g><rect class="legendtoggle" x="0" y="-9.5" width="122.71875" height="19" style="fill: rgb(0, 0, 0); fill-opacity: 0;"/></g><g class="traces" transform="translate(0,33.5)" style="opacity: 1;"><text class="legendtext" text-anchor="start" x="40" y="4.680000000000001" style="font-family: 'Open Sans', verdana, arial, sans-serif; font-size: 12px; fill: rgb(42, 63, 95); fill-opacity: 1; white-space: pre;">Test Accuracy</text><g class="layers" style="opacity: 1;"><g class="legendfill"/><g class="legendlines"><path class="js-line" d="M5,0h30" style="fill: none; stroke: rgb(0, 0, 255); stroke-opacity: 1; stroke-width: 2px;"/></g><g class="legendsymbols"><g class="legendpoints"/></g></g><rect class="legendtoggle" x="0" y="-9.5" width="122.71875" height="19" style="fill: rgb(0, 0, 0); fill-opacity: 0;"/></g><g class="traces" transform="translate(0,52.5)" style="opacity: 1;"><text class="legendtext" text-anchor="start" x="40" y="4.680000000000001" style="font-family: 'Open Sans', verdana, arial, sans-serif; font-size: 12px; fill: rgb(42, 63, 95); fill-opacity: 1; white-space: pre;">Train Precision</text><g class="layers" style="opacity: 1;"><g class="legendfill"/><g class="legendlines"><path class="js-line" d="M5,0h30" style="fill: none; stroke: rgb(0, 128, 0); stroke-opacity: 1; stroke-width: 2px;"/></g><g class="legendsymbols"><g class="legendpoints"/></g></g><rect class="legendtoggle" x="0" y="-9.5" width="122.71875" height="19" style="fill: rgb(0, 0, 0); fill-opacity: 0;"/></g><g class="traces" transform="translate(0,71.5)" style="opacity: 1;"><text class="legendtext" text-anchor="start" x="40" y="4.680000000000001" style="font-family: 'Open Sans', verdana, arial, sans-serif; font-size: 12px; fill: rgb(42, 63, 95); fill-opacity: 1; white-space: pre;">Test Precision</text><g class="layers" style="opacity: 1;"><g class="legendfill"/><g class="legendlines"><path class="js-line" d="M5,0h30" style="fill: none; stroke: rgb(255, 165, 0); stroke-opacity: 1; stroke-width: 2px;"/></g><g class="legendsymbols"><g class="legendpoints"/></g></g><rect class="legendtoggle" x="0" y="-9.5" width="122.71875" height="19" style="fill: rgb(0, 0, 0); fill-opacity: 0;"/></g><g class="traces" transform="translate(0,90.5)" style="opacity: 1;"><text class="legendtext" text-anchor="start" x="40" y="4.680000000000001" style="font-family: 'Open Sans', verdana, arial, sans-serif; font-size: 12px; fill: rgb(42, 63, 95); fill-opacity: 1; white-space: pre;">Train Recall</text><g class="layers" style="opacity: 1;"><g class="legendfill"/><g class="legendlines"><path class="js-line" d="M5,0h30" style="fill: none; stroke: rgb(128, 0, 128); stroke-opacity: 1; stroke-width: 2px;"/></g><g class="legendsymbols"><g class="legendpoints"/></g></g><rect class="legendtoggle" x="0" y="-9.5" width="122.71875" height="19" style="fill: rgb(0, 0, 0); fill-opacity: 0;"/></g><g class="traces" transform="translate(0,109.5)" style="opacity: 1;"><text class="legendtext" text-anchor="start" x="40" y="4.680000000000001" style="font-family: 'Open Sans', verdana, arial, sans-serif; font-size: 12px; fill: rgb(42, 63, 95); fill-opacity: 1; white-space: pre;">Test Recall</text><g class="layers" style="opacity: 1;"><g class="legendfill"/><g class="legendlines"><path class="js-line" d="M5,0h30" style="fill: none; stroke: rgb(255, 192, 203); stroke-opacity: 1; stroke-width: 2px;"/></g><g class="legendsymbols"><g class="legendpoints"/></g></g><rect class="legendtoggle" x="0" y="-9.5" width="122.71875" height="19" style="fill: rgb(0, 0, 0); fill-opacity: 0;"/></g><g class="traces" transform="translate(0,128.5)" style="opacity: 1;"><text class="legendtext" text-anchor="start" x="40" y="4.680000000000001" style="font-family: 'Open Sans', verdana, arial, sans-serif; font-size: 12px; fill: rgb(42, 63, 95); fill-opacity: 1; white-space: pre;">Train F1</text><g class="layers" style="opacity: 1;"><g class="legendfill"/><g class="legendlines"><path class="js-line" d="M5,0h30" style="fill: none; stroke: rgb(165, 42, 42); stroke-opacity: 1; stroke-width: 2px;"/></g><g class="legendsymbols"><g class="legendpoints"/></g></g><rect class="legendtoggle" x="0" y="-9.5" width="122.71875" height="19" style="fill: rgb(0, 0, 0); fill-opacity: 0;"/></g><g class="traces" transform="translate(0,147.5)" style="opacity: 1;"><text class="legendtext" text-anchor="start" x="40" y="4.680000000000001" style="font-family: 'Open Sans', verdana, arial, sans-serif; font-size: 12px; fill: rgb(42, 63, 95); fill-opacity: 1; white-space: pre;">Test F1</text><g class="layers" style="opacity: 1;"><g class="legendfill"/><g class="legendlines"><path class="js-line" d="M5,0h30" style="fill: none; stroke: rgb(128, 128, 128); stroke-opacity: 1; stroke-width: 2px;"/></g><g class="legendsymbols"><g class="legendpoints"/></g></g><rect class="legendtoggle" x="0" y="-9.5" width="122.71875" height="19" style="fill: rgb(0, 0, 0); fill-opacity: 0;"/></g></g></g><rect class="scrollbar" rx="20" ry="3" width="0" height="0" x="0" y="0" style="fill: rgb(128, 139, 164); fill-opacity: 1;"/></g><g class="g-gtitle"><text class="gtitle" x="51.2" y="50" text-anchor="start" dy="0em" style="font-family: 'Open Sans', verdana, arial, sans-serif; font-size: 17px; fill: rgb(42, 63, 95); opacity: 1; font-weight: normal; white-space: pre;">Training Metrics - logs/FakeNewsNet-politifact_max-vocab=15000_pre=v1_text_domain_T=50_s=5.log</text></g><g class="g-xtitle"><text class="xtitle" x="506" y="537.3" text-anchor="middle" style="font-family: 'Open Sans', verdana, arial, sans-serif; font-size: 14px; fill: rgb(42, 63, 95); opacity: 1; font-weight: normal; white-space: pre;">Epoch</text></g><g class="g-ytitle"><text class="ytitle" transform="rotate(-90,103.965625,298)" x="103.965625" y="298" text-anchor="middle" style="font-family: 'Open Sans', verdana, arial, sans-serif; font-size: 14px; fill: rgb(42, 63, 95); opacity: 1; font-weight: normal; white-space: pre;">Metric Score</text></g></g><g class="menulayer"><g class="updatemenu-container" style="cursor: pointer;"><g class="updatemenu-header-group" transform="translate(12,60)"><g class="updatemenu-header" transform="translate(1,1)" style="pointer-events: all;"><rect class="updatemenu-item-rect" rx="2" ry="2" shape-rendering="crispEdges" x="0" y="0" width="167" height="33" style="stroke: rgb(190, 200, 217); stroke-opacity: 1; fill: rgb(255, 255, 255); fill-opacity: 1; stroke-width: 1px;"/><text class="updatemenu-item-text" text-anchor="start" data-notex="1" x="12" y="19.5" style="font-family: 'Open Sans', verdana, arial, sans-serif; font-size: 12px; fill: rgb(42, 63, 95); fill-opacity: 1; white-space: pre;">All</text></g><text class="updatemenu-header-arrow" text-anchor="end" x="163" y="19.5" style="font-family: 'Open Sans', verdana, arial, sans-serif; font-size: 12px; fill: rgb(42, 63, 95); fill-opacity: 1;">▼</text></g><g class="updatemenu-dropdown-button-group" updatemenu-active-index="-1" style="pointer-events: all;"><rect class="scrollbox-bg" opacity="0" x="0" y="0" width="0" height="0" style="pointer-events: all;"/></g></g></g></svg>