<svg class="main-svg" xmlns="http://www.w3.org/2000/svg" xmlns:xlink="http://www.w3.org/1999/xlink" width="1024" height="576" style="" viewBox="0 0 1024 576"><rect x="0" y="0" width="1024" height="576" style="fill: rgb(255, 255, 255); fill-opacity: 1;"/><defs id="defs-6fb831"><g class="clips"><clipPath id="clip6fb831xyplot" class="plotclip"><rect width="726" height="396"/></clipPath><clipPath class="axesclip" id="clip6fb831x"><rect x="143" y="0" width="726" height="576"/></clipPath><clipPath class="axesclip" id="clip6fb831y"><rect x="0" y="100" width="1024" height="396"/></clipPath><clipPath class="axesclip" id="clip6fb831xy"><rect x="143" y="100" width="726" height="396"/></clipPath></g><g class="gradients"/><g class="patterns"/></defs><g class="bglayer"><rect class="bg" x="143" y="100" width="726" height="396" style="fill: rgb(229, 236, 246); fill-opacity: 1; stroke-width: 0;"/></g><g class="layer-below"><g class="imagelayer"/><g class="shapelayer"/></g><g class="cartesianlayer"><g class="subplot xy"><g class="layer-subplot"><g class="shapelayer"/><g class="imagelayer"/></g><g class="minor-gridlayer"><g class="x"/><g class="y"/></g><g class="gridlayer"><g class="x"><path class="xgrid crisp" transform="translate(235.57999999999998,0)" d="M0,100v396" style="stroke: rgb(255, 255, 255); stroke-opacity: 1; stroke-width: 1px;"/><path class="xgrid crisp" transform="translate(333.03,0)" d="M0,100v396" style="stroke: rgb(255, 255, 255); stroke-opacity: 1; stroke-width: 1px;"/><path class="xgrid crisp" transform="translate(430.48,0)" d="M0,100v396" style="stroke: rgb(255, 255, 255); stroke-opacity: 1; stroke-width: 1px;"/><path class="xgrid crisp" transform="translate(527.9300000000001,0)" d="M0,100v396" style="stroke: rgb(255, 255, 255); stroke-opacity: 1; stroke-width: 1px;"/><path class="xgrid crisp" transform="translate(625.38,0)" d="M0,100v396" style="stroke: rgb(255, 255, 255); stroke-opacity: 1; stroke-width: 1px;"/><path class="xgrid crisp" transform="translate(722.83,0)" d="M0,100v396" style="stroke: rgb(255, 255, 255); stroke-opacity: 1; stroke-width: 1px;"/><path class="xgrid crisp" transform="translate(820.28,0)" d="M0,100v396" style="stroke: rgb(255, 255, 255); stroke-opacity: 1; stroke-width: 1px;"/></g><g class="y"><path class="ygrid crisp" transform="translate(0,472.61)" d="M143,0h726" style="stroke: rgb(255, 255, 255); stroke-opacity: 1; stroke-width: 1px;"/><path class="ygrid crisp" transform="translate(0,382.88)" d="M143,0h726" style="stroke: rgb(255, 255, 255); stroke-opacity: 1; stroke-width: 1px;"/><path class="ygrid crisp" transform="translate(0,293.15)" d="M143,0h726" style="stroke: rgb(255, 255, 255); stroke-opacity: 1; stroke-width: 1px;"/><path class="ygrid crisp" transform="translate(0,203.43)" d="M143,0h726" style="stroke: rgb(255, 255, 255); stroke-opacity: 1; stroke-width: 1px;"/><path class="ygrid crisp" transform="translate(0,113.7)" d="M143,0h726" style="stroke: rgb(255, 255, 255); stroke-opacity: 1; stroke-width: 1px;"/></g></g><g class="zerolinelayer"/><path class="xlines-below"/><path class="ylines-below"/><g class="overlines-below"/><g class="xaxislayer-below"/><g class="yaxislayer-below"/><g class="overaxes-below"/><g class="plot" transform="translate(143,100)" clip-path="url(#clip6fb831xyplot)"><g class="scatterlayer mlayer"><g class="trace scatter trace26f837" style="stroke-miterlimit: 2; opacity: 1;"><g class="fills"/><g class="errorbars"/><g class="lines"><path class="js-line" d="M0,236.04L4.87,231.92L9.74,212.72L14.62,210.56L19.49,180.77L24.36,182.93L29.23,180.77L34.11,187.23L38.98,172.34L43.85,180.77L48.72,180.77L53.6,163.72L58.47,155.29L63.34,150.98L68.21,157.44L73.09,146.85L77.96,146.85L82.83,136.09L87.7,127.65L92.58,131.96L97.45,134.11L102.32,125.5L107.19,136.09L112.07,134.11L116.94,121.37L121.81,121.37L126.68,138.24L131.56,127.65L136.43,131.96L141.3,123.35L146.17,125.5L151.05,121.37L155.92,114.91L160.79,119.22L165.66,108.45L170.54,104.32L175.41,119.22L180.28,102.17L185.15,108.45L190.03,100.02L194.9,114.91L199.77,110.6L204.64,108.45L209.52,93.56L214.39,110.6L219.26,104.32L224.13,95.71L229.01,95.71L233.88,104.32L238.75,100.02L243.62,104.32L248.5,100.02L253.37,89.43L258.24,78.84L263.11,76.69L267.99,80.82L272.86,95.71L277.73,82.97L282.6,72.38L287.48,74.53L292.35,82.97L297.22,78.84L302.09,82.97L306.97,80.82L311.84,82.97L316.71,89.43L321.58,87.28L326.46,104.32L331.33,104.32L336.2,82.97L341.07,89.43L345.95,85.12L350.82,91.58L355.69,87.28L360.56,170.18L365.44,95.71L370.31,85.12L375.18,82.97L380.05,87.28L384.93,85.12L389.8,87.28L394.67,95.71L399.54,170.18L404.42,74.53L409.29,80.82L414.16,68.07L419.03,72.38L423.91,68.07L428.78,68.07L433.65,74.53L438.52,59.64L443.4,63.95L448.27,150.98L453.14,70.23L458.01,59.64L462.89,68.07L467.76,74.53L472.63,61.79L477.5,68.07L482.38,68.07L487.25,72.38L492.12,70.23L496.99,72.38L501.87,65.92L506.74,68.07L511.61,70.23L516.48,74.53L521.36,57.49L526.23,55.33L531.1,55.33L535.97,65.92L540.85,68.07L545.72,91.58L550.59,161.75L555.46,204.28L560.34,187.23L565.21,161.75L570.08,155.29L574.95,153.14L579.83,70.23L584.7,72.38L589.57,72.38L594.44,82.97L599.32,72.38L604.19,68.07L609.06,157.44L613.93,57.49L618.81,61.79L623.68,61.79L633.42,61.79L638.3,70.23L643.17,68.07L648.04,68.07L652.91,68.07L657.79,74.53L662.66,61.79L667.53,61.79L672.4,65.92L677.28,78.84L682.15,59.64L687.02,57.49L691.89,53.18L696.77,78.84L701.64,80.82L706.51,93.56L711.38,97.86L716.26,63.95L721.13,70.23L726,55.33" style="vector-effect: none; fill: none; stroke: rgb(255, 0, 0); stroke-opacity: 1; stroke-width: 2px; opacity: 1;"/></g><g class="points"/><g class="text"/></g><g class="trace scatter traceec74da" style="stroke-miterlimit: 2; opacity: 1;"><g class="fills"/><g class="errorbars"/><g class="lines"><path class="js-line" d="M0,248.97L4.87,189.75L9.74,189.75L14.62,181.31L19.49,138.96L24.36,147.39L29.23,164.44L34.11,189.75L38.98,138.96L43.85,181.31L48.72,147.39L58.47,130.52L63.34,155.83L68.21,138.96L73.09,113.66L77.96,105.04L82.83,147.39L87.7,113.66L92.58,122.09L107.19,122.09L112.07,138.96L116.94,147.39L121.81,147.39L126.68,155.83L131.56,147.39L136.43,155.83L141.3,138.96L146.17,138.96L151.05,130.52L155.92,113.66L160.79,130.52L165.66,122.09L170.54,122.09L175.41,147.39L180.28,155.83L185.15,138.96L190.03,147.39L194.9,138.96L199.77,147.39L204.64,155.83L209.52,138.96L214.39,155.83L219.26,130.52L229.01,130.52L233.88,122.09L238.75,130.52L243.62,130.52L253.37,130.52L258.24,147.39L263.11,105.04L267.99,105.04L272.86,96.61L277.73,105.04L282.6,122.09L287.48,130.52L292.35,122.09L297.22,138.96L302.09,138.96L306.97,164.44L311.84,138.96L316.71,130.52L321.58,138.96L326.46,155.83L331.33,172.88L336.2,164.44L341.07,181.31L345.95,155.83L350.82,164.44L355.69,155.83L360.56,282.88L365.44,138.96L370.31,147.39L375.18,130.52L380.05,130.52L384.93,122.09L394.67,122.09L399.54,316.8L404.42,138.96L409.29,164.44L414.16,130.52L419.03,122.09L423.91,138.96L428.78,147.39L433.65,138.96L438.52,138.96L443.4,130.52L448.27,325.23L453.14,122.09L458.01,113.66L462.89,130.52L467.76,138.96L472.63,155.83L477.5,155.83L482.38,155.83L487.25,130.52L492.12,130.52L496.99,155.83L506.74,105.04L511.61,130.52L516.48,181.31L521.36,122.09L526.23,147.39L531.1,130.52L535.97,138.96L540.85,138.96L545.72,189.75L550.59,316.8L555.46,376.02L560.34,350.54L565.21,308.37L570.08,291.32L574.95,274.45L579.83,130.52L589.57,130.52L594.44,122.09L599.32,122.09L604.19,138.96L609.06,308.37L613.93,138.96L618.81,138.96L623.68,155.83L628.55,155.83L633.42,138.96L638.3,138.96L643.17,147.39L648.04,130.52L652.91,138.96L667.53,113.66L672.4,138.96L677.28,138.96L682.15,122.09L687.02,130.52L691.89,147.39L696.77,155.83L701.64,147.39L706.51,164.44L711.38,155.83L716.26,122.09L721.13,147.39L726,122.09" style="vector-effect: none; fill: none; stroke: rgb(0, 0, 255); stroke-opacity: 1; stroke-width: 2px; opacity: 1;"/></g><g class="points"/><g class="text"/></g><g class="trace scatter traced29ee3" style="stroke-miterlimit: 2; opacity: 1;"><g class="fills"/><g class="errorbars"/><g class="lines"><path class="js-line" d="M0,246.81L4.87,240.53L9.74,222.23L14.62,219.71L19.49,171.8L24.36,173.59L29.23,157.8L34.11,184L38.98,149.55L43.85,181.49L48.72,184L53.6,154.03L58.47,148.83L63.34,148.83L68.21,156.01L73.09,134.11L77.96,130.35L82.83,107.2L87.7,109.71L92.58,108.81L97.45,113.3L102.32,95.89L107.19,116.53L112.07,111.86L116.94,103.25L121.81,101.81L126.68,133.22L131.56,120.3L136.43,123.88L141.3,107.55L146.17,111.86L151.05,101.81L155.92,96.79L160.79,102.89L165.66,84.58L170.54,79.92L175.41,102.89L180.28,91.58L185.15,96.79L190.03,79.56L194.9,98.22L199.77,90.69L204.64,94.27L209.52,71.66L214.39,84.76L219.26,71.48L224.13,71.84L229.01,81.53L233.88,79.92L238.75,78.12L243.62,87.1L248.5,83.69L253.37,60.54L258.24,44.03L263.11,32.9L267.99,35.59L272.86,63.59L282.6,39.54L287.48,47.97L292.35,63.59L297.22,55.87L302.09,62.15L306.97,63.23L311.84,63.59L316.71,72.56L321.58,72.2L326.46,101.27L331.33,101.99L336.2,67.54L341.07,77.58L345.95,74.18L350.82,79.38L355.69,70.95L360.56,160.13L365.44,81.53L370.31,69.33L375.18,60.54L380.05,60.72L384.93,66.64L389.8,70.95L394.67,77.58L399.54,158.16L404.42,44.56L409.29,58.92L414.16,44.74L419.03,51.03L423.91,46.36L428.78,46.36L433.65,56.95L438.52,35.41L443.4,40.08L448.27,142.37L453.14,47.97L458.01,33.8L462.89,49.23L467.76,56.95L472.63,35.23L477.5,43.31L482.38,41.69L487.25,44.74L492.12,49.41L496.99,44.74L501.87,36.67L511.61,50.85L516.48,59.64L521.36,27.16L526.23,28.95L531.1,28.95L535.97,41.69L540.85,47.8L545.72,85.84L550.59,146.32L555.46,173.77L560.34,163.36L565.21,150.62L570.08,144.7L574.95,145.96L579.83,47.97L584.7,55.33L589.57,44.74L594.44,63.59L599.32,49.59L604.19,44.74L609.06,149.19L613.93,21.77L618.81,33.62L623.68,30.21L633.42,30.21L638.3,36.31L643.17,43.31L648.04,36.49L652.91,47.8L657.79,49.59L662.66,20.7L667.53,36.85L672.4,40.08L677.28,62.87L682.15,26.98L687.02,19.8L691.89,25.72L696.77,66.64L701.64,70.77L706.51,91.22L711.38,96.43L716.26,44.56L721.13,54.97L726,28.95" style="vector-effect: none; fill: none; stroke: rgb(0, 128, 0); stroke-opacity: 1; stroke-width: 2px; opacity: 1;"/></g><g class="points"/><g class="text"/></g><g class="trace scatter trace4817e2" style="stroke-miterlimit: 2; opacity: 1;"><g class="fills"/><g class="errorbars"/><g class="lines"><path class="js-line" d="M0,276.96L4.87,217.02L9.74,216.84L14.62,208.05L19.49,155.83L29.23,172.34L34.11,216.48L38.98,140.04L43.85,207.69L48.72,171.44L53.6,149.01L58.47,144.88L63.34,180.05L68.21,160.31L73.09,122.09L77.96,114.37L82.83,152.42L87.7,125.86L92.58,129.63L97.45,129.63L102.32,119.94L107.19,129.63L112.07,152.78L116.94,168.57L121.81,168.57L126.68,180.95L131.56,171.44L136.43,180.05L141.3,158.34L146.17,158.34L151.05,147.75L155.92,122.09L160.79,144.88L165.66,129.63L170.54,129.63L175.41,166.42L180.28,177L185.15,152.78L190.03,160.67L194.9,158.34L199.77,166.42L204.64,177L209.52,152.78L214.39,168.57L219.26,137.34L224.13,137.34L229.01,150.09L233.88,129.63L238.75,141.29L248.5,147.75L253.37,141.29L258.24,156.9L263.11,105.4L267.99,105.4L272.86,98.04L287.48,144.88L292.35,133.58L297.22,152.78L302.09,155.83L306.97,185.26L311.84,149.01L316.71,141.29L321.58,152.78L326.46,180.05L331.33,198.9L336.2,182.75L341.07,203.92L345.95,177L350.82,185.26L355.69,171.8L360.56,270.68L365.44,152.78L370.31,163.72L375.18,141.29L380.05,144.88L384.93,136.98L389.8,136.98L394.67,133.58L399.54,293.47L404.42,149.01L409.29,185.26L414.16,147.75L419.03,133.58L423.91,158.34L428.78,163.72L433.65,155.83L438.52,152.78L443.4,147.75L448.27,271.76L453.14,141.83L458.01,128.91L462.89,147.75L467.76,155.83L472.63,174.67L477.5,171.8L482.38,164.62L487.25,141.29L492.12,144.88L496.99,164.62L506.74,110.25L511.61,147.75L516.48,206.79L521.36,133.58L526.23,163.72L531.1,144.88L535.97,158.34L540.85,160.31L550.59,274.09L555.46,300.29L560.34,286.11L565.21,281.99L570.08,264.76L574.95,259.55L579.83,141.29L584.7,147.75L589.57,144.88L594.44,136.98L599.32,136.98L604.19,155.83L609.06,287.91L613.93,152.78L618.81,152.78L623.68,168.57L628.55,168.57L633.42,144.88L638.3,144.88L643.17,163.72L648.04,132.5L652.91,152.78L657.79,137.34L662.66,125.14L667.53,128.91L672.4,149.01L677.28,158.34L682.15,125.14L687.02,141.29L691.89,160.67L696.77,177L701.64,166.42L706.51,190.1L711.38,180.95L716.26,136.98L721.13,168.57L726,133.58" style="vector-effect: none; fill: none; stroke: rgb(255, 165, 0); stroke-opacity: 1; stroke-width: 2px; opacity: 1;"/></g><g class="points"/><g class="text"/></g><g class="trace scatter tracea528e0" style="stroke-miterlimit: 2; opacity: 1;"><g class="fills"/><g class="errorbars"/><g class="lines"><path class="js-line" d="M0,247.17L4.87,249.86L9.74,225.64L14.62,224.56L19.49,212.18L24.36,214.69L29.23,219.89L38.98,210.56L43.85,204.46L48.72,201.59L53.6,194.05L58.47,182.57L63.34,174.67L68.21,180.77L73.09,177.36L77.96,179.34L82.83,173.77L87.7,159.42L92.58,166.6L97.45,167.67L102.32,162.47L107.19,169.47L112.07,168.39L116.94,152.42L121.81,153.14L126.68,163.01L131.56,153.14L136.43,158.16L141.3,153.67L146.17,154.75L151.05,153.14L155.92,145.6L160.79,149.19L165.66,141.47L170.54,137.16L175.41,149.19L180.28,127.65L185.15,135.19L190.03,130.7L194.9,144.88L199.77,142.01L204.64,136.63L209.52,124.42L214.39,144.7L219.26,140.75L224.13,127.65L229.01,122.81L233.88,137.16L238.75,131.42L243.62,133.58L248.5,128.55L253.37,122.99L258.24,113.84L263.11,114.73L267.99,119.76L272.86,131.24L277.73,117.42L282.6,106.12L287.48,105.94L292.35,111.86L297.22,108.81L302.09,112.58L306.97,108.63L311.84,111.86L316.71,117.24L321.58,114.01L326.46,124.42L331.33,123.71L336.2,109.71L341.07,114.55L345.95,109.35L350.82,117.07L355.69,114.73L360.56,146.85L365.44,122.81L370.31,112.22L375.18,113.3L380.05,119.76L384.93,113.66L389.8,114.73L394.67,124.96L399.54,145.42L404.42,107.37L409.29,110.6L414.16,97.5L419.03,101.27L423.91,96.97L428.78,96.97L433.65,101.63L438.52,88.89L443.4,93.2L448.27,128.19L453.14,99.48L458.01,89.61L462.89,95.53L467.76,101.63L472.63,92.12L477.5,98.22L482.38,98.94L487.25,104.14L492.12,98.76L496.99,104.14L501.87,97.86L511.61,98.04L516.48,100.2L521.36,89.07L526.23,85.12L531.1,85.12L535.97,95.71L540.85,96.25L545.72,112.76L550.59,134.47L555.46,169.83L560.34,155.83L565.21,137.34L570.08,131.24L574.95,131.42L579.83,99.48L584.7,99.12L589.57,104.14L594.44,111.86L599.32,101.99L604.19,97.5L609.06,135.01L613.93,91.22L623.68,94.27L628.55,94.27L633.42,94.27L638.3,104.32L643.17,98.22L648.04,101.09L652.91,96.25L657.79,105.22L667.53,91.4L672.4,96.43L677.28,105.4L682.15,92.3L687.02,91.94L691.89,83.33L696.77,103.25L701.64,104.32L706.51,112.58L711.38,116.17L716.26,91.04L721.13,95.89L726,85.12" style="vector-effect: none; fill: none; stroke: rgb(128, 0, 128); stroke-opacity: 1; stroke-width: 2px; opacity: 1;"/></g><g class="points"/><g class="text"/></g><g class="trace scatter traceb4312a" style="stroke-miterlimit: 2; opacity: 1;"><g class="fills"/><g class="errorbars"/><g class="lines"><path class="js-line" d="M0,258.48L4.87,206.79L9.74,201.95L14.62,195.31L19.49,176.29L24.36,187.77L29.23,220.43L34.11,216.48L38.98,195.49L43.85,205L48.72,168.57L53.6,185.8L58.47,169.65L63.34,180.05L68.21,166.6L77.96,144.7L82.83,202.13L87.7,151.34L92.58,167.67L97.45,167.67L102.32,177.36L107.19,167.67L112.07,181.13L116.94,178.08L121.81,178.08L126.68,175.21L131.56,168.57L136.43,180.05L141.3,171.44L146.17,171.44L151.05,164.8L155.92,156.19L160.79,169.65L165.66,167.67L170.54,167.67L175.41,182.93L180.28,189.57L185.15,181.13L190.03,192.62L194.9,171.44L199.77,182.93L204.64,189.57L209.52,181.13L214.39,204.1L219.26,179.16L224.13,179.16L229.01,159.96L238.75,174.31L243.62,169.65L248.5,164.8L253.37,174.31L258.24,197.46L263.11,154.21L267.99,154.21L272.86,142.73L277.73,144.7L282.6,167.67L287.48,169.65L292.35,162.83L297.22,181.13L302.09,176.29L306.97,201.23L311.84,185.8L316.71,174.31L321.58,181.13L326.46,180.05L331.33,193.51L341.07,219.36L345.95,189.57L350.82,201.23L355.69,199.26L360.56,237.3L365.44,181.13L370.31,187.77L375.18,174.31L380.05,169.65L384.93,157.98L389.8,157.98L394.67,162.83L399.54,264.04L404.42,185.8L409.29,201.23L414.16,164.8L419.03,162.83L423.91,171.44L428.78,187.77L433.65,176.29L438.52,181.13L443.4,164.8L448.27,251.48L453.14,148.47L458.01,146.5L462.89,164.8L467.76,176.29L472.63,194.41L477.5,199.26L482.38,208.95L487.25,174.31L492.12,169.65L496.99,208.95L501.87,179.16L506.74,149.55L511.61,164.8L516.48,209.66L521.36,162.83L526.23,187.77L531.1,169.65L535.97,171.44L540.85,166.6L545.72,201.95L550.59,249.5L555.46,291.68L560.34,271.58L570.08,234.25L574.95,225.64L579.83,174.31L584.7,164.8L589.57,169.65L594.44,157.98L599.32,157.98L604.19,176.29L609.06,257.22L613.93,181.13L618.81,181.13L623.68,204.1L628.55,204.1L633.42,190.64L638.3,190.64L643.17,187.77L652.91,181.13L657.79,179.16L662.66,172.52L667.53,146.5L672.4,185.8L677.28,171.44L687.02,174.31L691.89,192.62L696.77,189.57L701.64,182.93L706.51,181.85L711.38,175.21L716.26,157.98L721.13,178.08L726,162.83" style="vector-effect: none; fill: none; stroke: rgb(255, 192, 203); stroke-opacity: 1; stroke-width: 2px; opacity: 1;"/></g><g class="points"/><g class="text"/></g><g class="trace scatter tracee43326" style="stroke-miterlimit: 2; opacity: 1;"><g class="fills"/><g class="errorbars"/><g class="lines"><path class="js-line" d="M0,246.99L4.87,246.09L9.74,224.02L14.62,222.41L19.49,201.23L29.23,206.25L34.11,205.72L38.98,196.74L43.85,196.74L48.72,195.31L53.6,182.75L58.47,172.34L63.34,166.06L68.21,172.52L73.09,165.16L77.96,166.42L82.83,158.16L87.7,145.96L92.58,151.88L97.45,153.67L102.32,146.5L107.19,155.65L112.07,154.03L116.94,138.96L121.81,139.32L126.68,153.32L131.56,142.73L136.43,147.39L141.3,140.57L146.17,142.37L151.05,139.32L155.92,131.96L160.79,136.09L165.66,126.4L170.54,121.91L175.41,136.09L180.28,116.17L185.15,123.35L190.03,116.35L194.9,131.6L199.77,127.83L204.64,124.06L209.52,109.71L214.39,129.27L219.26,123.71L224.13,112.58L229.01,110.25L233.88,121.91L238.75,116.71L243.62,120.12L248.5,115.27L253.37,106.66L258.24,96.07L263.11,95.35L267.99,100.38L272.86,114.37L277.73,100.2L282.6,88.71L287.48,89.97L292.35,97.68L297.22,93.74L302.09,98.04L306.97,94.99L311.84,97.68L316.71,103.96L321.58,101.27L326.46,116.17L331.33,115.81L336.2,96.79L341.07,102.71L345.95,97.86L350.82,105.04L355.69,101.45L360.56,171.08L365.44,110.25L370.31,99.12L375.18,98.22L380.05,103.79L384.93,99.84L389.8,101.45L394.67,111.14L399.54,170.9L404.42,90.51L409.29,95.89L414.16,82.43L419.03,86.56L423.91,82.07L428.78,82.07L433.65,87.99L438.52,73.28L443.4,77.76L448.27,152.06L453.14,84.4L458.01,73.64L462.89,81.53L467.76,87.99L472.63,75.97L477.5,82.61L482.38,82.97L487.25,87.81L492.12,84.22L496.99,87.81L501.87,81.17L511.61,83.87L516.48,87.45L521.36,72.02L526.23,69.15L531.1,69.15L535.97,80.28L540.85,81.71L545.72,103.43L550.59,162.29L555.46,204.28L560.34,187.41L565.21,162.47L570.08,156.19L574.95,154.39L579.83,84.4L584.7,85.66L589.57,87.81L594.44,97.68L599.32,86.92L604.19,82.43L609.06,158.52L613.93,72.92L618.81,76.33L623.68,76.87L633.42,76.87L638.3,86.56L643.17,82.61L648.04,83.87L652.91,81.71L657.79,89.61L662.66,78.48L667.53,75.79L672.4,80.46L677.28,92.3L682.15,74.89L687.02,73.28L691.89,67L696.77,91.4L701.64,93.2L706.51,104.68L711.38,108.81L716.26,77.05L721.13,82.97L726,69.15" style="vector-effect: none; fill: none; stroke: rgb(165, 42, 42); stroke-opacity: 1; stroke-width: 2px; opacity: 1;"/></g><g class="points"/><g class="text"/></g><g class="trace scatter trace75de1e" style="stroke-miterlimit: 2; opacity: 1;"><g class="fills"/><g class="errorbars"/><g class="lines"><path class="js-line" d="M0,270.5L4.87,212.54L9.74,210.74L14.62,202.67L19.49,167.49L24.36,177.72L29.23,203.56L34.11,216.48L38.98,176.29L43.85,206.43L48.72,170L53.6,171.62L58.47,159.24L63.34,180.05L68.21,163.54L73.09,142.55L77.96,132.32L82.83,184.54L87.7,140.57L92.58,152.96L97.45,152.96L102.32,157.26L107.19,152.96L112.07,169.47L116.94,173.77L121.81,173.77L126.68,178.26L131.56,170L136.43,180.05L141.3,165.52L146.17,165.52L151.05,157.26L155.92,142.55L160.79,159.24L165.66,152.96L170.54,152.96L175.41,175.75L180.28,184L185.15,169.47L190.03,179.87L194.9,165.52L199.77,175.75L204.64,184L209.52,169.47L214.39,190.46L219.26,163.36L224.13,163.36L229.01,155.47L233.88,152.96L238.75,161.21L243.62,159.24L248.5,157.26L253.37,161.21L258.24,182.21L263.11,136.27L267.99,136.27L272.86,125.86L277.73,132.32L282.6,152.96L287.48,159.24L292.35,150.98L297.22,169.47L302.09,167.49L306.97,194.23L311.84,171.62L316.71,161.21L321.58,169.47L326.46,180.05L331.33,196.38L336.2,196.38L341.07,212.72L345.95,184L350.82,194.23L355.69,188.13L360.56,288.27L365.44,169.47L370.31,177.72L375.18,161.21L380.05,159.24L384.93,149.01L389.8,149.01L394.67,150.98L399.54,320.57L404.42,171.62L409.29,194.23L414.16,157.26L419.03,150.98L428.78,177.72L433.65,167.49L438.52,169.47L443.4,157.26L448.27,326.31L453.14,145.42L458.01,138.78L462.89,157.26L467.76,167.49L472.63,185.98L477.5,188.13L482.38,192.8L487.25,161.21L492.12,159.24L496.99,192.8L501.87,163.36L506.74,134.11L511.61,157.26L516.48,208.41L521.36,150.98L526.23,177.72L531.1,159.24L535.97,165.52L540.85,163.54L545.72,210.74L550.59,318.59L555.46,376.2L560.34,351.08L565.21,311.78L570.08,294.73L574.95,279.29L579.83,161.21L584.7,157.26L589.57,159.24L594.44,149.01L599.32,149.01L604.19,167.49L609.06,312.49L613.93,169.47L618.81,169.47L623.68,190.46L628.55,190.46L633.42,173.95L638.3,173.95L643.17,177.72L648.04,165.7L652.91,169.47L657.79,163.36L662.66,155.11L667.53,138.78L672.4,171.62L677.28,165.52L682.15,155.11L687.02,161.21L691.89,179.87L696.77,184L701.64,175.75L706.51,186.34L711.38,178.26L716.26,149.01L721.13,173.77L726,150.98" style="vector-effect: none; fill: none; stroke: rgb(128, 128, 128); stroke-opacity: 1; stroke-width: 2px; opacity: 1;"/></g><g class="points"/><g class="text"/></g></g></g><g class="overplot"/><path class="xlines-above crisp" d="M0,0" style="fill: none;"/><path class="ylines-above crisp" d="M0,0" style="fill: none;"/><g class="overlines-above"/><g class="xaxislayer-above"><g class="xtick"><text text-anchor="middle" x="0" y="509" transform="translate(235.57999999999998,0)" style="font-family: 'Open Sans', verdana, arial, sans-serif; font-size: 12px; fill: rgb(42, 63, 95); fill-opacity: 1; white-space: pre; opacity: 1;">20</text></g><g class="xtick"><text text-anchor="middle" x="0" y="509" style="font-family: 'Open Sans', verdana, arial, sans-serif; font-size: 12px; fill: rgb(42, 63, 95); fill-opacity: 1; white-space: pre; opacity: 1;" transform="translate(333.03,0)">40</text></g><g class="xtick"><text text-anchor="middle" x="0" y="509" style="font-family: 'Open Sans', verdana, arial, sans-serif; font-size: 12px; fill: rgb(42, 63, 95); fill-opacity: 1; white-space: pre; opacity: 1;" transform="translate(430.48,0)">60</text></g><g class="xtick"><text text-anchor="middle" x="0" y="509" style="font-family: 'Open Sans', verdana, arial, sans-serif; font-size: 12px; fill: rgb(42, 63, 95); fill-opacity: 1; white-space: pre; opacity: 1;" transform="translate(527.9300000000001,0)">80</text></g><g class="xtick"><text text-anchor="middle" x="0" y="509" style="font-family: 'Open Sans', verdana, arial, sans-serif; font-size: 12px; fill: rgb(42, 63, 95); fill-opacity: 1; white-space: pre; opacity: 1;" transform="translate(625.38,0)">100</text></g><g class="xtick"><text text-anchor="middle" x="0" y="509" style="font-family: 'Open Sans', verdana, arial, sans-serif; font-size: 12px; fill: rgb(42, 63, 95); fill-opacity: 1; white-space: pre; opacity: 1;" transform="translate(722.83,0)">120</text></g><g class="xtick"><text text-anchor="middle" x="0" y="509" style="font-family: 'Open Sans', verdana, arial, sans-serif; font-size: 12px; fill: rgb(42, 63, 95); fill-opacity: 1; white-space: pre; opacity: 1;" transform="translate(820.28,0)">140</text></g></g><g class="yaxislayer-above"><g class="ytick"><text text-anchor="end" x="142" y="4.199999999999999" transform="translate(0,472.61)" style="font-family: 'Open Sans', verdana, arial, sans-serif; font-size: 12px; fill: rgb(42, 63, 95); fill-opacity: 1; white-space: pre; opacity: 1;">70</text></g><g class="ytick"><text text-anchor="end" x="142" y="4.199999999999999" style="font-family: 'Open Sans', verdana, arial, sans-serif; font-size: 12px; fill: rgb(42, 63, 95); fill-opacity: 1; white-space: pre; opacity: 1;" transform="translate(0,382.88)">75</text></g><g class="ytick"><text text-anchor="end" x="142" y="4.199999999999999" style="font-family: 'Open Sans', verdana, arial, sans-serif; font-size: 12px; fill: rgb(42, 63, 95); fill-opacity: 1; white-space: pre; opacity: 1;" transform="translate(0,293.15)">80</text></g><g class="ytick"><text text-anchor="end" x="142" y="4.199999999999999" style="font-family: 'Open Sans', verdana, arial, sans-serif; font-size: 12px; fill: rgb(42, 63, 95); fill-opacity: 1; white-space: pre; opacity: 1;" transform="translate(0,203.43)">85</text></g><g class="ytick"><text text-anchor="end" x="142" y="4.199999999999999" style="font-family: 'Open Sans', verdana, arial, sans-serif; font-size: 12px; fill: rgb(42, 63, 95); fill-opacity: 1; white-space: pre; opacity: 1;" transform="translate(0,113.7)">90</text></g></g><g class="overaxes-above"/></g></g><g class="polarlayer"/><g class="smithlayer"/><g class="ternarylayer"/><g class="geolayer"/><g class="funnelarealayer"/><g class="pielayer"/><g class="iciclelayer"/><g class="treemaplayer"/><g class="sunburstlayer"/><g class="glimages"/><defs id="topdefs-6fb831"><g class="clips"/><clipPath id="legend6fb831"><rect width="128" height="162" x="0" y="0"/></clipPath></defs><g class="layer-above"><g class="imagelayer"/><g class="shapelayer"/></g><g class="infolayer"><g class="legend" pointer-events="all" transform="translate(883.52,100)"><rect class="bg" shape-rendering="crispEdges" width="128" height="162" x="0" y="0" style="stroke: rgb(68, 68, 68); stroke-opacity: 1; fill: rgb(255, 255, 255); fill-opacity: 1; stroke-width: 0px;"/><g class="scrollbox" transform="" clip-path="url(#legend6fb831)"><g class="groups"><g class="traces" transform="translate(0,14.5)" style="opacity: 1;"><text class="legendtext" text-anchor="start" x="40" y="4.680000000000001" style="font-family: 'Open Sans', verdana, arial, sans-serif; font-size: 12px; fill: rgb(42, 63, 95); fill-opacity: 1; white-space: pre;">Train Accuracy</text><g class="layers" style="opacity: 1;"><g class="legendfill"/><g class="legendlines"><path class="js-line" d="M5,0h30" style="fill: none; stroke: rgb(255, 0, 0); stroke-opacity: 1; stroke-width: 2px;"/></g><g class="legendsymbols"><g class="legendpoints"/></g></g><rect class="legendtoggle" x="0" y="-9.5" width="122.71875" height="19" style="fill: rgb(0, 0, 0); fill-opacity: 0;"/></g><g class="traces" transform="translate(0,33.5)" style="opacity: 1;"><text class="legendtext" text-anchor="start" x="40" y="4.680000000000001" style="font-family: 'Open Sans', verdana, arial, sans-serif; font-size: 12px; fill: rgb(42, 63, 95); fill-opacity: 1; white-space: pre;">Test Accuracy</text><g class="layers" style="opacity: 1;"><g class="legendfill"/><g class="legendlines"><path class="js-line" d="M5,0h30" style="fill: none; stroke: rgb(0, 0, 255); stroke-opacity: 1; stroke-width: 2px;"/></g><g class="legendsymbols"><g class="legendpoints"/></g></g><rect class="legendtoggle" x="0" y="-9.5" width="122.71875" height="19" style="fill: rgb(0, 0, 0); fill-opacity: 0;"/></g><g class="traces" transform="translate(0,52.5)" style="opacity: 1;"><text class="legendtext" text-anchor="start" x="40" y="4.680000000000001" style="font-family: 'Open Sans', verdana, arial, sans-serif; font-size: 12px; fill: rgb(42, 63, 95); fill-opacity: 1; white-space: pre;">Train Precision</text><g class="layers" style="opacity: 1;"><g class="legendfill"/><g class="legendlines"><path class="js-line" d="M5,0h30" style="fill: none; stroke: rgb(0, 128, 0); stroke-opacity: 1; stroke-width: 2px;"/></g><g class="legendsymbols"><g class="legendpoints"/></g></g><rect class="legendtoggle" x="0" y="-9.5" width="122.71875" height="19" style="fill: rgb(0, 0, 0); fill-opacity: 0;"/></g><g class="traces" transform="translate(0,71.5)" style="opacity: 1;"><text class="legendtext" text-anchor="start" x="40" y="4.680000000000001" style="font-family: 'Open Sans', verdana, arial, sans-serif; font-size: 12px; fill: rgb(42, 63, 95); fill-opacity: 1; white-space: pre;">Test Precision</text><g class="layers" style="opacity: 1;"><g class="legendfill"/><g class="legendlines"><path class="js-line" d="M5,0h30" style="fill: none; stroke: rgb(255, 165, 0); stroke-opacity: 1; stroke-width: 2px;"/></g><g class="legendsymbols"><g class="legendpoints"/></g></g><rect class="legendtoggle" x="0" y="-9.5" width="122.71875" height="19" style="fill: rgb(0, 0, 0); fill-opacity: 0;"/></g><g class="traces" transform="translate(0,90.5)" style="opacity: 1;"><text class="legendtext" text-anchor="start" x="40" y="4.680000000000001" style="font-family: 'Open Sans', verdana, arial, sans-serif; font-size: 12px; fill: rgb(42, 63, 95); fill-opacity: 1; white-space: pre;">Train Recall</text><g class="layers" style="opacity: 1;"><g class="legendfill"/><g class="legendlines"><path class="js-line" d="M5,0h30" style="fill: none; stroke: rgb(128, 0, 128); stroke-opacity: 1; stroke-width: 2px;"/></g><g class="legendsymbols"><g class="legendpoints"/></g></g><rect class="legendtoggle" x="0" y="-9.5" width="122.71875" height="19" style="fill: rgb(0, 0, 0); fill-opacity: 0;"/></g><g class="traces" transform="translate(0,109.5)" style="opacity: 1;"><text class="legendtext" text-anchor="start" x="40" y="4.680000000000001" style="font-family: 'Open Sans', verdana, arial, sans-serif; font-size: 12px; fill: rgb(42, 63, 95); fill-opacity: 1; white-space: pre;">Test Recall</text><g class="layers" style="opacity: 1;"><g class="legendfill"/><g class="legendlines"><path class="js-line" d="M5,0h30" style="fill: none; stroke: rgb(255, 192, 203); stroke-opacity: 1; stroke-width: 2px;"/></g><g class="legendsymbols"><g class="legendpoints"/></g></g><rect class="legendtoggle" x="0" y="-9.5" width="122.71875" height="19" style="fill: rgb(0, 0, 0); fill-opacity: 0;"/></g><g class="traces" transform="translate(0,128.5)" style="opacity: 1;"><text class="legendtext" text-anchor="start" x="40" y="4.680000000000001" style="font-family: 'Open Sans', verdana, arial, sans-serif; font-size: 12px; fill: rgb(42, 63, 95); fill-opacity: 1; white-space: pre;">Train F1</text><g class="layers" style="opacity: 1;"><g class="legendfill"/><g class="legendlines"><path class="js-line" d="M5,0h30" style="fill: none; stroke: rgb(165, 42, 42); stroke-opacity: 1; stroke-width: 2px;"/></g><g class="legendsymbols"><g class="legendpoints"/></g></g><rect class="legendtoggle" x="0" y="-9.5" width="122.71875" height="19" style="fill: rgb(0, 0, 0); fill-opacity: 0;"/></g><g class="traces" transform="translate(0,147.5)" style="opacity: 1;"><text class="legendtext" text-anchor="start" x="40" y="4.680000000000001" style="font-family: 'Open Sans', verdana, arial, sans-serif; font-size: 12px; fill: rgb(42, 63, 95); fill-opacity: 1; white-space: pre;">Test F1</text><g class="layers" style="opacity: 1;"><g class="legendfill"/><g class="legendlines"><path class="js-line" d="M5,0h30" style="fill: none; stroke: rgb(128, 128, 128); stroke-opacity: 1; stroke-width: 2px;"/></g><g class="legendsymbols"><g class="legendpoints"/></g></g><rect class="legendtoggle" x="0" y="-9.5" width="122.71875" height="19" style="fill: rgb(0, 0, 0); fill-opacity: 0;"/></g></g></g><rect class="scrollbar" rx="20" ry="3" width="0" height="0" x="0" y="0" style="fill: rgb(128, 139, 164); fill-opacity: 1;"/></g><g class="g-gtitle"><text class="gtitle" x="51.2" y="50" text-anchor="start" dy="0em" style="font-family: 'Open Sans', verdana, arial, sans-serif; font-size: 17px; fill: rgb(42, 63, 95); opacity: 1; font-weight: normal; white-space: pre;">Training Metrics - logs/FakeNewsNet-politifact_max-vocab=15000_pre=v2_domain_T=200_s=10.log</text></g><g class="g-xtitle"><text class="xtitle" x="506" y="537.3" text-anchor="middle" style="font-family: 'Open Sans', verdana, arial, sans-serif; font-size: 14px; fill: rgb(42, 63, 95); opacity: 1; font-weight: normal; white-space: pre;">Epoch</text></g><g class="g-ytitle"><text class="ytitle" transform="rotate(-90,103.965625,298)" x="103.965625" y="298" text-anchor="middle" style="font-family: 'Open Sans', verdana, arial, sans-serif; font-size: 14px; fill: rgb(42, 63, 95); opacity: 1; font-weight: normal; white-space: pre;">Metric Score</text></g></g><g class="menulayer"><g class="updatemenu-container" style="cursor: pointer;"><g class="updatemenu-header-group" transform="translate(12,60)"><g class="updatemenu-header" transform="translate(1,1)" style="pointer-events: all;"><rect class="updatemenu-item-rect" rx="2" ry="2" shape-rendering="crispEdges" x="0" y="0" width="167" height="33" style="stroke: rgb(190, 200, 217); stroke-opacity: 1; fill: rgb(255, 255, 255); fill-opacity: 1; stroke-width: 1px;"/><text class="updatemenu-item-text" text-anchor="start" data-notex="1" x="12" y="19.5" style="font-family: 'Open Sans', verdana, arial, sans-serif; font-size: 12px; fill: rgb(42, 63, 95); fill-opacity: 1; white-space: pre;">All</text></g><text class="updatemenu-header-arrow" text-anchor="end" x="163" y="19.5" style="font-family: 'Open Sans', verdana, arial, sans-serif; font-size: 12px; fill: rgb(42, 63, 95); fill-opacity: 1;">▼</text></g><g class="updatemenu-dropdown-button-group" updatemenu-active-index="-1" style="pointer-events: all;"><rect class="scrollbox-bg" opacity="0" x="0" y="0" width="0" height="0" style="pointer-events: all;"/></g></g></g></svg>