<svg class="main-svg" xmlns="http://www.w3.org/2000/svg" xmlns:xlink="http://www.w3.org/1999/xlink" width="1024" height="576" style="" viewBox="0 0 1024 576"><rect x="0" y="0" width="1024" height="576" style="fill: rgb(255, 255, 255); fill-opacity: 1;"/><defs id="defs-3873df"><g class="clips"><clipPath id="clip3873dfxyplot" class="plotclip"><rect width="726" height="396"/></clipPath><clipPath class="axesclip" id="clip3873dfx"><rect x="143" y="0" width="726" height="576"/></clipPath><clipPath class="axesclip" id="clip3873dfy"><rect x="0" y="100" width="1024" height="396"/></clipPath><clipPath class="axesclip" id="clip3873dfxy"><rect x="143" y="100" width="726" height="396"/></clipPath></g><g class="gradients"/><g class="patterns"/></defs><g class="bglayer"><rect class="bg" x="143" y="100" width="726" height="396" style="fill: rgb(229, 236, 246); fill-opacity: 1; stroke-width: 0;"/></g><g class="layer-below"><g class="imagelayer"/><g class="shapelayer"/></g><g class="cartesianlayer"><g class="subplot xy"><g class="layer-subplot"><g class="shapelayer"/><g class="imagelayer"/></g><g class="minor-gridlayer"><g class="x"/><g class="y"/></g><g class="gridlayer"><g class="x"><path class="xgrid crisp" transform="translate(235.57999999999998,0)" d="M0,100v396" style="stroke: rgb(255, 255, 255); stroke-opacity: 1; stroke-width: 1px;"/><path class="xgrid crisp" transform="translate(333.03,0)" d="M0,100v396" style="stroke: rgb(255, 255, 255); stroke-opacity: 1; stroke-width: 1px;"/><path class="xgrid crisp" transform="translate(430.48,0)" d="M0,100v396" style="stroke: rgb(255, 255, 255); stroke-opacity: 1; stroke-width: 1px;"/><path class="xgrid crisp" transform="translate(527.9300000000001,0)" d="M0,100v396" style="stroke: rgb(255, 255, 255); stroke-opacity: 1; stroke-width: 1px;"/><path class="xgrid crisp" transform="translate(625.38,0)" d="M0,100v396" style="stroke: rgb(255, 255, 255); stroke-opacity: 1; stroke-width: 1px;"/><path class="xgrid crisp" transform="translate(722.83,0)" d="M0,100v396" style="stroke: rgb(255, 255, 255); stroke-opacity: 1; stroke-width: 1px;"/><path class="xgrid crisp" transform="translate(820.28,0)" d="M0,100v396" style="stroke: rgb(255, 255, 255); stroke-opacity: 1; stroke-width: 1px;"/></g><g class="y"><path class="ygrid crisp" transform="translate(0,457.51)" d="M143,0h726" style="stroke: rgb(255, 255, 255); stroke-opacity: 1; stroke-width: 1px;"/><path class="ygrid crisp" transform="translate(0,413.02)" d="M143,0h726" style="stroke: rgb(255, 255, 255); stroke-opacity: 1; stroke-width: 1px;"/><path class="ygrid crisp" transform="translate(0,368.52)" d="M143,0h726" style="stroke: rgb(255, 255, 255); stroke-opacity: 1; stroke-width: 1px;"/><path class="ygrid crisp" transform="translate(0,324.03)" d="M143,0h726" style="stroke: rgb(255, 255, 255); stroke-opacity: 1; stroke-width: 1px;"/><path class="ygrid crisp" transform="translate(0,279.53)" d="M143,0h726" style="stroke: rgb(255, 255, 255); stroke-opacity: 1; stroke-width: 1px;"/><path class="ygrid crisp" transform="translate(0,235.04)" d="M143,0h726" style="stroke: rgb(255, 255, 255); stroke-opacity: 1; stroke-width: 1px;"/><path class="ygrid crisp" transform="translate(0,190.55)" d="M143,0h726" style="stroke: rgb(255, 255, 255); stroke-opacity: 1; stroke-width: 1px;"/><path class="ygrid crisp" transform="translate(0,146.05)" d="M143,0h726" style="stroke: rgb(255, 255, 255); stroke-opacity: 1; stroke-width: 1px;"/><path class="ygrid crisp" transform="translate(0,101.56)" d="M143,0h726" style="stroke: rgb(255, 255, 255); stroke-opacity: 1; stroke-width: 1px;"/></g></g><g class="zerolinelayer"/><path class="xlines-below"/><path class="ylines-below"/><g class="overlines-below"/><g class="xaxislayer-below"/><g class="yaxislayer-below"/><g class="overaxes-below"/><g class="plot" transform="translate(143,100)" clip-path="url(#clip3873dfxyplot)"><g class="scatterlayer mlayer"><g class="trace scatter traceb610a6" style="stroke-miterlimit: 2; opacity: 1;"><g class="fills"/><g class="errorbars"/><g class="lines"><path class="js-line" d="M0,310.35L4.87,240.05L9.74,198.44L19.49,127.48L24.36,101.22L29.23,103L34.11,99.22L38.98,96.55L43.85,91.44L48.72,90.1L53.6,76.98L58.47,75.64L63.34,82.98L68.21,84.32L73.09,82.98L77.96,78.76L82.83,90.77L87.7,88.1L92.58,75.2L97.45,81.87L102.32,72.3L107.19,61.18L112.07,67.63L116.94,77.64L121.81,73.19L126.68,68.97L131.56,72.3L136.43,74.75L141.3,76.09L146.17,68.08L151.05,67.41L160.79,68.52L165.66,76.09L170.54,68.97L175.41,72.97L180.28,67.85L185.15,67.41L190.03,58.73L194.9,55.17L199.77,55.4L204.64,59.62L209.52,50.72L214.39,54.51L219.26,50.72L224.13,52.06L229.01,46.94L233.88,50.28L238.75,46.72L243.62,46.72L248.5,49.83L253.37,50.06L258.24,45.16L263.11,38.71L267.99,40.71L272.86,38.27L277.73,40.04L282.6,37.15L287.48,39.16L292.35,30.7L297.22,33.15L302.09,43.83L316.71,54.51L321.58,50.95L326.46,49.39L331.33,49.83L336.2,55.17L341.07,53.62L345.95,49.61L350.82,44.05L355.69,44.05L360.56,40.27L370.31,36.71L375.18,32.26L380.05,36.93L384.93,36.71L389.8,39.82L394.67,41.38L404.42,50.28L409.29,47.39L414.16,52.73L419.03,52.28L423.91,42.49L428.78,38.04L433.65,42.49L438.52,39.82L443.4,46.5L448.27,48.28L453.14,52.5L458.01,50.5L462.89,42.49L467.76,39.16L472.63,33.37L477.5,37.15L482.38,31.59L487.25,30.48L496.99,46.72L501.87,47.16L506.74,44.05L511.61,36.93L521.36,24.92L526.23,28.48L531.1,35.37L535.97,32.7L540.85,38.93L545.72,48.28L550.59,44.05L555.46,41.38L560.34,46.5L565.21,44.72L574.95,48.28L579.83,53.39L584.7,50.28L589.57,48.72L599.32,36.93L604.19,41.16L613.93,37.15L618.81,37.82L623.68,39.82L628.55,49.83L633.42,46.72L638.3,40.71L648.04,44.49L652.91,44.72L657.79,38.27L662.66,39.82L667.53,42.05L672.4,37.15L677.28,42.49L682.15,45.61L687.02,46.05L691.89,42.49L696.77,43.6L701.64,39.6L706.51,38.27L711.38,41.6L716.26,47.16L721.13,48.05L726,39.16" style="vector-effect: none; fill: none; stroke: rgb(255, 0, 0); stroke-opacity: 1; stroke-width: 2px; opacity: 1;"/></g><g class="points"/><g class="text"/></g><g class="trace scatter trace15f502" style="stroke-miterlimit: 2; opacity: 1;"><g class="fills"/><g class="errorbars"/><g class="lines"><path class="js-line" d="M0,302.56L4.87,253.4L9.74,224.7L14.62,191.55L19.49,165.96L24.36,139.93L29.23,142.83L34.11,133.26L38.98,133.93L43.85,123.25L48.72,123.69L53.6,110.12L58.47,126.81L63.34,117.24L68.21,118.8L77.96,124.36L82.83,116.8L87.7,127.25L92.58,123.25L97.45,123.69L102.32,116.8L107.19,110.79L112.07,114.8L116.94,125.25L121.81,121.25L126.68,105.67L131.56,112.79L141.3,123.69L146.17,115.24L155.92,112.79L160.79,114.35L165.66,119.69L170.54,112.13L175.41,104.12L180.28,114.8L185.15,117.69L190.03,97.67L194.9,98.11L199.77,92.55L204.64,96.55L209.52,91.66L214.39,88.54L219.26,86.54L224.13,75.64L229.01,84.09L233.88,84.54L238.75,87.21L243.62,89.21L248.5,89.21L253.37,97.22L258.24,91.66L263.11,80.53L267.99,83.65L272.86,81.65L277.73,77.64L282.6,76.98L287.48,81.65L292.35,78.53L297.22,81.65L302.09,82.09L306.97,87.21L311.84,97.67L316.71,97.22L326.46,98.56L331.33,92.1L336.2,85.65L341.07,88.1L345.95,82.54L350.82,80.53L360.56,61.4L365.44,72.08L375.18,66.52L380.05,74.97L384.93,76.53L389.8,80.98L394.67,74.53L399.54,74.53L404.42,75.64L409.29,78.53L414.16,78.53L419.03,89.21L423.91,76.98L428.78,76.09L433.65,80.09L438.52,90.55L443.4,84.54L448.27,86.54L453.14,80.53L458.01,80.98L462.89,72.53L467.76,70.52L472.63,66.07L477.5,68.52L482.38,68.08L487.25,62.51L492.12,68.52L496.99,85.65L501.87,85.65L506.74,77.64L511.61,76.53L516.48,74.53L521.36,64.52L526.23,62.51L531.1,66.96L535.97,68.97L545.72,80.98L550.59,85.65L555.46,83.65L560.34,94.11L565.21,82.98L570.08,95.22L574.95,91.66L579.83,98.11L584.7,88.54L589.57,94.55L599.32,72.97L604.19,85.21L609.06,85.21L613.93,72.97L618.81,70.52L623.68,65.41L628.55,85.21L633.42,82.09L638.3,80.53L643.17,81.65L648.04,88.1L652.91,80.98L657.79,76.09L662.66,82.98L667.53,89.21L672.4,82.54L677.28,80.98L682.15,83.65L687.02,75.64L691.89,74.08L696.77,79.64L701.64,76.09L706.51,80.53L711.38,97.67L716.26,99.22L721.13,90.1L726,74.08" style="vector-effect: none; fill: none; stroke: rgb(0, 0, 255); stroke-opacity: 1; stroke-width: 2px; opacity: 1;"/></g><g class="points"/><g class="text"/></g><g class="trace scatter trace902bbc" style="stroke-miterlimit: 2; opacity: 1;"><g class="fills"/><g class="errorbars"/><g class="lines"><path class="js-line" d="M0,321.25L9.74,257.84L14.62,238.93L19.49,219.8L24.36,212.68L29.23,210.68L34.11,202.45L38.98,203.34L43.85,195.11L48.72,196.44L53.6,187.1L58.47,184.87L63.34,183.98L68.21,185.32L73.09,185.54L77.96,179.53L82.83,188.66L92.58,180.42L97.45,181.76L107.19,170.41L112.07,170.86L116.94,178.42L121.81,176.2L126.68,174.2L131.56,175.98L136.43,175.98L141.3,172.86L146.17,167.08L151.05,169.75L160.79,173.31L165.66,175.53L170.54,170.41L175.41,174.86L180.28,168.19L185.15,166.63L190.03,164.18L194.9,159.29L199.77,161.29L204.64,162.18L209.52,155.06L214.39,159.51L219.26,158.18L224.13,163.07L229.01,157.51L233.88,158.62L238.75,155.51L243.62,156.18L248.5,158.84L253.37,158.18L258.24,153.51L263.11,153.06L272.86,153.06L277.73,155.95L282.6,155.73L287.48,156.62L292.35,150.39L297.22,152.17L302.09,154.4L306.97,155.29L311.84,156.4L316.71,156.4L321.58,155.29L326.46,155.73L331.33,153.51L336.2,159.07L341.07,158.18L345.95,158.62L350.82,155.06L355.69,154.84L360.56,150.84L365.44,149.06L375.18,147.28L380.05,151.5L384.93,150.39L389.8,150.61L399.54,155.29L404.42,158.18L409.29,156.84L414.16,161.07L419.03,157.96L423.91,151.06L428.78,150.61L433.65,153.06L438.52,152.39L443.4,156.4L448.27,154.4L453.14,159.51L458.01,158.62L462.89,154.84L472.63,150.61L477.5,152.84L482.38,151.28L487.25,148.39L496.99,154.4L501.87,155.29L506.74,154.62L511.61,151.95L521.36,143.72L526.23,144.61L531.1,148.83L535.97,147.94L540.85,153.95L545.72,156.18L555.46,153.95L560.34,156.62L565.21,154.4L570.08,153.73L574.95,155.06L579.83,159.07L584.7,156.4L589.57,156.62L594.44,154.17L599.32,149.28L609.06,150.39L613.93,149.06L618.81,149.28L623.68,150.84L628.55,156.84L633.42,154.84L638.3,150.39L643.17,151.95L648.04,154.4L652.91,155.95L657.79,150.84L662.66,152.39L672.4,150.61L677.28,152.84L687.02,154.17L691.89,153.51L696.77,154.62L701.64,151.73L706.51,150.39L711.38,152.39L716.26,156.62L721.13,158.18L726,152.17" style="vector-effect: none; fill: none; stroke: rgb(0, 128, 0); stroke-opacity: 1; stroke-width: 2px; opacity: 1;"/></g><g class="points"/><g class="text"/></g><g class="trace scatter trace56001d" style="stroke-miterlimit: 2; opacity: 1;"><g class="fills"/><g class="errorbars"/><g class="lines"><path class="js-line" d="M0,317.24L9.74,273.42L14.62,256.73L19.49,246.5L24.36,244.05L29.23,242.27L34.11,236.71L38.98,233.6L43.85,219.13L48.72,224.03L53.6,216.91L58.47,229.15L63.34,215.8L68.21,214.69L73.09,217.13L77.96,218.24L82.83,211.13L87.7,216.24L92.58,216.69L102.32,215.58L107.19,209.35L112.07,209.79L116.94,218.91L121.81,213.35L126.68,206.45L131.56,211.35L136.43,214.46L141.3,213.8L146.17,206.45L151.05,210.24L155.92,205.56L160.79,208.23L165.66,214.24L170.54,208.23L175.41,200.22L180.28,209.35L185.15,211.57L190.03,196L194.9,197.56L199.77,193.55L204.64,193.77L209.52,192.66L214.39,189.77L219.26,190.44L224.13,183.98L229.01,188.43L233.88,186.88L238.75,186.88L243.62,192.44L248.5,190.21L253.37,198.22L263.11,188.43L267.99,193.55L277.73,189.77L282.6,189.77L287.48,193.33L292.35,193.11L297.22,193.55L302.09,188.21L306.97,191.55L311.84,198.44L316.71,194.22L321.58,196.89L326.46,196.22L331.33,191.33L336.2,187.54L341.07,188.66L345.95,185.76L350.82,185.76L360.56,170.86L365.44,177.31L370.31,175.75L375.18,178.87L380.05,183.54L384.93,182.65L389.8,187.1L394.67,180.42L399.54,179.09L404.42,176.87L409.29,182.43L414.16,184.43L419.03,190.21L423.91,182.87L428.78,186.88L433.65,186.43L438.52,197.11L443.4,192.22L453.14,187.54L458.01,188.66L462.89,181.09L467.76,178.64L472.63,179.98L477.5,179.76L482.38,182.43L487.25,177.98L492.12,179.53L496.99,188.21L501.87,188.66L506.74,186.65L511.61,190.21L516.48,187.32L521.36,179.76L526.23,177.09L531.1,179.09L535.97,182.43L540.85,183.98L545.72,181.31L550.59,188.21L555.46,187.99L560.34,195.33L565.21,185.76L570.08,194.44L574.95,191.33L579.83,195.11L584.7,188.66L589.57,198.44L594.44,189.99L599.32,183.98L604.19,189.55L609.06,194.44L613.93,182.87L618.81,176.64L623.68,173.97L628.55,186.43L633.42,184.65L638.3,182.2L643.17,182.87L648.04,190.66L652.91,184.43L657.79,179.98L662.66,185.32L667.53,188.66L672.4,185.54L677.28,186.88L682.15,186.43L687.02,179.31L691.89,181.31L696.77,185.32L701.64,183.76L706.51,185.99L711.38,199.56L716.26,198.22L721.13,190.88L726,179.53" style="vector-effect: none; fill: none; stroke: rgb(255, 165, 0); stroke-opacity: 1; stroke-width: 2px; opacity: 1;"/></g><g class="points"/><g class="text"/></g><g class="trace scatter trace61989b" style="stroke-miterlimit: 2; opacity: 1;"><g class="fills"/><g class="errorbars"/><g class="lines"><path class="js-line" d="M0,225.81L9.74,144.16L14.62,123.47L19.49,102.78L24.36,102.56L29.23,97.89L34.11,84.98L38.98,87.88L43.85,75.86L48.72,78.76L53.6,69.19L58.47,65.85L63.34,60.29L73.09,62.74L77.96,54.06L82.83,64.52L87.7,57.62L92.58,57.84L97.45,56.51L107.19,47.39L112.07,44.27L116.94,52.5L121.81,50.95L126.68,49.61L131.56,51.39L136.43,49.61L141.3,43.6L146.17,37.15L151.05,42.49L155.92,44.49L160.79,48.5L165.66,48.28L170.54,42.71L175.41,48.5L180.28,39.16L185.15,36.49L190.03,36.93L194.9,30.26L199.77,33.59L204.64,32.7L209.52,24.92L214.39,30.7L219.26,30.7L224.13,39.38L229.01,32.04L233.88,31.81L238.75,28.48L243.62,29.59L248.5,32.48L253.37,31.15L258.24,25.36L263.11,29.37L267.99,28.03L272.86,29.59L277.73,34.04L282.6,35.6L287.48,35.82L292.35,30.03L297.22,31.81L302.09,28.03L306.97,27.59L311.84,26.92L316.71,24.92L321.58,25.14L326.46,26.7L331.33,22.25L336.2,29.81L341.07,28.7L345.95,32.48L350.82,29.37L355.69,28.92L360.56,23.58L365.44,21.58L370.31,21.13L375.18,22.69L380.05,27.36L384.93,25.58L389.8,23.36L394.67,26.7L404.42,31.15L409.29,30.48L414.16,34.93L419.03,29.37L423.91,22.69L428.78,24.92L433.65,26.47L438.52,26.92L443.4,30.26L448.27,25.36L453.14,32.26L458.01,32.04L467.76,27.59L472.63,28.25L482.38,31.15L487.25,26.25L496.99,25.81L501.87,27.36L506.74,28.48L511.61,28.48L516.48,23.8L521.36,21.13L526.23,19.8L531.1,23.36L535.97,23.58L540.85,30.7L545.72,28.48L550.59,28.92L555.46,29.14L560.34,30.48L565.21,27.14L570.08,25.14L574.95,26.47L579.83,30.7L584.7,27.59L589.57,29.37L594.44,27.81L599.32,22.91L604.19,21.8L609.06,23.58L613.93,22.47L618.81,22.25L623.68,24.03L628.55,28.7L633.42,27.14L638.3,22.47L643.17,24.03L648.04,27.59L652.91,30.7L657.79,24.92L662.66,27.14L667.53,24.25L677.28,26.03L682.15,24.69L696.77,28.7L701.64,25.81L706.51,24.03L711.38,25.81L716.26,30.26L721.13,32.7L726,26.92" style="vector-effect: none; fill: none; stroke: rgb(128, 0, 128); stroke-opacity: 1; stroke-width: 2px; opacity: 1;"/></g><g class="points"/><g class="text"/></g><g class="trace scatter tracea5e8e6" style="stroke-miterlimit: 2; opacity: 1;"><g class="fills"/><g class="errorbars"/><g class="lines"><path class="js-line" d="M0,221.14L9.74,164.18L14.62,144.38L19.49,134.82L24.36,140.38L29.23,135.93L34.11,130.37L38.98,125.03L43.85,104.56L48.72,112.57L53.6,106.56L58.47,120.36L63.34,101.22L68.21,98.56L73.09,101.67L77.96,102.34L82.83,92.99L87.7,97.89L92.58,100.11L97.45,99L102.32,100.78L107.19,92.55L112.07,91.66L116.94,103L121.81,95.22L126.68,90.1L131.56,95.44L136.43,98.33L141.3,94.77L146.17,85.65L151.05,92.77L155.92,85.43L160.79,89.21L165.66,97.22L170.54,90.1L175.41,79.87L180.28,90.99L185.15,93.66L190.03,75.42L194.9,77.87L199.77,73.64L204.64,72.08L209.52,72.3L214.39,68.74L219.26,70.97L224.13,65.18L229.01,68.74L233.88,65.41L238.75,64.29L243.62,73.42L248.5,69.19L253.37,79.42L258.24,73.64L263.11,70.52L267.99,78.31L277.73,74.97L282.6,75.42L287.48,79.2L292.35,80.76L297.22,79.87L302.09,69.41L306.97,72.75L311.84,79.64L316.71,72.3L321.58,76.53L326.46,75.42L331.33,69.63L336.2,66.07L341.07,66.96L345.95,64.74L350.82,65.63L360.56,49.61L365.44,54.95L370.31,53.84L375.18,61.4L380.05,64.96L384.93,62.29L389.8,68.08L394.67,59.62L399.54,56.73L404.42,52.28L409.29,60.73L414.16,64.29L419.03,69.19L423.91,62.51L428.78,70.52L433.65,67.41L438.52,80.76L443.4,75.42L448.27,70.3L453.14,69.19L458.01,70.97L462.89,61.85L467.76,58.29L472.63,63.85L477.5,62.07L482.38,67.41L487.25,62.29L492.12,61.18L496.99,67.63L501.87,68.3L506.74,69.41L511.61,76.53L516.48,72.3L521.36,64.29L526.23,60.96L531.1,61.62L535.97,66.52L540.85,65.63L545.72,57.4L550.59,67.63L555.46,68.3L560.34,76.09L565.21,64.52L570.08,73.86L574.95,70.08L579.83,73.64L584.7,66.74L589.57,81.42L594.44,72.3L599.32,67.19L604.19,70.08L609.06,79.2L613.93,64.96L618.81,54.73L623.68,52.95L628.55,64.29L633.42,63.18L638.3,59.18L643.17,59.84L648.04,70.52L652.91,63.18L657.79,57.62L662.66,63.85L667.53,66.3L672.4,64.07L677.28,67.41L682.15,65.41L687.02,56.73L696.77,65.63L701.64,64.74L706.51,66.3L711.38,81.87L716.26,78.53L721.13,69.86L726,57.84" style="vector-effect: none; fill: none; stroke: rgb(255, 192, 203); stroke-opacity: 1; stroke-width: 2px; opacity: 1;"/></g><g class="points"/><g class="text"/></g><g class="trace scatter trace42ff63" style="stroke-miterlimit: 2; opacity: 1;"><g class="fills"/><g class="errorbars"/><g class="lines"><path class="js-line" d="M0,376.2L4.87,317.69L9.74,278.76L19.49,219.36L24.36,203.12L29.23,202.45L34.11,195.11L38.98,194.44L43.85,186.65L48.72,186.88L53.6,174.86L58.47,172.86L63.34,175.31L68.21,176.87L73.09,176.42L77.96,170.41L82.83,181.98L87.7,177.76L92.58,169.52L97.45,173.31L102.32,165.52L107.19,156.62L112.07,159.51L116.94,169.08L121.81,165.74L126.68,162.4L131.56,165.3L136.43,166.19L141.3,164.85L146.17,157.29L151.05,158.84L160.79,161.74L165.66,166.41L170.54,159.96L175.41,164.63L180.28,157.73L185.15,156.62L194.9,146.39L199.77,147.72L204.64,150.17L209.52,141.49L214.39,145.94L219.26,143.49L224.13,147.72L229.01,141.71L233.88,143.72L238.75,140.16L243.62,140.38L248.5,143.72L253.37,143.27L258.24,137.93L263.11,135.04L267.99,135.93L272.86,135.04L277.73,137.93L282.6,136.6L287.48,137.93L292.35,130.37L297.22,132.37L302.09,138.16L306.97,140.16L311.84,142.83L316.71,143.94L321.58,141.71L326.46,141.27L331.33,139.93L336.2,146.16L345.95,143.49L350.82,138.82L355.69,138.6L360.56,134.15L375.18,128.37L380.05,133.26L384.93,132.37L389.8,133.71L394.67,135.93L399.54,139.49L404.42,143.49L409.29,141.27L414.16,146.39L419.03,144.16L423.91,135.04L428.78,133.04L433.65,136.6L438.52,135.04L443.4,140.6L448.27,139.93L453.14,145.27L458.01,143.94L462.89,137.93L467.76,134.82L472.63,131.26L477.5,134.37L487.25,128.59L492.12,133.93L496.99,139.27L501.87,139.93L506.74,138.38L511.61,133.71L521.36,123.03L526.23,124.81L531.1,130.81L535.97,129.03L540.85,135.93L545.72,141.05L555.46,136.82L560.34,140.82L565.21,138.38L570.08,138.6L574.95,140.38L579.83,145.27L584.7,142.16L589.57,141.71L594.44,137.71L599.32,131.7L604.19,133.93L609.06,133.48L613.93,131.7L618.81,132.15L623.68,133.93L628.55,142.38L633.42,139.49L638.3,133.93L652.91,139.71L657.79,133.26L662.66,135.04L667.53,135.49L672.4,132.82L677.28,136.6L687.02,138.82L691.89,136.82L696.77,138.16L701.64,134.37L706.51,133.04L711.38,135.93L716.26,141.05L721.13,142.6L726,134.6" style="vector-effect: none; fill: none; stroke: rgb(165, 42, 42); stroke-opacity: 1; stroke-width: 2px; opacity: 1;"/></g><g class="points"/><g class="text"/></g><g class="trace scatter tracedb7a90" style="stroke-miterlimit: 2; opacity: 1;"><g class="fills"/><g class="errorbars"/><g class="lines"><path class="js-line" d="M0,369.3L4.87,328.59L9.74,301.45L14.62,273.86L19.49,254.73L24.36,241.16L29.23,241.16L34.11,233.15L38.98,231.37L43.85,216.91L48.72,220.25L53.6,209.57L58.47,225.14L63.34,211.79L68.21,211.79L73.09,214.69L77.96,216.69L82.83,208.46L87.7,216.91L92.58,215.35L97.45,215.13L102.32,211.35L107.19,204.45L112.07,206.68L116.94,217.58L121.81,212.24L126.68,200.45L131.56,206.9L136.43,211.35L141.3,213.57L146.17,204.67L151.05,206.9L155.92,203.12L160.79,205.56L165.66,212.02L175.41,195.55L180.28,206.45L185.15,209.35L190.03,189.77L194.9,191.1L199.77,185.99L204.64,187.99L209.52,184.87L214.39,181.54L219.26,181.09L224.13,171.97L229.01,178.64L233.88,177.76L238.75,178.87L243.62,183.76L248.5,181.98L253.37,191.1L258.24,185.32L263.11,177.31L267.99,181.98L272.86,179.98L277.73,177.09L282.6,176.87L287.48,181.09L292.35,179.98L297.22,181.31L302.09,177.76L306.97,182.2L311.84,191.55L316.71,188.43L321.58,190.66L326.46,190.44L336.2,178.64L341.07,180.65L345.95,176.2L350.82,175.31L360.56,157.07L365.44,165.74L370.31,163.52L375.18,164.63L380.05,171.53L384.93,171.53L389.8,176.64L394.67,169.08L404.42,167.08L409.29,172.19L414.16,173.53L419.03,181.98L423.91,171.97L428.78,174.2L433.65,175.75L438.52,187.54L443.4,181.54L448.27,180.87L453.14,176.64L458.01,177.76L462.89,168.63L467.76,166.19L472.63,165.3L477.5,166.19L482.38,167.97L487.25,162.63L492.12,165.96L496.99,179.31L501.87,179.53L506.74,174.86L511.61,176.87L516.48,173.97L521.36,164.63L526.23,161.96L540.85,171.75L545.72,172.64L550.59,179.31L555.46,178.2L560.34,187.77L565.21,176.42L570.08,187.54L574.95,183.98L579.83,189.55L584.7,180.87L589.57,190.21L594.44,179.53L599.32,171.08L604.19,179.76L609.06,183.32L613.93,170.19L618.81,164.85L623.68,160.85L628.55,177.76L633.42,175.31L638.3,172.86L643.17,173.75L648.04,181.98L652.91,174.64L657.79,169.3L662.66,176.2L667.53,181.09L672.4,175.98L682.15,177.09L687.02,168.63L691.89,169.52L696.77,174.64L701.64,172.19L706.51,175.53L711.38,192.22L716.26,191.99L721.13,182.87L726,168.19" style="vector-effect: none; fill: none; stroke: rgb(128, 128, 128); stroke-opacity: 1; stroke-width: 2px; opacity: 1;"/></g><g class="points"/><g class="text"/></g></g></g><g class="overplot"/><path class="xlines-above crisp" d="M0,0" style="fill: none;"/><path class="ylines-above crisp" d="M0,0" style="fill: none;"/><g class="overlines-above"/><g class="xaxislayer-above"><g class="xtick"><text text-anchor="middle" x="0" y="509" transform="translate(235.57999999999998,0)" style="font-family: 'Open Sans', verdana, arial, sans-serif; font-size: 12px; fill: rgb(42, 63, 95); fill-opacity: 1; white-space: pre; opacity: 1;">20</text></g><g class="xtick"><text text-anchor="middle" x="0" y="509" style="font-family: 'Open Sans', verdana, arial, sans-serif; font-size: 12px; fill: rgb(42, 63, 95); fill-opacity: 1; white-space: pre; opacity: 1;" transform="translate(333.03,0)">40</text></g><g class="xtick"><text text-anchor="middle" x="0" y="509" style="font-family: 'Open Sans', verdana, arial, sans-serif; font-size: 12px; fill: rgb(42, 63, 95); fill-opacity: 1; white-space: pre; opacity: 1;" transform="translate(430.48,0)">60</text></g><g class="xtick"><text text-anchor="middle" x="0" y="509" style="font-family: 'Open Sans', verdana, arial, sans-serif; font-size: 12px; fill: rgb(42, 63, 95); fill-opacity: 1; white-space: pre; opacity: 1;" transform="translate(527.9300000000001,0)">80</text></g><g class="xtick"><text text-anchor="middle" x="0" y="509" style="font-family: 'Open Sans', verdana, arial, sans-serif; font-size: 12px; fill: rgb(42, 63, 95); fill-opacity: 1; white-space: pre; opacity: 1;" transform="translate(625.38,0)">100</text></g><g class="xtick"><text text-anchor="middle" x="0" y="509" style="font-family: 'Open Sans', verdana, arial, sans-serif; font-size: 12px; fill: rgb(42, 63, 95); fill-opacity: 1; white-space: pre; opacity: 1;" transform="translate(722.83,0)">120</text></g><g class="xtick"><text text-anchor="middle" x="0" y="509" style="font-family: 'Open Sans', verdana, arial, sans-serif; font-size: 12px; fill: rgb(42, 63, 95); fill-opacity: 1; white-space: pre; opacity: 1;" transform="translate(820.28,0)">140</text></g></g><g class="yaxislayer-above"><g class="ytick"><text text-anchor="end" x="142" y="4.199999999999999" transform="translate(0,457.51)" style="font-family: 'Open Sans', verdana, arial, sans-serif; font-size: 12px; fill: rgb(42, 63, 95); fill-opacity: 1; white-space: pre; opacity: 1;">60</text></g><g class="ytick"><text text-anchor="end" x="142" y="4.199999999999999" style="font-family: 'Open Sans', verdana, arial, sans-serif; font-size: 12px; fill: rgb(42, 63, 95); fill-opacity: 1; white-space: pre; opacity: 1;" transform="translate(0,413.02)">62</text></g><g class="ytick"><text text-anchor="end" x="142" y="4.199999999999999" style="font-family: 'Open Sans', verdana, arial, sans-serif; font-size: 12px; fill: rgb(42, 63, 95); fill-opacity: 1; white-space: pre; opacity: 1;" transform="translate(0,368.52)">64</text></g><g class="ytick"><text text-anchor="end" x="142" y="4.199999999999999" style="font-family: 'Open Sans', verdana, arial, sans-serif; font-size: 12px; fill: rgb(42, 63, 95); fill-opacity: 1; white-space: pre; opacity: 1;" transform="translate(0,324.03)">66</text></g><g class="ytick"><text text-anchor="end" x="142" y="4.199999999999999" style="font-family: 'Open Sans', verdana, arial, sans-serif; font-size: 12px; fill: rgb(42, 63, 95); fill-opacity: 1; white-space: pre; opacity: 1;" transform="translate(0,279.53)">68</text></g><g class="ytick"><text text-anchor="end" x="142" y="4.199999999999999" style="font-family: 'Open Sans', verdana, arial, sans-serif; font-size: 12px; fill: rgb(42, 63, 95); fill-opacity: 1; white-space: pre; opacity: 1;" transform="translate(0,235.04)">70</text></g><g class="ytick"><text text-anchor="end" x="142" y="4.199999999999999" style="font-family: 'Open Sans', verdana, arial, sans-serif; font-size: 12px; fill: rgb(42, 63, 95); fill-opacity: 1; white-space: pre; opacity: 1;" transform="translate(0,190.55)">72</text></g><g class="ytick"><text text-anchor="end" x="142" y="4.199999999999999" style="font-family: 'Open Sans', verdana, arial, sans-serif; font-size: 12px; fill: rgb(42, 63, 95); fill-opacity: 1; white-space: pre; opacity: 1;" transform="translate(0,146.05)">74</text></g><g class="ytick"><text text-anchor="end" x="142" y="4.199999999999999" style="font-family: 'Open Sans', verdana, arial, sans-serif; font-size: 12px; fill: rgb(42, 63, 95); fill-opacity: 1; white-space: pre; opacity: 1;" transform="translate(0,101.56)">76</text></g></g><g class="overaxes-above"/></g></g><g class="polarlayer"/><g class="smithlayer"/><g class="ternarylayer"/><g class="geolayer"/><g class="funnelarealayer"/><g class="pielayer"/><g class="iciclelayer"/><g class="treemaplayer"/><g class="sunburstlayer"/><g class="glimages"/><defs id="topdefs-3873df"><g class="clips"/><clipPath id="legend3873df"><rect width="128" height="162" x="0" y="0"/></clipPath></defs><g class="layer-above"><g class="imagelayer"/><g class="shapelayer"/></g><g class="infolayer"><g class="legend" pointer-events="all" transform="translate(883.52,100)"><rect class="bg" shape-rendering="crispEdges" width="128" height="162" x="0" y="0" style="stroke: rgb(68, 68, 68); stroke-opacity: 1; fill: rgb(255, 255, 255); fill-opacity: 1; stroke-width: 0px;"/><g class="scrollbox" transform="" clip-path="url(#legend3873df)"><g class="groups"><g class="traces" transform="translate(0,14.5)" style="opacity: 1;"><text class="legendtext" text-anchor="start" x="40" y="4.680000000000001" style="font-family: 'Open Sans', verdana, arial, sans-serif; font-size: 12px; fill: rgb(42, 63, 95); fill-opacity: 1; white-space: pre;">Train Accuracy</text><g class="layers" style="opacity: 1;"><g class="legendfill"/><g class="legendlines"><path class="js-line" d="M5,0h30" style="fill: none; stroke: rgb(255, 0, 0); stroke-opacity: 1; stroke-width: 2px;"/></g><g class="legendsymbols"><g class="legendpoints"/></g></g><rect class="legendtoggle" x="0" y="-9.5" width="122.71875" height="19" style="fill: rgb(0, 0, 0); fill-opacity: 0;"/></g><g class="traces" transform="translate(0,33.5)" style="opacity: 1;"><text class="legendtext" text-anchor="start" x="40" y="4.680000000000001" style="font-family: 'Open Sans', verdana, arial, sans-serif; font-size: 12px; fill: rgb(42, 63, 95); fill-opacity: 1; white-space: pre;">Test Accuracy</text><g class="layers" style="opacity: 1;"><g class="legendfill"/><g class="legendlines"><path class="js-line" d="M5,0h30" style="fill: none; stroke: rgb(0, 0, 255); stroke-opacity: 1; stroke-width: 2px;"/></g><g class="legendsymbols"><g class="legendpoints"/></g></g><rect class="legendtoggle" x="0" y="-9.5" width="122.71875" height="19" style="fill: rgb(0, 0, 0); fill-opacity: 0;"/></g><g class="traces" transform="translate(0,52.5)" style="opacity: 1;"><text class="legendtext" text-anchor="start" x="40" y="4.680000000000001" style="font-family: 'Open Sans', verdana, arial, sans-serif; font-size: 12px; fill: rgb(42, 63, 95); fill-opacity: 1; white-space: pre;">Train Precision</text><g class="layers" style="opacity: 1;"><g class="legendfill"/><g class="legendlines"><path class="js-line" d="M5,0h30" style="fill: none; stroke: rgb(0, 128, 0); stroke-opacity: 1; stroke-width: 2px;"/></g><g class="legendsymbols"><g class="legendpoints"/></g></g><rect class="legendtoggle" x="0" y="-9.5" width="122.71875" height="19" style="fill: rgb(0, 0, 0); fill-opacity: 0;"/></g><g class="traces" transform="translate(0,71.5)" style="opacity: 1;"><text class="legendtext" text-anchor="start" x="40" y="4.680000000000001" style="font-family: 'Open Sans', verdana, arial, sans-serif; font-size: 12px; fill: rgb(42, 63, 95); fill-opacity: 1; white-space: pre;">Test Precision</text><g class="layers" style="opacity: 1;"><g class="legendfill"/><g class="legendlines"><path class="js-line" d="M5,0h30" style="fill: none; stroke: rgb(255, 165, 0); stroke-opacity: 1; stroke-width: 2px;"/></g><g class="legendsymbols"><g class="legendpoints"/></g></g><rect class="legendtoggle" x="0" y="-9.5" width="122.71875" height="19" style="fill: rgb(0, 0, 0); fill-opacity: 0;"/></g><g class="traces" transform="translate(0,90.5)" style="opacity: 1;"><text class="legendtext" text-anchor="start" x="40" y="4.680000000000001" style="font-family: 'Open Sans', verdana, arial, sans-serif; font-size: 12px; fill: rgb(42, 63, 95); fill-opacity: 1; white-space: pre;">Train Recall</text><g class="layers" style="opacity: 1;"><g class="legendfill"/><g class="legendlines"><path class="js-line" d="M5,0h30" style="fill: none; stroke: rgb(128, 0, 128); stroke-opacity: 1; stroke-width: 2px;"/></g><g class="legendsymbols"><g class="legendpoints"/></g></g><rect class="legendtoggle" x="0" y="-9.5" width="122.71875" height="19" style="fill: rgb(0, 0, 0); fill-opacity: 0;"/></g><g class="traces" transform="translate(0,109.5)" style="opacity: 1;"><text class="legendtext" text-anchor="start" x="40" y="4.680000000000001" style="font-family: 'Open Sans', verdana, arial, sans-serif; font-size: 12px; fill: rgb(42, 63, 95); fill-opacity: 1; white-space: pre;">Test Recall</text><g class="layers" style="opacity: 1;"><g class="legendfill"/><g class="legendlines"><path class="js-line" d="M5,0h30" style="fill: none; stroke: rgb(255, 192, 203); stroke-opacity: 1; stroke-width: 2px;"/></g><g class="legendsymbols"><g class="legendpoints"/></g></g><rect class="legendtoggle" x="0" y="-9.5" width="122.71875" height="19" style="fill: rgb(0, 0, 0); fill-opacity: 0;"/></g><g class="traces" transform="translate(0,128.5)" style="opacity: 1;"><text class="legendtext" text-anchor="start" x="40" y="4.680000000000001" style="font-family: 'Open Sans', verdana, arial, sans-serif; font-size: 12px; fill: rgb(42, 63, 95); fill-opacity: 1; white-space: pre;">Train F1</text><g class="layers" style="opacity: 1;"><g class="legendfill"/><g class="legendlines"><path class="js-line" d="M5,0h30" style="fill: none; stroke: rgb(165, 42, 42); stroke-opacity: 1; stroke-width: 2px;"/></g><g class="legendsymbols"><g class="legendpoints"/></g></g><rect class="legendtoggle" x="0" y="-9.5" width="122.71875" height="19" style="fill: rgb(0, 0, 0); fill-opacity: 0;"/></g><g class="traces" transform="translate(0,147.5)" style="opacity: 1;"><text class="legendtext" text-anchor="start" x="40" y="4.680000000000001" style="font-family: 'Open Sans', verdana, arial, sans-serif; font-size: 12px; fill: rgb(42, 63, 95); fill-opacity: 1; white-space: pre;">Test F1</text><g class="layers" style="opacity: 1;"><g class="legendfill"/><g class="legendlines"><path class="js-line" d="M5,0h30" style="fill: none; stroke: rgb(128, 128, 128); stroke-opacity: 1; stroke-width: 2px;"/></g><g class="legendsymbols"><g class="legendpoints"/></g></g><rect class="legendtoggle" x="0" y="-9.5" width="122.71875" height="19" style="fill: rgb(0, 0, 0); fill-opacity: 0;"/></g></g></g><rect class="scrollbar" rx="20" ry="3" width="0" height="0" x="0" y="0" style="fill: rgb(128, 139, 164); fill-opacity: 1;"/></g><g class="g-gtitle"><text class="gtitle" x="51.2" y="50" text-anchor="start" dy="0em" style="font-family: 'Open Sans', verdana, arial, sans-serif; font-size: 17px; fill: rgb(42, 63, 95); opacity: 1; font-weight: normal; white-space: pre;">Training Metrics - logs/FakeNewsNet-gossipcop_max-vocab=15000_pre=v2_text_T=200_s=15.log</text></g><g class="g-xtitle"><text class="xtitle" x="506" y="537.3" text-anchor="middle" style="font-family: 'Open Sans', verdana, arial, sans-serif; font-size: 14px; fill: rgb(42, 63, 95); opacity: 1; font-weight: normal; white-space: pre;">Epoch</text></g><g class="g-ytitle"><text class="ytitle" transform="rotate(-90,103.965625,298)" x="103.965625" y="298" text-anchor="middle" style="font-family: 'Open Sans', verdana, arial, sans-serif; font-size: 14px; fill: rgb(42, 63, 95); opacity: 1; font-weight: normal; white-space: pre;">Metric Score</text></g></g><g class="menulayer"><g class="updatemenu-container" style="cursor: pointer;"><g class="updatemenu-header-group" transform="translate(12,60)"><g class="updatemenu-header" transform="translate(1,1)" style="pointer-events: all;"><rect class="updatemenu-item-rect" rx="2" ry="2" shape-rendering="crispEdges" x="0" y="0" width="167" height="33" style="stroke: rgb(190, 200, 217); stroke-opacity: 1; fill: rgb(255, 255, 255); fill-opacity: 1; stroke-width: 1px;"/><text class="updatemenu-item-text" text-anchor="start" data-notex="1" x="12" y="19.5" style="font-family: 'Open Sans', verdana, arial, sans-serif; font-size: 12px; fill: rgb(42, 63, 95); fill-opacity: 1; white-space: pre;">All</text></g><text class="updatemenu-header-arrow" text-anchor="end" x="163" y="19.5" style="font-family: 'Open Sans', verdana, arial, sans-serif; font-size: 12px; fill: rgb(42, 63, 95); fill-opacity: 1;">▼</text></g><g class="updatemenu-dropdown-button-group" updatemenu-active-index="-1" style="pointer-events: all;"><rect class="scrollbox-bg" opacity="0" x="0" y="0" width="0" height="0" style="pointer-events: all;"/></g></g></g></svg>