<svg class="main-svg" xmlns="http://www.w3.org/2000/svg" xmlns:xlink="http://www.w3.org/1999/xlink" width="1024" height="576" style="" viewBox="0 0 1024 576"><rect x="0" y="0" width="1024" height="576" style="fill: rgb(255, 255, 255); fill-opacity: 1;"/><defs id="defs-204d65"><g class="clips"><clipPath id="clip204d65xyplot" class="plotclip"><rect width="726" height="396"/></clipPath><clipPath class="axesclip" id="clip204d65x"><rect x="143" y="0" width="726" height="576"/></clipPath><clipPath class="axesclip" id="clip204d65y"><rect x="0" y="100" width="1024" height="396"/></clipPath><clipPath class="axesclip" id="clip204d65xy"><rect x="143" y="100" width="726" height="396"/></clipPath></g><g class="gradients"/><g class="patterns"/></defs><g class="bglayer"><rect class="bg" x="143" y="100" width="726" height="396" style="fill: rgb(229, 236, 246); fill-opacity: 1; stroke-width: 0;"/></g><g class="layer-below"><g class="imagelayer"/><g class="shapelayer"/></g><g class="cartesianlayer"><g class="subplot xy"><g class="layer-subplot"><g class="shapelayer"/><g class="imagelayer"/></g><g class="minor-gridlayer"><g class="x"/><g class="y"/></g><g class="gridlayer"><g class="x"><path class="xgrid crisp" transform="translate(209,0)" d="M0,100v396" style="stroke: rgb(255, 255, 255); stroke-opacity: 1; stroke-width: 1px;"/><path class="xgrid crisp" transform="translate(282.33000000000004,0)" d="M0,100v396" style="stroke: rgb(255, 255, 255); stroke-opacity: 1; stroke-width: 1px;"/><path class="xgrid crisp" transform="translate(355.66999999999996,0)" d="M0,100v396" style="stroke: rgb(255, 255, 255); stroke-opacity: 1; stroke-width: 1px;"/><path class="xgrid crisp" transform="translate(429,0)" d="M0,100v396" style="stroke: rgb(255, 255, 255); stroke-opacity: 1; stroke-width: 1px;"/><path class="xgrid crisp" transform="translate(502.33,0)" d="M0,100v396" style="stroke: rgb(255, 255, 255); stroke-opacity: 1; stroke-width: 1px;"/><path class="xgrid crisp" transform="translate(575.6700000000001,0)" d="M0,100v396" style="stroke: rgb(255, 255, 255); stroke-opacity: 1; stroke-width: 1px;"/><path class="xgrid crisp" transform="translate(649,0)" d="M0,100v396" style="stroke: rgb(255, 255, 255); stroke-opacity: 1; stroke-width: 1px;"/><path class="xgrid crisp" transform="translate(722.33,0)" d="M0,100v396" style="stroke: rgb(255, 255, 255); stroke-opacity: 1; stroke-width: 1px;"/><path class="xgrid crisp" transform="translate(795.67,0)" d="M0,100v396" style="stroke: rgb(255, 255, 255); stroke-opacity: 1; stroke-width: 1px;"/></g><g class="y"><path class="ygrid crisp" transform="translate(0,468.77)" d="M143,0h726" style="stroke: rgb(255, 255, 255); stroke-opacity: 1; stroke-width: 1px;"/><path class="ygrid crisp" transform="translate(0,425.04)" d="M143,0h726" style="stroke: rgb(255, 255, 255); stroke-opacity: 1; stroke-width: 1px;"/><path class="ygrid crisp" transform="translate(0,381.31)" d="M143,0h726" style="stroke: rgb(255, 255, 255); stroke-opacity: 1; stroke-width: 1px;"/><path class="ygrid crisp" transform="translate(0,337.58000000000004)" d="M143,0h726" style="stroke: rgb(255, 255, 255); stroke-opacity: 1; stroke-width: 1px;"/><path class="ygrid crisp" transform="translate(0,293.85)" d="M143,0h726" style="stroke: rgb(255, 255, 255); stroke-opacity: 1; stroke-width: 1px;"/><path class="ygrid crisp" transform="translate(0,250.12)" d="M143,0h726" style="stroke: rgb(255, 255, 255); stroke-opacity: 1; stroke-width: 1px;"/><path class="ygrid crisp" transform="translate(0,206.39)" d="M143,0h726" style="stroke: rgb(255, 255, 255); stroke-opacity: 1; stroke-width: 1px;"/><path class="ygrid crisp" transform="translate(0,162.66)" d="M143,0h726" style="stroke: rgb(255, 255, 255); stroke-opacity: 1; stroke-width: 1px;"/><path class="ygrid crisp" transform="translate(0,118.93)" d="M143,0h726" style="stroke: rgb(255, 255, 255); stroke-opacity: 1; stroke-width: 1px;"/></g></g><g class="zerolinelayer"/><path class="xlines-below"/><path class="ylines-below"/><g class="overlines-below"/><g class="xaxislayer-below"/><g class="yaxislayer-below"/><g class="overaxes-below"/><g class="plot" transform="translate(143,100)" clip-path="url(#clip204d65xyplot)"><g class="scatterlayer mlayer"><g class="trace scatter tracef2bd6b" style="stroke-miterlimit: 2; opacity: 1;"><g class="fills"/><g class="errorbars"/><g class="lines"><path class="js-line" d="M0,268.01L7.33,230.75L14.67,128.16L22,156.15L29.33,150.9L36.67,139.53L44,102.27L51.33,101.23L58.67,113.64L66,156.15L73.33,111.55L88,89.77L95.33,98.08L102.67,96.07L110,80.5L117.33,85.66L124.67,83.56L132,86.71L139.33,77.35L146.67,86.71L154,79.45L161.33,60.82L168.67,69.04L176,62.83L183.33,58.72L190.67,56.62L198,57.67L205.33,52.51L212.67,65.98L220,54.61L227.33,62.83L234.67,58.72L242,57.67L249.33,59.77L256.67,59.77L264,56.62L271.33,62.83L278.67,54.61L286,60.82L293.33,54.61L300.67,52.51L308,49.36L315.33,53.56L322.67,55.57L330,52.51L337.33,56.62L344.67,42.1L352,43.15L359.33,40.09L366.67,44.2L374,42.1L381.33,40.09L388.67,41.14L396,43.15L403.33,39.04L410.67,39.04L418,44.2L425.33,41.14L432.67,41.14L440,46.3L447.33,42.1L454.67,42.1L462,77.35L469.33,78.4L476.67,71.14L484,41.14L491.33,37.99L498.67,33.88L506,34.84L513.33,40.09L520.67,39.04L528,42.1L535.33,40.09L542.67,41.14L550,37.99L557.33,34.84L564.67,33.88L579.33,35.89L586.67,31.78L594,28.63L601.33,27.67L608.67,29.68L616,34.84L623.33,32.83L630.67,33.88L638,34.84L645.33,34.84L652.67,32.83L660,35.89L667.33,75.34L674.67,72.19L682,71.14L689.33,30.73L696.67,31.78L704,33.88L711.33,34.84L718.67,33.88L726,33.88" style="vector-effect: none; fill: none; stroke: rgb(255, 0, 0); stroke-opacity: 1; stroke-width: 2px; opacity: 1;"/></g><g class="points"/><g class="text"/></g><g class="trace scatter tracef8a169" style="stroke-miterlimit: 2; opacity: 1;"><g class="fills"/><g class="errorbars"/><g class="lines"><path class="js-line" d="M0,345.68L7.33,316.81L14.67,147.67L22,155.89L29.33,201.28L36.67,205.39L44,139.36L51.33,131.14L58.67,131.14L66,143.56L73.33,127.03L80.67,106.39L88,98.16L95.33,98.16L102.67,102.27L110,93.97L117.33,106.39L124.67,98.16L132,98.16L139.33,93.97L146.67,102.27L154,98.16L161.33,89.86L168.67,102.27L176,98.16L183.33,93.97L190.67,93.97L205.33,93.97L212.67,106.39L220,93.97L227.33,102.27L234.67,98.16L242,102.27L249.33,98.16L256.67,89.86L271.33,106.39L278.67,102.27L286,114.61L293.33,102.27L300.67,93.97L308,93.97L344.67,93.97L352,102.27L359.33,89.86L366.67,89.86L374,98.16L381.33,89.86L388.67,89.86L396,93.97L403.33,89.86L410.67,93.97L418,98.16L425.33,98.16L432.67,89.86L440,93.97L447.33,89.86L454.67,89.86L462,168.31L469.33,168.31L476.67,168.31L484,89.86L491.33,93.97L498.67,89.86L506,93.97L513.33,93.97L520.67,93.97L528,89.86L535.33,89.86L542.67,93.97L550,93.97L557.33,89.86L564.67,89.86L572,93.97L608.67,93.97L616,98.16L630.67,98.16L638,89.86L645.33,89.86L652.67,93.97L660,93.97L667.33,168.31L674.67,172.42L682,172.42L689.33,93.97L696.67,93.97L704,93.97L711.33,106.39L718.67,102.27L726,89.86" style="vector-effect: none; fill: none; stroke: rgb(0, 0, 255); stroke-opacity: 1; stroke-width: 2px; opacity: 1;"/></g><g class="points"/><g class="text"/></g><g class="trace scatter trace88602b" style="stroke-miterlimit: 2; opacity: 1;"><g class="fills"/><g class="errorbars"/><g class="lines"><path class="js-line" d="M0,126.85L7.33,121.08L14.67,134.11L22,88.63L29.33,144.61L36.67,146.44L44,45.16L51.33,38.52L58.67,36.16L66,55.22L73.33,48.84L80.67,104.11L88,93.18L95.33,100.88L102.67,97.55L110,82.6L117.33,87.49L124.67,84.35L132,88.19L139.33,79.45L146.67,88.72L154,82.16L161.33,62.31L168.67,70L176,65.54L183.33,60.12L190.67,58.81L198,59.77L205.33,54.43L212.67,68.52L220,56.27L227.33,65.54L234.67,60.73L242,59.51L249.33,61.34L256.67,61.34L264,56.97L271.33,65.37L278.67,56.01L286,63.18L293.33,55.75L300.67,54.43L308,51.29L315.33,55.92L322.67,58.72L330,54.87L337.33,59.24L344.67,44.73L352,46.13L359.33,41.23L366.67,46.48L374,44.29L381.33,40.97L388.67,43.06L396,45.95L403.33,40.35L410.67,42.01L418,46.65L425.33,42.54L432.67,43.59L440,48.4L447.33,44.55L454.67,44.55L462,60.21L469.33,60.91L476.67,53.12L484,43.33L498.67,35.28L506,37.29L513.33,42.36L520.67,40.35L528,42.8L535.33,41.23L542.67,41.23L550,38.08L557.33,35.28L564.67,35.02L572,37.03L579.33,37.47L594,30.56L601.33,29.07L608.67,31.26L616,37.29L623.33,34.32L630.67,35.28L645.33,35.98L652.67,34.32L660,37.99L667.33,58.81L674.67,54.52L682,53.82L689.33,32.48L696.67,33.71L704,36.5L711.33,37.55L726,35.81" style="vector-effect: none; fill: none; stroke: rgb(0, 128, 0); stroke-opacity: 1; stroke-width: 2px; opacity: 1;"/></g><g class="points"/><g class="text"/></g><g class="trace scatter trace7a1c64" style="stroke-miterlimit: 2; opacity: 1;"><g class="fills"/><g class="errorbars"/><g class="lines"><path class="js-line" d="M0,162.45L7.33,151.6L14.67,148.72L22,80.5L29.33,150.47L36.67,237.93L44,24.52L51.33,41.32L58.67,21.37L66,26.1L73.33,19.8L80.67,114.69L88,106.39L95.33,106.39L102.67,111.28L110,101.49L117.33,114.69L124.67,106.39L132,104.81L139.33,99.83L146.67,108.13L154,104.81L161.33,96.5L168.67,108.13L176,104.81L183.33,99.83L190.67,99.83L205.33,99.83L212.67,114.69L220,99.83L227.33,109.71L234.67,106.39L242,109.71L249.33,104.81L256.67,96.5L264,106.39L271.33,113.12L278.67,109.71L286,119.59L300.67,99.83L308,99.83L344.67,99.83L352,109.71L359.33,96.5L366.67,96.5L374,106.39L381.33,96.5L388.67,96.5L396,99.83L403.33,96.5L410.67,99.83L418,106.39L425.33,106.39L432.67,96.5L440,99.83L447.33,96.5L454.67,96.5L462,103.5L469.33,103.5L476.67,103.5L484,96.5L491.33,101.49L498.67,96.5L506,99.83L513.33,99.83L520.67,101.49L528,96.5L535.33,96.5L542.67,101.49L550,101.49L557.33,96.5L564.67,96.5L572,99.83L608.67,99.83L616,103.06L630.67,103.06L638,96.5L645.33,96.5L652.67,99.83L660,99.83L667.33,103.5L674.67,105.34L682,105.34L689.33,99.83L696.67,99.83L704,99.83L711.33,109.45L718.67,106.3L726,96.5" style="vector-effect: none; fill: none; stroke: rgb(255, 165, 0); stroke-opacity: 1; stroke-width: 2px; opacity: 1;"/></g><g class="points"/><g class="text"/></g><g class="trace scatter trace50f23e" style="stroke-miterlimit: 2; opacity: 1;"><g class="fills"/><g class="errorbars"/><g class="lines"><path class="js-line" d="M0,216.94L7.33,186.24L14.67,140.06L22,202.5L29.33,140.84L36.67,150.2L44,139.36L51.33,139.1L58.67,155.28L66,206.35L73.33,150.82L80.67,114.78L88,101.23L95.33,111.46L102.67,110.67L110,92.48L117.33,98.69L124.67,97.55L132,100.26L139.33,89.07L146.67,99.56L154,90.56L161.33,71.4L168.67,81.28L176,72.19L190.67,66.15L198,67.38L205.33,61.87L212.67,75.86L220,64.32L227.33,72.19L234.67,68.6L242,67.73L249.33,70.18L256.67,70.18L264,68.17L271.33,72.54L278.67,64.67L286,70.35L293.33,65.02L300.67,61.87L308,58.46L315.33,62.39L322.67,63.53L330,61.17L337.33,65.45L344.67,49.54L352,50.06L359.33,49.1L366.67,52.34L374,50.24L388.67,49.27L396,50.41L410.67,45.43L418,51.99L432.67,48.66L440,54.78L447.33,49.89L454.67,49.89L462,59.59L469.33,60.56L476.67,52.86L484,48.92L491.33,46.3L498.67,42.01L506,41.93L513.33,47.7L520.67,47.87L528,51.9L535.33,49.1L542.67,51.37L557.33,44.29L564.67,42.36L572,42.28L579.33,44.11L586.67,38.52L594,35.89L601.33,35.28L608.67,37.47L616,41.93L623.33,40.79L638,43.59L645.33,43.59L652.67,40.79L660,43.5L667.33,57.85L674.67,54.17L682,53.21L689.33,38.34L711.33,41.58L718.67,40.35L726,41.32" style="vector-effect: none; fill: none; stroke: rgb(128, 0, 128); stroke-opacity: 1; stroke-width: 2px; opacity: 1;"/></g><g class="points"/><g class="text"/></g><g class="trace scatter tracea805f8" style="stroke-miterlimit: 2; opacity: 1;"><g class="fills"/><g class="errorbars"/><g class="lines"><path class="js-line" d="M0,252.36L7.33,229.44L14.67,135.51L22,247.46L29.33,154.49L36.67,246.76L44,229.7L51.33,216.15L58.67,218.51L66,235.3L73.33,212.91L80.67,100.53L88,91.69L95.33,91.69L102.67,97.29L110,86.09L117.33,100.53L124.67,91.69L132,89.33L139.33,83.73L146.67,92.57L154,89.33L161.33,80.41L168.67,92.57L176,89.33L183.33,83.73L190.67,83.73L205.33,83.73L212.67,100.53L220,83.73L227.33,94.93L234.67,91.69L242,94.93L249.33,89.33L256.67,80.41L264,91.69L271.33,98.16L278.67,94.93L286,104.72L293.33,94.93L300.67,83.73L344.67,83.73L352,94.93L359.33,80.41L366.67,80.41L374,91.69L381.33,80.41L388.67,80.41L396,83.73L403.33,80.41L410.67,83.73L418,91.69L425.33,91.69L432.67,80.41L440,83.73L447.33,80.41L454.67,80.41L462,114.34L469.33,114.34L476.67,114.34L484,80.41L491.33,86.09L498.67,80.41L506,83.73L513.33,83.73L520.67,86.09L528,80.41L535.33,80.41L542.67,86.09L550,86.09L557.33,80.41L564.67,80.41L572,83.73L608.67,83.73L616,86.97L630.67,86.97L638,80.41L645.33,80.41L652.67,83.73L660,83.73L667.33,114.34L674.67,117.58L682,117.58L689.33,83.73L696.67,83.73L704,83.73L711.33,93.53L718.67,90.21L726,80.41" style="vector-effect: none; fill: none; stroke: rgb(255, 192, 203); stroke-opacity: 1; stroke-width: 2px; opacity: 1;"/></g><g class="points"/><g class="text"/></g><g class="trace scatter tracef6a961" style="stroke-miterlimit: 2; opacity: 1;"><g class="fills"/><g class="errorbars"/><g class="lines"><path class="js-line" d="M0,296L7.33,246.5L14.67,138.05L22,217.9L29.33,151.43L36.67,148.8L44,137.96L51.33,138.13L58.67,158.69L66,227.61L73.33,151.95L80.67,111.63L88,98.43L95.33,108.22L102.67,107L110,89.24L117.33,95.19L124.67,93.7L132,96.59L139.33,85.92L146.67,96.15L154,87.67L161.33,68.17L168.67,77.61L176,69.65L183.33,66.07L190.67,63.36L198,64.49L205.33,59.07L212.67,73.15L220,61.34L227.33,69.65L234.67,65.72L242,64.67L249.33,67.03L256.67,67.03L264,64.4L271.33,69.83L278.67,61.52L286,67.64L293.33,61.69L308,55.75L315.33,59.86L322.67,61.52L330,58.72L337.33,63.01L344.67,47.52L352,48.4L359.33,46.13L366.67,49.97L374,47.79L381.33,46.3L388.67,46.83L396,48.49L403.33,44.99L410.67,43.94L418,49.8L425.33,47.09L432.67,46.56L440,52.25L447.33,47.7L454.67,47.7L462,77.35L469.33,78.4L476.67,71.14L484,46.65L491.33,43.68L498.67,39.39L506,39.92L513.33,45.51L520.67,44.99L528,48.57L535.33,46.13L542.67,47.79L550,44.46L557.33,40.97L564.67,39.48L572,40.09L579.33,41.49L586.67,36.68L594,33.62L601.33,32.74L608.67,34.93L616,39.92L623.33,38.25L638,40.62L645.33,40.62L652.67,38.25L660,41.23L667.33,75.34L674.67,72.19L682,71.14L689.33,35.89L704,38.69L711.33,39.83L718.67,38.69L726,39.04" style="vector-effect: none; fill: none; stroke: rgb(165, 42, 42); stroke-opacity: 1; stroke-width: 2px; opacity: 1;"/></g><g class="points"/><g class="text"/></g><g class="trace scatter tracece3d13" style="stroke-miterlimit: 2; opacity: 1;"><g class="fills"/><g class="errorbars"/><g class="lines"><path class="js-line" d="M0,376.2L7.33,337.98L14.67,152.56L22,273.35L29.33,201.37L36.67,245.53L44,249.65L51.33,227.69L58.67,232.59L66,258.3L73.33,224.37L80.67,113.29L88,104.72L95.33,104.72L102.67,109.36L110,100.18L117.33,113.29L124.67,104.72L132,104.02L139.33,99.48L146.67,107.96L154,104.02L161.33,95.54L168.67,107.96L176,104.02L183.33,99.48L190.67,99.48L205.33,99.48L212.67,113.29L220,99.48L227.33,108.66L234.67,104.72L242,108.66L249.33,104.02L256.67,95.54L264,104.72L271.33,112.51L278.67,108.66L286,120.29L293.33,108.66L300.67,99.48L344.67,99.48L352,108.66L359.33,95.54L366.67,95.54L374,104.72L381.33,95.54L388.67,95.54L396,99.48L403.33,95.54L410.67,99.48L418,104.72L425.33,104.72L432.67,95.54L440,99.48L447.33,95.54L454.67,95.54L462,168.66L469.33,168.66L476.67,168.66L484,95.54L491.33,100.18L498.67,95.54L506,99.48L513.33,99.48L520.67,100.18L528,95.54L535.33,95.54L542.67,100.18L550,100.18L557.33,95.54L564.67,95.54L572,99.48L608.67,99.48L616,103.32L630.67,103.32L638,95.54L645.33,95.54L652.67,99.48L660,99.48L667.33,168.66L674.67,172.94L682,172.94L689.33,99.48L696.67,99.48L704,99.48L711.33,111.2L718.67,107.26L726,95.54" style="vector-effect: none; fill: none; stroke: rgb(128, 128, 128); stroke-opacity: 1; stroke-width: 2px; opacity: 1;"/></g><g class="points"/><g class="text"/></g></g></g><g class="overplot"/><path class="xlines-above crisp" d="M0,0" style="fill: none;"/><path class="ylines-above crisp" d="M0,0" style="fill: none;"/><g class="overlines-above"/><g class="xaxislayer-above"><g class="xtick"><text text-anchor="middle" x="0" y="509" transform="translate(209,0)" style="font-family: 'Open Sans', verdana, arial, sans-serif; font-size: 12px; fill: rgb(42, 63, 95); fill-opacity: 1; white-space: pre; opacity: 1;">10</text></g><g class="xtick"><text text-anchor="middle" x="0" y="509" style="font-family: 'Open Sans', verdana, arial, sans-serif; font-size: 12px; fill: rgb(42, 63, 95); fill-opacity: 1; white-space: pre; opacity: 1;" transform="translate(282.33000000000004,0)">20</text></g><g class="xtick"><text text-anchor="middle" x="0" y="509" style="font-family: 'Open Sans', verdana, arial, sans-serif; font-size: 12px; fill: rgb(42, 63, 95); fill-opacity: 1; white-space: pre; opacity: 1;" transform="translate(355.66999999999996,0)">30</text></g><g class="xtick"><text text-anchor="middle" x="0" y="509" style="font-family: 'Open Sans', verdana, arial, sans-serif; font-size: 12px; fill: rgb(42, 63, 95); fill-opacity: 1; white-space: pre; opacity: 1;" transform="translate(429,0)">40</text></g><g class="xtick"><text text-anchor="middle" x="0" y="509" style="font-family: 'Open Sans', verdana, arial, sans-serif; font-size: 12px; fill: rgb(42, 63, 95); fill-opacity: 1; white-space: pre; opacity: 1;" transform="translate(502.33,0)">50</text></g><g class="xtick"><text text-anchor="middle" x="0" y="509" style="font-family: 'Open Sans', verdana, arial, sans-serif; font-size: 12px; fill: rgb(42, 63, 95); fill-opacity: 1; white-space: pre; opacity: 1;" transform="translate(575.6700000000001,0)">60</text></g><g class="xtick"><text text-anchor="middle" x="0" y="509" style="font-family: 'Open Sans', verdana, arial, sans-serif; font-size: 12px; fill: rgb(42, 63, 95); fill-opacity: 1; white-space: pre; opacity: 1;" transform="translate(649,0)">70</text></g><g class="xtick"><text text-anchor="middle" x="0" y="509" style="font-family: 'Open Sans', verdana, arial, sans-serif; font-size: 12px; fill: rgb(42, 63, 95); fill-opacity: 1; white-space: pre; opacity: 1;" transform="translate(722.33,0)">80</text></g><g class="xtick"><text text-anchor="middle" x="0" y="509" style="font-family: 'Open Sans', verdana, arial, sans-serif; font-size: 12px; fill: rgb(42, 63, 95); fill-opacity: 1; white-space: pre; opacity: 1;" transform="translate(795.67,0)">90</text></g><g class="xtick"><text text-anchor="middle" x="0" y="509" style="font-family: 'Open Sans', verdana, arial, sans-serif; font-size: 12px; fill: rgb(42, 63, 95); fill-opacity: 1; white-space: pre; opacity: 1;" transform="translate(869,0)">100</text></g></g><g class="yaxislayer-above"><g class="ytick"><text text-anchor="end" x="142" y="4.199999999999999" transform="translate(0,468.77)" style="font-family: 'Open Sans', verdana, arial, sans-serif; font-size: 12px; fill: rgb(42, 63, 95); fill-opacity: 1; white-space: pre; opacity: 1;">45</text></g><g class="ytick"><text text-anchor="end" x="142" y="4.199999999999999" style="font-family: 'Open Sans', verdana, arial, sans-serif; font-size: 12px; fill: rgb(42, 63, 95); fill-opacity: 1; white-space: pre; opacity: 1;" transform="translate(0,425.04)">50</text></g><g class="ytick"><text text-anchor="end" x="142" y="4.199999999999999" style="font-family: 'Open Sans', verdana, arial, sans-serif; font-size: 12px; fill: rgb(42, 63, 95); fill-opacity: 1; white-space: pre; opacity: 1;" transform="translate(0,381.31)">55</text></g><g class="ytick"><text text-anchor="end" x="142" y="4.199999999999999" style="font-family: 'Open Sans', verdana, arial, sans-serif; font-size: 12px; fill: rgb(42, 63, 95); fill-opacity: 1; white-space: pre; opacity: 1;" transform="translate(0,337.58000000000004)">60</text></g><g class="ytick"><text text-anchor="end" x="142" y="4.199999999999999" style="font-family: 'Open Sans', verdana, arial, sans-serif; font-size: 12px; fill: rgb(42, 63, 95); fill-opacity: 1; white-space: pre; opacity: 1;" transform="translate(0,293.85)">65</text></g><g class="ytick"><text text-anchor="end" x="142" y="4.199999999999999" style="font-family: 'Open Sans', verdana, arial, sans-serif; font-size: 12px; fill: rgb(42, 63, 95); fill-opacity: 1; white-space: pre; opacity: 1;" transform="translate(0,250.12)">70</text></g><g class="ytick"><text text-anchor="end" x="142" y="4.199999999999999" style="font-family: 'Open Sans', verdana, arial, sans-serif; font-size: 12px; fill: rgb(42, 63, 95); fill-opacity: 1; white-space: pre; opacity: 1;" transform="translate(0,206.39)">75</text></g><g class="ytick"><text text-anchor="end" x="142" y="4.199999999999999" style="font-family: 'Open Sans', verdana, arial, sans-serif; font-size: 12px; fill: rgb(42, 63, 95); fill-opacity: 1; white-space: pre; opacity: 1;" transform="translate(0,162.66)">80</text></g><g class="ytick"><text text-anchor="end" x="142" y="4.199999999999999" style="font-family: 'Open Sans', verdana, arial, sans-serif; font-size: 12px; fill: rgb(42, 63, 95); fill-opacity: 1; white-space: pre; opacity: 1;" transform="translate(0,118.93)">85</text></g></g><g class="overaxes-above"/></g></g><g class="polarlayer"/><g class="smithlayer"/><g class="ternarylayer"/><g class="geolayer"/><g class="funnelarealayer"/><g class="pielayer"/><g class="iciclelayer"/><g class="treemaplayer"/><g class="sunburstlayer"/><g class="glimages"/><defs id="topdefs-204d65"><g class="clips"/><clipPath id="legend204d65"><rect width="128" height="162" x="0" y="0"/></clipPath></defs><g class="layer-above"><g class="imagelayer"/><g class="shapelayer"/></g><g class="infolayer"><g class="legend" pointer-events="all" transform="translate(883.52,100)"><rect class="bg" shape-rendering="crispEdges" width="128" height="162" x="0" y="0" style="stroke: rgb(68, 68, 68); stroke-opacity: 1; fill: rgb(255, 255, 255); fill-opacity: 1; stroke-width: 0px;"/><g class="scrollbox" transform="" clip-path="url(#legend204d65)"><g class="groups"><g class="traces" transform="translate(0,14.5)" style="opacity: 1;"><text class="legendtext" text-anchor="start" x="40" y="4.680000000000001" style="font-family: 'Open Sans', verdana, arial, sans-serif; font-size: 12px; fill: rgb(42, 63, 95); fill-opacity: 1; white-space: pre;">Train Accuracy</text><g class="layers" style="opacity: 1;"><g class="legendfill"/><g class="legendlines"><path class="js-line" d="M5,0h30" style="fill: none; stroke: rgb(255, 0, 0); stroke-opacity: 1; stroke-width: 2px;"/></g><g class="legendsymbols"><g class="legendpoints"/></g></g><rect class="legendtoggle" x="0" y="-9.5" width="122.71875" height="19" style="fill: rgb(0, 0, 0); fill-opacity: 0;"/></g><g class="traces" transform="translate(0,33.5)" style="opacity: 1;"><text class="legendtext" text-anchor="start" x="40" y="4.680000000000001" style="font-family: 'Open Sans', verdana, arial, sans-serif; font-size: 12px; fill: rgb(42, 63, 95); fill-opacity: 1; white-space: pre;">Test Accuracy</text><g class="layers" style="opacity: 1;"><g class="legendfill"/><g class="legendlines"><path class="js-line" d="M5,0h30" style="fill: none; stroke: rgb(0, 0, 255); stroke-opacity: 1; stroke-width: 2px;"/></g><g class="legendsymbols"><g class="legendpoints"/></g></g><rect class="legendtoggle" x="0" y="-9.5" width="122.71875" height="19" style="fill: rgb(0, 0, 0); fill-opacity: 0;"/></g><g class="traces" transform="translate(0,52.5)" style="opacity: 1;"><text class="legendtext" text-anchor="start" x="40" y="4.680000000000001" style="font-family: 'Open Sans', verdana, arial, sans-serif; font-size: 12px; fill: rgb(42, 63, 95); fill-opacity: 1; white-space: pre;">Train Precision</text><g class="layers" style="opacity: 1;"><g class="legendfill"/><g class="legendlines"><path class="js-line" d="M5,0h30" style="fill: none; stroke: rgb(0, 128, 0); stroke-opacity: 1; stroke-width: 2px;"/></g><g class="legendsymbols"><g class="legendpoints"/></g></g><rect class="legendtoggle" x="0" y="-9.5" width="122.71875" height="19" style="fill: rgb(0, 0, 0); fill-opacity: 0;"/></g><g class="traces" transform="translate(0,71.5)" style="opacity: 1;"><text class="legendtext" text-anchor="start" x="40" y="4.680000000000001" style="font-family: 'Open Sans', verdana, arial, sans-serif; font-size: 12px; fill: rgb(42, 63, 95); fill-opacity: 1; white-space: pre;">Test Precision</text><g class="layers" style="opacity: 1;"><g class="legendfill"/><g class="legendlines"><path class="js-line" d="M5,0h30" style="fill: none; stroke: rgb(255, 165, 0); stroke-opacity: 1; stroke-width: 2px;"/></g><g class="legendsymbols"><g class="legendpoints"/></g></g><rect class="legendtoggle" x="0" y="-9.5" width="122.71875" height="19" style="fill: rgb(0, 0, 0); fill-opacity: 0;"/></g><g class="traces" transform="translate(0,90.5)" style="opacity: 1;"><text class="legendtext" text-anchor="start" x="40" y="4.680000000000001" style="font-family: 'Open Sans', verdana, arial, sans-serif; font-size: 12px; fill: rgb(42, 63, 95); fill-opacity: 1; white-space: pre;">Train Recall</text><g class="layers" style="opacity: 1;"><g class="legendfill"/><g class="legendlines"><path class="js-line" d="M5,0h30" style="fill: none; stroke: rgb(128, 0, 128); stroke-opacity: 1; stroke-width: 2px;"/></g><g class="legendsymbols"><g class="legendpoints"/></g></g><rect class="legendtoggle" x="0" y="-9.5" width="122.71875" height="19" style="fill: rgb(0, 0, 0); fill-opacity: 0;"/></g><g class="traces" transform="translate(0,109.5)" style="opacity: 1;"><text class="legendtext" text-anchor="start" x="40" y="4.680000000000001" style="font-family: 'Open Sans', verdana, arial, sans-serif; font-size: 12px; fill: rgb(42, 63, 95); fill-opacity: 1; white-space: pre;">Test Recall</text><g class="layers" style="opacity: 1;"><g class="legendfill"/><g class="legendlines"><path class="js-line" d="M5,0h30" style="fill: none; stroke: rgb(255, 192, 203); stroke-opacity: 1; stroke-width: 2px;"/></g><g class="legendsymbols"><g class="legendpoints"/></g></g><rect class="legendtoggle" x="0" y="-9.5" width="122.71875" height="19" style="fill: rgb(0, 0, 0); fill-opacity: 0;"/></g><g class="traces" transform="translate(0,128.5)" style="opacity: 1;"><text class="legendtext" text-anchor="start" x="40" y="4.680000000000001" style="font-family: 'Open Sans', verdana, arial, sans-serif; font-size: 12px; fill: rgb(42, 63, 95); fill-opacity: 1; white-space: pre;">Train F1</text><g class="layers" style="opacity: 1;"><g class="legendfill"/><g class="legendlines"><path class="js-line" d="M5,0h30" style="fill: none; stroke: rgb(165, 42, 42); stroke-opacity: 1; stroke-width: 2px;"/></g><g class="legendsymbols"><g class="legendpoints"/></g></g><rect class="legendtoggle" x="0" y="-9.5" width="122.71875" height="19" style="fill: rgb(0, 0, 0); fill-opacity: 0;"/></g><g class="traces" transform="translate(0,147.5)" style="opacity: 1;"><text class="legendtext" text-anchor="start" x="40" y="4.680000000000001" style="font-family: 'Open Sans', verdana, arial, sans-serif; font-size: 12px; fill: rgb(42, 63, 95); fill-opacity: 1; white-space: pre;">Test F1</text><g class="layers" style="opacity: 1;"><g class="legendfill"/><g class="legendlines"><path class="js-line" d="M5,0h30" style="fill: none; stroke: rgb(128, 128, 128); stroke-opacity: 1; stroke-width: 2px;"/></g><g class="legendsymbols"><g class="legendpoints"/></g></g><rect class="legendtoggle" x="0" y="-9.5" width="122.71875" height="19" style="fill: rgb(0, 0, 0); fill-opacity: 0;"/></g></g></g><rect class="scrollbar" rx="20" ry="3" width="0" height="0" x="0" y="0" style="fill: rgb(128, 139, 164); fill-opacity: 1;"/></g><g class="g-gtitle"><text class="gtitle" x="51.2" y="50" text-anchor="start" dy="0em" style="font-family: 'Open Sans', verdana, arial, sans-serif; font-size: 17px; fill: rgb(42, 63, 95); opacity: 1; font-weight: normal; white-space: pre;">Training Metrics - logs/FakeNewsNet-politifact_domain.log</text></g><g class="g-xtitle"><text class="xtitle" x="506" y="537.3" text-anchor="middle" style="font-family: 'Open Sans', verdana, arial, sans-serif; font-size: 14px; fill: rgb(42, 63, 95); opacity: 1; font-weight: normal; white-space: pre;">Epoch</text></g><g class="g-ytitle"><text class="ytitle" transform="rotate(-90,103.965625,298)" x="103.965625" y="298" text-anchor="middle" style="font-family: 'Open Sans', verdana, arial, sans-serif; font-size: 14px; fill: rgb(42, 63, 95); opacity: 1; font-weight: normal; white-space: pre;">Metric Score</text></g></g><g class="menulayer"><g class="updatemenu-container" style="cursor: pointer;"><g class="updatemenu-header-group" transform="translate(12,60)"><g class="updatemenu-header" transform="translate(1,1)" style="pointer-events: all;"><rect class="updatemenu-item-rect" rx="2" ry="2" shape-rendering="crispEdges" x="0" y="0" width="167" height="33" style="stroke: rgb(190, 200, 217); stroke-opacity: 1; fill: rgb(255, 255, 255); fill-opacity: 1; stroke-width: 1px;"/><text class="updatemenu-item-text" text-anchor="start" data-notex="1" x="12" y="19.5" style="font-family: 'Open Sans', verdana, arial, sans-serif; font-size: 12px; fill: rgb(42, 63, 95); fill-opacity: 1; white-space: pre;">All</text></g><text class="updatemenu-header-arrow" text-anchor="end" x="163" y="19.5" style="font-family: 'Open Sans', verdana, arial, sans-serif; font-size: 12px; fill: rgb(42, 63, 95); fill-opacity: 1;">▼</text></g><g class="updatemenu-dropdown-button-group" updatemenu-active-index="-1" style="pointer-events: all;"><rect class="scrollbox-bg" opacity="0" x="0" y="0" width="0" height="0" style="pointer-events: all;"/></g></g></g></svg>