<svg class="main-svg" xmlns="http://www.w3.org/2000/svg" xmlns:xlink="http://www.w3.org/1999/xlink" width="1024" height="576" style="" viewBox="0 0 1024 576"><rect x="0" y="0" width="1024" height="576" style="fill: rgb(255, 255, 255); fill-opacity: 1;"/><defs id="defs-1f4390"><g class="clips"><clipPath id="clip1f4390xyplot" class="plotclip"><rect width="726" height="396"/></clipPath><clipPath class="axesclip" id="clip1f4390x"><rect x="143" y="0" width="726" height="576"/></clipPath><clipPath class="axesclip" id="clip1f4390y"><rect x="0" y="100" width="1024" height="396"/></clipPath><clipPath class="axesclip" id="clip1f4390xy"><rect x="143" y="100" width="726" height="396"/></clipPath></g><g class="gradients"/><g class="patterns"/></defs><g class="bglayer"><rect class="bg" x="143" y="100" width="726" height="396" style="fill: rgb(229, 236, 246); fill-opacity: 1; stroke-width: 0;"/></g><g class="layer-below"><g class="imagelayer"/><g class="shapelayer"/></g><g class="cartesianlayer"><g class="subplot xy"><g class="layer-subplot"><g class="shapelayer"/><g class="imagelayer"/></g><g class="minor-gridlayer"><g class="x"/><g class="y"/></g><g class="gridlayer"><g class="x"><path class="xgrid crisp" transform="translate(209,0)" d="M0,100v396" style="stroke: rgb(255, 255, 255); stroke-opacity: 1; stroke-width: 1px;"/><path class="xgrid crisp" transform="translate(282.33000000000004,0)" d="M0,100v396" style="stroke: rgb(255, 255, 255); stroke-opacity: 1; stroke-width: 1px;"/><path class="xgrid crisp" transform="translate(355.66999999999996,0)" d="M0,100v396" style="stroke: rgb(255, 255, 255); stroke-opacity: 1; stroke-width: 1px;"/><path class="xgrid crisp" transform="translate(429,0)" d="M0,100v396" style="stroke: rgb(255, 255, 255); stroke-opacity: 1; stroke-width: 1px;"/><path class="xgrid crisp" transform="translate(502.33,0)" d="M0,100v396" style="stroke: rgb(255, 255, 255); stroke-opacity: 1; stroke-width: 1px;"/><path class="xgrid crisp" transform="translate(575.6700000000001,0)" d="M0,100v396" style="stroke: rgb(255, 255, 255); stroke-opacity: 1; stroke-width: 1px;"/><path class="xgrid crisp" transform="translate(649,0)" d="M0,100v396" style="stroke: rgb(255, 255, 255); stroke-opacity: 1; stroke-width: 1px;"/><path class="xgrid crisp" transform="translate(722.33,0)" d="M0,100v396" style="stroke: rgb(255, 255, 255); stroke-opacity: 1; stroke-width: 1px;"/><path class="xgrid crisp" transform="translate(795.67,0)" d="M0,100v396" style="stroke: rgb(255, 255, 255); stroke-opacity: 1; stroke-width: 1px;"/></g><g class="y"><path class="ygrid crisp" transform="translate(0,480.29)" d="M143,0h726" style="stroke: rgb(255, 255, 255); stroke-opacity: 1; stroke-width: 1px;"/><path class="ygrid crisp" transform="translate(0,432.16)" d="M143,0h726" style="stroke: rgb(255, 255, 255); stroke-opacity: 1; stroke-width: 1px;"/><path class="ygrid crisp" transform="translate(0,384.03)" d="M143,0h726" style="stroke: rgb(255, 255, 255); stroke-opacity: 1; stroke-width: 1px;"/><path class="ygrid crisp" transform="translate(0,335.9)" d="M143,0h726" style="stroke: rgb(255, 255, 255); stroke-opacity: 1; stroke-width: 1px;"/><path class="ygrid crisp" transform="translate(0,287.77)" d="M143,0h726" style="stroke: rgb(255, 255, 255); stroke-opacity: 1; stroke-width: 1px;"/><path class="ygrid crisp" transform="translate(0,239.64)" d="M143,0h726" style="stroke: rgb(255, 255, 255); stroke-opacity: 1; stroke-width: 1px;"/><path class="ygrid crisp" transform="translate(0,191.51)" d="M143,0h726" style="stroke: rgb(255, 255, 255); stroke-opacity: 1; stroke-width: 1px;"/><path class="ygrid crisp" transform="translate(0,143.38)" d="M143,0h726" style="stroke: rgb(255, 255, 255); stroke-opacity: 1; stroke-width: 1px;"/></g></g><g class="zerolinelayer"/><path class="xlines-below"/><path class="ylines-below"/><g class="overlines-below"/><g class="xaxislayer-below"/><g class="yaxislayer-below"/><g class="overaxes-below"/><g class="plot" transform="translate(143,100)" clip-path="url(#clip1f4390xyplot)"><g class="scatterlayer mlayer"><g class="trace scatter traced99527" style="stroke-miterlimit: 2; opacity: 1;"><g class="fills"/><g class="errorbars"/><g class="lines"><path class="js-line" d="M0,262.13L7.33,220.02L14.67,206.3L22,137.48L29.33,110.52L36.67,106.91L44,98.25L51.33,95.6L58.67,98.97L66,80.2L73.33,67.93L80.67,78.76L88,81.17L95.33,89.83L102.67,108.36L117.33,68.89L124.67,60.23L132,72.26L139.33,66.97L154,39.05L161.33,61.91L168.67,49.64L176,49.64L183.33,66.49L190.67,70.1L198,70.58L205.33,81.17L212.67,76.83L220,75.39L227.33,74.43L234.67,64.32L242,74.67L249.33,59.03L256.67,67.21L264,50.6L271.33,74.43L278.67,64.56L286,64.32L293.33,66.49L300.67,72.02L308,71.78L315.33,63.84L322.67,67.93L337.33,54.45L344.67,66.73L352,53.97L359.33,57.34L366.67,56.86L374,62.39L381.33,46.51L388.67,59.03L396,38.57L403.33,27.5L410.67,46.03L418,45.31L425.33,39.77L432.67,40.98L440,39.05L447.33,35.92L454.67,41.46L462,38.33L469.33,35.44L476.67,22.21L484,25.82L491.33,47.96L498.67,40.74L506,47.72L520.67,32.8L528,45.07L535.33,40.01L542.67,40.5L550,38.09L557.33,32.31L564.67,44.83L572,40.26L579.33,46.99L586.67,25.09L594,27.98L601.33,46.51L608.67,40.74L616,38.81L630.67,28.46L638,54.93L645.33,47.72L652.67,36.89L660,30.15L667.33,29.91L674.67,34.24L682,36.65L689.33,35.68L696.67,35.92L704,32.07L711.33,39.77L718.67,40.01L726,19.8" style="vector-effect: none; fill: none; stroke: rgb(255, 0, 0); stroke-opacity: 1; stroke-width: 2px; opacity: 1;"/></g><g class="points"/><g class="text"/></g><g class="trace scatter trace979fd4" style="stroke-miterlimit: 2; opacity: 1;"><g class="fills"/><g class="errorbars"/><g class="lines"><path class="js-line" d="M0,287.88L7.33,245.29L14.67,237.35L22,163.23L29.33,137.24L36.67,129.54L44,124.72L51.33,143.73L58.67,136.27L73.33,102.58L80.67,111.25L95.33,128.57L102.67,148.07L110,132.42L117.33,113.41L124.67,114.86L132,114.86L139.33,118.71L146.67,90.07L154,78.52L161.33,105.71L168.67,100.18L176,93.2L183.33,110.52L190.67,103.06L198,117.74L205.33,128.09L212.67,122.08L220,122.08L234.67,109.08L242,122.08L249.33,118.71L256.67,116.54L264,114.37L271.33,122.08L286,117.74L293.33,109.08L300.67,121.59L308,103.06L315.33,98.73L322.67,111.73L330,109.56L337.33,112.21L344.67,117.74L352,108.36L359.33,104.75L366.67,113.41L374,120.87L381.33,107.88L388.67,114.86L396,99.21L403.33,94.4L410.67,95.84L418,106.19L425.33,101.86L432.67,90.07L440,95.84L447.33,85.74L454.67,89.35L462,90.55L469.33,79.72L476.67,71.06L484,76.83L491.33,97.05L498.67,94.88L513.33,87.18L520.67,67.21L528,82.85L535.33,71.54L542.67,72.02L550,80.2L557.33,79L564.67,94.88L572,88.87L579.33,93.2L586.67,65.04L594,78.52L601.33,87.9L608.67,73.71L616,72.5L623.33,69.37L630.67,69.85L638,92.24L645.33,86.7L652.67,86.7L660,72.02L667.33,68.17L674.67,68.89L682,72.5L689.33,74.67L696.67,72.02L704,65.04L711.33,72.02L718.67,76.35L726,61.67" style="vector-effect: none; fill: none; stroke: rgb(0, 0, 255); stroke-opacity: 1; stroke-width: 2px; opacity: 1;"/></g><g class="points"/><g class="text"/></g><g class="trace scatter trace61e810" style="stroke-miterlimit: 2; opacity: 1;"><g class="fills"/><g class="errorbars"/><g class="lines"><path class="js-line" d="M0,332.88L7.33,323.02L14.67,299.19L29.33,262.13L36.67,260.69L51.33,244.32L58.67,245.05L66,230.61L73.33,227.96L80.67,234.22L88,236.38L95.33,235.9L102.67,249.14L110,238.07L117.33,222.19L124.67,217.61L132,225.79L139.33,220.74L146.67,213.52L154,200.29L161.33,214.48L168.67,203.66L176,206.78L183.33,219.06L190.67,221.7L198,220.5L205.33,227.24L212.67,224.11L220,224.35L227.33,222.91L234.67,219.06L242,222.91L249.33,212.56L256.67,216.17L264,207.02L271.33,218.58L278.67,218.09L286,212.32L293.33,215.21L308,217.13L315.33,210.87L322.67,214.48L330,210.15L337.33,207.02L344.67,211.12L352,204.62L359.33,206.06L366.67,204.62L374,210.39L381.33,201.73L388.67,209.43L403.33,190.42L410.67,202.21L418,201.49L425.33,195.23L432.67,198.12L440,196.2L447.33,194.99L454.67,199.32L469.33,196.2L476.67,188.25L484,188.49L491.33,200.77L498.67,195.23L506,200.53L513.33,195.71L520.67,194.27L528,199.56L535.33,197.16L550,196.92L557.33,194.99L564.67,200.05L572,197.64L579.33,202.93L586.67,190.42L594,190.9L601.33,201.73L608.67,199.8L616,200.53L623.33,196.92L630.67,191.86L638,208.71L645.33,203.66L652.67,194.99L660,190.42L667.33,191.38L674.67,194.03L682,194.51L689.33,193.55L696.67,194.03L704,191.62L711.33,197.64L718.67,197.4L726,185.61" style="vector-effect: none; fill: none; stroke: rgb(0, 128, 0); stroke-opacity: 1; stroke-width: 2px; opacity: 1;"/></g><g class="points"/><g class="text"/></g><g class="trace scatter trace32e788" style="stroke-miterlimit: 2; opacity: 1;"><g class="fills"/><g class="errorbars"/><g class="lines"><path class="js-line" d="M0,341.31L7.33,331.44L14.67,314.35L22,289.09L29.33,275.85L36.67,273.68L44,266.95L51.33,281.14L58.67,271.76L66,258.04L73.33,250.34L88,258.52L95.33,258.76L102.67,271.76L110,261.89L117.33,251.54L124.67,261.41L132,257.56L139.33,260.21L146.67,241.44L154,235.66L161.33,247.93L168.67,243.6L176,242.88L183.33,250.82L190.67,245.53L198,253.95L205.33,261.17L212.67,257.08L220,258.76L227.33,252.03L234.67,250.82L242,257.08L249.33,256.84L256.67,252.99L264,257.56L271.33,252.75L278.67,259.73L286,252.03L293.33,247.69L300.67,253.71L308,240.23L315.33,238.79L322.67,248.66L330,248.42L337.33,252.75L344.67,249.38L352,245.53L359.33,242.64L366.67,248.9L374,258.28L381.33,249.38L388.67,252.99L403.33,246.49L410.67,239.99L418,249.38L425.33,245.53L432.67,237.83L440,240.47L447.33,234.22L454.67,237.11L462,239.27L469.33,234.46L476.67,230.61L484,234.7L491.33,242.4L498.67,241.44L506,235.9L513.33,233.74L520.67,221.22L528,228.2L535.33,220.26L542.67,219.3L550,228.2L557.33,229.89L564.67,238.07L572,234.94L579.33,237.83L586.67,224.35L594,235.18L601.33,234.7L608.67,223.87L616,225.79L623.33,222.91L630.67,227L638,236.86L645.33,234.22L652.67,234.7L660,224.59L667.33,221.22L674.67,222.43L689.33,225.31L696.67,224.11L704,219.3L711.33,224.59L718.67,227.72L726,222.67" style="vector-effect: none; fill: none; stroke: rgb(255, 165, 0); stroke-opacity: 1; stroke-width: 2px; opacity: 1;"/></g><g class="points"/><g class="text"/></g><g class="trace scatter trace917668" style="stroke-miterlimit: 2; opacity: 1;"><g class="fills"/><g class="errorbars"/><g class="lines"><path class="js-line" d="M0,232.05L7.33,226.28L14.67,191.86L22,189.22L29.33,171.41L36.67,170.93L44,161.3L51.33,147.82L58.67,146.86L66,132.9L73.33,138.2L80.67,141.33L88,143.49L95.33,136.03L102.67,148.31L110,140.36L117.33,125.69L124.67,124.24L132,129.78L139.33,124.24L146.67,122.56L154,108.12L161.33,115.82L168.67,104.75L176,111.49L183.33,121.11L190.67,123.28L198,120.63L205.33,125.44L212.67,122.8L220,124.24L227.33,122.08L234.67,122.8L242,121.83L249.33,114.62L256.67,114.62L264,111.01L271.33,113.65L278.67,120.87L286,109.56L293.33,113.17L300.67,110.77L308,112.93L315.33,107.16L322.67,110.52L330,107.88L337.33,107.16L352,102.58L359.33,102.58L366.67,99.94L374,106.91L381.33,103.3L388.67,108.12L396,106.67L403.33,99.7L410.67,105.23L418,104.75L425.33,96.57L432.67,101.62L440,99.7L447.33,100.42L454.67,103.79L462,103.55L469.33,103.79L476.67,101.38L484,97.53L491.33,100.18L498.67,96.09L506,100.18L513.33,96.57L520.67,102.1L535.33,100.42L542.67,100.18L557.33,104.03L564.67,102.1L572,101.62L579.33,105.71L594,100.42L601.33,103.79L608.67,105.47L616,109.32L623.33,106.67L630.67,102.1L638,110.28L645.33,106.43L652.67,99.21L660,96.57L667.33,99.21L674.67,100.18L689.33,97.05L696.67,98.01L704,97.29L711.33,101.62L718.67,101.14L726,98.49" style="vector-effect: none; fill: none; stroke: rgb(128, 0, 128); stroke-opacity: 1; stroke-width: 2px; opacity: 1;"/></g><g class="points"/><g class="text"/></g><g class="trace scatter trace72ff80" style="stroke-miterlimit: 2; opacity: 1;"><g class="fills"/><g class="errorbars"/><g class="lines"><path class="js-line" d="M0,241.68L7.33,233.98L14.67,209.19L22,191.38L29.33,181.03L36.67,181.52L44,172.13L51.33,186.81L58.67,174.3L66,159.38L73.33,155.77L88,160.1L95.33,155.28L102.67,168.28L110,158.65L117.33,150.71L124.67,168.04L132,161.06L139.33,163.47L146.67,147.58L154,145.42L161.33,148.79L168.67,144.46L176,148.31L183.33,151.19L190.67,146.14L198,152.88L205.33,159.62L212.67,155.77L220,158.65L227.33,150.23L234.67,152.4L242,155.77L249.33,157.45L256.67,151.43L264,161.54L271.33,148.07L278.67,162.02L286,149.03L293.33,146.38L300.67,149.99L308,136.27L315.33,136.51L322.67,146.62L330,147.34L337.33,153.84L344.67,144.46L352,142.77L359.33,139.64L366.67,146.14L374,158.89L381.33,150.23L388.67,152.64L396,156.73L403.33,154.32L410.67,140.85L418,151.43L425.33,147.1L432.67,140.61L440,141.57L447.33,137L454.67,139.64L462,143.49L469.33,142.29L476.67,142.05L484,145.18L491.33,144.7L498.67,143.97L506,136.03L513.33,135.07L520.67,126.41L528,127.61L535.33,120.87L542.67,118.23L550,129.54L564.67,137.72L572,136.03L579.33,138.2L586.67,135.07L594,144.7L601.33,136.27L608.67,126.17L616,130.74L623.33,127.85L630.67,136.03L638,137.48L645.33,136.27L652.67,137L660,128.81L667.33,125.69L674.67,127.61L682,126.89L689.33,128.33L696.67,128.09L704,124.24L711.33,128.81L718.67,131.7L726,134.35" style="vector-effect: none; fill: none; stroke: rgb(255, 192, 203); stroke-opacity: 1; stroke-width: 2px; opacity: 1;"/></g><g class="points"/><g class="text"/></g><g class="trace scatter tracedf05c0" style="stroke-miterlimit: 2; opacity: 1;"><g class="fills"/><g class="errorbars"/><g class="lines"><path class="js-line" d="M0,358.15L7.33,331.92L14.67,309.78L22,269.83L29.33,246.73L36.67,244.57L44,235.18L51.33,227.48L58.67,228.92L66,211.84L73.33,207.26L80.67,214.97L88,217.37L95.33,218.82L102.67,235.18L110,220.74L117.33,201.97L124.67,196.2L132,205.82L139.33,200.29L146.67,191.38L154,176.7L161.33,193.55L168.67,181.27L176,184.4L183.33,198.6L190.67,201.73L198,200.77L205.33,208.95L212.67,205.34L220,205.1L227.33,203.66L234.67,198.12L242,203.9L249.33,191.38L256.67,195.95L264,184.64L271.33,200.05L278.67,197.4L286,192.1L293.33,195.23L300.67,197.4L308,198.12L315.33,190.66L322.67,194.75L330,189.46L337.33,185.13L344.67,191.62L352,182.96L359.33,184.88L366.67,183.44L374,189.94L381.33,178.87L388.67,188.25L396,175.5L403.33,165.87L410.67,179.35L418,178.63L425.33,171.65L432.67,174.78L440,172.85L447.33,171.17L454.67,175.98L469.33,172.37L476.67,163.47L484,163.71L491.33,178.39L498.67,171.89L506,178.15L513.33,172.13L520.67,169.96L528,176.7L535.33,173.57L550,173.33L557.33,170.69L564.67,177.18L572,174.3L579.33,180.31L586.67,165.63L594,166.35L601.33,179.11L608.67,176.22L616,176.94L623.33,172.85L630.67,167.56L638,187.05L645.33,180.79L652.67,171.17L660,165.87L667.33,167.08L674.67,169.96L682,170.69L689.33,169.48L696.67,170.21L704,167.32L711.33,174.06L718.67,174.06L726,160.58" style="vector-effect: none; fill: none; stroke: rgb(165, 42, 42); stroke-opacity: 1; stroke-width: 2px; opacity: 1;"/></g><g class="points"/><g class="text"/></g><g class="trace scatter trace840fc1" style="stroke-miterlimit: 2; opacity: 1;"><g class="fills"/><g class="errorbars"/><g class="lines"><path class="js-line" d="M0,376.2L7.33,348.77L14.67,334.09L22,284.51L29.33,265.5L36.67,261.41L44,254.43L51.33,271.76L58.67,261.65L66,245.53L73.33,234.46L88,245.77L95.33,249.14L102.67,265.98L110,252.75L117.33,238.31L124.67,246.97L132,243.84L139.33,247.21L146.67,223.63L154,216.17L161.33,233.01L168.67,227.96L176,225.79L183.33,236.86L190.67,230.37L198,241.68L205.33,250.58L212.67,245.53L220,246.73L227.33,239.75L234.67,236.62L242,245.53L249.33,244.32L256.67,240.47L264,243.84L271.33,242.16L278.67,246.97L286,239.99L293.33,233.98L300.67,242.64L308,226.04L315.33,223.63L322.67,235.42L330,234.7L337.33,239.03L344.67,238.07L352,232.05L359.33,228.44L366.67,236.38L374,246.25L381.33,234.94L388.67,239.99L396,233.01L403.33,229.16L410.67,223.87L418,234.7L425.33,230.13L432.67,220.5L440,224.35L447.33,216.17L454.67,219.54L462,221.94L469.33,215.21L476.67,210.15L484,214.97L491.33,226.28L498.67,224.59L506,219.06L513.33,216.41L520.67,200.77L528,210.39L535.33,200.77L542.67,199.8L550,209.67L557.33,210.87L564.67,221.94L572,217.61L579.33,221.22L586.67,203.41L594,215.69L601.33,217.13L608.67,204.38L616,205.82L623.33,202.69L630.67,206.78L638,220.26L645.33,216.41L652.67,216.89L660,204.62L667.33,201.01L682,204.14L689.33,206.06L696.67,204.38L704,198.36L711.33,204.62L718.67,208.47L726,201.25" style="vector-effect: none; fill: none; stroke: rgb(128, 128, 128); stroke-opacity: 1; stroke-width: 2px; opacity: 1;"/></g><g class="points"/><g class="text"/></g></g></g><g class="overplot"/><path class="xlines-above crisp" d="M0,0" style="fill: none;"/><path class="ylines-above crisp" d="M0,0" style="fill: none;"/><g class="overlines-above"/><g class="xaxislayer-above"><g class="xtick"><text text-anchor="middle" x="0" y="509" transform="translate(209,0)" style="font-family: 'Open Sans', verdana, arial, sans-serif; font-size: 12px; fill: rgb(42, 63, 95); fill-opacity: 1; white-space: pre; opacity: 1;">10</text></g><g class="xtick"><text text-anchor="middle" x="0" y="509" style="font-family: 'Open Sans', verdana, arial, sans-serif; font-size: 12px; fill: rgb(42, 63, 95); fill-opacity: 1; white-space: pre; opacity: 1;" transform="translate(282.33000000000004,0)">20</text></g><g class="xtick"><text text-anchor="middle" x="0" y="509" style="font-family: 'Open Sans', verdana, arial, sans-serif; font-size: 12px; fill: rgb(42, 63, 95); fill-opacity: 1; white-space: pre; opacity: 1;" transform="translate(355.66999999999996,0)">30</text></g><g class="xtick"><text text-anchor="middle" x="0" y="509" style="font-family: 'Open Sans', verdana, arial, sans-serif; font-size: 12px; fill: rgb(42, 63, 95); fill-opacity: 1; white-space: pre; opacity: 1;" transform="translate(429,0)">40</text></g><g class="xtick"><text text-anchor="middle" x="0" y="509" style="font-family: 'Open Sans', verdana, arial, sans-serif; font-size: 12px; fill: rgb(42, 63, 95); fill-opacity: 1; white-space: pre; opacity: 1;" transform="translate(502.33,0)">50</text></g><g class="xtick"><text text-anchor="middle" x="0" y="509" style="font-family: 'Open Sans', verdana, arial, sans-serif; font-size: 12px; fill: rgb(42, 63, 95); fill-opacity: 1; white-space: pre; opacity: 1;" transform="translate(575.6700000000001,0)">60</text></g><g class="xtick"><text text-anchor="middle" x="0" y="509" style="font-family: 'Open Sans', verdana, arial, sans-serif; font-size: 12px; fill: rgb(42, 63, 95); fill-opacity: 1; white-space: pre; opacity: 1;" transform="translate(649,0)">70</text></g><g class="xtick"><text text-anchor="middle" x="0" y="509" style="font-family: 'Open Sans', verdana, arial, sans-serif; font-size: 12px; fill: rgb(42, 63, 95); fill-opacity: 1; white-space: pre; opacity: 1;" transform="translate(722.33,0)">80</text></g><g class="xtick"><text text-anchor="middle" x="0" y="509" style="font-family: 'Open Sans', verdana, arial, sans-serif; font-size: 12px; fill: rgb(42, 63, 95); fill-opacity: 1; white-space: pre; opacity: 1;" transform="translate(795.67,0)">90</text></g><g class="xtick"><text text-anchor="middle" x="0" y="509" style="font-family: 'Open Sans', verdana, arial, sans-serif; font-size: 12px; fill: rgb(42, 63, 95); fill-opacity: 1; white-space: pre; opacity: 1;" transform="translate(869,0)">100</text></g></g><g class="yaxislayer-above"><g class="ytick"><text text-anchor="end" x="142" y="4.199999999999999" transform="translate(0,480.29)" style="font-family: 'Open Sans', verdana, arial, sans-serif; font-size: 12px; fill: rgb(42, 63, 95); fill-opacity: 1; white-space: pre; opacity: 1;">60</text></g><g class="ytick"><text text-anchor="end" x="142" y="4.199999999999999" style="font-family: 'Open Sans', verdana, arial, sans-serif; font-size: 12px; fill: rgb(42, 63, 95); fill-opacity: 1; white-space: pre; opacity: 1;" transform="translate(0,432.16)">62</text></g><g class="ytick"><text text-anchor="end" x="142" y="4.199999999999999" style="font-family: 'Open Sans', verdana, arial, sans-serif; font-size: 12px; fill: rgb(42, 63, 95); fill-opacity: 1; white-space: pre; opacity: 1;" transform="translate(0,384.03)">64</text></g><g class="ytick"><text text-anchor="end" x="142" y="4.199999999999999" style="font-family: 'Open Sans', verdana, arial, sans-serif; font-size: 12px; fill: rgb(42, 63, 95); fill-opacity: 1; white-space: pre; opacity: 1;" transform="translate(0,335.9)">66</text></g><g class="ytick"><text text-anchor="end" x="142" y="4.199999999999999" style="font-family: 'Open Sans', verdana, arial, sans-serif; font-size: 12px; fill: rgb(42, 63, 95); fill-opacity: 1; white-space: pre; opacity: 1;" transform="translate(0,287.77)">68</text></g><g class="ytick"><text text-anchor="end" x="142" y="4.199999999999999" style="font-family: 'Open Sans', verdana, arial, sans-serif; font-size: 12px; fill: rgb(42, 63, 95); fill-opacity: 1; white-space: pre; opacity: 1;" transform="translate(0,239.64)">70</text></g><g class="ytick"><text text-anchor="end" x="142" y="4.199999999999999" style="font-family: 'Open Sans', verdana, arial, sans-serif; font-size: 12px; fill: rgb(42, 63, 95); fill-opacity: 1; white-space: pre; opacity: 1;" transform="translate(0,191.51)">72</text></g><g class="ytick"><text text-anchor="end" x="142" y="4.199999999999999" style="font-family: 'Open Sans', verdana, arial, sans-serif; font-size: 12px; fill: rgb(42, 63, 95); fill-opacity: 1; white-space: pre; opacity: 1;" transform="translate(0,143.38)">74</text></g></g><g class="overaxes-above"/></g></g><g class="polarlayer"/><g class="smithlayer"/><g class="ternarylayer"/><g class="geolayer"/><g class="funnelarealayer"/><g class="pielayer"/><g class="iciclelayer"/><g class="treemaplayer"/><g class="sunburstlayer"/><g class="glimages"/><defs id="topdefs-1f4390"><g class="clips"/><clipPath id="legend1f4390"><rect width="128" height="162" x="0" y="0"/></clipPath></defs><g class="layer-above"><g class="imagelayer"/><g class="shapelayer"/></g><g class="infolayer"><g class="legend" pointer-events="all" transform="translate(883.52,100)"><rect class="bg" shape-rendering="crispEdges" width="128" height="162" x="0" y="0" style="stroke: rgb(68, 68, 68); stroke-opacity: 1; fill: rgb(255, 255, 255); fill-opacity: 1; stroke-width: 0px;"/><g class="scrollbox" transform="" clip-path="url(#legend1f4390)"><g class="groups"><g class="traces" transform="translate(0,14.5)" style="opacity: 1;"><text class="legendtext" text-anchor="start" x="40" y="4.680000000000001" style="font-family: 'Open Sans', verdana, arial, sans-serif; font-size: 12px; fill: rgb(42, 63, 95); fill-opacity: 1; white-space: pre;">Train Accuracy</text><g class="layers" style="opacity: 1;"><g class="legendfill"/><g class="legendlines"><path class="js-line" d="M5,0h30" style="fill: none; stroke: rgb(255, 0, 0); stroke-opacity: 1; stroke-width: 2px;"/></g><g class="legendsymbols"><g class="legendpoints"/></g></g><rect class="legendtoggle" x="0" y="-9.5" width="122.71875" height="19" style="fill: rgb(0, 0, 0); fill-opacity: 0;"/></g><g class="traces" transform="translate(0,33.5)" style="opacity: 1;"><text class="legendtext" text-anchor="start" x="40" y="4.680000000000001" style="font-family: 'Open Sans', verdana, arial, sans-serif; font-size: 12px; fill: rgb(42, 63, 95); fill-opacity: 1; white-space: pre;">Test Accuracy</text><g class="layers" style="opacity: 1;"><g class="legendfill"/><g class="legendlines"><path class="js-line" d="M5,0h30" style="fill: none; stroke: rgb(0, 0, 255); stroke-opacity: 1; stroke-width: 2px;"/></g><g class="legendsymbols"><g class="legendpoints"/></g></g><rect class="legendtoggle" x="0" y="-9.5" width="122.71875" height="19" style="fill: rgb(0, 0, 0); fill-opacity: 0;"/></g><g class="traces" transform="translate(0,52.5)" style="opacity: 1;"><text class="legendtext" text-anchor="start" x="40" y="4.680000000000001" style="font-family: 'Open Sans', verdana, arial, sans-serif; font-size: 12px; fill: rgb(42, 63, 95); fill-opacity: 1; white-space: pre;">Train Precision</text><g class="layers" style="opacity: 1;"><g class="legendfill"/><g class="legendlines"><path class="js-line" d="M5,0h30" style="fill: none; stroke: rgb(0, 128, 0); stroke-opacity: 1; stroke-width: 2px;"/></g><g class="legendsymbols"><g class="legendpoints"/></g></g><rect class="legendtoggle" x="0" y="-9.5" width="122.71875" height="19" style="fill: rgb(0, 0, 0); fill-opacity: 0;"/></g><g class="traces" transform="translate(0,71.5)" style="opacity: 1;"><text class="legendtext" text-anchor="start" x="40" y="4.680000000000001" style="font-family: 'Open Sans', verdana, arial, sans-serif; font-size: 12px; fill: rgb(42, 63, 95); fill-opacity: 1; white-space: pre;">Test Precision</text><g class="layers" style="opacity: 1;"><g class="legendfill"/><g class="legendlines"><path class="js-line" d="M5,0h30" style="fill: none; stroke: rgb(255, 165, 0); stroke-opacity: 1; stroke-width: 2px;"/></g><g class="legendsymbols"><g class="legendpoints"/></g></g><rect class="legendtoggle" x="0" y="-9.5" width="122.71875" height="19" style="fill: rgb(0, 0, 0); fill-opacity: 0;"/></g><g class="traces" transform="translate(0,90.5)" style="opacity: 1;"><text class="legendtext" text-anchor="start" x="40" y="4.680000000000001" style="font-family: 'Open Sans', verdana, arial, sans-serif; font-size: 12px; fill: rgb(42, 63, 95); fill-opacity: 1; white-space: pre;">Train Recall</text><g class="layers" style="opacity: 1;"><g class="legendfill"/><g class="legendlines"><path class="js-line" d="M5,0h30" style="fill: none; stroke: rgb(128, 0, 128); stroke-opacity: 1; stroke-width: 2px;"/></g><g class="legendsymbols"><g class="legendpoints"/></g></g><rect class="legendtoggle" x="0" y="-9.5" width="122.71875" height="19" style="fill: rgb(0, 0, 0); fill-opacity: 0;"/></g><g class="traces" transform="translate(0,109.5)" style="opacity: 1;"><text class="legendtext" text-anchor="start" x="40" y="4.680000000000001" style="font-family: 'Open Sans', verdana, arial, sans-serif; font-size: 12px; fill: rgb(42, 63, 95); fill-opacity: 1; white-space: pre;">Test Recall</text><g class="layers" style="opacity: 1;"><g class="legendfill"/><g class="legendlines"><path class="js-line" d="M5,0h30" style="fill: none; stroke: rgb(255, 192, 203); stroke-opacity: 1; stroke-width: 2px;"/></g><g class="legendsymbols"><g class="legendpoints"/></g></g><rect class="legendtoggle" x="0" y="-9.5" width="122.71875" height="19" style="fill: rgb(0, 0, 0); fill-opacity: 0;"/></g><g class="traces" transform="translate(0,128.5)" style="opacity: 1;"><text class="legendtext" text-anchor="start" x="40" y="4.680000000000001" style="font-family: 'Open Sans', verdana, arial, sans-serif; font-size: 12px; fill: rgb(42, 63, 95); fill-opacity: 1; white-space: pre;">Train F1</text><g class="layers" style="opacity: 1;"><g class="legendfill"/><g class="legendlines"><path class="js-line" d="M5,0h30" style="fill: none; stroke: rgb(165, 42, 42); stroke-opacity: 1; stroke-width: 2px;"/></g><g class="legendsymbols"><g class="legendpoints"/></g></g><rect class="legendtoggle" x="0" y="-9.5" width="122.71875" height="19" style="fill: rgb(0, 0, 0); fill-opacity: 0;"/></g><g class="traces" transform="translate(0,147.5)" style="opacity: 1;"><text class="legendtext" text-anchor="start" x="40" y="4.680000000000001" style="font-family: 'Open Sans', verdana, arial, sans-serif; font-size: 12px; fill: rgb(42, 63, 95); fill-opacity: 1; white-space: pre;">Test F1</text><g class="layers" style="opacity: 1;"><g class="legendfill"/><g class="legendlines"><path class="js-line" d="M5,0h30" style="fill: none; stroke: rgb(128, 128, 128); stroke-opacity: 1; stroke-width: 2px;"/></g><g class="legendsymbols"><g class="legendpoints"/></g></g><rect class="legendtoggle" x="0" y="-9.5" width="122.71875" height="19" style="fill: rgb(0, 0, 0); fill-opacity: 0;"/></g></g></g><rect class="scrollbar" rx="20" ry="3" width="0" height="0" x="0" y="0" style="fill: rgb(128, 139, 164); fill-opacity: 1;"/></g><g class="g-gtitle"><text class="gtitle" x="51.2" y="50" text-anchor="start" dy="0em" style="font-family: 'Open Sans', verdana, arial, sans-serif; font-size: 17px; fill: rgb(42, 63, 95); opacity: 1; font-weight: normal; white-space: pre;">Training Metrics - logs/FakeNewsNet-gossipcop_domain.log</text></g><g class="g-xtitle"><text class="xtitle" x="506" y="537.3" text-anchor="middle" style="font-family: 'Open Sans', verdana, arial, sans-serif; font-size: 14px; fill: rgb(42, 63, 95); opacity: 1; font-weight: normal; white-space: pre;">Epoch</text></g><g class="g-ytitle"><text class="ytitle" transform="rotate(-90,103.965625,298)" x="103.965625" y="298" text-anchor="middle" style="font-family: 'Open Sans', verdana, arial, sans-serif; font-size: 14px; fill: rgb(42, 63, 95); opacity: 1; font-weight: normal; white-space: pre;">Metric Score</text></g></g><g class="menulayer"><g class="updatemenu-container" style="cursor: pointer;"><g class="updatemenu-header-group" transform="translate(12,60)"><g class="updatemenu-header" transform="translate(1,1)" style="pointer-events: all;"><rect class="updatemenu-item-rect" rx="2" ry="2" shape-rendering="crispEdges" x="0" y="0" width="167" height="33" style="stroke: rgb(190, 200, 217); stroke-opacity: 1; fill: rgb(255, 255, 255); fill-opacity: 1; stroke-width: 1px;"/><text class="updatemenu-item-text" text-anchor="start" data-notex="1" x="12" y="19.5" style="font-family: 'Open Sans', verdana, arial, sans-serif; font-size: 12px; fill: rgb(42, 63, 95); fill-opacity: 1; white-space: pre;">All</text></g><text class="updatemenu-header-arrow" text-anchor="end" x="163" y="19.5" style="font-family: 'Open Sans', verdana, arial, sans-serif; font-size: 12px; fill: rgb(42, 63, 95); fill-opacity: 1;">▼</text></g><g class="updatemenu-dropdown-button-group" updatemenu-active-index="-1" style="pointer-events: all;"><rect class="scrollbox-bg" opacity="0" x="0" y="0" width="0" height="0" style="pointer-events: all;"/></g></g></g></svg>