<svg class="main-svg" xmlns="http://www.w3.org/2000/svg" xmlns:xlink="http://www.w3.org/1999/xlink" width="1024" height="576" style="" viewBox="0 0 1024 576"><rect x="0" y="0" width="1024" height="576" style="fill: rgb(255, 255, 255); fill-opacity: 1;"/><defs id="defs-60ec41"><g class="clips"><clipPath id="clip60ec41xyplot" class="plotclip"><rect width="726" height="396"/></clipPath><clipPath class="axesclip" id="clip60ec41x"><rect x="143" y="0" width="726" height="576"/></clipPath><clipPath class="axesclip" id="clip60ec41y"><rect x="0" y="100" width="1024" height="396"/></clipPath><clipPath class="axesclip" id="clip60ec41xy"><rect x="143" y="100" width="726" height="396"/></clipPath></g><g class="gradients"/><g class="patterns"/></defs><g class="bglayer"><rect class="bg" x="143" y="100" width="726" height="396" style="fill: rgb(229, 236, 246); fill-opacity: 1; stroke-width: 0;"/></g><g class="layer-below"><g class="imagelayer"/><g class="shapelayer"/></g><g class="cartesianlayer"><g class="subplot xy"><g class="layer-subplot"><g class="shapelayer"/><g class="imagelayer"/></g><g class="minor-gridlayer"><g class="x"/><g class="y"/></g><g class="gridlayer"><g class="x"><path class="xgrid crisp" transform="translate(235.57999999999998,0)" d="M0,100v396" style="stroke: rgb(255, 255, 255); stroke-opacity: 1; stroke-width: 1px;"/><path class="xgrid crisp" transform="translate(333.03,0)" d="M0,100v396" style="stroke: rgb(255, 255, 255); stroke-opacity: 1; stroke-width: 1px;"/><path class="xgrid crisp" transform="translate(430.48,0)" d="M0,100v396" style="stroke: rgb(255, 255, 255); stroke-opacity: 1; stroke-width: 1px;"/><path class="xgrid crisp" transform="translate(527.9300000000001,0)" d="M0,100v396" style="stroke: rgb(255, 255, 255); stroke-opacity: 1; stroke-width: 1px;"/><path class="xgrid crisp" transform="translate(625.38,0)" d="M0,100v396" style="stroke: rgb(255, 255, 255); stroke-opacity: 1; stroke-width: 1px;"/><path class="xgrid crisp" transform="translate(722.83,0)" d="M0,100v396" style="stroke: rgb(255, 255, 255); stroke-opacity: 1; stroke-width: 1px;"/><path class="xgrid crisp" transform="translate(820.28,0)" d="M0,100v396" style="stroke: rgb(255, 255, 255); stroke-opacity: 1; stroke-width: 1px;"/></g><g class="y"><path class="ygrid crisp" transform="translate(0,486.17)" d="M143,0h726" style="stroke: rgb(255, 255, 255); stroke-opacity: 1; stroke-width: 1px;"/><path class="ygrid crisp" transform="translate(0,398.73)" d="M143,0h726" style="stroke: rgb(255, 255, 255); stroke-opacity: 1; stroke-width: 1px;"/><path class="ygrid crisp" transform="translate(0,311.28999999999996)" d="M143,0h726" style="stroke: rgb(255, 255, 255); stroke-opacity: 1; stroke-width: 1px;"/><path class="ygrid crisp" transform="translate(0,223.85)" d="M143,0h726" style="stroke: rgb(255, 255, 255); stroke-opacity: 1; stroke-width: 1px;"/><path class="ygrid crisp" transform="translate(0,136.41)" d="M143,0h726" style="stroke: rgb(255, 255, 255); stroke-opacity: 1; stroke-width: 1px;"/></g></g><g class="zerolinelayer"/><path class="xlines-below"/><path class="ylines-below"/><g class="overlines-below"/><g class="xaxislayer-below"/><g class="yaxislayer-below"/><g class="overaxes-below"/><g class="plot" transform="translate(143,100)" clip-path="url(#clip60ec41xyplot)"><g class="scatterlayer mlayer"><g class="trace scatter trace2ebef3" style="stroke-miterlimit: 2; opacity: 1;"><g class="fills"/><g class="errorbars"/><g class="lines"><path class="js-line" d="M0,327.41L4.87,283.86L9.74,219.51L14.62,259.03L19.49,200.97L24.36,184.36L29.23,157.43L34.11,153.23L38.98,151.13L43.85,122.28L48.72,122.28L53.6,155.33L58.47,136.62L63.34,138.72L68.21,128.4L73.09,113.88L77.96,118.08L82.83,115.98L87.7,105.66L92.58,105.66L97.45,111.79L102.32,118.08L107.19,145.01L112.07,132.6L116.94,111.79L121.81,118.08L126.68,122.28L131.56,118.08L136.43,103.57L141.3,103.57L146.17,107.76L151.05,101.47L155.92,105.66L160.79,120.18L165.66,105.66L170.54,99.37L175.41,103.57L180.28,89.05L185.15,91.15L190.03,97.27L194.9,70.34L199.77,72.44L204.64,86.95L209.52,82.76L214.39,89.05L219.26,86.95L224.13,78.73L229.01,80.83L233.88,68.24L238.75,70.34L243.62,68.24L248.5,66.32L253.37,68.24L258.24,64.22L263.11,82.76L267.99,80.83L272.86,80.83L277.73,89.05L282.6,82.76L292.35,66.32L297.22,68.24L302.09,70.34L306.97,62.12L311.84,86.95L316.71,80.83L321.58,80.83L326.46,82.76L331.33,74.54L336.2,82.76L341.07,78.73L345.95,91.15L350.82,84.85L355.69,76.64L360.56,95.17L365.44,84.85L370.31,82.76L375.18,84.85L380.05,64.22L384.93,74.54L389.8,80.83L394.67,74.54L399.54,66.32L404.42,70.34L409.29,89.05L414.16,82.76L419.03,68.24L423.91,80.83L428.78,72.44L433.65,72.44L438.52,74.54L443.4,66.32L448.27,84.85L453.14,82.76L458.01,84.85L462.89,78.73L467.76,70.34L472.63,72.44L477.5,74.54L482.38,80.83L487.25,86.95L492.12,80.83L496.99,76.64L501.87,82.76L506.74,82.76L511.61,89.05L516.48,80.83L521.36,82.76L526.23,76.64L531.1,72.44L535.97,78.73L540.85,64.22L545.72,68.24L550.59,78.73L555.46,43.41L560.34,45.51L565.21,45.51L570.08,68.24L574.95,62.12L579.83,64.22L584.7,60.02L589.57,66.32L594.44,70.34L599.32,78.73L604.19,76.64L609.06,72.44L613.93,78.73L618.81,74.54L623.68,70.34L628.55,70.34L633.42,80.83L638.3,74.54L643.17,70.34L648.04,68.24L657.79,68.24L662.66,43.41L667.53,45.51L672.4,60.02L677.28,78.73L682.15,76.64L687.02,76.64L691.89,66.32L696.77,70.34L701.64,68.24L706.51,66.32L711.38,86.95L716.26,74.54L721.13,76.64L726,78.73" style="vector-effect: none; fill: none; stroke: rgb(255, 0, 0); stroke-opacity: 1; stroke-width: 2px; opacity: 1;"/></g><g class="points"/><g class="text"/></g><g class="trace scatter trace94c23e" style="stroke-miterlimit: 2; opacity: 1;"><g class="fills"/><g class="errorbars"/><g class="lines"><path class="js-line" d="M0,376.2L4.87,359.76L9.74,302.05L14.62,310.27L19.49,285.61L24.36,236.12L29.23,260.78L34.11,244.34L38.98,203.07L43.85,194.85L48.72,236.12L53.6,236.12L58.47,252.56L63.34,260.78L68.21,227.73L73.09,252.56L77.96,211.29L82.83,219.51L87.7,260.78L92.58,260.78L97.45,277.22L102.32,277.22L107.19,219.51L112.07,244.34L116.94,285.61L121.81,252.56L126.68,260.78L131.56,211.29L136.43,227.73L146.17,211.29L151.05,236.12L155.92,260.78L160.79,260.78L165.66,252.56L170.54,236.12L175.41,244.34L180.28,227.73L185.15,211.29L190.03,211.29L194.9,186.46L199.77,194.85L204.64,219.51L209.52,161.8L214.39,186.46L219.26,178.24L224.13,194.85L229.01,203.07L233.88,186.46L238.75,219.51L243.62,211.29L248.5,227.73L253.37,203.07L258.24,252.56L263.11,244.34L267.99,227.73L277.73,244.34L282.6,244.34L287.48,269L292.35,244.34L297.22,252.56L302.09,244.34L306.97,252.56L311.84,236.12L316.71,219.51L321.58,227.73L326.46,227.73L331.33,236.12L336.2,260.78L341.07,236.12L350.82,252.56L355.69,227.73L360.56,227.73L365.44,244.34L370.31,236.12L375.18,244.34L384.93,211.29L389.8,203.07L394.67,227.73L399.54,203.07L404.42,211.29L409.29,227.73L414.16,227.73L419.03,236.12L428.78,236.12L433.65,219.51L438.52,252.56L443.4,211.29L448.27,236.12L453.14,219.51L458.01,236.12L462.89,227.73L467.76,244.34L472.63,219.51L477.5,203.07L482.38,211.29L487.25,203.07L492.12,203.07L496.99,219.51L501.87,219.51L506.74,194.85L511.61,211.29L516.48,227.73L521.36,219.51L526.23,219.51L531.1,211.29L535.97,211.29L540.85,203.07L545.72,211.29L550.59,203.07L555.46,178.24L560.34,203.07L565.21,170.02L570.08,194.85L574.95,211.29L579.83,194.85L584.7,161.8L589.57,170.02L594.44,186.46L599.32,186.46L604.19,203.07L609.06,203.07L613.93,203.07L618.81,194.85L623.68,211.29L628.55,219.51L633.42,227.73L638.3,211.29L643.17,203.07L648.04,219.51L652.91,211.29L657.79,211.29L662.66,170.02L667.53,186.46L672.4,178.24L677.28,236.12L682.15,227.73L687.02,211.29L691.89,178.24L696.77,186.46L701.64,161.8L706.51,170.02L716.26,236.12L721.13,236.12L726,219.51" style="vector-effect: none; fill: none; stroke: rgb(0, 0, 255); stroke-opacity: 1; stroke-width: 2px; opacity: 1;"/></g><g class="points"/><g class="text"/></g><g class="trace scatter trace0a9134" style="stroke-miterlimit: 2; opacity: 1;"><g class="fills"/><g class="errorbars"/><g class="lines"><path class="js-line" d="M0,276.69L4.87,206.04L9.74,170.19L14.62,193.1L19.49,167.05L24.36,161.98L29.23,140.12L34.11,150.78L38.98,149.03L43.85,116.16L48.72,112.48L53.6,135.04L58.47,118.08L63.34,120.7L68.21,109.69L73.09,101.12L77.96,105.32L82.83,105.66L87.7,90.63L92.58,84.85L97.45,90.45L102.32,92.2L107.19,118.96L112.07,104.97L116.94,88L121.81,90.98L126.68,99.02L131.56,104.27L136.43,90.1L141.3,90.1L146.17,90.98L151.05,81.88L155.92,86.08L160.79,104.62L165.66,91.67L170.54,83.81L175.41,93.25L180.28,76.11L185.15,76.64L190.03,84.5L194.9,62.82L199.77,66.32L204.64,84.5L209.52,83.11L214.39,90.98L219.26,82.93L224.13,77.68L229.01,77.86L233.88,67.72L238.75,66.32L243.62,61.25L248.5,61.42L253.37,60.37L258.24,53.2L263.11,72.44L267.99,66.67L272.86,65.62L277.73,74.01L282.6,68.24L287.48,64.22L292.35,54.78L297.22,62.99L302.09,63.69L306.97,58.8L311.84,76.64L316.71,68.94L321.58,66.67L326.46,67.19L331.33,61.07L336.2,63.69L341.07,58.27L345.95,70.69L350.82,68.59L355.69,57.92L360.56,74.89L365.44,65.09L370.31,61.07L375.18,66.32L380.05,47.78L384.93,57.57L389.8,64.57L394.67,63.17L399.54,55.82L404.42,57.92L409.29,77.16L414.16,68.24L419.03,56.35L423.91,67.72L428.78,60.55L433.65,61.6L438.52,65.09L443.4,61.42L448.27,76.98L453.14,72.44L458.01,74.01L462.89,68.24L467.76,58.97L472.63,64.39L477.5,66.14L482.38,69.81L487.25,75.59L492.12,70.86L496.99,69.47L501.87,73.49L506.74,71.39L511.61,77.16L516.48,67.72L521.36,74.36L526.23,65.79L531.1,62.64L535.97,66.32L540.85,53.2L545.72,55.3L550.59,62.99L555.46,34.49L560.34,33.97L565.21,40.61L570.08,56.35L574.95,53.55L579.83,58.8L584.7,53.9L599.32,68.24L604.19,63.69L609.06,57.22L613.93,61.77L618.81,57.57L623.68,52.33L628.55,54.6L633.42,64.57L638.3,61.07L643.17,55.82L648.04,58.45L652.91,56.35L657.79,59.32L662.66,41.31L667.53,43.06L672.4,54.78L677.28,68.24L682.15,68.59L687.02,67.72L691.89,59.67L696.77,63.69L701.64,62.12L706.51,59.67L711.38,73.49L716.26,66.14L721.13,63.69L726,70.16" style="vector-effect: none; fill: none; stroke: rgb(0, 128, 0); stroke-opacity: 1; stroke-width: 2px; opacity: 1;"/></g><g class="points"/><g class="text"/></g><g class="trace scatter trace27e02a" style="stroke-miterlimit: 2; opacity: 1;"><g class="fills"/><g class="errorbars"/><g class="lines"><path class="js-line" d="M0,294.53L4.87,307.47L9.74,264.8L14.62,263.4L19.49,265.85L24.36,216.19L29.23,243.82L34.11,250.46L38.98,214.79L43.85,200.97L48.72,231.58L53.6,226.68L58.47,243.29L63.34,226.16L68.21,205L73.09,232.8L77.96,199.4L82.83,205L87.7,238.22L92.58,232.28L97.45,254.84L102.32,242.77L107.19,199.57L112.07,209.37L116.94,248.01L121.81,227.03L126.68,249.06L131.56,213.39L136.43,234.02L146.17,204.47L151.05,226.68L155.92,238.22L160.79,238.22L165.66,243.29L170.54,221.61L175.41,221.61L180.28,210.59L185.15,199.4L190.03,204.47L194.9,171.94L199.77,187.86L204.64,210.24L209.52,163.9L214.39,190.66L219.26,171.42L224.13,204.65L229.01,207.27L233.88,190.66L238.75,219.51L243.62,213.39L248.5,225.63L253.37,198.52L258.24,232.8L263.11,232.45L267.99,210.59L277.73,221.61L282.6,221.61L287.48,243.64L292.35,221.61L297.22,238.22L302.09,232.45L306.97,248.01L311.84,236.12L316.71,219.51L321.58,220.91L331.33,221.61L336.2,243.82L341.07,210.42L345.95,215.66L350.82,238.22L355.69,205L360.56,210.59L365.44,221.61L370.31,221.61L375.18,232.45L380.05,220.91L384.93,199.4L389.8,182.96L394.67,216.01L399.54,198.52L404.42,204.47L409.29,225.63L414.16,220.91L419.03,231.58L423.91,231.58L428.78,236.12L433.65,223.71L438.52,248.01L443.4,217.41L448.27,236.12L453.14,223.71L458.01,236.12L462.89,225.63L467.76,237.35L472.63,219.51L477.5,203.07L482.38,213.39L487.25,193.63L492.12,198.52L496.99,214.96L501.87,210.24L506.74,192.58L511.61,209.02L516.48,220.91L521.36,219.51L526.23,214.96L531.1,209.02L535.97,213.39L540.85,203.07L545.72,209.02L550.59,198.52L555.46,180.51L560.34,198.52L565.21,174.22L570.08,187.86L574.95,213.39L579.83,196.95L584.7,159.53L589.57,170.02L594.44,190.66L599.32,186.46L604.19,193.63L609.06,193.63L613.93,193.63L618.81,187.86L623.68,199.4L628.55,205L633.42,216.01L638.3,204.47L643.17,193.63L648.04,205L657.79,204.47L662.66,174.22L667.53,186.46L672.4,180.51L677.28,221.61L682.15,216.01L687.02,199.4L691.89,176.14L696.77,182.09L701.64,163.9L706.51,170.02L711.38,193.63L716.26,221.61L721.13,221.61L726,205" style="vector-effect: none; fill: none; stroke: rgb(255, 165, 0); stroke-opacity: 1; stroke-width: 2px; opacity: 1;"/></g><g class="points"/><g class="text"/></g><g class="trace scatter traced3c016" style="stroke-miterlimit: 2; opacity: 1;"><g class="fills"/><g class="errorbars"/><g class="lines"><path class="js-line" d="M0,286.14L9.74,178.24L14.62,211.47L19.49,166.35L24.36,155.5L29.23,131.02L34.11,137.67L38.98,135.92L43.85,102.69L48.72,99.89L53.6,127.17L58.47,108.99L63.34,111.44L73.09,89.4L77.96,93.6L82.83,93.25L87.7,79.43L92.58,76.11L97.45,82.06L102.32,86.08L107.19,113.36L112.07,99.89L116.94,80.66L121.81,85.38L126.68,91.67L131.56,92.9L136.43,78.38L141.3,78.38L146.17,80.66L151.05,72.44L155.92,76.81L160.79,94.12L165.66,80.13L170.54,72.79L175.41,80.48L180.28,63.87L185.15,64.92L190.03,72.44L194.9,48.48L199.77,51.63L204.64,69.64L209.52,68.07L214.39,76.11L219.26,68.24L224.13,62.47L229.01,62.82L233.88,52.15L238.75,51.28L243.62,46.73L253.37,46.03L258.24,39.74L263.11,59.15L267.99,54.6L272.86,53.9L277.73,62.47L287.48,50.75L292.35,41.48L297.22,48.13L302.09,49.18L306.97,43.41L311.84,63.52L316.71,56L321.58,54.6L326.46,55.82L331.33,48.65L336.2,53.73L341.07,48.83L345.95,61.6L350.82,57.57L355.69,47.61L360.56,65.79L365.44,55.47L370.31,52.33L375.18,56.17L380.05,36.24L384.93,46.56L389.8,53.2L394.67,50.05L399.54,42.18L404.42,44.98L409.29,64.57L414.16,56.35L419.03,43.23L423.91,55.3L428.78,47.43L433.65,48.13L438.52,51.28L443.4,46.21L448.27,62.99L453.14,59.15L458.01,60.9L462.89,54.95L467.76,45.68L472.63,50.23L477.5,51.98L482.38,56.7L487.25,62.82L492.12,57.4L496.99,55.13L501.87,59.85L506.74,58.45L511.61,64.57L516.48,55.3L521.36,60.55L526.23,52.5L531.1,48.83L535.97,53.55L540.85,39.74L545.72,42.53L550.59,51.45L555.46,19.8L560.34,20.15L565.21,25.05L570.08,43.23L574.95,39.21L579.83,43.76L584.7,38.86L599.32,54.95L604.19,51.1L609.06,45.51L613.93,50.75L623.68,41.66L628.55,43.06L633.42,53.2L638.3,48.65L643.17,43.76L648.04,44.63L652.91,43.23L657.79,45.33L662.66,25.22L667.53,27.14L672.4,39.56L677.28,54.95L687.02,53.9L691.89,44.98L696.77,49.18L701.64,47.43L706.51,44.98L711.38,61.42L716.26,51.98L721.13,51.1L726,56.35" style="vector-effect: none; fill: none; stroke: rgb(128, 0, 128); stroke-opacity: 1; stroke-width: 2px; opacity: 1;"/></g><g class="points"/><g class="text"/></g><g class="trace scatter trace8470e9" style="stroke-miterlimit: 2; opacity: 1;"><g class="fills"/><g class="errorbars"/><g class="lines"><path class="js-line" d="M0,292.61L4.87,293.66L9.74,243.29L14.62,245.04L19.49,239.62L24.36,186.28L29.23,215.31L34.11,220.91L38.98,183.66L43.85,167.75L48.72,200.45L53.6,195.73L58.47,213.39L63.34,201.32L68.21,175.09L73.09,204.12L77.96,166.87L82.83,173.34L87.7,210.59L92.58,205.87L97.45,228.43L102.32,218.99L107.19,168.62L112.07,183.49L116.94,225.46L121.81,199.4L126.68,220.03L131.56,180.86L136.43,203.25L146.17,171.42L151.05,195.73L155.92,210.59L160.79,210.59L165.66,213.39L170.54,191L175.41,192.93L180.28,179.81L185.15,166.87L190.03,171.42L194.9,137.84L199.77,153.76L204.64,178.06L209.52,127.7L214.39,156.55L219.26,135.92L224.13,172.47L229.01,174.39L233.88,156.55L238.75,187.33L243.62,180.86L248.5,193.8L253.37,164.95L258.24,204.12L263.11,202.2L267.99,179.81L277.73,192.93L282.6,192.93L287.48,217.06L292.35,192.93L297.22,208.84L302.09,202.2L306.97,218.11L311.84,205.17L316.71,187.33L321.58,189.26L326.46,189.26L331.33,191L336.2,215.31L341.07,181.74L345.95,188.21L350.82,208.84L355.69,175.09L360.56,179.81L365.44,192.93L370.31,191L375.18,202.2L380.05,189.26L384.93,166.87L389.8,150.96L394.67,184.53L399.54,164.95L404.42,171.42L409.29,193.8L414.16,189.26L419.03,200.45L423.91,200.45L428.78,205.17L433.65,192.05L438.52,218.11L443.4,185.58L448.27,205.17L453.14,192.05L458.01,205.17L462.89,193.8L467.76,206.92L477.5,169.67L482.38,180.86L487.25,160.23L492.12,164.95L496.99,182.61L501.87,178.06L506.74,158.48L511.61,176.14L516.48,189.26L521.36,187.33L526.23,182.61L531.1,176.14L535.97,180.86L540.85,169.67L545.72,176.14L550.59,164.95L555.46,145.36L560.34,164.95L565.21,138.89L570.08,153.76L574.95,180.86L579.83,163.02L584.7,122.98L589.57,134.17L594.44,156.55L599.32,151.83L604.19,160.23L609.06,160.23L613.93,160.23L618.81,153.76L623.68,166.87L628.55,173.34L633.42,184.53L638.3,171.42L643.17,160.23L648.04,173.34L652.91,171.42L657.79,171.42L662.66,138.89L667.53,151.83L672.4,145.36L677.28,191L682.15,184.53L687.02,166.87L691.89,140.64L696.77,147.29L701.64,127.7L706.51,134.17L711.38,160.23L716.26,191L721.13,191L726,173.34" style="vector-effect: none; fill: none; stroke: rgb(255, 192, 203); stroke-opacity: 1; stroke-width: 2px; opacity: 1;"/></g><g class="points"/><g class="text"/></g><g class="trace scatter trace6eddf8" style="stroke-miterlimit: 2; opacity: 1;"><g class="fills"/><g class="errorbars"/><g class="lines"><path class="js-line" d="M0,327.93L4.87,285.96L9.74,219.86L14.62,260.08L19.49,200.97L24.36,184.53L29.23,157.95L38.98,153.23L43.85,123.5L48.72,123.15L53.6,155.68L58.47,137.14L63.34,139.24L68.21,128.75L73.09,114.58L77.96,118.78L82.83,116.86L87.7,106.19L92.58,105.84L102.32,118.26L107.19,145.19L112.07,132.6L116.94,111.96L121.81,118.08L126.68,122.45L131.56,118.61L136.43,104.27L141.3,104.27L146.17,108.11L151.05,101.82L155.92,106.01L160.79,120.7L165.66,106.19L170.54,99.89L175.41,104.44L180.28,89.75L185.15,91.67L190.03,97.97L194.9,71.39L199.77,73.66L204.64,88.53L209.52,84.85L214.39,91.5L219.26,88.35L224.13,80.48L229.01,82.23L233.88,70.16L238.75,71.74L243.62,69.29L248.5,67.54L253.37,69.29L258.24,64.92L263.11,83.63L267.99,81.36L272.86,81.18L277.73,89.58L282.6,83.28L292.35,67.02L297.22,69.47L302.09,71.56L306.97,63.52L311.84,87.83L316.71,81.53L321.58,81.36L326.46,83.28L331.33,75.06L336.2,83.11L341.07,78.91L345.95,91.32L350.82,85.38L355.69,76.98L360.56,95.52L365.44,85.2L370.31,83.11L375.18,85.2L380.05,64.57L384.93,74.89L389.8,81.18L394.67,75.24L399.54,67.02L404.42,71.04L409.29,89.75L414.16,83.28L419.03,68.94L423.91,81.36L428.78,73.14L433.65,73.14L438.52,75.41L443.4,67.54L448.27,85.9L453.14,83.63L458.01,85.73L462.89,79.43L467.76,71.04L472.63,73.49L477.5,75.41L482.38,81.53L487.25,87.65L492.12,81.53L496.99,77.68L501.87,83.63L506.74,83.63L511.61,89.75L516.48,81.36L521.36,83.81L526.23,77.33L531.1,73.31L535.97,79.26L540.85,64.92L545.72,68.94L550.59,79.08L555.46,44.28L560.34,46.21L565.21,46.73L570.08,68.94L574.95,62.99L579.83,65.44L584.7,61.07L589.57,67.19L594.44,71.56L599.32,79.43L604.19,77.16L609.06,72.96L613.93,79.08L618.81,74.89L623.68,70.69L628.55,70.86L633.42,81.18L638.3,75.06L643.17,70.86L648.04,69.12L657.79,69.12L662.66,44.98L667.53,46.91L672.4,61.25L677.28,79.43L682.15,77.51L687.02,77.51L691.89,67.37L696.77,71.56L701.64,69.47L706.51,67.37L711.38,87.65L716.26,75.41L721.13,77.16L726,79.61" style="vector-effect: none; fill: none; stroke: rgb(165, 42, 42); stroke-opacity: 1; stroke-width: 2px; opacity: 1;"/></g><g class="points"/><g class="text"/></g><g class="trace scatter trace68d90b" style="stroke-miterlimit: 2; opacity: 1;"><g class="fills"/><g class="errorbars"/><g class="lines"><path class="js-line" d="M0,376.2L4.87,360.81L9.74,304.33L14.62,311.67L19.49,290.16L24.36,240.15L29.23,265.68L34.11,254.49L38.98,214.44L43.85,203.95L48.72,243.12L53.6,242.07L58.47,258.68L63.34,263.23L68.21,231.4L73.09,256.76L77.96,216.54L82.83,224.41L87.7,264.8L92.58,263.93L97.45,281.42L102.32,279.84L107.19,223.53L112.07,246.62L116.94,287.71L121.81,256.06L126.68,266.55L131.56,219.68L136.43,237.7L146.17,217.41L151.05,242.07L155.92,264.8L160.79,264.8L165.66,258.68L170.54,241.02L175.41,248.01L180.28,232.28L185.15,216.54L190.03,217.41L194.9,191L199.77,200.8L204.64,225.28L209.52,169.15L214.39,195.03L219.26,184.01L224.13,205.17L229.01,211.82L233.88,195.03L238.75,227.38L243.62,219.68L248.5,235.25L253.37,209.54L258.24,256.76L263.11,249.94L267.99,232.28L277.73,248.01L282.6,248.01L287.48,272.67L292.35,248.01L297.22,257.81L302.09,249.94L306.97,259.91L311.84,244.17L316.71,227.38L321.58,234.2L326.46,234.2L331.33,241.02L336.2,265.68L341.07,239.45L345.95,247.32L350.82,257.81L355.69,231.4L360.56,232.28L365.44,248.01L370.31,241.02L375.18,249.94L380.05,234.2L384.93,216.54L389.8,206.92L394.67,233.15L399.54,209.54L404.42,217.41L409.29,235.25L414.16,234.2L419.03,243.12L423.91,243.12L428.78,244.17L433.65,228.6L438.52,259.91L443.4,220.91L448.27,244.17L453.14,228.6L458.01,244.17L462.89,235.25L467.76,250.99L472.63,227.38L477.5,210.59L482.38,219.68L487.25,208.67L492.12,209.54L496.99,226.33L501.87,225.28L506.74,201.67L516.48,234.2L521.36,227.38L526.23,226.33L531.1,218.46L535.97,219.68L540.85,210.59L545.72,218.46L550.59,209.54L555.46,185.93L560.34,209.54L565.21,178.06L570.08,200.8L574.95,219.68L579.83,202.9L584.7,168.27L589.57,177.01L594.44,195.03L599.32,193.8L604.19,208.67L609.06,208.67L613.93,208.67L618.81,200.8L623.68,216.54L628.55,224.41L633.42,233.15L638.3,217.41L643.17,208.67L648.04,224.41L652.91,217.41L657.79,217.41L662.66,178.06L667.53,193.8L672.4,185.93L677.28,241.02L682.15,233.15L687.02,216.54L691.89,184.88L696.77,192.93L701.64,169.15L706.51,177.01L716.26,241.02L721.13,241.02L726,224.41" style="vector-effect: none; fill: none; stroke: rgb(128, 128, 128); stroke-opacity: 1; stroke-width: 2px; opacity: 1;"/></g><g class="points"/><g class="text"/></g></g></g><g class="overplot"/><path class="xlines-above crisp" d="M0,0" style="fill: none;"/><path class="ylines-above crisp" d="M0,0" style="fill: none;"/><g class="overlines-above"/><g class="xaxislayer-above"><g class="xtick"><text text-anchor="middle" x="0" y="509" transform="translate(235.57999999999998,0)" style="font-family: 'Open Sans', verdana, arial, sans-serif; font-size: 12px; fill: rgb(42, 63, 95); fill-opacity: 1; white-space: pre; opacity: 1;">20</text></g><g class="xtick"><text text-anchor="middle" x="0" y="509" style="font-family: 'Open Sans', verdana, arial, sans-serif; font-size: 12px; fill: rgb(42, 63, 95); fill-opacity: 1; white-space: pre; opacity: 1;" transform="translate(333.03,0)">40</text></g><g class="xtick"><text text-anchor="middle" x="0" y="509" style="font-family: 'Open Sans', verdana, arial, sans-serif; font-size: 12px; fill: rgb(42, 63, 95); fill-opacity: 1; white-space: pre; opacity: 1;" transform="translate(430.48,0)">60</text></g><g class="xtick"><text text-anchor="middle" x="0" y="509" style="font-family: 'Open Sans', verdana, arial, sans-serif; font-size: 12px; fill: rgb(42, 63, 95); fill-opacity: 1; white-space: pre; opacity: 1;" transform="translate(527.9300000000001,0)">80</text></g><g class="xtick"><text text-anchor="middle" x="0" y="509" style="font-family: 'Open Sans', verdana, arial, sans-serif; font-size: 12px; fill: rgb(42, 63, 95); fill-opacity: 1; white-space: pre; opacity: 1;" transform="translate(625.38,0)">100</text></g><g class="xtick"><text text-anchor="middle" x="0" y="509" style="font-family: 'Open Sans', verdana, arial, sans-serif; font-size: 12px; fill: rgb(42, 63, 95); fill-opacity: 1; white-space: pre; opacity: 1;" transform="translate(722.83,0)">120</text></g><g class="xtick"><text text-anchor="middle" x="0" y="509" style="font-family: 'Open Sans', verdana, arial, sans-serif; font-size: 12px; fill: rgb(42, 63, 95); fill-opacity: 1; white-space: pre; opacity: 1;" transform="translate(820.28,0)">140</text></g></g><g class="yaxislayer-above"><g class="ytick"><text text-anchor="end" x="142" y="4.199999999999999" transform="translate(0,486.17)" style="font-family: 'Open Sans', verdana, arial, sans-serif; font-size: 12px; fill: rgb(42, 63, 95); fill-opacity: 1; white-space: pre; opacity: 1;">65</text></g><g class="ytick"><text text-anchor="end" x="142" y="4.199999999999999" style="font-family: 'Open Sans', verdana, arial, sans-serif; font-size: 12px; fill: rgb(42, 63, 95); fill-opacity: 1; white-space: pre; opacity: 1;" transform="translate(0,398.73)">70</text></g><g class="ytick"><text text-anchor="end" x="142" y="4.199999999999999" style="font-family: 'Open Sans', verdana, arial, sans-serif; font-size: 12px; fill: rgb(42, 63, 95); fill-opacity: 1; white-space: pre; opacity: 1;" transform="translate(0,311.28999999999996)">75</text></g><g class="ytick"><text text-anchor="end" x="142" y="4.199999999999999" style="font-family: 'Open Sans', verdana, arial, sans-serif; font-size: 12px; fill: rgb(42, 63, 95); fill-opacity: 1; white-space: pre; opacity: 1;" transform="translate(0,223.85)">80</text></g><g class="ytick"><text text-anchor="end" x="142" y="4.199999999999999" style="font-family: 'Open Sans', verdana, arial, sans-serif; font-size: 12px; fill: rgb(42, 63, 95); fill-opacity: 1; white-space: pre; opacity: 1;" transform="translate(0,136.41)">85</text></g></g><g class="overaxes-above"/></g></g><g class="polarlayer"/><g class="smithlayer"/><g class="ternarylayer"/><g class="geolayer"/><g class="funnelarealayer"/><g class="pielayer"/><g class="iciclelayer"/><g class="treemaplayer"/><g class="sunburstlayer"/><g class="glimages"/><defs id="topdefs-60ec41"><g class="clips"/><clipPath id="legend60ec41"><rect width="128" height="162" x="0" y="0"/></clipPath></defs><g class="layer-above"><g class="imagelayer"/><g class="shapelayer"/></g><g class="infolayer"><g class="legend" pointer-events="all" transform="translate(883.52,100)"><rect class="bg" shape-rendering="crispEdges" width="128" height="162" x="0" y="0" style="stroke: rgb(68, 68, 68); stroke-opacity: 1; fill: rgb(255, 255, 255); fill-opacity: 1; stroke-width: 0px;"/><g class="scrollbox" transform="" clip-path="url(#legend60ec41)"><g class="groups"><g class="traces" transform="translate(0,14.5)" style="opacity: 1;"><text class="legendtext" text-anchor="start" x="40" y="4.680000000000001" style="font-family: 'Open Sans', verdana, arial, sans-serif; font-size: 12px; fill: rgb(42, 63, 95); fill-opacity: 1; white-space: pre;">Train Accuracy</text><g class="layers" style="opacity: 1;"><g class="legendfill"/><g class="legendlines"><path class="js-line" d="M5,0h30" style="fill: none; stroke: rgb(255, 0, 0); stroke-opacity: 1; stroke-width: 2px;"/></g><g class="legendsymbols"><g class="legendpoints"/></g></g><rect class="legendtoggle" x="0" y="-9.5" width="122.71875" height="19" style="fill: rgb(0, 0, 0); fill-opacity: 0;"/></g><g class="traces" transform="translate(0,33.5)" style="opacity: 1;"><text class="legendtext" text-anchor="start" x="40" y="4.680000000000001" style="font-family: 'Open Sans', verdana, arial, sans-serif; font-size: 12px; fill: rgb(42, 63, 95); fill-opacity: 1; white-space: pre;">Test Accuracy</text><g class="layers" style="opacity: 1;"><g class="legendfill"/><g class="legendlines"><path class="js-line" d="M5,0h30" style="fill: none; stroke: rgb(0, 0, 255); stroke-opacity: 1; stroke-width: 2px;"/></g><g class="legendsymbols"><g class="legendpoints"/></g></g><rect class="legendtoggle" x="0" y="-9.5" width="122.71875" height="19" style="fill: rgb(0, 0, 0); fill-opacity: 0;"/></g><g class="traces" transform="translate(0,52.5)" style="opacity: 1;"><text class="legendtext" text-anchor="start" x="40" y="4.680000000000001" style="font-family: 'Open Sans', verdana, arial, sans-serif; font-size: 12px; fill: rgb(42, 63, 95); fill-opacity: 1; white-space: pre;">Train Precision</text><g class="layers" style="opacity: 1;"><g class="legendfill"/><g class="legendlines"><path class="js-line" d="M5,0h30" style="fill: none; stroke: rgb(0, 128, 0); stroke-opacity: 1; stroke-width: 2px;"/></g><g class="legendsymbols"><g class="legendpoints"/></g></g><rect class="legendtoggle" x="0" y="-9.5" width="122.71875" height="19" style="fill: rgb(0, 0, 0); fill-opacity: 0;"/></g><g class="traces" transform="translate(0,71.5)" style="opacity: 1;"><text class="legendtext" text-anchor="start" x="40" y="4.680000000000001" style="font-family: 'Open Sans', verdana, arial, sans-serif; font-size: 12px; fill: rgb(42, 63, 95); fill-opacity: 1; white-space: pre;">Test Precision</text><g class="layers" style="opacity: 1;"><g class="legendfill"/><g class="legendlines"><path class="js-line" d="M5,0h30" style="fill: none; stroke: rgb(255, 165, 0); stroke-opacity: 1; stroke-width: 2px;"/></g><g class="legendsymbols"><g class="legendpoints"/></g></g><rect class="legendtoggle" x="0" y="-9.5" width="122.71875" height="19" style="fill: rgb(0, 0, 0); fill-opacity: 0;"/></g><g class="traces" transform="translate(0,90.5)" style="opacity: 1;"><text class="legendtext" text-anchor="start" x="40" y="4.680000000000001" style="font-family: 'Open Sans', verdana, arial, sans-serif; font-size: 12px; fill: rgb(42, 63, 95); fill-opacity: 1; white-space: pre;">Train Recall</text><g class="layers" style="opacity: 1;"><g class="legendfill"/><g class="legendlines"><path class="js-line" d="M5,0h30" style="fill: none; stroke: rgb(128, 0, 128); stroke-opacity: 1; stroke-width: 2px;"/></g><g class="legendsymbols"><g class="legendpoints"/></g></g><rect class="legendtoggle" x="0" y="-9.5" width="122.71875" height="19" style="fill: rgb(0, 0, 0); fill-opacity: 0;"/></g><g class="traces" transform="translate(0,109.5)" style="opacity: 1;"><text class="legendtext" text-anchor="start" x="40" y="4.680000000000001" style="font-family: 'Open Sans', verdana, arial, sans-serif; font-size: 12px; fill: rgb(42, 63, 95); fill-opacity: 1; white-space: pre;">Test Recall</text><g class="layers" style="opacity: 1;"><g class="legendfill"/><g class="legendlines"><path class="js-line" d="M5,0h30" style="fill: none; stroke: rgb(255, 192, 203); stroke-opacity: 1; stroke-width: 2px;"/></g><g class="legendsymbols"><g class="legendpoints"/></g></g><rect class="legendtoggle" x="0" y="-9.5" width="122.71875" height="19" style="fill: rgb(0, 0, 0); fill-opacity: 0;"/></g><g class="traces" transform="translate(0,128.5)" style="opacity: 1;"><text class="legendtext" text-anchor="start" x="40" y="4.680000000000001" style="font-family: 'Open Sans', verdana, arial, sans-serif; font-size: 12px; fill: rgb(42, 63, 95); fill-opacity: 1; white-space: pre;">Train F1</text><g class="layers" style="opacity: 1;"><g class="legendfill"/><g class="legendlines"><path class="js-line" d="M5,0h30" style="fill: none; stroke: rgb(165, 42, 42); stroke-opacity: 1; stroke-width: 2px;"/></g><g class="legendsymbols"><g class="legendpoints"/></g></g><rect class="legendtoggle" x="0" y="-9.5" width="122.71875" height="19" style="fill: rgb(0, 0, 0); fill-opacity: 0;"/></g><g class="traces" transform="translate(0,147.5)" style="opacity: 1;"><text class="legendtext" text-anchor="start" x="40" y="4.680000000000001" style="font-family: 'Open Sans', verdana, arial, sans-serif; font-size: 12px; fill: rgb(42, 63, 95); fill-opacity: 1; white-space: pre;">Test F1</text><g class="layers" style="opacity: 1;"><g class="legendfill"/><g class="legendlines"><path class="js-line" d="M5,0h30" style="fill: none; stroke: rgb(128, 128, 128); stroke-opacity: 1; stroke-width: 2px;"/></g><g class="legendsymbols"><g class="legendpoints"/></g></g><rect class="legendtoggle" x="0" y="-9.5" width="122.71875" height="19" style="fill: rgb(0, 0, 0); fill-opacity: 0;"/></g></g></g><rect class="scrollbar" rx="20" ry="3" width="0" height="0" x="0" y="0" style="fill: rgb(128, 139, 164); fill-opacity: 1;"/></g><g class="g-gtitle"><text class="gtitle" x="51.2" y="50" text-anchor="start" dy="0em" style="font-family: 'Open Sans', verdana, arial, sans-serif; font-size: 17px; fill: rgb(42, 63, 95); opacity: 1; font-weight: normal; white-space: pre;">Training Metrics - logs/FakeNewsNet-politifact_max-vocab=15000_pre=v2_text_T=50_s=5.log</text></g><g class="g-xtitle"><text class="xtitle" x="506" y="537.3" text-anchor="middle" style="font-family: 'Open Sans', verdana, arial, sans-serif; font-size: 14px; fill: rgb(42, 63, 95); opacity: 1; font-weight: normal; white-space: pre;">Epoch</text></g><g class="g-ytitle"><text class="ytitle" transform="rotate(-90,103.965625,298)" x="103.965625" y="298" text-anchor="middle" style="font-family: 'Open Sans', verdana, arial, sans-serif; font-size: 14px; fill: rgb(42, 63, 95); opacity: 1; font-weight: normal; white-space: pre;">Metric Score</text></g></g><g class="menulayer"><g class="updatemenu-container" style="cursor: pointer;"><g class="updatemenu-header-group" transform="translate(12,60)"><g class="updatemenu-header" transform="translate(1,1)" style="pointer-events: all;"><rect class="updatemenu-item-rect" rx="2" ry="2" shape-rendering="crispEdges" x="0" y="0" width="167" height="33" style="stroke: rgb(190, 200, 217); stroke-opacity: 1; fill: rgb(255, 255, 255); fill-opacity: 1; stroke-width: 1px;"/><text class="updatemenu-item-text" text-anchor="start" data-notex="1" x="12" y="19.5" style="font-family: 'Open Sans', verdana, arial, sans-serif; font-size: 12px; fill: rgb(42, 63, 95); fill-opacity: 1; white-space: pre;">All</text></g><text class="updatemenu-header-arrow" text-anchor="end" x="163" y="19.5" style="font-family: 'Open Sans', verdana, arial, sans-serif; font-size: 12px; fill: rgb(42, 63, 95); fill-opacity: 1;">▼</text></g><g class="updatemenu-dropdown-button-group" updatemenu-active-index="-1" style="pointer-events: all;"><rect class="scrollbox-bg" opacity="0" x="0" y="0" width="0" height="0" style="pointer-events: all;"/></g></g></g></svg>