<svg class="main-svg" xmlns="http://www.w3.org/2000/svg" xmlns:xlink="http://www.w3.org/1999/xlink" width="1024" height="576" style="" viewBox="0 0 1024 576"><rect x="0" y="0" width="1024" height="576" style="fill: rgb(255, 255, 255); fill-opacity: 1;"/><defs id="defs-da5630"><g class="clips"><clipPath id="clipda5630xyplot" class="plotclip"><rect width="734" height="396"/></clipPath><clipPath class="axesclip" id="clipda5630x"><rect x="135" y="0" width="734" height="576"/></clipPath><clipPath class="axesclip" id="clipda5630y"><rect x="0" y="100" width="1024" height="396"/></clipPath><clipPath class="axesclip" id="clipda5630xy"><rect x="135" y="100" width="734" height="396"/></clipPath></g><g class="gradients"/><g class="patterns"/></defs><g class="bglayer"><rect class="bg" x="135" y="100" width="734" height="396" style="fill: rgb(229, 236, 246); fill-opacity: 1; stroke-width: 0;"/></g><g class="layer-below"><g class="imagelayer"/><g class="shapelayer"/></g><g class="cartesianlayer"><g class="subplot xy"><g class="layer-subplot"><g class="shapelayer"/><g class="imagelayer"/></g><g class="minor-gridlayer"><g class="x"/><g class="y"/></g><g class="gridlayer"><g class="x"><path class="xgrid crisp" transform="translate(228.6,0)" d="M0,100v396" style="stroke: rgb(255, 255, 255); stroke-opacity: 1; stroke-width: 1px;"/><path class="xgrid crisp" transform="translate(327.12,0)" d="M0,100v396" style="stroke: rgb(255, 255, 255); stroke-opacity: 1; stroke-width: 1px;"/><path class="xgrid crisp" transform="translate(425.64,0)" d="M0,100v396" style="stroke: rgb(255, 255, 255); stroke-opacity: 1; stroke-width: 1px;"/><path class="xgrid crisp" transform="translate(524.1700000000001,0)" d="M0,100v396" style="stroke: rgb(255, 255, 255); stroke-opacity: 1; stroke-width: 1px;"/><path class="xgrid crisp" transform="translate(622.69,0)" d="M0,100v396" style="stroke: rgb(255, 255, 255); stroke-opacity: 1; stroke-width: 1px;"/><path class="xgrid crisp" transform="translate(721.21,0)" d="M0,100v396" style="stroke: rgb(255, 255, 255); stroke-opacity: 1; stroke-width: 1px;"/><path class="xgrid crisp" transform="translate(819.74,0)" d="M0,100v396" style="stroke: rgb(255, 255, 255); stroke-opacity: 1; stroke-width: 1px;"/></g><g class="y"><path class="ygrid crisp" transform="translate(0,449.24)" d="M135,0h734" style="stroke: rgb(255, 255, 255); stroke-opacity: 1; stroke-width: 1px;"/><path class="ygrid crisp" transform="translate(0,395.84)" d="M135,0h734" style="stroke: rgb(255, 255, 255); stroke-opacity: 1; stroke-width: 1px;"/><path class="ygrid crisp" transform="translate(0,342.45)" d="M135,0h734" style="stroke: rgb(255, 255, 255); stroke-opacity: 1; stroke-width: 1px;"/><path class="ygrid crisp" transform="translate(0,289.06)" d="M135,0h734" style="stroke: rgb(255, 255, 255); stroke-opacity: 1; stroke-width: 1px;"/><path class="ygrid crisp" transform="translate(0,235.66)" d="M135,0h734" style="stroke: rgb(255, 255, 255); stroke-opacity: 1; stroke-width: 1px;"/><path class="ygrid crisp" transform="translate(0,182.26999999999998)" d="M135,0h734" style="stroke: rgb(255, 255, 255); stroke-opacity: 1; stroke-width: 1px;"/><path class="ygrid crisp" transform="translate(0,128.88)" d="M135,0h734" style="stroke: rgb(255, 255, 255); stroke-opacity: 1; stroke-width: 1px;"/></g></g><g class="zerolinelayer"/><path class="xlines-below"/><path class="ylines-below"/><g class="overlines-below"/><g class="xaxislayer-below"/><g class="yaxislayer-below"/><g class="overaxes-below"/><g class="plot" transform="translate(135,100)" clip-path="url(#clipda5630xyplot)"><g class="scatterlayer mlayer"><g class="trace scatter traceae1a1c" style="stroke-miterlimit: 2; opacity: 1;"><g class="fills"/><g class="errorbars"/><g class="lines"><path class="js-line" d="M0,184.52L9.85,164.76L14.78,130.06L19.7,120.71L24.63,95.62L29.56,100.42L34.48,67.05L39.41,69.46L44.34,75.86L49.26,67.85L54.19,61.45L59.11,72.13L64.04,47.03L68.97,76.4L73.89,68.39L78.82,58.24L83.74,54.24L88.67,41.42L93.6,40.09L98.52,50.77L103.45,52.9L108.38,42.23L113.3,44.89L118.23,69.99L123.15,31.01L128.08,44.09L133.01,42.23L137.93,57.18L142.86,49.97L147.79,40.89L152.71,46.23L157.64,57.98L162.56,74.8L167.49,67.85L172.42,62.25L177.34,67.59L182.27,50.5L187.19,41.96L192.12,49.97L197.05,55.84L201.97,57.18L206.9,48.9L211.83,53.97L226.6,63.05L231.53,65.18L236.46,48.63L241.38,69.99L246.31,66.52L251.23,61.18L256.16,49.7L261.09,43.29L266.01,41.96L270.94,49.97L275.87,64.38L280.79,41.96L285.72,38.49L290.64,52.37L295.57,46.5L300.5,35.02L305.42,47.03L310.35,44.36L315.28,42.23L320.2,65.72L325.13,71.06L330.05,68.39L334.98,47.83L339.91,56.11L344.83,56.91L349.76,53.44L354.68,53.97L359.61,67.59L364.54,58.51L369.46,54.77L374.39,63.32L379.32,58.24L384.24,53.17L389.17,60.91L394.09,55.04L399.02,72.66L403.95,52.1L408.87,46.76L413.8,55.84L418.72,41.16L423.65,57.18L428.58,55.84L433.5,57.44L438.43,62.25L443.36,54.51L448.28,57.44L453.21,45.43L458.13,46.5L463.06,48.63L467.99,39.02L472.91,41.69L477.84,39.02L482.77,36.89L487.69,47.03L492.62,31.28L497.54,38.75L502.47,38.75L507.4,41.16L512.32,40.89L517.25,48.1L522.17,64.12L527.1,42.23L532.03,41.42L536.95,44.36L541.88,48.9L546.81,34.75L551.73,37.69L556.66,52.9L561.58,43.56L566.51,37.69L571.44,36.08L576.36,47.83L581.29,61.45L586.21,47.83L591.14,52.37L596.07,48.9L600.99,35.55L605.92,39.56L610.85,39.82L615.77,51.04L620.7,58.51L625.62,54.77L635.48,40.36L640.4,43.56L650.26,19.8L655.18,23.54L660.11,33.95L665.03,39.82L669.96,44.89L674.89,52.1L679.81,46.5L684.74,51.57L689.66,69.72L694.59,45.43L699.52,41.96L704.44,50.77L709.37,30.75L714.3,48.9L719.22,40.62L724.15,40.89L729.07,30.48L734,45.16" style="vector-effect: none; fill: none; stroke: rgb(255, 0, 0); stroke-opacity: 1; stroke-width: 2px; opacity: 1;"/></g><g class="points"/><g class="text"/></g><g class="trace scatter tracea8f46d" style="stroke-miterlimit: 2; opacity: 1;"><g class="fills"/><g class="errorbars"/><g class="lines"><path class="js-line" d="M0,227.5L9.85,179.18L14.78,161.03L19.7,151.41L24.63,124.18L29.56,134.6L34.48,97.22L39.41,100.69L44.34,90.55L49.26,99.09L54.19,95.35L59.11,112.97L64.04,84.41L68.97,124.18L73.89,108.7L78.82,111.1L83.74,114.57L88.67,91.88L93.6,80.4L98.52,94.28L103.45,95.35L108.38,92.41L113.3,88.14L118.23,118.31L123.15,86.27L128.08,104.43L133.01,91.08L137.93,104.43L142.86,103.09L147.79,94.28L152.71,106.83L162.56,123.65L167.49,114.57L172.42,110.57L177.34,111.64L182.27,103.89L187.19,112.97L192.12,108.7L197.05,123.65L201.97,104.96L206.9,113.51L211.83,109.77L216.75,116.98L221.68,126.59L226.6,126.05L231.53,130.86L236.46,103.89L241.38,124.98L246.31,124.18L251.23,127.92L256.16,105.5L261.09,100.69L266.01,106.3L270.94,97.75L275.87,114.04L280.79,94.28L285.72,87.61L290.64,106.83L295.57,96.69L300.5,83.34L305.42,99.09L310.35,96.69L315.28,82.8L320.2,117.78L325.13,130.32L330.05,125.52L334.98,79.6L339.91,86.27L344.83,112.97L349.76,99.09L354.68,107.36L359.61,114.04L364.54,111.64L369.46,115.37L374.39,117.78L379.32,105.5L384.24,112.17L389.17,111.64L394.09,102.56L399.02,123.65L403.95,97.75L408.87,96.69L413.8,115.37L418.72,93.48L423.65,114.57L428.58,103.89L433.5,103.09L438.43,106.83L443.36,106.3L448.28,106.3L453.21,95.89L463.06,95.89L467.99,78.53L472.91,90.01L477.84,83.34L482.77,86.27L487.69,88.14L492.62,76.13L497.54,83.87L502.47,84.41L507.4,92.41L512.32,93.48L517.25,95.35L522.17,105.5L527.1,93.48L532.03,90.01L536.95,88.14L541.88,95.89L546.81,84.41L551.73,95.35L556.66,115.91L566.51,95.35L571.44,86.81L576.36,107.9L581.29,123.12L586.21,104.96L591.14,97.22L596.07,104.96L600.99,89.21L605.92,91.88L610.85,93.48L615.77,118.31L620.7,118.31L625.62,112.17L630.55,107.9L635.48,82.8L640.4,100.69L645.33,79.07L650.26,70.52L655.18,76.66L660.11,96.69L665.03,94.82L669.96,100.69L674.89,109.23L679.81,104.96L684.74,120.18L689.66,123.65L694.59,98.29L699.52,94.28L704.44,100.16L709.37,90.55L719.22,104.96L724.15,99.62L734,111.1" style="vector-effect: none; fill: none; stroke: rgb(0, 0, 255); stroke-opacity: 1; stroke-width: 2px; opacity: 1;"/></g><g class="points"/><g class="text"/></g><g class="trace scatter tracef1e2fb" style="stroke-miterlimit: 2; opacity: 1;"><g class="fills"/><g class="errorbars"/><g class="lines"><path class="js-line" d="M0,350.3L4.93,343.36L9.85,345.23L14.78,322.54L19.7,314L24.63,290.77L29.56,291.3L34.48,265.41L39.41,271.82L44.34,276.62L49.26,267.28L54.19,266.48L59.11,270.75L64.04,257.13L68.97,273.15L83.74,256.07L88.67,243.52L93.6,243.25L98.52,252.33L103.45,253.4L108.38,244.32L113.3,247.26L118.23,260.87L123.15,230.7L128.08,243.25L133.01,242.18L137.93,248.32L147.79,238.98L152.71,245.39L157.64,253.4L162.56,263.81L167.49,253.93L172.42,249.66L177.34,255L182.27,246.45L187.19,239.78L192.12,245.39L197.05,248.32L201.97,249.12L206.9,243.52L211.83,248.59L216.75,248.59L221.68,252.59L226.6,250.46L231.53,251.79L236.46,244.05L241.38,254.73L251.23,251.26L256.16,244.85L266.01,236.58L270.94,241.38L275.87,251.53L280.79,237.64L285.72,233.91L290.64,243.78L295.57,240.58L300.5,231.77L305.42,238.71L310.35,238.18L315.28,236.31L320.2,251.26L325.13,253.93L330.05,254.73L334.98,243.25L339.91,248.06L344.83,244.59L349.76,244.32L354.68,242.45L359.61,251.53L364.54,245.92L369.46,243.78L374.39,249.12L379.32,247.52L384.24,242.72L389.17,246.45L394.09,245.12L399.02,252.86L403.95,238.71L408.87,237.11L413.8,239.78L418.72,230.44L423.65,240.31L428.58,240.31L433.5,242.45L438.43,243.52L443.36,239.51L448.28,242.45L453.21,235.51L458.13,234.71L463.06,236.58L467.99,230.97L472.91,233.64L477.84,231.5L482.77,232.04L487.69,235.51L492.62,226.97L497.54,230.44L502.47,230.97L507.4,233.37L512.32,229.9L517.25,237.91L522.17,247.52L527.1,233.11L532.03,232.31L536.95,234.17L541.88,239.51L546.81,227.23L551.73,231.5L556.66,240.05L561.58,234.97L566.51,231.24L571.44,228.83L576.36,236.31L581.29,245.65L586.21,238.45L591.14,243.78L596.07,240.05L600.99,228.83L605.92,233.91L610.85,234.44L615.77,242.18L620.7,249.12L625.62,247.52L630.55,241.65L635.48,238.98L640.4,238.18L645.33,228.57L650.26,223.76L655.18,225.1L660.11,230.44L665.03,234.44L669.96,236.31L674.89,242.72L679.81,241.65L684.74,244.32L689.66,257.13L694.59,240.31L699.52,236.04L704.44,241.65L709.37,226.7L714.3,240.58L719.22,233.91L724.15,233.91L729.07,227.23L734,238.18" style="vector-effect: none; fill: none; stroke: rgb(0, 128, 0); stroke-opacity: 1; stroke-width: 2px; opacity: 1;"/></g><g class="points"/><g class="text"/></g><g class="trace scatter trace63e65d" style="stroke-miterlimit: 2; opacity: 1;"><g class="fills"/><g class="errorbars"/><g class="lines"><path class="js-line" d="M0,376.2L4.93,359.65L9.85,348.44L19.7,330.28L24.63,311.33L29.56,311.06L34.48,282.49L39.41,293.71L44.34,284.9L49.26,287.57L54.19,293.71L59.11,305.19L64.04,289.17L68.97,312.93L73.89,302.25L78.82,307.86L83.74,311.59L88.67,291.04L93.6,280.36L98.52,289.44L103.45,288.9L108.38,291.04L113.3,286.77L118.23,301.72L123.15,282.49L128.08,297.44L133.01,284.63L142.86,286.77L147.79,283.56L152.71,294.51L157.64,299.58L162.56,300.38L167.49,286.23L172.42,283.56L177.34,283.83L182.27,286.23L187.19,298.51L192.12,291.04L197.05,304.65L201.97,287.83L206.9,298.78L211.83,296.91L216.75,299.05L221.68,309.73L226.6,302.52L231.53,308.39L236.46,292.64L241.38,301.98L246.31,299.85L251.23,308.12L256.16,291.57L261.09,291.04L266.01,291.57L270.94,280.09L275.87,290.77L285.72,273.42L290.64,288.64L295.57,284.36L300.5,273.42L305.42,285.43L310.35,284.1L315.28,270.21L320.2,295.58L325.13,303.59L330.05,303.85L334.98,270.75L339.91,272.08L344.83,293.71L349.76,280.63L354.68,285.7L359.61,289.17L364.54,289.7L369.46,293.71L374.39,294.51L379.32,288.37L384.24,295.31L389.17,292.64L394.09,288.9L399.02,293.97L403.95,277.42L408.87,278.76L413.8,290.5L418.72,279.29L423.65,291.3L428.58,283.83L438.43,283.3L443.36,285.97L448.28,285.7L453.21,281.16L458.13,283.56L463.06,281.16L467.99,266.74L472.91,276.35L477.84,269.95L482.77,274.49L487.69,272.88L492.62,268.61L497.54,272.35L502.47,274.75L507.4,280.89L512.32,278.49L522.17,283.83L527.1,279.29L532.03,275.02L536.95,273.68L541.88,283.03L546.81,272.62L551.73,284.9L556.66,295.04L561.58,292.37L566.51,285.43L571.44,275.02L576.36,289.44L581.29,295.58L586.21,285.16L591.14,279.56L596.07,287.83L600.99,276.09L605.92,276.62L610.85,279.29L615.77,296.91L625.62,294.78L630.55,292.64L635.48,277.69L640.4,290.24L645.33,274.22L650.26,271.28L655.18,275.29L660.11,285.97L665.03,283.03L669.96,282.23L674.89,290.77L679.81,292.37L684.74,300.11L689.66,298.25L694.59,284.63L699.52,280.09L704.44,281.69L709.37,279.83L714.3,280.89L719.22,293.97L724.15,286.77L729.07,295.58L734,295.84" style="vector-effect: none; fill: none; stroke: rgb(255, 165, 0); stroke-opacity: 1; stroke-width: 2px; opacity: 1;"/></g><g class="points"/><g class="text"/></g><g class="trace scatter trace2af259" style="stroke-miterlimit: 2; opacity: 1;"><g class="fills"/><g class="errorbars"/><g class="lines"><path class="js-line" d="M0,253.4L4.93,246.99L9.85,256.6L14.78,240.85L19.7,232.04L24.63,209.88L29.56,205.34L34.48,187.99L39.41,200L44.34,202.4L49.26,191.46L54.19,198.93L59.11,193.86L64.04,199.47L68.97,193.33L73.89,191.73L78.82,191.46L83.74,184.25L88.67,173.57L93.6,175.98L98.52,181.05L103.45,179.98L108.38,174.64L113.3,177.84L118.23,173.31L123.15,158.62L128.08,168.77L133.01,169.3L137.93,161.29L142.86,160.22L147.79,162.89L152.71,170.9L157.64,172.5L162.56,174.64L167.49,160.49L172.42,157.55L177.34,163.16L182.27,166.36L187.19,163.43L192.12,165.3L197.05,163.16L201.97,163.43L206.9,161.83L211.83,166.63L216.75,162.36L221.68,167.17L226.6,158.62L231.53,158.89L236.46,163.69L241.38,159.96L246.31,159.42L251.23,162.89L256.16,163.96L261.09,162.89L266.01,155.15L270.94,154.88L275.87,159.42L280.79,157.82L285.72,154.08L290.64,157.29L295.57,158.09L300.5,154.35L305.42,153.02L310.35,155.69L315.28,154.35L320.2,156.75L325.13,156.49L330.05,161.56L334.98,162.89L339.91,162.36L344.83,153.02L349.76,156.75L354.68,151.41L359.61,155.42L364.54,153.55L369.46,153.55L374.39,155.42L379.32,157.82L384.24,153.28L389.17,151.95L394.09,157.02L399.02,152.22L403.95,145.81L408.87,149.01L413.8,143.14L418.72,141L423.65,142.6L428.58,143.94L433.5,147.14L438.43,143.67L443.36,144.21L448.28,146.61L453.21,147.14L458.13,143.67L463.06,145.27L467.99,146.08L472.91,148.21L477.84,147.14L482.77,151.68L487.69,144.74L492.62,147.94L497.54,145.01L502.47,146.08L507.4,148.74L512.32,140.2L517.25,149.55L522.17,150.88L527.1,145.81L532.03,145.27L536.95,145.54L541.88,151.95L546.81,142.87L551.73,149.55L556.66,147.14L561.58,148.21L566.51,148.48L571.44,145.27L576.36,145.54L581.29,149.28L586.21,150.88L591.14,157.29L596.07,153.28L600.99,145.54L605.92,152.48L610.85,153.28L615.77,155.15L620.7,161.56L625.62,163.16L630.55,158.36L635.48,164.23L640.4,156.49L645.33,153.55L650.26,161.83L655.18,157.82L660.11,152.75L665.03,153.55L669.96,149.55L679.81,160.76L684.74,159.42L689.66,165.56L694.59,159.16L699.52,154.08L704.44,154.35L709.37,148.74L714.3,154.62L719.22,150.61L724.15,150.08L729.07,150.61L734,154.35" style="vector-effect: none; fill: none; stroke: rgb(128, 0, 128); stroke-opacity: 1; stroke-width: 2px; opacity: 1;"/></g><g class="points"/><g class="text"/></g><g class="trace scatter trace5d3eec" style="stroke-miterlimit: 2; opacity: 1;"><g class="fills"/><g class="errorbars"/><g class="lines"><path class="js-line" d="M0,277.42L4.93,259.8L9.85,254.2L14.78,248.32L19.7,239.25L24.63,224.83L29.56,215.49L34.48,191.73L39.41,212.02L44.34,204.27L49.26,200.54L54.19,217.89L59.11,223.23L64.04,221.63L68.97,228.3L73.89,221.36L78.82,230.7L83.74,234.71L88.67,216.29L93.6,206.94L98.52,210.15L103.45,207.48L108.38,215.75L113.3,211.21L118.23,210.68L123.15,204.01L128.08,216.02L137.93,191.19L142.86,194.66L147.79,197.33L152.71,207.48L157.64,209.88L162.56,203.21L167.49,182.65L172.42,180.78L177.34,180.78L182.27,192.53L187.19,209.61L192.12,198.4L197.05,211.75L201.97,195.2L206.9,209.08L211.83,209.35L216.75,206.41L221.68,219.76L226.6,205.61L231.53,213.08L236.46,206.14L241.38,205.61L246.31,201.87L251.23,215.22L256.16,202.4L261.09,205.88L266.01,201.87L270.94,186.12L275.87,192.53L280.79,195.73L285.72,182.65L290.64,194.66L295.57,196.26L300.5,187.72L305.42,196.26L310.35,195.46L315.28,181.31L320.2,199.2L330.05,208.55L334.98,186.12L339.91,181.05L344.83,199.47L349.76,186.12L354.68,188.26L359.61,189.06L364.54,192.53L369.46,197.6L374.39,196.53L379.32,195.46L384.24,203.21L389.17,198.67L394.09,199.47L403.95,179.98L408.87,184.52L413.8,190.66L418.72,188.52L423.65,192.79L428.58,187.45L433.5,187.99L438.43,183.45L443.36,189.86L448.28,189.06L453.21,189.86L458.13,195.2L463.06,189.86L467.99,178.38L472.91,186.12L477.84,179.98L482.77,186.12L487.69,180.51L492.62,185.32L497.54,184.52L507.4,193.6L512.32,186.65L517.25,190.39L522.17,186.12L527.1,188.52L532.03,183.45L536.95,182.38L541.88,194.13L546.81,184.25L551.73,198.93L556.66,199.74L561.58,204.54L566.51,199.74L571.44,186.65L576.36,195.46L581.29,194.13L586.21,189.06L591.14,185.59L596.07,195.2L600.99,186.39L605.92,184.52L610.85,188.52L615.77,201.34L620.7,198.67L625.62,202.4L630.55,202.14L635.48,197.6L640.4,204.27L645.33,194.13L650.26,198.93L655.18,200.27L660.11,199.74L665.03,195.2L669.96,187.19L674.89,197.07L679.81,204.54L684.74,205.88L689.66,198.93L694.59,194.93L699.52,189.59L704.44,186.65L709.37,193.33L714.3,187.72L719.22,208.01L724.15,198.4L729.07,211.21L734,205.88" style="vector-effect: none; fill: none; stroke: rgb(255, 192, 203); stroke-opacity: 1; stroke-width: 2px; opacity: 1;"/></g><g class="points"/><g class="text"/></g><g class="trace scatter trace71a30d" style="stroke-miterlimit: 2; opacity: 1;"><g class="fills"/><g class="errorbars"/><g class="lines"><path class="js-line" d="M0,336.96L4.93,328.15L9.85,327.88L14.78,301.72L19.7,292.37L24.63,267.28L29.56,267.54L34.48,240.58L39.41,247.79L44.34,252.59L49.26,242.45L54.19,242.98L59.11,246.19L64.04,235.51L68.97,248.32L83.74,231.5L88.67,218.69L93.6,218.96L98.52,227.77L103.45,228.3L108.38,219.76L113.3,222.69L118.23,234.71L123.15,205.07L128.08,217.62L133.01,216.82L137.93,221.63L147.79,212.82L152.71,220.02L157.64,227.5L162.56,238.18L167.49,227.23L172.42,222.69L177.34,228.57L182.27,220.29L187.19,213.62L192.12,219.22L197.05,221.63L201.97,222.69L206.9,216.82L211.83,222.16L216.75,221.89L221.68,226.16L226.6,223.5L231.53,225.1L236.46,217.62L241.38,228.3L251.23,224.56L256.16,218.42L266.01,209.61L270.94,214.15L275.87,224.83L280.79,210.95L285.72,207.21L290.64,216.55L295.57,213.62L300.5,205.07L305.42,211.48L310.35,211.48L315.28,209.35L320.2,224.3L325.13,227.23L330.05,228.3L334.98,216.82L339.91,221.36L344.83,217.36L349.76,217.09L354.68,214.95L359.61,224.83L364.54,218.69L369.46,216.29L374.39,222.16L379.32,220.56L384.24,215.22L389.17,219.22L394.09,218.16L399.02,226.16L403.95,211.21L408.87,209.61L413.8,212.02L418.72,202.4L423.65,212.55L428.58,212.55L433.5,214.95L438.43,216.29L443.36,211.75L448.28,214.69L453.21,207.74L458.13,206.68L463.06,208.81L467.99,203.47L472.91,206.14L477.84,204.01L482.77,205.07L487.69,207.48L492.62,199.74L497.54,202.94L502.47,203.47L507.4,206.14L512.32,201.87L517.25,210.41L522.17,220.56L527.1,205.34L532.03,204.54L536.95,206.41L541.88,212.28L546.81,199.47L551.73,204.27L556.66,212.28L561.58,207.21L566.51,204.01L571.44,201.34L576.36,208.55L581.29,218.42L586.21,210.95L591.14,216.82L596.07,212.82L600.99,201.34L605.92,206.94L610.85,207.48L615.77,214.95L620.7,222.43L625.62,221.09L630.55,214.95L635.48,213.35L640.4,211.21L645.33,202.4L650.26,200.27L655.18,200.27L665.03,207.74L669.96,208.81L674.89,215.49L679.81,214.95L684.74,217.36L689.66,230.7L694.59,213.62L699.52,209.08L704.44,214.42L709.37,200L714.3,213.35L719.22,206.68L724.15,206.41L729.07,200.8L734,211.21" style="vector-effect: none; fill: none; stroke: rgb(165, 42, 42); stroke-opacity: 1; stroke-width: 2px; opacity: 1;"/></g><g class="points"/><g class="text"/></g><g class="trace scatter trace6399b3" style="stroke-miterlimit: 2; opacity: 1;"><g class="fills"/><g class="errorbars"/><g class="lines"><path class="js-line" d="M0,370.59L4.93,350.04L9.85,333.75L14.78,321.2L19.7,311.59L24.63,289.7L29.56,290.77L34.48,258.47L39.41,270.48L44.34,261.14L49.26,263.81L54.19,270.48L59.11,282.76L64.04,266.74L68.97,291.57L73.89,279.56L78.82,285.7L83.74,289.7L88.67,267.81L93.6,256.87L98.52,265.94L103.45,265.41L108.38,267.81L113.3,263.27L118.23,279.56L123.15,258.73L128.08,274.49L133.01,260.6L137.93,262.21L142.86,263.27L147.79,259.54L152.71,271.55L157.64,277.16L162.56,278.76L167.49,264.07L172.42,260.87L177.34,261.4L182.27,262.74L187.19,276.09L192.12,268.08L197.05,283.03L201.97,264.61L206.9,276.09L211.83,274.22L216.75,276.62L221.68,288.37L226.6,281.43L231.53,287.57L236.46,269.41L241.38,280.63L246.31,278.49L251.23,287.03L256.16,268.35L261.09,267.54L266.01,268.35L270.94,256.07L275.87,268.35L285.72,248.59L290.64,265.14L295.57,260.34L300.5,248.59L305.42,261.67L310.35,260.07L315.28,245.12L320.2,273.68L325.13,283.03L330.05,282.49L334.98,245.92L339.91,247.26L344.83,271.02L349.76,256.6L354.68,262.47L359.61,266.74L364.54,267.01L369.46,271.55L374.39,272.35L379.32,265.14L384.24,272.62L389.17,269.95L394.09,265.41L399.02,272.88L403.95,253.13L408.87,254.46L413.8,268.35L418.72,254.73L423.65,268.88L428.58,260.07L438.43,260.07L443.36,262.74L448.28,262.21L453.21,256.87L458.13,259.54L463.06,256.87L467.99,241.38L472.91,251.53L477.84,244.85L482.77,249.66L487.69,248.06L492.62,243.52L497.54,247.52L502.47,250.19L507.4,256.6L512.32,253.93L522.17,260.6L527.1,254.73L532.03,250.46L536.95,248.86L541.88,259L546.81,247.52L556.66,272.88L561.58,269.15L566.51,261.4L571.44,250.19L576.36,266.21L581.29,274.22L586.21,261.67L591.14,255.53L596.07,264.61L600.99,251.53L605.92,252.06L610.85,254.73L615.77,275.02L620.7,273.68L625.62,272.08L630.55,269.68L635.48,253.13L640.4,266.74L645.33,249.66L650.26,247.26L655.18,251.26L660.11,262.21L665.03,258.73L669.96,258.2L674.89,267.81L679.81,269.15L684.74,278.22L689.66,276.89L694.59,260.6L699.52,255.8L704.44,257.67L709.37,255.53L714.3,256.87L719.22,270.75L724.15,263.01L729.07,272.62L734,273.15" style="vector-effect: none; fill: none; stroke: rgb(128, 128, 128); stroke-opacity: 1; stroke-width: 2px; opacity: 1;"/></g><g class="points"/><g class="text"/></g></g></g><g class="overplot"/><path class="xlines-above crisp" d="M0,0" style="fill: none;"/><path class="ylines-above crisp" d="M0,0" style="fill: none;"/><g class="overlines-above"/><g class="xaxislayer-above"><g class="xtick"><text text-anchor="middle" x="0" y="509" transform="translate(228.6,0)" style="font-family: 'Open Sans', verdana, arial, sans-serif; font-size: 12px; fill: rgb(42, 63, 95); fill-opacity: 1; white-space: pre; opacity: 1;">20</text></g><g class="xtick"><text text-anchor="middle" x="0" y="509" style="font-family: 'Open Sans', verdana, arial, sans-serif; font-size: 12px; fill: rgb(42, 63, 95); fill-opacity: 1; white-space: pre; opacity: 1;" transform="translate(327.12,0)">40</text></g><g class="xtick"><text text-anchor="middle" x="0" y="509" style="font-family: 'Open Sans', verdana, arial, sans-serif; font-size: 12px; fill: rgb(42, 63, 95); fill-opacity: 1; white-space: pre; opacity: 1;" transform="translate(425.64,0)">60</text></g><g class="xtick"><text text-anchor="middle" x="0" y="509" style="font-family: 'Open Sans', verdana, arial, sans-serif; font-size: 12px; fill: rgb(42, 63, 95); fill-opacity: 1; white-space: pre; opacity: 1;" transform="translate(524.1700000000001,0)">80</text></g><g class="xtick"><text text-anchor="middle" x="0" y="509" style="font-family: 'Open Sans', verdana, arial, sans-serif; font-size: 12px; fill: rgb(42, 63, 95); fill-opacity: 1; white-space: pre; opacity: 1;" transform="translate(622.69,0)">100</text></g><g class="xtick"><text text-anchor="middle" x="0" y="509" style="font-family: 'Open Sans', verdana, arial, sans-serif; font-size: 12px; fill: rgb(42, 63, 95); fill-opacity: 1; white-space: pre; opacity: 1;" transform="translate(721.21,0)">120</text></g><g class="xtick"><text text-anchor="middle" x="0" y="509" style="font-family: 'Open Sans', verdana, arial, sans-serif; font-size: 12px; fill: rgb(42, 63, 95); fill-opacity: 1; white-space: pre; opacity: 1;" transform="translate(819.74,0)">140</text></g></g><g class="yaxislayer-above"><g class="ytick"><text text-anchor="end" x="134" y="4.199999999999999" transform="translate(0,449.24)" style="font-family: 'Open Sans', verdana, arial, sans-serif; font-size: 12px; fill: rgb(42, 63, 95); fill-opacity: 1; white-space: pre; opacity: 1;">64</text></g><g class="ytick"><text text-anchor="end" x="134" y="4.199999999999999" style="font-family: 'Open Sans', verdana, arial, sans-serif; font-size: 12px; fill: rgb(42, 63, 95); fill-opacity: 1; white-space: pre; opacity: 1;" transform="translate(0,395.84)">66</text></g><g class="ytick"><text text-anchor="end" x="134" y="4.199999999999999" style="font-family: 'Open Sans', verdana, arial, sans-serif; font-size: 12px; fill: rgb(42, 63, 95); fill-opacity: 1; white-space: pre; opacity: 1;" transform="translate(0,342.45)">68</text></g><g class="ytick"><text text-anchor="end" x="134" y="4.199999999999999" style="font-family: 'Open Sans', verdana, arial, sans-serif; font-size: 12px; fill: rgb(42, 63, 95); fill-opacity: 1; white-space: pre; opacity: 1;" transform="translate(0,289.06)">70</text></g><g class="ytick"><text text-anchor="end" x="134" y="4.199999999999999" style="font-family: 'Open Sans', verdana, arial, sans-serif; font-size: 12px; fill: rgb(42, 63, 95); fill-opacity: 1; white-space: pre; opacity: 1;" transform="translate(0,235.66)">72</text></g><g class="ytick"><text text-anchor="end" x="134" y="4.199999999999999" style="font-family: 'Open Sans', verdana, arial, sans-serif; font-size: 12px; fill: rgb(42, 63, 95); fill-opacity: 1; white-space: pre; opacity: 1;" transform="translate(0,182.26999999999998)">74</text></g><g class="ytick"><text text-anchor="end" x="134" y="4.199999999999999" style="font-family: 'Open Sans', verdana, arial, sans-serif; font-size: 12px; fill: rgb(42, 63, 95); fill-opacity: 1; white-space: pre; opacity: 1;" transform="translate(0,128.88)">76</text></g></g><g class="overaxes-above"/></g></g><g class="polarlayer"/><g class="smithlayer"/><g class="ternarylayer"/><g class="geolayer"/><g class="funnelarealayer"/><g class="pielayer"/><g class="iciclelayer"/><g class="treemaplayer"/><g class="sunburstlayer"/><g class="glimages"/><defs id="topdefs-da5630"><g class="clips"/><clipPath id="legendda5630"><rect width="128" height="162" x="0" y="0"/></clipPath></defs><g class="layer-above"><g class="imagelayer"/><g class="shapelayer"/></g><g class="infolayer"><g class="legend" pointer-events="all" transform="translate(883.6800000000001,100)"><rect class="bg" shape-rendering="crispEdges" width="128" height="162" x="0" y="0" style="stroke: rgb(68, 68, 68); stroke-opacity: 1; fill: rgb(255, 255, 255); fill-opacity: 1; stroke-width: 0px;"/><g class="scrollbox" transform="" clip-path="url(#legendda5630)"><g class="groups"><g class="traces" transform="translate(0,14.5)" style="opacity: 1;"><text class="legendtext" text-anchor="start" x="40" y="4.680000000000001" style="font-family: 'Open Sans', verdana, arial, sans-serif; font-size: 12px; fill: rgb(42, 63, 95); fill-opacity: 1; white-space: pre;">Train Accuracy</text><g class="layers" style="opacity: 1;"><g class="legendfill"/><g class="legendlines"><path class="js-line" d="M5,0h30" style="fill: none; stroke: rgb(255, 0, 0); stroke-opacity: 1; stroke-width: 2px;"/></g><g class="legendsymbols"><g class="legendpoints"/></g></g><rect class="legendtoggle" x="0" y="-9.5" width="122.71875" height="19" style="fill: rgb(0, 0, 0); fill-opacity: 0;"/></g><g class="traces" transform="translate(0,33.5)" style="opacity: 1;"><text class="legendtext" text-anchor="start" x="40" y="4.680000000000001" style="font-family: 'Open Sans', verdana, arial, sans-serif; font-size: 12px; fill: rgb(42, 63, 95); fill-opacity: 1; white-space: pre;">Test Accuracy</text><g class="layers" style="opacity: 1;"><g class="legendfill"/><g class="legendlines"><path class="js-line" d="M5,0h30" style="fill: none; stroke: rgb(0, 0, 255); stroke-opacity: 1; stroke-width: 2px;"/></g><g class="legendsymbols"><g class="legendpoints"/></g></g><rect class="legendtoggle" x="0" y="-9.5" width="122.71875" height="19" style="fill: rgb(0, 0, 0); fill-opacity: 0;"/></g><g class="traces" transform="translate(0,52.5)" style="opacity: 1;"><text class="legendtext" text-anchor="start" x="40" y="4.680000000000001" style="font-family: 'Open Sans', verdana, arial, sans-serif; font-size: 12px; fill: rgb(42, 63, 95); fill-opacity: 1; white-space: pre;">Train Precision</text><g class="layers" style="opacity: 1;"><g class="legendfill"/><g class="legendlines"><path class="js-line" d="M5,0h30" style="fill: none; stroke: rgb(0, 128, 0); stroke-opacity: 1; stroke-width: 2px;"/></g><g class="legendsymbols"><g class="legendpoints"/></g></g><rect class="legendtoggle" x="0" y="-9.5" width="122.71875" height="19" style="fill: rgb(0, 0, 0); fill-opacity: 0;"/></g><g class="traces" transform="translate(0,71.5)" style="opacity: 1;"><text class="legendtext" text-anchor="start" x="40" y="4.680000000000001" style="font-family: 'Open Sans', verdana, arial, sans-serif; font-size: 12px; fill: rgb(42, 63, 95); fill-opacity: 1; white-space: pre;">Test Precision</text><g class="layers" style="opacity: 1;"><g class="legendfill"/><g class="legendlines"><path class="js-line" d="M5,0h30" style="fill: none; stroke: rgb(255, 165, 0); stroke-opacity: 1; stroke-width: 2px;"/></g><g class="legendsymbols"><g class="legendpoints"/></g></g><rect class="legendtoggle" x="0" y="-9.5" width="122.71875" height="19" style="fill: rgb(0, 0, 0); fill-opacity: 0;"/></g><g class="traces" transform="translate(0,90.5)" style="opacity: 1;"><text class="legendtext" text-anchor="start" x="40" y="4.680000000000001" style="font-family: 'Open Sans', verdana, arial, sans-serif; font-size: 12px; fill: rgb(42, 63, 95); fill-opacity: 1; white-space: pre;">Train Recall</text><g class="layers" style="opacity: 1;"><g class="legendfill"/><g class="legendlines"><path class="js-line" d="M5,0h30" style="fill: none; stroke: rgb(128, 0, 128); stroke-opacity: 1; stroke-width: 2px;"/></g><g class="legendsymbols"><g class="legendpoints"/></g></g><rect class="legendtoggle" x="0" y="-9.5" width="122.71875" height="19" style="fill: rgb(0, 0, 0); fill-opacity: 0;"/></g><g class="traces" transform="translate(0,109.5)" style="opacity: 1;"><text class="legendtext" text-anchor="start" x="40" y="4.680000000000001" style="font-family: 'Open Sans', verdana, arial, sans-serif; font-size: 12px; fill: rgb(42, 63, 95); fill-opacity: 1; white-space: pre;">Test Recall</text><g class="layers" style="opacity: 1;"><g class="legendfill"/><g class="legendlines"><path class="js-line" d="M5,0h30" style="fill: none; stroke: rgb(255, 192, 203); stroke-opacity: 1; stroke-width: 2px;"/></g><g class="legendsymbols"><g class="legendpoints"/></g></g><rect class="legendtoggle" x="0" y="-9.5" width="122.71875" height="19" style="fill: rgb(0, 0, 0); fill-opacity: 0;"/></g><g class="traces" transform="translate(0,128.5)" style="opacity: 1;"><text class="legendtext" text-anchor="start" x="40" y="4.680000000000001" style="font-family: 'Open Sans', verdana, arial, sans-serif; font-size: 12px; fill: rgb(42, 63, 95); fill-opacity: 1; white-space: pre;">Train F1</text><g class="layers" style="opacity: 1;"><g class="legendfill"/><g class="legendlines"><path class="js-line" d="M5,0h30" style="fill: none; stroke: rgb(165, 42, 42); stroke-opacity: 1; stroke-width: 2px;"/></g><g class="legendsymbols"><g class="legendpoints"/></g></g><rect class="legendtoggle" x="0" y="-9.5" width="122.71875" height="19" style="fill: rgb(0, 0, 0); fill-opacity: 0;"/></g><g class="traces" transform="translate(0,147.5)" style="opacity: 1;"><text class="legendtext" text-anchor="start" x="40" y="4.680000000000001" style="font-family: 'Open Sans', verdana, arial, sans-serif; font-size: 12px; fill: rgb(42, 63, 95); fill-opacity: 1; white-space: pre;">Test F1</text><g class="layers" style="opacity: 1;"><g class="legendfill"/><g class="legendlines"><path class="js-line" d="M5,0h30" style="fill: none; stroke: rgb(128, 128, 128); stroke-opacity: 1; stroke-width: 2px;"/></g><g class="legendsymbols"><g class="legendpoints"/></g></g><rect class="legendtoggle" x="0" y="-9.5" width="122.71875" height="19" style="fill: rgb(0, 0, 0); fill-opacity: 0;"/></g></g></g><rect class="scrollbar" rx="20" ry="3" width="0" height="0" x="0" y="0" style="fill: rgb(128, 139, 164); fill-opacity: 1;"/></g><g class="g-gtitle"><text class="gtitle" x="51.2" y="50" text-anchor="start" dy="0em" style="font-family: 'Open Sans', verdana, arial, sans-serif; font-size: 17px; fill: rgb(42, 63, 95); opacity: 1; font-weight: normal; white-space: pre;">Training Metrics - logs/FakeNewsNet-gossipcop_max-vocab=10000_pre=v1_domain_T=250_s=10.log</text></g><g class="g-xtitle"><text class="xtitle" x="502" y="537.3" text-anchor="middle" style="font-family: 'Open Sans', verdana, arial, sans-serif; font-size: 14px; fill: rgb(42, 63, 95); opacity: 1; font-weight: normal; white-space: pre;">Epoch</text></g><g class="g-ytitle"><text class="ytitle" transform="rotate(-90,95.965625,298)" x="95.965625" y="298" text-anchor="middle" style="font-family: 'Open Sans', verdana, arial, sans-serif; font-size: 14px; fill: rgb(42, 63, 95); opacity: 1; font-weight: normal; white-space: pre;">Metric Score</text></g></g><g class="menulayer"><g class="updatemenu-container" style="cursor: pointer;"><g class="updatemenu-header-group" transform="translate(12,60)"><g class="updatemenu-header" transform="translate(1,1)" style="pointer-events: all;"><rect class="updatemenu-item-rect" rx="2" ry="2" shape-rendering="crispEdges" x="0" y="0" width="160" height="33" style="stroke: rgb(190, 200, 217); stroke-opacity: 1; fill: rgb(255, 255, 255); fill-opacity: 1; stroke-width: 1px;"/><text class="updatemenu-item-text" text-anchor="start" data-notex="1" x="12" y="19.5" style="font-family: 'Open Sans', verdana, arial, sans-serif; font-size: 12px; fill: rgb(42, 63, 95); fill-opacity: 1; white-space: pre;">All</text></g><text class="updatemenu-header-arrow" text-anchor="end" x="156" y="19.5" style="font-family: 'Open Sans', verdana, arial, sans-serif; font-size: 12px; fill: rgb(42, 63, 95); fill-opacity: 1;">▼</text></g><g class="updatemenu-dropdown-button-group" updatemenu-active-index="-1" style="pointer-events: all;"><rect class="scrollbox-bg" opacity="0" x="0" y="0" width="0" height="0" style="pointer-events: all;"/></g></g></g></svg>