<svg class="main-svg" xmlns="http://www.w3.org/2000/svg" xmlns:xlink="http://www.w3.org/1999/xlink" width="1024" height="576" style="" viewBox="0 0 1024 576"><rect x="0" y="0" width="1024" height="576" style="fill: rgb(255, 255, 255); fill-opacity: 1;"/><defs id="defs-0d32fb"><g class="clips"><clipPath id="clip0d32fbxyplot" class="plotclip"><rect width="734" height="396"/></clipPath><clipPath class="axesclip" id="clip0d32fbx"><rect x="135" y="0" width="734" height="576"/></clipPath><clipPath class="axesclip" id="clip0d32fby"><rect x="0" y="100" width="1024" height="396"/></clipPath><clipPath class="axesclip" id="clip0d32fbxy"><rect x="135" y="100" width="734" height="396"/></clipPath></g><g class="gradients"/><g class="patterns"/></defs><g class="bglayer"><rect class="bg" x="135" y="100" width="734" height="396" style="fill: rgb(229, 236, 246); fill-opacity: 1; stroke-width: 0;"/></g><g class="layer-below"><g class="imagelayer"/><g class="shapelayer"/></g><g class="cartesianlayer"><g class="subplot xy"><g class="layer-subplot"><g class="shapelayer"/><g class="imagelayer"/></g><g class="minor-gridlayer"><g class="x"/><g class="y"/></g><g class="gridlayer"><g class="x"><path class="xgrid crisp" transform="translate(228.6,0)" d="M0,100v396" style="stroke: rgb(255, 255, 255); stroke-opacity: 1; stroke-width: 1px;"/><path class="xgrid crisp" transform="translate(327.12,0)" d="M0,100v396" style="stroke: rgb(255, 255, 255); stroke-opacity: 1; stroke-width: 1px;"/><path class="xgrid crisp" transform="translate(425.64,0)" d="M0,100v396" style="stroke: rgb(255, 255, 255); stroke-opacity: 1; stroke-width: 1px;"/><path class="xgrid crisp" transform="translate(524.1700000000001,0)" d="M0,100v396" style="stroke: rgb(255, 255, 255); stroke-opacity: 1; stroke-width: 1px;"/><path class="xgrid crisp" transform="translate(622.69,0)" d="M0,100v396" style="stroke: rgb(255, 255, 255); stroke-opacity: 1; stroke-width: 1px;"/><path class="xgrid crisp" transform="translate(721.21,0)" d="M0,100v396" style="stroke: rgb(255, 255, 255); stroke-opacity: 1; stroke-width: 1px;"/><path class="xgrid crisp" transform="translate(819.74,0)" d="M0,100v396" style="stroke: rgb(255, 255, 255); stroke-opacity: 1; stroke-width: 1px;"/></g><g class="y"><path class="ygrid crisp" transform="translate(0,443.24)" d="M135,0h734" style="stroke: rgb(255, 255, 255); stroke-opacity: 1; stroke-width: 1px;"/><path class="ygrid crisp" transform="translate(0,350.14)" d="M135,0h734" style="stroke: rgb(255, 255, 255); stroke-opacity: 1; stroke-width: 1px;"/><path class="ygrid crisp" transform="translate(0,257.03)" d="M135,0h734" style="stroke: rgb(255, 255, 255); stroke-opacity: 1; stroke-width: 1px;"/><path class="ygrid crisp" transform="translate(0,163.93)" d="M135,0h734" style="stroke: rgb(255, 255, 255); stroke-opacity: 1; stroke-width: 1px;"/></g></g><g class="zerolinelayer"/><path class="xlines-below"/><path class="ylines-below"/><g class="overlines-below"/><g class="xaxislayer-below"/><g class="yaxislayer-below"/><g class="overaxes-below"/><g class="plot" transform="translate(135,100)" clip-path="url(#clip0d32fbxyplot)"><g class="scatterlayer mlayer"><g class="trace scatter trace3dc355" style="stroke-miterlimit: 2; opacity: 1;"><g class="fills"/><g class="errorbars"/><g class="lines"><path class="js-line" d="M0,66.17L4.93,62.44L9.85,55.18L14.78,72.5L19.7,79.2L24.63,78.08L29.56,66.35L34.48,57.97L39.41,54.25L44.34,53.88L49.26,71.01L54.19,79.57L59.11,74.54L64.04,75.66L68.97,74.36L73.89,64.3L78.82,43.63L83.74,43.63L88.67,49.59L93.6,45.68L98.52,48.29L103.45,69.52L108.38,50.15L113.3,56.48L118.23,73.61L123.15,63L128.08,63.56L133.01,66.91L137.93,75.1L142.86,57.41L147.79,61.14L157.64,46.24L162.56,65.79L167.49,62.81L172.42,57.23L177.34,49.78L182.27,29.86L187.19,38.42L192.12,33.95L197.05,44.57L201.97,49.97L206.9,45.12L211.83,38.98L216.75,33.39L221.68,41.59L226.6,55.18L231.53,45.31L236.46,38.61L241.38,47.36L246.31,41.96L251.23,44.75L256.16,44.01L261.09,40.66L266.01,54.43L270.94,37.3L275.87,38.05L280.79,31.16L285.72,36.56L290.64,40.47L295.57,38.05L300.5,59.46L305.42,60.39L310.35,63.19L315.28,174.35L320.2,176.77L325.13,51.64L330.05,98.19L334.98,89.63L339.91,71.57L344.83,62.26L349.76,38.23L354.68,61.7L359.61,55.74L364.54,52.94L369.46,67.66L374.39,68.4L379.32,48.85L384.24,56.3L389.17,52.2L394.09,57.04L399.02,53.13L403.95,51.27L408.87,50.9L413.8,52.94L418.72,63L428.58,49.41L433.5,72.31L438.43,68.21L443.36,70.26L453.21,42.52L458.13,32.09L463.06,49.78L467.99,59.09L472.91,58.34L477.84,56.48L482.77,47.92L487.69,37.3L492.62,36L497.54,42.14L502.47,58.72L507.4,68.96L517.25,63.93L522.17,73.06L527.1,76.97L532.03,71.75L536.95,66.54L541.88,50.9L551.73,46.06L556.66,51.27L566.51,57.23L571.44,56.67L576.36,55.55L581.29,58.9L586.21,38.42L591.14,27.62L596.07,37.12L600.99,42.7L605.92,48.48L610.85,51.64L615.77,53.32L620.7,40.28L625.62,44.75L630.55,58.72L635.48,39.35L640.4,29.11L645.33,29.67L650.26,28.74L655.18,28.74L660.11,33.39L665.03,38.61L669.96,31.34L674.89,41.21L679.81,36.74L684.74,30.04L689.66,26.32L694.59,22.41L699.52,27.43L704.44,19.8L709.37,19.8L714.3,22.03L719.22,27.25L724.15,28.74L729.07,43.26L734,41.77" style="vector-effect: none; fill: none; stroke: rgb(255, 0, 0); stroke-opacity: 1; stroke-width: 2px; opacity: 1;"/></g><g class="points"/><g class="text"/></g><g class="trace scatter trace2f27fd" style="stroke-miterlimit: 2; opacity: 1;"><g class="fills"/><g class="errorbars"/><g class="lines"><path class="js-line" d="M0,74.54L4.93,72.12L9.85,66.54L14.78,71.19L19.7,84.79L24.63,79.57L29.56,72.5L39.41,58.72L44.34,63.19L49.26,74.17L54.19,82.55L59.11,73.8L64.04,77.9L68.97,79.2L73.89,70.45L78.82,54.81L83.74,55.18L88.67,58.16L93.6,56.48L98.52,58.72L103.45,77.15L108.38,63.74L113.3,55.74L118.23,75.1L123.15,72.12L128.08,67.47L133.01,71.19L137.93,82.18L142.86,59.83L147.79,63.74L152.71,63.74L157.64,53.13L162.56,68.21L167.49,67.84L172.42,64.12L177.34,60.77L182.27,44.75L187.19,48.1L192.12,45.68L197.05,55.74L201.97,56.48L206.9,50.15L211.83,45.12L216.75,52.76L221.68,58.16L226.6,62.44L231.53,60.39L236.46,58.16L241.38,64.86L246.31,52.39L251.23,61.14L256.16,54.43L261.09,51.83L266.01,72.5L270.94,59.46L275.87,55.18L280.79,44.38L285.72,49.41L290.64,55.74L295.57,58.72L300.5,83.86L305.42,78.83L310.35,77.52L315.28,194.09L320.2,193.16L325.13,65.42L330.05,109.92L339.91,80.5L344.83,71.75L349.76,51.08L354.68,62.07L359.61,65.42L364.54,62.44L369.46,74.54L374.39,73.43L379.32,56.48L384.24,62.81L394.09,77.15L399.02,71.75L403.95,62.07L408.87,62.81L413.8,61.51L418.72,76.22L428.58,51.08L433.5,76.22L438.43,69.14L443.36,80.88L448.28,68.77L453.21,52.76L458.13,40.1L463.06,53.5L467.99,59.83L472.91,59.09L477.84,63.19L482.77,70.08L492.62,54.06L497.54,59.83L502.47,68.21L507.4,83.11L512.32,72.5L517.25,67.47L522.17,73.8L527.1,88.51L532.03,85.9L536.95,79.2L541.88,71.19L546.81,67.1L551.73,59.09L556.66,59.83L561.58,66.54L566.51,77.15L571.44,70.82L576.36,63.19L581.29,71.19L586.21,47.36L591.14,34.32L596.07,37.12L600.99,52.76L605.92,54.81L610.85,61.14L615.77,70.45L620.7,53.13L625.62,61.14L630.55,83.86L635.48,60.77L640.4,51.08L645.33,50.15L650.26,49.03L655.18,49.41L660.11,50.15L665.03,56.11L669.96,51.46L674.89,61.14L679.81,51.83L684.74,36.74L689.66,30.79L694.59,32.09L704.44,34.32L709.37,34.7L714.3,36.74L719.22,41.03L724.15,43.45L729.07,59.83L734,57.79" style="vector-effect: none; fill: none; stroke: rgb(0, 0, 255); stroke-opacity: 1; stroke-width: 2px; opacity: 1;"/></g><g class="points"/><g class="text"/></g><g class="trace scatter trace08d732" style="stroke-miterlimit: 2; opacity: 1;"><g class="fills"/><g class="errorbars"/><g class="lines"><path class="js-line" d="M0,177.7L4.93,196.88L9.85,181.06L14.78,216.43L19.7,224.26L24.63,222.02L29.56,206.94L34.48,194.09L39.41,187.57L44.34,188.13L49.26,211.97L54.19,220.34L59.11,214.94L64.04,216.62L68.97,215.13L73.89,203.96L78.82,168.02L83.74,169.51L88.67,180.87L93.6,175.28L98.52,179.94L103.45,210.85L108.38,182.73L113.3,192.23L118.23,214.94L123.15,201.54L128.08,202.1L133.01,206.94L137.93,216.99L142.86,193.53L147.79,199.12L157.64,176.21L162.56,205.26L167.49,201.54L172.42,193.34L177.34,181.61L182.27,149.21L187.19,163.74L192.12,154.99L197.05,174.54L201.97,182.92L216.75,156.66L221.68,170.63L226.6,189.25L231.53,176.21L236.46,166.72L241.38,178.82L246.31,171.37L251.23,175.28L256.16,174.35L261.09,169.7L266.01,187.01L270.94,165.04L275.87,166.34L280.79,156.1L285.72,164.11L290.64,169.32L295.57,166.16L300.5,192.23L305.42,193.9L310.35,196.88L315.28,284.96L320.2,289.24L325.13,184.59L330.05,235.24L334.98,227.23L339.91,208.8L344.83,198.37L349.76,166.16L354.68,196.32L359.61,189.06L364.54,185.15L369.46,200.42L374.39,200.61L379.32,178.45L384.24,188.32L389.17,185.71L394.09,192.04L399.02,186.46L403.95,184.41L408.87,183.29L413.8,185.15L418.72,197.44L423.65,187.76L428.58,181.24L433.5,206.38L438.43,202.28L443.36,209.54L448.28,192.23L453.21,171.19L458.13,153.87L463.06,182.54L467.99,194.28L472.91,193.16L477.84,190.92L482.77,179.38L487.69,164.86L492.62,163.18L497.54,171L502.47,190.55L507.4,201.72L512.32,197.81L517.25,195.95L522.17,208.43L527.1,210.85L532.03,203.77L536.95,199.3L541.88,180.87L546.81,177.33L551.73,176.77L556.66,183.85L566.51,190.37L571.44,187.57L576.36,187.01L581.29,190.55L586.21,166.53L591.14,149.4L596.07,164.67L600.99,172.49L605.92,180.12L610.85,184.03L615.77,186.27L620.7,169.14L625.62,174.91L630.55,191.67L635.48,168.02L640.4,153.5L645.33,154.61L650.26,153.31L655.18,153.12L660.11,159.64L665.03,165.97L669.96,156.85L674.89,169.88L679.81,164.3L684.74,154.8L689.66,147.72L694.59,140.65L699.52,148.47L704.44,130.41L709.37,135.06L714.3,140.09L719.22,149.03L724.15,152.01L729.07,173.23L734,171.37" style="vector-effect: none; fill: none; stroke: rgb(0, 128, 0); stroke-opacity: 1; stroke-width: 2px; opacity: 1;"/></g><g class="points"/><g class="text"/></g><g class="trace scatter trace4854f9" style="stroke-miterlimit: 2; opacity: 1;"><g class="fills"/><g class="errorbars"/><g class="lines"><path class="js-line" d="M0,192.23L4.93,211.41L9.85,198.56L14.78,213.27L19.7,231.14L29.56,215.32L34.48,204.33L39.41,192.79L44.34,201.17L49.26,216.06L54.19,224.44L59.11,213.83L64.04,220.16L68.97,222.02L73.89,211.97L78.82,184.03L83.74,185.15L88.67,192.6L93.6,190.74L98.52,194.46L103.45,221.09L108.38,201.72L113.3,189.25L118.23,217.37L123.15,214.39L128.08,207.31L133.01,212.52L137.93,226.12L142.86,196.14L147.79,201.91L152.71,201.72L157.64,185.15L162.56,208.61L167.49,208.24L172.42,202.66L177.34,197.07L182.27,170.63L187.19,175.28L192.12,170.07L197.05,189.43L201.97,190.92L206.9,180.31L211.83,171.93L216.75,184.03L221.68,193.9L226.6,198.93L231.53,196.7L236.46,193.9L241.38,202.84L246.31,185.34L251.23,197.63L256.16,188.32L261.09,184.59L266.01,210.66L270.94,195.58L275.87,189.25L280.79,173.79L290.64,188.69L295.57,193.34L300.5,222.95L305.42,217.92L310.35,215.69L315.28,300.23L320.2,300.23L325.13,202.66L330.05,247.34L334.98,233.75L339.91,219.6L344.83,210.85L349.76,183.48L354.68,196.14L359.61,201.91L364.54,197.81L369.46,210.48L374.39,207.5L379.32,188.13L384.24,196.7L389.17,210.85L394.09,218.67L399.02,210.85L403.95,198.74L408.87,198.93L413.8,196.32L418.72,214.76L423.65,198.37L428.58,182.73L433.5,210.66L438.43,203.59L443.36,223.32L448.28,208.61L453.21,185.15L458.13,164.67L463.06,187.2L467.99,195.02L472.91,193.72L477.84,199.3L482.77,208.43L487.69,200.05L492.62,187.76L497.54,194.09L502.47,202.66L507.4,219.79L512.32,205.82L517.25,200.61L522.17,209.54L527.1,225L532.03,221.65L536.95,215.32L541.88,206.38L546.81,201.54L551.73,194.46L556.66,195.39L561.58,203.21L566.51,216.43L571.44,205.26L576.36,197.26L581.29,206.75L586.21,177.89L591.14,156.85L596.07,163.37L600.99,185.9L605.92,188.5L610.85,196.88L615.77,209.17L620.7,186.64L625.62,196.7L630.55,223.7L635.48,197.07L640.4,183.48L650.26,180.12L655.18,180.87L660.11,181.8L665.03,188.69L669.96,183.29L674.89,195.77L679.81,184.41L684.74,163.37L689.66,152.94L694.59,154.06L699.52,156.29L704.44,149.96L714.3,160.01L719.22,167.83L724.15,171.93L729.07,195.95L734,192.79" style="vector-effect: none; fill: none; stroke: rgb(255, 165, 0); stroke-opacity: 1; stroke-width: 2px; opacity: 1;"/></g><g class="points"/><g class="text"/></g><g class="trace scatter tracee239c1" style="stroke-miterlimit: 2; opacity: 1;"><g class="fills"/><g class="errorbars"/><g class="lines"><path class="js-line" d="M0,360.37L4.93,287.75L9.85,288.68L14.78,254.05L19.7,235.61L24.63,228.91L29.56,238.59L34.48,243.62L39.41,246.6L44.34,229.47L49.26,218.67L54.19,206.38L59.11,207.5L64.04,211.03L68.97,211.41L73.89,233.19L78.82,245.67L83.74,238.22L88.67,233.57L93.6,223.7L98.52,218.48L103.45,229.28L108.38,224.81L113.3,230.59L118.23,215.69L123.15,220.72L128.08,215.13L133.01,220.16L137.93,218.3L142.86,231.7L147.79,227.05L152.71,227.98L157.64,224.44L162.56,217.92L167.49,232.63L172.42,221.28L177.34,227.23L182.27,212.34L187.19,216.06L192.12,219.79L197.05,213.64L201.97,214.01L206.9,222.02L216.75,205.82L221.68,194.65L226.6,186.83L231.53,187.76L236.46,185.34L241.38,178.63L246.31,190.55L251.23,177.89L256.16,185.52L261.09,186.46L266.01,172.3L270.94,175.1L275.87,173.23L280.79,175.47L285.72,165.04L290.64,166.16L300.5,167.28L305.42,172.49L310.35,171.56L315.28,198L320.2,204.7L325.13,181.06L330.05,192.23L334.98,190.55L339.91,189.06L344.83,190.92L354.68,178.63L359.61,176.21L369.46,165.04L374.39,161.69L379.32,152.94L384.24,164.67L389.17,192.6L394.09,190.18L399.02,181.06L403.95,187.94L408.87,175.84L413.8,171.19L418.72,176.03L423.65,164.3L428.58,172.68L433.5,171.19L438.43,172.12L443.36,205.08L448.28,208.43L453.21,213.08L458.13,209.36L463.06,193.53L467.99,187.57L472.91,185.52L477.84,187.39L482.77,175.47L487.69,185.9L492.62,179.57L497.54,157.22L502.47,161.5L507.4,164.86L512.32,158.9L517.25,161.32L522.17,177.52L527.1,170.63L532.03,161.5L536.95,164.3L541.88,152.75L546.81,150.33L551.73,172.86L556.66,177.89L561.58,170.63L566.51,172.49L571.44,156.29L576.36,161.5L581.29,160.39L586.21,183.1L591.14,186.46L596.07,178.08L600.99,175.1L605.92,173.79L610.85,175.28L615.77,178.08L620.7,182.92L625.62,167.83L630.55,169.51L635.48,175.1L640.4,168.77L645.33,150.52L650.26,152.57L655.18,156.85L660.11,154.43L665.03,149.96L669.96,153.31L679.81,164.3L684.74,166.72L689.66,182.17L694.59,185.34L699.52,192.04L704.44,207.31L709.37,190.18L714.3,185.52L719.22,184.78L724.15,178.82L729.07,181.24L734,173.23" style="vector-effect: none; fill: none; stroke: rgb(128, 0, 128); stroke-opacity: 1; stroke-width: 2px; opacity: 1;"/></g><g class="points"/><g class="text"/></g><g class="trace scatter trace99794a" style="stroke-miterlimit: 2; opacity: 1;"><g class="fills"/><g class="errorbars"/><g class="lines"><path class="js-line" d="M0,376.2L4.93,304.32L9.85,310.84L14.78,250.14L19.7,244.74L24.63,235.99L29.56,255.17L34.48,264.48L39.41,255.54L44.34,246.6L49.26,227.61L54.19,215.88L59.11,212.52L64.04,222.39L68.97,225.56L73.89,243.06L78.82,268.01L83.74,266.52L88.67,251.07L93.6,239.9L98.52,231.14L103.45,242.13L108.38,249.39L118.23,231.14L123.15,246.04L128.08,230.4L133.01,232.82L137.93,230.03L142.86,240.27L147.79,238.03L152.71,247.53L157.64,238.22L162.56,235.8L167.49,252.74L172.42,238.97L177.34,248.65L182.27,236.36L187.19,245.67L192.12,247.53L197.05,236.92L201.97,236.36L206.9,237.48L211.83,233.57L216.75,242.69L221.68,223.14L226.6,204.52L231.53,214.39L236.46,221.83L241.38,212.71L246.31,215.69L251.23,210.1L256.16,211.03L261.09,213.64L266.01,200.42L270.94,213.27L275.87,199.68L280.79,200.23L285.72,186.83L290.64,182.17L295.57,193.53L300.5,200.61L305.42,201.54L310.35,196.51L315.28,213.64L320.2,214.39L325.13,203.96L330.05,203.03L334.98,202.84L339.91,201.54L344.83,209.36L349.76,209.54L354.68,181.61L359.61,196.88L364.54,191.86L369.46,184.41L379.32,167.83L384.24,177.89L389.17,224.07L394.09,218.86L399.02,209.36L403.95,208.99L413.8,187.2L418.72,198.74L423.65,176.59L428.58,177.89L433.5,177.33L438.43,177.89L443.36,220.72L448.28,225.19L453.21,229.66L458.13,222.58L463.06,203.96L467.99,194.46L472.91,192.04L477.84,196.14L482.77,205.26L487.69,224.07L492.62,208.43L497.54,185.52L502.47,177.89L507.4,188.88L512.32,171.19L517.25,170.81L522.17,184.59L527.1,188.88L532.03,184.78L536.95,185.71L541.88,181.06L546.81,180.12L551.73,202.28L556.66,198.56L561.58,194.65L566.51,203.96L571.44,177.14L576.36,179.38L581.29,183.48L586.21,205.82L591.14,205.45L596.07,189.06L600.99,198L605.92,194.09L610.85,198.93L615.77,207.31L620.7,207.87L625.62,196.51L630.55,204.33L635.48,208.61L640.4,207.12L645.33,180.87L650.26,180.12L655.18,183.85L665.03,176.4L669.96,178.26L674.89,185.71L679.81,188.5L684.74,178.63L689.66,193.16L694.59,200.05L699.52,200.23L704.44,237.1L709.37,217.74L714.3,213.83L719.22,208.8L729.07,208.06L734,203.21" style="vector-effect: none; fill: none; stroke: rgb(255, 192, 203); stroke-opacity: 1; stroke-width: 2px; opacity: 1;"/></g><g class="points"/><g class="text"/></g><g class="trace scatter tracea2a2ee" style="stroke-miterlimit: 2; opacity: 1;"><g class="fills"/><g class="errorbars"/><g class="lines"><path class="js-line" d="M0,322.01L4.93,256.47L9.85,253.68L14.78,238.03L19.7,230.21L24.63,225.56L29.56,224.63L34.48,223.14L39.41,222.95L44.34,211.59L49.26,215.32L54.19,213.83L59.11,211.41L64.04,214.01L68.97,213.27L73.89,220.16L78.82,216.43L83.74,211.41L88.67,211.78L93.6,203.4L98.52,201.72L103.45,220.72L108.38,206.75L113.3,214.01L118.23,215.32L128.08,208.8L133.01,213.83L137.93,217.74L142.86,215.13L147.79,214.39L152.71,210.66L157.64,204.14L162.56,211.97L167.49,218.86L172.42,208.8L177.34,207.87L182.27,186.83L187.19,194.28L192.12,193.9L201.97,200.05L206.9,201.91L216.75,184.97L221.68,183.66L226.6,188.13L231.53,182.17L236.46,176.59L241.38,178.82L246.31,181.61L251.23,176.59L256.16,180.12L261.09,178.63L266.01,180.12L270.94,170.26L275.87,169.88L280.79,166.34L285.72,164.48L290.64,167.83L295.57,166.72L300.5,180.87L305.42,184.03L310.35,185.52L315.28,267.64L320.2,271.92L325.13,182.73L330.05,217.92L334.98,211.78L339.91,199.68L344.83,194.83L349.76,176.03L354.68,188.13L359.61,182.92L364.54,178.45L369.46,185.34L374.39,184.22L379.32,166.9L389.17,189.25L394.09,191.11L399.02,183.85L403.95,186.27L408.87,179.75L413.8,178.45L418.72,187.57L423.65,177.14L428.58,177.14L433.5,191.3L438.43,189.06L443.36,207.31L453.21,195.02L458.13,186.27L467.99,191.11L472.91,189.62L477.84,189.25L482.77,177.52L487.69,176.03L492.62,171.74L497.54,164.48L502.47,177.52L507.4,186.08L512.32,181.43L517.25,180.87L522.17,194.83L527.1,194.09L532.03,186.27L536.95,184.22L541.88,168.21L546.81,165.23L551.73,174.91L556.66,180.87L561.58,179.38L566.51,181.99L571.44,173.79L581.29,177.14L586.21,175.28L591.14,170.07L596.07,171.74L600.99,173.79L605.92,176.96L615.77,182.36L620.7,176.4L625.62,171.37L630.55,181.61L645.33,152.57L650.26,152.94L665.03,158.52L669.96,154.99L674.89,164.3L679.81,164.3L684.74,161.13L689.66,166.72L694.59,165.97L699.52,173.23L704.44,177.14L709.37,167.09L714.3,165.79L719.22,168.95L724.15,166.53L729.07,177.33L734,172.3" style="vector-effect: none; fill: none; stroke: rgb(165, 42, 42); stroke-opacity: 1; stroke-width: 2px; opacity: 1;"/></g><g class="points"/><g class="text"/></g><g class="trace scatter tracef5408f" style="stroke-miterlimit: 2; opacity: 1;"><g class="fills"/><g class="errorbars"/><g class="lines"><path class="js-line" d="M0,340.82L4.93,273.6L9.85,276.39L14.78,234.31L19.7,238.41L24.63,230.21L29.56,238.22L34.48,240.83L39.41,230.96L44.34,227.61L49.26,222.21L54.19,220.34L59.11,213.08L64.04,221.28L68.97,223.88L73.89,229.28L78.82,237.66L83.74,236.73L88.67,227.79L93.6,219.41L98.52,215.13L103.45,232.45L108.38,229.66L113.3,219.79L118.23,224.63L123.15,232.08L128.08,219.79L133.01,223.51L137.93,228.17L142.86,221.65L147.79,222.39L152.71,228.54L157.64,216.43L162.56,223.51L167.49,234.12L172.42,223.14L177.34,227.61L182.27,210.48L187.19,218.48L192.12,218.48L197.05,217.18L201.97,217.18L206.9,214.39L211.83,208.99L216.75,219.23L226.6,201.72L231.53,206.19L236.46,209.36L241.38,207.87L246.31,202.1L251.23,204.14L256.16,200.61L261.09,200.61L266.01,205.82L270.94,204.89L275.87,194.65L280.79,188.13L285.72,184.03L290.64,185.52L295.57,193.53L300.5,212.9L310.35,206.94L315.28,285.89L320.2,285.7L325.13,203.4L330.05,230.03L334.98,220.53L339.91,211.22L344.83,210.1L349.76,197.63L354.68,189.25L359.61,199.49L364.54,195.02L369.46,198.74L374.39,193.72L379.32,178.82L384.24,187.94L389.17,217.74L394.09,218.86L399.02,210.1L403.95,203.96L413.8,191.86L418.72,207.12L423.65,188.32L428.58,180.31L433.5,196.32L438.43,192.04L443.36,222.02L448.28,217.55L453.21,210.85L458.13,198.93L463.06,196.14L467.99,194.65L472.91,192.97L477.84,197.63L482.77,206.94L487.69,213.08L492.62,198.93L497.54,189.99L502.47,191.48L507.4,206.38L512.32,190.92L517.25,187.39L527.1,209.73L532.03,206.19L536.95,202.47L541.88,195.02L546.81,191.86L551.73,198.37L556.66,197.07L561.58,199.12L566.51,210.48L571.44,192.79L576.36,189.06L581.29,196.14L586.21,193.16L591.14,184.97L596.07,177.33L600.99,192.23L605.92,191.3L610.85,197.81L615.77,208.24L620.7,198L625.62,196.51L630.55,214.76L635.48,203.03L640.4,196.32L645.33,181.43L650.26,180.12L655.18,182.36L660.11,181.06L665.03,182.92L669.96,180.68L674.89,190.92L679.81,186.46L684.74,171.37L689.66,175.66L694.59,180.31L699.52,181.24L704.44,204.89L709.37,192.6L719.22,191.11L724.15,192.23L729.07,202.28L734,198.19" style="vector-effect: none; fill: none; stroke: rgb(128, 128, 128); stroke-opacity: 1; stroke-width: 2px; opacity: 1;"/></g><g class="points"/><g class="text"/></g></g></g><g class="overplot"/><path class="xlines-above crisp" d="M0,0" style="fill: none;"/><path class="ylines-above crisp" d="M0,0" style="fill: none;"/><g class="overlines-above"/><g class="xaxislayer-above"><g class="xtick"><text text-anchor="middle" x="0" y="509" transform="translate(228.6,0)" style="font-family: 'Open Sans', verdana, arial, sans-serif; font-size: 12px; fill: rgb(42, 63, 95); fill-opacity: 1; white-space: pre; opacity: 1;">20</text></g><g class="xtick"><text text-anchor="middle" x="0" y="509" style="font-family: 'Open Sans', verdana, arial, sans-serif; font-size: 12px; fill: rgb(42, 63, 95); fill-opacity: 1; white-space: pre; opacity: 1;" transform="translate(327.12,0)">40</text></g><g class="xtick"><text text-anchor="middle" x="0" y="509" style="font-family: 'Open Sans', verdana, arial, sans-serif; font-size: 12px; fill: rgb(42, 63, 95); fill-opacity: 1; white-space: pre; opacity: 1;" transform="translate(425.64,0)">60</text></g><g class="xtick"><text text-anchor="middle" x="0" y="509" style="font-family: 'Open Sans', verdana, arial, sans-serif; font-size: 12px; fill: rgb(42, 63, 95); fill-opacity: 1; white-space: pre; opacity: 1;" transform="translate(524.1700000000001,0)">80</text></g><g class="xtick"><text text-anchor="middle" x="0" y="509" style="font-family: 'Open Sans', verdana, arial, sans-serif; font-size: 12px; fill: rgb(42, 63, 95); fill-opacity: 1; white-space: pre; opacity: 1;" transform="translate(622.69,0)">100</text></g><g class="xtick"><text text-anchor="middle" x="0" y="509" style="font-family: 'Open Sans', verdana, arial, sans-serif; font-size: 12px; fill: rgb(42, 63, 95); fill-opacity: 1; white-space: pre; opacity: 1;" transform="translate(721.21,0)">120</text></g><g class="xtick"><text text-anchor="middle" x="0" y="509" style="font-family: 'Open Sans', verdana, arial, sans-serif; font-size: 12px; fill: rgb(42, 63, 95); fill-opacity: 1; white-space: pre; opacity: 1;" transform="translate(819.74,0)">140</text></g></g><g class="yaxislayer-above"><g class="ytick"><text text-anchor="end" x="134" y="4.199999999999999" transform="translate(0,443.24)" style="font-family: 'Open Sans', verdana, arial, sans-serif; font-size: 12px; fill: rgb(42, 63, 95); fill-opacity: 1; white-space: pre; opacity: 1;">65</text></g><g class="ytick"><text text-anchor="end" x="134" y="4.199999999999999" style="font-family: 'Open Sans', verdana, arial, sans-serif; font-size: 12px; fill: rgb(42, 63, 95); fill-opacity: 1; white-space: pre; opacity: 1;" transform="translate(0,350.14)">70</text></g><g class="ytick"><text text-anchor="end" x="134" y="4.199999999999999" style="font-family: 'Open Sans', verdana, arial, sans-serif; font-size: 12px; fill: rgb(42, 63, 95); fill-opacity: 1; white-space: pre; opacity: 1;" transform="translate(0,257.03)">75</text></g><g class="ytick"><text text-anchor="end" x="134" y="4.199999999999999" style="font-family: 'Open Sans', verdana, arial, sans-serif; font-size: 12px; fill: rgb(42, 63, 95); fill-opacity: 1; white-space: pre; opacity: 1;" transform="translate(0,163.93)">80</text></g></g><g class="overaxes-above"/></g></g><g class="polarlayer"/><g class="smithlayer"/><g class="ternarylayer"/><g class="geolayer"/><g class="funnelarealayer"/><g class="pielayer"/><g class="iciclelayer"/><g class="treemaplayer"/><g class="sunburstlayer"/><g class="glimages"/><defs id="topdefs-0d32fb"><g class="clips"/><clipPath id="legend0d32fb"><rect width="128" height="162" x="0" y="0"/></clipPath></defs><g class="layer-above"><g class="imagelayer"/><g class="shapelayer"/></g><g class="infolayer"><g class="legend" pointer-events="all" transform="translate(883.6800000000001,100)"><rect class="bg" shape-rendering="crispEdges" width="128" height="162" x="0" y="0" style="stroke: rgb(68, 68, 68); stroke-opacity: 1; fill: rgb(255, 255, 255); fill-opacity: 1; stroke-width: 0px;"/><g class="scrollbox" transform="" clip-path="url(#legend0d32fb)"><g class="groups"><g class="traces" transform="translate(0,14.5)" style="opacity: 1;"><text class="legendtext" text-anchor="start" x="40" y="4.680000000000001" style="font-family: 'Open Sans', verdana, arial, sans-serif; font-size: 12px; fill: rgb(42, 63, 95); fill-opacity: 1; white-space: pre;">Train Accuracy</text><g class="layers" style="opacity: 1;"><g class="legendfill"/><g class="legendlines"><path class="js-line" d="M5,0h30" style="fill: none; stroke: rgb(255, 0, 0); stroke-opacity: 1; stroke-width: 2px;"/></g><g class="legendsymbols"><g class="legendpoints"/></g></g><rect class="legendtoggle" x="0" y="-9.5" width="122.71875" height="19" style="fill: rgb(0, 0, 0); fill-opacity: 0;"/></g><g class="traces" transform="translate(0,33.5)" style="opacity: 1;"><text class="legendtext" text-anchor="start" x="40" y="4.680000000000001" style="font-family: 'Open Sans', verdana, arial, sans-serif; font-size: 12px; fill: rgb(42, 63, 95); fill-opacity: 1; white-space: pre;">Test Accuracy</text><g class="layers" style="opacity: 1;"><g class="legendfill"/><g class="legendlines"><path class="js-line" d="M5,0h30" style="fill: none; stroke: rgb(0, 0, 255); stroke-opacity: 1; stroke-width: 2px;"/></g><g class="legendsymbols"><g class="legendpoints"/></g></g><rect class="legendtoggle" x="0" y="-9.5" width="122.71875" height="19" style="fill: rgb(0, 0, 0); fill-opacity: 0;"/></g><g class="traces" transform="translate(0,52.5)" style="opacity: 1;"><text class="legendtext" text-anchor="start" x="40" y="4.680000000000001" style="font-family: 'Open Sans', verdana, arial, sans-serif; font-size: 12px; fill: rgb(42, 63, 95); fill-opacity: 1; white-space: pre;">Train Precision</text><g class="layers" style="opacity: 1;"><g class="legendfill"/><g class="legendlines"><path class="js-line" d="M5,0h30" style="fill: none; stroke: rgb(0, 128, 0); stroke-opacity: 1; stroke-width: 2px;"/></g><g class="legendsymbols"><g class="legendpoints"/></g></g><rect class="legendtoggle" x="0" y="-9.5" width="122.71875" height="19" style="fill: rgb(0, 0, 0); fill-opacity: 0;"/></g><g class="traces" transform="translate(0,71.5)" style="opacity: 1;"><text class="legendtext" text-anchor="start" x="40" y="4.680000000000001" style="font-family: 'Open Sans', verdana, arial, sans-serif; font-size: 12px; fill: rgb(42, 63, 95); fill-opacity: 1; white-space: pre;">Test Precision</text><g class="layers" style="opacity: 1;"><g class="legendfill"/><g class="legendlines"><path class="js-line" d="M5,0h30" style="fill: none; stroke: rgb(255, 165, 0); stroke-opacity: 1; stroke-width: 2px;"/></g><g class="legendsymbols"><g class="legendpoints"/></g></g><rect class="legendtoggle" x="0" y="-9.5" width="122.71875" height="19" style="fill: rgb(0, 0, 0); fill-opacity: 0;"/></g><g class="traces" transform="translate(0,90.5)" style="opacity: 1;"><text class="legendtext" text-anchor="start" x="40" y="4.680000000000001" style="font-family: 'Open Sans', verdana, arial, sans-serif; font-size: 12px; fill: rgb(42, 63, 95); fill-opacity: 1; white-space: pre;">Train Recall</text><g class="layers" style="opacity: 1;"><g class="legendfill"/><g class="legendlines"><path class="js-line" d="M5,0h30" style="fill: none; stroke: rgb(128, 0, 128); stroke-opacity: 1; stroke-width: 2px;"/></g><g class="legendsymbols"><g class="legendpoints"/></g></g><rect class="legendtoggle" x="0" y="-9.5" width="122.71875" height="19" style="fill: rgb(0, 0, 0); fill-opacity: 0;"/></g><g class="traces" transform="translate(0,109.5)" style="opacity: 1;"><text class="legendtext" text-anchor="start" x="40" y="4.680000000000001" style="font-family: 'Open Sans', verdana, arial, sans-serif; font-size: 12px; fill: rgb(42, 63, 95); fill-opacity: 1; white-space: pre;">Test Recall</text><g class="layers" style="opacity: 1;"><g class="legendfill"/><g class="legendlines"><path class="js-line" d="M5,0h30" style="fill: none; stroke: rgb(255, 192, 203); stroke-opacity: 1; stroke-width: 2px;"/></g><g class="legendsymbols"><g class="legendpoints"/></g></g><rect class="legendtoggle" x="0" y="-9.5" width="122.71875" height="19" style="fill: rgb(0, 0, 0); fill-opacity: 0;"/></g><g class="traces" transform="translate(0,128.5)" style="opacity: 1;"><text class="legendtext" text-anchor="start" x="40" y="4.680000000000001" style="font-family: 'Open Sans', verdana, arial, sans-serif; font-size: 12px; fill: rgb(42, 63, 95); fill-opacity: 1; white-space: pre;">Train F1</text><g class="layers" style="opacity: 1;"><g class="legendfill"/><g class="legendlines"><path class="js-line" d="M5,0h30" style="fill: none; stroke: rgb(165, 42, 42); stroke-opacity: 1; stroke-width: 2px;"/></g><g class="legendsymbols"><g class="legendpoints"/></g></g><rect class="legendtoggle" x="0" y="-9.5" width="122.71875" height="19" style="fill: rgb(0, 0, 0); fill-opacity: 0;"/></g><g class="traces" transform="translate(0,147.5)" style="opacity: 1;"><text class="legendtext" text-anchor="start" x="40" y="4.680000000000001" style="font-family: 'Open Sans', verdana, arial, sans-serif; font-size: 12px; fill: rgb(42, 63, 95); fill-opacity: 1; white-space: pre;">Test F1</text><g class="layers" style="opacity: 1;"><g class="legendfill"/><g class="legendlines"><path class="js-line" d="M5,0h30" style="fill: none; stroke: rgb(128, 128, 128); stroke-opacity: 1; stroke-width: 2px;"/></g><g class="legendsymbols"><g class="legendpoints"/></g></g><rect class="legendtoggle" x="0" y="-9.5" width="122.71875" height="19" style="fill: rgb(0, 0, 0); fill-opacity: 0;"/></g></g></g><rect class="scrollbar" rx="20" ry="3" width="0" height="0" x="0" y="0" style="fill: rgb(128, 139, 164); fill-opacity: 1;"/></g><g class="g-gtitle"><text class="gtitle" x="51.2" y="50" text-anchor="start" dy="0em" style="font-family: 'Open Sans', verdana, arial, sans-serif; font-size: 17px; fill: rgb(42, 63, 95); opacity: 1; font-weight: normal; white-space: pre;">Training Metrics - logs/FakeNewsNet-gossipcop_max-vocab=15000_pre=v2_text_domain_T=200_s=15.log</text></g><g class="g-xtitle"><text class="xtitle" x="502" y="537.3" text-anchor="middle" style="font-family: 'Open Sans', verdana, arial, sans-serif; font-size: 14px; fill: rgb(42, 63, 95); opacity: 1; font-weight: normal; white-space: pre;">Epoch</text></g><g class="g-ytitle"><text class="ytitle" transform="rotate(-90,95.965625,298)" x="95.965625" y="298" text-anchor="middle" style="font-family: 'Open Sans', verdana, arial, sans-serif; font-size: 14px; fill: rgb(42, 63, 95); opacity: 1; font-weight: normal; white-space: pre;">Metric Score</text></g></g><g class="menulayer"><g class="updatemenu-container" style="cursor: pointer;"><g class="updatemenu-header-group" transform="translate(12,60)"><g class="updatemenu-header" transform="translate(1,1)" style="pointer-events: all;"><rect class="updatemenu-item-rect" rx="2" ry="2" shape-rendering="crispEdges" x="0" y="0" width="160" height="33" style="stroke: rgb(190, 200, 217); stroke-opacity: 1; fill: rgb(255, 255, 255); fill-opacity: 1; stroke-width: 1px;"/><text class="updatemenu-item-text" text-anchor="start" data-notex="1" x="12" y="19.5" style="font-family: 'Open Sans', verdana, arial, sans-serif; font-size: 12px; fill: rgb(42, 63, 95); fill-opacity: 1; white-space: pre;">All</text></g><text class="updatemenu-header-arrow" text-anchor="end" x="156" y="19.5" style="font-family: 'Open Sans', verdana, arial, sans-serif; font-size: 12px; fill: rgb(42, 63, 95); fill-opacity: 1;">▼</text></g><g class="updatemenu-dropdown-button-group" updatemenu-active-index="-1" style="pointer-events: all;"><rect class="scrollbox-bg" opacity="0" x="0" y="0" width="0" height="0" style="pointer-events: all;"/></g></g></g></svg>