<svg class="main-svg" xmlns="http://www.w3.org/2000/svg" xmlns:xlink="http://www.w3.org/1999/xlink" width="1024" height="576" style="" viewBox="0 0 1024 576"><rect x="0" y="0" width="1024" height="576" style="fill: rgb(255, 255, 255); fill-opacity: 1;"/><defs id="defs-b4c947"><g class="clips"><clipPath id="clipb4c947xyplot" class="plotclip"><rect width="726" height="396"/></clipPath><clipPath class="axesclip" id="clipb4c947x"><rect x="143" y="0" width="726" height="576"/></clipPath><clipPath class="axesclip" id="clipb4c947y"><rect x="0" y="100" width="1024" height="396"/></clipPath><clipPath class="axesclip" id="clipb4c947xy"><rect x="143" y="100" width="726" height="396"/></clipPath></g><g class="gradients"/><g class="patterns"/></defs><g class="bglayer"><rect class="bg" x="143" y="100" width="726" height="396" style="fill: rgb(229, 236, 246); fill-opacity: 1; stroke-width: 0;"/></g><g class="layer-below"><g class="imagelayer"/><g class="shapelayer"/></g><g class="cartesianlayer"><g class="subplot xy"><g class="layer-subplot"><g class="shapelayer"/><g class="imagelayer"/></g><g class="minor-gridlayer"><g class="x"/><g class="y"/></g><g class="gridlayer"><g class="x"><path class="xgrid crisp" transform="translate(235.57999999999998,0)" d="M0,100v396" style="stroke: rgb(255, 255, 255); stroke-opacity: 1; stroke-width: 1px;"/><path class="xgrid crisp" transform="translate(333.03,0)" d="M0,100v396" style="stroke: rgb(255, 255, 255); stroke-opacity: 1; stroke-width: 1px;"/><path class="xgrid crisp" transform="translate(430.48,0)" d="M0,100v396" style="stroke: rgb(255, 255, 255); stroke-opacity: 1; stroke-width: 1px;"/><path class="xgrid crisp" transform="translate(527.9300000000001,0)" d="M0,100v396" style="stroke: rgb(255, 255, 255); stroke-opacity: 1; stroke-width: 1px;"/><path class="xgrid crisp" transform="translate(625.38,0)" d="M0,100v396" style="stroke: rgb(255, 255, 255); stroke-opacity: 1; stroke-width: 1px;"/><path class="xgrid crisp" transform="translate(722.83,0)" d="M0,100v396" style="stroke: rgb(255, 255, 255); stroke-opacity: 1; stroke-width: 1px;"/><path class="xgrid crisp" transform="translate(820.28,0)" d="M0,100v396" style="stroke: rgb(255, 255, 255); stroke-opacity: 1; stroke-width: 1px;"/></g><g class="y"><path class="ygrid crisp" transform="translate(0,479.74)" d="M143,0h726" style="stroke: rgb(255, 255, 255); stroke-opacity: 1; stroke-width: 1px;"/><path class="ygrid crisp" transform="translate(0,395.48)" d="M143,0h726" style="stroke: rgb(255, 255, 255); stroke-opacity: 1; stroke-width: 1px;"/><path class="ygrid crisp" transform="translate(0,311.23)" d="M143,0h726" style="stroke: rgb(255, 255, 255); stroke-opacity: 1; stroke-width: 1px;"/><path class="ygrid crisp" transform="translate(0,226.97)" d="M143,0h726" style="stroke: rgb(255, 255, 255); stroke-opacity: 1; stroke-width: 1px;"/><path class="ygrid crisp" transform="translate(0,142.72)" d="M143,0h726" style="stroke: rgb(255, 255, 255); stroke-opacity: 1; stroke-width: 1px;"/></g></g><g class="zerolinelayer"/><path class="xlines-below"/><path class="ylines-below"/><g class="overlines-below"/><g class="xaxislayer-below"/><g class="yaxislayer-below"/><g class="overaxes-below"/><g class="plot" transform="translate(143,100)" clip-path="url(#clipb4c947xyplot)"><g class="scatterlayer mlayer"><g class="trace scatter tracef8a35c" style="stroke-miterlimit: 2; opacity: 1;"><g class="fills"/><g class="errorbars"/><g class="lines"><path class="js-line" d="M0,253.52L4.87,228.25L9.74,279.14L14.62,214.09L19.49,187.13L24.36,189.32L29.23,199.26L34.11,94.45L38.98,103.89L43.85,114.17L48.72,133.38L53.6,119.39L58.47,138.94L63.34,114.67L68.21,105.07L73.09,109.62L77.96,80.46L82.83,104.22L87.7,106.58L92.58,109.11L97.45,119.9L102.32,149.72L107.19,81.14L112.07,95.12L116.94,124.78L121.81,104.39L126.68,111.98L131.56,105.4L136.43,106.58L141.3,204.82L146.17,209.21L151.05,82.15L155.92,85.35L160.79,84.68L165.66,128.15L170.54,131.69L175.41,128.15L180.28,115.68L185.15,129.5L190.03,122.09L194.9,72.38L199.77,73.39L204.64,60.92L209.52,65.13L214.39,64.62L219.26,73.22L224.13,108.77L229.01,123.77L233.88,128.99L238.75,129.16L243.62,131.86L248.5,177.53L253.37,163.2L258.24,139.44L263.11,184.94L267.99,158.99L272.86,138.43L277.73,126.3L282.6,123.1L287.48,103.04L292.35,96.3L297.22,121.41L302.09,121.75L306.97,115.85L311.84,65.3L316.71,72.04L321.58,60.24L326.46,69.68L331.33,61.76L336.2,79.45L341.07,102.37L345.95,78.27L350.82,130.85L355.69,76.25L360.56,79.62L365.44,136.24L370.31,84.17L375.18,90.24L380.05,88.55L384.93,88.05L389.8,61.76L394.67,52.83L399.54,50.81L404.42,57.88L409.29,59.74L414.16,66.31L419.03,67.32L423.91,69.01L428.78,60.07L433.65,67.66L438.52,103.55L443.4,113.83L448.27,87.37L458.01,72.71L462.89,72.71L467.76,61.93L472.63,59.57L477.5,21.82L482.38,25.53L487.25,59.4L492.12,60.24L496.99,58.05L501.87,97.65L506.74,27.55L511.61,20.81L516.48,19.8L521.36,23L526.23,92.09L531.1,114L535.97,128.83L540.85,105.23L545.72,76.08L550.59,63.44L555.46,79.96L560.34,49.46L565.21,114.17L570.08,136.41L574.95,138.26L579.83,122.09L584.7,122.59L589.57,107.59L594.44,114.33L599.32,104.73L609.06,142.14L613.93,130.85L618.81,102.37L623.68,105.07L628.55,101.02L633.42,99.84L638.3,109.45L643.17,75.58L648.04,103.38L652.91,107.43L657.79,105.4L662.66,116.02L667.53,76.59L672.4,46.09L677.28,42.89L682.15,45.08L687.02,45.08L691.89,68.33L696.77,83.83L701.64,78.1L706.51,56.87L711.38,49.63L716.26,52.49L721.13,80.8L726,74.73" style="vector-effect: none; fill: none; stroke: rgb(255, 0, 0); stroke-opacity: 1; stroke-width: 2px; opacity: 1;"/></g><g class="points"/><g class="text"/></g><g class="trace scatter trace00eb4b" style="stroke-miterlimit: 2; opacity: 1;"><g class="fills"/><g class="errorbars"/><g class="lines"><path class="js-line" d="M0,251.33L4.87,240.72L9.74,293.97L14.62,221.34L19.49,191.68L24.36,193.53L29.23,200.44L34.11,105.74L38.98,109.45L48.72,137.93L53.6,121.58L58.47,149.38L63.34,121.24L68.21,121.24L73.09,126.13L77.96,99.17L82.83,111.3L87.7,109.11L92.58,110.63L97.45,128.49L102.32,152.08L107.19,90.41L112.07,105.23L116.94,126.64L121.81,104.9L136.43,112.14L141.3,201.12L146.17,201.96L151.05,100.35L155.92,97.99L160.79,93.94L165.66,131.19L170.54,126.64L175.41,130.34L180.28,121.58L185.15,136.41L190.03,130.85L194.9,86.7L199.77,84.68L204.64,69.51L209.52,71.36L214.39,66.14L219.26,78.61L224.13,109.45L229.01,118.21L233.88,127.31L238.75,123.6L243.62,137.25L248.5,182.92L253.37,172.64L258.24,149.38L263.11,184.77L267.99,156.29L272.86,140.29L277.73,131.19L282.6,126.13L287.48,109.78L292.35,102.54L297.22,121.24L302.09,120.57L306.97,111.3L311.84,74.4L316.71,82.82L321.58,75.24L326.46,76.42L331.33,75.24L336.2,85.86L341.07,114.33L345.95,90.41L350.82,131.86L355.69,90.07L360.56,87.71L365.44,131.86L370.31,88.89L375.18,100.69L380.05,94.96L384.93,95.46L389.8,67.99L394.67,64.96L399.54,66.81L404.42,71.36L409.29,74.9L414.16,81.31L419.03,85.18L423.91,84.68L428.78,75.58L433.65,82.15L438.52,107.26L443.4,107.26L453.14,85.52L458.01,77.94L462.89,85.86L467.76,77.43L472.63,75.58L477.5,29.57L482.38,37.49L487.25,72.54L492.12,75.58L496.99,74.9L501.87,103.38L506.74,35.3L516.48,33.79L521.36,39.52L526.23,91.92L531.1,115.18L535.97,133.04L540.85,112.48L545.72,84L550.59,70.69L555.46,91.25L560.34,60.75L565.21,112.82L570.08,142.64L574.95,140.29L579.83,123.94L584.7,120.06L589.57,110.29L594.44,111.3L599.32,105.23L604.19,123.94L609.06,133.88L613.93,120.57L618.81,96.47L623.68,102.54L628.55,98.83L633.42,98.83L638.3,108.27L643.17,88.55L648.04,113.32L662.66,115.51L667.53,82.49L672.4,55.36L677.28,49.29L682.15,54.34L687.02,52.83L691.89,76.76L696.77,85.18L701.64,89.73L706.51,63.44L711.38,48.95L716.26,51.65L721.13,85.86L726,73.72" style="vector-effect: none; fill: none; stroke: rgb(0, 0, 255); stroke-opacity: 1; stroke-width: 2px; opacity: 1;"/></g><g class="points"/><g class="text"/></g><g class="trace scatter tracefabd1d" style="stroke-miterlimit: 2; opacity: 1;"><g class="fills"/><g class="errorbars"/><g class="lines"><path class="js-line" d="M0,336.43L4.87,333.57L9.74,352.1L14.62,333.9L19.49,318.74L29.23,319.58L34.11,243.25L38.98,247.96L43.85,273.91L48.72,277.96L53.6,269.87L58.47,274.93L63.34,257.57L68.21,246.62L73.09,250.15L77.96,222.35L82.83,245.44L87.7,246.78L92.58,250.32L97.45,257.57L102.32,279.98L107.19,221.51L112.07,233.3L116.94,261.11L121.81,257.06L126.68,268.35L131.56,244.42L136.43,246.11L141.3,310.31L146.17,310.14L151.05,220.83L155.92,218.98L160.79,218.81L165.66,258.92L170.54,263.8L175.41,262.62L180.28,252.85L185.15,265.66L190.03,256.39L194.9,206.85L199.77,210.22L204.64,192.19L209.52,201.62L214.39,201.29L219.26,207.86L224.13,243.75L229.01,247.46L233.88,254.37L238.75,253.19L243.62,261.11L248.5,279.64L253.37,271.89L258.24,260.26L263.11,286.22L267.99,268.69L272.86,257.57L277.73,250.83L282.6,243.08L287.48,233.64L292.35,228.75L297.22,252.85L302.09,253.19L306.97,254.7L311.84,200.44L316.71,205.84L321.58,193.2L326.46,206.17L331.33,195.05L336.2,217.97L341.07,237.01L345.95,213.08L350.82,269.2L355.69,211.06L360.56,214.26L365.44,262.96L370.31,217.46L375.18,222.18L380.05,220.33L384.93,220.83L389.8,193.7L394.67,182.58L399.54,179.55L404.42,191.34L409.29,194.04L414.16,202.3L419.03,203.65L423.91,198.59L428.78,187.97L433.65,198.08L438.52,233.81L443.4,241.05L448.27,217.63L453.14,212.41L458.01,204.99L462.89,207.35L467.76,192.35L472.63,189.83L477.5,119.56L482.38,129.33L487.25,189.49L492.12,193.7L496.99,190.33L501.87,236.67L506.74,134.22L511.61,114.67L516.48,112.48L521.36,121.24L526.23,220.5L531.1,242.23L535.97,251.67L540.85,237.18L545.72,210.39L550.59,197.75L555.46,215.78L560.34,175.17L565.21,240.21L570.08,254.2L574.95,253.86L579.83,241.39L584.7,244.93L589.57,238.86L594.44,243.41L599.32,235.16L604.19,246.45L609.06,260.1L613.93,255.38L618.81,232.97L623.68,234.48L628.55,228.42L633.42,227.41L638.3,237.35L643.17,205.84L648.04,232.97L652.91,235.66L657.79,235.33L662.66,242.23L667.53,213.92L672.4,173.82L677.28,169.27L682.15,172.47L687.02,172.3L691.89,198.76L696.77,214.43L701.64,206L706.51,188.48L711.38,179.21L716.26,183.42L721.13,214.26L726,210.05" style="vector-effect: none; fill: none; stroke: rgb(0, 128, 0); stroke-opacity: 1; stroke-width: 2px; opacity: 1;"/></g><g class="points"/><g class="text"/></g><g class="trace scatter trace6bea63" style="stroke-miterlimit: 2; opacity: 1;"><g class="fills"/><g class="errorbars"/><g class="lines"><path class="js-line" d="M0,344.01L4.87,347.05L9.74,367.44L14.62,343.51L19.49,324.3L24.36,326.99L29.23,322.45L34.11,260.26L38.98,257.23L43.85,286.72L48.72,282.85L53.6,275.43L58.47,289.08L63.34,266.5L68.21,266.67L73.09,273.07L77.96,250.15L82.83,257.91L87.7,253.69L92.58,254.03L97.45,270.54L102.32,284.7L107.19,234.48L112.07,245.1L116.94,263.47L121.81,258.24L126.68,264.48L131.56,250.15L136.43,253.69L141.3,311.15L146.17,309.13L151.05,245.27L155.92,235.33L160.79,231.79L165.66,262.29L170.54,258.07L175.41,265.49L180.28,260.6L185.15,276.95L190.03,269.7L194.9,227.74L199.77,226.73L204.64,204.66L209.52,211.06L214.39,203.31L219.26,216.45L224.13,245.6L229.01,243.41L233.88,253.52L238.75,247.79L243.62,266.67L248.5,280.99L253.37,282.85L258.24,273.58L263.11,287.9L267.99,268.86L272.86,263.47L277.73,258.41L282.6,249.99L292.35,236.34L297.22,253.19L302.09,251.67L306.97,248.97L311.84,213.76L316.71,219.82L321.58,215.44L326.46,216.28L331.33,214.77L336.2,227.41L341.07,253.86L345.95,230.44L350.82,275.94L355.69,231.11L360.56,226.39L365.44,261.28L370.31,225.55L375.18,236.84L380.05,230.44L384.93,231.45L389.8,202.3L394.67,199.6L399.54,201.12L404.42,211.06L409.29,216.96L414.16,225.21L419.03,229.93L423.91,220.5L428.78,209.54L433.65,218.31L438.52,238.53L443.4,232.8L448.27,230.78L453.14,222.35L458.01,213.92L462.89,226.23L467.76,214.43L472.63,212.58L477.5,128.66L482.38,148.21L487.25,207.86L492.12,216.28L496.99,215.1L501.87,247.12L506.74,143.15L511.61,136.24L516.48,132.7L521.36,149.55L526.23,223.36L531.1,246.95L535.97,260.6L540.85,251.17L545.72,222.18L550.59,208.03L555.46,231.95L560.34,190.5L565.21,241.73L570.08,261.78L574.95,257.91L579.83,245.1L589.57,243.41L594.44,242.07L599.32,239.03L604.19,249.65L609.06,255.38L613.93,248.13L618.81,227.57L623.68,233.98L628.55,229.43L633.42,229.76L638.3,238.7L643.17,224.88L648.04,248.3L652.91,246.45L657.79,249.99L662.66,243.92L667.53,221.68L672.4,186.96L677.28,177.86L682.15,185.45L687.02,182.92L691.89,210.05L696.77,217.13L701.64,221L711.38,177.36L716.26,181.4L721.13,223.19L726,209.88" style="vector-effect: none; fill: none; stroke: rgb(255, 165, 0); stroke-opacity: 1; stroke-width: 2px; opacity: 1;"/></g><g class="points"/><g class="text"/></g><g class="trace scatter trace010b12" style="stroke-miterlimit: 2; opacity: 1;"><g class="fills"/><g class="errorbars"/><g class="lines"><path class="js-line" d="M0,271.22L4.87,277.12L9.74,288.57L14.62,285.71L19.49,277.96L24.36,276.27L29.23,269.87L34.11,258.41L38.98,241.05L43.85,292.79L48.72,257.4L53.6,265.15L58.47,240.55L63.34,241.39L68.21,233.3L73.09,231.95L77.96,235.16L82.83,231.79L87.7,229.6L92.58,233.64L97.45,229.93L102.32,237.01L107.19,227.57L112.07,218.47L116.94,229.76L121.81,270.04L126.68,282.34L131.56,225.38L136.43,227.41L141.3,248.81L146.17,245.94L151.05,219.49L155.92,199.26L160.79,200.95L165.66,218.64L170.54,225.05L175.41,227.91L180.28,225.72L185.15,233.13L190.03,222.52L194.9,203.14L199.77,214.6L204.64,192.86L209.52,223.02L214.39,226.73L219.26,202.8L224.13,214.77L229.01,196.9L233.88,206.17L238.75,202.8L243.62,218.14L248.5,209.54L253.37,205.84L258.24,205.5L263.11,216.96L267.99,202.97L272.86,200.61L277.73,201.45L282.6,187.13L287.48,198.42L292.35,199.94L297.22,214.77L302.09,214.94L306.97,230.78L311.84,213.92L316.71,199.43L321.58,205.84L326.46,215.78L331.33,205.5L336.2,219.32L341.07,210.05L345.95,202.8L350.82,239.71L355.69,203.48L360.56,201.62L365.44,216.11L370.31,197.24L380.05,193.2L384.93,196.74L389.8,195.56L394.67,195.22L399.54,188.48L404.42,217.63L409.29,220.83L414.16,217.13L419.03,217.63L423.91,180.39L428.78,173.99L433.65,184.27L438.52,197.58L443.4,197.24L448.27,188.14L453.14,191.68L458.01,192.35L462.89,203.65L467.76,186.46L472.63,187.13L477.5,241.39L482.38,240.04L487.25,186.29L492.12,209.04L496.99,205.67L501.87,221.84L506.74,240.38L511.61,245.6L521.36,244.59L526.23,184.43L531.1,200.11L535.97,199.77L540.85,204.15L545.72,201.12L550.59,210.55L555.46,207.35L560.34,165.39L565.21,194.21L570.08,195.56L574.95,192.69L579.83,184.94L584.7,192.52L589.57,203.48L594.44,202.63L604.19,194.38L609.06,202.13L613.93,206L618.81,197.75L623.68,196.4L628.55,187.47L633.42,187.13L638.3,195.56L643.17,183.26L648.04,195.56L652.91,195.05L657.79,198.08L662.66,196.23L667.53,215.1L672.4,201.12L677.28,209.71L682.15,199.6L687.02,197.24L691.89,184.77L696.77,187.64L701.64,175L706.51,200.11L711.38,207.02L716.26,208.19L721.13,197.75L726,205.84" style="vector-effect: none; fill: none; stroke: rgb(128, 0, 128); stroke-opacity: 1; stroke-width: 2px; opacity: 1;"/></g><g class="points"/><g class="text"/></g><g class="trace scatter trace57a184" style="stroke-miterlimit: 2; opacity: 1;"><g class="fills"/><g class="errorbars"/><g class="lines"><path class="js-line" d="M0,285.04L4.87,294.81L9.74,309.3L14.62,299.19L19.49,285.54L24.36,289.08L29.23,275.26L34.11,280.15L38.98,256.22L43.85,307.11L48.72,262.62L53.6,277.79L58.47,259.42L63.34,253.19L68.21,253.69L73.09,260.26L77.96,268.35L82.83,253.19L87.7,246.28L92.58,242.91L97.45,248.81L107.19,243.75L112.07,229.76L116.94,234.15L121.81,275.26L126.68,287.39L131.56,233.3L136.43,238.02L141.3,253.52L151.05,245.44L155.92,218.47L160.79,219.49L165.66,223.7L170.54,220.66L175.41,232.8L180.28,236.17L185.15,250.83L190.03,242.74L194.9,232.63L199.77,237.18L204.64,212.74L209.52,241.9L214.39,236.34L219.26,220.33L224.13,220.66L229.01,197.41L233.88,207.69L238.75,199.77L243.62,224.88L248.5,209.21L253.37,220.83L258.24,224.37L263.11,221.34L267.99,206.85L272.86,212.91L277.73,213.92L282.6,200.95L287.48,212.91L292.35,209.21L297.22,217.13L302.09,214.43L306.97,226.23L311.84,232.12L316.71,215.44L321.58,236.84L326.46,233.3L331.33,233.13L336.2,234.31L341.07,233.13L345.95,227.07L350.82,256.56L355.69,231.11L360.56,221.51L365.44,219.82L370.31,213.59L375.18,215.95L380.05,211.23L384.93,213.59L389.8,209.04L394.67,216.62L399.54,210.39L404.42,241.9L409.29,251.84L414.16,250.66L419.03,251L423.91,210.39L428.78,203.14L433.65,211.73L438.52,205.16L443.4,188.98L448.27,211.4L453.14,214.6L458.01,211.73L462.89,229.43L467.76,216.28L472.63,217.8L477.5,260.26L482.38,262.29L487.25,210.89L492.12,239.87L496.99,238.36L501.87,242.07L506.74,260.77L511.61,273.41L516.48,274.25L521.36,271.05L526.23,196.23L531.1,212.07L535.97,216.28L540.85,229.76L545.72,219.99L550.59,225.89L555.46,229.6L560.34,187.97L565.21,202.47L570.08,206.34L574.95,200.61L579.83,192.52L584.7,196.4L589.57,212.58L594.44,206.34L599.32,210.89L604.19,203.81L609.06,202.8L613.93,205.33L618.81,197.58L623.68,202.13L628.55,197.41L633.42,198.59L638.3,203.14L643.17,212.74L648.04,219.99L652.91,212.91L657.79,220.66L662.66,203.14L667.53,225.55L672.4,218.98L677.28,223.7L682.15,219.32L687.02,213.59L691.89,199.6L696.77,195.39L701.64,194.71L706.51,216.28L711.38,213.08L716.26,215.95L721.13,216.45L726,214.94" style="vector-effect: none; fill: none; stroke: rgb(255, 192, 203); stroke-opacity: 1; stroke-width: 2px; opacity: 1;"/></g><g class="points"/><g class="text"/></g><g class="trace scatter trace18131c" style="stroke-miterlimit: 2; opacity: 1;"><g class="fills"/><g class="errorbars"/><g class="lines"><path class="js-line" d="M0,337.78L4.87,327.16L9.74,359.52L14.62,324.47L19.49,307.11L24.36,307.45L29.23,308.8L34.11,251.5L38.98,244.59L43.85,284.53L48.72,269.36L53.6,267.51L58.47,262.29L63.34,250.32L68.21,240.55L73.09,242.07L77.96,229.26L82.83,239.2L87.7,239.2L97.45,246.28L102.32,265.99L107.19,224.54L112.07,226.56L116.94,248.81L121.81,264.14L126.68,275.94L131.56,236L136.43,237.85L141.3,301.21L146.17,302.22L151.05,220.16L155.92,210.22L160.79,210.72L165.66,244.59L170.54,249.82L175.41,249.65L180.28,241.56L185.15,253.19L190.03,243.41L194.9,204.99L199.77,212.41L204.64,192.52L209.52,213.25L214.39,215.44L219.26,205.33L224.13,231.79L229.01,230.94L233.88,238.53L238.75,236.84L243.62,246.28L248.5,267.85L253.37,257.91L258.24,244.09L263.11,275.43L267.99,254.2L272.86,241.05L277.73,234.65L282.6,225.72L287.48,219.82L292.35,216.62L297.22,238.7L302.09,239.03L306.97,244.59L311.84,207.69L316.71,202.63L321.58,199.94L326.46,211.23L331.33,200.44L336.2,218.64L341.07,225.55L345.95,208.19L350.82,257.57L355.69,207.52L360.56,208.36L365.44,247.63L370.31,208.36L375.18,210.89L380.05,208.7L384.93,210.39L389.8,194.71L394.67,189.32L399.54,184.1L404.42,206L409.29,209.04L414.16,210.22L419.03,211.06L423.91,190.33L428.78,181.4L433.65,191.68L438.52,219.65L443.4,225.21L448.27,205.33L453.14,203.14L458.01,199.1L462.89,205.5L467.76,189.49L472.63,188.48L477.5,204.49L482.38,205.16L487.25,187.81L492.12,201.79L496.99,198.59L501.87,229.76L506.74,206.51L511.61,207.35L516.48,206.17L521.36,207.69L526.23,206L531.1,226.9L535.97,235.16L540.85,224.03L545.72,206L550.59,204.66L555.46,211.73L560.34,170.45L565.21,224.03L570.08,237.52L574.95,237.18L579.83,224.03L584.7,227.91L589.57,225.05L594.44,228.42L599.32,221L604.19,229.76L609.06,243.92L613.93,239.37L618.81,218.98L623.68,219.82L628.55,212.91L633.42,212.07L638.3,221.84L643.17,195.89L648.04,218.47L652.91,220.5L657.79,221L662.66,226.06L667.53,214.6L672.4,188.98L677.28,192.86L682.15,187.47L687.02,185.95L691.89,192.19L696.77,202.97L701.64,193.03L706.51,194.55L711.38,194.71L716.26,197.07L721.13,206.68L726,207.86" style="vector-effect: none; fill: none; stroke: rgb(165, 42, 42); stroke-opacity: 1; stroke-width: 2px; opacity: 1;"/></g><g class="points"/><g class="text"/></g><g class="trace scatter traceb1cab9" style="stroke-miterlimit: 2; opacity: 1;"><g class="fills"/><g class="errorbars"/><g class="lines"><path class="js-line" d="M0,342.67L4.87,341.99L9.74,376.2L14.62,334.91L19.49,313.35L24.36,316.04L29.23,311.83L34.11,271.39L38.98,256.73L43.85,298.35L48.72,274.25L53.6,276.61L58.47,277.79L63.34,260.43L68.21,260.77L73.09,267.17L77.96,260.26L87.7,250.15L92.58,248.81L97.45,261.28L102.32,271.55L107.19,239.37L112.07,238.19L121.81,267.68L126.68,277.45L131.56,242.57L136.43,246.62L141.3,301.04L146.17,299.36L151.05,245.27L155.92,227.74L160.79,226.06L165.66,248.47L170.54,244.26L175.41,253.02L180.28,250.49L185.15,266.5L190.03,258.92L194.9,230.27L199.77,232.29L204.64,208.87L209.52,228.75L214.39,222.35L219.26,218.47L224.13,235.16L229.01,227.41L233.88,237.85L238.75,231.79L243.62,252.34L248.5,270.38L253.37,269.7L258.24,258.58L263.11,276.78L267.99,253.86L272.86,247.79L277.73,243.25L282.6,233.81L287.48,230.94L292.35,224.88L297.22,239.54L302.09,237.68L306.97,239.2L311.84,223.7L316.71,217.8L321.58,227.24L326.46,225.55L331.33,224.88L336.2,230.94L341.07,244.93L345.95,228.75L350.82,267.68L355.69,231.11L360.56,224.03L365.44,246.78L370.31,219.99L375.18,227.74L380.05,221.84L384.93,223.36L389.8,205.67L394.67,208.87L399.54,206L404.42,228.75L409.29,237.35L419.03,241.56L423.91,215.78L428.78,206.51L433.65,215.1L438.52,225.21L443.4,216.79L448.27,222.18L453.14,218.64L458.01,212.74L462.89,227.91L467.76,215.44L472.63,215.27L477.5,223.19L482.38,228.42L487.25,209.37L492.12,229.43L496.99,228.08L501.87,244.59L506.74,226.23L511.61,237.01L516.48,237.35L521.36,236.67L526.23,211.9L531.1,233.47L535.97,245.44L540.85,241.9L545.72,221.17L550.59,217.63L555.46,230.78L560.34,189.32L565.21,227.07L570.08,245.77L574.95,241.73L579.83,228.25L584.7,228.08L589.57,230.94L594.44,228.25L599.32,227.41L604.19,233.98L609.06,239.03L613.93,232.8L618.81,215.27L623.68,221.17L628.55,216.45L633.42,216.96L638.3,224.88L643.17,219.32L648.04,236.67L652.91,233.3L657.79,238.19L662.66,228.92L667.53,223.7L672.4,205.33L677.28,205.16L682.15,204.82L687.02,200.27L691.89,205.16L696.77,207.52L701.64,209.71L706.51,207.69L711.38,197.92L716.26,201.29L721.13,219.99L726,212.41" style="vector-effect: none; fill: none; stroke: rgb(128, 128, 128); stroke-opacity: 1; stroke-width: 2px; opacity: 1;"/></g><g class="points"/><g class="text"/></g></g></g><g class="overplot"/><path class="xlines-above crisp" d="M0,0" style="fill: none;"/><path class="ylines-above crisp" d="M0,0" style="fill: none;"/><g class="overlines-above"/><g class="xaxislayer-above"><g class="xtick"><text text-anchor="middle" x="0" y="509" transform="translate(235.57999999999998,0)" style="font-family: 'Open Sans', verdana, arial, sans-serif; font-size: 12px; fill: rgb(42, 63, 95); fill-opacity: 1; white-space: pre; opacity: 1;">20</text></g><g class="xtick"><text text-anchor="middle" x="0" y="509" style="font-family: 'Open Sans', verdana, arial, sans-serif; font-size: 12px; fill: rgb(42, 63, 95); fill-opacity: 1; white-space: pre; opacity: 1;" transform="translate(333.03,0)">40</text></g><g class="xtick"><text text-anchor="middle" x="0" y="509" style="font-family: 'Open Sans', verdana, arial, sans-serif; font-size: 12px; fill: rgb(42, 63, 95); fill-opacity: 1; white-space: pre; opacity: 1;" transform="translate(430.48,0)">60</text></g><g class="xtick"><text text-anchor="middle" x="0" y="509" style="font-family: 'Open Sans', verdana, arial, sans-serif; font-size: 12px; fill: rgb(42, 63, 95); fill-opacity: 1; white-space: pre; opacity: 1;" transform="translate(527.9300000000001,0)">80</text></g><g class="xtick"><text text-anchor="middle" x="0" y="509" style="font-family: 'Open Sans', verdana, arial, sans-serif; font-size: 12px; fill: rgb(42, 63, 95); fill-opacity: 1; white-space: pre; opacity: 1;" transform="translate(625.38,0)">100</text></g><g class="xtick"><text text-anchor="middle" x="0" y="509" style="font-family: 'Open Sans', verdana, arial, sans-serif; font-size: 12px; fill: rgb(42, 63, 95); fill-opacity: 1; white-space: pre; opacity: 1;" transform="translate(722.83,0)">120</text></g><g class="xtick"><text text-anchor="middle" x="0" y="509" style="font-family: 'Open Sans', verdana, arial, sans-serif; font-size: 12px; fill: rgb(42, 63, 95); fill-opacity: 1; white-space: pre; opacity: 1;" transform="translate(820.28,0)">140</text></g></g><g class="yaxislayer-above"><g class="ytick"><text text-anchor="end" x="142" y="4.199999999999999" transform="translate(0,479.74)" style="font-family: 'Open Sans', verdana, arial, sans-serif; font-size: 12px; fill: rgb(42, 63, 95); fill-opacity: 1; white-space: pre; opacity: 1;">60</text></g><g class="ytick"><text text-anchor="end" x="142" y="4.199999999999999" style="font-family: 'Open Sans', verdana, arial, sans-serif; font-size: 12px; fill: rgb(42, 63, 95); fill-opacity: 1; white-space: pre; opacity: 1;" transform="translate(0,395.48)">65</text></g><g class="ytick"><text text-anchor="end" x="142" y="4.199999999999999" style="font-family: 'Open Sans', verdana, arial, sans-serif; font-size: 12px; fill: rgb(42, 63, 95); fill-opacity: 1; white-space: pre; opacity: 1;" transform="translate(0,311.23)">70</text></g><g class="ytick"><text text-anchor="end" x="142" y="4.199999999999999" style="font-family: 'Open Sans', verdana, arial, sans-serif; font-size: 12px; fill: rgb(42, 63, 95); fill-opacity: 1; white-space: pre; opacity: 1;" transform="translate(0,226.97)">75</text></g><g class="ytick"><text text-anchor="end" x="142" y="4.199999999999999" style="font-family: 'Open Sans', verdana, arial, sans-serif; font-size: 12px; fill: rgb(42, 63, 95); fill-opacity: 1; white-space: pre; opacity: 1;" transform="translate(0,142.72)">80</text></g></g><g class="overaxes-above"/></g></g><g class="polarlayer"/><g class="smithlayer"/><g class="ternarylayer"/><g class="geolayer"/><g class="funnelarealayer"/><g class="pielayer"/><g class="iciclelayer"/><g class="treemaplayer"/><g class="sunburstlayer"/><g class="glimages"/><defs id="topdefs-b4c947"><g class="clips"/><clipPath id="legendb4c947"><rect width="128" height="162" x="0" y="0"/></clipPath></defs><g class="layer-above"><g class="imagelayer"/><g class="shapelayer"/></g><g class="infolayer"><g class="legend" pointer-events="all" transform="translate(883.52,100)"><rect class="bg" shape-rendering="crispEdges" width="128" height="162" x="0" y="0" style="stroke: rgb(68, 68, 68); stroke-opacity: 1; fill: rgb(255, 255, 255); fill-opacity: 1; stroke-width: 0px;"/><g class="scrollbox" transform="" clip-path="url(#legendb4c947)"><g class="groups"><g class="traces" transform="translate(0,14.5)" style="opacity: 1;"><text class="legendtext" text-anchor="start" x="40" y="4.680000000000001" style="font-family: 'Open Sans', verdana, arial, sans-serif; font-size: 12px; fill: rgb(42, 63, 95); fill-opacity: 1; white-space: pre;">Train Accuracy</text><g class="layers" style="opacity: 1;"><g class="legendfill"/><g class="legendlines"><path class="js-line" d="M5,0h30" style="fill: none; stroke: rgb(255, 0, 0); stroke-opacity: 1; stroke-width: 2px;"/></g><g class="legendsymbols"><g class="legendpoints"/></g></g><rect class="legendtoggle" x="0" y="-9.5" width="122.71875" height="19" style="fill: rgb(0, 0, 0); fill-opacity: 0;"/></g><g class="traces" transform="translate(0,33.5)" style="opacity: 1;"><text class="legendtext" text-anchor="start" x="40" y="4.680000000000001" style="font-family: 'Open Sans', verdana, arial, sans-serif; font-size: 12px; fill: rgb(42, 63, 95); fill-opacity: 1; white-space: pre;">Test Accuracy</text><g class="layers" style="opacity: 1;"><g class="legendfill"/><g class="legendlines"><path class="js-line" d="M5,0h30" style="fill: none; stroke: rgb(0, 0, 255); stroke-opacity: 1; stroke-width: 2px;"/></g><g class="legendsymbols"><g class="legendpoints"/></g></g><rect class="legendtoggle" x="0" y="-9.5" width="122.71875" height="19" style="fill: rgb(0, 0, 0); fill-opacity: 0;"/></g><g class="traces" transform="translate(0,52.5)" style="opacity: 1;"><text class="legendtext" text-anchor="start" x="40" y="4.680000000000001" style="font-family: 'Open Sans', verdana, arial, sans-serif; font-size: 12px; fill: rgb(42, 63, 95); fill-opacity: 1; white-space: pre;">Train Precision</text><g class="layers" style="opacity: 1;"><g class="legendfill"/><g class="legendlines"><path class="js-line" d="M5,0h30" style="fill: none; stroke: rgb(0, 128, 0); stroke-opacity: 1; stroke-width: 2px;"/></g><g class="legendsymbols"><g class="legendpoints"/></g></g><rect class="legendtoggle" x="0" y="-9.5" width="122.71875" height="19" style="fill: rgb(0, 0, 0); fill-opacity: 0;"/></g><g class="traces" transform="translate(0,71.5)" style="opacity: 1;"><text class="legendtext" text-anchor="start" x="40" y="4.680000000000001" style="font-family: 'Open Sans', verdana, arial, sans-serif; font-size: 12px; fill: rgb(42, 63, 95); fill-opacity: 1; white-space: pre;">Test Precision</text><g class="layers" style="opacity: 1;"><g class="legendfill"/><g class="legendlines"><path class="js-line" d="M5,0h30" style="fill: none; stroke: rgb(255, 165, 0); stroke-opacity: 1; stroke-width: 2px;"/></g><g class="legendsymbols"><g class="legendpoints"/></g></g><rect class="legendtoggle" x="0" y="-9.5" width="122.71875" height="19" style="fill: rgb(0, 0, 0); fill-opacity: 0;"/></g><g class="traces" transform="translate(0,90.5)" style="opacity: 1;"><text class="legendtext" text-anchor="start" x="40" y="4.680000000000001" style="font-family: 'Open Sans', verdana, arial, sans-serif; font-size: 12px; fill: rgb(42, 63, 95); fill-opacity: 1; white-space: pre;">Train Recall</text><g class="layers" style="opacity: 1;"><g class="legendfill"/><g class="legendlines"><path class="js-line" d="M5,0h30" style="fill: none; stroke: rgb(128, 0, 128); stroke-opacity: 1; stroke-width: 2px;"/></g><g class="legendsymbols"><g class="legendpoints"/></g></g><rect class="legendtoggle" x="0" y="-9.5" width="122.71875" height="19" style="fill: rgb(0, 0, 0); fill-opacity: 0;"/></g><g class="traces" transform="translate(0,109.5)" style="opacity: 1;"><text class="legendtext" text-anchor="start" x="40" y="4.680000000000001" style="font-family: 'Open Sans', verdana, arial, sans-serif; font-size: 12px; fill: rgb(42, 63, 95); fill-opacity: 1; white-space: pre;">Test Recall</text><g class="layers" style="opacity: 1;"><g class="legendfill"/><g class="legendlines"><path class="js-line" d="M5,0h30" style="fill: none; stroke: rgb(255, 192, 203); stroke-opacity: 1; stroke-width: 2px;"/></g><g class="legendsymbols"><g class="legendpoints"/></g></g><rect class="legendtoggle" x="0" y="-9.5" width="122.71875" height="19" style="fill: rgb(0, 0, 0); fill-opacity: 0;"/></g><g class="traces" transform="translate(0,128.5)" style="opacity: 1;"><text class="legendtext" text-anchor="start" x="40" y="4.680000000000001" style="font-family: 'Open Sans', verdana, arial, sans-serif; font-size: 12px; fill: rgb(42, 63, 95); fill-opacity: 1; white-space: pre;">Train F1</text><g class="layers" style="opacity: 1;"><g class="legendfill"/><g class="legendlines"><path class="js-line" d="M5,0h30" style="fill: none; stroke: rgb(165, 42, 42); stroke-opacity: 1; stroke-width: 2px;"/></g><g class="legendsymbols"><g class="legendpoints"/></g></g><rect class="legendtoggle" x="0" y="-9.5" width="122.71875" height="19" style="fill: rgb(0, 0, 0); fill-opacity: 0;"/></g><g class="traces" transform="translate(0,147.5)" style="opacity: 1;"><text class="legendtext" text-anchor="start" x="40" y="4.680000000000001" style="font-family: 'Open Sans', verdana, arial, sans-serif; font-size: 12px; fill: rgb(42, 63, 95); fill-opacity: 1; white-space: pre;">Test F1</text><g class="layers" style="opacity: 1;"><g class="legendfill"/><g class="legendlines"><path class="js-line" d="M5,0h30" style="fill: none; stroke: rgb(128, 128, 128); stroke-opacity: 1; stroke-width: 2px;"/></g><g class="legendsymbols"><g class="legendpoints"/></g></g><rect class="legendtoggle" x="0" y="-9.5" width="122.71875" height="19" style="fill: rgb(0, 0, 0); fill-opacity: 0;"/></g></g></g><rect class="scrollbar" rx="20" ry="3" width="0" height="0" x="0" y="0" style="fill: rgb(128, 139, 164); fill-opacity: 1;"/></g><g class="g-gtitle"><text class="gtitle" x="51.2" y="50" text-anchor="start" dy="0em" style="font-family: 'Open Sans', verdana, arial, sans-serif; font-size: 17px; fill: rgb(42, 63, 95); opacity: 1; font-weight: normal; white-space: pre;">Training Metrics - logs/FakeNewsNet-gossipcop_max-vocab=15000_pre=v2_text_domain_T=250_s=5.log</text></g><g class="g-xtitle"><text class="xtitle" x="506" y="537.3" text-anchor="middle" style="font-family: 'Open Sans', verdana, arial, sans-serif; font-size: 14px; fill: rgb(42, 63, 95); opacity: 1; font-weight: normal; white-space: pre;">Epoch</text></g><g class="g-ytitle"><text class="ytitle" transform="rotate(-90,103.965625,298)" x="103.965625" y="298" text-anchor="middle" style="font-family: 'Open Sans', verdana, arial, sans-serif; font-size: 14px; fill: rgb(42, 63, 95); opacity: 1; font-weight: normal; white-space: pre;">Metric Score</text></g></g><g class="menulayer"><g class="updatemenu-container" style="cursor: pointer;"><g class="updatemenu-header-group" transform="translate(12,60)"><g class="updatemenu-header" transform="translate(1,1)" style="pointer-events: all;"><rect class="updatemenu-item-rect" rx="2" ry="2" shape-rendering="crispEdges" x="0" y="0" width="167" height="33" style="stroke: rgb(190, 200, 217); stroke-opacity: 1; fill: rgb(255, 255, 255); fill-opacity: 1; stroke-width: 1px;"/><text class="updatemenu-item-text" text-anchor="start" data-notex="1" x="12" y="19.5" style="font-family: 'Open Sans', verdana, arial, sans-serif; font-size: 12px; fill: rgb(42, 63, 95); fill-opacity: 1; white-space: pre;">All</text></g><text class="updatemenu-header-arrow" text-anchor="end" x="163" y="19.5" style="font-family: 'Open Sans', verdana, arial, sans-serif; font-size: 12px; fill: rgb(42, 63, 95); fill-opacity: 1;">▼</text></g><g class="updatemenu-dropdown-button-group" updatemenu-active-index="-1" style="pointer-events: all;"><rect class="scrollbox-bg" opacity="0" x="0" y="0" width="0" height="0" style="pointer-events: all;"/></g></g></g></svg>