<svg class="main-svg" xmlns="http://www.w3.org/2000/svg" xmlns:xlink="http://www.w3.org/1999/xlink" width="1024" height="576" style="" viewBox="0 0 1024 576"><rect x="0" y="0" width="1024" height="576" style="fill: rgb(255, 255, 255); fill-opacity: 1;"/><defs id="defs-2bb23a"><g class="clips"><clipPath id="clip2bb23axyplot" class="plotclip"><rect width="726" height="396"/></clipPath><clipPath class="axesclip" id="clip2bb23ax"><rect x="143" y="0" width="726" height="576"/></clipPath><clipPath class="axesclip" id="clip2bb23ay"><rect x="0" y="100" width="1024" height="396"/></clipPath><clipPath class="axesclip" id="clip2bb23axy"><rect x="143" y="100" width="726" height="396"/></clipPath></g><g class="gradients"/><g class="patterns"/></defs><g class="bglayer"><rect class="bg" x="143" y="100" width="726" height="396" style="fill: rgb(229, 236, 246); fill-opacity: 1; stroke-width: 0;"/></g><g class="layer-below"><g class="imagelayer"/><g class="shapelayer"/></g><g class="cartesianlayer"><g class="subplot xy"><g class="layer-subplot"><g class="shapelayer"/><g class="imagelayer"/></g><g class="minor-gridlayer"><g class="x"/><g class="y"/></g><g class="gridlayer"><g class="x"><path class="xgrid crisp" transform="translate(235.57999999999998,0)" d="M0,100v396" style="stroke: rgb(255, 255, 255); stroke-opacity: 1; stroke-width: 1px;"/><path class="xgrid crisp" transform="translate(333.03,0)" d="M0,100v396" style="stroke: rgb(255, 255, 255); stroke-opacity: 1; stroke-width: 1px;"/><path class="xgrid crisp" transform="translate(430.48,0)" d="M0,100v396" style="stroke: rgb(255, 255, 255); stroke-opacity: 1; stroke-width: 1px;"/><path class="xgrid crisp" transform="translate(527.9300000000001,0)" d="M0,100v396" style="stroke: rgb(255, 255, 255); stroke-opacity: 1; stroke-width: 1px;"/><path class="xgrid crisp" transform="translate(625.38,0)" d="M0,100v396" style="stroke: rgb(255, 255, 255); stroke-opacity: 1; stroke-width: 1px;"/><path class="xgrid crisp" transform="translate(722.83,0)" d="M0,100v396" style="stroke: rgb(255, 255, 255); stroke-opacity: 1; stroke-width: 1px;"/><path class="xgrid crisp" transform="translate(820.28,0)" d="M0,100v396" style="stroke: rgb(255, 255, 255); stroke-opacity: 1; stroke-width: 1px;"/></g><g class="y"><path class="ygrid crisp" transform="translate(0,434.63)" d="M143,0h726" style="stroke: rgb(255, 255, 255); stroke-opacity: 1; stroke-width: 1px;"/><path class="ygrid crisp" transform="translate(0,342.25)" d="M143,0h726" style="stroke: rgb(255, 255, 255); stroke-opacity: 1; stroke-width: 1px;"/><path class="ygrid crisp" transform="translate(0,249.87)" d="M143,0h726" style="stroke: rgb(255, 255, 255); stroke-opacity: 1; stroke-width: 1px;"/><path class="ygrid crisp" transform="translate(0,157.49)" d="M143,0h726" style="stroke: rgb(255, 255, 255); stroke-opacity: 1; stroke-width: 1px;"/></g></g><g class="zerolinelayer"/><path class="xlines-below"/><path class="ylines-below"/><g class="overlines-below"/><g class="xaxislayer-below"/><g class="yaxislayer-below"/><g class="overaxes-below"/><g class="plot" transform="translate(143,100)" clip-path="url(#clip2bb23axyplot)"><g class="scatterlayer mlayer"><g class="trace scatter traceb6d988" style="stroke-miterlimit: 2; opacity: 1;"><g class="fills"/><g class="errorbars"/><g class="lines"><path class="js-line" d="M0,305.81L4.87,279.39L9.74,373.61L14.62,235.6L19.49,194.03L24.36,165.57L29.23,167.79L34.11,170.01L38.98,187.56L43.85,174.44L48.72,154.67L53.6,154.67L58.47,156.89L63.34,163.36L68.21,154.67L73.09,141.56L77.96,132.87L82.83,139.34L87.7,128.44L92.58,126.22L97.45,130.66L102.32,115.32L107.19,119.57L112.07,121.79L116.94,117.54L121.81,119.57L126.68,132.87L131.56,132.87L136.43,134.9L141.3,104.42L146.17,124L151.05,106.45L155.92,99.99L160.79,106.45L165.66,106.45L170.54,93.33L175.41,108.67L180.28,102.2L185.15,121.79L190.03,108.67L194.9,99.99L199.77,97.77L204.64,110.89L209.52,108.67L214.39,126.22L219.26,110.89L224.13,110.89L229.01,121.79L233.88,106.45L238.75,110.89L243.62,86.87L248.5,95.55L253.37,119.57L258.24,139.34L263.11,108.67L267.99,97.77L272.86,91.12L282.6,95.55L287.48,78L292.35,86.87L297.22,82.43L302.09,104.42L306.97,97.77L311.84,86.87L316.71,80.22L321.58,128.44L326.46,99.99L331.33,89.08L336.2,82.43L341.07,80.22L345.95,71.53L350.82,80.22L355.69,73.75L360.56,69.32L365.44,86.87L375.18,82.43L380.05,95.55L384.93,91.12L389.8,108.67L394.67,73.75L399.54,80.22L404.42,73.75L409.29,71.53L414.16,73.75L419.03,67.1L423.91,69.32L428.78,62.66L433.65,60.63L438.52,80.22L443.4,71.53L448.27,71.53L453.14,75.97L458.01,62.66L462.89,60.63L467.76,60.63L472.63,51.76L477.5,56.2L482.38,53.98L487.25,58.41L492.12,51.76L496.99,62.66L501.87,73.75L506.74,62.66L511.61,60.63L516.48,64.88L521.36,67.1L526.23,56.2L531.1,58.41L535.97,64.88L545.72,51.76L550.59,60.63L555.46,56.2L560.34,86.87L565.21,64.88L570.08,56.2L579.83,60.63L584.7,78L589.57,69.32L594.44,64.88L599.32,67.1L604.19,64.88L609.06,58.41L613.93,58.41L618.81,53.98L623.68,62.66L628.55,60.63L633.42,51.76L638.3,67.1L643.17,47.33L648.04,56.2L652.91,53.98L657.79,53.98L662.66,67.1L667.53,64.88L672.4,67.1L677.28,80.22L682.15,62.66L687.02,69.32L691.89,60.63L696.77,56.2L701.64,73.75L706.51,51.76L711.38,60.63L716.26,58.41L721.13,60.63L726,51.76" style="vector-effect: none; fill: none; stroke: rgb(255, 0, 0); stroke-opacity: 1; stroke-width: 2px; opacity: 1;"/></g><g class="points"/><g class="text"/></g><g class="trace scatter trace8d0715" style="stroke-miterlimit: 2; opacity: 1;"><g class="fills"/><g class="errorbars"/><g class="lines"><path class="js-line" d="M0,233.57L4.87,189.96L9.74,355.51L14.62,207.33L19.49,128.99L24.36,94.07L29.23,111.44L43.85,137.68L48.72,137.68L53.6,85.39L58.47,111.44L63.34,102.76L68.21,111.44L73.09,111.44L77.96,102.76L82.83,128.99L87.7,85.39L97.45,120.31L102.32,111.44L107.19,102.76L112.07,137.68L116.94,155.04L121.81,137.68L126.68,137.68L131.56,128.99L136.43,146.36L141.3,102.76L146.17,120.31L151.05,111.44L155.92,120.31L160.79,120.31L165.66,102.76L170.54,102.76L175.41,120.31L180.28,94.07L185.15,111.44L190.03,120.31L194.9,128.99L199.77,102.76L204.64,128.99L209.52,94.07L214.39,146.36L219.26,137.68L229.01,137.68L233.88,155.04L238.75,155.04L243.62,94.07L248.5,146.36L253.37,128.99L258.24,163.73L263.11,120.31L267.99,102.76L272.86,94.07L277.73,111.44L282.6,137.68L287.48,111.44L292.35,94.07L297.22,94.07L302.09,85.39L306.97,76.71L311.84,94.07L316.71,94.07L321.58,172.6L326.46,111.44L331.33,102.76L336.2,102.76L341.07,120.31L345.95,59.15L350.82,85.39L355.69,68.02L360.56,59.15L370.31,76.71L375.18,94.07L380.05,120.31L384.93,128.99L389.8,146.36L394.67,111.44L404.42,128.99L409.29,111.44L414.16,85.39L419.03,94.07L428.78,94.07L433.65,102.76L438.52,68.02L443.4,111.44L448.27,120.31L453.14,120.31L462.89,102.76L467.76,137.68L472.63,120.31L477.5,111.44L482.38,120.31L487.25,111.44L492.12,85.39L496.99,111.44L501.87,128.99L506.74,102.76L511.61,120.31L516.48,111.44L521.36,94.07L526.23,102.76L531.1,94.07L535.97,163.73L540.85,120.31L545.72,111.44L550.59,111.44L555.46,137.68L560.34,198.65L565.21,163.73L570.08,137.68L574.95,137.68L579.83,111.44L584.7,94.07L589.57,94.07L594.44,102.76L599.32,111.44L604.19,137.68L609.06,94.07L613.93,111.44L618.81,128.99L623.68,102.76L628.55,85.39L633.42,85.39L638.3,102.76L643.17,111.44L648.04,111.44L652.91,94.07L657.79,102.76L662.66,76.71L667.53,85.39L672.4,102.76L677.28,137.68L682.15,111.44L687.02,137.68L691.89,128.99L696.77,120.31L701.64,137.68L706.51,111.44L711.38,155.04L716.26,111.44L721.13,128.99L726,120.31" style="vector-effect: none; fill: none; stroke: rgb(0, 0, 255); stroke-opacity: 1; stroke-width: 2px; opacity: 1;"/></g><g class="points"/><g class="text"/></g><g class="trace scatter trace3bf569" style="stroke-miterlimit: 2; opacity: 1;"><g class="fills"/><g class="errorbars"/><g class="lines"><path class="js-line" d="M0,311.35L4.87,291.03L9.74,295.46L19.49,202.9L24.36,161.69L29.23,165.39L34.11,178.51L38.98,196.43L43.85,181.65L48.72,154.49L53.6,148.21L63.34,156.89L68.21,148.21L73.09,119.94L77.96,103.68L82.83,113.66L87.7,104.97L92.58,91.49L97.45,101.83L102.32,86.68L107.19,91.67L112.07,112.55L116.94,106.64L121.81,106.08L126.68,131.58L131.56,132.32L136.43,135.09L141.3,97.58L146.17,104.42L155.92,76.34L160.79,92.78L165.66,96.29L170.54,85.2L175.41,108.48L180.28,93.7L185.15,117.54L190.03,107.01L194.9,93.89L199.77,90.01L204.64,116.06L209.52,111.26L214.39,131.39L219.26,115.69L224.13,115.14L229.01,126.41L233.88,103.31L238.75,105.34L243.62,67.47L248.5,87.05L253.37,96.47L258.24,127.51L263.11,81.51L267.99,73.01L272.86,70.98L277.73,82.99L282.6,87.05L287.48,57.68L292.35,70.24L297.22,67.84L302.09,95.55L306.97,88.9L311.84,72.83L316.71,71.9L321.58,136.75L326.46,103.87L331.33,89.45L336.2,81.32L341.07,74.12L345.95,49.55L350.82,70.79L355.69,56.94L360.56,52.13L365.44,68.76L375.18,67.84L380.05,87.05L384.93,89.08L389.8,109.96L394.67,63.22L399.54,67.47L404.42,54.17L409.29,52.5L414.16,43.08L419.03,47.51L423.91,46.22L428.78,41.23L433.65,28.11L438.52,29.78L448.27,46.41L453.14,49.73L458.01,38.09L462.89,37.91L467.76,55.27L472.63,32.73L477.5,31.62L482.38,26.64L487.25,29.96L492.12,19.8L496.99,19.98L501.87,31.81L511.61,34.95L516.48,39.75L521.36,38.09L526.23,31.62L531.1,34.77L535.97,53.61L540.85,48.25L545.72,41.6L550.59,47.7L555.46,40.31L560.34,90.01L565.21,58.97L570.08,41.6L574.95,37.72L579.83,36.43L584.7,48.07L589.57,34.4L594.44,49.92L599.32,57.68L604.19,53.61L609.06,40.68L613.93,37.72L618.81,37.17L623.68,48.07L628.55,24.42L633.42,19.8L638.3,43.08L643.17,23.31L648.04,24.79L652.91,29.78L667.53,51.21L672.4,57.68L677.28,82.8L682.15,41.23L687.02,60.63L691.89,45.11L696.77,40.31L701.64,59.52L706.51,38.09L711.38,47.7L716.26,31.62L721.13,22.39L726,19.8" style="vector-effect: none; fill: none; stroke: rgb(0, 128, 0); stroke-opacity: 1; stroke-width: 2px; opacity: 1;"/></g><g class="points"/><g class="text"/></g><g class="trace scatter trace6acd9f" style="stroke-miterlimit: 2; opacity: 1;"><g class="fills"/><g class="errorbars"/><g class="lines"><path class="js-line" d="M0,249.27L4.87,218.05L9.74,260.17L14.62,227.65L19.49,156.15L24.36,117.54L29.23,135.09L34.11,146.91L38.98,155.97L43.85,165.21L48.72,165.21L53.6,105.53L58.47,135.09L63.34,122.34L68.21,135.09L73.09,133.24L77.96,112.55L82.83,140.82L87.7,96.47L97.45,136.2L102.32,124.56L107.19,107.93L112.07,163.91L116.94,181.83L121.81,162.8L126.68,163.91L131.56,156.15L136.43,174.44L141.3,126.41L146.17,141.74L151.05,130.84L155.92,139.15L160.79,143.59L165.66,122.34L170.54,127.51L175.41,146.91L180.28,116.06L185.15,137.31L190.03,146.73L194.9,155.78L199.77,127.51L204.64,155.41L209.52,119.39L214.39,173.52L219.26,165.21L229.01,165.21L233.88,182.76L238.75,183.5L243.62,111.44L248.5,173.89L253.37,147.65L258.24,191.81L263.11,139.15L267.99,119.57L272.86,111.44L282.6,164.84L287.48,133.24L292.35,111.44L297.22,111.44L302.09,105.53L306.97,92.04L311.84,108.3L316.71,117.54L321.58,196.98L326.46,137.31L331.33,128.62L336.2,128.62L341.07,146.73L345.95,68.76L350.82,103.13L355.69,80.59L360.56,75.6L365.44,80.59L370.31,94.81L375.18,117.54L380.05,146.18L384.93,155.78L389.8,174.44L394.67,136.38L404.42,153.93L409.29,133.24L414.16,103.13L419.03,116.06L423.91,111.44L428.78,111.44L433.65,116.43L438.52,72.27L443.4,130.84L448.27,143.59L453.14,139.15L458.01,137.31L462.89,126.41L467.76,165.21L472.63,146.18L477.5,135.09L482.38,146.18L487.25,133.24L492.12,100.17L496.99,127.88L501.87,144.51L506.74,124.56L511.61,143.59L516.48,135.09L521.36,104.42L526.23,124.56L531.1,114.03L535.97,192.36L540.85,146.73L545.72,137.68L550.59,136.38L555.46,165.21L560.34,226.36L565.21,192.92L570.08,163.91L574.95,162.8L579.83,127.88L584.7,108.3L589.57,104.42L594.44,124.56L599.32,135.09L604.19,164.84L609.06,111.44L613.93,133.24L618.81,153.93L623.68,122.34L628.55,92.41L633.42,92.41L638.3,119.57L643.17,127.88L648.04,120.49L652.91,108.3L657.79,116.43L662.66,79.85L667.53,92.41L672.4,122.34L677.28,165.21L682.15,135.09L687.02,164.84L691.89,150.24L696.77,141.74L701.64,160.96L706.51,130.84L711.38,180.36L716.26,115.87L721.13,140.82L726,136.2" style="vector-effect: none; fill: none; stroke: rgb(255, 165, 0); stroke-opacity: 1; stroke-width: 2px; opacity: 1;"/></g><g class="points"/><g class="text"/></g><g class="trace scatter traceaf64f4" style="stroke-miterlimit: 2; opacity: 1;"><g class="fills"/><g class="errorbars"/><g class="lines"><path class="js-line" d="M0,301.56L4.87,285.48L9.74,320.22L14.62,240.59L19.49,213.43L24.36,196.98L29.23,198.09L34.11,187.01L38.98,205.67L48.72,181.65L53.6,186.82L58.47,187.93L63.34,196.43L68.21,186.82L73.09,181.28L77.96,175.18L82.83,180.73L87.7,167.79L92.58,170.19L97.45,172.6L102.32,155.78L107.19,160.22L112.07,152.64L116.94,148.95L121.81,153.01L126.68,158.55L131.56,157.81L136.43,159.66L141.3,131.76L146.17,161.14L151.05,140.26L155.92,136.75L160.79,138.78L165.66,136.57L170.54,120.86L175.41,131.21L180.28,130.66L185.15,149.13L190.03,132.69L194.9,126.59L199.77,125.48L204.64,127.33L209.52,128.25L214.39,144.14L219.26,128.07L224.13,128.81L229.01,140.45L233.88,131.58L238.75,138.23L243.62,120.31L248.5,123.45L253.37,158L258.24,173.52L263.11,147.84L267.99,134.9L272.86,125.48L277.73,122.34L282.6,123.45L287.48,111.44L292.35,118.83L297.22,112.92L302.09,133.24L306.97,126.22L311.84,117.54L316.71,106.64L321.58,141L326.46,117.17L331.33,109.22L336.2,103.5L341.07,105.34L345.95,104.97L350.82,107.38L355.69,104.6L360.56,100.17L365.44,119.57L375.18,112.92L380.05,123.45L384.93,114.03L389.8,129.73L394.67,101.09L399.54,109.59L409.29,103.5L414.16,111.26L419.03,99.06L423.91,103.13L428.78,95.18L433.65,97.77L438.52,125.48L443.4,109.96L448.27,106.45L453.14,111.63L458.01,96.66L462.89,93.33L467.76,83.17L472.63,82.25L477.5,89.64L482.38,88.53L487.25,93.7L492.12,87.98L496.99,103.87L501.87,115.51L506.74,98.88L511.61,94.81L521.36,103.31L526.23,89.64L531.1,91.49L535.97,92.04L545.72,77.08L550.59,88.35L555.46,85.2L560.34,103.68L565.21,88.53L570.08,84.47L574.95,90.01L579.83,94.07L584.7,115.69L589.57,108.11L594.44,94.26L599.32,93.15L604.19,92.04L609.06,88.53L613.93,90.01L618.81,83.36L628.55,99.25L633.42,87.98L638.3,101.28L643.17,79.85L648.04,92.41L652.91,87.05L657.79,83.36L662.66,100.54L667.53,93.52L672.4,93.15L677.28,97.21L682.15,95.18L687.02,95.18L691.89,89.82L696.77,85.2L701.64,103.31L706.51,79.29L711.38,88.35L716.26,92.96L721.13,99.99L726,87.98" style="vector-effect: none; fill: none; stroke: rgb(128, 0, 128); stroke-opacity: 1; stroke-width: 2px; opacity: 1;"/></g><g class="points"/><g class="text"/></g><g class="trace scatter trace10f6fd" style="stroke-miterlimit: 2; opacity: 1;"><g class="fills"/><g class="errorbars"/><g class="lines"><path class="js-line" d="M0,218.05L4.87,198.46L9.74,260.17L14.62,197.35L19.49,145.25L24.36,117.54L29.23,141.37L34.11,133.43L38.98,140.26L43.85,152.09L48.72,157.08L53.6,115.69L58.47,141.37L63.34,139.34L68.21,141.37L73.09,146.18L77.96,154.3L82.83,184.79L87.7,130.47L97.45,167.98L102.32,161.14L107.19,159.11L112.07,166.87L116.94,190.7L121.81,171.86L126.68,166.87L131.56,145.25L136.43,163.91L141.3,129.55L146.17,158.18L151.05,151.16L155.92,162.99L160.79,153.2L170.54,124.56L175.41,133.43L180.28,122.53L185.15,131.39L190.03,138.23L194.9,150.24L199.77,124.56L204.64,135.27L209.52,107.75L214.39,154.12L219.26,152.09L224.13,152.09L229.01,152.09L233.88,185.71L238.75,180.73L243.62,132.5L248.5,173.89L253.37,174.81L258.24,197.54L263.11,162.99L267.99,144.33L272.86,132.5L277.73,136.38L282.6,162.06L292.35,132.5L297.22,132.5L302.09,115.69L306.97,113.66L311.84,137.49L316.71,117.54L321.58,169.82L326.46,116.61L331.33,114.58L336.2,114.58L341.07,138.23L345.95,99.99L350.82,120.68L355.69,106.82L360.56,90.01L365.44,106.82L370.31,108.85L375.18,117.54L380.05,143.22L384.93,150.24L389.8,163.91L394.67,136.38L404.42,160.03L409.29,146.18L414.16,120.68L419.03,122.53L423.91,132.5L428.78,132.5L433.65,149.32L438.52,116.8L443.4,151.16L448.27,153.2L453.14,162.99L458.01,131.39L462.89,129.55L467.76,152.09L472.63,143.22L477.5,141.37L482.38,143.22L487.25,146.18L492.12,125.67L496.99,156.15L501.87,179.8L506.74,134.35L511.61,153.2L516.48,141.37L521.36,142.3L526.23,134.35L531.1,127.51L535.97,177.77L540.85,138.23L545.72,126.41L550.59,136.38L555.46,157.08L560.34,205.3L565.21,182.76L570.08,166.87L574.95,171.86L579.83,156.15L584.7,137.49L589.57,142.3L594.44,134.35L599.32,141.37L604.19,162.06L609.06,132.5L613.93,146.18L618.81,160.03L623.68,139.34L628.55,135.46L633.42,135.46L638.3,144.33L643.17,156.15L648.04,166.13L652.91,137.49L657.79,149.32L662.66,128.62L667.53,135.46L672.4,139.34L677.28,152.09L682.15,141.37L687.02,162.06L691.89,170.01L696.77,158.18L701.64,176.85L706.51,151.16L711.38,195.51L716.26,170.93L721.13,184.79L726,167.98" style="vector-effect: none; fill: none; stroke: rgb(255, 192, 203); stroke-opacity: 1; stroke-width: 2px; opacity: 1;"/></g><g class="points"/><g class="text"/></g><g class="trace scatter tracee6eeb1" style="stroke-miterlimit: 2; opacity: 1;"><g class="fills"/><g class="errorbars"/><g class="lines"><path class="js-line" d="M0,311.16L4.87,288.99L9.74,376.2L14.62,244.47L19.49,209.36L24.36,187.19L29.23,188.67L34.11,183.5L38.98,201.97L43.85,189.41L48.72,173.15L53.6,176.29L58.47,177.95L63.34,186.08L68.21,176.29L77.96,160.22L82.83,166.5L87.7,153.57L92.58,154.49L97.45,157.63L102.32,140.45L107.19,145.07L112.07,141.37L116.94,137.12L121.81,140.45L126.68,149.87L131.56,149.32L136.43,151.53L141.3,121.23L146.17,147.47L151.05,126.96L155.92,121.97L160.79,126.22L165.66,124.93L170.54,109.96L175.41,123.27L180.28,119.57L185.15,139.34L190.03,124L194.9,116.24L199.77,114.58L204.64,122.71L209.52,121.97L214.39,139.15L219.26,123.08L224.13,123.45L229.01,134.9L233.88,122.34L238.75,127.88L243.62,106.27L248.5,112.36L253.37,143.59L258.24,161.69L263.11,132.69L267.99,119.75L272.86,111.26L277.73,110.7L282.6,112.36L287.48,96.84L292.35,105.53L297.22,99.99L302.09,121.97L306.97,114.95L316.71,95.74L321.58,138.97L326.46,111.81L331.33,101.83L336.2,95.55L341.07,95L345.95,90.19L350.82,96.11L360.56,86.5L365.44,105.9L375.18,99.99L380.05,112.36L384.93,105.34L389.8,122.53L394.67,89.27L399.54,97.21L404.42,91.86L409.29,89.45L414.16,94.63L419.03,84.65L423.91,87.98L428.78,80.4L433.65,80.59L438.52,106.45L443.4,92.96L448.27,90.93L453.14,95.92L458.01,81.14L462.89,78.37L467.76,73.56L472.63,68.02L477.5,73.93L482.38,72.27L487.25,77.26L492.12,70.79L496.99,85.2L501.87,97.21L506.74,82.43L511.61,79.11L516.48,83.73L521.36,87.05L526.23,73.93L531.1,76.15L535.97,80.22L545.72,65.62L550.59,75.78L555.46,71.9L560.34,98.32L565.21,78.55L570.08,71.53L579.83,78.74L584.7,99.43L594.44,81.14L599.32,81.88L604.19,80.22L609.06,74.67L613.93,75.41L618.81,69.68L623.68,78.74L628.55,81.32L633.42,70.79L638.3,85.94L643.17,64.33L648.04,75.6L652.91,71.53L657.79,69.68L662.66,85.39L667.53,80.77L672.4,81.88L677.28,91.67L682.15,80.4L687.02,84.1L691.89,76.52L696.77,71.9L701.64,90.38L706.51,66.54L711.38,75.78L716.26,76.89L721.13,81.88L726,70.79" style="vector-effect: none; fill: none; stroke: rgb(165, 42, 42); stroke-opacity: 1; stroke-width: 2px; opacity: 1;"/></g><g class="points"/><g class="text"/></g><g class="trace scatter trace51fea8" style="stroke-miterlimit: 2; opacity: 1;"><g class="fills"/><g class="errorbars"/><g class="lines"><path class="js-line" d="M0,247.05L4.87,211.21L9.74,355.51L14.62,222.3L19.49,151.35L24.36,117.54L29.23,138.23L34.11,141.19L38.98,149.5L43.85,159.66L48.72,161.51L53.6,111.07L58.47,138.23L63.34,131.95L68.21,138.23L73.09,140.45L77.96,138.6L82.83,168.9L87.7,116.98L97.45,155.6L102.32,147.1L107.19,141L112.07,165.57L116.94,186.64L121.81,167.61L126.68,165.57L131.56,151.35L136.43,169.82L141.3,127.88L146.17,150.98L151.05,142.48L155.92,153.2L160.79,148.76L165.66,131.95L170.54,126.04L175.41,141.19L180.28,119.39L185.15,134.54L190.03,142.85L194.9,153.2L199.77,126.04L204.64,147.84L209.52,114.21L214.39,166.13L219.26,159.66L229.01,159.66L233.88,184.24L238.75,182.2L243.62,123.45L248.5,173.89L253.37,163.91L258.24,194.77L263.11,153.2L267.99,133.98L272.86,123.45L277.73,136.38L282.6,163.54L287.48,140.45L292.35,123.45L297.22,123.45L302.09,111.07L306.97,104.42L311.84,125.48L316.71,117.54L321.58,189.41L326.46,129.36L331.33,122.53L336.2,122.53L341.07,142.85L345.95,87.24L350.82,112.92L355.69,95.74L360.56,83.54L365.44,95.74L370.31,102.39L375.18,117.54L380.05,144.7L384.93,153.2L389.8,169.82L394.67,136.38L399.54,146.73L404.42,157.08L409.29,140.45L414.16,112.92L419.03,119.39L423.91,123.45L428.78,123.45L433.65,136.2L438.52,99.8L443.4,142.48L448.27,148.76L453.14,153.2L458.01,134.54L462.89,127.88L467.76,159.66L472.63,144.7L477.5,138.23L482.38,144.7L487.25,140.45L492.12,114.95L496.99,144.7L501.87,166.31L506.74,129.92L511.61,148.76L516.48,138.23L521.36,127.7L526.23,129.92L531.1,121.42L535.97,186.45L540.85,142.85L545.72,132.69L550.59,136.38L555.46,161.51L560.34,219.34L565.21,188.3L570.08,165.57L574.95,167.61L579.83,144.7L584.7,125.48L594.44,129.92L599.32,138.23L604.19,163.54L609.06,123.45L618.81,157.08L623.68,131.95L628.55,119.2L633.42,119.2L638.3,133.98L643.17,144.7L648.04,149.5L652.91,125.48L657.79,136.2L662.66,110.7L667.53,119.2L672.4,131.95L677.28,159.66L682.15,138.23L687.02,163.54L691.89,161.51L696.77,150.98L701.64,170.01L706.51,142.48L711.38,188.85L716.26,152.09L721.13,168.9L726,155.6" style="vector-effect: none; fill: none; stroke: rgb(128, 128, 128); stroke-opacity: 1; stroke-width: 2px; opacity: 1;"/></g><g class="points"/><g class="text"/></g></g></g><g class="overplot"/><path class="xlines-above crisp" d="M0,0" style="fill: none;"/><path class="ylines-above crisp" d="M0,0" style="fill: none;"/><g class="overlines-above"/><g class="xaxislayer-above"><g class="xtick"><text text-anchor="middle" x="0" y="509" transform="translate(235.57999999999998,0)" style="font-family: 'Open Sans', verdana, arial, sans-serif; font-size: 12px; fill: rgb(42, 63, 95); fill-opacity: 1; white-space: pre; opacity: 1;">20</text></g><g class="xtick"><text text-anchor="middle" x="0" y="509" style="font-family: 'Open Sans', verdana, arial, sans-serif; font-size: 12px; fill: rgb(42, 63, 95); fill-opacity: 1; white-space: pre; opacity: 1;" transform="translate(333.03,0)">40</text></g><g class="xtick"><text text-anchor="middle" x="0" y="509" style="font-family: 'Open Sans', verdana, arial, sans-serif; font-size: 12px; fill: rgb(42, 63, 95); fill-opacity: 1; white-space: pre; opacity: 1;" transform="translate(430.48,0)">60</text></g><g class="xtick"><text text-anchor="middle" x="0" y="509" style="font-family: 'Open Sans', verdana, arial, sans-serif; font-size: 12px; fill: rgb(42, 63, 95); fill-opacity: 1; white-space: pre; opacity: 1;" transform="translate(527.9300000000001,0)">80</text></g><g class="xtick"><text text-anchor="middle" x="0" y="509" style="font-family: 'Open Sans', verdana, arial, sans-serif; font-size: 12px; fill: rgb(42, 63, 95); fill-opacity: 1; white-space: pre; opacity: 1;" transform="translate(625.38,0)">100</text></g><g class="xtick"><text text-anchor="middle" x="0" y="509" style="font-family: 'Open Sans', verdana, arial, sans-serif; font-size: 12px; fill: rgb(42, 63, 95); fill-opacity: 1; white-space: pre; opacity: 1;" transform="translate(722.83,0)">120</text></g><g class="xtick"><text text-anchor="middle" x="0" y="509" style="font-family: 'Open Sans', verdana, arial, sans-serif; font-size: 12px; fill: rgb(42, 63, 95); fill-opacity: 1; white-space: pre; opacity: 1;" transform="translate(820.28,0)">140</text></g></g><g class="yaxislayer-above"><g class="ytick"><text text-anchor="end" x="142" y="4.199999999999999" transform="translate(0,434.63)" style="font-family: 'Open Sans', verdana, arial, sans-serif; font-size: 12px; fill: rgb(42, 63, 95); fill-opacity: 1; white-space: pre; opacity: 1;">70</text></g><g class="ytick"><text text-anchor="end" x="142" y="4.199999999999999" style="font-family: 'Open Sans', verdana, arial, sans-serif; font-size: 12px; fill: rgb(42, 63, 95); fill-opacity: 1; white-space: pre; opacity: 1;" transform="translate(0,342.25)">75</text></g><g class="ytick"><text text-anchor="end" x="142" y="4.199999999999999" style="font-family: 'Open Sans', verdana, arial, sans-serif; font-size: 12px; fill: rgb(42, 63, 95); fill-opacity: 1; white-space: pre; opacity: 1;" transform="translate(0,249.87)">80</text></g><g class="ytick"><text text-anchor="end" x="142" y="4.199999999999999" style="font-family: 'Open Sans', verdana, arial, sans-serif; font-size: 12px; fill: rgb(42, 63, 95); fill-opacity: 1; white-space: pre; opacity: 1;" transform="translate(0,157.49)">85</text></g></g><g class="overaxes-above"/></g></g><g class="polarlayer"/><g class="smithlayer"/><g class="ternarylayer"/><g class="geolayer"/><g class="funnelarealayer"/><g class="pielayer"/><g class="iciclelayer"/><g class="treemaplayer"/><g class="sunburstlayer"/><g class="glimages"/><defs id="topdefs-2bb23a"><g class="clips"/><clipPath id="legend2bb23a"><rect width="128" height="162" x="0" y="0"/></clipPath></defs><g class="layer-above"><g class="imagelayer"/><g class="shapelayer"/></g><g class="infolayer"><g class="legend" pointer-events="all" transform="translate(883.52,100)"><rect class="bg" shape-rendering="crispEdges" width="128" height="162" x="0" y="0" style="stroke: rgb(68, 68, 68); stroke-opacity: 1; fill: rgb(255, 255, 255); fill-opacity: 1; stroke-width: 0px;"/><g class="scrollbox" transform="" clip-path="url(#legend2bb23a)"><g class="groups"><g class="traces" transform="translate(0,14.5)" style="opacity: 1;"><text class="legendtext" text-anchor="start" x="40" y="4.680000000000001" style="font-family: 'Open Sans', verdana, arial, sans-serif; font-size: 12px; fill: rgb(42, 63, 95); fill-opacity: 1; white-space: pre;">Train Accuracy</text><g class="layers" style="opacity: 1;"><g class="legendfill"/><g class="legendlines"><path class="js-line" d="M5,0h30" style="fill: none; stroke: rgb(255, 0, 0); stroke-opacity: 1; stroke-width: 2px;"/></g><g class="legendsymbols"><g class="legendpoints"/></g></g><rect class="legendtoggle" x="0" y="-9.5" width="122.71875" height="19" style="fill: rgb(0, 0, 0); fill-opacity: 0;"/></g><g class="traces" transform="translate(0,33.5)" style="opacity: 1;"><text class="legendtext" text-anchor="start" x="40" y="4.680000000000001" style="font-family: 'Open Sans', verdana, arial, sans-serif; font-size: 12px; fill: rgb(42, 63, 95); fill-opacity: 1; white-space: pre;">Test Accuracy</text><g class="layers" style="opacity: 1;"><g class="legendfill"/><g class="legendlines"><path class="js-line" d="M5,0h30" style="fill: none; stroke: rgb(0, 0, 255); stroke-opacity: 1; stroke-width: 2px;"/></g><g class="legendsymbols"><g class="legendpoints"/></g></g><rect class="legendtoggle" x="0" y="-9.5" width="122.71875" height="19" style="fill: rgb(0, 0, 0); fill-opacity: 0;"/></g><g class="traces" transform="translate(0,52.5)" style="opacity: 1;"><text class="legendtext" text-anchor="start" x="40" y="4.680000000000001" style="font-family: 'Open Sans', verdana, arial, sans-serif; font-size: 12px; fill: rgb(42, 63, 95); fill-opacity: 1; white-space: pre;">Train Precision</text><g class="layers" style="opacity: 1;"><g class="legendfill"/><g class="legendlines"><path class="js-line" d="M5,0h30" style="fill: none; stroke: rgb(0, 128, 0); stroke-opacity: 1; stroke-width: 2px;"/></g><g class="legendsymbols"><g class="legendpoints"/></g></g><rect class="legendtoggle" x="0" y="-9.5" width="122.71875" height="19" style="fill: rgb(0, 0, 0); fill-opacity: 0;"/></g><g class="traces" transform="translate(0,71.5)" style="opacity: 1;"><text class="legendtext" text-anchor="start" x="40" y="4.680000000000001" style="font-family: 'Open Sans', verdana, arial, sans-serif; font-size: 12px; fill: rgb(42, 63, 95); fill-opacity: 1; white-space: pre;">Test Precision</text><g class="layers" style="opacity: 1;"><g class="legendfill"/><g class="legendlines"><path class="js-line" d="M5,0h30" style="fill: none; stroke: rgb(255, 165, 0); stroke-opacity: 1; stroke-width: 2px;"/></g><g class="legendsymbols"><g class="legendpoints"/></g></g><rect class="legendtoggle" x="0" y="-9.5" width="122.71875" height="19" style="fill: rgb(0, 0, 0); fill-opacity: 0;"/></g><g class="traces" transform="translate(0,90.5)" style="opacity: 1;"><text class="legendtext" text-anchor="start" x="40" y="4.680000000000001" style="font-family: 'Open Sans', verdana, arial, sans-serif; font-size: 12px; fill: rgb(42, 63, 95); fill-opacity: 1; white-space: pre;">Train Recall</text><g class="layers" style="opacity: 1;"><g class="legendfill"/><g class="legendlines"><path class="js-line" d="M5,0h30" style="fill: none; stroke: rgb(128, 0, 128); stroke-opacity: 1; stroke-width: 2px;"/></g><g class="legendsymbols"><g class="legendpoints"/></g></g><rect class="legendtoggle" x="0" y="-9.5" width="122.71875" height="19" style="fill: rgb(0, 0, 0); fill-opacity: 0;"/></g><g class="traces" transform="translate(0,109.5)" style="opacity: 1;"><text class="legendtext" text-anchor="start" x="40" y="4.680000000000001" style="font-family: 'Open Sans', verdana, arial, sans-serif; font-size: 12px; fill: rgb(42, 63, 95); fill-opacity: 1; white-space: pre;">Test Recall</text><g class="layers" style="opacity: 1;"><g class="legendfill"/><g class="legendlines"><path class="js-line" d="M5,0h30" style="fill: none; stroke: rgb(255, 192, 203); stroke-opacity: 1; stroke-width: 2px;"/></g><g class="legendsymbols"><g class="legendpoints"/></g></g><rect class="legendtoggle" x="0" y="-9.5" width="122.71875" height="19" style="fill: rgb(0, 0, 0); fill-opacity: 0;"/></g><g class="traces" transform="translate(0,128.5)" style="opacity: 1;"><text class="legendtext" text-anchor="start" x="40" y="4.680000000000001" style="font-family: 'Open Sans', verdana, arial, sans-serif; font-size: 12px; fill: rgb(42, 63, 95); fill-opacity: 1; white-space: pre;">Train F1</text><g class="layers" style="opacity: 1;"><g class="legendfill"/><g class="legendlines"><path class="js-line" d="M5,0h30" style="fill: none; stroke: rgb(165, 42, 42); stroke-opacity: 1; stroke-width: 2px;"/></g><g class="legendsymbols"><g class="legendpoints"/></g></g><rect class="legendtoggle" x="0" y="-9.5" width="122.71875" height="19" style="fill: rgb(0, 0, 0); fill-opacity: 0;"/></g><g class="traces" transform="translate(0,147.5)" style="opacity: 1;"><text class="legendtext" text-anchor="start" x="40" y="4.680000000000001" style="font-family: 'Open Sans', verdana, arial, sans-serif; font-size: 12px; fill: rgb(42, 63, 95); fill-opacity: 1; white-space: pre;">Test F1</text><g class="layers" style="opacity: 1;"><g class="legendfill"/><g class="legendlines"><path class="js-line" d="M5,0h30" style="fill: none; stroke: rgb(128, 128, 128); stroke-opacity: 1; stroke-width: 2px;"/></g><g class="legendsymbols"><g class="legendpoints"/></g></g><rect class="legendtoggle" x="0" y="-9.5" width="122.71875" height="19" style="fill: rgb(0, 0, 0); fill-opacity: 0;"/></g></g></g><rect class="scrollbar" rx="20" ry="3" width="0" height="0" x="0" y="0" style="fill: rgb(128, 139, 164); fill-opacity: 1;"/></g><g class="g-gtitle"><text class="gtitle" x="51.2" y="50" text-anchor="start" dy="0em" style="font-family: 'Open Sans', verdana, arial, sans-serif; font-size: 17px; fill: rgb(42, 63, 95); opacity: 1; font-weight: normal; white-space: pre;">Training Metrics - logs/FakeNewsNet-politifact_max-vocab=15000_pre=v2_domain_T=150_s=5.log</text></g><g class="g-xtitle"><text class="xtitle" x="506" y="537.3" text-anchor="middle" style="font-family: 'Open Sans', verdana, arial, sans-serif; font-size: 14px; fill: rgb(42, 63, 95); opacity: 1; font-weight: normal; white-space: pre;">Epoch</text></g><g class="g-ytitle"><text class="ytitle" transform="rotate(-90,103.965625,298)" x="103.965625" y="298" text-anchor="middle" style="font-family: 'Open Sans', verdana, arial, sans-serif; font-size: 14px; fill: rgb(42, 63, 95); opacity: 1; font-weight: normal; white-space: pre;">Metric Score</text></g></g><g class="menulayer"><g class="updatemenu-container" style="cursor: pointer;"><g class="updatemenu-header-group" transform="translate(12,60)"><g class="updatemenu-header" transform="translate(1,1)" style="pointer-events: all;"><rect class="updatemenu-item-rect" rx="2" ry="2" shape-rendering="crispEdges" x="0" y="0" width="167" height="33" style="stroke: rgb(190, 200, 217); stroke-opacity: 1; fill: rgb(255, 255, 255); fill-opacity: 1; stroke-width: 1px;"/><text class="updatemenu-item-text" text-anchor="start" data-notex="1" x="12" y="19.5" style="font-family: 'Open Sans', verdana, arial, sans-serif; font-size: 12px; fill: rgb(42, 63, 95); fill-opacity: 1; white-space: pre;">All</text></g><text class="updatemenu-header-arrow" text-anchor="end" x="163" y="19.5" style="font-family: 'Open Sans', verdana, arial, sans-serif; font-size: 12px; fill: rgb(42, 63, 95); fill-opacity: 1;">▼</text></g><g class="updatemenu-dropdown-button-group" updatemenu-active-index="-1" style="pointer-events: all;"><rect class="scrollbox-bg" opacity="0" x="0" y="0" width="0" height="0" style="pointer-events: all;"/></g></g></g></svg>