<svg class="main-svg" xmlns="http://www.w3.org/2000/svg" xmlns:xlink="http://www.w3.org/1999/xlink" width="1024" height="576" style="" viewBox="0 0 1024 576"><rect x="0" y="0" width="1024" height="576" style="fill: rgb(255, 255, 255); fill-opacity: 1;"/><defs id="defs-49a7a0"><g class="clips"><clipPath id="clip49a7a0xyplot" class="plotclip"><rect width="726" height="396"/></clipPath><clipPath class="axesclip" id="clip49a7a0x"><rect x="143" y="0" width="726" height="576"/></clipPath><clipPath class="axesclip" id="clip49a7a0y"><rect x="0" y="100" width="1024" height="396"/></clipPath><clipPath class="axesclip" id="clip49a7a0xy"><rect x="143" y="100" width="726" height="396"/></clipPath></g><g class="gradients"/><g class="patterns"/></defs><g class="bglayer"><rect class="bg" x="143" y="100" width="726" height="396" style="fill: rgb(229, 236, 246); fill-opacity: 1; stroke-width: 0;"/></g><g class="layer-below"><g class="imagelayer"/><g class="shapelayer"/></g><g class="cartesianlayer"><g class="subplot xy"><g class="layer-subplot"><g class="shapelayer"/><g class="imagelayer"/></g><g class="minor-gridlayer"><g class="x"/><g class="y"/></g><g class="gridlayer"><g class="x"><path class="xgrid crisp" transform="translate(235.57999999999998,0)" d="M0,100v396" style="stroke: rgb(255, 255, 255); stroke-opacity: 1; stroke-width: 1px;"/><path class="xgrid crisp" transform="translate(333.03,0)" d="M0,100v396" style="stroke: rgb(255, 255, 255); stroke-opacity: 1; stroke-width: 1px;"/><path class="xgrid crisp" transform="translate(430.48,0)" d="M0,100v396" style="stroke: rgb(255, 255, 255); stroke-opacity: 1; stroke-width: 1px;"/><path class="xgrid crisp" transform="translate(527.9300000000001,0)" d="M0,100v396" style="stroke: rgb(255, 255, 255); stroke-opacity: 1; stroke-width: 1px;"/><path class="xgrid crisp" transform="translate(625.38,0)" d="M0,100v396" style="stroke: rgb(255, 255, 255); stroke-opacity: 1; stroke-width: 1px;"/><path class="xgrid crisp" transform="translate(722.83,0)" d="M0,100v396" style="stroke: rgb(255, 255, 255); stroke-opacity: 1; stroke-width: 1px;"/><path class="xgrid crisp" transform="translate(820.28,0)" d="M0,100v396" style="stroke: rgb(255, 255, 255); stroke-opacity: 1; stroke-width: 1px;"/></g><g class="y"><path class="ygrid crisp" transform="translate(0,479.02)" d="M143,0h726" style="stroke: rgb(255, 255, 255); stroke-opacity: 1; stroke-width: 1px;"/><path class="ygrid crisp" transform="translate(0,404.89)" d="M143,0h726" style="stroke: rgb(255, 255, 255); stroke-opacity: 1; stroke-width: 1px;"/><path class="ygrid crisp" transform="translate(0,330.76)" d="M143,0h726" style="stroke: rgb(255, 255, 255); stroke-opacity: 1; stroke-width: 1px;"/><path class="ygrid crisp" transform="translate(0,256.64)" d="M143,0h726" style="stroke: rgb(255, 255, 255); stroke-opacity: 1; stroke-width: 1px;"/><path class="ygrid crisp" transform="translate(0,182.51)" d="M143,0h726" style="stroke: rgb(255, 255, 255); stroke-opacity: 1; stroke-width: 1px;"/><path class="ygrid crisp" transform="translate(0,108.38)" d="M143,0h726" style="stroke: rgb(255, 255, 255); stroke-opacity: 1; stroke-width: 1px;"/></g></g><g class="zerolinelayer"/><path class="xlines-below"/><path class="ylines-below"/><g class="overlines-below"/><g class="xaxislayer-below"/><g class="yaxislayer-below"/><g class="overaxes-below"/><g class="plot" transform="translate(143,100)" clip-path="url(#clip49a7a0xyplot)"><g class="scatterlayer mlayer"><g class="trace scatter trace56f13a" style="stroke-miterlimit: 2; opacity: 1;"><g class="fills"/><g class="errorbars"/><g class="lines"><path class="js-line" d="M0,226.61L4.87,189.7L9.74,112.31L14.62,107.12L19.49,84.29L24.36,87.85L29.23,100L34.11,94.82L38.98,94.82L43.85,91.26L48.72,82.51L53.6,126.39L58.47,112.31L63.34,108.9L68.21,108.9L73.09,105.34L77.96,89.48L82.83,73.76L87.7,86.07L92.58,84.29L97.45,94.82L102.32,89.48L107.19,98.37L112.07,107.12L116.94,96.6L121.81,89.48L126.68,87.85L131.56,103.56L136.43,91.26L141.3,101.78L146.17,100L151.05,84.29L155.92,94.82L160.79,73.76L165.66,73.76L170.54,77.17L175.41,66.65L180.28,71.99L185.15,80.73L190.03,86.07L194.9,94.82L199.77,94.82L204.64,87.85L209.52,84.29L214.39,86.07L219.26,73.76L224.13,77.17L229.01,75.54L233.88,101.78L238.75,93.04L243.62,93.04L248.5,96.6L253.37,75.54L258.24,91.26L263.11,91.26L267.99,77.17L272.86,78.95L277.73,77.17L282.6,82.51L287.48,80.73L292.35,87.85L297.22,75.54L302.09,78.95L306.97,82.51L311.84,66.65L316.71,73.76L321.58,78.95L326.46,78.95L331.33,86.07L336.2,98.37L341.07,226.61L345.95,80.73L350.82,86.07L355.69,78.95L360.56,68.43L370.31,75.54L375.18,75.54L380.05,80.73L384.93,66.65L389.8,73.76L394.67,50.93L399.54,52.71L404.42,45.6L409.29,47.38L414.16,57.9L419.03,61.46L423.91,56.12L428.78,205.41L433.65,196.67L438.52,198.44L443.4,203.78L448.27,203.78L453.14,65.02L458.01,59.68L462.89,56.12L467.76,63.24L472.63,61.46L477.5,65.02L482.38,57.9L487.25,66.65L492.12,65.02L496.99,71.99L501.87,71.99L506.74,56.12L511.61,49.15L516.48,43.82L521.36,59.68L526.23,65.02L531.1,49.15L535.97,49.15L540.85,43.82L545.72,35.07L550.59,36.85L555.46,38.63L560.34,152.78L570.08,163.31L574.95,177.39L579.83,182.58L584.7,65.02L589.57,59.68L594.44,49.15L599.32,73.76L604.19,54.34L609.06,68.43L613.93,61.46L618.81,45.6L623.68,59.68L628.55,43.82L633.42,82.51L638.3,52.71L643.17,52.71L648.04,145.81L652.91,57.9L657.79,59.68L662.66,56.12L667.53,49.15L672.4,33.29L677.28,54.34L682.15,42.04L687.02,42.04L691.89,47.38L696.77,40.41L701.64,42.04L706.51,35.07L711.38,38.63L716.26,35.07L721.13,50.93L726,61.46" style="vector-effect: none; fill: none; stroke: rgb(255, 0, 0); stroke-opacity: 1; stroke-width: 2px; opacity: 1;"/></g><g class="points"/><g class="text"/></g><g class="trace scatter trace7d87a7" style="stroke-miterlimit: 2; opacity: 1;"><g class="fills"/><g class="errorbars"/><g class="lines"><path class="js-line" d="M0,313.34L4.87,355.3L9.74,229.43L14.62,201.41L19.49,180.36L24.36,208.38L29.23,208.38L34.11,201.41L38.98,187.47L43.85,187.47L48.72,166.42L53.6,236.4L58.47,236.4L63.34,229.43L68.21,250.33L73.09,236.4L77.96,187.47L82.83,215.35L87.7,215.35L92.58,229.43L97.45,194.44L102.32,173.39L107.19,236.4L112.07,250.33L116.94,229.43L121.81,243.37L126.68,236.4L131.56,250.33L136.43,243.37L141.3,236.4L146.17,222.31L151.05,152.49L155.92,173.39L160.79,145.52L165.66,138.4L170.54,152.49L175.41,152.49L180.28,152.49L185.15,215.35L190.03,236.4L194.9,243.37L199.77,159.45L204.64,152.49L209.52,208.38L214.39,166.42L219.26,152.49L224.13,159.45L229.01,166.42L233.88,180.36L238.75,187.47L243.62,208.38L248.5,201.41L253.37,180.36L258.24,180.36L263.11,187.47L277.73,208.38L282.6,173.39L287.48,215.35L292.35,201.41L297.22,194.44L302.09,201.41L306.97,201.41L311.84,187.47L316.71,215.35L321.58,138.4L331.33,138.4L336.2,131.43L341.07,376.2L345.95,131.43L350.82,131.43L355.69,201.41L370.31,201.41L375.18,236.4L380.05,201.41L384.93,215.35L389.8,236.4L394.67,180.36L399.54,201.41L404.42,187.47L409.29,194.44L414.16,236.4L419.03,243.37L423.91,208.38L428.78,362.26L433.65,362.26L438.52,369.23L443.4,355.3L448.27,355.3L453.14,201.41L458.01,201.41L462.89,215.35L467.76,194.44L472.63,201.41L477.5,201.41L482.38,173.39L487.25,208.38L492.12,215.35L496.99,201.41L501.87,201.41L506.74,208.38L511.61,208.38L516.48,173.39L521.36,194.44L526.23,194.44L531.1,166.42L535.97,145.52L540.85,166.42L545.72,145.52L550.59,145.52L555.46,145.52L560.34,348.18L565.21,334.24L570.08,362.26L574.95,355.3L579.83,362.26L584.7,208.38L589.57,194.44L594.44,152.49L599.32,187.47L604.19,152.49L609.06,180.36L613.93,187.47L618.81,173.39L623.68,173.39L628.55,166.42L633.42,145.52L638.3,173.39L643.17,173.39L648.04,306.22L652.91,222.31L657.79,215.35L662.66,215.35L667.53,194.44L672.4,152.49L677.28,166.42L682.15,194.44L687.02,194.44L696.77,180.36L701.64,201.41L706.51,173.39L711.38,173.39L716.26,173.39L721.13,166.42L726,159.45" style="vector-effect: none; fill: none; stroke: rgb(0, 0, 255); stroke-opacity: 1; stroke-width: 2px; opacity: 1;"/></g><g class="points"/><g class="text"/></g><g class="trace scatter trace949685" style="stroke-miterlimit: 2; opacity: 1;"><g class="fills"/><g class="errorbars"/><g class="lines"><path class="js-line" d="M0,159.75L9.74,102.08L14.62,106.23L19.49,94.07L24.36,97.63L29.23,108.9L34.11,105.05L43.85,99.71L48.72,90.96L53.6,109.34L58.47,99.56L63.34,96.89L68.21,97.78L73.09,95.11L77.96,79.55L82.83,67.24L87.7,81.32L92.58,79.84L97.45,104.45L102.32,98.97L107.19,84.59L112.07,89.33L116.94,82.36L121.81,80.44L126.68,77.32L131.56,92L136.43,83.25L141.3,89.92L146.17,85.92L151.05,88.74L155.92,100L160.79,82.36L165.66,81.47L170.54,84.73L175.41,73.91L180.28,78.06L185.15,71.1L190.03,72.58L194.9,78.21L199.77,97.48L204.64,90.81L209.52,69.46L214.39,72.58L219.26,63.24L224.13,69.17L229.01,64.57L233.88,86.37L243.62,80.58L248.5,85.77L253.37,67.09L258.24,78.36L263.11,77.47L267.99,69.91L272.86,72.13L277.73,65.91L282.6,72.58L287.48,71.1L292.35,78.21L297.22,68.58L302.09,70.65L306.97,74.06L311.84,61.61L316.71,66.5L321.58,85.48L326.46,85.18L331.33,92.59L336.2,103.56L341.07,156.49L345.95,85.92L350.82,89.78L355.69,64.57L360.56,56.71L365.44,58.49L370.31,62.94L375.18,62.05L380.05,69.46L384.93,56.27L389.8,63.24L394.67,47.52L399.54,48.86L404.42,42.63L409.29,41.15L414.16,46.93L419.03,51.38L423.91,49.6L428.78,131.14L433.65,125.8L438.52,126.84L443.4,133.51L448.27,133.51L453.14,54.05L462.89,48.12L467.76,54.34L472.63,51.38L477.5,54.79L482.38,49.45L487.25,54.49L492.12,53.16L496.99,62.79L501.87,62.79L506.74,48.86L516.48,38.33L521.36,51.53L526.23,54.79L531.1,43.22L535.97,44.71L540.85,39.81L545.72,33.29L550.59,34.03L555.46,36.85L560.34,112.46L574.95,130.25L579.83,135.14L584.7,56.42L589.57,52.42L594.44,43.97L599.32,61.61L604.19,47.52L609.06,56.71L613.93,53.01L618.81,39.07L623.68,51.53L628.55,36.85L633.42,89.33L638.3,45.3L643.17,46.04L648.04,107.71L652.91,51.67L657.79,51.53L662.66,50.34L667.53,45.45L672.4,31.81L677.28,48.26L682.15,37L687.02,37L691.89,41.89L696.77,37L701.64,37L706.51,30.62L711.38,34.92L716.26,31.36L721.13,44.71L726,52.12" style="vector-effect: none; fill: none; stroke: rgb(0, 128, 0); stroke-opacity: 1; stroke-width: 2px; opacity: 1;"/></g><g class="points"/><g class="text"/></g><g class="trace scatter trace2fc73a" style="stroke-miterlimit: 2; opacity: 1;"><g class="fills"/><g class="errorbars"/><g class="lines"><path class="js-line" d="M0,253.3L4.87,286.51L9.74,229.43L14.62,220.53L19.49,217.57L24.36,249.59L29.23,242.92L34.11,236.4L38.98,215.94L43.85,215.94L48.72,193.11L53.6,234.47L58.47,226.61L63.34,232.99L68.21,252.11L73.09,234.47L77.96,197.7L82.83,225.72L87.7,225.72L92.58,236.4L97.45,226.17L102.32,201.41L107.19,238.18L112.07,240.7L116.94,225.58L121.81,246.92L126.68,238.18L131.56,252.11L136.43,246.92L141.3,238.18L146.17,224.24L151.05,174.58L155.92,192.22L160.79,170.57L165.66,162.42L170.54,176.8L175.41,174.58L180.28,174.58L185.15,219.05L190.03,234.47L194.9,239.51L199.77,178.13L204.64,169.68L209.52,198.59L214.39,164.49L219.26,154.27L224.13,166.42L229.01,175.02L233.88,185.7L238.75,191.03L243.62,206.45L248.5,201.41L253.37,185.7L258.24,185.7L263.11,191.03L267.99,199.78L272.86,204.97L277.73,213.71L282.6,180.36L287.48,219.05L292.35,208.38L297.22,203.04L302.09,208.38L306.97,208.38L311.84,197.7L316.71,219.05L321.58,160.34L331.33,160.34L336.2,152.04L341.07,312.15L345.95,152.04L350.82,152.04L355.69,201.41L360.56,204.97L365.44,204.97L370.31,204.97L375.18,230.62L380.05,204.97L384.93,215.35L389.8,234.47L394.67,192.22L399.54,208.38L404.42,197.7L409.29,199.78L414.16,230.62L419.03,239.51L423.91,213.71L428.78,278.5L433.65,285.02L438.52,289.62L443.4,267.23L448.27,274.05L453.14,208.38L458.01,201.41L462.89,219.05L467.76,203.04L472.63,204.97L477.5,204.97L482.38,183.62L487.25,210.16L492.12,215.35L496.99,204.97L501.87,204.97L506.74,213.71L511.61,217.12L516.48,186.73L521.36,203.04L526.23,203.04L531.1,181.1L535.97,161.38L540.85,178.13L545.72,161.38L550.59,161.38L555.46,158.56L560.34,308.45L565.21,294.07L570.08,313.19L574.95,308.3L579.83,318.08L584.7,213.71L589.57,199.78L594.44,167.02L599.32,191.03L604.19,164.05L609.06,185.7L613.93,194.44L618.81,186.73L623.68,180.36L628.55,178.13L633.42,170.57L638.3,183.62L643.17,183.62L648.04,270.2L652.91,227.8L657.79,219.05L662.66,219.05L667.53,203.04L672.4,169.68L677.28,178.13L682.15,206.3L687.02,206.3L691.89,194.44L696.77,192.22L701.64,208.38L706.51,186.73L711.38,189.55L716.26,189.55L721.13,181.1L726,169.68" style="vector-effect: none; fill: none; stroke: rgb(255, 165, 0); stroke-opacity: 1; stroke-width: 2px; opacity: 1;"/></g><g class="points"/><g class="text"/></g><g class="trace scatter tracee70dbb" style="stroke-miterlimit: 2; opacity: 1;"><g class="fills"/><g class="errorbars"/><g class="lines"><path class="js-line" d="M0,181.84L4.87,147.74L9.74,94.52L14.62,97.04L19.49,96.45L24.36,101.93L29.23,103.71L34.11,104.45L38.98,95.71L43.85,93.93L48.72,85.18L53.6,104.3L58.47,92.89L63.34,89.78L68.21,90.37L73.09,87.4L77.96,71.39L82.83,57.75L87.7,71.84L92.58,70.35L97.45,101.49L102.32,95.26L107.19,77.77L112.07,84.29L116.94,75.69L121.81,71.99L126.68,69.32L131.56,84.73L136.43,74.65L141.3,82.66L146.17,79.4L151.05,79.69L155.92,91.7L160.79,77.03L165.66,74.65L170.54,77.62L175.41,66.35L180.28,69.61L185.15,62.65L190.03,65.46L194.9,72.43L199.77,88.14L204.64,81.47L209.52,62.79L214.39,65.46L219.26,54.94L224.13,60.27L229.01,56.42L233.88,80.29L238.75,74.95L243.62,73.32L248.5,78.06L253.37,58.2L258.24,71.24L263.11,70.65L267.99,60.87L272.86,62.94L277.73,57.9L282.6,64.28L287.48,62.65L292.35,69.91L297.22,59.38L302.09,61.76L306.97,65.31L311.84,51.82L316.71,57.16L321.58,77.47L326.46,76.88L331.33,84.73L336.2,95.26L341.07,180.65L345.95,77.17L350.82,80.58L355.69,57.75L360.56,48.56L365.44,51.08L370.31,55.23L375.18,54.64L380.05,61.46L384.93,47.67L389.8,54.94L394.67,37L399.54,38.48L404.42,31.81L409.29,31.07L414.16,38.33L419.03,42.63L423.91,39.81L428.78,158.42L433.65,150.86L438.52,152.49L443.4,158.12L448.27,158.12L453.14,45.6L458.01,41.59L462.89,38.63L467.76,45.3L472.63,42.63L477.5,46.19L482.38,40.11L487.25,46.49L492.12,45L496.99,53.9L501.87,53.9L506.74,39.22L516.48,27.95L521.36,42.19L526.23,46.19L531.1,33.14L535.97,34.33L540.85,29.14L545.72,22.17L550.59,23.06L555.46,25.73L560.34,118.83L570.08,129.66L574.95,140.63L579.83,145.81L584.7,47.38L589.57,42.78L594.44,33.74L599.32,53.75L604.19,37.74L609.06,48.56L613.93,43.67L618.81,28.99L623.68,42.19L628.55,26.92L633.42,81.62L638.3,35.51L643.17,36.11L648.04,112.9L652.91,41.89L657.79,42.19L662.66,40.41L667.53,34.92L672.4,20.69L677.28,38.18L682.15,26.47L687.02,26.47L691.89,31.66L696.77,26.17L701.64,26.47L706.51,19.8L711.38,24.1L716.26,20.39L721.13,34.63L726,43.08" style="vector-effect: none; fill: none; stroke: rgb(128, 0, 128); stroke-opacity: 1; stroke-width: 2px; opacity: 1;"/></g><g class="points"/><g class="text"/></g><g class="trace scatter trace391c94" style="stroke-miterlimit: 2; opacity: 1;"><g class="fills"/><g class="errorbars"/><g class="lines"><path class="js-line" d="M0,251.22L4.87,288.29L9.74,212.53L14.62,206.3L19.49,221.57L24.36,255.52L29.23,239.66L34.11,234.17L38.98,207.19L43.85,207.19L48.72,182.58L53.6,218.16L58.47,210.16L63.34,216.53L68.21,237.14L73.09,218.16L77.96,179.32L82.83,209.42L87.7,209.42L92.58,220.53L97.45,220.68L102.32,192.22L107.19,222.02L112.07,225.13L116.94,208.67L121.81,231.65L126.68,222.02L131.56,237.14L136.43,231.65L141.3,222.02L146.17,207.04L151.05,159.6L155.92,176.21L160.79,158.12L165.66,148.63L170.54,163.61L175.41,159.6L180.28,159.6L185.15,201.56L190.03,218.16L194.9,223.65L199.77,161.23L204.64,151.75L209.52,180.06L214.39,143L219.26,131.88L224.13,145.37L229.01,154.86L233.88,165.98L238.75,171.46L243.62,188.07L248.5,182.58L253.37,165.98L258.24,165.98L263.11,171.46L267.99,180.95L272.86,186.44L277.73,195.92L282.6,160.34L287.48,201.56L292.35,190.44L297.22,184.95L302.09,190.44L306.97,190.44L311.84,179.32L316.71,201.56L321.58,144.63L331.33,144.63L336.2,135.14L341.07,312.9L345.95,135.14L350.82,135.14L355.69,182.58L360.56,186.44L365.44,186.44L370.31,186.44L375.18,214.16L380.05,186.44L384.93,197.56L389.8,218.16L394.67,173.83L399.54,190.44L404.42,179.32L409.29,180.95L414.16,214.16L419.03,223.65L423.91,195.92L428.78,285.91L433.65,289.92L438.52,295.4L443.4,276.43L448.27,280.43L453.14,190.44L458.01,182.58L462.89,201.56L467.76,184.95L472.63,186.44L477.5,186.44L482.38,164.35L487.25,192.07L492.12,197.56L496.99,186.44L501.87,186.44L506.74,195.92L511.61,199.93L516.48,168.35L521.36,184.95L526.23,184.95L531.1,162.86L535.97,142.26L540.85,158.86L545.72,142.26L550.59,142.26L555.46,138.25L560.34,302.67L565.21,287.54L570.08,309.78L574.95,304.15L579.83,313.79L584.7,195.92L589.57,180.95L594.44,147.74L599.32,171.46L604.19,143.74L609.06,165.98L613.93,175.47L618.81,168.35L623.68,160.34L628.55,158.86L633.42,158.12L638.3,164.35L643.17,164.35L648.04,261.45L652.91,211.05L657.79,201.56L662.66,201.56L667.53,184.95L672.4,151.75L677.28,158.86L682.15,188.96L687.02,188.96L691.89,175.47L696.77,173.83L701.64,190.44L706.51,168.35L711.38,172.35L716.26,172.35L721.13,162.86L726,149.37" style="vector-effect: none; fill: none; stroke: rgb(255, 192, 203); stroke-opacity: 1; stroke-width: 2px; opacity: 1;"/></g><g class="points"/><g class="text"/></g><g class="trace scatter trace6ef5d0" style="stroke-miterlimit: 2; opacity: 1;"><g class="fills"/><g class="errorbars"/><g class="lines"><path class="js-line" d="M0,229.58L4.87,191.48L9.74,113.2L14.62,109.49L19.49,95.41L24.36,100L29.23,107.12L34.11,104.75L38.98,100.75L43.85,97.78L48.72,89.03L53.6,126.69L58.47,112.9L63.34,109.49L68.21,109.64L73.09,106.08L77.96,90.37L82.83,74.95L87.7,87.55L92.58,85.77L97.45,103.27L102.32,97.48L107.19,98.82L112.07,107.42L116.94,97.04L121.81,90.37L126.68,88.59L131.56,104.3L136.43,92.3L141.3,102.53L146.17,100.6L151.05,88.14L155.92,99.26L160.79,80.44L165.66,79.55L170.54,82.81L175.41,71.99L190.03,86.51L194.9,95.11L199.77,98.08L204.64,91.26L209.52,84.73L214.39,86.51L219.26,74.51L224.13,78.21L229.01,76.14L233.88,102.23L238.75,93.93L243.62,93.63L248.5,97.34L253.37,76.43L258.24,91.85L263.11,91.7L267.99,78.36L272.86,80.14L277.73,77.92L282.6,83.25L287.48,81.62L292.35,88.59L297.22,76.58L302.09,79.99L306.97,83.55L311.84,67.98L316.71,74.8L321.58,83.85L326.46,83.7L331.33,90.96L336.2,102.82L341.07,230.02L345.95,85.03L350.82,89.63L360.56,69.02L365.44,72.43L370.31,75.99L375.18,75.99L380.05,81.47L384.93,67.39L389.8,74.51L394.67,52.42L399.54,54.19L404.42,47.23L409.29,48.56L414.16,58.64L419.03,62.2L423.91,57.31L428.78,208.97L433.65,199.63L438.52,201.56L443.4,206.75L448.27,206.75L453.14,65.61L458.01,60.57L462.89,57.16L467.76,64.13L472.63,62.2L477.5,65.76L482.38,58.79L487.25,67.24L492.12,65.61L496.99,72.87L501.87,72.87L506.74,57.16L511.61,50.34L516.48,45.15L521.36,60.57L526.23,65.76L531.1,50.34L535.97,50.49L540.85,45.3L545.72,36.85L550.59,38.48L555.46,40.41L560.34,153.08L570.08,163.61L574.95,178.13L579.83,183.47L584.7,65.91L589.57,60.72L594.44,50.49L599.32,74.36L604.19,55.53L609.06,69.02L613.93,62.35L618.81,46.63L623.68,60.57L628.55,44.85L633.42,87.7L638.3,53.6L643.17,53.75L648.04,145.96L652.91,59.09L657.79,60.57L662.66,57.31L667.53,50.64L672.4,35.07L677.28,55.53L682.15,43.37L687.02,43.37L691.89,48.56L696.77,41.89L701.64,43.37L706.51,36.4L711.38,40.11L716.26,36.55L721.13,51.97L726,62.2" style="vector-effect: none; fill: none; stroke: rgb(165, 42, 42); stroke-opacity: 1; stroke-width: 2px; opacity: 1;"/></g><g class="points"/><g class="text"/></g><g class="trace scatter trace40d6e6" style="stroke-miterlimit: 2; opacity: 1;"><g class="fills"/><g class="errorbars"/><g class="lines"><path class="js-line" d="M0,313.34L4.87,355.3L9.74,238.62L14.62,219.5L19.49,219.79L24.36,253.15L29.23,241.44L34.11,235.36L38.98,213.12L43.85,213.12L48.72,189.99L53.6,245L58.47,242.62L63.34,239.96L68.21,260.56L73.09,245L77.96,199.93L82.83,228.69L87.7,228.69L92.58,241.44L97.45,224.09L102.32,198.3L107.19,246.33L112.07,256.71L116.94,237.29L121.81,254.19L126.68,246.33L131.56,260.56L136.43,254.19L141.3,246.33L146.17,232.1L151.05,171.31L155.92,190.44L160.79,166.87L165.66,158.56L170.54,173.24L175.41,171.31L180.28,171.31L185.15,225.72L190.03,245L194.9,251.52L199.77,175.91L204.64,167.9L209.52,214.31L214.39,173.98L219.26,160.79L224.13,169.83L229.01,177.69L233.88,190.59L238.75,197.11L243.62,216.53L248.5,210.16L253.37,190.59L258.24,190.59L263.11,197.11L267.99,204.97L272.86,211.34L277.73,219.2L282.6,184.21L287.48,225.72L292.35,212.83L297.22,206.45L302.09,212.83L306.97,212.83L311.84,199.93L316.71,225.72L321.58,156.79L331.33,156.79L336.2,148.63L341.07,376.2L345.95,148.63L350.82,148.63L355.69,210.16L360.56,211.34L365.44,211.34L370.31,211.34L375.18,243.81L380.05,211.34L384.93,224.39L389.8,245L394.67,193.55L399.54,212.83L404.42,199.93L409.29,204.97L414.16,243.81L419.03,251.52L423.91,219.2L428.78,363.01L433.65,362.56L438.52,369.83L443.4,356.19L448.27,355.74L453.14,212.83L458.01,210.16L462.89,225.72L467.76,206.45L472.63,211.34L477.5,211.34L482.38,185.55L487.25,217.87L492.12,224.39L496.99,211.34L501.87,211.34L506.74,219.2L511.61,220.68L516.48,187.18L521.36,206.45L526.23,206.45L531.1,180.65L535.97,159.9L540.85,179.17L545.72,159.9L550.59,159.9L555.46,158.27L560.34,349.37L565.21,335.43L570.08,362.56L574.95,355.74L579.83,363.01L584.7,219.2L589.57,204.97L594.44,166.27L599.32,197.11L604.19,164.79L609.06,190.59L613.93,198.44L618.81,187.18L623.68,184.21L628.55,179.17L633.42,166.87L638.3,185.55L643.17,185.55L648.04,307.86L652.91,233.58L657.79,225.72L662.66,225.72L667.53,206.45L672.4,167.9L677.28,179.17L682.15,207.93L687.02,207.93L691.89,198.44L696.77,193.55L701.64,212.83L706.51,187.18L711.38,188.81L716.26,188.81L726,171.31" style="vector-effect: none; fill: none; stroke: rgb(128, 128, 128); stroke-opacity: 1; stroke-width: 2px; opacity: 1;"/></g><g class="points"/><g class="text"/></g></g></g><g class="overplot"/><path class="xlines-above crisp" d="M0,0" style="fill: none;"/><path class="ylines-above crisp" d="M0,0" style="fill: none;"/><g class="overlines-above"/><g class="xaxislayer-above"><g class="xtick"><text text-anchor="middle" x="0" y="509" transform="translate(235.57999999999998,0)" style="font-family: 'Open Sans', verdana, arial, sans-serif; font-size: 12px; fill: rgb(42, 63, 95); fill-opacity: 1; white-space: pre; opacity: 1;">20</text></g><g class="xtick"><text text-anchor="middle" x="0" y="509" style="font-family: 'Open Sans', verdana, arial, sans-serif; font-size: 12px; fill: rgb(42, 63, 95); fill-opacity: 1; white-space: pre; opacity: 1;" transform="translate(333.03,0)">40</text></g><g class="xtick"><text text-anchor="middle" x="0" y="509" style="font-family: 'Open Sans', verdana, arial, sans-serif; font-size: 12px; fill: rgb(42, 63, 95); fill-opacity: 1; white-space: pre; opacity: 1;" transform="translate(430.48,0)">60</text></g><g class="xtick"><text text-anchor="middle" x="0" y="509" style="font-family: 'Open Sans', verdana, arial, sans-serif; font-size: 12px; fill: rgb(42, 63, 95); fill-opacity: 1; white-space: pre; opacity: 1;" transform="translate(527.9300000000001,0)">80</text></g><g class="xtick"><text text-anchor="middle" x="0" y="509" style="font-family: 'Open Sans', verdana, arial, sans-serif; font-size: 12px; fill: rgb(42, 63, 95); fill-opacity: 1; white-space: pre; opacity: 1;" transform="translate(625.38,0)">100</text></g><g class="xtick"><text text-anchor="middle" x="0" y="509" style="font-family: 'Open Sans', verdana, arial, sans-serif; font-size: 12px; fill: rgb(42, 63, 95); fill-opacity: 1; white-space: pre; opacity: 1;" transform="translate(722.83,0)">120</text></g><g class="xtick"><text text-anchor="middle" x="0" y="509" style="font-family: 'Open Sans', verdana, arial, sans-serif; font-size: 12px; fill: rgb(42, 63, 95); fill-opacity: 1; white-space: pre; opacity: 1;" transform="translate(820.28,0)">140</text></g></g><g class="yaxislayer-above"><g class="ytick"><text text-anchor="end" x="142" y="4.199999999999999" transform="translate(0,479.02)" style="font-family: 'Open Sans', verdana, arial, sans-serif; font-size: 12px; fill: rgb(42, 63, 95); fill-opacity: 1; white-space: pre; opacity: 1;">55</text></g><g class="ytick"><text text-anchor="end" x="142" y="4.199999999999999" style="font-family: 'Open Sans', verdana, arial, sans-serif; font-size: 12px; fill: rgb(42, 63, 95); fill-opacity: 1; white-space: pre; opacity: 1;" transform="translate(0,404.89)">60</text></g><g class="ytick"><text text-anchor="end" x="142" y="4.199999999999999" style="font-family: 'Open Sans', verdana, arial, sans-serif; font-size: 12px; fill: rgb(42, 63, 95); fill-opacity: 1; white-space: pre; opacity: 1;" transform="translate(0,330.76)">65</text></g><g class="ytick"><text text-anchor="end" x="142" y="4.199999999999999" style="font-family: 'Open Sans', verdana, arial, sans-serif; font-size: 12px; fill: rgb(42, 63, 95); fill-opacity: 1; white-space: pre; opacity: 1;" transform="translate(0,256.64)">70</text></g><g class="ytick"><text text-anchor="end" x="142" y="4.199999999999999" style="font-family: 'Open Sans', verdana, arial, sans-serif; font-size: 12px; fill: rgb(42, 63, 95); fill-opacity: 1; white-space: pre; opacity: 1;" transform="translate(0,182.51)">75</text></g><g class="ytick"><text text-anchor="end" x="142" y="4.199999999999999" style="font-family: 'Open Sans', verdana, arial, sans-serif; font-size: 12px; fill: rgb(42, 63, 95); fill-opacity: 1; white-space: pre; opacity: 1;" transform="translate(0,108.38)">80</text></g></g><g class="overaxes-above"/></g></g><g class="polarlayer"/><g class="smithlayer"/><g class="ternarylayer"/><g class="geolayer"/><g class="funnelarealayer"/><g class="pielayer"/><g class="iciclelayer"/><g class="treemaplayer"/><g class="sunburstlayer"/><g class="glimages"/><defs id="topdefs-49a7a0"><g class="clips"/><clipPath id="legend49a7a0"><rect width="128" height="162" x="0" y="0"/></clipPath></defs><g class="layer-above"><g class="imagelayer"/><g class="shapelayer"/></g><g class="infolayer"><g class="legend" pointer-events="all" transform="translate(883.52,100)"><rect class="bg" shape-rendering="crispEdges" width="128" height="162" x="0" y="0" style="stroke: rgb(68, 68, 68); stroke-opacity: 1; fill: rgb(255, 255, 255); fill-opacity: 1; stroke-width: 0px;"/><g class="scrollbox" transform="" clip-path="url(#legend49a7a0)"><g class="groups"><g class="traces" transform="translate(0,14.5)" style="opacity: 1;"><text class="legendtext" text-anchor="start" x="40" y="4.680000000000001" style="font-family: 'Open Sans', verdana, arial, sans-serif; font-size: 12px; fill: rgb(42, 63, 95); fill-opacity: 1; white-space: pre;">Train Accuracy</text><g class="layers" style="opacity: 1;"><g class="legendfill"/><g class="legendlines"><path class="js-line" d="M5,0h30" style="fill: none; stroke: rgb(255, 0, 0); stroke-opacity: 1; stroke-width: 2px;"/></g><g class="legendsymbols"><g class="legendpoints"/></g></g><rect class="legendtoggle" x="0" y="-9.5" width="122.71875" height="19" style="fill: rgb(0, 0, 0); fill-opacity: 0;"/></g><g class="traces" transform="translate(0,33.5)" style="opacity: 1;"><text class="legendtext" text-anchor="start" x="40" y="4.680000000000001" style="font-family: 'Open Sans', verdana, arial, sans-serif; font-size: 12px; fill: rgb(42, 63, 95); fill-opacity: 1; white-space: pre;">Test Accuracy</text><g class="layers" style="opacity: 1;"><g class="legendfill"/><g class="legendlines"><path class="js-line" d="M5,0h30" style="fill: none; stroke: rgb(0, 0, 255); stroke-opacity: 1; stroke-width: 2px;"/></g><g class="legendsymbols"><g class="legendpoints"/></g></g><rect class="legendtoggle" x="0" y="-9.5" width="122.71875" height="19" style="fill: rgb(0, 0, 0); fill-opacity: 0;"/></g><g class="traces" transform="translate(0,52.5)" style="opacity: 1;"><text class="legendtext" text-anchor="start" x="40" y="4.680000000000001" style="font-family: 'Open Sans', verdana, arial, sans-serif; font-size: 12px; fill: rgb(42, 63, 95); fill-opacity: 1; white-space: pre;">Train Precision</text><g class="layers" style="opacity: 1;"><g class="legendfill"/><g class="legendlines"><path class="js-line" d="M5,0h30" style="fill: none; stroke: rgb(0, 128, 0); stroke-opacity: 1; stroke-width: 2px;"/></g><g class="legendsymbols"><g class="legendpoints"/></g></g><rect class="legendtoggle" x="0" y="-9.5" width="122.71875" height="19" style="fill: rgb(0, 0, 0); fill-opacity: 0;"/></g><g class="traces" transform="translate(0,71.5)" style="opacity: 1;"><text class="legendtext" text-anchor="start" x="40" y="4.680000000000001" style="font-family: 'Open Sans', verdana, arial, sans-serif; font-size: 12px; fill: rgb(42, 63, 95); fill-opacity: 1; white-space: pre;">Test Precision</text><g class="layers" style="opacity: 1;"><g class="legendfill"/><g class="legendlines"><path class="js-line" d="M5,0h30" style="fill: none; stroke: rgb(255, 165, 0); stroke-opacity: 1; stroke-width: 2px;"/></g><g class="legendsymbols"><g class="legendpoints"/></g></g><rect class="legendtoggle" x="0" y="-9.5" width="122.71875" height="19" style="fill: rgb(0, 0, 0); fill-opacity: 0;"/></g><g class="traces" transform="translate(0,90.5)" style="opacity: 1;"><text class="legendtext" text-anchor="start" x="40" y="4.680000000000001" style="font-family: 'Open Sans', verdana, arial, sans-serif; font-size: 12px; fill: rgb(42, 63, 95); fill-opacity: 1; white-space: pre;">Train Recall</text><g class="layers" style="opacity: 1;"><g class="legendfill"/><g class="legendlines"><path class="js-line" d="M5,0h30" style="fill: none; stroke: rgb(128, 0, 128); stroke-opacity: 1; stroke-width: 2px;"/></g><g class="legendsymbols"><g class="legendpoints"/></g></g><rect class="legendtoggle" x="0" y="-9.5" width="122.71875" height="19" style="fill: rgb(0, 0, 0); fill-opacity: 0;"/></g><g class="traces" transform="translate(0,109.5)" style="opacity: 1;"><text class="legendtext" text-anchor="start" x="40" y="4.680000000000001" style="font-family: 'Open Sans', verdana, arial, sans-serif; font-size: 12px; fill: rgb(42, 63, 95); fill-opacity: 1; white-space: pre;">Test Recall</text><g class="layers" style="opacity: 1;"><g class="legendfill"/><g class="legendlines"><path class="js-line" d="M5,0h30" style="fill: none; stroke: rgb(255, 192, 203); stroke-opacity: 1; stroke-width: 2px;"/></g><g class="legendsymbols"><g class="legendpoints"/></g></g><rect class="legendtoggle" x="0" y="-9.5" width="122.71875" height="19" style="fill: rgb(0, 0, 0); fill-opacity: 0;"/></g><g class="traces" transform="translate(0,128.5)" style="opacity: 1;"><text class="legendtext" text-anchor="start" x="40" y="4.680000000000001" style="font-family: 'Open Sans', verdana, arial, sans-serif; font-size: 12px; fill: rgb(42, 63, 95); fill-opacity: 1; white-space: pre;">Train F1</text><g class="layers" style="opacity: 1;"><g class="legendfill"/><g class="legendlines"><path class="js-line" d="M5,0h30" style="fill: none; stroke: rgb(165, 42, 42); stroke-opacity: 1; stroke-width: 2px;"/></g><g class="legendsymbols"><g class="legendpoints"/></g></g><rect class="legendtoggle" x="0" y="-9.5" width="122.71875" height="19" style="fill: rgb(0, 0, 0); fill-opacity: 0;"/></g><g class="traces" transform="translate(0,147.5)" style="opacity: 1;"><text class="legendtext" text-anchor="start" x="40" y="4.680000000000001" style="font-family: 'Open Sans', verdana, arial, sans-serif; font-size: 12px; fill: rgb(42, 63, 95); fill-opacity: 1; white-space: pre;">Test F1</text><g class="layers" style="opacity: 1;"><g class="legendfill"/><g class="legendlines"><path class="js-line" d="M5,0h30" style="fill: none; stroke: rgb(128, 128, 128); stroke-opacity: 1; stroke-width: 2px;"/></g><g class="legendsymbols"><g class="legendpoints"/></g></g><rect class="legendtoggle" x="0" y="-9.5" width="122.71875" height="19" style="fill: rgb(0, 0, 0); fill-opacity: 0;"/></g></g></g><rect class="scrollbar" rx="20" ry="3" width="0" height="0" x="0" y="0" style="fill: rgb(128, 139, 164); fill-opacity: 1;"/></g><g class="g-gtitle"><text class="gtitle" x="51.2" y="50" text-anchor="start" dy="0em" style="font-family: 'Open Sans', verdana, arial, sans-serif; font-size: 17px; fill: rgb(42, 63, 95); opacity: 1; font-weight: normal; white-space: pre;">Training Metrics - logs/FakeNewsNet-politifact_max-vocab=15000_pre=v1_text_T=200_s=5.log</text></g><g class="g-xtitle"><text class="xtitle" x="506" y="537.3" text-anchor="middle" style="font-family: 'Open Sans', verdana, arial, sans-serif; font-size: 14px; fill: rgb(42, 63, 95); opacity: 1; font-weight: normal; white-space: pre;">Epoch</text></g><g class="g-ytitle"><text class="ytitle" transform="rotate(-90,103.965625,298)" x="103.965625" y="298" text-anchor="middle" style="font-family: 'Open Sans', verdana, arial, sans-serif; font-size: 14px; fill: rgb(42, 63, 95); opacity: 1; font-weight: normal; white-space: pre;">Metric Score</text></g></g><g class="menulayer"><g class="updatemenu-container" style="cursor: pointer;"><g class="updatemenu-header-group" transform="translate(12,60)"><g class="updatemenu-header" transform="translate(1,1)" style="pointer-events: all;"><rect class="updatemenu-item-rect" rx="2" ry="2" shape-rendering="crispEdges" x="0" y="0" width="167" height="33" style="stroke: rgb(190, 200, 217); stroke-opacity: 1; fill: rgb(255, 255, 255); fill-opacity: 1; stroke-width: 1px;"/><text class="updatemenu-item-text" text-anchor="start" data-notex="1" x="12" y="19.5" style="font-family: 'Open Sans', verdana, arial, sans-serif; font-size: 12px; fill: rgb(42, 63, 95); fill-opacity: 1; white-space: pre;">All</text></g><text class="updatemenu-header-arrow" text-anchor="end" x="163" y="19.5" style="font-family: 'Open Sans', verdana, arial, sans-serif; font-size: 12px; fill: rgb(42, 63, 95); fill-opacity: 1;">▼</text></g><g class="updatemenu-dropdown-button-group" updatemenu-active-index="-1" style="pointer-events: all;"><rect class="scrollbox-bg" opacity="0" x="0" y="0" width="0" height="0" style="pointer-events: all;"/></g></g></g></svg>