<svg class="main-svg" xmlns="http://www.w3.org/2000/svg" xmlns:xlink="http://www.w3.org/1999/xlink" width="1024" height="576" style="" viewBox="0 0 1024 576"><rect x="0" y="0" width="1024" height="576" style="fill: rgb(255, 255, 255); fill-opacity: 1;"/><defs id="defs-2303f3"><g class="clips"><clipPath id="clip2303f3xyplot" class="plotclip"><rect width="726" height="396"/></clipPath><clipPath class="axesclip" id="clip2303f3x"><rect x="143" y="0" width="726" height="576"/></clipPath><clipPath class="axesclip" id="clip2303f3y"><rect x="0" y="100" width="1024" height="396"/></clipPath><clipPath class="axesclip" id="clip2303f3xy"><rect x="143" y="100" width="726" height="396"/></clipPath></g><g class="gradients"/><g class="patterns"/></defs><g class="bglayer"><rect class="bg" x="143" y="100" width="726" height="396" style="fill: rgb(229, 236, 246); fill-opacity: 1; stroke-width: 0;"/></g><g class="layer-below"><g class="imagelayer"/><g class="shapelayer"/></g><g class="cartesianlayer"><g class="subplot xy"><g class="layer-subplot"><g class="shapelayer"/><g class="imagelayer"/></g><g class="minor-gridlayer"><g class="x"/><g class="y"/></g><g class="gridlayer"><g class="x"><path class="xgrid crisp" transform="translate(235.57999999999998,0)" d="M0,100v396" style="stroke: rgb(255, 255, 255); stroke-opacity: 1; stroke-width: 1px;"/><path class="xgrid crisp" transform="translate(333.03,0)" d="M0,100v396" style="stroke: rgb(255, 255, 255); stroke-opacity: 1; stroke-width: 1px;"/><path class="xgrid crisp" transform="translate(430.48,0)" d="M0,100v396" style="stroke: rgb(255, 255, 255); stroke-opacity: 1; stroke-width: 1px;"/><path class="xgrid crisp" transform="translate(527.9300000000001,0)" d="M0,100v396" style="stroke: rgb(255, 255, 255); stroke-opacity: 1; stroke-width: 1px;"/><path class="xgrid crisp" transform="translate(625.38,0)" d="M0,100v396" style="stroke: rgb(255, 255, 255); stroke-opacity: 1; stroke-width: 1px;"/><path class="xgrid crisp" transform="translate(722.83,0)" d="M0,100v396" style="stroke: rgb(255, 255, 255); stroke-opacity: 1; stroke-width: 1px;"/><path class="xgrid crisp" transform="translate(820.28,0)" d="M0,100v396" style="stroke: rgb(255, 255, 255); stroke-opacity: 1; stroke-width: 1px;"/></g><g class="y"><path class="ygrid crisp" transform="translate(0,462.61)" d="M143,0h726" style="stroke: rgb(255, 255, 255); stroke-opacity: 1; stroke-width: 1px;"/><path class="ygrid crisp" transform="translate(0,375.47)" d="M143,0h726" style="stroke: rgb(255, 255, 255); stroke-opacity: 1; stroke-width: 1px;"/><path class="ygrid crisp" transform="translate(0,288.33000000000004)" d="M143,0h726" style="stroke: rgb(255, 255, 255); stroke-opacity: 1; stroke-width: 1px;"/><path class="ygrid crisp" transform="translate(0,201.19)" d="M143,0h726" style="stroke: rgb(255, 255, 255); stroke-opacity: 1; stroke-width: 1px;"/><path class="ygrid crisp" transform="translate(0,114.05)" d="M143,0h726" style="stroke: rgb(255, 255, 255); stroke-opacity: 1; stroke-width: 1px;"/></g></g><g class="zerolinelayer"/><path class="xlines-below"/><path class="ylines-below"/><g class="overlines-below"/><g class="xaxislayer-below"/><g class="yaxislayer-below"/><g class="overaxes-below"/><g class="plot" transform="translate(143,100)" clip-path="url(#clip2303f3xyplot)"><g class="scatterlayer mlayer"><g class="trace scatter trace8a03d8" style="stroke-miterlimit: 2; opacity: 1;"><g class="fills"/><g class="errorbars"/><g class="lines"><path class="js-line" d="M0,349.01L4.87,273.2L9.74,209.24L14.62,182.58L19.49,163.75L24.36,146.85L29.23,143.02L34.11,124.72L38.98,135.52L43.85,123.5L48.72,114.08L53.6,98.05L58.47,97.35L63.34,102.76L68.21,105.89L73.09,98.92L77.96,95.96L82.83,99.79L87.7,94.91L92.58,84.81L97.45,88.47L102.32,92.65L107.19,95.09L112.07,96.83L116.94,94.57L121.81,91.43L126.68,94.91L131.56,95.26L136.43,90.56L141.3,93.17L146.17,74.87L151.05,69.82L155.92,69.3L160.79,68.42L165.66,60.06L170.54,62.15L175.41,69.82L180.28,82.71L185.15,81.67L190.03,68.25L194.9,69.82L199.77,79.05L204.64,77.49L209.52,65.46L214.39,65.64L219.26,57.27L224.13,58.84L229.01,65.64L233.88,65.46L238.75,70.52L243.62,66.86L253.37,65.46L258.24,67.73L263.11,65.46L267.99,73.83L272.86,78.01L277.73,69.64L282.6,68.77L287.48,64.07L292.35,58.32L297.22,67.9L302.09,65.46L306.97,64.07L316.71,78.36L321.58,76.09L326.46,72.08L331.33,71.74L336.2,74.52L341.07,72.78L345.95,73.65L350.82,69.82L355.69,69.12L360.56,70.17L365.44,69.99L370.31,72.61L375.18,68.77L380.05,60.93L384.93,67.2L389.8,70.17L394.67,72.26L399.54,69.3L409.29,74.35L414.16,78.18L419.03,77.83L423.91,79.93L428.78,81.84L433.65,86.2L438.52,91.25L443.4,91.25L448.27,87.59L453.14,86.72L458.01,82.19L462.89,79.93L467.76,79.23L472.63,74.52L477.5,72.26L482.38,68.77L487.25,66.33L492.12,61.1L496.99,76.96L501.87,72.43L506.74,72.61L511.61,77.66L516.48,77.83L521.36,76.09L526.23,72.78L531.1,72.43L540.85,71.56L545.72,76.44L550.59,77.66L555.46,77.83L560.34,75.57L565.21,74.35L570.08,65.98L574.95,66.51L579.83,71.91L584.7,63.54L594.44,60.41L599.32,62.15L604.19,60.06L609.06,60.23L613.93,72.96L618.81,68.42L623.68,68.6L628.55,66.33L633.42,65.11L638.3,69.47L643.17,66.51L648.04,67.03L652.91,68.25L657.79,72.43L662.66,68.6L667.53,66.86L672.4,59.36L677.28,62.67L687.02,66.33L691.89,64.42L696.77,59.71L701.64,59.01L706.51,64.07L711.38,71.56L716.26,70.86L721.13,72.78L726,71.39" style="vector-effect: none; fill: none; stroke: rgb(255, 0, 0); stroke-opacity: 1; stroke-width: 2px; opacity: 1;"/></g><g class="points"/><g class="text"/></g><g class="trace scatter tracefd75ab" style="stroke-miterlimit: 2; opacity: 1;"><g class="fills"/><g class="errorbars"/><g class="lines"><path class="js-line" d="M0,354.94L4.87,276.16L9.74,223.01L14.62,194.78L19.49,172.99L24.36,167.59L29.23,168.29L34.11,156.61L38.98,169.16L43.85,162.01L48.72,137.26L53.6,111.3L58.47,123.15L63.34,128.9L68.21,140.75L73.09,130.12L77.96,126.98L82.83,115.65L87.7,110.42L92.58,110.42L97.45,112.52L102.32,111.3L107.19,112.86L112.07,109.38L116.94,104.5L121.81,108.16L126.68,123.84L131.56,114.08L136.43,107.64L141.3,113.21L146.17,102.23L151.05,103.45L155.92,97.88L160.79,96.66L165.66,88.47L170.54,95.96L175.41,97.88L180.28,99.45L185.15,105.72L190.03,87.25L194.9,87.25L199.77,87.59L204.64,91.95L209.52,79.05L214.39,77.83L219.26,79.05L224.13,78.53L233.88,77.49L238.75,90.03L243.62,88.81L248.5,89.69L253.37,84.46L258.24,94.39L263.11,84.11L267.99,93.87L272.86,95.44L277.73,88.81L282.6,91.95L287.48,93.17L297.22,94.39L302.09,91.25L306.97,86.55L311.84,93.52L316.71,102.23L321.58,102.58L326.46,101.89L331.33,106.07L336.2,105.72L341.07,107.29L345.95,104.5L350.82,104.5L355.69,95.96L360.56,97.88L365.44,100.67L370.31,106.59L375.18,102.23L380.05,91.6L384.93,98.75L389.8,101.89L394.67,94.39L399.54,90.38L404.42,93.52L409.29,101.89L414.16,93.87L419.03,94.39L423.91,95.44L428.78,100.67L438.52,104.5L443.4,100.32L448.27,97.53L453.14,106.07L458.01,102.23L462.89,102.23L467.76,102.23L472.63,91.95L477.5,97.53L482.38,97.88L487.25,101.01L492.12,97.53L496.99,110.08L501.87,99.79L506.74,97.53L511.61,105.02L521.36,105.72L526.23,100.32L531.1,100.67L535.97,105.02L540.85,103.8L545.72,111.99L550.59,100.67L555.46,100.67L560.34,105.72L565.21,101.89L570.08,95.96L574.95,98.75L579.83,108.16L584.7,93.87L589.57,90.73L594.44,97.88L599.32,96.31L604.19,89.69L609.06,89.69L613.93,97.53L618.81,98.23L623.68,106.59L633.42,100.32L638.3,99.1L652.91,97.88L657.79,99.1L662.66,104.5L667.53,101.89L672.4,89.16L677.28,91.6L682.15,88.12L687.02,100.67L691.89,90.03L696.77,86.9L701.64,92.82L706.51,100.32L711.38,99.79L716.26,97.53L721.13,102.93L726,101.89" style="vector-effect: none; fill: none; stroke: rgb(0, 0, 255); stroke-opacity: 1; stroke-width: 2px; opacity: 1;"/></g><g class="points"/><g class="text"/></g><g class="trace scatter trace0526f7" style="stroke-miterlimit: 2; opacity: 1;"><g class="fills"/><g class="errorbars"/><g class="lines"><path class="js-line" d="M0,264.14L4.87,231.37L9.74,212.03L14.62,200.7L19.49,191.64L24.36,181.88L29.23,178.92L34.11,170.55L38.98,174.21L43.85,164.97L48.72,163.93L53.6,156.61L58.47,157.13L63.34,157.48L68.21,156.26L77.96,153.47L82.83,156.61L87.7,150.86L92.58,148.59L97.45,149.46L102.32,148.42L107.19,149.29L112.07,151.03L116.94,148.77L121.81,150.16L126.68,150.86L131.56,152.95L136.43,145.98L141.3,147.72L146.17,139.36L151.05,136.04L155.92,136.22L160.79,134.82L165.66,130.47L170.54,130.64L175.41,135.7L180.28,142.32L185.15,140.23L190.03,134.65L194.9,135.35L199.77,139.53L204.64,138.83L209.52,132.38L214.39,132.73L219.26,127.85L229.01,131.86L233.88,130.64L238.75,133.95L243.62,131.69L253.37,132.04L258.24,130.99L263.11,132.38L267.99,135.17L272.86,139.01L277.73,135.17L282.6,134.3L287.48,130.29L292.35,128.38L297.22,133.6L306.97,132.73L311.84,134.48L316.71,137.26L321.58,137.09L326.46,135.35L331.33,136.22L336.2,136.92L341.07,136.04L345.95,137.61L350.82,133.78L355.69,134.82L360.56,133.08L365.44,130.47L370.31,133.43L375.18,133.26L380.05,130.82L384.93,132.56L389.8,131.69L394.67,133.6L399.54,131.86L404.42,134.82L409.29,136.39L414.16,138.14L419.03,137.96L423.91,139.18L428.78,138.31L433.65,140.23L438.52,143.36L443.4,145.45L448.27,141.62L462.89,138.48L467.76,139.36L472.63,138.14L477.5,135.35L492.12,128.72L496.99,136.22L501.87,134.13L506.74,133.26L511.61,136.74L516.48,135.7L521.36,136.92L526.23,132.73L535.97,133.08L540.85,134.13L545.72,136.57L550.59,136.22L555.46,138.31L560.34,136.04L565.21,135.52L570.08,133.26L574.95,132.04L579.83,136.92L584.7,133.26L589.57,132.38L594.44,130.64L599.32,129.94L604.19,126.81L609.06,128.9L613.93,135.35L618.81,133.43L623.68,133.43L628.55,130.29L633.42,128.9L638.3,132.91L643.17,131.86L648.04,134.13L657.79,136.22L662.66,134.3L667.53,134.3L672.4,130.82L677.28,133.78L682.15,131.86L687.02,133.26L691.89,131.86L696.77,129.25L701.64,128.03L706.51,129.77L711.38,134.13L716.26,133.26L721.13,133.95L726,133.26" style="vector-effect: none; fill: none; stroke: rgb(0, 128, 0); stroke-opacity: 1; stroke-width: 2px; opacity: 1;"/></g><g class="points"/><g class="text"/></g><g class="trace scatter trace6921f4" style="stroke-miterlimit: 2; opacity: 1;"><g class="fills"/><g class="errorbars"/><g class="lines"><path class="js-line" d="M0,261.52L4.87,237.13L9.74,222.49L14.62,206.63L19.49,202.1L24.36,199.66L29.23,200.35L34.11,197.39L38.98,198.61L43.85,191.46L48.72,181.36L53.6,168.11L58.47,177L63.34,181.7L68.21,183.45L73.09,181.7L77.96,176.48L82.83,170.55L87.7,167.94L92.58,173.51L97.45,170.2L102.32,163.93L107.19,165.85L112.07,163.58L116.94,158.7L126.68,172.82L131.56,171.77L136.43,161.14L141.3,166.89L146.17,163.06L151.05,164.1L155.92,159.57L160.79,156.43L165.66,154.87L170.54,157.65L175.41,158.18L180.28,157.13L185.15,161.14L190.03,152.77L194.9,149.81L199.77,148.07L204.64,151.73L209.52,146.15L219.26,145.11L224.13,146.5L229.01,143.36L233.88,142.84L238.75,150.51L243.62,147.72L248.5,150.33L253.37,148.42L258.24,152.77L263.11,146.33L267.99,149.46L272.86,151.03L277.73,149.81L282.6,151.38L287.48,156.43L292.35,157.83L297.22,153.82L302.09,152.25L306.97,149.29L311.84,149.81L321.58,156.96L326.46,157.13L331.33,162.71L336.2,162.53L345.95,162.19L350.82,162.19L355.69,154.69L360.56,155.91L365.44,153.99L370.31,158.87L375.18,160.44L380.05,155.39L384.93,159.75L389.8,158.53L394.67,151.38L399.54,148.77L404.42,150.86L409.29,155.04L414.16,149.11L419.03,148.59L423.91,149.99L428.78,153.3L433.65,154.87L438.52,152.43L448.27,149.81L453.14,155.39L458.01,153.12L462.89,155.21L467.76,155.21L472.63,149.64L477.5,152.95L482.38,154.17L487.25,152.6L492.12,152.6L496.99,158L501.87,154.52L506.74,150.86L511.61,157.13L516.48,157.65L521.36,159.75L526.23,155.56L531.1,154.34L535.97,158.87L540.85,158.53L545.72,165.5L550.59,152.6L555.46,156.09L560.34,158L565.21,156.09L570.08,155.04L574.95,156.61L579.83,164.63L584.7,158.53L589.57,156.26L594.44,159.92L599.32,158L609.06,151.21L613.93,155.91L623.68,160.97L628.55,158.53L633.42,156.96L638.3,157.83L648.04,158.18L652.91,157.48L657.79,157.13L662.66,162.88L667.53,164.97L672.4,157.65L677.28,157.13L682.15,149.99L687.02,159.57L691.89,151.9L696.77,149.64L701.64,156.43L706.51,158.53L711.38,155.21L716.26,151.9L721.13,155.39L726,155.74" style="vector-effect: none; fill: none; stroke: rgb(255, 165, 0); stroke-opacity: 1; stroke-width: 2px; opacity: 1;"/></g><g class="points"/><g class="text"/></g><g class="trace scatter tracece1d83" style="stroke-miterlimit: 2; opacity: 1;"><g class="fills"/><g class="errorbars"/><g class="lines"><path class="js-line" d="M0,203.32L4.87,153.12L9.74,124.19L14.62,109.2L19.49,97.7L24.36,85.33L29.23,81.49L34.11,72.08L38.98,75.39L43.85,63.54L48.72,63.89L53.6,56.4L58.47,57.44L63.34,56.4L68.21,53.61L73.09,53.44L77.96,51.87L82.83,55.88L87.7,48.03L92.58,47.51L97.45,47.86L102.32,44.72L107.19,45.42L112.07,47.51L116.94,44.72L121.81,47.86L126.68,48.03L131.56,51.34L136.43,41.24L141.3,43.33L146.17,35.31L151.05,31.83L155.92,32.17L160.79,30.43L165.66,26.25L170.54,25.55L175.41,31.3L180.28,37.75L185.15,34.61L190.03,30.26L194.9,30.61L199.77,34.09L204.64,33.57L209.52,27.12L214.39,27.82L219.26,22.76L224.13,26.07L229.01,26.42L233.88,24.33L238.75,27.99L243.62,25.55L253.37,26.77L258.24,23.98L263.11,27.29L267.99,28.86L272.86,33.92L277.73,30.43L282.6,29.21L287.48,24.33L292.35,23.46L297.22,28.34L311.84,28.34L316.71,30.61L321.58,31.3L326.46,29.91L331.33,31.3L336.2,31.65L341.07,30.78L345.95,32.87L350.82,28.17L355.69,30.08L365.44,22.41L370.31,26.42L375.18,27.47L380.05,26.6L384.93,26.95L389.8,24.33L394.67,26.77L399.54,25.03L404.42,28.86L409.29,30.61L414.16,32.35L419.03,32L423.91,33.39L428.78,31.3L433.65,33.05L438.52,36.71L443.4,40.19L448.27,34.96L462.89,32.17L467.76,33.92L472.63,33.57L477.5,29.56L487.25,24.68L492.12,22.94L496.99,29.39L501.87,27.64L506.74,26.07L511.61,29.91L516.48,28.51L521.36,30.78L526.23,25.2L531.1,25.2L535.97,26.07L540.85,27.82L545.72,30.26L550.59,29.39L555.46,32.52L560.34,29.73L570.08,28.69L574.95,26.42L579.83,32.7L584.7,29.91L589.57,28.86L594.44,26.6L599.32,24.51L604.19,19.8L609.06,23.46L613.93,29.56L618.81,27.99L623.68,27.99L628.55,23.46L633.42,21.54L638.3,26.6L643.17,26.07L648.04,29.91L652.91,30.61L657.79,31.3L662.66,29.21L667.53,30.08L672.4,27.12L677.28,30.95L682.15,26.77L687.02,28.34L691.89,26.95L696.77,24.33L701.64,22.59L706.51,23.29L711.38,27.82L716.26,26.6L721.13,27.12L726,26.6" style="vector-effect: none; fill: none; stroke: rgb(128, 0, 128); stroke-opacity: 1; stroke-width: 2px; opacity: 1;"/></g><g class="points"/><g class="text"/></g><g class="trace scatter trace481e66" style="stroke-miterlimit: 2; opacity: 1;"><g class="fills"/><g class="errorbars"/><g class="lines"><path class="js-line" d="M0,201.92L4.87,161.14L9.74,139.01L14.62,117.57L19.49,112.86L24.36,109.73L29.23,110.77L34.11,107.99L38.98,107.99L48.72,86.9L53.6,72.08L58.47,83.24L63.34,89.34L73.09,88.99L77.96,81.32L82.83,74.87L87.7,72.08L92.58,80.97L97.45,75.05L102.32,65.46L107.19,68.08L112.07,65.29L116.94,58.84L121.81,68.95L126.68,76.44L131.56,77.31L136.43,61.98L141.3,69.47L146.17,66.68L151.05,68.08L155.92,62.15L160.79,57.44L165.66,57.62L170.54,59.71L175.41,59.88L180.28,57.62L185.15,62.32L190.03,54.66L194.9,49.6L199.77,46.46L204.64,51L209.52,46.29L214.39,46.12L219.26,44.72L224.13,47.16L229.01,41.93L233.88,41.41L238.75,49.78L243.62,45.59L248.5,49.43L253.37,48.38L258.24,52.04L263.11,44.72L272.86,48.9L277.73,48.9L282.6,50.47L287.48,58.49L292.35,60.76L297.22,53.78L302.09,52.22L306.97,49.08L311.84,47.68L316.71,51.69L321.58,56.4L326.46,56.92L331.33,64.76L336.2,64.59L350.82,64.42L355.69,54.66L360.56,56.05L365.44,52.22L370.31,58.32L375.18,62.15L380.05,57.44L384.93,62.15L389.8,59.19L394.67,49.78L399.54,46.64L404.42,49.25L409.29,53.61L414.16,46.12L419.03,45.42L423.91,47.16L428.78,51.17L433.65,53.09L438.52,48.73L443.4,48.03L448.27,46.29L453.14,53.09L458.01,50.47L462.89,53.78L467.76,53.78L472.63,47.68L477.5,51.34L482.38,53.26L487.25,49.78L492.12,50.82L496.99,56.22L501.87,53.44L506.74,48.03L511.61,56.22L516.48,56.75L521.36,60.06L526.23,54.83L531.1,52.91L535.97,59.01L540.85,58.84L545.72,67.55L550.59,50.12L555.46,55.7L560.34,57.27L565.21,55.35L570.08,55.35L574.95,57.1L579.83,67.2L584.7,61.8L589.57,59.19L594.44,62.67L599.32,60.06L604.19,56.22L609.06,51.17L613.93,56.4L618.81,60.23L623.68,61.8L628.55,58.84L633.42,57.1L638.3,59.01L643.17,59.88L648.04,59.71L657.79,57.97L662.66,65.46L667.53,69.82L672.4,61.98L677.28,60.23L682.15,49.6L687.02,61.28L691.89,52.04L696.77,49.25L701.64,58.84L706.51,59.88L711.38,54.48L716.26,49.6L721.13,53.78L726,54.66" style="vector-effect: none; fill: none; stroke: rgb(255, 192, 203); stroke-opacity: 1; stroke-width: 2px; opacity: 1;"/></g><g class="points"/><g class="text"/></g><g class="trace scatter trace470edd" style="stroke-miterlimit: 2; opacity: 1;"><g class="fills"/><g class="errorbars"/><g class="lines"><path class="js-line" d="M0,372.54L4.87,307.01L9.74,256.12L14.62,233.99L19.49,218.3L24.36,203.32L29.23,199.48L34.11,184.49L38.98,192.68L43.85,180.83L48.72,174.91L53.6,162.01L58.47,161.84L63.34,164.97L68.21,166.19L73.09,161.49L77.96,159.05L82.83,162.88L87.7,157.13L92.58,150.33L97.45,152.77L112.07,158.18L116.94,155.74L121.81,154.69L126.68,156.96L131.56,158.35L136.43,151.9L141.3,154.34L146.17,139.7L151.05,135L155.92,134.82L160.79,133.6L165.66,126.81L170.54,127.85L175.41,134.82L180.28,145.45L185.15,143.71L190.03,133.43L194.9,134.65L199.77,141.97L204.64,140.58L209.52,130.64L214.39,130.99L219.26,123.67L224.13,125.76L229.01,130.47L233.88,129.6L238.75,134.13L243.62,130.82L253.37,130.29L258.24,130.99L263.11,130.64L267.99,136.74L272.86,141.1L277.73,134.48L282.6,133.6L287.48,128.55L292.35,124.54L297.22,132.56L306.97,130.12L311.84,135.17L316.71,140.23L321.58,139.01L326.46,135.87L331.33,136.22L336.2,138.14L341.07,136.57L345.95,137.96L350.82,133.78L360.56,133.43L365.44,131.86L370.31,135L375.18,132.91L380.05,127.5L384.93,131.69L389.8,132.73L394.67,134.82L399.54,132.38L404.42,135.35L409.29,137.61L414.16,140.75L419.03,140.4L423.91,142.14L428.78,142.84L433.65,146.33L438.52,150.68L443.4,151.9L448.27,147.89L453.14,146.85L458.01,143.54L462.89,141.8L467.76,141.97L472.63,138.66L487.25,130.29L492.12,126.11L496.99,139.01L501.87,135.35L506.74,135L511.61,139.53L521.36,138.83L526.23,134.65L540.85,134.82L545.72,138.83L555.46,140.58L560.34,138.14L565.21,137.09L570.08,131.51L574.95,130.99L579.83,136.74L584.7,130.29L589.57,128.9L594.44,126.98L599.32,127.33L604.19,124.54L609.06,125.76L613.93,136.22L618.81,132.91L623.68,132.91L628.55,129.94L633.42,128.38L638.3,133.08L643.17,130.82L648.04,132.56L652.91,133.6L657.79,136.57L662.66,133.43L667.53,132.56L672.4,126.46L677.28,130.12L682.15,129.77L687.02,131.51L691.89,129.77L696.77,125.76L701.64,124.72L706.51,128.38L711.38,134.82L716.26,133.95L721.13,135.35L726,134.3" style="vector-effect: none; fill: none; stroke: rgb(165, 42, 42); stroke-opacity: 1; stroke-width: 2px; opacity: 1;"/></g><g class="points"/><g class="text"/></g><g class="trace scatter trace8b9f63" style="stroke-miterlimit: 2; opacity: 1;"><g class="fills"/><g class="errorbars"/><g class="lines"><path class="js-line" d="M0,376.2L4.87,310.85L9.74,269.19L14.62,244.1L19.49,228.76L24.36,224.23L29.23,225.1L34.11,216.73L38.98,224.58L43.85,216.73L48.72,197.22L53.6,175.43L58.47,186.93L63.34,192.86L68.21,200.18L73.09,193.38L77.96,188.68L82.83,179.27L87.7,174.91L92.58,178.22L97.45,177.35L102.32,173.17L107.19,175.08L112.07,171.77L116.94,166.54L121.81,172.29L126.68,185.02L131.56,179.09L136.43,169.68L141.3,175.78L146.17,167.76L151.05,168.98L155.92,163.41L160.79,160.97L165.66,155.74L170.54,161.31L175.41,162.71L180.28,162.88L185.15,168.46L190.03,153.99L194.9,152.08L199.77,151.38L204.64,155.74L209.52,145.63L214.39,144.76L224.13,145.63L229.01,143.54L233.88,142.84L238.75,153.99L243.62,151.73L248.5,153.65L253.37,149.99L258.24,157.65L263.11,148.42L267.99,155.56L272.86,157.31L277.73,152.95L282.6,155.56L287.48,159.05L292.35,160.44L297.22,158.18L302.09,155.56L306.97,151.38L311.84,155.56L316.71,162.53L321.58,164.45L326.46,164.1L331.33,169.68L336.2,169.33L341.07,170.2L345.95,168.46L350.82,168.46L355.69,159.57L360.56,161.31L365.44,161.66L370.31,167.59L375.18,166.19L380.05,157.65L384.93,163.93L389.8,164.8L394.67,156.78L399.54,153.12L404.42,156.09L409.29,162.88L414.16,155.39L419.03,155.21L423.91,156.61L428.78,161.31L433.65,163.23L438.52,163.06L443.4,160.09L448.27,157.65L453.14,165.67L458.01,162.19L462.89,163.23L467.76,163.23L472.63,154.52L477.5,159.4L482.38,160.27L487.25,161.14L492.12,159.22L496.99,169.16L501.87,161.66L506.74,158.18L511.61,165.85L521.36,167.76L526.23,162.36L531.1,162.01L535.97,166.89L540.85,166.02L545.72,174.39L550.59,160.97L555.46,162.88L560.34,166.72L565.21,163.58L570.08,159.75L574.95,162.19L579.83,171.77L584.7,160.79L589.57,157.83L594.44,163.58L599.32,161.66L604.19,155.91L609.06,154.17L613.93,161.14L618.81,162.88L623.68,168.81L633.42,163.06L638.3,163.06L648.04,162.71L652.91,162.19L657.79,162.71L662.66,168.81L667.53,168.63L672.4,157.83L677.28,158.7L682.15,152.6L687.02,164.8L691.89,154.69L696.77,151.73L701.64,158.87L706.51,164.1L711.38,162.01L716.26,158.87L721.13,163.75L726,163.41" style="vector-effect: none; fill: none; stroke: rgb(128, 128, 128); stroke-opacity: 1; stroke-width: 2px; opacity: 1;"/></g><g class="points"/><g class="text"/></g></g></g><g class="overplot"/><path class="xlines-above crisp" d="M0,0" style="fill: none;"/><path class="ylines-above crisp" d="M0,0" style="fill: none;"/><g class="overlines-above"/><g class="xaxislayer-above"><g class="xtick"><text text-anchor="middle" x="0" y="509" transform="translate(235.57999999999998,0)" style="font-family: 'Open Sans', verdana, arial, sans-serif; font-size: 12px; fill: rgb(42, 63, 95); fill-opacity: 1; white-space: pre; opacity: 1;">20</text></g><g class="xtick"><text text-anchor="middle" x="0" y="509" style="font-family: 'Open Sans', verdana, arial, sans-serif; font-size: 12px; fill: rgb(42, 63, 95); fill-opacity: 1; white-space: pre; opacity: 1;" transform="translate(333.03,0)">40</text></g><g class="xtick"><text text-anchor="middle" x="0" y="509" style="font-family: 'Open Sans', verdana, arial, sans-serif; font-size: 12px; fill: rgb(42, 63, 95); fill-opacity: 1; white-space: pre; opacity: 1;" transform="translate(430.48,0)">60</text></g><g class="xtick"><text text-anchor="middle" x="0" y="509" style="font-family: 'Open Sans', verdana, arial, sans-serif; font-size: 12px; fill: rgb(42, 63, 95); fill-opacity: 1; white-space: pre; opacity: 1;" transform="translate(527.9300000000001,0)">80</text></g><g class="xtick"><text text-anchor="middle" x="0" y="509" style="font-family: 'Open Sans', verdana, arial, sans-serif; font-size: 12px; fill: rgb(42, 63, 95); fill-opacity: 1; white-space: pre; opacity: 1;" transform="translate(625.38,0)">100</text></g><g class="xtick"><text text-anchor="middle" x="0" y="509" style="font-family: 'Open Sans', verdana, arial, sans-serif; font-size: 12px; fill: rgb(42, 63, 95); fill-opacity: 1; white-space: pre; opacity: 1;" transform="translate(722.83,0)">120</text></g><g class="xtick"><text text-anchor="middle" x="0" y="509" style="font-family: 'Open Sans', verdana, arial, sans-serif; font-size: 12px; fill: rgb(42, 63, 95); fill-opacity: 1; white-space: pre; opacity: 1;" transform="translate(820.28,0)">140</text></g></g><g class="yaxislayer-above"><g class="ytick"><text text-anchor="end" x="142" y="4.199999999999999" transform="translate(0,462.61)" style="font-family: 'Open Sans', verdana, arial, sans-serif; font-size: 12px; fill: rgb(42, 63, 95); fill-opacity: 1; white-space: pre; opacity: 1;">55</text></g><g class="ytick"><text text-anchor="end" x="142" y="4.199999999999999" style="font-family: 'Open Sans', verdana, arial, sans-serif; font-size: 12px; fill: rgb(42, 63, 95); fill-opacity: 1; white-space: pre; opacity: 1;" transform="translate(0,375.47)">60</text></g><g class="ytick"><text text-anchor="end" x="142" y="4.199999999999999" style="font-family: 'Open Sans', verdana, arial, sans-serif; font-size: 12px; fill: rgb(42, 63, 95); fill-opacity: 1; white-space: pre; opacity: 1;" transform="translate(0,288.33000000000004)">65</text></g><g class="ytick"><text text-anchor="end" x="142" y="4.199999999999999" style="font-family: 'Open Sans', verdana, arial, sans-serif; font-size: 12px; fill: rgb(42, 63, 95); fill-opacity: 1; white-space: pre; opacity: 1;" transform="translate(0,201.19)">70</text></g><g class="ytick"><text text-anchor="end" x="142" y="4.199999999999999" style="font-family: 'Open Sans', verdana, arial, sans-serif; font-size: 12px; fill: rgb(42, 63, 95); fill-opacity: 1; white-space: pre; opacity: 1;" transform="translate(0,114.05)">75</text></g></g><g class="overaxes-above"/></g></g><g class="polarlayer"/><g class="smithlayer"/><g class="ternarylayer"/><g class="geolayer"/><g class="funnelarealayer"/><g class="pielayer"/><g class="iciclelayer"/><g class="treemaplayer"/><g class="sunburstlayer"/><g class="glimages"/><defs id="topdefs-2303f3"><g class="clips"/><clipPath id="legend2303f3"><rect width="128" height="162" x="0" y="0"/></clipPath></defs><g class="layer-above"><g class="imagelayer"/><g class="shapelayer"/></g><g class="infolayer"><g class="legend" pointer-events="all" transform="translate(883.52,100)"><rect class="bg" shape-rendering="crispEdges" width="128" height="162" x="0" y="0" style="stroke: rgb(68, 68, 68); stroke-opacity: 1; fill: rgb(255, 255, 255); fill-opacity: 1; stroke-width: 0px;"/><g class="scrollbox" transform="" clip-path="url(#legend2303f3)"><g class="groups"><g class="traces" transform="translate(0,14.5)" style="opacity: 1;"><text class="legendtext" text-anchor="start" x="40" y="4.680000000000001" style="font-family: 'Open Sans', verdana, arial, sans-serif; font-size: 12px; fill: rgb(42, 63, 95); fill-opacity: 1; white-space: pre;">Train Accuracy</text><g class="layers" style="opacity: 1;"><g class="legendfill"/><g class="legendlines"><path class="js-line" d="M5,0h30" style="fill: none; stroke: rgb(255, 0, 0); stroke-opacity: 1; stroke-width: 2px;"/></g><g class="legendsymbols"><g class="legendpoints"/></g></g><rect class="legendtoggle" x="0" y="-9.5" width="122.71875" height="19" style="fill: rgb(0, 0, 0); fill-opacity: 0;"/></g><g class="traces" transform="translate(0,33.5)" style="opacity: 1;"><text class="legendtext" text-anchor="start" x="40" y="4.680000000000001" style="font-family: 'Open Sans', verdana, arial, sans-serif; font-size: 12px; fill: rgb(42, 63, 95); fill-opacity: 1; white-space: pre;">Test Accuracy</text><g class="layers" style="opacity: 1;"><g class="legendfill"/><g class="legendlines"><path class="js-line" d="M5,0h30" style="fill: none; stroke: rgb(0, 0, 255); stroke-opacity: 1; stroke-width: 2px;"/></g><g class="legendsymbols"><g class="legendpoints"/></g></g><rect class="legendtoggle" x="0" y="-9.5" width="122.71875" height="19" style="fill: rgb(0, 0, 0); fill-opacity: 0;"/></g><g class="traces" transform="translate(0,52.5)" style="opacity: 1;"><text class="legendtext" text-anchor="start" x="40" y="4.680000000000001" style="font-family: 'Open Sans', verdana, arial, sans-serif; font-size: 12px; fill: rgb(42, 63, 95); fill-opacity: 1; white-space: pre;">Train Precision</text><g class="layers" style="opacity: 1;"><g class="legendfill"/><g class="legendlines"><path class="js-line" d="M5,0h30" style="fill: none; stroke: rgb(0, 128, 0); stroke-opacity: 1; stroke-width: 2px;"/></g><g class="legendsymbols"><g class="legendpoints"/></g></g><rect class="legendtoggle" x="0" y="-9.5" width="122.71875" height="19" style="fill: rgb(0, 0, 0); fill-opacity: 0;"/></g><g class="traces" transform="translate(0,71.5)" style="opacity: 1;"><text class="legendtext" text-anchor="start" x="40" y="4.680000000000001" style="font-family: 'Open Sans', verdana, arial, sans-serif; font-size: 12px; fill: rgb(42, 63, 95); fill-opacity: 1; white-space: pre;">Test Precision</text><g class="layers" style="opacity: 1;"><g class="legendfill"/><g class="legendlines"><path class="js-line" d="M5,0h30" style="fill: none; stroke: rgb(255, 165, 0); stroke-opacity: 1; stroke-width: 2px;"/></g><g class="legendsymbols"><g class="legendpoints"/></g></g><rect class="legendtoggle" x="0" y="-9.5" width="122.71875" height="19" style="fill: rgb(0, 0, 0); fill-opacity: 0;"/></g><g class="traces" transform="translate(0,90.5)" style="opacity: 1;"><text class="legendtext" text-anchor="start" x="40" y="4.680000000000001" style="font-family: 'Open Sans', verdana, arial, sans-serif; font-size: 12px; fill: rgb(42, 63, 95); fill-opacity: 1; white-space: pre;">Train Recall</text><g class="layers" style="opacity: 1;"><g class="legendfill"/><g class="legendlines"><path class="js-line" d="M5,0h30" style="fill: none; stroke: rgb(128, 0, 128); stroke-opacity: 1; stroke-width: 2px;"/></g><g class="legendsymbols"><g class="legendpoints"/></g></g><rect class="legendtoggle" x="0" y="-9.5" width="122.71875" height="19" style="fill: rgb(0, 0, 0); fill-opacity: 0;"/></g><g class="traces" transform="translate(0,109.5)" style="opacity: 1;"><text class="legendtext" text-anchor="start" x="40" y="4.680000000000001" style="font-family: 'Open Sans', verdana, arial, sans-serif; font-size: 12px; fill: rgb(42, 63, 95); fill-opacity: 1; white-space: pre;">Test Recall</text><g class="layers" style="opacity: 1;"><g class="legendfill"/><g class="legendlines"><path class="js-line" d="M5,0h30" style="fill: none; stroke: rgb(255, 192, 203); stroke-opacity: 1; stroke-width: 2px;"/></g><g class="legendsymbols"><g class="legendpoints"/></g></g><rect class="legendtoggle" x="0" y="-9.5" width="122.71875" height="19" style="fill: rgb(0, 0, 0); fill-opacity: 0;"/></g><g class="traces" transform="translate(0,128.5)" style="opacity: 1;"><text class="legendtext" text-anchor="start" x="40" y="4.680000000000001" style="font-family: 'Open Sans', verdana, arial, sans-serif; font-size: 12px; fill: rgb(42, 63, 95); fill-opacity: 1; white-space: pre;">Train F1</text><g class="layers" style="opacity: 1;"><g class="legendfill"/><g class="legendlines"><path class="js-line" d="M5,0h30" style="fill: none; stroke: rgb(165, 42, 42); stroke-opacity: 1; stroke-width: 2px;"/></g><g class="legendsymbols"><g class="legendpoints"/></g></g><rect class="legendtoggle" x="0" y="-9.5" width="122.71875" height="19" style="fill: rgb(0, 0, 0); fill-opacity: 0;"/></g><g class="traces" transform="translate(0,147.5)" style="opacity: 1;"><text class="legendtext" text-anchor="start" x="40" y="4.680000000000001" style="font-family: 'Open Sans', verdana, arial, sans-serif; font-size: 12px; fill: rgb(42, 63, 95); fill-opacity: 1; white-space: pre;">Test F1</text><g class="layers" style="opacity: 1;"><g class="legendfill"/><g class="legendlines"><path class="js-line" d="M5,0h30" style="fill: none; stroke: rgb(128, 128, 128); stroke-opacity: 1; stroke-width: 2px;"/></g><g class="legendsymbols"><g class="legendpoints"/></g></g><rect class="legendtoggle" x="0" y="-9.5" width="122.71875" height="19" style="fill: rgb(0, 0, 0); fill-opacity: 0;"/></g></g></g><rect class="scrollbar" rx="20" ry="3" width="0" height="0" x="0" y="0" style="fill: rgb(128, 139, 164); fill-opacity: 1;"/></g><g class="g-gtitle"><text class="gtitle" x="51.2" y="50" text-anchor="start" dy="0em" style="font-family: 'Open Sans', verdana, arial, sans-serif; font-size: 17px; fill: rgb(42, 63, 95); opacity: 1; font-weight: normal; white-space: pre;">Training Metrics - logs/FakeNewsNet-gossipcop_max-vocab=15000_pre=v2_text_T=200_s=10.log</text></g><g class="g-xtitle"><text class="xtitle" x="506" y="537.3" text-anchor="middle" style="font-family: 'Open Sans', verdana, arial, sans-serif; font-size: 14px; fill: rgb(42, 63, 95); opacity: 1; font-weight: normal; white-space: pre;">Epoch</text></g><g class="g-ytitle"><text class="ytitle" transform="rotate(-90,103.965625,298)" x="103.965625" y="298" text-anchor="middle" style="font-family: 'Open Sans', verdana, arial, sans-serif; font-size: 14px; fill: rgb(42, 63, 95); opacity: 1; font-weight: normal; white-space: pre;">Metric Score</text></g></g><g class="menulayer"><g class="updatemenu-container" style="cursor: pointer;"><g class="updatemenu-header-group" transform="translate(12,60)"><g class="updatemenu-header" transform="translate(1,1)" style="pointer-events: all;"><rect class="updatemenu-item-rect" rx="2" ry="2" shape-rendering="crispEdges" x="0" y="0" width="167" height="33" style="stroke: rgb(190, 200, 217); stroke-opacity: 1; fill: rgb(255, 255, 255); fill-opacity: 1; stroke-width: 1px;"/><text class="updatemenu-item-text" text-anchor="start" data-notex="1" x="12" y="19.5" style="font-family: 'Open Sans', verdana, arial, sans-serif; font-size: 12px; fill: rgb(42, 63, 95); fill-opacity: 1; white-space: pre;">All</text></g><text class="updatemenu-header-arrow" text-anchor="end" x="163" y="19.5" style="font-family: 'Open Sans', verdana, arial, sans-serif; font-size: 12px; fill: rgb(42, 63, 95); fill-opacity: 1;">▼</text></g><g class="updatemenu-dropdown-button-group" updatemenu-active-index="-1" style="pointer-events: all;"><rect class="scrollbox-bg" opacity="0" x="0" y="0" width="0" height="0" style="pointer-events: all;"/></g></g></g></svg>