<svg class="main-svg" xmlns="http://www.w3.org/2000/svg" xmlns:xlink="http://www.w3.org/1999/xlink" width="1024" height="576" style="" viewBox="0 0 1024 576"><rect x="0" y="0" width="1024" height="576" style="fill: rgb(255, 255, 255); fill-opacity: 1;"/><defs id="defs-9c7304"><g class="clips"><clipPath id="clip9c7304xyplot" class="plotclip"><rect width="726" height="396"/></clipPath><clipPath class="axesclip" id="clip9c7304x"><rect x="143" y="0" width="726" height="576"/></clipPath><clipPath class="axesclip" id="clip9c7304y"><rect x="0" y="100" width="1024" height="396"/></clipPath><clipPath class="axesclip" id="clip9c7304xy"><rect x="143" y="100" width="726" height="396"/></clipPath></g><g class="gradients"/><g class="patterns"/></defs><g class="bglayer"><rect class="bg" x="143" y="100" width="726" height="396" style="fill: rgb(229, 236, 246); fill-opacity: 1; stroke-width: 0;"/></g><g class="layer-below"><g class="imagelayer"/><g class="shapelayer"/></g><g class="cartesianlayer"><g class="subplot xy"><g class="layer-subplot"><g class="shapelayer"/><g class="imagelayer"/></g><g class="minor-gridlayer"><g class="x"/><g class="y"/></g><g class="gridlayer"><g class="x"><path class="xgrid crisp" transform="translate(235.57999999999998,0)" d="M0,100v396" style="stroke: rgb(255, 255, 255); stroke-opacity: 1; stroke-width: 1px;"/><path class="xgrid crisp" transform="translate(333.03,0)" d="M0,100v396" style="stroke: rgb(255, 255, 255); stroke-opacity: 1; stroke-width: 1px;"/><path class="xgrid crisp" transform="translate(430.48,0)" d="M0,100v396" style="stroke: rgb(255, 255, 255); stroke-opacity: 1; stroke-width: 1px;"/><path class="xgrid crisp" transform="translate(527.9300000000001,0)" d="M0,100v396" style="stroke: rgb(255, 255, 255); stroke-opacity: 1; stroke-width: 1px;"/><path class="xgrid crisp" transform="translate(625.38,0)" d="M0,100v396" style="stroke: rgb(255, 255, 255); stroke-opacity: 1; stroke-width: 1px;"/><path class="xgrid crisp" transform="translate(722.83,0)" d="M0,100v396" style="stroke: rgb(255, 255, 255); stroke-opacity: 1; stroke-width: 1px;"/><path class="xgrid crisp" transform="translate(820.28,0)" d="M0,100v396" style="stroke: rgb(255, 255, 255); stroke-opacity: 1; stroke-width: 1px;"/></g><g class="y"><path class="ygrid crisp" transform="translate(0,465.16)" d="M143,0h726" style="stroke: rgb(255, 255, 255); stroke-opacity: 1; stroke-width: 1px;"/><path class="ygrid crisp" transform="translate(0,394.82)" d="M143,0h726" style="stroke: rgb(255, 255, 255); stroke-opacity: 1; stroke-width: 1px;"/><path class="ygrid crisp" transform="translate(0,324.48)" d="M143,0h726" style="stroke: rgb(255, 255, 255); stroke-opacity: 1; stroke-width: 1px;"/><path class="ygrid crisp" transform="translate(0,254.14)" d="M143,0h726" style="stroke: rgb(255, 255, 255); stroke-opacity: 1; stroke-width: 1px;"/><path class="ygrid crisp" transform="translate(0,183.81)" d="M143,0h726" style="stroke: rgb(255, 255, 255); stroke-opacity: 1; stroke-width: 1px;"/><path class="ygrid crisp" transform="translate(0,113.47)" d="M143,0h726" style="stroke: rgb(255, 255, 255); stroke-opacity: 1; stroke-width: 1px;"/></g></g><g class="zerolinelayer"/><path class="xlines-below"/><path class="ylines-below"/><g class="overlines-below"/><g class="xaxislayer-below"/><g class="yaxislayer-below"/><g class="overaxes-below"/><g class="plot" transform="translate(143,100)" clip-path="url(#clip9c7304xyplot)"><g class="scatterlayer mlayer"><g class="trace scatter trace2c57fb" style="stroke-miterlimit: 2; opacity: 1;"><g class="fills"/><g class="errorbars"/><g class="lines"><path class="js-line" d="M0,208.16L4.87,137.33L9.74,168.99L14.62,156.47L19.49,151.47L24.36,147.32L29.23,126.5L34.11,110.68L38.98,293.98L43.85,294.82L48.72,294.82L53.6,285.68L58.47,101.46L63.34,99L68.21,99L73.09,102.31L77.96,96.47L82.83,90.63L87.7,79.8L92.58,68.12L97.45,68.97L102.32,69.81L107.19,73.12L112.07,64.82L116.94,60.67L121.81,57.29L126.68,59.82L136.43,63.97L141.3,52.3L146.17,63.13L151.05,56.45L155.92,59.82L160.79,58.98L165.66,58.13L170.54,60.67L175.41,56.45L180.28,68.12L185.15,76.49L190.03,77.34L194.9,71.5L199.77,69.81L209.52,65.66L214.39,56.45L219.26,64.82L224.13,66.5L233.88,66.5L238.75,65.66L243.62,69.81L248.5,64.82L253.37,71.5L258.24,80.64L263.11,79.8L267.99,80.64L272.86,76.49L277.73,61.44L282.6,61.44L287.48,58.98L292.35,55.67L297.22,58.13L302.09,61.44L306.97,60.67L311.84,61.44L316.71,55.67L321.58,54.83L326.46,59.82L331.33,63.97L336.2,60.67L341.07,74.8L345.95,49.83L355.69,56.45L360.56,55.67L365.44,53.98L370.31,53.14L375.18,56.45L380.05,49.83L384.93,51.45L389.8,51.45L399.54,49.83L404.42,47.3L409.29,44.77L414.16,48.15L423.91,53.98L428.78,51.45L433.65,37.31L438.52,65.66L443.4,29.79L448.27,45.61L453.14,35.63L458.01,36.47L467.76,33.16L472.63,36.47L477.5,50.61L482.38,48.99L492.12,44.77L496.99,48.99L501.87,40.62L506.74,41.46L511.61,44L516.48,48.15L521.36,40.62L526.23,40.62L531.1,34.78L535.97,50.61L540.85,51.45L545.72,37.31L550.59,37.31L555.46,35.63L560.34,48.15L565.21,41.46L570.08,37.31L574.95,38.16L579.83,46.46L584.7,49.83L589.57,48.15L594.44,49.83L599.32,52.3L604.19,45.61L609.06,43.15L613.93,44L618.81,40.62L623.68,41.46L628.55,41.46L633.42,37.31L638.3,53.98L643.17,34.78L648.04,34.78L652.91,39L657.79,38.16L662.66,38.16L667.53,38.16L672.4,37.31L677.28,37.31L682.15,41.46L687.02,33.94L691.89,33.94L696.77,32.32L701.64,27.33L706.51,40.62L711.38,41.46L716.26,31.48L721.13,24.79L726,25.64" style="vector-effect: none; fill: none; stroke: rgb(255, 0, 0); stroke-opacity: 1; stroke-width: 2px; opacity: 1;"/></g><g class="points"/><g class="text"/></g><g class="trace scatter tracee87b4a" style="stroke-miterlimit: 2; opacity: 1;"><g class="fills"/><g class="errorbars"/><g class="lines"><path class="js-line" d="M0,284.83L4.87,205.21L9.74,198.6L14.62,191.99L19.49,221.81L24.36,228.49L29.23,211.89L34.11,162.09L38.98,337.94L43.85,337.94L48.72,334.63L53.6,331.32L58.47,191.99L63.34,165.4L68.21,165.4L73.09,168.77L77.96,152.18L82.83,152.18L87.7,128.96L92.58,128.96L97.45,132.27L102.32,142.19L107.19,135.58L112.07,132.27L116.94,105.68L121.81,122.28L126.68,102.38L131.56,115.67L136.43,102.38L141.3,99.07L146.17,128.96L151.05,125.59L155.92,118.98L160.79,105.68L165.66,115.67L170.54,112.36L175.41,112.36L180.28,122.28L185.15,142.19L190.03,155.48L194.9,138.88L199.77,138.88L204.64,135.58L209.52,135.58L214.39,132.27L219.26,152.18L224.13,145.49L233.88,132.27L238.75,135.58L243.62,138.88L248.5,115.67L253.37,132.27L258.24,142.19L263.11,142.19L267.99,135.58L272.86,138.88L277.73,122.28L282.6,128.96L287.48,112.36L292.35,125.59L297.22,112.36L302.09,128.96L306.97,135.58L311.84,135.58L316.71,125.59L321.58,138.88L326.46,132.27L331.33,132.27L336.2,138.88L341.07,155.48L345.95,132.27L350.82,132.27L355.69,122.28L365.44,122.28L370.31,132.27L380.05,132.27L384.93,125.59L389.8,112.36L394.67,112.36L399.54,99.07L404.42,95.76L409.29,92.46L414.16,99.07L419.03,108.99L423.91,102.38L428.78,112.36L433.65,95.76L438.52,95.76L443.4,85.78L448.27,105.68L453.14,102.38L458.01,99.07L462.89,99.07L467.76,95.76L472.63,95.76L477.5,105.68L482.38,105.68L487.25,102.38L492.12,102.38L496.99,115.67L501.87,99.07L506.74,102.38L511.61,115.67L516.48,128.96L521.36,108.99L526.23,125.59L531.1,105.68L535.97,122.28L540.85,132.27L545.72,115.67L550.59,115.67L555.46,112.36L560.34,122.28L565.21,105.68L570.08,102.38L574.95,99.07L579.83,122.28L584.7,118.98L589.57,122.28L594.44,132.27L599.32,125.59L604.19,125.59L609.06,135.58L628.55,108.99L633.42,112.36L638.3,128.96L643.17,99.07L648.04,99.07L652.91,108.99L657.79,108.99L662.66,102.38L667.53,95.76L672.4,105.68L677.28,102.38L682.15,108.99L687.02,95.76L691.89,95.76L696.77,102.38L701.64,89.08L706.51,105.68L711.38,118.98L716.26,99.07L721.13,85.78L726,85.78" style="vector-effect: none; fill: none; stroke: rgb(0, 0, 255); stroke-opacity: 1; stroke-width: 2px; opacity: 1;"/></g><g class="points"/><g class="text"/></g><g class="trace scatter trace0e204b" style="stroke-miterlimit: 2; opacity: 1;"><g class="fills"/><g class="errorbars"/><g class="lines"><path class="js-line" d="M0,163.15L4.87,128.05L9.74,128.19L14.62,120.95L19.49,117.15L24.36,115.6L29.23,101.46L34.11,92.95L38.98,148.38L48.72,157.1L53.6,148.38L58.47,89.29L63.34,90.14L68.21,94.15L73.09,93.02L77.96,87.32L82.83,84.02L87.7,76.63L92.58,67L97.45,65.17L102.32,66.57L107.19,69.95L112.07,63.34L121.81,58.42L126.68,61.23L131.56,63.2L136.43,63.83L141.3,54.97L146.17,64.11L151.05,58.49L155.92,59.54L165.66,57.57L170.54,58.7L175.41,55.6L180.28,63.34L185.15,69.11L190.03,70.58L194.9,66.72L199.77,64.6L204.64,63.34L209.52,61.09L214.39,55.32L219.26,59.61L229.01,63.27L233.88,62.07L238.75,61.44L243.62,62.85L248.5,61.58L253.37,64.96L258.24,71.57L263.11,69.95L267.99,70.51L272.86,66.57L277.73,56.23L282.6,57.5L292.35,52.93L297.22,54.9L302.09,57.08L306.97,56.87L311.84,56.66L316.71,51.8L321.58,50.4L326.46,54.12L331.33,60.17L336.2,55.18L341.07,66.43L345.95,46.95L355.69,52.44L360.56,51.8L365.44,51.66L370.31,49.9L375.18,53.63L380.05,48.64L384.93,49.97L389.8,49.69L394.67,48.99L399.54,49.27L404.42,46.32L409.29,44.56L414.16,48.43L419.03,49.69L423.91,51.31L428.78,50.33L433.65,37.95L438.52,63.9L443.4,31.9L448.27,45.19L453.14,37.17L458.01,37.88L462.89,35.34L467.76,34.57L472.63,37.24L477.5,48.29L492.12,44.77L496.99,47.93L501.87,41.25L506.74,40.62L511.61,42.94L516.48,46.32L521.36,39.92L526.23,40.2L531.1,36.4L535.97,49.62L540.85,49.97L545.72,37.67L555.46,35.49L560.34,47.3L565.21,40.9L570.08,37.17L574.95,38.16L579.83,45.61L584.7,48.36L589.57,46.32L594.44,48.36L599.32,51.31L604.19,43.64L609.06,41.96L613.93,42.31L618.81,40.2L628.55,41.18L633.42,37.95L638.3,52.3L643.17,35.34L648.04,35.77L652.91,38.86L662.66,37.88L667.53,37.88L677.28,36.89L682.15,41.96L687.02,35.49L691.89,35.49L696.77,32.95L701.64,28.59L706.51,39.64L711.38,40.34L716.26,32.46L721.13,26.55L726,27.47" style="vector-effect: none; fill: none; stroke: rgb(0, 128, 0); stroke-opacity: 1; stroke-width: 2px; opacity: 1;"/></g><g class="points"/><g class="text"/></g><g class="trace scatter trace41f753" style="stroke-miterlimit: 2; opacity: 1;"><g class="fills"/><g class="errorbars"/><g class="lines"><path class="js-line" d="M0,219.63L4.87,187.55L9.74,172.71L14.62,162.73L19.49,189.95L24.36,197.12L29.23,189.31L34.11,158.44L38.98,155.55L48.72,154.85L53.6,154.14L58.47,176.44L63.34,158.72L68.21,158.72L73.09,160.97L77.96,151.26L82.83,149.43L87.7,132.2L92.58,135.01L97.45,137.69L102.32,143.88L107.19,140.36L112.07,133.11L116.94,112.29L121.81,130.72L126.68,110.54L131.56,121.65L136.43,110.54L141.3,109.76L146.17,137.4L151.05,135.58L155.92,124.39L160.79,111.03L165.66,118.91L170.54,113.21L180.28,122.28L185.15,134.31L190.03,145.35L194.9,132.06L199.77,134.17L204.64,131.85L209.52,129.81L214.39,133.11L219.26,147.46L224.13,142.75L229.01,134.17L233.88,131.36L238.75,131.85L243.62,136.14L248.5,118.91L253.37,131.36L258.24,136.42L263.11,131.99L267.99,129.81L272.86,134.17L277.73,122.28L282.6,127.13L287.48,114.83L292.35,129.6L297.22,117.71L302.09,128.96L306.97,137.26L311.84,135.58L316.71,129.6L321.58,139.73L326.46,134.73L331.33,136.28L336.2,136.14L341.07,145.35L345.95,133.11L350.82,133.11L355.69,120.45L360.56,120.45L370.31,134.73L375.18,134.73L380.05,136.28L384.93,129.6L389.8,116.3L394.67,117.71L399.54,105.61L404.42,101.67L409.29,98.93L414.16,104.35L419.03,112.29L423.91,105.61L428.78,114.83L433.65,102.8L438.52,103.57L443.4,95.55L448.27,112.29L453.14,111.45L458.01,105.61L462.89,105.61L472.63,101.67L477.5,109.69L482.38,109.69L487.25,108.35L492.12,108.35L496.99,118.91L501.87,104.35L506.74,108.35L516.48,128.96L521.36,112.29L526.23,124.74L531.1,111.03L535.97,120.45L540.85,127.49L545.72,118.91L550.59,115.67L555.46,118.98L560.34,126.99L565.21,112.29L570.08,108.35L574.95,104.35L579.83,126.99L584.7,121.44L589.57,120.45L594.44,131.36L599.32,128.12L604.19,126.5L609.06,135.58L613.93,132.2L618.81,126.99L623.68,121.65L628.55,115.04L633.42,117.71L638.3,125.17L643.17,105.61L648.04,105.61L652.91,113.7L657.79,113.7L662.66,105.61L667.53,101.67L672.4,109.69L677.28,105.61L682.15,113.7L687.02,102.8L691.89,103.85L696.77,108.35L701.64,97.1L706.51,111.03L711.38,125.66L716.26,109.2L721.13,95.55L726,95.55" style="vector-effect: none; fill: none; stroke: rgb(255, 165, 0); stroke-opacity: 1; stroke-width: 2px; opacity: 1;"/></g><g class="points"/><g class="text"/></g><g class="trace scatter trace5b1059" style="stroke-miterlimit: 2; opacity: 1;"><g class="fills"/><g class="errorbars"/><g class="lines"><path class="js-line" d="M0,182.14L4.87,126.08L9.74,145.07L14.62,134.31L19.49,129.74L24.36,126.43L29.23,107.93L34.11,94.85L38.98,246.15L48.72,247.41L53.6,239.25L58.47,88.03L63.34,87.25L68.21,89.79L73.09,90.42L77.96,84.58L82.83,80.08L92.58,61.02L97.45,59.75L102.32,61.02L107.19,64.46L112.07,57.29L116.94,54.83L121.81,52.23L126.68,55.18L131.56,57.08L136.43,57.71L141.3,49.55L146.17,58.06L151.05,52.58L155.92,53.28L165.66,51.31L170.54,52.58L175.41,49.27L180.28,58.2L185.15,65.17L190.03,66.43L194.9,61.65L199.77,59.68L204.64,58.2L209.52,55.81L214.39,48.99L219.26,54.55L224.13,56.52L229.01,57.64L238.75,56.09L243.62,58.56L248.5,55.88L253.37,60.53L258.24,68.47L263.11,67.21L267.99,67.91L272.86,63.76L277.73,51.1L282.6,51.94L292.35,46.95L297.22,49.06L302.09,51.66L306.97,51.24L311.84,51.38L316.71,46.11L321.58,44.84L326.46,49.13L331.33,54.62L336.2,50.12L341.07,62.85L345.95,40.76L355.69,46.81L360.56,46.11L365.44,45.47L370.31,43.93L375.18,47.65L380.05,42.17L384.93,43.57L389.8,43.36L394.67,42.59L399.54,42.73L404.42,39.78L409.29,37.88L414.16,41.82L419.03,43.36L423.91,45.19L428.78,43.86L433.65,31.12L438.52,75.37L443.4,25.5L448.27,38.58L453.14,30.49L458.01,31.27L462.89,28.45L467.76,27.82L472.63,30.42L477.5,42.03L492.12,38.16L496.99,41.46L501.87,34.57L506.74,33.87L511.61,36.33L516.48,39.92L521.36,33.16L526.23,33.45L531.1,29.79L535.97,43.15L540.85,43.57L545.72,30.84L555.46,28.59L560.34,40.76L565.21,34.15L570.08,30.28L574.95,31.27L579.83,39L584.7,41.89L589.57,39.92L594.44,41.89L599.32,44.91L604.19,37.17L609.06,35.34L613.93,35.77L618.81,33.45L628.55,34.43L633.42,31.12L638.3,46.04L643.17,28.45L648.04,28.94L652.91,32.04L662.66,31.05L667.53,31.05L677.28,30L682.15,35.27L687.02,28.8L691.89,28.8L696.77,25.99L701.64,21.7L706.51,32.88L711.38,33.59L716.26,25.57L721.13,19.8L726,20.78" style="vector-effect: none; fill: none; stroke: rgb(128, 0, 128); stroke-opacity: 1; stroke-width: 2px; opacity: 1;"/></g><g class="points"/><g class="text"/></g><g class="trace scatter trace866f2d" style="stroke-miterlimit: 2; opacity: 1;"><g class="fills"/><g class="errorbars"/><g class="lines"><path class="js-line" d="M0,234.19L4.87,182.49L9.74,169.69L14.62,160.69L19.49,189.95L24.36,197.12L29.23,185.87L34.11,148.38L38.98,255.43L43.85,255.43L48.72,252.83L53.6,250.23L58.47,170.11L63.34,149.15L68.21,149.15L73.09,151.75L77.96,140.5L82.83,138.6L87.7,120.24L92.58,124.04L97.45,126.64L102.32,132.62L107.19,129.25L112.07,121.02L116.94,99.98L121.81,120.66L126.68,99.28L131.56,109.76L136.43,99.28L141.3,102.31L146.17,127.77L151.05,127.06L155.92,112.36L160.79,98.09L165.66,105.96L170.54,99.56L175.41,105.26L180.28,109.34L185.15,123.2L190.03,135.58L194.9,120.59L199.77,122.49L204.64,119.82L209.52,117.99L214.39,121.02L219.26,136.77L224.13,131.5L229.01,122.49L233.88,119.12L238.75,119.82L243.62,124.39L248.5,105.96L253.37,119.12L258.24,125.1L263.11,121.3L267.99,117.99L272.86,122.49L277.73,109.34L282.6,114.61L287.48,101.46L292.35,117.64L297.22,105.26L302.09,116.51L306.97,125.52L311.84,123.62L316.71,117.64L321.58,128.12L326.46,122.84L331.33,124.74L336.2,124.39L341.07,135.58L345.95,121.02L350.82,121.02L355.69,107.44L360.56,107.44L370.31,122.84L375.18,122.84L380.05,124.74L384.93,117.64L389.8,103.36L394.67,105.26L399.54,92.88L404.42,88.38L409.29,85.71L414.16,90.98L419.03,98.86L423.91,91.76L428.78,101.46L433.65,90.21L438.52,118.48L443.4,86.13L448.27,99.98L453.14,101.11L458.01,92.88L462.89,92.88L467.76,92.11L472.63,88.38L477.5,96.26L482.38,96.26L487.25,95.48L492.12,95.48L496.99,105.96L501.87,90.98L506.74,95.48L511.61,105.96L516.48,116.51L521.36,98.86L526.23,111.94L531.1,98.09L540.85,115.32L545.72,105.96L550.59,102.24L555.46,107.16L560.34,115.04L565.21,99.98L574.95,90.98L579.83,115.04L584.7,108.64L589.57,107.44L594.44,119.12L599.32,115.74L604.19,113.84L609.06,123.62L613.93,120.24L618.81,115.04L623.68,109.76L628.55,102.66L633.42,105.26L638.3,112.72L643.17,92.88L648.04,92.88L652.91,100.76L657.79,100.76L662.66,91.76L667.53,88.38L672.4,96.26L677.28,91.76L682.15,100.76L687.02,90.21L691.89,92.11L696.77,95.48L701.64,85L706.51,98.09L711.38,114.26L716.26,100.41L721.13,86.13L726,86.13" style="vector-effect: none; fill: none; stroke: rgb(255, 192, 203); stroke-opacity: 1; stroke-width: 2px; opacity: 1;"/></g><g class="points"/><g class="text"/></g><g class="trace scatter trace282e56" style="stroke-miterlimit: 2; opacity: 1;"><g class="fills"/><g class="errorbars"/><g class="lines"><path class="js-line" d="M0,212.24L4.87,137.4L9.74,171.1L14.62,157.8L19.49,152.6L24.36,148.17L29.23,126.78L34.11,110.68L38.98,337.02L43.85,337.58L48.72,336.95L53.6,323.73L58.47,101.46L63.34,99.07L68.21,99.28L73.09,102.38L77.96,96.54L82.83,90.84L87.7,80.22L92.58,68.75L97.45,69.32L102.32,70.23L107.19,73.54L112.07,65.38L116.94,61.51L121.81,58.27L126.68,60.88L131.56,63.27L136.43,64.75L141.3,53.7L146.17,64.11L151.05,57.64L155.92,60.53L165.66,58.84L170.54,61.16L175.41,57.08L180.28,68.4L185.15,76.63L190.03,77.48L194.9,71.78L199.77,70.09L209.52,65.94L214.39,57.08L219.26,65.03L224.13,66.79L233.88,66.79L238.75,65.94L243.62,69.95L248.5,65.17L253.37,71.64L258.24,80.71L263.11,79.87L267.99,80.71L272.86,76.56L277.73,61.72L282.6,61.79L287.48,59.33L292.35,56.02L297.22,58.49L302.09,61.79L306.97,60.95L311.84,61.72L316.71,55.95L321.58,55.11L326.46,60.03L331.33,64.32L336.2,60.88L341.07,74.94L345.95,50.19L355.69,56.8L360.56,55.95L370.31,53.49L375.18,56.87L380.05,50.33L384.93,52.01L389.8,51.94L394.67,51.1L399.54,50.4L404.42,47.86L409.29,45.4L414.16,48.85L423.91,54.41L428.78,52.01L433.65,38.02L438.52,71.71L443.4,30.77L448.27,46.25L453.14,36.47L458.01,37.31L467.76,33.94L472.63,37.17L477.5,51.03L482.38,49.41L487.25,47.02L492.12,45.47L496.99,49.55L501.87,41.39L506.74,42.03L511.61,44.49L516.48,48.57L521.36,41.18L526.23,41.25L531.1,35.7L535.97,51.17L540.85,52.01L545.72,37.95L550.59,37.88L555.46,36.26L560.34,48.71L565.21,42.03L570.08,37.88L574.95,38.79L579.83,47.02L584.7,50.33L589.57,48.57L599.32,52.86L604.19,46.11L609.06,43.64L613.93,44.42L618.81,41.25L623.68,41.96L628.55,42.1L633.42,38.02L638.3,54.48L643.17,35.49L648.04,35.56L652.91,39.56L662.66,38.72L667.53,38.72L672.4,37.88L677.28,37.88L682.15,42.17L687.02,34.78L691.89,34.78L696.77,32.95L701.64,28.03L706.51,41.18L711.38,41.96L716.26,32.18L721.13,25.64L726,26.48" style="vector-effect: none; fill: none; stroke: rgb(165, 42, 42); stroke-opacity: 1; stroke-width: 2px; opacity: 1;"/></g><g class="points"/><g class="text"/></g><g class="trace scatter trace16b7d3" style="stroke-miterlimit: 2; opacity: 1;"><g class="fills"/><g class="errorbars"/><g class="lines"><path class="js-line" d="M0,289.68L4.87,205.91L9.74,198.74L14.62,191.99L19.49,221.81L24.36,228.49L29.23,212.17L34.11,164.98L38.98,376.2L43.85,376.2L48.72,371.28L53.6,366.35L58.47,192.9L63.34,167.65L68.21,167.65L73.09,170.74L77.96,155.62L82.83,155.13L87.7,133.25L92.58,134.45L97.45,137.54L102.32,146.27L107.19,140.64L112.07,135.86L116.94,110.82L121.81,128.89L126.68,108.28L131.56,120.8L136.43,108.28L141.3,107.16L146.17,135.79L151.05,133.47L155.92,123.9L160.79,110.25L165.66,119.68L170.54,115.6L175.41,117.08L180.28,125.45L185.15,144.02L190.03,157.03L194.9,140.85L199.77,141.2L204.64,138.04L209.52,137.69L214.39,135.86L219.26,154.64L224.13,148.38L233.88,135.36L238.75,138.04L243.62,141.62L248.5,119.68L253.37,135.36L258.24,144.37L263.11,143.66L267.99,137.69L272.86,141.2L277.73,125.45L282.6,131.78L287.48,116.02L292.35,130.16L297.22,117.08L302.09,132.2L306.97,139.51L311.84,138.95L316.71,130.16L321.58,142.61L326.46,136.35L331.33,136.91L336.2,141.62L341.07,157.03L345.95,135.86L350.82,135.86L355.69,125.02L360.56,125.02L365.44,126.99L370.31,136.35L375.18,136.35L380.05,136.91L384.93,130.16L389.8,116.51L394.67,117.08L399.54,103.99L404.42,100.27L409.29,97.1L414.16,103.43L419.03,112.86L423.91,106.1L428.78,116.02L433.65,100.83L438.52,113.28L443.4,92.53L448.27,110.82L453.14,108.92L458.01,103.99L462.89,103.99L467.76,101.39L472.63,100.27L477.5,109.76L482.38,109.76L487.25,107.09L492.12,107.09L496.99,119.68L501.87,103.43L506.74,107.09L511.61,119.68L516.48,132.2L521.36,112.86L526.23,128.61L531.1,110.25L535.97,125.02L540.85,134.52L545.72,119.68L550.59,118.69L555.46,117.64L560.34,126.99L565.21,110.82L570.08,107.09L574.95,103.43L579.83,126.99L584.7,122.84L589.57,125.02L594.44,135.36L599.32,129.6L604.19,129.1L609.06,138.95L623.68,120.8L628.55,113.98L633.42,117.08L638.3,131.36L643.17,103.99L648.04,103.99L652.91,113.42L657.79,113.42L662.66,106.1L667.53,100.27L672.4,109.76L677.28,106.1L682.15,113.42L687.02,100.83L691.89,101.39L696.77,107.09L701.64,94.5L706.51,110.25L711.38,124.53L716.26,106.46L721.13,92.53L726,92.53" style="vector-effect: none; fill: none; stroke: rgb(128, 128, 128); stroke-opacity: 1; stroke-width: 2px; opacity: 1;"/></g><g class="points"/><g class="text"/></g></g></g><g class="overplot"/><path class="xlines-above crisp" d="M0,0" style="fill: none;"/><path class="ylines-above crisp" d="M0,0" style="fill: none;"/><g class="overlines-above"/><g class="xaxislayer-above"><g class="xtick"><text text-anchor="middle" x="0" y="509" transform="translate(235.57999999999998,0)" style="font-family: 'Open Sans', verdana, arial, sans-serif; font-size: 12px; fill: rgb(42, 63, 95); fill-opacity: 1; white-space: pre; opacity: 1;">20</text></g><g class="xtick"><text text-anchor="middle" x="0" y="509" style="font-family: 'Open Sans', verdana, arial, sans-serif; font-size: 12px; fill: rgb(42, 63, 95); fill-opacity: 1; white-space: pre; opacity: 1;" transform="translate(333.03,0)">40</text></g><g class="xtick"><text text-anchor="middle" x="0" y="509" style="font-family: 'Open Sans', verdana, arial, sans-serif; font-size: 12px; fill: rgb(42, 63, 95); fill-opacity: 1; white-space: pre; opacity: 1;" transform="translate(430.48,0)">60</text></g><g class="xtick"><text text-anchor="middle" x="0" y="509" style="font-family: 'Open Sans', verdana, arial, sans-serif; font-size: 12px; fill: rgb(42, 63, 95); fill-opacity: 1; white-space: pre; opacity: 1;" transform="translate(527.9300000000001,0)">80</text></g><g class="xtick"><text text-anchor="middle" x="0" y="509" style="font-family: 'Open Sans', verdana, arial, sans-serif; font-size: 12px; fill: rgb(42, 63, 95); fill-opacity: 1; white-space: pre; opacity: 1;" transform="translate(625.38,0)">100</text></g><g class="xtick"><text text-anchor="middle" x="0" y="509" style="font-family: 'Open Sans', verdana, arial, sans-serif; font-size: 12px; fill: rgb(42, 63, 95); fill-opacity: 1; white-space: pre; opacity: 1;" transform="translate(722.83,0)">120</text></g><g class="xtick"><text text-anchor="middle" x="0" y="509" style="font-family: 'Open Sans', verdana, arial, sans-serif; font-size: 12px; fill: rgb(42, 63, 95); fill-opacity: 1; white-space: pre; opacity: 1;" transform="translate(820.28,0)">140</text></g></g><g class="yaxislayer-above"><g class="ytick"><text text-anchor="end" x="142" y="4.199999999999999" transform="translate(0,465.16)" style="font-family: 'Open Sans', verdana, arial, sans-serif; font-size: 12px; fill: rgb(42, 63, 95); fill-opacity: 1; white-space: pre; opacity: 1;">40</text></g><g class="ytick"><text text-anchor="end" x="142" y="4.199999999999999" style="font-family: 'Open Sans', verdana, arial, sans-serif; font-size: 12px; fill: rgb(42, 63, 95); fill-opacity: 1; white-space: pre; opacity: 1;" transform="translate(0,394.82)">50</text></g><g class="ytick"><text text-anchor="end" x="142" y="4.199999999999999" style="font-family: 'Open Sans', verdana, arial, sans-serif; font-size: 12px; fill: rgb(42, 63, 95); fill-opacity: 1; white-space: pre; opacity: 1;" transform="translate(0,324.48)">60</text></g><g class="ytick"><text text-anchor="end" x="142" y="4.199999999999999" style="font-family: 'Open Sans', verdana, arial, sans-serif; font-size: 12px; fill: rgb(42, 63, 95); fill-opacity: 1; white-space: pre; opacity: 1;" transform="translate(0,254.14)">70</text></g><g class="ytick"><text text-anchor="end" x="142" y="4.199999999999999" style="font-family: 'Open Sans', verdana, arial, sans-serif; font-size: 12px; fill: rgb(42, 63, 95); fill-opacity: 1; white-space: pre; opacity: 1;" transform="translate(0,183.81)">80</text></g><g class="ytick"><text text-anchor="end" x="142" y="4.199999999999999" style="font-family: 'Open Sans', verdana, arial, sans-serif; font-size: 12px; fill: rgb(42, 63, 95); fill-opacity: 1; white-space: pre; opacity: 1;" transform="translate(0,113.47)">90</text></g></g><g class="overaxes-above"/></g></g><g class="polarlayer"/><g class="smithlayer"/><g class="ternarylayer"/><g class="geolayer"/><g class="funnelarealayer"/><g class="pielayer"/><g class="iciclelayer"/><g class="treemaplayer"/><g class="sunburstlayer"/><g class="glimages"/><defs id="topdefs-9c7304"><g class="clips"/><clipPath id="legend9c7304"><rect width="128" height="162" x="0" y="0"/></clipPath></defs><g class="layer-above"><g class="imagelayer"/><g class="shapelayer"/></g><g class="infolayer"><g class="legend" pointer-events="all" transform="translate(883.52,100)"><rect class="bg" shape-rendering="crispEdges" width="128" height="162" x="0" y="0" style="stroke: rgb(68, 68, 68); stroke-opacity: 1; fill: rgb(255, 255, 255); fill-opacity: 1; stroke-width: 0px;"/><g class="scrollbox" transform="" clip-path="url(#legend9c7304)"><g class="groups"><g class="traces" transform="translate(0,14.5)" style="opacity: 1;"><text class="legendtext" text-anchor="start" x="40" y="4.680000000000001" style="font-family: 'Open Sans', verdana, arial, sans-serif; font-size: 12px; fill: rgb(42, 63, 95); fill-opacity: 1; white-space: pre;">Train Accuracy</text><g class="layers" style="opacity: 1;"><g class="legendfill"/><g class="legendlines"><path class="js-line" d="M5,0h30" style="fill: none; stroke: rgb(255, 0, 0); stroke-opacity: 1; stroke-width: 2px;"/></g><g class="legendsymbols"><g class="legendpoints"/></g></g><rect class="legendtoggle" x="0" y="-9.5" width="122.71875" height="19" style="fill: rgb(0, 0, 0); fill-opacity: 0;"/></g><g class="traces" transform="translate(0,33.5)" style="opacity: 1;"><text class="legendtext" text-anchor="start" x="40" y="4.680000000000001" style="font-family: 'Open Sans', verdana, arial, sans-serif; font-size: 12px; fill: rgb(42, 63, 95); fill-opacity: 1; white-space: pre;">Test Accuracy</text><g class="layers" style="opacity: 1;"><g class="legendfill"/><g class="legendlines"><path class="js-line" d="M5,0h30" style="fill: none; stroke: rgb(0, 0, 255); stroke-opacity: 1; stroke-width: 2px;"/></g><g class="legendsymbols"><g class="legendpoints"/></g></g><rect class="legendtoggle" x="0" y="-9.5" width="122.71875" height="19" style="fill: rgb(0, 0, 0); fill-opacity: 0;"/></g><g class="traces" transform="translate(0,52.5)" style="opacity: 1;"><text class="legendtext" text-anchor="start" x="40" y="4.680000000000001" style="font-family: 'Open Sans', verdana, arial, sans-serif; font-size: 12px; fill: rgb(42, 63, 95); fill-opacity: 1; white-space: pre;">Train Precision</text><g class="layers" style="opacity: 1;"><g class="legendfill"/><g class="legendlines"><path class="js-line" d="M5,0h30" style="fill: none; stroke: rgb(0, 128, 0); stroke-opacity: 1; stroke-width: 2px;"/></g><g class="legendsymbols"><g class="legendpoints"/></g></g><rect class="legendtoggle" x="0" y="-9.5" width="122.71875" height="19" style="fill: rgb(0, 0, 0); fill-opacity: 0;"/></g><g class="traces" transform="translate(0,71.5)" style="opacity: 1;"><text class="legendtext" text-anchor="start" x="40" y="4.680000000000001" style="font-family: 'Open Sans', verdana, arial, sans-serif; font-size: 12px; fill: rgb(42, 63, 95); fill-opacity: 1; white-space: pre;">Test Precision</text><g class="layers" style="opacity: 1;"><g class="legendfill"/><g class="legendlines"><path class="js-line" d="M5,0h30" style="fill: none; stroke: rgb(255, 165, 0); stroke-opacity: 1; stroke-width: 2px;"/></g><g class="legendsymbols"><g class="legendpoints"/></g></g><rect class="legendtoggle" x="0" y="-9.5" width="122.71875" height="19" style="fill: rgb(0, 0, 0); fill-opacity: 0;"/></g><g class="traces" transform="translate(0,90.5)" style="opacity: 1;"><text class="legendtext" text-anchor="start" x="40" y="4.680000000000001" style="font-family: 'Open Sans', verdana, arial, sans-serif; font-size: 12px; fill: rgb(42, 63, 95); fill-opacity: 1; white-space: pre;">Train Recall</text><g class="layers" style="opacity: 1;"><g class="legendfill"/><g class="legendlines"><path class="js-line" d="M5,0h30" style="fill: none; stroke: rgb(128, 0, 128); stroke-opacity: 1; stroke-width: 2px;"/></g><g class="legendsymbols"><g class="legendpoints"/></g></g><rect class="legendtoggle" x="0" y="-9.5" width="122.71875" height="19" style="fill: rgb(0, 0, 0); fill-opacity: 0;"/></g><g class="traces" transform="translate(0,109.5)" style="opacity: 1;"><text class="legendtext" text-anchor="start" x="40" y="4.680000000000001" style="font-family: 'Open Sans', verdana, arial, sans-serif; font-size: 12px; fill: rgb(42, 63, 95); fill-opacity: 1; white-space: pre;">Test Recall</text><g class="layers" style="opacity: 1;"><g class="legendfill"/><g class="legendlines"><path class="js-line" d="M5,0h30" style="fill: none; stroke: rgb(255, 192, 203); stroke-opacity: 1; stroke-width: 2px;"/></g><g class="legendsymbols"><g class="legendpoints"/></g></g><rect class="legendtoggle" x="0" y="-9.5" width="122.71875" height="19" style="fill: rgb(0, 0, 0); fill-opacity: 0;"/></g><g class="traces" transform="translate(0,128.5)" style="opacity: 1;"><text class="legendtext" text-anchor="start" x="40" y="4.680000000000001" style="font-family: 'Open Sans', verdana, arial, sans-serif; font-size: 12px; fill: rgb(42, 63, 95); fill-opacity: 1; white-space: pre;">Train F1</text><g class="layers" style="opacity: 1;"><g class="legendfill"/><g class="legendlines"><path class="js-line" d="M5,0h30" style="fill: none; stroke: rgb(165, 42, 42); stroke-opacity: 1; stroke-width: 2px;"/></g><g class="legendsymbols"><g class="legendpoints"/></g></g><rect class="legendtoggle" x="0" y="-9.5" width="122.71875" height="19" style="fill: rgb(0, 0, 0); fill-opacity: 0;"/></g><g class="traces" transform="translate(0,147.5)" style="opacity: 1;"><text class="legendtext" text-anchor="start" x="40" y="4.680000000000001" style="font-family: 'Open Sans', verdana, arial, sans-serif; font-size: 12px; fill: rgb(42, 63, 95); fill-opacity: 1; white-space: pre;">Test F1</text><g class="layers" style="opacity: 1;"><g class="legendfill"/><g class="legendlines"><path class="js-line" d="M5,0h30" style="fill: none; stroke: rgb(128, 128, 128); stroke-opacity: 1; stroke-width: 2px;"/></g><g class="legendsymbols"><g class="legendpoints"/></g></g><rect class="legendtoggle" x="0" y="-9.5" width="122.71875" height="19" style="fill: rgb(0, 0, 0); fill-opacity: 0;"/></g></g></g><rect class="scrollbar" rx="20" ry="3" width="0" height="0" x="0" y="0" style="fill: rgb(128, 139, 164); fill-opacity: 1;"/></g><g class="g-gtitle"><text class="gtitle" x="51.2" y="50" text-anchor="start" dy="0em" style="font-family: 'Open Sans', verdana, arial, sans-serif; font-size: 17px; fill: rgb(42, 63, 95); opacity: 1; font-weight: normal; white-space: pre;">Training Metrics - logs/FakeNewsNet-politifact_max-vocab=15000_pre=v1_text_domain_T=50_s=10.log</text></g><g class="g-xtitle"><text class="xtitle" x="506" y="537.3" text-anchor="middle" style="font-family: 'Open Sans', verdana, arial, sans-serif; font-size: 14px; fill: rgb(42, 63, 95); opacity: 1; font-weight: normal; white-space: pre;">Epoch</text></g><g class="g-ytitle"><text class="ytitle" transform="rotate(-90,103.965625,298)" x="103.965625" y="298" text-anchor="middle" style="font-family: 'Open Sans', verdana, arial, sans-serif; font-size: 14px; fill: rgb(42, 63, 95); opacity: 1; font-weight: normal; white-space: pre;">Metric Score</text></g></g><g class="menulayer"><g class="updatemenu-container" style="cursor: pointer;"><g class="updatemenu-header-group" transform="translate(12,60)"><g class="updatemenu-header" transform="translate(1,1)" style="pointer-events: all;"><rect class="updatemenu-item-rect" rx="2" ry="2" shape-rendering="crispEdges" x="0" y="0" width="167" height="33" style="stroke: rgb(190, 200, 217); stroke-opacity: 1; fill: rgb(255, 255, 255); fill-opacity: 1; stroke-width: 1px;"/><text class="updatemenu-item-text" text-anchor="start" data-notex="1" x="12" y="19.5" style="font-family: 'Open Sans', verdana, arial, sans-serif; font-size: 12px; fill: rgb(42, 63, 95); fill-opacity: 1; white-space: pre;">All</text></g><text class="updatemenu-header-arrow" text-anchor="end" x="163" y="19.5" style="font-family: 'Open Sans', verdana, arial, sans-serif; font-size: 12px; fill: rgb(42, 63, 95); fill-opacity: 1;">▼</text></g><g class="updatemenu-dropdown-button-group" updatemenu-active-index="-1" style="pointer-events: all;"><rect class="scrollbox-bg" opacity="0" x="0" y="0" width="0" height="0" style="pointer-events: all;"/></g></g></g></svg>