<svg class="main-svg" xmlns="http://www.w3.org/2000/svg" xmlns:xlink="http://www.w3.org/1999/xlink" width="1024" height="576" style="" viewBox="0 0 1024 576"><rect x="0" y="0" width="1024" height="576" style="fill: rgb(255, 255, 255); fill-opacity: 1;"/><defs id="defs-f2a85f"><g class="clips"><clipPath id="clipf2a85fxyplot" class="plotclip"><rect width="726" height="396"/></clipPath><clipPath class="axesclip" id="clipf2a85fx"><rect x="143" y="0" width="726" height="576"/></clipPath><clipPath class="axesclip" id="clipf2a85fy"><rect x="0" y="100" width="1024" height="396"/></clipPath><clipPath class="axesclip" id="clipf2a85fxy"><rect x="143" y="100" width="726" height="396"/></clipPath></g><g class="gradients"/><g class="patterns"/></defs><g class="bglayer"><rect class="bg" x="143" y="100" width="726" height="396" style="fill: rgb(229, 236, 246); fill-opacity: 1; stroke-width: 0;"/></g><g class="layer-below"><g class="imagelayer"/><g class="shapelayer"/></g><g class="cartesianlayer"><g class="subplot xy"><g class="layer-subplot"><g class="shapelayer"/><g class="imagelayer"/></g><g class="minor-gridlayer"><g class="x"/><g class="y"/></g><g class="gridlayer"><g class="x"><path class="xgrid crisp" transform="translate(235.57999999999998,0)" d="M0,100v396" style="stroke: rgb(255, 255, 255); stroke-opacity: 1; stroke-width: 1px;"/><path class="xgrid crisp" transform="translate(333.03,0)" d="M0,100v396" style="stroke: rgb(255, 255, 255); stroke-opacity: 1; stroke-width: 1px;"/><path class="xgrid crisp" transform="translate(430.48,0)" d="M0,100v396" style="stroke: rgb(255, 255, 255); stroke-opacity: 1; stroke-width: 1px;"/><path class="xgrid crisp" transform="translate(527.9300000000001,0)" d="M0,100v396" style="stroke: rgb(255, 255, 255); stroke-opacity: 1; stroke-width: 1px;"/><path class="xgrid crisp" transform="translate(625.38,0)" d="M0,100v396" style="stroke: rgb(255, 255, 255); stroke-opacity: 1; stroke-width: 1px;"/><path class="xgrid crisp" transform="translate(722.83,0)" d="M0,100v396" style="stroke: rgb(255, 255, 255); stroke-opacity: 1; stroke-width: 1px;"/><path class="xgrid crisp" transform="translate(820.28,0)" d="M0,100v396" style="stroke: rgb(255, 255, 255); stroke-opacity: 1; stroke-width: 1px;"/></g><g class="y"><path class="ygrid crisp" transform="translate(0,491.85)" d="M143,0h726" style="stroke: rgb(255, 255, 255); stroke-opacity: 1; stroke-width: 1px;"/><path class="ygrid crisp" transform="translate(0,449.55)" d="M143,0h726" style="stroke: rgb(255, 255, 255); stroke-opacity: 1; stroke-width: 1px;"/><path class="ygrid crisp" transform="translate(0,407.25)" d="M143,0h726" style="stroke: rgb(255, 255, 255); stroke-opacity: 1; stroke-width: 1px;"/><path class="ygrid crisp" transform="translate(0,364.94)" d="M143,0h726" style="stroke: rgb(255, 255, 255); stroke-opacity: 1; stroke-width: 1px;"/><path class="ygrid crisp" transform="translate(0,322.64)" d="M143,0h726" style="stroke: rgb(255, 255, 255); stroke-opacity: 1; stroke-width: 1px;"/><path class="ygrid crisp" transform="translate(0,280.34000000000003)" d="M143,0h726" style="stroke: rgb(255, 255, 255); stroke-opacity: 1; stroke-width: 1px;"/><path class="ygrid crisp" transform="translate(0,238.04)" d="M143,0h726" style="stroke: rgb(255, 255, 255); stroke-opacity: 1; stroke-width: 1px;"/><path class="ygrid crisp" transform="translate(0,195.73000000000002)" d="M143,0h726" style="stroke: rgb(255, 255, 255); stroke-opacity: 1; stroke-width: 1px;"/><path class="ygrid crisp" transform="translate(0,153.43)" d="M143,0h726" style="stroke: rgb(255, 255, 255); stroke-opacity: 1; stroke-width: 1px;"/><path class="ygrid crisp" transform="translate(0,111.13)" d="M143,0h726" style="stroke: rgb(255, 255, 255); stroke-opacity: 1; stroke-width: 1px;"/></g></g><g class="zerolinelayer"/><path class="xlines-below"/><path class="ylines-below"/><g class="overlines-below"/><g class="xaxislayer-below"/><g class="yaxislayer-below"/><g class="overaxes-below"/><g class="plot" transform="translate(143,100)" clip-path="url(#clipf2a85fxyplot)"><g class="scatterlayer mlayer"><g class="trace scatter traceba12c9" style="stroke-miterlimit: 2; opacity: 1;"><g class="fills"/><g class="errorbars"/><g class="lines"><path class="js-line" d="M0,311.05L4.87,220.95L9.74,323.74L14.62,313.59L19.49,158.34L24.36,133.17L29.23,140.79L34.11,190.91L38.98,148.19L43.85,188.38L48.72,133.17L53.6,115.62L58.47,108.21L63.34,105.67L68.21,118.15L73.09,93.2L77.96,113.08L82.83,115.62L87.7,110.75L92.58,110.75L97.45,100.6L102.32,93.2L107.19,93.2L112.07,105.67L116.94,103.14L121.81,223.49L126.68,113.08L131.56,123.23L136.43,130.63L141.3,103.14L146.17,95.73L151.05,103.14L155.92,95.73L160.79,88.12L165.66,83.04L170.54,95.73L175.41,95.73L180.28,93.2L185.15,88.12L190.03,90.66L194.9,95.73L199.77,213.33L204.64,195.78L209.52,85.58L214.39,90.66L219.26,83.04L224.13,78.18L229.01,70.56L233.88,70.56L238.75,70.56L243.62,88.12L248.5,88.12L253.37,75.64L258.24,83.04L263.11,60.62L267.99,65.49L272.86,170.82L277.73,153.26L282.6,68.03L287.48,65.49L292.35,65.49L302.09,70.56L306.97,75.64L311.84,68.03L316.71,90.66L321.58,98.06L326.46,128.31L331.33,105.67L336.2,153.26L341.07,135.71L345.95,88.12L350.82,85.58L355.69,80.5L360.56,78.18L365.44,58.08L370.31,75.64L375.18,62.95L384.93,58.08L389.8,58.08L394.67,55.55L399.54,138.25L404.42,55.55L409.29,60.62L414.16,60.62L419.03,65.49L433.65,73.1L438.52,145.65L443.4,148.19L448.27,148.19L453.14,155.8L458.01,68.03L462.89,83.04L467.76,47.93L472.63,133.17L477.5,143.32L482.38,148.19L487.25,143.32L492.12,47.93L496.99,55.55L501.87,65.49L506.74,58.08L511.61,65.49L516.48,170.82L521.36,140.79L526.23,150.73L535.97,150.73L540.85,170.82L545.72,165.74L550.59,168.28L555.46,163.21L560.34,168.28L565.21,165.74L570.08,160.88L574.95,178.44L579.83,155.8L584.7,160.88L589.57,145.65L594.44,153.26L599.32,190.91L604.19,158.34L609.06,160.88L613.93,163.21L618.81,183.3L623.68,83.04L628.55,53.01L633.42,47.93L638.3,53.01L643.17,50.47L648.04,45.6L652.91,53.01L657.79,50.47L662.66,75.64L667.53,75.64L672.4,68.03L677.28,70.56L682.15,90.66L687.02,62.95L691.89,160.88L696.77,168.28L701.64,148.19L706.51,155.8L711.38,175.9L716.26,68.03L721.13,50.47L726,53.01" style="vector-effect: none; fill: none; stroke: rgb(255, 0, 0); stroke-opacity: 1; stroke-width: 2px; opacity: 1;"/></g><g class="points"/><g class="text"/></g><g class="trace scatter trace88354e" style="stroke-miterlimit: 2; opacity: 1;"><g class="fills"/><g class="errorbars"/><g class="lines"><path class="js-line" d="M0,256.06L4.87,156.44L9.74,375.99L14.62,365.84L19.49,146.5L24.36,106.52L29.23,166.38L34.11,256.06L38.98,176.32L43.85,226.24L48.72,196.2L53.6,216.3L58.47,216.3L63.34,146.5L68.21,196.2L73.09,196.2L77.96,176.32L82.83,166.38L87.7,176.32L92.58,166.38L97.45,216.3L102.32,146.5L107.19,136.34L112.07,156.44L116.94,166.38L121.81,365.84L126.68,186.26L131.56,166.38L136.43,216.3L141.3,176.32L146.17,146.5L151.05,136.34L155.92,176.32L160.79,176.32L165.66,146.5L170.54,126.4L175.41,136.34L180.28,146.5L185.15,126.4L190.03,126.4L194.9,116.46L199.77,365.84L204.64,336.01L209.52,126.4L214.39,126.4L219.26,136.34L224.13,106.52L229.01,86.64L233.88,126.4L238.75,76.49L243.62,146.5L253.37,126.4L258.24,136.34L263.11,96.58L267.99,106.52L272.86,305.98L277.73,326.07L282.6,126.4L287.48,116.46L292.35,106.52L297.22,126.4L302.09,126.4L306.97,136.34L311.84,126.4L316.71,136.34L321.58,166.38L326.46,156.44L331.33,126.4L336.2,196.2L341.07,196.2L345.95,166.38L350.82,136.34L355.69,136.34L360.56,116.46L365.44,136.34L370.31,106.52L375.18,106.52L380.05,156.44L384.93,126.4L394.67,126.4L399.54,326.07L404.42,176.32L409.29,186.26L414.16,176.32L419.03,156.44L423.91,156.44L428.78,116.46L433.65,126.4L438.52,296.04L443.4,336.01L448.27,355.89L453.14,355.89L458.01,156.44L462.89,176.32L467.76,126.4L472.63,345.95L477.5,316.13L482.38,326.07L487.25,365.84L492.12,176.32L496.99,166.38L506.74,146.5L511.61,186.26L516.48,365.84L521.36,336.01L531.1,316.13L535.97,296.04L540.85,345.95L545.72,316.13L550.59,326.07L555.46,296.04L560.34,296.04L565.21,316.13L570.08,296.04L574.95,296.04L579.83,316.13L584.7,326.07L589.57,305.98L594.44,345.95L599.32,365.84L604.19,326.07L609.06,336.01L613.93,355.89L618.81,365.84L623.68,196.2L628.55,146.5L633.42,156.44L638.3,176.32L643.17,186.26L648.04,216.3L652.91,186.26L657.79,146.5L662.66,136.34L667.53,156.44L672.4,146.5L682.15,186.26L687.02,126.4L691.89,365.84L696.77,355.89L701.64,326.07L706.51,326.07L711.38,326.07L716.26,136.34L721.13,146.5L726,126.4" style="vector-effect: none; fill: none; stroke: rgb(0, 0, 255); stroke-opacity: 1; stroke-width: 2px; opacity: 1;"/></g><g class="points"/><g class="text"/></g><g class="trace scatter trace8e41a8" style="stroke-miterlimit: 2; opacity: 1;"><g class="fills"/><g class="errorbars"/><g class="lines"><path class="js-line" d="M0,323.74L4.87,229.62L9.74,271.92L14.62,270.44L19.49,160.46L24.36,109.27L29.23,115.19L34.11,202.34L38.98,145.44L43.85,199.37L48.72,132.96L53.6,107.58L58.47,96.16L63.34,97.85L68.21,121.11L73.09,78.39L77.96,96.16L82.83,103.77L87.7,100.81L92.58,92.56L97.45,86L102.32,75.43L107.19,75.43L112.07,101.02L116.94,87.91L121.81,194.51L126.68,113.29L136.43,135.92L141.3,101.87L146.17,86.85L151.05,94.46L155.92,89.18L160.79,80.5L165.66,73.95L170.54,90.23L175.41,90.23L180.28,93.83L190.03,80.29L194.9,91.29L199.77,176.32L204.64,162.57L209.52,80.72L214.39,84.95L219.26,75.22L224.13,61.89L229.01,61.05L233.88,52.8L238.75,44.76L243.62,72.89L248.5,75.64L253.37,58.3L258.24,61.26L263.11,19.8L267.99,27.63L272.86,169.55L277.73,150.73L282.6,39.26L287.48,45.82L292.35,45.82L297.22,37.36L302.09,49.83L306.97,56.81L311.84,50.89L316.71,88.96L321.58,98.27L326.46,134.65L331.33,107.37L336.2,163.63L341.07,145.65L345.95,81.77L350.82,83.68L355.69,74.16L360.56,67.39L365.44,38.2L370.31,53.64L384.93,41.37L389.8,48.14L394.67,37.78L399.54,122.6L404.42,31.43L409.29,38.62L414.16,38.62L419.03,37.36L423.91,50.89L428.78,61.05L433.65,63.16L438.52,133.17L443.4,134.02L448.27,128.73L453.14,134.23L458.01,58.93L462.89,73.95L467.76,31.86L472.63,118.79L477.5,130.21L482.38,131.48L487.25,130.21L492.12,30.38L496.99,22.34L506.74,38.2L511.61,56.81L516.48,142.05L521.36,127.04L526.23,135.92L531.1,133.17L535.97,137.19L540.85,150.73L545.72,153.48L550.59,154.11L555.46,139.73L560.34,140.15L565.21,136.98L570.08,134.86L574.95,160.46L579.83,135.71L584.7,140.57L589.57,128.31L594.44,128.09L599.32,148.82L604.19,133.17L609.06,131.69L613.93,133.59L618.81,143.75L623.68,84.73L628.55,42.64L633.42,31.86L638.3,34.39L643.17,35.24L648.04,32.7L652.91,42.64L657.79,39.47L662.66,70.99L667.53,69.93L672.4,58.93L677.28,66.76L682.15,88.96L687.02,52.37L691.89,134.86L696.77,138.67L701.64,131.48L706.51,135.71L711.38,143.75L716.26,56.39L721.13,29.11L726,40.11" style="vector-effect: none; fill: none; stroke: rgb(0, 128, 0); stroke-opacity: 1; stroke-width: 2px; opacity: 1;"/></g><g class="points"/><g class="text"/></g><g class="trace scatter traceabedaf" style="stroke-miterlimit: 2; opacity: 1;"><g class="fills"/><g class="errorbars"/><g class="lines"><path class="js-line" d="M0,283.77L4.87,187.11L9.74,285.46L14.62,280.17L19.49,176.74L24.36,126.83L29.23,190.49L34.11,283.77L38.98,208.47L43.85,254.58L48.72,226.87L53.6,249.93L58.47,250.77L63.34,176.74L68.21,228.14L73.09,227.08L77.96,202.97L82.83,195.14L87.7,206.78L92.58,195.14L97.45,249.08L102.32,173.15L107.19,163.42L112.07,187.11L116.94,196.41L121.81,299.21L126.68,218.83L131.56,197.89L136.43,248.87L141.3,208.26L146.17,176.11L151.05,163.42L155.92,207.84L160.79,207.84L165.66,173.15L170.54,151.36L175.41,164.9L180.28,176.74L185.15,155.59L194.9,141.63L199.77,289.9L204.64,272.98L209.52,153.48L214.39,153.48L219.26,164.9L224.13,123.44L229.01,104.62L233.88,145.65L238.75,76.91L243.62,173.15L248.5,161.3L253.37,148.82L258.24,158.55L263.11,100.18L267.99,114.56L272.86,297.73L277.73,323.32L282.6,132.33L287.48,132.75L292.35,123.44L297.22,148.82L302.09,145.65L306.97,155.17L311.84,142.05L316.71,165.96L321.58,197.89L326.46,186.68L331.33,155.59L336.2,222.85L341.07,224.97L345.95,196.41L350.82,163.42L355.69,164.9L360.56,136.34L365.44,155.17L370.31,123.44L375.18,126.83L380.05,183.09L384.93,151.36L389.8,151.36L394.67,148.82L399.54,305.34L404.42,200.43L409.29,215.24L414.16,206.78L419.03,177.8L423.91,183.09L428.78,143.32L433.65,153.48L438.52,271.92L443.4,312.11L448.27,325.23L453.14,310.21L458.01,186.26L462.89,207.84L467.76,148.82L472.63,311.48L477.5,292.02L482.38,291.38L487.25,331.78L492.12,206.78L496.99,187.53L501.87,180.76L506.74,171.03L511.61,216.93L516.48,316.34L521.36,305.13L526.23,283.77L531.1,269.6L535.97,240.83L540.85,269.17L545.72,269.6L550.59,291.38L555.46,257.33L560.34,240.83L565.21,261.35L570.08,257.33L574.95,271.92L579.83,292.02L584.7,283.77L589.57,263.46L594.44,287.58L599.32,289.9L604.19,275.73L609.06,272.98L613.93,284.4L618.81,280.17L628.55,176.11L633.42,184.99L638.3,207.84L643.17,217.99L648.04,250.77L652.91,216.93L657.79,168.07L662.66,161.3L667.53,183.09L672.4,173.15L682.15,218.83L687.02,151.36L691.89,299.21L696.77,302.17L701.64,298.57L706.51,298.57L711.38,275.73L716.26,158.55L721.13,173.15L726,151.36" style="vector-effect: none; fill: none; stroke: rgb(255, 165, 0); stroke-opacity: 1; stroke-width: 2px; opacity: 1;"/></g><g class="points"/><g class="text"/></g><g class="trace scatter trace239618" style="stroke-miterlimit: 2; opacity: 1;"><g class="fills"/><g class="errorbars"/><g class="lines"><path class="js-line" d="M0,316.34L4.87,244.43L9.74,277.42L14.62,271.29L19.49,183.93L24.36,174.84L29.23,183.72L34.11,202.76L38.98,177.8L43.85,202.34L48.72,158.98L53.6,146.28L58.47,140.79L63.34,135.29L68.21,139.52L73.09,126.19L77.96,149.25L82.83,148.82L87.7,142.05L92.58,147.13L97.45,134.23L102.32,127.88L107.19,127.88L116.94,137.19L121.81,186.9L126.68,136.77L131.56,146.28L136.43,150.3L141.3,127.25L146.17,124.92L151.05,133.17L155.92,123.23L160.79,116.04L165.66,111.6L170.54,122.38L175.41,122.38L180.28,114.56L185.15,110.96L190.03,120.69L194.9,121.75L199.77,172.51L204.64,156.65L209.52,111.39L214.39,117.31L219.26,110.96L224.13,110.75L229.01,98.48L238.75,107.58L243.62,120.9L248.5,119.42L253.37,108.42L258.24,119.21L263.11,103.14L267.99,107.37L272.86,152.42L277.73,133.17L282.6,106.1L287.48,99.12L292.35,99.12L297.22,106.94L302.09,105.04L306.97,109.27L311.84,100.39L316.71,113.92L321.58,120.48L326.46,145.65L331.33,127.04L336.2,164.69L341.07,146.28L345.95,115.19L350.82,108.85L355.69,106.94L360.56,107.37L365.44,90.87L370.31,110.96L375.18,92.77L380.05,91.5L384.93,89.18L389.8,85.16L394.67,87.06L399.54,107.79L404.42,90.45L409.29,94.68L414.16,94.68L419.03,103.14L428.78,98.48L433.65,101.44L438.52,117.52L443.4,118.79L448.27,115.62L453.14,121.96L458.01,95.52L462.89,111.6L467.76,78.18L472.63,103.35L477.5,114.56L482.38,117.31L487.25,114.56L492.12,79.02L496.99,94.68L501.87,106.52L506.74,90.87L511.61,92.35L516.48,133.38L521.36,111.6L526.23,121.11L531.1,119.42L535.97,121.96L540.85,138.25L545.72,138.04L550.59,139.52L555.46,128.52L560.34,131.27L570.08,124.71L574.95,147.34L579.83,122.81L584.7,128.09L589.57,114.13L594.44,117.31L599.32,147.34L604.19,122.6L609.06,123.02L613.93,125.13L618.81,140.79L623.68,102.5L628.55,80.08L633.42,78.18L638.3,84.95L643.17,80.29L648.04,73.52L652.91,80.08L657.79,77.75L662.66,100.18L667.53,101.02L672.4,95.52L677.28,94.25L682.15,113.92L687.02,91.08L691.89,124.71L696.77,130.42L701.64,117.31L706.51,122.81L711.38,136.77L716.26,97L721.13,83.68L726,81.56" style="vector-effect: none; fill: none; stroke: rgb(128, 0, 128); stroke-opacity: 1; stroke-width: 2px; opacity: 1;"/></g><g class="points"/><g class="text"/></g><g class="trace scatter tracec799e2" style="stroke-miterlimit: 2; opacity: 1;"><g class="fills"/><g class="errorbars"/><g class="lines"><path class="js-line" d="M0,253.95L4.87,180.76L9.74,274.89L14.62,267.06L19.49,167.01L24.36,146.92L29.23,216.93L34.11,253.95L38.98,196.41L43.85,224.54L48.72,200.86L53.6,233.64L58.47,250.77L63.34,167.01L68.21,206.57L73.09,240.62L77.96,224.76L82.83,205.51L87.7,213.55L92.58,205.51L97.45,261.98L102.32,184.15L107.19,170.61L112.07,180.76L116.94,199.8L121.81,278.48L126.68,204.24L131.56,188.59L136.43,227.93L141.3,190.7L146.17,172.72L151.05,170.61L155.92,207.84L160.79,207.84L165.66,184.15L170.54,162.57L175.41,164.9L180.28,167.01L185.15,145.65L190.03,168.28L194.9,149.03L199.77,272.77L204.64,249.08L209.52,157.07L214.39,157.07L219.26,164.9L224.13,152.63L229.01,125.35L233.88,173.99L238.75,134.44L243.62,184.15L253.37,168.28L258.24,181.82L263.11,156.01L267.99,163.84L272.86,259.44L277.73,286.52L282.6,190.91L287.48,166.17L292.35,152.63L297.22,168.28L302.09,173.99L306.97,187.53L311.84,179.7L316.71,159.19L321.58,188.59L326.46,163.63L331.33,145.65L336.2,189.65L345.95,199.8L350.82,170.61L355.69,164.9L360.56,160.46L365.44,187.53L370.31,152.63L375.18,146.92L380.05,197.68L384.93,162.57L389.8,162.57L394.67,168.28L399.54,269.6L404.42,230.47L409.29,232.58L414.16,213.55L419.03,208.89L423.91,197.68L428.78,143.32L433.65,157.07L438.52,234.49L443.4,277.42L448.27,293.08L453.14,281.87L458.01,186.26L462.89,207.84L467.76,168.28L472.63,279.54L477.5,255.85L482.38,258.18L487.25,301.11L492.12,213.55L496.99,222.64L501.87,203.39L506.74,189.86L511.61,227.08L516.48,289.69L526.23,252.46L531.1,238.93L535.97,211.85L540.85,251.2L545.72,238.93L550.59,258.18L555.46,223.06L560.34,211.85L565.21,233.22L570.08,223.06L574.95,234.49L579.83,255.85L584.7,252.46L589.57,231.1L594.44,262.62L599.32,272.77L604.19,246.75L609.06,249.08L613.93,264.94L618.81,267.06L623.68,200.86L628.55,172.72L633.42,191.97L638.3,207.84L643.17,221.37L648.04,250.77L652.91,227.08L657.79,195.36L662.66,176.11L667.53,197.68L672.4,184.15L677.28,194.3L682.15,215.66L687.02,162.57L691.89,278.48L696.77,276.15L701.64,263.89L706.51,263.89L711.38,246.75L716.26,181.82L721.13,184.15L726,162.57" style="vector-effect: none; fill: none; stroke: rgb(255, 192, 203); stroke-opacity: 1; stroke-width: 2px; opacity: 1;"/></g><g class="points"/><g class="text"/></g><g class="trace scatter trace87b87d" style="stroke-miterlimit: 2; opacity: 1;"><g class="fills"/><g class="errorbars"/><g class="lines"><path class="js-line" d="M0,321.21L4.87,238.93L9.74,323.74L14.62,313.59L19.49,175.69L24.36,158.55L29.23,167.44L34.11,202.55L38.98,167.22L43.85,200.86L48.72,149.88L53.6,134.23L58.47,127.25L63.34,123.23L68.21,132.33L73.09,111.81L77.96,134.44L82.83,135.5L87.7,129.36L92.58,131.9L97.45,120.06L102.32,112.65L107.19,112.65L112.07,121.96L116.94,122.81L121.81,223.7L126.68,128.31L131.56,138.25L136.43,144.38L141.3,118.15L146.17,112.65L151.05,120.9L155.92,112.02L160.79,104.19L165.66,99.33L170.54,111.6L175.41,111.6L185.15,102.08L190.03,107.79L194.9,111.17L199.77,213.55L204.64,195.99L209.52,100.81L214.39,106.31L219.26,98.91L224.13,95.94L229.01,86L238.75,90.23L243.62,106.52L248.5,105.67L253.37,93.62L258.24,102.92L263.11,82.41L267.99,87.48L272.86,173.36L277.73,155.38L282.6,88.12L287.48,83.25L292.35,83.25L297.22,88.54L302.09,88.96L306.97,93.83L311.84,85.37L316.71,104.83L321.58,112.23L326.46,141L331.33,119.42L336.2,164.05L341.07,146.07L345.95,103.98L350.82,99.75L355.69,95.73L360.56,94.46L365.44,75.22L370.31,94.68L375.18,79.02L380.05,76.91L389.8,72.68L394.67,72.04L399.54,139.09L404.42,73.52L409.29,78.39L414.16,78.39L419.03,85.37L423.91,85.37L428.78,86L433.65,88.75L438.52,146.71L443.4,149.25L448.27,148.82L453.14,156.23L458.01,83.25L462.89,99.33L467.76,63.58L472.63,134.02L477.5,144.17L482.38,149.03L487.25,144.17L492.12,63.79L501.87,86.85L506.74,75.22L511.61,80.5L516.48,171.03L521.36,141.63L526.23,151.57L535.97,151.78L540.85,171.46L545.72,166.8L550.59,169.34L555.46,163.63L560.34,168.49L565.21,165.96L570.08,161.09L574.95,179.07L579.83,156.23L584.7,161.3L589.57,146.5L594.44,153.69L599.32,190.91L604.19,158.55L609.06,161.09L613.93,163.42L618.81,183.3L623.68,95.52L628.55,67.39L633.42,63.58L638.3,69.51L643.17,65.91L648.04,59.99L652.91,67.39L657.79,65.06L662.66,89.81L667.53,90.23L672.4,83.25L677.28,84.31L682.15,104.83L687.02,78.39L691.89,161.09L696.77,168.49L701.64,149.03L706.51,156.23L711.38,175.9L716.26,83.89L721.13,67.39L726,68.03" style="vector-effect: none; fill: none; stroke: rgb(165, 42, 42); stroke-opacity: 1; stroke-width: 2px; opacity: 1;"/></g><g class="points"/><g class="text"/></g><g class="trace scatter trace3ee1e4" style="stroke-miterlimit: 2; opacity: 1;"><g class="fills"/><g class="errorbars"/><g class="lines"><path class="js-line" d="M0,276.58L4.87,184.15L9.74,376.2L14.62,366.26L19.49,172.3L24.36,138.04L29.23,205.93L34.11,276.58L38.98,203.18L43.85,246.33L48.72,217.99L53.6,243.37L58.47,250.77L63.34,172.3L68.21,220.1L73.09,234.49L77.96,215.45L82.83,200.64L87.7,210.16L92.58,200.64L97.45,256.27L102.32,179.07L107.19,167.01L112.07,184.15L116.94,198.32L121.81,367.1L126.68,212.7L131.56,193.66L136.43,241.04L141.3,201.07L146.17,174.42L151.05,167.01L155.92,207.84L160.79,207.84L165.66,179.07L170.54,157.5L175.41,164.9L180.28,172.3L185.15,151.15L190.03,159.82L194.9,145.44L199.77,366.47L204.64,337.28L209.52,155.17L214.39,155.17L219.26,164.9L224.13,140.36L229.01,116.25L233.88,162.15L238.75,113.29L243.62,179.07L253.37,159.82L258.24,171.88L263.11,135.5L267.99,145.23L272.86,313.8L277.73,335.38L282.6,170.19L287.48,152.42L292.35,140.36L297.22,159.82L302.09,162.15L306.97,174.42L311.84,164.69L316.71,162.78L321.58,193.66L326.46,178.01L331.33,151.15L336.2,214.18L341.07,216.08L345.95,198.32L350.82,167.01L355.69,164.9L360.56,150.09L365.44,174.42L370.31,140.36L375.18,138.04L380.05,191.13L384.93,157.5L389.8,157.5L394.67,159.82L399.54,331.57L404.42,218.41L409.29,224.97L414.16,210.16L419.03,196.41L423.91,191.13L428.78,143.32L433.65,155.17L438.52,300.9L443.4,341.09L448.27,360.34L453.14,358.64L458.01,186.26L462.89,207.84L467.76,159.82L472.63,349.76L477.5,321L482.38,329.67L487.25,369.85L492.12,210.16L496.99,208.89L501.87,193.66L506.74,181.61L511.61,222.43L516.48,368.16L521.36,340.24L531.1,318.46L535.97,297.73L540.85,346.59L545.72,318.46L550.59,329.67L555.46,299.21L560.34,297.73L565.21,317.82L570.08,299.21L574.95,300.9L579.83,321L584.7,328.82L589.57,308.73L594.44,347.65L599.32,366.47L604.19,328.19L609.06,337.28L613.93,356.74L618.81,366.26L623.68,217.99L628.55,174.42L633.42,188.59L638.3,207.84L643.17,219.68L648.04,250.77L652.91,222.43L657.79,184.15L662.66,169.55L667.53,191.13L672.4,179.07L677.28,195.99L682.15,217.35L687.02,157.5L691.89,367.1L696.77,357.8L701.64,330.51L706.51,330.51L711.38,328.19L716.26,171.88L721.13,179.07L726,157.5" style="vector-effect: none; fill: none; stroke: rgb(128, 128, 128); stroke-opacity: 1; stroke-width: 2px; opacity: 1;"/></g><g class="points"/><g class="text"/></g></g></g><g class="overplot"/><path class="xlines-above crisp" d="M0,0" style="fill: none;"/><path class="ylines-above crisp" d="M0,0" style="fill: none;"/><g class="overlines-above"/><g class="xaxislayer-above"><g class="xtick"><text text-anchor="middle" x="0" y="509" transform="translate(235.57999999999998,0)" style="font-family: 'Open Sans', verdana, arial, sans-serif; font-size: 12px; fill: rgb(42, 63, 95); fill-opacity: 1; white-space: pre; opacity: 1;">20</text></g><g class="xtick"><text text-anchor="middle" x="0" y="509" style="font-family: 'Open Sans', verdana, arial, sans-serif; font-size: 12px; fill: rgb(42, 63, 95); fill-opacity: 1; white-space: pre; opacity: 1;" transform="translate(333.03,0)">40</text></g><g class="xtick"><text text-anchor="middle" x="0" y="509" style="font-family: 'Open Sans', verdana, arial, sans-serif; font-size: 12px; fill: rgb(42, 63, 95); fill-opacity: 1; white-space: pre; opacity: 1;" transform="translate(430.48,0)">60</text></g><g class="xtick"><text text-anchor="middle" x="0" y="509" style="font-family: 'Open Sans', verdana, arial, sans-serif; font-size: 12px; fill: rgb(42, 63, 95); fill-opacity: 1; white-space: pre; opacity: 1;" transform="translate(527.9300000000001,0)">80</text></g><g class="xtick"><text text-anchor="middle" x="0" y="509" style="font-family: 'Open Sans', verdana, arial, sans-serif; font-size: 12px; fill: rgb(42, 63, 95); fill-opacity: 1; white-space: pre; opacity: 1;" transform="translate(625.38,0)">100</text></g><g class="xtick"><text text-anchor="middle" x="0" y="509" style="font-family: 'Open Sans', verdana, arial, sans-serif; font-size: 12px; fill: rgb(42, 63, 95); fill-opacity: 1; white-space: pre; opacity: 1;" transform="translate(722.83,0)">120</text></g><g class="xtick"><text text-anchor="middle" x="0" y="509" style="font-family: 'Open Sans', verdana, arial, sans-serif; font-size: 12px; fill: rgb(42, 63, 95); fill-opacity: 1; white-space: pre; opacity: 1;" transform="translate(820.28,0)">140</text></g></g><g class="yaxislayer-above"><g class="ytick"><text text-anchor="end" x="142" y="4.199999999999999" transform="translate(0,491.85)" style="font-family: 'Open Sans', verdana, arial, sans-serif; font-size: 12px; fill: rgb(42, 63, 95); fill-opacity: 1; white-space: pre; opacity: 1;">70</text></g><g class="ytick"><text text-anchor="end" x="142" y="4.199999999999999" style="font-family: 'Open Sans', verdana, arial, sans-serif; font-size: 12px; fill: rgb(42, 63, 95); fill-opacity: 1; white-space: pre; opacity: 1;" transform="translate(0,449.55)">72</text></g><g class="ytick"><text text-anchor="end" x="142" y="4.199999999999999" style="font-family: 'Open Sans', verdana, arial, sans-serif; font-size: 12px; fill: rgb(42, 63, 95); fill-opacity: 1; white-space: pre; opacity: 1;" transform="translate(0,407.25)">74</text></g><g class="ytick"><text text-anchor="end" x="142" y="4.199999999999999" style="font-family: 'Open Sans', verdana, arial, sans-serif; font-size: 12px; fill: rgb(42, 63, 95); fill-opacity: 1; white-space: pre; opacity: 1;" transform="translate(0,364.94)">76</text></g><g class="ytick"><text text-anchor="end" x="142" y="4.199999999999999" style="font-family: 'Open Sans', verdana, arial, sans-serif; font-size: 12px; fill: rgb(42, 63, 95); fill-opacity: 1; white-space: pre; opacity: 1;" transform="translate(0,322.64)">78</text></g><g class="ytick"><text text-anchor="end" x="142" y="4.199999999999999" style="font-family: 'Open Sans', verdana, arial, sans-serif; font-size: 12px; fill: rgb(42, 63, 95); fill-opacity: 1; white-space: pre; opacity: 1;" transform="translate(0,280.34000000000003)">80</text></g><g class="ytick"><text text-anchor="end" x="142" y="4.199999999999999" style="font-family: 'Open Sans', verdana, arial, sans-serif; font-size: 12px; fill: rgb(42, 63, 95); fill-opacity: 1; white-space: pre; opacity: 1;" transform="translate(0,238.04)">82</text></g><g class="ytick"><text text-anchor="end" x="142" y="4.199999999999999" style="font-family: 'Open Sans', verdana, arial, sans-serif; font-size: 12px; fill: rgb(42, 63, 95); fill-opacity: 1; white-space: pre; opacity: 1;" transform="translate(0,195.73000000000002)">84</text></g><g class="ytick"><text text-anchor="end" x="142" y="4.199999999999999" style="font-family: 'Open Sans', verdana, arial, sans-serif; font-size: 12px; fill: rgb(42, 63, 95); fill-opacity: 1; white-space: pre; opacity: 1;" transform="translate(0,153.43)">86</text></g><g class="ytick"><text text-anchor="end" x="142" y="4.199999999999999" style="font-family: 'Open Sans', verdana, arial, sans-serif; font-size: 12px; fill: rgb(42, 63, 95); fill-opacity: 1; white-space: pre; opacity: 1;" transform="translate(0,111.13)">88</text></g></g><g class="overaxes-above"/></g></g><g class="polarlayer"/><g class="smithlayer"/><g class="ternarylayer"/><g class="geolayer"/><g class="funnelarealayer"/><g class="pielayer"/><g class="iciclelayer"/><g class="treemaplayer"/><g class="sunburstlayer"/><g class="glimages"/><defs id="topdefs-f2a85f"><g class="clips"/><clipPath id="legendf2a85f"><rect width="128" height="162" x="0" y="0"/></clipPath></defs><g class="layer-above"><g class="imagelayer"/><g class="shapelayer"/></g><g class="infolayer"><g class="legend" pointer-events="all" transform="translate(883.52,100)"><rect class="bg" shape-rendering="crispEdges" width="128" height="162" x="0" y="0" style="stroke: rgb(68, 68, 68); stroke-opacity: 1; fill: rgb(255, 255, 255); fill-opacity: 1; stroke-width: 0px;"/><g class="scrollbox" transform="" clip-path="url(#legendf2a85f)"><g class="groups"><g class="traces" transform="translate(0,14.5)" style="opacity: 1;"><text class="legendtext" text-anchor="start" x="40" y="4.680000000000001" style="font-family: 'Open Sans', verdana, arial, sans-serif; font-size: 12px; fill: rgb(42, 63, 95); fill-opacity: 1; white-space: pre;">Train Accuracy</text><g class="layers" style="opacity: 1;"><g class="legendfill"/><g class="legendlines"><path class="js-line" d="M5,0h30" style="fill: none; stroke: rgb(255, 0, 0); stroke-opacity: 1; stroke-width: 2px;"/></g><g class="legendsymbols"><g class="legendpoints"/></g></g><rect class="legendtoggle" x="0" y="-9.5" width="122.71875" height="19" style="fill: rgb(0, 0, 0); fill-opacity: 0;"/></g><g class="traces" transform="translate(0,33.5)" style="opacity: 1;"><text class="legendtext" text-anchor="start" x="40" y="4.680000000000001" style="font-family: 'Open Sans', verdana, arial, sans-serif; font-size: 12px; fill: rgb(42, 63, 95); fill-opacity: 1; white-space: pre;">Test Accuracy</text><g class="layers" style="opacity: 1;"><g class="legendfill"/><g class="legendlines"><path class="js-line" d="M5,0h30" style="fill: none; stroke: rgb(0, 0, 255); stroke-opacity: 1; stroke-width: 2px;"/></g><g class="legendsymbols"><g class="legendpoints"/></g></g><rect class="legendtoggle" x="0" y="-9.5" width="122.71875" height="19" style="fill: rgb(0, 0, 0); fill-opacity: 0;"/></g><g class="traces" transform="translate(0,52.5)" style="opacity: 1;"><text class="legendtext" text-anchor="start" x="40" y="4.680000000000001" style="font-family: 'Open Sans', verdana, arial, sans-serif; font-size: 12px; fill: rgb(42, 63, 95); fill-opacity: 1; white-space: pre;">Train Precision</text><g class="layers" style="opacity: 1;"><g class="legendfill"/><g class="legendlines"><path class="js-line" d="M5,0h30" style="fill: none; stroke: rgb(0, 128, 0); stroke-opacity: 1; stroke-width: 2px;"/></g><g class="legendsymbols"><g class="legendpoints"/></g></g><rect class="legendtoggle" x="0" y="-9.5" width="122.71875" height="19" style="fill: rgb(0, 0, 0); fill-opacity: 0;"/></g><g class="traces" transform="translate(0,71.5)" style="opacity: 1;"><text class="legendtext" text-anchor="start" x="40" y="4.680000000000001" style="font-family: 'Open Sans', verdana, arial, sans-serif; font-size: 12px; fill: rgb(42, 63, 95); fill-opacity: 1; white-space: pre;">Test Precision</text><g class="layers" style="opacity: 1;"><g class="legendfill"/><g class="legendlines"><path class="js-line" d="M5,0h30" style="fill: none; stroke: rgb(255, 165, 0); stroke-opacity: 1; stroke-width: 2px;"/></g><g class="legendsymbols"><g class="legendpoints"/></g></g><rect class="legendtoggle" x="0" y="-9.5" width="122.71875" height="19" style="fill: rgb(0, 0, 0); fill-opacity: 0;"/></g><g class="traces" transform="translate(0,90.5)" style="opacity: 1;"><text class="legendtext" text-anchor="start" x="40" y="4.680000000000001" style="font-family: 'Open Sans', verdana, arial, sans-serif; font-size: 12px; fill: rgb(42, 63, 95); fill-opacity: 1; white-space: pre;">Train Recall</text><g class="layers" style="opacity: 1;"><g class="legendfill"/><g class="legendlines"><path class="js-line" d="M5,0h30" style="fill: none; stroke: rgb(128, 0, 128); stroke-opacity: 1; stroke-width: 2px;"/></g><g class="legendsymbols"><g class="legendpoints"/></g></g><rect class="legendtoggle" x="0" y="-9.5" width="122.71875" height="19" style="fill: rgb(0, 0, 0); fill-opacity: 0;"/></g><g class="traces" transform="translate(0,109.5)" style="opacity: 1;"><text class="legendtext" text-anchor="start" x="40" y="4.680000000000001" style="font-family: 'Open Sans', verdana, arial, sans-serif; font-size: 12px; fill: rgb(42, 63, 95); fill-opacity: 1; white-space: pre;">Test Recall</text><g class="layers" style="opacity: 1;"><g class="legendfill"/><g class="legendlines"><path class="js-line" d="M5,0h30" style="fill: none; stroke: rgb(255, 192, 203); stroke-opacity: 1; stroke-width: 2px;"/></g><g class="legendsymbols"><g class="legendpoints"/></g></g><rect class="legendtoggle" x="0" y="-9.5" width="122.71875" height="19" style="fill: rgb(0, 0, 0); fill-opacity: 0;"/></g><g class="traces" transform="translate(0,128.5)" style="opacity: 1;"><text class="legendtext" text-anchor="start" x="40" y="4.680000000000001" style="font-family: 'Open Sans', verdana, arial, sans-serif; font-size: 12px; fill: rgb(42, 63, 95); fill-opacity: 1; white-space: pre;">Train F1</text><g class="layers" style="opacity: 1;"><g class="legendfill"/><g class="legendlines"><path class="js-line" d="M5,0h30" style="fill: none; stroke: rgb(165, 42, 42); stroke-opacity: 1; stroke-width: 2px;"/></g><g class="legendsymbols"><g class="legendpoints"/></g></g><rect class="legendtoggle" x="0" y="-9.5" width="122.71875" height="19" style="fill: rgb(0, 0, 0); fill-opacity: 0;"/></g><g class="traces" transform="translate(0,147.5)" style="opacity: 1;"><text class="legendtext" text-anchor="start" x="40" y="4.680000000000001" style="font-family: 'Open Sans', verdana, arial, sans-serif; font-size: 12px; fill: rgb(42, 63, 95); fill-opacity: 1; white-space: pre;">Test F1</text><g class="layers" style="opacity: 1;"><g class="legendfill"/><g class="legendlines"><path class="js-line" d="M5,0h30" style="fill: none; stroke: rgb(128, 128, 128); stroke-opacity: 1; stroke-width: 2px;"/></g><g class="legendsymbols"><g class="legendpoints"/></g></g><rect class="legendtoggle" x="0" y="-9.5" width="122.71875" height="19" style="fill: rgb(0, 0, 0); fill-opacity: 0;"/></g></g></g><rect class="scrollbar" rx="20" ry="3" width="0" height="0" x="0" y="0" style="fill: rgb(128, 139, 164); fill-opacity: 1;"/></g><g class="g-gtitle"><text class="gtitle" x="51.2" y="50" text-anchor="start" dy="0em" style="font-family: 'Open Sans', verdana, arial, sans-serif; font-size: 17px; fill: rgb(42, 63, 95); opacity: 1; font-weight: normal; white-space: pre;">Training Metrics - logs/FakeNewsNet-politifact_max-vocab=15000_pre=v2_domain_T=50_s=15.log</text></g><g class="g-xtitle"><text class="xtitle" x="506" y="537.3" text-anchor="middle" style="font-family: 'Open Sans', verdana, arial, sans-serif; font-size: 14px; fill: rgb(42, 63, 95); opacity: 1; font-weight: normal; white-space: pre;">Epoch</text></g><g class="g-ytitle"><text class="ytitle" transform="rotate(-90,103.965625,298)" x="103.965625" y="298" text-anchor="middle" style="font-family: 'Open Sans', verdana, arial, sans-serif; font-size: 14px; fill: rgb(42, 63, 95); opacity: 1; font-weight: normal; white-space: pre;">Metric Score</text></g></g><g class="menulayer"><g class="updatemenu-container" style="cursor: pointer;"><g class="updatemenu-header-group" transform="translate(12,60)"><g class="updatemenu-header" transform="translate(1,1)" style="pointer-events: all;"><rect class="updatemenu-item-rect" rx="2" ry="2" shape-rendering="crispEdges" x="0" y="0" width="167" height="33" style="stroke: rgb(190, 200, 217); stroke-opacity: 1; fill: rgb(255, 255, 255); fill-opacity: 1; stroke-width: 1px;"/><text class="updatemenu-item-text" text-anchor="start" data-notex="1" x="12" y="19.5" style="font-family: 'Open Sans', verdana, arial, sans-serif; font-size: 12px; fill: rgb(42, 63, 95); fill-opacity: 1; white-space: pre;">All</text></g><text class="updatemenu-header-arrow" text-anchor="end" x="163" y="19.5" style="font-family: 'Open Sans', verdana, arial, sans-serif; font-size: 12px; fill: rgb(42, 63, 95); fill-opacity: 1;">▼</text></g><g class="updatemenu-dropdown-button-group" updatemenu-active-index="-1" style="pointer-events: all;"><rect class="scrollbox-bg" opacity="0" x="0" y="0" width="0" height="0" style="pointer-events: all;"/></g></g></g></svg>