<svg class="main-svg" xmlns="http://www.w3.org/2000/svg" xmlns:xlink="http://www.w3.org/1999/xlink" width="1024" height="576" style="" viewBox="0 0 1024 576"><rect x="0" y="0" width="1024" height="576" style="fill: rgb(255, 255, 255); fill-opacity: 1;"/><defs id="defs-f8ba37"><g class="clips"><clipPath id="clipf8ba37xyplot" class="plotclip"><rect width="720" height="396"/></clipPath><clipPath class="axesclip" id="clipf8ba37x"><rect x="150" y="0" width="720" height="576"/></clipPath><clipPath class="axesclip" id="clipf8ba37y"><rect x="0" y="100" width="1024" height="396"/></clipPath><clipPath class="axesclip" id="clipf8ba37xy"><rect x="150" y="100" width="720" height="396"/></clipPath></g><g class="gradients"/><g class="patterns"/></defs><g class="bglayer"><rect class="bg" x="150" y="100" width="720" height="396" style="fill: rgb(229, 236, 246); fill-opacity: 1; stroke-width: 0;"/></g><g class="layer-below"><g class="imagelayer"/><g class="shapelayer"/></g><g class="cartesianlayer"><g class="subplot xy"><g class="layer-subplot"><g class="shapelayer"/><g class="imagelayer"/></g><g class="minor-gridlayer"><g class="x"/><g class="y"/></g><g class="gridlayer"><g class="x"><path class="xgrid crisp" transform="translate(241.81,0)" d="M0,100v396" style="stroke: rgb(255, 255, 255); stroke-opacity: 1; stroke-width: 1px;"/><path class="xgrid crisp" transform="translate(338.46000000000004,0)" d="M0,100v396" style="stroke: rgb(255, 255, 255); stroke-opacity: 1; stroke-width: 1px;"/><path class="xgrid crisp" transform="translate(435.1,0)" d="M0,100v396" style="stroke: rgb(255, 255, 255); stroke-opacity: 1; stroke-width: 1px;"/><path class="xgrid crisp" transform="translate(531.74,0)" d="M0,100v396" style="stroke: rgb(255, 255, 255); stroke-opacity: 1; stroke-width: 1px;"/><path class="xgrid crisp" transform="translate(628.39,0)" d="M0,100v396" style="stroke: rgb(255, 255, 255); stroke-opacity: 1; stroke-width: 1px;"/><path class="xgrid crisp" transform="translate(725.03,0)" d="M0,100v396" style="stroke: rgb(255, 255, 255); stroke-opacity: 1; stroke-width: 1px;"/><path class="xgrid crisp" transform="translate(821.68,0)" d="M0,100v396" style="stroke: rgb(255, 255, 255); stroke-opacity: 1; stroke-width: 1px;"/></g><g class="y"><path class="ygrid crisp" transform="translate(0,470.28)" d="M150,0h720" style="stroke: rgb(255, 255, 255); stroke-opacity: 1; stroke-width: 1px;"/><path class="ygrid crisp" transform="translate(0,409.29)" d="M150,0h720" style="stroke: rgb(255, 255, 255); stroke-opacity: 1; stroke-width: 1px;"/><path class="ygrid crisp" transform="translate(0,348.28999999999996)" d="M150,0h720" style="stroke: rgb(255, 255, 255); stroke-opacity: 1; stroke-width: 1px;"/><path class="ygrid crisp" transform="translate(0,287.3)" d="M150,0h720" style="stroke: rgb(255, 255, 255); stroke-opacity: 1; stroke-width: 1px;"/><path class="ygrid crisp" transform="translate(0,226.3)" d="M150,0h720" style="stroke: rgb(255, 255, 255); stroke-opacity: 1; stroke-width: 1px;"/><path class="ygrid crisp" transform="translate(0,165.3)" d="M150,0h720" style="stroke: rgb(255, 255, 255); stroke-opacity: 1; stroke-width: 1px;"/><path class="ygrid crisp" transform="translate(0,104.31)" d="M150,0h720" style="stroke: rgb(255, 255, 255); stroke-opacity: 1; stroke-width: 1px;"/></g></g><g class="zerolinelayer"/><path class="xlines-below"/><path class="ylines-below"/><g class="overlines-below"/><g class="xaxislayer-below"/><g class="yaxislayer-below"/><g class="overaxes-below"/><g class="plot" transform="translate(150,100)" clip-path="url(#clipf8ba37xyplot)"><g class="scatterlayer mlayer"><g class="trace scatter traceb6d760" style="stroke-miterlimit: 2; opacity: 1;"><g class="fills"/><g class="errorbars"/><g class="lines"><path class="js-line" d="M0,199.13L9.66,199.13L14.5,191.2L19.33,165.89L24.16,177.47L28.99,92.93L33.83,82.08L38.66,92.93L43.49,85.68L48.32,97.27L53.15,110.99L57.99,73.42L62.82,164.48L67.65,164.48L72.48,61.09L77.32,50.97L82.15,77.01L86.98,53.9L91.81,77.75L96.64,75.55L101.48,47.37L106.31,49.57L111.14,71.95L115.97,72.68L120.81,70.49L125.64,66.89L130.47,66.89L135.3,64.02L140.13,62.56L144.97,64.02L149.8,62.56L154.63,68.35L159.46,67.62L169.13,58.96L173.96,58.23L178.79,59.69L183.62,60.36L188.46,65.43L193.29,61.83L198.12,59.69L202.95,37.24L207.79,35.84L212.62,56.76L217.45,57.5L222.28,54.63L227.11,55.3L231.95,52.43L236.78,49.57L241.61,56.76L251.28,58.23L256.11,56.76L260.94,50.3L265.77,54.63L270.6,59.69L275.44,53.9L285.1,52.43L289.93,49.57L294.77,53.9L299.6,51.7L304.43,48.1L309.26,48.1L314.09,48.83L318.93,48.1L323.76,48.1L328.59,50.3L333.42,45.24L338.26,47.37L343.09,44.5L347.92,44.5L352.75,45.91L357.58,50.97L362.42,48.1L367.25,52.43L372.08,47.37L376.91,48.83L381.74,48.83L386.58,50.3L391.41,51.7L396.24,49.57L405.91,50.3L410.74,53.16L415.57,53.16L420.4,50.3L430.07,47.37L434.9,48.1L439.73,48.83L444.56,50.97L454.23,48.83L459.06,48.83L463.89,50.97L468.72,45.91L473.56,46.64L478.39,45.91L483.22,48.83L488.05,48.1L497.72,47.37L502.55,48.83L507.38,48.1L512.21,48.83L521.88,50.3L526.71,48.83L531.54,50.3L536.38,48.1L541.21,45.24L546.04,45.24L550.87,46.64L555.7,45.91L565.37,46.64L570.2,45.91L575.03,44.5L579.87,45.24L584.7,42.31L589.53,43.77L594.36,45.91L599.19,45.91L604.03,45.91L608.86,47.37L618.52,48.83L623.36,43.77L637.85,43.04L642.68,42.31L647.52,44.5L652.35,43.77L657.18,41.58L662.01,41.58L666.85,45.24L671.68,43.77L676.51,43.04L681.34,43.77L686.17,40.17L691.01,42.31L715.17,42.31L720,43.77" style="vector-effect: none; fill: none; stroke: rgb(255, 0, 0); stroke-opacity: 1; stroke-width: 2px; opacity: 1;"/></g><g class="points"/><g class="text"/></g><g class="trace scatter tracec1dc38" style="stroke-miterlimit: 2; opacity: 1;"><g class="fills"/><g class="errorbars"/><g class="lines"><path class="js-line" d="M0,167.72L9.66,167.72L14.5,156.25L19.33,138.99L24.16,136.06L28.99,121.72L33.83,101.53L38.66,121.72L43.49,110.2L48.32,115.93L53.15,118.8L57.99,115.93L62.82,124.59L67.65,133.19L72.48,101.53L77.32,101.53L82.15,92.93L86.98,98.67L91.81,98.67L106.31,107.33L111.14,95.8L115.97,107.33L120.81,92.93L125.64,95.8L130.47,95.8L135.3,95.8L140.13,98.67L144.97,95.8L149.8,90.07L154.63,92.93L159.46,90.07L164.3,87.14L169.13,87.14L173.96,84.27L178.79,90.07L183.62,90.07L188.46,98.67L193.29,92.93L198.12,95.8L207.79,95.8L212.62,92.93L217.45,95.8L222.28,95.8L227.11,101.53L231.95,90.07L236.78,87.14L241.61,87.14L246.44,95.8L251.28,87.14L256.11,84.27L260.94,87.14L270.6,87.14L275.44,90.07L280.27,90.07L285.1,84.27L289.93,87.14L294.77,95.8L299.6,87.14L304.43,92.93L309.26,95.8L314.09,92.93L318.93,84.27L323.76,87.14L328.59,90.07L333.42,84.27L343.09,90.07L347.92,87.14L362.42,87.14L367.25,92.93L372.08,92.93L376.91,90.07L381.74,84.27L386.58,87.14L391.41,87.14L396.24,84.27L405.91,84.27L410.74,87.14L415.57,84.27L420.4,87.14L430.07,87.14L434.9,84.27L439.73,84.27L444.56,87.14L449.4,87.14L454.23,84.27L459.06,87.14L463.89,87.14L468.72,84.27L473.56,84.27L478.39,84.27L483.22,87.14L488.05,92.93L492.89,92.93L502.55,92.93L507.38,87.14L565.37,87.14L570.2,90.07L575.03,92.93L579.87,87.14L584.7,84.27L589.53,87.14L604.03,87.14L608.86,84.27L613.69,92.93L618.52,90.07L623.36,84.27L628.19,84.27L715.17,84.27L720,87.14" style="vector-effect: none; fill: none; stroke: rgb(0, 0, 255); stroke-opacity: 1; stroke-width: 2px; opacity: 1;"/></g><g class="points"/><g class="text"/></g><g class="trace scatter traceecbe71" style="stroke-miterlimit: 2; opacity: 1;"><g class="fills"/><g class="errorbars"/><g class="lines"><path class="js-line" d="M0,376.2L9.66,376.2L14.5,68.9L19.33,83.24L24.16,74.15L28.99,94.28L33.83,85.74L38.66,95.13L43.49,89.46L48.32,99.77L53.15,61.22L57.99,50.18L62.82,77.2L67.65,77.2L72.48,41.7L77.32,36.76L82.15,79.09L86.98,39.5L91.81,42.55L96.64,40.05L101.48,31.39L106.31,37.61L111.14,74.27L115.97,75.49L120.81,72.62L125.64,69.02L130.47,69.15L135.3,65.67L140.13,64.14L144.97,65.97L149.8,63.53L154.63,70.06L159.46,68.6L169.13,60.61L173.96,59.87L183.62,62.68L188.46,67.32L193.29,63.9L198.12,61.58L202.95,21.51L207.79,19.8L212.62,59.02L217.45,59.39L222.28,56.34L227.11,57.19L236.78,51.58L241.61,59.02L251.28,60.24L256.11,58.41L260.94,51.82L265.77,56.52L270.6,61.7L275.44,55.36L285.1,54.45L289.93,50.79L294.77,56.09L299.6,53.16L304.43,48.83L309.26,49.26L314.09,49.93L318.93,48.83L323.76,49.44L328.59,52.13L333.42,46.76L338.26,47.74L347.92,46.09L352.75,48.04L357.58,53.23L362.42,49.81L367.25,54.02L372.08,49.14L376.91,50.12L381.74,50.3L391.41,53.16L396.24,51.46L401.07,50.36L405.91,51.03L410.74,54.99L415.57,52.92L430.07,47.31L434.9,48.83L439.73,49.75L444.56,51.7L449.4,50.18L454.23,49.75L459.06,49.75L463.89,52.49L468.72,46.88L473.56,47.55L478.39,46.46L483.22,50.12L497.72,49.14L502.55,50.48L507.38,49.63L512.21,50.79L521.88,52.43L526.71,50.6L531.54,52.01L536.38,49.81L541.21,47.07L546.04,47.07L550.87,48.71L555.7,47.92L560.54,48.9L565.37,48.29L575.03,46.39L579.87,47.37L584.7,43.59L589.53,45.72L594.36,47.92L599.19,48.04L604.03,47.92L608.86,49.44L618.52,50.6L623.36,44.93L633.02,44.93L637.85,43.65L642.68,42.73L647.52,45.17L652.35,44.5L657.18,42.73L662.01,42.73L666.85,46.39L671.68,44.5L676.51,44.08L681.34,44.5L686.17,40.6L691.01,42.73L695.84,42.73L705.5,42.73L710.34,42.12L715.17,42.73L720,44.5" style="vector-effect: none; fill: none; stroke: rgb(0, 128, 0); stroke-opacity: 1; stroke-width: 2px; opacity: 1;"/></g><g class="points"/><g class="text"/></g><g class="trace scatter trace9319fa" style="stroke-miterlimit: 2; opacity: 1;"><g class="fills"/><g class="errorbars"/><g class="lines"><path class="js-line" d="M0,360.52L9.66,360.52L14.5,51.82L19.33,45.97L24.16,44.99L28.99,114.83L33.83,102.33L38.66,114.83L43.49,111.66L48.32,120.08L53.15,54.2L57.99,82.08L62.82,40.84L67.65,43.95L72.48,53.29L77.32,53.29L82.15,98.12L86.98,51.27L91.81,30.9L96.64,43.59L101.48,63.84L106.31,73.72L111.14,100.5L115.97,108.06L120.81,97.02L125.64,100.5L130.47,99.28L135.3,99.28L140.13,102.75L149.8,95.8L154.63,98.12L159.46,96.78L164.3,93.36L169.13,92.39L173.96,88.91L178.79,94.7L183.62,93.48L188.46,100.13L193.29,95.74L198.12,97.94L202.95,40.36L207.79,40.36L212.62,95.74L217.45,97.94L222.28,97.94L227.11,103.73L231.95,93.48L236.78,91.23L241.61,91.23L246.44,99.28L251.28,92.39L256.11,88.91L260.94,92.39L270.6,92.39L275.44,95.8L280.27,95.8L285.1,88.91L289.93,92.39L294.77,99.28L299.6,92.39L304.43,97.02L309.26,99.28L314.09,95.74L318.93,88.91L323.76,91.23L328.59,93.48L333.42,88.91L338.26,92.39L343.09,93.48L347.92,91.23L352.75,91.23L362.42,91.23L367.25,97.02L372.08,97.02L376.91,94.7L381.74,88.91L386.58,92.39L391.41,92.39L396.24,88.91L405.91,88.91L410.74,91.23L415.57,90.01L420.4,92.39L430.07,92.39L434.9,88.91L439.73,88.91L444.56,91.23L449.4,91.23L454.23,88.91L459.06,92.39L463.89,92.39L468.72,88.91L473.56,88.91L478.39,88.91L483.22,91.23L488.05,95.74L492.89,95.74L502.55,95.74L507.38,91.23L565.37,91.23L570.2,93.48L575.03,95.74L579.87,91.23L584.7,88.91L589.53,91.23L604.03,91.23L608.86,88.91L613.69,95.74L618.52,93.48L623.36,88.91L628.19,88.91L715.17,88.91L720,91.23" style="vector-effect: none; fill: none; stroke: rgb(255, 165, 0); stroke-opacity: 1; stroke-width: 2px; opacity: 1;"/></g><g class="points"/><g class="text"/></g><g class="trace scatter trace870001" style="stroke-miterlimit: 2; opacity: 1;"><g class="fills"/><g class="errorbars"/><g class="lines"><path class="js-line" d="M0,248.29L9.66,248.29L14.5,238.84L19.33,207.73L24.16,222.18L28.99,90.31L33.83,84.58L38.66,91.53L43.49,89.58L48.32,106.72L53.15,140.82L57.99,93.36L62.82,206.2L67.65,206.2L72.48,78.72L77.32,65.91L82.15,84.52L86.98,69.15L91.81,100.92L96.64,98.61L101.48,62.56L106.31,63.47L111.14,78.48L115.97,78.42L120.81,77.26L125.64,73.17L130.47,72.93L140.13,69.21L144.97,70.18L149.8,69.94L154.63,75.37L159.46,75.49L164.3,70.79L169.13,65.12L173.96,64.27L178.79,65.73L183.62,65.67L188.46,71.95L193.29,67.62L198.12,65.55L202.95,51.46L207.79,49.99L212.62,61.83L217.45,63.17L222.28,60.18L227.11,60.85L231.95,56.89L236.78,54.2L241.61,61.83L246.44,62.19L251.28,63.78L256.11,62.8L260.94,55.73L265.77,59.94L270.6,65.3L275.44,59.81L280.27,58.72L289.93,55.36L294.77,58.65L299.6,57.5L304.43,54.38L309.26,53.9L314.09,54.75L323.76,53.65L328.59,55.3L333.42,50.18L338.26,53.96L343.09,48.65L347.92,49.32L352.75,50.12L357.58,55.42L362.42,53.16L367.25,58.11L372.08,52.31L376.91,54.51L381.74,54.26L386.58,55.97L391.41,57.5L396.24,54.38L410.74,58.47L415.57,60.85L420.4,56.95L425.23,55.48L430.07,54.45L434.9,54.38L439.73,54.99L444.56,57.56L454.23,54.99L459.06,54.99L463.89,56.64L468.72,51.76L473.56,52.62L478.39,52.25L483.22,54.51L488.05,52.92L497.72,52.31L502.55,54.02L512.21,53.53L517.05,53.96L521.88,54.81L526.71,53.77L531.54,55.54L536.38,53.16L541.21,49.75L546.04,49.75L550.87,50.97L555.7,50.36L565.37,51.7L570.2,50.85L575.03,48.83L579.87,49.26L584.7,47.49L589.53,47.98L594.36,50.36L599.19,50.12L604.03,50.36L608.86,51.82L613.69,52.19L618.52,53.77L623.36,49.2L628.19,48.71L637.85,49.08L642.68,48.41L647.52,50.54L652.35,49.69L657.18,46.82L662.01,46.82L666.85,50.66L671.68,49.69L676.51,48.59L681.34,49.69L686.17,46.09L691.01,48.41L705.5,48.41L710.34,47.55L720,49.69" style="vector-effect: none; fill: none; stroke: rgb(128, 0, 128); stroke-opacity: 1; stroke-width: 2px; opacity: 1;"/></g><g class="points"/><g class="text"/></g><g class="trace scatter trace729ee2" style="stroke-miterlimit: 2; opacity: 1;"><g class="fills"/><g class="errorbars"/><g class="lines"><path class="js-line" d="M0,248.29L9.66,248.29L14.5,232.68L19.33,209.19L24.16,205.29L28.99,105.68L33.83,91.35L38.66,105.68L43.49,101.47L48.32,110.93L53.15,180.16L57.99,171.38L62.82,189.61L67.65,201.39L72.48,155.09L77.32,155.09L82.15,87.81L86.98,151.19L91.81,154.48L96.64,156.74L101.48,157.35L106.31,159.66L111.14,90.07L115.97,97.57L120.81,86.16L125.64,90.07L130.47,88.42L135.3,88.42L140.13,92.39L144.97,88.42L149.8,85.55L154.63,87.81L159.46,87.14L164.3,83.24L169.13,81.65L173.96,77.69L178.79,83.91L183.62,82.26L188.46,89.09L193.29,84.52L198.12,86.83L202.95,148.93L207.79,148.93L212.62,84.52L217.45,86.83L222.28,86.83L227.11,93L231.95,82.26L236.78,80L241.61,80L246.44,88.42L251.28,81.65L256.11,77.69L260.94,81.65L265.77,81.65L270.6,81.65L275.44,85.55L280.27,85.55L285.1,77.69L289.93,81.65L294.77,88.42L299.6,81.65L304.43,86.16L309.26,88.42L314.09,84.52L318.93,77.69L323.76,80L328.59,82.26L333.42,77.69L338.26,81.65L343.09,82.26L347.92,80L352.75,80L362.42,80L367.25,86.16L372.08,86.16L376.91,83.91L381.74,77.69L386.58,81.65L391.41,81.65L396.24,77.69L405.91,77.69L410.74,80L415.57,79.33L420.4,81.65L430.07,81.65L434.9,77.69L439.73,77.69L444.56,80L449.4,80L454.23,77.69L459.06,81.65L463.89,81.65L468.72,77.69L473.56,77.69L478.39,77.69L483.22,80L488.05,84.52L492.89,84.52L502.55,84.52L507.38,80L565.37,80L570.2,82.26L575.03,84.52L579.87,80L584.7,77.69L589.53,80L604.03,80L608.86,77.69L613.69,84.52L618.52,82.26L623.36,77.69L628.19,77.69L715.17,77.69L720,80" style="vector-effect: none; fill: none; stroke: rgb(255, 192, 203); stroke-opacity: 1; stroke-width: 2px; opacity: 1;"/></g><g class="points"/><g class="text"/></g><g class="trace scatter trace32b7e6" style="stroke-miterlimit: 2; opacity: 1;"><g class="fills"/><g class="errorbars"/><g class="lines"><path class="js-line" d="M0,329.23L9.66,329.23L14.5,308.98L19.33,246.95L24.16,275.19L28.99,94.28L33.83,85.25L38.66,94.64L43.49,89.52L48.32,104.65L53.15,145.33L57.99,88.73L62.82,244.94L67.65,244.94L72.48,73.17L77.32,60.24L82.15,82.56L86.98,63.53L91.81,97.14L96.64,94.52L101.48,56.52L106.31,57.98L111.14,76.89L115.97,77.2L120.81,75.49L125.64,71.59L130.47,71.46L135.3,68.78L140.13,67.32L144.97,68.54L149.8,67.68L154.63,73.42L159.46,73.11L169.13,63.35L173.96,62.56L178.79,64.08L183.62,64.45L188.46,70.18L193.29,66.16L198.12,63.96L202.95,45.11L207.79,43.53L212.62,60.61L217.45,61.64L222.28,58.65L227.11,59.33L231.95,55.97L236.78,53.04L241.61,60.61L251.28,62.31L256.11,61.03L260.94,54.14L265.77,58.53L270.6,63.84L275.44,58.04L285.1,56.15L289.93,53.53L294.77,57.56L299.6,55.79L304.43,52.25L309.26,52.07L314.09,52.86L318.93,52.25L323.76,51.94L328.59,53.96L333.42,48.77L338.26,51.7L343.09,47.68L347.92,47.98L352.75,49.2L357.58,54.45L362.42,51.76L367.25,56.46L372.08,50.97L376.91,52.74L381.74,52.68L386.58,54.26L391.41,55.79L396.24,53.16L405.91,54.57L410.74,57.07L415.57,58.17L420.4,54.69L430.07,51.88L434.9,52.25L439.73,52.98L444.56,55.36L454.23,52.98L459.06,52.98L463.89,54.93L468.72,49.87L473.56,50.66L478.39,50.05L483.22,52.74L488.05,51.64L497.72,50.97L502.55,52.55L507.38,51.88L512.21,52.37L521.88,53.77L526.71,52.43L531.54,54.08L536.38,51.76L541.21,48.59L546.04,48.59L550.87,49.99L555.7,49.26L565.37,50.24L570.2,49.44L575.03,47.8L579.87,48.41L584.7,45.85L589.53,47L594.36,49.26L599.19,49.2L604.03,49.26L608.86,50.79L618.52,52.43L623.36,47.49L642.68,46.27L647.52,48.47L652.35,47.68L657.18,45.17L662.01,45.17L666.85,48.96L676.51,46.76L681.34,47.68L686.17,43.95L691.01,46.27L705.5,46.27L710.34,45.48L720,47.68" style="vector-effect: none; fill: none; stroke: rgb(165, 42, 42); stroke-opacity: 1; stroke-width: 2px; opacity: 1;"/></g><g class="points"/><g class="text"/></g><g class="trace scatter trace8949c4" style="stroke-miterlimit: 2; opacity: 1;"><g class="fills"/><g class="errorbars"/><g class="lines"><path class="js-line" d="M0,317.03L9.66,317.03L14.5,284.52L19.33,240.73L24.16,233.9L28.99,123.31L33.83,104.58L38.66,123.31L43.49,113.61L48.32,120.5L53.15,191.99L57.99,176.44L62.82,207.97L67.65,227.25L72.48,155.64L77.32,155.64L82.15,97.39L86.98,150.45L91.81,155.94L96.64,158.44L101.48,158.14L106.31,160.64L111.14,100.07L115.97,110.44L120.81,96.9L125.64,100.07L130.47,99.58L135.3,99.58L140.13,102.75L144.97,99.58L149.8,94.64L154.63,97.39L159.46,95.19L164.3,91.96L169.13,91.47L173.96,88.24L178.79,94.15L183.62,93.67L188.46,101.84L193.29,96.41L198.12,99.16L202.95,147.95L207.79,147.95L212.62,96.41L217.45,99.16L222.28,99.16L227.11,105.01L231.95,93.67L236.78,90.98L241.61,90.98L246.44,99.58L251.28,91.47L256.11,88.24L260.94,91.47L265.77,91.47L270.6,91.47L275.44,94.64L280.27,94.64L285.1,88.24L289.93,91.47L294.77,99.58L299.6,91.47L304.43,96.9L309.26,99.58L314.09,96.41L318.93,88.24L323.76,90.98L328.59,93.67L333.42,88.24L338.26,91.47L343.09,93.67L347.92,90.98L352.75,90.98L362.42,90.98L367.25,96.9L372.08,96.9L376.91,94.15L381.74,88.24L386.58,91.47L391.41,91.47L396.24,88.24L405.91,88.24L410.74,90.98L415.57,88.73L420.4,91.47L430.07,91.47L434.9,88.24L439.73,88.24L444.56,90.98L449.4,90.98L454.23,88.24L459.06,91.47L463.89,91.47L468.72,88.24L473.56,88.24L478.39,88.24L483.22,90.98L488.05,96.41L492.89,96.41L502.55,96.41L507.38,90.98L565.37,90.98L570.2,93.67L575.03,96.41L579.87,90.98L584.7,88.24L589.53,90.98L604.03,90.98L608.86,88.24L613.69,96.41L618.52,93.67L623.36,88.24L628.19,88.24L715.17,88.24L720,90.98" style="vector-effect: none; fill: none; stroke: rgb(128, 128, 128); stroke-opacity: 1; stroke-width: 2px; opacity: 1;"/></g><g class="points"/><g class="text"/></g></g></g><g class="overplot"/><path class="xlines-above crisp" d="M0,0" style="fill: none;"/><path class="ylines-above crisp" d="M0,0" style="fill: none;"/><g class="overlines-above"/><g class="xaxislayer-above"><g class="xtick"><text text-anchor="middle" x="0" y="509" transform="translate(241.81,0)" style="font-family: 'Open Sans', verdana, arial, sans-serif; font-size: 12px; fill: rgb(42, 63, 95); fill-opacity: 1; white-space: pre; opacity: 1;">20</text></g><g class="xtick"><text text-anchor="middle" x="0" y="509" style="font-family: 'Open Sans', verdana, arial, sans-serif; font-size: 12px; fill: rgb(42, 63, 95); fill-opacity: 1; white-space: pre; opacity: 1;" transform="translate(338.46000000000004,0)">40</text></g><g class="xtick"><text text-anchor="middle" x="0" y="509" style="font-family: 'Open Sans', verdana, arial, sans-serif; font-size: 12px; fill: rgb(42, 63, 95); fill-opacity: 1; white-space: pre; opacity: 1;" transform="translate(435.1,0)">60</text></g><g class="xtick"><text text-anchor="middle" x="0" y="509" style="font-family: 'Open Sans', verdana, arial, sans-serif; font-size: 12px; fill: rgb(42, 63, 95); fill-opacity: 1; white-space: pre; opacity: 1;" transform="translate(531.74,0)">80</text></g><g class="xtick"><text text-anchor="middle" x="0" y="509" style="font-family: 'Open Sans', verdana, arial, sans-serif; font-size: 12px; fill: rgb(42, 63, 95); fill-opacity: 1; white-space: pre; opacity: 1;" transform="translate(628.39,0)">100</text></g><g class="xtick"><text text-anchor="middle" x="0" y="509" style="font-family: 'Open Sans', verdana, arial, sans-serif; font-size: 12px; fill: rgb(42, 63, 95); fill-opacity: 1; white-space: pre; opacity: 1;" transform="translate(725.03,0)">120</text></g><g class="xtick"><text text-anchor="middle" x="0" y="509" style="font-family: 'Open Sans', verdana, arial, sans-serif; font-size: 12px; fill: rgb(42, 63, 95); fill-opacity: 1; white-space: pre; opacity: 1;" transform="translate(821.68,0)">140</text></g></g><g class="yaxislayer-above"><g class="ytick"><text text-anchor="end" x="149" y="4.199999999999999" transform="translate(0,470.28)" style="font-family: 'Open Sans', verdana, arial, sans-serif; font-size: 12px; fill: rgb(42, 63, 95); fill-opacity: 1; white-space: pre; opacity: 1;">30</text></g><g class="ytick"><text text-anchor="end" x="149" y="4.199999999999999" style="font-family: 'Open Sans', verdana, arial, sans-serif; font-size: 12px; fill: rgb(42, 63, 95); fill-opacity: 1; white-space: pre; opacity: 1;" transform="translate(0,409.29)">40</text></g><g class="ytick"><text text-anchor="end" x="149" y="4.199999999999999" style="font-family: 'Open Sans', verdana, arial, sans-serif; font-size: 12px; fill: rgb(42, 63, 95); fill-opacity: 1; white-space: pre; opacity: 1;" transform="translate(0,348.28999999999996)">50</text></g><g class="ytick"><text text-anchor="end" x="149" y="4.199999999999999" style="font-family: 'Open Sans', verdana, arial, sans-serif; font-size: 12px; fill: rgb(42, 63, 95); fill-opacity: 1; white-space: pre; opacity: 1;" transform="translate(0,287.3)">60</text></g><g class="ytick"><text text-anchor="end" x="149" y="4.199999999999999" style="font-family: 'Open Sans', verdana, arial, sans-serif; font-size: 12px; fill: rgb(42, 63, 95); fill-opacity: 1; white-space: pre; opacity: 1;" transform="translate(0,226.3)">70</text></g><g class="ytick"><text text-anchor="end" x="149" y="4.199999999999999" style="font-family: 'Open Sans', verdana, arial, sans-serif; font-size: 12px; fill: rgb(42, 63, 95); fill-opacity: 1; white-space: pre; opacity: 1;" transform="translate(0,165.3)">80</text></g><g class="ytick"><text text-anchor="end" x="149" y="4.199999999999999" style="font-family: 'Open Sans', verdana, arial, sans-serif; font-size: 12px; fill: rgb(42, 63, 95); fill-opacity: 1; white-space: pre; opacity: 1;" transform="translate(0,104.31)">90</text></g></g><g class="overaxes-above"/></g></g><g class="polarlayer"/><g class="smithlayer"/><g class="ternarylayer"/><g class="geolayer"/><g class="funnelarealayer"/><g class="pielayer"/><g class="iciclelayer"/><g class="treemaplayer"/><g class="sunburstlayer"/><g class="glimages"/><defs id="topdefs-f8ba37"><g class="clips"/><clipPath id="legendf8ba37"><rect width="128" height="162" x="0" y="0"/></clipPath></defs><g class="layer-above"><g class="imagelayer"/><g class="shapelayer"/></g><g class="infolayer"><g class="legend" pointer-events="all" transform="translate(884.4,100)"><rect class="bg" shape-rendering="crispEdges" width="128" height="162" x="0" y="0" style="stroke: rgb(68, 68, 68); stroke-opacity: 1; fill: rgb(255, 255, 255); fill-opacity: 1; stroke-width: 0px;"/><g class="scrollbox" transform="" clip-path="url(#legendf8ba37)"><g class="groups"><g class="traces" transform="translate(0,14.5)" style="opacity: 1;"><text class="legendtext" text-anchor="start" x="40" y="4.680000000000001" style="font-family: 'Open Sans', verdana, arial, sans-serif; font-size: 12px; fill: rgb(42, 63, 95); fill-opacity: 1; white-space: pre;">Train Accuracy</text><g class="layers" style="opacity: 1;"><g class="legendfill"/><g class="legendlines"><path class="js-line" d="M5,0h30" style="fill: none; stroke: rgb(255, 0, 0); stroke-opacity: 1; stroke-width: 2px;"/></g><g class="legendsymbols"><g class="legendpoints"/></g></g><rect class="legendtoggle" x="0" y="-9.5" width="122.71875" height="19" style="fill: rgb(0, 0, 0); fill-opacity: 0;"/></g><g class="traces" transform="translate(0,33.5)" style="opacity: 1;"><text class="legendtext" text-anchor="start" x="40" y="4.680000000000001" style="font-family: 'Open Sans', verdana, arial, sans-serif; font-size: 12px; fill: rgb(42, 63, 95); fill-opacity: 1; white-space: pre;">Test Accuracy</text><g class="layers" style="opacity: 1;"><g class="legendfill"/><g class="legendlines"><path class="js-line" d="M5,0h30" style="fill: none; stroke: rgb(0, 0, 255); stroke-opacity: 1; stroke-width: 2px;"/></g><g class="legendsymbols"><g class="legendpoints"/></g></g><rect class="legendtoggle" x="0" y="-9.5" width="122.71875" height="19" style="fill: rgb(0, 0, 0); fill-opacity: 0;"/></g><g class="traces" transform="translate(0,52.5)" style="opacity: 1;"><text class="legendtext" text-anchor="start" x="40" y="4.680000000000001" style="font-family: 'Open Sans', verdana, arial, sans-serif; font-size: 12px; fill: rgb(42, 63, 95); fill-opacity: 1; white-space: pre;">Train Precision</text><g class="layers" style="opacity: 1;"><g class="legendfill"/><g class="legendlines"><path class="js-line" d="M5,0h30" style="fill: none; stroke: rgb(0, 128, 0); stroke-opacity: 1; stroke-width: 2px;"/></g><g class="legendsymbols"><g class="legendpoints"/></g></g><rect class="legendtoggle" x="0" y="-9.5" width="122.71875" height="19" style="fill: rgb(0, 0, 0); fill-opacity: 0;"/></g><g class="traces" transform="translate(0,71.5)" style="opacity: 1;"><text class="legendtext" text-anchor="start" x="40" y="4.680000000000001" style="font-family: 'Open Sans', verdana, arial, sans-serif; font-size: 12px; fill: rgb(42, 63, 95); fill-opacity: 1; white-space: pre;">Test Precision</text><g class="layers" style="opacity: 1;"><g class="legendfill"/><g class="legendlines"><path class="js-line" d="M5,0h30" style="fill: none; stroke: rgb(255, 165, 0); stroke-opacity: 1; stroke-width: 2px;"/></g><g class="legendsymbols"><g class="legendpoints"/></g></g><rect class="legendtoggle" x="0" y="-9.5" width="122.71875" height="19" style="fill: rgb(0, 0, 0); fill-opacity: 0;"/></g><g class="traces" transform="translate(0,90.5)" style="opacity: 1;"><text class="legendtext" text-anchor="start" x="40" y="4.680000000000001" style="font-family: 'Open Sans', verdana, arial, sans-serif; font-size: 12px; fill: rgb(42, 63, 95); fill-opacity: 1; white-space: pre;">Train Recall</text><g class="layers" style="opacity: 1;"><g class="legendfill"/><g class="legendlines"><path class="js-line" d="M5,0h30" style="fill: none; stroke: rgb(128, 0, 128); stroke-opacity: 1; stroke-width: 2px;"/></g><g class="legendsymbols"><g class="legendpoints"/></g></g><rect class="legendtoggle" x="0" y="-9.5" width="122.71875" height="19" style="fill: rgb(0, 0, 0); fill-opacity: 0;"/></g><g class="traces" transform="translate(0,109.5)" style="opacity: 1;"><text class="legendtext" text-anchor="start" x="40" y="4.680000000000001" style="font-family: 'Open Sans', verdana, arial, sans-serif; font-size: 12px; fill: rgb(42, 63, 95); fill-opacity: 1; white-space: pre;">Test Recall</text><g class="layers" style="opacity: 1;"><g class="legendfill"/><g class="legendlines"><path class="js-line" d="M5,0h30" style="fill: none; stroke: rgb(255, 192, 203); stroke-opacity: 1; stroke-width: 2px;"/></g><g class="legendsymbols"><g class="legendpoints"/></g></g><rect class="legendtoggle" x="0" y="-9.5" width="122.71875" height="19" style="fill: rgb(0, 0, 0); fill-opacity: 0;"/></g><g class="traces" transform="translate(0,128.5)" style="opacity: 1;"><text class="legendtext" text-anchor="start" x="40" y="4.680000000000001" style="font-family: 'Open Sans', verdana, arial, sans-serif; font-size: 12px; fill: rgb(42, 63, 95); fill-opacity: 1; white-space: pre;">Train F1</text><g class="layers" style="opacity: 1;"><g class="legendfill"/><g class="legendlines"><path class="js-line" d="M5,0h30" style="fill: none; stroke: rgb(165, 42, 42); stroke-opacity: 1; stroke-width: 2px;"/></g><g class="legendsymbols"><g class="legendpoints"/></g></g><rect class="legendtoggle" x="0" y="-9.5" width="122.71875" height="19" style="fill: rgb(0, 0, 0); fill-opacity: 0;"/></g><g class="traces" transform="translate(0,147.5)" style="opacity: 1;"><text class="legendtext" text-anchor="start" x="40" y="4.680000000000001" style="font-family: 'Open Sans', verdana, arial, sans-serif; font-size: 12px; fill: rgb(42, 63, 95); fill-opacity: 1; white-space: pre;">Test F1</text><g class="layers" style="opacity: 1;"><g class="legendfill"/><g class="legendlines"><path class="js-line" d="M5,0h30" style="fill: none; stroke: rgb(128, 128, 128); stroke-opacity: 1; stroke-width: 2px;"/></g><g class="legendsymbols"><g class="legendpoints"/></g></g><rect class="legendtoggle" x="0" y="-9.5" width="122.71875" height="19" style="fill: rgb(0, 0, 0); fill-opacity: 0;"/></g></g></g><rect class="scrollbar" rx="20" ry="3" width="0" height="0" x="0" y="0" style="fill: rgb(128, 139, 164); fill-opacity: 1;"/></g><g class="g-gtitle"><text class="gtitle" x="51.2" y="50" text-anchor="start" dy="0em" style="font-family: 'Open Sans', verdana, arial, sans-serif; font-size: 17px; fill: rgb(42, 63, 95); opacity: 1; font-weight: normal; white-space: pre;">Training Metrics - logs/FakeNewsNet-politifact_max-vocab=15000_pre=v1_domain_T=200_s=10.log</text></g><g class="g-xtitle"><text class="xtitle" x="510" y="537.3" text-anchor="middle" style="font-family: 'Open Sans', verdana, arial, sans-serif; font-size: 14px; fill: rgb(42, 63, 95); opacity: 1; font-weight: normal; white-space: pre;">Epoch</text></g><g class="g-ytitle"><text class="ytitle" transform="rotate(-90,110.965625,298)" x="110.965625" y="298" text-anchor="middle" style="font-family: 'Open Sans', verdana, arial, sans-serif; font-size: 14px; fill: rgb(42, 63, 95); opacity: 1; font-weight: normal; white-space: pre;">Metric Score</text></g></g><g class="menulayer"><g class="updatemenu-container" style="cursor: pointer;"><g class="updatemenu-header-group" transform="translate(12,60)"><g class="updatemenu-header" transform="translate(1,1)" style="pointer-events: all;"><rect class="updatemenu-item-rect" rx="2" ry="2" shape-rendering="crispEdges" x="0" y="0" width="174" height="33" style="stroke: rgb(190, 200, 217); stroke-opacity: 1; fill: rgb(255, 255, 255); fill-opacity: 1; stroke-width: 1px;"/><text class="updatemenu-item-text" text-anchor="start" data-notex="1" x="12" y="19.5" style="font-family: 'Open Sans', verdana, arial, sans-serif; font-size: 12px; fill: rgb(42, 63, 95); fill-opacity: 1; white-space: pre;">All</text></g><text class="updatemenu-header-arrow" text-anchor="end" x="170" y="19.5" style="font-family: 'Open Sans', verdana, arial, sans-serif; font-size: 12px; fill: rgb(42, 63, 95); fill-opacity: 1;">▼</text></g><g class="updatemenu-dropdown-button-group" updatemenu-active-index="-1" style="pointer-events: all;"><rect class="scrollbox-bg" opacity="0" x="0" y="0" width="0" height="0" style="pointer-events: all;"/></g></g></g></svg>