<svg class="main-svg" xmlns="http://www.w3.org/2000/svg" xmlns:xlink="http://www.w3.org/1999/xlink" width="1024" height="576" style="" viewBox="0 0 1024 576"><rect x="0" y="0" width="1024" height="576" style="fill: rgb(255, 255, 255); fill-opacity: 1;"/><defs id="defs-a99c4d"><g class="clips"><clipPath id="clipa99c4dxyplot" class="plotclip"><rect width="726" height="396"/></clipPath><clipPath class="axesclip" id="clipa99c4dx"><rect x="143" y="0" width="726" height="576"/></clipPath><clipPath class="axesclip" id="clipa99c4dy"><rect x="0" y="100" width="1024" height="396"/></clipPath><clipPath class="axesclip" id="clipa99c4dxy"><rect x="143" y="100" width="726" height="396"/></clipPath></g><g class="gradients"/><g class="patterns"/></defs><g class="bglayer"><rect class="bg" x="143" y="100" width="726" height="396" style="fill: rgb(229, 236, 246); fill-opacity: 1; stroke-width: 0;"/></g><g class="layer-below"><g class="imagelayer"/><g class="shapelayer"/></g><g class="cartesianlayer"><g class="subplot xy"><g class="layer-subplot"><g class="shapelayer"/><g class="imagelayer"/></g><g class="minor-gridlayer"><g class="x"/><g class="y"/></g><g class="gridlayer"><g class="x"><path class="xgrid crisp" transform="translate(235.57999999999998,0)" d="M0,100v396" style="stroke: rgb(255, 255, 255); stroke-opacity: 1; stroke-width: 1px;"/><path class="xgrid crisp" transform="translate(333.03,0)" d="M0,100v396" style="stroke: rgb(255, 255, 255); stroke-opacity: 1; stroke-width: 1px;"/><path class="xgrid crisp" transform="translate(430.48,0)" d="M0,100v396" style="stroke: rgb(255, 255, 255); stroke-opacity: 1; stroke-width: 1px;"/><path class="xgrid crisp" transform="translate(527.9300000000001,0)" d="M0,100v396" style="stroke: rgb(255, 255, 255); stroke-opacity: 1; stroke-width: 1px;"/><path class="xgrid crisp" transform="translate(625.38,0)" d="M0,100v396" style="stroke: rgb(255, 255, 255); stroke-opacity: 1; stroke-width: 1px;"/><path class="xgrid crisp" transform="translate(722.83,0)" d="M0,100v396" style="stroke: rgb(255, 255, 255); stroke-opacity: 1; stroke-width: 1px;"/><path class="xgrid crisp" transform="translate(820.28,0)" d="M0,100v396" style="stroke: rgb(255, 255, 255); stroke-opacity: 1; stroke-width: 1px;"/></g><g class="y"><path class="ygrid crisp" transform="translate(0,494.52)" d="M143,0h726" style="stroke: rgb(255, 255, 255); stroke-opacity: 1; stroke-width: 1px;"/><path class="ygrid crisp" transform="translate(0,453.62)" d="M143,0h726" style="stroke: rgb(255, 255, 255); stroke-opacity: 1; stroke-width: 1px;"/><path class="ygrid crisp" transform="translate(0,412.72)" d="M143,0h726" style="stroke: rgb(255, 255, 255); stroke-opacity: 1; stroke-width: 1px;"/><path class="ygrid crisp" transform="translate(0,371.82)" d="M143,0h726" style="stroke: rgb(255, 255, 255); stroke-opacity: 1; stroke-width: 1px;"/><path class="ygrid crisp" transform="translate(0,330.91999999999996)" d="M143,0h726" style="stroke: rgb(255, 255, 255); stroke-opacity: 1; stroke-width: 1px;"/><path class="ygrid crisp" transform="translate(0,290.02)" d="M143,0h726" style="stroke: rgb(255, 255, 255); stroke-opacity: 1; stroke-width: 1px;"/><path class="ygrid crisp" transform="translate(0,249.12)" d="M143,0h726" style="stroke: rgb(255, 255, 255); stroke-opacity: 1; stroke-width: 1px;"/><path class="ygrid crisp" transform="translate(0,208.23000000000002)" d="M143,0h726" style="stroke: rgb(255, 255, 255); stroke-opacity: 1; stroke-width: 1px;"/><path class="ygrid crisp" transform="translate(0,167.32999999999998)" d="M143,0h726" style="stroke: rgb(255, 255, 255); stroke-opacity: 1; stroke-width: 1px;"/><path class="ygrid crisp" transform="translate(0,126.43)" d="M143,0h726" style="stroke: rgb(255, 255, 255); stroke-opacity: 1; stroke-width: 1px;"/></g></g><g class="zerolinelayer"/><path class="xlines-below"/><path class="ylines-below"/><g class="overlines-below"/><g class="xaxislayer-below"/><g class="yaxislayer-below"/><g class="overaxes-below"/><g class="plot" transform="translate(143,100)" clip-path="url(#clipa99c4dxyplot)"><g class="scatterlayer mlayer"><g class="trace scatter tracefadb42" style="stroke-miterlimit: 2; opacity: 1;"><g class="fills"/><g class="errorbars"/><g class="lines"><path class="js-line" d="M0,251.86L4.87,138.49L9.74,136.53L19.49,95.79L24.36,113.3L29.23,117.14L34.11,102.58L38.98,109.37L43.85,100.7L48.72,78.37L53.6,79.35L58.47,72.56L63.34,78.37L68.21,74.52L73.09,63.81L77.96,60.95L82.83,80.33L87.7,65.77L92.58,58.98L97.45,63.81L102.32,58.98L107.19,56.12L112.07,55.14L116.94,59.96L121.81,55.14L126.68,43.52L131.56,40.58L136.43,51.21L141.3,66.75L146.17,57.02L151.05,78.37L155.92,55.14L160.79,91.95L170.54,47.37L175.41,47.37L180.28,46.38L185.15,56.12L190.03,52.19L194.9,58L199.77,51.21L204.64,55.14L209.52,79.35L214.39,41.56L219.26,82.21L224.13,67.73L229.01,61.93L233.88,51.21L238.75,53.17L243.62,57.02L248.5,48.35L253.37,62.83L258.24,64.79L263.11,62.83L267.99,57.02L272.86,54.16L277.73,41.56L282.6,37.63L287.48,49.33L292.35,71.58L297.22,37.63L302.09,31.82L306.97,27.98L311.84,39.6L316.71,37.63L321.58,33.79L326.46,43.52L331.33,42.54L336.2,37.63L341.07,39.6L345.95,44.42L350.82,41.56L355.69,51.21L360.56,45.4L365.44,40.58L370.31,56.12L375.18,41.56L380.05,42.54L384.93,40.58L389.8,41.56L394.67,34.77L399.54,41.56L404.42,32.81L409.29,38.61L414.16,36.73L419.03,37.63L423.91,41.56L428.78,44.42L433.65,31.82L438.52,30.92L443.4,24.14L448.27,31.82L453.14,41.56L458.01,37.63L462.89,42.54L467.76,36.73L472.63,42.54L477.5,38.61L487.25,44.42L492.12,61.93L496.99,66.75L501.87,59.96L506.74,58L511.61,45.4L516.48,62.83L521.36,61.93L526.23,54.16L531.1,55.14L535.97,35.75L540.85,44.42L545.72,36.73L550.59,39.6L555.46,63.81L560.34,59.96L565.21,39.6L570.08,88.1L574.95,45.4L579.83,45.4L584.7,59.96L589.57,56.12L594.44,69.62L599.32,47.37L604.19,36.73L609.06,38.61L613.93,38.61L618.81,64.79L623.68,58L628.55,61.93L633.42,46.38L638.3,52.19L643.17,56.12L648.04,52.19L652.91,73.54L657.79,71.58L662.66,87.12L667.53,66.75L672.4,61.93L677.28,46.38L682.15,35.75L687.02,49.33L691.89,58.98L696.77,43.52L701.64,57.02L706.51,67.73L711.38,58.98L716.26,46.38L721.13,33.79L726,50.23" style="vector-effect: none; fill: none; stroke: rgb(255, 0, 0); stroke-opacity: 1; stroke-width: 2px; opacity: 1;"/></g><g class="points"/><g class="text"/></g><g class="trace scatter tracec14996" style="stroke-miterlimit: 2; opacity: 1;"><g class="fills"/><g class="errorbars"/><g class="lines"><path class="js-line" d="M0,214.73L4.87,125.98L9.74,102.83L14.62,98.98L19.49,98.98L24.36,106.67L29.23,102.83L38.98,79.68L43.85,91.21L48.72,87.37L53.6,71.99L58.47,75.83L63.34,71.99L73.09,64.22L77.96,95.14L82.83,122.13L87.7,87.37L92.58,95.14L97.45,95.14L107.19,64.22L112.07,64.22L116.94,60.37L121.81,71.99L126.68,83.52L131.56,87.37L136.43,95.14L141.3,91.21L146.17,87.37L151.05,133.66L155.92,95.14L160.79,137.51L165.66,122.13L170.54,75.83L175.41,75.83L180.28,68.06L185.15,79.68L190.03,83.52L194.9,75.83L199.77,87.37L204.64,75.83L209.52,125.98L214.39,79.68L219.26,129.82L224.13,114.36L229.01,133.66L233.88,106.67L238.75,102.83L243.62,122.13L248.5,98.98L253.37,145.28L258.24,141.44L263.11,137.51L267.99,137.51L272.86,110.52L277.73,102.83L282.6,91.21L287.48,106.67L292.35,125.98L297.22,83.52L302.09,71.99L306.97,71.99L311.84,91.21L316.71,79.68L321.58,79.68L326.46,83.52L331.33,79.68L336.2,87.37L341.07,83.52L345.95,91.21L355.69,98.98L360.56,91.21L365.44,79.68L370.31,102.83L375.18,91.21L380.05,102.83L389.8,102.83L394.67,106.67L404.42,91.21L409.29,125.98L414.16,79.68L419.03,79.68L428.78,79.68L433.65,83.52L438.52,87.37L443.4,87.37L448.27,79.68L453.14,87.37L458.01,98.98L462.89,87.37L467.76,91.21L472.63,91.21L477.5,106.67L482.38,102.83L487.25,98.98L492.12,98.98L496.99,110.52L501.87,102.83L506.74,91.21L511.61,98.98L516.48,125.98L521.36,114.36L531.1,106.67L535.97,95.14L540.85,98.98L545.72,98.98L550.59,98.98L555.46,129.82L560.34,125.98L565.21,110.52L570.08,168.43L574.95,114.36L579.83,110.52L584.7,114.36L589.57,114.36L594.44,129.82L599.32,106.67L604.19,98.98L609.06,102.83L613.93,95.14L618.81,137.51L623.68,141.44L628.55,141.44L633.42,125.98L638.3,125.98L643.17,122.13L648.04,125.98L652.91,145.28L657.79,156.81L662.66,164.58L667.53,133.66L672.4,137.51L677.28,118.29L682.15,91.21L687.02,95.14L691.89,114.36L696.77,95.14L701.64,106.67L706.51,122.13L711.38,110.52L716.26,114.36L721.13,95.14L726,106.67" style="vector-effect: none; fill: none; stroke: rgb(0, 0, 255); stroke-opacity: 1; stroke-width: 2px; opacity: 1;"/></g><g class="points"/><g class="text"/></g><g class="trace scatter tracea6430e" style="stroke-miterlimit: 2; opacity: 1;"><g class="fills"/><g class="errorbars"/><g class="lines"><path class="js-line" d="M0,105.28L4.87,97.18L9.74,97.35L14.62,100.7L19.49,96.12L24.36,102.74L29.23,97.1L34.11,94.65L38.98,96.86L43.85,91.21L48.72,76.32L53.6,74.85L58.47,70.11L63.34,71.33L68.21,74.11L73.09,64.3L77.96,63.24L82.83,76.98L87.7,67.98L92.58,60.37L97.45,67.16L102.32,62.66L107.19,59.72L112.07,58.65L116.94,62.09L121.81,58.16L126.68,46.71L131.56,43.93L136.43,53.5L141.3,64.63L146.17,57.02L151.05,72.23L155.92,54.16L160.79,81.56L165.66,68.14L170.54,49.98L175.41,49.82L180.28,49.9L185.15,59.72L190.03,54.89L194.9,60.37L199.77,52.36L204.64,55.96L209.52,74.44L214.39,44.42L219.26,77.14L224.13,67.24L233.88,54.16L238.75,55.46L243.62,58.9L248.5,48.76L253.37,57.67L258.24,59.64L263.11,58.16L267.99,55.71L272.86,52.93L277.73,43.36L282.6,40.25L287.48,50.47L292.35,66.18L297.22,40.25L302.09,35.01L306.97,31.33L311.84,41.48L316.71,40.74L321.58,36.98L326.46,44.91L331.33,44.83L336.2,39.51L341.07,40.99L345.95,44.91L350.82,43.19L355.69,51.21L365.44,41.8L370.31,54.56L375.18,42.95L380.05,44.26L384.93,42.54L389.8,42.7L394.67,36L399.54,41.56L404.42,34.36L409.29,38.45L414.16,37.71L419.03,37.96L428.78,43.93L433.65,33.22L438.52,33.05L443.4,27L453.14,44.01L458.01,40.25L462.89,44.5L467.76,39.92L472.63,45.32L477.5,40.17L482.38,43.6L487.25,45.73L492.12,56.45L496.99,62.99L501.87,55.96L506.74,56.45L511.61,45.08L516.48,57.18L521.36,55.96L526.23,50.15L531.1,52.6L535.97,36.57L540.85,43.28L545.72,35.51L550.59,36.65L555.46,55.22L560.34,53.99L565.21,38.2L570.08,70.11L574.95,42.05L579.83,42.05L584.7,54.48L589.57,52.52L594.44,61.6L599.32,47.69L604.19,38.61L613.93,40.82L618.81,61.03L623.68,54.89L628.55,56.45L633.42,45.57L638.3,49.08L643.17,51.62L648.04,49.08L652.91,63.24L657.79,60.62L662.66,69.45L667.53,56.04L672.4,53.83L677.28,42.79L682.15,35.1L687.02,46.38L691.89,53.83L696.77,41.72L701.64,51.37L706.51,58.49L711.38,52.77L716.26,43.69L721.13,34.11L726,46.22" style="vector-effect: none; fill: none; stroke: rgb(0, 128, 0); stroke-opacity: 1; stroke-width: 2px; opacity: 1;"/></g><g class="points"/><g class="text"/></g><g class="trace scatter trace9a6153" style="stroke-miterlimit: 2; opacity: 1;"><g class="fills"/><g class="errorbars"/><g class="lines"><path class="js-line" d="M0,84.99L4.87,106.18L9.74,87.12L14.62,100.13L19.49,109.29L24.36,113.21L29.23,103.64L34.11,98.49L38.98,82.79L43.85,98.49L48.72,97.02L53.6,78.94L58.47,84.83L63.34,80.17L68.21,77.39L73.09,72.81L77.96,102.5L82.83,117.71L87.7,95.79L97.45,103.64L102.32,90.56L107.19,74.2L112.07,74.2L116.94,69.04L121.81,82.62L126.68,93.26L131.56,97.51L136.43,102.5L141.3,96.53L146.17,94.73L151.05,125.57L155.92,101.11L160.79,125.32L165.66,120L170.54,86.06L175.41,86.06L180.28,78.53L185.15,90.23L190.03,93.26L194.9,85.4L199.77,94.73L204.64,82.46L209.52,117.8L214.39,88.02L219.26,117.55L224.13,112.32L229.01,125.57L233.88,111.99L238.75,103.81L243.62,122.13L248.5,98.98L253.37,130.15L258.24,124.75L263.11,122.38L267.99,125.32L272.86,104.87L277.73,103.81L282.6,94.97L287.48,102.25L292.35,112.15L297.22,90.15L302.09,79.19L306.97,81.8L311.84,94.97L316.71,84.18L321.58,85.65L326.46,85.48L331.33,88.02L336.2,93.42L341.07,88.76L345.95,94.97L350.82,97.92L355.69,98.98L360.56,91.21L365.44,85.65L370.31,101.76L375.18,96.53L380.05,108.88L384.93,108.88L389.8,103.81L394.67,106.67L399.54,94.48L404.42,91.21L409.29,115.1L414.16,84.18L423.91,84.18L428.78,82.54L438.52,94.73L443.4,96.77L448.27,89.66L453.14,93.42L458.01,104.3L462.89,93.42L467.76,97.92L472.63,97.92L477.5,110.43L482.38,107.41L487.25,104.3L492.12,94.48L496.99,104.87L501.87,99.55L506.74,89.08L511.61,98.98L516.48,117.8L521.36,109.94L531.1,104.54L535.97,97.92L540.85,102.66L545.72,102.66L550.59,100.95L555.46,111.33L560.34,112.15L565.21,111.5L570.08,128.35L574.95,109.94L584.7,104.79L589.57,107.49L594.44,117.55L599.32,106.67L604.19,105.69L609.06,107.41L613.93,101.11L618.81,128.1L623.68,127.78L628.55,121.48L633.42,120.33L638.3,117.8L643.17,117.71L648.04,120.33L652.91,123.69L657.79,133.83L662.66,138.25L667.53,122.87L672.4,128.1L677.28,115.01L682.15,96.53L687.02,97.92L691.89,112.32L696.77,101.11L701.64,102.25L706.51,115.26L711.38,109.53L716.26,112.32L721.13,99.64L726,104.54" style="vector-effect: none; fill: none; stroke: rgb(255, 165, 0); stroke-opacity: 1; stroke-width: 2px; opacity: 1;"/></g><g class="points"/><g class="text"/></g><g class="trace scatter trace74f72d" style="stroke-miterlimit: 2; opacity: 1;"><g class="fills"/><g class="errorbars"/><g class="lines"><path class="js-line" d="M0,310.84L4.87,169.9L9.74,167.28L19.49,105.93L24.36,132.19L29.23,140.37L34.11,119.19L38.98,128.84L43.85,117.8L48.72,89L53.6,91.78L58.47,83.03L63.34,92.19L68.21,83.44L73.09,71.01L77.96,56.04L82.83,70.11L92.58,52.77L97.45,61.11L102.32,58.16L107.19,56.61L112.07,56.12L116.94,64.79L121.81,57.75L126.68,40.33L131.56,37.88L136.43,46.06L141.3,57.18L146.17,49.17L151.05,66.26L155.92,46.22L160.79,77.63L165.66,60.62L170.54,42.7L175.41,42.38L180.28,44.42L185.15,54.73L190.03,47.86L194.9,53.17L199.77,44.42L204.64,48.1L209.52,68.06L214.39,37.39L219.26,70.84L224.13,59.64L229.01,52.68L233.88,47.37L238.75,48.02L243.62,51.37L248.5,40.66L253.37,50.97L258.24,52.93L263.11,51.29L272.86,45.08L277.73,35.51L282.6,32.81L287.48,42.46L292.35,59.72L297.22,32.81L302.09,28.39L306.97,25.69L311.84,33.46L316.71,34.03L321.58,30.43L326.46,36.81L331.33,37.31L336.2,31.5L341.07,32.81L345.95,36.73L350.82,35.18L355.69,43.19L360.56,37.88L365.44,33.71L370.31,46.71L375.18,34.85L380.05,36.32L384.93,34.61L389.8,34.52L394.67,27.73L399.54,33.22L404.42,26.02L409.29,30.11L414.16,29.37L419.03,29.53L423.91,32.89L428.78,35.75L433.65,24.87L438.52,25.04L443.4,19.8L453.14,36.41L458.01,32.81L462.89,36.65L467.76,33.54L472.63,38.2L477.5,31.99L482.38,35.75L487.25,37.63L492.12,49.82L496.99,55.87L501.87,48.76L506.74,48.68L511.61,36.9L516.48,50.64L521.36,49.49L526.23,42.79L531.1,44.91L535.97,28.23L540.85,35.1L545.72,27.16L550.59,28.63L555.46,49.82L560.34,47.45L565.21,29.94L570.08,70.11L574.95,34.36L579.83,34.36L584.7,47.78L589.57,45.08L594.44,56.12L599.32,39.51L604.19,30.68L613.93,32.97L618.81,53.91L623.68,47.45L628.55,49.82L633.42,37.39L638.3,41.48L643.17,44.5L648.04,41.48L652.91,58.82L657.79,56.53L662.66,69.29L667.53,51.7L672.4,48.18L677.28,35.18L682.15,26.59L687.02,38.61L691.89,46.96L696.77,33.62L701.64,44.67L706.51,53.5L711.38,46.3L716.26,35.83L721.13,25.61L726,38.78" style="vector-effect: none; fill: none; stroke: rgb(128, 0, 128); stroke-opacity: 1; stroke-width: 2px; opacity: 1;"/></g><g class="points"/><g class="text"/></g><g class="trace scatter trace88d313" style="stroke-miterlimit: 2; opacity: 1;"><g class="fills"/><g class="errorbars"/><g class="lines"><path class="js-line" d="M0,311.66L4.87,175.71L9.74,144.3L14.62,128.1L19.49,114.93L24.36,131.95L29.23,133.34L34.11,111.01L38.98,101.84L43.85,111.01L48.72,101.35L53.6,86.96L58.47,87.86L63.34,84.83L68.21,77.39L73.09,74.28L77.96,85.57L82.83,100.37L87.7,79.43L92.58,81.23L97.45,87.78L102.32,79.92L107.19,69.94L112.07,69.94L116.94,69.04L121.81,76L126.68,78.61L131.56,83.85L136.43,85.57L141.3,78.12L146.17,77.3L151.05,109.53L155.92,83.36L160.79,110.35L165.66,102.58L170.54,72.48L175.41,72.48L180.28,66.43L185.15,77.71L190.03,78.61L194.9,70.35L199.77,77.3L204.64,63.73L209.52,101.19L214.39,71.17L219.26,102.09L224.13,94.24L229.01,109.53L233.88,94.73L238.75,85.08L243.62,104.79L248.5,79.84L253.37,116.49L258.24,111.25L263.11,108.23L267.99,110.35L272.86,86.79L277.73,85.08L282.6,75.91L287.48,83.77L292.35,96.86L297.22,72.07L302.09,60.7L306.97,67.24L311.84,75.91L316.71,64.63L321.58,66.75L326.46,65.44L331.33,71.17L336.2,75.1L341.07,69.86L345.95,75.91L350.82,79.02L355.69,79.84L360.56,71.58L365.44,66.75L370.31,82.95L375.18,78.12L380.05,91.7L384.93,91.7L389.8,85.08L394.67,88.18L399.54,75.51L404.42,71.58L409.29,99.06L414.16,64.63L419.03,64.63L423.91,64.63L428.78,62.42L438.52,77.3L443.4,81.64L448.27,75.59L453.14,75.1L458.01,86.47L462.89,75.1L467.76,80.33L472.63,80.33L477.5,92.52L482.38,89.49L487.25,86.47L492.12,75.51L496.99,86.79L501.87,80.74L506.74,69.37L511.61,79.84L516.48,101.19L521.36,92.11L531.1,85.98L535.97,79.02L540.85,84.26L545.72,84.26L550.59,82.05L555.46,97.67L560.34,96.86L565.21,93.42L570.08,126.06L574.95,92.11L579.83,89L584.7,87.69L589.57,89.9L594.44,102.09L599.32,88.18L604.19,88.59L609.06,89.49L613.93,83.36L618.81,112.56L623.68,113.46L628.55,109.04L633.42,103.4L638.3,101.19L643.17,100.37L648.04,103.4L652.91,112.07L657.79,123.44L662.66,129.57L667.53,107.33L672.4,112.56L677.28,97.35L682.15,78.12L687.02,79.02L691.89,94.24L696.77,83.36L701.64,83.77L706.51,98.16L711.38,91.21L716.26,94.24L721.13,81.23L726,85.98" style="vector-effect: none; fill: none; stroke: rgb(255, 192, 203); stroke-opacity: 1; stroke-width: 2px; opacity: 1;"/></g><g class="points"/><g class="text"/></g><g class="trace scatter trace73c7ee" style="stroke-miterlimit: 2; opacity: 1;"><g class="fills"/><g class="errorbars"/><g class="lines"><path class="js-line" d="M0,376.2L4.87,166.47L9.74,163.44L14.62,129.9L19.49,102.5L24.36,126.3L29.23,133.99L34.11,113.38L38.98,122.62L43.85,111.74L48.72,84.75L53.6,86.63L58.47,78.7L63.34,86.3L68.21,80L73.09,68.31L77.96,62.17L82.83,80.82L87.7,67L92.58,59.96L97.45,65.53L102.32,61.03L107.19,58.41L112.07,57.59L116.94,63.56L121.81,58L126.68,44.91L131.56,42.05L136.43,52.36L141.3,67.24L146.17,57.75L151.05,78.61L155.92,55.71L160.79,92.03L165.66,70.27L170.54,48.51L175.41,48.51L180.28,48.02L185.15,58L190.03,53.5L194.9,59.23L199.77,52.11L204.64,55.96L209.52,79.68L214.39,42.79L219.26,82.62L224.13,68.47L229.01,62.5L233.88,52.6L238.75,54.32L243.62,58.16L248.5,49.08L253.37,63.15L258.24,65.12L263.11,63.15L267.99,57.59L272.86,54.73L277.73,42.46L282.6,38.78L287.48,50.15L292.35,71.91L297.22,38.78L302.09,33.13L306.97,29.37L311.84,40.5L316.71,38.94L321.58,35.1L326.46,44.34L331.33,43.6L336.2,38.53L341.07,40.41L345.95,45.16L350.82,42.46L355.69,51.95L360.56,46.14L365.44,41.4L370.31,56.61L375.18,42.38L380.05,43.44L384.93,41.48L389.8,42.38L394.67,35.51L399.54,42.21L404.42,33.62L409.29,39.27L414.16,37.47L419.03,38.29L428.78,45.08L433.65,32.64L438.52,31.74L443.4,25.12L448.27,33.13L453.14,42.62L458.01,38.78L462.89,43.44L467.76,38.04L472.63,43.69L477.5,39.43L482.38,42.54L487.25,45.32L492.12,62.17L496.99,67.16L501.87,60.29L506.74,58.57L511.61,46.06L516.48,63.15L521.36,62.17L526.23,54.48L531.1,55.55L535.97,36.41L540.85,44.99L545.72,37.22L550.59,40L555.46,63.97L560.34,60.21L565.21,40.09L570.08,88.1L574.95,45.81L579.83,45.81L584.7,60.21L589.57,56.45L594.44,69.86L599.32,48.1L604.19,37.63L609.06,39.43L613.93,39.6L618.81,65.2L623.68,58.41L628.55,62.17L633.42,46.96L638.3,52.6L643.17,56.36L648.04,52.6L652.91,73.62L657.79,71.66L662.66,87.12L667.53,66.83L672.4,62.09L677.28,46.71L682.15,36.24L687.02,49.66L691.89,59.31L696.77,43.93L701.64,57.35L706.51,67.82L711.38,59.23L716.26,46.79L721.13,34.44L726,50.56" style="vector-effect: none; fill: none; stroke: rgb(165, 42, 42); stroke-opacity: 1; stroke-width: 2px; opacity: 1;"/></g><g class="points"/><g class="text"/></g><g class="trace scatter trace3e0a5a" style="stroke-miterlimit: 2; opacity: 1;"><g class="fills"/><g class="errorbars"/><g class="lines"><path class="js-line" d="M0,362.21L4.87,164.75L9.74,131.46L14.62,119.1L19.49,112.4L24.36,125.24L29.23,124.09L34.11,105.93L38.98,94.65L43.85,105.93L48.72,99.39L53.6,83.44L58.47,86.47L63.34,82.62L68.21,77.39L73.09,73.54L77.96,99.8L82.83,124.42L87.7,92.36L92.58,98.82L97.45,100.37L107.19,72.23L112.07,72.23L116.94,69.04L121.81,79.76L126.68,89.17L131.56,93.5L136.43,99.8L141.3,95.14L146.17,91.87L151.05,135.55L155.92,99.31L160.79,138.98L165.66,124.83L170.54,81.72L175.41,81.72L180.28,74.2L185.15,86.06L190.03,89.17L194.9,81.15L199.77,91.87L204.64,79.68L209.52,127.78L214.39,84.42L219.26,131.21L224.13,116.98L229.01,135.55L233.88,110.92L238.75,105.85L243.62,125.24L248.5,101.68L253.37,146.43L258.24,142.42L263.11,138.65L267.99,138.98L272.86,112.48L277.73,105.85L282.6,94.65L287.48,108.8L292.35,127.12L297.22,87.69L302.09,76L306.97,77.39L311.84,94.65L316.71,83.03L321.58,83.44L326.46,86.38L331.33,84.42L336.2,91.37L341.07,87.2L345.95,94.65L355.69,101.68L360.56,93.83L365.44,83.44L370.31,105.44L375.18,95.14L380.05,107.24L384.93,107.24L389.8,105.85L394.67,109.53L399.54,100.95L404.42,93.83L409.29,127.45L414.16,83.03L419.03,83.03L428.78,82.62L433.65,87.2L438.52,91.87L443.4,92.93L448.27,85.48L453.14,91.37L458.01,103.07L462.89,91.37L467.76,95.63L472.63,95.63L477.5,110.43L482.38,106.75L487.25,103.07L492.12,100.95L496.99,112.48L501.87,105.03L506.74,93.5L511.61,101.68L516.48,127.78L521.36,116.57L531.1,109.12L535.97,98.41L540.85,102.58L545.72,102.58L550.59,102.09L555.46,130.64L560.34,127.12L565.21,113.71L570.08,168.43L574.95,116.57L579.83,112.89L584.7,115.91L589.57,116.24L594.44,131.21L599.32,109.53L604.19,103.56L609.06,106.75L613.93,99.31L618.81,139.31L623.68,142.66L628.55,142.17L633.42,128.1L638.3,127.78L643.17,124.42L648.04,128.1L652.91,145.93L657.79,157.39L662.66,164.99L667.53,135.22L672.4,139.31L677.28,120.74L682.15,95.14L687.02,98.41L691.89,116.98L696.77,99.31L701.64,108.8L706.51,124.01L711.38,113.3L716.26,116.98L721.13,98.82L726,109.12" style="vector-effect: none; fill: none; stroke: rgb(128, 128, 128); stroke-opacity: 1; stroke-width: 2px; opacity: 1;"/></g><g class="points"/><g class="text"/></g></g></g><g class="overplot"/><path class="xlines-above crisp" d="M0,0" style="fill: none;"/><path class="ylines-above crisp" d="M0,0" style="fill: none;"/><g class="overlines-above"/><g class="xaxislayer-above"><g class="xtick"><text text-anchor="middle" x="0" y="509" transform="translate(235.57999999999998,0)" style="font-family: 'Open Sans', verdana, arial, sans-serif; font-size: 12px; fill: rgb(42, 63, 95); fill-opacity: 1; white-space: pre; opacity: 1;">20</text></g><g class="xtick"><text text-anchor="middle" x="0" y="509" style="font-family: 'Open Sans', verdana, arial, sans-serif; font-size: 12px; fill: rgb(42, 63, 95); fill-opacity: 1; white-space: pre; opacity: 1;" transform="translate(333.03,0)">40</text></g><g class="xtick"><text text-anchor="middle" x="0" y="509" style="font-family: 'Open Sans', verdana, arial, sans-serif; font-size: 12px; fill: rgb(42, 63, 95); fill-opacity: 1; white-space: pre; opacity: 1;" transform="translate(430.48,0)">60</text></g><g class="xtick"><text text-anchor="middle" x="0" y="509" style="font-family: 'Open Sans', verdana, arial, sans-serif; font-size: 12px; fill: rgb(42, 63, 95); fill-opacity: 1; white-space: pre; opacity: 1;" transform="translate(527.9300000000001,0)">80</text></g><g class="xtick"><text text-anchor="middle" x="0" y="509" style="font-family: 'Open Sans', verdana, arial, sans-serif; font-size: 12px; fill: rgb(42, 63, 95); fill-opacity: 1; white-space: pre; opacity: 1;" transform="translate(625.38,0)">100</text></g><g class="xtick"><text text-anchor="middle" x="0" y="509" style="font-family: 'Open Sans', verdana, arial, sans-serif; font-size: 12px; fill: rgb(42, 63, 95); fill-opacity: 1; white-space: pre; opacity: 1;" transform="translate(722.83,0)">120</text></g><g class="xtick"><text text-anchor="middle" x="0" y="509" style="font-family: 'Open Sans', verdana, arial, sans-serif; font-size: 12px; fill: rgb(42, 63, 95); fill-opacity: 1; white-space: pre; opacity: 1;" transform="translate(820.28,0)">140</text></g></g><g class="yaxislayer-above"><g class="ytick"><text text-anchor="end" x="142" y="4.199999999999999" transform="translate(0,494.52)" style="font-family: 'Open Sans', verdana, arial, sans-serif; font-size: 12px; fill: rgb(42, 63, 95); fill-opacity: 1; white-space: pre; opacity: 1;">45</text></g><g class="ytick"><text text-anchor="end" x="142" y="4.199999999999999" style="font-family: 'Open Sans', verdana, arial, sans-serif; font-size: 12px; fill: rgb(42, 63, 95); fill-opacity: 1; white-space: pre; opacity: 1;" transform="translate(0,453.62)">50</text></g><g class="ytick"><text text-anchor="end" x="142" y="4.199999999999999" style="font-family: 'Open Sans', verdana, arial, sans-serif; font-size: 12px; fill: rgb(42, 63, 95); fill-opacity: 1; white-space: pre; opacity: 1;" transform="translate(0,412.72)">55</text></g><g class="ytick"><text text-anchor="end" x="142" y="4.199999999999999" style="font-family: 'Open Sans', verdana, arial, sans-serif; font-size: 12px; fill: rgb(42, 63, 95); fill-opacity: 1; white-space: pre; opacity: 1;" transform="translate(0,371.82)">60</text></g><g class="ytick"><text text-anchor="end" x="142" y="4.199999999999999" style="font-family: 'Open Sans', verdana, arial, sans-serif; font-size: 12px; fill: rgb(42, 63, 95); fill-opacity: 1; white-space: pre; opacity: 1;" transform="translate(0,330.91999999999996)">65</text></g><g class="ytick"><text text-anchor="end" x="142" y="4.199999999999999" style="font-family: 'Open Sans', verdana, arial, sans-serif; font-size: 12px; fill: rgb(42, 63, 95); fill-opacity: 1; white-space: pre; opacity: 1;" transform="translate(0,290.02)">70</text></g><g class="ytick"><text text-anchor="end" x="142" y="4.199999999999999" style="font-family: 'Open Sans', verdana, arial, sans-serif; font-size: 12px; fill: rgb(42, 63, 95); fill-opacity: 1; white-space: pre; opacity: 1;" transform="translate(0,249.12)">75</text></g><g class="ytick"><text text-anchor="end" x="142" y="4.199999999999999" style="font-family: 'Open Sans', verdana, arial, sans-serif; font-size: 12px; fill: rgb(42, 63, 95); fill-opacity: 1; white-space: pre; opacity: 1;" transform="translate(0,208.23000000000002)">80</text></g><g class="ytick"><text text-anchor="end" x="142" y="4.199999999999999" style="font-family: 'Open Sans', verdana, arial, sans-serif; font-size: 12px; fill: rgb(42, 63, 95); fill-opacity: 1; white-space: pre; opacity: 1;" transform="translate(0,167.32999999999998)">85</text></g><g class="ytick"><text text-anchor="end" x="142" y="4.199999999999999" style="font-family: 'Open Sans', verdana, arial, sans-serif; font-size: 12px; fill: rgb(42, 63, 95); fill-opacity: 1; white-space: pre; opacity: 1;" transform="translate(0,126.43)">90</text></g></g><g class="overaxes-above"/></g></g><g class="polarlayer"/><g class="smithlayer"/><g class="ternarylayer"/><g class="geolayer"/><g class="funnelarealayer"/><g class="pielayer"/><g class="iciclelayer"/><g class="treemaplayer"/><g class="sunburstlayer"/><g class="glimages"/><defs id="topdefs-a99c4d"><g class="clips"/><clipPath id="legenda99c4d"><rect width="128" height="162" x="0" y="0"/></clipPath></defs><g class="layer-above"><g class="imagelayer"/><g class="shapelayer"/></g><g class="infolayer"><g class="legend" pointer-events="all" transform="translate(883.52,100)"><rect class="bg" shape-rendering="crispEdges" width="128" height="162" x="0" y="0" style="stroke: rgb(68, 68, 68); stroke-opacity: 1; fill: rgb(255, 255, 255); fill-opacity: 1; stroke-width: 0px;"/><g class="scrollbox" transform="" clip-path="url(#legenda99c4d)"><g class="groups"><g class="traces" transform="translate(0,14.5)" style="opacity: 1;"><text class="legendtext" text-anchor="start" x="40" y="4.680000000000001" style="font-family: 'Open Sans', verdana, arial, sans-serif; font-size: 12px; fill: rgb(42, 63, 95); fill-opacity: 1; white-space: pre;">Train Accuracy</text><g class="layers" style="opacity: 1;"><g class="legendfill"/><g class="legendlines"><path class="js-line" d="M5,0h30" style="fill: none; stroke: rgb(255, 0, 0); stroke-opacity: 1; stroke-width: 2px;"/></g><g class="legendsymbols"><g class="legendpoints"/></g></g><rect class="legendtoggle" x="0" y="-9.5" width="122.71875" height="19" style="fill: rgb(0, 0, 0); fill-opacity: 0;"/></g><g class="traces" transform="translate(0,33.5)" style="opacity: 1;"><text class="legendtext" text-anchor="start" x="40" y="4.680000000000001" style="font-family: 'Open Sans', verdana, arial, sans-serif; font-size: 12px; fill: rgb(42, 63, 95); fill-opacity: 1; white-space: pre;">Test Accuracy</text><g class="layers" style="opacity: 1;"><g class="legendfill"/><g class="legendlines"><path class="js-line" d="M5,0h30" style="fill: none; stroke: rgb(0, 0, 255); stroke-opacity: 1; stroke-width: 2px;"/></g><g class="legendsymbols"><g class="legendpoints"/></g></g><rect class="legendtoggle" x="0" y="-9.5" width="122.71875" height="19" style="fill: rgb(0, 0, 0); fill-opacity: 0;"/></g><g class="traces" transform="translate(0,52.5)" style="opacity: 1;"><text class="legendtext" text-anchor="start" x="40" y="4.680000000000001" style="font-family: 'Open Sans', verdana, arial, sans-serif; font-size: 12px; fill: rgb(42, 63, 95); fill-opacity: 1; white-space: pre;">Train Precision</text><g class="layers" style="opacity: 1;"><g class="legendfill"/><g class="legendlines"><path class="js-line" d="M5,0h30" style="fill: none; stroke: rgb(0, 128, 0); stroke-opacity: 1; stroke-width: 2px;"/></g><g class="legendsymbols"><g class="legendpoints"/></g></g><rect class="legendtoggle" x="0" y="-9.5" width="122.71875" height="19" style="fill: rgb(0, 0, 0); fill-opacity: 0;"/></g><g class="traces" transform="translate(0,71.5)" style="opacity: 1;"><text class="legendtext" text-anchor="start" x="40" y="4.680000000000001" style="font-family: 'Open Sans', verdana, arial, sans-serif; font-size: 12px; fill: rgb(42, 63, 95); fill-opacity: 1; white-space: pre;">Test Precision</text><g class="layers" style="opacity: 1;"><g class="legendfill"/><g class="legendlines"><path class="js-line" d="M5,0h30" style="fill: none; stroke: rgb(255, 165, 0); stroke-opacity: 1; stroke-width: 2px;"/></g><g class="legendsymbols"><g class="legendpoints"/></g></g><rect class="legendtoggle" x="0" y="-9.5" width="122.71875" height="19" style="fill: rgb(0, 0, 0); fill-opacity: 0;"/></g><g class="traces" transform="translate(0,90.5)" style="opacity: 1;"><text class="legendtext" text-anchor="start" x="40" y="4.680000000000001" style="font-family: 'Open Sans', verdana, arial, sans-serif; font-size: 12px; fill: rgb(42, 63, 95); fill-opacity: 1; white-space: pre;">Train Recall</text><g class="layers" style="opacity: 1;"><g class="legendfill"/><g class="legendlines"><path class="js-line" d="M5,0h30" style="fill: none; stroke: rgb(128, 0, 128); stroke-opacity: 1; stroke-width: 2px;"/></g><g class="legendsymbols"><g class="legendpoints"/></g></g><rect class="legendtoggle" x="0" y="-9.5" width="122.71875" height="19" style="fill: rgb(0, 0, 0); fill-opacity: 0;"/></g><g class="traces" transform="translate(0,109.5)" style="opacity: 1;"><text class="legendtext" text-anchor="start" x="40" y="4.680000000000001" style="font-family: 'Open Sans', verdana, arial, sans-serif; font-size: 12px; fill: rgb(42, 63, 95); fill-opacity: 1; white-space: pre;">Test Recall</text><g class="layers" style="opacity: 1;"><g class="legendfill"/><g class="legendlines"><path class="js-line" d="M5,0h30" style="fill: none; stroke: rgb(255, 192, 203); stroke-opacity: 1; stroke-width: 2px;"/></g><g class="legendsymbols"><g class="legendpoints"/></g></g><rect class="legendtoggle" x="0" y="-9.5" width="122.71875" height="19" style="fill: rgb(0, 0, 0); fill-opacity: 0;"/></g><g class="traces" transform="translate(0,128.5)" style="opacity: 1;"><text class="legendtext" text-anchor="start" x="40" y="4.680000000000001" style="font-family: 'Open Sans', verdana, arial, sans-serif; font-size: 12px; fill: rgb(42, 63, 95); fill-opacity: 1; white-space: pre;">Train F1</text><g class="layers" style="opacity: 1;"><g class="legendfill"/><g class="legendlines"><path class="js-line" d="M5,0h30" style="fill: none; stroke: rgb(165, 42, 42); stroke-opacity: 1; stroke-width: 2px;"/></g><g class="legendsymbols"><g class="legendpoints"/></g></g><rect class="legendtoggle" x="0" y="-9.5" width="122.71875" height="19" style="fill: rgb(0, 0, 0); fill-opacity: 0;"/></g><g class="traces" transform="translate(0,147.5)" style="opacity: 1;"><text class="legendtext" text-anchor="start" x="40" y="4.680000000000001" style="font-family: 'Open Sans', verdana, arial, sans-serif; font-size: 12px; fill: rgb(42, 63, 95); fill-opacity: 1; white-space: pre;">Test F1</text><g class="layers" style="opacity: 1;"><g class="legendfill"/><g class="legendlines"><path class="js-line" d="M5,0h30" style="fill: none; stroke: rgb(128, 128, 128); stroke-opacity: 1; stroke-width: 2px;"/></g><g class="legendsymbols"><g class="legendpoints"/></g></g><rect class="legendtoggle" x="0" y="-9.5" width="122.71875" height="19" style="fill: rgb(0, 0, 0); fill-opacity: 0;"/></g></g></g><rect class="scrollbar" rx="20" ry="3" width="0" height="0" x="0" y="0" style="fill: rgb(128, 139, 164); fill-opacity: 1;"/></g><g class="g-gtitle"><text class="gtitle" x="51.2" y="50" text-anchor="start" dy="0em" style="font-family: 'Open Sans', verdana, arial, sans-serif; font-size: 17px; fill: rgb(42, 63, 95); opacity: 1; font-weight: normal; white-space: pre;">Training Metrics - logs/FakeNewsNet-politifact_max-vocab=15000_pre=v2_text_domain_T=150_s=15.log</text></g><g class="g-xtitle"><text class="xtitle" x="506" y="537.3" text-anchor="middle" style="font-family: 'Open Sans', verdana, arial, sans-serif; font-size: 14px; fill: rgb(42, 63, 95); opacity: 1; font-weight: normal; white-space: pre;">Epoch</text></g><g class="g-ytitle"><text class="ytitle" transform="rotate(-90,103.965625,298)" x="103.965625" y="298" text-anchor="middle" style="font-family: 'Open Sans', verdana, arial, sans-serif; font-size: 14px; fill: rgb(42, 63, 95); opacity: 1; font-weight: normal; white-space: pre;">Metric Score</text></g></g><g class="menulayer"><g class="updatemenu-container" style="cursor: pointer;"><g class="updatemenu-header-group" transform="translate(12,60)"><g class="updatemenu-header" transform="translate(1,1)" style="pointer-events: all;"><rect class="updatemenu-item-rect" rx="2" ry="2" shape-rendering="crispEdges" x="0" y="0" width="167" height="33" style="stroke: rgb(190, 200, 217); stroke-opacity: 1; fill: rgb(255, 255, 255); fill-opacity: 1; stroke-width: 1px;"/><text class="updatemenu-item-text" text-anchor="start" data-notex="1" x="12" y="19.5" style="font-family: 'Open Sans', verdana, arial, sans-serif; font-size: 12px; fill: rgb(42, 63, 95); fill-opacity: 1; white-space: pre;">All</text></g><text class="updatemenu-header-arrow" text-anchor="end" x="163" y="19.5" style="font-family: 'Open Sans', verdana, arial, sans-serif; font-size: 12px; fill: rgb(42, 63, 95); fill-opacity: 1;">▼</text></g><g class="updatemenu-dropdown-button-group" updatemenu-active-index="-1" style="pointer-events: all;"><rect class="scrollbox-bg" opacity="0" x="0" y="0" width="0" height="0" style="pointer-events: all;"/></g></g></g></svg>