<svg class="main-svg" xmlns="http://www.w3.org/2000/svg" xmlns:xlink="http://www.w3.org/1999/xlink" width="1024" height="576" style="" viewBox="0 0 1024 576"><rect x="0" y="0" width="1024" height="576" style="fill: rgb(255, 255, 255); fill-opacity: 1;"/><defs id="defs-d3a44e"><g class="clips"><clipPath id="clipd3a44exyplot" class="plotclip"><rect width="726" height="396"/></clipPath><clipPath class="axesclip" id="clipd3a44ex"><rect x="143" y="0" width="726" height="576"/></clipPath><clipPath class="axesclip" id="clipd3a44ey"><rect x="0" y="100" width="1024" height="396"/></clipPath><clipPath class="axesclip" id="clipd3a44exy"><rect x="143" y="100" width="726" height="396"/></clipPath></g><g class="gradients"/><g class="patterns"/></defs><g class="bglayer"><rect class="bg" x="143" y="100" width="726" height="396" style="fill: rgb(229, 236, 246); fill-opacity: 1; stroke-width: 0;"/></g><g class="layer-below"><g class="imagelayer"/><g class="shapelayer"/></g><g class="cartesianlayer"><g class="subplot xy"><g class="layer-subplot"><g class="shapelayer"/><g class="imagelayer"/></g><g class="minor-gridlayer"><g class="x"/><g class="y"/></g><g class="gridlayer"><g class="x"><path class="xgrid crisp" transform="translate(235.57999999999998,0)" d="M0,100v396" style="stroke: rgb(255, 255, 255); stroke-opacity: 1; stroke-width: 1px;"/><path class="xgrid crisp" transform="translate(333.03,0)" d="M0,100v396" style="stroke: rgb(255, 255, 255); stroke-opacity: 1; stroke-width: 1px;"/><path class="xgrid crisp" transform="translate(430.48,0)" d="M0,100v396" style="stroke: rgb(255, 255, 255); stroke-opacity: 1; stroke-width: 1px;"/><path class="xgrid crisp" transform="translate(527.9300000000001,0)" d="M0,100v396" style="stroke: rgb(255, 255, 255); stroke-opacity: 1; stroke-width: 1px;"/><path class="xgrid crisp" transform="translate(625.38,0)" d="M0,100v396" style="stroke: rgb(255, 255, 255); stroke-opacity: 1; stroke-width: 1px;"/><path class="xgrid crisp" transform="translate(722.83,0)" d="M0,100v396" style="stroke: rgb(255, 255, 255); stroke-opacity: 1; stroke-width: 1px;"/><path class="xgrid crisp" transform="translate(820.28,0)" d="M0,100v396" style="stroke: rgb(255, 255, 255); stroke-opacity: 1; stroke-width: 1px;"/></g><g class="y"><path class="ygrid crisp" transform="translate(0,457.53)" d="M143,0h726" style="stroke: rgb(255, 255, 255); stroke-opacity: 1; stroke-width: 1px;"/><path class="ygrid crisp" transform="translate(0,374.91)" d="M143,0h726" style="stroke: rgb(255, 255, 255); stroke-opacity: 1; stroke-width: 1px;"/><path class="ygrid crisp" transform="translate(0,292.3)" d="M143,0h726" style="stroke: rgb(255, 255, 255); stroke-opacity: 1; stroke-width: 1px;"/><path class="ygrid crisp" transform="translate(0,209.68)" d="M143,0h726" style="stroke: rgb(255, 255, 255); stroke-opacity: 1; stroke-width: 1px;"/><path class="ygrid crisp" transform="translate(0,127.07)" d="M143,0h726" style="stroke: rgb(255, 255, 255); stroke-opacity: 1; stroke-width: 1px;"/></g></g><g class="zerolinelayer"/><path class="xlines-below"/><path class="ylines-below"/><g class="overlines-below"/><g class="xaxislayer-below"/><g class="yaxislayer-below"/><g class="overaxes-below"/><g class="plot" transform="translate(143,100)" clip-path="url(#clipd3a44exyplot)"><g class="scatterlayer mlayer"><g class="trace scatter trace4c2e2f" style="stroke-miterlimit: 2; opacity: 1;"><g class="fills"/><g class="errorbars"/><g class="lines"><path class="js-line" d="M0,290.61L4.87,227.99L9.74,294.41L14.62,290.61L19.49,200.56L24.36,173.13L29.23,161.4L34.11,159.42L38.98,135.96L43.85,178.92L48.72,169.17L53.6,131.99L58.47,133.97L63.34,157.44L68.21,157.44L73.09,128.03L77.96,131.99L82.83,118.28L87.7,118.28L92.58,118.28L97.45,110.51L102.32,110.51L107.19,112.49L112.07,106.55L116.94,106.55L121.81,108.53L126.68,116.29L131.56,102.58L136.43,104.56L141.3,100.6L146.17,102.58L151.05,98.78L155.92,102.58L160.79,96.8L165.66,96.8L170.54,104.56L175.41,104.56L180.28,104.56L185.15,108.53L190.03,114.31L194.9,118.28L199.77,180.9L204.64,106.55L209.52,104.56L214.39,98.78L219.26,100.6L224.13,104.56L229.01,98.78L233.88,100.6L238.75,94.81L243.62,90.85L248.5,90.85L253.37,85.07L258.24,94.81L263.11,92.83L267.99,85.07L272.86,90.85L277.73,83.08L282.6,92.83L292.35,88.87L297.22,85.07L302.09,87.05L306.97,87.05L311.84,83.08L316.71,83.08L321.58,81.1L326.46,90.85L331.33,96.8L336.2,85.07L341.07,83.08L345.95,88.87L355.69,77.13L360.56,83.08L365.44,85.07L370.31,83.08L384.93,88.87L389.8,85.07L394.67,96.8L399.54,83.08L404.42,85.07L409.29,83.08L414.16,75.15L419.03,75.15L423.91,83.08L428.78,81.1L433.65,69.37L438.52,79.12L443.4,67.39L448.27,67.39L453.14,71.35L458.01,67.39L467.76,59.62L472.63,59.62L477.5,71.35L482.38,67.39L487.25,77.13L492.12,81.1L496.99,69.37L501.87,77.13L506.74,85.07L511.61,79.12L516.48,77.13L521.36,67.39L526.23,71.35L531.1,77.13L535.97,69.37L540.85,65.4L545.72,65.4L550.59,71.35L555.46,92.83L560.34,175.12L565.21,149.67L570.08,143.72L574.95,141.74L579.83,69.37L589.57,73.33L594.44,145.7L599.32,149.67L604.19,67.39L609.06,69.37L613.93,67.39L618.81,73.33L623.68,75.15L628.55,79.12L633.42,143.72L638.3,141.74L643.17,141.74L648.04,59.62L652.91,61.6L657.79,53.67L662.66,55.65L667.53,63.42L672.4,61.6L677.28,73.33L682.15,57.64L687.02,59.62L691.89,63.42L696.77,65.4L701.64,65.4L706.51,75.15L711.38,67.39L721.13,63.42L726,67.39" style="vector-effect: none; fill: none; stroke: rgb(255, 0, 0); stroke-opacity: 1; stroke-width: 2px; opacity: 1;"/></g><g class="points"/><g class="text"/></g><g class="trace scatter trace51ea73" style="stroke-miterlimit: 2; opacity: 1;"><g class="fills"/><g class="errorbars"/><g class="lines"><path class="js-line" d="M0,267.15L4.87,204.69L9.74,360.67L14.62,376.2L19.49,150.17L24.36,150.17L29.23,157.93L34.11,212.62L38.98,150.17L43.85,181.39L48.72,181.39L53.6,150.17L58.47,150.17L63.34,173.63L68.21,212.62L73.09,165.86L77.96,157.93L82.83,142.4L87.7,157.93L92.58,165.86L97.45,165.86L102.32,142.4L107.19,150.17L116.94,150.17L121.81,142.4L131.56,142.4L136.43,165.86L141.3,173.63L146.17,157.93L151.05,165.86L155.92,165.86L160.79,181.39L165.66,165.86L175.41,165.86L180.28,134.63L185.15,134.63L190.03,150.17L194.9,150.17L199.77,313.91L204.64,150.17L209.52,157.93L214.39,150.17L219.26,150.17L224.13,142.4L229.01,165.86L233.88,142.4L238.75,126.87L243.62,119.1L248.5,103.41L263.11,150.17L267.99,111.17L272.86,150.17L277.73,134.63L282.6,142.4L287.48,134.63L297.22,150.17L302.09,142.4L306.97,126.87L311.84,142.4L321.58,126.87L326.46,150.17L336.2,150.17L341.07,157.93L345.95,173.63L350.82,142.4L355.69,157.93L360.56,142.4L365.44,157.93L370.31,157.93L375.18,142.4L380.05,150.17L384.93,150.17L389.8,134.63L394.67,157.93L399.54,157.93L409.29,157.93L414.16,150.17L419.03,157.93L423.91,134.63L433.65,119.1L438.52,150.17L443.4,126.87L448.27,111.17L453.14,134.63L458.01,126.87L467.76,126.87L472.63,142.4L477.5,134.63L482.38,134.63L487.25,150.17L492.12,150.17L496.99,111.17L501.87,134.63L506.74,126.87L511.61,126.87L516.48,142.4L521.36,134.63L526.23,126.87L531.1,126.87L535.97,126.87L540.85,134.63L545.72,126.87L550.59,134.63L555.46,157.93L560.34,313.91L565.21,282.68L570.08,267.15L574.95,274.91L579.83,157.93L589.57,142.4L594.44,290.45L599.32,298.38L604.19,150.17L609.06,142.4L613.93,150.17L618.81,157.93L623.68,150.17L628.55,142.4L633.42,298.38L638.3,298.38L643.17,290.45L648.04,126.87L652.91,126.87L657.79,150.17L662.66,142.4L667.53,157.93L672.4,165.86L677.28,157.93L682.15,142.4L687.02,150.17L691.89,111.17L696.77,150.17L701.64,157.93L706.51,142.4L711.38,142.4L716.26,142.4L721.13,150.17L726,165.86" style="vector-effect: none; fill: none; stroke: rgb(0, 0, 255); stroke-opacity: 1; stroke-width: 2px; opacity: 1;"/></g><g class="points"/><g class="text"/></g><g class="trace scatter tracedcfea1" style="stroke-miterlimit: 2; opacity: 1;"><g class="fills"/><g class="errorbars"/><g class="lines"><path class="js-line" d="M0,297.55L4.87,236.91L9.74,248.31L14.62,239.39L19.49,202.54L29.23,131.16L34.11,159.58L38.98,122.24L43.85,183.21L48.72,173.13L53.6,121.25L58.47,124.89L63.34,157.77L68.21,162.56L73.09,120.09L77.96,121.25L82.83,92.34L87.7,96.8L92.58,92.34L97.45,83.41L102.32,83.41L107.19,88.04L112.07,80.6L116.94,87.71L121.81,85.07L126.68,104.07L131.56,87.21L136.43,90.02L141.3,86.88L146.17,89.53L151.05,80.27L155.92,81.93L160.79,80.11L165.66,77.47L170.54,88.7L175.41,93.33L180.28,93.33L185.15,101.75L190.03,106.55L194.9,113.65L199.77,159.58L204.64,100.1L209.52,95.48L214.39,91.67L219.26,89.03L224.13,93.33L229.01,91.67L233.88,81.76L238.75,77.3L243.62,70.19L248.5,70.19L253.37,46.57L258.24,53.18L263.11,53.84L267.99,60.12L272.86,68.87L277.73,61.6L282.6,64.25L287.48,76.64L292.35,67.39L297.22,60.12L302.09,63.09L306.97,67.22L311.84,58.63L316.71,64.25L321.58,66.56L326.46,85.07L331.33,91.84L336.2,73.17L341.07,71.52L345.95,78.46L350.82,72.67L355.69,55.65L360.56,61.6L365.44,58.46L370.31,60.12L375.18,63.09L380.05,67.22L384.93,70.19L389.8,74.33L394.67,84.9L399.54,60.12L404.42,61.6L409.29,54L414.16,32.36L419.03,38.14L423.91,45.25L428.78,60.12L433.65,35.83L438.52,42.6L443.4,32.69L448.27,41.11L453.14,51.36L458.01,42.6L462.89,38.14L467.76,32.36L472.63,30.71L477.5,42.27L482.38,42.6L492.12,66.56L496.99,42.44L501.87,52.85L506.74,68.38L511.61,62.59L516.48,62.26L521.36,42.6L526.23,43.92L531.1,39.46L535.97,30.37L540.85,29.55L545.72,31.37L550.59,48.38L555.46,87.54L560.34,154.3L565.21,137.94L570.08,132.49L574.95,137.11L579.83,42.44L584.7,48.38L589.57,51.36L594.44,133.97L599.32,137.94L604.19,46.9L609.06,52.52L613.93,45.58L618.81,54.17L623.68,56.98L628.55,65.07L633.42,132.49L638.3,131.99L643.17,133.81L648.04,30.71L652.91,33.68L657.79,19.8L662.66,21.12L667.53,31.7L672.4,26.9L677.28,49.87L682.15,20.63L687.02,23.77L691.89,28.23L696.77,41.11L701.64,41.11L706.51,58.3L711.38,48.38L716.26,38.14L721.13,33.51L726,41.11" style="vector-effect: none; fill: none; stroke: rgb(0, 128, 0); stroke-opacity: 1; stroke-width: 2px; opacity: 1;"/></g><g class="points"/><g class="text"/></g><g class="trace scatter trace2e5c6f" style="stroke-miterlimit: 2; opacity: 1;"><g class="fills"/><g class="errorbars"/><g class="lines"><path class="js-line" d="M0,278.22L4.87,229.64L9.74,274.09L14.62,282.02L19.49,171.32L24.36,165.2L29.23,166.03L34.11,239.06L38.98,165.2L43.85,205.02L48.72,205.68L53.6,171.32L58.47,169.66L63.34,197.92L68.21,235.92L73.09,188.17L77.96,180.24L82.83,151.65L87.7,177.43L97.45,182.72L102.32,151.65L107.19,165.2L112.07,158.92L116.94,165.2L121.81,155.12L126.68,162.06L131.56,162.06L136.43,186.68L141.3,196.93L146.17,180.24L151.05,186.68L155.92,185.03L160.79,202.21L165.66,182.72L170.54,182.72L175.41,188.17L180.28,154.46L185.15,155.62L190.03,172.31L194.9,172.31L199.77,264.67L204.64,172.31L209.52,180.24L214.39,171.32L219.26,169.66L224.13,162.06L229.01,188.99L233.88,155.12L238.75,133.81L248.5,104.73L253.37,118.28L263.11,145.04L267.99,119.76L272.86,165.2L277.73,144.55L282.6,147.85L287.48,144.55L297.22,158.92L302.09,151.65L306.97,137.44L311.84,151.65L316.71,144.55L321.58,140.58L326.46,171.32L331.33,172.31L336.2,171.32L341.07,179.08L345.95,195.93L350.82,157.93L355.69,172.64L360.56,151.65L365.44,169.66L370.31,169.66L375.18,151.65L380.05,162.39L384.93,165.2L389.8,150.5L394.67,177.43L399.54,172.64L404.42,169.66L409.29,172.64L414.16,158.92L419.03,172.64L423.91,131.66L428.78,140.58L433.65,126.87L438.52,154.79L443.4,129.68L448.27,123.07L453.14,147.85L458.01,137.44L462.89,137.44L467.76,140.58L472.63,155.12L477.5,140.91L482.38,144.55L487.25,165.2L492.12,171.32L496.99,119.76L501.87,150.5L506.74,143.06L511.61,143.06L516.48,162.06L521.36,144.55L526.23,133.81L531.1,129.68L535.97,129.68L540.85,140.91L545.72,133.81L550.59,147.85L555.46,181.39L560.34,271.44L565.21,252.44L570.08,242.53L574.95,258.56L579.83,172.64L584.7,165.2L589.57,157.93L594.44,263.35L599.32,274.09L604.19,167.68L609.06,160.25L613.93,167.68L618.81,177.43L623.68,167.68L628.55,160.25L633.42,274.09L638.3,274.09L643.17,268.97L648.04,140.58L652.91,140.58L657.79,162.39L662.66,147.85L667.53,172.64L672.4,180.07L677.28,177.43L682.15,155.12L687.02,158.92L691.89,115.96L696.77,165.2L701.64,172.64L706.51,157.93L711.38,157.93L716.26,155.12L721.13,162.39L726,180.07" style="vector-effect: none; fill: none; stroke: rgb(255, 165, 0); stroke-opacity: 1; stroke-width: 2px; opacity: 1;"/></g><g class="points"/><g class="text"/></g><g class="trace scatter tracefa428b" style="stroke-miterlimit: 2; opacity: 1;"><g class="fills"/><g class="errorbars"/><g class="lines"><path class="js-line" d="M0,288.79L4.87,241.87L9.74,255.75L14.62,249.8L19.49,222.87L24.36,201.22L29.23,199.4L34.11,179.58L38.98,163.88L43.85,196.43L48.72,186.19L53.6,157.93L58.47,159.09L63.34,177.26L68.21,171.48L73.09,151.98L77.96,157.93L82.83,150.66L87.7,148.84L92.58,150.66L97.45,142.73L102.32,142.73L107.19,143.72L112.07,137.94L116.94,134.8L121.81,139.1L126.68,141.9L131.56,128.85L136.43,130.5L141.3,125.88L146.17,127.53L151.05,126.04L155.92,131.33L160.79,123.07L165.66,124.39L170.54,131.16L175.41,128.52L180.28,128.52L185.15,130.01L190.03,136.95L194.9,139.1L199.77,152.15L204.64,127.69L209.52,127.2L214.39,119.6L224.13,128.52L229.01,119.6L233.88,128.36L238.75,121.42L243.62,118.77L248.5,118.77L253.37,119.43L258.24,131.16L263.11,128.19L267.99,114.31L272.86,119.27L277.73,110.68L282.6,124.23L287.48,115.47L292.35,116.95L297.22,114.31L302.09,115.96L306.97,113.98L316.71,109.35L321.58,105.06L331.33,115.96L336.2,107.87L341.07,105.55L345.95,111.17L350.82,104.89L355.69,104.23L360.56,110.68L365.44,114.97L370.31,111.34L375.18,112.99L384.93,115.63L389.8,107.21L394.67,120.59L399.54,111.34L404.42,113.65L409.29,113.82L414.16,110.35L419.03,108.53L423.91,117.12L428.78,108.36L433.65,100.76L438.52,112.49L443.4,99.11L448.27,95.81L453.14,97.29L458.01,95.14L467.76,87.87L472.63,88.54L477.5,101.26L482.38,95.14L487.25,104.89L492.12,105.06L496.99,98.28L501.87,105.55L506.74,110.35L511.61,104.07L516.48,101.09L521.36,95.14L526.23,100.6L531.1,110.84L535.97,102.75L540.85,97.46L545.72,96.8L550.59,98.61L555.46,112L560.34,146.53L565.21,125.88L570.08,120.09L574.95,123.07L579.83,98.28L584.7,98.61L589.57,100.27L594.44,121.91L599.32,125.88L604.19,93.33L609.06,93.66L613.93,93.99L618.81,98.94L628.55,102.75L633.42,120.09L638.3,119.1L643.17,120.42L648.04,88.54L652.91,90.19L657.79,84.07L662.66,86.39L667.53,93.82L672.4,92.83L677.28,100.93L682.15,89.36L687.02,91.01L691.89,95.14L696.77,92.83L701.64,92.83L706.51,100.1L711.38,92.67L716.26,94.15L721.13,93.16L726,95.81" style="vector-effect: none; fill: none; stroke: rgb(128, 0, 128); stroke-opacity: 1; stroke-width: 2px; opacity: 1;"/></g><g class="points"/><g class="text"/></g><g class="trace scatter traceb315f7" style="stroke-miterlimit: 2; opacity: 1;"><g class="fills"/><g class="errorbars"/><g class="lines"><path class="js-line" d="M0,248.81L4.87,212.79L9.74,274.09L14.62,286.48L19.49,174.12L24.36,187.34L29.23,206.84L34.11,232.29L38.98,187.34L43.85,185.36L48.72,189.82L53.6,174.12L58.47,178.42L63.34,188.17L68.21,214.61L73.09,190.81L77.96,180.24L82.83,185.53L87.7,188.99L92.58,208.49L97.45,204.03L102.32,185.53L107.19,187.34L112.07,196.27L116.94,187.34L121.81,181.23L126.68,167.85L131.56,167.85L136.43,195.27L141.3,196.93L146.17,180.24L151.05,195.27L155.92,199.73L160.79,216.42L165.66,204.03L170.54,204.03L175.41,190.81L180.28,157.27L185.15,152.81L190.03,169.66L194.9,169.66L199.77,246L204.64,169.66L209.52,180.24L214.39,174.12L219.26,178.42L224.13,167.85L229.01,186.35L233.88,181.23L238.75,168.84L243.62,167.02L248.5,145.87L253.37,167.02L263.11,209.48L267.99,147.69L272.86,187.34L277.73,174.95L282.6,189.99L287.48,174.95L297.22,196.27L302.09,185.53L306.97,164.38L311.84,185.53L316.71,174.95L321.58,159.91L326.46,174.12L331.33,169.66L336.2,174.12L341.07,184.7L345.95,201.39L350.82,176.77L355.69,197.92L360.56,185.53L365.44,202.38L370.31,202.38L375.18,185.53L380.05,191.8L384.93,187.34L389.8,166.19L394.67,188.99L399.54,197.92L404.42,202.38L409.29,197.92L414.16,196.27L419.03,197.92L423.91,188.33L428.78,159.91L433.65,158.26L438.52,200.56L448.27,143.23L453.14,170.65L458.01,164.38L462.89,164.38L467.76,159.91L472.63,181.23L477.5,179.41L482.38,174.95L487.25,187.34L492.12,174.12L496.99,147.69L501.87,166.19L506.74,155.62L511.61,155.62L516.48,167.85L521.36,174.95L526.23,168.84L531.1,173.3L535.97,173.3L540.85,179.41L545.72,168.84L550.59,170.65L555.46,171.32L560.34,250.46L565.21,225.68L570.08,213.45L574.95,228.48L579.83,197.92L589.57,176.77L594.44,236.42L599.32,246.99L604.19,182.88L609.06,172.31L613.93,182.88L618.81,188.99L623.68,182.88L628.55,172.31L633.42,246.99L638.3,246.99L643.17,240.71L648.04,159.91L652.91,159.91L657.79,191.8L662.66,189.99L667.53,197.92L672.4,208.49L677.28,188.99L682.15,181.23L687.02,196.27L691.89,152.15L696.77,187.34L701.64,197.92L706.51,176.77L711.38,176.77L716.26,181.23L721.13,191.8L726,208.49" style="vector-effect: none; fill: none; stroke: rgb(255, 192, 203); stroke-opacity: 1; stroke-width: 2px; opacity: 1;"/></g><g class="points"/><g class="text"/></g><g class="trace scatter trace3c95c0" style="stroke-miterlimit: 2; opacity: 1;"><g class="fills"/><g class="errorbars"/><g class="lines"><path class="js-line" d="M0,296.06L4.87,239.72L9.74,294.74L14.62,290.94L19.49,216.09L24.36,190.98L29.23,185.19L34.11,172.64L38.98,152.15L43.85,191.47L48.72,181.06L53.6,147.03L58.47,148.68L63.34,170.49L68.21,167.85L73.09,142.07L77.96,147.03L82.83,136.12L87.7,135.13L92.58,136.12L97.45,127.69L102.32,127.69L107.19,129.35L112.07,123.23L116.94,121.58L121.81,124.72L126.68,130.5L131.56,116.46L136.43,118.44L141.3,113.98L146.17,115.96L151.05,112.99L155.92,117.78L160.79,110.51L165.66,111.01L170.54,118.77L175.41,117.62L180.28,117.62L185.15,120.59L190.03,127.2L194.9,130.34L199.77,181.06L204.64,118.28L209.52,116.95L214.39,110.18L224.13,117.62L229.01,110.18L233.88,115.14L238.75,108.53L243.62,104.89L248.5,104.89L253.37,101.92L258.24,113.32L263.11,110.68L267.99,99.44L272.86,105.22L277.73,96.63L282.6,108.69L287.48,103.57L292.35,103.08L297.22,99.44L302.09,101.42L306.97,100.43L311.84,97.29L316.71,96.14L321.58,93L326.46,101.42L331.33,107.37L336.2,96.63L341.07,94.48L345.95,100.6L350.82,94.15L355.69,90.35L360.56,96.63L365.44,99.77L370.31,96.96L375.18,98.94L384.93,102.41L389.8,96.47L394.67,109.35L399.54,96.96L404.42,99.11L409.29,98.12L414.16,91.84L419.03,91.01L423.91,99.61L428.78,94.48L433.65,83.91L438.52,95.14L443.4,81.93L448.27,80.6L453.14,83.58L458.01,80.27L467.76,72.18L472.63,72.51L477.5,85.23L482.38,80.27L487.25,90.52L492.12,93L496.99,82.75L501.87,90.85L506.74,97.79L511.61,91.34L516.48,88.87L521.36,80.27L526.23,85.07L531.1,93.16L535.97,84.74L540.85,79.94L545.72,79.78L550.59,84.24L555.46,103.41L560.34,175.28L565.21,150.17L570.08,144.38L574.95,143.06L579.83,82.75L589.57,86.06L594.44,146.37L599.32,150.17L604.19,79.45L609.06,80.93L613.93,79.78L618.81,85.56L623.68,87.54L628.55,90.85L633.42,144.38L638.3,142.57L643.17,142.73L648.04,72.51L652.91,74.49L657.79,66.89L662.66,69.04L667.53,77.13L672.4,75.48L677.28,86.39L682.15,71.68L687.02,73.5L691.89,77.8L701.64,78.13L706.51,87.21L711.38,79.28L716.26,78.62L721.13,76.97L726,80.6" style="vector-effect: none; fill: none; stroke: rgb(165, 42, 42); stroke-opacity: 1; stroke-width: 2px; opacity: 1;"/></g><g class="points"/><g class="text"/></g><g class="trace scatter trace1be432" style="stroke-miterlimit: 2; opacity: 1;"><g class="fills"/><g class="errorbars"/><g class="lines"><path class="js-line" d="M0,277.89L4.87,223.36L9.74,360.67L14.62,376.2L19.49,172.64L24.36,178.09L29.23,191.97L34.11,235.92L38.98,178.09L43.85,197.92L48.72,199.4L53.6,172.64L58.47,174.45L63.34,193.62L68.21,229.15L73.09,189.49L77.96,180.24L82.83,172.47L87.7,183.87L92.58,197.42L97.45,195.27L102.32,172.47L107.19,178.09L112.07,182.22L116.94,178.09L121.81,170.49L126.68,165.04L131.56,165.04L136.43,191.31L141.3,196.93L146.17,180.24L151.05,191.31L155.92,193.29L160.79,210.31L165.66,195.27L170.54,195.27L175.41,189.49L180.28,155.95L185.15,154.3L190.03,170.98L194.9,170.98L199.77,314.9L204.64,170.98L209.52,180.24L214.39,172.64L219.26,174.45L224.13,165.04L229.01,187.67L233.88,170.49L238.75,155.29L243.62,149.51L248.5,130.34L253.37,149.51L263.11,188.99L267.99,136.29L272.86,178.09L277.73,162.89L282.6,174.62L287.48,162.89L297.22,182.22L302.09,172.47L306.97,153.47L311.84,172.47L316.71,162.89L321.58,151.65L326.46,172.64L331.33,170.98L336.2,172.64L341.07,181.89L345.95,198.74L350.82,168.67L355.69,187.67L360.56,172.47L365.44,189.82L370.31,189.82L375.18,172.47L380.05,180.07L384.93,178.09L389.8,159.25L394.67,183.87L399.54,187.67L404.42,189.82L409.29,187.67L414.16,182.22L419.03,187.67L428.78,151.65L433.65,145.7L438.52,184.37L443.4,157.27L448.27,134.63L453.14,161.07L458.01,153.47L462.89,153.47L467.76,151.65L472.63,170.49L477.5,164.87L482.38,162.89L487.25,178.09L492.12,172.64L496.99,136.29L501.87,159.25L506.74,149.84L511.61,149.84L516.48,165.04L521.36,162.89L526.23,155.29L531.1,157.27L535.97,157.27L540.85,164.87L545.72,155.29L550.59,161.07L555.46,176.93L560.34,315.4L565.21,285.16L570.08,270.12L574.95,279.05L579.83,187.67L589.57,168.67L594.44,293.25L599.32,301.52L604.19,176.27L609.06,166.85L613.93,176.27L618.81,183.87L623.68,176.27L628.55,166.85L633.42,301.52L638.3,301.52L643.17,293.92L648.04,151.65L652.91,151.65L657.79,180.07L662.66,174.62L667.53,187.67L672.4,197.42L682.15,170.49L687.02,182.22L691.89,137.94L696.77,178.09L701.64,187.67L706.51,168.67L711.38,168.67L716.26,170.49L721.13,180.07L726,197.42" style="vector-effect: none; fill: none; stroke: rgb(128, 128, 128); stroke-opacity: 1; stroke-width: 2px; opacity: 1;"/></g><g class="points"/><g class="text"/></g></g></g><g class="overplot"/><path class="xlines-above crisp" d="M0,0" style="fill: none;"/><path class="ylines-above crisp" d="M0,0" style="fill: none;"/><g class="overlines-above"/><g class="xaxislayer-above"><g class="xtick"><text text-anchor="middle" x="0" y="509" transform="translate(235.57999999999998,0)" style="font-family: 'Open Sans', verdana, arial, sans-serif; font-size: 12px; fill: rgb(42, 63, 95); fill-opacity: 1; white-space: pre; opacity: 1;">20</text></g><g class="xtick"><text text-anchor="middle" x="0" y="509" style="font-family: 'Open Sans', verdana, arial, sans-serif; font-size: 12px; fill: rgb(42, 63, 95); fill-opacity: 1; white-space: pre; opacity: 1;" transform="translate(333.03,0)">40</text></g><g class="xtick"><text text-anchor="middle" x="0" y="509" style="font-family: 'Open Sans', verdana, arial, sans-serif; font-size: 12px; fill: rgb(42, 63, 95); fill-opacity: 1; white-space: pre; opacity: 1;" transform="translate(430.48,0)">60</text></g><g class="xtick"><text text-anchor="middle" x="0" y="509" style="font-family: 'Open Sans', verdana, arial, sans-serif; font-size: 12px; fill: rgb(42, 63, 95); fill-opacity: 1; white-space: pre; opacity: 1;" transform="translate(527.9300000000001,0)">80</text></g><g class="xtick"><text text-anchor="middle" x="0" y="509" style="font-family: 'Open Sans', verdana, arial, sans-serif; font-size: 12px; fill: rgb(42, 63, 95); fill-opacity: 1; white-space: pre; opacity: 1;" transform="translate(625.38,0)">100</text></g><g class="xtick"><text text-anchor="middle" x="0" y="509" style="font-family: 'Open Sans', verdana, arial, sans-serif; font-size: 12px; fill: rgb(42, 63, 95); fill-opacity: 1; white-space: pre; opacity: 1;" transform="translate(722.83,0)">120</text></g><g class="xtick"><text text-anchor="middle" x="0" y="509" style="font-family: 'Open Sans', verdana, arial, sans-serif; font-size: 12px; fill: rgb(42, 63, 95); fill-opacity: 1; white-space: pre; opacity: 1;" transform="translate(820.28,0)">140</text></g></g><g class="yaxislayer-above"><g class="ytick"><text text-anchor="end" x="142" y="4.199999999999999" transform="translate(0,457.53)" style="font-family: 'Open Sans', verdana, arial, sans-serif; font-size: 12px; fill: rgb(42, 63, 95); fill-opacity: 1; white-space: pre; opacity: 1;">70</text></g><g class="ytick"><text text-anchor="end" x="142" y="4.199999999999999" style="font-family: 'Open Sans', verdana, arial, sans-serif; font-size: 12px; fill: rgb(42, 63, 95); fill-opacity: 1; white-space: pre; opacity: 1;" transform="translate(0,374.91)">75</text></g><g class="ytick"><text text-anchor="end" x="142" y="4.199999999999999" style="font-family: 'Open Sans', verdana, arial, sans-serif; font-size: 12px; fill: rgb(42, 63, 95); fill-opacity: 1; white-space: pre; opacity: 1;" transform="translate(0,292.3)">80</text></g><g class="ytick"><text text-anchor="end" x="142" y="4.199999999999999" style="font-family: 'Open Sans', verdana, arial, sans-serif; font-size: 12px; fill: rgb(42, 63, 95); fill-opacity: 1; white-space: pre; opacity: 1;" transform="translate(0,209.68)">85</text></g><g class="ytick"><text text-anchor="end" x="142" y="4.199999999999999" style="font-family: 'Open Sans', verdana, arial, sans-serif; font-size: 12px; fill: rgb(42, 63, 95); fill-opacity: 1; white-space: pre; opacity: 1;" transform="translate(0,127.07)">90</text></g></g><g class="overaxes-above"/></g></g><g class="polarlayer"/><g class="smithlayer"/><g class="ternarylayer"/><g class="geolayer"/><g class="funnelarealayer"/><g class="pielayer"/><g class="iciclelayer"/><g class="treemaplayer"/><g class="sunburstlayer"/><g class="glimages"/><defs id="topdefs-d3a44e"><g class="clips"/><clipPath id="legendd3a44e"><rect width="128" height="162" x="0" y="0"/></clipPath></defs><g class="layer-above"><g class="imagelayer"/><g class="shapelayer"/></g><g class="infolayer"><g class="legend" pointer-events="all" transform="translate(883.52,100)"><rect class="bg" shape-rendering="crispEdges" width="128" height="162" x="0" y="0" style="stroke: rgb(68, 68, 68); stroke-opacity: 1; fill: rgb(255, 255, 255); fill-opacity: 1; stroke-width: 0px;"/><g class="scrollbox" transform="" clip-path="url(#legendd3a44e)"><g class="groups"><g class="traces" transform="translate(0,14.5)" style="opacity: 1;"><text class="legendtext" text-anchor="start" x="40" y="4.680000000000001" style="font-family: 'Open Sans', verdana, arial, sans-serif; font-size: 12px; fill: rgb(42, 63, 95); fill-opacity: 1; white-space: pre;">Train Accuracy</text><g class="layers" style="opacity: 1;"><g class="legendfill"/><g class="legendlines"><path class="js-line" d="M5,0h30" style="fill: none; stroke: rgb(255, 0, 0); stroke-opacity: 1; stroke-width: 2px;"/></g><g class="legendsymbols"><g class="legendpoints"/></g></g><rect class="legendtoggle" x="0" y="-9.5" width="122.71875" height="19" style="fill: rgb(0, 0, 0); fill-opacity: 0;"/></g><g class="traces" transform="translate(0,33.5)" style="opacity: 1;"><text class="legendtext" text-anchor="start" x="40" y="4.680000000000001" style="font-family: 'Open Sans', verdana, arial, sans-serif; font-size: 12px; fill: rgb(42, 63, 95); fill-opacity: 1; white-space: pre;">Test Accuracy</text><g class="layers" style="opacity: 1;"><g class="legendfill"/><g class="legendlines"><path class="js-line" d="M5,0h30" style="fill: none; stroke: rgb(0, 0, 255); stroke-opacity: 1; stroke-width: 2px;"/></g><g class="legendsymbols"><g class="legendpoints"/></g></g><rect class="legendtoggle" x="0" y="-9.5" width="122.71875" height="19" style="fill: rgb(0, 0, 0); fill-opacity: 0;"/></g><g class="traces" transform="translate(0,52.5)" style="opacity: 1;"><text class="legendtext" text-anchor="start" x="40" y="4.680000000000001" style="font-family: 'Open Sans', verdana, arial, sans-serif; font-size: 12px; fill: rgb(42, 63, 95); fill-opacity: 1; white-space: pre;">Train Precision</text><g class="layers" style="opacity: 1;"><g class="legendfill"/><g class="legendlines"><path class="js-line" d="M5,0h30" style="fill: none; stroke: rgb(0, 128, 0); stroke-opacity: 1; stroke-width: 2px;"/></g><g class="legendsymbols"><g class="legendpoints"/></g></g><rect class="legendtoggle" x="0" y="-9.5" width="122.71875" height="19" style="fill: rgb(0, 0, 0); fill-opacity: 0;"/></g><g class="traces" transform="translate(0,71.5)" style="opacity: 1;"><text class="legendtext" text-anchor="start" x="40" y="4.680000000000001" style="font-family: 'Open Sans', verdana, arial, sans-serif; font-size: 12px; fill: rgb(42, 63, 95); fill-opacity: 1; white-space: pre;">Test Precision</text><g class="layers" style="opacity: 1;"><g class="legendfill"/><g class="legendlines"><path class="js-line" d="M5,0h30" style="fill: none; stroke: rgb(255, 165, 0); stroke-opacity: 1; stroke-width: 2px;"/></g><g class="legendsymbols"><g class="legendpoints"/></g></g><rect class="legendtoggle" x="0" y="-9.5" width="122.71875" height="19" style="fill: rgb(0, 0, 0); fill-opacity: 0;"/></g><g class="traces" transform="translate(0,90.5)" style="opacity: 1;"><text class="legendtext" text-anchor="start" x="40" y="4.680000000000001" style="font-family: 'Open Sans', verdana, arial, sans-serif; font-size: 12px; fill: rgb(42, 63, 95); fill-opacity: 1; white-space: pre;">Train Recall</text><g class="layers" style="opacity: 1;"><g class="legendfill"/><g class="legendlines"><path class="js-line" d="M5,0h30" style="fill: none; stroke: rgb(128, 0, 128); stroke-opacity: 1; stroke-width: 2px;"/></g><g class="legendsymbols"><g class="legendpoints"/></g></g><rect class="legendtoggle" x="0" y="-9.5" width="122.71875" height="19" style="fill: rgb(0, 0, 0); fill-opacity: 0;"/></g><g class="traces" transform="translate(0,109.5)" style="opacity: 1;"><text class="legendtext" text-anchor="start" x="40" y="4.680000000000001" style="font-family: 'Open Sans', verdana, arial, sans-serif; font-size: 12px; fill: rgb(42, 63, 95); fill-opacity: 1; white-space: pre;">Test Recall</text><g class="layers" style="opacity: 1;"><g class="legendfill"/><g class="legendlines"><path class="js-line" d="M5,0h30" style="fill: none; stroke: rgb(255, 192, 203); stroke-opacity: 1; stroke-width: 2px;"/></g><g class="legendsymbols"><g class="legendpoints"/></g></g><rect class="legendtoggle" x="0" y="-9.5" width="122.71875" height="19" style="fill: rgb(0, 0, 0); fill-opacity: 0;"/></g><g class="traces" transform="translate(0,128.5)" style="opacity: 1;"><text class="legendtext" text-anchor="start" x="40" y="4.680000000000001" style="font-family: 'Open Sans', verdana, arial, sans-serif; font-size: 12px; fill: rgb(42, 63, 95); fill-opacity: 1; white-space: pre;">Train F1</text><g class="layers" style="opacity: 1;"><g class="legendfill"/><g class="legendlines"><path class="js-line" d="M5,0h30" style="fill: none; stroke: rgb(165, 42, 42); stroke-opacity: 1; stroke-width: 2px;"/></g><g class="legendsymbols"><g class="legendpoints"/></g></g><rect class="legendtoggle" x="0" y="-9.5" width="122.71875" height="19" style="fill: rgb(0, 0, 0); fill-opacity: 0;"/></g><g class="traces" transform="translate(0,147.5)" style="opacity: 1;"><text class="legendtext" text-anchor="start" x="40" y="4.680000000000001" style="font-family: 'Open Sans', verdana, arial, sans-serif; font-size: 12px; fill: rgb(42, 63, 95); fill-opacity: 1; white-space: pre;">Test F1</text><g class="layers" style="opacity: 1;"><g class="legendfill"/><g class="legendlines"><path class="js-line" d="M5,0h30" style="fill: none; stroke: rgb(128, 128, 128); stroke-opacity: 1; stroke-width: 2px;"/></g><g class="legendsymbols"><g class="legendpoints"/></g></g><rect class="legendtoggle" x="0" y="-9.5" width="122.71875" height="19" style="fill: rgb(0, 0, 0); fill-opacity: 0;"/></g></g></g><rect class="scrollbar" rx="20" ry="3" width="0" height="0" x="0" y="0" style="fill: rgb(128, 139, 164); fill-opacity: 1;"/></g><g class="g-gtitle"><text class="gtitle" x="51.2" y="50" text-anchor="start" dy="0em" style="font-family: 'Open Sans', verdana, arial, sans-serif; font-size: 17px; fill: rgb(42, 63, 95); opacity: 1; font-weight: normal; white-space: pre;">Training Metrics - logs/FakeNewsNet-politifact_max-vocab=15000_pre=v2_domain_T=150_s=15.log</text></g><g class="g-xtitle"><text class="xtitle" x="506" y="537.3" text-anchor="middle" style="font-family: 'Open Sans', verdana, arial, sans-serif; font-size: 14px; fill: rgb(42, 63, 95); opacity: 1; font-weight: normal; white-space: pre;">Epoch</text></g><g class="g-ytitle"><text class="ytitle" transform="rotate(-90,103.965625,298)" x="103.965625" y="298" text-anchor="middle" style="font-family: 'Open Sans', verdana, arial, sans-serif; font-size: 14px; fill: rgb(42, 63, 95); opacity: 1; font-weight: normal; white-space: pre;">Metric Score</text></g></g><g class="menulayer"><g class="updatemenu-container" style="cursor: pointer;"><g class="updatemenu-header-group" transform="translate(12,60)"><g class="updatemenu-header" transform="translate(1,1)" style="pointer-events: all;"><rect class="updatemenu-item-rect" rx="2" ry="2" shape-rendering="crispEdges" x="0" y="0" width="167" height="33" style="stroke: rgb(190, 200, 217); stroke-opacity: 1; fill: rgb(255, 255, 255); fill-opacity: 1; stroke-width: 1px;"/><text class="updatemenu-item-text" text-anchor="start" data-notex="1" x="12" y="19.5" style="font-family: 'Open Sans', verdana, arial, sans-serif; font-size: 12px; fill: rgb(42, 63, 95); fill-opacity: 1; white-space: pre;">All</text></g><text class="updatemenu-header-arrow" text-anchor="end" x="163" y="19.5" style="font-family: 'Open Sans', verdana, arial, sans-serif; font-size: 12px; fill: rgb(42, 63, 95); fill-opacity: 1;">▼</text></g><g class="updatemenu-dropdown-button-group" updatemenu-active-index="-1" style="pointer-events: all;"><rect class="scrollbox-bg" opacity="0" x="0" y="0" width="0" height="0" style="pointer-events: all;"/></g></g></g></svg>