<svg class="main-svg" xmlns="http://www.w3.org/2000/svg" xmlns:xlink="http://www.w3.org/1999/xlink" width="1024" height="576" style="" viewBox="0 0 1024 576"><rect x="0" y="0" width="1024" height="576" style="fill: rgb(255, 255, 255); fill-opacity: 1;"/><defs id="defs-75db6a"><g class="clips"><clipPath id="clip75db6axyplot" class="plotclip"><rect width="726" height="396"/></clipPath><clipPath class="axesclip" id="clip75db6ax"><rect x="143" y="0" width="726" height="576"/></clipPath><clipPath class="axesclip" id="clip75db6ay"><rect x="0" y="100" width="1024" height="396"/></clipPath><clipPath class="axesclip" id="clip75db6axy"><rect x="143" y="100" width="726" height="396"/></clipPath></g><g class="gradients"/><g class="patterns"/></defs><g class="bglayer"><rect class="bg" x="143" y="100" width="726" height="396" style="fill: rgb(229, 236, 246); fill-opacity: 1; stroke-width: 0;"/></g><g class="layer-below"><g class="imagelayer"/><g class="shapelayer"/></g><g class="cartesianlayer"><g class="subplot xy"><g class="layer-subplot"><g class="shapelayer"/><g class="imagelayer"/></g><g class="minor-gridlayer"><g class="x"/><g class="y"/></g><g class="gridlayer"><g class="x"><path class="xgrid crisp" transform="translate(209,0)" d="M0,100v396" style="stroke: rgb(255, 255, 255); stroke-opacity: 1; stroke-width: 1px;"/><path class="xgrid crisp" transform="translate(282.33000000000004,0)" d="M0,100v396" style="stroke: rgb(255, 255, 255); stroke-opacity: 1; stroke-width: 1px;"/><path class="xgrid crisp" transform="translate(355.66999999999996,0)" d="M0,100v396" style="stroke: rgb(255, 255, 255); stroke-opacity: 1; stroke-width: 1px;"/><path class="xgrid crisp" transform="translate(429,0)" d="M0,100v396" style="stroke: rgb(255, 255, 255); stroke-opacity: 1; stroke-width: 1px;"/><path class="xgrid crisp" transform="translate(502.33,0)" d="M0,100v396" style="stroke: rgb(255, 255, 255); stroke-opacity: 1; stroke-width: 1px;"/><path class="xgrid crisp" transform="translate(575.6700000000001,0)" d="M0,100v396" style="stroke: rgb(255, 255, 255); stroke-opacity: 1; stroke-width: 1px;"/><path class="xgrid crisp" transform="translate(649,0)" d="M0,100v396" style="stroke: rgb(255, 255, 255); stroke-opacity: 1; stroke-width: 1px;"/><path class="xgrid crisp" transform="translate(722.33,0)" d="M0,100v396" style="stroke: rgb(255, 255, 255); stroke-opacity: 1; stroke-width: 1px;"/><path class="xgrid crisp" transform="translate(795.67,0)" d="M0,100v396" style="stroke: rgb(255, 255, 255); stroke-opacity: 1; stroke-width: 1px;"/></g><g class="y"><path class="ygrid crisp" transform="translate(0,453.35)" d="M143,0h726" style="stroke: rgb(255, 255, 255); stroke-opacity: 1; stroke-width: 1px;"/><path class="ygrid crisp" transform="translate(0,375.39)" d="M143,0h726" style="stroke: rgb(255, 255, 255); stroke-opacity: 1; stroke-width: 1px;"/><path class="ygrid crisp" transform="translate(0,297.41999999999996)" d="M143,0h726" style="stroke: rgb(255, 255, 255); stroke-opacity: 1; stroke-width: 1px;"/><path class="ygrid crisp" transform="translate(0,219.45)" d="M143,0h726" style="stroke: rgb(255, 255, 255); stroke-opacity: 1; stroke-width: 1px;"/><path class="ygrid crisp" transform="translate(0,141.48)" d="M143,0h726" style="stroke: rgb(255, 255, 255); stroke-opacity: 1; stroke-width: 1px;"/></g></g><g class="zerolinelayer"/><path class="xlines-below"/><path class="ylines-below"/><g class="overlines-below"/><g class="xaxislayer-below"/><g class="yaxislayer-below"/><g class="overaxes-below"/><g class="plot" transform="translate(143,100)" clip-path="url(#clip75db6axyplot)"><g class="scatterlayer mlayer"><g class="trace scatter trace820735" style="stroke-miterlimit: 2; opacity: 1;"><g class="fills"/><g class="errorbars"/><g class="lines"><path class="js-line" d="M0,266.18L7.33,238.43L14.67,228.29L22,85.06L29.33,107.28L36.67,229.23L44,73.99L51.33,105.41L58.67,93.4L66,68.45L73.33,80.46L80.67,54.57L88,75.86L95.33,41.63L102.67,33.37L110,37.03L117.33,38.9L124.67,48.1L132,49.97L139.33,45.37L146.67,46.31L154,207.94L161.33,55.51L168.67,48.1L176,55.51L183.33,52.78L190.67,131.3L198,134.96L205.33,143.3L212.67,148.84L220,143.3L227.33,49.97L234.67,50.91L242,46.31L249.33,54.57L256.67,56.45L264,53.64L271.33,178.39L278.67,173.79L286,151.57L293.33,151.57L300.67,155.31L308,45.37L315.33,48.1L322.67,35.16L330,33.37L337.33,39.84L352,26.9L359.33,33.37L366.67,45.37L374,145.1L381.33,42.57L388.67,35.16L403.33,33.37L410.67,37.03L418,47.17L425.33,45.37L432.67,49.04L440,43.5L447.33,47.17L454.67,52.78L462,49.04L469.33,48.1L476.67,44.44L484,38.9L491.33,29.62L498.67,37.03L506,42.57L513.33,40.77L520.67,43.5L528,34.3L542.67,48.1L550,51.85L557.33,46.31L564.67,55.51L572,54.57L579.33,55.51L586.67,59.17L594,50.91L601.33,53.64L608.67,41.63L623.33,47.17L630.67,42.57L638,42.57L645.33,50.91L652.67,40.77L660,43.5L667.33,49.04L674.67,40.77L682,42.57L689.33,37.03L696.67,32.43L704,41.63L711.33,42.57L718.67,52.78L726,52.78" style="vector-effect: none; fill: none; stroke: rgb(255, 0, 0); stroke-opacity: 1; stroke-width: 2px; opacity: 1;"/></g><g class="points"/><g class="text"/></g><g class="trace scatter trace7150ac" style="stroke-miterlimit: 2; opacity: 1;"><g class="fills"/><g class="errorbars"/><g class="lines"><path class="js-line" d="M0,348.91L14.67,312.19L22,172.39L29.33,187.12L36.67,304.78L44,102.53L51.33,139.33L58.67,146.66L66,109.86L73.33,124.59L80.67,87.79L88,106.19L95.33,98.86L102.67,95.2L110,87.79L117.33,106.19L124.67,95.2L132,120.93L139.33,98.86L146.67,98.86L154,290.12L161.33,106.19L168.67,109.86L176,91.53L183.33,87.79L190.67,205.52L198,216.52L212.67,216.52L220,220.18L227.33,95.2L234.67,102.53L242,91.53L249.33,95.2L256.67,98.86L264,98.86L271.33,271.72L278.67,264.31L286,231.25L293.33,227.59L300.67,253.32L308,120.93L315.33,124.59L322.67,102.53L330,106.19L337.33,95.2L344.67,87.79L352,95.2L359.33,87.79L366.67,113.6L374,245.99L381.33,120.93L388.67,98.86L396,84.13L403.33,95.2L410.67,95.2L418,91.53L425.33,98.86L432.67,84.13L440,98.86L447.33,117.26L454.67,117.26L462,102.53L469.33,98.86L484,84.13L491.33,69.39L498.67,76.8L506,73.13L520.67,73.13L528,69.39L535.33,62.06L542.67,87.79L550,91.53L557.33,102.53L564.67,102.53L572,124.59L579.33,131.92L586.67,113.6L601.33,120.93L608.67,91.53L616,84.13L623.33,102.53L630.67,95.2L638,91.53L645.33,106.19L652.67,113.6L660,109.86L667.33,131.92L674.67,109.86L682,106.19L689.33,91.53L696.67,95.2L704,113.6L711.33,109.86L718.67,109.86L726,113.6" style="vector-effect: none; fill: none; stroke: rgb(0, 0, 255); stroke-opacity: 1; stroke-width: 2px; opacity: 1;"/></g><g class="points"/><g class="text"/></g><g class="trace scatter tracef05a25" style="stroke-miterlimit: 2; opacity: 1;"><g class="fills"/><g class="errorbars"/><g class="lines"><path class="js-line" d="M0,157.49L7.33,150.09L14.67,136.13L22,82.02L29.33,89.89L36.67,146.89L44,73.99L51.33,82.57L58.67,76.56L66,61.98L73.33,68.22L80.67,55.28L88,64.32L95.33,42.88L102.67,37.5L110,41.24L117.33,42.18L124.67,52.55L132,53.95L139.33,49.04L146.67,49.74L154,107.36L161.33,57.62L168.67,50.99L176,58.4L183.33,55.51L190.67,82.72L198,83.58L205.33,92.7L212.67,95.82L220,92.7L227.33,52.24L234.67,44.59L242,41.09L249.33,49.19L256.67,49.19L264,47.09L271.33,111.26L278.67,111.18L286,99.72L293.33,97.38L300.67,94.57L308,40.38L315.33,42.96L322.67,34.93L330,30.64L337.33,35.71L352,26.43L359.33,29.39L366.67,38.04L374,90.28L381.33,35L388.67,29.94L396,32.82L403.33,30.64L410.67,33.13L418,41.32L425.33,38.51L432.67,39.14L440,36.17L447.33,36.72L454.67,40.54L462,40.23L469.33,40.07L476.67,35.24L491.33,27.99L498.67,33.91L506,38.28L513.33,34.61L520.67,36.17L528,28.3L535.33,37.5L542.67,39.53L550,39.29L557.33,34.3L564.67,43.11L572,42.41L579.33,39.92L586.67,43.74L594,38.12L601.33,39.99L608.67,35.78L616,38.28L630.67,34.46L638,34.46L645.33,43.11L652.67,32.59L660,31.81L667.33,36.17L674.67,30.4L682,33.37L689.33,32.67L696.67,28.69L704,33.76L711.33,34.46L718.67,42.33L726,41.16" style="vector-effect: none; fill: none; stroke: rgb(0, 128, 0); stroke-opacity: 1; stroke-width: 2px; opacity: 1;"/></g><g class="points"/><g class="text"/></g><g class="trace scatter trace691a94" style="stroke-miterlimit: 2; opacity: 1;"><g class="fills"/><g class="errorbars"/><g class="lines"><path class="js-line" d="M0,270.55L7.33,245.44L14.67,206.93L22,163.97L29.33,163.73L36.67,213.09L44,103.46L51.33,112.51L58.67,126.31L66,104.63L73.33,117.11L80.67,95.27L88,102.06L95.33,107.05L102.67,109.7L110,101.98L117.33,119.21L124.67,109.08L132,129.35L139.33,108.37L146.67,109.54L154,180.89L161.33,114.46L168.67,121.39L176,103.15L183.33,101.36L190.67,154.84L198,165.53L205.33,161.47L212.67,152.66L220,159.37L227.33,109.08L234.67,105.33L242,93.4L249.33,96.13L256.67,100.73L264,102.53L271.33,187.05L278.67,196.56L286,182.37L293.33,172.31L300.67,193.13L308,118.9L315.33,123.58L322.67,112.74L330,113.05L337.33,102.68L344.67,95.27L352,104.01L359.33,92.23L366.67,109.47L374,179.72L381.33,118.9L388.67,102.53L396,92.23L403.33,101.2L410.67,99.64L418,95.12L425.33,100.73L432.67,82.1L440,100.73L447.33,112.04L454.67,112.04L462,99.49L469.33,100.73L476.67,93.4L484,87.79L491.33,78.59L498.67,84.83L506,81.71L513.33,77.5L520.67,77.5L528,74.61L535.33,69.93L542.67,84.75L550,87.32L557.33,94.96L564.67,97.3L572,114.69L579.33,116.95L586.67,107.2L594,112.04L601.33,114.61L608.67,96.76L616,87.79L623.33,99.49L630.67,94.18L638,93.4L645.33,102.06L652.67,111.57L660,97.3L667.33,119.6L674.67,99.87L682,99.8L689.33,95.12L704,104.79L711.33,106.81L726,111.57" style="vector-effect: none; fill: none; stroke: rgb(255, 165, 0); stroke-opacity: 1; stroke-width: 2px; opacity: 1;"/></g><g class="points"/><g class="text"/></g><g class="trace scatter tracee5d683" style="stroke-miterlimit: 2; opacity: 1;"><g class="fills"/><g class="errorbars"/><g class="lines"><path class="js-line" d="M0,218.86L7.33,197.1L14.67,187.12L22,77.26L29.33,91.14L36.67,189.77L44,68.61L51.33,86.78L58.67,77.42L66,57.77L73.33,66.58L80.67,49.51L88,62.29L95.33,36.8L102.67,36.1L110,38.67L117.33,37.19L124.67,51.85L132,50.05L139.33,44.59L146.67,45.06L154,166.85L161.33,52.08L168.67,45.76L176,53.33L183.33,50.36L190.67,103.93L198,106.74L205.33,115.16L212.67,119.91L220,115.16L227.33,46.7L234.67,39.84L242,35.86L249.33,44.28L256.67,44.98L264,42.57L271.33,145.1L278.67,141.74L286,122.95L293.33,122.33L300.67,124.28L308,35.08L315.33,37.81L322.67,28.45L330,24.48L337.33,30.01L352,19.8L359.33,23.54L366.67,33.6L374,115.86L381.33,30.56L388.67,24.48L396,26.51L403.33,24.48L410.67,27.36L418,36.41L425.33,33.91L432.67,35.86L440,31.65L447.33,33.6L454.67,38.43L462,36.41L469.33,35.94L476.67,31.57L484,27.05L491.33,21.59L498.67,27.91L506,32.74L513.33,29.62L520.67,31.65L528,23.07L535.33,31.89L542.67,35.63L550,37.34L557.33,31.89L564.67,41.09L579.33,39.6L586.67,43.35L594,36.17L601.33,38.59L608.67,30.72L616,33.37L623.33,33.6L630.67,30.25L638,30.25L645.33,38.98L652.67,28.38L660,29.23L667.33,34.3L674.67,27.13L682,29.62L689.33,27.05L696.67,22.76L704,29.47L711.33,30.25L718.67,39.29L726,38.75" style="vector-effect: none; fill: none; stroke: rgb(128, 0, 128); stroke-opacity: 1; stroke-width: 2px; opacity: 1;"/></g><g class="points"/><g class="text"/></g><g class="trace scatter trace743dab" style="stroke-miterlimit: 2; opacity: 1;"><g class="fills"/><g class="errorbars"/><g class="lines"><path class="js-line" d="M0,272.97L7.33,258.47L14.67,237.65L22,156.33L29.33,159.6L36.67,236.01L44,90.6L51.33,107.2L58.67,119.29L66,92.23L73.33,105.96L80.67,83.11L88,89.35L95.33,96.05L102.67,105.64L110,97.77L117.33,112.35L124.67,103.62L132,119.76L139.33,98.16L146.67,100.26L154,218.08L161.33,103.93L168.67,113.13L176,94.42L183.33,95.66L190.67,161.63L198,172.46L205.33,170.36L212.67,166.15L220,171.14L227.33,103.62L234.67,92.7L242,79.76L249.33,82.72L256.67,87.71L264,89.82L271.33,209.81L278.67,210.28L286,188.29L293.33,181.2L300.67,203.65L308,107.2L315.33,112.27L322.67,103.15L330,101.9L337.33,91.06L344.67,83.11L352,93.17L359.33,78.98L366.67,97.22L374,193.59L381.33,107.2L388.67,89.82L396,80.23L403.33,88.96L410.67,86.85L418,81.86L425.33,87.71L432.67,67.67L440,87.71L447.33,100.19L454.67,100.19L462,86.46L469.33,87.71L476.67,79.76L484,73.99L491.33,66.5L498.67,72.35L506,69.39L513.33,63.15L520.67,63.15L528,60.27L535.33,56.52L542.67,70.64L550,73.52L557.33,82.25L564.67,84.36L572,103.85L579.33,107.59L586.67,95.12L594,100.19L601.33,103.07L608.67,83.97L616,73.99L623.33,86.46L630.67,80.62L638,79.76L645.33,89.35L652.67,99.33L660,86L667.33,109.7L674.67,88.1L682,87.24L689.33,81.86L696.67,86.85L704,93.09L711.33,94.34L718.67,96.44L726,99.33" style="vector-effect: none; fill: none; stroke: rgb(255, 192, 203); stroke-opacity: 1; stroke-width: 2px; opacity: 1;"/></g><g class="points"/><g class="text"/></g><g class="trace scatter tracee9ab63" style="stroke-miterlimit: 2; opacity: 1;"><g class="fills"/><g class="errorbars"/><g class="lines"><path class="js-line" d="M0,299.63L7.33,258.54L14.67,247.16L22,85.76L29.33,107.28L36.67,245.99L44,75.24L51.33,105.57L58.67,93.4L66,68.77L73.33,80.46L80.67,55.9L88,75.86L95.33,42.96L102.67,36.8L110,40.15L117.33,41.01L124.67,52.24L132,52.7L139.33,47.79L146.67,48.57L154,224.94L161.33,57.23L168.67,50.05L176,57.54L183.33,54.73L190.67,133.87L198,138L205.33,146.42L212.67,152.5L220,146.42L227.33,51.69L234.67,51.22L242,46.62L249.33,54.96L256.67,56.68L264,53.95L271.33,185.88L278.67,180.11L286,155.23L293.33,155.55L300.67,160.3L308,45.76L315.33,48.49L322.67,36.1L330,33.91L337.33,40.23L352,27.75L359.33,33.76L366.67,45.61L374,148.92L381.33,42.8L388.67,35.55L403.33,33.91L410.67,37.5L418,47.48L425.33,45.61L432.67,49.12L440,43.74L447.33,47.32L454.67,52.78L462,49.19L469.33,48.34L476.67,44.59L484,39.14L491.33,30.33L498.67,37.58L506,43.04L513.33,41.01L520.67,43.74L528,34.54L535.33,42.1L542.67,48.26L550,51.85L557.33,46.31L564.67,55.59L572,54.65L579.33,55.51L586.67,59.25L594,50.91L601.33,53.72L608.67,41.94L616,44.75L623.33,47.32L630.67,42.72L638,42.72L645.33,51.07L652.67,40.93L660,43.58L667.33,49.12L674.67,40.85L682,42.72L689.33,37.42L696.67,32.9L704,41.87L711.33,42.72L718.67,52.86L726,52.78" style="vector-effect: none; fill: none; stroke: rgb(165, 42, 42); stroke-opacity: 1; stroke-width: 2px; opacity: 1;"/></g><g class="points"/><g class="text"/></g><g class="trace scatter tracea9f38e" style="stroke-miterlimit: 2; opacity: 1;"><g class="fills"/><g class="errorbars"/><g class="lines"><path class="js-line" d="M0,376.2L7.33,351.56L14.67,333.24L22,174.96L29.33,187.51L36.67,320.3L44,106.66L51.33,139.56L58.67,147.36L66,112.58L73.33,126.93L80.67,94.18L88,109.08L95.33,105.96L102.67,108.06L110,100.26L117.33,117.11L124.67,106.97L132,128.72L139.33,106.74L146.67,107.59L154,306.65L161.33,113.52L168.67,119.52L176,100.73L183.33,99.25L190.67,206.07L198,217.3L205.33,217.61L212.67,218.47L220,221.9L227.33,106.97L234.67,107.28L242,95.66L249.33,99.17L256.67,103.23L264,103.85L271.33,280.14L278.67,268.84L286,232.03L293.33,228.84L300.67,255.97L308,124.51L315.33,128.57L322.67,110.95L330,112.74L337.33,101.75L344.67,94.18L352,102.53L359.33,92.86L366.67,116.48L374,249.19L381.33,124.51L388.67,103.85L396,90.75L403.33,101.04L410.67,100.34L418,96.29L425.33,103.23L432.67,87.17L440,103.23L447.33,119.99L454.67,119.99L462,105.57L469.33,103.23L484,88.8L491.33,76.25L498.67,83.11L506,79.68L513.33,77.73L520.67,77.73L528,74.3L535.33,67.91L542.67,90.67L550,94.18L557.33,104.71L564.67,105.1L572,126.54L579.33,133.17L586.67,116.01L594,119.99L601.33,123.5L608.67,96.91L616,88.8L623.33,105.57L630.67,98.63L638,95.66L645.33,109.08L652.67,117.03L660,111.34L667.33,133.56L674.67,111.73L682,108.61L689.33,96.29L696.67,100.34L704,115.62L711.33,113.05L718.67,113.6L726,117.03" style="vector-effect: none; fill: none; stroke: rgb(128, 128, 128); stroke-opacity: 1; stroke-width: 2px; opacity: 1;"/></g><g class="points"/><g class="text"/></g></g></g><g class="overplot"/><path class="xlines-above crisp" d="M0,0" style="fill: none;"/><path class="ylines-above crisp" d="M0,0" style="fill: none;"/><g class="overlines-above"/><g class="xaxislayer-above"><g class="xtick"><text text-anchor="middle" x="0" y="509" transform="translate(209,0)" style="font-family: 'Open Sans', verdana, arial, sans-serif; font-size: 12px; fill: rgb(42, 63, 95); fill-opacity: 1; white-space: pre; opacity: 1;">10</text></g><g class="xtick"><text text-anchor="middle" x="0" y="509" style="font-family: 'Open Sans', verdana, arial, sans-serif; font-size: 12px; fill: rgb(42, 63, 95); fill-opacity: 1; white-space: pre; opacity: 1;" transform="translate(282.33000000000004,0)">20</text></g><g class="xtick"><text text-anchor="middle" x="0" y="509" style="font-family: 'Open Sans', verdana, arial, sans-serif; font-size: 12px; fill: rgb(42, 63, 95); fill-opacity: 1; white-space: pre; opacity: 1;" transform="translate(355.66999999999996,0)">30</text></g><g class="xtick"><text text-anchor="middle" x="0" y="509" style="font-family: 'Open Sans', verdana, arial, sans-serif; font-size: 12px; fill: rgb(42, 63, 95); fill-opacity: 1; white-space: pre; opacity: 1;" transform="translate(429,0)">40</text></g><g class="xtick"><text text-anchor="middle" x="0" y="509" style="font-family: 'Open Sans', verdana, arial, sans-serif; font-size: 12px; fill: rgb(42, 63, 95); fill-opacity: 1; white-space: pre; opacity: 1;" transform="translate(502.33,0)">50</text></g><g class="xtick"><text text-anchor="middle" x="0" y="509" style="font-family: 'Open Sans', verdana, arial, sans-serif; font-size: 12px; fill: rgb(42, 63, 95); fill-opacity: 1; white-space: pre; opacity: 1;" transform="translate(575.6700000000001,0)">60</text></g><g class="xtick"><text text-anchor="middle" x="0" y="509" style="font-family: 'Open Sans', verdana, arial, sans-serif; font-size: 12px; fill: rgb(42, 63, 95); fill-opacity: 1; white-space: pre; opacity: 1;" transform="translate(649,0)">70</text></g><g class="xtick"><text text-anchor="middle" x="0" y="509" style="font-family: 'Open Sans', verdana, arial, sans-serif; font-size: 12px; fill: rgb(42, 63, 95); fill-opacity: 1; white-space: pre; opacity: 1;" transform="translate(722.33,0)">80</text></g><g class="xtick"><text text-anchor="middle" x="0" y="509" style="font-family: 'Open Sans', verdana, arial, sans-serif; font-size: 12px; fill: rgb(42, 63, 95); fill-opacity: 1; white-space: pre; opacity: 1;" transform="translate(795.67,0)">90</text></g><g class="xtick"><text text-anchor="middle" x="0" y="509" style="font-family: 'Open Sans', verdana, arial, sans-serif; font-size: 12px; fill: rgb(42, 63, 95); fill-opacity: 1; white-space: pre; opacity: 1;" transform="translate(869,0)">100</text></g></g><g class="yaxislayer-above"><g class="ytick"><text text-anchor="end" x="142" y="4.199999999999999" transform="translate(0,453.35)" style="font-family: 'Open Sans', verdana, arial, sans-serif; font-size: 12px; fill: rgb(42, 63, 95); fill-opacity: 1; white-space: pre; opacity: 1;">40</text></g><g class="ytick"><text text-anchor="end" x="142" y="4.199999999999999" style="font-family: 'Open Sans', verdana, arial, sans-serif; font-size: 12px; fill: rgb(42, 63, 95); fill-opacity: 1; white-space: pre; opacity: 1;" transform="translate(0,375.39)">50</text></g><g class="ytick"><text text-anchor="end" x="142" y="4.199999999999999" style="font-family: 'Open Sans', verdana, arial, sans-serif; font-size: 12px; fill: rgb(42, 63, 95); fill-opacity: 1; white-space: pre; opacity: 1;" transform="translate(0,297.41999999999996)">60</text></g><g class="ytick"><text text-anchor="end" x="142" y="4.199999999999999" style="font-family: 'Open Sans', verdana, arial, sans-serif; font-size: 12px; fill: rgb(42, 63, 95); fill-opacity: 1; white-space: pre; opacity: 1;" transform="translate(0,219.45)">70</text></g><g class="ytick"><text text-anchor="end" x="142" y="4.199999999999999" style="font-family: 'Open Sans', verdana, arial, sans-serif; font-size: 12px; fill: rgb(42, 63, 95); fill-opacity: 1; white-space: pre; opacity: 1;" transform="translate(0,141.48)">80</text></g></g><g class="overaxes-above"/></g></g><g class="polarlayer"/><g class="smithlayer"/><g class="ternarylayer"/><g class="geolayer"/><g class="funnelarealayer"/><g class="pielayer"/><g class="iciclelayer"/><g class="treemaplayer"/><g class="sunburstlayer"/><g class="glimages"/><defs id="topdefs-75db6a"><g class="clips"/><clipPath id="legend75db6a"><rect width="128" height="162" x="0" y="0"/></clipPath></defs><g class="layer-above"><g class="imagelayer"/><g class="shapelayer"/></g><g class="infolayer"><g class="legend" pointer-events="all" transform="translate(883.52,100)"><rect class="bg" shape-rendering="crispEdges" width="128" height="162" x="0" y="0" style="stroke: rgb(68, 68, 68); stroke-opacity: 1; fill: rgb(255, 255, 255); fill-opacity: 1; stroke-width: 0px;"/><g class="scrollbox" transform="" clip-path="url(#legend75db6a)"><g class="groups"><g class="traces" transform="translate(0,14.5)" style="opacity: 1;"><text class="legendtext" text-anchor="start" x="40" y="4.680000000000001" style="font-family: 'Open Sans', verdana, arial, sans-serif; font-size: 12px; fill: rgb(42, 63, 95); fill-opacity: 1; white-space: pre;">Train Accuracy</text><g class="layers" style="opacity: 1;"><g class="legendfill"/><g class="legendlines"><path class="js-line" d="M5,0h30" style="fill: none; stroke: rgb(255, 0, 0); stroke-opacity: 1; stroke-width: 2px;"/></g><g class="legendsymbols"><g class="legendpoints"/></g></g><rect class="legendtoggle" x="0" y="-9.5" width="122.71875" height="19" style="fill: rgb(0, 0, 0); fill-opacity: 0;"/></g><g class="traces" transform="translate(0,33.5)" style="opacity: 1;"><text class="legendtext" text-anchor="start" x="40" y="4.680000000000001" style="font-family: 'Open Sans', verdana, arial, sans-serif; font-size: 12px; fill: rgb(42, 63, 95); fill-opacity: 1; white-space: pre;">Test Accuracy</text><g class="layers" style="opacity: 1;"><g class="legendfill"/><g class="legendlines"><path class="js-line" d="M5,0h30" style="fill: none; stroke: rgb(0, 0, 255); stroke-opacity: 1; stroke-width: 2px;"/></g><g class="legendsymbols"><g class="legendpoints"/></g></g><rect class="legendtoggle" x="0" y="-9.5" width="122.71875" height="19" style="fill: rgb(0, 0, 0); fill-opacity: 0;"/></g><g class="traces" transform="translate(0,52.5)" style="opacity: 1;"><text class="legendtext" text-anchor="start" x="40" y="4.680000000000001" style="font-family: 'Open Sans', verdana, arial, sans-serif; font-size: 12px; fill: rgb(42, 63, 95); fill-opacity: 1; white-space: pre;">Train Precision</text><g class="layers" style="opacity: 1;"><g class="legendfill"/><g class="legendlines"><path class="js-line" d="M5,0h30" style="fill: none; stroke: rgb(0, 128, 0); stroke-opacity: 1; stroke-width: 2px;"/></g><g class="legendsymbols"><g class="legendpoints"/></g></g><rect class="legendtoggle" x="0" y="-9.5" width="122.71875" height="19" style="fill: rgb(0, 0, 0); fill-opacity: 0;"/></g><g class="traces" transform="translate(0,71.5)" style="opacity: 1;"><text class="legendtext" text-anchor="start" x="40" y="4.680000000000001" style="font-family: 'Open Sans', verdana, arial, sans-serif; font-size: 12px; fill: rgb(42, 63, 95); fill-opacity: 1; white-space: pre;">Test Precision</text><g class="layers" style="opacity: 1;"><g class="legendfill"/><g class="legendlines"><path class="js-line" d="M5,0h30" style="fill: none; stroke: rgb(255, 165, 0); stroke-opacity: 1; stroke-width: 2px;"/></g><g class="legendsymbols"><g class="legendpoints"/></g></g><rect class="legendtoggle" x="0" y="-9.5" width="122.71875" height="19" style="fill: rgb(0, 0, 0); fill-opacity: 0;"/></g><g class="traces" transform="translate(0,90.5)" style="opacity: 1;"><text class="legendtext" text-anchor="start" x="40" y="4.680000000000001" style="font-family: 'Open Sans', verdana, arial, sans-serif; font-size: 12px; fill: rgb(42, 63, 95); fill-opacity: 1; white-space: pre;">Train Recall</text><g class="layers" style="opacity: 1;"><g class="legendfill"/><g class="legendlines"><path class="js-line" d="M5,0h30" style="fill: none; stroke: rgb(128, 0, 128); stroke-opacity: 1; stroke-width: 2px;"/></g><g class="legendsymbols"><g class="legendpoints"/></g></g><rect class="legendtoggle" x="0" y="-9.5" width="122.71875" height="19" style="fill: rgb(0, 0, 0); fill-opacity: 0;"/></g><g class="traces" transform="translate(0,109.5)" style="opacity: 1;"><text class="legendtext" text-anchor="start" x="40" y="4.680000000000001" style="font-family: 'Open Sans', verdana, arial, sans-serif; font-size: 12px; fill: rgb(42, 63, 95); fill-opacity: 1; white-space: pre;">Test Recall</text><g class="layers" style="opacity: 1;"><g class="legendfill"/><g class="legendlines"><path class="js-line" d="M5,0h30" style="fill: none; stroke: rgb(255, 192, 203); stroke-opacity: 1; stroke-width: 2px;"/></g><g class="legendsymbols"><g class="legendpoints"/></g></g><rect class="legendtoggle" x="0" y="-9.5" width="122.71875" height="19" style="fill: rgb(0, 0, 0); fill-opacity: 0;"/></g><g class="traces" transform="translate(0,128.5)" style="opacity: 1;"><text class="legendtext" text-anchor="start" x="40" y="4.680000000000001" style="font-family: 'Open Sans', verdana, arial, sans-serif; font-size: 12px; fill: rgb(42, 63, 95); fill-opacity: 1; white-space: pre;">Train F1</text><g class="layers" style="opacity: 1;"><g class="legendfill"/><g class="legendlines"><path class="js-line" d="M5,0h30" style="fill: none; stroke: rgb(165, 42, 42); stroke-opacity: 1; stroke-width: 2px;"/></g><g class="legendsymbols"><g class="legendpoints"/></g></g><rect class="legendtoggle" x="0" y="-9.5" width="122.71875" height="19" style="fill: rgb(0, 0, 0); fill-opacity: 0;"/></g><g class="traces" transform="translate(0,147.5)" style="opacity: 1;"><text class="legendtext" text-anchor="start" x="40" y="4.680000000000001" style="font-family: 'Open Sans', verdana, arial, sans-serif; font-size: 12px; fill: rgb(42, 63, 95); fill-opacity: 1; white-space: pre;">Test F1</text><g class="layers" style="opacity: 1;"><g class="legendfill"/><g class="legendlines"><path class="js-line" d="M5,0h30" style="fill: none; stroke: rgb(128, 128, 128); stroke-opacity: 1; stroke-width: 2px;"/></g><g class="legendsymbols"><g class="legendpoints"/></g></g><rect class="legendtoggle" x="0" y="-9.5" width="122.71875" height="19" style="fill: rgb(0, 0, 0); fill-opacity: 0;"/></g></g></g><rect class="scrollbar" rx="20" ry="3" width="0" height="0" x="0" y="0" style="fill: rgb(128, 139, 164); fill-opacity: 1;"/></g><g class="g-gtitle"><text class="gtitle" x="51.2" y="50" text-anchor="start" dy="0em" style="font-family: 'Open Sans', verdana, arial, sans-serif; font-size: 17px; fill: rgb(42, 63, 95); opacity: 1; font-weight: normal; white-space: pre;">Training Metrics - logs/FakeNewsNet-politifact_text_tweet.log</text></g><g class="g-xtitle"><text class="xtitle" x="506" y="537.3" text-anchor="middle" style="font-family: 'Open Sans', verdana, arial, sans-serif; font-size: 14px; fill: rgb(42, 63, 95); opacity: 1; font-weight: normal; white-space: pre;">Epoch</text></g><g class="g-ytitle"><text class="ytitle" transform="rotate(-90,103.965625,298)" x="103.965625" y="298" text-anchor="middle" style="font-family: 'Open Sans', verdana, arial, sans-serif; font-size: 14px; fill: rgb(42, 63, 95); opacity: 1; font-weight: normal; white-space: pre;">Metric Score</text></g></g><g class="menulayer"><g class="updatemenu-container" style="cursor: pointer;"><g class="updatemenu-header-group" transform="translate(12,60)"><g class="updatemenu-header" transform="translate(1,1)" style="pointer-events: all;"><rect class="updatemenu-item-rect" rx="2" ry="2" shape-rendering="crispEdges" x="0" y="0" width="167" height="33" style="stroke: rgb(190, 200, 217); stroke-opacity: 1; fill: rgb(255, 255, 255); fill-opacity: 1; stroke-width: 1px;"/><text class="updatemenu-item-text" text-anchor="start" data-notex="1" x="12" y="19.5" style="font-family: 'Open Sans', verdana, arial, sans-serif; font-size: 12px; fill: rgb(42, 63, 95); fill-opacity: 1; white-space: pre;">All</text></g><text class="updatemenu-header-arrow" text-anchor="end" x="163" y="19.5" style="font-family: 'Open Sans', verdana, arial, sans-serif; font-size: 12px; fill: rgb(42, 63, 95); fill-opacity: 1;">▼</text></g><g class="updatemenu-dropdown-button-group" updatemenu-active-index="-1" style="pointer-events: all;"><rect class="scrollbox-bg" opacity="0" x="0" y="0" width="0" height="0" style="pointer-events: all;"/></g></g></g></svg>