<svg class="main-svg" xmlns="http://www.w3.org/2000/svg" xmlns:xlink="http://www.w3.org/1999/xlink" width="1024" height="576" style="" viewBox="0 0 1024 576"><rect x="0" y="0" width="1024" height="576" style="fill: rgb(255, 255, 255); fill-opacity: 1;"/><defs id="defs-0c3741"><g class="clips"><clipPath id="clip0c3741xyplot" class="plotclip"><rect width="726" height="396"/></clipPath><clipPath class="axesclip" id="clip0c3741x"><rect x="143" y="0" width="726" height="576"/></clipPath><clipPath class="axesclip" id="clip0c3741y"><rect x="0" y="100" width="1024" height="396"/></clipPath><clipPath class="axesclip" id="clip0c3741xy"><rect x="143" y="100" width="726" height="396"/></clipPath></g><g class="gradients"/><g class="patterns"/></defs><g class="bglayer"><rect class="bg" x="143" y="100" width="726" height="396" style="fill: rgb(229, 236, 246); fill-opacity: 1; stroke-width: 0;"/></g><g class="layer-below"><g class="imagelayer"/><g class="shapelayer"/></g><g class="cartesianlayer"><g class="subplot xy"><g class="layer-subplot"><g class="shapelayer"/><g class="imagelayer"/></g><g class="minor-gridlayer"><g class="x"/><g class="y"/></g><g class="gridlayer"><g class="x"><path class="xgrid crisp" transform="translate(235.57999999999998,0)" d="M0,100v396" style="stroke: rgb(255, 255, 255); stroke-opacity: 1; stroke-width: 1px;"/><path class="xgrid crisp" transform="translate(333.03,0)" d="M0,100v396" style="stroke: rgb(255, 255, 255); stroke-opacity: 1; stroke-width: 1px;"/><path class="xgrid crisp" transform="translate(430.48,0)" d="M0,100v396" style="stroke: rgb(255, 255, 255); stroke-opacity: 1; stroke-width: 1px;"/><path class="xgrid crisp" transform="translate(527.9300000000001,0)" d="M0,100v396" style="stroke: rgb(255, 255, 255); stroke-opacity: 1; stroke-width: 1px;"/><path class="xgrid crisp" transform="translate(625.38,0)" d="M0,100v396" style="stroke: rgb(255, 255, 255); stroke-opacity: 1; stroke-width: 1px;"/><path class="xgrid crisp" transform="translate(722.83,0)" d="M0,100v396" style="stroke: rgb(255, 255, 255); stroke-opacity: 1; stroke-width: 1px;"/><path class="xgrid crisp" transform="translate(820.28,0)" d="M0,100v396" style="stroke: rgb(255, 255, 255); stroke-opacity: 1; stroke-width: 1px;"/></g><g class="y"><path class="ygrid crisp" transform="translate(0,439.73)" d="M143,0h726" style="stroke: rgb(255, 255, 255); stroke-opacity: 1; stroke-width: 1px;"/><path class="ygrid crisp" transform="translate(0,368.78)" d="M143,0h726" style="stroke: rgb(255, 255, 255); stroke-opacity: 1; stroke-width: 1px;"/><path class="ygrid crisp" transform="translate(0,297.82)" d="M143,0h726" style="stroke: rgb(255, 255, 255); stroke-opacity: 1; stroke-width: 1px;"/><path class="ygrid crisp" transform="translate(0,226.87)" d="M143,0h726" style="stroke: rgb(255, 255, 255); stroke-opacity: 1; stroke-width: 1px;"/><path class="ygrid crisp" transform="translate(0,155.92000000000002)" d="M143,0h726" style="stroke: rgb(255, 255, 255); stroke-opacity: 1; stroke-width: 1px;"/></g></g><g class="zerolinelayer"/><path class="xlines-below"/><path class="ylines-below"/><g class="overlines-below"/><g class="xaxislayer-below"/><g class="yaxislayer-below"/><g class="overaxes-below"/><g class="plot" transform="translate(143,100)" clip-path="url(#clip0c3741xyplot)"><g class="scatterlayer mlayer"><g class="trace scatter traceb2066b" style="stroke-miterlimit: 2; opacity: 1;"><g class="fills"/><g class="errorbars"/><g class="lines"><path class="js-line" d="M0,57.83L53.6,57.83L58.47,56.48L63.34,55.84L68.21,52.51L73.09,47.19L77.96,46.48L82.83,46.48L87.7,44.49L92.58,46.48L97.45,46.48L102.32,46.48L107.19,43.78L112.07,42.51L116.94,43.14L121.81,40.45L126.68,40.45L131.56,32.43L136.43,37.11L141.3,33.78L146.17,31.79L151.05,33.78L155.92,31.08L160.79,31.08L165.66,27.11L170.54,28.46L175.41,27.75L180.28,28.46L185.15,31.08L190.03,27.11L194.9,26.4L199.77,29.09L204.64,27.11L209.52,29.09L214.39,29.73L219.26,25.76L224.13,27.75L229.01,28.46L233.88,27.11L238.75,29.73L243.62,27.75L248.5,25.12L253.37,24.41L263.11,25.12L267.99,23.06L277.73,24.41L282.6,22.43L287.48,26.4L292.35,33.14L297.22,29.73L302.09,29.09L306.97,28.46L311.84,29.73L316.71,25.76L321.58,28.46L341.07,28.46L345.95,30.44L350.82,28.46L355.69,27.75L370.31,25.12L375.18,25.76L380.05,27.11L384.93,25.12L389.8,28.46L394.67,29.09L399.54,26.4L404.42,26.4L423.91,26.4L428.78,27.75L433.65,25.12L438.52,24.41L443.4,25.76L448.27,25.76L453.14,26.4L458.01,25.76L462.89,27.11L467.76,26.4L482.38,27.11L487.25,28.46L501.87,27.75L506.74,29.09L511.61,33.78L516.48,27.75L521.36,27.11L526.23,28.46L531.1,25.76L535.97,25.76L540.85,27.75L545.72,26.4L550.59,27.75L555.46,23.77L560.34,23.77L565.21,25.12L570.08,29.09L574.95,28.46L584.7,25.76L589.57,26.4L594.44,27.75L599.32,26.4L604.19,28.46L609.06,25.76L613.93,28.46L618.81,28.46L623.68,27.75L628.55,28.46L638.3,26.4L643.17,27.11L648.04,28.46L652.91,31.79L662.66,35.13L667.53,29.73L672.4,24.41L677.28,26.4L687.02,27.11L691.89,25.12L696.77,28.46L701.64,28.46L706.51,29.09L711.38,25.76L716.26,27.11L721.13,26.4L726,29.09" style="vector-effect: none; fill: none; stroke: rgb(255, 0, 0); stroke-opacity: 1; stroke-width: 2px; opacity: 1;"/></g><g class="points"/><g class="text"/></g><g class="trace scatter trace574966" style="stroke-miterlimit: 2; opacity: 1;"><g class="fills"/><g class="errorbars"/><g class="lines"><path class="js-line" d="M0,56.98L63.34,56.98L68.21,54.28L73.09,54.28L77.96,51.66L82.83,48.96L87.7,51.66L92.58,48.96L97.45,51.66L102.32,48.96L107.19,51.66L116.94,51.66L121.81,48.96L126.68,48.96L131.56,46.34L136.43,48.96L141.3,46.34L160.79,46.34L165.66,48.96L170.54,46.34L175.41,48.96L180.28,48.96L185.15,46.34L190.03,46.34L194.9,43.64L199.77,46.34L204.64,46.34L209.52,40.94L214.39,43.64L219.26,48.96L224.13,46.34L233.88,46.34L238.75,43.64L243.62,43.64L248.5,48.96L253.37,48.96L258.24,59.68L263.11,59.68L267.99,51.66L277.73,51.66L282.6,65L287.48,70.32L292.35,80.96L306.97,73.02L311.84,67.62L316.71,54.28L321.58,67.62L336.2,75.64L341.07,73.02L345.95,75.64L350.82,70.32L355.69,70.32L360.56,67.62L365.44,70.32L370.31,65L375.18,75.64L380.05,67.62L384.93,65L389.8,70.32L394.67,70.32L399.54,65L404.42,62.3L409.29,67.62L419.03,67.62L423.91,62.3L428.78,54.28L433.65,59.68L438.52,56.98L443.4,51.66L448.27,59.68L453.14,59.68L458.01,62.3L462.89,73.02L472.63,73.02L477.5,75.64L482.38,67.62L487.25,73.02L496.99,78.34L501.87,78.34L506.74,75.64L511.61,83.66L521.36,73.02L526.23,70.32L535.97,70.32L540.85,73.02L545.72,70.32L550.59,75.64L555.46,70.32L560.34,73.02L565.21,73.02L570.08,75.64L579.83,75.64L584.7,65L589.57,65L594.44,67.62L599.32,73.02L604.19,73.02L609.06,73.02L613.93,80.96L618.81,80.96L623.68,78.34L628.55,80.96L633.42,80.96L638.3,78.34L643.17,78.34L652.91,83.66L657.79,83.66L662.66,91.68L667.53,80.96L672.4,75.64L677.28,75.64L682.15,73.02L687.02,80.96L701.64,73.02L706.51,78.34L711.38,73.02L716.26,73.02L726,73.02" style="vector-effect: none; fill: none; stroke: rgb(0, 0, 255); stroke-opacity: 1; stroke-width: 2px; opacity: 1;"/></g><g class="points"/><g class="text"/></g><g class="trace scatter trace42262c" style="stroke-miterlimit: 2; opacity: 1;"><g class="fills"/><g class="errorbars"/><g class="lines"><path class="js-line" d="M0,376.2L53.6,376.2L58.47,20.79L63.34,20.51L68.21,54.21L73.09,35.98L77.96,49.46L82.83,49.46L87.7,55.35L92.58,61.66L97.45,61.66L102.32,49.46L107.19,62.8L112.07,58.97L116.94,60.81L121.81,54L126.68,54L131.56,55.21L136.43,53.64L141.3,62.37L146.17,58.4L151.05,62.37L155.92,57.19L160.79,57.19L165.66,54.07L170.54,52.44L175.41,55.21L180.28,56.34L185.15,61.24L190.03,57.62L194.9,62.87L199.77,67.76L204.64,66.98L209.52,53.57L214.39,72.09L219.26,64.57L224.13,68.19L229.01,63.37L233.88,72.23L238.75,69.04L243.62,68.19L248.5,66.06L253.37,67.41L258.24,76.14L263.11,82.81L267.99,62.59L272.86,58.26L277.73,64.86L282.6,76.21L287.48,91.39L292.35,120.48L297.22,112.11L302.09,107.29L306.97,106.72L311.84,107.78L316.71,78.62L321.58,102.39L326.46,103.31L331.33,105.44L336.2,107.5L341.07,107.5L345.95,114.03L350.82,105.94L365.44,96.36L370.31,92.67L380.05,102.53L384.93,94.87L389.8,103.31L394.67,108.78L399.54,96.36L404.42,94.02L409.29,100.33L414.16,97.14L419.03,96.36L423.91,97.42L428.78,95.37L433.65,91.46L438.52,88.91L443.4,91.46L448.27,96.15L453.14,98.42L458.01,93.88L462.89,104.87L467.76,103.67L472.63,104.38L477.5,105.72L482.38,104.16L487.25,108.21L492.12,108.85L496.99,110.12L501.87,109.41L506.74,112.54L511.61,124.81L516.48,108.85L521.36,105.65L526.23,108.21L531.1,102.39L535.97,101.61L540.85,106.22L545.72,99.41L550.59,105.44L555.46,90.19L560.34,88.98L565.21,99.55L570.08,113.03L574.95,110.12L579.83,104.16L584.7,95.08L589.57,97.42L594.44,103.81L599.32,102.11L604.19,107.5L609.06,98.13L613.93,111.26L618.81,111.76L623.68,110.98L628.55,111.76L633.42,107.57L638.3,105.72L643.17,106.93L648.04,112.68L652.91,119.92L657.79,123.18L662.66,128.93L667.53,115.66L672.4,99.91L677.28,104.38L682.15,102.89L687.02,108.14L691.89,100.4L696.77,109.49L701.64,112.25L706.51,111.97L711.38,100.83L716.26,104.87L721.13,103.67L726,112.54" style="vector-effect: none; fill: none; stroke: rgb(0, 128, 0); stroke-opacity: 1; stroke-width: 2px; opacity: 1;"/></g><g class="points"/><g class="text"/></g><g class="trace scatter traceaf24cb" style="stroke-miterlimit: 2; opacity: 1;"><g class="fills"/><g class="errorbars"/><g class="lines"><path class="js-line" d="M0,375.77L63.34,375.77L68.21,19.8L73.09,19.8L77.96,134.6L82.83,87.21L87.7,134.6L92.58,87.21L97.45,134.6L102.32,87.21L107.19,134.6L116.94,134.6L121.81,116.44L126.68,116.44L131.56,102.53L136.43,116.44L141.3,102.53L160.79,102.53L165.66,132.19L170.54,102.53L175.41,132.19L180.28,132.19L185.15,102.53L190.03,102.53L194.9,108.14L199.77,102.53L204.64,129.78L209.52,82.24L214.39,108.14L219.26,148.08L224.13,129.78L233.88,129.78L238.75,108.14L243.62,108.14L248.5,148.08L253.37,148.08L258.24,199.88L263.11,197.54L267.99,165.75L272.86,163.76L277.73,163.76L282.6,217.62L287.48,232.09L292.35,242.88L297.22,238.34L306.97,228.4L311.84,216.84L316.71,177.39L321.58,220.74L326.46,227.2L331.33,228.4L336.2,233.58L341.07,228.4L345.95,233.58L350.82,222.87L355.69,222.87L360.56,220.74L365.44,227.2L370.31,213.72L375.18,233.58L380.05,213.29L384.93,210.31L389.8,222.87L394.67,222.87L399.54,210.31L404.42,206.05L409.29,216.84L414.16,220.74L419.03,220.74L423.91,203.22L428.78,177.39L433.65,197.54L438.52,188.1L443.4,166.96L448.27,195.41L453.14,195.41L458.01,206.05L462.89,220.39L467.76,224.22L472.63,220.39L477.5,225.07L482.38,210.03L487.25,220.39L496.99,229.47L501.87,229.47L506.74,225.07L511.61,237.49L516.48,233.73L521.36,224.22L526.23,218.97L531.1,218.97L535.97,218.97L540.85,224.22L545.72,218.97L550.59,229.11L555.46,218.97L560.34,228.4L565.21,220.39L570.08,225.07L579.83,225.07L584.7,210.31L589.57,210.31L594.44,213.29L599.32,220.39L604.19,220.39L609.06,224.22L613.93,233.58L618.81,233.58L623.68,225.49L628.55,233.58L633.42,233.58L638.3,229.47L643.17,229.47L652.91,237.49L657.79,237.49L662.66,239.12L667.53,233.58L672.4,225.07L677.28,225.07L682.15,224.22L687.02,237.98L691.89,238.34L696.77,229.11L701.64,220.39L706.51,238.34L711.38,224.22L716.26,224.22L721.13,224.22L726,220.39" style="vector-effect: none; fill: none; stroke: rgb(255, 165, 0); stroke-opacity: 1; stroke-width: 2px; opacity: 1;"/></g><g class="points"/><g class="text"/></g><g class="trace scatter tracec28767" style="stroke-miterlimit: 2; opacity: 1;"><g class="fills"/><g class="errorbars"/><g class="lines"><path class="js-line" d="M0,339.73L53.6,339.73L58.47,333.2L63.34,329.94L68.21,310.78L73.09,284.74L77.96,278.64L82.83,278.64L87.7,266.01L92.58,275.73L97.45,275.73L102.32,278.64L107.19,259.84L112.07,253.31L116.94,256.57L121.81,243.59L126.68,243.59L131.56,195.91L136.43,224.43L141.3,199.53L146.17,189.73L151.05,199.53L155.92,186.47L160.79,186.47L165.66,164.05L170.54,173.49L175.41,167.31L180.28,170.58L185.15,183.63L190.03,161.21L194.9,152.2L199.77,165.18L204.64,152.55L209.52,176.75L214.39,165.54L219.26,146.03L224.13,155.82L229.01,164.83L233.88,146.81L238.75,168.45L243.62,155.82L248.5,139.92L253.37,133.75L258.24,122.26L263.11,116.86L267.99,130.13L272.86,139.14L277.73,136.66L282.6,106.72L287.48,111.83L292.35,92.46L297.22,84.86L302.09,96L306.97,89.9L311.84,102.18L316.71,128.71L321.58,104.31L326.46,101.4L331.33,86.64L341.07,86.99L345.95,85.22L350.82,92.74L355.69,95.29L365.44,100.26L370.31,96.64L375.18,88.41L380.05,89.12L384.93,90.9L389.8,101.4L394.67,90.26L399.54,100.26L404.42,106.08L409.29,88.77L414.16,91.25L419.03,100.26L423.91,97.42L428.78,115.45L433.65,99.55L438.52,99.2L443.4,105.65L448.27,94.16L453.14,94.51L458.01,99.91L462.89,80.47L467.76,77.2L472.63,74.36L477.5,68.62L482.38,83.37L487.25,84.08L492.12,81.25L496.99,75.5L501.87,69.33L506.74,72.94L516.48,72.23L521.36,77.63L526.23,84.08L531.1,74.01L535.97,76.85L540.85,83.73L545.72,91.68L550.59,86.64L560.34,93.02L565.21,76.49L570.08,70.11L574.95,75.5L579.83,83.37L584.7,97.07L589.57,97.42L594.44,92.39L599.32,83.02L604.19,86.99L609.06,88.41L613.93,69.68L618.81,66.84L623.68,60.67L628.55,66.84L633.42,68.97L638.3,68.62L643.17,71.88L648.04,61.1L652.91,71.6L657.79,72.31L662.66,59.04L667.53,64.71L672.4,67.48L682.15,80.11L687.02,66.06L691.89,73.58L696.77,78.34L701.64,63.93L706.51,75.85L711.38,79.76L716.26,80.47L721.13,77.2L726,72.94" style="vector-effect: none; fill: none; stroke: rgb(128, 0, 128); stroke-opacity: 1; stroke-width: 2px; opacity: 1;"/></g><g class="points"/><g class="text"/></g><g class="trace scatter traceb2db41" style="stroke-miterlimit: 2; opacity: 1;"><g class="fills"/><g class="errorbars"/><g class="lines"><path class="js-line" d="M0,339.73L63.34,339.73L68.21,326.6L73.09,326.6L77.96,290.13L82.83,288.64L87.7,290.13L92.58,288.64L97.45,290.13L102.32,288.64L107.19,290.13L116.94,290.13L121.81,277.01L126.68,277.01L131.56,263.88L136.43,277.01L141.3,263.88L160.79,263.88L165.66,265.37L170.54,263.88L175.41,265.37L180.28,265.37L185.15,263.88L190.03,263.88L194.9,239.05L199.77,263.88L204.64,240.54L209.52,237.56L214.39,239.05L219.26,242.03L224.13,240.54L233.88,240.54L238.75,239.05L243.62,239.05L248.5,242.03L253.37,242.03L258.24,247.99L263.11,236.35L267.99,231.88L272.86,243.52L277.73,243.52L282.6,250.97L287.48,253.88L292.35,236.56L297.22,235.07L306.97,232.09L311.84,229.11L316.71,245.01L321.58,240.75L326.46,242.24L331.33,232.09L336.2,233.58L341.07,232.09L345.95,233.58L350.82,230.6L355.69,230.6L360.56,240.75L365.44,242.24L370.31,239.26L375.18,233.58L380.05,217.48L384.93,227.62L389.8,230.6L394.67,230.6L399.54,227.62L404.42,237.77L409.29,229.11L414.16,240.75L419.03,240.75L423.91,226.13L428.78,245.01L433.65,236.35L438.52,234.86L443.4,220.24L448.27,224.64L453.14,224.64L458.01,237.77L462.89,208.75L467.76,220.46L472.63,208.75L477.5,210.24L482.38,205.84L487.25,208.75L496.99,211.73L501.87,211.73L506.74,210.24L511.61,214.71L516.48,223.37L521.36,220.46L526.23,218.97L531.1,218.97L535.97,218.97L540.85,220.46L545.72,218.97L550.59,221.95L555.46,218.97L560.34,232.09L565.21,208.75L570.08,210.24L579.83,210.24L584.7,227.62L589.57,227.62L594.44,217.48L599.32,208.75L604.19,208.75L609.06,220.46L613.93,213.22L618.81,213.22L623.68,200.09L628.55,213.22L633.42,213.22L638.3,211.73L643.17,211.73L652.91,214.71L657.79,214.71L662.66,195.84L667.53,213.22L672.4,210.24L677.28,210.24L682.15,220.46L687.02,224.86L691.89,235.07L696.77,221.95L701.64,208.75L706.51,235.07L711.38,220.46L716.26,220.46L721.13,220.46L726,208.75" style="vector-effect: none; fill: none; stroke: rgb(255, 192, 203); stroke-opacity: 1; stroke-width: 2px; opacity: 1;"/></g><g class="points"/><g class="text"/></g><g class="trace scatter trace75d3f3" style="stroke-miterlimit: 2; opacity: 1;"><g class="fills"/><g class="errorbars"/><g class="lines"><path class="js-line" d="M0,358.96L53.6,358.96L58.47,345.83L63.34,339.45L68.21,303.97L73.09,261.33L77.96,252.39L82.83,252.39L87.7,234.72L92.58,248.63L97.45,248.63L102.32,252.39L107.19,226.91L112.07,218.26L116.94,222.59L121.81,205.77L126.68,205.77L131.56,154.26L136.43,183.49L141.3,159.01L146.17,149.08L151.05,159.01L155.92,145.81L160.79,145.81L165.66,125.59L170.54,133.18L175.41,128.64L180.28,131.62L185.15,144.04L190.03,124.17L194.9,118.5L199.77,130.06L204.64,119.99L209.52,136.31L214.39,131.48L219.26,114.38L224.13,122.82L229.01,128.57L233.88,117.29L238.75,132.97L243.62,122.82L248.5,110.41L253.37,106.51L258.24,102.11L263.11,101.4L267.99,102.39L272.86,107.43L277.73,107.71L282.6,92.74L287.48,102.18L292.35,107.64L297.22,99.55L302.09,101.82L306.97,98.7L311.84,105.02L316.71,107.14L321.58,103.31L326.46,102.39L331.33,96.5L336.2,97.85L341.07,97.85L345.95,100.83L350.82,99.62L365.44,98.35L370.31,94.66L375.18,93.38L380.05,96.08L384.93,92.88L389.8,102.39L399.54,98.35L404.42,100.26L409.29,94.73L414.16,94.3L419.03,98.35L423.91,97.42L428.78,106.01L433.65,95.58L438.52,94.23L443.4,98.84L448.27,95.15L453.14,96.5L458.01,97L462.89,93.52L467.76,91.39L472.63,90.61L477.5,89.05L482.38,94.37L487.25,97L492.12,96.15L496.99,94.51L501.87,91.61L506.74,94.94L511.61,102.82L516.48,92.39L521.36,92.74L526.23,97L531.1,89.26L535.97,90.12L540.85,95.65L545.72,95.65L550.59,96.5L555.46,90.19L560.34,91.04L565.21,88.77L570.08,94.16L579.83,94.37L584.7,96.08L594.44,98.27L599.32,93.02L604.19,97.85L609.06,93.38L618.81,92.1L623.68,89.33L628.55,92.1L633.42,90.33L638.3,89.05L643.17,91.11L648.04,90.61L652.91,99.13L657.79,101.61L662.66,101.18L667.53,93.88L672.4,85.15L677.28,90.61L682.15,92.24L687.02,89.62L691.89,87.99L696.77,95.29L701.64,91.39L706.51,95.79L711.38,90.9L716.26,93.52L721.13,91.39L726,94.94" style="vector-effect: none; fill: none; stroke: rgb(165, 42, 42); stroke-opacity: 1; stroke-width: 2px; opacity: 1;"/></g><g class="points"/><g class="text"/></g><g class="trace scatter trace9520ab" style="stroke-miterlimit: 2; opacity: 1;"><g class="fills"/><g class="errorbars"/><g class="lines"><path class="js-line" d="M0,358.67L63.34,358.67L68.21,332.71L73.09,332.71L77.96,271.47L82.83,268.07L87.7,271.47L92.58,268.07L97.45,271.47L102.32,268.07L107.19,271.47L116.94,271.47L121.81,252.46L126.68,252.46L131.56,234.51L136.43,252.46L141.3,234.51L160.79,234.51L165.66,238.62L170.54,234.51L175.41,238.62L180.28,238.62L185.15,234.51L190.03,234.51L194.9,206.12L199.77,234.51L204.64,210.74L209.52,201.37L214.39,206.12L219.26,215.14L224.13,210.74L233.88,210.74L238.75,206.12L243.62,206.12L248.5,215.14L253.37,215.14L258.24,231.1L263.11,221.38L267.99,209.39L272.86,219.32L277.73,219.32L282.6,238.27L287.48,244.94L292.35,239.83L297.22,236.78L306.97,230.32L311.84,223.44L316.71,223.44L321.58,232.16L326.46,235.57L331.33,230.32L336.2,233.58L341.07,230.32L345.95,233.58L350.82,226.91L355.69,226.91L360.56,232.16L365.44,235.57L370.31,228.69L375.18,233.58L380.05,215.42L384.93,219.89L389.8,226.91L394.67,226.91L399.54,219.89L404.42,225.07L409.29,223.44L414.16,232.16L419.03,232.16L423.91,216.2L428.78,223.44L433.65,221.38L438.52,217.48L443.4,200.24L448.27,212.44L453.14,212.44L458.01,225.07L462.89,214.99L467.76,222.37L472.63,214.99L477.5,218.4L482.38,207.97L487.25,214.99L496.99,221.66L501.87,221.66L506.74,218.4L511.61,228.05L516.48,228.97L521.36,222.37L526.23,218.97L531.1,218.97L535.97,218.97L540.85,222.37L545.72,218.97L550.59,225.71L555.46,218.97L560.34,230.32L565.21,214.99L570.08,218.4L579.83,218.4L584.7,219.89L589.57,219.89L594.44,215.42L604.19,214.99L609.06,222.37L613.93,224.86L618.81,224.86L623.68,214.85L628.55,224.86L633.42,224.86L638.3,221.66L643.17,221.66L648.04,224.86L652.91,228.05L657.79,228.05L662.66,224.22L667.53,224.86L672.4,218.4L677.28,218.4L682.15,222.37L687.02,232.09L691.89,236.78L696.77,225.71L701.64,214.99L706.51,236.78L711.38,222.37L716.26,222.37L721.13,222.37L726,214.99" style="vector-effect: none; fill: none; stroke: rgb(128, 128, 128); stroke-opacity: 1; stroke-width: 2px; opacity: 1;"/></g><g class="points"/><g class="text"/></g></g></g><g class="overplot"/><path class="xlines-above crisp" d="M0,0" style="fill: none;"/><path class="ylines-above crisp" d="M0,0" style="fill: none;"/><g class="overlines-above"/><g class="xaxislayer-above"><g class="xtick"><text text-anchor="middle" x="0" y="509" transform="translate(235.57999999999998,0)" style="font-family: 'Open Sans', verdana, arial, sans-serif; font-size: 12px; fill: rgb(42, 63, 95); fill-opacity: 1; white-space: pre; opacity: 1;">20</text></g><g class="xtick"><text text-anchor="middle" x="0" y="509" style="font-family: 'Open Sans', verdana, arial, sans-serif; font-size: 12px; fill: rgb(42, 63, 95); fill-opacity: 1; white-space: pre; opacity: 1;" transform="translate(333.03,0)">40</text></g><g class="xtick"><text text-anchor="middle" x="0" y="509" style="font-family: 'Open Sans', verdana, arial, sans-serif; font-size: 12px; fill: rgb(42, 63, 95); fill-opacity: 1; white-space: pre; opacity: 1;" transform="translate(430.48,0)">60</text></g><g class="xtick"><text text-anchor="middle" x="0" y="509" style="font-family: 'Open Sans', verdana, arial, sans-serif; font-size: 12px; fill: rgb(42, 63, 95); fill-opacity: 1; white-space: pre; opacity: 1;" transform="translate(527.9300000000001,0)">80</text></g><g class="xtick"><text text-anchor="middle" x="0" y="509" style="font-family: 'Open Sans', verdana, arial, sans-serif; font-size: 12px; fill: rgb(42, 63, 95); fill-opacity: 1; white-space: pre; opacity: 1;" transform="translate(625.38,0)">100</text></g><g class="xtick"><text text-anchor="middle" x="0" y="509" style="font-family: 'Open Sans', verdana, arial, sans-serif; font-size: 12px; fill: rgb(42, 63, 95); fill-opacity: 1; white-space: pre; opacity: 1;" transform="translate(722.83,0)">120</text></g><g class="xtick"><text text-anchor="middle" x="0" y="509" style="font-family: 'Open Sans', verdana, arial, sans-serif; font-size: 12px; fill: rgb(42, 63, 95); fill-opacity: 1; white-space: pre; opacity: 1;" transform="translate(820.28,0)">140</text></g></g><g class="yaxislayer-above"><g class="ytick"><text text-anchor="end" x="142" y="4.199999999999999" transform="translate(0,439.73)" style="font-family: 'Open Sans', verdana, arial, sans-serif; font-size: 12px; fill: rgb(42, 63, 95); fill-opacity: 1; white-space: pre; opacity: 1;">50</text></g><g class="ytick"><text text-anchor="end" x="142" y="4.199999999999999" style="font-family: 'Open Sans', verdana, arial, sans-serif; font-size: 12px; fill: rgb(42, 63, 95); fill-opacity: 1; white-space: pre; opacity: 1;" transform="translate(0,368.78)">60</text></g><g class="ytick"><text text-anchor="end" x="142" y="4.199999999999999" style="font-family: 'Open Sans', verdana, arial, sans-serif; font-size: 12px; fill: rgb(42, 63, 95); fill-opacity: 1; white-space: pre; opacity: 1;" transform="translate(0,297.82)">70</text></g><g class="ytick"><text text-anchor="end" x="142" y="4.199999999999999" style="font-family: 'Open Sans', verdana, arial, sans-serif; font-size: 12px; fill: rgb(42, 63, 95); fill-opacity: 1; white-space: pre; opacity: 1;" transform="translate(0,226.87)">80</text></g><g class="ytick"><text text-anchor="end" x="142" y="4.199999999999999" style="font-family: 'Open Sans', verdana, arial, sans-serif; font-size: 12px; fill: rgb(42, 63, 95); fill-opacity: 1; white-space: pre; opacity: 1;" transform="translate(0,155.92000000000002)">90</text></g></g><g class="overaxes-above"/></g></g><g class="polarlayer"/><g class="smithlayer"/><g class="ternarylayer"/><g class="geolayer"/><g class="funnelarealayer"/><g class="pielayer"/><g class="iciclelayer"/><g class="treemaplayer"/><g class="sunburstlayer"/><g class="glimages"/><defs id="topdefs-0c3741"><g class="clips"/><clipPath id="legend0c3741"><rect width="128" height="162" x="0" y="0"/></clipPath></defs><g class="layer-above"><g class="imagelayer"/><g class="shapelayer"/></g><g class="infolayer"><g class="legend" pointer-events="all" transform="translate(883.52,100)"><rect class="bg" shape-rendering="crispEdges" width="128" height="162" x="0" y="0" style="stroke: rgb(68, 68, 68); stroke-opacity: 1; fill: rgb(255, 255, 255); fill-opacity: 1; stroke-width: 0px;"/><g class="scrollbox" transform="" clip-path="url(#legend0c3741)"><g class="groups"><g class="traces" transform="translate(0,14.5)" style="opacity: 1;"><text class="legendtext" text-anchor="start" x="40" y="4.680000000000001" style="font-family: 'Open Sans', verdana, arial, sans-serif; font-size: 12px; fill: rgb(42, 63, 95); fill-opacity: 1; white-space: pre;">Train Accuracy</text><g class="layers" style="opacity: 1;"><g class="legendfill"/><g class="legendlines"><path class="js-line" d="M5,0h30" style="fill: none; stroke: rgb(255, 0, 0); stroke-opacity: 1; stroke-width: 2px;"/></g><g class="legendsymbols"><g class="legendpoints"/></g></g><rect class="legendtoggle" x="0" y="-9.5" width="122.71875" height="19" style="fill: rgb(0, 0, 0); fill-opacity: 0;"/></g><g class="traces" transform="translate(0,33.5)" style="opacity: 1;"><text class="legendtext" text-anchor="start" x="40" y="4.680000000000001" style="font-family: 'Open Sans', verdana, arial, sans-serif; font-size: 12px; fill: rgb(42, 63, 95); fill-opacity: 1; white-space: pre;">Test Accuracy</text><g class="layers" style="opacity: 1;"><g class="legendfill"/><g class="legendlines"><path class="js-line" d="M5,0h30" style="fill: none; stroke: rgb(0, 0, 255); stroke-opacity: 1; stroke-width: 2px;"/></g><g class="legendsymbols"><g class="legendpoints"/></g></g><rect class="legendtoggle" x="0" y="-9.5" width="122.71875" height="19" style="fill: rgb(0, 0, 0); fill-opacity: 0;"/></g><g class="traces" transform="translate(0,52.5)" style="opacity: 1;"><text class="legendtext" text-anchor="start" x="40" y="4.680000000000001" style="font-family: 'Open Sans', verdana, arial, sans-serif; font-size: 12px; fill: rgb(42, 63, 95); fill-opacity: 1; white-space: pre;">Train Precision</text><g class="layers" style="opacity: 1;"><g class="legendfill"/><g class="legendlines"><path class="js-line" d="M5,0h30" style="fill: none; stroke: rgb(0, 128, 0); stroke-opacity: 1; stroke-width: 2px;"/></g><g class="legendsymbols"><g class="legendpoints"/></g></g><rect class="legendtoggle" x="0" y="-9.5" width="122.71875" height="19" style="fill: rgb(0, 0, 0); fill-opacity: 0;"/></g><g class="traces" transform="translate(0,71.5)" style="opacity: 1;"><text class="legendtext" text-anchor="start" x="40" y="4.680000000000001" style="font-family: 'Open Sans', verdana, arial, sans-serif; font-size: 12px; fill: rgb(42, 63, 95); fill-opacity: 1; white-space: pre;">Test Precision</text><g class="layers" style="opacity: 1;"><g class="legendfill"/><g class="legendlines"><path class="js-line" d="M5,0h30" style="fill: none; stroke: rgb(255, 165, 0); stroke-opacity: 1; stroke-width: 2px;"/></g><g class="legendsymbols"><g class="legendpoints"/></g></g><rect class="legendtoggle" x="0" y="-9.5" width="122.71875" height="19" style="fill: rgb(0, 0, 0); fill-opacity: 0;"/></g><g class="traces" transform="translate(0,90.5)" style="opacity: 1;"><text class="legendtext" text-anchor="start" x="40" y="4.680000000000001" style="font-family: 'Open Sans', verdana, arial, sans-serif; font-size: 12px; fill: rgb(42, 63, 95); fill-opacity: 1; white-space: pre;">Train Recall</text><g class="layers" style="opacity: 1;"><g class="legendfill"/><g class="legendlines"><path class="js-line" d="M5,0h30" style="fill: none; stroke: rgb(128, 0, 128); stroke-opacity: 1; stroke-width: 2px;"/></g><g class="legendsymbols"><g class="legendpoints"/></g></g><rect class="legendtoggle" x="0" y="-9.5" width="122.71875" height="19" style="fill: rgb(0, 0, 0); fill-opacity: 0;"/></g><g class="traces" transform="translate(0,109.5)" style="opacity: 1;"><text class="legendtext" text-anchor="start" x="40" y="4.680000000000001" style="font-family: 'Open Sans', verdana, arial, sans-serif; font-size: 12px; fill: rgb(42, 63, 95); fill-opacity: 1; white-space: pre;">Test Recall</text><g class="layers" style="opacity: 1;"><g class="legendfill"/><g class="legendlines"><path class="js-line" d="M5,0h30" style="fill: none; stroke: rgb(255, 192, 203); stroke-opacity: 1; stroke-width: 2px;"/></g><g class="legendsymbols"><g class="legendpoints"/></g></g><rect class="legendtoggle" x="0" y="-9.5" width="122.71875" height="19" style="fill: rgb(0, 0, 0); fill-opacity: 0;"/></g><g class="traces" transform="translate(0,128.5)" style="opacity: 1;"><text class="legendtext" text-anchor="start" x="40" y="4.680000000000001" style="font-family: 'Open Sans', verdana, arial, sans-serif; font-size: 12px; fill: rgb(42, 63, 95); fill-opacity: 1; white-space: pre;">Train F1</text><g class="layers" style="opacity: 1;"><g class="legendfill"/><g class="legendlines"><path class="js-line" d="M5,0h30" style="fill: none; stroke: rgb(165, 42, 42); stroke-opacity: 1; stroke-width: 2px;"/></g><g class="legendsymbols"><g class="legendpoints"/></g></g><rect class="legendtoggle" x="0" y="-9.5" width="122.71875" height="19" style="fill: rgb(0, 0, 0); fill-opacity: 0;"/></g><g class="traces" transform="translate(0,147.5)" style="opacity: 1;"><text class="legendtext" text-anchor="start" x="40" y="4.680000000000001" style="font-family: 'Open Sans', verdana, arial, sans-serif; font-size: 12px; fill: rgb(42, 63, 95); fill-opacity: 1; white-space: pre;">Test F1</text><g class="layers" style="opacity: 1;"><g class="legendfill"/><g class="legendlines"><path class="js-line" d="M5,0h30" style="fill: none; stroke: rgb(128, 128, 128); stroke-opacity: 1; stroke-width: 2px;"/></g><g class="legendsymbols"><g class="legendpoints"/></g></g><rect class="legendtoggle" x="0" y="-9.5" width="122.71875" height="19" style="fill: rgb(0, 0, 0); fill-opacity: 0;"/></g></g></g><rect class="scrollbar" rx="20" ry="3" width="0" height="0" x="0" y="0" style="fill: rgb(128, 139, 164); fill-opacity: 1;"/></g><g class="g-gtitle"><text class="gtitle" x="51.2" y="50" text-anchor="start" dy="0em" style="font-family: 'Open Sans', verdana, arial, sans-serif; font-size: 17px; fill: rgb(42, 63, 95); opacity: 1; font-weight: normal; white-space: pre;">Training Metrics - logs/fake-news-datasets-deception-Election-Day_num-clauses=10000_max-vocab=15000_pre=v2_text_T=200_s=15.log</text></g><g class="g-xtitle"><text class="xtitle" x="506" y="537.3" text-anchor="middle" style="font-family: 'Open Sans', verdana, arial, sans-serif; font-size: 14px; fill: rgb(42, 63, 95); opacity: 1; font-weight: normal; white-space: pre;">Epoch</text></g><g class="g-ytitle"><text class="ytitle" transform="rotate(-90,103.965625,298)" x="103.965625" y="298" text-anchor="middle" style="font-family: 'Open Sans', verdana, arial, sans-serif; font-size: 14px; fill: rgb(42, 63, 95); opacity: 1; font-weight: normal; white-space: pre;">Metric Score</text></g></g><g class="menulayer"><g class="updatemenu-container" style="cursor: pointer;"><g class="updatemenu-header-group" transform="translate(12,60)"><g class="updatemenu-header" transform="translate(1,1)" style="pointer-events: all;"><rect class="updatemenu-item-rect" rx="2" ry="2" shape-rendering="crispEdges" x="0" y="0" width="167" height="33" style="stroke: rgb(190, 200, 217); stroke-opacity: 1; fill: rgb(255, 255, 255); fill-opacity: 1; stroke-width: 1px;"/><text class="updatemenu-item-text" text-anchor="start" data-notex="1" x="12" y="19.5" style="font-family: 'Open Sans', verdana, arial, sans-serif; font-size: 12px; fill: rgb(42, 63, 95); fill-opacity: 1; white-space: pre;">All</text></g><text class="updatemenu-header-arrow" text-anchor="end" x="163" y="19.5" style="font-family: 'Open Sans', verdana, arial, sans-serif; font-size: 12px; fill: rgb(42, 63, 95); fill-opacity: 1;">▼</text></g><g class="updatemenu-dropdown-button-group" updatemenu-active-index="-1" style="pointer-events: all;"><rect class="scrollbox-bg" opacity="0" x="0" y="0" width="0" height="0" style="pointer-events: all;"/></g></g></g></svg>