<svg class="main-svg" xmlns="http://www.w3.org/2000/svg" xmlns:xlink="http://www.w3.org/1999/xlink" width="1024" height="576" style="" viewBox="0 0 1024 576"><rect x="0" y="0" width="1024" height="576" style="fill: rgb(255, 255, 255); fill-opacity: 1;"/><defs id="defs-fa0d97"><g class="clips"><clipPath id="clipfa0d97xyplot" class="plotclip"><rect width="720" height="396"/></clipPath><clipPath class="axesclip" id="clipfa0d97x"><rect x="150" y="0" width="720" height="576"/></clipPath><clipPath class="axesclip" id="clipfa0d97y"><rect x="0" y="100" width="1024" height="396"/></clipPath><clipPath class="axesclip" id="clipfa0d97xy"><rect x="150" y="100" width="720" height="396"/></clipPath></g><g class="gradients"/><g class="patterns"/></defs><g class="bglayer"><rect class="bg" x="150" y="100" width="720" height="396" style="fill: rgb(229, 236, 246); fill-opacity: 1; stroke-width: 0;"/></g><g class="layer-below"><g class="imagelayer"/><g class="shapelayer"/></g><g class="cartesianlayer"><g class="subplot xy"><g class="layer-subplot"><g class="shapelayer"/><g class="imagelayer"/></g><g class="minor-gridlayer"><g class="x"/><g class="y"/></g><g class="gridlayer"><g class="x"><path class="xgrid crisp" transform="translate(241.81,0)" d="M0,100v396" style="stroke: rgb(255, 255, 255); stroke-opacity: 1; stroke-width: 1px;"/><path class="xgrid crisp" transform="translate(338.46000000000004,0)" d="M0,100v396" style="stroke: rgb(255, 255, 255); stroke-opacity: 1; stroke-width: 1px;"/><path class="xgrid crisp" transform="translate(435.1,0)" d="M0,100v396" style="stroke: rgb(255, 255, 255); stroke-opacity: 1; stroke-width: 1px;"/><path class="xgrid crisp" transform="translate(531.74,0)" d="M0,100v396" style="stroke: rgb(255, 255, 255); stroke-opacity: 1; stroke-width: 1px;"/><path class="xgrid crisp" transform="translate(628.39,0)" d="M0,100v396" style="stroke: rgb(255, 255, 255); stroke-opacity: 1; stroke-width: 1px;"/><path class="xgrid crisp" transform="translate(725.03,0)" d="M0,100v396" style="stroke: rgb(255, 255, 255); stroke-opacity: 1; stroke-width: 1px;"/><path class="xgrid crisp" transform="translate(821.68,0)" d="M0,100v396" style="stroke: rgb(255, 255, 255); stroke-opacity: 1; stroke-width: 1px;"/></g><g class="y"><path class="ygrid crisp" transform="translate(0,470.33)" d="M150,0h720" style="stroke: rgb(255, 255, 255); stroke-opacity: 1; stroke-width: 1px;"/><path class="ygrid crisp" transform="translate(0,409.87)" d="M150,0h720" style="stroke: rgb(255, 255, 255); stroke-opacity: 1; stroke-width: 1px;"/><path class="ygrid crisp" transform="translate(0,349.4)" d="M150,0h720" style="stroke: rgb(255, 255, 255); stroke-opacity: 1; stroke-width: 1px;"/><path class="ygrid crisp" transform="translate(0,288.93)" d="M150,0h720" style="stroke: rgb(255, 255, 255); stroke-opacity: 1; stroke-width: 1px;"/><path class="ygrid crisp" transform="translate(0,228.46)" d="M150,0h720" style="stroke: rgb(255, 255, 255); stroke-opacity: 1; stroke-width: 1px;"/><path class="ygrid crisp" transform="translate(0,167.99)" d="M150,0h720" style="stroke: rgb(255, 255, 255); stroke-opacity: 1; stroke-width: 1px;"/><path class="ygrid crisp" transform="translate(0,107.52)" d="M150,0h720" style="stroke: rgb(255, 255, 255); stroke-opacity: 1; stroke-width: 1px;"/></g></g><g class="zerolinelayer"/><path class="xlines-below"/><path class="ylines-below"/><g class="overlines-below"/><g class="xaxislayer-below"/><g class="yaxislayer-below"/><g class="overaxes-below"/><g class="plot" transform="translate(150,100)" clip-path="url(#clipfa0d97xyplot)"><g class="scatterlayer mlayer"><g class="trace scatter tracef72bb8" style="stroke-miterlimit: 2; opacity: 1;"><g class="fills"/><g class="errorbars"/><g class="lines"><path class="js-line" d="M0,200.66L19.33,200.66L24.16,185.6L28.99,144.79L33.83,93.93L38.66,163.41L43.49,159.84L48.32,174.9L53.15,181.31L57.99,183.49L62.82,187.06L67.65,187.06L72.48,177.02L77.32,177.74L82.15,179.92L86.98,179.19L91.81,182.04L96.64,173.45L101.48,41.63L106.31,59.53L111.14,48.76L115.97,52.39L120.81,70.29L125.64,72.41L130.47,66L135.3,66.72L140.13,39.45L144.97,40.18L149.8,37.34L154.63,37.34L159.46,53.78L164.3,49.49L169.13,38.79L173.96,36.61L178.79,63.1L183.62,60.25L188.46,64.55L193.29,63.1L198.12,60.25L202.95,55.23L207.79,60.25L212.62,58.08L217.45,60.25L222.28,57.41L227.11,60.25L231.95,53.12L236.78,61.7L246.44,54.51L251.28,53.12L256.11,56.69L260.94,53.12L265.77,53.12L270.6,51.67L275.44,59.53L280.27,56.69L285.1,92.48L289.93,97.5L294.77,91.76L299.6,92.48L304.43,86.74L309.26,50.94L318.93,53.12L323.76,50.94L333.42,50.22L338.26,51.67L343.09,55.96L347.92,48.76L357.58,45.2L362.42,49.49L367.25,48.76L372.08,49.49L376.91,50.22L381.74,49.49L386.58,50.94L391.41,48.1L396.24,46.65L401.07,48.76L405.91,48.1L410.74,50.22L415.57,48.76L420.4,48.1L425.23,48.1L430.07,50.94L434.9,49.49L439.73,50.94L449.4,49.49L454.23,51.67L459.06,49.49L463.89,49.49L468.72,48.76L473.56,50.94L483.22,48.76L488.05,44.47L492.89,46.65L497.72,45.92L502.55,45.2L507.38,45.92L512.21,43.81L517.05,43.08L521.88,43.81L526.71,42.35L531.54,43.08L536.38,45.92L541.21,43.81L546.04,43.08L550.87,46.65L555.7,48.1L565.37,43.08L570.2,43.81L575.03,44.47L579.87,48.1L584.7,48.76L589.53,45.92L604.03,45.2L608.86,44.47L613.69,45.92L618.52,45.92L623.36,43.08L628.19,44.47L633.02,43.08L637.85,46.65L642.68,43.81L647.52,44.47L652.35,43.08L657.18,43.81L662.01,44.47L666.85,46.65L676.51,42.35L681.34,42.35L686.17,98.95L691.01,103.25L695.84,106.81L700.67,111.83L705.5,113.28L710.34,113.28L715.17,114.74L720,114.74" style="vector-effect: none; fill: none; stroke: rgb(255, 0, 0); stroke-opacity: 1; stroke-width: 2px; opacity: 1;"/></g><g class="points"/><g class="text"/></g><g class="trace scatter tracef227bf" style="stroke-miterlimit: 2; opacity: 1;"><g class="fills"/><g class="errorbars"/><g class="lines"><path class="js-line" d="M0,169.52L19.33,169.52L24.16,152.41L28.99,129.61L33.83,118.18L38.66,138.14L43.49,129.61L48.32,135.29L53.15,143.88L67.65,143.88L72.48,135.29L77.32,138.14L82.15,138.14L86.98,138.14L91.81,141.04L96.64,135.29L101.48,101.07L106.31,106.81L111.14,106.81L120.81,95.39L125.64,95.39L130.47,92.54L135.3,98.23L140.13,103.91L144.97,101.07L149.8,98.23L154.63,101.07L159.46,101.07L164.3,95.39L169.13,98.23L173.96,103.91L178.79,89.64L183.62,95.39L188.46,95.39L193.29,92.54L198.12,101.07L202.95,92.54L207.79,89.64L212.62,98.23L217.45,98.23L222.28,92.54L227.11,95.39L231.95,95.39L236.78,98.23L241.61,92.54L246.44,89.64L251.28,92.54L256.11,95.39L260.94,89.64L270.6,95.39L275.44,95.39L280.27,92.54L285.1,106.81L289.93,106.81L294.77,103.91L299.6,106.81L304.43,98.23L309.26,92.54L314.09,89.64L318.93,92.54L323.76,86.8L338.26,86.8L343.09,92.54L347.92,89.64L352.75,89.64L357.58,89.64L362.42,92.54L372.08,92.54L376.91,89.64L386.58,89.64L391.41,86.8L396.24,89.64L401.07,89.64L405.91,89.64L410.74,92.54L415.57,89.64L420.4,89.64L425.23,86.8L430.07,86.8L439.73,86.8L444.56,89.64L454.23,95.39L459.06,92.54L463.89,92.54L468.72,86.8L473.56,86.8L478.39,89.64L483.22,89.64L488.05,86.8L492.89,86.8L497.72,89.64L502.55,89.64L507.38,86.8L517.05,86.8L521.88,89.64L526.71,86.8L531.54,89.64L536.38,89.64L541.21,86.8L546.04,89.64L550.87,89.64L555.7,92.54L560.54,92.54L570.2,86.8L575.03,89.64L579.87,89.64L584.7,92.54L589.53,89.64L594.36,92.54L604.03,92.54L608.86,89.64L613.69,95.39L618.52,95.39L628.19,89.64L633.02,92.54L637.85,95.39L642.68,89.64L647.52,95.39L652.35,89.64L662.01,89.64L666.85,95.39L671.68,89.64L676.51,89.64L681.34,89.64L686.17,106.81L691.01,118.18L695.84,115.34L700.67,123.93L705.5,112.5L715.17,118.18L720,112.5" style="vector-effect: none; fill: none; stroke: rgb(0, 0, 255); stroke-opacity: 1; stroke-width: 2px; opacity: 1;"/></g><g class="points"/><g class="text"/></g><g class="trace scatter trace0e759d" style="stroke-miterlimit: 2; opacity: 1;"><g class="fills"/><g class="errorbars"/><g class="lines"><path class="js-line" d="M0,376.2L19.33,376.2L24.16,93.45L28.99,66.48L33.83,65.51L38.66,72.95L43.49,75.25L48.32,66.06L53.15,87.4L57.99,90.19L62.82,69.81L67.65,69.81L72.48,89.76L77.32,90.61L82.15,93.33L86.98,85.05L91.81,96.41L96.64,85.95L101.48,27L106.31,29.78L111.14,27.9L115.97,26.57L120.81,73.5L125.64,75.79L130.47,69.08L135.3,69.32L140.13,21.86L144.97,22.34L149.8,24.64L154.63,22.58L159.46,29.35L164.3,29.23L169.13,19.8L173.96,22.82L178.79,65.39L183.62,61.95L188.46,66L193.29,64.79L198.12,62.55L202.95,57.11L207.79,61.95L212.62,60.13L217.45,61.95L222.28,58.8L227.11,61.46L231.95,55.11L236.78,64.49L246.44,56.56L251.28,54.81L256.11,57.53L260.94,54.09L265.77,54.81L270.6,52.94L275.44,61.16L280.27,57.96L285.1,40.84L289.93,48.34L294.77,43.75L299.6,44.11L304.43,39.57L309.26,51.91L318.93,54.45L323.76,52.45L328.59,51.24L333.42,51.61L338.26,52.33L343.09,57.29L347.92,50.09L352.75,48.95L357.58,46.83L362.42,51.3L367.25,50.46L372.08,51.85L376.91,52.39L381.74,51.3L386.58,52.94L391.41,49.25L396.24,48.28L401.07,50.28L405.91,49.79L410.74,52.27L415.57,50.28L420.4,49.25L425.23,49.43L430.07,52.63L434.9,51.55L439.73,52.63L449.4,51.3L454.23,53.6L459.06,50.94L463.89,50.58L468.72,50.28L473.56,52.45L483.22,50.46L488.05,45.44L492.89,48.16L497.72,47.62L507.38,46.71L512.21,44.35L517.05,43.68L521.88,45.14L526.71,43.44L531.54,44.47L536.38,47.31L541.21,45.14L546.04,44.11L550.87,48.58L555.7,50.09L560.54,47.62L565.37,44.47L570.2,44.59L575.03,45.8L579.87,49.91L584.7,50.76L589.53,47.8L594.36,47.8L599.19,46.53L608.86,45.44L613.69,47.62L618.52,47.62L623.36,44.29L628.19,45.98L633.02,44.29L637.85,48.58L642.68,45.14L647.52,46.16L652.35,44.47L662.01,45.98L666.85,48.28L676.51,43.44L681.34,43.44L686.17,43.99L691.01,46.04L700.67,50.16L705.5,50.82L710.34,50.82L715.17,49.37L720,49.37" style="vector-effect: none; fill: none; stroke: rgb(0, 128, 0); stroke-opacity: 1; stroke-width: 2px; opacity: 1;"/></g><g class="points"/><g class="text"/></g><g class="trace scatter trace583677" style="stroke-miterlimit: 2; opacity: 1;"><g class="fills"/><g class="errorbars"/><g class="lines"><path class="js-line" d="M0,360.66L19.33,360.66L24.16,52.76L28.99,44.77L33.83,66.84L38.66,47.86L43.49,44.77L48.32,46.83L53.15,49.85L67.65,49.85L72.48,46.83L77.32,47.86L82.15,47.86L86.98,47.86L91.81,48.82L96.64,46.83L101.48,54.09L106.31,48.1L111.14,58.08L115.97,44.83L120.81,99.44L125.64,98.17L130.47,95.93L135.3,102.88L140.13,56.08L144.97,44.83L149.8,52.15L154.63,62.01L159.46,44.83L164.3,31.59L169.13,32.74L173.96,56.08L178.79,93.69L183.62,100.53L188.46,99.44L193.29,95.93L198.12,103.91L202.95,95.93L207.79,93.69L212.62,102.88L217.45,102.88L222.28,97.14L227.11,100.53L231.95,99.44L236.78,101.67L241.61,97.14L246.44,93.69L251.28,95.93L256.11,100.53L260.94,94.84L265.77,95.93L270.6,99.44L275.44,99.44L280.27,97.14L285.1,48.1L289.93,36.19L294.77,35.04L299.6,48.1L304.43,32.74L309.26,97.14L314.09,93.69L318.93,97.14L323.76,91.39L338.26,91.39L343.09,97.14L347.92,93.69L352.75,93.69L357.58,93.69L362.42,95.93L372.08,95.93L376.91,93.69L386.58,93.69L391.41,91.39L396.24,93.69L401.07,93.69L405.91,93.69L410.74,95.93L415.57,93.69L420.4,93.69L425.23,91.39L430.07,91.39L439.73,91.39L444.56,94.84L449.4,95.93L454.23,99.44L459.06,95.93L463.89,95.93L468.72,91.39L473.56,91.39L478.39,93.69L483.22,93.69L488.05,91.39L492.89,91.39L497.72,93.69L502.55,93.69L507.38,91.39L512.21,91.39L517.05,91.39L521.88,93.69L526.71,91.39L531.54,93.69L536.38,93.69L541.21,91.39L546.04,93.69L550.87,93.69L555.7,95.93L560.54,95.93L570.2,91.39L575.03,93.69L579.87,93.69L584.7,95.93L589.53,93.69L594.36,95.93L599.19,97.14L604.03,97.14L608.86,93.69L613.69,98.17L618.52,98.17L623.36,95.93L628.19,93.69L633.02,95.93L637.85,98.17L642.68,93.69L647.52,98.17L652.35,93.69L662.01,93.69L666.85,98.17L671.68,93.69L676.51,93.69L681.34,93.69L686.17,36.19L691.01,40.54L695.84,39.45L700.67,42.72L705.5,38.36L715.17,40.54L720,38.36" style="vector-effect: none; fill: none; stroke: rgb(255, 165, 0); stroke-opacity: 1; stroke-width: 2px; opacity: 1;"/></g><g class="points"/><g class="text"/></g><g class="trace scatter trace87f8a5" style="stroke-miterlimit: 2; opacity: 1;"><g class="fills"/><g class="errorbars"/><g class="lines"><path class="js-line" d="M0,249.4L19.33,249.4L24.16,231.02L28.99,182.1L33.83,117.15L38.66,204.53L43.49,200L48.32,218.68L53.15,225.88L57.99,228.42L62.82,233.19L67.65,233.19L72.48,220.49L77.32,221.34L82.15,223.94L86.98,223.28L91.81,226.48L96.64,216.26L101.48,55.54L106.31,79.24L111.14,65.27L115.97,70.47L120.81,74.04L125.64,75.43L130.47,69.38L135.3,71.68L140.13,54.15L144.97,54.99L149.8,50.16L154.63,50.88L159.46,71.68L164.3,65.88L169.13,53.78L173.96,49.79L178.79,68.36L183.62,66.12L188.46,71.26L193.29,69.32L198.12,65.15L202.95,60.37L207.79,66.12L212.62,63.34L217.45,66.12L222.28,63.4L227.11,66.84L231.95,57.83L236.78,65.7L241.61,63.34L246.44,59.29L251.28,58.32L256.11,63.28L260.94,59.23L265.77,58.32L270.6,57.29L275.44,65.51L280.27,62.79L285.1,119.69L289.93,125.01L294.77,118.42L299.6,119.27L304.43,112.68L309.26,56.93L314.09,57.05L318.93,58.74L323.76,56.2L333.42,55.6L338.26,58.02L343.09,61.95L347.92,54.09L357.58,49.85L362.42,54.27L372.08,53.3L376.91,54.39L381.74,54.27L386.58,55.48L396.24,51.3L401.07,53.9L405.91,52.76L410.74,54.63L420.4,53.48L425.23,53.24L430.07,55.96L434.9,53.78L439.73,55.96L444.56,55.36L449.4,54.27L454.23,56.32L459.06,54.75L463.89,55.17L468.72,53.9L473.56,56.2L478.39,55.36L483.22,53.66L488.05,49.91L492.89,51.55L502.55,49.85L507.38,51.67L512.21,49.55L517.05,48.7L521.88,48.58L526.71,47.37L531.54,47.74L536.38,50.94L541.21,48.58L546.04,48.22L550.87,50.82L555.7,52.33L560.54,50.46L565.37,47.74L570.2,49.31L575.03,49.49L579.87,52.57L584.7,53.18L589.53,50.22L594.36,50.22L599.19,51.91L604.03,50.58L608.86,49.91L613.69,50.46L618.52,50.46L623.36,47.98L628.19,49.25L633.02,47.98L637.85,50.82L642.68,48.58L647.52,49.01L652.35,47.74L662.01,49.25L666.85,51.3L676.51,47.37L681.34,47.37L686.17,127.43L691.01,132.51L695.84,136.81L700.67,142.79L705.5,144.49L710.34,144.49L715.17,146.42L720,146.42" style="vector-effect: none; fill: none; stroke: rgb(128, 0, 128); stroke-opacity: 1; stroke-width: 2px; opacity: 1;"/></g><g class="points"/><g class="text"/></g><g class="trace scatter trace4b1500" style="stroke-miterlimit: 2; opacity: 1;"><g class="fills"/><g class="errorbars"/><g class="lines"><path class="js-line" d="M0,249.4L19.33,249.4L24.16,226.12L28.99,195.16L33.83,176.41L38.66,206.77L43.49,195.16L48.32,202.9L53.15,214.51L67.65,214.51L72.48,202.9L77.32,206.77L82.15,206.77L86.98,206.77L91.81,210.64L96.64,202.9L101.48,153.13L106.31,162.51L111.14,160.87L115.97,154.77L120.81,88.67L130.47,84.8L135.3,92.54L140.13,157L144.97,154.77L149.8,149.26L154.63,151.5L159.46,154.77L164.3,148.6L173.96,157L178.79,82.57L183.62,90.31L188.46,88.67L193.29,84.8L198.12,93.21L202.95,84.8L207.79,82.57L212.62,92.54L217.45,92.54L222.28,86.44L227.11,90.31L231.95,88.67L236.78,90.91L246.44,82.57L251.28,84.8L256.11,90.31L260.94,84.2L265.77,84.8L270.6,88.67L275.44,88.67L280.27,86.44L285.1,162.51L289.93,164.14L294.77,160.27L299.6,162.51L304.43,152.47L309.26,86.44L314.09,82.57L318.93,86.44L323.76,80.27L328.59,80.27L338.26,80.27L343.09,86.44L347.92,82.57L352.75,82.57L357.58,82.57L362.42,84.8L372.08,84.8L376.91,82.57L386.58,82.57L391.41,80.27L396.24,82.57L401.07,82.57L405.91,82.57L410.74,84.8L415.57,82.57L420.4,82.57L425.23,80.27L430.07,80.27L439.73,80.27L444.56,84.2L449.4,84.8L454.23,88.67L459.06,84.8L463.89,84.8L468.72,80.27L473.56,80.27L478.39,82.57L483.22,82.57L488.05,80.27L492.89,80.27L497.72,82.57L502.55,82.57L507.38,80.27L512.21,80.27L517.05,80.27L521.88,82.57L526.71,80.27L531.54,82.57L536.38,82.57L541.21,80.27L546.04,82.57L550.87,82.57L555.7,84.8L560.54,84.8L570.2,80.27L575.03,82.57L579.87,82.57L584.7,84.8L589.53,82.57L594.36,84.8L599.19,86.44L604.03,86.44L608.86,82.57L613.69,87.04L618.52,87.04L623.36,84.8L628.19,82.57L633.02,84.8L637.85,87.04L642.68,82.57L647.52,87.04L652.35,82.57L662.01,82.57L666.85,87.04L671.68,82.57L676.51,82.57L681.34,82.57L686.17,164.14L691.01,179.62L695.84,175.75L700.67,187.36L705.5,171.88L715.17,179.62L720,171.88" style="vector-effect: none; fill: none; stroke: rgb(255, 192, 203); stroke-opacity: 1; stroke-width: 2px; opacity: 1;"/></g><g class="points"/><g class="text"/></g><g class="trace scatter trace7ca0cc" style="stroke-miterlimit: 2; opacity: 1;"><g class="fills"/><g class="errorbars"/><g class="lines"><path class="js-line" d="M0,329.64L19.33,329.64L24.16,289.61L33.83,114.98L38.66,241.17L43.49,233.07L48.32,267.66L53.15,279.75L57.99,284.65L62.82,295.6L67.65,295.6L72.48,268.93L77.32,270.5L82.15,275.28L86.98,274.86L91.81,280.12L96.64,261.19L101.48,49.37L106.31,73.13L111.14,58.74L115.97,63.88L120.81,73.8L125.64,75.61L130.47,69.26L135.3,70.65L140.13,47.55L144.97,48.4L149.8,44.17L154.63,44.59L159.46,65.27L164.3,59.47L169.13,46.95L173.96,43.62L178.79,67.15L183.62,64.49L188.46,69.26L193.29,67.57L198.12,64.06L202.95,59.04L207.79,64.49L212.62,62.01L217.45,64.49L222.28,61.58L227.11,64.79L231.95,56.63L236.78,65.15L241.61,62.01L246.44,58.14L251.28,56.87L256.11,61.16L260.94,57.23L265.77,56.87L270.6,55.54L275.44,63.76L280.27,60.92L285.1,119.33L289.93,125.44L294.77,117.52L299.6,118.54L304.43,110.74L309.26,54.99L314.09,55.48L318.93,57.05L323.76,54.69L328.59,54.15L333.42,53.96L338.26,55.84L343.09,60.13L347.92,52.51L357.58,48.52L362.42,53L367.25,52.27L372.08,52.63L376.91,53.48L381.74,53L386.58,54.39L391.41,51.79L396.24,50.03L401.07,52.39L405.91,51.49L410.74,53.6L420.4,51.79L425.23,51.67L430.07,54.57L434.9,52.82L439.73,54.57L444.56,53.9L449.4,53L454.23,55.17L459.06,53.18L463.89,53.36L468.72,52.39L473.56,54.69L478.39,53.9L483.22,52.27L488.05,48.1L492.89,50.09L502.55,48.52L507.38,49.73L512.21,47.49L517.05,46.71L521.88,47.13L526.71,45.74L531.54,46.35L536.38,49.43L541.21,47.13L546.04,46.53L550.87,49.85L555.7,51.3L560.54,49.25L565.37,46.35L575.03,47.92L579.87,51.42L584.7,52.09L589.53,49.13L599.19,49.79L604.03,48.82L608.86,48.1L613.69,49.25L618.52,49.25L623.36,46.47L628.19,47.86L633.02,46.47L637.85,49.85L642.68,47.13L647.52,47.74L652.35,46.35L662.01,47.86L666.85,50.03L676.51,45.74L681.34,45.74L686.17,128.76L691.01,135.23L695.84,140.68L700.67,148.48L705.5,150.71L710.34,150.71L715.17,153.56L720,153.56" style="vector-effect: none; fill: none; stroke: rgb(165, 42, 42); stroke-opacity: 1; stroke-width: 2px; opacity: 1;"/></g><g class="points"/><g class="text"/></g><g class="trace scatter tracebe83ff" style="stroke-miterlimit: 2; opacity: 1;"><g class="fills"/><g class="errorbars"/><g class="lines"><path class="js-line" d="M0,317.55L19.33,317.55L24.16,270.26L28.99,215.66L33.83,184.46L38.66,235.13L43.49,215.66L48.32,228.54L53.15,248.73L67.65,248.73L72.48,228.54L77.32,235.13L82.15,235.13L86.98,235.13L91.81,241.9L96.64,228.54L101.48,152.41L106.31,165.65L111.14,162.75L115.97,155.07L120.81,99.32L125.64,98.83L130.47,96.11L135.3,102.46L140.13,157.55L144.97,155.07L149.8,147.39L154.63,149.87L159.46,155.07L164.3,147.33L169.13,152.53L173.96,157.55L178.79,93.45L183.62,99.8L188.46,99.32L193.29,96.11L198.12,104.7L202.95,96.11L207.79,93.45L212.62,102.46L217.45,102.46L222.28,96.59L227.11,99.8L231.95,99.32L236.78,101.98L241.61,96.59L246.44,93.45L251.28,96.11L256.11,99.8L260.94,93.93L265.77,96.11L270.6,99.32L275.44,99.32L280.27,96.59L285.1,165.65L289.93,168.61L294.77,163.17L299.6,165.65L304.43,152.53L309.26,96.59L314.09,93.45L318.93,96.59L323.76,90.73L338.26,90.73L343.09,96.59L347.92,93.45L352.75,93.45L357.58,93.45L362.42,96.11L372.08,96.11L376.91,93.45L386.58,93.45L391.41,90.73L396.24,93.45L401.07,93.45L405.91,93.45L410.74,96.11L415.57,93.45L420.4,93.45L425.23,90.73L430.07,90.73L439.73,90.73L444.56,93.93L449.4,96.11L454.23,99.32L459.06,96.11L463.89,96.11L468.72,90.73L473.56,90.73L478.39,93.45L483.22,93.45L488.05,90.73L492.89,90.73L497.72,93.45L502.55,93.45L507.38,90.73L512.21,90.73L517.05,90.73L521.88,93.45L526.71,90.73L531.54,93.45L536.38,93.45L541.21,90.73L546.04,93.45L550.87,93.45L555.7,96.11L560.54,96.11L570.2,90.73L575.03,93.45L579.87,93.45L584.7,96.11L589.53,93.45L594.36,96.11L604.03,96.59L608.86,93.45L613.69,98.83L618.52,98.83L628.19,93.45L633.02,96.11L637.85,98.83L642.68,93.45L647.52,98.83L652.35,93.45L662.01,93.45L666.85,98.83L671.68,93.45L676.51,93.45L681.34,93.45L686.17,168.61L691.01,191.35L695.84,185.48L700.67,203.26L705.5,179.8L715.17,191.35L720,179.8" style="vector-effect: none; fill: none; stroke: rgb(128, 128, 128); stroke-opacity: 1; stroke-width: 2px; opacity: 1;"/></g><g class="points"/><g class="text"/></g></g></g><g class="overplot"/><path class="xlines-above crisp" d="M0,0" style="fill: none;"/><path class="ylines-above crisp" d="M0,0" style="fill: none;"/><g class="overlines-above"/><g class="xaxislayer-above"><g class="xtick"><text text-anchor="middle" x="0" y="509" transform="translate(241.81,0)" style="font-family: 'Open Sans', verdana, arial, sans-serif; font-size: 12px; fill: rgb(42, 63, 95); fill-opacity: 1; white-space: pre; opacity: 1;">20</text></g><g class="xtick"><text text-anchor="middle" x="0" y="509" style="font-family: 'Open Sans', verdana, arial, sans-serif; font-size: 12px; fill: rgb(42, 63, 95); fill-opacity: 1; white-space: pre; opacity: 1;" transform="translate(338.46000000000004,0)">40</text></g><g class="xtick"><text text-anchor="middle" x="0" y="509" style="font-family: 'Open Sans', verdana, arial, sans-serif; font-size: 12px; fill: rgb(42, 63, 95); fill-opacity: 1; white-space: pre; opacity: 1;" transform="translate(435.1,0)">60</text></g><g class="xtick"><text text-anchor="middle" x="0" y="509" style="font-family: 'Open Sans', verdana, arial, sans-serif; font-size: 12px; fill: rgb(42, 63, 95); fill-opacity: 1; white-space: pre; opacity: 1;" transform="translate(531.74,0)">80</text></g><g class="xtick"><text text-anchor="middle" x="0" y="509" style="font-family: 'Open Sans', verdana, arial, sans-serif; font-size: 12px; fill: rgb(42, 63, 95); fill-opacity: 1; white-space: pre; opacity: 1;" transform="translate(628.39,0)">100</text></g><g class="xtick"><text text-anchor="middle" x="0" y="509" style="font-family: 'Open Sans', verdana, arial, sans-serif; font-size: 12px; fill: rgb(42, 63, 95); fill-opacity: 1; white-space: pre; opacity: 1;" transform="translate(725.03,0)">120</text></g><g class="xtick"><text text-anchor="middle" x="0" y="509" style="font-family: 'Open Sans', verdana, arial, sans-serif; font-size: 12px; fill: rgb(42, 63, 95); fill-opacity: 1; white-space: pre; opacity: 1;" transform="translate(821.68,0)">140</text></g></g><g class="yaxislayer-above"><g class="ytick"><text text-anchor="end" x="149" y="4.199999999999999" transform="translate(0,470.33)" style="font-family: 'Open Sans', verdana, arial, sans-serif; font-size: 12px; fill: rgb(42, 63, 95); fill-opacity: 1; white-space: pre; opacity: 1;">30</text></g><g class="ytick"><text text-anchor="end" x="149" y="4.199999999999999" style="font-family: 'Open Sans', verdana, arial, sans-serif; font-size: 12px; fill: rgb(42, 63, 95); fill-opacity: 1; white-space: pre; opacity: 1;" transform="translate(0,409.87)">40</text></g><g class="ytick"><text text-anchor="end" x="149" y="4.199999999999999" style="font-family: 'Open Sans', verdana, arial, sans-serif; font-size: 12px; fill: rgb(42, 63, 95); fill-opacity: 1; white-space: pre; opacity: 1;" transform="translate(0,349.4)">50</text></g><g class="ytick"><text text-anchor="end" x="149" y="4.199999999999999" style="font-family: 'Open Sans', verdana, arial, sans-serif; font-size: 12px; fill: rgb(42, 63, 95); fill-opacity: 1; white-space: pre; opacity: 1;" transform="translate(0,288.93)">60</text></g><g class="ytick"><text text-anchor="end" x="149" y="4.199999999999999" style="font-family: 'Open Sans', verdana, arial, sans-serif; font-size: 12px; fill: rgb(42, 63, 95); fill-opacity: 1; white-space: pre; opacity: 1;" transform="translate(0,228.46)">70</text></g><g class="ytick"><text text-anchor="end" x="149" y="4.199999999999999" style="font-family: 'Open Sans', verdana, arial, sans-serif; font-size: 12px; fill: rgb(42, 63, 95); fill-opacity: 1; white-space: pre; opacity: 1;" transform="translate(0,167.99)">80</text></g><g class="ytick"><text text-anchor="end" x="149" y="4.199999999999999" style="font-family: 'Open Sans', verdana, arial, sans-serif; font-size: 12px; fill: rgb(42, 63, 95); fill-opacity: 1; white-space: pre; opacity: 1;" transform="translate(0,107.52)">90</text></g></g><g class="overaxes-above"/></g></g><g class="polarlayer"/><g class="smithlayer"/><g class="ternarylayer"/><g class="geolayer"/><g class="funnelarealayer"/><g class="pielayer"/><g class="iciclelayer"/><g class="treemaplayer"/><g class="sunburstlayer"/><g class="glimages"/><defs id="topdefs-fa0d97"><g class="clips"/><clipPath id="legendfa0d97"><rect width="128" height="162" x="0" y="0"/></clipPath></defs><g class="layer-above"><g class="imagelayer"/><g class="shapelayer"/></g><g class="infolayer"><g class="legend" pointer-events="all" transform="translate(884.4,100)"><rect class="bg" shape-rendering="crispEdges" width="128" height="162" x="0" y="0" style="stroke: rgb(68, 68, 68); stroke-opacity: 1; fill: rgb(255, 255, 255); fill-opacity: 1; stroke-width: 0px;"/><g class="scrollbox" transform="" clip-path="url(#legendfa0d97)"><g class="groups"><g class="traces" transform="translate(0,14.5)" style="opacity: 1;"><text class="legendtext" text-anchor="start" x="40" y="4.680000000000001" style="font-family: 'Open Sans', verdana, arial, sans-serif; font-size: 12px; fill: rgb(42, 63, 95); fill-opacity: 1; white-space: pre;">Train Accuracy</text><g class="layers" style="opacity: 1;"><g class="legendfill"/><g class="legendlines"><path class="js-line" d="M5,0h30" style="fill: none; stroke: rgb(255, 0, 0); stroke-opacity: 1; stroke-width: 2px;"/></g><g class="legendsymbols"><g class="legendpoints"/></g></g><rect class="legendtoggle" x="0" y="-9.5" width="122.71875" height="19" style="fill: rgb(0, 0, 0); fill-opacity: 0;"/></g><g class="traces" transform="translate(0,33.5)" style="opacity: 1;"><text class="legendtext" text-anchor="start" x="40" y="4.680000000000001" style="font-family: 'Open Sans', verdana, arial, sans-serif; font-size: 12px; fill: rgb(42, 63, 95); fill-opacity: 1; white-space: pre;">Test Accuracy</text><g class="layers" style="opacity: 1;"><g class="legendfill"/><g class="legendlines"><path class="js-line" d="M5,0h30" style="fill: none; stroke: rgb(0, 0, 255); stroke-opacity: 1; stroke-width: 2px;"/></g><g class="legendsymbols"><g class="legendpoints"/></g></g><rect class="legendtoggle" x="0" y="-9.5" width="122.71875" height="19" style="fill: rgb(0, 0, 0); fill-opacity: 0;"/></g><g class="traces" transform="translate(0,52.5)" style="opacity: 1;"><text class="legendtext" text-anchor="start" x="40" y="4.680000000000001" style="font-family: 'Open Sans', verdana, arial, sans-serif; font-size: 12px; fill: rgb(42, 63, 95); fill-opacity: 1; white-space: pre;">Train Precision</text><g class="layers" style="opacity: 1;"><g class="legendfill"/><g class="legendlines"><path class="js-line" d="M5,0h30" style="fill: none; stroke: rgb(0, 128, 0); stroke-opacity: 1; stroke-width: 2px;"/></g><g class="legendsymbols"><g class="legendpoints"/></g></g><rect class="legendtoggle" x="0" y="-9.5" width="122.71875" height="19" style="fill: rgb(0, 0, 0); fill-opacity: 0;"/></g><g class="traces" transform="translate(0,71.5)" style="opacity: 1;"><text class="legendtext" text-anchor="start" x="40" y="4.680000000000001" style="font-family: 'Open Sans', verdana, arial, sans-serif; font-size: 12px; fill: rgb(42, 63, 95); fill-opacity: 1; white-space: pre;">Test Precision</text><g class="layers" style="opacity: 1;"><g class="legendfill"/><g class="legendlines"><path class="js-line" d="M5,0h30" style="fill: none; stroke: rgb(255, 165, 0); stroke-opacity: 1; stroke-width: 2px;"/></g><g class="legendsymbols"><g class="legendpoints"/></g></g><rect class="legendtoggle" x="0" y="-9.5" width="122.71875" height="19" style="fill: rgb(0, 0, 0); fill-opacity: 0;"/></g><g class="traces" transform="translate(0,90.5)" style="opacity: 1;"><text class="legendtext" text-anchor="start" x="40" y="4.680000000000001" style="font-family: 'Open Sans', verdana, arial, sans-serif; font-size: 12px; fill: rgb(42, 63, 95); fill-opacity: 1; white-space: pre;">Train Recall</text><g class="layers" style="opacity: 1;"><g class="legendfill"/><g class="legendlines"><path class="js-line" d="M5,0h30" style="fill: none; stroke: rgb(128, 0, 128); stroke-opacity: 1; stroke-width: 2px;"/></g><g class="legendsymbols"><g class="legendpoints"/></g></g><rect class="legendtoggle" x="0" y="-9.5" width="122.71875" height="19" style="fill: rgb(0, 0, 0); fill-opacity: 0;"/></g><g class="traces" transform="translate(0,109.5)" style="opacity: 1;"><text class="legendtext" text-anchor="start" x="40" y="4.680000000000001" style="font-family: 'Open Sans', verdana, arial, sans-serif; font-size: 12px; fill: rgb(42, 63, 95); fill-opacity: 1; white-space: pre;">Test Recall</text><g class="layers" style="opacity: 1;"><g class="legendfill"/><g class="legendlines"><path class="js-line" d="M5,0h30" style="fill: none; stroke: rgb(255, 192, 203); stroke-opacity: 1; stroke-width: 2px;"/></g><g class="legendsymbols"><g class="legendpoints"/></g></g><rect class="legendtoggle" x="0" y="-9.5" width="122.71875" height="19" style="fill: rgb(0, 0, 0); fill-opacity: 0;"/></g><g class="traces" transform="translate(0,128.5)" style="opacity: 1;"><text class="legendtext" text-anchor="start" x="40" y="4.680000000000001" style="font-family: 'Open Sans', verdana, arial, sans-serif; font-size: 12px; fill: rgb(42, 63, 95); fill-opacity: 1; white-space: pre;">Train F1</text><g class="layers" style="opacity: 1;"><g class="legendfill"/><g class="legendlines"><path class="js-line" d="M5,0h30" style="fill: none; stroke: rgb(165, 42, 42); stroke-opacity: 1; stroke-width: 2px;"/></g><g class="legendsymbols"><g class="legendpoints"/></g></g><rect class="legendtoggle" x="0" y="-9.5" width="122.71875" height="19" style="fill: rgb(0, 0, 0); fill-opacity: 0;"/></g><g class="traces" transform="translate(0,147.5)" style="opacity: 1;"><text class="legendtext" text-anchor="start" x="40" y="4.680000000000001" style="font-family: 'Open Sans', verdana, arial, sans-serif; font-size: 12px; fill: rgb(42, 63, 95); fill-opacity: 1; white-space: pre;">Test F1</text><g class="layers" style="opacity: 1;"><g class="legendfill"/><g class="legendlines"><path class="js-line" d="M5,0h30" style="fill: none; stroke: rgb(128, 128, 128); stroke-opacity: 1; stroke-width: 2px;"/></g><g class="legendsymbols"><g class="legendpoints"/></g></g><rect class="legendtoggle" x="0" y="-9.5" width="122.71875" height="19" style="fill: rgb(0, 0, 0); fill-opacity: 0;"/></g></g></g><rect class="scrollbar" rx="20" ry="3" width="0" height="0" x="0" y="0" style="fill: rgb(128, 139, 164); fill-opacity: 1;"/></g><g class="g-gtitle"><text class="gtitle" x="51.2" y="50" text-anchor="start" dy="0em" style="font-family: 'Open Sans', verdana, arial, sans-serif; font-size: 17px; fill: rgb(42, 63, 95); opacity: 1; font-weight: normal; white-space: pre;">Training Metrics - logs/FakeNewsNet-politifact_max-vocab=15000_pre=v1_domain_T=250_s=10.log</text></g><g class="g-xtitle"><text class="xtitle" x="510" y="537.3" text-anchor="middle" style="font-family: 'Open Sans', verdana, arial, sans-serif; font-size: 14px; fill: rgb(42, 63, 95); opacity: 1; font-weight: normal; white-space: pre;">Epoch</text></g><g class="g-ytitle"><text class="ytitle" transform="rotate(-90,110.965625,298)" x="110.965625" y="298" text-anchor="middle" style="font-family: 'Open Sans', verdana, arial, sans-serif; font-size: 14px; fill: rgb(42, 63, 95); opacity: 1; font-weight: normal; white-space: pre;">Metric Score</text></g></g><g class="menulayer"><g class="updatemenu-container" style="cursor: pointer;"><g class="updatemenu-header-group" transform="translate(12,60)"><g class="updatemenu-header" transform="translate(1,1)" style="pointer-events: all;"><rect class="updatemenu-item-rect" rx="2" ry="2" shape-rendering="crispEdges" x="0" y="0" width="174" height="33" style="stroke: rgb(190, 200, 217); stroke-opacity: 1; fill: rgb(255, 255, 255); fill-opacity: 1; stroke-width: 1px;"/><text class="updatemenu-item-text" text-anchor="start" data-notex="1" x="12" y="19.5" style="font-family: 'Open Sans', verdana, arial, sans-serif; font-size: 12px; fill: rgb(42, 63, 95); fill-opacity: 1; white-space: pre;">All</text></g><text class="updatemenu-header-arrow" text-anchor="end" x="170" y="19.5" style="font-family: 'Open Sans', verdana, arial, sans-serif; font-size: 12px; fill: rgb(42, 63, 95); fill-opacity: 1;">▼</text></g><g class="updatemenu-dropdown-button-group" updatemenu-active-index="-1" style="pointer-events: all;"><rect class="scrollbox-bg" opacity="0" x="0" y="0" width="0" height="0" style="pointer-events: all;"/></g></g></g></svg>