<svg class="main-svg" xmlns="http://www.w3.org/2000/svg" xmlns:xlink="http://www.w3.org/1999/xlink" width="1024" height="576" style="" viewBox="0 0 1024 576"><rect x="0" y="0" width="1024" height="576" style="fill: rgb(255, 255, 255); fill-opacity: 1;"/><defs id="defs-434458"><g class="clips"><clipPath id="clip434458xyplot" class="plotclip"><rect width="726" height="396"/></clipPath><clipPath class="axesclip" id="clip434458x"><rect x="143" y="0" width="726" height="576"/></clipPath><clipPath class="axesclip" id="clip434458y"><rect x="0" y="100" width="1024" height="396"/></clipPath><clipPath class="axesclip" id="clip434458xy"><rect x="143" y="100" width="726" height="396"/></clipPath></g><g class="gradients"/><g class="patterns"/></defs><g class="bglayer"><rect class="bg" x="143" y="100" width="726" height="396" style="fill: rgb(229, 236, 246); fill-opacity: 1; stroke-width: 0;"/></g><g class="layer-below"><g class="imagelayer"/><g class="shapelayer"/></g><g class="cartesianlayer"><g class="subplot xy"><g class="layer-subplot"><g class="shapelayer"/><g class="imagelayer"/></g><g class="minor-gridlayer"><g class="x"/><g class="y"/></g><g class="gridlayer"><g class="x"><path class="xgrid crisp" transform="translate(235.57999999999998,0)" d="M0,100v396" style="stroke: rgb(255, 255, 255); stroke-opacity: 1; stroke-width: 1px;"/><path class="xgrid crisp" transform="translate(333.03,0)" d="M0,100v396" style="stroke: rgb(255, 255, 255); stroke-opacity: 1; stroke-width: 1px;"/><path class="xgrid crisp" transform="translate(430.48,0)" d="M0,100v396" style="stroke: rgb(255, 255, 255); stroke-opacity: 1; stroke-width: 1px;"/><path class="xgrid crisp" transform="translate(527.9300000000001,0)" d="M0,100v396" style="stroke: rgb(255, 255, 255); stroke-opacity: 1; stroke-width: 1px;"/><path class="xgrid crisp" transform="translate(625.38,0)" d="M0,100v396" style="stroke: rgb(255, 255, 255); stroke-opacity: 1; stroke-width: 1px;"/><path class="xgrid crisp" transform="translate(722.83,0)" d="M0,100v396" style="stroke: rgb(255, 255, 255); stroke-opacity: 1; stroke-width: 1px;"/><path class="xgrid crisp" transform="translate(820.28,0)" d="M0,100v396" style="stroke: rgb(255, 255, 255); stroke-opacity: 1; stroke-width: 1px;"/></g><g class="y"><path class="ygrid crisp" transform="translate(0,478.05)" d="M143,0h726" style="stroke: rgb(255, 255, 255); stroke-opacity: 1; stroke-width: 1px;"/><path class="ygrid crisp" transform="translate(0,420.29)" d="M143,0h726" style="stroke: rgb(255, 255, 255); stroke-opacity: 1; stroke-width: 1px;"/><path class="ygrid crisp" transform="translate(0,362.52)" d="M143,0h726" style="stroke: rgb(255, 255, 255); stroke-opacity: 1; stroke-width: 1px;"/><path class="ygrid crisp" transform="translate(0,304.76)" d="M143,0h726" style="stroke: rgb(255, 255, 255); stroke-opacity: 1; stroke-width: 1px;"/><path class="ygrid crisp" transform="translate(0,246.99)" d="M143,0h726" style="stroke: rgb(255, 255, 255); stroke-opacity: 1; stroke-width: 1px;"/><path class="ygrid crisp" transform="translate(0,189.23000000000002)" d="M143,0h726" style="stroke: rgb(255, 255, 255); stroke-opacity: 1; stroke-width: 1px;"/><path class="ygrid crisp" transform="translate(0,131.47)" d="M143,0h726" style="stroke: rgb(255, 255, 255); stroke-opacity: 1; stroke-width: 1px;"/></g></g><g class="zerolinelayer"/><path class="xlines-below"/><path class="ylines-below"/><g class="overlines-below"/><g class="xaxislayer-below"/><g class="yaxislayer-below"/><g class="overaxes-below"/><g class="plot" transform="translate(143,100)" clip-path="url(#clip434458xyplot)"><g class="scatterlayer mlayer"><g class="trace scatter trace0f6a5b" style="stroke-miterlimit: 2; opacity: 1;"><g class="fills"/><g class="errorbars"/><g class="lines"><path class="js-line" d="M0,171.6L4.87,205.8L9.74,208.57L14.62,205.8L19.49,193.55L24.36,208.57L29.23,204.53L34.11,193.55L38.98,141.57L43.85,60.81L48.72,88.19L53.6,115.46L58.47,38.86L63.34,248.31L68.21,240.11L73.09,130.59L77.96,142.84L82.83,133.36L87.7,126.43L92.58,118.23L97.45,25.11L102.32,218.16L107.19,43.02L112.07,40.25L116.94,38.86L121.81,69.01L126.68,63.47L131.56,66.24L136.43,67.63L141.3,52.49L146.17,48.45L151.05,48.45L155.92,56.65L160.79,55.27L165.66,44.29L170.54,66.24L175.41,69.01L180.28,73.06L185.15,129.2L190.03,123.77L194.9,115.46L199.77,108.64L204.64,107.25L209.52,103.21L214.39,48.45L219.26,47.06L224.13,49.84L229.01,55.27L233.88,52.49L238.75,49.84L243.62,43.02L248.5,41.63L253.37,48.45L258.24,45.68L263.11,172.99L267.99,171.6L272.86,167.56L277.73,159.36L282.6,156.58L287.48,47.06L292.35,48.45L297.22,49.84L302.09,48.45L311.84,43.02L316.71,63.47L321.58,74.44L326.46,59.43L331.33,56.65L336.2,58.04L341.07,62.08L345.95,56.65L350.82,41.63L355.69,37.48L360.56,44.29L365.44,45.68L370.31,114.19L375.18,107.25L380.05,111.41L384.93,112.8L399.54,100.44L404.42,95.01L409.29,100.44L414.16,45.68L419.03,43.02L423.91,92.24L428.78,93.62L433.65,44.29L438.52,44.29L443.4,47.06L448.27,63.47L453.14,52.49L458.01,51.22L462.89,43.02L467.76,44.29L472.63,49.84L477.5,47.06L482.38,51.22L492.12,53.88L496.99,44.29L501.87,41.63L506.74,45.68L511.61,40.25L516.48,49.84L521.36,43.02L526.23,41.63L531.1,48.45L535.97,47.06L540.85,43.02L545.72,40.25L550.59,45.68L555.46,44.29L560.34,41.63L565.21,40.25L570.08,45.68L574.95,43.02L579.83,43.02L584.7,40.25L589.57,51.22L594.44,40.25L599.32,44.29L604.19,36.09L609.06,37.48L613.93,40.25L618.81,43.02L623.68,34.7L628.55,40.25L633.42,38.86L638.3,47.06L643.17,47.06L648.04,111.41L652.91,112.8L657.79,30.66L662.66,33.43L667.53,36.09L672.4,37.48L677.28,41.63L682.15,43.02L687.02,78.6L691.89,73.06L696.77,43.02L701.64,43.02L706.51,41.63L711.38,34.7L716.26,36.09L721.13,41.63L726,38.86" style="vector-effect: none; fill: none; stroke: rgb(255, 0, 0); stroke-opacity: 1; stroke-width: 2px; opacity: 1;"/></g><g class="points"/><g class="text"/></g><g class="trace scatter trace217610" style="stroke-miterlimit: 2; opacity: 1;"><g class="fills"/><g class="errorbars"/><g class="lines"><path class="js-line" d="M0,234.22L4.87,228.79L9.74,228.79L19.49,228.79L24.36,266.91L29.23,283.2L34.11,277.77L38.98,217.81L43.85,130.59L48.72,146.99L53.6,196.09L58.47,108.87L63.34,305.04L68.21,310.47L73.09,217.81L77.96,212.38L82.83,212.38L87.7,201.52L92.58,206.95L97.45,157.85L102.32,299.61L107.19,146.99L112.07,141.57L116.94,130.59L121.81,163.4L126.68,163.4L131.56,190.55L136.43,174.26L141.3,152.42L146.17,125.16L151.05,146.99L155.92,125.16L160.79,125.16L165.66,125.16L170.54,136.14L175.41,136.14L180.28,152.42L185.15,212.38L190.03,196.09L194.9,196.09L199.77,201.52L204.64,201.52L209.52,196.09L214.39,141.57L219.26,163.4L224.13,146.99L229.01,152.42L243.62,152.42L248.5,136.14L258.24,146.99L263.11,239.65L272.86,250.51L277.73,239.65L282.6,239.65L287.48,157.85L292.35,157.85L297.22,152.42L302.09,163.4L306.97,146.99L311.84,130.59L316.71,163.4L321.58,157.85L326.46,163.4L336.2,163.4L341.07,152.42L345.95,157.85L350.82,152.42L355.69,141.57L360.56,136.14L365.44,152.42L370.31,206.95L375.18,201.52L380.05,190.55L384.93,190.55L389.8,185.12L394.67,179.69L399.54,179.69L404.42,185.12L409.29,185.12L414.16,152.42L419.03,157.85L423.91,179.69L428.78,179.69L433.65,141.57L438.52,146.99L443.4,141.57L448.27,163.4L453.14,130.59L458.01,136.14L462.89,141.57L467.76,152.42L472.63,141.57L477.5,152.42L482.38,141.57L487.25,141.57L492.12,141.57L496.99,136.14L501.87,125.16L506.74,130.59L511.61,130.59L516.48,125.16L521.36,130.59L526.23,125.16L531.1,136.14L535.97,136.14L540.85,136.14L545.72,146.99L555.46,146.99L560.34,130.59L565.21,152.42L570.08,146.99L574.95,157.85L579.83,163.4L589.57,163.4L594.44,168.83L599.32,163.4L604.19,152.42L609.06,157.85L613.93,146.99L618.81,136.14L623.68,141.57L628.55,130.59L633.42,136.14L638.3,141.57L643.17,141.57L648.04,190.55L652.91,196.09L657.79,136.14L662.66,141.57L667.53,141.57L672.4,152.42L677.28,152.42L682.15,130.59L687.02,163.4L691.89,163.4L696.77,141.57L701.64,141.57L706.51,146.99L711.38,130.59L716.26,146.99L721.13,152.42L726,136.14" style="vector-effect: none; fill: none; stroke: rgb(0, 0, 255); stroke-opacity: 1; stroke-width: 2px; opacity: 1;"/></g><g class="points"/><g class="text"/></g><g class="trace scatter trace7c055c" style="stroke-miterlimit: 2; opacity: 1;"><g class="fills"/><g class="errorbars"/><g class="lines"><path class="js-line" d="M0,72.6L4.87,104.71L9.74,110.26L14.62,111.64L19.49,102.86L24.36,144.22L29.23,137.29L34.11,128.05L38.98,107.25L43.85,65.09L48.72,81.03L53.6,92.58L58.47,40.36L63.34,131.17L68.21,127.7L73.09,95.82L77.96,98.24L82.83,93.85L87.7,92.12L92.58,85.88L97.45,30.43L102.32,128.4L107.19,48.45L112.07,45.22L116.94,44.29L121.81,68.09L126.68,63.47L136.43,66.01L141.3,53.42L146.17,50.99L151.05,50.99L155.92,57.69L160.79,57.58L165.66,45.22L170.54,64.86L175.41,67.05L180.28,67.51L185.15,97.2L190.03,93.74L194.9,90.62L199.77,85.07L209.52,79.41L214.39,49.03L219.26,47.06L224.13,47.41L229.01,52.84L233.88,50.65L238.75,48.91L243.62,42.33L248.5,41.63L253.37,46.83L258.24,45.45L263.11,112.22L267.99,113.03L272.86,112.22L277.73,103.21L282.6,107.48L287.48,46.14L292.35,46.83L297.22,48.91L302.09,46.83L306.97,46.72L311.84,42.79L316.71,57.58L321.58,68.55L326.46,53.19L331.33,51.11L336.2,52.15L341.07,55.27L345.95,54.46L350.82,40.71L355.69,38.17L360.56,43.83L365.44,45.91L370.31,88.65L375.18,82.18L380.05,83.69L384.93,81.26L389.8,77.56L394.67,80.34L399.54,77.56L404.42,70.98L409.29,71.32L414.16,45.45L419.03,41.87L423.91,68.21L428.78,71.09L433.65,44.29L438.52,44.75L443.4,47.53L448.27,60L453.14,52.49L458.01,51.45L462.89,41.29L467.76,41.87L472.63,47.87L477.5,44.64L482.38,49.49L487.25,50.07L492.12,49.49L496.99,40.83L501.87,36.9L506.74,43.02L511.61,38.63L516.48,46.83L521.36,41.29L526.23,41.17L531.1,46.83L535.97,46.14L540.85,41.87L545.72,38.63L550.59,44.98L555.46,43.83L560.34,41.17L565.21,40.02L570.08,44.98L574.95,42.33L579.83,43.14L584.7,40.48L589.57,51.8L594.44,40.02L599.32,44.75L604.19,37.01L609.06,37.71L613.93,40.02L618.81,43.14L623.68,34.13L628.55,40.02L633.42,37.94L638.3,46.6L643.17,46.6L648.04,80.45L652.91,81.26L657.79,30.66L662.66,34.24L667.53,36.55L672.4,37.24L677.28,41.63L682.15,42.79L687.02,60.93L691.89,58.04L696.77,43.14L701.64,42.79L706.51,41.98L711.38,35.4L716.26,36.09L721.13,41.17L726,39.32" style="vector-effect: none; fill: none; stroke: rgb(0, 128, 0); stroke-opacity: 1; stroke-width: 2px; opacity: 1;"/></g><g class="points"/><g class="text"/></g><g class="trace scatter tracea8c281" style="stroke-miterlimit: 2; opacity: 1;"><g class="fills"/><g class="errorbars"/><g class="lines"><path class="js-line" d="M0,223.47L4.87,204.18L9.74,204.18L19.49,204.18L24.36,196.09L29.23,204.76L34.11,208.22L43.85,150.23L48.72,151.04L53.6,179.34L58.47,121.69L63.34,175.07L68.21,177.15L73.09,189.16L77.96,176.69L82.83,176.69L87.7,160.4L92.58,163.52L97.45,180.15L102.32,206.26L107.19,167.44L112.07,162.48L116.94,150.58L121.81,168.71L126.68,171.14L131.56,197.25L136.43,182.12L141.3,166.29L146.17,137.87L151.05,157.97L155.92,136.02L160.79,133.94L165.66,129.32L170.54,137.52L175.41,137.52L180.28,155.2L185.15,181.42L190.03,175.41L194.9,171.26L199.77,170.22L204.64,174.72L209.52,166.87L214.39,144.34L219.26,166.17L224.13,151.04L229.01,155.2L233.88,155.2L238.75,155.2L243.62,157.85L248.5,140.18L253.37,144.34L258.24,151.04L263.11,175.65L272.86,181.31L277.73,169.29L282.6,169.29L287.48,159.36L292.35,162.01L297.22,157.85L302.09,163.4L306.97,155.89L311.84,136.02L316.71,157.16L321.58,150.11L326.46,157.16L331.33,163.4L336.2,160.4L341.07,142.84L345.95,156.47L350.82,155.2L355.69,149.31L360.56,142.6L365.44,155.2L370.31,173.45L375.18,170.22L380.05,163.52L384.93,163.52L394.67,156.81L399.54,156.81L404.42,160.16L409.29,160.16L414.16,155.2L419.03,159.36L423.91,156.81L428.78,152.42L433.65,144.34L438.52,153.58L443.4,146.88L448.27,166.17L453.14,140.53L458.01,144.92L462.89,149.31L467.76,157.85L472.63,151.38L477.5,152.42L482.38,144.34L487.25,141.57L492.12,141.57L496.99,137.52L501.87,126.66L506.74,133.36L511.61,133.36L516.48,126.66L521.36,133.36L526.23,126.66L531.1,134.63L535.97,137.52L540.85,140.18L545.72,148.38L550.59,148.38L555.46,153.58L560.34,133.36L565.21,155.2L570.08,148.38L574.95,159.36L579.83,168.71L584.7,166.17L589.57,168.71L594.44,172.87L599.32,166.17L604.19,157.85L609.06,159.36L613.93,151.04L618.81,142.6L623.68,144.34L628.55,133.36L633.42,137.52L638.3,141.57L643.17,146.88L648.04,159.01L652.91,162.24L657.79,137.52L662.66,144.34L667.53,144.34L672.4,152.42L677.28,157.85L682.15,138.33L687.02,146.42L691.89,146.42L701.64,146.88L706.51,148.38L711.38,133.36L716.26,151.04L721.13,155.2L726,144.92" style="vector-effect: none; fill: none; stroke: rgb(255, 165, 0); stroke-opacity: 1; stroke-width: 2px; opacity: 1;"/></g><g class="points"/><g class="text"/></g><g class="trace scatter trace26a850" style="stroke-miterlimit: 2; opacity: 1;"><g class="fills"/><g class="errorbars"/><g class="lines"><path class="js-line" d="M0,228.21L4.87,267.6L9.74,270.49L14.62,266.8L19.49,252.01L24.36,170.33L29.23,165.48L34.11,155.2L38.98,113.49L43.85,68.9L48.72,72.94L53.6,92L58.47,49.14L63.34,196.9L68.21,189.74L73.09,102.29L77.96,111.07L82.83,103.33L87.7,98.24L92.58,90.73L97.45,26.96L102.32,173.22L107.19,45.45L112.07,44.87L116.94,40.94L121.81,58.27L126.68,53.53L136.43,56.19L141.3,43.25L146.17,41.06L151.05,41.06L155.92,47.64L160.79,47.87L165.66,34.82L170.54,55.04L175.41,57.35L180.28,58.62L185.15,102.06L190.03,97.32L199.77,84.73L204.64,82.65L209.52,79.18L214.39,38.75L219.26,36.67L224.13,37.24L229.01,42.91L233.88,40.48L238.75,38.63L243.62,31.81L248.5,31.12L253.37,36.55L258.24,35.05L263.11,136.14L267.99,135.33L272.86,132.32L277.73,123.89L282.6,123.31L287.48,35.86L292.35,36.55L297.22,38.63L302.09,36.55L306.97,36.44L311.84,32.28L316.71,48.57L321.58,59.89L326.46,44.18L331.33,41.75L336.2,43.02L341.07,46.49L345.95,44.52L350.82,30.2L355.69,27.54L360.56,33.43L365.44,35.51L370.31,89.46L375.18,82.65L380.05,85.77L384.93,85.65L389.8,81.61L394.67,80.34L399.54,76.75L404.42,70.75L409.29,74.1L414.16,35.05L419.03,31.35L423.91,67.86L428.78,70.05L433.65,33.89L438.52,34.36L443.4,37.13L448.27,50.41L453.14,42.33L458.01,41.17L462.89,30.89L467.76,31.58L472.63,37.71L477.5,34.47L482.38,39.32L487.25,40.02L492.12,39.9L496.99,30.78L501.87,26.96L506.74,32.85L511.61,28.12L516.48,36.78L521.36,30.89L526.23,30.66L531.1,36.55L535.97,35.86L540.85,31.35L545.72,28.12L550.59,34.59L555.46,33.43L560.34,30.66L565.21,29.5L570.08,34.59L574.95,31.81L579.83,32.74L584.7,29.97L589.57,41.63L594.44,29.5L599.32,34.36L604.19,26.39L609.06,27.08L613.93,29.5L618.81,32.74L623.68,23.38L628.55,29.5L633.42,27.42L638.3,36.2L643.17,36.2L648.04,84.38L652.91,85.65L657.79,19.8L662.66,23.61L667.53,25.92L672.4,26.62L677.28,31.12L682.15,32.28L687.02,57L691.89,52.73L696.77,32.74L701.64,32.28L706.51,31.58L711.38,24.77L716.26,25.46L721.13,30.66L726,28.7" style="vector-effect: none; fill: none; stroke: rgb(128, 0, 128); stroke-opacity: 1; stroke-width: 2px; opacity: 1;"/></g><g class="points"/><g class="text"/></g><g class="trace scatter trace4f2625" style="stroke-miterlimit: 2; opacity: 1;"><g class="fills"/><g class="errorbars"/><g class="lines"><path class="js-line" d="M0,347.55L4.87,343.16L9.74,343.16L19.49,343.16L24.36,203.14L29.23,216.08L34.11,214.81L38.98,170.56L43.85,160.4L48.72,130.01L53.6,162.59L58.47,146.19L63.34,217.81L68.21,222.2L73.09,176.69L77.96,166.17L82.83,166.17L87.7,151.38L92.58,155.77L97.45,178.88L102.32,225.9L107.19,160.97L112.07,159.7L116.94,144.92L121.81,149.07L126.68,152.19L131.56,179.92L141.3,149.77L146.17,118.92L151.05,139.25L155.92,115.8L160.79,112.68L165.66,106.56L170.54,115.11L175.41,115.11L180.28,134.29L185.15,169.29L190.03,159.47L194.9,156.35L199.77,157.62L204.64,160.74L209.52,153.35L214.39,122.62L219.26,145.96L224.13,130.01L229.01,134.29L233.88,134.29L238.75,134.29L243.62,137.41L248.5,118.23L253.37,122.62L258.24,130.01L263.11,178.53L272.86,187.08L277.73,175.41L282.6,175.41L287.48,138.56L292.35,141.68L297.22,137.41L302.09,142.95L306.97,136.14L311.84,113.95L316.71,136.71L321.58,129.32L326.46,136.71L331.33,142.95L336.2,139.83L341.07,121.93L345.95,135.44L350.82,134.29L355.69,128.74L360.56,121.35L365.44,134.29L370.31,161.9L375.18,157.62L380.05,148.96L384.93,148.96L394.67,140.41L399.54,140.41L404.42,144.68L409.29,144.68L414.16,134.29L419.03,138.56L423.91,140.41L428.78,137.29L433.65,122.62L438.52,133.02L443.4,125.62L448.27,145.96L453.14,120.19L458.01,124.47L462.89,128.74L467.76,137.41L472.63,131.86L477.5,131.17L482.38,122.62L487.25,119.5L492.12,119.5L496.99,115.11L501.87,103.44L506.74,110.84L511.61,110.84L516.48,103.44L521.36,110.84L526.23,103.44L531.1,112.11L535.97,115.11L540.85,118.23L545.72,126.89L550.59,126.89L555.46,133.02L560.34,110.84L565.21,134.29L570.08,126.89L574.95,138.56L579.83,149.07L584.7,145.96L589.57,149.07L594.44,153.35L604.19,137.41L609.06,138.56L618.81,121.35L623.68,122.62L628.55,110.84L633.42,115.11L638.3,119.5L643.17,125.62L648.04,145.84L652.91,150.23L657.79,115.11L662.66,122.62L667.53,122.62L672.4,131.17L677.28,137.41L682.15,117.07L687.02,127.47L691.89,127.47L696.77,125.62L701.64,125.62L706.51,126.89L711.38,110.84L716.26,130.01L721.13,134.29L726,124.47" style="vector-effect: none; fill: none; stroke: rgb(255, 192, 203); stroke-opacity: 1; stroke-width: 2px; opacity: 1;"/></g><g class="points"/><g class="text"/></g><g class="trace scatter tracee7295b" style="stroke-miterlimit: 2; opacity: 1;"><g class="fills"/><g class="errorbars"/><g class="lines"><path class="js-line" d="M0,236.3L4.87,287.48L9.74,290.83L14.62,285.28L19.49,265.64L24.36,211.34L29.23,207.42L34.11,196.09L38.98,141.68L43.85,67.17L48.72,88.65L53.6,115.57L58.47,45.56L63.34,258.82L68.21,249.47L73.09,130.71L77.96,143.41L82.83,133.59L87.7,126.66L92.58,118.34L97.45,28.81L102.32,223.82L107.19,47.06L116.94,42.79L121.81,70.17L126.68,64.86L131.56,67.28L136.43,68.67L141.3,54L146.17,50.18L151.05,50.18L155.92,58.15L160.79,57.12L165.66,45.68L170.54,67.4L175.41,70.05L180.28,73.75L185.15,129.32L190.03,123.77L199.77,108.64L204.64,107.25L209.52,103.21L214.39,49.84L219.26,48.34L224.13,50.76L229.01,56.19L233.88,53.53L238.75,50.88L243.62,44.06L248.5,42.79L253.37,49.49L258.24,46.95L263.11,174.84L267.99,173.34L272.86,168.95L277.73,160.63L282.6,157.51L287.48,48.22L292.35,49.49L297.22,50.88L302.09,49.49L311.84,44.18L316.71,64.16L321.58,75.14L326.46,60L331.33,57.23L336.2,58.62L341.07,62.66L345.95,57.58L350.82,42.67L355.69,38.75L360.56,45.45L365.44,46.95L370.31,114.19L375.18,107.25L380.05,111.41L384.93,112.8L399.54,100.44L404.42,95.01L409.29,100.44L414.16,46.95L419.03,43.95L423.91,92.24L428.78,93.62L433.65,45.56L438.52,45.68L443.4,48.34L448.27,64.39L453.14,53.76L458.01,52.49L462.89,43.95L467.76,45.22L472.63,50.76L477.5,47.99L482.38,52.15L492.12,54.69L496.99,45.1L501.87,42.21L506.74,46.6L511.61,41.17L516.48,50.65L521.36,43.95L526.23,42.67L531.1,49.49L535.97,48.22L540.85,43.95L545.72,41.17L550.59,46.83L555.46,45.45L560.34,42.67L565.21,41.4L570.08,46.83L574.95,44.06L579.83,44.18L584.7,41.4L589.57,52.61L594.44,41.4L599.32,45.68L604.19,37.48L609.06,38.75L613.93,41.4L618.81,44.18L623.68,35.86L628.55,41.4L633.42,39.9L638.3,48.22L643.17,48.22L648.04,111.41L652.91,112.8L657.79,31.81L662.66,34.7L667.53,37.36L672.4,38.63L677.28,42.79L682.15,44.18L687.02,78.6L691.89,73.17L696.77,44.18L701.64,44.18L706.51,42.91L711.38,35.97L716.26,37.24L721.13,42.67L726,40.13" style="vector-effect: none; fill: none; stroke: rgb(165, 42, 42); stroke-opacity: 1; stroke-width: 2px; opacity: 1;"/></g><g class="points"/><g class="text"/></g><g class="trace scatter trace2c41bd" style="stroke-miterlimit: 2; opacity: 1;"><g class="fills"/><g class="errorbars"/><g class="lines"><path class="js-line" d="M0,376.2L4.87,372.16L9.74,372.16L19.49,372.16L24.36,267.14L29.23,283.78L34.11,278L43.85,156.12L48.72,153.35L53.6,198.52L58.47,137.64L63.34,309.89L68.21,315.9L73.09,218.97L77.96,213.08L82.83,213.08L87.7,201.87L92.58,207.18L97.45,179.57L102.32,301.22L107.19,164.79L112.07,161.2L116.94,148.03L121.81,170.45L126.68,171.37L131.56,198.87L136.43,182.58L141.3,163.28L146.17,134.52L151.05,156.12L155.92,133.59L165.66,131.05L170.54,141.45L175.41,141.45L180.28,158.43L185.15,213.31L190.03,197.94L194.9,197.48L199.77,202.45L204.64,202.79L209.52,197.13L214.39,147.34L219.26,169.52L224.13,153.35L229.01,158.43L238.75,158.43L243.62,159.36L248.5,142.14L253.37,147.34L258.24,153.35L263.11,239.65L272.86,250.62L277.73,239.76L282.6,239.76L287.48,163.63L292.35,164.44L297.22,159.36L302.09,168.71L306.97,155.08L311.84,136.94L316.71,167.33L321.58,161.44L326.46,167.33L331.33,168.71L336.2,168.02L341.07,155.66L345.95,162.82L350.82,158.43L355.69,149.07L360.56,142.95L365.44,158.43L370.31,207.76L375.18,202.45L380.05,191.82L384.93,191.82L394.67,181.31L399.54,181.31L404.42,186.62L409.29,186.62L414.16,158.43L419.03,163.63L423.91,181.31L428.78,180.96L433.65,147.34L438.52,154.16L443.4,148.15L448.27,169.52L453.14,138.79L458.01,143.88L462.89,149.07L467.76,159.36L472.63,150L477.5,157.62L482.38,147.34L487.25,146.53L492.12,146.53L496.99,141.45L501.87,130.24L506.74,136.25L511.61,136.25L516.48,130.24L521.36,136.25L526.23,130.24L531.1,140.64L535.97,141.45L540.85,142.14L545.72,152.54L550.59,152.54L555.46,154.16L560.34,136.25L565.21,158.43L570.08,152.54L574.95,163.63L579.83,170.45L584.7,169.52L589.57,170.45L594.44,175.53L599.32,169.52L604.19,159.36L609.06,163.63L613.93,153.35L618.81,142.95L623.68,147.34L628.55,136.25L633.42,141.45L638.3,146.53L643.17,148.15L648.04,191.47L652.91,196.79L657.79,141.45L662.66,147.34L667.53,147.34L672.4,157.62L677.28,159.36L682.15,137.87L687.02,165.59L691.89,165.59L696.77,148.15L701.64,148.15L706.51,152.54L711.38,136.25L716.26,153.35L721.13,158.43L726,143.88" style="vector-effect: none; fill: none; stroke: rgb(128, 128, 128); stroke-opacity: 1; stroke-width: 2px; opacity: 1;"/></g><g class="points"/><g class="text"/></g></g></g><g class="overplot"/><path class="xlines-above crisp" d="M0,0" style="fill: none;"/><path class="ylines-above crisp" d="M0,0" style="fill: none;"/><g class="overlines-above"/><g class="xaxislayer-above"><g class="xtick"><text text-anchor="middle" x="0" y="509" transform="translate(235.57999999999998,0)" style="font-family: 'Open Sans', verdana, arial, sans-serif; font-size: 12px; fill: rgb(42, 63, 95); fill-opacity: 1; white-space: pre; opacity: 1;">20</text></g><g class="xtick"><text text-anchor="middle" x="0" y="509" style="font-family: 'Open Sans', verdana, arial, sans-serif; font-size: 12px; fill: rgb(42, 63, 95); fill-opacity: 1; white-space: pre; opacity: 1;" transform="translate(333.03,0)">40</text></g><g class="xtick"><text text-anchor="middle" x="0" y="509" style="font-family: 'Open Sans', verdana, arial, sans-serif; font-size: 12px; fill: rgb(42, 63, 95); fill-opacity: 1; white-space: pre; opacity: 1;" transform="translate(430.48,0)">60</text></g><g class="xtick"><text text-anchor="middle" x="0" y="509" style="font-family: 'Open Sans', verdana, arial, sans-serif; font-size: 12px; fill: rgb(42, 63, 95); fill-opacity: 1; white-space: pre; opacity: 1;" transform="translate(527.9300000000001,0)">80</text></g><g class="xtick"><text text-anchor="middle" x="0" y="509" style="font-family: 'Open Sans', verdana, arial, sans-serif; font-size: 12px; fill: rgb(42, 63, 95); fill-opacity: 1; white-space: pre; opacity: 1;" transform="translate(625.38,0)">100</text></g><g class="xtick"><text text-anchor="middle" x="0" y="509" style="font-family: 'Open Sans', verdana, arial, sans-serif; font-size: 12px; fill: rgb(42, 63, 95); fill-opacity: 1; white-space: pre; opacity: 1;" transform="translate(722.83,0)">120</text></g><g class="xtick"><text text-anchor="middle" x="0" y="509" style="font-family: 'Open Sans', verdana, arial, sans-serif; font-size: 12px; fill: rgb(42, 63, 95); fill-opacity: 1; white-space: pre; opacity: 1;" transform="translate(820.28,0)">140</text></g></g><g class="yaxislayer-above"><g class="ytick"><text text-anchor="end" x="142" y="4.199999999999999" transform="translate(0,478.05)" style="font-family: 'Open Sans', verdana, arial, sans-serif; font-size: 12px; fill: rgb(42, 63, 95); fill-opacity: 1; white-space: pre; opacity: 1;">55</text></g><g class="ytick"><text text-anchor="end" x="142" y="4.199999999999999" style="font-family: 'Open Sans', verdana, arial, sans-serif; font-size: 12px; fill: rgb(42, 63, 95); fill-opacity: 1; white-space: pre; opacity: 1;" transform="translate(0,420.29)">60</text></g><g class="ytick"><text text-anchor="end" x="142" y="4.199999999999999" style="font-family: 'Open Sans', verdana, arial, sans-serif; font-size: 12px; fill: rgb(42, 63, 95); fill-opacity: 1; white-space: pre; opacity: 1;" transform="translate(0,362.52)">65</text></g><g class="ytick"><text text-anchor="end" x="142" y="4.199999999999999" style="font-family: 'Open Sans', verdana, arial, sans-serif; font-size: 12px; fill: rgb(42, 63, 95); fill-opacity: 1; white-space: pre; opacity: 1;" transform="translate(0,304.76)">70</text></g><g class="ytick"><text text-anchor="end" x="142" y="4.199999999999999" style="font-family: 'Open Sans', verdana, arial, sans-serif; font-size: 12px; fill: rgb(42, 63, 95); fill-opacity: 1; white-space: pre; opacity: 1;" transform="translate(0,246.99)">75</text></g><g class="ytick"><text text-anchor="end" x="142" y="4.199999999999999" style="font-family: 'Open Sans', verdana, arial, sans-serif; font-size: 12px; fill: rgb(42, 63, 95); fill-opacity: 1; white-space: pre; opacity: 1;" transform="translate(0,189.23000000000002)">80</text></g><g class="ytick"><text text-anchor="end" x="142" y="4.199999999999999" style="font-family: 'Open Sans', verdana, arial, sans-serif; font-size: 12px; fill: rgb(42, 63, 95); fill-opacity: 1; white-space: pre; opacity: 1;" transform="translate(0,131.47)">85</text></g></g><g class="overaxes-above"/></g></g><g class="polarlayer"/><g class="smithlayer"/><g class="ternarylayer"/><g class="geolayer"/><g class="funnelarealayer"/><g class="pielayer"/><g class="iciclelayer"/><g class="treemaplayer"/><g class="sunburstlayer"/><g class="glimages"/><defs id="topdefs-434458"><g class="clips"/><clipPath id="legend434458"><rect width="128" height="162" x="0" y="0"/></clipPath></defs><g class="layer-above"><g class="imagelayer"/><g class="shapelayer"/></g><g class="infolayer"><g class="legend" pointer-events="all" transform="translate(883.52,100)"><rect class="bg" shape-rendering="crispEdges" width="128" height="162" x="0" y="0" style="stroke: rgb(68, 68, 68); stroke-opacity: 1; fill: rgb(255, 255, 255); fill-opacity: 1; stroke-width: 0px;"/><g class="scrollbox" transform="" clip-path="url(#legend434458)"><g class="groups"><g class="traces" transform="translate(0,14.5)" style="opacity: 1;"><text class="legendtext" text-anchor="start" x="40" y="4.680000000000001" style="font-family: 'Open Sans', verdana, arial, sans-serif; font-size: 12px; fill: rgb(42, 63, 95); fill-opacity: 1; white-space: pre;">Train Accuracy</text><g class="layers" style="opacity: 1;"><g class="legendfill"/><g class="legendlines"><path class="js-line" d="M5,0h30" style="fill: none; stroke: rgb(255, 0, 0); stroke-opacity: 1; stroke-width: 2px;"/></g><g class="legendsymbols"><g class="legendpoints"/></g></g><rect class="legendtoggle" x="0" y="-9.5" width="122.71875" height="19" style="fill: rgb(0, 0, 0); fill-opacity: 0;"/></g><g class="traces" transform="translate(0,33.5)" style="opacity: 1;"><text class="legendtext" text-anchor="start" x="40" y="4.680000000000001" style="font-family: 'Open Sans', verdana, arial, sans-serif; font-size: 12px; fill: rgb(42, 63, 95); fill-opacity: 1; white-space: pre;">Test Accuracy</text><g class="layers" style="opacity: 1;"><g class="legendfill"/><g class="legendlines"><path class="js-line" d="M5,0h30" style="fill: none; stroke: rgb(0, 0, 255); stroke-opacity: 1; stroke-width: 2px;"/></g><g class="legendsymbols"><g class="legendpoints"/></g></g><rect class="legendtoggle" x="0" y="-9.5" width="122.71875" height="19" style="fill: rgb(0, 0, 0); fill-opacity: 0;"/></g><g class="traces" transform="translate(0,52.5)" style="opacity: 1;"><text class="legendtext" text-anchor="start" x="40" y="4.680000000000001" style="font-family: 'Open Sans', verdana, arial, sans-serif; font-size: 12px; fill: rgb(42, 63, 95); fill-opacity: 1; white-space: pre;">Train Precision</text><g class="layers" style="opacity: 1;"><g class="legendfill"/><g class="legendlines"><path class="js-line" d="M5,0h30" style="fill: none; stroke: rgb(0, 128, 0); stroke-opacity: 1; stroke-width: 2px;"/></g><g class="legendsymbols"><g class="legendpoints"/></g></g><rect class="legendtoggle" x="0" y="-9.5" width="122.71875" height="19" style="fill: rgb(0, 0, 0); fill-opacity: 0;"/></g><g class="traces" transform="translate(0,71.5)" style="opacity: 1;"><text class="legendtext" text-anchor="start" x="40" y="4.680000000000001" style="font-family: 'Open Sans', verdana, arial, sans-serif; font-size: 12px; fill: rgb(42, 63, 95); fill-opacity: 1; white-space: pre;">Test Precision</text><g class="layers" style="opacity: 1;"><g class="legendfill"/><g class="legendlines"><path class="js-line" d="M5,0h30" style="fill: none; stroke: rgb(255, 165, 0); stroke-opacity: 1; stroke-width: 2px;"/></g><g class="legendsymbols"><g class="legendpoints"/></g></g><rect class="legendtoggle" x="0" y="-9.5" width="122.71875" height="19" style="fill: rgb(0, 0, 0); fill-opacity: 0;"/></g><g class="traces" transform="translate(0,90.5)" style="opacity: 1;"><text class="legendtext" text-anchor="start" x="40" y="4.680000000000001" style="font-family: 'Open Sans', verdana, arial, sans-serif; font-size: 12px; fill: rgb(42, 63, 95); fill-opacity: 1; white-space: pre;">Train Recall</text><g class="layers" style="opacity: 1;"><g class="legendfill"/><g class="legendlines"><path class="js-line" d="M5,0h30" style="fill: none; stroke: rgb(128, 0, 128); stroke-opacity: 1; stroke-width: 2px;"/></g><g class="legendsymbols"><g class="legendpoints"/></g></g><rect class="legendtoggle" x="0" y="-9.5" width="122.71875" height="19" style="fill: rgb(0, 0, 0); fill-opacity: 0;"/></g><g class="traces" transform="translate(0,109.5)" style="opacity: 1;"><text class="legendtext" text-anchor="start" x="40" y="4.680000000000001" style="font-family: 'Open Sans', verdana, arial, sans-serif; font-size: 12px; fill: rgb(42, 63, 95); fill-opacity: 1; white-space: pre;">Test Recall</text><g class="layers" style="opacity: 1;"><g class="legendfill"/><g class="legendlines"><path class="js-line" d="M5,0h30" style="fill: none; stroke: rgb(255, 192, 203); stroke-opacity: 1; stroke-width: 2px;"/></g><g class="legendsymbols"><g class="legendpoints"/></g></g><rect class="legendtoggle" x="0" y="-9.5" width="122.71875" height="19" style="fill: rgb(0, 0, 0); fill-opacity: 0;"/></g><g class="traces" transform="translate(0,128.5)" style="opacity: 1;"><text class="legendtext" text-anchor="start" x="40" y="4.680000000000001" style="font-family: 'Open Sans', verdana, arial, sans-serif; font-size: 12px; fill: rgb(42, 63, 95); fill-opacity: 1; white-space: pre;">Train F1</text><g class="layers" style="opacity: 1;"><g class="legendfill"/><g class="legendlines"><path class="js-line" d="M5,0h30" style="fill: none; stroke: rgb(165, 42, 42); stroke-opacity: 1; stroke-width: 2px;"/></g><g class="legendsymbols"><g class="legendpoints"/></g></g><rect class="legendtoggle" x="0" y="-9.5" width="122.71875" height="19" style="fill: rgb(0, 0, 0); fill-opacity: 0;"/></g><g class="traces" transform="translate(0,147.5)" style="opacity: 1;"><text class="legendtext" text-anchor="start" x="40" y="4.680000000000001" style="font-family: 'Open Sans', verdana, arial, sans-serif; font-size: 12px; fill: rgb(42, 63, 95); fill-opacity: 1; white-space: pre;">Test F1</text><g class="layers" style="opacity: 1;"><g class="legendfill"/><g class="legendlines"><path class="js-line" d="M5,0h30" style="fill: none; stroke: rgb(128, 128, 128); stroke-opacity: 1; stroke-width: 2px;"/></g><g class="legendsymbols"><g class="legendpoints"/></g></g><rect class="legendtoggle" x="0" y="-9.5" width="122.71875" height="19" style="fill: rgb(0, 0, 0); fill-opacity: 0;"/></g></g></g><rect class="scrollbar" rx="20" ry="3" width="0" height="0" x="0" y="0" style="fill: rgb(128, 139, 164); fill-opacity: 1;"/></g><g class="g-gtitle"><text class="gtitle" x="51.2" y="50" text-anchor="start" dy="0em" style="font-family: 'Open Sans', verdana, arial, sans-serif; font-size: 17px; fill: rgb(42, 63, 95); opacity: 1; font-weight: normal; white-space: pre;">Training Metrics - logs/FakeNewsNet-politifact_num-clauses=5000_max-vocab=15000_pre=v2_text_T=150_s=10.log</text></g><g class="g-xtitle"><text class="xtitle" x="506" y="537.3" text-anchor="middle" style="font-family: 'Open Sans', verdana, arial, sans-serif; font-size: 14px; fill: rgb(42, 63, 95); opacity: 1; font-weight: normal; white-space: pre;">Epoch</text></g><g class="g-ytitle"><text class="ytitle" transform="rotate(-90,103.965625,298)" x="103.965625" y="298" text-anchor="middle" style="font-family: 'Open Sans', verdana, arial, sans-serif; font-size: 14px; fill: rgb(42, 63, 95); opacity: 1; font-weight: normal; white-space: pre;">Metric Score</text></g></g><g class="menulayer"><g class="updatemenu-container" style="cursor: pointer;"><g class="updatemenu-header-group" transform="translate(12,60)"><g class="updatemenu-header" transform="translate(1,1)" style="pointer-events: all;"><rect class="updatemenu-item-rect" rx="2" ry="2" shape-rendering="crispEdges" x="0" y="0" width="167" height="33" style="stroke: rgb(190, 200, 217); stroke-opacity: 1; fill: rgb(255, 255, 255); fill-opacity: 1; stroke-width: 1px;"/><text class="updatemenu-item-text" text-anchor="start" data-notex="1" x="12" y="19.5" style="font-family: 'Open Sans', verdana, arial, sans-serif; font-size: 12px; fill: rgb(42, 63, 95); fill-opacity: 1; white-space: pre;">All</text></g><text class="updatemenu-header-arrow" text-anchor="end" x="163" y="19.5" style="font-family: 'Open Sans', verdana, arial, sans-serif; font-size: 12px; fill: rgb(42, 63, 95); fill-opacity: 1;">▼</text></g><g class="updatemenu-dropdown-button-group" updatemenu-active-index="-1" style="pointer-events: all;"><rect class="scrollbox-bg" opacity="0" x="0" y="0" width="0" height="0" style="pointer-events: all;"/></g></g></g></svg>