<svg class="main-svg" xmlns="http://www.w3.org/2000/svg" xmlns:xlink="http://www.w3.org/1999/xlink" width="1024" height="576" style="" viewBox="0 0 1024 576"><rect x="0" y="0" width="1024" height="576" style="fill: rgb(255, 255, 255); fill-opacity: 1;"/><defs id="defs-472620"><g class="clips"><clipPath id="clip472620xyplot" class="plotclip"><rect width="721" height="396"/></clipPath><clipPath class="axesclip" id="clip472620x"><rect x="149" y="0" width="721" height="576"/></clipPath><clipPath class="axesclip" id="clip472620y"><rect x="0" y="100" width="1024" height="396"/></clipPath><clipPath class="axesclip" id="clip472620xy"><rect x="149" y="100" width="721" height="396"/></clipPath></g><g class="gradients"/><g class="patterns"/></defs><g class="bglayer"><rect class="bg" x="149" y="100" width="721" height="396" style="fill: rgb(229, 236, 246); fill-opacity: 1; stroke-width: 0;"/></g><g class="layer-below"><g class="imagelayer"/><g class="shapelayer"/></g><g class="cartesianlayer"><g class="subplot xy"><g class="layer-subplot"><g class="shapelayer"/><g class="imagelayer"/></g><g class="minor-gridlayer"><g class="x"/><g class="y"/></g><g class="gridlayer"><g class="x"><path class="xgrid crisp" transform="translate(240.94,0)" d="M0,100v396" style="stroke: rgb(255, 255, 255); stroke-opacity: 1; stroke-width: 1px;"/><path class="xgrid crisp" transform="translate(337.72,0)" d="M0,100v396" style="stroke: rgb(255, 255, 255); stroke-opacity: 1; stroke-width: 1px;"/><path class="xgrid crisp" transform="translate(434.5,0)" d="M0,100v396" style="stroke: rgb(255, 255, 255); stroke-opacity: 1; stroke-width: 1px;"/><path class="xgrid crisp" transform="translate(531.28,0)" d="M0,100v396" style="stroke: rgb(255, 255, 255); stroke-opacity: 1; stroke-width: 1px;"/><path class="xgrid crisp" transform="translate(628.05,0)" d="M0,100v396" style="stroke: rgb(255, 255, 255); stroke-opacity: 1; stroke-width: 1px;"/><path class="xgrid crisp" transform="translate(724.83,0)" d="M0,100v396" style="stroke: rgb(255, 255, 255); stroke-opacity: 1; stroke-width: 1px;"/><path class="xgrid crisp" transform="translate(821.61,0)" d="M0,100v396" style="stroke: rgb(255, 255, 255); stroke-opacity: 1; stroke-width: 1px;"/></g><g class="y"><path class="ygrid crisp" transform="translate(0,489.03)" d="M149,0h721" style="stroke: rgb(255, 255, 255); stroke-opacity: 1; stroke-width: 1px;"/><path class="ygrid crisp" transform="translate(0,442.88)" d="M149,0h721" style="stroke: rgb(255, 255, 255); stroke-opacity: 1; stroke-width: 1px;"/><path class="ygrid crisp" transform="translate(0,396.72)" d="M149,0h721" style="stroke: rgb(255, 255, 255); stroke-opacity: 1; stroke-width: 1px;"/><path class="ygrid crisp" transform="translate(0,350.57)" d="M149,0h721" style="stroke: rgb(255, 255, 255); stroke-opacity: 1; stroke-width: 1px;"/><path class="ygrid crisp" transform="translate(0,304.41999999999996)" d="M149,0h721" style="stroke: rgb(255, 255, 255); stroke-opacity: 1; stroke-width: 1px;"/><path class="ygrid crisp" transform="translate(0,258.26)" d="M149,0h721" style="stroke: rgb(255, 255, 255); stroke-opacity: 1; stroke-width: 1px;"/><path class="ygrid crisp" transform="translate(0,212.11)" d="M149,0h721" style="stroke: rgb(255, 255, 255); stroke-opacity: 1; stroke-width: 1px;"/><path class="ygrid crisp" transform="translate(0,165.95)" d="M149,0h721" style="stroke: rgb(255, 255, 255); stroke-opacity: 1; stroke-width: 1px;"/><path class="ygrid crisp" transform="translate(0,119.8)" d="M149,0h721" style="stroke: rgb(255, 255, 255); stroke-opacity: 1; stroke-width: 1px;"/></g></g><g class="zerolinelayer"/><path class="xlines-below"/><path class="ylines-below"/><g class="overlines-below"/><g class="xaxislayer-below"/><g class="yaxislayer-below"/><g class="overaxes-below"/><g class="plot" transform="translate(149,100)" clip-path="url(#clip472620xyplot)"><g class="scatterlayer mlayer"><g class="trace scatter trace13cbf5" style="stroke-miterlimit: 2; opacity: 1;"><g class="fills"/><g class="errorbars"/><g class="lines"><path class="js-line" d="M0,250.57L4.84,236.17L9.68,208.52L14.52,171.23L19.36,90.69L24.19,91.89L29.03,79.89L33.87,61.85L38.71,55.85L43.55,54.65L48.39,67.89L53.23,60.65L58.07,60.65L62.91,53.45L67.74,42.65L77.42,47.45L82.26,59.45L91.94,45.05L96.78,42.65L101.62,42.65L106.46,37.85L111.3,36.65L116.13,34.2L120.97,37.85L125.81,36.65L130.65,36.65L135.49,31.8L140.33,29.4L145.17,33L150.01,29.4L154.85,29.4L164.52,27L169.36,27L174.2,30.6L179.04,24.6L183.88,31.8L188.72,22.2L193.56,24.6L198.4,19.8L203.23,22.2L208.07,33L212.91,27L217.75,30.6L222.59,22.2L227.43,21L232.27,21L237.11,19.8L241.95,21L246.79,23.4L251.62,21L256.46,23.4L261.3,28.2L266.14,21L280.66,21L285.5,19.8L295.17,19.8L300.01,21L304.85,22.2L309.69,21L314.53,19.8L319.37,19.8L324.21,22.2L329.05,19.8L358.08,19.8L362.92,21L367.76,19.8L372.6,19.8L377.44,21L382.28,23.4L387.11,19.8L391.95,19.8L396.79,19.8L401.63,21L406.47,19.8L411.31,19.8L450.02,19.8L454.86,21L459.7,19.8L464.54,19.8L721,19.8" style="vector-effect: none; fill: none; stroke: rgb(255, 0, 0); stroke-opacity: 1; stroke-width: 2px; opacity: 1;"/></g><g class="points"/><g class="text"/></g><g class="trace scatter trace6b60af" style="stroke-miterlimit: 2; opacity: 1;"><g class="fills"/><g class="errorbars"/><g class="lines"><path class="js-line" d="M0,245.77L4.84,260.17L9.68,284.22L14.52,279.42L19.36,264.97L24.19,240.97L29.03,289.02L33.87,279.42L38.71,264.97L43.55,269.82L48.39,250.57L53.23,269.82L58.07,260.17L62.91,284.22L67.74,279.42L77.42,289.02L82.26,279.42L87.1,269.82L91.94,279.42L96.78,274.62L101.62,264.97L106.46,293.86L111.3,303.46L116.13,274.62L120.97,274.62L130.65,284.22L135.49,293.86L140.33,293.86L145.17,284.22L150.01,284.22L154.85,279.42L159.68,269.82L164.52,269.82L169.36,274.62L174.2,264.97L179.04,284.22L183.88,269.82L193.56,260.17L198.4,274.62L203.23,264.97L208.07,279.42L212.91,274.62L217.75,284.22L222.59,269.82L227.43,284.22L246.79,264.97L251.62,264.97L256.46,274.62L261.3,264.97L266.14,279.42L270.98,279.42L275.82,284.22L280.66,274.62L300.01,274.62L304.85,279.42L314.53,260.17L319.37,274.62L324.21,269.82L329.05,255.37L333.89,269.82L338.72,264.97L343.56,250.57L348.4,269.82L358.08,250.57L362.92,269.82L367.76,250.57L372.6,264.97L377.44,264.97L382.28,269.82L387.11,255.37L391.95,260.17L396.79,274.62L401.63,264.97L406.47,255.37L411.31,255.37L416.15,260.17L420.99,255.37L425.83,250.57L430.66,279.42L435.5,264.97L440.34,274.62L445.18,279.42L450.02,264.97L454.86,269.82L459.7,250.57L464.54,255.37L469.38,269.82L479.05,279.42L483.89,264.97L488.73,264.97L493.57,279.42L498.41,269.82L503.25,250.57L508.09,245.77L512.93,255.37L517.77,245.77L522.6,269.82L527.44,264.97L532.28,264.97L537.12,269.82L541.96,255.37L546.8,269.82L551.64,274.62L556.48,264.97L561.32,264.97L566.15,269.82L570.99,260.17L575.83,269.82L580.67,260.17L585.51,264.97L590.35,274.62L595.19,255.37L600.03,260.17L604.87,260.17L609.7,255.37L614.54,255.37L619.38,260.17L629.06,250.57L633.9,255.37L638.74,245.77L643.58,255.37L648.42,255.37L653.26,264.97L658.09,260.17L662.93,264.97L667.77,264.97L672.61,269.82L677.45,264.97L682.29,264.97L687.13,260.17L691.97,260.17L696.81,255.37L701.64,255.37L706.48,260.17L711.32,260.17L716.16,260.17L721,264.97" style="vector-effect: none; fill: none; stroke: rgb(0, 0, 255); stroke-opacity: 1; stroke-width: 2px; opacity: 1;"/></g><g class="points"/><g class="text"/></g><g class="trace scatter trace779e9f" style="stroke-miterlimit: 2; opacity: 1;"><g class="fills"/><g class="errorbars"/><g class="lines"><path class="js-line" d="M0,135.51L4.84,161.91L9.68,129.65L14.52,122.95L19.36,90.37L24.19,91.25L29.03,78.32L33.87,60.09L38.71,55.75L43.55,51.92L48.39,60.6L53.23,54.69L58.07,54.69L62.91,51.37L67.74,42L72.58,45.05L77.42,45.51L82.26,55.71L87.1,49.94L91.94,44.17L96.78,42.51L101.62,42.65L106.46,37.75L111.3,36.6L116.13,33.69L120.97,37.71L125.81,36.46L130.65,36.46L135.49,31.57L140.33,29.4L145.17,32.77L150.01,29.35L154.85,29.35L164.52,26.82L169.36,27L174.2,30.37L179.04,24.6L183.88,31.29L188.72,22.2L193.56,24.6L198.4,19.8L203.23,22.2L208.07,32.35L212.91,26.82L217.75,30.18L222.59,22.2L227.43,21L232.27,21L237.11,19.8L241.95,21L246.79,23.35L251.62,21L256.46,23.35L261.3,27.97L266.14,21L280.66,21L285.5,19.8L295.17,19.8L300.01,21L304.85,22.2L309.69,21L314.53,19.8L319.37,19.8L324.21,22.2L329.05,19.8L358.08,19.8L362.92,21L367.76,19.8L372.6,19.8L377.44,21L382.28,23.35L387.11,19.8L391.95,19.8L396.79,19.8L401.63,21L406.47,19.8L411.31,19.8L450.02,19.8L454.86,21L459.7,19.8L464.54,19.8L721,19.8" style="vector-effect: none; fill: none; stroke: rgb(0, 128, 0); stroke-opacity: 1; stroke-width: 2px; opacity: 1;"/></g><g class="points"/><g class="text"/></g><g class="trace scatter trace5ef0af" style="stroke-miterlimit: 2; opacity: 1;"><g class="fills"/><g class="errorbars"/><g class="lines"><path class="js-line" d="M0,363.55L9.68,376.2L14.52,374.82L19.36,264.83L24.19,238.8L29.03,292.62L33.87,279.32L38.71,264.6L43.55,269.91L48.39,251.72L53.23,272.72L58.07,262.34L62.91,284.86L67.74,279.51L72.58,284.08L77.42,290.58L82.26,285.51L87.1,275.63L91.94,284.22L101.62,264.6L106.46,293.72L111.3,303.42L116.13,274.85L120.97,275.58L125.81,280.25L135.49,294.23L140.33,293.72L145.17,284.86L150.01,284.22L154.85,281.4L159.68,270.51L164.52,270.18L169.36,274.38L174.2,265.2L179.04,284.22L183.88,271.43L188.72,265.2L193.56,259.94L198.4,274.38L203.23,265.2L208.07,284.22L212.91,277.48L217.75,286.8L222.59,270.92L227.43,284.86L237.11,274.62L241.95,270.18L246.79,265.48L251.62,265.48L256.46,275.17L261.3,267.23L266.14,279.23L270.98,279.32L275.82,284.22L280.66,275.17L290.34,275.17L295.17,275.17L300.01,275.17L304.85,279.83L314.53,259.94L319.37,274.38L324.21,270.92L329.05,254.86L333.89,269.72L338.72,264.83L343.56,250.25L348.4,269.72L358.08,250.06L362.92,269.49L367.76,250.48L372.6,265.2L377.44,265.85L382.28,270.92L387.11,255.6L391.95,260.31L396.79,275.58L401.63,265.85L406.47,255.83L411.31,255.37L416.15,260.08L420.99,255.6L425.83,250.48L430.66,280.25L435.5,264.97L440.34,274.62L445.18,280.75L450.02,264.83L454.86,270.51L459.7,251.49L464.54,255.83L469.38,269.58L479.05,279.32L483.89,265.2L488.73,265.2L493.57,279.23L498.41,269.49L503.25,250.89L508.09,246.46L512.93,255.83L517.77,246.28L522.6,269.58L527.44,264.97L532.28,265.48L537.12,269.58L541.96,255.83L546.8,270.18L551.64,275.17L556.48,265.2L561.32,265.48L566.15,270.92L570.99,260.82L575.83,270.51L580.67,260.82L585.51,265.48L590.35,275.58L595.19,256.06L600.03,260.82L604.87,260.82L609.7,256.06L614.54,255.83L619.38,261.09L624.22,255.6L629.06,251.31L633.9,255.83L638.74,246.74L643.58,255.83L648.42,255.83L653.26,265.2L658.09,260.54L662.93,265.85L667.77,264.97L672.61,270.92L677.45,265.85L682.29,265.85L687.13,260.54L691.97,260.54L696.81,256.06L701.64,255.83L706.48,261.09L711.32,260.31L716.16,261.88L721,267.23" style="vector-effect: none; fill: none; stroke: rgb(255, 165, 0); stroke-opacity: 1; stroke-width: 2px; opacity: 1;"/></g><g class="points"/><g class="text"/></g><g class="trace scatter tracec93fd4" style="stroke-miterlimit: 2; opacity: 1;"><g class="fills"/><g class="errorbars"/><g class="lines"><path class="js-line" d="M0,249.37L4.84,237.23L9.68,209.49L14.52,171.97L19.36,90.65L24.19,91.98L29.03,80.03L33.87,61.75L38.71,55.89L43.55,54.51L48.39,67.66L53.23,60.46L58.07,60.46L62.91,53.31L67.74,42.55L77.42,47.31L82.26,59.31L91.94,44.95L96.78,42.6L101.62,42.65L106.46,37.85L111.3,36.6L116.13,34.15L120.97,37.8L125.81,36.6L130.65,36.6L135.49,31.85L140.33,29.45L145.17,33L150.01,29.4L154.85,29.4L164.52,26.95L169.36,27L174.2,30.55L179.04,24.6L183.88,31.75L188.72,22.2L193.56,24.6L198.4,19.8L203.23,22.2L208.07,32.95L212.91,26.95L217.75,30.55L222.59,22.2L227.43,21L232.27,21L237.11,19.8L241.95,21L246.79,23.4L251.62,21L256.46,23.4L261.3,28.15L266.14,21L280.66,21L285.5,19.8L295.17,19.8L300.01,21L304.85,22.2L309.69,21L314.53,19.8L319.37,19.8L324.21,22.2L329.05,19.8L358.08,19.8L362.92,21L367.76,19.8L372.6,19.8L377.44,21L382.28,23.4L387.11,19.8L391.95,19.8L396.79,19.8L401.63,21L406.47,19.8L411.31,19.8L450.02,19.8L454.86,21L459.7,19.8L464.54,19.8L721,19.8" style="vector-effect: none; fill: none; stroke: rgb(128, 0, 128); stroke-opacity: 1; stroke-width: 2px; opacity: 1;"/></g><g class="points"/><g class="text"/></g><g class="trace scatter trace71eadc" style="stroke-miterlimit: 2; opacity: 1;"><g class="fills"/><g class="errorbars"/><g class="lines"><path class="js-line" d="M0,250.57L4.84,255.46L9.68,280.02L14.52,275.12L19.36,264.78L24.19,239.63L29.03,287.35L33.87,279.32L38.71,264.18L43.55,269.91L48.39,251.68L53.23,271.11L58.07,261.51L62.91,284.63L67.74,279.51L72.58,283.85L77.42,289.75L87.1,271.71L91.94,280.94L96.78,274.8L101.62,264.18L106.46,293.68L111.3,303.09L116.13,274.8L120.97,275.22L130.65,285.46L135.49,293.08L140.33,293.68L145.17,284.63L150.01,284.22L154.85,280.34L159.68,270.32L164.52,270.09L169.36,274.2L174.2,265.2L179.04,284.22L183.88,270.69L193.56,259.89L198.4,274.02L203.23,265.2L208.07,280.94L212.91,275.82L217.75,285.23L222.59,270.51L227.43,284.63L241.95,270.09L246.79,265.38L251.62,265.38L256.46,275.03L261.3,266.22L266.14,279.14L270.98,279.32L275.82,284.22L280.66,275.03L285.5,274.8L300.01,275.03L304.85,279.74L314.53,259.89L319.37,274.2L324.21,270.51L329.05,254.77L333.89,269.72L338.72,264.78L343.56,250.25L348.4,269.72L358.08,250.06L362.92,269.12L367.76,250.48L372.6,265.2L377.44,265.62L382.28,270.51L387.11,255.6L391.95,260.31L396.79,275.22L401.63,265.62L406.47,255.78L411.31,255.37L416.15,260.08L420.99,255.6L425.83,250.48L430.66,279.92L435.5,265.02L440.34,274.62L445.18,280.11L450.02,264.78L454.86,270.32L459.7,251.49L464.54,255.78L469.38,269.49L479.05,278.72L483.89,265.2L488.73,265.2L493.57,279.14L498.41,269.31L503.25,250.89L508.09,246.55L512.93,255.78L517.77,246.37L522.6,269.49L527.44,265.02L532.28,265.38L537.12,269.49L541.96,255.78L546.8,270.09L551.64,275.03L556.48,265.2L561.32,265.38L566.15,270.51L570.99,260.68L575.83,270.32L580.67,260.68L585.51,265.38L590.35,275.22L595.19,255.97L600.03,260.68L604.87,260.68L609.7,255.97L614.54,255.78L619.38,260.91L629.06,251.26L633.9,255.78L638.74,246.97L643.58,255.78L648.42,255.78L653.26,265.2L658.09,260.49L662.93,265.62L667.77,265.02L672.61,270.51L677.45,265.62L682.29,265.62L687.13,260.49L691.97,260.49L696.81,255.97L701.64,255.78L706.48,260.91L711.32,260.31L716.16,261.28L721,266.22" style="vector-effect: none; fill: none; stroke: rgb(255, 192, 203); stroke-opacity: 1; stroke-width: 2px; opacity: 1;"/></g><g class="points"/><g class="text"/></g><g class="trace scatter tracee7166b" style="stroke-miterlimit: 2; opacity: 1;"><g class="fills"/><g class="errorbars"/><g class="lines"><path class="js-line" d="M0,325.38L4.84,295.34L9.68,246.37L14.52,187.62L19.36,90.74L24.19,92.03L29.03,80.08L33.87,61.94L38.71,55.85L43.55,54.74L48.39,68.31L53.23,60.97L58.07,60.97L62.91,53.54L67.74,42.65L77.42,47.49L82.26,59.63L91.94,45.05L96.78,42.65L101.62,42.65L106.46,37.85L111.3,36.65L116.13,34.25L120.97,37.85L125.81,36.65L130.65,36.65L135.49,31.85L140.33,29.4L145.17,33.05L150.01,29.4L154.85,29.4L164.52,27L169.36,27L174.2,30.6L179.04,24.6L183.88,31.85L188.72,22.2L193.56,24.6L198.4,19.8L203.23,22.2L208.07,33.05L212.91,27L217.75,30.6L222.59,22.2L227.43,21L232.27,21L237.11,19.8L241.95,21L246.79,23.4L251.62,21L256.46,23.4L261.3,28.2L266.14,21L280.66,21L285.5,19.8L295.17,19.8L300.01,21L304.85,22.2L309.69,21L314.53,19.8L319.37,19.8L324.21,22.2L329.05,19.8L358.08,19.8L362.92,21L367.76,19.8L372.6,19.8L377.44,21L382.28,23.4L387.11,19.8L391.95,19.8L396.79,19.8L401.63,21L406.47,19.8L411.31,19.8L450.02,19.8L454.86,21L459.7,19.8L464.54,19.8L721,19.8" style="vector-effect: none; fill: none; stroke: rgb(165, 42, 42); stroke-opacity: 1; stroke-width: 2px; opacity: 1;"/></g><g class="points"/><g class="text"/></g><g class="trace scatter trace5d2638" style="stroke-miterlimit: 2; opacity: 1;"><g class="fills"/><g class="errorbars"/><g class="lines"><path class="js-line" d="M0,325.38L4.84,331.85L9.68,343.2L14.52,340.89L19.36,265.02L24.19,244.48L29.03,296.72L33.87,279.42L38.71,266.31L43.55,269.91L48.39,254.22L53.23,275.22L58.07,265.43L62.91,284.95L67.74,279.51L72.58,284.49L77.42,290.91L82.26,288.88L87.1,281.12L91.94,286.85L96.78,274.85L101.62,266.31L106.46,293.86L111.3,303.74L116.13,274.85L120.97,275.95L125.81,280.43L130.65,289.15L135.49,295.29L140.33,293.86L145.17,284.95L150.01,284.26L154.85,282.28L159.68,270.78L164.52,270.23L169.36,274.85L174.2,265.25L179.04,284.26L183.88,272.54L188.72,265.25L193.56,260.31L198.4,275.31L203.23,265.25L208.07,286.85L212.91,279.37L217.75,287.72L222.59,271.57L227.43,284.95L232.27,279.51L246.79,265.66L251.62,265.66L256.46,275.31L261.3,269.58L266.14,279.51L270.98,279.42L275.82,284.26L280.66,275.31L285.5,274.85L290.34,275.31L300.01,275.31L304.85,279.88L314.53,260.31L319.37,274.85L324.21,271.57L329.05,256.02L333.89,269.82L338.72,265.02L343.56,250.66L348.4,269.82L358.08,250.98L362.92,270.78L367.76,250.57L372.6,265.25L377.44,266.31L382.28,271.57L387.11,255.6L391.95,260.31L396.79,275.95L401.63,266.31L406.47,256.02L411.31,255.42L416.15,260.17L420.99,255.6L425.83,250.57L430.66,280.43L435.5,265.02L440.34,274.62L445.18,281.22L450.02,265.02L454.86,270.78L459.7,253.11L464.54,256.02L469.38,269.91L474.21,274.62L479.05,280.43L483.89,265.25L488.73,265.25L493.57,279.51L498.41,270.23L503.25,250.98L508.09,247.75L512.93,256.02L517.77,246.97L522.6,269.91L527.44,265.02L532.28,265.66L537.12,269.91L541.96,256.02L546.8,270.23L551.64,275.31L556.48,265.25L561.32,265.66L566.15,271.57L570.99,261.14L575.83,270.78L580.67,261.14L585.51,265.66L590.35,275.95L595.19,256.62L600.03,261.14L604.87,261.14L609.7,256.62L614.54,256.02L619.38,261.88L624.22,255.6L629.06,252.18L633.9,256.02L638.74,249.97L643.58,256.02L648.42,256.02L653.26,265.25L658.09,260.58L662.93,266.31L667.77,265.02L672.61,271.57L677.45,266.31L682.29,266.31L687.13,260.58L691.97,260.58L696.81,256.62L701.64,256.02L706.48,261.88L711.32,260.31L716.16,264L721,269.58" style="vector-effect: none; fill: none; stroke: rgb(128, 128, 128); stroke-opacity: 1; stroke-width: 2px; opacity: 1;"/></g><g class="points"/><g class="text"/></g></g></g><g class="overplot"/><path class="xlines-above crisp" d="M0,0" style="fill: none;"/><path class="ylines-above crisp" d="M0,0" style="fill: none;"/><g class="overlines-above"/><g class="xaxislayer-above"><g class="xtick"><text text-anchor="middle" x="0" y="509" transform="translate(240.94,0)" style="font-family: 'Open Sans', verdana, arial, sans-serif; font-size: 12px; fill: rgb(42, 63, 95); fill-opacity: 1; white-space: pre; opacity: 1;">20</text></g><g class="xtick"><text text-anchor="middle" x="0" y="509" style="font-family: 'Open Sans', verdana, arial, sans-serif; font-size: 12px; fill: rgb(42, 63, 95); fill-opacity: 1; white-space: pre; opacity: 1;" transform="translate(337.72,0)">40</text></g><g class="xtick"><text text-anchor="middle" x="0" y="509" style="font-family: 'Open Sans', verdana, arial, sans-serif; font-size: 12px; fill: rgb(42, 63, 95); fill-opacity: 1; white-space: pre; opacity: 1;" transform="translate(434.5,0)">60</text></g><g class="xtick"><text text-anchor="middle" x="0" y="509" style="font-family: 'Open Sans', verdana, arial, sans-serif; font-size: 12px; fill: rgb(42, 63, 95); fill-opacity: 1; white-space: pre; opacity: 1;" transform="translate(531.28,0)">80</text></g><g class="xtick"><text text-anchor="middle" x="0" y="509" style="font-family: 'Open Sans', verdana, arial, sans-serif; font-size: 12px; fill: rgb(42, 63, 95); fill-opacity: 1; white-space: pre; opacity: 1;" transform="translate(628.05,0)">100</text></g><g class="xtick"><text text-anchor="middle" x="0" y="509" style="font-family: 'Open Sans', verdana, arial, sans-serif; font-size: 12px; fill: rgb(42, 63, 95); fill-opacity: 1; white-space: pre; opacity: 1;" transform="translate(724.83,0)">120</text></g><g class="xtick"><text text-anchor="middle" x="0" y="509" style="font-family: 'Open Sans', verdana, arial, sans-serif; font-size: 12px; fill: rgb(42, 63, 95); fill-opacity: 1; white-space: pre; opacity: 1;" transform="translate(821.61,0)">140</text></g></g><g class="yaxislayer-above"><g class="ytick"><text text-anchor="end" x="148" y="4.199999999999999" transform="translate(0,489.03)" style="font-family: 'Open Sans', verdana, arial, sans-serif; font-size: 12px; fill: rgb(42, 63, 95); fill-opacity: 1; white-space: pre; opacity: 1;">20</text></g><g class="ytick"><text text-anchor="end" x="148" y="4.199999999999999" style="font-family: 'Open Sans', verdana, arial, sans-serif; font-size: 12px; fill: rgb(42, 63, 95); fill-opacity: 1; white-space: pre; opacity: 1;" transform="translate(0,442.88)">30</text></g><g class="ytick"><text text-anchor="end" x="148" y="4.199999999999999" style="font-family: 'Open Sans', verdana, arial, sans-serif; font-size: 12px; fill: rgb(42, 63, 95); fill-opacity: 1; white-space: pre; opacity: 1;" transform="translate(0,396.72)">40</text></g><g class="ytick"><text text-anchor="end" x="148" y="4.199999999999999" style="font-family: 'Open Sans', verdana, arial, sans-serif; font-size: 12px; fill: rgb(42, 63, 95); fill-opacity: 1; white-space: pre; opacity: 1;" transform="translate(0,350.57)">50</text></g><g class="ytick"><text text-anchor="end" x="148" y="4.199999999999999" style="font-family: 'Open Sans', verdana, arial, sans-serif; font-size: 12px; fill: rgb(42, 63, 95); fill-opacity: 1; white-space: pre; opacity: 1;" transform="translate(0,304.41999999999996)">60</text></g><g class="ytick"><text text-anchor="end" x="148" y="4.199999999999999" style="font-family: 'Open Sans', verdana, arial, sans-serif; font-size: 12px; fill: rgb(42, 63, 95); fill-opacity: 1; white-space: pre; opacity: 1;" transform="translate(0,258.26)">70</text></g><g class="ytick"><text text-anchor="end" x="148" y="4.199999999999999" style="font-family: 'Open Sans', verdana, arial, sans-serif; font-size: 12px; fill: rgb(42, 63, 95); fill-opacity: 1; white-space: pre; opacity: 1;" transform="translate(0,212.11)">80</text></g><g class="ytick"><text text-anchor="end" x="148" y="4.199999999999999" style="font-family: 'Open Sans', verdana, arial, sans-serif; font-size: 12px; fill: rgb(42, 63, 95); fill-opacity: 1; white-space: pre; opacity: 1;" transform="translate(0,165.95)">90</text></g><g class="ytick"><text text-anchor="end" x="148" y="4.199999999999999" style="font-family: 'Open Sans', verdana, arial, sans-serif; font-size: 12px; fill: rgb(42, 63, 95); fill-opacity: 1; white-space: pre; opacity: 1;" transform="translate(0,119.8)">100</text></g></g><g class="overaxes-above"/></g></g><g class="polarlayer"/><g class="smithlayer"/><g class="ternarylayer"/><g class="geolayer"/><g class="funnelarealayer"/><g class="pielayer"/><g class="iciclelayer"/><g class="treemaplayer"/><g class="sunburstlayer"/><g class="glimages"/><defs id="topdefs-472620"><g class="clips"/><clipPath id="legend472620"><rect width="128" height="162" x="0" y="0"/></clipPath></defs><g class="layer-above"><g class="imagelayer"/><g class="shapelayer"/></g><g class="infolayer"><g class="legend" pointer-events="all" transform="translate(884.42,100)"><rect class="bg" shape-rendering="crispEdges" width="128" height="162" x="0" y="0" style="stroke: rgb(68, 68, 68); stroke-opacity: 1; fill: rgb(255, 255, 255); fill-opacity: 1; stroke-width: 0px;"/><g class="scrollbox" transform="" clip-path="url(#legend472620)"><g class="groups"><g class="traces" transform="translate(0,14.5)" style="opacity: 1;"><text class="legendtext" text-anchor="start" x="40" y="4.680000000000001" style="font-family: 'Open Sans', verdana, arial, sans-serif; font-size: 12px; fill: rgb(42, 63, 95); fill-opacity: 1; white-space: pre;">Train Accuracy</text><g class="layers" style="opacity: 1;"><g class="legendfill"/><g class="legendlines"><path class="js-line" d="M5,0h30" style="fill: none; stroke: rgb(255, 0, 0); stroke-opacity: 1; stroke-width: 2px;"/></g><g class="legendsymbols"><g class="legendpoints"/></g></g><rect class="legendtoggle" x="0" y="-9.5" width="122.71875" height="19" style="fill: rgb(0, 0, 0); fill-opacity: 0;"/></g><g class="traces" transform="translate(0,33.5)" style="opacity: 1;"><text class="legendtext" text-anchor="start" x="40" y="4.680000000000001" style="font-family: 'Open Sans', verdana, arial, sans-serif; font-size: 12px; fill: rgb(42, 63, 95); fill-opacity: 1; white-space: pre;">Test Accuracy</text><g class="layers" style="opacity: 1;"><g class="legendfill"/><g class="legendlines"><path class="js-line" d="M5,0h30" style="fill: none; stroke: rgb(0, 0, 255); stroke-opacity: 1; stroke-width: 2px;"/></g><g class="legendsymbols"><g class="legendpoints"/></g></g><rect class="legendtoggle" x="0" y="-9.5" width="122.71875" height="19" style="fill: rgb(0, 0, 0); fill-opacity: 0;"/></g><g class="traces" transform="translate(0,52.5)" style="opacity: 1;"><text class="legendtext" text-anchor="start" x="40" y="4.680000000000001" style="font-family: 'Open Sans', verdana, arial, sans-serif; font-size: 12px; fill: rgb(42, 63, 95); fill-opacity: 1; white-space: pre;">Train Precision</text><g class="layers" style="opacity: 1;"><g class="legendfill"/><g class="legendlines"><path class="js-line" d="M5,0h30" style="fill: none; stroke: rgb(0, 128, 0); stroke-opacity: 1; stroke-width: 2px;"/></g><g class="legendsymbols"><g class="legendpoints"/></g></g><rect class="legendtoggle" x="0" y="-9.5" width="122.71875" height="19" style="fill: rgb(0, 0, 0); fill-opacity: 0;"/></g><g class="traces" transform="translate(0,71.5)" style="opacity: 1;"><text class="legendtext" text-anchor="start" x="40" y="4.680000000000001" style="font-family: 'Open Sans', verdana, arial, sans-serif; font-size: 12px; fill: rgb(42, 63, 95); fill-opacity: 1; white-space: pre;">Test Precision</text><g class="layers" style="opacity: 1;"><g class="legendfill"/><g class="legendlines"><path class="js-line" d="M5,0h30" style="fill: none; stroke: rgb(255, 165, 0); stroke-opacity: 1; stroke-width: 2px;"/></g><g class="legendsymbols"><g class="legendpoints"/></g></g><rect class="legendtoggle" x="0" y="-9.5" width="122.71875" height="19" style="fill: rgb(0, 0, 0); fill-opacity: 0;"/></g><g class="traces" transform="translate(0,90.5)" style="opacity: 1;"><text class="legendtext" text-anchor="start" x="40" y="4.680000000000001" style="font-family: 'Open Sans', verdana, arial, sans-serif; font-size: 12px; fill: rgb(42, 63, 95); fill-opacity: 1; white-space: pre;">Train Recall</text><g class="layers" style="opacity: 1;"><g class="legendfill"/><g class="legendlines"><path class="js-line" d="M5,0h30" style="fill: none; stroke: rgb(128, 0, 128); stroke-opacity: 1; stroke-width: 2px;"/></g><g class="legendsymbols"><g class="legendpoints"/></g></g><rect class="legendtoggle" x="0" y="-9.5" width="122.71875" height="19" style="fill: rgb(0, 0, 0); fill-opacity: 0;"/></g><g class="traces" transform="translate(0,109.5)" style="opacity: 1;"><text class="legendtext" text-anchor="start" x="40" y="4.680000000000001" style="font-family: 'Open Sans', verdana, arial, sans-serif; font-size: 12px; fill: rgb(42, 63, 95); fill-opacity: 1; white-space: pre;">Test Recall</text><g class="layers" style="opacity: 1;"><g class="legendfill"/><g class="legendlines"><path class="js-line" d="M5,0h30" style="fill: none; stroke: rgb(255, 192, 203); stroke-opacity: 1; stroke-width: 2px;"/></g><g class="legendsymbols"><g class="legendpoints"/></g></g><rect class="legendtoggle" x="0" y="-9.5" width="122.71875" height="19" style="fill: rgb(0, 0, 0); fill-opacity: 0;"/></g><g class="traces" transform="translate(0,128.5)" style="opacity: 1;"><text class="legendtext" text-anchor="start" x="40" y="4.680000000000001" style="font-family: 'Open Sans', verdana, arial, sans-serif; font-size: 12px; fill: rgb(42, 63, 95); fill-opacity: 1; white-space: pre;">Train F1</text><g class="layers" style="opacity: 1;"><g class="legendfill"/><g class="legendlines"><path class="js-line" d="M5,0h30" style="fill: none; stroke: rgb(165, 42, 42); stroke-opacity: 1; stroke-width: 2px;"/></g><g class="legendsymbols"><g class="legendpoints"/></g></g><rect class="legendtoggle" x="0" y="-9.5" width="122.71875" height="19" style="fill: rgb(0, 0, 0); fill-opacity: 0;"/></g><g class="traces" transform="translate(0,147.5)" style="opacity: 1;"><text class="legendtext" text-anchor="start" x="40" y="4.680000000000001" style="font-family: 'Open Sans', verdana, arial, sans-serif; font-size: 12px; fill: rgb(42, 63, 95); fill-opacity: 1; white-space: pre;">Test F1</text><g class="layers" style="opacity: 1;"><g class="legendfill"/><g class="legendlines"><path class="js-line" d="M5,0h30" style="fill: none; stroke: rgb(128, 128, 128); stroke-opacity: 1; stroke-width: 2px;"/></g><g class="legendsymbols"><g class="legendpoints"/></g></g><rect class="legendtoggle" x="0" y="-9.5" width="122.71875" height="19" style="fill: rgb(0, 0, 0); fill-opacity: 0;"/></g></g></g><rect class="scrollbar" rx="20" ry="3" width="0" height="0" x="0" y="0" style="fill: rgb(128, 139, 164); fill-opacity: 1;"/></g><g class="g-gtitle"><text class="gtitle" x="51.2" y="50" text-anchor="start" dy="0em" style="font-family: 'Open Sans', verdana, arial, sans-serif; font-size: 17px; fill: rgb(42, 63, 95); opacity: 1; font-weight: normal; white-space: pre;">Training Metrics - logs/fake-news-datasets-deception-FakeNewsAMT_p=0.25_num-clauses=10000_max-vocab=15000_pre=v2_text_T=200_s=15.log</text></g><g class="g-xtitle"><text class="xtitle" x="509.5" y="537.3" text-anchor="middle" style="font-family: 'Open Sans', verdana, arial, sans-serif; font-size: 14px; fill: rgb(42, 63, 95); opacity: 1; font-weight: normal; white-space: pre;">Epoch</text></g><g class="g-ytitle"><text class="ytitle" transform="rotate(-90,103.10625,298)" x="103.10625" y="298" text-anchor="middle" style="font-family: 'Open Sans', verdana, arial, sans-serif; font-size: 14px; fill: rgb(42, 63, 95); opacity: 1; font-weight: normal; white-space: pre;">Metric Score</text></g></g><g class="menulayer"><g class="updatemenu-container" style="cursor: pointer;"><g class="updatemenu-header-group" transform="translate(12,60)"><g class="updatemenu-header" transform="translate(1,1)" style="pointer-events: all;"><rect class="updatemenu-item-rect" rx="2" ry="2" shape-rendering="crispEdges" x="0" y="0" width="173" height="33" style="stroke: rgb(190, 200, 217); stroke-opacity: 1; fill: rgb(255, 255, 255); fill-opacity: 1; stroke-width: 1px;"/><text class="updatemenu-item-text" text-anchor="start" data-notex="1" x="12" y="19.5" style="font-family: 'Open Sans', verdana, arial, sans-serif; font-size: 12px; fill: rgb(42, 63, 95); fill-opacity: 1; white-space: pre;">All</text></g><text class="updatemenu-header-arrow" text-anchor="end" x="169" y="19.5" style="font-family: 'Open Sans', verdana, arial, sans-serif; font-size: 12px; fill: rgb(42, 63, 95); fill-opacity: 1;">▼</text></g><g class="updatemenu-dropdown-button-group" updatemenu-active-index="-1" style="pointer-events: all;"><rect class="scrollbox-bg" opacity="0" x="0" y="0" width="0" height="0" style="pointer-events: all;"/></g></g></g></svg>