<svg class="main-svg" xmlns="http://www.w3.org/2000/svg" xmlns:xlink="http://www.w3.org/1999/xlink" width="1024" height="576" style="" viewBox="0 0 1024 576"><rect x="0" y="0" width="1024" height="576" style="fill: rgb(255, 255, 255); fill-opacity: 1;"/><defs id="defs-3b8b66"><g class="clips"><clipPath id="clip3b8b66xyplot" class="plotclip"><rect width="726" height="396"/></clipPath><clipPath class="axesclip" id="clip3b8b66x"><rect x="143" y="0" width="726" height="576"/></clipPath><clipPath class="axesclip" id="clip3b8b66y"><rect x="0" y="100" width="1024" height="396"/></clipPath><clipPath class="axesclip" id="clip3b8b66xy"><rect x="143" y="100" width="726" height="396"/></clipPath></g><g class="gradients"/><g class="patterns"/></defs><g class="bglayer"><rect class="bg" x="143" y="100" width="726" height="396" style="fill: rgb(229, 236, 246); fill-opacity: 1; stroke-width: 0;"/></g><g class="layer-below"><g class="imagelayer"/><g class="shapelayer"/></g><g class="cartesianlayer"><g class="subplot xy"><g class="layer-subplot"><g class="shapelayer"/><g class="imagelayer"/></g><g class="minor-gridlayer"><g class="x"/><g class="y"/></g><g class="gridlayer"><g class="x"><path class="xgrid crisp" transform="translate(235.57999999999998,0)" d="M0,100v396" style="stroke: rgb(255, 255, 255); stroke-opacity: 1; stroke-width: 1px;"/><path class="xgrid crisp" transform="translate(333.03,0)" d="M0,100v396" style="stroke: rgb(255, 255, 255); stroke-opacity: 1; stroke-width: 1px;"/><path class="xgrid crisp" transform="translate(430.48,0)" d="M0,100v396" style="stroke: rgb(255, 255, 255); stroke-opacity: 1; stroke-width: 1px;"/><path class="xgrid crisp" transform="translate(527.9300000000001,0)" d="M0,100v396" style="stroke: rgb(255, 255, 255); stroke-opacity: 1; stroke-width: 1px;"/><path class="xgrid crisp" transform="translate(625.38,0)" d="M0,100v396" style="stroke: rgb(255, 255, 255); stroke-opacity: 1; stroke-width: 1px;"/><path class="xgrid crisp" transform="translate(722.83,0)" d="M0,100v396" style="stroke: rgb(255, 255, 255); stroke-opacity: 1; stroke-width: 1px;"/><path class="xgrid crisp" transform="translate(820.28,0)" d="M0,100v396" style="stroke: rgb(255, 255, 255); stroke-opacity: 1; stroke-width: 1px;"/></g><g class="y"><path class="ygrid crisp" transform="translate(0,478.23)" d="M143,0h726" style="stroke: rgb(255, 255, 255); stroke-opacity: 1; stroke-width: 1px;"/><path class="ygrid crisp" transform="translate(0,433.06)" d="M143,0h726" style="stroke: rgb(255, 255, 255); stroke-opacity: 1; stroke-width: 1px;"/><path class="ygrid crisp" transform="translate(0,387.89)" d="M143,0h726" style="stroke: rgb(255, 255, 255); stroke-opacity: 1; stroke-width: 1px;"/><path class="ygrid crisp" transform="translate(0,342.72)" d="M143,0h726" style="stroke: rgb(255, 255, 255); stroke-opacity: 1; stroke-width: 1px;"/><path class="ygrid crisp" transform="translate(0,297.55)" d="M143,0h726" style="stroke: rgb(255, 255, 255); stroke-opacity: 1; stroke-width: 1px;"/><path class="ygrid crisp" transform="translate(0,252.38)" d="M143,0h726" style="stroke: rgb(255, 255, 255); stroke-opacity: 1; stroke-width: 1px;"/><path class="ygrid crisp" transform="translate(0,207.20999999999998)" d="M143,0h726" style="stroke: rgb(255, 255, 255); stroke-opacity: 1; stroke-width: 1px;"/><path class="ygrid crisp" transform="translate(0,162.03)" d="M143,0h726" style="stroke: rgb(255, 255, 255); stroke-opacity: 1; stroke-width: 1px;"/><path class="ygrid crisp" transform="translate(0,116.86)" d="M143,0h726" style="stroke: rgb(255, 255, 255); stroke-opacity: 1; stroke-width: 1px;"/></g></g><g class="zerolinelayer"/><path class="xlines-below"/><path class="ylines-below"/><g class="overlines-below"/><g class="xaxislayer-below"/><g class="yaxislayer-below"/><g class="overaxes-below"/><g class="plot" transform="translate(143,100)" clip-path="url(#clip3b8b66xyplot)"><g class="scatterlayer mlayer"><g class="trace scatter trace5634d2" style="stroke-miterlimit: 2; opacity: 1;"><g class="fills"/><g class="errorbars"/><g class="lines"><path class="js-line" d="M0,299.86L4.87,211.55L9.74,192.81L14.62,222.17L19.49,200.71L24.36,181.96L29.23,190.1L34.11,174.06L38.98,165.93L43.85,190.1L48.72,179.25L53.6,181.96L58.47,160.51L63.34,302.35L68.21,294.44L73.09,331.93L77.96,355.87L82.83,339.84L87.7,275.69L92.58,235.49L97.45,176.77L102.32,158.02L107.19,176.77L116.94,176.77L121.81,163.22L126.68,171.35L131.56,152.6L136.43,139.28L141.3,147.18L146.17,117.82L151.05,117.82L155.92,125.73L160.79,152.6L165.66,147.18L170.54,147.18L175.41,155.31L180.28,125.73L185.15,107.21L190.03,99.08L194.9,152.6L199.77,139.28L204.64,149.89L209.52,123.24L214.39,128.44L219.26,128.44L224.13,120.53L229.01,187.38L233.88,160.51L238.75,117.82L243.62,99.08L248.5,136.57L253.37,171.35L258.24,227.59L263.11,222.17L267.99,211.55L272.86,90.94L277.73,125.73L282.6,219.46L287.48,198L292.35,99.08L297.22,112.4L302.09,96.37L306.97,115.11L311.84,104.5L316.71,96.37L321.58,85.75L326.46,85.75L331.33,109.69L336.2,74.91L345.95,112.4L350.82,96.37L355.69,104.5L360.56,101.79L365.44,101.79L370.31,123.24L375.18,117.82L380.05,96.37L384.93,117.82L389.8,88.46L394.67,56.16L399.54,32.22L404.42,104.5L409.29,26.8L414.16,56.16L419.03,42.84L423.91,80.33L428.78,88.46L433.65,101.79L438.52,93.65L443.4,99.08L448.27,109.69L453.14,120.53L458.01,90.94L462.89,64.29L467.76,56.16L472.63,56.16L477.5,61.58L482.38,67L487.25,74.91L492.12,115.11L496.99,85.75L501.87,74.91L506.74,96.37L511.61,58.87L516.48,48.26L521.36,85.75L526.23,99.08L531.1,42.84L535.97,40.13L540.85,58.87L545.72,42.84L550.59,195.52L555.46,195.52L560.34,176.77L565.21,107.21L570.08,181.96L574.95,200.71L579.83,198L584.7,181.96L589.57,190.1L594.44,208.84L599.32,251.53L604.19,235.49L609.06,208.84L613.93,248.82L618.81,219.46L623.68,214.04L628.55,101.79L633.42,50.97L638.3,53.68L643.17,72.2L648.04,72.2L652.91,99.08L657.79,99.08L662.66,109.69L667.53,123.24L672.4,117.82L677.28,104.5L682.15,88.46L687.02,99.08L691.89,85.75L696.77,120.53L701.64,85.75L706.51,90.94L711.38,136.57L716.26,115.11L721.13,104.5L726,99.08" style="vector-effect: none; fill: none; stroke: rgb(255, 0, 0); stroke-opacity: 1; stroke-width: 2px; opacity: 1;"/></g><g class="points"/><g class="text"/></g><g class="trace scatter traced561a9" style="stroke-miterlimit: 2; opacity: 1;"><g class="fills"/><g class="errorbars"/><g class="lines"><path class="js-line" d="M0,289.25L4.87,161.41L9.74,193.26L14.62,172.03L19.49,203.87L24.36,161.41L29.23,139.96L34.11,161.41L38.98,118.72L43.85,161.41L48.72,118.72L53.6,129.34L58.47,161.41L63.34,289.25L68.21,267.79L73.09,321.09L77.96,342.55L82.83,342.55L87.7,278.4L92.58,235.94L97.45,150.57L102.32,172.03L107.19,172.03L112.07,172.03L116.94,161.41L121.81,161.41L126.68,172.03L131.56,161.41L136.43,182.64L141.3,139.96L146.17,129.34L151.05,150.57L155.92,161.41L160.79,150.57L165.66,129.34L170.54,129.34L175.41,161.41L180.28,118.72L185.15,108.11L194.9,150.57L199.77,108.11L204.64,150.57L209.52,86.65L214.39,139.96L219.26,172.03L224.13,161.41L229.01,257.17L233.88,289.25L238.75,150.57L243.62,139.96L248.5,193.26L253.37,289.25L258.24,331.71L267.99,331.71L272.86,182.64L277.73,225.33L282.6,374.39L287.48,353.16L292.35,214.49L297.22,182.64L302.09,193.26L306.97,203.87L311.84,193.26L316.71,172.03L321.58,129.34L326.46,150.57L331.33,150.57L336.2,150.57L341.07,161.41L345.95,182.64L350.82,161.41L355.69,161.41L360.56,182.64L365.44,172.03L370.31,182.64L375.18,182.64L380.05,139.96L384.93,150.57L389.8,139.96L394.67,129.34L399.54,161.41L404.42,246.56L409.29,172.03L414.16,129.34L419.03,150.57L423.91,139.96L428.78,139.96L433.65,161.41L438.52,108.11L443.4,129.34L448.27,139.96L453.14,129.34L458.01,129.34L462.89,150.57L467.76,193.26L472.63,172.03L477.5,214.49L482.38,203.87L487.25,172.03L492.12,139.96L496.99,172.03L501.87,172.03L506.74,299.86L511.61,172.03L516.48,161.41L521.36,129.34L526.23,289.25L531.1,139.96L535.97,108.11L545.72,129.34L550.59,310.48L555.46,310.48L560.34,289.25L565.21,214.49L570.08,278.4L574.95,353.16L579.83,321.09L589.57,257.17L594.44,310.48L599.32,342.55L604.19,331.71L609.06,321.09L613.93,342.55L618.81,299.86L623.68,342.55L628.55,267.79L633.42,108.11L638.3,129.34L643.17,118.72L652.91,139.96L657.79,129.34L662.66,129.34L667.53,139.96L672.4,139.96L677.28,182.64L682.15,139.96L687.02,139.96L691.89,129.34L696.77,139.96L701.64,161.41L706.51,172.03L711.38,150.57L716.26,150.57L721.13,150.57L726,129.34" style="vector-effect: none; fill: none; stroke: rgb(0, 0, 255); stroke-opacity: 1; stroke-width: 2px; opacity: 1;"/></g><g class="points"/><g class="text"/></g><g class="trace scatter traceeb6e4c" style="stroke-miterlimit: 2; opacity: 1;"><g class="fills"/><g class="errorbars"/><g class="lines"><path class="js-line" d="M0,306.18L4.87,222.17L9.74,203.87L14.62,235.04L19.49,205.45L24.36,193.93L29.23,200.26L34.11,183.55L38.98,177L43.85,202.07L48.72,190.77L53.6,194.16L58.47,172.03L63.34,285.18L68.21,280.44L77.96,321.99L82.83,305.73L87.7,258.3L92.58,224.88L97.45,188.74L102.32,169.54L107.19,188.51L112.07,186.93L116.94,186.71L121.81,172.93L126.68,182.64L131.56,161.41L136.43,150.12L141.3,158.25L146.17,128.44L151.05,126.86L155.92,137.02L160.79,164.12L165.66,158.7L170.54,158.7L175.41,166.83L180.28,136.79L185.15,118.05L190.03,108.56L194.9,164.12L199.77,150.57L204.64,161.41L209.52,134.08L214.39,139.05L219.26,139.5L224.13,128.44L229.01,184.22L238.75,128.44L243.62,109.92L253.37,172.48L258.24,212.45L267.99,192.35L272.86,99.98L277.73,120.98L282.6,192.35L287.48,175.19L292.35,101.56L297.22,119.18L302.09,95.91L306.97,114.21L311.84,106.75L316.71,105.63L321.58,95.46L326.46,95.69L331.33,119.4L336.2,83.27L341.07,104.04L345.95,123.24L350.82,106.75L355.69,115.34L360.56,111.95L365.44,111.5L370.31,134.08L375.18,128.21L380.05,106.98L384.93,128.89L389.8,98.85L394.67,65.42L399.54,41.03L404.42,100.66L409.29,36.06L414.16,65.87L419.03,52.77L423.91,86.88L428.78,96.37L433.65,111.5L438.52,103.59L443.4,104.72L448.27,113.98L453.14,128.21L458.01,100.43L462.89,74.23L467.76,66.55L472.63,65.2L477.5,71.97L487.25,82.36L492.12,116.47L496.99,92.75L501.87,81.68L506.74,102.91L511.61,68.81L516.48,58.42L521.36,96.14L526.23,100.66L531.1,52.77L535.97,49.61L540.85,69.26L545.72,51.19L550.59,162.09L555.46,156.89L560.34,145.6L565.21,98.4L570.08,163.44L574.95,167.51L579.83,167.51L584.7,164.8L589.57,167.96L594.44,173.16L599.32,205.9L604.19,198.68L609.06,178.35L613.93,213.13L618.81,193.93L623.68,190.1L628.55,107.21L633.42,59.32L638.3,61.58L643.17,82.14L648.04,82.59L652.91,109.92L657.79,109.92L662.66,120.76L667.53,133.63L672.4,128.89L677.28,114.66L682.15,99.08L687.02,109.92L691.89,95.69L696.77,131.37L701.64,95.91L706.51,99.53L711.38,147.86L716.26,126.18L721.13,115.34L726,109.92" style="vector-effect: none; fill: none; stroke: rgb(0, 128, 0); stroke-opacity: 1; stroke-width: 2px; opacity: 1;"/></g><g class="points"/><g class="text"/></g><g class="trace scatter trace97bcc9" style="stroke-miterlimit: 2; opacity: 1;"><g class="fills"/><g class="errorbars"/><g class="lines"><path class="js-line" d="M0,310.48L4.87,193.71L9.74,227.59L14.62,205L19.49,230.75L24.36,193.03L29.23,171.12L34.11,189.87L38.98,148.76L43.85,193.71L48.72,148.76L53.6,160.51L58.47,193.93L63.34,273.66L68.21,252.43L73.09,287.66L77.96,301.22L82.83,301.22L87.7,259.66L92.58,230.07L97.45,182.19L102.32,204.32L107.19,205.23L112.07,205.23L116.94,193.93L121.81,193.71L126.68,205.23L131.56,193.93L136.43,214.94L141.3,170.22L146.17,159.38L151.05,182.19L155.92,192.81L160.79,182.19L165.66,160.28L170.54,159.38L175.41,193.71L180.28,147.86L185.15,137.47L190.03,158.02L194.9,182.87L199.77,138.15L204.64,182.19L209.52,114.21L214.39,171.12L219.26,205.23L224.13,181.74L229.01,257.17L233.88,280.21L238.75,182.19L243.62,171.57L248.5,207.94L253.37,273.66L258.24,286.31L263.11,294.67L267.99,286.31L272.86,203.19L277.73,222.39L282.6,312.06L287.48,299.41L292.35,233.46L297.22,206.36L302.09,212L306.97,224.65L311.84,218.55L316.71,201.61L321.58,159.38L326.46,179.93L331.33,182.64L336.2,182.19L341.07,193.71L345.95,216.29L350.82,192.81L355.69,192.81L360.56,213.36L365.44,205L370.31,216.29L375.18,215.84L380.05,170.9L384.93,181.29L389.8,171.57L394.67,160.28L399.54,184.9L404.42,243.62L409.29,201.61L414.16,160.51L419.03,181.29L423.91,171.12L428.78,168.86L433.65,191.9L438.52,135.21L443.4,156.22L448.27,170.22L453.14,159.38L458.01,160.28L462.89,179.93L467.76,221.26L472.63,204.32L477.5,245.2L482.38,233.23L487.25,205L492.12,166.61L496.99,204.32L501.87,205L506.74,299.86L511.61,199.58L516.48,192.81L521.36,160.28L526.23,273.66L531.1,167.96L535.97,137.47L540.85,147.86L545.72,153.96L550.59,264.63L555.46,264.63L560.34,243.17L565.21,208.84L570.08,252.43L574.95,316.12L579.83,295.34L584.7,286.31L589.57,251.3L594.44,272.98L599.32,292.86L604.19,286.31L609.06,287.66L613.93,309.35L618.81,273.89L623.68,316.8L628.55,280.66L633.42,135.21L638.3,159.38L643.17,148.76L652.91,171.57L657.79,159.38L662.66,160.28L667.53,171.12L672.4,171.12L677.28,213.36L682.15,171.57L687.02,171.57L691.89,160.28L696.77,171.57L701.64,192.81L706.51,203.19L711.38,182.64L716.26,182.64L721.13,182.64L726,159.38" style="vector-effect: none; fill: none; stroke: rgb(255, 165, 0); stroke-opacity: 1; stroke-width: 2px; opacity: 1;"/></g><g class="points"/><g class="text"/></g><g class="trace scatter trace215895" style="stroke-miterlimit: 2; opacity: 1;"><g class="fills"/><g class="errorbars"/><g class="lines"><path class="js-line" d="M0,291.96L4.87,230.07L9.74,207.71L14.62,228.72L19.49,188.06L24.36,192.35L29.23,207.26L34.11,168.64L38.98,165.25L43.85,200.94L48.72,191.9L53.6,187.84L58.47,161.41L63.34,272.98L68.21,266.89L73.09,294.89L77.96,317.25L82.83,300.76L87.7,245.43L92.58,209.29L97.45,185.13L102.32,165.48L107.19,186.03L112.07,192.13L116.94,193.03L121.81,178.8L126.68,183.09L131.56,168.64L136.43,137.7L141.3,157.12L146.17,125.5L151.05,130.02L155.92,130.7L160.79,159.83L165.66,148.99L170.54,152.6L175.41,161.41L180.28,125.27L185.15,111.05L190.03,92.53L194.9,159.83L199.77,140.41L204.64,155.77L209.52,129.34L214.39,137.47L219.26,134.76L224.13,111.05L229.01,165.93L233.88,137.7L238.75,125.5L243.62,98.85L248.5,121.21L253.37,153.96L258.24,197.77L263.11,188.74L267.99,178.8L272.86,83.04L277.73,101.33L282.6,182.19L287.48,162.77L292.35,81.01L297.22,100.43L302.09,75.13L306.97,93.88L311.84,86.43L316.71,89.36L321.58,80.1L326.46,81.01L331.33,119.4L336.2,85.07L341.07,99.53L345.95,117.37L350.82,93.88L355.69,104.27L360.56,98.4L365.44,110.82L370.31,129.34L375.18,126.4L380.05,99.98L384.93,119.4L389.8,92.07L394.67,61.81L399.54,23.41L404.42,80.33L409.29,19.8L414.16,60L419.03,43.29L423.91,94.11L428.78,100.2L433.65,110.82L438.52,101.33L448.27,129.11L453.14,135.89L462.89,67.91L467.76,55.71L472.63,62.71L477.5,62.03L482.38,68.36L487.25,86.88L492.12,138.15L496.99,98.62L501.87,87.78L506.74,83.94L511.61,54.36L516.48,47.81L521.36,89.82L526.23,80.1L531.1,38.77L535.97,32.9L540.85,57.07L545.72,32.67L550.59,154.18L555.46,151.7L560.34,136.34L565.21,79.2L570.08,148.99L574.95,159.83L579.83,158.25L584.7,149.89L589.57,154.86L594.44,166.61L599.32,205.23L604.19,193.26L609.06,169.32L613.93,207.49L618.81,182.87L623.68,178.35L628.55,87.78L633.42,58.2L638.3,62.26L643.17,77.39L648.04,74.91L652.91,100.43L657.79,101.33L662.66,112.4L667.53,131.82L672.4,121.89L677.28,100.66L682.15,87.78L687.02,100.43L691.89,91.62L696.77,119.85L701.64,81.91L706.51,82.14L711.38,139.05L716.26,116.01L721.13,106.98L726,102.24" style="vector-effect: none; fill: none; stroke: rgb(128, 0, 128); stroke-opacity: 1; stroke-width: 2px; opacity: 1;"/></g><g class="points"/><g class="text"/></g><g class="trace scatter tracec8221f" style="stroke-miterlimit: 2; opacity: 1;"><g class="fills"/><g class="errorbars"/><g class="lines"><path class="js-line" d="M0,272.53L4.87,183.32L9.74,214.71L14.62,185.8L19.49,193.03L24.36,189.42L29.23,160.51L34.11,153.05L38.98,119.4L43.85,183.32L48.72,137.7L53.6,139.96L58.47,177.45L63.34,230.07L68.21,207.26L73.09,249.27L77.96,266.21L82.83,266.21L87.7,215.62L92.58,181.96L97.45,156.89L102.32,179.71L107.19,191.9L112.07,191.9L116.94,177.45L121.81,183.32L126.68,191.9L131.56,177.45L136.43,188.06L141.3,166.61L146.17,152.15L151.05,174.96L155.92,165.25L160.79,156.89L165.66,133.86L170.54,127.98L175.41,171.35L180.28,113.3L185.15,104.95L190.03,121.89L194.9,162.99L199.77,111.05L204.64,156.89L209.52,106.3L214.39,160.51L219.26,191.9L224.13,134.99L229.01,210.87L233.88,236.17L238.75,174.96L243.62,148.31L248.5,160.28L253.37,230.07L258.24,251.75L263.11,257.85L267.99,251.75L272.86,158.02L277.73,173.38L282.6,285.41L287.48,268.47L292.35,189.19L297.22,163.9L302.09,166.38L306.97,180.83L311.84,178.35L316.71,167.74L321.58,127.98L326.46,144.7L331.33,168.86L336.2,174.96L341.07,171.35L345.95,200.26L350.82,165.25L355.69,165.25L360.56,182.19L365.44,185.8L370.31,200.26L375.18,194.16L380.05,142.44L384.93,150.8L389.8,154.41L394.67,146.05L399.54,141.08L404.42,196.42L409.29,167.74L414.16,139.96L419.03,150.8L423.91,160.51L428.78,172.7L433.65,195.52L438.52,135.21L443.4,164.12L448.27,166.61L453.14,152.15L458.01,133.86L462.89,144.7L467.76,184.45L472.63,179.71L477.5,213.36L487.25,185.8L492.12,178.58L496.99,179.71L501.87,185.8L506.74,256.72L511.61,161.64L516.48,165.25L521.36,133.86L526.23,230.07L531.1,130.24L535.97,104.95L540.85,113.3L545.72,109.69L550.59,228.72L555.46,228.72L560.34,205.9L565.21,158.93L570.08,209.52L574.95,280.66L579.83,255.37L584.7,242.27L589.57,204.78L594.44,234.81L599.32,260.11L604.19,251.75L609.06,249.27L613.93,272.31L618.81,232.56L623.68,278.18L628.55,237.52L633.42,135.21L638.3,152.15L643.17,137.7L648.04,146.05L652.91,154.41L657.79,152.15L662.66,146.05L667.53,160.51L672.4,160.51L677.28,182.19L682.15,148.31L687.02,148.31L691.89,133.86L696.77,148.31L701.64,165.25L706.51,173.61L711.38,168.86L716.26,168.86L721.13,168.86L726,152.15" style="vector-effect: none; fill: none; stroke: rgb(255, 192, 203); stroke-opacity: 1; stroke-width: 2px; opacity: 1;"/></g><g class="points"/><g class="text"/></g><g class="trace scatter trace1b9de3" style="stroke-miterlimit: 2; opacity: 1;"><g class="fills"/><g class="errorbars"/><g class="lines"><path class="js-line" d="M0,305.51L4.87,226.68L9.74,205.9L14.62,232.33L19.49,204.78L24.36,193.03L29.23,204.1L34.11,179.93L38.98,173.16L43.85,201.61L48.72,191.22L53.6,191.45L58.47,168.19L63.34,303.47L68.21,295.8L73.09,332.16L77.96,356.1L82.83,340.06L87.7,276.6L92.58,237.07L97.45,186.93L102.32,167.74L107.19,187.38L112.07,189.87L116.94,190.1L121.81,176.09L126.68,182.87L136.43,145.83L141.3,157.57L146.17,127.08L151.05,128.44L155.92,134.31L160.79,162.09L165.66,154.86L170.54,155.99L175.41,164.35L180.28,132.73L185.15,114.89L190.03,104.04L194.9,162.09L199.77,146.73L204.64,158.93L209.52,131.82L214.39,138.15L219.26,137.47L224.13,125.05L229.01,189.64L233.88,162.77L238.75,127.08L243.62,105.63L248.5,139.96L253.37,174.29L258.24,228.72L263.11,222.84L267.99,212.23L272.86,95.69L277.73,127.53L282.6,219.91L287.48,198.68L292.35,101.79L297.22,116.47L302.09,98.62L306.97,117.37L311.84,107.21L316.71,101.33L321.58,90.72L326.46,90.94L331.33,119.4L336.2,84.17L345.95,120.76L350.82,102.24L355.69,111.05L360.56,107.66L365.44,111.05L370.31,131.82L375.18,127.31L380.05,104.04L384.93,125.05L389.8,95.91L399.54,36.06L404.42,106.3L409.29,31.09L414.16,63.39L419.03,48.94L423.91,90.72L428.78,98.4L433.65,111.05L438.52,102.46L443.4,110.82L448.27,123.02L453.14,132.28L462.89,71.52L467.76,62.26L472.63,64.07L477.5,67.91L482.38,73.55L487.25,84.62L492.12,130.02L496.99,96.14L501.87,85.07L506.74,100.2L511.61,64.07L516.48,54.13L521.36,93.2L526.23,101.56L531.1,47.81L535.97,44.64L540.85,64.75L545.72,46.68L550.59,195.52L555.46,195.52L560.34,177L565.21,108.34L570.08,182.87L574.95,200.94L579.83,198.23L584.7,182.87L589.57,190.55L594.44,208.84L599.32,251.53L604.19,235.72L609.06,209.07L613.93,249.04L618.81,219.91L623.68,214.71L628.55,105.17L633.42,58.87L638.3,61.81L643.17,80.1L648.04,79.2L652.91,106.08L657.79,106.3L662.66,117.37L667.53,132.73L672.4,125.95L682.15,94.78L687.02,106.08L691.89,93.88L696.77,127.31L701.64,91.17L706.51,95.46L711.38,144.25L716.26,122.34L721.13,111.72L726,106.53" style="vector-effect: none; fill: none; stroke: rgb(165, 42, 42); stroke-opacity: 1; stroke-width: 2px; opacity: 1;"/></g><g class="points"/><g class="text"/></g><g class="trace scatter trace930d30" style="stroke-miterlimit: 2; opacity: 1;"><g class="fills"/><g class="errorbars"/><g class="lines"><path class="js-line" d="M0,306.18L4.87,188.97L9.74,221.94L14.62,197.1L19.49,221.71L24.36,191.22L29.23,166.38L34.11,179.25L38.98,137.92L43.85,188.97L48.72,143.57L53.6,151.93L58.47,186.93L63.34,295.57L68.21,274.11L73.09,325.38L77.96,345.94L82.83,345.94L87.7,284.28L92.58,243.4L97.45,172.48L102.32,195.06L107.19,199.36L112.07,199.36L116.94,186.93L121.81,188.97L126.68,199.36L131.56,186.93L136.43,205.23L141.3,168.41L146.17,155.99L151.05,178.8L155.92,182.87L160.79,172.48L165.66,150.12L170.54,148.31L175.41,184.67L180.28,136.34L185.15,125.95L190.03,146.73L194.9,174.51L199.77,127.53L204.64,172.48L209.52,110.37L214.39,166.38L219.26,199.36L224.13,174.29L229.01,266.21L233.88,296.92L238.75,178.8L243.62,162.31L248.5,205L253.37,295.57L258.24,334.64L263.11,335.55L267.99,334.64L272.86,196.42L277.73,233.23L282.6,376.2L287.48,355.42L292.35,228.49L297.22,198L302.09,206.58L306.97,218.33L311.84,209.74L316.71,191.22L321.58,148.31L326.46,168.86L331.33,176.54L336.2,178.8L341.07,184.67L345.95,209.52L350.82,182.87L355.69,182.87L360.56,203.19L365.44,197.1L370.31,209.52L375.18,207.26L380.05,160.28L384.93,170.67L389.8,164.12L394.67,153.96L399.54,175.87L404.42,254.92L409.29,191.22L414.16,151.93L419.03,170.67L423.91,166.38L428.78,170.67L433.65,193.71L438.52,135.21L443.4,160.28L448.27,168.41L453.14,155.99L458.01,150.12L462.89,168.86L467.76,211.55L472.63,195.06L477.5,235.72L482.38,223.52L487.25,197.1L492.12,173.16L496.99,195.06L501.87,197.1L506.74,309.57L511.61,189.42L516.48,182.87L521.36,150.12L526.23,295.57L531.1,156.89L535.97,125.95L540.85,136.34L545.72,143.57L550.59,313.41L555.46,313.41L560.34,291.96L565.21,221.71L570.08,283.37L574.95,357L589.57,265.08L594.44,314.09L599.32,345.03L604.19,334.64L609.06,325.38L613.93,346.84L618.81,304.83L623.68,347.74L628.55,280.89L633.42,135.21L638.3,155.99L643.17,143.57L652.91,164.12L657.79,155.99L662.66,153.96L667.53,166.38L672.4,166.38L677.28,203.19L682.15,162.31L687.02,162.31L691.89,150.12L696.77,162.31L701.64,182.87L706.51,193.03L711.38,176.54L716.26,176.54L721.13,176.54L726,155.99" style="vector-effect: none; fill: none; stroke: rgb(128, 128, 128); stroke-opacity: 1; stroke-width: 2px; opacity: 1;"/></g><g class="points"/><g class="text"/></g></g></g><g class="overplot"/><path class="xlines-above crisp" d="M0,0" style="fill: none;"/><path class="ylines-above crisp" d="M0,0" style="fill: none;"/><g class="overlines-above"/><g class="xaxislayer-above"><g class="xtick"><text text-anchor="middle" x="0" y="509" transform="translate(235.57999999999998,0)" style="font-family: 'Open Sans', verdana, arial, sans-serif; font-size: 12px; fill: rgb(42, 63, 95); fill-opacity: 1; white-space: pre; opacity: 1;">20</text></g><g class="xtick"><text text-anchor="middle" x="0" y="509" style="font-family: 'Open Sans', verdana, arial, sans-serif; font-size: 12px; fill: rgb(42, 63, 95); fill-opacity: 1; white-space: pre; opacity: 1;" transform="translate(333.03,0)">40</text></g><g class="xtick"><text text-anchor="middle" x="0" y="509" style="font-family: 'Open Sans', verdana, arial, sans-serif; font-size: 12px; fill: rgb(42, 63, 95); fill-opacity: 1; white-space: pre; opacity: 1;" transform="translate(430.48,0)">60</text></g><g class="xtick"><text text-anchor="middle" x="0" y="509" style="font-family: 'Open Sans', verdana, arial, sans-serif; font-size: 12px; fill: rgb(42, 63, 95); fill-opacity: 1; white-space: pre; opacity: 1;" transform="translate(527.9300000000001,0)">80</text></g><g class="xtick"><text text-anchor="middle" x="0" y="509" style="font-family: 'Open Sans', verdana, arial, sans-serif; font-size: 12px; fill: rgb(42, 63, 95); fill-opacity: 1; white-space: pre; opacity: 1;" transform="translate(625.38,0)">100</text></g><g class="xtick"><text text-anchor="middle" x="0" y="509" style="font-family: 'Open Sans', verdana, arial, sans-serif; font-size: 12px; fill: rgb(42, 63, 95); fill-opacity: 1; white-space: pre; opacity: 1;" transform="translate(722.83,0)">120</text></g><g class="xtick"><text text-anchor="middle" x="0" y="509" style="font-family: 'Open Sans', verdana, arial, sans-serif; font-size: 12px; fill: rgb(42, 63, 95); fill-opacity: 1; white-space: pre; opacity: 1;" transform="translate(820.28,0)">140</text></g></g><g class="yaxislayer-above"><g class="ytick"><text text-anchor="end" x="142" y="4.199999999999999" transform="translate(0,478.23)" style="font-family: 'Open Sans', verdana, arial, sans-serif; font-size: 12px; fill: rgb(42, 63, 95); fill-opacity: 1; white-space: pre; opacity: 1;">72</text></g><g class="ytick"><text text-anchor="end" x="142" y="4.199999999999999" style="font-family: 'Open Sans', verdana, arial, sans-serif; font-size: 12px; fill: rgb(42, 63, 95); fill-opacity: 1; white-space: pre; opacity: 1;" transform="translate(0,433.06)">74</text></g><g class="ytick"><text text-anchor="end" x="142" y="4.199999999999999" style="font-family: 'Open Sans', verdana, arial, sans-serif; font-size: 12px; fill: rgb(42, 63, 95); fill-opacity: 1; white-space: pre; opacity: 1;" transform="translate(0,387.89)">76</text></g><g class="ytick"><text text-anchor="end" x="142" y="4.199999999999999" style="font-family: 'Open Sans', verdana, arial, sans-serif; font-size: 12px; fill: rgb(42, 63, 95); fill-opacity: 1; white-space: pre; opacity: 1;" transform="translate(0,342.72)">78</text></g><g class="ytick"><text text-anchor="end" x="142" y="4.199999999999999" style="font-family: 'Open Sans', verdana, arial, sans-serif; font-size: 12px; fill: rgb(42, 63, 95); fill-opacity: 1; white-space: pre; opacity: 1;" transform="translate(0,297.55)">80</text></g><g class="ytick"><text text-anchor="end" x="142" y="4.199999999999999" style="font-family: 'Open Sans', verdana, arial, sans-serif; font-size: 12px; fill: rgb(42, 63, 95); fill-opacity: 1; white-space: pre; opacity: 1;" transform="translate(0,252.38)">82</text></g><g class="ytick"><text text-anchor="end" x="142" y="4.199999999999999" style="font-family: 'Open Sans', verdana, arial, sans-serif; font-size: 12px; fill: rgb(42, 63, 95); fill-opacity: 1; white-space: pre; opacity: 1;" transform="translate(0,207.20999999999998)">84</text></g><g class="ytick"><text text-anchor="end" x="142" y="4.199999999999999" style="font-family: 'Open Sans', verdana, arial, sans-serif; font-size: 12px; fill: rgb(42, 63, 95); fill-opacity: 1; white-space: pre; opacity: 1;" transform="translate(0,162.03)">86</text></g><g class="ytick"><text text-anchor="end" x="142" y="4.199999999999999" style="font-family: 'Open Sans', verdana, arial, sans-serif; font-size: 12px; fill: rgb(42, 63, 95); fill-opacity: 1; white-space: pre; opacity: 1;" transform="translate(0,116.86)">88</text></g></g><g class="overaxes-above"/></g></g><g class="polarlayer"/><g class="smithlayer"/><g class="ternarylayer"/><g class="geolayer"/><g class="funnelarealayer"/><g class="pielayer"/><g class="iciclelayer"/><g class="treemaplayer"/><g class="sunburstlayer"/><g class="glimages"/><defs id="topdefs-3b8b66"><g class="clips"/><clipPath id="legend3b8b66"><rect width="128" height="162" x="0" y="0"/></clipPath></defs><g class="layer-above"><g class="imagelayer"/><g class="shapelayer"/></g><g class="infolayer"><g class="legend" pointer-events="all" transform="translate(883.52,100)"><rect class="bg" shape-rendering="crispEdges" width="128" height="162" x="0" y="0" style="stroke: rgb(68, 68, 68); stroke-opacity: 1; fill: rgb(255, 255, 255); fill-opacity: 1; stroke-width: 0px;"/><g class="scrollbox" transform="" clip-path="url(#legend3b8b66)"><g class="groups"><g class="traces" transform="translate(0,14.5)" style="opacity: 1;"><text class="legendtext" text-anchor="start" x="40" y="4.680000000000001" style="font-family: 'Open Sans', verdana, arial, sans-serif; font-size: 12px; fill: rgb(42, 63, 95); fill-opacity: 1; white-space: pre;">Train Accuracy</text><g class="layers" style="opacity: 1;"><g class="legendfill"/><g class="legendlines"><path class="js-line" d="M5,0h30" style="fill: none; stroke: rgb(255, 0, 0); stroke-opacity: 1; stroke-width: 2px;"/></g><g class="legendsymbols"><g class="legendpoints"/></g></g><rect class="legendtoggle" x="0" y="-9.5" width="122.71875" height="19" style="fill: rgb(0, 0, 0); fill-opacity: 0;"/></g><g class="traces" transform="translate(0,33.5)" style="opacity: 1;"><text class="legendtext" text-anchor="start" x="40" y="4.680000000000001" style="font-family: 'Open Sans', verdana, arial, sans-serif; font-size: 12px; fill: rgb(42, 63, 95); fill-opacity: 1; white-space: pre;">Test Accuracy</text><g class="layers" style="opacity: 1;"><g class="legendfill"/><g class="legendlines"><path class="js-line" d="M5,0h30" style="fill: none; stroke: rgb(0, 0, 255); stroke-opacity: 1; stroke-width: 2px;"/></g><g class="legendsymbols"><g class="legendpoints"/></g></g><rect class="legendtoggle" x="0" y="-9.5" width="122.71875" height="19" style="fill: rgb(0, 0, 0); fill-opacity: 0;"/></g><g class="traces" transform="translate(0,52.5)" style="opacity: 1;"><text class="legendtext" text-anchor="start" x="40" y="4.680000000000001" style="font-family: 'Open Sans', verdana, arial, sans-serif; font-size: 12px; fill: rgb(42, 63, 95); fill-opacity: 1; white-space: pre;">Train Precision</text><g class="layers" style="opacity: 1;"><g class="legendfill"/><g class="legendlines"><path class="js-line" d="M5,0h30" style="fill: none; stroke: rgb(0, 128, 0); stroke-opacity: 1; stroke-width: 2px;"/></g><g class="legendsymbols"><g class="legendpoints"/></g></g><rect class="legendtoggle" x="0" y="-9.5" width="122.71875" height="19" style="fill: rgb(0, 0, 0); fill-opacity: 0;"/></g><g class="traces" transform="translate(0,71.5)" style="opacity: 1;"><text class="legendtext" text-anchor="start" x="40" y="4.680000000000001" style="font-family: 'Open Sans', verdana, arial, sans-serif; font-size: 12px; fill: rgb(42, 63, 95); fill-opacity: 1; white-space: pre;">Test Precision</text><g class="layers" style="opacity: 1;"><g class="legendfill"/><g class="legendlines"><path class="js-line" d="M5,0h30" style="fill: none; stroke: rgb(255, 165, 0); stroke-opacity: 1; stroke-width: 2px;"/></g><g class="legendsymbols"><g class="legendpoints"/></g></g><rect class="legendtoggle" x="0" y="-9.5" width="122.71875" height="19" style="fill: rgb(0, 0, 0); fill-opacity: 0;"/></g><g class="traces" transform="translate(0,90.5)" style="opacity: 1;"><text class="legendtext" text-anchor="start" x="40" y="4.680000000000001" style="font-family: 'Open Sans', verdana, arial, sans-serif; font-size: 12px; fill: rgb(42, 63, 95); fill-opacity: 1; white-space: pre;">Train Recall</text><g class="layers" style="opacity: 1;"><g class="legendfill"/><g class="legendlines"><path class="js-line" d="M5,0h30" style="fill: none; stroke: rgb(128, 0, 128); stroke-opacity: 1; stroke-width: 2px;"/></g><g class="legendsymbols"><g class="legendpoints"/></g></g><rect class="legendtoggle" x="0" y="-9.5" width="122.71875" height="19" style="fill: rgb(0, 0, 0); fill-opacity: 0;"/></g><g class="traces" transform="translate(0,109.5)" style="opacity: 1;"><text class="legendtext" text-anchor="start" x="40" y="4.680000000000001" style="font-family: 'Open Sans', verdana, arial, sans-serif; font-size: 12px; fill: rgb(42, 63, 95); fill-opacity: 1; white-space: pre;">Test Recall</text><g class="layers" style="opacity: 1;"><g class="legendfill"/><g class="legendlines"><path class="js-line" d="M5,0h30" style="fill: none; stroke: rgb(255, 192, 203); stroke-opacity: 1; stroke-width: 2px;"/></g><g class="legendsymbols"><g class="legendpoints"/></g></g><rect class="legendtoggle" x="0" y="-9.5" width="122.71875" height="19" style="fill: rgb(0, 0, 0); fill-opacity: 0;"/></g><g class="traces" transform="translate(0,128.5)" style="opacity: 1;"><text class="legendtext" text-anchor="start" x="40" y="4.680000000000001" style="font-family: 'Open Sans', verdana, arial, sans-serif; font-size: 12px; fill: rgb(42, 63, 95); fill-opacity: 1; white-space: pre;">Train F1</text><g class="layers" style="opacity: 1;"><g class="legendfill"/><g class="legendlines"><path class="js-line" d="M5,0h30" style="fill: none; stroke: rgb(165, 42, 42); stroke-opacity: 1; stroke-width: 2px;"/></g><g class="legendsymbols"><g class="legendpoints"/></g></g><rect class="legendtoggle" x="0" y="-9.5" width="122.71875" height="19" style="fill: rgb(0, 0, 0); fill-opacity: 0;"/></g><g class="traces" transform="translate(0,147.5)" style="opacity: 1;"><text class="legendtext" text-anchor="start" x="40" y="4.680000000000001" style="font-family: 'Open Sans', verdana, arial, sans-serif; font-size: 12px; fill: rgb(42, 63, 95); fill-opacity: 1; white-space: pre;">Test F1</text><g class="layers" style="opacity: 1;"><g class="legendfill"/><g class="legendlines"><path class="js-line" d="M5,0h30" style="fill: none; stroke: rgb(128, 128, 128); stroke-opacity: 1; stroke-width: 2px;"/></g><g class="legendsymbols"><g class="legendpoints"/></g></g><rect class="legendtoggle" x="0" y="-9.5" width="122.71875" height="19" style="fill: rgb(0, 0, 0); fill-opacity: 0;"/></g></g></g><rect class="scrollbar" rx="20" ry="3" width="0" height="0" x="0" y="0" style="fill: rgb(128, 139, 164); fill-opacity: 1;"/></g><g class="g-gtitle"><text class="gtitle" x="51.2" y="50" text-anchor="start" dy="0em" style="font-family: 'Open Sans', verdana, arial, sans-serif; font-size: 17px; fill: rgb(42, 63, 95); opacity: 1; font-weight: normal; white-space: pre;">Training Metrics - logs/FakeNewsNet-politifact_max-vocab=15000_pre=v2_text_domain_T=150_s=5.log</text></g><g class="g-xtitle"><text class="xtitle" x="506" y="537.3" text-anchor="middle" style="font-family: 'Open Sans', verdana, arial, sans-serif; font-size: 14px; fill: rgb(42, 63, 95); opacity: 1; font-weight: normal; white-space: pre;">Epoch</text></g><g class="g-ytitle"><text class="ytitle" transform="rotate(-90,103.965625,298)" x="103.965625" y="298" text-anchor="middle" style="font-family: 'Open Sans', verdana, arial, sans-serif; font-size: 14px; fill: rgb(42, 63, 95); opacity: 1; font-weight: normal; white-space: pre;">Metric Score</text></g></g><g class="menulayer"><g class="updatemenu-container" style="cursor: pointer;"><g class="updatemenu-header-group" transform="translate(12,60)"><g class="updatemenu-header" transform="translate(1,1)" style="pointer-events: all;"><rect class="updatemenu-item-rect" rx="2" ry="2" shape-rendering="crispEdges" x="0" y="0" width="167" height="33" style="stroke: rgb(190, 200, 217); stroke-opacity: 1; fill: rgb(255, 255, 255); fill-opacity: 1; stroke-width: 1px;"/><text class="updatemenu-item-text" text-anchor="start" data-notex="1" x="12" y="19.5" style="font-family: 'Open Sans', verdana, arial, sans-serif; font-size: 12px; fill: rgb(42, 63, 95); fill-opacity: 1; white-space: pre;">All</text></g><text class="updatemenu-header-arrow" text-anchor="end" x="163" y="19.5" style="font-family: 'Open Sans', verdana, arial, sans-serif; font-size: 12px; fill: rgb(42, 63, 95); fill-opacity: 1;">▼</text></g><g class="updatemenu-dropdown-button-group" updatemenu-active-index="-1" style="pointer-events: all;"><rect class="scrollbox-bg" opacity="0" x="0" y="0" width="0" height="0" style="pointer-events: all;"/></g></g></g></svg>