<svg class="main-svg" xmlns="http://www.w3.org/2000/svg" xmlns:xlink="http://www.w3.org/1999/xlink" width="1024" height="576" style="" viewBox="0 0 1024 576"><rect x="0" y="0" width="1024" height="576" style="fill: rgb(255, 255, 255); fill-opacity: 1;"/><defs id="defs-019bd6"><g class="clips"><clipPath id="clip019bd6xyplot" class="plotclip"><rect width="726" height="396"/></clipPath><clipPath class="axesclip" id="clip019bd6x"><rect x="143" y="0" width="726" height="576"/></clipPath><clipPath class="axesclip" id="clip019bd6y"><rect x="0" y="100" width="1024" height="396"/></clipPath><clipPath class="axesclip" id="clip019bd6xy"><rect x="143" y="100" width="726" height="396"/></clipPath></g><g class="gradients"/><g class="patterns"/></defs><g class="bglayer"><rect class="bg" x="143" y="100" width="726" height="396" style="fill: rgb(229, 236, 246); fill-opacity: 1; stroke-width: 0;"/></g><g class="layer-below"><g class="imagelayer"/><g class="shapelayer"/></g><g class="cartesianlayer"><g class="subplot xy"><g class="layer-subplot"><g class="shapelayer"/><g class="imagelayer"/></g><g class="minor-gridlayer"><g class="x"/><g class="y"/></g><g class="gridlayer"><g class="x"><path class="xgrid crisp" transform="translate(235.57999999999998,0)" d="M0,100v396" style="stroke: rgb(255, 255, 255); stroke-opacity: 1; stroke-width: 1px;"/><path class="xgrid crisp" transform="translate(333.03,0)" d="M0,100v396" style="stroke: rgb(255, 255, 255); stroke-opacity: 1; stroke-width: 1px;"/><path class="xgrid crisp" transform="translate(430.48,0)" d="M0,100v396" style="stroke: rgb(255, 255, 255); stroke-opacity: 1; stroke-width: 1px;"/><path class="xgrid crisp" transform="translate(527.9300000000001,0)" d="M0,100v396" style="stroke: rgb(255, 255, 255); stroke-opacity: 1; stroke-width: 1px;"/><path class="xgrid crisp" transform="translate(625.38,0)" d="M0,100v396" style="stroke: rgb(255, 255, 255); stroke-opacity: 1; stroke-width: 1px;"/><path class="xgrid crisp" transform="translate(722.83,0)" d="M0,100v396" style="stroke: rgb(255, 255, 255); stroke-opacity: 1; stroke-width: 1px;"/><path class="xgrid crisp" transform="translate(820.28,0)" d="M0,100v396" style="stroke: rgb(255, 255, 255); stroke-opacity: 1; stroke-width: 1px;"/></g><g class="y"><path class="ygrid crisp" transform="translate(0,481.85)" d="M143,0h726" style="stroke: rgb(255, 255, 255); stroke-opacity: 1; stroke-width: 1px;"/><path class="ygrid crisp" transform="translate(0,409.38)" d="M143,0h726" style="stroke: rgb(255, 255, 255); stroke-opacity: 1; stroke-width: 1px;"/><path class="ygrid crisp" transform="translate(0,336.91999999999996)" d="M143,0h726" style="stroke: rgb(255, 255, 255); stroke-opacity: 1; stroke-width: 1px;"/><path class="ygrid crisp" transform="translate(0,264.45)" d="M143,0h726" style="stroke: rgb(255, 255, 255); stroke-opacity: 1; stroke-width: 1px;"/><path class="ygrid crisp" transform="translate(0,191.98000000000002)" d="M143,0h726" style="stroke: rgb(255, 255, 255); stroke-opacity: 1; stroke-width: 1px;"/><path class="ygrid crisp" transform="translate(0,119.51)" d="M143,0h726" style="stroke: rgb(255, 255, 255); stroke-opacity: 1; stroke-width: 1px;"/></g></g><g class="zerolinelayer"/><path class="xlines-below"/><path class="ylines-below"/><g class="overlines-below"/><g class="xaxislayer-below"/><g class="yaxislayer-below"/><g class="overaxes-below"/><g class="plot" transform="translate(143,100)" clip-path="url(#clip019bd6xyplot)"><g class="scatterlayer mlayer"><g class="trace scatter traceb65e9d" style="stroke-miterlimit: 2; opacity: 1;"><g class="fills"/><g class="errorbars"/><g class="lines"><path class="js-line" d="M0,247.21L4.87,214.6L9.74,166.48L14.62,115.02L19.49,108.07L24.36,104.73L29.23,108.07L34.11,89.22L38.98,133.87L43.85,102.99L48.72,123.57L53.6,109.81L58.47,121.84L63.34,140.68L68.21,135.6L73.09,115.02L77.96,123.57L82.83,92.7L87.7,94.44L92.58,89.22L97.45,94.44L102.32,145.9L107.19,128.79L112.07,116.76L116.94,75.46L121.81,111.55L126.68,101.25L131.56,78.93L136.43,94.44L141.3,84.01L146.17,92.7L151.05,111.55L155.92,96.04L160.79,140.68L165.66,133.87L170.54,116.76L175.41,109.81L180.28,92.7L185.15,94.44L190.03,121.84L194.9,144.16L199.77,166.48L204.64,145.9L209.52,139.08L214.39,135.6L224.13,109.81L229.01,102.99L233.88,84.01L238.75,120.1L243.62,56.61L248.5,118.36L253.37,109.81L258.24,115.02L263.11,68.64L267.99,77.2L277.73,49.8L282.6,51.4L287.48,94.44L292.35,108.07L297.22,106.47L302.09,121.84L306.97,108.07L311.84,72.12L316.71,68.64L321.58,44.58L326.46,36.03L331.33,70.38L336.2,78.93L341.07,72.12L345.95,68.64L350.82,96.04L355.69,116.76L360.56,92.7L365.44,96.04L370.31,101.25L375.18,92.7L380.05,104.73L384.93,120.1L389.8,92.7L394.67,97.78L399.54,130.39L404.42,132.13L409.29,120.1L419.03,133.87L423.91,106.47L428.78,104.73L433.65,97.78L438.52,113.28L443.4,70.38L448.27,77.2L453.14,53.14L458.01,77.2L462.89,77.2L467.76,66.9L472.63,75.46L477.5,68.64L482.38,63.43L487.25,115.02L492.12,132.13L496.99,116.76L501.87,111.55L506.74,113.28L511.61,113.28L516.48,82.41L521.36,87.49L526.23,84.01L531.1,118.36L535.97,123.57L540.85,123.57L545.72,104.73L550.59,90.96L555.46,77.2L560.34,54.87L565.21,54.87L570.08,66.9L574.95,70.38L579.83,49.8L584.7,63.43L589.57,72.12L594.44,49.8L599.32,72.12L604.19,60.09L609.06,60.09L618.81,90.96L623.68,80.67L628.55,73.72L633.42,77.2L638.3,84.01L643.17,96.04L648.04,87.49L652.91,96.04L657.79,123.57L662.66,115.02L667.53,101.25L672.4,113.28L682.15,92.7L687.02,97.78L691.89,89.22L696.77,68.64L701.64,77.2L706.51,109.81L711.38,123.57L716.26,109.81L721.13,90.96L726,92.7" style="vector-effect: none; fill: none; stroke: rgb(255, 0, 0); stroke-opacity: 1; stroke-width: 2px; opacity: 1;"/></g><g class="points"/><g class="text"/></g><g class="trace scatter tracec66027" style="stroke-miterlimit: 2; opacity: 1;"><g class="fills"/><g class="errorbars"/><g class="lines"><path class="js-line" d="M0,277.93L9.74,175.32L14.62,141.26L19.49,134.3L24.36,134.3L29.23,154.88L34.11,113.86L38.98,168.51L43.85,154.88L48.72,168.51L53.6,161.69L58.47,182.27L63.34,209.52L68.21,209.52L73.09,189.09L77.96,175.32L82.83,154.88L87.7,148.07L92.58,161.69L97.45,161.69L102.32,182.27L107.19,195.9L112.07,189.09L116.94,148.07L121.81,195.9L126.68,161.69L131.56,148.07L136.43,161.69L141.3,127.49L146.17,148.07L151.05,175.32L155.92,175.32L160.79,209.52L170.54,223.29L175.41,202.71L180.28,134.3L185.15,182.27L190.03,216.33L194.9,216.33L199.77,236.92L204.64,216.33L209.52,223.29L214.39,223.29L229.01,202.71L233.88,161.69L238.75,182.27L243.62,93.28L248.5,202.71L253.37,216.33L258.24,216.33L263.11,175.32L267.99,182.27L272.86,168.51L277.73,168.51L282.6,134.3L287.48,216.33L292.35,209.52L302.09,209.52L306.97,189.09L316.71,161.69L321.58,127.49L326.46,120.68L331.33,154.88L336.2,154.88L341.07,161.69L345.95,141.26L350.82,161.69L355.69,202.71L360.56,175.32L365.44,161.69L370.31,175.32L375.18,182.27L380.05,216.33L384.93,257.5L389.8,189.09L394.67,223.29L399.54,230.1L404.42,223.29L409.29,223.29L414.16,223.29L419.03,230.1L423.91,243.73L428.78,243.73L433.65,216.33L438.52,182.27L443.4,189.09L448.27,168.51L453.14,93.28L458.01,175.32L462.89,161.69L467.76,141.26L472.63,154.88L477.5,141.26L482.38,127.49L487.25,216.33L492.12,202.71L496.99,182.27L501.87,202.71L506.74,230.1L511.61,216.33L516.48,175.32L521.36,202.71L526.23,202.71L531.1,236.92L535.97,243.73L540.85,257.5L545.72,216.33L550.59,168.51L555.46,154.88L560.34,154.88L565.21,161.69L570.08,161.69L574.95,182.27L579.83,127.49L584.7,182.27L589.57,168.51L594.44,141.26L599.32,175.32L604.19,168.51L609.06,168.51L613.93,195.9L618.81,209.52L623.68,195.9L628.55,161.69L633.42,168.51L638.3,182.27L643.17,175.32L648.04,182.27L652.91,168.51L657.79,223.29L662.66,202.71L667.53,202.71L672.4,223.29L677.28,223.29L682.15,195.9L691.89,195.9L696.77,161.69L701.64,168.51L706.51,195.9L711.38,250.54L716.26,209.52L721.13,182.27L726,209.52" style="vector-effect: none; fill: none; stroke: rgb(0, 0, 255); stroke-opacity: 1; stroke-width: 2px; opacity: 1;"/></g><g class="points"/><g class="text"/></g><g class="trace scatter traceab3b64" style="stroke-miterlimit: 2; opacity: 1;"><g class="fills"/><g class="errorbars"/><g class="lines"><path class="js-line" d="M0,175.75L4.87,159.08L9.74,137.34L14.62,120.24L19.49,111.26L24.36,110.68L29.23,107.63L34.11,95.75L38.98,130.53L43.85,107.63L48.72,115.02L53.6,108.94L58.47,111.11L63.34,122.85L68.21,119.23L73.09,105.89L77.96,111.4L82.83,82.27L87.7,90.67L92.58,82.99L97.45,89.22L102.32,121.98L107.19,111.26L112.07,103.57L116.94,71.4L121.81,94.88L126.68,85.6L131.56,69.22L136.43,80.67L141.3,80.38L146.17,84.01L151.05,92.85L155.92,80.82L160.79,111.26L165.66,107.92L170.54,98.5L175.41,92.7L185.15,82.56L190.03,100.96L199.77,133L204.64,114.44L209.52,115.02L214.39,105.31L219.26,95.02L224.13,90.53L229.01,84.73L233.88,76.62L238.75,104.15L243.62,57.63L248.5,98.65L253.37,94.73L258.24,96.33L263.11,60.67L267.99,68.06L272.86,55.89L277.73,45.31L282.6,48.64L287.48,75.46L292.35,85.89L297.22,82.41L302.09,96.33L306.97,88.21L311.84,66.47L316.71,62.99L321.58,44.29L326.46,34.87L331.33,62.85L336.2,67.48L341.07,63.28L345.95,61.54L350.82,78.79L355.69,91.69L360.56,76.33L365.44,77.77L370.31,86.62L375.18,82.27L380.05,85.89L384.93,92.7L389.8,76.33L394.67,83.14L399.54,101.98L404.42,109.23L409.29,97.63L414.16,103.43L419.03,105.46L423.91,84.73L428.78,83.57L433.65,84.15L438.52,97.2L443.4,67.34L448.27,68.79L453.14,51.98L458.01,67.05L462.89,71.98L467.76,63.86L472.63,64.88L477.5,62.99L482.38,58.93L487.25,90.53L492.12,110.39L496.99,98.5L501.87,90.53L506.74,95.02L511.61,92.85L516.48,70.96L521.36,74.73L526.23,72.12L531.1,94.01L535.97,94.88L540.85,94.88L545.72,86.91L555.46,70.53L560.34,50.82L565.21,50.09L570.08,59.37L574.95,61.98L579.83,46.61L584.7,58.21L589.57,64.88L594.44,46.03L599.32,64.88L604.19,54.87L609.06,54.87L618.81,74.15L623.68,67.77L628.55,64.59L633.42,64.3L638.3,69.22L643.17,80.82L648.04,77.48L652.91,79.8L657.79,96.18L662.66,91.69L667.53,82.41L672.4,88.21L677.28,78.93L682.15,71.98L687.02,77.77L691.89,71.83L696.77,57.05L701.64,63.28L706.51,85.89L711.38,97.49L721.13,71.98L726,73.14" style="vector-effect: none; fill: none; stroke: rgb(0, 128, 0); stroke-opacity: 1; stroke-width: 2px; opacity: 1;"/></g><g class="points"/><g class="text"/></g><g class="trace scatter trace9b93e9" style="stroke-miterlimit: 2; opacity: 1;"><g class="fills"/><g class="errorbars"/><g class="lines"><path class="js-line" d="M0,278.37L4.87,208.22L9.74,170.24L19.49,154.88L24.36,154.59L29.23,176.19L34.11,128.65L38.98,179.38L43.85,165.61L48.72,162.85L53.6,168.36L58.47,184.01L63.34,185.17L73.09,185.32L77.96,167.49L82.83,149.08L87.7,151.55L92.58,161.69L97.45,157.92L102.32,167.64L107.19,181.4L112.07,176.91L116.94,148.07L121.81,171.4L126.68,144.74L131.56,144.3L136.43,149.37L141.3,132.56L146.17,140.1L151.05,158.36L155.92,158.36L160.79,174.01L165.66,183.87L170.54,187.93L175.41,180.97L180.28,137.78L185.15,172.27L199.77,189.38L204.64,177.93L209.52,187.93L214.39,181.84L219.26,171.55L224.13,179.81L229.01,180.97L233.88,153.87L238.75,167.64L243.62,107.05L248.5,175.61L253.37,189.52L258.24,183.87L263.11,163.14L267.99,176.48L272.86,162.85L277.73,162.85L282.6,137.78L287.48,171.55L292.35,167.78L297.22,174.01L302.09,174.01L306.97,161.84L311.84,167.49L316.71,153.87L321.58,132.56L326.46,124.15L331.33,149.08L336.2,144.88L341.07,149.37L345.95,135.46L350.82,144.74L355.69,169.95L360.56,158.36L365.44,149.37L370.31,163.14L375.18,172.27L380.05,177.93L384.93,207.35L389.8,167.2L394.67,199.09L399.54,178.94L404.42,181.84L409.29,181.84L414.16,175.32L419.03,178.94L423.91,193.14L428.78,193.14L433.65,189.52L438.52,157.64L443.4,176.91L448.27,158.5L453.14,96.76L458.01,153.29L462.89,153.87L467.76,135.46L472.63,140.24L477.5,131.11L482.38,125.75L487.25,177.93L492.12,169.95L496.99,157.64L501.87,163.87L506.74,191.84L511.61,177.93L516.48,158.36L521.36,169.95L526.23,169.95L531.1,182.71L535.97,186.19L540.85,193.29L545.72,177.93L550.59,149.08L555.46,140.24L560.34,140.24L565.21,149.37L570.08,144.74L574.95,157.64L579.83,125.75L584.7,167.64L589.57,158.5L594.44,139.37L599.32,163.14L604.19,158.5L609.06,158.5L613.93,171.4L618.81,174.01L623.68,165.9L628.55,149.37L633.42,149.08L638.3,151.98L643.17,147.92L648.04,151.98L652.91,143.72L657.79,175.32L662.66,163.87L667.53,169.95L672.4,181.84L677.28,181.84L682.15,165.9L691.89,165.9L696.77,144.74L701.64,149.08L706.51,165.9L711.38,189.81L716.26,174.01L721.13,157.64L726,174.01" style="vector-effect: none; fill: none; stroke: rgb(255, 165, 0); stroke-opacity: 1; stroke-width: 2px; opacity: 1;"/></g><g class="points"/><g class="text"/></g><g class="trace scatter tracec62081" style="stroke-miterlimit: 2; opacity: 1;"><g class="fills"/><g class="errorbars"/><g class="lines"><path class="js-line" d="M0,306.34L4.87,265.76L9.74,203.87L14.62,124.3L19.49,120.1L24.36,111.4L29.23,124.01L34.11,86.76L38.98,118.36L43.85,95.75L48.72,103.86L53.6,95.89L58.47,100.67L63.34,115.75L68.21,111.26L73.09,94.73L77.96,101.54L82.83,70.96L87.7,77.48L92.58,70.24L97.45,76.33L102.32,117.92L107.19,103.72L112.07,93.86L116.94,57.77L121.81,86.62L126.68,76.62L131.56,57.34L136.43,70.67L141.3,66.9L146.17,72.12L151.05,85.46L155.92,71.54L160.79,110.1L165.66,104.73L170.54,91.11L175.41,84.59L180.28,74.3L185.15,71.83L190.03,94.88L194.9,114.15L199.77,134.45L204.64,114.44L209.52,110.82L214.39,104.44L219.26,92.12L224.13,83.43L229.01,76.91L233.88,64.15L238.75,95.75L243.62,43.28L248.5,91.98L253.37,85.75L258.24,89.08L263.11,47.92L267.99,55.89L272.86,42.99L277.73,31.11L282.6,34.29L287.48,67.92L292.35,80.24L297.22,77.63L302.09,92.7L306.97,81.4L311.84,53.14L316.71,49.66L321.58,29.51L326.46,19.8L331.33,49.95L336.2,56.18L341.07,50.96L345.95,48.5L350.82,70.53L355.69,87.63L360.56,67.48L365.44,69.95L370.31,77.2L375.18,70.96L380.05,78.5L384.93,90.09L389.8,67.48L394.67,73.72L399.54,100.1L404.42,104.3L409.29,92.27L414.16,98.79L419.03,103.57L423.91,78.79L428.78,77.34L433.65,74.15L438.52,88.65L443.4,53.43L448.27,56.47L453.14,37.48L458.01,55.31L462.89,58.79L467.76,49.95L472.63,53.28L477.5,49.66L482.38,45.16L487.25,86.18L492.12,104.88L496.99,91.11L501.87,84.3L506.74,87.49L511.61,86.33L516.48,59.8L521.36,64.15L526.23,61.25L531.1,89.66L535.97,92.99L540.85,92.99L545.72,78.93L555.46,57.63L560.34,36.61L565.21,36.18L570.08,46.47L574.95,49.37L579.83,32.26L584.7,44.58L589.57,51.98L594.44,31.68L599.32,51.98L604.19,41.11L609.06,41.11L618.81,65.46L623.68,57.19L628.55,52.41L633.42,53.57L638.3,59.51L643.17,71.54L648.04,65.89L652.91,71.11L657.79,93.57L662.66,86.76L667.53,74.88L672.4,84.15L682.15,65.31L687.02,70.82L691.89,63.43L696.77,45.74L701.64,53.14L706.51,81.11L711.38,94.15L716.26,80.53L721.13,64.3L726,65.75" style="vector-effect: none; fill: none; stroke: rgb(128, 0, 128); stroke-opacity: 1; stroke-width: 2px; opacity: 1;"/></g><g class="points"/><g class="text"/></g><g class="trace scatter tracee64118" style="stroke-miterlimit: 2; opacity: 1;"><g class="fills"/><g class="errorbars"/><g class="lines"><path class="js-line" d="M0,376.2L4.87,322.72L9.74,240.68L14.62,147.63L19.49,146.04L24.36,138.36L29.23,174.01L34.11,98.79L38.98,149.81L43.85,135.17L48.72,130.39L53.6,136.62L58.47,152.85L63.34,158.94L68.21,158.94L73.09,154.45L77.96,135.89L82.83,115.75L87.7,118.07L92.58,128.94L97.45,125.02L102.32,137.34L107.19,151.98L112.07,146.62L116.94,114.15L121.81,144.3L126.68,113.43L131.56,110.24L136.43,117.2L141.3,97.92L146.17,106.47L151.05,128.07L155.92,128.07L160.79,151.26L165.66,160.53L170.54,165.9L175.41,153.58L180.28,103.43L185.15,141.26L190.03,156.62L194.9,160.53L199.77,172.85L204.64,156.62L209.52,165.9L214.39,161.98L219.26,152.71L224.13,155.17L229.01,153.58L233.88,121.11L238.75,137.34L243.62,74.88L248.5,149.66L253.37,164.45L258.24,160.53L263.11,131.98L267.99,145.17L272.86,130.39L277.73,130.39L282.6,103.43L287.48,152.71L292.35,147.34L297.22,151.26L302.09,151.26L306.97,135.02L311.84,135.89L316.71,121.11L321.58,97.92L326.46,88.65L331.33,115.75L336.2,111.83L341.07,117.2L345.95,100.96L350.82,113.43L355.69,145.75L360.56,128.07L365.44,117.2L370.31,131.98L375.18,141.26L380.05,156.62L384.93,193L389.8,138.94L394.67,173.72L399.54,163.58L404.42,161.98L409.29,161.98L414.16,158.21L419.03,163.58L423.91,178.22L428.78,178.22L433.65,164.45L438.52,129.52L443.4,146.62L448.27,126.47L453.14,59.22L458.01,124.15L462.89,121.11L467.76,100.96L472.63,107.92L477.5,97.2L482.38,90.24L487.25,156.62L492.12,145.75L496.99,129.52L501.87,141.98L506.74,171.26L511.61,156.62L516.48,128.07L521.36,145.75L526.23,145.75L531.1,168.94L535.97,174.45L540.85,185.17L545.72,156.62L550.59,118.79L555.46,107.92L560.34,107.92L565.21,117.2L570.08,113.43L574.95,129.52L579.83,90.24L584.7,137.34L589.57,126.47L594.44,104.88L599.32,131.98L604.19,126.47L609.06,126.47L613.93,144.3L618.81,151.26L623.68,140.39L628.55,117.2L633.42,118.79L638.3,125.75L643.17,120.24L648.04,125.75L652.91,114.88L657.79,158.21L662.66,141.98L667.53,145.75L672.4,161.98L677.28,161.98L682.15,140.39L691.89,140.39L696.77,113.43L701.64,118.79L706.51,140.39L711.38,179.81L716.26,151.26L721.13,129.52L726,151.26" style="vector-effect: none; fill: none; stroke: rgb(255, 192, 203); stroke-opacity: 1; stroke-width: 2px; opacity: 1;"/></g><g class="points"/><g class="text"/></g><g class="trace scatter trace45c5a9" style="stroke-miterlimit: 2; opacity: 1;"><g class="fills"/><g class="errorbars"/><g class="lines"><path class="js-line" d="M0,304.89L4.87,258.08L9.74,192.13L14.62,122.42L19.49,116.33L24.36,110.97L29.23,118.07L34.11,92.7L38.98,135.02L43.85,105.6L48.72,124.15L53.6,111.26L58.47,122.42L63.34,140.97L68.21,135.89L73.09,115.6L77.96,124.01L82.83,93.14L87.7,95.31L92.58,89.95L97.45,95.17L102.32,145.9L107.19,128.94L112.07,117.05L116.94,76.33L121.81,111.83L126.68,101.54L131.56,79.37L136.43,94.73L141.3,85.02L146.17,93.28L151.05,111.69L155.92,96.33L160.79,140.82L165.66,133.87L170.54,116.91L175.41,110.1L180.28,93.43L185.15,94.73L190.03,121.98L194.9,144.16L199.77,166.48L204.64,145.9L209.52,139.08L214.39,135.6L224.13,109.95L229.01,103.14L233.88,84.73L238.75,120.39L243.62,57.92L248.5,118.5L253.37,110.1L258.24,115.17L263.11,69.22L267.99,77.77L277.73,50.38L282.6,52.27L287.48,94.59L292.35,108.21L297.22,106.47L302.09,121.84L306.97,108.21L311.84,72.85L316.71,69.37L321.58,45.6L326.46,36.9L331.33,70.96L336.2,79.37L341.07,72.56L345.95,69.22L350.82,96.33L355.69,116.76L360.56,92.85L365.44,96.33L370.31,101.54L375.18,93.14L380.05,104.88L384.93,120.1L389.8,92.85L394.67,98.07L399.54,130.39L404.42,132.27L409.29,120.24L419.03,133.87L423.91,106.47L428.78,104.73L433.65,98.21L438.52,113.57L443.4,71.25L448.27,77.77L453.14,54.15L458.01,77.63L462.89,77.92L467.76,67.77L472.63,75.89L477.5,69.37L482.38,64.3L487.25,115.02L492.12,132.27L496.99,116.91L501.87,111.69L506.74,113.43L511.61,113.43L516.48,82.7L521.36,87.92L526.23,84.44L531.1,118.5L535.97,123.57L540.85,123.57L545.72,104.88L550.59,91.4L555.46,77.92L560.34,55.6L565.21,55.6L570.08,67.48L574.95,70.82L579.83,50.53L584.7,64.15L589.57,72.7L594.44,50.53L599.32,72.7L604.19,60.67L609.06,60.67L618.81,91.11L623.68,80.96L628.55,74.3L633.42,77.48L638.3,84.3L643.17,96.33L648.04,88.07L652.91,96.33L657.79,123.57L662.66,115.02L667.53,101.4L672.4,113.28L682.15,92.85L687.02,97.92L691.89,89.37L696.77,68.93L701.64,77.48L706.51,109.95L711.38,123.57L716.26,109.81L721.13,91.11L726,92.85" style="vector-effect: none; fill: none; stroke: rgb(165, 42, 42); stroke-opacity: 1; stroke-width: 2px; opacity: 1;"/></g><g class="points"/><g class="text"/></g><g class="trace scatter trace51165d" style="stroke-miterlimit: 2; opacity: 1;"><g class="fills"/><g class="errorbars"/><g class="lines"><path class="js-line" d="M0,369.1L4.87,308.22L9.74,222.42L14.62,156.19L19.49,150.97L24.36,148.36L29.23,175.17L34.11,122.27L38.98,176.77L43.85,162.71L48.72,172.71L53.6,168.36L58.47,188.07L63.34,211.7L68.21,211.7L73.09,193.87L77.96,179.23L82.83,158.79L87.7,153.58L92.58,166.77L97.45,166.04L102.32,185.32L107.19,199.09L112.07,192.42L116.94,152.85L121.81,197.93L126.68,164.3L131.56,152.27L136.43,164.88L141.3,133L146.17,151.55L151.05,178.07L155.92,178.07L160.79,210.83L165.66,217.93L170.54,224.6L175.41,205.17L180.28,139.66L185.15,185.9L190.03,217.49L194.9,217.93L199.77,237.64L204.64,217.49L209.52,224.6L214.39,224.16L224.13,211.26L229.01,205.17L233.88,165.46L238.75,185.32L243.62,100.67L248.5,204.59L253.37,218.36L258.24,217.93L263.11,178.65L267.99,186.62L272.86,172.71L277.73,172.71L282.6,139.66L287.48,217.2L292.35,210.54L297.22,210.83L302.09,210.83L306.97,190.83L311.84,179.23L316.71,165.46L321.58,133L326.46,125.75L331.33,158.79L336.2,158.21L341.07,164.88L345.95,145.03L350.82,164.3L355.69,204.16L360.56,178.07L365.44,164.88L370.31,178.65L375.18,185.9L380.05,217.49L384.93,257.93L389.8,191.41L394.67,225.47L399.54,230.54L404.42,224.16L414.16,223.87L419.03,230.54L423.91,244.31L428.78,244.31L433.65,218.36L438.52,184.16L443.4,192.42L448.27,171.98L453.14,97.78L458.01,177.64L462.89,165.46L467.76,145.03L472.63,157.64L477.5,144.45L482.38,131.69L487.25,217.49L492.12,204.16L496.99,184.16L501.87,203.73L506.74,231.26L511.61,217.49L516.48,178.07L521.36,204.16L526.23,204.16L531.1,237.35L535.97,244.02L540.85,257.5L545.72,217.49L550.59,170.97L555.46,157.64L560.34,157.64L565.21,164.88L570.08,164.3L574.95,184.16L579.83,131.69L584.7,185.32L589.57,171.98L594.44,145.61L599.32,178.65L604.19,171.98L609.06,171.98L613.93,197.93L618.81,210.83L623.68,197.49L628.55,164.88L633.42,170.97L638.3,183.72L643.17,177.06L648.04,183.72L652.91,170.39L657.79,223.87L662.66,203.73L667.53,204.16L672.4,224.16L677.28,224.16L682.15,197.49L691.89,197.49L696.77,164.3L701.64,170.97L706.51,197.49L711.38,250.83L716.26,210.83L721.13,184.16L726,210.83" style="vector-effect: none; fill: none; stroke: rgb(128, 128, 128); stroke-opacity: 1; stroke-width: 2px; opacity: 1;"/></g><g class="points"/><g class="text"/></g></g></g><g class="overplot"/><path class="xlines-above crisp" d="M0,0" style="fill: none;"/><path class="ylines-above crisp" d="M0,0" style="fill: none;"/><g class="overlines-above"/><g class="xaxislayer-above"><g class="xtick"><text text-anchor="middle" x="0" y="509" transform="translate(235.57999999999998,0)" style="font-family: 'Open Sans', verdana, arial, sans-serif; font-size: 12px; fill: rgb(42, 63, 95); fill-opacity: 1; white-space: pre; opacity: 1;">20</text></g><g class="xtick"><text text-anchor="middle" x="0" y="509" style="font-family: 'Open Sans', verdana, arial, sans-serif; font-size: 12px; fill: rgb(42, 63, 95); fill-opacity: 1; white-space: pre; opacity: 1;" transform="translate(333.03,0)">40</text></g><g class="xtick"><text text-anchor="middle" x="0" y="509" style="font-family: 'Open Sans', verdana, arial, sans-serif; font-size: 12px; fill: rgb(42, 63, 95); fill-opacity: 1; white-space: pre; opacity: 1;" transform="translate(430.48,0)">60</text></g><g class="xtick"><text text-anchor="middle" x="0" y="509" style="font-family: 'Open Sans', verdana, arial, sans-serif; font-size: 12px; fill: rgb(42, 63, 95); fill-opacity: 1; white-space: pre; opacity: 1;" transform="translate(527.9300000000001,0)">80</text></g><g class="xtick"><text text-anchor="middle" x="0" y="509" style="font-family: 'Open Sans', verdana, arial, sans-serif; font-size: 12px; fill: rgb(42, 63, 95); fill-opacity: 1; white-space: pre; opacity: 1;" transform="translate(625.38,0)">100</text></g><g class="xtick"><text text-anchor="middle" x="0" y="509" style="font-family: 'Open Sans', verdana, arial, sans-serif; font-size: 12px; fill: rgb(42, 63, 95); fill-opacity: 1; white-space: pre; opacity: 1;" transform="translate(722.83,0)">120</text></g><g class="xtick"><text text-anchor="middle" x="0" y="509" style="font-family: 'Open Sans', verdana, arial, sans-serif; font-size: 12px; fill: rgb(42, 63, 95); fill-opacity: 1; white-space: pre; opacity: 1;" transform="translate(820.28,0)">140</text></g></g><g class="yaxislayer-above"><g class="ytick"><text text-anchor="end" x="142" y="4.199999999999999" transform="translate(0,481.85)" style="font-family: 'Open Sans', verdana, arial, sans-serif; font-size: 12px; fill: rgb(42, 63, 95); fill-opacity: 1; white-space: pre; opacity: 1;">65</text></g><g class="ytick"><text text-anchor="end" x="142" y="4.199999999999999" style="font-family: 'Open Sans', verdana, arial, sans-serif; font-size: 12px; fill: rgb(42, 63, 95); fill-opacity: 1; white-space: pre; opacity: 1;" transform="translate(0,409.38)">70</text></g><g class="ytick"><text text-anchor="end" x="142" y="4.199999999999999" style="font-family: 'Open Sans', verdana, arial, sans-serif; font-size: 12px; fill: rgb(42, 63, 95); fill-opacity: 1; white-space: pre; opacity: 1;" transform="translate(0,336.91999999999996)">75</text></g><g class="ytick"><text text-anchor="end" x="142" y="4.199999999999999" style="font-family: 'Open Sans', verdana, arial, sans-serif; font-size: 12px; fill: rgb(42, 63, 95); fill-opacity: 1; white-space: pre; opacity: 1;" transform="translate(0,264.45)">80</text></g><g class="ytick"><text text-anchor="end" x="142" y="4.199999999999999" style="font-family: 'Open Sans', verdana, arial, sans-serif; font-size: 12px; fill: rgb(42, 63, 95); fill-opacity: 1; white-space: pre; opacity: 1;" transform="translate(0,191.98000000000002)">85</text></g><g class="ytick"><text text-anchor="end" x="142" y="4.199999999999999" style="font-family: 'Open Sans', verdana, arial, sans-serif; font-size: 12px; fill: rgb(42, 63, 95); fill-opacity: 1; white-space: pre; opacity: 1;" transform="translate(0,119.51)">90</text></g></g><g class="overaxes-above"/></g></g><g class="polarlayer"/><g class="smithlayer"/><g class="ternarylayer"/><g class="geolayer"/><g class="funnelarealayer"/><g class="pielayer"/><g class="iciclelayer"/><g class="treemaplayer"/><g class="sunburstlayer"/><g class="glimages"/><defs id="topdefs-019bd6"><g class="clips"/><clipPath id="legend019bd6"><rect width="128" height="162" x="0" y="0"/></clipPath></defs><g class="layer-above"><g class="imagelayer"/><g class="shapelayer"/></g><g class="infolayer"><g class="legend" pointer-events="all" transform="translate(883.52,100)"><rect class="bg" shape-rendering="crispEdges" width="128" height="162" x="0" y="0" style="stroke: rgb(68, 68, 68); stroke-opacity: 1; fill: rgb(255, 255, 255); fill-opacity: 1; stroke-width: 0px;"/><g class="scrollbox" transform="" clip-path="url(#legend019bd6)"><g class="groups"><g class="traces" transform="translate(0,14.5)" style="opacity: 1;"><text class="legendtext" text-anchor="start" x="40" y="4.680000000000001" style="font-family: 'Open Sans', verdana, arial, sans-serif; font-size: 12px; fill: rgb(42, 63, 95); fill-opacity: 1; white-space: pre;">Train Accuracy</text><g class="layers" style="opacity: 1;"><g class="legendfill"/><g class="legendlines"><path class="js-line" d="M5,0h30" style="fill: none; stroke: rgb(255, 0, 0); stroke-opacity: 1; stroke-width: 2px;"/></g><g class="legendsymbols"><g class="legendpoints"/></g></g><rect class="legendtoggle" x="0" y="-9.5" width="122.71875" height="19" style="fill: rgb(0, 0, 0); fill-opacity: 0;"/></g><g class="traces" transform="translate(0,33.5)" style="opacity: 1;"><text class="legendtext" text-anchor="start" x="40" y="4.680000000000001" style="font-family: 'Open Sans', verdana, arial, sans-serif; font-size: 12px; fill: rgb(42, 63, 95); fill-opacity: 1; white-space: pre;">Test Accuracy</text><g class="layers" style="opacity: 1;"><g class="legendfill"/><g class="legendlines"><path class="js-line" d="M5,0h30" style="fill: none; stroke: rgb(0, 0, 255); stroke-opacity: 1; stroke-width: 2px;"/></g><g class="legendsymbols"><g class="legendpoints"/></g></g><rect class="legendtoggle" x="0" y="-9.5" width="122.71875" height="19" style="fill: rgb(0, 0, 0); fill-opacity: 0;"/></g><g class="traces" transform="translate(0,52.5)" style="opacity: 1;"><text class="legendtext" text-anchor="start" x="40" y="4.680000000000001" style="font-family: 'Open Sans', verdana, arial, sans-serif; font-size: 12px; fill: rgb(42, 63, 95); fill-opacity: 1; white-space: pre;">Train Precision</text><g class="layers" style="opacity: 1;"><g class="legendfill"/><g class="legendlines"><path class="js-line" d="M5,0h30" style="fill: none; stroke: rgb(0, 128, 0); stroke-opacity: 1; stroke-width: 2px;"/></g><g class="legendsymbols"><g class="legendpoints"/></g></g><rect class="legendtoggle" x="0" y="-9.5" width="122.71875" height="19" style="fill: rgb(0, 0, 0); fill-opacity: 0;"/></g><g class="traces" transform="translate(0,71.5)" style="opacity: 1;"><text class="legendtext" text-anchor="start" x="40" y="4.680000000000001" style="font-family: 'Open Sans', verdana, arial, sans-serif; font-size: 12px; fill: rgb(42, 63, 95); fill-opacity: 1; white-space: pre;">Test Precision</text><g class="layers" style="opacity: 1;"><g class="legendfill"/><g class="legendlines"><path class="js-line" d="M5,0h30" style="fill: none; stroke: rgb(255, 165, 0); stroke-opacity: 1; stroke-width: 2px;"/></g><g class="legendsymbols"><g class="legendpoints"/></g></g><rect class="legendtoggle" x="0" y="-9.5" width="122.71875" height="19" style="fill: rgb(0, 0, 0); fill-opacity: 0;"/></g><g class="traces" transform="translate(0,90.5)" style="opacity: 1;"><text class="legendtext" text-anchor="start" x="40" y="4.680000000000001" style="font-family: 'Open Sans', verdana, arial, sans-serif; font-size: 12px; fill: rgb(42, 63, 95); fill-opacity: 1; white-space: pre;">Train Recall</text><g class="layers" style="opacity: 1;"><g class="legendfill"/><g class="legendlines"><path class="js-line" d="M5,0h30" style="fill: none; stroke: rgb(128, 0, 128); stroke-opacity: 1; stroke-width: 2px;"/></g><g class="legendsymbols"><g class="legendpoints"/></g></g><rect class="legendtoggle" x="0" y="-9.5" width="122.71875" height="19" style="fill: rgb(0, 0, 0); fill-opacity: 0;"/></g><g class="traces" transform="translate(0,109.5)" style="opacity: 1;"><text class="legendtext" text-anchor="start" x="40" y="4.680000000000001" style="font-family: 'Open Sans', verdana, arial, sans-serif; font-size: 12px; fill: rgb(42, 63, 95); fill-opacity: 1; white-space: pre;">Test Recall</text><g class="layers" style="opacity: 1;"><g class="legendfill"/><g class="legendlines"><path class="js-line" d="M5,0h30" style="fill: none; stroke: rgb(255, 192, 203); stroke-opacity: 1; stroke-width: 2px;"/></g><g class="legendsymbols"><g class="legendpoints"/></g></g><rect class="legendtoggle" x="0" y="-9.5" width="122.71875" height="19" style="fill: rgb(0, 0, 0); fill-opacity: 0;"/></g><g class="traces" transform="translate(0,128.5)" style="opacity: 1;"><text class="legendtext" text-anchor="start" x="40" y="4.680000000000001" style="font-family: 'Open Sans', verdana, arial, sans-serif; font-size: 12px; fill: rgb(42, 63, 95); fill-opacity: 1; white-space: pre;">Train F1</text><g class="layers" style="opacity: 1;"><g class="legendfill"/><g class="legendlines"><path class="js-line" d="M5,0h30" style="fill: none; stroke: rgb(165, 42, 42); stroke-opacity: 1; stroke-width: 2px;"/></g><g class="legendsymbols"><g class="legendpoints"/></g></g><rect class="legendtoggle" x="0" y="-9.5" width="122.71875" height="19" style="fill: rgb(0, 0, 0); fill-opacity: 0;"/></g><g class="traces" transform="translate(0,147.5)" style="opacity: 1;"><text class="legendtext" text-anchor="start" x="40" y="4.680000000000001" style="font-family: 'Open Sans', verdana, arial, sans-serif; font-size: 12px; fill: rgb(42, 63, 95); fill-opacity: 1; white-space: pre;">Test F1</text><g class="layers" style="opacity: 1;"><g class="legendfill"/><g class="legendlines"><path class="js-line" d="M5,0h30" style="fill: none; stroke: rgb(128, 128, 128); stroke-opacity: 1; stroke-width: 2px;"/></g><g class="legendsymbols"><g class="legendpoints"/></g></g><rect class="legendtoggle" x="0" y="-9.5" width="122.71875" height="19" style="fill: rgb(0, 0, 0); fill-opacity: 0;"/></g></g></g><rect class="scrollbar" rx="20" ry="3" width="0" height="0" x="0" y="0" style="fill: rgb(128, 139, 164); fill-opacity: 1;"/></g><g class="g-gtitle"><text class="gtitle" x="51.2" y="50" text-anchor="start" dy="0em" style="font-family: 'Open Sans', verdana, arial, sans-serif; font-size: 17px; fill: rgb(42, 63, 95); opacity: 1; font-weight: normal; white-space: pre;">Training Metrics - logs/FakeNewsNet-politifact_max-vocab=15000_pre=v2_text_domain_T=50_s=15.log</text></g><g class="g-xtitle"><text class="xtitle" x="506" y="537.3" text-anchor="middle" style="font-family: 'Open Sans', verdana, arial, sans-serif; font-size: 14px; fill: rgb(42, 63, 95); opacity: 1; font-weight: normal; white-space: pre;">Epoch</text></g><g class="g-ytitle"><text class="ytitle" transform="rotate(-90,103.965625,298)" x="103.965625" y="298" text-anchor="middle" style="font-family: 'Open Sans', verdana, arial, sans-serif; font-size: 14px; fill: rgb(42, 63, 95); opacity: 1; font-weight: normal; white-space: pre;">Metric Score</text></g></g><g class="menulayer"><g class="updatemenu-container" style="cursor: pointer;"><g class="updatemenu-header-group" transform="translate(12,60)"><g class="updatemenu-header" transform="translate(1,1)" style="pointer-events: all;"><rect class="updatemenu-item-rect" rx="2" ry="2" shape-rendering="crispEdges" x="0" y="0" width="167" height="33" style="stroke: rgb(190, 200, 217); stroke-opacity: 1; fill: rgb(255, 255, 255); fill-opacity: 1; stroke-width: 1px;"/><text class="updatemenu-item-text" text-anchor="start" data-notex="1" x="12" y="19.5" style="font-family: 'Open Sans', verdana, arial, sans-serif; font-size: 12px; fill: rgb(42, 63, 95); fill-opacity: 1; white-space: pre;">All</text></g><text class="updatemenu-header-arrow" text-anchor="end" x="163" y="19.5" style="font-family: 'Open Sans', verdana, arial, sans-serif; font-size: 12px; fill: rgb(42, 63, 95); fill-opacity: 1;">▼</text></g><g class="updatemenu-dropdown-button-group" updatemenu-active-index="-1" style="pointer-events: all;"><rect class="scrollbox-bg" opacity="0" x="0" y="0" width="0" height="0" style="pointer-events: all;"/></g></g></g></svg>