<svg class="main-svg" xmlns="http://www.w3.org/2000/svg" xmlns:xlink="http://www.w3.org/1999/xlink" width="1024" height="576" style="" viewBox="0 0 1024 576"><rect x="0" y="0" width="1024" height="576" style="fill: rgb(255, 255, 255); fill-opacity: 1;"/><defs id="defs-ab9fcd"><g class="clips"><clipPath id="clipab9fcdxyplot" class="plotclip"><rect width="726" height="396"/></clipPath><clipPath class="axesclip" id="clipab9fcdx"><rect x="143" y="0" width="726" height="576"/></clipPath><clipPath class="axesclip" id="clipab9fcdy"><rect x="0" y="100" width="1024" height="396"/></clipPath><clipPath class="axesclip" id="clipab9fcdxy"><rect x="143" y="100" width="726" height="396"/></clipPath></g><g class="gradients"/><g class="patterns"/></defs><g class="bglayer"><rect class="bg" x="143" y="100" width="726" height="396" style="fill: rgb(229, 236, 246); fill-opacity: 1; stroke-width: 0;"/></g><g class="layer-below"><g class="imagelayer"/><g class="shapelayer"/></g><g class="cartesianlayer"><g class="subplot xy"><g class="layer-subplot"><g class="shapelayer"/><g class="imagelayer"/></g><g class="minor-gridlayer"><g class="x"/><g class="y"/></g><g class="gridlayer"><g class="x"><path class="xgrid crisp" transform="translate(235.57999999999998,0)" d="M0,100v396" style="stroke: rgb(255, 255, 255); stroke-opacity: 1; stroke-width: 1px;"/><path class="xgrid crisp" transform="translate(333.03,0)" d="M0,100v396" style="stroke: rgb(255, 255, 255); stroke-opacity: 1; stroke-width: 1px;"/><path class="xgrid crisp" transform="translate(430.48,0)" d="M0,100v396" style="stroke: rgb(255, 255, 255); stroke-opacity: 1; stroke-width: 1px;"/><path class="xgrid crisp" transform="translate(527.9300000000001,0)" d="M0,100v396" style="stroke: rgb(255, 255, 255); stroke-opacity: 1; stroke-width: 1px;"/><path class="xgrid crisp" transform="translate(625.38,0)" d="M0,100v396" style="stroke: rgb(255, 255, 255); stroke-opacity: 1; stroke-width: 1px;"/><path class="xgrid crisp" transform="translate(722.83,0)" d="M0,100v396" style="stroke: rgb(255, 255, 255); stroke-opacity: 1; stroke-width: 1px;"/><path class="xgrid crisp" transform="translate(820.28,0)" d="M0,100v396" style="stroke: rgb(255, 255, 255); stroke-opacity: 1; stroke-width: 1px;"/></g><g class="y"><path class="ygrid crisp" transform="translate(0,454.86)" d="M143,0h726" style="stroke: rgb(255, 255, 255); stroke-opacity: 1; stroke-width: 1px;"/><path class="ygrid crisp" transform="translate(0,404.78)" d="M143,0h726" style="stroke: rgb(255, 255, 255); stroke-opacity: 1; stroke-width: 1px;"/><path class="ygrid crisp" transform="translate(0,354.7)" d="M143,0h726" style="stroke: rgb(255, 255, 255); stroke-opacity: 1; stroke-width: 1px;"/><path class="ygrid crisp" transform="translate(0,304.61)" d="M143,0h726" style="stroke: rgb(255, 255, 255); stroke-opacity: 1; stroke-width: 1px;"/><path class="ygrid crisp" transform="translate(0,254.53)" d="M143,0h726" style="stroke: rgb(255, 255, 255); stroke-opacity: 1; stroke-width: 1px;"/><path class="ygrid crisp" transform="translate(0,204.44)" d="M143,0h726" style="stroke: rgb(255, 255, 255); stroke-opacity: 1; stroke-width: 1px;"/><path class="ygrid crisp" transform="translate(0,154.36)" d="M143,0h726" style="stroke: rgb(255, 255, 255); stroke-opacity: 1; stroke-width: 1px;"/><path class="ygrid crisp" transform="translate(0,104.27)" d="M143,0h726" style="stroke: rgb(255, 255, 255); stroke-opacity: 1; stroke-width: 1px;"/></g></g><g class="zerolinelayer"/><path class="xlines-below"/><path class="ylines-below"/><g class="overlines-below"/><g class="xaxislayer-below"/><g class="yaxislayer-below"/><g class="overaxes-below"/><g class="plot" transform="translate(143,100)" clip-path="url(#clipab9fcdxyplot)"><g class="scatterlayer mlayer"><g class="trace scatter trace861df4" style="stroke-miterlimit: 2; opacity: 1;"><g class="fills"/><g class="errorbars"/><g class="lines"><path class="js-line" d="M0,262.31L4.87,153.12L9.74,154.33L14.62,65.28L19.49,100.84L24.36,100.84L29.23,99.73L34.11,262.31L38.98,248.08L43.85,229.05L48.72,200.6L53.6,192.29L58.47,210.12L63.34,204.11L68.21,202.91L73.09,206.51L77.96,183.98L82.83,187.48L87.7,189.89L92.58,180.37L97.45,74.79L102.32,81.9L107.19,74.79L112.07,69.98L116.94,72.39L121.81,69.98L126.68,71.19L131.56,68.88L136.43,58.16L146.17,62.87L151.05,67.68L155.92,65.28L160.79,60.57L165.66,58.16L170.54,51.05L175.41,53.46L180.28,61.67L185.15,64.07L190.03,61.67L194.9,58.16L199.77,56.96L204.64,62.87L209.52,59.37L214.39,61.67L219.26,49.85L229.01,39.13L233.88,43.94L238.75,39.13L243.62,40.33L248.5,41.54L253.37,41.54L258.24,40.33L263.11,33.22L267.99,28.51L272.86,32.02L277.73,39.13L282.6,39.13L287.48,37.93L292.35,45.14L297.22,66.48L302.09,65.28L306.97,64.07L311.84,117.46L316.71,115.16L321.58,116.26L326.46,111.55L331.33,108.05L336.2,105.64L341.07,108.05L345.95,106.85L350.82,104.44L355.69,100.84L360.56,102.04L365.44,102.04L370.31,42.74L375.18,49.85L380.05,40.33L384.93,47.45L389.8,43.94L394.67,42.74L399.54,48.65L404.42,48.65L409.29,43.94L414.16,201.81L419.03,45.14L423.91,35.63L428.78,33.22L433.65,30.82L438.52,102.04L443.4,30.82L448.27,33.22L458.01,35.63L462.89,33.22L467.76,33.22L472.63,40.33L477.5,35.63L482.38,37.93L487.25,34.42L492.12,37.93L496.99,41.54L501.87,35.63L506.74,36.83L511.61,74.79L516.48,29.72L521.36,30.82L526.23,28.51L531.1,29.72L535.97,65.28L540.85,66.48L545.72,62.87L550.59,69.98L555.46,72.39L560.34,72.39L565.21,71.19L570.08,59.37L574.95,71.19L579.83,67.68L584.7,69.98L589.57,68.88L594.44,71.19L599.32,71.19L604.19,39.13L609.06,37.93L613.93,34.42L618.81,28.51L623.68,34.42L628.55,34.42L633.42,36.83L638.3,37.93L643.17,36.83L648.04,30.82L652.91,33.22L657.79,34.42L662.66,140L667.53,141.2L672.4,29.72L677.28,32.02L682.15,32.02L687.02,34.42L691.89,27.31L696.77,23.71L701.64,27.31L706.51,29.72L711.38,79.5L716.26,83.11L721.13,79.5L726,77.1" style="vector-effect: none; fill: none; stroke: rgb(255, 0, 0); stroke-opacity: 1; stroke-width: 2px; opacity: 1;"/></g><g class="points"/><g class="text"/></g><g class="trace scatter trace4b7232" style="stroke-miterlimit: 2; opacity: 1;"><g class="fills"/><g class="errorbars"/><g class="lines"><path class="js-line" d="M0,317.1L4.87,208.42L9.74,222.54L14.62,156.43L19.49,184.78L24.36,175.36L29.23,175.36L34.11,350.16L38.98,364.28L43.85,354.86L48.72,317.1L53.6,321.81L58.47,331.22L68.21,321.81L73.09,312.29L77.96,317.1L82.83,312.29L87.7,317.1L92.58,312.29L97.45,156.43L102.32,175.36L107.19,175.36L112.07,142.21L116.94,175.36L121.81,165.85L126.68,165.85L131.56,161.14L136.43,165.85L141.3,156.43L146.17,170.55L151.05,180.07L155.92,170.55L160.79,156.43L165.66,142.21L170.54,161.14L175.41,161.14L180.28,147.01L185.15,156.43L190.03,151.72L194.9,147.01L199.77,151.72L204.64,161.14L209.52,128.08L219.26,156.43L224.13,147.01L229.01,147.01L233.88,142.21L238.75,151.72L243.62,156.43L248.5,147.01L253.37,142.21L258.24,151.72L263.11,142.21L267.99,137.5L272.86,151.72L277.73,151.72L282.6,147.01L287.48,137.5L292.35,142.21L297.22,137.5L302.09,170.55L306.97,161.14L311.84,222.54L316.71,217.83L321.58,232.06L326.46,227.25L331.33,227.25L341.07,208.42L345.95,208.42L355.69,208.42L360.56,217.83L365.44,208.42L370.31,156.43L375.18,142.21L380.05,132.79L384.93,137.5L389.8,147.01L394.67,137.5L399.54,137.5L404.42,128.08L409.29,132.79L414.16,293.46L419.03,132.79L428.78,132.79L433.65,128.08L438.52,203.71L443.4,109.15L448.27,128.08L453.14,113.86L458.01,128.08L462.89,132.79L467.76,142.21L472.63,147.01L482.38,128.08L487.25,142.21L496.99,151.72L501.87,128.08L506.74,142.21L511.61,151.72L516.48,142.21L521.36,137.5L531.1,128.08L535.97,128.08L540.85,132.79L545.72,132.79L550.59,142.21L555.46,132.79L560.34,132.79L565.21,142.21L570.08,118.67L574.95,132.79L579.83,128.08L584.7,132.79L589.57,137.5L594.44,137.5L599.32,132.79L604.19,132.79L609.06,123.37L613.93,118.67L623.68,118.67L628.55,128.08L633.42,123.37L638.3,113.86L643.17,109.15L648.04,109.15L652.91,123.37L657.79,128.08L662.66,236.77L667.53,232.06L672.4,123.37L677.28,118.67L682.15,123.37L687.02,132.79L691.89,132.79L696.77,128.08L701.64,132.79L706.51,128.08L711.38,151.72L716.26,151.72L721.13,165.85L726,161.14" style="vector-effect: none; fill: none; stroke: rgb(0, 0, 255); stroke-opacity: 1; stroke-width: 2px; opacity: 1;"/></g><g class="points"/><g class="text"/></g><g class="trace scatter trace79d9c0" style="stroke-miterlimit: 2; opacity: 1;"><g class="fills"/><g class="errorbars"/><g class="lines"><path class="js-line" d="M0,138.6L4.87,116.86L9.74,107.65L14.62,67.38L19.49,88.92L24.36,89.62L29.23,93.42L34.11,148.02L38.98,144.51L43.85,145.01L48.72,133.29L53.6,132.69L58.47,141.81L63.34,145.11L68.21,143.01L73.09,142.51L77.96,133.99L82.83,136.1L87.7,132.59L92.58,131.79L97.45,76.8L102.32,82.61L107.19,75.49L112.07,71.79L116.94,73.49L121.81,72.39L126.68,72.79L131.56,68.68L136.43,57.76L146.17,62.47L151.05,66.88L165.66,57.36L170.54,51.45L175.41,53.46L180.28,59.87L185.15,63.07L190.03,61.17L194.9,58.87L199.77,57.56L204.64,63.27L209.52,60.97L214.39,62.97L219.26,50.75L224.13,44.24L229.01,41.24L233.88,45.04L238.75,40.94L243.62,43.34L248.5,44.44L253.37,44.44L258.24,42.84L263.11,36.23L267.99,32.32L272.86,36.03L277.73,43.14L287.48,41.24L292.35,47.85L297.22,71.49L302.09,64.07L306.97,61.77L311.84,97.83L316.71,96.13L321.58,97.73L326.46,92.92L331.33,90.42L336.2,88.82L341.07,91.22L345.95,87.21L350.82,87.91L355.69,84.71L360.56,87.71L365.44,87.01L370.31,43.94L375.18,50.05L380.05,40.94L384.93,48.05L389.8,45.04L394.67,42.94L399.54,49.75L404.42,50.05L409.29,45.64L414.16,126.48L419.03,46.95L423.91,38.63L428.78,36.73L433.65,34.52L438.52,89.82L443.4,35.23L448.27,37.23L458.01,39.23L462.89,36.73L467.76,35.93L472.63,42.24L477.5,37.83L482.38,40.13L487.25,37.03L492.12,40.94L496.99,45.14L501.87,38.83L506.74,39.43L511.61,79.1L516.48,32.02L521.36,33.32L526.23,30.92L531.1,32.02L535.97,70.08L540.85,71.69L545.72,67.88L550.59,75.49L555.46,78L560.34,78L565.21,76.9L570.08,63.97L574.95,76.7L579.83,72.89L584.7,75.49L589.57,74.29L594.44,76.9L599.32,76.8L604.19,41.74L609.06,40.43L613.93,37.33L618.81,31.92L623.68,37.03L628.55,37.53L633.42,39.93L638.3,40.74L643.17,39.13L648.04,33.82L652.91,36.73L657.79,37.03L662.66,105.44L667.53,108.25L672.4,32.52L677.28,35.43L682.15,35.63L687.02,37.53L691.89,30.82L696.77,27.41L701.64,31.42L706.51,33.22L711.38,85.31L716.26,88.92L721.13,85.21L726,82.71" style="vector-effect: none; fill: none; stroke: rgb(0, 128, 0); stroke-opacity: 1; stroke-width: 2px; opacity: 1;"/></g><g class="points"/><g class="text"/></g><g class="trace scatter tracea36a74" style="stroke-miterlimit: 2; opacity: 1;"><g class="fills"/><g class="errorbars"/><g class="lines"><path class="js-line" d="M0,158.63L4.87,157.43L9.74,160.14L14.62,167.25L19.49,170.65L24.36,167.25L29.23,175.36L34.11,225.95L38.98,258.6L43.85,263.81L48.72,242.88L53.6,245.98L58.47,252.49L63.34,249.19L68.21,250.99L73.09,239.77L77.96,252.59L82.83,253.89L87.7,257.1L92.58,253.89L97.45,169.05L102.32,188.18L107.19,186.28L112.07,155.43L116.94,186.28L121.81,176.76L126.68,176.76L131.56,172.96L136.43,170.55L141.3,158.83L146.17,171.86L151.05,183.68L155.92,171.86L165.66,145.81L170.54,159.84L175.41,164.74L180.28,153.83L185.15,161.14L190.03,155.23L194.9,153.83L199.77,159.54L204.64,166.95L209.52,136.8L219.26,169.05L224.13,157.73L229.01,157.73L233.88,153.83L238.75,163.34L243.62,169.05L248.5,159.44L253.37,153.83L258.24,163.34L263.11,152.02L267.99,151.42L272.86,166.65L277.73,165.04L282.6,157.73L287.48,151.42L292.35,155.43L297.22,158.73L302.09,171.86L306.97,162.34L311.84,191.79L316.71,192.49L321.58,201.61L326.46,194.79L331.33,194.79L336.2,192.49L341.07,186.28L345.95,186.28L350.82,179.07L355.69,182.77L360.56,192.49L365.44,182.77L370.31,165.35L375.18,148.02L380.05,140.6L384.93,144.31L389.8,153.83L394.67,144.31L399.54,144.31L404.42,136.8L409.29,140.6L414.16,211.42L419.03,138.6L423.91,140.6L428.78,140.6L433.65,138.6L438.52,183.18L443.4,123.88L448.27,138.6L453.14,129.28L458.01,140.3L462.89,144.21L467.76,152.02L472.63,155.83L477.5,144.31L482.38,136.8L487.25,150.12L496.99,161.54L501.87,138.6L506.74,152.02L511.61,174.96L516.48,150.12L521.36,144.31L531.1,136.8L535.97,147.41L540.85,152.72L545.72,153.42L550.59,162.74L555.46,152.72L560.34,152.72L565.21,161.84L570.08,138L574.95,151.92L579.83,147.41L584.7,151.92L589.57,157.33L594.44,156.43L599.32,151.92L604.19,142.51L609.06,132.99L613.93,129.08L623.68,129.08L628.55,136.8L633.42,134.69L638.3,125.18L643.17,119.57L648.04,117.76L652.91,132.99L657.79,136.8L662.66,196.7L667.53,193.79L672.4,132.99L677.28,129.08L682.15,131.09L687.02,142.51L691.89,142.51L696.77,138.6L701.64,142.51L706.51,138.6L711.38,171.76L716.26,170.65L721.13,187.18L726,182.77" style="vector-effect: none; fill: none; stroke: rgb(255, 165, 0); stroke-opacity: 1; stroke-width: 2px; opacity: 1;"/></g><g class="points"/><g class="text"/></g><g class="trace scatter tracecec8d8" style="stroke-miterlimit: 2; opacity: 1;"><g class="fills"/><g class="errorbars"/><g class="lines"><path class="js-line" d="M0,210.72L4.87,126.48L9.74,123.98L14.62,59.87L19.49,85.11L24.36,85.51L29.23,87.61L34.11,212.32L38.98,200.8L43.85,186.78L48.72,163.44L53.6,157.53L58.47,172.46L63.34,169.25L68.21,167.85L73.09,170.15L77.96,152.32L82.83,155.33L87.7,155.83L92.58,149.22L97.45,69.68L102.32,75.39L107.19,68.08L112.07,64.38L116.94,66.08L121.81,65.18L126.68,65.38L131.56,60.97L136.43,49.85L146.17,54.76L151.05,59.17L155.92,55.96L160.79,51.85L165.66,49.45L170.54,43.34L175.41,45.34L180.28,52.15L185.15,55.36L190.03,53.36L194.9,51.05L199.77,49.65L204.64,55.56L209.52,53.26L214.39,55.26L219.26,42.74L224.13,36.03L229.01,33.12L233.88,36.83L238.75,32.72L243.62,35.73L248.5,36.73L253.37,36.73L258.24,34.93L263.11,28.41L267.99,25.11L272.86,28.92L277.73,36.23L287.48,33.62L292.35,40.13L297.22,74.69L302.09,56.36L306.97,54.16L311.84,97.83L316.71,95.73L321.58,97.23L326.46,92.32L331.33,89.22L336.2,87.21L341.07,89.62L345.95,87.01L350.82,86.21L355.69,82.71L360.56,84.91L365.44,84.51L370.31,35.83L375.18,41.94L380.05,32.52L384.93,39.83L389.8,36.83L394.67,34.62L399.54,41.64L404.42,42.04L409.29,37.63L414.16,162.54L419.03,39.03L423.91,30.82L428.78,29.22L433.65,27.11L438.52,86.11L443.4,28.72L448.27,30.32L453.14,31.72L458.01,32.02L462.89,29.22L467.76,28.01L472.63,34.12L477.5,29.62L482.38,32.12L487.25,29.02L496.99,37.93L501.87,31.22L506.74,31.42L511.61,85.81L516.48,23.71L521.36,25.21L526.23,22.7L531.1,23.71L535.97,74.09L540.85,74.29L545.72,70.79L550.59,77.4L555.46,79.4L560.34,79.8L565.21,78L570.08,67.78L574.95,78.8L579.83,75.29L584.7,77.4L589.57,75.89L594.44,78L599.32,78.4L604.19,33.92L609.06,32.52L613.93,29.42L618.81,24.31L623.68,29.02L628.55,29.82L633.42,32.22L638.3,32.82L643.17,31.02L648.04,25.91L652.91,29.22L657.79,29.02L662.66,114.06L667.53,115.86L672.4,24.51L677.28,27.71L682.15,28.11L687.02,29.82L691.89,23.31L696.77,19.8L701.64,24.41L706.51,25.71L711.38,87.11L716.26,90.92L721.13,87.51L726,85.41" style="vector-effect: none; fill: none; stroke: rgb(128, 0, 128); stroke-opacity: 1; stroke-width: 2px; opacity: 1;"/></g><g class="points"/><g class="text"/></g><g class="trace scatter traceb25c32" style="stroke-miterlimit: 2; opacity: 1;"><g class="fills"/><g class="errorbars"/><g class="lines"><path class="js-line" d="M0,225.65L4.87,158.53L9.74,167.05L14.62,154.93L19.49,158.63L24.36,153.83L29.23,161.84L34.11,265.21L38.98,284.55L43.85,282.44L48.72,255.2L53.6,258.9L58.47,266.42L63.34,262.71L68.21,261.61L73.09,251.49L77.96,260.61L82.83,259.5L87.7,263.21L92.58,259.5L97.45,157.63L102.32,177.97L107.19,175.26L112.07,143.71L116.94,175.26L121.81,165.14L126.68,165.14L136.43,157.03L141.3,144.21L151.05,170.95L155.92,158.13L165.66,130.29L170.54,145.31L175.41,150.62L180.28,139.4L185.15,146.91L190.03,140.5L194.9,139.4L199.77,145.81L204.64,153.32L209.52,121.77L219.26,157.63L224.13,144.81L229.01,144.81L233.88,141L238.75,151.22L243.62,157.63L248.5,147.52L253.37,141L258.24,151.22L263.11,138.4L267.99,140L272.86,156.53L277.73,153.93L282.6,144.81L287.48,140L292.35,143.71L297.22,158.73L302.09,158.13L306.97,147.92L311.84,185.78L316.71,184.78L321.58,196L326.46,189.59L331.33,189.59L336.2,184.78L341.07,177.27L345.95,177.27L350.82,171.96L355.69,174.56L360.56,184.78L365.44,174.56L370.31,152.22L375.18,132.99L380.05,125.48L384.93,129.28L389.8,139.4L394.67,129.28L399.54,129.28L404.42,121.77L409.29,125.48L414.16,228.45L419.03,122.87L423.91,125.48L428.78,125.48L433.65,124.48L438.52,173.56L443.4,112.16L448.27,124.48L453.14,118.67L458.01,127.18L462.89,130.89L467.76,138.4L472.63,142.11L477.5,129.28L482.38,121.77L487.25,135.7L496.99,148.52L501.87,124.48L506.74,138.4L511.61,178.07L516.48,135.7L521.36,129.28L531.1,121.77L535.97,143.21L540.85,149.72L545.72,152.32L550.59,159.84L555.46,149.72L560.34,149.72L565.21,157.13L570.08,135.8L574.95,147.01L579.83,143.21L584.7,147.01L589.57,153.42L594.44,150.72L599.32,147.01L604.19,128.18L609.06,118.07L613.93,114.36L623.68,114.36L628.55,121.77L633.42,120.77L638.3,110.55L643.17,104.14L648.04,101.44L652.91,118.07L657.79,121.77L662.66,194.29L667.53,190.59L672.4,118.07L677.28,114.36L682.15,115.36L687.02,128.18L691.89,128.18L696.77,124.48L701.64,128.18L706.51,124.48L711.38,167.35L716.26,164.64L721.13,183.88L726,180.17" style="vector-effect: none; fill: none; stroke: rgb(255, 192, 203); stroke-opacity: 1; stroke-width: 2px; opacity: 1;"/></g><g class="points"/><g class="text"/></g><g class="trace scatter trace030936" style="stroke-miterlimit: 2; opacity: 1;"><g class="fills"/><g class="errorbars"/><g class="lines"><path class="js-line" d="M0,282.24L4.87,153.83L9.74,155.73L14.62,67.18L19.49,101.04L24.36,101.04L29.23,100.24L34.11,280.44L38.98,262.41L43.85,238.17L48.72,205.51L53.6,195.9L58.47,215.53L63.34,208.12L68.21,206.92L73.09,211.22L77.96,186.28L87.7,193.19L92.58,182.47L97.45,76.8L102.32,83.61L107.19,76.4L112.07,71.89L116.94,74.09L121.81,72.09L126.68,72.99L131.56,70.18L136.43,59.37L141.3,61.77L146.17,64.17L151.05,68.88L155.92,66.38L160.79,61.77L165.66,59.37L170.54,52.35L175.41,54.76L180.28,62.77L185.15,65.28L190.03,62.97L194.9,59.67L199.77,58.47L204.64,64.38L209.52,61.07L214.39,63.37L219.26,51.35L224.13,45.24L229.01,40.84L233.88,45.34L238.75,40.74L248.5,43.54L253.37,43.54L258.24,42.14L263.11,35.13L267.99,30.72L272.86,34.42L277.73,41.64L282.6,41.34L287.48,40.03L292.35,47.05L297.22,73.29L302.09,66.38L306.97,65.08L311.84,117.46L316.71,115.16L321.58,116.36L326.46,111.55L331.33,108.05L336.2,105.64L341.07,108.05L345.95,106.85L350.82,104.44L355.69,100.94L360.56,102.14L365.44,102.14L370.31,44.24L375.18,51.15L380.05,41.64L384.93,48.85L389.8,45.34L394.67,44.04L399.54,50.15L404.42,50.25L409.29,45.54L414.16,207.92L419.03,46.75L423.91,37.53L428.78,35.33L433.65,33.02L438.52,102.24L443.4,33.42L448.27,35.63L458.01,37.83L462.89,35.33L467.76,35.03L472.63,42.04L477.5,37.33L482.38,39.73L487.25,36.23L492.12,39.93L496.99,43.84L501.87,37.63L506.74,38.63L511.61,83.21L516.48,31.32L521.36,32.62L526.23,30.22L531.1,31.32L535.97,72.39L540.85,73.09L545.72,69.48L550.59,76.5L555.46,78.8L560.34,78.9L565.21,77.4L570.08,66.18L574.95,77.8L579.83,74.19L584.7,76.5L589.57,75.19L594.44,77.4L599.32,77.6L604.19,41.04L609.06,39.73L613.93,36.33L618.81,30.52L623.68,36.23L628.55,36.43L633.42,38.83L638.3,39.83L643.17,38.53L648.04,32.72L652.91,35.33L657.79,36.23L662.66,140.5L667.53,141.61L672.4,31.52L677.28,34.12L682.15,34.22L687.02,36.43L691.89,29.42L696.77,25.81L701.64,29.62L706.51,31.82L711.38,86.31L716.26,90.02L721.13,86.51L726,84.21" style="vector-effect: none; fill: none; stroke: rgb(165, 42, 42); stroke-opacity: 1; stroke-width: 2px; opacity: 1;"/></g><g class="points"/><g class="text"/></g><g class="trace scatter traceea7a06" style="stroke-miterlimit: 2; opacity: 1;"><g class="fills"/><g class="errorbars"/><g class="lines"><path class="js-line" d="M0,332.43L4.87,208.42L9.74,222.84L14.62,166.45L19.49,187.18L24.36,178.77L29.23,180.97L34.11,364.08L38.98,376.2L43.85,362.48L48.72,319.7L53.6,324.81L58.47,335.13L68.21,324.11L73.09,314.6L77.96,318.6L82.83,313.19L87.7,318.1L92.58,313.19L97.45,167.55L102.32,187.18L107.19,185.98L112.07,153.42L116.94,185.98L121.81,176.26L126.68,176.26L131.56,171.86L136.43,173.16L141.3,162.64L146.17,176.66L151.05,187.18L155.92,176.66L160.79,162.64L165.66,148.52L170.54,166.25L175.41,167.85L180.28,154.73L185.15,163.44L190.03,158.23L194.9,154.73L199.77,160.04L204.64,168.75L209.52,136.2L219.26,167.55L224.13,156.73L229.01,156.73L233.88,152.32L238.75,162.14L243.62,167.55L248.5,157.73L253.37,152.32L258.24,162.14L263.11,151.32L267.99,149.12L272.86,164.44L277.73,163.24L282.6,156.73L287.48,149.12L292.35,153.42L297.22,158.73L302.09,176.66L306.97,167.05L311.84,223.04L316.71,218.84L321.58,232.56L326.46,227.65L331.33,227.65L341.07,209.72L345.95,209.72L350.82,209.02L355.69,209.32L360.56,218.84L365.44,209.32L370.31,165.45L375.18,149.42L380.05,140.6L384.93,145.01L389.8,154.73L394.67,145.01L399.54,145.01L404.42,136.2L409.29,140.6L414.16,296.27L419.03,139.7L423.91,140.6L428.78,140.6L433.65,137.2L438.52,205.21L443.4,120.67L448.27,137.2L453.14,126.18L458.01,138.2L462.89,142.61L467.76,151.32L472.63,155.63L477.5,145.01L482.38,136.2L487.25,150.32L492.12,155.63L496.99,161.04L501.87,137.2L506.74,151.32L511.61,176.66L516.48,150.32L521.36,145.01L531.1,136.2L535.97,145.61L540.85,151.42L545.72,152.92L550.59,161.44L555.46,151.42L560.34,151.42L565.21,159.94L570.08,137L574.95,149.92L579.83,145.61L584.7,149.92L589.57,155.63L594.44,154.23L599.32,149.92L604.19,141.5L609.06,131.79L613.93,127.38L623.68,127.38L628.55,136.2L633.42,132.79L638.3,122.97L643.17,117.66L648.04,116.76L652.91,131.79L657.79,136.2L662.66,236.87L667.53,232.16L672.4,131.79L677.28,127.38L682.15,130.89L687.02,141.5L691.89,141.5L696.77,137.2L701.64,141.5L706.51,137.2L711.38,169.95L716.26,168.45L721.13,185.78L726,181.57" style="vector-effect: none; fill: none; stroke: rgb(128, 128, 128); stroke-opacity: 1; stroke-width: 2px; opacity: 1;"/></g><g class="points"/><g class="text"/></g></g></g><g class="overplot"/><path class="xlines-above crisp" d="M0,0" style="fill: none;"/><path class="ylines-above crisp" d="M0,0" style="fill: none;"/><g class="overlines-above"/><g class="xaxislayer-above"><g class="xtick"><text text-anchor="middle" x="0" y="509" transform="translate(235.57999999999998,0)" style="font-family: 'Open Sans', verdana, arial, sans-serif; font-size: 12px; fill: rgb(42, 63, 95); fill-opacity: 1; white-space: pre; opacity: 1;">20</text></g><g class="xtick"><text text-anchor="middle" x="0" y="509" style="font-family: 'Open Sans', verdana, arial, sans-serif; font-size: 12px; fill: rgb(42, 63, 95); fill-opacity: 1; white-space: pre; opacity: 1;" transform="translate(333.03,0)">40</text></g><g class="xtick"><text text-anchor="middle" x="0" y="509" style="font-family: 'Open Sans', verdana, arial, sans-serif; font-size: 12px; fill: rgb(42, 63, 95); fill-opacity: 1; white-space: pre; opacity: 1;" transform="translate(430.48,0)">60</text></g><g class="xtick"><text text-anchor="middle" x="0" y="509" style="font-family: 'Open Sans', verdana, arial, sans-serif; font-size: 12px; fill: rgb(42, 63, 95); fill-opacity: 1; white-space: pre; opacity: 1;" transform="translate(527.9300000000001,0)">80</text></g><g class="xtick"><text text-anchor="middle" x="0" y="509" style="font-family: 'Open Sans', verdana, arial, sans-serif; font-size: 12px; fill: rgb(42, 63, 95); fill-opacity: 1; white-space: pre; opacity: 1;" transform="translate(625.38,0)">100</text></g><g class="xtick"><text text-anchor="middle" x="0" y="509" style="font-family: 'Open Sans', verdana, arial, sans-serif; font-size: 12px; fill: rgb(42, 63, 95); fill-opacity: 1; white-space: pre; opacity: 1;" transform="translate(722.83,0)">120</text></g><g class="xtick"><text text-anchor="middle" x="0" y="509" style="font-family: 'Open Sans', verdana, arial, sans-serif; font-size: 12px; fill: rgb(42, 63, 95); fill-opacity: 1; white-space: pre; opacity: 1;" transform="translate(820.28,0)">140</text></g></g><g class="yaxislayer-above"><g class="ytick"><text text-anchor="end" x="142" y="4.199999999999999" transform="translate(0,454.86)" style="font-family: 'Open Sans', verdana, arial, sans-serif; font-size: 12px; fill: rgb(42, 63, 95); fill-opacity: 1; white-space: pre; opacity: 1;">50</text></g><g class="ytick"><text text-anchor="end" x="142" y="4.199999999999999" style="font-family: 'Open Sans', verdana, arial, sans-serif; font-size: 12px; fill: rgb(42, 63, 95); fill-opacity: 1; white-space: pre; opacity: 1;" transform="translate(0,404.78)">55</text></g><g class="ytick"><text text-anchor="end" x="142" y="4.199999999999999" style="font-family: 'Open Sans', verdana, arial, sans-serif; font-size: 12px; fill: rgb(42, 63, 95); fill-opacity: 1; white-space: pre; opacity: 1;" transform="translate(0,354.7)">60</text></g><g class="ytick"><text text-anchor="end" x="142" y="4.199999999999999" style="font-family: 'Open Sans', verdana, arial, sans-serif; font-size: 12px; fill: rgb(42, 63, 95); fill-opacity: 1; white-space: pre; opacity: 1;" transform="translate(0,304.61)">65</text></g><g class="ytick"><text text-anchor="end" x="142" y="4.199999999999999" style="font-family: 'Open Sans', verdana, arial, sans-serif; font-size: 12px; fill: rgb(42, 63, 95); fill-opacity: 1; white-space: pre; opacity: 1;" transform="translate(0,254.53)">70</text></g><g class="ytick"><text text-anchor="end" x="142" y="4.199999999999999" style="font-family: 'Open Sans', verdana, arial, sans-serif; font-size: 12px; fill: rgb(42, 63, 95); fill-opacity: 1; white-space: pre; opacity: 1;" transform="translate(0,204.44)">75</text></g><g class="ytick"><text text-anchor="end" x="142" y="4.199999999999999" style="font-family: 'Open Sans', verdana, arial, sans-serif; font-size: 12px; fill: rgb(42, 63, 95); fill-opacity: 1; white-space: pre; opacity: 1;" transform="translate(0,154.36)">80</text></g><g class="ytick"><text text-anchor="end" x="142" y="4.199999999999999" style="font-family: 'Open Sans', verdana, arial, sans-serif; font-size: 12px; fill: rgb(42, 63, 95); fill-opacity: 1; white-space: pre; opacity: 1;" transform="translate(0,104.27)">85</text></g></g><g class="overaxes-above"/></g></g><g class="polarlayer"/><g class="smithlayer"/><g class="ternarylayer"/><g class="geolayer"/><g class="funnelarealayer"/><g class="pielayer"/><g class="iciclelayer"/><g class="treemaplayer"/><g class="sunburstlayer"/><g class="glimages"/><defs id="topdefs-ab9fcd"><g class="clips"/><clipPath id="legendab9fcd"><rect width="128" height="162" x="0" y="0"/></clipPath></defs><g class="layer-above"><g class="imagelayer"/><g class="shapelayer"/></g><g class="infolayer"><g class="legend" pointer-events="all" transform="translate(883.52,100)"><rect class="bg" shape-rendering="crispEdges" width="128" height="162" x="0" y="0" style="stroke: rgb(68, 68, 68); stroke-opacity: 1; fill: rgb(255, 255, 255); fill-opacity: 1; stroke-width: 0px;"/><g class="scrollbox" transform="" clip-path="url(#legendab9fcd)"><g class="groups"><g class="traces" transform="translate(0,14.5)" style="opacity: 1;"><text class="legendtext" text-anchor="start" x="40" y="4.680000000000001" style="font-family: 'Open Sans', verdana, arial, sans-serif; font-size: 12px; fill: rgb(42, 63, 95); fill-opacity: 1; white-space: pre;">Train Accuracy</text><g class="layers" style="opacity: 1;"><g class="legendfill"/><g class="legendlines"><path class="js-line" d="M5,0h30" style="fill: none; stroke: rgb(255, 0, 0); stroke-opacity: 1; stroke-width: 2px;"/></g><g class="legendsymbols"><g class="legendpoints"/></g></g><rect class="legendtoggle" x="0" y="-9.5" width="122.71875" height="19" style="fill: rgb(0, 0, 0); fill-opacity: 0;"/></g><g class="traces" transform="translate(0,33.5)" style="opacity: 1;"><text class="legendtext" text-anchor="start" x="40" y="4.680000000000001" style="font-family: 'Open Sans', verdana, arial, sans-serif; font-size: 12px; fill: rgb(42, 63, 95); fill-opacity: 1; white-space: pre;">Test Accuracy</text><g class="layers" style="opacity: 1;"><g class="legendfill"/><g class="legendlines"><path class="js-line" d="M5,0h30" style="fill: none; stroke: rgb(0, 0, 255); stroke-opacity: 1; stroke-width: 2px;"/></g><g class="legendsymbols"><g class="legendpoints"/></g></g><rect class="legendtoggle" x="0" y="-9.5" width="122.71875" height="19" style="fill: rgb(0, 0, 0); fill-opacity: 0;"/></g><g class="traces" transform="translate(0,52.5)" style="opacity: 1;"><text class="legendtext" text-anchor="start" x="40" y="4.680000000000001" style="font-family: 'Open Sans', verdana, arial, sans-serif; font-size: 12px; fill: rgb(42, 63, 95); fill-opacity: 1; white-space: pre;">Train Precision</text><g class="layers" style="opacity: 1;"><g class="legendfill"/><g class="legendlines"><path class="js-line" d="M5,0h30" style="fill: none; stroke: rgb(0, 128, 0); stroke-opacity: 1; stroke-width: 2px;"/></g><g class="legendsymbols"><g class="legendpoints"/></g></g><rect class="legendtoggle" x="0" y="-9.5" width="122.71875" height="19" style="fill: rgb(0, 0, 0); fill-opacity: 0;"/></g><g class="traces" transform="translate(0,71.5)" style="opacity: 1;"><text class="legendtext" text-anchor="start" x="40" y="4.680000000000001" style="font-family: 'Open Sans', verdana, arial, sans-serif; font-size: 12px; fill: rgb(42, 63, 95); fill-opacity: 1; white-space: pre;">Test Precision</text><g class="layers" style="opacity: 1;"><g class="legendfill"/><g class="legendlines"><path class="js-line" d="M5,0h30" style="fill: none; stroke: rgb(255, 165, 0); stroke-opacity: 1; stroke-width: 2px;"/></g><g class="legendsymbols"><g class="legendpoints"/></g></g><rect class="legendtoggle" x="0" y="-9.5" width="122.71875" height="19" style="fill: rgb(0, 0, 0); fill-opacity: 0;"/></g><g class="traces" transform="translate(0,90.5)" style="opacity: 1;"><text class="legendtext" text-anchor="start" x="40" y="4.680000000000001" style="font-family: 'Open Sans', verdana, arial, sans-serif; font-size: 12px; fill: rgb(42, 63, 95); fill-opacity: 1; white-space: pre;">Train Recall</text><g class="layers" style="opacity: 1;"><g class="legendfill"/><g class="legendlines"><path class="js-line" d="M5,0h30" style="fill: none; stroke: rgb(128, 0, 128); stroke-opacity: 1; stroke-width: 2px;"/></g><g class="legendsymbols"><g class="legendpoints"/></g></g><rect class="legendtoggle" x="0" y="-9.5" width="122.71875" height="19" style="fill: rgb(0, 0, 0); fill-opacity: 0;"/></g><g class="traces" transform="translate(0,109.5)" style="opacity: 1;"><text class="legendtext" text-anchor="start" x="40" y="4.680000000000001" style="font-family: 'Open Sans', verdana, arial, sans-serif; font-size: 12px; fill: rgb(42, 63, 95); fill-opacity: 1; white-space: pre;">Test Recall</text><g class="layers" style="opacity: 1;"><g class="legendfill"/><g class="legendlines"><path class="js-line" d="M5,0h30" style="fill: none; stroke: rgb(255, 192, 203); stroke-opacity: 1; stroke-width: 2px;"/></g><g class="legendsymbols"><g class="legendpoints"/></g></g><rect class="legendtoggle" x="0" y="-9.5" width="122.71875" height="19" style="fill: rgb(0, 0, 0); fill-opacity: 0;"/></g><g class="traces" transform="translate(0,128.5)" style="opacity: 1;"><text class="legendtext" text-anchor="start" x="40" y="4.680000000000001" style="font-family: 'Open Sans', verdana, arial, sans-serif; font-size: 12px; fill: rgb(42, 63, 95); fill-opacity: 1; white-space: pre;">Train F1</text><g class="layers" style="opacity: 1;"><g class="legendfill"/><g class="legendlines"><path class="js-line" d="M5,0h30" style="fill: none; stroke: rgb(165, 42, 42); stroke-opacity: 1; stroke-width: 2px;"/></g><g class="legendsymbols"><g class="legendpoints"/></g></g><rect class="legendtoggle" x="0" y="-9.5" width="122.71875" height="19" style="fill: rgb(0, 0, 0); fill-opacity: 0;"/></g><g class="traces" transform="translate(0,147.5)" style="opacity: 1;"><text class="legendtext" text-anchor="start" x="40" y="4.680000000000001" style="font-family: 'Open Sans', verdana, arial, sans-serif; font-size: 12px; fill: rgb(42, 63, 95); fill-opacity: 1; white-space: pre;">Test F1</text><g class="layers" style="opacity: 1;"><g class="legendfill"/><g class="legendlines"><path class="js-line" d="M5,0h30" style="fill: none; stroke: rgb(128, 128, 128); stroke-opacity: 1; stroke-width: 2px;"/></g><g class="legendsymbols"><g class="legendpoints"/></g></g><rect class="legendtoggle" x="0" y="-9.5" width="122.71875" height="19" style="fill: rgb(0, 0, 0); fill-opacity: 0;"/></g></g></g><rect class="scrollbar" rx="20" ry="3" width="0" height="0" x="0" y="0" style="fill: rgb(128, 139, 164); fill-opacity: 1;"/></g><g class="g-gtitle"><text class="gtitle" x="51.2" y="50" text-anchor="start" dy="0em" style="font-family: 'Open Sans', verdana, arial, sans-serif; font-size: 17px; fill: rgb(42, 63, 95); opacity: 1; font-weight: normal; white-space: pre;">Training Metrics - logs/FakeNewsNet-politifact_max-vocab=15000_pre=v1_text_domain_T=150_s=5.log</text></g><g class="g-xtitle"><text class="xtitle" x="506" y="537.3" text-anchor="middle" style="font-family: 'Open Sans', verdana, arial, sans-serif; font-size: 14px; fill: rgb(42, 63, 95); opacity: 1; font-weight: normal; white-space: pre;">Epoch</text></g><g class="g-ytitle"><text class="ytitle" transform="rotate(-90,103.965625,298)" x="103.965625" y="298" text-anchor="middle" style="font-family: 'Open Sans', verdana, arial, sans-serif; font-size: 14px; fill: rgb(42, 63, 95); opacity: 1; font-weight: normal; white-space: pre;">Metric Score</text></g></g><g class="menulayer"><g class="updatemenu-container" style="cursor: pointer;"><g class="updatemenu-header-group" transform="translate(12,60)"><g class="updatemenu-header" transform="translate(1,1)" style="pointer-events: all;"><rect class="updatemenu-item-rect" rx="2" ry="2" shape-rendering="crispEdges" x="0" y="0" width="167" height="33" style="stroke: rgb(190, 200, 217); stroke-opacity: 1; fill: rgb(255, 255, 255); fill-opacity: 1; stroke-width: 1px;"/><text class="updatemenu-item-text" text-anchor="start" data-notex="1" x="12" y="19.5" style="font-family: 'Open Sans', verdana, arial, sans-serif; font-size: 12px; fill: rgb(42, 63, 95); fill-opacity: 1; white-space: pre;">All</text></g><text class="updatemenu-header-arrow" text-anchor="end" x="163" y="19.5" style="font-family: 'Open Sans', verdana, arial, sans-serif; font-size: 12px; fill: rgb(42, 63, 95); fill-opacity: 1;">▼</text></g><g class="updatemenu-dropdown-button-group" updatemenu-active-index="-1" style="pointer-events: all;"><rect class="scrollbox-bg" opacity="0" x="0" y="0" width="0" height="0" style="pointer-events: all;"/></g></g></g></svg>