<svg class="main-svg" xmlns="http://www.w3.org/2000/svg" xmlns:xlink="http://www.w3.org/1999/xlink" width="1024" height="576" style="" viewBox="0 0 1024 576"><rect x="0" y="0" width="1024" height="576" style="fill: rgb(255, 255, 255); fill-opacity: 1;"/><defs id="defs-9f3cf1"><g class="clips"><clipPath id="clip9f3cf1xyplot" class="plotclip"><rect width="726" height="396"/></clipPath><clipPath class="axesclip" id="clip9f3cf1x"><rect x="143" y="0" width="726" height="576"/></clipPath><clipPath class="axesclip" id="clip9f3cf1y"><rect x="0" y="100" width="1024" height="396"/></clipPath><clipPath class="axesclip" id="clip9f3cf1xy"><rect x="143" y="100" width="726" height="396"/></clipPath></g><g class="gradients"/><g class="patterns"/></defs><g class="bglayer"><rect class="bg" x="143" y="100" width="726" height="396" style="fill: rgb(229, 236, 246); fill-opacity: 1; stroke-width: 0;"/></g><g class="layer-below"><g class="imagelayer"/><g class="shapelayer"/></g><g class="cartesianlayer"><g class="subplot xy"><g class="layer-subplot"><g class="shapelayer"/><g class="imagelayer"/></g><g class="minor-gridlayer"><g class="x"/><g class="y"/></g><g class="gridlayer"><g class="x"><path class="xgrid crisp" transform="translate(235.57999999999998,0)" d="M0,100v396" style="stroke: rgb(255, 255, 255); stroke-opacity: 1; stroke-width: 1px;"/><path class="xgrid crisp" transform="translate(333.03,0)" d="M0,100v396" style="stroke: rgb(255, 255, 255); stroke-opacity: 1; stroke-width: 1px;"/><path class="xgrid crisp" transform="translate(430.48,0)" d="M0,100v396" style="stroke: rgb(255, 255, 255); stroke-opacity: 1; stroke-width: 1px;"/><path class="xgrid crisp" transform="translate(527.9300000000001,0)" d="M0,100v396" style="stroke: rgb(255, 255, 255); stroke-opacity: 1; stroke-width: 1px;"/><path class="xgrid crisp" transform="translate(625.38,0)" d="M0,100v396" style="stroke: rgb(255, 255, 255); stroke-opacity: 1; stroke-width: 1px;"/><path class="xgrid crisp" transform="translate(722.83,0)" d="M0,100v396" style="stroke: rgb(255, 255, 255); stroke-opacity: 1; stroke-width: 1px;"/><path class="xgrid crisp" transform="translate(820.28,0)" d="M0,100v396" style="stroke: rgb(255, 255, 255); stroke-opacity: 1; stroke-width: 1px;"/></g><g class="y"><path class="ygrid crisp" transform="translate(0,489.87)" d="M143,0h726" style="stroke: rgb(255, 255, 255); stroke-opacity: 1; stroke-width: 1px;"/><path class="ygrid crisp" transform="translate(0,399.96)" d="M143,0h726" style="stroke: rgb(255, 255, 255); stroke-opacity: 1; stroke-width: 1px;"/><path class="ygrid crisp" transform="translate(0,310.05)" d="M143,0h726" style="stroke: rgb(255, 255, 255); stroke-opacity: 1; stroke-width: 1px;"/><path class="ygrid crisp" transform="translate(0,220.14)" d="M143,0h726" style="stroke: rgb(255, 255, 255); stroke-opacity: 1; stroke-width: 1px;"/><path class="ygrid crisp" transform="translate(0,130.23)" d="M143,0h726" style="stroke: rgb(255, 255, 255); stroke-opacity: 1; stroke-width: 1px;"/></g></g><g class="zerolinelayer"/><path class="xlines-below"/><path class="ylines-below"/><g class="overlines-below"/><g class="xaxislayer-below"/><g class="yaxislayer-below"/><g class="overaxes-below"/><g class="plot" transform="translate(143,100)" clip-path="url(#clip9f3cf1xyplot)"><g class="scatterlayer mlayer"><g class="trace scatter trace2948f2" style="stroke-miterlimit: 2; opacity: 1;"><g class="fills"/><g class="errorbars"/><g class="lines"><path class="js-line" d="M0,270.83L4.87,215.26L9.74,93.35L14.62,22.32L19.49,34.37L24.36,25.73L29.23,19.8L34.11,61.7L38.98,63.68L43.85,126.79L48.72,126.43L53.6,129.67L58.47,137.22L63.34,133.98L68.21,137.76L73.09,155.92L77.96,129.85L82.83,122.12L87.7,124.63L92.58,121.94L97.45,116.18L102.32,114.38L107.19,110.43L112.07,110.07L116.94,114.56L121.81,108.99L126.68,113.31L131.56,119.06L136.43,114.74L141.3,107.01L146.17,112.41L151.05,104.49L155.92,116.9L160.79,104.31L165.66,110.43L170.54,116L175.41,119.06L180.28,118.88L185.15,121.04L190.03,114.92L194.9,118.7L199.77,117.98L204.64,122.3L209.52,121.94L214.39,134.16L219.26,115.82L224.13,118.16L229.01,118.16L233.88,116.9L238.75,121.4L243.62,121.04L248.5,121.04L253.37,116L258.24,120.32L263.11,117.98L267.99,113.31L272.86,124.99L277.73,120.32L282.6,117.26L287.48,119.24L292.35,123.38L302.09,121.94L306.97,125.71L311.84,124.99L316.71,123.02L321.58,128.41L326.46,121.94L331.33,123.74L336.2,126.61L345.95,120.14L350.82,121.22L355.69,122.3L360.56,120.68L365.44,111.69L370.31,110.07L375.18,118.34L380.05,118.16L384.93,125.89L389.8,124.45L394.67,128.41L399.54,123.38L404.42,117.8L409.29,114.38L414.16,113.31L419.03,120.14L428.78,113.31L433.65,112.23L438.52,110.07L443.4,112.05L458.01,111.33L462.89,113.85L467.76,114.2L472.63,111.69L477.5,108.81L482.38,110.97L487.25,115.28L492.12,116L496.99,111.15L501.87,118.52L506.74,111.33L511.61,110.61L516.48,110.25L521.36,108.09L526.23,107.73L531.1,113.31L535.97,117.26L540.85,110.43L545.72,112.59L550.59,116.18L555.46,118.34L560.34,117.62L565.21,118.34L570.08,117.44L574.95,125.35L579.83,122.66L584.7,122.84L589.57,125.71L594.44,114.38L599.32,122.3L604.19,129.85L609.06,125.17L618.81,122.84L623.68,125.53L633.42,121.76L638.3,117.98L643.17,120.14L648.04,119.78L652.91,117.08L657.79,116.18L662.66,115.1L667.53,112.05L672.4,112.59L677.28,111.15L682.15,111.15L687.02,108.99L691.89,108.81L696.77,118.7L701.64,111.87L706.51,114.2L711.38,115.1L716.26,110.97L721.13,114.92L726,121.58" style="vector-effect: none; fill: none; stroke: rgb(255, 0, 0); stroke-opacity: 1; stroke-width: 2px; opacity: 1;"/></g><g class="points"/><g class="text"/></g><g class="trace scatter trace7713cb" style="stroke-miterlimit: 2; opacity: 1;"><g class="fills"/><g class="errorbars"/><g class="lines"><path class="js-line" d="M0,300.5L4.87,237.92L9.74,93.71L14.62,36.88L19.49,41.02L24.36,29.51L29.23,27.17L34.11,64.57L38.98,65.29L43.85,154.66L48.72,148.91L53.6,155.02L58.47,171.39L63.34,160.42L68.21,171.39L73.09,178.58L77.96,153.76L82.83,146.57L87.7,148.91L92.58,143.69L97.45,145.31L102.32,139.2L107.19,137.94L112.07,134.7L116.94,142.08L121.81,137.58L126.68,140.82L131.56,148.19L136.43,147.83L141.3,139.2L146.17,145.67L151.05,140.82L155.92,147.83L160.79,137.58L165.66,138.48L175.41,151.79L180.28,153.05L185.15,162.76L190.03,152.69L194.9,157.18L199.77,154.66L209.52,157.18L214.39,167.97L219.26,148.91L224.13,144.59L229.01,146.93L233.88,146.57L243.62,154.66L248.5,155.92L253.37,148.19L258.24,148.55L267.99,139.2L272.86,148.55L277.73,146.21L282.6,153.76L287.48,145.31L292.35,148.91L297.22,152.15L302.09,159.16L306.97,162.76L311.84,163.65L316.71,161.14L321.58,164.01L326.46,161.14L331.33,151.79L336.2,164.73L341.07,158.8L345.95,149.81L350.82,147.29L355.69,152.69L360.56,150.17L365.44,144.59L370.31,136.86L375.18,142.44L380.05,141.72L384.93,159.52L389.8,156.64L394.67,154.66L399.54,149.81L404.42,146.93L409.29,148.55L414.16,144.59L419.03,157.18L423.91,149.81L428.78,139.56L433.65,142.08L438.52,135.96L443.4,140.82L448.27,148.91L453.14,147.29L458.01,144.05L462.89,140.82L467.76,142.44L472.63,144.05L477.5,135.96L482.38,137.58L487.25,147.83L492.12,144.95L496.99,140.46L501.87,149.45L506.74,147.29L511.61,146.93L516.48,151.79L521.36,146.21L526.23,144.95L531.1,144.59L535.97,154.3L540.85,146.21L545.72,149.45L550.59,155.02L555.46,156.64L560.34,157.54L565.21,155.92L570.08,156.64L574.95,163.65L579.83,159.88L584.7,160.42L589.57,163.65L594.44,152.15L599.32,151.79L604.19,159.16L613.93,161.14L618.81,160.42L623.68,167.61L628.55,157.54L633.42,161.14L638.3,159.52L643.17,155.92L648.04,154.66L657.79,151.43L662.66,144.05L667.53,141.72L672.4,138.48L677.28,143.69L682.15,144.05L687.02,141.18L691.89,142.44L696.77,151.79L701.64,145.67L706.51,152.69L711.38,152.69L716.26,149.81L721.13,151.07L726,157.9" style="vector-effect: none; fill: none; stroke: rgb(0, 0, 255); stroke-opacity: 1; stroke-width: 2px; opacity: 1;"/></g><g class="points"/><g class="text"/></g><g class="trace scatter tracef06380" style="stroke-miterlimit: 2; opacity: 1;"><g class="fills"/><g class="errorbars"/><g class="lines"><path class="js-line" d="M0,346.71L4.87,321.18L9.74,252.48L14.62,144.41L19.49,167.25L24.36,150.17L29.23,140.28L34.11,212.39L38.98,214.72L43.85,259.32L48.72,256.8L53.6,258.24L58.47,263.81L68.21,262.37L73.09,273.34L77.96,258.42L82.83,251.05L87.7,252.84L92.58,251.77L97.45,247.45L102.32,247.09L107.19,245.29L112.07,244.75L116.94,248.17L121.81,241.7L126.68,243.85L131.56,247.09L136.43,244.75L141.3,239.18L146.17,243.13L151.05,236.3L155.92,245.65L160.79,234.5L170.54,244.03L175.41,245.65L180.28,245.11L185.15,246.01L190.03,244.39L194.9,248.17L199.77,247.45L204.64,250.51L209.52,250.51L214.39,255.54L219.26,244.03L224.13,248.53L233.88,244.57L238.75,248.17L243.62,246.19L248.5,245.83L253.37,242.77L258.24,244.39L263.11,244.21L267.99,240.98L272.86,248.89L277.73,245.29L282.6,242.77L287.48,244.75L292.35,247.45L297.22,246.55L302.09,245.11L306.97,248.35L311.84,247.99L316.71,246.55L321.58,248.71L326.46,243.85L336.2,249.07L341.07,246.55L345.95,243.67L350.82,245.65L355.69,245.29L360.56,243.85L365.44,239.54L370.31,239.72L375.18,245.29L380.05,244.93L384.93,247.81L389.8,246.91L394.67,250.15L399.54,246.55L404.42,242.24L409.29,240.26L414.16,239.36L419.03,244.39L428.78,240.62L433.65,239L438.52,238.82L443.4,241.7L448.27,240.08L453.14,240.62L462.89,241.88L467.76,241.34L472.63,239.9L477.5,237.2L482.38,238.64L487.25,241.16L492.12,240.8L496.99,238.82L501.87,244.39L506.74,241.16L511.61,241.16L516.48,239.72L521.36,237.92L526.23,239.54L535.97,243.49L540.85,239.54L550.59,240.8L555.46,244.39L565.21,245.47L570.08,244.03L574.95,249.79L579.83,247.27L584.7,246.73L589.57,249.43L594.44,241.34L599.32,247.45L604.19,251.23L609.06,248.17L618.81,246.55L623.68,247.81L628.55,247.99L633.42,245.29L652.91,244.21L657.79,244.39L662.66,244.03L667.53,239.9L672.4,241.16L677.28,240.8L691.89,237.92L696.77,246.37L701.64,239.54L706.51,241.88L711.38,242.59L716.26,241.7L726,249.07" style="vector-effect: none; fill: none; stroke: rgb(0, 128, 0); stroke-opacity: 1; stroke-width: 2px; opacity: 1;"/></g><g class="points"/><g class="text"/></g><g class="trace scatter tracea427a0" style="stroke-miterlimit: 2; opacity: 1;"><g class="fills"/><g class="errorbars"/><g class="lines"><path class="js-line" d="M0,360.38L4.87,330.53L9.74,251.23L14.62,170.49L19.49,178.58L24.36,157.54L29.23,153.58L34.11,215.98L38.98,216.7L43.85,281.62L48.72,273.88L53.6,278.74L58.47,290.07L63.34,282.33L68.21,290.43L73.09,287.73L77.96,276.76L82.83,270.65L87.7,272.8L92.58,271.01L97.45,272.26L102.32,270.11L107.19,268.85L112.07,267.05L116.94,272.44L121.81,267.41L126.68,266.87L131.56,269.93L136.43,274.6L141.3,269.57L146.17,272.8L151.05,271.73L155.92,272.44L160.79,264.35L165.66,264.35L170.54,270.65L175.41,274.06L180.28,274.42L185.15,281.62L190.03,278.38L194.9,281.8L199.77,281.08L204.64,279.46L209.52,279.46L214.39,283.05L219.26,272.62L224.13,270.47L233.88,271.37L238.75,273.16L243.62,275.32L248.5,274.6L253.37,269.39L258.24,267.95L263.11,265.79L267.99,261.84L272.86,266.51L277.73,266.15L282.6,275.86L287.48,265.25L297.22,270.65L302.09,276.04L306.97,276.76L311.84,278.74L316.71,278.2L321.58,276.76L326.46,275.32L331.33,269.93L336.2,278.92L341.07,275.68L345.95,268.49L350.82,266.33L355.69,268.49L360.56,268.85L365.44,268.67L370.31,262.91L375.18,265.97L380.05,263.81L384.93,276.58L389.8,273.34L394.67,272.8L399.54,270.47L404.42,268.31L409.29,271.19L414.16,267.95L419.03,275.86L428.78,265.61L433.65,267.23L438.52,263.81L443.4,268.85L448.27,273.88L453.14,272.62L458.01,269.75L462.89,265.79L467.76,266.33L472.63,269.21L477.5,262.02L482.38,263.27L487.25,271.55L492.12,269.03L496.99,267.41L501.87,273.34L506.74,276.04L511.61,276.58L516.48,279.46L521.36,272.62L526.23,274.24L531.1,269.75L535.97,276.76L540.85,270.47L550.59,274.6L555.46,276.94L560.34,279.46L565.21,278.56L570.08,278.92L574.95,282.87L579.83,279.82L584.7,277.84L589.57,280.9L594.44,274.24L599.32,271.01L604.19,275.68L609.06,276.58L613.93,280.36L618.81,279.82L623.68,283.95L628.55,275.68L633.42,279.28L638.3,281.08L643.17,275.5L648.04,273.16L652.91,276.94L657.79,276.04L662.66,269.93L672.4,265.07L677.28,269.57L682.15,268.31L687.02,265.79L691.89,267.05L696.77,274.06L701.64,268.13L706.51,274.06L711.38,274.6L716.26,278.56L721.13,276.04L726,278.38" style="vector-effect: none; fill: none; stroke: rgb(255, 165, 0); stroke-opacity: 1; stroke-width: 2px; opacity: 1;"/></g><g class="points"/><g class="text"/></g><g class="trace scatter trace032775" style="stroke-miterlimit: 2; opacity: 1;"><g class="fills"/><g class="errorbars"/><g class="lines"><path class="js-line" d="M0,273.88L4.87,253.02L9.74,260.22L14.62,247.81L19.49,258.78L24.36,253.92L29.23,243.49L34.11,244.93L38.98,243.49L43.85,205.73L48.72,200.34L53.6,199.44L58.47,202.68L63.34,205.55L68.21,199.08L73.09,203.93L77.96,199.8L82.83,192.79L87.7,193.5L92.58,194.94L97.45,192.79L107.19,196.2L112.07,195.84L116.94,196.92L121.81,189.19L126.68,187.93L131.56,187.57L136.43,188.11L141.3,186.31L146.17,187.75L151.05,183.43L155.92,187.03L160.79,178.94L165.66,181.28L170.54,184.51L185.15,182.18L190.03,187.21L194.9,190.45L199.77,189.91L209.52,191.89L214.39,187.93L219.26,184.87L224.13,192.43L229.01,187.39L233.88,184.51L238.75,186.49L243.62,182.72L253.37,181.28L258.24,179.48L263.11,182.36L267.99,181.1L272.86,183.97L277.73,181.82L282.6,179.84L287.48,181.64L292.35,182.36L297.22,180.74L302.09,179.12L306.97,181.82L311.84,182L316.71,180.74L321.58,179.48L326.46,176.06L331.33,180.38L336.2,182.36L345.95,178.04L350.82,181.1L355.69,178.58L360.56,177.68L375.18,184.33L380.05,183.43L384.93,180.38L389.8,179.84L394.67,182.54L399.54,180.38L404.42,177.68L409.29,177.5L414.16,176.96L419.03,179.84L423.91,178.58L428.78,180.38L433.65,177.68L438.52,180.56L443.4,184.69L448.27,180.92L453.14,181.82L458.01,183.79L467.76,180.74L472.63,180.74L477.5,178.58L482.38,178.94L487.25,178.4L492.12,176.6L501.87,181.64L506.74,184.15L511.61,185.23L516.48,182.36L521.36,181.28L526.23,185.95L531.1,182.18L535.97,181.28L540.85,181.64L545.72,179.3L550.59,176.6L555.46,182.18L560.34,184.15L565.21,184.51L570.08,182.54L574.95,185.41L584.7,181.64L589.57,183.97L594.44,180.38L599.32,183.97L604.19,183.61L609.06,182L613.93,182.18L618.81,181.28L623.68,180.92L628.55,183.79L633.42,179.66L638.3,184.15L648.04,179.84L652.91,183.25L657.79,185.05L662.66,185.77L667.53,180.02L672.4,182.36L677.28,183.61L682.15,181.46L687.02,181.64L691.89,180.2L696.77,186.31L701.64,179.66L706.51,181.64L711.38,182L716.26,186.49L721.13,189.01L726,188.65" style="vector-effect: none; fill: none; stroke: rgb(128, 0, 128); stroke-opacity: 1; stroke-width: 2px; opacity: 1;"/></g><g class="points"/><g class="text"/></g><g class="trace scatter trace626a12" style="stroke-miterlimit: 2; opacity: 1;"><g class="fills"/><g class="errorbars"/><g class="lines"><path class="js-line" d="M0,289.17L4.87,259.32L9.74,256.98L14.62,260.4L19.49,259.14L24.36,251.05L29.23,246.55L34.11,251.59L38.98,249.79L43.85,223.53L48.72,212.92L53.6,216.88L58.47,225.33L63.34,219.22L68.21,225.87L73.09,215.08L77.96,213.82L82.83,208.43L87.7,210.59L102.32,215.62L107.19,214.36L112.07,214.54L116.94,217.6L126.68,206.45L131.56,205.37L136.43,215.62L141.3,214.54L146.17,214.18L151.05,217.24L160.79,204.83L165.66,203.57L170.54,209.87L175.41,210.23L180.28,209.87L185.15,215.62L194.9,221.2L199.77,222.46L204.64,217.42L209.52,216.52L214.39,214L219.26,210.05L224.13,210.59L229.01,208.61L233.88,210.05L238.75,210.23L243.62,210.23L248.5,207.71L258.24,200.52L263.11,200.52L267.99,197.28L272.86,197.64L277.73,199.44L282.6,212.03L287.48,198.36L292.35,200.16L297.22,203.03L302.09,207.53L306.97,205.91L311.84,209.33L316.71,210.05L321.58,205.01L326.46,204.29L331.33,201.6L336.2,208.43L341.07,207.17L345.95,200.7L350.82,198.54L355.69,198L360.56,201.06L365.44,206.45L370.31,202.5L375.18,202.86L380.05,198.9L384.93,208.43L389.8,204.11L394.67,205.19L399.54,204.83L404.42,202.86L409.29,207.53L414.16,204.83L419.03,208.97L423.91,204.83L428.78,205.01L433.65,206.09L438.52,205.55L443.4,210.95L448.27,212.92L453.14,211.85L458.01,209.15L462.89,204.11L467.76,203.39L472.63,207.89L477.5,201.42L482.38,202.5L487.25,209.15L492.12,206.81L496.99,208.43L501.87,211.49L506.74,219.22L516.48,221.74L521.36,213.28L526.23,218.32L531.1,208.79L535.97,213.46L540.85,208.79L545.72,209.15L550.59,208.25L555.46,211.67L560.34,216.16L570.08,215.62L574.95,217.42L579.83,214.36L584.7,210.05L589.57,213.28L594.44,210.41L599.32,203.75L604.19,206.99L609.06,208.07L613.93,214.54L618.81,214L623.68,215.98L628.55,208.07L633.42,212.21L638.3,217.6L643.17,209.33L648.04,205.73L652.91,214.9L657.79,215.08L662.66,209.69L667.53,206.99L672.4,205.37L677.28,209.33L682.15,206.27L687.02,203.75L691.89,205.19L696.77,210.23L701.64,203.93L706.51,209.51L711.38,210.77L716.26,222.1L721.13,215.44L726,213.64" style="vector-effect: none; fill: none; stroke: rgb(255, 192, 203); stroke-opacity: 1; stroke-width: 2px; opacity: 1;"/></g><g class="points"/><g class="text"/></g><g class="trace scatter trace7e244b" style="stroke-miterlimit: 2; opacity: 1;"><g class="fills"/><g class="errorbars"/><g class="lines"><path class="js-line" d="M0,353.9L4.87,313.98L9.74,256.62L14.62,214.18L19.49,228.39L24.36,220.48L29.23,209.69L34.11,231.09L38.98,231.09L43.85,242.24L48.72,239.36L53.6,240.8L58.47,246.55L68.21,245.11L73.09,257.88L77.96,240.98L82.83,233.06L87.7,234.86L92.58,234.14L97.45,229.65L102.32,229.65L107.19,228.03L112.07,227.67L116.94,230.91L121.81,223.89L126.68,225.69L131.56,228.75L136.43,226.59L141.3,221.2L146.17,224.97L151.05,218.32L155.92,227.31L160.79,215.98L170.54,225.51L175.41,227.13L180.28,226.41L185.15,227.49L190.03,226.23L194.9,230.01L199.77,229.29L204.64,232.53L209.52,232.53L214.39,237.92L219.26,225.51L224.13,230.73L233.88,226.05L238.75,229.83L243.62,227.67L248.5,227.31L253.37,224.07L258.24,225.69L263.11,225.69L267.99,222.28L272.86,230.55L277.73,226.77L282.6,224.07L287.48,226.23L292.35,228.93L297.22,228.03L302.09,226.59L306.97,230.01L311.84,229.65L316.71,228.03L321.58,230.55L326.46,224.97L336.2,230.73L341.07,228.03L345.95,224.97L350.82,226.95L355.69,226.59L360.56,225.15L365.44,220.84L370.31,221.2L375.18,226.77L380.05,226.41L384.93,229.47L389.8,228.39L394.67,231.99L399.54,227.85L404.42,223.35L409.29,221.38L414.16,220.3L419.03,225.69L423.91,223.35L428.78,221.92L433.65,220.12L438.52,220.12L443.4,223.35L448.27,221.38L462.89,223.35L467.76,222.64L472.63,221.2L477.5,218.5L482.38,219.94L487.25,222.28L492.12,221.74L496.99,219.94L501.87,225.69L506.74,222.64L511.61,222.81L516.48,221.2L521.36,219.4L526.23,221.38L535.97,224.79L540.85,221.02L545.72,221.02L550.59,221.92L555.46,225.87L560.34,226.41L565.21,226.95L570.08,225.51L574.95,231.63L579.83,228.93L584.7,228.21L589.57,231.09L594.44,222.64L599.32,229.11L604.19,233.24L609.06,229.83L618.81,228.03L623.68,229.47L628.55,229.65L633.42,226.77L643.17,226.77L648.04,225.51L662.66,225.51L667.53,221.2L672.4,222.46L677.28,222.28L691.89,219.22L696.77,228.03L701.64,220.84L706.51,223.17L711.38,223.89L716.26,223.53L726,230.91" style="vector-effect: none; fill: none; stroke: rgb(165, 42, 42); stroke-opacity: 1; stroke-width: 2px; opacity: 1;"/></g><g class="points"/><g class="text"/></g><g class="trace scatter trace24bf80" style="stroke-miterlimit: 2; opacity: 1;"><g class="fills"/><g class="errorbars"/><g class="lines"><path class="js-line" d="M0,376.2L4.87,328.73L9.74,254.28L14.62,230.55L19.49,231.27L24.36,219.76L29.23,215.26L34.11,236.66L38.98,235.76L43.85,266.15L48.72,257.7L53.6,263.09L58.47,276.22L63.34,267.23L68.21,276.58L73.09,275.68L77.96,260.94L82.83,254.28L87.7,256.62L92.58,254.46L97.45,255.9L107.19,252.31L112.07,250.69L116.94,256.26L121.81,250.87L126.68,249.97L131.56,253.74L136.43,258.42L141.3,253.2L146.17,256.62L151.05,255.36L155.92,256.08L160.79,247.45L165.66,247.27L170.54,254.28L175.41,258.06L180.28,258.6L185.15,266.87L190.03,262.73L194.9,266.33L199.77,265.61L204.64,263.81L209.52,263.99L214.39,269.03L219.26,256.44L224.13,254.1L229.01,254.64L233.88,255L238.75,257.16L243.62,259.68L248.5,259.14L253.37,253.2L258.24,251.59L263.11,249.07L267.99,244.75L272.86,250.33L277.73,249.79L282.6,260.04L287.48,248.71L297.22,254.82L302.09,260.94L311.84,264.35L316.71,263.27L321.58,262.55L326.46,260.58L331.33,253.92L336.2,264.53L341.07,260.58L345.95,252.48L350.82,249.97L355.69,252.84L365.44,252.13L370.31,245.83L375.18,249.25L380.05,246.91L384.93,261.66L389.8,258.06L394.67,257.34L399.54,254.28L404.42,251.77L409.29,254.82L414.16,251.23L419.03,260.58L428.78,248.71L433.65,250.51L438.52,246.73L443.4,252.31L448.27,257.7L453.14,256.26L458.01,253.2L462.89,248.89L467.76,249.43L472.63,252.66L477.5,244.93L482.38,246.37L487.25,255.36L492.12,252.48L496.99,250.87L501.87,257.34L506.74,260.04L511.61,260.58L516.48,263.63L521.36,256.44L526.23,258.24L531.1,253.2L535.97,260.94L540.85,254.1L550.59,258.96L555.46,261.48L560.34,264.17L565.21,263.09L570.08,263.45L574.95,268.13L579.83,264.71L584.7,262.91L589.57,266.15L594.44,258.42L599.32,255L604.19,260.76L609.06,261.66L613.93,265.43L618.81,264.71L623.68,269.75L628.55,260.4L633.42,264.35L638.3,265.97L643.17,260.04L648.04,257.52L652.91,261.12L657.79,260.22L662.66,253.38L672.4,248.17L677.28,253.02L682.15,251.77L687.02,249.07L691.89,250.33L696.77,258.06L701.64,251.59L706.51,258.24L711.38,258.78L716.26,262.73L721.13,260.04L726,263.09" style="vector-effect: none; fill: none; stroke: rgb(128, 128, 128); stroke-opacity: 1; stroke-width: 2px; opacity: 1;"/></g><g class="points"/><g class="text"/></g></g></g><g class="overplot"/><path class="xlines-above crisp" d="M0,0" style="fill: none;"/><path class="ylines-above crisp" d="M0,0" style="fill: none;"/><g class="overlines-above"/><g class="xaxislayer-above"><g class="xtick"><text text-anchor="middle" x="0" y="509" transform="translate(235.57999999999998,0)" style="font-family: 'Open Sans', verdana, arial, sans-serif; font-size: 12px; fill: rgb(42, 63, 95); fill-opacity: 1; white-space: pre; opacity: 1;">20</text></g><g class="xtick"><text text-anchor="middle" x="0" y="509" style="font-family: 'Open Sans', verdana, arial, sans-serif; font-size: 12px; fill: rgb(42, 63, 95); fill-opacity: 1; white-space: pre; opacity: 1;" transform="translate(333.03,0)">40</text></g><g class="xtick"><text text-anchor="middle" x="0" y="509" style="font-family: 'Open Sans', verdana, arial, sans-serif; font-size: 12px; fill: rgb(42, 63, 95); fill-opacity: 1; white-space: pre; opacity: 1;" transform="translate(430.48,0)">60</text></g><g class="xtick"><text text-anchor="middle" x="0" y="509" style="font-family: 'Open Sans', verdana, arial, sans-serif; font-size: 12px; fill: rgb(42, 63, 95); fill-opacity: 1; white-space: pre; opacity: 1;" transform="translate(527.9300000000001,0)">80</text></g><g class="xtick"><text text-anchor="middle" x="0" y="509" style="font-family: 'Open Sans', verdana, arial, sans-serif; font-size: 12px; fill: rgb(42, 63, 95); fill-opacity: 1; white-space: pre; opacity: 1;" transform="translate(625.38,0)">100</text></g><g class="xtick"><text text-anchor="middle" x="0" y="509" style="font-family: 'Open Sans', verdana, arial, sans-serif; font-size: 12px; fill: rgb(42, 63, 95); fill-opacity: 1; white-space: pre; opacity: 1;" transform="translate(722.83,0)">120</text></g><g class="xtick"><text text-anchor="middle" x="0" y="509" style="font-family: 'Open Sans', verdana, arial, sans-serif; font-size: 12px; fill: rgb(42, 63, 95); fill-opacity: 1; white-space: pre; opacity: 1;" transform="translate(820.28,0)">140</text></g></g><g class="yaxislayer-above"><g class="ytick"><text text-anchor="end" x="142" y="4.199999999999999" transform="translate(0,489.87)" style="font-family: 'Open Sans', verdana, arial, sans-serif; font-size: 12px; fill: rgb(42, 63, 95); fill-opacity: 1; white-space: pre; opacity: 1;">60</text></g><g class="ytick"><text text-anchor="end" x="142" y="4.199999999999999" style="font-family: 'Open Sans', verdana, arial, sans-serif; font-size: 12px; fill: rgb(42, 63, 95); fill-opacity: 1; white-space: pre; opacity: 1;" transform="translate(0,399.96)">65</text></g><g class="ytick"><text text-anchor="end" x="142" y="4.199999999999999" style="font-family: 'Open Sans', verdana, arial, sans-serif; font-size: 12px; fill: rgb(42, 63, 95); fill-opacity: 1; white-space: pre; opacity: 1;" transform="translate(0,310.05)">70</text></g><g class="ytick"><text text-anchor="end" x="142" y="4.199999999999999" style="font-family: 'Open Sans', verdana, arial, sans-serif; font-size: 12px; fill: rgb(42, 63, 95); fill-opacity: 1; white-space: pre; opacity: 1;" transform="translate(0,220.14)">75</text></g><g class="ytick"><text text-anchor="end" x="142" y="4.199999999999999" style="font-family: 'Open Sans', verdana, arial, sans-serif; font-size: 12px; fill: rgb(42, 63, 95); fill-opacity: 1; white-space: pre; opacity: 1;" transform="translate(0,130.23)">80</text></g></g><g class="overaxes-above"/></g></g><g class="polarlayer"/><g class="smithlayer"/><g class="ternarylayer"/><g class="geolayer"/><g class="funnelarealayer"/><g class="pielayer"/><g class="iciclelayer"/><g class="treemaplayer"/><g class="sunburstlayer"/><g class="glimages"/><defs id="topdefs-9f3cf1"><g class="clips"/><clipPath id="legend9f3cf1"><rect width="128" height="162" x="0" y="0"/></clipPath></defs><g class="layer-above"><g class="imagelayer"/><g class="shapelayer"/></g><g class="infolayer"><g class="legend" pointer-events="all" transform="translate(883.52,100)"><rect class="bg" shape-rendering="crispEdges" width="128" height="162" x="0" y="0" style="stroke: rgb(68, 68, 68); stroke-opacity: 1; fill: rgb(255, 255, 255); fill-opacity: 1; stroke-width: 0px;"/><g class="scrollbox" transform="" clip-path="url(#legend9f3cf1)"><g class="groups"><g class="traces" transform="translate(0,14.5)" style="opacity: 1;"><text class="legendtext" text-anchor="start" x="40" y="4.680000000000001" style="font-family: 'Open Sans', verdana, arial, sans-serif; font-size: 12px; fill: rgb(42, 63, 95); fill-opacity: 1; white-space: pre;">Train Accuracy</text><g class="layers" style="opacity: 1;"><g class="legendfill"/><g class="legendlines"><path class="js-line" d="M5,0h30" style="fill: none; stroke: rgb(255, 0, 0); stroke-opacity: 1; stroke-width: 2px;"/></g><g class="legendsymbols"><g class="legendpoints"/></g></g><rect class="legendtoggle" x="0" y="-9.5" width="122.71875" height="19" style="fill: rgb(0, 0, 0); fill-opacity: 0;"/></g><g class="traces" transform="translate(0,33.5)" style="opacity: 1;"><text class="legendtext" text-anchor="start" x="40" y="4.680000000000001" style="font-family: 'Open Sans', verdana, arial, sans-serif; font-size: 12px; fill: rgb(42, 63, 95); fill-opacity: 1; white-space: pre;">Test Accuracy</text><g class="layers" style="opacity: 1;"><g class="legendfill"/><g class="legendlines"><path class="js-line" d="M5,0h30" style="fill: none; stroke: rgb(0, 0, 255); stroke-opacity: 1; stroke-width: 2px;"/></g><g class="legendsymbols"><g class="legendpoints"/></g></g><rect class="legendtoggle" x="0" y="-9.5" width="122.71875" height="19" style="fill: rgb(0, 0, 0); fill-opacity: 0;"/></g><g class="traces" transform="translate(0,52.5)" style="opacity: 1;"><text class="legendtext" text-anchor="start" x="40" y="4.680000000000001" style="font-family: 'Open Sans', verdana, arial, sans-serif; font-size: 12px; fill: rgb(42, 63, 95); fill-opacity: 1; white-space: pre;">Train Precision</text><g class="layers" style="opacity: 1;"><g class="legendfill"/><g class="legendlines"><path class="js-line" d="M5,0h30" style="fill: none; stroke: rgb(0, 128, 0); stroke-opacity: 1; stroke-width: 2px;"/></g><g class="legendsymbols"><g class="legendpoints"/></g></g><rect class="legendtoggle" x="0" y="-9.5" width="122.71875" height="19" style="fill: rgb(0, 0, 0); fill-opacity: 0;"/></g><g class="traces" transform="translate(0,71.5)" style="opacity: 1;"><text class="legendtext" text-anchor="start" x="40" y="4.680000000000001" style="font-family: 'Open Sans', verdana, arial, sans-serif; font-size: 12px; fill: rgb(42, 63, 95); fill-opacity: 1; white-space: pre;">Test Precision</text><g class="layers" style="opacity: 1;"><g class="legendfill"/><g class="legendlines"><path class="js-line" d="M5,0h30" style="fill: none; stroke: rgb(255, 165, 0); stroke-opacity: 1; stroke-width: 2px;"/></g><g class="legendsymbols"><g class="legendpoints"/></g></g><rect class="legendtoggle" x="0" y="-9.5" width="122.71875" height="19" style="fill: rgb(0, 0, 0); fill-opacity: 0;"/></g><g class="traces" transform="translate(0,90.5)" style="opacity: 1;"><text class="legendtext" text-anchor="start" x="40" y="4.680000000000001" style="font-family: 'Open Sans', verdana, arial, sans-serif; font-size: 12px; fill: rgb(42, 63, 95); fill-opacity: 1; white-space: pre;">Train Recall</text><g class="layers" style="opacity: 1;"><g class="legendfill"/><g class="legendlines"><path class="js-line" d="M5,0h30" style="fill: none; stroke: rgb(128, 0, 128); stroke-opacity: 1; stroke-width: 2px;"/></g><g class="legendsymbols"><g class="legendpoints"/></g></g><rect class="legendtoggle" x="0" y="-9.5" width="122.71875" height="19" style="fill: rgb(0, 0, 0); fill-opacity: 0;"/></g><g class="traces" transform="translate(0,109.5)" style="opacity: 1;"><text class="legendtext" text-anchor="start" x="40" y="4.680000000000001" style="font-family: 'Open Sans', verdana, arial, sans-serif; font-size: 12px; fill: rgb(42, 63, 95); fill-opacity: 1; white-space: pre;">Test Recall</text><g class="layers" style="opacity: 1;"><g class="legendfill"/><g class="legendlines"><path class="js-line" d="M5,0h30" style="fill: none; stroke: rgb(255, 192, 203); stroke-opacity: 1; stroke-width: 2px;"/></g><g class="legendsymbols"><g class="legendpoints"/></g></g><rect class="legendtoggle" x="0" y="-9.5" width="122.71875" height="19" style="fill: rgb(0, 0, 0); fill-opacity: 0;"/></g><g class="traces" transform="translate(0,128.5)" style="opacity: 1;"><text class="legendtext" text-anchor="start" x="40" y="4.680000000000001" style="font-family: 'Open Sans', verdana, arial, sans-serif; font-size: 12px; fill: rgb(42, 63, 95); fill-opacity: 1; white-space: pre;">Train F1</text><g class="layers" style="opacity: 1;"><g class="legendfill"/><g class="legendlines"><path class="js-line" d="M5,0h30" style="fill: none; stroke: rgb(165, 42, 42); stroke-opacity: 1; stroke-width: 2px;"/></g><g class="legendsymbols"><g class="legendpoints"/></g></g><rect class="legendtoggle" x="0" y="-9.5" width="122.71875" height="19" style="fill: rgb(0, 0, 0); fill-opacity: 0;"/></g><g class="traces" transform="translate(0,147.5)" style="opacity: 1;"><text class="legendtext" text-anchor="start" x="40" y="4.680000000000001" style="font-family: 'Open Sans', verdana, arial, sans-serif; font-size: 12px; fill: rgb(42, 63, 95); fill-opacity: 1; white-space: pre;">Test F1</text><g class="layers" style="opacity: 1;"><g class="legendfill"/><g class="legendlines"><path class="js-line" d="M5,0h30" style="fill: none; stroke: rgb(128, 128, 128); stroke-opacity: 1; stroke-width: 2px;"/></g><g class="legendsymbols"><g class="legendpoints"/></g></g><rect class="legendtoggle" x="0" y="-9.5" width="122.71875" height="19" style="fill: rgb(0, 0, 0); fill-opacity: 0;"/></g></g></g><rect class="scrollbar" rx="20" ry="3" width="0" height="0" x="0" y="0" style="fill: rgb(128, 139, 164); fill-opacity: 1;"/></g><g class="g-gtitle"><text class="gtitle" x="51.2" y="50" text-anchor="start" dy="0em" style="font-family: 'Open Sans', verdana, arial, sans-serif; font-size: 17px; fill: rgb(42, 63, 95); opacity: 1; font-weight: normal; white-space: pre;">Training Metrics - logs/FakeNewsNet-gossipcop_max-vocab=10000_pre=v1_domain_T=150_s=15.log</text></g><g class="g-xtitle"><text class="xtitle" x="506" y="537.3" text-anchor="middle" style="font-family: 'Open Sans', verdana, arial, sans-serif; font-size: 14px; fill: rgb(42, 63, 95); opacity: 1; font-weight: normal; white-space: pre;">Epoch</text></g><g class="g-ytitle"><text class="ytitle" transform="rotate(-90,103.965625,298)" x="103.965625" y="298" text-anchor="middle" style="font-family: 'Open Sans', verdana, arial, sans-serif; font-size: 14px; fill: rgb(42, 63, 95); opacity: 1; font-weight: normal; white-space: pre;">Metric Score</text></g></g><g class="menulayer"><g class="updatemenu-container" style="cursor: pointer;"><g class="updatemenu-header-group" transform="translate(12,60)"><g class="updatemenu-header" transform="translate(1,1)" style="pointer-events: all;"><rect class="updatemenu-item-rect" rx="2" ry="2" shape-rendering="crispEdges" x="0" y="0" width="167" height="33" style="stroke: rgb(190, 200, 217); stroke-opacity: 1; fill: rgb(255, 255, 255); fill-opacity: 1; stroke-width: 1px;"/><text class="updatemenu-item-text" text-anchor="start" data-notex="1" x="12" y="19.5" style="font-family: 'Open Sans', verdana, arial, sans-serif; font-size: 12px; fill: rgb(42, 63, 95); fill-opacity: 1; white-space: pre;">All</text></g><text class="updatemenu-header-arrow" text-anchor="end" x="163" y="19.5" style="font-family: 'Open Sans', verdana, arial, sans-serif; font-size: 12px; fill: rgb(42, 63, 95); fill-opacity: 1;">▼</text></g><g class="updatemenu-dropdown-button-group" updatemenu-active-index="-1" style="pointer-events: all;"><rect class="scrollbox-bg" opacity="0" x="0" y="0" width="0" height="0" style="pointer-events: all;"/></g></g></g></svg>