<svg class="main-svg" xmlns="http://www.w3.org/2000/svg" xmlns:xlink="http://www.w3.org/1999/xlink" width="1024" height="576" style="" viewBox="0 0 1024 576"><rect x="0" y="0" width="1024" height="576" style="fill: rgb(255, 255, 255); fill-opacity: 1;"/><defs id="defs-34071d"><g class="clips"><clipPath id="clip34071dxyplot" class="plotclip"><rect width="734" height="396"/></clipPath><clipPath class="axesclip" id="clip34071dx"><rect x="135" y="0" width="734" height="576"/></clipPath><clipPath class="axesclip" id="clip34071dy"><rect x="0" y="100" width="1024" height="396"/></clipPath><clipPath class="axesclip" id="clip34071dxy"><rect x="135" y="100" width="734" height="396"/></clipPath></g><g class="gradients"/><g class="patterns"/></defs><g class="bglayer"><rect class="bg" x="135" y="100" width="734" height="396" style="fill: rgb(229, 236, 246); fill-opacity: 1; stroke-width: 0;"/></g><g class="layer-below"><g class="imagelayer"/><g class="shapelayer"/></g><g class="cartesianlayer"><g class="subplot xy"><g class="layer-subplot"><g class="shapelayer"/><g class="imagelayer"/></g><g class="minor-gridlayer"><g class="x"/><g class="y"/></g><g class="gridlayer"><g class="x"><path class="xgrid crisp" transform="translate(201.73000000000002,0)" d="M0,100v396" style="stroke: rgb(255, 255, 255); stroke-opacity: 1; stroke-width: 1px;"/><path class="xgrid crisp" transform="translate(275.87,0)" d="M0,100v396" style="stroke: rgb(255, 255, 255); stroke-opacity: 1; stroke-width: 1px;"/><path class="xgrid crisp" transform="translate(350.01,0)" d="M0,100v396" style="stroke: rgb(255, 255, 255); stroke-opacity: 1; stroke-width: 1px;"/><path class="xgrid crisp" transform="translate(424.15,0)" d="M0,100v396" style="stroke: rgb(255, 255, 255); stroke-opacity: 1; stroke-width: 1px;"/><path class="xgrid crisp" transform="translate(498.29,0)" d="M0,100v396" style="stroke: rgb(255, 255, 255); stroke-opacity: 1; stroke-width: 1px;"/><path class="xgrid crisp" transform="translate(572.4300000000001,0)" d="M0,100v396" style="stroke: rgb(255, 255, 255); stroke-opacity: 1; stroke-width: 1px;"/><path class="xgrid crisp" transform="translate(646.5799999999999,0)" d="M0,100v396" style="stroke: rgb(255, 255, 255); stroke-opacity: 1; stroke-width: 1px;"/><path class="xgrid crisp" transform="translate(720.72,0)" d="M0,100v396" style="stroke: rgb(255, 255, 255); stroke-opacity: 1; stroke-width: 1px;"/><path class="xgrid crisp" transform="translate(794.86,0)" d="M0,100v396" style="stroke: rgb(255, 255, 255); stroke-opacity: 1; stroke-width: 1px;"/></g><g class="y"><path class="ygrid crisp" transform="translate(0,489.29)" d="M135,0h734" style="stroke: rgb(255, 255, 255); stroke-opacity: 1; stroke-width: 1px;"/><path class="ygrid crisp" transform="translate(0,431.1)" d="M135,0h734" style="stroke: rgb(255, 255, 255); stroke-opacity: 1; stroke-width: 1px;"/><path class="ygrid crisp" transform="translate(0,372.92)" d="M135,0h734" style="stroke: rgb(255, 255, 255); stroke-opacity: 1; stroke-width: 1px;"/><path class="ygrid crisp" transform="translate(0,314.73)" d="M135,0h734" style="stroke: rgb(255, 255, 255); stroke-opacity: 1; stroke-width: 1px;"/><path class="ygrid crisp" transform="translate(0,256.53999999999996)" d="M135,0h734" style="stroke: rgb(255, 255, 255); stroke-opacity: 1; stroke-width: 1px;"/><path class="ygrid crisp" transform="translate(0,198.35)" d="M135,0h734" style="stroke: rgb(255, 255, 255); stroke-opacity: 1; stroke-width: 1px;"/><path class="ygrid crisp" transform="translate(0,140.17000000000002)" d="M135,0h734" style="stroke: rgb(255, 255, 255); stroke-opacity: 1; stroke-width: 1px;"/></g></g><g class="zerolinelayer"/><path class="xlines-below"/><path class="ylines-below"/><g class="overlines-below"/><g class="xaxislayer-below"/><g class="yaxislayer-below"/><g class="overaxes-below"/><g class="plot" transform="translate(135,100)" clip-path="url(#clip34071dxyplot)"><g class="scatterlayer mlayer"><g class="trace scatter trace7970fd" style="stroke-miterlimit: 2; opacity: 1;"><g class="fills"/><g class="errorbars"/><g class="lines"><path class="js-line" d="M0,220.55L7.41,92.83L14.83,127.16L22.24,109.41L29.66,171.09L37.07,141.99L44.48,146.07L51.9,141.41L59.31,101.26L66.73,92.53L74.14,70.71L81.56,89.92L88.97,75.37L96.38,122.79L103.8,112.03L111.21,120.17L118.63,124.83L126.04,127.16L133.45,144.9L140.87,111.74L148.28,106.79L155.7,109.7L163.11,71.3L170.53,66.35L177.94,84.1L185.35,73.91L192.77,41.91L200.18,37.55L207.6,51.22L215.01,74.21L222.42,66.06L229.84,43.95L237.25,45.4L244.67,49.18L252.08,27.66L259.49,79.15L266.91,89.04L274.32,81.77L281.74,69.26L289.15,71.3L296.57,80.02L303.98,89.92L311.39,89.63L318.81,93.99L326.22,93.99L333.64,85.26L341.05,73.33L348.46,91.08L355.88,99.81L363.29,96.61L370.71,62.28L378.12,79.73L385.54,69.55L392.95,74.5L400.36,80.61L407.78,79.73L415.19,85.84L422.61,74.79L430.02,84.1L437.43,89.33L444.85,75.37L452.26,80.61L459.68,83.52L474.51,81.48L481.92,73.33L496.75,120.46L504.16,107.66L511.58,100.97L518.99,97.77L526.4,107.95L533.82,102.14L541.23,102.43L548.65,75.08L556.06,68.97L563.47,74.79L570.89,69.84L578.3,72.46L585.72,69.55L593.13,68.68L600.55,63.73L607.96,68.1L615.37,78.57L622.79,77.41L630.2,67.51L637.62,73.62L645.03,64.9L652.44,58.2L659.86,55.29L667.27,59.37L674.69,45.69L682.1,40.17L696.93,19.8L704.34,60.53L711.76,59.37L719.17,70.42L726.59,85.84L734,80.61" style="vector-effect: none; fill: none; stroke: rgb(255, 0, 0); stroke-opacity: 1; stroke-width: 2px; opacity: 1;"/></g><g class="points"/><g class="text"/></g><g class="trace scatter trace5e7988" style="stroke-miterlimit: 2; opacity: 1;"><g class="fills"/><g class="errorbars"/><g class="lines"><path class="js-line" d="M0,220.84L7.41,131.81L14.83,134.43L22.24,112.9L29.66,189.42L37.07,158.29L44.48,159.45L51.9,160.61L59.31,131.23L66.73,123.67L74.14,91.08L81.56,105.63L88.97,94.28L96.38,134.43L103.8,109.99L111.21,134.43L118.63,131.23L126.04,123.67L133.45,153.92L140.87,124.83L148.28,118.14L155.7,108.54L163.11,62.28L170.53,52.97L177.94,74.79L185.35,73.62L192.77,39.58L200.18,32.89L207.6,53.55L215.01,82.35L222.42,66.06L229.84,52.09L237.25,52.09L244.67,52.97L252.08,44.82L259.49,90.5L266.91,101.84L274.32,97.48L281.74,65.48L289.15,87.88L296.57,91.66L311.39,102.43L318.81,104.75L326.22,99.81L333.64,99.23L341.05,92.24L348.46,96.03L355.88,105.63L363.29,99.81L370.71,77.99L378.12,99.23L385.54,86.13L392.95,91.08L400.36,100.97L407.78,106.21L415.19,106.79L422.61,99.81L430.02,103.01L437.43,110.57L444.85,84.1L452.26,81.19L459.68,95.44L467.09,93.7L474.51,86.13L481.92,87.3L489.33,119.3L496.75,145.49L504.16,132.98L511.58,122.5L518.99,113.77L526.4,136.18L533.82,124.25L541.23,121.92L556.06,80.32L563.47,85.55L570.89,90.5L578.3,84.68L585.72,87.88L593.13,81.19L600.55,87.3L607.96,91.08L615.37,101.84L622.79,96.61L630.2,90.5L637.62,91.66L645.03,77.99L652.44,80.32L659.86,80.32L667.27,78.57L674.69,62.86L682.1,58.49L689.52,39.58L696.93,37.84L704.34,86.13L711.76,79.73L719.17,90.5L726.59,106.21L734,99.23" style="vector-effect: none; fill: none; stroke: rgb(0, 0, 255); stroke-opacity: 1; stroke-width: 2px; opacity: 1;"/></g><g class="points"/><g class="text"/></g><g class="trace scatter trace36fcc3" style="stroke-miterlimit: 2; opacity: 1;"><g class="fills"/><g class="errorbars"/><g class="lines"><path class="js-line" d="M0,376.2L7.41,289.5L14.83,313.07L22.24,296.77L29.66,318.01L37.07,303.47L44.48,303.76L51.9,300.26L59.31,272.92L66.73,268.55L74.14,253.42L81.56,268.26L88.97,255.75L96.38,282.81L103.8,275.54L111.21,278.44L118.63,282.81L126.04,279.03L133.45,283.1L140.87,267.97L148.28,264.19L155.7,268.26L163.11,245.86L170.53,244.7L177.94,251.1L185.35,244.11L192.77,224.33L200.18,220.26L207.6,231.6L215.01,244.99L222.42,240.04L229.84,225.49L237.25,227.24L244.67,229.86L252.08,211.53L259.49,235.09L266.91,241.5L281.74,236.55L289.15,238.59L296.57,246.73L303.98,252.26L311.39,253.13L318.81,258.08L326.22,259.53L333.64,252.84L341.05,241.2L348.46,249.93L355.88,254.88L363.29,256.33L370.71,231.31L378.12,241.5L385.54,235.68L392.95,240.91L400.36,244.4L407.78,238.88L415.19,244.7L422.61,240.04L430.02,244.11L437.43,242.66L444.85,240.91L452.26,244.7L459.68,240.62L467.09,238.88L474.51,237.42L481.92,230.73L489.33,240.04L496.75,253.42L511.58,244.99L518.99,239.75L526.4,248.77L533.82,245.28L541.23,243.82L548.65,229.86L556.06,231.89L563.47,231.31L570.89,228.11L578.3,228.69L585.72,227.53L593.13,225.2L600.55,222L607.96,223.46L615.37,232.19L622.79,231.89L630.2,228.4L637.62,233.35L645.03,225.49L652.44,220.84L659.86,218.51L667.27,221.71L674.69,211.82L682.1,207.46L689.52,202.22L696.93,192.62L704.34,222.29L711.76,220.26L719.17,228.98L726.59,241.79L734,238.3" style="vector-effect: none; fill: none; stroke: rgb(0, 128, 0); stroke-opacity: 1; stroke-width: 2px; opacity: 1;"/></g><g class="points"/><g class="text"/></g><g class="trace scatter traceee1829" style="stroke-miterlimit: 2; opacity: 1;"><g class="fills"/><g class="errorbars"/><g class="lines"><path class="js-line" d="M0,370.38L7.41,327.32L14.83,323.54L22.24,295.03L29.66,330.23L37.07,310.45L44.48,308.7L51.9,313.07L59.31,295.32L66.73,293.28L74.14,268.55L81.56,274.66L88.97,268.84L96.38,286.3L103.8,267.1L111.21,283.39L118.63,281.06L126.04,271.46L133.45,288.05L140.87,274.37L148.28,268.84L155.7,263.9L163.11,233.35L170.53,226.08L177.94,238.88L185.35,242.08L192.77,220.26L200.18,212.69L207.6,229.86L215.01,248.48L222.42,236.26L229.84,229.86L237.25,231.6L244.67,229.28L252.08,224.91L259.49,246.44L266.91,249.64L274.32,249.93L281.74,230.73L289.15,251.68L296.57,252.26L303.98,252.84L311.39,263.9L318.81,266.81L326.22,261.57L333.64,261.86L341.05,253.13L348.46,249.64L355.88,254.01L363.29,252.55L370.71,240.33L378.12,256.33L385.54,247.61L392.95,252.84L400.36,259.24L407.78,261.57L415.19,262.73L422.61,258.66L430.02,259.24L437.43,258.95L444.85,243.24L452.26,240.62L459.68,251.1L467.09,249.06L474.51,241.5L481.92,245.86L489.33,260.7L496.75,272.04L504.16,268.26L511.58,261.86L518.99,250.51L526.4,270.88L533.82,259.82L541.23,256.62L548.65,251.97L556.06,240.33L563.47,238.3L570.89,247.61L578.3,236.26L585.72,239.75L593.13,232.77L600.55,242.37L607.96,242.37L615.37,251.1L622.79,244.99L630.2,241.79L637.62,243.24L645.03,234.22L652.44,236.84L659.86,239.46L667.27,236.26L674.69,227.24L682.1,222.88L689.52,209.78L696.93,209.2L704.34,244.4L711.76,235.68L726.59,253.42L734,250.51" style="vector-effect: none; fill: none; stroke: rgb(255, 165, 0); stroke-opacity: 1; stroke-width: 2px; opacity: 1;"/></g><g class="points"/><g class="text"/></g><g class="trace scatter trace55dc61" style="stroke-miterlimit: 2; opacity: 1;"><g class="fills"/><g class="errorbars"/><g class="lines"><path class="js-line" d="M0,255.46L7.41,207.16L14.83,212.11L22.24,197.85L29.66,178.36L37.07,173.71L44.48,170.51L51.9,167.6L59.31,151.01L66.73,151.89L74.14,147.81L81.56,155.67L88.97,146.07L96.38,148.39L103.8,144.03L111.21,141.41L118.63,146.65L126.04,135.88L133.45,129.77L140.87,127.45L148.28,123.96L155.7,130.36L163.11,126.87L170.53,131.52L177.94,121.05L185.35,118.14L192.77,120.17L200.18,117.85L207.6,122.79L215.01,119.88L222.42,119.3L229.84,119.59L237.25,122.5L244.67,122.21L252.08,113.19L259.49,89.33L266.91,92.53L274.32,95.15L281.74,105.92L289.15,108.25L296.57,115.81L303.98,116.1L311.39,119.01L318.81,124.83L326.22,128.61L333.64,123.96L341.05,111.45L348.46,109.7L355.88,111.45L363.29,117.56L370.71,102.43L385.54,103.59L392.95,109.41L400.36,109.99L407.78,97.19L415.19,103.3L422.61,106.5L430.02,103.88L437.43,94.86L444.85,108.54L452.26,110.57L459.68,96.9L467.09,93.41L474.51,91.66L481.92,85.55L489.33,81.48L496.75,89.04L504.16,90.79L511.58,88.17L518.99,80.02L526.4,89.63L533.82,87.88L541.23,84.39L548.65,81.77L556.06,94.28L563.47,85.55L570.89,84.1L578.3,82.35L585.72,83.22L593.13,78.57L600.55,77.41L607.96,75.08L615.37,83.22L622.79,84.1L630.2,87.59L637.62,91.66L645.03,84.39L652.44,82.06L659.86,80.61L667.27,82.64L674.69,77.7L682.1,74.79L689.52,78.57L696.93,71.3L704.34,82.35L711.76,79.15L719.17,85.84L726.59,96.9L734,94.86" style="vector-effect: none; fill: none; stroke: rgb(128, 0, 128); stroke-opacity: 1; stroke-width: 2px; opacity: 1;"/></g><g class="points"/><g class="text"/></g><g class="trace scatter trace49e298" style="stroke-miterlimit: 2; opacity: 1;"><g class="fills"/><g class="errorbars"/><g class="lines"><path class="js-line" d="M0,242.37L7.41,237.42L14.83,224.62L22.24,185.93L29.66,187.38L37.07,171.67L44.48,167.31L51.9,175.16L59.31,164.69L66.73,168.47L74.14,151.89L81.56,146.94L88.97,147.81L96.38,142.29L103.8,125.12L111.21,136.18L118.63,134.14L126.04,120.76L133.45,130.36L148.28,120.46L155.7,119.3L163.11,105.34L170.53,100.97L177.94,100.97L185.35,110.28L192.77,109.12L200.18,101.26L207.6,110.57L215.01,114.36L222.42,107.08L229.84,113.19L237.25,117.56L244.67,110.28L252.08,113.19L259.49,99.52L266.91,95.15L274.32,99.81L281.74,93.99L289.15,114.94L296.57,111.45L303.98,107.08L311.39,125.99L318.81,129.48L326.22,123.67L333.64,124.83L348.46,100.68L355.88,100.97L363.29,103.3L370.71,100.39L378.12,112.03L385.54,107.66L392.95,113.48L400.36,116.68L407.78,116.68L415.19,118.72L430.02,114.65L437.43,106.79L444.85,99.52L452.26,97.48L459.68,104.46L467.09,102.43L474.51,93.12L481.92,101.55L489.33,102.43L496.75,105.63L504.16,106.5L511.58,102.14L518.99,85.84L526.4,109.41L533.82,96.32L541.23,92.24L548.65,100.1L556.06,97.19L563.47,86.72L570.89,102.14L578.3,82.93L585.72,87.59L593.13,78.86L600.55,93.99L607.96,89.63L615.37,98.35L622.79,89.92L630.2,89.33L637.62,91.08L645.03,86.13L652.44,89.33L659.86,95.44L667.27,89.92L674.69,88.75L689.52,79.44L696.93,80.61L704.34,99.81L711.76,87.3L719.17,96.03L726.59,98.94L734,99.23" style="vector-effect: none; fill: none; stroke: rgb(255, 192, 203); stroke-opacity: 1; stroke-width: 2px; opacity: 1;"/></g><g class="points"/><g class="text"/></g><g class="trace scatter traceef6b13" style="stroke-miterlimit: 2; opacity: 1;"><g class="fills"/><g class="errorbars"/><g class="lines"><path class="js-line" d="M0,358.16L7.41,260.99L14.83,283.68L22.24,266.52L29.66,296.48L37.07,276.12L44.48,277.28L51.9,273.21L59.31,240.91L66.73,235.68L74.14,219.97L81.56,235.39L88.97,222L96.38,253.42L103.8,244.99L111.21,249.06L118.63,254.01L126.04,251.39L133.45,260.7L140.87,238L148.28,233.64L155.7,237.71L163.11,211.53L170.53,210.36L177.94,217.64L185.35,209.49L192.77,189.42L200.18,185.34L207.6,196.69L215.01,210.36L222.42,204.84L229.84,190.58L237.25,192.62L244.67,194.95L252.08,176.91L259.49,201.93L266.91,209.78L281.74,201.35L289.15,203.67L296.57,212.69L303.98,219.38L311.39,220.26L318.81,225.49L326.22,226.95L333.64,219.38L341.05,206.58L348.46,217.64L355.88,224.04L363.29,224.33L370.71,195.53L378.12,207.46L385.54,200.76L392.95,206.29L400.36,210.66L407.78,205.13L415.19,211.53L422.61,205.42L430.02,210.66L437.43,210.66L444.85,206.58L452.26,210.95L459.68,207.46L467.09,205.71L474.51,204.26L481.92,196.4L489.33,210.95L496.75,229.57L504.16,221.71L511.58,216.18L518.99,210.95L526.4,221.42L533.82,216.77L541.23,215.89L548.65,196.11L556.06,196.98L563.47,197.56L570.89,193.49L578.3,194.65L585.72,193.2L593.13,190.58L600.55,186.8L607.96,189.13L615.37,199.31L622.79,198.44L630.2,193.2L637.62,199.02L645.03,190.29L652.44,185.05L659.86,182.43L667.27,185.93L674.69,174.58L689.52,164.4L696.93,154.5L704.34,186.8L711.76,184.47L719.17,194.36L726.59,209.2L734,204.84" style="vector-effect: none; fill: none; stroke: rgb(165, 42, 42); stroke-opacity: 1; stroke-width: 2px; opacity: 1;"/></g><g class="points"/><g class="text"/></g><g class="trace scatter trace8fd05b" style="stroke-miterlimit: 2; opacity: 1;"><g class="fills"/><g class="errorbars"/><g class="lines"><path class="js-line" d="M0,353.8L7.41,299.39L14.83,294.74L22.24,264.19L29.66,312.48L37.07,286.3L44.48,285.43L51.9,289.21L59.31,266.52L66.73,263.32L74.14,235.68L81.56,242.95L88.97,235.97L96.38,259.53L103.8,236.84L111.21,257.21L118.63,254.3L126.04,244.4L133.45,267.68L140.87,247.02L148.28,240.33L155.7,233.93L163.11,197.56L170.53,189.42L177.94,204.26L185.35,207.16L192.77,184.18L200.18,176.33L207.6,194.07L215.01,214.73L222.42,200.76L229.84,194.07L237.25,195.82L244.67,193.49L252.08,189.13L259.49,214.15L266.91,220.26L274.32,218.8L281.74,195.24L289.15,218.51L296.57,219.67L303.98,221.13L311.39,232.48L318.81,235.39L326.22,229.86L333.64,229.86L341.05,220.55L348.46,218.51L355.88,224.91L363.29,222L370.71,206.29L378.12,224.91L385.54,214.44L392.95,219.97L400.36,227.82L407.78,231.31L415.19,232.48L422.61,227.24L430.02,228.4L437.43,230.44L444.85,210.07L452.26,207.16L459.68,219.38L467.09,217.35L474.51,208.91L481.92,212.98L489.33,234.51L496.75,253.42L504.16,245.28L511.58,236.55L518.99,224.91L526.4,248.48L533.82,235.97L541.23,232.77L548.65,222L556.06,206.58L563.47,206L570.89,215.02L578.3,204.26L585.72,208.04L593.13,200.18L600.55,210.07L607.96,210.95L615.37,221.42L622.79,215.02L630.2,210.36L637.62,211.82L645.03,200.76L652.44,203.67L659.86,206L667.27,202.51L674.69,191.45L682.1,186.8L689.52,172.25L696.93,171.38L704.34,211.53L711.76,202.51L726.59,224.33L734,219.97" style="vector-effect: none; fill: none; stroke: rgb(128, 128, 128); stroke-opacity: 1; stroke-width: 2px; opacity: 1;"/></g><g class="points"/><g class="text"/></g></g></g><g class="overplot"/><path class="xlines-above crisp" d="M0,0" style="fill: none;"/><path class="ylines-above crisp" d="M0,0" style="fill: none;"/><g class="overlines-above"/><g class="xaxislayer-above"><g class="xtick"><text text-anchor="middle" x="0" y="509" transform="translate(201.73000000000002,0)" style="font-family: 'Open Sans', verdana, arial, sans-serif; font-size: 12px; fill: rgb(42, 63, 95); fill-opacity: 1; white-space: pre; opacity: 1;">10</text></g><g class="xtick"><text text-anchor="middle" x="0" y="509" style="font-family: 'Open Sans', verdana, arial, sans-serif; font-size: 12px; fill: rgb(42, 63, 95); fill-opacity: 1; white-space: pre; opacity: 1;" transform="translate(275.87,0)">20</text></g><g class="xtick"><text text-anchor="middle" x="0" y="509" style="font-family: 'Open Sans', verdana, arial, sans-serif; font-size: 12px; fill: rgb(42, 63, 95); fill-opacity: 1; white-space: pre; opacity: 1;" transform="translate(350.01,0)">30</text></g><g class="xtick"><text text-anchor="middle" x="0" y="509" style="font-family: 'Open Sans', verdana, arial, sans-serif; font-size: 12px; fill: rgb(42, 63, 95); fill-opacity: 1; white-space: pre; opacity: 1;" transform="translate(424.15,0)">40</text></g><g class="xtick"><text text-anchor="middle" x="0" y="509" style="font-family: 'Open Sans', verdana, arial, sans-serif; font-size: 12px; fill: rgb(42, 63, 95); fill-opacity: 1; white-space: pre; opacity: 1;" transform="translate(498.29,0)">50</text></g><g class="xtick"><text text-anchor="middle" x="0" y="509" style="font-family: 'Open Sans', verdana, arial, sans-serif; font-size: 12px; fill: rgb(42, 63, 95); fill-opacity: 1; white-space: pre; opacity: 1;" transform="translate(572.4300000000001,0)">60</text></g><g class="xtick"><text text-anchor="middle" x="0" y="509" style="font-family: 'Open Sans', verdana, arial, sans-serif; font-size: 12px; fill: rgb(42, 63, 95); fill-opacity: 1; white-space: pre; opacity: 1;" transform="translate(646.5799999999999,0)">70</text></g><g class="xtick"><text text-anchor="middle" x="0" y="509" style="font-family: 'Open Sans', verdana, arial, sans-serif; font-size: 12px; fill: rgb(42, 63, 95); fill-opacity: 1; white-space: pre; opacity: 1;" transform="translate(720.72,0)">80</text></g><g class="xtick"><text text-anchor="middle" x="0" y="509" style="font-family: 'Open Sans', verdana, arial, sans-serif; font-size: 12px; fill: rgb(42, 63, 95); fill-opacity: 1; white-space: pre; opacity: 1;" transform="translate(794.86,0)">90</text></g><g class="xtick"><text text-anchor="middle" x="0" y="509" style="font-family: 'Open Sans', verdana, arial, sans-serif; font-size: 12px; fill: rgb(42, 63, 95); fill-opacity: 1; white-space: pre; opacity: 1;" transform="translate(869,0)">100</text></g></g><g class="yaxislayer-above"><g class="ytick"><text text-anchor="end" x="134" y="4.199999999999999" transform="translate(0,489.29)" style="font-family: 'Open Sans', verdana, arial, sans-serif; font-size: 12px; fill: rgb(42, 63, 95); fill-opacity: 1; white-space: pre; opacity: 1;">66</text></g><g class="ytick"><text text-anchor="end" x="134" y="4.199999999999999" style="font-family: 'Open Sans', verdana, arial, sans-serif; font-size: 12px; fill: rgb(42, 63, 95); fill-opacity: 1; white-space: pre; opacity: 1;" transform="translate(0,431.1)">68</text></g><g class="ytick"><text text-anchor="end" x="134" y="4.199999999999999" style="font-family: 'Open Sans', verdana, arial, sans-serif; font-size: 12px; fill: rgb(42, 63, 95); fill-opacity: 1; white-space: pre; opacity: 1;" transform="translate(0,372.92)">70</text></g><g class="ytick"><text text-anchor="end" x="134" y="4.199999999999999" style="font-family: 'Open Sans', verdana, arial, sans-serif; font-size: 12px; fill: rgb(42, 63, 95); fill-opacity: 1; white-space: pre; opacity: 1;" transform="translate(0,314.73)">72</text></g><g class="ytick"><text text-anchor="end" x="134" y="4.199999999999999" style="font-family: 'Open Sans', verdana, arial, sans-serif; font-size: 12px; fill: rgb(42, 63, 95); fill-opacity: 1; white-space: pre; opacity: 1;" transform="translate(0,256.53999999999996)">74</text></g><g class="ytick"><text text-anchor="end" x="134" y="4.199999999999999" style="font-family: 'Open Sans', verdana, arial, sans-serif; font-size: 12px; fill: rgb(42, 63, 95); fill-opacity: 1; white-space: pre; opacity: 1;" transform="translate(0,198.35)">76</text></g><g class="ytick"><text text-anchor="end" x="134" y="4.199999999999999" style="font-family: 'Open Sans', verdana, arial, sans-serif; font-size: 12px; fill: rgb(42, 63, 95); fill-opacity: 1; white-space: pre; opacity: 1;" transform="translate(0,140.17000000000002)">78</text></g></g><g class="overaxes-above"/></g></g><g class="polarlayer"/><g class="smithlayer"/><g class="ternarylayer"/><g class="geolayer"/><g class="funnelarealayer"/><g class="pielayer"/><g class="iciclelayer"/><g class="treemaplayer"/><g class="sunburstlayer"/><g class="glimages"/><defs id="topdefs-34071d"><g class="clips"/><clipPath id="legend34071d"><rect width="128" height="162" x="0" y="0"/></clipPath></defs><g class="layer-above"><g class="imagelayer"/><g class="shapelayer"/></g><g class="infolayer"><g class="legend" pointer-events="all" transform="translate(883.6800000000001,100)"><rect class="bg" shape-rendering="crispEdges" width="128" height="162" x="0" y="0" style="stroke: rgb(68, 68, 68); stroke-opacity: 1; fill: rgb(255, 255, 255); fill-opacity: 1; stroke-width: 0px;"/><g class="scrollbox" transform="" clip-path="url(#legend34071d)"><g class="groups"><g class="traces" transform="translate(0,14.5)" style="opacity: 1;"><text class="legendtext" text-anchor="start" x="40" y="4.680000000000001" style="font-family: 'Open Sans', verdana, arial, sans-serif; font-size: 12px; fill: rgb(42, 63, 95); fill-opacity: 1; white-space: pre;">Train Accuracy</text><g class="layers" style="opacity: 1;"><g class="legendfill"/><g class="legendlines"><path class="js-line" d="M5,0h30" style="fill: none; stroke: rgb(255, 0, 0); stroke-opacity: 1; stroke-width: 2px;"/></g><g class="legendsymbols"><g class="legendpoints"/></g></g><rect class="legendtoggle" x="0" y="-9.5" width="122.71875" height="19" style="fill: rgb(0, 0, 0); fill-opacity: 0;"/></g><g class="traces" transform="translate(0,33.5)" style="opacity: 1;"><text class="legendtext" text-anchor="start" x="40" y="4.680000000000001" style="font-family: 'Open Sans', verdana, arial, sans-serif; font-size: 12px; fill: rgb(42, 63, 95); fill-opacity: 1; white-space: pre;">Test Accuracy</text><g class="layers" style="opacity: 1;"><g class="legendfill"/><g class="legendlines"><path class="js-line" d="M5,0h30" style="fill: none; stroke: rgb(0, 0, 255); stroke-opacity: 1; stroke-width: 2px;"/></g><g class="legendsymbols"><g class="legendpoints"/></g></g><rect class="legendtoggle" x="0" y="-9.5" width="122.71875" height="19" style="fill: rgb(0, 0, 0); fill-opacity: 0;"/></g><g class="traces" transform="translate(0,52.5)" style="opacity: 1;"><text class="legendtext" text-anchor="start" x="40" y="4.680000000000001" style="font-family: 'Open Sans', verdana, arial, sans-serif; font-size: 12px; fill: rgb(42, 63, 95); fill-opacity: 1; white-space: pre;">Train Precision</text><g class="layers" style="opacity: 1;"><g class="legendfill"/><g class="legendlines"><path class="js-line" d="M5,0h30" style="fill: none; stroke: rgb(0, 128, 0); stroke-opacity: 1; stroke-width: 2px;"/></g><g class="legendsymbols"><g class="legendpoints"/></g></g><rect class="legendtoggle" x="0" y="-9.5" width="122.71875" height="19" style="fill: rgb(0, 0, 0); fill-opacity: 0;"/></g><g class="traces" transform="translate(0,71.5)" style="opacity: 1;"><text class="legendtext" text-anchor="start" x="40" y="4.680000000000001" style="font-family: 'Open Sans', verdana, arial, sans-serif; font-size: 12px; fill: rgb(42, 63, 95); fill-opacity: 1; white-space: pre;">Test Precision</text><g class="layers" style="opacity: 1;"><g class="legendfill"/><g class="legendlines"><path class="js-line" d="M5,0h30" style="fill: none; stroke: rgb(255, 165, 0); stroke-opacity: 1; stroke-width: 2px;"/></g><g class="legendsymbols"><g class="legendpoints"/></g></g><rect class="legendtoggle" x="0" y="-9.5" width="122.71875" height="19" style="fill: rgb(0, 0, 0); fill-opacity: 0;"/></g><g class="traces" transform="translate(0,90.5)" style="opacity: 1;"><text class="legendtext" text-anchor="start" x="40" y="4.680000000000001" style="font-family: 'Open Sans', verdana, arial, sans-serif; font-size: 12px; fill: rgb(42, 63, 95); fill-opacity: 1; white-space: pre;">Train Recall</text><g class="layers" style="opacity: 1;"><g class="legendfill"/><g class="legendlines"><path class="js-line" d="M5,0h30" style="fill: none; stroke: rgb(128, 0, 128); stroke-opacity: 1; stroke-width: 2px;"/></g><g class="legendsymbols"><g class="legendpoints"/></g></g><rect class="legendtoggle" x="0" y="-9.5" width="122.71875" height="19" style="fill: rgb(0, 0, 0); fill-opacity: 0;"/></g><g class="traces" transform="translate(0,109.5)" style="opacity: 1;"><text class="legendtext" text-anchor="start" x="40" y="4.680000000000001" style="font-family: 'Open Sans', verdana, arial, sans-serif; font-size: 12px; fill: rgb(42, 63, 95); fill-opacity: 1; white-space: pre;">Test Recall</text><g class="layers" style="opacity: 1;"><g class="legendfill"/><g class="legendlines"><path class="js-line" d="M5,0h30" style="fill: none; stroke: rgb(255, 192, 203); stroke-opacity: 1; stroke-width: 2px;"/></g><g class="legendsymbols"><g class="legendpoints"/></g></g><rect class="legendtoggle" x="0" y="-9.5" width="122.71875" height="19" style="fill: rgb(0, 0, 0); fill-opacity: 0;"/></g><g class="traces" transform="translate(0,128.5)" style="opacity: 1;"><text class="legendtext" text-anchor="start" x="40" y="4.680000000000001" style="font-family: 'Open Sans', verdana, arial, sans-serif; font-size: 12px; fill: rgb(42, 63, 95); fill-opacity: 1; white-space: pre;">Train F1</text><g class="layers" style="opacity: 1;"><g class="legendfill"/><g class="legendlines"><path class="js-line" d="M5,0h30" style="fill: none; stroke: rgb(165, 42, 42); stroke-opacity: 1; stroke-width: 2px;"/></g><g class="legendsymbols"><g class="legendpoints"/></g></g><rect class="legendtoggle" x="0" y="-9.5" width="122.71875" height="19" style="fill: rgb(0, 0, 0); fill-opacity: 0;"/></g><g class="traces" transform="translate(0,147.5)" style="opacity: 1;"><text class="legendtext" text-anchor="start" x="40" y="4.680000000000001" style="font-family: 'Open Sans', verdana, arial, sans-serif; font-size: 12px; fill: rgb(42, 63, 95); fill-opacity: 1; white-space: pre;">Test F1</text><g class="layers" style="opacity: 1;"><g class="legendfill"/><g class="legendlines"><path class="js-line" d="M5,0h30" style="fill: none; stroke: rgb(128, 128, 128); stroke-opacity: 1; stroke-width: 2px;"/></g><g class="legendsymbols"><g class="legendpoints"/></g></g><rect class="legendtoggle" x="0" y="-9.5" width="122.71875" height="19" style="fill: rgb(0, 0, 0); fill-opacity: 0;"/></g></g></g><rect class="scrollbar" rx="20" ry="3" width="0" height="0" x="0" y="0" style="fill: rgb(128, 139, 164); fill-opacity: 1;"/></g><g class="g-gtitle"><text class="gtitle" x="51.2" y="50" text-anchor="start" dy="0em" style="font-family: 'Open Sans', verdana, arial, sans-serif; font-size: 17px; fill: rgb(42, 63, 95); opacity: 1; font-weight: normal; white-space: pre;">Training Metrics - logs/FakeNewsNet_text_domain.log</text></g><g class="g-xtitle"><text class="xtitle" x="502" y="537.3" text-anchor="middle" style="font-family: 'Open Sans', verdana, arial, sans-serif; font-size: 14px; fill: rgb(42, 63, 95); opacity: 1; font-weight: normal; white-space: pre;">Epoch</text></g><g class="g-ytitle"><text class="ytitle" transform="rotate(-90,95.965625,298)" x="95.965625" y="298" text-anchor="middle" style="font-family: 'Open Sans', verdana, arial, sans-serif; font-size: 14px; fill: rgb(42, 63, 95); opacity: 1; font-weight: normal; white-space: pre;">Metric Score</text></g></g><g class="menulayer"><g class="updatemenu-container" style="cursor: pointer;"><g class="updatemenu-header-group" transform="translate(12,60)"><g class="updatemenu-header" transform="translate(1,1)" style="pointer-events: all;"><rect class="updatemenu-item-rect" rx="2" ry="2" shape-rendering="crispEdges" x="0" y="0" width="160" height="33" style="stroke: rgb(190, 200, 217); stroke-opacity: 1; fill: rgb(255, 255, 255); fill-opacity: 1; stroke-width: 1px;"/><text class="updatemenu-item-text" text-anchor="start" data-notex="1" x="12" y="19.5" style="font-family: 'Open Sans', verdana, arial, sans-serif; font-size: 12px; fill: rgb(42, 63, 95); fill-opacity: 1; white-space: pre;">All</text></g><text class="updatemenu-header-arrow" text-anchor="end" x="156" y="19.5" style="font-family: 'Open Sans', verdana, arial, sans-serif; font-size: 12px; fill: rgb(42, 63, 95); fill-opacity: 1;">▼</text></g><g class="updatemenu-dropdown-button-group" updatemenu-active-index="-1" style="pointer-events: all;"><rect class="scrollbox-bg" opacity="0" x="0" y="0" width="0" height="0" style="pointer-events: all;"/></g></g></g></svg>