<svg class="main-svg" xmlns="http://www.w3.org/2000/svg" xmlns:xlink="http://www.w3.org/1999/xlink" width="1024" height="576" style="" viewBox="0 0 1024 576"><rect x="0" y="0" width="1024" height="576" style="fill: rgb(255, 255, 255); fill-opacity: 1;"/><defs id="defs-40e25a"><g class="clips"><clipPath id="clip40e25axyplot" class="plotclip"><rect width="726" height="396"/></clipPath><clipPath class="axesclip" id="clip40e25ax"><rect x="143" y="0" width="726" height="576"/></clipPath><clipPath class="axesclip" id="clip40e25ay"><rect x="0" y="100" width="1024" height="396"/></clipPath><clipPath class="axesclip" id="clip40e25axy"><rect x="143" y="100" width="726" height="396"/></clipPath></g><g class="gradients"/><g class="patterns"/></defs><g class="bglayer"><rect class="bg" x="143" y="100" width="726" height="396" style="fill: rgb(229, 236, 246); fill-opacity: 1; stroke-width: 0;"/></g><g class="layer-below"><g class="imagelayer"/><g class="shapelayer"/></g><g class="cartesianlayer"><g class="subplot xy"><g class="layer-subplot"><g class="shapelayer"/><g class="imagelayer"/></g><g class="minor-gridlayer"><g class="x"/><g class="y"/></g><g class="gridlayer"><g class="x"><path class="xgrid crisp" transform="translate(235.57999999999998,0)" d="M0,100v396" style="stroke: rgb(255, 255, 255); stroke-opacity: 1; stroke-width: 1px;"/><path class="xgrid crisp" transform="translate(333.03,0)" d="M0,100v396" style="stroke: rgb(255, 255, 255); stroke-opacity: 1; stroke-width: 1px;"/><path class="xgrid crisp" transform="translate(430.48,0)" d="M0,100v396" style="stroke: rgb(255, 255, 255); stroke-opacity: 1; stroke-width: 1px;"/><path class="xgrid crisp" transform="translate(527.9300000000001,0)" d="M0,100v396" style="stroke: rgb(255, 255, 255); stroke-opacity: 1; stroke-width: 1px;"/><path class="xgrid crisp" transform="translate(625.38,0)" d="M0,100v396" style="stroke: rgb(255, 255, 255); stroke-opacity: 1; stroke-width: 1px;"/><path class="xgrid crisp" transform="translate(722.83,0)" d="M0,100v396" style="stroke: rgb(255, 255, 255); stroke-opacity: 1; stroke-width: 1px;"/><path class="xgrid crisp" transform="translate(820.28,0)" d="M0,100v396" style="stroke: rgb(255, 255, 255); stroke-opacity: 1; stroke-width: 1px;"/></g><g class="y"><path class="ygrid crisp" transform="translate(0,454.07)" d="M143,0h726" style="stroke: rgb(255, 255, 255); stroke-opacity: 1; stroke-width: 1px;"/><path class="ygrid crisp" transform="translate(0,412.7)" d="M143,0h726" style="stroke: rgb(255, 255, 255); stroke-opacity: 1; stroke-width: 1px;"/><path class="ygrid crisp" transform="translate(0,371.33)" d="M143,0h726" style="stroke: rgb(255, 255, 255); stroke-opacity: 1; stroke-width: 1px;"/><path class="ygrid crisp" transform="translate(0,329.96000000000004)" d="M143,0h726" style="stroke: rgb(255, 255, 255); stroke-opacity: 1; stroke-width: 1px;"/><path class="ygrid crisp" transform="translate(0,288.59000000000003)" d="M143,0h726" style="stroke: rgb(255, 255, 255); stroke-opacity: 1; stroke-width: 1px;"/><path class="ygrid crisp" transform="translate(0,247.22)" d="M143,0h726" style="stroke: rgb(255, 255, 255); stroke-opacity: 1; stroke-width: 1px;"/><path class="ygrid crisp" transform="translate(0,205.85)" d="M143,0h726" style="stroke: rgb(255, 255, 255); stroke-opacity: 1; stroke-width: 1px;"/><path class="ygrid crisp" transform="translate(0,164.48000000000002)" d="M143,0h726" style="stroke: rgb(255, 255, 255); stroke-opacity: 1; stroke-width: 1px;"/><path class="ygrid crisp" transform="translate(0,123.11)" d="M143,0h726" style="stroke: rgb(255, 255, 255); stroke-opacity: 1; stroke-width: 1px;"/></g></g><g class="zerolinelayer"/><path class="xlines-below"/><path class="ylines-below"/><g class="overlines-below"/><g class="xaxislayer-below"/><g class="yaxislayer-below"/><g class="overaxes-below"/><g class="plot" transform="translate(143,100)" clip-path="url(#clip40e25axyplot)"><g class="scatterlayer mlayer"><g class="trace scatter trace36b737" style="stroke-miterlimit: 2; opacity: 1;"><g class="fills"/><g class="errorbars"/><g class="lines"><path class="js-line" d="M0,370.41L4.87,311.66L9.74,274.84L14.62,223.34L19.49,216.1L24.36,201.41L29.23,196.45L34.11,201.41L38.98,198.93L43.85,189L48.72,208.65L63.34,193.97L68.21,201.41L73.09,184.24L77.96,171.83L82.83,159.63L87.7,149.91L92.58,144.94L97.45,164.59L102.32,154.67L107.19,152.39L112.07,132.74L116.94,154.67L121.81,137.7L126.68,169.56L131.56,162.11L136.43,159.63L146.17,139.98L151.05,132.74L155.92,127.77L160.79,127.77L165.66,135.22L170.54,122.81L175.41,142.46L180.28,135.22L185.15,142.46L190.03,130.26L194.9,127.77L199.77,144.94L204.64,120.54L209.52,118.05L214.39,122.81L219.26,120.54L224.13,127.77L229.01,154.67L233.88,130.26L238.75,122.81L243.62,125.29L248.5,125.29L253.37,108.12L258.24,122.81L263.11,130.26L267.99,135.22L272.86,135.22L277.73,118.05L282.6,115.57L287.48,98.4L292.35,103.37L297.22,110.61L302.09,100.88L306.97,113.09L311.84,98.4L316.71,100.88L321.58,113.09L326.46,135.22L331.33,152.39L336.2,135.22L341.07,125.29L345.95,127.77L350.82,130.26L355.69,108.12L360.56,137.7L365.44,105.85L370.31,93.44L375.18,98.4L380.05,88.68L384.93,76.27L389.8,73.79L394.67,95.92L399.54,83.72L404.42,73.79L409.29,69.03L414.16,78.75L419.03,83.72L423.91,86.2L428.78,90.96L433.65,105.85L438.52,100.88L443.4,90.96L448.27,83.72L453.14,83.72L458.01,76.27L462.89,73.79L467.76,71.51L472.63,76.27L477.5,66.55L482.38,61.58L487.25,76.27L492.12,64.07L496.99,73.79L501.87,76.27L506.74,88.68L511.61,76.27L516.48,73.79L521.36,81.23L526.23,86.2L531.1,88.68L535.97,71.51L540.85,71.51L545.72,78.75L550.59,71.51L555.46,88.68L560.34,88.68L565.21,78.75L570.08,71.51L574.95,69.03L579.83,69.03L584.7,76.27L589.57,69.03L594.44,73.79L599.32,73.79L604.19,59.1L609.06,76.27L613.93,64.07L618.81,78.75L623.68,71.51L628.55,78.75L633.42,76.27L638.3,66.55L643.17,69.03L648.04,73.79L652.91,71.51L657.79,73.79L662.66,73.79L667.53,86.2L672.4,76.27L677.28,93.44L682.15,81.23L687.02,71.51L691.89,73.79L696.77,81.23L701.64,66.55L706.51,71.51L711.38,98.4L716.26,71.51L721.13,51.86L726,59.1" style="vector-effect: none; fill: none; stroke: rgb(255, 0, 0); stroke-opacity: 1; stroke-width: 2px; opacity: 1;"/></g><g class="points"/><g class="text"/></g><g class="trace scatter trace6e0e2e" style="stroke-miterlimit: 2; opacity: 1;"><g class="fills"/><g class="errorbars"/><g class="lines"><path class="js-line" d="M0,272.57L4.87,233.47L9.74,204.1L14.62,155.49L19.49,126.12L24.36,116.4L29.23,145.56L34.11,135.84L38.98,135.84L43.85,135.84L48.72,145.56L53.6,145.56L58.47,155.49L63.34,145.56L68.21,165.21L73.09,174.94L77.96,194.38L82.83,174.94L87.7,116.4L92.58,106.68L97.45,106.68L102.32,145.56L107.19,126.12L112.07,116.4L116.94,126.12L121.81,116.4L126.68,145.56L136.43,126.12L141.3,135.84L146.17,145.56L151.05,145.56L155.92,126.12L160.79,135.84L165.66,87.03L170.54,135.84L175.41,145.56L180.28,145.56L185.15,145.56L190.03,165.21L194.9,165.21L199.77,155.49L204.64,174.94L209.52,126.12L214.39,126.12L219.26,155.49L229.01,135.84L233.88,135.84L238.75,77.3L243.62,106.68L248.5,106.68L253.37,116.4L258.24,135.84L263.11,135.84L267.99,106.68L272.86,106.68L277.73,96.95L282.6,106.68L287.48,135.84L292.35,96.95L297.22,106.68L302.09,96.95L306.97,96.95L311.84,106.68L316.71,116.4L321.58,106.68L326.46,135.84L331.33,116.4L345.95,116.4L350.82,145.56L355.69,126.12L360.56,155.49L365.44,116.4L370.31,126.12L375.18,145.56L380.05,126.12L389.8,145.56L394.67,126.12L399.54,135.84L404.42,106.68L419.03,135.84L423.91,126.12L428.78,116.4L433.65,96.95L438.52,106.68L443.4,106.68L448.27,116.4L453.14,106.68L458.01,145.56L462.89,155.49L472.63,155.49L477.5,135.84L482.38,145.56L487.25,145.56L492.12,135.84L496.99,106.68L501.87,126.12L506.74,106.68L511.61,116.4L516.48,116.4L521.36,116.4L526.23,135.84L531.1,126.12L535.97,87.03L540.85,116.4L545.72,116.4L550.59,106.68L555.46,145.56L560.34,145.56L565.21,155.49L570.08,135.84L574.95,145.56L579.83,106.68L584.7,87.03L589.57,96.95L594.44,116.4L599.32,126.12L604.19,165.21L609.06,155.49L613.93,126.12L618.81,135.84L623.68,155.49L628.55,135.84L633.42,126.12L643.17,106.68L648.04,116.4L652.91,116.4L657.79,155.49L662.66,184.66L667.53,204.1L672.4,204.1L677.28,194.38L687.02,155.49L691.89,145.56L696.77,174.94L701.64,126.12L706.51,145.56L711.38,155.49L716.26,155.49L721.13,145.56L726,145.56" style="vector-effect: none; fill: none; stroke: rgb(0, 0, 255); stroke-opacity: 1; stroke-width: 2px; opacity: 1;"/></g><g class="points"/><g class="text"/></g><g class="trace scatter traceae3475" style="stroke-miterlimit: 2; opacity: 1;"><g class="fills"/><g class="errorbars"/><g class="lines"><path class="js-line" d="M0,375.79L4.87,324.9L9.74,287.67L14.62,232.85L19.49,215.48L24.36,173.07L29.23,180.11L34.11,202.86L38.98,192.1L43.85,188.38L48.72,205.96L53.6,195.41L58.47,192.1L63.34,193.76L68.21,199.34L77.96,144.12L82.83,140.81L87.7,141.84L92.58,112.05L97.45,132.95L102.32,128.81L107.19,117.85L112.07,117.23L116.94,149.29L121.81,121.16L126.68,168.11L131.56,167.49L136.43,161.08L141.3,142.87L146.17,134.39L151.05,123.64L155.92,118.26L160.79,114.54L165.66,120.54L170.54,108.95L175.41,130.67L180.28,125.71L185.15,143.91L190.03,129.64L194.9,123.84L199.77,143.7L204.64,120.12L209.52,105.02L214.39,114.12L219.26,109.57L224.13,118.26L229.01,155.7L233.88,116.4L238.75,100.26L243.62,96.95L248.5,108.33L253.37,80.2L258.24,93.23L263.11,89.09L267.99,100.88L272.86,109.78L277.73,89.51L282.6,94.27L287.48,79.17L297.22,83.92L302.09,90.75L306.97,104.61L311.84,80.61L316.71,96.33L321.58,106.88L326.46,138.74L331.33,150.11L336.2,133.98L341.07,126.12L345.95,123.84L350.82,133.57L355.69,99.23L360.56,140.19L365.44,94.89L370.31,70.48L375.18,80.61L380.05,75.44L384.93,58.48L389.8,59.31L394.67,55.58L399.54,54.34L404.42,43.17L409.29,37.8L414.16,32.21L419.03,50.62L423.91,52.28L428.78,68.62L433.65,74.61L438.52,61.17L443.4,59.93L448.27,52.48L453.14,42.35L458.01,52.28L462.89,58.07L467.76,58.69L472.63,58.48L477.5,44.62L482.38,28.49L487.25,37.18L492.12,30.35L496.99,41.31L501.87,41.31L506.74,68.2L511.61,48.76L516.48,51.86L521.36,46.69L526.23,61.38L531.1,63.24L535.97,41.52L540.85,31.59L545.72,46.9L550.59,46.69L555.46,75.44L560.34,76.68L565.21,62L570.08,37.59L574.95,29.73L579.83,25.38L584.7,37.18L589.57,35.73L594.44,50.21L599.32,50.21L604.19,37.18L609.06,37.18L613.93,19.8L618.81,52.28L623.68,39.45L628.55,32.21L633.42,41.31L638.3,34.07L643.17,44.83L648.04,50.21L652.91,46.69L657.79,51.86L662.66,51.86L667.53,70.68L672.4,64.07L677.28,85.78L682.15,68.2L687.02,57.45L691.89,50.21L696.77,60.96L701.64,42.97L706.51,57.45L711.38,97.16L716.26,50L721.13,21.25L726,33.87" style="vector-effect: none; fill: none; stroke: rgb(0, 128, 0); stroke-opacity: 1; stroke-width: 2px; opacity: 1;"/></g><g class="points"/><g class="text"/></g><g class="trace scatter tracefb300e" style="stroke-miterlimit: 2; opacity: 1;"><g class="fills"/><g class="errorbars"/><g class="lines"><path class="js-line" d="M0,298.22L9.74,235.34L14.62,185.07L19.49,152.39L24.36,128.81L29.23,169.97L34.11,164.39L38.98,162.32L43.85,163.56L48.72,174.52L53.6,173.49L58.47,183.42L63.34,173.49L68.21,195.21L73.09,204.31L77.96,217.75L82.83,198.52L87.7,142.67L92.58,110.19L97.45,115.36L102.32,155.7L107.19,132.95L112.07,141.22L116.94,153.63L121.81,141.22L126.68,175.14L131.56,164.8L136.43,154.67L141.3,164.8L146.17,174.94L151.05,174.52L155.92,152.39L160.79,163.56L165.66,108.33L170.54,160.25L175.41,172.04L180.28,173.49L185.15,175.14L190.03,195.62L194.9,195.62L199.77,185.07L204.64,204.52L209.52,150.74L214.39,153.63L219.26,183.42L229.01,164.8L233.88,162.32L238.75,93.02L243.62,119.91L253.37,132.95L258.24,157.77L263.11,146.8L267.99,123.84L272.86,126.95L277.73,114.54L282.6,131.5L287.48,160.25L292.35,114.54L297.22,119.91L306.97,120.12L311.84,129.43L316.71,141.22L321.58,129.43L326.46,164.8L331.33,142.67L336.2,142.67L341.07,143.91L345.95,141.22L350.82,175.14L355.69,152.39L360.56,185.07L365.44,138.94L370.31,148.46L375.18,172.04L380.05,148.46L389.8,172.04L394.67,145.56L399.54,154.67L404.42,119.91L409.29,132.95L414.16,142.05L419.03,160.25L423.91,148.46L428.78,136.26L433.65,111.02L438.52,119.91L443.4,123.84L448.27,138.94L453.14,126.95L458.01,173.49L462.89,184.45L467.76,185.07L472.63,183.42L477.5,157.77L482.38,167.28L487.25,163.97L492.12,157.77L496.99,119.91L501.87,137.7L506.74,126.95L511.61,128.81L516.48,136.26L521.36,124.26L526.23,151.15L531.1,142.05L535.97,101.92L540.85,132.95L545.72,138.94L550.59,126.95L555.46,172.04L560.34,173.49L565.21,181.56L570.08,154.67L574.95,160.25L579.83,110.19L584.7,81.03L589.57,101.71L594.44,132.95L599.32,142.05L604.19,191.28L609.06,173.28L613.93,132.95L618.81,151.15L623.68,173.28L628.55,146.8L633.42,137.7L638.3,136.26L643.17,123.84L648.04,136.26L652.91,132.95L657.79,179.49L662.66,214.44L667.53,236.78L672.4,236.78L677.28,226.23L691.89,163.97L696.77,198.52L701.64,142.05L706.51,167.28L711.38,185.28L716.26,176.59L721.13,163.97L726,167.28" style="vector-effect: none; fill: none; stroke: rgb(255, 165, 0); stroke-opacity: 1; stroke-width: 2px; opacity: 1;"/></g><g class="points"/><g class="text"/></g><g class="trace scatter trace4e06f6" style="stroke-miterlimit: 2; opacity: 1;"><g class="fills"/><g class="errorbars"/><g class="lines"><path class="js-line" d="M0,364.82L4.87,336.07L9.74,293.05L14.62,243.82L19.49,248.78L24.36,250.02L29.23,238.44L34.11,230.58L38.98,234.92L43.85,219.2L48.72,242.58L53.6,241.54L58.47,234.92L63.34,224.17L68.21,233.68L73.09,223.13L77.96,217.34L87.7,182.18L92.58,190.04L97.45,211.13L102.32,197.69L107.19,198.93L112.07,168.11L116.94,185.49L121.81,174.11L126.68,198.31L131.56,183L136.43,184.87L141.3,181.35L146.17,169.77L151.05,164.18L155.92,159.01L160.79,161.49L165.66,170.39L170.54,156.53L175.41,176.59L180.28,167.08L185.15,166.04L190.03,154.67L194.9,155.08L199.77,171.42L204.64,143.91L209.52,150.74L214.39,153.22L219.26,151.98L224.13,159.01L229.01,179.9L233.88,164.39L238.75,161.28L243.62,166.66L248.5,161.08L253.37,147.84L258.24,164.59L263.11,177.42L267.99,180.11L272.86,175.97L277.73,158.8L282.6,152.6L287.48,132.95L292.35,139.57L297.22,150.11L302.09,130.26L306.97,142.46L311.84,132.12L316.71,126.12L326.46,155.7L331.33,180.31L336.2,160.66L341.07,148.05L345.95,155.08L350.82,150.74L355.69,137.29L360.56,159.42L365.44,136.05L370.31,129.64L375.18,132.12L380.05,118.88L384.93,108.33L389.8,103.78L394.67,139.77L399.54,121.98L404.42,111.85L409.29,106.88L414.16,123.43L419.03,123.64L423.91,126.53L428.78,126.74L433.65,146.6L438.52,144.74L443.4,130.67L448.27,122.81L453.14,126.74L458.01,111.64L462.89,104.61L467.76,100.06L472.63,108.33L477.5,99.85L482.38,99.64L487.25,118.05L492.12,102.54L496.99,112.67L501.87,116.4L506.74,122.81L511.61,113.09L516.48,107.71L521.36,121.36L526.23,122.4L531.1,125.29L535.97,108.95L545.72,117.64L550.59,106.47L555.46,118.88L560.34,118.05L565.21,110.4L570.08,110.61L574.95,109.99L579.83,111.64L584.7,118.05L589.57,107.71L594.44,108.54L599.32,108.54L604.19,91.99L609.06,118.05L613.93,106.68L618.81,115.36L623.68,109.78L628.55,123.43L633.42,116.4L638.3,104.81L643.17,103.57L648.04,108.54L652.91,106.47L657.79,107.71L662.66,107.71L667.53,117.64L672.4,105.02L677.28,120.74L687.02,100.88L691.89,108.54L696.77,114.95L701.64,100.68L706.51,100.88L711.38,120.74L721.13,88.06L726,93.44" style="vector-effect: none; fill: none; stroke: rgb(128, 0, 128); stroke-opacity: 1; stroke-width: 2px; opacity: 1;"/></g><g class="points"/><g class="text"/></g><g class="trace scatter trace492910" style="stroke-miterlimit: 2; opacity: 1;"><g class="fills"/><g class="errorbars"/><g class="lines"><path class="js-line" d="M0,268.23L4.87,248.57L9.74,214.24L14.62,175.56L19.49,152.39L24.36,166.87L29.23,184.45L34.11,154.67L38.98,165.84L43.85,160.25L48.72,167.9L53.6,173.49L58.47,186.73L63.34,173.49L68.21,189L73.09,207.62L77.96,250.85L82.83,224.37L87.7,139.15L92.58,164.8L97.45,159.22L102.32,206.79L107.19,185.69L112.07,144.74L116.94,147.01L121.81,144.74L126.68,156.94L131.56,149.08L136.43,135.84L146.17,162.32L151.05,167.9L155.92,152.39L160.79,160.25L165.66,115.98L170.54,171.21L175.41,179.07L180.28,173.49L185.15,156.94L190.03,183.42L194.9,183.42L199.77,175.56L204.64,179.9L209.52,157.97L214.39,147.01L219.26,186.73L224.13,173.49L229.01,143.5L233.88,165.84L238.75,113.92L243.62,153.63L248.5,142.67L253.37,161.49L258.24,176.8L263.11,193.55L267.99,148.05L272.86,142.67L277.73,134.81L282.6,131.5L287.48,171.21L292.35,134.81L297.22,153.63L302.09,123.84L306.97,123.84L311.84,137.08L316.71,144.74L321.58,137.08L326.46,149.08L331.33,139.15L336.2,139.15L341.07,133.77L345.95,144.74L350.82,156.94L355.69,152.39L360.56,175.56L365.44,150.32L370.31,163.56L375.18,179.07L380.05,163.56L384.93,171.21L389.8,179.07L394.67,169.14L399.54,182.38L404.42,153.63L409.29,161.49L414.16,174.73L419.03,171.21L423.91,163.56L428.78,155.91L433.65,140.39L438.52,153.63L443.4,148.05L448.27,150.32L453.14,142.67L458.01,173.49L462.89,181.14L467.76,175.56L472.63,186.73L477.5,176.8L482.38,190.04L487.25,195.62L492.12,176.8L496.99,153.63L501.87,180.11L506.74,142.67L511.61,166.87L516.48,155.91L521.36,172.45L526.23,187.97L531.1,174.73L535.97,127.15L540.85,161.49L545.72,150.32L550.59,142.67L555.46,179.07L560.34,173.49L565.21,192.31L570.08,182.38L574.95,201.21L579.83,164.8L584.7,149.29L589.57,151.56L594.44,161.49L599.32,174.73L604.19,205.55L609.06,208.86L613.93,185.69L618.81,187.97L623.68,208.86L628.55,193.55L633.42,180.11L638.3,155.91L643.17,148.05L648.04,155.91L652.91,161.49L657.79,197.9L662.66,221.06L667.53,225.41L672.4,230.79L677.28,211.96L682.15,202.24L687.02,186.73L691.89,195.62L696.77,224.37L701.64,174.73L706.51,190.04L711.38,170.18L716.26,203.27L721.13,195.62L726,190.04" style="vector-effect: none; fill: none; stroke: rgb(255, 192, 203); stroke-opacity: 1; stroke-width: 2px; opacity: 1;"/></g><g class="points"/><g class="text"/></g><g class="trace scatter trace0cd5f9" style="stroke-miterlimit: 2; opacity: 1;"><g class="fills"/><g class="errorbars"/><g class="lines"><path class="js-line" d="M0,376.2L9.74,290.77L14.62,239.47L19.49,239.06L24.36,234.92L29.23,224.79L34.11,221.68L38.98,223.34L43.85,209.48L48.72,232.03L53.6,229.54L58.47,223.34L63.34,214.65L68.21,223.55L73.09,209.89L77.96,201.41L82.83,184.87L87.7,170.18L92.58,172.66L97.45,194.38L102.32,181.56L107.19,181.56L112.07,154.04L116.94,174.32L121.81,159.63L126.68,188.59L131.56,177L136.43,176.59L141.3,169.77L146.17,158.6L151.05,151.77L155.92,146.6L160.79,147.84L165.66,156.32L170.54,142.67L175.41,163.56L180.28,154.67L185.15,157.97L190.03,145.77L194.9,144.53L199.77,161.9L204.64,135.22L209.52,137.08L214.39,141.01L219.26,139.15L224.13,146.6L229.01,171.42L233.88,150.74L238.75,145.36L243.62,149.7L248.5,146.39L253.37,130.67L258.24,147.22L263.11,158.6L267.99,162.11L272.86,159.63L277.73,141.63L282.6,136.88L287.48,117.64L292.35,123.64L297.22,132.95L302.09,117.64L306.97,130.46L311.84,117.23L316.71,115.78L321.58,129.64L326.46,149.08L331.33,170.39L336.2,151.36L341.07,139.98L345.95,144.53L350.82,144.12L355.69,125.29L360.56,152.18L365.44,123.22L370.31,113.3L375.18,117.23L384.93,93.44L389.8,89.92L394.67,120.12L399.54,103.99L404.42,93.64L409.29,88.47L414.16,102.33L419.03,104.81L428.78,110.4L433.65,128.81L438.52,125.29L443.4,112.47L448.27,104.4L453.14,106.68L458.01,94.89L462.89,90.13L467.76,86.82L472.63,93.44L477.5,83.72L482.38,80.82L487.25,98.2L492.12,83.51L496.99,94.06L501.87,97.16L506.74,107.3L511.61,95.71L516.48,91.58L521.36,102.54L531.1,108.54L535.97,90.75L540.85,92.82L545.72,99.23L550.59,89.71L555.46,105.44L560.34,105.02L565.21,95.71L570.08,91.58L574.95,89.92L579.83,90.75L584.7,98.2L589.57,88.89L594.44,91.99L599.32,91.99L604.19,75.65L609.06,98.2L613.93,85.58L618.81,97.99L623.68,91.16L628.55,102.33L633.42,97.16L638.3,85.99L643.17,86.82L648.04,91.99L652.91,89.71L657.79,91.58L662.66,91.58L667.53,103.37L672.4,91.99L677.28,108.95L682.15,97.37L687.02,87.03L691.89,91.99L696.77,99.23L701.64,84.13L706.51,87.03L711.38,112.05L716.26,88.89L721.13,69.65L726,76.48" style="vector-effect: none; fill: none; stroke: rgb(165, 42, 42); stroke-opacity: 1; stroke-width: 2px; opacity: 1;"/></g><g class="points"/><g class="text"/></g><g class="trace scatter trace65474e" style="stroke-miterlimit: 2; opacity: 1;"><g class="fills"/><g class="errorbars"/><g class="lines"><path class="js-line" d="M0,291.81L9.74,227.48L14.62,180.73L19.49,152.39L24.36,151.77L29.23,178.04L34.11,160.04L38.98,163.97L43.85,161.9L48.72,171.42L53.6,173.49L58.47,185.07L63.34,173.49L68.21,192.31L73.09,206.17L77.96,238.03L82.83,213.62L87.7,141.01L92.58,144.74L97.45,142.25L102.32,188.17L112.07,143.08L116.94,150.53L121.81,143.08L126.68,167.49L131.56,157.97L136.43,146.8L146.17,169.35L151.05,171.42L155.92,152.39L160.79,161.9L165.66,112.47L170.54,166.25L175.41,175.56L180.28,173.49L185.15,167.49L190.03,190.24L194.9,190.24L199.77,180.73L204.64,195.62L209.52,154.46L214.39,150.53L219.26,185.07L224.13,173.49L229.01,156.32L233.88,163.97L238.75,104.61L243.62,139.98L248.5,135.43L253.37,149.49L258.24,168.52L263.11,175.97L267.99,137.7L272.86,135.43L277.73,125.91L282.6,131.5L287.48,166.25L292.35,125.91L297.22,139.98L302.09,121.98L306.97,121.98L311.84,133.57L316.71,143.08L321.58,133.57L326.46,157.97L331.33,141.01L336.2,141.01L341.07,139.15L345.95,143.08L350.82,167.49L355.69,152.39L360.56,180.73L365.44,145.15L370.31,156.73L375.18,175.56L380.05,156.73L384.93,166.25L389.8,175.56L394.67,159.01L399.54,170.8L404.42,139.98L409.29,149.49L414.16,161.28L419.03,166.25L423.91,156.73L428.78,147.22L433.65,127.98L438.52,139.98L443.4,137.7L448.27,145.15L453.14,135.43L458.01,173.49L462.89,182.8L467.76,180.73L472.63,185.07L477.5,168.52L482.38,180.31L487.25,182.8L492.12,168.52L496.99,139.98L501.87,163.77L506.74,135.43L511.61,151.77L516.48,147.22L521.36,154.25L526.23,173.28L531.1,161.28L535.97,116.4L540.85,149.49L545.72,145.15L550.59,135.43L555.46,175.56L560.34,173.49L565.21,187.35L570.08,170.8L574.95,185.49L579.83,144.74L584.7,125.29L589.57,132.53L594.44,149.49L599.32,161.28L604.19,199.14L609.06,195L613.93,166.46L618.81,173.28L623.68,195L628.55,175.97L633.42,163.77L638.3,147.22L643.17,137.7L648.04,147.22L652.91,149.49L657.79,189.83L662.66,217.75L667.53,231.61L672.4,233.89L677.28,220.24L687.02,185.07L691.89,182.8L696.77,213.62L701.64,161.28L706.51,180.31L711.38,178.87L716.26,192.31L721.13,182.8L726,180.31" style="vector-effect: none; fill: none; stroke: rgb(128, 128, 128); stroke-opacity: 1; stroke-width: 2px; opacity: 1;"/></g><g class="points"/><g class="text"/></g></g></g><g class="overplot"/><path class="xlines-above crisp" d="M0,0" style="fill: none;"/><path class="ylines-above crisp" d="M0,0" style="fill: none;"/><g class="overlines-above"/><g class="xaxislayer-above"><g class="xtick"><text text-anchor="middle" x="0" y="509" transform="translate(235.57999999999998,0)" style="font-family: 'Open Sans', verdana, arial, sans-serif; font-size: 12px; fill: rgb(42, 63, 95); fill-opacity: 1; white-space: pre; opacity: 1;">20</text></g><g class="xtick"><text text-anchor="middle" x="0" y="509" style="font-family: 'Open Sans', verdana, arial, sans-serif; font-size: 12px; fill: rgb(42, 63, 95); fill-opacity: 1; white-space: pre; opacity: 1;" transform="translate(333.03,0)">40</text></g><g class="xtick"><text text-anchor="middle" x="0" y="509" style="font-family: 'Open Sans', verdana, arial, sans-serif; font-size: 12px; fill: rgb(42, 63, 95); fill-opacity: 1; white-space: pre; opacity: 1;" transform="translate(430.48,0)">60</text></g><g class="xtick"><text text-anchor="middle" x="0" y="509" style="font-family: 'Open Sans', verdana, arial, sans-serif; font-size: 12px; fill: rgb(42, 63, 95); fill-opacity: 1; white-space: pre; opacity: 1;" transform="translate(527.9300000000001,0)">80</text></g><g class="xtick"><text text-anchor="middle" x="0" y="509" style="font-family: 'Open Sans', verdana, arial, sans-serif; font-size: 12px; fill: rgb(42, 63, 95); fill-opacity: 1; white-space: pre; opacity: 1;" transform="translate(625.38,0)">100</text></g><g class="xtick"><text text-anchor="middle" x="0" y="509" style="font-family: 'Open Sans', verdana, arial, sans-serif; font-size: 12px; fill: rgb(42, 63, 95); fill-opacity: 1; white-space: pre; opacity: 1;" transform="translate(722.83,0)">120</text></g><g class="xtick"><text text-anchor="middle" x="0" y="509" style="font-family: 'Open Sans', verdana, arial, sans-serif; font-size: 12px; fill: rgb(42, 63, 95); fill-opacity: 1; white-space: pre; opacity: 1;" transform="translate(820.28,0)">140</text></g></g><g class="yaxislayer-above"><g class="ytick"><text text-anchor="end" x="142" y="4.199999999999999" transform="translate(0,495.44)" style="font-family: 'Open Sans', verdana, arial, sans-serif; font-size: 12px; fill: rgb(42, 63, 95); fill-opacity: 1; white-space: pre; opacity: 1;">70</text></g><g class="ytick"><text text-anchor="end" x="142" y="4.199999999999999" style="font-family: 'Open Sans', verdana, arial, sans-serif; font-size: 12px; fill: rgb(42, 63, 95); fill-opacity: 1; white-space: pre; opacity: 1;" transform="translate(0,454.07)">72</text></g><g class="ytick"><text text-anchor="end" x="142" y="4.199999999999999" style="font-family: 'Open Sans', verdana, arial, sans-serif; font-size: 12px; fill: rgb(42, 63, 95); fill-opacity: 1; white-space: pre; opacity: 1;" transform="translate(0,412.7)">74</text></g><g class="ytick"><text text-anchor="end" x="142" y="4.199999999999999" style="font-family: 'Open Sans', verdana, arial, sans-serif; font-size: 12px; fill: rgb(42, 63, 95); fill-opacity: 1; white-space: pre; opacity: 1;" transform="translate(0,371.33)">76</text></g><g class="ytick"><text text-anchor="end" x="142" y="4.199999999999999" style="font-family: 'Open Sans', verdana, arial, sans-serif; font-size: 12px; fill: rgb(42, 63, 95); fill-opacity: 1; white-space: pre; opacity: 1;" transform="translate(0,329.96000000000004)">78</text></g><g class="ytick"><text text-anchor="end" x="142" y="4.199999999999999" style="font-family: 'Open Sans', verdana, arial, sans-serif; font-size: 12px; fill: rgb(42, 63, 95); fill-opacity: 1; white-space: pre; opacity: 1;" transform="translate(0,288.59000000000003)">80</text></g><g class="ytick"><text text-anchor="end" x="142" y="4.199999999999999" style="font-family: 'Open Sans', verdana, arial, sans-serif; font-size: 12px; fill: rgb(42, 63, 95); fill-opacity: 1; white-space: pre; opacity: 1;" transform="translate(0,247.22)">82</text></g><g class="ytick"><text text-anchor="end" x="142" y="4.199999999999999" style="font-family: 'Open Sans', verdana, arial, sans-serif; font-size: 12px; fill: rgb(42, 63, 95); fill-opacity: 1; white-space: pre; opacity: 1;" transform="translate(0,205.85)">84</text></g><g class="ytick"><text text-anchor="end" x="142" y="4.199999999999999" style="font-family: 'Open Sans', verdana, arial, sans-serif; font-size: 12px; fill: rgb(42, 63, 95); fill-opacity: 1; white-space: pre; opacity: 1;" transform="translate(0,164.48000000000002)">86</text></g><g class="ytick"><text text-anchor="end" x="142" y="4.199999999999999" style="font-family: 'Open Sans', verdana, arial, sans-serif; font-size: 12px; fill: rgb(42, 63, 95); fill-opacity: 1; white-space: pre; opacity: 1;" transform="translate(0,123.11)">88</text></g></g><g class="overaxes-above"/></g></g><g class="polarlayer"/><g class="smithlayer"/><g class="ternarylayer"/><g class="geolayer"/><g class="funnelarealayer"/><g class="pielayer"/><g class="iciclelayer"/><g class="treemaplayer"/><g class="sunburstlayer"/><g class="glimages"/><defs id="topdefs-40e25a"><g class="clips"/><clipPath id="legend40e25a"><rect width="128" height="162" x="0" y="0"/></clipPath></defs><g class="layer-above"><g class="imagelayer"/><g class="shapelayer"/></g><g class="infolayer"><g class="legend" pointer-events="all" transform="translate(883.52,100)"><rect class="bg" shape-rendering="crispEdges" width="128" height="162" x="0" y="0" style="stroke: rgb(68, 68, 68); stroke-opacity: 1; fill: rgb(255, 255, 255); fill-opacity: 1; stroke-width: 0px;"/><g class="scrollbox" transform="" clip-path="url(#legend40e25a)"><g class="groups"><g class="traces" transform="translate(0,14.5)" style="opacity: 1;"><text class="legendtext" text-anchor="start" x="40" y="4.680000000000001" style="font-family: 'Open Sans', verdana, arial, sans-serif; font-size: 12px; fill: rgb(42, 63, 95); fill-opacity: 1; white-space: pre;">Train Accuracy</text><g class="layers" style="opacity: 1;"><g class="legendfill"/><g class="legendlines"><path class="js-line" d="M5,0h30" style="fill: none; stroke: rgb(255, 0, 0); stroke-opacity: 1; stroke-width: 2px;"/></g><g class="legendsymbols"><g class="legendpoints"/></g></g><rect class="legendtoggle" x="0" y="-9.5" width="122.71875" height="19" style="fill: rgb(0, 0, 0); fill-opacity: 0;"/></g><g class="traces" transform="translate(0,33.5)" style="opacity: 1;"><text class="legendtext" text-anchor="start" x="40" y="4.680000000000001" style="font-family: 'Open Sans', verdana, arial, sans-serif; font-size: 12px; fill: rgb(42, 63, 95); fill-opacity: 1; white-space: pre;">Test Accuracy</text><g class="layers" style="opacity: 1;"><g class="legendfill"/><g class="legendlines"><path class="js-line" d="M5,0h30" style="fill: none; stroke: rgb(0, 0, 255); stroke-opacity: 1; stroke-width: 2px;"/></g><g class="legendsymbols"><g class="legendpoints"/></g></g><rect class="legendtoggle" x="0" y="-9.5" width="122.71875" height="19" style="fill: rgb(0, 0, 0); fill-opacity: 0;"/></g><g class="traces" transform="translate(0,52.5)" style="opacity: 1;"><text class="legendtext" text-anchor="start" x="40" y="4.680000000000001" style="font-family: 'Open Sans', verdana, arial, sans-serif; font-size: 12px; fill: rgb(42, 63, 95); fill-opacity: 1; white-space: pre;">Train Precision</text><g class="layers" style="opacity: 1;"><g class="legendfill"/><g class="legendlines"><path class="js-line" d="M5,0h30" style="fill: none; stroke: rgb(0, 128, 0); stroke-opacity: 1; stroke-width: 2px;"/></g><g class="legendsymbols"><g class="legendpoints"/></g></g><rect class="legendtoggle" x="0" y="-9.5" width="122.71875" height="19" style="fill: rgb(0, 0, 0); fill-opacity: 0;"/></g><g class="traces" transform="translate(0,71.5)" style="opacity: 1;"><text class="legendtext" text-anchor="start" x="40" y="4.680000000000001" style="font-family: 'Open Sans', verdana, arial, sans-serif; font-size: 12px; fill: rgb(42, 63, 95); fill-opacity: 1; white-space: pre;">Test Precision</text><g class="layers" style="opacity: 1;"><g class="legendfill"/><g class="legendlines"><path class="js-line" d="M5,0h30" style="fill: none; stroke: rgb(255, 165, 0); stroke-opacity: 1; stroke-width: 2px;"/></g><g class="legendsymbols"><g class="legendpoints"/></g></g><rect class="legendtoggle" x="0" y="-9.5" width="122.71875" height="19" style="fill: rgb(0, 0, 0); fill-opacity: 0;"/></g><g class="traces" transform="translate(0,90.5)" style="opacity: 1;"><text class="legendtext" text-anchor="start" x="40" y="4.680000000000001" style="font-family: 'Open Sans', verdana, arial, sans-serif; font-size: 12px; fill: rgb(42, 63, 95); fill-opacity: 1; white-space: pre;">Train Recall</text><g class="layers" style="opacity: 1;"><g class="legendfill"/><g class="legendlines"><path class="js-line" d="M5,0h30" style="fill: none; stroke: rgb(128, 0, 128); stroke-opacity: 1; stroke-width: 2px;"/></g><g class="legendsymbols"><g class="legendpoints"/></g></g><rect class="legendtoggle" x="0" y="-9.5" width="122.71875" height="19" style="fill: rgb(0, 0, 0); fill-opacity: 0;"/></g><g class="traces" transform="translate(0,109.5)" style="opacity: 1;"><text class="legendtext" text-anchor="start" x="40" y="4.680000000000001" style="font-family: 'Open Sans', verdana, arial, sans-serif; font-size: 12px; fill: rgb(42, 63, 95); fill-opacity: 1; white-space: pre;">Test Recall</text><g class="layers" style="opacity: 1;"><g class="legendfill"/><g class="legendlines"><path class="js-line" d="M5,0h30" style="fill: none; stroke: rgb(255, 192, 203); stroke-opacity: 1; stroke-width: 2px;"/></g><g class="legendsymbols"><g class="legendpoints"/></g></g><rect class="legendtoggle" x="0" y="-9.5" width="122.71875" height="19" style="fill: rgb(0, 0, 0); fill-opacity: 0;"/></g><g class="traces" transform="translate(0,128.5)" style="opacity: 1;"><text class="legendtext" text-anchor="start" x="40" y="4.680000000000001" style="font-family: 'Open Sans', verdana, arial, sans-serif; font-size: 12px; fill: rgb(42, 63, 95); fill-opacity: 1; white-space: pre;">Train F1</text><g class="layers" style="opacity: 1;"><g class="legendfill"/><g class="legendlines"><path class="js-line" d="M5,0h30" style="fill: none; stroke: rgb(165, 42, 42); stroke-opacity: 1; stroke-width: 2px;"/></g><g class="legendsymbols"><g class="legendpoints"/></g></g><rect class="legendtoggle" x="0" y="-9.5" width="122.71875" height="19" style="fill: rgb(0, 0, 0); fill-opacity: 0;"/></g><g class="traces" transform="translate(0,147.5)" style="opacity: 1;"><text class="legendtext" text-anchor="start" x="40" y="4.680000000000001" style="font-family: 'Open Sans', verdana, arial, sans-serif; font-size: 12px; fill: rgb(42, 63, 95); fill-opacity: 1; white-space: pre;">Test F1</text><g class="layers" style="opacity: 1;"><g class="legendfill"/><g class="legendlines"><path class="js-line" d="M5,0h30" style="fill: none; stroke: rgb(128, 128, 128); stroke-opacity: 1; stroke-width: 2px;"/></g><g class="legendsymbols"><g class="legendpoints"/></g></g><rect class="legendtoggle" x="0" y="-9.5" width="122.71875" height="19" style="fill: rgb(0, 0, 0); fill-opacity: 0;"/></g></g></g><rect class="scrollbar" rx="20" ry="3" width="0" height="0" x="0" y="0" style="fill: rgb(128, 139, 164); fill-opacity: 1;"/></g><g class="g-gtitle"><text class="gtitle" x="51.2" y="50" text-anchor="start" dy="0em" style="font-family: 'Open Sans', verdana, arial, sans-serif; font-size: 17px; fill: rgb(42, 63, 95); opacity: 1; font-weight: normal; white-space: pre;">Training Metrics - logs/FakeNewsNet-politifact_max-vocab=15000_pre=v2_domain_T=200_s=5.log</text></g><g class="g-xtitle"><text class="xtitle" x="506" y="537.3" text-anchor="middle" style="font-family: 'Open Sans', verdana, arial, sans-serif; font-size: 14px; fill: rgb(42, 63, 95); opacity: 1; font-weight: normal; white-space: pre;">Epoch</text></g><g class="g-ytitle"><text class="ytitle" transform="rotate(-90,103.965625,298)" x="103.965625" y="298" text-anchor="middle" style="font-family: 'Open Sans', verdana, arial, sans-serif; font-size: 14px; fill: rgb(42, 63, 95); opacity: 1; font-weight: normal; white-space: pre;">Metric Score</text></g></g><g class="menulayer"><g class="updatemenu-container" style="cursor: pointer;"><g class="updatemenu-header-group" transform="translate(12,60)"><g class="updatemenu-header" transform="translate(1,1)" style="pointer-events: all;"><rect class="updatemenu-item-rect" rx="2" ry="2" shape-rendering="crispEdges" x="0" y="0" width="167" height="33" style="stroke: rgb(190, 200, 217); stroke-opacity: 1; fill: rgb(255, 255, 255); fill-opacity: 1; stroke-width: 1px;"/><text class="updatemenu-item-text" text-anchor="start" data-notex="1" x="12" y="19.5" style="font-family: 'Open Sans', verdana, arial, sans-serif; font-size: 12px; fill: rgb(42, 63, 95); fill-opacity: 1; white-space: pre;">All</text></g><text class="updatemenu-header-arrow" text-anchor="end" x="163" y="19.5" style="font-family: 'Open Sans', verdana, arial, sans-serif; font-size: 12px; fill: rgb(42, 63, 95); fill-opacity: 1;">▼</text></g><g class="updatemenu-dropdown-button-group" updatemenu-active-index="-1" style="pointer-events: all;"><rect class="scrollbox-bg" opacity="0" x="0" y="0" width="0" height="0" style="pointer-events: all;"/></g></g></g></svg>