<svg class="main-svg" xmlns="http://www.w3.org/2000/svg" xmlns:xlink="http://www.w3.org/1999/xlink" width="1024" height="576" style="" viewBox="0 0 1024 576"><rect x="0" y="0" width="1024" height="576" style="fill: rgb(255, 255, 255); fill-opacity: 1;"/><defs id="defs-1247d9"><g class="clips"><clipPath id="clip1247d9xyplot" class="plotclip"><rect width="726" height="396"/></clipPath><clipPath class="axesclip" id="clip1247d9x"><rect x="143" y="0" width="726" height="576"/></clipPath><clipPath class="axesclip" id="clip1247d9y"><rect x="0" y="100" width="1024" height="396"/></clipPath><clipPath class="axesclip" id="clip1247d9xy"><rect x="143" y="100" width="726" height="396"/></clipPath></g><g class="gradients"/><g class="patterns"/></defs><g class="bglayer"><rect class="bg" x="143" y="100" width="726" height="396" style="fill: rgb(229, 236, 246); fill-opacity: 1; stroke-width: 0;"/></g><g class="layer-below"><g class="imagelayer"/><g class="shapelayer"/></g><g class="cartesianlayer"><g class="subplot xy"><g class="layer-subplot"><g class="shapelayer"/><g class="imagelayer"/></g><g class="minor-gridlayer"><g class="x"/><g class="y"/></g><g class="gridlayer"><g class="x"><path class="xgrid crisp" transform="translate(235.57999999999998,0)" d="M0,100v396" style="stroke: rgb(255, 255, 255); stroke-opacity: 1; stroke-width: 1px;"/><path class="xgrid crisp" transform="translate(333.03,0)" d="M0,100v396" style="stroke: rgb(255, 255, 255); stroke-opacity: 1; stroke-width: 1px;"/><path class="xgrid crisp" transform="translate(430.48,0)" d="M0,100v396" style="stroke: rgb(255, 255, 255); stroke-opacity: 1; stroke-width: 1px;"/><path class="xgrid crisp" transform="translate(527.9300000000001,0)" d="M0,100v396" style="stroke: rgb(255, 255, 255); stroke-opacity: 1; stroke-width: 1px;"/><path class="xgrid crisp" transform="translate(625.38,0)" d="M0,100v396" style="stroke: rgb(255, 255, 255); stroke-opacity: 1; stroke-width: 1px;"/><path class="xgrid crisp" transform="translate(722.83,0)" d="M0,100v396" style="stroke: rgb(255, 255, 255); stroke-opacity: 1; stroke-width: 1px;"/><path class="xgrid crisp" transform="translate(820.28,0)" d="M0,100v396" style="stroke: rgb(255, 255, 255); stroke-opacity: 1; stroke-width: 1px;"/></g><g class="y"><path class="ygrid crisp" transform="translate(0,492.52)" d="M143,0h726" style="stroke: rgb(255, 255, 255); stroke-opacity: 1; stroke-width: 1px;"/><path class="ygrid crisp" transform="translate(0,414.05)" d="M143,0h726" style="stroke: rgb(255, 255, 255); stroke-opacity: 1; stroke-width: 1px;"/><path class="ygrid crisp" transform="translate(0,335.59000000000003)" d="M143,0h726" style="stroke: rgb(255, 255, 255); stroke-opacity: 1; stroke-width: 1px;"/><path class="ygrid crisp" transform="translate(0,257.12)" d="M143,0h726" style="stroke: rgb(255, 255, 255); stroke-opacity: 1; stroke-width: 1px;"/><path class="ygrid crisp" transform="translate(0,178.65)" d="M143,0h726" style="stroke: rgb(255, 255, 255); stroke-opacity: 1; stroke-width: 1px;"/></g></g><g class="zerolinelayer"/><path class="xlines-below"/><path class="ylines-below"/><g class="overlines-below"/><g class="xaxislayer-below"/><g class="yaxislayer-below"/><g class="overaxes-below"/><g class="plot" transform="translate(143,100)" clip-path="url(#clip1247d9xyplot)"><g class="scatterlayer mlayer"><g class="trace scatter tracef56fb0" style="stroke-miterlimit: 2; opacity: 1;"><g class="fills"/><g class="errorbars"/><g class="lines"><path class="js-line" d="M0,365.53L4.87,280.16L9.74,274.98L14.62,241.39L19.49,224.44L24.36,209.69L29.23,191.8L34.11,206.24L38.98,188.35L43.85,184.9L48.72,146.76L53.6,136.4L58.47,139.23L63.34,148.64L68.21,139.07L73.09,154.29L77.96,142.52L82.83,132.95L87.7,140.8L92.58,121.18L97.45,125.1L102.32,124.48L107.19,139.38L112.07,138.44L116.94,130.91L121.81,127.46L126.68,130.13L131.56,122.28L136.43,124.79L141.3,124.79L146.17,99.05L151.05,93.25L155.92,109.72L160.79,117.26L165.66,85.56L170.54,92.93L175.41,97.33L180.28,101.56L185.15,103.6L190.03,95.76L194.9,103.29L199.77,111.14L204.64,117.1L209.52,102.03L214.39,107.37L219.26,89.64L224.13,86.81L229.01,88.22L233.88,98.11L238.75,92.77L243.62,99.37L248.5,82.73L253.37,99.84L258.24,95.44L263.11,99.05L272.86,105.64L277.73,88.69L282.6,93.72L287.48,76.77L292.35,73.94L297.22,81.32L302.09,83.36L306.97,94.34L311.84,104.55L316.71,98.74L321.58,100.46L326.46,100.78L331.33,98.11L336.2,100.62L341.07,104.23L345.95,91.05L350.82,99.84L355.69,79.44L360.56,85.71L365.44,95.29L370.31,97.95L375.18,82.89L380.05,73.47L384.93,68.76L389.8,81.63L394.67,90.73L399.54,76.45L404.42,81.32L409.29,85.24L414.16,96.23L419.03,97.95L423.91,87.75L428.78,78.96L433.65,89.01L438.52,89.48L443.4,94.34L448.27,101.25L453.14,97.48L458.01,98.42L462.89,106.11L467.76,100.15L472.63,83.04L477.5,81.32L482.38,68.92L487.25,75.83L492.12,79.91L496.99,87.91L501.87,83.99L506.74,84.14L511.61,88.85L516.48,87.75L521.36,90.58L526.23,92.3L531.1,95.29L540.85,68.76L545.72,86.03L550.59,86.97L555.46,76.77L560.34,83.52L565.21,60.45L570.08,57.46L574.95,63.11L579.83,63.74L584.7,62.33L589.57,65.15L594.44,72.69L599.32,81.32L604.19,93.72L609.06,70.33L613.93,71.27L618.81,75.04L623.68,83.2L628.55,91.52L633.42,96.38L638.3,81.63L643.17,80.85L648.04,75.51L652.91,66.41L657.79,69.23L662.66,78.65L667.53,82.26L672.4,68.14L682.15,71.9L687.02,83.67L691.89,73.94L696.77,68.92L701.64,67.51L706.51,76.3L716.26,78.34L721.13,82.42L726,80.69" style="vector-effect: none; fill: none; stroke: rgb(255, 0, 0); stroke-opacity: 1; stroke-width: 2px; opacity: 1;"/></g><g class="points"/><g class="text"/></g><g class="trace scatter trace6a4996" style="stroke-miterlimit: 2; opacity: 1;"><g class="fills"/><g class="errorbars"/><g class="lines"><path class="js-line" d="M0,364.59L4.87,308.25L9.74,283.77L14.62,248.93L19.49,237L24.36,220.68L29.23,199.02L34.11,205.77L38.98,192.59L43.85,190.86L48.72,161.83L53.6,151.15L58.47,155.71L63.34,160.1L68.21,161.51L73.09,179.56L77.96,168.57L82.83,151.15L87.7,158.22L92.58,136.25L97.45,146.6L102.32,139.54L107.19,158.53L112.07,160.1L116.94,160.73L121.81,155.71L126.68,147.55L131.56,137.34L136.43,136.56L141.3,142.99L146.17,115.37L151.05,115.06L155.92,129.97L160.79,134.52L165.66,105.49L170.54,108L175.41,125.57L180.28,117.1L185.15,119.3L190.03,107.21L194.9,117.57L199.77,116.79L204.64,133.11L209.52,119.3L214.39,124.63L219.26,111.76L224.13,104.07L229.01,113.18L233.88,115.06L238.75,115.37L243.62,118.51L248.5,103.29L253.37,114.59L258.24,112.23L263.11,112.86L267.99,116.79L272.86,123.85L277.73,113.18L282.6,116.47L287.48,100.46L292.35,89.48L297.22,95.13L302.09,112.23L306.97,115.37L311.84,127.77L316.71,120.4L321.58,123.53L326.46,125.57L331.33,126.05L336.2,134.83L341.07,127.77L345.95,109.41L350.82,121.34L355.69,108.63L360.56,113.65L365.44,115.69L370.31,133.11L375.18,109.41L380.05,99.37L384.93,103.29L389.8,121.34L394.67,131.38L399.54,110.04L404.42,108.63L409.29,113.18L414.16,131.69L419.03,124.16L423.91,115.37L428.78,123.22L433.65,127.77L438.52,123.53L443.4,125.57L448.27,133.74L453.14,125.57L458.01,124.95L462.89,127.46L467.76,121.34L472.63,103.29L477.5,111.76L482.38,105.49L487.25,118.98L492.12,112.23L496.99,120.71L506.74,97.33L511.61,109.72L516.48,117.1L521.36,116.47L526.23,115.06L531.1,115.06L535.97,100.15L540.85,90.58L545.72,103.29L550.59,104.07L555.46,101.88L560.34,112.86L565.21,93.4L570.08,83.52L574.95,88.85L579.83,86.34L584.7,77.4L589.57,73.47L594.44,86.03L599.32,94.5L604.19,101.25L609.06,84.14L618.81,103.29L623.68,99.84L628.55,108.63L633.42,121.81L638.3,107.53L643.17,114.59L652.91,88.38L657.79,93.72L662.66,92.3L667.53,103.6L672.4,86.03L677.28,93.72L682.15,95.44L687.02,108.31L691.89,95.44L696.77,88.07L701.64,82.73L706.51,100.78L711.38,103.6L716.26,104.7L721.13,108.31L726,100.78" style="vector-effect: none; fill: none; stroke: rgb(0, 0, 255); stroke-opacity: 1; stroke-width: 2px; opacity: 1;"/></g><g class="points"/><g class="text"/></g><g class="trace scatter trace862d58" style="stroke-miterlimit: 2; opacity: 1;"><g class="fills"/><g class="errorbars"/><g class="lines"><path class="js-line" d="M0,237.16L4.87,213.3L9.74,201.84L14.62,194.31L19.49,188.82L24.36,179.72L29.23,172.34L34.11,173.75L38.98,168.73L43.85,164.18L48.72,149.43L53.6,145.19L58.47,144.88L63.34,148.8L68.21,140.33L73.09,148.02L77.96,145.35L82.83,140.8L87.7,143.46L92.58,139.38L97.45,140.8L102.32,142.05L107.19,145.19L112.07,145.19L116.94,140.95L121.81,142.37L126.68,141.42L131.56,137.97L136.43,137.66L141.3,138.91L146.17,130.91L151.05,127.93L155.92,134.05L160.79,136.87L165.66,126.36L170.54,127.93L175.41,127.46L180.28,131.69L185.15,130.28L190.03,131.22L194.9,133.26L199.77,132.64L204.64,135.62L209.52,131.22L214.39,132.95L219.26,126.2L224.13,125.26L229.01,125.42L233.88,128.56L238.75,126.2L243.62,130.91L248.5,124.16L253.37,129.18L258.24,125.42L263.11,125.73L267.99,127.93L272.86,131.22L277.73,125.57L282.6,129.03L287.48,124.63L292.35,122.75L297.22,126.05L302.09,127.3L306.97,130.44L311.84,131.85L316.71,128.56L321.58,129.65L326.46,130.6L331.33,128.56L336.2,128.87L341.07,130.28L345.95,128.4L350.82,129.18L355.69,121.18L360.56,124.01L365.44,129.5L370.31,127.61L375.18,121.49L380.05,121.65L384.93,119.45L389.8,125.26L394.67,126.99L399.54,120.55L409.29,124.01L414.16,128.09L419.03,128.87L423.91,122.12L428.78,117.73L433.65,123.69L443.4,126.36L448.27,129.34L453.14,126.99L458.01,127.3L462.89,133.11L467.76,129.5L472.63,123.22L477.5,121.81L482.38,116.94L487.25,120.55L492.12,122.44L496.99,125.89L516.48,124.48L521.36,125.73L526.23,127.3L531.1,127.61L535.97,124.32L540.85,118.04L545.72,125.1L550.59,125.26L555.46,119.77L560.34,123.38L565.21,116.32L570.08,114.12L574.95,116.63L579.83,116.94L584.7,116.63L589.57,120.71L599.32,126.36L604.19,131.38L609.06,120.71L613.93,121.49L618.81,122.75L623.68,125.89L628.55,127.61L633.42,125.89L638.3,122.44L643.17,121.65L652.91,115.53L657.79,116.63L662.66,120.08L667.53,122.44L672.4,117.41L677.28,118.36L682.15,118.83L687.02,125.73L691.89,121.49L696.77,119.92L701.64,121.18L706.51,124.32L716.26,124.01L721.13,125.89L726,121.96" style="vector-effect: none; fill: none; stroke: rgb(0, 128, 0); stroke-opacity: 1; stroke-width: 2px; opacity: 1;"/></g><g class="points"/><g class="text"/></g><g class="trace scatter tracec32c87" style="stroke-miterlimit: 2; opacity: 1;"><g class="fills"/><g class="errorbars"/><g class="lines"><path class="js-line" d="M0,243.43L4.87,236.53L9.74,208.12L14.62,199.33L19.49,197.45L24.36,187.09L29.23,172.97L43.85,170.14L48.72,165.44L53.6,158.06L58.47,156.33L63.34,159.79L68.21,157.9L73.09,164.18L77.96,159.79L82.83,151.47L87.7,153.82L92.58,147.07L97.45,154.76L102.32,153.67L107.19,159.47L112.07,159.16L116.94,162.45L121.81,162.92L126.68,155.55L131.56,150.84L136.43,148.33L141.3,153.98L146.17,145.35L151.05,148.49L155.92,152.57L160.79,152.25L165.66,143.15L170.54,141.9L175.41,149.74L180.28,145.98L185.15,145.98L190.03,141.27L194.9,145.35L199.77,142.37L204.64,151.47L209.52,145.98L214.39,151.15L219.26,147.7L224.13,141.11L229.01,140.8L233.88,137.66L238.75,141.58L243.62,142.52L248.5,133.89L253.37,136.4L258.24,133.74L263.11,134.83L267.99,134.83L272.86,142.52L277.73,141.74L282.6,143.46L287.48,139.86L292.35,131.38L297.22,134.36L302.09,144.56L306.97,144.56L311.84,147.07L316.71,144.25L321.58,146.92L326.46,148.96L331.33,147.07L336.2,149.9L341.07,142.52L345.95,140.01L350.82,146.13L355.69,141.74L360.56,143.31L365.44,141.42L370.31,149.11L375.18,140.01L380.05,141.74L384.93,145.35L389.8,153.82L394.67,155.08L399.54,144.41L404.42,140.33L409.29,142.52L414.16,154.92L419.03,148.64L423.91,142.68L428.78,150.84L433.65,153.19L438.52,153.04L448.27,151.78L453.14,148.02L458.01,149.74L462.89,149.27L472.63,136.56L477.5,140.8L482.38,137.34L487.25,148.17L492.12,141.58L496.99,144.72L501.87,142.05L506.74,131.85L511.61,137.5L516.48,144.88L521.36,143.46L526.23,143.46L531.1,143.78L535.97,136.4L540.85,136.87L545.72,143.62L550.59,145.98L555.46,145.51L560.34,148.96L565.21,142.21L570.08,136.4L574.95,137.34L579.83,139.38L584.7,131.38L589.57,128.71L594.44,134.21L599.32,136.72L604.19,140.17L609.06,132.79L613.93,139.7L618.81,142.99L623.68,136.87L628.55,142.37L633.42,145.66L638.3,139.07L643.17,145.98L648.04,135.62L652.91,132.17L657.79,137.66L662.66,132.01L667.53,140.33L672.4,134.83L677.28,138.91L682.15,137.97L687.02,144.41L691.89,136.09L701.64,130.75L706.51,142.21L711.38,142.52L716.26,145.82L721.13,149.9L726,139.7" style="vector-effect: none; fill: none; stroke: rgb(255, 165, 0); stroke-opacity: 1; stroke-width: 2px; opacity: 1;"/></g><g class="points"/><g class="text"/></g><g class="trace scatter traceac6946" style="stroke-miterlimit: 2; opacity: 1;"><g class="fills"/><g class="errorbars"/><g class="lines"><path class="js-line" d="M0,196.98L4.87,152.88L9.74,138.6L14.62,124.32L19.49,115.53L29.23,91.52L34.11,94.66L38.98,86.81L43.85,80.53L48.72,59.66L53.6,54.01L58.47,53.54L63.34,58.72L68.21,47.11L73.09,57.78L77.96,54.01L82.83,47.89L87.7,51.5L92.58,46.48L102.32,50.25L107.19,53.85L112.07,54.01L116.94,48.21L121.81,50.4L126.68,48.99L131.56,44.44L136.43,43.81L141.3,45.69L146.17,36.75L151.05,32.98L155.92,39.89L160.79,43.34L165.66,32.2L170.54,33.14L175.41,31.73L180.28,37.38L185.15,35.18L190.03,37.85L194.9,39.57L199.77,37.85L204.64,41.61L209.52,36.75L214.39,38.63L219.26,31.1L224.13,30.31L229.01,30.31L233.88,33.3L238.75,30.47L243.62,36.59L248.5,29.53L253.37,33.92L258.24,28.9L263.11,28.9L267.99,31.73L272.86,36.12L277.73,30.47L282.6,34.71L292.35,29.37L297.22,32.67L302.09,34.39L306.97,36.91L311.84,37.38L316.71,33.14L326.46,36.12L331.33,33.14L336.2,33.3L341.07,35.02L350.82,34.08L355.69,25.45L360.56,28.43L365.44,35.18L370.31,31.88L375.18,25.14L380.05,27.8L384.93,25.45L389.8,31.41L394.67,32.04L399.54,25.29L404.42,26.86L409.29,28.59L414.16,32.83L419.03,33.77L423.91,25.14L428.78,20.11L433.65,27.33L443.4,30.63L448.27,33.92L453.14,30.94L458.01,31.41L462.89,39.1L467.76,34.24L472.63,27.8L477.5,26.08L482.38,21.53L487.25,25.45L492.12,27.49L496.99,30.94L501.87,30.94L506.74,30.16L511.61,28.75L516.48,28.9L521.36,30.16L526.23,32.35L531.1,32.35L535.97,29.84L540.85,23.1L545.72,30.16L550.59,30.16L555.46,24.04L560.34,27.96L565.21,23.1L570.08,20.43L574.95,22.62L584.7,22.78L589.57,28.9L594.44,31.57L599.32,33.3L604.19,38.32L609.06,27.18L618.81,29.06L623.68,32.04L628.55,32.98L633.42,29.53L638.3,26.86L643.17,25.76L648.04,22.31L652.91,19.8L657.79,20.74L662.66,24.04L667.53,26.86L672.4,22.47L677.28,23.57L682.15,23.72L687.02,31.73L691.89,27.33L696.77,26.23L701.64,28.75L706.51,31.26L711.38,30.63L716.26,30.16L721.13,32.04L726,26.39" style="vector-effect: none; fill: none; stroke: rgb(128, 0, 128); stroke-opacity: 1; stroke-width: 2px; opacity: 1;"/></g><g class="points"/><g class="text"/></g><g class="trace scatter trace461aca" style="stroke-miterlimit: 2; opacity: 1;"><g class="fills"/><g class="errorbars"/><g class="lines"><path class="js-line" d="M0,203.73L4.87,185.05L9.74,147.86L14.62,132.01L19.49,128.09L24.36,113.33L29.23,93.56L34.11,93.09L38.98,91.52L43.85,89.32L48.72,82.1L53.6,72.22L58.47,69.71L63.34,74.41L68.21,71.9L73.09,80.85L77.96,74.57L82.83,63.11L87.7,66.25L92.58,57.31L97.45,67.67L102.32,66.41L107.19,74.1L112.07,73.47L116.94,78.02L121.81,78.65L126.68,68.76L131.56,62.49L136.43,59.03L141.3,66.72L146.17,56.68L155.92,65.63L160.79,64.68L165.66,55.11L170.54,52.76L175.41,61.86L180.28,57.31L185.15,57.15L190.03,51.81L194.9,56.52L199.77,51.97L204.64,63.74L209.52,57.15L214.39,64.21L219.26,60.76L224.13,52.13L229.01,50.25L233.88,45.38L238.75,51.03L243.62,52.13L248.5,41.14L253.37,43.65L258.24,39.89L263.11,41.46L267.99,40.99L272.86,51.66L277.73,51.66L282.6,53.85L287.48,50.87L292.35,40.04L297.22,43.34L302.09,56.05L306.97,55.58L311.84,57.78L316.71,54.33L326.46,60.92L331.33,58.09L336.2,61.39L341.07,51.19L345.95,49.62L350.82,56.99L355.69,52.13L360.56,54.01L365.44,50.87L370.31,60.29L375.18,49.62L380.05,54.17L384.93,58.72L389.8,68.61L394.67,69.08L399.54,56.05L404.42,50.09L409.29,52.76L414.16,68.92L419.03,60.45L423.91,52.6L428.78,63.74L433.65,66.72L438.52,67.04L443.4,66.41L448.27,64.21L453.14,59.35L458.01,61.86L462.89,61.07L467.76,51.97L472.63,45.22L477.5,50.25L482.38,46.01L487.25,60.45L492.12,51.5L496.99,55.11L501.87,52.6L506.74,39.1L511.61,45.85L516.48,55.74L521.36,53.85L526.23,53.85L531.1,54.33L535.97,45.54L540.85,48.36L545.72,56.21L550.59,59.66L555.46,59.35L560.34,62.49L565.21,56.21L570.08,49.62L574.95,49.62L579.83,53.54L584.7,43.18L589.57,40.04L594.44,45.22L599.32,47.42L604.19,51.34L609.06,43.65L613.93,52.13L618.81,55.27L623.68,46.32L628.55,53.23L633.42,56.37L638.3,48.52L643.17,57.62L648.04,44.28L652.91,41.3L657.79,48.83L662.66,40.36L667.53,50.87L672.4,46.32L677.28,50.87L682.15,48.99L687.02,56.52L691.89,46.01L701.64,40.67L706.51,54.64L711.38,54.48L716.26,59.19L721.13,65L726,50.56" style="vector-effect: none; fill: none; stroke: rgb(255, 192, 203); stroke-opacity: 1; stroke-width: 2px; opacity: 1;"/></g><g class="points"/><g class="text"/></g><g class="trace scatter trace646dd9" style="stroke-miterlimit: 2; opacity: 1;"><g class="fills"/><g class="errorbars"/><g class="lines"><path class="js-line" d="M0,376.2L4.87,303.38L9.74,296.32L14.62,269.17L19.49,255.2L29.23,226.33L34.11,237L38.98,222.72L43.85,218.48L48.72,186.78L53.6,178.15L58.47,180.03L63.34,187.72L68.21,177.99L73.09,191.33L82.83,174.07L87.7,180.34L92.58,165.75L97.45,168.89L102.32,169.05L107.19,180.19L112.07,179.56L116.94,172.81L121.81,171.09L126.68,172.5L131.56,165.91L136.43,167.32L141.3,167.95L146.17,148.02L151.05,142.99L155.92,156.02L160.79,162.14L165.66,137.66L170.54,142.84L175.41,145.35L180.28,149.9L185.15,150.53L190.03,146.13L194.9,151.63L204.64,161.51L209.52,149.9L214.39,154.14L219.26,139.86L224.13,137.82L229.01,138.76L233.88,146.29L238.75,141.9L243.62,148.17L248.5,134.83L253.37,147.55L258.24,143.15L267.99,148.33L272.86,152.25L277.73,139.07L282.6,143.94L287.48,131.69L292.35,129.03L297.22,134.99L302.09,136.87L311.84,151.78L316.71,146.6L321.58,148.33L326.46,148.96L331.33,146.29L336.2,148.02L341.07,150.84L345.95,141.9L350.82,147.7L355.69,131.38L360.56,136.56L365.44,145.03L370.31,145.66L375.18,133.58L380.05,128.24L384.93,124.32L389.8,134.83L394.67,140.95L399.54,129.34L404.42,133.11L409.29,136.25L414.16,144.88L419.03,146.29L423.91,136.87L428.78,129.34L433.65,138.44L438.52,139.23L443.4,142.84L448.27,148.49L453.14,145.03L458.01,145.82L462.89,153.51L467.76,148.02L472.63,134.52L477.5,132.79L482.38,123.06L487.25,129.03L492.12,132.32L496.99,138.76L501.87,136.25L506.74,135.93L511.61,138.76L516.48,137.97L521.36,140.33L531.1,144.09L535.97,134.52L540.85,123.53L545.72,137.19L550.59,137.82L555.46,129.03L560.34,134.83L565.21,118.04L570.08,115.22L574.95,119.77L579.83,120.24L584.7,119.3L589.57,123.22L594.44,129.03L599.32,135.15L604.19,145.03L609.06,126.05L613.93,126.83L618.81,129.65L623.68,136.09L628.55,141.74L633.42,143.94L638.3,133.26L643.17,132.32L648.04,127.77L652.91,121.02L657.79,123.06L662.66,130.44L667.53,133.74L672.4,122.91L682.15,125.73L687.02,136.25L691.89,128.4L696.77,124.79L701.64,124.63L706.51,131.22L716.26,132.17L721.13,135.46L726,132.48" style="vector-effect: none; fill: none; stroke: rgb(165, 42, 42); stroke-opacity: 1; stroke-width: 2px; opacity: 1;"/></g><g class="points"/><g class="text"/></g><g class="trace scatter trace5977b3" style="stroke-miterlimit: 2; opacity: 1;"><g class="fills"/><g class="errorbars"/><g class="lines"><path class="js-line" d="M0,376.2L4.87,330.53L9.74,304.48L14.62,276.08L19.49,266.66L24.36,251.59L29.23,231.51L34.11,235.9L38.98,226.48L43.85,224.76L48.72,203.1L53.6,193.06L58.47,195.41L63.34,199.65L68.21,199.8L73.09,214.56L77.96,205.45L82.83,190.39L87.7,196.04L92.58,178.62L97.45,188.66L102.32,183.64L107.19,198.55L112.07,199.33L116.94,201.22L121.81,198.08L126.68,189.76L131.56,180.97L136.43,179.4L141.3,185.99L146.17,164.65L151.05,166.06L155.92,177.05L160.79,179.72L165.66,157.75L170.54,158.53L175.41,173.13L180.28,166.06L185.15,167.48L190.03,157.75L194.9,166.06L199.77,164.18L204.64,178.62L209.52,167.48L214.39,173.13L224.13,155.86L229.01,161.2L233.88,160.88L238.75,162.92L243.62,165.44L248.5,151.78L253.37,160.1L258.24,157.28L263.11,158.22L267.99,160.73L272.86,168.73L277.73,161.67L282.6,164.49L287.48,153.19L292.35,142.37L297.22,147.23L302.09,162.45L306.97,164.34L311.84,173.13L316.71,167.16L321.58,170.46L326.46,172.81L331.33,172.18L336.2,178.93L341.07,171.24L345.95,158.53L350.82,168.73L355.69,158.84L360.56,162.61L365.44,163.08L370.31,177.52L375.18,158.53L380.05,153.51L384.93,157.59L389.8,172.5L394.67,179.09L399.54,161.04L404.42,158.22L409.29,161.98L414.16,179.25L423.91,163.4L428.78,172.03L433.65,176.11L438.52,173.44L443.4,174.54L448.27,179.25L453.14,172.34L458.01,172.65L462.89,174.07L467.76,167.16L472.63,153.04L477.5,160.26L482.38,154.76L487.25,168.26L492.12,160.88L496.99,167.63L501.87,159L506.74,147.23L511.61,157.59L516.48,165.59L526.23,163.55L531.1,163.71L535.97,151.15L540.85,145.82L545.72,156.8L550.59,158.37L555.46,156.96L560.34,165.12L565.21,150.53L570.08,141.9L574.95,145.19L579.83,145.03L584.7,135.78L589.57,132.17L594.44,141.9L599.32,148.02L604.19,153.82L609.06,140.17L613.93,149.43L618.81,156.49L623.68,151.15L628.55,159.16L633.42,168.73L638.3,156.96L643.17,164.65L648.04,151L652.91,142.21L657.79,148.17L662.66,144.41L667.53,155.24L672.4,142.21L677.28,148.8L682.15,149.27L687.02,160.1L691.89,148.33L696.77,142.52L701.64,138.29L706.51,154.61L716.26,158.69L721.13,162.92L726,153.35" style="vector-effect: none; fill: none; stroke: rgb(128, 128, 128); stroke-opacity: 1; stroke-width: 2px; opacity: 1;"/></g><g class="points"/><g class="text"/></g></g></g><g class="overplot"/><path class="xlines-above crisp" d="M0,0" style="fill: none;"/><path class="ylines-above crisp" d="M0,0" style="fill: none;"/><g class="overlines-above"/><g class="xaxislayer-above"><g class="xtick"><text text-anchor="middle" x="0" y="509" transform="translate(235.57999999999998,0)" style="font-family: 'Open Sans', verdana, arial, sans-serif; font-size: 12px; fill: rgb(42, 63, 95); fill-opacity: 1; white-space: pre; opacity: 1;">20</text></g><g class="xtick"><text text-anchor="middle" x="0" y="509" style="font-family: 'Open Sans', verdana, arial, sans-serif; font-size: 12px; fill: rgb(42, 63, 95); fill-opacity: 1; white-space: pre; opacity: 1;" transform="translate(333.03,0)">40</text></g><g class="xtick"><text text-anchor="middle" x="0" y="509" style="font-family: 'Open Sans', verdana, arial, sans-serif; font-size: 12px; fill: rgb(42, 63, 95); fill-opacity: 1; white-space: pre; opacity: 1;" transform="translate(430.48,0)">60</text></g><g class="xtick"><text text-anchor="middle" x="0" y="509" style="font-family: 'Open Sans', verdana, arial, sans-serif; font-size: 12px; fill: rgb(42, 63, 95); fill-opacity: 1; white-space: pre; opacity: 1;" transform="translate(527.9300000000001,0)">80</text></g><g class="xtick"><text text-anchor="middle" x="0" y="509" style="font-family: 'Open Sans', verdana, arial, sans-serif; font-size: 12px; fill: rgb(42, 63, 95); fill-opacity: 1; white-space: pre; opacity: 1;" transform="translate(625.38,0)">100</text></g><g class="xtick"><text text-anchor="middle" x="0" y="509" style="font-family: 'Open Sans', verdana, arial, sans-serif; font-size: 12px; fill: rgb(42, 63, 95); fill-opacity: 1; white-space: pre; opacity: 1;" transform="translate(722.83,0)">120</text></g><g class="xtick"><text text-anchor="middle" x="0" y="509" style="font-family: 'Open Sans', verdana, arial, sans-serif; font-size: 12px; fill: rgb(42, 63, 95); fill-opacity: 1; white-space: pre; opacity: 1;" transform="translate(820.28,0)">140</text></g></g><g class="yaxislayer-above"><g class="ytick"><text text-anchor="end" x="142" y="4.199999999999999" transform="translate(0,492.52)" style="font-family: 'Open Sans', verdana, arial, sans-serif; font-size: 12px; fill: rgb(42, 63, 95); fill-opacity: 1; white-space: pre; opacity: 1;">50</text></g><g class="ytick"><text text-anchor="end" x="142" y="4.199999999999999" style="font-family: 'Open Sans', verdana, arial, sans-serif; font-size: 12px; fill: rgb(42, 63, 95); fill-opacity: 1; white-space: pre; opacity: 1;" transform="translate(0,414.05)">55</text></g><g class="ytick"><text text-anchor="end" x="142" y="4.199999999999999" style="font-family: 'Open Sans', verdana, arial, sans-serif; font-size: 12px; fill: rgb(42, 63, 95); fill-opacity: 1; white-space: pre; opacity: 1;" transform="translate(0,335.59000000000003)">60</text></g><g class="ytick"><text text-anchor="end" x="142" y="4.199999999999999" style="font-family: 'Open Sans', verdana, arial, sans-serif; font-size: 12px; fill: rgb(42, 63, 95); fill-opacity: 1; white-space: pre; opacity: 1;" transform="translate(0,257.12)">65</text></g><g class="ytick"><text text-anchor="end" x="142" y="4.199999999999999" style="font-family: 'Open Sans', verdana, arial, sans-serif; font-size: 12px; fill: rgb(42, 63, 95); fill-opacity: 1; white-space: pre; opacity: 1;" transform="translate(0,178.65)">70</text></g><g class="ytick"><text text-anchor="end" x="142" y="4.199999999999999" style="font-family: 'Open Sans', verdana, arial, sans-serif; font-size: 12px; fill: rgb(42, 63, 95); fill-opacity: 1; white-space: pre; opacity: 1;" transform="translate(0,100.18)">75</text></g></g><g class="overaxes-above"/></g></g><g class="polarlayer"/><g class="smithlayer"/><g class="ternarylayer"/><g class="geolayer"/><g class="funnelarealayer"/><g class="pielayer"/><g class="iciclelayer"/><g class="treemaplayer"/><g class="sunburstlayer"/><g class="glimages"/><defs id="topdefs-1247d9"><g class="clips"/><clipPath id="legend1247d9"><rect width="128" height="162" x="0" y="0"/></clipPath></defs><g class="layer-above"><g class="imagelayer"/><g class="shapelayer"/></g><g class="infolayer"><g class="legend" pointer-events="all" transform="translate(883.52,100)"><rect class="bg" shape-rendering="crispEdges" width="128" height="162" x="0" y="0" style="stroke: rgb(68, 68, 68); stroke-opacity: 1; fill: rgb(255, 255, 255); fill-opacity: 1; stroke-width: 0px;"/><g class="scrollbox" transform="" clip-path="url(#legend1247d9)"><g class="groups"><g class="traces" transform="translate(0,14.5)" style="opacity: 1;"><text class="legendtext" text-anchor="start" x="40" y="4.680000000000001" style="font-family: 'Open Sans', verdana, arial, sans-serif; font-size: 12px; fill: rgb(42, 63, 95); fill-opacity: 1; white-space: pre;">Train Accuracy</text><g class="layers" style="opacity: 1;"><g class="legendfill"/><g class="legendlines"><path class="js-line" d="M5,0h30" style="fill: none; stroke: rgb(255, 0, 0); stroke-opacity: 1; stroke-width: 2px;"/></g><g class="legendsymbols"><g class="legendpoints"/></g></g><rect class="legendtoggle" x="0" y="-9.5" width="122.71875" height="19" style="fill: rgb(0, 0, 0); fill-opacity: 0;"/></g><g class="traces" transform="translate(0,33.5)" style="opacity: 1;"><text class="legendtext" text-anchor="start" x="40" y="4.680000000000001" style="font-family: 'Open Sans', verdana, arial, sans-serif; font-size: 12px; fill: rgb(42, 63, 95); fill-opacity: 1; white-space: pre;">Test Accuracy</text><g class="layers" style="opacity: 1;"><g class="legendfill"/><g class="legendlines"><path class="js-line" d="M5,0h30" style="fill: none; stroke: rgb(0, 0, 255); stroke-opacity: 1; stroke-width: 2px;"/></g><g class="legendsymbols"><g class="legendpoints"/></g></g><rect class="legendtoggle" x="0" y="-9.5" width="122.71875" height="19" style="fill: rgb(0, 0, 0); fill-opacity: 0;"/></g><g class="traces" transform="translate(0,52.5)" style="opacity: 1;"><text class="legendtext" text-anchor="start" x="40" y="4.680000000000001" style="font-family: 'Open Sans', verdana, arial, sans-serif; font-size: 12px; fill: rgb(42, 63, 95); fill-opacity: 1; white-space: pre;">Train Precision</text><g class="layers" style="opacity: 1;"><g class="legendfill"/><g class="legendlines"><path class="js-line" d="M5,0h30" style="fill: none; stroke: rgb(0, 128, 0); stroke-opacity: 1; stroke-width: 2px;"/></g><g class="legendsymbols"><g class="legendpoints"/></g></g><rect class="legendtoggle" x="0" y="-9.5" width="122.71875" height="19" style="fill: rgb(0, 0, 0); fill-opacity: 0;"/></g><g class="traces" transform="translate(0,71.5)" style="opacity: 1;"><text class="legendtext" text-anchor="start" x="40" y="4.680000000000001" style="font-family: 'Open Sans', verdana, arial, sans-serif; font-size: 12px; fill: rgb(42, 63, 95); fill-opacity: 1; white-space: pre;">Test Precision</text><g class="layers" style="opacity: 1;"><g class="legendfill"/><g class="legendlines"><path class="js-line" d="M5,0h30" style="fill: none; stroke: rgb(255, 165, 0); stroke-opacity: 1; stroke-width: 2px;"/></g><g class="legendsymbols"><g class="legendpoints"/></g></g><rect class="legendtoggle" x="0" y="-9.5" width="122.71875" height="19" style="fill: rgb(0, 0, 0); fill-opacity: 0;"/></g><g class="traces" transform="translate(0,90.5)" style="opacity: 1;"><text class="legendtext" text-anchor="start" x="40" y="4.680000000000001" style="font-family: 'Open Sans', verdana, arial, sans-serif; font-size: 12px; fill: rgb(42, 63, 95); fill-opacity: 1; white-space: pre;">Train Recall</text><g class="layers" style="opacity: 1;"><g class="legendfill"/><g class="legendlines"><path class="js-line" d="M5,0h30" style="fill: none; stroke: rgb(128, 0, 128); stroke-opacity: 1; stroke-width: 2px;"/></g><g class="legendsymbols"><g class="legendpoints"/></g></g><rect class="legendtoggle" x="0" y="-9.5" width="122.71875" height="19" style="fill: rgb(0, 0, 0); fill-opacity: 0;"/></g><g class="traces" transform="translate(0,109.5)" style="opacity: 1;"><text class="legendtext" text-anchor="start" x="40" y="4.680000000000001" style="font-family: 'Open Sans', verdana, arial, sans-serif; font-size: 12px; fill: rgb(42, 63, 95); fill-opacity: 1; white-space: pre;">Test Recall</text><g class="layers" style="opacity: 1;"><g class="legendfill"/><g class="legendlines"><path class="js-line" d="M5,0h30" style="fill: none; stroke: rgb(255, 192, 203); stroke-opacity: 1; stroke-width: 2px;"/></g><g class="legendsymbols"><g class="legendpoints"/></g></g><rect class="legendtoggle" x="0" y="-9.5" width="122.71875" height="19" style="fill: rgb(0, 0, 0); fill-opacity: 0;"/></g><g class="traces" transform="translate(0,128.5)" style="opacity: 1;"><text class="legendtext" text-anchor="start" x="40" y="4.680000000000001" style="font-family: 'Open Sans', verdana, arial, sans-serif; font-size: 12px; fill: rgb(42, 63, 95); fill-opacity: 1; white-space: pre;">Train F1</text><g class="layers" style="opacity: 1;"><g class="legendfill"/><g class="legendlines"><path class="js-line" d="M5,0h30" style="fill: none; stroke: rgb(165, 42, 42); stroke-opacity: 1; stroke-width: 2px;"/></g><g class="legendsymbols"><g class="legendpoints"/></g></g><rect class="legendtoggle" x="0" y="-9.5" width="122.71875" height="19" style="fill: rgb(0, 0, 0); fill-opacity: 0;"/></g><g class="traces" transform="translate(0,147.5)" style="opacity: 1;"><text class="legendtext" text-anchor="start" x="40" y="4.680000000000001" style="font-family: 'Open Sans', verdana, arial, sans-serif; font-size: 12px; fill: rgb(42, 63, 95); fill-opacity: 1; white-space: pre;">Test F1</text><g class="layers" style="opacity: 1;"><g class="legendfill"/><g class="legendlines"><path class="js-line" d="M5,0h30" style="fill: none; stroke: rgb(128, 128, 128); stroke-opacity: 1; stroke-width: 2px;"/></g><g class="legendsymbols"><g class="legendpoints"/></g></g><rect class="legendtoggle" x="0" y="-9.5" width="122.71875" height="19" style="fill: rgb(0, 0, 0); fill-opacity: 0;"/></g></g></g><rect class="scrollbar" rx="20" ry="3" width="0" height="0" x="0" y="0" style="fill: rgb(128, 139, 164); fill-opacity: 1;"/></g><g class="g-gtitle"><text class="gtitle" x="51.2" y="50" text-anchor="start" dy="0em" style="font-family: 'Open Sans', verdana, arial, sans-serif; font-size: 17px; fill: rgb(42, 63, 95); opacity: 1; font-weight: normal; white-space: pre;">Training Metrics - logs/FakeNewsNet-gossipcop_max-vocab=15000_pre=v2_text_T=250_s=5.log</text></g><g class="g-xtitle"><text class="xtitle" x="506" y="537.3" text-anchor="middle" style="font-family: 'Open Sans', verdana, arial, sans-serif; font-size: 14px; fill: rgb(42, 63, 95); opacity: 1; font-weight: normal; white-space: pre;">Epoch</text></g><g class="g-ytitle"><text class="ytitle" transform="rotate(-90,103.965625,298)" x="103.965625" y="298" text-anchor="middle" style="font-family: 'Open Sans', verdana, arial, sans-serif; font-size: 14px; fill: rgb(42, 63, 95); opacity: 1; font-weight: normal; white-space: pre;">Metric Score</text></g></g><g class="menulayer"><g class="updatemenu-container" style="cursor: pointer;"><g class="updatemenu-header-group" transform="translate(12,60)"><g class="updatemenu-header" transform="translate(1,1)" style="pointer-events: all;"><rect class="updatemenu-item-rect" rx="2" ry="2" shape-rendering="crispEdges" x="0" y="0" width="167" height="33" style="stroke: rgb(190, 200, 217); stroke-opacity: 1; fill: rgb(255, 255, 255); fill-opacity: 1; stroke-width: 1px;"/><text class="updatemenu-item-text" text-anchor="start" data-notex="1" x="12" y="19.5" style="font-family: 'Open Sans', verdana, arial, sans-serif; font-size: 12px; fill: rgb(42, 63, 95); fill-opacity: 1; white-space: pre;">All</text></g><text class="updatemenu-header-arrow" text-anchor="end" x="163" y="19.5" style="font-family: 'Open Sans', verdana, arial, sans-serif; font-size: 12px; fill: rgb(42, 63, 95); fill-opacity: 1;">▼</text></g><g class="updatemenu-dropdown-button-group" updatemenu-active-index="-1" style="pointer-events: all;"><rect class="scrollbox-bg" opacity="0" x="0" y="0" width="0" height="0" style="pointer-events: all;"/></g></g></g></svg>