<svg class="main-svg" xmlns="http://www.w3.org/2000/svg" xmlns:xlink="http://www.w3.org/1999/xlink" width="1024" height="576" style="" viewBox="0 0 1024 576"><rect x="0" y="0" width="1024" height="576" style="fill: rgb(255, 255, 255); fill-opacity: 1;"/><defs id="defs-03f4f0"><g class="clips"><clipPath id="clip03f4f0xyplot" class="plotclip"><rect width="726" height="396"/></clipPath><clipPath class="axesclip" id="clip03f4f0x"><rect x="143" y="0" width="726" height="576"/></clipPath><clipPath class="axesclip" id="clip03f4f0y"><rect x="0" y="100" width="1024" height="396"/></clipPath><clipPath class="axesclip" id="clip03f4f0xy"><rect x="143" y="100" width="726" height="396"/></clipPath></g><g class="gradients"/><g class="patterns"/></defs><g class="bglayer"><rect class="bg" x="143" y="100" width="726" height="396" style="fill: rgb(229, 236, 246); fill-opacity: 1; stroke-width: 0;"/></g><g class="layer-below"><g class="imagelayer"/><g class="shapelayer"/></g><g class="cartesianlayer"><g class="subplot xy"><g class="layer-subplot"><g class="shapelayer"/><g class="imagelayer"/></g><g class="minor-gridlayer"><g class="x"/><g class="y"/></g><g class="gridlayer"><g class="x"><path class="xgrid crisp" transform="translate(235.57999999999998,0)" d="M0,100v396" style="stroke: rgb(255, 255, 255); stroke-opacity: 1; stroke-width: 1px;"/><path class="xgrid crisp" transform="translate(333.03,0)" d="M0,100v396" style="stroke: rgb(255, 255, 255); stroke-opacity: 1; stroke-width: 1px;"/><path class="xgrid crisp" transform="translate(430.48,0)" d="M0,100v396" style="stroke: rgb(255, 255, 255); stroke-opacity: 1; stroke-width: 1px;"/><path class="xgrid crisp" transform="translate(527.9300000000001,0)" d="M0,100v396" style="stroke: rgb(255, 255, 255); stroke-opacity: 1; stroke-width: 1px;"/><path class="xgrid crisp" transform="translate(625.38,0)" d="M0,100v396" style="stroke: rgb(255, 255, 255); stroke-opacity: 1; stroke-width: 1px;"/><path class="xgrid crisp" transform="translate(722.83,0)" d="M0,100v396" style="stroke: rgb(255, 255, 255); stroke-opacity: 1; stroke-width: 1px;"/><path class="xgrid crisp" transform="translate(820.28,0)" d="M0,100v396" style="stroke: rgb(255, 255, 255); stroke-opacity: 1; stroke-width: 1px;"/></g><g class="y"><path class="ygrid crisp" transform="translate(0,434.28)" d="M143,0h726" style="stroke: rgb(255, 255, 255); stroke-opacity: 1; stroke-width: 1px;"/><path class="ygrid crisp" transform="translate(0,365.56)" d="M143,0h726" style="stroke: rgb(255, 255, 255); stroke-opacity: 1; stroke-width: 1px;"/><path class="ygrid crisp" transform="translate(0,296.83000000000004)" d="M143,0h726" style="stroke: rgb(255, 255, 255); stroke-opacity: 1; stroke-width: 1px;"/><path class="ygrid crisp" transform="translate(0,228.11)" d="M143,0h726" style="stroke: rgb(255, 255, 255); stroke-opacity: 1; stroke-width: 1px;"/><path class="ygrid crisp" transform="translate(0,159.38)" d="M143,0h726" style="stroke: rgb(255, 255, 255); stroke-opacity: 1; stroke-width: 1px;"/></g></g><g class="zerolinelayer"/><path class="xlines-below"/><path class="ylines-below"/><g class="overlines-below"/><g class="xaxislayer-below"/><g class="yaxislayer-below"/><g class="overaxes-below"/><g class="plot" transform="translate(143,100)" clip-path="url(#clip03f4f0xyplot)"><g class="scatterlayer mlayer"><g class="trace scatter trace2b7d10" style="stroke-miterlimit: 2; opacity: 1;"><g class="fills"/><g class="errorbars"/><g class="lines"><path class="js-line" d="M0,346.24L4.87,346.79L9.74,297.72L14.62,305.28L19.49,275.73L24.36,367.54L29.23,241.64L34.11,189.96L38.98,185.84L43.85,209.34L48.72,215.25L53.6,214.01L58.47,216.62L63.34,214.29L68.21,238.75L73.09,239.72L77.96,154.5L82.83,145.98L87.7,141.17L92.58,145.15L97.45,102.96L102.32,94.98L107.19,111.06L112.07,130.86L116.94,134.98L121.81,134.43L126.68,113.4L131.56,123.98L136.43,93.75L141.3,98.56L146.17,198.89L151.05,198.76L155.92,313.52L160.79,209.2L165.66,213.74L170.54,129.35L175.41,139.1L180.28,149.14L185.15,227.21L190.03,236.83L194.9,128.52L199.77,158.76L204.64,162.47L209.52,92.92L214.39,96.91L219.26,84.54L224.13,105.43L229.01,120.27L233.88,166.18L238.75,169.34L243.62,110.93L248.5,117.66L253.37,203.7L258.24,202.88L263.11,190.92L267.99,199.31L272.86,200.82L277.73,207.42L282.6,178.28L287.48,181.16L292.35,168.79L297.22,175.53L302.09,163.43L306.97,178.55L311.84,71.62L316.71,72.3L321.58,60.48L326.46,163.98L331.33,188.45L336.2,89.62L341.07,107.35L345.95,120.27L350.82,123.57L355.69,120.69L360.56,121.51L365.44,120.69L370.31,118.49L375.18,107.08L380.05,108.32L384.93,108.87L389.8,105.98L394.67,100.89L399.54,117.94L409.29,89.07L414.16,86.6L419.03,91.55L423.91,58.29L428.78,161.23L433.65,175.53L438.52,178L443.4,171.82L448.27,279.71L453.14,246.72L458.01,237.79L462.89,238.48L467.76,240.54L472.63,156.7L477.5,88.52L482.38,91.68L487.25,187.62L492.12,189.82L496.99,185.84L501.87,206.73L511.61,179.38L516.48,197.93L521.36,206.45L526.23,206.18L531.1,208.24L535.97,122.61L540.85,119.45L545.72,127.28L550.59,68.59L555.46,153.95L560.34,88.94L565.21,90.04L570.08,70.79L574.95,67.63L584.7,79.59L589.57,151.34L594.44,152.85L599.32,138.83L604.19,141.99L609.06,137.45L613.93,214.97L618.81,144.05L623.68,117.8L628.55,65.84L633.42,94.43L638.3,100.48L643.17,164.12L648.04,149.69L652.91,152.85L657.79,155.05L662.66,148.45L667.53,144.6L672.4,149.41L677.28,139.52L682.15,138.14L687.02,146.11L691.89,147.63L696.77,210.58L701.64,190.78L706.51,189.41L711.38,154.36L716.26,161.1L721.13,161.51L726,134.98" style="vector-effect: none; fill: none; stroke: rgb(255, 0, 0); stroke-opacity: 1; stroke-width: 2px; opacity: 1;"/></g><g class="points"/><g class="text"/></g><g class="trace scatter trace597aa2" style="stroke-miterlimit: 2; opacity: 1;"><g class="fills"/><g class="errorbars"/><g class="lines"><path class="js-line" d="M0,359.43L4.87,339.23L9.74,294.28L14.62,301.7L19.49,271.6L24.36,374.28L29.23,243.7L34.11,197.38L38.98,190.92L43.85,218.82L48.72,220.06L53.6,220.61L58.47,217.86L63.34,216.9L68.21,250.85L73.09,253.87L77.96,159.86L82.83,149L87.7,155.19L92.58,160.41L97.45,116.98L102.32,110.79L107.19,123.57L112.07,145.29L116.94,151.2L121.81,152.02L126.68,125.08L131.56,126.87L136.43,98.01L141.3,104.88L146.17,203.57L151.05,199.31L155.92,318.47L160.79,213.88L165.66,221.02L170.54,134.71L175.41,142.13L180.28,163.57L185.15,239.58L190.03,243.7L194.9,132.78L199.77,169.2L204.64,172.5L209.52,113.26L214.39,98.97L219.26,96.22L224.13,120.41L229.01,129.07L233.88,170.03L238.75,175.94L243.62,120.69L248.5,125.08L253.37,214.42L258.24,212.23L263.11,206.45L272.86,215.39L277.73,217.86L282.6,196.14L287.48,189.68L292.35,188.45L297.22,192.71L302.09,180.34L306.97,188.04L311.84,88.8L316.71,90.31L321.58,79.18L326.46,168.52L331.33,196.14L336.2,98.01L341.07,126.87L345.95,135.67L350.82,128.52L355.69,127.56L360.56,133.19L365.44,129.07L370.31,125.08L375.18,110.79L380.05,112.99L384.93,124.12L389.8,120.14L394.67,112.71L399.54,132.51L404.42,117.25L409.29,105.15L414.16,106.12L419.03,114.23L423.91,77.53L428.78,191.47L433.65,204.25L438.52,212.91L443.4,201.09L448.27,298.54L453.14,260.74L458.01,252.36L462.89,251.4L467.76,253.87L472.63,186.52L477.5,99.66L482.38,103.92L487.25,197.66L492.12,207.69L496.99,204.25L501.87,221.85L506.74,207.96L511.61,199.86L516.48,211.4L521.36,207.69L526.23,212.23L531.1,221.3L535.97,129.35L540.85,130.72L545.72,141.17L550.59,96.5L555.46,169.75L560.34,116.01L565.21,107.35L570.08,90.86L574.95,88.8L579.83,84.13L584.7,97.73L589.57,161.37L594.44,163.29L599.32,150.79L604.19,154.5L609.06,148.73L613.93,215.39L618.81,156.42L623.68,121.92L628.55,77.94L638.3,114.23L643.17,174.15L648.04,163.84L652.91,165.77L657.79,171.27L662.66,162.88L667.53,156.97L672.4,159.58L677.28,151.75L682.15,152.44L687.02,166.04L691.89,165.36L696.77,221.85L701.64,202.33L706.51,199.86L711.38,162.33L716.26,170.72L721.13,180.61L726,157.38" style="vector-effect: none; fill: none; stroke: rgb(0, 0, 255); stroke-opacity: 1; stroke-width: 2px; opacity: 1;"/></g><g class="points"/><g class="text"/></g><g class="trace scatter trace000490" style="stroke-miterlimit: 2; opacity: 1;"><g class="fills"/><g class="errorbars"/><g class="lines"><path class="js-line" d="M0,230.78L4.87,211.13L9.74,201.23L14.62,181.44L19.49,174.15L24.36,193.67L29.23,172.23L34.11,156.7L38.98,155.46L43.85,163.98L48.72,167.01L53.6,170.58L58.47,167.56L63.34,164.39L68.21,171.27L73.09,171.82L77.96,147.49L82.83,143.36L87.7,136.08L92.58,145.7L97.45,129.76L102.32,124.95L107.19,122.61L112.07,127.7L116.94,129.07L121.81,129.62L126.68,124.4L131.56,129.76L136.43,145.29L141.3,146.53L146.17,182.26L151.05,184.6L155.92,184.74L160.79,156.01L165.66,156.97L170.54,129.35L175.41,132.92L180.28,135.94L185.15,158.07L190.03,160.68L194.9,130.99L199.77,141.03L204.64,142.4L209.52,116.84L214.39,119.17L219.26,112.3L224.13,117.11L229.01,122.47L233.88,138.14L238.75,140.62L243.62,118.9L248.5,119.72L253.37,149.14L258.24,149.96L263.11,149.96L267.99,149.14L272.86,155.05L277.73,156.83L282.6,147.21L287.48,150.51L292.35,147.49L297.22,147.49L302.09,144.46L306.97,147.63L311.84,107.63L316.71,132.64L321.58,125.5L326.46,171.68L331.33,147.9L336.2,114.64L341.07,120.41L345.95,124.26L350.82,125.5L355.69,127.42L360.56,127.83L365.44,123.02L370.31,120.55L375.18,117.25L380.05,117.8L384.93,118.07L389.8,116.84L394.67,117.66L399.54,124.81L404.42,121.79L409.29,117.25L414.16,116.56L419.03,117.39L423.91,104.33L428.78,142.82L433.65,141.58L438.52,143.09L443.4,141.03L448.27,168.52L453.14,161.23L458.01,169.2L462.89,167.56L467.76,166.73L477.5,115.19L482.38,115.74L487.25,149L492.12,150.92L496.99,150.51L501.87,155.6L506.74,152.99L511.61,149.14L516.48,153.95L521.36,156.28L531.1,155.19L535.97,123.3L540.85,120.96L545.72,123.57L550.59,102.27L555.46,132.09L560.34,108.59L565.21,108.59L570.08,103.37L574.95,106.39L579.83,106.12L584.7,107.9L589.57,132.64L594.44,134.98L599.32,131.13L604.19,130.72L609.06,130.31L613.93,155.32L618.81,132.51L623.68,158.07L628.55,133.06L633.42,115.74L638.3,113.95L643.17,135.94L648.04,131.54L652.91,133.06L657.79,131.96L662.66,133.61L667.53,134.57L672.4,136.9L677.28,134.02L682.15,134.02L687.02,132.64L691.89,133.06L696.77,151.89L701.64,149.28L706.51,146.66L711.38,137.18L716.26,139.38L721.13,139.52L726,127.42" style="vector-effect: none; fill: none; stroke: rgb(0, 128, 0); stroke-opacity: 1; stroke-width: 2px; opacity: 1;"/></g><g class="points"/><g class="text"/></g><g class="trace scatter traceb0f760" style="stroke-miterlimit: 2; opacity: 1;"><g class="fills"/><g class="errorbars"/><g class="lines"><path class="js-line" d="M0,240.95L4.87,214.01L9.74,202.19L14.62,180.2L19.49,177.59L24.36,202.88L29.23,174.7L34.11,166.32L38.98,163.43L43.85,170.99L48.72,170.44L53.6,173.6L58.47,166.59L63.34,165.36L68.21,178.83L73.09,179.24L77.96,148.59L82.83,144.05L87.7,148.73L92.58,158.62L97.45,141.85L107.19,133.33L112.07,139.79L116.94,140.89L121.81,143.64L126.68,129.35L131.56,129.35L136.43,144.46L141.3,146.66L146.17,188.17L151.05,186.52L155.92,185.29L160.79,161.92L165.66,162.61L170.54,133.06L175.41,137.32L180.28,146.94L185.15,165.63L190.03,163.29L194.9,131.82L199.77,148.73L204.64,152.71L209.52,130.86L214.39,122.34L219.26,123.71L224.13,128.38L229.01,130.03L233.88,144.05L238.75,147.76L243.62,126.87L248.5,128.11L253.37,158.76L258.24,161.23L263.11,163.43L267.99,162.47L272.86,165.49L277.73,163.98L287.48,158.35L292.35,164.39L297.22,162.2L302.09,157.93L306.97,156.56L311.84,123.16L316.71,143.78L321.58,138.97L326.46,174.7L331.33,152.57L336.2,118.21L341.07,129.62L345.95,131.96L350.82,126.6L355.69,131.27L360.56,131.41L365.44,128.52L370.31,123.57L375.18,120.14L380.05,120.27L384.93,128.25L389.8,126.6L394.67,121.65L399.54,131.13L404.42,124.67L409.29,124.95L419.03,130.44L423.91,120.27L428.78,159.86L433.65,153.81L438.52,158.07L443.4,152.85L448.27,172.37L453.14,165.36L458.01,175.12L462.89,173.19L467.76,172.92L472.63,156.28L477.5,122.89L482.38,124.26L487.25,152.16L492.12,158.9L496.99,162.61L501.87,162.2L506.74,164.12L511.61,161.78L516.48,161.65L521.36,153.67L526.23,157.93L531.1,158.9L535.97,125.63L540.85,126.6L545.72,129.62L550.59,121.92L555.46,144.19L560.34,127.15L565.21,118.35L570.08,117.66L574.95,120.82L579.83,113.13L584.7,118.9L589.57,140.48L594.44,144.05L599.32,142.95L604.19,141.17L609.06,140.62L613.93,160.27L618.81,145.01L623.68,165.91L628.55,143.23L633.42,119.17L638.3,124.26L643.17,145.15L648.04,143.64L652.91,143.5L657.79,145.29L662.66,144.33L667.53,142.54L672.4,141.3L677.28,142.4L687.02,146.39L691.89,145.01L696.77,161.92L701.64,151.47L706.51,150.51L711.38,142.68L716.26,143.23L721.13,149L726,144.46" style="vector-effect: none; fill: none; stroke: rgb(255, 165, 0); stroke-opacity: 1; stroke-width: 2px; opacity: 1;"/></g><g class="points"/><g class="text"/></g><g class="trace scatter traceaa8974" style="stroke-miterlimit: 2; opacity: 1;"><g class="fills"/><g class="errorbars"/><g class="lines"><path class="js-line" d="M0,205.08L14.62,144.6L19.49,129.35L24.36,175.39L29.23,119.59L34.11,93.06L38.98,91.13L43.85,104.47L48.72,108.87L53.6,113.13L58.47,109.69L63.34,105.57L68.21,117.8L73.09,118.62L77.96,78.63L82.83,72.85L87.7,62.96L92.58,76.02L97.45,55.81L107.19,44.68L112.07,51.28L116.94,53.34L121.81,54.16L126.68,47.29L131.56,54.3L136.43,81.93L141.3,82.61L146.17,126.46L151.05,129.62L155.92,150.24L160.79,94.85L165.66,96.91L170.54,53.61L180.28,63.1L185.15,100.62L190.03,105.57L194.9,55.95L199.77,70.38L204.64,72.3L209.52,37.94L214.39,40.83L219.26,32.31L224.13,37.12L229.01,44.27L233.88,67.22L238.75,70.66L243.62,39.45L248.5,40.42L253.37,85.77L258.24,86.6L263.11,84.81L267.99,85.22L272.86,92.37L277.73,95.53L282.6,79.86L287.48,84.4L292.35,79.31L297.22,80L302.09,75.05L306.97,80.41L311.84,27.5L316.71,68.04L321.58,60.76L326.46,111.75L331.33,81.93L336.2,35.19L341.07,41.79L345.95,46.74L350.82,48.39L355.69,51L360.56,51.69L365.44,44.95L370.31,41.65L375.18,37.26L380.05,37.94L384.93,38.36L389.8,36.84L394.67,38.22L399.54,47.56L404.42,44.13L409.29,39.18L414.16,38.49L419.03,38.91L423.91,25.71L428.78,72.72L433.65,72.58L438.52,74.78L443.4,71.48L448.27,124.53L453.14,108.32L458.01,115.33L462.89,113.68L467.76,113.13L472.63,69.97L477.5,36.02L482.38,36.43L487.25,83.3L492.12,85.91L496.99,84.81L501.87,93.88L506.74,88.8L511.61,82.48L516.48,90.59L521.36,94.71L526.23,94.02L531.1,93.75L535.97,45.37L540.85,42.2L545.72,45.78L550.59,19.8L555.46,58.42L560.34,26.12L565.21,25.99L570.08,21.17L574.95,26.53L579.83,24.89L584.7,26.4L589.57,58.83L594.44,62L599.32,56.22L604.19,55.81L609.06,54.99L613.93,95.12L618.81,58.15L623.68,96.5L628.55,71.34L633.42,36.16L638.3,32.99L643.17,64.2L648.04,57.32L652.91,59.52L657.79,58.15L662.66,59.93L667.53,61.03L672.4,64.33L677.28,60.07L682.15,60.21L687.02,58.56L691.89,59.25L696.77,90.31L701.64,83.99L706.51,80.55L711.38,65.02L716.26,68.32L721.13,68.46L726,51.14" style="vector-effect: none; fill: none; stroke: rgb(128, 0, 128); stroke-opacity: 1; stroke-width: 2px; opacity: 1;"/></g><g class="points"/><g class="text"/></g><g class="trace scatter trace507513" style="stroke-miterlimit: 2; opacity: 1;"><g class="fills"/><g class="errorbars"/><g class="lines"><path class="js-line" d="M0,218.69L4.87,186.52L9.74,163.98L14.62,142.95L19.49,132.23L24.36,185.97L29.23,123.16L34.11,106.25L38.98,101.99L43.85,114.64L48.72,114.23L53.6,118.07L58.47,109.28L63.34,107.77L68.21,129.21L73.09,130.31L77.96,80.69L82.83,74.37L87.7,80.69L92.58,94.3L97.45,72.72L102.32,67.22L107.19,59.8L112.07,68.46L116.94,70.11L121.81,73.82L126.68,54.3L131.56,54.16L136.43,80L141.3,81.79L146.17,134.98L151.05,132.51L155.92,152.57L160.79,103.09L165.66,105.15L170.54,59.25L175.41,65.02L180.28,78.76L185.15,112.16L190.03,110.38L194.9,57.6L199.77,81.51L204.64,86.87L209.52,57.05L214.39,45.91L219.26,48.39L224.13,52.92L229.01,55.12L233.88,75.6L238.75,80.69L243.62,51L248.5,52.51L253.37,99.52L263.11,103.92L267.99,103.23L272.86,107.63L277.73,106.12L282.6,99.38L287.48,95.4L292.35,102.96L297.22,100.62L302.09,94.16L306.97,93.06L311.84,48.8L316.71,80.96L321.58,76.7L326.46,116.29L331.33,89.21L336.2,40L341.07,54.57L345.95,57.74L350.82,50.31L355.69,56.77L360.56,56.91L365.44,52.92L370.31,46.33L375.18,41.79L380.05,41.93L384.93,52.79L389.8,50.59L394.67,43.85L399.54,56.5L404.42,47.84L409.29,49.08L414.16,52.79L419.03,56.36L423.91,46.74L428.78,97.59L433.65,91.82L438.52,98.56L443.4,90.31L448.27,134.29L453.14,116.84L458.01,125.36L462.89,123.02L467.76,123.3L472.63,92.51L477.5,46.74L482.38,48.25L487.25,88.94L492.12,98.56L496.99,102.41L501.87,104.88L506.74,104.88L511.61,100.89L516.48,102.27L521.36,92.37L526.23,98.14L531.1,100.89L535.97,49.21L540.85,50.45L545.72,54.71L550.59,45.5L555.46,75.74L560.34,51.41L565.21,39.45L570.08,40.14L574.95,45.23L579.83,34.23L584.7,41.1L589.57,70.24L594.44,75.05L599.32,72.99L604.19,70.66L609.06,69.83L613.93,101.44L618.81,75.74L623.68,108.04L628.55,84.26L633.42,41.52L638.3,47.56L643.17,77.39L648.04,74.5L652.91,74.5L657.79,77.25L672.4,71.21L677.28,72.3L687.02,78.21L691.89,76.43L696.77,104.47L701.64,88.94L706.51,87.29L711.38,73.13L716.26,74.64L721.13,82.89L726,75.05" style="vector-effect: none; fill: none; stroke: rgb(255, 192, 203); stroke-opacity: 1; stroke-width: 2px; opacity: 1;"/></g><g class="points"/><g class="text"/></g><g class="trace scatter trace83bdc0" style="stroke-miterlimit: 2; opacity: 1;"><g class="fills"/><g class="errorbars"/><g class="lines"><path class="js-line" d="M0,354.9L4.87,352.56L9.74,309.95L14.62,312.84L19.49,286.86L24.36,369.33L29.23,259.37L34.11,216.21L38.98,212.91L43.85,232.71L48.72,237.93L58.47,239.03L63.34,236.42L68.21,256.76L73.09,257.72L77.96,188.31L82.83,181.03L87.7,174.84L92.58,181.44L97.45,147.63L102.32,140.62L107.19,149.41L112.07,164.53L116.94,167.97L121.81,167.69L126.68,151.61L131.56,160.82L136.43,151.47L141.3,154.77L146.17,231.74L151.05,232.43L155.92,320.4L160.79,230.37L165.66,233.94L170.54,164.26L180.28,180.2L185.15,244.66L190.03,252.77L194.9,164.39L199.77,188.86L204.64,191.88L209.52,135.26L214.39,138.97L219.26,127.97L224.13,143.36L229.01,155.46L233.88,193.12L238.75,196.14L243.62,147.76L248.5,152.44L253.37,224.18L258.24,223.77L263.11,214.84L267.99,220.88L272.86,223.77L277.73,229.13L282.6,204.8L287.48,207.96L292.35,198.21L297.22,203.02L302.09,193.26L306.97,205.08L311.84,118.07L316.71,133.33L321.58,123.44L326.46,204.8L331.33,212.36L336.2,132.23L341.07,145.98L345.95,156.15L350.82,158.9L355.69,157.66L360.56,158.48L370.31,153.4L375.18,144.46L384.93,145.98L389.8,143.64L394.67,140.62L399.54,154.77L409.29,133.19L414.16,131.41L419.03,134.71L423.91,108.73L428.78,191.2L433.65,200.96L438.52,203.29L443.4,198.07L448.27,289.2L453.14,260.74L458.01,255.52L462.89,255.66L467.76,257.17L472.63,187.35L477.5,131.82L482.38,134.02L487.25,212.23L492.12,214.29L496.99,211.26L501.87,228.31L511.61,206.18L516.48,221.3L521.36,228.31L526.23,227.89L531.1,229.27L535.97,157.38L540.85,154.22L545.72,160.55L550.59,113.54L555.46,182.4L560.34,128.93L565.21,129.62L570.08,115.33L574.95,115.05L579.83,118.35L584.7,122.89L589.57,180.61L594.44,182.54L599.32,171.4L604.19,173.33L609.06,170.17L613.93,234.49L618.81,175.53L623.68,171.4L628.55,130.86L633.42,135.81L638.3,138.83L643.17,190.92L648.04,179.1L652.91,181.85L657.79,182.95L662.66,178.96L667.53,176.63L672.4,180.89L677.28,172.92L682.15,172.09L687.02,176.9L691.89,178.14L696.77,230.23L701.64,214.56L706.51,212.78L711.38,184.32L716.26,189.82L721.13,190.23L726,167.28" style="vector-effect: none; fill: none; stroke: rgb(165, 42, 42); stroke-opacity: 1; stroke-width: 2px; opacity: 1;"/></g><g class="points"/><g class="text"/></g><g class="trace scatter trace818a74" style="stroke-miterlimit: 2; opacity: 1;"><g class="fills"/><g class="errorbars"/><g class="lines"><path class="js-line" d="M0,367.4L4.87,346.24L9.74,307.2L14.62,309.4L19.49,283.97L24.36,376.2L29.23,261.29L34.11,224.6L38.98,218.96L43.85,241.5L48.72,242.33L53.6,243.7L58.47,239.58L63.34,238.48L68.21,267.75L73.09,270.37L77.96,192.16L82.83,183.09L87.7,189L92.58,196.56L97.45,161.92L102.32,156.15L107.19,161.92L112.07,178.83L116.94,183.22L121.81,185.01L126.68,161.23L131.56,162.47L136.43,152.99L141.3,157.8L146.17,236.97L151.05,233.39L155.92,324.52L160.79,235.18L165.66,240.81L170.54,169.07L175.41,175.8L180.28,194.08L185.15,255.93L190.03,258.55L194.9,167.42L199.77,198.62L204.64,202.47L209.52,154.36L214.39,141.44L219.26,140.48L224.13,157.8L229.01,164.12L233.88,197.66L238.75,203.15L243.62,157.38L248.5,160.68L253.37,234.77L258.24,233.8L263.11,230.09L267.99,232.98L272.86,237.38L277.73,238.75L282.6,221.85L287.48,216.35L292.35,217.59L297.22,219.92L302.09,209.75L306.97,214.7L311.84,135.94L316.71,148.86L321.58,140.48L326.46,208.79L331.33,219.37L336.2,138.97L341.07,162.61L345.95,169.2L350.82,162.33L355.69,163.57L360.56,167.42L370.31,158.9L375.18,147.9L380.05,149.41L384.93,160.13L389.8,156.83L394.67,149.82L399.54,166.87L404.42,154.09L409.29,146.53L414.16,148.31L419.03,154.77L423.91,128.11L428.78,218.27L433.65,225.7L438.52,233.53L443.4,223.08L448.27,305.69L453.14,272.84L458.01,268.17L462.89,266.93L467.76,268.85L472.63,213.46L477.5,142.13L482.38,145.43L487.25,220.34L492.12,229.68L496.99,228.31L501.87,241.36L506.74,231.47L511.61,224.87L516.48,233.26L521.36,228.31L526.23,232.98L531.1,240.13L535.97,162.61L540.85,163.84L545.72,172.23L550.59,139.79L555.46,197.52L560.34,154.36L570.08,134.29L574.95,134.71L579.83,127.97L584.7,139.1L589.57,190.23L594.44,192.85L599.32,183.91L604.19,185.7L609.06,181.58L613.93,235.87L618.81,188.45L623.68,178L628.55,142.95L633.42,138.83L638.3,152.02L643.17,200.96L648.04,193.12L652.91,194.36L657.79,198.89L662.66,192.71L667.53,188.04L672.4,189.27L677.28,184.32L682.15,185.56L687.02,195.59L691.89,194.77L696.77,241.36L701.64,223.63L706.51,221.43L711.38,191.61L716.26,197.79L721.13,206.87L726,188.86" style="vector-effect: none; fill: none; stroke: rgb(128, 128, 128); stroke-opacity: 1; stroke-width: 2px; opacity: 1;"/></g><g class="points"/><g class="text"/></g></g></g><g class="overplot"/><path class="xlines-above crisp" d="M0,0" style="fill: none;"/><path class="ylines-above crisp" d="M0,0" style="fill: none;"/><g class="overlines-above"/><g class="xaxislayer-above"><g class="xtick"><text text-anchor="middle" x="0" y="509" transform="translate(235.57999999999998,0)" style="font-family: 'Open Sans', verdana, arial, sans-serif; font-size: 12px; fill: rgb(42, 63, 95); fill-opacity: 1; white-space: pre; opacity: 1;">20</text></g><g class="xtick"><text text-anchor="middle" x="0" y="509" style="font-family: 'Open Sans', verdana, arial, sans-serif; font-size: 12px; fill: rgb(42, 63, 95); fill-opacity: 1; white-space: pre; opacity: 1;" transform="translate(333.03,0)">40</text></g><g class="xtick"><text text-anchor="middle" x="0" y="509" style="font-family: 'Open Sans', verdana, arial, sans-serif; font-size: 12px; fill: rgb(42, 63, 95); fill-opacity: 1; white-space: pre; opacity: 1;" transform="translate(430.48,0)">60</text></g><g class="xtick"><text text-anchor="middle" x="0" y="509" style="font-family: 'Open Sans', verdana, arial, sans-serif; font-size: 12px; fill: rgb(42, 63, 95); fill-opacity: 1; white-space: pre; opacity: 1;" transform="translate(527.9300000000001,0)">80</text></g><g class="xtick"><text text-anchor="middle" x="0" y="509" style="font-family: 'Open Sans', verdana, arial, sans-serif; font-size: 12px; fill: rgb(42, 63, 95); fill-opacity: 1; white-space: pre; opacity: 1;" transform="translate(625.38,0)">100</text></g><g class="xtick"><text text-anchor="middle" x="0" y="509" style="font-family: 'Open Sans', verdana, arial, sans-serif; font-size: 12px; fill: rgb(42, 63, 95); fill-opacity: 1; white-space: pre; opacity: 1;" transform="translate(722.83,0)">120</text></g><g class="xtick"><text text-anchor="middle" x="0" y="509" style="font-family: 'Open Sans', verdana, arial, sans-serif; font-size: 12px; fill: rgb(42, 63, 95); fill-opacity: 1; white-space: pre; opacity: 1;" transform="translate(820.28,0)">140</text></g></g><g class="yaxislayer-above"><g class="ytick"><text text-anchor="end" x="142" y="4.199999999999999" transform="translate(0,434.28)" style="font-family: 'Open Sans', verdana, arial, sans-serif; font-size: 12px; fill: rgb(42, 63, 95); fill-opacity: 1; white-space: pre; opacity: 1;">50</text></g><g class="ytick"><text text-anchor="end" x="142" y="4.199999999999999" style="font-family: 'Open Sans', verdana, arial, sans-serif; font-size: 12px; fill: rgb(42, 63, 95); fill-opacity: 1; white-space: pre; opacity: 1;" transform="translate(0,365.56)">55</text></g><g class="ytick"><text text-anchor="end" x="142" y="4.199999999999999" style="font-family: 'Open Sans', verdana, arial, sans-serif; font-size: 12px; fill: rgb(42, 63, 95); fill-opacity: 1; white-space: pre; opacity: 1;" transform="translate(0,296.83000000000004)">60</text></g><g class="ytick"><text text-anchor="end" x="142" y="4.199999999999999" style="font-family: 'Open Sans', verdana, arial, sans-serif; font-size: 12px; fill: rgb(42, 63, 95); fill-opacity: 1; white-space: pre; opacity: 1;" transform="translate(0,228.11)">65</text></g><g class="ytick"><text text-anchor="end" x="142" y="4.199999999999999" style="font-family: 'Open Sans', verdana, arial, sans-serif; font-size: 12px; fill: rgb(42, 63, 95); fill-opacity: 1; white-space: pre; opacity: 1;" transform="translate(0,159.38)">70</text></g></g><g class="overaxes-above"/></g></g><g class="polarlayer"/><g class="smithlayer"/><g class="ternarylayer"/><g class="geolayer"/><g class="funnelarealayer"/><g class="pielayer"/><g class="iciclelayer"/><g class="treemaplayer"/><g class="sunburstlayer"/><g class="glimages"/><defs id="topdefs-03f4f0"><g class="clips"/><clipPath id="legend03f4f0"><rect width="128" height="162" x="0" y="0"/></clipPath></defs><g class="layer-above"><g class="imagelayer"/><g class="shapelayer"/></g><g class="infolayer"><g class="legend" pointer-events="all" transform="translate(883.52,100)"><rect class="bg" shape-rendering="crispEdges" width="128" height="162" x="0" y="0" style="stroke: rgb(68, 68, 68); stroke-opacity: 1; fill: rgb(255, 255, 255); fill-opacity: 1; stroke-width: 0px;"/><g class="scrollbox" transform="" clip-path="url(#legend03f4f0)"><g class="groups"><g class="traces" transform="translate(0,14.5)" style="opacity: 1;"><text class="legendtext" text-anchor="start" x="40" y="4.680000000000001" style="font-family: 'Open Sans', verdana, arial, sans-serif; font-size: 12px; fill: rgb(42, 63, 95); fill-opacity: 1; white-space: pre;">Train Accuracy</text><g class="layers" style="opacity: 1;"><g class="legendfill"/><g class="legendlines"><path class="js-line" d="M5,0h30" style="fill: none; stroke: rgb(255, 0, 0); stroke-opacity: 1; stroke-width: 2px;"/></g><g class="legendsymbols"><g class="legendpoints"/></g></g><rect class="legendtoggle" x="0" y="-9.5" width="122.71875" height="19" style="fill: rgb(0, 0, 0); fill-opacity: 0;"/></g><g class="traces" transform="translate(0,33.5)" style="opacity: 1;"><text class="legendtext" text-anchor="start" x="40" y="4.680000000000001" style="font-family: 'Open Sans', verdana, arial, sans-serif; font-size: 12px; fill: rgb(42, 63, 95); fill-opacity: 1; white-space: pre;">Test Accuracy</text><g class="layers" style="opacity: 1;"><g class="legendfill"/><g class="legendlines"><path class="js-line" d="M5,0h30" style="fill: none; stroke: rgb(0, 0, 255); stroke-opacity: 1; stroke-width: 2px;"/></g><g class="legendsymbols"><g class="legendpoints"/></g></g><rect class="legendtoggle" x="0" y="-9.5" width="122.71875" height="19" style="fill: rgb(0, 0, 0); fill-opacity: 0;"/></g><g class="traces" transform="translate(0,52.5)" style="opacity: 1;"><text class="legendtext" text-anchor="start" x="40" y="4.680000000000001" style="font-family: 'Open Sans', verdana, arial, sans-serif; font-size: 12px; fill: rgb(42, 63, 95); fill-opacity: 1; white-space: pre;">Train Precision</text><g class="layers" style="opacity: 1;"><g class="legendfill"/><g class="legendlines"><path class="js-line" d="M5,0h30" style="fill: none; stroke: rgb(0, 128, 0); stroke-opacity: 1; stroke-width: 2px;"/></g><g class="legendsymbols"><g class="legendpoints"/></g></g><rect class="legendtoggle" x="0" y="-9.5" width="122.71875" height="19" style="fill: rgb(0, 0, 0); fill-opacity: 0;"/></g><g class="traces" transform="translate(0,71.5)" style="opacity: 1;"><text class="legendtext" text-anchor="start" x="40" y="4.680000000000001" style="font-family: 'Open Sans', verdana, arial, sans-serif; font-size: 12px; fill: rgb(42, 63, 95); fill-opacity: 1; white-space: pre;">Test Precision</text><g class="layers" style="opacity: 1;"><g class="legendfill"/><g class="legendlines"><path class="js-line" d="M5,0h30" style="fill: none; stroke: rgb(255, 165, 0); stroke-opacity: 1; stroke-width: 2px;"/></g><g class="legendsymbols"><g class="legendpoints"/></g></g><rect class="legendtoggle" x="0" y="-9.5" width="122.71875" height="19" style="fill: rgb(0, 0, 0); fill-opacity: 0;"/></g><g class="traces" transform="translate(0,90.5)" style="opacity: 1;"><text class="legendtext" text-anchor="start" x="40" y="4.680000000000001" style="font-family: 'Open Sans', verdana, arial, sans-serif; font-size: 12px; fill: rgb(42, 63, 95); fill-opacity: 1; white-space: pre;">Train Recall</text><g class="layers" style="opacity: 1;"><g class="legendfill"/><g class="legendlines"><path class="js-line" d="M5,0h30" style="fill: none; stroke: rgb(128, 0, 128); stroke-opacity: 1; stroke-width: 2px;"/></g><g class="legendsymbols"><g class="legendpoints"/></g></g><rect class="legendtoggle" x="0" y="-9.5" width="122.71875" height="19" style="fill: rgb(0, 0, 0); fill-opacity: 0;"/></g><g class="traces" transform="translate(0,109.5)" style="opacity: 1;"><text class="legendtext" text-anchor="start" x="40" y="4.680000000000001" style="font-family: 'Open Sans', verdana, arial, sans-serif; font-size: 12px; fill: rgb(42, 63, 95); fill-opacity: 1; white-space: pre;">Test Recall</text><g class="layers" style="opacity: 1;"><g class="legendfill"/><g class="legendlines"><path class="js-line" d="M5,0h30" style="fill: none; stroke: rgb(255, 192, 203); stroke-opacity: 1; stroke-width: 2px;"/></g><g class="legendsymbols"><g class="legendpoints"/></g></g><rect class="legendtoggle" x="0" y="-9.5" width="122.71875" height="19" style="fill: rgb(0, 0, 0); fill-opacity: 0;"/></g><g class="traces" transform="translate(0,128.5)" style="opacity: 1;"><text class="legendtext" text-anchor="start" x="40" y="4.680000000000001" style="font-family: 'Open Sans', verdana, arial, sans-serif; font-size: 12px; fill: rgb(42, 63, 95); fill-opacity: 1; white-space: pre;">Train F1</text><g class="layers" style="opacity: 1;"><g class="legendfill"/><g class="legendlines"><path class="js-line" d="M5,0h30" style="fill: none; stroke: rgb(165, 42, 42); stroke-opacity: 1; stroke-width: 2px;"/></g><g class="legendsymbols"><g class="legendpoints"/></g></g><rect class="legendtoggle" x="0" y="-9.5" width="122.71875" height="19" style="fill: rgb(0, 0, 0); fill-opacity: 0;"/></g><g class="traces" transform="translate(0,147.5)" style="opacity: 1;"><text class="legendtext" text-anchor="start" x="40" y="4.680000000000001" style="font-family: 'Open Sans', verdana, arial, sans-serif; font-size: 12px; fill: rgb(42, 63, 95); fill-opacity: 1; white-space: pre;">Test F1</text><g class="layers" style="opacity: 1;"><g class="legendfill"/><g class="legendlines"><path class="js-line" d="M5,0h30" style="fill: none; stroke: rgb(128, 128, 128); stroke-opacity: 1; stroke-width: 2px;"/></g><g class="legendsymbols"><g class="legendpoints"/></g></g><rect class="legendtoggle" x="0" y="-9.5" width="122.71875" height="19" style="fill: rgb(0, 0, 0); fill-opacity: 0;"/></g></g></g><rect class="scrollbar" rx="20" ry="3" width="0" height="0" x="0" y="0" style="fill: rgb(128, 139, 164); fill-opacity: 1;"/></g><g class="g-gtitle"><text class="gtitle" x="51.2" y="50" text-anchor="start" dy="0em" style="font-family: 'Open Sans', verdana, arial, sans-serif; font-size: 17px; fill: rgb(42, 63, 95); opacity: 1; font-weight: normal; white-space: pre;">Training Metrics - logs/FakeNewsNet-gossipcop_max-vocab=15000_pre=v2_text_domain_T=50_s=5.log</text></g><g class="g-xtitle"><text class="xtitle" x="506" y="537.3" text-anchor="middle" style="font-family: 'Open Sans', verdana, arial, sans-serif; font-size: 14px; fill: rgb(42, 63, 95); opacity: 1; font-weight: normal; white-space: pre;">Epoch</text></g><g class="g-ytitle"><text class="ytitle" transform="rotate(-90,103.965625,298)" x="103.965625" y="298" text-anchor="middle" style="font-family: 'Open Sans', verdana, arial, sans-serif; font-size: 14px; fill: rgb(42, 63, 95); opacity: 1; font-weight: normal; white-space: pre;">Metric Score</text></g></g><g class="menulayer"><g class="updatemenu-container" style="cursor: pointer;"><g class="updatemenu-header-group" transform="translate(12,60)"><g class="updatemenu-header" transform="translate(1,1)" style="pointer-events: all;"><rect class="updatemenu-item-rect" rx="2" ry="2" shape-rendering="crispEdges" x="0" y="0" width="167" height="33" style="stroke: rgb(190, 200, 217); stroke-opacity: 1; fill: rgb(255, 255, 255); fill-opacity: 1; stroke-width: 1px;"/><text class="updatemenu-item-text" text-anchor="start" data-notex="1" x="12" y="19.5" style="font-family: 'Open Sans', verdana, arial, sans-serif; font-size: 12px; fill: rgb(42, 63, 95); fill-opacity: 1; white-space: pre;">All</text></g><text class="updatemenu-header-arrow" text-anchor="end" x="163" y="19.5" style="font-family: 'Open Sans', verdana, arial, sans-serif; font-size: 12px; fill: rgb(42, 63, 95); fill-opacity: 1;">▼</text></g><g class="updatemenu-dropdown-button-group" updatemenu-active-index="-1" style="pointer-events: all;"><rect class="scrollbox-bg" opacity="0" x="0" y="0" width="0" height="0" style="pointer-events: all;"/></g></g></g></svg>