<svg class="main-svg" xmlns="http://www.w3.org/2000/svg" xmlns:xlink="http://www.w3.org/1999/xlink" width="1024" height="576" style="" viewBox="0 0 1024 576"><rect x="0" y="0" width="1024" height="576" style="fill: rgb(255, 255, 255); fill-opacity: 1;"/><defs id="defs-90242e"><g class="clips"><clipPath id="clip90242exyplot" class="plotclip"><rect width="720" height="396"/></clipPath><clipPath class="axesclip" id="clip90242ex"><rect x="150" y="0" width="720" height="576"/></clipPath><clipPath class="axesclip" id="clip90242ey"><rect x="0" y="100" width="1024" height="396"/></clipPath><clipPath class="axesclip" id="clip90242exy"><rect x="150" y="100" width="720" height="396"/></clipPath></g><g class="gradients"/><g class="patterns"/></defs><g class="bglayer"><rect class="bg" x="150" y="100" width="720" height="396" style="fill: rgb(229, 236, 246); fill-opacity: 1; stroke-width: 0;"/></g><g class="layer-below"><g class="imagelayer"/><g class="shapelayer"/></g><g class="cartesianlayer"><g class="subplot xy"><g class="layer-subplot"><g class="shapelayer"/><g class="imagelayer"/></g><g class="minor-gridlayer"><g class="x"/><g class="y"/></g><g class="gridlayer"><g class="x"><path class="xgrid crisp" transform="translate(241.81,0)" d="M0,100v396" style="stroke: rgb(255, 255, 255); stroke-opacity: 1; stroke-width: 1px;"/><path class="xgrid crisp" transform="translate(338.46000000000004,0)" d="M0,100v396" style="stroke: rgb(255, 255, 255); stroke-opacity: 1; stroke-width: 1px;"/><path class="xgrid crisp" transform="translate(435.1,0)" d="M0,100v396" style="stroke: rgb(255, 255, 255); stroke-opacity: 1; stroke-width: 1px;"/><path class="xgrid crisp" transform="translate(531.74,0)" d="M0,100v396" style="stroke: rgb(255, 255, 255); stroke-opacity: 1; stroke-width: 1px;"/><path class="xgrid crisp" transform="translate(628.39,0)" d="M0,100v396" style="stroke: rgb(255, 255, 255); stroke-opacity: 1; stroke-width: 1px;"/><path class="xgrid crisp" transform="translate(725.03,0)" d="M0,100v396" style="stroke: rgb(255, 255, 255); stroke-opacity: 1; stroke-width: 1px;"/><path class="xgrid crisp" transform="translate(821.68,0)" d="M0,100v396" style="stroke: rgb(255, 255, 255); stroke-opacity: 1; stroke-width: 1px;"/></g><g class="y"><path class="ygrid crisp" transform="translate(0,441.9)" d="M150,0h720" style="stroke: rgb(255, 255, 255); stroke-opacity: 1; stroke-width: 1px;"/><path class="ygrid crisp" transform="translate(0,388.21)" d="M150,0h720" style="stroke: rgb(255, 255, 255); stroke-opacity: 1; stroke-width: 1px;"/><path class="ygrid crisp" transform="translate(0,334.53)" d="M150,0h720" style="stroke: rgb(255, 255, 255); stroke-opacity: 1; stroke-width: 1px;"/><path class="ygrid crisp" transform="translate(0,280.85)" d="M150,0h720" style="stroke: rgb(255, 255, 255); stroke-opacity: 1; stroke-width: 1px;"/><path class="ygrid crisp" transform="translate(0,227.17000000000002)" d="M150,0h720" style="stroke: rgb(255, 255, 255); stroke-opacity: 1; stroke-width: 1px;"/><path class="ygrid crisp" transform="translate(0,173.48000000000002)" d="M150,0h720" style="stroke: rgb(255, 255, 255); stroke-opacity: 1; stroke-width: 1px;"/><path class="ygrid crisp" transform="translate(0,119.8)" d="M150,0h720" style="stroke: rgb(255, 255, 255); stroke-opacity: 1; stroke-width: 1px;"/></g></g><g class="zerolinelayer"/><path class="xlines-below"/><path class="ylines-below"/><g class="overlines-below"/><g class="xaxislayer-below"/><g class="yaxislayer-below"/><g class="overaxes-below"/><g class="plot" transform="translate(150,100)" clip-path="url(#clip90242exyplot)"><g class="scatterlayer mlayer"><g class="trace scatter trace2a4920" style="stroke-miterlimit: 2; opacity: 1;"><g class="fills"/><g class="errorbars"/><g class="lines"><path class="js-line" d="M0,294.92L4.83,294.92L9.66,179.51L14.5,225.14L19.33,129.85L24.16,125.82L28.99,233.19L33.83,116.43L38.66,174.14L43.49,214.4L48.32,131.19L53.15,93.61L57.99,69.46L62.82,72.14L67.65,76.17L72.48,68.11L77.32,76.17L82.15,69.46L86.98,66.77L91.81,81.54L96.64,61.4L101.48,56.04L106.31,66.77L111.14,60.06L115.97,47.98L120.81,50.67L125.64,43.96L130.47,50.67L135.3,46.64L140.13,53.35L144.97,43.96L149.8,41.27L154.63,34.56L159.46,41.27L164.3,38.59L169.13,43.96L173.96,35.9L178.79,46.64L183.62,34.56L193.29,39.93L198.12,37.25L202.95,35.9L207.79,39.93L212.62,39.93L217.45,43.96L222.28,30.54L227.11,33.22L231.95,34.56L236.78,39.93L241.61,39.93L246.44,34.56L251.28,33.22L256.11,37.25L260.94,34.56L265.77,33.22L270.6,27.85L275.44,30.54L280.27,35.9L285.1,30.54L289.93,29.19L294.77,33.22L299.6,37.25L304.43,34.56L309.26,30.54L314.09,29.19L323.76,29.19L328.59,25.17L333.42,29.19L338.26,25.17L343.09,30.54L347.92,29.19L352.75,26.51L357.58,22.48L367.25,22.48L372.08,23.83L376.91,22.48L381.74,22.48L386.58,22.48L391.41,23.83L396.24,21.14L401.07,19.8L405.91,19.8L410.74,21.14L415.57,22.48L420.4,21.14L425.23,19.8L430.07,22.48L439.73,22.48L444.56,21.14L449.4,21.14L454.23,19.8L459.06,21.14L463.89,21.14L468.72,22.48L473.56,21.14L478.39,19.8L483.22,19.8L492.89,22.48L497.72,22.48L502.55,21.14L507.38,23.83L512.21,21.14L517.05,21.14L521.88,21.14L526.71,25.17L531.54,23.83L536.38,21.14L541.21,22.48L546.04,22.48L550.87,21.14L555.7,21.14L570.2,21.14L575.03,19.8L579.87,21.14L584.7,21.14L589.53,21.14L594.36,19.8L599.19,21.14L604.03,21.14L613.69,21.14L618.52,19.8L623.36,21.14L628.19,21.14L642.68,21.14L647.52,19.8L720,19.8" style="vector-effect: none; fill: none; stroke: rgb(255, 0, 0); stroke-opacity: 1; stroke-width: 2px; opacity: 1;"/></g><g class="points"/><g class="text"/></g><g class="trace scatter tracea8b639" style="stroke-miterlimit: 2; opacity: 1;"><g class="fills"/><g class="errorbars"/><g class="lines"><path class="js-line" d="M0,266.74L4.83,277.48L9.66,191.58L14.5,234.53L19.33,239.9L24.16,229.16L28.99,250.64L33.83,180.85L38.66,229.16L43.49,234.53L48.32,223.79L53.15,180.85L57.99,154.01L62.82,175.48L67.65,170.11L72.48,175.48L77.32,170.11L82.15,154.01L86.98,148.64L91.81,180.85L96.64,154.01L101.48,164.74L106.31,186.22L111.14,175.48L115.97,159.38L120.81,159.38L125.64,154.01L140.13,154.01L144.97,159.38L149.8,154.01L154.63,164.74L164.3,154.01L169.13,164.74L173.96,159.38L178.79,175.48L183.62,164.74L188.46,159.38L193.29,159.38L198.12,154.01L202.95,148.64L207.79,154.01L212.62,164.74L217.45,159.38L222.28,159.38L227.11,154.01L231.95,148.64L236.78,154.01L241.61,164.74L246.44,154.01L251.28,164.74L256.11,154.01L260.94,148.64L265.77,154.01L270.6,159.38L275.44,154.01L289.93,154.01L294.77,159.38L299.6,170.11L304.43,164.74L314.09,164.74L318.93,159.38L323.76,159.38L328.59,154.01L333.42,159.38L338.26,154.01L343.09,164.74L347.92,164.74L352.75,154.01L357.58,154.01L362.42,159.38L367.25,159.38L372.08,154.01L376.91,154.01L391.41,170.11L396.24,159.38L401.07,170.11L405.91,164.74L410.74,154.01L415.57,154.01L420.4,148.64L425.23,159.38L430.07,170.11L434.9,175.48L439.73,170.11L444.56,159.38L454.23,159.38L459.06,164.74L478.39,164.74L483.22,170.11L488.05,164.74L492.89,170.11L497.72,164.74L502.55,170.11L507.38,159.38L512.21,159.38L531.54,159.38L536.38,164.74L541.21,164.74L546.04,159.38L555.7,170.11L560.54,170.11L570.2,170.11L575.03,175.48L579.87,170.11L584.7,170.11L594.36,170.11L599.19,180.85L608.86,170.11L613.69,170.11L618.52,164.74L623.36,164.74L628.19,159.38L633.02,159.38L637.85,154.01L642.68,154.01L657.18,170.11L662.01,170.11L666.85,164.74L671.68,170.11L676.51,164.74L681.34,175.48L686.17,164.74L691.01,175.48L695.84,159.38L700.67,170.11L705.5,180.85L710.34,164.74L715.17,175.48L720,164.74" style="vector-effect: none; fill: none; stroke: rgb(0, 0, 255); stroke-opacity: 1; stroke-width: 2px; opacity: 1;"/></g><g class="points"/><g class="text"/></g><g class="trace scatter traced6df13" style="stroke-miterlimit: 2; opacity: 1;"><g class="fills"/><g class="errorbars"/><g class="lines"><path class="js-line" d="M0,318.12L4.83,306.2L9.66,172.85L19.33,121.53L24.16,107.36L28.99,140L33.83,94.9L38.66,119.06L43.49,133.93L48.32,99.63L53.15,79.76L57.99,68.49L62.82,71.76L67.65,75.09L72.48,67.52L77.32,75.79L82.15,64.95L86.98,65.65L91.81,72.25L96.64,60.22L101.48,52.44L106.31,59.1L111.14,57.86L115.97,46.32L120.81,49L125.64,43.9L130.47,49.65L135.3,46.27L140.13,53.41L144.97,43.8L149.8,41.22L154.63,34.56L159.46,40.9L164.3,38.37L169.13,42.78L173.96,35.53L178.79,44.66L183.62,34.4L188.46,36.76L193.29,39.18L198.12,36.76L202.95,35.69L207.79,38.86L212.62,38.86L217.45,42.4L222.28,30.54L227.11,33.01L231.95,34.08L236.78,38.86L241.61,38.86L246.44,34.08L251.28,32.84L256.11,36.5L260.94,34.08L265.77,32.84L270.6,27.8L275.44,30.48L280.27,35.26L285.1,30.32L289.93,29.03L294.77,32.84L299.6,36.5L304.43,34.08L309.26,30.32L314.09,29.03L323.76,29.03L328.59,25.17L333.42,29.03L338.26,25.17L343.09,30.32L347.92,29.03L352.75,26.46L357.58,22.54L367.25,22.54L372.08,23.83L376.91,22.54L381.74,22.54L386.58,22.54L391.41,23.83L396.24,21.14L401.07,19.8L405.91,19.8L410.74,21.14L415.57,22.54L420.4,21.14L425.23,19.8L430.07,22.54L439.73,22.54L444.56,21.14L449.4,21.14L454.23,19.8L459.06,21.14L463.89,21.14L468.72,22.54L473.56,21.14L478.39,19.8L483.22,19.8L492.89,22.54L497.72,22.54L502.55,21.14L507.38,23.83L512.21,21.14L517.05,21.14L521.88,21.14L526.71,25.17L531.54,23.83L536.38,21.14L541.21,22.54L546.04,22.54L550.87,21.14L555.7,21.14L570.2,21.14L575.03,19.8L579.87,21.14L584.7,21.14L589.53,21.14L594.36,19.8L599.19,21.14L604.03,21.14L613.69,21.14L618.52,19.8L623.36,21.14L628.19,21.14L642.68,21.14L647.52,19.8L720,19.8" style="vector-effect: none; fill: none; stroke: rgb(0, 128, 0); stroke-opacity: 1; stroke-width: 2px; opacity: 1;"/></g><g class="points"/><g class="text"/></g><g class="trace scatter trace26ad7c" style="stroke-miterlimit: 2; opacity: 1;"><g class="fills"/><g class="errorbars"/><g class="lines"><path class="js-line" d="M0,277.26L4.83,346.94L9.66,189.22L14.5,167.16L19.33,238.45L24.16,213.92L28.99,138.76L33.83,170.65L38.66,192.82L43.49,186.81L48.32,211.88L53.15,176.23L57.99,152.13L62.82,176.5L67.65,168.34L72.48,174.73L77.32,170.54L82.15,148.26L86.98,148.64L91.81,165.17L96.64,154.81L101.48,165.12L106.31,172.85L111.14,172.15L115.97,158.3L120.81,160.02L125.64,154.38L130.47,153.52L135.3,153.52L140.13,153.52L144.97,159.54L149.8,153.52L154.63,165.66L164.3,153.52L169.13,161.79L173.96,158.46L178.79,171.4L188.46,156.96L193.29,154.92L198.12,152.13L202.95,145.58L207.79,150.25L212.62,163.4L217.45,158.46L222.28,158.46L231.95,145.58L236.78,150.25L241.61,159.59L246.44,150.25L251.28,161.79L256.11,150.25L260.94,145.58L265.77,152.13L270.6,158.46L275.44,152.13L289.93,152.13L294.77,156.96L299.6,166.57L304.43,161.79L314.09,161.79L318.93,156.96L323.76,154.92L328.59,150.25L333.42,154.92L338.26,150.25L343.09,159.59L347.92,159.59L352.75,150.25L357.58,152.13L362.42,158.46L367.25,158.46L372.08,152.13L376.91,152.13L381.74,158.46L386.58,161.79L391.41,168.34L396.24,158.46L401.07,170.54L405.91,164.58L410.74,152.13L415.57,150.25L420.4,145.58L425.23,156.96L434.9,171.4L439.73,166.57L444.56,156.96L449.4,158.46L454.23,158.46L459.06,163.4L473.56,163.4L478.39,164.58L483.22,170.54L488.05,164.58L492.89,169.68L497.72,163.4L502.55,169.68L507.38,156.96L512.21,158.46L517.05,156.96L521.88,156.96L526.71,154.92L531.54,154.92L536.38,164.58L546.04,158.46L550.87,163.4L555.7,169.68L560.54,169.68L565.37,168.34L570.2,169.68L575.03,175.69L579.87,169.68L594.36,169.68L599.19,179.77L604.03,173.28L608.86,168.34L613.69,168.34L618.52,163.4L628.19,154.92L633.02,152.34L637.85,147.83L642.68,147.83L647.52,152.34L652.35,159.59L657.18,166.57L662.01,166.57L666.85,159.59L671.68,166.57L676.51,163.4L681.34,175.69L686.17,164.58L691.01,174.73L695.84,156.96L700.67,169.68L705.5,179.77L710.34,164.58L715.17,175.69L720,163.4" style="vector-effect: none; fill: none; stroke: rgb(255, 165, 0); stroke-opacity: 1; stroke-width: 2px; opacity: 1;"/></g><g class="points"/><g class="text"/></g><g class="trace scatter trace298d64" style="stroke-miterlimit: 2; opacity: 1;"><g class="fills"/><g class="errorbars"/><g class="lines"><path class="js-line" d="M0,289.72L4.83,289.82L9.66,180.9L14.5,221.22L19.33,131.08L24.16,124.11L28.99,229L33.83,114.66L38.66,171.13L43.49,210.59L48.32,128.99L53.15,92.22L57.99,69.08L67.65,75.74L72.48,67.79L77.32,75.9L82.15,70.21L86.98,67.15L91.81,82.61L96.64,61.78L101.48,56.68L106.31,67.74L111.14,60.55L115.97,48.41L120.81,51.1L125.64,44.01L130.47,50.29L135.3,46.37L140.13,53.35L144.97,44.06L149.8,41.11L154.63,34.62L159.46,41.43L164.3,38.37L169.13,43.53L173.96,35.64L178.79,46.1L183.62,34.4L188.46,36.98L193.29,39.61L198.12,36.98L202.95,35.69L207.79,39.56L212.62,39.56L217.45,43.47L222.28,30.43L227.11,33.01L231.95,34.29L236.78,39.56L241.61,39.56L246.44,34.29L251.28,32.95L256.11,36.92L260.94,34.29L265.77,32.95L270.6,27.69L275.44,30.38L280.27,35.58L285.1,30.32L289.93,29.03L294.77,32.95L299.6,36.92L304.43,34.29L309.26,30.32L314.09,29.03L323.76,29.03L328.59,25.06L333.42,29.03L338.26,25.06L343.09,30.32L347.92,29.03L352.75,26.4L357.58,22.43L367.25,22.43L372.08,23.77L376.91,22.43L381.74,22.43L386.58,22.43L391.41,23.77L396.24,21.14L401.07,19.8L405.91,19.8L410.74,21.14L415.57,22.43L420.4,21.14L425.23,19.8L430.07,22.43L439.73,22.43L444.56,21.14L449.4,21.14L454.23,19.8L459.06,21.14L463.89,21.14L468.72,22.43L473.56,21.14L478.39,19.8L483.22,19.8L492.89,22.43L497.72,22.43L502.55,21.14L507.38,23.77L512.21,21.14L517.05,21.14L521.88,21.14L526.71,25.06L531.54,23.77L536.38,21.14L541.21,22.43L546.04,22.43L550.87,21.14L555.7,21.14L570.2,21.14L575.03,19.8L579.87,21.14L584.7,21.14L589.53,21.14L594.36,19.8L599.19,21.14L604.03,21.14L613.69,21.14L618.52,19.8L623.36,21.14L628.19,21.14L642.68,21.14L647.52,19.8L720,19.8" style="vector-effect: none; fill: none; stroke: rgb(128, 0, 128); stroke-opacity: 1; stroke-width: 2px; opacity: 1;"/></g><g class="points"/><g class="text"/></g><g class="trace scatter trace735e98" style="stroke-miterlimit: 2; opacity: 1;"><g class="fills"/><g class="errorbars"/><g class="lines"><path class="js-line" d="M0,287.35L4.83,297.29L9.66,189.22L14.5,252.35L19.33,238.29L24.16,242.21L28.99,270.71L33.83,188.79L38.66,244.78L43.49,251.49L48.32,235.5L53.15,187.08L57.99,157.87L62.82,176.93L67.65,174.51L72.48,179.51L77.32,172.8L82.15,150.14L86.98,147.73L91.81,174.08L96.64,154.44L101.48,164.37L106.31,179.94L111.14,172.58L115.97,157.66L120.81,159.43L125.64,156.15L130.47,157.01L135.3,157.01L140.13,157.01L144.97,162.01L149.8,157.01L154.63,166.09L164.3,157.01L169.13,169.57L173.96,162.86L178.79,181.22L183.62,167.86L188.46,163.72L193.29,164.58L198.12,157.87L202.95,152.93L207.79,158.78L212.62,168.72L217.45,162.86L222.28,162.86L227.11,157.87L231.95,152.93L236.78,158.78L241.61,170.43L246.44,158.78L251.28,169.57L256.11,158.78L260.94,152.93L265.77,157.87L270.6,162.86L275.44,157.87L289.93,157.87L294.77,163.72L299.6,175.43L304.43,169.57L314.09,169.57L318.93,163.72L323.76,164.58L328.59,158.78L333.42,164.58L338.26,158.78L343.09,170.43L347.92,170.43L352.75,158.78L357.58,157.87L362.42,162.86L367.25,162.86L372.08,157.87L376.91,157.87L381.74,162.86L386.58,169.57L391.41,174.51L396.24,162.86L401.07,172.8L405.91,167.86L410.74,157.87L415.57,158.78L420.4,152.93L425.23,163.72L430.07,176.29L434.9,181.22L439.73,175.43L444.56,163.72L449.4,162.86L454.23,162.86L459.06,168.72L463.89,168.72L473.56,168.72L478.39,167.86L483.22,172.8L488.05,167.86L492.89,173.65L497.72,168.72L502.55,173.65L507.38,163.72L512.21,162.86L517.05,163.72L521.88,163.72L526.71,164.58L531.54,164.58L536.38,167.86L541.21,169.57L546.04,162.86L555.7,173.65L560.54,173.65L565.37,174.51L570.2,173.65L575.03,178.65L579.87,173.65L594.36,173.65L599.19,185.36L608.86,174.51L613.69,174.51L618.52,168.72L623.36,170.43L628.19,164.58L633.02,165.44L637.85,159.64L642.68,159.64L652.35,170.43L657.18,175.43L662.01,175.43L666.85,170.43L671.68,175.43L676.51,168.72L681.34,178.65L686.17,167.86L691.01,179.51L695.84,163.72L700.67,173.65L705.5,185.36L710.34,167.86L715.17,178.65L720,168.72" style="vector-effect: none; fill: none; stroke: rgb(255, 192, 203); stroke-opacity: 1; stroke-width: 2px; opacity: 1;"/></g><g class="points"/><g class="text"/></g><g class="trace scatter tracebd3feb" style="stroke-miterlimit: 2; opacity: 1;"><g class="fills"/><g class="errorbars"/><g class="lines"><path class="js-line" d="M0,376.2L4.83,371.85L9.66,182.83L14.5,254.29L19.33,131.73L24.16,128.02L28.99,268.67L33.83,118.63L38.66,186.06L43.49,240.28L48.32,135.27L53.15,94.58L57.99,69.46L62.82,72.19L67.65,76.17L72.48,68.11L77.32,76.17L82.15,69.83L86.98,66.88L91.81,82.45L96.64,61.51L101.48,56.25L106.31,67.31L111.14,60.22L115.97,48.09L120.81,50.77L125.64,43.96L130.47,50.67L135.3,46.64L140.13,53.35L144.97,43.96L149.8,41.27L154.63,34.56L159.46,41.27L164.3,38.59L169.13,43.96L173.96,35.9L178.79,46.64L183.62,34.56L193.29,39.93L198.12,37.25L202.95,35.9L207.79,39.93L212.62,39.93L217.45,43.96L222.28,30.54L227.11,33.22L231.95,34.56L236.78,39.93L241.61,39.93L246.44,34.56L251.28,33.22L256.11,37.25L260.94,34.56L265.77,33.22L270.6,27.85L275.44,30.54L280.27,35.9L285.1,30.54L289.93,29.19L294.77,33.22L299.6,37.25L304.43,34.56L309.26,30.54L314.09,29.19L323.76,29.19L328.59,25.17L333.42,29.19L338.26,25.17L343.09,30.54L347.92,29.19L352.75,26.51L357.58,22.48L367.25,22.48L372.08,23.83L376.91,22.48L381.74,22.48L386.58,22.48L391.41,23.83L396.24,21.14L401.07,19.8L405.91,19.8L410.74,21.14L415.57,22.48L420.4,21.14L425.23,19.8L430.07,22.48L439.73,22.48L444.56,21.14L449.4,21.14L454.23,19.8L459.06,21.14L463.89,21.14L468.72,22.48L473.56,21.14L478.39,19.8L483.22,19.8L492.89,22.48L497.72,22.48L502.55,21.14L507.38,23.83L512.21,21.14L517.05,21.14L521.88,21.14L526.71,25.17L531.54,23.83L536.38,21.14L541.21,22.48L546.04,22.48L550.87,21.14L555.7,21.14L570.2,21.14L575.03,19.8L579.87,21.14L584.7,21.14L589.53,21.14L594.36,19.8L599.19,21.14L604.03,21.14L613.69,21.14L618.52,19.8L623.36,21.14L628.19,21.14L642.68,21.14L647.52,19.8L720,19.8" style="vector-effect: none; fill: none; stroke: rgb(165, 42, 42); stroke-opacity: 1; stroke-width: 2px; opacity: 1;"/></g><g class="points"/><g class="text"/></g><g class="trace scatter tracec94b6f" style="stroke-miterlimit: 2; opacity: 1;"><g class="fills"/><g class="errorbars"/><g class="lines"><path class="js-line" d="M0,358.27L4.83,363.37L9.66,191.58L14.5,292.19L19.33,239.9L24.16,258.37L28.99,331.8L33.83,190.67L38.66,271.46L43.49,286.07L48.32,247.09L53.15,187.56L57.99,157.12L62.82,176.77L67.65,174.08L72.48,179.08L77.32,172.31L82.15,154.11L86.98,148.85L91.81,182.46L96.64,154.65L101.48,165.12L106.31,187.56L111.14,175.48L115.97,159.43L120.81,159.86L125.64,155.67L135.3,156.32L140.13,156.32L144.97,161.42L149.8,156.32L154.63,165.92L159.46,160.77L164.3,156.32L169.13,169.04L173.96,162.17L178.79,181.33L183.62,167.21L188.46,163.03L193.29,164.05L198.12,157.12L202.95,152.02L207.79,157.98L212.62,168.07L217.45,162.17L222.28,162.17L227.11,157.12L231.95,152.02L236.78,157.98L241.61,170.17L246.44,157.98L251.28,169.04L256.11,157.98L260.94,152.02L265.77,157.12L270.6,162.17L275.44,157.12L289.93,157.12L294.77,163.03L299.6,175.16L304.43,169.04L314.09,169.04L318.93,163.03L323.76,164.05L328.59,157.98L333.42,164.05L338.26,157.98L343.09,170.17L347.92,170.17L352.75,157.98L357.58,157.12L362.42,162.17L367.25,162.17L372.08,157.12L376.91,157.12L381.74,162.17L386.58,169.04L391.41,174.08L396.24,162.17L401.07,172.31L405.91,167.21L410.74,157.12L415.57,157.98L420.4,152.02L425.23,163.03L430.07,176.39L434.9,181.33L439.73,175.16L444.56,163.03L449.4,162.17L454.23,162.17L459.06,168.07L463.89,168.07L473.56,168.07L478.39,167.21L483.22,172.31L488.05,167.21L492.89,173.12L497.72,168.07L502.55,173.12L507.38,163.03L512.21,162.17L517.05,163.03L521.88,163.03L526.71,164.05L531.54,164.05L536.38,167.21L541.21,169.04L546.04,162.17L555.7,173.12L560.54,173.12L565.37,174.08L570.2,173.12L575.03,178.16L579.87,173.12L594.36,173.12L599.19,185.09L608.86,174.08L613.69,174.08L618.52,168.07L623.36,170.17L628.19,164.05L633.02,165.17L637.85,159.05L642.68,159.05L652.35,170.17L657.18,175.16L662.01,175.16L666.85,170.17L671.68,175.16L676.51,168.07L681.34,178.16L686.17,167.21L691.01,179.08L695.84,163.03L700.67,173.12L705.5,185.09L710.34,167.21L715.17,178.16L720,168.07" style="vector-effect: none; fill: none; stroke: rgb(128, 128, 128); stroke-opacity: 1; stroke-width: 2px; opacity: 1;"/></g><g class="points"/><g class="text"/></g></g></g><g class="overplot"/><path class="xlines-above crisp" d="M0,0" style="fill: none;"/><path class="ylines-above crisp" d="M0,0" style="fill: none;"/><g class="overlines-above"/><g class="xaxislayer-above"><g class="xtick"><text text-anchor="middle" x="0" y="509" transform="translate(241.81,0)" style="font-family: 'Open Sans', verdana, arial, sans-serif; font-size: 12px; fill: rgb(42, 63, 95); fill-opacity: 1; white-space: pre; opacity: 1;">20</text></g><g class="xtick"><text text-anchor="middle" x="0" y="509" style="font-family: 'Open Sans', verdana, arial, sans-serif; font-size: 12px; fill: rgb(42, 63, 95); fill-opacity: 1; white-space: pre; opacity: 1;" transform="translate(338.46000000000004,0)">40</text></g><g class="xtick"><text text-anchor="middle" x="0" y="509" style="font-family: 'Open Sans', verdana, arial, sans-serif; font-size: 12px; fill: rgb(42, 63, 95); fill-opacity: 1; white-space: pre; opacity: 1;" transform="translate(435.1,0)">60</text></g><g class="xtick"><text text-anchor="middle" x="0" y="509" style="font-family: 'Open Sans', verdana, arial, sans-serif; font-size: 12px; fill: rgb(42, 63, 95); fill-opacity: 1; white-space: pre; opacity: 1;" transform="translate(531.74,0)">80</text></g><g class="xtick"><text text-anchor="middle" x="0" y="509" style="font-family: 'Open Sans', verdana, arial, sans-serif; font-size: 12px; fill: rgb(42, 63, 95); fill-opacity: 1; white-space: pre; opacity: 1;" transform="translate(628.39,0)">100</text></g><g class="xtick"><text text-anchor="middle" x="0" y="509" style="font-family: 'Open Sans', verdana, arial, sans-serif; font-size: 12px; fill: rgb(42, 63, 95); fill-opacity: 1; white-space: pre; opacity: 1;" transform="translate(725.03,0)">120</text></g><g class="xtick"><text text-anchor="middle" x="0" y="509" style="font-family: 'Open Sans', verdana, arial, sans-serif; font-size: 12px; fill: rgb(42, 63, 95); fill-opacity: 1; white-space: pre; opacity: 1;" transform="translate(821.68,0)">140</text></g></g><g class="yaxislayer-above"><g class="ytick"><text text-anchor="end" x="149" y="4.199999999999999" transform="translate(0,495.58)" style="font-family: 'Open Sans', verdana, arial, sans-serif; font-size: 12px; fill: rgb(42, 63, 95); fill-opacity: 1; white-space: pre; opacity: 1;">30</text></g><g class="ytick"><text text-anchor="end" x="149" y="4.199999999999999" style="font-family: 'Open Sans', verdana, arial, sans-serif; font-size: 12px; fill: rgb(42, 63, 95); fill-opacity: 1; white-space: pre; opacity: 1;" transform="translate(0,441.9)">40</text></g><g class="ytick"><text text-anchor="end" x="149" y="4.199999999999999" style="font-family: 'Open Sans', verdana, arial, sans-serif; font-size: 12px; fill: rgb(42, 63, 95); fill-opacity: 1; white-space: pre; opacity: 1;" transform="translate(0,388.21)">50</text></g><g class="ytick"><text text-anchor="end" x="149" y="4.199999999999999" style="font-family: 'Open Sans', verdana, arial, sans-serif; font-size: 12px; fill: rgb(42, 63, 95); fill-opacity: 1; white-space: pre; opacity: 1;" transform="translate(0,334.53)">60</text></g><g class="ytick"><text text-anchor="end" x="149" y="4.199999999999999" style="font-family: 'Open Sans', verdana, arial, sans-serif; font-size: 12px; fill: rgb(42, 63, 95); fill-opacity: 1; white-space: pre; opacity: 1;" transform="translate(0,280.85)">70</text></g><g class="ytick"><text text-anchor="end" x="149" y="4.199999999999999" style="font-family: 'Open Sans', verdana, arial, sans-serif; font-size: 12px; fill: rgb(42, 63, 95); fill-opacity: 1; white-space: pre; opacity: 1;" transform="translate(0,227.17000000000002)">80</text></g><g class="ytick"><text text-anchor="end" x="149" y="4.199999999999999" style="font-family: 'Open Sans', verdana, arial, sans-serif; font-size: 12px; fill: rgb(42, 63, 95); fill-opacity: 1; white-space: pre; opacity: 1;" transform="translate(0,173.48000000000002)">90</text></g><g class="ytick"><text text-anchor="end" x="149" y="4.199999999999999" style="font-family: 'Open Sans', verdana, arial, sans-serif; font-size: 12px; fill: rgb(42, 63, 95); fill-opacity: 1; white-space: pre; opacity: 1;" transform="translate(0,119.8)">100</text></g></g><g class="overaxes-above"/></g></g><g class="polarlayer"/><g class="smithlayer"/><g class="ternarylayer"/><g class="geolayer"/><g class="funnelarealayer"/><g class="pielayer"/><g class="iciclelayer"/><g class="treemaplayer"/><g class="sunburstlayer"/><g class="glimages"/><defs id="topdefs-90242e"><g class="clips"/><clipPath id="legend90242e"><rect width="128" height="162" x="0" y="0"/></clipPath></defs><g class="layer-above"><g class="imagelayer"/><g class="shapelayer"/></g><g class="infolayer"><g class="legend" pointer-events="all" transform="translate(884.4,100)"><rect class="bg" shape-rendering="crispEdges" width="128" height="162" x="0" y="0" style="stroke: rgb(68, 68, 68); stroke-opacity: 1; fill: rgb(255, 255, 255); fill-opacity: 1; stroke-width: 0px;"/><g class="scrollbox" transform="" clip-path="url(#legend90242e)"><g class="groups"><g class="traces" transform="translate(0,14.5)" style="opacity: 1;"><text class="legendtext" text-anchor="start" x="40" y="4.680000000000001" style="font-family: 'Open Sans', verdana, arial, sans-serif; font-size: 12px; fill: rgb(42, 63, 95); fill-opacity: 1; white-space: pre;">Train Accuracy</text><g class="layers" style="opacity: 1;"><g class="legendfill"/><g class="legendlines"><path class="js-line" d="M5,0h30" style="fill: none; stroke: rgb(255, 0, 0); stroke-opacity: 1; stroke-width: 2px;"/></g><g class="legendsymbols"><g class="legendpoints"/></g></g><rect class="legendtoggle" x="0" y="-9.5" width="122.71875" height="19" style="fill: rgb(0, 0, 0); fill-opacity: 0;"/></g><g class="traces" transform="translate(0,33.5)" style="opacity: 1;"><text class="legendtext" text-anchor="start" x="40" y="4.680000000000001" style="font-family: 'Open Sans', verdana, arial, sans-serif; font-size: 12px; fill: rgb(42, 63, 95); fill-opacity: 1; white-space: pre;">Test Accuracy</text><g class="layers" style="opacity: 1;"><g class="legendfill"/><g class="legendlines"><path class="js-line" d="M5,0h30" style="fill: none; stroke: rgb(0, 0, 255); stroke-opacity: 1; stroke-width: 2px;"/></g><g class="legendsymbols"><g class="legendpoints"/></g></g><rect class="legendtoggle" x="0" y="-9.5" width="122.71875" height="19" style="fill: rgb(0, 0, 0); fill-opacity: 0;"/></g><g class="traces" transform="translate(0,52.5)" style="opacity: 1;"><text class="legendtext" text-anchor="start" x="40" y="4.680000000000001" style="font-family: 'Open Sans', verdana, arial, sans-serif; font-size: 12px; fill: rgb(42, 63, 95); fill-opacity: 1; white-space: pre;">Train Precision</text><g class="layers" style="opacity: 1;"><g class="legendfill"/><g class="legendlines"><path class="js-line" d="M5,0h30" style="fill: none; stroke: rgb(0, 128, 0); stroke-opacity: 1; stroke-width: 2px;"/></g><g class="legendsymbols"><g class="legendpoints"/></g></g><rect class="legendtoggle" x="0" y="-9.5" width="122.71875" height="19" style="fill: rgb(0, 0, 0); fill-opacity: 0;"/></g><g class="traces" transform="translate(0,71.5)" style="opacity: 1;"><text class="legendtext" text-anchor="start" x="40" y="4.680000000000001" style="font-family: 'Open Sans', verdana, arial, sans-serif; font-size: 12px; fill: rgb(42, 63, 95); fill-opacity: 1; white-space: pre;">Test Precision</text><g class="layers" style="opacity: 1;"><g class="legendfill"/><g class="legendlines"><path class="js-line" d="M5,0h30" style="fill: none; stroke: rgb(255, 165, 0); stroke-opacity: 1; stroke-width: 2px;"/></g><g class="legendsymbols"><g class="legendpoints"/></g></g><rect class="legendtoggle" x="0" y="-9.5" width="122.71875" height="19" style="fill: rgb(0, 0, 0); fill-opacity: 0;"/></g><g class="traces" transform="translate(0,90.5)" style="opacity: 1;"><text class="legendtext" text-anchor="start" x="40" y="4.680000000000001" style="font-family: 'Open Sans', verdana, arial, sans-serif; font-size: 12px; fill: rgb(42, 63, 95); fill-opacity: 1; white-space: pre;">Train Recall</text><g class="layers" style="opacity: 1;"><g class="legendfill"/><g class="legendlines"><path class="js-line" d="M5,0h30" style="fill: none; stroke: rgb(128, 0, 128); stroke-opacity: 1; stroke-width: 2px;"/></g><g class="legendsymbols"><g class="legendpoints"/></g></g><rect class="legendtoggle" x="0" y="-9.5" width="122.71875" height="19" style="fill: rgb(0, 0, 0); fill-opacity: 0;"/></g><g class="traces" transform="translate(0,109.5)" style="opacity: 1;"><text class="legendtext" text-anchor="start" x="40" y="4.680000000000001" style="font-family: 'Open Sans', verdana, arial, sans-serif; font-size: 12px; fill: rgb(42, 63, 95); fill-opacity: 1; white-space: pre;">Test Recall</text><g class="layers" style="opacity: 1;"><g class="legendfill"/><g class="legendlines"><path class="js-line" d="M5,0h30" style="fill: none; stroke: rgb(255, 192, 203); stroke-opacity: 1; stroke-width: 2px;"/></g><g class="legendsymbols"><g class="legendpoints"/></g></g><rect class="legendtoggle" x="0" y="-9.5" width="122.71875" height="19" style="fill: rgb(0, 0, 0); fill-opacity: 0;"/></g><g class="traces" transform="translate(0,128.5)" style="opacity: 1;"><text class="legendtext" text-anchor="start" x="40" y="4.680000000000001" style="font-family: 'Open Sans', verdana, arial, sans-serif; font-size: 12px; fill: rgb(42, 63, 95); fill-opacity: 1; white-space: pre;">Train F1</text><g class="layers" style="opacity: 1;"><g class="legendfill"/><g class="legendlines"><path class="js-line" d="M5,0h30" style="fill: none; stroke: rgb(165, 42, 42); stroke-opacity: 1; stroke-width: 2px;"/></g><g class="legendsymbols"><g class="legendpoints"/></g></g><rect class="legendtoggle" x="0" y="-9.5" width="122.71875" height="19" style="fill: rgb(0, 0, 0); fill-opacity: 0;"/></g><g class="traces" transform="translate(0,147.5)" style="opacity: 1;"><text class="legendtext" text-anchor="start" x="40" y="4.680000000000001" style="font-family: 'Open Sans', verdana, arial, sans-serif; font-size: 12px; fill: rgb(42, 63, 95); fill-opacity: 1; white-space: pre;">Test F1</text><g class="layers" style="opacity: 1;"><g class="legendfill"/><g class="legendlines"><path class="js-line" d="M5,0h30" style="fill: none; stroke: rgb(128, 128, 128); stroke-opacity: 1; stroke-width: 2px;"/></g><g class="legendsymbols"><g class="legendpoints"/></g></g><rect class="legendtoggle" x="0" y="-9.5" width="122.71875" height="19" style="fill: rgb(0, 0, 0); fill-opacity: 0;"/></g></g></g><rect class="scrollbar" rx="20" ry="3" width="0" height="0" x="0" y="0" style="fill: rgb(128, 139, 164); fill-opacity: 1;"/></g><g class="g-gtitle"><text class="gtitle" x="51.2" y="50" text-anchor="start" dy="0em" style="font-family: 'Open Sans', verdana, arial, sans-serif; font-size: 17px; fill: rgb(42, 63, 95); opacity: 1; font-weight: normal; white-space: pre;">Training Metrics - logs/fake-news-datasets-deception-Celebrity_num-clauses=10000_max-vocab=15000_pre=v2_text_T=200_s=15.log</text></g><g class="g-xtitle"><text class="xtitle" x="510" y="537.3" text-anchor="middle" style="font-family: 'Open Sans', verdana, arial, sans-serif; font-size: 14px; fill: rgb(42, 63, 95); opacity: 1; font-weight: normal; white-space: pre;">Epoch</text></g><g class="g-ytitle"><text class="ytitle" transform="rotate(-90,104.10625,298)" x="104.10625" y="298" text-anchor="middle" style="font-family: 'Open Sans', verdana, arial, sans-serif; font-size: 14px; fill: rgb(42, 63, 95); opacity: 1; font-weight: normal; white-space: pre;">Metric Score</text></g></g><g class="menulayer"><g class="updatemenu-container" style="cursor: pointer;"><g class="updatemenu-header-group" transform="translate(12,60)"><g class="updatemenu-header" transform="translate(1,1)" style="pointer-events: all;"><rect class="updatemenu-item-rect" rx="2" ry="2" shape-rendering="crispEdges" x="0" y="0" width="174" height="33" style="stroke: rgb(190, 200, 217); stroke-opacity: 1; fill: rgb(255, 255, 255); fill-opacity: 1; stroke-width: 1px;"/><text class="updatemenu-item-text" text-anchor="start" data-notex="1" x="12" y="19.5" style="font-family: 'Open Sans', verdana, arial, sans-serif; font-size: 12px; fill: rgb(42, 63, 95); fill-opacity: 1; white-space: pre;">All</text></g><text class="updatemenu-header-arrow" text-anchor="end" x="170" y="19.5" style="font-family: 'Open Sans', verdana, arial, sans-serif; font-size: 12px; fill: rgb(42, 63, 95); fill-opacity: 1;">▼</text></g><g class="updatemenu-dropdown-button-group" updatemenu-active-index="-1" style="pointer-events: all;"><rect class="scrollbox-bg" opacity="0" x="0" y="0" width="0" height="0" style="pointer-events: all;"/></g></g></g></svg>