<svg class="main-svg" xmlns="http://www.w3.org/2000/svg" xmlns:xlink="http://www.w3.org/1999/xlink" width="1024" height="576" style="" viewBox="0 0 1024 576"><rect x="0" y="0" width="1024" height="576" style="fill: rgb(255, 255, 255); fill-opacity: 1;"/><defs id="defs-be06da"><g class="clips"><clipPath id="clipbe06daxyplot" class="plotclip"><rect width="734" height="396"/></clipPath><clipPath class="axesclip" id="clipbe06dax"><rect x="135" y="0" width="734" height="576"/></clipPath><clipPath class="axesclip" id="clipbe06day"><rect x="0" y="100" width="1024" height="396"/></clipPath><clipPath class="axesclip" id="clipbe06daxy"><rect x="135" y="100" width="734" height="396"/></clipPath></g><g class="gradients"/><g class="patterns"/></defs><g class="bglayer"><rect class="bg" x="135" y="100" width="734" height="396" style="fill: rgb(229, 236, 246); fill-opacity: 1; stroke-width: 0;"/></g><g class="layer-below"><g class="imagelayer"/><g class="shapelayer"/></g><g class="cartesianlayer"><g class="subplot xy"><g class="layer-subplot"><g class="shapelayer"/><g class="imagelayer"/></g><g class="minor-gridlayer"><g class="x"/><g class="y"/></g><g class="gridlayer"><g class="x"><path class="xgrid crisp" transform="translate(228.6,0)" d="M0,100v396" style="stroke: rgb(255, 255, 255); stroke-opacity: 1; stroke-width: 1px;"/><path class="xgrid crisp" transform="translate(327.12,0)" d="M0,100v396" style="stroke: rgb(255, 255, 255); stroke-opacity: 1; stroke-width: 1px;"/><path class="xgrid crisp" transform="translate(425.64,0)" d="M0,100v396" style="stroke: rgb(255, 255, 255); stroke-opacity: 1; stroke-width: 1px;"/><path class="xgrid crisp" transform="translate(524.1700000000001,0)" d="M0,100v396" style="stroke: rgb(255, 255, 255); stroke-opacity: 1; stroke-width: 1px;"/><path class="xgrid crisp" transform="translate(622.69,0)" d="M0,100v396" style="stroke: rgb(255, 255, 255); stroke-opacity: 1; stroke-width: 1px;"/><path class="xgrid crisp" transform="translate(721.21,0)" d="M0,100v396" style="stroke: rgb(255, 255, 255); stroke-opacity: 1; stroke-width: 1px;"/><path class="xgrid crisp" transform="translate(819.74,0)" d="M0,100v396" style="stroke: rgb(255, 255, 255); stroke-opacity: 1; stroke-width: 1px;"/></g><g class="y"><path class="ygrid crisp" transform="translate(0,445.27)" d="M135,0h734" style="stroke: rgb(255, 255, 255); stroke-opacity: 1; stroke-width: 1px;"/><path class="ygrid crisp" transform="translate(0,362.99)" d="M135,0h734" style="stroke: rgb(255, 255, 255); stroke-opacity: 1; stroke-width: 1px;"/><path class="ygrid crisp" transform="translate(0,280.72)" d="M135,0h734" style="stroke: rgb(255, 255, 255); stroke-opacity: 1; stroke-width: 1px;"/><path class="ygrid crisp" transform="translate(0,198.45)" d="M135,0h734" style="stroke: rgb(255, 255, 255); stroke-opacity: 1; stroke-width: 1px;"/><path class="ygrid crisp" transform="translate(0,116.18)" d="M135,0h734" style="stroke: rgb(255, 255, 255); stroke-opacity: 1; stroke-width: 1px;"/></g></g><g class="zerolinelayer"/><path class="xlines-below"/><path class="ylines-below"/><g class="overlines-below"/><g class="xaxislayer-below"/><g class="yaxislayer-below"/><g class="overaxes-below"/><g class="plot" transform="translate(135,100)" clip-path="url(#clipbe06daxyplot)"><g class="scatterlayer mlayer"><g class="trace scatter tracebc19b4" style="stroke-miterlimit: 2; opacity: 1;"><g class="fills"/><g class="errorbars"/><g class="lines"><path class="js-line" d="M0,70.31L4.93,66.2L9.85,71.63L14.78,64.72L19.7,73.93L24.63,54.68L29.56,54.68L34.48,63.4L39.41,61.92L44.34,97.46L49.26,68.01L54.19,63.07L59.11,83.31L64.04,83.48L68.97,55.83L73.89,53.7L78.82,49.42L83.74,44.65L88.67,45.14L93.6,57.32L98.52,57.32L103.45,49.58L108.38,49.75L113.3,76.73L118.23,63.24L123.15,82.82L128.08,81.17L137.93,62.58L142.86,50.4L147.79,59.13L152.71,108L157.64,195.7L162.56,93.19L167.49,100.76L172.42,57.32L177.34,50.9L182.27,105.2L187.19,135.14L192.12,48.1L197.05,48.1L201.97,40.37L206.9,44.32L211.83,43.49L216.75,55.18L221.68,75.58L226.6,50.08L231.53,59.95L236.46,94.83L241.38,101.25L246.31,121.32L251.23,114.25L256.16,164.76L261.09,89.24L266.01,65.21L270.94,49.58L275.87,69L280.79,101.74L285.72,70.97L290.64,106.35L295.57,57.64L300.5,59.78L305.42,105.69L310.35,48.76L315.28,81.83L320.2,48.27L325.13,90.72L330.05,104.38L334.98,68.67L339.91,141.56L344.83,136.3L349.76,98.45L354.68,115.07L359.61,228.44L364.54,111.29L369.46,108.98L374.39,60.44L379.32,57.97L384.24,41.68L389.17,45.3L394.09,94.83L399.02,80.85L403.95,95L408.87,47.61L413.8,48.1L418.72,59.13L423.65,65.21L428.58,50.9L433.5,47.28L438.43,53.86L443.36,186.98L448.28,104.7L453.21,155.05L458.13,141.4L463.06,170.52L467.99,134.32L472.91,65.05L477.84,91.05L482.77,100.1L487.69,58.14L492.62,84.14L497.54,51.89L502.47,109.31L507.4,78.21L512.32,45.96L517.25,46.13L522.17,53.04L527.1,43.33L532.03,48.76L536.95,39.55L541.88,42.51L546.81,34.28L551.73,41.36L556.66,45.8L561.58,42.01L566.51,64.72L571.44,59.29L576.36,50.9L581.29,40.37L586.21,37.74L591.14,39.38L596.07,39.38L605.92,46.79L610.85,48.6L615.77,39.71L620.7,50.24L625.62,62.58L630.55,133.5L635.48,80.52L640.4,41.68L645.33,78.54L650.26,234.36L655.18,263.65L660.11,88.41L669.96,207.38L674.89,52.54L679.81,176.12L684.74,65.05L689.66,38.89L694.59,44.15L699.52,56.16L704.44,46.79L709.37,83.64L714.3,40.2L724.15,53.2L729.07,55.51L734,41.85" style="vector-effect: none; fill: none; stroke: rgb(255, 0, 0); stroke-opacity: 1; stroke-width: 2px; opacity: 1;"/></g><g class="points"/><g class="text"/></g><g class="trace scatter tracea9ab31" style="stroke-miterlimit: 2; opacity: 1;"><g class="fills"/><g class="errorbars"/><g class="lines"><path class="js-line" d="M0,67.35L4.93,69.66L9.85,74.1L14.78,67.68L19.7,81.17L24.63,52.87L29.56,54.35L34.48,61.43L39.41,57.64L44.34,99.77L49.26,77.06L54.19,68.5L59.11,87.76L64.04,95.33L68.97,62.25L73.89,55.83L78.82,54.02L83.74,50.24L88.67,51.72L93.6,60.77L98.52,60.77L103.45,61.43L108.38,58.8L113.3,95.33L118.23,76.73L123.15,102.24L128.08,102.24L142.86,58.8L147.79,69.16L152.71,121.98L157.64,212.97L162.56,109.31L167.49,110.46L172.42,74.76L177.34,64.39L182.27,111.61L187.19,138.44L192.12,52.54L197.05,54.35L201.97,48.1L206.9,61.76L211.83,53.7L216.75,65.21L221.68,93.84L226.6,61.43L231.53,72.62L236.46,108.32L241.38,109.31L246.31,140.25L251.23,127.25L256.16,157.69L261.09,89.24L266.01,78.87L270.94,59.62L275.87,78.54L280.79,112.77L285.72,83.81L290.64,108.32L295.57,68.18L300.5,68.18L305.42,124.61L310.35,60.77L315.28,93.84L320.2,64.72L325.13,93.02L330.05,116.06L334.98,90.06L339.91,157.36L344.83,171.01L349.76,94.83L354.68,110.79L359.61,223.83L364.54,113.1L369.46,110.79L374.39,73.77L379.32,64.39L384.24,46.62L389.17,47.77L394.09,87.43L399.02,77.06L403.95,88.58L408.87,51.39L413.8,51.06L418.72,65.87L423.65,67.02L428.58,51.06L433.5,54.35L438.43,78.21L443.36,205.57L448.28,126.92L453.21,177.76L458.13,160.32L463.06,204.58L467.99,167.4L472.91,74.1L477.84,109.31L482.77,111.94L487.69,77.06L492.62,108.65L497.54,74.76L502.47,120.5L507.4,100.1L512.32,62.25L517.25,56.66L522.17,67.68L527.1,56.66L532.03,60.28L536.95,49.25L541.88,46.95L546.81,40.2L551.73,50.24L556.66,55.83L561.58,53.2L566.51,88.91L571.44,78.54L576.36,65.54L581.29,39.87L586.21,34.61L591.14,43.99L596.07,42.84L600.99,49.25L605.92,57.32L610.85,56.99L615.77,51.06L620.7,59.62L625.62,86.28L630.55,174.8L635.48,103.88L640.4,49.25L645.33,99.27L650.26,253.94L655.18,276.65L660.11,108.65L665.03,166.9L669.96,215.28L674.89,61.1L679.81,175.13L684.74,78.87L689.66,49.25L694.59,58.8L699.52,72.29L704.44,63.24L709.37,85.62L714.3,50.24L719.22,54.02L724.15,54.02L729.07,56.16L734,38.39" style="vector-effect: none; fill: none; stroke: rgb(0, 0, 255); stroke-opacity: 1; stroke-width: 2px; opacity: 1;"/></g><g class="points"/><g class="text"/></g><g class="trace scatter trace393631" style="stroke-miterlimit: 2; opacity: 1;"><g class="fills"/><g class="errorbars"/><g class="lines"><path class="js-line" d="M0,114.74L4.93,124.45L9.85,157.69L14.78,144.85L19.7,171.67L24.63,101.91L29.56,93.68L34.48,126.75L39.41,138.27L44.34,218.73L49.26,157.85L54.19,134.49L59.11,191.58L64.04,187.47L68.97,108L73.89,100.26L78.82,95.33L83.74,84.79L88.67,81.67L93.6,125.11L98.52,127.9L103.45,97.63L108.38,94.34L113.3,179.41L118.23,153.57L123.15,194.71L128.08,192.73L137.93,146.99L142.86,106.51L147.79,146.83L152.71,235.52L157.64,316.96L162.56,213.3L167.49,225.15L172.42,134.16L177.34,112.6L182.27,231.73L187.19,272.87L192.12,98.62L197.05,87.43L201.97,63.73L206.9,85.45L211.83,67.02L221.68,175.62L226.6,104.7L231.53,143.21L236.46,214.78L241.38,225.97L246.31,253.78L251.23,244.24L256.16,301L261.09,206.56L266.01,164.76L270.94,115.07L275.87,170.52L280.79,226.47L285.72,176.12L290.64,233.21L295.57,147.16L300.5,149.13L305.42,231.4L310.35,121.65L315.28,193.39L320.2,117.54L325.13,209.19L330.05,230.25L334.98,172L339.91,274.02L344.83,263.16L349.76,221.37L354.68,245.22L359.61,357.11L364.54,241.27L369.46,236.83L374.39,144.03L379.32,144.03L384.24,92.36L389.17,90.06L394.09,215.11L399.02,185.66L403.95,211.82L408.87,78.05L413.8,102.89L418.72,139.59L423.65,152.75L428.58,118.03L433.5,114.74L438.43,137.78L443.36,319.1L448.28,229.92L453.21,282.25L458.13,271.06L463.06,295.24L467.99,266.29L472.91,150.78L477.84,208.2L482.77,223.5L487.69,148.31L492.62,199.97L497.54,131.69L502.47,237L507.4,189.44L512.32,107.83L517.25,103.72L522.17,133.01L527.1,89.24L532.03,107.01L536.95,78.38L541.88,87.1L546.81,50.73L551.73,86.11L556.66,107.01L561.58,95.49L566.51,164.43L571.44,146.33L576.36,120.34L581.29,53.86L586.21,33.29L591.14,64.23L596.07,57.81L600.99,92.03L605.92,102.07L610.85,99.27L615.77,92.36L620.7,120.66L625.62,159L630.55,262.67L635.48,192.9L640.4,75.25L645.33,188.79L650.26,341.81L655.18,360.57L660.11,206.72L665.03,276.16L669.96,319.93L674.89,129.88L679.81,313.51L684.74,162.46L689.66,84.47L694.59,107.34L699.52,134.65L704.44,119.02L709.37,197.01L714.3,85.62L719.22,114.41L724.15,130.54L729.07,133.66L734,78.38" style="vector-effect: none; fill: none; stroke: rgb(0, 128, 0); stroke-opacity: 1; stroke-width: 2px; opacity: 1;"/></g><g class="points"/><g class="text"/></g><g class="trace scatter trace696b64" style="stroke-miterlimit: 2; opacity: 1;"><g class="fills"/><g class="errorbars"/><g class="lines"><path class="js-line" d="M0,108.65L9.85,159.99L14.78,149.3L19.7,184.67L24.63,95L29.56,92.53L34.48,122.47L39.41,130.21L44.34,221.86L49.26,176.44L54.19,147.16L59.11,199.65L64.04,209.19L68.97,123.63L73.89,105.2L78.82,104.38L83.74,95.82L88.67,95.33L93.6,129.71L98.52,133.01L103.45,124.45L108.38,115.56L113.3,211.82L118.23,176.61L123.15,225.97L128.08,226.14L133.01,198.33L137.93,163.61L142.86,123.46L147.79,163.78L152.71,255.1L157.64,336.38L162.56,237.49L167.49,239.14L172.42,168.38L177.34,140.41L182.27,240.29L187.19,276.49L192.12,107.67L197.05,102.07L201.97,81.83L206.9,127.41L211.83,92.86L216.75,143.7L221.68,208.86L226.6,128.56L231.53,165.42L236.46,235.35L241.38,237.49L246.31,278.96L251.23,262.34L256.16,293.76L261.09,206.23L266.01,188.13L270.94,135.47L280.79,241.77L285.72,196.03L290.64,234.86L295.57,166.08L300.5,164.1L305.42,256.25L310.35,144.36L315.28,211.49L320.2,148.8L325.13,211.66L330.05,245.55L334.98,206.56L339.91,294.92L344.83,304.62L349.76,214.45L354.68,238.81L359.61,355.14L364.54,243.08L369.46,238.64L374.39,167.4L379.32,153.57L384.24,100.1L389.17,96.15L394.09,201.29L399.02,176.12L403.95,197.67L408.87,87.1L413.8,106.68L418.72,152.75L423.65,155.88L428.58,115.89L433.5,128.07L438.43,183.03L443.36,336.38L448.28,258.39L453.21,305.78L458.13,293.6L463.06,331.77L467.99,309.07L472.91,167.23L477.84,237.33L482.77,241.6L487.69,181.05L492.62,236.17L497.54,174.8L502.47,251.97L507.4,223.18L512.32,138.93L517.25,122.15L522.17,159.5L527.1,118.36L532.03,130.04L536.95,100.92L541.88,100.1L546.81,65.38L551.73,105.03L556.66,128.07L561.58,120.34L566.51,204.75L571.44,182.7L576.36,150.78L581.29,48.92L586.21,19.8L591.14,77.23L596.07,63.4L600.99,103.55L605.92,123.63L610.85,117.54L615.77,116.39L620.7,136.95L625.62,199.65L630.55,312.03L635.48,228.77L640.4,91.21L650.26,361.88L655.18,376.2L660.11,235.68L665.03,297.05L669.96,334.24L674.89,146L679.81,314.17L684.74,185.82L689.66,106.02L694.59,141.73L699.52,167.07L704.44,150.61L709.37,198.82L714.3,108.65L719.22,129.06L724.15,128.4L729.07,132.51L734,65.87" style="vector-effect: none; fill: none; stroke: rgb(255, 165, 0); stroke-opacity: 1; stroke-width: 2px; opacity: 1;"/></g><g class="points"/><g class="text"/></g><g class="trace scatter trace76d050" style="stroke-miterlimit: 2; opacity: 1;"><g class="fills"/><g class="errorbars"/><g class="lines"><path class="js-line" d="M0,331.28L9.85,289.49L14.78,279.45L19.7,274.35L24.63,290.14L29.56,297.05L34.48,297.05L39.41,276.65L44.34,278.63L49.26,271.72L54.19,286.36L59.11,277.64L64.04,290.97L68.97,288.66L73.89,288.33L78.82,278.46L83.74,272.54L88.67,276.32L93.6,275.66L98.52,272.04L103.45,277.31L108.38,280.93L113.3,270.23L118.23,256.91L123.15,260.36L128.08,253.62L133.01,263.49L137.93,266.45L142.86,271.55L147.79,249.83L152.71,257.07L157.64,267.6L162.56,257.89L167.49,266.78L172.42,263.16L177.34,266.29L182.27,259.87L187.19,282.41L192.12,271.22L197.05,281.42L201.97,275.5L206.9,270.56L211.83,282.08L216.75,268.92L221.68,273.85L226.6,271.88L231.53,260.69L236.46,274.84L241.38,265.96L246.31,266.12L251.23,262.01L256.16,280.77L261.09,258.06L266.01,240.12L270.94,258.88L275.87,246.21L280.79,251.97L285.72,240.62L290.64,257.89L295.57,241.6L300.5,248.51L305.42,243.91L310.35,246.21L315.28,257.73L320.2,250.16L325.13,259.05L330.05,252.96L334.98,238.64L339.91,259.05L344.83,236.67L349.76,266.29L354.68,261.51L359.61,316.96L364.54,276.98L369.46,255.75L374.39,261.35L379.32,250L384.24,255.75L389.17,270.07L394.09,269.74L399.02,278.79L403.95,295.24L408.87,286.85L413.8,266.78L418.72,262.99L423.65,268.42L428.58,259.87L433.5,249.83L438.43,241.77L443.36,285.54L448.28,240.62L453.21,248.02L458.13,249.01L467.99,256.41L472.91,271.06L477.84,270.73L482.77,277.64L487.69,242.1L492.62,239.46L497.54,243.91L502.47,252.3L507.4,242.26L512.32,254.11L517.25,259.05L522.17,246.54L527.1,264.15L532.03,265.13L536.95,261.68L541.88,263.65L546.81,266.45L551.73,260.2L556.66,253.94L561.58,253.12L566.51,237L571.44,251.48L576.36,256.74L581.29,282.08L586.21,286.2L591.14,272.21L596.07,276.32L600.99,259.21L605.92,263.16L610.85,272.21L615.77,248.68L620.7,254.11L625.62,240.62L630.55,244.73L635.48,247.2L640.4,271.06L645.33,249.34L650.26,281.42L655.18,297.38L660.11,236.17L665.03,242.76L669.96,261.02L674.89,249.67L679.81,291.13L684.74,244.89L689.66,254.11L694.59,247.53L699.52,257.73L704.44,242.43L709.37,256.25L714.3,257.07L719.22,247.03L729.07,256.58L734,268.75" style="vector-effect: none; fill: none; stroke: rgb(128, 0, 128); stroke-opacity: 1; stroke-width: 2px; opacity: 1;"/></g><g class="points"/><g class="text"/></g><g class="trace scatter trace0e3f2c" style="stroke-miterlimit: 2; opacity: 1;"><g class="fills"/><g class="errorbars"/><g class="lines"><path class="js-line" d="M0,324.04L9.85,294.26L14.78,282.74L19.7,279.94L24.63,288.17L29.56,294.92L34.48,291.79L39.41,268.26L44.34,277.47L49.26,276.82L54.19,288.99L59.11,276.98L64.04,301.33L68.97,293.27L73.89,289.16L83.74,279.12L88.67,284.39L98.52,276.49L103.45,289.65L113.3,289.81L118.23,273.85L123.15,280.77L128.08,277.64L133.01,282.74L137.93,278.79L142.86,281.09L147.79,262.67L157.64,291.13L162.56,280.11L167.49,279.78L172.42,282.58L177.34,281.59L182.27,268.92L187.19,286.69L192.12,275.34L197.05,287.02L201.97,283.4L211.83,292.45L216.75,279.94L221.68,289.81L226.6,284.88L231.53,276.98L236.46,292.61L241.38,282.25L246.31,288.33L251.23,281.42L256.16,278.79L261.09,253.78L266.01,249.5L270.94,268.42L275.87,258.22L280.79,267.11L285.72,255.92L290.64,255.75L295.57,250.32L300.5,255.59L305.42,262.83L310.35,259.21L315.28,275.17L320.2,270.23L325.13,262.99L330.05,259.87L334.98,262.17L339.91,283.89L344.83,278.63L349.76,266.45L354.68,261.68L359.61,318.77L364.54,283.07L369.46,259.54L374.39,278.79L379.32,259.54L384.24,262.5L389.17,270.07L394.09,265.79L403.95,290.64L408.87,289.81L413.8,271.22L418.72,268.42L423.65,268.1L428.58,260.69L433.5,257.56L438.43,264.8L443.36,299.85L448.28,260.03L453.21,268.92L458.13,271.55L463.06,291.3L467.99,300.51L472.91,281.09L477.84,290.14L482.77,292.94L487.69,263.65L492.62,269.74L497.54,267.44L502.47,266.94L507.4,263.98L512.32,274.35L517.25,274.35L522.17,264.31L527.1,278.63L532.03,278.96L536.95,270.56L541.88,263.82L546.81,272.04L551.73,270.23L556.66,263.82L561.58,263.65L566.51,260.36L571.44,268.26L576.36,270.23L581.29,281.75L586.21,283.56L591.14,274.51L596.07,281.09L600.99,267.93L605.92,275.34L610.85,280.93L615.77,260.2L620.7,266.29L625.62,262.83L630.55,291.13L635.48,269.08L640.4,279.45L645.33,270.89L650.26,306.43L655.18,318.77L660.11,261.18L665.03,265.96L669.96,284.22L674.89,257.73L679.81,296.07L684.74,260.03L689.66,265.3L694.59,255.26L699.52,271.55L704.44,259.87L709.37,259.21L714.3,266.45L719.22,254.77L724.15,255.75L729.07,258.88L734,265.96" style="vector-effect: none; fill: none; stroke: rgb(255, 192, 203); stroke-opacity: 1; stroke-width: 2px; opacity: 1;"/></g><g class="points"/><g class="text"/></g><g class="trace scatter trace6ab514" style="stroke-miterlimit: 2; opacity: 1;"><g class="fills"/><g class="errorbars"/><g class="lines"><path class="js-line" d="M0,287.51L4.93,265.13L9.85,250.98L14.78,239.46L19.7,240.45L24.63,242.92L29.56,248.84L34.48,253.12L39.41,235.84L44.34,255.92L49.26,235.19L54.19,244.07L59.11,247.86L64.04,257.89L68.97,242.43L73.89,240.95L78.82,230.58L83.74,223.18L88.67,226.47L93.6,232.55L98.52,229.76L103.45,229.76L108.38,232.72L113.3,238.97L118.23,221.86L123.15,235.35L128.08,229.92L133.01,231.24L137.93,228.44L142.86,225.64L147.79,214.62L152.71,247.36L157.64,301.83L162.56,239.63L167.49,249.67L172.42,223.01L177.34,221.69L182.27,247.53L187.19,277.8L192.12,224L197.05,232.39L201.97,223.34L206.9,221.37L211.83,230.41L216.75,226.14L221.68,240.95L226.6,225.48L231.53,222.68L236.46,251.81L241.38,249.34L246.31,260.36L251.23,253.94L256.16,292.12L261.09,237.49L266.01,211.66L270.94,215.44L275.87,217.91L280.79,240.62L285.72,215.61L290.64,246.87L295.57,208.04L300.5,213.96L305.42,237.98L310.35,205.9L315.28,233.05L320.2,208.37L325.13,238.97L330.05,242.76L334.98,212.81L339.91,267.11L344.83,251.81L349.76,247.86L354.68,253.94L359.61,345.1L364.54,262.01L369.46,247.03L374.39,223.5L379.32,213.96L384.24,208.53L389.17,221.69L394.09,248.35L399.02,247.36L403.95,266.78L408.87,236.67L413.8,220.54L418.72,224L423.65,231.4L428.58,216.92L433.5,207.54L438.43,205.9L443.36,306.6L448.28,235.52L453.21,268.59L458.13,261.35L463.06,280.11L467.99,261.68L472.91,233.21L477.84,247.03L482.77,256.58L487.69,208.7L492.62,222.68L497.54,206.23L502.47,245.22L507.4,220.87L512.32,209.85L517.25,213.63L522.17,208.7L527.1,215.77L532.03,219.72L536.95,211.82L541.88,214.95L546.81,212.48L551.73,211.66L561.58,206.72L566.51,209.35L571.44,215.77L576.36,214.62L581.29,228.93L586.21,230.91L591.14,220.05L596.07,223.5L600.99,211.66L605.92,217.09L610.85,224.99L615.77,202.11L620.7,212.48L625.62,210.51L630.55,254.6L635.48,225.48L640.4,220.38L645.33,225.64L650.26,329.96L655.18,353.49L660.11,223.18L665.03,262.83L669.96,305.12L674.89,210.51L679.81,304.13L684.74,214.62L689.66,205.57L694.59,204.09L699.52,218.4L704.44,202.11L709.37,233.05L714.3,208.53L719.22,205.08L724.15,212.32L729.07,217.09L734,218.57" style="vector-effect: none; fill: none; stroke: rgb(165, 42, 42); stroke-opacity: 1; stroke-width: 2px; opacity: 1;"/></g><g class="points"/><g class="text"/></g><g class="trace scatter tracec78c62" style="stroke-miterlimit: 2; opacity: 1;"><g class="fills"/><g class="errorbars"/><g class="lines"><path class="js-line" d="M0,279.12L4.93,265.46L9.85,255.75L14.78,243.25L19.7,248.02L24.63,240.29L29.56,246.7L34.48,247.53L39.41,226.8L44.34,255.92L49.26,243.58L54.19,248.68L59.11,249.34L64.04,271.39L68.97,249.17L73.89,242.43L78.82,237L83.74,231.4L88.67,236.34L93.6,238.15L98.52,234.69L103.45,245.72L108.38,244.24L113.3,262.5L118.23,241.27L123.15,259.54L128.08,257.4L133.01,253.62L137.93,242.59L142.86,237.33L147.79,229.1L152.71,267.11L157.64,322.89L162.56,262.83L167.49,263.16L172.42,246.87L177.34,240.62L182.27,256.58L187.19,281.92L192.12,229.43L197.05,239.96L201.97,233.71L206.9,244.4L211.83,244.24L216.75,239.79L221.68,261.84L226.6,241.77L231.53,241.44L236.46,271.06L241.38,264.31L246.31,283.89L251.23,272.7L256.16,287.02L261.09,234.36L266.01,225.64L270.94,227.95L275.87,231.24L280.79,255.92L285.72,232.55L290.64,246.21L295.57,219.88L300.5,223.5L305.42,259.7L310.35,221.69L315.28,251.15L320.2,232.22L325.13,242.59L330.05,253.12L334.98,240.29L339.91,289.81L344.83,293.93L349.76,245.72L354.68,251.48L359.61,343.46L364.54,266.78L369.46,250.16L374.39,243.25L379.32,224.16L384.24,216.1L389.17,222.68L394.09,241.27L399.02,243.91L403.95,259.87L408.87,240.95L413.8,225.31L418.72,231.4L423.65,231.73L428.58,217.42L433.5,217.09L438.43,235.52L443.36,323.71L448.28,259.21L453.21,292.12L458.13,284.22L463.06,318.45L467.99,305.12L472.91,245.39L477.84,269.74L482.77,273.03L487.69,234.03L492.62,255.43L497.54,235.52L502.47,260.03L512.32,233.87L517.25,230.91L522.17,229.43L527.1,234.2L532.03,236.5L536.95,223.83L541.88,217.42L546.81,220.05L551.73,224.16L556.66,222.52L561.58,220.87L566.51,238.48L571.44,238.15L576.36,232.55L581.29,228.11L586.21,226.96L591.14,224.16L596.07,229.1L600.99,221.69L605.92,232.06L610.85,236.34L615.77,216.92L620.7,226.3L625.62,238.64L630.55,303.14L635.48,252.46L640.4,231.07L645.33,251.15L650.26,352.18L655.18,370.11L660.11,250L665.03,284.71L669.96,320.42L674.89,221.04L679.81,306.27L684.74,232.72L689.66,219.72L694.59,217.91L699.52,237.16L704.44,223.67L709.37,235.84L714.3,221.37L719.22,214.78L724.15,215.44L729.07,218.9L734,214.29" style="vector-effect: none; fill: none; stroke: rgb(128, 128, 128); stroke-opacity: 1; stroke-width: 2px; opacity: 1;"/></g><g class="points"/><g class="text"/></g></g></g><g class="overplot"/><path class="xlines-above crisp" d="M0,0" style="fill: none;"/><path class="ylines-above crisp" d="M0,0" style="fill: none;"/><g class="overlines-above"/><g class="xaxislayer-above"><g class="xtick"><text text-anchor="middle" x="0" y="509" transform="translate(228.6,0)" style="font-family: 'Open Sans', verdana, arial, sans-serif; font-size: 12px; fill: rgb(42, 63, 95); fill-opacity: 1; white-space: pre; opacity: 1;">20</text></g><g class="xtick"><text text-anchor="middle" x="0" y="509" style="font-family: 'Open Sans', verdana, arial, sans-serif; font-size: 12px; fill: rgb(42, 63, 95); fill-opacity: 1; white-space: pre; opacity: 1;" transform="translate(327.12,0)">40</text></g><g class="xtick"><text text-anchor="middle" x="0" y="509" style="font-family: 'Open Sans', verdana, arial, sans-serif; font-size: 12px; fill: rgb(42, 63, 95); fill-opacity: 1; white-space: pre; opacity: 1;" transform="translate(425.64,0)">60</text></g><g class="xtick"><text text-anchor="middle" x="0" y="509" style="font-family: 'Open Sans', verdana, arial, sans-serif; font-size: 12px; fill: rgb(42, 63, 95); fill-opacity: 1; white-space: pre; opacity: 1;" transform="translate(524.1700000000001,0)">80</text></g><g class="xtick"><text text-anchor="middle" x="0" y="509" style="font-family: 'Open Sans', verdana, arial, sans-serif; font-size: 12px; fill: rgb(42, 63, 95); fill-opacity: 1; white-space: pre; opacity: 1;" transform="translate(622.69,0)">100</text></g><g class="xtick"><text text-anchor="middle" x="0" y="509" style="font-family: 'Open Sans', verdana, arial, sans-serif; font-size: 12px; fill: rgb(42, 63, 95); fill-opacity: 1; white-space: pre; opacity: 1;" transform="translate(721.21,0)">120</text></g><g class="xtick"><text text-anchor="middle" x="0" y="509" style="font-family: 'Open Sans', verdana, arial, sans-serif; font-size: 12px; fill: rgb(42, 63, 95); fill-opacity: 1; white-space: pre; opacity: 1;" transform="translate(819.74,0)">140</text></g></g><g class="yaxislayer-above"><g class="ytick"><text text-anchor="end" x="134" y="4.199999999999999" transform="translate(0,445.27)" style="font-family: 'Open Sans', verdana, arial, sans-serif; font-size: 12px; fill: rgb(42, 63, 95); fill-opacity: 1; white-space: pre; opacity: 1;">65</text></g><g class="ytick"><text text-anchor="end" x="134" y="4.199999999999999" style="font-family: 'Open Sans', verdana, arial, sans-serif; font-size: 12px; fill: rgb(42, 63, 95); fill-opacity: 1; white-space: pre; opacity: 1;" transform="translate(0,362.99)">70</text></g><g class="ytick"><text text-anchor="end" x="134" y="4.199999999999999" style="font-family: 'Open Sans', verdana, arial, sans-serif; font-size: 12px; fill: rgb(42, 63, 95); fill-opacity: 1; white-space: pre; opacity: 1;" transform="translate(0,280.72)">75</text></g><g class="ytick"><text text-anchor="end" x="134" y="4.199999999999999" style="font-family: 'Open Sans', verdana, arial, sans-serif; font-size: 12px; fill: rgb(42, 63, 95); fill-opacity: 1; white-space: pre; opacity: 1;" transform="translate(0,198.45)">80</text></g><g class="ytick"><text text-anchor="end" x="134" y="4.199999999999999" style="font-family: 'Open Sans', verdana, arial, sans-serif; font-size: 12px; fill: rgb(42, 63, 95); fill-opacity: 1; white-space: pre; opacity: 1;" transform="translate(0,116.18)">85</text></g></g><g class="overaxes-above"/></g></g><g class="polarlayer"/><g class="smithlayer"/><g class="ternarylayer"/><g class="geolayer"/><g class="funnelarealayer"/><g class="pielayer"/><g class="iciclelayer"/><g class="treemaplayer"/><g class="sunburstlayer"/><g class="glimages"/><defs id="topdefs-be06da"><g class="clips"/><clipPath id="legendbe06da"><rect width="128" height="162" x="0" y="0"/></clipPath></defs><g class="layer-above"><g class="imagelayer"/><g class="shapelayer"/></g><g class="infolayer"><g class="legend" pointer-events="all" transform="translate(883.6800000000001,100)"><rect class="bg" shape-rendering="crispEdges" width="128" height="162" x="0" y="0" style="stroke: rgb(68, 68, 68); stroke-opacity: 1; fill: rgb(255, 255, 255); fill-opacity: 1; stroke-width: 0px;"/><g class="scrollbox" transform="" clip-path="url(#legendbe06da)"><g class="groups"><g class="traces" transform="translate(0,14.5)" style="opacity: 1;"><text class="legendtext" text-anchor="start" x="40" y="4.680000000000001" style="font-family: 'Open Sans', verdana, arial, sans-serif; font-size: 12px; fill: rgb(42, 63, 95); fill-opacity: 1; white-space: pre;">Train Accuracy</text><g class="layers" style="opacity: 1;"><g class="legendfill"/><g class="legendlines"><path class="js-line" d="M5,0h30" style="fill: none; stroke: rgb(255, 0, 0); stroke-opacity: 1; stroke-width: 2px;"/></g><g class="legendsymbols"><g class="legendpoints"/></g></g><rect class="legendtoggle" x="0" y="-9.5" width="122.71875" height="19" style="fill: rgb(0, 0, 0); fill-opacity: 0;"/></g><g class="traces" transform="translate(0,33.5)" style="opacity: 1;"><text class="legendtext" text-anchor="start" x="40" y="4.680000000000001" style="font-family: 'Open Sans', verdana, arial, sans-serif; font-size: 12px; fill: rgb(42, 63, 95); fill-opacity: 1; white-space: pre;">Test Accuracy</text><g class="layers" style="opacity: 1;"><g class="legendfill"/><g class="legendlines"><path class="js-line" d="M5,0h30" style="fill: none; stroke: rgb(0, 0, 255); stroke-opacity: 1; stroke-width: 2px;"/></g><g class="legendsymbols"><g class="legendpoints"/></g></g><rect class="legendtoggle" x="0" y="-9.5" width="122.71875" height="19" style="fill: rgb(0, 0, 0); fill-opacity: 0;"/></g><g class="traces" transform="translate(0,52.5)" style="opacity: 1;"><text class="legendtext" text-anchor="start" x="40" y="4.680000000000001" style="font-family: 'Open Sans', verdana, arial, sans-serif; font-size: 12px; fill: rgb(42, 63, 95); fill-opacity: 1; white-space: pre;">Train Precision</text><g class="layers" style="opacity: 1;"><g class="legendfill"/><g class="legendlines"><path class="js-line" d="M5,0h30" style="fill: none; stroke: rgb(0, 128, 0); stroke-opacity: 1; stroke-width: 2px;"/></g><g class="legendsymbols"><g class="legendpoints"/></g></g><rect class="legendtoggle" x="0" y="-9.5" width="122.71875" height="19" style="fill: rgb(0, 0, 0); fill-opacity: 0;"/></g><g class="traces" transform="translate(0,71.5)" style="opacity: 1;"><text class="legendtext" text-anchor="start" x="40" y="4.680000000000001" style="font-family: 'Open Sans', verdana, arial, sans-serif; font-size: 12px; fill: rgb(42, 63, 95); fill-opacity: 1; white-space: pre;">Test Precision</text><g class="layers" style="opacity: 1;"><g class="legendfill"/><g class="legendlines"><path class="js-line" d="M5,0h30" style="fill: none; stroke: rgb(255, 165, 0); stroke-opacity: 1; stroke-width: 2px;"/></g><g class="legendsymbols"><g class="legendpoints"/></g></g><rect class="legendtoggle" x="0" y="-9.5" width="122.71875" height="19" style="fill: rgb(0, 0, 0); fill-opacity: 0;"/></g><g class="traces" transform="translate(0,90.5)" style="opacity: 1;"><text class="legendtext" text-anchor="start" x="40" y="4.680000000000001" style="font-family: 'Open Sans', verdana, arial, sans-serif; font-size: 12px; fill: rgb(42, 63, 95); fill-opacity: 1; white-space: pre;">Train Recall</text><g class="layers" style="opacity: 1;"><g class="legendfill"/><g class="legendlines"><path class="js-line" d="M5,0h30" style="fill: none; stroke: rgb(128, 0, 128); stroke-opacity: 1; stroke-width: 2px;"/></g><g class="legendsymbols"><g class="legendpoints"/></g></g><rect class="legendtoggle" x="0" y="-9.5" width="122.71875" height="19" style="fill: rgb(0, 0, 0); fill-opacity: 0;"/></g><g class="traces" transform="translate(0,109.5)" style="opacity: 1;"><text class="legendtext" text-anchor="start" x="40" y="4.680000000000001" style="font-family: 'Open Sans', verdana, arial, sans-serif; font-size: 12px; fill: rgb(42, 63, 95); fill-opacity: 1; white-space: pre;">Test Recall</text><g class="layers" style="opacity: 1;"><g class="legendfill"/><g class="legendlines"><path class="js-line" d="M5,0h30" style="fill: none; stroke: rgb(255, 192, 203); stroke-opacity: 1; stroke-width: 2px;"/></g><g class="legendsymbols"><g class="legendpoints"/></g></g><rect class="legendtoggle" x="0" y="-9.5" width="122.71875" height="19" style="fill: rgb(0, 0, 0); fill-opacity: 0;"/></g><g class="traces" transform="translate(0,128.5)" style="opacity: 1;"><text class="legendtext" text-anchor="start" x="40" y="4.680000000000001" style="font-family: 'Open Sans', verdana, arial, sans-serif; font-size: 12px; fill: rgb(42, 63, 95); fill-opacity: 1; white-space: pre;">Train F1</text><g class="layers" style="opacity: 1;"><g class="legendfill"/><g class="legendlines"><path class="js-line" d="M5,0h30" style="fill: none; stroke: rgb(165, 42, 42); stroke-opacity: 1; stroke-width: 2px;"/></g><g class="legendsymbols"><g class="legendpoints"/></g></g><rect class="legendtoggle" x="0" y="-9.5" width="122.71875" height="19" style="fill: rgb(0, 0, 0); fill-opacity: 0;"/></g><g class="traces" transform="translate(0,147.5)" style="opacity: 1;"><text class="legendtext" text-anchor="start" x="40" y="4.680000000000001" style="font-family: 'Open Sans', verdana, arial, sans-serif; font-size: 12px; fill: rgb(42, 63, 95); fill-opacity: 1; white-space: pre;">Test F1</text><g class="layers" style="opacity: 1;"><g class="legendfill"/><g class="legendlines"><path class="js-line" d="M5,0h30" style="fill: none; stroke: rgb(128, 128, 128); stroke-opacity: 1; stroke-width: 2px;"/></g><g class="legendsymbols"><g class="legendpoints"/></g></g><rect class="legendtoggle" x="0" y="-9.5" width="122.71875" height="19" style="fill: rgb(0, 0, 0); fill-opacity: 0;"/></g></g></g><rect class="scrollbar" rx="20" ry="3" width="0" height="0" x="0" y="0" style="fill: rgb(128, 139, 164); fill-opacity: 1;"/></g><g class="g-gtitle"><text class="gtitle" x="51.2" y="50" text-anchor="start" dy="0em" style="font-family: 'Open Sans', verdana, arial, sans-serif; font-size: 17px; fill: rgb(42, 63, 95); opacity: 1; font-weight: normal; white-space: pre;">Training Metrics - logs/FakeNewsNet-gossipcop_max-vocab=15000_pre=v2_domain_T=250_s=5.log</text></g><g class="g-xtitle"><text class="xtitle" x="502" y="537.3" text-anchor="middle" style="font-family: 'Open Sans', verdana, arial, sans-serif; font-size: 14px; fill: rgb(42, 63, 95); opacity: 1; font-weight: normal; white-space: pre;">Epoch</text></g><g class="g-ytitle"><text class="ytitle" transform="rotate(-90,95.965625,298)" x="95.965625" y="298" text-anchor="middle" style="font-family: 'Open Sans', verdana, arial, sans-serif; font-size: 14px; fill: rgb(42, 63, 95); opacity: 1; font-weight: normal; white-space: pre;">Metric Score</text></g></g><g class="menulayer"><g class="updatemenu-container" style="cursor: pointer;"><g class="updatemenu-header-group" transform="translate(12,60)"><g class="updatemenu-header" transform="translate(1,1)" style="pointer-events: all;"><rect class="updatemenu-item-rect" rx="2" ry="2" shape-rendering="crispEdges" x="0" y="0" width="160" height="33" style="stroke: rgb(190, 200, 217); stroke-opacity: 1; fill: rgb(255, 255, 255); fill-opacity: 1; stroke-width: 1px;"/><text class="updatemenu-item-text" text-anchor="start" data-notex="1" x="12" y="19.5" style="font-family: 'Open Sans', verdana, arial, sans-serif; font-size: 12px; fill: rgb(42, 63, 95); fill-opacity: 1; white-space: pre;">All</text></g><text class="updatemenu-header-arrow" text-anchor="end" x="156" y="19.5" style="font-family: 'Open Sans', verdana, arial, sans-serif; font-size: 12px; fill: rgb(42, 63, 95); fill-opacity: 1;">▼</text></g><g class="updatemenu-dropdown-button-group" updatemenu-active-index="-1" style="pointer-events: all;"><rect class="scrollbox-bg" opacity="0" x="0" y="0" width="0" height="0" style="pointer-events: all;"/></g></g></g></svg>