<svg class="main-svg" xmlns="http://www.w3.org/2000/svg" xmlns:xlink="http://www.w3.org/1999/xlink" width="1024" height="576" style="" viewBox="0 0 1024 576"><rect x="0" y="0" width="1024" height="576" style="fill: rgb(255, 255, 255); fill-opacity: 1;"/><defs id="defs-75b278"><g class="clips"><clipPath id="clip75b278xyplot" class="plotclip"><rect width="726" height="396"/></clipPath><clipPath class="axesclip" id="clip75b278x"><rect x="143" y="0" width="726" height="576"/></clipPath><clipPath class="axesclip" id="clip75b278y"><rect x="0" y="100" width="1024" height="396"/></clipPath><clipPath class="axesclip" id="clip75b278xy"><rect x="143" y="100" width="726" height="396"/></clipPath></g><g class="gradients"/><g class="patterns"/></defs><g class="bglayer"><rect class="bg" x="143" y="100" width="726" height="396" style="fill: rgb(229, 236, 246); fill-opacity: 1; stroke-width: 0;"/></g><g class="layer-below"><g class="imagelayer"/><g class="shapelayer"/></g><g class="cartesianlayer"><g class="subplot xy"><g class="layer-subplot"><g class="shapelayer"/><g class="imagelayer"/></g><g class="minor-gridlayer"><g class="x"/><g class="y"/></g><g class="gridlayer"><g class="x"><path class="xgrid crisp" transform="translate(209,0)" d="M0,100v396" style="stroke: rgb(255, 255, 255); stroke-opacity: 1; stroke-width: 1px;"/><path class="xgrid crisp" transform="translate(282.33000000000004,0)" d="M0,100v396" style="stroke: rgb(255, 255, 255); stroke-opacity: 1; stroke-width: 1px;"/><path class="xgrid crisp" transform="translate(355.66999999999996,0)" d="M0,100v396" style="stroke: rgb(255, 255, 255); stroke-opacity: 1; stroke-width: 1px;"/><path class="xgrid crisp" transform="translate(429,0)" d="M0,100v396" style="stroke: rgb(255, 255, 255); stroke-opacity: 1; stroke-width: 1px;"/><path class="xgrid crisp" transform="translate(502.33,0)" d="M0,100v396" style="stroke: rgb(255, 255, 255); stroke-opacity: 1; stroke-width: 1px;"/><path class="xgrid crisp" transform="translate(575.6700000000001,0)" d="M0,100v396" style="stroke: rgb(255, 255, 255); stroke-opacity: 1; stroke-width: 1px;"/><path class="xgrid crisp" transform="translate(649,0)" d="M0,100v396" style="stroke: rgb(255, 255, 255); stroke-opacity: 1; stroke-width: 1px;"/><path class="xgrid crisp" transform="translate(722.33,0)" d="M0,100v396" style="stroke: rgb(255, 255, 255); stroke-opacity: 1; stroke-width: 1px;"/><path class="xgrid crisp" transform="translate(795.67,0)" d="M0,100v396" style="stroke: rgb(255, 255, 255); stroke-opacity: 1; stroke-width: 1px;"/></g><g class="y"><path class="ygrid crisp" transform="translate(0,467.4)" d="M143,0h726" style="stroke: rgb(255, 255, 255); stroke-opacity: 1; stroke-width: 1px;"/><path class="ygrid crisp" transform="translate(0,406.7)" d="M143,0h726" style="stroke: rgb(255, 255, 255); stroke-opacity: 1; stroke-width: 1px;"/><path class="ygrid crisp" transform="translate(0,346.01)" d="M143,0h726" style="stroke: rgb(255, 255, 255); stroke-opacity: 1; stroke-width: 1px;"/><path class="ygrid crisp" transform="translate(0,285.31)" d="M143,0h726" style="stroke: rgb(255, 255, 255); stroke-opacity: 1; stroke-width: 1px;"/><path class="ygrid crisp" transform="translate(0,224.62)" d="M143,0h726" style="stroke: rgb(255, 255, 255); stroke-opacity: 1; stroke-width: 1px;"/><path class="ygrid crisp" transform="translate(0,163.93)" d="M143,0h726" style="stroke: rgb(255, 255, 255); stroke-opacity: 1; stroke-width: 1px;"/><path class="ygrid crisp" transform="translate(0,103.23)" d="M143,0h726" style="stroke: rgb(255, 255, 255); stroke-opacity: 1; stroke-width: 1px;"/></g></g><g class="zerolinelayer"/><path class="xlines-below"/><path class="ylines-below"/><g class="overlines-below"/><g class="xaxislayer-below"/><g class="yaxislayer-below"/><g class="overaxes-below"/><g class="plot" transform="translate(143,100)" clip-path="url(#clip75b278xyplot)"><g class="scatterlayer mlayer"><g class="trace scatter traceb83e5d" style="stroke-miterlimit: 2; opacity: 1;"><g class="fills"/><g class="errorbars"/><g class="lines"><path class="js-line" d="M0,284.13L14.67,169.05L22,61.92L29.33,65.5L36.67,75.58L44,68.36L51.33,74.85L58.67,65.5L66,59.01L73.33,55.43L80.67,53.3L88,58.34L95.33,54.7L102.67,50.39L110,148.9L117.33,130.2L124.67,132.39L132,123.04L139.33,119.46L146.67,120.19L154,117.28L161.33,111.51L168.67,112.97L176,43.23L183.33,38.19L190.67,43.23L198,42.5L205.33,40.31L212.67,42.5L220,45.35L227.33,97.13L234.67,96.46L242,89.96L256.67,87.11L264,31.7L278.67,34.61L286,43.23L293.33,37.46L300.67,38.19L308,41.04L315.33,45.35L322.67,38.19L330,35.28L337.33,29.57L344.67,34.61L352,38.19L359.33,36.01L366.67,37.46L374,30.97L381.33,34.61L388.67,36.73L396,30.97L403.33,33.88L418,37.46L425.33,27.39L432.67,30.97L440,31.7L462,40.31L469.33,38.92L476.67,31.7L484,37.46L506,32.42L513.33,28.84L520.67,24.53L528,28.12L535.33,32.42L542.67,33.88L550,31.7L557.33,28.12L564.67,27.39L572,31.7L586.67,33.15L594,29.57L608.67,27.39L616,28.84L623.33,32.42L630.67,32.42L638,23.81L645.33,23.08L652.67,23.08L660,28.84L674.67,28.84L682,25.93L689.33,27.39L696.67,24.53L704,24.53L711.33,28.12L718.67,28.12L726,35.28" style="vector-effect: none; fill: none; stroke: rgb(255, 0, 0); stroke-opacity: 1; stroke-width: 2px; opacity: 1;"/></g><g class="points"/><g class="text"/></g><g class="trace scatter tracef38514" style="stroke-miterlimit: 2; opacity: 1;"><g class="fills"/><g class="errorbars"/><g class="lines"><path class="js-line" d="M0,320.42L7.33,300.39L14.67,234.54L22,111.45L29.33,102.89L36.67,128.63L44,108.6L51.33,131.48L58.67,94.27L66,88.57L73.33,108.6L80.67,108.6L88,114.3L95.33,125.77L102.67,125.77L110,205.95L117.33,208.8L124.67,205.95L132,194.48L139.33,160.13L146.67,180.16L154,185.86L161.33,168.68L168.67,160.13L176,97.13L183.33,99.98L190.67,111.45L198,102.89L205.33,91.42L220,108.6L227.33,171.6L234.67,162.98L242,162.98L249.33,151.51L256.67,154.42L264,102.89L271.33,108.6L278.67,97.13L286,102.89L293.33,91.42L300.67,99.98L308,111.45L315.33,108.6L322.67,91.42L330,105.74L337.33,88.57L344.67,102.89L352,108.6L359.33,120.07L366.67,114.3L374,120.07L381.33,111.45L388.67,120.07L396,108.6L403.33,108.6L410.67,99.98L418,102.89L425.33,85.65L432.67,94.27L440,99.98L447.33,94.27L454.67,99.98L462,102.89L469.33,99.98L476.67,94.27L484,97.13L491.33,102.89L498.67,94.27L506,91.42L513.33,105.74L520.67,105.74L528,99.98L535.33,99.98L542.67,91.42L550,88.57L557.33,97.13L564.67,94.27L572,102.89L579.33,102.89L586.67,94.27L594,102.89L601.33,102.89L608.67,99.98L616,94.27L623.33,99.98L630.67,94.27L638,91.42L645.33,88.57L652.67,94.27L660,102.89L667.33,102.89L674.67,102.89L682,97.13L689.33,102.89L696.67,94.27L704,88.57L711.33,91.42L718.67,94.27L726,105.74" style="vector-effect: none; fill: none; stroke: rgb(0, 0, 255); stroke-opacity: 1; stroke-width: 2px; opacity: 1;"/></g><g class="points"/><g class="text"/></g><g class="trace scatter trace01866f" style="stroke-miterlimit: 2; opacity: 1;"><g class="fills"/><g class="errorbars"/><g class="lines"><path class="js-line" d="M0,116.43L7.33,110.84L14.67,99.31L22,65.14L29.33,68.78L36.67,74.43L44,71.75L51.33,74.36L58.67,68.36L66,62.16L73.33,58.04L80.67,55.97L88,59.62L95.33,57.43L102.67,51.79L110,98.22L117.33,90.51L124.67,91.66L132,84.93L139.33,86.38L146.67,85.96L154,88.26L161.33,85.65L168.67,84.32L176,44.81L183.33,39.95L190.67,44.26L198,44.44L205.33,43.29L212.67,44.81L220,47.78L227.33,76.97L234.67,75.88L242,72.48L249.33,74.43L256.67,71.27L264,34.12L278.67,36.67L286,44.26L293.33,39.04L300.67,39.1L308,41.16L315.33,44.99L322.67,38.74L330,36.07L337.33,31.57L344.67,36.43L352,39.83L359.33,37.4L366.67,37.7L374,32.91L381.33,36.55L388.67,38.37L396,32.12L403.33,35.16L418,38.49L425.33,29.09L432.67,31.94L440,32.36L447.33,35.46L454.67,37.52L462,40.31L469.33,39.1L476.67,32.91L484,38.68L506,33.4L513.33,30.54L520.67,25.57L528,29.75L535.33,34.18L542.67,35.76L550,33.4L557.33,29.39L564.67,27.63L572,32.18L586.67,34.85L594,31.7L601.33,30L608.67,29.33L616,30.79L623.33,33.88L630.67,34.31L638,26.36L645.33,25.63L652.67,25.75L660,30.91L667.33,30.79L674.67,30.79L682,28.12L689.33,29.57L696.67,26.78L704,26.9L711.33,30.48L718.67,30.12L726,36.61" style="vector-effect: none; fill: none; stroke: rgb(0, 128, 0); stroke-opacity: 1; stroke-width: 2px; opacity: 1;"/></g><g class="points"/><g class="text"/></g><g class="trace scatter traceb8b4dc" style="stroke-miterlimit: 2; opacity: 1;"><g class="fills"/><g class="errorbars"/><g class="lines"><path class="js-line" d="M0,133.3L7.33,157.33L14.67,139.19L22,119.4L29.33,111.93L36.67,124.56L44,118.55L51.33,128.32L58.67,101.92L66,99.43L73.33,118.55L80.67,120.31L88,119.64L95.33,132.33L102.67,129.96L110,153.75L117.33,159.09L124.67,153.75L132,147.2L139.33,127.96L146.67,139.19L154,148.84L161.33,141.49L168.67,130.93L176,104.41L183.33,108.6L190.67,118.37L198,111.09L205.33,101.37L220,116.91L227.33,148.41L234.67,140.64L242,143.07L249.33,135.85L256.67,137.67L264,111.93L271.33,116L278.67,103.44L286,108.11L293.33,98.58L300.67,105.8L308,116.18L315.33,112.72L322.67,97.67L330,111.57L337.33,96.88L344.67,110.17L352,112.72L359.33,124.2L366.67,118.43L374,124.2L381.33,117.34L388.67,122.86L396,113.88L403.33,113.88L410.67,105.8L418,108.11L425.33,91.84L432.67,100.04L440,105.8L447.33,100.04L454.67,105.8L462,108.11L469.33,105.8L476.67,101.01L484,103.44L491.33,108.11L498.67,98.95L506,97.67L513.33,111.57L520.67,111.57L528,107.75L535.33,108.6L542.67,100.16L550,96.09L557.33,103.44L564.67,98.95L572,109.2L579.33,109.2L586.67,101.92L594,110.17L601.33,111.09L608.67,108.6L616,102.77L623.33,106.84L630.67,101.92L638,100.16L645.33,96.88L652.67,103.44L660,110.17L667.33,109.2L674.67,110.17L682,106.05L689.33,111.09L696.67,102.77L704,97.61L711.33,99.43L718.67,102.77L726,112.6" style="vector-effect: none; fill: none; stroke: rgb(255, 165, 0); stroke-opacity: 1; stroke-width: 2px; opacity: 1;"/></g><g class="points"/><g class="text"/></g><g class="trace scatter trace56201e" style="stroke-miterlimit: 2; opacity: 1;"><g class="fills"/><g class="errorbars"/><g class="lines"><path class="js-line" d="M0,236.72L14.67,139.79L22,62.95L36.67,69.93L44,69.93L51.33,69.81L58.67,64.84L73.33,54.03L80.67,52.21L88,54.88L95.33,53.67L102.67,46.87L110,124.07L117.33,108.48L124.67,110.3L132,101.8L139.33,99.67L146.67,100.04L154,98.76L161.33,94.03L168.67,94.58L176,39.71L183.33,34.91L190.67,38.98L198,39.59L205.33,40.31L212.67,40.25L220,43.47L227.33,81.65L234.67,80.8L242,75.46L249.33,75.4L256.67,73.21L264,29.57L271.33,30.79L278.67,31.82L286,38.98L293.33,33.82L300.67,33.7L308,35.7L315.33,39.65L322.67,33.21L330,30.54L337.33,26.54L344.67,31.33L352,34.67L359.33,32.06L366.67,32.12L374,27.75L381.33,31.57L388.67,33.21L396,26.54L403.33,29.75L418,33.09L425.33,23.68L432.67,26.36L440,26.72L447.33,29.88L454.67,32L462,34.85L469.33,33.64L476.67,27.45L484,33.33L506,27.81L513.33,25.2L520.67,19.8L528,24.35L535.33,28.96L542.67,30.73L550,28.12L557.33,23.87L564.67,21.8L572,26.48L586.67,29.63L594,26.78L601.33,24.78L608.67,24.17L616,25.69L623.33,28.54L630.67,29.21L638,22.05L645.33,21.44L652.67,21.92L660,25.87L667.33,25.69L674.67,25.69L682,23.2L689.33,24.66L696.67,21.92L704,22.17L711.33,25.75L718.67,25.02L726,31.21" style="vector-effect: none; fill: none; stroke: rgb(128, 0, 128); stroke-opacity: 1; stroke-width: 2px; opacity: 1;"/></g><g class="points"/><g class="text"/></g><g class="trace scatter trace5e1ade" style="stroke-miterlimit: 2; opacity: 1;"><g class="fills"/><g class="errorbars"/><g class="lines"><path class="js-line" d="M0,241.46L7.33,227.25L14.67,178.4L22,111.93L29.33,105.14L36.67,115.76L44,112.91L51.33,119.64L58.67,93.48L66,98.7L73.33,112.91L80.67,117.76L88,110.96L95.33,124.86L102.67,121.65L110,165.53L117.33,169.41L124.67,165.53L132,156.48L139.33,129.29L146.67,145.13L154,152.9L161.33,140.95L168.67,130.93L176,95.73L183.33,101.25L190.67,110.3L205.33,96.09L212.67,102.89L220,109.69L227.33,146.47L234.67,138.03L242,139.67L249.33,130.63L256.67,132.87L264,105.14L271.33,108.05L278.67,94.09L286,98.64L293.33,89.6L300.67,96.34L308,107.02L315.33,103.13L322.67,87.96L330,102.53L337.33,88.93L344.67,101.86L352,103.13L359.33,115.46L366.67,109.32L374,115.46L381.33,108.66L388.67,113.82L396,104.77L403.33,104.77L410.67,96.34L418,98.64L425.33,81.77L432.67,90.21L440,96.34L447.33,90.21L454.67,96.34L462,98.64L469.33,96.34L476.67,91.84L484,94.09L491.33,98.64L498.67,88.57L506,87.96L513.33,102.53L520.67,102.53L528,99.61L535.33,101.25L542.67,92.82L550,87.29L557.33,94.09L564.67,88.57L572,100.28L579.33,100.28L586.67,93.48L594,101.86L601.33,103.5L608.67,101.25L616,95.06L623.33,97.97L630.67,93.48L638,92.82L645.33,88.93L652.67,96.7L660,101.86L667.33,100.28L674.67,101.86L682,98.95L689.33,103.5L696.67,95.06L704,90.57L711.33,91.18L718.67,95.06L726,104.17" style="vector-effect: none; fill: none; stroke: rgb(255, 192, 203); stroke-opacity: 1; stroke-width: 2px; opacity: 1;"/></g><g class="points"/><g class="text"/></g><g class="trace scatter tracee0a40c" style="stroke-miterlimit: 2; opacity: 1;"><g class="fills"/><g class="errorbars"/><g class="lines"><path class="js-line" d="M0,349.86L7.33,251.53L14.67,177.61L22,64.29L29.33,67.93L36.67,76.25L44,71.03L51.33,75.64L58.67,67.38L66,61.19L73.33,57.01L80.67,54.94L88,59.37L95.33,56.4L102.67,51.42L110,153.09L117.33,132.33L124.67,134.7L132,124.8L139.33,120.67L146.67,121.52L154,118.13L161.33,112.12L168.67,113.76L176,44.2L183.33,39.22L190.67,44.08L198,43.59L205.33,42.14L212.67,43.77L220,46.75L227.33,97.31L234.67,96.64L242,90.02L249.33,88.51L256.67,87.11L264,32.91L278.67,35.7L286,44.08L293.33,38.43L300.67,38.98L308,41.71L315.33,45.96L322.67,38.92L330,36.07L337.33,30.6L344.67,35.58L352,39.16L359.33,36.92L366.67,38.13L374,32L381.33,35.64L388.67,37.7L396,31.76L403.33,34.73L418,38.25L425.33,28.3L432.67,31.76L440,32.42L462,40.98L469.33,39.59L476.67,32.55L484,38.31L498.67,34.67L506,33.15L513.33,29.75L520.67,25.2L535.33,33.4L542.67,34.91L550,32.67L557.33,28.9L564.67,27.99L572,32.36L586.67,34.12L594,30.6L601.33,29.09L608.67,28.36L616,29.81L623.33,33.33L630.67,33.46L638,25.02L645.33,24.29L652.67,24.41L660,29.88L667.33,29.81L674.67,29.81L682,27.02L689.33,28.48L696.67,25.57L704,25.63L711.33,29.27L718.67,29.15L726,36.19" style="vector-effect: none; fill: none; stroke: rgb(165, 42, 42); stroke-opacity: 1; stroke-width: 2px; opacity: 1;"/></g><g class="points"/><g class="text"/></g><g class="trace scatter trace0cb0b5" style="stroke-miterlimit: 2; opacity: 1;"><g class="fills"/><g class="errorbars"/><g class="lines"><path class="js-line" d="M0,376.2L7.33,340.09L14.67,245.34L22,118L29.33,110.05L36.67,130.87L44,116.79L51.33,133.97L58.67,100.16L66,99.07L73.33,116.79L80.67,119.22L88,119.4L95.33,131.84L102.67,130.63L110,207.83L117.33,210.5L124.67,207.83L132,195.57L139.33,160.13L146.67,180.58L154,186.16L161.33,168.68L168.67,160.13L176,102.83L183.33,106.78L190.67,117.4L198,109.39L205.33,99.43L220,115.39L227.33,171.66L234.67,163.1L242,163.22L249.33,152.11L256.67,154.85L264,110.05L271.33,114.73L278.67,102.28L286,107.63L293.33,96.88L300.67,104.95L308,116.18L315.33,112.97L322.67,96.34L330,110.84L337.33,94.82L344.67,108.78L352,112.97L359.33,124.74L366.67,118.85L374,124.74L381.33,116.73L388.67,124.2L396,113.51L403.33,113.51L410.67,104.95L418,107.63L425.33,90.45L432.67,99.07L440,104.95L447.33,99.07L454.67,104.95L462,107.63L469.33,104.95L476.67,99.61L484,102.28L491.33,107.63L498.67,98.52L506,96.34L513.33,110.84L520.67,110.84L528,106.11L535.33,106.78L542.67,98.1L550,94.21L557.33,102.28L564.67,98.52L572,108.17L579.33,108.17L586.67,100.16L594,108.78L601.33,109.39L608.67,106.78L616,100.77L623.33,105.5L630.67,100.16L638,98.1L645.33,94.82L652.67,101.43L660,108.78L667.33,108.17L674.67,108.78L682,104.11L689.33,109.39L696.67,100.77L704,95.43L711.33,97.49L718.67,100.77L726,111.45" style="vector-effect: none; fill: none; stroke: rgb(128, 128, 128); stroke-opacity: 1; stroke-width: 2px; opacity: 1;"/></g><g class="points"/><g class="text"/></g></g></g><g class="overplot"/><path class="xlines-above crisp" d="M0,0" style="fill: none;"/><path class="ylines-above crisp" d="M0,0" style="fill: none;"/><g class="overlines-above"/><g class="xaxislayer-above"><g class="xtick"><text text-anchor="middle" x="0" y="509" transform="translate(209,0)" style="font-family: 'Open Sans', verdana, arial, sans-serif; font-size: 12px; fill: rgb(42, 63, 95); fill-opacity: 1; white-space: pre; opacity: 1;">10</text></g><g class="xtick"><text text-anchor="middle" x="0" y="509" style="font-family: 'Open Sans', verdana, arial, sans-serif; font-size: 12px; fill: rgb(42, 63, 95); fill-opacity: 1; white-space: pre; opacity: 1;" transform="translate(282.33000000000004,0)">20</text></g><g class="xtick"><text text-anchor="middle" x="0" y="509" style="font-family: 'Open Sans', verdana, arial, sans-serif; font-size: 12px; fill: rgb(42, 63, 95); fill-opacity: 1; white-space: pre; opacity: 1;" transform="translate(355.66999999999996,0)">30</text></g><g class="xtick"><text text-anchor="middle" x="0" y="509" style="font-family: 'Open Sans', verdana, arial, sans-serif; font-size: 12px; fill: rgb(42, 63, 95); fill-opacity: 1; white-space: pre; opacity: 1;" transform="translate(429,0)">40</text></g><g class="xtick"><text text-anchor="middle" x="0" y="509" style="font-family: 'Open Sans', verdana, arial, sans-serif; font-size: 12px; fill: rgb(42, 63, 95); fill-opacity: 1; white-space: pre; opacity: 1;" transform="translate(502.33,0)">50</text></g><g class="xtick"><text text-anchor="middle" x="0" y="509" style="font-family: 'Open Sans', verdana, arial, sans-serif; font-size: 12px; fill: rgb(42, 63, 95); fill-opacity: 1; white-space: pre; opacity: 1;" transform="translate(575.6700000000001,0)">60</text></g><g class="xtick"><text text-anchor="middle" x="0" y="509" style="font-family: 'Open Sans', verdana, arial, sans-serif; font-size: 12px; fill: rgb(42, 63, 95); fill-opacity: 1; white-space: pre; opacity: 1;" transform="translate(649,0)">70</text></g><g class="xtick"><text text-anchor="middle" x="0" y="509" style="font-family: 'Open Sans', verdana, arial, sans-serif; font-size: 12px; fill: rgb(42, 63, 95); fill-opacity: 1; white-space: pre; opacity: 1;" transform="translate(722.33,0)">80</text></g><g class="xtick"><text text-anchor="middle" x="0" y="509" style="font-family: 'Open Sans', verdana, arial, sans-serif; font-size: 12px; fill: rgb(42, 63, 95); fill-opacity: 1; white-space: pre; opacity: 1;" transform="translate(795.67,0)">90</text></g><g class="xtick"><text text-anchor="middle" x="0" y="509" style="font-family: 'Open Sans', verdana, arial, sans-serif; font-size: 12px; fill: rgb(42, 63, 95); fill-opacity: 1; white-space: pre; opacity: 1;" transform="translate(869,0)">100</text></g></g><g class="yaxislayer-above"><g class="ytick"><text text-anchor="end" x="142" y="4.199999999999999" transform="translate(0,467.4)" style="font-family: 'Open Sans', verdana, arial, sans-serif; font-size: 12px; fill: rgb(42, 63, 95); fill-opacity: 1; white-space: pre; opacity: 1;">30</text></g><g class="ytick"><text text-anchor="end" x="142" y="4.199999999999999" style="font-family: 'Open Sans', verdana, arial, sans-serif; font-size: 12px; fill: rgb(42, 63, 95); fill-opacity: 1; white-space: pre; opacity: 1;" transform="translate(0,406.7)">40</text></g><g class="ytick"><text text-anchor="end" x="142" y="4.199999999999999" style="font-family: 'Open Sans', verdana, arial, sans-serif; font-size: 12px; fill: rgb(42, 63, 95); fill-opacity: 1; white-space: pre; opacity: 1;" transform="translate(0,346.01)">50</text></g><g class="ytick"><text text-anchor="end" x="142" y="4.199999999999999" style="font-family: 'Open Sans', verdana, arial, sans-serif; font-size: 12px; fill: rgb(42, 63, 95); fill-opacity: 1; white-space: pre; opacity: 1;" transform="translate(0,285.31)">60</text></g><g class="ytick"><text text-anchor="end" x="142" y="4.199999999999999" style="font-family: 'Open Sans', verdana, arial, sans-serif; font-size: 12px; fill: rgb(42, 63, 95); fill-opacity: 1; white-space: pre; opacity: 1;" transform="translate(0,224.62)">70</text></g><g class="ytick"><text text-anchor="end" x="142" y="4.199999999999999" style="font-family: 'Open Sans', verdana, arial, sans-serif; font-size: 12px; fill: rgb(42, 63, 95); fill-opacity: 1; white-space: pre; opacity: 1;" transform="translate(0,163.93)">80</text></g><g class="ytick"><text text-anchor="end" x="142" y="4.199999999999999" style="font-family: 'Open Sans', verdana, arial, sans-serif; font-size: 12px; fill: rgb(42, 63, 95); fill-opacity: 1; white-space: pre; opacity: 1;" transform="translate(0,103.23)">90</text></g></g><g class="overaxes-above"/></g></g><g class="polarlayer"/><g class="smithlayer"/><g class="ternarylayer"/><g class="geolayer"/><g class="funnelarealayer"/><g class="pielayer"/><g class="iciclelayer"/><g class="treemaplayer"/><g class="sunburstlayer"/><g class="glimages"/><defs id="topdefs-75b278"><g class="clips"/><clipPath id="legend75b278"><rect width="128" height="162" x="0" y="0"/></clipPath></defs><g class="layer-above"><g class="imagelayer"/><g class="shapelayer"/></g><g class="infolayer"><g class="legend" pointer-events="all" transform="translate(883.52,100)"><rect class="bg" shape-rendering="crispEdges" width="128" height="162" x="0" y="0" style="stroke: rgb(68, 68, 68); stroke-opacity: 1; fill: rgb(255, 255, 255); fill-opacity: 1; stroke-width: 0px;"/><g class="scrollbox" transform="" clip-path="url(#legend75b278)"><g class="groups"><g class="traces" transform="translate(0,14.5)" style="opacity: 1;"><text class="legendtext" text-anchor="start" x="40" y="4.680000000000001" style="font-family: 'Open Sans', verdana, arial, sans-serif; font-size: 12px; fill: rgb(42, 63, 95); fill-opacity: 1; white-space: pre;">Train Accuracy</text><g class="layers" style="opacity: 1;"><g class="legendfill"/><g class="legendlines"><path class="js-line" d="M5,0h30" style="fill: none; stroke: rgb(255, 0, 0); stroke-opacity: 1; stroke-width: 2px;"/></g><g class="legendsymbols"><g class="legendpoints"/></g></g><rect class="legendtoggle" x="0" y="-9.5" width="122.71875" height="19" style="fill: rgb(0, 0, 0); fill-opacity: 0;"/></g><g class="traces" transform="translate(0,33.5)" style="opacity: 1;"><text class="legendtext" text-anchor="start" x="40" y="4.680000000000001" style="font-family: 'Open Sans', verdana, arial, sans-serif; font-size: 12px; fill: rgb(42, 63, 95); fill-opacity: 1; white-space: pre;">Test Accuracy</text><g class="layers" style="opacity: 1;"><g class="legendfill"/><g class="legendlines"><path class="js-line" d="M5,0h30" style="fill: none; stroke: rgb(0, 0, 255); stroke-opacity: 1; stroke-width: 2px;"/></g><g class="legendsymbols"><g class="legendpoints"/></g></g><rect class="legendtoggle" x="0" y="-9.5" width="122.71875" height="19" style="fill: rgb(0, 0, 0); fill-opacity: 0;"/></g><g class="traces" transform="translate(0,52.5)" style="opacity: 1;"><text class="legendtext" text-anchor="start" x="40" y="4.680000000000001" style="font-family: 'Open Sans', verdana, arial, sans-serif; font-size: 12px; fill: rgb(42, 63, 95); fill-opacity: 1; white-space: pre;">Train Precision</text><g class="layers" style="opacity: 1;"><g class="legendfill"/><g class="legendlines"><path class="js-line" d="M5,0h30" style="fill: none; stroke: rgb(0, 128, 0); stroke-opacity: 1; stroke-width: 2px;"/></g><g class="legendsymbols"><g class="legendpoints"/></g></g><rect class="legendtoggle" x="0" y="-9.5" width="122.71875" height="19" style="fill: rgb(0, 0, 0); fill-opacity: 0;"/></g><g class="traces" transform="translate(0,71.5)" style="opacity: 1;"><text class="legendtext" text-anchor="start" x="40" y="4.680000000000001" style="font-family: 'Open Sans', verdana, arial, sans-serif; font-size: 12px; fill: rgb(42, 63, 95); fill-opacity: 1; white-space: pre;">Test Precision</text><g class="layers" style="opacity: 1;"><g class="legendfill"/><g class="legendlines"><path class="js-line" d="M5,0h30" style="fill: none; stroke: rgb(255, 165, 0); stroke-opacity: 1; stroke-width: 2px;"/></g><g class="legendsymbols"><g class="legendpoints"/></g></g><rect class="legendtoggle" x="0" y="-9.5" width="122.71875" height="19" style="fill: rgb(0, 0, 0); fill-opacity: 0;"/></g><g class="traces" transform="translate(0,90.5)" style="opacity: 1;"><text class="legendtext" text-anchor="start" x="40" y="4.680000000000001" style="font-family: 'Open Sans', verdana, arial, sans-serif; font-size: 12px; fill: rgb(42, 63, 95); fill-opacity: 1; white-space: pre;">Train Recall</text><g class="layers" style="opacity: 1;"><g class="legendfill"/><g class="legendlines"><path class="js-line" d="M5,0h30" style="fill: none; stroke: rgb(128, 0, 128); stroke-opacity: 1; stroke-width: 2px;"/></g><g class="legendsymbols"><g class="legendpoints"/></g></g><rect class="legendtoggle" x="0" y="-9.5" width="122.71875" height="19" style="fill: rgb(0, 0, 0); fill-opacity: 0;"/></g><g class="traces" transform="translate(0,109.5)" style="opacity: 1;"><text class="legendtext" text-anchor="start" x="40" y="4.680000000000001" style="font-family: 'Open Sans', verdana, arial, sans-serif; font-size: 12px; fill: rgb(42, 63, 95); fill-opacity: 1; white-space: pre;">Test Recall</text><g class="layers" style="opacity: 1;"><g class="legendfill"/><g class="legendlines"><path class="js-line" d="M5,0h30" style="fill: none; stroke: rgb(255, 192, 203); stroke-opacity: 1; stroke-width: 2px;"/></g><g class="legendsymbols"><g class="legendpoints"/></g></g><rect class="legendtoggle" x="0" y="-9.5" width="122.71875" height="19" style="fill: rgb(0, 0, 0); fill-opacity: 0;"/></g><g class="traces" transform="translate(0,128.5)" style="opacity: 1;"><text class="legendtext" text-anchor="start" x="40" y="4.680000000000001" style="font-family: 'Open Sans', verdana, arial, sans-serif; font-size: 12px; fill: rgb(42, 63, 95); fill-opacity: 1; white-space: pre;">Train F1</text><g class="layers" style="opacity: 1;"><g class="legendfill"/><g class="legendlines"><path class="js-line" d="M5,0h30" style="fill: none; stroke: rgb(165, 42, 42); stroke-opacity: 1; stroke-width: 2px;"/></g><g class="legendsymbols"><g class="legendpoints"/></g></g><rect class="legendtoggle" x="0" y="-9.5" width="122.71875" height="19" style="fill: rgb(0, 0, 0); fill-opacity: 0;"/></g><g class="traces" transform="translate(0,147.5)" style="opacity: 1;"><text class="legendtext" text-anchor="start" x="40" y="4.680000000000001" style="font-family: 'Open Sans', verdana, arial, sans-serif; font-size: 12px; fill: rgb(42, 63, 95); fill-opacity: 1; white-space: pre;">Test F1</text><g class="layers" style="opacity: 1;"><g class="legendfill"/><g class="legendlines"><path class="js-line" d="M5,0h30" style="fill: none; stroke: rgb(128, 128, 128); stroke-opacity: 1; stroke-width: 2px;"/></g><g class="legendsymbols"><g class="legendpoints"/></g></g><rect class="legendtoggle" x="0" y="-9.5" width="122.71875" height="19" style="fill: rgb(0, 0, 0); fill-opacity: 0;"/></g></g></g><rect class="scrollbar" rx="20" ry="3" width="0" height="0" x="0" y="0" style="fill: rgb(128, 139, 164); fill-opacity: 1;"/></g><g class="g-gtitle"><text class="gtitle" x="51.2" y="50" text-anchor="start" dy="0em" style="font-family: 'Open Sans', verdana, arial, sans-serif; font-size: 17px; fill: rgb(42, 63, 95); opacity: 1; font-weight: normal; white-space: pre;">Training Metrics - logs/FakeNewsNet-politifact_text_domain.log</text></g><g class="g-xtitle"><text class="xtitle" x="506" y="537.3" text-anchor="middle" style="font-family: 'Open Sans', verdana, arial, sans-serif; font-size: 14px; fill: rgb(42, 63, 95); opacity: 1; font-weight: normal; white-space: pre;">Epoch</text></g><g class="g-ytitle"><text class="ytitle" transform="rotate(-90,103.965625,298)" x="103.965625" y="298" text-anchor="middle" style="font-family: 'Open Sans', verdana, arial, sans-serif; font-size: 14px; fill: rgb(42, 63, 95); opacity: 1; font-weight: normal; white-space: pre;">Metric Score</text></g></g><g class="menulayer"><g class="updatemenu-container" style="cursor: pointer;"><g class="updatemenu-header-group" transform="translate(12,60)"><g class="updatemenu-header" transform="translate(1,1)" style="pointer-events: all;"><rect class="updatemenu-item-rect" rx="2" ry="2" shape-rendering="crispEdges" x="0" y="0" width="167" height="33" style="stroke: rgb(190, 200, 217); stroke-opacity: 1; fill: rgb(255, 255, 255); fill-opacity: 1; stroke-width: 1px;"/><text class="updatemenu-item-text" text-anchor="start" data-notex="1" x="12" y="19.5" style="font-family: 'Open Sans', verdana, arial, sans-serif; font-size: 12px; fill: rgb(42, 63, 95); fill-opacity: 1; white-space: pre;">All</text></g><text class="updatemenu-header-arrow" text-anchor="end" x="163" y="19.5" style="font-family: 'Open Sans', verdana, arial, sans-serif; font-size: 12px; fill: rgb(42, 63, 95); fill-opacity: 1;">▼</text></g><g class="updatemenu-dropdown-button-group" updatemenu-active-index="-1" style="pointer-events: all;"><rect class="scrollbox-bg" opacity="0" x="0" y="0" width="0" height="0" style="pointer-events: all;"/></g></g></g></svg>