<svg class="main-svg" xmlns="http://www.w3.org/2000/svg" xmlns:xlink="http://www.w3.org/1999/xlink" width="1024" height="576" style="" viewBox="0 0 1024 576"><rect x="0" y="0" width="1024" height="576" style="fill: rgb(255, 255, 255); fill-opacity: 1;"/><defs id="defs-672aa8"><g class="clips"><clipPath id="clip672aa8xyplot" class="plotclip"><rect width="726" height="396"/></clipPath><clipPath class="axesclip" id="clip672aa8x"><rect x="143" y="0" width="726" height="576"/></clipPath><clipPath class="axesclip" id="clip672aa8y"><rect x="0" y="100" width="1024" height="396"/></clipPath><clipPath class="axesclip" id="clip672aa8xy"><rect x="143" y="100" width="726" height="396"/></clipPath></g><g class="gradients"/><g class="patterns"/></defs><g class="bglayer"><rect class="bg" x="143" y="100" width="726" height="396" style="fill: rgb(229, 236, 246); fill-opacity: 1; stroke-width: 0;"/></g><g class="layer-below"><g class="imagelayer"/><g class="shapelayer"/></g><g class="cartesianlayer"><g class="subplot xy"><g class="layer-subplot"><g class="shapelayer"/><g class="imagelayer"/></g><g class="minor-gridlayer"><g class="x"/><g class="y"/></g><g class="gridlayer"><g class="x"><path class="xgrid crisp" transform="translate(235.57999999999998,0)" d="M0,100v396" style="stroke: rgb(255, 255, 255); stroke-opacity: 1; stroke-width: 1px;"/><path class="xgrid crisp" transform="translate(333.03,0)" d="M0,100v396" style="stroke: rgb(255, 255, 255); stroke-opacity: 1; stroke-width: 1px;"/><path class="xgrid crisp" transform="translate(430.48,0)" d="M0,100v396" style="stroke: rgb(255, 255, 255); stroke-opacity: 1; stroke-width: 1px;"/><path class="xgrid crisp" transform="translate(527.9300000000001,0)" d="M0,100v396" style="stroke: rgb(255, 255, 255); stroke-opacity: 1; stroke-width: 1px;"/><path class="xgrid crisp" transform="translate(625.38,0)" d="M0,100v396" style="stroke: rgb(255, 255, 255); stroke-opacity: 1; stroke-width: 1px;"/><path class="xgrid crisp" transform="translate(722.83,0)" d="M0,100v396" style="stroke: rgb(255, 255, 255); stroke-opacity: 1; stroke-width: 1px;"/><path class="xgrid crisp" transform="translate(820.28,0)" d="M0,100v396" style="stroke: rgb(255, 255, 255); stroke-opacity: 1; stroke-width: 1px;"/></g><g class="y"><path class="ygrid crisp" transform="translate(0,488.91)" d="M143,0h726" style="stroke: rgb(255, 255, 255); stroke-opacity: 1; stroke-width: 1px;"/><path class="ygrid crisp" transform="translate(0,447.9)" d="M143,0h726" style="stroke: rgb(255, 255, 255); stroke-opacity: 1; stroke-width: 1px;"/><path class="ygrid crisp" transform="translate(0,406.89)" d="M143,0h726" style="stroke: rgb(255, 255, 255); stroke-opacity: 1; stroke-width: 1px;"/><path class="ygrid crisp" transform="translate(0,365.88)" d="M143,0h726" style="stroke: rgb(255, 255, 255); stroke-opacity: 1; stroke-width: 1px;"/><path class="ygrid crisp" transform="translate(0,324.86)" d="M143,0h726" style="stroke: rgb(255, 255, 255); stroke-opacity: 1; stroke-width: 1px;"/><path class="ygrid crisp" transform="translate(0,283.85)" d="M143,0h726" style="stroke: rgb(255, 255, 255); stroke-opacity: 1; stroke-width: 1px;"/><path class="ygrid crisp" transform="translate(0,242.84)" d="M143,0h726" style="stroke: rgb(255, 255, 255); stroke-opacity: 1; stroke-width: 1px;"/><path class="ygrid crisp" transform="translate(0,201.82999999999998)" d="M143,0h726" style="stroke: rgb(255, 255, 255); stroke-opacity: 1; stroke-width: 1px;"/><path class="ygrid crisp" transform="translate(0,160.81)" d="M143,0h726" style="stroke: rgb(255, 255, 255); stroke-opacity: 1; stroke-width: 1px;"/><path class="ygrid crisp" transform="translate(0,119.8)" d="M143,0h726" style="stroke: rgb(255, 255, 255); stroke-opacity: 1; stroke-width: 1px;"/></g></g><g class="zerolinelayer"/><path class="xlines-below"/><path class="ylines-below"/><g class="overlines-below"/><g class="xaxislayer-below"/><g class="yaxislayer-below"/><g class="overaxes-below"/><g class="plot" transform="translate(143,100)" clip-path="url(#clip672aa8xyplot)"><g class="scatterlayer mlayer"><g class="trace scatter trace578cad" style="stroke-miterlimit: 2; opacity: 1;"><g class="fills"/><g class="errorbars"/><g class="lines"><path class="js-line" d="M0,278.79L4.87,254.6L9.74,361.44L14.62,264.24L19.49,239.83L24.36,225.27L29.23,227.73L34.11,206L38.98,203.54L43.85,215.64L48.72,220.56L53.6,179.13L58.47,196.15L63.34,191.23L68.21,193.69L73.09,174.42L77.96,169.5L82.83,159.65L87.7,162.11L97.45,157.4L102.32,157.4L107.19,154.94L112.07,145.09L116.94,137.92L121.81,137.92L126.68,147.55L131.56,137.92L136.43,142.84L141.3,132.99L146.17,135.46L151.05,140.38L155.92,140.38L160.79,125.82L165.66,140.38L170.54,128.07L180.28,123.36L185.15,130.53L190.03,123.36L194.9,132.99L199.77,128.07L204.64,135.46L209.52,125.82L214.39,125.82L219.26,125.82L224.13,118.44L229.01,125.82L233.88,113.51L238.75,120.9L243.62,111.05L248.5,118.44L253.37,113.51L258.24,96.49L263.11,123.36L267.99,120.9L272.86,115.97L277.73,108.8L282.6,94.24L287.48,111.05L292.35,108.8L297.22,98.95L302.09,106.34L306.97,101.42L311.84,101.42L316.71,101.42L321.58,98.95L326.46,101.42L331.33,101.42L341.07,111.05L345.95,108.8L360.56,108.8L365.44,98.95L370.31,96.49L375.18,89.32L380.05,86.86L384.93,89.32L389.8,89.32L394.67,84.39L399.54,77.22L404.42,77.22L409.29,91.78L414.16,96.49L419.03,98.95L423.91,98.95L428.78,96.49L433.65,101.42L438.52,96.49L443.4,96.49L448.27,86.86L453.14,89.32L462.89,89.32L467.76,96.49L472.63,81.93L477.5,89.32L482.38,103.88L487.25,84.39L492.12,79.47L496.99,94.24L501.87,77.22L506.74,84.39L511.61,81.93L516.48,81.93L521.36,77.22L526.23,84.39L531.1,81.93L535.97,86.86L545.72,91.78L550.59,103.88L555.46,191.23L560.34,184.06L565.21,171.96L570.08,162.11L574.95,74.76L579.83,94.24L584.7,86.86L589.57,86.86L594.44,86.86L599.32,81.93L604.19,84.39L609.06,81.93L613.93,81.93L618.81,79.47L623.68,91.78L628.55,72.3L633.42,77.22L638.3,69.84L643.17,67.37L648.04,67.37L652.91,69.84L657.79,77.22L662.66,72.3L667.53,69.84L672.4,74.76L677.28,72.3L682.15,72.3L687.02,69.84L691.89,64.91L696.77,69.84L701.64,64.91L706.51,74.76L711.38,69.84L716.26,57.74L721.13,62.66L726,69.84" style="vector-effect: none; fill: none; stroke: rgb(255, 0, 0); stroke-opacity: 1; stroke-width: 2px; opacity: 1;"/></g><g class="points"/><g class="text"/></g><g class="trace scatter trace6926a8" style="stroke-miterlimit: 2; opacity: 1;"><g class="fills"/><g class="errorbars"/><g class="lines"><path class="js-line" d="M0,201.69L4.87,201.69L9.74,375.79L14.62,220.97L19.49,182.21L24.36,201.69L29.23,201.69L34.11,201.69L38.98,211.33L43.85,201.69L48.72,201.69L53.6,182.21L58.47,172.57L63.34,172.57L68.21,211.33L73.09,201.69L77.96,182.21L82.83,172.57L87.7,143.66L92.58,134.02L97.45,162.93L102.32,153.3L107.19,162.93L112.07,192.05L116.94,182.21L131.56,182.21L136.43,192.05L141.3,162.93L146.17,172.57L151.05,182.21L155.92,172.57L165.66,153.3L170.54,153.3L175.41,172.57L180.28,162.93L185.15,153.3L190.03,153.3L194.9,143.66L199.77,182.21L204.64,192.05L209.52,172.57L214.39,153.3L219.26,153.3L224.13,153.3L229.01,172.57L233.88,162.93L238.75,134.02L243.62,143.66L248.5,143.66L258.24,143.66L263.11,134.02L267.99,134.02L272.86,124.18L282.6,124.18L287.48,134.02L297.22,192.05L302.09,182.21L306.97,172.57L311.84,192.05L316.71,162.93L321.58,153.3L336.2,153.3L341.07,172.57L345.95,172.57L350.82,182.21L355.69,192.05L360.56,192.05L365.44,162.93L370.31,192.05L375.18,172.57L380.05,162.93L389.8,162.93L394.67,153.3L399.54,153.3L404.42,172.57L409.29,162.93L414.16,182.21L419.03,162.93L423.91,220.97L428.78,182.21L433.65,172.57L438.52,153.3L443.4,162.93L448.27,153.3L453.14,162.93L462.89,182.21L467.76,182.21L472.63,182.21L477.5,172.57L482.38,201.69L487.25,162.93L492.12,153.3L496.99,162.93L501.87,162.93L506.74,143.66L511.61,153.3L516.48,153.3L521.36,153.3L526.23,134.02L531.1,143.66L535.97,143.66L540.85,134.02L545.72,134.02L550.59,162.93L555.46,346.67L560.34,317.76L565.21,317.76L570.08,327.39L574.95,162.93L579.83,192.05L584.7,172.57L589.57,162.93L594.44,182.21L599.32,182.21L604.19,220.97L609.06,172.57L613.93,182.21L618.81,172.57L623.68,201.69L628.55,162.93L633.42,162.93L638.3,162.93L643.17,143.66L652.91,182.21L657.79,211.33L667.53,153.3L672.4,192.05L677.28,172.57L682.15,201.69L691.89,182.21L696.77,153.3L701.64,134.02L706.51,143.66L711.38,124.18L716.26,134.02L721.13,143.66L726,172.57" style="vector-effect: none; fill: none; stroke: rgb(0, 0, 255); stroke-opacity: 1; stroke-width: 2px; opacity: 1;"/></g><g class="points"/><g class="text"/></g><g class="trace scatter tracea54f48" style="stroke-miterlimit: 2; opacity: 1;"><g class="fills"/><g class="errorbars"/><g class="lines"><path class="js-line" d="M0,290.89L4.87,263.62L9.74,310.17L19.49,244.14L24.36,224.66L29.23,215.02L34.11,200.67L38.98,196.36L43.85,216.66L48.72,221.99L53.6,166.22L58.47,185.49L63.34,185.9L68.21,196.15L73.09,156.58L82.83,132.17L87.7,147.96L92.58,135.66L97.45,135.25L102.32,124.79L107.19,130.12L116.94,121.31L121.81,121.31L126.68,129.1L131.56,123.97L136.43,131.97L141.3,118.64L146.17,120.69L151.05,113.72L155.92,111.87L160.79,98.95L165.66,108.18L170.54,105.93L175.41,108.59L180.28,107.98L185.15,106.13L190.03,91.78L194.9,107.98L199.77,117.21L204.64,125.82L209.52,108.59L219.26,108.59L224.13,99.77L229.01,102.44L233.88,87.88L238.75,101.62L243.62,82.55L248.5,98.34L253.37,86.24L258.24,58.35L263.11,85.83L267.99,89.93L272.86,86.24L277.73,79.06L282.6,60.61L287.48,87.68L292.35,77.01L297.22,76.81L302.09,90.14L306.97,81.73L311.84,69.84L316.71,75.17L321.58,76.81L326.46,86.24L331.33,88.91L336.2,92.8L341.07,99.36L345.95,89.11L350.82,87.47L355.69,97.52L360.56,98.75L365.44,75.17L370.31,69.84L375.18,57.12L380.05,57.12L384.93,62.66L389.8,64.3L394.67,49.74L399.54,44.41L404.42,38.26L409.29,46.25L414.16,37.44L419.03,41.54L423.91,41.54L428.78,49.74L433.65,59.79L438.52,49.74L443.4,49.74L448.27,60.81L453.14,69.22L458.01,73.73L462.89,70.66L467.76,82.34L472.63,57.12L477.5,69.22L482.38,85.22L487.25,53.43L492.12,55.28L496.99,71.27L501.87,48.1L506.74,58.97L516.48,58.76L521.36,44.41L526.23,58.97L531.1,45.84L535.97,49.33L540.85,67.58L545.72,74.14L550.59,94.65L555.46,170.32L560.34,168.88L565.21,159.65L570.08,153.3L574.95,32.31L579.83,58.76L584.7,53.43L589.57,51.38L594.44,58.97L599.32,51.79L609.06,55.28L613.93,41.74L623.68,54.87L628.55,28.41L633.42,22.26L638.3,19.8L643.17,25.13L648.04,20.62L652.91,29.03L657.79,33.95L662.66,21.44L667.53,39.08L672.4,40.72L677.28,46.25L682.15,51.38L687.02,31.08L691.89,27.8L696.77,37.23L701.64,35.59L706.51,51.58L711.38,44.41L716.26,24.52L721.13,28L726,44.41" style="vector-effect: none; fill: none; stroke: rgb(0, 128, 0); stroke-opacity: 1; stroke-width: 2px; opacity: 1;"/></g><g class="points"/><g class="text"/></g><g class="trace scatter trace0f6409" style="stroke-miterlimit: 2; opacity: 1;"><g class="fills"/><g class="errorbars"/><g class="lines"><path class="js-line" d="M0,229.99L4.87,231.43L9.74,296.02L19.49,210.92L24.36,231.43L29.23,227.53L34.11,230.61L38.98,241.47L43.85,231.43L48.72,231.43L53.6,206.41L58.47,196.77L63.34,198.82L68.21,241.88L73.09,225.27L82.83,178.31L87.7,156.78L92.58,138.74L97.45,174.42L102.32,161.09L107.19,174.42L112.07,212.97L116.94,200.46L131.56,200.46L136.43,215.84L141.3,187.34L146.17,196.77L151.05,203.74L155.92,191.23L160.79,182.21L165.66,161.09L170.54,165.6L175.41,194.31L180.28,185.08L185.15,169.7L190.03,169.7L194.9,160.68L199.77,209.89L204.64,219.74L214.39,172.98L219.26,172.98L224.13,172.98L229.01,196.77L233.88,182.21L238.75,147.96L248.5,156.78L253.37,152.27L258.24,152.27L263.11,143.66L267.99,138.74L272.86,130.12L282.6,130.12L287.48,151.45L292.35,178.72L297.22,212.97L302.09,203.74L306.97,191.23L311.84,209.69L316.71,182.21L321.58,172.98L326.46,175.65L336.2,175.65L341.07,198.82L345.95,194.31L350.82,203.74L355.69,220.76L360.56,219.74L365.44,182.21L370.31,217.89L375.18,191.23L380.05,178.72L389.8,185.08L394.67,169.7L399.54,169.7L404.42,187.75L409.29,178.72L414.16,187.13L419.03,164.16L423.91,233.07L428.78,187.13L433.65,178.31L438.52,161.09L443.4,169.7L448.27,169.7L453.14,182.21L458.01,198.82L462.89,209.89L472.63,209.89L477.5,194.31L482.38,229.37L487.25,174.42L492.12,175.65L496.99,182.21L501.87,178.72L506.74,156.78L511.61,172.98L516.48,172.98L521.36,169.7L526.23,154.53L531.1,163.75L535.97,163.75L540.85,154.53L545.72,154.53L550.59,188.98L555.46,297.46L560.34,287.2L565.21,287.2L570.08,307.09L574.95,164.16L579.83,212.97L584.7,183.44L589.57,164.16L594.44,196.77L599.32,206.41L604.19,248.86L609.06,198.82L613.93,206.41L618.81,196.77L623.68,225.27L628.55,174.42L633.42,169.7L638.3,182.21L643.17,156.78L648.04,174.42L652.91,200.46L657.79,228.14L662.66,187.13L667.53,165.6L672.4,212.97L677.28,194.31L682.15,229.37L691.89,196.77L696.77,155.55L701.64,143.66L706.51,166.22L711.38,138.94L716.26,143.66L721.13,160.68L726,194.31" style="vector-effect: none; fill: none; stroke: rgb(255, 165, 0); stroke-opacity: 1; stroke-width: 2px; opacity: 1;"/></g><g class="points"/><g class="text"/></g><g class="trace scatter trace1b5a53" style="stroke-miterlimit: 2; opacity: 1;"><g class="fills"/><g class="errorbars"/><g class="lines"><path class="js-line" d="M0,293.15L4.87,274.69L9.74,316.12L14.62,275.72L19.49,266.08L24.36,255.21L29.23,266.9L34.11,237.58L38.98,236.35L48.72,247.83L53.6,213.79L58.47,230.81L63.34,221.79L68.21,217.48L73.09,211.33L77.96,209.48L82.83,200.26L87.7,195.95L92.58,198.62L97.45,194.92L102.32,199.85L107.19,193.69L112.07,180.57L116.94,170.93L121.81,170.93L126.68,182.62L131.56,169.5L136.43,172.78L141.3,164.37L146.17,167.24L151.05,178.72L155.92,179.54L160.79,162.93L165.66,181.18L170.54,163.55L175.41,158.22L180.28,154.53L185.15,167.24L190.03,162.52L194.9,170.11L199.77,156.99L204.64,164.16L209.52,158.22L219.26,158.22L224.13,151.04L229.01,161.29L233.88,149.19L238.75,153.91L243.62,147.96L248.5,151.86L253.37,150.02L258.24,136.28L263.11,164.98L272.86,153.71L277.73,145.91L282.6,131.76L287.48,145.5L292.35,146.73L297.22,131.97L302.09,136.48L306.97,133.2L311.84,138.74L316.71,136.48L321.58,131.97L326.46,130.74L331.33,129.1L336.2,135.05L341.07,139.15L345.95,140.99L350.82,141.81L355.69,136.28L360.56,135.46L365.44,132.79L370.31,131.35L375.18,126.02L380.05,122.33L384.93,123.56L394.67,121.72L399.54,113.1L404.42,115.56L409.29,133.61L414.16,143.45L419.03,145.5L423.91,145.5L428.78,139.56L433.65,142.84L438.52,139.56L443.4,139.56L448.27,120.69L453.14,120.28L458.01,117.82L462.89,119.46L467.76,125L472.63,114.95L477.5,120.28L482.38,135.25L487.25,120.08L492.12,111.87L496.99,126.84L501.87,111.46L506.74,117.82L511.61,114.13L516.48,114.13L521.36,113.1L526.23,117.82L531.1,119.67L535.97,125.41L540.85,121.1L545.72,121.51L550.59,129.71L555.46,158.42L560.34,154.53L565.21,144.07L570.08,136.48L574.95,114.13L579.83,132.58L584.7,123.77L589.57,124.59L594.44,121.51L599.32,117.21L604.19,120.08L609.06,115.56L613.93,121.31L618.81,115.15L623.68,130.53L628.55,112.08L633.42,121.1L638.3,111.67L643.17,106.34L648.04,107.98L652.91,108.39L657.79,117L662.66,114.54L667.53,104.29L672.4,111.05L677.28,104.9L682.15,102.44L687.02,107.57L691.89,101.83L696.77,105.11L701.64,98.54L706.51,106.13L711.38,102.03L716.26,92.39L721.13,98.13L726,102.03" style="vector-effect: none; fill: none; stroke: rgb(128, 0, 128); stroke-opacity: 1; stroke-width: 2px; opacity: 1;"/></g><g class="points"/><g class="text"/></g><g class="trace scatter traced2ad33" style="stroke-miterlimit: 2; opacity: 1;"><g class="fills"/><g class="errorbars"/><g class="lines"><path class="js-line" d="M0,203.13L4.87,225.27L9.74,280.44L14.62,224.04L19.49,204.36L24.36,225.27L29.23,241.68L34.11,230.61L38.98,238.4L43.85,225.27L48.72,225.27L53.6,220.76L58.47,207.64L63.34,202.31L68.21,232.86L73.09,247.22L77.96,231.84L82.83,235.12L87.7,190.21L92.58,188.16L97.45,216.46L102.32,208.87L107.19,216.46L112.07,239.42L116.94,231.84L131.56,231.84L136.43,234.09L141.3,194.51L146.17,207.64L151.05,226.3L155.92,218.71L160.79,205.59L165.66,208.87L170.54,203.33L175.41,213.17L180.28,200.05L185.15,198L190.03,198L194.9,184.67L199.77,209.89L204.64,223.02L214.39,192.46L219.26,192.46L224.13,192.46L229.01,207.64L233.88,205.59L238.75,177.08L243.62,195.74L248.5,190.21L253.37,195.74L258.24,195.74L263.11,182.62L267.99,188.16L272.86,175.03L277.73,175.03L282.6,175.03L287.48,171.55L292.35,211.12L297.22,239.42L302.09,226.3L306.97,218.71L311.84,244.96L316.71,205.59L321.58,192.46L326.46,186.93L336.2,186.93L341.07,202.31L345.95,213.17L350.82,226.3L355.69,217.48L360.56,223.02L365.44,205.59L370.31,228.55L375.18,218.71L380.05,211.12L389.8,200.05L394.67,198L399.54,198L404.42,224.25L409.29,211.12L414.16,248.24L419.03,227.53L423.91,289.87L428.78,248.24L433.65,235.12L438.52,208.87L443.4,221.99L448.27,198L453.14,205.59L458.01,202.31L462.89,209.89L472.63,209.89L477.5,213.17L482.38,236.14L487.25,216.46L492.12,186.93L496.99,205.59L501.87,211.12L506.74,190.21L511.61,192.46L516.48,192.46L521.36,198L526.23,166.22L531.1,179.34L535.97,179.34L540.85,166.22L545.72,166.22L550.59,188.98L555.46,268.54L560.34,251.11L565.21,251.11L570.08,269.77L574.95,227.53L579.83,239.42L584.7,229.78L589.57,227.53L594.44,237.37L599.32,220.76L604.19,262.39L609.06,202.31L613.93,220.76L618.81,207.64L623.68,247.22L628.55,216.46L633.42,221.99L643.17,190.21L648.04,216.46L652.91,231.84L657.79,271.21L662.66,248.24L667.53,203.33L672.4,239.42L677.28,213.17L682.15,236.14L687.02,239.42L691.89,237.37L696.77,214.41L701.64,182.62L706.51,173.8L711.38,163.96L716.26,182.62L721.13,184.67L726,213.17" style="vector-effect: none; fill: none; stroke: rgb(255, 192, 203); stroke-opacity: 1; stroke-width: 2px; opacity: 1;"/></g><g class="points"/><g class="text"/></g><g class="trace scatter trace744397" style="stroke-miterlimit: 2; opacity: 1;"><g class="fills"/><g class="errorbars"/><g class="lines"><path class="js-line" d="M0,292.12L4.87,270.18L9.74,361.64L14.62,275.92L19.49,258.49L24.36,245.57L29.23,253.98L34.11,226.5L38.98,224.66L43.85,234.09L48.72,239.22L53.6,200.46L58.47,218.1L63.34,210.71L68.21,209.89L73.09,196.56L77.96,193.28L82.83,183.44L87.7,182.21L92.58,182.42L97.45,179.34L102.32,182.01L107.19,177.29L112.07,165.19L116.94,156.58L121.81,156.58L126.68,167.65L131.56,155.76L136.43,160.06L141.3,150.63L146.17,153.3L151.05,161.7L155.92,162.32L160.79,145.91L165.66,163.14L170.54,147.35L175.41,143.45L180.28,140.38L185.15,150.63L190.03,144.27L194.9,153.3L199.77,144.27L204.64,151.86L209.52,143.45L214.39,143.45L219.26,143.45L224.13,135.87L229.01,145.09L233.88,132.38L238.75,138.74L243.62,130.33L248.5,136.28L253.37,132.79L258.24,116.38L263.11,145.5L267.99,141.4L272.86,135.87L277.73,127.87L282.6,112.69L287.48,129.1L292.35,128.28L297.22,115.77L302.09,122.13L306.97,117.82L311.84,120.28L316.71,119.26L321.58,115.77L326.46,116.79L331.33,115.97L341.07,126.23L345.95,125.61L350.82,126.02L355.69,123.56L360.56,123.15L365.44,116.18L370.31,114.13L375.18,107.16L380.05,104.08L384.93,106.13L389.8,105.72L394.67,102.44L399.54,94.03L404.42,95.26L409.29,112.28L414.16,120.08L419.03,122.54L423.91,122.54L428.78,118.03L433.65,122.33L438.52,118.03L443.4,118.03L448.27,103.47L453.14,104.7L458.01,103.88L462.89,104.49L467.76,111.26L472.63,97.93L477.5,104.7L482.38,120.08L487.25,101.62L492.12,95.06L496.99,110.64L501.87,93.42L506.74,100.59L511.61,97.52L516.48,97.52L521.36,94.03L526.23,100.59L531.1,99.98L535.97,105.52L540.85,105.11L545.72,106.75L550.59,117.82L555.46,191.85L560.34,184.88L565.21,172.78L570.08,163.34L574.95,93.21L579.83,113.1L584.7,104.9L589.57,105.11L594.44,103.67L599.32,98.95L604.19,101.62L609.06,98.34L613.93,100.8L618.81,96.49L623.68,110.85L628.55,90.75L633.42,97.72L638.3,88.91L643.17,85.22L648.04,85.83L652.91,87.47L657.79,95.88L662.66,91.78L667.53,85.83L672.4,91.78L677.28,87.68L682.15,86.65L687.02,87.27L691.89,81.73L696.77,86.24L701.64,80.29L706.51,89.73L711.38,84.81L716.26,73.12L726,84.81" style="vector-effect: none; fill: none; stroke: rgb(165, 42, 42); stroke-opacity: 1; stroke-width: 2px; opacity: 1;"/></g><g class="points"/><g class="text"/></g><g class="trace scatter trace9c116c" style="stroke-miterlimit: 2; opacity: 1;"><g class="fills"/><g class="errorbars"/><g class="lines"><path class="js-line" d="M0,220.76L4.87,228.55L9.74,376.2L14.62,241.06L19.49,207.84L24.36,228.55L29.23,235.32L34.11,230.61L38.98,240.04L43.85,228.55L48.72,228.55L53.6,214.41L58.47,202.72L63.34,200.46L68.21,237.78L73.09,237.78L77.96,219.12L82.83,215.02L87.7,176.67L92.58,169.29L97.45,200.26L102.32,190.82L107.19,200.26L112.07,228.55L116.94,219.12L131.56,219.12L136.43,226.09L141.3,191.03L146.17,202.72L151.05,216.66L155.92,207.23L160.79,195.54L165.66,190.82L170.54,188.36L175.41,204.97L180.28,193.28L185.15,186.11L190.03,186.11L194.9,174.42L199.77,209.89L204.64,221.38L214.39,183.85L219.26,183.85L224.13,183.85L229.01,202.72L233.88,195.54L238.75,164.78L243.62,178.93L248.5,176.67L253.37,178.93L258.24,178.93L263.11,167.04L267.99,169.29L272.86,157.4L277.73,157.4L282.6,157.4L287.48,162.73L297.22,228.55L302.09,216.66L306.97,207.23L311.84,231.22L316.71,195.54L321.58,183.85L326.46,181.8L331.33,181.8L336.2,181.8L341.07,200.46L345.95,204.97L350.82,216.66L360.56,221.38L365.44,195.54L370.31,223.63L375.18,207.23L380.05,197.79L384.93,195.54L389.8,193.28L394.67,186.11L399.54,186.11L404.42,209.69L409.29,197.79L414.16,227.32L419.03,205.59L423.91,270.8L428.78,227.32L433.65,215.02L438.52,190.82L443.4,202.92L448.27,186.11L453.14,195.54L458.01,200.46L462.89,209.89L472.63,209.89L477.5,204.97L482.38,232.86L487.25,200.26L492.12,181.8L496.99,195.54L501.87,197.79L506.74,176.67L511.61,183.85L516.48,183.85L521.36,186.11L526.23,160.68L531.1,172.16L535.97,172.16L540.85,160.68L545.72,160.68L550.59,188.98L555.46,348.72L560.34,321.45L565.21,321.45L570.08,332.52L574.95,205.59L579.83,228.55L584.7,212.35L589.57,205.59L594.44,221.79L599.32,214.41L604.19,256.44L609.06,200.46L613.93,214.41L618.81,202.72L623.68,237.78L628.55,200.26L633.42,202.92L638.3,195.54L643.17,176.67L648.04,200.26L652.91,219.12L657.79,255.42L662.66,227.32L667.53,188.36L672.4,228.55L677.28,204.97L682.15,232.86L687.02,228.55L691.89,221.79L701.64,167.04L706.51,170.32L711.38,153.3L716.26,167.04L721.13,174.42L726,204.97" style="vector-effect: none; fill: none; stroke: rgb(128, 128, 128); stroke-opacity: 1; stroke-width: 2px; opacity: 1;"/></g><g class="points"/><g class="text"/></g></g></g><g class="overplot"/><path class="xlines-above crisp" d="M0,0" style="fill: none;"/><path class="ylines-above crisp" d="M0,0" style="fill: none;"/><g class="overlines-above"/><g class="xaxislayer-above"><g class="xtick"><text text-anchor="middle" x="0" y="509" transform="translate(235.57999999999998,0)" style="font-family: 'Open Sans', verdana, arial, sans-serif; font-size: 12px; fill: rgb(42, 63, 95); fill-opacity: 1; white-space: pre; opacity: 1;">20</text></g><g class="xtick"><text text-anchor="middle" x="0" y="509" style="font-family: 'Open Sans', verdana, arial, sans-serif; font-size: 12px; fill: rgb(42, 63, 95); fill-opacity: 1; white-space: pre; opacity: 1;" transform="translate(333.03,0)">40</text></g><g class="xtick"><text text-anchor="middle" x="0" y="509" style="font-family: 'Open Sans', verdana, arial, sans-serif; font-size: 12px; fill: rgb(42, 63, 95); fill-opacity: 1; white-space: pre; opacity: 1;" transform="translate(430.48,0)">60</text></g><g class="xtick"><text text-anchor="middle" x="0" y="509" style="font-family: 'Open Sans', verdana, arial, sans-serif; font-size: 12px; fill: rgb(42, 63, 95); fill-opacity: 1; white-space: pre; opacity: 1;" transform="translate(527.9300000000001,0)">80</text></g><g class="xtick"><text text-anchor="middle" x="0" y="509" style="font-family: 'Open Sans', verdana, arial, sans-serif; font-size: 12px; fill: rgb(42, 63, 95); fill-opacity: 1; white-space: pre; opacity: 1;" transform="translate(625.38,0)">100</text></g><g class="xtick"><text text-anchor="middle" x="0" y="509" style="font-family: 'Open Sans', verdana, arial, sans-serif; font-size: 12px; fill: rgb(42, 63, 95); fill-opacity: 1; white-space: pre; opacity: 1;" transform="translate(722.83,0)">120</text></g><g class="xtick"><text text-anchor="middle" x="0" y="509" style="font-family: 'Open Sans', verdana, arial, sans-serif; font-size: 12px; fill: rgb(42, 63, 95); fill-opacity: 1; white-space: pre; opacity: 1;" transform="translate(820.28,0)">140</text></g></g><g class="yaxislayer-above"><g class="ytick"><text text-anchor="end" x="142" y="4.199999999999999" transform="translate(0,488.91)" style="font-family: 'Open Sans', verdana, arial, sans-serif; font-size: 12px; fill: rgb(42, 63, 95); fill-opacity: 1; white-space: pre; opacity: 1;">72</text></g><g class="ytick"><text text-anchor="end" x="142" y="4.199999999999999" style="font-family: 'Open Sans', verdana, arial, sans-serif; font-size: 12px; fill: rgb(42, 63, 95); fill-opacity: 1; white-space: pre; opacity: 1;" transform="translate(0,447.9)">74</text></g><g class="ytick"><text text-anchor="end" x="142" y="4.199999999999999" style="font-family: 'Open Sans', verdana, arial, sans-serif; font-size: 12px; fill: rgb(42, 63, 95); fill-opacity: 1; white-space: pre; opacity: 1;" transform="translate(0,406.89)">76</text></g><g class="ytick"><text text-anchor="end" x="142" y="4.199999999999999" style="font-family: 'Open Sans', verdana, arial, sans-serif; font-size: 12px; fill: rgb(42, 63, 95); fill-opacity: 1; white-space: pre; opacity: 1;" transform="translate(0,365.88)">78</text></g><g class="ytick"><text text-anchor="end" x="142" y="4.199999999999999" style="font-family: 'Open Sans', verdana, arial, sans-serif; font-size: 12px; fill: rgb(42, 63, 95); fill-opacity: 1; white-space: pre; opacity: 1;" transform="translate(0,324.86)">80</text></g><g class="ytick"><text text-anchor="end" x="142" y="4.199999999999999" style="font-family: 'Open Sans', verdana, arial, sans-serif; font-size: 12px; fill: rgb(42, 63, 95); fill-opacity: 1; white-space: pre; opacity: 1;" transform="translate(0,283.85)">82</text></g><g class="ytick"><text text-anchor="end" x="142" y="4.199999999999999" style="font-family: 'Open Sans', verdana, arial, sans-serif; font-size: 12px; fill: rgb(42, 63, 95); fill-opacity: 1; white-space: pre; opacity: 1;" transform="translate(0,242.84)">84</text></g><g class="ytick"><text text-anchor="end" x="142" y="4.199999999999999" style="font-family: 'Open Sans', verdana, arial, sans-serif; font-size: 12px; fill: rgb(42, 63, 95); fill-opacity: 1; white-space: pre; opacity: 1;" transform="translate(0,201.82999999999998)">86</text></g><g class="ytick"><text text-anchor="end" x="142" y="4.199999999999999" style="font-family: 'Open Sans', verdana, arial, sans-serif; font-size: 12px; fill: rgb(42, 63, 95); fill-opacity: 1; white-space: pre; opacity: 1;" transform="translate(0,160.81)">88</text></g><g class="ytick"><text text-anchor="end" x="142" y="4.199999999999999" style="font-family: 'Open Sans', verdana, arial, sans-serif; font-size: 12px; fill: rgb(42, 63, 95); fill-opacity: 1; white-space: pre; opacity: 1;" transform="translate(0,119.8)">90</text></g></g><g class="overaxes-above"/></g></g><g class="polarlayer"/><g class="smithlayer"/><g class="ternarylayer"/><g class="geolayer"/><g class="funnelarealayer"/><g class="pielayer"/><g class="iciclelayer"/><g class="treemaplayer"/><g class="sunburstlayer"/><g class="glimages"/><defs id="topdefs-672aa8"><g class="clips"/><clipPath id="legend672aa8"><rect width="128" height="162" x="0" y="0"/></clipPath></defs><g class="layer-above"><g class="imagelayer"/><g class="shapelayer"/></g><g class="infolayer"><g class="legend" pointer-events="all" transform="translate(883.52,100)"><rect class="bg" shape-rendering="crispEdges" width="128" height="162" x="0" y="0" style="stroke: rgb(68, 68, 68); stroke-opacity: 1; fill: rgb(255, 255, 255); fill-opacity: 1; stroke-width: 0px;"/><g class="scrollbox" transform="" clip-path="url(#legend672aa8)"><g class="groups"><g class="traces" transform="translate(0,14.5)" style="opacity: 1;"><text class="legendtext" text-anchor="start" x="40" y="4.680000000000001" style="font-family: 'Open Sans', verdana, arial, sans-serif; font-size: 12px; fill: rgb(42, 63, 95); fill-opacity: 1; white-space: pre;">Train Accuracy</text><g class="layers" style="opacity: 1;"><g class="legendfill"/><g class="legendlines"><path class="js-line" d="M5,0h30" style="fill: none; stroke: rgb(255, 0, 0); stroke-opacity: 1; stroke-width: 2px;"/></g><g class="legendsymbols"><g class="legendpoints"/></g></g><rect class="legendtoggle" x="0" y="-9.5" width="122.71875" height="19" style="fill: rgb(0, 0, 0); fill-opacity: 0;"/></g><g class="traces" transform="translate(0,33.5)" style="opacity: 1;"><text class="legendtext" text-anchor="start" x="40" y="4.680000000000001" style="font-family: 'Open Sans', verdana, arial, sans-serif; font-size: 12px; fill: rgb(42, 63, 95); fill-opacity: 1; white-space: pre;">Test Accuracy</text><g class="layers" style="opacity: 1;"><g class="legendfill"/><g class="legendlines"><path class="js-line" d="M5,0h30" style="fill: none; stroke: rgb(0, 0, 255); stroke-opacity: 1; stroke-width: 2px;"/></g><g class="legendsymbols"><g class="legendpoints"/></g></g><rect class="legendtoggle" x="0" y="-9.5" width="122.71875" height="19" style="fill: rgb(0, 0, 0); fill-opacity: 0;"/></g><g class="traces" transform="translate(0,52.5)" style="opacity: 1;"><text class="legendtext" text-anchor="start" x="40" y="4.680000000000001" style="font-family: 'Open Sans', verdana, arial, sans-serif; font-size: 12px; fill: rgb(42, 63, 95); fill-opacity: 1; white-space: pre;">Train Precision</text><g class="layers" style="opacity: 1;"><g class="legendfill"/><g class="legendlines"><path class="js-line" d="M5,0h30" style="fill: none; stroke: rgb(0, 128, 0); stroke-opacity: 1; stroke-width: 2px;"/></g><g class="legendsymbols"><g class="legendpoints"/></g></g><rect class="legendtoggle" x="0" y="-9.5" width="122.71875" height="19" style="fill: rgb(0, 0, 0); fill-opacity: 0;"/></g><g class="traces" transform="translate(0,71.5)" style="opacity: 1;"><text class="legendtext" text-anchor="start" x="40" y="4.680000000000001" style="font-family: 'Open Sans', verdana, arial, sans-serif; font-size: 12px; fill: rgb(42, 63, 95); fill-opacity: 1; white-space: pre;">Test Precision</text><g class="layers" style="opacity: 1;"><g class="legendfill"/><g class="legendlines"><path class="js-line" d="M5,0h30" style="fill: none; stroke: rgb(255, 165, 0); stroke-opacity: 1; stroke-width: 2px;"/></g><g class="legendsymbols"><g class="legendpoints"/></g></g><rect class="legendtoggle" x="0" y="-9.5" width="122.71875" height="19" style="fill: rgb(0, 0, 0); fill-opacity: 0;"/></g><g class="traces" transform="translate(0,90.5)" style="opacity: 1;"><text class="legendtext" text-anchor="start" x="40" y="4.680000000000001" style="font-family: 'Open Sans', verdana, arial, sans-serif; font-size: 12px; fill: rgb(42, 63, 95); fill-opacity: 1; white-space: pre;">Train Recall</text><g class="layers" style="opacity: 1;"><g class="legendfill"/><g class="legendlines"><path class="js-line" d="M5,0h30" style="fill: none; stroke: rgb(128, 0, 128); stroke-opacity: 1; stroke-width: 2px;"/></g><g class="legendsymbols"><g class="legendpoints"/></g></g><rect class="legendtoggle" x="0" y="-9.5" width="122.71875" height="19" style="fill: rgb(0, 0, 0); fill-opacity: 0;"/></g><g class="traces" transform="translate(0,109.5)" style="opacity: 1;"><text class="legendtext" text-anchor="start" x="40" y="4.680000000000001" style="font-family: 'Open Sans', verdana, arial, sans-serif; font-size: 12px; fill: rgb(42, 63, 95); fill-opacity: 1; white-space: pre;">Test Recall</text><g class="layers" style="opacity: 1;"><g class="legendfill"/><g class="legendlines"><path class="js-line" d="M5,0h30" style="fill: none; stroke: rgb(255, 192, 203); stroke-opacity: 1; stroke-width: 2px;"/></g><g class="legendsymbols"><g class="legendpoints"/></g></g><rect class="legendtoggle" x="0" y="-9.5" width="122.71875" height="19" style="fill: rgb(0, 0, 0); fill-opacity: 0;"/></g><g class="traces" transform="translate(0,128.5)" style="opacity: 1;"><text class="legendtext" text-anchor="start" x="40" y="4.680000000000001" style="font-family: 'Open Sans', verdana, arial, sans-serif; font-size: 12px; fill: rgb(42, 63, 95); fill-opacity: 1; white-space: pre;">Train F1</text><g class="layers" style="opacity: 1;"><g class="legendfill"/><g class="legendlines"><path class="js-line" d="M5,0h30" style="fill: none; stroke: rgb(165, 42, 42); stroke-opacity: 1; stroke-width: 2px;"/></g><g class="legendsymbols"><g class="legendpoints"/></g></g><rect class="legendtoggle" x="0" y="-9.5" width="122.71875" height="19" style="fill: rgb(0, 0, 0); fill-opacity: 0;"/></g><g class="traces" transform="translate(0,147.5)" style="opacity: 1;"><text class="legendtext" text-anchor="start" x="40" y="4.680000000000001" style="font-family: 'Open Sans', verdana, arial, sans-serif; font-size: 12px; fill: rgb(42, 63, 95); fill-opacity: 1; white-space: pre;">Test F1</text><g class="layers" style="opacity: 1;"><g class="legendfill"/><g class="legendlines"><path class="js-line" d="M5,0h30" style="fill: none; stroke: rgb(128, 128, 128); stroke-opacity: 1; stroke-width: 2px;"/></g><g class="legendsymbols"><g class="legendpoints"/></g></g><rect class="legendtoggle" x="0" y="-9.5" width="122.71875" height="19" style="fill: rgb(0, 0, 0); fill-opacity: 0;"/></g></g></g><rect class="scrollbar" rx="20" ry="3" width="0" height="0" x="0" y="0" style="fill: rgb(128, 139, 164); fill-opacity: 1;"/></g><g class="g-gtitle"><text class="gtitle" x="51.2" y="50" text-anchor="start" dy="0em" style="font-family: 'Open Sans', verdana, arial, sans-serif; font-size: 17px; fill: rgb(42, 63, 95); opacity: 1; font-weight: normal; white-space: pre;">Training Metrics - logs/FakeNewsNet-politifact_max-vocab=15000_pre=v2_domain_T=250_s=10.log</text></g><g class="g-xtitle"><text class="xtitle" x="506" y="537.3" text-anchor="middle" style="font-family: 'Open Sans', verdana, arial, sans-serif; font-size: 14px; fill: rgb(42, 63, 95); opacity: 1; font-weight: normal; white-space: pre;">Epoch</text></g><g class="g-ytitle"><text class="ytitle" transform="rotate(-90,103.965625,298)" x="103.965625" y="298" text-anchor="middle" style="font-family: 'Open Sans', verdana, arial, sans-serif; font-size: 14px; fill: rgb(42, 63, 95); opacity: 1; font-weight: normal; white-space: pre;">Metric Score</text></g></g><g class="menulayer"><g class="updatemenu-container" style="cursor: pointer;"><g class="updatemenu-header-group" transform="translate(12,60)"><g class="updatemenu-header" transform="translate(1,1)" style="pointer-events: all;"><rect class="updatemenu-item-rect" rx="2" ry="2" shape-rendering="crispEdges" x="0" y="0" width="167" height="33" style="stroke: rgb(190, 200, 217); stroke-opacity: 1; fill: rgb(255, 255, 255); fill-opacity: 1; stroke-width: 1px;"/><text class="updatemenu-item-text" text-anchor="start" data-notex="1" x="12" y="19.5" style="font-family: 'Open Sans', verdana, arial, sans-serif; font-size: 12px; fill: rgb(42, 63, 95); fill-opacity: 1; white-space: pre;">All</text></g><text class="updatemenu-header-arrow" text-anchor="end" x="163" y="19.5" style="font-family: 'Open Sans', verdana, arial, sans-serif; font-size: 12px; fill: rgb(42, 63, 95); fill-opacity: 1;">▼</text></g><g class="updatemenu-dropdown-button-group" updatemenu-active-index="-1" style="pointer-events: all;"><rect class="scrollbox-bg" opacity="0" x="0" y="0" width="0" height="0" style="pointer-events: all;"/></g></g></g></svg>