<svg class="main-svg" xmlns="http://www.w3.org/2000/svg" xmlns:xlink="http://www.w3.org/1999/xlink" width="1024" height="576" style="" viewBox="0 0 1024 576"><rect x="0" y="0" width="1024" height="576" style="fill: rgb(255, 255, 255); fill-opacity: 1;"/><defs id="defs-c6a9f6"><g class="clips"><clipPath id="clipc6a9f6xyplot" class="plotclip"><rect width="720" height="396"/></clipPath><clipPath class="axesclip" id="clipc6a9f6x"><rect x="150" y="0" width="720" height="576"/></clipPath><clipPath class="axesclip" id="clipc6a9f6y"><rect x="0" y="100" width="1024" height="396"/></clipPath><clipPath class="axesclip" id="clipc6a9f6xy"><rect x="150" y="100" width="720" height="396"/></clipPath></g><g class="gradients"/><g class="patterns"/></defs><g class="bglayer"><rect class="bg" x="150" y="100" width="720" height="396" style="fill: rgb(229, 236, 246); fill-opacity: 1; stroke-width: 0;"/></g><g class="layer-below"><g class="imagelayer"/><g class="shapelayer"/></g><g class="cartesianlayer"><g class="subplot xy"><g class="layer-subplot"><g class="shapelayer"/><g class="imagelayer"/></g><g class="minor-gridlayer"><g class="x"/><g class="y"/></g><g class="gridlayer"><g class="x"><path class="xgrid crisp" transform="translate(241.81,0)" d="M0,100v396" style="stroke: rgb(255, 255, 255); stroke-opacity: 1; stroke-width: 1px;"/><path class="xgrid crisp" transform="translate(338.46000000000004,0)" d="M0,100v396" style="stroke: rgb(255, 255, 255); stroke-opacity: 1; stroke-width: 1px;"/><path class="xgrid crisp" transform="translate(435.1,0)" d="M0,100v396" style="stroke: rgb(255, 255, 255); stroke-opacity: 1; stroke-width: 1px;"/><path class="xgrid crisp" transform="translate(531.74,0)" d="M0,100v396" style="stroke: rgb(255, 255, 255); stroke-opacity: 1; stroke-width: 1px;"/><path class="xgrid crisp" transform="translate(628.39,0)" d="M0,100v396" style="stroke: rgb(255, 255, 255); stroke-opacity: 1; stroke-width: 1px;"/><path class="xgrid crisp" transform="translate(725.03,0)" d="M0,100v396" style="stroke: rgb(255, 255, 255); stroke-opacity: 1; stroke-width: 1px;"/><path class="xgrid crisp" transform="translate(821.68,0)" d="M0,100v396" style="stroke: rgb(255, 255, 255); stroke-opacity: 1; stroke-width: 1px;"/></g><g class="y"><path class="ygrid crisp" transform="translate(0,467.73)" d="M150,0h720" style="stroke: rgb(255, 255, 255); stroke-opacity: 1; stroke-width: 1px;"/><path class="ygrid crisp" transform="translate(0,414.77)" d="M150,0h720" style="stroke: rgb(255, 255, 255); stroke-opacity: 1; stroke-width: 1px;"/><path class="ygrid crisp" transform="translate(0,361.81)" d="M150,0h720" style="stroke: rgb(255, 255, 255); stroke-opacity: 1; stroke-width: 1px;"/><path class="ygrid crisp" transform="translate(0,308.86)" d="M150,0h720" style="stroke: rgb(255, 255, 255); stroke-opacity: 1; stroke-width: 1px;"/><path class="ygrid crisp" transform="translate(0,255.9)" d="M150,0h720" style="stroke: rgb(255, 255, 255); stroke-opacity: 1; stroke-width: 1px;"/><path class="ygrid crisp" transform="translate(0,202.94)" d="M150,0h720" style="stroke: rgb(255, 255, 255); stroke-opacity: 1; stroke-width: 1px;"/><path class="ygrid crisp" transform="translate(0,149.99)" d="M150,0h720" style="stroke: rgb(255, 255, 255); stroke-opacity: 1; stroke-width: 1px;"/></g></g><g class="zerolinelayer"/><path class="xlines-below"/><path class="ylines-below"/><g class="overlines-below"/><g class="xaxislayer-below"/><g class="yaxislayer-below"/><g class="overaxes-below"/><g class="plot" transform="translate(150,100)" clip-path="url(#clipc6a9f6xyplot)"><g class="scatterlayer mlayer"><g class="trace scatter tracec0eb24" style="stroke-miterlimit: 2; opacity: 1;"><g class="fills"/><g class="errorbars"/><g class="lines"><path class="js-line" d="M0,251.54L4.83,80.86L9.66,68.31L14.5,72.7L19.33,75.83L24.16,70.21L28.99,70.21L33.83,74.56L38.66,66.4L43.49,64.55L48.32,59.52L53.15,60.15L57.99,52.63L62.82,145.47L67.65,148.64L72.48,80.22L77.32,76.46L82.15,63.28L86.98,67.67L91.81,119.78L96.64,129.79L101.48,125.4L106.31,132.92L111.14,140.49L115.97,133.55L120.81,125.4L125.64,131.06L130.47,125.4L135.3,124.76L140.13,122.91L144.97,122.27L149.8,47.6L154.63,43.21L159.46,87.11L164.3,89.01L169.13,85.89L173.96,83.98L178.79,92.77L183.62,37.54L188.46,40.72L193.29,40.72L202.95,34.42L207.79,37.54L212.62,44.48L217.45,100.29L222.28,100.29L227.11,95.26L231.95,41.3L236.78,39.45L241.61,40.08L246.44,37.54L251.28,38.18L256.11,44.48L260.94,44.48L265.77,47.6L270.6,41.94L275.44,37.54L280.27,40.72L285.1,45.11L289.93,45.7L294.77,45.11L299.6,47.6L304.43,45.7L309.26,45.7L314.09,43.21L318.93,45.11L323.76,44.48L333.42,38.81L338.26,40.72L343.09,36.96L347.92,35.69L352.75,36.96L357.58,36.32L362.42,34.42L367.25,45.11L376.91,41.94L381.74,41.94L391.41,35.05L396.24,40.72L405.91,38.81L410.74,27.53L415.57,37.54L420.4,36.96L425.23,107.23L430.07,104.05L434.9,97.17L439.73,96.53L444.56,103.42L449.4,94.68L454.23,106.6L459.06,75.83L463.89,78.37L468.72,77.73L473.56,77.1L478.39,80.22L483.22,79.59L488.05,83.35L492.89,56.39L497.72,50.73L507.38,40.08L512.21,31.93L517.05,31.93L521.88,36.96L526.71,43.21L531.54,36.96L536.38,41.94L541.21,41.3L555.7,33.15L560.54,35.69L565.37,35.05L570.2,30.66L575.03,33.78L579.87,35.05L584.7,33.78L589.53,30.02L599.19,31.93L604.03,30.66L608.86,24.99L613.69,24.99L618.52,36.32L623.36,30.66L628.19,27.53L633.02,39.45L642.68,37.54L647.52,39.45L652.35,38.81L657.18,34.42L662.01,35.05L666.85,30.66L671.68,29.39L676.51,30.02L681.34,27.53L686.17,26.9L691.01,28.8L695.84,28.17L700.67,26.26L705.5,21.87L710.34,31.29L715.17,32.56L720,34.42" style="vector-effect: none; fill: none; stroke: rgb(255, 0, 0); stroke-opacity: 1; stroke-width: 2px; opacity: 1;"/></g><g class="points"/><g class="text"/></g><g class="trace scatter traceccc631" style="stroke-miterlimit: 2; opacity: 1;"><g class="fills"/><g class="errorbars"/><g class="lines"><path class="js-line" d="M0,278.81L4.83,126.4L9.66,81.44L14.5,83.98L19.33,88.96L24.16,83.98L28.99,86.47L33.83,88.96L38.66,78.95L43.49,83.98L48.32,78.95L53.15,83.98L57.99,73.97L62.82,201.34L67.65,213.83L72.48,131.43L77.32,131.43L82.15,106.44L86.98,118.94L91.81,178.88L96.64,196.36L101.48,196.36L106.31,193.87L111.14,196.36L115.97,188.89L120.81,183.86L125.64,193.87L130.47,196.36L135.3,193.87L140.13,188.89L144.97,186.35L149.8,86.47L154.63,81.44L159.46,153.89L164.3,161.41L169.13,163.9L173.96,146.42L178.79,153.89L183.62,86.47L188.46,91.45L193.29,88.96L198.12,81.44L202.95,88.96L207.79,81.44L212.62,71.49L217.45,158.92L222.28,161.41L227.11,153.89L231.95,98.97L236.78,91.45L241.61,86.47L246.44,91.45L251.28,86.47L256.11,81.44L260.94,81.44L265.77,101.46L270.6,86.47L275.44,76.46L280.27,71.49L289.93,96.43L294.77,88.96L299.6,98.97L304.43,83.98L309.26,88.96L314.09,88.96L318.93,88.96L323.76,103.95L328.59,66.46L333.42,66.46L338.26,81.44L343.09,71.49L347.92,73.97L352.75,71.49L357.58,73.97L362.42,68.94L367.25,68.94L372.08,73.97L376.91,78.95L381.74,108.93L386.58,96.43L391.41,93.94L396.24,98.97L401.07,98.97L405.91,98.97L410.74,63.97L415.57,86.47L420.4,83.98L425.23,176.39L430.07,176.39L434.9,158.92L439.73,158.92L444.56,176.39L449.4,166.38L454.23,178.88L459.06,143.93L463.89,141.39L468.72,141.39L473.56,138.9L478.39,153.89L483.22,151.4L488.05,153.89L492.89,98.97L497.72,88.96L502.55,86.47L507.38,106.44L512.21,78.95L517.05,73.97L521.88,71.49L526.71,63.97L531.54,71.49L536.38,93.94L541.21,98.97L546.04,86.47L550.87,76.46L555.7,81.44L560.54,88.96L565.37,83.98L570.2,83.98L575.03,81.44L579.87,86.47L584.7,78.95L589.53,76.46L594.36,83.98L599.19,93.94L604.03,81.44L608.86,83.98L613.69,83.98L618.52,83.98L623.36,68.94L633.02,83.98L637.85,86.47L642.68,91.45L647.52,93.94L652.35,96.43L657.18,93.94L662.01,86.47L666.85,88.96L671.68,78.95L676.51,88.96L681.34,76.46L686.17,76.46L691.01,76.46L695.84,71.49L700.67,68.94L705.5,63.97L710.34,78.95L715.17,81.44L720,76.46" style="vector-effect: none; fill: none; stroke: rgb(0, 0, 255); stroke-opacity: 1; stroke-width: 2px; opacity: 1;"/></g><g class="points"/><g class="text"/></g><g class="trace scatter traceacba12" style="stroke-miterlimit: 2; opacity: 1;"><g class="fills"/><g class="errorbars"/><g class="lines"><path class="js-line" d="M0,362.59L4.83,82.29L9.66,54.33L14.5,54.33L19.33,56.71L24.16,59.84L28.99,56.39L33.83,66.03L38.66,63.97L43.49,63.91L48.32,61.95L53.15,61.16L57.99,55.6L62.82,99.71L67.65,99.61L72.48,72.33L77.32,70.69L82.15,62.22L86.98,65.18L91.81,90.87L96.64,95.48L101.48,92.88L106.31,96.59L111.14,103.37L115.97,99.92L120.81,93.57L125.64,94.68L130.47,91.4L135.3,93.2L140.13,90.66L144.97,92.4L149.8,48.29L154.63,45.22L159.46,72.81L164.3,72.49L169.13,69.47L173.96,69.26L178.79,73.82L183.62,39.13L188.46,41.46L193.29,41.46L202.95,35.16L207.79,38.86L212.62,46.01L217.45,79.06L222.28,78.48L227.11,76.46L231.95,40.56L236.78,39.24L241.61,40.19L246.44,38.23L251.28,38.92L256.11,44.48L260.94,44.48L265.77,47.07L275.44,38.86L280.27,41.09L285.1,44.32L289.93,43.58L299.6,45.33L304.43,48.56L309.26,48.56L314.09,45.85L318.93,47.81L323.76,44.85L328.59,44.58L333.42,41.46L338.26,43.42L343.09,39.45L347.92,38.28L352.75,39.5L357.58,38.86L362.42,37.01L367.25,45.59L372.08,46.65L381.74,42.15L386.58,38.49L391.41,35.53L396.24,40.29L405.91,39.13L410.74,29.65L415.57,38.02L420.4,37.33L425.23,80.06L430.07,76.94L439.73,75.56L444.56,77.89L449.4,73.23L454.23,78.37L459.06,62.96L463.89,65.08L473.56,64.28L478.39,66.35L483.22,64.44L488.05,66.3L492.89,58.25L497.72,53.59L502.55,47.87L507.38,38.07L512.21,34.36L517.05,34.47L526.71,45.22L531.54,39.18L536.38,40.35L541.21,39.08L555.7,32.51L560.54,35.05L565.37,34.05L570.2,30.87L575.03,34.95L579.87,35.69L584.7,34.1L589.53,30.71L599.19,32.3L604.03,30.87L608.86,25.68L613.69,25.68L618.52,34.84L623.36,31.56L628.19,28.54L633.02,38.81L637.85,38.28L642.68,36.8L647.52,37.86L652.35,37.33L657.18,33.78L662.01,34.05L666.85,30.87L671.68,29.39L676.51,30.13L681.34,28.64L686.17,28.27L691.01,30.23L695.84,29.65L700.67,27.96L705.5,23.88L710.34,31.93L720,34.84" style="vector-effect: none; fill: none; stroke: rgb(0, 128, 0); stroke-opacity: 1; stroke-width: 2px; opacity: 1;"/></g><g class="points"/><g class="text"/></g><g class="trace scatter trace3200f8" style="stroke-miterlimit: 2; opacity: 1;"><g class="fills"/><g class="errorbars"/><g class="lines"><path class="js-line" d="M0,376.2L4.83,134.82L9.66,66.77L14.5,65.18L19.33,70.21L28.99,81.44L33.83,88.8L38.66,81.55L43.49,89.54L48.32,88.59L53.15,92.35L57.99,83.72L62.82,152.25L67.65,157.96L72.48,117.88L77.32,123.22L82.15,109.51L86.98,117.56L91.81,152.67L96.64,159.92L101.48,162.36L106.31,158.18L111.14,157.38L115.97,149.65L120.81,146.37L125.64,152.99L130.47,157.38L135.3,155.69L140.13,152.3L144.97,150.6L149.8,94.05L154.63,89.6L159.46,134.24L164.3,139.06L169.13,142.77L173.96,127.41L178.79,129.9L183.62,94.05L188.46,96.59L193.29,94.52L198.12,88.22L202.95,96.22L207.79,90.18L212.62,79.11L217.45,130.64L222.28,132.17L227.11,129.9L231.95,101.41L236.78,95.58L241.61,90.55L246.44,96.59L256.11,87.43L260.94,87.43L265.77,104.53L270.6,95.37L275.44,84.46L280.27,79.38L289.93,100.61L294.77,95.42L299.6,102.57L304.43,94.47L309.26,99.82L314.09,100.19L318.93,100.19L323.76,112.32L328.59,74.98L333.42,75.3L338.26,91.66L343.09,81.02L347.92,83.72L352.75,81.02L357.58,83.72L362.42,78.32L367.25,76.52L372.08,83.72L376.91,88.91L381.74,114.7L386.58,100.61L391.41,99.55L401.07,102.57L405.91,101.41L410.74,72.39L415.57,90.55L420.4,90.34L425.23,141.55L430.07,141.55L434.9,135.3L439.73,135.3L444.56,141.55L449.4,137.74L454.23,145.68L459.06,127.83L463.89,124.23L468.72,126.24L473.56,126.46L478.39,136.25L483.22,132.65L488.05,132.12L492.89,106.38L497.72,98.71L502.55,96.32L507.38,105.75L512.21,87.85L517.05,83.35L521.88,80.86L526.71,71.91L531.54,80.97L536.38,93.94L541.21,97.59L550.87,79.48L555.7,85.52L560.54,90.23L565.37,85.25L570.2,87.53L575.03,88.22L579.87,91.56L584.7,85.31L589.53,83.14L594.36,88.54L599.19,97.54L604.03,86.53L608.86,88.54L613.69,88.54L618.52,87.53L623.36,75.88L633.02,88.54L637.85,91.56L642.68,96.59L647.52,97.54L652.35,99.5L657.18,97.54L662.01,90.55L666.85,93.57L671.68,83.51L676.51,94.52L681.34,84.46L686.17,83.88L691.01,84.46L695.84,79.38L700.67,77.47L705.5,71.38L710.34,82.5L715.17,85.52L720,80.54" style="vector-effect: none; fill: none; stroke: rgb(255, 165, 0); stroke-opacity: 1; stroke-width: 2px; opacity: 1;"/></g><g class="points"/><g class="text"/></g><g class="trace scatter tracee3b0c0" style="stroke-miterlimit: 2; opacity: 1;"><g class="fills"/><g class="errorbars"/><g class="lines"><path class="js-line" d="M0,208.86L4.83,79.11L9.66,85.1L14.5,91.4L19.33,95.1L24.16,85.89L28.99,87.16L33.83,90.13L38.66,77.68L43.49,74.19L48.32,64.87L53.15,67.73L57.99,55.02L62.82,122.75L67.65,125.03L72.48,71.12L77.32,68.47L82.15,58.35L86.98,61.74L91.81,102.25L96.64,110.46L101.48,106.7L106.31,112.95L111.14,120.05L115.97,114.33L120.81,106.86L125.64,111.15L130.47,106.28L135.3,106.33L140.13,104.32L144.97,104.37L149.8,44.05L154.63,41.51L159.46,74.98L164.3,75.93L169.13,72.86L173.96,71.64L178.79,78.79L183.62,34.95L188.46,37.06L193.29,37.06L202.95,30.6L207.79,34.57L212.62,49.61L217.45,85.47L222.28,85.25L227.11,81.34L231.95,36.11L236.78,34.73L241.61,35.69L246.44,33.73L251.28,34.47L256.11,40.08L260.94,40.08L265.77,42.78L275.44,34.57L280.27,36.64L285.1,39.98L289.93,39.5L299.6,41.35L304.43,47.39L309.26,47.6L314.09,45.85L318.93,47.66L323.76,40.51L328.59,44.37L333.42,40.82L338.26,41.41L343.09,39.18L347.92,37.49L352.75,38.97L357.58,38.23L362.42,36L367.25,51.63L372.08,45.54L376.91,43.52L381.74,37.7L391.41,30.92L396.24,35.79L405.91,34.57L410.74,30.07L415.57,33.52L420.4,32.77L425.23,90.39L430.07,87.27L434.9,82.34L439.73,81.81L444.56,87.16L449.4,79.8L454.23,89.44L459.06,64.18L463.89,66.56L468.72,66.03L473.56,65.5L478.39,68.2L483.22,67.04L488.05,70.06L492.89,54.7L497.72,51.52L502.55,47.5L507.38,33.83L512.21,31.13L517.05,31.77L521.88,37.33L526.71,47.5L531.54,40.03L536.38,36.06L541.21,34.89L546.04,32.72L555.7,27.85L560.54,30.44L565.37,29.49L570.2,26.1L575.03,30.5L579.87,31.13L584.7,29.44L589.53,26L599.19,27.64L604.03,26.1L608.86,20.86L613.69,20.86L618.52,30.34L623.36,26.95L628.19,23.82L633.02,34.31L637.85,33.78L642.68,32.24L647.52,33.46L652.35,32.93L657.18,29.17L662.01,29.49L666.85,26.1L671.68,24.62L676.51,25.36L681.34,24.04L686.17,23.72L691.01,25.73L695.84,25.2L700.67,23.56L705.5,19.8L710.34,27.27L720,30.18" style="vector-effect: none; fill: none; stroke: rgb(128, 0, 128); stroke-opacity: 1; stroke-width: 2px; opacity: 1;"/></g><g class="points"/><g class="text"/></g><g class="trace scatter trace1285aa" style="stroke-miterlimit: 2; opacity: 1;"><g class="fills"/><g class="errorbars"/><g class="lines"><path class="js-line" d="M0,208.86L4.83,130.9L9.66,120.84L14.5,125.66L19.33,132.44L24.16,121.42L28.99,123.38L33.83,123.91L38.66,107.5L43.49,111.47L48.32,96.16L53.15,107.23L57.99,85.15L62.82,163.21L67.65,171.68L72.48,113.53L77.32,117.82L82.15,102.31L86.98,110.78L91.81,153.94L96.64,164.9L101.48,166.33L106.31,162.94L111.14,163.53L115.97,156.16L120.81,152.19L125.64,160.14L130.47,163.53L135.3,161.51L140.13,157.59L144.97,155.58L149.8,87.9L154.63,83.98L159.46,132.76L164.3,138.69L169.13,142.08L173.96,125.4L178.79,129.9L183.62,87.9L188.46,89.01L193.29,87.06L198.12,81.12L202.95,89.91L207.79,85.36L212.62,90.23L217.45,132.44L222.28,134.45L227.11,129.9L231.95,93.52L241.61,82.24L246.44,89.01L251.28,85.1L256.11,79.69L260.94,79.69L265.77,96.96L270.6,90.76L275.44,78.58L280.27,73.23L285.1,83.08L289.93,92.99L294.77,88.49L299.6,94.95L304.43,94.47L309.26,99.82L314.09,104.05L318.93,102.68L323.76,107.44L328.59,80.59L333.42,79.22L338.26,91.08L343.09,81.76L347.92,85.15L352.75,81.76L357.58,83.72L362.42,79.75L367.25,86.84L372.08,85.15L376.91,87.64L381.74,108.56L386.58,92.99L391.41,92.4L401.07,94.95L405.91,93.52L410.74,77.21L415.57,82.24L420.4,83.08L425.23,146.26L430.07,146.26L434.9,135.3L439.73,135.3L444.56,146.26L449.4,139.8L454.23,149.7L459.06,124.87L463.89,121.48L468.72,122.85L473.56,122.32L478.39,134.19L483.22,130.8L488.05,131.33L492.89,100.61L497.72,95.58L502.55,93.57L507.38,98.07L512.21,83.4L521.88,78.9L526.71,78.64L531.54,83.14L536.38,85.31L541.21,89.28L546.04,79.38L550.87,70.06L555.7,76.89L560.54,81.39L565.37,75.99L575.03,81.12L579.87,83.67L584.7,77.73L589.53,75.78L594.36,80.28L599.19,89.6L604.03,78.26L608.86,80.28L613.69,80.28L618.52,78.85L623.36,68.41L628.19,74.35L633.02,80.28L637.85,83.67L642.68,89.01L647.52,89.6L652.35,91.56L657.18,89.6L662.01,82.24L666.85,85.63L671.68,74.88L676.51,87.06L681.34,78.58L686.17,77.15L691.01,78.58L695.84,73.23L700.67,72.65L705.5,64.44L710.34,73.5L715.17,76.89L720,71.49" style="vector-effect: none; fill: none; stroke: rgb(255, 192, 203); stroke-opacity: 1; stroke-width: 2px; opacity: 1;"/></g><g class="points"/><g class="text"/></g><g class="trace scatter tracea4125d" style="stroke-miterlimit: 2; opacity: 1;"><g class="fills"/><g class="errorbars"/><g class="lines"><path class="js-line" d="M0,317.15L4.83,82.24L9.66,82.02L14.5,89.01L19.33,93.2L24.16,82.87L28.99,84.2L33.83,87.37L38.66,74.77L43.49,71.54L48.32,63.7L53.15,65.61L57.99,55.28L62.82,150.76L67.65,154.73L72.48,80.28L77.32,76.57L82.15,63.86L86.98,68.04L91.81,121.27L96.64,132.33L101.48,127.51L106.31,135.88L111.14,143.93L115.97,136.15L120.81,127.46L125.64,133.92L130.47,127.73L135.3,126.77L140.13,124.92L144.97,123.97L149.8,48.45L154.63,44.48L159.46,87.21L164.3,89.17L169.13,86L173.96,84.09L178.79,93.04L183.62,38.55L188.46,41.51L193.29,41.51L202.95,35.16L207.79,38.49L212.62,48.18L217.45,100.77L222.28,100.82L227.11,95.58L231.95,41.83L236.78,40.03L241.61,40.72L246.44,38.28L251.28,38.97L256.11,45.11L260.94,45.11L265.77,48.18L270.6,42.73L275.44,38.49L280.27,41.41L285.1,45.64L289.93,46.07L294.77,45.7L299.6,47.97L304.43,48.03L309.26,48.13L314.09,45.85L318.93,47.76L323.76,45.22L328.59,44.48L333.42,41.14L338.26,42.62L343.09,39.34L347.92,37.91L352.75,39.29L357.58,38.6L362.42,36.53L367.25,49.51L372.08,46.17L381.74,42.62L386.58,39.39L391.41,35.74L396.24,41.25L405.91,39.5L410.74,29.86L415.57,38.28L420.4,37.59L425.23,108.29L430.07,105.06L434.9,97.65L439.73,96.96L444.56,104.32L449.4,95.1L454.23,107.76L459.06,75.88L463.89,78.37L468.72,77.73L473.56,77.1L478.39,80.28L483.22,79.69L488.05,83.51L492.89,57.72L497.72,52.79L502.55,47.66L507.38,40.4L512.21,33.3L517.05,33.52L521.88,38.71L526.71,46.54L531.54,39.66L536.38,42.36L541.21,41.67L546.04,39.18L555.7,33.67L560.54,36.16L565.37,35.48L570.2,31.24L575.03,34.63L579.87,35.79L584.7,34.42L589.53,30.71L599.19,32.56L604.03,31.24L608.86,25.68L613.69,25.68L618.52,36.69L623.36,31.4L628.19,28.27L633.02,39.98L642.68,38.07L647.52,39.82L652.35,39.24L657.18,34.89L662.01,35.48L666.85,31.24L671.68,29.97L676.51,30.6L681.34,28.27L686.17,27.74L691.01,29.65L695.84,29.01L700.67,27.21L705.5,22.87L710.34,31.98L715.17,33.2L720,35.1" style="vector-effect: none; fill: none; stroke: rgb(165, 42, 42); stroke-opacity: 1; stroke-width: 2px; opacity: 1;"/></g><g class="points"/><g class="text"/></g><g class="trace scatter traced7899a" style="stroke-miterlimit: 2; opacity: 1;"><g class="fills"/><g class="errorbars"/><g class="lines"><path class="js-line" d="M0,331.19L4.83,134.24L9.66,117.82L14.5,123.97L19.33,132.6L24.16,118.19L28.99,120.37L33.83,120.79L38.66,102.68L43.49,107.18L48.32,93.46L53.15,103.37L57.99,84.46L62.82,204.99L67.65,220.14L72.48,131.91L77.32,132.65L82.15,110.46L86.98,121.58L91.81,178.99L96.64,197.63L101.48,197.31L106.31,194.98L111.14,198L115.97,190.27L120.81,184.92L125.64,195.67L130.47,198L135.3,195.3L140.13,189.95L144.97,187.3L149.8,92.56L154.63,87.96L159.46,153.99L164.3,161.41L169.13,163.9L173.96,146.53L178.79,153.89L183.62,92.56L188.46,96.06L193.29,93.78L198.12,86.79L202.95,94.89L207.79,88.54L212.62,86.58L217.45,158.97L222.28,161.51L227.11,153.89L231.95,102.57L236.78,95.58L241.61,90.44L246.44,96.06L251.28,91.45L256.11,86.26L260.94,86.26L265.77,105.33L270.6,93.83L275.44,82.71L280.27,77.47L289.93,100.72L294.77,94.31L299.6,103.05L304.43,94.47L309.26,99.82L314.09,102.52L318.93,101.57L323.76,111.15L328.59,78.32L333.42,77.52L338.26,91.4L343.09,81.39L347.92,84.46L352.75,81.39L357.58,83.72L362.42,79.06L367.25,83.3L372.08,84.46L376.91,88.33L381.74,114.43L386.58,100.72L391.41,98.92L396.24,102.57L401.07,103.05L405.91,102.57L410.74,75.19L415.57,90.44L420.4,89.12L425.23,177.03L430.07,177.03L434.9,158.92L439.73,158.92L444.56,177.03L449.4,166.49L454.23,179.41L459.06,144.2L463.89,141.6L468.72,141.76L473.56,139.54L478.39,154.05L483.22,151.5L488.05,153.94L492.89,105.27L497.72,97.49L502.55,95.21L507.38,109.14L512.21,86.26L517.05,82.29L521.88,79.96L526.71,75.99L531.54,82.18L536.38,96.59L541.21,101.3L546.04,89.54L550.87,79.75L555.7,85.31L560.54,91.93L565.37,86.79L570.2,87.64L575.03,86.79L579.87,90.92L584.7,83.93L589.53,81.6L594.36,88.11L599.19,97.91L604.03,85.78L608.86,88.11L613.69,88.11L618.52,87.64L623.36,74.08L633.02,88.11L637.85,90.92L642.68,96.06L647.52,97.91L652.35,100.24L657.18,97.91L662.01,90.44L666.85,93.25L671.68,82.98L676.51,93.78L681.34,82.71L686.17,82.13L691.01,82.71L695.84,77.47L700.67,75.72L705.5,69.37L710.34,82.5L715.17,85.31L720,80.17" style="vector-effect: none; fill: none; stroke: rgb(128, 128, 128); stroke-opacity: 1; stroke-width: 2px; opacity: 1;"/></g><g class="points"/><g class="text"/></g></g></g><g class="overplot"/><path class="xlines-above crisp" d="M0,0" style="fill: none;"/><path class="ylines-above crisp" d="M0,0" style="fill: none;"/><g class="overlines-above"/><g class="xaxislayer-above"><g class="xtick"><text text-anchor="middle" x="0" y="509" transform="translate(241.81,0)" style="font-family: 'Open Sans', verdana, arial, sans-serif; font-size: 12px; fill: rgb(42, 63, 95); fill-opacity: 1; white-space: pre; opacity: 1;">20</text></g><g class="xtick"><text text-anchor="middle" x="0" y="509" style="font-family: 'Open Sans', verdana, arial, sans-serif; font-size: 12px; fill: rgb(42, 63, 95); fill-opacity: 1; white-space: pre; opacity: 1;" transform="translate(338.46000000000004,0)">40</text></g><g class="xtick"><text text-anchor="middle" x="0" y="509" style="font-family: 'Open Sans', verdana, arial, sans-serif; font-size: 12px; fill: rgb(42, 63, 95); fill-opacity: 1; white-space: pre; opacity: 1;" transform="translate(435.1,0)">60</text></g><g class="xtick"><text text-anchor="middle" x="0" y="509" style="font-family: 'Open Sans', verdana, arial, sans-serif; font-size: 12px; fill: rgb(42, 63, 95); fill-opacity: 1; white-space: pre; opacity: 1;" transform="translate(531.74,0)">80</text></g><g class="xtick"><text text-anchor="middle" x="0" y="509" style="font-family: 'Open Sans', verdana, arial, sans-serif; font-size: 12px; fill: rgb(42, 63, 95); fill-opacity: 1; white-space: pre; opacity: 1;" transform="translate(628.39,0)">100</text></g><g class="xtick"><text text-anchor="middle" x="0" y="509" style="font-family: 'Open Sans', verdana, arial, sans-serif; font-size: 12px; fill: rgb(42, 63, 95); fill-opacity: 1; white-space: pre; opacity: 1;" transform="translate(725.03,0)">120</text></g><g class="xtick"><text text-anchor="middle" x="0" y="509" style="font-family: 'Open Sans', verdana, arial, sans-serif; font-size: 12px; fill: rgb(42, 63, 95); fill-opacity: 1; white-space: pre; opacity: 1;" transform="translate(821.68,0)">140</text></g></g><g class="yaxislayer-above"><g class="ytick"><text text-anchor="end" x="149" y="4.199999999999999" transform="translate(0,467.73)" style="font-family: 'Open Sans', verdana, arial, sans-serif; font-size: 12px; fill: rgb(42, 63, 95); fill-opacity: 1; white-space: pre; opacity: 1;">20</text></g><g class="ytick"><text text-anchor="end" x="149" y="4.199999999999999" style="font-family: 'Open Sans', verdana, arial, sans-serif; font-size: 12px; fill: rgb(42, 63, 95); fill-opacity: 1; white-space: pre; opacity: 1;" transform="translate(0,414.77)">30</text></g><g class="ytick"><text text-anchor="end" x="149" y="4.199999999999999" style="font-family: 'Open Sans', verdana, arial, sans-serif; font-size: 12px; fill: rgb(42, 63, 95); fill-opacity: 1; white-space: pre; opacity: 1;" transform="translate(0,361.81)">40</text></g><g class="ytick"><text text-anchor="end" x="149" y="4.199999999999999" style="font-family: 'Open Sans', verdana, arial, sans-serif; font-size: 12px; fill: rgb(42, 63, 95); fill-opacity: 1; white-space: pre; opacity: 1;" transform="translate(0,308.86)">50</text></g><g class="ytick"><text text-anchor="end" x="149" y="4.199999999999999" style="font-family: 'Open Sans', verdana, arial, sans-serif; font-size: 12px; fill: rgb(42, 63, 95); fill-opacity: 1; white-space: pre; opacity: 1;" transform="translate(0,255.9)">60</text></g><g class="ytick"><text text-anchor="end" x="149" y="4.199999999999999" style="font-family: 'Open Sans', verdana, arial, sans-serif; font-size: 12px; fill: rgb(42, 63, 95); fill-opacity: 1; white-space: pre; opacity: 1;" transform="translate(0,202.94)">70</text></g><g class="ytick"><text text-anchor="end" x="149" y="4.199999999999999" style="font-family: 'Open Sans', verdana, arial, sans-serif; font-size: 12px; fill: rgb(42, 63, 95); fill-opacity: 1; white-space: pre; opacity: 1;" transform="translate(0,149.99)">80</text></g></g><g class="overaxes-above"/></g></g><g class="polarlayer"/><g class="smithlayer"/><g class="ternarylayer"/><g class="geolayer"/><g class="funnelarealayer"/><g class="pielayer"/><g class="iciclelayer"/><g class="treemaplayer"/><g class="sunburstlayer"/><g class="glimages"/><defs id="topdefs-c6a9f6"><g class="clips"/><clipPath id="legendc6a9f6"><rect width="128" height="162" x="0" y="0"/></clipPath></defs><g class="layer-above"><g class="imagelayer"/><g class="shapelayer"/></g><g class="infolayer"><g class="legend" pointer-events="all" transform="translate(884.4,100)"><rect class="bg" shape-rendering="crispEdges" width="128" height="162" x="0" y="0" style="stroke: rgb(68, 68, 68); stroke-opacity: 1; fill: rgb(255, 255, 255); fill-opacity: 1; stroke-width: 0px;"/><g class="scrollbox" transform="" clip-path="url(#legendc6a9f6)"><g class="groups"><g class="traces" transform="translate(0,14.5)" style="opacity: 1;"><text class="legendtext" text-anchor="start" x="40" y="4.680000000000001" style="font-family: 'Open Sans', verdana, arial, sans-serif; font-size: 12px; fill: rgb(42, 63, 95); fill-opacity: 1; white-space: pre;">Train Accuracy</text><g class="layers" style="opacity: 1;"><g class="legendfill"/><g class="legendlines"><path class="js-line" d="M5,0h30" style="fill: none; stroke: rgb(255, 0, 0); stroke-opacity: 1; stroke-width: 2px;"/></g><g class="legendsymbols"><g class="legendpoints"/></g></g><rect class="legendtoggle" x="0" y="-9.5" width="122.71875" height="19" style="fill: rgb(0, 0, 0); fill-opacity: 0;"/></g><g class="traces" transform="translate(0,33.5)" style="opacity: 1;"><text class="legendtext" text-anchor="start" x="40" y="4.680000000000001" style="font-family: 'Open Sans', verdana, arial, sans-serif; font-size: 12px; fill: rgb(42, 63, 95); fill-opacity: 1; white-space: pre;">Test Accuracy</text><g class="layers" style="opacity: 1;"><g class="legendfill"/><g class="legendlines"><path class="js-line" d="M5,0h30" style="fill: none; stroke: rgb(0, 0, 255); stroke-opacity: 1; stroke-width: 2px;"/></g><g class="legendsymbols"><g class="legendpoints"/></g></g><rect class="legendtoggle" x="0" y="-9.5" width="122.71875" height="19" style="fill: rgb(0, 0, 0); fill-opacity: 0;"/></g><g class="traces" transform="translate(0,52.5)" style="opacity: 1;"><text class="legendtext" text-anchor="start" x="40" y="4.680000000000001" style="font-family: 'Open Sans', verdana, arial, sans-serif; font-size: 12px; fill: rgb(42, 63, 95); fill-opacity: 1; white-space: pre;">Train Precision</text><g class="layers" style="opacity: 1;"><g class="legendfill"/><g class="legendlines"><path class="js-line" d="M5,0h30" style="fill: none; stroke: rgb(0, 128, 0); stroke-opacity: 1; stroke-width: 2px;"/></g><g class="legendsymbols"><g class="legendpoints"/></g></g><rect class="legendtoggle" x="0" y="-9.5" width="122.71875" height="19" style="fill: rgb(0, 0, 0); fill-opacity: 0;"/></g><g class="traces" transform="translate(0,71.5)" style="opacity: 1;"><text class="legendtext" text-anchor="start" x="40" y="4.680000000000001" style="font-family: 'Open Sans', verdana, arial, sans-serif; font-size: 12px; fill: rgb(42, 63, 95); fill-opacity: 1; white-space: pre;">Test Precision</text><g class="layers" style="opacity: 1;"><g class="legendfill"/><g class="legendlines"><path class="js-line" d="M5,0h30" style="fill: none; stroke: rgb(255, 165, 0); stroke-opacity: 1; stroke-width: 2px;"/></g><g class="legendsymbols"><g class="legendpoints"/></g></g><rect class="legendtoggle" x="0" y="-9.5" width="122.71875" height="19" style="fill: rgb(0, 0, 0); fill-opacity: 0;"/></g><g class="traces" transform="translate(0,90.5)" style="opacity: 1;"><text class="legendtext" text-anchor="start" x="40" y="4.680000000000001" style="font-family: 'Open Sans', verdana, arial, sans-serif; font-size: 12px; fill: rgb(42, 63, 95); fill-opacity: 1; white-space: pre;">Train Recall</text><g class="layers" style="opacity: 1;"><g class="legendfill"/><g class="legendlines"><path class="js-line" d="M5,0h30" style="fill: none; stroke: rgb(128, 0, 128); stroke-opacity: 1; stroke-width: 2px;"/></g><g class="legendsymbols"><g class="legendpoints"/></g></g><rect class="legendtoggle" x="0" y="-9.5" width="122.71875" height="19" style="fill: rgb(0, 0, 0); fill-opacity: 0;"/></g><g class="traces" transform="translate(0,109.5)" style="opacity: 1;"><text class="legendtext" text-anchor="start" x="40" y="4.680000000000001" style="font-family: 'Open Sans', verdana, arial, sans-serif; font-size: 12px; fill: rgb(42, 63, 95); fill-opacity: 1; white-space: pre;">Test Recall</text><g class="layers" style="opacity: 1;"><g class="legendfill"/><g class="legendlines"><path class="js-line" d="M5,0h30" style="fill: none; stroke: rgb(255, 192, 203); stroke-opacity: 1; stroke-width: 2px;"/></g><g class="legendsymbols"><g class="legendpoints"/></g></g><rect class="legendtoggle" x="0" y="-9.5" width="122.71875" height="19" style="fill: rgb(0, 0, 0); fill-opacity: 0;"/></g><g class="traces" transform="translate(0,128.5)" style="opacity: 1;"><text class="legendtext" text-anchor="start" x="40" y="4.680000000000001" style="font-family: 'Open Sans', verdana, arial, sans-serif; font-size: 12px; fill: rgb(42, 63, 95); fill-opacity: 1; white-space: pre;">Train F1</text><g class="layers" style="opacity: 1;"><g class="legendfill"/><g class="legendlines"><path class="js-line" d="M5,0h30" style="fill: none; stroke: rgb(165, 42, 42); stroke-opacity: 1; stroke-width: 2px;"/></g><g class="legendsymbols"><g class="legendpoints"/></g></g><rect class="legendtoggle" x="0" y="-9.5" width="122.71875" height="19" style="fill: rgb(0, 0, 0); fill-opacity: 0;"/></g><g class="traces" transform="translate(0,147.5)" style="opacity: 1;"><text class="legendtext" text-anchor="start" x="40" y="4.680000000000001" style="font-family: 'Open Sans', verdana, arial, sans-serif; font-size: 12px; fill: rgb(42, 63, 95); fill-opacity: 1; white-space: pre;">Test F1</text><g class="layers" style="opacity: 1;"><g class="legendfill"/><g class="legendlines"><path class="js-line" d="M5,0h30" style="fill: none; stroke: rgb(128, 128, 128); stroke-opacity: 1; stroke-width: 2px;"/></g><g class="legendsymbols"><g class="legendpoints"/></g></g><rect class="legendtoggle" x="0" y="-9.5" width="122.71875" height="19" style="fill: rgb(0, 0, 0); fill-opacity: 0;"/></g></g></g><rect class="scrollbar" rx="20" ry="3" width="0" height="0" x="0" y="0" style="fill: rgb(128, 139, 164); fill-opacity: 1;"/></g><g class="g-gtitle"><text class="gtitle" x="51.2" y="50" text-anchor="start" dy="0em" style="font-family: 'Open Sans', verdana, arial, sans-serif; font-size: 17px; fill: rgb(42, 63, 95); opacity: 1; font-weight: normal; white-space: pre;">Training Metrics - logs/FakeNewsNet-politifact_max-vocab=15000_pre=v1_text_T=150_s=10.log</text></g><g class="g-xtitle"><text class="xtitle" x="510" y="537.3" text-anchor="middle" style="font-family: 'Open Sans', verdana, arial, sans-serif; font-size: 14px; fill: rgb(42, 63, 95); opacity: 1; font-weight: normal; white-space: pre;">Epoch</text></g><g class="g-ytitle"><text class="ytitle" transform="rotate(-90,110.965625,298)" x="110.965625" y="298" text-anchor="middle" style="font-family: 'Open Sans', verdana, arial, sans-serif; font-size: 14px; fill: rgb(42, 63, 95); opacity: 1; font-weight: normal; white-space: pre;">Metric Score</text></g></g><g class="menulayer"><g class="updatemenu-container" style="cursor: pointer;"><g class="updatemenu-header-group" transform="translate(12,60)"><g class="updatemenu-header" transform="translate(1,1)" style="pointer-events: all;"><rect class="updatemenu-item-rect" rx="2" ry="2" shape-rendering="crispEdges" x="0" y="0" width="174" height="33" style="stroke: rgb(190, 200, 217); stroke-opacity: 1; fill: rgb(255, 255, 255); fill-opacity: 1; stroke-width: 1px;"/><text class="updatemenu-item-text" text-anchor="start" data-notex="1" x="12" y="19.5" style="font-family: 'Open Sans', verdana, arial, sans-serif; font-size: 12px; fill: rgb(42, 63, 95); fill-opacity: 1; white-space: pre;">All</text></g><text class="updatemenu-header-arrow" text-anchor="end" x="170" y="19.5" style="font-family: 'Open Sans', verdana, arial, sans-serif; font-size: 12px; fill: rgb(42, 63, 95); fill-opacity: 1;">▼</text></g><g class="updatemenu-dropdown-button-group" updatemenu-active-index="-1" style="pointer-events: all;"><rect class="scrollbox-bg" opacity="0" x="0" y="0" width="0" height="0" style="pointer-events: all;"/></g></g></g></svg>