<svg class="main-svg" xmlns="http://www.w3.org/2000/svg" xmlns:xlink="http://www.w3.org/1999/xlink" width="1024" height="576" style="" viewBox="0 0 1024 576"><rect x="0" y="0" width="1024" height="576" style="fill: rgb(255, 255, 255); fill-opacity: 1;"/><defs id="defs-e64771"><g class="clips"><clipPath id="clipe64771xyplot" class="plotclip"><rect width="734" height="396"/></clipPath><clipPath class="axesclip" id="clipe64771x"><rect x="135" y="0" width="734" height="576"/></clipPath><clipPath class="axesclip" id="clipe64771y"><rect x="0" y="100" width="1024" height="396"/></clipPath><clipPath class="axesclip" id="clipe64771xy"><rect x="135" y="100" width="734" height="396"/></clipPath></g><g class="gradients"/><g class="patterns"/></defs><g class="bglayer"><rect class="bg" x="135" y="100" width="734" height="396" style="fill: rgb(229, 236, 246); fill-opacity: 1; stroke-width: 0;"/></g><g class="layer-below"><g class="imagelayer"/><g class="shapelayer"/></g><g class="cartesianlayer"><g class="subplot xy"><g class="layer-subplot"><g class="shapelayer"/><g class="imagelayer"/></g><g class="minor-gridlayer"><g class="x"/><g class="y"/></g><g class="gridlayer"><g class="x"><path class="xgrid crisp" transform="translate(228.6,0)" d="M0,100v396" style="stroke: rgb(255, 255, 255); stroke-opacity: 1; stroke-width: 1px;"/><path class="xgrid crisp" transform="translate(327.12,0)" d="M0,100v396" style="stroke: rgb(255, 255, 255); stroke-opacity: 1; stroke-width: 1px;"/><path class="xgrid crisp" transform="translate(425.64,0)" d="M0,100v396" style="stroke: rgb(255, 255, 255); stroke-opacity: 1; stroke-width: 1px;"/><path class="xgrid crisp" transform="translate(524.1700000000001,0)" d="M0,100v396" style="stroke: rgb(255, 255, 255); stroke-opacity: 1; stroke-width: 1px;"/><path class="xgrid crisp" transform="translate(622.69,0)" d="M0,100v396" style="stroke: rgb(255, 255, 255); stroke-opacity: 1; stroke-width: 1px;"/><path class="xgrid crisp" transform="translate(721.21,0)" d="M0,100v396" style="stroke: rgb(255, 255, 255); stroke-opacity: 1; stroke-width: 1px;"/><path class="xgrid crisp" transform="translate(819.74,0)" d="M0,100v396" style="stroke: rgb(255, 255, 255); stroke-opacity: 1; stroke-width: 1px;"/></g><g class="y"><path class="ygrid crisp" transform="translate(0,483.31)" d="M135,0h734" style="stroke: rgb(255, 255, 255); stroke-opacity: 1; stroke-width: 1px;"/><path class="ygrid crisp" transform="translate(0,394.39)" d="M135,0h734" style="stroke: rgb(255, 255, 255); stroke-opacity: 1; stroke-width: 1px;"/><path class="ygrid crisp" transform="translate(0,305.47)" d="M135,0h734" style="stroke: rgb(255, 255, 255); stroke-opacity: 1; stroke-width: 1px;"/><path class="ygrid crisp" transform="translate(0,216.55)" d="M135,0h734" style="stroke: rgb(255, 255, 255); stroke-opacity: 1; stroke-width: 1px;"/><path class="ygrid crisp" transform="translate(0,127.63)" d="M135,0h734" style="stroke: rgb(255, 255, 255); stroke-opacity: 1; stroke-width: 1px;"/></g></g><g class="zerolinelayer"/><path class="xlines-below"/><path class="ylines-below"/><g class="overlines-below"/><g class="xaxislayer-below"/><g class="yaxislayer-below"/><g class="overaxes-below"/><g class="plot" transform="translate(135,100)" clip-path="url(#clipe64771xyplot)"><g class="scatterlayer mlayer"><g class="trace scatter trace85c135" style="stroke-miterlimit: 2; opacity: 1;"><g class="fills"/><g class="errorbars"/><g class="lines"><path class="js-line" d="M0,79.73L4.93,68.17L9.85,65.68L14.78,61.42L19.7,63.55L24.63,68.17L29.56,69.42L34.48,59.81L39.41,61.42L44.34,60.88L49.26,62.66L54.19,61.24L59.11,68.35L64.04,60.53L68.97,62.13L73.89,59.64L78.82,59.64L83.74,58.21L88.67,59.64L93.6,62.66L98.52,61.42L103.45,68L108.38,60.53L118.23,59.99L123.15,58.04L128.08,59.28L133.01,58.39L137.93,58.75L142.86,60.7L147.79,57.68L152.71,59.46L157.64,64.08L162.56,59.1L167.49,62.66L172.42,63.73L177.34,59.28L182.27,61.77L187.19,61.77L192.12,75.82L197.05,59.64L201.97,58.39L206.9,60.53L211.83,59.64L216.75,62.48L221.68,61.06L226.6,61.42L231.53,63.19L236.46,64.97L241.38,60.53L246.31,62.84L251.23,62.3L256.16,64.44L261.09,62.66L266.01,64.26L270.94,58.57L275.87,58.39L280.79,56.61L285.72,59.99L290.64,54.48L295.57,55.55L300.5,58.75L305.42,57.68L310.35,58.57L315.28,63.55L320.2,59.1L325.13,59.28L330.05,61.24L334.98,56.61L339.91,56.26L344.83,57.15L349.76,55.9L354.68,55.01L359.61,58.93L369.46,55.9L374.39,58.21L379.32,61.95L384.24,61.06L389.17,56.08L394.09,56.26L403.95,55.55L408.87,56.61L413.8,56.97L418.72,58.39L423.65,56.61L428.58,63.02L433.5,63.91L438.43,59.46L443.36,55.55L448.28,63.19L453.21,60.35L458.13,62.84L463.06,58.93L467.99,61.77L472.91,59.81L477.84,60.88L482.77,59.64L487.69,60.7L497.54,60.88L502.47,58.93L507.4,66.04L512.32,60.88L517.25,64.26L522.17,57.15L527.1,56.44L532.03,58.57L536.95,59.81L541.88,53.77L546.81,57.86L551.73,56.61L556.66,58.93L561.58,56.61L566.51,56.08L571.44,64.97L576.36,57.5L581.29,56.61L586.21,60.53L591.14,60.53L596.07,59.99L600.99,61.24L605.92,65.33L610.85,55.72L615.77,55.37L620.7,58.21L625.62,56.44L630.55,55.9L635.48,53.23L640.4,56.08L645.33,55.9L650.26,58.93L655.18,56.79L660.11,59.1L665.03,56.79L669.96,61.77L674.89,57.5L679.81,56.44L684.74,56.08L689.66,57.86L694.59,57.33L699.52,54.84L709.37,56.26L714.3,58.21L719.22,57.68L724.15,58.21L734,60.35" style="vector-effect: none; fill: none; stroke: rgb(255, 0, 0); stroke-opacity: 1; stroke-width: 2px; opacity: 1;"/></g><g class="points"/><g class="text"/></g><g class="trace scatter traceb44f91" style="stroke-miterlimit: 2; opacity: 1;"><g class="fills"/><g class="errorbars"/><g class="lines"><path class="js-line" d="M0,70.49L9.85,63.73L14.78,58.39L19.7,64.08L24.63,66.57L29.56,66.57L34.48,61.24L44.34,62.13L49.26,64.97L54.19,64.97L59.11,68.89L64.04,62.84L68.97,63.37L73.89,62.48L78.82,58.39L88.67,58.04L93.6,62.84L98.52,60.88L103.45,64.97L108.38,58.04L113.3,58.39L128.08,60.53L133.01,59.28L137.93,61.77L142.86,65.68L147.79,59.99L152.71,64.44L162.56,64.08L167.49,70.49L172.42,68.53L177.34,60.88L182.27,64.44L187.19,63.37L192.12,78.49L197.05,65.33L201.97,61.24L206.9,63.37L211.83,59.64L216.75,66.04L221.68,66.04L226.6,64.97L231.53,62.48L236.46,66.93L241.38,62.84L246.31,63.37L256.16,67.28L261.09,65.33L266.01,62.13L270.94,62.13L275.87,60.88L280.79,58.04L285.72,62.13L290.64,56.44L295.57,58.04L300.5,57.33L305.42,57.33L310.35,59.99L315.28,66.04L320.2,65.33L325.13,66.93L330.05,66.57L334.98,60.88L339.91,58.39L344.83,59.64L349.76,58.93L354.68,55.19L359.61,59.99L369.46,57.33L374.39,60.88L379.32,63.37L384.24,63.37L389.17,58.04L394.09,56.79L399.02,55.72L403.95,56.44L408.87,55.19L413.8,61.77L418.72,63.37L423.65,61.24L428.58,68.17L433.5,72.98L443.36,55.72L448.28,66.04L453.21,61.77L458.13,66.93L463.06,63.73L467.99,63.37L472.91,59.99L477.84,63.37L482.77,62.48L487.69,62.48L492.62,64.08L497.54,64.08L502.47,60.88L507.4,69.24L512.32,64.44L517.25,64.08L522.17,56.44L527.1,56.79L532.03,62.13L536.95,62.84L541.88,53.23L546.81,56.79L551.73,55.72L556.66,56.79L561.58,54.48L566.51,53.23L571.44,59.99L576.36,56.08L586.21,55.72L591.14,59.28L596.07,57.68L600.99,59.99L605.92,65.68L610.85,55.72L615.77,56.44L620.7,61.24L625.62,58.04L630.55,58.04L635.48,53.23L640.4,57.68L645.33,58.04L650.26,59.99L655.18,57.33L660.11,59.64L665.03,59.28L669.96,65.68L674.89,63.73L679.81,63.37L684.74,62.48L689.66,62.84L694.59,61.24L699.52,56.79L704.44,59.64L709.37,60.88L714.3,64.44L719.22,60.88L724.15,59.28L729.07,59.99L734,66.04" style="vector-effect: none; fill: none; stroke: rgb(0, 0, 255); stroke-opacity: 1; stroke-width: 2px; opacity: 1;"/></g><g class="points"/><g class="text"/></g><g class="trace scatter trace5584ca" style="stroke-miterlimit: 2; opacity: 1;"><g class="fills"/><g class="errorbars"/><g class="lines"><path class="js-line" d="M0,114.24L4.93,49.68L9.85,54.66L14.78,38.3L19.7,60.53L24.63,21.4L29.56,26.56L34.48,50.74L39.41,60.53L44.34,60.88L49.26,49.86L54.19,51.28L59.11,95.56L64.04,61.24L68.97,71.73L73.89,52.17L78.82,57.68L83.74,50.57L88.67,58.21L93.6,73.15L98.52,83.65L103.45,101.43L108.38,68.35L113.3,55.55L118.23,52.17L123.15,54.66L128.08,64.26L133.01,73.69L137.93,67.64L142.86,74.4L147.79,69.24L152.71,78.84L157.64,90.94L162.56,85.07L167.49,112.46L172.42,102.68L177.34,67.64L182.27,87.91L187.19,76.18L192.12,148.74L197.05,71.91L201.97,64.79L206.9,64.08L211.83,54.48L216.75,70.13L221.68,72.26L226.6,80.98L231.53,74.22L236.46,81.51L241.38,82.93L246.31,87.74L256.16,94.85L261.09,88.63L266.01,80.44L270.94,62.84L275.87,63.02L280.79,76.35L285.72,98.76L290.64,72.44L295.57,65.68L300.5,69.06L305.42,74.4L310.35,91.65L315.28,98.05L320.2,80.27L325.13,85.07L330.05,99.12L334.98,80.62L339.91,55.19L344.83,64.44L349.76,61.95L354.68,68.35L359.61,85.07L364.54,63.73L369.46,53.06L374.39,66.57L379.32,64.79L389.17,55.72L394.09,64.44L399.02,58.04L403.95,63.02L408.87,66.22L413.8,79.38L418.72,84.71L423.65,78.84L428.58,92.36L433.5,100.72L438.43,82.76L443.36,56.79L448.28,101.07L453.21,90.4L458.13,102.14L463.06,86.85L467.99,95.74L472.91,92L477.84,87.2L482.77,80.8L487.69,87.56L492.62,90.4L502.47,67.64L507.4,109.61L512.32,85.07L517.25,100.9L522.17,55.72L527.1,48.26L536.95,83.47L541.88,59.64L546.81,58.21L551.73,58.04L556.66,70.84L561.58,60.7L566.51,63.02L571.44,103.03L576.36,64.97L581.29,41.5L586.21,64.79L591.14,71.91L600.99,76.89L605.92,107.3L610.85,58.21L615.77,57.5L620.7,76.18L625.62,65.51L630.55,69.95L635.48,49.5L640.4,75.82L645.33,63.02L650.26,84.36L655.18,72.8L660.11,77.24L665.03,74.4L669.96,84.54L674.89,84.89L679.81,72.44L684.74,85.6L689.66,91.83L694.59,92.36L699.52,79.38L704.44,76L709.37,69.95L714.3,79.38L719.22,64.79L724.15,68L729.07,69.24L734,79.56" style="vector-effect: none; fill: none; stroke: rgb(0, 128, 0); stroke-opacity: 1; stroke-width: 2px; opacity: 1;"/></g><g class="points"/><g class="text"/></g><g class="trace scatter trace7502b5" style="stroke-miterlimit: 2; opacity: 1;"><g class="fills"/><g class="errorbars"/><g class="lines"><path class="js-line" d="M0,89.16L4.93,51.46L9.85,53.59L14.78,31.18L19.7,61.06L24.63,19.8L29.56,23L34.48,54.3L39.41,63.55L44.34,65.15L49.26,59.81L54.19,63.19L59.11,97.7L64.04,68.17L68.97,78.49L73.89,60.17L78.82,55.19L83.74,51.99L88.67,54.84L93.6,76.18L98.52,81.69L103.45,91.29L108.38,59.99L113.3,51.99L118.23,52.88L123.15,61.59L128.08,65.15L133.01,77.07L137.93,76.53L142.86,88.98L147.79,73.51L152.71,93.25L157.64,88.63L162.56,97.52L167.49,131.13L172.42,115.84L177.34,71.55L182.27,93.25L187.19,81.33L192.12,153.01L197.05,88.45L201.97,76L206.9,74.75L211.83,56.79L216.75,83.11L221.68,87.74L226.6,90.4L231.53,74.58L236.46,91.47L241.38,90.4L246.31,92.54L251.23,101.96L256.16,105.7L261.09,96.81L266.01,75.11L270.94,71.2L275.87,65.68L280.79,82.4L285.72,104.99L290.64,76.89L295.57,73.69L300.5,64.08L305.42,70.84L310.35,92.18L315.28,104.1L320.2,95.92L325.13,104.45L330.05,116.37L334.98,97.7L339.91,64.62L344.83,75.64L349.76,72.8L354.68,73.69L359.61,89.87L364.54,71.91L369.46,60.17L374.39,75.47L379.32,68.71L384.24,69.77L389.17,59.99L394.09,70.31L399.02,65.15L403.95,69.77L408.87,67.46L413.8,95.03L418.72,99.47L423.65,93.78L428.58,104.63L433.5,123.48L438.43,100.9L443.36,62.13L448.28,109.08L453.21,92L458.13,108.9L463.06,98.59L467.99,98.05L472.91,92.89L477.84,96.45L482.77,89.87L487.69,91.47L492.62,99.83L497.54,86.85L502.47,71.55L507.4,115.66L512.32,97.34L517.25,98.41L522.17,50.57L527.1,47.72L532.03,76.89L536.95,95.21L541.88,61.24L546.81,56.44L551.73,56.08L556.66,69.42L561.58,60.7L566.51,59.28L571.44,91.47L576.36,61.59L581.29,36.87L586.21,51.81L591.14,69.6L596.07,70.49L600.99,76.18L605.92,109.97L610.85,61.24L615.77,64.08L620.7,86.49L625.62,75.47L630.55,80.62L635.48,56.26L640.4,85.96L645.33,76.35L650.26,96.63L655.18,77.96L660.11,86.14L665.03,85.6L669.96,96.63L674.89,101.61L679.81,90.05L684.74,104.28L689.66,106.05L694.59,105.34L699.52,88.8L704.44,86.85L709.37,80.8L714.3,94.85L719.22,69.6L724.15,69.6L729.07,71.55L734,97.16" style="vector-effect: none; fill: none; stroke: rgb(255, 165, 0); stroke-opacity: 1; stroke-width: 2px; opacity: 1;"/></g><g class="points"/><g class="text"/></g><g class="trace scatter trace68d722" style="stroke-miterlimit: 2; opacity: 1;"><g class="fills"/><g class="errorbars"/><g class="lines"><path class="js-line" d="M0,361.97L4.93,363.75L9.85,354.86L14.78,351.12L19.7,346.32L24.63,374.78L29.56,376.2L34.48,341.52L39.41,340.63L44.34,339.03L49.26,349.17L59.11,340.1L64.04,337.79L68.97,336.36L73.89,340.28L78.82,337.07L83.74,337.25L88.67,336.9L93.6,337.43L98.52,327.11L103.45,334.76L108.38,334.05L113.3,340.99L118.23,341.34L123.15,334.58L128.08,332.81L133.01,324.63L137.93,329.07L142.86,330.85L147.79,325.69L152.71,324.63L157.64,330.32L162.56,319.65L167.49,308.8L172.42,320.89L177.34,330.85L182.27,325.16L187.19,332.63L192.12,318.58L197.05,329.43L201.97,330.32L206.9,336.19L211.83,339.03L216.75,338.5L221.68,333.34L226.6,329.07L231.53,338.14L236.46,338.67L241.38,325.16L246.31,328.54L251.23,324.98L256.16,328.54L261.09,327.65L266.01,337.25L270.94,331.56L275.87,330.85L280.79,318.04L285.72,312.35L290.64,314.13L300.5,328.54L305.42,322.14L310.35,313.07L315.28,323.74L320.2,322.85L325.13,320L330.05,315.91L334.98,315.2L339.91,329.43L344.83,326.58L349.76,324.63L354.68,318.22L359.61,319.11L364.54,326.94L369.46,329.78L374.39,328.36L379.32,340.1L384.24,339.56L389.17,328.54L394.09,324.27L399.02,326.58L403.95,322.85L408.87,324.45L413.8,316.98L418.72,317.51L423.65,316.09L428.58,326.05L433.5,323.02L438.43,321.78L443.36,326.58L448.28,320.18L453.21,319.47L463.06,317.51L467.99,319.82L472.91,316.8L477.84,323.38L482.77,323.91L487.69,322.67L492.62,321.42L497.54,328.89L502.47,329.6L507.4,322.67L512.32,324.8L517.25,323.91L522.17,331.56L527.1,333.52L532.03,330.14L536.95,322.85L541.88,320L546.81,332.09L551.73,328.89L556.66,328.18L561.58,327.47L566.51,324.63L571.44,324.09L576.36,327.29L581.29,337.43L586.21,336.19L591.14,332.09L596.07,329.25L600.99,331.21L605.92,322.14L610.85,326.4L615.77,325.69L620.7,322.85L625.62,324.27L630.55,319.82L635.48,324.27L640.4,316.62L645.33,324.27L650.26,319.47L655.18,320.89L660.11,324.8L665.03,320L669.96,327.83L674.89,314.67L679.81,319.82L684.74,310.22L689.66,310.75L694.59,308.8L699.52,310.75L704.44,314.13L709.37,320.89L714.3,320.53L719.22,328L724.15,327.83L729.07,330.49L734,326.4" style="vector-effect: none; fill: none; stroke: rgb(128, 0, 128); stroke-opacity: 1; stroke-width: 2px; opacity: 1;"/></g><g class="points"/><g class="text"/></g><g class="trace scatter trace3b98b8" style="stroke-miterlimit: 2; opacity: 1;"><g class="fills"/><g class="errorbars"/><g class="lines"><path class="js-line" d="M0,348.28L4.93,357.7L9.85,348.28L14.78,344.9L19.7,345.61L24.63,369.44L29.56,368.37L34.48,341.52L39.41,337.79L44.34,338.14L49.26,348.46L54.19,346.86L59.11,338.14L64.04,338.67L68.97,333.87L73.89,341.88L78.82,333.52L83.74,335.12L88.67,332.63L93.6,334.05L98.52,324.8L103.45,330.32L108.38,329.78L113.3,335.12L118.23,336.9L123.15,334.58L128.08,333.7L133.01,323.2L137.93,330.49L142.86,334.23L147.79,327.65L152.71,327.83L157.64,329.78L162.56,323.56L167.49,315.73L177.34,331.03L182.27,327.83L187.19,332.09L192.12,321.07L197.05,333.34L201.97,329.6L206.9,336.01L211.83,336.01L216.75,339.03L221.68,336.19L226.6,330.85L231.53,333.87L236.46,336.19L241.38,324.98L246.31,324.63L251.23,325.16L256.16,327.29L261.09,327.65L266.01,332.45L270.94,334.76L275.87,334.41L280.79,316.09L285.72,311.46L290.64,315.02L295.57,321.78L300.5,325.34L305.42,321.25L310.35,315.2L315.28,324.8L320.2,328.36L325.13,327.11L330.05,315.91L334.98,313.42L339.91,328.36L344.83,325.16L349.76,324.63L354.68,313.78L359.61,316.8L364.54,325.16L369.46,327.47L374.39,328.72L379.32,339.56L384.24,338.85L389.17,329.78L394.09,320.53L399.02,320.18L403.95,319.65L408.87,317.69L413.8,317.87L418.72,319.65L423.65,317.69L428.58,330.67L433.5,331.03L438.43,323.56L448.28,320.89L453.21,320.18L458.13,323.74L463.06,321.6L467.99,320.71L472.91,314.67L477.84,321.78L482.77,324.09L492.62,321.78L497.54,330.85L502.47,331.03L507.4,325.87L512.32,324.98L517.25,323.02L522.17,330.49L527.1,332.98L532.03,331.21L536.95,321.6L541.88,315.73L546.81,328.36L551.73,325.34L556.66,321.07L561.58,319.47L566.51,316.98L571.44,315.73L576.36,323.38L581.29,334.94L586.21,327.65L591.14,327.65L596.07,322.67L600.99,326.05L605.92,318.93L610.85,322.49L615.77,323.02L620.7,322.85L625.62,320.71L630.55,317.33L635.48,318.58L640.4,312.53L645.33,320.18L650.26,311.82L655.18,316.8L660.11,318.4L665.03,317.51L669.96,329.07L674.89,319.29L679.81,326.4L684.74,313.42L689.66,313.07L694.59,308.62L699.52,307.91L704.44,317.69L709.37,325.34L714.3,326.58L719.22,332.27L724.15,327.65L734,329.96" style="vector-effect: none; fill: none; stroke: rgb(255, 192, 203); stroke-opacity: 1; stroke-width: 2px; opacity: 1;"/></g><g class="points"/><g class="text"/></g><g class="trace scatter trace63e9ef" style="stroke-miterlimit: 2; opacity: 1;"><g class="fills"/><g class="errorbars"/><g class="lines"><path class="js-line" d="M0,312.35L4.93,309.69L9.85,299.55L14.78,294.21L19.7,290.3L24.63,321.25L29.56,323.2L34.48,284.25L39.41,284.08L44.34,282.3L49.26,292.79L54.19,288.17L59.11,286.74L64.04,280.88L68.97,280.52L73.89,282.83L78.82,279.99L88.67,279.63L93.6,281.59L98.52,271.63L103.45,281.76L108.38,277.67L113.3,284.08L118.23,284.08L123.15,276.96L128.08,275.9L133.01,268.07L137.93,272.16L142.86,274.83L147.79,268.78L152.71,268.6L157.64,275.9L162.56,264.16L167.49,257.04L172.42,267.54L177.34,274.12L182.27,270.2L187.19,276.96L192.12,271.81L197.05,273.05L201.97,273.23L206.9,279.45L211.83,281.76L216.75,282.65L221.68,277.14L226.6,273.58L231.53,282.48L236.46,283.9L241.38,269.67L246.31,273.76L251.23,270.38L256.16,274.47L261.09,272.87L266.01,282.3L270.94,274.47L275.87,273.76L280.79,261.49L285.72,258.47L290.64,257.04L300.5,271.81L305.42,265.58L310.35,258.29L315.28,270.03L325.13,264.51L330.05,262.02L334.98,259.18L339.91,271.27L349.76,266.83L354.68,260.78L359.61,263.62L364.54,269.49L369.46,271.45L374.39,271.27L379.32,283.72L384.24,283.01L389.17,270.38L394.09,266.65L399.02,268.43L403.95,265.05L408.87,267L413.8,260.78L418.72,261.85L423.65,259.89L428.58,271.63L433.5,269.49L438.43,266.11L443.36,268.43L453.21,264.69L458.13,265.05L463.06,262.2L467.99,265.76L472.91,262.02L477.84,268.25L487.69,267.54L492.62,266.65L497.54,273.05L502.47,272.87L507.4,270.38L512.32,269.49L517.25,270.38L522.17,273.76L527.1,275.18L532.03,273.05L541.88,261.67L546.81,274.65L551.73,271.09L556.66,271.45L561.58,269.85L566.51,266.83L571.44,270.92L576.36,270.03L581.29,278.92L586.21,279.45L596.07,273.05L600.99,275.36L605.92,269.32L610.85,268.25L620.7,266.47L625.62,266.83L630.55,262.56L635.48,265.23L640.4,260.07L645.33,266.47L650.26,263.98L655.18,264.16L660.11,268.6L665.03,263.27L669.96,272.52L674.89,259L679.81,262.74L684.74,254.55L689.66,255.98L694.59,254.2L699.52,254.38L704.44,257.4L709.37,263.8L714.3,264.34L719.22,270.74L724.15,270.92L729.07,273.94L734,270.74" style="vector-effect: none; fill: none; stroke: rgb(165, 42, 42); stroke-opacity: 1; stroke-width: 2px; opacity: 1;"/></g><g class="points"/><g class="text"/></g><g class="trace scatter trace5c162a" style="stroke-miterlimit: 2; opacity: 1;"><g class="fills"/><g class="errorbars"/><g class="lines"><path class="js-line" d="M0,295.1L4.93,302.93L9.85,292.26L14.78,286.57L19.7,289.95L24.63,314.84L29.56,313.78L34.48,284.79L39.41,281.41L44.34,281.94L49.26,292.97L54.19,291.37L59.11,284.97L64.04,282.65L68.97,278.39L73.89,285.5L78.82,275.9L83.74,277.5L88.67,275.01L93.6,278.56L98.52,269.32L103.45,276.07L108.38,272.34L113.3,277.5L118.23,279.45L123.15,277.67L128.08,276.96L133.01,267L137.93,274.65L142.86,279.99L147.79,271.45L157.64,275.18L162.56,269.85L167.49,266.65L172.42,271.63L177.34,274.83L182.27,273.58L187.19,276.96L192.12,275.01L197.05,279.1L201.97,273.76L206.9,280.52L211.83,278.74L216.75,284.61L221.68,281.94L226.6,276.61L231.53,278.21L236.46,282.3L241.38,270.38L246.31,270.38L251.23,271.98L256.16,274.65L261.09,273.94L270.94,278.74L275.87,278.03L280.79,260.42L285.72,258.47L290.64,258.64L295.57,265.23L300.5,267.89L305.42,264.34L310.35,260.6L315.28,271.98L320.2,274.47L325.13,274.3L330.05,264.69L334.98,259.53L339.91,271.27L344.83,268.96L349.76,268.07L354.68,256.87L359.61,262.02L364.54,268.6L369.46,269.85L374.39,272.87L379.32,283.72L384.24,283.19L389.17,272.34L394.09,263.45L403.95,262.56L408.87,260.25L413.8,263.8L418.72,265.94L423.65,263.45L428.58,278.03L433.5,280.52L438.43,270.2L443.36,264.16L448.28,268.43L453.21,265.76L458.13,271.27L463.06,267.89L467.99,267L472.91,260.07L477.84,267.89L482.77,269.49L487.69,268.6L492.62,268.25L497.54,276.25L502.47,274.83L507.4,274.3L512.32,271.09L517.25,269.32L527.1,274.65L532.03,275.72L536.95,267.54L541.88,257.58L546.81,270.56L551.73,267.18L561.58,261.31L566.51,258.64L571.44,261.13L576.36,265.58L581.29,276.07L586.21,269.14L591.14,271.09L596.07,265.76L600.99,269.85L605.92,266.65L610.85,264.69L615.77,265.58L620.7,267.71L625.62,264.34L630.55,261.31L635.48,260.07L640.4,257.04L645.33,263.8L650.26,257.76L655.18,260.42L660.11,263.09L665.03,262.2L669.96,275.36L674.89,265.94L679.81,271.81L684.74,260.42L689.66,260.25L694.59,255.8L699.52,252.95L704.44,262.56L709.37,269.85L714.3,272.69L719.22,275.9L724.15,271.09L729.07,272.52L734,276.43" style="vector-effect: none; fill: none; stroke: rgb(128, 128, 128); stroke-opacity: 1; stroke-width: 2px; opacity: 1;"/></g><g class="points"/><g class="text"/></g></g></g><g class="overplot"/><path class="xlines-above crisp" d="M0,0" style="fill: none;"/><path class="ylines-above crisp" d="M0,0" style="fill: none;"/><g class="overlines-above"/><g class="xaxislayer-above"><g class="xtick"><text text-anchor="middle" x="0" y="509" transform="translate(228.6,0)" style="font-family: 'Open Sans', verdana, arial, sans-serif; font-size: 12px; fill: rgb(42, 63, 95); fill-opacity: 1; white-space: pre; opacity: 1;">20</text></g><g class="xtick"><text text-anchor="middle" x="0" y="509" style="font-family: 'Open Sans', verdana, arial, sans-serif; font-size: 12px; fill: rgb(42, 63, 95); fill-opacity: 1; white-space: pre; opacity: 1;" transform="translate(327.12,0)">40</text></g><g class="xtick"><text text-anchor="middle" x="0" y="509" style="font-family: 'Open Sans', verdana, arial, sans-serif; font-size: 12px; fill: rgb(42, 63, 95); fill-opacity: 1; white-space: pre; opacity: 1;" transform="translate(425.64,0)">60</text></g><g class="xtick"><text text-anchor="middle" x="0" y="509" style="font-family: 'Open Sans', verdana, arial, sans-serif; font-size: 12px; fill: rgb(42, 63, 95); fill-opacity: 1; white-space: pre; opacity: 1;" transform="translate(524.1700000000001,0)">80</text></g><g class="xtick"><text text-anchor="middle" x="0" y="509" style="font-family: 'Open Sans', verdana, arial, sans-serif; font-size: 12px; fill: rgb(42, 63, 95); fill-opacity: 1; white-space: pre; opacity: 1;" transform="translate(622.69,0)">100</text></g><g class="xtick"><text text-anchor="middle" x="0" y="509" style="font-family: 'Open Sans', verdana, arial, sans-serif; font-size: 12px; fill: rgb(42, 63, 95); fill-opacity: 1; white-space: pre; opacity: 1;" transform="translate(721.21,0)">120</text></g><g class="xtick"><text text-anchor="middle" x="0" y="509" style="font-family: 'Open Sans', verdana, arial, sans-serif; font-size: 12px; fill: rgb(42, 63, 95); fill-opacity: 1; white-space: pre; opacity: 1;" transform="translate(819.74,0)">140</text></g></g><g class="yaxislayer-above"><g class="ytick"><text text-anchor="end" x="134" y="4.199999999999999" transform="translate(0,483.31)" style="font-family: 'Open Sans', verdana, arial, sans-serif; font-size: 12px; fill: rgb(42, 63, 95); fill-opacity: 1; white-space: pre; opacity: 1;">65</text></g><g class="ytick"><text text-anchor="end" x="134" y="4.199999999999999" style="font-family: 'Open Sans', verdana, arial, sans-serif; font-size: 12px; fill: rgb(42, 63, 95); fill-opacity: 1; white-space: pre; opacity: 1;" transform="translate(0,394.39)">70</text></g><g class="ytick"><text text-anchor="end" x="134" y="4.199999999999999" style="font-family: 'Open Sans', verdana, arial, sans-serif; font-size: 12px; fill: rgb(42, 63, 95); fill-opacity: 1; white-space: pre; opacity: 1;" transform="translate(0,305.47)">75</text></g><g class="ytick"><text text-anchor="end" x="134" y="4.199999999999999" style="font-family: 'Open Sans', verdana, arial, sans-serif; font-size: 12px; fill: rgb(42, 63, 95); fill-opacity: 1; white-space: pre; opacity: 1;" transform="translate(0,216.55)">80</text></g><g class="ytick"><text text-anchor="end" x="134" y="4.199999999999999" style="font-family: 'Open Sans', verdana, arial, sans-serif; font-size: 12px; fill: rgb(42, 63, 95); fill-opacity: 1; white-space: pre; opacity: 1;" transform="translate(0,127.63)">85</text></g></g><g class="overaxes-above"/></g></g><g class="polarlayer"/><g class="smithlayer"/><g class="ternarylayer"/><g class="geolayer"/><g class="funnelarealayer"/><g class="pielayer"/><g class="iciclelayer"/><g class="treemaplayer"/><g class="sunburstlayer"/><g class="glimages"/><defs id="topdefs-e64771"><g class="clips"/><clipPath id="legende64771"><rect width="128" height="162" x="0" y="0"/></clipPath></defs><g class="layer-above"><g class="imagelayer"/><g class="shapelayer"/></g><g class="infolayer"><g class="legend" pointer-events="all" transform="translate(883.6800000000001,100)"><rect class="bg" shape-rendering="crispEdges" width="128" height="162" x="0" y="0" style="stroke: rgb(68, 68, 68); stroke-opacity: 1; fill: rgb(255, 255, 255); fill-opacity: 1; stroke-width: 0px;"/><g class="scrollbox" transform="" clip-path="url(#legende64771)"><g class="groups"><g class="traces" transform="translate(0,14.5)" style="opacity: 1;"><text class="legendtext" text-anchor="start" x="40" y="4.680000000000001" style="font-family: 'Open Sans', verdana, arial, sans-serif; font-size: 12px; fill: rgb(42, 63, 95); fill-opacity: 1; white-space: pre;">Train Accuracy</text><g class="layers" style="opacity: 1;"><g class="legendfill"/><g class="legendlines"><path class="js-line" d="M5,0h30" style="fill: none; stroke: rgb(255, 0, 0); stroke-opacity: 1; stroke-width: 2px;"/></g><g class="legendsymbols"><g class="legendpoints"/></g></g><rect class="legendtoggle" x="0" y="-9.5" width="122.71875" height="19" style="fill: rgb(0, 0, 0); fill-opacity: 0;"/></g><g class="traces" transform="translate(0,33.5)" style="opacity: 1;"><text class="legendtext" text-anchor="start" x="40" y="4.680000000000001" style="font-family: 'Open Sans', verdana, arial, sans-serif; font-size: 12px; fill: rgb(42, 63, 95); fill-opacity: 1; white-space: pre;">Test Accuracy</text><g class="layers" style="opacity: 1;"><g class="legendfill"/><g class="legendlines"><path class="js-line" d="M5,0h30" style="fill: none; stroke: rgb(0, 0, 255); stroke-opacity: 1; stroke-width: 2px;"/></g><g class="legendsymbols"><g class="legendpoints"/></g></g><rect class="legendtoggle" x="0" y="-9.5" width="122.71875" height="19" style="fill: rgb(0, 0, 0); fill-opacity: 0;"/></g><g class="traces" transform="translate(0,52.5)" style="opacity: 1;"><text class="legendtext" text-anchor="start" x="40" y="4.680000000000001" style="font-family: 'Open Sans', verdana, arial, sans-serif; font-size: 12px; fill: rgb(42, 63, 95); fill-opacity: 1; white-space: pre;">Train Precision</text><g class="layers" style="opacity: 1;"><g class="legendfill"/><g class="legendlines"><path class="js-line" d="M5,0h30" style="fill: none; stroke: rgb(0, 128, 0); stroke-opacity: 1; stroke-width: 2px;"/></g><g class="legendsymbols"><g class="legendpoints"/></g></g><rect class="legendtoggle" x="0" y="-9.5" width="122.71875" height="19" style="fill: rgb(0, 0, 0); fill-opacity: 0;"/></g><g class="traces" transform="translate(0,71.5)" style="opacity: 1;"><text class="legendtext" text-anchor="start" x="40" y="4.680000000000001" style="font-family: 'Open Sans', verdana, arial, sans-serif; font-size: 12px; fill: rgb(42, 63, 95); fill-opacity: 1; white-space: pre;">Test Precision</text><g class="layers" style="opacity: 1;"><g class="legendfill"/><g class="legendlines"><path class="js-line" d="M5,0h30" style="fill: none; stroke: rgb(255, 165, 0); stroke-opacity: 1; stroke-width: 2px;"/></g><g class="legendsymbols"><g class="legendpoints"/></g></g><rect class="legendtoggle" x="0" y="-9.5" width="122.71875" height="19" style="fill: rgb(0, 0, 0); fill-opacity: 0;"/></g><g class="traces" transform="translate(0,90.5)" style="opacity: 1;"><text class="legendtext" text-anchor="start" x="40" y="4.680000000000001" style="font-family: 'Open Sans', verdana, arial, sans-serif; font-size: 12px; fill: rgb(42, 63, 95); fill-opacity: 1; white-space: pre;">Train Recall</text><g class="layers" style="opacity: 1;"><g class="legendfill"/><g class="legendlines"><path class="js-line" d="M5,0h30" style="fill: none; stroke: rgb(128, 0, 128); stroke-opacity: 1; stroke-width: 2px;"/></g><g class="legendsymbols"><g class="legendpoints"/></g></g><rect class="legendtoggle" x="0" y="-9.5" width="122.71875" height="19" style="fill: rgb(0, 0, 0); fill-opacity: 0;"/></g><g class="traces" transform="translate(0,109.5)" style="opacity: 1;"><text class="legendtext" text-anchor="start" x="40" y="4.680000000000001" style="font-family: 'Open Sans', verdana, arial, sans-serif; font-size: 12px; fill: rgb(42, 63, 95); fill-opacity: 1; white-space: pre;">Test Recall</text><g class="layers" style="opacity: 1;"><g class="legendfill"/><g class="legendlines"><path class="js-line" d="M5,0h30" style="fill: none; stroke: rgb(255, 192, 203); stroke-opacity: 1; stroke-width: 2px;"/></g><g class="legendsymbols"><g class="legendpoints"/></g></g><rect class="legendtoggle" x="0" y="-9.5" width="122.71875" height="19" style="fill: rgb(0, 0, 0); fill-opacity: 0;"/></g><g class="traces" transform="translate(0,128.5)" style="opacity: 1;"><text class="legendtext" text-anchor="start" x="40" y="4.680000000000001" style="font-family: 'Open Sans', verdana, arial, sans-serif; font-size: 12px; fill: rgb(42, 63, 95); fill-opacity: 1; white-space: pre;">Train F1</text><g class="layers" style="opacity: 1;"><g class="legendfill"/><g class="legendlines"><path class="js-line" d="M5,0h30" style="fill: none; stroke: rgb(165, 42, 42); stroke-opacity: 1; stroke-width: 2px;"/></g><g class="legendsymbols"><g class="legendpoints"/></g></g><rect class="legendtoggle" x="0" y="-9.5" width="122.71875" height="19" style="fill: rgb(0, 0, 0); fill-opacity: 0;"/></g><g class="traces" transform="translate(0,147.5)" style="opacity: 1;"><text class="legendtext" text-anchor="start" x="40" y="4.680000000000001" style="font-family: 'Open Sans', verdana, arial, sans-serif; font-size: 12px; fill: rgb(42, 63, 95); fill-opacity: 1; white-space: pre;">Test F1</text><g class="layers" style="opacity: 1;"><g class="legendfill"/><g class="legendlines"><path class="js-line" d="M5,0h30" style="fill: none; stroke: rgb(128, 128, 128); stroke-opacity: 1; stroke-width: 2px;"/></g><g class="legendsymbols"><g class="legendpoints"/></g></g><rect class="legendtoggle" x="0" y="-9.5" width="122.71875" height="19" style="fill: rgb(0, 0, 0); fill-opacity: 0;"/></g></g></g><rect class="scrollbar" rx="20" ry="3" width="0" height="0" x="0" y="0" style="fill: rgb(128, 139, 164); fill-opacity: 1;"/></g><g class="g-gtitle"><text class="gtitle" x="51.2" y="50" text-anchor="start" dy="0em" style="font-family: 'Open Sans', verdana, arial, sans-serif; font-size: 17px; fill: rgb(42, 63, 95); opacity: 1; font-weight: normal; white-space: pre;">Training Metrics - logs/FakeNewsNet-gossipcop_max-vocab=15000_pre=v2_domain_T=200_s=15.log</text></g><g class="g-xtitle"><text class="xtitle" x="502" y="537.3" text-anchor="middle" style="font-family: 'Open Sans', verdana, arial, sans-serif; font-size: 14px; fill: rgb(42, 63, 95); opacity: 1; font-weight: normal; white-space: pre;">Epoch</text></g><g class="g-ytitle"><text class="ytitle" transform="rotate(-90,95.965625,298)" x="95.965625" y="298" text-anchor="middle" style="font-family: 'Open Sans', verdana, arial, sans-serif; font-size: 14px; fill: rgb(42, 63, 95); opacity: 1; font-weight: normal; white-space: pre;">Metric Score</text></g></g><g class="menulayer"><g class="updatemenu-container" style="cursor: pointer;"><g class="updatemenu-header-group" transform="translate(12,60)"><g class="updatemenu-header" transform="translate(1,1)" style="pointer-events: all;"><rect class="updatemenu-item-rect" rx="2" ry="2" shape-rendering="crispEdges" x="0" y="0" width="160" height="33" style="stroke: rgb(190, 200, 217); stroke-opacity: 1; fill: rgb(255, 255, 255); fill-opacity: 1; stroke-width: 1px;"/><text class="updatemenu-item-text" text-anchor="start" data-notex="1" x="12" y="19.5" style="font-family: 'Open Sans', verdana, arial, sans-serif; font-size: 12px; fill: rgb(42, 63, 95); fill-opacity: 1; white-space: pre;">All</text></g><text class="updatemenu-header-arrow" text-anchor="end" x="156" y="19.5" style="font-family: 'Open Sans', verdana, arial, sans-serif; font-size: 12px; fill: rgb(42, 63, 95); fill-opacity: 1;">▼</text></g><g class="updatemenu-dropdown-button-group" updatemenu-active-index="-1" style="pointer-events: all;"><rect class="scrollbox-bg" opacity="0" x="0" y="0" width="0" height="0" style="pointer-events: all;"/></g></g></g></svg>