<svg class="main-svg" xmlns="http://www.w3.org/2000/svg" xmlns:xlink="http://www.w3.org/1999/xlink" width="1024" height="576" style="" viewBox="0 0 1024 576"><rect x="0" y="0" width="1024" height="576" style="fill: rgb(255, 255, 255); fill-opacity: 1;"/><defs id="defs-7b6e64"><g class="clips"><clipPath id="clip7b6e64xyplot" class="plotclip"><rect width="726" height="396"/></clipPath><clipPath class="axesclip" id="clip7b6e64x"><rect x="143" y="0" width="726" height="576"/></clipPath><clipPath class="axesclip" id="clip7b6e64y"><rect x="0" y="100" width="1024" height="396"/></clipPath><clipPath class="axesclip" id="clip7b6e64xy"><rect x="143" y="100" width="726" height="396"/></clipPath></g><g class="gradients"/><g class="patterns"/></defs><g class="bglayer"><rect class="bg" x="143" y="100" width="726" height="396" style="fill: rgb(229, 236, 246); fill-opacity: 1; stroke-width: 0;"/></g><g class="layer-below"><g class="imagelayer"/><g class="shapelayer"/></g><g class="cartesianlayer"><g class="subplot xy"><g class="layer-subplot"><g class="shapelayer"/><g class="imagelayer"/></g><g class="minor-gridlayer"><g class="x"/><g class="y"/></g><g class="gridlayer"><g class="x"><path class="xgrid crisp" transform="translate(235.57999999999998,0)" d="M0,100v396" style="stroke: rgb(255, 255, 255); stroke-opacity: 1; stroke-width: 1px;"/><path class="xgrid crisp" transform="translate(333.03,0)" d="M0,100v396" style="stroke: rgb(255, 255, 255); stroke-opacity: 1; stroke-width: 1px;"/><path class="xgrid crisp" transform="translate(430.48,0)" d="M0,100v396" style="stroke: rgb(255, 255, 255); stroke-opacity: 1; stroke-width: 1px;"/><path class="xgrid crisp" transform="translate(527.9300000000001,0)" d="M0,100v396" style="stroke: rgb(255, 255, 255); stroke-opacity: 1; stroke-width: 1px;"/><path class="xgrid crisp" transform="translate(625.38,0)" d="M0,100v396" style="stroke: rgb(255, 255, 255); stroke-opacity: 1; stroke-width: 1px;"/><path class="xgrid crisp" transform="translate(722.83,0)" d="M0,100v396" style="stroke: rgb(255, 255, 255); stroke-opacity: 1; stroke-width: 1px;"/><path class="xgrid crisp" transform="translate(820.28,0)" d="M0,100v396" style="stroke: rgb(255, 255, 255); stroke-opacity: 1; stroke-width: 1px;"/></g><g class="y"><path class="ygrid crisp" transform="translate(0,436.43)" d="M143,0h726" style="stroke: rgb(255, 255, 255); stroke-opacity: 1; stroke-width: 1px;"/><path class="ygrid crisp" transform="translate(0,372.9)" d="M143,0h726" style="stroke: rgb(255, 255, 255); stroke-opacity: 1; stroke-width: 1px;"/><path class="ygrid crisp" transform="translate(0,309.37)" d="M143,0h726" style="stroke: rgb(255, 255, 255); stroke-opacity: 1; stroke-width: 1px;"/><path class="ygrid crisp" transform="translate(0,245.84)" d="M143,0h726" style="stroke: rgb(255, 255, 255); stroke-opacity: 1; stroke-width: 1px;"/><path class="ygrid crisp" transform="translate(0,182.31)" d="M143,0h726" style="stroke: rgb(255, 255, 255); stroke-opacity: 1; stroke-width: 1px;"/><path class="ygrid crisp" transform="translate(0,118.78)" d="M143,0h726" style="stroke: rgb(255, 255, 255); stroke-opacity: 1; stroke-width: 1px;"/></g></g><g class="zerolinelayer"/><path class="xlines-below"/><path class="ylines-below"/><g class="overlines-below"/><g class="xaxislayer-below"/><g class="yaxislayer-below"/><g class="overaxes-below"/><g class="plot" transform="translate(143,100)" clip-path="url(#clip7b6e64xyplot)"><g class="scatterlayer mlayer"><g class="trace scatter trace80b529" style="stroke-miterlimit: 2; opacity: 1;"><g class="fills"/><g class="errorbars"/><g class="lines"><path class="js-line" d="M0,183.45L4.87,130.85L9.74,181.93L14.62,151.81L19.49,130.85L24.36,81.17L29.23,70.62L34.11,66.05L38.98,63L43.85,55.5L48.72,151.81L53.6,139.87L58.47,114.2L63.34,121.7L68.21,177.48L73.09,117.25L77.96,72.02L82.83,189.55L87.7,85.62L92.58,87.14L97.45,79.64L102.32,87.14L107.19,82.57L112.07,63L116.94,61.48L121.81,64.52L126.68,61.48L131.56,73.55L136.43,63L141.3,57.03L146.17,70.62L155.92,67.57L160.79,58.55L165.66,70.62L170.54,61.48L175.41,57.03L180.28,58.55L190.03,73.55L194.9,60.08L199.77,60.08L204.64,57.03L209.52,60.08L214.39,55.5L219.26,66.05L224.13,64.52L229.01,57.03L233.88,53.98L238.75,64.52L243.62,70.62L248.5,69.1L253.37,55.5L258.24,57.03L263.11,52.45L267.99,57.03L272.86,69.1L277.73,64.52L282.6,66.05L287.48,63L292.35,55.5L297.22,64.52L302.09,61.48L306.97,64.52L311.84,60.08L316.71,64.52L321.58,61.48L326.46,63L331.33,61.48L336.2,63L341.07,61.48L345.95,60.08L350.82,63L355.69,63L360.56,64.52L365.44,63L370.31,67.57L375.18,61.48L380.05,81.17L384.93,76.6L389.8,84.09L394.67,67.57L399.54,66.05L404.42,67.57L409.29,67.57L414.16,78.12L419.03,63L423.91,43.43L428.78,69.1L433.65,58.55L438.52,58.55L443.4,60.08L448.27,55.5L453.14,60.08L458.01,57.03L462.89,60.08L467.76,57.03L472.63,43.43L477.5,44.96L482.38,49.53L487.25,44.96L492.12,61.48L496.99,52.45L501.87,61.48L506.74,66.05L511.61,66.05L516.48,57.03L521.36,60.08L526.23,66.05L531.1,64.52L535.97,55.5L540.85,57.03L545.72,61.48L550.59,58.55L555.46,34.41L560.34,43.43L565.21,38.99L570.08,37.46L574.95,37.46L579.83,40.51L584.7,55.5L589.57,57.03L594.44,51.06L599.32,57.03L604.19,55.5L609.06,63L613.93,64.52L618.81,61.48L623.68,61.48L628.55,61.48L633.42,60.08L638.3,52.45L643.17,38.99L648.04,49.53L652.91,51.06L657.79,41.91L662.66,38.99L667.53,37.46L672.4,43.43L677.28,63L682.15,43.43L687.02,41.91L691.89,48.01L696.77,70.62L701.64,46.48L706.51,57.03L711.38,61.48L716.26,55.5L721.13,63L726,58.55" style="vector-effect: none; fill: none; stroke: rgb(255, 0, 0); stroke-opacity: 1; stroke-width: 2px; opacity: 1;"/></g><g class="points"/><g class="text"/></g><g class="trace scatter tracea17d20" style="stroke-miterlimit: 2; opacity: 1;"><g class="fills"/><g class="errorbars"/><g class="lines"><path class="js-line" d="M0,181.8L4.87,157.79L9.74,241.77L14.62,205.81L19.49,193.74L29.23,169.86L34.11,175.83L38.98,163.88L43.85,145.84L48.72,199.84L53.6,181.8L58.47,181.8L63.34,187.77L68.21,241.77L73.09,187.77L77.96,169.86L82.83,265.66L87.7,157.79L92.58,163.88L97.45,181.8L102.32,187.77L107.19,181.8L112.07,187.77L121.81,163.88L126.68,157.79L136.43,193.74L141.3,175.83L146.17,157.79L151.05,169.86L155.92,181.8L160.79,187.77L165.66,187.77L170.54,205.81L175.41,205.81L180.28,199.84L185.15,193.74L190.03,193.74L194.9,187.77L199.77,187.77L204.64,175.83L209.52,175.83L214.39,169.86L219.26,175.83L224.13,181.8L229.01,169.86L233.88,151.81L238.75,145.84L243.62,157.79L248.5,157.79L253.37,151.81L258.24,181.8L267.99,157.79L272.86,151.81L277.73,163.88L282.6,169.86L287.48,151.81L292.35,181.8L297.22,163.88L302.09,163.88L316.71,163.88L321.58,151.81L326.46,169.86L331.33,169.86L336.2,181.8L341.07,175.83L350.82,175.83L355.69,145.84L360.56,157.79L365.44,157.79L370.31,145.84L375.18,145.84L380.05,157.79L384.93,157.79L389.8,145.84L394.67,151.81L399.54,169.86L404.42,181.8L409.29,169.86L414.16,175.83L419.03,169.86L423.91,127.8L428.78,157.79L433.65,169.86L438.52,175.83L443.4,157.79L448.27,169.86L453.14,187.77L458.01,175.83L462.89,181.8L467.76,181.8L472.63,145.84L477.5,133.9L482.38,145.84L487.25,133.9L492.12,163.88L496.99,145.84L501.87,157.79L506.74,145.84L511.61,151.81L516.48,151.81L521.36,157.79L526.23,151.81L531.1,139.87L535.97,157.79L540.85,157.79L545.72,151.81L550.59,133.9L560.34,109.88L565.21,115.86L574.95,139.87L579.83,139.87L584.7,163.88L589.57,145.84L594.44,145.84L599.32,151.81L604.19,139.87L609.06,145.84L613.93,151.81L618.81,151.81L623.68,169.86L628.55,163.88L633.42,151.81L638.3,151.81L643.17,127.8L648.04,151.81L652.91,163.88L657.79,133.9L667.53,133.9L672.4,139.87L677.28,145.84L682.15,121.83L687.02,133.9L691.89,139.87L696.77,163.88L701.64,139.87L706.51,145.84L711.38,163.88L716.26,145.84L721.13,151.81L726,157.79" style="vector-effect: none; fill: none; stroke: rgb(0, 0, 255); stroke-opacity: 1; stroke-width: 2px; opacity: 1;"/></g><g class="points"/><g class="text"/></g><g class="trace scatter tracebd95d1" style="stroke-miterlimit: 2; opacity: 1;"><g class="fills"/><g class="errorbars"/><g class="lines"><path class="js-line" d="M0,176.21L4.87,136.82L9.74,126.4L14.62,102.52L19.49,88.16L24.36,71.13L29.23,67.96L34.11,65.67L38.98,64.52L43.85,56.77L48.72,120.68L53.6,107.09L58.47,88.03L63.34,91.84L68.21,107.47L77.96,63.51L82.83,113.82L87.7,75.96L92.58,77.1L97.45,67.57L102.32,74.82L107.19,70.62L112.07,51.31L116.94,50.17L121.81,51.56L126.68,52.58L131.56,60.71L136.43,50.42L141.3,47.63L146.17,56.77L151.05,61.22L160.79,53.09L165.66,64.52L170.54,54.74L175.41,51.18L180.28,51.06L185.15,53.47L190.03,67.45L194.9,56.14L199.77,56.77L204.64,55.5L209.52,59.06L214.39,54.23L219.26,62.24L224.13,60.97L229.01,53.72L233.88,52.45L238.75,60.97L243.62,64.52L248.5,64.02L253.37,51.31L258.24,53.22L263.11,47.75L267.99,50.55L272.86,58.93L277.73,56.39L282.6,56.77L287.48,55.88L292.35,45.72L297.22,58.43L302.09,53.34L306.97,59.06L311.84,54.23L316.71,60.46L321.58,55.38L326.46,56.65L331.33,52.58L336.2,55.25L341.07,54.74L345.95,47.5L350.82,51.31L355.69,55.25L360.56,57.03L365.44,53.72L370.31,56.27L375.18,51.82L380.05,69.48L384.93,64.52L389.8,69.1L394.67,59.32L399.54,55.88L404.42,54.61L409.29,56.27L414.16,63.89L419.03,53.72L423.91,38.6L428.78,58.17L433.65,49.53L438.52,49.53L443.4,54.23L448.27,49.4L453.14,52.84L458.01,50.55L462.89,51.44L467.76,48.39L472.63,39.88L477.5,42.29L482.38,44.07L487.25,39.11L492.12,52.58L496.99,46.99L506.74,60.33L511.61,57.54L516.48,48.39L521.36,52.84L526.23,54.36L531.1,53.98L535.97,47.24L540.85,50.55L545.72,51.82L550.59,50.29L555.46,30.85L560.34,39.88L565.21,36.83L570.08,35.05L574.95,35.05L579.83,36.95L584.7,48.64L589.57,51.18L594.44,44.58L599.32,49.91L604.19,48.01L609.06,52.07L613.93,52.45L618.81,51.82L623.68,51.06L628.55,51.06L633.42,50.68L638.3,45.72L643.17,35.05L648.04,41.91L652.91,41.53L657.79,38.1L667.53,33.27L672.4,37.97L677.28,52.07L682.15,37.33L687.02,35.43L691.89,40.76L696.77,59.32L701.64,42.92L706.51,51.18L711.38,55.38L716.26,48.64L721.13,55.88L726,52.45" style="vector-effect: none; fill: none; stroke: rgb(0, 128, 0); stroke-opacity: 1; stroke-width: 2px; opacity: 1;"/></g><g class="points"/><g class="text"/></g><g class="trace scatter tracecc0ed7" style="stroke-miterlimit: 2; opacity: 1;"><g class="fills"/><g class="errorbars"/><g class="lines"><path class="js-line" d="M0,197.17L4.87,180.4L9.74,252.06L14.62,199.97L19.49,190.95L24.36,202L29.23,192.22L34.11,200.1L38.98,188.66L43.85,168.46L48.72,172.52L53.6,156.64L58.47,161.09L63.34,160.33L68.21,186.76L73.09,165.03L77.96,171.38L82.83,200.1L87.7,162.36L92.58,160.58L97.45,169.48L102.32,169.35L107.19,176.84L112.07,173.54L116.94,169.09L121.81,149.4L126.68,156.26L131.56,165.41L136.43,181.42L141.3,165.41L146.17,152.83L151.05,168.2L155.92,173.29L165.66,187.77L170.54,204.16L175.41,200.86L180.28,196.54L185.15,188.79L190.03,192.22L194.9,187.77L199.77,184.47L204.64,175.83L209.52,175.83L214.39,171.38L219.26,172.52L224.13,173.29L229.01,164.77L233.88,148.51L238.75,140.89L248.5,149.27L253.37,145.08L258.24,169.48L263.11,161.22L267.99,145.33L272.86,141.27L277.73,153.34L282.6,161.22L287.48,145.08L292.35,165.41L297.22,160.58L302.09,160.58L306.97,157.02L311.84,157.02L316.71,160.58L321.58,145.08L326.46,157.4L331.33,164.77L336.2,173.29L341.07,169.09L345.95,165.41L350.82,165.41L355.69,137.2L360.56,145.33L365.44,141.27L370.31,133.26L375.18,133.26L380.05,145.33L384.93,141.27L389.8,129.2L394.67,133.01L399.54,153.34L404.42,161.09L409.29,153.34L414.16,152.83L419.03,149.02L423.91,124.62L428.78,145.33L438.52,161.47L443.4,152.83L448.27,161.22L453.14,173.54L458.01,165.41L462.89,169.48L467.76,161.09L472.63,137.2L477.5,135.42L482.38,144.19L487.25,128.82L492.12,153.34L496.99,140.89L501.87,149.27L506.74,137.2L511.61,137.33L516.48,145.08L521.36,149.27L526.23,137.33L531.1,129.32L535.97,145.33L540.85,145.33L545.72,137.33L550.59,125.13L555.46,120.3L560.34,108.23L565.21,112.55L570.08,124.62L574.95,136.57L579.83,136.57L584.7,153.34L589.57,137.2L599.32,137.33L604.19,129.32L613.93,137.33L618.81,137.33L623.68,149.02L628.55,145.21L633.42,137.33L638.3,137.33L643.17,121.07L648.04,137.33L652.91,145.21L657.79,125.13L667.53,125.13L672.4,129.32L677.28,133.26L682.15,116.87L687.02,125.13L691.89,129.32L696.77,145.21L701.64,129.32L706.51,137.2L711.38,149.4L716.26,137.2L721.13,141.27L726,149.27" style="vector-effect: none; fill: none; stroke: rgb(255, 165, 0); stroke-opacity: 1; stroke-width: 2px; opacity: 1;"/></g><g class="points"/><g class="text"/></g><g class="trace scatter traceca68fc" style="stroke-miterlimit: 2; opacity: 1;"><g class="fills"/><g class="errorbars"/><g class="lines"><path class="js-line" d="M0,219.79L4.87,146.6L9.74,235.93L14.62,200.1L19.49,174.43L24.36,106.33L29.23,89.68L34.11,82.82L38.98,77.74L43.85,69.73L48.72,123.86L53.6,111.03L58.47,88.03L63.34,94L68.21,135.93L73.09,88.54L77.96,54.61L82.83,146.35L87.7,67.83L92.58,69.1L97.45,60.2L102.32,67.57L107.19,63.25L112.07,43.43L116.94,42.16L121.81,44.2L126.68,43.56L131.56,53.47L136.43,42.92L141.3,38.73L146.17,49.91L151.05,52.07L155.92,48.77L160.79,43.05L165.66,54.87L170.54,45.08L175.41,41.15L180.28,41.53L185.15,45.97L190.03,57.92L194.9,45.85L199.77,46.23L204.64,44.7L209.52,48.26L214.39,43.43L219.26,51.95L224.13,50.68L229.01,43.18L233.88,41.65L238.75,50.68L243.62,54.87L248.5,54.11L253.37,40.89L258.24,42.67L263.11,37.33L267.99,40.76L272.86,50.55L277.73,47.24L282.6,48.01L287.48,46.36L292.35,36.95L297.22,48.64L302.09,44.07L306.97,49.15L311.84,44.32L316.71,50.17L321.58,45.59L326.46,46.86L331.33,43.56L336.2,45.85L341.07,45.08L345.95,39.88L350.82,43.43L360.56,47.63L365.44,44.96L370.31,48.26L375.18,43.05L380.05,61.98L384.93,57.03L389.8,63L394.67,50.29L399.54,47.5L404.42,47.24L409.29,48.26L414.16,57.41L419.03,44.96L423.91,28.06L428.78,50.04L433.65,40.51L438.52,40.51L443.4,44.32L448.27,39.37L453.14,43.31L458.01,40.76L462.89,42.29L467.76,39.24L472.63,29.08L482.38,33.78L487.25,28.82L492.12,43.56L496.99,36.83L506.74,50.42L511.61,48.52L516.48,39.24L521.36,43.31L526.23,46.48L531.1,45.72L535.97,37.97L540.85,40.76L545.72,43.05L550.59,41.02L555.46,19.8L560.34,29.08L565.21,25.64L570.08,23.87L574.95,23.87L579.83,25.9L584.7,38.86L589.57,41.15L594.44,34.54L599.32,40.26L604.19,38.48L609.06,43.94L613.93,44.7L618.81,43.05L633.42,41.78L638.3,35.81L643.17,24.12L648.04,32.25L652.91,32.51L657.79,27.3L667.53,22.34L672.4,27.55L677.28,43.94L682.15,27.04L687.02,25.26L691.89,30.98L696.77,51.44L701.64,32.12L706.51,41.15L711.38,45.59L716.26,38.86L721.13,46.36L726,42.54" style="vector-effect: none; fill: none; stroke: rgb(128, 0, 128); stroke-opacity: 1; stroke-width: 2px; opacity: 1;"/></g><g class="points"/><g class="text"/></g><g class="trace scatter trace2bc22c" style="stroke-miterlimit: 2; opacity: 1;"><g class="fills"/><g class="errorbars"/><g class="lines"><path class="js-line" d="M0,254.22L4.87,204.67L9.74,356.12L14.62,307.33L19.49,287.64L24.36,247.49L29.23,224.36L34.11,229.07L38.98,206.07L43.85,184.98L48.72,156.13L53.6,138.6L58.47,141.9L63.34,143.3L68.21,182.56L73.09,146.73L77.96,149.53L82.83,201.49L87.7,140L92.58,137.96L97.45,148.76L102.32,150.04L107.19,155.63L112.07,153.47L116.94,147.37L121.81,127.67L126.68,133.14L131.56,144.06L136.43,161.6L141.3,144.06L146.17,129.83L151.05,146.1L155.92,152.2L165.66,167.06L170.54,184.72L175.41,181.29L180.28,176.59L185.15,168.46L190.03,171.89L194.9,167.06L199.77,163.76L204.64,154.23L209.52,154.23L214.39,149.53L219.26,150.8L224.13,152.2L229.01,142.67L233.88,125L238.75,116.87L243.62,122.97L248.5,126.4L253.37,121.7L258.24,148.76L263.11,139.24L267.99,122.97L272.86,118.27L277.73,131.1L282.6,139.24L287.48,121.7L292.35,145.33L297.22,137.96L302.09,137.96L306.97,134.53L311.84,134.53L316.71,137.96L321.58,121.7L326.46,135.93L331.33,142.67L336.2,152.2L341.07,147.37L345.95,144.06L350.82,144.06L355.69,113.57L360.56,122.97L365.44,119.54L370.31,110.14L375.18,110.14L380.05,122.97L384.93,119.54L389.8,106.71L394.67,111.41L399.54,132.5L404.42,141.9L409.29,132.5L414.16,133.77L419.03,129.07L423.91,99.34L428.78,122.97L433.65,132.5L438.52,140.63L443.4,129.83L448.27,139.24L453.14,153.47L458.01,144.06L462.89,148.76L467.76,141.9L472.63,113.57L477.5,110.77L482.38,120.3L487.25,104.04L492.12,131.1L496.99,116.87L501.87,126.4L506.74,113.57L511.61,114.84L516.48,121.7L521.36,126.4L526.23,114.84L531.1,105.31L535.97,122.97L540.85,122.97L545.72,114.84L550.59,100.61L555.46,94.51L560.34,81.68L565.21,86.38L570.08,99.34L574.95,112.17L579.83,112.17L584.7,131.1L589.57,113.57L594.44,113.57L599.32,114.84L604.19,105.31L609.06,110.14L613.93,114.84L618.81,114.84L623.68,129.07L628.55,124.37L633.42,114.84L638.3,114.84L643.17,95.91L648.04,114.84L652.91,124.37L657.79,100.61L667.53,100.61L672.4,105.31L677.28,110.14L682.15,91.08L687.02,100.61L691.89,105.31L696.77,124.37L701.64,105.31L706.51,113.57L711.38,127.67L716.26,113.57L721.13,118.27L726,126.4" style="vector-effect: none; fill: none; stroke: rgb(255, 192, 203); stroke-opacity: 1; stroke-width: 2px; opacity: 1;"/></g><g class="points"/><g class="text"/></g><g class="trace scatter trace1650a3" style="stroke-miterlimit: 2; opacity: 1;"><g class="fills"/><g class="errorbars"/><g class="lines"><path class="js-line" d="M0,215.85L4.87,143.17L9.74,239.23L14.62,196.92L19.49,167.95L24.36,97.81L29.23,83.08L34.11,77.1L38.98,73.04L43.85,65.03L48.72,151.94L53.6,139.87L58.47,114.2L63.34,121.83L68.21,179.77L73.09,117.25L77.96,72.66L82.83,192.47L87.7,86.12L92.58,87.65L97.45,79.9L102.32,87.4L107.19,82.95L112.07,63.38L116.94,61.86L121.81,64.78L126.68,61.98L131.56,73.93L136.43,63.38L141.3,57.54L146.17,70.88L155.92,67.96L160.79,59.32L165.66,71.39L170.54,62.24L175.41,57.79L180.28,59.19L190.03,74.31L194.9,60.97L199.77,61.09L204.64,58.3L209.52,61.35L214.39,56.77L219.26,67.07L224.13,65.54L229.01,58.04L233.88,55.25L238.75,65.54L243.62,71.39L248.5,69.86L253.37,56.39L258.24,57.92L263.11,53.34L267.99,57.66L272.86,69.48L277.73,65.16L282.6,66.56L287.48,63.64L292.35,56.01L297.22,65.29L302.09,62.11L306.97,65.29L311.84,60.84L316.71,65.54L321.58,62.24L326.46,63.76L331.33,61.98L336.2,63.64L341.07,62.24L345.95,60.33L350.82,63.38L355.69,63.64L360.56,65.16L365.44,63.51L370.31,67.96L375.18,61.98L380.05,81.42L384.93,76.98L389.8,84.35L394.67,68.08L399.54,66.43L404.42,67.83L409.29,67.96L414.16,78.37L419.03,63.51L423.91,44.32L428.78,69.48L433.65,59.06L438.52,59.06L443.4,60.84L448.27,56.27L453.14,60.71L458.01,57.66L462.89,60.59L467.76,57.54L472.63,44.45L477.5,45.97L482.38,50.29L487.25,45.72L492.12,61.98L496.99,53.22L501.87,62.11L506.74,66.81L511.61,66.56L516.48,57.54L521.36,60.71L526.23,66.43L531.1,64.91L535.97,56.01L540.85,57.66L545.72,61.98L550.59,59.06L555.46,35.3L560.34,44.45L565.21,40L570.08,38.48L574.95,38.48L579.83,41.4L584.7,56.14L589.57,57.79L594.44,51.69L599.32,57.66L604.19,56.14L609.06,63.38L613.93,64.91L618.81,61.98L623.68,61.98L628.55,61.98L633.42,60.46L638.3,53.09L643.17,39.88L648.04,50.04L652.91,51.44L657.79,42.8L662.66,39.88L667.53,38.22L672.4,44.2L677.28,63.38L682.15,44.2L687.02,42.54L691.89,48.64L696.77,71L701.64,47.37L706.51,57.79L711.38,62.24L716.26,56.14L721.13,63.64L726,59.19" style="vector-effect: none; fill: none; stroke: rgb(165, 42, 42); stroke-opacity: 1; stroke-width: 2px; opacity: 1;"/></g><g class="points"/><g class="text"/></g><g class="trace scatter traceb18501" style="stroke-miterlimit: 2; opacity: 1;"><g class="fills"/><g class="errorbars"/><g class="lines"><path class="js-line" d="M0,245.84L4.87,196.92L9.74,376.2L14.62,311.02L19.49,285.61L24.36,238.85L29.23,215.72L34.11,221.19L38.98,199.84L43.85,178.75L48.72,201.37L53.6,183.58L58.47,184.09L63.34,189.42L68.21,241.77L73.09,189.8L77.96,176.34L82.83,265.66L87.7,165.03L92.58,168.97L97.45,185.36L102.32,190.44L107.19,186.76L112.07,191.08L116.94,180.28L121.81,166.81L126.68,163.25L136.43,197.43L141.3,179.64L146.17,162.49L151.05,175.45L155.92,185.99L160.79,192.47L165.66,194.12L170.54,212.04L175.41,211.15L180.28,205.43L185.15,198.95L190.03,199.84L194.9,194.12L199.77,193.24L204.64,181.93L209.52,181.93L214.39,176.34L219.26,181.16L224.13,185.99L229.01,174.68L233.88,156.77L238.75,150.29L243.62,161.09L248.5,161.72L253.37,156.01L258.24,185.36L267.99,161.09L272.86,155.37L277.73,167.44L282.6,173.92L287.48,156.01L292.35,184.72L297.22,168.97L302.09,168.97L306.97,168.2L311.84,168.2L316.71,168.97L321.58,156.01L326.46,173.16L331.33,174.68L336.2,185.99L341.07,180.28L350.82,179.64L355.69,149.65L360.56,161.09L365.44,160.45L370.31,149.02L375.18,149.02L380.05,161.09L384.93,160.45L389.8,148.38L394.67,154.23L399.54,172.52L404.42,184.09L409.29,172.52L414.16,177.86L419.03,172.02L423.91,132.5L428.78,161.09L433.65,172.52L438.52,178.88L443.4,162.49L448.27,173.92L453.14,191.08L458.01,179.64L462.89,185.36L467.76,184.09L472.63,149.65L477.5,139.74L482.38,151.05L487.25,138.22L492.12,167.44L496.99,150.29L501.87,161.72L506.74,149.65L511.61,154.74L516.48,156.01L521.36,161.72L526.23,154.74L531.1,143.3L535.97,161.09L540.85,161.09L545.72,154.74L550.59,137.46L560.34,114.59L565.21,120.3L574.95,144.57L579.83,144.57L584.7,167.44L589.57,149.65L594.44,149.65L599.32,154.74L604.19,143.3L609.06,149.02L613.93,154.74L618.81,154.74L623.68,172.02L628.55,166.3L633.42,154.74L638.3,154.74L643.17,131.74L648.04,154.74L652.91,166.3L657.79,137.46L667.53,137.46L672.4,143.3L677.28,149.02L682.15,126.02L687.02,137.46L691.89,143.3L696.77,166.3L701.64,143.3L706.51,149.65L711.38,166.81L716.26,149.65L721.13,155.37L726,161.72" style="vector-effect: none; fill: none; stroke: rgb(128, 128, 128); stroke-opacity: 1; stroke-width: 2px; opacity: 1;"/></g><g class="points"/><g class="text"/></g></g></g><g class="overplot"/><path class="xlines-above crisp" d="M0,0" style="fill: none;"/><path class="ylines-above crisp" d="M0,0" style="fill: none;"/><g class="overlines-above"/><g class="xaxislayer-above"><g class="xtick"><text text-anchor="middle" x="0" y="509" transform="translate(235.57999999999998,0)" style="font-family: 'Open Sans', verdana, arial, sans-serif; font-size: 12px; fill: rgb(42, 63, 95); fill-opacity: 1; white-space: pre; opacity: 1;">20</text></g><g class="xtick"><text text-anchor="middle" x="0" y="509" style="font-family: 'Open Sans', verdana, arial, sans-serif; font-size: 12px; fill: rgb(42, 63, 95); fill-opacity: 1; white-space: pre; opacity: 1;" transform="translate(333.03,0)">40</text></g><g class="xtick"><text text-anchor="middle" x="0" y="509" style="font-family: 'Open Sans', verdana, arial, sans-serif; font-size: 12px; fill: rgb(42, 63, 95); fill-opacity: 1; white-space: pre; opacity: 1;" transform="translate(430.48,0)">60</text></g><g class="xtick"><text text-anchor="middle" x="0" y="509" style="font-family: 'Open Sans', verdana, arial, sans-serif; font-size: 12px; fill: rgb(42, 63, 95); fill-opacity: 1; white-space: pre; opacity: 1;" transform="translate(527.9300000000001,0)">80</text></g><g class="xtick"><text text-anchor="middle" x="0" y="509" style="font-family: 'Open Sans', verdana, arial, sans-serif; font-size: 12px; fill: rgb(42, 63, 95); fill-opacity: 1; white-space: pre; opacity: 1;" transform="translate(625.38,0)">100</text></g><g class="xtick"><text text-anchor="middle" x="0" y="509" style="font-family: 'Open Sans', verdana, arial, sans-serif; font-size: 12px; fill: rgb(42, 63, 95); fill-opacity: 1; white-space: pre; opacity: 1;" transform="translate(722.83,0)">120</text></g><g class="xtick"><text text-anchor="middle" x="0" y="509" style="font-family: 'Open Sans', verdana, arial, sans-serif; font-size: 12px; fill: rgb(42, 63, 95); fill-opacity: 1; white-space: pre; opacity: 1;" transform="translate(820.28,0)">140</text></g></g><g class="yaxislayer-above"><g class="ytick"><text text-anchor="end" x="142" y="4.199999999999999" transform="translate(0,436.43)" style="font-family: 'Open Sans', verdana, arial, sans-serif; font-size: 12px; fill: rgb(42, 63, 95); fill-opacity: 1; white-space: pre; opacity: 1;">60</text></g><g class="ytick"><text text-anchor="end" x="142" y="4.199999999999999" style="font-family: 'Open Sans', verdana, arial, sans-serif; font-size: 12px; fill: rgb(42, 63, 95); fill-opacity: 1; white-space: pre; opacity: 1;" transform="translate(0,372.9)">65</text></g><g class="ytick"><text text-anchor="end" x="142" y="4.199999999999999" style="font-family: 'Open Sans', verdana, arial, sans-serif; font-size: 12px; fill: rgb(42, 63, 95); fill-opacity: 1; white-space: pre; opacity: 1;" transform="translate(0,309.37)">70</text></g><g class="ytick"><text text-anchor="end" x="142" y="4.199999999999999" style="font-family: 'Open Sans', verdana, arial, sans-serif; font-size: 12px; fill: rgb(42, 63, 95); fill-opacity: 1; white-space: pre; opacity: 1;" transform="translate(0,245.84)">75</text></g><g class="ytick"><text text-anchor="end" x="142" y="4.199999999999999" style="font-family: 'Open Sans', verdana, arial, sans-serif; font-size: 12px; fill: rgb(42, 63, 95); fill-opacity: 1; white-space: pre; opacity: 1;" transform="translate(0,182.31)">80</text></g><g class="ytick"><text text-anchor="end" x="142" y="4.199999999999999" style="font-family: 'Open Sans', verdana, arial, sans-serif; font-size: 12px; fill: rgb(42, 63, 95); fill-opacity: 1; white-space: pre; opacity: 1;" transform="translate(0,118.78)">85</text></g></g><g class="overaxes-above"/></g></g><g class="polarlayer"/><g class="smithlayer"/><g class="ternarylayer"/><g class="geolayer"/><g class="funnelarealayer"/><g class="pielayer"/><g class="iciclelayer"/><g class="treemaplayer"/><g class="sunburstlayer"/><g class="glimages"/><defs id="topdefs-7b6e64"><g class="clips"/><clipPath id="legend7b6e64"><rect width="128" height="162" x="0" y="0"/></clipPath></defs><g class="layer-above"><g class="imagelayer"/><g class="shapelayer"/></g><g class="infolayer"><g class="legend" pointer-events="all" transform="translate(883.52,100)"><rect class="bg" shape-rendering="crispEdges" width="128" height="162" x="0" y="0" style="stroke: rgb(68, 68, 68); stroke-opacity: 1; fill: rgb(255, 255, 255); fill-opacity: 1; stroke-width: 0px;"/><g class="scrollbox" transform="" clip-path="url(#legend7b6e64)"><g class="groups"><g class="traces" transform="translate(0,14.5)" style="opacity: 1;"><text class="legendtext" text-anchor="start" x="40" y="4.680000000000001" style="font-family: 'Open Sans', verdana, arial, sans-serif; font-size: 12px; fill: rgb(42, 63, 95); fill-opacity: 1; white-space: pre;">Train Accuracy</text><g class="layers" style="opacity: 1;"><g class="legendfill"/><g class="legendlines"><path class="js-line" d="M5,0h30" style="fill: none; stroke: rgb(255, 0, 0); stroke-opacity: 1; stroke-width: 2px;"/></g><g class="legendsymbols"><g class="legendpoints"/></g></g><rect class="legendtoggle" x="0" y="-9.5" width="122.71875" height="19" style="fill: rgb(0, 0, 0); fill-opacity: 0;"/></g><g class="traces" transform="translate(0,33.5)" style="opacity: 1;"><text class="legendtext" text-anchor="start" x="40" y="4.680000000000001" style="font-family: 'Open Sans', verdana, arial, sans-serif; font-size: 12px; fill: rgb(42, 63, 95); fill-opacity: 1; white-space: pre;">Test Accuracy</text><g class="layers" style="opacity: 1;"><g class="legendfill"/><g class="legendlines"><path class="js-line" d="M5,0h30" style="fill: none; stroke: rgb(0, 0, 255); stroke-opacity: 1; stroke-width: 2px;"/></g><g class="legendsymbols"><g class="legendpoints"/></g></g><rect class="legendtoggle" x="0" y="-9.5" width="122.71875" height="19" style="fill: rgb(0, 0, 0); fill-opacity: 0;"/></g><g class="traces" transform="translate(0,52.5)" style="opacity: 1;"><text class="legendtext" text-anchor="start" x="40" y="4.680000000000001" style="font-family: 'Open Sans', verdana, arial, sans-serif; font-size: 12px; fill: rgb(42, 63, 95); fill-opacity: 1; white-space: pre;">Train Precision</text><g class="layers" style="opacity: 1;"><g class="legendfill"/><g class="legendlines"><path class="js-line" d="M5,0h30" style="fill: none; stroke: rgb(0, 128, 0); stroke-opacity: 1; stroke-width: 2px;"/></g><g class="legendsymbols"><g class="legendpoints"/></g></g><rect class="legendtoggle" x="0" y="-9.5" width="122.71875" height="19" style="fill: rgb(0, 0, 0); fill-opacity: 0;"/></g><g class="traces" transform="translate(0,71.5)" style="opacity: 1;"><text class="legendtext" text-anchor="start" x="40" y="4.680000000000001" style="font-family: 'Open Sans', verdana, arial, sans-serif; font-size: 12px; fill: rgb(42, 63, 95); fill-opacity: 1; white-space: pre;">Test Precision</text><g class="layers" style="opacity: 1;"><g class="legendfill"/><g class="legendlines"><path class="js-line" d="M5,0h30" style="fill: none; stroke: rgb(255, 165, 0); stroke-opacity: 1; stroke-width: 2px;"/></g><g class="legendsymbols"><g class="legendpoints"/></g></g><rect class="legendtoggle" x="0" y="-9.5" width="122.71875" height="19" style="fill: rgb(0, 0, 0); fill-opacity: 0;"/></g><g class="traces" transform="translate(0,90.5)" style="opacity: 1;"><text class="legendtext" text-anchor="start" x="40" y="4.680000000000001" style="font-family: 'Open Sans', verdana, arial, sans-serif; font-size: 12px; fill: rgb(42, 63, 95); fill-opacity: 1; white-space: pre;">Train Recall</text><g class="layers" style="opacity: 1;"><g class="legendfill"/><g class="legendlines"><path class="js-line" d="M5,0h30" style="fill: none; stroke: rgb(128, 0, 128); stroke-opacity: 1; stroke-width: 2px;"/></g><g class="legendsymbols"><g class="legendpoints"/></g></g><rect class="legendtoggle" x="0" y="-9.5" width="122.71875" height="19" style="fill: rgb(0, 0, 0); fill-opacity: 0;"/></g><g class="traces" transform="translate(0,109.5)" style="opacity: 1;"><text class="legendtext" text-anchor="start" x="40" y="4.680000000000001" style="font-family: 'Open Sans', verdana, arial, sans-serif; font-size: 12px; fill: rgb(42, 63, 95); fill-opacity: 1; white-space: pre;">Test Recall</text><g class="layers" style="opacity: 1;"><g class="legendfill"/><g class="legendlines"><path class="js-line" d="M5,0h30" style="fill: none; stroke: rgb(255, 192, 203); stroke-opacity: 1; stroke-width: 2px;"/></g><g class="legendsymbols"><g class="legendpoints"/></g></g><rect class="legendtoggle" x="0" y="-9.5" width="122.71875" height="19" style="fill: rgb(0, 0, 0); fill-opacity: 0;"/></g><g class="traces" transform="translate(0,128.5)" style="opacity: 1;"><text class="legendtext" text-anchor="start" x="40" y="4.680000000000001" style="font-family: 'Open Sans', verdana, arial, sans-serif; font-size: 12px; fill: rgb(42, 63, 95); fill-opacity: 1; white-space: pre;">Train F1</text><g class="layers" style="opacity: 1;"><g class="legendfill"/><g class="legendlines"><path class="js-line" d="M5,0h30" style="fill: none; stroke: rgb(165, 42, 42); stroke-opacity: 1; stroke-width: 2px;"/></g><g class="legendsymbols"><g class="legendpoints"/></g></g><rect class="legendtoggle" x="0" y="-9.5" width="122.71875" height="19" style="fill: rgb(0, 0, 0); fill-opacity: 0;"/></g><g class="traces" transform="translate(0,147.5)" style="opacity: 1;"><text class="legendtext" text-anchor="start" x="40" y="4.680000000000001" style="font-family: 'Open Sans', verdana, arial, sans-serif; font-size: 12px; fill: rgb(42, 63, 95); fill-opacity: 1; white-space: pre;">Test F1</text><g class="layers" style="opacity: 1;"><g class="legendfill"/><g class="legendlines"><path class="js-line" d="M5,0h30" style="fill: none; stroke: rgb(128, 128, 128); stroke-opacity: 1; stroke-width: 2px;"/></g><g class="legendsymbols"><g class="legendpoints"/></g></g><rect class="legendtoggle" x="0" y="-9.5" width="122.71875" height="19" style="fill: rgb(0, 0, 0); fill-opacity: 0;"/></g></g></g><rect class="scrollbar" rx="20" ry="3" width="0" height="0" x="0" y="0" style="fill: rgb(128, 139, 164); fill-opacity: 1;"/></g><g class="g-gtitle"><text class="gtitle" x="51.2" y="50" text-anchor="start" dy="0em" style="font-family: 'Open Sans', verdana, arial, sans-serif; font-size: 17px; fill: rgb(42, 63, 95); opacity: 1; font-weight: normal; white-space: pre;">Training Metrics - logs/FakeNewsNet-politifact_max-vocab=15000_pre=v2_text_T=250_s=5.log</text></g><g class="g-xtitle"><text class="xtitle" x="506" y="537.3" text-anchor="middle" style="font-family: 'Open Sans', verdana, arial, sans-serif; font-size: 14px; fill: rgb(42, 63, 95); opacity: 1; font-weight: normal; white-space: pre;">Epoch</text></g><g class="g-ytitle"><text class="ytitle" transform="rotate(-90,103.965625,298)" x="103.965625" y="298" text-anchor="middle" style="font-family: 'Open Sans', verdana, arial, sans-serif; font-size: 14px; fill: rgb(42, 63, 95); opacity: 1; font-weight: normal; white-space: pre;">Metric Score</text></g></g><g class="menulayer"><g class="updatemenu-container" style="cursor: pointer;"><g class="updatemenu-header-group" transform="translate(12,60)"><g class="updatemenu-header" transform="translate(1,1)" style="pointer-events: all;"><rect class="updatemenu-item-rect" rx="2" ry="2" shape-rendering="crispEdges" x="0" y="0" width="167" height="33" style="stroke: rgb(190, 200, 217); stroke-opacity: 1; fill: rgb(255, 255, 255); fill-opacity: 1; stroke-width: 1px;"/><text class="updatemenu-item-text" text-anchor="start" data-notex="1" x="12" y="19.5" style="font-family: 'Open Sans', verdana, arial, sans-serif; font-size: 12px; fill: rgb(42, 63, 95); fill-opacity: 1; white-space: pre;">All</text></g><text class="updatemenu-header-arrow" text-anchor="end" x="163" y="19.5" style="font-family: 'Open Sans', verdana, arial, sans-serif; font-size: 12px; fill: rgb(42, 63, 95); fill-opacity: 1;">▼</text></g><g class="updatemenu-dropdown-button-group" updatemenu-active-index="-1" style="pointer-events: all;"><rect class="scrollbox-bg" opacity="0" x="0" y="0" width="0" height="0" style="pointer-events: all;"/></g></g></g></svg>