<svg class="main-svg" xmlns="http://www.w3.org/2000/svg" xmlns:xlink="http://www.w3.org/1999/xlink" width="1024" height="576" style="" viewBox="0 0 1024 576"><rect x="0" y="0" width="1024" height="576" style="fill: rgb(255, 255, 255); fill-opacity: 1;"/><defs id="defs-85c1e1"><g class="clips"><clipPath id="clip85c1e1xyplot" class="plotclip"><rect width="726" height="396"/></clipPath><clipPath class="axesclip" id="clip85c1e1x"><rect x="143" y="0" width="726" height="576"/></clipPath><clipPath class="axesclip" id="clip85c1e1y"><rect x="0" y="100" width="1024" height="396"/></clipPath><clipPath class="axesclip" id="clip85c1e1xy"><rect x="143" y="100" width="726" height="396"/></clipPath></g><g class="gradients"/><g class="patterns"/></defs><g class="bglayer"><rect class="bg" x="143" y="100" width="726" height="396" style="fill: rgb(229, 236, 246); fill-opacity: 1; stroke-width: 0;"/></g><g class="layer-below"><g class="imagelayer"/><g class="shapelayer"/></g><g class="cartesianlayer"><g class="subplot xy"><g class="layer-subplot"><g class="shapelayer"/><g class="imagelayer"/></g><g class="minor-gridlayer"><g class="x"/><g class="y"/></g><g class="gridlayer"><g class="x"><path class="xgrid crisp" transform="translate(235.57999999999998,0)" d="M0,100v396" style="stroke: rgb(255, 255, 255); stroke-opacity: 1; stroke-width: 1px;"/><path class="xgrid crisp" transform="translate(333.03,0)" d="M0,100v396" style="stroke: rgb(255, 255, 255); stroke-opacity: 1; stroke-width: 1px;"/><path class="xgrid crisp" transform="translate(430.48,0)" d="M0,100v396" style="stroke: rgb(255, 255, 255); stroke-opacity: 1; stroke-width: 1px;"/><path class="xgrid crisp" transform="translate(527.9300000000001,0)" d="M0,100v396" style="stroke: rgb(255, 255, 255); stroke-opacity: 1; stroke-width: 1px;"/><path class="xgrid crisp" transform="translate(625.38,0)" d="M0,100v396" style="stroke: rgb(255, 255, 255); stroke-opacity: 1; stroke-width: 1px;"/><path class="xgrid crisp" transform="translate(722.83,0)" d="M0,100v396" style="stroke: rgb(255, 255, 255); stroke-opacity: 1; stroke-width: 1px;"/><path class="xgrid crisp" transform="translate(820.28,0)" d="M0,100v396" style="stroke: rgb(255, 255, 255); stroke-opacity: 1; stroke-width: 1px;"/></g><g class="y"><path class="ygrid crisp" transform="translate(0,476.3)" d="M143,0h726" style="stroke: rgb(255, 255, 255); stroke-opacity: 1; stroke-width: 1px;"/><path class="ygrid crisp" transform="translate(0,426.2)" d="M143,0h726" style="stroke: rgb(255, 255, 255); stroke-opacity: 1; stroke-width: 1px;"/><path class="ygrid crisp" transform="translate(0,376.1)" d="M143,0h726" style="stroke: rgb(255, 255, 255); stroke-opacity: 1; stroke-width: 1px;"/><path class="ygrid crisp" transform="translate(0,326.01)" d="M143,0h726" style="stroke: rgb(255, 255, 255); stroke-opacity: 1; stroke-width: 1px;"/><path class="ygrid crisp" transform="translate(0,275.90999999999997)" d="M143,0h726" style="stroke: rgb(255, 255, 255); stroke-opacity: 1; stroke-width: 1px;"/><path class="ygrid crisp" transform="translate(0,225.81)" d="M143,0h726" style="stroke: rgb(255, 255, 255); stroke-opacity: 1; stroke-width: 1px;"/><path class="ygrid crisp" transform="translate(0,175.70999999999998)" d="M143,0h726" style="stroke: rgb(255, 255, 255); stroke-opacity: 1; stroke-width: 1px;"/><path class="ygrid crisp" transform="translate(0,125.61)" d="M143,0h726" style="stroke: rgb(255, 255, 255); stroke-opacity: 1; stroke-width: 1px;"/></g></g><g class="zerolinelayer"/><path class="xlines-below"/><path class="ylines-below"/><g class="overlines-below"/><g class="xaxislayer-below"/><g class="yaxislayer-below"/><g class="overaxes-below"/><g class="plot" transform="translate(143,100)" clip-path="url(#clip85c1e1xyplot)"><g class="scatterlayer mlayer"><g class="trace scatter trace4f0da9" style="stroke-miterlimit: 2; opacity: 1;"><g class="fills"/><g class="errorbars"/><g class="lines"><path class="js-line" d="M0,274L4.87,85.23L9.74,92.34L14.62,86.43L19.49,88.74L24.36,88.74L29.23,91.14L34.11,99.46L38.98,97.05L43.85,82.82L48.72,79.32L53.6,85.23L58.47,80.42L63.34,78.11L68.21,80.42L73.09,85.23L77.96,80.42L82.83,72.1L87.7,76.91L92.58,71L97.45,76.91L102.32,71L107.19,78.11L112.07,68.6L116.94,68.6L121.81,64.99L126.68,71L131.56,64.99L136.43,72.1L141.3,82.82L146.17,78.11L151.05,81.62L155.92,144.55L160.79,74.51L165.66,68.6L170.54,60.28L175.41,60.28L180.28,63.89L185.15,66.19L190.03,64.99L194.9,62.68L199.77,66.19L204.64,71L209.52,64.99L214.39,69.8L219.26,69.8L224.13,72.1L229.01,75.71L233.88,73.31L238.75,73.31L243.62,69.8L248.5,69.8L253.37,55.57L258.24,66.19L263.11,69.8L267.99,69.8L272.86,59.08L277.73,63.89L282.6,63.89L287.48,60.28L292.35,57.87L297.22,62.68L302.09,61.48L306.97,59.08L311.84,64.99L316.71,61.48L321.58,62.68L326.46,60.28L331.33,68.6L336.2,63.89L341.07,57.87L345.95,62.68L350.82,63.89L355.69,68.6L360.56,64.99L365.44,64.99L370.31,56.67L375.18,55.57L380.05,53.17L384.93,56.67L389.8,59.08L394.67,44.85L399.54,50.76L404.42,49.56L409.29,47.25L414.16,48.36L419.03,43.65L423.91,54.37L428.78,44.85L433.65,50.76L438.52,43.65L443.4,43.65L448.27,44.85L453.14,48.36L458.01,50.76L462.89,47.25L467.76,47.25L472.63,40.14L477.5,38.94L482.38,38.94L487.25,42.44L492.12,42.44L496.99,41.24L501.87,120.8L506.74,114.89L511.61,111.28L516.48,127.91L521.36,133.92L526.23,51.96L531.1,53.17L535.97,43.65L540.85,32.93L545.72,30.62L550.59,32.93L555.46,31.82L560.34,35.33L565.21,36.53L570.08,35.33L574.95,37.74L579.83,38.94L584.7,34.13L589.57,42.44L594.44,43.65L604.19,34.13L609.06,27.01L613.93,29.42L618.81,36.53L623.68,41.24L628.55,27.01L633.42,37.74L638.3,41.24L643.17,36.53L648.04,37.74L652.91,37.74L657.79,34.13L662.66,34.13L667.53,37.74L672.4,43.65L677.28,43.65L682.15,38.94L687.02,43.65L691.89,46.05L696.77,36.53L701.64,35.33L706.51,44.85L711.38,46.05L716.26,38.94L721.13,44.85L726,43.65" style="vector-effect: none; fill: none; stroke: rgb(255, 0, 0); stroke-opacity: 1; stroke-width: 2px; opacity: 1;"/></g><g class="points"/><g class="text"/></g><g class="trace scatter trace0fe55d" style="stroke-miterlimit: 2; opacity: 1;"><g class="fills"/><g class="errorbars"/><g class="lines"><path class="js-line" d="M0,354.56L4.87,132.42L9.74,146.65L14.62,137.13L19.49,146.65L24.36,141.84L29.23,146.65L38.98,156.07L43.85,146.65L48.72,156.07L53.6,146.65L58.47,151.36L63.34,137.13L68.21,146.65L73.09,146.65L77.96,156.07L82.83,141.84L87.7,156.07L92.58,156.07L97.45,160.78L102.32,151.36L107.19,156.07L112.07,156.07L116.94,160.78L121.81,170.2L126.68,146.65L131.56,146.65L136.43,175L141.3,141.84L146.17,146.65L151.05,137.13L155.92,269.49L160.79,160.78L165.66,179.71L170.54,160.78L175.41,170.2L180.28,156.07L185.15,156.07L190.03,151.36L194.9,160.78L199.77,156.07L204.64,151.36L209.52,156.07L214.39,165.49L219.26,137.13L238.75,137.13L243.62,127.71L248.5,132.42L253.37,165.49L258.24,137.13L263.11,137.13L267.99,141.84L272.86,127.71L277.73,132.42L282.6,127.71L287.48,137.13L292.35,141.84L311.84,141.84L316.71,156.07L321.58,160.78L326.46,160.78L331.33,170.2L336.2,170.2L341.07,156.07L345.95,184.42L350.82,184.42L355.69,175L360.56,179.71L365.44,170.2L375.18,160.78L380.05,160.78L389.8,160.78L394.67,151.36L399.54,151.36L404.42,123L409.29,156.07L414.16,156.07L419.03,151.36L423.91,132.42L428.78,146.65L433.65,146.65L438.52,151.36L443.4,160.78L458.01,160.78L462.89,151.36L467.76,156.07L472.63,165.49L477.5,156.07L482.38,160.78L487.25,141.84L492.12,127.71L496.99,127.71L501.87,255.26L511.61,255.26L516.48,260.07L521.36,264.78L526.23,160.78L531.1,170.2L535.97,175L540.85,127.71L545.72,137.13L555.46,137.13L560.34,146.65L565.21,132.42L570.08,141.84L574.95,141.84L579.83,146.65L584.7,141.84L589.57,160.78L594.44,160.78L599.32,151.36L604.19,156.07L609.06,141.84L618.81,160.78L623.68,160.78L628.55,146.65L633.42,156.07L648.04,156.07L652.91,160.78L657.79,175L662.66,160.78L667.53,156.07L672.4,160.78L677.28,160.78L682.15,165.49L687.02,160.78L691.89,160.78L696.77,146.65L701.64,127.71L706.51,123L711.38,127.71L716.26,127.71L721.13,132.42L726,127.71" style="vector-effect: none; fill: none; stroke: rgb(0, 0, 255); stroke-opacity: 1; stroke-width: 2px; opacity: 1;"/></g><g class="points"/><g class="text"/></g><g class="trace scatter trace0395c0" style="stroke-miterlimit: 2; opacity: 1;"><g class="fills"/><g class="errorbars"/><g class="lines"><path class="js-line" d="M0,170.1L4.87,90.94L9.74,99.46L14.62,93.24L19.49,95.65L24.36,94.55L29.23,97.95L34.11,105.57L38.98,102.66L43.85,89.54L48.72,86.03L53.6,90.04L58.47,85.73L63.34,82.92L68.21,83.63L73.09,87.43L77.96,83.32L82.83,75.11L87.7,79.02L92.58,73.51L97.45,79.02L102.32,72.6L107.19,79.02L112.07,68.8L116.94,68.4L121.81,64.19L126.68,70.4L131.56,65.39L136.43,69.6L141.3,88.74L146.17,82.02L151.05,85.43L155.92,121.5L160.79,72.5L165.66,64.89L170.54,58.18L175.41,58.18L180.28,60.68L185.15,61.58L190.03,61.58L194.9,60.58L199.77,63.49L204.64,67.79L209.52,61.08L214.39,66.79L219.26,75.21L224.13,77.91L229.01,80.52L233.88,78.11L238.75,78.52L243.62,75.51L248.5,75.61L253.37,52.06L258.24,72.6L263.11,76.21L267.99,76.31L272.86,64.69L277.73,69.8L282.6,69.6L287.48,65.69L292.35,63.19L297.22,67.49L302.09,66.59L306.97,64.19L311.84,70.8L316.71,60.08L321.58,61.88L326.46,58.18L331.33,63.39L341.07,55.37L345.95,59.68L350.82,60.68L355.69,63.89L360.56,61.58L365.44,62.98L370.31,56.17L375.18,54.37L380.05,52.76L384.93,54.87L389.8,57.67L394.67,44.65L399.54,50.36L404.42,53.47L409.29,46.25L414.16,47.15L419.03,42.85L423.91,60.28L428.78,42.95L433.65,48.26L438.52,42.85L443.4,43.65L448.27,44.25L453.14,46.75L458.01,48.26L462.89,44.95L467.76,44.45L472.63,39.54L477.5,38.14L482.38,38.54L487.25,47.25L492.12,47.65L496.99,46.15L501.87,94.35L506.74,91.14L511.61,89.54L516.48,100.06L521.36,104.07L526.23,50.56L531.1,50.66L535.97,43.25L540.85,38.34L545.72,31.52L550.59,34.83L555.46,33.53L560.34,37.23L565.21,37.94L570.08,36.63L579.83,40.64L584.7,36.23L589.57,43.05L594.44,44.05L609.06,27.82L613.93,29.82L618.81,36.13L623.68,40.54L628.55,28.82L633.42,38.24L638.3,42.34L643.17,37.64L648.04,39.34L652.91,38.64L657.79,34.93L662.66,35.93L667.53,37.53L672.4,42.85L677.28,42.85L682.15,38.54L691.89,43.95L696.77,39.14L701.64,39.74L706.51,49.26L711.38,49.96L716.26,42.54L721.13,48.86L726,47.15" style="vector-effect: none; fill: none; stroke: rgb(0, 128, 0); stroke-opacity: 1; stroke-width: 2px; opacity: 1;"/></g><g class="points"/><g class="text"/></g><g class="trace scatter trace805abc" style="stroke-miterlimit: 2; opacity: 1;"><g class="fills"/><g class="errorbars"/><g class="lines"><path class="js-line" d="M0,221.5L4.87,158.37L9.74,171.7L14.62,160.58L19.49,168.49L24.36,161.68L29.23,167.19L34.11,168.49L38.98,174.1L43.85,168.49L48.72,180.92L53.6,168.49L58.47,171.5L63.34,156.07L68.21,164.38L73.09,162.88L77.96,170.8L82.83,155.57L87.7,168.99L92.58,168.99L97.45,174.7L102.32,165.19L107.19,167.09L112.07,165.09L116.94,170.9L121.81,178.31L126.68,157.57L131.56,157.57L136.43,179.71L141.3,161.68L146.17,164.38L151.05,153.16L155.92,244.64L160.79,168.79L165.66,185.63L170.54,168.79L175.41,176.11L180.28,162.98L185.15,160.78L190.03,159.37L194.9,168.79L199.77,165.09L204.64,159.37L209.52,162.98L214.39,172.5L219.26,154.66L224.13,154.66L238.75,154.66L243.62,146.25L248.5,150.46L253.37,172.5L258.24,158.47L263.11,159.57L267.99,165.19L272.86,147.45L277.73,152.96L282.6,147.45L287.48,157.37L292.35,161.68L311.84,161.68L316.71,167.09L321.58,168.79L326.46,166.69L331.33,178.31L336.2,178.31L341.07,165.09L345.95,191.44L350.82,191.44L355.69,184.12L360.56,187.83L365.44,180.42L370.31,176.71L375.18,168.79L389.8,168.79L394.67,161.38L399.54,161.38L404.42,139.43L409.29,165.09L414.16,165.09L419.03,161.38L423.91,155.87L433.65,155.67L438.52,157.17L443.4,168.79L448.27,168.79L458.01,168.79L462.89,159.37L467.76,165.09L472.63,174.6L477.5,165.09L482.38,170.9L487.25,160.28L492.12,146.25L496.99,144.95L501.87,228.41L516.48,228.31L521.36,231.62L526.23,168.79L531.1,178.31L535.97,182.02L540.85,147.45L545.72,151.56L550.59,153.16L555.46,153.16L560.34,161.18L565.21,149.05L570.08,157.27L574.95,157.27L579.83,162.88L584.7,157.27L589.57,172.9L594.44,172.9L599.32,163.28L604.19,167.09L609.06,155.57L618.81,170.9L623.68,170.9L628.55,159.47L633.42,167.09L648.04,167.09L652.91,172.9L657.79,184.12L662.66,172.9L667.53,168.99L672.4,172.9L677.28,172.9L682.15,174.6L687.02,170.9L691.89,168.79L696.77,161.18L701.64,144.95L706.51,140.74L711.38,144.95L716.26,144.95L721.13,149.05L726,143.54" style="vector-effect: none; fill: none; stroke: rgb(255, 165, 0); stroke-opacity: 1; stroke-width: 2px; opacity: 1;"/></g><g class="points"/><g class="text"/></g><g class="trace scatter trace6f4d5a" style="stroke-miterlimit: 2; opacity: 1;"><g class="fills"/><g class="errorbars"/><g class="lines"><path class="js-line" d="M0,223.1L4.87,99.06L9.74,99.66L14.62,92.14L19.49,94.65L24.36,90.64L29.23,96.25L34.11,102.26L38.98,98.65L43.85,87.93L48.72,86.43L53.6,85.23L58.47,81.22L63.34,77.91L68.21,77.61L73.09,81.32L77.96,77.21L82.83,68.9L87.7,72.6L92.58,67.09L97.45,72.6L102.32,65.89L107.19,72.4L112.07,61.88L116.94,61.48L121.81,57.27L126.68,63.59L131.56,58.48L136.43,62.98L141.3,85.23L146.17,76.41L151.05,79.82L155.92,123.8L160.79,65.89L165.66,58.38L170.54,51.26L175.41,51.26L180.28,53.87L185.15,55.17L190.03,54.97L194.9,53.67L199.77,56.77L204.64,61.18L209.52,54.57L214.39,60.18L219.26,70.8L224.13,74.01L229.01,75.51L233.88,73.1L238.75,73.91L243.62,71.6L248.5,72L253.37,45.15L258.24,71.3L263.11,75.11L267.99,76.31L272.86,60.78L277.73,66.49L282.6,66.09L287.48,61.48L292.35,58.58L297.22,62.28L302.09,61.68L306.97,59.28L311.84,67.09L316.71,53.07L321.58,54.87L326.46,51.26L331.33,57.17L341.07,48.36L345.95,52.86L350.82,53.87L355.69,57.57L360.56,54.97L365.44,56.07L370.31,48.96L375.18,47.15L380.05,45.45L384.93,47.75L389.8,50.56L394.67,37.13L399.54,43.05L404.42,47.15L409.29,38.84L414.16,39.84L419.03,35.33L423.91,61.78L428.78,35.53L433.65,41.04L438.52,35.33L443.4,36.13L448.27,36.73L453.14,39.44L458.01,41.04L462.89,37.64L467.76,37.23L472.63,31.92L477.5,30.42L482.38,30.82L487.25,41.74L492.12,42.95L496.99,40.74L501.87,98.25L506.74,93.54L511.61,90.84L516.48,104.77L521.36,109.88L526.23,43.25L531.1,43.55L535.97,35.73L540.85,34.03L545.72,23.71L550.59,27.31L555.46,25.91L560.34,29.72L565.21,30.42L570.08,28.92L579.83,33.23L584.7,28.72L589.57,35.53L594.44,36.53L599.32,30.82L604.19,26.41L609.06,19.8L613.93,21.9L618.81,28.42L623.68,32.93L628.55,21L633.42,30.62L638.3,34.83L643.17,30.02L648.04,31.82L652.91,31.02L657.79,27.11L662.66,28.32L667.53,29.82L672.4,35.33L677.28,35.33L682.15,30.82L691.89,36.63L696.77,31.92L701.64,33.73L706.51,43.45L711.38,43.65L716.26,35.93L721.13,42.64L726,40.44" style="vector-effect: none; fill: none; stroke: rgb(128, 0, 128); stroke-opacity: 1; stroke-width: 2px; opacity: 1;"/></g><g class="points"/><g class="text"/></g><g class="trace scatter trace1a1853" style="stroke-miterlimit: 2; opacity: 1;"><g class="fills"/><g class="errorbars"/><g class="lines"><path class="js-line" d="M0,262.78L4.87,170.2L9.74,173.4L14.62,160.58L19.49,165.39L24.36,156.27L29.23,162.68L34.11,161.08L38.98,167.49L43.85,165.39L48.72,180.92L53.6,165.39L58.47,166.39L63.34,149.86L68.21,157.27L73.09,154.56L77.96,162.08L82.83,145.55L87.7,159.37L92.58,159.37L97.45,165.79L102.32,155.67L107.19,156.67L112.07,154.06L116.94,160.48L121.81,167.89L126.68,146.55L131.56,146.55L136.43,168.99L141.3,156.27L146.17,157.27L151.05,144.44L155.92,241.03L160.79,157.77L165.66,175.41L170.54,157.77L175.41,165.29L180.28,151.36L185.15,148.65L190.03,147.65L194.9,157.77L199.77,154.06L204.64,147.65L209.52,151.36L214.39,161.48L219.26,147.15L224.13,147.15L238.75,147.15L243.62,139.64L248.5,143.34L253.37,161.48L258.24,155.17L263.11,157.87L267.99,164.28L272.86,142.34L277.73,148.75L282.6,142.34L287.48,152.46L292.35,156.27L316.71,156.67L321.58,157.77L326.46,155.07L331.33,167.89L336.2,167.89L341.07,154.06L345.95,181.82L350.82,181.82L355.69,174.4L360.56,178.11L365.44,170.6L370.31,166.89L375.18,157.77L380.05,157.77L389.8,157.77L394.67,150.26L399.54,150.26L404.42,130.52L409.29,154.06L414.16,154.06L419.03,150.26L423.91,156.77L428.78,143.84L433.65,143.84L438.52,144.95L443.4,157.77L458.01,157.77L462.89,147.65L467.76,154.06L472.63,164.18L477.5,154.06L482.38,160.48L487.25,153.56L492.12,139.64L496.99,136.93L501.87,224.5L511.61,224.5L516.48,225.5L521.36,229.31L526.23,157.77L531.1,167.89L535.97,171.7L540.85,142.34L545.72,141.74L550.59,144.44L555.46,144.44L560.34,151.96L565.21,140.74L570.08,148.15L574.95,148.15L579.83,154.56L584.7,148.15L589.57,163.18L594.44,163.18L599.32,152.96L604.19,156.67L609.06,145.55L613.93,152.96L618.81,160.48L623.68,160.48L628.55,149.25L633.42,156.67L648.04,156.67L652.91,163.18L657.79,174.4L662.66,163.18L667.53,159.37L672.4,163.18L677.28,163.18L682.15,164.18L687.02,160.48L691.89,157.77L696.77,151.96L701.64,136.93L706.51,133.22L711.38,136.93L716.26,136.93L721.13,140.74L726,134.32" style="vector-effect: none; fill: none; stroke: rgb(255, 192, 203); stroke-opacity: 1; stroke-width: 2px; opacity: 1;"/></g><g class="points"/><g class="text"/></g><g class="trace scatter tracef58d2a" style="stroke-miterlimit: 2; opacity: 1;"><g class="fills"/><g class="errorbars"/><g class="lines"><path class="js-line" d="M0,296.34L4.87,96.35L9.74,99.56L14.62,92.74L19.49,95.15L24.36,93.34L29.23,97.25L34.11,104.47L38.98,101.56L43.85,88.84L48.72,86.23L53.6,88.94L58.47,84.43L63.34,81.72L68.21,83.22L73.09,87.63L77.96,83.02L82.83,74.71L87.7,79.22L92.58,73.41L97.45,79.22L102.32,73L107.19,80.02L112.07,70.2L116.94,70.1L121.81,66.39L126.68,72.4L131.56,66.69L136.43,73.2L141.3,87.53L146.17,81.22L151.05,84.73L155.92,144.65L160.79,75.71L165.66,69.5L170.54,61.38L175.41,61.38L180.28,64.79L185.15,66.99L190.03,65.89L194.9,63.79L199.77,67.19L204.64,71.9L209.52,65.89L214.39,70.8L229.01,79.32L233.88,76.91L238.75,77.21L243.62,74.21L248.5,74.31L253.37,56.37L258.24,72L263.11,75.71L267.99,76.31L272.86,63.39L277.73,68.5L282.6,68.4L287.48,64.39L292.35,61.78L297.22,66.19L302.09,65.19L306.97,62.78L311.84,69.5L316.71,62.68L321.58,63.99L326.46,61.38L331.33,69.3L336.2,64.69L341.07,58.98L345.95,63.59L350.82,64.79L355.69,69.3L360.56,65.89L365.44,66.19L370.31,58.08L375.18,56.77L380.05,54.57L389.8,60.28L394.67,46.25L399.54,52.16L404.42,52.36L409.29,48.46L414.16,49.66L419.03,44.95L423.91,61.08L428.78,45.95L433.65,51.76L438.52,44.95L443.4,45.05L448.27,46.15L453.14,49.56L458.01,51.76L462.89,48.26L467.76,48.16L472.63,41.34L477.5,40.14L482.38,40.24L487.25,45.75L492.12,46.15L496.99,44.65L501.87,121L506.74,114.99L511.61,111.38L516.48,128.21L521.36,134.22L526.23,53.17L531.1,54.17L540.85,36.73L545.72,32.12L550.59,34.83L555.46,33.53L560.34,37.23L565.21,38.24L570.08,37.03L574.95,39.44L579.83,40.74L584.7,36.03L589.57,44.05L594.44,45.15L604.19,35.53L609.06,28.52L613.93,30.82L618.81,37.84L623.68,42.54L628.55,28.82L633.42,39.24L638.3,42.95L643.17,38.14L648.04,39.54L652.91,39.34L657.79,35.73L662.66,35.93L667.53,39.04L672.4,44.95L677.28,44.95L682.15,40.24L687.02,44.65L691.89,47.05L696.77,38.64L701.64,38.24L706.51,47.96L711.38,48.76L716.26,41.44L721.13,47.65L726,46.15" style="vector-effect: none; fill: none; stroke: rgb(165, 42, 42); stroke-opacity: 1; stroke-width: 2px; opacity: 1;"/></g><g class="points"/><g class="text"/></g><g class="trace scatter tracec143d6" style="stroke-miterlimit: 2; opacity: 1;"><g class="fills"/><g class="errorbars"/><g class="lines"><path class="js-line" d="M0,376.2L4.87,166.49L9.74,172.6L14.62,160.58L19.49,167.19L24.36,159.77L29.23,165.49L34.11,166.69L38.98,172.4L43.85,167.19L48.72,180.92L53.6,167.19L58.47,169.69L63.34,153.96L68.21,162.48L73.09,161.08L77.96,169.59L82.83,154.16L87.7,168.29L92.58,168.29L97.45,173.8L102.32,163.98L107.19,166.99L112.07,165.89L116.94,171.3L121.81,179.91L126.68,157.27L131.56,157.27L136.43,183.12L141.3,159.77L146.17,162.48L151.05,151.16L155.92,270.49L160.79,170.2L165.66,188.53L170.54,170.2L175.41,178.81L180.28,164.78L185.15,163.78L190.03,160.48L194.9,170.2L199.77,165.89L204.64,160.48L209.52,164.78L214.39,174.5L219.26,152.56L224.13,152.56L238.75,152.56L243.62,144.04L248.5,148.35L253.37,174.5L258.24,157.07L263.11,158.77L267.99,164.68L272.86,145.55L277.73,151.26L282.6,145.55L287.48,155.57L292.35,159.77L311.84,159.77L316.71,166.99L321.58,170.2L326.46,169.09L331.33,179.91L336.2,179.91L341.07,165.89L345.95,193.94L350.82,193.94L355.69,185.33L360.56,189.63L365.44,181.12L370.31,176.81L375.18,170.2L389.8,170.2L394.67,161.58L399.54,161.58L404.42,137.03L409.29,165.89L414.16,165.89L423.91,156.37L428.78,156.17L433.65,156.17L438.52,159.47L443.4,170.2L448.27,170.2L458.01,170.2L462.89,160.48L467.76,165.89L472.63,175.61L477.5,165.89L482.38,171.3L492.12,144.04L496.99,142.64L501.87,256.06L506.74,256.06L511.61,256.06L516.48,260.37L521.36,264.98L526.23,170.2L531.1,179.91L535.97,184.22L540.85,145.55L545.72,149.86L550.59,151.16L555.46,151.16L560.34,159.77L565.21,146.95L570.08,155.47L574.95,155.47L579.83,161.08L584.7,155.47L589.57,172.5L594.44,172.5L599.32,162.78L604.19,166.99L609.06,154.16L613.93,162.78L618.81,171.3L623.68,171.3L628.55,158.47L633.42,166.99L648.04,166.99L652.91,172.5L657.79,185.33L662.66,172.5L667.53,168.29L672.4,172.5L677.28,172.5L682.15,175.61L687.02,171.3L691.89,170.2L696.77,159.77L701.64,142.64L706.51,138.33L711.38,142.64L716.26,142.64L721.13,146.95L726,141.34" style="vector-effect: none; fill: none; stroke: rgb(128, 128, 128); stroke-opacity: 1; stroke-width: 2px; opacity: 1;"/></g><g class="points"/><g class="text"/></g></g></g><g class="overplot"/><path class="xlines-above crisp" d="M0,0" style="fill: none;"/><path class="ylines-above crisp" d="M0,0" style="fill: none;"/><g class="overlines-above"/><g class="xaxislayer-above"><g class="xtick"><text text-anchor="middle" x="0" y="509" transform="translate(235.57999999999998,0)" style="font-family: 'Open Sans', verdana, arial, sans-serif; font-size: 12px; fill: rgb(42, 63, 95); fill-opacity: 1; white-space: pre; opacity: 1;">20</text></g><g class="xtick"><text text-anchor="middle" x="0" y="509" style="font-family: 'Open Sans', verdana, arial, sans-serif; font-size: 12px; fill: rgb(42, 63, 95); fill-opacity: 1; white-space: pre; opacity: 1;" transform="translate(333.03,0)">40</text></g><g class="xtick"><text text-anchor="middle" x="0" y="509" style="font-family: 'Open Sans', verdana, arial, sans-serif; font-size: 12px; fill: rgb(42, 63, 95); fill-opacity: 1; white-space: pre; opacity: 1;" transform="translate(430.48,0)">60</text></g><g class="xtick"><text text-anchor="middle" x="0" y="509" style="font-family: 'Open Sans', verdana, arial, sans-serif; font-size: 12px; fill: rgb(42, 63, 95); fill-opacity: 1; white-space: pre; opacity: 1;" transform="translate(527.9300000000001,0)">80</text></g><g class="xtick"><text text-anchor="middle" x="0" y="509" style="font-family: 'Open Sans', verdana, arial, sans-serif; font-size: 12px; fill: rgb(42, 63, 95); fill-opacity: 1; white-space: pre; opacity: 1;" transform="translate(625.38,0)">100</text></g><g class="xtick"><text text-anchor="middle" x="0" y="509" style="font-family: 'Open Sans', verdana, arial, sans-serif; font-size: 12px; fill: rgb(42, 63, 95); fill-opacity: 1; white-space: pre; opacity: 1;" transform="translate(722.83,0)">120</text></g><g class="xtick"><text text-anchor="middle" x="0" y="509" style="font-family: 'Open Sans', verdana, arial, sans-serif; font-size: 12px; fill: rgb(42, 63, 95); fill-opacity: 1; white-space: pre; opacity: 1;" transform="translate(820.28,0)">140</text></g></g><g class="yaxislayer-above"><g class="ytick"><text text-anchor="end" x="142" y="4.199999999999999" transform="translate(0,476.3)" style="font-family: 'Open Sans', verdana, arial, sans-serif; font-size: 12px; fill: rgb(42, 63, 95); fill-opacity: 1; white-space: pre; opacity: 1;">45</text></g><g class="ytick"><text text-anchor="end" x="142" y="4.199999999999999" style="font-family: 'Open Sans', verdana, arial, sans-serif; font-size: 12px; fill: rgb(42, 63, 95); fill-opacity: 1; white-space: pre; opacity: 1;" transform="translate(0,426.2)">50</text></g><g class="ytick"><text text-anchor="end" x="142" y="4.199999999999999" style="font-family: 'Open Sans', verdana, arial, sans-serif; font-size: 12px; fill: rgb(42, 63, 95); fill-opacity: 1; white-space: pre; opacity: 1;" transform="translate(0,376.1)">55</text></g><g class="ytick"><text text-anchor="end" x="142" y="4.199999999999999" style="font-family: 'Open Sans', verdana, arial, sans-serif; font-size: 12px; fill: rgb(42, 63, 95); fill-opacity: 1; white-space: pre; opacity: 1;" transform="translate(0,326.01)">60</text></g><g class="ytick"><text text-anchor="end" x="142" y="4.199999999999999" style="font-family: 'Open Sans', verdana, arial, sans-serif; font-size: 12px; fill: rgb(42, 63, 95); fill-opacity: 1; white-space: pre; opacity: 1;" transform="translate(0,275.90999999999997)">65</text></g><g class="ytick"><text text-anchor="end" x="142" y="4.199999999999999" style="font-family: 'Open Sans', verdana, arial, sans-serif; font-size: 12px; fill: rgb(42, 63, 95); fill-opacity: 1; white-space: pre; opacity: 1;" transform="translate(0,225.81)">70</text></g><g class="ytick"><text text-anchor="end" x="142" y="4.199999999999999" style="font-family: 'Open Sans', verdana, arial, sans-serif; font-size: 12px; fill: rgb(42, 63, 95); fill-opacity: 1; white-space: pre; opacity: 1;" transform="translate(0,175.70999999999998)">75</text></g><g class="ytick"><text text-anchor="end" x="142" y="4.199999999999999" style="font-family: 'Open Sans', verdana, arial, sans-serif; font-size: 12px; fill: rgb(42, 63, 95); fill-opacity: 1; white-space: pre; opacity: 1;" transform="translate(0,125.61)">80</text></g></g><g class="overaxes-above"/></g></g><g class="polarlayer"/><g class="smithlayer"/><g class="ternarylayer"/><g class="geolayer"/><g class="funnelarealayer"/><g class="pielayer"/><g class="iciclelayer"/><g class="treemaplayer"/><g class="sunburstlayer"/><g class="glimages"/><defs id="topdefs-85c1e1"><g class="clips"/><clipPath id="legend85c1e1"><rect width="128" height="162" x="0" y="0"/></clipPath></defs><g class="layer-above"><g class="imagelayer"/><g class="shapelayer"/></g><g class="infolayer"><g class="legend" pointer-events="all" transform="translate(883.52,100)"><rect class="bg" shape-rendering="crispEdges" width="128" height="162" x="0" y="0" style="stroke: rgb(68, 68, 68); stroke-opacity: 1; fill: rgb(255, 255, 255); fill-opacity: 1; stroke-width: 0px;"/><g class="scrollbox" transform="" clip-path="url(#legend85c1e1)"><g class="groups"><g class="traces" transform="translate(0,14.5)" style="opacity: 1;"><text class="legendtext" text-anchor="start" x="40" y="4.680000000000001" style="font-family: 'Open Sans', verdana, arial, sans-serif; font-size: 12px; fill: rgb(42, 63, 95); fill-opacity: 1; white-space: pre;">Train Accuracy</text><g class="layers" style="opacity: 1;"><g class="legendfill"/><g class="legendlines"><path class="js-line" d="M5,0h30" style="fill: none; stroke: rgb(255, 0, 0); stroke-opacity: 1; stroke-width: 2px;"/></g><g class="legendsymbols"><g class="legendpoints"/></g></g><rect class="legendtoggle" x="0" y="-9.5" width="122.71875" height="19" style="fill: rgb(0, 0, 0); fill-opacity: 0;"/></g><g class="traces" transform="translate(0,33.5)" style="opacity: 1;"><text class="legendtext" text-anchor="start" x="40" y="4.680000000000001" style="font-family: 'Open Sans', verdana, arial, sans-serif; font-size: 12px; fill: rgb(42, 63, 95); fill-opacity: 1; white-space: pre;">Test Accuracy</text><g class="layers" style="opacity: 1;"><g class="legendfill"/><g class="legendlines"><path class="js-line" d="M5,0h30" style="fill: none; stroke: rgb(0, 0, 255); stroke-opacity: 1; stroke-width: 2px;"/></g><g class="legendsymbols"><g class="legendpoints"/></g></g><rect class="legendtoggle" x="0" y="-9.5" width="122.71875" height="19" style="fill: rgb(0, 0, 0); fill-opacity: 0;"/></g><g class="traces" transform="translate(0,52.5)" style="opacity: 1;"><text class="legendtext" text-anchor="start" x="40" y="4.680000000000001" style="font-family: 'Open Sans', verdana, arial, sans-serif; font-size: 12px; fill: rgb(42, 63, 95); fill-opacity: 1; white-space: pre;">Train Precision</text><g class="layers" style="opacity: 1;"><g class="legendfill"/><g class="legendlines"><path class="js-line" d="M5,0h30" style="fill: none; stroke: rgb(0, 128, 0); stroke-opacity: 1; stroke-width: 2px;"/></g><g class="legendsymbols"><g class="legendpoints"/></g></g><rect class="legendtoggle" x="0" y="-9.5" width="122.71875" height="19" style="fill: rgb(0, 0, 0); fill-opacity: 0;"/></g><g class="traces" transform="translate(0,71.5)" style="opacity: 1;"><text class="legendtext" text-anchor="start" x="40" y="4.680000000000001" style="font-family: 'Open Sans', verdana, arial, sans-serif; font-size: 12px; fill: rgb(42, 63, 95); fill-opacity: 1; white-space: pre;">Test Precision</text><g class="layers" style="opacity: 1;"><g class="legendfill"/><g class="legendlines"><path class="js-line" d="M5,0h30" style="fill: none; stroke: rgb(255, 165, 0); stroke-opacity: 1; stroke-width: 2px;"/></g><g class="legendsymbols"><g class="legendpoints"/></g></g><rect class="legendtoggle" x="0" y="-9.5" width="122.71875" height="19" style="fill: rgb(0, 0, 0); fill-opacity: 0;"/></g><g class="traces" transform="translate(0,90.5)" style="opacity: 1;"><text class="legendtext" text-anchor="start" x="40" y="4.680000000000001" style="font-family: 'Open Sans', verdana, arial, sans-serif; font-size: 12px; fill: rgb(42, 63, 95); fill-opacity: 1; white-space: pre;">Train Recall</text><g class="layers" style="opacity: 1;"><g class="legendfill"/><g class="legendlines"><path class="js-line" d="M5,0h30" style="fill: none; stroke: rgb(128, 0, 128); stroke-opacity: 1; stroke-width: 2px;"/></g><g class="legendsymbols"><g class="legendpoints"/></g></g><rect class="legendtoggle" x="0" y="-9.5" width="122.71875" height="19" style="fill: rgb(0, 0, 0); fill-opacity: 0;"/></g><g class="traces" transform="translate(0,109.5)" style="opacity: 1;"><text class="legendtext" text-anchor="start" x="40" y="4.680000000000001" style="font-family: 'Open Sans', verdana, arial, sans-serif; font-size: 12px; fill: rgb(42, 63, 95); fill-opacity: 1; white-space: pre;">Test Recall</text><g class="layers" style="opacity: 1;"><g class="legendfill"/><g class="legendlines"><path class="js-line" d="M5,0h30" style="fill: none; stroke: rgb(255, 192, 203); stroke-opacity: 1; stroke-width: 2px;"/></g><g class="legendsymbols"><g class="legendpoints"/></g></g><rect class="legendtoggle" x="0" y="-9.5" width="122.71875" height="19" style="fill: rgb(0, 0, 0); fill-opacity: 0;"/></g><g class="traces" transform="translate(0,128.5)" style="opacity: 1;"><text class="legendtext" text-anchor="start" x="40" y="4.680000000000001" style="font-family: 'Open Sans', verdana, arial, sans-serif; font-size: 12px; fill: rgb(42, 63, 95); fill-opacity: 1; white-space: pre;">Train F1</text><g class="layers" style="opacity: 1;"><g class="legendfill"/><g class="legendlines"><path class="js-line" d="M5,0h30" style="fill: none; stroke: rgb(165, 42, 42); stroke-opacity: 1; stroke-width: 2px;"/></g><g class="legendsymbols"><g class="legendpoints"/></g></g><rect class="legendtoggle" x="0" y="-9.5" width="122.71875" height="19" style="fill: rgb(0, 0, 0); fill-opacity: 0;"/></g><g class="traces" transform="translate(0,147.5)" style="opacity: 1;"><text class="legendtext" text-anchor="start" x="40" y="4.680000000000001" style="font-family: 'Open Sans', verdana, arial, sans-serif; font-size: 12px; fill: rgb(42, 63, 95); fill-opacity: 1; white-space: pre;">Test F1</text><g class="layers" style="opacity: 1;"><g class="legendfill"/><g class="legendlines"><path class="js-line" d="M5,0h30" style="fill: none; stroke: rgb(128, 128, 128); stroke-opacity: 1; stroke-width: 2px;"/></g><g class="legendsymbols"><g class="legendpoints"/></g></g><rect class="legendtoggle" x="0" y="-9.5" width="122.71875" height="19" style="fill: rgb(0, 0, 0); fill-opacity: 0;"/></g></g></g><rect class="scrollbar" rx="20" ry="3" width="0" height="0" x="0" y="0" style="fill: rgb(128, 139, 164); fill-opacity: 1;"/></g><g class="g-gtitle"><text class="gtitle" x="51.2" y="50" text-anchor="start" dy="0em" style="font-family: 'Open Sans', verdana, arial, sans-serif; font-size: 17px; fill: rgb(42, 63, 95); opacity: 1; font-weight: normal; white-space: pre;">Training Metrics - logs/FakeNewsNet-politifact_max-vocab=15000_pre=v1_text_T=250_s=5.log</text></g><g class="g-xtitle"><text class="xtitle" x="506" y="537.3" text-anchor="middle" style="font-family: 'Open Sans', verdana, arial, sans-serif; font-size: 14px; fill: rgb(42, 63, 95); opacity: 1; font-weight: normal; white-space: pre;">Epoch</text></g><g class="g-ytitle"><text class="ytitle" transform="rotate(-90,103.965625,298)" x="103.965625" y="298" text-anchor="middle" style="font-family: 'Open Sans', verdana, arial, sans-serif; font-size: 14px; fill: rgb(42, 63, 95); opacity: 1; font-weight: normal; white-space: pre;">Metric Score</text></g></g><g class="menulayer"><g class="updatemenu-container" style="cursor: pointer;"><g class="updatemenu-header-group" transform="translate(12,60)"><g class="updatemenu-header" transform="translate(1,1)" style="pointer-events: all;"><rect class="updatemenu-item-rect" rx="2" ry="2" shape-rendering="crispEdges" x="0" y="0" width="167" height="33" style="stroke: rgb(190, 200, 217); stroke-opacity: 1; fill: rgb(255, 255, 255); fill-opacity: 1; stroke-width: 1px;"/><text class="updatemenu-item-text" text-anchor="start" data-notex="1" x="12" y="19.5" style="font-family: 'Open Sans', verdana, arial, sans-serif; font-size: 12px; fill: rgb(42, 63, 95); fill-opacity: 1; white-space: pre;">All</text></g><text class="updatemenu-header-arrow" text-anchor="end" x="163" y="19.5" style="font-family: 'Open Sans', verdana, arial, sans-serif; font-size: 12px; fill: rgb(42, 63, 95); fill-opacity: 1;">▼</text></g><g class="updatemenu-dropdown-button-group" updatemenu-active-index="-1" style="pointer-events: all;"><rect class="scrollbox-bg" opacity="0" x="0" y="0" width="0" height="0" style="pointer-events: all;"/></g></g></g></svg>