<svg class="main-svg" xmlns="http://www.w3.org/2000/svg" xmlns:xlink="http://www.w3.org/1999/xlink" width="1024" height="576" style="" viewBox="0 0 1024 576"><rect x="0" y="0" width="1024" height="576" style="fill: rgb(255, 255, 255); fill-opacity: 1;"/><defs id="defs-debe27"><g class="clips"><clipPath id="clipdebe27xyplot" class="plotclip"><rect width="721" height="396"/></clipPath><clipPath class="axesclip" id="clipdebe27x"><rect x="149" y="0" width="721" height="576"/></clipPath><clipPath class="axesclip" id="clipdebe27y"><rect x="0" y="100" width="1024" height="396"/></clipPath><clipPath class="axesclip" id="clipdebe27xy"><rect x="149" y="100" width="721" height="396"/></clipPath></g><g class="gradients"/><g class="patterns"/></defs><g class="bglayer"><rect class="bg" x="149" y="100" width="721" height="396" style="fill: rgb(229, 236, 246); fill-opacity: 1; stroke-width: 0;"/></g><g class="layer-below"><g class="imagelayer"/><g class="shapelayer"/></g><g class="cartesianlayer"><g class="subplot xy"><g class="layer-subplot"><g class="shapelayer"/><g class="imagelayer"/></g><g class="minor-gridlayer"><g class="x"/><g class="y"/></g><g class="gridlayer"><g class="x"><path class="xgrid crisp" transform="translate(240.94,0)" d="M0,100v396" style="stroke: rgb(255, 255, 255); stroke-opacity: 1; stroke-width: 1px;"/><path class="xgrid crisp" transform="translate(337.72,0)" d="M0,100v396" style="stroke: rgb(255, 255, 255); stroke-opacity: 1; stroke-width: 1px;"/><path class="xgrid crisp" transform="translate(434.5,0)" d="M0,100v396" style="stroke: rgb(255, 255, 255); stroke-opacity: 1; stroke-width: 1px;"/><path class="xgrid crisp" transform="translate(531.28,0)" d="M0,100v396" style="stroke: rgb(255, 255, 255); stroke-opacity: 1; stroke-width: 1px;"/><path class="xgrid crisp" transform="translate(628.05,0)" d="M0,100v396" style="stroke: rgb(255, 255, 255); stroke-opacity: 1; stroke-width: 1px;"/><path class="xgrid crisp" transform="translate(724.83,0)" d="M0,100v396" style="stroke: rgb(255, 255, 255); stroke-opacity: 1; stroke-width: 1px;"/><path class="xgrid crisp" transform="translate(821.61,0)" d="M0,100v396" style="stroke: rgb(255, 255, 255); stroke-opacity: 1; stroke-width: 1px;"/></g><g class="y"><path class="ygrid crisp" transform="translate(0,477.23)" d="M149,0h721" style="stroke: rgb(255, 255, 255); stroke-opacity: 1; stroke-width: 1px;"/><path class="ygrid crisp" transform="translate(0,416.69)" d="M149,0h721" style="stroke: rgb(255, 255, 255); stroke-opacity: 1; stroke-width: 1px;"/><path class="ygrid crisp" transform="translate(0,356.15)" d="M149,0h721" style="stroke: rgb(255, 255, 255); stroke-opacity: 1; stroke-width: 1px;"/><path class="ygrid crisp" transform="translate(0,295.61)" d="M149,0h721" style="stroke: rgb(255, 255, 255); stroke-opacity: 1; stroke-width: 1px;"/><path class="ygrid crisp" transform="translate(0,235.07)" d="M149,0h721" style="stroke: rgb(255, 255, 255); stroke-opacity: 1; stroke-width: 1px;"/><path class="ygrid crisp" transform="translate(0,174.53)" d="M149,0h721" style="stroke: rgb(255, 255, 255); stroke-opacity: 1; stroke-width: 1px;"/><path class="ygrid crisp" transform="translate(0,113.99)" d="M149,0h721" style="stroke: rgb(255, 255, 255); stroke-opacity: 1; stroke-width: 1px;"/></g></g><g class="zerolinelayer"/><path class="xlines-below"/><path class="ylines-below"/><g class="overlines-below"/><g class="xaxislayer-below"/><g class="yaxislayer-below"/><g class="overaxes-below"/><g class="plot" transform="translate(149,100)" clip-path="url(#clipdebe27xyplot)"><g class="scatterlayer mlayer"><g class="trace scatter traceeb1b44" style="stroke-miterlimit: 2; opacity: 1;"><g class="fills"/><g class="errorbars"/><g class="lines"><path class="js-line" d="M0,300.65L4.84,133.49L9.68,104.8L14.52,136.34L19.36,96.93L24.19,63.93L29.03,61.03L33.87,65.33L38.71,83.31L43.55,81.13L48.39,89L53.23,52.43L58.07,68.96L62.91,58.91L67.74,59.64L72.58,62.48L77.42,71.8L82.26,68.96L87.1,63.21L91.94,62.48L96.78,64.6L101.62,45.29L106.46,50.31L111.3,57.46L116.13,145.66L120.97,53.16L125.81,57.46L130.65,53.88L135.49,52.43L140.33,58.91L145.17,52.43L150.01,53.88L154.85,40.93L159.68,145L164.52,145.66L169.36,38.08L174.2,48.13L183.88,49.59L188.72,134.95L193.56,46.68L198.4,41.66L203.23,45.29L208.07,46.68L217.75,41.66L222.59,46.68L227.43,42.38L232.27,35.24L237.11,35.24L241.95,42.38L246.79,44.56L251.62,39.54L256.46,46.68L261.3,41.66L270.98,48.13L275.82,48.86L280.66,43.83L285.5,40.93L290.34,39.54L295.17,44.56L300.01,43.83L304.85,50.31L309.69,43.83L314.53,45.29L319.37,50.31L324.21,47.41L329.05,48.13L333.89,43.11L338.72,45.29L343.56,44.56L348.4,45.95L353.24,39.54L358.08,38.08L362.92,31.61L367.76,32.33L372.6,38.08L377.44,40.93L382.28,37.36L387.11,37.36L391.95,38.81L396.79,44.56L401.63,33.06L406.47,33.78L411.31,37.36L416.15,35.24L420.99,31.61L425.83,38.08L430.66,31.61L435.5,35.96L440.34,43.11L445.18,36.63L450.02,32.33L454.86,33.06L459.7,38.08L469.38,33.06L474.21,24.46L479.05,26.64L483.89,27.31L488.73,29.49L493.57,26.64L498.41,35.24L503.25,30.94L508.09,32.33L512.93,40.26L517.77,38.81L522.6,30.94L527.44,33.78L532.28,33.06L537.12,31.61L541.96,32.33L546.8,30.21L551.64,35.96L556.48,28.03L561.32,29.49L566.15,31.61L570.99,27.31L575.83,32.33L580.67,33.78L585.51,33.78L590.35,36.63L595.19,40.93L600.03,34.51L609.7,37.36L614.54,36.63L619.38,37.36L624.22,36.63L629.06,40.26L633.9,37.36L638.74,40.26L643.58,36.63L653.26,38.81L658.09,38.08L662.93,34.51L667.77,35.96L672.61,39.54L677.45,45.95L682.29,47.41L687.13,47.41L691.97,48.86L696.81,44.56L706.48,42.38L711.32,38.81L716.16,43.11L721,40.26" style="vector-effect: none; fill: none; stroke: rgb(255, 0, 0); stroke-opacity: 1; stroke-width: 2px; opacity: 1;"/></g><g class="points"/><g class="text"/></g><g class="trace scatter trace3ceb61" style="stroke-miterlimit: 2; opacity: 1;"><g class="fills"/><g class="errorbars"/><g class="lines"><path class="js-line" d="M0,324.68L4.84,107.64L9.68,127.62L14.52,144.75L19.36,113.4L24.19,84.82L29.03,96.2L33.87,93.36L38.71,124.78L43.55,139.06L48.39,147.66L53.23,99.11L58.07,93.36L62.91,90.51L67.74,96.2L72.58,119.09L77.42,110.49L82.26,104.8L87.1,116.24L91.94,107.64L96.78,119.09L101.62,104.8L106.46,101.95L111.3,101.95L116.13,207.6L120.97,99.11L125.81,104.8L130.65,116.24L135.49,110.49L140.33,124.78L145.17,124.78L150.01,127.62L154.85,90.51L159.68,187.62L164.52,193.31L169.36,79.07L174.2,93.36L179.04,99.11L183.88,107.64L188.72,187.62L193.56,93.36L198.4,90.51L203.23,113.4L208.07,101.95L212.91,121.93L217.75,121.93L222.59,110.49L227.43,116.24L232.27,107.64L241.95,101.95L246.79,107.64L256.46,90.51L261.3,101.95L266.14,104.8L270.98,101.95L275.82,107.64L280.66,90.51L285.5,87.67L290.34,99.11L295.17,113.4L300.01,110.49L304.85,104.8L309.69,90.51L314.53,96.2L319.37,104.8L324.21,93.36L329.05,110.49L333.89,110.49L338.72,116.24L343.56,101.95L348.4,90.51L358.08,90.51L362.92,104.8L367.76,101.95L372.6,104.8L377.44,101.95L382.28,101.95L387.11,107.64L391.95,101.95L396.79,104.8L401.63,93.36L406.47,90.51L411.31,84.82L416.15,90.51L420.99,90.51L425.83,99.11L430.66,93.36L435.5,96.2L440.34,90.51L445.18,90.51L450.02,93.36L454.86,99.11L459.7,99.11L464.54,84.82L469.38,93.36L474.21,93.36L479.05,101.95L483.89,93.36L488.73,87.67L498.41,104.8L503.25,99.11L508.09,99.11L512.93,104.8L517.77,113.4L522.6,96.2L527.44,104.8L532.28,99.11L537.12,90.51L541.96,101.95L546.8,93.36L551.64,93.36L556.48,107.64L561.32,107.64L566.15,116.24L570.99,116.24L575.83,104.8L580.67,104.8L585.51,110.49L590.35,110.49L595.19,113.4L600.03,107.64L604.87,110.49L609.7,104.8L614.54,107.64L619.38,93.36L624.22,90.51L629.06,99.11L633.9,99.11L638.74,110.49L643.58,110.49L648.42,116.24L653.26,113.4L658.09,119.09L662.93,113.4L667.77,113.4L672.61,124.78L677.45,127.62L682.29,127.62L687.13,121.93L691.97,119.09L696.81,121.93L701.64,113.4L706.48,116.24L711.32,124.78L716.16,121.93L721,121.93" style="vector-effect: none; fill: none; stroke: rgb(0, 0, 255); stroke-opacity: 1; stroke-width: 2px; opacity: 1;"/></g><g class="points"/><g class="text"/></g><g class="trace scatter trace295661" style="stroke-miterlimit: 2; opacity: 1;"><g class="fills"/><g class="errorbars"/><g class="lines"><path class="js-line" d="M0,128.29L4.84,105.28L9.68,76.16L14.52,88.57L19.36,81.97L24.19,63.27L29.03,63.99L33.87,63.81L38.71,76.04L48.39,72.89L53.23,55.4L58.07,69.93L62.91,61.57L67.74,62.66L72.58,65.39L77.42,74.71L82.26,71.68L87.1,58.55L91.94,64.78L96.78,65.39L101.62,47.59L106.46,51.58L111.3,56.85L116.13,96.75L120.97,54.79L125.81,58.18L130.65,55.88L135.49,53.28L140.33,58.55L145.17,53.82L150.01,54.91L154.85,43.05L159.68,90.93L164.52,91.24L169.36,40.14L174.2,49.16L179.04,47.71L183.88,49.59L188.72,86.39L193.56,47.35L198.4,42.44L208.07,44.86L212.91,42.26L217.75,39.96L222.59,46.68L227.43,42.14L232.27,34.51L237.11,35.24L241.95,42.14L246.79,43.11L251.62,39.05L256.46,43.23L261.3,39.66L270.98,44.68L275.82,44.86L285.5,39.42L290.34,38.26L295.17,40.2L300.01,40.38L304.85,46.98L309.69,42.56L314.53,44.02L319.37,47.95L324.21,45.71L329.05,45.65L333.89,41.41L338.72,44.02L343.56,43.11L348.4,44.56L353.24,40.2L358.08,38.51L362.92,31.3L367.76,31.85L372.6,36.21L377.44,38.14L382.28,35.36L387.11,35.36L391.95,38.45L396.79,43.41L401.63,34.21L406.47,35.18L411.31,38.14L416.15,36.57L420.99,32.94L425.83,38.51L430.66,33.36L435.5,37.24L440.34,43.83L445.18,38.2L450.02,33.91L454.86,34.51L459.7,38.51L464.54,36.45L469.38,34.03L474.21,25.73L479.05,27.97L483.89,28.46L488.73,30.52L493.57,27.43L498.41,35.24L503.25,31.97L508.09,33.18L512.93,37.3L517.77,36.15L522.6,31.12L527.44,33.78L532.28,33.42L537.12,31.73L541.96,31.61L546.8,30.76L551.64,35.36L556.48,28.28L561.32,29.24L566.15,30.52L570.99,27.19L575.83,31.85L580.67,34.03L585.51,33.06L590.35,35.12L595.19,37.48L600.03,31.85L609.7,35.06L614.54,33.48L619.38,35.06L624.22,34.51L629.06,36.21L633.9,33.72L638.74,36.21L643.58,33.18L648.42,36.21L653.26,37.36L658.09,37.11L662.93,33.91L667.77,35.06L672.61,38.51L677.45,41.23L682.29,42.68L687.13,42.32L691.97,43.71L701.64,40.14L706.48,38.93L711.32,35.48L716.16,39.11L721,36.93" style="vector-effect: none; fill: none; stroke: rgb(0, 128, 0); stroke-opacity: 1; stroke-width: 2px; opacity: 1;"/></g><g class="points"/><g class="text"/></g><g class="trace scatter traceae3ca1" style="stroke-miterlimit: 2; opacity: 1;"><g class="fills"/><g class="errorbars"/><g class="lines"><path class="js-line" d="M0,142.64L4.84,98.44L9.68,112.12L14.52,123.81L19.36,110.19L24.19,87.79L29.03,106.68L33.87,99.05L38.71,123.2L43.55,135.01L48.39,132.77L53.23,109.94L58.07,101.11L62.91,99.59L67.74,106.49L72.58,130.77L77.42,121.51L82.26,115.51L87.1,118.36L91.94,117.21L96.78,127.38L101.62,114.61L106.46,110.67L111.3,111.88L116.13,159.22L120.97,109.16L125.81,113.27L130.65,124.9L135.49,117.33L140.33,133.19L145.17,133.19L150.01,134.64L154.85,100.8L159.68,133.25L164.52,135.98L169.36,88.63L174.2,100.86L179.04,103.71L183.88,113.94L188.72,128.95L193.56,101.59L198.4,98.32L203.23,117.45L208.07,106.01L212.91,122.66L217.75,121.14L222.59,113.94L227.43,118.36L232.27,112.85L241.95,108.19L246.79,113.94L251.62,103.71L256.46,95.66L261.3,104.74L266.14,106.92L270.98,103.41L275.82,107.64L280.66,95.66L285.5,93.3L290.34,103.71L295.17,111.82L304.85,106.92L309.69,96.63L319.37,108.25L324.21,97.96L329.05,109.76L333.89,109.76L338.72,115.45L343.56,103.41L348.4,94.51L353.24,98.32L358.08,98.32L362.92,109.46L367.76,107.1L372.6,106.92L377.44,103.41L382.28,106.01L387.11,111.7L391.95,107.1L396.79,110.55L401.63,102.26L406.47,100.08L411.31,94.14L416.15,100.08L420.99,100.38L425.83,107.4L430.66,102.8L435.5,105.46L440.34,98.32L450.02,100.86L454.86,108.13L459.7,107.4L464.54,93.17L469.38,101.59L474.21,102.26L479.05,109.94L483.89,100.02L488.73,95.78L493.57,102.38L498.41,109.46L503.25,105.77L508.09,104.8L512.93,102.44L517.77,116.18L522.6,103.35L527.44,111.52L532.28,105.77L537.12,97.53L541.96,107.1L546.8,100.86L551.64,99.05L556.48,113.94L561.32,114.91L566.15,120.9L570.99,122.05L575.83,109.46L580.67,109.46L585.51,113.94L590.35,115.15L595.19,114.85L600.03,109.1L604.87,109.76L609.7,104.01L614.54,107.64L619.38,96.81L624.22,91.96L629.06,98.32L633.9,99.83L638.74,109.76L643.58,109.76L648.42,118.36L653.26,114.85L658.09,121.93L662.93,120.66L667.77,120.66L672.61,130.1L677.45,128.41L682.29,125.26L687.13,119.57L691.97,117.51L696.81,122.66L701.64,116.18L706.48,116.97L711.32,126.23L716.16,121.14L721,121.14" style="vector-effect: none; fill: none; stroke: rgb(255, 165, 0); stroke-opacity: 1; stroke-width: 2px; opacity: 1;"/></g><g class="points"/><g class="text"/></g><g class="trace scatter trace052196" style="stroke-miterlimit: 2; opacity: 1;"><g class="fills"/><g class="errorbars"/><g class="lines"><path class="js-line" d="M0,252.46L4.84,161.4L9.68,128.65L14.52,168.18L19.36,115.94L24.19,72.11L29.03,63.69L33.87,58.85L38.71,73.32L43.55,71.5L48.39,74.95L53.23,53.64L58.07,75.92L62.91,62.06L67.74,61.27L72.58,62.06L77.42,71.26L82.26,68.11L87.1,54.37L91.94,60.42L96.78,60.36L101.62,42.99L106.46,46.32L111.3,51.58L116.13,121.63L120.97,49.77L125.81,52.98L130.65,51.1L135.49,47.95L140.33,53.28L145.17,48.68L150.01,49.65L154.85,38.08L159.68,119.81L164.52,120.42L169.36,35.12L174.2,43.77L179.04,42.26L183.88,44.08L188.72,111.16L193.56,41.84L198.4,36.81L203.23,38.2L208.07,39.48L212.91,36.75L217.75,34.39L222.59,41.11L227.43,36.45L232.27,28.64L237.11,29.3L241.95,36.45L246.79,37.6L251.62,33.3L256.46,38.26L261.3,34.21L270.98,39.72L275.82,40.14L285.5,33.78L290.34,32.57L295.17,35.48L300.01,35.3L304.85,42.08L309.69,36.99L314.53,38.45L319.37,42.81L324.21,40.32L329.05,40.44L333.89,35.9L338.72,38.45L343.56,37.6L348.4,39.05L353.24,34.45L358.08,32.76L362.92,25.31L367.76,25.91L372.6,30.64L377.44,32.88L382.28,29.79L387.11,29.79L391.95,32.63L396.79,37.84L401.63,28.4L406.47,29.55L411.31,32.39L416.15,31L420.99,27.19L425.83,32.76L430.66,27.91L435.5,31.61L440.34,38.26L445.18,32.7L450.02,28.28L454.86,28.88L459.7,32.76L464.54,30.76L469.38,28.22L474.21,19.8L479.05,22.16L483.89,22.52L488.73,24.64L493.57,21.43L498.41,29.3L503.25,26.1L508.09,27.31L512.93,31.97L517.77,30.76L522.6,25.13L527.44,27.85L532.28,27.49L537.12,25.79L541.96,25.67L546.8,24.76L551.64,29.49L556.48,22.22L561.32,23.19L566.15,24.58L570.99,21.13L575.83,25.91L580.67,28.09L585.51,27.13L590.35,29.37L595.19,32.39L600.03,26.34L609.7,29.55L614.54,28.22L619.38,29.55L624.22,28.88L629.06,31.3L633.9,28.58L638.74,31.3L643.58,27.97L648.42,30.64L653.26,31.73L658.09,31.3L662.93,27.97L667.77,29.24L672.61,32.82L677.45,36.69L682.29,38.14L687.13,37.96L691.97,39.42L696.81,36.39L701.64,34.94L706.48,33.85L711.32,30.27L716.16,34.21L721,31.73" style="vector-effect: none; fill: none; stroke: rgb(128, 0, 128); stroke-opacity: 1; stroke-width: 2px; opacity: 1;"/></g><g class="points"/><g class="text"/></g><g class="trace scatter trace21e2df" style="stroke-miterlimit: 2; opacity: 1;"><g class="fills"/><g class="errorbars"/><g class="lines"><path class="js-line" d="M0,247.13L4.84,148.39L9.68,178.84L14.52,205.36L19.36,152.93L24.19,109.28L29.03,103.71L33.87,88.45L38.71,113.33L43.55,126.23L48.39,126.53L53.23,109.22L58.07,114.42L62.91,107.28L67.74,111.82L72.58,128.23L77.42,118.24L82.26,112.12L87.1,108.13L91.94,111.09L96.78,120.18L101.62,108.85L106.46,103.35L111.3,106.61L116.13,169.09L120.97,104.31L125.81,105.59L130.65,117.88L135.49,108.49L140.33,126.29L145.17,126.29L150.01,126.9L154.85,99.17L159.68,146.81L164.52,151.29L169.36,85.3L174.2,91.72L179.04,92.99L183.88,104.62L188.72,145.18L193.56,93.36L198.4,89.42L203.23,107.52L208.07,95.23L212.91,112.67L217.75,111.03L222.59,103.65L227.43,108.13L232.27,102.98L241.95,98.5L246.79,104.62L251.62,92.99L256.46,84.58L261.3,93.6L266.14,95.9L270.98,92.02L275.82,96.5L280.66,84.58L285.5,82.34L290.34,92.99L295.17,101.04L304.85,95.9L309.69,86.21L319.37,97.47L324.21,86.82L329.05,98.74L333.89,98.74L338.72,104.92L343.56,92.02L348.4,82.94L353.24,89.42L358.08,89.42L362.92,99.11L367.76,96.87L372.6,95.9L377.44,92.02L382.28,95.23L387.11,101.41L391.95,96.87L396.79,100.74L401.63,94.93L406.47,94.32L411.31,88.15L416.15,94.32L420.99,95.96L425.83,99.47L430.66,96.56L435.5,98.8L440.34,89.42L445.18,92.69L450.02,91.72L454.86,101.11L459.7,99.47L464.54,84.94L469.38,93.36L474.21,94.93L479.05,101.71L483.89,90.09L488.73,87.18L493.57,92.33L498.41,99.11L503.25,96.2L508.09,94.63L512.93,91L517.77,105.89L522.6,93.96L527.44,102.38L532.28,96.2L537.12,87.85L541.96,96.87L546.8,91.72L551.64,88.45L556.48,104.62L561.32,106.25L566.15,111.4L570.99,113.03L575.83,99.11L580.67,99.11L585.51,103.65L590.35,105.28L595.19,104.25L600.03,98.14L604.87,98.74L609.7,92.63L614.54,96.5L619.38,85.24L624.22,79.73L629.06,86.52L633.9,88.09L638.74,98.74L643.58,98.74L648.42,108.13L653.26,104.25L658.09,112.06L662.93,112.37L667.77,112.37L672.61,121.45L682.29,115.57L687.13,109.46L691.97,107.16L696.81,112.67L701.64,105.89L706.48,106.55L711.32,116.54L716.16,111.03L721,111.03" style="vector-effect: none; fill: none; stroke: rgb(255, 192, 203); stroke-opacity: 1; stroke-width: 2px; opacity: 1;"/></g><g class="points"/><g class="text"/></g><g class="trace scatter trace217061" style="stroke-miterlimit: 2; opacity: 1;"><g class="fills"/><g class="errorbars"/><g class="lines"><path class="js-line" d="M0,371.72L4.84,166.19L9.68,127.2L14.52,177.87L19.36,112.49L24.19,69.2L29.03,63.81L33.87,65.87L38.71,83.37L43.55,81.25L48.39,89.06L53.23,54.61L58.07,73.74L62.91,61.81L67.74,62.06L72.58,64.3L77.42,73.68L82.26,70.65L87.1,63.39L91.94,63.87L96.78,65.51L101.62,46.44L106.46,51.16L111.3,58.06L116.13,148.99L120.97,54.19L125.81,58.3L130.65,55.03L135.49,53.22L140.33,59.51L145.17,53.4L150.01,54.73L154.85,42.02L159.68,148.87L164.52,149.66L169.36,39.11L174.2,48.92L183.88,50.19L188.72,137.79L193.56,47.41L198.4,42.38L203.23,45.65L208.07,47.1L217.75,42.08L222.59,47.29L227.43,42.93L232.27,35.66L237.11,35.78L241.95,42.93L246.79,44.98L251.62,40.02L256.46,46.92L261.3,42.02L270.98,48.37L275.82,49.1L280.66,44.2L285.5,41.35L290.34,39.96L295.17,44.74L300.01,44.08L304.85,50.55L309.69,44.26L314.53,45.71L319.37,50.61L324.21,47.83L329.05,48.44L333.89,43.47L338.72,45.71L343.56,44.98L348.4,46.38L353.24,40.2L358.08,38.69L362.92,32.09L367.76,32.82L372.6,38.45L377.44,41.23L382.28,37.72L387.11,37.72L391.95,39.29L396.79,44.98L401.63,33.78L406.47,34.57L411.31,38.02L416.15,36.02L420.99,32.33L425.83,38.69L430.66,32.45L435.5,36.69L440.34,43.83L445.18,37.48L450.02,33.12L454.86,33.85L459.7,38.69L469.38,33.72L474.21,25.13L479.05,27.31L483.89,27.97L488.73,30.15L493.57,27.19L498.41,35.78L503.25,31.61L508.09,33L512.93,40.5L517.77,39.11L522.6,31.42L527.44,34.33L532.28,33.66L537.12,32.15L541.96,32.76L546.8,30.76L551.64,36.39L556.48,28.58L561.32,29.97L566.15,32.03L570.99,27.79L575.83,32.82L580.67,34.33L585.51,34.21L590.35,36.99L595.19,41.17L600.03,34.75L609.7,37.66L614.54,36.93L619.38,37.66L624.22,36.99L629.06,40.44L633.9,37.6L638.74,40.44L643.58,36.87L648.42,38.45L653.26,39.17L658.09,38.51L662.93,34.94L667.77,36.39L672.61,39.96L677.45,46.13L682.29,47.59L687.13,47.59L691.97,49.04L696.81,44.8L701.64,43.41L706.48,42.62L711.32,39.05L716.16,43.35L721,40.5" style="vector-effect: none; fill: none; stroke: rgb(165, 42, 42); stroke-opacity: 1; stroke-width: 2px; opacity: 1;"/></g><g class="points"/><g class="text"/></g><g class="trace scatter trace6647e0" style="stroke-miterlimit: 2; opacity: 1;"><g class="fills"/><g class="errorbars"/><g class="lines"><path class="js-line" d="M0,376.2L4.84,143.42L9.68,181.44L14.52,220.73L19.36,148.51L24.19,103.04L29.03,105.34L33.87,97.78L38.71,127.38L43.55,141.3L48.39,148.27L53.23,109.58L58.07,109.94L62.91,104.25L67.74,109.58L72.58,129.68L77.42,120.18L82.26,114.12L87.1,119.75L91.94,115.27L96.78,125.87L101.62,112.61L106.46,108.61L111.3,109.94L116.13,208.87L120.97,107.28L125.81,111.28L130.65,123.2L135.49,116L140.33,131.8L145.17,131.8L150.01,133.74L154.85,100.02L159.68,188.95L164.52,195.06L169.36,87.12L174.2,98.8L179.04,103.16L183.88,112.79L188.72,189.31L193.56,99.35L198.4,96.14L203.23,117.57L208.07,105.89L212.91,125.14L217.75,124.72L222.59,114.42L227.43,119.75L232.27,112.24L241.95,106.86L246.79,112.79L256.46,94.57L261.3,105.4L266.14,108.13L270.98,104.98L275.82,110.37L280.66,94.57L285.5,91.9L290.34,103.16L295.17,115.82L300.01,113.09L304.85,108.13L309.69,95.05L314.53,100.98L319.37,108.55L324.21,97.29L329.05,113.09L333.89,113.09L338.72,118.9L343.56,104.98L348.4,94.14L353.24,96.14L358.08,96.14L362.92,109.04L367.76,106.37L372.6,108.13L377.44,104.98L382.28,105.89L387.11,111.7L391.95,106.37L396.79,109.58L401.63,99.96L406.47,97.9L411.31,91.9L416.15,97.9L420.99,98.62L425.83,105.34L430.66,100.62L435.5,103.28L440.34,96.14L445.18,97.29L450.02,98.8L454.86,105.95L459.7,105.34L464.54,90.69L469.38,99.35L474.21,99.96L479.05,108.01L483.89,98.26L488.73,93.42L493.57,100.98L498.41,109.04L503.25,104.19L508.09,103.65L512.93,106.92L517.77,117.09L522.6,101.53L527.44,110.13L532.28,104.19L537.12,95.6L541.96,106.37L546.8,98.8L551.64,97.78L556.48,112.79L561.32,113.33L566.15,120.78L570.99,121.33L575.83,109.04L580.67,109.04L585.51,114.42L590.35,114.91L595.19,116.6L600.03,110.79L604.87,113.09L609.7,107.28L614.54,110.37L619.38,96.87L624.22,93.3L629.06,101.47L633.9,101.89L638.74,113.09L643.58,113.09L648.42,119.75L653.26,116.6L658.09,122.96L662.93,119.27L667.77,119.27L672.61,129.86L677.45,130.95L682.29,130.1L687.13,124.29L691.97,121.63L696.81,125.14L701.64,117.09L706.48,119.33L711.32,128.29L716.16,124.72L721,124.72" style="vector-effect: none; fill: none; stroke: rgb(128, 128, 128); stroke-opacity: 1; stroke-width: 2px; opacity: 1;"/></g><g class="points"/><g class="text"/></g></g></g><g class="overplot"/><path class="xlines-above crisp" d="M0,0" style="fill: none;"/><path class="ylines-above crisp" d="M0,0" style="fill: none;"/><g class="overlines-above"/><g class="xaxislayer-above"><g class="xtick"><text text-anchor="middle" x="0" y="509" transform="translate(240.94,0)" style="font-family: 'Open Sans', verdana, arial, sans-serif; font-size: 12px; fill: rgb(42, 63, 95); fill-opacity: 1; white-space: pre; opacity: 1;">20</text></g><g class="xtick"><text text-anchor="middle" x="0" y="509" style="font-family: 'Open Sans', verdana, arial, sans-serif; font-size: 12px; fill: rgb(42, 63, 95); fill-opacity: 1; white-space: pre; opacity: 1;" transform="translate(337.72,0)">40</text></g><g class="xtick"><text text-anchor="middle" x="0" y="509" style="font-family: 'Open Sans', verdana, arial, sans-serif; font-size: 12px; fill: rgb(42, 63, 95); fill-opacity: 1; white-space: pre; opacity: 1;" transform="translate(434.5,0)">60</text></g><g class="xtick"><text text-anchor="middle" x="0" y="509" style="font-family: 'Open Sans', verdana, arial, sans-serif; font-size: 12px; fill: rgb(42, 63, 95); fill-opacity: 1; white-space: pre; opacity: 1;" transform="translate(531.28,0)">80</text></g><g class="xtick"><text text-anchor="middle" x="0" y="509" style="font-family: 'Open Sans', verdana, arial, sans-serif; font-size: 12px; fill: rgb(42, 63, 95); fill-opacity: 1; white-space: pre; opacity: 1;" transform="translate(628.05,0)">100</text></g><g class="xtick"><text text-anchor="middle" x="0" y="509" style="font-family: 'Open Sans', verdana, arial, sans-serif; font-size: 12px; fill: rgb(42, 63, 95); fill-opacity: 1; white-space: pre; opacity: 1;" transform="translate(724.83,0)">120</text></g><g class="xtick"><text text-anchor="middle" x="0" y="509" style="font-family: 'Open Sans', verdana, arial, sans-serif; font-size: 12px; fill: rgb(42, 63, 95); fill-opacity: 1; white-space: pre; opacity: 1;" transform="translate(821.61,0)">140</text></g></g><g class="yaxislayer-above"><g class="ytick"><text text-anchor="end" x="148" y="4.199999999999999" transform="translate(0,477.23)" style="font-family: 'Open Sans', verdana, arial, sans-serif; font-size: 12px; fill: rgb(42, 63, 95); fill-opacity: 1; white-space: pre; opacity: 1;">30</text></g><g class="ytick"><text text-anchor="end" x="148" y="4.199999999999999" style="font-family: 'Open Sans', verdana, arial, sans-serif; font-size: 12px; fill: rgb(42, 63, 95); fill-opacity: 1; white-space: pre; opacity: 1;" transform="translate(0,416.69)">40</text></g><g class="ytick"><text text-anchor="end" x="148" y="4.199999999999999" style="font-family: 'Open Sans', verdana, arial, sans-serif; font-size: 12px; fill: rgb(42, 63, 95); fill-opacity: 1; white-space: pre; opacity: 1;" transform="translate(0,356.15)">50</text></g><g class="ytick"><text text-anchor="end" x="148" y="4.199999999999999" style="font-family: 'Open Sans', verdana, arial, sans-serif; font-size: 12px; fill: rgb(42, 63, 95); fill-opacity: 1; white-space: pre; opacity: 1;" transform="translate(0,295.61)">60</text></g><g class="ytick"><text text-anchor="end" x="148" y="4.199999999999999" style="font-family: 'Open Sans', verdana, arial, sans-serif; font-size: 12px; fill: rgb(42, 63, 95); fill-opacity: 1; white-space: pre; opacity: 1;" transform="translate(0,235.07)">70</text></g><g class="ytick"><text text-anchor="end" x="148" y="4.199999999999999" style="font-family: 'Open Sans', verdana, arial, sans-serif; font-size: 12px; fill: rgb(42, 63, 95); fill-opacity: 1; white-space: pre; opacity: 1;" transform="translate(0,174.53)">80</text></g><g class="ytick"><text text-anchor="end" x="148" y="4.199999999999999" style="font-family: 'Open Sans', verdana, arial, sans-serif; font-size: 12px; fill: rgb(42, 63, 95); fill-opacity: 1; white-space: pre; opacity: 1;" transform="translate(0,113.99)">90</text></g></g><g class="overaxes-above"/></g></g><g class="polarlayer"/><g class="smithlayer"/><g class="ternarylayer"/><g class="geolayer"/><g class="funnelarealayer"/><g class="pielayer"/><g class="iciclelayer"/><g class="treemaplayer"/><g class="sunburstlayer"/><g class="glimages"/><defs id="topdefs-debe27"><g class="clips"/><clipPath id="legenddebe27"><rect width="128" height="162" x="0" y="0"/></clipPath></defs><g class="layer-above"><g class="imagelayer"/><g class="shapelayer"/></g><g class="infolayer"><g class="legend" pointer-events="all" transform="translate(884.42,100)"><rect class="bg" shape-rendering="crispEdges" width="128" height="162" x="0" y="0" style="stroke: rgb(68, 68, 68); stroke-opacity: 1; fill: rgb(255, 255, 255); fill-opacity: 1; stroke-width: 0px;"/><g class="scrollbox" transform="" clip-path="url(#legenddebe27)"><g class="groups"><g class="traces" transform="translate(0,14.5)" style="opacity: 1;"><text class="legendtext" text-anchor="start" x="40" y="4.680000000000001" style="font-family: 'Open Sans', verdana, arial, sans-serif; font-size: 12px; fill: rgb(42, 63, 95); fill-opacity: 1; white-space: pre;">Train Accuracy</text><g class="layers" style="opacity: 1;"><g class="legendfill"/><g class="legendlines"><path class="js-line" d="M5,0h30" style="fill: none; stroke: rgb(255, 0, 0); stroke-opacity: 1; stroke-width: 2px;"/></g><g class="legendsymbols"><g class="legendpoints"/></g></g><rect class="legendtoggle" x="0" y="-9.5" width="122.71875" height="19" style="fill: rgb(0, 0, 0); fill-opacity: 0;"/></g><g class="traces" transform="translate(0,33.5)" style="opacity: 1;"><text class="legendtext" text-anchor="start" x="40" y="4.680000000000001" style="font-family: 'Open Sans', verdana, arial, sans-serif; font-size: 12px; fill: rgb(42, 63, 95); fill-opacity: 1; white-space: pre;">Test Accuracy</text><g class="layers" style="opacity: 1;"><g class="legendfill"/><g class="legendlines"><path class="js-line" d="M5,0h30" style="fill: none; stroke: rgb(0, 0, 255); stroke-opacity: 1; stroke-width: 2px;"/></g><g class="legendsymbols"><g class="legendpoints"/></g></g><rect class="legendtoggle" x="0" y="-9.5" width="122.71875" height="19" style="fill: rgb(0, 0, 0); fill-opacity: 0;"/></g><g class="traces" transform="translate(0,52.5)" style="opacity: 1;"><text class="legendtext" text-anchor="start" x="40" y="4.680000000000001" style="font-family: 'Open Sans', verdana, arial, sans-serif; font-size: 12px; fill: rgb(42, 63, 95); fill-opacity: 1; white-space: pre;">Train Precision</text><g class="layers" style="opacity: 1;"><g class="legendfill"/><g class="legendlines"><path class="js-line" d="M5,0h30" style="fill: none; stroke: rgb(0, 128, 0); stroke-opacity: 1; stroke-width: 2px;"/></g><g class="legendsymbols"><g class="legendpoints"/></g></g><rect class="legendtoggle" x="0" y="-9.5" width="122.71875" height="19" style="fill: rgb(0, 0, 0); fill-opacity: 0;"/></g><g class="traces" transform="translate(0,71.5)" style="opacity: 1;"><text class="legendtext" text-anchor="start" x="40" y="4.680000000000001" style="font-family: 'Open Sans', verdana, arial, sans-serif; font-size: 12px; fill: rgb(42, 63, 95); fill-opacity: 1; white-space: pre;">Test Precision</text><g class="layers" style="opacity: 1;"><g class="legendfill"/><g class="legendlines"><path class="js-line" d="M5,0h30" style="fill: none; stroke: rgb(255, 165, 0); stroke-opacity: 1; stroke-width: 2px;"/></g><g class="legendsymbols"><g class="legendpoints"/></g></g><rect class="legendtoggle" x="0" y="-9.5" width="122.71875" height="19" style="fill: rgb(0, 0, 0); fill-opacity: 0;"/></g><g class="traces" transform="translate(0,90.5)" style="opacity: 1;"><text class="legendtext" text-anchor="start" x="40" y="4.680000000000001" style="font-family: 'Open Sans', verdana, arial, sans-serif; font-size: 12px; fill: rgb(42, 63, 95); fill-opacity: 1; white-space: pre;">Train Recall</text><g class="layers" style="opacity: 1;"><g class="legendfill"/><g class="legendlines"><path class="js-line" d="M5,0h30" style="fill: none; stroke: rgb(128, 0, 128); stroke-opacity: 1; stroke-width: 2px;"/></g><g class="legendsymbols"><g class="legendpoints"/></g></g><rect class="legendtoggle" x="0" y="-9.5" width="122.71875" height="19" style="fill: rgb(0, 0, 0); fill-opacity: 0;"/></g><g class="traces" transform="translate(0,109.5)" style="opacity: 1;"><text class="legendtext" text-anchor="start" x="40" y="4.680000000000001" style="font-family: 'Open Sans', verdana, arial, sans-serif; font-size: 12px; fill: rgb(42, 63, 95); fill-opacity: 1; white-space: pre;">Test Recall</text><g class="layers" style="opacity: 1;"><g class="legendfill"/><g class="legendlines"><path class="js-line" d="M5,0h30" style="fill: none; stroke: rgb(255, 192, 203); stroke-opacity: 1; stroke-width: 2px;"/></g><g class="legendsymbols"><g class="legendpoints"/></g></g><rect class="legendtoggle" x="0" y="-9.5" width="122.71875" height="19" style="fill: rgb(0, 0, 0); fill-opacity: 0;"/></g><g class="traces" transform="translate(0,128.5)" style="opacity: 1;"><text class="legendtext" text-anchor="start" x="40" y="4.680000000000001" style="font-family: 'Open Sans', verdana, arial, sans-serif; font-size: 12px; fill: rgb(42, 63, 95); fill-opacity: 1; white-space: pre;">Train F1</text><g class="layers" style="opacity: 1;"><g class="legendfill"/><g class="legendlines"><path class="js-line" d="M5,0h30" style="fill: none; stroke: rgb(165, 42, 42); stroke-opacity: 1; stroke-width: 2px;"/></g><g class="legendsymbols"><g class="legendpoints"/></g></g><rect class="legendtoggle" x="0" y="-9.5" width="122.71875" height="19" style="fill: rgb(0, 0, 0); fill-opacity: 0;"/></g><g class="traces" transform="translate(0,147.5)" style="opacity: 1;"><text class="legendtext" text-anchor="start" x="40" y="4.680000000000001" style="font-family: 'Open Sans', verdana, arial, sans-serif; font-size: 12px; fill: rgb(42, 63, 95); fill-opacity: 1; white-space: pre;">Test F1</text><g class="layers" style="opacity: 1;"><g class="legendfill"/><g class="legendlines"><path class="js-line" d="M5,0h30" style="fill: none; stroke: rgb(128, 128, 128); stroke-opacity: 1; stroke-width: 2px;"/></g><g class="legendsymbols"><g class="legendpoints"/></g></g><rect class="legendtoggle" x="0" y="-9.5" width="122.71875" height="19" style="fill: rgb(0, 0, 0); fill-opacity: 0;"/></g></g></g><rect class="scrollbar" rx="20" ry="3" width="0" height="0" x="0" y="0" style="fill: rgb(128, 139, 164); fill-opacity: 1;"/></g><g class="g-gtitle"><text class="gtitle" x="51.2" y="50" text-anchor="start" dy="0em" style="font-family: 'Open Sans', verdana, arial, sans-serif; font-size: 17px; fill: rgb(42, 63, 95); opacity: 1; font-weight: normal; white-space: pre;">Training Metrics - logs/FakeNewsNet-politifact_max-vocab=15000_pre=v1_text_T=50_s=15.log</text></g><g class="g-xtitle"><text class="xtitle" x="509.5" y="537.3" text-anchor="middle" style="font-family: 'Open Sans', verdana, arial, sans-serif; font-size: 14px; fill: rgb(42, 63, 95); opacity: 1; font-weight: normal; white-space: pre;">Epoch</text></g><g class="g-ytitle"><text class="ytitle" transform="rotate(-90,109.965625,298)" x="109.965625" y="298" text-anchor="middle" style="font-family: 'Open Sans', verdana, arial, sans-serif; font-size: 14px; fill: rgb(42, 63, 95); opacity: 1; font-weight: normal; white-space: pre;">Metric Score</text></g></g><g class="menulayer"><g class="updatemenu-container" style="cursor: pointer;"><g class="updatemenu-header-group" transform="translate(12,60)"><g class="updatemenu-header" transform="translate(1,1)" style="pointer-events: all;"><rect class="updatemenu-item-rect" rx="2" ry="2" shape-rendering="crispEdges" x="0" y="0" width="173" height="33" style="stroke: rgb(190, 200, 217); stroke-opacity: 1; fill: rgb(255, 255, 255); fill-opacity: 1; stroke-width: 1px;"/><text class="updatemenu-item-text" text-anchor="start" data-notex="1" x="12" y="19.5" style="font-family: 'Open Sans', verdana, arial, sans-serif; font-size: 12px; fill: rgb(42, 63, 95); fill-opacity: 1; white-space: pre;">All</text></g><text class="updatemenu-header-arrow" text-anchor="end" x="169" y="19.5" style="font-family: 'Open Sans', verdana, arial, sans-serif; font-size: 12px; fill: rgb(42, 63, 95); fill-opacity: 1;">▼</text></g><g class="updatemenu-dropdown-button-group" updatemenu-active-index="-1" style="pointer-events: all;"><rect class="scrollbox-bg" opacity="0" x="0" y="0" width="0" height="0" style="pointer-events: all;"/></g></g></g></svg>