<svg class="main-svg" xmlns="http://www.w3.org/2000/svg" xmlns:xlink="http://www.w3.org/1999/xlink" width="1024" height="576" style="" viewBox="0 0 1024 576"><rect x="0" y="0" width="1024" height="576" style="fill: rgb(255, 255, 255); fill-opacity: 1;"/><defs id="defs-5abae8"><g class="clips"><clipPath id="clip5abae8xyplot" class="plotclip"><rect width="726" height="396"/></clipPath><clipPath class="axesclip" id="clip5abae8x"><rect x="143" y="0" width="726" height="576"/></clipPath><clipPath class="axesclip" id="clip5abae8y"><rect x="0" y="100" width="1024" height="396"/></clipPath><clipPath class="axesclip" id="clip5abae8xy"><rect x="143" y="100" width="726" height="396"/></clipPath></g><g class="gradients"/><g class="patterns"/></defs><g class="bglayer"><rect class="bg" x="143" y="100" width="726" height="396" style="fill: rgb(229, 236, 246); fill-opacity: 1; stroke-width: 0;"/></g><g class="layer-below"><g class="imagelayer"/><g class="shapelayer"/></g><g class="cartesianlayer"><g class="subplot xy"><g class="layer-subplot"><g class="shapelayer"/><g class="imagelayer"/></g><g class="minor-gridlayer"><g class="x"/><g class="y"/></g><g class="gridlayer"><g class="x"><path class="xgrid crisp" transform="translate(235.57999999999998,0)" d="M0,100v396" style="stroke: rgb(255, 255, 255); stroke-opacity: 1; stroke-width: 1px;"/><path class="xgrid crisp" transform="translate(333.03,0)" d="M0,100v396" style="stroke: rgb(255, 255, 255); stroke-opacity: 1; stroke-width: 1px;"/><path class="xgrid crisp" transform="translate(430.48,0)" d="M0,100v396" style="stroke: rgb(255, 255, 255); stroke-opacity: 1; stroke-width: 1px;"/><path class="xgrid crisp" transform="translate(527.9300000000001,0)" d="M0,100v396" style="stroke: rgb(255, 255, 255); stroke-opacity: 1; stroke-width: 1px;"/><path class="xgrid crisp" transform="translate(625.38,0)" d="M0,100v396" style="stroke: rgb(255, 255, 255); stroke-opacity: 1; stroke-width: 1px;"/><path class="xgrid crisp" transform="translate(722.83,0)" d="M0,100v396" style="stroke: rgb(255, 255, 255); stroke-opacity: 1; stroke-width: 1px;"/><path class="xgrid crisp" transform="translate(820.28,0)" d="M0,100v396" style="stroke: rgb(255, 255, 255); stroke-opacity: 1; stroke-width: 1px;"/></g><g class="y"><path class="ygrid crisp" transform="translate(0,436.87)" d="M143,0h726" style="stroke: rgb(255, 255, 255); stroke-opacity: 1; stroke-width: 1px;"/><path class="ygrid crisp" transform="translate(0,375.61)" d="M143,0h726" style="stroke: rgb(255, 255, 255); stroke-opacity: 1; stroke-width: 1px;"/><path class="ygrid crisp" transform="translate(0,314.36)" d="M143,0h726" style="stroke: rgb(255, 255, 255); stroke-opacity: 1; stroke-width: 1px;"/><path class="ygrid crisp" transform="translate(0,253.1)" d="M143,0h726" style="stroke: rgb(255, 255, 255); stroke-opacity: 1; stroke-width: 1px;"/><path class="ygrid crisp" transform="translate(0,191.84)" d="M143,0h726" style="stroke: rgb(255, 255, 255); stroke-opacity: 1; stroke-width: 1px;"/><path class="ygrid crisp" transform="translate(0,130.57999999999998)" d="M143,0h726" style="stroke: rgb(255, 255, 255); stroke-opacity: 1; stroke-width: 1px;"/></g></g><g class="zerolinelayer"/><path class="xlines-below"/><path class="ylines-below"/><g class="overlines-below"/><g class="xaxislayer-below"/><g class="yaxislayer-below"/><g class="overaxes-below"/><g class="plot" transform="translate(143,100)" clip-path="url(#clip5abae8xyplot)"><g class="scatterlayer mlayer"><g class="trace scatter trace54584b" style="stroke-miterlimit: 2; opacity: 1;"><g class="fills"/><g class="errorbars"/><g class="lines"><path class="js-line" d="M0,192.3L4.87,147.34L9.74,95.03L14.62,105.19L19.49,251.85L24.36,142.93L29.23,118.3L34.11,113.89L38.98,321.44L43.85,306.98L48.72,279.41L53.6,275L58.47,279.41L63.34,81.92L68.21,96.5L73.09,83.39L77.96,73.22L82.83,74.69L87.7,74.69L92.58,89.27L97.45,71.75L102.32,54.35L107.19,60.23L112.07,67.46L116.94,68.93L121.81,79.1L126.68,77.63L131.56,74.69L136.43,70.4L141.3,58.76L146.17,50.06L151.05,51.53L155.92,60.23L165.66,68.93L170.54,63.05L175.41,57.29L180.28,68.93L185.15,63.05L190.03,68.93L194.9,52.88L199.77,51.53L204.64,50.06L209.52,65.99L214.39,58.76L219.26,57.29L224.13,50.06L229.01,67.46L233.88,52.88L238.75,57.29L243.62,54.35L248.5,70.4L253.37,52.88L258.24,58.76L263.11,52.88L267.99,48.59L272.86,54.35L277.73,57.29L282.6,57.29L287.48,61.7L292.35,58.76L297.22,60.23L302.09,55.82L306.97,54.35L311.84,54.35L316.71,50.06L321.58,55.82L326.46,58.76L331.33,60.23L336.2,54.35L341.07,60.23L345.95,51.53L350.82,54.35L355.69,52.88L360.56,55.82L365.44,45.65L370.31,54.35L375.18,51.53L380.05,64.52L384.93,57.29L389.8,51.53L394.67,57.29L399.54,54.35L404.42,57.29L414.16,54.35L419.03,57.29L423.91,51.53L428.78,47.12L433.65,51.53L438.52,54.35L443.4,44.18L448.27,48.59L453.14,64.52L458.01,41.36L462.89,48.59L467.76,38.42L472.63,34.01L477.5,36.95L482.38,41.36L487.25,32.66L492.12,41.36L496.99,47.12L501.87,45.65L506.74,45.65L516.48,39.89L521.36,44.18L526.23,44.18L531.1,42.83L535.97,42.83L540.85,47.12L550.59,47.12L555.46,45.65L560.34,42.83L565.21,44.18L570.08,39.89L574.95,50.06L579.83,45.65L584.7,45.65L589.57,38.42L594.44,38.42L599.32,58.76L604.19,41.36L609.06,44.18L613.93,44.18L618.81,47.12L623.68,41.36L628.55,45.65L633.42,41.36L643.17,55.82L648.04,47.12L652.91,51.53L657.79,45.65L662.66,39.89L667.53,36.95L672.4,44.18L677.28,39.89L682.15,44.18L687.02,34.01L691.89,41.36L696.77,38.42L701.64,38.42L706.51,39.89L711.38,34.01L716.26,32.66L721.13,34.01L726,42.83" style="vector-effect: none; fill: none; stroke: rgb(255, 0, 0); stroke-opacity: 1; stroke-width: 2px; opacity: 1;"/></g><g class="points"/><g class="text"/></g><g class="trace scatter tracea4f11e" style="stroke-miterlimit: 2; opacity: 1;"><g class="fills"/><g class="errorbars"/><g class="lines"><path class="js-line" d="M0,245.6L4.87,170.5L9.74,170.5L14.62,170.5L19.49,326.46L24.36,187.77L29.23,187.77L34.11,199.29L38.98,366.89L48.72,343.86L53.6,314.94L58.47,320.7L63.34,170.5L68.21,193.53L73.09,205.17L77.96,193.53L82.83,176.25L87.7,153.1L92.58,153.1L97.45,164.61L102.32,153.1L107.19,135.7L112.07,147.34L116.94,158.86L121.81,199.29L126.68,199.29L131.56,170.5L136.43,170.5L141.3,147.34L146.17,141.58L151.05,147.34L155.92,170.5L160.79,164.61L165.66,193.53L170.54,176.25L175.41,147.34L180.28,158.86L185.15,124.18L190.03,158.86L194.9,124.18L199.77,124.18L204.64,124.18L209.52,153.1L214.39,158.86L219.26,153.1L224.13,135.7L229.01,170.5L233.88,135.7L238.75,147.34L243.62,124.18L248.5,158.86L253.37,129.94L258.24,141.58L263.11,141.58L267.99,153.1L272.86,129.94L277.73,135.7L282.6,135.7L287.48,112.67L292.35,141.58L297.22,124.18L302.09,147.34L306.97,147.34L311.84,147.34L316.71,135.7L326.46,135.7L331.33,153.1L336.2,141.58L341.07,158.86L345.95,158.86L350.82,164.61L355.69,158.86L360.56,158.86L365.44,170.5L370.31,158.86L375.18,170.5L380.05,170.5L384.93,153.1L389.8,129.94L394.67,153.1L399.54,141.58L404.42,153.1L409.29,129.94L414.16,135.7L419.03,153.1L423.91,147.34L428.78,147.34L433.65,141.58L438.52,147.34L443.4,141.58L448.27,124.18L453.14,141.58L458.01,118.43L462.89,147.34L467.76,118.43L472.63,129.94L477.5,124.18L482.38,129.94L487.25,129.94L492.12,129.94L496.99,112.67L506.74,112.67L511.61,118.43L516.48,124.18L521.36,106.91L526.23,112.67L531.1,112.67L535.97,112.67L540.85,124.18L545.72,118.43L550.59,141.58L555.46,129.94L560.34,129.94L565.21,141.58L570.08,129.94L579.83,141.58L584.7,129.94L589.57,141.58L594.44,135.7L599.32,158.86L604.19,147.34L609.06,147.34L613.93,158.86L618.81,158.86L623.68,170.5L628.55,170.5L633.42,164.61L638.3,158.86L643.17,176.25L648.04,158.86L652.91,158.86L657.79,158.86L662.66,153.1L667.53,158.86L672.4,158.86L677.28,147.34L682.15,141.58L691.89,164.61L696.77,153.1L706.51,153.1L711.38,141.58L716.26,135.7L721.13,141.58L726,147.34" style="vector-effect: none; fill: none; stroke: rgb(0, 0, 255); stroke-opacity: 1; stroke-width: 2px; opacity: 1;"/></g><g class="points"/><g class="text"/></g><g class="trace scatter traceec99f1" style="stroke-miterlimit: 2; opacity: 1;"><g class="fills"/><g class="errorbars"/><g class="lines"><path class="js-line" d="M0,175.76L4.87,153.83L9.74,101.27L14.62,111.93L19.49,146.6L24.36,115L29.23,102.87L34.11,100.54L38.98,164.98L48.72,146.97L53.6,147.83L58.47,146.97L63.34,75.05L68.21,82.9L73.09,76.28L77.96,67.09L82.83,71.26L87.7,72.48L92.58,81.3L102.32,52.63L107.19,57.9L112.07,64.27L116.94,65.5L121.81,72.24L126.68,73.58L136.43,63.42L141.3,54.96L146.17,47.49L151.05,48.1L155.92,56.8L160.79,60.23L165.66,63.05L170.54,57.78L175.41,54.96L180.28,64.27L185.15,60.23L190.03,64.89L194.9,52.02L199.77,51.29L204.64,49.57L209.52,62.56L214.39,56.68L219.26,55.57L224.13,50.55L229.01,65.99L233.88,54.72L238.75,57.54L243.62,54.1L248.5,65.99L253.37,50.92L258.24,56.19L267.99,47.37L272.86,52.63L277.73,54.47L282.6,54.96L287.48,60.11L292.35,56.19L297.22,57.29L302.09,54.35L311.84,52.63L316.71,49.08L321.58,54.84L326.46,56.68L331.33,56.19L336.2,50.31L341.07,55.57L345.95,49.2L350.82,51.53L355.69,50.92L360.56,52.76L365.44,42.83L370.31,49.69L375.18,46.88L380.05,56.19L384.93,50.06L389.8,46.26L394.67,53.86L399.54,51.53L404.42,53.25L414.16,50.31L419.03,53.25L423.91,48.1L428.78,44.55L433.65,49.69L438.52,51.53L443.4,43.2L448.27,47.86L453.14,59.01L458.01,40.38L462.89,45.16L467.76,37.44L472.63,33.89L477.5,36.71L482.38,39.89L487.25,32.17L492.12,38.18L496.99,47.12L501.87,45.41L506.74,44.92L511.61,39.89L516.48,38.18L521.36,42.22L526.23,40.51L535.97,39.89L540.85,43.94L550.59,44.55L555.46,41.61L560.34,39.28L565.21,40.51L570.08,37.56L574.95,48.59L579.83,43.32L584.7,43.94L589.57,38.42L594.44,37.44L599.32,55.57L604.19,39.89L609.06,42.71L613.93,41.61L618.81,40.87L623.68,36.34L628.55,42.22L633.42,38.79L638.3,45.77L643.17,50.92L648.04,43.94L652.91,48.59L657.79,40.38L662.66,37.56L667.53,36.22L672.4,42.71L677.28,36.95L682.15,42.22L687.02,31.19L691.89,38.18L696.77,36.34L701.64,36.34L706.51,36.46L711.38,32.3L716.26,31.07L721.13,32.79L726,42.1" style="vector-effect: none; fill: none; stroke: rgb(0, 128, 0); stroke-opacity: 1; stroke-width: 2px; opacity: 1;"/></g><g class="points"/><g class="text"/></g><g class="trace scatter trace1f3d83" style="stroke-miterlimit: 2; opacity: 1;"><g class="fills"/><g class="errorbars"/><g class="lines"><path class="js-line" d="M0,244L4.87,195.24L9.74,191.45L14.62,192.55L19.49,204.68L24.36,158.86L29.23,175.89L34.11,187.4L38.98,212.52L48.72,202.59L53.6,190.22L58.47,192.79L63.34,160.33L68.21,179.81L73.09,195.12L77.96,187.03L82.83,174.66L87.7,157.39L92.58,154.57L97.45,159.84L102.32,157.39L107.19,146.24L112.07,152.98L116.94,161.8L121.81,197.82L126.68,200.88L131.56,170.5L136.43,170.5L141.3,152.98L146.17,145.87L151.05,152.98L155.92,176.13L160.79,169.02L165.66,196.47L170.54,177.72L175.41,152.98L180.28,158.86L185.15,129.82L190.03,158.86L194.9,127.12L199.77,127.12L204.64,127.12L209.52,151.51L214.39,158.86L219.26,148.32L224.13,143.91L229.01,176.13L233.88,146.24L238.75,150.28L243.62,127.12L248.5,152.36L253.37,134.35L258.24,139.99L263.11,145.87L267.99,157.39L272.86,134.35L277.73,141.46L282.6,141.46L287.48,118.3L292.35,145.87L297.22,129.82L302.09,150.28L306.97,152.98L311.84,152.98L316.71,141.46L326.46,141.46L331.33,151.51L336.2,145.87L341.07,158.86L345.95,155.67L350.82,159.84L355.69,155.67L360.56,155.67L365.44,167.31L370.31,152.36L375.18,167.31L380.05,167.31L384.93,154.57L389.8,125.16L394.67,151.51L399.54,143.05L404.42,157.39L409.29,131.53L414.16,135.7L419.03,154.57L423.91,152.98L428.78,152.98L433.65,139.99L438.52,147.34L443.4,143.05L448.27,127.12L453.14,136.68L458.01,119.9L462.89,144.15L467.76,119.9L472.63,131.53L477.5,127.12L482.38,131.53L487.25,131.53L492.12,131.53L496.99,115.61L501.87,118.3L506.74,115.61L511.61,122.71L516.48,127.12L521.36,113.77L526.23,118.3L531.1,118.3L535.97,115.61L540.85,124.18L545.72,119.9L550.59,136.68L555.46,131.53L560.34,131.53L565.21,143.05L570.08,131.53L574.95,135.7L579.83,143.05L584.7,131.53L589.57,143.05L594.44,135.7L599.32,152.36L604.19,147.34L609.06,144.15L613.93,152.36L618.81,155.67L623.68,167.31L628.55,167.31L633.42,166.21L638.3,158.86L643.17,174.66L648.04,155.67L652.91,158.86L657.79,155.67L662.66,154.57L667.53,161.8L672.4,155.67L677.28,152.98L682.15,139.99L687.02,148.32L691.89,163.14L696.77,151.51L701.64,154.57L706.51,157.39L711.38,145.87L716.26,138.64L721.13,145.87L726,150.28" style="vector-effect: none; fill: none; stroke: rgb(255, 165, 0); stroke-opacity: 1; stroke-width: 2px; opacity: 1;"/></g><g class="points"/><g class="text"/></g><g class="trace scatter trace79fd30" style="stroke-miterlimit: 2; opacity: 1;"><g class="fills"/><g class="errorbars"/><g class="lines"><path class="js-line" d="M0,172.7L4.87,148.32L9.74,95.15L14.62,107.28L19.49,201.37L24.36,116.71L29.23,97.84L34.11,94.66L38.98,258.95L43.85,245.97L48.72,222.69L53.6,219.5L58.47,222.69L63.34,66.11L68.21,76.77L77.96,57.66L82.83,61.33L87.7,62.31L92.58,72.85L102.32,41.85L107.19,47.37L112.07,54.1L116.94,55.33L121.81,63.17L126.68,63.78L136.43,54.23L141.3,44.67L146.17,36.71L151.05,37.44L155.92,46.39L160.79,50.18L165.66,53.49L170.54,47.98L175.41,44.43L180.28,54.47L185.15,49.94L190.03,54.84L194.9,41.12L199.77,40.38L204.64,38.67L209.52,52.39L214.39,46.14L219.26,44.92L224.13,39.65L229.01,55.57L233.88,44.06L238.75,46.75L243.62,43.32L248.5,56.19L253.37,40.14L258.24,45.65L267.99,36.46L272.86,41.85L277.73,43.94L282.6,44.43L287.48,49.57L292.35,45.65L297.22,46.88L302.09,43.69L311.84,41.85L316.71,38.18L321.58,44.18L326.46,46.14L331.33,45.9L336.2,40.02L341.07,45.53L345.95,38.42L350.82,41L355.69,40.14L360.56,42.22L365.44,32.05L370.31,39.53L375.18,36.58L380.05,47.24L384.93,40.63L389.8,36.09L394.67,43.45L399.54,41L404.42,42.96L414.16,40.02L419.03,42.96L423.91,37.44L428.78,33.77L433.65,38.91L438.52,41L443.4,32.17L448.27,36.95L453.14,49.2L458.01,29.23L462.89,34.5L467.76,26.29L472.63,22.5L477.5,25.44L482.38,28.74L487.25,20.78L492.12,27.27L496.99,36.09L501.87,34.38L506.74,33.89L511.61,28.99L516.48,27.03L521.36,31.19L526.23,29.85L531.1,28.99L535.97,28.99L540.85,33.28L545.72,33.28L550.59,33.77L555.46,31.07L560.34,28.5L565.21,29.85L570.08,26.54L574.95,37.69L579.83,32.54L584.7,32.91L589.57,27.15L594.44,26.29L599.32,45.16L604.19,28.74L609.06,31.68L613.93,30.7L618.81,30.83L623.68,25.8L628.55,31.56L633.42,27.76L638.3,34.99L643.17,40.75L648.04,33.28L652.91,37.93L657.79,30.09L662.66,26.54L667.53,24.95L672.4,31.68L677.28,26.05L682.15,31.19L687.02,20.05L691.89,27.27L696.77,25.31L701.64,25.31L706.51,25.56L711.38,21.03L716.26,19.8L721.13,21.52L726,30.95" style="vector-effect: none; fill: none; stroke: rgb(128, 0, 128); stroke-opacity: 1; stroke-width: 2px; opacity: 1;"/></g><g class="points"/><g class="text"/></g><g class="trace scatter trace3ebbb0" style="stroke-miterlimit: 2; opacity: 1;"><g class="fills"/><g class="errorbars"/><g class="lines"><path class="js-line" d="M0,227.83L4.87,201.25L9.74,181.52L14.62,184.83L19.49,239.35L24.36,142.81L29.23,155.92L34.11,168.29L38.98,268.14L48.72,249.76L53.6,226.98L58.47,231.51L63.34,138.89L68.21,160.45L73.09,176.13L77.96,167.06L82.83,153.34L87.7,135.09L92.58,131.78L97.45,137.66L102.32,135.09L107.19,124.67L112.07,130.43L116.94,139.62L121.81,178.21L126.68,181.52L131.56,148.81L136.43,148.81L141.3,130.43L146.17,122.59L151.05,130.43L155.92,155.3L160.79,147.46L165.66,176.87L170.54,156.65L175.41,130.43L180.28,136.31L185.15,105.68L190.03,136.31L194.9,102.38L199.77,102.38L204.64,102.38L209.52,128.47L214.39,136.31L219.26,125.16L224.13,121.37L229.01,155.3L233.88,124.67L238.75,127.25L243.62,102.38L248.5,129.82L253.37,110.22L258.24,116.1L263.11,122.59L267.99,135.09L272.86,110.22L277.73,118.06L282.6,118.06L287.48,93.19L292.35,122.59L297.22,105.68L302.09,127.25L306.97,130.43L311.84,130.43L316.71,118.06L326.46,118.06L331.33,128.47L336.2,122.59L341.07,136.31L345.95,133.01L350.82,137.66L355.69,133.01L360.56,133.01L365.44,145.5L370.31,129.82L375.18,145.5L380.05,145.5L384.93,131.78L389.8,100.29L394.67,128.47L399.54,119.28L404.42,135.09L409.29,106.91L414.16,111.44L419.03,131.78L423.91,130.43L428.78,130.43L433.65,116.1L438.52,123.94L443.4,119.28L448.27,102.38L453.14,112.79L458.01,94.53L462.89,120.63L467.76,94.53L472.63,106.91L477.5,102.38L482.38,106.91L487.25,106.91L492.12,106.91L496.99,89.88L501.87,93.19L506.74,89.88L511.61,97.72L516.48,102.38L521.36,88.65L526.23,93.19L531.1,93.19L535.97,89.88L540.85,99.07L545.72,94.53L550.59,112.79L555.46,106.91L560.34,106.91L565.21,119.28L570.08,106.91L574.95,111.44L579.83,119.28L584.7,106.91L589.57,119.28L594.44,111.44L599.32,129.82L604.19,123.94L609.06,120.63L613.93,129.82L618.81,133.01L623.68,145.5L628.55,145.5L633.42,144.15L638.3,136.31L643.17,153.34L648.04,133.01L652.91,136.31L657.79,133.01L662.66,131.78L667.53,139.62L672.4,133.01L677.28,130.43L682.15,116.1L687.02,125.16L691.89,140.85L696.77,128.47L701.64,131.78L706.51,135.09L711.38,122.59L716.26,114.75L721.13,122.59L726,127.25" style="vector-effect: none; fill: none; stroke: rgb(255, 192, 203); stroke-opacity: 1; stroke-width: 2px; opacity: 1;"/></g><g class="points"/><g class="text"/></g><g class="trace scatter trace78ee5e" style="stroke-miterlimit: 2; opacity: 1;"><g class="fills"/><g class="errorbars"/><g class="lines"><path class="js-line" d="M0,192.43L4.87,152.24L9.74,99.19L14.62,110.22L19.49,260.05L24.36,142.93L29.23,118.43L34.11,114.14L38.98,343.37L43.85,326.21L48.72,293.13L53.6,287.74L58.47,293.13L63.34,82.65L68.21,96.74L73.09,84L77.96,73.95L82.83,75.67L87.7,75.79L92.58,89.76L97.45,72.73L102.32,55.45L107.19,61.21L112.07,68.44L116.94,69.91L121.81,79.71L126.68,78.49L131.56,75.42L136.43,71.01L141.3,59.62L146.17,51.04L151.05,52.39L155.92,61.09L165.66,69.54L170.54,63.78L175.41,58.27L180.28,69.66L185.15,64.03L190.03,69.79L194.9,54.1L199.77,52.76L204.64,51.29L209.52,66.97L214.39,59.86L219.26,58.39L224.13,51.41L229.01,68.68L233.88,54.59L238.75,58.76L243.62,55.7L248.5,71.26L253.37,53.98L258.24,59.74L263.11,54.1L267.99,49.69L272.86,55.45L277.73,58.27L282.6,58.27L287.48,62.8L292.35,59.74L297.22,61.21L302.09,56.92L306.97,55.57L311.84,55.45L316.71,51.16L321.58,57.04L326.46,59.86L331.33,61.09L336.2,55.21L341.07,60.97L345.95,52.51L350.82,55.33L355.69,53.98L360.56,56.8L365.44,46.63L370.31,55.21L375.18,52.27L380.05,65.01L384.93,57.78L389.8,52.14L394.67,58.15L399.54,55.33L404.42,58.15L414.16,55.21L419.03,58.15L423.91,52.39L428.78,48.1L433.65,52.51L438.52,55.33L443.4,45.41L448.27,49.82L453.14,65.25L458.01,42.47L462.89,49.45L467.76,39.53L472.63,35.24L477.5,38.18L482.38,42.34L487.25,33.77L492.12,42.22L496.99,48.47L501.87,47L506.74,46.88L516.48,40.87L521.36,45.28L526.23,45.04L531.1,43.69L535.97,43.69L540.85,47.98L550.59,48.1L555.46,46.51L560.34,43.57L565.21,45.04L570.08,40.87L574.95,51.16L579.83,46.63L584.7,46.75L589.57,39.65L594.44,39.53L599.32,59.74L604.19,42.34L609.06,45.28L613.93,45.16L618.81,47.73L623.68,41.98L628.55,46.51L633.42,42.22L643.17,56.55L648.04,47.98L652.91,52.39L657.79,46.39L662.66,40.87L667.53,38.05L672.4,45.28L677.28,40.75L682.15,45.28L687.02,34.87L691.89,42.22L696.77,39.4L701.64,39.4L706.51,40.75L711.38,34.99L716.26,33.64L721.13,35.11L726,43.94" style="vector-effect: none; fill: none; stroke: rgb(165, 42, 42); stroke-opacity: 1; stroke-width: 2px; opacity: 1;"/></g><g class="points"/><g class="text"/></g><g class="trace scatter trace2f76f0" style="stroke-miterlimit: 2; opacity: 1;"><g class="fills"/><g class="errorbars"/><g class="lines"><path class="js-line" d="M0,252.09L4.87,198.67L9.74,187.89L14.62,189.49L19.49,330.38L24.36,189.12L29.23,191.2L34.11,202.84L38.98,376.2L48.72,350.23L53.6,318.74L58.47,324.99L63.34,173.93L68.21,196.71L73.09,208.97L77.96,198.06L82.83,181.64L87.7,159.84L92.58,158.98L97.45,169.15L102.32,159.84L107.19,144.4L112.07,154.32L116.94,165.23L121.81,205.17L126.68,206.02L131.56,176.13L136.43,176.13L141.3,154.32L146.17,147.95L151.05,154.32L155.92,177.97L160.79,171.6L165.66,200.63L170.54,182.5L175.41,154.32L180.28,164.37L185.15,130.68L190.03,164.37L194.9,129.82L199.77,129.82L204.64,129.82L209.52,158.12L214.39,164.37L219.26,157.39L224.13,143.42L229.01,177.97L233.88,144.4L238.75,153.47L243.62,129.82L248.5,162.9L253.37,136.19L258.24,146.36L263.11,147.95L267.99,159.84L272.86,136.19L277.73,142.44L282.6,142.44L287.48,118.79L292.35,147.95L297.22,130.68L302.09,153.47L306.97,154.32L311.84,154.32L316.71,142.44L326.46,142.44L331.33,158.12L336.2,147.95L341.07,164.37L345.95,163.63L350.82,169.15L355.69,163.63L360.56,163.63L365.44,175.4L370.31,162.9L375.18,175.4L380.05,175.4L384.93,158.98L389.8,133.99L394.67,158.12L399.54,147.22L404.42,159.84L409.29,135.33L414.16,140.85L419.03,158.98L423.91,154.32L428.78,154.32L433.65,146.36L438.52,152.61L443.4,147.22L448.27,129.82L453.14,145.75L458.01,123.57L462.89,151.87L467.76,123.57L472.63,135.33L477.5,129.82L482.38,135.33L487.25,135.33L492.12,135.33L496.99,118.06L501.87,118.79L506.74,118.06L516.48,129.82L521.36,113.28L526.23,118.79L531.1,118.79L535.97,118.06L540.85,129.08L545.72,123.57L550.59,145.75L555.46,135.33L560.34,135.33L565.21,147.22L570.08,135.33L579.83,147.22L584.7,135.33L589.57,147.22L594.44,140.85L599.32,162.9L604.19,152.61L609.06,151.87L613.93,162.9L618.81,163.63L623.68,175.4L628.55,175.4L633.42,170.74L638.3,164.37L643.17,181.64L648.04,163.63L652.91,164.37L657.79,163.63L662.66,158.98L667.53,165.23L672.4,163.63L682.15,146.36L687.02,157.39L691.89,169.88L696.77,158.12L706.51,159.84L711.38,147.95L716.26,141.7L721.13,147.95L726,153.47" style="vector-effect: none; fill: none; stroke: rgb(128, 128, 128); stroke-opacity: 1; stroke-width: 2px; opacity: 1;"/></g><g class="points"/><g class="text"/></g></g></g><g class="overplot"/><path class="xlines-above crisp" d="M0,0" style="fill: none;"/><path class="ylines-above crisp" d="M0,0" style="fill: none;"/><g class="overlines-above"/><g class="xaxislayer-above"><g class="xtick"><text text-anchor="middle" x="0" y="509" transform="translate(235.57999999999998,0)" style="font-family: 'Open Sans', verdana, arial, sans-serif; font-size: 12px; fill: rgb(42, 63, 95); fill-opacity: 1; white-space: pre; opacity: 1;">20</text></g><g class="xtick"><text text-anchor="middle" x="0" y="509" style="font-family: 'Open Sans', verdana, arial, sans-serif; font-size: 12px; fill: rgb(42, 63, 95); fill-opacity: 1; white-space: pre; opacity: 1;" transform="translate(333.03,0)">40</text></g><g class="xtick"><text text-anchor="middle" x="0" y="509" style="font-family: 'Open Sans', verdana, arial, sans-serif; font-size: 12px; fill: rgb(42, 63, 95); fill-opacity: 1; white-space: pre; opacity: 1;" transform="translate(430.48,0)">60</text></g><g class="xtick"><text text-anchor="middle" x="0" y="509" style="font-family: 'Open Sans', verdana, arial, sans-serif; font-size: 12px; fill: rgb(42, 63, 95); fill-opacity: 1; white-space: pre; opacity: 1;" transform="translate(527.9300000000001,0)">80</text></g><g class="xtick"><text text-anchor="middle" x="0" y="509" style="font-family: 'Open Sans', verdana, arial, sans-serif; font-size: 12px; fill: rgb(42, 63, 95); fill-opacity: 1; white-space: pre; opacity: 1;" transform="translate(625.38,0)">100</text></g><g class="xtick"><text text-anchor="middle" x="0" y="509" style="font-family: 'Open Sans', verdana, arial, sans-serif; font-size: 12px; fill: rgb(42, 63, 95); fill-opacity: 1; white-space: pre; opacity: 1;" transform="translate(722.83,0)">120</text></g><g class="xtick"><text text-anchor="middle" x="0" y="509" style="font-family: 'Open Sans', verdana, arial, sans-serif; font-size: 12px; fill: rgb(42, 63, 95); fill-opacity: 1; white-space: pre; opacity: 1;" transform="translate(820.28,0)">140</text></g></g><g class="yaxislayer-above"><g class="ytick"><text text-anchor="end" x="142" y="4.199999999999999" transform="translate(0,436.87)" style="font-family: 'Open Sans', verdana, arial, sans-serif; font-size: 12px; fill: rgb(42, 63, 95); fill-opacity: 1; white-space: pre; opacity: 1;">60</text></g><g class="ytick"><text text-anchor="end" x="142" y="4.199999999999999" style="font-family: 'Open Sans', verdana, arial, sans-serif; font-size: 12px; fill: rgb(42, 63, 95); fill-opacity: 1; white-space: pre; opacity: 1;" transform="translate(0,375.61)">65</text></g><g class="ytick"><text text-anchor="end" x="142" y="4.199999999999999" style="font-family: 'Open Sans', verdana, arial, sans-serif; font-size: 12px; fill: rgb(42, 63, 95); fill-opacity: 1; white-space: pre; opacity: 1;" transform="translate(0,314.36)">70</text></g><g class="ytick"><text text-anchor="end" x="142" y="4.199999999999999" style="font-family: 'Open Sans', verdana, arial, sans-serif; font-size: 12px; fill: rgb(42, 63, 95); fill-opacity: 1; white-space: pre; opacity: 1;" transform="translate(0,253.1)">75</text></g><g class="ytick"><text text-anchor="end" x="142" y="4.199999999999999" style="font-family: 'Open Sans', verdana, arial, sans-serif; font-size: 12px; fill: rgb(42, 63, 95); fill-opacity: 1; white-space: pre; opacity: 1;" transform="translate(0,191.84)">80</text></g><g class="ytick"><text text-anchor="end" x="142" y="4.199999999999999" style="font-family: 'Open Sans', verdana, arial, sans-serif; font-size: 12px; fill: rgb(42, 63, 95); fill-opacity: 1; white-space: pre; opacity: 1;" transform="translate(0,130.57999999999998)">85</text></g></g><g class="overaxes-above"/></g></g><g class="polarlayer"/><g class="smithlayer"/><g class="ternarylayer"/><g class="geolayer"/><g class="funnelarealayer"/><g class="pielayer"/><g class="iciclelayer"/><g class="treemaplayer"/><g class="sunburstlayer"/><g class="glimages"/><defs id="topdefs-5abae8"><g class="clips"/><clipPath id="legend5abae8"><rect width="128" height="162" x="0" y="0"/></clipPath></defs><g class="layer-above"><g class="imagelayer"/><g class="shapelayer"/></g><g class="infolayer"><g class="legend" pointer-events="all" transform="translate(883.52,100)"><rect class="bg" shape-rendering="crispEdges" width="128" height="162" x="0" y="0" style="stroke: rgb(68, 68, 68); stroke-opacity: 1; fill: rgb(255, 255, 255); fill-opacity: 1; stroke-width: 0px;"/><g class="scrollbox" transform="" clip-path="url(#legend5abae8)"><g class="groups"><g class="traces" transform="translate(0,14.5)" style="opacity: 1;"><text class="legendtext" text-anchor="start" x="40" y="4.680000000000001" style="font-family: 'Open Sans', verdana, arial, sans-serif; font-size: 12px; fill: rgb(42, 63, 95); fill-opacity: 1; white-space: pre;">Train Accuracy</text><g class="layers" style="opacity: 1;"><g class="legendfill"/><g class="legendlines"><path class="js-line" d="M5,0h30" style="fill: none; stroke: rgb(255, 0, 0); stroke-opacity: 1; stroke-width: 2px;"/></g><g class="legendsymbols"><g class="legendpoints"/></g></g><rect class="legendtoggle" x="0" y="-9.5" width="122.71875" height="19" style="fill: rgb(0, 0, 0); fill-opacity: 0;"/></g><g class="traces" transform="translate(0,33.5)" style="opacity: 1;"><text class="legendtext" text-anchor="start" x="40" y="4.680000000000001" style="font-family: 'Open Sans', verdana, arial, sans-serif; font-size: 12px; fill: rgb(42, 63, 95); fill-opacity: 1; white-space: pre;">Test Accuracy</text><g class="layers" style="opacity: 1;"><g class="legendfill"/><g class="legendlines"><path class="js-line" d="M5,0h30" style="fill: none; stroke: rgb(0, 0, 255); stroke-opacity: 1; stroke-width: 2px;"/></g><g class="legendsymbols"><g class="legendpoints"/></g></g><rect class="legendtoggle" x="0" y="-9.5" width="122.71875" height="19" style="fill: rgb(0, 0, 0); fill-opacity: 0;"/></g><g class="traces" transform="translate(0,52.5)" style="opacity: 1;"><text class="legendtext" text-anchor="start" x="40" y="4.680000000000001" style="font-family: 'Open Sans', verdana, arial, sans-serif; font-size: 12px; fill: rgb(42, 63, 95); fill-opacity: 1; white-space: pre;">Train Precision</text><g class="layers" style="opacity: 1;"><g class="legendfill"/><g class="legendlines"><path class="js-line" d="M5,0h30" style="fill: none; stroke: rgb(0, 128, 0); stroke-opacity: 1; stroke-width: 2px;"/></g><g class="legendsymbols"><g class="legendpoints"/></g></g><rect class="legendtoggle" x="0" y="-9.5" width="122.71875" height="19" style="fill: rgb(0, 0, 0); fill-opacity: 0;"/></g><g class="traces" transform="translate(0,71.5)" style="opacity: 1;"><text class="legendtext" text-anchor="start" x="40" y="4.680000000000001" style="font-family: 'Open Sans', verdana, arial, sans-serif; font-size: 12px; fill: rgb(42, 63, 95); fill-opacity: 1; white-space: pre;">Test Precision</text><g class="layers" style="opacity: 1;"><g class="legendfill"/><g class="legendlines"><path class="js-line" d="M5,0h30" style="fill: none; stroke: rgb(255, 165, 0); stroke-opacity: 1; stroke-width: 2px;"/></g><g class="legendsymbols"><g class="legendpoints"/></g></g><rect class="legendtoggle" x="0" y="-9.5" width="122.71875" height="19" style="fill: rgb(0, 0, 0); fill-opacity: 0;"/></g><g class="traces" transform="translate(0,90.5)" style="opacity: 1;"><text class="legendtext" text-anchor="start" x="40" y="4.680000000000001" style="font-family: 'Open Sans', verdana, arial, sans-serif; font-size: 12px; fill: rgb(42, 63, 95); fill-opacity: 1; white-space: pre;">Train Recall</text><g class="layers" style="opacity: 1;"><g class="legendfill"/><g class="legendlines"><path class="js-line" d="M5,0h30" style="fill: none; stroke: rgb(128, 0, 128); stroke-opacity: 1; stroke-width: 2px;"/></g><g class="legendsymbols"><g class="legendpoints"/></g></g><rect class="legendtoggle" x="0" y="-9.5" width="122.71875" height="19" style="fill: rgb(0, 0, 0); fill-opacity: 0;"/></g><g class="traces" transform="translate(0,109.5)" style="opacity: 1;"><text class="legendtext" text-anchor="start" x="40" y="4.680000000000001" style="font-family: 'Open Sans', verdana, arial, sans-serif; font-size: 12px; fill: rgb(42, 63, 95); fill-opacity: 1; white-space: pre;">Test Recall</text><g class="layers" style="opacity: 1;"><g class="legendfill"/><g class="legendlines"><path class="js-line" d="M5,0h30" style="fill: none; stroke: rgb(255, 192, 203); stroke-opacity: 1; stroke-width: 2px;"/></g><g class="legendsymbols"><g class="legendpoints"/></g></g><rect class="legendtoggle" x="0" y="-9.5" width="122.71875" height="19" style="fill: rgb(0, 0, 0); fill-opacity: 0;"/></g><g class="traces" transform="translate(0,128.5)" style="opacity: 1;"><text class="legendtext" text-anchor="start" x="40" y="4.680000000000001" style="font-family: 'Open Sans', verdana, arial, sans-serif; font-size: 12px; fill: rgb(42, 63, 95); fill-opacity: 1; white-space: pre;">Train F1</text><g class="layers" style="opacity: 1;"><g class="legendfill"/><g class="legendlines"><path class="js-line" d="M5,0h30" style="fill: none; stroke: rgb(165, 42, 42); stroke-opacity: 1; stroke-width: 2px;"/></g><g class="legendsymbols"><g class="legendpoints"/></g></g><rect class="legendtoggle" x="0" y="-9.5" width="122.71875" height="19" style="fill: rgb(0, 0, 0); fill-opacity: 0;"/></g><g class="traces" transform="translate(0,147.5)" style="opacity: 1;"><text class="legendtext" text-anchor="start" x="40" y="4.680000000000001" style="font-family: 'Open Sans', verdana, arial, sans-serif; font-size: 12px; fill: rgb(42, 63, 95); fill-opacity: 1; white-space: pre;">Test F1</text><g class="layers" style="opacity: 1;"><g class="legendfill"/><g class="legendlines"><path class="js-line" d="M5,0h30" style="fill: none; stroke: rgb(128, 128, 128); stroke-opacity: 1; stroke-width: 2px;"/></g><g class="legendsymbols"><g class="legendpoints"/></g></g><rect class="legendtoggle" x="0" y="-9.5" width="122.71875" height="19" style="fill: rgb(0, 0, 0); fill-opacity: 0;"/></g></g></g><rect class="scrollbar" rx="20" ry="3" width="0" height="0" x="0" y="0" style="fill: rgb(128, 139, 164); fill-opacity: 1;"/></g><g class="g-gtitle"><text class="gtitle" x="51.2" y="50" text-anchor="start" dy="0em" style="font-family: 'Open Sans', verdana, arial, sans-serif; font-size: 17px; fill: rgb(42, 63, 95); opacity: 1; font-weight: normal; white-space: pre;">Training Metrics - logs/FakeNewsNet-politifact_max-vocab=15000_pre=v2_text_T=50_s=10.log</text></g><g class="g-xtitle"><text class="xtitle" x="506" y="537.3" text-anchor="middle" style="font-family: 'Open Sans', verdana, arial, sans-serif; font-size: 14px; fill: rgb(42, 63, 95); opacity: 1; font-weight: normal; white-space: pre;">Epoch</text></g><g class="g-ytitle"><text class="ytitle" transform="rotate(-90,103.965625,298)" x="103.965625" y="298" text-anchor="middle" style="font-family: 'Open Sans', verdana, arial, sans-serif; font-size: 14px; fill: rgb(42, 63, 95); opacity: 1; font-weight: normal; white-space: pre;">Metric Score</text></g></g><g class="menulayer"><g class="updatemenu-container" style="cursor: pointer;"><g class="updatemenu-header-group" transform="translate(12,60)"><g class="updatemenu-header" transform="translate(1,1)" style="pointer-events: all;"><rect class="updatemenu-item-rect" rx="2" ry="2" shape-rendering="crispEdges" x="0" y="0" width="167" height="33" style="stroke: rgb(190, 200, 217); stroke-opacity: 1; fill: rgb(255, 255, 255); fill-opacity: 1; stroke-width: 1px;"/><text class="updatemenu-item-text" text-anchor="start" data-notex="1" x="12" y="19.5" style="font-family: 'Open Sans', verdana, arial, sans-serif; font-size: 12px; fill: rgb(42, 63, 95); fill-opacity: 1; white-space: pre;">All</text></g><text class="updatemenu-header-arrow" text-anchor="end" x="163" y="19.5" style="font-family: 'Open Sans', verdana, arial, sans-serif; font-size: 12px; fill: rgb(42, 63, 95); fill-opacity: 1;">▼</text></g><g class="updatemenu-dropdown-button-group" updatemenu-active-index="-1" style="pointer-events: all;"><rect class="scrollbox-bg" opacity="0" x="0" y="0" width="0" height="0" style="pointer-events: all;"/></g></g></g></svg>