<svg class="main-svg" xmlns="http://www.w3.org/2000/svg" xmlns:xlink="http://www.w3.org/1999/xlink" width="1024" height="576" style="" viewBox="0 0 1024 576"><rect x="0" y="0" width="1024" height="576" style="fill: rgb(255, 255, 255); fill-opacity: 1;"/><defs id="defs-ef95fb"><g class="clips"><clipPath id="clipef95fbxyplot" class="plotclip"><rect width="734" height="396"/></clipPath><clipPath class="axesclip" id="clipef95fbx"><rect x="135" y="0" width="734" height="576"/></clipPath><clipPath class="axesclip" id="clipef95fby"><rect x="0" y="100" width="1024" height="396"/></clipPath><clipPath class="axesclip" id="clipef95fbxy"><rect x="135" y="100" width="734" height="396"/></clipPath></g><g class="gradients"/><g class="patterns"/></defs><g class="bglayer"><rect class="bg" x="135" y="100" width="734" height="396" style="fill: rgb(229, 236, 246); fill-opacity: 1; stroke-width: 0;"/></g><g class="layer-below"><g class="imagelayer"/><g class="shapelayer"/></g><g class="cartesianlayer"><g class="subplot xy"><g class="layer-subplot"><g class="shapelayer"/><g class="imagelayer"/></g><g class="minor-gridlayer"><g class="x"/><g class="y"/></g><g class="gridlayer"><g class="x"><path class="xgrid crisp" transform="translate(228.6,0)" d="M0,100v396" style="stroke: rgb(255, 255, 255); stroke-opacity: 1; stroke-width: 1px;"/><path class="xgrid crisp" transform="translate(327.12,0)" d="M0,100v396" style="stroke: rgb(255, 255, 255); stroke-opacity: 1; stroke-width: 1px;"/><path class="xgrid crisp" transform="translate(425.64,0)" d="M0,100v396" style="stroke: rgb(255, 255, 255); stroke-opacity: 1; stroke-width: 1px;"/><path class="xgrid crisp" transform="translate(524.1700000000001,0)" d="M0,100v396" style="stroke: rgb(255, 255, 255); stroke-opacity: 1; stroke-width: 1px;"/><path class="xgrid crisp" transform="translate(622.69,0)" d="M0,100v396" style="stroke: rgb(255, 255, 255); stroke-opacity: 1; stroke-width: 1px;"/><path class="xgrid crisp" transform="translate(721.21,0)" d="M0,100v396" style="stroke: rgb(255, 255, 255); stroke-opacity: 1; stroke-width: 1px;"/><path class="xgrid crisp" transform="translate(819.74,0)" d="M0,100v396" style="stroke: rgb(255, 255, 255); stroke-opacity: 1; stroke-width: 1px;"/></g><g class="y"><path class="ygrid crisp" transform="translate(0,475.69)" d="M135,0h734" style="stroke: rgb(255, 255, 255); stroke-opacity: 1; stroke-width: 1px;"/><path class="ygrid crisp" transform="translate(0,412.39)" d="M135,0h734" style="stroke: rgb(255, 255, 255); stroke-opacity: 1; stroke-width: 1px;"/><path class="ygrid crisp" transform="translate(0,349.09000000000003)" d="M135,0h734" style="stroke: rgb(255, 255, 255); stroke-opacity: 1; stroke-width: 1px;"/><path class="ygrid crisp" transform="translate(0,285.78)" d="M135,0h734" style="stroke: rgb(255, 255, 255); stroke-opacity: 1; stroke-width: 1px;"/><path class="ygrid crisp" transform="translate(0,222.48000000000002)" d="M135,0h734" style="stroke: rgb(255, 255, 255); stroke-opacity: 1; stroke-width: 1px;"/><path class="ygrid crisp" transform="translate(0,159.17000000000002)" d="M135,0h734" style="stroke: rgb(255, 255, 255); stroke-opacity: 1; stroke-width: 1px;"/></g></g><g class="zerolinelayer"/><path class="xlines-below"/><path class="ylines-below"/><g class="overlines-below"/><g class="xaxislayer-below"/><g class="yaxislayer-below"/><g class="overaxes-below"/><g class="plot" transform="translate(135,100)" clip-path="url(#clipef95fbxyplot)"><g class="scatterlayer mlayer"><g class="trace scatter trace9e834c" style="stroke-miterlimit: 2; opacity: 1;"><g class="fills"/><g class="errorbars"/><g class="lines"><path class="js-line" d="M0,122.48L4.93,149.45L9.85,270.99L14.78,97.03L19.7,97.03L24.63,98.42L29.56,102.98L34.48,107.54L39.41,113.49L49.26,93.99L54.19,95.51L59.11,76.01L64.04,72.98L68.97,74.49L73.89,68.42L83.74,65.51L88.67,184.01L93.6,171.98L98.52,62.47L103.45,98.42L108.38,97.03L113.3,93.99L118.23,93.99L123.15,93.99L128.08,119.44L133.01,89.43L137.93,119.44L142.86,137.42L147.79,131.47L152.71,81.96L157.64,101.46L167.49,110.45L172.42,108.93L177.34,108.93L182.27,110.45L187.19,115.01L192.12,115.01L197.05,111.97L201.97,107.54L206.9,99.94L211.83,80.44L216.75,92.47L221.68,72.98L231.53,69.94L236.46,74.49L241.38,71.46L246.31,150.97L251.23,87.91L256.16,95.51L261.09,95.51L266.01,65.51L270.94,67.02L275.87,69.94L280.79,67.02L285.72,90.95L290.64,80.44L295.57,86.52L300.5,85L305.42,59.43L310.35,65.51L315.28,69.94L320.2,65.51L325.13,58.04L330.05,78.93L334.98,76.01L339.91,76.01L344.83,89.43L349.76,86.52L354.68,86.52L359.61,83.48L364.54,78.93L369.46,99.94L374.39,76.01L379.32,72.98L384.24,74.49L389.17,69.94L394.09,77.53L399.02,74.49L403.95,72.98L408.87,68.42L413.8,77.53L418.72,80.44L423.65,76.01L428.58,80.44L433.5,50.44L438.43,48.92L443.36,42.97L448.28,74.49L453.21,74.49L458.13,74.49L463.06,41.45L467.99,39.93L472.91,46.01L477.84,44.49L482.77,51.96L487.69,48.92L492.62,39.93L497.54,42.97L502.47,35.5L507.4,81.96L512.32,80.44L517.25,80.44L522.17,38.41L532.03,29.42L536.95,33.98L541.88,33.98L546.81,35.5L551.73,78.93L556.66,21.95L561.58,92.47L566.51,90.95L571.44,83.48L576.36,30.94L581.29,24.99L586.21,42.97L591.14,38.41L596.07,37.02L600.99,38.41L605.92,29.42L610.85,46.01L615.77,39.93L625.62,39.93L630.55,37.02L635.48,38.41L640.4,42.97L645.33,30.94L650.26,39.93L655.18,33.98L660.11,37.02L665.03,33.98L669.96,35.5L674.89,23.47L679.81,33.98L684.74,42.97L689.66,37.02L694.59,38.41L699.52,35.5L704.44,35.5L709.37,41.45L714.3,39.93L719.22,53.48L724.15,56.52L729.07,53.48L734,55" style="vector-effect: none; fill: none; stroke: rgb(255, 0, 0); stroke-opacity: 1; stroke-width: 2px; opacity: 1;"/></g><g class="points"/><g class="text"/></g><g class="trace scatter trace765c7f" style="stroke-miterlimit: 2; opacity: 1;"><g class="fills"/><g class="errorbars"/><g class="lines"><path class="js-line" d="M0,128.43L4.93,170.21L9.85,373.29L14.78,158.31L19.7,164.26L24.63,158.31L29.56,170.21L34.48,176.29L39.41,176.29L44.34,182.24L49.26,170.21L54.19,170.21L59.11,158.31L64.04,164.26L68.97,182.24L73.89,218.07L78.82,200.09L83.74,188.19L88.67,307.58L93.6,277.7L98.52,200.09L103.45,170.21L108.38,164.26L113.3,170.21L118.23,170.21L123.15,170.21L128.08,224.02L133.01,158.31L137.93,247.95L142.86,265.8L147.79,247.95L152.71,188.19L157.64,176.29L162.56,194.14L167.49,176.29L172.42,182.24L177.34,170.21L182.27,176.29L187.19,176.29L201.97,176.29L206.9,170.21L211.83,164.26L216.75,170.21L221.68,164.26L226.6,176.29L231.53,170.21L236.46,170.21L241.38,170.21L246.31,271.75L251.23,176.29L256.16,176.29L261.09,170.21L266.01,170.21L270.94,164.26L275.87,176.29L280.79,182.24L285.72,176.29L300.5,158.31L305.42,194.14L310.35,176.29L315.28,176.29L320.2,164.26L325.13,176.29L330.05,158.31L334.98,164.26L339.91,164.26L344.83,176.29L349.76,182.24L354.68,170.21L364.54,158.31L369.46,176.29L374.39,158.31L379.32,158.31L384.24,158.31L389.17,152.36L394.09,158.31L399.02,158.31L403.95,158.31L408.87,188.19L413.8,140.46L418.72,146.41L423.65,146.41L428.58,140.46L433.5,158.31L438.43,158.31L443.36,146.41L448.28,164.26L453.21,164.26L458.13,158.31L463.06,134.38L467.99,146.41L472.91,164.26L477.84,152.36L482.77,158.31L487.69,158.31L492.62,152.36L497.54,158.31L502.47,146.41L507.4,152.36L517.25,152.36L522.17,128.43L527.1,122.48L532.03,122.48L536.95,122.48L541.88,116.53L546.81,158.31L551.73,164.26L556.66,146.41L561.58,241.87L566.51,241.87L571.44,206.04L576.36,152.36L581.29,146.41L586.21,176.29L591.14,182.24L600.99,182.24L605.92,158.31L610.85,164.26L615.77,176.29L620.7,170.21L625.62,176.29L630.55,182.24L635.48,176.29L640.4,164.26L645.33,164.26L650.26,176.29L655.18,176.29L660.11,164.26L665.03,158.31L674.89,134.38L679.81,158.31L684.74,164.26L689.66,164.26L694.59,176.29L699.52,176.29L714.3,158.31L719.22,122.48L724.15,128.43L729.07,128.43L734,134.38" style="vector-effect: none; fill: none; stroke: rgb(0, 0, 255); stroke-opacity: 1; stroke-width: 2px; opacity: 1;"/></g><g class="points"/><g class="text"/></g><g class="trace scatter trace3787c1" style="stroke-miterlimit: 2; opacity: 1;"><g class="fills"/><g class="errorbars"/><g class="lines"><path class="js-line" d="M0,130.83L9.85,184.14L14.78,89.81L19.7,98.42L24.63,102.73L29.56,110.07L34.48,114.5L39.41,121.72L44.34,112.48L49.26,101.46L54.19,102.73L59.11,82.6L64.04,79.43L68.97,77.66L73.89,72.98L78.82,72.34L83.74,70.19L88.67,139.44L93.6,146.03L98.52,66.64L103.45,105.89L108.38,104.5L113.3,101.34L123.15,101.34L128.08,113.62L133.01,96.78L137.93,112.98L142.86,126.15L147.79,120.07L152.71,83.74L157.64,108.3L167.49,118.43L172.42,116.53L177.34,116.53L182.27,118.05L187.19,123.11L192.12,123.24L197.05,119.95L201.97,115.26L206.9,107.79L211.83,87.03L216.75,100.07L221.68,79.94L231.53,77.03L236.46,81.58L241.38,78.42L246.31,130.2L251.23,95L256.16,103.23L261.09,103.23L266.01,68.67L275.87,72.22L280.79,68.8L285.72,98.3L290.64,87.91L295.57,93.99L300.5,92.35L305.42,62.59L310.35,67.91L315.28,72.22L320.2,67.91L325.13,60.57L330.05,84.5L334.98,80.95L339.91,81.2L344.83,96.02L349.76,92.73L354.68,93.23L359.61,90.45L364.54,85.64L369.46,107.79L374.39,82.6L379.32,79.43L384.24,81.2L389.17,76.77L394.09,84.37L399.02,80.95L403.95,79.43L408.87,70.44L413.8,84.88L418.72,87.79L423.65,83.23L428.58,87.91L433.5,54.24L438.43,53.22L443.36,47.78L448.28,80.44L458.13,80.7L463.06,45.63L467.99,44.24L472.91,49.93L477.84,48.92L482.77,56.26L487.69,53.22L492.62,44.74L497.54,47.78L502.47,39.8L507.4,89.05L512.32,87.66L517.25,87.53L522.17,44.36L532.03,34.99L536.95,39.55L541.88,40.18L546.81,39.8L551.73,85.64L556.66,27.65L561.58,85.13L566.51,83.99L571.44,78.8L576.36,36.01L581.29,30.56L586.21,46.89L591.14,42.59L596.07,41.45L600.99,42.59L605.92,34.99L610.85,50.19L615.77,44.49L620.7,44.99L625.62,43.98L630.55,41.7L635.48,43.1L640.4,48.29L645.33,36.39L650.26,44.99L655.18,39.42L660.11,42.21L665.03,39.17L669.96,41.07L674.89,29.42L684.74,48.67L689.66,42.46L694.59,43.1L699.52,40.06L704.44,40.56L709.37,47.02L714.3,44.99L719.22,59.05L724.15,62.34L729.07,59.3L734,60.95" style="vector-effect: none; fill: none; stroke: rgb(0, 128, 0); stroke-opacity: 1; stroke-width: 2px; opacity: 1;"/></g><g class="points"/><g class="text"/></g><g class="trace scatter tracec9bb6a" style="stroke-miterlimit: 2; opacity: 1;"><g class="fills"/><g class="errorbars"/><g class="lines"><path class="js-line" d="M0,151.6L4.93,198.57L9.85,279.22L14.78,178.44L19.7,189.96L24.63,185.78L29.56,198.57L34.48,204.77L39.41,203L44.34,209.96L49.26,198.57L54.19,198.57L59.11,183.5L64.04,189.33L68.97,204.65L73.89,235.54L78.82,222.25L83.74,208.19L88.67,265.42L93.6,250.35L98.52,218.32L103.45,197.18L108.38,189.33L113.3,196.16L118.23,196.16L123.15,196.16L128.08,229.97L133.01,182.49L137.93,247.95L142.86,260.99L147.79,244.65L152.71,201.86L157.64,199.2L162.56,221.49L167.49,200.72L172.42,206.17L177.34,192.24L182.27,199.2L187.19,201.99L192.12,201.99L197.05,200.72L201.97,203L206.9,196.16L211.83,186.8L216.75,196.16L221.68,189.33L226.6,200.72L231.53,193.76L236.46,193.76L241.38,193.76L246.31,250.48L251.23,203L256.16,203L266.01,188.95L270.94,177.68L275.87,187.43L280.79,194.64L285.72,199.2L290.64,193.76L295.57,188.19L300.5,181.35L305.42,209.08L310.35,191.99L315.28,191.99L320.2,179.83L325.13,189.83L330.05,179.96L334.98,185.4L339.91,185.4L344.83,197.68L349.76,204.65L354.68,193.76L359.61,188.19L364.54,181.35L369.46,203L374.39,181.35L379.32,181.35L384.24,181.35L389.17,175.65L394.09,182.49L399.02,181.35L403.95,179.96L408.87,196.92L413.8,164.13L418.72,169.96L423.65,169.96L428.58,164.13L433.5,172.74L438.43,172.74L443.36,164.51L448.28,191.1L453.21,191.1L458.13,184.39L463.06,150.59L467.99,160.71L472.91,179.83L477.84,169.7L482.77,174.89L487.69,176.67L492.62,171.48L497.54,174.89L502.47,164.51L507.4,177.68L517.25,177.68L522.17,149.7L527.1,142.99L532.03,144L536.95,144L541.88,137.29L546.81,174.89L551.73,191.1L556.66,167.68L561.58,229.97L566.51,229.97L571.44,204.52L576.36,173.12L581.29,166.16L586.21,191.99L591.14,196.92L596.07,194.64L600.99,194.64L605.92,174.89L610.85,179.83L615.77,191.99L620.7,186.92L630.55,196.92L635.48,191.99L640.4,181.86L645.33,183.76L650.26,194.01L655.18,194.01L660.11,181.86L665.03,176.67L674.89,155.27L679.81,176.67L684.74,181.86L689.66,181.86L694.59,189.83L699.52,189.83L709.37,179.83L714.3,172.74L719.22,146.03L724.15,151.6L729.07,151.6L734,158.81" style="vector-effect: none; fill: none; stroke: rgb(255, 165, 0); stroke-opacity: 1; stroke-width: 2px; opacity: 1;"/></g><g class="points"/><g class="text"/></g><g class="trace scatter trace5d7402" style="stroke-miterlimit: 2; opacity: 1;"><g class="fills"/><g class="errorbars"/><g class="lines"><path class="js-line" d="M0,129.19L4.93,165.78L9.85,222.88L14.78,124.63L19.7,117.67L24.63,115.9L29.56,115.39L34.48,120.71L39.41,122.48L49.26,103.11L54.19,106.4L59.11,76.77L64.04,73.1L73.89,64.37L78.82,64.49L83.74,61.71L88.67,150.84L93.6,147.04L98.52,57.66L103.45,109.06L108.38,106.78L113.3,104.12L118.23,103.61L123.15,103.61L128.08,105.77L133.01,92.85L137.93,105.26L142.86,120.2L147.79,114.12L152.71,74.49L157.64,102.6L162.56,116.02L167.49,115.9L172.42,112.6L177.34,112.6L182.27,113.87L187.19,124.76L192.12,123.24L197.05,117.16L201.97,117.79L206.9,108.81L211.83,81.08L216.75,100.32L221.68,75.13L226.6,72.85L231.53,72.6L236.46,77.41L241.38,73.35L246.31,128.43L251.23,98.42L256.16,103.49L261.09,102.98L266.01,59.3L270.94,61.58L275.87,62.59L280.79,59.05L285.72,94.12L290.64,86.02L295.57,91.21L300.5,88.93L305.42,53.1L315.28,62.59L320.2,58.29L325.13,50.82L330.05,76.77L334.98,72.72L339.91,73.23L344.83,89.81L349.76,86.27L354.68,87.79L359.61,85.13L364.54,79.81L369.46,108.81L374.39,76.77L379.32,73.1L384.24,75.38L389.17,71.58L394.09,79.05L399.02,74.87L403.95,73.1L408.87,60.82L413.8,82.47L418.72,84.62L423.65,81.2L428.58,86.02L433.5,44.87L438.43,43.98L443.36,38.92L448.28,85.89L458.13,85.38L463.06,36.13L467.99,34.74L472.91,40.44L477.84,39.68L482.77,47.15L487.69,43.98L492.62,35.75L497.54,38.92L502.47,30.44L507.4,90.83L512.32,89.05L517.25,89.56L522.17,37.02L527.1,30.56L532.03,26.76L536.95,31.57L541.88,33.6L546.81,30.44L551.73,89.18L556.66,19.8L561.58,77.03L566.51,75.76L571.44,69.81L576.36,27.02L581.29,22.33L586.21,37.4L591.14,32.97L596.07,32.21L600.99,32.97L605.92,26.76L610.85,40.94L615.77,35.25L620.7,36.26L630.55,32.71L635.48,33.98L640.4,39.8L645.33,28.03L650.26,36.26L655.18,31.07L660.11,33.73L665.03,30.56L669.96,32.97L674.89,22.08L679.81,30.56L684.74,40.82L689.66,34.23L694.59,33.98L699.52,30.94L704.44,31.95L709.37,39.04L714.3,36.26L719.22,63.35L724.15,65.89L729.07,62.85L734,64.11" style="vector-effect: none; fill: none; stroke: rgb(128, 0, 128); stroke-opacity: 1; stroke-width: 2px; opacity: 1;"/></g><g class="points"/><g class="text"/></g><g class="trace scatter tracecb0bc5" style="stroke-miterlimit: 2; opacity: 1;"><g class="fills"/><g class="errorbars"/><g class="lines"><path class="js-line" d="M0,145.9L9.85,295.42L14.78,223.76L19.7,221.74L24.63,193.25L29.56,202.62L34.48,207.43L39.41,200.6L44.34,208.7L49.26,202.62L54.19,202.62L59.11,179.71L64.04,184.39L68.97,195.15L73.89,223.51L78.82,212.75L83.74,196.54L88.67,260.48L93.6,240.22L98.52,205.91L103.45,195.91L108.38,184.39L113.3,192.49L123.15,192.49L128.08,214.65L133.01,176.29L137.93,233.51L142.86,247.69L147.79,230.22L152.71,186.29L157.64,190.47L162.56,218.19L167.49,193.89L172.42,198.57L177.34,182.36L187.19,197.18L192.12,197.18L197.05,193.89L201.97,200.6L206.9,192.49L211.83,177.55L216.75,192.49L221.68,184.39L226.6,193.89L231.53,185.66L241.38,185.66L246.31,238.83L251.23,200.6L256.16,200.6L261.09,192.49L266.01,175.53L270.94,160.59L275.87,170.08L280.79,178.19L285.72,190.47L295.57,180.97L300.5,172.87L305.42,194.39L310.35,176.92L315.28,176.92L320.2,164.01L325.13,173.5L330.05,169.45L334.98,174.26L339.91,174.26L344.83,187.05L349.76,195.15L354.68,185.66L359.61,180.97L364.54,172.87L369.46,200.6L374.39,172.87L379.32,172.87L384.24,172.87L389.17,168.18L394.09,176.29L399.02,172.87L403.95,169.45L408.87,179.58L413.8,158.69L418.72,163.37L423.65,163.37L428.58,158.69L433.5,155.9L438.43,155.9L443.36,149.83L448.28,191.1L453.21,191.1L458.13,183L463.06,133.62L467.99,143.12L472.91,164.01L477.84,154.64L482.77,159.32L487.69,162.74L492.62,157.93L497.54,159.32L502.47,149.83L507.4,174.89L517.25,174.89L522.17,139.06L527.1,130.96L532.03,134.38L536.95,134.38L541.88,126.28L551.73,191.1L556.66,156.66L561.58,215.28L566.51,215.28L576.36,161.35L581.29,153.24L586.21,176.92L591.14,181.6L596.07,178.19L600.99,178.19L605.92,159.32L610.85,164.01L615.77,176.92L620.7,172.11L630.55,181.6L635.48,176.92L640.4,167.42L645.33,170.84L650.26,180.21L655.18,180.21L660.11,167.42L665.03,162.74L674.89,143.75L679.81,162.74L684.74,167.42L689.66,167.42L694.59,173.5L699.52,173.5L709.37,164.01L714.3,155.9L719.22,144.51L724.15,145.9L729.07,145.9L734,157.42" style="vector-effect: none; fill: none; stroke: rgb(255, 192, 203); stroke-opacity: 1; stroke-width: 2px; opacity: 1;"/></g><g class="points"/><g class="text"/></g><g class="trace scatter trace7eaa38" style="stroke-miterlimit: 2; opacity: 1;"><g class="fills"/><g class="errorbars"/><g class="lines"><path class="js-line" d="M0,130.08L4.93,163.12L9.85,278.71L14.78,117.41L19.7,112.22L24.63,111.59L29.56,113.24L34.48,118.3L39.41,122.1L49.26,102.35L54.19,104.75L59.11,80.7L64.04,77.41L68.97,77.15L73.89,71.58L78.82,70.57L83.74,68.67L88.67,184.77L93.6,171.98L98.52,65.38L103.45,107.67L113.3,102.85L118.23,102.6L123.15,102.6L128.08,120.45L133.01,95.26L137.93,120.33L142.86,137.92L147.79,131.97L152.71,84.24L157.64,106.53L162.56,115.01L167.49,117.29L172.42,115.01L177.34,115.01L182.27,116.4L187.19,124L192.12,123.24L197.05,118.68L201.97,116.65L206.9,108.3L211.83,85.13L216.75,100.2L221.68,78.17L226.6,76.27L231.53,75.25L236.46,79.94L241.38,76.52L246.31,150.97L251.23,96.9L256.16,103.36L261.09,103.11L266.01,68.04L270.94,69.68L275.87,72.22L280.79,69.05L285.72,96.65L290.64,87.03L295.57,92.73L300.5,90.95L305.42,61.96L310.35,67.78L315.28,72.22L320.2,67.78L325.13,60.31L330.05,82.72L334.98,79.31L339.91,79.56L344.83,94.12L349.76,90.83L354.68,91.46L359.61,88.55L364.54,83.74L369.46,108.3L374.39,80.7L379.32,77.41L384.24,79.18L389.17,74.87L394.09,82.47L399.02,79.05L403.95,77.41L408.87,70.7L413.8,83.74L418.72,86.4L423.65,82.34L428.58,87.03L433.5,53.1L438.43,51.83L443.36,46.01L448.28,83.61L453.21,83.36L458.13,83.36L463.06,44.11L467.99,42.72L472.91,48.67L477.84,47.27L482.77,54.74L487.69,51.83L492.62,42.97L497.54,46.01L502.47,38.16L507.4,90.07L512.32,88.29L517.25,88.55L522.17,42.08L532.03,32.71L536.95,37.4L546.81,38.16L551.73,87.66L556.66,25.24L561.58,93.23L566.51,91.71L571.44,84.5L576.36,33.98L581.29,28.16L586.21,45.63L591.14,41.07L596.07,39.8L600.99,41.07L605.92,32.71L610.85,48.79L615.77,42.84L620.7,43.1L625.62,42.59L630.55,39.93L635.48,41.32L640.4,46.26L645.33,34.23L650.26,43.1L655.18,37.27L660.11,40.18L665.03,37.15L669.96,38.79L674.89,27.02L679.81,37.15L684.74,46.51L689.66,40.31L694.59,41.32L699.52,38.28L704.44,38.54L709.37,44.87L714.3,43.1L719.22,61.45L724.15,64.37L729.07,61.2L734,62.59" style="vector-effect: none; fill: none; stroke: rgb(165, 42, 42); stroke-opacity: 1; stroke-width: 2px; opacity: 1;"/></g><g class="points"/><g class="text"/></g><g class="trace scatter trace2458d0" style="stroke-miterlimit: 2; opacity: 1;"><g class="fills"/><g class="errorbars"/><g class="lines"><path class="js-line" d="M0,149.07L4.93,216.29L9.85,376.2L14.78,215.16L19.7,214.02L24.63,190.09L29.56,200.85L34.48,206.17L39.41,201.86L44.34,209.33L49.26,200.85L54.19,200.85L59.11,181.86L64.04,187.18L68.97,201.61L73.89,234.02L78.82,219.59L83.74,205.41L88.67,307.96L93.6,279.47L98.52,216.17L103.45,196.54L108.38,187.18L113.3,194.52L118.23,194.52L123.15,194.52L128.08,233.77L133.01,179.96L137.93,255.8L142.86,272.26L147.79,254.66L152.71,200.85L157.64,196.29L162.56,219.97L167.49,198.06L172.42,203.38L177.34,189.07L182.27,196.29L187.19,199.96L192.12,199.96L197.05,198.06L201.97,201.86L206.9,194.52L211.83,183.63L216.75,194.52L221.68,187.18L226.6,198.06L231.53,190.85L236.46,190.85L241.38,190.85L246.31,274.41L251.23,201.86L256.16,201.86L266.01,185.91L270.94,176.16L275.87,187.18L280.79,194.01L285.72,196.29L290.64,190.85L295.57,185.4L300.5,178.19L305.42,207.69L310.35,189.83L315.28,189.83L320.2,177.55L325.13,188.57L330.05,176.54L334.98,181.98L339.91,181.98L344.83,194.52L349.76,201.61L354.68,190.85L359.61,185.4L364.54,178.19L369.46,201.86L374.39,178.19L379.32,178.19L384.24,178.19L389.17,172.74L394.09,179.96L399.02,178.19L403.95,176.54L408.87,198.32L413.8,161.85L418.72,167.3L423.65,167.3L428.58,161.85L433.5,170.72L438.43,170.72L443.36,160.97L448.28,191.1L453.21,191.1L458.13,183.76L463.06,147.17L467.99,158.31L472.91,177.55L477.84,166.54L482.77,171.98L487.69,173.37L492.62,167.93L497.54,171.98L502.47,160.97L507.4,176.41L517.25,176.41L522.17,145.9L527.1,138.81L532.03,140.33L536.95,140.33L541.88,133.24L546.81,171.98L551.73,191.1L556.66,164.01L561.58,246.3L566.51,246.3L571.44,212.62L576.36,169.45L581.29,162.49L586.21,189.83L591.14,195.4L596.07,194.01L600.99,194.01L605.92,171.98L610.85,177.55L615.77,189.83L620.7,184.39L630.55,195.4L635.48,189.83L640.4,178.95L645.33,180.46L650.26,191.35L655.18,191.35L660.11,178.95L665.03,173.37L674.89,151.35L679.81,173.37L684.74,178.95L689.66,178.95L694.59,188.57L699.52,188.57L709.37,177.55L714.3,170.72L719.22,145.27L724.15,149.07L729.07,149.07L734,158.18" style="vector-effect: none; fill: none; stroke: rgb(128, 128, 128); stroke-opacity: 1; stroke-width: 2px; opacity: 1;"/></g><g class="points"/><g class="text"/></g></g></g><g class="overplot"/><path class="xlines-above crisp" d="M0,0" style="fill: none;"/><path class="ylines-above crisp" d="M0,0" style="fill: none;"/><g class="overlines-above"/><g class="xaxislayer-above"><g class="xtick"><text text-anchor="middle" x="0" y="509" transform="translate(228.6,0)" style="font-family: 'Open Sans', verdana, arial, sans-serif; font-size: 12px; fill: rgb(42, 63, 95); fill-opacity: 1; white-space: pre; opacity: 1;">20</text></g><g class="xtick"><text text-anchor="middle" x="0" y="509" style="font-family: 'Open Sans', verdana, arial, sans-serif; font-size: 12px; fill: rgb(42, 63, 95); fill-opacity: 1; white-space: pre; opacity: 1;" transform="translate(327.12,0)">40</text></g><g class="xtick"><text text-anchor="middle" x="0" y="509" style="font-family: 'Open Sans', verdana, arial, sans-serif; font-size: 12px; fill: rgb(42, 63, 95); fill-opacity: 1; white-space: pre; opacity: 1;" transform="translate(425.64,0)">60</text></g><g class="xtick"><text text-anchor="middle" x="0" y="509" style="font-family: 'Open Sans', verdana, arial, sans-serif; font-size: 12px; fill: rgb(42, 63, 95); fill-opacity: 1; white-space: pre; opacity: 1;" transform="translate(524.1700000000001,0)">80</text></g><g class="xtick"><text text-anchor="middle" x="0" y="509" style="font-family: 'Open Sans', verdana, arial, sans-serif; font-size: 12px; fill: rgb(42, 63, 95); fill-opacity: 1; white-space: pre; opacity: 1;" transform="translate(622.69,0)">100</text></g><g class="xtick"><text text-anchor="middle" x="0" y="509" style="font-family: 'Open Sans', verdana, arial, sans-serif; font-size: 12px; fill: rgb(42, 63, 95); fill-opacity: 1; white-space: pre; opacity: 1;" transform="translate(721.21,0)">120</text></g><g class="xtick"><text text-anchor="middle" x="0" y="509" style="font-family: 'Open Sans', verdana, arial, sans-serif; font-size: 12px; fill: rgb(42, 63, 95); fill-opacity: 1; white-space: pre; opacity: 1;" transform="translate(819.74,0)">140</text></g></g><g class="yaxislayer-above"><g class="ytick"><text text-anchor="end" x="134" y="4.199999999999999" transform="translate(0,475.69)" style="font-family: 'Open Sans', verdana, arial, sans-serif; font-size: 12px; fill: rgb(42, 63, 95); fill-opacity: 1; white-space: pre; opacity: 1;">55</text></g><g class="ytick"><text text-anchor="end" x="134" y="4.199999999999999" style="font-family: 'Open Sans', verdana, arial, sans-serif; font-size: 12px; fill: rgb(42, 63, 95); fill-opacity: 1; white-space: pre; opacity: 1;" transform="translate(0,412.39)">60</text></g><g class="ytick"><text text-anchor="end" x="134" y="4.199999999999999" style="font-family: 'Open Sans', verdana, arial, sans-serif; font-size: 12px; fill: rgb(42, 63, 95); fill-opacity: 1; white-space: pre; opacity: 1;" transform="translate(0,349.09000000000003)">65</text></g><g class="ytick"><text text-anchor="end" x="134" y="4.199999999999999" style="font-family: 'Open Sans', verdana, arial, sans-serif; font-size: 12px; fill: rgb(42, 63, 95); fill-opacity: 1; white-space: pre; opacity: 1;" transform="translate(0,285.78)">70</text></g><g class="ytick"><text text-anchor="end" x="134" y="4.199999999999999" style="font-family: 'Open Sans', verdana, arial, sans-serif; font-size: 12px; fill: rgb(42, 63, 95); fill-opacity: 1; white-space: pre; opacity: 1;" transform="translate(0,222.48000000000002)">75</text></g><g class="ytick"><text text-anchor="end" x="134" y="4.199999999999999" style="font-family: 'Open Sans', verdana, arial, sans-serif; font-size: 12px; fill: rgb(42, 63, 95); fill-opacity: 1; white-space: pre; opacity: 1;" transform="translate(0,159.17000000000002)">80</text></g></g><g class="overaxes-above"/></g></g><g class="polarlayer"/><g class="smithlayer"/><g class="ternarylayer"/><g class="geolayer"/><g class="funnelarealayer"/><g class="pielayer"/><g class="iciclelayer"/><g class="treemaplayer"/><g class="sunburstlayer"/><g class="glimages"/><defs id="topdefs-ef95fb"><g class="clips"/><clipPath id="legendef95fb"><rect width="128" height="162" x="0" y="0"/></clipPath></defs><g class="layer-above"><g class="imagelayer"/><g class="shapelayer"/></g><g class="infolayer"><g class="legend" pointer-events="all" transform="translate(883.6800000000001,100)"><rect class="bg" shape-rendering="crispEdges" width="128" height="162" x="0" y="0" style="stroke: rgb(68, 68, 68); stroke-opacity: 1; fill: rgb(255, 255, 255); fill-opacity: 1; stroke-width: 0px;"/><g class="scrollbox" transform="" clip-path="url(#legendef95fb)"><g class="groups"><g class="traces" transform="translate(0,14.5)" style="opacity: 1;"><text class="legendtext" text-anchor="start" x="40" y="4.680000000000001" style="font-family: 'Open Sans', verdana, arial, sans-serif; font-size: 12px; fill: rgb(42, 63, 95); fill-opacity: 1; white-space: pre;">Train Accuracy</text><g class="layers" style="opacity: 1;"><g class="legendfill"/><g class="legendlines"><path class="js-line" d="M5,0h30" style="fill: none; stroke: rgb(255, 0, 0); stroke-opacity: 1; stroke-width: 2px;"/></g><g class="legendsymbols"><g class="legendpoints"/></g></g><rect class="legendtoggle" x="0" y="-9.5" width="122.71875" height="19" style="fill: rgb(0, 0, 0); fill-opacity: 0;"/></g><g class="traces" transform="translate(0,33.5)" style="opacity: 1;"><text class="legendtext" text-anchor="start" x="40" y="4.680000000000001" style="font-family: 'Open Sans', verdana, arial, sans-serif; font-size: 12px; fill: rgb(42, 63, 95); fill-opacity: 1; white-space: pre;">Test Accuracy</text><g class="layers" style="opacity: 1;"><g class="legendfill"/><g class="legendlines"><path class="js-line" d="M5,0h30" style="fill: none; stroke: rgb(0, 0, 255); stroke-opacity: 1; stroke-width: 2px;"/></g><g class="legendsymbols"><g class="legendpoints"/></g></g><rect class="legendtoggle" x="0" y="-9.5" width="122.71875" height="19" style="fill: rgb(0, 0, 0); fill-opacity: 0;"/></g><g class="traces" transform="translate(0,52.5)" style="opacity: 1;"><text class="legendtext" text-anchor="start" x="40" y="4.680000000000001" style="font-family: 'Open Sans', verdana, arial, sans-serif; font-size: 12px; fill: rgb(42, 63, 95); fill-opacity: 1; white-space: pre;">Train Precision</text><g class="layers" style="opacity: 1;"><g class="legendfill"/><g class="legendlines"><path class="js-line" d="M5,0h30" style="fill: none; stroke: rgb(0, 128, 0); stroke-opacity: 1; stroke-width: 2px;"/></g><g class="legendsymbols"><g class="legendpoints"/></g></g><rect class="legendtoggle" x="0" y="-9.5" width="122.71875" height="19" style="fill: rgb(0, 0, 0); fill-opacity: 0;"/></g><g class="traces" transform="translate(0,71.5)" style="opacity: 1;"><text class="legendtext" text-anchor="start" x="40" y="4.680000000000001" style="font-family: 'Open Sans', verdana, arial, sans-serif; font-size: 12px; fill: rgb(42, 63, 95); fill-opacity: 1; white-space: pre;">Test Precision</text><g class="layers" style="opacity: 1;"><g class="legendfill"/><g class="legendlines"><path class="js-line" d="M5,0h30" style="fill: none; stroke: rgb(255, 165, 0); stroke-opacity: 1; stroke-width: 2px;"/></g><g class="legendsymbols"><g class="legendpoints"/></g></g><rect class="legendtoggle" x="0" y="-9.5" width="122.71875" height="19" style="fill: rgb(0, 0, 0); fill-opacity: 0;"/></g><g class="traces" transform="translate(0,90.5)" style="opacity: 1;"><text class="legendtext" text-anchor="start" x="40" y="4.680000000000001" style="font-family: 'Open Sans', verdana, arial, sans-serif; font-size: 12px; fill: rgb(42, 63, 95); fill-opacity: 1; white-space: pre;">Train Recall</text><g class="layers" style="opacity: 1;"><g class="legendfill"/><g class="legendlines"><path class="js-line" d="M5,0h30" style="fill: none; stroke: rgb(128, 0, 128); stroke-opacity: 1; stroke-width: 2px;"/></g><g class="legendsymbols"><g class="legendpoints"/></g></g><rect class="legendtoggle" x="0" y="-9.5" width="122.71875" height="19" style="fill: rgb(0, 0, 0); fill-opacity: 0;"/></g><g class="traces" transform="translate(0,109.5)" style="opacity: 1;"><text class="legendtext" text-anchor="start" x="40" y="4.680000000000001" style="font-family: 'Open Sans', verdana, arial, sans-serif; font-size: 12px; fill: rgb(42, 63, 95); fill-opacity: 1; white-space: pre;">Test Recall</text><g class="layers" style="opacity: 1;"><g class="legendfill"/><g class="legendlines"><path class="js-line" d="M5,0h30" style="fill: none; stroke: rgb(255, 192, 203); stroke-opacity: 1; stroke-width: 2px;"/></g><g class="legendsymbols"><g class="legendpoints"/></g></g><rect class="legendtoggle" x="0" y="-9.5" width="122.71875" height="19" style="fill: rgb(0, 0, 0); fill-opacity: 0;"/></g><g class="traces" transform="translate(0,128.5)" style="opacity: 1;"><text class="legendtext" text-anchor="start" x="40" y="4.680000000000001" style="font-family: 'Open Sans', verdana, arial, sans-serif; font-size: 12px; fill: rgb(42, 63, 95); fill-opacity: 1; white-space: pre;">Train F1</text><g class="layers" style="opacity: 1;"><g class="legendfill"/><g class="legendlines"><path class="js-line" d="M5,0h30" style="fill: none; stroke: rgb(165, 42, 42); stroke-opacity: 1; stroke-width: 2px;"/></g><g class="legendsymbols"><g class="legendpoints"/></g></g><rect class="legendtoggle" x="0" y="-9.5" width="122.71875" height="19" style="fill: rgb(0, 0, 0); fill-opacity: 0;"/></g><g class="traces" transform="translate(0,147.5)" style="opacity: 1;"><text class="legendtext" text-anchor="start" x="40" y="4.680000000000001" style="font-family: 'Open Sans', verdana, arial, sans-serif; font-size: 12px; fill: rgb(42, 63, 95); fill-opacity: 1; white-space: pre;">Test F1</text><g class="layers" style="opacity: 1;"><g class="legendfill"/><g class="legendlines"><path class="js-line" d="M5,0h30" style="fill: none; stroke: rgb(128, 128, 128); stroke-opacity: 1; stroke-width: 2px;"/></g><g class="legendsymbols"><g class="legendpoints"/></g></g><rect class="legendtoggle" x="0" y="-9.5" width="122.71875" height="19" style="fill: rgb(0, 0, 0); fill-opacity: 0;"/></g></g></g><rect class="scrollbar" rx="20" ry="3" width="0" height="0" x="0" y="0" style="fill: rgb(128, 139, 164); fill-opacity: 1;"/></g><g class="g-gtitle"><text class="gtitle" x="51.2" y="50" text-anchor="start" dy="0em" style="font-family: 'Open Sans', verdana, arial, sans-serif; font-size: 17px; fill: rgb(42, 63, 95); opacity: 1; font-weight: normal; white-space: pre;">Training Metrics - logs/FakeNewsNet-politifact_max-vocab=15000_pre=v1_text_domain_T=250_s=5.log</text></g><g class="g-xtitle"><text class="xtitle" x="502" y="537.3" text-anchor="middle" style="font-family: 'Open Sans', verdana, arial, sans-serif; font-size: 14px; fill: rgb(42, 63, 95); opacity: 1; font-weight: normal; white-space: pre;">Epoch</text></g><g class="g-ytitle"><text class="ytitle" transform="rotate(-90,95.965625,298)" x="95.965625" y="298" text-anchor="middle" style="font-family: 'Open Sans', verdana, arial, sans-serif; font-size: 14px; fill: rgb(42, 63, 95); opacity: 1; font-weight: normal; white-space: pre;">Metric Score</text></g></g><g class="menulayer"><g class="updatemenu-container" style="cursor: pointer;"><g class="updatemenu-header-group" transform="translate(12,60)"><g class="updatemenu-header" transform="translate(1,1)" style="pointer-events: all;"><rect class="updatemenu-item-rect" rx="2" ry="2" shape-rendering="crispEdges" x="0" y="0" width="160" height="33" style="stroke: rgb(190, 200, 217); stroke-opacity: 1; fill: rgb(255, 255, 255); fill-opacity: 1; stroke-width: 1px;"/><text class="updatemenu-item-text" text-anchor="start" data-notex="1" x="12" y="19.5" style="font-family: 'Open Sans', verdana, arial, sans-serif; font-size: 12px; fill: rgb(42, 63, 95); fill-opacity: 1; white-space: pre;">All</text></g><text class="updatemenu-header-arrow" text-anchor="end" x="156" y="19.5" style="font-family: 'Open Sans', verdana, arial, sans-serif; font-size: 12px; fill: rgb(42, 63, 95); fill-opacity: 1;">▼</text></g><g class="updatemenu-dropdown-button-group" updatemenu-active-index="-1" style="pointer-events: all;"><rect class="scrollbox-bg" opacity="0" x="0" y="0" width="0" height="0" style="pointer-events: all;"/></g></g></g></svg>