<svg class="main-svg" xmlns="http://www.w3.org/2000/svg" xmlns:xlink="http://www.w3.org/1999/xlink" width="1024" height="576" style="" viewBox="0 0 1024 576"><rect x="0" y="0" width="1024" height="576" style="fill: rgb(255, 255, 255); fill-opacity: 1;"/><defs id="defs-a6a164"><g class="clips"><clipPath id="clipa6a164xyplot" class="plotclip"><rect width="726" height="396"/></clipPath><clipPath class="axesclip" id="clipa6a164x"><rect x="143" y="0" width="726" height="576"/></clipPath><clipPath class="axesclip" id="clipa6a164y"><rect x="0" y="100" width="1024" height="396"/></clipPath><clipPath class="axesclip" id="clipa6a164xy"><rect x="143" y="100" width="726" height="396"/></clipPath></g><g class="gradients"/><g class="patterns"/></defs><g class="bglayer"><rect class="bg" x="143" y="100" width="726" height="396" style="fill: rgb(229, 236, 246); fill-opacity: 1; stroke-width: 0;"/></g><g class="layer-below"><g class="imagelayer"/><g class="shapelayer"/></g><g class="cartesianlayer"><g class="subplot xy"><g class="layer-subplot"><g class="shapelayer"/><g class="imagelayer"/></g><g class="minor-gridlayer"><g class="x"/><g class="y"/></g><g class="gridlayer"><g class="x"><path class="xgrid crisp" transform="translate(235.57999999999998,0)" d="M0,100v396" style="stroke: rgb(255, 255, 255); stroke-opacity: 1; stroke-width: 1px;"/><path class="xgrid crisp" transform="translate(333.03,0)" d="M0,100v396" style="stroke: rgb(255, 255, 255); stroke-opacity: 1; stroke-width: 1px;"/><path class="xgrid crisp" transform="translate(430.48,0)" d="M0,100v396" style="stroke: rgb(255, 255, 255); stroke-opacity: 1; stroke-width: 1px;"/><path class="xgrid crisp" transform="translate(527.9300000000001,0)" d="M0,100v396" style="stroke: rgb(255, 255, 255); stroke-opacity: 1; stroke-width: 1px;"/><path class="xgrid crisp" transform="translate(625.38,0)" d="M0,100v396" style="stroke: rgb(255, 255, 255); stroke-opacity: 1; stroke-width: 1px;"/><path class="xgrid crisp" transform="translate(722.83,0)" d="M0,100v396" style="stroke: rgb(255, 255, 255); stroke-opacity: 1; stroke-width: 1px;"/><path class="xgrid crisp" transform="translate(820.28,0)" d="M0,100v396" style="stroke: rgb(255, 255, 255); stroke-opacity: 1; stroke-width: 1px;"/></g><g class="y"><path class="ygrid crisp" transform="translate(0,469.41)" d="M143,0h726" style="stroke: rgb(255, 255, 255); stroke-opacity: 1; stroke-width: 1px;"/><path class="ygrid crisp" transform="translate(0,425.6)" d="M143,0h726" style="stroke: rgb(255, 255, 255); stroke-opacity: 1; stroke-width: 1px;"/><path class="ygrid crisp" transform="translate(0,381.79)" d="M143,0h726" style="stroke: rgb(255, 255, 255); stroke-opacity: 1; stroke-width: 1px;"/><path class="ygrid crisp" transform="translate(0,337.98)" d="M143,0h726" style="stroke: rgb(255, 255, 255); stroke-opacity: 1; stroke-width: 1px;"/><path class="ygrid crisp" transform="translate(0,294.16999999999996)" d="M143,0h726" style="stroke: rgb(255, 255, 255); stroke-opacity: 1; stroke-width: 1px;"/><path class="ygrid crisp" transform="translate(0,250.36)" d="M143,0h726" style="stroke: rgb(255, 255, 255); stroke-opacity: 1; stroke-width: 1px;"/><path class="ygrid crisp" transform="translate(0,206.55)" d="M143,0h726" style="stroke: rgb(255, 255, 255); stroke-opacity: 1; stroke-width: 1px;"/><path class="ygrid crisp" transform="translate(0,162.73)" d="M143,0h726" style="stroke: rgb(255, 255, 255); stroke-opacity: 1; stroke-width: 1px;"/><path class="ygrid crisp" transform="translate(0,118.92)" d="M143,0h726" style="stroke: rgb(255, 255, 255); stroke-opacity: 1; stroke-width: 1px;"/></g></g><g class="zerolinelayer"/><path class="xlines-below"/><path class="ylines-below"/><g class="overlines-below"/><g class="xaxislayer-below"/><g class="yaxislayer-below"/><g class="overaxes-below"/><g class="plot" transform="translate(143,100)" clip-path="url(#clipa6a164xyplot)"><g class="scatterlayer mlayer"><g class="trace scatter trace5ebaa7" style="stroke-miterlimit: 2; opacity: 1;"><g class="fills"/><g class="errorbars"/><g class="lines"><path class="js-line" d="M0,215.85L4.87,158.68L9.74,124.07L14.62,129.33L19.49,111.58L24.36,99.97L29.23,83.11L34.11,74.78L38.98,61.86L43.85,47.62L48.72,53.75L53.6,42.8L58.47,39.08L63.34,37.32L68.21,30.97L73.09,28.12L77.96,69.31L82.83,59.67L87.7,52L92.58,68.43L97.45,66.68L102.32,76.1L107.19,67.77L112.07,75L116.94,67.55L121.81,52.66L126.68,42.14L131.56,49.37L136.43,46.09L141.3,49.15L146.17,89.46L151.05,90.55L155.92,83.11L160.79,71.72L165.66,66.46L170.54,33.16L175.41,48.28L180.28,41.27L185.15,130.86L190.03,42.58L194.9,22.43L199.77,27.25L204.64,41.92L209.52,52.44L214.39,49.37L219.26,51.34L224.13,24.84L229.01,24.62L233.88,35.79L238.75,36.01L243.62,41.71L248.5,47.18L253.37,37.32L258.24,66.9L263.11,65.8L267.99,68.21L272.86,65.14L277.73,68.43L282.6,63.17L287.48,62.52L292.35,39.73L297.22,56.38L302.09,41.71L306.97,42.14L311.84,82.67L316.71,109.17L321.58,105.01L326.46,45.65L331.33,41.71L336.2,44.77L341.07,51.56L345.95,62.73L350.82,52.66L355.69,48.72L360.56,52.44L365.44,43.46L370.31,44.55L375.18,62.73L380.05,65.58L384.93,93.84L389.8,70.84L394.67,69.09L399.54,45.21L404.42,58.13L409.29,55.51L414.16,33.38L419.03,19.8L423.91,36.01L428.78,56.82L433.65,44.99L438.52,40.17L443.4,42.14L448.27,46.09L453.14,44.33L458.01,40.17L462.89,49.37L467.76,70.62L472.63,47.4L477.5,42.58L482.38,49.59L487.25,60.76L492.12,62.73L496.99,76.97L501.87,78.51L506.74,42.58L511.61,59.89L516.48,54.63L521.36,49.37L526.23,52.88L531.1,56.6L535.97,99.32L540.85,99.32L545.72,108.95L550.59,109.17L555.46,111.8L560.34,73.91L565.21,68.65L570.08,81.57L574.95,73.69L579.83,93.4L584.7,73.47L589.57,62.52L594.44,67.77L599.32,60.98L604.19,48.28L609.06,57.48L613.93,34.91L618.81,38.64L623.68,116.18L628.55,48.06L633.42,46.09L638.3,52.88L643.17,55.51L648.04,40.61L652.91,40.61L657.79,41.05L662.66,62.08L667.53,60.11L672.4,52L677.28,45.65L682.15,42.58L687.02,34.91L691.89,39.73L696.77,34.26L701.64,48.93L706.51,35.35L711.38,44.77L716.26,44.33L721.13,51.34L726,40.83" style="vector-effect: none; fill: none; stroke: rgb(255, 0, 0); stroke-opacity: 1; stroke-width: 2px; opacity: 1;"/></g><g class="points"/><g class="text"/></g><g class="trace scatter traced3b8e8" style="stroke-miterlimit: 2; opacity: 1;"><g class="fills"/><g class="errorbars"/><g class="lines"><path class="js-line" d="M0,217.61L4.87,175.55L9.74,153.64L14.62,141.37L19.49,124.07L29.23,99.75L34.11,93.84L38.98,80.92L43.85,71.06L48.72,69.09L53.6,71.06L58.47,55.29L63.34,52.22L68.21,47.84L73.09,40.83L77.96,83.98L82.83,78.07L87.7,75.44L92.58,86.83L97.45,80.92L102.32,82.89L107.19,90.34L112.07,88.36L116.94,85.52L121.81,62.08L126.68,53.75L131.56,57.7L136.43,52.66L141.3,51.78L146.17,106.76L151.05,90.34L155.92,90.77L160.79,80.48L165.66,76.53L170.54,47.4L175.41,70.62L180.28,67.12L185.15,138.31L190.03,63.17L194.9,32.51L199.77,49.37L204.64,60.76L209.52,66.68L214.39,64.71L219.26,61.2L224.13,37.32L229.01,32.94L233.88,46.74L238.75,51.78L243.62,56.82L248.5,55.72L253.37,49.37L258.24,78.07L263.11,82.01L267.99,96.25L272.86,78.94L277.73,83.33L282.6,81.35L287.48,73.47L292.35,57.26L297.22,80.92L302.09,63.61L306.97,62.08L311.84,112.68L316.71,147.29L321.58,137.43L326.46,76.97L331.33,61.2L336.2,61.64L341.07,76.53L345.95,81.35L350.82,68.65L355.69,63.17L360.56,71.06L365.44,67.99L370.31,61.64L375.18,78.07L380.05,90.34L384.93,108.08L389.8,75.44L394.67,78.94L399.54,43.9L404.42,60.76L409.29,54.85L414.16,43.46L419.03,32.94L423.91,45.87L428.78,65.58L433.65,54.85L438.52,55.29L443.4,54.19L448.27,59.23L453.14,60.11L458.01,61.64L462.89,66.02L467.76,80.48L472.63,67.55L477.5,66.68L482.38,64.05L487.25,58.13L492.12,71.5L496.99,91.87L501.87,87.49L506.74,67.12L511.61,71.06L516.48,57.7L521.36,63.17L526.23,64.05L531.1,58.79L535.97,109.61L540.85,112.02L545.72,128.89L550.59,134.8L555.46,133.93L560.34,82.89L565.21,82.01L570.08,101.73L574.95,107.64L579.83,118.16L584.7,104.14L589.57,79.38L594.44,74.13L599.32,66.02L604.19,63.17L609.06,72.59L613.93,54.85L618.81,61.64L623.68,121L628.55,53.32L633.42,53.32L638.3,57.7L643.17,67.12L648.04,56.82L652.91,67.55L657.79,66.02L662.66,78.94L667.53,78.51L672.4,75.44L677.28,69.53L682.15,71.5L687.02,53.75L696.77,49.81L701.64,58.79L706.51,47.4L711.38,62.73L716.26,55.29L721.13,63.61L726,50.25" style="vector-effect: none; fill: none; stroke: rgb(0, 0, 255); stroke-opacity: 1; stroke-width: 2px; opacity: 1;"/></g><g class="points"/><g class="text"/></g><g class="trace scatter trace87f9c6" style="stroke-miterlimit: 2; opacity: 1;"><g class="fills"/><g class="errorbars"/><g class="lines"><path class="js-line" d="M0,368.75L9.74,289.67L14.62,286.61L19.49,269.3L24.36,260.76L34.11,244.99L38.98,230.53L43.85,217.17L48.72,224.61L53.6,212.57L58.47,208.84L63.34,206L68.21,197.01L73.09,190.44L77.96,228.34L87.7,216.29L92.58,231.84L97.45,228.34L102.32,233.82L107.19,232.06L112.07,229.43L116.94,225.93L121.81,220.23L126.68,208.62L131.56,216.95L136.43,211.25L141.3,215.41L146.17,235.57L151.05,236.66L155.92,231.62L160.79,229.43L165.66,222.86L170.54,202.27L175.41,221.33L180.28,208.84L185.15,301.28L190.03,212.79L194.9,186.94L199.77,193.29L209.52,209.28L214.39,207.31L219.26,208.62L224.13,183.87L229.01,182.99L233.88,193.95L238.75,193.29L243.62,199.42L248.5,205.12L253.37,196.8L258.24,216.95L263.11,217.17L267.99,218.7L272.86,216.29L277.73,218.92L282.6,212.79L287.48,226.81L292.35,209.72L297.22,227.46L302.09,210.81L306.97,211.47L311.84,244.33L316.71,247.4L321.58,243.89L326.46,200.3L331.33,200.96L336.2,202.05L341.07,207.31L345.95,214.76L350.82,209.94L355.69,205.78L360.56,209.72L365.44,205.34L370.31,203.15L375.18,219.36L380.05,213.66L384.93,231.41L389.8,218.7L394.67,215.41L399.54,196.58L404.42,209.94L409.29,207.97L414.16,193.29L419.03,181.68L423.91,195.48L428.78,216.07L433.65,208.84L438.52,205.34L443.4,205.78L448.27,207.97L453.14,207.53L458.01,198.99L467.76,218.92L472.63,204.68L477.5,200.3L482.38,207.31L487.25,211.47L492.12,212.13L496.99,223.3L501.87,224.61L506.74,192.2L511.61,208.19L516.48,203.15L521.36,206.43L526.23,212.35L531.1,216.95L535.97,245.64L540.85,241.7L545.72,245.86L550.59,245.86L555.46,244.99L560.34,218.92L565.21,215.2L570.08,220.67L574.95,213.44L579.83,229.43L584.7,220.23L589.57,214.54L594.44,219.8L599.32,212.13L604.19,202.93L609.06,215.85L613.93,196.14L618.81,198.99L623.68,258.13L628.55,203.37L633.42,201.83L638.3,208.62L643.17,209.94L648.04,198.99L657.79,201.83L662.66,216.95L667.53,213.01L672.4,206.21L677.28,204.68L682.15,196.8L687.02,186.72L691.89,193.51L696.77,187.16L701.64,197.89L706.51,193.51L711.38,196.14L716.26,194.6L721.13,201.83L726,196.36" style="vector-effect: none; fill: none; stroke: rgb(0, 128, 0); stroke-opacity: 1; stroke-width: 2px; opacity: 1;"/></g><g class="points"/><g class="text"/></g><g class="trace scatter trace0f0026" style="stroke-miterlimit: 2; opacity: 1;"><g class="fills"/><g class="errorbars"/><g class="lines"><path class="js-line" d="M0,376.2L4.87,352.76L9.74,320.56L19.49,285.07L24.36,278.06L29.23,277.19L34.11,271.71L38.98,257.47L43.85,250.9L48.72,247.18L53.6,250.9L58.47,231.62L63.34,227.68L68.21,220.89L73.09,206.87L77.96,248.93L82.83,248.05L87.7,245.64L92.58,254.84L102.32,241.92L107.19,260.32L112.07,245.43L116.94,246.3L121.81,231.41L126.68,223.08L131.56,227.24L136.43,218.26L141.3,217.82L146.17,252.22L151.05,234.47L155.92,239.07L160.79,240.82L165.66,236.44L170.54,221.77L175.41,251.34L180.28,241.48L185.15,311.36L190.03,240.17L194.9,200.52L199.77,223.96L204.64,224.83L209.52,226.59L214.39,227.24L219.26,221.11L224.13,201.18L229.01,194.82L233.88,207.97L238.75,211.03L243.62,216.73L248.5,215.2L253.37,211.91L258.24,231.62L263.11,236.44L267.99,250.24L272.86,231.84L277.73,236.22L282.6,234.03L287.48,240.39L292.35,231.19L297.22,254.41L302.09,236.44L306.97,234.47L311.84,276.53L316.71,286.17L321.58,278.72L326.46,236.44L331.33,225.71L336.2,222.64L341.07,236.66L345.95,238.42L350.82,230.09L355.69,223.3L360.56,231.62L365.44,237.54L370.31,224.18L375.18,237.32L380.05,240.61L384.93,247.83L389.8,224.83L394.67,228.12L399.54,196.36L404.42,214.54L409.29,208.84L414.16,206L419.03,198.99L423.91,206.43L428.78,225.27L433.65,220.89L438.52,224.4L443.4,220.45L448.27,223.08L453.14,226.15L458.01,222.42L462.89,227.9L467.76,228.56L472.63,228.78L477.5,227.46L482.38,223.74L487.25,208.19L492.12,221.77L496.99,237.98L501.87,232.94L506.74,219.8L511.61,221.33L516.48,207.97L521.36,222.42L526.23,225.93L531.1,220.23L535.97,255.28L540.85,253.97L545.72,261.64L550.59,269.52L555.46,264.26L560.34,227.9L565.21,230.09L570.08,240.39L574.95,247.18L579.83,256.16L584.7,255.94L589.57,233.82L594.44,228.34L599.32,221.55L604.19,221.33L609.06,234.47L613.93,220.45L618.81,227.02L623.68,267.55L628.55,210.6L633.42,211.03L638.3,215.41L643.17,224.18L648.04,218.04L652.91,232.28L657.79,231.41L662.66,235.57L667.53,232.94L672.4,231.41L677.28,232.94L682.15,228.78L687.02,208.19L691.89,208.19L696.77,204.02L701.64,208.19L706.51,205.56L711.38,213.01L716.26,205.56L721.13,213.66L726,205.56" style="vector-effect: none; fill: none; stroke: rgb(255, 165, 0); stroke-opacity: 1; stroke-width: 2px; opacity: 1;"/></g><g class="points"/><g class="text"/></g><g class="trace scatter trace2549b3" style="stroke-miterlimit: 2; opacity: 1;"><g class="fills"/><g class="errorbars"/><g class="lines"><path class="js-line" d="M0,300.19L4.87,281.13L9.74,231.62L19.49,199.86L24.36,197.67L29.23,212.13L34.11,209.94L38.98,199.86L43.85,203.15L48.72,208.62L53.6,207.75L58.47,212.57L63.34,205.34L68.21,195.92L73.09,172.7L77.96,168.54L82.83,177.96L87.7,179.05L92.58,182.78L102.32,169.41L107.19,185.4L112.07,159.12L116.94,165.47L121.81,193.29L126.68,189.79L131.56,193.95L136.43,182.56L141.3,187.81L146.17,148.38L151.05,149.26L155.92,148.82L160.79,165.69L165.66,157.8L170.54,217.61L175.41,223.3L180.28,195.92L185.15,249.37L190.03,211.03L194.9,203.15L199.77,202.49L204.64,155.39L209.52,149.7L214.39,152.55L219.26,151.67L224.13,152.98L229.01,149.48L233.88,149.26L238.75,144.66L243.62,148.82L248.5,151.23L253.37,154.52L258.24,138.53L263.11,141.16L267.99,141.16L272.86,140.28L277.73,140.72L282.6,133.49L287.48,182.78L292.35,211.25L302.09,205.12L306.97,205.12L311.84,186.94L316.71,149.26L321.58,146.19L326.46,137.65L331.33,154.74L336.2,147.73L341.07,145.97L345.95,141.37L350.82,151.89L355.69,149.04L360.56,152.33L365.44,166.78L370.31,152.98L375.18,156.49L380.05,131.52L384.93,131.08L389.8,135.46L394.67,129.11L399.54,126.04L404.42,137.21L409.29,136.56L414.16,156.27L419.03,178.83L423.91,154.74L428.78,161.31L433.65,175.55L438.52,182.78L443.4,174.67L448.27,167.66L453.14,173.36L458.01,152.55L462.89,158.02L467.76,136.12L472.63,149.04L477.5,148.6L482.38,151.89L487.25,135.9L492.12,133.27L496.99,136.56L501.87,137.43L506.74,118.37L511.61,126.92L516.48,123.41L521.36,149.48L526.23,160.21L531.1,165.69L535.97,158.46L540.85,148.82L545.72,145.97L550.59,145.54L555.46,140.5L560.34,129.98L565.21,129.55L570.08,121.44L574.95,115.09L579.83,126.92L584.7,135.02L589.57,141.37L594.44,145.76L599.32,136.99L604.19,140.28L609.06,158.9L613.93,163.5L618.81,159.34L623.68,165.69L628.55,142.03L633.42,142.25L638.3,147.07L643.17,143.35L648.04,150.57L652.91,156.71L657.79,161.53L662.66,149.7L667.53,141.59L672.4,140.28L677.28,155.18L682.15,135.02L687.02,121.88L691.89,132.39L696.77,125.16L701.64,120.35L706.51,148.17L711.38,125.38L716.26,121.44L721.13,127.36L726,138.53" style="vector-effect: none; fill: none; stroke: rgb(128, 0, 128); stroke-opacity: 1; stroke-width: 2px; opacity: 1;"/></g><g class="points"/><g class="text"/></g><g class="trace scatter trace7113d6" style="stroke-miterlimit: 2; opacity: 1;"><g class="fills"/><g class="errorbars"/><g class="lines"><path class="js-line" d="M0,313.99L4.87,307.42L9.74,263.61L14.62,239.29L19.49,221.77L24.36,223.74L29.23,248.49L34.11,246.74L38.98,237.54L43.85,251.34L48.72,243.67L53.6,251.34L58.47,242.14L63.34,239.51L68.21,230.31L73.09,192.85L77.96,200.08L82.83,213.88L87.7,212.79L92.58,211.25L97.45,207.31L102.32,180.59L107.19,219.8L112.07,179.27L116.94,188.47L121.81,205.56L126.68,205.56L131.56,206L136.43,188.69L141.3,190.88L146.17,166.13L151.05,145.54L155.92,157.15L160.79,183.21L165.66,179.27L170.54,240.61L175.41,255.06L180.28,227.68L185.15,264.04L194.9,219.58L199.77,238.42L204.64,184.97L209.52,172.7L214.39,180.37L219.26,169.85L224.13,180.8L229.01,172.26L233.88,168.1L238.75,162.18L243.62,167.44L248.5,164.81L253.37,175.33L258.24,160.65L263.11,166.57L267.99,177.52L272.86,159.12L277.73,162.62L282.6,160.65L287.48,200.3L292.35,228.12L297.22,227.02L302.09,220.45L306.97,218.7L311.84,219.14L316.71,195.04L321.58,189.13L326.46,178.18L331.33,186.5L336.2,173.58L341.07,179.93L345.95,173.36L350.82,178.83L355.69,171.17L360.56,177.74L365.44,207.97L370.31,179.27L375.18,177.96L380.05,162.4L384.93,153.2L389.8,146.19L394.67,148.6L399.54,131.74L404.42,147.73L409.29,144.44L414.16,174.89L419.03,200.3L423.91,165.25L428.78,171.39L433.65,191.54L438.52,204.46L443.4,191.76L448.27,183.21L453.14,191.54L458.01,172.92L462.89,178.61L467.76,146.85L472.63,177.52L477.5,175.55L482.38,169.63L487.25,133.49L492.12,145.1L496.99,152.77L501.87,146.41L506.74,149.26L511.61,144.88L516.48,133.93L521.36,168.32L526.23,177.96L531.1,173.79L535.97,169.41L540.85,162.62L545.72,160.43L550.59,171.39L555.46,160.87L560.34,140.72L565.21,148.38L570.08,144L579.83,160.21L584.7,179.27L589.57,164.38L594.44,159.34L599.32,156.93L604.19,164.16L609.06,182.78L613.93,189.35L618.81,189.79L623.68,183.21L628.55,155.39L633.42,156.93L643.17,163.28L648.04,172.48L652.91,190.22L657.79,191.32L662.66,170.29L667.53,163.72L672.4,165.91L677.28,185.84L687.02,145.32L691.89,151.67L701.64,132.39L706.51,156.49L711.38,138.53L716.26,132.17L721.13,137.87L726,146.41" style="vector-effect: none; fill: none; stroke: rgb(255, 192, 203); stroke-opacity: 1; stroke-width: 2px; opacity: 1;"/></g><g class="points"/><g class="text"/></g><g class="trace scatter trace4579fa" style="stroke-miterlimit: 2; opacity: 1;"><g class="fills"/><g class="errorbars"/><g class="lines"><path class="js-line" d="M0,354.08L9.74,269.52L14.62,264.7L19.49,246.52L24.36,238.42L29.23,236.01L34.11,230.09L38.98,216.95L43.85,210.38L48.72,217.17L53.6,210.16L58.47,210.81L63.34,205.78L68.21,196.58L73.09,182.12L77.96,205.78L82.83,204.24L87.7,200.3L92.58,212.13L97.45,207.53L102.32,210.38L107.19,213.01L112.07,204.68L116.94,203.15L121.81,207.97L126.68,199.86L131.56,206.43L136.43,198.33L141.3,203.15L146.17,209.28L151.05,210.38L155.92,205.34L160.79,206L165.66,198.99L170.54,210.38L175.41,222.42L180.28,202.71L185.15,282.66L190.03,211.91L194.9,195.48L199.77,198.11L204.64,182.12L209.52,186.28L214.39,185.62L219.26,186.28L224.13,170.07L229.01,168.1L233.88,175.11L238.75,173.14L248.5,183.65L253.37,178.83L258.24,190.44L263.11,190.88L267.99,192.41L272.86,190L277.73,192.41L282.6,185.84L287.48,208.62L292.35,210.38L297.22,218.48L302.09,208.19L306.97,208.41L311.84,222.86L316.71,222.21L321.58,218.26L326.46,176.2L331.33,181.68L336.2,180.37L341.07,183.87L345.95,188.91L350.82,187.38L355.69,183.43L360.56,187.38L365.44,188.69L370.31,182.56L375.18,195.92L380.05,186.5L384.93,204.9L389.8,191.54L394.67,187.81L399.54,170.73L404.42,184.09L409.29,182.12L414.16,177.08L419.03,180.37L423.91,178.18L428.78,194.39L433.65,194.17L438.52,194.82L443.4,191.98L448.27,190.88L453.14,192.63L458.01,179.71L462.89,188.03L467.76,191.76L472.63,182.56L477.5,179.27L482.38,185.4L487.25,185.19L492.12,185.4L496.99,196.14L501.87,197.45L506.74,165.47L511.61,180.8L516.48,175.77L526.23,191.54L531.1,196.58L535.97,220.01L540.85,215.85L545.72,220.67L550.59,220.67L555.46,220.23L560.34,191.32L565.21,187.81L570.08,192.85L574.95,184.97L579.83,202.71L584.7,193.07L589.57,188.69L594.44,194.17L599.32,186.06L604.19,179.05L609.06,193.73L613.93,181.68L618.81,181.9L623.68,233.82L628.55,179.71L633.42,178.61L638.3,185.19L643.17,185.19L648.04,179.05L657.79,184.53L662.66,192.2L667.53,187.38L672.4,181.46L677.28,184.31L682.15,172.92L687.02,161.97L691.89,169.85L696.77,163.06L701.64,170.73L706.51,174.45L711.38,170.07L716.26,167.88L721.13,175.33L726,173.58" style="vector-effect: none; fill: none; stroke: rgb(165, 42, 42); stroke-opacity: 1; stroke-width: 2px; opacity: 1;"/></g><g class="points"/><g class="text"/></g><g class="trace scatter trace56aeaa" style="stroke-miterlimit: 2; opacity: 1;"><g class="fills"/><g class="errorbars"/><g class="lines"><path class="js-line" d="M0,361.74L4.87,337.21L9.74,301.94L19.49,263.83L24.36,258.13L29.23,264.7L34.11,260.54L38.98,248.27L43.85,251.12L48.72,245.43L53.6,251.12L58.47,237.1L63.34,233.82L68.21,225.71L73.09,200.3L77.96,229.65L82.83,233.38L87.7,231.41L92.58,237.32L97.45,231.62L102.32,219.36L107.19,243.67L112.07,222.21L116.94,224.83L121.81,219.8L126.68,214.76L131.56,217.39L136.43,205.12L141.3,205.78L146.17,227.46L151.05,207.97L160.79,219.14L165.66,214.76L170.54,231.84L175.41,253.31L180.28,234.91L185.15,294.05L190.03,240.39L194.9,210.6L199.77,231.41L204.64,207.97L209.52,205.56L214.39,208.19L219.26,200.74L224.13,191.76L229.01,184.53L233.88,190.88L238.75,191.1L243.62,196.8L248.5,194.82L253.37,196.14L258.24,206.87L263.11,212.13L267.99,226.15L272.86,206.87L277.73,211.25L282.6,209.06L287.48,223.74L292.35,229.65L297.22,242.36L302.09,229L306.97,227.02L311.84,256.16L316.71,264.92L321.58,256.38L326.46,214.54L331.33,209.06L336.2,202.93L341.07,215.2L345.95,214.98L350.82,209.72L355.69,202.71L360.56,210.81L365.44,224.61L370.31,205.78L375.18,215.2L380.05,215.41L384.93,222.64L389.8,198.77L394.67,202.05L399.54,171.82L404.42,190L409.29,184.75L419.03,199.64L423.91,188.91L428.78,204.24L433.65,207.75L438.52,215.2L443.4,207.75L448.27,206.21L453.14,211.25L458.01,202.49L462.89,208.19L467.76,202.27L472.63,208.41L477.5,206.87L482.38,202.49L487.25,181.9L492.12,195.7L496.99,212.13L501.87,206.43L506.74,194.82L511.61,195.26L516.48,181.68L521.36,201.18L526.23,206.65L531.1,201.18L535.97,230.75L540.85,229.22L550.59,247.18L555.46,242.14L560.34,201.18L565.21,203.8L570.08,214.76L574.95,221.99L579.83,232.06L584.7,231.84L589.57,209.5L594.44,203.8L599.32,197.67L604.19,199.2L609.06,214.1L613.93,206.65L618.81,211.03L623.68,243.89L628.55,188.91L633.42,189.57L638.3,193.73L643.17,201.18L648.04,199.2L652.91,214.76L657.79,214.54L662.66,212.13L667.53,208.62L672.4,207.75L677.28,213.88L682.15,205.78L687.02,184.31L691.89,186.06L696.77,180.37L701.64,181.9L706.51,185.62L711.38,187.16L716.26,179.49L721.13,187.38L726,182.78" style="vector-effect: none; fill: none; stroke: rgb(128, 128, 128); stroke-opacity: 1; stroke-width: 2px; opacity: 1;"/></g><g class="points"/><g class="text"/></g></g></g><g class="overplot"/><path class="xlines-above crisp" d="M0,0" style="fill: none;"/><path class="ylines-above crisp" d="M0,0" style="fill: none;"/><g class="overlines-above"/><g class="xaxislayer-above"><g class="xtick"><text text-anchor="middle" x="0" y="509" transform="translate(235.57999999999998,0)" style="font-family: 'Open Sans', verdana, arial, sans-serif; font-size: 12px; fill: rgb(42, 63, 95); fill-opacity: 1; white-space: pre; opacity: 1;">20</text></g><g class="xtick"><text text-anchor="middle" x="0" y="509" style="font-family: 'Open Sans', verdana, arial, sans-serif; font-size: 12px; fill: rgb(42, 63, 95); fill-opacity: 1; white-space: pre; opacity: 1;" transform="translate(333.03,0)">40</text></g><g class="xtick"><text text-anchor="middle" x="0" y="509" style="font-family: 'Open Sans', verdana, arial, sans-serif; font-size: 12px; fill: rgb(42, 63, 95); fill-opacity: 1; white-space: pre; opacity: 1;" transform="translate(430.48,0)">60</text></g><g class="xtick"><text text-anchor="middle" x="0" y="509" style="font-family: 'Open Sans', verdana, arial, sans-serif; font-size: 12px; fill: rgb(42, 63, 95); fill-opacity: 1; white-space: pre; opacity: 1;" transform="translate(527.9300000000001,0)">80</text></g><g class="xtick"><text text-anchor="middle" x="0" y="509" style="font-family: 'Open Sans', verdana, arial, sans-serif; font-size: 12px; fill: rgb(42, 63, 95); fill-opacity: 1; white-space: pre; opacity: 1;" transform="translate(625.38,0)">100</text></g><g class="xtick"><text text-anchor="middle" x="0" y="509" style="font-family: 'Open Sans', verdana, arial, sans-serif; font-size: 12px; fill: rgb(42, 63, 95); fill-opacity: 1; white-space: pre; opacity: 1;" transform="translate(722.83,0)">120</text></g><g class="xtick"><text text-anchor="middle" x="0" y="509" style="font-family: 'Open Sans', verdana, arial, sans-serif; font-size: 12px; fill: rgb(42, 63, 95); fill-opacity: 1; white-space: pre; opacity: 1;" transform="translate(820.28,0)">140</text></g></g><g class="yaxislayer-above"><g class="ytick"><text text-anchor="end" x="142" y="4.199999999999999" transform="translate(0,469.41)" style="font-family: 'Open Sans', verdana, arial, sans-serif; font-size: 12px; fill: rgb(42, 63, 95); fill-opacity: 1; white-space: pre; opacity: 1;">64</text></g><g class="ytick"><text text-anchor="end" x="142" y="4.199999999999999" style="font-family: 'Open Sans', verdana, arial, sans-serif; font-size: 12px; fill: rgb(42, 63, 95); fill-opacity: 1; white-space: pre; opacity: 1;" transform="translate(0,425.6)">66</text></g><g class="ytick"><text text-anchor="end" x="142" y="4.199999999999999" style="font-family: 'Open Sans', verdana, arial, sans-serif; font-size: 12px; fill: rgb(42, 63, 95); fill-opacity: 1; white-space: pre; opacity: 1;" transform="translate(0,381.79)">68</text></g><g class="ytick"><text text-anchor="end" x="142" y="4.199999999999999" style="font-family: 'Open Sans', verdana, arial, sans-serif; font-size: 12px; fill: rgb(42, 63, 95); fill-opacity: 1; white-space: pre; opacity: 1;" transform="translate(0,337.98)">70</text></g><g class="ytick"><text text-anchor="end" x="142" y="4.199999999999999" style="font-family: 'Open Sans', verdana, arial, sans-serif; font-size: 12px; fill: rgb(42, 63, 95); fill-opacity: 1; white-space: pre; opacity: 1;" transform="translate(0,294.16999999999996)">72</text></g><g class="ytick"><text text-anchor="end" x="142" y="4.199999999999999" style="font-family: 'Open Sans', verdana, arial, sans-serif; font-size: 12px; fill: rgb(42, 63, 95); fill-opacity: 1; white-space: pre; opacity: 1;" transform="translate(0,250.36)">74</text></g><g class="ytick"><text text-anchor="end" x="142" y="4.199999999999999" style="font-family: 'Open Sans', verdana, arial, sans-serif; font-size: 12px; fill: rgb(42, 63, 95); fill-opacity: 1; white-space: pre; opacity: 1;" transform="translate(0,206.55)">76</text></g><g class="ytick"><text text-anchor="end" x="142" y="4.199999999999999" style="font-family: 'Open Sans', verdana, arial, sans-serif; font-size: 12px; fill: rgb(42, 63, 95); fill-opacity: 1; white-space: pre; opacity: 1;" transform="translate(0,162.73)">78</text></g><g class="ytick"><text text-anchor="end" x="142" y="4.199999999999999" style="font-family: 'Open Sans', verdana, arial, sans-serif; font-size: 12px; fill: rgb(42, 63, 95); fill-opacity: 1; white-space: pre; opacity: 1;" transform="translate(0,118.92)">80</text></g></g><g class="overaxes-above"/></g></g><g class="polarlayer"/><g class="smithlayer"/><g class="ternarylayer"/><g class="geolayer"/><g class="funnelarealayer"/><g class="pielayer"/><g class="iciclelayer"/><g class="treemaplayer"/><g class="sunburstlayer"/><g class="glimages"/><defs id="topdefs-a6a164"><g class="clips"/><clipPath id="legenda6a164"><rect width="128" height="162" x="0" y="0"/></clipPath></defs><g class="layer-above"><g class="imagelayer"/><g class="shapelayer"/></g><g class="infolayer"><g class="legend" pointer-events="all" transform="translate(883.52,100)"><rect class="bg" shape-rendering="crispEdges" width="128" height="162" x="0" y="0" style="stroke: rgb(68, 68, 68); stroke-opacity: 1; fill: rgb(255, 255, 255); fill-opacity: 1; stroke-width: 0px;"/><g class="scrollbox" transform="" clip-path="url(#legenda6a164)"><g class="groups"><g class="traces" transform="translate(0,14.5)" style="opacity: 1;"><text class="legendtext" text-anchor="start" x="40" y="4.680000000000001" style="font-family: 'Open Sans', verdana, arial, sans-serif; font-size: 12px; fill: rgb(42, 63, 95); fill-opacity: 1; white-space: pre;">Train Accuracy</text><g class="layers" style="opacity: 1;"><g class="legendfill"/><g class="legendlines"><path class="js-line" d="M5,0h30" style="fill: none; stroke: rgb(255, 0, 0); stroke-opacity: 1; stroke-width: 2px;"/></g><g class="legendsymbols"><g class="legendpoints"/></g></g><rect class="legendtoggle" x="0" y="-9.5" width="122.71875" height="19" style="fill: rgb(0, 0, 0); fill-opacity: 0;"/></g><g class="traces" transform="translate(0,33.5)" style="opacity: 1;"><text class="legendtext" text-anchor="start" x="40" y="4.680000000000001" style="font-family: 'Open Sans', verdana, arial, sans-serif; font-size: 12px; fill: rgb(42, 63, 95); fill-opacity: 1; white-space: pre;">Test Accuracy</text><g class="layers" style="opacity: 1;"><g class="legendfill"/><g class="legendlines"><path class="js-line" d="M5,0h30" style="fill: none; stroke: rgb(0, 0, 255); stroke-opacity: 1; stroke-width: 2px;"/></g><g class="legendsymbols"><g class="legendpoints"/></g></g><rect class="legendtoggle" x="0" y="-9.5" width="122.71875" height="19" style="fill: rgb(0, 0, 0); fill-opacity: 0;"/></g><g class="traces" transform="translate(0,52.5)" style="opacity: 1;"><text class="legendtext" text-anchor="start" x="40" y="4.680000000000001" style="font-family: 'Open Sans', verdana, arial, sans-serif; font-size: 12px; fill: rgb(42, 63, 95); fill-opacity: 1; white-space: pre;">Train Precision</text><g class="layers" style="opacity: 1;"><g class="legendfill"/><g class="legendlines"><path class="js-line" d="M5,0h30" style="fill: none; stroke: rgb(0, 128, 0); stroke-opacity: 1; stroke-width: 2px;"/></g><g class="legendsymbols"><g class="legendpoints"/></g></g><rect class="legendtoggle" x="0" y="-9.5" width="122.71875" height="19" style="fill: rgb(0, 0, 0); fill-opacity: 0;"/></g><g class="traces" transform="translate(0,71.5)" style="opacity: 1;"><text class="legendtext" text-anchor="start" x="40" y="4.680000000000001" style="font-family: 'Open Sans', verdana, arial, sans-serif; font-size: 12px; fill: rgb(42, 63, 95); fill-opacity: 1; white-space: pre;">Test Precision</text><g class="layers" style="opacity: 1;"><g class="legendfill"/><g class="legendlines"><path class="js-line" d="M5,0h30" style="fill: none; stroke: rgb(255, 165, 0); stroke-opacity: 1; stroke-width: 2px;"/></g><g class="legendsymbols"><g class="legendpoints"/></g></g><rect class="legendtoggle" x="0" y="-9.5" width="122.71875" height="19" style="fill: rgb(0, 0, 0); fill-opacity: 0;"/></g><g class="traces" transform="translate(0,90.5)" style="opacity: 1;"><text class="legendtext" text-anchor="start" x="40" y="4.680000000000001" style="font-family: 'Open Sans', verdana, arial, sans-serif; font-size: 12px; fill: rgb(42, 63, 95); fill-opacity: 1; white-space: pre;">Train Recall</text><g class="layers" style="opacity: 1;"><g class="legendfill"/><g class="legendlines"><path class="js-line" d="M5,0h30" style="fill: none; stroke: rgb(128, 0, 128); stroke-opacity: 1; stroke-width: 2px;"/></g><g class="legendsymbols"><g class="legendpoints"/></g></g><rect class="legendtoggle" x="0" y="-9.5" width="122.71875" height="19" style="fill: rgb(0, 0, 0); fill-opacity: 0;"/></g><g class="traces" transform="translate(0,109.5)" style="opacity: 1;"><text class="legendtext" text-anchor="start" x="40" y="4.680000000000001" style="font-family: 'Open Sans', verdana, arial, sans-serif; font-size: 12px; fill: rgb(42, 63, 95); fill-opacity: 1; white-space: pre;">Test Recall</text><g class="layers" style="opacity: 1;"><g class="legendfill"/><g class="legendlines"><path class="js-line" d="M5,0h30" style="fill: none; stroke: rgb(255, 192, 203); stroke-opacity: 1; stroke-width: 2px;"/></g><g class="legendsymbols"><g class="legendpoints"/></g></g><rect class="legendtoggle" x="0" y="-9.5" width="122.71875" height="19" style="fill: rgb(0, 0, 0); fill-opacity: 0;"/></g><g class="traces" transform="translate(0,128.5)" style="opacity: 1;"><text class="legendtext" text-anchor="start" x="40" y="4.680000000000001" style="font-family: 'Open Sans', verdana, arial, sans-serif; font-size: 12px; fill: rgb(42, 63, 95); fill-opacity: 1; white-space: pre;">Train F1</text><g class="layers" style="opacity: 1;"><g class="legendfill"/><g class="legendlines"><path class="js-line" d="M5,0h30" style="fill: none; stroke: rgb(165, 42, 42); stroke-opacity: 1; stroke-width: 2px;"/></g><g class="legendsymbols"><g class="legendpoints"/></g></g><rect class="legendtoggle" x="0" y="-9.5" width="122.71875" height="19" style="fill: rgb(0, 0, 0); fill-opacity: 0;"/></g><g class="traces" transform="translate(0,147.5)" style="opacity: 1;"><text class="legendtext" text-anchor="start" x="40" y="4.680000000000001" style="font-family: 'Open Sans', verdana, arial, sans-serif; font-size: 12px; fill: rgb(42, 63, 95); fill-opacity: 1; white-space: pre;">Test F1</text><g class="layers" style="opacity: 1;"><g class="legendfill"/><g class="legendlines"><path class="js-line" d="M5,0h30" style="fill: none; stroke: rgb(128, 128, 128); stroke-opacity: 1; stroke-width: 2px;"/></g><g class="legendsymbols"><g class="legendpoints"/></g></g><rect class="legendtoggle" x="0" y="-9.5" width="122.71875" height="19" style="fill: rgb(0, 0, 0); fill-opacity: 0;"/></g></g></g><rect class="scrollbar" rx="20" ry="3" width="0" height="0" x="0" y="0" style="fill: rgb(128, 139, 164); fill-opacity: 1;"/></g><g class="g-gtitle"><text class="gtitle" x="51.2" y="50" text-anchor="start" dy="0em" style="font-family: 'Open Sans', verdana, arial, sans-serif; font-size: 17px; fill: rgb(42, 63, 95); opacity: 1; font-weight: normal; white-space: pre;">Training Metrics - logs/FakeNewsNet-gossipcop_max-vocab=15000_pre=v2_text_domain_T=150_s=10.log</text></g><g class="g-xtitle"><text class="xtitle" x="506" y="537.3" text-anchor="middle" style="font-family: 'Open Sans', verdana, arial, sans-serif; font-size: 14px; fill: rgb(42, 63, 95); opacity: 1; font-weight: normal; white-space: pre;">Epoch</text></g><g class="g-ytitle"><text class="ytitle" transform="rotate(-90,103.965625,298)" x="103.965625" y="298" text-anchor="middle" style="font-family: 'Open Sans', verdana, arial, sans-serif; font-size: 14px; fill: rgb(42, 63, 95); opacity: 1; font-weight: normal; white-space: pre;">Metric Score</text></g></g><g class="menulayer"><g class="updatemenu-container" style="cursor: pointer;"><g class="updatemenu-header-group" transform="translate(12,60)"><g class="updatemenu-header" transform="translate(1,1)" style="pointer-events: all;"><rect class="updatemenu-item-rect" rx="2" ry="2" shape-rendering="crispEdges" x="0" y="0" width="167" height="33" style="stroke: rgb(190, 200, 217); stroke-opacity: 1; fill: rgb(255, 255, 255); fill-opacity: 1; stroke-width: 1px;"/><text class="updatemenu-item-text" text-anchor="start" data-notex="1" x="12" y="19.5" style="font-family: 'Open Sans', verdana, arial, sans-serif; font-size: 12px; fill: rgb(42, 63, 95); fill-opacity: 1; white-space: pre;">All</text></g><text class="updatemenu-header-arrow" text-anchor="end" x="163" y="19.5" style="font-family: 'Open Sans', verdana, arial, sans-serif; font-size: 12px; fill: rgb(42, 63, 95); fill-opacity: 1;">▼</text></g><g class="updatemenu-dropdown-button-group" updatemenu-active-index="-1" style="pointer-events: all;"><rect class="scrollbox-bg" opacity="0" x="0" y="0" width="0" height="0" style="pointer-events: all;"/></g></g></g></svg>