<svg class="main-svg" xmlns="http://www.w3.org/2000/svg" xmlns:xlink="http://www.w3.org/1999/xlink" width="1024" height="576" style="" viewBox="0 0 1024 576"><rect x="0" y="0" width="1024" height="576" style="fill: rgb(255, 255, 255); fill-opacity: 1;"/><defs id="defs-f5e06c"><g class="clips"><clipPath id="clipf5e06cxyplot" class="plotclip"><rect width="729" height="396"/></clipPath><clipPath class="axesclip" id="clipf5e06cx"><rect x="140" y="0" width="729" height="576"/></clipPath><clipPath class="axesclip" id="clipf5e06cy"><rect x="0" y="100" width="1024" height="396"/></clipPath><clipPath class="axesclip" id="clipf5e06cxy"><rect x="140" y="100" width="729" height="396"/></clipPath></g><g class="gradients"/><g class="patterns"/></defs><g class="bglayer"><rect class="bg" x="140" y="100" width="729" height="396" style="fill: rgb(229, 236, 246); fill-opacity: 1; stroke-width: 0;"/></g><g class="layer-below"><g class="imagelayer"/><g class="shapelayer"/></g><g class="cartesianlayer"><g class="subplot xy"><g class="layer-subplot"><g class="shapelayer"/><g class="imagelayer"/></g><g class="minor-gridlayer"><g class="x"/><g class="y"/></g><g class="gridlayer"><g class="x"><path class="xgrid crisp" transform="translate(232.95999999999998,0)" d="M0,100v396" style="stroke: rgb(255, 255, 255); stroke-opacity: 1; stroke-width: 1px;"/><path class="xgrid crisp" transform="translate(330.81,0)" d="M0,100v396" style="stroke: rgb(255, 255, 255); stroke-opacity: 1; stroke-width: 1px;"/><path class="xgrid crisp" transform="translate(428.66,0)" d="M0,100v396" style="stroke: rgb(255, 255, 255); stroke-opacity: 1; stroke-width: 1px;"/><path class="xgrid crisp" transform="translate(526.52,0)" d="M0,100v396" style="stroke: rgb(255, 255, 255); stroke-opacity: 1; stroke-width: 1px;"/><path class="xgrid crisp" transform="translate(624.37,0)" d="M0,100v396" style="stroke: rgb(255, 255, 255); stroke-opacity: 1; stroke-width: 1px;"/><path class="xgrid crisp" transform="translate(722.22,0)" d="M0,100v396" style="stroke: rgb(255, 255, 255); stroke-opacity: 1; stroke-width: 1px;"/><path class="xgrid crisp" transform="translate(820.07,0)" d="M0,100v396" style="stroke: rgb(255, 255, 255); stroke-opacity: 1; stroke-width: 1px;"/></g><g class="y"><path class="ygrid crisp" transform="translate(0,479.9)" d="M140,0h729" style="stroke: rgb(255, 255, 255); stroke-opacity: 1; stroke-width: 1px;"/><path class="ygrid crisp" transform="translate(0,382.52)" d="M140,0h729" style="stroke: rgb(255, 255, 255); stroke-opacity: 1; stroke-width: 1px;"/><path class="ygrid crisp" transform="translate(0,285.15)" d="M140,0h729" style="stroke: rgb(255, 255, 255); stroke-opacity: 1; stroke-width: 1px;"/><path class="ygrid crisp" transform="translate(0,187.76999999999998)" d="M140,0h729" style="stroke: rgb(255, 255, 255); stroke-opacity: 1; stroke-width: 1px;"/></g></g><g class="zerolinelayer"/><path class="xlines-below"/><path class="ylines-below"/><g class="overlines-below"/><g class="xaxislayer-below"/><g class="yaxislayer-below"/><g class="overaxes-below"/><g class="plot" transform="translate(140,100)" clip-path="url(#clipf5e06cxyplot)"><g class="scatterlayer mlayer"><g class="trace scatter tracef254fb" style="stroke-miterlimit: 2; opacity: 1;"><g class="fills"/><g class="errorbars"/><g class="lines"><path class="js-line" d="M0,52.13L4.89,46.29L9.79,42.39L14.68,46.48L19.57,43.56L24.46,33.82L29.36,43.37L34.25,40.25L39.14,43.75L44.03,81.15L48.93,61.09L53.82,105.69L58.71,97.12L63.6,61.48L68.5,58.95L73.39,50.38L78.28,48.62L83.17,43.95L88.07,53.88L92.96,46.68L97.85,54.27L102.74,43.56L107.64,38.89L112.53,32.46L117.42,32.85L122.32,39.08L127.21,33.82L132.1,29.15L136.99,32.46L141.89,30.32L146.78,33.82L151.67,40.05L156.56,48.82L161.46,32.46L166.35,47.84L171.24,50.18L176.13,39.47L181.03,48.82L185.92,36.35L190.81,54.27L195.7,33.04L205.49,27.2L210.38,26.03L220.17,45.12L225.06,44.73L229.95,40.25L234.85,28.95L239.74,28.95L244.63,32.85L249.52,45.31L254.42,33.43L259.31,28.37L264.2,30.51L269.09,37.52L273.99,39.08L278.88,44.73L283.77,41.61L288.66,30.32L293.56,30.71L298.45,29.54L303.34,24.47L308.23,24.86L313.13,40.25L318.02,37.72L322.91,37.52L327.81,38.11L332.7,34.8L337.59,65.37L342.48,71.41L347.38,31.68L352.27,39.86L357.16,33.43L362.05,32.26L366.95,67.32L371.84,26.42L381.62,28.17L386.52,34.99L391.41,34.21L396.3,45.51L401.19,41.61L406.09,75.89L410.98,30.12L415.87,29.54L420.77,22.92L425.66,24.67L430.55,29.15L435.44,31.49L440.34,73.16L445.23,81.15L450.12,98.68L455.01,104.32L459.91,99.65L464.8,78.23L469.69,68.1L474.58,33.24L479.48,25.25L484.37,28.37L489.26,27.2L494.15,27.98L499.05,23.7L503.94,31.68L508.83,38.3L513.72,29.54L518.62,28.56L523.51,36.16L528.4,31.49L533.3,35.58L538.19,31.29L543.08,34.02L547.97,28.37L552.87,32.07L557.76,32.26L562.65,27.4L567.54,28.95L572.44,24.86L577.33,23.7L582.22,20.58L587.11,29.15L592.01,31.29L596.9,35.77L601.79,30.9L606.68,30.51L611.58,33.63L616.47,36.74L621.36,28.76L631.15,30.71L636.04,25.25L640.93,22.72L645.83,27.2L650.72,26.42L655.61,27.98L660.5,23.7L665.4,27.01L670.29,28.56L675.18,63.04L680.07,27.78L684.97,29.73L689.86,34.21L694.75,27.59L699.64,43.37L704.54,33.43L714.32,39.47L719.21,31.68L724.11,31.68L729,34.21" style="vector-effect: none; fill: none; stroke: rgb(255, 0, 0); stroke-opacity: 1; stroke-width: 2px; opacity: 1;"/></g><g class="points"/><g class="text"/></g><g class="trace scatter trace676fee" style="stroke-miterlimit: 2; opacity: 1;"><g class="fills"/><g class="errorbars"/><g class="lines"><path class="js-line" d="M0,52.71L4.89,43.56L9.79,47.07L14.68,44.92L19.57,46.09L24.46,31.68L29.36,39.47L34.25,33.43L39.14,47.07L44.03,86.99L48.93,65.57L53.82,112.5L58.71,98.87L63.6,66.93L68.5,61.48L73.39,48.82L78.28,44.92L83.17,52.32L88.07,47.84L92.96,48.82L97.85,57.19L107.64,32.46L112.53,28.56L117.42,30.32L122.32,39.08L127.21,33.82L132.1,31.68L136.99,36.94L141.89,35.96L146.78,38.3L151.67,43.95L156.56,50.18L161.46,40.83L166.35,57.19L171.24,59.72L176.13,47.46L181.03,57.19L185.92,43.95L190.81,58.95L195.7,34.8L200.6,33.82L205.49,27.2L210.38,26.42L215.28,34.8L220.17,47.07L225.06,41.81L229.95,46.09L234.85,28.56L239.74,29.93L244.63,40.05L249.52,52.32L254.42,40.83L259.31,34.8L269.09,41.81L273.99,40.44L278.88,53.1L283.77,43.17L288.66,33.04L293.56,30.71L298.45,33.43L303.34,24.08L308.23,28.56L313.13,43.56L318.02,47.84L322.91,41.81L327.81,33.43L332.7,35.58L337.59,78.23L342.48,83.48L347.38,38.69L352.27,38.3L357.16,35.96L362.05,32.46L366.95,73.36L371.84,29.54L376.73,33.82L381.62,31.68L386.52,47.46L391.41,37.72L396.3,53.69L401.19,55.44L406.09,90.11L410.98,37.72L415.87,41.42L420.77,23.31L425.66,27.78L430.55,36.94L435.44,33.43L440.34,77.45L445.23,91.47L450.12,112.11L455.01,116.01L459.91,112.5L464.8,91.86L469.69,83.48L474.58,43.17L479.48,27.78L484.37,33.04L489.26,29.93L494.15,30.71L499.05,26.42L503.94,38.3L508.83,43.56L513.72,29.54L518.62,30.32L523.51,40.05L528.4,38.69L533.3,46.09L538.19,37.72L543.08,41.42L547.97,32.07L552.87,33.82L557.76,27.78L562.65,27.2L567.54,33.43L572.44,29.93L577.33,29.54L582.22,19.8L587.11,29.54L592.01,40.44L596.9,39.08L601.79,33.82L606.68,33.43L611.58,39.47L616.47,41.81L621.36,31.68L626.26,34.8L631.15,37.33L636.04,27.78L640.93,28.17L645.83,35.58L650.72,34.8L655.61,36.55L660.5,28.56L665.4,36.94L670.29,33.82L675.18,70.44L680.07,32.46L684.97,30.71L689.86,43.56L694.75,30.71L699.64,41.42L704.54,42.2L709.43,40.44L714.32,46.09L719.21,33.04L724.11,33.82L729,43.95" style="vector-effect: none; fill: none; stroke: rgb(0, 0, 255); stroke-opacity: 1; stroke-width: 2px; opacity: 1;"/></g><g class="points"/><g class="text"/></g><g class="trace scatter tracea43ecc" style="stroke-miterlimit: 2; opacity: 1;"><g class="fills"/><g class="errorbars"/><g class="lines"><path class="js-line" d="M0,76.47L4.89,94L9.79,89.33L14.68,81.54L19.57,89.72L24.46,39.08L29.36,82.32L39.14,109L44.03,219.23L48.93,171.12L53.82,261.3L58.71,247.66L63.6,174.63L68.5,165.67L73.39,140.16L78.28,137.04L83.17,120.49L88.07,151.84L92.96,138.6L97.85,158.46L102.74,130.23L112.53,74.14L117.42,66.54L122.32,104.71L127.21,92.25L132.1,57L136.99,86.02L141.89,70.24L146.78,88.74L156.56,133.34L161.46,75.69L166.35,146.97L171.24,148.92L176.13,121.46L181.03,150.48L185.92,105.88L190.81,162.94L195.7,94.2L200.6,76.28L205.49,60.11L210.38,47.26L215.28,97.9L220.17,133.15L225.06,136.26L229.95,108.8L234.85,63.81L239.74,65.57L244.63,88.94L249.52,128.86L254.42,83.29L259.31,68.88L264.2,76.86L269.09,95.75L273.99,107.05L278.88,131.98L283.77,124.77L288.66,87.18L293.56,76.86L298.45,73.94L303.34,64.4L308.23,61.67L313.13,100.23L318.02,110.75L322.91,114.65L327.81,108.41L332.7,93.22L337.59,189.04L342.48,199.36L347.38,98.48L352.27,121.46L357.16,106.08L362.05,89.13L366.95,187.48L371.84,58.56L376.73,75.5L381.62,72.19L386.52,96.92L391.41,74.72L396.3,126.33L401.19,112.7L406.09,208.13L410.98,86.41L415.87,92.44L420.77,42.59L425.66,48.23L430.55,78.62L435.44,91.27L440.34,200.73L445.23,219.23L450.12,250.19L455.01,258.76L459.91,251.75L464.8,213.97L469.69,195.66L474.58,110.56L479.48,68.49L484.37,80.56L494.15,75.11L499.05,57.19L508.83,111.92L513.72,72.38L518.62,72.77L523.51,108.02L528.4,96.34L533.3,115.23L538.19,88.35L543.08,99.84L547.97,82.9L552.87,83.29L557.76,87.77L562.65,68.88L567.54,76.28L572.44,66.74L577.33,53.1L582.22,36.16L587.11,74.14L592.01,88.16L596.9,103.15L601.79,85.24L606.68,75.69L611.58,88.16L616.47,103.35L621.36,77.45L626.26,91.27L631.15,71.22L636.04,47.84L640.93,39.66L645.83,78.62L650.72,83.29L655.61,85.82L660.5,71.41L665.4,83.68L670.29,77.45L675.18,180.08L680.07,83.87L684.97,81.15L689.86,102.57L694.75,67.71L699.64,137.63L704.54,112.31L709.43,112.11L714.32,110.36L719.21,94.59L724.11,94L729,103.74" style="vector-effect: none; fill: none; stroke: rgb(0, 128, 0); stroke-opacity: 1; stroke-width: 2px; opacity: 1;"/></g><g class="points"/><g class="text"/></g><g class="trace scatter tracef36a60" style="stroke-miterlimit: 2; opacity: 1;"><g class="fills"/><g class="errorbars"/><g class="lines"><path class="js-line" d="M0,82.71L4.89,79.98L9.79,97.9L14.68,76.28L19.57,102.18L24.46,38.11L29.36,70.63L34.25,75.3L39.14,121.27L44.03,227.41L48.93,180.47L53.82,270.64L58.71,249.42L63.6,184.17L68.5,171.9L73.39,139.38L78.28,130.81L83.17,139.96L88.07,141.13L92.96,144.83L97.85,167.42L102.74,133.93L107.64,88.35L112.53,60.31L117.42,57.19L122.32,99.65L127.21,90.89L132.1,64.4L136.99,94.59L141.89,86.02L146.78,101.01L156.56,136.65L161.46,98.09L166.35,165.48L171.24,168.2L176.13,139.18L181.03,165.87L185.92,123.99L190.81,172.29L195.7,98.09L200.6,86.02L205.49,57.58L210.38,42.2L215.28,98.68L220.17,137.24L225.06,124.77L229.95,118.93L234.85,57.58L239.74,67.13L249.52,145.42L254.42,100.82L259.31,84.26L264.2,95.75L269.09,109.97L273.99,107.44L278.88,148.53L283.77,127.69L288.66,94.98L293.56,80.95L298.45,89.52L303.34,67.71L308.23,76.47L313.13,108.8L318.02,135.29L322.91,124.38L327.81,97.51L332.7,99.26L337.59,211.24L342.48,220.59L347.38,116.79L352.27,120.29L357.16,113.09L362.05,93.81L366.95,196.83L371.84,63.23L376.73,87.38L381.62,77.64L386.52,126.53L391.41,82.32L396.3,143.47L401.19,145.22L406.09,232.47L410.98,103.74L415.87,120.68L420.77,49.79L425.66,59.14L430.55,99.26L435.44,100.43L440.34,208.32L445.23,236.37L450.12,270.06L455.01,274.93L459.91,271.03L464.8,236.56L469.69,222.34L474.58,133.15L479.48,79.59L484.37,95.56L489.26,86.21L494.15,80.95L499.05,64.98L503.94,104.91L508.83,122.24L513.72,71.6L518.62,81.15L523.51,115.62L528.4,115.23L533.3,140.16L538.19,106.08L543.08,118.54L547.97,91.08L552.87,88.74L557.76,72.38L562.65,71.8L567.54,88.94L572.44,84.85L577.33,73.16L582.22,38.69L587.11,73.16L592.01,111.72L596.9,108.02L601.79,96.14L606.68,87.57L611.58,106.86L616.47,118.74L621.36,87.77L626.26,102.38L631.15,91.66L636.04,59.14L640.93,59.72L645.83,99.84L650.72,107.05L655.61,108.8L660.5,87.57L665.4,109.58L670.29,94.2L675.18,194.1L680.07,101.01L684.97,87.38L689.86,124.38L694.75,74.14L699.64,127.5L704.54,125.94L709.43,115.03L714.32,122.82L719.21,93.03L724.11,92.83L729,124.97" style="vector-effect: none; fill: none; stroke: rgb(255, 165, 0); stroke-opacity: 1; stroke-width: 2px; opacity: 1;"/></g><g class="points"/><g class="text"/></g><g class="trace scatter trace57be82" style="stroke-miterlimit: 2; opacity: 1;"><g class="fills"/><g class="errorbars"/><g class="lines"><path class="js-line" d="M0,376.2L4.89,346.79L9.79,337.83L14.68,356.14L19.57,341.53L24.46,344.26L29.36,346.01L34.25,326.15L39.14,325.56L44.03,309.01L48.93,315.24L58.71,307.45L63.6,309.98L68.5,314.85L73.39,315.83L78.28,313.1L83.17,314.66L88.07,314.07L92.96,302.78L97.85,304.53L102.74,301.22L107.64,313.88L112.53,318.16L117.42,324.78L122.32,313.88L127.21,307.06L132.1,320.5L136.99,308.62L141.89,314.27L146.78,310.37L151.67,312.52L156.56,318.75L161.46,316.99L166.35,294.6L171.24,302L176.13,296.55L181.03,293.62L185.92,302.78L190.81,296.16L200.6,309.01L205.49,312.32L210.38,317.38L215.28,308.04L220.17,303.56L225.06,297.91L229.95,314.07L234.85,315.05L239.74,313.29L244.63,307.26L254.42,313.88L259.31,309.2L264.2,309.59L269.09,316.8L273.99,310.96L278.88,303.75L283.77,300.83L288.66,300.25L293.56,310.37L298.45,308.82L303.34,300.44L308.23,304.14L313.13,322.06L318.02,302.78L322.91,297.71L327.81,306.09L332.7,309.59L337.59,297.71L342.48,306.09L347.38,293.82L352.27,297.71L357.16,291.87L362.05,304.73L366.95,313.49L371.84,310.76L376.73,301.22L381.62,305.89L386.52,306.87L391.41,323.23L396.3,313.88L401.19,314.27L406.09,309.98L410.98,300.25L415.87,292.65L420.77,311.54L425.66,312.52L430.55,303.75L435.44,300.25L440.34,314.07L445.23,308.04L450.12,305.7L455.01,299.08L459.91,315.63L464.8,305.89L469.69,294.6L474.58,286.42L479.48,299.47L484.37,300.05L489.26,298.1L494.15,302.78L503.94,305.11L508.83,303.17L513.72,310.37L518.62,306.87L523.51,299.86L528.4,295.77L533.3,289.34L538.19,302.58L543.08,300.64L547.97,297.71L552.87,309.2L557.76,306.09L562.65,306.09L567.54,305.11L572.44,300.25L577.33,306.67L582.22,308.43L587.11,308.04L592.01,302.39L596.9,303.75L601.79,304.34L606.68,310.76L611.58,310.37L616.47,307.06L621.36,303.75L626.26,293.82L631.15,314.66L636.04,314.46L640.93,312.32L645.83,297.52L650.72,290.7L655.61,293.43L660.5,292.26L665.4,292.26L670.29,303.17L675.18,306.28L680.07,294.79L684.97,303.56L689.86,298.49L694.75,307.84L699.64,290.12L704.54,285.06L709.43,295.57L714.32,309.2L719.21,297.71L724.11,298.69L729,297.71" style="vector-effect: none; fill: none; stroke: rgb(128, 0, 128); stroke-opacity: 1; stroke-width: 2px; opacity: 1;"/></g><g class="points"/><g class="text"/></g><g class="trace scatter tracebffff8" style="stroke-miterlimit: 2; opacity: 1;"><g class="fills"/><g class="errorbars"/><g class="lines"><path class="js-line" d="M0,371.53L4.89,345.62L9.79,343.48L14.68,352.05L19.57,337.25L24.46,336.47L29.36,339.78L34.25,317.77L39.14,322.25L44.03,317.58L48.93,315.24L53.82,316.8L58.71,307.26L63.6,314.07L68.5,311.93L78.28,302.78L83.17,320.89L88.07,301.02L92.96,299.08L102.74,298.49L107.64,303.95L112.53,313.88L117.42,321.28L122.32,315.83L127.21,306.09L132.1,320.31L136.99,313.1L141.89,317.58L146.78,311.54L156.56,316.22L161.46,323.23L166.35,302.19L171.24,310.18L176.13,302L181.03,301.61L185.92,307.84L190.81,297.13L195.7,302.39L200.6,310.57L205.49,311.74L210.38,319.33L215.28,301.8L220.17,302.97L225.06,298.3L229.95,321.67L234.85,315.83L239.74,312.9L244.63,311.35L249.52,313.29L254.42,320.7L259.31,314.85L264.2,316.61L269.09,315.05L273.99,312.9L278.88,312.71L283.77,299.86L288.66,299.27L293.56,304.73L298.45,305.89L303.34,294.79L308.23,301.41L313.13,322.45L318.02,309.2L322.91,298.88L327.81,298.3L337.59,310.57L342.48,316.99L347.38,296.16L352.27,290.31L357.16,290.7L362.05,299.08L366.95,322.25L371.84,314.46L376.73,309.2L381.62,310.37L391.41,326.15L396.3,321.67L401.19,326.54L406.09,323.23L410.98,307.45L415.87,301.8L420.77,305.5L425.66,312.13L430.55,308.82L435.44,295.18L440.34,314.27L445.23,313.49L450.12,319.14L455.01,309.2L459.91,327.51L464.8,318.16L469.69,307.65L474.58,292.26L484.37,298.69L489.26,297.32L494.15,304.73L499.05,303.75L503.94,307.84L508.83,308.23L513.72,308.23L518.62,303.17L523.51,302.78L528.4,298.1L533.3,294.99L538.19,304.92L543.08,304.14L547.97,300.05L552.87,308.04L557.76,302L562.65,301.22L567.54,306.48L572.44,298.49L577.33,307.06L582.22,302.39L587.11,307.06L592.01,308.62L596.9,307.84L601.79,301.22L606.68,307.65L611.58,310.57L616.47,305.7L626.26,297.91L631.15,317.19L636.04,312.13L640.93,312.9L650.72,293.04L655.61,297.32L660.5,291.48L665.4,298.3L670.29,302.97L675.18,310.18L680.07,291.48L684.97,299.08L689.86,305.7L694.75,310.37L699.64,293.04L704.54,298.49L709.43,304.92L714.32,317.38L719.21,301.22L724.11,304.34L729,306.67" style="vector-effect: none; fill: none; stroke: rgb(255, 192, 203); stroke-opacity: 1; stroke-width: 2px; opacity: 1;"/></g><g class="points"/><g class="text"/></g><g class="trace scatter trace8f4235" style="stroke-miterlimit: 2; opacity: 1;"><g class="fills"/><g class="errorbars"/><g class="lines"><path class="js-line" d="M0,323.62L4.89,292.26L9.79,282.33L14.68,301.22L19.57,286.22L24.46,284.67L29.36,290.31L34.25,270.84L39.14,272.01L44.03,277.07L48.93,271.81L53.82,290.9L58.71,284.08L63.6,267.92L68.5,270.45L78.28,263.83L83.17,262.85L88.07,267.14L92.96,254.67L97.85,259.93L102.74,251.75L107.64,259.54L112.53,260.13L117.42,265.97L122.32,259.74L127.21,251.36L132.1,260.52L136.99,251.95L141.89,255.65L146.78,254.09L151.67,259.15L156.56,268.7L161.46,259.15L166.35,248.83L171.24,255.84L176.13,245.91L181.03,248.83L185.92,249.22L190.81,253.5L195.7,247.47L200.6,251.17L205.49,252.34L210.38,256.23L215.28,253.12L220.17,254.28L225.06,249.8L229.95,260.52L234.85,255.65L239.74,254.09L244.63,250.97L249.52,260.13L254.42,256.82L259.31,250.39L264.2,251.75L269.09,261.49L273.99,257.21L278.88,254.28L283.77,250.39L288.66,243.96L293.56,252.53L298.45,250.58L303.34,240.85L308.23,244.35L313.13,267.33L318.02,250L322.91,245.71L327.81,252.73L332.7,253.89L337.59,260.52L342.48,269.86L347.38,239.48L352.27,247.08L357.16,239.09L362.05,248.64L366.95,273.37L371.84,250.58L376.73,243.18L386.52,251.75L391.41,265.58L401.19,261.3L406.09,275.32L410.98,243.77L415.87,237.54L420.77,249.61L425.66,251.36L430.55,246.3L435.44,244.55L440.34,276.88L445.23,276.49L450.12,283.5L455.01,281.94L459.91,291.09L464.8,273.18L469.69,259.74L474.58,234.81L479.48,240.65L484.37,242.79L489.26,240.46L494.15,244.74L499.05,243.38L503.94,248.64L513.72,251.95L518.62,248.44L523.51,246.69L528.4,241.04L533.3,238.31L538.19,246.49L543.08,246.1L547.97,240.85L552.87,252.14L557.76,249.61L562.65,247.27L567.54,247.08L572.44,241.04L577.33,245.71L582.22,245.71L587.11,249.8L592.01,246.1L596.9,249.61L601.79,247.66L606.68,252.92L611.58,254.09L616.47,252.92L626.26,238.31L631.15,256.23L640.93,250.19L645.83,240.07L650.72,234.22L655.61,237.15L660.5,233.83L665.4,235.59L670.29,245.33L675.18,265.77L680.07,238.31L684.97,246.3L689.86,244.74L694.75,248.83L699.64,243.18L704.54,233.83L709.43,243.38L714.32,256.04L719.21,242.79L724.11,243.38L729,243.96" style="vector-effect: none; fill: none; stroke: rgb(165, 42, 42); stroke-opacity: 1; stroke-width: 2px; opacity: 1;"/></g><g class="points"/><g class="text"/></g><g class="trace scatter tracea9b05a" style="stroke-miterlimit: 2; opacity: 1;"><g class="fills"/><g class="errorbars"/><g class="lines"><path class="js-line" d="M0,318.94L4.89,289.73L9.79,289.34L14.68,296.55L19.57,283.3L24.46,276.1L29.36,282.72L34.25,259.93L39.14,270.45L44.03,286.03L48.93,273.56L53.82,297.91L58.71,284.47L63.6,273.56L68.5,269.09L73.39,258.96L78.28,253.31L83.17,271.81L88.07,253.7L92.96,252.73L97.85,256.43L102.74,250L107.64,247.86L117.42,261.49L122.32,261.1L127.21,250.39L132.1,261.3L136.99,257.79L141.89,261.1L146.78,257.01L151.67,262.07L156.56,266.94L161.46,268.31L166.35,259.35L171.24,266.75L176.13,254.09L181.03,258.76L185.92,257.01L190.81,256.43L195.7,247.66L200.6,254.09L205.49,251.75L210.38,257.79L215.28,247.27L220.17,254.67L225.06,248.25L229.95,269.67L234.85,255.84L239.74,254.09L244.63,257.98L249.52,265.58L254.42,266.16L259.31,258.18L264.2,261.3L269.09,261.88L273.99,259.35L278.88,265.58L283.77,250L288.66,244.35L293.56,247.66L298.45,250L303.34,235.98L308.23,243.77L313.13,268.89L318.02,260.13L322.91,248.64L327.81,243.77L332.7,249.61L337.59,276.29L342.48,283.89L347.38,244.94L352.27,240.26L357.16,239.29L362.05,243.96L366.95,283.11L371.84,255.06L376.73,252.92L381.62,252.73L386.52,267.33L391.41,269.47L396.3,273.18L401.19,278.04L406.09,291.87L410.98,253.5L415.87,250.78L420.77,244.35L425.66,252.14L430.55,254.09L435.44,241.43L440.34,278.82L445.23,285.25L450.12,299.27L455.01,294.4L459.91,305.5L464.8,288.76L469.69,277.07L474.58,244.35L479.48,238.7L484.37,243.96L489.26,241.04L494.15,247.66L499.05,244.55L503.94,254.09L508.83,257.01L513.72,249.8L518.62,246.1L523.51,250.78L528.4,246.49L533.3,248.05L538.19,251.56L543.08,252.73L547.97,244.35L552.87,251.95L557.76,243.77L562.65,242.79L567.54,250.39L572.44,242.01L577.33,248.83L582.22,239.87L587.11,248.83L592.01,255.84L596.9,254.48L601.79,246.3L611.58,257.01L616.47,254.09L621.36,245.52L626.26,244.16L631.15,261.49L636.04,252.14L640.93,253.12L645.83,249.22L650.72,240.26L655.61,244.55L660.5,235.78L665.4,245.52L670.29,247.86L675.18,272.2L680.07,237.92L684.97,242.99L689.86,255.06L694.75,252.34L699.64,243.96L704.54,248.64L709.43,252.73L714.32,265.97L719.21,245.91L724.11,248.83L729,256.04" style="vector-effect: none; fill: none; stroke: rgb(128, 128, 128); stroke-opacity: 1; stroke-width: 2px; opacity: 1;"/></g><g class="points"/><g class="text"/></g></g></g><g class="overplot"/><path class="xlines-above crisp" d="M0,0" style="fill: none;"/><path class="ylines-above crisp" d="M0,0" style="fill: none;"/><g class="overlines-above"/><g class="xaxislayer-above"><g class="xtick"><text text-anchor="middle" x="0" y="509" transform="translate(232.95999999999998,0)" style="font-family: 'Open Sans', verdana, arial, sans-serif; font-size: 12px; fill: rgb(42, 63, 95); fill-opacity: 1; white-space: pre; opacity: 1;">20</text></g><g class="xtick"><text text-anchor="middle" x="0" y="509" style="font-family: 'Open Sans', verdana, arial, sans-serif; font-size: 12px; fill: rgb(42, 63, 95); fill-opacity: 1; white-space: pre; opacity: 1;" transform="translate(330.81,0)">40</text></g><g class="xtick"><text text-anchor="middle" x="0" y="509" style="font-family: 'Open Sans', verdana, arial, sans-serif; font-size: 12px; fill: rgb(42, 63, 95); fill-opacity: 1; white-space: pre; opacity: 1;" transform="translate(428.66,0)">60</text></g><g class="xtick"><text text-anchor="middle" x="0" y="509" style="font-family: 'Open Sans', verdana, arial, sans-serif; font-size: 12px; fill: rgb(42, 63, 95); fill-opacity: 1; white-space: pre; opacity: 1;" transform="translate(526.52,0)">80</text></g><g class="xtick"><text text-anchor="middle" x="0" y="509" style="font-family: 'Open Sans', verdana, arial, sans-serif; font-size: 12px; fill: rgb(42, 63, 95); fill-opacity: 1; white-space: pre; opacity: 1;" transform="translate(624.37,0)">100</text></g><g class="xtick"><text text-anchor="middle" x="0" y="509" style="font-family: 'Open Sans', verdana, arial, sans-serif; font-size: 12px; fill: rgb(42, 63, 95); fill-opacity: 1; white-space: pre; opacity: 1;" transform="translate(722.22,0)">120</text></g><g class="xtick"><text text-anchor="middle" x="0" y="509" style="font-family: 'Open Sans', verdana, arial, sans-serif; font-size: 12px; fill: rgb(42, 63, 95); fill-opacity: 1; white-space: pre; opacity: 1;" transform="translate(820.07,0)">140</text></g></g><g class="yaxislayer-above"><g class="ytick"><text text-anchor="end" x="139" y="4.199999999999999" transform="translate(0,479.9)" style="font-family: 'Open Sans', verdana, arial, sans-serif; font-size: 12px; fill: rgb(42, 63, 95); fill-opacity: 1; white-space: pre; opacity: 1;">65</text></g><g class="ytick"><text text-anchor="end" x="139" y="4.199999999999999" style="font-family: 'Open Sans', verdana, arial, sans-serif; font-size: 12px; fill: rgb(42, 63, 95); fill-opacity: 1; white-space: pre; opacity: 1;" transform="translate(0,382.52)">70</text></g><g class="ytick"><text text-anchor="end" x="139" y="4.199999999999999" style="font-family: 'Open Sans', verdana, arial, sans-serif; font-size: 12px; fill: rgb(42, 63, 95); fill-opacity: 1; white-space: pre; opacity: 1;" transform="translate(0,285.15)">75</text></g><g class="ytick"><text text-anchor="end" x="139" y="4.199999999999999" style="font-family: 'Open Sans', verdana, arial, sans-serif; font-size: 12px; fill: rgb(42, 63, 95); fill-opacity: 1; white-space: pre; opacity: 1;" transform="translate(0,187.76999999999998)">80</text></g></g><g class="overaxes-above"/></g></g><g class="polarlayer"/><g class="smithlayer"/><g class="ternarylayer"/><g class="geolayer"/><g class="funnelarealayer"/><g class="pielayer"/><g class="iciclelayer"/><g class="treemaplayer"/><g class="sunburstlayer"/><g class="glimages"/><defs id="topdefs-f5e06c"><g class="clips"/><clipPath id="legendf5e06c"><rect width="128" height="162" x="0" y="0"/></clipPath></defs><g class="layer-above"><g class="imagelayer"/><g class="shapelayer"/></g><g class="infolayer"><g class="legend" pointer-events="all" transform="translate(883.58,100)"><rect class="bg" shape-rendering="crispEdges" width="128" height="162" x="0" y="0" style="stroke: rgb(68, 68, 68); stroke-opacity: 1; fill: rgb(255, 255, 255); fill-opacity: 1; stroke-width: 0px;"/><g class="scrollbox" transform="" clip-path="url(#legendf5e06c)"><g class="groups"><g class="traces" transform="translate(0,14.5)" style="opacity: 1;"><text class="legendtext" text-anchor="start" x="40" y="4.680000000000001" style="font-family: 'Open Sans', verdana, arial, sans-serif; font-size: 12px; fill: rgb(42, 63, 95); fill-opacity: 1; white-space: pre;">Train Accuracy</text><g class="layers" style="opacity: 1;"><g class="legendfill"/><g class="legendlines"><path class="js-line" d="M5,0h30" style="fill: none; stroke: rgb(255, 0, 0); stroke-opacity: 1; stroke-width: 2px;"/></g><g class="legendsymbols"><g class="legendpoints"/></g></g><rect class="legendtoggle" x="0" y="-9.5" width="122.71875" height="19" style="fill: rgb(0, 0, 0); fill-opacity: 0;"/></g><g class="traces" transform="translate(0,33.5)" style="opacity: 1;"><text class="legendtext" text-anchor="start" x="40" y="4.680000000000001" style="font-family: 'Open Sans', verdana, arial, sans-serif; font-size: 12px; fill: rgb(42, 63, 95); fill-opacity: 1; white-space: pre;">Test Accuracy</text><g class="layers" style="opacity: 1;"><g class="legendfill"/><g class="legendlines"><path class="js-line" d="M5,0h30" style="fill: none; stroke: rgb(0, 0, 255); stroke-opacity: 1; stroke-width: 2px;"/></g><g class="legendsymbols"><g class="legendpoints"/></g></g><rect class="legendtoggle" x="0" y="-9.5" width="122.71875" height="19" style="fill: rgb(0, 0, 0); fill-opacity: 0;"/></g><g class="traces" transform="translate(0,52.5)" style="opacity: 1;"><text class="legendtext" text-anchor="start" x="40" y="4.680000000000001" style="font-family: 'Open Sans', verdana, arial, sans-serif; font-size: 12px; fill: rgb(42, 63, 95); fill-opacity: 1; white-space: pre;">Train Precision</text><g class="layers" style="opacity: 1;"><g class="legendfill"/><g class="legendlines"><path class="js-line" d="M5,0h30" style="fill: none; stroke: rgb(0, 128, 0); stroke-opacity: 1; stroke-width: 2px;"/></g><g class="legendsymbols"><g class="legendpoints"/></g></g><rect class="legendtoggle" x="0" y="-9.5" width="122.71875" height="19" style="fill: rgb(0, 0, 0); fill-opacity: 0;"/></g><g class="traces" transform="translate(0,71.5)" style="opacity: 1;"><text class="legendtext" text-anchor="start" x="40" y="4.680000000000001" style="font-family: 'Open Sans', verdana, arial, sans-serif; font-size: 12px; fill: rgb(42, 63, 95); fill-opacity: 1; white-space: pre;">Test Precision</text><g class="layers" style="opacity: 1;"><g class="legendfill"/><g class="legendlines"><path class="js-line" d="M5,0h30" style="fill: none; stroke: rgb(255, 165, 0); stroke-opacity: 1; stroke-width: 2px;"/></g><g class="legendsymbols"><g class="legendpoints"/></g></g><rect class="legendtoggle" x="0" y="-9.5" width="122.71875" height="19" style="fill: rgb(0, 0, 0); fill-opacity: 0;"/></g><g class="traces" transform="translate(0,90.5)" style="opacity: 1;"><text class="legendtext" text-anchor="start" x="40" y="4.680000000000001" style="font-family: 'Open Sans', verdana, arial, sans-serif; font-size: 12px; fill: rgb(42, 63, 95); fill-opacity: 1; white-space: pre;">Train Recall</text><g class="layers" style="opacity: 1;"><g class="legendfill"/><g class="legendlines"><path class="js-line" d="M5,0h30" style="fill: none; stroke: rgb(128, 0, 128); stroke-opacity: 1; stroke-width: 2px;"/></g><g class="legendsymbols"><g class="legendpoints"/></g></g><rect class="legendtoggle" x="0" y="-9.5" width="122.71875" height="19" style="fill: rgb(0, 0, 0); fill-opacity: 0;"/></g><g class="traces" transform="translate(0,109.5)" style="opacity: 1;"><text class="legendtext" text-anchor="start" x="40" y="4.680000000000001" style="font-family: 'Open Sans', verdana, arial, sans-serif; font-size: 12px; fill: rgb(42, 63, 95); fill-opacity: 1; white-space: pre;">Test Recall</text><g class="layers" style="opacity: 1;"><g class="legendfill"/><g class="legendlines"><path class="js-line" d="M5,0h30" style="fill: none; stroke: rgb(255, 192, 203); stroke-opacity: 1; stroke-width: 2px;"/></g><g class="legendsymbols"><g class="legendpoints"/></g></g><rect class="legendtoggle" x="0" y="-9.5" width="122.71875" height="19" style="fill: rgb(0, 0, 0); fill-opacity: 0;"/></g><g class="traces" transform="translate(0,128.5)" style="opacity: 1;"><text class="legendtext" text-anchor="start" x="40" y="4.680000000000001" style="font-family: 'Open Sans', verdana, arial, sans-serif; font-size: 12px; fill: rgb(42, 63, 95); fill-opacity: 1; white-space: pre;">Train F1</text><g class="layers" style="opacity: 1;"><g class="legendfill"/><g class="legendlines"><path class="js-line" d="M5,0h30" style="fill: none; stroke: rgb(165, 42, 42); stroke-opacity: 1; stroke-width: 2px;"/></g><g class="legendsymbols"><g class="legendpoints"/></g></g><rect class="legendtoggle" x="0" y="-9.5" width="122.71875" height="19" style="fill: rgb(0, 0, 0); fill-opacity: 0;"/></g><g class="traces" transform="translate(0,147.5)" style="opacity: 1;"><text class="legendtext" text-anchor="start" x="40" y="4.680000000000001" style="font-family: 'Open Sans', verdana, arial, sans-serif; font-size: 12px; fill: rgb(42, 63, 95); fill-opacity: 1; white-space: pre;">Test F1</text><g class="layers" style="opacity: 1;"><g class="legendfill"/><g class="legendlines"><path class="js-line" d="M5,0h30" style="fill: none; stroke: rgb(128, 128, 128); stroke-opacity: 1; stroke-width: 2px;"/></g><g class="legendsymbols"><g class="legendpoints"/></g></g><rect class="legendtoggle" x="0" y="-9.5" width="122.71875" height="19" style="fill: rgb(0, 0, 0); fill-opacity: 0;"/></g></g></g><rect class="scrollbar" rx="20" ry="3" width="0" height="0" x="0" y="0" style="fill: rgb(128, 139, 164); fill-opacity: 1;"/></g><g class="g-gtitle"><text class="gtitle" x="51.2" y="50" text-anchor="start" dy="0em" style="font-family: 'Open Sans', verdana, arial, sans-serif; font-size: 17px; fill: rgb(42, 63, 95); opacity: 1; font-weight: normal; white-space: pre;">Training Metrics - logs/FakeNewsNet-gossipcop_max-vocab=15000_pre=v2_domain_T=150_s=10.log</text></g><g class="g-xtitle"><text class="xtitle" x="504.5" y="537.3" text-anchor="middle" style="font-family: 'Open Sans', verdana, arial, sans-serif; font-size: 14px; fill: rgb(42, 63, 95); opacity: 1; font-weight: normal; white-space: pre;">Epoch</text></g><g class="g-ytitle"><text class="ytitle" transform="rotate(-90,100.965625,298)" x="100.965625" y="298" text-anchor="middle" style="font-family: 'Open Sans', verdana, arial, sans-serif; font-size: 14px; fill: rgb(42, 63, 95); opacity: 1; font-weight: normal; white-space: pre;">Metric Score</text></g></g><g class="menulayer"><g class="updatemenu-container" style="cursor: pointer;"><g class="updatemenu-header-group" transform="translate(12,60)"><g class="updatemenu-header" transform="translate(1,1)" style="pointer-events: all;"><rect class="updatemenu-item-rect" rx="2" ry="2" shape-rendering="crispEdges" x="0" y="0" width="164" height="33" style="stroke: rgb(190, 200, 217); stroke-opacity: 1; fill: rgb(255, 255, 255); fill-opacity: 1; stroke-width: 1px;"/><text class="updatemenu-item-text" text-anchor="start" data-notex="1" x="12" y="19.5" style="font-family: 'Open Sans', verdana, arial, sans-serif; font-size: 12px; fill: rgb(42, 63, 95); fill-opacity: 1; white-space: pre;">All</text></g><text class="updatemenu-header-arrow" text-anchor="end" x="160" y="19.5" style="font-family: 'Open Sans', verdana, arial, sans-serif; font-size: 12px; fill: rgb(42, 63, 95); fill-opacity: 1;">▼</text></g><g class="updatemenu-dropdown-button-group" updatemenu-active-index="-1" style="pointer-events: all;"><rect class="scrollbox-bg" opacity="0" x="0" y="0" width="0" height="0" style="pointer-events: all;"/></g></g></g></svg>