<svg class="main-svg" xmlns="http://www.w3.org/2000/svg" xmlns:xlink="http://www.w3.org/1999/xlink" width="1024" height="576" style="" viewBox="0 0 1024 576"><rect x="0" y="0" width="1024" height="576" style="fill: rgb(255, 255, 255); fill-opacity: 1;"/><defs id="defs-d6f721"><g class="clips"><clipPath id="clipd6f721xyplot" class="plotclip"><rect width="726" height="396"/></clipPath><clipPath class="axesclip" id="clipd6f721x"><rect x="143" y="0" width="726" height="576"/></clipPath><clipPath class="axesclip" id="clipd6f721y"><rect x="0" y="100" width="1024" height="396"/></clipPath><clipPath class="axesclip" id="clipd6f721xy"><rect x="143" y="100" width="726" height="396"/></clipPath></g><g class="gradients"/><g class="patterns"/></defs><g class="bglayer"><rect class="bg" x="143" y="100" width="726" height="396" style="fill: rgb(229, 236, 246); fill-opacity: 1; stroke-width: 0;"/></g><g class="layer-below"><g class="imagelayer"/><g class="shapelayer"/></g><g class="cartesianlayer"><g class="subplot xy"><g class="layer-subplot"><g class="shapelayer"/><g class="imagelayer"/></g><g class="minor-gridlayer"><g class="x"/><g class="y"/></g><g class="gridlayer"><g class="x"><path class="xgrid crisp" transform="translate(235.57999999999998,0)" d="M0,100v396" style="stroke: rgb(255, 255, 255); stroke-opacity: 1; stroke-width: 1px;"/><path class="xgrid crisp" transform="translate(333.03,0)" d="M0,100v396" style="stroke: rgb(255, 255, 255); stroke-opacity: 1; stroke-width: 1px;"/><path class="xgrid crisp" transform="translate(430.48,0)" d="M0,100v396" style="stroke: rgb(255, 255, 255); stroke-opacity: 1; stroke-width: 1px;"/><path class="xgrid crisp" transform="translate(527.9300000000001,0)" d="M0,100v396" style="stroke: rgb(255, 255, 255); stroke-opacity: 1; stroke-width: 1px;"/><path class="xgrid crisp" transform="translate(625.38,0)" d="M0,100v396" style="stroke: rgb(255, 255, 255); stroke-opacity: 1; stroke-width: 1px;"/><path class="xgrid crisp" transform="translate(722.83,0)" d="M0,100v396" style="stroke: rgb(255, 255, 255); stroke-opacity: 1; stroke-width: 1px;"/><path class="xgrid crisp" transform="translate(820.28,0)" d="M0,100v396" style="stroke: rgb(255, 255, 255); stroke-opacity: 1; stroke-width: 1px;"/></g><g class="y"><path class="ygrid crisp" transform="translate(0,436.17)" d="M143,0h726" style="stroke: rgb(255, 255, 255); stroke-opacity: 1; stroke-width: 1px;"/><path class="ygrid crisp" transform="translate(0,339.95)" d="M143,0h726" style="stroke: rgb(255, 255, 255); stroke-opacity: 1; stroke-width: 1px;"/><path class="ygrid crisp" transform="translate(0,243.73)" d="M143,0h726" style="stroke: rgb(255, 255, 255); stroke-opacity: 1; stroke-width: 1px;"/><path class="ygrid crisp" transform="translate(0,147.51)" d="M143,0h726" style="stroke: rgb(255, 255, 255); stroke-opacity: 1; stroke-width: 1px;"/></g></g><g class="zerolinelayer"/><path class="xlines-below"/><path class="ylines-below"/><g class="overlines-below"/><g class="xaxislayer-below"/><g class="yaxislayer-below"/><g class="overaxes-below"/><g class="plot" transform="translate(143,100)" clip-path="url(#clipd6f721xyplot)"><g class="scatterlayer mlayer"><g class="trace scatter trace9638e4" style="stroke-miterlimit: 2; opacity: 1;"><g class="fills"/><g class="errorbars"/><g class="lines"><path class="js-line" d="M0,285.56L4.87,267.28L9.74,189.73L14.62,164.71L19.49,132.76L24.36,130.45L29.23,116.79L34.11,142L38.98,123.72L48.72,162.4L53.6,142L58.47,132.76L63.34,139.69L68.21,144.12L73.09,105.44L77.96,91.77L82.83,107.75L87.7,94.08L92.58,84.84L97.45,94.08L102.32,80.42L107.19,78.11L112.07,89.46L116.94,100.82L121.81,91.77L126.68,105.44L131.56,100.82L136.43,100.82L141.3,82.54L146.17,91.77L151.05,82.54L155.92,89.46L160.79,173.75L165.66,68.87L170.54,78.11L175.41,82.54L180.28,91.77L185.15,94.08L190.03,73.49L194.9,66.76L199.77,66.76L204.64,84.84L209.52,68.87L214.39,62.14L219.26,59.83L224.13,68.87L229.01,80.42L233.88,94.08L238.75,144.12L243.62,78.11L248.5,87.15L253.37,162.4L258.24,75.8L263.11,75.8L267.99,164.71L272.86,173.75L277.73,153.35L282.6,71.18L287.48,178.37L292.35,71.18L297.22,59.83L302.09,59.83L306.97,55.21L311.84,57.52L316.71,75.8L321.58,71.18L326.46,89.46L331.33,100.82L336.2,75.8L341.07,82.54L345.95,94.08L350.82,182.99L355.69,94.08L360.56,105.44L365.44,64.45L370.31,91.77L375.18,87.15L380.05,64.45L384.93,66.76L389.8,50.78L394.67,59.83L399.54,62.14L404.42,59.83L409.29,62.14L414.16,55.21L419.03,41.55L423.91,68.87L428.78,62.14L433.65,43.86L438.52,52.9L443.4,52.9L448.27,57.52L453.14,39.24L458.01,142L462.89,196.65L467.76,142L472.63,71.18L477.5,151.04L482.38,55.21L487.25,50.78L492.12,151.04L496.99,55.21L501.87,151.04L506.74,71.18L511.61,87.15L516.48,75.8L521.36,50.78L526.23,62.14L531.1,55.21L535.97,110.05L540.85,94.08L545.72,75.8L550.59,167.02L555.46,135.07L560.34,171.64L565.21,130.45L570.08,153.35L574.95,157.78L579.83,160.09L584.7,153.35L589.57,57.52L594.44,139.69L599.32,155.66L604.19,59.83L609.06,151.04L613.93,132.76L618.81,52.9L623.68,80.42L628.55,46.16L633.42,48.47L638.3,132.76L643.17,126.03L648.04,123.72L652.91,36.93L657.79,50.78L662.66,59.83L667.53,75.8L672.4,57.52L677.28,66.76L682.15,50.78L687.02,48.47L691.89,144.12L696.77,137.38L701.64,46.16L706.51,155.66L711.38,66.76L716.26,59.83L721.13,57.52L726,80.42" style="vector-effect: none; fill: none; stroke: rgb(255, 0, 0); stroke-opacity: 1; stroke-width: 2px; opacity: 1;"/></g><g class="points"/><g class="text"/></g><g class="trace scatter trace9b458c" style="stroke-miterlimit: 2; opacity: 1;"><g class="fills"/><g class="errorbars"/><g class="lines"><path class="js-line" d="M0,212.63L4.87,203.58L9.74,121.99L14.62,131.03L19.49,85.61L24.36,121.99L29.23,131.03L34.11,158.16L38.98,149.12L43.85,140.08L48.72,185.49L53.6,167.4L58.47,112.94L63.34,158.16L68.21,158.16L73.09,112.94L77.96,121.99L82.83,131.03L87.7,121.99L92.58,103.7L97.45,94.66L102.32,121.99L107.19,103.7L112.07,140.08L116.94,131.03L121.81,121.99L126.68,140.08L131.56,112.94L136.43,112.94L141.3,103.7L146.17,112.94L151.05,140.08L155.92,131.03L160.79,321.74L165.66,112.94L180.28,85.61L185.15,85.61L190.03,94.66L194.9,94.66L199.77,140.08L204.64,131.03L209.52,94.66L214.39,103.7L229.01,158.16L233.88,194.54L238.75,276.32L243.62,121.99L248.5,167.4L253.37,321.74L258.24,140.08L263.11,140.08L267.99,285.37L272.86,303.46L277.73,294.41L282.6,76.57L287.48,294.41L292.35,112.94L297.22,67.53L302.09,103.7L306.97,112.94L311.84,112.94L316.71,140.08L321.58,131.03L331.33,149.12L336.2,112.94L341.07,140.08L345.95,140.08L350.82,330.78L355.69,167.4L360.56,194.54L365.44,85.61L370.31,131.03L375.18,149.12L380.05,94.66L384.93,140.08L389.8,85.61L394.67,94.66L404.42,112.94L409.29,140.08L414.16,149.12L419.03,149.12L423.91,167.4L428.78,176.45L433.65,140.08L438.52,158.16L443.4,158.16L448.27,167.4L453.14,149.12L458.01,321.74L462.89,376.2L467.76,267.28L472.63,158.16L477.5,339.83L482.38,131.03L487.25,140.08L492.12,303.46L496.99,131.03L501.87,321.74L506.74,149.12L511.61,121.99L516.48,140.08L521.36,140.08L526.23,149.12L531.1,85.61L535.97,176.45L540.85,140.08L545.72,131.03L550.59,276.32L555.46,303.46L560.34,321.74L565.21,294.41L570.08,267.28L574.95,276.32L584.7,294.41L589.57,140.08L594.44,285.37L599.32,294.41L604.19,94.66L609.06,312.5L613.93,294.41L618.81,140.08L623.68,140.08L628.55,67.53L633.42,67.53L638.3,294.41L643.17,276.32L648.04,303.46L652.91,103.7L657.79,112.94L662.66,94.66L667.53,112.94L672.4,121.99L677.28,121.99L682.15,85.61L687.02,94.66L691.89,267.28L696.77,258.04L701.64,67.53L706.51,285.37L711.38,112.94L716.26,112.94L726,131.03" style="vector-effect: none; fill: none; stroke: rgb(0, 0, 255); stroke-opacity: 1; stroke-width: 2px; opacity: 1;"/></g><g class="points"/><g class="text"/></g><g class="trace scatter trace13ebf1" style="stroke-miterlimit: 2; opacity: 1;"><g class="fills"/><g class="errorbars"/><g class="lines"><path class="js-line" d="M0,292.68L4.87,279.02L9.74,199.35L14.62,172.02L19.49,134.69L24.36,121.99L29.23,97.74L34.11,149.7L38.98,128.91L48.72,172.79L53.6,150.47L58.47,137.96L63.34,147.2L68.21,152.78L73.09,103.13L77.96,83.31L82.83,95.62L87.7,91.2L92.58,69.06L97.45,75.03L102.32,62.52L107.19,65.99L112.07,84.46L116.94,95.24L121.81,88.31L126.68,104.67L131.56,100.63L136.43,100.63L141.3,78.49L146.17,86.38L151.05,75.42L155.92,86.38L160.79,151.43L165.66,62.71L170.54,71.57L180.28,84.27L185.15,85.23L190.03,62.14L194.9,51.55L199.77,54.05L204.64,85.61L209.52,60.6L214.39,52.71L219.26,45.97L224.13,61.75L233.88,91.2L238.75,132.96L243.62,75.42L248.5,83.5L253.37,146.81L258.24,66.37L263.11,61.56L267.99,158.93L272.86,161.05L277.73,147L282.6,57.9L287.48,158.55L292.35,66.76L297.22,49.63L306.97,46.93L311.84,46.55L316.71,73.49L321.58,68.68L326.46,92.54L331.33,106.4L336.2,78.11L341.07,88.5L345.95,101.39L350.82,136.03L355.69,100.43L360.56,112.94L365.44,53.48L370.31,93.89L375.18,89.85L380.05,58.87L384.93,62.71L389.8,40.97L399.54,49.05L404.42,38.85L409.29,46.55L414.16,30.77L419.03,24.61L423.91,61.75L428.78,56.94L433.65,32.89L438.52,27.31L443.4,29.04L448.27,48.86L453.14,19.8L458.01,132.19L462.89,157.01L467.76,130.07L472.63,60.21L477.5,129.68L482.38,40.97L487.25,43.09L492.12,133.53L496.99,46.93L501.87,132.38L506.74,67.72L511.61,89.85L516.48,73.49L521.36,33.27L526.23,51.55L531.1,42.12L535.97,114.48L540.85,96.01L545.72,71.57L550.59,138.34L555.46,111.59L560.34,130.45L565.21,116.98L570.08,125.83L574.95,133.34L579.83,136.23L584.7,130.07L589.57,52.13L594.44,121.41L599.32,128.91L604.19,48.47L609.06,125.64L613.93,121.99L618.81,41.55L623.68,79.26L628.55,30.96L633.42,31.35L638.3,121.02L643.17,107.55L648.04,106.01L652.91,24.8L657.79,35.97L662.66,51.94L667.53,80.03L672.4,52.13L677.28,61.75L682.15,33.27L687.02,26.92L691.89,130.84L696.77,122.18L701.64,29.61L706.51,134.3L711.38,63.68L716.26,48.47L721.13,44.05L726,82.15" style="vector-effect: none; fill: none; stroke: rgb(0, 128, 0); stroke-opacity: 1; stroke-width: 2px; opacity: 1;"/></g><g class="points"/><g class="text"/></g><g class="trace scatter traced62da6" style="stroke-miterlimit: 2; opacity: 1;"><g class="fills"/><g class="errorbars"/><g class="lines"><path class="js-line" d="M0,235.33L4.87,229.75L9.74,150.27L14.62,159.7L19.49,111.21L24.36,146.23L29.23,155.28L34.11,187.99L38.98,178.95L43.85,169.13L48.72,211.28L53.6,194.54L58.47,140.46L63.34,187.22L68.21,187.22L73.09,140.46L77.96,149.12L82.83,157.2L87.7,150.27L92.58,126.41L97.45,112.17L102.32,147.97L107.19,129.68L112.07,169.33L116.94,159.32L121.81,150.27L126.68,169.33L131.56,140.65L136.43,140.65L141.3,128.34L146.17,137.19L151.05,167.79L155.92,158.36L160.79,265.35L165.66,137.19L170.54,129.68L175.41,119.29L180.28,108.52L185.15,108.52L190.03,117.37L194.9,117.37L199.77,166.25L204.64,159.32L209.52,115.06L214.39,128.34L219.26,146.23L224.13,168.75L229.01,187.99L233.88,227.25L238.75,257.46L243.62,147.97L248.5,197.62L253.37,280.36L258.24,167.79L263.11,166.25L267.99,263.62L272.86,269.01L277.73,286.91L282.6,88.12L287.48,256.31L292.35,138.92L297.22,88.69L302.09,120.83L306.97,137.19L311.84,137.19L316.71,169.33L321.58,159.7L331.33,178.18L336.2,140.46L341.07,168.36L345.95,167.21L350.82,234.37L355.69,196.08L360.56,223.4L365.44,106.4L370.31,159.7L375.18,178.18L380.05,117.37L384.93,168.75L389.8,108.52L394.67,112.17L399.54,126.41L404.42,132.57L409.29,166.25L414.16,173.37L419.03,177.02L423.91,198.19L428.78,207.81L433.65,168.75L438.52,184.53L443.4,184.53L448.27,196.85L453.14,177.99L458.01,287.29L462.89,278.06L472.63,188.57L477.5,284.02L482.38,158.36L487.25,168.75L492.12,254.58L496.99,158.36L501.87,280.36L506.74,178.95L511.61,149.89L516.48,168.75L521.36,167.79L526.23,177.02L531.1,103.7L535.97,207.04L540.85,169.13L545.72,159.32L550.59,237.84L555.46,246.69L560.34,239.37L565.21,256.31L570.08,209.35L574.95,214.36L584.7,241.3L589.57,168.75L594.44,250.54L599.32,233.22L604.19,117.37L609.06,259.97L613.93,263.04L618.81,167.79L623.68,169.33L628.55,83.5L633.42,83.5L638.3,263.04L643.17,237.84L648.04,269.01L652.91,126.41L657.79,135.26L662.66,117.37L667.53,140.46L672.4,149.89L677.28,146.23L682.15,91.97L687.02,104.86L691.89,245.34L696.77,239.18L701.64,79.84L706.51,243.42L711.38,137.19L716.26,138.92L726,158.55" style="vector-effect: none; fill: none; stroke: rgb(255, 165, 0); stroke-opacity: 1; stroke-width: 2px; opacity: 1;"/></g><g class="points"/><g class="text"/></g><g class="trace scatter trace04b24e" style="stroke-miterlimit: 2; opacity: 1;"><g class="fills"/><g class="errorbars"/><g class="lines"><path class="js-line" d="M0,282.67L4.87,272.86L9.74,209.16L14.62,185.3L19.49,157.01L24.36,163.36L29.23,154.7L34.11,158.93L38.98,143.15L48.72,175.1L53.6,157.4L58.47,153.35L63.34,157.01L68.21,160.09L73.09,131.22L77.96,121.02L82.83,140.85L87.7,119.1L92.58,118.14L97.45,129.68L102.32,114.1L107.19,108.52L112.07,116.02L116.94,128.91L121.81,117.17L126.68,129.68L131.56,124.3L136.43,124.3L141.3,107.94L146.17,118.71L151.05,110.05L155.92,114.48L160.79,142.58L165.66,94.47L170.54,104.67L175.41,108.52L180.28,120.25L185.15,123.72L190.03,102.93L194.9,97.93L199.77,96.39L204.64,106.01L209.52,96.01L214.39,89.46L219.26,89.66L224.13,95.24L229.01,104.47L233.88,119.1L238.75,119.29L243.62,101.59L248.5,112.56L253.37,135.07L258.24,104.28L263.11,107.17L267.99,144.5L272.86,148.74L277.73,132.57L282.6,101.78L287.48,148.93L292.35,95.81L297.22,87.54L302.09,88.31L306.97,81.19L311.84,85.42L316.71,98.89L321.58,94.27L326.46,108.52L331.33,117.56L336.2,94.47L341.07,97.35L345.95,107.17L350.82,139.88L355.69,108.71L360.56,119.1L365.44,92.93L370.31,111.98L375.18,106.59L380.05,89.08L384.93,90.43L389.8,77.34L394.67,90.43L404.42,93.5L409.29,93.12L414.16,90.23L419.03,71.76L423.91,95.24L428.78,86.38L433.65,70.6L438.52,88.31L443.4,87.54L448.27,84.08L453.14,70.6L458.01,118.14L462.89,157.01L467.76,116.6L472.63,100.24L477.5,120.06L482.38,85.04L487.25,75.8L492.12,122.18L496.99,81.19L501.87,121.41L506.74,95.04L511.61,106.59L516.48,98.89L521.36,81.96L526.23,90.23L531.1,84.27L535.97,129.11L545.72,100.43L550.59,132.19L555.46,102.55L560.34,130.84L565.21,103.9L570.08,118.91L574.95,125.07L579.83,127.76L584.7,121.22L589.57,81.77L594.44,110.25L599.32,121.6L604.19,88.31L609.06,117.75L613.93,108.13L618.81,80.8L623.68,102.93L628.55,75.61L633.42,79.07L638.3,107.36L643.17,96.2L648.04,94.08L652.91,64.06L657.79,80.42L667.53,92.16L672.4,81.77L677.28,91L682.15,81.96L687.02,81.38L691.89,117.94L696.77,109.67L701.64,76.38L706.51,124.68L711.38,89.66L721.13,86.96L726,99.86" style="vector-effect: none; fill: none; stroke: rgb(128, 0, 128); stroke-opacity: 1; stroke-width: 2px; opacity: 1;"/></g><g class="points"/><g class="text"/></g><g class="trace scatter tracea95c97" style="stroke-miterlimit: 2; opacity: 1;"><g class="fills"/><g class="errorbars"/><g class="lines"><path class="js-line" d="M0,205.51L4.87,203.58L9.74,138.92L14.62,151.24L19.49,105.05L24.36,159.51L29.23,171.83L34.11,172.79L38.98,170.67L43.85,153.16L48.72,183.95L53.6,169.71L58.47,131.61L63.34,167.59L68.21,167.59L73.09,131.61L77.96,149.12L82.83,166.63L87.7,138.92L92.58,139.88L97.45,137.96L102.32,154.32L107.19,129.68L112.07,163.55L116.94,156.43L121.81,138.92L126.68,158.36L131.56,126.6L136.43,126.6L141.3,134.88L146.17,147.2L151.05,173.94L155.92,161.44L160.79,245.34L165.66,147.2L170.54,129.68L175.41,122.56L180.28,115.25L185.15,115.25L190.03,127.57L194.9,127.57L199.77,178.95L204.64,156.43L209.52,132.76L214.39,134.88L219.26,159.51L224.13,168.75L229.01,172.79L233.88,222.06L238.75,224.94L243.62,154.32L248.5,200.5L253.37,255.54L258.24,173.94L263.11,178.95L267.99,232.06L272.86,241.3L277.73,254.77L282.6,123.53L287.48,228.98L292.35,142L297.22,95.81L302.09,150.27L306.97,147.2L311.84,147.2L316.71,158.36L321.58,146.04L326.46,148.16L331.33,160.47L336.2,131.61L341.07,148.16L345.95,142.96L350.82,231.87L355.69,174.71L360.56,201.46L365.44,120.45L370.31,151.24L375.18,160.47L380.05,127.57L384.93,168.75L389.8,115.25L394.67,137.96L399.54,139.88L404.42,157.4L409.29,178.95L414.16,196.46L419.03,186.26L423.91,190.3L428.78,202.62L433.65,168.75L438.52,203.77L443.4,203.77L448.27,205.7L453.14,181.07L458.01,260.74L462.89,278.06L467.76,202.23L472.63,182.99L477.5,264.78L482.38,161.44L487.25,168.75L492.12,230.91L496.99,161.44L501.87,255.54L506.74,170.67L511.61,144.12L516.48,168.75L521.36,173.94L526.23,186.26L531.1,125.64L535.97,192.23L540.85,153.16L545.72,156.43L550.59,209.35L555.46,225.71L560.34,229.75L565.21,228.98L570.08,186.65L574.95,193.96L584.7,218.59L589.57,168.75L594.44,221.67L599.32,213.4L604.19,127.57L609.06,238.03L613.93,233.99L618.81,173.94L623.68,163.55L628.55,106.01L633.42,106.01L638.3,233.99L643.17,209.35L648.04,241.3L652.91,139.88L657.79,152.39L662.66,127.57L667.53,121.41L672.4,144.12L677.28,159.51L682.15,141.04L687.02,148.35L691.89,212.43L696.77,205.31L701.64,111.21L706.51,216.47L711.38,147.2L716.26,142L721.13,154.32L726,135.65" style="vector-effect: none; fill: none; stroke: rgb(255, 192, 203); stroke-opacity: 1; stroke-width: 2px; opacity: 1;"/></g><g class="points"/><g class="text"/></g><g class="trace scatter trace54cd7b" style="stroke-miterlimit: 2; opacity: 1;"><g class="fills"/><g class="errorbars"/><g class="lines"><path class="js-line" d="M0,291.72L4.87,276.9L9.74,205.31L14.62,180.3L19.49,149.31L24.36,152.01L29.23,140.65L34.11,155.09L38.98,137.57L48.72,173.94L53.6,154.32L58.47,147.39L63.34,152.97L68.21,157.01L73.09,121.99L77.96,109.48L82.83,128.34L87.7,109.86L92.58,104.47L97.45,115.44L102.32,100.05L107.19,95.81L112.07,105.82L116.94,118.33L121.81,107.55L126.68,121.22L131.56,116.02L136.43,116.02L141.3,98.12L146.17,108.32L151.05,99.09L155.92,105.05L160.79,174.14L165.66,84.08L170.54,94.08L175.41,98.51L180.28,109.09L185.15,112.17L190.03,90.62L194.9,84.46L199.77,83.69L204.64,98.51L209.52,84.84L214.39,77.72L219.26,76.57L224.13,84.46L229.01,95.04L233.88,109.86L238.75,145.27L243.62,92.54L248.5,102.74L253.37,163.17L258.24,92.54L263.11,94.08L267.99,166.44L272.86,174.71L277.73,154.89L282.6,88.89L287.48,178.76L292.35,86L297.22,75.61L302.09,75.8L306.97,70.03L311.84,73.3L316.71,90.04L321.58,85.23L326.46,102.36L331.33,112.94L336.2,88.12L341.07,93.5L345.95,104.47L350.82,182.99L355.69,105.05L360.56,116.41L365.44,80.61L370.31,105.05L375.18,100.05L380.05,78.88L384.93,80.8L389.8,65.6L394.67,76.95L399.54,78.88L404.42,78.49L409.29,79.65L414.16,74.45L419.03,57.71L423.91,84.46L428.78,76.38L433.65,58.67L438.52,72.14L443.4,71.76L448.27,72.53L453.14,55.79L458.01,142.96L462.89,196.65L472.63,88.12L477.5,151.43L482.38,71.76L487.25,65.02L492.12,151.62L496.99,70.03L501.87,151.43L506.74,85.61L511.61,100.05L516.48,90.04L521.36,67.72L526.23,78.11L531.1,71.37L535.97,123.33L545.72,90.62L550.59,167.21L555.46,135.26L560.34,171.64L565.21,131.22L570.08,153.55L574.95,158.16L579.83,160.47L584.7,153.55L589.57,71.57L594.44,140.08L599.32,155.86L604.19,75.8L609.06,151.24L613.93,133.72L618.81,68.49L623.68,94.47L628.55,62.14L633.42,65.02L638.3,133.72L643.17,126.41L648.04,124.1L652.91,51.55L657.79,66.95L662.66,74.84L667.53,87.15L672.4,71.57L677.28,81.19L682.15,67.72L687.02,66.18L691.89,145.08L696.77,137.96L701.64,62.52L706.51,156.05L711.38,80.42L716.26,75.8L721.13,74.07L726,93.12" style="vector-effect: none; fill: none; stroke: rgb(165, 42, 42); stroke-opacity: 1; stroke-width: 2px; opacity: 1;"/></g><g class="points"/><g class="text"/></g><g class="trace scatter traceb12a33" style="stroke-miterlimit: 2; opacity: 1;"><g class="fills"/><g class="errorbars"/><g class="lines"><path class="js-line" d="M0,229.56L4.87,222.63L9.74,145.27L14.62,155.86L19.49,108.32L24.36,153.55L29.23,164.71L34.11,181.83L38.98,175.29L43.85,162.59L48.72,203.77L53.6,186.65L58.47,136.42L63.34,179.91L68.21,179.91L73.09,136.42L77.96,149.12L82.83,162.21L87.7,145.27L92.58,133.92L97.45,127.18L102.32,151.24L107.19,129.68L112.07,166.63L116.94,157.97L121.81,145.27L126.68,164.52L131.56,134.69L136.43,134.69L141.3,131.61L146.17,142.58L151.05,170.87L155.92,160.09L160.79,322.89L165.66,142.58L170.54,129.68L175.41,120.83L180.28,111.98L185.15,111.98L190.03,122.95L194.9,122.95L199.77,173.37L204.64,157.97L209.52,125.07L214.39,131.61L219.26,153.55L224.13,168.75L229.01,181.83L233.88,224.75L238.75,281.33L243.62,151.24L248.5,199.15L253.37,324.05L258.24,170.87L263.11,173.37L267.99,289.99L272.86,306.54L277.73,301.92L282.6,109.48L287.48,297.11L292.35,140.46L297.22,92.54L302.09,138.34L306.97,142.58L311.84,142.58L316.71,164.52L321.58,153.93L326.46,160.67L331.33,171.25L336.2,136.42L341.07,160.67L345.95,158.93L350.82,330.78L355.69,188.38L360.56,216.09L365.44,114.1L370.31,155.86L375.18,171.25L380.05,122.95L384.93,168.75L389.8,111.98L394.67,127.18L399.54,133.92L404.42,147.2L409.29,173.37L414.16,187.03L419.03,182.03L428.78,205.31L433.65,168.75L438.52,195.69L443.4,195.69L448.27,201.66L453.14,179.53L458.01,324.82L462.89,376.2L467.76,270.17L472.63,185.88L477.5,341.18L482.38,160.09L487.25,168.75L492.12,305.19L496.99,160.09L501.87,324.05L506.74,175.29L511.61,147.2L516.48,168.75L521.36,170.87L526.23,182.03L531.1,116.21L535.97,201.08L540.85,162.59L545.72,157.97L550.59,278.83L555.46,304.61L560.34,321.93L565.21,297.11L570.08,268.24L584.7,295.95L589.57,168.75L594.44,288.45L599.32,295.37L604.19,122.95L609.06,314.04L613.93,297.88L618.81,170.87L623.68,166.63L628.55,96.39L633.42,96.39L638.3,297.88L643.17,278.83L648.04,306.54L652.91,133.92L657.79,144.89L662.66,122.95L667.53,132.76L672.4,147.2L677.28,153.55L682.15,123.14L687.02,131.99L691.89,271.7L696.77,263.04L701.64,98.51L706.51,287.68L711.38,142.58L716.26,140.46L721.13,151.24L726,150.27" style="vector-effect: none; fill: none; stroke: rgb(128, 128, 128); stroke-opacity: 1; stroke-width: 2px; opacity: 1;"/></g><g class="points"/><g class="text"/></g></g></g><g class="overplot"/><path class="xlines-above crisp" d="M0,0" style="fill: none;"/><path class="ylines-above crisp" d="M0,0" style="fill: none;"/><g class="overlines-above"/><g class="xaxislayer-above"><g class="xtick"><text text-anchor="middle" x="0" y="509" transform="translate(235.57999999999998,0)" style="font-family: 'Open Sans', verdana, arial, sans-serif; font-size: 12px; fill: rgb(42, 63, 95); fill-opacity: 1; white-space: pre; opacity: 1;">20</text></g><g class="xtick"><text text-anchor="middle" x="0" y="509" style="font-family: 'Open Sans', verdana, arial, sans-serif; font-size: 12px; fill: rgb(42, 63, 95); fill-opacity: 1; white-space: pre; opacity: 1;" transform="translate(333.03,0)">40</text></g><g class="xtick"><text text-anchor="middle" x="0" y="509" style="font-family: 'Open Sans', verdana, arial, sans-serif; font-size: 12px; fill: rgb(42, 63, 95); fill-opacity: 1; white-space: pre; opacity: 1;" transform="translate(430.48,0)">60</text></g><g class="xtick"><text text-anchor="middle" x="0" y="509" style="font-family: 'Open Sans', verdana, arial, sans-serif; font-size: 12px; fill: rgb(42, 63, 95); fill-opacity: 1; white-space: pre; opacity: 1;" transform="translate(527.9300000000001,0)">80</text></g><g class="xtick"><text text-anchor="middle" x="0" y="509" style="font-family: 'Open Sans', verdana, arial, sans-serif; font-size: 12px; fill: rgb(42, 63, 95); fill-opacity: 1; white-space: pre; opacity: 1;" transform="translate(625.38,0)">100</text></g><g class="xtick"><text text-anchor="middle" x="0" y="509" style="font-family: 'Open Sans', verdana, arial, sans-serif; font-size: 12px; fill: rgb(42, 63, 95); fill-opacity: 1; white-space: pre; opacity: 1;" transform="translate(722.83,0)">120</text></g><g class="xtick"><text text-anchor="middle" x="0" y="509" style="font-family: 'Open Sans', verdana, arial, sans-serif; font-size: 12px; fill: rgb(42, 63, 95); fill-opacity: 1; white-space: pre; opacity: 1;" transform="translate(820.28,0)">140</text></g></g><g class="yaxislayer-above"><g class="ytick"><text text-anchor="end" x="142" y="4.199999999999999" transform="translate(0,436.17)" style="font-family: 'Open Sans', verdana, arial, sans-serif; font-size: 12px; fill: rgb(42, 63, 95); fill-opacity: 1; white-space: pre; opacity: 1;">70</text></g><g class="ytick"><text text-anchor="end" x="142" y="4.199999999999999" style="font-family: 'Open Sans', verdana, arial, sans-serif; font-size: 12px; fill: rgb(42, 63, 95); fill-opacity: 1; white-space: pre; opacity: 1;" transform="translate(0,339.95)">75</text></g><g class="ytick"><text text-anchor="end" x="142" y="4.199999999999999" style="font-family: 'Open Sans', verdana, arial, sans-serif; font-size: 12px; fill: rgb(42, 63, 95); fill-opacity: 1; white-space: pre; opacity: 1;" transform="translate(0,243.73)">80</text></g><g class="ytick"><text text-anchor="end" x="142" y="4.199999999999999" style="font-family: 'Open Sans', verdana, arial, sans-serif; font-size: 12px; fill: rgb(42, 63, 95); fill-opacity: 1; white-space: pre; opacity: 1;" transform="translate(0,147.51)">85</text></g></g><g class="overaxes-above"/></g></g><g class="polarlayer"/><g class="smithlayer"/><g class="ternarylayer"/><g class="geolayer"/><g class="funnelarealayer"/><g class="pielayer"/><g class="iciclelayer"/><g class="treemaplayer"/><g class="sunburstlayer"/><g class="glimages"/><defs id="topdefs-d6f721"><g class="clips"/><clipPath id="legendd6f721"><rect width="128" height="162" x="0" y="0"/></clipPath></defs><g class="layer-above"><g class="imagelayer"/><g class="shapelayer"/></g><g class="infolayer"><g class="legend" pointer-events="all" transform="translate(883.52,100)"><rect class="bg" shape-rendering="crispEdges" width="128" height="162" x="0" y="0" style="stroke: rgb(68, 68, 68); stroke-opacity: 1; fill: rgb(255, 255, 255); fill-opacity: 1; stroke-width: 0px;"/><g class="scrollbox" transform="" clip-path="url(#legendd6f721)"><g class="groups"><g class="traces" transform="translate(0,14.5)" style="opacity: 1;"><text class="legendtext" text-anchor="start" x="40" y="4.680000000000001" style="font-family: 'Open Sans', verdana, arial, sans-serif; font-size: 12px; fill: rgb(42, 63, 95); fill-opacity: 1; white-space: pre;">Train Accuracy</text><g class="layers" style="opacity: 1;"><g class="legendfill"/><g class="legendlines"><path class="js-line" d="M5,0h30" style="fill: none; stroke: rgb(255, 0, 0); stroke-opacity: 1; stroke-width: 2px;"/></g><g class="legendsymbols"><g class="legendpoints"/></g></g><rect class="legendtoggle" x="0" y="-9.5" width="122.71875" height="19" style="fill: rgb(0, 0, 0); fill-opacity: 0;"/></g><g class="traces" transform="translate(0,33.5)" style="opacity: 1;"><text class="legendtext" text-anchor="start" x="40" y="4.680000000000001" style="font-family: 'Open Sans', verdana, arial, sans-serif; font-size: 12px; fill: rgb(42, 63, 95); fill-opacity: 1; white-space: pre;">Test Accuracy</text><g class="layers" style="opacity: 1;"><g class="legendfill"/><g class="legendlines"><path class="js-line" d="M5,0h30" style="fill: none; stroke: rgb(0, 0, 255); stroke-opacity: 1; stroke-width: 2px;"/></g><g class="legendsymbols"><g class="legendpoints"/></g></g><rect class="legendtoggle" x="0" y="-9.5" width="122.71875" height="19" style="fill: rgb(0, 0, 0); fill-opacity: 0;"/></g><g class="traces" transform="translate(0,52.5)" style="opacity: 1;"><text class="legendtext" text-anchor="start" x="40" y="4.680000000000001" style="font-family: 'Open Sans', verdana, arial, sans-serif; font-size: 12px; fill: rgb(42, 63, 95); fill-opacity: 1; white-space: pre;">Train Precision</text><g class="layers" style="opacity: 1;"><g class="legendfill"/><g class="legendlines"><path class="js-line" d="M5,0h30" style="fill: none; stroke: rgb(0, 128, 0); stroke-opacity: 1; stroke-width: 2px;"/></g><g class="legendsymbols"><g class="legendpoints"/></g></g><rect class="legendtoggle" x="0" y="-9.5" width="122.71875" height="19" style="fill: rgb(0, 0, 0); fill-opacity: 0;"/></g><g class="traces" transform="translate(0,71.5)" style="opacity: 1;"><text class="legendtext" text-anchor="start" x="40" y="4.680000000000001" style="font-family: 'Open Sans', verdana, arial, sans-serif; font-size: 12px; fill: rgb(42, 63, 95); fill-opacity: 1; white-space: pre;">Test Precision</text><g class="layers" style="opacity: 1;"><g class="legendfill"/><g class="legendlines"><path class="js-line" d="M5,0h30" style="fill: none; stroke: rgb(255, 165, 0); stroke-opacity: 1; stroke-width: 2px;"/></g><g class="legendsymbols"><g class="legendpoints"/></g></g><rect class="legendtoggle" x="0" y="-9.5" width="122.71875" height="19" style="fill: rgb(0, 0, 0); fill-opacity: 0;"/></g><g class="traces" transform="translate(0,90.5)" style="opacity: 1;"><text class="legendtext" text-anchor="start" x="40" y="4.680000000000001" style="font-family: 'Open Sans', verdana, arial, sans-serif; font-size: 12px; fill: rgb(42, 63, 95); fill-opacity: 1; white-space: pre;">Train Recall</text><g class="layers" style="opacity: 1;"><g class="legendfill"/><g class="legendlines"><path class="js-line" d="M5,0h30" style="fill: none; stroke: rgb(128, 0, 128); stroke-opacity: 1; stroke-width: 2px;"/></g><g class="legendsymbols"><g class="legendpoints"/></g></g><rect class="legendtoggle" x="0" y="-9.5" width="122.71875" height="19" style="fill: rgb(0, 0, 0); fill-opacity: 0;"/></g><g class="traces" transform="translate(0,109.5)" style="opacity: 1;"><text class="legendtext" text-anchor="start" x="40" y="4.680000000000001" style="font-family: 'Open Sans', verdana, arial, sans-serif; font-size: 12px; fill: rgb(42, 63, 95); fill-opacity: 1; white-space: pre;">Test Recall</text><g class="layers" style="opacity: 1;"><g class="legendfill"/><g class="legendlines"><path class="js-line" d="M5,0h30" style="fill: none; stroke: rgb(255, 192, 203); stroke-opacity: 1; stroke-width: 2px;"/></g><g class="legendsymbols"><g class="legendpoints"/></g></g><rect class="legendtoggle" x="0" y="-9.5" width="122.71875" height="19" style="fill: rgb(0, 0, 0); fill-opacity: 0;"/></g><g class="traces" transform="translate(0,128.5)" style="opacity: 1;"><text class="legendtext" text-anchor="start" x="40" y="4.680000000000001" style="font-family: 'Open Sans', verdana, arial, sans-serif; font-size: 12px; fill: rgb(42, 63, 95); fill-opacity: 1; white-space: pre;">Train F1</text><g class="layers" style="opacity: 1;"><g class="legendfill"/><g class="legendlines"><path class="js-line" d="M5,0h30" style="fill: none; stroke: rgb(165, 42, 42); stroke-opacity: 1; stroke-width: 2px;"/></g><g class="legendsymbols"><g class="legendpoints"/></g></g><rect class="legendtoggle" x="0" y="-9.5" width="122.71875" height="19" style="fill: rgb(0, 0, 0); fill-opacity: 0;"/></g><g class="traces" transform="translate(0,147.5)" style="opacity: 1;"><text class="legendtext" text-anchor="start" x="40" y="4.680000000000001" style="font-family: 'Open Sans', verdana, arial, sans-serif; font-size: 12px; fill: rgb(42, 63, 95); fill-opacity: 1; white-space: pre;">Test F1</text><g class="layers" style="opacity: 1;"><g class="legendfill"/><g class="legendlines"><path class="js-line" d="M5,0h30" style="fill: none; stroke: rgb(128, 128, 128); stroke-opacity: 1; stroke-width: 2px;"/></g><g class="legendsymbols"><g class="legendpoints"/></g></g><rect class="legendtoggle" x="0" y="-9.5" width="122.71875" height="19" style="fill: rgb(0, 0, 0); fill-opacity: 0;"/></g></g></g><rect class="scrollbar" rx="20" ry="3" width="0" height="0" x="0" y="0" style="fill: rgb(128, 139, 164); fill-opacity: 1;"/></g><g class="g-gtitle"><text class="gtitle" x="51.2" y="50" text-anchor="start" dy="0em" style="font-family: 'Open Sans', verdana, arial, sans-serif; font-size: 17px; fill: rgb(42, 63, 95); opacity: 1; font-weight: normal; white-space: pre;">Training Metrics - logs/FakeNewsNet-politifact_max-vocab=15000_pre=v2_domain_T=50_s=10.log</text></g><g class="g-xtitle"><text class="xtitle" x="506" y="537.3" text-anchor="middle" style="font-family: 'Open Sans', verdana, arial, sans-serif; font-size: 14px; fill: rgb(42, 63, 95); opacity: 1; font-weight: normal; white-space: pre;">Epoch</text></g><g class="g-ytitle"><text class="ytitle" transform="rotate(-90,103.965625,298)" x="103.965625" y="298" text-anchor="middle" style="font-family: 'Open Sans', verdana, arial, sans-serif; font-size: 14px; fill: rgb(42, 63, 95); opacity: 1; font-weight: normal; white-space: pre;">Metric Score</text></g></g><g class="menulayer"><g class="updatemenu-container" style="cursor: pointer;"><g class="updatemenu-header-group" transform="translate(12,60)"><g class="updatemenu-header" transform="translate(1,1)" style="pointer-events: all;"><rect class="updatemenu-item-rect" rx="2" ry="2" shape-rendering="crispEdges" x="0" y="0" width="167" height="33" style="stroke: rgb(190, 200, 217); stroke-opacity: 1; fill: rgb(255, 255, 255); fill-opacity: 1; stroke-width: 1px;"/><text class="updatemenu-item-text" text-anchor="start" data-notex="1" x="12" y="19.5" style="font-family: 'Open Sans', verdana, arial, sans-serif; font-size: 12px; fill: rgb(42, 63, 95); fill-opacity: 1; white-space: pre;">All</text></g><text class="updatemenu-header-arrow" text-anchor="end" x="163" y="19.5" style="font-family: 'Open Sans', verdana, arial, sans-serif; font-size: 12px; fill: rgb(42, 63, 95); fill-opacity: 1;">▼</text></g><g class="updatemenu-dropdown-button-group" updatemenu-active-index="-1" style="pointer-events: all;"><rect class="scrollbox-bg" opacity="0" x="0" y="0" width="0" height="0" style="pointer-events: all;"/></g></g></g></svg>