<svg class="main-svg" xmlns="http://www.w3.org/2000/svg" xmlns:xlink="http://www.w3.org/1999/xlink" width="1024" height="576" style="" viewBox="0 0 1024 576"><rect x="0" y="0" width="1024" height="576" style="fill: rgb(255, 255, 255); fill-opacity: 1;"/><defs id="defs-7c8b80"><g class="clips"><clipPath id="clip7c8b80xyplot" class="plotclip"><rect width="726" height="396"/></clipPath><clipPath class="axesclip" id="clip7c8b80x"><rect x="143" y="0" width="726" height="576"/></clipPath><clipPath class="axesclip" id="clip7c8b80y"><rect x="0" y="100" width="1024" height="396"/></clipPath><clipPath class="axesclip" id="clip7c8b80xy"><rect x="143" y="100" width="726" height="396"/></clipPath></g><g class="gradients"/><g class="patterns"/></defs><g class="bglayer"><rect class="bg" x="143" y="100" width="726" height="396" style="fill: rgb(229, 236, 246); fill-opacity: 1; stroke-width: 0;"/></g><g class="layer-below"><g class="imagelayer"/><g class="shapelayer"/></g><g class="cartesianlayer"><g class="subplot xy"><g class="layer-subplot"><g class="shapelayer"/><g class="imagelayer"/></g><g class="minor-gridlayer"><g class="x"/><g class="y"/></g><g class="gridlayer"><g class="x"><path class="xgrid crisp" transform="translate(235.57999999999998,0)" d="M0,100v396" style="stroke: rgb(255, 255, 255); stroke-opacity: 1; stroke-width: 1px;"/><path class="xgrid crisp" transform="translate(333.03,0)" d="M0,100v396" style="stroke: rgb(255, 255, 255); stroke-opacity: 1; stroke-width: 1px;"/><path class="xgrid crisp" transform="translate(430.48,0)" d="M0,100v396" style="stroke: rgb(255, 255, 255); stroke-opacity: 1; stroke-width: 1px;"/><path class="xgrid crisp" transform="translate(527.9300000000001,0)" d="M0,100v396" style="stroke: rgb(255, 255, 255); stroke-opacity: 1; stroke-width: 1px;"/><path class="xgrid crisp" transform="translate(625.38,0)" d="M0,100v396" style="stroke: rgb(255, 255, 255); stroke-opacity: 1; stroke-width: 1px;"/><path class="xgrid crisp" transform="translate(722.83,0)" d="M0,100v396" style="stroke: rgb(255, 255, 255); stroke-opacity: 1; stroke-width: 1px;"/><path class="xgrid crisp" transform="translate(820.28,0)" d="M0,100v396" style="stroke: rgb(255, 255, 255); stroke-opacity: 1; stroke-width: 1px;"/></g><g class="y"><path class="ygrid crisp" transform="translate(0,492)" d="M143,0h726" style="stroke: rgb(255, 255, 255); stroke-opacity: 1; stroke-width: 1px;"/><path class="ygrid crisp" transform="translate(0,442.93)" d="M143,0h726" style="stroke: rgb(255, 255, 255); stroke-opacity: 1; stroke-width: 1px;"/><path class="ygrid crisp" transform="translate(0,393.85)" d="M143,0h726" style="stroke: rgb(255, 255, 255); stroke-opacity: 1; stroke-width: 1px;"/><path class="ygrid crisp" transform="translate(0,344.77)" d="M143,0h726" style="stroke: rgb(255, 255, 255); stroke-opacity: 1; stroke-width: 1px;"/><path class="ygrid crisp" transform="translate(0,295.69)" d="M143,0h726" style="stroke: rgb(255, 255, 255); stroke-opacity: 1; stroke-width: 1px;"/><path class="ygrid crisp" transform="translate(0,246.62)" d="M143,0h726" style="stroke: rgb(255, 255, 255); stroke-opacity: 1; stroke-width: 1px;"/><path class="ygrid crisp" transform="translate(0,197.54000000000002)" d="M143,0h726" style="stroke: rgb(255, 255, 255); stroke-opacity: 1; stroke-width: 1px;"/><path class="ygrid crisp" transform="translate(0,148.46)" d="M143,0h726" style="stroke: rgb(255, 255, 255); stroke-opacity: 1; stroke-width: 1px;"/></g></g><g class="zerolinelayer"/><path class="xlines-below"/><path class="ylines-below"/><g class="overlines-below"/><g class="xaxislayer-below"/><g class="yaxislayer-below"/><g class="overaxes-below"/><g class="plot" transform="translate(143,100)" clip-path="url(#clip7c8b80xyplot)"><g class="scatterlayer mlayer"><g class="trace scatter tracea39dc5" style="stroke-miterlimit: 2; opacity: 1;"><g class="fills"/><g class="errorbars"/><g class="lines"><path class="js-line" d="M0,300.13L4.87,224.55L9.74,188.53L14.62,166.35L19.49,157.12L24.36,157.12L29.23,136.11L34.11,148.97L38.98,144.26L43.85,152.41L48.72,165.27L53.6,157.12L58.47,126.89L63.34,143.08L68.21,133.86L73.09,136.11L77.96,130.32L82.83,162.91L87.7,138.47L92.58,136.11L97.45,132.68L102.32,154.76L107.19,140.82L112.07,138.47L116.94,126.89L121.81,137.29L126.68,131.5L131.56,126.89L136.43,117.56L141.3,116.38L146.17,116.38L151.05,96.66L155.92,89.59L160.79,91.94L165.66,97.73L170.54,102.45L175.41,94.3L180.28,105.88L185.15,104.7L190.03,112.85L194.9,112.85L199.77,119.82L204.64,108.24L209.52,101.27L214.39,107.06L219.26,101.27L224.13,98.91L229.01,86.15L233.88,89.59L238.75,96.66L243.62,94.3L248.5,79.18L253.37,100.09L258.24,73.39L263.11,93.12L267.99,97.73L272.86,90.77L277.73,71.04L282.6,69.86L287.48,67.5L292.35,61.71L297.22,60.53L302.09,58.28L306.97,68.68L311.84,74.47L316.71,76.83L321.58,64.07L326.46,68.68L331.33,72.21L336.2,81.44L341.07,86.15L345.95,98.91L350.82,100.09L360.56,88.51L365.44,93.12L375.18,80.36L380.05,81.44L384.93,82.62L389.8,80.36L399.54,78.01L404.42,64.07L409.29,67.5L414.16,73.39L419.03,66.33L423.91,71.04L428.78,76.83L433.65,84.97L438.52,90.77L443.4,94.3L448.27,90.77L453.14,76.83L458.01,75.65L462.89,66.33L467.76,62.89L472.63,66.33L477.5,91.94L482.38,84.97L487.25,68.68L492.12,75.65L496.99,71.04L501.87,71.04L506.74,81.44L511.61,65.25L516.48,81.44L521.36,83.8L526.23,82.62L531.1,79.18L535.97,74.47L540.85,75.65L550.59,52.39L555.46,50.13L560.34,52.39L565.21,51.21L570.08,51.21L574.95,53.57L579.83,26.87L584.7,51.21L589.57,57.1L594.44,59.36L599.32,58.28L604.19,54.74L609.06,61.71L613.93,55.92L618.81,51.21L623.68,45.42L628.55,61.71L633.42,67.5L638.3,51.21L643.17,44.24L648.04,59.36L652.91,55.92L657.79,51.21L662.66,43.06L667.53,31.48L672.4,45.42L677.28,40.81L682.15,53.57L687.02,53.57L691.89,48.95L696.77,33.84L701.64,48.95L706.51,50.13L711.38,48.95L716.26,54.74L721.13,53.57L726,53.57" style="vector-effect: none; fill: none; stroke: rgb(255, 0, 0); stroke-opacity: 1; stroke-width: 2px; opacity: 1;"/></g><g class="points"/><g class="text"/></g><g class="trace scatter traceaccff8" style="stroke-miterlimit: 2; opacity: 1;"><g class="fills"/><g class="errorbars"/><g class="lines"><path class="js-line" d="M0,373.45L4.87,313.28L9.74,294.73L14.62,243.89L19.49,225.34L24.36,225.34L29.23,197.56L34.11,206.78L38.98,197.56L43.85,197.56L48.72,211.4L53.6,248.5L58.47,234.56L63.34,239.18L68.21,229.95L73.09,220.72L77.96,220.72L82.83,253.11L87.7,216.11L92.58,248.5L97.45,234.56L102.32,276.28L107.19,243.89L112.07,243.89L116.94,225.34L121.81,229.95L126.68,211.4L131.56,243.89L136.43,188.33L141.3,183.62L146.17,174.39L151.05,169.78L155.92,160.55L160.79,169.78L165.66,174.39L175.41,174.39L180.28,155.84L185.15,169.78L190.03,169.78L194.9,174.39L199.77,206.78L204.64,188.33L209.52,179.01L214.39,160.55L219.26,174.39L224.13,165.17L229.01,179.01L233.88,169.78L238.75,151.23L243.62,160.55L248.5,155.84L253.37,174.39L258.24,165.17L263.11,165.17L267.99,188.33L277.73,169.78L282.6,155.84L287.48,146.62L292.35,155.84L297.22,151.23L302.09,165.17L306.97,174.39L311.84,192.95L316.71,197.56L321.58,188.33L326.46,206.78L331.33,197.56L336.2,188.33L341.07,197.56L345.95,206.78L350.82,202.17L355.69,188.33L360.56,179.01L365.44,174.39L370.31,179.01L375.18,192.95L380.05,188.33L384.93,183.62L389.8,188.33L394.67,202.17L399.54,197.56L404.42,183.62L409.29,179.01L414.16,188.33L419.03,183.62L423.91,192.95L428.78,188.33L433.65,174.39L438.52,183.62L448.27,192.95L453.14,151.23L458.01,151.23L462.89,137.39L467.76,142L472.63,151.23L477.5,188.33L482.38,192.95L487.25,146.62L492.12,151.23L496.99,169.78L501.87,151.23L506.74,174.39L511.61,160.55L516.48,183.62L521.36,202.17L526.23,206.78L531.1,192.95L535.97,197.56L540.85,188.33L545.72,179.01L550.59,146.62L555.46,151.23L560.34,151.23L565.21,137.39L570.08,142L579.83,142L584.7,160.55L589.57,165.17L594.44,146.62L599.32,151.23L604.19,151.23L609.06,146.62L613.93,137.39L618.81,151.23L623.68,132.68L628.55,146.62L633.42,155.84L638.3,146.62L643.17,142L648.04,183.62L652.91,179.01L662.66,197.56L667.53,179.01L672.4,169.78L677.28,165.17L682.15,179.01L687.02,179.01L691.89,165.17L696.77,142L701.64,174.39L706.51,165.17L711.38,169.78L716.26,183.62L721.13,174.39L726,179.01" style="vector-effect: none; fill: none; stroke: rgb(0, 0, 255); stroke-opacity: 1; stroke-width: 2px; opacity: 1;"/></g><g class="points"/><g class="text"/></g><g class="trace scatter trace35245d" style="stroke-miterlimit: 2; opacity: 1;"><g class="fills"/><g class="errorbars"/><g class="lines"><path class="js-line" d="M0,243.69L4.87,180.09L9.74,157.9L14.62,140.73L19.49,147.99L29.23,128.65L34.11,128.95L38.98,124.24L43.85,125.22L48.72,133.37L53.6,131.89L58.47,111.38L63.34,114.62L68.21,102.84L73.09,114.62L77.96,106.37L82.83,121.19L87.7,103.53L92.58,103.23L97.45,100.09L102.32,109.42L107.19,103.82L112.07,101.37L116.94,97.54L121.81,102.84L131.56,98.52L136.43,93.61L141.3,97.24L146.17,99.6L151.05,86.35L155.92,83.6L160.79,85.37L165.66,89.78L170.54,95.58L175.41,86.55L180.28,95.08L185.15,92.93L190.03,96.46L194.9,94.89L199.77,102.74L204.64,96.07L209.52,89.69L214.39,90.86L224.13,87.33L229.01,76.83L233.88,78.69L238.75,86.35L243.62,83.99L248.5,73.39L253.37,90.86L258.24,68.88L263.11,85.66L267.99,87.82L272.86,85.07L277.73,69.86L282.6,67.99L287.48,69.37L292.35,64.26L297.22,60.34L302.09,58.77L306.97,62.6L316.71,72.12L321.58,64.46L326.46,63.68L331.33,66.33L336.2,76.73L341.07,79.77L345.95,88.02L350.82,89.59L355.69,85.27L360.56,83.21L365.44,86.84L370.31,81.44L375.18,75.85L380.05,76.73L384.93,78.69L389.8,74.77L399.54,71.33L404.42,60.04L414.16,67.21L419.03,62.89L423.91,66.52L428.78,72.12L438.52,84.48L443.4,85.96L448.27,81.44L453.14,71.53L458.01,72.21L462.89,63.38L467.76,58.08L472.63,60.24L477.5,81.64L482.38,75.94L487.25,65.25L492.12,71.23L496.99,64.95L501.87,63.77L506.74,71.43L511.61,60.44L516.48,74.57L521.36,76.93L531.1,75.45L535.97,71.72L540.85,73.59L545.72,62.89L550.59,54.64L555.46,50.82L560.34,53.47L565.21,49.44L570.08,50.23L574.95,52.58L579.83,29.03L584.7,49.44L589.57,53.57L594.44,53.76L604.19,49.64L609.06,54.35L623.68,42.87L628.55,56.12L633.42,61.71L638.3,50.72L643.17,44.04L648.04,54.84L652.91,51.7L657.79,52.49L662.66,43.85L667.53,33.44L672.4,43.85L677.28,40.81L682.15,52.19L687.02,52.19L691.89,50.13L696.77,36.49L701.64,50.13L706.51,51.8L711.38,50.42L716.26,52.19L721.13,52.98L726,51.7" style="vector-effect: none; fill: none; stroke: rgb(0, 128, 0); stroke-opacity: 1; stroke-width: 2px; opacity: 1;"/></g><g class="points"/><g class="text"/></g><g class="trace scatter trace39d6fb" style="stroke-miterlimit: 2; opacity: 1;"><g class="fills"/><g class="errorbars"/><g class="lines"><path class="js-line" d="M0,304.65L4.87,260.18L9.74,239.67L14.62,212.97L19.49,217.39L24.36,208.26L29.23,202.17L34.11,186.07L38.98,173.02L43.85,160.65L48.72,163.6L53.6,203.25L58.47,210.91L63.34,188.53L68.21,173.31L73.09,190.98L77.96,186.96L82.83,196.09L87.7,179.99L92.58,193.63L97.45,190.69L102.32,214.05L107.19,191.08L112.07,200.5L116.94,189.71L121.81,192.45L126.68,181.46L131.56,212.97L136.43,174.1L141.3,177.04L146.17,170.57L151.05,172.14L155.92,160.55L160.79,174.39L165.66,175.57L170.54,180.09L175.41,180.09L180.28,159.38L185.15,167.23L190.03,167.23L194.9,170.57L199.77,189.51L204.64,180.28L209.52,173.8L214.39,152.41L219.26,161.73L224.13,158.49L229.01,173.8L233.88,169.78L238.75,151.23L243.62,158L248.5,157.12L253.37,173.12L258.24,161.24L263.11,166.35L267.99,183.13L272.86,176.46L282.6,157.12L287.48,154.17L292.35,161.44L297.22,151.23L302.09,161.24L306.97,167.82L316.71,195.01L321.58,192.85L326.46,201.68L331.33,192.36L336.2,183.13L341.07,192.36L350.82,192.75L355.69,180.28L360.56,176.46L365.44,170.57L370.31,179.01L375.18,191.67L380.05,185.78L384.93,182.44L389.8,185.78L394.67,198.34L404.42,179.79L409.29,173.8L414.16,180.28L419.03,177.04L423.91,186.37L428.78,183.13L433.65,170.57L438.52,179.79L443.4,183.13L448.27,183.42L453.14,155.84L458.01,153.58L462.89,138.57L467.76,136.7L472.63,140.04L477.5,167.23L482.38,170.17L487.25,147.79L492.12,146.03L496.99,152.01L501.87,136.7L506.74,158.39L511.61,142.59L516.48,164.28L521.36,186.47L526.23,192.85L531.1,191.67L535.97,195.01L540.85,188.33L545.72,185.68L550.59,157.51L555.46,155.84L560.34,157.81L565.21,136.11L574.95,148.58L579.83,150.35L584.7,162.91L589.57,163.89L594.44,145.34L599.32,151.23L604.19,151.23L609.06,147.79L613.93,140.82L618.81,153.58L623.68,135.03L628.55,145.34L633.42,152.01L638.3,154.17L643.17,148.58L648.04,177.04L652.91,173.8L657.79,192.85L662.66,204.33L667.53,187.64L672.4,172.14L677.28,168.6L682.15,179.01L687.02,179.01L691.89,174.59L696.77,153.58L701.64,180.09L706.51,172.73L711.38,174.39L716.26,179.79L721.13,175.57L726,176.46" style="vector-effect: none; fill: none; stroke: rgb(255, 165, 0); stroke-opacity: 1; stroke-width: 2px; opacity: 1;"/></g><g class="points"/><g class="text"/></g><g class="trace scatter trace60888c" style="stroke-miterlimit: 2; opacity: 1;"><g class="fills"/><g class="errorbars"/><g class="lines"><path class="js-line" d="M0,264.79L4.87,195.1L9.74,164.38L14.62,144.16L19.49,143.48L24.36,138.08L29.23,123.16L34.11,129.14L38.98,124.43L43.85,129.54L48.72,140.53L53.6,135.03L58.47,109.02L63.34,119.53L68.21,109.22L73.09,115.5L77.96,108.53L82.83,134.64L87.7,112.46L92.58,110.89L97.45,107.45L102.32,125.32L107.19,114.13L112.07,111.67L116.94,102.84L121.81,111.48L126.68,106.86L131.56,103.23L136.43,95.58L146.17,97.64L151.05,81.05L155.92,76.53L160.79,78.59L170.54,89.1L175.41,80.17L180.28,90.18L185.15,88.41L190.03,94.3L194.9,93.51L199.77,101.07L204.64,91.85L209.52,85.07L214.39,88.51L219.26,84.68L224.13,82.62L229.01,70.84L233.88,73.49L238.75,81.05L243.62,78.69L248.5,66.03L253.37,85.17L258.24,61.03L263.11,79.18L267.99,82.42L272.86,77.91L277.73,61.32L282.6,59.55L287.48,61.03L292.35,56.02L297.22,51.5L302.09,49.93L311.84,60.44L316.71,64.36L321.58,55.72L326.46,55.82L331.33,58.87L336.2,69.17L341.07,72.8L345.95,83.01L350.82,84.39L355.69,79.38L360.56,75.94L365.44,79.97L375.18,68.19L380.05,69.17L384.93,70.94L389.8,67.41L399.54,64.26L404.42,51.8L409.29,55.23L414.16,59.85L419.03,54.64L423.91,58.57L428.78,64.36L433.65,71.82L438.52,77.61L443.4,79.77L448.27,75.65L453.14,63.97L458.01,64.17L462.89,55.04L467.76,50.03L472.63,52.68L477.5,76.24L482.38,69.86L487.25,57L492.12,63.38L496.99,57.49L501.87,56.71L506.74,65.74L511.61,52.49L516.48,67.6L521.36,70.06L531.1,67.6L535.97,63.58L540.85,65.34L545.72,54.15L550.59,46.01L555.46,41.79L560.34,44.54L565.21,40.41L570.08,41.2L574.95,43.55L579.83,19.8L584.7,40.41L589.57,45.03L594.44,45.91L599.32,44.14L604.19,41.49L609.06,47.19L613.93,42.47L623.68,33.93L628.55,48.26L633.42,54.06L638.3,41.59L643.17,34.82L648.04,46.69L652.91,43.26L657.79,43.55L667.53,24.22L672.4,34.62L677.28,31.38L682.15,43.26L687.02,43.26L691.89,41.1L696.77,27.75L701.64,41.1L706.51,42.87L711.38,41.49L716.26,43.46L721.13,43.95L726,42.87" style="vector-effect: none; fill: none; stroke: rgb(128, 0, 128); stroke-opacity: 1; stroke-width: 2px; opacity: 1;"/></g><g class="points"/><g class="text"/></g><g class="trace scatter trace8aad99" style="stroke-miterlimit: 2; opacity: 1;"><g class="fills"/><g class="errorbars"/><g class="lines"><path class="js-line" d="M0,314.26L4.87,264.01L9.74,244.08L14.62,206.39L19.49,204.92L29.23,188.23L34.11,174.49L38.98,161.93L43.85,154.08L48.72,162.42L53.6,202.17L58.47,201.78L63.34,189.61L68.21,177.04L73.09,182.84L77.96,180.28L82.83,200.6L87.7,173.9L92.58,196.97L97.45,188.63L102.32,221.51L107.19,193.34L112.07,198.54L116.94,183.91L121.81,187.55L126.68,172.92L131.56,206.39L136.43,159.87L141.3,161.44L146.17,154.17L151.05,155.74L155.92,143.18L160.79,158.39L165.66,159.38L170.54,164.68L175.41,164.68L180.28,142.1L185.15,150.44L190.03,150.44L194.9,154.17L199.77,177.14L204.64,165.07L209.52,157.81L214.39,135.23L219.26,146.22L224.13,141.51L229.01,157.81L233.88,153.09L238.75,133.17L243.62,140.53L248.5,139.45L253.37,156.73L258.24,144.16L263.11,149.46L267.99,167.72L272.86,160.46L277.73,150.44L282.6,139.45L287.48,137.39L292.35,144.75L297.22,133.17L302.09,144.16L306.97,151.52L316.71,180.28L321.58,178.22L326.46,187.64L331.33,177.73L336.2,167.72L341.07,177.73L345.95,179.79L350.82,178.71L355.69,165.07L360.56,160.46L365.44,154.17L370.31,163.01L375.18,176.65L380.05,170.37L384.93,166.74L389.8,170.37L394.67,184.01L399.54,175.08L404.42,164.09L409.29,157.81L414.16,165.07L419.03,161.44L423.91,171.45L428.78,167.72L433.65,154.17L438.52,164.09L443.4,167.72L448.27,168.8L453.14,138.47L458.01,135.82L462.89,119.53L467.76,117.95L472.63,122.67L477.5,154.57L482.38,158.3L487.25,129.54L492.12,127.97L496.99,137.29L501.87,120.02L506.74,143.57L511.61,127.38L516.48,150.93L521.36,173.51L526.23,179.79L531.1,176.65L535.97,180.28L540.85,173.02L545.72,170.96L550.59,142.69L555.46,138.47L560.34,141.12L565.21,116.97L570.08,123.26L574.95,131.11L579.83,133.76L584.7,145.73L589.57,146.81L594.44,126.89L599.32,133.17L604.19,133.17L609.06,129.54L613.93,122.18L618.81,135.82L623.68,115.89L628.55,126.89L633.42,134.25L638.3,137.39L643.17,131.11L648.04,161.44L652.91,157.81L657.79,178.22L662.66,190.88L672.4,155.74L677.28,152.01L682.15,163.01L687.02,163.01L691.89,159.97L696.77,139.06L701.64,164.68L706.51,157.31L711.38,158.39L716.26,164.09L721.13,159.38L726,160.46" style="vector-effect: none; fill: none; stroke: rgb(255, 192, 203); stroke-opacity: 1; stroke-width: 2px; opacity: 1;"/></g><g class="points"/><g class="text"/></g><g class="trace scatter trace57a8e9" style="stroke-miterlimit: 2; opacity: 1;"><g class="fills"/><g class="errorbars"/><g class="lines"><path class="js-line" d="M0,306.12L4.87,226.32L9.74,188.82L14.62,166.44L19.49,157.41L24.36,157.12L29.23,136.6L34.11,148.97L38.98,144.26L43.85,152.51L48.72,165.56L53.6,157.12L58.47,126.89L63.34,143.28L68.21,134.05L73.09,136.11L77.96,130.32L82.83,163.69L87.7,138.86L92.58,136.41L97.45,132.87L102.32,155.74L107.19,141.22L112.07,138.86L116.94,126.99L121.81,137.59L126.68,131.7L131.56,126.99L136.43,117.56L141.3,116.38L146.17,116.38L151.05,96.85L155.92,90.08L160.79,92.43L165.66,98.13L170.54,102.84L175.41,94.59L180.28,106.08L185.15,104.9L190.03,112.95L194.9,112.95L199.77,119.92L204.64,108.34L209.52,101.46L214.39,107.16L219.26,101.37L224.13,99.11L229.01,86.35L233.88,89.78L238.75,96.85L243.62,94.5L248.5,79.67L253.37,100.39L258.24,73.88L263.11,93.51L267.99,98.03L272.86,91.26L277.73,71.92L282.6,70.64L287.48,68.98L292.35,63.28L302.09,59.36L306.97,69.07L311.84,74.86L316.71,77.42L321.58,65.15L326.46,69.17L331.33,72.61L336.2,82.03L341.07,86.55L345.95,99.11L350.82,100.29L355.69,94.59L360.56,89L365.44,93.61L375.18,80.95L380.05,82.03L384.93,83.31L389.8,80.85L399.54,78.4L404.42,64.66L409.29,68.09L414.16,73.79L419.03,67.01L423.91,71.53L428.78,77.42L433.65,85.47L438.52,91.26L443.4,94.59L448.27,91.06L453.14,77.32L458.01,76.34L462.89,67.01L467.76,63.38L472.63,66.82L477.5,92.14L482.38,85.27L487.25,69.37L492.12,76.24L496.99,71.43L501.87,71.33L506.74,81.74L511.61,65.74L516.48,81.83L521.36,84.19L526.23,83.11L531.1,79.77L535.97,75.26L540.85,76.53L550.59,53.86L555.46,51.21L560.34,53.57L565.21,51.99L570.08,52.09L574.95,54.45L579.83,28.05L584.7,51.99L589.57,57.69L594.44,59.85L599.32,58.57L604.19,55.23L609.06,62.01L613.93,56.31L623.68,46.11L628.55,62.2L633.42,67.99L638.3,52.19L643.17,45.22L648.04,59.95L657.79,52.49L662.66,44.14L667.53,32.66L672.4,46.2L677.28,41.69L682.15,54.35L687.02,54.35L691.89,50.13L696.77,35.21L701.64,50.13L706.51,51.41L711.38,50.13L716.26,55.43L721.13,54.45L726,54.35" style="vector-effect: none; fill: none; stroke: rgb(165, 42, 42); stroke-opacity: 1; stroke-width: 2px; opacity: 1;"/></g><g class="points"/><g class="text"/></g><g class="trace scatter trace4f211b" style="stroke-miterlimit: 2; opacity: 1;"><g class="fills"/><g class="errorbars"/><g class="lines"><path class="js-line" d="M0,376.2L4.87,313.48L9.74,295.03L14.62,244.38L19.49,228.87L24.36,227.2L29.23,204.43L34.11,208.16L38.98,198.54L43.85,197.75L48.72,211.4L53.6,248.5L58.47,235.64L63.34,239.18L68.21,230.05L73.09,221.31L77.96,221.02L82.83,253.21L87.7,216.31L92.58,248.5L97.45,234.66L102.32,276.67L107.19,243.89L112.07,243.89L116.94,225.63L121.81,230.15L126.68,211.99L131.56,244.38L136.43,190.39L141.3,187.06L146.17,178.22L151.05,175.28L155.92,165.07L160.79,176.06L165.66,179.6L170.54,181.17L175.41,181.17L180.28,161.44L185.15,173.9L190.03,173.9L194.9,178.22L199.77,208.55L204.64,191.37L209.52,182.64L214.39,163.3L219.26,176.65L224.13,168.31L229.01,182.64L233.88,174.49L238.75,155.65L243.62,164.48L248.5,160.75L253.37,178.91L258.24,168.9L263.11,170.17L267.99,191.96L272.86,183.23L277.73,173.9L282.6,160.75L287.48,153.49L292.35,162.22L297.22,155.65L302.09,168.9L306.97,177.63L311.84,195.3L316.71,202.07L321.58,195.01L326.46,210.81L331.33,201.39L336.2,191.96L341.07,201.39L345.95,209.04L350.82,205.12L355.69,191.37L360.56,183.23L365.44,178.22L370.31,183.91L375.18,197.75L380.05,192.65L384.93,188.33L389.8,192.65L394.67,206.39L399.54,200.8L404.42,187.64L409.29,182.64L414.16,191.37L419.03,187.06L423.91,196.38L428.78,191.96L433.65,178.22L438.52,187.64L448.27,195.79L453.14,157.12L458.01,156.33L462.89,141.9L467.76,145.14L472.63,153.49L477.5,189.51L482.38,194.02L487.25,151.33L492.12,154.47L496.99,171.35L501.87,153.09L506.74,176.16L511.61,162.03L516.48,185.09L521.36,204.13L526.23,209.04L531.1,197.75L535.97,202.07L540.85,193.34L545.72,186.37L550.59,155.25L555.46,157.12L560.34,157.81L565.21,141.22L570.08,146.22L574.95,148.38L579.83,149.17L584.7,165.76L589.57,169.49L594.44,150.64L599.32,155.65L604.19,155.65L609.06,151.33L613.93,142.49L618.81,156.33L623.68,137.49L628.55,150.64L633.42,159.47L638.3,153.49L643.17,148.38L648.04,187.06L652.91,182.64L657.79,195.01L662.66,205.41L667.53,187.25L672.4,175.28L677.28,170.86L682.15,183.91L687.02,183.91L691.89,173.41L696.77,150.84L701.64,181.17L706.51,172.53L711.38,176.06L716.26,187.64L721.13,179.6L726,183.23" style="vector-effect: none; fill: none; stroke: rgb(128, 128, 128); stroke-opacity: 1; stroke-width: 2px; opacity: 1;"/></g><g class="points"/><g class="text"/></g></g></g><g class="overplot"/><path class="xlines-above crisp" d="M0,0" style="fill: none;"/><path class="ylines-above crisp" d="M0,0" style="fill: none;"/><g class="overlines-above"/><g class="xaxislayer-above"><g class="xtick"><text text-anchor="middle" x="0" y="509" transform="translate(235.57999999999998,0)" style="font-family: 'Open Sans', verdana, arial, sans-serif; font-size: 12px; fill: rgb(42, 63, 95); fill-opacity: 1; white-space: pre; opacity: 1;">20</text></g><g class="xtick"><text text-anchor="middle" x="0" y="509" style="font-family: 'Open Sans', verdana, arial, sans-serif; font-size: 12px; fill: rgb(42, 63, 95); fill-opacity: 1; white-space: pre; opacity: 1;" transform="translate(333.03,0)">40</text></g><g class="xtick"><text text-anchor="middle" x="0" y="509" style="font-family: 'Open Sans', verdana, arial, sans-serif; font-size: 12px; fill: rgb(42, 63, 95); fill-opacity: 1; white-space: pre; opacity: 1;" transform="translate(430.48,0)">60</text></g><g class="xtick"><text text-anchor="middle" x="0" y="509" style="font-family: 'Open Sans', verdana, arial, sans-serif; font-size: 12px; fill: rgb(42, 63, 95); fill-opacity: 1; white-space: pre; opacity: 1;" transform="translate(527.9300000000001,0)">80</text></g><g class="xtick"><text text-anchor="middle" x="0" y="509" style="font-family: 'Open Sans', verdana, arial, sans-serif; font-size: 12px; fill: rgb(42, 63, 95); fill-opacity: 1; white-space: pre; opacity: 1;" transform="translate(625.38,0)">100</text></g><g class="xtick"><text text-anchor="middle" x="0" y="509" style="font-family: 'Open Sans', verdana, arial, sans-serif; font-size: 12px; fill: rgb(42, 63, 95); fill-opacity: 1; white-space: pre; opacity: 1;" transform="translate(722.83,0)">120</text></g><g class="xtick"><text text-anchor="middle" x="0" y="509" style="font-family: 'Open Sans', verdana, arial, sans-serif; font-size: 12px; fill: rgb(42, 63, 95); fill-opacity: 1; white-space: pre; opacity: 1;" transform="translate(820.28,0)">140</text></g></g><g class="yaxislayer-above"><g class="ytick"><text text-anchor="end" x="142" y="4.199999999999999" transform="translate(0,492)" style="font-family: 'Open Sans', verdana, arial, sans-serif; font-size: 12px; fill: rgb(42, 63, 95); fill-opacity: 1; white-space: pre; opacity: 1;">50</text></g><g class="ytick"><text text-anchor="end" x="142" y="4.199999999999999" style="font-family: 'Open Sans', verdana, arial, sans-serif; font-size: 12px; fill: rgb(42, 63, 95); fill-opacity: 1; white-space: pre; opacity: 1;" transform="translate(0,442.93)">55</text></g><g class="ytick"><text text-anchor="end" x="142" y="4.199999999999999" style="font-family: 'Open Sans', verdana, arial, sans-serif; font-size: 12px; fill: rgb(42, 63, 95); fill-opacity: 1; white-space: pre; opacity: 1;" transform="translate(0,393.85)">60</text></g><g class="ytick"><text text-anchor="end" x="142" y="4.199999999999999" style="font-family: 'Open Sans', verdana, arial, sans-serif; font-size: 12px; fill: rgb(42, 63, 95); fill-opacity: 1; white-space: pre; opacity: 1;" transform="translate(0,344.77)">65</text></g><g class="ytick"><text text-anchor="end" x="142" y="4.199999999999999" style="font-family: 'Open Sans', verdana, arial, sans-serif; font-size: 12px; fill: rgb(42, 63, 95); fill-opacity: 1; white-space: pre; opacity: 1;" transform="translate(0,295.69)">70</text></g><g class="ytick"><text text-anchor="end" x="142" y="4.199999999999999" style="font-family: 'Open Sans', verdana, arial, sans-serif; font-size: 12px; fill: rgb(42, 63, 95); fill-opacity: 1; white-space: pre; opacity: 1;" transform="translate(0,246.62)">75</text></g><g class="ytick"><text text-anchor="end" x="142" y="4.199999999999999" style="font-family: 'Open Sans', verdana, arial, sans-serif; font-size: 12px; fill: rgb(42, 63, 95); fill-opacity: 1; white-space: pre; opacity: 1;" transform="translate(0,197.54000000000002)">80</text></g><g class="ytick"><text text-anchor="end" x="142" y="4.199999999999999" style="font-family: 'Open Sans', verdana, arial, sans-serif; font-size: 12px; fill: rgb(42, 63, 95); fill-opacity: 1; white-space: pre; opacity: 1;" transform="translate(0,148.46)">85</text></g></g><g class="overaxes-above"/></g></g><g class="polarlayer"/><g class="smithlayer"/><g class="ternarylayer"/><g class="geolayer"/><g class="funnelarealayer"/><g class="pielayer"/><g class="iciclelayer"/><g class="treemaplayer"/><g class="sunburstlayer"/><g class="glimages"/><defs id="topdefs-7c8b80"><g class="clips"/><clipPath id="legend7c8b80"><rect width="128" height="162" x="0" y="0"/></clipPath></defs><g class="layer-above"><g class="imagelayer"/><g class="shapelayer"/></g><g class="infolayer"><g class="legend" pointer-events="all" transform="translate(883.52,100)"><rect class="bg" shape-rendering="crispEdges" width="128" height="162" x="0" y="0" style="stroke: rgb(68, 68, 68); stroke-opacity: 1; fill: rgb(255, 255, 255); fill-opacity: 1; stroke-width: 0px;"/><g class="scrollbox" transform="" clip-path="url(#legend7c8b80)"><g class="groups"><g class="traces" transform="translate(0,14.5)" style="opacity: 1;"><text class="legendtext" text-anchor="start" x="40" y="4.680000000000001" style="font-family: 'Open Sans', verdana, arial, sans-serif; font-size: 12px; fill: rgb(42, 63, 95); fill-opacity: 1; white-space: pre;">Train Accuracy</text><g class="layers" style="opacity: 1;"><g class="legendfill"/><g class="legendlines"><path class="js-line" d="M5,0h30" style="fill: none; stroke: rgb(255, 0, 0); stroke-opacity: 1; stroke-width: 2px;"/></g><g class="legendsymbols"><g class="legendpoints"/></g></g><rect class="legendtoggle" x="0" y="-9.5" width="122.71875" height="19" style="fill: rgb(0, 0, 0); fill-opacity: 0;"/></g><g class="traces" transform="translate(0,33.5)" style="opacity: 1;"><text class="legendtext" text-anchor="start" x="40" y="4.680000000000001" style="font-family: 'Open Sans', verdana, arial, sans-serif; font-size: 12px; fill: rgb(42, 63, 95); fill-opacity: 1; white-space: pre;">Test Accuracy</text><g class="layers" style="opacity: 1;"><g class="legendfill"/><g class="legendlines"><path class="js-line" d="M5,0h30" style="fill: none; stroke: rgb(0, 0, 255); stroke-opacity: 1; stroke-width: 2px;"/></g><g class="legendsymbols"><g class="legendpoints"/></g></g><rect class="legendtoggle" x="0" y="-9.5" width="122.71875" height="19" style="fill: rgb(0, 0, 0); fill-opacity: 0;"/></g><g class="traces" transform="translate(0,52.5)" style="opacity: 1;"><text class="legendtext" text-anchor="start" x="40" y="4.680000000000001" style="font-family: 'Open Sans', verdana, arial, sans-serif; font-size: 12px; fill: rgb(42, 63, 95); fill-opacity: 1; white-space: pre;">Train Precision</text><g class="layers" style="opacity: 1;"><g class="legendfill"/><g class="legendlines"><path class="js-line" d="M5,0h30" style="fill: none; stroke: rgb(0, 128, 0); stroke-opacity: 1; stroke-width: 2px;"/></g><g class="legendsymbols"><g class="legendpoints"/></g></g><rect class="legendtoggle" x="0" y="-9.5" width="122.71875" height="19" style="fill: rgb(0, 0, 0); fill-opacity: 0;"/></g><g class="traces" transform="translate(0,71.5)" style="opacity: 1;"><text class="legendtext" text-anchor="start" x="40" y="4.680000000000001" style="font-family: 'Open Sans', verdana, arial, sans-serif; font-size: 12px; fill: rgb(42, 63, 95); fill-opacity: 1; white-space: pre;">Test Precision</text><g class="layers" style="opacity: 1;"><g class="legendfill"/><g class="legendlines"><path class="js-line" d="M5,0h30" style="fill: none; stroke: rgb(255, 165, 0); stroke-opacity: 1; stroke-width: 2px;"/></g><g class="legendsymbols"><g class="legendpoints"/></g></g><rect class="legendtoggle" x="0" y="-9.5" width="122.71875" height="19" style="fill: rgb(0, 0, 0); fill-opacity: 0;"/></g><g class="traces" transform="translate(0,90.5)" style="opacity: 1;"><text class="legendtext" text-anchor="start" x="40" y="4.680000000000001" style="font-family: 'Open Sans', verdana, arial, sans-serif; font-size: 12px; fill: rgb(42, 63, 95); fill-opacity: 1; white-space: pre;">Train Recall</text><g class="layers" style="opacity: 1;"><g class="legendfill"/><g class="legendlines"><path class="js-line" d="M5,0h30" style="fill: none; stroke: rgb(128, 0, 128); stroke-opacity: 1; stroke-width: 2px;"/></g><g class="legendsymbols"><g class="legendpoints"/></g></g><rect class="legendtoggle" x="0" y="-9.5" width="122.71875" height="19" style="fill: rgb(0, 0, 0); fill-opacity: 0;"/></g><g class="traces" transform="translate(0,109.5)" style="opacity: 1;"><text class="legendtext" text-anchor="start" x="40" y="4.680000000000001" style="font-family: 'Open Sans', verdana, arial, sans-serif; font-size: 12px; fill: rgb(42, 63, 95); fill-opacity: 1; white-space: pre;">Test Recall</text><g class="layers" style="opacity: 1;"><g class="legendfill"/><g class="legendlines"><path class="js-line" d="M5,0h30" style="fill: none; stroke: rgb(255, 192, 203); stroke-opacity: 1; stroke-width: 2px;"/></g><g class="legendsymbols"><g class="legendpoints"/></g></g><rect class="legendtoggle" x="0" y="-9.5" width="122.71875" height="19" style="fill: rgb(0, 0, 0); fill-opacity: 0;"/></g><g class="traces" transform="translate(0,128.5)" style="opacity: 1;"><text class="legendtext" text-anchor="start" x="40" y="4.680000000000001" style="font-family: 'Open Sans', verdana, arial, sans-serif; font-size: 12px; fill: rgb(42, 63, 95); fill-opacity: 1; white-space: pre;">Train F1</text><g class="layers" style="opacity: 1;"><g class="legendfill"/><g class="legendlines"><path class="js-line" d="M5,0h30" style="fill: none; stroke: rgb(165, 42, 42); stroke-opacity: 1; stroke-width: 2px;"/></g><g class="legendsymbols"><g class="legendpoints"/></g></g><rect class="legendtoggle" x="0" y="-9.5" width="122.71875" height="19" style="fill: rgb(0, 0, 0); fill-opacity: 0;"/></g><g class="traces" transform="translate(0,147.5)" style="opacity: 1;"><text class="legendtext" text-anchor="start" x="40" y="4.680000000000001" style="font-family: 'Open Sans', verdana, arial, sans-serif; font-size: 12px; fill: rgb(42, 63, 95); fill-opacity: 1; white-space: pre;">Test F1</text><g class="layers" style="opacity: 1;"><g class="legendfill"/><g class="legendlines"><path class="js-line" d="M5,0h30" style="fill: none; stroke: rgb(128, 128, 128); stroke-opacity: 1; stroke-width: 2px;"/></g><g class="legendsymbols"><g class="legendpoints"/></g></g><rect class="legendtoggle" x="0" y="-9.5" width="122.71875" height="19" style="fill: rgb(0, 0, 0); fill-opacity: 0;"/></g></g></g><rect class="scrollbar" rx="20" ry="3" width="0" height="0" x="0" y="0" style="fill: rgb(128, 139, 164); fill-opacity: 1;"/></g><g class="g-gtitle"><text class="gtitle" x="51.2" y="50" text-anchor="start" dy="0em" style="font-family: 'Open Sans', verdana, arial, sans-serif; font-size: 17px; fill: rgb(42, 63, 95); opacity: 1; font-weight: normal; white-space: pre;">Training Metrics - logs/FakeNewsNet-politifact_max-vocab=15000_pre=v1_text_T=50_s=10.log</text></g><g class="g-xtitle"><text class="xtitle" x="506" y="537.3" text-anchor="middle" style="font-family: 'Open Sans', verdana, arial, sans-serif; font-size: 14px; fill: rgb(42, 63, 95); opacity: 1; font-weight: normal; white-space: pre;">Epoch</text></g><g class="g-ytitle"><text class="ytitle" transform="rotate(-90,103.965625,298)" x="103.965625" y="298" text-anchor="middle" style="font-family: 'Open Sans', verdana, arial, sans-serif; font-size: 14px; fill: rgb(42, 63, 95); opacity: 1; font-weight: normal; white-space: pre;">Metric Score</text></g></g><g class="menulayer"><g class="updatemenu-container" style="cursor: pointer;"><g class="updatemenu-header-group" transform="translate(12,60)"><g class="updatemenu-header" transform="translate(1,1)" style="pointer-events: all;"><rect class="updatemenu-item-rect" rx="2" ry="2" shape-rendering="crispEdges" x="0" y="0" width="167" height="33" style="stroke: rgb(190, 200, 217); stroke-opacity: 1; fill: rgb(255, 255, 255); fill-opacity: 1; stroke-width: 1px;"/><text class="updatemenu-item-text" text-anchor="start" data-notex="1" x="12" y="19.5" style="font-family: 'Open Sans', verdana, arial, sans-serif; font-size: 12px; fill: rgb(42, 63, 95); fill-opacity: 1; white-space: pre;">All</text></g><text class="updatemenu-header-arrow" text-anchor="end" x="163" y="19.5" style="font-family: 'Open Sans', verdana, arial, sans-serif; font-size: 12px; fill: rgb(42, 63, 95); fill-opacity: 1;">▼</text></g><g class="updatemenu-dropdown-button-group" updatemenu-active-index="-1" style="pointer-events: all;"><rect class="scrollbox-bg" opacity="0" x="0" y="0" width="0" height="0" style="pointer-events: all;"/></g></g></g></svg>