<svg class="main-svg" xmlns="http://www.w3.org/2000/svg" xmlns:xlink="http://www.w3.org/1999/xlink" width="1024" height="576" style="" viewBox="0 0 1024 576"><rect x="0" y="0" width="1024" height="576" style="fill: rgb(255, 255, 255); fill-opacity: 1;"/><defs id="defs-3e0105"><g class="clips"><clipPath id="clip3e0105xyplot" class="plotclip"><rect width="726" height="396"/></clipPath><clipPath class="axesclip" id="clip3e0105x"><rect x="143" y="0" width="726" height="576"/></clipPath><clipPath class="axesclip" id="clip3e0105y"><rect x="0" y="100" width="1024" height="396"/></clipPath><clipPath class="axesclip" id="clip3e0105xy"><rect x="143" y="100" width="726" height="396"/></clipPath></g><g class="gradients"/><g class="patterns"/></defs><g class="bglayer"><rect class="bg" x="143" y="100" width="726" height="396" style="fill: rgb(229, 236, 246); fill-opacity: 1; stroke-width: 0;"/></g><g class="layer-below"><g class="imagelayer"/><g class="shapelayer"/></g><g class="cartesianlayer"><g class="subplot xy"><g class="layer-subplot"><g class="shapelayer"/><g class="imagelayer"/></g><g class="minor-gridlayer"><g class="x"/><g class="y"/></g><g class="gridlayer"><g class="x"><path class="xgrid crisp" transform="translate(235.57999999999998,0)" d="M0,100v396" style="stroke: rgb(255, 255, 255); stroke-opacity: 1; stroke-width: 1px;"/><path class="xgrid crisp" transform="translate(333.03,0)" d="M0,100v396" style="stroke: rgb(255, 255, 255); stroke-opacity: 1; stroke-width: 1px;"/><path class="xgrid crisp" transform="translate(430.48,0)" d="M0,100v396" style="stroke: rgb(255, 255, 255); stroke-opacity: 1; stroke-width: 1px;"/><path class="xgrid crisp" transform="translate(527.9300000000001,0)" d="M0,100v396" style="stroke: rgb(255, 255, 255); stroke-opacity: 1; stroke-width: 1px;"/><path class="xgrid crisp" transform="translate(625.38,0)" d="M0,100v396" style="stroke: rgb(255, 255, 255); stroke-opacity: 1; stroke-width: 1px;"/><path class="xgrid crisp" transform="translate(722.83,0)" d="M0,100v396" style="stroke: rgb(255, 255, 255); stroke-opacity: 1; stroke-width: 1px;"/><path class="xgrid crisp" transform="translate(820.28,0)" d="M0,100v396" style="stroke: rgb(255, 255, 255); stroke-opacity: 1; stroke-width: 1px;"/></g><g class="y"><path class="ygrid crisp" transform="translate(0,489.56)" d="M143,0h726" style="stroke: rgb(255, 255, 255); stroke-opacity: 1; stroke-width: 1px;"/><path class="ygrid crisp" transform="translate(0,439.7)" d="M143,0h726" style="stroke: rgb(255, 255, 255); stroke-opacity: 1; stroke-width: 1px;"/><path class="ygrid crisp" transform="translate(0,389.84)" d="M143,0h726" style="stroke: rgb(255, 255, 255); stroke-opacity: 1; stroke-width: 1px;"/><path class="ygrid crisp" transform="translate(0,339.98)" d="M143,0h726" style="stroke: rgb(255, 255, 255); stroke-opacity: 1; stroke-width: 1px;"/><path class="ygrid crisp" transform="translate(0,290.12)" d="M143,0h726" style="stroke: rgb(255, 255, 255); stroke-opacity: 1; stroke-width: 1px;"/><path class="ygrid crisp" transform="translate(0,240.26)" d="M143,0h726" style="stroke: rgb(255, 255, 255); stroke-opacity: 1; stroke-width: 1px;"/><path class="ygrid crisp" transform="translate(0,190.4)" d="M143,0h726" style="stroke: rgb(255, 255, 255); stroke-opacity: 1; stroke-width: 1px;"/><path class="ygrid crisp" transform="translate(0,140.54)" d="M143,0h726" style="stroke: rgb(255, 255, 255); stroke-opacity: 1; stroke-width: 1px;"/></g></g><g class="zerolinelayer"/><path class="xlines-below"/><path class="ylines-below"/><g class="overlines-below"/><g class="xaxislayer-below"/><g class="yaxislayer-below"/><g class="overaxes-below"/><g class="plot" transform="translate(143,100)" clip-path="url(#clip3e0105xyplot)"><g class="scatterlayer mlayer"><g class="trace scatter tracecdd995" style="stroke-miterlimit: 2; opacity: 1;"><g class="fills"/><g class="errorbars"/><g class="lines"><path class="js-line" d="M0,281.76L4.87,204.98L9.74,186.13L14.62,114.04L19.49,97.48L24.36,104.56L29.23,108.15L34.11,96.29L38.98,164.79L43.85,145.95L48.72,137.67L53.6,140.06L58.47,143.55L63.34,147.14L68.21,97.48L73.09,99.88L77.96,98.68L87.7,93.99L92.58,98.68L97.45,75.04L102.32,82.13L107.19,80.93L112.07,82.13L116.94,65.57L121.81,75.04L126.68,67.96L131.56,71.46L136.43,70.36L141.3,52.61L146.17,59.69L151.05,79.73L155.92,77.44L160.79,77.44L165.66,78.63L170.54,65.57L175.41,76.24L180.28,58.49L185.15,62.08L190.03,63.18L199.77,58.49L204.64,66.77L209.52,62.08L214.39,63.18L219.26,59.69L224.13,57.29L229.01,55L233.88,59.69L238.75,56.1L243.62,60.88L248.5,51.41L253.37,109.35L258.24,112.84L263.11,115.23L267.99,112.84L272.86,115.23L277.73,115.23L282.6,111.64L287.48,121.12L292.35,121.12L297.22,45.53L302.09,50.21L306.97,52.61L311.84,51.41L316.71,44.33L321.58,45.53L326.46,41.94L331.33,43.13L336.2,56.1L341.07,58.49L345.95,53.8L350.82,46.72L355.69,40.74L360.56,47.82L365.44,115.23L370.31,111.64L375.18,114.04L380.05,109.35L384.93,116.43L389.8,111.64L394.67,109.35L399.54,104.56L409.29,56.1L414.16,51.41L419.03,53.8L423.91,52.61L428.78,56.1L433.65,52.61L438.52,55L443.4,50.21L448.27,52.61L453.14,70.36L458.01,67.96L462.89,76.24L467.76,78.63L472.63,76.24L477.5,78.63L482.38,78.63L487.25,138.87L492.12,147.14L496.99,91.6L501.87,99.88L506.74,101.07L511.61,127L516.48,123.51L521.36,122.31L526.23,105.76L531.1,96.29L535.97,106.96L540.85,110.45L545.72,95.09L550.59,95.09L555.46,99.88L560.34,88.01L565.21,92.8L570.08,89.21L574.95,96.29L579.83,38.45L584.7,36.05L589.57,39.64L594.44,39.64L599.32,32.46L604.19,33.66L609.06,30.17L613.93,89.21L618.81,33.66L623.68,27.78L628.55,32.46L638.3,32.46L643.17,31.37L648.04,32.46L652.91,71.46L657.79,60.88L662.66,55L667.53,57.29L672.4,55L677.28,56.1L682.15,58.49L687.02,58.49L691.89,25.38L696.77,30.17L701.64,30.17L706.51,31.37L711.38,33.66L716.26,28.97L721.13,37.25L726,116.43" style="vector-effect: none; fill: none; stroke: rgb(255, 0, 0); stroke-opacity: 1; stroke-width: 2px; opacity: 1;"/></g><g class="points"/><g class="text"/></g><g class="trace scatter trace31aad6" style="stroke-miterlimit: 2; opacity: 1;"><g class="fills"/><g class="errorbars"/><g class="lines"><path class="js-line" d="M0,363.24L4.87,316.17L9.74,292.63L14.62,245.67L19.49,151.53L24.36,156.22L29.23,151.53L34.11,146.84L38.98,269.1L43.85,231.51L48.72,217.45L53.6,212.66L58.47,226.82L63.34,236.19L68.21,184.44L73.09,132.78L77.96,128L87.7,118.62L92.58,137.47L102.32,165.69L107.19,156.22L112.07,142.16L116.94,146.84L121.81,142.16L126.68,142.16L131.56,156.22L136.43,146.84L141.3,142.16L146.17,142.16L151.05,118.62L155.92,128L160.79,132.78L165.66,123.31L170.54,146.84L175.41,123.31L180.28,151.53L185.15,165.69L190.03,161L194.9,170.38L199.77,146.84L204.64,161L209.52,156.22L214.39,137.47L219.26,142.16L224.13,151.53L233.88,151.53L238.75,156.22L243.62,151.53L248.5,151.53L253.37,226.82L258.24,231.51L263.11,231.51L267.99,236.19L272.86,236.19L277.73,245.67L282.6,231.51L287.48,240.88L292.35,245.67L297.22,142.16L302.09,151.53L306.97,146.84L311.84,137.47L316.71,146.84L326.46,137.47L331.33,137.47L336.2,142.16L341.07,137.47L345.95,137.47L350.82,142.16L355.69,137.47L360.56,146.84L365.44,212.66L370.31,212.66L375.18,212.66L380.05,207.97L384.93,240.88L389.8,231.51L394.67,226.82L399.54,212.66L404.42,137.47L409.29,128L414.16,132.78L419.03,151.53L423.91,142.16L428.78,146.84L433.65,151.53L438.52,146.84L443.4,156.22L448.27,146.84L453.14,123.31L458.01,113.94L462.89,113.94L467.76,123.31L472.63,123.31L477.5,118.62L482.38,132.78L487.25,226.82L492.12,245.67L496.99,184.44L501.87,189.22L506.74,198.6L511.61,240.88L516.48,250.35L521.36,226.82L526.23,231.51L531.1,226.82L535.97,236.19L540.85,236.19L545.72,217.45L550.59,212.66L555.46,212.66L560.34,203.29L565.21,203.29L570.08,193.91L574.95,217.45L579.83,146.84L584.7,128L589.57,132.78L594.44,123.31L604.19,123.31L609.06,128L613.93,198.6L618.81,128L623.68,118.62L628.55,123.31L633.42,118.62L638.3,123.31L643.17,123.31L648.04,128L652.91,132.78L657.79,113.94L672.4,113.94L677.28,109.25L687.02,109.25L691.89,118.62L696.77,123.31L701.64,113.94L706.51,113.94L711.38,123.31L716.26,109.25L721.13,123.31L726,222.13" style="vector-effect: none; fill: none; stroke: rgb(0, 0, 255); stroke-opacity: 1; stroke-width: 2px; opacity: 1;"/></g><g class="points"/><g class="text"/></g><g class="trace scatter tracebdf3ca" style="stroke-miterlimit: 2; opacity: 1;"><g class="fills"/><g class="errorbars"/><g class="lines"><path class="js-line" d="M0,183.84L9.74,131.19L14.62,100.87L19.49,104.36L24.36,111.44L29.23,114.83L34.11,101.77L38.98,122.51L43.85,113.24L48.72,107.85L53.6,111.24L63.34,112.14L68.21,88.51L73.09,106.46L77.96,105.36L87.7,100.57L92.58,105.46L97.45,78.04L102.32,81.33L107.19,79.93L112.07,82.52L116.94,66.37L121.81,75.44L126.68,69.06L131.56,72.45L136.43,76.44L141.3,54.8L146.17,61.28L151.05,85.22L155.92,83.32L160.79,83.52L165.66,84.72L170.54,64.37L175.41,82.22L180.28,59.19L185.15,62.28L190.03,63.18L194.9,60.88L199.77,59.59L204.64,66.97L209.52,61.48L214.39,64.28L219.26,59.89L224.13,57.89L229.01,54.8L233.88,59.49L238.75,56.1L243.62,61.98L248.5,52.51L253.37,78.93L258.24,83.12L267.99,84.12L272.86,87.51L277.73,87.51L282.6,84.22L287.48,92.3L292.35,91.4L297.22,46.43L302.09,49.22L306.97,51.21L311.84,49.32L316.71,43.93L321.58,46.43L326.46,43.33L331.33,44.03L336.2,56.1L341.07,59.19L355.69,42.34L360.56,49.12L365.44,95.19L370.31,86.91L375.18,84.82L380.05,84.52L384.93,85.42L389.8,81.43L399.54,74.95L404.42,86.01L409.29,55.4L414.16,49.32L419.03,50.81L423.91,50.71L428.78,53.61L433.65,52.01L438.52,53.51L443.4,49.22L448.27,51.21L453.14,76.34L458.01,73.95L462.89,82.42L467.76,84.62L472.63,82.13L477.5,84.52L482.38,84.62L492.12,95.29L496.99,74.05L501.87,77.24L506.74,75.44L511.61,85.72L516.48,84.72L521.36,85.02L526.23,86.21L531.1,78.83L535.97,80.23L540.85,80.63L545.72,71.55L550.59,80.93L555.46,84.32L560.34,75.84L565.21,79.23L570.08,75.34L574.95,79.63L579.83,40.94L584.7,36.95L589.57,39.25L594.44,39.25L599.32,32.86L604.19,33.86L609.06,30.47L613.93,73.85L618.81,33.86L623.68,28.48L628.55,32.46L633.42,33.26L638.3,33.26L643.17,31.87L648.04,32.86L652.91,77.64L657.79,66.77L662.66,60.59L667.53,63.08L672.4,60.59L677.28,61.78L682.15,64.28L687.02,64.28L691.89,27.78L696.77,31.87L701.64,32.17L711.38,34.26L716.26,30.57L721.13,37.95L726,81.43" style="vector-effect: none; fill: none; stroke: rgb(0, 128, 0); stroke-opacity: 1; stroke-width: 2px; opacity: 1;"/></g><g class="points"/><g class="text"/></g><g class="trace scatter trace818b81" style="stroke-miterlimit: 2; opacity: 1;"><g class="fills"/><g class="errorbars"/><g class="lines"><path class="js-line" d="M0,261.52L4.87,271.89L9.74,231.51L14.62,235.1L19.49,173.87L24.36,178.36L29.23,172.77L34.11,161.9L38.98,211.66L43.85,192.22L48.72,183.34L53.6,180.35L58.47,189.32L63.34,195.21L68.21,180.65L73.09,153.03L77.96,148.44L87.7,139.17L92.58,158.41L97.45,164.19L102.32,171.47L107.19,164.19L112.07,152.93L116.94,158.61L121.81,154.72L126.68,152.93L131.56,164.19L136.43,169.38L141.3,156.32L146.17,154.72L151.05,135.67L155.92,145.35L160.79,150.83L165.66,141.06L170.54,152.63L175.41,142.16L180.28,160.51L185.15,171.47L190.03,165.69L194.9,172.77L199.77,154.72L204.64,167.88L209.52,162.1L214.39,147.24L219.26,152.93L224.13,160.51L229.01,158.41L233.88,160.51L238.75,164.19L243.62,160.51L248.5,160.51L253.37,193.21L258.24,199.89L263.11,199.89L267.99,206.68L272.86,206.68L277.73,216.35L282.6,199.89L287.48,209.77L292.35,212.86L297.22,146.84L302.09,153.92L306.97,150.43L311.84,145.25L316.71,152.63L331.33,147.24L336.2,149.04L341.07,145.25L345.95,147.24L350.82,151.03L355.69,147.24L360.56,156.72L365.44,197.5L370.31,191.12L375.18,187.63L380.05,187.93L384.93,209.77L389.8,199.89L394.67,193.21L399.54,184.14L404.42,157.41L409.29,137.77L414.16,141.56L419.03,156.22L423.91,151.03L428.78,156.72L433.65,160.51L438.52,156.72L443.4,164.19L448.27,156.72L453.14,141.06L458.01,130.29L462.89,130.29L467.76,139.96L472.63,141.06L477.5,135.67L482.38,148.24L487.25,176.46L492.12,187.73L496.99,172.07L501.87,168.78L506.74,174.96L511.61,189.52L516.48,199.89L521.36,185.24L526.23,206.97L531.1,200.39L535.97,199.2L540.85,199.2L545.72,187.13L550.59,194.41L555.46,194.41L560.34,188.03L565.21,188.03L570.08,178.45L574.95,194.21L579.83,158.61L584.7,135.87L589.57,139.56L594.44,128L599.32,130.09L604.19,130.09L609.06,133.78L613.93,174.96L618.81,135.87L623.68,126.4L628.55,130.09L633.42,126.4L638.3,130.09L643.17,130.09L648.04,133.78L652.91,152.03L657.79,133.88L672.4,133.88L677.28,129.09L687.02,129.09L691.89,128.3L696.77,133.88L701.64,126.1L706.51,124.41L711.38,132.08L716.26,118.82L721.13,130.09L726,186.33" style="vector-effect: none; fill: none; stroke: rgb(255, 165, 0); stroke-opacity: 1; stroke-width: 2px; opacity: 1;"/></g><g class="points"/><g class="text"/></g><g class="trace scatter trace68bc05" style="stroke-miterlimit: 2; opacity: 1;"><g class="fills"/><g class="errorbars"/><g class="lines"><path class="js-line" d="M0,232.8L4.87,174.07L9.74,152.73L14.62,98.08L19.49,104.56L24.36,110.25L29.23,112.94L34.11,97.68L38.98,135.97L43.85,120.82L48.72,113.74L58.47,118.82L63.34,121.12L68.21,83.82L73.09,104.56L77.96,103.96L82.83,101.57L87.7,99.48L92.58,104.76L97.45,71.55L102.32,74.45L107.19,73.05L112.07,75.64L116.94,59.09L121.81,68.36L126.68,61.88L131.56,65.37L136.43,76.44L141.3,47.52L146.17,54L151.05,81.03L155.92,80.23L160.79,80.93L165.66,82.42L170.54,57.1L175.41,79.53L180.28,51.81L185.15,54.8L190.03,55.9L194.9,53.41L199.77,52.21L204.64,59.69L209.52,54.1L214.39,57L219.26,52.41L224.13,50.41L229.01,47.12L233.88,52.01L238.75,48.62L243.62,54.6L248.5,44.93L253.37,85.02L258.24,88.81L263.11,90.5L267.99,89.21L272.86,92L277.73,92L282.6,88.61L287.48,97.48L292.35,97.08L297.22,38.65L302.09,41.54L306.97,43.53L311.84,41.74L316.71,36.05L321.58,38.65L326.46,35.56L331.33,36.25L336.2,48.62L341.07,51.81L345.95,46.13L350.82,39.64L355.69,34.56L360.56,41.44L365.44,95.59L370.31,89.8L375.18,90.2L380.05,87.31L384.93,91.9L389.8,87.41L394.67,84.62L399.54,80.53L404.42,84.22L409.29,47.82L414.16,41.74L419.03,43.43L423.91,43.13L428.78,46.23L433.65,44.33L438.52,46.03L443.4,41.54L448.27,43.53L453.14,74.45L458.01,71.65L462.89,80.33L467.76,81.63L472.63,78.73L477.5,81.23L482.38,81.63L487.25,108.05L492.12,115.23L496.99,72.85L501.87,78.83L506.74,78.63L511.61,98.68L516.48,95.99L521.36,95.39L531.1,77.74L535.97,84.12L540.85,86.41L545.72,73.55L555.46,82.32L560.34,72.15L565.21,76.24L570.08,72.35L574.95,78.14L579.83,33.36L584.7,28.97L589.57,31.17L594.44,31.17L599.32,24.69L604.19,25.68L609.06,22.29L613.93,71.55L618.81,25.68L623.68,20.2L628.55,24.29L633.42,25.09L638.3,25.09L643.17,23.69L648.04,24.69L652.91,75.84L657.79,66.77L662.66,60.88L667.53,63.28L672.4,61.28L677.28,62.68L682.15,64.28L687.02,64.28L691.89,19.8L696.77,23.89L706.51,24.89L711.38,26.08L716.26,22.39L721.13,29.97L726,90.3" style="vector-effect: none; fill: none; stroke: rgb(128, 0, 128); stroke-opacity: 1; stroke-width: 2px; opacity: 1;"/></g><g class="points"/><g class="text"/></g><g class="trace scatter tracede330f" style="stroke-miterlimit: 2; opacity: 1;"><g class="fills"/><g class="errorbars"/><g class="lines"><path class="js-line" d="M0,283.46L4.87,272.99L9.74,238.39L14.62,227.92L19.49,172.17L24.36,175.86L29.23,169.48L34.11,152.43L38.98,217.15L43.85,190.02L48.72,178.85L53.6,175.16L58.47,186.33L63.34,193.71L68.21,168.78L73.09,149.24L77.96,145.55L87.7,138.07L92.58,155.62L97.45,153.43L102.32,159.31L107.19,151.83L112.07,140.66L116.94,147.04L121.81,143.35L126.68,140.66L131.56,151.83L136.43,168.48L141.3,146.05L146.17,143.35L151.05,127.4L155.92,137.57L160.79,143.95L165.66,133.78L170.54,139.07L175.41,136.47L180.28,148.14L185.15,159.31L190.03,152.93L194.9,160.31L199.77,141.76L204.64,155.52L209.52,149.14L214.39,134.28L219.26,140.66L224.13,148.14L229.01,145.45L233.88,148.14L238.75,151.83L243.62,148.14L248.5,148.14L253.37,188.93L258.24,195.31L263.11,195.31L267.99,201.79L272.86,201.79L277.73,211.86L282.6,195.31L287.48,205.48L292.35,209.17L297.22,132.68L302.09,140.06L306.97,136.37L311.84,131.59L316.71,139.07L326.46,136.97L331.33,134.28L336.2,135.38L341.07,131.59L345.95,134.28L350.82,137.97L355.69,134.28L360.56,144.45L365.44,188.53L370.31,183.14L375.18,180.45L380.05,179.45L384.93,205.48L389.8,195.31L394.67,188.93L399.54,177.76L404.42,153.03L409.29,124.21L414.16,127.9L419.03,142.76L423.91,137.97L428.78,144.45L433.65,148.14L438.52,144.45L443.4,151.83L448.27,144.45L453.14,133.78L458.01,121.02L462.89,121.02L467.76,131.19L472.63,133.78L477.5,127.4L482.38,138.57L487.25,178.26L492.12,193.11L496.99,160.8L501.87,159.21L506.74,166.59L511.61,192.12L516.48,202.19L521.36,183.64L526.23,200.69L531.1,194.31L535.97,196.4L540.85,196.4L545.72,181.55L550.59,185.83L555.46,185.83L560.34,178.36L565.21,178.36L570.08,168.28L574.95,186.83L579.83,147.04L584.7,121.51L589.57,125.2L594.44,112.44L599.32,115.13L604.19,115.13L609.06,118.82L613.93,166.59L618.81,121.51L623.68,111.34L628.55,115.13L633.42,111.34L638.3,115.13L643.17,115.13L648.04,118.82L652.91,146.64L657.79,131.69L662.66,131.69L672.4,131.69L677.28,128L687.02,128L691.89,114.04L696.77,120.42L701.64,113.04L706.51,110.35L711.38,117.82L716.26,103.96L721.13,115.13L726,182.54" style="vector-effect: none; fill: none; stroke: rgb(255, 192, 203); stroke-opacity: 1; stroke-width: 2px; opacity: 1;"/></g><g class="points"/><g class="text"/></g><g class="trace scatter trace25d09d" style="stroke-miterlimit: 2; opacity: 1;"><g class="fills"/><g class="errorbars"/><g class="lines"><path class="js-line" d="M0,301.61L4.87,207.67L9.74,189.42L14.62,114.14L19.49,104.46L24.36,110.84L29.23,114.04L34.11,100.57L38.98,166.29L43.85,146.44L48.72,137.97L53.6,140.26L58.47,144.05L63.34,147.74L68.21,97.88L73.09,105.66L77.96,104.76L87.7,100.07L92.58,105.16L97.45,77.54L102.32,83.52L107.19,82.32L112.07,83.82L116.94,67.27L121.81,76.64L126.68,69.76L131.56,73.25L136.43,76.44L141.3,54.6L146.17,61.48L151.05,83.92L155.92,82.13L160.79,82.42L165.66,83.72L170.54,66.77L175.41,81.13L180.28,60.09L185.15,63.58L190.03,64.67L199.77,60.19L204.64,68.26L209.52,63.38L214.39,64.97L219.26,61.18L224.13,58.89L229.01,56.3L233.88,61.08L238.75,57.49L243.62,62.58L248.5,53.01L253.37,109.55L258.24,113.04L263.11,115.53L267.99,113.04L272.86,115.33L277.73,115.33L282.6,111.84L287.48,121.32L292.35,121.41L297.22,47.02L302.09,51.41L306.97,53.7L311.84,52.41L316.71,45.53L321.58,47.02L326.46,43.63L331.33,44.63L336.2,57.49L341.07,60.09L345.95,55.2L350.82,48.22L355.69,42.44L360.56,49.52L365.44,115.23L370.31,111.74L375.18,114.24L380.05,109.35L384.93,116.63L389.8,111.94L394.67,109.55L399.54,104.76L404.42,85.22L409.29,57.39L414.16,52.41L419.03,54.6L423.91,53.61L428.78,57.1L433.65,53.9L438.52,56.1L443.4,51.41L448.27,53.7L453.14,75.54L458.01,72.95L462.89,81.53L467.76,83.42L472.63,80.83L477.5,83.22L482.38,83.42L487.25,140.46L492.12,149.14L496.99,91.6L501.87,99.88L506.74,101.07L511.61,128L516.48,124.21L521.36,122.91L526.23,105.76L531.1,96.29L535.97,107.06L540.85,110.74L545.72,95.19L550.59,95.19L555.46,99.88L560.34,88.21L565.21,92.89L570.08,89.3L574.95,96.29L579.83,40.34L584.7,37.55L589.57,40.84L594.44,40.84L599.32,33.86L604.19,34.96L609.06,31.47L613.93,89.3L618.81,34.96L623.68,29.17L628.55,33.76L633.42,33.96L638.3,33.96L643.17,32.66L648.04,33.86L652.91,76.84L657.79,66.77L662.66,60.79L667.53,63.18L672.4,60.88L677.28,62.18L682.15,64.28L687.02,64.28L691.89,27.18L696.77,31.77L701.64,31.87L706.51,32.96L711.38,35.06L716.26,30.57L721.13,38.65L726,116.83" style="vector-effect: none; fill: none; stroke: rgb(165, 42, 42); stroke-opacity: 1; stroke-width: 2px; opacity: 1;"/></g><g class="points"/><g class="text"/></g><g class="trace scatter trace598411" style="stroke-miterlimit: 2; opacity: 1;"><g class="fills"/><g class="errorbars"/><g class="lines"><path class="js-line" d="M0,376.2L4.87,316.27L9.74,293.63L14.62,249.26L19.49,173.07L24.36,177.26L29.23,171.37L34.11,160.01L38.98,269.6L43.85,231.61L48.72,217.74L53.6,213.06L58.47,226.92L63.34,236.29L68.21,189.32L73.09,151.43L77.96,147.14L87.7,138.67L92.58,157.21L97.45,163L102.32,173.77L107.19,165.09L112.07,152.13L116.94,157.51L121.81,153.23L126.68,152.13L131.56,165.09L136.43,168.88L141.3,154.42L146.17,153.23L151.05,132.98L155.92,142.85L160.79,148.54L165.66,138.57L170.54,154.42L175.41,139.96L180.28,160.8L185.15,173.77L190.03,168.38L194.9,177.06L199.77,155.42L204.64,169.38L209.52,164.1L214.39,146.74L219.26,152.13L224.13,160.8L229.01,159.71L233.88,160.8L238.75,165.09L243.62,160.8L248.5,160.8L253.37,227.12L258.24,231.9L263.11,231.9L267.99,236.79L272.86,236.79L277.73,246.16L282.6,231.9L287.48,241.38L292.35,245.97L297.22,149.14L302.09,157.91L306.97,153.52L311.84,145.75L316.71,154.42L326.46,147.84L331.33,146.74L336.2,150.13L341.07,145.75L345.95,146.74L350.82,151.13L355.69,146.74L360.56,156.42L365.44,215.15L370.31,214.05L375.18,213.66L380.05,209.57L384.93,241.38L389.8,231.9L394.67,227.12L399.54,213.36L404.42,155.62L409.29,137.07L414.16,141.36L419.03,158.81L423.91,151.13L428.78,156.42L433.65,160.8L438.52,156.42L443.4,165.09L448.27,156.42L453.14,138.57L458.01,127.4L462.89,127.4L467.76,137.27L472.63,138.57L477.5,132.98L482.38,145.85L487.25,226.82L492.12,245.97L496.99,187.23L501.87,190.72L506.74,199.7L511.61,240.98L516.48,250.45L521.36,226.82L526.23,232.6L531.1,227.72L535.97,236.39L540.85,236.39L545.72,217.94L550.59,214.55L555.46,214.55L560.34,205.68L565.21,205.68L570.08,196.21L574.95,218.64L579.83,157.51L584.7,136.07L589.57,140.46L594.44,129.89L599.32,130.79L604.19,130.79L609.06,135.18L613.93,199.7L618.81,136.07L623.68,126.4L628.55,130.79L633.42,126.4L638.3,130.79L643.17,130.79L648.04,135.18L652.91,149.93L657.79,132.88L662.66,132.88L672.4,132.88L677.28,128.59L687.02,128.59L691.89,127.3L696.77,132.68L701.64,124.01L706.51,123.01L711.38,131.69L716.26,117.63L721.13,130.79L726,222.33" style="vector-effect: none; fill: none; stroke: rgb(128, 128, 128); stroke-opacity: 1; stroke-width: 2px; opacity: 1;"/></g><g class="points"/><g class="text"/></g></g></g><g class="overplot"/><path class="xlines-above crisp" d="M0,0" style="fill: none;"/><path class="ylines-above crisp" d="M0,0" style="fill: none;"/><g class="overlines-above"/><g class="xaxislayer-above"><g class="xtick"><text text-anchor="middle" x="0" y="509" transform="translate(235.57999999999998,0)" style="font-family: 'Open Sans', verdana, arial, sans-serif; font-size: 12px; fill: rgb(42, 63, 95); fill-opacity: 1; white-space: pre; opacity: 1;">20</text></g><g class="xtick"><text text-anchor="middle" x="0" y="509" style="font-family: 'Open Sans', verdana, arial, sans-serif; font-size: 12px; fill: rgb(42, 63, 95); fill-opacity: 1; white-space: pre; opacity: 1;" transform="translate(333.03,0)">40</text></g><g class="xtick"><text text-anchor="middle" x="0" y="509" style="font-family: 'Open Sans', verdana, arial, sans-serif; font-size: 12px; fill: rgb(42, 63, 95); fill-opacity: 1; white-space: pre; opacity: 1;" transform="translate(430.48,0)">60</text></g><g class="xtick"><text text-anchor="middle" x="0" y="509" style="font-family: 'Open Sans', verdana, arial, sans-serif; font-size: 12px; fill: rgb(42, 63, 95); fill-opacity: 1; white-space: pre; opacity: 1;" transform="translate(527.9300000000001,0)">80</text></g><g class="xtick"><text text-anchor="middle" x="0" y="509" style="font-family: 'Open Sans', verdana, arial, sans-serif; font-size: 12px; fill: rgb(42, 63, 95); fill-opacity: 1; white-space: pre; opacity: 1;" transform="translate(625.38,0)">100</text></g><g class="xtick"><text text-anchor="middle" x="0" y="509" style="font-family: 'Open Sans', verdana, arial, sans-serif; font-size: 12px; fill: rgb(42, 63, 95); fill-opacity: 1; white-space: pre; opacity: 1;" transform="translate(722.83,0)">120</text></g><g class="xtick"><text text-anchor="middle" x="0" y="509" style="font-family: 'Open Sans', verdana, arial, sans-serif; font-size: 12px; fill: rgb(42, 63, 95); fill-opacity: 1; white-space: pre; opacity: 1;" transform="translate(820.28,0)">140</text></g></g><g class="yaxislayer-above"><g class="ytick"><text text-anchor="end" x="142" y="4.199999999999999" transform="translate(0,489.56)" style="font-family: 'Open Sans', verdana, arial, sans-serif; font-size: 12px; fill: rgb(42, 63, 95); fill-opacity: 1; white-space: pre; opacity: 1;">45</text></g><g class="ytick"><text text-anchor="end" x="142" y="4.199999999999999" style="font-family: 'Open Sans', verdana, arial, sans-serif; font-size: 12px; fill: rgb(42, 63, 95); fill-opacity: 1; white-space: pre; opacity: 1;" transform="translate(0,439.7)">50</text></g><g class="ytick"><text text-anchor="end" x="142" y="4.199999999999999" style="font-family: 'Open Sans', verdana, arial, sans-serif; font-size: 12px; fill: rgb(42, 63, 95); fill-opacity: 1; white-space: pre; opacity: 1;" transform="translate(0,389.84)">55</text></g><g class="ytick"><text text-anchor="end" x="142" y="4.199999999999999" style="font-family: 'Open Sans', verdana, arial, sans-serif; font-size: 12px; fill: rgb(42, 63, 95); fill-opacity: 1; white-space: pre; opacity: 1;" transform="translate(0,339.98)">60</text></g><g class="ytick"><text text-anchor="end" x="142" y="4.199999999999999" style="font-family: 'Open Sans', verdana, arial, sans-serif; font-size: 12px; fill: rgb(42, 63, 95); fill-opacity: 1; white-space: pre; opacity: 1;" transform="translate(0,290.12)">65</text></g><g class="ytick"><text text-anchor="end" x="142" y="4.199999999999999" style="font-family: 'Open Sans', verdana, arial, sans-serif; font-size: 12px; fill: rgb(42, 63, 95); fill-opacity: 1; white-space: pre; opacity: 1;" transform="translate(0,240.26)">70</text></g><g class="ytick"><text text-anchor="end" x="142" y="4.199999999999999" style="font-family: 'Open Sans', verdana, arial, sans-serif; font-size: 12px; fill: rgb(42, 63, 95); fill-opacity: 1; white-space: pre; opacity: 1;" transform="translate(0,190.4)">75</text></g><g class="ytick"><text text-anchor="end" x="142" y="4.199999999999999" style="font-family: 'Open Sans', verdana, arial, sans-serif; font-size: 12px; fill: rgb(42, 63, 95); fill-opacity: 1; white-space: pre; opacity: 1;" transform="translate(0,140.54)">80</text></g></g><g class="overaxes-above"/></g></g><g class="polarlayer"/><g class="smithlayer"/><g class="ternarylayer"/><g class="geolayer"/><g class="funnelarealayer"/><g class="pielayer"/><g class="iciclelayer"/><g class="treemaplayer"/><g class="sunburstlayer"/><g class="glimages"/><defs id="topdefs-3e0105"><g class="clips"/><clipPath id="legend3e0105"><rect width="128" height="162" x="0" y="0"/></clipPath></defs><g class="layer-above"><g class="imagelayer"/><g class="shapelayer"/></g><g class="infolayer"><g class="legend" pointer-events="all" transform="translate(883.52,100)"><rect class="bg" shape-rendering="crispEdges" width="128" height="162" x="0" y="0" style="stroke: rgb(68, 68, 68); stroke-opacity: 1; fill: rgb(255, 255, 255); fill-opacity: 1; stroke-width: 0px;"/><g class="scrollbox" transform="" clip-path="url(#legend3e0105)"><g class="groups"><g class="traces" transform="translate(0,14.5)" style="opacity: 1;"><text class="legendtext" text-anchor="start" x="40" y="4.680000000000001" style="font-family: 'Open Sans', verdana, arial, sans-serif; font-size: 12px; fill: rgb(42, 63, 95); fill-opacity: 1; white-space: pre;">Train Accuracy</text><g class="layers" style="opacity: 1;"><g class="legendfill"/><g class="legendlines"><path class="js-line" d="M5,0h30" style="fill: none; stroke: rgb(255, 0, 0); stroke-opacity: 1; stroke-width: 2px;"/></g><g class="legendsymbols"><g class="legendpoints"/></g></g><rect class="legendtoggle" x="0" y="-9.5" width="122.71875" height="19" style="fill: rgb(0, 0, 0); fill-opacity: 0;"/></g><g class="traces" transform="translate(0,33.5)" style="opacity: 1;"><text class="legendtext" text-anchor="start" x="40" y="4.680000000000001" style="font-family: 'Open Sans', verdana, arial, sans-serif; font-size: 12px; fill: rgb(42, 63, 95); fill-opacity: 1; white-space: pre;">Test Accuracy</text><g class="layers" style="opacity: 1;"><g class="legendfill"/><g class="legendlines"><path class="js-line" d="M5,0h30" style="fill: none; stroke: rgb(0, 0, 255); stroke-opacity: 1; stroke-width: 2px;"/></g><g class="legendsymbols"><g class="legendpoints"/></g></g><rect class="legendtoggle" x="0" y="-9.5" width="122.71875" height="19" style="fill: rgb(0, 0, 0); fill-opacity: 0;"/></g><g class="traces" transform="translate(0,52.5)" style="opacity: 1;"><text class="legendtext" text-anchor="start" x="40" y="4.680000000000001" style="font-family: 'Open Sans', verdana, arial, sans-serif; font-size: 12px; fill: rgb(42, 63, 95); fill-opacity: 1; white-space: pre;">Train Precision</text><g class="layers" style="opacity: 1;"><g class="legendfill"/><g class="legendlines"><path class="js-line" d="M5,0h30" style="fill: none; stroke: rgb(0, 128, 0); stroke-opacity: 1; stroke-width: 2px;"/></g><g class="legendsymbols"><g class="legendpoints"/></g></g><rect class="legendtoggle" x="0" y="-9.5" width="122.71875" height="19" style="fill: rgb(0, 0, 0); fill-opacity: 0;"/></g><g class="traces" transform="translate(0,71.5)" style="opacity: 1;"><text class="legendtext" text-anchor="start" x="40" y="4.680000000000001" style="font-family: 'Open Sans', verdana, arial, sans-serif; font-size: 12px; fill: rgb(42, 63, 95); fill-opacity: 1; white-space: pre;">Test Precision</text><g class="layers" style="opacity: 1;"><g class="legendfill"/><g class="legendlines"><path class="js-line" d="M5,0h30" style="fill: none; stroke: rgb(255, 165, 0); stroke-opacity: 1; stroke-width: 2px;"/></g><g class="legendsymbols"><g class="legendpoints"/></g></g><rect class="legendtoggle" x="0" y="-9.5" width="122.71875" height="19" style="fill: rgb(0, 0, 0); fill-opacity: 0;"/></g><g class="traces" transform="translate(0,90.5)" style="opacity: 1;"><text class="legendtext" text-anchor="start" x="40" y="4.680000000000001" style="font-family: 'Open Sans', verdana, arial, sans-serif; font-size: 12px; fill: rgb(42, 63, 95); fill-opacity: 1; white-space: pre;">Train Recall</text><g class="layers" style="opacity: 1;"><g class="legendfill"/><g class="legendlines"><path class="js-line" d="M5,0h30" style="fill: none; stroke: rgb(128, 0, 128); stroke-opacity: 1; stroke-width: 2px;"/></g><g class="legendsymbols"><g class="legendpoints"/></g></g><rect class="legendtoggle" x="0" y="-9.5" width="122.71875" height="19" style="fill: rgb(0, 0, 0); fill-opacity: 0;"/></g><g class="traces" transform="translate(0,109.5)" style="opacity: 1;"><text class="legendtext" text-anchor="start" x="40" y="4.680000000000001" style="font-family: 'Open Sans', verdana, arial, sans-serif; font-size: 12px; fill: rgb(42, 63, 95); fill-opacity: 1; white-space: pre;">Test Recall</text><g class="layers" style="opacity: 1;"><g class="legendfill"/><g class="legendlines"><path class="js-line" d="M5,0h30" style="fill: none; stroke: rgb(255, 192, 203); stroke-opacity: 1; stroke-width: 2px;"/></g><g class="legendsymbols"><g class="legendpoints"/></g></g><rect class="legendtoggle" x="0" y="-9.5" width="122.71875" height="19" style="fill: rgb(0, 0, 0); fill-opacity: 0;"/></g><g class="traces" transform="translate(0,128.5)" style="opacity: 1;"><text class="legendtext" text-anchor="start" x="40" y="4.680000000000001" style="font-family: 'Open Sans', verdana, arial, sans-serif; font-size: 12px; fill: rgb(42, 63, 95); fill-opacity: 1; white-space: pre;">Train F1</text><g class="layers" style="opacity: 1;"><g class="legendfill"/><g class="legendlines"><path class="js-line" d="M5,0h30" style="fill: none; stroke: rgb(165, 42, 42); stroke-opacity: 1; stroke-width: 2px;"/></g><g class="legendsymbols"><g class="legendpoints"/></g></g><rect class="legendtoggle" x="0" y="-9.5" width="122.71875" height="19" style="fill: rgb(0, 0, 0); fill-opacity: 0;"/></g><g class="traces" transform="translate(0,147.5)" style="opacity: 1;"><text class="legendtext" text-anchor="start" x="40" y="4.680000000000001" style="font-family: 'Open Sans', verdana, arial, sans-serif; font-size: 12px; fill: rgb(42, 63, 95); fill-opacity: 1; white-space: pre;">Test F1</text><g class="layers" style="opacity: 1;"><g class="legendfill"/><g class="legendlines"><path class="js-line" d="M5,0h30" style="fill: none; stroke: rgb(128, 128, 128); stroke-opacity: 1; stroke-width: 2px;"/></g><g class="legendsymbols"><g class="legendpoints"/></g></g><rect class="legendtoggle" x="0" y="-9.5" width="122.71875" height="19" style="fill: rgb(0, 0, 0); fill-opacity: 0;"/></g></g></g><rect class="scrollbar" rx="20" ry="3" width="0" height="0" x="0" y="0" style="fill: rgb(128, 139, 164); fill-opacity: 1;"/></g><g class="g-gtitle"><text class="gtitle" x="51.2" y="50" text-anchor="start" dy="0em" style="font-family: 'Open Sans', verdana, arial, sans-serif; font-size: 17px; fill: rgb(42, 63, 95); opacity: 1; font-weight: normal; white-space: pre;">Training Metrics - logs/FakeNewsNet-politifact_max-vocab=15000_pre=v1_text_domain_T=200_s=5.log</text></g><g class="g-xtitle"><text class="xtitle" x="506" y="537.3" text-anchor="middle" style="font-family: 'Open Sans', verdana, arial, sans-serif; font-size: 14px; fill: rgb(42, 63, 95); opacity: 1; font-weight: normal; white-space: pre;">Epoch</text></g><g class="g-ytitle"><text class="ytitle" transform="rotate(-90,103.965625,298)" x="103.965625" y="298" text-anchor="middle" style="font-family: 'Open Sans', verdana, arial, sans-serif; font-size: 14px; fill: rgb(42, 63, 95); opacity: 1; font-weight: normal; white-space: pre;">Metric Score</text></g></g><g class="menulayer"><g class="updatemenu-container" style="cursor: pointer;"><g class="updatemenu-header-group" transform="translate(12,60)"><g class="updatemenu-header" transform="translate(1,1)" style="pointer-events: all;"><rect class="updatemenu-item-rect" rx="2" ry="2" shape-rendering="crispEdges" x="0" y="0" width="167" height="33" style="stroke: rgb(190, 200, 217); stroke-opacity: 1; fill: rgb(255, 255, 255); fill-opacity: 1; stroke-width: 1px;"/><text class="updatemenu-item-text" text-anchor="start" data-notex="1" x="12" y="19.5" style="font-family: 'Open Sans', verdana, arial, sans-serif; font-size: 12px; fill: rgb(42, 63, 95); fill-opacity: 1; white-space: pre;">All</text></g><text class="updatemenu-header-arrow" text-anchor="end" x="163" y="19.5" style="font-family: 'Open Sans', verdana, arial, sans-serif; font-size: 12px; fill: rgb(42, 63, 95); fill-opacity: 1;">▼</text></g><g class="updatemenu-dropdown-button-group" updatemenu-active-index="-1" style="pointer-events: all;"><rect class="scrollbox-bg" opacity="0" x="0" y="0" width="0" height="0" style="pointer-events: all;"/></g></g></g></svg>