<svg class="main-svg" xmlns="http://www.w3.org/2000/svg" xmlns:xlink="http://www.w3.org/1999/xlink" width="1024" height="576" style="" viewBox="0 0 1024 576"><rect x="0" y="0" width="1024" height="576" style="fill: rgb(255, 255, 255); fill-opacity: 1;"/><defs id="defs-1d5b26"><g class="clips"><clipPath id="clip1d5b26xyplot" class="plotclip"><rect width="720" height="396"/></clipPath><clipPath class="axesclip" id="clip1d5b26x"><rect x="150" y="0" width="720" height="576"/></clipPath><clipPath class="axesclip" id="clip1d5b26y"><rect x="0" y="100" width="1024" height="396"/></clipPath><clipPath class="axesclip" id="clip1d5b26xy"><rect x="150" y="100" width="720" height="396"/></clipPath></g><g class="gradients"/><g class="patterns"/></defs><g class="bglayer"><rect class="bg" x="150" y="100" width="720" height="396" style="fill: rgb(229, 236, 246); fill-opacity: 1; stroke-width: 0;"/></g><g class="layer-below"><g class="imagelayer"/><g class="shapelayer"/></g><g class="cartesianlayer"><g class="subplot xy"><g class="layer-subplot"><g class="shapelayer"/><g class="imagelayer"/></g><g class="minor-gridlayer"><g class="x"/><g class="y"/></g><g class="gridlayer"><g class="x"><path class="xgrid crisp" transform="translate(241.81,0)" d="M0,100v396" style="stroke: rgb(255, 255, 255); stroke-opacity: 1; stroke-width: 1px;"/><path class="xgrid crisp" transform="translate(338.46000000000004,0)" d="M0,100v396" style="stroke: rgb(255, 255, 255); stroke-opacity: 1; stroke-width: 1px;"/><path class="xgrid crisp" transform="translate(435.1,0)" d="M0,100v396" style="stroke: rgb(255, 255, 255); stroke-opacity: 1; stroke-width: 1px;"/><path class="xgrid crisp" transform="translate(531.74,0)" d="M0,100v396" style="stroke: rgb(255, 255, 255); stroke-opacity: 1; stroke-width: 1px;"/><path class="xgrid crisp" transform="translate(628.39,0)" d="M0,100v396" style="stroke: rgb(255, 255, 255); stroke-opacity: 1; stroke-width: 1px;"/><path class="xgrid crisp" transform="translate(725.03,0)" d="M0,100v396" style="stroke: rgb(255, 255, 255); stroke-opacity: 1; stroke-width: 1px;"/><path class="xgrid crisp" transform="translate(821.68,0)" d="M0,100v396" style="stroke: rgb(255, 255, 255); stroke-opacity: 1; stroke-width: 1px;"/></g><g class="y"><path class="ygrid crisp" transform="translate(0,469.94)" d="M150,0h720" style="stroke: rgb(255, 255, 255); stroke-opacity: 1; stroke-width: 1px;"/><path class="ygrid crisp" transform="translate(0,405.38)" d="M150,0h720" style="stroke: rgb(255, 255, 255); stroke-opacity: 1; stroke-width: 1px;"/><path class="ygrid crisp" transform="translate(0,340.83000000000004)" d="M150,0h720" style="stroke: rgb(255, 255, 255); stroke-opacity: 1; stroke-width: 1px;"/><path class="ygrid crisp" transform="translate(0,276.28)" d="M150,0h720" style="stroke: rgb(255, 255, 255); stroke-opacity: 1; stroke-width: 1px;"/><path class="ygrid crisp" transform="translate(0,211.72)" d="M150,0h720" style="stroke: rgb(255, 255, 255); stroke-opacity: 1; stroke-width: 1px;"/><path class="ygrid crisp" transform="translate(0,147.17000000000002)" d="M150,0h720" style="stroke: rgb(255, 255, 255); stroke-opacity: 1; stroke-width: 1px;"/></g></g><g class="zerolinelayer"/><path class="xlines-below"/><path class="ylines-below"/><g class="overlines-below"/><g class="xaxislayer-below"/><g class="yaxislayer-below"/><g class="overaxes-below"/><g class="plot" transform="translate(150,100)" clip-path="url(#clip1d5b26xyplot)"><g class="scatterlayer mlayer"><g class="trace scatter traceefd903" style="stroke-miterlimit: 2; opacity: 1;"><g class="fills"/><g class="errorbars"/><g class="lines"><path class="js-line" d="M0,188.8L4.83,168.14L9.66,173.5L19.33,163.56L24.16,161.3L28.99,82.48L33.83,77.9L38.66,67.18L43.49,68.73L48.32,68.73L53.15,64.15L57.99,51.17L62.82,51.17L67.65,58.02L72.48,52.66L77.32,51.17L82.15,55.76L86.98,60.34L91.81,61.11L96.64,59.56L101.48,62.6L106.31,50.4L111.14,49.62L115.97,48.07L120.81,48.07L125.64,81.77L130.47,49.62L135.3,47.3L140.13,38.13L144.97,43.49L149.8,44.27L154.63,42.72L159.46,48.07L164.3,45.82L169.13,42.72L173.96,42.72L178.79,35.1L183.62,37.36L188.46,32.78L193.29,38.13L198.12,35.1L212.62,26.64L217.45,28.19L222.28,30.52L227.11,29.74L231.95,31.29L236.78,28.19L241.61,28.19L246.44,25.16L251.28,29.74L256.11,23.61L260.94,26.64L265.77,25.93L270.6,25.16L275.44,25.93L280.27,23.61L285.1,19.8L289.93,26.64L294.77,25.16L299.6,54.98L304.43,58.02L309.26,51.88L314.09,54.98L318.93,55.76L323.76,54.21L328.59,57.24L333.42,54.21L338.26,53.43L343.09,53.43L347.92,54.21L352.75,55.76L357.58,53.43L362.42,54.98L367.25,53.43L372.08,54.98L381.74,52.66L386.58,54.21L391.41,52.66L396.24,54.21L401.07,50.4L405.91,51.88L434.9,51.17L439.73,55.76L449.4,54.21L454.23,54.98L459.06,51.17L463.89,50.4L468.72,51.17L473.56,49.62L478.39,52.66L483.22,51.88L488.05,54.21L492.89,54.21L507.38,49.62L512.21,52.66L517.05,51.17L521.88,51.88L526.71,48.07L531.54,48.07L536.38,48.07L541.21,49.62L546.04,51.17L550.87,50.4L555.7,48.07L560.54,48.07L565.37,48.85L570.2,50.4L579.87,48.85L584.7,50.4L589.53,50.4L594.36,48.85L599.19,50.4L604.03,48.85L608.86,50.4L613.69,47.3L637.85,51.17L642.68,48.85L652.35,52.66L657.18,50.4L662.01,48.07L666.85,50.4L671.68,49.62L676.51,49.62L681.34,47.3L686.17,48.85L695.84,48.85L700.67,48.07L705.5,46.59L710.34,48.07L715.17,47.3L720,48.07" style="vector-effect: none; fill: none; stroke: rgb(255, 0, 0); stroke-opacity: 1; stroke-width: 2px; opacity: 1;"/></g><g class="points"/><g class="text"/></g><g class="trace scatter trace3093b5" style="stroke-miterlimit: 2; opacity: 1;"><g class="fills"/><g class="errorbars"/><g class="lines"><path class="js-line" d="M0,155.56L4.83,128.19L9.66,128.19L24.16,128.19L28.99,94.68L33.83,91.65L38.66,85.52L43.49,82.48L48.32,82.48L53.15,76.41L57.99,73.38L62.82,79.45L67.65,73.38L77.32,73.38L82.15,76.41L86.98,82.48L91.81,85.52L96.64,85.52L101.48,88.61L106.31,85.52L111.14,85.52L115.97,76.41L120.81,76.41L125.64,134.25L130.47,76.41L135.3,85.52L140.13,73.38L144.97,70.28L149.8,73.38L159.46,85.52L164.3,79.45L169.13,70.28L173.96,76.41L178.79,73.38L183.62,76.41L188.46,73.38L193.29,73.38L198.12,67.25L202.95,67.25L207.79,67.25L212.62,70.28L222.28,70.28L227.11,73.38L236.78,79.45L241.61,76.41L246.44,70.28L251.28,70.28L256.11,70.28L260.94,76.41L265.77,79.45L270.6,76.41L275.44,70.28L280.27,70.28L285.1,67.25L289.93,67.25L294.77,67.25L299.6,125.15L304.43,128.19L309.26,128.19L323.76,128.19L328.59,137.29L333.42,140.32L338.26,131.22L347.92,131.22L352.75,134.25L357.58,131.22L362.42,131.22L367.25,128.19L372.08,131.22L376.91,128.19L381.74,128.19L386.58,128.19L391.41,125.15L396.24,128.19L401.07,128.19L430.07,128.19L434.9,125.15L454.23,125.15L459.06,128.19L468.72,128.19L473.56,125.15L478.39,128.19L483.22,125.15L492.89,131.22L497.72,128.19L507.38,128.19L512.21,131.22L517.05,128.19L521.88,128.19L526.71,125.15L531.54,125.15L565.37,125.15L570.2,131.22L575.03,128.19L579.87,131.22L584.7,134.25L589.53,131.22L594.36,131.22L599.19,134.25L604.03,131.22L608.86,131.22L613.69,128.19L618.52,128.19L623.36,131.22L628.19,128.19L633.02,125.15L637.85,131.22L642.68,128.19L647.52,131.22L652.35,131.22L657.18,128.19L662.01,125.15L666.85,131.22L671.68,128.19L676.51,128.19L681.34,125.15L686.17,128.19L700.67,128.19L705.5,125.15L715.17,125.15L720,128.19" style="vector-effect: none; fill: none; stroke: rgb(0, 0, 255); stroke-opacity: 1; stroke-width: 2px; opacity: 1;"/></g><g class="points"/><g class="text"/></g><g class="trace scatter traceb69e6b" style="stroke-miterlimit: 2; opacity: 1;"><g class="fills"/><g class="errorbars"/><g class="lines"><path class="js-line" d="M0,376.2L4.83,47.24L9.66,63.5L14.5,68.86L19.33,70.41L24.16,79.77L28.99,84.93L33.83,79.38L38.66,68.15L43.49,70.86L48.32,70.67L53.15,65.5L57.99,51.88L62.82,52.08L67.65,59.11L72.48,53.76L77.32,52.08L82.15,56.08L86.98,61.24L91.81,62.21L96.64,60.53L101.48,63.63L106.31,50.14L111.14,50.2L115.97,47.82L120.81,49.69L125.64,72.35L130.47,51.3L135.3,49.3L140.13,40.01L144.97,45.04L149.8,45.3L154.63,43.68L159.46,49.88L164.3,47.56L169.13,43.68L173.96,43.68L178.79,36.65L183.62,38.78L188.46,33.68L193.29,39.04L202.95,32.52L207.79,30.19L212.62,27.48L217.45,29.29L222.28,31.16L227.11,30.71L231.95,32.32L236.78,29.68L241.61,29.1L246.44,25.35L251.28,29.74L256.11,23.48L260.94,27.22L265.77,27.16L270.6,26.51L275.44,26.77L280.27,24L285.1,19.8L289.93,26.71L294.77,24.58L299.6,44.85L304.43,50.33L309.26,42.26L314.09,46.33L318.93,46.4L323.76,45.3L328.59,46.98L333.42,41.75L347.92,42.26L352.75,43.3L357.58,40.13L362.42,42.78L376.91,42.26L381.74,41.75L386.58,42.26L391.41,41.75L396.24,43.3L401.07,39.17L405.91,41.23L410.74,41.23L415.57,42.72L420.4,41.75L425.23,42.26L430.07,40.2L434.9,40.2L439.73,46.85L449.4,43.3L454.23,43.88L459.06,39.68L463.89,38.65L468.72,39.68L473.56,37.62L478.39,41.75L483.22,41.23L488.05,41.75L492.89,41.17L507.38,37.04L512.21,37.87L517.05,38.07L521.88,39.68L526.71,37.1L531.54,36.58L536.38,36.58L541.21,38.13L546.04,40.72L550.87,39.68L555.7,37.1L560.54,37.1L570.2,38.65L575.03,37.62L579.87,36.52L584.7,38.07L589.53,39.17L594.36,36.52L599.19,38.65L604.03,36.52L608.86,38.65L613.69,33.87L628.19,36.45L633.02,39.17L637.85,39.17L642.68,38.13L647.52,39.68L652.35,40.2L657.18,38.07L662.01,37.1L676.51,38.13L681.34,36.07L686.17,38.13L691.01,36L695.84,36.52L700.67,35.49L705.5,34.45L710.34,37.1L715.17,36.07L720,37.1" style="vector-effect: none; fill: none; stroke: rgb(0, 128, 0); stroke-opacity: 1; stroke-width: 2px; opacity: 1;"/></g><g class="points"/><g class="text"/></g><g class="trace scatter tracedd7933" style="stroke-miterlimit: 2; opacity: 1;"><g class="fills"/><g class="errorbars"/><g class="lines"><path class="js-line" d="M0,359.61L4.83,27.8L9.66,27.8L19.33,27.8L24.16,56.6L28.99,97.72L33.83,93.91L43.49,85.52L48.32,85.52L53.15,79.38L57.99,78.29L62.82,83.13L67.65,76.99L72.48,78.29L77.32,78.29L82.15,81.9L86.98,86.81L91.81,90.49L96.64,90.49L101.48,92.94L106.31,90.49L111.14,89.2L115.97,81.9L120.81,79.38L125.64,81.32L130.47,79.38L135.3,86.35L140.13,76.99L144.97,74.61L149.8,78.29L154.63,85.58L159.46,89.2L164.3,81.71L169.13,74.61L173.96,79.38L178.79,76.99L183.62,79.38L188.46,76.99L193.29,76.99L198.12,72.15L202.95,72.15L207.79,72.15L212.62,74.61L222.28,74.61L227.11,78.29L231.95,79.38L236.78,83.13L241.61,79.38L246.44,74.61L256.11,74.61L260.94,79.38L265.77,81.71L270.6,79.38L275.44,74.61L280.27,75.83L285.1,72.15L289.93,72.15L294.77,72.15L299.6,77.32L304.43,82.8L309.26,82.8L323.76,82.8L328.59,86.94L333.42,88.36L338.26,84.16L347.92,84.16L352.75,85.58L357.58,84.16L362.42,84.16L367.25,82.8L372.08,84.16L376.91,82.8L381.74,82.8L386.58,82.8L391.41,77.32L396.24,82.8L401.07,82.8L430.07,82.8L434.9,77.32L454.23,77.32L459.06,82.8L468.72,82.8L473.56,77.32L478.39,82.8L483.22,77.32L492.89,79.96L497.72,78.67L507.38,78.67L512.21,79.96L517.05,78.67L521.88,78.67L526.71,77.32L531.54,77.32L565.37,77.32L570.2,84.16L575.03,78.67L579.87,84.16L584.7,89.65L589.53,84.16L594.36,84.16L599.19,89.65L604.03,84.16L608.86,84.16L613.69,78.67L618.52,78.67L623.36,84.16L628.19,78.67L633.02,77.32L637.85,84.16L642.68,82.8L647.52,84.16L652.35,84.16L657.18,78.67L662.01,77.32L666.85,84.16L671.68,82.8L676.51,82.8L681.34,77.32L686.17,82.8L691.01,78.67L695.84,78.67L700.67,78.67L705.5,77.32L715.17,77.32L720,82.8" style="vector-effect: none; fill: none; stroke: rgb(255, 165, 0); stroke-opacity: 1; stroke-width: 2px; opacity: 1;"/></g><g class="points"/><g class="text"/></g><g class="trace scatter trace853253" style="stroke-miterlimit: 2; opacity: 1;"><g class="fills"/><g class="errorbars"/><g class="lines"><path class="js-line" d="M0,240.83L4.83,216.24L9.66,222.37L19.33,209.97L24.16,206.75L28.99,93.07L33.83,89.13L38.66,77.64L43.49,77.96L48.32,78.22L53.15,73.77L57.99,60.02L62.82,59.76L67.65,67.18L72.48,61.31L77.32,59.76L82.15,65.5L86.98,69.96L91.81,70.6L96.64,69.05L101.48,72.41L106.31,60.08L111.14,58.47L115.97,57.63L120.81,55.63L125.64,70.67L130.47,57.18L135.3,54.21L140.13,44.27L144.97,50.66L149.8,52.08L154.63,50.46L159.46,55.37L169.13,50.46L173.96,50.46L178.79,41.36L183.62,44.07L188.46,39.62L193.29,45.49L202.95,39.23L207.79,35.1L212.62,33.1L217.45,34.45L222.28,37.42L227.11,36.26L231.95,37.81L236.78,33.94L241.61,34.71L246.44,32.07L251.28,37.29L256.11,30.71L260.94,33.36L265.77,31.68L270.6,30.77L275.44,32.19L280.27,30.19L285.1,26.45L289.93,33.87L294.77,32.78L299.6,43.04L304.43,47.49L309.26,40.2L314.09,43.81L318.93,44.2L323.76,42.91L328.59,45.3L333.42,41.1L343.09,40.72L347.92,41.36L352.75,42.72L357.58,39.94L362.42,42.07L367.25,41.23L372.08,42.07L376.91,40.97L381.74,40.33L386.58,41.36L391.41,40.33L396.24,41.88L401.07,37.81L405.91,39.68L425.23,40.2L430.07,38.78L434.9,38.78L439.73,44.46L449.4,41.88L454.23,42.52L459.06,38.52L463.89,37.62L468.72,38.52L473.56,36.65L478.39,40.33L483.22,39.68L488.05,41.1L492.89,40.91L507.38,36.45L512.21,38.52L517.05,37.75L521.88,38.91L526.71,35.62L531.54,35.36L536.38,35.36L541.21,36.91L546.04,39.04L550.87,38.07L555.7,35.62L560.54,35.62L570.2,37.62L575.03,36.65L579.87,35.74L584.7,37.36L589.53,37.81L594.36,35.74L599.19,37.62L604.03,35.74L608.86,37.62L613.69,33.68L637.85,38.26L642.68,36.52L647.52,38.52L652.35,39.55L662.01,35.62L666.85,37.1L676.51,36.91L681.34,34.71L686.17,36.52L691.01,35.49L695.84,35.74L700.67,34.84L705.5,33.55L710.34,35.62L715.17,34.71L720,35.62" style="vector-effect: none; fill: none; stroke: rgb(128, 0, 128); stroke-opacity: 1; stroke-width: 2px; opacity: 1;"/></g><g class="points"/><g class="text"/></g><g class="trace scatter trace08f244" style="stroke-miterlimit: 2; opacity: 1;"><g class="fills"/><g class="errorbars"/><g class="lines"><path class="js-line" d="M0,240.83L4.83,203.58L9.66,203.58L19.33,203.58L24.16,201.84L28.99,87.19L33.83,83L43.49,74.09L48.32,74.09L53.15,67.51L57.99,66.86L62.82,71.64L67.65,65.12L72.48,66.86L77.32,66.86L91.81,79.96L96.64,79.96L101.48,82.35L106.31,79.96L111.14,78.22L115.97,70.99L120.81,67.51L125.64,92.55L130.47,67.51L135.3,74.74L140.13,65.12L144.97,62.73L149.8,66.86L154.63,75.12L159.46,78.22L164.3,69.96L169.13,62.73L173.96,67.51L178.79,65.12L183.62,67.51L188.46,65.12L193.29,65.12L198.12,60.28L202.95,60.28L207.79,60.28L212.62,62.73L222.28,62.73L227.11,66.86L231.95,67.51L236.78,71.64L246.44,62.73L251.28,62.73L256.11,62.73L260.94,67.51L265.77,69.96L270.6,67.51L275.44,62.73L280.27,64.47L285.1,60.28L289.93,60.28L294.77,60.28L299.6,85.32L304.43,89.45L309.26,89.45L323.76,89.45L328.59,96.68L333.42,99.07L338.26,91.84L347.92,91.84L352.75,94.29L357.58,91.84L362.42,91.84L367.25,89.45L372.08,91.84L376.91,89.45L381.74,89.45L386.58,89.45L391.41,85.32L396.24,89.45L401.07,89.45L430.07,89.45L434.9,85.32L454.23,85.32L459.06,89.45L468.72,89.45L473.56,85.32L478.39,89.45L483.22,85.32L492.89,90.16L497.72,87.71L507.38,87.71L512.21,90.16L517.05,87.71L521.88,87.71L526.71,85.32L531.54,85.32L565.37,85.32L570.2,91.84L575.03,87.71L579.87,91.84L584.7,95.97L589.53,91.84L594.36,91.84L599.19,95.97L604.03,91.84L608.86,91.84L613.69,87.71L618.52,87.71L623.36,91.84L628.19,87.71L633.02,85.32L637.85,91.84L642.68,89.45L647.52,91.84L652.35,91.84L657.18,87.71L662.01,85.32L666.85,91.84L671.68,89.45L676.51,89.45L681.34,85.32L686.17,89.45L691.01,87.71L695.84,87.71L700.67,87.71L705.5,85.32L715.17,85.32L720,89.45" style="vector-effect: none; fill: none; stroke: rgb(255, 192, 203); stroke-opacity: 1; stroke-width: 2px; opacity: 1;"/></g><g class="points"/><g class="text"/></g><g class="trace scatter trace6cb44b" style="stroke-miterlimit: 2; opacity: 1;"><g class="fills"/><g class="errorbars"/><g class="lines"><path class="js-line" d="M0,326.49L4.83,275.82L9.66,286.92L19.33,261.68L24.16,254.32L28.99,90.81L33.83,86.55L38.66,74.93L43.49,75.7L48.32,75.83L53.15,71.18L57.99,57.37L62.82,57.18L67.65,64.6L72.48,58.79L77.32,57.18L82.15,62.6L86.98,67.25L91.81,67.96L96.64,66.41L101.48,69.76L106.31,57.05L111.14,55.76L120.81,53.43L125.64,81.77L130.47,55.05L135.3,52.33L140.13,42.59L144.97,48.53L149.8,49.69L154.63,48.07L159.46,53.3L164.3,50.85L169.13,48.07L173.96,48.07L178.79,39.49L183.62,42.07L188.46,37.42L193.29,43.17L212.62,30.9L217.45,32.39L222.28,35.1L227.11,34.13L231.95,35.68L236.78,32.19L241.61,32.52L246.44,29.55L251.28,34.58L256.11,28.06L260.94,31.03L265.77,29.87L270.6,29.03L275.44,30.06L280.27,27.87L285.1,23.93L289.93,31.29L294.77,29.87L299.6,54.98L304.43,58.14L309.26,51.95L314.09,55.05L318.93,55.76L323.76,54.27L328.59,57.31L333.42,54.21L338.26,53.43L343.09,53.43L347.92,54.21L352.75,55.76L357.58,53.43L362.42,54.98L367.25,53.5L372.08,54.98L376.91,53.43L381.74,52.72L386.58,54.21L391.41,52.72L396.24,54.21L401.07,50.4L405.91,51.95L410.74,51.95L425.23,51.95L430.07,51.17L434.9,51.17L439.73,55.82L449.4,54.21L454.23,54.98L459.06,51.17L463.89,50.4L468.72,51.17L473.56,49.62L478.39,52.72L483.22,51.95L488.05,54.21L492.89,54.21L507.38,49.62L512.21,52.66L517.05,51.17L521.88,51.95L526.71,48.14L531.54,48.07L536.38,48.07L541.21,49.62L546.04,51.17L550.87,50.4L555.7,48.14L560.54,48.14L565.37,48.85L570.2,50.4L579.87,48.85L584.7,50.4L589.53,50.4L594.36,48.85L599.19,50.4L604.03,48.85L608.86,50.4L613.69,47.3L637.85,51.17L642.68,48.85L652.35,52.66L657.18,50.4L662.01,48.14L666.85,50.4L671.68,49.62L676.51,49.62L681.34,47.36L686.17,48.85L695.84,48.85L700.67,48.07L705.5,46.59L710.34,48.14L715.17,47.36L720,48.14" style="vector-effect: none; fill: none; stroke: rgb(165, 42, 42); stroke-opacity: 1; stroke-width: 2px; opacity: 1;"/></g><g class="points"/><g class="text"/></g><g class="trace scatter trace728f57" style="stroke-miterlimit: 2; opacity: 1;"><g class="fills"/><g class="errorbars"/><g class="lines"><path class="js-line" d="M0,313.58L4.83,240.12L9.66,240.12L19.33,240.12L24.16,234.76L28.99,98.81L33.83,95.39L38.66,89.71L43.49,86.35L48.32,86.35L53.15,80.09L57.99,77.7L62.82,83.45L67.65,77.19L72.48,77.7L77.32,77.7L82.15,81.13L86.98,86.81L91.81,90.23L96.64,90.23L101.48,93.07L106.31,90.23L111.14,89.71L115.97,81.13L120.81,80.09L125.64,134.83L130.47,80.09L135.3,88.74L140.13,77.19L144.97,74.35L149.8,77.7L154.63,84.55L159.46,89.71L164.3,83L169.13,74.35L173.96,80.09L178.79,77.19L183.62,80.09L188.46,77.19L193.29,77.19L198.12,71.44L207.79,71.44L212.62,74.35L222.28,74.35L227.11,77.7L231.95,80.09L236.78,83.45L241.61,80.09L246.44,74.35L256.11,74.35L260.94,80.09L265.77,83L270.6,80.09L275.44,74.35L280.27,74.86L285.1,71.44L289.93,71.44L294.77,71.44L299.6,125.41L304.43,128.38L309.26,128.38L323.76,128.38L328.59,137.8L333.42,140.97L338.26,131.54L347.92,131.54L352.75,134.64L357.58,131.54L362.42,131.54L367.25,128.38L372.08,131.54L376.91,128.38L381.74,128.38L386.58,128.38L391.41,125.41L396.24,128.38L401.07,128.38L430.07,128.38L434.9,125.41L454.23,125.41L459.06,128.38L468.72,128.38L473.56,125.41L478.39,128.38L483.22,125.41L492.89,131.67L497.72,128.57L507.38,128.57L512.21,131.67L517.05,128.57L521.88,128.57L526.71,125.41L531.54,125.41L565.37,125.41L570.2,131.54L575.03,128.57L579.87,131.54L584.7,134.51L589.53,131.54L594.36,131.54L599.19,134.51L604.03,131.54L608.86,131.54L613.69,128.57L618.52,128.57L623.36,131.54L628.19,128.57L633.02,125.41L637.85,131.54L642.68,128.38L647.52,131.54L652.35,131.54L657.18,128.57L662.01,125.41L666.85,131.54L671.68,128.38L676.51,128.38L681.34,125.41L686.17,128.38L700.67,128.57L705.5,125.41L715.17,125.41L720,128.38" style="vector-effect: none; fill: none; stroke: rgb(128, 128, 128); stroke-opacity: 1; stroke-width: 2px; opacity: 1;"/></g><g class="points"/><g class="text"/></g></g></g><g class="overplot"/><path class="xlines-above crisp" d="M0,0" style="fill: none;"/><path class="ylines-above crisp" d="M0,0" style="fill: none;"/><g class="overlines-above"/><g class="xaxislayer-above"><g class="xtick"><text text-anchor="middle" x="0" y="509" transform="translate(241.81,0)" style="font-family: 'Open Sans', verdana, arial, sans-serif; font-size: 12px; fill: rgb(42, 63, 95); fill-opacity: 1; white-space: pre; opacity: 1;">20</text></g><g class="xtick"><text text-anchor="middle" x="0" y="509" style="font-family: 'Open Sans', verdana, arial, sans-serif; font-size: 12px; fill: rgb(42, 63, 95); fill-opacity: 1; white-space: pre; opacity: 1;" transform="translate(338.46000000000004,0)">40</text></g><g class="xtick"><text text-anchor="middle" x="0" y="509" style="font-family: 'Open Sans', verdana, arial, sans-serif; font-size: 12px; fill: rgb(42, 63, 95); fill-opacity: 1; white-space: pre; opacity: 1;" transform="translate(435.1,0)">60</text></g><g class="xtick"><text text-anchor="middle" x="0" y="509" style="font-family: 'Open Sans', verdana, arial, sans-serif; font-size: 12px; fill: rgb(42, 63, 95); fill-opacity: 1; white-space: pre; opacity: 1;" transform="translate(531.74,0)">80</text></g><g class="xtick"><text text-anchor="middle" x="0" y="509" style="font-family: 'Open Sans', verdana, arial, sans-serif; font-size: 12px; fill: rgb(42, 63, 95); fill-opacity: 1; white-space: pre; opacity: 1;" transform="translate(628.39,0)">100</text></g><g class="xtick"><text text-anchor="middle" x="0" y="509" style="font-family: 'Open Sans', verdana, arial, sans-serif; font-size: 12px; fill: rgb(42, 63, 95); fill-opacity: 1; white-space: pre; opacity: 1;" transform="translate(725.03,0)">120</text></g><g class="xtick"><text text-anchor="middle" x="0" y="509" style="font-family: 'Open Sans', verdana, arial, sans-serif; font-size: 12px; fill: rgb(42, 63, 95); fill-opacity: 1; white-space: pre; opacity: 1;" transform="translate(821.68,0)">140</text></g></g><g class="yaxislayer-above"><g class="ytick"><text text-anchor="end" x="149" y="4.199999999999999" transform="translate(0,469.94)" style="font-family: 'Open Sans', verdana, arial, sans-serif; font-size: 12px; fill: rgb(42, 63, 95); fill-opacity: 1; white-space: pre; opacity: 1;">30</text></g><g class="ytick"><text text-anchor="end" x="149" y="4.199999999999999" style="font-family: 'Open Sans', verdana, arial, sans-serif; font-size: 12px; fill: rgb(42, 63, 95); fill-opacity: 1; white-space: pre; opacity: 1;" transform="translate(0,405.38)">40</text></g><g class="ytick"><text text-anchor="end" x="149" y="4.199999999999999" style="font-family: 'Open Sans', verdana, arial, sans-serif; font-size: 12px; fill: rgb(42, 63, 95); fill-opacity: 1; white-space: pre; opacity: 1;" transform="translate(0,340.83000000000004)">50</text></g><g class="ytick"><text text-anchor="end" x="149" y="4.199999999999999" style="font-family: 'Open Sans', verdana, arial, sans-serif; font-size: 12px; fill: rgb(42, 63, 95); fill-opacity: 1; white-space: pre; opacity: 1;" transform="translate(0,276.28)">60</text></g><g class="ytick"><text text-anchor="end" x="149" y="4.199999999999999" style="font-family: 'Open Sans', verdana, arial, sans-serif; font-size: 12px; fill: rgb(42, 63, 95); fill-opacity: 1; white-space: pre; opacity: 1;" transform="translate(0,211.72)">70</text></g><g class="ytick"><text text-anchor="end" x="149" y="4.199999999999999" style="font-family: 'Open Sans', verdana, arial, sans-serif; font-size: 12px; fill: rgb(42, 63, 95); fill-opacity: 1; white-space: pre; opacity: 1;" transform="translate(0,147.17000000000002)">80</text></g></g><g class="overaxes-above"/></g></g><g class="polarlayer"/><g class="smithlayer"/><g class="ternarylayer"/><g class="geolayer"/><g class="funnelarealayer"/><g class="pielayer"/><g class="iciclelayer"/><g class="treemaplayer"/><g class="sunburstlayer"/><g class="glimages"/><defs id="topdefs-1d5b26"><g class="clips"/><clipPath id="legend1d5b26"><rect width="128" height="162" x="0" y="0"/></clipPath></defs><g class="layer-above"><g class="imagelayer"/><g class="shapelayer"/></g><g class="infolayer"><g class="legend" pointer-events="all" transform="translate(884.4,100)"><rect class="bg" shape-rendering="crispEdges" width="128" height="162" x="0" y="0" style="stroke: rgb(68, 68, 68); stroke-opacity: 1; fill: rgb(255, 255, 255); fill-opacity: 1; stroke-width: 0px;"/><g class="scrollbox" transform="" clip-path="url(#legend1d5b26)"><g class="groups"><g class="traces" transform="translate(0,14.5)" style="opacity: 1;"><text class="legendtext" text-anchor="start" x="40" y="4.680000000000001" style="font-family: 'Open Sans', verdana, arial, sans-serif; font-size: 12px; fill: rgb(42, 63, 95); fill-opacity: 1; white-space: pre;">Train Accuracy</text><g class="layers" style="opacity: 1;"><g class="legendfill"/><g class="legendlines"><path class="js-line" d="M5,0h30" style="fill: none; stroke: rgb(255, 0, 0); stroke-opacity: 1; stroke-width: 2px;"/></g><g class="legendsymbols"><g class="legendpoints"/></g></g><rect class="legendtoggle" x="0" y="-9.5" width="122.71875" height="19" style="fill: rgb(0, 0, 0); fill-opacity: 0;"/></g><g class="traces" transform="translate(0,33.5)" style="opacity: 1;"><text class="legendtext" text-anchor="start" x="40" y="4.680000000000001" style="font-family: 'Open Sans', verdana, arial, sans-serif; font-size: 12px; fill: rgb(42, 63, 95); fill-opacity: 1; white-space: pre;">Test Accuracy</text><g class="layers" style="opacity: 1;"><g class="legendfill"/><g class="legendlines"><path class="js-line" d="M5,0h30" style="fill: none; stroke: rgb(0, 0, 255); stroke-opacity: 1; stroke-width: 2px;"/></g><g class="legendsymbols"><g class="legendpoints"/></g></g><rect class="legendtoggle" x="0" y="-9.5" width="122.71875" height="19" style="fill: rgb(0, 0, 0); fill-opacity: 0;"/></g><g class="traces" transform="translate(0,52.5)" style="opacity: 1;"><text class="legendtext" text-anchor="start" x="40" y="4.680000000000001" style="font-family: 'Open Sans', verdana, arial, sans-serif; font-size: 12px; fill: rgb(42, 63, 95); fill-opacity: 1; white-space: pre;">Train Precision</text><g class="layers" style="opacity: 1;"><g class="legendfill"/><g class="legendlines"><path class="js-line" d="M5,0h30" style="fill: none; stroke: rgb(0, 128, 0); stroke-opacity: 1; stroke-width: 2px;"/></g><g class="legendsymbols"><g class="legendpoints"/></g></g><rect class="legendtoggle" x="0" y="-9.5" width="122.71875" height="19" style="fill: rgb(0, 0, 0); fill-opacity: 0;"/></g><g class="traces" transform="translate(0,71.5)" style="opacity: 1;"><text class="legendtext" text-anchor="start" x="40" y="4.680000000000001" style="font-family: 'Open Sans', verdana, arial, sans-serif; font-size: 12px; fill: rgb(42, 63, 95); fill-opacity: 1; white-space: pre;">Test Precision</text><g class="layers" style="opacity: 1;"><g class="legendfill"/><g class="legendlines"><path class="js-line" d="M5,0h30" style="fill: none; stroke: rgb(255, 165, 0); stroke-opacity: 1; stroke-width: 2px;"/></g><g class="legendsymbols"><g class="legendpoints"/></g></g><rect class="legendtoggle" x="0" y="-9.5" width="122.71875" height="19" style="fill: rgb(0, 0, 0); fill-opacity: 0;"/></g><g class="traces" transform="translate(0,90.5)" style="opacity: 1;"><text class="legendtext" text-anchor="start" x="40" y="4.680000000000001" style="font-family: 'Open Sans', verdana, arial, sans-serif; font-size: 12px; fill: rgb(42, 63, 95); fill-opacity: 1; white-space: pre;">Train Recall</text><g class="layers" style="opacity: 1;"><g class="legendfill"/><g class="legendlines"><path class="js-line" d="M5,0h30" style="fill: none; stroke: rgb(128, 0, 128); stroke-opacity: 1; stroke-width: 2px;"/></g><g class="legendsymbols"><g class="legendpoints"/></g></g><rect class="legendtoggle" x="0" y="-9.5" width="122.71875" height="19" style="fill: rgb(0, 0, 0); fill-opacity: 0;"/></g><g class="traces" transform="translate(0,109.5)" style="opacity: 1;"><text class="legendtext" text-anchor="start" x="40" y="4.680000000000001" style="font-family: 'Open Sans', verdana, arial, sans-serif; font-size: 12px; fill: rgb(42, 63, 95); fill-opacity: 1; white-space: pre;">Test Recall</text><g class="layers" style="opacity: 1;"><g class="legendfill"/><g class="legendlines"><path class="js-line" d="M5,0h30" style="fill: none; stroke: rgb(255, 192, 203); stroke-opacity: 1; stroke-width: 2px;"/></g><g class="legendsymbols"><g class="legendpoints"/></g></g><rect class="legendtoggle" x="0" y="-9.5" width="122.71875" height="19" style="fill: rgb(0, 0, 0); fill-opacity: 0;"/></g><g class="traces" transform="translate(0,128.5)" style="opacity: 1;"><text class="legendtext" text-anchor="start" x="40" y="4.680000000000001" style="font-family: 'Open Sans', verdana, arial, sans-serif; font-size: 12px; fill: rgb(42, 63, 95); fill-opacity: 1; white-space: pre;">Train F1</text><g class="layers" style="opacity: 1;"><g class="legendfill"/><g class="legendlines"><path class="js-line" d="M5,0h30" style="fill: none; stroke: rgb(165, 42, 42); stroke-opacity: 1; stroke-width: 2px;"/></g><g class="legendsymbols"><g class="legendpoints"/></g></g><rect class="legendtoggle" x="0" y="-9.5" width="122.71875" height="19" style="fill: rgb(0, 0, 0); fill-opacity: 0;"/></g><g class="traces" transform="translate(0,147.5)" style="opacity: 1;"><text class="legendtext" text-anchor="start" x="40" y="4.680000000000001" style="font-family: 'Open Sans', verdana, arial, sans-serif; font-size: 12px; fill: rgb(42, 63, 95); fill-opacity: 1; white-space: pre;">Test F1</text><g class="layers" style="opacity: 1;"><g class="legendfill"/><g class="legendlines"><path class="js-line" d="M5,0h30" style="fill: none; stroke: rgb(128, 128, 128); stroke-opacity: 1; stroke-width: 2px;"/></g><g class="legendsymbols"><g class="legendpoints"/></g></g><rect class="legendtoggle" x="0" y="-9.5" width="122.71875" height="19" style="fill: rgb(0, 0, 0); fill-opacity: 0;"/></g></g></g><rect class="scrollbar" rx="20" ry="3" width="0" height="0" x="0" y="0" style="fill: rgb(128, 139, 164); fill-opacity: 1;"/></g><g class="g-gtitle"><text class="gtitle" x="51.2" y="50" text-anchor="start" dy="0em" style="font-family: 'Open Sans', verdana, arial, sans-serif; font-size: 17px; fill: rgb(42, 63, 95); opacity: 1; font-weight: normal; white-space: pre;">Training Metrics - logs/FakeNewsNet-politifact_max-vocab=15000_pre=v1_domain_T=50_s=15.log</text></g><g class="g-xtitle"><text class="xtitle" x="510" y="537.3" text-anchor="middle" style="font-family: 'Open Sans', verdana, arial, sans-serif; font-size: 14px; fill: rgb(42, 63, 95); opacity: 1; font-weight: normal; white-space: pre;">Epoch</text></g><g class="g-ytitle"><text class="ytitle" transform="rotate(-90,110.965625,298)" x="110.965625" y="298" text-anchor="middle" style="font-family: 'Open Sans', verdana, arial, sans-serif; font-size: 14px; fill: rgb(42, 63, 95); opacity: 1; font-weight: normal; white-space: pre;">Metric Score</text></g></g><g class="menulayer"><g class="updatemenu-container" style="cursor: pointer;"><g class="updatemenu-header-group" transform="translate(12,60)"><g class="updatemenu-header" transform="translate(1,1)" style="pointer-events: all;"><rect class="updatemenu-item-rect" rx="2" ry="2" shape-rendering="crispEdges" x="0" y="0" width="174" height="33" style="stroke: rgb(190, 200, 217); stroke-opacity: 1; fill: rgb(255, 255, 255); fill-opacity: 1; stroke-width: 1px;"/><text class="updatemenu-item-text" text-anchor="start" data-notex="1" x="12" y="19.5" style="font-family: 'Open Sans', verdana, arial, sans-serif; font-size: 12px; fill: rgb(42, 63, 95); fill-opacity: 1; white-space: pre;">All</text></g><text class="updatemenu-header-arrow" text-anchor="end" x="170" y="19.5" style="font-family: 'Open Sans', verdana, arial, sans-serif; font-size: 12px; fill: rgb(42, 63, 95); fill-opacity: 1;">▼</text></g><g class="updatemenu-dropdown-button-group" updatemenu-active-index="-1" style="pointer-events: all;"><rect class="scrollbox-bg" opacity="0" x="0" y="0" width="0" height="0" style="pointer-events: all;"/></g></g></g></svg>