<svg class="main-svg" xmlns="http://www.w3.org/2000/svg" xmlns:xlink="http://www.w3.org/1999/xlink" width="1024" height="576" style="" viewBox="0 0 1024 576"><rect x="0" y="0" width="1024" height="576" style="fill: rgb(255, 255, 255); fill-opacity: 1;"/><defs id="defs-f54b00"><g class="clips"><clipPath id="clipf54b00xyplot" class="plotclip"><rect width="726" height="396"/></clipPath><clipPath class="axesclip" id="clipf54b00x"><rect x="143" y="0" width="726" height="576"/></clipPath><clipPath class="axesclip" id="clipf54b00y"><rect x="0" y="100" width="1024" height="396"/></clipPath><clipPath class="axesclip" id="clipf54b00xy"><rect x="143" y="100" width="726" height="396"/></clipPath></g><g class="gradients"/><g class="patterns"/></defs><g class="bglayer"><rect class="bg" x="143" y="100" width="726" height="396" style="fill: rgb(229, 236, 246); fill-opacity: 1; stroke-width: 0;"/></g><g class="layer-below"><g class="imagelayer"/><g class="shapelayer"/></g><g class="cartesianlayer"><g class="subplot xy"><g class="layer-subplot"><g class="shapelayer"/><g class="imagelayer"/></g><g class="minor-gridlayer"><g class="x"/><g class="y"/></g><g class="gridlayer"><g class="x"><path class="xgrid crisp" transform="translate(235.57999999999998,0)" d="M0,100v396" style="stroke: rgb(255, 255, 255); stroke-opacity: 1; stroke-width: 1px;"/><path class="xgrid crisp" transform="translate(333.03,0)" d="M0,100v396" style="stroke: rgb(255, 255, 255); stroke-opacity: 1; stroke-width: 1px;"/><path class="xgrid crisp" transform="translate(430.48,0)" d="M0,100v396" style="stroke: rgb(255, 255, 255); stroke-opacity: 1; stroke-width: 1px;"/><path class="xgrid crisp" transform="translate(527.9300000000001,0)" d="M0,100v396" style="stroke: rgb(255, 255, 255); stroke-opacity: 1; stroke-width: 1px;"/><path class="xgrid crisp" transform="translate(625.38,0)" d="M0,100v396" style="stroke: rgb(255, 255, 255); stroke-opacity: 1; stroke-width: 1px;"/><path class="xgrid crisp" transform="translate(722.83,0)" d="M0,100v396" style="stroke: rgb(255, 255, 255); stroke-opacity: 1; stroke-width: 1px;"/><path class="xgrid crisp" transform="translate(820.28,0)" d="M0,100v396" style="stroke: rgb(255, 255, 255); stroke-opacity: 1; stroke-width: 1px;"/></g><g class="y"><path class="ygrid crisp" transform="translate(0,484.88)" d="M143,0h726" style="stroke: rgb(255, 255, 255); stroke-opacity: 1; stroke-width: 1px;"/><path class="ygrid crisp" transform="translate(0,443.95)" d="M143,0h726" style="stroke: rgb(255, 255, 255); stroke-opacity: 1; stroke-width: 1px;"/><path class="ygrid crisp" transform="translate(0,403.02)" d="M143,0h726" style="stroke: rgb(255, 255, 255); stroke-opacity: 1; stroke-width: 1px;"/><path class="ygrid crisp" transform="translate(0,362.09)" d="M143,0h726" style="stroke: rgb(255, 255, 255); stroke-opacity: 1; stroke-width: 1px;"/><path class="ygrid crisp" transform="translate(0,321.16999999999996)" d="M143,0h726" style="stroke: rgb(255, 255, 255); stroke-opacity: 1; stroke-width: 1px;"/><path class="ygrid crisp" transform="translate(0,280.24)" d="M143,0h726" style="stroke: rgb(255, 255, 255); stroke-opacity: 1; stroke-width: 1px;"/><path class="ygrid crisp" transform="translate(0,239.31)" d="M143,0h726" style="stroke: rgb(255, 255, 255); stroke-opacity: 1; stroke-width: 1px;"/><path class="ygrid crisp" transform="translate(0,198.38)" d="M143,0h726" style="stroke: rgb(255, 255, 255); stroke-opacity: 1; stroke-width: 1px;"/><path class="ygrid crisp" transform="translate(0,157.45)" d="M143,0h726" style="stroke: rgb(255, 255, 255); stroke-opacity: 1; stroke-width: 1px;"/><path class="ygrid crisp" transform="translate(0,116.53)" d="M143,0h726" style="stroke: rgb(255, 255, 255); stroke-opacity: 1; stroke-width: 1px;"/></g></g><g class="zerolinelayer"/><path class="xlines-below"/><path class="ylines-below"/><g class="overlines-below"/><g class="xaxislayer-below"/><g class="yaxislayer-below"/><g class="overaxes-below"/><g class="plot" transform="translate(143,100)" clip-path="url(#clipf54b00xyplot)"><g class="scatterlayer mlayer"><g class="trace scatter trace0d0c81" style="stroke-miterlimit: 2; opacity: 1;"><g class="fills"/><g class="errorbars"/><g class="lines"><path class="js-line" d="M0,231.48L4.87,145.12L9.74,299.34L14.62,88.89L19.49,111.15L24.36,129.65L29.23,114.1L34.11,89.87L38.98,80.13L43.85,221.74L48.72,197.51L53.6,177.13L58.47,81.11L63.34,173.28L68.21,116.96L73.09,117.95L77.96,122.86L82.83,107.3L87.7,67.52L92.58,64.66L97.45,73.33L102.32,48.12L107.19,73.33L112.07,63.67L116.94,49.1L121.81,48.12L126.68,57.86L131.56,55.9L136.43,68.5L141.3,81.11L146.17,54.92L151.05,49.1L155.92,117.95L160.79,53.93L165.66,51.07L170.54,60.73L175.41,64.66L180.28,58.85L185.15,58.85L190.03,53.93L194.9,44.27L199.77,44.27L204.64,36.5L209.52,34.53L214.39,38.46L219.26,44.27L224.13,43.29L229.01,35.52L233.88,36.5L238.75,41.33L243.62,40.35L248.5,41.33L253.37,55.9L258.24,47.14L263.11,42.31L267.99,45.26L272.86,49.1L277.73,39.45L282.6,34.53L287.48,35.52L292.35,42.31L297.22,37.48L302.09,37.48L306.97,44.27L311.84,43.29L316.71,47.14L321.58,41.33L326.46,40.35L331.33,79.15L336.2,77.26L341.07,69.49L345.95,66.54L350.82,28.72L355.69,32.65L360.56,35.52L365.44,27.74L370.31,31.67L380.05,29.7L384.93,41.33L389.8,34.53L394.67,37.48L399.54,35.52L404.42,25.86L409.29,28.72L414.16,30.69L419.03,31.67L423.91,42.31L428.78,38.46L433.65,30.69L438.52,30.69L443.4,28.72L448.27,23.89L453.14,29.7L458.01,30.69L462.89,29.7L467.76,35.52L472.63,33.63L482.38,37.48L487.25,35.52L492.12,135.46L496.99,79.15L501.87,84.96L506.74,66.54L511.61,68.5L516.48,64.66L521.36,33.63L526.23,30.69L531.1,30.69L535.97,39.45L540.85,28.72L545.72,38.46L550.59,40.35L555.46,23.89L560.34,24.88L565.21,34.53L570.08,34.53L574.95,33.63L579.83,37.48L584.7,33.63L589.57,43.29L594.44,39.45L604.19,33.63L609.06,37.48L613.93,29.7L618.81,27.74L623.68,29.7L628.55,38.46L633.42,41.33L638.3,43.29L643.17,26.84L648.04,31.67L652.91,31.67L657.79,30.69L662.66,32.65L667.53,25.86L672.4,37.48L677.28,33.63L682.15,29.7L687.02,29.7L691.89,25.86L696.77,24.88L701.64,21.93L706.51,21.93L711.38,24.88L716.26,53.93L721.13,53.93L726,45.26" style="vector-effect: none; fill: none; stroke: rgb(255, 0, 0); stroke-opacity: 1; stroke-width: 2px; opacity: 1;"/></g><g class="points"/><g class="text"/></g><g class="trace scatter trace3f1c54" style="stroke-miterlimit: 2; opacity: 1;"><g class="fills"/><g class="errorbars"/><g class="lines"><path class="js-line" d="M0,270.61L4.87,166.32L9.74,351.64L14.62,139.31L19.49,127.69L24.36,158.63L29.23,131.61L34.11,112.3L38.98,147L43.85,297.62L48.72,266.76L53.6,235.82L58.47,108.45L63.34,247.44L68.21,201.11L73.09,208.8L77.96,212.65L82.83,201.11L87.7,92.98L92.58,100.67L97.45,119.99L102.32,116.14L107.19,166.32L112.07,150.93L116.94,89.13L121.81,112.3L126.68,116.14L131.56,92.98L136.43,158.63L141.3,177.95L146.17,92.98L151.05,108.45L155.92,220.43L160.79,104.52L165.66,108.45L170.54,104.52L175.41,108.45L180.28,104.52L185.15,116.14L190.03,112.3L194.9,104.52L199.77,104.52L204.64,92.98L214.39,85.28L219.26,96.83L224.13,92.98L229.01,108.45L238.75,116.14L243.62,104.52L248.5,104.52L253.37,108.45L258.24,116.14L263.11,108.45L267.99,112.3L272.86,108.45L287.48,108.45L292.35,100.67L297.22,108.45L302.09,100.67L306.97,104.52L311.84,104.52L321.58,96.83L326.46,85.28L331.33,185.64L336.2,177.95L341.07,150.93L345.95,143.16L350.82,100.67L355.69,100.67L360.56,104.52L365.44,104.52L370.31,108.45L375.18,96.83L380.05,100.67L384.93,119.99L389.8,127.69L394.67,123.84L404.42,108.45L409.29,96.83L414.16,92.98L419.03,100.67L423.91,89.13L428.78,85.28L433.65,96.83L438.52,85.28L443.4,85.28L448.27,96.83L453.14,100.67L458.01,100.67L462.89,100.67L467.76,108.45L472.63,100.67L477.5,108.45L482.38,96.83L487.25,100.67L492.12,243.59L496.99,166.32L501.87,162.47L506.74,154.78L511.61,158.63L516.48,158.63L521.36,92.98L526.23,92.98L531.1,104.52L535.97,108.45L545.72,108.45L550.59,116.14L555.46,108.45L560.34,112.3L565.21,96.83L570.08,100.67L574.95,92.98L579.83,89.13L584.7,92.98L589.57,108.45L594.44,116.14L599.32,116.14L604.19,112.3L609.06,116.14L618.81,92.98L623.68,92.98L628.55,100.67L633.42,96.83L648.04,96.83L652.91,89.13L657.79,100.67L662.66,104.52L667.53,108.45L672.4,96.83L677.28,92.98L682.15,112.3L691.89,104.52L696.77,104.52L701.64,96.83L706.51,100.67L711.38,100.67L716.26,139.31L721.13,150.93L726,143.16" style="vector-effect: none; fill: none; stroke: rgb(0, 0, 255); stroke-opacity: 1; stroke-width: 2px; opacity: 1;"/></g><g class="points"/><g class="text"/></g><g class="trace scatter traceabfde1" style="stroke-miterlimit: 2; opacity: 1;"><g class="fills"/><g class="errorbars"/><g class="lines"><path class="js-line" d="M0,198L4.87,150.77L9.74,162.07L14.62,81.03L19.49,88.23L24.36,107.39L29.23,100.92L34.11,89.46L38.98,83.07L43.85,132.6L48.72,126.87L53.6,123.76L58.47,85.28L63.34,131.86L68.21,105.83L77.96,105.99L82.83,95.43L87.7,61.87L92.58,61.87L97.45,69.24L102.32,51.23L107.19,67.52L112.07,60.15L116.94,51.72L121.81,49.92L126.68,57.7L131.56,56.8L136.43,63.35L141.3,74.32L146.17,57.7L151.05,50L155.92,93.72L160.79,57.78L165.66,54.75L170.54,64.25L175.41,68.26L180.28,62.36L185.15,62.69L190.03,57.7L194.9,47.96L199.77,47.96L204.64,40.02L209.52,37.89L214.39,41.16L219.26,47.22L224.13,46.98L229.01,38.71L233.88,39.36L238.75,44.27L243.62,43.05L248.5,44.11L253.37,59.58L258.24,50.82L263.11,45.99L267.99,48.7L272.86,52.71L277.73,42.06L282.6,37.89L287.48,38.95L292.35,44.77L297.22,40.76L302.09,40.76L306.97,47.79L311.84,46.98L316.71,50.82L321.58,44.93L326.46,43.78L331.33,73.33L336.2,70.96L341.07,65.48L345.95,63.67L350.82,32.24L355.69,36.17L360.56,38.79L365.44,31.26L370.31,35.03L375.18,33.96L380.05,33.14L384.93,44.77L389.8,37.89L394.67,40.59L399.54,38.71L404.42,29.3L414.16,34.04L419.03,35.11L423.91,44.77L428.78,40.76L433.65,34.21L438.52,34.04L443.4,32.08L448.27,27.17L453.14,33.14L458.01,34.12L462.89,33.14L467.76,39.04L472.63,37.07L477.5,39.04L482.38,40.92L487.25,38.87L492.12,96.17L496.99,69L501.87,73.09L506.74,61.87L511.61,62.86L516.48,61.3L521.36,37.15L526.23,34.21L531.1,33.72L535.97,42.23L540.85,31.67L545.72,41L550.59,43.37L555.46,27.33L560.34,28.23L565.21,37.15L570.08,37.48L574.95,36.5L579.83,40.18L584.7,36.66L589.57,45.5L594.44,42.97L599.32,39.04L604.19,36.33L609.06,39.53L613.93,32.82L618.81,30.77L623.68,32.73L628.55,41.57L633.42,43.29L638.3,46.32L643.17,30.03L648.04,34.7L652.91,34.78L657.79,33.88L662.66,35.11L667.53,28.72L672.4,40.59L682.15,32.57L687.02,32.57L691.89,28.72L696.77,27.9L701.64,25.37L706.51,25.37L711.38,28.31L716.26,53.77L721.13,54.1L726,47.3" style="vector-effect: none; fill: none; stroke: rgb(0, 128, 0); stroke-opacity: 1; stroke-width: 2px; opacity: 1;"/></g><g class="points"/><g class="text"/></g><g class="trace scatter trace3b457d" style="stroke-miterlimit: 2; opacity: 1;"><g class="fills"/><g class="errorbars"/><g class="lines"><path class="js-line" d="M0,213.06L4.87,181.79L9.74,187.28L19.49,106.4L24.36,155.03L29.23,126.95L34.11,121.38L43.85,193.42L48.72,191.04L53.6,184.82L58.47,121.38L63.34,195.54L68.21,182.53L73.09,187.44L77.96,189.9L82.83,182.53L87.7,91.26L92.58,105.26L97.45,127.6L102.32,129L107.19,161.98L112.07,148.8L116.94,98.55L121.81,120.48L126.68,122.28L131.56,102.31L136.43,151.92L141.3,164.77L146.17,104.11L151.05,117.21L155.92,184.25L160.79,117.45L165.66,120.65L170.54,116.96L175.41,121.55L180.28,117.29L185.15,129.49L190.03,125.56L194.9,117.45L199.77,117.29L204.64,104.6L214.39,94.78L219.26,108.61L224.13,105.18L229.01,120.65L233.88,122.69L238.75,127.93L243.62,116.88L248.5,114.83L253.37,120.97L258.24,129.49L263.11,121.55L267.99,124.9L272.86,120.97L277.73,120.65L287.48,121.06L292.35,112.54L297.22,121.3L302.09,113.36L306.97,117.45L311.84,117.45L321.58,109.19L326.46,96.99L331.33,175.24L336.2,170.01L341.07,150.93L345.95,145.12L350.82,113.28L355.69,112.62L360.56,116.88L365.44,116.88L370.31,120.65L375.18,108.37L380.05,112.62L384.93,129.49L389.8,138.41L394.67,135.87L404.42,120.65L409.29,109.27L414.16,105.01L419.03,113.28L423.91,97.4L428.78,92.32L433.65,109.27L438.52,96.34L443.4,96.34L448.27,109.27L453.14,112.62L458.01,113.03L462.89,113.03L467.76,121.55L472.63,113.28L477.5,121.06L482.38,108.86L487.25,111.31L492.12,197.59L496.99,159.61L501.87,156.99L506.74,155.76L511.61,158.63L516.48,158.63L521.36,104.68L526.23,104.68L531.1,115.65L535.97,119.99L540.85,120.65L545.72,119.25L550.59,129.16L555.46,121.38L560.34,125.31L565.21,107.96L570.08,112.54L574.95,103.29L579.83,99.45L584.7,104.6L589.57,120.4L594.44,129.73L599.32,127.93L604.19,123.59L609.06,127.93L613.93,116.88L618.81,105.01L623.68,105.01L628.55,112.54L633.42,107.14L648.04,109.27L652.91,101.16L657.79,113.28L662.66,116.88L667.53,121.06L672.4,107.96L677.28,103.29L682.15,124.9L691.89,116.88L696.77,117.21L701.64,109.02L706.51,112.95L711.38,112.95L716.26,147.09L721.13,159.45L726,154.13" style="vector-effect: none; fill: none; stroke: rgb(255, 165, 0); stroke-opacity: 1; stroke-width: 2px; opacity: 1;"/></g><g class="points"/><g class="text"/></g><g class="trace scatter trace1c6da0" style="stroke-miterlimit: 2; opacity: 1;"><g class="fills"/><g class="errorbars"/><g class="lines"><path class="js-line" d="M0,207.9L4.87,151.51L9.74,250.31L14.62,105.01L19.49,135.79L24.36,156.17L29.23,135.38L34.11,101.08L38.98,76.94L43.85,183.84L48.72,163.95L53.6,147.99L58.47,81.68L63.34,147.49L68.21,102.97L73.09,103.46L77.96,105.99L87.7,80.54L92.58,75.46L97.45,85.86L102.32,50.99L107.19,61.46L112.07,53.12L116.94,53.12L121.81,42.31L126.68,50.09L131.56,62.86L136.43,56.96L141.3,68.83L146.17,59.09L151.05,42.23L155.92,97.97L160.79,54.42L165.66,50.33L170.54,63.76L175.41,67.44L180.28,61.46L185.15,58.6L190.03,54.75L194.9,43.46L199.77,43.78L204.64,36.83L209.52,35.43L219.26,47.06L224.13,43.29L229.01,32.16L233.88,32.32L238.75,37.48L243.62,36.01L248.5,37.15L253.37,57.7L258.24,45.67L263.11,41.49L267.99,43.05L272.86,50.25L277.73,34.86L282.6,31.91L287.48,33.06L292.35,45.99L297.22,38.95L302.09,38.95L306.97,45.42L311.84,43.29L316.71,45.99L321.58,41.98L326.46,41.41L331.33,67.44L336.2,65.15L341.07,58.76L345.95,56.64L350.82,27.25L355.69,31.26L360.56,32.49L365.44,26.1L370.31,29.13L375.18,27.66L380.05,27.74L384.93,38.71L389.8,31.59L394.67,34.12L399.54,32.16L404.42,23.81L409.29,28.89L414.16,30.85L419.03,29.46L423.91,45.99L428.78,41.98L433.65,30.2L438.52,30.85L443.4,29.13L448.27,24.06L453.14,27.41L458.01,28.56L462.89,27.74L467.76,33.39L472.63,31.75L477.5,33.72L482.38,35.43L487.25,32.73L492.12,110.5L496.99,64.9L501.87,69.9L506.74,55.33L511.61,56.64L516.48,54.26L521.36,32.08L526.23,29.21L531.1,27L535.97,35.11L540.85,24.71L545.72,33.63L550.59,36.66L555.46,22.42L560.34,22.58L565.21,37.4L574.95,35.6L579.83,40.18L584.7,35.27L589.57,47.47L599.32,31.67L604.19,29.21L609.06,31.83L613.93,26.18L618.81,23.81L623.68,25.86L628.55,40.43L633.42,45.83L638.3,45.83L643.17,23.65L648.04,27.82L652.91,28.15L657.79,27.33L662.66,27.66L667.53,21.52L672.4,39.28L677.28,36.25L682.15,25.53L687.02,25.53L691.89,21.52L701.64,19.8L706.51,20.45L711.38,23.57L716.26,46.08L721.13,46.4L726,39.85" style="vector-effect: none; fill: none; stroke: rgb(128, 0, 128); stroke-opacity: 1; stroke-width: 2px; opacity: 1;"/></g><g class="points"/><g class="text"/></g><g class="trace scatter traceaca4f6" style="stroke-miterlimit: 2; opacity: 1;"><g class="fills"/><g class="errorbars"/><g class="lines"><path class="js-line" d="M0,222.31L4.87,177.13L9.74,266.76L14.62,179.91L19.49,181.71L24.36,214.86L29.23,178.19L34.11,138.74L38.98,146.51L43.85,230.58L48.72,210.52L53.6,190.47L58.47,115.98L63.34,201.77L68.21,173.93L73.09,180.07L77.96,183.1L82.83,173.93L87.7,125.72L92.58,129.57L97.45,151.42L102.32,135.22L107.19,148.64L112.07,134.23L116.94,107.3L121.81,105.83L126.68,106.73L131.56,112.54L136.43,138.16L141.3,153.39L146.17,108.12L151.05,102.8L155.92,182.61L160.79,112.95L165.66,111.56L170.54,119.5L175.41,120.32L180.28,117.29L185.15,124.25L190.03,121.22L194.9,112.95L199.77,117.29L204.64,105.91L209.52,105.09L214.39,102.07L219.26,111.23L224.13,101.57L229.01,111.56L233.88,110.25L238.75,117.7L243.62,108.53L248.5,101.98L253.37,124.74L258.24,124.25L263.11,118.19L267.99,116.8L272.86,124.74L277.73,111.56L282.6,111.56L292.35,116.47L297.22,122.53L302.09,109.84L306.97,112.95L311.84,112.95L316.71,107.63L321.58,102.39L326.46,93.22L331.33,163.87L336.2,157.81L341.07,136.44L345.95,130.31L350.82,107.63L355.69,103.29L360.56,108.53L365.44,108.53L370.31,111.56L375.18,98.05L380.05,103.29L384.93,116.39L389.8,126.87L394.67,125.97L399.54,119.91L404.42,111.56L409.29,106.81L414.16,103.78L419.03,107.63L423.91,109.43L428.78,106.4L433.65,106.81L438.52,97.64L443.4,97.64L448.27,106.81L453.14,103.29L458.01,105.5L462.89,105.5L467.76,118.19L472.63,107.63L477.5,113.77L482.38,100.26L487.25,98.87L492.12,200.95L496.99,146.43L501.87,143.4L506.74,141.68L511.61,144.71L516.48,144.71L521.36,94.94L526.23,94.94L531.1,104.11L535.97,109.43L540.85,111.56L545.72,107.22L550.59,122.12L555.46,115.98L560.34,119.01L565.21,113.36L570.08,116.47L579.83,105.09L584.7,105.91L589.57,126.95L594.44,126.46L599.32,117.7L604.19,112.46L609.06,117.7L613.93,108.53L618.81,97.15L623.68,97.15L628.55,116.47L633.42,115.57L638.3,113.36L643.17,102.39L648.04,104.6L652.91,96.34L657.79,107.63L662.66,108.53L667.53,113.77L672.4,113.36L677.28,110.33L682.15,116.8L687.02,113.77L691.89,108.53L696.77,110.74L701.64,109.02L706.51,114.26L711.38,114.26L716.26,133.83L721.13,147.41L726,143.48" style="vector-effect: none; fill: none; stroke: rgb(255, 192, 203); stroke-opacity: 1; stroke-width: 2px; opacity: 1;"/></g><g class="points"/><g class="text"/></g><g class="trace scatter tracefecb93" style="stroke-miterlimit: 2; opacity: 1;"><g class="fills"/><g class="errorbars"/><g class="lines"><path class="js-line" d="M0,232.95L4.87,151.18L9.74,328.56L14.62,99.12L19.49,129.65L24.36,151.67L29.23,129.73L34.11,97.24L38.98,81.93L43.85,230.82L48.72,202.67L53.6,179.66L58.47,83.89L63.34,174.67L68.21,117.13L73.09,118.03L77.96,122.86L82.83,107.39L87.7,75.05L92.58,70.96L97.45,80.86L102.32,51.15L107.19,73.66L112.07,64.08L116.94,52.46L121.81,49.19L126.68,58.6L131.56,60.4L136.43,68.83L141.3,81.36L146.17,58.44L151.05,50L155.92,118.03L160.79,56.39L165.66,53.12L170.54,64L175.41,67.85L180.28,61.96L185.15,61.14L190.03,56.47L194.9,46.24L199.77,46.32L204.64,38.63L209.52,36.83L214.39,41.25L219.26,47.14L224.13,45.42L229.01,36.91L233.88,37.73L238.75,42.72L243.62,41.66L248.5,42.64L253.37,58.68L258.24,49.02L263.11,44.27L267.99,46.98L272.86,51.64L277.73,40.59L282.6,36.09L287.48,37.07L292.35,45.42L297.22,39.85L302.09,39.85L306.97,46.73L311.84,45.42L316.71,49.1L321.58,43.62L326.46,42.72L331.33,79.47L336.2,77.51L341.07,69.9L345.95,67.11L350.82,30.44L355.69,34.37L360.56,36.99L365.44,29.38L370.31,33.14L380.05,31.26L384.93,42.97L389.8,36.01L394.67,38.87L399.54,36.91L404.42,27.33L409.29,30.69L414.16,32.73L419.03,33.22L423.91,45.42L428.78,41.41L433.65,32.57L438.52,32.73L443.4,30.77L448.27,25.78L453.14,31.26L458.01,32.24L462.89,31.26L467.76,37.15L472.63,35.27L482.38,39.12L487.25,36.99L492.12,136.2L496.99,79.31L501.87,85.04L506.74,66.95L511.61,68.83L516.48,65.07L521.36,35.27L526.23,32.41L531.1,32L535.97,40.67L540.85,29.95L545.72,39.61L550.59,41.74L555.46,25.53L560.34,26.35L565.21,37.24L570.08,37.07L574.95,36.09L579.83,40.18L584.7,36.01L589.57,46.57L594.44,41.49L599.32,37.64L604.19,34.78L609.06,38.46L613.93,31.01L618.81,28.97L623.68,30.93L628.55,41L633.42,44.68L638.3,46.08L643.17,28.15L648.04,32.9L652.91,32.98L657.79,32L662.66,33.72L667.53,27L672.4,39.94L677.28,36.25L682.15,30.93L687.02,30.93L691.89,27L696.77,26.1L701.64,23.4L706.51,23.48L711.38,26.51L716.26,54.75L721.13,54.75L726,46.32" style="vector-effect: none; fill: none; stroke: rgb(165, 42, 42); stroke-opacity: 1; stroke-width: 2px; opacity: 1;"/></g><g class="points"/><g class="text"/></g><g class="trace scatter tracec71ea4" style="stroke-miterlimit: 2; opacity: 1;"><g class="fills"/><g class="errorbars"/><g class="lines"><path class="js-line" d="M0,271.51L4.87,179.99L9.74,376.2L14.62,172.3L19.49,172.54L24.36,210.61L29.23,169.27L34.11,132.68L38.98,155.27L43.85,305.07L48.72,269.13L53.6,236.06L58.47,119.09L63.34,247.77L68.21,202.09L73.09,209.54L77.96,213.31L82.83,202.09L87.7,115.65L92.58,121.71L97.45,144.14L102.32,132.52L107.19,169.35L112.07,154.21L116.94,103.54L121.81,118.19L126.68,121.22L131.56,108.29L136.43,161.08L141.3,179.5L146.17,106.24L151.05,114.51L155.92,220.43L160.79,115.41L165.66,117.37L170.54,118.27L175.41,120.97L180.28,117.29L185.15,127.28L190.03,123.67L194.9,115.41L199.77,117.29L204.64,105.34L209.52,102.56L214.39,98.87L219.26,109.92L224.13,103.54L229.01,117.37L233.88,119.5L238.75,124.74L243.62,113.77L248.5,111.48L253.37,123.02L258.24,127.28L263.11,119.99L272.86,123.02L277.73,117.37L282.6,117.37L287.48,118.19L292.35,114.67L297.22,121.96L302.09,111.81L306.97,115.41L311.84,115.41L316.71,110.91L321.58,106.4L326.46,95.27L331.33,187.69L336.2,180.32L341.07,154.7L345.95,147.41L350.82,110.91L355.69,109.27L360.56,113.77L365.44,113.77L370.31,117.37L375.18,104.85L380.05,109.27L384.93,126.87L389.8,135.63L394.67,132.76L404.42,117.37L409.29,108.12L414.16,104.44L419.03,110.91L423.91,104.6L428.78,100.92L433.65,108.12L438.52,96.99L443.4,96.99L448.27,108.12L458.01,110.09L462.89,110.09L467.76,119.99L472.63,110.91L477.5,118.19L482.38,105.58L487.25,107.79L492.12,243.68L496.99,168.86L501.87,165.18L506.74,158.95L511.61,162.56L516.48,162.56L521.36,101.16L526.23,101.16L531.1,112.22L535.97,116.64L540.85,117.37L545.72,115.9L550.59,126.38L555.46,119.09L560.34,122.77L565.21,110.99L570.08,114.67L574.95,107.3L579.83,102.56L584.7,105.34L589.57,124.08L594.44,128.26L599.32,124.74L604.19,120.24L609.06,124.74L618.81,101.9L623.68,101.9L628.55,114.67L633.42,111.97L638.3,110.99L643.17,106.4L648.04,107.22L652.91,99.04L657.79,110.91L662.66,113.77L667.53,118.19L672.4,110.99L677.28,107.3L682.15,121.87L691.89,113.77L696.77,114.59L701.64,109.02L706.51,113.61L711.38,113.61L716.26,145.78L721.13,158.05L726,151.67" style="vector-effect: none; fill: none; stroke: rgb(128, 128, 128); stroke-opacity: 1; stroke-width: 2px; opacity: 1;"/></g><g class="points"/><g class="text"/></g></g></g><g class="overplot"/><path class="xlines-above crisp" d="M0,0" style="fill: none;"/><path class="ylines-above crisp" d="M0,0" style="fill: none;"/><g class="overlines-above"/><g class="xaxislayer-above"><g class="xtick"><text text-anchor="middle" x="0" y="509" transform="translate(235.57999999999998,0)" style="font-family: 'Open Sans', verdana, arial, sans-serif; font-size: 12px; fill: rgb(42, 63, 95); fill-opacity: 1; white-space: pre; opacity: 1;">20</text></g><g class="xtick"><text text-anchor="middle" x="0" y="509" style="font-family: 'Open Sans', verdana, arial, sans-serif; font-size: 12px; fill: rgb(42, 63, 95); fill-opacity: 1; white-space: pre; opacity: 1;" transform="translate(333.03,0)">40</text></g><g class="xtick"><text text-anchor="middle" x="0" y="509" style="font-family: 'Open Sans', verdana, arial, sans-serif; font-size: 12px; fill: rgb(42, 63, 95); fill-opacity: 1; white-space: pre; opacity: 1;" transform="translate(430.48,0)">60</text></g><g class="xtick"><text text-anchor="middle" x="0" y="509" style="font-family: 'Open Sans', verdana, arial, sans-serif; font-size: 12px; fill: rgb(42, 63, 95); fill-opacity: 1; white-space: pre; opacity: 1;" transform="translate(527.9300000000001,0)">80</text></g><g class="xtick"><text text-anchor="middle" x="0" y="509" style="font-family: 'Open Sans', verdana, arial, sans-serif; font-size: 12px; fill: rgb(42, 63, 95); fill-opacity: 1; white-space: pre; opacity: 1;" transform="translate(625.38,0)">100</text></g><g class="xtick"><text text-anchor="middle" x="0" y="509" style="font-family: 'Open Sans', verdana, arial, sans-serif; font-size: 12px; fill: rgb(42, 63, 95); fill-opacity: 1; white-space: pre; opacity: 1;" transform="translate(722.83,0)">120</text></g><g class="xtick"><text text-anchor="middle" x="0" y="509" style="font-family: 'Open Sans', verdana, arial, sans-serif; font-size: 12px; fill: rgb(42, 63, 95); fill-opacity: 1; white-space: pre; opacity: 1;" transform="translate(820.28,0)">140</text></g></g><g class="yaxislayer-above"><g class="ytick"><text text-anchor="end" x="142" y="4.199999999999999" transform="translate(0,484.88)" style="font-family: 'Open Sans', verdana, arial, sans-serif; font-size: 12px; fill: rgb(42, 63, 95); fill-opacity: 1; white-space: pre; opacity: 1;">45</text></g><g class="ytick"><text text-anchor="end" x="142" y="4.199999999999999" style="font-family: 'Open Sans', verdana, arial, sans-serif; font-size: 12px; fill: rgb(42, 63, 95); fill-opacity: 1; white-space: pre; opacity: 1;" transform="translate(0,443.95)">50</text></g><g class="ytick"><text text-anchor="end" x="142" y="4.199999999999999" style="font-family: 'Open Sans', verdana, arial, sans-serif; font-size: 12px; fill: rgb(42, 63, 95); fill-opacity: 1; white-space: pre; opacity: 1;" transform="translate(0,403.02)">55</text></g><g class="ytick"><text text-anchor="end" x="142" y="4.199999999999999" style="font-family: 'Open Sans', verdana, arial, sans-serif; font-size: 12px; fill: rgb(42, 63, 95); fill-opacity: 1; white-space: pre; opacity: 1;" transform="translate(0,362.09)">60</text></g><g class="ytick"><text text-anchor="end" x="142" y="4.199999999999999" style="font-family: 'Open Sans', verdana, arial, sans-serif; font-size: 12px; fill: rgb(42, 63, 95); fill-opacity: 1; white-space: pre; opacity: 1;" transform="translate(0,321.16999999999996)">65</text></g><g class="ytick"><text text-anchor="end" x="142" y="4.199999999999999" style="font-family: 'Open Sans', verdana, arial, sans-serif; font-size: 12px; fill: rgb(42, 63, 95); fill-opacity: 1; white-space: pre; opacity: 1;" transform="translate(0,280.24)">70</text></g><g class="ytick"><text text-anchor="end" x="142" y="4.199999999999999" style="font-family: 'Open Sans', verdana, arial, sans-serif; font-size: 12px; fill: rgb(42, 63, 95); fill-opacity: 1; white-space: pre; opacity: 1;" transform="translate(0,239.31)">75</text></g><g class="ytick"><text text-anchor="end" x="142" y="4.199999999999999" style="font-family: 'Open Sans', verdana, arial, sans-serif; font-size: 12px; fill: rgb(42, 63, 95); fill-opacity: 1; white-space: pre; opacity: 1;" transform="translate(0,198.38)">80</text></g><g class="ytick"><text text-anchor="end" x="142" y="4.199999999999999" style="font-family: 'Open Sans', verdana, arial, sans-serif; font-size: 12px; fill: rgb(42, 63, 95); fill-opacity: 1; white-space: pre; opacity: 1;" transform="translate(0,157.45)">85</text></g><g class="ytick"><text text-anchor="end" x="142" y="4.199999999999999" style="font-family: 'Open Sans', verdana, arial, sans-serif; font-size: 12px; fill: rgb(42, 63, 95); fill-opacity: 1; white-space: pre; opacity: 1;" transform="translate(0,116.53)">90</text></g></g><g class="overaxes-above"/></g></g><g class="polarlayer"/><g class="smithlayer"/><g class="ternarylayer"/><g class="geolayer"/><g class="funnelarealayer"/><g class="pielayer"/><g class="iciclelayer"/><g class="treemaplayer"/><g class="sunburstlayer"/><g class="glimages"/><defs id="topdefs-f54b00"><g class="clips"/><clipPath id="legendf54b00"><rect width="128" height="162" x="0" y="0"/></clipPath></defs><g class="layer-above"><g class="imagelayer"/><g class="shapelayer"/></g><g class="infolayer"><g class="legend" pointer-events="all" transform="translate(883.52,100)"><rect class="bg" shape-rendering="crispEdges" width="128" height="162" x="0" y="0" style="stroke: rgb(68, 68, 68); stroke-opacity: 1; fill: rgb(255, 255, 255); fill-opacity: 1; stroke-width: 0px;"/><g class="scrollbox" transform="" clip-path="url(#legendf54b00)"><g class="groups"><g class="traces" transform="translate(0,14.5)" style="opacity: 1;"><text class="legendtext" text-anchor="start" x="40" y="4.680000000000001" style="font-family: 'Open Sans', verdana, arial, sans-serif; font-size: 12px; fill: rgb(42, 63, 95); fill-opacity: 1; white-space: pre;">Train Accuracy</text><g class="layers" style="opacity: 1;"><g class="legendfill"/><g class="legendlines"><path class="js-line" d="M5,0h30" style="fill: none; stroke: rgb(255, 0, 0); stroke-opacity: 1; stroke-width: 2px;"/></g><g class="legendsymbols"><g class="legendpoints"/></g></g><rect class="legendtoggle" x="0" y="-9.5" width="122.71875" height="19" style="fill: rgb(0, 0, 0); fill-opacity: 0;"/></g><g class="traces" transform="translate(0,33.5)" style="opacity: 1;"><text class="legendtext" text-anchor="start" x="40" y="4.680000000000001" style="font-family: 'Open Sans', verdana, arial, sans-serif; font-size: 12px; fill: rgb(42, 63, 95); fill-opacity: 1; white-space: pre;">Test Accuracy</text><g class="layers" style="opacity: 1;"><g class="legendfill"/><g class="legendlines"><path class="js-line" d="M5,0h30" style="fill: none; stroke: rgb(0, 0, 255); stroke-opacity: 1; stroke-width: 2px;"/></g><g class="legendsymbols"><g class="legendpoints"/></g></g><rect class="legendtoggle" x="0" y="-9.5" width="122.71875" height="19" style="fill: rgb(0, 0, 0); fill-opacity: 0;"/></g><g class="traces" transform="translate(0,52.5)" style="opacity: 1;"><text class="legendtext" text-anchor="start" x="40" y="4.680000000000001" style="font-family: 'Open Sans', verdana, arial, sans-serif; font-size: 12px; fill: rgb(42, 63, 95); fill-opacity: 1; white-space: pre;">Train Precision</text><g class="layers" style="opacity: 1;"><g class="legendfill"/><g class="legendlines"><path class="js-line" d="M5,0h30" style="fill: none; stroke: rgb(0, 128, 0); stroke-opacity: 1; stroke-width: 2px;"/></g><g class="legendsymbols"><g class="legendpoints"/></g></g><rect class="legendtoggle" x="0" y="-9.5" width="122.71875" height="19" style="fill: rgb(0, 0, 0); fill-opacity: 0;"/></g><g class="traces" transform="translate(0,71.5)" style="opacity: 1;"><text class="legendtext" text-anchor="start" x="40" y="4.680000000000001" style="font-family: 'Open Sans', verdana, arial, sans-serif; font-size: 12px; fill: rgb(42, 63, 95); fill-opacity: 1; white-space: pre;">Test Precision</text><g class="layers" style="opacity: 1;"><g class="legendfill"/><g class="legendlines"><path class="js-line" d="M5,0h30" style="fill: none; stroke: rgb(255, 165, 0); stroke-opacity: 1; stroke-width: 2px;"/></g><g class="legendsymbols"><g class="legendpoints"/></g></g><rect class="legendtoggle" x="0" y="-9.5" width="122.71875" height="19" style="fill: rgb(0, 0, 0); fill-opacity: 0;"/></g><g class="traces" transform="translate(0,90.5)" style="opacity: 1;"><text class="legendtext" text-anchor="start" x="40" y="4.680000000000001" style="font-family: 'Open Sans', verdana, arial, sans-serif; font-size: 12px; fill: rgb(42, 63, 95); fill-opacity: 1; white-space: pre;">Train Recall</text><g class="layers" style="opacity: 1;"><g class="legendfill"/><g class="legendlines"><path class="js-line" d="M5,0h30" style="fill: none; stroke: rgb(128, 0, 128); stroke-opacity: 1; stroke-width: 2px;"/></g><g class="legendsymbols"><g class="legendpoints"/></g></g><rect class="legendtoggle" x="0" y="-9.5" width="122.71875" height="19" style="fill: rgb(0, 0, 0); fill-opacity: 0;"/></g><g class="traces" transform="translate(0,109.5)" style="opacity: 1;"><text class="legendtext" text-anchor="start" x="40" y="4.680000000000001" style="font-family: 'Open Sans', verdana, arial, sans-serif; font-size: 12px; fill: rgb(42, 63, 95); fill-opacity: 1; white-space: pre;">Test Recall</text><g class="layers" style="opacity: 1;"><g class="legendfill"/><g class="legendlines"><path class="js-line" d="M5,0h30" style="fill: none; stroke: rgb(255, 192, 203); stroke-opacity: 1; stroke-width: 2px;"/></g><g class="legendsymbols"><g class="legendpoints"/></g></g><rect class="legendtoggle" x="0" y="-9.5" width="122.71875" height="19" style="fill: rgb(0, 0, 0); fill-opacity: 0;"/></g><g class="traces" transform="translate(0,128.5)" style="opacity: 1;"><text class="legendtext" text-anchor="start" x="40" y="4.680000000000001" style="font-family: 'Open Sans', verdana, arial, sans-serif; font-size: 12px; fill: rgb(42, 63, 95); fill-opacity: 1; white-space: pre;">Train F1</text><g class="layers" style="opacity: 1;"><g class="legendfill"/><g class="legendlines"><path class="js-line" d="M5,0h30" style="fill: none; stroke: rgb(165, 42, 42); stroke-opacity: 1; stroke-width: 2px;"/></g><g class="legendsymbols"><g class="legendpoints"/></g></g><rect class="legendtoggle" x="0" y="-9.5" width="122.71875" height="19" style="fill: rgb(0, 0, 0); fill-opacity: 0;"/></g><g class="traces" transform="translate(0,147.5)" style="opacity: 1;"><text class="legendtext" text-anchor="start" x="40" y="4.680000000000001" style="font-family: 'Open Sans', verdana, arial, sans-serif; font-size: 12px; fill: rgb(42, 63, 95); fill-opacity: 1; white-space: pre;">Test F1</text><g class="layers" style="opacity: 1;"><g class="legendfill"/><g class="legendlines"><path class="js-line" d="M5,0h30" style="fill: none; stroke: rgb(128, 128, 128); stroke-opacity: 1; stroke-width: 2px;"/></g><g class="legendsymbols"><g class="legendpoints"/></g></g><rect class="legendtoggle" x="0" y="-9.5" width="122.71875" height="19" style="fill: rgb(0, 0, 0); fill-opacity: 0;"/></g></g></g><rect class="scrollbar" rx="20" ry="3" width="0" height="0" x="0" y="0" style="fill: rgb(128, 139, 164); fill-opacity: 1;"/></g><g class="g-gtitle"><text class="gtitle" x="51.2" y="50" text-anchor="start" dy="0em" style="font-family: 'Open Sans', verdana, arial, sans-serif; font-size: 17px; fill: rgb(42, 63, 95); opacity: 1; font-weight: normal; white-space: pre;">Training Metrics - logs/FakeNewsNet-politifact_max-vocab=15000_pre=v1_text_domain_T=150_s=15.log</text></g><g class="g-xtitle"><text class="xtitle" x="506" y="537.3" text-anchor="middle" style="font-family: 'Open Sans', verdana, arial, sans-serif; font-size: 14px; fill: rgb(42, 63, 95); opacity: 1; font-weight: normal; white-space: pre;">Epoch</text></g><g class="g-ytitle"><text class="ytitle" transform="rotate(-90,103.965625,298)" x="103.965625" y="298" text-anchor="middle" style="font-family: 'Open Sans', verdana, arial, sans-serif; font-size: 14px; fill: rgb(42, 63, 95); opacity: 1; font-weight: normal; white-space: pre;">Metric Score</text></g></g><g class="menulayer"><g class="updatemenu-container" style="cursor: pointer;"><g class="updatemenu-header-group" transform="translate(12,60)"><g class="updatemenu-header" transform="translate(1,1)" style="pointer-events: all;"><rect class="updatemenu-item-rect" rx="2" ry="2" shape-rendering="crispEdges" x="0" y="0" width="167" height="33" style="stroke: rgb(190, 200, 217); stroke-opacity: 1; fill: rgb(255, 255, 255); fill-opacity: 1; stroke-width: 1px;"/><text class="updatemenu-item-text" text-anchor="start" data-notex="1" x="12" y="19.5" style="font-family: 'Open Sans', verdana, arial, sans-serif; font-size: 12px; fill: rgb(42, 63, 95); fill-opacity: 1; white-space: pre;">All</text></g><text class="updatemenu-header-arrow" text-anchor="end" x="163" y="19.5" style="font-family: 'Open Sans', verdana, arial, sans-serif; font-size: 12px; fill: rgb(42, 63, 95); fill-opacity: 1;">▼</text></g><g class="updatemenu-dropdown-button-group" updatemenu-active-index="-1" style="pointer-events: all;"><rect class="scrollbox-bg" opacity="0" x="0" y="0" width="0" height="0" style="pointer-events: all;"/></g></g></g></svg>