<svg class="main-svg" xmlns="http://www.w3.org/2000/svg" xmlns:xlink="http://www.w3.org/1999/xlink" width="1024" height="576" style="" viewBox="0 0 1024 576"><rect x="0" y="0" width="1024" height="576" style="fill: rgb(255, 255, 255); fill-opacity: 1;"/><defs id="defs-34b2b3"><g class="clips"><clipPath id="clip34b2b3xyplot" class="plotclip"><rect width="726" height="396"/></clipPath><clipPath class="axesclip" id="clip34b2b3x"><rect x="143" y="0" width="726" height="576"/></clipPath><clipPath class="axesclip" id="clip34b2b3y"><rect x="0" y="100" width="1024" height="396"/></clipPath><clipPath class="axesclip" id="clip34b2b3xy"><rect x="143" y="100" width="726" height="396"/></clipPath></g><g class="gradients"/><g class="patterns"/></defs><g class="bglayer"><rect class="bg" x="143" y="100" width="726" height="396" style="fill: rgb(229, 236, 246); fill-opacity: 1; stroke-width: 0;"/></g><g class="layer-below"><g class="imagelayer"/><g class="shapelayer"/></g><g class="cartesianlayer"><g class="subplot xy"><g class="layer-subplot"><g class="shapelayer"/><g class="imagelayer"/></g><g class="minor-gridlayer"><g class="x"/><g class="y"/></g><g class="gridlayer"><g class="x"><path class="xgrid crisp" transform="translate(235.57999999999998,0)" d="M0,100v396" style="stroke: rgb(255, 255, 255); stroke-opacity: 1; stroke-width: 1px;"/><path class="xgrid crisp" transform="translate(333.03,0)" d="M0,100v396" style="stroke: rgb(255, 255, 255); stroke-opacity: 1; stroke-width: 1px;"/><path class="xgrid crisp" transform="translate(430.48,0)" d="M0,100v396" style="stroke: rgb(255, 255, 255); stroke-opacity: 1; stroke-width: 1px;"/><path class="xgrid crisp" transform="translate(527.9300000000001,0)" d="M0,100v396" style="stroke: rgb(255, 255, 255); stroke-opacity: 1; stroke-width: 1px;"/><path class="xgrid crisp" transform="translate(625.38,0)" d="M0,100v396" style="stroke: rgb(255, 255, 255); stroke-opacity: 1; stroke-width: 1px;"/><path class="xgrid crisp" transform="translate(722.83,0)" d="M0,100v396" style="stroke: rgb(255, 255, 255); stroke-opacity: 1; stroke-width: 1px;"/><path class="xgrid crisp" transform="translate(820.28,0)" d="M0,100v396" style="stroke: rgb(255, 255, 255); stroke-opacity: 1; stroke-width: 1px;"/></g><g class="y"><path class="ygrid crisp" transform="translate(0,494.75)" d="M143,0h726" style="stroke: rgb(255, 255, 255); stroke-opacity: 1; stroke-width: 1px;"/><path class="ygrid crisp" transform="translate(0,419.94)" d="M143,0h726" style="stroke: rgb(255, 255, 255); stroke-opacity: 1; stroke-width: 1px;"/><path class="ygrid crisp" transform="translate(0,345.13)" d="M143,0h726" style="stroke: rgb(255, 255, 255); stroke-opacity: 1; stroke-width: 1px;"/><path class="ygrid crisp" transform="translate(0,270.32)" d="M143,0h726" style="stroke: rgb(255, 255, 255); stroke-opacity: 1; stroke-width: 1px;"/><path class="ygrid crisp" transform="translate(0,195.51)" d="M143,0h726" style="stroke: rgb(255, 255, 255); stroke-opacity: 1; stroke-width: 1px;"/><path class="ygrid crisp" transform="translate(0,120.7)" d="M143,0h726" style="stroke: rgb(255, 255, 255); stroke-opacity: 1; stroke-width: 1px;"/></g></g><g class="zerolinelayer"/><path class="xlines-below"/><path class="ylines-below"/><g class="overlines-below"/><g class="xaxislayer-below"/><g class="yaxislayer-below"/><g class="overaxes-below"/><g class="plot" transform="translate(143,100)" clip-path="url(#clip34b2b3xyplot)"><g class="scatterlayer mlayer"><g class="trace scatter trace123f85" style="stroke-miterlimit: 2; opacity: 1;"><g class="fills"/><g class="errorbars"/><g class="lines"><path class="js-line" d="M0,355.1L4.87,275.35L9.74,256.35L14.62,244.83L19.49,228.22L24.36,185.88L29.23,186.48L34.11,198L38.98,179.3L43.85,187.98L48.72,181.54L53.6,170.62L58.47,173.31L63.34,172.86L68.21,187.23L73.09,187.83L77.96,183.34L82.83,171.37L87.7,174.81L92.58,164.48L97.45,163.44L102.32,147.88L107.19,142.79L112.07,146.23L116.94,141.89L121.81,138.75L126.68,147.28L131.56,150.72L136.43,157.75L141.3,163.44L146.17,163.44L151.05,155.36L155.92,150.27L160.79,148.03L165.66,133.66L170.54,135.01L175.41,137.25L180.28,129.62L185.15,129.47L190.03,119.75L194.9,121.09L199.77,114.81L204.64,111.22L209.52,112.86L214.39,116.76L219.26,103.29L224.13,102.99L229.01,107.18L233.88,101.49L243.62,117.35L248.5,114.96L253.37,110.02L258.24,112.57L263.11,114.96L267.99,115.86L272.86,113.61L277.73,113.01L282.6,108.83L287.48,110.62L292.35,106.58L297.22,111.52L302.09,111.52L306.97,114.66L311.84,116.9L316.71,113.01L321.58,124.24L326.46,122.44L331.33,124.83L336.2,124.09L341.07,110.77L345.95,105.98L350.82,106.88L355.69,103.74L360.56,107.93L365.44,113.16L370.31,115.41L375.18,114.96L380.05,108.53L384.93,113.16L394.67,115.86L399.54,111.52L404.42,116.9L409.29,113.31L414.16,108.83L419.03,110.02L423.91,100.75L428.78,114.21L433.65,110.47L438.52,115.26L443.4,117.35L448.27,116.9L453.14,119.9L458.01,115.86L462.89,119L467.76,117.35L472.63,111.37L477.5,109.87L482.38,106.58L487.25,111.37L492.12,107.78L496.99,112.86L501.87,116.46L506.74,123.04L511.61,123.04L516.48,120.5L521.36,121.99L526.23,116.31L531.1,115.26L535.97,112.57L540.85,104.64L545.72,105.23L550.59,110.17L555.46,112.42L560.34,117.5L565.21,111.52L570.08,109.57L574.95,106.73L579.83,102.09L584.7,92.97L589.57,95.81L594.44,95.81L599.32,106.13L604.19,102.69L609.06,100L613.93,101.19L618.81,95.36L623.68,95.36L628.55,98.35L633.42,103.44L638.3,100.3L643.17,104.79L648.04,106.13L652.91,97.6L657.79,110.32L662.66,109.72L667.53,112.12L672.4,108.08L677.28,110.17L682.15,110.02L687.02,119.6L691.89,116.61L696.77,117.95L701.64,110.47L706.51,117.8L711.38,110.62L716.26,114.51L721.13,114.21L726,112.42" style="vector-effect: none; fill: none; stroke: rgb(255, 0, 0); stroke-opacity: 1; stroke-width: 2px; opacity: 1;"/></g><g class="points"/><g class="text"/></g><g class="trace scatter tracec38aa1" style="stroke-miterlimit: 2; opacity: 1;"><g class="fills"/><g class="errorbars"/><g class="lines"><path class="js-line" d="M0,367.37L4.87,277.45L9.74,268.32L14.62,260.24L19.49,248.12L24.36,207.28L29.23,206.23L34.11,210.87L38.98,204.13L43.85,196.05L48.72,196.8L53.6,190.97L58.47,189.32L63.34,183.94L68.21,208.17L73.09,218.65L77.96,208.17L82.83,187.98L87.7,192.02L97.45,182.14L102.32,182.14L112.07,177.2L116.94,163.59L121.81,164.63L126.68,163.29L131.56,173.16L136.43,178.55L141.3,182.14L146.17,175.41L151.05,174.51L155.92,167.33L165.66,148.48L170.54,148.03L175.41,156.26L180.28,146.08L185.15,148.03L190.03,147.73L194.9,146.68L199.77,133.96L204.64,137.55L209.52,131.87L214.39,136.95L219.26,118.7L224.13,118.7L229.01,121.69L233.88,121.69L238.75,128.43L243.62,140.25L248.5,133.96L253.37,126.48L258.24,132.62L263.11,129.77L267.99,128.87L272.86,134.26L277.73,132.62L282.6,132.91L287.48,127.83L292.35,124.09L297.22,126.48L302.09,133.51L306.97,132.91L311.84,133.51L316.71,121.69L321.58,134.26L326.46,136.95L331.33,142.64L336.2,144.73L341.07,127.08L345.95,121.69L350.82,118.7L355.69,118.7L360.56,127.53L365.44,127.53L370.31,134.56L375.18,133.51L380.05,129.77L384.93,142.64L389.8,142.04L394.67,145.78L399.54,142.64L404.42,151.47L409.29,145.03L414.16,133.96L419.03,133.21L423.91,135.61L428.78,137.25L433.65,140.99L443.4,144.44L448.27,143.69L453.14,142.04L458.01,143.69L467.76,133.96L472.63,126.48L477.5,127.83L482.38,126.78L487.25,132.17L492.12,128.87L496.99,132.17L501.87,138.9L506.74,137.25L511.61,145.33L516.48,145.33L521.36,147.43L526.23,137.25L531.1,136.95L535.97,140.25L540.85,129.77L545.72,133.21L550.59,135.31L555.46,135.31L560.34,143.09L565.21,139.95L570.08,131.12L574.95,126.78L579.83,131.57L584.7,125.13L589.57,125.13L594.44,127.08L599.32,130.22L604.19,122.74L609.06,128.43L613.93,130.52L618.81,121.39L623.68,124.39L628.55,120.05L633.42,129.17L638.3,122.74L643.17,132.62L648.04,127.08L652.91,118.4L657.79,130.22L662.66,138.9L667.53,136.65L672.4,132.91L677.28,135.61L682.15,136.95L687.02,149.37L691.89,152.51L696.77,150.42L706.51,144.44L711.38,139.95L716.26,143.99L721.13,144.44L726,145.78" style="vector-effect: none; fill: none; stroke: rgb(0, 0, 255); stroke-opacity: 1; stroke-width: 2px; opacity: 1;"/></g><g class="points"/><g class="text"/></g><g class="trace scatter trace25d206" style="stroke-miterlimit: 2; opacity: 1;"><g class="fills"/><g class="errorbars"/><g class="lines"><path class="js-line" d="M0,230.77L4.87,212.36L9.74,200.99L14.62,195.61L19.49,186.63L24.36,177.2L29.23,174.51L34.11,177.35L38.98,167.63L43.85,166.58L48.72,166.58L53.6,162.39L58.47,159.85L63.34,160.44L68.21,162.39L73.09,160.44L77.96,159.85L82.83,159.4L87.7,157.9L92.58,152.07L97.45,152.96L102.32,144.58L107.19,144.44L112.07,147.13L116.94,148.18L121.81,145.93L126.68,149.07L136.43,150.12L141.3,153.41L146.17,154.01L151.05,149.82L155.92,146.53L160.79,147.43L165.66,142.04L170.54,142.49L175.41,141.59L180.28,139.2L185.15,138.6L190.03,135.91L194.9,135.46L199.77,133.66L204.64,131.57L209.52,132.91L214.39,131.87L219.26,129.62L224.13,129.17L229.01,130.97L233.88,127.98L238.75,129.02L243.62,132.17L248.5,132.62L253.37,130.67L258.24,130.07L263.11,131.72L267.99,131.12L277.73,127.83L282.6,128.28L287.48,130.97L292.35,128.87L302.09,129.77L306.97,127.23L311.84,130.22L316.71,128.58L321.58,133.21L326.46,131.57L331.33,130.97L336.2,131.57L341.07,126.63L345.95,126.48L350.82,127.53L355.69,127.08L360.56,128.28L365.44,131.27L370.31,132.76L375.18,132.02L380.05,128.43L384.93,130.82L389.8,131.12L394.67,130.37L399.54,129.02L404.42,129.92L409.29,128.58L414.16,126.03L419.03,127.83L423.91,123.49L428.78,130.52L433.65,128.72L448.27,129.32L453.14,132.17L458.01,129.32L462.89,132.02L467.76,132.02L472.63,129.77L482.38,128.72L487.25,129.47L492.12,126.63L496.99,130.52L501.87,130.82L506.74,135.01L511.61,135.61L516.48,134.56L521.36,133.81L526.23,131.27L531.1,131.87L535.97,130.37L540.85,127.53L545.72,126.33L560.34,129.92L565.21,127.38L570.08,127.83L574.95,124.98L579.83,124.24L584.7,119.6L594.44,120.5L599.32,125.28L604.19,125.58L609.06,124.54L613.93,125.43L618.81,121.54L623.68,121.39L628.55,122.29L633.42,124.83L638.3,121.24L643.17,125.73L648.04,126.03L652.91,124.39L657.79,127.08L662.66,126.03L667.53,128.13L672.4,127.23L677.28,129.32L682.15,128.28L687.02,131.27L691.89,128.13L696.77,130.22L701.64,126.93L706.51,130.37L711.38,125.73L716.26,128.58L721.13,127.98L726,125.88" style="vector-effect: none; fill: none; stroke: rgb(0, 128, 0); stroke-opacity: 1; stroke-width: 2px; opacity: 1;"/></g><g class="points"/><g class="text"/></g><g class="trace scatter trace22f620" style="stroke-miterlimit: 2; opacity: 1;"><g class="fills"/><g class="errorbars"/><g class="lines"><path class="js-line" d="M0,237.5L4.87,212.06L9.74,210.72L14.62,202.49L19.49,200.84L24.36,188.57L29.23,184.83L34.11,186.18L38.98,181.24L43.85,174.21L48.72,174.51L53.6,176.75L58.47,168.23L63.34,164.34L68.21,174.66L73.09,181.99L77.96,176.6L82.83,171.22L87.7,168.23L92.58,164.93L97.45,159.7L102.32,161.94L107.19,162.99L112.07,163.44L116.94,159.25L126.68,158.05L131.56,161.19L136.43,160.74L141.3,161.64L146.17,158.2L151.05,158.05L155.92,152.96L160.79,149.52L165.66,150.12L170.54,153.11L175.41,151.02L180.28,146.98L185.15,148.33L190.03,155.66L194.9,149.97L199.77,145.78L204.64,149.22L209.52,148.03L214.39,146.98L219.26,141.59L224.13,142.49L229.01,141.14L233.88,140.55L238.75,141.59L243.62,147.58L248.5,144.44L253.37,140.99L258.24,142.64L263.11,142.04L267.99,140.55L272.86,142.19L277.73,139.65L282.6,139.5L287.48,136.95L292.35,138.15L297.22,138L302.09,144.29L306.97,142.79L311.84,143.54L316.71,138.15L326.46,145.63L331.33,146.68L336.2,146.23L341.07,138.9L345.95,137.85L350.82,137.7L355.69,138.6L360.56,142.79L365.44,143.84L370.31,143.99L380.05,143.09L384.93,152.51L394.67,154.31L399.54,153.86L404.42,155.06L409.29,154.01L414.16,147.43L419.03,146.08L423.91,151.32L428.78,151.77L433.65,149.67L438.52,149.22L443.4,149.52L448.27,153.41L453.14,148.03L458.01,148.92L467.76,145.03L472.63,141.59L477.5,144.58L482.38,144.73L487.25,143.54L492.12,144.14L496.99,145.18L501.87,149.97L506.74,143.99L511.61,151.47L521.36,149.67L526.23,147.13L531.1,147.58L535.97,151.02L540.85,146.38L545.72,145.03L555.46,145.78L560.34,147.88L565.21,150.12L570.08,146.38L574.95,142.79L579.83,143.84L584.7,142.19L589.57,142.94L594.44,144.88L599.32,144.58L604.19,140.4L609.06,146.68L613.93,147.28L618.81,143.54L623.68,143.84L628.55,141.29L633.42,146.68L638.3,141.44L643.17,149.37L648.04,145.63L652.91,143.24L657.79,147.58L662.66,149.97L667.53,148.77L677.28,148.33L682.15,150.27L687.02,154.16L691.89,154.61L701.64,154.01L706.51,151.32L711.38,150.42L716.26,152.81L721.13,150.27L726,151.32" style="vector-effect: none; fill: none; stroke: rgb(255, 165, 0); stroke-opacity: 1; stroke-width: 2px; opacity: 1;"/></g><g class="points"/><g class="text"/></g><g class="trace scatter trace10c503" style="stroke-miterlimit: 2; opacity: 1;"><g class="fills"/><g class="errorbars"/><g class="lines"><path class="js-line" d="M0,188.42L4.87,150.72L9.74,134.11L14.62,125.88L19.49,112.72L24.36,96.86L29.23,93.41L34.11,97.75L38.98,83.99L48.72,82.79L53.6,76.66L58.47,73.36L63.34,74.11L68.21,77.7L73.09,75.46L82.83,72.62L87.7,70.97L92.58,62.74L97.45,63.79L102.32,52.27L107.19,51.97L112.07,55.56L116.94,57.21L121.81,54.21L126.68,58.25L136.43,59.75L141.3,64.54L146.17,65.14L151.05,59.45L155.92,54.81L160.79,56.16L165.66,48.83L170.54,49.43L175.41,48.08L180.28,44.94L185.15,44.19L190.03,40.9L194.9,40.15L199.77,38.2L204.64,35.36L209.52,37.31L219.26,33.57L224.13,32.97L229.01,35.06L233.88,31.32L238.75,31.92L243.62,35.66L248.5,36.56L253.37,34.16L258.24,32.97L263.11,35.21L267.99,34.31L272.86,31.62L277.73,29.82L282.6,30.87L287.48,34.46L292.35,31.92L302.09,32.67L306.97,28.78L311.84,32.82L316.71,30.87L321.58,36.71L326.46,34.61L331.33,33.57L336.2,34.46L341.07,28.18L345.95,28.48L350.82,29.97L355.69,29.53L360.56,31.02L365.44,34.76L370.31,36.56L375.18,35.66L380.05,31.02L384.93,34.01L389.8,34.46L394.67,33.27L399.54,31.62L404.42,32.52L409.29,30.72L414.16,27.43L419.03,30.12L423.91,24.59L428.78,33.57L433.65,31.17L448.27,31.62L453.14,35.36L458.01,31.62L462.89,35.36L467.76,35.51L472.63,32.67L482.38,31.77L487.25,32.37L492.12,28.63L496.99,33.71L501.87,33.86L506.74,39.4L511.61,40.3L516.48,38.95L521.36,37.75L526.23,34.61L531.1,35.51L535.97,33.57L540.85,30.12L545.72,28.33L560.34,32.37L565.21,29.23L570.08,29.97L574.95,26.08L579.83,25.49L584.7,19.95L589.57,19.8L594.44,20.85L599.32,26.68L604.19,27.43L609.06,26.38L613.93,27.43L618.81,22.49L623.68,22.19L628.55,23.24L633.42,26.38L638.3,21.45L643.17,27.58L648.04,27.73L652.91,26.38L657.79,28.93L662.66,27.43L667.53,30.27L672.4,29.38L677.28,32.22L682.15,30.72L687.02,34.31L691.89,29.97L696.77,32.97L701.64,28.78L706.51,33.12L711.38,26.98L716.26,30.72L721.13,29.97L726,26.98" style="vector-effect: none; fill: none; stroke: rgb(128, 0, 128); stroke-opacity: 1; stroke-width: 2px; opacity: 1;"/></g><g class="points"/><g class="text"/></g><g class="trace scatter tracedc5c6f" style="stroke-miterlimit: 2; opacity: 1;"><g class="fills"/><g class="errorbars"/><g class="lines"><path class="js-line" d="M0,198.9L4.87,151.17L9.74,148.03L14.62,136.95L19.49,133.36L24.36,113.46L29.23,108.53L34.11,110.77L38.98,103.89L43.85,94.16L48.72,94.61L53.6,97.15L58.47,85.93L63.34,80.4L68.21,95.96L73.09,106.28L77.96,98.35L82.83,89.82L87.7,86.23L92.58,81.44L97.45,74.56L102.32,77.4L107.19,78.6L112.07,78.9L116.94,72.92L126.68,71.27L131.56,75.76L136.43,75.46L141.3,76.96L146.17,72.02L151.05,71.87L155.92,64.84L160.79,59.75L165.66,60.5L170.54,64.54L175.41,61.69L180.28,56.01L185.15,57.8L190.03,68.13L194.9,60.35L199.77,54.66L204.64,59.6L209.52,58.1L214.39,56.16L219.26,50.02L224.13,51.37L229.01,49.13L233.88,48.08L238.75,49.28L243.62,57.06L248.5,52.87L253.37,48.38L258.24,50.47L263.11,49.57L267.99,47.48L272.86,49.72L277.73,46.13L282.6,45.83L287.48,42.54L292.35,44.49L297.22,44.04L302.09,52.57L306.97,50.62L311.84,51.67L316.71,44.79L326.46,54.36L331.33,55.71L336.2,55.11L341.07,45.54L345.95,44.34L350.82,44.19L355.69,45.68L360.56,50.92L365.44,52.42L370.31,52.27L380.05,51.07L384.93,63.79L394.67,66.33L399.54,65.73L404.42,67.23L409.29,65.88L414.16,57.06L419.03,55.26L423.91,62.59L428.78,63.19L433.65,59.9L438.52,59.3L443.4,59.75L448.27,64.99L453.14,57.65L458.01,58.7L467.76,53.76L472.63,49.28L477.5,53.61L482.38,53.91L487.25,51.67L492.12,52.87L496.99,54.06L501.87,60.5L506.74,52.12L511.61,62.29L521.36,59.75L526.23,56.46L531.1,57.21L535.97,61.84L540.85,55.86L545.72,53.76L550.59,53.61L555.46,54.66L565.21,60.65L570.08,55.86L574.95,50.92L579.83,52.12L584.7,50.32L589.57,51.37L594.44,54.06L599.32,53.17L604.19,47.78L609.06,56.46L613.93,57.21L618.81,52.72L623.68,52.72L628.55,49.43L633.42,56.31L638.3,49.28L643.17,60.05L648.04,55.11L652.91,52.57L657.79,57.5L662.66,60.5L667.53,58.85L677.28,58.25L682.15,60.95L687.02,65.88L691.89,66.48L696.77,66.63L701.64,65.73L706.51,62.14L711.38,61.1L716.26,64.24L721.13,60.65L726,61.99" style="vector-effect: none; fill: none; stroke: rgb(255, 192, 203); stroke-opacity: 1; stroke-width: 2px; opacity: 1;"/></g><g class="points"/><g class="text"/></g><g class="trace scatter trace8393cc" style="stroke-miterlimit: 2; opacity: 1;"><g class="fills"/><g class="errorbars"/><g class="lines"><path class="js-line" d="M0,364.83L4.87,297.35L9.74,279.84L14.62,269.82L19.49,254.71L24.36,221.49L29.23,220.74L34.11,229.87L38.98,213.26L43.85,219.1L48.72,214.46L53.6,205.33L58.47,206.23L63.34,206.23L68.21,217.15L73.09,216.85L77.96,213.41L82.83,204.73L87.7,206.68L92.58,197.25L97.45,196.8L102.32,182.89L107.19,179.3L112.07,182.74L116.94,180.19L121.81,177.2L126.68,184.23L131.56,186.93L136.43,191.72L141.3,196.95L146.17,197.25L151.05,190.07L155.92,185.28L160.79,184.09L165.66,172.26L175.41,174.51L180.28,168.23L185.15,167.93L190.03,160.3L194.9,161.04L199.77,156.11L204.64,152.96L209.52,154.61L214.39,156.7L219.26,146.83L224.13,146.53L229.01,150.12L233.88,145.03L238.75,150.42L243.62,157.15L248.5,155.81L253.37,151.62L258.24,153.11L263.11,155.36L267.99,155.66L272.86,153.41L277.73,152.51L282.6,149.82L287.48,152.22L292.35,148.77L297.22,152.22L302.09,152.37L306.97,153.41L311.84,156.11L316.71,152.81L321.58,162.24L326.46,160.44L331.33,161.79L336.2,161.49L341.07,150.57L345.95,147.28L350.82,148.33L355.69,146.08L360.56,149.22L365.44,154.01L370.31,156.11L375.18,155.51L380.05,149.82L384.93,153.86L394.67,155.51L399.54,151.92L404.42,155.96L409.29,152.96L414.16,148.92L419.03,150.42L423.91,142.49L428.78,154.46L433.65,151.17L438.52,154.46L443.4,155.96L448.27,155.66L453.14,158.95L458.01,154.91L462.89,158.2L467.76,157.15L472.63,152.22L477.5,150.87L482.38,148.62L487.25,152.07L492.12,148.48L496.99,153.56L501.87,156.11L506.74,162.09L511.61,162.39L516.48,160.3L521.36,160.89L526.23,156.11L531.1,155.66L535.97,153.26L540.85,146.83L545.72,146.68L550.59,150.57L555.46,152.51L560.34,156.26L565.21,151.32L570.08,150.12L574.95,146.98L579.83,143.69L584.7,135.76L589.57,137.7L594.44,138L599.32,146.83L604.19,144.73L609.06,142.49L613.93,143.69L618.81,138.15L623.68,138L628.55,140.4L633.42,144.88L638.3,141.29L643.17,146.23L648.04,147.13L652.91,140.99L657.79,150.42L662.66,149.52L667.53,152.07L672.4,148.92L677.28,151.32L682.15,150.72L687.02,158.35L691.89,155.06L696.77,156.85L701.64,150.42L706.51,156.7L711.38,149.97L716.26,153.71L721.13,153.41L726,151.17" style="vector-effect: none; fill: none; stroke: rgb(165, 42, 42); stroke-opacity: 1; stroke-width: 2px; opacity: 1;"/></g><g class="points"/><g class="text"/></g><g class="trace scatter traceb4a097" style="stroke-miterlimit: 2; opacity: 1;"><g class="fills"/><g class="errorbars"/><g class="lines"><path class="js-line" d="M0,376.2L4.87,298.7L9.74,291.51L19.49,273.56L24.36,240.19L29.23,238.1L34.11,241.84L38.98,235.41L43.85,227.18L48.72,227.77L53.6,224.48L63.34,215.21L68.21,236.15L73.09,246.18L77.96,236.75L82.83,220.44L87.7,222.39L97.45,212.36L102.32,213.11L112.07,209.97L116.94,199.05L121.81,199.65L126.68,198.45L131.56,206.38L136.43,210.12L141.3,213.11L146.17,206.98L151.05,206.23L155.92,199.5L165.66,185.13L170.54,186.18L175.41,190.82L180.28,182.29L190.03,186.93L194.9,183.94L199.77,173.61L204.64,177.65L209.52,173.31L214.39,176.16L219.26,161.94L224.13,162.39L229.01,163.74L233.88,163.44L238.75,168.37L243.62,178.7L253.37,166.73L258.24,171.52L267.99,168.08L272.86,172.41L277.73,170.17L282.6,170.32L287.48,165.98L292.35,163.89L297.22,165.53L302.09,172.71L306.97,171.82L311.84,172.56L316.71,162.39L321.58,172.26L326.46,175.56L331.33,179.9L336.2,181.09L341.07,166.28L345.95,162.24L350.82,160.15L355.69,160.59L360.56,168.23L365.44,168.67L370.31,173.31L375.18,172.56L380.05,169.87L384.93,182.29L389.8,182.29L394.67,185.13L399.54,182.89L404.42,189.17L409.29,184.53L414.16,174.36L419.03,173.31L423.91,177.05L428.78,178.4L443.4,182.14L448.27,183.34L453.14,180.05L458.01,181.54L467.76,173.31L472.63,167.03L477.5,169.12L482.38,168.52L487.25,171.67L492.12,169.57L496.99,172.26L501.87,178.7L506.74,175.26L511.61,183.64L516.48,183.19L521.36,184.23L526.23,176.45L531.1,176.45L535.97,180.05L540.85,171.22L550.59,174.21L555.46,174.51L560.34,180.64L565.21,179.45L570.08,172.12L574.95,167.78L579.83,171.22L584.7,166.43L589.57,166.73L594.44,168.82L599.32,170.62L604.19,164.04L609.06,170.47L613.93,172.12L618.81,164.63L623.68,166.73L628.55,162.69L633.42,170.92L638.3,164.48L643.17,174.36L648.04,169.12L652.91,162.54L657.79,171.97L662.66,178.7L672.4,174.21L677.28,175.86L682.15,177.5L687.02,187.53L691.89,189.62L696.77,188.27L706.51,182.89L711.38,179.6L716.26,183.34L721.13,182.44L726,183.79" style="vector-effect: none; fill: none; stroke: rgb(128, 128, 128); stroke-opacity: 1; stroke-width: 2px; opacity: 1;"/></g><g class="points"/><g class="text"/></g></g></g><g class="overplot"/><path class="xlines-above crisp" d="M0,0" style="fill: none;"/><path class="ylines-above crisp" d="M0,0" style="fill: none;"/><g class="overlines-above"/><g class="xaxislayer-above"><g class="xtick"><text text-anchor="middle" x="0" y="509" transform="translate(235.57999999999998,0)" style="font-family: 'Open Sans', verdana, arial, sans-serif; font-size: 12px; fill: rgb(42, 63, 95); fill-opacity: 1; white-space: pre; opacity: 1;">20</text></g><g class="xtick"><text text-anchor="middle" x="0" y="509" style="font-family: 'Open Sans', verdana, arial, sans-serif; font-size: 12px; fill: rgb(42, 63, 95); fill-opacity: 1; white-space: pre; opacity: 1;" transform="translate(333.03,0)">40</text></g><g class="xtick"><text text-anchor="middle" x="0" y="509" style="font-family: 'Open Sans', verdana, arial, sans-serif; font-size: 12px; fill: rgb(42, 63, 95); fill-opacity: 1; white-space: pre; opacity: 1;" transform="translate(430.48,0)">60</text></g><g class="xtick"><text text-anchor="middle" x="0" y="509" style="font-family: 'Open Sans', verdana, arial, sans-serif; font-size: 12px; fill: rgb(42, 63, 95); fill-opacity: 1; white-space: pre; opacity: 1;" transform="translate(527.9300000000001,0)">80</text></g><g class="xtick"><text text-anchor="middle" x="0" y="509" style="font-family: 'Open Sans', verdana, arial, sans-serif; font-size: 12px; fill: rgb(42, 63, 95); fill-opacity: 1; white-space: pre; opacity: 1;" transform="translate(625.38,0)">100</text></g><g class="xtick"><text text-anchor="middle" x="0" y="509" style="font-family: 'Open Sans', verdana, arial, sans-serif; font-size: 12px; fill: rgb(42, 63, 95); fill-opacity: 1; white-space: pre; opacity: 1;" transform="translate(722.83,0)">120</text></g><g class="xtick"><text text-anchor="middle" x="0" y="509" style="font-family: 'Open Sans', verdana, arial, sans-serif; font-size: 12px; fill: rgb(42, 63, 95); fill-opacity: 1; white-space: pre; opacity: 1;" transform="translate(820.28,0)">140</text></g></g><g class="yaxislayer-above"><g class="ytick"><text text-anchor="end" x="142" y="4.199999999999999" transform="translate(0,494.75)" style="font-family: 'Open Sans', verdana, arial, sans-serif; font-size: 12px; fill: rgb(42, 63, 95); fill-opacity: 1; white-space: pre; opacity: 1;">50</text></g><g class="ytick"><text text-anchor="end" x="142" y="4.199999999999999" style="font-family: 'Open Sans', verdana, arial, sans-serif; font-size: 12px; fill: rgb(42, 63, 95); fill-opacity: 1; white-space: pre; opacity: 1;" transform="translate(0,419.94)">55</text></g><g class="ytick"><text text-anchor="end" x="142" y="4.199999999999999" style="font-family: 'Open Sans', verdana, arial, sans-serif; font-size: 12px; fill: rgb(42, 63, 95); fill-opacity: 1; white-space: pre; opacity: 1;" transform="translate(0,345.13)">60</text></g><g class="ytick"><text text-anchor="end" x="142" y="4.199999999999999" style="font-family: 'Open Sans', verdana, arial, sans-serif; font-size: 12px; fill: rgb(42, 63, 95); fill-opacity: 1; white-space: pre; opacity: 1;" transform="translate(0,270.32)">65</text></g><g class="ytick"><text text-anchor="end" x="142" y="4.199999999999999" style="font-family: 'Open Sans', verdana, arial, sans-serif; font-size: 12px; fill: rgb(42, 63, 95); fill-opacity: 1; white-space: pre; opacity: 1;" transform="translate(0,195.51)">70</text></g><g class="ytick"><text text-anchor="end" x="142" y="4.199999999999999" style="font-family: 'Open Sans', verdana, arial, sans-serif; font-size: 12px; fill: rgb(42, 63, 95); fill-opacity: 1; white-space: pre; opacity: 1;" transform="translate(0,120.7)">75</text></g></g><g class="overaxes-above"/></g></g><g class="polarlayer"/><g class="smithlayer"/><g class="ternarylayer"/><g class="geolayer"/><g class="funnelarealayer"/><g class="pielayer"/><g class="iciclelayer"/><g class="treemaplayer"/><g class="sunburstlayer"/><g class="glimages"/><defs id="topdefs-34b2b3"><g class="clips"/><clipPath id="legend34b2b3"><rect width="128" height="162" x="0" y="0"/></clipPath></defs><g class="layer-above"><g class="imagelayer"/><g class="shapelayer"/></g><g class="infolayer"><g class="legend" pointer-events="all" transform="translate(883.52,100)"><rect class="bg" shape-rendering="crispEdges" width="128" height="162" x="0" y="0" style="stroke: rgb(68, 68, 68); stroke-opacity: 1; fill: rgb(255, 255, 255); fill-opacity: 1; stroke-width: 0px;"/><g class="scrollbox" transform="" clip-path="url(#legend34b2b3)"><g class="groups"><g class="traces" transform="translate(0,14.5)" style="opacity: 1;"><text class="legendtext" text-anchor="start" x="40" y="4.680000000000001" style="font-family: 'Open Sans', verdana, arial, sans-serif; font-size: 12px; fill: rgb(42, 63, 95); fill-opacity: 1; white-space: pre;">Train Accuracy</text><g class="layers" style="opacity: 1;"><g class="legendfill"/><g class="legendlines"><path class="js-line" d="M5,0h30" style="fill: none; stroke: rgb(255, 0, 0); stroke-opacity: 1; stroke-width: 2px;"/></g><g class="legendsymbols"><g class="legendpoints"/></g></g><rect class="legendtoggle" x="0" y="-9.5" width="122.71875" height="19" style="fill: rgb(0, 0, 0); fill-opacity: 0;"/></g><g class="traces" transform="translate(0,33.5)" style="opacity: 1;"><text class="legendtext" text-anchor="start" x="40" y="4.680000000000001" style="font-family: 'Open Sans', verdana, arial, sans-serif; font-size: 12px; fill: rgb(42, 63, 95); fill-opacity: 1; white-space: pre;">Test Accuracy</text><g class="layers" style="opacity: 1;"><g class="legendfill"/><g class="legendlines"><path class="js-line" d="M5,0h30" style="fill: none; stroke: rgb(0, 0, 255); stroke-opacity: 1; stroke-width: 2px;"/></g><g class="legendsymbols"><g class="legendpoints"/></g></g><rect class="legendtoggle" x="0" y="-9.5" width="122.71875" height="19" style="fill: rgb(0, 0, 0); fill-opacity: 0;"/></g><g class="traces" transform="translate(0,52.5)" style="opacity: 1;"><text class="legendtext" text-anchor="start" x="40" y="4.680000000000001" style="font-family: 'Open Sans', verdana, arial, sans-serif; font-size: 12px; fill: rgb(42, 63, 95); fill-opacity: 1; white-space: pre;">Train Precision</text><g class="layers" style="opacity: 1;"><g class="legendfill"/><g class="legendlines"><path class="js-line" d="M5,0h30" style="fill: none; stroke: rgb(0, 128, 0); stroke-opacity: 1; stroke-width: 2px;"/></g><g class="legendsymbols"><g class="legendpoints"/></g></g><rect class="legendtoggle" x="0" y="-9.5" width="122.71875" height="19" style="fill: rgb(0, 0, 0); fill-opacity: 0;"/></g><g class="traces" transform="translate(0,71.5)" style="opacity: 1;"><text class="legendtext" text-anchor="start" x="40" y="4.680000000000001" style="font-family: 'Open Sans', verdana, arial, sans-serif; font-size: 12px; fill: rgb(42, 63, 95); fill-opacity: 1; white-space: pre;">Test Precision</text><g class="layers" style="opacity: 1;"><g class="legendfill"/><g class="legendlines"><path class="js-line" d="M5,0h30" style="fill: none; stroke: rgb(255, 165, 0); stroke-opacity: 1; stroke-width: 2px;"/></g><g class="legendsymbols"><g class="legendpoints"/></g></g><rect class="legendtoggle" x="0" y="-9.5" width="122.71875" height="19" style="fill: rgb(0, 0, 0); fill-opacity: 0;"/></g><g class="traces" transform="translate(0,90.5)" style="opacity: 1;"><text class="legendtext" text-anchor="start" x="40" y="4.680000000000001" style="font-family: 'Open Sans', verdana, arial, sans-serif; font-size: 12px; fill: rgb(42, 63, 95); fill-opacity: 1; white-space: pre;">Train Recall</text><g class="layers" style="opacity: 1;"><g class="legendfill"/><g class="legendlines"><path class="js-line" d="M5,0h30" style="fill: none; stroke: rgb(128, 0, 128); stroke-opacity: 1; stroke-width: 2px;"/></g><g class="legendsymbols"><g class="legendpoints"/></g></g><rect class="legendtoggle" x="0" y="-9.5" width="122.71875" height="19" style="fill: rgb(0, 0, 0); fill-opacity: 0;"/></g><g class="traces" transform="translate(0,109.5)" style="opacity: 1;"><text class="legendtext" text-anchor="start" x="40" y="4.680000000000001" style="font-family: 'Open Sans', verdana, arial, sans-serif; font-size: 12px; fill: rgb(42, 63, 95); fill-opacity: 1; white-space: pre;">Test Recall</text><g class="layers" style="opacity: 1;"><g class="legendfill"/><g class="legendlines"><path class="js-line" d="M5,0h30" style="fill: none; stroke: rgb(255, 192, 203); stroke-opacity: 1; stroke-width: 2px;"/></g><g class="legendsymbols"><g class="legendpoints"/></g></g><rect class="legendtoggle" x="0" y="-9.5" width="122.71875" height="19" style="fill: rgb(0, 0, 0); fill-opacity: 0;"/></g><g class="traces" transform="translate(0,128.5)" style="opacity: 1;"><text class="legendtext" text-anchor="start" x="40" y="4.680000000000001" style="font-family: 'Open Sans', verdana, arial, sans-serif; font-size: 12px; fill: rgb(42, 63, 95); fill-opacity: 1; white-space: pre;">Train F1</text><g class="layers" style="opacity: 1;"><g class="legendfill"/><g class="legendlines"><path class="js-line" d="M5,0h30" style="fill: none; stroke: rgb(165, 42, 42); stroke-opacity: 1; stroke-width: 2px;"/></g><g class="legendsymbols"><g class="legendpoints"/></g></g><rect class="legendtoggle" x="0" y="-9.5" width="122.71875" height="19" style="fill: rgb(0, 0, 0); fill-opacity: 0;"/></g><g class="traces" transform="translate(0,147.5)" style="opacity: 1;"><text class="legendtext" text-anchor="start" x="40" y="4.680000000000001" style="font-family: 'Open Sans', verdana, arial, sans-serif; font-size: 12px; fill: rgb(42, 63, 95); fill-opacity: 1; white-space: pre;">Test F1</text><g class="layers" style="opacity: 1;"><g class="legendfill"/><g class="legendlines"><path class="js-line" d="M5,0h30" style="fill: none; stroke: rgb(128, 128, 128); stroke-opacity: 1; stroke-width: 2px;"/></g><g class="legendsymbols"><g class="legendpoints"/></g></g><rect class="legendtoggle" x="0" y="-9.5" width="122.71875" height="19" style="fill: rgb(0, 0, 0); fill-opacity: 0;"/></g></g></g><rect class="scrollbar" rx="20" ry="3" width="0" height="0" x="0" y="0" style="fill: rgb(128, 139, 164); fill-opacity: 1;"/></g><g class="g-gtitle"><text class="gtitle" x="51.2" y="50" text-anchor="start" dy="0em" style="font-family: 'Open Sans', verdana, arial, sans-serif; font-size: 17px; fill: rgb(42, 63, 95); opacity: 1; font-weight: normal; white-space: pre;">Training Metrics - logs/FakeNewsNet-gossipcop_max-vocab=15000_pre=v2_text_T=50_s=15.log</text></g><g class="g-xtitle"><text class="xtitle" x="506" y="537.3" text-anchor="middle" style="font-family: 'Open Sans', verdana, arial, sans-serif; font-size: 14px; fill: rgb(42, 63, 95); opacity: 1; font-weight: normal; white-space: pre;">Epoch</text></g><g class="g-ytitle"><text class="ytitle" transform="rotate(-90,103.965625,298)" x="103.965625" y="298" text-anchor="middle" style="font-family: 'Open Sans', verdana, arial, sans-serif; font-size: 14px; fill: rgb(42, 63, 95); opacity: 1; font-weight: normal; white-space: pre;">Metric Score</text></g></g><g class="menulayer"><g class="updatemenu-container" style="cursor: pointer;"><g class="updatemenu-header-group" transform="translate(12,60)"><g class="updatemenu-header" transform="translate(1,1)" style="pointer-events: all;"><rect class="updatemenu-item-rect" rx="2" ry="2" shape-rendering="crispEdges" x="0" y="0" width="167" height="33" style="stroke: rgb(190, 200, 217); stroke-opacity: 1; fill: rgb(255, 255, 255); fill-opacity: 1; stroke-width: 1px;"/><text class="updatemenu-item-text" text-anchor="start" data-notex="1" x="12" y="19.5" style="font-family: 'Open Sans', verdana, arial, sans-serif; font-size: 12px; fill: rgb(42, 63, 95); fill-opacity: 1; white-space: pre;">All</text></g><text class="updatemenu-header-arrow" text-anchor="end" x="163" y="19.5" style="font-family: 'Open Sans', verdana, arial, sans-serif; font-size: 12px; fill: rgb(42, 63, 95); fill-opacity: 1;">▼</text></g><g class="updatemenu-dropdown-button-group" updatemenu-active-index="-1" style="pointer-events: all;"><rect class="scrollbox-bg" opacity="0" x="0" y="0" width="0" height="0" style="pointer-events: all;"/></g></g></g></svg>