<svg class="main-svg" xmlns="http://www.w3.org/2000/svg" xmlns:xlink="http://www.w3.org/1999/xlink" width="1024" height="576" style="" viewBox="0 0 1024 576"><rect x="0" y="0" width="1024" height="576" style="fill: rgb(255, 255, 255); fill-opacity: 1;"/><defs id="defs-8d0737"><g class="clips"><clipPath id="clip8d0737xyplot" class="plotclip"><rect width="726" height="396"/></clipPath><clipPath class="axesclip" id="clip8d0737x"><rect x="143" y="0" width="726" height="576"/></clipPath><clipPath class="axesclip" id="clip8d0737y"><rect x="0" y="100" width="1024" height="396"/></clipPath><clipPath class="axesclip" id="clip8d0737xy"><rect x="143" y="100" width="726" height="396"/></clipPath></g><g class="gradients"/><g class="patterns"/></defs><g class="bglayer"><rect class="bg" x="143" y="100" width="726" height="396" style="fill: rgb(229, 236, 246); fill-opacity: 1; stroke-width: 0;"/></g><g class="layer-below"><g class="imagelayer"/><g class="shapelayer"/></g><g class="cartesianlayer"><g class="subplot xy"><g class="layer-subplot"><g class="shapelayer"/><g class="imagelayer"/></g><g class="minor-gridlayer"><g class="x"/><g class="y"/></g><g class="gridlayer"><g class="x"><path class="xgrid crisp" transform="translate(235.57999999999998,0)" d="M0,100v396" style="stroke: rgb(255, 255, 255); stroke-opacity: 1; stroke-width: 1px;"/><path class="xgrid crisp" transform="translate(333.03,0)" d="M0,100v396" style="stroke: rgb(255, 255, 255); stroke-opacity: 1; stroke-width: 1px;"/><path class="xgrid crisp" transform="translate(430.48,0)" d="M0,100v396" style="stroke: rgb(255, 255, 255); stroke-opacity: 1; stroke-width: 1px;"/><path class="xgrid crisp" transform="translate(527.9300000000001,0)" d="M0,100v396" style="stroke: rgb(255, 255, 255); stroke-opacity: 1; stroke-width: 1px;"/><path class="xgrid crisp" transform="translate(625.38,0)" d="M0,100v396" style="stroke: rgb(255, 255, 255); stroke-opacity: 1; stroke-width: 1px;"/><path class="xgrid crisp" transform="translate(722.83,0)" d="M0,100v396" style="stroke: rgb(255, 255, 255); stroke-opacity: 1; stroke-width: 1px;"/><path class="xgrid crisp" transform="translate(820.28,0)" d="M0,100v396" style="stroke: rgb(255, 255, 255); stroke-opacity: 1; stroke-width: 1px;"/></g><g class="y"><path class="ygrid crisp" transform="translate(0,471.36)" d="M143,0h726" style="stroke: rgb(255, 255, 255); stroke-opacity: 1; stroke-width: 1px;"/><path class="ygrid crisp" transform="translate(0,422)" d="M143,0h726" style="stroke: rgb(255, 255, 255); stroke-opacity: 1; stroke-width: 1px;"/><path class="ygrid crisp" transform="translate(0,372.64)" d="M143,0h726" style="stroke: rgb(255, 255, 255); stroke-opacity: 1; stroke-width: 1px;"/><path class="ygrid crisp" transform="translate(0,323.27)" d="M143,0h726" style="stroke: rgb(255, 255, 255); stroke-opacity: 1; stroke-width: 1px;"/><path class="ygrid crisp" transform="translate(0,273.90999999999997)" d="M143,0h726" style="stroke: rgb(255, 255, 255); stroke-opacity: 1; stroke-width: 1px;"/><path class="ygrid crisp" transform="translate(0,224.55)" d="M143,0h726" style="stroke: rgb(255, 255, 255); stroke-opacity: 1; stroke-width: 1px;"/><path class="ygrid crisp" transform="translate(0,175.19)" d="M143,0h726" style="stroke: rgb(255, 255, 255); stroke-opacity: 1; stroke-width: 1px;"/><path class="ygrid crisp" transform="translate(0,125.82)" d="M143,0h726" style="stroke: rgb(255, 255, 255); stroke-opacity: 1; stroke-width: 1px;"/></g></g><g class="zerolinelayer"/><path class="xlines-below"/><path class="ylines-below"/><g class="overlines-below"/><g class="xaxislayer-below"/><g class="yaxislayer-below"/><g class="overaxes-below"/><g class="plot" transform="translate(143,100)" clip-path="url(#clip8d0737xyplot)"><g class="scatterlayer mlayer"><g class="trace scatter trace83c5f1" style="stroke-miterlimit: 2; opacity: 1;"><g class="fills"/><g class="errorbars"/><g class="lines"><path class="js-line" d="M0,202.94L4.87,199.38L9.74,175.98L14.62,153.77L19.49,146.76L24.36,140.94L29.23,131.56L34.11,296.53L38.98,311.73L43.85,318.74L48.72,305.81L53.6,309.36L58.47,306.99L63.34,280.14L68.21,282.51L73.09,264.94L77.96,260.2L82.83,229.79L87.7,228.7L92.58,216.96L97.45,67.19L102.32,64.92L107.19,54.35L112.07,57.91L116.94,69.56L121.81,58.99L126.68,54.35L131.56,54.35L136.43,49.71L141.3,53.17L146.17,58.99L151.05,54.35L155.92,57.91L165.66,53.17L170.54,53.17L175.41,49.71L180.28,61.36L185.15,70.74L190.03,60.18L194.9,53.17L199.77,53.17L209.52,48.53L214.39,55.54L219.26,53.17L224.13,56.72L229.01,55.54L233.88,48.53L238.75,58.99L243.62,56.72L248.5,58.99L253.37,54.35L258.24,53.17L263.11,58.99L272.86,54.35L277.73,62.55L282.6,62.55L287.48,64.92L292.35,58.99L297.22,61.36L302.09,58.99L306.97,50.9L311.84,53.17L316.71,51.98L321.58,54.35L326.46,54.35L331.33,55.54L336.2,61.36L341.07,56.72L345.95,62.55L355.69,55.54L360.56,58.99L365.44,64.92L370.31,66.1L375.18,57.91L380.05,58.99L384.93,60.18L389.8,58.99L394.67,53.17L399.54,50.9L404.42,51.98L409.29,60.18L414.16,58.99L419.03,53.17L423.91,55.54L428.78,50.9L433.65,57.91L438.52,56.72L443.4,54.35L448.27,58.99L453.14,61.36L458.01,51.98L467.76,54.35L472.63,42.7L477.5,41.52L482.38,46.16L487.25,41.52L492.12,54.35L496.99,55.54L501.87,58.99L506.74,57.91L511.61,43.79L516.48,57.91L521.36,58.99L526.23,53.17L531.1,37.97L535.97,42.7L540.85,54.35L545.72,56.72L550.59,48.53L555.46,39.15L560.34,37.97L570.08,37.97L574.95,41.52L579.83,37.97L584.7,50.9L589.57,46.16L594.44,50.9L599.32,57.91L604.19,50.9L609.06,53.17L613.93,49.71L618.81,47.34L623.68,49.71L628.55,51.98L633.42,51.98L638.3,50.9L643.17,54.35L648.04,50.9L652.91,43.79L657.79,37.97L662.66,36.78L667.53,41.52L672.4,44.98L677.28,51.98L682.15,49.71L687.02,34.51L691.89,33.33L696.77,36.78L701.64,35.69L706.51,33.33L711.38,49.71L716.26,48.53L721.13,56.72L726,49.71" style="vector-effect: none; fill: none; stroke: rgb(255, 0, 0); stroke-opacity: 1; stroke-width: 2px; opacity: 1;"/></g><g class="points"/><g class="text"/></g><g class="trace scatter trace5874b5" style="stroke-miterlimit: 2; opacity: 1;"><g class="fills"/><g class="errorbars"/><g class="lines"><path class="js-line" d="M0,287.54L4.87,231.67L9.74,203.73L14.62,213.01L19.49,194.45L24.36,189.71L29.23,194.45L34.11,338.78L38.98,338.78L43.85,352.7L48.72,338.78L53.6,343.42L58.47,329.4L63.34,320.12L68.21,329.4L73.09,315.48L77.96,310.84L82.83,287.54L87.7,282.9L92.58,273.53L97.45,143.21L102.32,129.19L107.19,133.83L112.07,138.57L116.94,157.13L121.81,147.85L126.68,161.77L131.56,152.49L136.43,152.49L141.3,157.13L146.17,152.49L151.05,157.13L155.92,152.49L160.79,147.85L165.66,133.83L170.54,129.19L175.41,133.83L180.28,138.57L185.15,138.57L190.03,133.83L194.9,143.21L199.77,129.19L204.64,133.83L209.52,133.83L214.39,124.55L219.26,129.19L224.13,129.19L233.88,138.57L238.75,138.57L243.62,138.57L248.5,147.85L253.37,152.49L258.24,147.85L263.11,143.21L267.99,152.49L272.86,138.57L277.73,138.57L282.6,129.19L287.48,138.57L297.22,138.57L302.09,129.19L311.84,138.57L316.71,124.55L321.58,143.21L326.46,129.19L331.33,133.83L336.2,124.55L341.07,124.55L345.95,138.57L350.82,133.83L355.69,133.83L360.56,157.13L365.44,138.57L370.31,152.49L375.18,133.83L380.05,129.19L384.93,115.27L389.8,129.19L394.67,110.53L399.54,119.91L404.42,119.91L409.29,119.91L414.16,129.19L419.03,129.19L423.91,115.27L428.78,129.19L433.65,138.57L438.52,133.83L443.4,143.21L448.27,143.21L453.14,133.83L458.01,138.57L462.89,129.19L467.76,124.55L472.63,115.27L477.5,101.25L482.38,124.55L487.25,110.53L492.12,129.19L501.87,138.57L506.74,147.85L511.61,119.91L516.48,138.57L526.23,147.85L531.1,119.91L535.97,115.27L540.85,129.19L545.72,133.83L550.59,124.55L555.46,124.55L560.34,119.91L565.21,115.27L570.08,105.89L574.95,101.25L579.83,110.53L584.7,119.91L589.57,119.91L594.44,119.91L599.32,124.55L604.19,129.19L609.06,124.55L613.93,138.57L618.81,129.19L623.68,138.57L628.55,124.55L633.42,133.83L638.3,138.57L643.17,138.57L648.04,124.55L652.91,119.91L657.79,119.91L662.66,110.53L667.53,110.53L672.4,110.53L677.28,129.19L682.15,124.55L687.02,105.89L691.89,110.53L696.77,105.89L701.64,105.89L706.51,101.25L711.38,129.19L716.26,129.19L726,119.91" style="vector-effect: none; fill: none; stroke: rgb(0, 0, 255); stroke-opacity: 1; stroke-width: 2px; opacity: 1;"/></g><g class="points"/><g class="text"/></g><g class="trace scatter trace687f21" style="stroke-miterlimit: 2; opacity: 1;"><g class="fills"/><g class="errorbars"/><g class="lines"><path class="js-line" d="M0,153.67L4.87,151.5L9.74,131.36L14.62,117.83L19.49,114.48L29.23,91.28L34.11,136.69L38.98,130.37L43.85,132.35L48.72,128.69L53.6,141.33L58.47,140.54L63.34,130.77L68.21,134.72L73.09,128L77.96,128.89L82.83,114.38L87.7,113.89L92.58,106.97L97.45,63.73L102.32,60.38L107.19,50.11L112.07,51.19L116.94,58.6L121.81,51.49L126.68,48.53L131.56,49.62L136.43,45.47L141.3,45.86L146.17,52.08L151.05,49.62L155.92,49.42L160.79,47.64L165.66,46.46L170.54,47.64L175.41,44.38L180.28,54.45L185.15,63.24L190.03,54.65L194.9,47.64L199.77,49.22L209.52,45.96L214.39,52.08L219.26,47.64L224.13,51.98L229.01,50.01L233.88,46.46L238.75,55.34L243.62,52.48L248.5,54.26L253.37,47.94L258.24,45.27L263.11,51.49L267.99,48.53L272.86,47.34L277.73,54.06L282.6,53.47L287.48,57.02L292.35,52.68L297.22,55.05L302.09,51.49L306.97,46.36L311.84,47.05L316.71,46.75L321.58,48.53L326.46,46.75L331.33,47.05L336.2,50.6L341.07,47.25L345.95,51.49L350.82,50.9L355.69,46.36L360.56,50.21L365.44,53.86L370.31,54.65L375.18,51.19L380.05,50.9L384.93,51.1L389.8,50.21L394.67,45.86L399.54,44.68L404.42,46.75L409.29,52.97L414.16,52.08L419.03,48.13L423.91,50.5L428.78,44.19L433.65,48.73L438.52,48.53L443.4,48.53L448.27,53.17L453.14,55.54L458.01,47.25L462.89,47.05L467.76,48.53L472.63,40.33L477.5,38.46L482.38,42.21L487.25,36.98L492.12,45.57L496.99,47.05L501.87,50.9L506.74,51.19L511.61,37.67L516.48,49.42L521.36,50.21L526.23,43.99L531.1,31.55L535.97,37.87L540.85,48.53L545.72,51.39L555.46,35.2L560.34,34.71L565.21,35.69L570.08,34.71L574.95,38.46L579.83,35.2L584.7,44.19L589.57,41.62L594.44,45.86L599.32,51.19L604.19,46.36L609.06,47.64L613.93,42.7L618.81,40.93L633.42,44.98L638.3,42.9L643.17,45.57L648.04,43.49L657.79,32.63L662.66,33.33L667.53,36.48L672.4,37.97L677.28,41.82L682.15,42.7L687.02,29.38L691.89,27.99L696.77,31.15L701.64,31.84L706.51,29.08L711.38,42.7L716.26,42.41L721.13,50.31L726,44.88" style="vector-effect: none; fill: none; stroke: rgb(0, 128, 0); stroke-opacity: 1; stroke-width: 2px; opacity: 1;"/></g><g class="points"/><g class="text"/></g><g class="trace scatter trace2a0a66" style="stroke-miterlimit: 2; opacity: 1;"><g class="fills"/><g class="errorbars"/><g class="lines"><path class="js-line" d="M0,244.2L9.74,163.54L14.62,185.56L19.49,170.16L24.36,151.11L29.23,158.11L34.11,167.49L38.98,153.87L43.85,157.42L48.72,153.87L53.6,169.07L58.47,164.33L63.34,161.08L68.21,164.33L73.09,159.5L77.96,157.92L82.83,159.5L87.7,166.51L92.58,162.46L102.32,120.99L107.19,129.98L112.07,127.31L116.94,146.07L121.81,142.61L126.68,155.15L131.56,145.87L136.43,145.87L141.3,154.56L146.17,148.64L151.05,154.56L155.92,148.64L160.79,142.61L165.66,132.64L170.54,126.62L175.41,129.98L180.28,133.24L185.15,133.24L190.03,127.21L194.9,144.39L199.77,129.19L204.64,135.11L209.52,132.64L214.39,125.73L219.26,126.62L224.13,126.62L229.01,132.64L233.88,140.94L238.75,140.94L243.62,138.57L248.5,147.85L253.37,148.64L258.24,142.61L263.11,139.26L267.99,145.87L272.86,130.37L277.73,133.24L282.6,120.99L287.48,136L292.35,133.24L297.22,133.24L302.09,126.62L311.84,133.24L316.71,125.73L321.58,141.92L326.46,131.56L331.33,137.38L336.2,125.73L341.07,123.26L345.95,136L350.82,127.21L355.69,129.98L360.56,146.07L365.44,130.37L370.31,136.4L375.18,120.99L380.05,123.96L384.93,108.46L389.8,117.93L394.67,105.3L399.54,117.34L404.42,114.58L409.29,114.58L414.16,123.96L419.03,129.19L423.91,116.45L433.65,130.37L438.52,129.98L443.4,141.92L448.27,139.26L453.14,129.98L458.01,133.24L462.89,123.96L467.76,117.83L472.63,116.45L477.5,105.79L482.38,125.73L487.25,110.53L492.12,123.96L496.99,127.21L501.87,130.37L506.74,136.69L511.61,117.34L516.48,130.37L521.36,133.53L526.23,139.75L531.1,117.34L535.97,113.98L540.85,123.96L545.72,127.21L550.59,120.7L555.46,125.73L560.34,122.28L565.21,116.45L570.08,107.17L574.95,103.62L579.83,112.9L584.7,117.34L589.57,117.34L594.44,119.91L604.19,126.62L609.06,123.26L613.93,133.24L618.81,126.62L623.68,127.31L628.55,117.83L633.42,127.21L638.3,133.24L643.17,133.24L648.04,117.83L652.91,119.91L657.79,117.34L662.66,110.53L667.53,110.53L672.4,108.06L677.28,120.99L682.15,117.83L687.02,104.7L691.89,108.06L696.77,107.17L701.64,107.17L706.51,103.62L711.38,123.96L716.26,126.62L726,114.58" style="vector-effect: none; fill: none; stroke: rgb(255, 165, 0); stroke-opacity: 1; stroke-width: 2px; opacity: 1;"/></g><g class="points"/><g class="text"/></g><g class="trace scatter trace442f0a" style="stroke-miterlimit: 2; opacity: 1;"><g class="fills"/><g class="errorbars"/><g class="lines"><path class="js-line" d="M0,171.74L4.87,168.68L9.74,146.66L14.62,127.51L19.49,121.78L24.36,113.69L29.23,103.72L34.11,239.56L38.98,251.51L43.85,257.53L48.72,246.47L53.6,250.62L58.47,248.65L63.34,225.45L68.21,227.82L73.09,212.71L77.96,209.06L82.83,182.5L87.7,181.51L92.58,171.05L97.45,56.03L102.32,52.87L107.19,42.21L112.07,44.09L116.94,53.37L121.81,44.68L126.68,41.12L131.56,41.82L136.43,37.47L141.3,38.95L146.17,45.07L151.05,41.82L155.92,42.9L165.66,39.25L170.54,40.04L175.41,36.68L180.28,47.54L185.15,56.72L190.03,47.25L194.9,40.04L199.77,41.22L209.52,37.57L214.39,43.99L219.26,40.04L224.13,44.28L229.01,42.51L233.88,37.97L238.75,47.44L243.62,44.68L248.5,46.65L253.37,40.73L258.24,38.56L263.11,44.68L267.99,41.91L272.86,40.33L277.73,47.74L282.6,47.34L287.48,50.5L292.35,45.47L297.22,47.94L302.09,44.68L306.97,38.46L311.84,39.64L316.71,39.05L321.58,41.12L326.46,39.94L331.33,40.53L336.2,45.17L341.07,41.12L345.95,46.16L350.82,44.28L355.69,40.14L360.56,43.99L365.44,48.63L370.31,49.62L375.18,44.09L380.05,44.28L384.93,44.98L389.8,43.99L394.67,38.95L399.54,37.27L404.42,39.05L409.29,46.16L414.16,45.07L419.03,40.43L423.91,42.9L428.78,36.88L433.65,42.51L438.52,41.91L443.4,41.12L448.27,45.86L453.14,48.23L458.01,39.45L462.89,39.64L467.76,41.12L472.63,31.75L477.5,29.97L482.38,34.02L487.25,28.78L492.12,39.15L496.99,40.53L501.87,44.28L506.74,44.09L511.61,30.07L516.48,42.9L521.36,43.99L526.23,37.77L531.1,23.85L535.97,29.87L540.85,41.12L545.72,43.89L555.46,26.81L560.34,26.22L565.21,27.01L570.08,26.22L574.95,29.97L579.83,26.61L584.7,36.88L589.57,33.62L594.44,38.06L599.32,44.09L604.19,38.46L609.06,40.04L613.93,35.5L618.81,33.52L633.42,37.87L638.3,36.09L643.17,39.15L648.04,36.48L657.79,24.64L662.66,24.84L667.53,28.49L672.4,30.66L677.28,35.99L682.15,35.5L687.02,21.28L691.89,19.8L696.77,23.26L701.64,23.45L706.51,20.59L711.38,35.5L716.26,34.91L721.13,43.1L726,37.08" style="vector-effect: none; fill: none; stroke: rgb(128, 0, 128); stroke-opacity: 1; stroke-width: 2px; opacity: 1;"/></g><g class="points"/><g class="text"/></g><g class="trace scatter tracec7bebe" style="stroke-miterlimit: 2; opacity: 1;"><g class="fills"/><g class="errorbars"/><g class="lines"><path class="js-line" d="M0,244.2L4.87,194.74L9.74,159.4L14.62,177.37L19.49,159.99L24.36,145.68L29.23,151.99L34.11,245.09L38.98,242.43L43.85,253.48L48.72,242.43L53.6,248.75L58.47,237.69L63.34,230.38L68.21,237.69L73.09,226.63L77.96,222.98L82.83,207.18L87.7,206.19L92.58,198.79L97.45,124.75L102.32,103.12L107.19,112.11L112.07,110.43L116.94,130.47L121.81,125.73L126.68,139.46L131.56,129.48L136.43,129.48L141.3,138.47L146.17,132.15L151.05,138.47L155.92,132.15L160.79,125.73L165.66,114.68L170.54,108.36L175.41,112.11L180.28,115.76L185.15,115.76L190.03,109.44L194.9,127.41L199.77,111.02L204.64,117.34L209.52,114.68L214.39,107.37L219.26,108.36L224.13,108.36L229.01,114.68L233.88,123.66L238.75,123.66L243.62,121.09L248.5,131.06L253.37,132.15L258.24,125.73L263.11,122.08L267.99,129.48L272.86,113.1L277.73,115.76L282.6,103.12L287.48,118.43L292.35,115.76L297.22,115.76L302.09,108.36L311.84,115.76L316.71,107.37L321.58,124.75L326.46,113.69L331.33,120.01L336.2,107.37L341.07,104.7L345.95,118.43L350.82,109.44L355.69,112.11L360.56,130.47L365.44,113.1L370.31,121.49L375.18,104.11L380.05,105.79L384.93,89.4L389.8,100.46L394.67,85.75L399.54,98.39L404.42,95.72L409.29,95.72L414.16,105.79L419.03,111.02L423.91,97.3L433.65,113.1L438.52,112.11L443.4,124.75L448.27,122.08L453.14,112.11L458.01,115.76L462.89,105.79L467.76,99.47L472.63,97.3L477.5,86.34L482.38,107.37L487.25,90.98L492.12,105.79L496.99,109.44L501.87,113.1L506.74,120.5L511.61,98.39L516.48,113.1L521.36,116.85L526.23,123.17L531.1,98.39L535.97,94.73L540.85,105.79L545.72,109.44L550.59,102.04L555.46,107.37L560.34,103.72L565.21,97.3L570.08,87.33L574.95,83.68L579.83,93.65L584.7,98.39L589.57,98.39L594.44,101.05L604.19,108.36L609.06,104.7L613.93,115.76L618.81,108.36L623.68,110.43L628.55,99.47L633.42,109.44L638.3,115.76L643.17,115.76L648.04,99.47L652.91,101.05L657.79,98.39L662.66,90.98L667.53,90.98L672.4,88.41L677.28,103.12L682.15,99.47L687.02,84.66L691.89,88.41L696.77,87.33L701.64,87.33L706.51,83.68L711.38,105.79L716.26,108.36L726,95.72" style="vector-effect: none; fill: none; stroke: rgb(255, 192, 203); stroke-opacity: 1; stroke-width: 2px; opacity: 1;"/></g><g class="points"/><g class="text"/></g><g class="trace scatter traceb7745e" style="stroke-miterlimit: 2; opacity: 1;"><g class="fills"/><g class="errorbars"/><g class="lines"><path class="js-line" d="M0,205.21L4.87,201.46L9.74,177.37L14.62,154.36L19.49,147.16L24.36,141.53L29.23,132.25L34.11,325.85L38.98,348.16L43.85,357.84L48.72,340.17L53.6,343.03L58.47,339.87L63.34,304.53L68.21,307.09L73.09,284.88L77.96,278.66L82.83,242.43L87.7,241.04L92.58,227.72L97.45,67.98L102.32,65.51L107.19,54.95L112.07,58.3L116.94,69.76L121.81,59.39L126.68,54.85L131.56,54.95L136.43,50.31L141.3,53.56L146.17,59.39L151.05,54.95L155.92,58.2L165.66,53.56L170.54,53.66L175.41,50.21L180.28,61.76L185.15,71.14L190.03,60.67L194.9,53.66L199.77,53.86L209.52,49.32L214.39,56.23L219.26,53.66L224.13,57.22L229.01,56.03L233.88,49.32L238.75,59.69L243.62,57.32L248.5,59.59L253.37,54.75L258.24,53.47L263.11,59.39L272.86,54.75L277.73,62.84L282.6,62.84L287.48,65.21L292.35,59.49L297.22,61.86L302.09,59.39L306.97,51.39L311.84,53.66L316.71,52.48L321.58,54.85L326.46,54.75L331.33,55.83L336.2,61.56L341.07,56.92L345.95,62.75L355.69,55.83L360.56,59.29L365.44,65.12L370.31,66.2L375.18,58.3L380.05,59.39L384.93,60.48L389.8,59.29L394.67,53.56L399.54,51.29L404.42,52.48L409.29,60.57L414.16,59.39L419.03,53.76L423.91,56.03L428.78,51.29L433.65,58.11L438.52,57.02L443.4,54.85L448.27,59.49L453.14,61.86L458.01,52.58L467.76,54.85L472.63,43.4L477.5,42.21L482.38,46.75L487.25,42.01L492.12,54.65L496.99,55.83L501.87,59.39L506.74,58.3L511.61,44.28L516.48,58.2L521.36,59.29L526.23,53.47L531.1,38.36L535.97,43.2L540.85,54.85L545.72,57.22L550.59,49.02L555.46,39.74L560.34,38.66L570.08,38.66L574.95,42.21L579.83,38.66L584.7,51.29L589.57,46.75L594.44,51.39L599.32,58.3L604.19,51.39L609.06,53.66L613.93,50.01L618.81,47.74L623.68,50.01L628.55,52.28L633.42,52.38L638.3,51.19L643.17,54.65L648.04,51.19L652.91,44.28L657.79,38.46L662.66,37.47L667.53,42.01L672.4,45.37L677.28,52.18L682.15,50.01L687.02,34.91L691.89,33.72L696.77,37.27L701.64,36.19L706.51,33.82L711.38,50.01L716.26,48.92L721.13,57.12L726,50.21" style="vector-effect: none; fill: none; stroke: rgb(165, 42, 42); stroke-opacity: 1; stroke-width: 2px; opacity: 1;"/></g><g class="points"/><g class="text"/></g><g class="trace scatter trace52576d" style="stroke-miterlimit: 2; opacity: 1;"><g class="fills"/><g class="errorbars"/><g class="lines"><path class="js-line" d="M0,287.54L4.87,232.16L9.74,203.82L14.62,213.8L19.49,195.43L24.36,189.9L29.23,194.64L34.11,356.65L38.98,358.53L43.85,376.2L48.72,358.53L53.6,362.48L58.47,345.3L63.34,334.04L68.21,345.3L73.09,328.52L77.96,322.99L82.83,294.85L87.7,288.63L92.58,278.26L97.45,147.55L102.32,131.95L107.19,137.48L112.07,140.84L116.94,159.69L121.81,151.3L126.68,165.22L131.56,155.75L136.43,155.75L141.3,161.37L146.17,156.34L151.05,161.37L155.92,156.34L160.79,151.3L165.66,138.07L170.54,133.04L175.41,137.48L180.28,141.92L185.15,141.92L190.03,136.89L194.9,148.24L199.77,133.63L204.64,138.76L209.52,138.07L214.39,129.29L219.26,133.04L224.13,133.04L233.88,143.8L238.75,143.8L243.62,143.11L248.5,152.59L253.37,156.34L258.24,151.3L263.11,146.96L267.99,155.75L272.86,141.33L277.73,141.92L282.6,131.95L287.48,142.52L297.22,141.92L302.09,133.04L311.84,141.92L316.71,129.29L321.58,147.55L326.46,134.32L331.33,139.46L336.2,129.29L341.07,128.6L345.95,142.52L350.82,136.89L355.69,137.48L360.56,159.69L365.44,141.33L370.31,154.26L375.18,135.9L380.05,132.45L384.93,118.03L389.8,131.46L394.67,113.59L399.54,123.56L404.42,123.07L409.29,123.07L414.16,132.45L419.03,133.63L423.91,119.81L428.78,132.45L433.65,141.33L438.52,137.48L443.4,147.55L448.27,146.96L453.14,137.48L458.01,141.92L462.89,132.45L467.76,127.51L472.63,119.81L477.5,106.48L482.38,129.29L487.25,114.68L492.12,132.45L501.87,141.33L506.74,150.22L511.61,123.56L516.48,141.33L526.23,150.81L531.1,123.56L535.97,119.12L540.85,132.45L545.72,136.89L550.59,128L555.46,129.29L560.34,124.84L565.21,119.81L570.08,110.23L574.95,105.79L579.83,115.37L584.7,123.56L589.57,123.56L594.44,124.15L599.32,128.6L604.19,133.04L609.06,128.6L613.93,141.92L618.81,133.04L623.68,140.84L628.55,127.51L633.42,136.89L638.3,141.92L643.17,141.92L648.04,127.51L652.91,124.15L657.79,123.56L662.66,114.68L667.53,114.68L672.4,114.18L677.28,131.95L682.15,127.51L687.02,109.64L691.89,114.18L696.77,110.23L701.64,110.23L706.51,105.79L711.38,132.45L716.26,133.04L726,123.07" style="vector-effect: none; fill: none; stroke: rgb(128, 128, 128); stroke-opacity: 1; stroke-width: 2px; opacity: 1;"/></g><g class="points"/><g class="text"/></g></g></g><g class="overplot"/><path class="xlines-above crisp" d="M0,0" style="fill: none;"/><path class="ylines-above crisp" d="M0,0" style="fill: none;"/><g class="overlines-above"/><g class="xaxislayer-above"><g class="xtick"><text text-anchor="middle" x="0" y="509" transform="translate(235.57999999999998,0)" style="font-family: 'Open Sans', verdana, arial, sans-serif; font-size: 12px; fill: rgb(42, 63, 95); fill-opacity: 1; white-space: pre; opacity: 1;">20</text></g><g class="xtick"><text text-anchor="middle" x="0" y="509" style="font-family: 'Open Sans', verdana, arial, sans-serif; font-size: 12px; fill: rgb(42, 63, 95); fill-opacity: 1; white-space: pre; opacity: 1;" transform="translate(333.03,0)">40</text></g><g class="xtick"><text text-anchor="middle" x="0" y="509" style="font-family: 'Open Sans', verdana, arial, sans-serif; font-size: 12px; fill: rgb(42, 63, 95); fill-opacity: 1; white-space: pre; opacity: 1;" transform="translate(430.48,0)">60</text></g><g class="xtick"><text text-anchor="middle" x="0" y="509" style="font-family: 'Open Sans', verdana, arial, sans-serif; font-size: 12px; fill: rgb(42, 63, 95); fill-opacity: 1; white-space: pre; opacity: 1;" transform="translate(527.9300000000001,0)">80</text></g><g class="xtick"><text text-anchor="middle" x="0" y="509" style="font-family: 'Open Sans', verdana, arial, sans-serif; font-size: 12px; fill: rgb(42, 63, 95); fill-opacity: 1; white-space: pre; opacity: 1;" transform="translate(625.38,0)">100</text></g><g class="xtick"><text text-anchor="middle" x="0" y="509" style="font-family: 'Open Sans', verdana, arial, sans-serif; font-size: 12px; fill: rgb(42, 63, 95); fill-opacity: 1; white-space: pre; opacity: 1;" transform="translate(722.83,0)">120</text></g><g class="xtick"><text text-anchor="middle" x="0" y="509" style="font-family: 'Open Sans', verdana, arial, sans-serif; font-size: 12px; fill: rgb(42, 63, 95); fill-opacity: 1; white-space: pre; opacity: 1;" transform="translate(820.28,0)">140</text></g></g><g class="yaxislayer-above"><g class="ytick"><text text-anchor="end" x="142" y="4.199999999999999" transform="translate(0,471.36)" style="font-family: 'Open Sans', verdana, arial, sans-serif; font-size: 12px; fill: rgb(42, 63, 95); fill-opacity: 1; white-space: pre; opacity: 1;">50</text></g><g class="ytick"><text text-anchor="end" x="142" y="4.199999999999999" style="font-family: 'Open Sans', verdana, arial, sans-serif; font-size: 12px; fill: rgb(42, 63, 95); fill-opacity: 1; white-space: pre; opacity: 1;" transform="translate(0,422)">55</text></g><g class="ytick"><text text-anchor="end" x="142" y="4.199999999999999" style="font-family: 'Open Sans', verdana, arial, sans-serif; font-size: 12px; fill: rgb(42, 63, 95); fill-opacity: 1; white-space: pre; opacity: 1;" transform="translate(0,372.64)">60</text></g><g class="ytick"><text text-anchor="end" x="142" y="4.199999999999999" style="font-family: 'Open Sans', verdana, arial, sans-serif; font-size: 12px; fill: rgb(42, 63, 95); fill-opacity: 1; white-space: pre; opacity: 1;" transform="translate(0,323.27)">65</text></g><g class="ytick"><text text-anchor="end" x="142" y="4.199999999999999" style="font-family: 'Open Sans', verdana, arial, sans-serif; font-size: 12px; fill: rgb(42, 63, 95); fill-opacity: 1; white-space: pre; opacity: 1;" transform="translate(0,273.90999999999997)">70</text></g><g class="ytick"><text text-anchor="end" x="142" y="4.199999999999999" style="font-family: 'Open Sans', verdana, arial, sans-serif; font-size: 12px; fill: rgb(42, 63, 95); fill-opacity: 1; white-space: pre; opacity: 1;" transform="translate(0,224.55)">75</text></g><g class="ytick"><text text-anchor="end" x="142" y="4.199999999999999" style="font-family: 'Open Sans', verdana, arial, sans-serif; font-size: 12px; fill: rgb(42, 63, 95); fill-opacity: 1; white-space: pre; opacity: 1;" transform="translate(0,175.19)">80</text></g><g class="ytick"><text text-anchor="end" x="142" y="4.199999999999999" style="font-family: 'Open Sans', verdana, arial, sans-serif; font-size: 12px; fill: rgb(42, 63, 95); fill-opacity: 1; white-space: pre; opacity: 1;" transform="translate(0,125.82)">85</text></g></g><g class="overaxes-above"/></g></g><g class="polarlayer"/><g class="smithlayer"/><g class="ternarylayer"/><g class="geolayer"/><g class="funnelarealayer"/><g class="pielayer"/><g class="iciclelayer"/><g class="treemaplayer"/><g class="sunburstlayer"/><g class="glimages"/><defs id="topdefs-8d0737"><g class="clips"/><clipPath id="legend8d0737"><rect width="128" height="162" x="0" y="0"/></clipPath></defs><g class="layer-above"><g class="imagelayer"/><g class="shapelayer"/></g><g class="infolayer"><g class="legend" pointer-events="all" transform="translate(883.52,100)"><rect class="bg" shape-rendering="crispEdges" width="128" height="162" x="0" y="0" style="stroke: rgb(68, 68, 68); stroke-opacity: 1; fill: rgb(255, 255, 255); fill-opacity: 1; stroke-width: 0px;"/><g class="scrollbox" transform="" clip-path="url(#legend8d0737)"><g class="groups"><g class="traces" transform="translate(0,14.5)" style="opacity: 1;"><text class="legendtext" text-anchor="start" x="40" y="4.680000000000001" style="font-family: 'Open Sans', verdana, arial, sans-serif; font-size: 12px; fill: rgb(42, 63, 95); fill-opacity: 1; white-space: pre;">Train Accuracy</text><g class="layers" style="opacity: 1;"><g class="legendfill"/><g class="legendlines"><path class="js-line" d="M5,0h30" style="fill: none; stroke: rgb(255, 0, 0); stroke-opacity: 1; stroke-width: 2px;"/></g><g class="legendsymbols"><g class="legendpoints"/></g></g><rect class="legendtoggle" x="0" y="-9.5" width="122.71875" height="19" style="fill: rgb(0, 0, 0); fill-opacity: 0;"/></g><g class="traces" transform="translate(0,33.5)" style="opacity: 1;"><text class="legendtext" text-anchor="start" x="40" y="4.680000000000001" style="font-family: 'Open Sans', verdana, arial, sans-serif; font-size: 12px; fill: rgb(42, 63, 95); fill-opacity: 1; white-space: pre;">Test Accuracy</text><g class="layers" style="opacity: 1;"><g class="legendfill"/><g class="legendlines"><path class="js-line" d="M5,0h30" style="fill: none; stroke: rgb(0, 0, 255); stroke-opacity: 1; stroke-width: 2px;"/></g><g class="legendsymbols"><g class="legendpoints"/></g></g><rect class="legendtoggle" x="0" y="-9.5" width="122.71875" height="19" style="fill: rgb(0, 0, 0); fill-opacity: 0;"/></g><g class="traces" transform="translate(0,52.5)" style="opacity: 1;"><text class="legendtext" text-anchor="start" x="40" y="4.680000000000001" style="font-family: 'Open Sans', verdana, arial, sans-serif; font-size: 12px; fill: rgb(42, 63, 95); fill-opacity: 1; white-space: pre;">Train Precision</text><g class="layers" style="opacity: 1;"><g class="legendfill"/><g class="legendlines"><path class="js-line" d="M5,0h30" style="fill: none; stroke: rgb(0, 128, 0); stroke-opacity: 1; stroke-width: 2px;"/></g><g class="legendsymbols"><g class="legendpoints"/></g></g><rect class="legendtoggle" x="0" y="-9.5" width="122.71875" height="19" style="fill: rgb(0, 0, 0); fill-opacity: 0;"/></g><g class="traces" transform="translate(0,71.5)" style="opacity: 1;"><text class="legendtext" text-anchor="start" x="40" y="4.680000000000001" style="font-family: 'Open Sans', verdana, arial, sans-serif; font-size: 12px; fill: rgb(42, 63, 95); fill-opacity: 1; white-space: pre;">Test Precision</text><g class="layers" style="opacity: 1;"><g class="legendfill"/><g class="legendlines"><path class="js-line" d="M5,0h30" style="fill: none; stroke: rgb(255, 165, 0); stroke-opacity: 1; stroke-width: 2px;"/></g><g class="legendsymbols"><g class="legendpoints"/></g></g><rect class="legendtoggle" x="0" y="-9.5" width="122.71875" height="19" style="fill: rgb(0, 0, 0); fill-opacity: 0;"/></g><g class="traces" transform="translate(0,90.5)" style="opacity: 1;"><text class="legendtext" text-anchor="start" x="40" y="4.680000000000001" style="font-family: 'Open Sans', verdana, arial, sans-serif; font-size: 12px; fill: rgb(42, 63, 95); fill-opacity: 1; white-space: pre;">Train Recall</text><g class="layers" style="opacity: 1;"><g class="legendfill"/><g class="legendlines"><path class="js-line" d="M5,0h30" style="fill: none; stroke: rgb(128, 0, 128); stroke-opacity: 1; stroke-width: 2px;"/></g><g class="legendsymbols"><g class="legendpoints"/></g></g><rect class="legendtoggle" x="0" y="-9.5" width="122.71875" height="19" style="fill: rgb(0, 0, 0); fill-opacity: 0;"/></g><g class="traces" transform="translate(0,109.5)" style="opacity: 1;"><text class="legendtext" text-anchor="start" x="40" y="4.680000000000001" style="font-family: 'Open Sans', verdana, arial, sans-serif; font-size: 12px; fill: rgb(42, 63, 95); fill-opacity: 1; white-space: pre;">Test Recall</text><g class="layers" style="opacity: 1;"><g class="legendfill"/><g class="legendlines"><path class="js-line" d="M5,0h30" style="fill: none; stroke: rgb(255, 192, 203); stroke-opacity: 1; stroke-width: 2px;"/></g><g class="legendsymbols"><g class="legendpoints"/></g></g><rect class="legendtoggle" x="0" y="-9.5" width="122.71875" height="19" style="fill: rgb(0, 0, 0); fill-opacity: 0;"/></g><g class="traces" transform="translate(0,128.5)" style="opacity: 1;"><text class="legendtext" text-anchor="start" x="40" y="4.680000000000001" style="font-family: 'Open Sans', verdana, arial, sans-serif; font-size: 12px; fill: rgb(42, 63, 95); fill-opacity: 1; white-space: pre;">Train F1</text><g class="layers" style="opacity: 1;"><g class="legendfill"/><g class="legendlines"><path class="js-line" d="M5,0h30" style="fill: none; stroke: rgb(165, 42, 42); stroke-opacity: 1; stroke-width: 2px;"/></g><g class="legendsymbols"><g class="legendpoints"/></g></g><rect class="legendtoggle" x="0" y="-9.5" width="122.71875" height="19" style="fill: rgb(0, 0, 0); fill-opacity: 0;"/></g><g class="traces" transform="translate(0,147.5)" style="opacity: 1;"><text class="legendtext" text-anchor="start" x="40" y="4.680000000000001" style="font-family: 'Open Sans', verdana, arial, sans-serif; font-size: 12px; fill: rgb(42, 63, 95); fill-opacity: 1; white-space: pre;">Test F1</text><g class="layers" style="opacity: 1;"><g class="legendfill"/><g class="legendlines"><path class="js-line" d="M5,0h30" style="fill: none; stroke: rgb(128, 128, 128); stroke-opacity: 1; stroke-width: 2px;"/></g><g class="legendsymbols"><g class="legendpoints"/></g></g><rect class="legendtoggle" x="0" y="-9.5" width="122.71875" height="19" style="fill: rgb(0, 0, 0); fill-opacity: 0;"/></g></g></g><rect class="scrollbar" rx="20" ry="3" width="0" height="0" x="0" y="0" style="fill: rgb(128, 139, 164); fill-opacity: 1;"/></g><g class="g-gtitle"><text class="gtitle" x="51.2" y="50" text-anchor="start" dy="0em" style="font-family: 'Open Sans', verdana, arial, sans-serif; font-size: 17px; fill: rgb(42, 63, 95); opacity: 1; font-weight: normal; white-space: pre;">Training Metrics - logs/FakeNewsNet-politifact_max-vocab=15000_pre=v2_text_T=200_s=5.log</text></g><g class="g-xtitle"><text class="xtitle" x="506" y="537.3" text-anchor="middle" style="font-family: 'Open Sans', verdana, arial, sans-serif; font-size: 14px; fill: rgb(42, 63, 95); opacity: 1; font-weight: normal; white-space: pre;">Epoch</text></g><g class="g-ytitle"><text class="ytitle" transform="rotate(-90,103.965625,298)" x="103.965625" y="298" text-anchor="middle" style="font-family: 'Open Sans', verdana, arial, sans-serif; font-size: 14px; fill: rgb(42, 63, 95); opacity: 1; font-weight: normal; white-space: pre;">Metric Score</text></g></g><g class="menulayer"><g class="updatemenu-container" style="cursor: pointer;"><g class="updatemenu-header-group" transform="translate(12,60)"><g class="updatemenu-header" transform="translate(1,1)" style="pointer-events: all;"><rect class="updatemenu-item-rect" rx="2" ry="2" shape-rendering="crispEdges" x="0" y="0" width="167" height="33" style="stroke: rgb(190, 200, 217); stroke-opacity: 1; fill: rgb(255, 255, 255); fill-opacity: 1; stroke-width: 1px;"/><text class="updatemenu-item-text" text-anchor="start" data-notex="1" x="12" y="19.5" style="font-family: 'Open Sans', verdana, arial, sans-serif; font-size: 12px; fill: rgb(42, 63, 95); fill-opacity: 1; white-space: pre;">All</text></g><text class="updatemenu-header-arrow" text-anchor="end" x="163" y="19.5" style="font-family: 'Open Sans', verdana, arial, sans-serif; font-size: 12px; fill: rgb(42, 63, 95); fill-opacity: 1;">▼</text></g><g class="updatemenu-dropdown-button-group" updatemenu-active-index="-1" style="pointer-events: all;"><rect class="scrollbox-bg" opacity="0" x="0" y="0" width="0" height="0" style="pointer-events: all;"/></g></g></g></svg>