<svg class="main-svg" xmlns="http://www.w3.org/2000/svg" xmlns:xlink="http://www.w3.org/1999/xlink" width="1024" height="576" style="" viewBox="0 0 1024 576"><rect x="0" y="0" width="1024" height="576" style="fill: rgb(255, 255, 255); fill-opacity: 1;"/><defs id="defs-e93316"><g class="clips"><clipPath id="clipe93316xyplot" class="plotclip"><rect width="726" height="396"/></clipPath><clipPath class="axesclip" id="clipe93316x"><rect x="143" y="0" width="726" height="576"/></clipPath><clipPath class="axesclip" id="clipe93316y"><rect x="0" y="100" width="1024" height="396"/></clipPath><clipPath class="axesclip" id="clipe93316xy"><rect x="143" y="100" width="726" height="396"/></clipPath></g><g class="gradients"/><g class="patterns"/></defs><g class="bglayer"><rect class="bg" x="143" y="100" width="726" height="396" style="fill: rgb(229, 236, 246); fill-opacity: 1; stroke-width: 0;"/></g><g class="layer-below"><g class="imagelayer"/><g class="shapelayer"/></g><g class="cartesianlayer"><g class="subplot xy"><g class="layer-subplot"><g class="shapelayer"/><g class="imagelayer"/></g><g class="minor-gridlayer"><g class="x"/><g class="y"/></g><g class="gridlayer"><g class="x"><path class="xgrid crisp" transform="translate(235.57999999999998,0)" d="M0,100v396" style="stroke: rgb(255, 255, 255); stroke-opacity: 1; stroke-width: 1px;"/><path class="xgrid crisp" transform="translate(333.03,0)" d="M0,100v396" style="stroke: rgb(255, 255, 255); stroke-opacity: 1; stroke-width: 1px;"/><path class="xgrid crisp" transform="translate(430.48,0)" d="M0,100v396" style="stroke: rgb(255, 255, 255); stroke-opacity: 1; stroke-width: 1px;"/><path class="xgrid crisp" transform="translate(527.9300000000001,0)" d="M0,100v396" style="stroke: rgb(255, 255, 255); stroke-opacity: 1; stroke-width: 1px;"/><path class="xgrid crisp" transform="translate(625.38,0)" d="M0,100v396" style="stroke: rgb(255, 255, 255); stroke-opacity: 1; stroke-width: 1px;"/><path class="xgrid crisp" transform="translate(722.83,0)" d="M0,100v396" style="stroke: rgb(255, 255, 255); stroke-opacity: 1; stroke-width: 1px;"/><path class="xgrid crisp" transform="translate(820.28,0)" d="M0,100v396" style="stroke: rgb(255, 255, 255); stroke-opacity: 1; stroke-width: 1px;"/></g><g class="y"><path class="ygrid crisp" transform="translate(0,460.65)" d="M143,0h726" style="stroke: rgb(255, 255, 255); stroke-opacity: 1; stroke-width: 1px;"/><path class="ygrid crisp" transform="translate(0,419.18)" d="M143,0h726" style="stroke: rgb(255, 255, 255); stroke-opacity: 1; stroke-width: 1px;"/><path class="ygrid crisp" transform="translate(0,377.72)" d="M143,0h726" style="stroke: rgb(255, 255, 255); stroke-opacity: 1; stroke-width: 1px;"/><path class="ygrid crisp" transform="translate(0,336.25)" d="M143,0h726" style="stroke: rgb(255, 255, 255); stroke-opacity: 1; stroke-width: 1px;"/><path class="ygrid crisp" transform="translate(0,294.78999999999996)" d="M143,0h726" style="stroke: rgb(255, 255, 255); stroke-opacity: 1; stroke-width: 1px;"/><path class="ygrid crisp" transform="translate(0,253.32)" d="M143,0h726" style="stroke: rgb(255, 255, 255); stroke-opacity: 1; stroke-width: 1px;"/><path class="ygrid crisp" transform="translate(0,211.85)" d="M143,0h726" style="stroke: rgb(255, 255, 255); stroke-opacity: 1; stroke-width: 1px;"/><path class="ygrid crisp" transform="translate(0,170.39)" d="M143,0h726" style="stroke: rgb(255, 255, 255); stroke-opacity: 1; stroke-width: 1px;"/><path class="ygrid crisp" transform="translate(0,128.92000000000002)" d="M143,0h726" style="stroke: rgb(255, 255, 255); stroke-opacity: 1; stroke-width: 1px;"/></g></g><g class="zerolinelayer"/><path class="xlines-below"/><path class="ylines-below"/><g class="overlines-below"/><g class="xaxislayer-below"/><g class="yaxislayer-below"/><g class="overaxes-below"/><g class="plot" transform="translate(143,100)" clip-path="url(#clipe93316xyplot)"><g class="scatterlayer mlayer"><g class="trace scatter traceb2fe48" style="stroke-miterlimit: 2; opacity: 1;"><g class="fills"/><g class="errorbars"/><g class="lines"><path class="js-line" d="M0,260.1L4.87,200.59L9.74,227.75L14.62,180.9L19.49,216.56L24.36,201.63L29.23,190.64L34.11,164.93L38.98,145.23L43.85,124.29L48.72,129.27L53.6,127.4L58.47,106.88L63.34,88.22L68.21,99.62L73.09,110.61L77.96,108.33L82.83,101.07L87.7,76.4L92.58,93.4L97.45,85.11L102.32,93.4L107.19,87.18L112.07,103.77L116.94,112.48L121.81,82.62L126.68,89.88L131.56,81.79L136.43,104.39L141.3,100.04L146.17,103.15L151.05,91.95L155.92,96.51L160.79,95.89L165.66,108.74L175.41,90.71L180.28,113.93L185.15,94.65L190.03,83.45L194.9,77.85L199.77,79.1L204.64,61.27L209.52,59.19L214.39,61.68L219.26,60.85L224.13,67.9L229.01,87.18L233.88,81.79L238.75,78.47L243.62,77.23L248.5,97.34L258.24,77.44L263.11,78.27L267.99,63.96L272.86,79.3L277.73,58.78L282.6,43.44L287.48,60.64L292.35,72.46L297.22,59.81L302.09,53.39L306.97,51.73L311.84,68.11L316.71,71.22L321.58,76.61L326.46,83.66L331.33,76.82L336.2,73.5L341.07,58.16L345.95,58.57L350.82,71.84L355.69,66.86L360.56,47.58L365.44,57.12L370.31,57.12L375.18,68.32L380.05,81.58L384.93,70.8L389.8,75.36L394.67,68.32L399.54,73.71L404.42,69.97L409.29,67.49L414.16,46.55L419.03,55.25L423.91,46.55L428.78,61.47L433.65,61.68L438.52,66.66L443.4,85.94L448.27,79.93L453.14,61.27L458.01,57.33L462.89,55.88L467.76,52.97L472.63,58.57L477.5,52.56L482.38,39.29L487.25,55.46L492.12,58.78L496.99,52.14L501.87,41.15L506.74,49.86L511.61,57.95L516.48,63.96L521.36,52.77L526.23,52.97L531.1,58.78L535.97,60.85L540.85,43.02L545.72,42.19L550.59,34.73L555.46,45.51L560.34,39.29L565.21,41.98L570.08,52.77L574.95,34.94L579.83,26.23L584.7,40.12L594.44,34.11L599.32,26.64L604.19,36.59L609.06,20.21L613.93,37.42L618.81,38.05L623.68,44.47L628.55,55.46L633.42,71.01L638.3,46.96L643.17,47.17L648.04,42.61L652.91,37.63L657.79,23.53L662.66,48.2L667.53,56.29L672.4,44.06L677.28,25.19L682.15,32.86L687.02,41.98L691.89,33.07L696.77,46.34L701.64,37.42L706.51,32.86L711.38,40.74L716.26,42.19L721.13,43.44L726,19.8" style="vector-effect: none; fill: none; stroke: rgb(255, 0, 0); stroke-opacity: 1; stroke-width: 2px; opacity: 1;"/></g><g class="points"/><g class="text"/></g><g class="trace scatter tracebefde1" style="stroke-miterlimit: 2; opacity: 1;"><g class="fills"/><g class="errorbars"/><g class="lines"><path class="js-line" d="M0,303.01L4.87,217.18L9.74,248.28L14.62,201.84L19.49,236.46L29.23,214.9L34.11,196.24L38.98,172.39L43.85,156.85L48.72,159.13L53.6,167.63L63.34,130.72L68.21,131.97L73.09,141.92L77.96,148.55L82.83,143.78L87.7,116.21L92.58,125.54L97.45,123.26L102.32,132.59L107.19,101.7L112.07,141.92L116.94,145.23L121.81,125.54L126.68,130.1L131.56,118.49L136.43,134.04L141.3,131.97L146.17,142.75L151.05,125.12L155.92,139.01L160.79,138.6L165.66,142.33L170.54,142.75L175.41,128.23L180.28,146.48L185.15,129.68L190.03,104.39L194.9,101.07L199.77,116.21L204.64,104.39L209.52,95.06L214.39,100.24L219.26,101.7L224.13,106.88L229.01,124.5L233.88,117.45L238.75,125.12L243.62,123.26L248.5,131.55L253.37,120.77L258.24,116.21L263.11,123.26L267.99,103.56L272.86,119.94L277.73,101.07L282.6,88.43L287.48,104.81L292.35,111.44L297.22,102.52L302.09,97.34L306.97,99.21L311.84,116.21L316.71,110.61L321.58,109.16L326.46,111.85L331.33,106.26L336.2,99.83L341.07,91.33L345.95,95.48L350.82,95.06L355.69,96.93L360.56,76.4L365.44,89.05L370.31,94.65L375.18,94.23L380.05,118.49L384.93,105.43L389.8,98.79L394.67,101.7L399.54,103.56L404.42,107.29L409.29,100.24L414.16,81.58L419.03,97.34L423.91,85.73L428.78,99.21L433.65,100.24L438.52,98.38L443.4,118.07L448.27,112.48L453.14,96.93L458.01,96.51L462.89,90.29L467.76,96.1L472.63,94.23L477.5,83.45L482.38,70.18L487.25,85.73L492.12,85.73L496.99,73.5L501.87,68.32L506.74,77.23L511.61,88.43L516.48,101.7L521.36,87.18L526.23,87.6L531.1,101.07L535.97,97.96L540.85,88.43L545.72,91.74L550.59,89.88L555.46,94.65L560.34,78.27L565.21,77.85L570.08,87.6L574.95,70.8L579.83,70.8L584.7,87.18L589.57,80.55L594.44,69.77L599.32,67.9L604.19,76.4L609.06,62.3L613.93,68.94L618.81,73.91L623.68,69.35L628.55,79.1L633.42,103.56L638.3,84.69L643.17,79.72L652.91,78.27L657.79,67.07L662.66,89.88L667.53,94.65L672.4,86.15L677.28,69.77L682.15,80.55L687.02,83.45L691.89,81.58L696.77,88.01L701.64,77.23L706.51,76.82L711.38,78.68L716.26,69.35L721.13,74.95L726,58.99" style="vector-effect: none; fill: none; stroke: rgb(0, 0, 255); stroke-opacity: 1; stroke-width: 2px; opacity: 1;"/></g><g class="points"/><g class="text"/></g><g class="trace scatter trace201861" style="stroke-miterlimit: 2; opacity: 1;"><g class="fills"/><g class="errorbars"/><g class="lines"><path class="js-line" d="M0,318.98L4.87,294.3L9.74,297.41L14.62,285.6L19.49,295.34L24.36,280.83L29.23,279.58L34.11,270.46L38.98,257.19L43.85,247.66L48.72,251.39L53.6,249.94L58.47,235.22L63.34,226.3L68.21,232.52L73.09,239.36L77.96,238.33L82.83,231.48L87.7,217.59L92.58,226.92L97.45,223.81L107.19,228.17L112.07,229L116.94,233.14L121.81,218.21L126.68,221.53L131.56,216.56L136.43,227.96L141.3,226.72L146.17,230.45L151.05,223.4L155.92,226.92L160.79,227.96L165.66,231.28L170.54,226.72L175.41,222.78L180.28,235.84L185.15,225.68L190.03,219.46L194.9,214.69L199.77,213.45L204.64,203.49L209.52,203.08L214.39,205.36L219.26,201.84L224.13,208.47L229.01,219.67L233.88,212.41L238.75,211.37L243.62,210.54L248.5,221.32L253.37,217.39L258.24,212.2L263.11,213.45L267.99,205.98L272.86,214.9L277.73,202.25L282.6,193.96L287.48,203.29L292.35,208.26L297.22,200.8L306.97,195.82L311.84,208.68L321.58,216.14L326.46,220.91L331.33,217.59L336.2,216.35L341.07,206.4L345.95,203.7L350.82,212.41L355.69,205.15L360.56,193.13L365.44,201.42L370.31,201.84L375.18,211.17L380.05,212.62L384.93,211.79L389.8,212.62L394.67,210.13L399.54,211.37L404.42,211.17L409.29,207.43L414.16,193.75L419.03,201.84L423.91,193.96L428.78,206.4L433.65,206.6L438.52,209.92L443.4,221.74L448.27,218.42L453.14,204.53L458.01,202.25L462.89,201.01L467.76,200.8L472.63,205.57L477.5,200.18L482.38,193.34L487.25,204.53L492.12,203.7L496.99,200.8L501.87,192.3L511.61,205.98L516.48,209.92L521.36,203.29L526.23,205.98L531.1,209.92L535.97,204.95L540.85,196.65L545.72,195.62L550.59,186.7L555.46,194.16L560.34,191.88L565.21,192.09L570.08,199.97L574.95,188.77L579.83,180.48L584.7,188.36L589.57,187.74L594.44,189.4L599.32,184.42L604.19,189.19L609.06,177.99L613.93,191.47L618.81,187.74L623.68,193.96L628.55,199.97L633.42,210.34L638.3,195.41L643.17,193.96L648.04,190.02L652.91,187.32L657.79,178.41L662.66,196.03L667.53,202.87L672.4,194.37L677.28,181.93L682.15,186.91L687.02,192.92L691.89,188.36L696.77,198.31L701.64,191.47L706.51,187.32L711.38,192.92L721.13,194.58L726,174.26" style="vector-effect: none; fill: none; stroke: rgb(0, 128, 0); stroke-opacity: 1; stroke-width: 2px; opacity: 1;"/></g><g class="points"/><g class="text"/></g><g class="trace scatter trace11a4d8" style="stroke-miterlimit: 2; opacity: 1;"><g class="fills"/><g class="errorbars"/><g class="lines"><path class="js-line" d="M0,339.92L4.87,298.24L9.74,305.09L14.62,295.34L19.49,297.83L24.36,289.12L29.23,289.33L34.11,286.22L38.98,270.67L43.85,264.66L48.72,269.22L53.6,277.1L58.47,263.41L68.21,255.95L73.09,260.3L77.96,264.24L82.83,261.96L87.7,246L92.58,249.31L97.45,248.69L102.32,254.29L107.19,236.25L112.07,258.02L116.94,255.95L121.81,251.8L126.68,253.25L131.56,245.79L136.43,250.14L141.3,250.56L146.17,259.89L151.05,247.86L155.92,259.47L160.79,259.47L165.66,254.7L170.54,258.44L175.41,249.94L180.28,257.61L185.15,253.25L190.03,234.8L194.9,232.31L199.77,242.26L204.64,241.44L209.52,233.56L214.39,238.53L219.26,237.08L224.13,241.85L229.01,249.31L233.88,238.74L238.75,247.24L243.62,249.11L248.5,248.9L253.37,244.13L258.24,244.75L263.11,252.22L267.99,240.4L272.86,250.77L277.73,238.95L282.6,232.11L287.48,239.57L292.35,237.5L297.22,233.35L302.09,233.14L306.97,235.84L311.84,245.37L316.71,239.57L321.58,239.15L326.46,237.08L331.33,236.46L336.2,230.86L345.95,229.41L350.82,225.89L355.69,226.3L360.56,217.39L365.44,225.47L370.31,231.69L375.18,229L380.05,239.15L384.93,239.15L389.8,229.62L394.67,238.74L399.54,234.39L404.42,241.23L409.29,233.35L414.16,221.74L419.03,236.05L423.91,227.34L428.78,234.18L433.65,238.95L438.52,234.59L443.4,244.96L448.27,242.26L453.14,233.35L458.01,232.73L462.89,227.54L467.76,239.15L472.63,234.8L477.5,226.3L482.38,219.04L487.25,228.58L496.99,218.21L501.87,215.31L506.74,219.67L511.61,226.3L516.48,235.63L521.36,227.54L526.23,230.03L531.1,240.61L535.97,230.86L540.85,235.22L545.72,235.63L550.59,234.18L555.46,232.94L560.34,223.4L565.21,219.67L570.08,226.92L574.95,218.42L579.83,222.15L584.7,228.79L589.57,222.98L594.44,218.84L599.32,221.12L604.19,223.81L609.06,215.73L613.93,217.59L618.81,218.21L623.68,214.07L628.55,217.8L633.42,235.42L638.3,226.92L643.17,220.5L648.04,222.36L652.91,224.43L657.79,220.08L662.66,230.86L667.53,232.94L672.4,230.86L677.28,221.53L682.15,230.65L687.02,227.34L691.89,230.45L696.77,229.83L701.64,223.61L706.51,224.23L711.38,223.61L716.26,215.93L721.13,221.32L726,211.79" style="vector-effect: none; fill: none; stroke: rgb(255, 165, 0); stroke-opacity: 1; stroke-width: 2px; opacity: 1;"/></g><g class="points"/><g class="text"/></g><g class="trace scatter tracee83730" style="stroke-miterlimit: 2; opacity: 1;"><g class="fills"/><g class="errorbars"/><g class="lines"><path class="js-line" d="M0,231.48L4.87,207.23L9.74,204.74L14.62,199.76L19.49,203.91L24.36,185.04L29.23,186.29L34.11,181.1L38.98,167.21L43.85,162.24L48.72,165.76L53.6,164.52L58.47,150.83L63.34,148.55L68.21,151.25L73.09,156.02L77.96,155.39L87.7,142.12L92.58,145.23L97.45,146.48L102.32,143.78L107.19,153.32L112.07,140.88L116.94,142.75L121.81,136.94L126.68,137.36L131.56,134.45L136.43,138.6L141.3,139.22L146.17,144.2L151.05,139.43L160.79,145.03L165.66,141.5L175.41,139.22L180.28,146.69L185.15,141.5L190.03,139.01L199.77,130.51L204.64,128.03L209.52,129.48L214.39,131.76L219.26,125.12L224.13,131.34L229.01,135.9L233.88,125.95L238.75,126.57L243.62,126.16L248.5,130.72L253.37,130.72L258.24,129.27L263.11,131.55L267.99,130.31L272.86,133.62L277.73,128.23L282.6,129.68L292.35,126.16L297.22,123.88L302.09,126.57L306.97,122.64L311.84,131.76L316.71,135.49L326.46,141.71L331.33,141.5L336.2,142.54L341.07,138.39L345.95,131.97L350.82,135.7L355.69,125.33L360.56,121.81L365.44,128.44L370.31,129.68L375.18,136.73L380.05,126.37L384.93,135.7L389.8,132.59L394.67,134.66L399.54,131.76L404.42,135.08L409.29,129.48L414.16,124.71L419.03,131.76L423.91,124.92L428.78,134.45L433.65,134.45L438.52,136.11L443.4,141.5L448.27,140.05L453.14,130.31L458.01,130.31L462.89,129.06L467.76,132.59L472.63,136.32L477.5,131.34L487.25,137.98L492.12,131.34L496.99,133.62L501.87,129.27L511.61,137.77L516.48,139.43L521.36,138.6L526.23,144.82L531.1,146.06L535.97,131.76L540.85,137.15L545.72,135.49L550.59,125.12L555.46,127.2L560.34,131.14L565.21,127.4L570.08,130.93L574.95,130.1L579.83,124.09L584.7,120.98L589.57,124.29L594.44,133L599.32,133.83L604.19,128.86L609.06,128.65L613.93,132.79L618.81,122.22L623.68,128.03L628.55,126.99L633.42,132.17L643.17,124.09L648.04,121.18L657.79,123.26L662.66,127.61L667.53,132.79L672.4,129.68L677.28,129.89L682.15,129.06L687.02,129.27L691.89,132.38L696.77,136.11L701.64,133L706.51,130.1L711.38,131.55L721.13,131.14L726,119.53" style="vector-effect: none; fill: none; stroke: rgb(128, 0, 128); stroke-opacity: 1; stroke-width: 2px; opacity: 1;"/></g><g class="points"/><g class="text"/></g><g class="trace scatter trace6b428d" style="stroke-miterlimit: 2; opacity: 1;"><g class="fills"/><g class="errorbars"/><g class="lines"><path class="js-line" d="M0,257.81L4.87,209.3L9.74,213.03L14.62,209.09L19.49,204.12L24.36,192.92L29.23,195.82L34.11,196.03L38.98,179.03L43.85,175.5L48.72,182.35L53.6,191.88L58.47,177.16L63.34,181.52L68.21,173.64L73.09,175.5L77.96,179.24L82.83,177.37L87.7,165.97L92.58,165.35L97.45,165.97L102.32,170.11L107.19,158.3L112.07,171.57L116.94,165.76L121.81,170.11L126.68,169.91L131.56,163.48L136.43,161.61L141.3,163.69L146.17,174.26L151.05,163.06L155.92,175.71L160.79,176.13L165.66,165.35L170.54,171.57L175.41,164.72L180.28,168.04L185.15,170.11L190.03,152.91L194.9,150.63L204.64,166.17L209.52,158.71L214.39,164.1L219.26,159.75L224.13,165.14L229.01,166.17L233.88,150.83L238.75,161.82L243.62,166.59L248.5,160.78L253.37,159.13L258.24,163.27L263.11,172.6L267.99,164.93L272.86,172.39L277.73,163.89L282.6,161.61L287.48,161.82L292.35,152.91L297.22,151.66L306.97,159.54L311.84,164.52L316.71,157.47L321.58,157.88L326.46,151.87L331.33,154.77L336.2,149.17L341.07,155.6L350.82,142.75L355.69,141.92L360.56,142.95L365.44,147.31L370.31,154.98L375.18,150L380.05,150.83L384.93,160.78L389.8,147.1L394.67,163.06L399.54,152.91L404.42,163.27L409.29,153.32L414.16,147.1L419.03,161.61L423.91,154.56L428.78,156.22L433.65,164.72L438.52,157.47L443.4,162.44L448.27,161.41L453.14,156.64L458.01,155.6L462.89,150.21L467.76,169.28L472.63,162.03L477.5,154.98L482.38,153.53L487.25,157.05L492.12,145.86L496.99,147.72L501.87,147.72L506.74,146.89L511.61,149.59L516.48,157.05L521.36,153.32L526.23,158.3L531.1,167.21L535.97,150.63L540.85,168.25L545.72,165.76L550.59,164.52L555.46,157.67L560.34,154.15L565.21,146.48L570.08,151.66L574.95,151.87L579.83,159.95L584.7,156.02L589.57,150.42L594.44,153.94L599.32,161.41L604.19,156.85L609.06,156.22L623.68,143.58L628.55,140.88L633.42,154.98L638.3,154.56L643.17,146.48L648.04,150.83L652.91,156.22L657.79,159.95L662.66,157.88L667.53,157.67L672.4,161.41L677.28,159.95L682.15,167L687.02,156.85L691.89,165.55L696.77,157.26L701.64,155.6L706.51,157.26L711.38,153.74L716.26,147.72L721.13,153.32L726,151.45" style="vector-effect: none; fill: none; stroke: rgb(255, 192, 203); stroke-opacity: 1; stroke-width: 2px; opacity: 1;"/></g><g class="points"/><g class="text"/></g><g class="trace scatter trace37e3b7" style="stroke-miterlimit: 2; opacity: 1;"><g class="fills"/><g class="errorbars"/><g class="lines"><path class="js-line" d="M0,341.78L4.87,297.83L9.74,312.34L14.62,283.52L19.49,305.71L24.36,289.54L29.23,283.52L38.98,249.11L43.85,235.01L48.72,239.36L53.6,237.7L58.47,219.87L63.34,208.06L73.09,224.43L77.96,222.78L82.83,215.31L87.7,198.31L92.58,209.51L97.45,205.36L102.32,208.88L107.19,209.71L112.07,213.65L116.94,219.46L121.81,199.55L126.68,203.91L131.56,197.9L136.43,212.82L141.3,210.75L146.17,214.69L151.05,205.98L155.92,210.13L160.79,210.75L165.66,216.76L175.41,205.15L180.28,222.15L185.15,208.47L190.03,200.8L194.9,195.62L199.77,194.37L204.64,182.76L209.52,182.35L214.39,184.83L219.26,181.1L224.13,188.15L229.01,201.63L233.88,193.96L238.75,192.3L243.62,191.47L248.5,205.15L258.24,192.92L263.11,194.37L267.99,185.46L272.86,196.03L277.73,181.52L282.6,173.22L287.48,182.55L292.35,188.57L297.22,180.07L302.09,177.37L306.97,174.68L311.84,188.57L316.71,192.09L321.58,196.86L326.46,202.25L331.33,198.1L336.2,196.65L341.07,185.87L345.95,183.18L350.82,192.51L355.69,184.83L360.56,171.77L365.44,180.48L370.31,181.1L375.18,191.05L380.05,193.96L384.93,192.09L389.8,193.13L394.67,190.02L399.54,191.88L404.42,191.26L409.29,187.12L414.16,172.6L419.03,180.9L423.91,172.6L428.78,186.08L433.65,186.08L438.52,189.81L443.4,203.49L448.27,199.35L453.14,184.01L458.01,181.52L462.89,180.07L467.76,180.07L472.63,185.25L477.5,179.24L482.38,173.22L487.25,184.21L492.12,182.97L496.99,180.27L501.87,171.57L506.74,178.82L511.61,185.46L516.48,189.81L521.36,182.97L526.23,186.29L531.1,190.02L535.97,184.42L540.85,176.75L545.72,175.3L550.59,165.97L555.46,173.02L560.34,171.57L565.21,171.15L570.08,179.24L574.95,168.46L579.83,160.37L584.7,167L589.57,166.59L594.44,169.49L599.32,165.55L604.19,168.66L609.06,159.33L613.93,171.15L618.81,166.38L623.68,172.81L628.55,178.82L633.42,190.43L638.3,174.26L643.17,172.6L648.04,168.66L652.91,166.17L657.79,158.3L662.66,175.09L667.53,182.14L672.4,173.64L677.28,162.65L682.15,166.8L687.02,172.19L691.89,168.66L696.77,177.99L701.64,171.36L706.51,167.21L711.38,172.39L721.13,173.85L726,154.36" style="vector-effect: none; fill: none; stroke: rgb(165, 42, 42); stroke-opacity: 1; stroke-width: 2px; opacity: 1;"/></g><g class="points"/><g class="text"/></g><g class="trace scatter trace4b1c8a" style="stroke-miterlimit: 2; opacity: 1;"><g class="fills"/><g class="errorbars"/><g class="lines"><path class="js-line" d="M0,376.2L4.87,307.78L9.74,327.27L14.62,298.87L19.49,316.9L24.36,306.12L29.23,300.94L34.11,290.16L38.98,269.22L43.85,258.85L48.72,263.21L53.6,272.12L58.47,255.33L63.34,246.83L68.21,243.92L77.96,255.74L82.83,252.22L87.7,231.48L92.58,236.46L97.45,235.42L102.32,242.68L107.19,219.67L112.07,248.69L116.94,247.86L121.81,238.74L126.68,241.23L131.56,231.69L136.43,239.78L141.3,239.57L146.17,250.35L151.05,235.22L155.92,248.9L160.79,248.69L165.66,246.2L170.54,249.11L175.41,237.7L180.28,249.73L185.15,241.02L190.03,218.84L194.9,215.93L199.77,228.17L204.64,225.06L209.52,216.14L214.39,221.53L219.26,220.29L224.13,225.68L229.01,236.25L233.88,225.47L238.75,234.59L243.62,235.63L248.5,237.91L253.37,231.07L258.24,230.24L263.11,238.53L267.99,223.81L272.86,236.46L277.73,222.15L282.6,213.86L287.48,223.19L292.35,222.78L297.22,217.18L302.09,215.93L306.97,218.84L311.84,230.86L316.71,224.43L326.46,222.57L331.33,220.7L336.2,214.48L341.07,212.62L345.95,212.2L350.82,208.68L355.69,209.51L360.56,198.1L365.44,207.43L370.31,214.28L375.18,211.58L380.05,226.09L384.93,222.98L389.8,213.03L394.67,221.95L399.54,218.21L404.42,225.26L409.29,216.56L414.16,202.87L419.03,218.84L423.91,208.88L428.78,217.39L433.65,221.95L438.52,217.39L443.4,230.86L448.27,227.34L453.14,216.14L458.01,215.52L462.89,209.51L467.76,221.74L472.63,217.18L477.5,207.85L482.38,199.76L487.25,210.13L496.99,198.73L501.87,195.82L506.74,200.38L511.61,208.26L516.48,219.04L521.36,209.09L526.23,211.79L531.1,223.81L535.97,214.07L540.85,217.18L545.72,217.8L550.59,216.14L555.46,215.52L560.34,204.53L565.21,200.59L570.08,208.68L574.95,199.14L579.83,203.08L584.7,210.54L589.57,204.12L594.44,199.76L599.32,202.46L604.19,204.74L609.06,196.65L618.81,198.93L623.68,194.37L628.55,198.73L633.42,219.25L638.3,208.47L643.17,201.63L652.91,205.57L657.79,201.21L662.66,212.82L667.53,215.52L672.4,212.62L677.28,202.66L682.15,212.2L687.02,208.68L691.89,211.99L696.77,211.58L701.64,204.74L706.51,205.15L711.38,204.53L716.26,196.24L721.13,202.25L726,192.51" style="vector-effect: none; fill: none; stroke: rgb(128, 128, 128); stroke-opacity: 1; stroke-width: 2px; opacity: 1;"/></g><g class="points"/><g class="text"/></g></g></g><g class="overplot"/><path class="xlines-above crisp" d="M0,0" style="fill: none;"/><path class="ylines-above crisp" d="M0,0" style="fill: none;"/><g class="overlines-above"/><g class="xaxislayer-above"><g class="xtick"><text text-anchor="middle" x="0" y="509" transform="translate(235.57999999999998,0)" style="font-family: 'Open Sans', verdana, arial, sans-serif; font-size: 12px; fill: rgb(42, 63, 95); fill-opacity: 1; white-space: pre; opacity: 1;">20</text></g><g class="xtick"><text text-anchor="middle" x="0" y="509" style="font-family: 'Open Sans', verdana, arial, sans-serif; font-size: 12px; fill: rgb(42, 63, 95); fill-opacity: 1; white-space: pre; opacity: 1;" transform="translate(333.03,0)">40</text></g><g class="xtick"><text text-anchor="middle" x="0" y="509" style="font-family: 'Open Sans', verdana, arial, sans-serif; font-size: 12px; fill: rgb(42, 63, 95); fill-opacity: 1; white-space: pre; opacity: 1;" transform="translate(430.48,0)">60</text></g><g class="xtick"><text text-anchor="middle" x="0" y="509" style="font-family: 'Open Sans', verdana, arial, sans-serif; font-size: 12px; fill: rgb(42, 63, 95); fill-opacity: 1; white-space: pre; opacity: 1;" transform="translate(527.9300000000001,0)">80</text></g><g class="xtick"><text text-anchor="middle" x="0" y="509" style="font-family: 'Open Sans', verdana, arial, sans-serif; font-size: 12px; fill: rgb(42, 63, 95); fill-opacity: 1; white-space: pre; opacity: 1;" transform="translate(625.38,0)">100</text></g><g class="xtick"><text text-anchor="middle" x="0" y="509" style="font-family: 'Open Sans', verdana, arial, sans-serif; font-size: 12px; fill: rgb(42, 63, 95); fill-opacity: 1; white-space: pre; opacity: 1;" transform="translate(722.83,0)">120</text></g><g class="xtick"><text text-anchor="middle" x="0" y="509" style="font-family: 'Open Sans', verdana, arial, sans-serif; font-size: 12px; fill: rgb(42, 63, 95); fill-opacity: 1; white-space: pre; opacity: 1;" transform="translate(820.28,0)">140</text></g></g><g class="yaxislayer-above"><g class="ytick"><text text-anchor="end" x="142" y="4.199999999999999" transform="translate(0,460.65)" style="font-family: 'Open Sans', verdana, arial, sans-serif; font-size: 12px; fill: rgb(42, 63, 95); fill-opacity: 1; white-space: pre; opacity: 1;">60</text></g><g class="ytick"><text text-anchor="end" x="142" y="4.199999999999999" style="font-family: 'Open Sans', verdana, arial, sans-serif; font-size: 12px; fill: rgb(42, 63, 95); fill-opacity: 1; white-space: pre; opacity: 1;" transform="translate(0,419.18)">62</text></g><g class="ytick"><text text-anchor="end" x="142" y="4.199999999999999" style="font-family: 'Open Sans', verdana, arial, sans-serif; font-size: 12px; fill: rgb(42, 63, 95); fill-opacity: 1; white-space: pre; opacity: 1;" transform="translate(0,377.72)">64</text></g><g class="ytick"><text text-anchor="end" x="142" y="4.199999999999999" style="font-family: 'Open Sans', verdana, arial, sans-serif; font-size: 12px; fill: rgb(42, 63, 95); fill-opacity: 1; white-space: pre; opacity: 1;" transform="translate(0,336.25)">66</text></g><g class="ytick"><text text-anchor="end" x="142" y="4.199999999999999" style="font-family: 'Open Sans', verdana, arial, sans-serif; font-size: 12px; fill: rgb(42, 63, 95); fill-opacity: 1; white-space: pre; opacity: 1;" transform="translate(0,294.78999999999996)">68</text></g><g class="ytick"><text text-anchor="end" x="142" y="4.199999999999999" style="font-family: 'Open Sans', verdana, arial, sans-serif; font-size: 12px; fill: rgb(42, 63, 95); fill-opacity: 1; white-space: pre; opacity: 1;" transform="translate(0,253.32)">70</text></g><g class="ytick"><text text-anchor="end" x="142" y="4.199999999999999" style="font-family: 'Open Sans', verdana, arial, sans-serif; font-size: 12px; fill: rgb(42, 63, 95); fill-opacity: 1; white-space: pre; opacity: 1;" transform="translate(0,211.85)">72</text></g><g class="ytick"><text text-anchor="end" x="142" y="4.199999999999999" style="font-family: 'Open Sans', verdana, arial, sans-serif; font-size: 12px; fill: rgb(42, 63, 95); fill-opacity: 1; white-space: pre; opacity: 1;" transform="translate(0,170.39)">74</text></g><g class="ytick"><text text-anchor="end" x="142" y="4.199999999999999" style="font-family: 'Open Sans', verdana, arial, sans-serif; font-size: 12px; fill: rgb(42, 63, 95); fill-opacity: 1; white-space: pre; opacity: 1;" transform="translate(0,128.92000000000002)">76</text></g></g><g class="overaxes-above"/></g></g><g class="polarlayer"/><g class="smithlayer"/><g class="ternarylayer"/><g class="geolayer"/><g class="funnelarealayer"/><g class="pielayer"/><g class="iciclelayer"/><g class="treemaplayer"/><g class="sunburstlayer"/><g class="glimages"/><defs id="topdefs-e93316"><g class="clips"/><clipPath id="legende93316"><rect width="128" height="162" x="0" y="0"/></clipPath></defs><g class="layer-above"><g class="imagelayer"/><g class="shapelayer"/></g><g class="infolayer"><g class="legend" pointer-events="all" transform="translate(883.52,100)"><rect class="bg" shape-rendering="crispEdges" width="128" height="162" x="0" y="0" style="stroke: rgb(68, 68, 68); stroke-opacity: 1; fill: rgb(255, 255, 255); fill-opacity: 1; stroke-width: 0px;"/><g class="scrollbox" transform="" clip-path="url(#legende93316)"><g class="groups"><g class="traces" transform="translate(0,14.5)" style="opacity: 1;"><text class="legendtext" text-anchor="start" x="40" y="4.680000000000001" style="font-family: 'Open Sans', verdana, arial, sans-serif; font-size: 12px; fill: rgb(42, 63, 95); fill-opacity: 1; white-space: pre;">Train Accuracy</text><g class="layers" style="opacity: 1;"><g class="legendfill"/><g class="legendlines"><path class="js-line" d="M5,0h30" style="fill: none; stroke: rgb(255, 0, 0); stroke-opacity: 1; stroke-width: 2px;"/></g><g class="legendsymbols"><g class="legendpoints"/></g></g><rect class="legendtoggle" x="0" y="-9.5" width="122.71875" height="19" style="fill: rgb(0, 0, 0); fill-opacity: 0;"/></g><g class="traces" transform="translate(0,33.5)" style="opacity: 1;"><text class="legendtext" text-anchor="start" x="40" y="4.680000000000001" style="font-family: 'Open Sans', verdana, arial, sans-serif; font-size: 12px; fill: rgb(42, 63, 95); fill-opacity: 1; white-space: pre;">Test Accuracy</text><g class="layers" style="opacity: 1;"><g class="legendfill"/><g class="legendlines"><path class="js-line" d="M5,0h30" style="fill: none; stroke: rgb(0, 0, 255); stroke-opacity: 1; stroke-width: 2px;"/></g><g class="legendsymbols"><g class="legendpoints"/></g></g><rect class="legendtoggle" x="0" y="-9.5" width="122.71875" height="19" style="fill: rgb(0, 0, 0); fill-opacity: 0;"/></g><g class="traces" transform="translate(0,52.5)" style="opacity: 1;"><text class="legendtext" text-anchor="start" x="40" y="4.680000000000001" style="font-family: 'Open Sans', verdana, arial, sans-serif; font-size: 12px; fill: rgb(42, 63, 95); fill-opacity: 1; white-space: pre;">Train Precision</text><g class="layers" style="opacity: 1;"><g class="legendfill"/><g class="legendlines"><path class="js-line" d="M5,0h30" style="fill: none; stroke: rgb(0, 128, 0); stroke-opacity: 1; stroke-width: 2px;"/></g><g class="legendsymbols"><g class="legendpoints"/></g></g><rect class="legendtoggle" x="0" y="-9.5" width="122.71875" height="19" style="fill: rgb(0, 0, 0); fill-opacity: 0;"/></g><g class="traces" transform="translate(0,71.5)" style="opacity: 1;"><text class="legendtext" text-anchor="start" x="40" y="4.680000000000001" style="font-family: 'Open Sans', verdana, arial, sans-serif; font-size: 12px; fill: rgb(42, 63, 95); fill-opacity: 1; white-space: pre;">Test Precision</text><g class="layers" style="opacity: 1;"><g class="legendfill"/><g class="legendlines"><path class="js-line" d="M5,0h30" style="fill: none; stroke: rgb(255, 165, 0); stroke-opacity: 1; stroke-width: 2px;"/></g><g class="legendsymbols"><g class="legendpoints"/></g></g><rect class="legendtoggle" x="0" y="-9.5" width="122.71875" height="19" style="fill: rgb(0, 0, 0); fill-opacity: 0;"/></g><g class="traces" transform="translate(0,90.5)" style="opacity: 1;"><text class="legendtext" text-anchor="start" x="40" y="4.680000000000001" style="font-family: 'Open Sans', verdana, arial, sans-serif; font-size: 12px; fill: rgb(42, 63, 95); fill-opacity: 1; white-space: pre;">Train Recall</text><g class="layers" style="opacity: 1;"><g class="legendfill"/><g class="legendlines"><path class="js-line" d="M5,0h30" style="fill: none; stroke: rgb(128, 0, 128); stroke-opacity: 1; stroke-width: 2px;"/></g><g class="legendsymbols"><g class="legendpoints"/></g></g><rect class="legendtoggle" x="0" y="-9.5" width="122.71875" height="19" style="fill: rgb(0, 0, 0); fill-opacity: 0;"/></g><g class="traces" transform="translate(0,109.5)" style="opacity: 1;"><text class="legendtext" text-anchor="start" x="40" y="4.680000000000001" style="font-family: 'Open Sans', verdana, arial, sans-serif; font-size: 12px; fill: rgb(42, 63, 95); fill-opacity: 1; white-space: pre;">Test Recall</text><g class="layers" style="opacity: 1;"><g class="legendfill"/><g class="legendlines"><path class="js-line" d="M5,0h30" style="fill: none; stroke: rgb(255, 192, 203); stroke-opacity: 1; stroke-width: 2px;"/></g><g class="legendsymbols"><g class="legendpoints"/></g></g><rect class="legendtoggle" x="0" y="-9.5" width="122.71875" height="19" style="fill: rgb(0, 0, 0); fill-opacity: 0;"/></g><g class="traces" transform="translate(0,128.5)" style="opacity: 1;"><text class="legendtext" text-anchor="start" x="40" y="4.680000000000001" style="font-family: 'Open Sans', verdana, arial, sans-serif; font-size: 12px; fill: rgb(42, 63, 95); fill-opacity: 1; white-space: pre;">Train F1</text><g class="layers" style="opacity: 1;"><g class="legendfill"/><g class="legendlines"><path class="js-line" d="M5,0h30" style="fill: none; stroke: rgb(165, 42, 42); stroke-opacity: 1; stroke-width: 2px;"/></g><g class="legendsymbols"><g class="legendpoints"/></g></g><rect class="legendtoggle" x="0" y="-9.5" width="122.71875" height="19" style="fill: rgb(0, 0, 0); fill-opacity: 0;"/></g><g class="traces" transform="translate(0,147.5)" style="opacity: 1;"><text class="legendtext" text-anchor="start" x="40" y="4.680000000000001" style="font-family: 'Open Sans', verdana, arial, sans-serif; font-size: 12px; fill: rgb(42, 63, 95); fill-opacity: 1; white-space: pre;">Test F1</text><g class="layers" style="opacity: 1;"><g class="legendfill"/><g class="legendlines"><path class="js-line" d="M5,0h30" style="fill: none; stroke: rgb(128, 128, 128); stroke-opacity: 1; stroke-width: 2px;"/></g><g class="legendsymbols"><g class="legendpoints"/></g></g><rect class="legendtoggle" x="0" y="-9.5" width="122.71875" height="19" style="fill: rgb(0, 0, 0); fill-opacity: 0;"/></g></g></g><rect class="scrollbar" rx="20" ry="3" width="0" height="0" x="0" y="0" style="fill: rgb(128, 139, 164); fill-opacity: 1;"/></g><g class="g-gtitle"><text class="gtitle" x="51.2" y="50" text-anchor="start" dy="0em" style="font-family: 'Open Sans', verdana, arial, sans-serif; font-size: 17px; fill: rgb(42, 63, 95); opacity: 1; font-weight: normal; white-space: pre;">Training Metrics - logs/FakeNewsNet-gossipcop_max-vocab=10000_pre=v1_domain_T=200_s=5.log</text></g><g class="g-xtitle"><text class="xtitle" x="506" y="537.3" text-anchor="middle" style="font-family: 'Open Sans', verdana, arial, sans-serif; font-size: 14px; fill: rgb(42, 63, 95); opacity: 1; font-weight: normal; white-space: pre;">Epoch</text></g><g class="g-ytitle"><text class="ytitle" transform="rotate(-90,103.965625,298)" x="103.965625" y="298" text-anchor="middle" style="font-family: 'Open Sans', verdana, arial, sans-serif; font-size: 14px; fill: rgb(42, 63, 95); opacity: 1; font-weight: normal; white-space: pre;">Metric Score</text></g></g><g class="menulayer"><g class="updatemenu-container" style="cursor: pointer;"><g class="updatemenu-header-group" transform="translate(12,60)"><g class="updatemenu-header" transform="translate(1,1)" style="pointer-events: all;"><rect class="updatemenu-item-rect" rx="2" ry="2" shape-rendering="crispEdges" x="0" y="0" width="167" height="33" style="stroke: rgb(190, 200, 217); stroke-opacity: 1; fill: rgb(255, 255, 255); fill-opacity: 1; stroke-width: 1px;"/><text class="updatemenu-item-text" text-anchor="start" data-notex="1" x="12" y="19.5" style="font-family: 'Open Sans', verdana, arial, sans-serif; font-size: 12px; fill: rgb(42, 63, 95); fill-opacity: 1; white-space: pre;">All</text></g><text class="updatemenu-header-arrow" text-anchor="end" x="163" y="19.5" style="font-family: 'Open Sans', verdana, arial, sans-serif; font-size: 12px; fill: rgb(42, 63, 95); fill-opacity: 1;">▼</text></g><g class="updatemenu-dropdown-button-group" updatemenu-active-index="-1" style="pointer-events: all;"><rect class="scrollbox-bg" opacity="0" x="0" y="0" width="0" height="0" style="pointer-events: all;"/></g></g></g></svg>