<svg class="main-svg" xmlns="http://www.w3.org/2000/svg" xmlns:xlink="http://www.w3.org/1999/xlink" width="1024" height="576" style="" viewBox="0 0 1024 576"><rect x="0" y="0" width="1024" height="576" style="fill: rgb(255, 255, 255); fill-opacity: 1;"/><defs id="defs-bd1401"><g class="clips"><clipPath id="clipbd1401xyplot" class="plotclip"><rect width="720" height="396"/></clipPath><clipPath class="axesclip" id="clipbd1401x"><rect x="150" y="0" width="720" height="576"/></clipPath><clipPath class="axesclip" id="clipbd1401y"><rect x="0" y="100" width="1024" height="396"/></clipPath><clipPath class="axesclip" id="clipbd1401xy"><rect x="150" y="100" width="720" height="396"/></clipPath></g><g class="gradients"/><g class="patterns"/></defs><g class="bglayer"><rect class="bg" x="150" y="100" width="720" height="396" style="fill: rgb(229, 236, 246); fill-opacity: 1; stroke-width: 0;"/></g><g class="layer-below"><g class="imagelayer"/><g class="shapelayer"/></g><g class="cartesianlayer"><g class="subplot xy"><g class="layer-subplot"><g class="shapelayer"/><g class="imagelayer"/></g><g class="minor-gridlayer"><g class="x"/><g class="y"/></g><g class="gridlayer"><g class="x"><path class="xgrid crisp" transform="translate(241.81,0)" d="M0,100v396" style="stroke: rgb(255, 255, 255); stroke-opacity: 1; stroke-width: 1px;"/><path class="xgrid crisp" transform="translate(338.46000000000004,0)" d="M0,100v396" style="stroke: rgb(255, 255, 255); stroke-opacity: 1; stroke-width: 1px;"/><path class="xgrid crisp" transform="translate(435.1,0)" d="M0,100v396" style="stroke: rgb(255, 255, 255); stroke-opacity: 1; stroke-width: 1px;"/><path class="xgrid crisp" transform="translate(531.74,0)" d="M0,100v396" style="stroke: rgb(255, 255, 255); stroke-opacity: 1; stroke-width: 1px;"/><path class="xgrid crisp" transform="translate(628.39,0)" d="M0,100v396" style="stroke: rgb(255, 255, 255); stroke-opacity: 1; stroke-width: 1px;"/><path class="xgrid crisp" transform="translate(725.03,0)" d="M0,100v396" style="stroke: rgb(255, 255, 255); stroke-opacity: 1; stroke-width: 1px;"/><path class="xgrid crisp" transform="translate(821.68,0)" d="M0,100v396" style="stroke: rgb(255, 255, 255); stroke-opacity: 1; stroke-width: 1px;"/></g><g class="y"><path class="ygrid crisp" transform="translate(0,437.43)" d="M150,0h720" style="stroke: rgb(255, 255, 255); stroke-opacity: 1; stroke-width: 1px;"/><path class="ygrid crisp" transform="translate(0,374.18)" d="M150,0h720" style="stroke: rgb(255, 255, 255); stroke-opacity: 1; stroke-width: 1px;"/><path class="ygrid crisp" transform="translate(0,310.93)" d="M150,0h720" style="stroke: rgb(255, 255, 255); stroke-opacity: 1; stroke-width: 1px;"/><path class="ygrid crisp" transform="translate(0,247.69)" d="M150,0h720" style="stroke: rgb(255, 255, 255); stroke-opacity: 1; stroke-width: 1px;"/><path class="ygrid crisp" transform="translate(0,184.44)" d="M150,0h720" style="stroke: rgb(255, 255, 255); stroke-opacity: 1; stroke-width: 1px;"/><path class="ygrid crisp" transform="translate(0,121.19)" d="M150,0h720" style="stroke: rgb(255, 255, 255); stroke-opacity: 1; stroke-width: 1px;"/></g></g><g class="zerolinelayer"/><path class="xlines-below"/><path class="ylines-below"/><g class="overlines-below"/><g class="xaxislayer-below"/><g class="yaxislayer-below"/><g class="overaxes-below"/><g class="plot" transform="translate(150,100)" clip-path="url(#clipbd1401xyplot)"><g class="scatterlayer mlayer"><g class="trace scatter traceafed6c" style="stroke-miterlimit: 2; opacity: 1;"><g class="fills"/><g class="errorbars"/><g class="lines"><path class="js-line" d="M0,145.73L4.83,139.34L9.66,134.78L14.5,127.76L19.33,124.41L24.16,127.95L28.99,132.89L33.83,135.29L38.66,128.65L43.49,139.53L48.32,138.39L53.15,137.95L57.99,134.28L62.82,133.08L67.65,134.34L72.48,124.41L77.32,135.29L82.15,141.49L86.98,142.37L91.81,142.44L96.64,144.9L101.48,138.07L106.31,139.4L111.14,126.69L115.97,130.23L120.81,139.91L125.64,142.31L130.47,141.68L135.3,130.55L140.13,138.64L144.97,134.09L149.8,128.71L154.63,133.08L159.46,137.95L164.3,138.96L169.13,122.2L173.96,123.08L178.79,126.94L183.62,124.79L188.46,135.73L193.29,130.67L198.12,131.75L202.95,131.94L207.79,138.39L212.62,132.89L217.45,137.44L222.28,125.93L227.11,126.25L231.95,129.22L236.78,143.39L241.61,139.91L246.44,136.3L251.28,134.59L256.11,129.79L260.94,131.94L265.77,134.53L270.6,141.55L275.44,139.4L280.27,139.78L285.1,161.28L289.93,145.47L294.77,142.06L299.6,135.1L304.43,128.46L309.26,119.41L314.09,120.68L318.93,118.4L323.76,118.59L328.59,125.74L333.42,123.97L338.26,124.47L343.09,123.78L347.92,126.44L352.75,125.42L357.58,126.75L362.42,127.64L367.25,126.31L376.91,123.53L381.74,123.91L386.58,117.83L391.41,122.83L396.24,127.64L401.07,127.07L410.74,135.35L415.57,133.27L420.4,136.05L425.23,144.65L430.07,145.28L434.9,143.13L439.73,144.27L444.56,132.06L449.4,128.97L454.23,131.62L459.06,127L463.89,125.61L468.72,125.61L473.56,119.92L478.39,128.33L483.22,125.17L488.05,129.79L492.89,129.79L502.55,133.39L507.38,131.31L512.21,128.65L517.05,129.53L521.88,135.16L526.71,142.12L536.38,125.68L541.21,125.3L546.04,120.74L550.87,123.97L555.7,118.97L560.54,118.91L565.37,122.51L570.2,123.53L575.03,119.48L579.87,129.41L584.7,130.86L589.53,124.1L594.36,123.27L599.19,127.64L604.03,131.12L608.86,132L613.69,129.28L618.52,127.57L628.19,124.1L633.02,124.92L637.85,127L642.68,125.74L647.52,126.63L652.35,122.83L657.18,121.25L662.01,122.83L666.85,131.62L671.68,134.85L676.51,127.38L681.34,128.08L691.01,124.1L695.84,125.87L700.67,133.71L705.5,134.91L710.34,133.65L715.17,142.44L720,142.56" style="vector-effect: none; fill: none; stroke: rgb(255, 0, 0); stroke-opacity: 1; stroke-width: 2px; opacity: 1;"/></g><g class="points"/><g class="text"/></g><g class="trace scatter traceaf6433" style="stroke-miterlimit: 2; opacity: 1;"><g class="fills"/><g class="errorbars"/><g class="lines"><path class="js-line" d="M0,143.32L4.83,132.76L9.66,129.03L14.5,122.89L19.33,121.82L24.16,129.34L28.99,139.84L33.83,143.45L38.66,133.9L43.49,148.95L48.32,150.03L53.15,148.64L57.99,141.43L62.82,140.6L67.65,143.58L72.48,129.34L77.32,144.21L82.15,144.71L86.98,150.22L91.81,150.85L96.64,149.08L101.48,145.66L106.31,146.42L111.14,130.29L115.97,132.63L120.81,141.74L125.64,148.64L130.47,145.03L135.3,129.03L140.13,138.58L144.97,132.13L149.8,131.37L154.63,135.61L159.46,135.73L164.3,137.82L169.13,125.11L173.96,127.57L178.79,132.63L183.62,129.79L188.46,139.34L193.29,131.5L198.12,136.24L202.95,137.31L207.79,140.79L212.62,133.9L217.45,136.37L222.28,129.34L227.11,129.34L231.95,134.34L236.78,144.52L241.61,140.48L246.44,140.16L251.28,137.82L256.11,134.97L260.94,135.73L265.77,139.08L270.6,144.71L275.44,143.13L280.27,143.58L285.1,159.45L289.93,147.05L294.77,141.24L299.6,140.29L304.43,133.58L309.26,123.53L314.09,125.11L318.93,121.31L323.76,121L328.59,126.63L333.42,127.26L338.26,129.16L343.09,129.03L347.92,131.18L352.75,129.66L357.58,130.61L362.42,130.29L367.25,131.81L372.08,129.47L376.91,126.18L381.74,127.13L386.58,119.6L396.24,130.61L401.07,129.79L405.91,133.71L410.74,140.6L415.57,133.9L420.4,136.24L425.23,144.71L430.07,144.84L434.9,141.55L439.73,145.66L444.56,136.24L449.4,130.42L454.23,133.9L459.06,126.37L463.89,125.55L468.72,122.7L473.56,120.87L478.39,127.26L483.22,123.97L488.05,129.66L502.55,138.26L507.38,137.5L517.05,131.5L521.88,136.05L526.71,140.92L531.54,132.13L536.38,128.84L541.21,127.76L546.04,126.06L550.87,128.84L555.7,124.47L560.54,124.16L565.37,124.47L570.2,128.71L575.03,123.53L579.87,136.55L584.7,136.37L589.53,127.76L594.36,128.21L599.19,131.37L604.03,135.29L608.86,136.68L613.69,133.39L618.52,132.13L623.36,129.79L628.19,129.66L637.85,131.05L642.68,129.98L647.52,132.76L652.35,126.5L657.18,123.84L662.01,125.87L666.85,138.58L671.68,139.84L676.51,130.61L681.34,127.45L686.17,128.71L691.01,124.92L695.84,124.47L700.67,132.13L705.5,132.63L710.34,129.47L715.17,140.48L720,141.11" style="vector-effect: none; fill: none; stroke: rgb(0, 0, 255); stroke-opacity: 1; stroke-width: 2px; opacity: 1;"/></g><g class="points"/><g class="text"/></g><g class="trace scatter tracea07de1" style="stroke-miterlimit: 2; opacity: 1;"><g class="fills"/><g class="errorbars"/><g class="lines"><path class="js-line" d="M0,295.94L4.83,124.28L9.66,154.26L14.5,128.14L19.33,175.26L28.99,116.44L33.83,117.96L38.66,116.32L43.49,135.1L48.32,134.15L53.15,105.37L57.99,134.53L62.82,134.72L67.65,109.11L72.48,103.22L77.32,103.29L82.15,109.93L86.98,118.59L91.81,109.49L96.64,120.05L101.48,114.29L106.31,111.89L111.14,105.5L115.97,109.74L120.81,112.27L130.47,113.47L135.3,108.41L140.13,111.89L144.97,112.46L149.8,105.63L154.63,110.43L159.46,110.18L164.3,99.74L169.13,94.18L173.96,94.37L178.79,102.27L183.62,98.35L188.46,98.86L193.29,97.4L198.12,101.2L202.95,98.35L212.62,99.68L217.45,102.21L222.28,101.83L227.11,103.22L231.95,102.02L236.78,97.53L246.44,101.2L251.28,100.19L256.11,96.14L260.94,96.08L265.77,99.74L270.6,100.38L275.44,96.84L280.27,102.21L285.1,109.61L289.93,108.41L294.77,102.72L299.6,102.53L314.09,99.62L318.93,99.24L323.76,100.25L328.59,99.62L333.42,96.52L338.26,97.85L343.09,96.14L347.92,97.78L352.75,98.61L357.58,97.47L362.42,99.43L367.25,96.96L372.08,96.96L376.91,97.91L381.74,98.1L386.58,92.09L391.41,95.82L396.24,98.16L401.07,97.72L405.91,101.14L410.74,103.54L415.57,98.92L420.4,97.15L425.23,101.77L430.07,110.37L434.9,104.24L439.73,106.07L444.56,100.12L449.4,98.35L454.23,102.02L463.89,100.38L468.72,131.62L473.56,99.81L478.39,101.9L483.22,132.82L488.05,135.54L492.89,133.58L497.72,133.33L502.55,133.33L507.38,131.75L512.21,131.24L517.05,129.53L521.88,129.03L526.71,131.62L531.54,132.38L536.38,129.79L541.21,131.24L546.04,130.8L550.87,131.43L555.7,128.21L560.54,128.21L565.37,128.97L570.2,129.91L575.03,128.02L579.87,132.76L584.7,132.51L589.53,128.4L594.36,127.51L599.19,130.23L604.03,131.5L608.86,121.5L613.69,123.72L618.52,122.13L623.36,126.12L628.19,123.65L633.02,125.11L637.85,127.13L642.68,125.74L647.52,125.68L652.35,123.59L657.18,91.4L662.01,122.13L666.85,128.84L671.68,127.7L676.51,125.36L681.34,126.94L691.01,126.69L695.84,124.6L700.67,125.87L705.5,133.96L710.34,132.76L715.17,105.94L720,100.69" style="vector-effect: none; fill: none; stroke: rgb(0, 128, 0); stroke-opacity: 1; stroke-width: 2px; opacity: 1;"/></g><g class="points"/><g class="text"/></g><g class="trace scatter trace7aff75" style="stroke-miterlimit: 2; opacity: 1;"><g class="fills"/><g class="errorbars"/><g class="lines"><path class="js-line" d="M0,341.86L4.83,266.21L9.66,265.14L14.5,263.43L19.33,247.05L24.16,249.7L28.99,255.46L33.83,257.1L38.66,253.56L43.49,242.68L48.32,241.61L53.15,248.25L57.99,241.36L62.82,240.98L67.65,247.87L72.48,236.42L77.32,242.49L82.15,206.82L86.98,208.21L96.64,212.77L101.48,217.76L106.31,207.46L111.14,202.02L115.97,203.53L120.81,206.63L130.47,204.23L135.3,191.26L140.13,208.53L144.97,204.99L149.8,200.31L154.63,204.74L159.46,201.57L164.3,204.29L169.13,186.65L173.96,189.43L178.79,198.73L183.62,193.92L188.46,192.91L193.29,190.51L198.12,193.41L202.95,201L212.62,193.48L217.45,193.67L222.28,192.21L227.11,195.63L231.95,194.36L236.78,191.45L241.61,191.77L246.44,194.62L251.28,197.53L256.11,193.29L260.94,188.99L265.77,191.07L270.6,194.49L275.44,193.04L280.27,196.77L285.1,201.64L289.93,203.72L294.77,197.46L304.43,198.85L309.26,195.94L314.09,194.87L318.93,191.71L323.76,189.43L328.59,188.23L333.42,188.86L338.26,190.95L343.09,189.62L347.92,190.51L352.75,189.3L357.58,191.83L362.42,192.72L367.25,195.88L372.08,191.9L376.91,189.56L381.74,192.34L386.58,185.45L391.41,189.75L396.24,190.25L401.07,190.69L405.91,196.39L410.74,200.44L415.57,191.26L420.4,192.66L425.23,198.66L430.07,203.85L434.9,194.81L439.73,196.83L444.56,191.77L449.4,185.7L454.23,190.76L463.89,187.22L468.72,187.09L473.56,189.18L478.39,194.68L483.22,192.4L488.05,196.07L492.89,195.88L497.72,196.51L502.55,197.4L507.38,197.15L512.21,195.44L517.05,191.96L521.88,191.52L526.71,192.85L531.54,193.1L536.38,192.09L541.21,193.92L546.04,193.54L550.87,193.16L555.7,191.14L565.37,188.35L570.2,193.48L575.03,187.85L579.87,195.19L584.7,192.91L589.53,186.84L594.36,189.11L599.19,192.21L604.03,194.43L608.86,193.35L613.69,192.59L618.52,190.19L623.36,190.82L628.19,187.79L637.85,191.2L642.68,191.2L657.18,185.19L662.01,186.71L666.85,193.54L671.68,193.48L676.51,187.72L681.34,189.37L686.17,191.39L691.01,186.65L695.84,184.69L700.67,189.24L705.5,193.73L710.34,191.64L715.17,196.96L720,198.41" style="vector-effect: none; fill: none; stroke: rgb(255, 165, 0); stroke-opacity: 1; stroke-width: 2px; opacity: 1;"/></g><g class="points"/><g class="text"/></g><g class="trace scatter traced9350e" style="stroke-miterlimit: 2; opacity: 1;"><g class="fills"/><g class="errorbars"/><g class="lines"><path class="js-line" d="M0,344.58L4.83,309.73L9.66,250.02L14.5,231.11L19.33,205.68L24.16,179.63L28.99,170.14L33.83,164L38.66,163.88L43.49,157.74L48.32,148.13L53.15,142.5L57.99,151.92L67.65,143.95L72.48,125.74L77.32,142.5L82.15,140.35L86.98,131.18L91.81,133.08L96.64,121.63L101.48,106.7L106.31,108.66L111.14,60.28L115.97,55.41L120.81,88.55L125.64,100.76L130.47,99.62L135.3,82.16L140.13,53.07L144.97,65.65L149.8,53L154.63,49.08L159.46,60.72L164.3,59.14L169.13,42.13L173.96,40.8L178.79,36.31L183.62,41.37L188.46,41.05L193.29,49.4L198.12,68.37L202.95,77.86L207.79,60.78L212.62,38.14L217.45,43.26L227.11,39.98L231.95,42.06L236.78,36.62L241.61,38.46L246.44,43.96L251.28,47.82L256.11,39.72L260.94,52.94L270.6,40.99L275.44,43.9L280.27,41.05L285.1,52.75L289.93,48.26L294.77,47.31L299.6,56.67L304.43,45.79L309.26,40.99L314.09,45.04L318.93,44.47L323.76,34.54L328.59,36.05L333.42,44.78L343.09,44.85L347.92,36.24L352.75,42.89L357.58,40.48L362.42,39.47L367.25,44.21L372.08,47.88L376.91,42.7L381.74,41.11L386.58,41.49L391.41,39.53L396.24,42.76L401.07,48.26L405.91,37.19L410.74,52.25L415.57,57.05L420.4,43.77L425.23,68.94L430.07,61.73L434.9,64.45L439.73,63.31L444.56,42.25L449.4,40.67L454.23,51.8L459.06,39.41L463.89,36.69L468.72,40.86L473.56,27.2L478.39,19.8L483.22,29.54L488.05,29.98L492.89,33.97L497.72,30.24L502.55,30.99L507.38,30.36L512.21,30.49L517.05,27.26L521.88,26.76L526.71,40.17L531.54,31.94L536.38,34.28L541.21,31.44L546.04,34.92L550.87,36.81L555.7,33.15L560.54,36.37L565.37,41.94L570.2,41.05L575.03,39.03L579.87,56.04L584.7,56.17L589.53,40.23L594.36,32.45L599.19,31.63L604.03,33.02L608.86,38.14L613.69,31.82L618.52,31.63L623.36,29.6L628.19,31.5L633.02,31.31L637.85,30.17L642.68,31.82L647.52,35.68L652.35,34.35L657.18,25.94L662.01,45.1L666.85,51.04L671.68,51.8L676.51,37.83L681.34,35.86L686.17,35.36L691.01,47.82L695.84,50.73L700.67,37.51L705.5,51.11L710.34,49.46L715.17,63L720,61.23" style="vector-effect: none; fill: none; stroke: rgb(128, 0, 128); stroke-opacity: 1; stroke-width: 2px; opacity: 1;"/></g><g class="points"/><g class="text"/></g><g class="trace scatter trace82c315" style="stroke-miterlimit: 2; opacity: 1;"><g class="fills"/><g class="errorbars"/><g class="lines"><path class="js-line" d="M0,361.97L9.66,289.11L14.5,265.9L19.33,235.66L24.16,218.21L33.83,202.96L38.66,200.88L43.49,194.36L48.32,185.89L53.15,183.17L57.99,189.37L62.82,184.31L67.65,185.38L72.48,155.85L77.32,178.36L82.15,172.16L86.98,168.18L91.81,169.38L96.64,148.07L101.48,146.99L106.31,140.6L111.14,110.24L115.97,101.77L120.81,125.68L125.64,138.33L130.47,133.08L135.3,109.99L140.13,95.38L144.97,106.89L149.8,96.52L154.63,90.38L159.46,103.35L164.3,105.18L169.13,88.23L173.96,85.39L178.79,81.59L183.62,83.36L188.46,85.64L193.29,96.65L198.12,120.36L202.95,130.29L207.79,110.94L212.62,82.6L217.45,87.73L222.28,87.6L227.11,85.51L231.95,89.31L236.78,82.6L241.61,85.32L246.44,92.34L251.28,94.56L256.11,98.42L260.94,92.85L265.77,92.53L270.6,86.46L275.44,83.24L280.27,77.17L289.93,96.08L294.77,87.35L299.6,98.92L304.43,85.01L309.26,80.83L314.09,88.04L318.93,83.36L323.76,83.11L328.59,83.49L333.42,85.58L338.26,84L343.09,88.49L347.92,89.63L352.75,82.98L357.58,82.29L362.42,79.7L367.25,90.13L372.08,91.9L376.91,81.28L381.74,82.35L386.58,83.55L391.41,81.4L396.24,82.54L401.07,91.71L405.91,75.52L410.74,98.48L415.57,98.54L420.4,83.3L425.23,111.64L430.07,103.98L434.9,105.75L439.73,103.6L444.56,93.29L449.4,89.31L454.23,102.97L459.06,87.66L473.56,74.38L478.39,66.35L483.22,68.44L488.05,67.24L492.89,72.55L497.72,68.63L502.55,71.54L507.38,71.92L512.21,70.59L517.05,67.17L521.88,66.79L526.71,65.21L531.54,71.66L536.38,75.84L541.21,72.42L546.04,77.1L550.87,78.24L555.7,76.66L560.54,79.57L565.37,83.93L570.2,85.64L575.03,81.66L579.87,103.86L584.7,101.83L589.53,81.53L594.36,74.83L599.19,73.43L604.03,74.07L608.86,83.55L613.69,75.77L618.52,75.39L623.36,69.96L628.19,75.2L633.02,75.77L637.85,71.98L642.68,75.39L652.35,76.22L657.18,69.58L662.01,77.8L666.85,101.07L671.68,98.54L676.51,77.36L681.34,76.15L686.17,78.37L691.01,77.92L695.84,80.01L700.67,75.84L705.5,79.51L710.34,78.18L715.17,96.39L720,95.63" style="vector-effect: none; fill: none; stroke: rgb(255, 192, 203); stroke-opacity: 1; stroke-width: 2px; opacity: 1;"/></g><g class="points"/><g class="text"/></g><g class="trace scatter trace8b2d23" style="stroke-miterlimit: 2; opacity: 1;"><g class="fills"/><g class="errorbars"/><g class="lines"><path class="js-line" d="M0,347.3L4.83,304.35L9.66,243.38L14.5,220.93L19.33,202.4L24.16,183.17L28.99,182.03L33.83,181.97L38.66,180.07L43.49,177.6L48.32,171.47L53.15,169.32L57.99,172.29L62.82,168.56L67.65,168.75L72.48,158.5L77.32,164.64L82.15,169.25L86.98,161.22L91.81,168.5L96.64,155.59L101.48,143.83L106.31,146.17L111.14,116.06L115.97,114.86L120.81,129.09L125.64,135.73L130.47,135.73L135.3,126.63L140.13,117.26L144.97,115.87L149.8,110.24L154.63,113.85L159.46,118.97L164.3,118.47L169.13,100L173.96,98.42L178.79,101.83L183.62,101.9L188.46,103.54L193.29,101.52L202.95,118.53L207.79,111.89L212.62,103.67L217.45,108.41L222.28,103.67L227.11,106.01L241.61,103.16L246.44,105.94L251.28,107.46L256.11,97.53L260.94,111.51L265.77,104.93L270.6,105.06L275.44,109.8L280.27,113.47L285.1,125.74L289.93,111.76L294.77,114.67L299.6,114.92L304.43,110.69L309.26,108.41L314.09,107.84L318.93,107.46L323.76,100.69L328.59,100.5L333.42,107.59L338.26,108.09L343.09,106.83L347.92,98.67L352.75,108.47L357.58,106.32L362.42,107.46L367.25,106.89L372.08,108.03L376.91,108.16L381.74,107.46L386.58,102.65L391.41,106.7L396.24,109.42L401.07,109.3L405.91,110.62L410.74,115.43L415.57,112.65L420.4,107.97L425.23,119.92L430.07,121.94L434.9,118.21L439.73,124.16L444.56,104.68L449.4,102.78L454.23,108.54L459.06,102.97L463.89,101.39L468.72,112.84L473.56,98.61L478.39,100.88L483.22,111.83L488.05,114.04L497.72,113.72L502.55,114.23L507.38,112.46L512.21,112.08L517.05,111.07L521.88,111.95L526.71,124.66L531.54,113.53L536.38,110.37L541.21,111.07L546.04,110.12L550.87,111.7L555.7,108.6L560.54,109.86L565.37,111.45L570.2,110.88L575.03,109.36L579.87,118.34L584.7,118.09L589.53,110.37L594.36,108.09L599.19,109.93L604.03,111.07L608.86,107.65L613.69,107.4L618.52,105.56L623.36,107.97L628.19,105.63L637.85,108.09L642.68,107.97L647.52,107.65L652.35,106.32L657.18,101.07L662.01,115.87L666.85,117.96L671.68,116L676.51,108.92L681.34,109.61L686.17,108.66L691.01,117.14L695.84,117.01L700.67,110.56L705.5,124.79L710.34,123.34L715.17,125.99L720,124.54" style="vector-effect: none; fill: none; stroke: rgb(165, 42, 42); stroke-opacity: 1; stroke-width: 2px; opacity: 1;"/></g><g class="points"/><g class="text"/></g><g class="trace scatter trace5851ed" style="stroke-miterlimit: 2; opacity: 1;"><g class="fills"/><g class="errorbars"/><g class="lines"><path class="js-line" d="M0,376.2L9.66,294.93L14.5,268.87L19.33,244.01L24.16,240.98L28.99,243L33.83,243L38.66,239.02L43.49,236.17L48.32,231.49L53.15,232.94L57.99,231.62L62.82,226.81L67.65,230.6L72.48,213.02L77.32,224.41L82.15,223.39L86.98,222.76L91.81,226.81L96.64,204.04L101.48,205.68L106.31,198.98L111.14,185.26L115.97,180.45L120.81,185.82L125.64,195.25L130.47,193.1L135.3,177.48L140.13,182.35L144.97,177.54L149.8,174.44L154.63,176.59L159.46,182.35L164.3,184.88L169.13,165.9L173.96,163.56L178.79,166.98L183.62,166.72L188.46,167.55L193.29,165.9L198.12,178.24L202.95,188.8L207.79,179.37L212.62,167.23L217.45,172.1L222.28,166.72L227.11,170.9L241.61,167.61L246.44,172.23L256.11,176.53L260.94,168.87L265.77,168.81L270.6,169.7L275.44,168.18L280.27,169L285.1,180.39L289.93,177.6L294.77,172.16L299.6,174.57L304.43,169.76L309.26,166.03L314.09,166.66L318.93,162.93L323.76,164L328.59,164L333.42,165.14L338.26,164.83L347.92,165.78L352.75,163.81L362.42,163.81L367.25,169.7L372.08,168.37L376.91,163.81L381.74,165.02L386.58,160.65L391.41,164.83L396.24,165.84L401.07,167.86L405.91,166.6L410.74,174.82L415.57,169.63L420.4,164.95L425.23,178.99L430.07,178.61L434.9,174.06L439.73,180.77L444.56,170.96L449.4,165.59L454.23,173.3L459.06,165.08L463.89,162.61L468.72,160.46L473.56,159.7L478.39,164.26L483.22,161.1L488.05,164.64L492.89,165.21L497.72,165.46L502.55,167.42L507.38,166.66L512.21,165.02L517.05,162.8L521.88,163.69L526.71,166.03L531.54,163.88L536.38,162.49L541.21,162.87L546.04,162.74L550.87,164.38L555.7,162.49L560.54,163.25L565.37,163.12L570.2,165.9L575.03,161.73L579.87,175.14L584.7,172.48L589.53,161.85L594.36,160.97L599.19,162.61L608.86,165.14L613.69,163.56L618.52,161.73L623.36,160.72L628.19,159.32L633.02,161.03L637.85,160.91L642.68,162.74L652.35,158.75L657.18,157.05L662.01,160.46L666.85,175.64L671.68,172.73L676.51,160.65L681.34,161.22L686.17,162.93L691.01,158.57L695.84,156.86L700.67,160.78L705.5,166.41L710.34,163.88L715.17,172.61L720,173.43" style="vector-effect: none; fill: none; stroke: rgb(128, 128, 128); stroke-opacity: 1; stroke-width: 2px; opacity: 1;"/></g><g class="points"/><g class="text"/></g></g></g><g class="overplot"/><path class="xlines-above crisp" d="M0,0" style="fill: none;"/><path class="ylines-above crisp" d="M0,0" style="fill: none;"/><g class="overlines-above"/><g class="xaxislayer-above"><g class="xtick"><text text-anchor="middle" x="0" y="509" transform="translate(241.81,0)" style="font-family: 'Open Sans', verdana, arial, sans-serif; font-size: 12px; fill: rgb(42, 63, 95); fill-opacity: 1; white-space: pre; opacity: 1;">20</text></g><g class="xtick"><text text-anchor="middle" x="0" y="509" style="font-family: 'Open Sans', verdana, arial, sans-serif; font-size: 12px; fill: rgb(42, 63, 95); fill-opacity: 1; white-space: pre; opacity: 1;" transform="translate(338.46000000000004,0)">40</text></g><g class="xtick"><text text-anchor="middle" x="0" y="509" style="font-family: 'Open Sans', verdana, arial, sans-serif; font-size: 12px; fill: rgb(42, 63, 95); fill-opacity: 1; white-space: pre; opacity: 1;" transform="translate(435.1,0)">60</text></g><g class="xtick"><text text-anchor="middle" x="0" y="509" style="font-family: 'Open Sans', verdana, arial, sans-serif; font-size: 12px; fill: rgb(42, 63, 95); fill-opacity: 1; white-space: pre; opacity: 1;" transform="translate(531.74,0)">80</text></g><g class="xtick"><text text-anchor="middle" x="0" y="509" style="font-family: 'Open Sans', verdana, arial, sans-serif; font-size: 12px; fill: rgb(42, 63, 95); fill-opacity: 1; white-space: pre; opacity: 1;" transform="translate(628.39,0)">100</text></g><g class="xtick"><text text-anchor="middle" x="0" y="509" style="font-family: 'Open Sans', verdana, arial, sans-serif; font-size: 12px; fill: rgb(42, 63, 95); fill-opacity: 1; white-space: pre; opacity: 1;" transform="translate(725.03,0)">120</text></g><g class="xtick"><text text-anchor="middle" x="0" y="509" style="font-family: 'Open Sans', verdana, arial, sans-serif; font-size: 12px; fill: rgb(42, 63, 95); fill-opacity: 1; white-space: pre; opacity: 1;" transform="translate(821.68,0)">140</text></g></g><g class="yaxislayer-above"><g class="ytick"><text text-anchor="end" x="149" y="4.199999999999999" transform="translate(0,437.43)" style="font-family: 'Open Sans', verdana, arial, sans-serif; font-size: 12px; fill: rgb(42, 63, 95); fill-opacity: 1; white-space: pre; opacity: 1;">10</text></g><g class="ytick"><text text-anchor="end" x="149" y="4.199999999999999" style="font-family: 'Open Sans', verdana, arial, sans-serif; font-size: 12px; fill: rgb(42, 63, 95); fill-opacity: 1; white-space: pre; opacity: 1;" transform="translate(0,374.18)">20</text></g><g class="ytick"><text text-anchor="end" x="149" y="4.199999999999999" style="font-family: 'Open Sans', verdana, arial, sans-serif; font-size: 12px; fill: rgb(42, 63, 95); fill-opacity: 1; white-space: pre; opacity: 1;" transform="translate(0,310.93)">30</text></g><g class="ytick"><text text-anchor="end" x="149" y="4.199999999999999" style="font-family: 'Open Sans', verdana, arial, sans-serif; font-size: 12px; fill: rgb(42, 63, 95); fill-opacity: 1; white-space: pre; opacity: 1;" transform="translate(0,247.69)">40</text></g><g class="ytick"><text text-anchor="end" x="149" y="4.199999999999999" style="font-family: 'Open Sans', verdana, arial, sans-serif; font-size: 12px; fill: rgb(42, 63, 95); fill-opacity: 1; white-space: pre; opacity: 1;" transform="translate(0,184.44)">50</text></g><g class="ytick"><text text-anchor="end" x="149" y="4.199999999999999" style="font-family: 'Open Sans', verdana, arial, sans-serif; font-size: 12px; fill: rgb(42, 63, 95); fill-opacity: 1; white-space: pre; opacity: 1;" transform="translate(0,121.19)">60</text></g></g><g class="overaxes-above"/></g></g><g class="polarlayer"/><g class="smithlayer"/><g class="ternarylayer"/><g class="geolayer"/><g class="funnelarealayer"/><g class="pielayer"/><g class="iciclelayer"/><g class="treemaplayer"/><g class="sunburstlayer"/><g class="glimages"/><defs id="topdefs-bd1401"><g class="clips"/><clipPath id="legendbd1401"><rect width="128" height="162" x="0" y="0"/></clipPath></defs><g class="layer-above"><g class="imagelayer"/><g class="shapelayer"/></g><g class="infolayer"><g class="legend" pointer-events="all" transform="translate(884.4,100)"><rect class="bg" shape-rendering="crispEdges" width="128" height="162" x="0" y="0" style="stroke: rgb(68, 68, 68); stroke-opacity: 1; fill: rgb(255, 255, 255); fill-opacity: 1; stroke-width: 0px;"/><g class="scrollbox" transform="" clip-path="url(#legendbd1401)"><g class="groups"><g class="traces" transform="translate(0,14.5)" style="opacity: 1;"><text class="legendtext" text-anchor="start" x="40" y="4.680000000000001" style="font-family: 'Open Sans', verdana, arial, sans-serif; font-size: 12px; fill: rgb(42, 63, 95); fill-opacity: 1; white-space: pre;">Train Accuracy</text><g class="layers" style="opacity: 1;"><g class="legendfill"/><g class="legendlines"><path class="js-line" d="M5,0h30" style="fill: none; stroke: rgb(255, 0, 0); stroke-opacity: 1; stroke-width: 2px;"/></g><g class="legendsymbols"><g class="legendpoints"/></g></g><rect class="legendtoggle" x="0" y="-9.5" width="122.71875" height="19" style="fill: rgb(0, 0, 0); fill-opacity: 0;"/></g><g class="traces" transform="translate(0,33.5)" style="opacity: 1;"><text class="legendtext" text-anchor="start" x="40" y="4.680000000000001" style="font-family: 'Open Sans', verdana, arial, sans-serif; font-size: 12px; fill: rgb(42, 63, 95); fill-opacity: 1; white-space: pre;">Test Accuracy</text><g class="layers" style="opacity: 1;"><g class="legendfill"/><g class="legendlines"><path class="js-line" d="M5,0h30" style="fill: none; stroke: rgb(0, 0, 255); stroke-opacity: 1; stroke-width: 2px;"/></g><g class="legendsymbols"><g class="legendpoints"/></g></g><rect class="legendtoggle" x="0" y="-9.5" width="122.71875" height="19" style="fill: rgb(0, 0, 0); fill-opacity: 0;"/></g><g class="traces" transform="translate(0,52.5)" style="opacity: 1;"><text class="legendtext" text-anchor="start" x="40" y="4.680000000000001" style="font-family: 'Open Sans', verdana, arial, sans-serif; font-size: 12px; fill: rgb(42, 63, 95); fill-opacity: 1; white-space: pre;">Train Precision</text><g class="layers" style="opacity: 1;"><g class="legendfill"/><g class="legendlines"><path class="js-line" d="M5,0h30" style="fill: none; stroke: rgb(0, 128, 0); stroke-opacity: 1; stroke-width: 2px;"/></g><g class="legendsymbols"><g class="legendpoints"/></g></g><rect class="legendtoggle" x="0" y="-9.5" width="122.71875" height="19" style="fill: rgb(0, 0, 0); fill-opacity: 0;"/></g><g class="traces" transform="translate(0,71.5)" style="opacity: 1;"><text class="legendtext" text-anchor="start" x="40" y="4.680000000000001" style="font-family: 'Open Sans', verdana, arial, sans-serif; font-size: 12px; fill: rgb(42, 63, 95); fill-opacity: 1; white-space: pre;">Test Precision</text><g class="layers" style="opacity: 1;"><g class="legendfill"/><g class="legendlines"><path class="js-line" d="M5,0h30" style="fill: none; stroke: rgb(255, 165, 0); stroke-opacity: 1; stroke-width: 2px;"/></g><g class="legendsymbols"><g class="legendpoints"/></g></g><rect class="legendtoggle" x="0" y="-9.5" width="122.71875" height="19" style="fill: rgb(0, 0, 0); fill-opacity: 0;"/></g><g class="traces" transform="translate(0,90.5)" style="opacity: 1;"><text class="legendtext" text-anchor="start" x="40" y="4.680000000000001" style="font-family: 'Open Sans', verdana, arial, sans-serif; font-size: 12px; fill: rgb(42, 63, 95); fill-opacity: 1; white-space: pre;">Train Recall</text><g class="layers" style="opacity: 1;"><g class="legendfill"/><g class="legendlines"><path class="js-line" d="M5,0h30" style="fill: none; stroke: rgb(128, 0, 128); stroke-opacity: 1; stroke-width: 2px;"/></g><g class="legendsymbols"><g class="legendpoints"/></g></g><rect class="legendtoggle" x="0" y="-9.5" width="122.71875" height="19" style="fill: rgb(0, 0, 0); fill-opacity: 0;"/></g><g class="traces" transform="translate(0,109.5)" style="opacity: 1;"><text class="legendtext" text-anchor="start" x="40" y="4.680000000000001" style="font-family: 'Open Sans', verdana, arial, sans-serif; font-size: 12px; fill: rgb(42, 63, 95); fill-opacity: 1; white-space: pre;">Test Recall</text><g class="layers" style="opacity: 1;"><g class="legendfill"/><g class="legendlines"><path class="js-line" d="M5,0h30" style="fill: none; stroke: rgb(255, 192, 203); stroke-opacity: 1; stroke-width: 2px;"/></g><g class="legendsymbols"><g class="legendpoints"/></g></g><rect class="legendtoggle" x="0" y="-9.5" width="122.71875" height="19" style="fill: rgb(0, 0, 0); fill-opacity: 0;"/></g><g class="traces" transform="translate(0,128.5)" style="opacity: 1;"><text class="legendtext" text-anchor="start" x="40" y="4.680000000000001" style="font-family: 'Open Sans', verdana, arial, sans-serif; font-size: 12px; fill: rgb(42, 63, 95); fill-opacity: 1; white-space: pre;">Train F1</text><g class="layers" style="opacity: 1;"><g class="legendfill"/><g class="legendlines"><path class="js-line" d="M5,0h30" style="fill: none; stroke: rgb(165, 42, 42); stroke-opacity: 1; stroke-width: 2px;"/></g><g class="legendsymbols"><g class="legendpoints"/></g></g><rect class="legendtoggle" x="0" y="-9.5" width="122.71875" height="19" style="fill: rgb(0, 0, 0); fill-opacity: 0;"/></g><g class="traces" transform="translate(0,147.5)" style="opacity: 1;"><text class="legendtext" text-anchor="start" x="40" y="4.680000000000001" style="font-family: 'Open Sans', verdana, arial, sans-serif; font-size: 12px; fill: rgb(42, 63, 95); fill-opacity: 1; white-space: pre;">Test F1</text><g class="layers" style="opacity: 1;"><g class="legendfill"/><g class="legendlines"><path class="js-line" d="M5,0h30" style="fill: none; stroke: rgb(128, 128, 128); stroke-opacity: 1; stroke-width: 2px;"/></g><g class="legendsymbols"><g class="legendpoints"/></g></g><rect class="legendtoggle" x="0" y="-9.5" width="122.71875" height="19" style="fill: rgb(0, 0, 0); fill-opacity: 0;"/></g></g></g><rect class="scrollbar" rx="20" ry="3" width="0" height="0" x="0" y="0" style="fill: rgb(128, 139, 164); fill-opacity: 1;"/></g><g class="g-gtitle"><text class="gtitle" x="51.2" y="50" text-anchor="start" dy="0em" style="font-family: 'Open Sans', verdana, arial, sans-serif; font-size: 17px; fill: rgb(42, 63, 95); opacity: 1; font-weight: normal; white-space: pre;">Training Metrics - logs/HateXPlain_num-clauses=10000_max-vocab=15000_pre=v2_text_T=200_s=15.log</text></g><g class="g-xtitle"><text class="xtitle" x="510" y="537.3" text-anchor="middle" style="font-family: 'Open Sans', verdana, arial, sans-serif; font-size: 14px; fill: rgb(42, 63, 95); opacity: 1; font-weight: normal; white-space: pre;">Epoch</text></g><g class="g-ytitle"><text class="ytitle" transform="rotate(-90,110.965625,298)" x="110.965625" y="298" text-anchor="middle" style="font-family: 'Open Sans', verdana, arial, sans-serif; font-size: 14px; fill: rgb(42, 63, 95); opacity: 1; font-weight: normal; white-space: pre;">Metric Score</text></g></g><g class="menulayer"><g class="updatemenu-container" style="cursor: pointer;"><g class="updatemenu-header-group" transform="translate(12,60)"><g class="updatemenu-header" transform="translate(1,1)" style="pointer-events: all;"><rect class="updatemenu-item-rect" rx="2" ry="2" shape-rendering="crispEdges" x="0" y="0" width="174" height="33" style="stroke: rgb(190, 200, 217); stroke-opacity: 1; fill: rgb(255, 255, 255); fill-opacity: 1; stroke-width: 1px;"/><text class="updatemenu-item-text" text-anchor="start" data-notex="1" x="12" y="19.5" style="font-family: 'Open Sans', verdana, arial, sans-serif; font-size: 12px; fill: rgb(42, 63, 95); fill-opacity: 1; white-space: pre;">All</text></g><text class="updatemenu-header-arrow" text-anchor="end" x="170" y="19.5" style="font-family: 'Open Sans', verdana, arial, sans-serif; font-size: 12px; fill: rgb(42, 63, 95); fill-opacity: 1;">▼</text></g><g class="updatemenu-dropdown-button-group" updatemenu-active-index="-1" style="pointer-events: all;"><rect class="scrollbox-bg" opacity="0" x="0" y="0" width="0" height="0" style="pointer-events: all;"/></g></g></g></svg>