<svg class="main-svg" xmlns="http://www.w3.org/2000/svg" xmlns:xlink="http://www.w3.org/1999/xlink" width="1024" height="576" style="" viewBox="0 0 1024 576"><rect x="0" y="0" width="1024" height="576" style="fill: rgb(255, 255, 255); fill-opacity: 1;"/><defs id="defs-ec46bc"><g class="clips"><clipPath id="clipec46bcxyplot" class="plotclip"><rect width="726" height="396"/></clipPath><clipPath class="axesclip" id="clipec46bcx"><rect x="143" y="0" width="726" height="576"/></clipPath><clipPath class="axesclip" id="clipec46bcy"><rect x="0" y="100" width="1024" height="396"/></clipPath><clipPath class="axesclip" id="clipec46bcxy"><rect x="143" y="100" width="726" height="396"/></clipPath></g><g class="gradients"/><g class="patterns"/></defs><g class="bglayer"><rect class="bg" x="143" y="100" width="726" height="396" style="fill: rgb(229, 236, 246); fill-opacity: 1; stroke-width: 0;"/></g><g class="layer-below"><g class="imagelayer"/><g class="shapelayer"/></g><g class="cartesianlayer"><g class="subplot xy"><g class="layer-subplot"><g class="shapelayer"/><g class="imagelayer"/></g><g class="minor-gridlayer"><g class="x"/><g class="y"/></g><g class="gridlayer"><g class="x"><path class="xgrid crisp" transform="translate(235.57999999999998,0)" d="M0,100v396" style="stroke: rgb(255, 255, 255); stroke-opacity: 1; stroke-width: 1px;"/><path class="xgrid crisp" transform="translate(333.03,0)" d="M0,100v396" style="stroke: rgb(255, 255, 255); stroke-opacity: 1; stroke-width: 1px;"/><path class="xgrid crisp" transform="translate(430.48,0)" d="M0,100v396" style="stroke: rgb(255, 255, 255); stroke-opacity: 1; stroke-width: 1px;"/><path class="xgrid crisp" transform="translate(527.9300000000001,0)" d="M0,100v396" style="stroke: rgb(255, 255, 255); stroke-opacity: 1; stroke-width: 1px;"/><path class="xgrid crisp" transform="translate(625.38,0)" d="M0,100v396" style="stroke: rgb(255, 255, 255); stroke-opacity: 1; stroke-width: 1px;"/><path class="xgrid crisp" transform="translate(722.83,0)" d="M0,100v396" style="stroke: rgb(255, 255, 255); stroke-opacity: 1; stroke-width: 1px;"/><path class="xgrid crisp" transform="translate(820.28,0)" d="M0,100v396" style="stroke: rgb(255, 255, 255); stroke-opacity: 1; stroke-width: 1px;"/></g><g class="y"><path class="ygrid crisp" transform="translate(0,452.01)" d="M143,0h726" style="stroke: rgb(255, 255, 255); stroke-opacity: 1; stroke-width: 1px;"/><path class="ygrid crisp" transform="translate(0,376.16)" d="M143,0h726" style="stroke: rgb(255, 255, 255); stroke-opacity: 1; stroke-width: 1px;"/><path class="ygrid crisp" transform="translate(0,300.31)" d="M143,0h726" style="stroke: rgb(255, 255, 255); stroke-opacity: 1; stroke-width: 1px;"/><path class="ygrid crisp" transform="translate(0,224.47)" d="M143,0h726" style="stroke: rgb(255, 255, 255); stroke-opacity: 1; stroke-width: 1px;"/><path class="ygrid crisp" transform="translate(0,148.62)" d="M143,0h726" style="stroke: rgb(255, 255, 255); stroke-opacity: 1; stroke-width: 1px;"/></g></g><g class="zerolinelayer"/><path class="xlines-below"/><path class="ylines-below"/><g class="overlines-below"/><g class="xaxislayer-below"/><g class="yaxislayer-below"/><g class="overaxes-below"/><g class="plot" transform="translate(143,100)" clip-path="url(#clipec46bcxyplot)"><g class="scatterlayer mlayer"><g class="trace scatter trace2a26a3" style="stroke-miterlimit: 2; opacity: 1;"><g class="fills"/><g class="errorbars"/><g class="lines"><path class="js-line" d="M0,223.6L4.87,210.7L9.74,205.17L14.62,191.74L19.49,195.08L24.36,194.17L29.23,197.13L38.98,192.43L43.85,195.31L48.72,192.5L53.6,201.98L58.47,193.49L63.34,195.08L68.21,198.42L73.09,194.7L77.96,193.87L82.83,190.83L87.7,188.1L92.58,207.82L97.45,211.24L102.32,213.43L107.19,194.55L112.07,178.77L116.94,190L121.81,190.07L126.68,196.9L131.56,195.54L136.43,195.84L141.3,194.17L146.17,217.45L151.05,203.65L155.92,193.11L160.79,199.4L165.66,198.64L170.54,210.48L175.41,206.61L180.28,206.23L185.15,200.69L190.03,189.09L194.9,187.87L199.77,197.28L204.64,203.27L209.52,192.35L214.39,189.62L219.26,184.46L224.13,190.91L229.01,204.11L233.88,205.62L238.75,192.27L243.62,193.49L248.5,205.32L253.37,193.71L258.24,194.4L263.11,192.12L267.99,195.16L272.86,196.07L277.73,198.8L282.6,200.46L287.48,203.88L292.35,207.14L297.22,193.18L302.09,198.49L306.97,192.58L311.84,195.76L316.71,195L321.58,195.46L326.46,193.34L331.33,193.41L336.2,196.07L341.07,205.62L345.95,205.02L350.82,195.38L355.69,207.14L360.56,207.75L365.44,199.93L370.31,203.65L375.18,199.55L380.05,195.54L384.93,195.76L389.8,194.17L394.67,194.25L399.54,191.74L404.42,191.74L409.29,192.2L414.16,190.91L423.91,191.44L428.78,200.84L433.65,200.54L438.52,201.91L443.4,200.31L448.27,193.18L453.14,193.03L458.01,204.26L467.76,205.02L472.63,193.71L477.5,191.89L482.38,195.31L487.25,192.8L492.12,189.24L496.99,186.89L501.87,187.95L506.74,202.29L511.61,205.7L516.48,205.09L521.36,202.21L526.23,203.57L531.1,202.74L535.97,202.51L540.85,203.57L545.72,202.89L550.59,194.09L555.46,188.86L560.34,200.31L565.21,190.07L570.08,188.71L574.95,190.68L579.83,188.78L584.7,188.03L589.57,188.78L599.32,188.63L604.19,192.5L609.06,192.73L613.93,191.36L618.81,192.05L623.68,203.65L628.55,190.76L633.42,191.14L638.3,196.22L643.17,191.82L648.04,195.08L652.91,195.08L657.79,196.07L662.66,210.55L667.53,196.6L672.4,205.55L677.28,206.99L682.15,206.23L687.02,207.75L691.89,207.75L696.77,205.09L701.64,192.35L706.51,201.53L711.38,190.07L716.26,186.36L721.13,187.27L726,189.32" style="vector-effect: none; fill: none; stroke: rgb(255, 0, 0); stroke-opacity: 1; stroke-width: 2px; opacity: 1;"/></g><g class="points"/><g class="text"/></g><g class="trace scatter traceafc70c" style="stroke-miterlimit: 2; opacity: 1;"><g class="fills"/><g class="errorbars"/><g class="lines"><path class="js-line" d="M0,220.11L4.87,211.01L9.74,208.2L14.62,199.55L19.49,196.14L24.36,195.61L29.23,199.78L34.11,197.13L38.98,195.38L43.85,201.07L48.72,197.66L53.6,205.39L58.47,190L63.34,197.51L68.21,196.75L73.09,194.32L77.96,193.18L82.83,188.48L87.7,185.98L92.58,206.15L97.45,209.72L102.32,213.13L107.19,195.08L112.07,181.88L116.94,194.32L121.81,192.58L126.68,200.69L136.43,198.42L141.3,194.09L146.17,214.27L151.05,197.66L155.92,192.2L160.79,196.52L165.66,195.23L170.54,205.55L175.41,204.26L180.28,203.88L194.9,188.86L199.77,195.76L204.64,200.69L209.52,191.67L214.39,190.53L219.26,184.54L224.13,192.96L229.01,208.05L233.88,210.48L238.75,192.2L243.62,194.47L248.5,207.06L253.37,196.14L258.24,197.89L263.11,195.38L267.99,197.13L272.86,194.7L277.73,197.66L282.6,199.02L287.48,207.67L292.35,210.32L297.22,196.14L302.09,197.51L306.97,195.61L311.84,195.99L316.71,194.85L321.58,198.27L326.46,193.56L331.33,192.43L336.2,195.76L341.07,205.39L345.95,206.31L350.82,194.09L355.69,209.57L360.56,208.2L365.44,200.46L370.31,206.15L375.18,199.93L380.05,196.37L384.93,194.47L394.67,193.18L399.54,190.3L404.42,189.01L409.29,189.39L414.16,188.63L419.03,190.68L423.91,190.3L428.78,203.73L438.52,206.91L443.4,205.39L448.27,191.44L453.14,191.82L458.01,204.86L462.89,207.29L467.76,207.67L472.63,191.06L477.5,191.06L482.38,194.47L492.12,193.34L496.99,188.48L501.87,189.77L506.74,206.31L511.61,209.95L516.48,208.43L521.36,206.53L526.23,206.31L531.1,206.91L535.97,205.24L540.85,206.53L545.72,205.02L550.59,194.09L555.46,192.96L560.34,202.21L565.21,191.29L570.08,190L574.95,190.91L579.83,188.86L584.7,190.68L589.57,192.58L594.44,190.91L599.32,190L604.19,193.94L613.93,191.82L618.81,191.44L623.68,207.44L628.55,190.53L633.42,192.2L638.3,196.52L643.17,192.2L648.04,195.38L652.91,194.85L657.79,197.28L662.66,206.53L667.53,196.9L672.4,204.48L677.28,205.77L682.15,207.67L687.02,208.2L691.89,210.48L696.77,206.91L701.64,193.34L706.51,207.29L711.38,192.43L716.26,186.74L726,188.1" style="vector-effect: none; fill: none; stroke: rgb(0, 0, 255); stroke-opacity: 1; stroke-width: 2px; opacity: 1;"/></g><g class="points"/><g class="text"/></g><g class="trace scatter trace5848ce" style="stroke-miterlimit: 2; opacity: 1;"><g class="fills"/><g class="errorbars"/><g class="lines"><path class="js-line" d="M0,206.46L4.87,170.58L9.74,214.8L14.62,148.36L19.49,184.01L24.36,179.68L29.23,186.21L34.11,186.28L38.98,185.52L43.85,147.45L48.72,144.64L53.6,154.27L58.47,146.39L63.34,146.46L68.21,160.49L73.09,157.54L77.96,167.02L82.83,156.78L87.7,153.67L92.58,159.36L97.45,154.2L102.32,156.55L107.19,154.65L112.07,151.85L116.94,155.26L121.81,152.23L126.68,152.99L131.56,150.86L136.43,151.24L141.3,150.56L146.17,154.88L151.05,156.78L155.92,152.45L160.79,152.53L165.66,153.97L170.54,157.31L175.41,157.84L180.28,157.99L185.15,153.67L190.03,152.61L194.9,150.18L199.77,154.58L204.64,156.78L209.52,153.14L214.39,155.56L219.26,152.99L224.13,155.26L229.01,162.69L233.88,162.77L238.75,154.58L243.62,155.26L248.5,160.19L253.37,154.73L267.99,154.58L272.86,155.79L282.6,157.31L287.48,162.39L292.35,166.49L297.22,154.12L302.09,156.55L306.97,155.41L311.84,156.32L316.71,155.64L326.46,153.82L331.33,154.81L341.07,151.7L345.95,152.91L350.82,151.92L355.69,153.21L360.56,151.77L365.44,152.53L370.31,192.12L375.18,152.76L380.05,190.07L384.93,188.48L389.8,149.42L394.67,187.65L399.54,189.01L404.42,149.8L409.29,149.12L414.16,149.57L419.03,188.41L423.91,188.71L428.78,195.69L433.65,197.36L438.52,198.49L443.4,196.82L448.27,193.03L453.14,193.34L458.01,200.01L462.89,194.32L467.76,198.42L472.63,188.41L477.5,186.36L482.38,186.89L487.25,185.83L492.12,165.88L496.99,162.85L501.87,169.14L506.74,181.81L511.61,179L516.48,172.48L521.36,174.83L526.23,169.97L531.1,153.74L535.97,173.54L540.85,155.41L545.72,157.38L550.59,150.1L555.46,149.12L560.34,153.21L565.21,165.96L570.08,167.85L574.95,163.22L579.83,164.82L584.7,165.65L589.57,127.88L594.44,165.2L599.32,128.41L604.19,126.82L609.06,126.67L613.93,166.56L618.81,167.47L623.68,123.33L628.55,165.42L633.42,161.1L638.3,122.8L643.17,120.68L648.04,128.79L652.91,128.03L657.79,130.61L662.66,125L667.53,126.29L672.4,132.13L677.28,130.31L682.15,132.36L687.02,92.38L691.89,89.65L696.77,124.69L701.64,123.18L706.51,168.91L711.38,83.36L716.26,82.68L721.13,83.43L726,88.67" style="vector-effect: none; fill: none; stroke: rgb(0, 128, 0); stroke-opacity: 1; stroke-width: 2px; opacity: 1;"/></g><g class="points"/><g class="text"/></g><g class="trace scatter trace2e9f03" style="stroke-miterlimit: 2; opacity: 1;"><g class="fills"/><g class="errorbars"/><g class="lines"><path class="js-line" d="M0,376.2L4.87,334.48L9.74,343.74L14.62,341.08L19.49,330.62L24.36,299.14L29.23,307.18L34.11,301.72L38.98,304.6L43.85,262.28L48.72,266.45L53.6,259.93L58.47,259.09L63.34,263.19L68.21,270.47L73.09,272.37L77.96,280.03L82.83,269.86L87.7,271.68L92.58,280.63L97.45,245.06L102.32,246.81L107.19,260.08L112.07,258.26L116.94,266L121.81,259.4L126.68,265.69L131.56,263.34L136.43,263.49L141.3,263.34L146.17,266.07L151.05,265.01L155.92,259.93L160.79,259.7L165.66,265.62L170.54,265.16L175.41,269.03L180.28,270.62L185.15,279.12L190.03,279.88L194.9,269.41L199.77,262.66L204.64,264.02L209.52,262.43L214.39,269.33L219.26,266.45L224.13,265.84L229.01,278.13L233.88,278.13L238.75,262.51L243.62,265.16L248.5,268.8L253.37,264.48L263.11,268.65L267.99,266.38L272.86,265.01L277.73,267.21L282.6,266.53L287.48,278.13L292.35,279.8L297.22,266.38L306.97,265.92L311.84,268.5L316.71,266.15L321.58,270.32L326.46,264.71L331.33,265.16L336.2,266.38L341.07,270.93L345.95,269.26L350.82,263.04L355.69,271.38L360.56,271.53L365.44,266.3L370.31,272.97L375.18,268.73L380.05,268.73L384.93,265.69L389.8,266.07L394.67,263.27L399.54,263.49L409.29,258.87L414.16,260.08L423.91,262.36L428.78,269.48L433.65,274.04L438.52,277.07L443.4,275.32L448.27,264.71L453.14,267.21L458.01,273.2L462.89,276.77L467.76,276.08L472.63,260.46L477.5,257.88L482.38,261.6L487.25,262.73L492.12,261.6L496.99,258.18L501.87,268.04L506.74,273.96L511.61,274.49L516.48,273.35L521.36,268.27L526.23,266.38L531.1,264.33L535.97,263.87L545.72,270.55L550.59,263.34L560.34,272.37L565.21,267.74L570.08,269.26L574.95,265.84L579.83,264.02L584.7,267.51L589.57,266.07L594.44,256.21L599.32,258.56L604.19,258.18L609.06,255.23L613.93,258.56L618.81,257.27L623.68,265.92L628.55,257.43L633.42,260.53L638.3,261.9L643.17,259.93L648.04,260.46L652.91,258.94L672.4,260.31L677.28,263.19L682.15,266.15L687.02,263.72L696.77,262.05L701.64,259.78L706.51,270.02L711.38,260L716.26,258.18L721.13,259.47L726,259.93" style="vector-effect: none; fill: none; stroke: rgb(255, 165, 0); stroke-opacity: 1; stroke-width: 2px; opacity: 1;"/></g><g class="points"/><g class="text"/></g><g class="trace scatter trace719033" style="stroke-miterlimit: 2; opacity: 1;"><g class="fills"/><g class="errorbars"/><g class="lines"><path class="js-line" d="M0,283.52L4.87,205.93L9.74,199.71L14.62,180.14L19.49,174.3L29.23,127.65L34.11,132.58L38.98,130.91L43.85,139.64L48.72,121.96L53.6,117.19L58.47,108.01L63.34,95.65L68.21,104.9L73.09,95.34L77.96,93.14L82.83,94.36L87.7,95.12L92.58,97.16L97.45,90.26L102.32,91.32L107.19,84.8L112.07,88.06L116.94,81.61L121.81,81.77L126.68,80.02L131.56,79.41L141.3,78.5L146.17,86.85L151.05,83.89L155.92,78.35L160.79,80.63L165.66,79.79L170.54,82.07L175.41,81.54L180.28,81.84L185.15,73.95L190.03,72.21L194.9,78.35L199.77,77.22L204.64,78.58L209.52,76.76L214.39,77.75L219.26,77.44L224.13,79.11L229.01,103.69L233.88,102.78L238.75,80.78L243.62,80.78L248.5,100.35L253.37,81.16L258.24,82.22L263.11,81.08L267.99,75.17L272.86,77.06L282.6,74.79L287.48,100.35L292.35,100.5L297.22,77.22L302.09,75.7L306.97,75.24L311.84,75.55L316.71,75.02L321.58,75.55L326.46,72.06L331.33,71.98L336.2,64.4L341.07,62.65L345.95,64.62L350.82,65.76L355.69,63.41L360.56,58.03L365.44,69.1L370.31,80.17L375.18,68.95L380.05,79.57L384.93,79.41L389.8,69.86L394.67,76.15L399.54,81.08L404.42,60.15L409.29,69.86L414.16,57.5L423.91,80.93L428.78,103.84L433.65,104.52L438.52,110.59L443.4,104.6L448.27,79.34L453.14,79.04L458.01,102.4L462.89,99.67L467.76,98.98L472.63,69.33L477.5,71.15L482.38,65L487.25,73.04L492.12,76.08L496.99,72.66L501.87,63.03L506.74,93.9L511.61,77.82L516.48,77.67L521.36,73.57L526.23,74.18L531.1,79.41L535.97,92.38L540.85,90.79L545.72,95.57L550.59,68.11L555.46,72.36L560.34,68.42L565.21,62.73L570.08,61.82L574.95,61.89L579.83,62.27L584.7,57.95L589.57,45.36L594.44,54.99L599.32,43.69L604.19,42.33L609.06,43.24L613.93,55.6L618.81,60L623.68,75.47L628.55,60.91L633.42,59.85L638.3,45.13L643.17,42.55L648.04,45.44L652.91,43.54L657.79,43.39L662.66,40.73L667.53,31.94L672.4,38.84L677.28,39.37L682.15,37.24L687.02,35.8L691.89,39.06L696.77,42.63L701.64,59.24L706.51,64.62L711.38,25.87L716.26,19.8L721.13,29.66L726,29.28" style="vector-effect: none; fill: none; stroke: rgb(128, 0, 128); stroke-opacity: 1; stroke-width: 2px; opacity: 1;"/></g><g class="points"/><g class="text"/></g><g class="trace scatter trace0a0872" style="stroke-miterlimit: 2; opacity: 1;"><g class="fills"/><g class="errorbars"/><g class="lines"><path class="js-line" d="M0,327.73L4.87,258.34L9.74,259.32L14.62,254.24L19.49,234.14L24.36,203.65L29.23,190.76L34.11,193.79L38.98,194.47L43.85,191.82L48.72,181.81L53.6,178.55L58.47,153.36L63.34,145.7L68.21,142.97L73.09,137.13L77.96,135.77L82.83,134.78L87.7,137.13L97.45,144.26L102.32,144.34L107.19,123.33L112.07,131.75L116.94,124.47L121.81,124.32L131.56,123.03L136.43,121.66L141.3,120.6L146.17,129.32L151.05,125.38L155.92,118.25L160.79,120.68L165.66,120.3L170.54,122.12L175.41,122.27L180.28,123.48L185.15,125.61L190.03,127.43L194.9,120.83L199.77,118.48L204.64,118.63L209.52,119.16L214.39,122.72L219.26,121.28L224.13,123.18L229.01,155.26L233.88,153.36L238.75,121.59L243.62,122.8L248.5,145.17L253.37,123.18L263.11,126.82L267.99,117.79L272.86,117.03L277.73,115.21L282.6,114.08L287.48,148.89L292.35,145.02L297.22,118.85L302.09,114.38L306.97,114.91L311.84,117.11L316.71,115.44L321.58,118.32L326.46,112.48L331.33,112.33L336.2,105.73L341.07,105.05L345.95,109.53L350.82,108.31L355.69,108.62L360.56,102.32L365.44,115.44L370.31,119.01L375.18,115.75L380.05,116.88L384.93,113.55L389.8,113.92L394.67,107.48L399.54,113.55L404.42,100.5L409.29,109.53L414.16,109.9L419.03,112.41L423.91,111.19L428.78,142.22L433.65,142.97L438.52,153.59L443.4,144.57L448.27,109.3L453.14,113.17L458.01,140.17L462.89,141L467.76,142.52L472.63,103L477.5,104.6L482.38,99.97L487.25,108.92L492.12,110.06L496.99,106.64L501.87,115.59L506.74,139.41L511.61,138.57L516.48,137.06L521.36,131.45L526.23,131.37L531.1,132.43L540.85,132.51L545.72,137.74L550.59,104.6L555.46,113.32L560.34,112.79L565.21,108.08L574.95,108.39L579.83,108.84L584.7,107.55L589.57,113.47L594.44,105.13L599.32,101.94L604.19,100.35L609.06,100.88L613.93,111.27L618.81,109.98L623.68,137.97L628.55,111.88L633.42,113.85L638.3,108.92L643.17,106.87L648.04,102.4L652.91,104.6L657.79,102.24L662.66,103.91L667.53,98.3L672.4,92.61L677.28,101.79L682.15,104.52L687.02,103.15L691.89,96.78L696.77,96.1L701.64,110.13L706.51,134.25L711.38,98.68L716.26,92.16L721.13,103.46L726,102.78" style="vector-effect: none; fill: none; stroke: rgb(255, 192, 203); stroke-opacity: 1; stroke-width: 2px; opacity: 1;"/></g><g class="points"/><g class="text"/></g><g class="trace scatter trace06fb2e" style="stroke-miterlimit: 2; opacity: 1;"><g class="fills"/><g class="errorbars"/><g class="lines"><path class="js-line" d="M0,297.32L4.87,239.15L9.74,241.57L14.62,214.12L19.49,223.22L24.36,201.45L29.23,190.61L34.11,194.32L38.98,195.69L43.85,204.56L48.72,179.53L53.6,167.93L58.47,171.11L63.34,164.82L68.21,175.74L73.09,171.42L77.96,173.77L82.83,171.64L87.7,170.81L92.58,182.57L97.45,171.19L102.32,172.25L107.19,169.75L112.07,165.58L116.94,169.06L121.81,167.32L126.68,168.99L136.43,166.71L141.3,168.46L146.17,178.55L151.05,173.24L155.92,167.93L160.79,171.72L165.66,172.93L170.54,175.97L175.41,173.24L180.28,172.63L185.15,164.74L190.03,159.51L194.9,168.15L199.77,169.82L204.64,172.63L209.52,167.09L214.39,168.61L219.26,165.8L224.13,167.24L229.01,178.7L233.88,178.24L238.75,166.56L243.62,167.62L248.5,177.56L253.37,167.02L258.24,167.09L267.99,166.87L272.86,168.69L282.6,171.26L287.48,177.94L292.35,182.26L297.22,167.55L302.09,171.72L306.97,167.47L311.84,168.15L316.71,167.78L321.58,167.55L326.46,165.04L331.33,165.12L336.2,164.06L345.95,166.33L350.82,161.63L355.69,166.94L360.56,165.88L365.44,167.55L370.31,186.13L375.18,167.09L380.05,180.67L384.93,179.68L389.8,162.47L394.67,176.65L399.54,178.77L404.42,162.62L409.29,162.31L414.16,151.32L419.03,167.17L423.91,178.77L428.78,187.27L433.65,189.24L438.52,188.63L443.4,188.1L448.27,180.97L453.14,180.67L458.01,190.76L462.89,186.74L467.76,188.48L472.63,174.9L477.5,173.69L482.38,173.69L487.25,176.88L492.12,171.87L496.99,168.91L501.87,159.51L506.74,179.83L511.61,167.17L516.48,166.26L521.36,160.04L526.23,158.22L531.1,161.4L535.97,174.6L540.85,173.54L545.72,180.06L550.59,168.91L555.46,167.62L560.34,169.6L565.21,162.62L570.08,165.65L574.95,163.3L579.83,162.31L584.7,158.9L589.57,139.48L594.44,154.96L599.32,141.15L604.19,141.46L609.06,140.55L613.93,155.11L618.81,158.37L623.68,150.71L628.55,155.94L633.42,154.2L638.3,140.55L643.17,137.66L648.04,143.35L652.91,142.22L657.79,144.49L662.66,144.95L667.53,137.74L672.4,148.28L682.15,146.16L687.02,141.23L696.77,145.25L701.64,154.5L706.51,157.61L711.38,126.89L716.26,127.73L721.13,127.2L726,130.99" style="vector-effect: none; fill: none; stroke: rgb(165, 42, 42); stroke-opacity: 1; stroke-width: 2px; opacity: 1;"/></g><g class="points"/><g class="text"/></g><g class="trace scatter trace0deeb3" style="stroke-miterlimit: 2; opacity: 1;"><g class="fills"/><g class="errorbars"/><g class="lines"><path class="js-line" d="M0,359.13L4.87,312.79L9.74,319.92L14.62,316.28L19.49,305.97L24.36,277.37L29.23,276.39L38.98,283.52L43.85,281.32L53.6,246.58L58.47,239.37L63.34,237.86L68.21,239.53L73.09,236.19L77.96,240.06L82.83,236.42L87.7,234.82L92.58,250.3L97.45,248.17L102.32,249.84L107.19,232.85L112.07,231.87L116.94,235.66L121.81,232.17L126.68,237.48L131.56,236.34L136.43,233.69L141.3,235.43L146.17,246.2L151.05,237.55L155.92,232.62L165.66,239.3L170.54,239.22L180.28,238.01L185.15,244.38L194.9,236.42L199.77,234.82L204.64,236.26L209.52,231.79L214.39,236.72L219.26,232.7L224.13,232.93L229.01,250.3L233.88,250.22L238.75,230.5L243.62,233.23L248.5,244.38L253.37,232.02L258.24,233.38L263.11,235.58L267.99,233L272.86,232.7L277.73,235.13L282.6,235.28L287.48,248.4L292.35,251.28L297.22,234.14L302.09,236.19L306.97,232.47L311.84,234.22L316.71,232.93L321.58,236.11L326.46,229.51L331.33,229.82L336.2,228.45L341.07,233.23L345.95,235.13L350.82,227.62L355.69,237.4L360.56,235.96L365.44,236.64L370.31,244.38L375.18,238.46L380.05,236.64L384.93,232.93L389.8,232.02L394.67,227.01L399.54,229.82L404.42,227.85L409.29,226.1L414.16,227.24L423.91,228.15L428.78,239.75L433.65,244.23L438.52,246.28L443.4,244.23L448.27,229.44L453.14,230.88L458.01,243.39L462.89,245.44L467.76,245.37L472.63,224.36L477.5,223.29L482.38,223.98L487.25,231.03L492.12,229.06L496.99,225.8L501.87,233.15L506.74,243.09L511.61,243.32L516.48,241.73L521.36,235.66L526.23,233.99L535.97,233.69L540.85,236.26L545.72,239.53L550.59,224.96L560.34,240.13L565.21,232.85L570.08,235.28L574.95,232.85L579.83,230.5L584.7,230.2L589.57,230.96L594.44,222.92L604.19,225.04L609.06,222.61L613.93,225.72L618.81,224.89L623.68,237.63L628.55,223.45L638.3,229.82L643.17,227.24L652.91,227.09L657.79,228.3L662.66,235.28L667.53,227.09L672.4,229.89L677.28,234.9L682.15,235.81L687.02,232.7L691.89,230.42L696.77,229.21L701.64,228.6L706.51,239.83L711.38,223.22L716.26,223.45L726,225.19" style="vector-effect: none; fill: none; stroke: rgb(128, 128, 128); stroke-opacity: 1; stroke-width: 2px; opacity: 1;"/></g><g class="points"/><g class="text"/></g></g></g><g class="overplot"/><path class="xlines-above crisp" d="M0,0" style="fill: none;"/><path class="ylines-above crisp" d="M0,0" style="fill: none;"/><g class="overlines-above"/><g class="xaxislayer-above"><g class="xtick"><text text-anchor="middle" x="0" y="509" transform="translate(235.57999999999998,0)" style="font-family: 'Open Sans', verdana, arial, sans-serif; font-size: 12px; fill: rgb(42, 63, 95); fill-opacity: 1; white-space: pre; opacity: 1;">20</text></g><g class="xtick"><text text-anchor="middle" x="0" y="509" style="font-family: 'Open Sans', verdana, arial, sans-serif; font-size: 12px; fill: rgb(42, 63, 95); fill-opacity: 1; white-space: pre; opacity: 1;" transform="translate(333.03,0)">40</text></g><g class="xtick"><text text-anchor="middle" x="0" y="509" style="font-family: 'Open Sans', verdana, arial, sans-serif; font-size: 12px; fill: rgb(42, 63, 95); fill-opacity: 1; white-space: pre; opacity: 1;" transform="translate(430.48,0)">60</text></g><g class="xtick"><text text-anchor="middle" x="0" y="509" style="font-family: 'Open Sans', verdana, arial, sans-serif; font-size: 12px; fill: rgb(42, 63, 95); fill-opacity: 1; white-space: pre; opacity: 1;" transform="translate(527.9300000000001,0)">80</text></g><g class="xtick"><text text-anchor="middle" x="0" y="509" style="font-family: 'Open Sans', verdana, arial, sans-serif; font-size: 12px; fill: rgb(42, 63, 95); fill-opacity: 1; white-space: pre; opacity: 1;" transform="translate(625.38,0)">100</text></g><g class="xtick"><text text-anchor="middle" x="0" y="509" style="font-family: 'Open Sans', verdana, arial, sans-serif; font-size: 12px; fill: rgb(42, 63, 95); fill-opacity: 1; white-space: pre; opacity: 1;" transform="translate(722.83,0)">120</text></g><g class="xtick"><text text-anchor="middle" x="0" y="509" style="font-family: 'Open Sans', verdana, arial, sans-serif; font-size: 12px; fill: rgb(42, 63, 95); fill-opacity: 1; white-space: pre; opacity: 1;" transform="translate(820.28,0)">140</text></g></g><g class="yaxislayer-above"><g class="ytick"><text text-anchor="end" x="142" y="4.199999999999999" transform="translate(0,452.01)" style="font-family: 'Open Sans', verdana, arial, sans-serif; font-size: 12px; fill: rgb(42, 63, 95); fill-opacity: 1; white-space: pre; opacity: 1;">20</text></g><g class="ytick"><text text-anchor="end" x="142" y="4.199999999999999" style="font-family: 'Open Sans', verdana, arial, sans-serif; font-size: 12px; fill: rgb(42, 63, 95); fill-opacity: 1; white-space: pre; opacity: 1;" transform="translate(0,376.16)">30</text></g><g class="ytick"><text text-anchor="end" x="142" y="4.199999999999999" style="font-family: 'Open Sans', verdana, arial, sans-serif; font-size: 12px; fill: rgb(42, 63, 95); fill-opacity: 1; white-space: pre; opacity: 1;" transform="translate(0,300.31)">40</text></g><g class="ytick"><text text-anchor="end" x="142" y="4.199999999999999" style="font-family: 'Open Sans', verdana, arial, sans-serif; font-size: 12px; fill: rgb(42, 63, 95); fill-opacity: 1; white-space: pre; opacity: 1;" transform="translate(0,224.47)">50</text></g><g class="ytick"><text text-anchor="end" x="142" y="4.199999999999999" style="font-family: 'Open Sans', verdana, arial, sans-serif; font-size: 12px; fill: rgb(42, 63, 95); fill-opacity: 1; white-space: pre; opacity: 1;" transform="translate(0,148.62)">60</text></g></g><g class="overaxes-above"/></g></g><g class="polarlayer"/><g class="smithlayer"/><g class="ternarylayer"/><g class="geolayer"/><g class="funnelarealayer"/><g class="pielayer"/><g class="iciclelayer"/><g class="treemaplayer"/><g class="sunburstlayer"/><g class="glimages"/><defs id="topdefs-ec46bc"><g class="clips"/><clipPath id="legendec46bc"><rect width="128" height="162" x="0" y="0"/></clipPath></defs><g class="layer-above"><g class="imagelayer"/><g class="shapelayer"/></g><g class="infolayer"><g class="legend" pointer-events="all" transform="translate(883.52,100)"><rect class="bg" shape-rendering="crispEdges" width="128" height="162" x="0" y="0" style="stroke: rgb(68, 68, 68); stroke-opacity: 1; fill: rgb(255, 255, 255); fill-opacity: 1; stroke-width: 0px;"/><g class="scrollbox" transform="" clip-path="url(#legendec46bc)"><g class="groups"><g class="traces" transform="translate(0,14.5)" style="opacity: 1;"><text class="legendtext" text-anchor="start" x="40" y="4.680000000000001" style="font-family: 'Open Sans', verdana, arial, sans-serif; font-size: 12px; fill: rgb(42, 63, 95); fill-opacity: 1; white-space: pre;">Train Accuracy</text><g class="layers" style="opacity: 1;"><g class="legendfill"/><g class="legendlines"><path class="js-line" d="M5,0h30" style="fill: none; stroke: rgb(255, 0, 0); stroke-opacity: 1; stroke-width: 2px;"/></g><g class="legendsymbols"><g class="legendpoints"/></g></g><rect class="legendtoggle" x="0" y="-9.5" width="122.71875" height="19" style="fill: rgb(0, 0, 0); fill-opacity: 0;"/></g><g class="traces" transform="translate(0,33.5)" style="opacity: 1;"><text class="legendtext" text-anchor="start" x="40" y="4.680000000000001" style="font-family: 'Open Sans', verdana, arial, sans-serif; font-size: 12px; fill: rgb(42, 63, 95); fill-opacity: 1; white-space: pre;">Test Accuracy</text><g class="layers" style="opacity: 1;"><g class="legendfill"/><g class="legendlines"><path class="js-line" d="M5,0h30" style="fill: none; stroke: rgb(0, 0, 255); stroke-opacity: 1; stroke-width: 2px;"/></g><g class="legendsymbols"><g class="legendpoints"/></g></g><rect class="legendtoggle" x="0" y="-9.5" width="122.71875" height="19" style="fill: rgb(0, 0, 0); fill-opacity: 0;"/></g><g class="traces" transform="translate(0,52.5)" style="opacity: 1;"><text class="legendtext" text-anchor="start" x="40" y="4.680000000000001" style="font-family: 'Open Sans', verdana, arial, sans-serif; font-size: 12px; fill: rgb(42, 63, 95); fill-opacity: 1; white-space: pre;">Train Precision</text><g class="layers" style="opacity: 1;"><g class="legendfill"/><g class="legendlines"><path class="js-line" d="M5,0h30" style="fill: none; stroke: rgb(0, 128, 0); stroke-opacity: 1; stroke-width: 2px;"/></g><g class="legendsymbols"><g class="legendpoints"/></g></g><rect class="legendtoggle" x="0" y="-9.5" width="122.71875" height="19" style="fill: rgb(0, 0, 0); fill-opacity: 0;"/></g><g class="traces" transform="translate(0,71.5)" style="opacity: 1;"><text class="legendtext" text-anchor="start" x="40" y="4.680000000000001" style="font-family: 'Open Sans', verdana, arial, sans-serif; font-size: 12px; fill: rgb(42, 63, 95); fill-opacity: 1; white-space: pre;">Test Precision</text><g class="layers" style="opacity: 1;"><g class="legendfill"/><g class="legendlines"><path class="js-line" d="M5,0h30" style="fill: none; stroke: rgb(255, 165, 0); stroke-opacity: 1; stroke-width: 2px;"/></g><g class="legendsymbols"><g class="legendpoints"/></g></g><rect class="legendtoggle" x="0" y="-9.5" width="122.71875" height="19" style="fill: rgb(0, 0, 0); fill-opacity: 0;"/></g><g class="traces" transform="translate(0,90.5)" style="opacity: 1;"><text class="legendtext" text-anchor="start" x="40" y="4.680000000000001" style="font-family: 'Open Sans', verdana, arial, sans-serif; font-size: 12px; fill: rgb(42, 63, 95); fill-opacity: 1; white-space: pre;">Train Recall</text><g class="layers" style="opacity: 1;"><g class="legendfill"/><g class="legendlines"><path class="js-line" d="M5,0h30" style="fill: none; stroke: rgb(128, 0, 128); stroke-opacity: 1; stroke-width: 2px;"/></g><g class="legendsymbols"><g class="legendpoints"/></g></g><rect class="legendtoggle" x="0" y="-9.5" width="122.71875" height="19" style="fill: rgb(0, 0, 0); fill-opacity: 0;"/></g><g class="traces" transform="translate(0,109.5)" style="opacity: 1;"><text class="legendtext" text-anchor="start" x="40" y="4.680000000000001" style="font-family: 'Open Sans', verdana, arial, sans-serif; font-size: 12px; fill: rgb(42, 63, 95); fill-opacity: 1; white-space: pre;">Test Recall</text><g class="layers" style="opacity: 1;"><g class="legendfill"/><g class="legendlines"><path class="js-line" d="M5,0h30" style="fill: none; stroke: rgb(255, 192, 203); stroke-opacity: 1; stroke-width: 2px;"/></g><g class="legendsymbols"><g class="legendpoints"/></g></g><rect class="legendtoggle" x="0" y="-9.5" width="122.71875" height="19" style="fill: rgb(0, 0, 0); fill-opacity: 0;"/></g><g class="traces" transform="translate(0,128.5)" style="opacity: 1;"><text class="legendtext" text-anchor="start" x="40" y="4.680000000000001" style="font-family: 'Open Sans', verdana, arial, sans-serif; font-size: 12px; fill: rgb(42, 63, 95); fill-opacity: 1; white-space: pre;">Train F1</text><g class="layers" style="opacity: 1;"><g class="legendfill"/><g class="legendlines"><path class="js-line" d="M5,0h30" style="fill: none; stroke: rgb(165, 42, 42); stroke-opacity: 1; stroke-width: 2px;"/></g><g class="legendsymbols"><g class="legendpoints"/></g></g><rect class="legendtoggle" x="0" y="-9.5" width="122.71875" height="19" style="fill: rgb(0, 0, 0); fill-opacity: 0;"/></g><g class="traces" transform="translate(0,147.5)" style="opacity: 1;"><text class="legendtext" text-anchor="start" x="40" y="4.680000000000001" style="font-family: 'Open Sans', verdana, arial, sans-serif; font-size: 12px; fill: rgb(42, 63, 95); fill-opacity: 1; white-space: pre;">Test F1</text><g class="layers" style="opacity: 1;"><g class="legendfill"/><g class="legendlines"><path class="js-line" d="M5,0h30" style="fill: none; stroke: rgb(128, 128, 128); stroke-opacity: 1; stroke-width: 2px;"/></g><g class="legendsymbols"><g class="legendpoints"/></g></g><rect class="legendtoggle" x="0" y="-9.5" width="122.71875" height="19" style="fill: rgb(0, 0, 0); fill-opacity: 0;"/></g></g></g><rect class="scrollbar" rx="20" ry="3" width="0" height="0" x="0" y="0" style="fill: rgb(128, 139, 164); fill-opacity: 1;"/></g><g class="g-gtitle"><text class="gtitle" x="51.2" y="50" text-anchor="start" dy="0em" style="font-family: 'Open Sans', verdana, arial, sans-serif; font-size: 17px; fill: rgb(42, 63, 95); opacity: 1; font-weight: normal; white-space: pre;">Training Metrics - logs/HateXPlain_num-clauses=5000_max-vocab=15000_pre=v2_text_T=150_s=10.log</text></g><g class="g-xtitle"><text class="xtitle" x="506" y="537.3" text-anchor="middle" style="font-family: 'Open Sans', verdana, arial, sans-serif; font-size: 14px; fill: rgb(42, 63, 95); opacity: 1; font-weight: normal; white-space: pre;">Epoch</text></g><g class="g-ytitle"><text class="ytitle" transform="rotate(-90,103.965625,298)" x="103.965625" y="298" text-anchor="middle" style="font-family: 'Open Sans', verdana, arial, sans-serif; font-size: 14px; fill: rgb(42, 63, 95); opacity: 1; font-weight: normal; white-space: pre;">Metric Score</text></g></g><g class="menulayer"><g class="updatemenu-container" style="cursor: pointer;"><g class="updatemenu-header-group" transform="translate(12,60)"><g class="updatemenu-header" transform="translate(1,1)" style="pointer-events: all;"><rect class="updatemenu-item-rect" rx="2" ry="2" shape-rendering="crispEdges" x="0" y="0" width="167" height="33" style="stroke: rgb(190, 200, 217); stroke-opacity: 1; fill: rgb(255, 255, 255); fill-opacity: 1; stroke-width: 1px;"/><text class="updatemenu-item-text" text-anchor="start" data-notex="1" x="12" y="19.5" style="font-family: 'Open Sans', verdana, arial, sans-serif; font-size: 12px; fill: rgb(42, 63, 95); fill-opacity: 1; white-space: pre;">All</text></g><text class="updatemenu-header-arrow" text-anchor="end" x="163" y="19.5" style="font-family: 'Open Sans', verdana, arial, sans-serif; font-size: 12px; fill: rgb(42, 63, 95); fill-opacity: 1;">▼</text></g><g class="updatemenu-dropdown-button-group" updatemenu-active-index="-1" style="pointer-events: all;"><rect class="scrollbox-bg" opacity="0" x="0" y="0" width="0" height="0" style="pointer-events: all;"/></g></g></g></svg>