<svg class="main-svg" xmlns="http://www.w3.org/2000/svg" xmlns:xlink="http://www.w3.org/1999/xlink" width="1024" height="576" style="" viewBox="0 0 1024 576"><rect x="0" y="0" width="1024" height="576" style="fill: rgb(255, 255, 255); fill-opacity: 1;"/><defs id="defs-b70251"><g class="clips"><clipPath id="clipb70251xyplot" class="plotclip"><rect width="724" height="396"/></clipPath><clipPath class="axesclip" id="clipb70251x"><rect x="146" y="0" width="724" height="576"/></clipPath><clipPath class="axesclip" id="clipb70251y"><rect x="0" y="100" width="1024" height="396"/></clipPath><clipPath class="axesclip" id="clipb70251xy"><rect x="146" y="100" width="724" height="396"/></clipPath></g><g class="gradients"/><g class="patterns"/></defs><g class="bglayer"><rect class="bg" x="146" y="100" width="724" height="396" style="fill: rgb(229, 236, 246); fill-opacity: 1; stroke-width: 0;"/></g><g class="layer-below"><g class="imagelayer"/><g class="shapelayer"/></g><g class="cartesianlayer"><g class="subplot xy"><g class="layer-subplot"><g class="shapelayer"/><g class="imagelayer"/></g><g class="minor-gridlayer"><g class="x"/><g class="y"/></g><g class="gridlayer"><g class="x"><path class="xgrid crisp" transform="translate(238.32,0)" d="M0,100v396" style="stroke: rgb(255, 255, 255); stroke-opacity: 1; stroke-width: 1px;"/><path class="xgrid crisp" transform="translate(335.5,0)" d="M0,100v396" style="stroke: rgb(255, 255, 255); stroke-opacity: 1; stroke-width: 1px;"/><path class="xgrid crisp" transform="translate(432.68,0)" d="M0,100v396" style="stroke: rgb(255, 255, 255); stroke-opacity: 1; stroke-width: 1px;"/><path class="xgrid crisp" transform="translate(529.87,0)" d="M0,100v396" style="stroke: rgb(255, 255, 255); stroke-opacity: 1; stroke-width: 1px;"/><path class="xgrid crisp" transform="translate(627.05,0)" d="M0,100v396" style="stroke: rgb(255, 255, 255); stroke-opacity: 1; stroke-width: 1px;"/><path class="xgrid crisp" transform="translate(724.23,0)" d="M0,100v396" style="stroke: rgb(255, 255, 255); stroke-opacity: 1; stroke-width: 1px;"/><path class="xgrid crisp" transform="translate(821.41,0)" d="M0,100v396" style="stroke: rgb(255, 255, 255); stroke-opacity: 1; stroke-width: 1px;"/></g><g class="y"><path class="ygrid crisp" transform="translate(0,474.33)" d="M146,0h724" style="stroke: rgb(255, 255, 255); stroke-opacity: 1; stroke-width: 1px;"/><path class="ygrid crisp" transform="translate(0,422.45)" d="M146,0h724" style="stroke: rgb(255, 255, 255); stroke-opacity: 1; stroke-width: 1px;"/><path class="ygrid crisp" transform="translate(0,370.58)" d="M146,0h724" style="stroke: rgb(255, 255, 255); stroke-opacity: 1; stroke-width: 1px;"/><path class="ygrid crisp" transform="translate(0,318.7)" d="M146,0h724" style="stroke: rgb(255, 255, 255); stroke-opacity: 1; stroke-width: 1px;"/><path class="ygrid crisp" transform="translate(0,266.82)" d="M146,0h724" style="stroke: rgb(255, 255, 255); stroke-opacity: 1; stroke-width: 1px;"/><path class="ygrid crisp" transform="translate(0,214.94)" d="M146,0h724" style="stroke: rgb(255, 255, 255); stroke-opacity: 1; stroke-width: 1px;"/><path class="ygrid crisp" transform="translate(0,163.07)" d="M146,0h724" style="stroke: rgb(255, 255, 255); stroke-opacity: 1; stroke-width: 1px;"/><path class="ygrid crisp" transform="translate(0,111.19)" d="M146,0h724" style="stroke: rgb(255, 255, 255); stroke-opacity: 1; stroke-width: 1px;"/></g></g><g class="zerolinelayer"/><path class="xlines-below"/><path class="ylines-below"/><g class="overlines-below"/><g class="xaxislayer-below"/><g class="yaxislayer-below"/><g class="overaxes-below"/><g class="plot" transform="translate(146,100)" clip-path="url(#clipb70251xyplot)"><g class="scatterlayer mlayer"><g class="trace scatter trace9402b4" style="stroke-miterlimit: 2; opacity: 1;"><g class="fills"/><g class="errorbars"/><g class="lines"><path class="js-line" d="M0,31.73L4.86,22.71L9.72,28.31L14.58,20.22L19.44,22.91L24.3,21.25L29.15,35.78L43.73,38.16L48.59,40.14L53.45,47.5L58.31,48.02L63.17,46.26L68.03,49.37L72.89,50.51L77.74,49.99L82.6,49.16L87.46,50.62L92.32,51.65L97.18,71.57L102.04,161.94L106.9,168.48L111.76,178.75L116.62,183.21L121.48,179.06L126.34,185.19L131.19,176.78L136.05,172.11L140.91,165.47L145.77,161.43L150.63,189.03L155.49,198.05L160.35,191.41L165.21,196.39L170.07,204.38L174.93,195.15L179.79,192.97L184.64,182.28L189.5,178.03L194.36,183.84L199.22,196.91L204.08,186.02L208.94,191.31L213.8,183.01L218.66,189.03L223.52,180.52L228.38,185.81L233.23,181.76L238.09,185.7L242.95,171.8L247.81,175.23L252.67,167.96L262.39,171.39L267.25,188.2L272.11,188.51L276.97,184.77L281.83,182.28L286.68,187.47L291.54,186.54L296.4,190.27L301.26,183.01L306.12,183.63L310.98,188.61L315.84,192.24L320.7,184.25L325.56,180.52L330.42,182.38L335.28,168.27L340.13,166.51L344.99,163.61L349.85,161.94L354.71,169.31L359.57,172.32L364.43,167.65L369.29,169.62L374.15,163.5L379.01,156.45L383.87,170.76L388.72,189.96L393.58,164.75L398.44,165.68L403.3,167.44L408.16,163.4L413.02,173.98L417.88,175.95L422.74,166.1L427.6,167.44L432.46,179.17L437.32,176.26L442.17,180.21L447.03,186.12L451.89,179.69L461.61,178.03L466.47,184.15L471.33,179.79L476.19,203.14L481.05,191.72L485.91,189.96L490.77,190.69L495.62,199.19L500.48,203.24L505.34,200.54L510.2,199.19L515.06,188.3L524.78,198.16L529.64,196.7L534.5,179.06L539.36,173.05L544.21,170.87L549.07,180L558.79,173.88L563.65,179.69L568.51,171.28L573.37,160.08L578.23,162.15L583.09,163.09L587.95,177.72L592.81,189.75L597.66,103.32L602.52,102.7L607.38,106.44L612.24,109.03L617.1,183.63L621.96,181.97L626.82,178.86L631.68,185.19L636.54,195.67L641.4,195.25L646.26,188.82L651.11,178.03L655.97,174.19L660.83,171.7L665.69,175.23L670.55,175.95L675.41,174.4L680.27,179.89L685.13,175.95L689.99,200.02L694.85,194.94L699.7,192.35L704.56,99.17L709.42,90.46L714.28,197.22L719.14,192.24L724,200.54" style="vector-effect: none; fill: none; stroke: rgb(255, 0, 0); stroke-opacity: 1; stroke-width: 2px; opacity: 1;"/></g><g class="points"/><g class="text"/></g><g class="trace scatter trace889a57" style="stroke-miterlimit: 2; opacity: 1;"><g class="fills"/><g class="errorbars"/><g class="lines"><path class="js-line" d="M0,21.15L4.86,19.8L9.72,32.56L14.58,19.8L19.44,25.51L24.3,22.19L29.15,34.43L34.01,37.33L38.87,37.75L48.59,44.39L53.45,50.62L58.31,48.64L63.17,49.16L68.03,51.55L72.89,51.96L77.74,51.96L82.6,53.42L87.46,60.58L92.32,57.67L97.18,82.36L102.04,175.74L106.9,188.51L111.76,196.6L116.62,201.27L121.48,190.89L126.34,194.21L131.19,191.83L136.05,184.25L140.91,172.42L145.77,171.91L150.63,194.63L155.49,201.79L160.35,183.73L170.07,198.47L174.93,188.51L179.79,186.12L184.64,176.68L189.5,178.55L194.36,183.32L199.22,189.96L204.08,183.32L208.94,187.05L213.8,182.8L218.66,178.55L223.52,167.13L228.38,178.03L233.23,176.16L238.09,182.8L242.95,171.91L247.81,181.87L252.67,168.59L257.53,176.68L262.39,175.74L267.25,188.51L272.11,187.57L276.97,183.32L281.83,180.93L291.54,191.31L296.4,201.79L301.26,192.76L306.12,189.44L310.98,187.57L315.84,195.15L320.7,180L325.56,177.09L335.28,166.72L340.13,168.17L344.99,156.24L349.85,164.33L354.71,175.74L359.57,179.48L364.43,171.91L369.29,174.81L374.15,165.27L379.01,167.65L388.72,190.89L393.58,169.1L398.44,166.72L403.3,167.65L408.16,165.78L413.02,183.32L417.88,187.57L422.74,176.68L427.6,176.16L432.46,184.25L437.32,182.38L442.17,191.83L447.03,187.57L451.89,186.64L456.75,179.48L461.61,179.06L466.47,191.31L471.33,182.8L476.19,201.79L481.05,207.49L485.91,206.04L490.77,202.2L495.62,210.3L500.48,206.97L510.2,216.52L515.06,204.59L519.92,206.04L524.78,213.62L529.64,209.36L534.5,188.51L539.36,177.61L544.21,178.55L549.07,189.44L553.93,189.96L558.79,184.25L563.65,197.01L568.51,184.25L573.37,176.16L578.23,174.29L583.09,176.68L587.95,188.51L592.81,195.15L597.66,97.93L602.52,100.31L607.38,96.99L612.24,99.38L617.1,178.55L621.96,178.03L626.82,176.68L631.68,188.51L636.54,197.01L641.4,202.72L646.26,195.67L651.11,181.87L655.97,180.93L660.83,173.77L665.69,178.03L670.55,180L675.41,179.48L680.27,176.68L685.13,176.68L689.99,197.95L694.85,194.21L699.7,195.15L704.56,95.13L709.42,83.3L714.28,194.21L719.14,190.37L724,201.27" style="vector-effect: none; fill: none; stroke: rgb(0, 0, 255); stroke-opacity: 1; stroke-width: 2px; opacity: 1;"/></g><g class="points"/><g class="text"/></g><g class="trace scatter trace6195f3" style="stroke-miterlimit: 2; opacity: 1;"><g class="fills"/><g class="errorbars"/><g class="lines"><path class="js-line" d="M0,283.65L4.86,219.43L9.72,236.34L14.58,199.19L19.44,217.45L24.3,207.39L29.15,255.74L34.01,255.01L38.87,255.95L48.59,256.05L53.45,268.4L58.31,266.22L63.17,261.86L68.03,266.84L72.89,268.5L77.74,266.63L82.6,263.94L87.46,255.95L92.32,254.81L97.18,263.42L102.04,312.81L106.9,312.18L111.76,314.67L116.62,315.3L121.48,313.64L126.34,317.16L131.19,313.32L140.91,311.77L145.77,310.11L150.63,314.26L155.49,316.02L160.35,311.98L165.21,314.05L170.07,315.71L174.93,313.74L179.79,315.19L184.64,313.53L189.5,311.66L194.36,312.18L199.22,315.92L204.08,313.53L208.94,316.23L213.8,313.74L218.66,315.61L223.52,311.04L233.23,310.52L238.09,309.8L242.95,307.51L247.81,309.8L252.67,307L257.53,306.68L262.39,307.83L267.25,310.52L281.83,309.17L286.68,311.77L291.54,310.63L296.4,310.73L301.26,309.49L306.12,309.59L315.84,310.21L320.7,307.41L325.56,305.85L330.42,307.51L335.28,304.92L340.13,305.02L344.99,303.36L349.85,299.73L354.71,304.92L359.57,305.44L364.43,304.09L369.29,305.02L374.15,303.57L379.01,300.15L383.87,304.09L388.72,309.9L393.58,302.84L398.44,302.01L403.3,300.35L408.16,299.94L417.88,304.92L422.74,301.6L427.6,300.87L432.46,307L437.32,306.48L442.17,307.41L447.03,309.8L451.89,307.72L456.75,307.31L461.61,308.76L471.33,305.75L476.19,312.6L481.05,308.76L485.91,309.59L490.77,310.83L495.62,313.12L500.48,314.36L505.34,311.46L510.2,310.63L515.06,307.1L524.78,309.07L529.64,307.62L534.5,303.26L539.36,301.81L544.21,301.5L549.07,304.4L553.93,304.3L558.79,302.01L563.65,303.67L568.51,300.98L573.37,296.52L578.23,296.72L583.09,296.52L587.95,303.26L592.81,306.79L597.66,280.85L602.52,279.4L607.38,282.61L612.24,283.55L617.1,305.13L626.82,302.64L631.68,303.26L636.54,307.2L641.4,306.58L646.26,304.3L651.11,299.84L655.97,298.49L660.83,298.59L665.69,301.29L670.55,301.29L675.41,299.63L680.27,302.33L685.13,301.6L689.99,307.41L699.7,306.58L704.56,282.92L709.42,282.92L714.28,308.45L719.14,307.2L724,309.59" style="vector-effect: none; fill: none; stroke: rgb(0, 128, 0); stroke-opacity: 1; stroke-width: 2px; opacity: 1;"/></g><g class="points"/><g class="text"/></g><g class="trace scatter tracec543b1" style="stroke-miterlimit: 2; opacity: 1;"><g class="fills"/><g class="errorbars"/><g class="lines"><path class="js-line" d="M0,260.72L4.86,249.41L9.72,281.47L14.58,256.47L19.44,278.57L24.3,258.13L29.15,274.42L34.01,279.08L38.87,282.3L48.59,287.7L53.45,295.48L58.31,286.56L63.17,287.28L72.89,289.05L77.74,288.22L82.6,292.16L87.46,294.03L92.32,286.76L97.18,295.06L102.04,331.38L106.9,336.05L116.62,341.75L121.48,336.25L131.19,335.84L136.05,334.28L140.91,329.2L145.77,327.54L155.49,328.16L160.35,321.11L165.21,324.84L170.07,326.92L174.93,325.88L179.79,329.2L184.64,326.71L189.5,327.54L194.36,325.88L199.22,330.03L204.08,327.33L208.94,330.34L213.8,330.76L218.66,328.26L223.52,321.11L228.38,324.43L238.09,322.14L242.95,326.09L247.81,331.79L252.67,323.91L257.53,326.71L262.39,324.84L267.25,325.88L272.11,323.39L276.97,320.9L281.83,324.22L296.4,333.14L301.26,334.08L306.12,334.18L310.98,326.19L315.84,331.38L320.7,325.98L330.42,320.38L335.28,322.35L340.13,323.7L344.99,318.82L349.85,321.21L354.71,327.02L359.57,324.32L364.43,323.91L369.29,325.15L374.15,320.9L383.87,323.18L388.72,326.81L393.58,322.66L398.44,316.54L408.16,315.4L413.02,321.62L417.88,325.46L422.74,323.08L427.6,322.87L432.46,319.86L437.32,321.94L442.17,327.95L447.03,324.11L451.89,328.68L456.75,322.14L461.61,324.11L466.47,329.93L471.33,326.4L476.19,328.16L481.05,335.32L485.91,333.35L490.77,332.62L495.62,332.73L500.48,328.68L505.34,329.82L510.2,332L515.06,329.2L519.92,330.44L524.78,332.42L529.64,330.96L539.36,324.22L544.21,325.36L549.07,327.64L553.93,331.48L558.79,326.29L563.65,327.75L573.37,322.14L578.23,320.69L583.09,324.53L587.95,324.43L592.81,325.67L597.66,294.13L602.52,295.27L607.38,290.6L612.24,292.37L617.1,318.2L621.96,317.37L626.82,320.28L631.68,323.7L636.54,321.42L641.4,326.4L646.26,326.5L651.11,321L655.97,322.04L660.83,319.76L665.69,320.9L675.41,320.07L680.27,317.47L685.13,321L689.99,321.11L694.85,320.28L699.7,323.49L704.56,298.49L709.42,290.6L714.28,321.73L719.14,318.2L724,325.15" style="vector-effect: none; fill: none; stroke: rgb(255, 165, 0); stroke-opacity: 1; stroke-width: 2px; opacity: 1;"/></g><g class="points"/><g class="text"/></g><g class="trace scatter traceecbd36" style="stroke-miterlimit: 2; opacity: 1;"><g class="fills"/><g class="errorbars"/><g class="lines"><path class="js-line" d="M0,376.2L4.86,359.91L9.72,315.4L14.58,356.69L19.44,339.47L24.3,335.74L29.15,306.06L34.01,298.18L38.87,299.21L43.73,291.43L48.59,280.85L53.45,277.53L58.31,270.37L63.17,266.53L68.03,266.01L72.89,266.12L77.74,263L82.6,259.27L87.46,230.22L92.32,222.33L97.18,183.01L102.04,190.37L106.9,183.84L116.62,182.28L121.48,180.41L126.34,186.12L131.19,180.93L136.05,182.49L140.91,184.87L145.77,183.53L150.63,175.64L155.49,175.64L160.35,168.17L165.21,170.97L170.07,171.28L174.93,170.76L179.79,176.06L184.64,177.92L189.5,175.54L194.36,173.25L199.22,175.95L204.08,175.43L208.94,179.79L213.8,177.92L218.66,179.38L223.52,172.32L228.38,168.69L233.23,169.73L238.09,165.37L247.81,172.11L252.67,169.93L257.53,167.34L262.39,169.52L267.25,165.89L272.11,164.64L281.83,165.78L286.68,169.62L296.4,165.16L301.26,166.2L306.12,166.1L310.98,163.81L315.84,162.46L320.7,159.45L325.56,157.79L330.42,161.22L340.13,165.37L344.99,162.78L349.85,153.96L354.71,162.78L364.43,161.84L369.29,162.88L374.15,163.71L379.01,159.66L383.87,159.35L388.72,163.09L398.44,157.38L403.3,151.36L408.16,153.33L413.02,153.23L417.88,158.11L422.74,155.82L427.6,152.81L432.46,161.74L442.17,162.36L447.03,165.16L451.89,163.4L456.75,162.57L461.61,167.65L466.47,160.28L471.33,157.9L476.19,163.5L481.05,158.94L485.91,162.15L490.77,165.37L495.62,166.93L500.48,168.27L505.34,161.53L510.2,159.87L515.06,156.13L519.92,156.76L524.78,156.03L529.64,152.92L534.5,151.36L544.21,151.88L549.07,153.75L553.93,155.82L558.79,151.26L563.65,152.19L568.51,150.22L573.37,146.28L578.23,145.14L583.09,143.79L587.95,152.09L592.81,154.58L597.66,168.17L602.52,165.06L607.38,168.48L612.24,167.13L617.1,153.54L631.68,147.32L636.54,152.3L641.4,150.64L646.26,147.94L651.11,142.34L655.97,141.19L660.83,143.06L665.69,148.35L670.55,147.73L675.41,144.1L680.27,148.15L685.13,148.66L694.85,152.4L699.7,152.3L704.56,181.24L709.42,197.43L714.28,154.99L719.14,154.06L724,156.45" style="vector-effect: none; fill: none; stroke: rgb(128, 0, 128); stroke-opacity: 1; stroke-width: 2px; opacity: 1;"/></g><g class="points"/><g class="text"/></g><g class="trace scatter traceeade04" style="stroke-miterlimit: 2; opacity: 1;"><g class="fills"/><g class="errorbars"/><g class="lines"><path class="js-line" d="M0,360.74L4.86,353.89L9.72,330.34L14.58,366.14L19.44,359.08L24.3,349.02L29.15,308.97L34.01,306.48L38.87,310.83L43.73,306.27L48.59,298.18L53.45,295.48L58.31,282.2L63.17,282.41L68.03,277.63L72.89,277.94L77.74,275.87L82.6,280.74L87.46,266.32L92.32,256.57L97.18,221.29L102.04,214.13L106.9,219.22L116.62,228.35L121.48,218.49L126.34,216.31L131.19,217.04L136.05,216.83L140.91,210.3L145.77,205.94L150.63,192.03L155.49,189.86L160.35,179.79L165.21,186.12L170.07,187.99L174.93,190.69L179.79,201.58L184.64,200.33L189.5,201.48L194.36,193.9L199.22,201.68L204.08,197.95L208.94,204.17L213.8,207.91L218.66,203.45L223.52,191L228.38,192.97L233.23,191.93L238.09,183.42L242.95,201.79L247.81,211.44L252.67,197.95L257.53,200.33L267.25,190.69L272.11,183.94L276.97,179.58L281.83,190.48L291.54,200.44L296.4,204.17L301.26,211.44L306.12,213.62L310.98,192.14L315.84,202.51L325.56,190.48L330.42,185.5L335.28,194.84L340.13,197.64L344.99,193.07L349.85,193.49L354.71,201.89L359.57,191.72L364.43,195.67L369.29,197.33L374.15,192.03L379.01,193.28L383.87,189.23L388.72,191.93L393.58,194.11L398.44,178.55L403.3,174.91L408.16,175.95L413.02,181.66L417.88,190.17L427.6,189.86L432.46,176.06L437.32,183.11L442.17,194.52L447.03,186.02L451.89,199.82L456.75,185.6L461.61,191.52L466.47,200.44L471.33,195.67L476.19,189.86L481.05,207.29L485.91,202.41L490.77,202.41L495.62,198.67L500.48,188.71L505.34,189.54L510.2,194.01L515.06,191.41L519.92,194.32L524.78,196.5L529.64,194.11L534.5,194.73L539.36,192.76L544.21,195.35L549.07,195.25L553.93,205.73L558.79,194.42L563.65,191.31L568.51,190.27L578.23,184.77L583.09,194.21L587.95,186.54L592.81,186.22L597.66,191.2L602.52,190.48L607.38,182.49L612.24,183.84L617.1,174.91L621.96,172.63L626.82,181.97L631.68,184.56L636.54,172.94L641.4,184.25L646.26,188.51L651.11,180.83L655.97,184.36L660.83,182.49L665.69,182.8L670.55,179.79L675.41,179.48L680.27,173.88L685.13,184.04L689.99,171.39L694.85,171.39L699.7,180.1L704.56,208.01L709.42,207.49L714.28,175.43L719.14,167.24L724,181.45" style="vector-effect: none; fill: none; stroke: rgb(255, 192, 203); stroke-opacity: 1; stroke-width: 2px; opacity: 1;"/></g><g class="points"/><g class="text"/></g><g class="trace scatter trace3d4ffd" style="stroke-miterlimit: 2; opacity: 1;"><g class="fills"/><g class="errorbars"/><g class="lines"><path class="js-line" d="M0,364.48L4.86,340.09L9.72,291.43L14.58,334.8L19.44,314.05L24.3,308.76L29.15,287.7L34.01,281.47L38.87,282.61L48.59,270.06L53.45,273.17L63.17,264.25L68.03,266.43L72.89,267.36L77.74,264.87L82.6,261.65L87.46,244.53L97.18,238L102.04,306.06L106.9,307.83L111.76,314.15L116.62,316.54L121.48,313.32L126.34,319.13L131.19,312.08L140.91,306.27L145.77,303.16L150.63,317.99L155.49,323.6L160.35,317.06L165.21,321L170.07,326.19L174.93,320.28L179.79,320.48L184.64,314.47L189.5,310.94L194.36,313.84L199.22,322.97L204.08,316.02L208.94,320.69L213.8,314.88L218.66,319.24L223.52,311.46L228.38,313.74L233.23,311.46L238.09,312.49L242.95,304.61L247.81,308.14L252.67,302.64L257.53,303.16L262.39,304.71L267.25,314.26L272.11,314.15L276.97,311.87L281.83,310.52L286.68,315.09L291.54,313.64L296.4,315.4L301.26,311.04L306.12,311.46L310.98,313.95L315.84,315.81L320.7,309.69L325.56,306.68L330.42,309.07L335.28,300.67L340.13,300.15L344.99,297.35L349.85,293.3L354.71,301.08L359.57,302.84L364.43,299.73L369.29,301.29L374.15,297.55L379.01,291.54L383.87,300.87L388.72,314.57L393.58,297.35L398.44,296.93L403.3,296.1L408.16,294.03L413.02,300.98L417.88,303.88L422.74,296.72L427.6,296.52L432.46,307.2L437.32,305.44L442.17,308.03L447.03,312.81L451.89,308.03L456.75,307.41L466.47,309.9L471.33,306.27L476.19,322.97L481.05,314.36L485.91,314.26L490.77,315.71L495.62,321.52L500.48,324.53L505.34,320.69L510.2,319.45L515.06,311.25L519.92,314.36L524.78,317.58L529.64,315.71L534.5,303.78L539.36,299.73L544.21,298.59L549.07,305.13L553.93,303.78L558.79,300.25L563.65,304.4L568.51,298.28L573.37,289.46L578.23,290.5L583.09,290.71L587.95,303.16L592.81,311.66L597.66,256.88L602.52,255.22L607.38,259.37L612.24,260.82L617.1,307.41L621.96,305.75L626.82,303.16L631.68,306.58L636.54,314.78L641.4,314.05L646.26,309.07L651.11,300.25L655.97,297.35L660.83,296.2L665.69,300.25L670.55,300.56L675.41,298.38L680.27,303.26L685.13,300.87L689.99,317.06L694.85,314.36L699.7,312.7L704.56,259.16L709.42,259.68L714.28,316.64L719.14,313.12L724,319.13" style="vector-effect: none; fill: none; stroke: rgb(165, 42, 42); stroke-opacity: 1; stroke-width: 2px; opacity: 1;"/></g><g class="points"/><g class="text"/></g><g class="trace scatter trace209b17" style="stroke-miterlimit: 2; opacity: 1;"><g class="fills"/><g class="errorbars"/><g class="lines"><path class="js-line" d="M0,342.27L4.86,333.04L9.72,313.74L14.58,348.81L19.44,341.65L24.3,328.26L29.15,295.17L34.01,295.06L38.87,299.11L43.73,297.14L48.59,293.3L53.45,295.48L58.31,284.38L63.17,285L68.03,283.34L72.89,283.86L77.74,282.51L82.6,286.87L87.46,282.51L92.32,274.31L97.18,273.59L102.04,331.59L106.9,340.92L111.76,347.15L116.62,351.51L121.48,342.06L126.34,343.21L131.19,342.06L136.05,337.6L140.91,328.16L145.77,326.29L150.63,335.32L155.49,338.85L160.35,324.63L165.21,331.38L170.07,336.25L174.93,331.17L179.79,333.35L184.64,327.23L189.5,328.78L194.36,328.99L199.22,335.63L204.08,330.44L208.94,334.8L213.8,333.56L218.66,329.51L223.52,318.1L228.38,325.57L233.23,324.01L238.09,325.26L242.95,324.84L247.81,334.28L252.67,321.42L257.53,327.23L262.39,325.05L267.25,331.17L272.11,328.37L276.97,324.22L281.83,326.4L291.54,336.05L296.4,343.52L301.26,340.72L306.12,339.47L310.98,331.07L315.84,339.06L320.7,327.75L325.56,324.11L330.42,319.13L335.28,319.13L340.13,321L344.99,311.98L349.85,317.16L354.71,327.23L359.57,325.98L364.43,322.66L369.29,324.94L374.15,317.27L379.01,319.24L383.87,324.53L388.72,333.04L393.58,320.38L398.44,313.43L403.3,312.81L408.16,311.98L413.02,324.94L417.88,330.34L422.74,323.7L427.6,323.28L432.46,323.7L437.32,324.84L442.17,334.39L447.03,328.99L451.89,333.04L456.75,323.91L461.61,325.57L466.47,336.05L471.33,329.3L481.05,347.87L485.91,345.49L490.77,343.21L495.62,346.73L500.48,341.65L505.34,345.07L510.2,348.91L515.06,341.13L519.92,342.89L524.78,347.98L529.64,344.76L534.5,332.52L539.36,325.15L544.21,326.6L549.07,333.25L553.93,337.08L558.79,329.82L563.65,336.46L568.51,328.37L573.37,322.66L578.23,320.38L583.09,325.05L592.81,333.66L597.66,271.41L602.52,272.86L607.38,266.95L612.24,269.33L617.1,319.76L621.96,318.72L626.82,320.9L631.68,329.1L636.54,330.65L641.4,337.71L646.26,334.7L651.11,323.8L655.97,324.43L660.83,319.34L665.69,322.04L675.41,321.83L680.27,318.2L685.13,321.62L689.99,330.76L694.85,328.37L699.7,331.69L704.56,276.7L709.42,267.67L714.28,329.72L719.14,324.74L724,335.94" style="vector-effect: none; fill: none; stroke: rgb(128, 128, 128); stroke-opacity: 1; stroke-width: 2px; opacity: 1;"/></g><g class="points"/><g class="text"/></g></g></g><g class="overplot"/><path class="xlines-above crisp" d="M0,0" style="fill: none;"/><path class="ylines-above crisp" d="M0,0" style="fill: none;"/><g class="overlines-above"/><g class="xaxislayer-above"><g class="xtick"><text text-anchor="middle" x="0" y="509" transform="translate(238.32,0)" style="font-family: 'Open Sans', verdana, arial, sans-serif; font-size: 12px; fill: rgb(42, 63, 95); fill-opacity: 1; white-space: pre; opacity: 1;">20</text></g><g class="xtick"><text text-anchor="middle" x="0" y="509" style="font-family: 'Open Sans', verdana, arial, sans-serif; font-size: 12px; fill: rgb(42, 63, 95); fill-opacity: 1; white-space: pre; opacity: 1;" transform="translate(335.5,0)">40</text></g><g class="xtick"><text text-anchor="middle" x="0" y="509" style="font-family: 'Open Sans', verdana, arial, sans-serif; font-size: 12px; fill: rgb(42, 63, 95); fill-opacity: 1; white-space: pre; opacity: 1;" transform="translate(432.68,0)">60</text></g><g class="xtick"><text text-anchor="middle" x="0" y="509" style="font-family: 'Open Sans', verdana, arial, sans-serif; font-size: 12px; fill: rgb(42, 63, 95); fill-opacity: 1; white-space: pre; opacity: 1;" transform="translate(529.87,0)">80</text></g><g class="xtick"><text text-anchor="middle" x="0" y="509" style="font-family: 'Open Sans', verdana, arial, sans-serif; font-size: 12px; fill: rgb(42, 63, 95); fill-opacity: 1; white-space: pre; opacity: 1;" transform="translate(627.05,0)">100</text></g><g class="xtick"><text text-anchor="middle" x="0" y="509" style="font-family: 'Open Sans', verdana, arial, sans-serif; font-size: 12px; fill: rgb(42, 63, 95); fill-opacity: 1; white-space: pre; opacity: 1;" transform="translate(724.23,0)">120</text></g><g class="xtick"><text text-anchor="middle" x="0" y="509" style="font-family: 'Open Sans', verdana, arial, sans-serif; font-size: 12px; fill: rgb(42, 63, 95); fill-opacity: 1; white-space: pre; opacity: 1;" transform="translate(821.41,0)">140</text></g></g><g class="yaxislayer-above"><g class="ytick"><text text-anchor="end" x="145" y="4.199999999999999" transform="translate(0,474.33)" style="font-family: 'Open Sans', verdana, arial, sans-serif; font-size: 12px; fill: rgb(42, 63, 95); fill-opacity: 1; white-space: pre; opacity: 1;">55</text></g><g class="ytick"><text text-anchor="end" x="145" y="4.199999999999999" style="font-family: 'Open Sans', verdana, arial, sans-serif; font-size: 12px; fill: rgb(42, 63, 95); fill-opacity: 1; white-space: pre; opacity: 1;" transform="translate(0,422.45)">60</text></g><g class="ytick"><text text-anchor="end" x="145" y="4.199999999999999" style="font-family: 'Open Sans', verdana, arial, sans-serif; font-size: 12px; fill: rgb(42, 63, 95); fill-opacity: 1; white-space: pre; opacity: 1;" transform="translate(0,370.58)">65</text></g><g class="ytick"><text text-anchor="end" x="145" y="4.199999999999999" style="font-family: 'Open Sans', verdana, arial, sans-serif; font-size: 12px; fill: rgb(42, 63, 95); fill-opacity: 1; white-space: pre; opacity: 1;" transform="translate(0,318.7)">70</text></g><g class="ytick"><text text-anchor="end" x="145" y="4.199999999999999" style="font-family: 'Open Sans', verdana, arial, sans-serif; font-size: 12px; fill: rgb(42, 63, 95); fill-opacity: 1; white-space: pre; opacity: 1;" transform="translate(0,266.82)">75</text></g><g class="ytick"><text text-anchor="end" x="145" y="4.199999999999999" style="font-family: 'Open Sans', verdana, arial, sans-serif; font-size: 12px; fill: rgb(42, 63, 95); fill-opacity: 1; white-space: pre; opacity: 1;" transform="translate(0,214.94)">80</text></g><g class="ytick"><text text-anchor="end" x="145" y="4.199999999999999" style="font-family: 'Open Sans', verdana, arial, sans-serif; font-size: 12px; fill: rgb(42, 63, 95); fill-opacity: 1; white-space: pre; opacity: 1;" transform="translate(0,163.07)">85</text></g><g class="ytick"><text text-anchor="end" x="145" y="4.199999999999999" style="font-family: 'Open Sans', verdana, arial, sans-serif; font-size: 12px; fill: rgb(42, 63, 95); fill-opacity: 1; white-space: pre; opacity: 1;" transform="translate(0,111.19)">90</text></g></g><g class="overaxes-above"/></g></g><g class="polarlayer"/><g class="smithlayer"/><g class="ternarylayer"/><g class="geolayer"/><g class="funnelarealayer"/><g class="pielayer"/><g class="iciclelayer"/><g class="treemaplayer"/><g class="sunburstlayer"/><g class="glimages"/><defs id="topdefs-b70251"><g class="clips"/><clipPath id="legendb70251"><rect width="128" height="162" x="0" y="0"/></clipPath></defs><g class="layer-above"><g class="imagelayer"/><g class="shapelayer"/></g><g class="infolayer"><g class="legend" pointer-events="all" transform="translate(884.48,100)"><rect class="bg" shape-rendering="crispEdges" width="128" height="162" x="0" y="0" style="stroke: rgb(68, 68, 68); stroke-opacity: 1; fill: rgb(255, 255, 255); fill-opacity: 1; stroke-width: 0px;"/><g class="scrollbox" transform="" clip-path="url(#legendb70251)"><g class="groups"><g class="traces" transform="translate(0,14.5)" style="opacity: 1;"><text class="legendtext" text-anchor="start" x="40" y="4.680000000000001" style="font-family: 'Open Sans', verdana, arial, sans-serif; font-size: 12px; fill: rgb(42, 63, 95); fill-opacity: 1; white-space: pre;">Train Accuracy</text><g class="layers" style="opacity: 1;"><g class="legendfill"/><g class="legendlines"><path class="js-line" d="M5,0h30" style="fill: none; stroke: rgb(255, 0, 0); stroke-opacity: 1; stroke-width: 2px;"/></g><g class="legendsymbols"><g class="legendpoints"/></g></g><rect class="legendtoggle" x="0" y="-9.5" width="122.71875" height="19" style="fill: rgb(0, 0, 0); fill-opacity: 0;"/></g><g class="traces" transform="translate(0,33.5)" style="opacity: 1;"><text class="legendtext" text-anchor="start" x="40" y="4.680000000000001" style="font-family: 'Open Sans', verdana, arial, sans-serif; font-size: 12px; fill: rgb(42, 63, 95); fill-opacity: 1; white-space: pre;">Test Accuracy</text><g class="layers" style="opacity: 1;"><g class="legendfill"/><g class="legendlines"><path class="js-line" d="M5,0h30" style="fill: none; stroke: rgb(0, 0, 255); stroke-opacity: 1; stroke-width: 2px;"/></g><g class="legendsymbols"><g class="legendpoints"/></g></g><rect class="legendtoggle" x="0" y="-9.5" width="122.71875" height="19" style="fill: rgb(0, 0, 0); fill-opacity: 0;"/></g><g class="traces" transform="translate(0,52.5)" style="opacity: 1;"><text class="legendtext" text-anchor="start" x="40" y="4.680000000000001" style="font-family: 'Open Sans', verdana, arial, sans-serif; font-size: 12px; fill: rgb(42, 63, 95); fill-opacity: 1; white-space: pre;">Train Precision</text><g class="layers" style="opacity: 1;"><g class="legendfill"/><g class="legendlines"><path class="js-line" d="M5,0h30" style="fill: none; stroke: rgb(0, 128, 0); stroke-opacity: 1; stroke-width: 2px;"/></g><g class="legendsymbols"><g class="legendpoints"/></g></g><rect class="legendtoggle" x="0" y="-9.5" width="122.71875" height="19" style="fill: rgb(0, 0, 0); fill-opacity: 0;"/></g><g class="traces" transform="translate(0,71.5)" style="opacity: 1;"><text class="legendtext" text-anchor="start" x="40" y="4.680000000000001" style="font-family: 'Open Sans', verdana, arial, sans-serif; font-size: 12px; fill: rgb(42, 63, 95); fill-opacity: 1; white-space: pre;">Test Precision</text><g class="layers" style="opacity: 1;"><g class="legendfill"/><g class="legendlines"><path class="js-line" d="M5,0h30" style="fill: none; stroke: rgb(255, 165, 0); stroke-opacity: 1; stroke-width: 2px;"/></g><g class="legendsymbols"><g class="legendpoints"/></g></g><rect class="legendtoggle" x="0" y="-9.5" width="122.71875" height="19" style="fill: rgb(0, 0, 0); fill-opacity: 0;"/></g><g class="traces" transform="translate(0,90.5)" style="opacity: 1;"><text class="legendtext" text-anchor="start" x="40" y="4.680000000000001" style="font-family: 'Open Sans', verdana, arial, sans-serif; font-size: 12px; fill: rgb(42, 63, 95); fill-opacity: 1; white-space: pre;">Train Recall</text><g class="layers" style="opacity: 1;"><g class="legendfill"/><g class="legendlines"><path class="js-line" d="M5,0h30" style="fill: none; stroke: rgb(128, 0, 128); stroke-opacity: 1; stroke-width: 2px;"/></g><g class="legendsymbols"><g class="legendpoints"/></g></g><rect class="legendtoggle" x="0" y="-9.5" width="122.71875" height="19" style="fill: rgb(0, 0, 0); fill-opacity: 0;"/></g><g class="traces" transform="translate(0,109.5)" style="opacity: 1;"><text class="legendtext" text-anchor="start" x="40" y="4.680000000000001" style="font-family: 'Open Sans', verdana, arial, sans-serif; font-size: 12px; fill: rgb(42, 63, 95); fill-opacity: 1; white-space: pre;">Test Recall</text><g class="layers" style="opacity: 1;"><g class="legendfill"/><g class="legendlines"><path class="js-line" d="M5,0h30" style="fill: none; stroke: rgb(255, 192, 203); stroke-opacity: 1; stroke-width: 2px;"/></g><g class="legendsymbols"><g class="legendpoints"/></g></g><rect class="legendtoggle" x="0" y="-9.5" width="122.71875" height="19" style="fill: rgb(0, 0, 0); fill-opacity: 0;"/></g><g class="traces" transform="translate(0,128.5)" style="opacity: 1;"><text class="legendtext" text-anchor="start" x="40" y="4.680000000000001" style="font-family: 'Open Sans', verdana, arial, sans-serif; font-size: 12px; fill: rgb(42, 63, 95); fill-opacity: 1; white-space: pre;">Train F1</text><g class="layers" style="opacity: 1;"><g class="legendfill"/><g class="legendlines"><path class="js-line" d="M5,0h30" style="fill: none; stroke: rgb(165, 42, 42); stroke-opacity: 1; stroke-width: 2px;"/></g><g class="legendsymbols"><g class="legendpoints"/></g></g><rect class="legendtoggle" x="0" y="-9.5" width="122.71875" height="19" style="fill: rgb(0, 0, 0); fill-opacity: 0;"/></g><g class="traces" transform="translate(0,147.5)" style="opacity: 1;"><text class="legendtext" text-anchor="start" x="40" y="4.680000000000001" style="font-family: 'Open Sans', verdana, arial, sans-serif; font-size: 12px; fill: rgb(42, 63, 95); fill-opacity: 1; white-space: pre;">Test F1</text><g class="layers" style="opacity: 1;"><g class="legendfill"/><g class="legendlines"><path class="js-line" d="M5,0h30" style="fill: none; stroke: rgb(128, 128, 128); stroke-opacity: 1; stroke-width: 2px;"/></g><g class="legendsymbols"><g class="legendpoints"/></g></g><rect class="legendtoggle" x="0" y="-9.5" width="122.71875" height="19" style="fill: rgb(0, 0, 0); fill-opacity: 0;"/></g></g></g><rect class="scrollbar" rx="20" ry="3" width="0" height="0" x="0" y="0" style="fill: rgb(128, 139, 164); fill-opacity: 1;"/></g><g class="g-gtitle"><text class="gtitle" x="51.2" y="50" text-anchor="start" dy="0em" style="font-family: 'Open Sans', verdana, arial, sans-serif; font-size: 17px; fill: rgb(42, 63, 95); opacity: 1; font-weight: normal; white-space: pre;">Training Metrics - logs/hate-speech-dataset_num-clauses=10000_max-vocab=15000_pre=v2_text_T=200_s=15.log</text></g><g class="g-xtitle"><text class="xtitle" x="508" y="537.3" text-anchor="middle" style="font-family: 'Open Sans', verdana, arial, sans-serif; font-size: 14px; fill: rgb(42, 63, 95); opacity: 1; font-weight: normal; white-space: pre;">Epoch</text></g><g class="g-ytitle"><text class="ytitle" transform="rotate(-90,106.965625,298)" x="106.965625" y="298" text-anchor="middle" style="font-family: 'Open Sans', verdana, arial, sans-serif; font-size: 14px; fill: rgb(42, 63, 95); opacity: 1; font-weight: normal; white-space: pre;">Metric Score</text></g></g><g class="menulayer"><g class="updatemenu-container" style="cursor: pointer;"><g class="updatemenu-header-group" transform="translate(12,60)"><g class="updatemenu-header" transform="translate(1,1)" style="pointer-events: all;"><rect class="updatemenu-item-rect" rx="2" ry="2" shape-rendering="crispEdges" x="0" y="0" width="170" height="33" style="stroke: rgb(190, 200, 217); stroke-opacity: 1; fill: rgb(255, 255, 255); fill-opacity: 1; stroke-width: 1px;"/><text class="updatemenu-item-text" text-anchor="start" data-notex="1" x="12" y="19.5" style="font-family: 'Open Sans', verdana, arial, sans-serif; font-size: 12px; fill: rgb(42, 63, 95); fill-opacity: 1; white-space: pre;">All</text></g><text class="updatemenu-header-arrow" text-anchor="end" x="166" y="19.5" style="font-family: 'Open Sans', verdana, arial, sans-serif; font-size: 12px; fill: rgb(42, 63, 95); fill-opacity: 1;">▼</text></g><g class="updatemenu-dropdown-button-group" updatemenu-active-index="-1" style="pointer-events: all;"><rect class="scrollbox-bg" opacity="0" x="0" y="0" width="0" height="0" style="pointer-events: all;"/></g></g></g></svg>